<svg xmlns:xlink="http://www.w3.org/1999/xlink" width="1920" height="960" viewBox="0 0 1440 720" xmlns="http://www.w3.org/2000/svg" version="1.1"><metadata><rdf:RDF xmlns:dc="http://purl.org/dc/elements/1.1/" xmlns:cc="http://creativecommons.org/ns#" xmlns:rdf="http://www.w3.org/1999/02/22-rdf-syntax-ns#"><cc:Work><dc:type rdf:resource="http://purl.org/dc/dcmitype/StillImage"/><dc:format>image/svg+xml</dc:format><dc:creator><cc:Agent><dc:title>Matplotlib v3.7.1, https://matplotlib.org/</dc:title></cc:Agent></dc:creator></cc:Work></rdf:RDF></metadata><defs><style type="text/css">*{stroke-linejoin:round;stroke-linecap:butt}</style></defs><g id="figure_1"><g id="patch_1"><path d="M 0 720 L 1440 720 L 1440 0 L 0 0 z"/></g><g id="axes_1"><g id="patch_2"><path d="M 180 640.8 L 1296 640.8 L 1296 86.4 L 180 86.4 z"/></g><g id="matplotlib.axis_1"><g id="xtick_1"><g id="line2d_1"><defs><path id="m38533e26c2" d="M 0 0 L 0 3.5" stroke="#ffffff" stroke-width="0.8"/></defs><g><use xlink:href="#m38533e26c2" x="180" y="640.8" fill="#ffffff" stroke="#ffffff" stroke-width="0.8"/></g></g><g id="text_1"><g transform="translate(176.81875 655.398438) scale(0.1 -0.1)" fill="#ffffff"><defs><path id="DejaVuSans-30" d="M 2034 4250 Q 1547 4250 1301 3770 Q 1056 3291 1056 2328 Q 1056 1369 1301 889 Q 1547 409 2034 409 Q 2525 409 2770 889 Q 3016 1369 3016 2328 Q 3016 3291 2770 3770 Q 2525 4250 2034 4250 z M 2034 4750 Q 2819 4750 3233 4129 Q 3647 3509 3647 2328 Q 3647 1150 3233 529 Q 2819 -91 2034 -91 Q 1250 -91 836 529 Q 422 1150 422 2328 Q 422 3509 836 4129 Q 1250 4750 2034 4750 z" transform="scale(0.015625)"/></defs><use xlink:href="#DejaVuSans-30"/></g></g></g><g id="xtick_2"><g id="line2d_2"><g><use xlink:href="#m38533e26c2" x="311.977" y="640.8" fill="#ffffff" stroke="#ffffff" stroke-width="0.8"/></g></g><g id="text_2"><g transform="translate(302.433544 655.398438) scale(0.1 -0.1)" fill="#ffffff"><defs><path id="DejaVuSans-32" d="M 1228 531 L 3431 531 L 3431 0 L 469 0 L 469 531 Q 828 903 1448 1529 Q 2069 2156 2228 2338 Q 2531 2678 2651 2914 Q 2772 3150 2772 3378 Q 2772 3750 2511 3984 Q 2250 4219 1831 4219 Q 1534 4219 1204 4116 Q 875 4013 500 3803 L 500 4441 Q 881 4594 1212 4672 Q 1544 4750 1819 4750 Q 2544 4750 2975 4387 Q 3406 4025 3406 3419 Q 3406 3131 3298 2873 Q 3191 2616 2906 2266 Q 2828 2175 2409 1742 Q 1991 1309 1228 531 z" transform="scale(0.015625)"/><path id="DejaVuSans-35" d="M 691 4666 L 3169 4666 L 3169 4134 L 1269 4134 L 1269 2991 Q 1406 3038 1543 3061 Q 1681 3084 1819 3084 Q 2600 3084 3056 2656 Q 3513 2228 3513 1497 Q 3513 744 3044 326 Q 2575 -91 1722 -91 Q 1428 -91 1123 -41 Q 819 9 494 109 L 494 744 Q 775 591 1075 516 Q 1375 441 1709 441 Q 2250 441 2565 725 Q 2881 1009 2881 1497 Q 2881 1984 2565 2268 Q 2250 2553 1709 2553 Q 1456 2553 1204 2497 Q 953 2441 691 2322 L 691 4666 z" transform="scale(0.015625)"/></defs><use xlink:href="#DejaVuSans-32"/><use xlink:href="#DejaVuSans-35" x="63.623"/><use xlink:href="#DejaVuSans-30" x="127.246"/></g></g></g><g id="xtick_3"><g id="line2d_3"><g><use xlink:href="#m38533e26c2" x="443.955" y="640.8" fill="#ffffff" stroke="#ffffff" stroke-width="0.8"/></g></g><g id="text_3"><g transform="translate(434.410838 655.398438) scale(0.1 -0.1)" fill="#ffffff"><use xlink:href="#DejaVuSans-35"/><use xlink:href="#DejaVuSans-30" x="63.623"/><use xlink:href="#DejaVuSans-30" x="127.246"/></g></g></g><g id="xtick_4"><g id="line2d_4"><g><use xlink:href="#m38533e26c2" x="575.932" y="640.8" fill="#ffffff" stroke="#ffffff" stroke-width="0.8"/></g></g><g id="text_4"><g transform="translate(566.388133 655.398438) scale(0.1 -0.1)" fill="#ffffff"><defs><path id="DejaVuSans-37" d="M 525 4666 L 3525 4666 L 3525 4397 L 1831 0 L 1172 0 L 2766 4134 L 525 4134 L 525 4666 z" transform="scale(0.015625)"/></defs><use xlink:href="#DejaVuSans-37"/><use xlink:href="#DejaVuSans-35" x="63.623"/><use xlink:href="#DejaVuSans-30" x="127.246"/></g></g></g><g id="xtick_5"><g id="line2d_5"><g><use xlink:href="#m38533e26c2" x="707.909" y="640.8" fill="#ffffff" stroke="#ffffff" stroke-width="0.8"/></g></g><g id="text_5"><g transform="translate(695.184177 655.398438) scale(0.1 -0.1)" fill="#ffffff"><defs><path id="DejaVuSans-31" d="M 794 531 L 1825 531 L 1825 4091 L 703 3866 L 703 4441 L 1819 4666 L 2450 4666 L 2450 531 L 3481 531 L 3481 0 L 794 0 L 794 531 z" transform="scale(0.015625)"/></defs><use xlink:href="#DejaVuSans-31"/><use xlink:href="#DejaVuSans-30" x="63.623"/><use xlink:href="#DejaVuSans-30" x="127.246"/><use xlink:href="#DejaVuSans-30" x="190.869"/></g></g></g><g id="xtick_6"><g id="line2d_6"><g><use xlink:href="#m38533e26c2" x="839.886" y="640.8" fill="#ffffff" stroke="#ffffff" stroke-width="0.8"/></g></g><g id="text_6"><g transform="translate(827.161471 655.398438) scale(0.1 -0.1)" fill="#ffffff"><use xlink:href="#DejaVuSans-31"/><use xlink:href="#DejaVuSans-32" x="63.623"/><use xlink:href="#DejaVuSans-35" x="127.246"/><use xlink:href="#DejaVuSans-30" x="190.869"/></g></g></g><g id="xtick_7"><g id="line2d_7"><g><use xlink:href="#m38533e26c2" x="971.864" y="640.8" fill="#ffffff" stroke="#ffffff" stroke-width="0.8"/></g></g><g id="text_7"><g transform="translate(959.138765 655.398438) scale(0.1 -0.1)" fill="#ffffff"><use xlink:href="#DejaVuSans-31"/><use xlink:href="#DejaVuSans-35" x="63.623"/><use xlink:href="#DejaVuSans-30" x="127.246"/><use xlink:href="#DejaVuSans-30" x="190.869"/></g></g></g><g id="xtick_8"><g id="line2d_8"><g><use xlink:href="#m38533e26c2" x="1103.841" y="640.8" fill="#ffffff" stroke="#ffffff" stroke-width="0.8"/></g></g><g id="text_8"><g transform="translate(1091.11606 655.398438) scale(0.1 -0.1)" fill="#ffffff"><use xlink:href="#DejaVuSans-31"/><use xlink:href="#DejaVuSans-37" x="63.623"/><use xlink:href="#DejaVuSans-35" x="127.246"/><use xlink:href="#DejaVuSans-30" x="190.869"/></g></g></g><g id="xtick_9"><g id="line2d_9"><g><use xlink:href="#m38533e26c2" x="1235.818" y="640.8" fill="#ffffff" stroke="#ffffff" stroke-width="0.8"/></g></g><g id="text_9"><g transform="translate(1223.093354 655.398438) scale(0.1 -0.1)" fill="#ffffff"><use xlink:href="#DejaVuSans-32"/><use xlink:href="#DejaVuSans-30" x="63.623"/><use xlink:href="#DejaVuSans-30" x="127.246"/><use xlink:href="#DejaVuSans-30" x="190.869"/></g></g></g><g id="xtick_10"><g id="line2d_10"><defs><path id="mf800bbb8c6" d="M 0 0 L 0 2" stroke="#ffffff" stroke-width="0.6"/></defs><g><use xlink:href="#mf800bbb8c6" x="206.395" y="640.8" fill="#ffffff" stroke="#ffffff" stroke-width="0.6"/></g></g></g><g id="xtick_11"><g id="line2d_11"><g><use xlink:href="#mf800bbb8c6" x="232.791" y="640.8" fill="#ffffff" stroke="#ffffff" stroke-width="0.6"/></g></g></g><g id="xtick_12"><g id="line2d_12"><g><use xlink:href="#mf800bbb8c6" x="259.186" y="640.8" fill="#ffffff" stroke="#ffffff" stroke-width="0.6"/></g></g></g><g id="xtick_13"><g id="line2d_13"><g><use xlink:href="#mf800bbb8c6" x="285.582" y="640.8" fill="#ffffff" stroke="#ffffff" stroke-width="0.6"/></g></g></g><g id="xtick_14"><g id="line2d_14"><g><use xlink:href="#mf800bbb8c6" x="338.373" y="640.8" fill="#ffffff" stroke="#ffffff" stroke-width="0.6"/></g></g></g><g id="xtick_15"><g id="line2d_15"><g><use xlink:href="#mf800bbb8c6" x="364.768" y="640.8" fill="#ffffff" stroke="#ffffff" stroke-width="0.6"/></g></g></g><g id="xtick_16"><g id="line2d_16"><g><use xlink:href="#mf800bbb8c6" x="391.164" y="640.8" fill="#ffffff" stroke="#ffffff" stroke-width="0.6"/></g></g></g><g id="xtick_17"><g id="line2d_17"><g><use xlink:href="#mf800bbb8c6" x="417.559" y="640.8" fill="#ffffff" stroke="#ffffff" stroke-width="0.6"/></g></g></g><g id="xtick_18"><g id="line2d_18"><g><use xlink:href="#mf800bbb8c6" x="470.35" y="640.8" fill="#ffffff" stroke="#ffffff" stroke-width="0.6"/></g></g></g><g id="xtick_19"><g id="line2d_19"><g><use xlink:href="#mf800bbb8c6" x="496.746" y="640.8" fill="#ffffff" stroke="#ffffff" stroke-width="0.6"/></g></g></g><g id="xtick_20"><g id="line2d_20"><g><use xlink:href="#mf800bbb8c6" x="523.141" y="640.8" fill="#ffffff" stroke="#ffffff" stroke-width="0.6"/></g></g></g><g id="xtick_21"><g id="line2d_21"><g><use xlink:href="#mf800bbb8c6" x="549.536" y="640.8" fill="#ffffff" stroke="#ffffff" stroke-width="0.6"/></g></g></g><g id="xtick_22"><g id="line2d_22"><g><use xlink:href="#mf800bbb8c6" x="602.327" y="640.8" fill="#ffffff" stroke="#ffffff" stroke-width="0.6"/></g></g></g><g id="xtick_23"><g id="line2d_23"><g><use xlink:href="#mf800bbb8c6" x="628.723" y="640.8" fill="#ffffff" stroke="#ffffff" stroke-width="0.6"/></g></g></g><g id="xtick_24"><g id="line2d_24"><g><use xlink:href="#mf800bbb8c6" x="655.118" y="640.8" fill="#ffffff" stroke="#ffffff" stroke-width="0.6"/></g></g></g><g id="xtick_25"><g id="line2d_25"><g><use xlink:href="#mf800bbb8c6" x="681.514" y="640.8" fill="#ffffff" stroke="#ffffff" stroke-width="0.6"/></g></g></g><g id="xtick_26"><g id="line2d_26"><g><use xlink:href="#mf800bbb8c6" x="734.305" y="640.8" fill="#ffffff" stroke="#ffffff" stroke-width="0.6"/></g></g></g><g id="xtick_27"><g id="line2d_27"><g><use xlink:href="#mf800bbb8c6" x="760.7" y="640.8" fill="#ffffff" stroke="#ffffff" stroke-width="0.6"/></g></g></g><g id="xtick_28"><g id="line2d_28"><g><use xlink:href="#mf800bbb8c6" x="787.096" y="640.8" fill="#ffffff" stroke="#ffffff" stroke-width="0.6"/></g></g></g><g id="xtick_29"><g id="line2d_29"><g><use xlink:href="#mf800bbb8c6" x="813.491" y="640.8" fill="#ffffff" stroke="#ffffff" stroke-width="0.6"/></g></g></g><g id="xtick_30"><g id="line2d_30"><g><use xlink:href="#mf800bbb8c6" x="866.282" y="640.8" fill="#ffffff" stroke="#ffffff" stroke-width="0.6"/></g></g></g><g id="xtick_31"><g id="line2d_31"><g><use xlink:href="#mf800bbb8c6" x="892.677" y="640.8" fill="#ffffff" stroke="#ffffff" stroke-width="0.6"/></g></g></g><g id="xtick_32"><g id="line2d_32"><g><use xlink:href="#mf800bbb8c6" x="919.073" y="640.8" fill="#ffffff" stroke="#ffffff" stroke-width="0.6"/></g></g></g><g id="xtick_33"><g id="line2d_33"><g><use xlink:href="#mf800bbb8c6" x="945.468" y="640.8" fill="#ffffff" stroke="#ffffff" stroke-width="0.6"/></g></g></g><g id="xtick_34"><g id="line2d_34"><g><use xlink:href="#mf800bbb8c6" x="998.259" y="640.8" fill="#ffffff" stroke="#ffffff" stroke-width="0.6"/></g></g></g><g id="xtick_35"><g id="line2d_35"><g><use xlink:href="#mf800bbb8c6" x="1024.655" y="640.8" fill="#ffffff" stroke="#ffffff" stroke-width="0.6"/></g></g></g><g id="xtick_36"><g id="line2d_36"><g><use xlink:href="#mf800bbb8c6" x="1051.05" y="640.8" fill="#ffffff" stroke="#ffffff" stroke-width="0.6"/></g></g></g><g id="xtick_37"><g id="line2d_37"><g><use xlink:href="#mf800bbb8c6" x="1077.446" y="640.8" fill="#ffffff" stroke="#ffffff" stroke-width="0.6"/></g></g></g><g id="xtick_38"><g id="line2d_38"><g><use xlink:href="#mf800bbb8c6" x="1130.237" y="640.8" fill="#ffffff" stroke="#ffffff" stroke-width="0.6"/></g></g></g><g id="xtick_39"><g id="line2d_39"><g><use xlink:href="#mf800bbb8c6" x="1156.632" y="640.8" fill="#ffffff" stroke="#ffffff" stroke-width="0.6"/></g></g></g><g id="xtick_40"><g id="line2d_40"><g><use xlink:href="#mf800bbb8c6" x="1183.027" y="640.8" fill="#ffffff" stroke="#ffffff" stroke-width="0.6"/></g></g></g><g id="xtick_41"><g id="line2d_41"><g><use xlink:href="#mf800bbb8c6" x="1209.423" y="640.8" fill="#ffffff" stroke="#ffffff" stroke-width="0.6"/></g></g></g><g id="xtick_42"><g id="line2d_42"><g><use xlink:href="#mf800bbb8c6" x="1262.214" y="640.8" fill="#ffffff" stroke="#ffffff" stroke-width="0.6"/></g></g></g><g id="xtick_43"><g id="line2d_43"><g><use xlink:href="#mf800bbb8c6" x="1288.609" y="640.8" fill="#ffffff" stroke="#ffffff" stroke-width="0.6"/></g></g></g><g id="text_10"><g transform="translate(638.625781 669.076563) scale(0.1 -0.1)" fill="#ffffff"><defs><path id="DejaVuSans-48" d="M 628 4666 L 1259 4666 L 1259 2753 L 3553 2753 L 3553 4666 L 4184 4666 L 4184 0 L 3553 0 L 3553 2222 L 1259 2222 L 1259 0 L 628 0 L 628 4666 z" transform="scale(0.015625)"/><path id="DejaVuSans-6f" d="M 1959 3097 Q 1497 3097 1228 2736 Q 959 2375 959 1747 Q 959 1119 1226 758 Q 1494 397 1959 397 Q 2419 397 2687 759 Q 2956 1122 2956 1747 Q 2956 2369 2687 2733 Q 2419 3097 1959 3097 z M 1959 3584 Q 2709 3584 3137 3096 Q 3566 2609 3566 1747 Q 3566 888 3137 398 Q 2709 -91 1959 -91 Q 1206 -91 779 398 Q 353 888 353 1747 Q 353 2609 779 3096 Q 1206 3584 1959 3584 z" transform="scale(0.015625)"/><path id="DejaVuSans-75" d="M 544 1381 L 544 3500 L 1119 3500 L 1119 1403 Q 1119 906 1312 657 Q 1506 409 1894 409 Q 2359 409 2629 706 Q 2900 1003 2900 1516 L 2900 3500 L 3475 3500 L 3475 0 L 2900 0 L 2900 538 Q 2691 219 2414 64 Q 2138 -91 1772 -91 Q 1169 -91 856 284 Q 544 659 544 1381 z M 1991 3584 L 1991 3584 z" transform="scale(0.015625)"/><path id="DejaVuSans-72" d="M 2631 2963 Q 2534 3019 2420 3045 Q 2306 3072 2169 3072 Q 1681 3072 1420 2755 Q 1159 2438 1159 1844 L 1159 0 L 581 0 L 581 3500 L 1159 3500 L 1159 2956 Q 1341 3275 1631 3429 Q 1922 3584 2338 3584 Q 2397 3584 2469 3576 Q 2541 3569 2628 3553 L 2631 2963 z" transform="scale(0.015625)"/><path id="DejaVuSans-73" d="M 2834 3397 L 2834 2853 Q 2591 2978 2328 3040 Q 2066 3103 1784 3103 Q 1356 3103 1142 2972 Q 928 2841 928 2578 Q 928 2378 1081 2264 Q 1234 2150 1697 2047 L 1894 2003 Q 2506 1872 2764 1633 Q 3022 1394 3022 966 Q 3022 478 2636 193 Q 2250 -91 1575 -91 Q 1294 -91 989 -36 Q 684 19 347 128 L 347 722 Q 666 556 975 473 Q 1284 391 1588 391 Q 1994 391 2212 530 Q 2431 669 2431 922 Q 2431 1156 2273 1281 Q 2116 1406 1581 1522 L 1381 1569 Q 847 1681 609 1914 Q 372 2147 372 2553 Q 372 3047 722 3315 Q 1072 3584 1716 3584 Q 2034 3584 2315 3537 Q 2597 3491 2834 3397 z" transform="scale(0.015625)"/><path id="DejaVuSans-20" transform="scale(0.015625)"/><path id="DejaVuSans-69" d="M 603 3500 L 1178 3500 L 1178 0 L 603 0 L 603 3500 z M 603 4863 L 1178 4863 L 1178 4134 L 603 4134 L 603 4863 z" transform="scale(0.015625)"/><path id="DejaVuSans-6e" d="M 3513 2113 L 3513 0 L 2938 0 L 2938 2094 Q 2938 2591 2744 2837 Q 2550 3084 2163 3084 Q 1697 3084 1428 2787 Q 1159 2491 1159 1978 L 1159 0 L 581 0 L 581 3500 L 1159 3500 L 1159 2956 Q 1366 3272 1645 3428 Q 1925 3584 2291 3584 Q 2894 3584 3203 3211 Q 3513 2838 3513 2113 z" transform="scale(0.015625)"/><path id="DejaVuSans-63" d="M 3122 3366 L 3122 2828 Q 2878 2963 2633 3030 Q 2388 3097 2138 3097 Q 1578 3097 1268 2742 Q 959 2388 959 1747 Q 959 1106 1268 751 Q 1578 397 2138 397 Q 2388 397 2633 464 Q 2878 531 3122 666 L 3122 134 Q 2881 22 2623 -34 Q 2366 -91 2075 -91 Q 1284 -91 818 406 Q 353 903 353 1747 Q 353 2603 823 3093 Q 1294 3584 2113 3584 Q 2378 3584 2631 3529 Q 2884 3475 3122 3366 z" transform="scale(0.015625)"/><path id="DejaVuSans-65" d="M 3597 1894 L 3597 1613 L 953 1613 Q 991 1019 1311 708 Q 1631 397 2203 397 Q 2534 397 2845 478 Q 3156 559 3463 722 L 3463 178 Q 3153 47 2828 -22 Q 2503 -91 2169 -91 Q 1331 -91 842 396 Q 353 884 353 1716 Q 353 2575 817 3079 Q 1281 3584 2069 3584 Q 2775 3584 3186 3129 Q 3597 2675 3597 1894 z M 3022 2063 Q 3016 2534 2758 2815 Q 2500 3097 2075 3097 Q 1594 3097 1305 2825 Q 1016 2553 972 2059 L 3022 2063 z" transform="scale(0.015625)"/><path id="DejaVuSans-36" d="M 2113 2584 Q 1688 2584 1439 2293 Q 1191 2003 1191 1497 Q 1191 994 1439 701 Q 1688 409 2113 409 Q 2538 409 2786 701 Q 3034 994 3034 1497 Q 3034 2003 2786 2293 Q 2538 2584 2113 2584 z M 3366 4563 L 3366 3988 Q 3128 4100 2886 4159 Q 2644 4219 2406 4219 Q 1781 4219 1451 3797 Q 1122 3375 1075 2522 Q 1259 2794 1537 2939 Q 1816 3084 2150 3084 Q 2853 3084 3261 2657 Q 3669 2231 3669 1497 Q 3669 778 3244 343 Q 2819 -91 2113 -91 Q 1303 -91 875 529 Q 447 1150 447 2328 Q 447 3434 972 4092 Q 1497 4750 2381 4750 Q 2619 4750 2861 4703 Q 3103 4656 3366 4563 z" transform="scale(0.015625)"/><path id="DejaVuSans-2f" d="M 1625 4666 L 2156 4666 L 531 -594 L 0 -594 L 1625 4666 z" transform="scale(0.015625)"/><path id="DejaVuSans-33" d="M 2597 2516 Q 3050 2419 3304 2112 Q 3559 1806 3559 1356 Q 3559 666 3084 287 Q 2609 -91 1734 -91 Q 1441 -91 1130 -33 Q 819 25 488 141 L 488 750 Q 750 597 1062 519 Q 1375 441 1716 441 Q 2309 441 2620 675 Q 2931 909 2931 1356 Q 2931 1769 2642 2001 Q 2353 2234 1838 2234 L 1294 2234 L 1294 2753 L 1863 2753 Q 2328 2753 2575 2939 Q 2822 3125 2822 3475 Q 2822 3834 2567 4026 Q 2313 4219 1838 4219 Q 1578 4219 1281 4162 Q 984 4106 628 3988 L 628 4550 Q 988 4650 1302 4700 Q 1616 4750 1894 4750 Q 2613 4750 3031 4423 Q 3450 4097 3450 3541 Q 3450 3153 3228 2886 Q 3006 2619 2597 2516 z" transform="scale(0.015625)"/><path id="DejaVuSans-3a" d="M 750 794 L 1409 794 L 1409 0 L 750 0 L 750 794 z M 750 3309 L 1409 3309 L 1409 2516 L 750 2516 L 750 3309 z" transform="scale(0.015625)"/><path id="DejaVuSans-28" d="M 1984 4856 Q 1566 4138 1362 3434 Q 1159 2731 1159 2009 Q 1159 1288 1364 580 Q 1569 -128 1984 -844 L 1484 -844 Q 1016 -109 783 600 Q 550 1309 550 2009 Q 550 2706 781 3412 Q 1013 4119 1484 4856 L 1984 4856 z" transform="scale(0.015625)"/><path id="DejaVuSans-55" d="M 556 4666 L 1191 4666 L 1191 1831 Q 1191 1081 1462 751 Q 1734 422 2344 422 Q 2950 422 3222 751 Q 3494 1081 3494 1831 L 3494 4666 L 4128 4666 L 4128 1753 Q 4128 841 3676 375 Q 3225 -91 2344 -91 Q 1459 -91 1007 375 Q 556 841 556 1753 L 556 4666 z" transform="scale(0.015625)"/><path id="DejaVuSans-43" d="M 4122 4306 L 4122 3641 Q 3803 3938 3442 4084 Q 3081 4231 2675 4231 Q 1875 4231 1450 3742 Q 1025 3253 1025 2328 Q 1025 1406 1450 917 Q 1875 428 2675 428 Q 3081 428 3442 575 Q 3803 722 4122 1019 L 4122 359 Q 3791 134 3420 21 Q 3050 -91 2638 -91 Q 1578 -91 968 557 Q 359 1206 359 2328 Q 359 3453 968 4101 Q 1578 4750 2638 4750 Q 3056 4750 3426 4639 Q 3797 4528 4122 4306 z" transform="scale(0.015625)"/><path id="DejaVuSans-54" d="M -19 4666 L 3928 4666 L 3928 4134 L 2272 4134 L 2272 0 L 1638 0 L 1638 4134 L -19 4134 L -19 4666 z" transform="scale(0.015625)"/><path id="DejaVuSans-29" d="M 513 4856 L 1013 4856 Q 1481 4119 1714 3412 Q 1947 2706 1947 2009 Q 1947 1309 1714 600 Q 1481 -109 1013 -844 L 513 -844 Q 928 -128 1133 580 Q 1338 1288 1338 2009 Q 1338 2731 1133 3434 Q 928 4138 513 4856 z" transform="scale(0.015625)"/></defs><use xlink:href="#DejaVuSans-48"/><use xlink:href="#DejaVuSans-6f" x="75.195"/><use xlink:href="#DejaVuSans-75" x="136.377"/><use xlink:href="#DejaVuSans-72" x="199.756"/><use xlink:href="#DejaVuSans-73" x="240.869"/><use xlink:href="#DejaVuSans-20" x="292.969"/><use xlink:href="#DejaVuSans-73" x="324.756"/><use xlink:href="#DejaVuSans-69" x="376.855"/><use xlink:href="#DejaVuSans-6e" x="404.639"/><use xlink:href="#DejaVuSans-63" x="468.018"/><use xlink:href="#DejaVuSans-65" x="522.998"/><use xlink:href="#DejaVuSans-20" x="584.521"/><use xlink:href="#DejaVuSans-32" x="616.309"/><use xlink:href="#DejaVuSans-36" x="679.932"/><use xlink:href="#DejaVuSans-2f" x="743.555"/><use xlink:href="#DejaVuSans-30" x="777.246"/><use xlink:href="#DejaVuSans-32" x="840.869"/><use xlink:href="#DejaVuSans-2f" x="904.492"/><use xlink:href="#DejaVuSans-32" x="938.184"/><use xlink:href="#DejaVuSans-30" x="1001.807"/><use xlink:href="#DejaVuSans-32" x="1065.43"/><use xlink:href="#DejaVuSans-33" x="1129.053"/><use xlink:href="#DejaVuSans-20" x="1192.676"/><use xlink:href="#DejaVuSans-30" x="1224.463"/><use xlink:href="#DejaVuSans-35" x="1288.086"/><use xlink:href="#DejaVuSans-3a" x="1351.709"/><use xlink:href="#DejaVuSans-30" x="1385.4"/><use xlink:href="#DejaVuSans-30" x="1449.023"/><use xlink:href="#DejaVuSans-3a" x="1512.646"/><use xlink:href="#DejaVuSans-30" x="1546.338"/><use xlink:href="#DejaVuSans-30" x="1609.961"/><use xlink:href="#DejaVuSans-20" x="1673.584"/><use xlink:href="#DejaVuSans-28" x="1705.371"/><use xlink:href="#DejaVuSans-55" x="1744.385"/><use xlink:href="#DejaVuSans-43" x="1817.578"/><use xlink:href="#DejaVuSans-54" x="1887.402"/><use xlink:href="#DejaVuSans-29" x="1948.486"/></g></g></g><g id="matplotlib.axis_2"><g id="ytick_1"><g id="line2d_44"><defs><path id="mc6fb75d539" d="M 0 0 L -3.5 0" stroke="#ffffff" stroke-width="0.8"/></defs><g><use xlink:href="#mc6fb75d539" x="180" y="615.6" fill="#ffffff" stroke="#ffffff" stroke-width="0.8"/></g></g><g id="text_11"><g transform="translate(166.6375 619.399219) scale(0.1 -0.1)" fill="#ffffff"><use xlink:href="#DejaVuSans-30"/></g></g></g><g id="ytick_2"><g id="line2d_45"><g><use xlink:href="#mc6fb75d539" x="180" y="497.843" fill="#ffffff" stroke="#ffffff" stroke-width="0.8"/></g></g><g id="text_12"><g transform="translate(153.9125 501.642209) scale(0.1 -0.1)" fill="#ffffff"><use xlink:href="#DejaVuSans-32"/><use xlink:href="#DejaVuSans-30" x="63.623"/><use xlink:href="#DejaVuSans-30" x="127.246"/></g></g></g><g id="ytick_3"><g id="line2d_46"><g><use xlink:href="#mc6fb75d539" x="180" y="380.086" fill="#ffffff" stroke="#ffffff" stroke-width="0.8"/></g></g><g id="text_13"><g transform="translate(153.9125 383.8852) scale(0.1 -0.1)" fill="#ffffff"><defs><path id="DejaVuSans-34" d="M 2419 4116 L 825 1625 L 2419 1625 L 2419 4116 z M 2253 4666 L 3047 4666 L 3047 1625 L 3713 1625 L 3713 1100 L 3047 1100 L 3047 0 L 2419 0 L 2419 1100 L 313 1100 L 313 1709 L 2253 4666 z" transform="scale(0.015625)"/></defs><use xlink:href="#DejaVuSans-34"/><use xlink:href="#DejaVuSans-30" x="63.623"/><use xlink:href="#DejaVuSans-30" x="127.246"/></g></g></g><g id="ytick_4"><g id="line2d_47"><g><use xlink:href="#mc6fb75d539" x="180" y="262.329" fill="#ffffff" stroke="#ffffff" stroke-width="0.8"/></g></g><g id="text_14"><g transform="translate(153.9125 266.128191) scale(0.1 -0.1)" fill="#ffffff"><use xlink:href="#DejaVuSans-36"/><use xlink:href="#DejaVuSans-30" x="63.623"/><use xlink:href="#DejaVuSans-30" x="127.246"/></g></g></g><g id="ytick_5"><g id="line2d_48"><g><use xlink:href="#mc6fb75d539" x="180" y="144.572" fill="#ffffff" stroke="#ffffff" stroke-width="0.8"/></g></g><g id="text_15"><g transform="translate(153.9125 148.371181) scale(0.1 -0.1)" fill="#ffffff"><defs><path id="DejaVuSans-38" d="M 2034 2216 Q 1584 2216 1326 1975 Q 1069 1734 1069 1313 Q 1069 891 1326 650 Q 1584 409 2034 409 Q 2484 409 2743 651 Q 3003 894 3003 1313 Q 3003 1734 2745 1975 Q 2488 2216 2034 2216 z M 1403 2484 Q 997 2584 770 2862 Q 544 3141 544 3541 Q 544 4100 942 4425 Q 1341 4750 2034 4750 Q 2731 4750 3128 4425 Q 3525 4100 3525 3541 Q 3525 3141 3298 2862 Q 3072 2584 2669 2484 Q 3125 2378 3379 2068 Q 3634 1759 3634 1313 Q 3634 634 3220 271 Q 2806 -91 2034 -91 Q 1263 -91 848 271 Q 434 634 434 1313 Q 434 1759 690 2068 Q 947 2378 1403 2484 z M 1172 3481 Q 1172 3119 1398 2916 Q 1625 2713 2034 2713 Q 2441 2713 2670 2916 Q 2900 3119 2900 3481 Q 2900 3844 2670 4047 Q 2441 4250 2034 4250 Q 1625 4250 1398 4047 Q 1172 3844 1172 3481 z" transform="scale(0.015625)"/></defs><use xlink:href="#DejaVuSans-38"/><use xlink:href="#DejaVuSans-30" x="63.623"/><use xlink:href="#DejaVuSans-30" x="127.246"/></g></g></g><g id="ytick_6"><g id="line2d_49"><defs><path id="ma73f451c73" d="M 0 0 L -2 0" stroke="#ffffff" stroke-width="0.6"/></defs><g><use xlink:href="#ma73f451c73" x="180" y="586.161" fill="#ffffff" stroke="#ffffff" stroke-width="0.6"/></g></g></g><g id="ytick_7"><g id="line2d_50"><g><use xlink:href="#ma73f451c73" x="180" y="556.721" fill="#ffffff" stroke="#ffffff" stroke-width="0.6"/></g></g></g><g id="ytick_8"><g id="line2d_51"><g><use xlink:href="#ma73f451c73" x="180" y="527.282" fill="#ffffff" stroke="#ffffff" stroke-width="0.6"/></g></g></g><g id="ytick_9"><g id="line2d_52"><g><use xlink:href="#ma73f451c73" x="180" y="468.404" fill="#ffffff" stroke="#ffffff" stroke-width="0.6"/></g></g></g><g id="ytick_10"><g id="line2d_53"><g><use xlink:href="#ma73f451c73" x="180" y="438.964" fill="#ffffff" stroke="#ffffff" stroke-width="0.6"/></g></g></g><g id="ytick_11"><g id="line2d_54"><g><use xlink:href="#ma73f451c73" x="180" y="409.525" fill="#ffffff" stroke="#ffffff" stroke-width="0.6"/></g></g></g><g id="ytick_12"><g id="line2d_55"><g><use xlink:href="#ma73f451c73" x="180" y="350.647" fill="#ffffff" stroke="#ffffff" stroke-width="0.6"/></g></g></g><g id="ytick_13"><g id="line2d_56"><g><use xlink:href="#ma73f451c73" x="180" y="321.207" fill="#ffffff" stroke="#ffffff" stroke-width="0.6"/></g></g></g><g id="ytick_14"><g id="line2d_57"><g><use xlink:href="#ma73f451c73" x="180" y="291.768" fill="#ffffff" stroke="#ffffff" stroke-width="0.6"/></g></g></g><g id="ytick_15"><g id="line2d_58"><g><use xlink:href="#ma73f451c73" x="180" y="232.89" fill="#ffffff" stroke="#ffffff" stroke-width="0.6"/></g></g></g><g id="ytick_16"><g id="line2d_59"><g><use xlink:href="#ma73f451c73" x="180" y="203.45" fill="#ffffff" stroke="#ffffff" stroke-width="0.6"/></g></g></g><g id="ytick_17"><g id="line2d_60"><g><use xlink:href="#ma73f451c73" x="180" y="174.011" fill="#ffffff" stroke="#ffffff" stroke-width="0.6"/></g></g></g><g id="ytick_18"><g id="line2d_61"><g><use xlink:href="#ma73f451c73" x="180" y="115.133" fill="#ffffff" stroke="#ffffff" stroke-width="0.6"/></g></g></g><g id="text_16"><g transform="translate(147.832812 434.258594) rotate(-90) scale(0.1 -0.1)" fill="#ffffff"><defs><path id="DejaVuSans-53" d="M 3425 4513 L 3425 3897 Q 3066 4069 2747 4153 Q 2428 4238 2131 4238 Q 1616 4238 1336 4038 Q 1056 3838 1056 3469 Q 1056 3159 1242 3001 Q 1428 2844 1947 2747 L 2328 2669 Q 3034 2534 3370 2195 Q 3706 1856 3706 1288 Q 3706 609 3251 259 Q 2797 -91 1919 -91 Q 1588 -91 1214 -16 Q 841 59 441 206 L 441 856 Q 825 641 1194 531 Q 1563 422 1919 422 Q 2459 422 2753 634 Q 3047 847 3047 1241 Q 3047 1584 2836 1778 Q 2625 1972 2144 2069 L 1759 2144 Q 1053 2284 737 2584 Q 422 2884 422 3419 Q 422 4038 858 4394 Q 1294 4750 2059 4750 Q 2388 4750 2728 4690 Q 3069 4631 3425 4513 z" transform="scale(0.015625)"/><path id="DejaVuSans-64" d="M 2906 2969 L 2906 4863 L 3481 4863 L 3481 0 L 2906 0 L 2906 525 Q 2725 213 2448 61 Q 2172 -91 1784 -91 Q 1150 -91 751 415 Q 353 922 353 1747 Q 353 2572 751 3078 Q 1150 3584 1784 3584 Q 2172 3584 2448 3432 Q 2725 3281 2906 2969 z M 947 1747 Q 947 1113 1208 752 Q 1469 391 1925 391 Q 2381 391 2643 752 Q 2906 1113 2906 1747 Q 2906 2381 2643 2742 Q 2381 3103 1925 3103 Q 1469 3103 1208 2742 Q 947 2381 947 1747 z" transform="scale(0.015625)"/><path id="DejaVuSans-62" d="M 3116 1747 Q 3116 2381 2855 2742 Q 2594 3103 2138 3103 Q 1681 3103 1420 2742 Q 1159 2381 1159 1747 Q 1159 1113 1420 752 Q 1681 391 2138 391 Q 2594 391 2855 752 Q 3116 1113 3116 1747 z M 1159 2969 Q 1341 3281 1617 3432 Q 1894 3584 2278 3584 Q 2916 3584 3314 3078 Q 3713 2572 3713 1747 Q 3713 922 3314 415 Q 2916 -91 2278 -91 Q 1894 -91 1617 61 Q 1341 213 1159 525 L 1159 0 L 581 0 L 581 4863 L 1159 4863 L 1159 2969 z" transform="scale(0.015625)"/><path id="DejaVuSans-74" d="M 1172 4494 L 1172 3500 L 2356 3500 L 2356 3053 L 1172 3053 L 1172 1153 Q 1172 725 1289 603 Q 1406 481 1766 481 L 2356 481 L 2356 0 L 1766 0 Q 1100 0 847 248 Q 594 497 594 1153 L 594 3053 L 172 3053 L 172 3500 L 594 3500 L 594 4494 L 1172 4494 z" transform="scale(0.015625)"/><path id="DejaVuSans-77" d="M 269 3500 L 844 3500 L 1563 769 L 2278 3500 L 2956 3500 L 3675 769 L 4391 3500 L 4966 3500 L 4050 0 L 3372 0 L 2619 2869 L 1863 0 L 1184 0 L 269 3500 z" transform="scale(0.015625)"/><path id="DejaVuSans-61" d="M 2194 1759 Q 1497 1759 1228 1600 Q 959 1441 959 1056 Q 959 750 1161 570 Q 1363 391 1709 391 Q 2188 391 2477 730 Q 2766 1069 2766 1631 L 2766 1759 L 2194 1759 z M 3341 1997 L 3341 0 L 2766 0 L 2766 531 Q 2569 213 2275 61 Q 1981 -91 1556 -91 Q 1019 -91 701 211 Q 384 513 384 1019 Q 384 1609 779 1909 Q 1175 2209 1959 2209 L 2766 2209 L 2766 2266 Q 2766 2663 2505 2880 Q 2244 3097 1772 3097 Q 1472 3097 1187 3025 Q 903 2953 641 2809 L 641 3341 Q 956 3463 1253 3523 Q 1550 3584 1831 3584 Q 2591 3584 2966 3190 Q 3341 2797 3341 1997 z" transform="scale(0.015625)"/><path id="DejaVuSans-70" d="M 1159 525 L 1159 -1331 L 581 -1331 L 581 3500 L 1159 3500 L 1159 2969 Q 1341 3281 1617 3432 Q 1894 3584 2278 3584 Q 2916 3584 3314 3078 Q 3713 2572 3713 1747 Q 3713 922 3314 415 Q 2916 -91 2278 -91 Q 1894 -91 1617 61 Q 1341 213 1159 525 z M 3116 1747 Q 3116 2381 2855 2742 Q 2594 3103 2138 3103 Q 1681 3103 1420 2742 Q 1159 2381 1159 1747 Q 1159 1113 1420 752 Q 1681 391 2138 391 Q 2594 391 2855 752 Q 3116 1113 3116 1747 z" transform="scale(0.015625)"/><path id="DejaVuSans-6c" d="M 603 4863 L 1178 4863 L 1178 0 L 603 0 L 603 4863 z" transform="scale(0.015625)"/></defs><use xlink:href="#DejaVuSans-53"/><use xlink:href="#DejaVuSans-65" x="63.477"/><use xlink:href="#DejaVuSans-63" x="125"/><use xlink:href="#DejaVuSans-6f" x="179.98"/><use xlink:href="#DejaVuSans-6e" x="241.162"/><use xlink:href="#DejaVuSans-64" x="304.541"/><use xlink:href="#DejaVuSans-73" x="368.018"/><use xlink:href="#DejaVuSans-20" x="420.117"/><use xlink:href="#DejaVuSans-62" x="451.904"/><use xlink:href="#DejaVuSans-65" x="515.381"/><use xlink:href="#DejaVuSans-74" x="576.904"/><use xlink:href="#DejaVuSans-77" x="616.113"/><use xlink:href="#DejaVuSans-65" x="697.9"/><use xlink:href="#DejaVuSans-65" x="759.424"/><use xlink:href="#DejaVuSans-6e" x="820.947"/><use xlink:href="#DejaVuSans-20" x="884.326"/><use xlink:href="#DejaVuSans-61" x="916.113"/><use xlink:href="#DejaVuSans-6e" x="977.393"/><use xlink:href="#DejaVuSans-20" x="1040.771"/><use xlink:href="#DejaVuSans-75" x="1072.559"/><use xlink:href="#DejaVuSans-70" x="1135.938"/><use xlink:href="#DejaVuSans-6c" x="1199.414"/><use xlink:href="#DejaVuSans-6f" x="1227.197"/><use xlink:href="#DejaVuSans-61" x="1288.379"/><use xlink:href="#DejaVuSans-64" x="1349.658"/></g></g></g><g id="line2d_62"><path d="M 180 615.6 L 180.527909 512.235514 L 181.055818 573.14484 L 181.583728 577.638084 L 182.111637 574.558219 L 182.639546 565.401869 L 183.167455 588.437383 L 184.751183 554.298418 L 185.279092 585.993779 L 185.807001 591.196409 L 186.33491 600.579535 L 186.862819 599.192217 L 187.390728 592.135578 L 187.918638 597.242523 L 188.446547 601.013058 L 188.974456 598.906766 L 189.502365 604.75396 L 190.558184 599.670854 L 191.086093 593.340127 L 191.614002 595.796441 L 192.141911 604.406719 L 192.66982 579.032243 L 193.197729 593.105879 L 193.725639 572.014809 L 194.253548 583.17757 L 194.781457 557.915888 L 195.309366 554.989775 L 195.837275 540.259065 L 196.365184 547.950628 L 196.893094 524.366355 L 197.421003 515.748983 L 197.948912 579.933214 L 198.476821 605.873404 L 199.00473 519.71215 L 199.53264 595.419092 L 200.060549 586.775132 L 200.588458 592.318162 L 201.116367 593.15577 L 201.644276 593.578159 L 202.172185 582.618541 L 202.700095 586.301353 L 203.228004 592.972927 L 203.755913 574.86785 L 204.283822 596.098559 L 204.811731 571.566395 L 205.86755 583.143224 L 206.395459 572.091238 L 206.923368 554.091589 L 207.451277 577.017916 L 207.979186 396.571963 L 208.507096 477.151402 L 209.035005 440.891419 L 209.562914 515.948131 L 210.090823 519.569159 L 210.618732 557.899065 L 211.146641 560.142814 L 211.674551 576.18537 L 212.20246 582.646729 L 212.730369 594.048014 L 213.258278 597.069042 L 213.786187 592.984112 L 214.314096 582.968429 L 214.842006 593.449287 L 215.369915 590.92847 L 215.897824 598.011294 L 216.425733 592.595822 L 216.953642 561.230349 L 217.481552 566.558514 L 218.009461 559.044809 L 218.53737 563.910871 L 219.065279 573.52066 L 219.593188 590.842991 L 220.121097 592.810179 L 220.649007 573.051268 L 221.176916 548.772897 L 221.704825 548.929907 L 222.232734 500.475206 L 222.760643 576.17362 L 223.288553 525.729992 L 223.816462 533.571538 L 224.344371 584.753651 L 224.87228 587.130999 L 225.400189 579.095327 L 225.928098 593.420342 L 226.456008 583.912659 L 226.983917 579.773927 L 227.511826 579.582597 L 228.039735 597.821685 L 228.567644 597.716294 L 229.095553 583.948343 L 229.623463 585.197281 L 230.151372 596.368139 L 230.679281 585.838756 L 231.20719 597.670215 L 231.735099 565.553271 L 232.263009 547.715265 L 232.790918 559.242231 L 233.318827 551.650347 L 233.846736 525.011215 L 234.374645 532.581308 L 234.902554 548.972324 L 235.430464 525.746282 L 236.486282 567.431776 L 237.014191 580.123206 L 237.5421 590.00993 L 238.070009 595.473742 L 238.597919 604.661478 L 239.653737 589.296028 L 240.181646 601.914621 L 240.709555 601.457304 L 241.237465 598.583147 L 241.765374 598.264624 L 242.293283 600.049148 L 242.821192 594.871303 L 243.349101 594.451802 L 244.40492 584.215973 L 244.932829 580.753738 L 245.460738 570.148354 L 245.988647 564.102849 L 246.516556 561.354304 L 247.044465 552.447352 L 247.572375 572.810389 L 248.100284 520.898574 L 248.628193 555.405388 L 249.156102 561.69518 L 249.684011 590.509244 L 250.211921 594.962787 L 251.267739 600.818178 L 251.795648 599.757153 L 252.323557 602.679439 L 252.851466 604.650448 L 253.379376 600.972897 L 253.907285 600.896843 L 254.435194 598.657121 L 254.963103 606.504551 L 256.018921 601.236098 L 256.546831 593.974416 L 257.07474 560.090654 L 257.602649 581.971687 L 258.658467 569.764364 L 259.186377 584.90525 L 259.714286 560.557519 L 260.242195 583.725319 L 260.770104 598.462494 L 261.298013 594.515607 L 261.825922 597.61941 L 262.353832 598.267949 L 263.40965 606.010063 L 263.937559 605.638092 L 264.465468 599.496055 L 264.993377 603.677934 L 265.521287 605.145404 L 266.049196 600.15836 L 267.105014 605.181449 L 267.632923 602.819056 L 268.160833 599.87856 L 268.688742 602.985192 L 269.216651 605.224494 L 269.74456 589.796495 L 270.272469 565.930697 L 270.800378 582.702804 L 271.328288 591.14388 L 271.856197 594.308581 L 272.384106 586.094406 L 272.912015 596.242303 L 273.439924 600.888609 L 273.967833 599.85 L 274.495743 603.47998 L 275.023652 603.287162 L 275.551561 602.718973 L 276.07947 606.147756 L 276.607379 606.44452 L 277.135289 603.77799 L 277.663198 604.571126 L 278.191107 601.469159 L 278.719016 604.40049 L 280.302744 598.396592 L 280.830653 600.965091 L 281.358562 599.043925 L 281.886471 581.915797 L 282.41438 575.57394 L 282.942289 591.930841 L 283.470199 586.267056 L 283.998108 565.805607 L 284.526017 517.714486 L 285.053926 559.628621 L 285.581835 568.237035 L 286.109745 572.765888 L 286.637654 568.176041 L 287.165563 579.191176 L 287.693472 593.657944 L 288.221381 593.576934 L 288.74929 592.513084 L 289.2772 587.265728 L 289.805109 598.167937 L 290.333018 605.228102 L 290.860927 597.332032 L 291.388836 604.091344 L 291.916746 602.981667 L 292.444655 603.253249 L 292.972564 598.482152 L 293.500473 591.747515 L 294.028382 595.870146 L 295.084201 574.691215 L 295.61211 555.476636 L 296.140019 561.292327 L 296.667928 535.864917 L 297.195837 581.527685 L 297.723746 555.998131 L 298.251656 580.881308 L 298.779565 563.136153 L 299.307474 590.411488 L 299.835383 555.855635 L 300.363292 585.369842 L 300.891202 593.688333 L 301.419111 590.778809 L 301.94702 601.974374 L 302.474929 589.296028 L 303.002838 596.164591 L 303.530747 593.881723 L 304.058657 600.410193 L 304.586566 603.266685 L 305.114475 600.548131 L 305.642384 601.039053 L 306.170293 601.957889 L 306.698202 602.440654 L 307.226112 583.624443 L 307.754021 597.535466 L 308.28193 577.517828 L 308.809839 551.584853 L 309.337748 558 L 309.865658 569.200866 L 310.921476 585.230638 L 311.449385 532.204486 L 311.977294 579.663809 L 312.505203 582.286162 L 313.033113 581.107009 L 313.561022 601.115888 L 314.088931 599.216822 L 314.61684 595.722843 L 315.144749 584.491059 L 315.672658 597.789252 L 316.200568 593.142056 L 316.728477 599.981931 L 317.256386 602.214456 L 317.784295 601.926661 L 318.312204 603.764759 L 318.840114 602.122106 L 319.368023 595.494722 L 319.895932 596.705835 L 320.423841 580.191685 L 320.95175 571.106585 L 321.479659 583.546899 L 322.007569 556.13271 L 322.535478 560.793925 L 323.063387 549.732047 L 323.591296 554.771145 L 324.119205 371.990187 L 324.647114 586.674898 L 325.175024 591.678896 L 325.702933 584.148333 L 326.230842 587.051882 L 326.758751 591.757589 L 327.28666 593.042991 L 327.81457 589.246279 L 328.342479 602.902106 L 328.870388 599.9225 L 329.398297 601.47728 L 329.926206 597.090739 L 330.454115 602.555303 L 330.982025 602.25927 L 331.509934 602.406715 L 332.037843 592.77818 L 332.565752 577.735769 L 333.093661 577.09568 L 333.62157 564.979206 L 334.14948 563.595959 L 334.677389 539.128598 L 335.205298 558.782243 L 335.733207 552.225319 L 336.261116 562.314953 L 336.789026 559.060722 L 337.844844 596.552804 L 338.372753 592.726981 L 338.900662 594.391343 L 339.428571 594.391844 L 339.956481 603.122693 L 340.48439 595.928972 L 341.012299 587.112482 L 341.540208 590.938965 L 342.068117 592.643925 L 342.596026 602.431952 L 343.123936 595.683214 L 343.651845 600.545741 L 344.179754 600.105429 L 344.707663 597.416005 L 345.235572 583.92158 L 345.763482 555.488727 L 346.291391 582.06729 L 346.8193 578.590654 L 347.347209 576.694008 L 347.875118 558.48785 L 348.403027 567.538709 L 348.930937 592.264486 L 349.458846 594.385528 L 349.986755 592.572682 L 350.514664 596.416313 L 351.042573 593.96215 L 351.570482 597.991335 L 352.098392 597.4859 L 352.626301 603.224809 L 353.15421 604.25077 L 353.682119 603.807853 L 354.210028 604.193483 L 354.737938 603.187026 L 355.265847 599.642056 L 355.793756 580.9016 L 356.321665 598.423885 L 356.849574 602.809277 L 357.377483 594.603925 L 357.905393 596.841418 L 358.433302 592.960891 L 358.961211 574.985377 L 359.48912 539.166978 L 360.017029 525.387891 L 360.544939 562.680714 L 361.072848 571.550663 L 361.600757 575.947592 L 362.128666 574.696756 L 362.656575 592.159813 L 363.184484 598.845954 L 363.712394 598.696171 L 364.240303 598.956391 L 364.768212 603.784606 L 365.296121 598.908411 L 365.82403 601.160554 L 366.351939 601.174766 L 366.879849 600.783645 L 367.407758 603.897897 L 367.935667 604.591599 L 368.463576 602.890859 L 368.991485 603.390457 L 369.519395 600.789154 L 370.047304 592.475629 L 370.575213 593.697196 L 371.103122 592.190719 L 372.15894 576.422243 L 372.68685 520.35536 L 373.214759 487.298386 L 373.742668 549.302804 L 374.270577 552.296686 L 374.798486 440.463212 L 375.326395 266.921495 L 375.854305 561.310555 L 376.382214 558.06729 L 376.910123 577.767884 L 377.438032 592.041983 L 377.965941 595.675736 L 378.493851 596.858762 L 379.02176 600.755983 L 379.549669 600.166955 L 380.077578 603.009628 L 380.605487 599.795526 L 381.133396 575.096495 L 381.661306 593.864019 L 382.189215 592.918976 L 382.717124 588.066552 L 383.245033 586.937617 L 383.772942 553.208411 L 384.300851 557.761682 L 384.828761 444.970093 L 385.35667 566.142056 M 386.940397 543.768224 L 387.468307 569.609346 L 387.996216 567.160495 L 388.524125 485.125234 L 389.052034 585.4013 L 389.579943 591.459813 L 390.107852 590.92918 L 390.635762 585.788428 L 391.163671 587.777944 L 391.69158 595.055403 L 392.219489 596.027024 L 392.747398 585.955953 L 393.275307 602.930218 L 393.803217 604.279713 L 394.331126 599.93921 L 394.859035 592.46729 L 395.386944 602.783742 L 395.914853 604.18269 L 396.970672 594.853986 L 397.498581 579.28802 L 398.02649 575.313515 L 398.554399 578.769393 L 399.082308 553.891528 L 399.610218 554.054645 L 400.666036 583.642559 L 401.721854 576.740187 L 402.249763 591.501869 L 402.777673 592.282774 L 403.305582 601.943246 L 403.833491 599.133012 L 404.3614 601.528433 L 404.889309 600.077882 L 405.945128 601.083546 L 406.473037 604.987076 L 407.000946 601.74785 L 407.528855 596.431776 L 408.056764 600.913313 L 408.584674 602.323847 L 409.112583 598.947119 L 409.640492 588.278845 L 410.168401 595.186822 L 410.69631 591.681473 L 411.224219 585.286229 L 411.752129 571.772313 L 412.280038 548.596262 L 412.807947 480.179439 L 413.335856 574.740771 L 413.863765 570.196644 L 414.391675 582.098131 L 415.447493 593.455485 L 415.975402 596.780685 L 416.503311 601.905013 L 417.03122 600.581776 L 417.55913 600.256698 L 418.087039 597.776778 L 418.614948 600.876256 L 419.142857 598.414233 L 419.670766 601.189382 L 420.198675 596.903398 L 420.726585 600.562344 L 421.782403 593.965281 L 422.310312 589.766147 L 422.838221 579.021729 L 423.366131 588.006668 L 423.89404 566.867768 L 424.421949 562.795278 L 424.949858 561.960173 L 426.005676 548.125234 L 426.533586 552.653526 L 427.061495 512.709813 L 427.589404 569.835344 L 428.117313 601.003037 L 428.645222 599.620648 L 429.173132 602.832087 L 429.701041 603.297131 L 430.22895 604.459813 L 430.756859 605.963828 L 431.284768 605.129338 L 431.812677 597.569749 L 432.340587 605.791501 L 432.868496 602.816501 L 433.396405 600.838616 L 433.924314 596.453781 L 434.452223 603.249533 L 434.980132 601.847095 L 435.508042 596.851558 L 436.035951 583.316463 L 436.56386 575.324838 L 437.091769 579.147897 L 437.619678 557.915421 L 438.147588 581.773349 L 438.675497 578.870518 L 439.203406 590.253868 L 439.731315 598.539594 L 440.259224 589.156192 L 440.787133 602.252931 L 441.315043 605.618826 L 441.842952 605.501618 L 442.370861 605.007877 L 442.89877 605.703988 L 443.426679 601.609531 L 443.954588 605.370574 L 444.482498 603.207806 L 445.010407 594.721682 L 445.538316 597.061087 L 446.066225 601.011215 L 446.594134 600.825701 L 447.122044 595.073337 L 447.649953 600.248296 L 448.177862 602.132948 L 448.705771 599.997196 L 449.23368 598.569764 L 449.761589 578.832477 L 450.289499 566.749241 L 450.817408 581.324989 L 451.345317 591.757589 L 451.873226 582.609638 L 452.401135 594.344265 L 452.929044 598.783725 L 453.456954 600.63718 L 453.984863 606.937158 L 454.512772 602.08059 L 455.040681 601.928791 L 455.56859 597.154876 L 456.0965 599.571459 L 456.624409 600.588195 L 457.152318 605.178505 L 457.680227 604.624679 L 458.208136 601.947069 L 458.736045 593.629021 L 459.263955 600.229611 L 459.791864 603.586062 L 460.319773 583.696909 L 460.847682 576.551331 L 461.375591 562.640334 L 462.43141 552.070093 L 462.959319 537.450108 L 463.487228 559.284442 L 464.015137 561.55573 L 464.543046 566.515432 L 465.070956 587.826168 L 465.598865 582.441121 L 466.126774 592.140187 L 466.654683 593.992815 L 467.182592 595.055403 L 467.710501 599.626397 L 468.238411 601.5719 L 468.76632 598.490599 L 469.294229 598.481799 L 469.822138 594.680467 L 470.350047 585.748598 L 470.877956 563.043187 L 471.405866 560.270561 L 471.933775 573.121612 L 472.461684 572.949883 L 472.989593 553.673667 L 473.517502 553.078388 L 474.045412 534.017944 L 474.573321 561.347664 L 475.10123 536.655701 L 475.629139 460.053696 L 476.157048 566.534579 L 476.684957 531.05582 L 477.212867 521.320794 L 477.740776 528.571963 L 478.796594 586.011354 L 479.324503 583.005228 L 479.852412 593.633307 L 480.380322 567.717056 L 480.908231 585.994893 L 481.43614 583.520415 L 481.964049 597.784177 L 482.491958 594.77683 L 483.019868 595.332207 L 483.547777 596.57689 L 484.075686 564.798418 L 484.603595 578.13289 L 485.131504 575.755104 L 485.659413 574.036582 L 486.187323 551.707326 L 486.715232 536.136664 L 487.243141 557.899065 L 487.77105 557.686449 L 488.298959 569.764364 L 488.826868 552.182153 L 489.354778 544.640498 L 489.882687 565.840483 L 490.938505 585.332457 L 491.466414 552.350212 L 491.994324 583.391618 L 492.522233 587.998712 L 493.050142 577.414613 L 493.578051 589.998754 L 494.10596 599.334813 L 494.633869 600.558448 L 495.161779 596.99335 L 495.689688 601.144312 L 496.217597 598.108178 L 496.745506 591.384503 L 497.273415 595.553001 L 497.801325 588.845607 L 498.329234 576.674766 L 498.857143 576.284712 L 499.385052 543.496477 L 499.912961 530.405364 L 500.44087 584.091079 L 500.96878 584.725584 L 501.496689 583.31802 L 502.024598 556.452336 L 502.552507 579.421262 L 503.080416 574.18486 L 503.608325 577.340081 L 504.136235 592.83585 L 504.664144 575.056262 L 505.192053 592.454206 L 505.719962 586.806776 L 506.247871 589.781776 L 506.775781 597.484708 L 507.30369 601.767425 L 507.831599 601.417441 L 508.359508 598.737196 L 508.887417 588.368692 L 509.943236 595.307319 L 510.471145 588.335327 L 510.999054 587.241531 L 512.054872 556.570093 L 512.582781 550.168888 L 513.110691 570.71541 L 513.6386 548.133355 L 514.166509 570.429947 L 514.694418 581.061449 L 515.222327 548.871028 L 515.750237 571.59145 L 516.278146 575.68961 L 516.806055 592.169031 L 517.333964 600.24765 L 517.861873 595.82243 L 518.389782 602.035152 L 518.917692 603.988764 L 519.445601 603.21461 L 519.97351 602.142056 L 520.501419 605.434214 L 521.029328 605.443458 L 521.557237 602.118722 L 522.085147 597.4859 L 522.613056 603.228334 L 523.668874 589.223921 L 524.196783 573.299065 L 524.724693 568.217523 L 525.252602 596.407768 L 525.780511 597.836655 L 526.30842 571.863511 L 526.836329 579.927747 L 527.364238 572.731438 L 527.892148 578.873144 L 528.947966 602.895012 L 529.475875 601.239291 L 530.003784 604.901196 L 530.531693 596.120569 L 531.059603 602.729302 L 531.587512 606.02689 L 532.115421 607.563084 L 532.64333 604.56183 L 533.171239 605.207799 L 533.699149 602.994325 L 534.227058 597.806716 L 534.754967 605.309314 L 535.282876 603.348479 L 535.810785 604.344184 L 536.866604 584.004889 L 537.394513 589.865785 L 537.922422 591.103634 L 538.450331 589.894506 L 538.97824 587.191121 L 540.034059 594.846784 L 540.561968 605.341666 L 541.089877 602.563136 L 541.617786 598.716708 L 542.145695 602.387515 L 542.673605 601.962979 L 543.201514 600.604772 L 543.729423 604.90324 L 544.257332 604.333086 L 544.785241 608.305156 L 545.31315 606.187325 L 545.84106 601.595037 L 546.368969 601.748057 L 546.896878 603.25273 L 547.424787 600.650706 L 547.952696 601.296929 L 548.480605 602.923387 L 549.008515 596.032527 L 549.536424 596.603024 L 550.064333 576.924904 L 550.592242 563.575557 L 551.120151 571.812312 L 551.648061 524.338318 L 552.703879 575.814953 L 553.231788 571.351524 L 553.759697 589.372302 L 554.287606 587.628785 L 554.815516 591.480352 L 555.343425 585.281837 L 555.871334 601.097079 L 556.399243 601.804493 L 556.927152 601.046229 L 557.455061 602.245455 L 557.982971 604.172218 L 558.51088 604.301248 L 559.038789 604.0463 L 559.566698 594.324829 L 560.094607 597.95624 L 560.622517 599.364368 L 561.150426 600.384778 L 561.678335 594.22164 L 562.734153 569.636367 L 563.262062 578.495837 L 563.789972 575.515514 L 564.317881 581.672468 L 564.84579 579.870044 L 565.373699 583.612563 L 565.901608 592.876779 L 566.429518 594.868879 L 566.957427 594.468505 L 567.485336 599.369004 L 568.013245 602.088333 L 568.541154 598.716589 L 569.069063 596.673237 L 569.596973 600.830264 L 570.124882 603.416942 L 570.652791 602.363516 L 571.1807 599.675836 L 572.236518 601.658835 L 572.764428 596.610356 L 573.292337 599.675629 L 573.820246 599.607692 L 574.348155 573.83231 L 574.876064 587.685136 L 575.403974 591.541025 L 575.931883 561.567649 L 576.459792 580.343957 L 576.987701 535.18555 L 577.51561 559.101168 L 578.043519 530.33322 L 578.571429 540.141308 L 579.099338 586.075416 L 579.627247 599.192832 L 580.155156 599.906444 L 580.683065 594.055274 L 581.210974 597.234038 L 581.738884 603.658492 L 582.266793 596.056866 L 582.794702 600.771804 L 583.322611 602.960513 L 583.85052 602.577674 L 584.37843 600.402519 L 584.906339 600.201337 L 585.434248 594.653526 L 585.962157 597.966135 L 586.490066 594.335563 L 587.017975 587.338318 L 588.073794 595.518428 L 589.129612 561.86959 L 589.657521 571.612059 L 590.18543 577.068548 L 590.71334 574.973832 L 591.241249 554.347362 L 591.769158 552.315104 L 592.297067 580.526684 L 592.824976 589.569886 L 593.352886 592.545794 L 593.880795 592.06867 L 594.408704 595.460088 L 594.936613 603.939425 L 595.464522 600.615421 L 595.992431 602.718973 L 596.520341 601.038737 L 597.04825 601.381637 L 597.576159 601.401528 L 598.104068 602.414895 L 598.631977 602.41714 L 599.159886 604.920345 L 599.687796 603.200675 L 600.215705 597.916658 L 600.743614 557.997196 L 601.271523 539.624922 L 601.799432 558.349313 L 602.327342 558.124189 L 602.855251 590.842991 L 603.38316 588.556216 L 603.911069 584.314104 L 604.438978 591.936134 L 604.966887 587.765792 L 605.494797 598.482152 L 606.022706 600.755983 L 606.550615 606.155677 L 607.078524 599.774172 L 607.606433 605.917457 L 608.134342 603.585421 L 608.662252 602.511418 L 609.190161 603.225 L 609.71807 605.247196 L 610.245979 604.613456 L 610.773888 600.393986 L 611.301798 601.014373 L 611.829707 594.087654 L 612.357616 592.172897 L 612.885525 602.417965 L 613.413434 593.413803 L 613.941343 596.431776 L 614.469253 593.802558 L 614.997162 583.413084 L 615.525071 592.92861 L 616.05298 597.47566 L 616.580889 589.844244 L 617.108798 599.228124 L 617.636708 601.146145 L 618.164617 599.261215 L 618.692526 604.54872 L 619.220435 605.43556 L 619.748344 603.967429 L 620.276254 600.859642 L 621.332072 605.786916 L 621.859981 608.3064 L 622.38789 606.760803 L 622.915799 604.579071 L 623.443709 601.662838 L 623.971618 602.221909 L 624.499527 600.02356 L 625.027436 597.076718 L 625.555345 600.304482 L 626.083254 592.736617 L 626.611164 589.504465 L 627.139073 582.009813 L 627.666982 570.001869 L 628.194891 589.722534 L 628.7228 590.594808 L 629.25071 595.158298 L 629.778619 604.170453 L 630.306528 605.972424 L 630.834437 606.750907 L 631.362346 606.578701 L 631.890255 605.826168 L 632.418165 605.3651 L 632.946074 603.000701 L 633.473983 603.411117 L 634.001892 605.607397 L 634.529801 605.35514 L 635.057711 599.399353 L 635.58562 600.077882 L 636.113529 602.872909 L 636.641438 600.334254 L 637.169347 601.27019 L 638.225166 586.975368 L 638.753075 587.93485 L 639.280984 579.544945 L 639.808893 511.025234 L 640.336802 530.467035 L 640.864711 575.147004 L 641.392621 590.688785 L 641.92053 576.340257 L 642.448439 581.051291 L 642.976348 574.142606 L 643.504257 593.776967 L 644.032167 597.730122 L 644.560076 588.021308 L 645.087985 590.260702 L 645.615894 592.00011 L 646.671712 604.099492 L 647.199622 601.753672 L 647.727531 602.614019 L 648.25544 604.727306 L 648.783349 601.707012 L 649.839167 603.193458 L 650.367077 602.186269 L 650.894986 581.811336 L 651.422895 580.002056 L 651.950804 569.242991 L 652.478713 541.13972 L 653.006623 560.904968 L 653.534532 569.059813 L 654.062441 589.513551 L 654.59035 550.617757 L 655.118259 588.30498 L 655.646168 596.900818 L 656.174078 595.654907 L 656.701987 596.480544 L 657.229896 600.351321 L 657.757805 591.576201 L 658.813623 606.345035 L 659.341533 606.352459 L 660.397351 602.992863 L 660.92526 598.953869 L 661.453169 600.921262 L 661.981079 602.008562 L 662.508988 601.98577 L 663.036897 600.780155 L 663.564806 593.270485 L 664.092715 580.626168 L 664.620624 590.920093 L 665.148534 584.358709 L 665.676443 586.988229 L 666.204352 578.324554 L 666.732261 586.493539 L 667.26017 589.67892 L 667.788079 598.539712 L 668.315989 590.641631 L 668.843898 590.41472 L 669.371807 598.265769 L 669.899716 600.607009 L 670.427625 600.070794 L 670.955535 602.350485 L 671.483444 605.716822 L 672.011353 602.544964 L 672.539262 605.599229 L 673.067171 605.503322 L 673.59508 598.977421 L 674.12299 599.331916 L 674.650899 602.061818 L 675.178808 602.141513 L 675.706717 587.689953 L 676.234626 587.927103 L 676.762535 591.295501 L 677.290445 597.130743 L 677.818354 597.269506 L 678.346263 595.814601 L 678.874172 593.716822 L 679.402081 601.594766 L 679.929991 597.791747 L 680.4579 593.061562 L 681.513718 601.354673 L 682.041627 599.175252 L 682.569536 598.544698 L 683.097446 604.493655 L 683.625355 600.718665 L 684.153264 605.684639 L 684.681173 599.711862 L 685.209082 597.991804 L 685.736991 600.134579 L 686.264901 604.992948 L 686.79281 600.892901 L 687.320719 604.757813 L 687.848628 604.197518 L 688.376537 597.175717 L 688.904447 587.475432 L 689.432356 597.151402 L 689.960265 591.747515 L 690.488174 581.884817 L 691.016083 590.90693 L 691.543992 591.723035 L 692.071902 593.114953 L 692.599811 590.509244 L 693.12772 597.594249 L 693.655629 597.393742 L 694.183538 593.181851 L 694.711447 600.751443 L 695.239357 598.539832 L 696.295175 601.473192 L 696.823084 600.62438 L 697.350993 605.442029 L 697.878903 604.79051 L 698.406812 600.287291 L 698.934721 604.260318 L 699.46263 599.874167 L 699.990539 605.187336 L 700.518448 603.204159 L 701.046358 597.488347 L 701.574267 584.693179 L 702.102176 587.035514 L 703.157994 567.628037 L 703.685904 550.676636 L 704.213813 590.20326 L 704.741722 598.245561 L 705.269631 587.02757 L 705.79754 581.344293 L 706.325449 595.918574 L 706.853359 597.332169 L 707.381268 602.207953 L 707.909177 603.787913 L 708.437086 601.36502 L 708.964995 601.407398 L 709.492904 605.739924 L 710.020814 605.880977 L 711.076632 605.741977 L 711.604541 598.351494 L 712.13245 596.896792 L 712.66036 603.083911 L 713.188269 595.75115 L 713.716178 597.103663 L 714.244087 597.184696 L 714.771996 587.452804 L 715.299905 585.58928 L 715.827815 568.45514 L 716.355724 591.032243 L 716.883633 595.677552 L 717.411542 589.829884 L 717.939451 599.478077 L 718.46736 603.860685 L 718.99527 604.359843 L 719.523179 600.520325 L 720.051088 598.836112 L 720.578997 602.570405 L 721.106906 603.545047 L 721.634816 601.893084 L 722.162725 603.9902 L 722.690634 607.72946 L 723.218543 605.64418 L 723.746452 603.087436 L 724.274361 601.314006 L 724.802271 602.882243 L 725.33018 602.440467 L 725.858089 600.312922 L 726.385998 596.523364 L 726.913907 600.537269 L 727.441816 589.112126 L 727.969726 588.900863 L 729.025544 559.059318 L 729.553453 550.704848 L 730.081362 577.063441 L 730.609272 584.90525 L 731.137181 583.92158 L 731.66509 597.165297 L 732.192999 593.017244 L 732.720908 599.644375 L 733.248817 597.856613 L 733.776727 596.960445 L 734.304636 595.603738 L 734.832545 597.771788 L 735.360454 588.360944 L 735.888363 601.864265 L 736.416272 604.419315 L 736.944182 598.173942 L 737.472091 603.084638 L 738 602.515075 L 738.527909 598.070038 L 739.055818 588.151771 L 739.583728 596.181416 L 740.111637 589.082027 L 740.639546 593.074224 L 741.167455 579.308508 L 741.695364 545.37757 L 742.223273 567.779166 L 742.751183 581.624207 L 743.279092 590.842991 L 743.807001 582.961682 L 744.33491 584.220653 L 744.862819 570.071556 L 745.918638 597.383194 L 746.446547 599.408411 L 746.974456 600.274398 L 747.502365 599.541808 L 748.030274 594.082031 L 748.558184 603.315173 L 749.086093 602.019711 L 749.614002 597.09756 L 750.141911 604.039305 L 750.66982 602.995769 L 751.197729 597.766011 L 751.725639 598.784299 L 752.253548 594.03725 L 753.309366 568.272897 L 753.837275 566.828972 L 754.365184 573.437871 L 754.893094 586.092483 L 755.421003 582.70401 L 755.948912 584.180289 L 756.476821 593.591835 L 757.00473 589.780685 L 757.53264 592.526168 L 758.060549 592.214843 L 759.116367 591.016493 L 759.644276 597.740187 L 760.172185 595.292577 L 760.700095 601.039053 L 761.228004 601.609346 L 761.755913 606.88401 L 762.283822 604.747342 L 762.811731 606.044397 L 763.86755 591.703448 L 764.395459 596.321495 L 764.923368 561.989572 L 765.451277 578.257441 L 765.979186 543.286491 L 766.507096 528.613409 L 767.035005 491.918341 L 767.562914 570.760748 L 768.090823 558.747609 L 768.618732 580.832243 L 769.146641 565.309141 L 769.674551 562.338823 L 770.20246 581.220941 L 770.730369 586.625142 L 771.258278 594.23985 L 771.786187 594.397791 L 772.314096 588.925801 L 772.842006 595.148378 L 773.369915 599.791343 L 774.425733 595.581308 L 774.953642 596.404517 L 775.481552 591.665203 L 776.009461 596.321341 L 776.53737 597.221495 L 777.065279 598.563529 L 777.593188 583.914306 L 778.121097 579.064338 L 778.649007 544.032162 L 779.176916 593.110971 L 779.704825 583.029907 L 780.232734 581.334641 L 780.760643 580.582259 L 781.288553 578.849108 L 781.816462 583.338318 L 782.87228 600.867846 L 783.400189 602.357962 L 783.928098 598.370553 L 784.456008 585.9866 L 784.983917 588.546877 L 785.511826 589.542487 L 786.039735 601.219127 L 786.567644 604.795491 L 787.095553 601.610467 L 787.623463 602.133429 L 788.151372 600.518692 L 788.679281 595.258054 L 789.20719 595.098505 L 789.735099 595.069839 L 790.263009 592.423868 L 790.790918 586.326603 L 791.318827 589.050443 L 791.846736 582.908411 L 792.374645 580.689107 L 793.430464 586.943106 L 793.958373 583.456016 L 794.486282 594.445794 L 795.014191 593.094631 L 795.5421 601.589319 L 796.070009 600.021184 L 796.597919 595.983267 L 797.125828 592.803779 L 797.653737 597.141072 L 798.181646 598.857009 L 798.709555 604.18589 L 799.237465 601.215654 L 799.765374 602.279207 L 800.293283 600.592245 L 800.821192 599.707264 L 801.349101 600.826848 L 801.87701 601.068458 L 802.40492 599.997196 L 802.932829 590.090888 L 803.460738 590.695794 L 803.988647 579.544945 L 804.516556 581.676168 L 805.572375 596.790421 L 806.100284 591.66961 L 806.628193 588.638233 L 807.156102 588.91596 L 807.684011 600.144393 L 808.211921 603.398876 L 808.73983 602.288986 L 809.267739 603.28904 L 809.795648 601.336077 L 810.323557 600.771804 L 810.851466 601.792796 L 811.379376 595.48413 L 812.435194 602.708899 L 812.963103 601.401068 L 813.491012 595.642409 L 814.018921 585.333035 L 815.07474 588.60341 L 815.602649 589.164297 L 816.130558 594.481054 L 816.658467 577.09568 L 817.186377 582.71215 L 817.714286 578.367375 L 818.242195 550.909617 L 819.298013 569.179652 L 819.825922 558.083061 L 820.881741 593.765888 L 821.40965 586.143925 L 821.937559 591.487198 L 822.465468 591.534257 L 822.993377 595.252948 L 823.521287 592.383135 L 824.049196 584.420756 L 824.577105 598.18948 L 825.105014 587.754393 L 825.632923 592.998251 L 826.160833 602.1517 L 826.688742 602.828717 L 827.216651 602.846625 L 827.74456 597.80448 L 828.800378 569.420518 L 829.328288 569.756922 L 829.856197 590.965524 L 830.384106 532.13972 L 830.912015 200.271028 L 831.439924 550.676636 L 831.967833 573.390654 L 832.495743 576.04031 L 833.023652 590.384008 L 833.551561 576.351367 L 834.07947 588.790654 L 834.607379 594.12737 L 835.135289 602.125448 L 835.663198 588.697052 L 836.191107 570.545144 L 836.719016 600.170368 L 837.246925 598.261296 L 837.774834 598.685811 L 838.302744 597.450296 L 838.830653 594.193458 L 839.358562 574.246509 L 839.886471 587.704319 L 840.41438 582.328819 L 840.942289 580.618047 L 841.470199 565.759346 L 841.998108 547.320561 L 842.526017 551.643224 L 843.053926 556.998571 L 843.581835 567.54475 L 844.109745 548.092749 L 844.637654 506.882573 L 845.165563 577.350779 L 845.693472 553.593575 L 846.221381 550.146729 L 846.74929 586.937617 L 847.2772 591.913245 L 847.805109 595.258054 L 848.333018 590.667757 L 848.860927 590.450467 L 849.388836 583.13271 L 849.916746 584.645492 L 850.444655 597.017118 L 850.972564 596.164591 L 851.500473 591.954928 L 852.028382 595.335505 L 852.556291 587.534579 L 853.084201 569.647381 L 853.61211 574.348999 L 854.140019 575.662836 L 854.667928 557.327103 L 855.195837 556.990654 L 855.723746 552.324007 L 856.251656 577.246542 L 856.779565 587.63271 L 857.307474 565.797401 L 857.835383 575.845687 L 858.363292 574.88972 L 858.891202 581.875165 L 859.419111 565.266059 L 859.94702 561.850123 L 860.474929 591.539772 L 861.002838 593.936352 L 861.530747 601.885234 L 862.058657 600.607009 L 862.586566 599.915672 L 863.114475 601.068458 L 863.642384 600.751836 L 864.170293 601.582237 L 864.698202 591.18596 L 865.226112 587.386057 L 865.754021 591.947083 L 866.28193 589.238826 L 866.809839 593.280309 L 867.865658 572.810687 L 868.393567 566.562617 L 868.921476 573.918925 L 869.449385 568.853206 L 869.977294 592.021835 L 870.505203 594.027401 L 871.033113 592.803779 L 871.561022 583.413084 L 872.088931 590.45457 L 872.61684 595.175447 L 873.144749 588.523635 L 873.672658 590.587276 L 874.200568 565.286916 L 874.728477 588.1565 L 875.256386 595.462419 L 875.784295 605.203989 L 876.312204 600.415319 L 876.840114 599.959567 L 877.368023 604.140072 L 877.895932 591.507187 L 878.423841 597.265027 L 878.95175 595.693458 L 879.479659 592.941481 L 880.007569 583.496737 L 880.535478 588.120782 L 881.063387 586.509043 L 881.591296 567.114236 L 882.119205 592.75514 L 882.647114 569.530841 L 883.175024 588.607647 L 883.702933 599.034579 L 884.230842 597.363435 L 884.758751 599.90053 L 885.28666 591.767587 L 885.81457 589.142416 L 886.342479 601.802287 L 886.870388 602.771623 L 887.398297 601.859133 L 887.926206 601.951583 L 888.454115 600.938017 L 888.982025 595.850939 L 889.509934 588.128529 L 890.037843 598.98785 L 890.565752 599.304099 L 891.093661 597.347664 L 891.62157 586.299285 L 892.14948 552.189635 L 893.205298 589.767056 L 893.733207 586.185981 L 894.261116 590.246774 L 894.789026 569.792523 L 895.316935 585.104398 L 895.844844 590.20326 L 896.372753 593.852939 L 896.900662 596.41317 L 897.428571 597.616677 L 897.956481 599.444644 L 898.48439 603.253037 L 899.012299 604.248095 L 900.596026 596.748173 L 901.123936 602.786745 L 901.651845 599.060932 L 902.179754 592.376444 L 902.707663 599.053271 L 903.235572 598.792863 L 903.763482 597.320901 L 904.291391 580.332774 L 904.8193 557.273481 L 905.347209 560.238711 L 905.875118 566.213859 L 906.403027 550.520853 L 906.930937 588.740556 L 907.458846 505.993015 L 907.986755 574.569764 L 908.514664 595.135259 L 909.042573 585.597196 L 909.570482 590.059654 L 910.098392 585.853555 L 910.626301 592.048598 L 911.15421 596.071963 L 911.682119 601.441311 L 912.210028 592.081676 L 912.737938 593.948492 L 913.265847 598.534886 L 913.793756 596.737468 L 914.321665 598.477365 L 914.849574 583.636109 L 915.377483 589.443224 L 915.905393 591.247577 L 916.433302 586.278505 L 916.961211 583.698556 L 917.48912 491.366355 L 918.017029 562.624443 L 918.544939 500.06729 L 919.072848 532.453312 L 919.600757 543.431776 L 920.128666 545.940638 L 920.656575 576.980062 L 921.184484 578.853505 L 921.712394 544.400623 L 922.240303 588.114444 L 922.768212 584.176995 L 923.296121 593.45166 L 923.82403 592.630841 L 924.351939 600.984033 L 924.879849 595.666229 L 925.407758 586.674898 L 925.935667 589.722897 L 926.463576 597.609346 L 926.991485 601.282372 L 927.519395 596.77465 L 928.047304 599.941859 L 928.575213 596.050156 L 929.103122 612.391452 L 929.631031 563.416822 L 930.15894 501.302103 L 930.68685 373.094159 L 931.214759 553.331521 L 931.742668 532.180935 L 932.270577 583.923364 L 932.798486 578.056924 L 933.326395 582.506542 L 933.854305 578.306776 L 934.382214 594.433475 L 934.910123 594.611895 L 935.438032 594.007083 L 935.965941 587.565981 L 936.493851 598.475756 L 937.02176 600.75 L 937.549669 598.361957 L 938.077578 599.914047 L 939.133396 586.496028 L 939.661306 596.854357 L 940.189215 595.916971 L 940.717124 562.903738 L 941.245033 584.340867 L 941.772942 580.223 L 942.300851 558.45514 L 942.828761 462.244141 L 943.35667 568.935362 L 943.884579 451.864231 L 944.412488 511.061215 L 944.940397 550.64965 L 945.468307 532.679439 L 945.996216 531.151402 L 946.524125 574.144726 L 947.052034 569.491589 L 947.579943 567.894393 L 948.107852 585.896221 L 948.635762 586.854385 L 949.163671 591.646839 L 950.219489 588.01003 L 950.747398 587.272897 L 951.275307 595.767854 L 952.331126 593.445397 L 952.859035 594.829296 L 953.386944 589.23715 L 953.914853 578.732998 L 954.442763 584.792688 L 954.970672 585.111174 L 955.498581 586.96215 L 956.02649 550.068224 L 957.082308 511.323069 L 957.610218 540.300935 L 958.138127 520.64503 L 958.666036 592.01552 L 959.193945 598.352379 L 959.721854 583.226022 L 960.249763 595.341221 L 960.777673 588.933254 L 961.305582 585.809234 L 961.833491 594.146145 L 962.889309 585.829038 L 963.417219 599.953257 L 963.945128 594.915981 L 964.473037 591.194142 L 965.000946 589.369626 L 965.528855 596.110125 L 966.056764 581.290797 L 967.112583 590.304602 L 967.640492 586.640187 L 968.69631 582.814953 L 969.224219 571.576051 L 969.752129 574.120694 L 970.280038 589.261185 L 970.807947 594.570263 L 971.335856 583.340277 L 971.863765 595.085796 L 972.391675 590.476111 L 972.919584 594.33237 L 973.447493 586.50075 L 973.975402 602.292688 L 974.503311 602.320861 L 975.03122 603.847584 L 975.55913 599.002752 L 976.087039 603.190489 L 976.614948 600.594393 L 977.142857 593.666208 L 977.670766 591.06028 L 978.198675 590.729152 L 978.726585 598.101722 L 979.254494 583.007899 L 979.782403 589.840654 L 980.310312 593.833546 L 980.838221 561.399949 L 981.366131 547.706993 L 981.89404 582.996028 L 982.421949 535.59317 L 982.949858 570.616822 L 983.477767 577.695574 L 984.005676 589.089179 L 984.533586 597.103663 L 985.061495 588.864183 L 985.589404 594.435057 L 986.117313 593.790162 L 986.645222 601.72206 L 987.173132 597.90061 L 987.701041 587.620935 L 988.22895 591.995072 L 988.756859 601.369646 L 989.284768 601.0631 L 989.812677 596.842991 L 990.340587 596.071963 L 990.868496 599.288814 L 991.396405 597.593417 L 991.924314 597.594249 L 992.452223 588.157843 L 992.980132 590.267705 L 993.508042 588.413832 L 994.035951 573.194949 L 994.56386 562.448768 L 995.091769 564.933497 L 995.619678 584.017202 L 996.147588 583.334579 L 996.675497 583.057944 L 997.731315 593.746053 L 998.259224 588.649346 L 998.787133 599.039252 L 999.315043 593.741355 L 999.842952 574.710758 L 1000.370861 567.415475 L 1000.89877 592.380213 L 1001.426679 566.730841 L 1001.954588 590.243507 L 1002.482498 594.118451 L 1003.010407 589.803855 L 1003.538316 593.857886 L 1004.066225 584.340867 L 1004.594134 592.77178 L 1005.122044 572.974416 L 1005.649953 575.374206 L 1006.177862 520.650664 L 1006.705771 524.897664 L 1007.23368 484.73271 L 1008.289499 556.682243 L 1008.817408 568.702586 L 1009.345317 574.799873 L 1009.873226 576.660927 L 1010.401135 544.84428 L 1010.929044 543.284579 L 1011.456954 567.292241 L 1011.984863 585.01731 L 1012.512772 584.104529 L 1013.040681 595.461265 L 1013.56859 591.535123 L 1014.0965 591.798195 L 1014.624409 599.06729 L 1015.152318 598.275 L 1015.680227 600.74769 L 1016.208136 597.863502 L 1016.736045 597.675335 L 1017.263955 574.231963 L 1017.791864 588.959388 L 1018.319773 584.706102 L 1018.847682 553.794887 L 1019.375591 575.740622 L 1019.9035 528.459813 L 1020.43141 538.425545 L 1020.959319 493.790764 L 1021.487228 543.910345 L 1022.015137 561.812754 L 1022.543046 524.240187 L 1023.070956 586.015685 L 1023.598865 583.989 L 1024.126774 568.182265 L 1024.654683 572.003144 L 1025.182592 578.26472 L 1025.710501 593.162858 L 1026.238411 582.52684 L 1026.76632 595.096427 L 1027.294229 598.622553 L 1027.822138 601.283651 L 1028.350047 595.915331 L 1029.405866 601.691415 L 1029.933775 600.700815 L 1030.461684 598.530181 L 1030.989593 586.73271 L 1031.517502 587.895701 L 1032.045412 586.689801 L 1032.573321 568.861682 L 1033.10123 569.18183 L 1033.629139 529.51472 L 1034.157048 509.556714 L 1034.684957 573.0753 L 1035.212867 579.49818 L 1035.740776 576.518004 L 1037.324503 534.394766 L 1037.852412 584.541589 L 1038.908231 597.270866 L 1039.43614 589.305903 L 1039.964049 575.424079 L 1040.491958 589.758879 L 1041.019868 581.662816 L 1041.547777 592.015144 L 1042.075686 590.192807 L 1042.603595 584.675603 L 1043.131504 575.135459 L 1043.659413 571.816942 L 1044.187323 543.138833 L 1044.715232 553.225584 L 1045.243141 518.627103 L 1045.77105 529.465654 L 1046.298959 569.740187 L 1046.826868 581.018692 L 1047.354778 598.40257 L 1047.882687 577.54704 L 1048.410596 585.442084 L 1048.938505 543.452804 L 1049.466414 584.464695 L 1049.994324 593.498869 L 1050.522233 596.055607 L 1051.050142 594.326423 L 1051.578051 595.996921 L 1052.10596 590.059654 L 1052.633869 593.418298 L 1053.161779 594.718946 L 1053.689688 597.462294 L 1054.217597 588.985425 L 1054.745506 600.946252 L 1055.273415 598.037096 L 1055.801325 590.597664 L 1056.329234 576.936449 L 1056.857143 573.624533 L 1057.385052 567.347664 L 1057.912961 540.210981 L 1058.44087 571.530719 L 1058.96878 563.151648 L 1059.496689 589.722534 L 1060.024598 585.937723 L 1060.552507 585.714953 L 1061.080416 584.44712 L 1061.608325 599.175746 L 1062.136235 595.352654 L 1062.664144 590.409931 L 1063.192053 598.228325 L 1063.719962 602.107326 L 1064.247871 601.840017 L 1064.775781 603.093638 L 1065.30369 605.325124 L 1065.831599 599.104366 L 1066.359508 598.944449 L 1066.887417 593.226168 L 1067.415326 596.208612 L 1067.943236 594.1488 L 1068.471145 588.507822 L 1068.999054 587.534579 L 1070.054872 566.670453 L 1070.582781 579.580817 L 1071.110691 508.048598 L 1071.6386 573.142056 L 1072.166509 568.202804 L 1072.694418 592.598562 L 1073.222327 596.963902 L 1073.750237 595.54701 L 1074.278146 600.144393 L 1074.806055 595.6313 L 1075.333964 600.905078 L 1075.861873 600.925984 L 1076.917692 586.528738 L 1077.445601 591.620391 L 1077.97351 600.755741 L 1078.501419 603.314247 L 1079.029328 601.931776 L 1079.557237 598.370798 L 1080.085147 588.86763 L 1080.613056 597.965888 L 1081.140965 595.42125 L 1081.668874 580.420093 L 1082.724693 490.593575 L 1083.252602 469.749533 L 1083.780511 543.368692 L 1084.30842 571.478704 L 1085.364238 556.2 L 1085.892148 590.296781 L 1086.420057 556.957009 L 1086.947966 569.836682 L 1087.475875 588.17243 L 1088.003784 583.253055 L 1088.531693 590.20326 L 1089.059603 582.23868 L 1090.115421 600.99566 L 1090.64333 601.007126 L 1091.171239 598.828972 L 1091.699149 593.560846 L 1092.227058 593.162858 L 1092.754967 600.278696 L 1093.282876 601.441498 L 1093.810785 594.992523 L 1094.866604 561.333645 L 1095.394513 563.696334 L 1095.922422 539.385047 L 1096.450331 429.329822 L 1096.97824 527.370561 L 1097.506149 564.119051 L 1098.034059 572.849086 L 1098.561968 567.721071 L 1099.089877 590.397128 L 1099.617786 568.015463 L 1100.145695 575.135459 L 1100.673605 598.826692 L 1101.201514 592.253681 L 1101.729423 593.146781 L 1102.257332 596.407768 L 1102.785241 593.684801 L 1103.31315 598.062617 L 1103.84106 604.724255 L 1104.896878 596.848248 L 1105.424787 584.948543 L 1105.952696 599.390295 L 1106.480605 590.610174 L 1107.008515 557.261215 L 1107.536424 545.534579 L 1108.064333 549.939564 L 1108.592242 567.706985 L 1109.648061 578.847418 L 1110.17597 574.409079 L 1110.703879 579.973515 L 1111.231788 558.271963 L 1111.759697 551.532827 L 1112.287606 579.177964 L 1112.815516 588.70182 L 1113.343425 588.500394 L 1113.871334 570.905862 L 1114.399243 587.537232 L 1115.455061 586.135148 L 1115.982971 599.341188 L 1116.51088 594.42158 L 1117.566698 598.854953 L 1118.094607 599.471819 L 1118.622517 593.821023 L 1119.150426 585.970014 L 1119.678335 565.460305 L 1120.206244 579.38972 L 1120.734153 567.894393 L 1121.262062 565.160748 L 1122.317881 579.395983 L 1122.84579 516.566355 L 1123.373699 550.305769 L 1123.901608 540.497196 L 1124.429518 569.825737 L 1124.957427 573.685864 L 1125.485336 576.631153 L 1126.013245 588.653526 L 1126.541154 581.352336 L 1127.069063 583.591504 L 1127.596973 596.651827 L 1128.124882 596.480841 L 1128.652791 603.207806 L 1129.1807 600.187686 L 1130.236518 590.268055 L 1130.764428 589.555348 L 1131.292337 590.382767 L 1131.820246 573.452804 L 1132.348155 531.963084 L 1132.876064 579.641291 L 1133.403974 564.751869 L 1133.931883 359.552103 L 1134.459792 358.742523 L 1134.987701 363.011215 L 1135.51561 560.729763 L 1136.043519 536.728403 L 1137.099338 581.315336 L 1137.627247 588.118267 L 1138.155156 578.439887 L 1138.683065 595.636854 L 1139.210974 596.87027 L 1139.738884 592.526168 L 1140.266793 594.166944 L 1140.794702 593.542253 L 1141.322611 593.232432 L 1141.85052 597.48078 L 1142.37843 589.104673 L 1142.906339 597.763874 L 1143.434248 589.0435 L 1143.962157 593.654957 L 1144.490066 580.293556 L 1145.017975 578.345964 L 1146.073794 593.381824 L 1146.601703 580.31215 L 1147.129612 584.614088 L 1147.657521 524.097451 L 1148.18543 571.057131 L 1148.71334 588.644213 L 1149.241249 595.700198 L 1149.769158 596.396965 L 1150.297067 594.1488 L 1150.824976 583.796408 L 1151.352886 598.203628 L 1151.880795 604.277953 L 1152.408704 593.42243 L 1152.936613 590.043748 L 1153.464522 599.931287 L 1153.992431 574.276903 L 1155.04825 593.894685 L 1155.576159 589.0435 L 1156.104068 587.402842 L 1156.631977 592.805607 L 1157.687796 557.146729 L 1158.215705 576.604313 L 1158.743614 541.696573 L 1159.271523 549.656075 L 1159.799432 589.27074 L 1160.327342 581.116822 L 1160.855251 574.973832 L 1161.38316 572.164836 L 1161.911069 563.517757 L 1162.438978 585.017812 L 1162.966887 583.032827 L 1163.494797 577.473391 L 1164.022706 597.550693 L 1164.550615 597.398862 L 1165.078524 600.148722 L 1165.606433 599.538492 L 1166.134342 586.749533 L 1166.662252 579.074668 L 1167.190161 582.257673 L 1167.71807 597.199092 L 1168.245979 598.178889 L 1168.773888 588.554121 L 1170.357616 584.517847 M 1170.357616 590.871028 L 1170.885525 563.521963 L 1171.413434 592.274433 L 1171.941343 597.60145 L 1172.469253 584.267577 L 1172.997162 560.73453 L 1173.525071 565.685748 L 1174.05298 509.553271 L 1174.580889 554.544775 L 1175.108798 560.842991 L 1175.636708 532.385047 L 1176.164617 566.730841 L 1176.692526 587.958091 L 1177.220435 594.570263 L 1177.748344 592.558879 L 1178.276254 597.172619 L 1178.804163 586.117455 L 1179.859981 578.206797 L 1180.38789 586.980273 L 1180.915799 586.328972 L 1181.443709 573.894393 L 1181.971618 582.983178 L 1182.499527 588.71215 L 1183.027436 585.085575 L 1183.555345 574.569042 L 1184.083254 554.630293 L 1184.611164 572.147664 L 1185.139073 111.6 L 1185.666982 434.521835 L 1186.194891 532.369346 L 1186.7228 580.335981 L 1187.25071 559.201529 L 1187.778619 579.213084 L 1188.306528 572.205289 L 1188.834437 585.087081 L 1189.362346 580.232291 L 1189.890255 573.83231 L 1190.418165 590.341121 L 1190.946074 584.081007 L 1191.473983 582.300935 L 1192.001892 577.692948 L 1192.529801 590.94906 L 1193.057711 573.808528 L 1193.58562 592.670837 L 1194.113529 583.546899 L 1194.641438 588.439422 L 1195.169347 586.765664 L 1195.697256 582.600438 L 1196.225166 593.684801 L 1196.753075 586.389231 L 1197.280984 580.810034 L 1197.808893 587.581682 L 1198.336802 570.603738 L 1198.864711 549.06729 L 1199.392621 567.485694 L 1199.92053 465.233357 L 1200.448439 567.59348 L 1200.976348 531.550935 L 1201.504257 524.005526 L 1202.032167 562.131953 L 1202.560076 560.286032 L 1203.087985 578.39949 L 1203.615894 586.471495 L 1204.143803 578.085981 L 1205.199622 596.986966 L 1205.727531 580.262192 L 1206.25544 596.291152 L 1206.783349 596.369956 L 1207.311258 595.95549 L 1207.839167 595.175447 L 1208.367077 583.948055 L 1208.894986 577.023257 L 1209.422895 581.724557 L 1209.950804 544.702159 L 1210.478713 593.828037 L 1211.006623 560.842991 L 1211.534532 540.886276 L 1212.062441 516.625234 L 1212.59035 539.811589 L 1213.118259 576.620249 L 1213.646168 581.469772 L 1214.174078 584.276636 L 1214.701987 590.196079 L 1215.229896 582.710835 L 1215.757805 585.819423 L 1216.285714 585.633477 L 1216.813623 573.284275 L 1217.869442 585.765421 L 1218.397351 582.590051 L 1218.92526 593.771569 L 1219.453169 595.424299 L 1219.981079 592.842178 L 1220.508988 589.581663 L 1221.036897 592.486764 L 1221.564806 581.074031 L 1222.092715 563.44604 L 1222.620624 562.594249 L 1223.148534 555.803683 L 1223.676443 474.382171 L 1224.204352 553.335981 L 1224.732261 554.812404 L 1225.26017 567.466822 L 1225.788079 545.534579 L 1226.315989 576.940152 L 1226.843898 550.428855 L 1227.371807 554.937823 L 1227.899716 553.404673 L 1228.427625 579.126316 L 1228.955535 575.77775 L 1229.483444 596.104673 L 1230.011353 600.482203 L 1230.539262 600.452552 L 1231.067171 596.1919 L 1231.59508 598.873794 L 1232.12299 593.52366 L 1232.650899 575.279547 L 1233.178808 585.827956 L 1233.706717 564.677274 L 1234.234626 578.022897 L 1234.762535 568.399065 L 1235.290445 600.22568 L 1235.818354 593.274656 L 1236.346263 583.117028 L 1236.874172 585.239171 L 1237.402081 586.051402 L 1237.929991 567.095327 L 1238.4579 572.385631 L 1238.985809 588.061682 L 1239.513718 578.401402 L 1240.041627 597.102771 L 1240.569536 604.624922 L 1241.097446 603.147897 L 1241.625355 597.275985 L 1242.153264 605.175561 L 1242.681173 605.144693 L 1243.736991 596.512659 L 1244.264901 592.24486 L 1244.79281 602.471191 L 1245.320719 600.180915 L 1245.848628 595.118283 L 1246.376537 594.326423 L 1246.904447 595.54734 L 1247.432356 581.238119 L 1247.960265 595.084882 L 1248.488174 590.843321 L 1249.016083 567.634558 L 1249.543992 565.009777 L 1250.071902 555.509291 L 1250.599811 555.863551 L 1251.12772 563.315888 L 1251.655629 565.609346 L 1252.183538 586.258879 L 1252.711447 596.305136 L 1253.239357 601.641389 L 1253.767266 592.491841 L 1254.295175 602.133429 L 1254.823084 601.215094 L 1255.350993 595.497196 L 1255.878903 596.626815 L 1256.406812 595.884112 L 1256.934721 600.602804 L 1257.46263 597.373487 L 1257.990539 597.289836 L 1258.518448 598.385277 L 1259.046358 592.957375 L 1259.574267 580.488785 L 1260.102176 582.568161 L 1260.630085 578.772073 L 1261.157994 565.637383 L 1261.685904 560.178233 L 1262.213813 500.696334 L 1262.741722 491.719626 L 1263.269631 554.303271 L 1263.79754 590.197117 L 1264.325449 580.795027 L 1264.853359 558.903463 L 1265.381268 566.82669 L 1265.909177 588.209056 L 1266.437086 596.104673 L 1266.964995 595.892365 L 1267.492904 593.441423 L 1268.020814 592.175722 L 1268.548723 578.559112 L 1269.076632 570.506745 L 1269.604541 597.204446 L 1270.13245 598.899065 L 1270.66036 604.929773 L 1271.188269 601.923255 L 1271.716178 601.389052 L 1272.244087 583.216822 L 1272.771996 489.894393 L 1273.299905 557.37757 L 1273.827815 512.680374 L 1274.355724 576.71838 L 1274.883633 572.180235 L 1275.411542 559.944319 L 1275.939451 565.839707 L 1276.46736 522.796262 L 1276.99527 575.940328 L 1277.523179 591.972402 L 1278.051088 551.868479 L 1278.578997 592.59769 L 1279.106906 597.032243 L 1279.634816 569.543925 L 1280.162725 584.173598 L 1280.690634 574.64264 L 1281.218543 578.713133 L 1281.746452 596.544275 L 1282.274361 600.411117 L 1282.802271 595.73271 L 1283.33018 596.990187 L 1284.385998 590.94906 L 1284.913907 573.83231 L 1285.441816 546.166978 L 1285.969726 468.740187 L 1286.497635 537.470784 L 1287.025544 561.806457 L 1287.553453 489.473832 L 1288.081362 551.069159 L 1288.609272 535.266168 L 1289.137181 576.638282 L 1289.66509 578.463721 L 1290.192999 588.491355 L 1291.248817 563.277696 L 1291.776727 601.54631 L 1292.304636 595.164014 L 1292.832545 595.464717 L 1293.360454 595.221178 L 1293.888363 590.38865 L 1294.416272 587.313785 L 1294.944182 590.395744 L 1295.472091 587.857378 L 1296 589.435864 L 1296.527909 589.98785 L 1297.055818 594.973732 L 1298.111637 559.371028 L 1298.639546 578.992031 L 1299.167455 550.362617 L 1299.695364 554.328369 L 1300.223273 508.735514 L 1300.751183 565.203183 L 1301.279092 533.268224 L 1301.807001 524.107924 L 1302.862819 565.803505 L 1303.390728 563.833399 L 1303.918638 589.954312 L 1304.446547 582.571963 L 1304.974456 597.045455 L 1305.502365 598.010047 L 1306.030274 595.82571 L 1306.558184 589.015237 L 1307.086093 590.842991 L 1307.614002 601.136191 L 1308.141911 599.555607 L 1308.66982 602.038703 L 1309.197729 592.598562 L 1309.725639 595.280908 L 1310.253548 592.794849 L 1310.781457 565.075878 L 1311.309366 575.435624 L 1311.837275 570.276351 L 1312.365184 560.604294 L 1312.893094 494.587356 L 1313.421003 545.471495 L 1313.948912 465.410748 L 1314.476821 557.545794 L 1315.00473 562.392425 L 1315.53264 589.187707 L 1316.060549 596.758879 L 1316.588458 589.406425 L 1317.116367 594.861682 L 1317.644276 587.250796 L 1318.172185 600.490674 L 1318.700095 600.476636 L 1319.755913 593.464188 L 1320.283822 583.253055 L 1320.811731 583.069626 L 1321.86755 600.231421 L 1322.395459 584.403592 L 1322.923368 597.540541 L 1323.451277 590.622745 L 1323.979186 538.033022 L 1324.507096 569.714019 L 1325.035005 583.170824 L 1325.562914 582.786916 L 1326.090823 581.714405 L 1326.618732 589.63307 L 1327.146641 581.064712 L 1327.674551 590.558901 L 1328.20246 594.391598 L 1328.730369 594.574486 L 1329.786187 600.140063 L 1330.314096 599.76079 L 1330.842006 596.368139 L 1331.369915 590.161648 L 1331.897824 600.670093 L 1332.425733 592.438916 L 1332.953642 593.846272 L 1333.481552 589.707996 L 1334.009461 603.487364 L 1334.53737 600.64653 L 1335.065279 587.015696 L 1335.593188 596.87027 L 1336.121097 596.631574 L 1336.649007 596.937135 L 1337.704825 585.862089 L 1338.232734 594.146928 L 1338.760643 594.686355 L 1339.288553 584.983178 L 1339.816462 589.380433 L 1340.344371 588.179439 L 1340.87228 585.211661 L 1341.400189 593.392564 L 1341.928098 591.304157 L 1342.456008 594.31112 L 1342.983917 593.924212 L 1343.511826 592.001763 L 1344.039735 595.016313 L 1344.567644 586.675935 L 1345.095553 586.725 L 1345.623463 579.621028 L 1346.151372 567.782243 L 1346.679281 599.123364 L 1347.20719 587.825047 L 1347.735099 601.0631 L 1348.263009 593.82722 L 1348.790918 590.20026 L 1349.318827 584.519286 L 1349.846736 588.965224 L 1350.374645 579.49486 L 1350.902554 576.286332 L 1351.430464 566.881461 L 1351.958373 565.311718 L 1352.486282 563.095093 L 1353.014191 590.429439 L 1353.5421 580.612197 L 1354.070009 589.165061 L 1354.597919 592.189104 L 1355.125828 583.859133 L 1355.653737 600.300312 L 1356.709555 595.960992 L 1357.237465 594.800267 L 1357.765374 587.441753 L 1358.293283 589.882451 L 1358.821192 589.275111 L 1359.87701 567.417757 L 1360.40492 584.001869 L 1360.932829 562.57752 L 1361.460738 587.661735 L 1361.988647 540.484615 L 1362.516556 542.334661 L 1363.044465 567.169007 L 1363.572375 571.992325 L 1364.100284 570.902446 L 1364.628193 564.537617 L 1365.156102 573.839344 L 1365.684011 581.141596 L 1366.211921 578.441121 L 1366.73983 593.405903 L 1367.267739 593.023364 L 1367.795648 594.550935 L 1368.323557 596.47274 L 1368.851466 596.186601 L 1369.379376 600.198131 L 1369.907285 597.613897 L 1370.435194 593.35912 L 1370.963103 596.467237 L 1371.491012 596.098559 L 1372.018921 596.608905 L 1372.546831 597.971083 L 1373.07474 596.610356 L 1373.602649 593.591835 L 1374.130558 583.170824 L 1374.658467 589.909594 L 1375.186377 546.853458 L 1375.714286 465.803271 L 1376.242195 563.643698 L 1376.770104 555.611215 L 1377.298013 562.231919 L 1377.825922 573.011215 L 1378.353832 458.345327 L 1378.881741 579.043679 L 1379.40965 562.850899 L 1379.937559 589.300935 L 1380.465468 563.500072 L 1380.993377 570.126625 L 1381.521287 592.256011 L 1382.049196 594.940572 L 1382.577105 591.786128 L 1383.105014 593.598032 L 1383.632923 596.448428 L 1384.160833 593.938908 L 1384.160833 593.938908" clip-path="url(#p52f22f1609)" fill="none" stroke="#8dd3c7" stroke-width="1.5" stroke-linecap="square"/></g><g id="patch_3"><path d="M 180 640.8 L 180 86.4" fill="none" stroke="#ffffff" stroke-width="0.8" stroke-linejoin="miter" stroke-linecap="square"/></g><g id="patch_4"><path d="M 1296 640.8 L 1296 86.4" fill="none" stroke="#ffffff" stroke-width="0.8" stroke-linejoin="miter" stroke-linecap="square"/></g><g id="patch_5"><path d="M 180 640.8 L 1296 640.8" fill="none" stroke="#ffffff" stroke-width="0.8" stroke-linejoin="miter" stroke-linecap="square"/></g><g id="patch_6"><path d="M 180 86.4 L 1296 86.4" fill="none" stroke="#ffffff" stroke-width="0.8" stroke-linejoin="miter" stroke-linecap="square"/></g><g id="text_17"><g transform="translate(676.92375 80.4) scale(0.12 -0.12)" fill="#ffffff"><defs><path id="DejaVuSans-41" d="M 2188 4044 L 1331 1722 L 3047 1722 L 2188 4044 z M 1831 4666 L 2547 4666 L 4325 0 L 3669 0 L 3244 1197 L 1141 1197 L 716 0 L 50 0 L 1831 4666 z" transform="scale(0.015625)"/><path id="DejaVuSans-76" d="M 191 3500 L 800 3500 L 1894 563 L 2988 3500 L 3597 3500 L 2284 0 L 1503 0 L 191 3500 z" transform="scale(0.015625)"/><path id="DejaVuSans-67" d="M 2906 1791 Q 2906 2416 2648 2759 Q 2391 3103 1925 3103 Q 1463 3103 1205 2759 Q 947 2416 947 1791 Q 947 1169 1205 825 Q 1463 481 1925 481 Q 2391 481 2648 825 Q 2906 1169 2906 1791 z M 3481 434 Q 3481 -459 3084 -895 Q 2688 -1331 1869 -1331 Q 1566 -1331 1297 -1286 Q 1028 -1241 775 -1147 L 775 -588 Q 1028 -725 1275 -790 Q 1522 -856 1778 -856 Q 2344 -856 2625 -561 Q 2906 -266 2906 331 L 2906 616 Q 2728 306 2450 153 Q 2172 0 1784 0 Q 1141 0 747 490 Q 353 981 353 1791 Q 353 2603 747 3093 Q 1141 3584 1784 3584 Q 2172 3584 2450 3431 Q 2728 3278 2906 2969 L 2906 3500 L 3481 3500 L 3481 434 z" transform="scale(0.015625)"/></defs><use xlink:href="#DejaVuSans-41"/><use xlink:href="#DejaVuSans-76" x="62.533"/><use xlink:href="#DejaVuSans-65" x="121.713"/><use xlink:href="#DejaVuSans-72" x="183.236"/><use xlink:href="#DejaVuSans-61" x="224.35"/><use xlink:href="#DejaVuSans-67" x="285.629"/><use xlink:href="#DejaVuSans-65" x="349.105"/><use xlink:href="#DejaVuSans-20" x="410.629"/><use xlink:href="#DejaVuSans-75" x="442.416"/><use xlink:href="#DejaVuSans-70" x="505.795"/><use xlink:href="#DejaVuSans-6c" x="569.271"/><use xlink:href="#DejaVuSans-6f" x="597.055"/><use xlink:href="#DejaVuSans-61" x="658.236"/><use xlink:href="#DejaVuSans-64" x="719.516"/><use xlink:href="#DejaVuSans-20" x="782.992"/><use xlink:href="#DejaVuSans-72" x="814.779"/><use xlink:href="#DejaVuSans-61" x="855.893"/><use xlink:href="#DejaVuSans-74" x="917.172"/><use xlink:href="#DejaVuSans-65" x="956.381"/></g></g></g></g><defs><clipPath id="p52f22f1609"><rect x="180" y="86.4" width="1116" height="554.4"/></clipPath></defs></svg>