<svg xmlns:xlink="http://www.w3.org/1999/xlink" width="1920" height="960" viewBox="0 0 1440 720" xmlns="http://www.w3.org/2000/svg" version="1.1"><metadata><rdf:RDF xmlns:dc="http://purl.org/dc/elements/1.1/" xmlns:cc="http://creativecommons.org/ns#" xmlns:rdf="http://www.w3.org/1999/02/22-rdf-syntax-ns#"><cc:Work><dc:type rdf:resource="http://purl.org/dc/dcmitype/StillImage"/><dc:format>image/svg+xml</dc:format><dc:creator><cc:Agent><dc:title>Matplotlib v3.7.1, https://matplotlib.org/</dc:title></cc:Agent></dc:creator></cc:Work></rdf:RDF></metadata><defs><style type="text/css">*{stroke-linejoin:round;stroke-linecap:butt}</style></defs><g id="figure_1"><g id="patch_1"><path d="M 0 720 L 1440 720 L 1440 0 L 0 0 z"/></g><g id="axes_1"><g id="patch_2"><path d="M 180 640.8 L 1296 640.8 L 1296 86.4 L 180 86.4 z"/></g><g id="matplotlib.axis_1"><g id="xtick_1"><g id="line2d_1"><defs><path id="mafb5171b41" d="M 0 0 L 0 3.5" stroke="#ffffff" stroke-width="0.8"/></defs><g><use xlink:href="#mafb5171b41" x="180" y="640.8" fill="#ffffff" stroke="#ffffff" stroke-width="0.8"/></g></g><g id="text_1"><g transform="translate(176.81875 655.398438) scale(0.1 -0.1)" fill="#ffffff"><defs><path id="DejaVuSans-30" d="M 2034 4250 Q 1547 4250 1301 3770 Q 1056 3291 1056 2328 Q 1056 1369 1301 889 Q 1547 409 2034 409 Q 2525 409 2770 889 Q 3016 1369 3016 2328 Q 3016 3291 2770 3770 Q 2525 4250 2034 4250 z M 2034 4750 Q 2819 4750 3233 4129 Q 3647 3509 3647 2328 Q 3647 1150 3233 529 Q 2819 -91 2034 -91 Q 1250 -91 836 529 Q 422 1150 422 2328 Q 422 3509 836 4129 Q 1250 4750 2034 4750 z" transform="scale(0.015625)"/></defs><use xlink:href="#DejaVuSans-30"/></g></g></g><g id="xtick_2"><g id="line2d_2"><g><use xlink:href="#mafb5171b41" x="310.832" y="640.8" fill="#ffffff" stroke="#ffffff" stroke-width="0.8"/></g></g><g id="text_2"><g transform="translate(301.288606 655.398438) scale(0.1 -0.1)" fill="#ffffff"><defs><path id="DejaVuSans-32" d="M 1228 531 L 3431 531 L 3431 0 L 469 0 L 469 531 Q 828 903 1448 1529 Q 2069 2156 2228 2338 Q 2531 2678 2651 2914 Q 2772 3150 2772 3378 Q 2772 3750 2511 3984 Q 2250 4219 1831 4219 Q 1534 4219 1204 4116 Q 875 4013 500 3803 L 500 4441 Q 881 4594 1212 4672 Q 1544 4750 1819 4750 Q 2544 4750 2975 4387 Q 3406 4025 3406 3419 Q 3406 3131 3298 2873 Q 3191 2616 2906 2266 Q 2828 2175 2409 1742 Q 1991 1309 1228 531 z" transform="scale(0.015625)"/></defs><use xlink:href="#DejaVuSans-32"/><use xlink:href="#DejaVuSans-30" x="63.623"/><use xlink:href="#DejaVuSans-30" x="127.246"/></g></g></g><g id="xtick_3"><g id="line2d_3"><g><use xlink:href="#mafb5171b41" x="441.665" y="640.8" fill="#ffffff" stroke="#ffffff" stroke-width="0.8"/></g></g><g id="text_3"><g transform="translate(432.120963 655.398438) scale(0.1 -0.1)" fill="#ffffff"><defs><path id="DejaVuSans-34" d="M 2419 4116 L 825 1625 L 2419 1625 L 2419 4116 z M 2253 4666 L 3047 4666 L 3047 1625 L 3713 1625 L 3713 1100 L 3047 1100 L 3047 0 L 2419 0 L 2419 1100 L 313 1100 L 313 1709 L 2253 4666 z" transform="scale(0.015625)"/></defs><use xlink:href="#DejaVuSans-34"/><use xlink:href="#DejaVuSans-30" x="63.623"/><use xlink:href="#DejaVuSans-30" x="127.246"/></g></g></g><g id="xtick_4"><g id="line2d_4"><g><use xlink:href="#mafb5171b41" x="572.497" y="640.8" fill="#ffffff" stroke="#ffffff" stroke-width="0.8"/></g></g><g id="text_4"><g transform="translate(562.953319 655.398438) scale(0.1 -0.1)" fill="#ffffff"><defs><path id="DejaVuSans-36" d="M 2113 2584 Q 1688 2584 1439 2293 Q 1191 2003 1191 1497 Q 1191 994 1439 701 Q 1688 409 2113 409 Q 2538 409 2786 701 Q 3034 994 3034 1497 Q 3034 2003 2786 2293 Q 2538 2584 2113 2584 z M 3366 4563 L 3366 3988 Q 3128 4100 2886 4159 Q 2644 4219 2406 4219 Q 1781 4219 1451 3797 Q 1122 3375 1075 2522 Q 1259 2794 1537 2939 Q 1816 3084 2150 3084 Q 2853 3084 3261 2657 Q 3669 2231 3669 1497 Q 3669 778 3244 343 Q 2819 -91 2113 -91 Q 1303 -91 875 529 Q 447 1150 447 2328 Q 447 3434 972 4092 Q 1497 4750 2381 4750 Q 2619 4750 2861 4703 Q 3103 4656 3366 4563 z" transform="scale(0.015625)"/></defs><use xlink:href="#DejaVuSans-36"/><use xlink:href="#DejaVuSans-30" x="63.623"/><use xlink:href="#DejaVuSans-30" x="127.246"/></g></g></g><g id="xtick_5"><g id="line2d_5"><g><use xlink:href="#mafb5171b41" x="703.329" y="640.8" fill="#ffffff" stroke="#ffffff" stroke-width="0.8"/></g></g><g id="text_5"><g transform="translate(693.785676 655.398438) scale(0.1 -0.1)" fill="#ffffff"><defs><path id="DejaVuSans-38" d="M 2034 2216 Q 1584 2216 1326 1975 Q 1069 1734 1069 1313 Q 1069 891 1326 650 Q 1584 409 2034 409 Q 2484 409 2743 651 Q 3003 894 3003 1313 Q 3003 1734 2745 1975 Q 2488 2216 2034 2216 z M 1403 2484 Q 997 2584 770 2862 Q 544 3141 544 3541 Q 544 4100 942 4425 Q 1341 4750 2034 4750 Q 2731 4750 3128 4425 Q 3525 4100 3525 3541 Q 3525 3141 3298 2862 Q 3072 2584 2669 2484 Q 3125 2378 3379 2068 Q 3634 1759 3634 1313 Q 3634 634 3220 271 Q 2806 -91 2034 -91 Q 1263 -91 848 271 Q 434 634 434 1313 Q 434 1759 690 2068 Q 947 2378 1403 2484 z M 1172 3481 Q 1172 3119 1398 2916 Q 1625 2713 2034 2713 Q 2441 2713 2670 2916 Q 2900 3119 2900 3481 Q 2900 3844 2670 4047 Q 2441 4250 2034 4250 Q 1625 4250 1398 4047 Q 1172 3844 1172 3481 z" transform="scale(0.015625)"/></defs><use xlink:href="#DejaVuSans-38"/><use xlink:href="#DejaVuSans-30" x="63.623"/><use xlink:href="#DejaVuSans-30" x="127.246"/></g></g></g><g id="xtick_6"><g id="line2d_6"><g><use xlink:href="#mafb5171b41" x="834.162" y="640.8" fill="#ffffff" stroke="#ffffff" stroke-width="0.8"/></g></g><g id="text_6"><g transform="translate(821.436782 655.398438) scale(0.1 -0.1)" fill="#ffffff"><defs><path id="DejaVuSans-31" d="M 794 531 L 1825 531 L 1825 4091 L 703 3866 L 703 4441 L 1819 4666 L 2450 4666 L 2450 531 L 3481 531 L 3481 0 L 794 0 L 794 531 z" transform="scale(0.015625)"/></defs><use xlink:href="#DejaVuSans-31"/><use xlink:href="#DejaVuSans-30" x="63.623"/><use xlink:href="#DejaVuSans-30" x="127.246"/><use xlink:href="#DejaVuSans-30" x="190.869"/></g></g></g><g id="xtick_7"><g id="line2d_7"><g><use xlink:href="#mafb5171b41" x="964.994" y="640.8" fill="#ffffff" stroke="#ffffff" stroke-width="0.8"/></g></g><g id="text_7"><g transform="translate(952.269138 655.398438) scale(0.1 -0.1)" fill="#ffffff"><use xlink:href="#DejaVuSans-31"/><use xlink:href="#DejaVuSans-32" x="63.623"/><use xlink:href="#DejaVuSans-30" x="127.246"/><use xlink:href="#DejaVuSans-30" x="190.869"/></g></g></g><g id="xtick_8"><g id="line2d_8"><g><use xlink:href="#mafb5171b41" x="1095.826" y="640.8" fill="#ffffff" stroke="#ffffff" stroke-width="0.8"/></g></g><g id="text_8"><g transform="translate(1083.101495 655.398438) scale(0.1 -0.1)" fill="#ffffff"><use xlink:href="#DejaVuSans-31"/><use xlink:href="#DejaVuSans-34" x="63.623"/><use xlink:href="#DejaVuSans-30" x="127.246"/><use xlink:href="#DejaVuSans-30" x="190.869"/></g></g></g><g id="xtick_9"><g id="line2d_9"><g><use xlink:href="#mafb5171b41" x="1226.659" y="640.8" fill="#ffffff" stroke="#ffffff" stroke-width="0.8"/></g></g><g id="text_9"><g transform="translate(1213.933851 655.398438) scale(0.1 -0.1)" fill="#ffffff"><use xlink:href="#DejaVuSans-31"/><use xlink:href="#DejaVuSans-36" x="63.623"/><use xlink:href="#DejaVuSans-30" x="127.246"/><use xlink:href="#DejaVuSans-30" x="190.869"/></g></g></g><g id="xtick_10"><g id="line2d_10"><defs><path id="m33d40e59c2" d="M 0 0 L 0 2" stroke="#ffffff" stroke-width="0.6"/></defs><g><use xlink:href="#m33d40e59c2" x="212.708" y="640.8" fill="#ffffff" stroke="#ffffff" stroke-width="0.6"/></g></g></g><g id="xtick_11"><g id="line2d_11"><g><use xlink:href="#m33d40e59c2" x="245.416" y="640.8" fill="#ffffff" stroke="#ffffff" stroke-width="0.6"/></g></g></g><g id="xtick_12"><g id="line2d_12"><g><use xlink:href="#m33d40e59c2" x="278.124" y="640.8" fill="#ffffff" stroke="#ffffff" stroke-width="0.6"/></g></g></g><g id="xtick_13"><g id="line2d_13"><g><use xlink:href="#m33d40e59c2" x="343.54" y="640.8" fill="#ffffff" stroke="#ffffff" stroke-width="0.6"/></g></g></g><g id="xtick_14"><g id="line2d_14"><g><use xlink:href="#m33d40e59c2" x="376.249" y="640.8" fill="#ffffff" stroke="#ffffff" stroke-width="0.6"/></g></g></g><g id="xtick_15"><g id="line2d_15"><g><use xlink:href="#m33d40e59c2" x="408.957" y="640.8" fill="#ffffff" stroke="#ffffff" stroke-width="0.6"/></g></g></g><g id="xtick_16"><g id="line2d_16"><g><use xlink:href="#m33d40e59c2" x="474.373" y="640.8" fill="#ffffff" stroke="#ffffff" stroke-width="0.6"/></g></g></g><g id="xtick_17"><g id="line2d_17"><g><use xlink:href="#m33d40e59c2" x="507.081" y="640.8" fill="#ffffff" stroke="#ffffff" stroke-width="0.6"/></g></g></g><g id="xtick_18"><g id="line2d_18"><g><use xlink:href="#m33d40e59c2" x="539.789" y="640.8" fill="#ffffff" stroke="#ffffff" stroke-width="0.6"/></g></g></g><g id="xtick_19"><g id="line2d_19"><g><use xlink:href="#m33d40e59c2" x="605.205" y="640.8" fill="#ffffff" stroke="#ffffff" stroke-width="0.6"/></g></g></g><g id="xtick_20"><g id="line2d_20"><g><use xlink:href="#m33d40e59c2" x="637.913" y="640.8" fill="#ffffff" stroke="#ffffff" stroke-width="0.6"/></g></g></g><g id="xtick_21"><g id="line2d_21"><g><use xlink:href="#m33d40e59c2" x="670.621" y="640.8" fill="#ffffff" stroke="#ffffff" stroke-width="0.6"/></g></g></g><g id="xtick_22"><g id="line2d_22"><g><use xlink:href="#m33d40e59c2" x="736.038" y="640.8" fill="#ffffff" stroke="#ffffff" stroke-width="0.6"/></g></g></g><g id="xtick_23"><g id="line2d_23"><g><use xlink:href="#m33d40e59c2" x="768.746" y="640.8" fill="#ffffff" stroke="#ffffff" stroke-width="0.6"/></g></g></g><g id="xtick_24"><g id="line2d_24"><g><use xlink:href="#m33d40e59c2" x="801.454" y="640.8" fill="#ffffff" stroke="#ffffff" stroke-width="0.6"/></g></g></g><g id="xtick_25"><g id="line2d_25"><g><use xlink:href="#m33d40e59c2" x="866.87" y="640.8" fill="#ffffff" stroke="#ffffff" stroke-width="0.6"/></g></g></g><g id="xtick_26"><g id="line2d_26"><g><use xlink:href="#m33d40e59c2" x="899.578" y="640.8" fill="#ffffff" stroke="#ffffff" stroke-width="0.6"/></g></g></g><g id="xtick_27"><g id="line2d_27"><g><use xlink:href="#m33d40e59c2" x="932.286" y="640.8" fill="#ffffff" stroke="#ffffff" stroke-width="0.6"/></g></g></g><g id="xtick_28"><g id="line2d_28"><g><use xlink:href="#m33d40e59c2" x="997.702" y="640.8" fill="#ffffff" stroke="#ffffff" stroke-width="0.6"/></g></g></g><g id="xtick_29"><g id="line2d_29"><g><use xlink:href="#m33d40e59c2" x="1030.41" y="640.8" fill="#ffffff" stroke="#ffffff" stroke-width="0.6"/></g></g></g><g id="xtick_30"><g id="line2d_30"><g><use xlink:href="#m33d40e59c2" x="1063.118" y="640.8" fill="#ffffff" stroke="#ffffff" stroke-width="0.6"/></g></g></g><g id="xtick_31"><g id="line2d_31"><g><use xlink:href="#m33d40e59c2" x="1128.535" y="640.8" fill="#ffffff" stroke="#ffffff" stroke-width="0.6"/></g></g></g><g id="xtick_32"><g id="line2d_32"><g><use xlink:href="#m33d40e59c2" x="1161.243" y="640.8" fill="#ffffff" stroke="#ffffff" stroke-width="0.6"/></g></g></g><g id="xtick_33"><g id="line2d_33"><g><use xlink:href="#m33d40e59c2" x="1193.951" y="640.8" fill="#ffffff" stroke="#ffffff" stroke-width="0.6"/></g></g></g><g id="xtick_34"><g id="line2d_34"><g><use xlink:href="#m33d40e59c2" x="1259.367" y="640.8" fill="#ffffff" stroke="#ffffff" stroke-width="0.6"/></g></g></g><g id="xtick_35"><g id="line2d_35"><g><use xlink:href="#m33d40e59c2" x="1292.075" y="640.8" fill="#ffffff" stroke="#ffffff" stroke-width="0.6"/></g></g></g><g id="text_10"><g transform="translate(638.625781 669.076563) scale(0.1 -0.1)" fill="#ffffff"><defs><path id="DejaVuSans-48" d="M 628 4666 L 1259 4666 L 1259 2753 L 3553 2753 L 3553 4666 L 4184 4666 L 4184 0 L 3553 0 L 3553 2222 L 1259 2222 L 1259 0 L 628 0 L 628 4666 z" transform="scale(0.015625)"/><path id="DejaVuSans-6f" d="M 1959 3097 Q 1497 3097 1228 2736 Q 959 2375 959 1747 Q 959 1119 1226 758 Q 1494 397 1959 397 Q 2419 397 2687 759 Q 2956 1122 2956 1747 Q 2956 2369 2687 2733 Q 2419 3097 1959 3097 z M 1959 3584 Q 2709 3584 3137 3096 Q 3566 2609 3566 1747 Q 3566 888 3137 398 Q 2709 -91 1959 -91 Q 1206 -91 779 398 Q 353 888 353 1747 Q 353 2609 779 3096 Q 1206 3584 1959 3584 z" transform="scale(0.015625)"/><path id="DejaVuSans-75" d="M 544 1381 L 544 3500 L 1119 3500 L 1119 1403 Q 1119 906 1312 657 Q 1506 409 1894 409 Q 2359 409 2629 706 Q 2900 1003 2900 1516 L 2900 3500 L 3475 3500 L 3475 0 L 2900 0 L 2900 538 Q 2691 219 2414 64 Q 2138 -91 1772 -91 Q 1169 -91 856 284 Q 544 659 544 1381 z M 1991 3584 L 1991 3584 z" transform="scale(0.015625)"/><path id="DejaVuSans-72" d="M 2631 2963 Q 2534 3019 2420 3045 Q 2306 3072 2169 3072 Q 1681 3072 1420 2755 Q 1159 2438 1159 1844 L 1159 0 L 581 0 L 581 3500 L 1159 3500 L 1159 2956 Q 1341 3275 1631 3429 Q 1922 3584 2338 3584 Q 2397 3584 2469 3576 Q 2541 3569 2628 3553 L 2631 2963 z" transform="scale(0.015625)"/><path id="DejaVuSans-73" d="M 2834 3397 L 2834 2853 Q 2591 2978 2328 3040 Q 2066 3103 1784 3103 Q 1356 3103 1142 2972 Q 928 2841 928 2578 Q 928 2378 1081 2264 Q 1234 2150 1697 2047 L 1894 2003 Q 2506 1872 2764 1633 Q 3022 1394 3022 966 Q 3022 478 2636 193 Q 2250 -91 1575 -91 Q 1294 -91 989 -36 Q 684 19 347 128 L 347 722 Q 666 556 975 473 Q 1284 391 1588 391 Q 1994 391 2212 530 Q 2431 669 2431 922 Q 2431 1156 2273 1281 Q 2116 1406 1581 1522 L 1381 1569 Q 847 1681 609 1914 Q 372 2147 372 2553 Q 372 3047 722 3315 Q 1072 3584 1716 3584 Q 2034 3584 2315 3537 Q 2597 3491 2834 3397 z" transform="scale(0.015625)"/><path id="DejaVuSans-20" transform="scale(0.015625)"/><path id="DejaVuSans-69" d="M 603 3500 L 1178 3500 L 1178 0 L 603 0 L 603 3500 z M 603 4863 L 1178 4863 L 1178 4134 L 603 4134 L 603 4863 z" transform="scale(0.015625)"/><path id="DejaVuSans-6e" d="M 3513 2113 L 3513 0 L 2938 0 L 2938 2094 Q 2938 2591 2744 2837 Q 2550 3084 2163 3084 Q 1697 3084 1428 2787 Q 1159 2491 1159 1978 L 1159 0 L 581 0 L 581 3500 L 1159 3500 L 1159 2956 Q 1366 3272 1645 3428 Q 1925 3584 2291 3584 Q 2894 3584 3203 3211 Q 3513 2838 3513 2113 z" transform="scale(0.015625)"/><path id="DejaVuSans-63" d="M 3122 3366 L 3122 2828 Q 2878 2963 2633 3030 Q 2388 3097 2138 3097 Q 1578 3097 1268 2742 Q 959 2388 959 1747 Q 959 1106 1268 751 Q 1578 397 2138 397 Q 2388 397 2633 464 Q 2878 531 3122 666 L 3122 134 Q 2881 22 2623 -34 Q 2366 -91 2075 -91 Q 1284 -91 818 406 Q 353 903 353 1747 Q 353 2603 823 3093 Q 1294 3584 2113 3584 Q 2378 3584 2631 3529 Q 2884 3475 3122 3366 z" transform="scale(0.015625)"/><path id="DejaVuSans-65" d="M 3597 1894 L 3597 1613 L 953 1613 Q 991 1019 1311 708 Q 1631 397 2203 397 Q 2534 397 2845 478 Q 3156 559 3463 722 L 3463 178 Q 3153 47 2828 -22 Q 2503 -91 2169 -91 Q 1331 -91 842 396 Q 353 884 353 1716 Q 353 2575 817 3079 Q 1281 3584 2069 3584 Q 2775 3584 3186 3129 Q 3597 2675 3597 1894 z M 3022 2063 Q 3016 2534 2758 2815 Q 2500 3097 2075 3097 Q 1594 3097 1305 2825 Q 1016 2553 972 2059 L 3022 2063 z" transform="scale(0.015625)"/><path id="DejaVuSans-2f" d="M 1625 4666 L 2156 4666 L 531 -594 L 0 -594 L 1625 4666 z" transform="scale(0.015625)"/><path id="DejaVuSans-33" d="M 2597 2516 Q 3050 2419 3304 2112 Q 3559 1806 3559 1356 Q 3559 666 3084 287 Q 2609 -91 1734 -91 Q 1441 -91 1130 -33 Q 819 25 488 141 L 488 750 Q 750 597 1062 519 Q 1375 441 1716 441 Q 2309 441 2620 675 Q 2931 909 2931 1356 Q 2931 1769 2642 2001 Q 2353 2234 1838 2234 L 1294 2234 L 1294 2753 L 1863 2753 Q 2328 2753 2575 2939 Q 2822 3125 2822 3475 Q 2822 3834 2567 4026 Q 2313 4219 1838 4219 Q 1578 4219 1281 4162 Q 984 4106 628 3988 L 628 4550 Q 988 4650 1302 4700 Q 1616 4750 1894 4750 Q 2613 4750 3031 4423 Q 3450 4097 3450 3541 Q 3450 3153 3228 2886 Q 3006 2619 2597 2516 z" transform="scale(0.015625)"/><path id="DejaVuSans-35" d="M 691 4666 L 3169 4666 L 3169 4134 L 1269 4134 L 1269 2991 Q 1406 3038 1543 3061 Q 1681 3084 1819 3084 Q 2600 3084 3056 2656 Q 3513 2228 3513 1497 Q 3513 744 3044 326 Q 2575 -91 1722 -91 Q 1428 -91 1123 -41 Q 819 9 494 109 L 494 744 Q 775 591 1075 516 Q 1375 441 1709 441 Q 2250 441 2565 725 Q 2881 1009 2881 1497 Q 2881 1984 2565 2268 Q 2250 2553 1709 2553 Q 1456 2553 1204 2497 Q 953 2441 691 2322 L 691 4666 z" transform="scale(0.015625)"/><path id="DejaVuSans-3a" d="M 750 794 L 1409 794 L 1409 0 L 750 0 L 750 794 z M 750 3309 L 1409 3309 L 1409 2516 L 750 2516 L 750 3309 z" transform="scale(0.015625)"/><path id="DejaVuSans-28" d="M 1984 4856 Q 1566 4138 1362 3434 Q 1159 2731 1159 2009 Q 1159 1288 1364 580 Q 1569 -128 1984 -844 L 1484 -844 Q 1016 -109 783 600 Q 550 1309 550 2009 Q 550 2706 781 3412 Q 1013 4119 1484 4856 L 1984 4856 z" transform="scale(0.015625)"/><path id="DejaVuSans-55" d="M 556 4666 L 1191 4666 L 1191 1831 Q 1191 1081 1462 751 Q 1734 422 2344 422 Q 2950 422 3222 751 Q 3494 1081 3494 1831 L 3494 4666 L 4128 4666 L 4128 1753 Q 4128 841 3676 375 Q 3225 -91 2344 -91 Q 1459 -91 1007 375 Q 556 841 556 1753 L 556 4666 z" transform="scale(0.015625)"/><path id="DejaVuSans-43" d="M 4122 4306 L 4122 3641 Q 3803 3938 3442 4084 Q 3081 4231 2675 4231 Q 1875 4231 1450 3742 Q 1025 3253 1025 2328 Q 1025 1406 1450 917 Q 1875 428 2675 428 Q 3081 428 3442 575 Q 3803 722 4122 1019 L 4122 359 Q 3791 134 3420 21 Q 3050 -91 2638 -91 Q 1578 -91 968 557 Q 359 1206 359 2328 Q 359 3453 968 4101 Q 1578 4750 2638 4750 Q 3056 4750 3426 4639 Q 3797 4528 4122 4306 z" transform="scale(0.015625)"/><path id="DejaVuSans-54" d="M -19 4666 L 3928 4666 L 3928 4134 L 2272 4134 L 2272 0 L 1638 0 L 1638 4134 L -19 4134 L -19 4666 z" transform="scale(0.015625)"/><path id="DejaVuSans-29" d="M 513 4856 L 1013 4856 Q 1481 4119 1714 3412 Q 1947 2706 1947 2009 Q 1947 1309 1714 600 Q 1481 -109 1013 -844 L 513 -844 Q 928 -128 1133 580 Q 1338 1288 1338 2009 Q 1338 2731 1133 3434 Q 928 4138 513 4856 z" transform="scale(0.015625)"/></defs><use xlink:href="#DejaVuSans-48"/><use xlink:href="#DejaVuSans-6f" x="75.195"/><use xlink:href="#DejaVuSans-75" x="136.377"/><use xlink:href="#DejaVuSans-72" x="199.756"/><use xlink:href="#DejaVuSans-73" x="240.869"/><use xlink:href="#DejaVuSans-20" x="292.969"/><use xlink:href="#DejaVuSans-73" x="324.756"/><use xlink:href="#DejaVuSans-69" x="376.855"/><use xlink:href="#DejaVuSans-6e" x="404.639"/><use xlink:href="#DejaVuSans-63" x="468.018"/><use xlink:href="#DejaVuSans-65" x="522.998"/><use xlink:href="#DejaVuSans-20" x="584.521"/><use xlink:href="#DejaVuSans-32" x="616.309"/><use xlink:href="#DejaVuSans-36" x="679.932"/><use xlink:href="#DejaVuSans-2f" x="743.555"/><use xlink:href="#DejaVuSans-30" x="777.246"/><use xlink:href="#DejaVuSans-32" x="840.869"/><use xlink:href="#DejaVuSans-2f" x="904.492"/><use xlink:href="#DejaVuSans-32" x="938.184"/><use xlink:href="#DejaVuSans-30" x="1001.807"/><use xlink:href="#DejaVuSans-32" x="1065.43"/><use xlink:href="#DejaVuSans-33" x="1129.053"/><use xlink:href="#DejaVuSans-20" x="1192.676"/><use xlink:href="#DejaVuSans-30" x="1224.463"/><use xlink:href="#DejaVuSans-35" x="1288.086"/><use xlink:href="#DejaVuSans-3a" x="1351.709"/><use xlink:href="#DejaVuSans-30" x="1385.4"/><use xlink:href="#DejaVuSans-30" x="1449.023"/><use xlink:href="#DejaVuSans-3a" x="1512.646"/><use xlink:href="#DejaVuSans-30" x="1546.338"/><use xlink:href="#DejaVuSans-30" x="1609.961"/><use xlink:href="#DejaVuSans-20" x="1673.584"/><use xlink:href="#DejaVuSans-28" x="1705.371"/><use xlink:href="#DejaVuSans-55" x="1744.385"/><use xlink:href="#DejaVuSans-43" x="1817.578"/><use xlink:href="#DejaVuSans-54" x="1887.402"/><use xlink:href="#DejaVuSans-29" x="1948.486"/></g></g></g><g id="matplotlib.axis_2"><g id="ytick_1"><g id="line2d_36"><defs><path id="mf98ee9ab99" d="M 0 0 L -3.5 0" stroke="#ffffff" stroke-width="0.8"/></defs><g><use xlink:href="#mf98ee9ab99" x="180" y="615.6" fill="#ffffff" stroke="#ffffff" stroke-width="0.8"/></g></g><g id="text_11"><g transform="translate(166.6375 619.399219) scale(0.1 -0.1)" fill="#ffffff"><use xlink:href="#DejaVuSans-30"/></g></g></g><g id="ytick_2"><g id="line2d_37"><g><use xlink:href="#mf98ee9ab99" x="180" y="544.151" fill="#ffffff" stroke="#ffffff" stroke-width="0.8"/></g></g><g id="text_12"><g transform="translate(153.9125 547.950395) scale(0.1 -0.1)" fill="#ffffff"><use xlink:href="#DejaVuSans-31"/><use xlink:href="#DejaVuSans-30" x="63.623"/><use xlink:href="#DejaVuSans-30" x="127.246"/></g></g></g><g id="ytick_3"><g id="line2d_38"><g><use xlink:href="#mf98ee9ab99" x="180" y="472.702" fill="#ffffff" stroke="#ffffff" stroke-width="0.8"/></g></g><g id="text_13"><g transform="translate(153.9125 476.501572) scale(0.1 -0.1)" fill="#ffffff"><use xlink:href="#DejaVuSans-32"/><use xlink:href="#DejaVuSans-30" x="63.623"/><use xlink:href="#DejaVuSans-30" x="127.246"/></g></g></g><g id="ytick_4"><g id="line2d_39"><g><use xlink:href="#mf98ee9ab99" x="180" y="401.254" fill="#ffffff" stroke="#ffffff" stroke-width="0.8"/></g></g><g id="text_14"><g transform="translate(153.9125 405.052749) scale(0.1 -0.1)" fill="#ffffff"><use xlink:href="#DejaVuSans-33"/><use xlink:href="#DejaVuSans-30" x="63.623"/><use xlink:href="#DejaVuSans-30" x="127.246"/></g></g></g><g id="ytick_5"><g id="line2d_40"><g><use xlink:href="#mf98ee9ab99" x="180" y="329.805" fill="#ffffff" stroke="#ffffff" stroke-width="0.8"/></g></g><g id="text_15"><g transform="translate(153.9125 333.603925) scale(0.1 -0.1)" fill="#ffffff"><use xlink:href="#DejaVuSans-34"/><use xlink:href="#DejaVuSans-30" x="63.623"/><use xlink:href="#DejaVuSans-30" x="127.246"/></g></g></g><g id="ytick_6"><g id="line2d_41"><g><use xlink:href="#mf98ee9ab99" x="180" y="258.356" fill="#ffffff" stroke="#ffffff" stroke-width="0.8"/></g></g><g id="text_16"><g transform="translate(153.9125 262.155102) scale(0.1 -0.1)" fill="#ffffff"><use xlink:href="#DejaVuSans-35"/><use xlink:href="#DejaVuSans-30" x="63.623"/><use xlink:href="#DejaVuSans-30" x="127.246"/></g></g></g><g id="ytick_7"><g id="line2d_42"><g><use xlink:href="#mf98ee9ab99" x="180" y="186.907" fill="#ffffff" stroke="#ffffff" stroke-width="0.8"/></g></g><g id="text_17"><g transform="translate(153.9125 190.706279) scale(0.1 -0.1)" fill="#ffffff"><use xlink:href="#DejaVuSans-36"/><use xlink:href="#DejaVuSans-30" x="63.623"/><use xlink:href="#DejaVuSans-30" x="127.246"/></g></g></g><g id="ytick_8"><g id="line2d_43"><g><use xlink:href="#mf98ee9ab99" x="180" y="115.458" fill="#ffffff" stroke="#ffffff" stroke-width="0.8"/></g></g><g id="text_18"><g transform="translate(153.9125 119.257455) scale(0.1 -0.1)" fill="#ffffff"><defs><path id="DejaVuSans-37" d="M 525 4666 L 3525 4666 L 3525 4397 L 1831 0 L 1172 0 L 2766 4134 L 525 4134 L 525 4666 z" transform="scale(0.015625)"/></defs><use xlink:href="#DejaVuSans-37"/><use xlink:href="#DejaVuSans-30" x="63.623"/><use xlink:href="#DejaVuSans-30" x="127.246"/></g></g></g><g id="ytick_9"><g id="line2d_44"><defs><path id="m0cd6045591" d="M 0 0 L -2 0" stroke="#ffffff" stroke-width="0.6"/></defs><g><use xlink:href="#m0cd6045591" x="180" y="629.89" fill="#ffffff" stroke="#ffffff" stroke-width="0.6"/></g></g></g><g id="ytick_10"><g id="line2d_45"><g><use xlink:href="#m0cd6045591" x="180" y="601.31" fill="#ffffff" stroke="#ffffff" stroke-width="0.6"/></g></g></g><g id="ytick_11"><g id="line2d_46"><g><use xlink:href="#m0cd6045591" x="180" y="587.02" fill="#ffffff" stroke="#ffffff" stroke-width="0.6"/></g></g></g><g id="ytick_12"><g id="line2d_47"><g><use xlink:href="#m0cd6045591" x="180" y="572.731" fill="#ffffff" stroke="#ffffff" stroke-width="0.6"/></g></g></g><g id="ytick_13"><g id="line2d_48"><g><use xlink:href="#m0cd6045591" x="180" y="558.441" fill="#ffffff" stroke="#ffffff" stroke-width="0.6"/></g></g></g><g id="ytick_14"><g id="line2d_49"><g><use xlink:href="#m0cd6045591" x="180" y="529.861" fill="#ffffff" stroke="#ffffff" stroke-width="0.6"/></g></g></g><g id="ytick_15"><g id="line2d_50"><g><use xlink:href="#m0cd6045591" x="180" y="515.572" fill="#ffffff" stroke="#ffffff" stroke-width="0.6"/></g></g></g><g id="ytick_16"><g id="line2d_51"><g><use xlink:href="#m0cd6045591" x="180" y="501.282" fill="#ffffff" stroke="#ffffff" stroke-width="0.6"/></g></g></g><g id="ytick_17"><g id="line2d_52"><g><use xlink:href="#m0cd6045591" x="180" y="486.992" fill="#ffffff" stroke="#ffffff" stroke-width="0.6"/></g></g></g><g id="ytick_18"><g id="line2d_53"><g><use xlink:href="#m0cd6045591" x="180" y="458.413" fill="#ffffff" stroke="#ffffff" stroke-width="0.6"/></g></g></g><g id="ytick_19"><g id="line2d_54"><g><use xlink:href="#m0cd6045591" x="180" y="444.123" fill="#ffffff" stroke="#ffffff" stroke-width="0.6"/></g></g></g><g id="ytick_20"><g id="line2d_55"><g><use xlink:href="#m0cd6045591" x="180" y="429.833" fill="#ffffff" stroke="#ffffff" stroke-width="0.6"/></g></g></g><g id="ytick_21"><g id="line2d_56"><g><use xlink:href="#m0cd6045591" x="180" y="415.543" fill="#ffffff" stroke="#ffffff" stroke-width="0.6"/></g></g></g><g id="ytick_22"><g id="line2d_57"><g><use xlink:href="#m0cd6045591" x="180" y="386.964" fill="#ffffff" stroke="#ffffff" stroke-width="0.6"/></g></g></g><g id="ytick_23"><g id="line2d_58"><g><use xlink:href="#m0cd6045591" x="180" y="372.674" fill="#ffffff" stroke="#ffffff" stroke-width="0.6"/></g></g></g><g id="ytick_24"><g id="line2d_59"><g><use xlink:href="#m0cd6045591" x="180" y="358.384" fill="#ffffff" stroke="#ffffff" stroke-width="0.6"/></g></g></g><g id="ytick_25"><g id="line2d_60"><g><use xlink:href="#m0cd6045591" x="180" y="344.094" fill="#ffffff" stroke="#ffffff" stroke-width="0.6"/></g></g></g><g id="ytick_26"><g id="line2d_61"><g><use xlink:href="#m0cd6045591" x="180" y="315.515" fill="#ffffff" stroke="#ffffff" stroke-width="0.6"/></g></g></g><g id="ytick_27"><g id="line2d_62"><g><use xlink:href="#m0cd6045591" x="180" y="301.225" fill="#ffffff" stroke="#ffffff" stroke-width="0.6"/></g></g></g><g id="ytick_28"><g id="line2d_63"><g><use xlink:href="#m0cd6045591" x="180" y="286.935" fill="#ffffff" stroke="#ffffff" stroke-width="0.6"/></g></g></g><g id="ytick_29"><g id="line2d_64"><g><use xlink:href="#m0cd6045591" x="180" y="272.646" fill="#ffffff" stroke="#ffffff" stroke-width="0.6"/></g></g></g><g id="ytick_30"><g id="line2d_65"><g><use xlink:href="#m0cd6045591" x="180" y="244.066" fill="#ffffff" stroke="#ffffff" stroke-width="0.6"/></g></g></g><g id="ytick_31"><g id="line2d_66"><g><use xlink:href="#m0cd6045591" x="180" y="229.776" fill="#ffffff" stroke="#ffffff" stroke-width="0.6"/></g></g></g><g id="ytick_32"><g id="line2d_67"><g><use xlink:href="#m0cd6045591" x="180" y="215.487" fill="#ffffff" stroke="#ffffff" stroke-width="0.6"/></g></g></g><g id="ytick_33"><g id="line2d_68"><g><use xlink:href="#m0cd6045591" x="180" y="201.197" fill="#ffffff" stroke="#ffffff" stroke-width="0.6"/></g></g></g><g id="ytick_34"><g id="line2d_69"><g><use xlink:href="#m0cd6045591" x="180" y="172.617" fill="#ffffff" stroke="#ffffff" stroke-width="0.6"/></g></g></g><g id="ytick_35"><g id="line2d_70"><g><use xlink:href="#m0cd6045591" x="180" y="158.328" fill="#ffffff" stroke="#ffffff" stroke-width="0.6"/></g></g></g><g id="ytick_36"><g id="line2d_71"><g><use xlink:href="#m0cd6045591" x="180" y="144.038" fill="#ffffff" stroke="#ffffff" stroke-width="0.6"/></g></g></g><g id="ytick_37"><g id="line2d_72"><g><use xlink:href="#m0cd6045591" x="180" y="129.748" fill="#ffffff" stroke="#ffffff" stroke-width="0.6"/></g></g></g><g id="ytick_38"><g id="line2d_73"><g><use xlink:href="#m0cd6045591" x="180" y="101.168" fill="#ffffff" stroke="#ffffff" stroke-width="0.6"/></g></g></g><g id="ytick_39"><g id="line2d_74"><g><use xlink:href="#m0cd6045591" x="180" y="86.879" fill="#ffffff" stroke="#ffffff" stroke-width="0.6"/></g></g></g><g id="text_19"><g transform="translate(147.832812 434.258594) rotate(-90) scale(0.1 -0.1)" fill="#ffffff"><defs><path id="DejaVuSans-53" d="M 3425 4513 L 3425 3897 Q 3066 4069 2747 4153 Q 2428 4238 2131 4238 Q 1616 4238 1336 4038 Q 1056 3838 1056 3469 Q 1056 3159 1242 3001 Q 1428 2844 1947 2747 L 2328 2669 Q 3034 2534 3370 2195 Q 3706 1856 3706 1288 Q 3706 609 3251 259 Q 2797 -91 1919 -91 Q 1588 -91 1214 -16 Q 841 59 441 206 L 441 856 Q 825 641 1194 531 Q 1563 422 1919 422 Q 2459 422 2753 634 Q 3047 847 3047 1241 Q 3047 1584 2836 1778 Q 2625 1972 2144 2069 L 1759 2144 Q 1053 2284 737 2584 Q 422 2884 422 3419 Q 422 4038 858 4394 Q 1294 4750 2059 4750 Q 2388 4750 2728 4690 Q 3069 4631 3425 4513 z" transform="scale(0.015625)"/><path id="DejaVuSans-64" d="M 2906 2969 L 2906 4863 L 3481 4863 L 3481 0 L 2906 0 L 2906 525 Q 2725 213 2448 61 Q 2172 -91 1784 -91 Q 1150 -91 751 415 Q 353 922 353 1747 Q 353 2572 751 3078 Q 1150 3584 1784 3584 Q 2172 3584 2448 3432 Q 2725 3281 2906 2969 z M 947 1747 Q 947 1113 1208 752 Q 1469 391 1925 391 Q 2381 391 2643 752 Q 2906 1113 2906 1747 Q 2906 2381 2643 2742 Q 2381 3103 1925 3103 Q 1469 3103 1208 2742 Q 947 2381 947 1747 z" transform="scale(0.015625)"/><path id="DejaVuSans-62" d="M 3116 1747 Q 3116 2381 2855 2742 Q 2594 3103 2138 3103 Q 1681 3103 1420 2742 Q 1159 2381 1159 1747 Q 1159 1113 1420 752 Q 1681 391 2138 391 Q 2594 391 2855 752 Q 3116 1113 3116 1747 z M 1159 2969 Q 1341 3281 1617 3432 Q 1894 3584 2278 3584 Q 2916 3584 3314 3078 Q 3713 2572 3713 1747 Q 3713 922 3314 415 Q 2916 -91 2278 -91 Q 1894 -91 1617 61 Q 1341 213 1159 525 L 1159 0 L 581 0 L 581 4863 L 1159 4863 L 1159 2969 z" transform="scale(0.015625)"/><path id="DejaVuSans-74" d="M 1172 4494 L 1172 3500 L 2356 3500 L 2356 3053 L 1172 3053 L 1172 1153 Q 1172 725 1289 603 Q 1406 481 1766 481 L 2356 481 L 2356 0 L 1766 0 Q 1100 0 847 248 Q 594 497 594 1153 L 594 3053 L 172 3053 L 172 3500 L 594 3500 L 594 4494 L 1172 4494 z" transform="scale(0.015625)"/><path id="DejaVuSans-77" d="M 269 3500 L 844 3500 L 1563 769 L 2278 3500 L 2956 3500 L 3675 769 L 4391 3500 L 4966 3500 L 4050 0 L 3372 0 L 2619 2869 L 1863 0 L 1184 0 L 269 3500 z" transform="scale(0.015625)"/><path id="DejaVuSans-61" d="M 2194 1759 Q 1497 1759 1228 1600 Q 959 1441 959 1056 Q 959 750 1161 570 Q 1363 391 1709 391 Q 2188 391 2477 730 Q 2766 1069 2766 1631 L 2766 1759 L 2194 1759 z M 3341 1997 L 3341 0 L 2766 0 L 2766 531 Q 2569 213 2275 61 Q 1981 -91 1556 -91 Q 1019 -91 701 211 Q 384 513 384 1019 Q 384 1609 779 1909 Q 1175 2209 1959 2209 L 2766 2209 L 2766 2266 Q 2766 2663 2505 2880 Q 2244 3097 1772 3097 Q 1472 3097 1187 3025 Q 903 2953 641 2809 L 641 3341 Q 956 3463 1253 3523 Q 1550 3584 1831 3584 Q 2591 3584 2966 3190 Q 3341 2797 3341 1997 z" transform="scale(0.015625)"/><path id="DejaVuSans-70" d="M 1159 525 L 1159 -1331 L 581 -1331 L 581 3500 L 1159 3500 L 1159 2969 Q 1341 3281 1617 3432 Q 1894 3584 2278 3584 Q 2916 3584 3314 3078 Q 3713 2572 3713 1747 Q 3713 922 3314 415 Q 2916 -91 2278 -91 Q 1894 -91 1617 61 Q 1341 213 1159 525 z M 3116 1747 Q 3116 2381 2855 2742 Q 2594 3103 2138 3103 Q 1681 3103 1420 2742 Q 1159 2381 1159 1747 Q 1159 1113 1420 752 Q 1681 391 2138 391 Q 2594 391 2855 752 Q 3116 1113 3116 1747 z" transform="scale(0.015625)"/><path id="DejaVuSans-6c" d="M 603 4863 L 1178 4863 L 1178 0 L 603 0 L 603 4863 z" transform="scale(0.015625)"/></defs><use xlink:href="#DejaVuSans-53"/><use xlink:href="#DejaVuSans-65" x="63.477"/><use xlink:href="#DejaVuSans-63" x="125"/><use xlink:href="#DejaVuSans-6f" x="179.98"/><use xlink:href="#DejaVuSans-6e" x="241.162"/><use xlink:href="#DejaVuSans-64" x="304.541"/><use xlink:href="#DejaVuSans-73" x="368.018"/><use xlink:href="#DejaVuSans-20" x="420.117"/><use xlink:href="#DejaVuSans-62" x="451.904"/><use xlink:href="#DejaVuSans-65" x="515.381"/><use xlink:href="#DejaVuSans-74" x="576.904"/><use xlink:href="#DejaVuSans-77" x="616.113"/><use xlink:href="#DejaVuSans-65" x="697.9"/><use xlink:href="#DejaVuSans-65" x="759.424"/><use xlink:href="#DejaVuSans-6e" x="820.947"/><use xlink:href="#DejaVuSans-20" x="884.326"/><use xlink:href="#DejaVuSans-61" x="916.113"/><use xlink:href="#DejaVuSans-6e" x="977.393"/><use xlink:href="#DejaVuSans-20" x="1040.771"/><use xlink:href="#DejaVuSans-75" x="1072.559"/><use xlink:href="#DejaVuSans-70" x="1135.938"/><use xlink:href="#DejaVuSans-6c" x="1199.414"/><use xlink:href="#DejaVuSans-6f" x="1227.197"/><use xlink:href="#DejaVuSans-61" x="1288.379"/><use xlink:href="#DejaVuSans-64" x="1349.658"/></g></g></g><g id="line2d_75"><path d="M 180 615.6 L 180.654162 490.167621 L 181.308324 564.080838 L 181.962485 569.533371 L 182.616647 565.795967 L 183.270809 554.684775 L 183.924971 582.638276 L 185.887456 541.210783 L 186.541618 579.672972 L 187.19578 585.986343 L 187.849941 597.372727 L 188.504103 595.689222 L 189.158265 587.12602 L 189.812427 593.323278 L 190.466589 597.898806 L 191.12075 595.34283 L 191.774912 602.438375 L 193.083236 596.270047 L 193.737397 588.587735 L 194.391559 591.568463 L 195.045721 602.016999 L 195.699883 571.225177 L 196.354045 588.303476 L 197.008206 562.709551 L 197.662368 576.255515 L 198.31653 545.600567 L 198.970692 542.049741 L 199.624853 524.174086 L 200.279015 533.507766 L 200.933177 504.888347 L 201.587339 494.431201 L 202.241501 572.318501 L 202.895662 603.796816 L 203.549824 499.240488 L 204.203986 591.110551 L 204.858148 580.621141 L 205.512309 587.347586 L 206.166471 588.364019 L 206.820633 588.876587 L 207.474795 575.577135 L 208.128957 580.046212 L 208.783118 588.14214 L 209.43728 566.171704 L 210.091442 591.935081 L 210.745604 562.165401 L 212.053927 576.213836 L 212.708089 562.802297 L 213.362251 540.959796 L 214.016413 568.780799 L 214.670574 349.810377 L 215.324736 447.593195 L 215.978898 403.591855 L 216.63306 494.672866 L 217.287222 499.066969 L 217.941383 545.580153 L 218.595545 548.302933 L 219.249707 567.770509 L 219.903869 575.611341 L 220.55803 589.446754 L 221.212192 593.112759 L 221.866354 588.155713 L 222.520516 576.001722 L 223.174678 588.720201 L 223.828839 585.6612 L 224.483001 594.256178 L 225.137163 587.684524 L 225.791325 549.622652 L 226.445487 556.088358 L 227.099648 546.970509 L 227.75381 552.875454 L 228.407972 564.536894 L 229.062134 585.557471 L 229.716295 587.944646 L 230.370457 563.967289 L 231.024619 534.505585 L 231.678781 534.696116 L 232.332943 475.896536 L 232.987104 567.75625 L 233.641266 506.543114 L 234.295428 516.058798 L 234.94959 578.168083 L 235.603751 581.052984 L 236.257913 571.30173 L 236.912075 588.685076 L 237.566237 577.147542 L 238.220399 572.125207 L 238.87456 571.89303 L 239.528722 594.026088 L 240.182884 593.898197 L 240.837046 577.190845 L 241.491208 578.706426 L 242.145369 592.262216 L 242.799531 579.484853 L 243.453693 593.84228 L 244.107855 554.8685 L 244.762016 533.222153 L 245.416178 547.210079 L 246.07034 537.997359 L 246.724502 505.670882 L 247.378664 514.857159 L 248.032825 534.74759 L 248.686987 506.562883 L 249.995311 557.148058 L 250.649472 572.549056 L 251.303634 584.546555 L 251.957796 591.176869 L 252.611958 602.326148 L 253.920281 583.680238 L 254.574443 598.992849 L 255.228605 598.437897 L 255.882767 594.950119 L 256.536928 594.563592 L 257.19109 596.729105 L 257.845252 590.445811 L 258.499414 589.936749 L 259.153576 583.002634 L 259.807737 577.515612 L 260.461899 573.314205 L 261.116061 560.444615 L 261.770223 553.108419 L 262.424385 549.773071 L 263.078546 538.964521 L 263.732708 563.674983 L 264.38687 500.680208 L 265.041032 542.554085 L 265.695193 550.186722 L 266.349355 585.152471 L 267.003517 590.556827 L 267.657679 594.457102 L 268.311841 597.66232 L 268.966002 596.37477 L 269.620164 599.920953 L 270.274326 602.312763 L 270.928488 597.850071 L 271.582649 597.75778 L 272.236811 595.039887 L 272.890973 604.56271 L 273.545135 601.0626 L 274.199297 598.169464 L 274.853458 589.357443 L 275.50762 548.239637 L 276.161782 574.79218 L 277.470106 559.978644 L 278.124267 578.352047 L 278.778429 548.806176 L 279.432591 576.920205 L 280.086753 594.803707 L 280.740914 590.014176 L 281.395076 593.780629 L 282.049238 594.567628 L 283.357562 603.962651 L 284.011723 603.511265 L 284.665885 596.057929 L 285.320047 601.132622 L 285.974209 602.913391 L 286.62837 596.861633 L 287.936694 602.957131 L 288.590856 600.090377 L 289.245018 596.522098 L 289.899179 600.291983 L 290.553341 603.009367 L 291.207503 584.287553 L 291.861665 555.326505 L 292.515826 575.679388 L 293.169988 585.922598 L 293.82415 589.762951 L 294.478312 579.795083 L 295.132474 592.109514 L 295.786635 597.747787 L 296.440797 596.48744 L 297.094959 600.892406 L 297.749121 600.658422 L 298.403283 599.968926 L 299.057444 604.12974 L 299.711606 604.489863 L 300.365768 601.25404 L 301.01993 602.216507 L 301.674091 598.452282 L 302.328253 602.00944 L 303.636577 597.126855 L 304.290739 594.723735 L 304.9449 597.840598 L 305.599062 595.509271 L 306.253224 574.724359 L 306.907386 567.02854 L 307.561547 586.877573 L 308.215709 580.004593 L 308.869871 555.174709 L 309.524033 496.816331 L 310.178195 547.678962 L 310.832356 558.125237 L 311.486518 563.620981 L 312.14068 558.05122 L 312.794842 571.418042 L 313.449004 588.973405 L 314.103165 588.8751 L 314.757327 587.584122 L 315.411489 581.216477 L 316.065651 594.446263 L 316.719812 603.013744 L 317.373974 593.431896 L 318.028136 601.634293 L 318.682298 600.287704 L 319.33646 600.617268 L 319.990621 594.827562 L 320.644783 586.655107 L 321.298945 591.657904 L 322.607268 565.957358 L 323.26143 542.640544 L 323.915592 549.697862 L 324.569754 518.841805 L 325.223916 574.253386 L 325.878077 543.273377 L 326.532239 573.46901 L 327.186401 551.935338 L 327.840563 585.033845 L 328.494725 543.100459 L 329.148886 578.915828 L 329.803048 589.010282 L 330.45721 585.479586 L 331.111372 599.065359 L 331.765533 583.680238 L 332.419695 592.015211 L 333.073857 589.24496 L 333.728019 597.167232 L 334.382181 600.633573 L 335.036342 597.334619 L 335.690504 597.930351 L 336.344666 599.045354 L 336.998828 599.631188 L 337.652989 576.797793 L 338.307151 593.678762 L 338.961313 569.38744 L 339.615475 537.917883 L 340.269637 545.702637 L 340.923798 559.294842 L 341.57796 570.00266 L 342.232122 578.746904 L 342.886284 514.399887 L 343.540445 571.99158 L 344.194607 575.173795 L 344.848769 573.742898 L 345.502931 598.023589 L 346.157093 595.719081 L 346.811254 591.479152 L 347.465416 577.849428 L 348.119578 593.986731 L 348.77374 588.347377 L 349.427902 596.647538 L 350.082063 599.356698 L 350.736225 599.007459 L 351.390387 601.237984 L 352.044549 599.244632 L 352.69871 591.202328 L 353.352872 592.672008 L 354.007034 572.632156 L 354.661196 561.607423 L 355.315358 576.703694 L 355.969519 543.436688 L 356.623681 549.093054 L 357.277843 535.66951 L 357.932005 541.784434 L 358.586166 319.980493 L 359.240328 580.499508 L 359.89449 586.571839 L 360.548652 577.433532 L 361.202814 580.956976 L 361.856975 586.667333 L 362.511137 588.227162 L 363.165299 583.619868 L 363.819461 600.191157 L 364.473623 596.575418 L 365.127784 598.462137 L 365.781946 593.139088 L 366.436108 599.770313 L 367.09027 599.41108 L 367.744431 599.590003 L 368.398593 587.905815 L 369.052755 569.651911 L 369.706917 568.875166 L 370.361079 554.171874 L 371.01524 552.49331 L 371.669402 522.802268 L 372.323564 546.651885 L 372.977726 538.695085 L 373.631887 550.938815 L 374.286049 546.989819 L 375.594373 592.486306 L 376.248535 587.843685 L 376.902696 589.863382 L 377.556858 589.863989 L 378.21102 600.458839 L 378.865182 591.729288 L 379.519343 581.030515 L 380.173505 585.673935 L 380.827667 587.742898 L 381.481829 599.620628 L 382.135991 591.431061 L 382.790152 597.331718 L 383.444314 596.797402 L 384.098476 593.533796 L 384.752638 577.158368 L 385.4068 542.655217 L 386.060961 574.908194 L 386.715123 570.689311 L 387.369285 568.387738 L 388.023447 546.294641 L 388.677608 557.277821 L 389.33177 587.28245 L 389.985932 589.856326 L 390.640094 587.656444 L 391.294256 592.320674 L 391.948417 589.342557 L 392.602579 594.231958 L 393.256741 593.618614 L 393.910903 600.582756 L 394.565064 601.827757 L 395.219226 601.290278 L 395.873388 601.758239 L 396.52755 600.536907 L 397.181712 596.235101 L 397.835873 573.493634 L 398.490035 594.756856 L 399.144197 600.07851 L 399.798359 590.12135 L 400.452521 592.836538 L 401.106682 588.127535 L 401.760844 566.314321 L 402.415006 522.848842 L 403.069168 506.127977 L 403.723329 551.382664 L 404.377491 562.146311 L 405.031653 567.481965 L 405.685815 565.964082 L 406.339977 587.15543 L 406.994138 595.269034 L 407.6483 595.087273 L 408.302462 595.403049 L 408.956624 601.262068 L 409.610785 595.344826 L 410.264947 598.077792 L 410.919109 598.095038 L 411.573271 597.620414 L 412.227433 601.399546 L 412.881594 602.24135 L 413.535756 600.17751 L 414.189918 600.78377 L 414.84408 597.627099 L 415.498242 587.538671 L 416.152403 589.021038 L 416.806565 587.192933 L 418.114889 568.057953 L 418.76905 500.021021 L 419.423212 459.906519 L 420.077374 535.148625 L 420.731536 538.781689 L 421.385698 403.072227 L 422.039859 192.480068 L 422.694021 549.719982 L 423.348183 545.784293 L 424.002345 569.690883 L 424.656506 587.012443 L 425.310668 591.421988 L 425.96483 592.857584 L 426.618992 597.586846 L 427.273154 596.872064 L 427.927315 600.321635 L 428.581477 596.421336 L 429.235639 566.449164 L 429.889801 589.223476 L 430.543962 588.076671 L 431.198124 582.188274 L 431.852286 580.818316 L 432.506448 539.888064 L 433.16061 545.413439 L 433.814771 408.54131 L 434.468933 555.582988 M 436.431419 528.432435 L 437.08558 559.79053 L 437.739742 556.81886 L 438.393904 457.269407 L 439.048066 578.954002 L 439.702227 586.305982 L 440.356389 585.662061 L 441.010551 579.42378 L 441.664713 581.838049 L 442.318875 590.669216 L 442.973036 591.848274 L 443.627198 579.627071 L 444.28136 600.225272 L 444.935522 601.862878 L 445.589683 596.595696 L 446.243845 587.528551 L 446.898007 600.047523 L 447.552169 601.745141 L 448.860492 590.424797 L 449.514654 571.535562 L 450.168816 566.712517 L 450.822978 570.906209 L 451.47714 540.717024 L 452.131301 540.914965 L 453.439625 576.819777 L 454.093787 572.213318 L 454.747948 568.443777 L 455.40211 586.357017 L 456.056272 587.304642 L 456.710434 599.027585 L 457.364596 595.617377 L 458.018757 598.524211 L 458.672919 596.763973 L 459.981243 597.984343 L 460.635404 602.72126 L 461.289566 598.790473 L 461.943728 592.339439 L 462.59789 597.777766 L 463.252052 599.489443 L 463.906213 595.391797 L 464.560375 582.44589 L 465.214537 590.828693 L 465.868699 586.574966 L 466.52286 578.814363 L 467.177022 562.415282 L 467.831184 534.291239 L 468.485346 451.267706 L 469.139508 566.017494 L 469.793669 560.503214 L 470.447831 574.94562 L 471.756155 588.727721 L 472.410317 592.762839 L 473.064478 598.981189 L 473.71864 597.375447 L 474.372802 596.980966 L 475.026964 593.971593 L 475.681125 597.732798 L 476.335287 594.745143 L 476.989449 598.112774 L 477.643611 592.911751 L 478.297773 597.351866 L 479.606096 589.346358 L 480.260258 584.250726 L 480.91442 571.212418 L 481.568581 582.115605 L 482.222743 556.463637 L 482.876905 551.521687 L 483.531067 550.50829 L 484.185229 541.318741 L 484.83939 533.719648 L 485.493552 539.214712 L 486.147714 490.743181 L 486.801876 560.064778 L 487.456038 597.886646 L 488.110199 596.209122 L 488.764361 600.10619 L 489.418523 600.670519 L 490.072685 602.081429 L 490.726846 603.906545 L 491.381008 602.893895 L 492.03517 593.720365 L 492.689332 603.697427 L 493.343494 600.087277 L 493.997655 597.687121 L 494.651817 592.366142 L 495.305979 600.612759 L 495.960141 598.910907 L 496.614302 592.848842 L 497.268464 576.424061 L 497.922626 566.726257 L 498.576788 571.365523 L 499.23095 545.6 L 499.885111 574.551499 L 500.539273 571.028925 L 501.193435 584.842573 L 501.847597 594.897268 L 502.501758 583.510547 L 503.15592 599.403387 L 503.810082 603.487886 L 504.464244 603.345655 L 505.118406 602.746502 L 505.772567 603.591231 L 506.426729 598.622624 L 507.080891 603.186634 L 507.735053 600.562124 L 508.389215 590.264247 L 509.043376 593.103105 L 509.697538 597.896569 L 510.3517 597.671449 L 511.005862 590.690979 L 511.660023 596.97077 L 512.314185 599.257788 L 512.968347 596.666062 L 513.622509 594.933878 L 514.276671 570.982762 L 514.930832 556.319804 L 515.584994 574.007414 L 516.239156 586.667333 L 516.893318 575.566331 L 517.547479 589.806253 L 518.201641 595.193519 L 518.855803 597.442679 L 519.509965 605.087677 L 520.164127 599.194251 L 520.818288 599.010044 L 521.47245 593.216917 L 522.126612 596.149432 L 522.780774 597.383236 L 523.434936 602.953558 L 524.089097 602.281493 L 524.743259 599.032224 L 525.397421 588.938307 L 526.051583 596.948097 L 526.705744 601.021136 L 527.359906 576.88573 L 528.014068 568.214601 L 528.66823 551.333664 L 529.976553 538.50672 L 530.630715 520.765427 L 531.284877 547.261302 L 531.939039 550.017501 L 532.5932 556.036078 L 533.247362 581.896569 L 533.901524 575.361837 L 534.555686 587.131613 L 535.209848 589.37977 L 535.864009 590.669216 L 536.518171 596.216098 L 537.172333 598.576958 L 537.826495 594.837813 L 538.480657 594.827133 L 539.134818 590.214233 L 539.78898 579.375447 L 540.443142 551.822524 L 541.097304 548.457953 L 541.751465 564.052651 L 542.405627 563.844259 L 543.059789 540.452649 L 543.713951 539.730281 L 544.368113 516.60051 L 545.022274 549.765013 L 545.676436 519.801418 L 546.330598 426.845199 L 546.98476 556.059314 L 547.638921 513.005985 L 548.293083 501.192572 L 548.947245 509.991834 L 550.255569 579.6943 L 550.90973 576.046378 L 551.563892 588.943508 L 552.218054 557.494244 L 552.872216 579.674324 L 553.526377 576.671555 L 554.180539 593.980572 L 554.834701 590.331169 L 555.488863 591.005117 L 556.143025 592.515535 L 556.797186 553.95249 L 557.451348 570.133816 L 558.10551 567.248383 L 558.759672 565.162963 L 559.413834 538.066503 L 560.067995 519.171569 L 560.722157 545.580153 L 561.376319 545.322143 L 562.030481 559.978644 L 562.684642 538.642703 L 563.338804 529.490937 L 563.992966 555.217031 L 565.30129 578.870461 L 565.955451 538.846643 L 566.609613 576.515261 L 567.263775 582.10595 L 567.917937 569.26219 L 568.572098 584.532993 L 569.22626 595.862263 L 569.880422 597.347139 L 570.534584 593.020907 L 571.188746 598.058082 L 571.842907 594.373745 L 572.497069 586.214594 L 573.151231 591.27305 L 573.805393 583.133655 L 574.459555 568.364389 L 575.113716 567.891059 L 575.767878 528.102672 L 576.42204 512.216659 L 577.076202 577.364054 L 577.730363 578.134023 L 578.384525 576.42595 L 579.038687 543.824553 L 579.692849 571.69725 L 580.347011 565.342898 L 581.001172 569.171746 L 581.655334 587.975798 L 582.309496 566.40034 L 582.963658 587.512674 L 583.617819 580.659541 L 584.271981 584.269691 L 584.926143 593.617168 L 585.580305 598.814227 L 586.234467 598.389523 L 586.888628 595.137057 L 587.54279 582.554919 L 588.851114 590.974915 L 589.505275 582.514432 L 590.159437 581.187115 L 591.467761 543.967451 L 592.121923 536.199614 L 592.776084 561.132734 L 593.430246 533.729503 L 594.084408 560.786327 L 594.73857 573.68761 L 595.392732 534.624667 L 596.046893 562.195805 L 596.701055 567.168905 L 597.355217 587.166616 L 598.009379 596.969986 L 598.66354 591.6 L 599.317702 599.139113 L 599.971864 601.509813 L 600.626026 600.570381 L 601.280188 599.26884 L 601.934349 603.26386 L 602.588511 603.275078 L 603.242673 599.240524 L 603.896835 593.618614 L 604.550996 600.587034 L 605.85932 583.592736 L 606.513482 564.26799 L 607.167644 558.101559 L 607.821805 592.310306 L 608.475967 594.044253 L 609.130129 562.52595 L 609.784291 572.311868 L 610.438453 563.579176 L 611.092614 571.032111 L 612.400938 600.182549 L 613.0551 598.173338 L 613.709261 602.617045 L 614.363423 591.961791 L 615.017585 599.981461 L 615.671747 603.983071 L 616.325909 605.847236 L 616.98007 602.205226 L 617.634232 602.989107 L 618.288394 600.303065 L 618.942556 594.007923 L 619.596717 603.112294 L 620.250879 600.732829 L 620.905041 601.941113 L 622.213365 577.259462 L 622.867526 584.371636 L 623.521688 585.873761 L 624.17585 584.406489 L 624.830012 581.125943 L 626.138335 590.416058 L 626.792497 603.151553 L 627.446659 599.779819 L 628.100821 595.112195 L 628.754982 599.566704 L 629.409144 599.051531 L 630.063306 597.403353 L 630.717468 602.619526 L 631.37163 601.927646 L 632.025791 606.747737 L 632.679953 604.177757 L 633.334115 598.605035 L 633.988277 598.790724 L 634.642438 600.616639 L 635.2966 597.459093 L 635.950762 598.243282 L 636.604924 600.216982 L 637.259086 591.854952 L 637.913247 592.547247 L 638.567409 568.66793 L 639.221571 552.468552 L 639.875733 562.463821 L 640.529894 504.854324 L 641.838218 567.321009 L 642.49238 561.904656 L 643.146542 583.772797 L 643.800703 581.657046 L 644.454865 586.330906 L 645.109027 578.809033 L 645.763189 598.000766 L 646.417351 598.859209 L 647.071512 597.939058 L 647.725674 599.394315 L 648.379836 601.732433 L 649.033998 601.889011 L 649.688159 601.579633 L 650.342321 589.782667 L 650.996483 594.189369 L 651.650645 595.898128 L 652.304807 597.13639 L 652.958968 589.657448 L 654.267292 559.823321 L 654.921454 570.574251 L 655.575615 566.957641 L 656.229777 574.42908 L 656.883939 572.241846 L 657.538101 576.783377 L 658.192263 588.025465 L 658.846424 590.442869 L 659.500586 589.957017 L 660.154748 595.903753 L 660.80891 599.203647 L 661.463072 595.11205 L 662.117233 592.632451 L 662.771395 597.676987 L 663.425557 600.815909 L 664.079719 599.537581 L 664.73388 596.276093 L 666.042204 598.682453 L 666.696366 592.556145 L 667.350528 596.275841 L 668.004689 596.1934 L 668.658851 564.91508 L 669.313013 581.725428 L 669.967175 586.404533 L 670.621336 550.031964 L 671.275498 572.816937 L 671.92966 518.017395 L 672.583822 547.0389 L 673.237984 512.129113 L 673.892145 524.031188 L 674.546307 579.772039 L 675.200469 595.68997 L 675.854631 596.555934 L 676.508792 589.455563 L 677.162954 593.312981 L 677.817116 601.109029 L 678.471278 591.884487 L 679.12544 597.606045 L 679.779601 600.262034 L 680.433763 599.797461 L 681.087925 597.15792 L 681.742087 596.913786 L 682.396249 590.18154 L 683.05041 594.201378 L 683.704572 589.795693 L 684.358734 581.304565 L 685.667057 591.231095 L 686.975381 550.398369 L 687.629543 562.220815 L 688.283705 568.842241 L 688.937866 566.300312 L 689.592028 541.270176 L 690.24619 538.804039 L 690.900352 573.038675 L 691.554513 584.012563 L 692.208675 587.623816 L 692.862837 587.044828 L 693.516999 591.1603 L 694.171161 601.44994 L 694.825322 597.416274 L 695.479484 599.968926 L 696.133646 597.929967 L 696.787808 598.346075 L 697.44197 598.370213 L 698.096131 599.599929 L 698.750293 599.602653 L 699.404455 602.640283 L 700.058617 600.55347 L 700.712778 594.141337 L 701.36694 545.699234 L 702.021102 523.404555 L 702.675264 546.126526 L 703.329426 545.85334 L 703.983587 585.557471 L 704.637749 582.782479 L 705.291911 577.634693 L 705.946073 586.883995 L 706.600234 581.823303 L 707.254396 594.827562 L 707.908558 597.586846 L 708.56272 604.139352 L 709.216882 596.395422 L 709.871043 603.850274 L 710.525205 601.020357 L 711.179367 599.71706 L 711.833529 600.582988 L 712.487691 603.036915 L 713.141852 602.267874 L 713.796014 597.147565 L 714.450176 597.900402 L 715.104338 589.494856 L 715.758499 587.171307 L 716.412661 599.603655 L 717.066823 588.677141 L 717.720985 592.339439 L 718.375147 589.148893 L 719.029308 576.54131 L 719.68347 588.088362 L 720.337632 593.606188 L 720.991794 584.345496 L 721.645955 595.732796 L 722.300117 598.060306 L 722.954279 595.772952 L 723.608441 602.189318 L 724.262603 603.265493 L 724.916764 601.483923 L 725.570926 597.712636 L 726.225088 600.43839 L 727.533411 606.749246 L 728.187573 604.87367 L 728.841735 602.226148 L 729.495897 598.687311 L 730.150059 599.365742 L 730.80422 596.698054 L 731.458382 593.122074 L 732.112544 597.038952 L 732.766706 587.855378 L 733.420868 583.933176 L 734.075029 574.838446 L 734.729191 560.266856 L 735.383353 584.197801 L 736.037515 585.256302 L 736.691676 590.794078 L 737.345838 601.730292 L 738 603.916976 L 738.654162 604.861662 L 739.308324 604.652691 L 739.962485 603.739495 L 740.616647 603.179991 L 741.270809 600.310802 L 741.924971 600.80884 L 742.579132 603.474017 L 743.233294 603.167905 L 743.887456 595.940581 L 744.541618 596.763973 L 745.19578 600.155727 L 745.849941 597.07508 L 746.504103 598.210835 L 747.812427 580.864127 L 748.466589 582.028454 L 749.12075 571.847339 L 749.774912 488.698951 L 750.429074 512.291497 L 751.083236 566.510455 L 751.737397 585.370343 L 752.391559 567.958464 L 753.045721 573.675284 L 753.699883 565.291623 L 754.354045 589.117839 L 755.008206 593.914977 L 755.662368 582.133371 L 756.31653 584.850866 L 756.970692 586.96163 L 758.279015 601.644181 L 758.933177 598.797538 L 759.587339 599.841565 L 760.241501 602.406031 L 760.895662 598.740917 L 761.549824 599.544236 L 762.203986 600.544712 L 762.858148 599.322492 L 763.512309 574.597595 L 764.166471 572.402041 L 764.820633 559.34596 L 765.474795 525.242756 L 766.128957 549.227804 L 766.783118 559.123675 L 767.43728 583.944202 L 768.091442 536.744315 L 768.745604 582.477605 L 769.399766 592.908619 L 770.053927 591.396711 L 770.708089 592.398618 L 771.362251 597.09579 L 772.016413 586.447218 L 773.324736 604.369138 L 773.978898 604.378148 L 775.287222 600.301291 L 775.941383 595.399989 L 776.595545 597.787411 L 777.249707 599.106846 L 777.903869 599.079188 L 778.55803 597.616179 L 779.212192 588.503226 L 779.866354 573.159399 L 780.520516 585.651035 L 781.174678 577.688821 L 781.828839 580.879734 L 782.483001 570.366399 L 783.137163 580.279429 L 783.791325 584.144876 L 784.445487 594.897411 L 785.099648 585.313122 L 785.75381 585.037766 L 786.407972 594.564982 L 787.062134 597.406067 L 787.716295 596.755373 L 788.370457 599.521768 L 789.024619 603.606805 L 789.678781 599.757767 L 790.332943 603.464105 L 790.987104 603.347723 L 791.641266 595.428568 L 792.295428 595.858746 L 792.94959 599.171471 L 793.603751 599.268182 L 794.257913 581.731273 L 794.912075 582.019053 L 795.566237 586.10659 L 796.220399 593.187632 L 796.87456 593.356021 L 797.528722 591.590499 L 798.182884 589.044854 L 798.837046 598.604707 L 799.491208 593.989758 L 800.145369 588.249698 L 801.453693 598.313354 L 802.107855 595.668636 L 802.762016 594.903461 L 803.416178 602.122496 L 804.07034 597.541561 L 804.724502 603.56775 L 805.378664 596.31981 L 806.032825 594.232527 L 806.686987 596.832776 L 807.341149 602.728386 L 807.995311 597.752996 L 808.649472 602.443051 L 809.303634 601.763135 L 809.957796 593.242209 L 810.611958 581.470952 L 811.26612 593.212702 L 811.920281 586.655107 L 812.574443 574.686764 L 813.228605 585.635061 L 813.882767 586.625401 L 814.536928 588.314488 L 815.19109 585.152471 L 815.845252 593.750095 L 816.499414 593.506781 L 817.153576 588.395668 L 817.807737 597.581337 L 818.461899 594.897556 L 819.770223 598.457176 L 820.424385 597.427147 L 821.078546 603.273344 L 821.732708 602.482729 L 822.38687 597.018091 L 823.041032 601.839343 L 823.695193 596.516766 L 824.349355 602.964276 L 825.003517 600.557697 L 825.657679 593.621583 L 826.311841 578.0947 L 826.966002 580.937114 L 828.274326 557.386221 L 828.928488 536.815764 L 829.582649 584.78116 L 830.236811 594.540459 L 830.890973 580.927474 L 831.545135 574.03084 L 832.199297 591.71667 L 832.853458 593.432062 L 833.50762 599.348806 L 834.161782 601.266082 L 834.815944 598.32591 L 835.470106 598.377336 L 836.124267 603.634838 L 836.778429 603.806005 L 838.086753 603.63733 L 838.740914 594.669009 L 839.395076 592.903734 L 840.049238 600.411777 L 840.7034 591.513502 L 841.357562 593.154771 L 842.011723 593.253105 L 842.665885 581.443493 L 843.320047 579.182114 L 843.974209 558.389906 L 844.62837 585.787128 L 845.282532 591.424191 L 845.936694 584.32807 L 846.590856 596.036112 L 847.245018 601.354389 L 847.899179 601.960116 L 848.553341 597.300877 L 849.207503 595.257091 L 849.861665 599.78864 L 850.515826 600.971364 L 851.169988 598.966714 L 851.82415 601.511555 L 852.478312 606.049133 L 853.132474 603.518654 L 853.786635 600.416055 L 854.440797 598.264005 L 855.094959 600.167054 L 855.749121 599.63096 L 856.403283 597.049193 L 857.057444 592.450581 L 857.711606 597.321438 L 858.365768 583.457074 L 859.01993 583.200707 L 860.328253 546.988115 L 860.982415 536.85 L 861.636577 568.836045 L 862.290739 578.352047 L 862.9449 577.158368 L 863.599062 593.229563 L 864.253224 588.195919 L 864.907386 596.237914 L 865.561547 594.068473 L 866.215709 592.980976 L 866.869871 591.334619 L 867.524033 593.965538 L 868.178195 582.545518 L 868.832356 598.931742 L 869.486518 602.032284 L 870.14068 594.45355 L 870.794842 600.412659 L 871.449004 599.721498 L 872.103165 594.327464 L 872.757327 582.291687 L 873.411489 592.035628 L 874.065651 583.420549 L 874.719812 588.265063 L 875.373974 571.560424 L 876.028136 530.38537 L 876.682298 557.569614 L 877.33646 574.370515 L 877.990621 585.557471 L 878.644783 575.993536 L 879.298945 577.521291 L 879.953107 560.351421 L 881.26143 593.49398 L 881.915592 595.951574 L 882.569754 597.002445 L 883.223916 596.11345 L 883.878077 589.488033 L 884.532239 600.692413 L 885.186401 599.120375 L 885.840563 593.147365 L 886.494725 601.571144 L 887.148886 600.304818 L 887.803048 593.958527 L 888.45721 595.194216 L 889.111372 589.433691 L 890.419695 558.168755 L 891.073857 556.416558 L 891.728019 564.43643 L 892.382181 579.792749 L 893.036342 575.680851 L 893.690504 577.47231 L 894.344666 588.893182 L 894.998828 584.268368 L 895.652989 587.6 L 896.307151 587.222209 L 897.615475 585.768015 L 898.269637 593.92719 L 898.923798 590.957026 L 899.57796 597.930351 L 900.232122 598.622399 L 900.886284 605.023183 L 901.540445 602.430344 L 902.194607 604.004315 L 903.502931 586.601633 L 904.157093 592.205614 L 904.811254 550.543966 L 905.465416 570.284958 L 906.119578 527.847854 L 906.77374 510.04213 L 907.427902 465.512815 L 908.082063 561.187752 L 908.736225 546.609857 L 909.390387 573.40947 L 910.044549 554.572249 L 910.69871 550.967781 L 911.352872 573.881153 L 912.007034 580.439128 L 912.661196 589.679545 L 913.315358 589.871207 L 913.969519 583.23097 L 914.623681 590.782041 L 915.277843 596.41626 L 916.586166 591.3074 L 917.240328 592.30636 L 917.89449 586.555223 L 918.548652 592.205427 L 919.202814 593.29776 L 919.856975 594.926312 L 920.511137 577.149541 L 921.165299 571.264125 L 921.819461 528.752723 L 922.473623 588.309656 L 923.127784 576.076325 L 923.781946 574.019127 L 924.436108 573.106115 L 925.09027 571.002944 L 925.744431 576.450581 L 927.052755 597.722592 L 927.706917 599.530841 L 928.361079 594.692137 L 929.01524 579.664261 L 929.669402 582.771146 L 930.323564 583.979316 L 930.977726 598.14887 L 931.631887 602.488773 L 932.286049 598.62376 L 932.940211 599.258372 L 933.594373 597.298894 L 934.248535 590.915132 L 934.902696 590.72152 L 935.556858 590.686734 L 936.21102 587.475859 L 936.865182 580.076853 L 937.519343 583.382221 L 938.173505 575.928891 L 938.827667 573.235775 L 940.135991 580.824977 L 940.790152 576.593408 L 941.444314 589.929458 L 942.098476 588.289827 L 942.752638 598.598096 L 943.4068 596.695171 L 944.060961 591.795176 L 944.715123 587.936879 L 945.369285 593.200167 L 946.023447 595.28245 L 946.677608 601.749024 L 947.33177 598.144656 L 947.985932 599.435273 L 948.640094 597.388151 L 949.294256 596.31423 L 949.948417 597.672841 L 950.602579 597.966033 L 951.256741 596.666062 L 951.910903 584.644797 L 952.565064 585.378849 L 953.219226 571.847339 L 953.873388 574.43357 L 955.181712 592.774653 L 955.835873 586.56057 L 956.490035 582.882006 L 957.144197 583.219027 L 957.798359 596.844684 L 958.452521 600.793987 L 959.106682 599.447139 L 959.760844 600.660701 L 960.415006 598.290788 L 961.069168 597.606045 L 961.723329 598.845014 L 962.377491 591.189475 L 963.685815 599.956702 L 964.339977 598.369655 L 964.994138 591.381545 L 965.6483 578.871163 L 966.956624 582.839749 L 967.610785 583.520383 L 968.264947 589.972245 L 968.919109 568.875166 L 969.573271 575.690729 L 970.227433 570.418362 L 970.881594 537.098486 L 972.189918 559.269098 L 972.84408 545.803431 L 973.498242 565.479411 L 974.152403 589.104395 L 974.806565 579.855174 L 975.460727 586.339214 L 976.114889 586.39632 L 976.76905 590.908935 L 977.423212 587.42643 L 978.077374 577.764116 L 978.731536 594.472406 L 979.385698 581.80947 L 980.039859 588.172871 L 980.694021 599.280543 L 981.348183 600.102101 L 982.002345 600.123832 L 982.656506 594.005209 L 983.96483 559.561389 L 984.618992 559.969614 L 985.273154 585.706165 L 985.927315 514.321293 L 986.581477 111.6 L 987.235639 536.815764 L 987.889801 564.379132 L 988.543962 567.594479 L 989.198124 585.000498 L 989.852286 567.971945 L 990.506448 583.066969 L 991.16061 589.543052 L 991.814771 599.248686 L 992.468933 582.953384 L 993.123095 560.926118 L 993.777257 596.876205 L 994.431419 594.559553 L 995.08558 595.074702 L 995.739742 593.575409 L 996.393904 589.623249 L 997.048066 565.417709 L 997.702227 581.748706 L 998.356389 575.225558 L 999.010551 573.149544 L 999.664713 555.118571 L 1000.318875 532.743181 L 1000.973036 537.988716 L 1001.627198 544.487406 L 1002.28136 557.285152 L 1002.935522 533.680228 L 1003.589683 483.671849 L 1004.243845 569.184727 L 1004.898007 540.355458 L 1005.552169 536.172725 L 1006.206331 580.818316 L 1006.860492 586.85622 L 1007.514654 590.915132 L 1008.168816 585.344826 L 1008.822978 585.081145 L 1009.47714 576.201077 L 1010.131301 578.036832 L 1010.785463 593.049749 L 1011.439625 592.015211 L 1012.093787 586.906802 L 1012.747948 591.009119 L 1013.40211 581.542728 L 1014.056272 559.836686 L 1014.710434 565.542079 L 1015.364596 567.136415 L 1016.018757 544.886079 L 1016.672919 544.4778 L 1017.327081 538.814843 L 1017.981243 569.058236 L 1018.635404 581.661809 L 1019.289566 555.164751 L 1019.943728 567.358304 L 1020.59789 566.198242 L 1021.252052 574.675051 L 1021.906213 554.519969 L 1022.560375 550.374745 L 1023.214537 586.403012 L 1023.868699 589.311253 L 1024.52286 598.957187 L 1025.177022 597.406067 L 1025.831184 596.567133 L 1026.485346 597.966033 L 1027.139508 597.581814 L 1027.793669 598.589502 L 1028.447831 585.973662 L 1029.101993 581.362496 L 1029.756155 586.897283 L 1030.410317 583.610824 L 1031.064478 588.515147 L 1032.372802 563.675344 L 1033.026964 556.093337 L 1033.681125 565.020187 L 1034.335287 558.872957 L 1034.989449 586.987994 L 1035.643611 589.42174 L 1036.297773 587.936879 L 1036.951934 576.54131 L 1037.606096 585.086124 L 1038.260258 590.814889 L 1038.91442 582.742942 L 1039.568581 585.247163 L 1040.222743 554.545279 L 1040.876905 582.297425 L 1041.531067 591.163128 L 1042.185229 602.984484 L 1042.83939 597.173452 L 1043.493552 596.620399 L 1044.147714 601.693425 L 1044.801876 586.36347 L 1045.456038 593.350586 L 1046.110199 591.443493 L 1046.764361 588.10398 L 1047.418523 576.642822 L 1048.072685 582.254082 L 1048.726846 580.298243 L 1049.381008 556.762725 L 1050.03517 587.877857 L 1050.689332 559.695265 L 1051.343494 582.84489 L 1051.997655 595.49793 L 1052.651817 593.470003 L 1053.305979 596.548758 L 1053.960141 586.679465 L 1054.614302 583.49383 L 1055.268464 598.856532 L 1055.922626 600.032817 L 1056.576788 598.925515 L 1057.23095 599.037702 L 1057.885111 597.807744 L 1058.539273 591.634596 L 1059.193435 582.263483 L 1059.847597 595.441225 L 1060.501758 595.824991 L 1061.15592 593.450865 L 1061.810082 580.043703 L 1062.464244 538.651782 L 1063.772567 584.251829 L 1064.426729 579.906209 L 1065.080891 584.833964 L 1065.735053 560.012815 L 1066.389215 578.593712 L 1067.043376 584.78116 L 1067.697538 589.210031 L 1068.3517 592.31686 L 1069.005862 593.777312 L 1069.660023 595.995542 L 1070.314185 600.617012 L 1070.968347 601.82451 L 1072.930832 592.723386 L 1073.584994 600.051168 L 1074.239156 595.529908 L 1074.893318 587.418311 L 1075.547479 595.520612 L 1076.201641 595.204609 L 1076.855803 593.418388 L 1077.509965 572.803366 L 1078.164127 544.821009 L 1078.818288 548.419304 L 1079.47245 555.670121 L 1080.126612 536.626722 L 1080.780774 583.006175 L 1081.434936 482.592375 L 1082.089097 565.809977 L 1082.743259 590.766121 L 1083.397421 579.191721 L 1084.051583 584.606895 L 1084.705744 579.502812 L 1085.359906 587.020471 L 1086.014068 591.902807 L 1086.66823 598.418489 L 1087.322392 587.06061 L 1087.976553 589.325984 L 1088.630715 594.891554 L 1089.284877 592.710395 L 1089.939039 594.821753 L 1090.5932 576.811949 L 1091.247362 583.85886 L 1091.901524 586.048434 L 1092.555686 580.018486 L 1093.209848 576.887728 L 1093.864009 464.842983 L 1094.518171 551.314379 L 1095.172333 475.401531 L 1095.826495 514.701836 L 1096.480657 528.024157 L 1097.134818 531.068651 L 1097.78898 568.734864 L 1098.443142 571.008279 L 1099.097304 529.199849 L 1099.751465 582.24639 L 1100.405627 577.468313 L 1101.059789 588.723081 L 1101.713951 587.72702 L 1102.368113 597.863584 L 1103.022274 591.410451 L 1103.676436 580.499508 L 1104.330598 584.198242 L 1104.98476 593.768415 L 1105.638921 598.225617 L 1106.293083 592.755515 L 1106.947245 596.598911 L 1107.601407 591.876344 L 1108.255569 611.706441 L 1108.90973 552.275929 L 1109.563892 476.899972 L 1110.218054 321.320159 L 1110.872216 540.037457 L 1111.526377 514.371307 L 1112.180539 577.160533 L 1112.834701 570.041632 L 1113.488863 575.441225 L 1114.143025 570.344826 L 1114.797186 589.914509 L 1115.451348 590.13102 L 1116.10551 589.397084 L 1116.759672 581.580834 L 1117.413834 594.8198 L 1118.067995 597.579586 L 1118.722157 594.681706 L 1119.376319 596.565161 L 1120.684642 580.28245 L 1121.338804 592.852239 L 1121.992966 591.714725 L 1122.647128 551.653303 L 1123.30129 577.66717 L 1123.955451 572.670156 L 1124.609613 546.254948 L 1125.263775 429.503295 L 1125.917937 558.972653 L 1126.572098 416.907318 L 1127.22626 488.742614 L 1127.880422 536.783017 L 1128.534584 514.97624 L 1129.188746 513.121973 L 1129.842907 565.294196 L 1130.497069 559.647633 L 1131.151231 557.709441 L 1131.805393 579.554586 L 1132.459555 580.717314 L 1133.113716 586.532938 L 1134.42204 582.119685 L 1135.076202 581.225177 L 1135.730363 591.533773 L 1137.038687 588.71548 L 1137.692849 590.394836 L 1138.347011 583.608789 L 1139.001172 570.862044 L 1139.655334 578.215454 L 1140.309496 578.601935 L 1140.963658 580.848086 L 1141.617819 536.07746 L 1142.926143 489.060373 L 1143.580305 524.224894 L 1144.234467 500.372534 L 1144.888628 586.980331 L 1145.54279 594.670083 L 1146.196952 576.314311 L 1146.851114 591.016055 L 1147.505275 583.240014 L 1148.159437 579.449028 L 1148.813599 589.565835 L 1150.121923 579.47306 L 1150.776084 596.612742 L 1151.430246 590.500028 L 1152.084408 585.983591 L 1152.73857 583.769549 L 1153.392732 591.949116 L 1154.046893 573.965923 L 1155.355217 584.904138 L 1156.009379 580.457386 L 1157.317702 575.815481 L 1157.971864 562.177119 L 1158.626026 565.265033 L 1159.280188 583.637957 L 1159.934349 590.080501 L 1160.588511 576.452959 L 1161.242673 590.706098 L 1161.896835 585.112264 L 1162.550996 589.791819 L 1163.205158 580.28818 L 1163.85932 599.451632 L 1164.513482 599.485819 L 1165.167644 601.338492 L 1165.821805 595.459308 L 1166.475967 600.54111 L 1167.130129 597.390757 L 1167.784291 588.983433 L 1168.438453 585.821151 L 1169.092614 585.419328 L 1169.746776 594.365911 L 1170.400938 576.049619 L 1171.0551 584.34114 L 1171.709261 589.186498 L 1172.363423 549.828462 L 1173.017585 533.212115 L 1173.671747 576.035214 L 1174.325909 518.512041 L 1174.98007 561.013099 L 1175.634232 569.603135 L 1176.288394 583.429227 L 1176.942556 593.154771 L 1177.596717 583.156196 L 1178.250879 589.916428 L 1178.905041 589.133852 L 1179.559203 598.759177 L 1180.213365 594.121862 L 1180.867526 581.647519 L 1181.521688 586.955517 L 1182.17585 598.331524 L 1182.830012 597.959532 L 1183.484174 592.838446 L 1184.138335 591.902807 L 1184.792497 595.806443 L 1185.446659 593.749086 L 1186.100821 593.750095 L 1186.754982 582.299055 L 1187.409144 584.859364 L 1188.063306 582.609697 L 1188.717468 564.141645 L 1189.37163 551.101199 L 1190.025791 554.116407 L 1190.679953 577.274405 L 1191.334115 576.446045 L 1191.988277 576.110349 L 1193.2966 589.080325 L 1193.950762 582.895492 L 1194.604924 595.503601 L 1195.259086 589.074624 L 1195.913247 565.981072 L 1196.567409 557.128277 L 1197.221571 587.422884 L 1197.875733 556.297477 L 1198.529894 584.83 L 1199.184056 589.532228 L 1199.838218 584.296484 L 1200.49238 589.216033 L 1201.146542 577.66717 L 1201.800703 587.898049 L 1202.454865 563.874029 L 1203.109027 566.786164 L 1203.763189 500.379371 L 1204.417351 505.533088 L 1205.071512 456.793082 L 1206.379836 544.103544 L 1207.033998 558.690181 L 1207.688159 566.089213 L 1208.342321 568.347595 L 1208.996483 529.738224 L 1209.650645 527.845534 L 1210.304807 556.978733 L 1210.958968 578.488031 L 1211.61313 577.380376 L 1212.267292 591.161728 L 1212.921454 586.39737 L 1213.575615 586.716608 L 1214.229777 595.537624 L 1214.883939 594.576184 L 1215.538101 597.576783 L 1216.192263 594.076832 L 1216.846424 593.848493 L 1217.500586 565.400057 L 1218.154748 583.271727 L 1218.80891 578.110382 L 1219.463072 540.59975 L 1220.117233 567.230808 L 1220.771395 509.855741 L 1221.425557 521.949116 L 1222.079719 467.784993 L 1222.73388 528.604898 L 1223.388042 550.329398 L 1224.042204 504.735242 L 1224.696366 579.699555 L 1225.350528 577.240181 L 1226.004689 558.058773 L 1226.658851 562.695394 L 1227.313013 570.293791 L 1227.967175 588.37262 L 1228.621336 575.465856 L 1229.275498 590.718998 L 1229.92966 594.997938 L 1230.583822 598.22717 L 1231.237984 591.712735 L 1231.892145 594.885698 L 1232.546307 598.72199 L 1233.200469 597.519901 L 1233.854631 594.885845 L 1234.508792 580.569663 L 1235.162954 581.980947 L 1235.817116 580.517592 L 1236.471278 558.883244 L 1237.12544 559.271742 L 1237.779601 511.135866 L 1238.433763 486.916909 L 1239.087925 563.996452 L 1239.742087 571.79059 L 1240.396249 568.174158 L 1241.05041 551.878931 L 1241.704572 532.290672 L 1242.358734 517.057783 L 1243.012896 577.910746 L 1244.321219 593.357671 L 1244.975381 583.692222 L 1245.629543 566.846685 L 1246.283705 584.241905 L 1246.937866 574.417367 L 1247.592028 586.979875 L 1248.24619 584.768476 L 1248.900352 578.073372 L 1249.554513 566.496446 L 1250.208675 562.469439 L 1250.862837 527.668672 L 1251.516999 539.908903 L 1252.171161 497.923788 L 1252.825322 511.076325 L 1253.479484 559.949305 L 1254.133646 573.635724 L 1254.787808 594.73099 L 1255.44197 569.42289 L 1256.096131 579.003492 L 1256.750293 528.049674 L 1257.404455 577.817436 L 1258.058617 588.780368 L 1258.712778 591.88296 L 1259.36694 589.784602 L 1260.021102 591.811745 L 1260.675264 584.606895 L 1261.329426 588.682596 L 1261.983587 590.260927 L 1262.637749 593.589969 L 1263.291911 583.303323 L 1263.946073 597.817737 L 1264.600234 594.287488 L 1265.254396 585.259768 L 1265.908558 568.681939 L 1266.56272 564.662943 L 1267.216882 557.045988 L 1267.871043 524.115736 L 1268.525205 562.122109 L 1269.179367 551.95414 L 1269.833529 584.197801 L 1270.487691 579.604949 L 1271.141852 579.334619 L 1271.796014 577.796108 L 1272.450176 595.669235 L 1273.104338 591.029929 L 1273.758499 585.031955 L 1274.412661 594.519544 L 1275.066823 599.226695 L 1275.720985 598.902317 L 1276.375147 600.423581 L 1277.029308 603.13148 L 1277.68347 595.582617 L 1278.337632 595.388557 L 1278.991794 588.449447 L 1279.645955 592.068631 L 1280.300117 589.569058 L 1280.954279 582.723754 L 1281.608441 581.542728 L 1282.916764 556.224196 L 1283.570926 571.890869 L 1284.225088 485.086816 L 1284.87925 564.07746 L 1285.533411 558.083697 L 1286.187573 587.68785 L 1286.841735 592.985172 L 1287.495897 591.265779 L 1288.150059 596.844684 L 1288.80422 591.368064 L 1289.458382 597.767773 L 1290.112544 597.793142 L 1291.420868 580.322143 L 1292.075029 586.500843 L 1292.729191 597.586552 L 1293.383353 600.691289 L 1294.037515 599.013666 L 1294.691676 594.692434 L 1295.345838 583.160378 L 1296 594.201077 L 1296.654162 591.11317 L 1297.308324 572.909328 L 1298.616647 463.905217 L 1299.270809 438.611058 L 1299.924971 527.947604 L 1300.579132 562.058988 L 1301.887456 543.518344 L 1302.541618 584.894648 L 1303.19578 544.436972 L 1303.849941 560.066402 L 1304.504103 582.316756 L 1305.158265 576.347116 L 1305.812427 584.78116 L 1306.466589 575.116175 L 1307.774912 597.877694 L 1308.429074 597.891608 L 1309.083236 595.248426 L 1309.737397 588.855577 L 1310.391559 588.37262 L 1311.045721 597.00766 L 1311.699883 598.418716 L 1312.354045 590.592912 L 1313.662368 549.748001 L 1314.31653 552.615114 L 1314.970692 523.113468 L 1315.624853 389.561904 L 1316.279015 508.533938 L 1316.933177 553.12808 L 1317.587339 563.721941 L 1318.241501 557.499116 L 1318.895662 585.016418 L 1319.549824 557.85636 L 1320.203986 566.496446 L 1320.858148 595.245659 L 1321.512309 587.269337 L 1322.166471 588.353112 L 1322.820633 592.310306 L 1323.474795 589.005996 L 1324.128957 594.318458 L 1324.783118 602.402329 L 1326.091442 592.844826 L 1326.745604 578.404583 L 1327.399766 595.929589 L 1328.053927 585.274949 L 1328.708089 544.806124 L 1329.362251 530.5759 L 1330.016413 535.921331 L 1330.670574 557.482023 L 1331.978898 571.000892 L 1332.63306 565.614986 L 1333.287222 572.367407 L 1333.941383 546.032662 L 1334.595545 537.854749 L 1335.249707 571.402009 L 1335.903869 582.959169 L 1336.55803 582.714739 L 1337.212192 561.363848 L 1337.866354 581.545946 L 1339.174678 579.844524 L 1339.828839 595.869998 L 1340.483001 589.900075 L 1341.137163 592.372517 L 1341.791325 595.279955 L 1342.445487 596.028518 L 1343.099648 589.171301 L 1343.75381 579.644134 L 1344.407972 554.755686 L 1345.062134 571.658974 L 1345.716295 557.709441 L 1346.370457 554.392175 L 1347.678781 571.666575 L 1348.332943 495.423079 L 1348.987104 536.365719 L 1349.641266 524.463056 L 1350.295428 560.05312 L 1350.94959 564.737369 L 1351.603751 568.311464 L 1352.257913 582.900564 L 1352.912075 574.040601 L 1353.566237 576.757821 L 1354.220399 592.60647 L 1354.87456 592.398979 L 1355.528722 600.562124 L 1356.182884 596.89722 L 1357.491208 584.859789 L 1358.145369 583.994922 L 1358.799531 584.998992 L 1359.453693 564.454551 L 1360.107855 514.106946 L 1360.762016 571.964255 L 1361.416178 553.896002 L 1362.07034 304.886929 L 1362.724502 303.904508 L 1363.378664 309.084548 L 1364.032825 549.015193 L 1364.686987 519.889641 L 1365.995311 573.995702 L 1366.649472 582.25103 L 1367.303634 570.506356 L 1367.957796 591.374805 L 1368.611958 592.87155 L 1369.26612 587.6 L 1369.920281 589.591075 L 1370.574443 588.833014 L 1371.228605 588.457048 L 1371.882767 593.612401 L 1372.536928 583.448029 L 1373.19109 593.955934 L 1373.845252 583.373797 L 1374.499414 588.969781 L 1375.153576 572.755776 L 1375.807737 570.392381 L 1377.116061 588.638335 L 1377.770223 572.778339 L 1378.424385 577.998724 L 1379.078546 504.562033 L 1379.732708 561.547412 L 1380.38687 582.889263 L 1381.041032 591.451672 L 1381.695193 592.297196 L 1382.349355 589.569058 L 1383.003517 577.006472 L 1383.657679 594.489575 L 1384.311841 601.860743 L 1384.966002 588.68761 L 1385.620164 584.587593 L 1386.274326 596.586082 L 1386.928488 565.454591 L 1388.236811 589.260689 L 1388.890973 583.373797 L 1389.545135 581.382865 L 1390.199297 587.939098 L 1391.50762 544.667196 L 1392.161782 568.278895 L 1392.815944 525.918495 L 1393.470106 535.577318 L 1394.124267 583.649552 L 1394.778429 573.754806 L 1395.432591 566.300312 L 1396.086753 562.891608 L 1396.740914 552.398412 L 1397.395076 578.488641 L 1398.049238 576.07987 L 1398.7034 569.333517 L 1399.357562 593.69724 L 1400.011723 593.512994 L 1400.665885 596.849937 L 1401.320047 596.109426 L 1401.974209 580.590077 L 1402.62837 571.27666 L 1403.282532 575.139223 L 1403.936694 593.270573 L 1404.590856 594.459554 L 1405.245018 582.779937 L 1405.245018 582.779937" clip-path="url(#p82973243c9)" fill="none" stroke="#8dd3c7" stroke-width="1.5" stroke-linecap="square"/></g><g id="patch_3"><path d="M 180 640.8 L 180 86.4" fill="none" stroke="#ffffff" stroke-width="0.8" stroke-linejoin="miter" stroke-linecap="square"/></g><g id="patch_4"><path d="M 1296 640.8 L 1296 86.4" fill="none" stroke="#ffffff" stroke-width="0.8" stroke-linejoin="miter" stroke-linecap="square"/></g><g id="patch_5"><path d="M 180 640.8 L 1296 640.8" fill="none" stroke="#ffffff" stroke-width="0.8" stroke-linejoin="miter" stroke-linecap="square"/></g><g id="patch_6"><path d="M 180 86.4 L 1296 86.4" fill="none" stroke="#ffffff" stroke-width="0.8" stroke-linejoin="miter" stroke-linecap="square"/></g><g id="text_20"><g transform="translate(676.92375 80.4) scale(0.12 -0.12)" fill="#ffffff"><defs><path id="DejaVuSans-41" d="M 2188 4044 L 1331 1722 L 3047 1722 L 2188 4044 z M 1831 4666 L 2547 4666 L 4325 0 L 3669 0 L 3244 1197 L 1141 1197 L 716 0 L 50 0 L 1831 4666 z" transform="scale(0.015625)"/><path id="DejaVuSans-76" d="M 191 3500 L 800 3500 L 1894 563 L 2988 3500 L 3597 3500 L 2284 0 L 1503 0 L 191 3500 z" transform="scale(0.015625)"/><path id="DejaVuSans-67" d="M 2906 1791 Q 2906 2416 2648 2759 Q 2391 3103 1925 3103 Q 1463 3103 1205 2759 Q 947 2416 947 1791 Q 947 1169 1205 825 Q 1463 481 1925 481 Q 2391 481 2648 825 Q 2906 1169 2906 1791 z M 3481 434 Q 3481 -459 3084 -895 Q 2688 -1331 1869 -1331 Q 1566 -1331 1297 -1286 Q 1028 -1241 775 -1147 L 775 -588 Q 1028 -725 1275 -790 Q 1522 -856 1778 -856 Q 2344 -856 2625 -561 Q 2906 -266 2906 331 L 2906 616 Q 2728 306 2450 153 Q 2172 0 1784 0 Q 1141 0 747 490 Q 353 981 353 1791 Q 353 2603 747 3093 Q 1141 3584 1784 3584 Q 2172 3584 2450 3431 Q 2728 3278 2906 2969 L 2906 3500 L 3481 3500 L 3481 434 z" transform="scale(0.015625)"/></defs><use xlink:href="#DejaVuSans-41"/><use xlink:href="#DejaVuSans-76" x="62.533"/><use xlink:href="#DejaVuSans-65" x="121.713"/><use xlink:href="#DejaVuSans-72" x="183.236"/><use xlink:href="#DejaVuSans-61" x="224.35"/><use xlink:href="#DejaVuSans-67" x="285.629"/><use xlink:href="#DejaVuSans-65" x="349.105"/><use xlink:href="#DejaVuSans-20" x="410.629"/><use xlink:href="#DejaVuSans-75" x="442.416"/><use xlink:href="#DejaVuSans-70" x="505.795"/><use xlink:href="#DejaVuSans-6c" x="569.271"/><use xlink:href="#DejaVuSans-6f" x="597.055"/><use xlink:href="#DejaVuSans-61" x="658.236"/><use xlink:href="#DejaVuSans-64" x="719.516"/><use xlink:href="#DejaVuSans-20" x="782.992"/><use xlink:href="#DejaVuSans-72" x="814.779"/><use xlink:href="#DejaVuSans-61" x="855.893"/><use xlink:href="#DejaVuSans-74" x="917.172"/><use xlink:href="#DejaVuSans-65" x="956.381"/></g></g></g></g><defs><clipPath id="p82973243c9"><rect x="180" y="86.4" width="1116" height="554.4"/></clipPath></defs></svg>