<svg xmlns:xlink="http://www.w3.org/1999/xlink" width="1920" height="960" viewBox="0 0 1440 720" xmlns="http://www.w3.org/2000/svg" version="1.1"><metadata><rdf:RDF xmlns:dc="http://purl.org/dc/elements/1.1/" xmlns:cc="http://creativecommons.org/ns#" xmlns:rdf="http://www.w3.org/1999/02/22-rdf-syntax-ns#"><cc:Work><dc:type rdf:resource="http://purl.org/dc/dcmitype/StillImage"/><dc:format>image/svg+xml</dc:format><dc:creator><cc:Agent><dc:title>Matplotlib v3.7.1, https://matplotlib.org/</dc:title></cc:Agent></dc:creator></cc:Work></rdf:RDF></metadata><defs><style type="text/css">*{stroke-linejoin:round;stroke-linecap:butt}</style></defs><g id="figure_1"><g id="patch_1"><path d="M 0 720 L 1440 720 L 1440 0 L 0 0 z"/></g><g id="axes_1"><g id="patch_2"><path d="M 180 640.8 L 1296 640.8 L 1296 86.4 L 180 86.4 z"/></g><g id="matplotlib.axis_1"><g id="xtick_1"><g id="line2d_1"><defs><path id="mbccc403e7a" d="M 0 0 L 0 3.5" stroke="#ffffff" stroke-width="0.8"/></defs><g><use xlink:href="#mbccc403e7a" x="180" y="640.8" fill="#ffffff" stroke="#ffffff" stroke-width="0.8"/></g></g><g id="text_1"><g transform="translate(176.81875 655.398438) scale(0.1 -0.1)" fill="#ffffff"><defs><path id="DejaVuSans-30" d="M 2034 4250 Q 1547 4250 1301 3770 Q 1056 3291 1056 2328 Q 1056 1369 1301 889 Q 1547 409 2034 409 Q 2525 409 2770 889 Q 3016 1369 3016 2328 Q 3016 3291 2770 3770 Q 2525 4250 2034 4250 z M 2034 4750 Q 2819 4750 3233 4129 Q 3647 3509 3647 2328 Q 3647 1150 3233 529 Q 2819 -91 2034 -91 Q 1250 -91 836 529 Q 422 1150 422 2328 Q 422 3509 836 4129 Q 1250 4750 2034 4750 z" transform="scale(0.015625)"/></defs><use xlink:href="#DejaVuSans-30"/></g></g></g><g id="xtick_2"><g id="line2d_2"><g><use xlink:href="#mbccc403e7a" x="356.303" y="640.8" fill="#ffffff" stroke="#ffffff" stroke-width="0.8"/></g></g><g id="text_2"><g transform="translate(346.759568 655.398438) scale(0.1 -0.1)" fill="#ffffff"><defs><path id="DejaVuSans-31" d="M 794 531 L 1825 531 L 1825 4091 L 703 3866 L 703 4441 L 1819 4666 L 2450 4666 L 2450 531 L 3481 531 L 3481 0 L 794 0 L 794 531 z" transform="scale(0.015625)"/></defs><use xlink:href="#DejaVuSans-31"/><use xlink:href="#DejaVuSans-30" x="63.623"/><use xlink:href="#DejaVuSans-30" x="127.246"/></g></g></g><g id="xtick_3"><g id="line2d_3"><g><use xlink:href="#mbccc403e7a" x="532.607" y="640.8" fill="#ffffff" stroke="#ffffff" stroke-width="0.8"/></g></g><g id="text_3"><g transform="translate(523.062885 655.398438) scale(0.1 -0.1)" fill="#ffffff"><defs><path id="DejaVuSans-32" d="M 1228 531 L 3431 531 L 3431 0 L 469 0 L 469 531 Q 828 903 1448 1529 Q 2069 2156 2228 2338 Q 2531 2678 2651 2914 Q 2772 3150 2772 3378 Q 2772 3750 2511 3984 Q 2250 4219 1831 4219 Q 1534 4219 1204 4116 Q 875 4013 500 3803 L 500 4441 Q 881 4594 1212 4672 Q 1544 4750 1819 4750 Q 2544 4750 2975 4387 Q 3406 4025 3406 3419 Q 3406 3131 3298 2873 Q 3191 2616 2906 2266 Q 2828 2175 2409 1742 Q 1991 1309 1228 531 z" transform="scale(0.015625)"/></defs><use xlink:href="#DejaVuSans-32"/><use xlink:href="#DejaVuSans-30" x="63.623"/><use xlink:href="#DejaVuSans-30" x="127.246"/></g></g></g><g id="xtick_4"><g id="line2d_4"><g><use xlink:href="#mbccc403e7a" x="708.91" y="640.8" fill="#ffffff" stroke="#ffffff" stroke-width="0.8"/></g></g><g id="text_4"><g transform="translate(699.366203 655.398438) scale(0.1 -0.1)" fill="#ffffff"><defs><path id="DejaVuSans-33" d="M 2597 2516 Q 3050 2419 3304 2112 Q 3559 1806 3559 1356 Q 3559 666 3084 287 Q 2609 -91 1734 -91 Q 1441 -91 1130 -33 Q 819 25 488 141 L 488 750 Q 750 597 1062 519 Q 1375 441 1716 441 Q 2309 441 2620 675 Q 2931 909 2931 1356 Q 2931 1769 2642 2001 Q 2353 2234 1838 2234 L 1294 2234 L 1294 2753 L 1863 2753 Q 2328 2753 2575 2939 Q 2822 3125 2822 3475 Q 2822 3834 2567 4026 Q 2313 4219 1838 4219 Q 1578 4219 1281 4162 Q 984 4106 628 3988 L 628 4550 Q 988 4650 1302 4700 Q 1616 4750 1894 4750 Q 2613 4750 3031 4423 Q 3450 4097 3450 3541 Q 3450 3153 3228 2886 Q 3006 2619 2597 2516 z" transform="scale(0.015625)"/></defs><use xlink:href="#DejaVuSans-33"/><use xlink:href="#DejaVuSans-30" x="63.623"/><use xlink:href="#DejaVuSans-30" x="127.246"/></g></g></g><g id="xtick_5"><g id="line2d_5"><g><use xlink:href="#mbccc403e7a" x="885.213" y="640.8" fill="#ffffff" stroke="#ffffff" stroke-width="0.8"/></g></g><g id="text_5"><g transform="translate(875.66952 655.398438) scale(0.1 -0.1)" fill="#ffffff"><defs><path id="DejaVuSans-34" d="M 2419 4116 L 825 1625 L 2419 1625 L 2419 4116 z M 2253 4666 L 3047 4666 L 3047 1625 L 3713 1625 L 3713 1100 L 3047 1100 L 3047 0 L 2419 0 L 2419 1100 L 313 1100 L 313 1709 L 2253 4666 z" transform="scale(0.015625)"/></defs><use xlink:href="#DejaVuSans-34"/><use xlink:href="#DejaVuSans-30" x="63.623"/><use xlink:href="#DejaVuSans-30" x="127.246"/></g></g></g><g id="xtick_6"><g id="line2d_6"><g><use xlink:href="#mbccc403e7a" x="1061.517" y="640.8" fill="#ffffff" stroke="#ffffff" stroke-width="0.8"/></g></g><g id="text_6"><g transform="translate(1051.972838 655.398438) scale(0.1 -0.1)" fill="#ffffff"><defs><path id="DejaVuSans-35" d="M 691 4666 L 3169 4666 L 3169 4134 L 1269 4134 L 1269 2991 Q 1406 3038 1543 3061 Q 1681 3084 1819 3084 Q 2600 3084 3056 2656 Q 3513 2228 3513 1497 Q 3513 744 3044 326 Q 2575 -91 1722 -91 Q 1428 -91 1123 -41 Q 819 9 494 109 L 494 744 Q 775 591 1075 516 Q 1375 441 1709 441 Q 2250 441 2565 725 Q 2881 1009 2881 1497 Q 2881 1984 2565 2268 Q 2250 2553 1709 2553 Q 1456 2553 1204 2497 Q 953 2441 691 2322 L 691 4666 z" transform="scale(0.015625)"/></defs><use xlink:href="#DejaVuSans-35"/><use xlink:href="#DejaVuSans-30" x="63.623"/><use xlink:href="#DejaVuSans-30" x="127.246"/></g></g></g><g id="xtick_7"><g id="line2d_7"><g><use xlink:href="#mbccc403e7a" x="1237.82" y="640.8" fill="#ffffff" stroke="#ffffff" stroke-width="0.8"/></g></g><g id="text_7"><g transform="translate(1228.276155 655.398438) scale(0.1 -0.1)" fill="#ffffff"><defs><path id="DejaVuSans-36" d="M 2113 2584 Q 1688 2584 1439 2293 Q 1191 2003 1191 1497 Q 1191 994 1439 701 Q 1688 409 2113 409 Q 2538 409 2786 701 Q 3034 994 3034 1497 Q 3034 2003 2786 2293 Q 2538 2584 2113 2584 z M 3366 4563 L 3366 3988 Q 3128 4100 2886 4159 Q 2644 4219 2406 4219 Q 1781 4219 1451 3797 Q 1122 3375 1075 2522 Q 1259 2794 1537 2939 Q 1816 3084 2150 3084 Q 2853 3084 3261 2657 Q 3669 2231 3669 1497 Q 3669 778 3244 343 Q 2819 -91 2113 -91 Q 1303 -91 875 529 Q 447 1150 447 2328 Q 447 3434 972 4092 Q 1497 4750 2381 4750 Q 2619 4750 2861 4703 Q 3103 4656 3366 4563 z" transform="scale(0.015625)"/></defs><use xlink:href="#DejaVuSans-36"/><use xlink:href="#DejaVuSans-30" x="63.623"/><use xlink:href="#DejaVuSans-30" x="127.246"/></g></g></g><g id="xtick_8"><g id="line2d_8"><defs><path id="mbf65b6f749" d="M 0 0 L 0 2" stroke="#ffffff" stroke-width="0.6"/></defs><g><use xlink:href="#mbf65b6f749" x="215.261" y="640.8" fill="#ffffff" stroke="#ffffff" stroke-width="0.6"/></g></g></g><g id="xtick_9"><g id="line2d_9"><g><use xlink:href="#mbf65b6f749" x="250.521" y="640.8" fill="#ffffff" stroke="#ffffff" stroke-width="0.6"/></g></g></g><g id="xtick_10"><g id="line2d_10"><g><use xlink:href="#mbf65b6f749" x="285.782" y="640.8" fill="#ffffff" stroke="#ffffff" stroke-width="0.6"/></g></g></g><g id="xtick_11"><g id="line2d_11"><g><use xlink:href="#mbf65b6f749" x="321.043" y="640.8" fill="#ffffff" stroke="#ffffff" stroke-width="0.6"/></g></g></g><g id="xtick_12"><g id="line2d_12"><g><use xlink:href="#mbf65b6f749" x="391.564" y="640.8" fill="#ffffff" stroke="#ffffff" stroke-width="0.6"/></g></g></g><g id="xtick_13"><g id="line2d_13"><g><use xlink:href="#mbf65b6f749" x="426.825" y="640.8" fill="#ffffff" stroke="#ffffff" stroke-width="0.6"/></g></g></g><g id="xtick_14"><g id="line2d_14"><g><use xlink:href="#mbf65b6f749" x="462.085" y="640.8" fill="#ffffff" stroke="#ffffff" stroke-width="0.6"/></g></g></g><g id="xtick_15"><g id="line2d_15"><g><use xlink:href="#mbf65b6f749" x="497.346" y="640.8" fill="#ffffff" stroke="#ffffff" stroke-width="0.6"/></g></g></g><g id="xtick_16"><g id="line2d_16"><g><use xlink:href="#mbf65b6f749" x="567.867" y="640.8" fill="#ffffff" stroke="#ffffff" stroke-width="0.6"/></g></g></g><g id="xtick_17"><g id="line2d_17"><g><use xlink:href="#mbf65b6f749" x="603.128" y="640.8" fill="#ffffff" stroke="#ffffff" stroke-width="0.6"/></g></g></g><g id="xtick_18"><g id="line2d_18"><g><use xlink:href="#mbf65b6f749" x="638.389" y="640.8" fill="#ffffff" stroke="#ffffff" stroke-width="0.6"/></g></g></g><g id="xtick_19"><g id="line2d_19"><g><use xlink:href="#mbf65b6f749" x="673.649" y="640.8" fill="#ffffff" stroke="#ffffff" stroke-width="0.6"/></g></g></g><g id="xtick_20"><g id="line2d_20"><g><use xlink:href="#mbf65b6f749" x="744.171" y="640.8" fill="#ffffff" stroke="#ffffff" stroke-width="0.6"/></g></g></g><g id="xtick_21"><g id="line2d_21"><g><use xlink:href="#mbf65b6f749" x="779.431" y="640.8" fill="#ffffff" stroke="#ffffff" stroke-width="0.6"/></g></g></g><g id="xtick_22"><g id="line2d_22"><g><use xlink:href="#mbf65b6f749" x="814.692" y="640.8" fill="#ffffff" stroke="#ffffff" stroke-width="0.6"/></g></g></g><g id="xtick_23"><g id="line2d_23"><g><use xlink:href="#mbf65b6f749" x="849.953" y="640.8" fill="#ffffff" stroke="#ffffff" stroke-width="0.6"/></g></g></g><g id="xtick_24"><g id="line2d_24"><g><use xlink:href="#mbf65b6f749" x="920.474" y="640.8" fill="#ffffff" stroke="#ffffff" stroke-width="0.6"/></g></g></g><g id="xtick_25"><g id="line2d_25"><g><use xlink:href="#mbf65b6f749" x="955.735" y="640.8" fill="#ffffff" stroke="#ffffff" stroke-width="0.6"/></g></g></g><g id="xtick_26"><g id="line2d_26"><g><use xlink:href="#mbf65b6f749" x="990.995" y="640.8" fill="#ffffff" stroke="#ffffff" stroke-width="0.6"/></g></g></g><g id="xtick_27"><g id="line2d_27"><g><use xlink:href="#mbf65b6f749" x="1026.256" y="640.8" fill="#ffffff" stroke="#ffffff" stroke-width="0.6"/></g></g></g><g id="xtick_28"><g id="line2d_28"><g><use xlink:href="#mbf65b6f749" x="1096.777" y="640.8" fill="#ffffff" stroke="#ffffff" stroke-width="0.6"/></g></g></g><g id="xtick_29"><g id="line2d_29"><g><use xlink:href="#mbf65b6f749" x="1132.038" y="640.8" fill="#ffffff" stroke="#ffffff" stroke-width="0.6"/></g></g></g><g id="xtick_30"><g id="line2d_30"><g><use xlink:href="#mbf65b6f749" x="1167.299" y="640.8" fill="#ffffff" stroke="#ffffff" stroke-width="0.6"/></g></g></g><g id="xtick_31"><g id="line2d_31"><g><use xlink:href="#mbf65b6f749" x="1202.559" y="640.8" fill="#ffffff" stroke="#ffffff" stroke-width="0.6"/></g></g></g><g id="xtick_32"><g id="line2d_32"><g><use xlink:href="#mbf65b6f749" x="1273.081" y="640.8" fill="#ffffff" stroke="#ffffff" stroke-width="0.6"/></g></g></g><g id="text_8"><g transform="translate(638.625781 669.076563) scale(0.1 -0.1)" fill="#ffffff"><defs><path id="DejaVuSans-48" d="M 628 4666 L 1259 4666 L 1259 2753 L 3553 2753 L 3553 4666 L 4184 4666 L 4184 0 L 3553 0 L 3553 2222 L 1259 2222 L 1259 0 L 628 0 L 628 4666 z" transform="scale(0.015625)"/><path id="DejaVuSans-6f" d="M 1959 3097 Q 1497 3097 1228 2736 Q 959 2375 959 1747 Q 959 1119 1226 758 Q 1494 397 1959 397 Q 2419 397 2687 759 Q 2956 1122 2956 1747 Q 2956 2369 2687 2733 Q 2419 3097 1959 3097 z M 1959 3584 Q 2709 3584 3137 3096 Q 3566 2609 3566 1747 Q 3566 888 3137 398 Q 2709 -91 1959 -91 Q 1206 -91 779 398 Q 353 888 353 1747 Q 353 2609 779 3096 Q 1206 3584 1959 3584 z" transform="scale(0.015625)"/><path id="DejaVuSans-75" d="M 544 1381 L 544 3500 L 1119 3500 L 1119 1403 Q 1119 906 1312 657 Q 1506 409 1894 409 Q 2359 409 2629 706 Q 2900 1003 2900 1516 L 2900 3500 L 3475 3500 L 3475 0 L 2900 0 L 2900 538 Q 2691 219 2414 64 Q 2138 -91 1772 -91 Q 1169 -91 856 284 Q 544 659 544 1381 z M 1991 3584 L 1991 3584 z" transform="scale(0.015625)"/><path id="DejaVuSans-72" d="M 2631 2963 Q 2534 3019 2420 3045 Q 2306 3072 2169 3072 Q 1681 3072 1420 2755 Q 1159 2438 1159 1844 L 1159 0 L 581 0 L 581 3500 L 1159 3500 L 1159 2956 Q 1341 3275 1631 3429 Q 1922 3584 2338 3584 Q 2397 3584 2469 3576 Q 2541 3569 2628 3553 L 2631 2963 z" transform="scale(0.015625)"/><path id="DejaVuSans-73" d="M 2834 3397 L 2834 2853 Q 2591 2978 2328 3040 Q 2066 3103 1784 3103 Q 1356 3103 1142 2972 Q 928 2841 928 2578 Q 928 2378 1081 2264 Q 1234 2150 1697 2047 L 1894 2003 Q 2506 1872 2764 1633 Q 3022 1394 3022 966 Q 3022 478 2636 193 Q 2250 -91 1575 -91 Q 1294 -91 989 -36 Q 684 19 347 128 L 347 722 Q 666 556 975 473 Q 1284 391 1588 391 Q 1994 391 2212 530 Q 2431 669 2431 922 Q 2431 1156 2273 1281 Q 2116 1406 1581 1522 L 1381 1569 Q 847 1681 609 1914 Q 372 2147 372 2553 Q 372 3047 722 3315 Q 1072 3584 1716 3584 Q 2034 3584 2315 3537 Q 2597 3491 2834 3397 z" transform="scale(0.015625)"/><path id="DejaVuSans-20" transform="scale(0.015625)"/><path id="DejaVuSans-69" d="M 603 3500 L 1178 3500 L 1178 0 L 603 0 L 603 3500 z M 603 4863 L 1178 4863 L 1178 4134 L 603 4134 L 603 4863 z" transform="scale(0.015625)"/><path id="DejaVuSans-6e" d="M 3513 2113 L 3513 0 L 2938 0 L 2938 2094 Q 2938 2591 2744 2837 Q 2550 3084 2163 3084 Q 1697 3084 1428 2787 Q 1159 2491 1159 1978 L 1159 0 L 581 0 L 581 3500 L 1159 3500 L 1159 2956 Q 1366 3272 1645 3428 Q 1925 3584 2291 3584 Q 2894 3584 3203 3211 Q 3513 2838 3513 2113 z" transform="scale(0.015625)"/><path id="DejaVuSans-63" d="M 3122 3366 L 3122 2828 Q 2878 2963 2633 3030 Q 2388 3097 2138 3097 Q 1578 3097 1268 2742 Q 959 2388 959 1747 Q 959 1106 1268 751 Q 1578 397 2138 397 Q 2388 397 2633 464 Q 2878 531 3122 666 L 3122 134 Q 2881 22 2623 -34 Q 2366 -91 2075 -91 Q 1284 -91 818 406 Q 353 903 353 1747 Q 353 2603 823 3093 Q 1294 3584 2113 3584 Q 2378 3584 2631 3529 Q 2884 3475 3122 3366 z" transform="scale(0.015625)"/><path id="DejaVuSans-65" d="M 3597 1894 L 3597 1613 L 953 1613 Q 991 1019 1311 708 Q 1631 397 2203 397 Q 2534 397 2845 478 Q 3156 559 3463 722 L 3463 178 Q 3153 47 2828 -22 Q 2503 -91 2169 -91 Q 1331 -91 842 396 Q 353 884 353 1716 Q 353 2575 817 3079 Q 1281 3584 2069 3584 Q 2775 3584 3186 3129 Q 3597 2675 3597 1894 z M 3022 2063 Q 3016 2534 2758 2815 Q 2500 3097 2075 3097 Q 1594 3097 1305 2825 Q 1016 2553 972 2059 L 3022 2063 z" transform="scale(0.015625)"/><path id="DejaVuSans-2f" d="M 1625 4666 L 2156 4666 L 531 -594 L 0 -594 L 1625 4666 z" transform="scale(0.015625)"/><path id="DejaVuSans-3a" d="M 750 794 L 1409 794 L 1409 0 L 750 0 L 750 794 z M 750 3309 L 1409 3309 L 1409 2516 L 750 2516 L 750 3309 z" transform="scale(0.015625)"/><path id="DejaVuSans-28" d="M 1984 4856 Q 1566 4138 1362 3434 Q 1159 2731 1159 2009 Q 1159 1288 1364 580 Q 1569 -128 1984 -844 L 1484 -844 Q 1016 -109 783 600 Q 550 1309 550 2009 Q 550 2706 781 3412 Q 1013 4119 1484 4856 L 1984 4856 z" transform="scale(0.015625)"/><path id="DejaVuSans-55" d="M 556 4666 L 1191 4666 L 1191 1831 Q 1191 1081 1462 751 Q 1734 422 2344 422 Q 2950 422 3222 751 Q 3494 1081 3494 1831 L 3494 4666 L 4128 4666 L 4128 1753 Q 4128 841 3676 375 Q 3225 -91 2344 -91 Q 1459 -91 1007 375 Q 556 841 556 1753 L 556 4666 z" transform="scale(0.015625)"/><path id="DejaVuSans-43" d="M 4122 4306 L 4122 3641 Q 3803 3938 3442 4084 Q 3081 4231 2675 4231 Q 1875 4231 1450 3742 Q 1025 3253 1025 2328 Q 1025 1406 1450 917 Q 1875 428 2675 428 Q 3081 428 3442 575 Q 3803 722 4122 1019 L 4122 359 Q 3791 134 3420 21 Q 3050 -91 2638 -91 Q 1578 -91 968 557 Q 359 1206 359 2328 Q 359 3453 968 4101 Q 1578 4750 2638 4750 Q 3056 4750 3426 4639 Q 3797 4528 4122 4306 z" transform="scale(0.015625)"/><path id="DejaVuSans-54" d="M -19 4666 L 3928 4666 L 3928 4134 L 2272 4134 L 2272 0 L 1638 0 L 1638 4134 L -19 4134 L -19 4666 z" transform="scale(0.015625)"/><path id="DejaVuSans-29" d="M 513 4856 L 1013 4856 Q 1481 4119 1714 3412 Q 1947 2706 1947 2009 Q 1947 1309 1714 600 Q 1481 -109 1013 -844 L 513 -844 Q 928 -128 1133 580 Q 1338 1288 1338 2009 Q 1338 2731 1133 3434 Q 928 4138 513 4856 z" transform="scale(0.015625)"/></defs><use xlink:href="#DejaVuSans-48"/><use xlink:href="#DejaVuSans-6f" x="75.195"/><use xlink:href="#DejaVuSans-75" x="136.377"/><use xlink:href="#DejaVuSans-72" x="199.756"/><use xlink:href="#DejaVuSans-73" x="240.869"/><use xlink:href="#DejaVuSans-20" x="292.969"/><use xlink:href="#DejaVuSans-73" x="324.756"/><use xlink:href="#DejaVuSans-69" x="376.855"/><use xlink:href="#DejaVuSans-6e" x="404.639"/><use xlink:href="#DejaVuSans-63" x="468.018"/><use xlink:href="#DejaVuSans-65" x="522.998"/><use xlink:href="#DejaVuSans-20" x="584.521"/><use xlink:href="#DejaVuSans-32" x="616.309"/><use xlink:href="#DejaVuSans-36" x="679.932"/><use xlink:href="#DejaVuSans-2f" x="743.555"/><use xlink:href="#DejaVuSans-30" x="777.246"/><use xlink:href="#DejaVuSans-32" x="840.869"/><use xlink:href="#DejaVuSans-2f" x="904.492"/><use xlink:href="#DejaVuSans-32" x="938.184"/><use xlink:href="#DejaVuSans-30" x="1001.807"/><use xlink:href="#DejaVuSans-32" x="1065.43"/><use xlink:href="#DejaVuSans-33" x="1129.053"/><use xlink:href="#DejaVuSans-20" x="1192.676"/><use xlink:href="#DejaVuSans-30" x="1224.463"/><use xlink:href="#DejaVuSans-35" x="1288.086"/><use xlink:href="#DejaVuSans-3a" x="1351.709"/><use xlink:href="#DejaVuSans-30" x="1385.4"/><use xlink:href="#DejaVuSans-30" x="1449.023"/><use xlink:href="#DejaVuSans-3a" x="1512.646"/><use xlink:href="#DejaVuSans-30" x="1546.338"/><use xlink:href="#DejaVuSans-30" x="1609.961"/><use xlink:href="#DejaVuSans-20" x="1673.584"/><use xlink:href="#DejaVuSans-28" x="1705.371"/><use xlink:href="#DejaVuSans-55" x="1744.385"/><use xlink:href="#DejaVuSans-43" x="1817.578"/><use xlink:href="#DejaVuSans-54" x="1887.402"/><use xlink:href="#DejaVuSans-29" x="1948.486"/></g></g></g><g id="matplotlib.axis_2"><g id="ytick_1"><g id="line2d_33"><defs><path id="m81b3a6bea5" d="M 0 0 L -3.5 0" stroke="#ffffff" stroke-width="0.8"/></defs><g><use xlink:href="#m81b3a6bea5" x="180" y="615.6" fill="#ffffff" stroke="#ffffff" stroke-width="0.8"/></g></g><g id="text_9"><g transform="translate(166.6375 619.399219) scale(0.1 -0.1)" fill="#ffffff"><use xlink:href="#DejaVuSans-30"/></g></g></g><g id="ytick_2"><g id="line2d_34"><g><use xlink:href="#m81b3a6bea5" x="180" y="530.494" fill="#ffffff" stroke="#ffffff" stroke-width="0.8"/></g></g><g id="text_10"><g transform="translate(153.9125 534.292836) scale(0.1 -0.1)" fill="#ffffff"><use xlink:href="#DejaVuSans-31"/><use xlink:href="#DejaVuSans-30" x="63.623"/><use xlink:href="#DejaVuSans-30" x="127.246"/></g></g></g><g id="ytick_3"><g id="line2d_35"><g><use xlink:href="#m81b3a6bea5" x="180" y="445.387" fill="#ffffff" stroke="#ffffff" stroke-width="0.8"/></g></g><g id="text_11"><g transform="translate(153.9125 449.186453) scale(0.1 -0.1)" fill="#ffffff"><use xlink:href="#DejaVuSans-32"/><use xlink:href="#DejaVuSans-30" x="63.623"/><use xlink:href="#DejaVuSans-30" x="127.246"/></g></g></g><g id="ytick_4"><g id="line2d_36"><g><use xlink:href="#m81b3a6bea5" x="180" y="360.281" fill="#ffffff" stroke="#ffffff" stroke-width="0.8"/></g></g><g id="text_12"><g transform="translate(153.9125 364.08007) scale(0.1 -0.1)" fill="#ffffff"><use xlink:href="#DejaVuSans-33"/><use xlink:href="#DejaVuSans-30" x="63.623"/><use xlink:href="#DejaVuSans-30" x="127.246"/></g></g></g><g id="ytick_5"><g id="line2d_37"><g><use xlink:href="#m81b3a6bea5" x="180" y="275.174" fill="#ffffff" stroke="#ffffff" stroke-width="0.8"/></g></g><g id="text_13"><g transform="translate(153.9125 278.973687) scale(0.1 -0.1)" fill="#ffffff"><use xlink:href="#DejaVuSans-34"/><use xlink:href="#DejaVuSans-30" x="63.623"/><use xlink:href="#DejaVuSans-30" x="127.246"/></g></g></g><g id="ytick_6"><g id="line2d_38"><g><use xlink:href="#m81b3a6bea5" x="180" y="190.068" fill="#ffffff" stroke="#ffffff" stroke-width="0.8"/></g></g><g id="text_14"><g transform="translate(153.9125 193.867304) scale(0.1 -0.1)" fill="#ffffff"><use xlink:href="#DejaVuSans-35"/><use xlink:href="#DejaVuSans-30" x="63.623"/><use xlink:href="#DejaVuSans-30" x="127.246"/></g></g></g><g id="ytick_7"><g id="line2d_39"><g><use xlink:href="#m81b3a6bea5" x="180" y="104.962" fill="#ffffff" stroke="#ffffff" stroke-width="0.8"/></g></g><g id="text_15"><g transform="translate(153.9125 108.760921) scale(0.1 -0.1)" fill="#ffffff"><use xlink:href="#DejaVuSans-36"/><use xlink:href="#DejaVuSans-30" x="63.623"/><use xlink:href="#DejaVuSans-30" x="127.246"/></g></g></g><g id="ytick_8"><g id="line2d_40"><defs><path id="mfffb8a0834" d="M 0 0 L -2 0" stroke="#ffffff" stroke-width="0.6"/></defs><g><use xlink:href="#mfffb8a0834" x="180" y="632.621" fill="#ffffff" stroke="#ffffff" stroke-width="0.6"/></g></g></g><g id="ytick_9"><g id="line2d_41"><g><use xlink:href="#mfffb8a0834" x="180" y="598.579" fill="#ffffff" stroke="#ffffff" stroke-width="0.6"/></g></g></g><g id="ytick_10"><g id="line2d_42"><g><use xlink:href="#mfffb8a0834" x="180" y="581.557" fill="#ffffff" stroke="#ffffff" stroke-width="0.6"/></g></g></g><g id="ytick_11"><g id="line2d_43"><g><use xlink:href="#mfffb8a0834" x="180" y="564.536" fill="#ffffff" stroke="#ffffff" stroke-width="0.6"/></g></g></g><g id="ytick_12"><g id="line2d_44"><g><use xlink:href="#mfffb8a0834" x="180" y="547.515" fill="#ffffff" stroke="#ffffff" stroke-width="0.6"/></g></g></g><g id="ytick_13"><g id="line2d_45"><g><use xlink:href="#mfffb8a0834" x="180" y="513.472" fill="#ffffff" stroke="#ffffff" stroke-width="0.6"/></g></g></g><g id="ytick_14"><g id="line2d_46"><g><use xlink:href="#mfffb8a0834" x="180" y="496.451" fill="#ffffff" stroke="#ffffff" stroke-width="0.6"/></g></g></g><g id="ytick_15"><g id="line2d_47"><g><use xlink:href="#mfffb8a0834" x="180" y="479.43" fill="#ffffff" stroke="#ffffff" stroke-width="0.6"/></g></g></g><g id="ytick_16"><g id="line2d_48"><g><use xlink:href="#mfffb8a0834" x="180" y="462.409" fill="#ffffff" stroke="#ffffff" stroke-width="0.6"/></g></g></g><g id="ytick_17"><g id="line2d_49"><g><use xlink:href="#mfffb8a0834" x="180" y="428.366" fill="#ffffff" stroke="#ffffff" stroke-width="0.6"/></g></g></g><g id="ytick_18"><g id="line2d_50"><g><use xlink:href="#mfffb8a0834" x="180" y="411.345" fill="#ffffff" stroke="#ffffff" stroke-width="0.6"/></g></g></g><g id="ytick_19"><g id="line2d_51"><g><use xlink:href="#mfffb8a0834" x="180" y="394.323" fill="#ffffff" stroke="#ffffff" stroke-width="0.6"/></g></g></g><g id="ytick_20"><g id="line2d_52"><g><use xlink:href="#mfffb8a0834" x="180" y="377.302" fill="#ffffff" stroke="#ffffff" stroke-width="0.6"/></g></g></g><g id="ytick_21"><g id="line2d_53"><g><use xlink:href="#mfffb8a0834" x="180" y="343.26" fill="#ffffff" stroke="#ffffff" stroke-width="0.6"/></g></g></g><g id="ytick_22"><g id="line2d_54"><g><use xlink:href="#mfffb8a0834" x="180" y="326.238" fill="#ffffff" stroke="#ffffff" stroke-width="0.6"/></g></g></g><g id="ytick_23"><g id="line2d_55"><g><use xlink:href="#mfffb8a0834" x="180" y="309.217" fill="#ffffff" stroke="#ffffff" stroke-width="0.6"/></g></g></g><g id="ytick_24"><g id="line2d_56"><g><use xlink:href="#mfffb8a0834" x="180" y="292.196" fill="#ffffff" stroke="#ffffff" stroke-width="0.6"/></g></g></g><g id="ytick_25"><g id="line2d_57"><g><use xlink:href="#mfffb8a0834" x="180" y="258.153" fill="#ffffff" stroke="#ffffff" stroke-width="0.6"/></g></g></g><g id="ytick_26"><g id="line2d_58"><g><use xlink:href="#mfffb8a0834" x="180" y="241.132" fill="#ffffff" stroke="#ffffff" stroke-width="0.6"/></g></g></g><g id="ytick_27"><g id="line2d_59"><g><use xlink:href="#mfffb8a0834" x="180" y="224.111" fill="#ffffff" stroke="#ffffff" stroke-width="0.6"/></g></g></g><g id="ytick_28"><g id="line2d_60"><g><use xlink:href="#mfffb8a0834" x="180" y="207.089" fill="#ffffff" stroke="#ffffff" stroke-width="0.6"/></g></g></g><g id="ytick_29"><g id="line2d_61"><g><use xlink:href="#mfffb8a0834" x="180" y="173.047" fill="#ffffff" stroke="#ffffff" stroke-width="0.6"/></g></g></g><g id="ytick_30"><g id="line2d_62"><g><use xlink:href="#mfffb8a0834" x="180" y="156.026" fill="#ffffff" stroke="#ffffff" stroke-width="0.6"/></g></g></g><g id="ytick_31"><g id="line2d_63"><g><use xlink:href="#mfffb8a0834" x="180" y="139.004" fill="#ffffff" stroke="#ffffff" stroke-width="0.6"/></g></g></g><g id="ytick_32"><g id="line2d_64"><g><use xlink:href="#mfffb8a0834" x="180" y="121.983" fill="#ffffff" stroke="#ffffff" stroke-width="0.6"/></g></g></g><g id="ytick_33"><g id="line2d_65"><g><use xlink:href="#mfffb8a0834" x="180" y="87.94" fill="#ffffff" stroke="#ffffff" stroke-width="0.6"/></g></g></g><g id="text_16"><g transform="translate(147.832812 434.258594) rotate(-90) scale(0.1 -0.1)" fill="#ffffff"><defs><path id="DejaVuSans-53" d="M 3425 4513 L 3425 3897 Q 3066 4069 2747 4153 Q 2428 4238 2131 4238 Q 1616 4238 1336 4038 Q 1056 3838 1056 3469 Q 1056 3159 1242 3001 Q 1428 2844 1947 2747 L 2328 2669 Q 3034 2534 3370 2195 Q 3706 1856 3706 1288 Q 3706 609 3251 259 Q 2797 -91 1919 -91 Q 1588 -91 1214 -16 Q 841 59 441 206 L 441 856 Q 825 641 1194 531 Q 1563 422 1919 422 Q 2459 422 2753 634 Q 3047 847 3047 1241 Q 3047 1584 2836 1778 Q 2625 1972 2144 2069 L 1759 2144 Q 1053 2284 737 2584 Q 422 2884 422 3419 Q 422 4038 858 4394 Q 1294 4750 2059 4750 Q 2388 4750 2728 4690 Q 3069 4631 3425 4513 z" transform="scale(0.015625)"/><path id="DejaVuSans-64" d="M 2906 2969 L 2906 4863 L 3481 4863 L 3481 0 L 2906 0 L 2906 525 Q 2725 213 2448 61 Q 2172 -91 1784 -91 Q 1150 -91 751 415 Q 353 922 353 1747 Q 353 2572 751 3078 Q 1150 3584 1784 3584 Q 2172 3584 2448 3432 Q 2725 3281 2906 2969 z M 947 1747 Q 947 1113 1208 752 Q 1469 391 1925 391 Q 2381 391 2643 752 Q 2906 1113 2906 1747 Q 2906 2381 2643 2742 Q 2381 3103 1925 3103 Q 1469 3103 1208 2742 Q 947 2381 947 1747 z" transform="scale(0.015625)"/><path id="DejaVuSans-62" d="M 3116 1747 Q 3116 2381 2855 2742 Q 2594 3103 2138 3103 Q 1681 3103 1420 2742 Q 1159 2381 1159 1747 Q 1159 1113 1420 752 Q 1681 391 2138 391 Q 2594 391 2855 752 Q 3116 1113 3116 1747 z M 1159 2969 Q 1341 3281 1617 3432 Q 1894 3584 2278 3584 Q 2916 3584 3314 3078 Q 3713 2572 3713 1747 Q 3713 922 3314 415 Q 2916 -91 2278 -91 Q 1894 -91 1617 61 Q 1341 213 1159 525 L 1159 0 L 581 0 L 581 4863 L 1159 4863 L 1159 2969 z" transform="scale(0.015625)"/><path id="DejaVuSans-74" d="M 1172 4494 L 1172 3500 L 2356 3500 L 2356 3053 L 1172 3053 L 1172 1153 Q 1172 725 1289 603 Q 1406 481 1766 481 L 2356 481 L 2356 0 L 1766 0 Q 1100 0 847 248 Q 594 497 594 1153 L 594 3053 L 172 3053 L 172 3500 L 594 3500 L 594 4494 L 1172 4494 z" transform="scale(0.015625)"/><path id="DejaVuSans-77" d="M 269 3500 L 844 3500 L 1563 769 L 2278 3500 L 2956 3500 L 3675 769 L 4391 3500 L 4966 3500 L 4050 0 L 3372 0 L 2619 2869 L 1863 0 L 1184 0 L 269 3500 z" transform="scale(0.015625)"/><path id="DejaVuSans-61" d="M 2194 1759 Q 1497 1759 1228 1600 Q 959 1441 959 1056 Q 959 750 1161 570 Q 1363 391 1709 391 Q 2188 391 2477 730 Q 2766 1069 2766 1631 L 2766 1759 L 2194 1759 z M 3341 1997 L 3341 0 L 2766 0 L 2766 531 Q 2569 213 2275 61 Q 1981 -91 1556 -91 Q 1019 -91 701 211 Q 384 513 384 1019 Q 384 1609 779 1909 Q 1175 2209 1959 2209 L 2766 2209 L 2766 2266 Q 2766 2663 2505 2880 Q 2244 3097 1772 3097 Q 1472 3097 1187 3025 Q 903 2953 641 2809 L 641 3341 Q 956 3463 1253 3523 Q 1550 3584 1831 3584 Q 2591 3584 2966 3190 Q 3341 2797 3341 1997 z" transform="scale(0.015625)"/><path id="DejaVuSans-70" d="M 1159 525 L 1159 -1331 L 581 -1331 L 581 3500 L 1159 3500 L 1159 2969 Q 1341 3281 1617 3432 Q 1894 3584 2278 3584 Q 2916 3584 3314 3078 Q 3713 2572 3713 1747 Q 3713 922 3314 415 Q 2916 -91 2278 -91 Q 1894 -91 1617 61 Q 1341 213 1159 525 z M 3116 1747 Q 3116 2381 2855 2742 Q 2594 3103 2138 3103 Q 1681 3103 1420 2742 Q 1159 2381 1159 1747 Q 1159 1113 1420 752 Q 1681 391 2138 391 Q 2594 391 2855 752 Q 3116 1113 3116 1747 z" transform="scale(0.015625)"/><path id="DejaVuSans-6c" d="M 603 4863 L 1178 4863 L 1178 0 L 603 0 L 603 4863 z" transform="scale(0.015625)"/></defs><use xlink:href="#DejaVuSans-53"/><use xlink:href="#DejaVuSans-65" x="63.477"/><use xlink:href="#DejaVuSans-63" x="125"/><use xlink:href="#DejaVuSans-6f" x="179.98"/><use xlink:href="#DejaVuSans-6e" x="241.162"/><use xlink:href="#DejaVuSans-64" x="304.541"/><use xlink:href="#DejaVuSans-73" x="368.018"/><use xlink:href="#DejaVuSans-20" x="420.117"/><use xlink:href="#DejaVuSans-62" x="451.904"/><use xlink:href="#DejaVuSans-65" x="515.381"/><use xlink:href="#DejaVuSans-74" x="576.904"/><use xlink:href="#DejaVuSans-77" x="616.113"/><use xlink:href="#DejaVuSans-65" x="697.9"/><use xlink:href="#DejaVuSans-65" x="759.424"/><use xlink:href="#DejaVuSans-6e" x="820.947"/><use xlink:href="#DejaVuSans-20" x="884.326"/><use xlink:href="#DejaVuSans-61" x="916.113"/><use xlink:href="#DejaVuSans-6e" x="977.393"/><use xlink:href="#DejaVuSans-20" x="1040.771"/><use xlink:href="#DejaVuSans-75" x="1072.559"/><use xlink:href="#DejaVuSans-70" x="1135.938"/><use xlink:href="#DejaVuSans-6c" x="1199.414"/><use xlink:href="#DejaVuSans-6f" x="1227.197"/><use xlink:href="#DejaVuSans-61" x="1288.379"/><use xlink:href="#DejaVuSans-64" x="1349.658"/></g></g></g><g id="line2d_66"><path d="M 180 615.6 L 181.763033 466.191017 L 183.526066 554.232866 L 185.2891 560.72766 L 187.052133 556.275845 L 188.815166 543.040729 L 190.578199 576.337589 L 195.867299 526.991162 L 197.630332 572.805462 L 199.393365 580.325644 L 201.156398 593.888554 L 202.919431 591.883245 L 204.682464 581.683172 L 206.445498 589.065046 L 208.208531 594.515193 L 209.971564 591.470638 L 211.734597 599.922508 L 213.49763 595.915004 L 215.260664 592.575095 L 217.023697 583.424296 L 218.78673 586.974795 L 220.549763 599.420587 L 222.312796 562.742857 L 224.075829 583.085701 L 225.838863 552.599454 L 227.601896 568.734752 L 229.364929 532.220061 L 231.127962 527.990488 L 232.890995 506.697872 L 234.654028 517.815701 L 236.417062 483.725633 L 238.180095 471.269587 L 239.943128 564.045172 L 241.706161 601.540618 L 243.469194 476.998176 L 245.232227 586.429353 L 246.995261 573.934875 L 248.758294 581.94709 L 250.521327 583.157817 L 252.28436 583.768363 L 254.047393 567.926699 L 255.810427 573.250048 L 257.57346 582.893526 L 259.336493 556.723404 L 261.099526 587.411493 L 262.862559 551.95129 L 266.388626 568.685106 L 268.151659 552.709929 L 269.914692 526.692199 L 271.677725 559.831232 L 273.440758 299.004255 L 275.203791 415.478419 L 276.966825 363.066151 L 278.729858 471.557447 L 280.492891 476.791489 L 282.255924 532.195745 L 284.018957 535.438988 L 285.781991 558.627823 L 287.545024 567.967443 L 289.308057 584.447518 L 291.07109 588.814286 L 292.834123 582.909693 L 294.597156 568.432447 L 296.36019 583.582083 L 298.123223 579.93835 L 299.886256 590.176271 L 301.649289 582.348436 L 303.412322 537.010974 L 305.175355 544.71261 L 306.938389 533.851869 L 308.701422 540.885554 L 310.464455 554.776098 L 312.227488 579.814792 L 313.990521 582.658279 L 315.753555 554.097612 L 317.516588 519.004255 L 319.279621 519.231206 L 321.042654 449.19199 L 322.805687 558.610839 L 324.56872 485.696712 L 326.331754 497.031335 L 328.094787 571.01291 L 329.85782 574.449266 L 331.620853 562.834043 L 333.383886 583.540244 L 335.146919 569.797292 L 336.909953 563.81493 L 338.672986 563.538371 L 340.436019 589.9022 L 342.199052 589.749861 L 343.962085 569.848872 L 345.725118 571.654159 L 347.488152 587.801161 L 349.251185 572.581383 L 351.014218 589.683256 L 352.777251 543.259574 L 354.540284 517.475493 L 356.303318 534.137234 L 358.066351 523.163487 L 359.829384 484.657751 L 361.592417 495.6 L 363.35545 519.292519 L 365.118483 485.720259 L 366.881517 517.562938 L 368.64455 545.974873 L 370.407583 564.319798 L 372.170616 578.610638 L 373.933649 586.508347 L 375.696682 599.78883 L 377.459716 589.283626 L 379.222749 577.578723 L 380.985782 595.818365 L 382.748815 595.157333 L 384.511848 591.00286 L 386.274882 590.542449 L 388.037915 593.121902 L 389.800948 585.637547 L 391.563981 585.031177 L 393.327014 576.771594 L 395.090047 570.235719 L 396.853081 565.231206 L 398.616114 549.901573 L 400.379147 541.163051 L 402.14218 537.190146 L 403.905213 524.315524 L 405.668246 553.749431 L 407.43128 478.713102 L 409.194313 528.591239 L 410.957346 537.682867 L 412.720379 579.332376 L 414.483412 585.769783 L 416.246445 590.415603 L 418.009479 594.233503 L 419.772512 592.699836 L 421.535545 596.923877 L 423.298578 599.772886 L 425.061611 594.457143 L 426.824645 594.34721 L 428.587678 591.109787 L 430.350711 602.452914 L 432.113744 598.283752 L 433.876777 594.837589 L 435.63981 584.341135 L 437.402844 535.363593 L 439.165877 566.991699 L 442.691943 549.346531 L 444.454976 571.23204 L 446.218009 536.038427 L 447.981043 569.526499 L 449.744076 590.828462 L 451.507109 585.123404 L 453.270142 589.60982 L 455.033175 590.547255 L 456.796209 596.337948 L 458.559242 601.738152 L 460.322275 601.200484 L 462.085308 592.32243 L 463.848341 598.36716 L 465.611374 600.488324 L 467.374408 593.279764 L 470.900474 600.540426 L 472.663507 597.125688 L 474.42654 592.875326 L 476.189573 597.36583 L 477.952607 600.602646 L 479.71564 578.302128 L 481.478673 543.805128 L 483.241706 568.048497 L 485.004739 580.249715 L 486.767773 584.824156 L 488.530806 572.950914 L 490.293839 587.619269 L 492.056872 594.335307 L 493.819905 592.834043 L 495.582938 598.081025 L 497.345972 597.802314 L 499.109005 596.981021 L 500.872038 601.937182 L 502.635071 602.366142 L 504.398104 598.511786 L 506.161137 599.658231 L 507.924171 595.174468 L 509.687204 599.411583 L 511.450237 596.325586 L 514.976303 590.733202 L 516.739336 594.445859 L 518.50237 591.668896 L 520.265403 566.910913 L 522.028436 557.744026 L 523.791469 581.387234 L 525.554502 573.200473 L 527.317536 543.624316 L 529.080569 474.110638 L 530.843602 534.695745 L 532.606635 547.138842 L 534.369668 553.685106 L 536.132701 547.050677 L 537.895735 562.972588 L 539.658768 583.883688 L 541.421801 583.766591 L 543.184834 582.228842 L 544.947867 574.64401 L 546.7109 590.402691 L 548.473934 600.607861 L 550.236967 589.194427 L 552 598.964725 L 553.763033 597.360734 L 555.526066 597.753294 L 557.2891 590.856876 L 559.052133 581.122244 L 560.815166 587.081333 L 562.578199 572.454764 L 564.341232 556.468085 L 566.104265 528.694225 L 567.867299 537.10056 L 569.630332 500.346318 L 571.393365 566.349913 L 573.156398 529.448024 L 574.919431 565.415603 L 576.682464 539.765733 L 578.445498 579.191074 L 580.208531 529.242053 L 581.971564 571.903588 L 583.734597 583.927614 L 585.49763 579.72202 L 587.260664 595.904736 L 589.023697 577.578723 L 590.78673 587.50694 L 592.549763 584.207151 L 594.312796 593.643778 L 596.075829 597.772716 L 597.838863 593.843161 L 599.601896 594.552769 L 601.364929 595.880907 L 603.127962 596.578723 L 604.890995 569.380687 L 606.654028 589.488481 L 608.417062 560.553834 L 610.180095 523.068819 L 611.943128 532.341641 L 613.706161 548.532019 L 615.469194 561.286654 L 617.232227 571.702374 L 618.995261 495.055319 L 620.758294 563.655759 L 622.521327 567.446259 L 624.28436 565.741844 L 626.047393 594.66383 L 627.810427 591.918811 L 629.57346 586.868412 L 631.336493 570.633344 L 633.099526 589.855319 L 634.862559 583.137994 L 636.625592 593.024744 L 638.388626 596.251764 L 640.151659 595.835768 L 641.914692 598.492661 L 643.677725 596.118276 L 645.440758 586.538673 L 647.203791 588.289285 L 648.966825 564.418782 L 650.729858 551.286654 L 652.492891 569.268601 L 654.255924 529.642553 L 656.018957 536.380142 L 657.781991 520.390666 L 659.545024 527.674468 L 661.308057 263.47234 L 663.07109 573.789991 L 664.834123 581.023058 L 666.597156 570.137949 L 668.36019 574.334905 L 670.123223 581.136806 L 671.886256 582.994799 L 673.649289 577.506814 L 675.412322 597.245732 L 677.175355 592.938838 L 678.938389 595.186207 L 680.701422 588.845648 L 682.464455 596.744443 L 684.227488 596.316541 L 685.990521 596.529665 L 687.753555 582.612026 L 689.516588 560.868859 L 691.279621 559.943637 L 693.042654 542.429787 L 694.805687 540.430362 L 696.56872 505.06383 L 698.331754 533.47234 L 700.094787 523.994584 L 701.85782 538.578723 L 703.620853 533.874871 L 705.383886 560.110638 L 707.146919 588.068085 L 708.909953 582.53802 L 710.672986 584.943785 L 712.436019 584.944509 L 714.199052 597.564581 L 715.962085 587.166363 L 717.725118 574.422501 L 719.488152 579.953519 L 721.251185 582.417967 L 723.014218 596.566145 L 724.777251 586.811129 L 726.540284 593.839706 L 728.303318 593.203254 L 730.066351 589.315805 L 731.829384 569.810187 L 733.592417 528.711702 L 735.35545 567.129889 L 737.118483 562.104559 L 738.881517 559.363037 L 740.64455 533.046809 L 742.407583 546.129441 L 744.170616 581.869504 L 745.933649 584.935381 L 747.696682 582.314987 L 749.459716 587.870793 L 751.222749 584.323404 L 752.985782 590.147422 L 754.748815 589.416836 L 756.511848 597.712186 L 758.274882 599.19517 L 760.037915 598.554951 L 761.800948 599.112363 L 763.563981 597.657572 L 765.327014 592.533468 L 767.090047 565.444933 L 768.853081 590.772654 L 770.616114 597.111552 L 772.379147 585.251064 L 774.14218 588.485265 L 775.905213 582.876128 L 777.668246 556.893283 L 779.43128 505.119307 L 781.194313 485.20222 L 782.957346 539.107415 L 784.720379 551.92855 L 786.483412 558.284124 L 788.246445 556.476095 L 790.009479 581.718203 L 791.772512 591.382737 L 793.535545 591.166232 L 795.298578 591.542369 L 797.061611 598.521348 L 798.824645 591.473016 L 800.587678 594.728393 L 802.350711 594.748936 L 804.113744 594.183587 L 805.876777 598.685106 L 807.63981 599.687823 L 809.402844 597.229476 L 811.165877 597.951624 L 812.92891 594.191549 L 814.691943 582.174702 L 816.454976 583.940426 L 818.218009 581.762876 L 821.744076 558.970213 L 823.507109 477.92791 L 825.270142 430.145455 L 827.033175 519.770213 L 828.796209 524.097743 L 830.559242 362.447195 L 832.322275 111.6 L 834.085308 537.126909 L 835.848341 532.438906 L 837.611374 560.91528 L 839.374408 581.547884 L 841.137441 586.800321 L 842.900474 588.510334 L 844.663507 594.143602 L 846.42654 593.292188 L 848.189573 597.401151 L 849.952607 592.755302 L 851.71564 557.053901 L 853.478673 584.18156 L 855.241706 582.815541 L 857.004739 575.801568 L 858.767773 574.16974 L 860.530806 525.415603 L 862.293839 531.997163 L 864.056872 368.961702 L 865.819905 544.110638 M 871.109005 511.770213 L 872.872038 549.122459 L 874.635071 545.582749 L 876.398104 427.004255 L 878.161137 571.94906 L 879.924171 580.706383 L 881.687204 579.939375 L 883.450237 572.508636 L 885.21327 575.384397 L 886.976303 585.903656 L 888.739336 587.308093 L 890.50237 572.750786 L 892.265403 597.286367 L 894.028436 599.237005 L 895.791469 592.962992 L 897.554502 582.162648 L 899.317536 597.074642 L 901.080569 599.096762 L 902.843602 591.912057 L 904.606635 585.612516 L 906.369668 563.112573 L 908.132701 557.367594 L 909.895735 562.362918 L 911.658768 526.40302 L 913.421801 526.638798 L 915.184834 548.920139 L 916.947867 569.406874 L 918.7109 563.919883 L 920.473934 559.429787 L 922.236967 580.767173 L 924 581.895938 L 925.763033 595.85974 L 927.526066 591.797666 L 929.2891 595.260146 L 931.052133 593.163436 L 934.578199 594.617081 L 936.341232 600.259468 L 938.104265 595.577305 L 939.867299 587.893144 L 941.630332 594.371016 L 943.393365 596.409883 L 945.156398 591.528966 L 946.919431 576.108428 L 948.682464 586.093617 L 950.445498 581.026783 L 952.208531 571.782728 L 953.971564 552.248936 L 955.734597 518.748936 L 957.49763 419.855319 L 959.260664 556.539716 L 961.023697 549.971373 L 962.78673 567.174468 L 964.549763 575.001955 L 966.312796 583.591041 L 968.075829 588.397478 L 969.838863 595.804476 L 971.601896 593.891793 L 973.364929 593.421907 L 975.127962 589.837288 L 976.890995 594.317453 L 978.654028 590.758702 L 980.417062 594.770062 L 982.180095 588.574855 L 983.943128 593.863706 L 985.706161 589.315805 L 987.469194 584.327931 L 989.232227 578.258261 L 990.995261 562.72766 L 992.758294 575.715009 L 994.521327 545.159624 L 996.28436 539.273012 L 998.047393 538.065903 L 999.810427 527.119757 L 1001.57346 518.068085 L 1003.336493 524.61354 L 1005.099526 466.876596 L 1006.862559 549.44913 L 1008.625592 594.500709 L 1010.388626 592.502524 L 1012.151659 597.144523 L 1013.914692 597.816724 L 1015.677725 599.497332 L 1017.440758 601.671322 L 1019.203791 600.465102 L 1020.966825 589.538037 L 1022.729858 601.422231 L 1024.492891 597.121995 L 1026.255924 594.263045 L 1028.018957 587.924952 L 1029.781991 597.747923 L 1031.545024 595.720759 L 1033.308057 588.499921 L 1035.07109 568.935516 L 1036.834123 557.383961 L 1038.597156 562.91003 L 1040.36019 532.219385 L 1042.123223 566.70501 L 1043.886256 562.509091 L 1045.649289 578.96324 L 1047.412322 590.939907 L 1049.175355 577.376596 L 1050.938389 596.307378 L 1052.701422 601.172636 L 1054.464455 601.003217 L 1056.227488 600.289535 L 1057.990521 601.295735 L 1059.753555 595.377371 L 1061.516588 600.813799 L 1063.279621 597.68761 L 1065.042654 585.421277 L 1066.805687 588.802787 L 1068.56872 594.51253 L 1070.331754 594.244377 L 1072.094787 585.929579 L 1073.85782 593.409762 L 1075.620853 596.133948 L 1077.383886 593.046809 L 1079.146919 590.983515 L 1080.909953 562.454103 L 1082.672986 544.988298 L 1084.436019 566.056924 L 1086.199052 581.136806 L 1087.962085 567.91383 L 1089.725118 584.875736 L 1091.488152 591.292787 L 1093.251185 593.971878 L 1095.014218 603.07823 L 1096.777251 596.058265 L 1098.540284 595.838847 L 1100.303318 588.938354 L 1102.066351 592.431424 L 1103.829384 593.901072 L 1105.592417 600.53617 L 1107.35545 599.735638 L 1109.118483 595.865267 L 1110.881517 583.841881 L 1112.64455 593.382755 L 1114.407583 598.234362 L 1116.170616 569.485434 L 1117.933649 559.156804 L 1119.696682 539.049048 L 1121.459716 531.831003 L 1123.222749 523.770213 L 1124.985782 502.637643 L 1126.748815 534.198248 L 1128.511848 537.481299 L 1130.274882 544.650337 L 1132.037915 575.454103 L 1133.800948 567.670247 L 1135.563981 581.689835 L 1137.327014 584.36773 L 1139.090047 585.903656 L 1140.853081 592.510833 L 1142.616114 595.322976 L 1144.379147 590.869086 L 1146.14218 590.856366 L 1147.905213 585.361702 L 1149.668246 572.451064 L 1151.43128 539.631355 L 1153.194313 535.623641 L 1154.957346 554.199291 L 1156.720379 553.951064 L 1158.483412 526.08811 L 1160.246445 525.22766 L 1162.009479 497.676596 L 1163.772512 537.180547 L 1165.535545 501.489362 L 1167.298578 390.76441 L 1169.061611 544.678014 L 1170.824645 493.394971 L 1172.587678 479.323404 L 1174.350711 489.804661 L 1176.113744 528.077694 L 1177.876777 572.830867 L 1179.63981 568.485638 L 1181.402844 583.848076 L 1183.165877 546.387234 L 1184.92891 572.807072 L 1186.691943 569.230319 L 1188.454976 589.847982 L 1190.218009 585.50099 L 1191.981043 586.303764 L 1193.744076 588.102901 L 1195.507109 542.168467 L 1197.270142 561.442881 L 1199.033175 558.005892 L 1200.796209 555.521841 L 1202.559242 523.245848 L 1204.322275 500.739116 L 1206.085308 532.195745 L 1207.848341 531.888416 L 1209.611374 549.346531 L 1211.374408 523.932189 L 1213.137441 513.031048 L 1214.900474 543.674728 L 1218.42654 571.849549 L 1220.189573 524.175113 L 1221.952607 569.044149 L 1223.71564 575.703508 L 1225.478673 560.404642 L 1227.241706 578.594484 L 1229.004739 592.089362 L 1230.767773 593.858074 L 1232.530806 588.704877 L 1234.293839 594.704916 L 1236.056872 590.316312 L 1237.819905 580.597526 L 1239.582938 586.622913 L 1241.345972 576.92766 L 1243.109005 559.335225 L 1244.872038 558.771417 L 1246.635071 511.377414 L 1248.398104 492.454764 L 1250.161137 570.05519 L 1251.924171 570.97234 L 1253.687204 568.937766 L 1255.450237 530.104559 L 1257.21327 563.305167 L 1258.976303 555.73617 L 1260.739336 560.296909 L 1262.50237 582.695386 L 1264.265403 556.995745 L 1266.028436 582.143735 L 1267.791469 573.980615 L 1269.554502 578.280851 L 1271.317536 589.415114 L 1273.080569 595.605599 L 1274.843602 595.099712 L 1276.606635 591.225532 L 1278.369668 576.238298 L 1280.132701 581.459623 L 1281.895735 586.26779 L 1283.658768 576.190071 L 1285.421801 574.609035 L 1288.947867 530.274772 L 1290.7109 521.0221 L 1292.473934 550.721227 L 1294.236967 518.079824 L 1296 550.308603 L 1297.763033 565.675988 L 1299.526066 519.146099 L 1301.2891 551.987506 L 1303.052133 557.911222 L 1304.815166 581.731528 L 1306.578199 593.408828 L 1308.341232 587.012361 L 1310.104265 595.992588 L 1311.867299 598.816451 L 1313.630332 597.697444 L 1315.393365 596.147112 L 1317.156398 600.905787 L 1318.919431 600.919149 L 1320.682464 596.113384 L 1322.445498 589.416836 L 1324.208531 597.717281 L 1327.734597 577.474495 L 1329.49763 554.455792 L 1331.260664 547.110638 L 1333.023697 587.858442 L 1334.78673 589.923837 L 1336.549763 552.380759 L 1338.312796 564.037271 L 1340.075829 553.63531 L 1341.838863 562.512886 L 1343.601896 578.88121 L 1345.364929 597.235478 L 1347.127962 594.842203 L 1348.890995 600.135332 L 1350.654028 587.443309 L 1352.417062 596.995952 L 1354.180095 601.762476 L 1355.943128 603.982979 L 1357.706161 599.644793 L 1359.469194 600.578514 L 1361.232227 597.379031 L 1362.995261 589.880563 L 1364.758294 600.725249 L 1366.521327 597.890945 L 1368.28436 599.330195 L 1370.047393 583.332005 L 1371.810427 569.930606 L 1373.57346 578.402283 L 1375.336493 580.191542 L 1377.099526 578.443799 L 1378.862559 574.53617 L 1380.625592 580.526158 L 1382.388626 585.602107 L 1384.151659 600.772012 L 1385.914692 596.755766 L 1387.677725 591.195918 L 1389.440758 596.501914 L 1391.203791 595.888264 L 1392.966825 593.925034 L 1394.729858 600.138287 L 1396.492891 599.314154 L 1398.255924 605.055613 L 1400.018957 601.994377 L 1401.781991 595.35642 L 1403.545024 595.577604 L 1405.308057 597.752544 L 1407.07109 593.991429 L 1408.834123 594.925517 L 1410.597156 597.276493 L 1412.36019 587.316047 L 1414.123223 588.140676 L 1415.886256 559.696788 L 1417.649289 540.400873 L 1419.412322 552.306753 L 1421.175355 483.685106 L 1424.701422 558.092401 L 1426.464455 551.640703 L 1428.227488 577.688975 L 1429.990521 575.168794 L 1431.753555 580.736071 L 1433.516588 571.77638 L 1435.279621 594.636643 L 1437.042654 595.65918 L 1438.805687 594.563141 L 1440.56872 596.296571 L 1441 596.977861 L 1441 596.977861" clip-path="url(#pabe36cc5bd)" fill="none" stroke="#8dd3c7" stroke-width="1.5" stroke-linecap="square"/></g><g id="patch_3"><path d="M 180 640.8 L 180 86.4" fill="none" stroke="#ffffff" stroke-width="0.8" stroke-linejoin="miter" stroke-linecap="square"/></g><g id="patch_4"><path d="M 1296 640.8 L 1296 86.4" fill="none" stroke="#ffffff" stroke-width="0.8" stroke-linejoin="miter" stroke-linecap="square"/></g><g id="patch_5"><path d="M 180 640.8 L 1296 640.8" fill="none" stroke="#ffffff" stroke-width="0.8" stroke-linejoin="miter" stroke-linecap="square"/></g><g id="patch_6"><path d="M 180 86.4 L 1296 86.4" fill="none" stroke="#ffffff" stroke-width="0.8" stroke-linejoin="miter" stroke-linecap="square"/></g><g id="text_17"><g transform="translate(676.92375 80.4) scale(0.12 -0.12)" fill="#ffffff"><defs><path id="DejaVuSans-41" d="M 2188 4044 L 1331 1722 L 3047 1722 L 2188 4044 z M 1831 4666 L 2547 4666 L 4325 0 L 3669 0 L 3244 1197 L 1141 1197 L 716 0 L 50 0 L 1831 4666 z" transform="scale(0.015625)"/><path id="DejaVuSans-76" d="M 191 3500 L 800 3500 L 1894 563 L 2988 3500 L 3597 3500 L 2284 0 L 1503 0 L 191 3500 z" transform="scale(0.015625)"/><path id="DejaVuSans-67" d="M 2906 1791 Q 2906 2416 2648 2759 Q 2391 3103 1925 3103 Q 1463 3103 1205 2759 Q 947 2416 947 1791 Q 947 1169 1205 825 Q 1463 481 1925 481 Q 2391 481 2648 825 Q 2906 1169 2906 1791 z M 3481 434 Q 3481 -459 3084 -895 Q 2688 -1331 1869 -1331 Q 1566 -1331 1297 -1286 Q 1028 -1241 775 -1147 L 775 -588 Q 1028 -725 1275 -790 Q 1522 -856 1778 -856 Q 2344 -856 2625 -561 Q 2906 -266 2906 331 L 2906 616 Q 2728 306 2450 153 Q 2172 0 1784 0 Q 1141 0 747 490 Q 353 981 353 1791 Q 353 2603 747 3093 Q 1141 3584 1784 3584 Q 2172 3584 2450 3431 Q 2728 3278 2906 2969 L 2906 3500 L 3481 3500 L 3481 434 z" transform="scale(0.015625)"/></defs><use xlink:href="#DejaVuSans-41"/><use xlink:href="#DejaVuSans-76" x="62.533"/><use xlink:href="#DejaVuSans-65" x="121.713"/><use xlink:href="#DejaVuSans-72" x="183.236"/><use xlink:href="#DejaVuSans-61" x="224.35"/><use xlink:href="#DejaVuSans-67" x="285.629"/><use xlink:href="#DejaVuSans-65" x="349.105"/><use xlink:href="#DejaVuSans-20" x="410.629"/><use xlink:href="#DejaVuSans-75" x="442.416"/><use xlink:href="#DejaVuSans-70" x="505.795"/><use xlink:href="#DejaVuSans-6c" x="569.271"/><use xlink:href="#DejaVuSans-6f" x="597.055"/><use xlink:href="#DejaVuSans-61" x="658.236"/><use xlink:href="#DejaVuSans-64" x="719.516"/><use xlink:href="#DejaVuSans-20" x="782.992"/><use xlink:href="#DejaVuSans-72" x="814.779"/><use xlink:href="#DejaVuSans-61" x="855.893"/><use xlink:href="#DejaVuSans-74" x="917.172"/><use xlink:href="#DejaVuSans-65" x="956.381"/></g></g></g></g><defs><clipPath id="pabe36cc5bd"><rect x="180" y="86.4" width="1116" height="554.4"/></clipPath></defs></svg>