<svg xmlns:xlink="http://www.w3.org/1999/xlink" width="1920" height="960" viewBox="0 0 1440 720" xmlns="http://www.w3.org/2000/svg" version="1.1"><metadata><rdf:RDF xmlns:dc="http://purl.org/dc/elements/1.1/" xmlns:cc="http://creativecommons.org/ns#" xmlns:rdf="http://www.w3.org/1999/02/22-rdf-syntax-ns#"><cc:Work><dc:type rdf:resource="http://purl.org/dc/dcmitype/StillImage"/><dc:format>image/svg+xml</dc:format><dc:creator><cc:Agent><dc:title>Matplotlib v3.7.1, https://matplotlib.org/</dc:title></cc:Agent></dc:creator></cc:Work></rdf:RDF></metadata><defs><style type="text/css">*{stroke-linejoin:round;stroke-linecap:butt}</style></defs><g id="figure_1"><g id="patch_1"><path d="M 0 720 L 1440 720 L 1440 0 L 0 0 z"/></g><g id="axes_1"><g id="patch_2"><path d="M 180 640.8 L 1296 640.8 L 1296 86.4 L 180 86.4 z"/></g><g id="matplotlib.axis_1"><g id="xtick_1"><g id="line2d_1"><defs><path id="m811e1bea81" d="M 0 0 L 0 3.5" stroke="#ffffff" stroke-width="0.8"/></defs><g><use xlink:href="#m811e1bea81" x="180" y="640.8" fill="#ffffff" stroke="#ffffff" stroke-width="0.8"/></g></g><g id="text_1"><g transform="translate(176.81875 655.398438) scale(0.1 -0.1)" fill="#ffffff"><defs><path id="DejaVuSans-30" d="M 2034 4250 Q 1547 4250 1301 3770 Q 1056 3291 1056 2328 Q 1056 1369 1301 889 Q 1547 409 2034 409 Q 2525 409 2770 889 Q 3016 1369 3016 2328 Q 3016 3291 2770 3770 Q 2525 4250 2034 4250 z M 2034 4750 Q 2819 4750 3233 4129 Q 3647 3509 3647 2328 Q 3647 1150 3233 529 Q 2819 -91 2034 -91 Q 1250 -91 836 529 Q 422 1150 422 2328 Q 422 3509 836 4129 Q 1250 4750 2034 4750 z" transform="scale(0.015625)"/></defs><use xlink:href="#DejaVuSans-30"/></g></g></g><g id="xtick_2"><g id="line2d_2"><g><use xlink:href="#m811e1bea81" x="314.946" y="640.8" fill="#ffffff" stroke="#ffffff" stroke-width="0.8"/></g></g><g id="text_2"><g transform="translate(305.401836 655.398438) scale(0.1 -0.1)" fill="#ffffff"><defs><path id="DejaVuSans-31" d="M 794 531 L 1825 531 L 1825 4091 L 703 3866 L 703 4441 L 1819 4666 L 2450 4666 L 2450 531 L 3481 531 L 3481 0 L 794 0 L 794 531 z" transform="scale(0.015625)"/></defs><use xlink:href="#DejaVuSans-31"/><use xlink:href="#DejaVuSans-30" x="63.623"/><use xlink:href="#DejaVuSans-30" x="127.246"/></g></g></g><g id="xtick_3"><g id="line2d_3"><g><use xlink:href="#m811e1bea81" x="449.891" y="640.8" fill="#ffffff" stroke="#ffffff" stroke-width="0.8"/></g></g><g id="text_3"><g transform="translate(440.347423 655.398438) scale(0.1 -0.1)" fill="#ffffff"><defs><path id="DejaVuSans-32" d="M 1228 531 L 3431 531 L 3431 0 L 469 0 L 469 531 Q 828 903 1448 1529 Q 2069 2156 2228 2338 Q 2531 2678 2651 2914 Q 2772 3150 2772 3378 Q 2772 3750 2511 3984 Q 2250 4219 1831 4219 Q 1534 4219 1204 4116 Q 875 4013 500 3803 L 500 4441 Q 881 4594 1212 4672 Q 1544 4750 1819 4750 Q 2544 4750 2975 4387 Q 3406 4025 3406 3419 Q 3406 3131 3298 2873 Q 3191 2616 2906 2266 Q 2828 2175 2409 1742 Q 1991 1309 1228 531 z" transform="scale(0.015625)"/></defs><use xlink:href="#DejaVuSans-32"/><use xlink:href="#DejaVuSans-30" x="63.623"/><use xlink:href="#DejaVuSans-30" x="127.246"/></g></g></g><g id="xtick_4"><g id="line2d_4"><g><use xlink:href="#m811e1bea81" x="584.837" y="640.8" fill="#ffffff" stroke="#ffffff" stroke-width="0.8"/></g></g><g id="text_4"><g transform="translate(575.293009 655.398438) scale(0.1 -0.1)" fill="#ffffff"><defs><path id="DejaVuSans-33" d="M 2597 2516 Q 3050 2419 3304 2112 Q 3559 1806 3559 1356 Q 3559 666 3084 287 Q 2609 -91 1734 -91 Q 1441 -91 1130 -33 Q 819 25 488 141 L 488 750 Q 750 597 1062 519 Q 1375 441 1716 441 Q 2309 441 2620 675 Q 2931 909 2931 1356 Q 2931 1769 2642 2001 Q 2353 2234 1838 2234 L 1294 2234 L 1294 2753 L 1863 2753 Q 2328 2753 2575 2939 Q 2822 3125 2822 3475 Q 2822 3834 2567 4026 Q 2313 4219 1838 4219 Q 1578 4219 1281 4162 Q 984 4106 628 3988 L 628 4550 Q 988 4650 1302 4700 Q 1616 4750 1894 4750 Q 2613 4750 3031 4423 Q 3450 4097 3450 3541 Q 3450 3153 3228 2886 Q 3006 2619 2597 2516 z" transform="scale(0.015625)"/></defs><use xlink:href="#DejaVuSans-33"/><use xlink:href="#DejaVuSans-30" x="63.623"/><use xlink:href="#DejaVuSans-30" x="127.246"/></g></g></g><g id="xtick_5"><g id="line2d_5"><g><use xlink:href="#m811e1bea81" x="719.782" y="640.8" fill="#ffffff" stroke="#ffffff" stroke-width="0.8"/></g></g><g id="text_5"><g transform="translate(710.238596 655.398438) scale(0.1 -0.1)" fill="#ffffff"><defs><path id="DejaVuSans-34" d="M 2419 4116 L 825 1625 L 2419 1625 L 2419 4116 z M 2253 4666 L 3047 4666 L 3047 1625 L 3713 1625 L 3713 1100 L 3047 1100 L 3047 0 L 2419 0 L 2419 1100 L 313 1100 L 313 1709 L 2253 4666 z" transform="scale(0.015625)"/></defs><use xlink:href="#DejaVuSans-34"/><use xlink:href="#DejaVuSans-30" x="63.623"/><use xlink:href="#DejaVuSans-30" x="127.246"/></g></g></g><g id="xtick_6"><g id="line2d_6"><g><use xlink:href="#m811e1bea81" x="854.728" y="640.8" fill="#ffffff" stroke="#ffffff" stroke-width="0.8"/></g></g><g id="text_6"><g transform="translate(845.184182 655.398438) scale(0.1 -0.1)" fill="#ffffff"><defs><path id="DejaVuSans-35" d="M 691 4666 L 3169 4666 L 3169 4134 L 1269 4134 L 1269 2991 Q 1406 3038 1543 3061 Q 1681 3084 1819 3084 Q 2600 3084 3056 2656 Q 3513 2228 3513 1497 Q 3513 744 3044 326 Q 2575 -91 1722 -91 Q 1428 -91 1123 -41 Q 819 9 494 109 L 494 744 Q 775 591 1075 516 Q 1375 441 1709 441 Q 2250 441 2565 725 Q 2881 1009 2881 1497 Q 2881 1984 2565 2268 Q 2250 2553 1709 2553 Q 1456 2553 1204 2497 Q 953 2441 691 2322 L 691 4666 z" transform="scale(0.015625)"/></defs><use xlink:href="#DejaVuSans-35"/><use xlink:href="#DejaVuSans-30" x="63.623"/><use xlink:href="#DejaVuSans-30" x="127.246"/></g></g></g><g id="xtick_7"><g id="line2d_7"><g><use xlink:href="#m811e1bea81" x="989.674" y="640.8" fill="#ffffff" stroke="#ffffff" stroke-width="0.8"/></g></g><g id="text_7"><g transform="translate(980.129769 655.398438) scale(0.1 -0.1)" fill="#ffffff"><defs><path id="DejaVuSans-36" d="M 2113 2584 Q 1688 2584 1439 2293 Q 1191 2003 1191 1497 Q 1191 994 1439 701 Q 1688 409 2113 409 Q 2538 409 2786 701 Q 3034 994 3034 1497 Q 3034 2003 2786 2293 Q 2538 2584 2113 2584 z M 3366 4563 L 3366 3988 Q 3128 4100 2886 4159 Q 2644 4219 2406 4219 Q 1781 4219 1451 3797 Q 1122 3375 1075 2522 Q 1259 2794 1537 2939 Q 1816 3084 2150 3084 Q 2853 3084 3261 2657 Q 3669 2231 3669 1497 Q 3669 778 3244 343 Q 2819 -91 2113 -91 Q 1303 -91 875 529 Q 447 1150 447 2328 Q 447 3434 972 4092 Q 1497 4750 2381 4750 Q 2619 4750 2861 4703 Q 3103 4656 3366 4563 z" transform="scale(0.015625)"/></defs><use xlink:href="#DejaVuSans-36"/><use xlink:href="#DejaVuSans-30" x="63.623"/><use xlink:href="#DejaVuSans-30" x="127.246"/></g></g></g><g id="xtick_8"><g id="line2d_8"><g><use xlink:href="#m811e1bea81" x="1124.619" y="640.8" fill="#ffffff" stroke="#ffffff" stroke-width="0.8"/></g></g><g id="text_8"><g transform="translate(1115.075355 655.398438) scale(0.1 -0.1)" fill="#ffffff"><defs><path id="DejaVuSans-37" d="M 525 4666 L 3525 4666 L 3525 4397 L 1831 0 L 1172 0 L 2766 4134 L 525 4134 L 525 4666 z" transform="scale(0.015625)"/></defs><use xlink:href="#DejaVuSans-37"/><use xlink:href="#DejaVuSans-30" x="63.623"/><use xlink:href="#DejaVuSans-30" x="127.246"/></g></g></g><g id="xtick_9"><g id="line2d_9"><g><use xlink:href="#m811e1bea81" x="1259.565" y="640.8" fill="#ffffff" stroke="#ffffff" stroke-width="0.8"/></g></g><g id="text_9"><g transform="translate(1250.020942 655.398438) scale(0.1 -0.1)" fill="#ffffff"><defs><path id="DejaVuSans-38" d="M 2034 2216 Q 1584 2216 1326 1975 Q 1069 1734 1069 1313 Q 1069 891 1326 650 Q 1584 409 2034 409 Q 2484 409 2743 651 Q 3003 894 3003 1313 Q 3003 1734 2745 1975 Q 2488 2216 2034 2216 z M 1403 2484 Q 997 2584 770 2862 Q 544 3141 544 3541 Q 544 4100 942 4425 Q 1341 4750 2034 4750 Q 2731 4750 3128 4425 Q 3525 4100 3525 3541 Q 3525 3141 3298 2862 Q 3072 2584 2669 2484 Q 3125 2378 3379 2068 Q 3634 1759 3634 1313 Q 3634 634 3220 271 Q 2806 -91 2034 -91 Q 1263 -91 848 271 Q 434 634 434 1313 Q 434 1759 690 2068 Q 947 2378 1403 2484 z M 1172 3481 Q 1172 3119 1398 2916 Q 1625 2713 2034 2713 Q 2441 2713 2670 2916 Q 2900 3119 2900 3481 Q 2900 3844 2670 4047 Q 2441 4250 2034 4250 Q 1625 4250 1398 4047 Q 1172 3844 1172 3481 z" transform="scale(0.015625)"/></defs><use xlink:href="#DejaVuSans-38"/><use xlink:href="#DejaVuSans-30" x="63.623"/><use xlink:href="#DejaVuSans-30" x="127.246"/></g></g></g><g id="xtick_10"><g id="line2d_10"><defs><path id="m15e6190fe6" d="M 0 0 L 0 2" stroke="#ffffff" stroke-width="0.6"/></defs><g><use xlink:href="#m15e6190fe6" x="206.989" y="640.8" fill="#ffffff" stroke="#ffffff" stroke-width="0.6"/></g></g></g><g id="xtick_11"><g id="line2d_11"><g><use xlink:href="#m15e6190fe6" x="233.978" y="640.8" fill="#ffffff" stroke="#ffffff" stroke-width="0.6"/></g></g></g><g id="xtick_12"><g id="line2d_12"><g><use xlink:href="#m15e6190fe6" x="260.967" y="640.8" fill="#ffffff" stroke="#ffffff" stroke-width="0.6"/></g></g></g><g id="xtick_13"><g id="line2d_13"><g><use xlink:href="#m15e6190fe6" x="287.956" y="640.8" fill="#ffffff" stroke="#ffffff" stroke-width="0.6"/></g></g></g><g id="xtick_14"><g id="line2d_14"><g><use xlink:href="#m15e6190fe6" x="341.935" y="640.8" fill="#ffffff" stroke="#ffffff" stroke-width="0.6"/></g></g></g><g id="xtick_15"><g id="line2d_15"><g><use xlink:href="#m15e6190fe6" x="368.924" y="640.8" fill="#ffffff" stroke="#ffffff" stroke-width="0.6"/></g></g></g><g id="xtick_16"><g id="line2d_16"><g><use xlink:href="#m15e6190fe6" x="395.913" y="640.8" fill="#ffffff" stroke="#ffffff" stroke-width="0.6"/></g></g></g><g id="xtick_17"><g id="line2d_17"><g><use xlink:href="#m15e6190fe6" x="422.902" y="640.8" fill="#ffffff" stroke="#ffffff" stroke-width="0.6"/></g></g></g><g id="xtick_18"><g id="line2d_18"><g><use xlink:href="#m15e6190fe6" x="476.88" y="640.8" fill="#ffffff" stroke="#ffffff" stroke-width="0.6"/></g></g></g><g id="xtick_19"><g id="line2d_19"><g><use xlink:href="#m15e6190fe6" x="503.869" y="640.8" fill="#ffffff" stroke="#ffffff" stroke-width="0.6"/></g></g></g><g id="xtick_20"><g id="line2d_20"><g><use xlink:href="#m15e6190fe6" x="530.859" y="640.8" fill="#ffffff" stroke="#ffffff" stroke-width="0.6"/></g></g></g><g id="xtick_21"><g id="line2d_21"><g><use xlink:href="#m15e6190fe6" x="557.848" y="640.8" fill="#ffffff" stroke="#ffffff" stroke-width="0.6"/></g></g></g><g id="xtick_22"><g id="line2d_22"><g><use xlink:href="#m15e6190fe6" x="611.826" y="640.8" fill="#ffffff" stroke="#ffffff" stroke-width="0.6"/></g></g></g><g id="xtick_23"><g id="line2d_23"><g><use xlink:href="#m15e6190fe6" x="638.815" y="640.8" fill="#ffffff" stroke="#ffffff" stroke-width="0.6"/></g></g></g><g id="xtick_24"><g id="line2d_24"><g><use xlink:href="#m15e6190fe6" x="665.804" y="640.8" fill="#ffffff" stroke="#ffffff" stroke-width="0.6"/></g></g></g><g id="xtick_25"><g id="line2d_25"><g><use xlink:href="#m15e6190fe6" x="692.793" y="640.8" fill="#ffffff" stroke="#ffffff" stroke-width="0.6"/></g></g></g><g id="xtick_26"><g id="line2d_26"><g><use xlink:href="#m15e6190fe6" x="746.771" y="640.8" fill="#ffffff" stroke="#ffffff" stroke-width="0.6"/></g></g></g><g id="xtick_27"><g id="line2d_27"><g><use xlink:href="#m15e6190fe6" x="773.761" y="640.8" fill="#ffffff" stroke="#ffffff" stroke-width="0.6"/></g></g></g><g id="xtick_28"><g id="line2d_28"><g><use xlink:href="#m15e6190fe6" x="800.75" y="640.8" fill="#ffffff" stroke="#ffffff" stroke-width="0.6"/></g></g></g><g id="xtick_29"><g id="line2d_29"><g><use xlink:href="#m15e6190fe6" x="827.739" y="640.8" fill="#ffffff" stroke="#ffffff" stroke-width="0.6"/></g></g></g><g id="xtick_30"><g id="line2d_30"><g><use xlink:href="#m15e6190fe6" x="881.717" y="640.8" fill="#ffffff" stroke="#ffffff" stroke-width="0.6"/></g></g></g><g id="xtick_31"><g id="line2d_31"><g><use xlink:href="#m15e6190fe6" x="908.706" y="640.8" fill="#ffffff" stroke="#ffffff" stroke-width="0.6"/></g></g></g><g id="xtick_32"><g id="line2d_32"><g><use xlink:href="#m15e6190fe6" x="935.695" y="640.8" fill="#ffffff" stroke="#ffffff" stroke-width="0.6"/></g></g></g><g id="xtick_33"><g id="line2d_33"><g><use xlink:href="#m15e6190fe6" x="962.684" y="640.8" fill="#ffffff" stroke="#ffffff" stroke-width="0.6"/></g></g></g><g id="xtick_34"><g id="line2d_34"><g><use xlink:href="#m15e6190fe6" x="1016.663" y="640.8" fill="#ffffff" stroke="#ffffff" stroke-width="0.6"/></g></g></g><g id="xtick_35"><g id="line2d_35"><g><use xlink:href="#m15e6190fe6" x="1043.652" y="640.8" fill="#ffffff" stroke="#ffffff" stroke-width="0.6"/></g></g></g><g id="xtick_36"><g id="line2d_36"><g><use xlink:href="#m15e6190fe6" x="1070.641" y="640.8" fill="#ffffff" stroke="#ffffff" stroke-width="0.6"/></g></g></g><g id="xtick_37"><g id="line2d_37"><g><use xlink:href="#m15e6190fe6" x="1097.63" y="640.8" fill="#ffffff" stroke="#ffffff" stroke-width="0.6"/></g></g></g><g id="xtick_38"><g id="line2d_38"><g><use xlink:href="#m15e6190fe6" x="1151.608" y="640.8" fill="#ffffff" stroke="#ffffff" stroke-width="0.6"/></g></g></g><g id="xtick_39"><g id="line2d_39"><g><use xlink:href="#m15e6190fe6" x="1178.597" y="640.8" fill="#ffffff" stroke="#ffffff" stroke-width="0.6"/></g></g></g><g id="xtick_40"><g id="line2d_40"><g><use xlink:href="#m15e6190fe6" x="1205.586" y="640.8" fill="#ffffff" stroke="#ffffff" stroke-width="0.6"/></g></g></g><g id="xtick_41"><g id="line2d_41"><g><use xlink:href="#m15e6190fe6" x="1232.576" y="640.8" fill="#ffffff" stroke="#ffffff" stroke-width="0.6"/></g></g></g><g id="xtick_42"><g id="line2d_42"><g><use xlink:href="#m15e6190fe6" x="1286.554" y="640.8" fill="#ffffff" stroke="#ffffff" stroke-width="0.6"/></g></g></g><g id="text_10"><g transform="translate(638.625781 669.076563) scale(0.1 -0.1)" fill="#ffffff"><defs><path id="DejaVuSans-48" d="M 628 4666 L 1259 4666 L 1259 2753 L 3553 2753 L 3553 4666 L 4184 4666 L 4184 0 L 3553 0 L 3553 2222 L 1259 2222 L 1259 0 L 628 0 L 628 4666 z" transform="scale(0.015625)"/><path id="DejaVuSans-6f" d="M 1959 3097 Q 1497 3097 1228 2736 Q 959 2375 959 1747 Q 959 1119 1226 758 Q 1494 397 1959 397 Q 2419 397 2687 759 Q 2956 1122 2956 1747 Q 2956 2369 2687 2733 Q 2419 3097 1959 3097 z M 1959 3584 Q 2709 3584 3137 3096 Q 3566 2609 3566 1747 Q 3566 888 3137 398 Q 2709 -91 1959 -91 Q 1206 -91 779 398 Q 353 888 353 1747 Q 353 2609 779 3096 Q 1206 3584 1959 3584 z" transform="scale(0.015625)"/><path id="DejaVuSans-75" d="M 544 1381 L 544 3500 L 1119 3500 L 1119 1403 Q 1119 906 1312 657 Q 1506 409 1894 409 Q 2359 409 2629 706 Q 2900 1003 2900 1516 L 2900 3500 L 3475 3500 L 3475 0 L 2900 0 L 2900 538 Q 2691 219 2414 64 Q 2138 -91 1772 -91 Q 1169 -91 856 284 Q 544 659 544 1381 z M 1991 3584 L 1991 3584 z" transform="scale(0.015625)"/><path id="DejaVuSans-72" d="M 2631 2963 Q 2534 3019 2420 3045 Q 2306 3072 2169 3072 Q 1681 3072 1420 2755 Q 1159 2438 1159 1844 L 1159 0 L 581 0 L 581 3500 L 1159 3500 L 1159 2956 Q 1341 3275 1631 3429 Q 1922 3584 2338 3584 Q 2397 3584 2469 3576 Q 2541 3569 2628 3553 L 2631 2963 z" transform="scale(0.015625)"/><path id="DejaVuSans-73" d="M 2834 3397 L 2834 2853 Q 2591 2978 2328 3040 Q 2066 3103 1784 3103 Q 1356 3103 1142 2972 Q 928 2841 928 2578 Q 928 2378 1081 2264 Q 1234 2150 1697 2047 L 1894 2003 Q 2506 1872 2764 1633 Q 3022 1394 3022 966 Q 3022 478 2636 193 Q 2250 -91 1575 -91 Q 1294 -91 989 -36 Q 684 19 347 128 L 347 722 Q 666 556 975 473 Q 1284 391 1588 391 Q 1994 391 2212 530 Q 2431 669 2431 922 Q 2431 1156 2273 1281 Q 2116 1406 1581 1522 L 1381 1569 Q 847 1681 609 1914 Q 372 2147 372 2553 Q 372 3047 722 3315 Q 1072 3584 1716 3584 Q 2034 3584 2315 3537 Q 2597 3491 2834 3397 z" transform="scale(0.015625)"/><path id="DejaVuSans-20" transform="scale(0.015625)"/><path id="DejaVuSans-69" d="M 603 3500 L 1178 3500 L 1178 0 L 603 0 L 603 3500 z M 603 4863 L 1178 4863 L 1178 4134 L 603 4134 L 603 4863 z" transform="scale(0.015625)"/><path id="DejaVuSans-6e" d="M 3513 2113 L 3513 0 L 2938 0 L 2938 2094 Q 2938 2591 2744 2837 Q 2550 3084 2163 3084 Q 1697 3084 1428 2787 Q 1159 2491 1159 1978 L 1159 0 L 581 0 L 581 3500 L 1159 3500 L 1159 2956 Q 1366 3272 1645 3428 Q 1925 3584 2291 3584 Q 2894 3584 3203 3211 Q 3513 2838 3513 2113 z" transform="scale(0.015625)"/><path id="DejaVuSans-63" d="M 3122 3366 L 3122 2828 Q 2878 2963 2633 3030 Q 2388 3097 2138 3097 Q 1578 3097 1268 2742 Q 959 2388 959 1747 Q 959 1106 1268 751 Q 1578 397 2138 397 Q 2388 397 2633 464 Q 2878 531 3122 666 L 3122 134 Q 2881 22 2623 -34 Q 2366 -91 2075 -91 Q 1284 -91 818 406 Q 353 903 353 1747 Q 353 2603 823 3093 Q 1294 3584 2113 3584 Q 2378 3584 2631 3529 Q 2884 3475 3122 3366 z" transform="scale(0.015625)"/><path id="DejaVuSans-65" d="M 3597 1894 L 3597 1613 L 953 1613 Q 991 1019 1311 708 Q 1631 397 2203 397 Q 2534 397 2845 478 Q 3156 559 3463 722 L 3463 178 Q 3153 47 2828 -22 Q 2503 -91 2169 -91 Q 1331 -91 842 396 Q 353 884 353 1716 Q 353 2575 817 3079 Q 1281 3584 2069 3584 Q 2775 3584 3186 3129 Q 3597 2675 3597 1894 z M 3022 2063 Q 3016 2534 2758 2815 Q 2500 3097 2075 3097 Q 1594 3097 1305 2825 Q 1016 2553 972 2059 L 3022 2063 z" transform="scale(0.015625)"/><path id="DejaVuSans-2f" d="M 1625 4666 L 2156 4666 L 531 -594 L 0 -594 L 1625 4666 z" transform="scale(0.015625)"/><path id="DejaVuSans-3a" d="M 750 794 L 1409 794 L 1409 0 L 750 0 L 750 794 z M 750 3309 L 1409 3309 L 1409 2516 L 750 2516 L 750 3309 z" transform="scale(0.015625)"/><path id="DejaVuSans-28" d="M 1984 4856 Q 1566 4138 1362 3434 Q 1159 2731 1159 2009 Q 1159 1288 1364 580 Q 1569 -128 1984 -844 L 1484 -844 Q 1016 -109 783 600 Q 550 1309 550 2009 Q 550 2706 781 3412 Q 1013 4119 1484 4856 L 1984 4856 z" transform="scale(0.015625)"/><path id="DejaVuSans-55" d="M 556 4666 L 1191 4666 L 1191 1831 Q 1191 1081 1462 751 Q 1734 422 2344 422 Q 2950 422 3222 751 Q 3494 1081 3494 1831 L 3494 4666 L 4128 4666 L 4128 1753 Q 4128 841 3676 375 Q 3225 -91 2344 -91 Q 1459 -91 1007 375 Q 556 841 556 1753 L 556 4666 z" transform="scale(0.015625)"/><path id="DejaVuSans-43" d="M 4122 4306 L 4122 3641 Q 3803 3938 3442 4084 Q 3081 4231 2675 4231 Q 1875 4231 1450 3742 Q 1025 3253 1025 2328 Q 1025 1406 1450 917 Q 1875 428 2675 428 Q 3081 428 3442 575 Q 3803 722 4122 1019 L 4122 359 Q 3791 134 3420 21 Q 3050 -91 2638 -91 Q 1578 -91 968 557 Q 359 1206 359 2328 Q 359 3453 968 4101 Q 1578 4750 2638 4750 Q 3056 4750 3426 4639 Q 3797 4528 4122 4306 z" transform="scale(0.015625)"/><path id="DejaVuSans-54" d="M -19 4666 L 3928 4666 L 3928 4134 L 2272 4134 L 2272 0 L 1638 0 L 1638 4134 L -19 4134 L -19 4666 z" transform="scale(0.015625)"/><path id="DejaVuSans-29" d="M 513 4856 L 1013 4856 Q 1481 4119 1714 3412 Q 1947 2706 1947 2009 Q 1947 1309 1714 600 Q 1481 -109 1013 -844 L 513 -844 Q 928 -128 1133 580 Q 1338 1288 1338 2009 Q 1338 2731 1133 3434 Q 928 4138 513 4856 z" transform="scale(0.015625)"/></defs><use xlink:href="#DejaVuSans-48"/><use xlink:href="#DejaVuSans-6f" x="75.195"/><use xlink:href="#DejaVuSans-75" x="136.377"/><use xlink:href="#DejaVuSans-72" x="199.756"/><use xlink:href="#DejaVuSans-73" x="240.869"/><use xlink:href="#DejaVuSans-20" x="292.969"/><use xlink:href="#DejaVuSans-73" x="324.756"/><use xlink:href="#DejaVuSans-69" x="376.855"/><use xlink:href="#DejaVuSans-6e" x="404.639"/><use xlink:href="#DejaVuSans-63" x="468.018"/><use xlink:href="#DejaVuSans-65" x="522.998"/><use xlink:href="#DejaVuSans-20" x="584.521"/><use xlink:href="#DejaVuSans-32" x="616.309"/><use xlink:href="#DejaVuSans-36" x="679.932"/><use xlink:href="#DejaVuSans-2f" x="743.555"/><use xlink:href="#DejaVuSans-30" x="777.246"/><use xlink:href="#DejaVuSans-32" x="840.869"/><use xlink:href="#DejaVuSans-2f" x="904.492"/><use xlink:href="#DejaVuSans-32" x="938.184"/><use xlink:href="#DejaVuSans-30" x="1001.807"/><use xlink:href="#DejaVuSans-32" x="1065.43"/><use xlink:href="#DejaVuSans-33" x="1129.053"/><use xlink:href="#DejaVuSans-20" x="1192.676"/><use xlink:href="#DejaVuSans-30" x="1224.463"/><use xlink:href="#DejaVuSans-35" x="1288.086"/><use xlink:href="#DejaVuSans-3a" x="1351.709"/><use xlink:href="#DejaVuSans-30" x="1385.4"/><use xlink:href="#DejaVuSans-30" x="1449.023"/><use xlink:href="#DejaVuSans-3a" x="1512.646"/><use xlink:href="#DejaVuSans-30" x="1546.338"/><use xlink:href="#DejaVuSans-30" x="1609.961"/><use xlink:href="#DejaVuSans-20" x="1673.584"/><use xlink:href="#DejaVuSans-28" x="1705.371"/><use xlink:href="#DejaVuSans-55" x="1744.385"/><use xlink:href="#DejaVuSans-43" x="1817.578"/><use xlink:href="#DejaVuSans-54" x="1887.402"/><use xlink:href="#DejaVuSans-29" x="1948.486"/></g></g></g><g id="matplotlib.axis_2"><g id="ytick_1"><g id="line2d_43"><defs><path id="m067c76f318" d="M 0 0 L -3.5 0" stroke="#ffffff" stroke-width="0.8"/></defs><g><use xlink:href="#m067c76f318" x="180" y="615.6" fill="#ffffff" stroke="#ffffff" stroke-width="0.8"/></g></g><g id="text_11"><g transform="translate(166.6375 619.399219) scale(0.1 -0.1)" fill="#ffffff"><use xlink:href="#DejaVuSans-30"/></g></g></g><g id="ytick_2"><g id="line2d_44"><g><use xlink:href="#m067c76f318" x="180" y="530.494" fill="#ffffff" stroke="#ffffff" stroke-width="0.8"/></g></g><g id="text_12"><g transform="translate(153.9125 534.292836) scale(0.1 -0.1)" fill="#ffffff"><use xlink:href="#DejaVuSans-31"/><use xlink:href="#DejaVuSans-30" x="63.623"/><use xlink:href="#DejaVuSans-30" x="127.246"/></g></g></g><g id="ytick_3"><g id="line2d_45"><g><use xlink:href="#m067c76f318" x="180" y="445.387" fill="#ffffff" stroke="#ffffff" stroke-width="0.8"/></g></g><g id="text_13"><g transform="translate(153.9125 449.186453) scale(0.1 -0.1)" fill="#ffffff"><use xlink:href="#DejaVuSans-32"/><use xlink:href="#DejaVuSans-30" x="63.623"/><use xlink:href="#DejaVuSans-30" x="127.246"/></g></g></g><g id="ytick_4"><g id="line2d_46"><g><use xlink:href="#m067c76f318" x="180" y="360.281" fill="#ffffff" stroke="#ffffff" stroke-width="0.8"/></g></g><g id="text_14"><g transform="translate(153.9125 364.08007) scale(0.1 -0.1)" fill="#ffffff"><use xlink:href="#DejaVuSans-33"/><use xlink:href="#DejaVuSans-30" x="63.623"/><use xlink:href="#DejaVuSans-30" x="127.246"/></g></g></g><g id="ytick_5"><g id="line2d_47"><g><use xlink:href="#m067c76f318" x="180" y="275.174" fill="#ffffff" stroke="#ffffff" stroke-width="0.8"/></g></g><g id="text_15"><g transform="translate(153.9125 278.973687) scale(0.1 -0.1)" fill="#ffffff"><use xlink:href="#DejaVuSans-34"/><use xlink:href="#DejaVuSans-30" x="63.623"/><use xlink:href="#DejaVuSans-30" x="127.246"/></g></g></g><g id="ytick_6"><g id="line2d_48"><g><use xlink:href="#m067c76f318" x="180" y="190.068" fill="#ffffff" stroke="#ffffff" stroke-width="0.8"/></g></g><g id="text_16"><g transform="translate(153.9125 193.867304) scale(0.1 -0.1)" fill="#ffffff"><use xlink:href="#DejaVuSans-35"/><use xlink:href="#DejaVuSans-30" x="63.623"/><use xlink:href="#DejaVuSans-30" x="127.246"/></g></g></g><g id="ytick_7"><g id="line2d_49"><g><use xlink:href="#m067c76f318" x="180" y="104.962" fill="#ffffff" stroke="#ffffff" stroke-width="0.8"/></g></g><g id="text_17"><g transform="translate(153.9125 108.760921) scale(0.1 -0.1)" fill="#ffffff"><use xlink:href="#DejaVuSans-36"/><use xlink:href="#DejaVuSans-30" x="63.623"/><use xlink:href="#DejaVuSans-30" x="127.246"/></g></g></g><g id="ytick_8"><g id="line2d_50"><defs><path id="m1ac2750889" d="M 0 0 L -2 0" stroke="#ffffff" stroke-width="0.6"/></defs><g><use xlink:href="#m1ac2750889" x="180" y="632.621" fill="#ffffff" stroke="#ffffff" stroke-width="0.6"/></g></g></g><g id="ytick_9"><g id="line2d_51"><g><use xlink:href="#m1ac2750889" x="180" y="598.579" fill="#ffffff" stroke="#ffffff" stroke-width="0.6"/></g></g></g><g id="ytick_10"><g id="line2d_52"><g><use xlink:href="#m1ac2750889" x="180" y="581.557" fill="#ffffff" stroke="#ffffff" stroke-width="0.6"/></g></g></g><g id="ytick_11"><g id="line2d_53"><g><use xlink:href="#m1ac2750889" x="180" y="564.536" fill="#ffffff" stroke="#ffffff" stroke-width="0.6"/></g></g></g><g id="ytick_12"><g id="line2d_54"><g><use xlink:href="#m1ac2750889" x="180" y="547.515" fill="#ffffff" stroke="#ffffff" stroke-width="0.6"/></g></g></g><g id="ytick_13"><g id="line2d_55"><g><use xlink:href="#m1ac2750889" x="180" y="513.472" fill="#ffffff" stroke="#ffffff" stroke-width="0.6"/></g></g></g><g id="ytick_14"><g id="line2d_56"><g><use xlink:href="#m1ac2750889" x="180" y="496.451" fill="#ffffff" stroke="#ffffff" stroke-width="0.6"/></g></g></g><g id="ytick_15"><g id="line2d_57"><g><use xlink:href="#m1ac2750889" x="180" y="479.43" fill="#ffffff" stroke="#ffffff" stroke-width="0.6"/></g></g></g><g id="ytick_16"><g id="line2d_58"><g><use xlink:href="#m1ac2750889" x="180" y="462.409" fill="#ffffff" stroke="#ffffff" stroke-width="0.6"/></g></g></g><g id="ytick_17"><g id="line2d_59"><g><use xlink:href="#m1ac2750889" x="180" y="428.366" fill="#ffffff" stroke="#ffffff" stroke-width="0.6"/></g></g></g><g id="ytick_18"><g id="line2d_60"><g><use xlink:href="#m1ac2750889" x="180" y="411.345" fill="#ffffff" stroke="#ffffff" stroke-width="0.6"/></g></g></g><g id="ytick_19"><g id="line2d_61"><g><use xlink:href="#m1ac2750889" x="180" y="394.323" fill="#ffffff" stroke="#ffffff" stroke-width="0.6"/></g></g></g><g id="ytick_20"><g id="line2d_62"><g><use xlink:href="#m1ac2750889" x="180" y="377.302" fill="#ffffff" stroke="#ffffff" stroke-width="0.6"/></g></g></g><g id="ytick_21"><g id="line2d_63"><g><use xlink:href="#m1ac2750889" x="180" y="343.26" fill="#ffffff" stroke="#ffffff" stroke-width="0.6"/></g></g></g><g id="ytick_22"><g id="line2d_64"><g><use xlink:href="#m1ac2750889" x="180" y="326.238" fill="#ffffff" stroke="#ffffff" stroke-width="0.6"/></g></g></g><g id="ytick_23"><g id="line2d_65"><g><use xlink:href="#m1ac2750889" x="180" y="309.217" fill="#ffffff" stroke="#ffffff" stroke-width="0.6"/></g></g></g><g id="ytick_24"><g id="line2d_66"><g><use xlink:href="#m1ac2750889" x="180" y="292.196" fill="#ffffff" stroke="#ffffff" stroke-width="0.6"/></g></g></g><g id="ytick_25"><g id="line2d_67"><g><use xlink:href="#m1ac2750889" x="180" y="258.153" fill="#ffffff" stroke="#ffffff" stroke-width="0.6"/></g></g></g><g id="ytick_26"><g id="line2d_68"><g><use xlink:href="#m1ac2750889" x="180" y="241.132" fill="#ffffff" stroke="#ffffff" stroke-width="0.6"/></g></g></g><g id="ytick_27"><g id="line2d_69"><g><use xlink:href="#m1ac2750889" x="180" y="224.111" fill="#ffffff" stroke="#ffffff" stroke-width="0.6"/></g></g></g><g id="ytick_28"><g id="line2d_70"><g><use xlink:href="#m1ac2750889" x="180" y="207.089" fill="#ffffff" stroke="#ffffff" stroke-width="0.6"/></g></g></g><g id="ytick_29"><g id="line2d_71"><g><use xlink:href="#m1ac2750889" x="180" y="173.047" fill="#ffffff" stroke="#ffffff" stroke-width="0.6"/></g></g></g><g id="ytick_30"><g id="line2d_72"><g><use xlink:href="#m1ac2750889" x="180" y="156.026" fill="#ffffff" stroke="#ffffff" stroke-width="0.6"/></g></g></g><g id="ytick_31"><g id="line2d_73"><g><use xlink:href="#m1ac2750889" x="180" y="139.004" fill="#ffffff" stroke="#ffffff" stroke-width="0.6"/></g></g></g><g id="ytick_32"><g id="line2d_74"><g><use xlink:href="#m1ac2750889" x="180" y="121.983" fill="#ffffff" stroke="#ffffff" stroke-width="0.6"/></g></g></g><g id="ytick_33"><g id="line2d_75"><g><use xlink:href="#m1ac2750889" x="180" y="87.94" fill="#ffffff" stroke="#ffffff" stroke-width="0.6"/></g></g></g><g id="text_18"><g transform="translate(147.832812 434.258594) rotate(-90) scale(0.1 -0.1)" fill="#ffffff"><defs><path id="DejaVuSans-53" d="M 3425 4513 L 3425 3897 Q 3066 4069 2747 4153 Q 2428 4238 2131 4238 Q 1616 4238 1336 4038 Q 1056 3838 1056 3469 Q 1056 3159 1242 3001 Q 1428 2844 1947 2747 L 2328 2669 Q 3034 2534 3370 2195 Q 3706 1856 3706 1288 Q 3706 609 3251 259 Q 2797 -91 1919 -91 Q 1588 -91 1214 -16 Q 841 59 441 206 L 441 856 Q 825 641 1194 531 Q 1563 422 1919 422 Q 2459 422 2753 634 Q 3047 847 3047 1241 Q 3047 1584 2836 1778 Q 2625 1972 2144 2069 L 1759 2144 Q 1053 2284 737 2584 Q 422 2884 422 3419 Q 422 4038 858 4394 Q 1294 4750 2059 4750 Q 2388 4750 2728 4690 Q 3069 4631 3425 4513 z" transform="scale(0.015625)"/><path id="DejaVuSans-64" d="M 2906 2969 L 2906 4863 L 3481 4863 L 3481 0 L 2906 0 L 2906 525 Q 2725 213 2448 61 Q 2172 -91 1784 -91 Q 1150 -91 751 415 Q 353 922 353 1747 Q 353 2572 751 3078 Q 1150 3584 1784 3584 Q 2172 3584 2448 3432 Q 2725 3281 2906 2969 z M 947 1747 Q 947 1113 1208 752 Q 1469 391 1925 391 Q 2381 391 2643 752 Q 2906 1113 2906 1747 Q 2906 2381 2643 2742 Q 2381 3103 1925 3103 Q 1469 3103 1208 2742 Q 947 2381 947 1747 z" transform="scale(0.015625)"/><path id="DejaVuSans-62" d="M 3116 1747 Q 3116 2381 2855 2742 Q 2594 3103 2138 3103 Q 1681 3103 1420 2742 Q 1159 2381 1159 1747 Q 1159 1113 1420 752 Q 1681 391 2138 391 Q 2594 391 2855 752 Q 3116 1113 3116 1747 z M 1159 2969 Q 1341 3281 1617 3432 Q 1894 3584 2278 3584 Q 2916 3584 3314 3078 Q 3713 2572 3713 1747 Q 3713 922 3314 415 Q 2916 -91 2278 -91 Q 1894 -91 1617 61 Q 1341 213 1159 525 L 1159 0 L 581 0 L 581 4863 L 1159 4863 L 1159 2969 z" transform="scale(0.015625)"/><path id="DejaVuSans-74" d="M 1172 4494 L 1172 3500 L 2356 3500 L 2356 3053 L 1172 3053 L 1172 1153 Q 1172 725 1289 603 Q 1406 481 1766 481 L 2356 481 L 2356 0 L 1766 0 Q 1100 0 847 248 Q 594 497 594 1153 L 594 3053 L 172 3053 L 172 3500 L 594 3500 L 594 4494 L 1172 4494 z" transform="scale(0.015625)"/><path id="DejaVuSans-77" d="M 269 3500 L 844 3500 L 1563 769 L 2278 3500 L 2956 3500 L 3675 769 L 4391 3500 L 4966 3500 L 4050 0 L 3372 0 L 2619 2869 L 1863 0 L 1184 0 L 269 3500 z" transform="scale(0.015625)"/><path id="DejaVuSans-61" d="M 2194 1759 Q 1497 1759 1228 1600 Q 959 1441 959 1056 Q 959 750 1161 570 Q 1363 391 1709 391 Q 2188 391 2477 730 Q 2766 1069 2766 1631 L 2766 1759 L 2194 1759 z M 3341 1997 L 3341 0 L 2766 0 L 2766 531 Q 2569 213 2275 61 Q 1981 -91 1556 -91 Q 1019 -91 701 211 Q 384 513 384 1019 Q 384 1609 779 1909 Q 1175 2209 1959 2209 L 2766 2209 L 2766 2266 Q 2766 2663 2505 2880 Q 2244 3097 1772 3097 Q 1472 3097 1187 3025 Q 903 2953 641 2809 L 641 3341 Q 956 3463 1253 3523 Q 1550 3584 1831 3584 Q 2591 3584 2966 3190 Q 3341 2797 3341 1997 z" transform="scale(0.015625)"/><path id="DejaVuSans-70" d="M 1159 525 L 1159 -1331 L 581 -1331 L 581 3500 L 1159 3500 L 1159 2969 Q 1341 3281 1617 3432 Q 1894 3584 2278 3584 Q 2916 3584 3314 3078 Q 3713 2572 3713 1747 Q 3713 922 3314 415 Q 2916 -91 2278 -91 Q 1894 -91 1617 61 Q 1341 213 1159 525 z M 3116 1747 Q 3116 2381 2855 2742 Q 2594 3103 2138 3103 Q 1681 3103 1420 2742 Q 1159 2381 1159 1747 Q 1159 1113 1420 752 Q 1681 391 2138 391 Q 2594 391 2855 752 Q 3116 1113 3116 1747 z" transform="scale(0.015625)"/><path id="DejaVuSans-6c" d="M 603 4863 L 1178 4863 L 1178 0 L 603 0 L 603 4863 z" transform="scale(0.015625)"/></defs><use xlink:href="#DejaVuSans-53"/><use xlink:href="#DejaVuSans-65" x="63.477"/><use xlink:href="#DejaVuSans-63" x="125"/><use xlink:href="#DejaVuSans-6f" x="179.98"/><use xlink:href="#DejaVuSans-6e" x="241.162"/><use xlink:href="#DejaVuSans-64" x="304.541"/><use xlink:href="#DejaVuSans-73" x="368.018"/><use xlink:href="#DejaVuSans-20" x="420.117"/><use xlink:href="#DejaVuSans-62" x="451.904"/><use xlink:href="#DejaVuSans-65" x="515.381"/><use xlink:href="#DejaVuSans-74" x="576.904"/><use xlink:href="#DejaVuSans-77" x="616.113"/><use xlink:href="#DejaVuSans-65" x="697.9"/><use xlink:href="#DejaVuSans-65" x="759.424"/><use xlink:href="#DejaVuSans-6e" x="820.947"/><use xlink:href="#DejaVuSans-20" x="884.326"/><use xlink:href="#DejaVuSans-61" x="916.113"/><use xlink:href="#DejaVuSans-6e" x="977.393"/><use xlink:href="#DejaVuSans-20" x="1040.771"/><use xlink:href="#DejaVuSans-75" x="1072.559"/><use xlink:href="#DejaVuSans-70" x="1135.938"/><use xlink:href="#DejaVuSans-6c" x="1199.414"/><use xlink:href="#DejaVuSans-6f" x="1227.197"/><use xlink:href="#DejaVuSans-61" x="1288.379"/><use xlink:href="#DejaVuSans-64" x="1349.658"/></g></g></g><g id="line2d_76"><path d="M 180 615.6 L 181.349456 466.191017 L 182.698912 554.232866 L 184.048368 560.72766 L 185.397823 556.275845 L 186.747279 543.040729 L 188.096735 576.337589 L 192.145103 526.991162 L 193.494559 572.805462 L 194.844015 580.325644 L 196.19347 593.888554 L 197.542926 591.883245 L 198.892382 581.683172 L 200.241838 589.065046 L 201.591294 594.515193 L 202.94075 591.470638 L 204.290206 599.922508 L 205.639661 595.915004 L 206.989117 592.575095 L 208.338573 583.424296 L 209.688029 586.974795 L 211.037485 599.420587 L 212.386941 562.742857 L 213.736397 583.085701 L 215.085852 552.599454 L 216.435308 568.734752 L 217.784764 532.220061 L 219.13422 527.990488 L 220.483676 506.697872 L 221.833132 517.815701 L 223.182588 483.725633 L 224.532044 471.269587 L 225.881499 564.045172 L 227.230955 601.540618 L 228.580411 476.998176 L 229.929867 586.429353 L 231.279323 573.934875 L 232.628779 581.94709 L 233.978235 583.157817 L 235.32769 583.768363 L 236.677146 567.926699 L 238.026602 573.250048 L 239.376058 582.893526 L 240.725514 556.723404 L 242.07497 587.411493 L 243.424426 551.95129 L 246.123337 568.685106 L 247.472793 552.709929 L 248.822249 526.692199 L 250.171705 559.831232 L 251.521161 299.004255 L 252.870617 415.478419 L 254.220073 363.066151 L 255.569528 471.557447 L 256.918984 476.791489 L 258.26844 532.195745 L 259.617896 535.438988 L 260.967352 558.627823 L 262.316808 567.967443 L 263.666264 584.447518 L 265.015719 588.814286 L 266.365175 582.909693 L 267.714631 568.432447 L 269.064087 583.582083 L 270.413543 579.93835 L 271.762999 590.176271 L 273.112455 582.348436 L 274.461911 537.010974 L 275.811366 544.71261 L 277.160822 533.851869 L 278.510278 540.885554 L 279.859734 554.776098 L 281.20919 579.814792 L 282.558646 582.658279 L 283.908102 554.097612 L 285.257557 519.004255 L 286.607013 519.231206 L 287.956469 449.19199 L 289.305925 558.610839 L 290.655381 485.696712 L 292.004837 497.031335 L 293.354293 571.01291 L 294.703748 574.449266 L 296.053204 562.834043 L 297.40266 583.540244 L 298.752116 569.797292 L 300.101572 563.81493 L 301.451028 563.538371 L 302.800484 589.9022 L 304.14994 589.749861 L 305.499395 569.848872 L 306.848851 571.654159 L 308.198307 587.801161 L 309.547763 572.581383 L 310.897219 589.683256 L 312.246675 543.259574 L 313.596131 517.475493 L 314.945586 534.137234 L 316.295042 523.163487 L 317.644498 484.657751 L 318.993954 495.6 L 320.34341 519.292519 L 321.692866 485.720259 L 323.042322 517.562938 L 324.391778 545.974873 L 325.741233 564.319798 L 327.090689 578.610638 L 328.440145 586.508347 L 329.789601 599.78883 L 331.139057 589.283626 L 332.488513 577.578723 L 333.837969 595.818365 L 335.187424 595.157333 L 336.53688 591.00286 L 337.886336 590.542449 L 339.235792 593.121902 L 340.585248 585.637547 L 341.934704 585.031177 L 343.28416 576.771594 L 344.633615 570.235719 L 345.983071 565.231206 L 347.332527 549.901573 L 348.681983 541.163051 L 350.031439 537.190146 L 351.380895 524.315524 L 352.730351 553.749431 L 354.079807 478.713102 L 355.429262 528.591239 L 356.778718 537.682867 L 358.128174 579.332376 L 359.47763 585.769783 L 360.827086 590.415603 L 362.176542 594.233503 L 363.525998 592.699836 L 364.875453 596.923877 L 366.224909 599.772886 L 367.574365 594.457143 L 368.923821 594.34721 L 370.273277 591.109787 L 371.622733 602.452914 L 372.972189 598.283752 L 374.321644 594.837589 L 375.6711 584.341135 L 377.020556 535.363593 L 378.370012 566.991699 L 381.068924 549.346531 L 382.41838 571.23204 L 383.767836 536.038427 L 385.117291 569.526499 L 386.466747 590.828462 L 387.816203 585.123404 L 389.165659 589.60982 L 390.515115 590.547255 L 393.214027 601.738152 L 394.563482 601.200484 L 395.912938 592.32243 L 397.262394 598.36716 L 398.61185 600.488324 L 399.961306 593.279764 L 402.660218 600.540426 L 404.009674 597.125688 L 405.359129 592.875326 L 406.708585 597.36583 L 408.058041 600.602646 L 409.407497 578.302128 L 410.756953 543.805128 L 412.106409 568.048497 L 413.455865 580.249715 L 414.80532 584.824156 L 416.154776 572.950914 L 417.504232 587.619269 L 418.853688 594.335307 L 420.203144 592.834043 L 421.5526 598.081025 L 422.902056 597.802314 L 424.251511 596.981021 L 425.600967 601.937182 L 426.950423 602.366142 L 428.299879 598.511786 L 429.649335 599.658231 L 430.998791 595.174468 L 432.348247 599.411583 L 433.697703 596.325586 L 436.396614 590.733202 L 437.74607 594.445859 L 439.095526 591.668896 L 440.444982 566.910913 L 441.794438 557.744026 L 443.143894 581.387234 L 444.493349 573.200473 L 445.842805 543.624316 L 447.192261 474.110638 L 448.541717 534.695745 L 449.891173 547.138842 L 451.240629 553.685106 L 452.590085 547.050677 L 453.939541 562.972588 L 455.288996 583.883688 L 456.638452 583.766591 L 457.987908 582.228842 L 459.337364 574.64401 L 460.68682 590.402691 L 462.036276 600.607861 L 463.385732 589.194427 L 464.735187 598.964725 L 466.084643 597.360734 L 467.434099 597.753294 L 468.783555 590.856876 L 470.133011 581.122244 L 471.482467 587.081333 L 472.831923 572.454764 L 474.181378 556.468085 L 475.530834 528.694225 L 476.88029 537.10056 L 478.229746 500.346318 L 479.579202 566.349913 L 480.928658 529.448024 L 482.278114 565.415603 L 483.62757 539.765733 L 484.977025 579.191074 L 486.326481 529.242053 L 487.675937 571.903588 L 489.025393 583.927614 L 490.374849 579.72202 L 491.724305 595.904736 L 493.073761 577.578723 L 494.423216 587.50694 L 495.772672 584.207151 L 497.122128 593.643778 L 498.471584 597.772716 L 499.82104 593.843161 L 501.170496 594.552769 L 502.519952 595.880907 L 503.869407 596.578723 L 505.218863 569.380687 L 506.568319 589.488481 L 507.917775 560.553834 L 509.267231 523.068819 L 510.616687 532.341641 L 511.966143 548.532019 L 513.315599 561.286654 L 514.665054 571.702374 L 516.01451 495.055319 L 517.363966 563.655759 L 518.713422 567.446259 L 520.062878 565.741844 L 521.412334 594.66383 L 522.76179 591.918811 L 524.111245 586.868412 L 525.460701 570.633344 L 526.810157 589.855319 L 528.159613 583.137994 L 529.509069 593.024744 L 530.858525 596.251764 L 532.207981 595.835768 L 533.557437 598.492661 L 534.906892 596.118276 L 536.256348 586.538673 L 537.605804 588.289285 L 538.95526 564.418782 L 540.304716 551.286654 L 541.654172 569.268601 L 543.003628 529.642553 L 544.353083 536.380142 L 545.702539 520.390666 L 547.051995 527.674468 L 548.401451 263.47234 L 549.750907 573.789991 L 551.100363 581.023058 L 552.449819 570.137949 L 553.799274 574.334905 L 555.14873 581.136806 L 556.498186 582.994799 L 557.847642 577.506814 L 559.197098 597.245732 L 560.546554 592.938838 L 561.89601 595.186207 L 563.245466 588.845648 L 564.594921 596.744443 L 565.944377 596.316541 L 567.293833 596.529665 L 568.643289 582.612026 L 569.992745 560.868859 L 571.342201 559.943637 L 572.691657 542.429787 L 574.041112 540.430362 L 575.390568 505.06383 L 576.740024 533.47234 L 578.08948 523.994584 L 579.438936 538.578723 L 580.788392 533.874871 L 583.487304 588.068085 L 584.836759 582.53802 L 586.186215 584.943785 L 587.535671 584.944509 L 588.885127 597.564581 L 590.234583 587.166363 L 591.584039 574.422501 L 592.933495 579.953519 L 594.28295 582.417967 L 595.632406 596.566145 L 596.981862 586.811129 L 598.331318 593.839706 L 599.680774 593.203254 L 601.03023 589.315805 L 602.379686 569.810187 L 603.729141 528.711702 L 605.078597 567.129889 L 606.428053 562.104559 L 607.777509 559.363037 L 609.126965 533.046809 L 610.476421 546.129441 L 611.825877 581.869504 L 613.175333 584.935381 L 614.524788 582.314987 L 615.874244 587.870793 L 617.2237 584.323404 L 618.573156 590.147422 L 619.922612 589.416836 L 621.272068 597.712186 L 622.621524 599.19517 L 623.970979 598.554951 L 625.320435 599.112363 L 626.669891 597.657572 L 628.019347 592.533468 L 629.368803 565.444933 L 630.718259 590.772654 L 632.067715 597.111552 L 633.41717 585.251064 L 634.766626 588.485265 L 636.116082 582.876128 L 637.465538 556.893283 L 638.814994 505.119307 L 640.16445 485.20222 L 641.513906 539.107415 L 642.863362 551.92855 L 644.212817 558.284124 L 645.562273 556.476095 L 646.911729 581.718203 L 648.261185 591.382737 L 649.610641 591.166232 L 650.960097 591.542369 L 652.309553 598.521348 L 653.659008 591.473016 L 655.008464 594.728393 L 656.35792 594.748936 L 657.707376 594.183587 L 659.056832 598.685106 L 660.406288 599.687823 L 661.755744 597.229476 L 663.1052 597.951624 L 664.454655 594.191549 L 665.804111 582.174702 L 667.153567 583.940426 L 668.503023 581.762876 L 671.201935 558.970213 L 672.551391 477.92791 L 673.900846 430.145455 L 675.250302 519.770213 L 676.599758 524.097743 L 677.949214 362.447195 L 679.29867 111.6 L 680.648126 537.126909 L 681.997582 532.438906 L 683.347037 560.91528 L 684.696493 581.547884 L 686.045949 586.800321 L 687.395405 588.510334 L 688.744861 594.143602 L 690.094317 593.292188 L 691.443773 597.401151 L 692.793229 592.755302 L 694.142684 557.053901 L 695.49214 584.18156 L 696.841596 582.815541 L 698.191052 575.801568 L 699.540508 574.16974 L 700.889964 525.415603 L 702.23942 531.997163 L 703.588875 368.961702 L 704.938331 544.110638 M 708.986699 511.770213 L 710.336155 549.122459 L 711.685611 545.582749 L 713.035067 427.004255 L 714.384522 571.94906 L 715.733978 580.706383 L 717.083434 579.939375 L 718.43289 572.508636 L 719.782346 575.384397 L 721.131802 585.903656 L 722.481258 587.308093 L 723.830713 572.750786 L 725.180169 597.286367 L 726.529625 599.237005 L 727.879081 592.962992 L 729.228537 582.162648 L 730.577993 597.074642 L 731.927449 599.096762 L 733.276904 591.912057 L 734.62636 585.612516 L 735.975816 563.112573 L 737.325272 557.367594 L 738.674728 562.362918 L 740.024184 526.40302 L 741.37364 526.638798 L 744.072551 569.406874 L 745.422007 563.919883 L 746.771463 559.429787 L 748.120919 580.767173 L 749.470375 581.895938 L 750.819831 595.85974 L 752.169287 591.797666 L 753.518742 595.260146 L 754.868198 593.163436 L 757.56711 594.617081 L 758.916566 600.259468 L 760.266022 595.577305 L 761.615478 587.893144 L 762.964933 594.371016 L 764.314389 596.409883 L 765.663845 591.528966 L 767.013301 576.108428 L 768.362757 586.093617 L 769.712213 581.026783 L 771.061669 571.782728 L 772.411125 552.248936 L 773.76058 518.748936 L 775.110036 419.855319 L 776.459492 556.539716 L 777.808948 549.971373 L 779.158404 567.174468 L 780.50786 575.001955 L 781.857316 583.591041 L 783.206771 588.397478 L 784.556227 595.804476 L 785.905683 593.891793 L 787.255139 593.421907 L 788.604595 589.837288 L 789.954051 594.317453 L 791.303507 590.758702 L 792.652963 594.770062 L 794.002418 588.574855 L 795.351874 593.863706 L 796.70133 589.315805 L 798.050786 584.327931 L 799.400242 578.258261 L 800.749698 562.72766 L 802.099154 575.715009 L 803.448609 545.159624 L 804.798065 539.273012 L 806.147521 538.065903 L 807.496977 527.119757 L 808.846433 518.068085 L 810.195889 524.61354 L 811.545345 466.876596 L 812.8948 549.44913 L 814.244256 594.500709 L 815.593712 592.502524 L 816.943168 597.144523 L 818.292624 597.816724 L 819.64208 599.497332 L 820.991536 601.671322 L 822.340992 600.465102 L 823.690447 589.538037 L 825.039903 601.422231 L 826.389359 597.121995 L 827.738815 594.263045 L 829.088271 587.924952 L 830.437727 597.747923 L 831.787183 595.720759 L 833.136638 588.499921 L 834.486094 568.935516 L 835.83555 557.383961 L 837.185006 562.91003 L 838.534462 532.219385 L 839.883918 566.70501 L 841.233374 562.509091 L 842.58283 578.96324 L 843.932285 590.939907 L 845.281741 577.376596 L 846.631197 596.307378 L 847.980653 601.172636 L 849.330109 601.003217 L 850.679565 600.289535 L 852.029021 601.295735 L 853.378476 595.377371 L 854.727932 600.813799 L 856.077388 597.68761 L 857.426844 585.421277 L 858.7763 588.802787 L 860.125756 594.51253 L 861.475212 594.244377 L 862.824667 585.929579 L 864.174123 593.409762 L 865.523579 596.133948 L 866.873035 593.046809 L 868.222491 590.983515 L 869.571947 562.454103 L 870.921403 544.988298 L 872.270859 566.056924 L 873.620314 581.136806 L 874.96977 567.91383 L 876.319226 584.875736 L 877.668682 591.292787 L 879.018138 593.971878 L 880.367594 603.07823 L 881.71705 596.058265 L 883.066505 595.838847 L 884.415961 588.938354 L 885.765417 592.431424 L 887.114873 593.901072 L 888.464329 600.53617 L 889.813785 599.735638 L 891.163241 595.865267 L 892.512696 583.841881 L 893.862152 593.382755 L 895.211608 598.234362 L 896.561064 569.485434 L 897.91052 559.156804 L 899.259976 539.049048 L 900.609432 531.831003 L 901.958888 523.770213 L 903.308343 502.637643 L 904.657799 534.198248 L 906.007255 537.481299 L 907.356711 544.650337 L 908.706167 575.454103 L 910.055623 567.670247 L 911.405079 581.689835 L 912.754534 584.36773 L 914.10399 585.903656 L 915.453446 592.510833 L 916.802902 595.322976 L 918.152358 590.869086 L 919.501814 590.856366 L 920.85127 585.361702 L 922.200726 572.451064 L 923.550181 539.631355 L 924.899637 535.623641 L 926.249093 554.199291 L 927.598549 553.951064 L 928.948005 526.08811 L 930.297461 525.22766 L 931.646917 497.676596 L 932.996372 537.180547 L 934.345828 501.489362 L 935.695284 390.76441 L 937.04474 544.678014 L 938.394196 493.394971 L 939.743652 479.323404 L 941.093108 489.804661 L 942.442563 528.077694 L 943.792019 572.830867 L 945.141475 568.485638 L 946.490931 583.848076 L 947.840387 546.387234 L 949.189843 572.807072 L 950.539299 569.230319 L 951.888755 589.847982 L 953.23821 585.50099 L 954.587666 586.303764 L 955.937122 588.102901 L 957.286578 542.168467 L 958.636034 561.442881 L 959.98549 558.005892 L 961.334946 555.521841 L 962.684401 523.245848 L 964.033857 500.739116 L 965.383313 532.195745 L 966.732769 531.888416 L 968.082225 549.346531 L 969.431681 523.932189 L 970.781137 513.031048 L 972.130593 543.674728 L 974.829504 571.849549 L 976.17896 524.175113 L 977.528416 569.044149 L 978.877872 575.703508 L 980.227328 560.404642 L 981.576784 578.594484 L 982.926239 592.089362 L 984.275695 593.858074 L 985.625151 588.704877 L 986.974607 594.704916 L 988.324063 590.316312 L 989.673519 580.597526 L 991.022975 586.622913 L 992.37243 576.92766 L 993.721886 559.335225 L 995.071342 558.771417 L 996.420798 511.377414 L 997.770254 492.454764 L 999.11971 570.05519 L 1000.469166 570.97234 L 1001.818622 568.937766 L 1003.168077 530.104559 L 1004.517533 563.305167 L 1005.866989 555.73617 L 1007.216445 560.296909 L 1008.565901 582.695386 L 1009.915357 556.995745 L 1011.264813 582.143735 L 1012.614268 573.980615 L 1013.963724 578.280851 L 1015.31318 589.415114 L 1016.662636 595.605599 L 1018.012092 595.099712 L 1019.361548 591.225532 L 1020.711004 576.238298 L 1023.409915 586.26779 L 1024.759371 576.190071 L 1026.108827 574.609035 L 1028.807739 530.274772 L 1030.157195 521.0221 L 1031.506651 550.721227 L 1032.856106 518.079824 L 1034.205562 550.308603 L 1035.555018 565.675988 L 1036.904474 519.146099 L 1038.25393 551.987506 L 1039.603386 557.911222 L 1040.952842 581.731528 L 1042.302297 593.408828 L 1043.651753 587.012361 L 1045.001209 595.992588 L 1046.350665 598.816451 L 1047.700121 597.697444 L 1049.049577 596.147112 L 1050.399033 600.905787 L 1051.748489 600.919149 L 1053.097944 596.113384 L 1054.4474 589.416836 L 1055.796856 597.717281 L 1058.495768 577.474495 L 1059.845224 554.455792 L 1061.19468 547.110638 L 1062.544135 587.858442 L 1063.893591 589.923837 L 1065.243047 552.380759 L 1066.592503 564.037271 L 1067.941959 553.63531 L 1069.291415 562.512886 L 1070.640871 578.88121 L 1071.990326 597.235478 L 1073.339782 594.842203 L 1074.689238 600.135332 L 1076.038694 587.443309 L 1077.38815 596.995952 L 1078.737606 601.762476 L 1080.087062 603.982979 L 1081.436518 599.644793 L 1082.785973 600.578514 L 1084.135429 597.379031 L 1085.484885 589.880563 L 1086.834341 600.725249 L 1088.183797 597.890945 L 1089.533253 599.330195 L 1090.882709 583.332005 L 1092.232164 569.930606 L 1093.58162 578.402283 L 1094.931076 580.191542 L 1096.280532 578.443799 L 1097.629988 574.53617 L 1098.979444 580.526158 L 1100.3289 585.602107 L 1101.678356 600.772012 L 1103.027811 596.755766 L 1104.377267 591.195918 L 1105.726723 596.501914 L 1107.076179 595.888264 L 1108.425635 593.925034 L 1109.775091 600.138287 L 1111.124547 599.314154 L 1112.474002 605.055613 L 1113.823458 601.994377 L 1115.172914 595.35642 L 1116.52237 595.577604 L 1117.871826 597.752544 L 1119.221282 593.991429 L 1120.570738 594.925517 L 1121.920193 597.276493 L 1123.269649 587.316047 L 1124.619105 588.140676 L 1125.968561 559.696788 L 1127.318017 540.400873 L 1128.667473 552.306753 L 1130.016929 483.685106 L 1132.71584 558.092401 L 1134.065296 551.640703 L 1135.414752 577.688975 L 1136.764208 575.168794 L 1138.113664 580.736071 L 1139.46312 571.77638 L 1140.812576 594.636643 L 1142.162031 595.65918 L 1143.511487 594.563141 L 1144.860943 596.296571 L 1146.210399 599.081625 L 1147.559855 599.268133 L 1148.909311 598.899616 L 1150.258767 584.847642 L 1151.608222 590.096692 L 1152.957678 592.132082 L 1154.307134 593.607041 L 1155.65659 584.698487 L 1157.006046 565.372809 L 1158.355502 549.161517 L 1159.704958 561.967505 L 1161.054414 557.659574 L 1162.403869 566.559191 L 1163.753325 563.953863 L 1165.102781 569.363516 L 1166.452237 582.754548 L 1167.801693 585.634043 L 1169.151149 585.055319 L 1170.500605 592.138784 L 1171.85006 596.069458 L 1173.199516 591.195745 L 1174.548972 588.242166 L 1175.898428 594.250973 L 1177.247884 597.989906 L 1178.59734 596.467223 L 1179.946796 592.582297 L 1182.645707 595.448636 L 1183.995163 588.151275 L 1185.344619 592.581997 L 1186.694075 592.483797 L 1188.043531 555.226574 L 1189.392987 575.250248 L 1190.742443 580.823771 L 1192.091898 537.498527 L 1193.441354 564.638885 L 1194.79081 499.364321 L 1196.140266 533.933333 L 1197.489722 492.350484 L 1198.839178 506.52766 L 1200.188634 572.923466 L 1201.538089 591.884135 L 1202.887545 592.915629 L 1204.237001 584.458011 L 1205.586457 589.052781 L 1206.935913 598.339056 L 1208.285369 587.351227 L 1209.634825 594.16647 L 1210.984281 597.330157 L 1212.333736 596.77678 L 1213.683192 593.632686 L 1215.032648 593.341885 L 1216.382104 585.32276 L 1217.73156 590.110996 L 1219.081016 584.863158 L 1220.430472 574.748936 L 1223.129383 586.572939 L 1225.828295 537.93497 L 1227.177751 552.017296 L 1228.527207 559.904419 L 1229.876663 556.876596 L 1231.226119 527.061908 L 1232.575574 524.124365 L 1233.92503 564.903008 L 1235.274486 577.974573 L 1236.623942 582.276123 L 1237.973398 581.58646 L 1239.322854 586.488611 L 1240.67231 598.745133 L 1242.021765 593.940426 L 1243.371221 596.981021 L 1244.720677 594.552311 L 1246.070133 595.047959 L 1247.419589 595.076711 L 1248.769045 596.541489 L 1250.118501 596.544734 L 1251.467956 600.163011 L 1252.817412 597.677301 L 1254.166868 590.039478 L 1255.516324 532.337589 L 1256.86578 505.781245 L 1258.215236 532.846558 L 1259.564692 532.521151 L 1260.914148 579.814792 L 1262.263603 576.509356 L 1263.613059 570.377563 L 1264.962515 581.394884 L 1266.311971 575.366832 L 1267.661427 590.856876 L 1269.010883 594.143602 L 1270.360339 601.948631 L 1271.709794 592.724436 L 1273.05925 601.604294 L 1274.408706 598.233435 L 1275.758162 596.68101 L 1277.107618 597.712462 L 1278.457074 600.635461 L 1279.80653 599.719416 L 1281.155985 593.620352 L 1282.505441 594.517095 L 1283.854897 584.504815 L 1285.204353 581.737116 L 1286.553809 596.545928 L 1287.903265 583.530793 L 1289.252721 587.893144 L 1290.602177 584.092721 L 1291.951632 569.075177 L 1293.301088 582.829467 L 1294.650544 589.402035 L 1296 578.371147 L 1297.349456 591.935148 L 1298.698912 594.707565 L 1300.048368 591.982979 L 1301.397823 599.625844 L 1302.747279 600.907732 L 1304.096735 598.785612 L 1305.446191 594.293437 L 1306.795647 597.540223 L 1309.494559 605.05741 L 1310.844015 602.823315 L 1312.19347 599.669715 L 1313.542926 595.454423 L 1314.892382 596.262537 L 1316.241838 593.084916 L 1317.591294 588.825381 L 1318.94075 593.490977 L 1320.290206 582.551948 L 1321.639661 577.880011 L 1322.989117 567.046809 L 1324.338573 549.689835 L 1325.688029 578.195219 L 1327.037485 579.456055 L 1328.386941 586.052386 L 1329.736397 599.079074 L 1331.085852 601.683746 L 1332.435308 602.809011 L 1333.784764 602.560095 L 1335.13422 601.47234 L 1336.483676 600.805885 L 1337.833132 597.388247 L 1339.182588 597.981486 L 1340.532044 601.156116 L 1341.881499 600.791489 L 1343.230955 592.182651 L 1344.580411 593.163436 L 1345.929867 597.203529 L 1347.279323 593.534012 L 1348.628779 594.886867 L 1351.32769 574.224308 L 1352.677146 575.611198 L 1354.026602 563.483946 L 1355.376058 464.441608 L 1356.725514 492.543907 L 1358.07497 557.126909 L 1359.424426 579.591895 L 1360.773881 558.851706 L 1362.123337 565.661305 L 1363.472793 555.675094 L 1364.822249 584.055731 L 1366.171705 589.769849 L 1367.521161 575.73617 L 1368.870617 578.973119 L 1370.220073 581.487359 L 1371.569528 590.834746 L 1372.918984 598.976503 L 1374.26844 595.58572 L 1375.617896 596.829314 L 1376.967352 599.883982 L 1378.316808 595.518275 L 1379.666264 596.475151 L 1381.015719 597.666869 L 1382.365175 596.21102 L 1383.714631 566.759918 L 1385.064087 564.144681 L 1386.413543 548.592908 L 1387.762999 507.970821 L 1389.112455 536.540649 L 1390.461911 548.328132 L 1391.811366 577.893144 L 1393.160822 521.670922 L 1394.510278 576.146205 L 1395.859734 588.571125 L 1397.20919 586.770213 L 1398.558646 587.963636 L 1399.908102 593.55868 L 1401.257557 580.874617 L 1403.956469 602.22234 L 1405.305925 602.233072 L 1408.004837 597.376918 L 1409.354293 591.538723 L 1410.703748 594.382506 L 1412.053204 595.954152 L 1413.40266 595.921208 L 1414.752116 594.178542 L 1416.101572 583.323633 L 1417.451028 565.046809 L 1418.800484 579.926241 L 1420.14994 570.442037 L 1421.499395 574.242898 L 1422.848851 561.719923 L 1424.198307 573.527845 L 1425.547763 578.132178 L 1426.897219 590.940077 L 1428.246675 579.523736 L 1429.596131 579.195745 L 1430.945586 590.544104 L 1432.295042 593.928267 L 1433.644498 593.153191 L 1434.993954 596.448388 L 1436.34341 601.314286 L 1437.692866 596.729498 L 1439.042322 601.144309 L 1440.391778 601.005681 L 1441 596.754107 L 1441 596.754107" clip-path="url(#p48b5c5fe88)" fill="none" stroke="#8dd3c7" stroke-width="1.5" stroke-linecap="square"/></g><g id="patch_3"><path d="M 180 640.8 L 180 86.4" fill="none" stroke="#ffffff" stroke-width="0.8" stroke-linejoin="miter" stroke-linecap="square"/></g><g id="patch_4"><path d="M 1296 640.8 L 1296 86.4" fill="none" stroke="#ffffff" stroke-width="0.8" stroke-linejoin="miter" stroke-linecap="square"/></g><g id="patch_5"><path d="M 180 640.8 L 1296 640.8" fill="none" stroke="#ffffff" stroke-width="0.8" stroke-linejoin="miter" stroke-linecap="square"/></g><g id="patch_6"><path d="M 180 86.4 L 1296 86.4" fill="none" stroke="#ffffff" stroke-width="0.8" stroke-linejoin="miter" stroke-linecap="square"/></g><g id="text_19"><g transform="translate(676.92375 80.4) scale(0.12 -0.12)" fill="#ffffff"><defs><path id="DejaVuSans-41" d="M 2188 4044 L 1331 1722 L 3047 1722 L 2188 4044 z M 1831 4666 L 2547 4666 L 4325 0 L 3669 0 L 3244 1197 L 1141 1197 L 716 0 L 50 0 L 1831 4666 z" transform="scale(0.015625)"/><path id="DejaVuSans-76" d="M 191 3500 L 800 3500 L 1894 563 L 2988 3500 L 3597 3500 L 2284 0 L 1503 0 L 191 3500 z" transform="scale(0.015625)"/><path id="DejaVuSans-67" d="M 2906 1791 Q 2906 2416 2648 2759 Q 2391 3103 1925 3103 Q 1463 3103 1205 2759 Q 947 2416 947 1791 Q 947 1169 1205 825 Q 1463 481 1925 481 Q 2391 481 2648 825 Q 2906 1169 2906 1791 z M 3481 434 Q 3481 -459 3084 -895 Q 2688 -1331 1869 -1331 Q 1566 -1331 1297 -1286 Q 1028 -1241 775 -1147 L 775 -588 Q 1028 -725 1275 -790 Q 1522 -856 1778 -856 Q 2344 -856 2625 -561 Q 2906 -266 2906 331 L 2906 616 Q 2728 306 2450 153 Q 2172 0 1784 0 Q 1141 0 747 490 Q 353 981 353 1791 Q 353 2603 747 3093 Q 1141 3584 1784 3584 Q 2172 3584 2450 3431 Q 2728 3278 2906 2969 L 2906 3500 L 3481 3500 L 3481 434 z" transform="scale(0.015625)"/></defs><use xlink:href="#DejaVuSans-41"/><use xlink:href="#DejaVuSans-76" x="62.533"/><use xlink:href="#DejaVuSans-65" x="121.713"/><use xlink:href="#DejaVuSans-72" x="183.236"/><use xlink:href="#DejaVuSans-61" x="224.35"/><use xlink:href="#DejaVuSans-67" x="285.629"/><use xlink:href="#DejaVuSans-65" x="349.105"/><use xlink:href="#DejaVuSans-20" x="410.629"/><use xlink:href="#DejaVuSans-75" x="442.416"/><use xlink:href="#DejaVuSans-70" x="505.795"/><use xlink:href="#DejaVuSans-6c" x="569.271"/><use xlink:href="#DejaVuSans-6f" x="597.055"/><use xlink:href="#DejaVuSans-61" x="658.236"/><use xlink:href="#DejaVuSans-64" x="719.516"/><use xlink:href="#DejaVuSans-20" x="782.992"/><use xlink:href="#DejaVuSans-72" x="814.779"/><use xlink:href="#DejaVuSans-61" x="855.893"/><use xlink:href="#DejaVuSans-74" x="917.172"/><use xlink:href="#DejaVuSans-65" x="956.381"/></g></g></g></g><defs><clipPath id="p48b5c5fe88"><rect x="180" y="86.4" width="1116" height="554.4"/></clipPath></defs></svg>