<svg xmlns:xlink="http://www.w3.org/1999/xlink" width="1920" height="960" viewBox="0 0 1440 720" xmlns="http://www.w3.org/2000/svg" version="1.1"><metadata><rdf:RDF xmlns:dc="http://purl.org/dc/elements/1.1/" xmlns:cc="http://creativecommons.org/ns#" xmlns:rdf="http://www.w3.org/1999/02/22-rdf-syntax-ns#"><cc:Work><dc:type rdf:resource="http://purl.org/dc/dcmitype/StillImage"/><dc:format>image/svg+xml</dc:format><dc:creator><cc:Agent><dc:title>Matplotlib v3.7.1, https://matplotlib.org/</dc:title></cc:Agent></dc:creator></cc:Work></rdf:RDF></metadata><defs><style type="text/css">*{stroke-linejoin:round;stroke-linecap:butt}</style></defs><g id="figure_1"><g id="patch_1"><path d="M 0 720 L 1440 720 L 1440 0 L 0 0 z"/></g><g id="axes_1"><g id="patch_2"><path d="M 180 640.8 L 1296 640.8 L 1296 86.4 L 180 86.4 z"/></g><g id="matplotlib.axis_1"><g id="xtick_1"><g id="line2d_1"><defs><path id="m6c4196d13b" d="M 0 0 L 0 3.5" stroke="#ffffff" stroke-width="0.8"/></defs><g><use xlink:href="#m6c4196d13b" x="180" y="640.8" fill="#ffffff" stroke="#ffffff" stroke-width="0.8"/></g></g><g id="text_1"><g transform="translate(176.81875 655.398438) scale(0.1 -0.1)" fill="#ffffff"><defs><path id="DejaVuSans-30" d="M 2034 4250 Q 1547 4250 1301 3770 Q 1056 3291 1056 2328 Q 1056 1369 1301 889 Q 1547 409 2034 409 Q 2525 409 2770 889 Q 3016 1369 3016 2328 Q 3016 3291 2770 3770 Q 2525 4250 2034 4250 z M 2034 4750 Q 2819 4750 3233 4129 Q 3647 3509 3647 2328 Q 3647 1150 3233 529 Q 2819 -91 2034 -91 Q 1250 -91 836 529 Q 422 1150 422 2328 Q 422 3509 836 4129 Q 1250 4750 2034 4750 z" transform="scale(0.015625)"/></defs><use xlink:href="#DejaVuSans-30"/></g></g></g><g id="xtick_2"><g id="line2d_2"><g><use xlink:href="#m6c4196d13b" x="381.081" y="640.8" fill="#ffffff" stroke="#ffffff" stroke-width="0.8"/></g></g><g id="text_2"><g transform="translate(371.537331 655.398438) scale(0.1 -0.1)" fill="#ffffff"><defs><path id="DejaVuSans-32" d="M 1228 531 L 3431 531 L 3431 0 L 469 0 L 469 531 Q 828 903 1448 1529 Q 2069 2156 2228 2338 Q 2531 2678 2651 2914 Q 2772 3150 2772 3378 Q 2772 3750 2511 3984 Q 2250 4219 1831 4219 Q 1534 4219 1204 4116 Q 875 4013 500 3803 L 500 4441 Q 881 4594 1212 4672 Q 1544 4750 1819 4750 Q 2544 4750 2975 4387 Q 3406 4025 3406 3419 Q 3406 3131 3298 2873 Q 3191 2616 2906 2266 Q 2828 2175 2409 1742 Q 1991 1309 1228 531 z" transform="scale(0.015625)"/></defs><use xlink:href="#DejaVuSans-32"/><use xlink:href="#DejaVuSans-30" x="63.623"/><use xlink:href="#DejaVuSans-30" x="127.246"/></g></g></g><g id="xtick_3"><g id="line2d_3"><g><use xlink:href="#m6c4196d13b" x="582.162" y="640.8" fill="#ffffff" stroke="#ffffff" stroke-width="0.8"/></g></g><g id="text_3"><g transform="translate(572.618412 655.398438) scale(0.1 -0.1)" fill="#ffffff"><defs><path id="DejaVuSans-34" d="M 2419 4116 L 825 1625 L 2419 1625 L 2419 4116 z M 2253 4666 L 3047 4666 L 3047 1625 L 3713 1625 L 3713 1100 L 3047 1100 L 3047 0 L 2419 0 L 2419 1100 L 313 1100 L 313 1709 L 2253 4666 z" transform="scale(0.015625)"/></defs><use xlink:href="#DejaVuSans-34"/><use xlink:href="#DejaVuSans-30" x="63.623"/><use xlink:href="#DejaVuSans-30" x="127.246"/></g></g></g><g id="xtick_4"><g id="line2d_4"><g><use xlink:href="#m6c4196d13b" x="783.243" y="640.8" fill="#ffffff" stroke="#ffffff" stroke-width="0.8"/></g></g><g id="text_4"><g transform="translate(773.699493 655.398438) scale(0.1 -0.1)" fill="#ffffff"><defs><path id="DejaVuSans-36" d="M 2113 2584 Q 1688 2584 1439 2293 Q 1191 2003 1191 1497 Q 1191 994 1439 701 Q 1688 409 2113 409 Q 2538 409 2786 701 Q 3034 994 3034 1497 Q 3034 2003 2786 2293 Q 2538 2584 2113 2584 z M 3366 4563 L 3366 3988 Q 3128 4100 2886 4159 Q 2644 4219 2406 4219 Q 1781 4219 1451 3797 Q 1122 3375 1075 2522 Q 1259 2794 1537 2939 Q 1816 3084 2150 3084 Q 2853 3084 3261 2657 Q 3669 2231 3669 1497 Q 3669 778 3244 343 Q 2819 -91 2113 -91 Q 1303 -91 875 529 Q 447 1150 447 2328 Q 447 3434 972 4092 Q 1497 4750 2381 4750 Q 2619 4750 2861 4703 Q 3103 4656 3366 4563 z" transform="scale(0.015625)"/></defs><use xlink:href="#DejaVuSans-36"/><use xlink:href="#DejaVuSans-30" x="63.623"/><use xlink:href="#DejaVuSans-30" x="127.246"/></g></g></g><g id="xtick_5"><g id="line2d_5"><g><use xlink:href="#m6c4196d13b" x="984.324" y="640.8" fill="#ffffff" stroke="#ffffff" stroke-width="0.8"/></g></g><g id="text_5"><g transform="translate(974.780574 655.398438) scale(0.1 -0.1)" fill="#ffffff"><defs><path id="DejaVuSans-38" d="M 2034 2216 Q 1584 2216 1326 1975 Q 1069 1734 1069 1313 Q 1069 891 1326 650 Q 1584 409 2034 409 Q 2484 409 2743 651 Q 3003 894 3003 1313 Q 3003 1734 2745 1975 Q 2488 2216 2034 2216 z M 1403 2484 Q 997 2584 770 2862 Q 544 3141 544 3541 Q 544 4100 942 4425 Q 1341 4750 2034 4750 Q 2731 4750 3128 4425 Q 3525 4100 3525 3541 Q 3525 3141 3298 2862 Q 3072 2584 2669 2484 Q 3125 2378 3379 2068 Q 3634 1759 3634 1313 Q 3634 634 3220 271 Q 2806 -91 2034 -91 Q 1263 -91 848 271 Q 434 634 434 1313 Q 434 1759 690 2068 Q 947 2378 1403 2484 z M 1172 3481 Q 1172 3119 1398 2916 Q 1625 2713 2034 2713 Q 2441 2713 2670 2916 Q 2900 3119 2900 3481 Q 2900 3844 2670 4047 Q 2441 4250 2034 4250 Q 1625 4250 1398 4047 Q 1172 3844 1172 3481 z" transform="scale(0.015625)"/></defs><use xlink:href="#DejaVuSans-38"/><use xlink:href="#DejaVuSans-30" x="63.623"/><use xlink:href="#DejaVuSans-30" x="127.246"/></g></g></g><g id="xtick_6"><g id="line2d_6"><g><use xlink:href="#m6c4196d13b" x="1185.405" y="640.8" fill="#ffffff" stroke="#ffffff" stroke-width="0.8"/></g></g><g id="text_6"><g transform="translate(1172.680405 655.398438) scale(0.1 -0.1)" fill="#ffffff"><defs><path id="DejaVuSans-31" d="M 794 531 L 1825 531 L 1825 4091 L 703 3866 L 703 4441 L 1819 4666 L 2450 4666 L 2450 531 L 3481 531 L 3481 0 L 794 0 L 794 531 z" transform="scale(0.015625)"/></defs><use xlink:href="#DejaVuSans-31"/><use xlink:href="#DejaVuSans-30" x="63.623"/><use xlink:href="#DejaVuSans-30" x="127.246"/><use xlink:href="#DejaVuSans-30" x="190.869"/></g></g></g><g id="xtick_7"><g id="line2d_7"><defs><path id="m33e0f45e30" d="M 0 0 L 0 2" stroke="#ffffff" stroke-width="0.6"/></defs><g><use xlink:href="#m33e0f45e30" x="230.27" y="640.8" fill="#ffffff" stroke="#ffffff" stroke-width="0.6"/></g></g></g><g id="xtick_8"><g id="line2d_8"><g><use xlink:href="#m33e0f45e30" x="280.541" y="640.8" fill="#ffffff" stroke="#ffffff" stroke-width="0.6"/></g></g></g><g id="xtick_9"><g id="line2d_9"><g><use xlink:href="#m33e0f45e30" x="330.811" y="640.8" fill="#ffffff" stroke="#ffffff" stroke-width="0.6"/></g></g></g><g id="xtick_10"><g id="line2d_10"><g><use xlink:href="#m33e0f45e30" x="431.351" y="640.8" fill="#ffffff" stroke="#ffffff" stroke-width="0.6"/></g></g></g><g id="xtick_11"><g id="line2d_11"><g><use xlink:href="#m33e0f45e30" x="481.622" y="640.8" fill="#ffffff" stroke="#ffffff" stroke-width="0.6"/></g></g></g><g id="xtick_12"><g id="line2d_12"><g><use xlink:href="#m33e0f45e30" x="531.892" y="640.8" fill="#ffffff" stroke="#ffffff" stroke-width="0.6"/></g></g></g><g id="xtick_13"><g id="line2d_13"><g><use xlink:href="#m33e0f45e30" x="632.432" y="640.8" fill="#ffffff" stroke="#ffffff" stroke-width="0.6"/></g></g></g><g id="xtick_14"><g id="line2d_14"><g><use xlink:href="#m33e0f45e30" x="682.703" y="640.8" fill="#ffffff" stroke="#ffffff" stroke-width="0.6"/></g></g></g><g id="xtick_15"><g id="line2d_15"><g><use xlink:href="#m33e0f45e30" x="732.973" y="640.8" fill="#ffffff" stroke="#ffffff" stroke-width="0.6"/></g></g></g><g id="xtick_16"><g id="line2d_16"><g><use xlink:href="#m33e0f45e30" x="833.514" y="640.8" fill="#ffffff" stroke="#ffffff" stroke-width="0.6"/></g></g></g><g id="xtick_17"><g id="line2d_17"><g><use xlink:href="#m33e0f45e30" x="883.784" y="640.8" fill="#ffffff" stroke="#ffffff" stroke-width="0.6"/></g></g></g><g id="xtick_18"><g id="line2d_18"><g><use xlink:href="#m33e0f45e30" x="934.054" y="640.8" fill="#ffffff" stroke="#ffffff" stroke-width="0.6"/></g></g></g><g id="xtick_19"><g id="line2d_19"><g><use xlink:href="#m33e0f45e30" x="1034.595" y="640.8" fill="#ffffff" stroke="#ffffff" stroke-width="0.6"/></g></g></g><g id="xtick_20"><g id="line2d_20"><g><use xlink:href="#m33e0f45e30" x="1084.865" y="640.8" fill="#ffffff" stroke="#ffffff" stroke-width="0.6"/></g></g></g><g id="xtick_21"><g id="line2d_21"><g><use xlink:href="#m33e0f45e30" x="1135.135" y="640.8" fill="#ffffff" stroke="#ffffff" stroke-width="0.6"/></g></g></g><g id="xtick_22"><g id="line2d_22"><g><use xlink:href="#m33e0f45e30" x="1235.676" y="640.8" fill="#ffffff" stroke="#ffffff" stroke-width="0.6"/></g></g></g><g id="xtick_23"><g id="line2d_23"><g><use xlink:href="#m33e0f45e30" x="1285.946" y="640.8" fill="#ffffff" stroke="#ffffff" stroke-width="0.6"/></g></g></g><g id="text_7"><g transform="translate(638.625781 669.076563) scale(0.1 -0.1)" fill="#ffffff"><defs><path id="DejaVuSans-48" d="M 628 4666 L 1259 4666 L 1259 2753 L 3553 2753 L 3553 4666 L 4184 4666 L 4184 0 L 3553 0 L 3553 2222 L 1259 2222 L 1259 0 L 628 0 L 628 4666 z" transform="scale(0.015625)"/><path id="DejaVuSans-6f" d="M 1959 3097 Q 1497 3097 1228 2736 Q 959 2375 959 1747 Q 959 1119 1226 758 Q 1494 397 1959 397 Q 2419 397 2687 759 Q 2956 1122 2956 1747 Q 2956 2369 2687 2733 Q 2419 3097 1959 3097 z M 1959 3584 Q 2709 3584 3137 3096 Q 3566 2609 3566 1747 Q 3566 888 3137 398 Q 2709 -91 1959 -91 Q 1206 -91 779 398 Q 353 888 353 1747 Q 353 2609 779 3096 Q 1206 3584 1959 3584 z" transform="scale(0.015625)"/><path id="DejaVuSans-75" d="M 544 1381 L 544 3500 L 1119 3500 L 1119 1403 Q 1119 906 1312 657 Q 1506 409 1894 409 Q 2359 409 2629 706 Q 2900 1003 2900 1516 L 2900 3500 L 3475 3500 L 3475 0 L 2900 0 L 2900 538 Q 2691 219 2414 64 Q 2138 -91 1772 -91 Q 1169 -91 856 284 Q 544 659 544 1381 z M 1991 3584 L 1991 3584 z" transform="scale(0.015625)"/><path id="DejaVuSans-72" d="M 2631 2963 Q 2534 3019 2420 3045 Q 2306 3072 2169 3072 Q 1681 3072 1420 2755 Q 1159 2438 1159 1844 L 1159 0 L 581 0 L 581 3500 L 1159 3500 L 1159 2956 Q 1341 3275 1631 3429 Q 1922 3584 2338 3584 Q 2397 3584 2469 3576 Q 2541 3569 2628 3553 L 2631 2963 z" transform="scale(0.015625)"/><path id="DejaVuSans-73" d="M 2834 3397 L 2834 2853 Q 2591 2978 2328 3040 Q 2066 3103 1784 3103 Q 1356 3103 1142 2972 Q 928 2841 928 2578 Q 928 2378 1081 2264 Q 1234 2150 1697 2047 L 1894 2003 Q 2506 1872 2764 1633 Q 3022 1394 3022 966 Q 3022 478 2636 193 Q 2250 -91 1575 -91 Q 1294 -91 989 -36 Q 684 19 347 128 L 347 722 Q 666 556 975 473 Q 1284 391 1588 391 Q 1994 391 2212 530 Q 2431 669 2431 922 Q 2431 1156 2273 1281 Q 2116 1406 1581 1522 L 1381 1569 Q 847 1681 609 1914 Q 372 2147 372 2553 Q 372 3047 722 3315 Q 1072 3584 1716 3584 Q 2034 3584 2315 3537 Q 2597 3491 2834 3397 z" transform="scale(0.015625)"/><path id="DejaVuSans-20" transform="scale(0.015625)"/><path id="DejaVuSans-69" d="M 603 3500 L 1178 3500 L 1178 0 L 603 0 L 603 3500 z M 603 4863 L 1178 4863 L 1178 4134 L 603 4134 L 603 4863 z" transform="scale(0.015625)"/><path id="DejaVuSans-6e" d="M 3513 2113 L 3513 0 L 2938 0 L 2938 2094 Q 2938 2591 2744 2837 Q 2550 3084 2163 3084 Q 1697 3084 1428 2787 Q 1159 2491 1159 1978 L 1159 0 L 581 0 L 581 3500 L 1159 3500 L 1159 2956 Q 1366 3272 1645 3428 Q 1925 3584 2291 3584 Q 2894 3584 3203 3211 Q 3513 2838 3513 2113 z" transform="scale(0.015625)"/><path id="DejaVuSans-63" d="M 3122 3366 L 3122 2828 Q 2878 2963 2633 3030 Q 2388 3097 2138 3097 Q 1578 3097 1268 2742 Q 959 2388 959 1747 Q 959 1106 1268 751 Q 1578 397 2138 397 Q 2388 397 2633 464 Q 2878 531 3122 666 L 3122 134 Q 2881 22 2623 -34 Q 2366 -91 2075 -91 Q 1284 -91 818 406 Q 353 903 353 1747 Q 353 2603 823 3093 Q 1294 3584 2113 3584 Q 2378 3584 2631 3529 Q 2884 3475 3122 3366 z" transform="scale(0.015625)"/><path id="DejaVuSans-65" d="M 3597 1894 L 3597 1613 L 953 1613 Q 991 1019 1311 708 Q 1631 397 2203 397 Q 2534 397 2845 478 Q 3156 559 3463 722 L 3463 178 Q 3153 47 2828 -22 Q 2503 -91 2169 -91 Q 1331 -91 842 396 Q 353 884 353 1716 Q 353 2575 817 3079 Q 1281 3584 2069 3584 Q 2775 3584 3186 3129 Q 3597 2675 3597 1894 z M 3022 2063 Q 3016 2534 2758 2815 Q 2500 3097 2075 3097 Q 1594 3097 1305 2825 Q 1016 2553 972 2059 L 3022 2063 z" transform="scale(0.015625)"/><path id="DejaVuSans-2f" d="M 1625 4666 L 2156 4666 L 531 -594 L 0 -594 L 1625 4666 z" transform="scale(0.015625)"/><path id="DejaVuSans-33" d="M 2597 2516 Q 3050 2419 3304 2112 Q 3559 1806 3559 1356 Q 3559 666 3084 287 Q 2609 -91 1734 -91 Q 1441 -91 1130 -33 Q 819 25 488 141 L 488 750 Q 750 597 1062 519 Q 1375 441 1716 441 Q 2309 441 2620 675 Q 2931 909 2931 1356 Q 2931 1769 2642 2001 Q 2353 2234 1838 2234 L 1294 2234 L 1294 2753 L 1863 2753 Q 2328 2753 2575 2939 Q 2822 3125 2822 3475 Q 2822 3834 2567 4026 Q 2313 4219 1838 4219 Q 1578 4219 1281 4162 Q 984 4106 628 3988 L 628 4550 Q 988 4650 1302 4700 Q 1616 4750 1894 4750 Q 2613 4750 3031 4423 Q 3450 4097 3450 3541 Q 3450 3153 3228 2886 Q 3006 2619 2597 2516 z" transform="scale(0.015625)"/><path id="DejaVuSans-35" d="M 691 4666 L 3169 4666 L 3169 4134 L 1269 4134 L 1269 2991 Q 1406 3038 1543 3061 Q 1681 3084 1819 3084 Q 2600 3084 3056 2656 Q 3513 2228 3513 1497 Q 3513 744 3044 326 Q 2575 -91 1722 -91 Q 1428 -91 1123 -41 Q 819 9 494 109 L 494 744 Q 775 591 1075 516 Q 1375 441 1709 441 Q 2250 441 2565 725 Q 2881 1009 2881 1497 Q 2881 1984 2565 2268 Q 2250 2553 1709 2553 Q 1456 2553 1204 2497 Q 953 2441 691 2322 L 691 4666 z" transform="scale(0.015625)"/><path id="DejaVuSans-3a" d="M 750 794 L 1409 794 L 1409 0 L 750 0 L 750 794 z M 750 3309 L 1409 3309 L 1409 2516 L 750 2516 L 750 3309 z" transform="scale(0.015625)"/><path id="DejaVuSans-28" d="M 1984 4856 Q 1566 4138 1362 3434 Q 1159 2731 1159 2009 Q 1159 1288 1364 580 Q 1569 -128 1984 -844 L 1484 -844 Q 1016 -109 783 600 Q 550 1309 550 2009 Q 550 2706 781 3412 Q 1013 4119 1484 4856 L 1984 4856 z" transform="scale(0.015625)"/><path id="DejaVuSans-55" d="M 556 4666 L 1191 4666 L 1191 1831 Q 1191 1081 1462 751 Q 1734 422 2344 422 Q 2950 422 3222 751 Q 3494 1081 3494 1831 L 3494 4666 L 4128 4666 L 4128 1753 Q 4128 841 3676 375 Q 3225 -91 2344 -91 Q 1459 -91 1007 375 Q 556 841 556 1753 L 556 4666 z" transform="scale(0.015625)"/><path id="DejaVuSans-43" d="M 4122 4306 L 4122 3641 Q 3803 3938 3442 4084 Q 3081 4231 2675 4231 Q 1875 4231 1450 3742 Q 1025 3253 1025 2328 Q 1025 1406 1450 917 Q 1875 428 2675 428 Q 3081 428 3442 575 Q 3803 722 4122 1019 L 4122 359 Q 3791 134 3420 21 Q 3050 -91 2638 -91 Q 1578 -91 968 557 Q 359 1206 359 2328 Q 359 3453 968 4101 Q 1578 4750 2638 4750 Q 3056 4750 3426 4639 Q 3797 4528 4122 4306 z" transform="scale(0.015625)"/><path id="DejaVuSans-54" d="M -19 4666 L 3928 4666 L 3928 4134 L 2272 4134 L 2272 0 L 1638 0 L 1638 4134 L -19 4134 L -19 4666 z" transform="scale(0.015625)"/><path id="DejaVuSans-29" d="M 513 4856 L 1013 4856 Q 1481 4119 1714 3412 Q 1947 2706 1947 2009 Q 1947 1309 1714 600 Q 1481 -109 1013 -844 L 513 -844 Q 928 -128 1133 580 Q 1338 1288 1338 2009 Q 1338 2731 1133 3434 Q 928 4138 513 4856 z" transform="scale(0.015625)"/></defs><use xlink:href="#DejaVuSans-48"/><use xlink:href="#DejaVuSans-6f" x="75.195"/><use xlink:href="#DejaVuSans-75" x="136.377"/><use xlink:href="#DejaVuSans-72" x="199.756"/><use xlink:href="#DejaVuSans-73" x="240.869"/><use xlink:href="#DejaVuSans-20" x="292.969"/><use xlink:href="#DejaVuSans-73" x="324.756"/><use xlink:href="#DejaVuSans-69" x="376.855"/><use xlink:href="#DejaVuSans-6e" x="404.639"/><use xlink:href="#DejaVuSans-63" x="468.018"/><use xlink:href="#DejaVuSans-65" x="522.998"/><use xlink:href="#DejaVuSans-20" x="584.521"/><use xlink:href="#DejaVuSans-32" x="616.309"/><use xlink:href="#DejaVuSans-36" x="679.932"/><use xlink:href="#DejaVuSans-2f" x="743.555"/><use xlink:href="#DejaVuSans-30" x="777.246"/><use xlink:href="#DejaVuSans-32" x="840.869"/><use xlink:href="#DejaVuSans-2f" x="904.492"/><use xlink:href="#DejaVuSans-32" x="938.184"/><use xlink:href="#DejaVuSans-30" x="1001.807"/><use xlink:href="#DejaVuSans-32" x="1065.43"/><use xlink:href="#DejaVuSans-33" x="1129.053"/><use xlink:href="#DejaVuSans-20" x="1192.676"/><use xlink:href="#DejaVuSans-30" x="1224.463"/><use xlink:href="#DejaVuSans-35" x="1288.086"/><use xlink:href="#DejaVuSans-3a" x="1351.709"/><use xlink:href="#DejaVuSans-30" x="1385.4"/><use xlink:href="#DejaVuSans-30" x="1449.023"/><use xlink:href="#DejaVuSans-3a" x="1512.646"/><use xlink:href="#DejaVuSans-30" x="1546.338"/><use xlink:href="#DejaVuSans-30" x="1609.961"/><use xlink:href="#DejaVuSans-20" x="1673.584"/><use xlink:href="#DejaVuSans-28" x="1705.371"/><use xlink:href="#DejaVuSans-55" x="1744.385"/><use xlink:href="#DejaVuSans-43" x="1817.578"/><use xlink:href="#DejaVuSans-54" x="1887.402"/><use xlink:href="#DejaVuSans-29" x="1948.486"/></g></g></g><g id="matplotlib.axis_2"><g id="ytick_1"><g id="line2d_24"><defs><path id="m620ad73179" d="M 0 0 L -3.5 0" stroke="#ffffff" stroke-width="0.8"/></defs><g><use xlink:href="#m620ad73179" x="180" y="615.6" fill="#ffffff" stroke="#ffffff" stroke-width="0.8"/></g></g><g id="text_8"><g transform="translate(166.6375 619.399219) scale(0.1 -0.1)" fill="#ffffff"><use xlink:href="#DejaVuSans-30"/></g></g></g><g id="ytick_2"><g id="line2d_25"><g><use xlink:href="#m620ad73179" x="180" y="544.151" fill="#ffffff" stroke="#ffffff" stroke-width="0.8"/></g></g><g id="text_9"><g transform="translate(153.9125 547.950395) scale(0.1 -0.1)" fill="#ffffff"><use xlink:href="#DejaVuSans-31"/><use xlink:href="#DejaVuSans-30" x="63.623"/><use xlink:href="#DejaVuSans-30" x="127.246"/></g></g></g><g id="ytick_3"><g id="line2d_26"><g><use xlink:href="#m620ad73179" x="180" y="472.702" fill="#ffffff" stroke="#ffffff" stroke-width="0.8"/></g></g><g id="text_10"><g transform="translate(153.9125 476.501572) scale(0.1 -0.1)" fill="#ffffff"><use xlink:href="#DejaVuSans-32"/><use xlink:href="#DejaVuSans-30" x="63.623"/><use xlink:href="#DejaVuSans-30" x="127.246"/></g></g></g><g id="ytick_4"><g id="line2d_27"><g><use xlink:href="#m620ad73179" x="180" y="401.254" fill="#ffffff" stroke="#ffffff" stroke-width="0.8"/></g></g><g id="text_11"><g transform="translate(153.9125 405.052749) scale(0.1 -0.1)" fill="#ffffff"><use xlink:href="#DejaVuSans-33"/><use xlink:href="#DejaVuSans-30" x="63.623"/><use xlink:href="#DejaVuSans-30" x="127.246"/></g></g></g><g id="ytick_5"><g id="line2d_28"><g><use xlink:href="#m620ad73179" x="180" y="329.805" fill="#ffffff" stroke="#ffffff" stroke-width="0.8"/></g></g><g id="text_12"><g transform="translate(153.9125 333.603925) scale(0.1 -0.1)" fill="#ffffff"><use xlink:href="#DejaVuSans-34"/><use xlink:href="#DejaVuSans-30" x="63.623"/><use xlink:href="#DejaVuSans-30" x="127.246"/></g></g></g><g id="ytick_6"><g id="line2d_29"><g><use xlink:href="#m620ad73179" x="180" y="258.356" fill="#ffffff" stroke="#ffffff" stroke-width="0.8"/></g></g><g id="text_13"><g transform="translate(153.9125 262.155102) scale(0.1 -0.1)" fill="#ffffff"><use xlink:href="#DejaVuSans-35"/><use xlink:href="#DejaVuSans-30" x="63.623"/><use xlink:href="#DejaVuSans-30" x="127.246"/></g></g></g><g id="ytick_7"><g id="line2d_30"><g><use xlink:href="#m620ad73179" x="180" y="186.907" fill="#ffffff" stroke="#ffffff" stroke-width="0.8"/></g></g><g id="text_14"><g transform="translate(153.9125 190.706279) scale(0.1 -0.1)" fill="#ffffff"><use xlink:href="#DejaVuSans-36"/><use xlink:href="#DejaVuSans-30" x="63.623"/><use xlink:href="#DejaVuSans-30" x="127.246"/></g></g></g><g id="ytick_8"><g id="line2d_31"><g><use xlink:href="#m620ad73179" x="180" y="115.458" fill="#ffffff" stroke="#ffffff" stroke-width="0.8"/></g></g><g id="text_15"><g transform="translate(153.9125 119.257455) scale(0.1 -0.1)" fill="#ffffff"><defs><path id="DejaVuSans-37" d="M 525 4666 L 3525 4666 L 3525 4397 L 1831 0 L 1172 0 L 2766 4134 L 525 4134 L 525 4666 z" transform="scale(0.015625)"/></defs><use xlink:href="#DejaVuSans-37"/><use xlink:href="#DejaVuSans-30" x="63.623"/><use xlink:href="#DejaVuSans-30" x="127.246"/></g></g></g><g id="ytick_9"><g id="line2d_32"><defs><path id="m04310541c7" d="M 0 0 L -2 0" stroke="#ffffff" stroke-width="0.6"/></defs><g><use xlink:href="#m04310541c7" x="180" y="629.89" fill="#ffffff" stroke="#ffffff" stroke-width="0.6"/></g></g></g><g id="ytick_10"><g id="line2d_33"><g><use xlink:href="#m04310541c7" x="180" y="601.31" fill="#ffffff" stroke="#ffffff" stroke-width="0.6"/></g></g></g><g id="ytick_11"><g id="line2d_34"><g><use xlink:href="#m04310541c7" x="180" y="587.02" fill="#ffffff" stroke="#ffffff" stroke-width="0.6"/></g></g></g><g id="ytick_12"><g id="line2d_35"><g><use xlink:href="#m04310541c7" x="180" y="572.731" fill="#ffffff" stroke="#ffffff" stroke-width="0.6"/></g></g></g><g id="ytick_13"><g id="line2d_36"><g><use xlink:href="#m04310541c7" x="180" y="558.441" fill="#ffffff" stroke="#ffffff" stroke-width="0.6"/></g></g></g><g id="ytick_14"><g id="line2d_37"><g><use xlink:href="#m04310541c7" x="180" y="529.861" fill="#ffffff" stroke="#ffffff" stroke-width="0.6"/></g></g></g><g id="ytick_15"><g id="line2d_38"><g><use xlink:href="#m04310541c7" x="180" y="515.572" fill="#ffffff" stroke="#ffffff" stroke-width="0.6"/></g></g></g><g id="ytick_16"><g id="line2d_39"><g><use xlink:href="#m04310541c7" x="180" y="501.282" fill="#ffffff" stroke="#ffffff" stroke-width="0.6"/></g></g></g><g id="ytick_17"><g id="line2d_40"><g><use xlink:href="#m04310541c7" x="180" y="486.992" fill="#ffffff" stroke="#ffffff" stroke-width="0.6"/></g></g></g><g id="ytick_18"><g id="line2d_41"><g><use xlink:href="#m04310541c7" x="180" y="458.413" fill="#ffffff" stroke="#ffffff" stroke-width="0.6"/></g></g></g><g id="ytick_19"><g id="line2d_42"><g><use xlink:href="#m04310541c7" x="180" y="444.123" fill="#ffffff" stroke="#ffffff" stroke-width="0.6"/></g></g></g><g id="ytick_20"><g id="line2d_43"><g><use xlink:href="#m04310541c7" x="180" y="429.833" fill="#ffffff" stroke="#ffffff" stroke-width="0.6"/></g></g></g><g id="ytick_21"><g id="line2d_44"><g><use xlink:href="#m04310541c7" x="180" y="415.543" fill="#ffffff" stroke="#ffffff" stroke-width="0.6"/></g></g></g><g id="ytick_22"><g id="line2d_45"><g><use xlink:href="#m04310541c7" x="180" y="386.964" fill="#ffffff" stroke="#ffffff" stroke-width="0.6"/></g></g></g><g id="ytick_23"><g id="line2d_46"><g><use xlink:href="#m04310541c7" x="180" y="372.674" fill="#ffffff" stroke="#ffffff" stroke-width="0.6"/></g></g></g><g id="ytick_24"><g id="line2d_47"><g><use xlink:href="#m04310541c7" x="180" y="358.384" fill="#ffffff" stroke="#ffffff" stroke-width="0.6"/></g></g></g><g id="ytick_25"><g id="line2d_48"><g><use xlink:href="#m04310541c7" x="180" y="344.094" fill="#ffffff" stroke="#ffffff" stroke-width="0.6"/></g></g></g><g id="ytick_26"><g id="line2d_49"><g><use xlink:href="#m04310541c7" x="180" y="315.515" fill="#ffffff" stroke="#ffffff" stroke-width="0.6"/></g></g></g><g id="ytick_27"><g id="line2d_50"><g><use xlink:href="#m04310541c7" x="180" y="301.225" fill="#ffffff" stroke="#ffffff" stroke-width="0.6"/></g></g></g><g id="ytick_28"><g id="line2d_51"><g><use xlink:href="#m04310541c7" x="180" y="286.935" fill="#ffffff" stroke="#ffffff" stroke-width="0.6"/></g></g></g><g id="ytick_29"><g id="line2d_52"><g><use xlink:href="#m04310541c7" x="180" y="272.646" fill="#ffffff" stroke="#ffffff" stroke-width="0.6"/></g></g></g><g id="ytick_30"><g id="line2d_53"><g><use xlink:href="#m04310541c7" x="180" y="244.066" fill="#ffffff" stroke="#ffffff" stroke-width="0.6"/></g></g></g><g id="ytick_31"><g id="line2d_54"><g><use xlink:href="#m04310541c7" x="180" y="229.776" fill="#ffffff" stroke="#ffffff" stroke-width="0.6"/></g></g></g><g id="ytick_32"><g id="line2d_55"><g><use xlink:href="#m04310541c7" x="180" y="215.487" fill="#ffffff" stroke="#ffffff" stroke-width="0.6"/></g></g></g><g id="ytick_33"><g id="line2d_56"><g><use xlink:href="#m04310541c7" x="180" y="201.197" fill="#ffffff" stroke="#ffffff" stroke-width="0.6"/></g></g></g><g id="ytick_34"><g id="line2d_57"><g><use xlink:href="#m04310541c7" x="180" y="172.617" fill="#ffffff" stroke="#ffffff" stroke-width="0.6"/></g></g></g><g id="ytick_35"><g id="line2d_58"><g><use xlink:href="#m04310541c7" x="180" y="158.328" fill="#ffffff" stroke="#ffffff" stroke-width="0.6"/></g></g></g><g id="ytick_36"><g id="line2d_59"><g><use xlink:href="#m04310541c7" x="180" y="144.038" fill="#ffffff" stroke="#ffffff" stroke-width="0.6"/></g></g></g><g id="ytick_37"><g id="line2d_60"><g><use xlink:href="#m04310541c7" x="180" y="129.748" fill="#ffffff" stroke="#ffffff" stroke-width="0.6"/></g></g></g><g id="ytick_38"><g id="line2d_61"><g><use xlink:href="#m04310541c7" x="180" y="101.168" fill="#ffffff" stroke="#ffffff" stroke-width="0.6"/></g></g></g><g id="ytick_39"><g id="line2d_62"><g><use xlink:href="#m04310541c7" x="180" y="86.879" fill="#ffffff" stroke="#ffffff" stroke-width="0.6"/></g></g></g><g id="text_16"><g transform="translate(147.832812 434.258594) rotate(-90) scale(0.1 -0.1)" fill="#ffffff"><defs><path id="DejaVuSans-53" d="M 3425 4513 L 3425 3897 Q 3066 4069 2747 4153 Q 2428 4238 2131 4238 Q 1616 4238 1336 4038 Q 1056 3838 1056 3469 Q 1056 3159 1242 3001 Q 1428 2844 1947 2747 L 2328 2669 Q 3034 2534 3370 2195 Q 3706 1856 3706 1288 Q 3706 609 3251 259 Q 2797 -91 1919 -91 Q 1588 -91 1214 -16 Q 841 59 441 206 L 441 856 Q 825 641 1194 531 Q 1563 422 1919 422 Q 2459 422 2753 634 Q 3047 847 3047 1241 Q 3047 1584 2836 1778 Q 2625 1972 2144 2069 L 1759 2144 Q 1053 2284 737 2584 Q 422 2884 422 3419 Q 422 4038 858 4394 Q 1294 4750 2059 4750 Q 2388 4750 2728 4690 Q 3069 4631 3425 4513 z" transform="scale(0.015625)"/><path id="DejaVuSans-64" d="M 2906 2969 L 2906 4863 L 3481 4863 L 3481 0 L 2906 0 L 2906 525 Q 2725 213 2448 61 Q 2172 -91 1784 -91 Q 1150 -91 751 415 Q 353 922 353 1747 Q 353 2572 751 3078 Q 1150 3584 1784 3584 Q 2172 3584 2448 3432 Q 2725 3281 2906 2969 z M 947 1747 Q 947 1113 1208 752 Q 1469 391 1925 391 Q 2381 391 2643 752 Q 2906 1113 2906 1747 Q 2906 2381 2643 2742 Q 2381 3103 1925 3103 Q 1469 3103 1208 2742 Q 947 2381 947 1747 z" transform="scale(0.015625)"/><path id="DejaVuSans-62" d="M 3116 1747 Q 3116 2381 2855 2742 Q 2594 3103 2138 3103 Q 1681 3103 1420 2742 Q 1159 2381 1159 1747 Q 1159 1113 1420 752 Q 1681 391 2138 391 Q 2594 391 2855 752 Q 3116 1113 3116 1747 z M 1159 2969 Q 1341 3281 1617 3432 Q 1894 3584 2278 3584 Q 2916 3584 3314 3078 Q 3713 2572 3713 1747 Q 3713 922 3314 415 Q 2916 -91 2278 -91 Q 1894 -91 1617 61 Q 1341 213 1159 525 L 1159 0 L 581 0 L 581 4863 L 1159 4863 L 1159 2969 z" transform="scale(0.015625)"/><path id="DejaVuSans-74" d="M 1172 4494 L 1172 3500 L 2356 3500 L 2356 3053 L 1172 3053 L 1172 1153 Q 1172 725 1289 603 Q 1406 481 1766 481 L 2356 481 L 2356 0 L 1766 0 Q 1100 0 847 248 Q 594 497 594 1153 L 594 3053 L 172 3053 L 172 3500 L 594 3500 L 594 4494 L 1172 4494 z" transform="scale(0.015625)"/><path id="DejaVuSans-77" d="M 269 3500 L 844 3500 L 1563 769 L 2278 3500 L 2956 3500 L 3675 769 L 4391 3500 L 4966 3500 L 4050 0 L 3372 0 L 2619 2869 L 1863 0 L 1184 0 L 269 3500 z" transform="scale(0.015625)"/><path id="DejaVuSans-61" d="M 2194 1759 Q 1497 1759 1228 1600 Q 959 1441 959 1056 Q 959 750 1161 570 Q 1363 391 1709 391 Q 2188 391 2477 730 Q 2766 1069 2766 1631 L 2766 1759 L 2194 1759 z M 3341 1997 L 3341 0 L 2766 0 L 2766 531 Q 2569 213 2275 61 Q 1981 -91 1556 -91 Q 1019 -91 701 211 Q 384 513 384 1019 Q 384 1609 779 1909 Q 1175 2209 1959 2209 L 2766 2209 L 2766 2266 Q 2766 2663 2505 2880 Q 2244 3097 1772 3097 Q 1472 3097 1187 3025 Q 903 2953 641 2809 L 641 3341 Q 956 3463 1253 3523 Q 1550 3584 1831 3584 Q 2591 3584 2966 3190 Q 3341 2797 3341 1997 z" transform="scale(0.015625)"/><path id="DejaVuSans-70" d="M 1159 525 L 1159 -1331 L 581 -1331 L 581 3500 L 1159 3500 L 1159 2969 Q 1341 3281 1617 3432 Q 1894 3584 2278 3584 Q 2916 3584 3314 3078 Q 3713 2572 3713 1747 Q 3713 922 3314 415 Q 2916 -91 2278 -91 Q 1894 -91 1617 61 Q 1341 213 1159 525 z M 3116 1747 Q 3116 2381 2855 2742 Q 2594 3103 2138 3103 Q 1681 3103 1420 2742 Q 1159 2381 1159 1747 Q 1159 1113 1420 752 Q 1681 391 2138 391 Q 2594 391 2855 752 Q 3116 1113 3116 1747 z" transform="scale(0.015625)"/><path id="DejaVuSans-6c" d="M 603 4863 L 1178 4863 L 1178 0 L 603 0 L 603 4863 z" transform="scale(0.015625)"/></defs><use xlink:href="#DejaVuSans-53"/><use xlink:href="#DejaVuSans-65" x="63.477"/><use xlink:href="#DejaVuSans-63" x="125"/><use xlink:href="#DejaVuSans-6f" x="179.98"/><use xlink:href="#DejaVuSans-6e" x="241.162"/><use xlink:href="#DejaVuSans-64" x="304.541"/><use xlink:href="#DejaVuSans-73" x="368.018"/><use xlink:href="#DejaVuSans-20" x="420.117"/><use xlink:href="#DejaVuSans-62" x="451.904"/><use xlink:href="#DejaVuSans-65" x="515.381"/><use xlink:href="#DejaVuSans-74" x="576.904"/><use xlink:href="#DejaVuSans-77" x="616.113"/><use xlink:href="#DejaVuSans-65" x="697.9"/><use xlink:href="#DejaVuSans-65" x="759.424"/><use xlink:href="#DejaVuSans-6e" x="820.947"/><use xlink:href="#DejaVuSans-20" x="884.326"/><use xlink:href="#DejaVuSans-61" x="916.113"/><use xlink:href="#DejaVuSans-6e" x="977.393"/><use xlink:href="#DejaVuSans-20" x="1040.771"/><use xlink:href="#DejaVuSans-75" x="1072.559"/><use xlink:href="#DejaVuSans-70" x="1135.938"/><use xlink:href="#DejaVuSans-6c" x="1199.414"/><use xlink:href="#DejaVuSans-6f" x="1227.197"/><use xlink:href="#DejaVuSans-61" x="1288.379"/><use xlink:href="#DejaVuSans-64" x="1349.658"/></g></g></g><g id="line2d_63"><path d="M 180 615.6 L 181.005405 490.167621 L 182.010811 564.080838 L 183.016216 569.533371 L 184.021622 565.795967 L 185.027027 554.684775 L 186.032432 582.638276 L 189.048649 541.210783 L 190.054054 579.672972 L 191.059459 585.986343 L 192.064865 597.372727 L 193.07027 595.689222 L 194.075676 587.12602 L 195.081081 593.323278 L 196.086486 597.898806 L 197.091892 595.34283 L 198.097297 602.438375 L 199.102703 599.07398 L 200.108108 596.270047 L 201.113514 588.587735 L 202.118919 591.568463 L 203.124324 602.016999 L 204.12973 571.225177 L 205.135135 588.303476 L 206.140541 562.709551 L 207.145946 576.255515 L 208.151351 545.600567 L 209.156757 542.049741 L 210.162162 524.174086 L 211.167568 533.507766 L 212.172973 504.888347 L 213.178378 494.431201 L 214.183784 572.318501 L 215.189189 603.796816 L 216.194595 499.240488 L 217.2 591.110551 L 218.205405 580.621141 L 219.210811 587.347586 L 220.216216 588.364019 L 221.221622 588.876587 L 222.227027 575.577135 L 223.232432 580.046212 L 224.237838 588.14214 L 225.243243 566.171704 L 226.248649 591.935081 L 227.254054 562.165401 L 229.264865 576.213836 L 230.27027 562.802297 L 231.275676 540.959796 L 232.281081 568.780799 L 233.286486 349.810377 L 234.291892 447.593195 L 235.297297 403.591855 L 236.302703 494.672866 L 237.308108 499.066969 L 238.313514 545.580153 L 239.318919 548.302933 L 240.324324 567.770509 L 241.32973 575.611341 L 242.335135 589.446754 L 243.340541 593.112759 L 244.345946 588.155713 L 245.351351 576.001722 L 246.356757 588.720201 L 247.362162 585.6612 L 248.367568 594.256178 L 249.372973 587.684524 L 250.378378 549.622652 L 251.383784 556.088358 L 252.389189 546.970509 L 253.394595 552.875454 L 254.4 564.536894 L 255.405405 585.557471 L 256.410811 587.944646 L 257.416216 563.967289 L 258.421622 534.505585 L 259.427027 534.696116 L 260.432432 475.896536 L 261.437838 567.75625 L 262.443243 506.543114 L 263.448649 516.058798 L 264.454054 578.168083 L 265.459459 581.052984 L 266.464865 571.30173 L 267.47027 588.685076 L 268.475676 577.147542 L 269.481081 572.125207 L 270.486486 571.89303 L 271.491892 594.026088 L 272.497297 593.898197 L 273.502703 577.190845 L 274.508108 578.706426 L 275.513514 592.262216 L 276.518919 579.484853 L 277.524324 593.84228 L 278.52973 554.8685 L 279.535135 533.222153 L 280.540541 547.210079 L 281.545946 537.997359 L 282.551351 505.670882 L 283.556757 514.857159 L 284.562162 534.74759 L 285.567568 506.562883 L 287.578378 557.148058 L 288.583784 572.549056 L 289.589189 584.546555 L 290.594595 591.176869 L 291.6 602.326148 L 292.605405 593.506781 L 293.610811 583.680238 L 294.616216 598.992849 L 295.621622 598.437897 L 296.627027 594.950119 L 297.632432 594.563592 L 298.637838 596.729105 L 299.643243 590.445811 L 300.648649 589.936749 L 301.654054 583.002634 L 302.659459 577.515612 L 303.664865 573.314205 L 304.67027 560.444615 L 305.675676 553.108419 L 306.681081 549.773071 L 307.686486 538.964521 L 308.691892 563.674983 L 309.697297 500.680208 L 310.702703 542.554085 L 311.708108 550.186722 L 312.713514 585.152471 L 313.718919 590.556827 L 314.724324 594.457102 L 315.72973 597.66232 L 316.735135 596.37477 L 317.740541 599.920953 L 318.745946 602.312763 L 319.751351 597.850071 L 320.756757 597.75778 L 321.762162 595.039887 L 322.767568 604.56271 L 323.772973 601.0626 L 324.778378 598.169464 L 325.783784 589.357443 L 326.789189 548.239637 L 327.794595 574.79218 L 329.805405 559.978644 L 330.810811 578.352047 L 331.816216 548.806176 L 332.821622 576.920205 L 333.827027 594.803707 L 334.832432 590.014176 L 335.837838 593.780629 L 336.843243 594.567628 L 338.854054 603.962651 L 339.859459 603.511265 L 340.864865 596.057929 L 341.87027 601.132622 L 342.875676 602.913391 L 343.881081 596.861633 L 345.891892 602.957131 L 346.897297 600.090377 L 347.902703 596.522098 L 348.908108 600.291983 L 349.913514 603.009367 L 350.918919 584.287553 L 351.924324 555.326505 L 352.92973 575.679388 L 353.935135 585.922598 L 354.940541 589.762951 L 355.945946 579.795083 L 356.951351 592.109514 L 357.956757 597.747787 L 358.962162 596.48744 L 359.967568 600.892406 L 360.972973 600.658422 L 361.978378 599.968926 L 362.983784 604.12974 L 363.989189 604.489863 L 364.994595 601.25404 L 366 602.216507 L 367.005405 598.452282 L 368.010811 602.00944 L 370.021622 597.126855 L 371.027027 594.723735 L 372.032432 597.840598 L 373.037838 595.509271 L 374.043243 574.724359 L 375.048649 567.02854 L 376.054054 586.877573 L 377.059459 580.004593 L 378.064865 555.174709 L 379.07027 496.816331 L 380.075676 547.678962 L 381.081081 558.125237 L 382.086486 563.620981 L 383.091892 558.05122 L 384.097297 571.418042 L 385.102703 588.973405 L 386.108108 588.8751 L 387.113514 587.584122 L 388.118919 581.216477 L 389.124324 594.446263 L 390.12973 603.013744 L 391.135135 593.431896 L 392.140541 601.634293 L 393.145946 600.287704 L 394.151351 600.617268 L 395.156757 594.827562 L 396.162162 586.655107 L 397.167568 591.657904 L 399.178378 565.957358 L 400.183784 542.640544 L 401.189189 549.697862 L 402.194595 518.841805 L 403.2 574.253386 L 404.205405 543.273377 L 405.210811 573.46901 L 406.216216 551.935338 L 407.221622 585.033845 L 408.227027 543.100459 L 409.232432 578.915828 L 410.237838 589.010282 L 411.243243 585.479586 L 412.248649 599.065359 L 413.254054 583.680238 L 414.259459 592.015211 L 415.264865 589.24496 L 416.27027 597.167232 L 417.275676 600.633573 L 418.281081 597.334619 L 419.286486 597.930351 L 420.291892 599.045354 L 421.297297 599.631188 L 422.302703 576.797793 L 423.308108 593.678762 L 424.313514 569.38744 L 425.318919 537.917883 L 426.324324 545.702637 L 427.32973 559.294842 L 428.335135 570.00266 L 429.340541 578.746904 L 430.345946 514.399887 L 431.351351 571.99158 L 432.356757 575.173795 L 433.362162 573.742898 L 434.367568 598.023589 L 435.372973 595.719081 L 436.378378 591.479152 L 437.383784 577.849428 L 438.389189 593.986731 L 439.394595 588.347377 L 440.4 596.647538 L 441.405405 599.356698 L 442.410811 599.007459 L 443.416216 601.237984 L 444.421622 599.244632 L 445.427027 591.202328 L 446.432432 592.672008 L 447.437838 572.632156 L 448.443243 561.607423 L 449.448649 576.703694 L 450.454054 543.436688 L 451.459459 549.093054 L 452.464865 535.66951 L 453.47027 541.784434 L 454.475676 319.980493 L 455.481081 580.499508 L 456.486486 586.571839 L 457.491892 577.433532 L 458.497297 580.956976 L 459.502703 586.667333 L 460.508108 588.227162 L 461.513514 583.619868 L 462.518919 600.191157 L 463.524324 596.575418 L 464.52973 598.462137 L 465.535135 593.139088 L 466.540541 599.770313 L 467.545946 599.41108 L 468.551351 599.590003 L 469.556757 587.905815 L 470.562162 569.651911 L 471.567568 568.875166 L 472.572973 554.171874 L 473.578378 552.49331 L 474.583784 522.802268 L 475.589189 546.651885 L 476.594595 538.695085 L 477.6 550.938815 L 478.605405 546.989819 L 480.616216 592.486306 L 481.621622 587.843685 L 482.627027 589.863382 L 483.632432 589.863989 L 484.637838 600.458839 L 485.643243 591.729288 L 486.648649 581.030515 L 487.654054 585.673935 L 488.659459 587.742898 L 489.664865 599.620628 L 490.67027 591.431061 L 491.675676 597.331718 L 492.681081 596.797402 L 493.686486 593.533796 L 494.691892 577.158368 L 495.697297 542.655217 L 496.702703 574.908194 L 497.708108 570.689311 L 498.713514 568.387738 L 499.718919 546.294641 L 500.724324 557.277821 L 501.72973 587.28245 L 502.735135 589.856326 L 503.740541 587.656444 L 504.745946 592.320674 L 505.751351 589.342557 L 506.756757 594.231958 L 507.762162 593.618614 L 508.767568 600.582756 L 509.772973 601.827757 L 510.778378 601.290278 L 511.783784 601.758239 L 512.789189 600.536907 L 513.794595 596.235101 L 514.8 573.493634 L 515.805405 594.756856 L 516.810811 600.07851 L 517.816216 590.12135 L 518.821622 592.836538 L 519.827027 588.127535 L 520.832432 566.314321 L 521.837838 522.848842 L 522.843243 506.127977 L 523.848649 551.382664 L 524.854054 562.146311 L 525.859459 567.481965 L 526.864865 565.964082 L 527.87027 587.15543 L 528.875676 595.269034 L 529.881081 595.087273 L 530.886486 595.403049 L 531.891892 601.262068 L 532.897297 595.344826 L 533.902703 598.077792 L 534.908108 598.095038 L 535.913514 597.620414 L 536.918919 601.399546 L 537.924324 602.24135 L 538.92973 600.17751 L 539.935135 600.78377 L 540.940541 597.627099 L 541.945946 587.538671 L 542.951351 589.021038 L 543.956757 587.192933 L 545.967568 568.057953 L 546.972973 500.021021 L 547.978378 459.906519 L 548.983784 535.148625 L 549.989189 538.781689 L 550.994595 403.072227 L 552 192.480068 L 553.005405 549.719982 L 554.010811 545.784293 L 555.016216 569.690883 L 556.021622 587.012443 L 557.027027 591.421988 L 558.032432 592.857584 L 559.037838 597.586846 L 560.043243 596.872064 L 561.048649 600.321635 L 562.054054 596.421336 L 563.059459 566.449164 L 564.064865 589.223476 L 565.07027 588.076671 L 566.075676 582.188274 L 567.081081 580.818316 L 568.086486 539.888064 L 569.091892 545.413439 L 570.097297 408.54131 L 571.102703 555.582988 M 574.118919 528.432435 L 575.124324 559.79053 L 576.12973 556.81886 L 577.135135 457.269407 L 578.140541 578.954002 L 579.145946 586.305982 L 580.151351 585.662061 L 581.156757 579.42378 L 582.162162 581.838049 L 583.167568 590.669216 L 584.172973 591.848274 L 585.178378 579.627071 L 586.183784 600.225272 L 587.189189 601.862878 L 588.194595 596.595696 L 589.2 587.528551 L 590.205405 600.047523 L 591.210811 601.745141 L 592.216216 595.713411 L 593.221622 590.424797 L 594.227027 571.535562 L 595.232432 566.712517 L 596.237838 570.906209 L 597.243243 540.717024 L 598.248649 540.914965 L 600.259459 576.819777 L 601.264865 572.213318 L 602.27027 568.443777 L 603.275676 586.357017 L 604.281081 587.304642 L 605.286486 599.027585 L 606.291892 595.617377 L 607.297297 598.524211 L 608.302703 596.763973 L 610.313514 597.984343 L 611.318919 602.72126 L 612.324324 598.790473 L 613.32973 592.339439 L 614.335135 597.777766 L 615.340541 599.489443 L 616.345946 595.391797 L 617.351351 582.44589 L 618.356757 590.828693 L 619.362162 586.574966 L 620.367568 578.814363 L 621.372973 562.415282 L 622.378378 534.291239 L 623.383784 451.267706 L 624.389189 566.017494 L 625.394595 560.503214 L 626.4 574.94562 L 628.410811 588.727721 L 629.416216 592.762839 L 630.421622 598.981189 L 631.427027 597.375447 L 632.432432 596.980966 L 633.437838 593.971593 L 634.443243 597.732798 L 635.448649 594.745143 L 636.454054 598.112774 L 637.459459 592.911751 L 638.464865 597.351866 L 640.475676 589.346358 L 641.481081 584.250726 L 642.486486 571.212418 L 643.491892 582.115605 L 644.497297 556.463637 L 645.502703 551.521687 L 646.508108 550.50829 L 647.513514 541.318741 L 648.518919 533.719648 L 649.524324 539.214712 L 650.52973 490.743181 L 651.535135 560.064778 L 652.540541 597.886646 L 653.545946 596.209122 L 654.551351 600.10619 L 655.556757 600.670519 L 656.562162 602.081429 L 657.567568 603.906545 L 658.572973 602.893895 L 659.578378 593.720365 L 660.583784 603.697427 L 661.589189 600.087277 L 662.594595 597.687121 L 663.6 592.366142 L 664.605405 600.612759 L 665.610811 598.910907 L 666.616216 592.848842 L 667.621622 576.424061 L 668.627027 566.726257 L 669.632432 571.365523 L 670.637838 545.6 L 671.643243 574.551499 L 672.648649 571.028925 L 673.654054 584.842573 L 674.659459 594.897268 L 675.664865 583.510547 L 676.67027 599.403387 L 677.675676 603.487886 L 678.681081 603.345655 L 679.686486 602.746502 L 680.691892 603.591231 L 681.697297 598.622624 L 682.702703 603.186634 L 683.708108 600.562124 L 684.713514 590.264247 L 685.718919 593.103105 L 686.724324 597.896569 L 687.72973 597.671449 L 688.735135 590.690979 L 689.740541 596.97077 L 690.745946 599.257788 L 691.751351 596.666062 L 692.756757 594.933878 L 693.762162 570.982762 L 694.767568 556.319804 L 695.772973 574.007414 L 696.778378 586.667333 L 697.783784 575.566331 L 698.789189 589.806253 L 699.794595 595.193519 L 700.8 597.442679 L 701.805405 605.087677 L 702.810811 599.194251 L 703.816216 599.010044 L 704.821622 593.216917 L 705.827027 596.149432 L 706.832432 597.383236 L 707.837838 602.953558 L 708.843243 602.281493 L 709.848649 599.032224 L 710.854054 588.938307 L 711.859459 596.948097 L 712.864865 601.021136 L 713.87027 576.88573 L 714.875676 568.214601 L 715.881081 551.333664 L 716.886486 545.273944 L 717.891892 538.50672 L 718.897297 520.765427 L 719.902703 547.261302 L 720.908108 550.017501 L 721.913514 556.036078 L 722.918919 581.896569 L 723.924324 575.361837 L 724.92973 587.131613 L 725.935135 589.37977 L 726.940541 590.669216 L 727.945946 596.216098 L 728.951351 598.576958 L 729.956757 594.837813 L 730.962162 594.827133 L 731.967568 590.214233 L 732.972973 579.375447 L 733.978378 551.822524 L 734.983784 548.457953 L 735.989189 564.052651 L 736.994595 563.844259 L 738 540.452649 L 739.005405 539.730281 L 740.010811 516.60051 L 741.016216 549.765013 L 742.021622 519.801418 L 743.027027 426.845199 L 744.032432 556.059314 L 745.037838 513.005985 L 746.043243 501.192572 L 747.048649 509.991834 L 748.054054 542.122952 L 749.059459 579.6943 L 750.064865 576.046378 L 751.07027 588.943508 L 752.075676 557.494244 L 753.081081 579.674324 L 754.086486 576.671555 L 755.091892 593.980572 L 756.097297 590.331169 L 757.102703 591.005117 L 758.108108 592.515535 L 759.113514 553.95249 L 760.118919 570.133816 L 761.124324 567.248383 L 762.12973 565.162963 L 763.135135 538.066503 L 764.140541 519.171569 L 765.145946 545.580153 L 766.151351 545.322143 L 767.156757 559.978644 L 768.162162 538.642703 L 769.167568 529.490937 L 770.172973 555.217031 L 772.183784 578.870461 L 773.189189 538.846643 L 774.194595 576.515261 L 775.2 582.10595 L 776.205405 569.26219 L 777.210811 584.532993 L 778.216216 595.862263 L 779.221622 597.347139 L 780.227027 593.020907 L 781.232432 598.058082 L 782.237838 594.373745 L 783.243243 586.214594 L 784.248649 591.27305 L 785.254054 583.133655 L 786.259459 568.364389 L 787.264865 567.891059 L 788.27027 528.102672 L 789.275676 512.216659 L 790.281081 577.364054 L 791.286486 578.134023 L 792.291892 576.42595 L 793.297297 543.824553 L 794.302703 571.69725 L 795.308108 565.342898 L 796.313514 569.171746 L 797.318919 587.975798 L 798.324324 566.40034 L 799.32973 587.512674 L 800.335135 580.659541 L 801.340541 584.269691 L 802.345946 593.617168 L 803.351351 598.814227 L 804.356757 598.389523 L 805.362162 595.137057 L 806.367568 582.554919 L 808.378378 590.974915 L 809.383784 582.514432 L 810.389189 581.187115 L 812.4 543.967451 L 813.405405 536.199614 L 814.410811 561.132734 L 815.416216 533.729503 L 816.421622 560.786327 L 817.427027 573.68761 L 818.432432 534.624667 L 819.437838 562.195805 L 820.443243 567.168905 L 821.448649 587.166616 L 822.454054 596.969986 L 823.459459 591.6 L 824.464865 599.139113 L 825.47027 601.509813 L 826.475676 600.570381 L 827.481081 599.26884 L 828.486486 603.26386 L 829.491892 603.275078 L 830.497297 599.240524 L 831.502703 593.618614 L 832.508108 600.587034 L 834.518919 583.592736 L 835.524324 564.26799 L 836.52973 558.101559 L 837.535135 592.310306 L 838.540541 594.044253 L 839.545946 562.52595 L 840.551351 572.311868 L 841.556757 563.579176 L 842.562162 571.032111 L 843.567568 584.773706 L 844.572973 600.182549 L 845.578378 598.173338 L 846.583784 602.617045 L 847.589189 591.961791 L 848.594595 599.981461 L 849.6 603.983071 L 850.605405 605.847236 L 851.610811 602.205226 L 852.616216 602.989107 L 853.621622 600.303065 L 854.627027 594.007923 L 855.632432 603.112294 L 856.637838 600.732829 L 857.643243 601.941113 L 858.648649 588.510255 L 859.654054 577.259462 L 860.659459 584.371636 L 861.664865 585.873761 L 862.67027 584.406489 L 863.675676 581.125943 L 864.681081 586.154679 L 865.686486 590.416058 L 866.691892 603.151553 L 867.697297 599.779819 L 868.702703 595.112195 L 869.708108 599.566704 L 870.713514 599.051531 L 871.718919 597.403353 L 872.724324 602.619526 L 873.72973 601.927646 L 874.735135 606.747737 L 875.740541 604.177757 L 876.745946 598.605035 L 877.751351 598.790724 L 878.756757 600.616639 L 879.762162 597.459093 L 880.767568 598.243282 L 881.772973 600.216982 L 882.778378 591.854952 L 883.783784 592.547247 L 884.789189 568.66793 L 885.794595 552.468552 L 886.8 562.463821 L 887.805405 504.854324 L 889.816216 567.321009 L 890.821622 561.904656 L 891.827027 583.772797 L 892.832432 581.657046 L 893.837838 586.330906 L 894.843243 578.809033 L 895.848649 598.000766 L 896.854054 598.859209 L 897.859459 597.939058 L 898.864865 599.394315 L 899.87027 601.732433 L 900.875676 601.889011 L 901.881081 601.579633 L 902.886486 589.782667 L 903.891892 594.189369 L 904.897297 595.898128 L 905.902703 597.13639 L 906.908108 589.657448 L 907.913514 573.433084 L 908.918919 559.823321 L 909.924324 570.574251 L 910.92973 566.957641 L 911.935135 574.42908 L 912.940541 572.241846 L 913.945946 576.783377 L 914.951351 588.025465 L 915.956757 590.442869 L 916.962162 589.957017 L 917.967568 595.903753 L 918.972973 599.203647 L 919.978378 595.11205 L 920.983784 592.632451 L 921.989189 597.676987 L 922.994595 600.815909 L 924 599.537581 L 925.005405 596.276093 L 927.016216 598.682453 L 928.021622 592.556145 L 929.027027 596.275841 L 930.032432 596.1934 L 931.037838 564.91508 L 932.043243 581.725428 L 933.048649 586.404533 L 934.054054 550.031964 L 935.059459 572.816937 L 936.064865 518.017395 L 937.07027 547.0389 L 938.075676 512.129113 L 939.081081 524.031188 L 940.086486 579.772039 L 941.091892 595.68997 L 942.097297 596.555934 L 943.102703 589.455563 L 944.108108 593.312981 L 945.113514 601.109029 L 946.118919 591.884487 L 947.124324 597.606045 L 948.12973 600.262034 L 949.135135 599.797461 L 950.140541 597.15792 L 951.145946 596.913786 L 952.151351 590.18154 L 953.156757 594.201378 L 954.162162 589.795693 L 955.167568 581.304565 L 957.178378 591.231095 L 959.189189 550.398369 L 960.194595 562.220815 L 961.2 568.842241 L 962.205405 566.300312 L 963.210811 541.270176 L 964.216216 538.804039 L 965.221622 573.038675 L 966.227027 584.012563 L 967.232432 587.623816 L 968.237838 587.044828 L 969.243243 591.1603 L 970.248649 601.44994 L 971.254054 597.416274 L 972.259459 599.968926 L 973.264865 597.929967 L 974.27027 598.346075 L 975.275676 598.370213 L 976.281081 599.599929 L 977.286486 599.602653 L 978.291892 602.640283 L 979.297297 600.55347 L 980.302703 594.141337 L 981.308108 545.699234 L 982.313514 523.404555 L 983.318919 546.126526 L 984.324324 545.85334 L 985.32973 585.557471 L 986.335135 582.782479 L 987.340541 577.634693 L 988.345946 586.883995 L 989.351351 581.823303 L 990.356757 594.827562 L 991.362162 597.586846 L 992.367568 604.139352 L 993.372973 596.395422 L 994.378378 603.850274 L 995.383784 601.020357 L 996.389189 599.71706 L 997.394595 600.582988 L 998.4 603.036915 L 999.405405 602.267874 L 1000.410811 597.147565 L 1001.416216 597.900402 L 1002.421622 589.494856 L 1003.427027 587.171307 L 1004.432432 599.603655 L 1005.437838 588.677141 L 1006.443243 592.339439 L 1007.448649 589.148893 L 1008.454054 576.54131 L 1009.459459 588.088362 L 1010.464865 593.606188 L 1011.47027 584.345496 L 1012.475676 595.732796 L 1013.481081 598.060306 L 1014.486486 595.772952 L 1015.491892 602.189318 L 1016.497297 603.265493 L 1017.502703 601.483923 L 1018.508108 597.712636 L 1019.513514 600.43839 L 1021.524324 606.749246 L 1022.52973 604.87367 L 1023.535135 602.226148 L 1024.540541 598.687311 L 1025.545946 599.365742 L 1026.551351 596.698054 L 1027.556757 593.122074 L 1028.562162 597.038952 L 1029.567568 587.855378 L 1030.572973 583.933176 L 1031.578378 574.838446 L 1032.583784 560.266856 L 1033.589189 584.197801 L 1034.594595 585.256302 L 1035.6 590.794078 L 1036.605405 601.730292 L 1037.610811 603.916976 L 1038.616216 604.861662 L 1039.621622 604.652691 L 1040.627027 603.739495 L 1041.632432 603.179991 L 1042.637838 600.310802 L 1043.643243 600.80884 L 1044.648649 603.474017 L 1045.654054 603.167905 L 1046.659459 595.940581 L 1047.664865 596.763973 L 1048.67027 600.155727 L 1049.675676 597.07508 L 1050.681081 598.210835 L 1052.691892 580.864127 L 1053.697297 582.028454 L 1054.702703 571.847339 L 1055.708108 488.698951 L 1056.713514 512.291497 L 1057.718919 566.510455 L 1058.724324 585.370343 L 1059.72973 567.958464 L 1060.735135 573.675284 L 1061.740541 565.291623 L 1062.745946 589.117839 L 1063.751351 593.914977 L 1064.756757 582.133371 L 1065.762162 584.850866 L 1066.767568 586.96163 L 1067.772973 594.808983 L 1068.778378 601.644181 L 1069.783784 598.797538 L 1070.789189 599.841565 L 1071.794595 602.406031 L 1072.8 598.740917 L 1073.805405 599.544236 L 1074.810811 600.544712 L 1075.816216 599.322492 L 1076.821622 574.597595 L 1077.827027 572.402041 L 1078.832432 559.34596 L 1079.837838 525.242756 L 1080.843243 549.227804 L 1081.848649 559.123675 L 1082.854054 583.944202 L 1083.859459 536.744315 L 1084.864865 582.477605 L 1085.87027 592.908619 L 1086.875676 591.396711 L 1087.881081 592.398618 L 1088.886486 597.09579 L 1089.891892 586.447218 L 1091.902703 604.369138 L 1092.908108 604.378148 L 1094.918919 600.301291 L 1095.924324 595.399989 L 1096.92973 597.787411 L 1097.935135 599.106846 L 1098.940541 599.079188 L 1099.945946 597.616179 L 1100.951351 588.503226 L 1101.956757 573.159399 L 1102.962162 585.651035 L 1103.967568 577.688821 L 1104.972973 580.879734 L 1105.978378 570.366399 L 1106.983784 580.279429 L 1107.989189 584.144876 L 1108.994595 594.897411 L 1110 585.313122 L 1111.005405 585.037766 L 1112.010811 594.564982 L 1113.016216 597.406067 L 1114.021622 596.755373 L 1115.027027 599.521768 L 1116.032432 603.606805 L 1117.037838 599.757767 L 1118.043243 603.464105 L 1119.048649 603.347723 L 1120.054054 595.428568 L 1121.059459 595.858746 L 1122.064865 599.171471 L 1123.07027 599.268182 L 1124.075676 581.731273 L 1125.081081 582.019053 L 1126.086486 586.10659 L 1127.091892 593.187632 L 1128.097297 593.356021 L 1129.102703 591.590499 L 1130.108108 589.044854 L 1131.113514 598.604707 L 1132.118919 593.989758 L 1133.124324 588.249698 L 1135.135135 598.313354 L 1136.140541 595.668636 L 1137.145946 594.903461 L 1138.151351 602.122496 L 1139.156757 597.541561 L 1140.162162 603.56775 L 1141.167568 596.31981 L 1142.172973 594.232527 L 1143.178378 596.832776 L 1144.183784 602.728386 L 1145.189189 597.752996 L 1146.194595 602.443051 L 1147.2 601.763135 L 1148.205405 593.242209 L 1149.210811 581.470952 L 1150.216216 593.212702 L 1151.221622 586.655107 L 1152.227027 574.686764 L 1153.232432 585.635061 L 1154.237838 586.625401 L 1155.243243 588.314488 L 1156.248649 585.152471 L 1157.254054 593.750095 L 1158.259459 593.506781 L 1159.264865 588.395668 L 1160.27027 597.581337 L 1161.275676 594.897556 L 1163.286486 598.457176 L 1164.291892 597.427147 L 1165.297297 603.273344 L 1166.302703 602.482729 L 1167.308108 597.018091 L 1168.313514 601.839343 L 1169.318919 596.516766 L 1170.324324 602.964276 L 1171.32973 600.557697 L 1172.335135 593.621583 L 1173.340541 578.0947 L 1174.345946 580.937114 L 1175.351351 568.214601 L 1176.356757 557.386221 L 1177.362162 536.815764 L 1178.367568 584.78116 L 1179.372973 594.540459 L 1180.378378 580.927474 L 1181.383784 574.03084 L 1182.389189 591.71667 L 1183.394595 593.432062 L 1184.4 599.348806 L 1185.405405 601.266082 L 1186.410811 598.32591 L 1187.416216 598.377336 L 1188.421622 603.634838 L 1189.427027 603.806005 L 1191.437838 603.63733 L 1192.443243 594.669009 L 1193.448649 592.903734 L 1194.454054 600.411777 L 1195.459459 591.513502 L 1196.464865 593.154771 L 1197.47027 593.253105 L 1198.475676 581.443493 L 1199.481081 579.182114 L 1200.486486 558.389906 L 1201.491892 585.787128 L 1202.497297 591.424191 L 1203.502703 584.32807 L 1204.508108 596.036112 L 1205.513514 601.354389 L 1206.518919 601.960116 L 1207.524324 597.300877 L 1208.52973 595.257091 L 1209.535135 599.78864 L 1210.540541 600.971364 L 1211.545946 598.966714 L 1212.551351 601.511555 L 1213.556757 606.049133 L 1214.562162 603.518654 L 1215.567568 600.416055 L 1216.572973 598.264005 L 1217.578378 600.167054 L 1218.583784 599.63096 L 1219.589189 597.049193 L 1220.594595 592.450581 L 1221.6 597.321438 L 1222.605405 583.457074 L 1223.610811 583.200707 L 1225.621622 546.988115 L 1226.627027 536.85 L 1227.632432 568.836045 L 1228.637838 578.352047 L 1229.643243 577.158368 L 1230.648649 593.229563 L 1231.654054 588.195919 L 1232.659459 596.237914 L 1233.664865 594.068473 L 1234.67027 592.980976 L 1235.675676 591.334619 L 1236.681081 593.965538 L 1237.686486 582.545518 L 1238.691892 598.931742 L 1239.697297 602.032284 L 1240.702703 594.45355 L 1241.708108 600.412659 L 1242.713514 599.721498 L 1243.718919 594.327464 L 1244.724324 582.291687 L 1245.72973 592.035628 L 1246.735135 583.420549 L 1247.740541 588.265063 L 1248.745946 571.560424 L 1249.751351 530.38537 L 1250.756757 557.569614 L 1251.762162 574.370515 L 1252.767568 585.557471 L 1253.772973 575.993536 L 1254.778378 577.521291 L 1255.783784 560.351421 L 1257.794595 593.49398 L 1258.8 595.951574 L 1259.805405 597.002445 L 1260.810811 596.11345 L 1261.816216 589.488033 L 1262.821622 600.692413 L 1263.827027 599.120375 L 1264.832432 593.147365 L 1265.837838 601.571144 L 1266.843243 600.304818 L 1267.848649 593.958527 L 1268.854054 595.194216 L 1269.859459 589.433691 L 1271.87027 558.168755 L 1272.875676 556.416558 L 1273.881081 564.43643 L 1274.886486 579.792749 L 1275.891892 575.680851 L 1276.897297 577.47231 L 1277.902703 588.893182 L 1278.908108 584.268368 L 1279.913514 587.6 L 1280.918919 587.222209 L 1282.92973 585.768015 L 1283.935135 593.92719 L 1284.940541 590.957026 L 1285.945946 597.930351 L 1286.951351 598.622399 L 1287.956757 605.023183 L 1288.962162 602.430344 L 1289.967568 604.004315 L 1291.978378 586.601633 L 1292.983784 592.205614 L 1293.989189 550.543966 L 1294.994595 570.284958 L 1296 527.847854 L 1297.005405 510.04213 L 1298.010811 465.512815 L 1299.016216 561.187752 L 1300.021622 546.609857 L 1301.027027 573.40947 L 1302.032432 554.572249 L 1303.037838 550.967781 L 1304.043243 573.881153 L 1305.048649 580.439128 L 1306.054054 589.679545 L 1307.059459 589.871207 L 1308.064865 583.23097 L 1309.07027 590.782041 L 1310.075676 596.41626 L 1311.081081 593.664601 L 1312.086486 591.3074 L 1313.091892 592.30636 L 1314.097297 586.555223 L 1315.102703 592.205427 L 1316.108108 593.29776 L 1317.113514 594.926312 L 1318.118919 577.149541 L 1319.124324 571.264125 L 1320.12973 528.752723 L 1321.135135 588.309656 L 1322.140541 576.076325 L 1323.145946 574.019127 L 1324.151351 573.106115 L 1325.156757 571.002944 L 1326.162162 576.450581 L 1327.167568 586.271549 L 1328.172973 597.722592 L 1329.178378 599.530841 L 1330.183784 594.692137 L 1331.189189 579.664261 L 1332.194595 582.771146 L 1333.2 583.979316 L 1334.205405 598.14887 L 1335.210811 602.488773 L 1336.216216 598.62376 L 1337.221622 599.258372 L 1338.227027 597.298894 L 1339.232432 590.915132 L 1340.237838 590.72152 L 1341.243243 590.686734 L 1342.248649 587.475859 L 1343.254054 580.076853 L 1344.259459 583.382221 L 1345.264865 575.928891 L 1346.27027 573.235775 L 1348.281081 580.824977 L 1349.286486 576.593408 L 1350.291892 589.929458 L 1351.297297 588.289827 L 1352.302703 598.598096 L 1353.308108 596.695171 L 1354.313514 591.795176 L 1355.318919 587.936879 L 1356.324324 593.200167 L 1357.32973 595.28245 L 1358.335135 601.749024 L 1359.340541 598.144656 L 1360.345946 599.435273 L 1361.351351 597.388151 L 1362.356757 596.31423 L 1363.362162 597.672841 L 1364.367568 597.966033 L 1365.372973 596.666062 L 1366.378378 584.644797 L 1367.383784 585.378849 L 1368.389189 571.847339 L 1369.394595 574.43357 L 1371.405405 592.774653 L 1372.410811 586.56057 L 1373.416216 582.882006 L 1374.421622 583.219027 L 1375.427027 596.844684 L 1376.432432 600.793987 L 1377.437838 599.447139 L 1378.443243 600.660701 L 1379.448649 598.290788 L 1380.454054 597.606045 L 1381.459459 598.845014 L 1382.464865 591.189475 L 1384.475676 599.956702 L 1385.481081 598.369655 L 1386.486486 591.381545 L 1387.491892 578.871163 L 1389.502703 582.839749 L 1390.508108 583.520383 L 1391.513514 589.972245 L 1392.518919 568.875166 L 1393.524324 575.690729 L 1394.52973 570.418362 L 1395.535135 537.098486 L 1396.540541 548.940179 L 1397.545946 559.269098 L 1398.551351 545.803431 L 1399.556757 565.479411 L 1400.562162 589.104395 L 1401.567568 579.855174 L 1402.572973 586.339214 L 1403.578378 586.39632 L 1404.583784 590.908935 L 1405.589189 587.42643 L 1406.594595 577.764116 L 1407.6 594.472406 L 1408.605405 581.80947 L 1409.610811 588.172871 L 1410.616216 599.280543 L 1411.621622 600.102101 L 1412.627027 600.123832 L 1413.632432 594.005209 L 1414.637838 575.749995 L 1415.643243 559.561389 L 1416.648649 559.969614 L 1417.654054 585.706165 L 1418.659459 514.321293 L 1419.664865 111.6 L 1420.67027 536.815764 L 1421.675676 564.379132 L 1422.681081 567.594479 L 1423.686486 585.000498 L 1424.691892 567.971945 L 1425.697297 583.066969 L 1426.702703 589.543052 L 1427.708108 599.248686 L 1428.713514 582.953384 L 1429.718919 560.926118 L 1430.724324 596.876205 L 1431.72973 594.559553 L 1432.735135 595.074702 L 1433.740541 593.575409 L 1434.745946 589.623249 L 1435.751351 565.417709 L 1436.756757 581.748706 L 1437.762162 575.225558 L 1438.767568 573.149544 L 1439.772973 555.118571 L 1440.778378 532.743181 L 1441 533.899455 L 1441 533.899455" clip-path="url(#p0f6b961f77)" fill="none" stroke="#8dd3c7" stroke-width="1.5" stroke-linecap="square"/></g><g id="patch_3"><path d="M 180 640.8 L 180 86.4" fill="none" stroke="#ffffff" stroke-width="0.8" stroke-linejoin="miter" stroke-linecap="square"/></g><g id="patch_4"><path d="M 1296 640.8 L 1296 86.4" fill="none" stroke="#ffffff" stroke-width="0.8" stroke-linejoin="miter" stroke-linecap="square"/></g><g id="patch_5"><path d="M 180 640.8 L 1296 640.8" fill="none" stroke="#ffffff" stroke-width="0.8" stroke-linejoin="miter" stroke-linecap="square"/></g><g id="patch_6"><path d="M 180 86.4 L 1296 86.4" fill="none" stroke="#ffffff" stroke-width="0.8" stroke-linejoin="miter" stroke-linecap="square"/></g><g id="text_17"><g transform="translate(676.92375 80.4) scale(0.12 -0.12)" fill="#ffffff"><defs><path id="DejaVuSans-41" d="M 2188 4044 L 1331 1722 L 3047 1722 L 2188 4044 z M 1831 4666 L 2547 4666 L 4325 0 L 3669 0 L 3244 1197 L 1141 1197 L 716 0 L 50 0 L 1831 4666 z" transform="scale(0.015625)"/><path id="DejaVuSans-76" d="M 191 3500 L 800 3500 L 1894 563 L 2988 3500 L 3597 3500 L 2284 0 L 1503 0 L 191 3500 z" transform="scale(0.015625)"/><path id="DejaVuSans-67" d="M 2906 1791 Q 2906 2416 2648 2759 Q 2391 3103 1925 3103 Q 1463 3103 1205 2759 Q 947 2416 947 1791 Q 947 1169 1205 825 Q 1463 481 1925 481 Q 2391 481 2648 825 Q 2906 1169 2906 1791 z M 3481 434 Q 3481 -459 3084 -895 Q 2688 -1331 1869 -1331 Q 1566 -1331 1297 -1286 Q 1028 -1241 775 -1147 L 775 -588 Q 1028 -725 1275 -790 Q 1522 -856 1778 -856 Q 2344 -856 2625 -561 Q 2906 -266 2906 331 L 2906 616 Q 2728 306 2450 153 Q 2172 0 1784 0 Q 1141 0 747 490 Q 353 981 353 1791 Q 353 2603 747 3093 Q 1141 3584 1784 3584 Q 2172 3584 2450 3431 Q 2728 3278 2906 2969 L 2906 3500 L 3481 3500 L 3481 434 z" transform="scale(0.015625)"/></defs><use xlink:href="#DejaVuSans-41"/><use xlink:href="#DejaVuSans-76" x="62.533"/><use xlink:href="#DejaVuSans-65" x="121.713"/><use xlink:href="#DejaVuSans-72" x="183.236"/><use xlink:href="#DejaVuSans-61" x="224.35"/><use xlink:href="#DejaVuSans-67" x="285.629"/><use xlink:href="#DejaVuSans-65" x="349.105"/><use xlink:href="#DejaVuSans-20" x="410.629"/><use xlink:href="#DejaVuSans-75" x="442.416"/><use xlink:href="#DejaVuSans-70" x="505.795"/><use xlink:href="#DejaVuSans-6c" x="569.271"/><use xlink:href="#DejaVuSans-6f" x="597.055"/><use xlink:href="#DejaVuSans-61" x="658.236"/><use xlink:href="#DejaVuSans-64" x="719.516"/><use xlink:href="#DejaVuSans-20" x="782.992"/><use xlink:href="#DejaVuSans-72" x="814.779"/><use xlink:href="#DejaVuSans-61" x="855.893"/><use xlink:href="#DejaVuSans-74" x="917.172"/><use xlink:href="#DejaVuSans-65" x="956.381"/></g></g></g></g><defs><clipPath id="p0f6b961f77"><rect x="180" y="86.4" width="1116" height="554.4"/></clipPath></defs></svg>