<svg xmlns:xlink="http://www.w3.org/1999/xlink" width="1920" height="960" viewBox="0 0 1440 720" xmlns="http://www.w3.org/2000/svg" version="1.1"><metadata><rdf:RDF xmlns:dc="http://purl.org/dc/elements/1.1/" xmlns:cc="http://creativecommons.org/ns#" xmlns:rdf="http://www.w3.org/1999/02/22-rdf-syntax-ns#"><cc:Work><dc:type rdf:resource="http://purl.org/dc/dcmitype/StillImage"/><dc:format>image/svg+xml</dc:format><dc:creator><cc:Agent><dc:title>Matplotlib v3.7.1, https://matplotlib.org/</dc:title></cc:Agent></dc:creator></cc:Work></rdf:RDF></metadata><defs><style type="text/css">*{stroke-linejoin:round;stroke-linecap:butt}</style></defs><g id="figure_1"><g id="patch_1"><path d="M 0 720 L 1440 720 L 1440 0 L 0 0 z"/></g><g id="axes_1"><g id="patch_2"><path d="M 180 640.8 L 1296 640.8 L 1296 86.4 L 180 86.4 z"/></g><g id="matplotlib.axis_1"><g id="xtick_1"><g id="line2d_1"><defs><path id="ma1ac78f557" d="M 0 0 L 0 3.5" stroke="#ffffff" stroke-width="0.8"/></defs><g><use xlink:href="#ma1ac78f557" x="180" y="640.8" fill="#ffffff" stroke="#ffffff" stroke-width="0.8"/></g></g><g id="text_1"><g transform="translate(176.81875 655.398438) scale(0.1 -0.1)" fill="#ffffff"><defs><path id="DejaVuSans-30" d="M 2034 4250 Q 1547 4250 1301 3770 Q 1056 3291 1056 2328 Q 1056 1369 1301 889 Q 1547 409 2034 409 Q 2525 409 2770 889 Q 3016 1369 3016 2328 Q 3016 3291 2770 3770 Q 2525 4250 2034 4250 z M 2034 4750 Q 2819 4750 3233 4129 Q 3647 3509 3647 2328 Q 3647 1150 3233 529 Q 2819 -91 2034 -91 Q 1250 -91 836 529 Q 422 1150 422 2328 Q 422 3509 836 4129 Q 1250 4750 2034 4750 z" transform="scale(0.015625)"/></defs><use xlink:href="#DejaVuSans-30"/></g></g></g><g id="xtick_2"><g id="line2d_2"><g><use xlink:href="#ma1ac78f557" x="373.414" y="640.8" fill="#ffffff" stroke="#ffffff" stroke-width="0.8"/></g></g><g id="text_2"><g transform="translate(363.870461 655.398438) scale(0.1 -0.1)" fill="#ffffff"><defs><path id="DejaVuSans-35" d="M 691 4666 L 3169 4666 L 3169 4134 L 1269 4134 L 1269 2991 Q 1406 3038 1543 3061 Q 1681 3084 1819 3084 Q 2600 3084 3056 2656 Q 3513 2228 3513 1497 Q 3513 744 3044 326 Q 2575 -91 1722 -91 Q 1428 -91 1123 -41 Q 819 9 494 109 L 494 744 Q 775 591 1075 516 Q 1375 441 1709 441 Q 2250 441 2565 725 Q 2881 1009 2881 1497 Q 2881 1984 2565 2268 Q 2250 2553 1709 2553 Q 1456 2553 1204 2497 Q 953 2441 691 2322 L 691 4666 z" transform="scale(0.015625)"/></defs><use xlink:href="#DejaVuSans-35"/><use xlink:href="#DejaVuSans-30" x="63.623"/><use xlink:href="#DejaVuSans-30" x="127.246"/></g></g></g><g id="xtick_3"><g id="line2d_3"><g><use xlink:href="#ma1ac78f557" x="566.828" y="640.8" fill="#ffffff" stroke="#ffffff" stroke-width="0.8"/></g></g><g id="text_3"><g transform="translate(554.103423 655.398438) scale(0.1 -0.1)" fill="#ffffff"><defs><path id="DejaVuSans-31" d="M 794 531 L 1825 531 L 1825 4091 L 703 3866 L 703 4441 L 1819 4666 L 2450 4666 L 2450 531 L 3481 531 L 3481 0 L 794 0 L 794 531 z" transform="scale(0.015625)"/></defs><use xlink:href="#DejaVuSans-31"/><use xlink:href="#DejaVuSans-30" x="63.623"/><use xlink:href="#DejaVuSans-30" x="127.246"/><use xlink:href="#DejaVuSans-30" x="190.869"/></g></g></g><g id="xtick_4"><g id="line2d_4"><g><use xlink:href="#ma1ac78f557" x="760.243" y="640.8" fill="#ffffff" stroke="#ffffff" stroke-width="0.8"/></g></g><g id="text_4"><g transform="translate(747.517634 655.398438) scale(0.1 -0.1)" fill="#ffffff"><use xlink:href="#DejaVuSans-31"/><use xlink:href="#DejaVuSans-35" x="63.623"/><use xlink:href="#DejaVuSans-30" x="127.246"/><use xlink:href="#DejaVuSans-30" x="190.869"/></g></g></g><g id="xtick_5"><g id="line2d_5"><g><use xlink:href="#ma1ac78f557" x="953.657" y="640.8" fill="#ffffff" stroke="#ffffff" stroke-width="0.8"/></g></g><g id="text_5"><g transform="translate(940.931846 655.398438) scale(0.1 -0.1)" fill="#ffffff"><defs><path id="DejaVuSans-32" d="M 1228 531 L 3431 531 L 3431 0 L 469 0 L 469 531 Q 828 903 1448 1529 Q 2069 2156 2228 2338 Q 2531 2678 2651 2914 Q 2772 3150 2772 3378 Q 2772 3750 2511 3984 Q 2250 4219 1831 4219 Q 1534 4219 1204 4116 Q 875 4013 500 3803 L 500 4441 Q 881 4594 1212 4672 Q 1544 4750 1819 4750 Q 2544 4750 2975 4387 Q 3406 4025 3406 3419 Q 3406 3131 3298 2873 Q 3191 2616 2906 2266 Q 2828 2175 2409 1742 Q 1991 1309 1228 531 z" transform="scale(0.015625)"/></defs><use xlink:href="#DejaVuSans-32"/><use xlink:href="#DejaVuSans-30" x="63.623"/><use xlink:href="#DejaVuSans-30" x="127.246"/><use xlink:href="#DejaVuSans-30" x="190.869"/></g></g></g><g id="xtick_6"><g id="line2d_6"><g><use xlink:href="#ma1ac78f557" x="1147.071" y="640.8" fill="#ffffff" stroke="#ffffff" stroke-width="0.8"/></g></g><g id="text_6"><g transform="translate(1134.346057 655.398438) scale(0.1 -0.1)" fill="#ffffff"><use xlink:href="#DejaVuSans-32"/><use xlink:href="#DejaVuSans-35" x="63.623"/><use xlink:href="#DejaVuSans-30" x="127.246"/><use xlink:href="#DejaVuSans-30" x="190.869"/></g></g></g><g id="xtick_7"><g id="line2d_7"><defs><path id="mec32818e30" d="M 0 0 L 0 2" stroke="#ffffff" stroke-width="0.6"/></defs><g><use xlink:href="#mec32818e30" x="218.683" y="640.8" fill="#ffffff" stroke="#ffffff" stroke-width="0.6"/></g></g></g><g id="xtick_8"><g id="line2d_8"><g><use xlink:href="#mec32818e30" x="257.366" y="640.8" fill="#ffffff" stroke="#ffffff" stroke-width="0.6"/></g></g></g><g id="xtick_9"><g id="line2d_9"><g><use xlink:href="#mec32818e30" x="296.049" y="640.8" fill="#ffffff" stroke="#ffffff" stroke-width="0.6"/></g></g></g><g id="xtick_10"><g id="line2d_10"><g><use xlink:href="#mec32818e30" x="334.731" y="640.8" fill="#ffffff" stroke="#ffffff" stroke-width="0.6"/></g></g></g><g id="xtick_11"><g id="line2d_11"><g><use xlink:href="#mec32818e30" x="412.097" y="640.8" fill="#ffffff" stroke="#ffffff" stroke-width="0.6"/></g></g></g><g id="xtick_12"><g id="line2d_12"><g><use xlink:href="#mec32818e30" x="450.78" y="640.8" fill="#ffffff" stroke="#ffffff" stroke-width="0.6"/></g></g></g><g id="xtick_13"><g id="line2d_13"><g><use xlink:href="#mec32818e30" x="489.463" y="640.8" fill="#ffffff" stroke="#ffffff" stroke-width="0.6"/></g></g></g><g id="xtick_14"><g id="line2d_14"><g><use xlink:href="#mec32818e30" x="528.146" y="640.8" fill="#ffffff" stroke="#ffffff" stroke-width="0.6"/></g></g></g><g id="xtick_15"><g id="line2d_15"><g><use xlink:href="#mec32818e30" x="605.511" y="640.8" fill="#ffffff" stroke="#ffffff" stroke-width="0.6"/></g></g></g><g id="xtick_16"><g id="line2d_16"><g><use xlink:href="#mec32818e30" x="644.194" y="640.8" fill="#ffffff" stroke="#ffffff" stroke-width="0.6"/></g></g></g><g id="xtick_17"><g id="line2d_17"><g><use xlink:href="#mec32818e30" x="682.877" y="640.8" fill="#ffffff" stroke="#ffffff" stroke-width="0.6"/></g></g></g><g id="xtick_18"><g id="line2d_18"><g><use xlink:href="#mec32818e30" x="721.56" y="640.8" fill="#ffffff" stroke="#ffffff" stroke-width="0.6"/></g></g></g><g id="xtick_19"><g id="line2d_19"><g><use xlink:href="#mec32818e30" x="798.925" y="640.8" fill="#ffffff" stroke="#ffffff" stroke-width="0.6"/></g></g></g><g id="xtick_20"><g id="line2d_20"><g><use xlink:href="#mec32818e30" x="837.608" y="640.8" fill="#ffffff" stroke="#ffffff" stroke-width="0.6"/></g></g></g><g id="xtick_21"><g id="line2d_21"><g><use xlink:href="#mec32818e30" x="876.291" y="640.8" fill="#ffffff" stroke="#ffffff" stroke-width="0.6"/></g></g></g><g id="xtick_22"><g id="line2d_22"><g><use xlink:href="#mec32818e30" x="914.974" y="640.8" fill="#ffffff" stroke="#ffffff" stroke-width="0.6"/></g></g></g><g id="xtick_23"><g id="line2d_23"><g><use xlink:href="#mec32818e30" x="992.34" y="640.8" fill="#ffffff" stroke="#ffffff" stroke-width="0.6"/></g></g></g><g id="xtick_24"><g id="line2d_24"><g><use xlink:href="#mec32818e30" x="1031.023" y="640.8" fill="#ffffff" stroke="#ffffff" stroke-width="0.6"/></g></g></g><g id="xtick_25"><g id="line2d_25"><g><use xlink:href="#mec32818e30" x="1069.705" y="640.8" fill="#ffffff" stroke="#ffffff" stroke-width="0.6"/></g></g></g><g id="xtick_26"><g id="line2d_26"><g><use xlink:href="#mec32818e30" x="1108.388" y="640.8" fill="#ffffff" stroke="#ffffff" stroke-width="0.6"/></g></g></g><g id="xtick_27"><g id="line2d_27"><g><use xlink:href="#mec32818e30" x="1185.754" y="640.8" fill="#ffffff" stroke="#ffffff" stroke-width="0.6"/></g></g></g><g id="xtick_28"><g id="line2d_28"><g><use xlink:href="#mec32818e30" x="1224.437" y="640.8" fill="#ffffff" stroke="#ffffff" stroke-width="0.6"/></g></g></g><g id="xtick_29"><g id="line2d_29"><g><use xlink:href="#mec32818e30" x="1263.12" y="640.8" fill="#ffffff" stroke="#ffffff" stroke-width="0.6"/></g></g></g><g id="text_7"><g transform="translate(638.625781 669.076563) scale(0.1 -0.1)" fill="#ffffff"><defs><path id="DejaVuSans-48" d="M 628 4666 L 1259 4666 L 1259 2753 L 3553 2753 L 3553 4666 L 4184 4666 L 4184 0 L 3553 0 L 3553 2222 L 1259 2222 L 1259 0 L 628 0 L 628 4666 z" transform="scale(0.015625)"/><path id="DejaVuSans-6f" d="M 1959 3097 Q 1497 3097 1228 2736 Q 959 2375 959 1747 Q 959 1119 1226 758 Q 1494 397 1959 397 Q 2419 397 2687 759 Q 2956 1122 2956 1747 Q 2956 2369 2687 2733 Q 2419 3097 1959 3097 z M 1959 3584 Q 2709 3584 3137 3096 Q 3566 2609 3566 1747 Q 3566 888 3137 398 Q 2709 -91 1959 -91 Q 1206 -91 779 398 Q 353 888 353 1747 Q 353 2609 779 3096 Q 1206 3584 1959 3584 z" transform="scale(0.015625)"/><path id="DejaVuSans-75" d="M 544 1381 L 544 3500 L 1119 3500 L 1119 1403 Q 1119 906 1312 657 Q 1506 409 1894 409 Q 2359 409 2629 706 Q 2900 1003 2900 1516 L 2900 3500 L 3475 3500 L 3475 0 L 2900 0 L 2900 538 Q 2691 219 2414 64 Q 2138 -91 1772 -91 Q 1169 -91 856 284 Q 544 659 544 1381 z M 1991 3584 L 1991 3584 z" transform="scale(0.015625)"/><path id="DejaVuSans-72" d="M 2631 2963 Q 2534 3019 2420 3045 Q 2306 3072 2169 3072 Q 1681 3072 1420 2755 Q 1159 2438 1159 1844 L 1159 0 L 581 0 L 581 3500 L 1159 3500 L 1159 2956 Q 1341 3275 1631 3429 Q 1922 3584 2338 3584 Q 2397 3584 2469 3576 Q 2541 3569 2628 3553 L 2631 2963 z" transform="scale(0.015625)"/><path id="DejaVuSans-73" d="M 2834 3397 L 2834 2853 Q 2591 2978 2328 3040 Q 2066 3103 1784 3103 Q 1356 3103 1142 2972 Q 928 2841 928 2578 Q 928 2378 1081 2264 Q 1234 2150 1697 2047 L 1894 2003 Q 2506 1872 2764 1633 Q 3022 1394 3022 966 Q 3022 478 2636 193 Q 2250 -91 1575 -91 Q 1294 -91 989 -36 Q 684 19 347 128 L 347 722 Q 666 556 975 473 Q 1284 391 1588 391 Q 1994 391 2212 530 Q 2431 669 2431 922 Q 2431 1156 2273 1281 Q 2116 1406 1581 1522 L 1381 1569 Q 847 1681 609 1914 Q 372 2147 372 2553 Q 372 3047 722 3315 Q 1072 3584 1716 3584 Q 2034 3584 2315 3537 Q 2597 3491 2834 3397 z" transform="scale(0.015625)"/><path id="DejaVuSans-20" transform="scale(0.015625)"/><path id="DejaVuSans-69" d="M 603 3500 L 1178 3500 L 1178 0 L 603 0 L 603 3500 z M 603 4863 L 1178 4863 L 1178 4134 L 603 4134 L 603 4863 z" transform="scale(0.015625)"/><path id="DejaVuSans-6e" d="M 3513 2113 L 3513 0 L 2938 0 L 2938 2094 Q 2938 2591 2744 2837 Q 2550 3084 2163 3084 Q 1697 3084 1428 2787 Q 1159 2491 1159 1978 L 1159 0 L 581 0 L 581 3500 L 1159 3500 L 1159 2956 Q 1366 3272 1645 3428 Q 1925 3584 2291 3584 Q 2894 3584 3203 3211 Q 3513 2838 3513 2113 z" transform="scale(0.015625)"/><path id="DejaVuSans-63" d="M 3122 3366 L 3122 2828 Q 2878 2963 2633 3030 Q 2388 3097 2138 3097 Q 1578 3097 1268 2742 Q 959 2388 959 1747 Q 959 1106 1268 751 Q 1578 397 2138 397 Q 2388 397 2633 464 Q 2878 531 3122 666 L 3122 134 Q 2881 22 2623 -34 Q 2366 -91 2075 -91 Q 1284 -91 818 406 Q 353 903 353 1747 Q 353 2603 823 3093 Q 1294 3584 2113 3584 Q 2378 3584 2631 3529 Q 2884 3475 3122 3366 z" transform="scale(0.015625)"/><path id="DejaVuSans-65" d="M 3597 1894 L 3597 1613 L 953 1613 Q 991 1019 1311 708 Q 1631 397 2203 397 Q 2534 397 2845 478 Q 3156 559 3463 722 L 3463 178 Q 3153 47 2828 -22 Q 2503 -91 2169 -91 Q 1331 -91 842 396 Q 353 884 353 1716 Q 353 2575 817 3079 Q 1281 3584 2069 3584 Q 2775 3584 3186 3129 Q 3597 2675 3597 1894 z M 3022 2063 Q 3016 2534 2758 2815 Q 2500 3097 2075 3097 Q 1594 3097 1305 2825 Q 1016 2553 972 2059 L 3022 2063 z" transform="scale(0.015625)"/><path id="DejaVuSans-36" d="M 2113 2584 Q 1688 2584 1439 2293 Q 1191 2003 1191 1497 Q 1191 994 1439 701 Q 1688 409 2113 409 Q 2538 409 2786 701 Q 3034 994 3034 1497 Q 3034 2003 2786 2293 Q 2538 2584 2113 2584 z M 3366 4563 L 3366 3988 Q 3128 4100 2886 4159 Q 2644 4219 2406 4219 Q 1781 4219 1451 3797 Q 1122 3375 1075 2522 Q 1259 2794 1537 2939 Q 1816 3084 2150 3084 Q 2853 3084 3261 2657 Q 3669 2231 3669 1497 Q 3669 778 3244 343 Q 2819 -91 2113 -91 Q 1303 -91 875 529 Q 447 1150 447 2328 Q 447 3434 972 4092 Q 1497 4750 2381 4750 Q 2619 4750 2861 4703 Q 3103 4656 3366 4563 z" transform="scale(0.015625)"/><path id="DejaVuSans-2f" d="M 1625 4666 L 2156 4666 L 531 -594 L 0 -594 L 1625 4666 z" transform="scale(0.015625)"/><path id="DejaVuSans-33" d="M 2597 2516 Q 3050 2419 3304 2112 Q 3559 1806 3559 1356 Q 3559 666 3084 287 Q 2609 -91 1734 -91 Q 1441 -91 1130 -33 Q 819 25 488 141 L 488 750 Q 750 597 1062 519 Q 1375 441 1716 441 Q 2309 441 2620 675 Q 2931 909 2931 1356 Q 2931 1769 2642 2001 Q 2353 2234 1838 2234 L 1294 2234 L 1294 2753 L 1863 2753 Q 2328 2753 2575 2939 Q 2822 3125 2822 3475 Q 2822 3834 2567 4026 Q 2313 4219 1838 4219 Q 1578 4219 1281 4162 Q 984 4106 628 3988 L 628 4550 Q 988 4650 1302 4700 Q 1616 4750 1894 4750 Q 2613 4750 3031 4423 Q 3450 4097 3450 3541 Q 3450 3153 3228 2886 Q 3006 2619 2597 2516 z" transform="scale(0.015625)"/><path id="DejaVuSans-3a" d="M 750 794 L 1409 794 L 1409 0 L 750 0 L 750 794 z M 750 3309 L 1409 3309 L 1409 2516 L 750 2516 L 750 3309 z" transform="scale(0.015625)"/><path id="DejaVuSans-28" d="M 1984 4856 Q 1566 4138 1362 3434 Q 1159 2731 1159 2009 Q 1159 1288 1364 580 Q 1569 -128 1984 -844 L 1484 -844 Q 1016 -109 783 600 Q 550 1309 550 2009 Q 550 2706 781 3412 Q 1013 4119 1484 4856 L 1984 4856 z" transform="scale(0.015625)"/><path id="DejaVuSans-55" d="M 556 4666 L 1191 4666 L 1191 1831 Q 1191 1081 1462 751 Q 1734 422 2344 422 Q 2950 422 3222 751 Q 3494 1081 3494 1831 L 3494 4666 L 4128 4666 L 4128 1753 Q 4128 841 3676 375 Q 3225 -91 2344 -91 Q 1459 -91 1007 375 Q 556 841 556 1753 L 556 4666 z" transform="scale(0.015625)"/><path id="DejaVuSans-43" d="M 4122 4306 L 4122 3641 Q 3803 3938 3442 4084 Q 3081 4231 2675 4231 Q 1875 4231 1450 3742 Q 1025 3253 1025 2328 Q 1025 1406 1450 917 Q 1875 428 2675 428 Q 3081 428 3442 575 Q 3803 722 4122 1019 L 4122 359 Q 3791 134 3420 21 Q 3050 -91 2638 -91 Q 1578 -91 968 557 Q 359 1206 359 2328 Q 359 3453 968 4101 Q 1578 4750 2638 4750 Q 3056 4750 3426 4639 Q 3797 4528 4122 4306 z" transform="scale(0.015625)"/><path id="DejaVuSans-54" d="M -19 4666 L 3928 4666 L 3928 4134 L 2272 4134 L 2272 0 L 1638 0 L 1638 4134 L -19 4134 L -19 4666 z" transform="scale(0.015625)"/><path id="DejaVuSans-29" d="M 513 4856 L 1013 4856 Q 1481 4119 1714 3412 Q 1947 2706 1947 2009 Q 1947 1309 1714 600 Q 1481 -109 1013 -844 L 513 -844 Q 928 -128 1133 580 Q 1338 1288 1338 2009 Q 1338 2731 1133 3434 Q 928 4138 513 4856 z" transform="scale(0.015625)"/></defs><use xlink:href="#DejaVuSans-48"/><use xlink:href="#DejaVuSans-6f" x="75.195"/><use xlink:href="#DejaVuSans-75" x="136.377"/><use xlink:href="#DejaVuSans-72" x="199.756"/><use xlink:href="#DejaVuSans-73" x="240.869"/><use xlink:href="#DejaVuSans-20" x="292.969"/><use xlink:href="#DejaVuSans-73" x="324.756"/><use xlink:href="#DejaVuSans-69" x="376.855"/><use xlink:href="#DejaVuSans-6e" x="404.639"/><use xlink:href="#DejaVuSans-63" x="468.018"/><use xlink:href="#DejaVuSans-65" x="522.998"/><use xlink:href="#DejaVuSans-20" x="584.521"/><use xlink:href="#DejaVuSans-32" x="616.309"/><use xlink:href="#DejaVuSans-36" x="679.932"/><use xlink:href="#DejaVuSans-2f" x="743.555"/><use xlink:href="#DejaVuSans-30" x="777.246"/><use xlink:href="#DejaVuSans-32" x="840.869"/><use xlink:href="#DejaVuSans-2f" x="904.492"/><use xlink:href="#DejaVuSans-32" x="938.184"/><use xlink:href="#DejaVuSans-30" x="1001.807"/><use xlink:href="#DejaVuSans-32" x="1065.43"/><use xlink:href="#DejaVuSans-33" x="1129.053"/><use xlink:href="#DejaVuSans-20" x="1192.676"/><use xlink:href="#DejaVuSans-30" x="1224.463"/><use xlink:href="#DejaVuSans-35" x="1288.086"/><use xlink:href="#DejaVuSans-3a" x="1351.709"/><use xlink:href="#DejaVuSans-30" x="1385.4"/><use xlink:href="#DejaVuSans-30" x="1449.023"/><use xlink:href="#DejaVuSans-3a" x="1512.646"/><use xlink:href="#DejaVuSans-30" x="1546.338"/><use xlink:href="#DejaVuSans-30" x="1609.961"/><use xlink:href="#DejaVuSans-20" x="1673.584"/><use xlink:href="#DejaVuSans-28" x="1705.371"/><use xlink:href="#DejaVuSans-55" x="1744.385"/><use xlink:href="#DejaVuSans-43" x="1817.578"/><use xlink:href="#DejaVuSans-54" x="1887.402"/><use xlink:href="#DejaVuSans-29" x="1948.486"/></g></g></g><g id="matplotlib.axis_2"><g id="ytick_1"><g id="line2d_30"><defs><path id="mfc7b3c002a" d="M 0 0 L -3.5 0" stroke="#ffffff" stroke-width="0.8"/></defs><g><use xlink:href="#mfc7b3c002a" x="180" y="615.6" fill="#ffffff" stroke="#ffffff" stroke-width="0.8"/></g></g><g id="text_8"><g transform="translate(166.6375 619.399219) scale(0.1 -0.1)" fill="#ffffff"><use xlink:href="#DejaVuSans-30"/></g></g></g><g id="ytick_2"><g id="line2d_31"><g><use xlink:href="#mfc7b3c002a" x="180" y="497.843" fill="#ffffff" stroke="#ffffff" stroke-width="0.8"/></g></g><g id="text_9"><g transform="translate(153.9125 501.642209) scale(0.1 -0.1)" fill="#ffffff"><use xlink:href="#DejaVuSans-32"/><use xlink:href="#DejaVuSans-30" x="63.623"/><use xlink:href="#DejaVuSans-30" x="127.246"/></g></g></g><g id="ytick_3"><g id="line2d_32"><g><use xlink:href="#mfc7b3c002a" x="180" y="380.086" fill="#ffffff" stroke="#ffffff" stroke-width="0.8"/></g></g><g id="text_10"><g transform="translate(153.9125 383.8852) scale(0.1 -0.1)" fill="#ffffff"><defs><path id="DejaVuSans-34" d="M 2419 4116 L 825 1625 L 2419 1625 L 2419 4116 z M 2253 4666 L 3047 4666 L 3047 1625 L 3713 1625 L 3713 1100 L 3047 1100 L 3047 0 L 2419 0 L 2419 1100 L 313 1100 L 313 1709 L 2253 4666 z" transform="scale(0.015625)"/></defs><use xlink:href="#DejaVuSans-34"/><use xlink:href="#DejaVuSans-30" x="63.623"/><use xlink:href="#DejaVuSans-30" x="127.246"/></g></g></g><g id="ytick_4"><g id="line2d_33"><g><use xlink:href="#mfc7b3c002a" x="180" y="262.329" fill="#ffffff" stroke="#ffffff" stroke-width="0.8"/></g></g><g id="text_11"><g transform="translate(153.9125 266.128191) scale(0.1 -0.1)" fill="#ffffff"><use xlink:href="#DejaVuSans-36"/><use xlink:href="#DejaVuSans-30" x="63.623"/><use xlink:href="#DejaVuSans-30" x="127.246"/></g></g></g><g id="ytick_5"><g id="line2d_34"><g><use xlink:href="#mfc7b3c002a" x="180" y="144.572" fill="#ffffff" stroke="#ffffff" stroke-width="0.8"/></g></g><g id="text_12"><g transform="translate(153.9125 148.371181) scale(0.1 -0.1)" fill="#ffffff"><defs><path id="DejaVuSans-38" d="M 2034 2216 Q 1584 2216 1326 1975 Q 1069 1734 1069 1313 Q 1069 891 1326 650 Q 1584 409 2034 409 Q 2484 409 2743 651 Q 3003 894 3003 1313 Q 3003 1734 2745 1975 Q 2488 2216 2034 2216 z M 1403 2484 Q 997 2584 770 2862 Q 544 3141 544 3541 Q 544 4100 942 4425 Q 1341 4750 2034 4750 Q 2731 4750 3128 4425 Q 3525 4100 3525 3541 Q 3525 3141 3298 2862 Q 3072 2584 2669 2484 Q 3125 2378 3379 2068 Q 3634 1759 3634 1313 Q 3634 634 3220 271 Q 2806 -91 2034 -91 Q 1263 -91 848 271 Q 434 634 434 1313 Q 434 1759 690 2068 Q 947 2378 1403 2484 z M 1172 3481 Q 1172 3119 1398 2916 Q 1625 2713 2034 2713 Q 2441 2713 2670 2916 Q 2900 3119 2900 3481 Q 2900 3844 2670 4047 Q 2441 4250 2034 4250 Q 1625 4250 1398 4047 Q 1172 3844 1172 3481 z" transform="scale(0.015625)"/></defs><use xlink:href="#DejaVuSans-38"/><use xlink:href="#DejaVuSans-30" x="63.623"/><use xlink:href="#DejaVuSans-30" x="127.246"/></g></g></g><g id="ytick_6"><g id="line2d_35"><defs><path id="m1b121a1e6b" d="M 0 0 L -2 0" stroke="#ffffff" stroke-width="0.6"/></defs><g><use xlink:href="#m1b121a1e6b" x="180" y="586.161" fill="#ffffff" stroke="#ffffff" stroke-width="0.6"/></g></g></g><g id="ytick_7"><g id="line2d_36"><g><use xlink:href="#m1b121a1e6b" x="180" y="556.721" fill="#ffffff" stroke="#ffffff" stroke-width="0.6"/></g></g></g><g id="ytick_8"><g id="line2d_37"><g><use xlink:href="#m1b121a1e6b" x="180" y="527.282" fill="#ffffff" stroke="#ffffff" stroke-width="0.6"/></g></g></g><g id="ytick_9"><g id="line2d_38"><g><use xlink:href="#m1b121a1e6b" x="180" y="468.404" fill="#ffffff" stroke="#ffffff" stroke-width="0.6"/></g></g></g><g id="ytick_10"><g id="line2d_39"><g><use xlink:href="#m1b121a1e6b" x="180" y="438.964" fill="#ffffff" stroke="#ffffff" stroke-width="0.6"/></g></g></g><g id="ytick_11"><g id="line2d_40"><g><use xlink:href="#m1b121a1e6b" x="180" y="409.525" fill="#ffffff" stroke="#ffffff" stroke-width="0.6"/></g></g></g><g id="ytick_12"><g id="line2d_41"><g><use xlink:href="#m1b121a1e6b" x="180" y="350.647" fill="#ffffff" stroke="#ffffff" stroke-width="0.6"/></g></g></g><g id="ytick_13"><g id="line2d_42"><g><use xlink:href="#m1b121a1e6b" x="180" y="321.207" fill="#ffffff" stroke="#ffffff" stroke-width="0.6"/></g></g></g><g id="ytick_14"><g id="line2d_43"><g><use xlink:href="#m1b121a1e6b" x="180" y="291.768" fill="#ffffff" stroke="#ffffff" stroke-width="0.6"/></g></g></g><g id="ytick_15"><g id="line2d_44"><g><use xlink:href="#m1b121a1e6b" x="180" y="232.89" fill="#ffffff" stroke="#ffffff" stroke-width="0.6"/></g></g></g><g id="ytick_16"><g id="line2d_45"><g><use xlink:href="#m1b121a1e6b" x="180" y="203.45" fill="#ffffff" stroke="#ffffff" stroke-width="0.6"/></g></g></g><g id="ytick_17"><g id="line2d_46"><g><use xlink:href="#m1b121a1e6b" x="180" y="174.011" fill="#ffffff" stroke="#ffffff" stroke-width="0.6"/></g></g></g><g id="ytick_18"><g id="line2d_47"><g><use xlink:href="#m1b121a1e6b" x="180" y="115.133" fill="#ffffff" stroke="#ffffff" stroke-width="0.6"/></g></g></g><g id="text_13"><g transform="translate(147.832812 434.258594) rotate(-90) scale(0.1 -0.1)" fill="#ffffff"><defs><path id="DejaVuSans-53" d="M 3425 4513 L 3425 3897 Q 3066 4069 2747 4153 Q 2428 4238 2131 4238 Q 1616 4238 1336 4038 Q 1056 3838 1056 3469 Q 1056 3159 1242 3001 Q 1428 2844 1947 2747 L 2328 2669 Q 3034 2534 3370 2195 Q 3706 1856 3706 1288 Q 3706 609 3251 259 Q 2797 -91 1919 -91 Q 1588 -91 1214 -16 Q 841 59 441 206 L 441 856 Q 825 641 1194 531 Q 1563 422 1919 422 Q 2459 422 2753 634 Q 3047 847 3047 1241 Q 3047 1584 2836 1778 Q 2625 1972 2144 2069 L 1759 2144 Q 1053 2284 737 2584 Q 422 2884 422 3419 Q 422 4038 858 4394 Q 1294 4750 2059 4750 Q 2388 4750 2728 4690 Q 3069 4631 3425 4513 z" transform="scale(0.015625)"/><path id="DejaVuSans-64" d="M 2906 2969 L 2906 4863 L 3481 4863 L 3481 0 L 2906 0 L 2906 525 Q 2725 213 2448 61 Q 2172 -91 1784 -91 Q 1150 -91 751 415 Q 353 922 353 1747 Q 353 2572 751 3078 Q 1150 3584 1784 3584 Q 2172 3584 2448 3432 Q 2725 3281 2906 2969 z M 947 1747 Q 947 1113 1208 752 Q 1469 391 1925 391 Q 2381 391 2643 752 Q 2906 1113 2906 1747 Q 2906 2381 2643 2742 Q 2381 3103 1925 3103 Q 1469 3103 1208 2742 Q 947 2381 947 1747 z" transform="scale(0.015625)"/><path id="DejaVuSans-62" d="M 3116 1747 Q 3116 2381 2855 2742 Q 2594 3103 2138 3103 Q 1681 3103 1420 2742 Q 1159 2381 1159 1747 Q 1159 1113 1420 752 Q 1681 391 2138 391 Q 2594 391 2855 752 Q 3116 1113 3116 1747 z M 1159 2969 Q 1341 3281 1617 3432 Q 1894 3584 2278 3584 Q 2916 3584 3314 3078 Q 3713 2572 3713 1747 Q 3713 922 3314 415 Q 2916 -91 2278 -91 Q 1894 -91 1617 61 Q 1341 213 1159 525 L 1159 0 L 581 0 L 581 4863 L 1159 4863 L 1159 2969 z" transform="scale(0.015625)"/><path id="DejaVuSans-74" d="M 1172 4494 L 1172 3500 L 2356 3500 L 2356 3053 L 1172 3053 L 1172 1153 Q 1172 725 1289 603 Q 1406 481 1766 481 L 2356 481 L 2356 0 L 1766 0 Q 1100 0 847 248 Q 594 497 594 1153 L 594 3053 L 172 3053 L 172 3500 L 594 3500 L 594 4494 L 1172 4494 z" transform="scale(0.015625)"/><path id="DejaVuSans-77" d="M 269 3500 L 844 3500 L 1563 769 L 2278 3500 L 2956 3500 L 3675 769 L 4391 3500 L 4966 3500 L 4050 0 L 3372 0 L 2619 2869 L 1863 0 L 1184 0 L 269 3500 z" transform="scale(0.015625)"/><path id="DejaVuSans-61" d="M 2194 1759 Q 1497 1759 1228 1600 Q 959 1441 959 1056 Q 959 750 1161 570 Q 1363 391 1709 391 Q 2188 391 2477 730 Q 2766 1069 2766 1631 L 2766 1759 L 2194 1759 z M 3341 1997 L 3341 0 L 2766 0 L 2766 531 Q 2569 213 2275 61 Q 1981 -91 1556 -91 Q 1019 -91 701 211 Q 384 513 384 1019 Q 384 1609 779 1909 Q 1175 2209 1959 2209 L 2766 2209 L 2766 2266 Q 2766 2663 2505 2880 Q 2244 3097 1772 3097 Q 1472 3097 1187 3025 Q 903 2953 641 2809 L 641 3341 Q 956 3463 1253 3523 Q 1550 3584 1831 3584 Q 2591 3584 2966 3190 Q 3341 2797 3341 1997 z" transform="scale(0.015625)"/><path id="DejaVuSans-70" d="M 1159 525 L 1159 -1331 L 581 -1331 L 581 3500 L 1159 3500 L 1159 2969 Q 1341 3281 1617 3432 Q 1894 3584 2278 3584 Q 2916 3584 3314 3078 Q 3713 2572 3713 1747 Q 3713 922 3314 415 Q 2916 -91 2278 -91 Q 1894 -91 1617 61 Q 1341 213 1159 525 z M 3116 1747 Q 3116 2381 2855 2742 Q 2594 3103 2138 3103 Q 1681 3103 1420 2742 Q 1159 2381 1159 1747 Q 1159 1113 1420 752 Q 1681 391 2138 391 Q 2594 391 2855 752 Q 3116 1113 3116 1747 z" transform="scale(0.015625)"/><path id="DejaVuSans-6c" d="M 603 4863 L 1178 4863 L 1178 0 L 603 0 L 603 4863 z" transform="scale(0.015625)"/></defs><use xlink:href="#DejaVuSans-53"/><use xlink:href="#DejaVuSans-65" x="63.477"/><use xlink:href="#DejaVuSans-63" x="125"/><use xlink:href="#DejaVuSans-6f" x="179.98"/><use xlink:href="#DejaVuSans-6e" x="241.162"/><use xlink:href="#DejaVuSans-64" x="304.541"/><use xlink:href="#DejaVuSans-73" x="368.018"/><use xlink:href="#DejaVuSans-20" x="420.117"/><use xlink:href="#DejaVuSans-62" x="451.904"/><use xlink:href="#DejaVuSans-65" x="515.381"/><use xlink:href="#DejaVuSans-74" x="576.904"/><use xlink:href="#DejaVuSans-77" x="616.113"/><use xlink:href="#DejaVuSans-65" x="697.9"/><use xlink:href="#DejaVuSans-65" x="759.424"/><use xlink:href="#DejaVuSans-6e" x="820.947"/><use xlink:href="#DejaVuSans-20" x="884.326"/><use xlink:href="#DejaVuSans-61" x="916.113"/><use xlink:href="#DejaVuSans-6e" x="977.393"/><use xlink:href="#DejaVuSans-20" x="1040.771"/><use xlink:href="#DejaVuSans-75" x="1072.559"/><use xlink:href="#DejaVuSans-70" x="1135.938"/><use xlink:href="#DejaVuSans-6c" x="1199.414"/><use xlink:href="#DejaVuSans-6f" x="1227.197"/><use xlink:href="#DejaVuSans-61" x="1288.379"/><use xlink:href="#DejaVuSans-64" x="1349.658"/></g></g></g><g id="line2d_48"><path d="M 180 615.6 L 180.386828 512.235514 L 180.773657 573.14484 L 181.160485 577.638084 L 181.547314 574.558219 L 181.934142 565.401869 L 182.320971 588.437383 L 183.481456 554.298418 L 183.868284 585.993779 L 184.255113 591.196409 L 184.641941 600.579535 L 185.028769 599.192217 L 185.415598 592.135578 L 186.189255 601.013058 L 186.576083 598.906766 L 186.962912 604.75396 L 187.736568 599.670854 L 188.123397 593.340127 L 188.510225 595.796441 L 188.897054 604.406719 L 189.283882 579.032243 L 189.670711 593.105879 L 190.057539 572.014809 L 190.444367 583.17757 L 190.831196 557.915888 L 191.218024 554.989775 L 191.604853 540.259065 L 191.991681 547.950628 L 192.37851 524.366355 L 192.765338 515.748983 L 193.152166 579.933214 L 193.538995 605.873404 L 193.925823 519.71215 L 194.312652 595.419092 L 194.69948 586.775132 L 195.086308 592.318162 L 195.473137 593.15577 L 195.859965 593.578159 L 196.246794 582.618541 L 196.633622 586.301353 L 197.020451 592.972927 L 197.407279 574.86785 L 197.794107 596.098559 L 198.180936 571.566395 L 198.954593 583.143224 L 199.341421 572.091238 L 199.72825 554.091589 L 200.115078 577.017916 L 200.501906 396.571963 L 200.888735 477.151402 L 201.275563 440.891419 L 201.662392 515.948131 L 202.04922 519.569159 L 202.436049 557.899065 L 202.822877 560.142814 L 203.209705 576.18537 L 203.596534 582.646729 L 203.983362 594.048014 L 204.370191 597.069042 L 204.757019 592.984112 L 205.143847 582.968429 L 205.530676 593.449287 L 205.917504 590.92847 L 206.304333 598.011294 L 206.691161 592.595822 L 207.07799 561.230349 L 207.464818 566.558514 L 207.851646 559.044809 L 208.238475 563.910871 L 208.625303 573.52066 L 209.012132 590.842991 L 209.39896 592.810179 L 210.172617 548.772897 L 210.559445 548.929907 L 210.946274 500.475206 L 211.333102 576.17362 L 211.719931 525.729992 L 212.106759 533.571538 L 212.493588 584.753651 L 212.880416 587.130999 L 213.267244 579.095327 L 213.654073 593.420342 L 214.040901 583.912659 L 214.42773 579.773927 L 214.814558 579.582597 L 215.201386 597.821685 L 215.588215 597.716294 L 215.975043 583.948343 L 216.361872 585.197281 L 216.7487 596.368139 L 217.135529 585.838756 L 217.522357 597.670215 L 217.909185 565.553271 L 218.296014 547.715265 L 218.682842 559.242231 L 219.069671 551.650347 L 219.456499 525.011215 L 219.843328 532.581308 L 220.230156 548.972324 L 220.616984 525.746282 L 221.390641 567.431776 L 222.164298 590.00993 L 222.551127 595.473742 L 222.937955 604.661478 L 223.711612 589.296028 L 224.09844 601.914621 L 224.485269 601.457304 L 224.872097 598.583147 L 225.258925 598.264624 L 225.645754 600.049148 L 226.032582 594.871303 L 226.419411 594.451802 L 227.193068 584.215973 L 227.579896 580.753738 L 227.966724 570.148354 L 228.353553 564.102849 L 228.740381 561.354304 L 229.12721 552.447352 L 229.514038 572.810389 L 229.900867 520.898574 L 230.287695 555.405388 L 230.674523 561.69518 L 231.061352 590.509244 L 231.835009 598.176869 L 232.221837 600.818178 L 232.608666 599.757153 L 232.995494 602.679439 L 233.382322 604.650448 L 233.769151 600.972897 L 234.155979 600.896843 L 234.542808 598.657121 L 234.929636 606.504551 L 235.703293 601.236098 L 236.090121 593.974416 L 236.47695 560.090654 L 236.863778 581.971687 L 237.637435 569.764364 L 238.024263 584.90525 L 238.411092 560.557519 L 238.79792 583.725319 L 239.184749 598.462494 L 239.571577 594.515607 L 239.958406 597.61941 L 240.345234 598.267949 L 241.118891 606.010063 L 241.505719 605.638092 L 241.892548 599.496055 L 242.279376 603.677934 L 242.666205 605.145404 L 243.053033 600.15836 L 243.82669 605.181449 L 244.600347 599.87856 L 245.374003 605.224494 L 245.760832 589.796495 L 246.14766 565.930697 L 246.534489 582.702804 L 246.921317 591.14388 L 247.308146 594.308581 L 247.694974 586.094406 L 248.081802 596.242303 L 248.468631 600.888609 L 248.855459 599.85 L 249.242288 603.47998 L 249.629116 603.287162 L 250.015945 602.718973 L 250.402773 606.147756 L 250.789601 606.44452 L 251.17643 603.77799 L 251.563258 604.571126 L 251.950087 601.469159 L 252.336915 604.40049 L 253.4974 598.396592 L 253.884229 600.965091 L 254.271057 599.043925 L 254.657886 581.915797 L 255.044714 575.57394 L 255.431542 591.930841 L 255.818371 586.267056 L 256.205199 565.805607 L 256.592028 517.714486 L 256.978856 559.628621 L 257.365685 568.237035 L 257.752513 572.765888 L 258.139341 568.176041 L 258.52617 579.191176 L 258.912998 593.657944 L 259.299827 593.576934 L 259.686655 592.513084 L 260.073484 587.265728 L 260.460312 598.167937 L 260.84714 605.228102 L 261.233969 597.332032 L 261.620797 604.091344 L 262.007626 602.981667 L 262.394454 603.253249 L 262.781282 598.482152 L 263.168111 591.747515 L 263.554939 595.870146 L 264.328596 574.691215 L 264.715425 555.476636 L 265.102253 561.292327 L 265.489081 535.864917 L 265.87591 581.527685 L 266.262738 555.998131 L 266.649567 580.881308 L 267.036395 563.136153 L 267.423224 590.411488 L 267.810052 555.855635 L 268.19688 585.369842 L 268.583709 593.688333 L 268.970537 590.778809 L 269.357366 601.974374 L 269.744194 589.296028 L 270.131023 596.164591 L 270.517851 593.881723 L 270.904679 600.410193 L 271.291508 603.266685 L 271.678336 600.548131 L 272.065165 601.039053 L 272.451993 601.957889 L 272.838821 602.440654 L 273.22565 583.624443 L 273.612478 597.535466 L 273.999307 577.517828 L 274.386135 551.584853 L 274.772964 558 L 275.54662 578.024809 L 275.933449 585.230638 L 276.320277 532.204486 L 276.707106 579.663809 L 277.093934 582.286162 L 277.480763 581.107009 L 277.867591 601.115888 L 278.254419 599.216822 L 278.641248 595.722843 L 279.028076 584.491059 L 279.414905 597.789252 L 279.801733 593.142056 L 280.188562 599.981931 L 280.57539 602.214456 L 280.962218 601.926661 L 281.349047 603.764759 L 281.735875 602.122106 L 282.122704 595.494722 L 282.509532 596.705835 L 282.89636 580.191685 L 283.283189 571.106585 L 283.670017 583.546899 L 284.056846 556.13271 L 284.443674 560.793925 L 284.830503 549.732047 L 285.217331 554.771145 L 285.604159 371.990187 L 285.990988 586.674898 L 286.377816 591.678896 L 286.764645 584.148333 L 287.151473 587.051882 L 287.538302 591.757589 L 287.92513 593.042991 L 288.311958 589.246279 L 288.698787 602.902106 L 289.085615 599.9225 L 289.472444 601.47728 L 289.859272 597.090739 L 290.246101 602.555303 L 290.632929 602.25927 L 291.019757 602.406715 L 291.406586 592.77818 L 291.793414 577.735769 L 292.180243 577.09568 L 292.567071 564.979206 L 292.953899 563.595959 L 293.340728 539.128598 L 293.727556 558.782243 L 294.114385 552.225319 L 294.501213 562.314953 L 294.888042 559.060722 L 295.661698 596.552804 L 296.048527 592.726981 L 296.435355 594.391343 L 296.822184 594.391844 L 297.209012 603.122693 L 297.982669 587.112482 L 298.369497 590.938965 L 298.756326 592.643925 L 299.143154 602.431952 L 299.529983 595.683214 L 299.916811 600.545741 L 300.30364 600.105429 L 300.690468 597.416005 L 301.077296 583.92158 L 301.464125 555.488727 L 301.850953 582.06729 L 302.237782 578.590654 L 302.62461 576.694008 L 303.011438 558.48785 L 303.398267 567.538709 L 303.785095 592.264486 L 304.171924 594.385528 L 304.558752 592.572682 L 304.945581 596.416313 L 305.332409 593.96215 L 305.719237 597.991335 L 306.106066 597.4859 L 306.492894 603.224809 L 306.879723 604.25077 L 307.266551 603.807853 L 307.65338 604.193483 L 308.040208 603.187026 L 308.427036 599.642056 L 308.813865 580.9016 L 309.200693 598.423885 L 309.587522 602.809277 L 309.97435 594.603925 L 310.361179 596.841418 L 310.748007 592.960891 L 311.134835 574.985377 L 311.521664 539.166978 L 311.908492 525.387891 L 312.295321 562.680714 L 312.682149 571.550663 L 313.068977 575.947592 L 313.455806 574.696756 L 313.842634 592.159813 L 314.229463 598.845954 L 314.616291 598.696171 L 315.00312 598.956391 L 315.389948 603.784606 L 315.776776 598.908411 L 316.163605 601.160554 L 316.550433 601.174766 L 316.937262 600.783645 L 317.32409 603.897897 L 317.710919 604.591599 L 318.097747 602.890859 L 318.484575 603.390457 L 318.871404 600.789154 L 319.258232 592.475629 L 319.645061 593.697196 L 320.031889 592.190719 L 320.805546 576.422243 L 321.192374 520.35536 L 321.579203 487.298386 L 321.966031 549.302804 L 322.35286 552.296686 L 322.739688 440.463212 L 323.126516 266.921495 L 323.513345 561.310555 L 323.900173 558.06729 L 324.67383 592.041983 L 325.060659 595.675736 L 325.447487 596.858762 L 325.834315 600.755983 L 326.221144 600.166955 L 326.607972 603.009628 L 326.994801 599.795526 L 327.381629 575.096495 L 327.768458 593.864019 L 328.155286 592.918976 L 328.542114 588.066552 L 328.928943 586.937617 L 329.315771 553.208411 L 329.7026 557.761682 L 330.089428 444.970093 L 330.476256 566.142056 M 331.636742 543.768224 L 332.02357 569.609346 L 332.410399 567.160495 L 332.797227 485.125234 L 333.184055 585.4013 L 333.570884 591.459813 L 333.957712 590.92918 L 334.344541 585.788428 L 334.731369 587.777944 L 335.118198 595.055403 L 335.505026 596.027024 L 335.891854 585.955953 L 336.278683 602.930218 L 336.665511 604.279713 L 337.05234 599.93921 L 337.439168 592.46729 L 337.825997 602.783742 L 338.212825 604.18269 L 338.986482 594.853986 L 339.37331 579.28802 L 339.760139 575.313515 L 340.146967 578.769393 L 340.533795 553.891528 L 340.920624 554.054645 L 341.694281 583.642559 L 342.467938 576.740187 L 342.854766 591.501869 L 343.241594 592.282774 L 343.628423 601.943246 L 344.015251 599.133012 L 344.40208 601.528433 L 344.788908 600.077882 L 345.562565 601.083546 L 345.949393 604.987076 L 346.336222 601.74785 L 346.72305 596.431776 L 347.109879 600.913313 L 347.496707 602.323847 L 347.883536 598.947119 L 348.270364 588.278845 L 348.657192 595.186822 L 349.044021 591.681473 L 349.430849 585.286229 L 349.817678 571.772313 L 350.204506 548.596262 L 350.591334 480.179439 L 350.978163 574.740771 L 351.364991 570.196644 L 351.75182 582.098131 L 352.525477 593.455485 L 352.912305 596.780685 L 353.299133 601.905013 L 353.685962 600.581776 L 354.07279 600.256698 L 354.459619 597.776778 L 354.846447 600.876256 L 355.233276 598.414233 L 355.620104 601.189382 L 356.006932 596.903398 L 356.393761 600.562344 L 357.167418 593.965281 L 357.554246 589.766147 L 357.941075 579.021729 L 358.327903 588.006668 L 358.714731 566.867768 L 359.10156 562.795278 L 359.488388 561.960173 L 360.262045 548.125234 L 360.648873 552.653526 L 361.035702 512.709813 L 361.42253 569.835344 L 361.809359 601.003037 L 362.196187 599.620648 L 362.583016 602.832087 L 362.969844 603.297131 L 363.743501 605.963828 L 364.130329 605.129338 L 364.517158 597.569749 L 364.903986 605.791501 L 365.290815 602.816501 L 365.677643 600.838616 L 366.064471 596.453781 L 366.4513 603.249533 L 366.838128 601.847095 L 367.224957 596.851558 L 367.611785 583.316463 L 367.998614 575.324838 L 368.385442 579.147897 L 368.77227 557.915421 L 369.159099 581.773349 L 369.545927 578.870518 L 370.319584 598.539594 L 370.706412 589.156192 L 371.093241 602.252931 L 371.480069 605.618826 L 371.866898 605.501618 L 372.253726 605.007877 L 372.640555 605.703988 L 373.027383 601.609531 L 373.414211 605.370574 L 373.80104 603.207806 L 374.187868 594.721682 L 374.574697 597.061087 L 374.961525 601.011215 L 375.348354 600.825701 L 375.735182 595.073337 L 376.12201 600.248296 L 376.508839 602.132948 L 376.895667 599.997196 L 377.282496 598.569764 L 377.669324 578.832477 L 378.056153 566.749241 L 378.829809 591.757589 L 379.216638 582.609638 L 379.603466 594.344265 L 379.990295 598.783725 L 380.377123 600.63718 L 380.763951 606.937158 L 381.15078 602.08059 L 381.537608 601.928791 L 381.924437 597.154876 L 382.311265 599.571459 L 382.698094 600.588195 L 383.084922 605.178505 L 383.47175 604.624679 L 383.858579 601.947069 L 384.245407 593.629021 L 384.632236 600.229611 L 385.019064 603.586062 L 385.405893 583.696909 L 385.792721 576.551331 L 386.179549 562.640334 L 386.953206 552.070093 L 387.340035 537.450108 L 387.726863 559.284442 L 388.113692 561.55573 L 388.50052 566.515432 L 388.887348 587.826168 L 389.274177 582.441121 L 389.661005 592.140187 L 390.047834 593.992815 L 390.434662 595.055403 L 390.82149 599.626397 L 391.208319 601.5719 L 391.595147 598.490599 L 391.981976 598.481799 L 392.368804 594.680467 L 392.755633 585.748598 L 393.142461 563.043187 L 393.529289 560.270561 L 393.916118 573.121612 L 394.302946 572.949883 L 394.689775 553.673667 L 395.076603 553.078388 L 395.463432 534.017944 L 395.85026 561.347664 L 396.237088 536.655701 L 396.623917 460.053696 L 397.010745 566.534579 L 397.397574 531.05582 L 397.784402 521.320794 L 398.171231 528.571963 L 398.944887 586.011354 L 399.331716 583.005228 L 399.718544 593.633307 L 400.105373 567.717056 L 400.492201 585.994893 L 400.879029 583.520415 L 401.265858 597.784177 L 401.652686 594.77683 L 402.039515 595.332207 L 402.426343 596.57689 L 402.813172 564.798418 L 403.2 578.13289 L 403.973657 574.036582 L 404.360485 551.707326 L 404.747314 536.136664 L 405.134142 557.899065 L 405.520971 557.686449 L 405.907799 569.764364 L 406.294627 552.182153 L 406.681456 544.640498 L 407.068284 565.840483 L 407.841941 585.332457 L 408.228769 552.350212 L 408.615598 583.391618 L 409.002426 587.998712 L 409.389255 577.414613 L 410.162912 599.334813 L 410.54974 600.558448 L 410.936568 596.99335 L 411.323397 601.144312 L 411.710225 598.108178 L 412.097054 591.384503 L 412.483882 595.553001 L 412.870711 588.845607 L 413.257539 576.674766 L 413.644367 576.284712 L 414.031196 543.496477 L 414.418024 530.405364 L 414.804853 584.091079 L 415.191681 584.725584 L 415.57851 583.31802 L 415.965338 556.452336 L 416.352166 579.421262 L 416.738995 574.18486 L 417.125823 577.340081 L 417.512652 592.83585 L 417.89948 575.056262 L 418.286308 592.454206 L 418.673137 586.806776 L 419.059965 589.781776 L 419.446794 597.484708 L 419.833622 601.767425 L 420.220451 601.417441 L 420.607279 598.737196 L 420.994107 588.368692 L 421.767764 595.307319 L 422.154593 588.335327 L 422.541421 587.241531 L 423.315078 556.570093 L 423.701906 550.168888 L 424.088735 570.71541 L 424.475563 548.133355 L 424.862392 570.429947 L 425.24922 581.061449 L 425.636049 548.871028 L 426.022877 571.59145 L 426.409705 575.68961 L 426.796534 592.169031 L 427.183362 600.24765 L 427.570191 595.82243 L 427.957019 602.035152 L 428.343847 603.988764 L 428.730676 603.21461 L 429.117504 602.142056 L 429.504333 605.434214 L 429.891161 605.443458 L 430.27799 602.118722 L 430.664818 597.4859 L 431.051646 603.228334 L 431.825303 589.223921 L 432.212132 573.299065 L 432.59896 568.217523 L 432.985789 596.407768 L 433.372617 597.836655 L 433.759445 571.863511 L 434.146274 579.927747 L 434.533102 572.731438 L 434.919931 578.873144 L 435.693588 602.895012 L 436.080416 601.239291 L 436.467244 604.901196 L 436.854073 596.120569 L 437.240901 602.729302 L 437.62773 606.02689 L 438.014558 607.563084 L 438.401386 604.56183 L 438.788215 605.207799 L 439.175043 602.994325 L 439.561872 597.806716 L 439.9487 605.309314 L 440.335529 603.348479 L 440.722357 604.344184 L 441.496014 584.004889 L 441.882842 589.865785 L 442.269671 591.103634 L 442.656499 589.894506 L 443.043328 587.191121 L 443.816984 594.846784 L 444.203813 605.341666 L 444.590641 602.563136 L 444.97747 598.716708 L 445.364298 602.387515 L 445.751127 601.962979 L 446.137955 600.604772 L 446.524783 604.90324 L 446.911612 604.333086 L 447.29844 608.305156 L 447.685269 606.187325 L 448.072097 601.595037 L 448.458925 601.748057 L 448.845754 603.25273 L 449.232582 600.650706 L 449.619411 601.296929 L 450.006239 602.923387 L 450.393068 596.032527 L 450.779896 596.603024 L 451.166724 576.924904 L 451.553553 563.575557 L 451.940381 571.812312 L 452.32721 524.338318 L 453.100867 575.814953 L 453.487695 571.351524 L 453.874523 589.372302 L 454.261352 587.628785 L 454.64818 591.480352 L 455.035009 585.281837 L 455.421837 601.097079 L 455.808666 601.804493 L 456.195494 601.046229 L 456.582322 602.245455 L 456.969151 604.172218 L 457.355979 604.301248 L 457.742808 604.0463 L 458.129636 594.324829 L 458.516464 597.95624 L 459.290121 600.384778 L 459.67695 594.22164 L 460.450607 569.636367 L 460.837435 578.495837 L 461.224263 575.515514 L 461.611092 581.672468 L 461.99792 579.870044 L 462.384749 583.612563 L 462.771577 592.876779 L 463.158406 594.868879 L 463.545234 594.468505 L 463.932062 599.369004 L 464.318891 602.088333 L 464.705719 598.716589 L 465.092548 596.673237 L 465.479376 600.830264 L 465.866205 603.416942 L 466.253033 602.363516 L 466.639861 599.675836 L 467.413518 601.658835 L 467.800347 596.610356 L 468.187175 599.675629 L 468.574003 599.607692 L 468.960832 573.83231 L 469.34766 587.685136 L 469.734489 591.541025 L 470.121317 561.567649 L 470.508146 580.343957 L 470.894974 535.18555 L 471.281802 559.101168 L 471.668631 530.33322 L 472.055459 540.141308 L 472.442288 586.075416 L 472.829116 599.192832 L 473.215945 599.906444 L 473.602773 594.055274 L 473.989601 597.234038 L 474.37643 603.658492 L 474.763258 596.056866 L 475.150087 600.771804 L 475.536915 602.960513 L 475.923744 602.577674 L 476.310572 600.402519 L 476.6974 600.201337 L 477.084229 594.653526 L 477.471057 597.966135 L 477.857886 594.335563 L 478.244714 587.338318 L 479.018371 595.518428 L 479.792028 561.86959 L 480.178856 571.612059 L 480.565685 577.068548 L 480.952513 574.973832 L 481.339341 554.347362 L 481.72617 552.315104 L 482.112998 580.526684 L 482.499827 589.569886 L 482.886655 592.545794 L 483.273484 592.06867 L 483.660312 595.460088 L 484.04714 603.939425 L 484.433969 600.615421 L 484.820797 602.718973 L 485.207626 601.038737 L 485.594454 601.381637 L 485.981282 601.401528 L 486.368111 602.414895 L 486.754939 602.41714 L 487.141768 604.920345 L 487.528596 603.200675 L 487.915425 597.916658 L 488.302253 557.997196 L 488.689081 539.624922 L 489.07591 558.349313 L 489.462738 558.124189 L 489.849567 590.842991 L 490.236395 588.556216 L 490.623224 584.314104 L 491.010052 591.936134 L 491.39688 587.765792 L 491.783709 598.482152 L 492.170537 600.755983 L 492.557366 606.155677 L 492.944194 599.774172 L 493.331023 605.917457 L 493.717851 603.585421 L 494.104679 602.511418 L 494.491508 603.225 L 494.878336 605.247196 L 495.265165 604.613456 L 495.651993 600.393986 L 496.038821 601.014373 L 496.42565 594.087654 L 496.812478 592.172897 L 497.199307 602.417965 L 497.586135 593.413803 L 497.972964 596.431776 L 498.359792 593.802558 L 498.74662 583.413084 L 499.133449 592.92861 L 499.520277 597.47566 L 499.907106 589.844244 L 500.293934 599.228124 L 500.680763 601.146145 L 501.067591 599.261215 L 501.454419 604.54872 L 501.841248 605.43556 L 502.228076 603.967429 L 502.614905 600.859642 L 503.388562 605.786916 L 503.77539 608.3064 L 504.162218 606.760803 L 504.549047 604.579071 L 504.935875 601.662838 L 505.322704 602.221909 L 505.709532 600.02356 L 506.09636 597.076718 L 506.483189 600.304482 L 506.870017 592.736617 L 507.256846 589.504465 L 507.643674 582.009813 L 508.030503 570.001869 L 508.417331 589.722534 L 508.804159 590.594808 L 509.190988 595.158298 L 509.577816 604.170453 L 509.964645 605.972424 L 510.351473 606.750907 L 510.738302 606.578701 L 511.12513 605.826168 L 511.511958 605.3651 L 511.898787 603.000701 L 512.285615 603.411117 L 512.672444 605.607397 L 513.059272 605.35514 L 513.446101 599.399353 L 513.832929 600.077882 L 514.219757 602.872909 L 514.606586 600.334254 L 514.993414 601.27019 L 515.767071 586.975368 L 516.153899 587.93485 L 516.540728 579.544945 L 516.927556 511.025234 L 517.314385 530.467035 L 517.701213 575.147004 L 518.088042 590.688785 L 518.47487 576.340257 L 518.861698 581.051291 L 519.248527 574.142606 L 519.635355 593.776967 L 520.022184 597.730122 L 520.409012 588.021308 L 521.182669 592.00011 L 521.956326 604.099492 L 522.343154 601.753672 L 522.729983 602.614019 L 523.116811 604.727306 L 523.50364 601.707012 L 524.277296 603.193458 L 524.664125 602.186269 L 525.050953 581.811336 L 525.437782 580.002056 L 525.82461 569.242991 L 526.211438 541.13972 L 526.598267 560.904968 L 526.985095 569.059813 L 527.371924 589.513551 L 527.758752 550.617757 L 528.145581 588.30498 L 528.532409 596.900818 L 528.919237 595.654907 L 529.306066 596.480544 L 529.692894 600.351321 L 530.079723 591.576201 L 530.85338 606.345035 L 531.240208 606.352459 L 532.013865 602.992863 L 532.400693 598.953869 L 532.787522 600.921262 L 533.17435 602.008562 L 533.561179 601.98577 L 533.948007 600.780155 L 534.334835 593.270485 L 534.721664 580.626168 L 535.108492 590.920093 L 535.495321 584.358709 L 535.882149 586.988229 L 536.268977 578.324554 L 536.655806 586.493539 L 537.042634 589.67892 L 537.429463 598.539712 L 537.816291 590.641631 L 538.20312 590.41472 L 538.589948 598.265769 L 538.976776 600.607009 L 539.363605 600.070794 L 539.750433 602.350485 L 540.137262 605.716822 L 540.52409 602.544964 L 540.910919 605.599229 L 541.297747 605.503322 L 541.684575 598.977421 L 542.071404 599.331916 L 542.458232 602.061818 L 542.845061 602.141513 L 543.231889 587.689953 L 543.618718 587.927103 L 544.005546 591.295501 L 544.392374 597.130743 L 544.779203 597.269506 L 545.166031 595.814601 L 545.55286 593.716822 L 545.939688 601.594766 L 546.713345 593.061562 L 547.487002 601.354673 L 547.87383 599.175252 L 548.260659 598.544698 L 548.647487 604.493655 L 549.034315 600.718665 L 549.421144 605.684639 L 549.807972 599.711862 L 550.194801 597.991804 L 550.581629 600.134579 L 550.968458 604.992948 L 551.355286 600.892901 L 551.742114 604.757813 L 552.128943 604.197518 L 552.515771 597.175717 L 552.9026 587.475432 L 553.289428 597.151402 L 553.676256 591.747515 L 554.063085 581.884817 L 554.449913 590.90693 L 554.836742 591.723035 L 555.22357 593.114953 L 555.610399 590.509244 L 555.997227 597.594249 L 556.384055 597.393742 L 556.770884 593.181851 L 557.157712 600.751443 L 557.544541 598.539832 L 558.318198 601.473192 L 558.705026 600.62438 L 559.091854 605.442029 L 559.478683 604.79051 L 559.865511 600.287291 L 560.25234 604.260318 L 560.639168 599.874167 L 561.025997 605.187336 L 561.412825 603.204159 L 561.799653 597.488347 L 562.186482 584.693179 L 562.57331 587.035514 L 563.346967 567.628037 L 563.733795 550.676636 L 564.120624 590.20326 L 564.507452 598.245561 L 564.894281 587.02757 L 565.281109 581.344293 L 565.667938 595.918574 L 566.054766 597.332169 L 566.441594 602.207953 L 566.828423 603.787913 L 567.215251 601.36502 L 567.60208 601.407398 L 567.988908 605.739924 L 568.375737 605.880977 L 569.149393 605.741977 L 569.536222 598.351494 L 569.92305 596.896792 L 570.309879 603.083911 L 570.696707 595.75115 L 571.083536 597.103663 L 571.470364 597.184696 L 571.857192 587.452804 L 572.244021 585.58928 L 572.630849 568.45514 L 573.017678 591.032243 L 573.404506 595.677552 L 573.791334 589.829884 L 574.178163 599.478077 L 574.564991 603.860685 L 574.95182 604.359843 L 575.338648 600.520325 L 575.725477 598.836112 L 576.112305 602.570405 L 576.499133 603.545047 L 576.885962 601.893084 L 577.27279 603.9902 L 577.659619 607.72946 L 578.820104 601.314006 L 579.206932 602.882243 L 579.593761 602.440467 L 579.980589 600.312922 L 580.367418 596.523364 L 580.754246 600.537269 L 581.141075 589.112126 L 581.527903 588.900863 L 582.30156 559.059318 L 582.688388 550.704848 L 583.075217 577.063441 L 583.462045 584.90525 L 583.848873 583.92158 L 584.235702 597.165297 L 584.62253 593.017244 L 585.009359 599.644375 L 585.396187 597.856613 L 585.783016 596.960445 L 586.169844 595.603738 L 586.556672 597.771788 L 586.943501 588.360944 L 587.330329 601.864265 L 587.717158 604.419315 L 588.103986 598.173942 L 588.490815 603.084638 L 588.877643 602.515075 L 589.264471 598.070038 L 589.6513 588.151771 L 590.038128 596.181416 L 590.424957 589.082027 L 590.811785 593.074224 L 591.198614 579.308508 L 591.585442 545.37757 L 591.97227 567.779166 L 592.359099 581.624207 L 592.745927 590.842991 L 593.132756 582.961682 L 593.519584 584.220653 L 593.906412 570.071556 L 594.680069 597.383194 L 595.066898 599.408411 L 595.453726 600.274398 L 595.840555 599.541808 L 596.227383 594.082031 L 596.614211 603.315173 L 597.00104 602.019711 L 597.387868 597.09756 L 597.774697 604.039305 L 598.161525 602.995769 L 598.548354 597.766011 L 598.935182 598.784299 L 599.32201 594.03725 L 600.095667 568.272897 L 600.482496 566.828972 L 600.869324 573.437871 L 601.256153 586.092483 L 601.642981 582.70401 L 602.029809 584.180289 L 602.416638 593.591835 L 602.803466 589.780685 L 603.190295 592.526168 L 603.577123 592.214843 L 604.35078 591.016493 L 604.737608 597.740187 L 605.124437 595.292577 L 605.511265 601.039053 L 605.898094 601.609346 L 606.284922 606.88401 L 606.67175 604.747342 L 607.058579 606.044397 L 607.832236 591.703448 L 608.219064 596.321495 L 608.605893 561.989572 L 608.992721 578.257441 L 609.379549 543.286491 L 609.766378 528.613409 L 610.153206 491.918341 L 610.540035 570.760748 L 610.926863 558.747609 L 611.313692 580.832243 L 611.70052 565.309141 L 612.087348 562.338823 L 612.474177 581.220941 L 612.861005 586.625142 L 613.247834 594.23985 L 613.634662 594.397791 L 614.02149 588.925801 L 614.795147 599.791343 L 615.568804 595.581308 L 615.955633 596.404517 L 616.342461 591.665203 L 616.729289 596.321341 L 617.116118 597.221495 L 617.502946 598.563529 L 617.889775 583.914306 L 618.276603 579.064338 L 618.663432 544.032162 L 619.05026 593.110971 L 619.437088 583.029907 L 619.823917 581.334641 L 620.210745 580.582259 L 620.597574 578.849108 L 620.984402 583.338318 L 621.758059 600.867846 L 622.144887 602.357962 L 622.531716 598.370553 L 622.918544 585.9866 L 623.305373 588.546877 L 623.692201 589.542487 L 624.079029 601.219127 L 624.465858 604.795491 L 624.852686 601.610467 L 625.239515 602.133429 L 625.626343 600.518692 L 626.013172 595.258054 L 626.4 595.098505 L 626.786828 595.069839 L 627.173657 592.423868 L 627.560485 586.326603 L 627.947314 589.050443 L 628.334142 582.908411 L 628.720971 580.689107 L 629.494627 586.943106 L 629.881456 583.456016 L 630.268284 594.445794 L 630.655113 593.094631 L 631.041941 601.589319 L 631.428769 600.021184 L 632.202426 592.803779 L 632.589255 597.141072 L 632.976083 598.857009 L 633.362912 604.18589 L 633.74974 601.215654 L 634.136568 602.279207 L 634.523397 600.592245 L 634.910225 599.707264 L 635.297054 600.826848 L 635.683882 601.068458 L 636.070711 599.997196 L 636.457539 590.090888 L 636.844367 590.695794 L 637.231196 579.544945 L 637.618024 581.676168 L 638.391681 596.790421 L 638.77851 591.66961 L 639.165338 588.638233 L 639.552166 588.91596 L 639.938995 600.144393 L 640.325823 603.398876 L 640.712652 602.288986 L 641.09948 603.28904 L 641.486308 601.336077 L 641.873137 600.771804 L 642.259965 601.792796 L 642.646794 595.48413 L 643.420451 602.708899 L 643.807279 601.401068 L 644.194107 595.642409 L 644.580936 585.333035 L 645.354593 588.60341 L 645.741421 589.164297 L 646.12825 594.481054 L 646.515078 577.09568 L 646.901906 582.71215 L 647.288735 578.367375 L 647.675563 550.909617 L 648.44922 569.179652 L 648.836049 558.083061 L 649.609705 593.765888 L 649.996534 586.143925 L 650.383362 591.487198 L 650.770191 591.534257 L 651.157019 595.252948 L 651.543847 592.383135 L 651.930676 584.420756 L 652.317504 598.18948 L 652.704333 587.754393 L 653.091161 592.998251 L 653.47799 602.1517 L 653.864818 602.828717 L 654.251646 602.846625 L 654.638475 597.80448 L 655.412132 569.420518 L 655.79896 569.756922 L 656.185789 590.965524 L 656.572617 532.13972 L 656.959445 200.271028 L 657.346274 550.676636 L 657.733102 573.390654 L 658.119931 576.04031 L 658.506759 590.384008 L 658.893588 576.351367 L 659.280416 588.790654 L 659.667244 594.12737 L 660.054073 602.125448 L 660.440901 588.697052 L 660.82773 570.545144 L 661.214558 600.170368 L 661.601386 598.261296 L 661.988215 598.685811 L 662.375043 597.450296 L 662.761872 594.193458 L 663.1487 574.246509 L 663.535529 587.704319 L 663.922357 582.328819 L 664.309185 580.618047 L 665.082842 547.320561 L 665.856499 556.998571 L 666.243328 567.54475 L 666.630156 548.092749 L 667.016984 506.882573 L 667.403813 577.350779 L 667.790641 553.593575 L 668.17747 550.146729 L 668.564298 586.937617 L 668.951127 591.913245 L 669.337955 595.258054 L 669.724783 590.667757 L 670.111612 590.450467 L 670.49844 583.13271 L 670.885269 584.645492 L 671.272097 597.017118 L 671.658925 596.164591 L 672.045754 591.954928 L 672.432582 595.335505 L 672.819411 587.534579 L 673.206239 569.647381 L 673.593068 574.348999 L 673.979896 575.662836 L 674.366724 557.327103 L 674.753553 556.990654 L 675.140381 552.324007 L 675.52721 577.246542 L 675.914038 587.63271 L 676.300867 565.797401 L 676.687695 575.845687 L 677.074523 574.88972 L 677.461352 581.875165 L 677.84818 565.266059 L 678.235009 561.850123 L 678.621837 591.539772 L 679.008666 593.936352 L 679.395494 601.885234 L 679.782322 600.607009 L 680.169151 599.915672 L 680.555979 601.068458 L 680.942808 600.751836 L 681.329636 601.582237 L 681.716464 591.18596 L 682.103293 587.386057 L 682.490121 591.947083 L 682.87695 589.238826 L 683.263778 593.280309 L 684.424263 566.562617 L 684.811092 573.918925 L 685.19792 568.853206 L 685.584749 592.021835 L 685.971577 594.027401 L 686.358406 592.803779 L 686.745234 583.413084 L 687.132062 590.45457 L 687.518891 595.175447 L 687.905719 588.523635 L 688.292548 590.587276 L 688.679376 565.286916 L 689.066205 588.1565 L 689.453033 595.462419 L 689.839861 605.203989 L 690.22669 600.415319 L 690.613518 599.959567 L 691.000347 604.140072 L 691.387175 591.507187 L 691.774003 597.265027 L 692.160832 595.693458 L 692.54766 592.941481 L 692.934489 583.496737 L 693.321317 588.120782 L 693.708146 586.509043 L 694.094974 567.114236 L 694.481802 592.75514 L 694.868631 569.530841 L 695.255459 588.607647 L 695.642288 599.034579 L 696.029116 597.363435 L 696.415945 599.90053 L 696.802773 591.767587 L 697.189601 589.142416 L 697.57643 601.802287 L 697.963258 602.771623 L 698.350087 601.859133 L 698.736915 601.951583 L 699.123744 600.938017 L 699.510572 595.850939 L 699.8974 588.128529 L 700.284229 598.98785 L 700.671057 599.304099 L 701.057886 597.347664 L 701.444714 586.299285 L 701.831542 552.189635 L 702.605199 589.767056 L 702.992028 586.185981 L 703.378856 590.246774 L 703.765685 569.792523 L 704.152513 585.104398 L 704.92617 593.852939 L 705.312998 596.41317 L 705.699827 597.616677 L 706.086655 599.444644 L 706.473484 603.253037 L 706.860312 604.248095 L 708.020797 596.748173 L 708.407626 602.786745 L 708.794454 599.060932 L 709.181282 592.376444 L 709.568111 599.053271 L 709.954939 598.792863 L 710.341768 597.320901 L 710.728596 580.332774 L 711.115425 557.273481 L 711.502253 560.238711 L 711.889081 566.213859 L 712.27591 550.520853 L 712.662738 588.740556 L 713.049567 505.993015 L 713.436395 574.569764 L 713.823224 595.135259 L 714.210052 585.597196 L 714.59688 590.059654 L 714.983709 585.853555 L 715.370537 592.048598 L 715.757366 596.071963 L 716.144194 601.441311 L 716.531023 592.081676 L 716.917851 593.948492 L 717.304679 598.534886 L 717.691508 596.737468 L 718.078336 598.477365 L 718.465165 583.636109 L 718.851993 589.443224 L 719.238821 591.247577 L 719.62565 586.278505 L 720.012478 583.698556 L 720.399307 491.366355 L 720.786135 562.624443 L 721.172964 500.06729 L 721.559792 532.453312 L 721.94662 543.431776 L 722.333449 545.940638 L 722.720277 576.980062 L 723.107106 578.853505 L 723.493934 544.400623 L 723.880763 588.114444 L 724.267591 584.176995 L 724.654419 593.45166 L 725.041248 592.630841 L 725.428076 600.984033 L 725.814905 595.666229 L 726.201733 586.674898 L 726.588562 589.722897 L 726.97539 597.609346 L 727.362218 601.282372 L 727.749047 596.77465 L 728.135875 599.941859 L 728.522704 596.050156 L 728.909532 612.391452 L 729.683189 501.302103 L 730.070017 373.094159 L 730.456846 553.331521 L 730.843674 532.180935 L 731.230503 583.923364 L 731.617331 578.056924 L 732.004159 582.506542 L 732.390988 578.306776 L 732.777816 594.433475 L 733.164645 594.611895 L 733.551473 594.007083 L 733.938302 587.565981 L 734.32513 598.475756 L 734.711958 600.75 L 735.098787 598.361957 L 735.485615 599.914047 L 736.259272 586.496028 L 736.646101 596.854357 L 737.032929 595.916971 L 737.419757 562.903738 L 737.806586 584.340867 L 738.193414 580.223 L 738.580243 558.45514 L 738.967071 462.244141 L 739.353899 568.935362 L 739.740728 451.864231 L 740.127556 511.061215 L 740.514385 550.64965 L 740.901213 532.679439 L 741.288042 531.151402 L 741.67487 574.144726 L 742.061698 569.491589 L 742.448527 567.894393 L 742.835355 585.896221 L 743.222184 586.854385 L 743.609012 591.646839 L 744.382669 588.01003 L 744.769497 587.272897 L 745.156326 595.767854 L 745.929983 593.445397 L 746.316811 594.829296 L 746.70364 589.23715 L 747.090468 578.732998 L 747.477296 584.792688 L 747.864125 585.111174 L 748.250953 586.96215 L 748.637782 550.068224 L 749.411438 511.323069 L 749.798267 540.300935 L 750.185095 520.64503 L 750.571924 592.01552 L 750.958752 598.352379 L 751.345581 583.226022 L 751.732409 595.341221 L 752.119237 588.933254 L 752.506066 585.809234 L 752.892894 594.146145 L 753.666551 585.829038 L 754.05338 599.953257 L 754.827036 591.194142 L 755.213865 589.369626 L 755.600693 596.110125 L 755.987522 581.290797 L 756.761179 590.304602 L 757.148007 586.640187 L 757.921664 582.814953 L 758.308492 571.576051 L 758.695321 574.120694 L 759.082149 589.261185 L 759.468977 594.570263 L 759.855806 583.340277 L 760.242634 595.085796 L 760.629463 590.476111 L 761.016291 594.33237 L 761.40312 586.50075 L 761.789948 602.292688 L 762.176776 602.320861 L 762.563605 603.847584 L 762.950433 599.002752 L 763.337262 603.190489 L 763.72409 600.594393 L 764.110919 593.666208 L 764.497747 591.06028 L 764.884575 590.729152 L 765.271404 598.101722 L 765.658232 583.007899 L 766.045061 589.840654 L 766.431889 593.833546 L 766.818718 561.399949 L 767.205546 547.706993 L 767.592374 582.996028 L 767.979203 535.59317 L 768.366031 570.616822 L 768.75286 577.695574 L 769.139688 589.089179 L 769.526516 597.103663 L 769.913345 588.864183 L 770.300173 594.435057 L 770.687002 593.790162 L 771.07383 601.72206 L 771.460659 597.90061 L 771.847487 587.620935 L 772.234315 591.995072 L 772.621144 601.369646 L 773.007972 601.0631 L 773.394801 596.842991 L 773.781629 596.071963 L 774.168458 599.288814 L 774.555286 597.593417 L 774.942114 597.594249 L 775.328943 588.157843 L 775.715771 590.267705 L 776.1026 588.413832 L 776.489428 573.194949 L 776.876256 562.448768 L 777.263085 564.933497 L 777.649913 584.017202 L 778.036742 583.334579 L 778.42357 583.057944 L 779.197227 593.746053 L 779.584055 588.649346 L 779.970884 599.039252 L 780.357712 593.741355 L 780.744541 574.710758 L 781.131369 567.415475 L 781.518198 592.380213 L 781.905026 566.730841 L 782.291854 590.243507 L 782.678683 594.118451 L 783.065511 589.803855 L 783.45234 593.857886 L 783.839168 584.340867 L 784.225997 592.77178 L 784.612825 572.974416 L 784.999653 575.374206 L 785.386482 520.650664 L 785.77331 524.897664 L 786.160139 484.73271 L 786.933795 556.682243 L 787.320624 568.702586 L 787.707452 574.799873 L 788.094281 576.660927 L 788.481109 544.84428 L 788.867938 543.284579 L 789.641594 585.01731 L 790.028423 584.104529 L 790.415251 595.461265 L 790.80208 591.535123 L 791.188908 591.798195 L 791.575737 599.06729 L 791.962565 598.275 L 792.349393 600.74769 L 792.736222 597.863502 L 793.12305 597.675335 L 793.509879 574.231963 L 793.896707 588.959388 L 794.283536 584.706102 L 794.670364 553.794887 L 795.057192 575.740622 L 795.444021 528.459813 L 795.830849 538.425545 L 796.217678 493.790764 L 796.604506 543.910345 L 796.991334 561.812754 L 797.378163 524.240187 L 797.764991 586.015685 L 798.15182 583.989 L 798.538648 568.182265 L 798.925477 572.003144 L 799.312305 578.26472 L 799.699133 593.162858 L 800.085962 582.52684 L 800.47279 595.096427 L 801.246447 601.283651 L 801.633276 595.915331 L 802.406932 601.691415 L 802.793761 600.700815 L 803.180589 598.530181 L 803.567418 586.73271 L 803.954246 587.895701 L 804.341075 586.689801 L 804.727903 568.861682 L 805.114731 569.18183 L 805.50156 529.51472 L 805.888388 509.556714 L 806.275217 573.0753 L 806.662045 579.49818 L 807.048873 576.518004 L 808.209359 534.394766 L 808.596187 584.541589 L 809.369844 597.270866 L 809.756672 589.305903 L 810.143501 575.424079 L 810.530329 589.758879 L 810.917158 581.662816 L 811.303986 592.015144 L 811.690815 590.192807 L 812.077643 584.675603 L 812.464471 575.135459 L 812.8513 571.816942 L 813.238128 543.138833 L 813.624957 553.225584 L 814.011785 518.627103 L 814.398614 529.465654 L 814.785442 569.740187 L 815.17227 581.018692 L 815.559099 598.40257 L 815.945927 577.54704 L 816.332756 585.442084 L 816.719584 543.452804 L 817.106412 584.464695 L 817.493241 593.498869 L 817.880069 596.055607 L 818.266898 594.326423 L 818.653726 595.996921 L 819.040555 590.059654 L 819.427383 593.418298 L 819.814211 594.718946 L 820.20104 597.462294 L 820.587868 588.985425 L 820.974697 600.946252 L 821.361525 598.037096 L 821.748354 590.597664 L 822.135182 576.936449 L 822.52201 573.624533 L 822.908839 567.347664 L 823.295667 540.210981 L 823.682496 571.530719 L 824.069324 563.151648 L 824.456153 589.722534 L 824.842981 585.937723 L 825.229809 585.714953 L 825.616638 584.44712 L 826.003466 599.175746 L 826.390295 595.352654 L 826.777123 590.409931 L 827.163951 598.228325 L 827.55078 602.107326 L 827.937608 601.840017 L 828.324437 603.093638 L 828.711265 605.325124 L 829.098094 599.104366 L 829.484922 598.944449 L 829.87175 593.226168 L 830.258579 596.208612 L 830.645407 594.1488 L 831.032236 588.507822 L 831.419064 587.534579 L 832.192721 566.670453 L 832.579549 579.580817 L 832.966378 508.048598 L 833.353206 573.142056 L 833.740035 568.202804 L 834.126863 592.598562 L 834.513692 596.963902 L 834.90052 595.54701 L 835.287348 600.144393 L 835.674177 595.6313 L 836.061005 600.905078 L 836.447834 600.925984 L 837.22149 586.528738 L 837.608319 591.620391 L 837.995147 600.755741 L 838.381976 603.314247 L 838.768804 601.931776 L 839.155633 598.370798 L 839.542461 588.86763 L 839.929289 597.965888 L 840.316118 595.42125 L 840.702946 580.420093 L 841.476603 490.593575 L 841.863432 469.749533 L 842.25026 543.368692 L 842.637088 571.478704 L 843.410745 556.2 L 843.797574 590.296781 L 844.184402 556.957009 L 844.571231 569.836682 L 844.958059 588.17243 L 845.344887 583.253055 L 845.731716 590.20326 L 846.118544 582.23868 L 846.892201 600.99566 L 847.279029 601.007126 L 847.665858 598.828972 L 848.052686 593.560846 L 848.439515 593.162858 L 848.826343 600.278696 L 849.213172 601.441498 L 849.6 594.992523 L 850.373657 561.333645 L 850.760485 563.696334 L 851.147314 539.385047 L 851.534142 429.329822 L 851.920971 527.370561 L 852.307799 564.119051 L 852.694627 572.849086 L 853.081456 567.721071 L 853.468284 590.397128 L 853.855113 568.015463 L 854.241941 575.135459 L 854.628769 598.826692 L 855.015598 592.253681 L 855.402426 593.146781 L 855.789255 596.407768 L 856.176083 593.684801 L 856.562912 598.062617 L 856.94974 604.724255 L 857.723397 596.848248 L 858.110225 584.948543 L 858.497054 599.390295 L 858.883882 590.610174 L 859.270711 557.261215 L 859.657539 545.534579 L 860.044367 549.939564 L 860.431196 567.706985 L 861.204853 578.847418 L 861.591681 574.409079 L 861.97851 579.973515 L 862.365338 558.271963 L 862.752166 551.532827 L 863.138995 579.177964 L 863.525823 588.70182 L 863.912652 588.500394 L 864.29948 570.905862 L 864.686308 587.537232 L 865.459965 586.135148 L 865.846794 599.341188 L 866.233622 594.42158 L 867.007279 598.854953 L 867.394107 599.471819 L 867.780936 593.821023 L 868.167764 585.970014 L 868.554593 565.460305 L 868.941421 579.38972 L 869.32825 567.894393 L 869.715078 565.160748 L 870.488735 579.395983 L 870.875563 516.566355 L 871.262392 550.305769 L 871.64922 540.497196 L 872.036049 569.825737 L 872.809705 576.631153 L 873.196534 588.653526 L 873.583362 581.352336 L 873.970191 583.591504 L 874.357019 596.651827 L 874.743847 596.480841 L 875.130676 603.207806 L 875.517504 600.187686 L 876.291161 590.268055 L 876.67799 589.555348 L 877.064818 590.382767 L 877.451646 573.452804 L 877.838475 531.963084 L 878.225303 579.641291 L 878.612132 564.751869 L 878.99896 359.552103 L 879.385789 358.742523 L 879.772617 363.011215 L 880.159445 560.729763 L 880.546274 536.728403 L 881.319931 581.315336 L 881.706759 588.118267 L 882.093588 578.439887 L 882.480416 595.636854 L 882.867244 596.87027 L 883.254073 592.526168 L 883.640901 594.166944 L 884.02773 593.542253 L 884.414558 593.232432 L 884.801386 597.48078 L 885.188215 589.104673 L 885.575043 597.763874 L 885.961872 589.0435 L 886.3487 593.654957 L 886.735529 580.293556 L 887.122357 578.345964 L 887.896014 593.381824 L 888.282842 580.31215 L 888.669671 584.614088 L 889.056499 524.097451 L 889.443328 571.057131 L 889.830156 588.644213 L 890.216984 595.700198 L 890.603813 596.396965 L 890.990641 594.1488 L 891.37747 583.796408 L 891.764298 598.203628 L 892.151127 604.277953 L 892.537955 593.42243 L 892.924783 590.043748 L 893.311612 599.931287 L 893.69844 574.276903 L 894.472097 593.894685 L 894.858925 589.0435 L 895.245754 587.402842 L 895.632582 592.805607 L 896.406239 557.146729 L 896.793068 576.604313 L 897.179896 541.696573 L 897.566724 549.656075 L 897.953553 589.27074 L 898.72721 574.973832 L 899.114038 572.164836 L 899.500867 563.517757 L 899.887695 585.017812 L 900.274523 583.032827 L 900.661352 577.473391 L 901.04818 597.550693 L 901.435009 597.398862 L 901.821837 600.148722 L 902.208666 599.538492 L 902.595494 586.749533 L 902.982322 579.074668 L 903.369151 582.257673 L 903.755979 597.199092 L 904.142808 598.178889 L 904.529636 588.554121 L 905.690121 584.517847 M 905.690121 590.871028 L 906.07695 563.521963 L 906.463778 592.274433 L 906.850607 597.60145 L 907.237435 584.267577 L 907.624263 560.73453 L 908.011092 565.685748 L 908.39792 509.553271 L 908.784749 554.544775 L 909.171577 560.842991 L 909.558406 532.385047 L 909.945234 566.730841 L 910.332062 587.958091 L 910.718891 594.570263 L 911.105719 592.558879 L 911.492548 597.172619 L 911.879376 586.117455 L 912.653033 578.206797 L 913.039861 586.980273 L 913.42669 586.328972 L 913.813518 573.894393 L 914.200347 582.983178 L 914.587175 588.71215 L 914.974003 585.085575 L 915.360832 574.569042 L 915.74766 554.630293 L 916.134489 572.147664 L 916.521317 111.6 L 916.908146 434.521835 L 917.294974 532.369346 L 917.681802 580.335981 L 918.068631 559.201529 L 918.455459 579.213084 L 918.842288 572.205289 L 919.229116 585.087081 L 919.615945 580.232291 L 920.002773 573.83231 L 920.389601 590.341121 L 920.77643 584.081007 L 921.163258 582.300935 L 921.550087 577.692948 L 921.936915 590.94906 L 922.323744 573.808528 L 922.710572 592.670837 L 923.0974 583.546899 L 923.484229 588.439422 L 923.871057 586.765664 L 924.257886 582.600438 L 924.644714 593.684801 L 925.418371 580.810034 L 925.805199 587.581682 L 926.578856 549.06729 L 926.965685 567.485694 L 927.352513 465.233357 L 927.739341 567.59348 L 928.12617 531.550935 L 928.512998 524.005526 L 928.899827 562.131953 L 929.286655 560.286032 L 929.673484 578.39949 L 930.060312 586.471495 L 930.44714 578.085981 L 931.220797 596.986966 L 931.607626 580.262192 L 931.994454 596.291152 L 932.381282 596.369956 L 932.768111 595.95549 L 933.154939 595.175447 L 933.541768 583.948055 L 933.928596 577.023257 L 934.315425 581.724557 L 934.702253 544.702159 L 935.089081 593.828037 L 935.47591 560.842991 L 936.249567 516.625234 L 936.636395 539.811589 L 937.023224 576.620249 L 937.410052 581.469772 L 937.79688 584.276636 L 938.183709 590.196079 L 938.570537 582.710835 L 938.957366 585.819423 L 939.344194 585.633477 L 939.731023 573.284275 L 940.504679 585.765421 L 940.891508 582.590051 L 941.278336 593.771569 L 941.665165 595.424299 L 942.438821 589.581663 L 942.82565 592.486764 L 943.212478 581.074031 L 943.599307 563.44604 L 943.986135 562.594249 L 944.372964 555.803683 L 944.759792 474.382171 L 945.14662 553.335981 L 945.533449 554.812404 L 945.920277 567.466822 L 946.307106 545.534579 L 946.693934 576.940152 L 947.080763 550.428855 L 947.467591 554.937823 L 947.854419 553.404673 L 948.241248 579.126316 L 948.628076 575.77775 L 949.014905 596.104673 L 949.401733 600.482203 L 949.788562 600.452552 L 950.17539 596.1919 L 950.562218 598.873794 L 950.949047 593.52366 L 951.335875 575.279547 L 951.722704 585.827956 L 952.109532 564.677274 L 952.49636 578.022897 L 952.883189 568.399065 L 953.270017 600.22568 L 953.656846 593.274656 L 954.043674 583.117028 L 954.430503 585.239171 L 954.817331 586.051402 L 955.204159 567.095327 L 955.590988 572.385631 L 955.977816 588.061682 L 956.364645 578.401402 L 956.751473 597.102771 L 957.138302 604.624922 L 957.52513 603.147897 L 957.911958 597.275985 L 958.298787 605.175561 L 958.685615 605.144693 L 959.846101 592.24486 L 960.232929 602.471191 L 960.619757 600.180915 L 961.006586 595.118283 L 961.393414 594.326423 L 961.780243 595.54734 L 962.167071 581.238119 L 962.553899 595.084882 L 962.940728 590.843321 L 963.327556 567.634558 L 963.714385 565.009777 L 964.101213 555.509291 L 964.488042 555.863551 L 964.87487 563.315888 L 965.261698 565.609346 L 965.648527 586.258879 L 966.035355 596.305136 L 966.422184 601.641389 L 966.809012 592.491841 L 967.195841 602.133429 L 967.582669 601.215094 L 967.969497 595.497196 L 968.356326 596.626815 L 968.743154 595.884112 L 969.129983 600.602804 L 969.516811 597.373487 L 969.90364 597.289836 L 970.290468 598.385277 L 970.677296 592.957375 L 971.064125 580.488785 L 971.450953 582.568161 L 971.837782 578.772073 L 972.22461 565.637383 L 972.611438 560.178233 L 972.998267 500.696334 L 973.385095 491.719626 L 973.771924 554.303271 L 974.158752 590.197117 L 974.545581 580.795027 L 974.932409 558.903463 L 975.319237 566.82669 L 975.706066 588.209056 L 976.092894 596.104673 L 976.479723 595.892365 L 976.866551 593.441423 L 977.25338 592.175722 L 977.640208 578.559112 L 978.027036 570.506745 L 978.413865 597.204446 L 978.800693 598.899065 L 979.187522 604.929773 L 979.57435 601.923255 L 979.961179 601.389052 L 980.348007 583.216822 L 980.734835 489.894393 L 981.121664 557.37757 L 981.508492 512.680374 L 981.895321 576.71838 L 982.282149 572.180235 L 982.668977 559.944319 L 983.055806 565.839707 L 983.442634 522.796262 L 983.829463 575.940328 L 984.216291 591.972402 L 984.60312 551.868479 L 984.989948 592.59769 L 985.376776 597.032243 L 985.763605 569.543925 L 986.150433 584.173598 L 986.537262 574.64264 L 986.92409 578.713133 L 987.310919 596.544275 L 987.697747 600.411117 L 988.084575 595.73271 L 988.471404 596.990187 L 989.245061 590.94906 L 989.631889 573.83231 L 990.018718 546.166978 L 990.405546 468.740187 L 990.792374 537.470784 L 991.179203 561.806457 L 991.566031 489.473832 L 991.95286 551.069159 L 992.339688 535.266168 L 992.726516 576.638282 L 993.113345 578.463721 L 993.500173 588.491355 L 994.27383 563.277696 L 994.660659 601.54631 L 995.047487 595.164014 L 995.434315 595.464717 L 995.821144 595.221178 L 996.207972 590.38865 L 996.594801 587.313785 L 996.981629 590.395744 L 997.368458 587.857378 L 997.755286 589.435864 L 998.142114 589.98785 L 998.528943 594.973732 L 999.3026 559.371028 L 999.689428 578.992031 L 1000.076256 550.362617 L 1000.463085 554.328369 L 1000.849913 508.735514 L 1001.236742 565.203183 L 1001.62357 533.268224 L 1002.010399 524.107924 L 1002.784055 565.803505 L 1003.170884 563.833399 L 1003.557712 589.954312 L 1003.944541 582.571963 L 1004.331369 597.045455 L 1004.718198 598.010047 L 1005.105026 595.82571 L 1005.491854 589.015237 L 1005.878683 590.842991 L 1006.265511 601.136191 L 1006.65234 599.555607 L 1007.039168 602.038703 L 1007.425997 592.598562 L 1007.812825 595.280908 L 1008.199653 592.794849 L 1008.586482 565.075878 L 1008.97331 575.435624 L 1009.360139 570.276351 L 1009.746967 560.604294 L 1010.133795 494.587356 L 1010.520624 545.471495 L 1010.907452 465.410748 L 1011.294281 557.545794 L 1011.681109 562.392425 L 1012.067938 589.187707 L 1012.454766 596.758879 L 1012.841594 589.406425 L 1013.228423 594.861682 L 1013.615251 587.250796 L 1014.00208 600.490674 L 1014.388908 600.476636 L 1015.162565 593.464188 L 1015.549393 583.253055 L 1015.936222 583.069626 L 1016.709879 600.231421 L 1017.096707 584.403592 L 1017.483536 597.540541 L 1017.870364 590.622745 L 1018.257192 538.033022 L 1018.644021 569.714019 L 1019.030849 583.170824 L 1019.417678 582.786916 L 1019.804506 581.714405 L 1020.191334 589.63307 L 1020.578163 581.064712 L 1020.964991 590.558901 L 1021.35182 594.391598 L 1021.738648 594.574486 L 1022.512305 600.140063 L 1022.899133 599.76079 L 1023.285962 596.368139 L 1023.67279 590.161648 L 1024.059619 600.670093 L 1024.446447 592.438916 L 1024.833276 593.846272 L 1025.220104 589.707996 L 1025.606932 603.487364 L 1025.993761 600.64653 L 1026.380589 587.015696 L 1026.767418 596.87027 L 1027.154246 596.631574 L 1027.541075 596.937135 L 1028.314731 585.862089 L 1028.70156 594.146928 L 1029.088388 594.686355 L 1029.475217 584.983178 L 1029.862045 589.380433 L 1030.248873 588.179439 L 1030.635702 585.211661 L 1031.02253 593.392564 L 1031.409359 591.304157 L 1031.796187 594.31112 L 1032.183016 593.924212 L 1032.569844 592.001763 L 1032.956672 595.016313 L 1033.343501 586.675935 L 1033.730329 586.725 L 1034.117158 579.621028 L 1034.503986 567.782243 L 1034.890815 599.123364 L 1035.277643 587.825047 L 1035.664471 601.0631 L 1036.0513 593.82722 L 1036.438128 590.20026 L 1036.824957 584.519286 L 1037.211785 588.965224 L 1037.598614 579.49486 L 1037.985442 576.286332 L 1038.37227 566.881461 L 1038.759099 565.311718 L 1039.145927 563.095093 L 1039.532756 590.429439 L 1039.919584 580.612197 L 1040.306412 589.165061 L 1040.693241 592.189104 L 1041.080069 583.859133 L 1041.466898 600.300312 L 1042.240555 595.960992 L 1042.627383 594.800267 L 1043.014211 587.441753 L 1043.40104 589.882451 L 1043.787868 589.275111 L 1044.561525 567.417757 L 1044.948354 584.001869 L 1045.335182 562.57752 L 1045.72201 587.661735 L 1046.108839 540.484615 L 1046.495667 542.334661 L 1046.882496 567.169007 L 1047.269324 571.992325 L 1047.656153 570.902446 L 1048.042981 564.537617 L 1048.816638 581.141596 L 1049.203466 578.441121 L 1049.590295 593.405903 L 1049.977123 593.023364 L 1050.75078 596.47274 L 1051.137608 596.186601 L 1051.524437 600.198131 L 1051.911265 597.613897 L 1052.298094 593.35912 L 1052.684922 596.467237 L 1053.07175 596.098559 L 1053.458579 596.608905 L 1053.845407 597.971083 L 1054.232236 596.610356 L 1054.619064 593.591835 L 1055.005893 583.170824 L 1055.392721 589.909594 L 1055.779549 546.853458 L 1056.166378 465.803271 L 1056.553206 563.643698 L 1056.940035 555.611215 L 1057.326863 562.231919 L 1057.713692 573.011215 L 1058.10052 458.345327 L 1058.487348 579.043679 L 1058.874177 562.850899 L 1059.261005 589.300935 L 1059.647834 563.500072 L 1060.034662 570.126625 L 1060.42149 592.256011 L 1060.808319 594.940572 L 1061.195147 591.786128 L 1061.581976 593.598032 L 1061.968804 596.448428 L 1062.355633 593.938908 L 1062.742461 577.951084 L 1063.129289 547.061059 L 1063.516118 570.545144 L 1063.902946 545.656397 L 1064.289775 536.585047 L 1064.676603 498.321379 L 1065.063432 561.061682 L 1065.45026 575.320176 L 1065.837088 578.874533 L 1066.223917 589.75161 L 1066.610745 573.724166 L 1066.997574 589.104673 L 1067.384402 594.301602 L 1067.771231 579.188293 L 1068.158059 551.707901 L 1068.544887 584.638965 L 1068.931716 573.391472 L 1069.318544 596.159088 L 1069.705373 595.262884 L 1070.092201 596.963902 L 1070.479029 600.047352 L 1071.252686 594.45781 L 1071.639515 589.759696 L 1072.026343 599.039841 L 1072.413172 585.353271 L 1072.8 591.48785 L 1073.186828 586.493539 L 1073.573657 530.302966 L 1073.960485 555.378329 L 1074.347314 571.702804 L 1074.734142 466.773257 L 1075.120971 288.628037 L 1075.894627 556.173316 L 1076.281456 569.835344 L 1076.668284 565.553271 L 1077.055113 581.46012 L 1077.441941 551.308472 L 1077.828769 586.63356 L 1078.215598 587.144745 L 1078.602426 584.483602 L 1078.989255 585.648761 L 1079.376083 588.035563 L 1080.14974 594.975206 L 1080.923397 582 L 1081.697054 559.845327 L 1082.083882 575.755104 L 1082.470711 564.303898 L 1082.857539 580.06333 L 1083.244367 555.291589 L 1083.631196 581.011555 L 1084.018024 579.933597 L 1084.404853 591.179439 L 1084.791681 552.953271 L 1085.17851 562.364019 L 1085.565338 567.127929 L 1086.338995 581.214953 L 1086.725823 578.806287 L 1087.112652 560.471126 L 1087.49948 585.34486 L 1087.886308 597.855931 L 1088.273137 591.113469 L 1088.659965 573.267557 L 1089.046794 547.280632 L 1089.433622 577.629372 L 1089.820451 569.059813 L 1090.207279 573.007039 L 1090.594107 588.614019 L 1090.980936 580.161231 L 1091.367764 579.054009 L 1092.141421 582.758879 L 1092.52825 574.27465 L 1092.915078 568.588785 L 1093.301906 550.966596 L 1093.688735 583.671323 L 1094.075563 545.092991 L 1094.462392 558.48785 L 1094.84922 566.071963 L 1095.622877 591.15503 L 1096.009705 579.765324 L 1096.396534 574.644112 L 1096.783362 602.613191 L 1097.557019 595.229192 L 1097.943847 585.802357 L 1098.330676 580.655091 L 1098.717504 573.713832 L 1099.104333 595.352654 L 1099.491161 592.77178 L 1099.87799 583.705967 L 1100.264818 589.961088 L 1100.651646 591.740187 L 1101.425303 564.639105 L 1101.812132 513.585243 L 1102.19896 574.77757 L 1102.585789 585.090229 L 1102.972617 529.081308 L 1103.359445 556.923364 L 1103.746274 554.56875 L 1104.133102 586.126615 L 1104.519931 561.177166 L 1104.906759 563.69395 L 1105.293588 573.384112 L 1105.680416 548.701837 L 1106.067244 557.663551 L 1106.454073 558.401264 L 1106.840901 587.965839 L 1107.22773 596.531526 L 1107.614558 594.379459 L 1108.001386 585.67436 L 1108.388215 586.285139 L 1108.775043 597.026986 L 1109.161872 601.190897 L 1110.322357 571.708751 L 1111.096014 517.020561 L 1111.482842 573.640053 L 1111.869671 570.731903 L 1112.256499 578.321825 L 1112.643328 554.193183 L 1113.030156 444.011215 L 1113.416984 569.84486 L 1113.803813 578.724611 L 1114.190641 561.779008 L 1114.57747 587.744662 L 1114.964298 552.915421 L 1115.737955 591.151728 L 1116.124783 597.493557 L 1116.511612 601.492868 L 1116.89844 588.674407 L 1117.285269 597.821685 L 1117.672097 599.114019 L 1118.058925 588.861308 L 1118.445754 588.737638 L 1118.832582 591.317937 L 1119.219411 580.213021 L 1119.606239 584.517422 L 1119.993068 581.185514 L 1120.766724 500.263551 M 1121.540381 477.403738 L 1121.92721 542.517056 L 1122.314038 539.366355 L 1122.700867 564.753127 L 1123.087695 579.410023 L 1123.474523 574.32241 L 1123.861352 580.203041 L 1124.24818 596.208612 L 1124.635009 588.764989 L 1125.021837 591.398904 L 1125.408666 592.081308 L 1125.795494 573.084813 L 1126.182322 585.753127 L 1126.569151 584.117842 L 1126.955979 581.500364 L 1127.342808 587.068458 L 1127.729636 597.413648 L 1128.116464 599.89759 L 1128.503293 586.285139 L 1128.890121 580.9016 L 1129.27695 560.301945 L 1129.663778 551.575078 L 1130.050607 552.189635 L 1130.437435 380.012383 L 1130.824263 543.15 L 1131.211092 445.048598 L 1131.59792 521.629907 L 1131.984749 553.295837 L 1132.371577 567.087211 L 1132.758406 575.313515 L 1133.145234 581.083683 L 1133.532062 553.552446 L 1133.918891 579.410023 L 1134.692548 588.470008 L 1135.079376 587.841884 L 1135.466205 593.658362 L 1135.853033 590.541589 L 1136.239861 576.511215 L 1136.62669 549.048297 L 1137.013518 576.887383 L 1137.400347 579.734869 L 1137.787175 577.173444 L 1138.174003 582.38271 L 1138.560832 571.185128 L 1138.94766 485.883294 M 1139.721317 467.012065 L 1140.108146 484.261682 L 1140.494974 539.793925 L 1140.881802 559.059318 L 1141.268631 566.908846 L 1141.655459 562.865996 L 1142.042288 539.690343 L 1142.429116 589.546262 L 1142.815945 589.594053 L 1143.202773 571.415522 L 1143.589601 595.977606 L 1143.97643 598.931776 L 1144.363258 596.660748 L 1144.750087 595.86729 L 1145.136915 595.451096 L 1145.523744 585.9866 L 1145.910572 584.789982 L 1146.2974 582.986828 L 1146.684229 579.168925 L 1147.071057 597.521739 L 1147.457886 566.598364 L 1147.844714 515.918692 L 1148.231542 571.172328 L 1148.618371 537.880374 L 1149.005199 570.237383 L 1149.392028 549.99795 L 1149.778856 577.938785 L 1150.165685 582.983178 L 1150.552513 581.431163 L 1150.939341 598.787466 L 1151.32617 585.26477 L 1151.712998 587.982056 L 1152.099827 549.048297 L 1152.486655 589.072847 L 1152.873484 596.601869 L 1153.64714 594.614461 L 1154.033969 597.497442 L 1154.420797 587.814185 L 1154.807626 575.043101 L 1155.194454 578.087599 L 1155.581282 556.973832 L 1155.968111 589.267364 L 1156.354939 575.950964 L 1156.741768 549.824299 L 1157.515425 579.197232 L 1157.902253 519.039252 L 1158.289081 523.160748 L 1158.67591 581.882243 L 1159.449567 558.193458 L 1159.836395 575.551294 L 1160.223224 585.605607 L 1160.610052 587.66094 L 1160.99688 586.433807 L 1161.383709 566.662378 L 1161.770537 597.569087 L 1162.157366 586.026168 L 1162.544194 580.193062 L 1162.931023 587.125701 L 1163.317851 589.219371 L 1163.704679 596.334953 L 1164.091508 598.496512 L 1164.478336 592.462689 L 1164.865165 593.059772 L 1165.251993 598.612104 L 1165.638821 594.349109 L 1166.02565 569.393755 L 1166.412478 567.263551 L 1166.799307 561.760803 L 1167.186135 552.011215 L 1167.572964 566.802644 L 1167.959792 523.036793 L 1168.34662 451.263551 L 1168.733449 471.852336 L 1169.120277 585.733404 L 1169.507106 572.949883 L 1169.893934 583.814528 L 1170.280763 557.414184 L 1170.667591 579.853762 L 1171.054419 579.816081 L 1171.441248 559.060722 L 1171.828076 560.008879 L 1172.214905 588.064217 L 1172.601733 584.210397 L 1172.988562 582.338318 L 1173.37539 591.179113 L 1173.762218 595.615277 L 1174.149047 589.475389 L 1174.535875 589.306099 L 1174.922704 592.349533 L 1175.309532 571.377123 L 1175.69636 571.261926 L 1176.470017 580.961476 L 1176.856846 580.140928 L 1177.243674 511.605841 L 1178.017331 458.620848 L 1178.404159 564.051869 L 1178.790988 561.748814 L 1179.177816 558.520561 L 1179.564645 589.761395 L 1179.951473 584.749395 L 1180.338302 586.854385 L 1180.72513 591.585981 L 1181.111958 593.555381 L 1181.885615 574.841656 L 1182.272444 591.617279 L 1182.659272 578.353458 L 1183.046101 581.348953 L 1183.432929 585.909648 L 1183.819757 583.385047 L 1184.206586 591.117496 L 1184.593414 588.577865 L 1184.980243 592.689145 L 1185.367071 567.826255 L 1185.753899 586.334488 L 1186.140728 546.319626 L 1186.527556 520.64503 L 1186.914385 542.064953 L 1187.301213 513.306345 L 1187.688042 566.232638 L 1188.07487 584.737118 L 1188.461698 578.611682 L 1188.848527 579.274065 L 1189.235355 565.825018 L 1189.622184 581.859623 L 1190.009012 578.054439 L 1190.395841 578.570773 L 1190.782669 592.78785 L 1191.169497 590.898736 L 1191.556326 591.665888 L 1191.943154 578.233956 L 1192.329983 591.680607 L 1192.716811 594.731516 L 1193.10364 599.85332 L 1193.490468 597.196559 L 1193.877296 581.119921 L 1194.264125 577.634687 L 1194.650953 586.45514 L 1195.037782 588.201331 L 1195.42461 565.311718 L 1195.811438 417.179439 L 1196.585095 582.960416 L 1196.971924 547.991234 L 1198.132409 578.656415 L 1198.519237 570.249859 L 1198.906066 582.618838 L 1199.292894 585.273304 L 1199.679723 591.165421 L 1200.066551 591.557944 L 1200.45338 596.98814 L 1200.840208 599.086202 L 1201.613865 596.115576 L 1202.000693 595.286916 L 1202.387522 591.801041 L 1202.77435 581.792342 L 1203.161179 584.139545 L 1203.548007 570.455547 L 1203.934835 587.203738 L 1204.321664 559.92003 L 1204.708492 554.879168 L 1205.095321 558.452167 L 1205.482149 548.86426 L 1205.868977 500.557944 L 1206.255806 491.871028 L 1206.642634 499.609346 L 1207.416291 568.209984 L 1207.80312 575.562617 L 1208.189948 585.247704 L 1208.576776 566.296262 L 1208.963605 584.034091 L 1209.350433 587.673598 L 1209.737262 593.716822 L 1210.12409 549.238227 L 1210.510919 582.0296 L 1210.897747 587.951636 L 1211.284575 572.642724 L 1211.671404 575.874327 L 1212.058232 592.624002 L 1212.445061 589.059382 L 1212.831889 576.651314 L 1213.218718 585.502694 L 1213.605546 590.431213 L 1213.992374 556.28972 L 1214.379203 544.945794 L 1214.766031 568.283093 L 1215.539688 555.786366 L 1216.700173 592.630768 L 1217.087002 599.005682 L 1217.47383 594.515298 L 1217.860659 587.440374 L 1218.247487 575.902301 L 1218.634315 584.086818 L 1219.021144 584.983178 L 1219.407972 572.373364 L 1219.794801 591.672627 L 1220.181629 577.939167 L 1220.568458 572.643746 L 1220.955286 591.520722 L 1221.342114 572.851752 L 1221.728943 567.924766 L 1222.115771 533.946219 L 1222.5026 573.820294 L 1222.889428 529.318458 L 1223.276256 576.262493 L 1223.663085 579.042757 L 1224.049913 556.983178 L 1224.436742 547.242056 L 1224.82357 521.366355 L 1225.210399 567.881648 L 1225.597227 574.632336 L 1225.984055 571.607517 L 1226.370884 585.614628 L 1226.757712 592.095972 L 1227.531369 565.729907 L 1227.918198 572.275234 L 1228.305026 593.212937 L 1228.691854 592.276083 L 1229.078683 599.16038 L 1229.465511 598.108178 L 1229.85234 596.335173 L 1230.239168 598.26945 L 1230.625997 596.225639 L 1231.012825 587.092991 L 1231.399653 571.093203 L 1232.17331 504.47457 L 1232.560139 547.183178 L 1232.946967 445.441121 L 1233.333795 568.924065 L 1233.720624 488.648886 L 1234.494281 579.221495 L 1234.881109 589.976671 L 1235.267938 585.937723 L 1235.654766 580.618047 L 1236.041594 588.263551 L 1236.428423 598.647701 L 1236.815251 593.105879 L 1237.588908 568.031645 L 1237.975737 592.705847 L 1238.362565 586.348832 L 1238.749393 597.86718 L 1239.136222 596.485896 L 1239.52305 583.633501 L 1239.909879 586.019771 L 1240.296707 597.977408 L 1240.683536 561.953271 L 1241.070364 583.551977 L 1241.457192 573.387717 L 1241.844021 573.364486 L 1242.230849 550.724611 L 1242.617678 573.507877 L 1243.391334 561.990367 L 1243.778163 560.188785 L 1244.164991 536.019813 L 1244.55182 582.170093 L 1244.938648 585.862209 L 1245.325477 592.90913 L 1245.712305 587.628678 L 1246.099133 569.969159 L 1246.485962 585.68972 L 1246.87279 587.109346 L 1247.259619 586.608556 L 1247.646447 589.380433 L 1248.033276 586.781795 L 1248.420104 588.004575 L 1248.806932 577.590654 L 1249.193761 591.70068 L 1249.580589 590.238629 L 1249.967418 585.01941 L 1250.354246 560.878675 L 1250.741075 528.406287 L 1251.127903 547.427103 L 1251.514731 472.525234 L 1251.90156 563.001869 L 1252.288388 489.557944 L 1252.675217 527.435839 L 1253.062045 544.966822 L 1253.448873 544.618692 L 1253.835702 551.164836 L 1254.22253 566.773923 L 1254.609359 560.450467 L 1254.996187 578.723463 L 1255.383016 602.795742 L 1255.769844 591.574863 L 1256.156672 596.293458 L 1256.543501 598.070038 L 1256.930329 593.796554 L 1257.317158 590.842991 L 1257.703986 574.071863 L 1258.090815 582.338635 L 1258.477643 558.965244 L 1258.864471 579.484147 L 1259.2513 478.265888 L 1259.638128 541.367793 L 1260.024957 554.452941 L 1260.411785 451.328972 L 1260.798614 515.388785 L 1261.185442 535.501682 L 1261.57227 501.506542 L 1261.959099 566.39965 L 1262.345927 560.564953 L 1262.732756 525.639843 L 1263.506412 577.812617 L 1263.893241 585.89538 L 1264.666898 579.318659 L 1265.053726 579.75771 L 1265.440555 584.340867 L 1265.827383 572.702804 L 1266.214211 588.39654 L 1266.60104 580.750016 L 1267.374697 590.786916 L 1267.761525 570.404348 L 1268.148354 582.983178 L 1268.535182 589.581663 L 1268.92201 586.000935 L 1269.308839 539.216463 L 1269.695667 525.756754 L 1270.082496 563.420914 L 1270.469324 556.911985 L 1270.856153 526.719057 L 1271.242981 549.600876 L 1271.629809 543.524589 L 1272.403466 575.857009 L 1272.790295 571.403539 L 1273.177123 575.291776 L 1273.563951 593.666208 L 1273.95078 580.322794 L 1274.337608 577.650127 L 1274.724437 577.307562 L 1275.111265 592.154447 L 1275.498094 592.366677 L 1275.884922 588.840474 L 1276.27175 582.674036 L 1276.658579 583.216822 L 1277.045407 585.069764 L 1277.432236 591.942749 L 1277.819064 585.009541 L 1278.205893 586.666605 L 1278.592721 586.334895 L 1278.979549 563.433645 L 1279.366378 571.68759 L 1279.753206 540.897897 L 1280.140035 543.915421 L 1280.526863 583.020561 L 1280.913692 560.285194 L 1281.30052 591.944256 L 1281.687348 586.177333 L 1282.074177 588.776636 L 1282.461005 589.164297 L 1282.847834 589.722897 L 1283.234662 588.538533 L 1283.62149 594.336273 L 1284.008319 598.003007 L 1284.395147 590.353181 L 1284.781976 593.378113 L 1285.168804 592.068901 L 1285.555633 588.806457 L 1285.942461 582.029756 L 1286.329289 588.278738 L 1286.716118 576.070588 L 1287.102946 526.667859 L 1287.489775 545.778215 L 1287.876603 572.493418 L 1288.263432 542.04716 L 1288.65026 545.177103 L 1289.037088 527.79743 L 1289.423917 561.31729 L 1289.810745 531.747196 L 1290.197574 546.773058 L 1290.584402 587.53165 L 1290.971231 569.648003 L 1291.744887 591.729962 L 1292.131716 594.237343 L 1292.905373 583.665421 L 1293.292201 582.720035 L 1293.679029 587.223832 L 1294.065858 596.218709 L 1294.452686 600.974416 L 1294.839515 597.866593 L 1295.226343 587.495327 L 1295.613172 587.73353 L 1296 591.823669 L 1296.386828 584.171368 L 1296.773657 570.629907 L 1297.160485 500.63972 L 1297.547314 547.418692 L 1297.934142 519.235514 L 1298.320971 577.408231 L 1298.707799 571.061682 L 1299.094627 592.721495 L 1299.481456 582.179439 L 1299.868284 579.020391 L 1300.255113 551.137534 L 1301.028769 585.979583 L 1301.415598 589.795223 L 1301.802426 588.144873 L 1302.576083 593.130171 L 1302.962912 589.346226 L 1303.34974 591.051127 L 1303.736568 593.986682 L 1304.123397 586.910844 L 1304.510225 587.810895 L 1304.897054 587.232009 L 1305.283882 580.665421 L 1305.670711 579.704415 L 1306.057539 547.908713 L 1306.444367 551.072839 L 1306.831196 579.906295 L 1307.218024 578.022897 L 1307.604853 548.107788 L 1307.991681 557.567874 L 1308.37851 572.532827 L 1308.765338 478.295327 L 1309.152166 589.809761 L 1309.538995 594.946344 L 1309.925823 584.349101 L 1310.312652 570.143118 L 1310.69948 595.286916 L 1311.086308 574.916108 L 1311.473137 593.752976 L 1311.859965 585.025843 L 1312.246794 589.406425 L 1312.633622 589.693458 L 1313.020451 598.559579 L 1313.407279 593.514297 L 1313.794107 574.327323 L 1314.180936 590.411488 L 1314.567764 588.859983 L 1314.954593 589.173492 L 1315.341421 573.555395 L 1315.72825 576.463112 L 1316.501906 556.496372 L 1316.888735 511.911854 L 1317.275563 554.863143 L 1317.662392 427.616992 L 1318.04922 568.593045 L 1318.436049 564.493458 L 1318.822877 579.536916 L 1319.209705 582.846458 L 1319.596534 587.736145 L 1319.983362 586.384652 L 1320.370191 599.345004 L 1320.757019 593.449287 L 1321.143847 592.21215 L 1321.530676 600.83444 L 1321.917504 601.057421 L 1322.304333 601.703877 L 1322.691161 596.03803 L 1323.07799 597.696766 L 1323.464818 584.082158 L 1323.851646 576.328037 L 1324.238475 583.651618 L 1324.625303 577.034579 L 1325.012132 532.086729 L 1325.39896 544.466044 L 1325.785789 536.359346 L 1326.172617 555.406542 L 1326.559445 564.478738 L 1326.946274 563.881121 L 1327.333102 587.594724 L 1327.719931 588.115514 L 1328.106759 584.358709 L 1328.493588 586.404673 L 1328.880416 592.781308 L 1329.267244 593.616626 L 1329.654073 597.906762 L 1330.040901 592.202485 L 1330.42773 598.428712 L 1330.814558 600.867935 L 1331.201386 591.343425 L 1331.588215 592.42328 L 1331.975043 588.583825 L 1332.361872 581.224766 L 1332.7487 583.345619 L 1333.135529 582.478505 L 1333.522357 543.368692 L 1333.909185 542.378692 L 1334.296014 526.051147 L 1334.682842 460.704242 L 1335.069671 482.691589 L 1335.456499 561.399065 L 1335.843328 448.875701 L 1336.230156 574.009226 L 1336.616984 524.772159 L 1337.003813 571.340903 L 1337.390641 569.504673 L 1337.77747 563.167937 L 1338.164298 560.047335 L 1338.551127 552.728797 L 1338.937955 534.398862 L 1339.324783 585.879155 L 1339.711612 591.370811 L 1340.09844 580.626168 L 1340.485269 587.282622 L 1340.872097 600.688288 L 1341.258925 593.378113 L 1341.645754 588.531181 L 1342.032582 591.053271 L 1342.419411 579.963536 L 1342.806239 584.314104 L 1343.193068 585.341568 L 1343.579896 580.455624 L 1343.966724 568.055607 L 1344.353553 528.075823 L 1344.740381 572.529094 L 1345.12721 524.590654 L 1345.514038 545.615791 L 1345.900867 588.617944 L 1346.287695 583.852336 L 1346.674523 592.258879 L 1347.061352 585.56343 L 1347.44818 589.378902 L 1347.835009 578.506542 L 1348.221837 575.91811 L 1348.608666 583.814666 L 1348.995494 585.546363 L 1349.382322 588.118267 L 1349.769151 595.101134 L 1350.155979 570.752118 L 1350.542808 596.683255 L 1350.929636 589.662469 L 1351.316464 534.324112 L 1351.703293 567.730406 L 1352.090121 566.6213 L 1352.47695 537.806776 L 1352.863778 480.473832 L 1353.250607 527.38464 L 1353.637435 540.651127 L 1354.024263 464.780446 L 1354.411092 449.431776 L 1354.79792 532.829218 L 1355.184749 514.121165 L 1355.571577 574.838902 L 1355.958406 560.413337 L 1356.345234 580.547664 L 1356.732062 536.272538 L 1357.118891 584.543786 L 1357.505719 593.712556 L 1357.892548 587.620935 L 1358.279376 586.126113 L 1358.666205 593.771108 L 1359.053033 588.260231 L 1359.439861 591.144882 L 1359.82669 579.247975 L 1360.213518 581.884817 L 1360.600347 577.034579 L 1360.600347 577.034579" clip-path="url(#pbc4e60087a)" fill="none" stroke="#8dd3c7" stroke-width="1.5" stroke-linecap="square"/></g><g id="patch_3"><path d="M 180 640.8 L 180 86.4" fill="none" stroke="#ffffff" stroke-width="0.8" stroke-linejoin="miter" stroke-linecap="square"/></g><g id="patch_4"><path d="M 1296 640.8 L 1296 86.4" fill="none" stroke="#ffffff" stroke-width="0.8" stroke-linejoin="miter" stroke-linecap="square"/></g><g id="patch_5"><path d="M 180 640.8 L 1296 640.8" fill="none" stroke="#ffffff" stroke-width="0.8" stroke-linejoin="miter" stroke-linecap="square"/></g><g id="patch_6"><path d="M 180 86.4 L 1296 86.4" fill="none" stroke="#ffffff" stroke-width="0.8" stroke-linejoin="miter" stroke-linecap="square"/></g><g id="text_14"><g transform="translate(676.92375 80.4) scale(0.12 -0.12)" fill="#ffffff"><defs><path id="DejaVuSans-41" d="M 2188 4044 L 1331 1722 L 3047 1722 L 2188 4044 z M 1831 4666 L 2547 4666 L 4325 0 L 3669 0 L 3244 1197 L 1141 1197 L 716 0 L 50 0 L 1831 4666 z" transform="scale(0.015625)"/><path id="DejaVuSans-76" d="M 191 3500 L 800 3500 L 1894 563 L 2988 3500 L 3597 3500 L 2284 0 L 1503 0 L 191 3500 z" transform="scale(0.015625)"/><path id="DejaVuSans-67" d="M 2906 1791 Q 2906 2416 2648 2759 Q 2391 3103 1925 3103 Q 1463 3103 1205 2759 Q 947 2416 947 1791 Q 947 1169 1205 825 Q 1463 481 1925 481 Q 2391 481 2648 825 Q 2906 1169 2906 1791 z M 3481 434 Q 3481 -459 3084 -895 Q 2688 -1331 1869 -1331 Q 1566 -1331 1297 -1286 Q 1028 -1241 775 -1147 L 775 -588 Q 1028 -725 1275 -790 Q 1522 -856 1778 -856 Q 2344 -856 2625 -561 Q 2906 -266 2906 331 L 2906 616 Q 2728 306 2450 153 Q 2172 0 1784 0 Q 1141 0 747 490 Q 353 981 353 1791 Q 353 2603 747 3093 Q 1141 3584 1784 3584 Q 2172 3584 2450 3431 Q 2728 3278 2906 2969 L 2906 3500 L 3481 3500 L 3481 434 z" transform="scale(0.015625)"/></defs><use xlink:href="#DejaVuSans-41"/><use xlink:href="#DejaVuSans-76" x="62.533"/><use xlink:href="#DejaVuSans-65" x="121.713"/><use xlink:href="#DejaVuSans-72" x="183.236"/><use xlink:href="#DejaVuSans-61" x="224.35"/><use xlink:href="#DejaVuSans-67" x="285.629"/><use xlink:href="#DejaVuSans-65" x="349.105"/><use xlink:href="#DejaVuSans-20" x="410.629"/><use xlink:href="#DejaVuSans-75" x="442.416"/><use xlink:href="#DejaVuSans-70" x="505.795"/><use xlink:href="#DejaVuSans-6c" x="569.271"/><use xlink:href="#DejaVuSans-6f" x="597.055"/><use xlink:href="#DejaVuSans-61" x="658.236"/><use xlink:href="#DejaVuSans-64" x="719.516"/><use xlink:href="#DejaVuSans-20" x="782.992"/><use xlink:href="#DejaVuSans-72" x="814.779"/><use xlink:href="#DejaVuSans-61" x="855.893"/><use xlink:href="#DejaVuSans-74" x="917.172"/><use xlink:href="#DejaVuSans-65" x="956.381"/></g></g></g></g><defs><clipPath id="pbc4e60087a"><rect x="180" y="86.4" width="1116" height="554.4"/></clipPath></defs></svg>