<svg xmlns:xlink="http://www.w3.org/1999/xlink" width="1920" height="960" viewBox="0 0 1440 720" xmlns="http://www.w3.org/2000/svg" version="1.1"><metadata><rdf:RDF xmlns:dc="http://purl.org/dc/elements/1.1/" xmlns:cc="http://creativecommons.org/ns#" xmlns:rdf="http://www.w3.org/1999/02/22-rdf-syntax-ns#"><cc:Work><dc:type rdf:resource="http://purl.org/dc/dcmitype/StillImage"/><dc:format>image/svg+xml</dc:format><dc:creator><cc:Agent><dc:title>Matplotlib v3.7.1, https://matplotlib.org/</dc:title></cc:Agent></dc:creator></cc:Work></rdf:RDF></metadata><defs><style type="text/css">*{stroke-linejoin:round;stroke-linecap:butt}</style></defs><g id="figure_1"><g id="patch_1"><path d="M 0 720 L 1440 720 L 1440 0 L 0 0 z"/></g><g id="axes_1"><g id="patch_2"><path d="M 180 640.8 L 1296 640.8 L 1296 86.4 L 180 86.4 z"/></g><g id="matplotlib.axis_1"><g id="xtick_1"><g id="line2d_1"><defs><path id="me1dd5a6bc6" d="M 0 0 L 0 3.5" stroke="#ffffff" stroke-width="0.8"/></defs><g><use xlink:href="#me1dd5a6bc6" x="180" y="640.8" fill="#ffffff" stroke="#ffffff" stroke-width="0.8"/></g></g><g id="text_1"><g transform="translate(176.81875 655.398438) scale(0.1 -0.1)" fill="#ffffff"><defs><path id="DejaVuSans-30" d="M 2034 4250 Q 1547 4250 1301 3770 Q 1056 3291 1056 2328 Q 1056 1369 1301 889 Q 1547 409 2034 409 Q 2525 409 2770 889 Q 3016 1369 3016 2328 Q 3016 3291 2770 3770 Q 2525 4250 2034 4250 z M 2034 4750 Q 2819 4750 3233 4129 Q 3647 3509 3647 2328 Q 3647 1150 3233 529 Q 2819 -91 2034 -91 Q 1250 -91 836 529 Q 422 1150 422 2328 Q 422 3509 836 4129 Q 1250 4750 2034 4750 z" transform="scale(0.015625)"/></defs><use xlink:href="#DejaVuSans-30"/></g></g></g><g id="xtick_2"><g id="line2d_2"><g><use xlink:href="#me1dd5a6bc6" x="424.308" y="640.8" fill="#ffffff" stroke="#ffffff" stroke-width="0.8"/></g></g><g id="text_2"><g transform="translate(414.764481 655.398438) scale(0.1 -0.1)" fill="#ffffff"><defs><path id="DejaVuSans-35" d="M 691 4666 L 3169 4666 L 3169 4134 L 1269 4134 L 1269 2991 Q 1406 3038 1543 3061 Q 1681 3084 1819 3084 Q 2600 3084 3056 2656 Q 3513 2228 3513 1497 Q 3513 744 3044 326 Q 2575 -91 1722 -91 Q 1428 -91 1123 -41 Q 819 9 494 109 L 494 744 Q 775 591 1075 516 Q 1375 441 1709 441 Q 2250 441 2565 725 Q 2881 1009 2881 1497 Q 2881 1984 2565 2268 Q 2250 2553 1709 2553 Q 1456 2553 1204 2497 Q 953 2441 691 2322 L 691 4666 z" transform="scale(0.015625)"/></defs><use xlink:href="#DejaVuSans-35"/><use xlink:href="#DejaVuSans-30" x="63.623"/><use xlink:href="#DejaVuSans-30" x="127.246"/></g></g></g><g id="xtick_3"><g id="line2d_3"><g><use xlink:href="#me1dd5a6bc6" x="668.616" y="640.8" fill="#ffffff" stroke="#ffffff" stroke-width="0.8"/></g></g><g id="text_3"><g transform="translate(655.891462 655.398438) scale(0.1 -0.1)" fill="#ffffff"><defs><path id="DejaVuSans-31" d="M 794 531 L 1825 531 L 1825 4091 L 703 3866 L 703 4441 L 1819 4666 L 2450 4666 L 2450 531 L 3481 531 L 3481 0 L 794 0 L 794 531 z" transform="scale(0.015625)"/></defs><use xlink:href="#DejaVuSans-31"/><use xlink:href="#DejaVuSans-30" x="63.623"/><use xlink:href="#DejaVuSans-30" x="127.246"/><use xlink:href="#DejaVuSans-30" x="190.869"/></g></g></g><g id="xtick_4"><g id="line2d_4"><g><use xlink:href="#me1dd5a6bc6" x="912.925" y="640.8" fill="#ffffff" stroke="#ffffff" stroke-width="0.8"/></g></g><g id="text_4"><g transform="translate(900.199694 655.398438) scale(0.1 -0.1)" fill="#ffffff"><use xlink:href="#DejaVuSans-31"/><use xlink:href="#DejaVuSans-35" x="63.623"/><use xlink:href="#DejaVuSans-30" x="127.246"/><use xlink:href="#DejaVuSans-30" x="190.869"/></g></g></g><g id="xtick_5"><g id="line2d_5"><g><use xlink:href="#me1dd5a6bc6" x="1157.233" y="640.8" fill="#ffffff" stroke="#ffffff" stroke-width="0.8"/></g></g><g id="text_5"><g transform="translate(1144.507925 655.398438) scale(0.1 -0.1)" fill="#ffffff"><defs><path id="DejaVuSans-32" d="M 1228 531 L 3431 531 L 3431 0 L 469 0 L 469 531 Q 828 903 1448 1529 Q 2069 2156 2228 2338 Q 2531 2678 2651 2914 Q 2772 3150 2772 3378 Q 2772 3750 2511 3984 Q 2250 4219 1831 4219 Q 1534 4219 1204 4116 Q 875 4013 500 3803 L 500 4441 Q 881 4594 1212 4672 Q 1544 4750 1819 4750 Q 2544 4750 2975 4387 Q 3406 4025 3406 3419 Q 3406 3131 3298 2873 Q 3191 2616 2906 2266 Q 2828 2175 2409 1742 Q 1991 1309 1228 531 z" transform="scale(0.015625)"/></defs><use xlink:href="#DejaVuSans-32"/><use xlink:href="#DejaVuSans-30" x="63.623"/><use xlink:href="#DejaVuSans-30" x="127.246"/><use xlink:href="#DejaVuSans-30" x="190.869"/></g></g></g><g id="xtick_6"><g id="line2d_6"><defs><path id="m1de2428ee6" d="M 0 0 L 0 2" stroke="#ffffff" stroke-width="0.6"/></defs><g><use xlink:href="#m1de2428ee6" x="228.862" y="640.8" fill="#ffffff" stroke="#ffffff" stroke-width="0.6"/></g></g></g><g id="xtick_7"><g id="line2d_7"><g><use xlink:href="#m1de2428ee6" x="277.723" y="640.8" fill="#ffffff" stroke="#ffffff" stroke-width="0.6"/></g></g></g><g id="xtick_8"><g id="line2d_8"><g><use xlink:href="#m1de2428ee6" x="326.585" y="640.8" fill="#ffffff" stroke="#ffffff" stroke-width="0.6"/></g></g></g><g id="xtick_9"><g id="line2d_9"><g><use xlink:href="#m1de2428ee6" x="375.447" y="640.8" fill="#ffffff" stroke="#ffffff" stroke-width="0.6"/></g></g></g><g id="xtick_10"><g id="line2d_10"><g><use xlink:href="#m1de2428ee6" x="473.17" y="640.8" fill="#ffffff" stroke="#ffffff" stroke-width="0.6"/></g></g></g><g id="xtick_11"><g id="line2d_11"><g><use xlink:href="#m1de2428ee6" x="522.032" y="640.8" fill="#ffffff" stroke="#ffffff" stroke-width="0.6"/></g></g></g><g id="xtick_12"><g id="line2d_12"><g><use xlink:href="#m1de2428ee6" x="570.893" y="640.8" fill="#ffffff" stroke="#ffffff" stroke-width="0.6"/></g></g></g><g id="xtick_13"><g id="line2d_13"><g><use xlink:href="#m1de2428ee6" x="619.755" y="640.8" fill="#ffffff" stroke="#ffffff" stroke-width="0.6"/></g></g></g><g id="xtick_14"><g id="line2d_14"><g><use xlink:href="#m1de2428ee6" x="717.478" y="640.8" fill="#ffffff" stroke="#ffffff" stroke-width="0.6"/></g></g></g><g id="xtick_15"><g id="line2d_15"><g><use xlink:href="#m1de2428ee6" x="766.34" y="640.8" fill="#ffffff" stroke="#ffffff" stroke-width="0.6"/></g></g></g><g id="xtick_16"><g id="line2d_16"><g><use xlink:href="#m1de2428ee6" x="815.201" y="640.8" fill="#ffffff" stroke="#ffffff" stroke-width="0.6"/></g></g></g><g id="xtick_17"><g id="line2d_17"><g><use xlink:href="#m1de2428ee6" x="864.063" y="640.8" fill="#ffffff" stroke="#ffffff" stroke-width="0.6"/></g></g></g><g id="xtick_18"><g id="line2d_18"><g><use xlink:href="#m1de2428ee6" x="961.786" y="640.8" fill="#ffffff" stroke="#ffffff" stroke-width="0.6"/></g></g></g><g id="xtick_19"><g id="line2d_19"><g><use xlink:href="#m1de2428ee6" x="1010.648" y="640.8" fill="#ffffff" stroke="#ffffff" stroke-width="0.6"/></g></g></g><g id="xtick_20"><g id="line2d_20"><g><use xlink:href="#m1de2428ee6" x="1059.51" y="640.8" fill="#ffffff" stroke="#ffffff" stroke-width="0.6"/></g></g></g><g id="xtick_21"><g id="line2d_21"><g><use xlink:href="#m1de2428ee6" x="1108.371" y="640.8" fill="#ffffff" stroke="#ffffff" stroke-width="0.6"/></g></g></g><g id="xtick_22"><g id="line2d_22"><g><use xlink:href="#m1de2428ee6" x="1206.095" y="640.8" fill="#ffffff" stroke="#ffffff" stroke-width="0.6"/></g></g></g><g id="xtick_23"><g id="line2d_23"><g><use xlink:href="#m1de2428ee6" x="1254.956" y="640.8" fill="#ffffff" stroke="#ffffff" stroke-width="0.6"/></g></g></g><g id="text_6"><g transform="translate(638.625781 669.076563) scale(0.1 -0.1)" fill="#ffffff"><defs><path id="DejaVuSans-48" d="M 628 4666 L 1259 4666 L 1259 2753 L 3553 2753 L 3553 4666 L 4184 4666 L 4184 0 L 3553 0 L 3553 2222 L 1259 2222 L 1259 0 L 628 0 L 628 4666 z" transform="scale(0.015625)"/><path id="DejaVuSans-6f" d="M 1959 3097 Q 1497 3097 1228 2736 Q 959 2375 959 1747 Q 959 1119 1226 758 Q 1494 397 1959 397 Q 2419 397 2687 759 Q 2956 1122 2956 1747 Q 2956 2369 2687 2733 Q 2419 3097 1959 3097 z M 1959 3584 Q 2709 3584 3137 3096 Q 3566 2609 3566 1747 Q 3566 888 3137 398 Q 2709 -91 1959 -91 Q 1206 -91 779 398 Q 353 888 353 1747 Q 353 2609 779 3096 Q 1206 3584 1959 3584 z" transform="scale(0.015625)"/><path id="DejaVuSans-75" d="M 544 1381 L 544 3500 L 1119 3500 L 1119 1403 Q 1119 906 1312 657 Q 1506 409 1894 409 Q 2359 409 2629 706 Q 2900 1003 2900 1516 L 2900 3500 L 3475 3500 L 3475 0 L 2900 0 L 2900 538 Q 2691 219 2414 64 Q 2138 -91 1772 -91 Q 1169 -91 856 284 Q 544 659 544 1381 z M 1991 3584 L 1991 3584 z" transform="scale(0.015625)"/><path id="DejaVuSans-72" d="M 2631 2963 Q 2534 3019 2420 3045 Q 2306 3072 2169 3072 Q 1681 3072 1420 2755 Q 1159 2438 1159 1844 L 1159 0 L 581 0 L 581 3500 L 1159 3500 L 1159 2956 Q 1341 3275 1631 3429 Q 1922 3584 2338 3584 Q 2397 3584 2469 3576 Q 2541 3569 2628 3553 L 2631 2963 z" transform="scale(0.015625)"/><path id="DejaVuSans-73" d="M 2834 3397 L 2834 2853 Q 2591 2978 2328 3040 Q 2066 3103 1784 3103 Q 1356 3103 1142 2972 Q 928 2841 928 2578 Q 928 2378 1081 2264 Q 1234 2150 1697 2047 L 1894 2003 Q 2506 1872 2764 1633 Q 3022 1394 3022 966 Q 3022 478 2636 193 Q 2250 -91 1575 -91 Q 1294 -91 989 -36 Q 684 19 347 128 L 347 722 Q 666 556 975 473 Q 1284 391 1588 391 Q 1994 391 2212 530 Q 2431 669 2431 922 Q 2431 1156 2273 1281 Q 2116 1406 1581 1522 L 1381 1569 Q 847 1681 609 1914 Q 372 2147 372 2553 Q 372 3047 722 3315 Q 1072 3584 1716 3584 Q 2034 3584 2315 3537 Q 2597 3491 2834 3397 z" transform="scale(0.015625)"/><path id="DejaVuSans-20" transform="scale(0.015625)"/><path id="DejaVuSans-69" d="M 603 3500 L 1178 3500 L 1178 0 L 603 0 L 603 3500 z M 603 4863 L 1178 4863 L 1178 4134 L 603 4134 L 603 4863 z" transform="scale(0.015625)"/><path id="DejaVuSans-6e" d="M 3513 2113 L 3513 0 L 2938 0 L 2938 2094 Q 2938 2591 2744 2837 Q 2550 3084 2163 3084 Q 1697 3084 1428 2787 Q 1159 2491 1159 1978 L 1159 0 L 581 0 L 581 3500 L 1159 3500 L 1159 2956 Q 1366 3272 1645 3428 Q 1925 3584 2291 3584 Q 2894 3584 3203 3211 Q 3513 2838 3513 2113 z" transform="scale(0.015625)"/><path id="DejaVuSans-63" d="M 3122 3366 L 3122 2828 Q 2878 2963 2633 3030 Q 2388 3097 2138 3097 Q 1578 3097 1268 2742 Q 959 2388 959 1747 Q 959 1106 1268 751 Q 1578 397 2138 397 Q 2388 397 2633 464 Q 2878 531 3122 666 L 3122 134 Q 2881 22 2623 -34 Q 2366 -91 2075 -91 Q 1284 -91 818 406 Q 353 903 353 1747 Q 353 2603 823 3093 Q 1294 3584 2113 3584 Q 2378 3584 2631 3529 Q 2884 3475 3122 3366 z" transform="scale(0.015625)"/><path id="DejaVuSans-65" d="M 3597 1894 L 3597 1613 L 953 1613 Q 991 1019 1311 708 Q 1631 397 2203 397 Q 2534 397 2845 478 Q 3156 559 3463 722 L 3463 178 Q 3153 47 2828 -22 Q 2503 -91 2169 -91 Q 1331 -91 842 396 Q 353 884 353 1716 Q 353 2575 817 3079 Q 1281 3584 2069 3584 Q 2775 3584 3186 3129 Q 3597 2675 3597 1894 z M 3022 2063 Q 3016 2534 2758 2815 Q 2500 3097 2075 3097 Q 1594 3097 1305 2825 Q 1016 2553 972 2059 L 3022 2063 z" transform="scale(0.015625)"/><path id="DejaVuSans-36" d="M 2113 2584 Q 1688 2584 1439 2293 Q 1191 2003 1191 1497 Q 1191 994 1439 701 Q 1688 409 2113 409 Q 2538 409 2786 701 Q 3034 994 3034 1497 Q 3034 2003 2786 2293 Q 2538 2584 2113 2584 z M 3366 4563 L 3366 3988 Q 3128 4100 2886 4159 Q 2644 4219 2406 4219 Q 1781 4219 1451 3797 Q 1122 3375 1075 2522 Q 1259 2794 1537 2939 Q 1816 3084 2150 3084 Q 2853 3084 3261 2657 Q 3669 2231 3669 1497 Q 3669 778 3244 343 Q 2819 -91 2113 -91 Q 1303 -91 875 529 Q 447 1150 447 2328 Q 447 3434 972 4092 Q 1497 4750 2381 4750 Q 2619 4750 2861 4703 Q 3103 4656 3366 4563 z" transform="scale(0.015625)"/><path id="DejaVuSans-2f" d="M 1625 4666 L 2156 4666 L 531 -594 L 0 -594 L 1625 4666 z" transform="scale(0.015625)"/><path id="DejaVuSans-33" d="M 2597 2516 Q 3050 2419 3304 2112 Q 3559 1806 3559 1356 Q 3559 666 3084 287 Q 2609 -91 1734 -91 Q 1441 -91 1130 -33 Q 819 25 488 141 L 488 750 Q 750 597 1062 519 Q 1375 441 1716 441 Q 2309 441 2620 675 Q 2931 909 2931 1356 Q 2931 1769 2642 2001 Q 2353 2234 1838 2234 L 1294 2234 L 1294 2753 L 1863 2753 Q 2328 2753 2575 2939 Q 2822 3125 2822 3475 Q 2822 3834 2567 4026 Q 2313 4219 1838 4219 Q 1578 4219 1281 4162 Q 984 4106 628 3988 L 628 4550 Q 988 4650 1302 4700 Q 1616 4750 1894 4750 Q 2613 4750 3031 4423 Q 3450 4097 3450 3541 Q 3450 3153 3228 2886 Q 3006 2619 2597 2516 z" transform="scale(0.015625)"/><path id="DejaVuSans-3a" d="M 750 794 L 1409 794 L 1409 0 L 750 0 L 750 794 z M 750 3309 L 1409 3309 L 1409 2516 L 750 2516 L 750 3309 z" transform="scale(0.015625)"/><path id="DejaVuSans-28" d="M 1984 4856 Q 1566 4138 1362 3434 Q 1159 2731 1159 2009 Q 1159 1288 1364 580 Q 1569 -128 1984 -844 L 1484 -844 Q 1016 -109 783 600 Q 550 1309 550 2009 Q 550 2706 781 3412 Q 1013 4119 1484 4856 L 1984 4856 z" transform="scale(0.015625)"/><path id="DejaVuSans-55" d="M 556 4666 L 1191 4666 L 1191 1831 Q 1191 1081 1462 751 Q 1734 422 2344 422 Q 2950 422 3222 751 Q 3494 1081 3494 1831 L 3494 4666 L 4128 4666 L 4128 1753 Q 4128 841 3676 375 Q 3225 -91 2344 -91 Q 1459 -91 1007 375 Q 556 841 556 1753 L 556 4666 z" transform="scale(0.015625)"/><path id="DejaVuSans-43" d="M 4122 4306 L 4122 3641 Q 3803 3938 3442 4084 Q 3081 4231 2675 4231 Q 1875 4231 1450 3742 Q 1025 3253 1025 2328 Q 1025 1406 1450 917 Q 1875 428 2675 428 Q 3081 428 3442 575 Q 3803 722 4122 1019 L 4122 359 Q 3791 134 3420 21 Q 3050 -91 2638 -91 Q 1578 -91 968 557 Q 359 1206 359 2328 Q 359 3453 968 4101 Q 1578 4750 2638 4750 Q 3056 4750 3426 4639 Q 3797 4528 4122 4306 z" transform="scale(0.015625)"/><path id="DejaVuSans-54" d="M -19 4666 L 3928 4666 L 3928 4134 L 2272 4134 L 2272 0 L 1638 0 L 1638 4134 L -19 4134 L -19 4666 z" transform="scale(0.015625)"/><path id="DejaVuSans-29" d="M 513 4856 L 1013 4856 Q 1481 4119 1714 3412 Q 1947 2706 1947 2009 Q 1947 1309 1714 600 Q 1481 -109 1013 -844 L 513 -844 Q 928 -128 1133 580 Q 1338 1288 1338 2009 Q 1338 2731 1133 3434 Q 928 4138 513 4856 z" transform="scale(0.015625)"/></defs><use xlink:href="#DejaVuSans-48"/><use xlink:href="#DejaVuSans-6f" x="75.195"/><use xlink:href="#DejaVuSans-75" x="136.377"/><use xlink:href="#DejaVuSans-72" x="199.756"/><use xlink:href="#DejaVuSans-73" x="240.869"/><use xlink:href="#DejaVuSans-20" x="292.969"/><use xlink:href="#DejaVuSans-73" x="324.756"/><use xlink:href="#DejaVuSans-69" x="376.855"/><use xlink:href="#DejaVuSans-6e" x="404.639"/><use xlink:href="#DejaVuSans-63" x="468.018"/><use xlink:href="#DejaVuSans-65" x="522.998"/><use xlink:href="#DejaVuSans-20" x="584.521"/><use xlink:href="#DejaVuSans-32" x="616.309"/><use xlink:href="#DejaVuSans-36" x="679.932"/><use xlink:href="#DejaVuSans-2f" x="743.555"/><use xlink:href="#DejaVuSans-30" x="777.246"/><use xlink:href="#DejaVuSans-32" x="840.869"/><use xlink:href="#DejaVuSans-2f" x="904.492"/><use xlink:href="#DejaVuSans-32" x="938.184"/><use xlink:href="#DejaVuSans-30" x="1001.807"/><use xlink:href="#DejaVuSans-32" x="1065.43"/><use xlink:href="#DejaVuSans-33" x="1129.053"/><use xlink:href="#DejaVuSans-20" x="1192.676"/><use xlink:href="#DejaVuSans-30" x="1224.463"/><use xlink:href="#DejaVuSans-35" x="1288.086"/><use xlink:href="#DejaVuSans-3a" x="1351.709"/><use xlink:href="#DejaVuSans-30" x="1385.4"/><use xlink:href="#DejaVuSans-30" x="1449.023"/><use xlink:href="#DejaVuSans-3a" x="1512.646"/><use xlink:href="#DejaVuSans-30" x="1546.338"/><use xlink:href="#DejaVuSans-30" x="1609.961"/><use xlink:href="#DejaVuSans-20" x="1673.584"/><use xlink:href="#DejaVuSans-28" x="1705.371"/><use xlink:href="#DejaVuSans-55" x="1744.385"/><use xlink:href="#DejaVuSans-43" x="1817.578"/><use xlink:href="#DejaVuSans-54" x="1887.402"/><use xlink:href="#DejaVuSans-29" x="1948.486"/></g></g></g><g id="matplotlib.axis_2"><g id="ytick_1"><g id="line2d_24"><defs><path id="mfce3ccc883" d="M 0 0 L -3.5 0" stroke="#ffffff" stroke-width="0.8"/></defs><g><use xlink:href="#mfce3ccc883" x="180" y="615.6" fill="#ffffff" stroke="#ffffff" stroke-width="0.8"/></g></g><g id="text_7"><g transform="translate(166.6375 619.399219) scale(0.1 -0.1)" fill="#ffffff"><use xlink:href="#DejaVuSans-30"/></g></g></g><g id="ytick_2"><g id="line2d_25"><g><use xlink:href="#mfce3ccc883" x="180" y="497.843" fill="#ffffff" stroke="#ffffff" stroke-width="0.8"/></g></g><g id="text_8"><g transform="translate(153.9125 501.642209) scale(0.1 -0.1)" fill="#ffffff"><use xlink:href="#DejaVuSans-32"/><use xlink:href="#DejaVuSans-30" x="63.623"/><use xlink:href="#DejaVuSans-30" x="127.246"/></g></g></g><g id="ytick_3"><g id="line2d_26"><g><use xlink:href="#mfce3ccc883" x="180" y="380.086" fill="#ffffff" stroke="#ffffff" stroke-width="0.8"/></g></g><g id="text_9"><g transform="translate(153.9125 383.8852) scale(0.1 -0.1)" fill="#ffffff"><defs><path id="DejaVuSans-34" d="M 2419 4116 L 825 1625 L 2419 1625 L 2419 4116 z M 2253 4666 L 3047 4666 L 3047 1625 L 3713 1625 L 3713 1100 L 3047 1100 L 3047 0 L 2419 0 L 2419 1100 L 313 1100 L 313 1709 L 2253 4666 z" transform="scale(0.015625)"/></defs><use xlink:href="#DejaVuSans-34"/><use xlink:href="#DejaVuSans-30" x="63.623"/><use xlink:href="#DejaVuSans-30" x="127.246"/></g></g></g><g id="ytick_4"><g id="line2d_27"><g><use xlink:href="#mfce3ccc883" x="180" y="262.329" fill="#ffffff" stroke="#ffffff" stroke-width="0.8"/></g></g><g id="text_10"><g transform="translate(153.9125 266.128191) scale(0.1 -0.1)" fill="#ffffff"><use xlink:href="#DejaVuSans-36"/><use xlink:href="#DejaVuSans-30" x="63.623"/><use xlink:href="#DejaVuSans-30" x="127.246"/></g></g></g><g id="ytick_5"><g id="line2d_28"><g><use xlink:href="#mfce3ccc883" x="180" y="144.572" fill="#ffffff" stroke="#ffffff" stroke-width="0.8"/></g></g><g id="text_11"><g transform="translate(153.9125 148.371181) scale(0.1 -0.1)" fill="#ffffff"><defs><path id="DejaVuSans-38" d="M 2034 2216 Q 1584 2216 1326 1975 Q 1069 1734 1069 1313 Q 1069 891 1326 650 Q 1584 409 2034 409 Q 2484 409 2743 651 Q 3003 894 3003 1313 Q 3003 1734 2745 1975 Q 2488 2216 2034 2216 z M 1403 2484 Q 997 2584 770 2862 Q 544 3141 544 3541 Q 544 4100 942 4425 Q 1341 4750 2034 4750 Q 2731 4750 3128 4425 Q 3525 4100 3525 3541 Q 3525 3141 3298 2862 Q 3072 2584 2669 2484 Q 3125 2378 3379 2068 Q 3634 1759 3634 1313 Q 3634 634 3220 271 Q 2806 -91 2034 -91 Q 1263 -91 848 271 Q 434 634 434 1313 Q 434 1759 690 2068 Q 947 2378 1403 2484 z M 1172 3481 Q 1172 3119 1398 2916 Q 1625 2713 2034 2713 Q 2441 2713 2670 2916 Q 2900 3119 2900 3481 Q 2900 3844 2670 4047 Q 2441 4250 2034 4250 Q 1625 4250 1398 4047 Q 1172 3844 1172 3481 z" transform="scale(0.015625)"/></defs><use xlink:href="#DejaVuSans-38"/><use xlink:href="#DejaVuSans-30" x="63.623"/><use xlink:href="#DejaVuSans-30" x="127.246"/></g></g></g><g id="ytick_6"><g id="line2d_29"><defs><path id="mc0fdaa2d57" d="M 0 0 L -2 0" stroke="#ffffff" stroke-width="0.6"/></defs><g><use xlink:href="#mc0fdaa2d57" x="180" y="586.161" fill="#ffffff" stroke="#ffffff" stroke-width="0.6"/></g></g></g><g id="ytick_7"><g id="line2d_30"><g><use xlink:href="#mc0fdaa2d57" x="180" y="556.721" fill="#ffffff" stroke="#ffffff" stroke-width="0.6"/></g></g></g><g id="ytick_8"><g id="line2d_31"><g><use xlink:href="#mc0fdaa2d57" x="180" y="527.282" fill="#ffffff" stroke="#ffffff" stroke-width="0.6"/></g></g></g><g id="ytick_9"><g id="line2d_32"><g><use xlink:href="#mc0fdaa2d57" x="180" y="468.404" fill="#ffffff" stroke="#ffffff" stroke-width="0.6"/></g></g></g><g id="ytick_10"><g id="line2d_33"><g><use xlink:href="#mc0fdaa2d57" x="180" y="438.964" fill="#ffffff" stroke="#ffffff" stroke-width="0.6"/></g></g></g><g id="ytick_11"><g id="line2d_34"><g><use xlink:href="#mc0fdaa2d57" x="180" y="409.525" fill="#ffffff" stroke="#ffffff" stroke-width="0.6"/></g></g></g><g id="ytick_12"><g id="line2d_35"><g><use xlink:href="#mc0fdaa2d57" x="180" y="350.647" fill="#ffffff" stroke="#ffffff" stroke-width="0.6"/></g></g></g><g id="ytick_13"><g id="line2d_36"><g><use xlink:href="#mc0fdaa2d57" x="180" y="321.207" fill="#ffffff" stroke="#ffffff" stroke-width="0.6"/></g></g></g><g id="ytick_14"><g id="line2d_37"><g><use xlink:href="#mc0fdaa2d57" x="180" y="291.768" fill="#ffffff" stroke="#ffffff" stroke-width="0.6"/></g></g></g><g id="ytick_15"><g id="line2d_38"><g><use xlink:href="#mc0fdaa2d57" x="180" y="232.89" fill="#ffffff" stroke="#ffffff" stroke-width="0.6"/></g></g></g><g id="ytick_16"><g id="line2d_39"><g><use xlink:href="#mc0fdaa2d57" x="180" y="203.45" fill="#ffffff" stroke="#ffffff" stroke-width="0.6"/></g></g></g><g id="ytick_17"><g id="line2d_40"><g><use xlink:href="#mc0fdaa2d57" x="180" y="174.011" fill="#ffffff" stroke="#ffffff" stroke-width="0.6"/></g></g></g><g id="ytick_18"><g id="line2d_41"><g><use xlink:href="#mc0fdaa2d57" x="180" y="115.133" fill="#ffffff" stroke="#ffffff" stroke-width="0.6"/></g></g></g><g id="text_12"><g transform="translate(147.832812 434.258594) rotate(-90) scale(0.1 -0.1)" fill="#ffffff"><defs><path id="DejaVuSans-53" d="M 3425 4513 L 3425 3897 Q 3066 4069 2747 4153 Q 2428 4238 2131 4238 Q 1616 4238 1336 4038 Q 1056 3838 1056 3469 Q 1056 3159 1242 3001 Q 1428 2844 1947 2747 L 2328 2669 Q 3034 2534 3370 2195 Q 3706 1856 3706 1288 Q 3706 609 3251 259 Q 2797 -91 1919 -91 Q 1588 -91 1214 -16 Q 841 59 441 206 L 441 856 Q 825 641 1194 531 Q 1563 422 1919 422 Q 2459 422 2753 634 Q 3047 847 3047 1241 Q 3047 1584 2836 1778 Q 2625 1972 2144 2069 L 1759 2144 Q 1053 2284 737 2584 Q 422 2884 422 3419 Q 422 4038 858 4394 Q 1294 4750 2059 4750 Q 2388 4750 2728 4690 Q 3069 4631 3425 4513 z" transform="scale(0.015625)"/><path id="DejaVuSans-64" d="M 2906 2969 L 2906 4863 L 3481 4863 L 3481 0 L 2906 0 L 2906 525 Q 2725 213 2448 61 Q 2172 -91 1784 -91 Q 1150 -91 751 415 Q 353 922 353 1747 Q 353 2572 751 3078 Q 1150 3584 1784 3584 Q 2172 3584 2448 3432 Q 2725 3281 2906 2969 z M 947 1747 Q 947 1113 1208 752 Q 1469 391 1925 391 Q 2381 391 2643 752 Q 2906 1113 2906 1747 Q 2906 2381 2643 2742 Q 2381 3103 1925 3103 Q 1469 3103 1208 2742 Q 947 2381 947 1747 z" transform="scale(0.015625)"/><path id="DejaVuSans-62" d="M 3116 1747 Q 3116 2381 2855 2742 Q 2594 3103 2138 3103 Q 1681 3103 1420 2742 Q 1159 2381 1159 1747 Q 1159 1113 1420 752 Q 1681 391 2138 391 Q 2594 391 2855 752 Q 3116 1113 3116 1747 z M 1159 2969 Q 1341 3281 1617 3432 Q 1894 3584 2278 3584 Q 2916 3584 3314 3078 Q 3713 2572 3713 1747 Q 3713 922 3314 415 Q 2916 -91 2278 -91 Q 1894 -91 1617 61 Q 1341 213 1159 525 L 1159 0 L 581 0 L 581 4863 L 1159 4863 L 1159 2969 z" transform="scale(0.015625)"/><path id="DejaVuSans-74" d="M 1172 4494 L 1172 3500 L 2356 3500 L 2356 3053 L 1172 3053 L 1172 1153 Q 1172 725 1289 603 Q 1406 481 1766 481 L 2356 481 L 2356 0 L 1766 0 Q 1100 0 847 248 Q 594 497 594 1153 L 594 3053 L 172 3053 L 172 3500 L 594 3500 L 594 4494 L 1172 4494 z" transform="scale(0.015625)"/><path id="DejaVuSans-77" d="M 269 3500 L 844 3500 L 1563 769 L 2278 3500 L 2956 3500 L 3675 769 L 4391 3500 L 4966 3500 L 4050 0 L 3372 0 L 2619 2869 L 1863 0 L 1184 0 L 269 3500 z" transform="scale(0.015625)"/><path id="DejaVuSans-61" d="M 2194 1759 Q 1497 1759 1228 1600 Q 959 1441 959 1056 Q 959 750 1161 570 Q 1363 391 1709 391 Q 2188 391 2477 730 Q 2766 1069 2766 1631 L 2766 1759 L 2194 1759 z M 3341 1997 L 3341 0 L 2766 0 L 2766 531 Q 2569 213 2275 61 Q 1981 -91 1556 -91 Q 1019 -91 701 211 Q 384 513 384 1019 Q 384 1609 779 1909 Q 1175 2209 1959 2209 L 2766 2209 L 2766 2266 Q 2766 2663 2505 2880 Q 2244 3097 1772 3097 Q 1472 3097 1187 3025 Q 903 2953 641 2809 L 641 3341 Q 956 3463 1253 3523 Q 1550 3584 1831 3584 Q 2591 3584 2966 3190 Q 3341 2797 3341 1997 z" transform="scale(0.015625)"/><path id="DejaVuSans-70" d="M 1159 525 L 1159 -1331 L 581 -1331 L 581 3500 L 1159 3500 L 1159 2969 Q 1341 3281 1617 3432 Q 1894 3584 2278 3584 Q 2916 3584 3314 3078 Q 3713 2572 3713 1747 Q 3713 922 3314 415 Q 2916 -91 2278 -91 Q 1894 -91 1617 61 Q 1341 213 1159 525 z M 3116 1747 Q 3116 2381 2855 2742 Q 2594 3103 2138 3103 Q 1681 3103 1420 2742 Q 1159 2381 1159 1747 Q 1159 1113 1420 752 Q 1681 391 2138 391 Q 2594 391 2855 752 Q 3116 1113 3116 1747 z" transform="scale(0.015625)"/><path id="DejaVuSans-6c" d="M 603 4863 L 1178 4863 L 1178 0 L 603 0 L 603 4863 z" transform="scale(0.015625)"/></defs><use xlink:href="#DejaVuSans-53"/><use xlink:href="#DejaVuSans-65" x="63.477"/><use xlink:href="#DejaVuSans-63" x="125"/><use xlink:href="#DejaVuSans-6f" x="179.98"/><use xlink:href="#DejaVuSans-6e" x="241.162"/><use xlink:href="#DejaVuSans-64" x="304.541"/><use xlink:href="#DejaVuSans-73" x="368.018"/><use xlink:href="#DejaVuSans-20" x="420.117"/><use xlink:href="#DejaVuSans-62" x="451.904"/><use xlink:href="#DejaVuSans-65" x="515.381"/><use xlink:href="#DejaVuSans-74" x="576.904"/><use xlink:href="#DejaVuSans-77" x="616.113"/><use xlink:href="#DejaVuSans-65" x="697.9"/><use xlink:href="#DejaVuSans-65" x="759.424"/><use xlink:href="#DejaVuSans-6e" x="820.947"/><use xlink:href="#DejaVuSans-20" x="884.326"/><use xlink:href="#DejaVuSans-61" x="916.113"/><use xlink:href="#DejaVuSans-6e" x="977.393"/><use xlink:href="#DejaVuSans-20" x="1040.771"/><use xlink:href="#DejaVuSans-75" x="1072.559"/><use xlink:href="#DejaVuSans-70" x="1135.938"/><use xlink:href="#DejaVuSans-6c" x="1199.414"/><use xlink:href="#DejaVuSans-6f" x="1227.197"/><use xlink:href="#DejaVuSans-61" x="1288.379"/><use xlink:href="#DejaVuSans-64" x="1349.658"/></g></g></g><g id="line2d_42"><path d="M 180 615.6 L 180.488616 512.235514 L 180.977233 573.14484 L 181.465849 577.638084 L 181.954466 574.558219 L 182.443082 565.401869 L 182.931699 588.437383 L 184.397548 554.298418 L 184.886165 585.993779 L 185.374781 591.196409 L 185.863398 600.579535 L 186.352014 599.192217 L 186.84063 592.135578 L 187.329247 597.242523 L 187.817863 601.013058 L 188.30648 598.906766 L 188.795096 604.75396 L 189.772329 599.670854 L 190.260946 593.340127 L 190.749562 595.796441 L 191.238179 604.406719 L 191.726795 579.032243 L 192.215412 593.105879 L 192.704028 572.014809 L 193.192644 583.17757 L 193.681261 557.915888 L 194.169877 554.989775 L 194.658494 540.259065 L 195.14711 547.950628 L 195.635727 524.366355 L 196.124343 515.748983 L 196.61296 579.933214 L 197.101576 605.873404 L 197.590193 519.71215 L 198.078809 595.419092 L 198.567426 586.775132 L 199.056042 592.318162 L 199.544658 593.15577 L 200.033275 593.578159 L 200.521891 582.618541 L 201.010508 586.301353 L 201.499124 592.972927 L 201.987741 574.86785 L 202.476357 596.098559 L 202.964974 571.566395 L 203.942207 583.143224 L 204.430823 572.091238 L 204.91944 554.091589 L 205.408056 577.017916 L 205.896673 396.571963 L 206.385289 477.151402 L 206.873905 440.891419 L 207.362522 515.948131 L 207.851138 519.569159 L 208.339755 557.899065 L 208.828371 560.142814 L 209.316988 576.18537 L 209.805604 582.646729 L 210.294221 594.048014 L 210.782837 597.069042 L 211.271454 592.984112 L 211.76007 582.968429 L 212.248687 593.449287 L 212.737303 590.92847 L 213.225919 598.011294 L 213.714536 592.595822 L 214.203152 561.230349 L 214.691769 566.558514 L 215.180385 559.044809 L 215.669002 563.910871 L 216.157618 573.52066 L 216.646235 590.842991 L 217.134851 592.810179 L 217.623468 573.051268 L 218.112084 548.772897 L 218.600701 548.929907 L 219.089317 500.475206 L 219.577933 576.17362 L 220.06655 525.729992 L 220.555166 533.571538 L 221.043783 584.753651 L 221.532399 587.130999 L 222.021016 579.095327 L 222.509632 593.420342 L 222.998249 583.912659 L 223.486865 579.773927 L 223.975482 579.582597 L 224.464098 597.821685 L 224.952715 597.716294 L 225.441331 583.948343 L 225.929947 585.197281 L 226.418564 596.368139 L 226.90718 585.838756 L 227.395797 597.670215 L 227.884413 565.553271 L 228.37303 547.715265 L 228.861646 559.242231 L 229.350263 551.650347 L 229.838879 525.011215 L 230.327496 532.581308 L 230.816112 548.972324 L 231.304729 525.746282 L 232.281961 567.431776 L 233.259194 590.00993 L 233.747811 595.473742 L 234.236427 604.661478 L 235.21366 589.296028 L 235.702277 601.914621 L 236.190893 601.457304 L 236.67951 598.583147 L 237.168126 598.264624 L 237.656743 600.049148 L 238.145359 594.871303 L 238.633975 594.451802 L 239.611208 584.215973 L 240.099825 580.753738 L 240.588441 570.148354 L 241.077058 564.102849 L 241.565674 561.354304 L 242.054291 552.447352 L 242.542907 572.810389 L 243.031524 520.898574 L 243.52014 555.405388 L 244.008757 561.69518 L 244.497373 590.509244 L 244.985989 594.962787 L 245.963222 600.818178 L 246.451839 599.757153 L 246.940455 602.679439 L 247.429072 604.650448 L 247.917688 600.972897 L 248.406305 600.896843 L 248.894921 598.657121 L 249.383538 606.504551 L 250.360771 601.236098 L 250.849387 593.974416 L 251.338004 560.090654 L 251.82662 581.971687 L 252.803853 569.764364 L 253.292469 584.90525 L 253.781086 560.557519 L 254.269702 583.725319 L 254.758319 598.462494 L 255.246935 594.515607 L 255.735552 597.61941 L 256.224168 598.267949 L 257.201401 606.010063 L 257.690018 605.638092 L 258.178634 599.496055 L 258.66725 603.677934 L 259.155867 605.145404 L 259.644483 600.15836 L 260.621716 605.181449 L 261.110333 602.819056 L 261.598949 599.87856 L 262.087566 602.985192 L 262.576182 605.224494 L 263.064799 589.796495 L 263.553415 565.930697 L 264.042032 582.702804 L 264.530648 591.14388 L 265.019264 594.308581 L 265.507881 586.094406 L 265.996497 596.242303 L 266.485114 600.888609 L 266.97373 599.85 L 267.462347 603.47998 L 267.950963 603.287162 L 268.43958 602.718973 L 268.928196 606.147756 L 269.416813 606.44452 L 269.905429 603.77799 L 270.394046 604.571126 L 270.882662 601.469159 L 271.371278 604.40049 L 272.837128 598.396592 L 273.325744 600.965091 L 273.814361 599.043925 L 274.302977 581.915797 L 274.791594 575.57394 L 275.28021 591.930841 L 275.768827 586.267056 L 276.257443 565.805607 L 276.74606 517.714486 L 277.234676 559.628621 L 277.723292 568.237035 L 278.211909 572.765888 L 278.700525 568.176041 L 279.189142 579.191176 L 279.677758 593.657944 L 280.166375 593.576934 L 280.654991 592.513084 L 281.143608 587.265728 L 281.632224 598.167937 L 282.120841 605.228102 L 282.609457 597.332032 L 283.098074 604.091344 L 283.58669 602.981667 L 284.075306 603.253249 L 284.563923 598.482152 L 285.052539 591.747515 L 285.541156 595.870146 L 286.518389 574.691215 L 287.007005 555.476636 L 287.495622 561.292327 L 287.984238 535.864917 L 288.472855 581.527685 L 288.961471 555.998131 L 289.450088 580.881308 L 289.938704 563.136153 L 290.42732 590.411488 L 290.915937 555.855635 L 291.404553 585.369842 L 291.89317 593.688333 L 292.381786 590.778809 L 292.870403 601.974374 L 293.359019 589.296028 L 293.847636 596.164591 L 294.336252 593.881723 L 294.824869 600.410193 L 295.313485 603.266685 L 295.802102 600.548131 L 296.290718 601.039053 L 296.779335 601.957889 L 297.267951 602.440654 L 297.756567 583.624443 L 298.245184 597.535466 L 298.7338 577.517828 L 299.222417 551.584853 L 299.711033 558 L 300.688266 578.024809 L 301.176883 585.230638 L 301.665499 532.204486 L 302.154116 579.663809 L 302.642732 582.286162 L 303.131349 581.107009 L 303.619965 601.115888 L 304.108581 599.216822 L 304.597198 595.722843 L 305.085814 584.491059 L 305.574431 597.789252 L 306.063047 593.142056 L 306.551664 599.981931 L 307.04028 602.214456 L 307.528897 601.926661 L 308.017513 603.764759 L 308.50613 602.122106 L 308.994746 595.494722 L 309.483363 596.705835 L 309.971979 580.191685 L 310.460595 571.106585 L 310.949212 583.546899 L 311.437828 556.13271 L 311.926445 560.793925 L 312.415061 549.732047 L 312.903678 554.771145 L 313.392294 371.990187 L 313.880911 586.674898 L 314.369527 591.678896 L 314.858144 584.148333 L 315.34676 587.051882 L 315.835377 591.757589 L 316.323993 593.042991 L 316.812609 589.246279 L 317.301226 602.902106 L 317.789842 599.9225 L 318.278459 601.47728 L 318.767075 597.090739 L 319.255692 602.555303 L 319.744308 602.25927 L 320.232925 602.406715 L 320.721541 592.77818 L 321.210158 577.735769 L 321.698774 577.09568 L 322.187391 564.979206 L 322.676007 563.595959 L 323.164623 539.128598 L 323.65324 558.782243 L 324.141856 552.225319 L 324.630473 562.314953 L 325.119089 559.060722 L 326.096322 596.552804 L 326.584939 592.726981 L 327.073555 594.391343 L 327.562172 594.391844 L 328.050788 603.122693 L 329.028021 587.112482 L 329.516637 590.938965 L 330.005254 592.643925 L 330.49387 602.431952 L 330.982487 595.683214 L 331.471103 600.545741 L 331.95972 600.105429 L 332.448336 597.416005 L 332.936953 583.92158 L 333.425569 555.488727 L 333.914186 582.06729 L 334.402802 578.590654 L 334.891419 576.694008 L 335.380035 558.48785 L 335.868651 567.538709 L 336.357268 592.264486 L 336.845884 594.385528 L 337.334501 592.572682 L 337.823117 596.416313 L 338.311734 593.96215 L 338.80035 597.991335 L 339.288967 597.4859 L 339.777583 603.224809 L 340.2662 604.25077 L 340.754816 603.807853 L 341.243433 604.193483 L 341.732049 603.187026 L 342.220665 599.642056 L 342.709282 580.9016 L 343.197898 598.423885 L 343.686515 602.809277 L 344.175131 594.603925 L 344.663748 596.841418 L 345.152364 592.960891 L 345.640981 574.985377 L 346.129597 539.166978 L 346.618214 525.387891 L 347.10683 562.680714 L 347.595447 571.550663 L 348.084063 575.947592 L 348.57268 574.696756 L 349.061296 592.159813 L 349.549912 598.845954 L 350.038529 598.696171 L 350.527145 598.956391 L 351.015762 603.784606 L 351.504378 598.908411 L 351.992995 601.160554 L 352.481611 601.174766 L 352.970228 600.783645 L 353.458844 603.897897 L 353.947461 604.591599 L 354.436077 602.890859 L 354.924694 603.390457 L 355.41331 600.789154 L 355.901926 592.475629 L 356.390543 593.697196 L 356.879159 592.190719 L 357.856392 576.422243 L 358.345009 520.35536 L 358.833625 487.298386 L 359.322242 549.302804 L 359.810858 552.296686 L 360.299475 440.463212 L 360.788091 266.921495 L 361.276708 561.310555 L 361.765324 558.06729 L 362.25394 577.767884 L 362.742557 592.041983 L 363.231173 595.675736 L 363.71979 596.858762 L 364.208406 600.755983 L 364.697023 600.166955 L 365.185639 603.009628 L 365.674256 599.795526 L 366.162872 575.096495 L 366.651489 593.864019 L 367.140105 592.918976 L 367.628722 588.066552 L 368.117338 586.937617 L 368.605954 553.208411 L 369.094571 557.761682 L 369.583187 444.970093 L 370.071804 566.142056 M 371.537653 543.768224 L 372.02627 569.609346 L 372.514886 567.160495 L 373.003503 485.125234 L 373.492119 585.4013 L 373.980736 591.459813 L 374.469352 590.92918 L 374.957968 585.788428 L 375.446585 587.777944 L 375.935201 595.055403 L 376.423818 596.027024 L 376.912434 585.955953 L 377.401051 602.930218 L 377.889667 604.279713 L 378.378284 599.93921 L 378.8669 592.46729 L 379.355517 602.783742 L 379.844133 604.18269 L 380.821366 594.853986 L 381.309982 579.28802 L 381.798599 575.313515 L 382.287215 578.769393 L 382.775832 553.891528 L 383.264448 554.054645 L 384.241681 583.642559 L 385.218914 576.740187 L 385.707531 591.501869 L 386.196147 592.282774 L 386.684764 601.943246 L 387.17338 599.133012 L 387.661996 601.528433 L 388.150613 600.077882 L 389.127846 601.083546 L 389.616462 604.987076 L 390.105079 601.74785 L 390.593695 596.431776 L 391.082312 600.913313 L 391.570928 602.323847 L 392.059545 598.947119 L 392.548161 588.278845 L 393.036778 595.186822 L 393.525394 591.681473 L 394.014011 585.286229 L 394.502627 571.772313 L 394.991243 548.596262 L 395.47986 480.179439 L 395.968476 574.740771 L 396.457093 570.196644 L 396.945709 582.098131 L 397.922942 593.455485 L 398.411559 596.780685 L 398.900175 601.905013 L 399.388792 600.581776 L 399.877408 600.256698 L 400.366025 597.776778 L 400.854641 600.876256 L 401.343257 598.414233 L 401.831874 601.189382 L 402.32049 596.903398 L 402.809107 600.562344 L 403.78634 593.965281 L 404.274956 589.766147 L 404.763573 579.021729 L 405.252189 588.006668 L 405.740806 566.867768 L 406.229422 562.795278 L 406.718039 561.960173 L 407.695271 548.125234 L 408.183888 552.653526 L 408.672504 512.709813 L 409.161121 569.835344 L 409.649737 601.003037 L 410.138354 599.620648 L 410.62697 602.832087 L 411.115587 603.297131 L 411.604203 604.459813 L 412.09282 605.963828 L 412.581436 605.129338 L 413.070053 597.569749 L 413.558669 605.791501 L 414.047285 602.816501 L 414.535902 600.838616 L 415.024518 596.453781 L 415.513135 603.249533 L 416.001751 601.847095 L 416.490368 596.851558 L 416.978984 583.316463 L 417.467601 575.324838 L 417.956217 579.147897 L 418.444834 557.915421 L 418.93345 581.773349 L 419.422067 578.870518 L 419.910683 590.253868 L 420.399299 598.539594 L 420.887916 589.156192 L 421.376532 602.252931 L 421.865149 605.618826 L 422.353765 605.501618 L 422.842382 605.007877 L 423.330998 605.703988 L 423.819615 601.609531 L 424.308231 605.370574 L 424.796848 603.207806 L 425.285464 594.721682 L 425.774081 597.061087 L 426.262697 601.011215 L 426.751313 600.825701 L 427.23993 595.073337 L 427.728546 600.248296 L 428.217163 602.132948 L 428.705779 599.997196 L 429.194396 598.569764 L 429.683012 578.832477 L 430.171629 566.749241 L 430.660245 581.324989 L 431.148862 591.757589 L 431.637478 582.609638 L 432.126095 594.344265 L 432.614711 598.783725 L 433.103327 600.63718 L 433.591944 606.937158 L 434.08056 602.08059 L 434.569177 601.928791 L 435.057793 597.154876 L 435.54641 599.571459 L 436.035026 600.588195 L 436.523643 605.178505 L 437.012259 604.624679 L 437.500876 601.947069 L 437.989492 593.629021 L 438.478109 600.229611 L 438.966725 603.586062 L 439.455342 583.696909 L 439.943958 576.551331 L 440.432574 562.640334 L 441.409807 552.070093 L 441.898424 537.450108 L 442.38704 559.284442 L 442.875657 561.55573 L 443.364273 566.515432 L 443.85289 587.826168 L 444.341506 582.441121 L 444.830123 592.140187 L 445.318739 593.992815 L 445.807356 595.055403 L 446.295972 599.626397 L 446.784588 601.5719 L 447.273205 598.490599 L 447.761821 598.481799 L 448.250438 594.680467 L 448.739054 585.748598 L 449.227671 563.043187 L 449.716287 560.270561 L 450.204904 573.121612 L 450.69352 572.949883 L 451.182137 553.673667 L 451.670753 553.078388 L 452.15937 534.017944 L 452.647986 561.347664 L 453.136602 536.655701 L 453.625219 460.053696 L 454.113835 566.534579 L 454.602452 531.05582 L 455.091068 521.320794 L 455.579685 528.571963 L 456.556918 586.011354 L 457.045534 583.005228 L 457.534151 593.633307 L 458.022767 567.717056 L 458.511384 585.994893 L 459 583.520415 L 459.488616 597.784177 L 459.977233 594.77683 L 460.465849 595.332207 L 460.954466 596.57689 L 461.443082 564.798418 L 461.931699 578.13289 L 462.420315 575.755104 L 462.908932 574.036582 L 463.397548 551.707326 L 463.886165 536.136664 L 464.374781 557.899065 L 464.863398 557.686449 L 465.352014 569.764364 L 465.84063 552.182153 L 466.329247 544.640498 L 466.817863 565.840483 L 467.795096 585.332457 L 468.283713 552.350212 L 468.772329 583.391618 L 469.260946 587.998712 L 469.749562 577.414613 L 470.238179 589.998754 L 470.726795 599.334813 L 471.215412 600.558448 L 471.704028 596.99335 L 472.192644 601.144312 L 472.681261 598.108178 L 473.169877 591.384503 L 473.658494 595.553001 L 474.14711 588.845607 L 474.635727 576.674766 L 475.124343 576.284712 L 475.61296 543.496477 L 476.101576 530.405364 L 476.590193 584.091079 L 477.078809 584.725584 L 477.567426 583.31802 L 478.056042 556.452336 L 478.544658 579.421262 L 479.033275 574.18486 L 479.521891 577.340081 L 480.010508 592.83585 L 480.499124 575.056262 L 480.987741 592.454206 L 481.476357 586.806776 L 481.964974 589.781776 L 482.45359 597.484708 L 482.942207 601.767425 L 483.430823 601.417441 L 483.91944 598.737196 L 484.408056 588.368692 L 485.385289 595.307319 L 485.873905 588.335327 L 486.362522 587.241531 L 487.339755 556.570093 L 487.828371 550.168888 L 488.316988 570.71541 L 488.805604 548.133355 L 489.294221 570.429947 L 489.782837 581.061449 L 490.271454 548.871028 L 490.76007 571.59145 L 491.248687 575.68961 L 491.737303 592.169031 L 492.225919 600.24765 L 492.714536 595.82243 L 493.203152 602.035152 L 493.691769 603.988764 L 494.180385 603.21461 L 494.669002 602.142056 L 495.157618 605.434214 L 495.646235 605.443458 L 496.134851 602.118722 L 496.623468 597.4859 L 497.112084 603.228334 L 498.089317 589.223921 L 498.577933 573.299065 L 499.06655 568.217523 L 499.555166 596.407768 L 500.043783 597.836655 L 500.532399 571.863511 L 501.021016 579.927747 L 501.509632 572.731438 L 501.998249 578.873144 L 502.975482 602.895012 L 503.464098 601.239291 L 503.952715 604.901196 L 504.441331 596.120569 L 504.929947 602.729302 L 505.418564 606.02689 L 505.90718 607.563084 L 506.395797 604.56183 L 506.884413 605.207799 L 507.37303 602.994325 L 507.861646 597.806716 L 508.350263 605.309314 L 508.838879 603.348479 L 509.327496 604.344184 L 510.304729 584.004889 L 510.793345 589.865785 L 511.281961 591.103634 L 511.770578 589.894506 L 512.259194 587.191121 L 513.236427 594.846784 L 513.725044 605.341666 L 514.21366 602.563136 L 514.702277 598.716708 L 515.190893 602.387515 L 515.67951 601.962979 L 516.168126 600.604772 L 516.656743 604.90324 L 517.145359 604.333086 L 517.633975 608.305156 L 518.122592 606.187325 L 518.611208 601.595037 L 519.099825 601.748057 L 519.588441 603.25273 L 520.077058 600.650706 L 520.565674 601.296929 L 521.054291 602.923387 L 521.542907 596.032527 L 522.031524 596.603024 L 522.52014 576.924904 L 523.008757 563.575557 L 523.497373 571.812312 L 523.985989 524.338318 L 524.963222 575.814953 L 525.451839 571.351524 L 525.940455 589.372302 L 526.429072 587.628785 L 526.917688 591.480352 L 527.406305 585.281837 L 527.894921 601.097079 L 528.383538 601.804493 L 528.872154 601.046229 L 529.360771 602.245455 L 529.849387 604.172218 L 530.338004 604.301248 L 530.82662 604.0463 L 531.315236 594.324829 L 531.803853 597.95624 L 532.292469 599.364368 L 532.781086 600.384778 L 533.269702 594.22164 L 534.246935 569.636367 L 534.735552 578.495837 L 535.224168 575.515514 L 535.712785 581.672468 L 536.201401 579.870044 L 536.690018 583.612563 L 537.178634 592.876779 L 537.66725 594.868879 L 538.155867 594.468505 L 538.644483 599.369004 L 539.1331 602.088333 L 539.621716 598.716589 L 540.110333 596.673237 L 540.598949 600.830264 L 541.087566 603.416942 L 541.576182 602.363516 L 542.064799 599.675836 L 543.042032 601.658835 L 543.530648 596.610356 L 544.019264 599.675629 L 544.507881 599.607692 L 544.996497 573.83231 L 545.485114 587.685136 L 545.97373 591.541025 L 546.462347 561.567649 L 546.950963 580.343957 L 547.43958 535.18555 L 547.928196 559.101168 L 548.416813 530.33322 L 548.905429 540.141308 L 549.394046 586.075416 L 549.882662 599.192832 L 550.371278 599.906444 L 550.859895 594.055274 L 551.348511 597.234038 L 551.837128 603.658492 L 552.325744 596.056866 L 552.814361 600.771804 L 553.302977 602.960513 L 553.791594 602.577674 L 554.28021 600.402519 L 554.768827 600.201337 L 555.257443 594.653526 L 555.74606 597.966135 L 556.234676 594.335563 L 556.723292 587.338318 L 557.700525 595.518428 L 558.677758 561.86959 L 559.166375 571.612059 L 559.654991 577.068548 L 560.143608 574.973832 L 560.632224 554.347362 L 561.120841 552.315104 L 561.609457 580.526684 L 562.098074 589.569886 L 562.58669 592.545794 L 563.075306 592.06867 L 563.563923 595.460088 L 564.052539 603.939425 L 564.541156 600.615421 L 565.029772 602.718973 L 565.518389 601.038737 L 566.007005 601.381637 L 566.495622 601.401528 L 566.984238 602.414895 L 567.472855 602.41714 L 567.961471 604.920345 L 568.450088 603.200675 L 568.938704 597.916658 L 569.42732 557.997196 L 569.915937 539.624922 L 570.404553 558.349313 L 570.89317 558.124189 L 571.381786 590.842991 L 571.870403 588.556216 L 572.359019 584.314104 L 572.847636 591.936134 L 573.336252 587.765792 L 573.824869 598.482152 L 574.313485 600.755983 L 574.802102 606.155677 L 575.290718 599.774172 L 575.779335 605.917457 L 576.267951 603.585421 L 576.756567 602.511418 L 577.245184 603.225 L 577.7338 605.247196 L 578.222417 604.613456 L 578.711033 600.393986 L 579.19965 601.014373 L 579.688266 594.087654 L 580.176883 592.172897 L 580.665499 602.417965 L 581.154116 593.413803 L 581.642732 596.431776 L 582.131349 593.802558 L 582.619965 583.413084 L 583.108581 592.92861 L 583.597198 597.47566 L 584.085814 589.844244 L 584.574431 599.228124 L 585.063047 601.146145 L 585.551664 599.261215 L 586.04028 604.54872 L 586.528897 605.43556 L 587.017513 603.967429 L 587.50613 600.859642 L 588.483363 605.786916 L 588.971979 608.3064 L 589.460595 606.760803 L 589.949212 604.579071 L 590.437828 601.662838 L 590.926445 602.221909 L 591.415061 600.02356 L 591.903678 597.076718 L 592.392294 600.304482 L 592.880911 592.736617 L 593.369527 589.504465 L 593.858144 582.009813 L 594.34676 570.001869 L 594.835377 589.722534 L 595.323993 590.594808 L 595.812609 595.158298 L 596.301226 604.170453 L 596.789842 605.972424 L 597.278459 606.750907 L 597.767075 606.578701 L 598.255692 605.826168 L 598.744308 605.3651 L 599.232925 603.000701 L 599.721541 603.411117 L 600.210158 605.607397 L 600.698774 605.35514 L 601.187391 599.399353 L 601.676007 600.077882 L 602.164623 602.872909 L 602.65324 600.334254 L 603.141856 601.27019 L 604.119089 586.975368 L 604.607706 587.93485 L 605.096322 579.544945 L 605.584939 511.025234 L 606.073555 530.467035 L 606.562172 575.147004 L 607.050788 590.688785 L 607.539405 576.340257 L 608.028021 581.051291 L 608.516637 574.142606 L 609.005254 593.776967 L 609.49387 597.730122 L 609.982487 588.021308 L 610.95972 592.00011 L 611.936953 604.099492 L 612.425569 601.753672 L 612.914186 602.614019 L 613.402802 604.727306 L 613.891419 601.707012 L 614.868651 603.193458 L 615.357268 602.186269 L 615.845884 581.811336 L 616.334501 580.002056 L 616.823117 569.242991 L 617.311734 541.13972 L 617.80035 560.904968 L 618.288967 569.059813 L 618.777583 589.513551 L 619.2662 550.617757 L 619.754816 588.30498 L 620.243433 596.900818 L 620.732049 595.654907 L 621.220665 596.480544 L 621.709282 600.351321 L 622.197898 591.576201 L 623.175131 606.345035 L 623.663748 606.352459 L 624.640981 602.992863 L 625.129597 598.953869 L 625.618214 600.921262 L 626.10683 602.008562 L 626.595447 601.98577 L 627.084063 600.780155 L 627.57268 593.270485 L 628.061296 580.626168 L 628.549912 590.920093 L 629.038529 584.358709 L 629.527145 586.988229 L 630.015762 578.324554 L 630.504378 586.493539 L 630.992995 589.67892 L 631.481611 598.539712 L 631.970228 590.641631 L 632.458844 590.41472 L 632.947461 598.265769 L 633.436077 600.607009 L 633.924694 600.070794 L 634.41331 602.350485 L 634.901926 605.716822 L 635.390543 602.544964 L 635.879159 605.599229 L 636.367776 605.503322 L 636.856392 598.977421 L 637.345009 599.331916 L 637.833625 602.061818 L 638.322242 602.141513 L 638.810858 587.689953 L 639.299475 587.927103 L 639.788091 591.295501 L 640.276708 597.130743 L 640.765324 597.269506 L 641.25394 595.814601 L 641.742557 593.716822 L 642.231173 601.594766 L 642.71979 597.791747 L 643.208406 593.061562 L 644.185639 601.354673 L 644.674256 599.175252 L 645.162872 598.544698 L 645.651489 604.493655 L 646.140105 600.718665 L 646.628722 605.684639 L 647.117338 599.711862 L 647.605954 597.991804 L 648.094571 600.134579 L 648.583187 604.992948 L 649.071804 600.892901 L 649.56042 604.757813 L 650.049037 604.197518 L 650.537653 597.175717 L 651.02627 587.475432 L 651.514886 597.151402 L 652.003503 591.747515 L 652.492119 581.884817 L 652.980736 590.90693 L 653.469352 591.723035 L 653.957968 593.114953 L 654.446585 590.509244 L 654.935201 597.594249 L 655.423818 597.393742 L 655.912434 593.181851 L 656.401051 600.751443 L 656.889667 598.539832 L 657.8669 601.473192 L 658.355517 600.62438 L 658.844133 605.442029 L 659.33275 604.79051 L 659.821366 600.287291 L 660.309982 604.260318 L 660.798599 599.874167 L 661.287215 605.187336 L 661.775832 603.204159 L 662.264448 597.488347 L 662.753065 584.693179 L 663.241681 587.035514 L 664.218914 567.628037 L 664.707531 550.676636 L 665.196147 590.20326 L 665.684764 598.245561 L 666.17338 587.02757 L 666.661996 581.344293 L 667.150613 595.918574 L 667.639229 597.332169 L 668.127846 602.207953 L 668.616462 603.787913 L 669.105079 601.36502 L 669.593695 601.407398 L 670.082312 605.739924 L 670.570928 605.880977 L 671.548161 605.741977 L 672.036778 598.351494 L 672.525394 596.896792 L 673.014011 603.083911 L 673.502627 595.75115 L 673.991243 597.103663 L 674.47986 597.184696 L 674.968476 587.452804 L 675.457093 585.58928 L 675.945709 568.45514 L 676.434326 591.032243 L 676.922942 595.677552 L 677.411559 589.829884 L 677.900175 599.478077 L 678.388792 603.860685 L 678.877408 604.359843 L 679.366025 600.520325 L 679.854641 598.836112 L 680.343257 602.570405 L 680.831874 603.545047 L 681.32049 601.893084 L 681.809107 603.9902 L 682.297723 607.72946 L 683.763573 601.314006 L 684.252189 602.882243 L 684.740806 602.440467 L 685.229422 600.312922 L 685.718039 596.523364 L 686.206655 600.537269 L 686.695271 589.112126 L 687.183888 588.900863 L 688.161121 559.059318 L 688.649737 550.704848 L 689.138354 577.063441 L 689.62697 584.90525 L 690.115587 583.92158 L 690.604203 597.165297 L 691.09282 593.017244 L 691.581436 599.644375 L 692.070053 597.856613 L 692.558669 596.960445 L 693.047285 595.603738 L 693.535902 597.771788 L 694.024518 588.360944 L 694.513135 601.864265 L 695.001751 604.419315 L 695.490368 598.173942 L 695.978984 603.084638 L 696.467601 602.515075 L 696.956217 598.070038 L 697.444834 588.151771 L 697.93345 596.181416 L 698.422067 589.082027 L 698.910683 593.074224 L 699.399299 579.308508 L 699.887916 545.37757 L 700.376532 567.779166 L 700.865149 581.624207 L 701.353765 590.842991 L 701.842382 582.961682 L 702.330998 584.220653 L 702.819615 570.071556 L 703.796848 597.383194 L 704.285464 599.408411 L 704.774081 600.274398 L 705.262697 599.541808 L 705.751313 594.082031 L 706.23993 603.315173 L 706.728546 602.019711 L 707.217163 597.09756 L 707.705779 604.039305 L 708.194396 602.995769 L 708.683012 597.766011 L 709.171629 598.784299 L 709.660245 594.03725 L 710.637478 568.272897 L 711.126095 566.828972 L 711.614711 573.437871 L 712.103327 586.092483 L 712.591944 582.70401 L 713.08056 584.180289 L 713.569177 593.591835 L 714.057793 589.780685 L 714.54641 592.526168 L 715.035026 592.214843 L 716.012259 591.016493 L 716.500876 597.740187 L 716.989492 595.292577 L 717.478109 601.039053 L 717.966725 601.609346 L 718.455342 606.88401 L 718.943958 604.747342 L 719.432574 606.044397 L 720.409807 591.703448 L 720.898424 596.321495 L 721.38704 561.989572 L 721.875657 578.257441 L 722.364273 543.286491 L 722.85289 528.613409 L 723.341506 491.918341 L 723.830123 570.760748 L 724.318739 558.747609 L 724.807356 580.832243 L 725.295972 565.309141 L 725.784588 562.338823 L 726.273205 581.220941 L 726.761821 586.625142 L 727.250438 594.23985 L 727.739054 594.397791 L 728.227671 588.925801 L 728.716287 595.148378 L 729.204904 599.791343 L 730.182137 595.581308 L 730.670753 596.404517 L 731.15937 591.665203 L 731.647986 596.321341 L 732.136602 597.221495 L 732.625219 598.563529 L 733.113835 583.914306 L 733.602452 579.064338 L 734.091068 544.032162 L 734.579685 593.110971 L 735.068301 583.029907 L 735.556918 581.334641 L 736.045534 580.582259 L 736.534151 578.849108 L 737.022767 583.338318 L 738 600.867846 L 738.488616 602.357962 L 738.977233 598.370553 L 739.465849 585.9866 L 739.954466 588.546877 L 740.443082 589.542487 L 740.931699 601.219127 L 741.420315 604.795491 L 741.908932 601.610467 L 742.397548 602.133429 L 742.886165 600.518692 L 743.374781 595.258054 L 743.863398 595.098505 L 744.352014 595.069839 L 744.84063 592.423868 L 745.329247 586.326603 L 745.817863 589.050443 L 746.30648 582.908411 L 746.795096 580.689107 L 747.772329 586.943106 L 748.260946 583.456016 L 748.749562 594.445794 L 749.238179 593.094631 L 749.726795 601.589319 L 750.215412 600.021184 L 751.192644 592.803779 L 751.681261 597.141072 L 752.169877 598.857009 L 752.658494 604.18589 L 753.14711 601.215654 L 753.635727 602.279207 L 754.124343 600.592245 L 754.61296 599.707264 L 755.101576 600.826848 L 755.590193 601.068458 L 756.078809 599.997196 L 756.567426 590.090888 L 757.056042 590.695794 L 757.544658 579.544945 L 758.033275 581.676168 L 759.010508 596.790421 L 759.499124 591.66961 L 759.987741 588.638233 L 760.476357 588.91596 L 760.964974 600.144393 L 761.45359 603.398876 L 761.942207 602.288986 L 762.430823 603.28904 L 762.91944 601.336077 L 763.408056 600.771804 L 763.896673 601.792796 L 764.385289 595.48413 L 765.362522 602.708899 L 765.851138 601.401068 L 766.339755 595.642409 L 766.828371 585.333035 L 767.805604 588.60341 L 768.294221 589.164297 L 768.782837 594.481054 L 769.271454 577.09568 L 769.76007 582.71215 L 770.248687 578.367375 L 770.737303 550.909617 L 771.714536 569.179652 L 772.203152 558.083061 L 773.180385 593.765888 L 773.669002 586.143925 L 774.157618 591.487198 L 774.646235 591.534257 L 775.134851 595.252948 L 775.623468 592.383135 L 776.112084 584.420756 L 776.600701 598.18948 L 777.089317 587.754393 L 777.577933 592.998251 L 778.06655 602.1517 L 778.555166 602.828717 L 779.043783 602.846625 L 779.532399 597.80448 L 780.509632 569.420518 L 780.998249 569.756922 L 781.486865 590.965524 L 781.975482 532.13972 L 782.464098 200.271028 L 782.952715 550.676636 L 783.441331 573.390654 L 783.929947 576.04031 L 784.418564 590.384008 L 784.90718 576.351367 L 785.395797 588.790654 L 785.884413 594.12737 L 786.37303 602.125448 L 786.861646 588.697052 L 787.350263 570.545144 L 787.838879 600.170368 L 788.327496 598.261296 L 788.816112 598.685811 L 789.304729 597.450296 L 789.793345 594.193458 L 790.281961 574.246509 L 790.770578 587.704319 L 791.259194 582.328819 L 791.747811 580.618047 L 792.236427 565.759346 L 792.725044 547.320561 L 793.21366 551.643224 L 793.702277 556.998571 L 794.190893 567.54475 L 794.67951 548.092749 L 795.168126 506.882573 L 795.656743 577.350779 L 796.145359 553.593575 L 796.633975 550.146729 L 797.122592 586.937617 L 797.611208 591.913245 L 798.099825 595.258054 L 798.588441 590.667757 L 799.077058 590.450467 L 799.565674 583.13271 L 800.054291 584.645492 L 800.542907 597.017118 L 801.031524 596.164591 L 801.52014 591.954928 L 802.008757 595.335505 L 802.497373 587.534579 L 802.985989 569.647381 L 803.474606 574.348999 L 803.963222 575.662836 L 804.451839 557.327103 L 804.940455 556.990654 L 805.429072 552.324007 L 805.917688 577.246542 L 806.406305 587.63271 L 806.894921 565.797401 L 807.383538 575.845687 L 807.872154 574.88972 L 808.360771 581.875165 L 808.849387 565.266059 L 809.338004 561.850123 L 809.82662 591.539772 L 810.315236 593.936352 L 810.803853 601.885234 L 811.292469 600.607009 L 811.781086 599.915672 L 812.269702 601.068458 L 812.758319 600.751836 L 813.246935 601.582237 L 813.735552 591.18596 L 814.224168 587.386057 L 814.712785 591.947083 L 815.201401 589.238826 L 815.690018 593.280309 L 816.66725 572.810687 L 817.155867 566.562617 L 817.644483 573.918925 L 818.1331 568.853206 L 818.621716 592.021835 L 819.110333 594.027401 L 819.598949 592.803779 L 820.087566 583.413084 L 820.576182 590.45457 L 821.064799 595.175447 L 821.553415 588.523635 L 822.042032 590.587276 L 822.530648 565.286916 L 823.019264 588.1565 L 823.507881 595.462419 L 823.996497 605.203989 L 824.485114 600.415319 L 824.97373 599.959567 L 825.462347 604.140072 L 825.950963 591.507187 L 826.43958 597.265027 L 826.928196 595.693458 L 827.416813 592.941481 L 827.905429 583.496737 L 828.394046 588.120782 L 828.882662 586.509043 L 829.371278 567.114236 L 829.859895 592.75514 L 830.348511 569.530841 L 830.837128 588.607647 L 831.325744 599.034579 L 831.814361 597.363435 L 832.302977 599.90053 L 832.791594 591.767587 L 833.28021 589.142416 L 833.768827 601.802287 L 834.257443 602.771623 L 834.74606 601.859133 L 835.234676 601.951583 L 835.723292 600.938017 L 836.211909 595.850939 L 836.700525 588.128529 L 837.189142 598.98785 L 837.677758 599.304099 L 838.166375 597.347664 L 838.654991 586.299285 L 839.143608 552.189635 L 840.120841 589.767056 L 840.609457 586.185981 L 841.098074 590.246774 L 841.58669 569.792523 L 842.075306 585.104398 L 842.563923 590.20326 L 843.052539 593.852939 L 843.541156 596.41317 L 844.029772 597.616677 L 844.518389 599.444644 L 845.007005 603.253037 L 845.495622 604.248095 L 846.961471 596.748173 L 847.450088 602.786745 L 847.938704 599.060932 L 848.42732 592.376444 L 848.915937 599.053271 L 849.404553 598.792863 L 849.89317 597.320901 L 850.381786 580.332774 L 850.870403 557.273481 L 851.359019 560.238711 L 851.847636 566.213859 L 852.336252 550.520853 L 852.824869 588.740556 L 853.313485 505.993015 L 853.802102 574.569764 L 854.290718 595.135259 L 854.779335 585.597196 L 855.267951 590.059654 L 855.756567 585.853555 L 856.245184 592.048598 L 856.7338 596.071963 L 857.222417 601.441311 L 857.711033 592.081676 L 858.19965 593.948492 L 858.688266 598.534886 L 859.176883 596.737468 L 859.665499 598.477365 L 860.154116 583.636109 L 860.642732 589.443224 L 861.131349 591.247577 L 861.619965 586.278505 L 862.108581 583.698556 L 862.597198 491.366355 L 863.085814 562.624443 L 863.574431 500.06729 L 864.063047 532.453312 L 864.551664 543.431776 L 865.04028 545.940638 L 865.528897 576.980062 L 866.017513 578.853505 L 866.50613 544.400623 L 866.994746 588.114444 L 867.483363 584.176995 L 867.971979 593.45166 L 868.460595 592.630841 L 868.949212 600.984033 L 869.437828 595.666229 L 869.926445 586.674898 L 870.415061 589.722897 L 870.903678 597.609346 L 871.392294 601.282372 L 871.880911 596.77465 L 872.369527 599.941859 L 872.858144 596.050156 L 873.34676 612.391452 L 873.835377 563.416822 L 874.323993 501.302103 L 874.812609 373.094159 L 875.301226 553.331521 L 875.789842 532.180935 L 876.278459 583.923364 L 876.767075 578.056924 L 877.255692 582.506542 L 877.744308 578.306776 L 878.232925 594.433475 L 878.721541 594.611895 L 879.210158 594.007083 L 879.698774 587.565981 L 880.187391 598.475756 L 880.676007 600.75 L 881.164623 598.361957 L 881.65324 599.914047 L 882.630473 586.496028 L 883.119089 596.854357 L 883.607706 595.916971 L 884.096322 562.903738 L 884.584939 584.340867 L 885.073555 580.223 L 885.562172 558.45514 L 886.050788 462.244141 L 886.539405 568.935362 L 887.028021 451.864231 L 887.516637 511.061215 L 888.005254 550.64965 L 888.49387 532.679439 L 888.982487 531.151402 L 889.471103 574.144726 L 889.95972 569.491589 L 890.448336 567.894393 L 890.936953 585.896221 L 891.425569 586.854385 L 891.914186 591.646839 L 892.891419 588.01003 L 893.380035 587.272897 L 893.868651 595.767854 L 894.845884 593.445397 L 895.334501 594.829296 L 895.823117 589.23715 L 896.311734 578.732998 L 896.80035 584.792688 L 897.288967 585.111174 L 897.777583 586.96215 L 898.2662 550.068224 L 899.243433 511.323069 L 899.732049 540.300935 L 900.220665 520.64503 L 900.709282 592.01552 L 901.197898 598.352379 L 901.686515 583.226022 L 902.175131 595.341221 L 902.663748 588.933254 L 903.152364 585.809234 L 903.640981 594.146145 L 904.618214 585.829038 L 905.10683 599.953257 L 905.595447 594.915981 L 906.084063 591.194142 L 906.57268 589.369626 L 907.061296 596.110125 L 907.549912 581.290797 L 908.527145 590.304602 L 909.015762 586.640187 L 909.992995 582.814953 L 910.481611 571.576051 L 910.970228 574.120694 L 911.458844 589.261185 L 911.947461 594.570263 L 912.436077 583.340277 L 912.924694 595.085796 L 913.41331 590.476111 L 913.901926 594.33237 L 914.390543 586.50075 L 914.879159 602.292688 L 915.367776 602.320861 L 915.856392 603.847584 L 916.345009 599.002752 L 916.833625 603.190489 L 917.322242 600.594393 L 917.810858 593.666208 L 918.299475 591.06028 L 918.788091 590.729152 L 919.276708 598.101722 L 919.765324 583.007899 L 920.25394 589.840654 L 920.742557 593.833546 L 921.231173 561.399949 L 921.71979 547.706993 L 922.208406 582.996028 L 922.697023 535.59317 L 923.185639 570.616822 L 923.674256 577.695574 L 924.162872 589.089179 L 924.651489 597.103663 L 925.140105 588.864183 L 925.628722 594.435057 L 926.117338 593.790162 L 926.605954 601.72206 L 927.094571 597.90061 L 927.583187 587.620935 L 928.071804 591.995072 L 928.56042 601.369646 L 929.049037 601.0631 L 929.537653 596.842991 L 930.02627 596.071963 L 930.514886 599.288814 L 931.003503 597.593417 L 931.492119 597.594249 L 931.980736 588.157843 L 932.469352 590.267705 L 932.957968 588.413832 L 933.446585 573.194949 L 933.935201 562.448768 L 934.423818 564.933497 L 934.912434 584.017202 L 935.401051 583.334579 L 935.889667 583.057944 L 936.8669 593.746053 L 937.355517 588.649346 L 937.844133 599.039252 L 938.33275 593.741355 L 938.821366 574.710758 L 939.309982 567.415475 L 939.798599 592.380213 L 940.287215 566.730841 L 940.775832 590.243507 L 941.264448 594.118451 L 941.753065 589.803855 L 942.241681 593.857886 L 942.730298 584.340867 L 943.218914 592.77178 L 943.707531 572.974416 L 944.196147 575.374206 L 944.684764 520.650664 L 945.17338 524.897664 L 945.661996 484.73271 L 946.639229 556.682243 L 947.127846 568.702586 L 947.616462 574.799873 L 948.105079 576.660927 L 948.593695 544.84428 L 949.082312 543.284579 L 949.570928 567.292241 L 950.059545 585.01731 L 950.548161 584.104529 L 951.036778 595.461265 L 951.525394 591.535123 L 952.014011 591.798195 L 952.502627 599.06729 L 952.991243 598.275 L 953.47986 600.74769 L 953.968476 597.863502 L 954.457093 597.675335 L 954.945709 574.231963 L 955.434326 588.959388 L 955.922942 584.706102 L 956.411559 553.794887 L 956.900175 575.740622 L 957.388792 528.459813 L 957.877408 538.425545 L 958.366025 493.790764 L 958.854641 543.910345 L 959.343257 561.812754 L 959.831874 524.240187 L 960.32049 586.015685 L 960.809107 583.989 L 961.297723 568.182265 L 961.78634 572.003144 L 962.274956 578.26472 L 962.763573 593.162858 L 963.252189 582.52684 L 963.740806 595.096427 L 964.229422 598.622553 L 964.718039 601.283651 L 965.206655 595.915331 L 966.183888 601.691415 L 966.672504 600.700815 L 967.161121 598.530181 L 967.649737 586.73271 L 968.138354 587.895701 L 968.62697 586.689801 L 969.115587 568.861682 L 969.604203 569.18183 L 970.09282 529.51472 L 970.581436 509.556714 L 971.070053 573.0753 L 971.558669 579.49818 L 972.047285 576.518004 L 973.513135 534.394766 L 974.001751 584.541589 L 974.978984 597.270866 L 975.467601 589.305903 L 975.956217 575.424079 L 976.444834 589.758879 L 976.93345 581.662816 L 977.422067 592.015144 L 977.910683 590.192807 L 978.399299 584.675603 L 978.887916 575.135459 L 979.376532 571.816942 L 979.865149 543.138833 L 980.353765 553.225584 L 980.842382 518.627103 L 981.330998 529.465654 L 981.819615 569.740187 L 982.308231 581.018692 L 982.796848 598.40257 L 983.285464 577.54704 L 983.774081 585.442084 L 984.262697 543.452804 L 984.751313 584.464695 L 985.23993 593.498869 L 985.728546 596.055607 L 986.217163 594.326423 L 986.705779 595.996921 L 987.194396 590.059654 L 987.683012 593.418298 L 988.171629 594.718946 L 988.660245 597.462294 L 989.148862 588.985425 L 989.637478 600.946252 L 990.126095 598.037096 L 990.614711 590.597664 L 991.103327 576.936449 L 991.591944 573.624533 L 992.08056 567.347664 L 992.569177 540.210981 L 993.057793 571.530719 L 993.54641 563.151648 L 994.035026 589.722534 L 994.523643 585.937723 L 995.012259 585.714953 L 995.500876 584.44712 L 995.989492 599.175746 L 996.478109 595.352654 L 996.966725 590.409931 L 997.455342 598.228325 L 997.943958 602.107326 L 998.432574 601.840017 L 998.921191 603.093638 L 999.409807 605.325124 L 999.898424 599.104366 L 1000.38704 598.944449 L 1000.875657 593.226168 L 1001.364273 596.208612 L 1001.85289 594.1488 L 1002.341506 588.507822 L 1002.830123 587.534579 L 1003.807356 566.670453 L 1004.295972 579.580817 L 1004.784588 508.048598 L 1005.273205 573.142056 L 1005.761821 568.202804 L 1006.250438 592.598562 L 1006.739054 596.963902 L 1007.227671 595.54701 L 1007.716287 600.144393 L 1008.204904 595.6313 L 1008.69352 600.905078 L 1009.182137 600.925984 L 1010.15937 586.528738 L 1010.647986 591.620391 L 1011.136602 600.755741 L 1011.625219 603.314247 L 1012.113835 601.931776 L 1012.602452 598.370798 L 1013.091068 588.86763 L 1013.579685 597.965888 L 1014.068301 595.42125 L 1014.556918 580.420093 L 1015.534151 490.593575 L 1016.022767 469.749533 L 1016.511384 543.368692 L 1017 571.478704 L 1017.977233 556.2 L 1018.465849 590.296781 L 1018.954466 556.957009 L 1019.443082 569.836682 L 1019.931699 588.17243 L 1020.420315 583.253055 L 1020.908932 590.20326 L 1021.397548 582.23868 L 1022.374781 600.99566 L 1022.863398 601.007126 L 1023.352014 598.828972 L 1023.84063 593.560846 L 1024.329247 593.162858 L 1024.817863 600.278696 L 1025.30648 601.441498 L 1025.795096 594.992523 L 1026.772329 561.333645 L 1027.260946 563.696334 L 1027.749562 539.385047 L 1028.238179 429.329822 L 1028.726795 527.370561 L 1029.215412 564.119051 L 1029.704028 572.849086 L 1030.192644 567.721071 L 1030.681261 590.397128 L 1031.169877 568.015463 L 1031.658494 575.135459 L 1032.14711 598.826692 L 1032.635727 592.253681 L 1033.124343 593.146781 L 1033.61296 596.407768 L 1034.101576 593.684801 L 1034.590193 598.062617 L 1035.078809 604.724255 L 1036.056042 596.848248 L 1036.544658 584.948543 L 1037.033275 599.390295 L 1037.521891 590.610174 L 1038.010508 557.261215 L 1038.499124 545.534579 L 1038.987741 549.939564 L 1039.476357 567.706985 L 1040.45359 578.847418 L 1040.942207 574.409079 L 1041.430823 579.973515 L 1041.91944 558.271963 L 1042.408056 551.532827 L 1042.896673 579.177964 L 1043.385289 588.70182 L 1043.873905 588.500394 L 1044.362522 570.905862 L 1044.851138 587.537232 L 1045.828371 586.135148 L 1046.316988 599.341188 L 1046.805604 594.42158 L 1047.782837 598.854953 L 1048.271454 599.471819 L 1048.76007 593.821023 L 1049.248687 585.970014 L 1049.737303 565.460305 L 1050.225919 579.38972 L 1050.714536 567.894393 L 1051.203152 565.160748 L 1052.180385 579.395983 L 1052.669002 516.566355 L 1053.157618 550.305769 L 1053.646235 540.497196 L 1054.134851 569.825737 L 1054.623468 573.685864 L 1055.112084 576.631153 L 1055.600701 588.653526 L 1056.089317 581.352336 L 1056.577933 583.591504 L 1057.06655 596.651827 L 1057.555166 596.480841 L 1058.043783 603.207806 L 1058.532399 600.187686 L 1059.509632 590.268055 L 1059.998249 589.555348 L 1060.486865 590.382767 L 1060.975482 573.452804 L 1061.464098 531.963084 L 1061.952715 579.641291 L 1062.441331 564.751869 L 1062.929947 359.552103 L 1063.418564 358.742523 L 1063.90718 363.011215 L 1064.395797 560.729763 L 1064.884413 536.728403 L 1065.861646 581.315336 L 1066.350263 588.118267 L 1066.838879 578.439887 L 1067.327496 595.636854 L 1067.816112 596.87027 L 1068.304729 592.526168 L 1068.793345 594.166944 L 1069.281961 593.542253 L 1069.770578 593.232432 L 1070.259194 597.48078 L 1070.747811 589.104673 L 1071.236427 597.763874 L 1071.725044 589.0435 L 1072.21366 593.654957 L 1072.702277 580.293556 L 1073.190893 578.345964 L 1074.168126 593.381824 L 1074.656743 580.31215 L 1075.145359 584.614088 L 1075.633975 524.097451 L 1076.122592 571.057131 L 1076.611208 588.644213 L 1077.099825 595.700198 L 1077.588441 596.396965 L 1078.077058 594.1488 L 1078.565674 583.796408 L 1079.054291 598.203628 L 1079.542907 604.277953 L 1080.031524 593.42243 L 1080.52014 590.043748 L 1081.008757 599.931287 L 1081.497373 574.276903 L 1082.474606 593.894685 L 1082.963222 589.0435 L 1083.451839 587.402842 L 1083.940455 592.805607 L 1084.917688 557.146729 L 1085.406305 576.604313 L 1085.894921 541.696573 L 1086.383538 549.656075 L 1086.872154 589.27074 L 1087.360771 581.116822 L 1087.849387 574.973832 L 1088.338004 572.164836 L 1088.82662 563.517757 L 1089.315236 585.017812 L 1089.803853 583.032827 L 1090.292469 577.473391 L 1090.781086 597.550693 L 1091.269702 597.398862 L 1091.758319 600.148722 L 1092.246935 599.538492 L 1092.735552 586.749533 L 1093.224168 579.074668 L 1093.712785 582.257673 L 1094.201401 597.199092 L 1094.690018 598.178889 L 1095.178634 588.554121 L 1096.644483 584.517847 M 1096.644483 590.871028 L 1097.1331 563.521963 L 1097.621716 592.274433 L 1098.110333 597.60145 L 1098.598949 584.267577 L 1099.087566 560.73453 L 1099.576182 565.685748 L 1100.064799 509.553271 L 1100.553415 554.544775 L 1101.042032 560.842991 L 1101.530648 532.385047 L 1102.019264 566.730841 L 1102.507881 587.958091 L 1102.996497 594.570263 L 1103.485114 592.558879 L 1103.97373 597.172619 L 1104.462347 586.117455 L 1105.43958 578.206797 L 1105.928196 586.980273 L 1106.416813 586.328972 L 1106.905429 573.894393 L 1107.394046 582.983178 L 1107.882662 588.71215 L 1108.371278 585.085575 L 1108.859895 574.569042 L 1109.348511 554.630293 L 1109.837128 572.147664 L 1110.325744 111.6 L 1110.814361 434.521835 L 1111.302977 532.369346 L 1111.791594 580.335981 L 1112.28021 559.201529 L 1112.768827 579.213084 L 1113.257443 572.205289 L 1113.74606 585.087081 L 1114.234676 580.232291 L 1114.723292 573.83231 L 1115.211909 590.341121 L 1115.700525 584.081007 L 1116.189142 582.300935 L 1116.677758 577.692948 L 1117.166375 590.94906 L 1117.654991 573.808528 L 1118.143608 592.670837 L 1118.632224 583.546899 L 1119.120841 588.439422 L 1119.609457 586.765664 L 1120.098074 582.600438 L 1120.58669 593.684801 L 1121.075306 586.389231 L 1121.563923 580.810034 L 1122.052539 587.581682 L 1122.541156 570.603738 L 1123.029772 549.06729 L 1123.518389 567.485694 L 1124.007005 465.233357 L 1124.495622 567.59348 L 1124.984238 531.550935 L 1125.472855 524.005526 L 1125.961471 562.131953 L 1126.450088 560.286032 L 1126.938704 578.39949 L 1127.42732 586.471495 L 1127.915937 578.085981 L 1128.89317 596.986966 L 1129.381786 580.262192 L 1129.870403 596.291152 L 1130.359019 596.369956 L 1130.847636 595.95549 L 1131.336252 595.175447 L 1131.824869 583.948055 L 1132.313485 577.023257 L 1132.802102 581.724557 L 1133.290718 544.702159 L 1133.779335 593.828037 L 1134.267951 560.842991 L 1135.245184 516.625234 L 1135.7338 539.811589 L 1136.222417 576.620249 L 1136.711033 581.469772 L 1137.19965 584.276636 L 1137.688266 590.196079 L 1138.176883 582.710835 L 1138.665499 585.819423 L 1139.154116 585.633477 L 1139.642732 573.284275 L 1140.619965 585.765421 L 1141.108581 582.590051 L 1141.597198 593.771569 L 1142.085814 595.424299 L 1142.574431 592.842178 L 1143.063047 589.581663 L 1143.551664 592.486764 L 1144.04028 581.074031 L 1144.528897 563.44604 L 1145.017513 562.594249 L 1145.50613 555.803683 L 1145.994746 474.382171 L 1146.483363 553.335981 L 1146.971979 554.812404 L 1147.460595 567.466822 L 1147.949212 545.534579 L 1148.437828 576.940152 L 1148.926445 550.428855 L 1149.415061 554.937823 L 1149.903678 553.404673 L 1150.392294 579.126316 L 1150.880911 575.77775 L 1151.369527 596.104673 L 1151.858144 600.482203 L 1152.34676 600.452552 L 1152.835377 596.1919 L 1153.323993 598.873794 L 1153.812609 593.52366 L 1154.301226 575.279547 L 1154.789842 585.827956 L 1155.278459 564.677274 L 1155.767075 578.022897 L 1156.255692 568.399065 L 1156.744308 600.22568 L 1157.232925 593.274656 L 1157.721541 583.117028 L 1158.210158 585.239171 L 1158.698774 586.051402 L 1159.187391 567.095327 L 1159.676007 572.385631 L 1160.164623 588.061682 L 1160.65324 578.401402 L 1161.141856 597.102771 L 1161.630473 604.624922 L 1162.119089 603.147897 L 1162.607706 597.275985 L 1163.096322 605.175561 L 1163.584939 605.144693 L 1164.562172 596.512659 L 1165.050788 592.24486 L 1165.539405 602.471191 L 1166.028021 600.180915 L 1166.516637 595.118283 L 1167.005254 594.326423 L 1167.49387 595.54734 L 1167.982487 581.238119 L 1168.471103 595.084882 L 1168.95972 590.843321 L 1169.448336 567.634558 L 1169.936953 565.009777 L 1170.425569 555.509291 L 1170.914186 555.863551 L 1171.402802 563.315888 L 1171.891419 565.609346 L 1172.380035 586.258879 L 1172.868651 596.305136 L 1173.357268 601.641389 L 1173.845884 592.491841 L 1174.334501 602.133429 L 1174.823117 601.215094 L 1175.311734 595.497196 L 1175.80035 596.626815 L 1176.288967 595.884112 L 1176.777583 600.602804 L 1177.2662 597.373487 L 1177.754816 597.289836 L 1178.243433 598.385277 L 1178.732049 592.957375 L 1179.220665 580.488785 L 1179.709282 582.568161 L 1180.197898 578.772073 L 1180.686515 565.637383 L 1181.175131 560.178233 L 1181.663748 500.696334 L 1182.152364 491.719626 L 1182.640981 554.303271 L 1183.129597 590.197117 L 1183.618214 580.795027 L 1184.10683 558.903463 L 1184.595447 566.82669 L 1185.084063 588.209056 L 1185.57268 596.104673 L 1186.061296 595.892365 L 1186.549912 593.441423 L 1187.038529 592.175722 L 1187.527145 578.559112 L 1188.015762 570.506745 L 1188.504378 597.204446 L 1188.992995 598.899065 L 1189.481611 604.929773 L 1189.970228 601.923255 L 1190.458844 601.389052 L 1190.947461 583.216822 L 1191.436077 489.894393 L 1191.924694 557.37757 L 1192.41331 512.680374 L 1192.901926 576.71838 L 1193.390543 572.180235 L 1193.879159 559.944319 L 1194.367776 565.839707 L 1194.856392 522.796262 L 1195.345009 575.940328 L 1195.833625 591.972402 L 1196.322242 551.868479 L 1196.810858 592.59769 L 1197.299475 597.032243 L 1197.788091 569.543925 L 1198.276708 584.173598 L 1198.765324 574.64264 L 1199.25394 578.713133 L 1199.742557 596.544275 L 1200.231173 600.411117 L 1200.71979 595.73271 L 1201.208406 596.990187 L 1202.185639 590.94906 L 1202.674256 573.83231 L 1203.162872 546.166978 L 1203.651489 468.740187 L 1204.140105 537.470784 L 1204.628722 561.806457 L 1205.117338 489.473832 L 1205.605954 551.069159 L 1206.094571 535.266168 L 1206.583187 576.638282 L 1207.071804 578.463721 L 1207.56042 588.491355 L 1208.537653 563.277696 L 1209.02627 601.54631 L 1209.514886 595.164014 L 1210.003503 595.464717 L 1210.492119 595.221178 L 1210.980736 590.38865 L 1211.469352 587.313785 L 1211.957968 590.395744 L 1212.446585 587.857378 L 1212.935201 589.435864 L 1213.423818 589.98785 L 1213.912434 594.973732 L 1214.889667 559.371028 L 1215.378284 578.992031 L 1215.8669 550.362617 L 1216.355517 554.328369 L 1216.844133 508.735514 L 1217.33275 565.203183 L 1217.821366 533.268224 L 1218.309982 524.107924 L 1219.287215 565.803505 L 1219.775832 563.833399 L 1220.264448 589.954312 L 1220.753065 582.571963 L 1221.241681 597.045455 L 1221.730298 598.010047 L 1222.218914 595.82571 L 1222.707531 589.015237 L 1223.196147 590.842991 L 1223.684764 601.136191 L 1224.17338 599.555607 L 1224.661996 602.038703 L 1225.150613 592.598562 L 1225.639229 595.280908 L 1226.127846 592.794849 L 1226.616462 565.075878 L 1227.105079 575.435624 L 1227.593695 570.276351 L 1228.082312 560.604294 L 1228.570928 494.587356 L 1229.059545 545.471495 L 1229.548161 465.410748 L 1230.036778 557.545794 L 1230.525394 562.392425 L 1231.014011 589.187707 L 1231.502627 596.758879 L 1231.991243 589.406425 L 1232.47986 594.861682 L 1232.968476 587.250796 L 1233.457093 600.490674 L 1233.945709 600.476636 L 1234.922942 593.464188 L 1235.411559 583.253055 L 1235.900175 583.069626 L 1236.877408 600.231421 L 1237.366025 584.403592 L 1237.854641 597.540541 L 1238.343257 590.622745 L 1238.831874 538.033022 L 1239.32049 569.714019 L 1239.809107 583.170824 L 1240.297723 582.786916 L 1240.78634 581.714405 L 1241.274956 589.63307 L 1241.763573 581.064712 L 1242.252189 590.558901 L 1242.740806 594.391598 L 1243.229422 594.574486 L 1244.206655 600.140063 L 1244.695271 599.76079 L 1245.183888 596.368139 L 1245.672504 590.161648 L 1246.161121 600.670093 L 1246.649737 592.438916 L 1247.138354 593.846272 L 1247.62697 589.707996 L 1248.115587 603.487364 L 1248.604203 600.64653 L 1249.09282 587.015696 L 1249.581436 596.87027 L 1250.070053 596.631574 L 1250.558669 596.937135 L 1251.535902 585.862089 L 1252.024518 594.146928 L 1252.513135 594.686355 L 1253.001751 584.983178 L 1253.490368 589.380433 L 1253.978984 588.179439 L 1254.467601 585.211661 L 1254.956217 593.392564 L 1255.444834 591.304157 L 1255.93345 594.31112 L 1256.422067 593.924212 L 1256.910683 592.001763 L 1257.399299 595.016313 L 1257.887916 586.675935 L 1258.376532 586.725 L 1258.865149 579.621028 L 1259.353765 567.782243 L 1259.842382 599.123364 L 1260.330998 587.825047 L 1260.819615 601.0631 L 1261.308231 593.82722 L 1261.796848 590.20026 L 1262.285464 584.519286 L 1262.774081 588.965224 L 1263.262697 579.49486 L 1263.751313 576.286332 L 1264.23993 566.881461 L 1264.728546 565.311718 L 1265.217163 563.095093 L 1265.705779 590.429439 L 1266.194396 580.612197 L 1266.683012 589.165061 L 1267.171629 592.189104 L 1267.660245 583.859133 L 1268.148862 600.300312 L 1269.126095 595.960992 L 1269.614711 594.800267 L 1270.103327 587.441753 L 1270.591944 589.882451 L 1271.08056 589.275111 L 1272.057793 567.417757 L 1272.54641 584.001869 L 1273.035026 562.57752 L 1273.523643 587.661735 L 1274.012259 540.484615 L 1274.500876 542.334661 L 1274.989492 567.169007 L 1275.478109 571.992325 L 1275.966725 570.902446 L 1276.455342 564.537617 L 1277.432574 581.141596 L 1277.921191 578.441121 L 1278.409807 593.405903 L 1278.898424 593.023364 L 1279.38704 594.550935 L 1279.875657 596.47274 L 1280.364273 596.186601 L 1280.85289 600.198131 L 1281.341506 597.613897 L 1281.830123 593.35912 L 1282.318739 596.467237 L 1282.807356 596.098559 L 1283.295972 596.608905 L 1283.784588 597.971083 L 1284.273205 596.610356 L 1284.761821 593.591835 L 1285.250438 583.170824 L 1285.739054 589.909594 L 1286.227671 546.853458 L 1286.716287 465.803271 L 1287.204904 563.643698 L 1287.69352 555.611215 L 1288.182137 562.231919 L 1288.670753 573.011215 L 1289.15937 458.345327 L 1289.647986 579.043679 L 1290.136602 562.850899 L 1290.625219 589.300935 L 1291.113835 563.500072 L 1291.602452 570.126625 L 1292.091068 592.256011 L 1292.579685 594.940572 L 1293.068301 591.786128 L 1293.556918 593.598032 L 1294.045534 596.448428 L 1294.534151 593.938908 L 1295.022767 577.951084 L 1295.511384 547.061059 L 1296 570.545144 L 1296.488616 545.656397 L 1296.977233 536.585047 L 1297.465849 498.321379 L 1297.954466 561.061682 L 1298.443082 575.320176 L 1298.931699 578.874533 L 1299.420315 589.75161 L 1299.908932 573.724166 L 1300.397548 589.104673 L 1300.886165 594.301602 L 1301.374781 579.188293 L 1301.863398 551.707901 L 1302.352014 584.638965 L 1302.84063 573.391472 L 1303.329247 596.159088 L 1303.817863 595.262884 L 1304.30648 596.963902 L 1304.795096 600.047352 L 1305.772329 594.45781 L 1306.260946 589.759696 L 1306.749562 599.039841 L 1307.238179 585.353271 L 1307.726795 591.48785 L 1308.215412 586.493539 L 1308.704028 530.302966 L 1309.192644 555.378329 L 1309.681261 571.702804 L 1310.169877 466.773257 L 1310.658494 288.628037 L 1311.14711 441.55514 L 1311.635727 556.173316 L 1312.124343 569.835344 L 1312.61296 565.553271 L 1313.101576 581.46012 L 1313.590193 551.308472 L 1314.078809 586.63356 L 1314.567426 587.144745 L 1315.056042 584.483602 L 1315.544658 585.648761 L 1316.033275 588.035563 L 1317.010508 594.975206 L 1317.987741 582 L 1318.964974 559.845327 L 1319.45359 575.755104 L 1319.942207 564.303898 L 1320.430823 580.06333 L 1320.91944 555.291589 L 1321.408056 581.011555 L 1321.896673 579.933597 L 1322.385289 591.179439 L 1322.873905 552.953271 L 1323.362522 562.364019 L 1323.851138 567.127929 L 1324.339755 575.354089 L 1324.828371 581.214953 L 1325.316988 578.806287 L 1325.805604 560.471126 L 1326.294221 585.34486 L 1326.782837 597.855931 L 1327.271454 591.113469 L 1327.76007 573.267557 L 1328.248687 547.280632 L 1328.737303 577.629372 L 1329.225919 569.059813 L 1329.714536 573.007039 L 1330.203152 588.614019 L 1330.691769 580.161231 L 1331.180385 579.054009 L 1332.157618 582.758879 L 1332.646235 574.27465 L 1333.134851 568.588785 L 1333.623468 550.966596 L 1334.112084 583.671323 L 1334.600701 545.092991 L 1335.089317 558.48785 L 1335.577933 566.071963 L 1336.555166 591.15503 L 1337.043783 579.765324 L 1337.532399 574.644112 L 1338.021016 602.613191 L 1338.998249 595.229192 L 1339.486865 585.802357 L 1339.975482 580.655091 L 1340.464098 573.713832 L 1340.952715 595.352654 L 1341.441331 592.77178 L 1341.929947 583.705967 L 1342.418564 589.961088 L 1342.90718 591.740187 L 1343.884413 564.639105 L 1344.37303 513.585243 L 1344.861646 574.77757 L 1345.350263 585.090229 L 1345.838879 529.081308 L 1346.327496 556.923364 L 1346.816112 554.56875 L 1347.304729 586.126615 L 1347.793345 561.177166 L 1348.281961 563.69395 L 1348.770578 573.384112 L 1349.259194 548.701837 L 1349.747811 557.663551 L 1350.236427 558.401264 L 1350.725044 587.965839 L 1351.21366 596.531526 L 1351.702277 594.379459 L 1352.190893 585.67436 L 1352.67951 586.285139 L 1353.168126 597.026986 L 1353.656743 601.190897 L 1354.145359 592.01476 L 1355.122592 571.708751 L 1356.099825 517.020561 L 1356.588441 573.640053 L 1357.077058 570.731903 L 1357.565674 578.321825 L 1358.054291 554.193183 L 1358.542907 444.011215 L 1359.031524 569.84486 L 1359.52014 578.724611 L 1360.008757 561.779008 L 1360.497373 587.744662 L 1360.985989 552.915421 L 1361.963222 591.151728 L 1362.451839 597.493557 L 1362.940455 601.492868 L 1363.429072 588.674407 L 1363.917688 597.821685 L 1364.406305 599.114019 L 1364.894921 588.861308 L 1365.383538 588.737638 L 1365.872154 591.317937 L 1366.360771 580.213021 L 1366.849387 584.517422 L 1367.338004 581.185514 L 1368.315236 500.263551 M 1369.292469 477.403738 L 1369.781086 542.517056 L 1370.269702 539.366355 L 1370.758319 564.753127 L 1371.246935 579.410023 L 1371.735552 574.32241 L 1372.224168 580.203041 L 1372.712785 596.208612 L 1373.201401 588.764989 L 1373.690018 591.398904 L 1374.178634 592.081308 L 1374.66725 573.084813 L 1375.155867 585.753127 L 1375.644483 584.117842 L 1376.1331 581.500364 L 1376.621716 587.068458 L 1377.110333 597.413648 L 1377.598949 599.89759 L 1377.598949 599.89759" clip-path="url(#pb63821e5ed)" fill="none" stroke="#8dd3c7" stroke-width="1.5" stroke-linecap="square"/></g><g id="patch_3"><path d="M 180 640.8 L 180 86.4" fill="none" stroke="#ffffff" stroke-width="0.8" stroke-linejoin="miter" stroke-linecap="square"/></g><g id="patch_4"><path d="M 1296 640.8 L 1296 86.4" fill="none" stroke="#ffffff" stroke-width="0.8" stroke-linejoin="miter" stroke-linecap="square"/></g><g id="patch_5"><path d="M 180 640.8 L 1296 640.8" fill="none" stroke="#ffffff" stroke-width="0.8" stroke-linejoin="miter" stroke-linecap="square"/></g><g id="patch_6"><path d="M 180 86.4 L 1296 86.4" fill="none" stroke="#ffffff" stroke-width="0.8" stroke-linejoin="miter" stroke-linecap="square"/></g><g id="text_13"><g transform="translate(676.92375 80.4) scale(0.12 -0.12)" fill="#ffffff"><defs><path id="DejaVuSans-41" d="M 2188 4044 L 1331 1722 L 3047 1722 L 2188 4044 z M 1831 4666 L 2547 4666 L 4325 0 L 3669 0 L 3244 1197 L 1141 1197 L 716 0 L 50 0 L 1831 4666 z" transform="scale(0.015625)"/><path id="DejaVuSans-76" d="M 191 3500 L 800 3500 L 1894 563 L 2988 3500 L 3597 3500 L 2284 0 L 1503 0 L 191 3500 z" transform="scale(0.015625)"/><path id="DejaVuSans-67" d="M 2906 1791 Q 2906 2416 2648 2759 Q 2391 3103 1925 3103 Q 1463 3103 1205 2759 Q 947 2416 947 1791 Q 947 1169 1205 825 Q 1463 481 1925 481 Q 2391 481 2648 825 Q 2906 1169 2906 1791 z M 3481 434 Q 3481 -459 3084 -895 Q 2688 -1331 1869 -1331 Q 1566 -1331 1297 -1286 Q 1028 -1241 775 -1147 L 775 -588 Q 1028 -725 1275 -790 Q 1522 -856 1778 -856 Q 2344 -856 2625 -561 Q 2906 -266 2906 331 L 2906 616 Q 2728 306 2450 153 Q 2172 0 1784 0 Q 1141 0 747 490 Q 353 981 353 1791 Q 353 2603 747 3093 Q 1141 3584 1784 3584 Q 2172 3584 2450 3431 Q 2728 3278 2906 2969 L 2906 3500 L 3481 3500 L 3481 434 z" transform="scale(0.015625)"/></defs><use xlink:href="#DejaVuSans-41"/><use xlink:href="#DejaVuSans-76" x="62.533"/><use xlink:href="#DejaVuSans-65" x="121.713"/><use xlink:href="#DejaVuSans-72" x="183.236"/><use xlink:href="#DejaVuSans-61" x="224.35"/><use xlink:href="#DejaVuSans-67" x="285.629"/><use xlink:href="#DejaVuSans-65" x="349.105"/><use xlink:href="#DejaVuSans-20" x="410.629"/><use xlink:href="#DejaVuSans-75" x="442.416"/><use xlink:href="#DejaVuSans-70" x="505.795"/><use xlink:href="#DejaVuSans-6c" x="569.271"/><use xlink:href="#DejaVuSans-6f" x="597.055"/><use xlink:href="#DejaVuSans-61" x="658.236"/><use xlink:href="#DejaVuSans-64" x="719.516"/><use xlink:href="#DejaVuSans-20" x="782.992"/><use xlink:href="#DejaVuSans-72" x="814.779"/><use xlink:href="#DejaVuSans-61" x="855.893"/><use xlink:href="#DejaVuSans-74" x="917.172"/><use xlink:href="#DejaVuSans-65" x="956.381"/></g></g></g></g><defs><clipPath id="pb63821e5ed"><rect x="180" y="86.4" width="1116" height="554.4"/></clipPath></defs></svg>