<svg xmlns:xlink="http://www.w3.org/1999/xlink" width="1920" height="960" viewBox="0 0 1440 720" xmlns="http://www.w3.org/2000/svg" version="1.1"><metadata><rdf:RDF xmlns:dc="http://purl.org/dc/elements/1.1/" xmlns:cc="http://creativecommons.org/ns#" xmlns:rdf="http://www.w3.org/1999/02/22-rdf-syntax-ns#"><cc:Work><dc:type rdf:resource="http://purl.org/dc/dcmitype/StillImage"/><dc:format>image/svg+xml</dc:format><dc:creator><cc:Agent><dc:title>Matplotlib v3.7.1, https://matplotlib.org/</dc:title></cc:Agent></dc:creator></cc:Work></rdf:RDF></metadata><defs><style type="text/css">*{stroke-linejoin:round;stroke-linecap:butt}</style></defs><g id="figure_1"><g id="patch_1"><path d="M 0 720 L 1440 720 L 1440 0 L 0 0 z"/></g><g id="axes_1"><g id="patch_2"><path d="M 180 640.8 L 1296 640.8 L 1296 86.4 L 180 86.4 z"/></g><g id="matplotlib.axis_1"><g id="xtick_1"><g id="line2d_1"><defs><path id="mcc6fe467e5" d="M 0 0 L 0 3.5" stroke="#ffffff" stroke-width="0.8"/></defs><g><use xlink:href="#mcc6fe467e5" x="180" y="640.8" fill="#ffffff" stroke="#ffffff" stroke-width="0.8"/></g></g><g id="text_1"><g transform="translate(176.81875 655.398438) scale(0.1 -0.1)" fill="#ffffff"><defs><path id="DejaVuSans-30" d="M 2034 4250 Q 1547 4250 1301 3770 Q 1056 3291 1056 2328 Q 1056 1369 1301 889 Q 1547 409 2034 409 Q 2525 409 2770 889 Q 3016 1369 3016 2328 Q 3016 3291 2770 3770 Q 2525 4250 2034 4250 z M 2034 4750 Q 2819 4750 3233 4129 Q 3647 3509 3647 2328 Q 3647 1150 3233 529 Q 2819 -91 2034 -91 Q 1250 -91 836 529 Q 422 1150 422 2328 Q 422 3509 836 4129 Q 1250 4750 2034 4750 z" transform="scale(0.015625)"/></defs><use xlink:href="#DejaVuSans-30"/></g></g></g><g id="xtick_2"><g id="line2d_2"><g><use xlink:href="#mcc6fe467e5" x="376.687" y="640.8" fill="#ffffff" stroke="#ffffff" stroke-width="0.8"/></g></g><g id="text_2"><g transform="translate(367.142891 655.398438) scale(0.1 -0.1)" fill="#ffffff"><defs><path id="DejaVuSans-35" d="M 691 4666 L 3169 4666 L 3169 4134 L 1269 4134 L 1269 2991 Q 1406 3038 1543 3061 Q 1681 3084 1819 3084 Q 2600 3084 3056 2656 Q 3513 2228 3513 1497 Q 3513 744 3044 326 Q 2575 -91 1722 -91 Q 1428 -91 1123 -41 Q 819 9 494 109 L 494 744 Q 775 591 1075 516 Q 1375 441 1709 441 Q 2250 441 2565 725 Q 2881 1009 2881 1497 Q 2881 1984 2565 2268 Q 2250 2553 1709 2553 Q 1456 2553 1204 2497 Q 953 2441 691 2322 L 691 4666 z" transform="scale(0.015625)"/></defs><use xlink:href="#DejaVuSans-35"/><use xlink:href="#DejaVuSans-30" x="63.623"/><use xlink:href="#DejaVuSans-30" x="127.246"/></g></g></g><g id="xtick_3"><g id="line2d_3"><g><use xlink:href="#mcc6fe467e5" x="573.373" y="640.8" fill="#ffffff" stroke="#ffffff" stroke-width="0.8"/></g></g><g id="text_3"><g transform="translate(560.648282 655.398438) scale(0.1 -0.1)" fill="#ffffff"><defs><path id="DejaVuSans-31" d="M 794 531 L 1825 531 L 1825 4091 L 703 3866 L 703 4441 L 1819 4666 L 2450 4666 L 2450 531 L 3481 531 L 3481 0 L 794 0 L 794 531 z" transform="scale(0.015625)"/></defs><use xlink:href="#DejaVuSans-31"/><use xlink:href="#DejaVuSans-30" x="63.623"/><use xlink:href="#DejaVuSans-30" x="127.246"/><use xlink:href="#DejaVuSans-30" x="190.869"/></g></g></g><g id="xtick_4"><g id="line2d_4"><g><use xlink:href="#mcc6fe467e5" x="770.06" y="640.8" fill="#ffffff" stroke="#ffffff" stroke-width="0.8"/></g></g><g id="text_4"><g transform="translate(757.334922 655.398438) scale(0.1 -0.1)" fill="#ffffff"><use xlink:href="#DejaVuSans-31"/><use xlink:href="#DejaVuSans-35" x="63.623"/><use xlink:href="#DejaVuSans-30" x="127.246"/><use xlink:href="#DejaVuSans-30" x="190.869"/></g></g></g><g id="xtick_5"><g id="line2d_5"><g><use xlink:href="#mcc6fe467e5" x="966.747" y="640.8" fill="#ffffff" stroke="#ffffff" stroke-width="0.8"/></g></g><g id="text_5"><g transform="translate(954.021563 655.398438) scale(0.1 -0.1)" fill="#ffffff"><defs><path id="DejaVuSans-32" d="M 1228 531 L 3431 531 L 3431 0 L 469 0 L 469 531 Q 828 903 1448 1529 Q 2069 2156 2228 2338 Q 2531 2678 2651 2914 Q 2772 3150 2772 3378 Q 2772 3750 2511 3984 Q 2250 4219 1831 4219 Q 1534 4219 1204 4116 Q 875 4013 500 3803 L 500 4441 Q 881 4594 1212 4672 Q 1544 4750 1819 4750 Q 2544 4750 2975 4387 Q 3406 4025 3406 3419 Q 3406 3131 3298 2873 Q 3191 2616 2906 2266 Q 2828 2175 2409 1742 Q 1991 1309 1228 531 z" transform="scale(0.015625)"/></defs><use xlink:href="#DejaVuSans-32"/><use xlink:href="#DejaVuSans-30" x="63.623"/><use xlink:href="#DejaVuSans-30" x="127.246"/><use xlink:href="#DejaVuSans-30" x="190.869"/></g></g></g><g id="xtick_6"><g id="line2d_6"><g><use xlink:href="#mcc6fe467e5" x="1163.433" y="640.8" fill="#ffffff" stroke="#ffffff" stroke-width="0.8"/></g></g><g id="text_6"><g transform="translate(1150.708204 655.398438) scale(0.1 -0.1)" fill="#ffffff"><use xlink:href="#DejaVuSans-32"/><use xlink:href="#DejaVuSans-35" x="63.623"/><use xlink:href="#DejaVuSans-30" x="127.246"/><use xlink:href="#DejaVuSans-30" x="190.869"/></g></g></g><g id="xtick_7"><g id="line2d_7"><defs><path id="m82f2ad42ae" d="M 0 0 L 0 2" stroke="#ffffff" stroke-width="0.6"/></defs><g><use xlink:href="#m82f2ad42ae" x="219.337" y="640.8" fill="#ffffff" stroke="#ffffff" stroke-width="0.6"/></g></g></g><g id="xtick_8"><g id="line2d_8"><g><use xlink:href="#m82f2ad42ae" x="258.675" y="640.8" fill="#ffffff" stroke="#ffffff" stroke-width="0.6"/></g></g></g><g id="xtick_9"><g id="line2d_9"><g><use xlink:href="#m82f2ad42ae" x="298.012" y="640.8" fill="#ffffff" stroke="#ffffff" stroke-width="0.6"/></g></g></g><g id="xtick_10"><g id="line2d_10"><g><use xlink:href="#m82f2ad42ae" x="337.349" y="640.8" fill="#ffffff" stroke="#ffffff" stroke-width="0.6"/></g></g></g><g id="xtick_11"><g id="line2d_11"><g><use xlink:href="#m82f2ad42ae" x="416.024" y="640.8" fill="#ffffff" stroke="#ffffff" stroke-width="0.6"/></g></g></g><g id="xtick_12"><g id="line2d_12"><g><use xlink:href="#m82f2ad42ae" x="455.361" y="640.8" fill="#ffffff" stroke="#ffffff" stroke-width="0.6"/></g></g></g><g id="xtick_13"><g id="line2d_13"><g><use xlink:href="#m82f2ad42ae" x="494.699" y="640.8" fill="#ffffff" stroke="#ffffff" stroke-width="0.6"/></g></g></g><g id="xtick_14"><g id="line2d_14"><g><use xlink:href="#m82f2ad42ae" x="534.036" y="640.8" fill="#ffffff" stroke="#ffffff" stroke-width="0.6"/></g></g></g><g id="xtick_15"><g id="line2d_15"><g><use xlink:href="#m82f2ad42ae" x="612.711" y="640.8" fill="#ffffff" stroke="#ffffff" stroke-width="0.6"/></g></g></g><g id="xtick_16"><g id="line2d_16"><g><use xlink:href="#m82f2ad42ae" x="652.048" y="640.8" fill="#ffffff" stroke="#ffffff" stroke-width="0.6"/></g></g></g><g id="xtick_17"><g id="line2d_17"><g><use xlink:href="#m82f2ad42ae" x="691.385" y="640.8" fill="#ffffff" stroke="#ffffff" stroke-width="0.6"/></g></g></g><g id="xtick_18"><g id="line2d_18"><g><use xlink:href="#m82f2ad42ae" x="730.723" y="640.8" fill="#ffffff" stroke="#ffffff" stroke-width="0.6"/></g></g></g><g id="xtick_19"><g id="line2d_19"><g><use xlink:href="#m82f2ad42ae" x="809.397" y="640.8" fill="#ffffff" stroke="#ffffff" stroke-width="0.6"/></g></g></g><g id="xtick_20"><g id="line2d_20"><g><use xlink:href="#m82f2ad42ae" x="848.735" y="640.8" fill="#ffffff" stroke="#ffffff" stroke-width="0.6"/></g></g></g><g id="xtick_21"><g id="line2d_21"><g><use xlink:href="#m82f2ad42ae" x="888.072" y="640.8" fill="#ffffff" stroke="#ffffff" stroke-width="0.6"/></g></g></g><g id="xtick_22"><g id="line2d_22"><g><use xlink:href="#m82f2ad42ae" x="927.409" y="640.8" fill="#ffffff" stroke="#ffffff" stroke-width="0.6"/></g></g></g><g id="xtick_23"><g id="line2d_23"><g><use xlink:href="#m82f2ad42ae" x="1006.084" y="640.8" fill="#ffffff" stroke="#ffffff" stroke-width="0.6"/></g></g></g><g id="xtick_24"><g id="line2d_24"><g><use xlink:href="#m82f2ad42ae" x="1045.421" y="640.8" fill="#ffffff" stroke="#ffffff" stroke-width="0.6"/></g></g></g><g id="xtick_25"><g id="line2d_25"><g><use xlink:href="#m82f2ad42ae" x="1084.759" y="640.8" fill="#ffffff" stroke="#ffffff" stroke-width="0.6"/></g></g></g><g id="xtick_26"><g id="line2d_26"><g><use xlink:href="#m82f2ad42ae" x="1124.096" y="640.8" fill="#ffffff" stroke="#ffffff" stroke-width="0.6"/></g></g></g><g id="xtick_27"><g id="line2d_27"><g><use xlink:href="#m82f2ad42ae" x="1202.771" y="640.8" fill="#ffffff" stroke="#ffffff" stroke-width="0.6"/></g></g></g><g id="xtick_28"><g id="line2d_28"><g><use xlink:href="#m82f2ad42ae" x="1242.108" y="640.8" fill="#ffffff" stroke="#ffffff" stroke-width="0.6"/></g></g></g><g id="xtick_29"><g id="line2d_29"><g><use xlink:href="#m82f2ad42ae" x="1281.445" y="640.8" fill="#ffffff" stroke="#ffffff" stroke-width="0.6"/></g></g></g><g id="text_7"><g transform="translate(638.625781 669.076563) scale(0.1 -0.1)" fill="#ffffff"><defs><path id="DejaVuSans-48" d="M 628 4666 L 1259 4666 L 1259 2753 L 3553 2753 L 3553 4666 L 4184 4666 L 4184 0 L 3553 0 L 3553 2222 L 1259 2222 L 1259 0 L 628 0 L 628 4666 z" transform="scale(0.015625)"/><path id="DejaVuSans-6f" d="M 1959 3097 Q 1497 3097 1228 2736 Q 959 2375 959 1747 Q 959 1119 1226 758 Q 1494 397 1959 397 Q 2419 397 2687 759 Q 2956 1122 2956 1747 Q 2956 2369 2687 2733 Q 2419 3097 1959 3097 z M 1959 3584 Q 2709 3584 3137 3096 Q 3566 2609 3566 1747 Q 3566 888 3137 398 Q 2709 -91 1959 -91 Q 1206 -91 779 398 Q 353 888 353 1747 Q 353 2609 779 3096 Q 1206 3584 1959 3584 z" transform="scale(0.015625)"/><path id="DejaVuSans-75" d="M 544 1381 L 544 3500 L 1119 3500 L 1119 1403 Q 1119 906 1312 657 Q 1506 409 1894 409 Q 2359 409 2629 706 Q 2900 1003 2900 1516 L 2900 3500 L 3475 3500 L 3475 0 L 2900 0 L 2900 538 Q 2691 219 2414 64 Q 2138 -91 1772 -91 Q 1169 -91 856 284 Q 544 659 544 1381 z M 1991 3584 L 1991 3584 z" transform="scale(0.015625)"/><path id="DejaVuSans-72" d="M 2631 2963 Q 2534 3019 2420 3045 Q 2306 3072 2169 3072 Q 1681 3072 1420 2755 Q 1159 2438 1159 1844 L 1159 0 L 581 0 L 581 3500 L 1159 3500 L 1159 2956 Q 1341 3275 1631 3429 Q 1922 3584 2338 3584 Q 2397 3584 2469 3576 Q 2541 3569 2628 3553 L 2631 2963 z" transform="scale(0.015625)"/><path id="DejaVuSans-73" d="M 2834 3397 L 2834 2853 Q 2591 2978 2328 3040 Q 2066 3103 1784 3103 Q 1356 3103 1142 2972 Q 928 2841 928 2578 Q 928 2378 1081 2264 Q 1234 2150 1697 2047 L 1894 2003 Q 2506 1872 2764 1633 Q 3022 1394 3022 966 Q 3022 478 2636 193 Q 2250 -91 1575 -91 Q 1294 -91 989 -36 Q 684 19 347 128 L 347 722 Q 666 556 975 473 Q 1284 391 1588 391 Q 1994 391 2212 530 Q 2431 669 2431 922 Q 2431 1156 2273 1281 Q 2116 1406 1581 1522 L 1381 1569 Q 847 1681 609 1914 Q 372 2147 372 2553 Q 372 3047 722 3315 Q 1072 3584 1716 3584 Q 2034 3584 2315 3537 Q 2597 3491 2834 3397 z" transform="scale(0.015625)"/><path id="DejaVuSans-20" transform="scale(0.015625)"/><path id="DejaVuSans-69" d="M 603 3500 L 1178 3500 L 1178 0 L 603 0 L 603 3500 z M 603 4863 L 1178 4863 L 1178 4134 L 603 4134 L 603 4863 z" transform="scale(0.015625)"/><path id="DejaVuSans-6e" d="M 3513 2113 L 3513 0 L 2938 0 L 2938 2094 Q 2938 2591 2744 2837 Q 2550 3084 2163 3084 Q 1697 3084 1428 2787 Q 1159 2491 1159 1978 L 1159 0 L 581 0 L 581 3500 L 1159 3500 L 1159 2956 Q 1366 3272 1645 3428 Q 1925 3584 2291 3584 Q 2894 3584 3203 3211 Q 3513 2838 3513 2113 z" transform="scale(0.015625)"/><path id="DejaVuSans-63" d="M 3122 3366 L 3122 2828 Q 2878 2963 2633 3030 Q 2388 3097 2138 3097 Q 1578 3097 1268 2742 Q 959 2388 959 1747 Q 959 1106 1268 751 Q 1578 397 2138 397 Q 2388 397 2633 464 Q 2878 531 3122 666 L 3122 134 Q 2881 22 2623 -34 Q 2366 -91 2075 -91 Q 1284 -91 818 406 Q 353 903 353 1747 Q 353 2603 823 3093 Q 1294 3584 2113 3584 Q 2378 3584 2631 3529 Q 2884 3475 3122 3366 z" transform="scale(0.015625)"/><path id="DejaVuSans-65" d="M 3597 1894 L 3597 1613 L 953 1613 Q 991 1019 1311 708 Q 1631 397 2203 397 Q 2534 397 2845 478 Q 3156 559 3463 722 L 3463 178 Q 3153 47 2828 -22 Q 2503 -91 2169 -91 Q 1331 -91 842 396 Q 353 884 353 1716 Q 353 2575 817 3079 Q 1281 3584 2069 3584 Q 2775 3584 3186 3129 Q 3597 2675 3597 1894 z M 3022 2063 Q 3016 2534 2758 2815 Q 2500 3097 2075 3097 Q 1594 3097 1305 2825 Q 1016 2553 972 2059 L 3022 2063 z" transform="scale(0.015625)"/><path id="DejaVuSans-36" d="M 2113 2584 Q 1688 2584 1439 2293 Q 1191 2003 1191 1497 Q 1191 994 1439 701 Q 1688 409 2113 409 Q 2538 409 2786 701 Q 3034 994 3034 1497 Q 3034 2003 2786 2293 Q 2538 2584 2113 2584 z M 3366 4563 L 3366 3988 Q 3128 4100 2886 4159 Q 2644 4219 2406 4219 Q 1781 4219 1451 3797 Q 1122 3375 1075 2522 Q 1259 2794 1537 2939 Q 1816 3084 2150 3084 Q 2853 3084 3261 2657 Q 3669 2231 3669 1497 Q 3669 778 3244 343 Q 2819 -91 2113 -91 Q 1303 -91 875 529 Q 447 1150 447 2328 Q 447 3434 972 4092 Q 1497 4750 2381 4750 Q 2619 4750 2861 4703 Q 3103 4656 3366 4563 z" transform="scale(0.015625)"/><path id="DejaVuSans-2f" d="M 1625 4666 L 2156 4666 L 531 -594 L 0 -594 L 1625 4666 z" transform="scale(0.015625)"/><path id="DejaVuSans-33" d="M 2597 2516 Q 3050 2419 3304 2112 Q 3559 1806 3559 1356 Q 3559 666 3084 287 Q 2609 -91 1734 -91 Q 1441 -91 1130 -33 Q 819 25 488 141 L 488 750 Q 750 597 1062 519 Q 1375 441 1716 441 Q 2309 441 2620 675 Q 2931 909 2931 1356 Q 2931 1769 2642 2001 Q 2353 2234 1838 2234 L 1294 2234 L 1294 2753 L 1863 2753 Q 2328 2753 2575 2939 Q 2822 3125 2822 3475 Q 2822 3834 2567 4026 Q 2313 4219 1838 4219 Q 1578 4219 1281 4162 Q 984 4106 628 3988 L 628 4550 Q 988 4650 1302 4700 Q 1616 4750 1894 4750 Q 2613 4750 3031 4423 Q 3450 4097 3450 3541 Q 3450 3153 3228 2886 Q 3006 2619 2597 2516 z" transform="scale(0.015625)"/><path id="DejaVuSans-3a" d="M 750 794 L 1409 794 L 1409 0 L 750 0 L 750 794 z M 750 3309 L 1409 3309 L 1409 2516 L 750 2516 L 750 3309 z" transform="scale(0.015625)"/><path id="DejaVuSans-28" d="M 1984 4856 Q 1566 4138 1362 3434 Q 1159 2731 1159 2009 Q 1159 1288 1364 580 Q 1569 -128 1984 -844 L 1484 -844 Q 1016 -109 783 600 Q 550 1309 550 2009 Q 550 2706 781 3412 Q 1013 4119 1484 4856 L 1984 4856 z" transform="scale(0.015625)"/><path id="DejaVuSans-55" d="M 556 4666 L 1191 4666 L 1191 1831 Q 1191 1081 1462 751 Q 1734 422 2344 422 Q 2950 422 3222 751 Q 3494 1081 3494 1831 L 3494 4666 L 4128 4666 L 4128 1753 Q 4128 841 3676 375 Q 3225 -91 2344 -91 Q 1459 -91 1007 375 Q 556 841 556 1753 L 556 4666 z" transform="scale(0.015625)"/><path id="DejaVuSans-43" d="M 4122 4306 L 4122 3641 Q 3803 3938 3442 4084 Q 3081 4231 2675 4231 Q 1875 4231 1450 3742 Q 1025 3253 1025 2328 Q 1025 1406 1450 917 Q 1875 428 2675 428 Q 3081 428 3442 575 Q 3803 722 4122 1019 L 4122 359 Q 3791 134 3420 21 Q 3050 -91 2638 -91 Q 1578 -91 968 557 Q 359 1206 359 2328 Q 359 3453 968 4101 Q 1578 4750 2638 4750 Q 3056 4750 3426 4639 Q 3797 4528 4122 4306 z" transform="scale(0.015625)"/><path id="DejaVuSans-54" d="M -19 4666 L 3928 4666 L 3928 4134 L 2272 4134 L 2272 0 L 1638 0 L 1638 4134 L -19 4134 L -19 4666 z" transform="scale(0.015625)"/><path id="DejaVuSans-29" d="M 513 4856 L 1013 4856 Q 1481 4119 1714 3412 Q 1947 2706 1947 2009 Q 1947 1309 1714 600 Q 1481 -109 1013 -844 L 513 -844 Q 928 -128 1133 580 Q 1338 1288 1338 2009 Q 1338 2731 1133 3434 Q 928 4138 513 4856 z" transform="scale(0.015625)"/></defs><use xlink:href="#DejaVuSans-48"/><use xlink:href="#DejaVuSans-6f" x="75.195"/><use xlink:href="#DejaVuSans-75" x="136.377"/><use xlink:href="#DejaVuSans-72" x="199.756"/><use xlink:href="#DejaVuSans-73" x="240.869"/><use xlink:href="#DejaVuSans-20" x="292.969"/><use xlink:href="#DejaVuSans-73" x="324.756"/><use xlink:href="#DejaVuSans-69" x="376.855"/><use xlink:href="#DejaVuSans-6e" x="404.639"/><use xlink:href="#DejaVuSans-63" x="468.018"/><use xlink:href="#DejaVuSans-65" x="522.998"/><use xlink:href="#DejaVuSans-20" x="584.521"/><use xlink:href="#DejaVuSans-32" x="616.309"/><use xlink:href="#DejaVuSans-36" x="679.932"/><use xlink:href="#DejaVuSans-2f" x="743.555"/><use xlink:href="#DejaVuSans-30" x="777.246"/><use xlink:href="#DejaVuSans-32" x="840.869"/><use xlink:href="#DejaVuSans-2f" x="904.492"/><use xlink:href="#DejaVuSans-32" x="938.184"/><use xlink:href="#DejaVuSans-30" x="1001.807"/><use xlink:href="#DejaVuSans-32" x="1065.43"/><use xlink:href="#DejaVuSans-33" x="1129.053"/><use xlink:href="#DejaVuSans-20" x="1192.676"/><use xlink:href="#DejaVuSans-30" x="1224.463"/><use xlink:href="#DejaVuSans-35" x="1288.086"/><use xlink:href="#DejaVuSans-3a" x="1351.709"/><use xlink:href="#DejaVuSans-30" x="1385.4"/><use xlink:href="#DejaVuSans-30" x="1449.023"/><use xlink:href="#DejaVuSans-3a" x="1512.646"/><use xlink:href="#DejaVuSans-30" x="1546.338"/><use xlink:href="#DejaVuSans-30" x="1609.961"/><use xlink:href="#DejaVuSans-20" x="1673.584"/><use xlink:href="#DejaVuSans-28" x="1705.371"/><use xlink:href="#DejaVuSans-55" x="1744.385"/><use xlink:href="#DejaVuSans-43" x="1817.578"/><use xlink:href="#DejaVuSans-54" x="1887.402"/><use xlink:href="#DejaVuSans-29" x="1948.486"/></g></g></g><g id="matplotlib.axis_2"><g id="ytick_1"><g id="line2d_30"><defs><path id="mf99259ef09" d="M 0 0 L -3.5 0" stroke="#ffffff" stroke-width="0.8"/></defs><g><use xlink:href="#mf99259ef09" x="180" y="615.6" fill="#ffffff" stroke="#ffffff" stroke-width="0.8"/></g></g><g id="text_8"><g transform="translate(166.6375 619.399219) scale(0.1 -0.1)" fill="#ffffff"><use xlink:href="#DejaVuSans-30"/></g></g></g><g id="ytick_2"><g id="line2d_31"><g><use xlink:href="#mf99259ef09" x="180" y="497.843" fill="#ffffff" stroke="#ffffff" stroke-width="0.8"/></g></g><g id="text_9"><g transform="translate(153.9125 501.642209) scale(0.1 -0.1)" fill="#ffffff"><use xlink:href="#DejaVuSans-32"/><use xlink:href="#DejaVuSans-30" x="63.623"/><use xlink:href="#DejaVuSans-30" x="127.246"/></g></g></g><g id="ytick_3"><g id="line2d_32"><g><use xlink:href="#mf99259ef09" x="180" y="380.086" fill="#ffffff" stroke="#ffffff" stroke-width="0.8"/></g></g><g id="text_10"><g transform="translate(153.9125 383.8852) scale(0.1 -0.1)" fill="#ffffff"><defs><path id="DejaVuSans-34" d="M 2419 4116 L 825 1625 L 2419 1625 L 2419 4116 z M 2253 4666 L 3047 4666 L 3047 1625 L 3713 1625 L 3713 1100 L 3047 1100 L 3047 0 L 2419 0 L 2419 1100 L 313 1100 L 313 1709 L 2253 4666 z" transform="scale(0.015625)"/></defs><use xlink:href="#DejaVuSans-34"/><use xlink:href="#DejaVuSans-30" x="63.623"/><use xlink:href="#DejaVuSans-30" x="127.246"/></g></g></g><g id="ytick_4"><g id="line2d_33"><g><use xlink:href="#mf99259ef09" x="180" y="262.329" fill="#ffffff" stroke="#ffffff" stroke-width="0.8"/></g></g><g id="text_11"><g transform="translate(153.9125 266.128191) scale(0.1 -0.1)" fill="#ffffff"><use xlink:href="#DejaVuSans-36"/><use xlink:href="#DejaVuSans-30" x="63.623"/><use xlink:href="#DejaVuSans-30" x="127.246"/></g></g></g><g id="ytick_5"><g id="line2d_34"><g><use xlink:href="#mf99259ef09" x="180" y="144.572" fill="#ffffff" stroke="#ffffff" stroke-width="0.8"/></g></g><g id="text_12"><g transform="translate(153.9125 148.371181) scale(0.1 -0.1)" fill="#ffffff"><defs><path id="DejaVuSans-38" d="M 2034 2216 Q 1584 2216 1326 1975 Q 1069 1734 1069 1313 Q 1069 891 1326 650 Q 1584 409 2034 409 Q 2484 409 2743 651 Q 3003 894 3003 1313 Q 3003 1734 2745 1975 Q 2488 2216 2034 2216 z M 1403 2484 Q 997 2584 770 2862 Q 544 3141 544 3541 Q 544 4100 942 4425 Q 1341 4750 2034 4750 Q 2731 4750 3128 4425 Q 3525 4100 3525 3541 Q 3525 3141 3298 2862 Q 3072 2584 2669 2484 Q 3125 2378 3379 2068 Q 3634 1759 3634 1313 Q 3634 634 3220 271 Q 2806 -91 2034 -91 Q 1263 -91 848 271 Q 434 634 434 1313 Q 434 1759 690 2068 Q 947 2378 1403 2484 z M 1172 3481 Q 1172 3119 1398 2916 Q 1625 2713 2034 2713 Q 2441 2713 2670 2916 Q 2900 3119 2900 3481 Q 2900 3844 2670 4047 Q 2441 4250 2034 4250 Q 1625 4250 1398 4047 Q 1172 3844 1172 3481 z" transform="scale(0.015625)"/></defs><use xlink:href="#DejaVuSans-38"/><use xlink:href="#DejaVuSans-30" x="63.623"/><use xlink:href="#DejaVuSans-30" x="127.246"/></g></g></g><g id="ytick_6"><g id="line2d_35"><defs><path id="m744798c93a" d="M 0 0 L -2 0" stroke="#ffffff" stroke-width="0.6"/></defs><g><use xlink:href="#m744798c93a" x="180" y="586.161" fill="#ffffff" stroke="#ffffff" stroke-width="0.6"/></g></g></g><g id="ytick_7"><g id="line2d_36"><g><use xlink:href="#m744798c93a" x="180" y="556.721" fill="#ffffff" stroke="#ffffff" stroke-width="0.6"/></g></g></g><g id="ytick_8"><g id="line2d_37"><g><use xlink:href="#m744798c93a" x="180" y="527.282" fill="#ffffff" stroke="#ffffff" stroke-width="0.6"/></g></g></g><g id="ytick_9"><g id="line2d_38"><g><use xlink:href="#m744798c93a" x="180" y="468.404" fill="#ffffff" stroke="#ffffff" stroke-width="0.6"/></g></g></g><g id="ytick_10"><g id="line2d_39"><g><use xlink:href="#m744798c93a" x="180" y="438.964" fill="#ffffff" stroke="#ffffff" stroke-width="0.6"/></g></g></g><g id="ytick_11"><g id="line2d_40"><g><use xlink:href="#m744798c93a" x="180" y="409.525" fill="#ffffff" stroke="#ffffff" stroke-width="0.6"/></g></g></g><g id="ytick_12"><g id="line2d_41"><g><use xlink:href="#m744798c93a" x="180" y="350.647" fill="#ffffff" stroke="#ffffff" stroke-width="0.6"/></g></g></g><g id="ytick_13"><g id="line2d_42"><g><use xlink:href="#m744798c93a" x="180" y="321.207" fill="#ffffff" stroke="#ffffff" stroke-width="0.6"/></g></g></g><g id="ytick_14"><g id="line2d_43"><g><use xlink:href="#m744798c93a" x="180" y="291.768" fill="#ffffff" stroke="#ffffff" stroke-width="0.6"/></g></g></g><g id="ytick_15"><g id="line2d_44"><g><use xlink:href="#m744798c93a" x="180" y="232.89" fill="#ffffff" stroke="#ffffff" stroke-width="0.6"/></g></g></g><g id="ytick_16"><g id="line2d_45"><g><use xlink:href="#m744798c93a" x="180" y="203.45" fill="#ffffff" stroke="#ffffff" stroke-width="0.6"/></g></g></g><g id="ytick_17"><g id="line2d_46"><g><use xlink:href="#m744798c93a" x="180" y="174.011" fill="#ffffff" stroke="#ffffff" stroke-width="0.6"/></g></g></g><g id="ytick_18"><g id="line2d_47"><g><use xlink:href="#m744798c93a" x="180" y="115.133" fill="#ffffff" stroke="#ffffff" stroke-width="0.6"/></g></g></g><g id="text_13"><g transform="translate(147.832812 434.258594) rotate(-90) scale(0.1 -0.1)" fill="#ffffff"><defs><path id="DejaVuSans-53" d="M 3425 4513 L 3425 3897 Q 3066 4069 2747 4153 Q 2428 4238 2131 4238 Q 1616 4238 1336 4038 Q 1056 3838 1056 3469 Q 1056 3159 1242 3001 Q 1428 2844 1947 2747 L 2328 2669 Q 3034 2534 3370 2195 Q 3706 1856 3706 1288 Q 3706 609 3251 259 Q 2797 -91 1919 -91 Q 1588 -91 1214 -16 Q 841 59 441 206 L 441 856 Q 825 641 1194 531 Q 1563 422 1919 422 Q 2459 422 2753 634 Q 3047 847 3047 1241 Q 3047 1584 2836 1778 Q 2625 1972 2144 2069 L 1759 2144 Q 1053 2284 737 2584 Q 422 2884 422 3419 Q 422 4038 858 4394 Q 1294 4750 2059 4750 Q 2388 4750 2728 4690 Q 3069 4631 3425 4513 z" transform="scale(0.015625)"/><path id="DejaVuSans-64" d="M 2906 2969 L 2906 4863 L 3481 4863 L 3481 0 L 2906 0 L 2906 525 Q 2725 213 2448 61 Q 2172 -91 1784 -91 Q 1150 -91 751 415 Q 353 922 353 1747 Q 353 2572 751 3078 Q 1150 3584 1784 3584 Q 2172 3584 2448 3432 Q 2725 3281 2906 2969 z M 947 1747 Q 947 1113 1208 752 Q 1469 391 1925 391 Q 2381 391 2643 752 Q 2906 1113 2906 1747 Q 2906 2381 2643 2742 Q 2381 3103 1925 3103 Q 1469 3103 1208 2742 Q 947 2381 947 1747 z" transform="scale(0.015625)"/><path id="DejaVuSans-62" d="M 3116 1747 Q 3116 2381 2855 2742 Q 2594 3103 2138 3103 Q 1681 3103 1420 2742 Q 1159 2381 1159 1747 Q 1159 1113 1420 752 Q 1681 391 2138 391 Q 2594 391 2855 752 Q 3116 1113 3116 1747 z M 1159 2969 Q 1341 3281 1617 3432 Q 1894 3584 2278 3584 Q 2916 3584 3314 3078 Q 3713 2572 3713 1747 Q 3713 922 3314 415 Q 2916 -91 2278 -91 Q 1894 -91 1617 61 Q 1341 213 1159 525 L 1159 0 L 581 0 L 581 4863 L 1159 4863 L 1159 2969 z" transform="scale(0.015625)"/><path id="DejaVuSans-74" d="M 1172 4494 L 1172 3500 L 2356 3500 L 2356 3053 L 1172 3053 L 1172 1153 Q 1172 725 1289 603 Q 1406 481 1766 481 L 2356 481 L 2356 0 L 1766 0 Q 1100 0 847 248 Q 594 497 594 1153 L 594 3053 L 172 3053 L 172 3500 L 594 3500 L 594 4494 L 1172 4494 z" transform="scale(0.015625)"/><path id="DejaVuSans-77" d="M 269 3500 L 844 3500 L 1563 769 L 2278 3500 L 2956 3500 L 3675 769 L 4391 3500 L 4966 3500 L 4050 0 L 3372 0 L 2619 2869 L 1863 0 L 1184 0 L 269 3500 z" transform="scale(0.015625)"/><path id="DejaVuSans-61" d="M 2194 1759 Q 1497 1759 1228 1600 Q 959 1441 959 1056 Q 959 750 1161 570 Q 1363 391 1709 391 Q 2188 391 2477 730 Q 2766 1069 2766 1631 L 2766 1759 L 2194 1759 z M 3341 1997 L 3341 0 L 2766 0 L 2766 531 Q 2569 213 2275 61 Q 1981 -91 1556 -91 Q 1019 -91 701 211 Q 384 513 384 1019 Q 384 1609 779 1909 Q 1175 2209 1959 2209 L 2766 2209 L 2766 2266 Q 2766 2663 2505 2880 Q 2244 3097 1772 3097 Q 1472 3097 1187 3025 Q 903 2953 641 2809 L 641 3341 Q 956 3463 1253 3523 Q 1550 3584 1831 3584 Q 2591 3584 2966 3190 Q 3341 2797 3341 1997 z" transform="scale(0.015625)"/><path id="DejaVuSans-70" d="M 1159 525 L 1159 -1331 L 581 -1331 L 581 3500 L 1159 3500 L 1159 2969 Q 1341 3281 1617 3432 Q 1894 3584 2278 3584 Q 2916 3584 3314 3078 Q 3713 2572 3713 1747 Q 3713 922 3314 415 Q 2916 -91 2278 -91 Q 1894 -91 1617 61 Q 1341 213 1159 525 z M 3116 1747 Q 3116 2381 2855 2742 Q 2594 3103 2138 3103 Q 1681 3103 1420 2742 Q 1159 2381 1159 1747 Q 1159 1113 1420 752 Q 1681 391 2138 391 Q 2594 391 2855 752 Q 3116 1113 3116 1747 z" transform="scale(0.015625)"/><path id="DejaVuSans-6c" d="M 603 4863 L 1178 4863 L 1178 0 L 603 0 L 603 4863 z" transform="scale(0.015625)"/></defs><use xlink:href="#DejaVuSans-53"/><use xlink:href="#DejaVuSans-65" x="63.477"/><use xlink:href="#DejaVuSans-63" x="125"/><use xlink:href="#DejaVuSans-6f" x="179.98"/><use xlink:href="#DejaVuSans-6e" x="241.162"/><use xlink:href="#DejaVuSans-64" x="304.541"/><use xlink:href="#DejaVuSans-73" x="368.018"/><use xlink:href="#DejaVuSans-20" x="420.117"/><use xlink:href="#DejaVuSans-62" x="451.904"/><use xlink:href="#DejaVuSans-65" x="515.381"/><use xlink:href="#DejaVuSans-74" x="576.904"/><use xlink:href="#DejaVuSans-77" x="616.113"/><use xlink:href="#DejaVuSans-65" x="697.9"/><use xlink:href="#DejaVuSans-65" x="759.424"/><use xlink:href="#DejaVuSans-6e" x="820.947"/><use xlink:href="#DejaVuSans-20" x="884.326"/><use xlink:href="#DejaVuSans-61" x="916.113"/><use xlink:href="#DejaVuSans-6e" x="977.393"/><use xlink:href="#DejaVuSans-20" x="1040.771"/><use xlink:href="#DejaVuSans-75" x="1072.559"/><use xlink:href="#DejaVuSans-70" x="1135.938"/><use xlink:href="#DejaVuSans-6c" x="1199.414"/><use xlink:href="#DejaVuSans-6f" x="1227.197"/><use xlink:href="#DejaVuSans-61" x="1288.379"/><use xlink:href="#DejaVuSans-64" x="1349.658"/></g></g></g><g id="line2d_48"><path d="M 180 615.6 L 180.393373 512.235514 L 180.786747 573.14484 L 181.18012 577.638084 L 181.573493 574.558219 L 181.966866 565.401869 L 182.36024 588.437383 L 183.54036 554.298418 L 183.933733 585.993779 L 184.327106 591.196409 L 184.720479 600.579535 L 185.113853 599.192217 L 185.507226 592.135578 L 186.293973 601.013058 L 186.687346 598.906766 L 187.080719 604.75396 L 187.867466 599.670854 L 188.260839 593.340127 L 188.654212 595.796441 L 189.047585 604.406719 L 189.440959 579.032243 L 189.834332 593.105879 L 190.227705 572.014809 L 190.621079 583.17757 L 191.014452 557.915888 L 191.407825 554.989775 L 191.801198 540.259065 L 192.194572 547.950628 L 192.587945 524.366355 L 192.981318 515.748983 L 193.374692 579.933214 L 193.768065 605.873404 L 194.161438 519.71215 L 194.554811 595.419092 L 194.948185 586.775132 L 195.341558 592.318162 L 195.734931 593.15577 L 196.128305 593.578159 L 196.521678 582.618541 L 196.915051 586.301353 L 197.308424 592.972927 L 197.701798 574.86785 L 198.095171 596.098559 L 198.488544 571.566395 L 199.275291 583.143224 L 199.668664 572.091238 L 200.062037 554.091589 L 200.455411 577.017916 L 200.848784 396.571963 L 201.242157 477.151402 L 201.63553 440.891419 L 202.028904 515.948131 L 202.422277 519.569159 L 202.81565 557.899065 L 203.209024 560.142814 L 203.602397 576.18537 L 203.99577 582.646729 L 204.389143 594.048014 L 204.782517 597.069042 L 205.17589 592.984112 L 205.569263 582.968429 L 205.962637 593.449287 L 206.35601 590.92847 L 206.749383 598.011294 L 207.142756 592.595822 L 207.53613 561.230349 L 207.929503 566.558514 L 208.322876 559.044809 L 208.71625 563.910871 L 209.109623 573.52066 L 209.502996 590.842991 L 209.896369 592.810179 L 210.683116 548.772897 L 211.076489 548.929907 L 211.469863 500.475206 L 211.863236 576.17362 L 212.256609 525.729992 L 212.649982 533.571538 L 213.043356 584.753651 L 213.436729 587.130999 L 213.830102 579.095327 L 214.223476 593.420342 L 214.616849 583.912659 L 215.010222 579.773927 L 215.403595 579.582597 L 215.796969 597.821685 L 216.190342 597.716294 L 216.583715 583.948343 L 216.977088 585.197281 L 217.370462 596.368139 L 217.763835 585.838756 L 218.157208 597.670215 L 218.550582 565.553271 L 218.943955 547.715265 L 219.337328 559.242231 L 219.730701 551.650347 L 220.124075 525.011215 L 220.517448 532.581308 L 220.910821 548.972324 L 221.304195 525.746282 L 222.090941 567.431776 L 222.877688 590.00993 L 223.271061 595.473742 L 223.664434 604.661478 L 224.451181 589.296028 L 224.844554 601.914621 L 225.237927 601.457304 L 225.631301 598.583147 L 226.024674 598.264624 L 226.418047 600.049148 L 226.811421 594.871303 L 227.204794 594.451802 L 227.99154 584.215973 L 228.384914 580.753738 L 228.778287 570.148354 L 229.17166 564.102849 L 229.565033 561.354304 L 229.958407 552.447352 L 230.35178 572.810389 L 230.745153 520.898574 L 231.138527 555.405388 L 231.5319 561.69518 L 231.925273 590.509244 L 232.71202 598.176869 L 233.105393 600.818178 L 233.498766 599.757153 L 233.89214 602.679439 L 234.285513 604.650448 L 234.678886 600.972897 L 235.072259 600.896843 L 235.465633 598.657121 L 235.859006 606.504551 L 236.645753 601.236098 L 237.039126 593.974416 L 237.432499 560.090654 L 237.825872 581.971687 L 238.612619 569.764364 L 239.005992 584.90525 L 239.399366 560.557519 L 239.792739 583.725319 L 240.186112 598.462494 L 240.579485 594.515607 L 240.972859 597.61941 L 241.366232 598.267949 L 242.152978 606.010063 L 242.546352 605.638092 L 242.939725 599.496055 L 243.333098 603.677934 L 243.726472 605.145404 L 244.119845 600.15836 L 244.906591 605.181449 L 245.693338 599.87856 L 246.480085 605.224494 L 246.873458 589.796495 L 247.266831 565.930697 L 247.660204 582.702804 L 248.053578 591.14388 L 248.446951 594.308581 L 248.840324 586.094406 L 249.233698 596.242303 L 249.627071 600.888609 L 250.020444 599.85 L 250.413817 603.47998 L 250.807191 603.287162 L 251.200564 602.718973 L 251.593937 606.147756 L 251.987311 606.44452 L 252.380684 603.77799 L 252.774057 604.571126 L 253.16743 601.469159 L 253.560804 604.40049 L 254.740924 598.396592 L 255.134297 600.965091 L 255.52767 599.043925 L 255.921043 581.915797 L 256.314417 575.57394 L 256.70779 591.930841 L 257.101163 586.267056 L 257.494536 565.805607 L 257.88791 517.714486 L 258.281283 559.628621 L 258.674656 568.237035 L 259.06803 572.765888 L 259.461403 568.176041 L 259.854776 579.191176 L 260.248149 593.657944 L 260.641523 593.576934 L 261.034896 592.513084 L 261.428269 587.265728 L 261.821643 598.167937 L 262.215016 605.228102 L 262.608389 597.332032 L 263.001762 604.091344 L 263.395136 602.981667 L 263.788509 603.253249 L 264.181882 598.482152 L 264.575256 591.747515 L 264.968629 595.870146 L 265.755375 574.691215 L 266.148749 555.476636 L 266.542122 561.292327 L 266.935495 535.864917 L 267.328869 581.527685 L 267.722242 555.998131 L 268.115615 580.881308 L 268.508988 563.136153 L 268.902362 590.411488 L 269.295735 555.855635 L 269.689108 585.369842 L 270.082481 593.688333 L 270.475855 590.778809 L 270.869228 601.974374 L 271.262601 589.296028 L 271.655975 596.164591 L 272.049348 593.881723 L 272.442721 600.410193 L 272.836094 603.266685 L 273.229468 600.548131 L 273.622841 601.039053 L 274.016214 601.957889 L 274.409588 602.440654 L 274.802961 583.624443 L 275.196334 597.535466 L 275.589707 577.517828 L 275.983081 551.584853 L 276.376454 558 L 277.163201 578.024809 L 277.556574 585.230638 L 277.949947 532.204486 L 278.34332 579.663809 L 278.736694 582.286162 L 279.130067 581.107009 L 279.52344 601.115888 L 279.916814 599.216822 L 280.310187 595.722843 L 280.70356 584.491059 L 281.096933 597.789252 L 281.490307 593.142056 L 281.88368 599.981931 L 282.277053 602.214456 L 282.670427 601.926661 L 283.0638 603.764759 L 283.457173 602.122106 L 283.850546 595.494722 L 284.24392 596.705835 L 284.637293 580.191685 L 285.030666 571.106585 L 285.424039 583.546899 L 285.817413 556.13271 L 286.210786 560.793925 L 286.604159 549.732047 L 286.997533 554.771145 L 287.390906 371.990187 L 287.784279 586.674898 L 288.177652 591.678896 L 288.571026 584.148333 L 288.964399 587.051882 L 289.357772 591.757589 L 289.751146 593.042991 L 290.144519 589.246279 L 290.537892 602.902106 L 290.931265 599.9225 L 291.324639 601.47728 L 291.718012 597.090739 L 292.111385 602.555303 L 292.504759 602.25927 L 292.898132 602.406715 L 293.291505 592.77818 L 293.684878 577.735769 L 294.078252 577.09568 L 294.471625 564.979206 L 294.864998 563.595959 L 295.258372 539.128598 L 295.651745 558.782243 L 296.045118 552.225319 L 296.438491 562.314953 L 296.831865 559.060722 L 297.618611 596.552804 L 298.011984 592.726981 L 298.405358 594.391343 L 298.798731 594.391844 L 299.192104 603.122693 L 299.978851 587.112482 L 300.372224 590.938965 L 300.765597 592.643925 L 301.158971 602.431952 L 301.552344 595.683214 L 301.945717 600.545741 L 302.339091 600.105429 L 302.732464 597.416005 L 303.125837 583.92158 L 303.51921 555.488727 L 303.912584 582.06729 L 304.305957 578.590654 L 304.69933 576.694008 L 305.092704 558.48785 L 305.486077 567.538709 L 305.87945 592.264486 L 306.272823 594.385528 L 306.666197 592.572682 L 307.05957 596.416313 L 307.452943 593.96215 L 307.846317 597.991335 L 308.23969 597.4859 L 308.633063 603.224809 L 309.026436 604.25077 L 309.41981 603.807853 L 309.813183 604.193483 L 310.206556 603.187026 L 310.59993 599.642056 L 310.993303 580.9016 L 311.386676 598.423885 L 311.780049 602.809277 L 312.173423 594.603925 L 312.566796 596.841418 L 312.960169 592.960891 L 313.353542 574.985377 L 313.746916 539.166978 L 314.140289 525.387891 L 314.533662 562.680714 L 314.927036 571.550663 L 315.320409 575.947592 L 315.713782 574.696756 L 316.107155 592.159813 L 316.500529 598.845954 L 316.893902 598.696171 L 317.287275 598.956391 L 317.680649 603.784606 L 318.074022 598.908411 L 318.467395 601.160554 L 318.860768 601.174766 L 319.254142 600.783645 L 319.647515 603.897897 L 320.040888 604.591599 L 320.434262 602.890859 L 320.827635 603.390457 L 321.221008 600.789154 L 321.614381 592.475629 L 322.007755 593.697196 L 322.401128 592.190719 L 323.187875 576.422243 L 323.581248 520.35536 L 323.974621 487.298386 L 324.367994 549.302804 L 324.761368 552.296686 L 325.154741 440.463212 L 325.548114 266.921495 L 325.941487 561.310555 L 326.334861 558.06729 L 327.121607 592.041983 L 327.514981 595.675736 L 327.908354 596.858762 L 328.301727 600.755983 L 328.6951 600.166955 L 329.088474 603.009628 L 329.481847 599.795526 L 329.87522 575.096495 L 330.268594 593.864019 L 330.661967 592.918976 L 331.05534 588.066552 L 331.448713 586.937617 L 331.842087 553.208411 L 332.23546 557.761682 L 332.628833 444.970093 L 333.022207 566.142056 M 334.202326 543.768224 L 334.5957 569.609346 L 334.989073 567.160495 L 335.382446 485.125234 L 335.77582 585.4013 L 336.169193 591.459813 L 336.562566 590.92918 L 336.955939 585.788428 L 337.349313 587.777944 L 337.742686 595.055403 L 338.136059 596.027024 L 338.529432 585.955953 L 338.922806 602.930218 L 339.316179 604.279713 L 339.709552 599.93921 L 340.102926 592.46729 L 340.496299 602.783742 L 340.889672 604.18269 L 341.676419 594.853986 L 342.069792 579.28802 L 342.463165 575.313515 L 342.856539 578.769393 L 343.249912 553.891528 L 343.643285 554.054645 L 344.430032 583.642559 L 345.216778 576.740187 L 345.610152 591.501869 L 346.003525 592.282774 L 346.396898 601.943246 L 346.790271 599.133012 L 347.183645 601.528433 L 347.577018 600.077882 L 348.363765 601.083546 L 348.757138 604.987076 L 349.150511 601.74785 L 349.543884 596.431776 L 349.937258 600.913313 L 350.330631 602.323847 L 350.724004 598.947119 L 351.117378 588.278845 L 351.510751 595.186822 L 351.904124 591.681473 L 352.297497 585.286229 L 352.690871 571.772313 L 353.084244 548.596262 L 353.477617 480.179439 L 353.87099 574.740771 L 354.264364 570.196644 L 354.657737 582.098131 L 355.444484 593.455485 L 355.837857 596.780685 L 356.23123 601.905013 L 356.624603 600.581776 L 357.017977 600.256698 L 357.41135 597.776778 L 357.804723 600.876256 L 358.198097 598.414233 L 358.59147 601.189382 L 358.984843 596.903398 L 359.378216 600.562344 L 360.164963 593.965281 L 360.558336 589.766147 L 360.95171 579.021729 L 361.345083 588.006668 L 361.738456 566.867768 L 362.131829 562.795278 L 362.525203 561.960173 L 363.311949 548.125234 L 363.705323 552.653526 L 364.098696 512.709813 L 364.492069 569.835344 L 364.885442 601.003037 L 365.278816 599.620648 L 365.672189 602.832087 L 366.065562 603.297131 L 366.852309 605.963828 L 367.245682 605.129338 L 367.639055 597.569749 L 368.032429 605.791501 L 368.425802 602.816501 L 368.819175 600.838616 L 369.212548 596.453781 L 369.605922 603.249533 L 369.999295 601.847095 L 370.392668 596.851558 L 370.786042 583.316463 L 371.179415 575.324838 L 371.572788 579.147897 L 371.966161 557.915421 L 372.359535 581.773349 L 372.752908 578.870518 L 373.539655 598.539594 L 373.933028 589.156192 L 374.326401 602.252931 L 374.719774 605.618826 L 375.113148 605.501618 L 375.506521 605.007877 L 375.899894 605.703988 L 376.293268 601.609531 L 376.686641 605.370574 L 377.080014 603.207806 L 377.473387 594.721682 L 377.866761 597.061087 L 378.260134 601.011215 L 378.653507 600.825701 L 379.046881 595.073337 L 379.440254 600.248296 L 379.833627 602.132948 L 380.227 599.997196 L 380.620374 598.569764 L 381.013747 578.832477 L 381.40712 566.749241 L 381.800493 581.324989 L 382.193867 591.757589 L 382.58724 582.609638 L 382.980613 594.344265 L 383.373987 598.783725 L 383.76736 600.63718 L 384.160733 606.937158 L 384.554106 602.08059 L 384.94748 601.928791 L 385.340853 597.154876 L 385.734226 599.571459 L 386.1276 600.588195 L 386.520973 605.178505 L 386.914346 604.624679 L 387.307719 601.947069 L 387.701093 593.629021 L 388.094466 600.229611 L 388.487839 603.586062 L 388.881213 583.696909 L 389.274586 576.551331 L 389.667959 562.640334 L 390.454706 552.070093 L 390.848079 537.450108 L 391.241452 559.284442 L 391.634826 561.55573 L 392.028199 566.515432 L 392.421572 587.826168 L 392.814945 582.441121 L 393.208319 592.140187 L 393.601692 593.992815 L 393.995065 595.055403 L 394.388438 599.626397 L 394.781812 601.5719 L 395.175185 598.490599 L 395.568558 598.481799 L 395.961932 594.680467 L 396.355305 585.748598 L 396.748678 563.043187 L 397.142051 560.270561 L 397.535425 573.121612 L 397.928798 572.949883 L 398.322171 553.673667 L 398.715545 553.078388 L 399.108918 534.017944 L 399.502291 561.347664 L 399.895664 536.655701 L 400.289038 460.053696 L 400.682411 566.534579 L 401.075784 531.05582 L 401.469158 521.320794 L 401.862531 528.571963 L 402.649277 586.011354 L 403.042651 583.005228 L 403.436024 593.633307 L 403.829397 567.717056 L 404.222771 585.994893 L 404.616144 583.520415 L 405.009517 597.784177 L 405.40289 594.77683 L 405.796264 595.332207 L 406.189637 596.57689 L 406.58301 564.798418 L 406.976384 578.13289 L 407.76313 574.036582 L 408.156503 551.707326 L 408.549877 536.136664 L 408.94325 557.899065 L 409.336623 557.686449 L 409.729996 569.764364 L 410.12337 552.182153 L 410.516743 544.640498 L 410.910116 565.840483 L 411.696863 585.332457 L 412.090236 552.350212 L 412.483609 583.391618 L 412.876983 587.998712 L 413.270356 577.414613 L 414.057103 599.334813 L 414.450476 600.558448 L 414.843849 596.99335 L 415.237222 601.144312 L 415.630596 598.108178 L 416.023969 591.384503 L 416.417342 595.553001 L 416.810716 588.845607 L 417.204089 576.674766 L 417.597462 576.284712 L 417.990835 543.496477 L 418.384209 530.405364 L 418.777582 584.091079 L 419.170955 584.725584 L 419.564329 583.31802 L 419.957702 556.452336 L 420.351075 579.421262 L 420.744448 574.18486 L 421.137822 577.340081 L 421.531195 592.83585 L 421.924568 575.056262 L 422.317941 592.454206 L 422.711315 586.806776 L 423.104688 589.781776 L 423.498061 597.484708 L 423.891435 601.767425 L 424.284808 601.417441 L 424.678181 598.737196 L 425.071554 588.368692 L 425.858301 595.307319 L 426.251674 588.335327 L 426.645048 587.241531 L 427.431794 556.570093 L 427.825167 550.168888 L 428.218541 570.71541 L 428.611914 548.133355 L 429.005287 570.429947 L 429.398661 581.061449 L 429.792034 548.871028 L 430.185407 571.59145 L 430.57878 575.68961 L 430.972154 592.169031 L 431.365527 600.24765 L 431.7589 595.82243 L 432.152274 602.035152 L 432.545647 603.988764 L 432.93902 603.21461 L 433.332393 602.142056 L 433.725767 605.434214 L 434.11914 605.443458 L 434.512513 602.118722 L 434.905886 597.4859 L 435.29926 603.228334 L 436.086006 589.223921 L 436.47938 573.299065 L 436.872753 568.217523 L 437.266126 596.407768 L 437.659499 597.836655 L 438.052873 571.863511 L 438.446246 579.927747 L 438.839619 572.731438 L 439.232993 578.873144 L 440.019739 602.895012 L 440.413112 601.239291 L 440.806486 604.901196 L 441.199859 596.120569 L 441.593232 602.729302 L 441.986606 606.02689 L 442.379979 607.563084 L 442.773352 604.56183 L 443.166725 605.207799 L 443.560099 602.994325 L 443.953472 597.806716 L 444.346845 605.309314 L 444.740219 603.348479 L 445.133592 604.344184 L 445.920338 584.004889 L 446.313712 589.865785 L 446.707085 591.103634 L 447.100458 589.894506 L 447.493832 587.191121 L 448.280578 594.846784 L 448.673951 605.341666 L 449.067325 602.563136 L 449.460698 598.716708 L 449.854071 602.387515 L 450.247444 601.962979 L 450.640818 600.604772 L 451.034191 604.90324 L 451.427564 604.333086 L 451.820938 608.305156 L 452.214311 606.187325 L 452.607684 601.595037 L 453.001057 601.748057 L 453.394431 603.25273 L 453.787804 600.650706 L 454.181177 601.296929 L 454.574551 602.923387 L 454.967924 596.032527 L 455.361297 596.603024 L 455.75467 576.924904 L 456.148044 563.575557 L 456.541417 571.812312 L 456.93479 524.338318 L 457.721537 575.814953 L 458.11491 571.351524 L 458.508283 589.372302 L 458.901657 587.628785 L 459.29503 591.480352 L 459.688403 585.281837 L 460.081777 601.097079 L 460.47515 601.804493 L 460.868523 601.046229 L 461.261896 602.245455 L 461.65527 604.172218 L 462.048643 604.301248 L 462.442016 604.0463 L 462.835389 594.324829 L 463.228763 597.95624 L 464.015509 600.384778 L 464.408883 594.22164 L 465.195629 569.636367 L 465.589002 578.495837 L 465.982376 575.515514 L 466.375749 581.672468 L 466.769122 579.870044 L 467.162496 583.612563 L 467.555869 592.876779 L 467.949242 594.868879 L 468.342615 594.468505 L 468.735989 599.369004 L 469.129362 602.088333 L 469.522735 598.716589 L 469.916109 596.673237 L 470.309482 600.830264 L 470.702855 603.416942 L 471.096228 602.363516 L 471.489602 599.675836 L 472.276348 601.658835 L 472.669722 596.610356 L 473.063095 599.675629 L 473.456468 599.607692 L 473.849841 573.83231 L 474.243215 587.685136 L 474.636588 591.541025 L 475.029961 561.567649 L 475.423335 580.343957 L 475.816708 535.18555 L 476.210081 559.101168 L 476.603454 530.33322 L 476.996828 540.141308 L 477.390201 586.075416 L 477.783574 599.192832 L 478.176947 599.906444 L 478.570321 594.055274 L 478.963694 597.234038 L 479.357067 603.658492 L 479.750441 596.056866 L 480.143814 600.771804 L 480.537187 602.960513 L 480.93056 602.577674 L 481.323934 600.402519 L 481.717307 600.201337 L 482.11068 594.653526 L 482.504054 597.966135 L 482.897427 594.335563 L 483.2908 587.338318 L 484.077547 595.518428 L 484.864293 561.86959 L 485.257667 571.612059 L 485.65104 577.068548 L 486.044413 574.973832 L 486.437786 554.347362 L 486.83116 552.315104 L 487.224533 580.526684 L 487.617906 589.569886 L 488.01128 592.545794 L 488.404653 592.06867 L 488.798026 595.460088 L 489.191399 603.939425 L 489.584773 600.615421 L 489.978146 602.718973 L 490.371519 601.038737 L 490.764892 601.381637 L 491.158266 601.401528 L 491.551639 602.414895 L 491.945012 602.41714 L 492.338386 604.920345 L 492.731759 603.200675 L 493.125132 597.916658 L 493.518505 557.997196 L 493.911879 539.624922 L 494.305252 558.349313 L 494.698625 558.124189 L 495.091999 590.842991 L 495.485372 588.556216 L 495.878745 584.314104 L 496.272118 591.936134 L 496.665492 587.765792 L 497.058865 598.482152 L 497.452238 600.755983 L 497.845612 606.155677 L 498.238985 599.774172 L 498.632358 605.917457 L 499.025731 603.585421 L 499.419105 602.511418 L 499.812478 603.225 L 500.205851 605.247196 L 500.599225 604.613456 L 500.992598 600.393986 L 501.385971 601.014373 L 501.779344 594.087654 L 502.172718 592.172897 L 502.566091 602.417965 L 502.959464 593.413803 L 503.352838 596.431776 L 503.746211 593.802558 L 504.139584 583.413084 L 504.532957 592.92861 L 504.926331 597.47566 L 505.319704 589.844244 L 505.713077 599.228124 L 506.10645 601.146145 L 506.499824 599.261215 L 506.893197 604.54872 L 507.28657 605.43556 L 507.679944 603.967429 L 508.073317 600.859642 L 508.860063 605.786916 L 509.253437 608.3064 L 509.64681 606.760803 L 510.040183 604.579071 L 510.433557 601.662838 L 510.82693 602.221909 L 511.220303 600.02356 L 511.613676 597.076718 L 512.00705 600.304482 L 512.400423 592.736617 L 512.793796 589.504465 L 513.18717 582.009813 L 513.580543 570.001869 L 513.973916 589.722534 L 514.367289 590.594808 L 514.760663 595.158298 L 515.154036 604.170453 L 515.547409 605.972424 L 515.940783 606.750907 L 516.334156 606.578701 L 516.727529 605.826168 L 517.120902 605.3651 L 517.514276 603.000701 L 517.907649 603.411117 L 518.301022 605.607397 L 518.694395 605.35514 L 519.087769 599.399353 L 519.481142 600.077882 L 519.874515 602.872909 L 520.267889 600.334254 L 520.661262 601.27019 L 521.448008 586.975368 L 521.841382 587.93485 L 522.234755 579.544945 L 522.628128 511.025234 L 523.021502 530.467035 L 523.414875 575.147004 L 523.808248 590.688785 L 524.201621 576.340257 L 524.594995 581.051291 L 524.988368 574.142606 L 525.381741 593.776967 L 525.775115 597.730122 L 526.168488 588.021308 L 526.955234 592.00011 L 527.741981 604.099492 L 528.135354 601.753672 L 528.528728 602.614019 L 528.922101 604.727306 L 529.315474 601.707012 L 530.102221 603.193458 L 530.495594 602.186269 L 530.888967 581.811336 L 531.282341 580.002056 L 531.675714 569.242991 L 532.069087 541.13972 L 532.46246 560.904968 L 532.855834 569.059813 L 533.249207 589.513551 L 533.64258 550.617757 L 534.035953 588.30498 L 534.429327 596.900818 L 534.8227 595.654907 L 535.216073 596.480544 L 535.609447 600.351321 L 536.00282 591.576201 L 536.789566 606.345035 L 537.18294 606.352459 L 537.969686 602.992863 L 538.36306 598.953869 L 538.756433 600.921262 L 539.149806 602.008562 L 539.543179 601.98577 L 539.936553 600.780155 L 540.329926 593.270485 L 540.723299 580.626168 L 541.116673 590.920093 L 541.510046 584.358709 L 541.903419 586.988229 L 542.296792 578.324554 L 542.690166 586.493539 L 543.083539 589.67892 L 543.476912 598.539712 L 543.870286 590.641631 L 544.263659 590.41472 L 544.657032 598.265769 L 545.050405 600.607009 L 545.443779 600.070794 L 545.837152 602.350485 L 546.230525 605.716822 L 546.623898 602.544964 L 547.017272 605.599229 L 547.410645 605.503322 L 547.804018 598.977421 L 548.197392 599.331916 L 548.590765 602.061818 L 548.984138 602.141513 L 549.377511 587.689953 L 549.770885 587.927103 L 550.164258 591.295501 L 550.557631 597.130743 L 550.951005 597.269506 L 551.344378 595.814601 L 551.737751 593.716822 L 552.131124 601.594766 L 552.917871 593.061562 L 553.704618 601.354673 L 554.097991 599.175252 L 554.491364 598.544698 L 554.884737 604.493655 L 555.278111 600.718665 L 555.671484 605.684639 L 556.064857 599.711862 L 556.458231 597.991804 L 556.851604 600.134579 L 557.244977 604.992948 L 557.63835 600.892901 L 558.031724 604.757813 L 558.425097 604.197518 L 558.81847 597.175717 L 559.211843 587.475432 L 559.605217 597.151402 L 559.99859 591.747515 L 560.391963 581.884817 L 560.785337 590.90693 L 561.17871 591.723035 L 561.572083 593.114953 L 561.965456 590.509244 L 562.35883 597.594249 L 562.752203 597.393742 L 563.145576 593.181851 L 563.53895 600.751443 L 563.932323 598.539832 L 564.719069 601.473192 L 565.112443 600.62438 L 565.505816 605.442029 L 565.899189 604.79051 L 566.292563 600.287291 L 566.685936 604.260318 L 567.079309 599.874167 L 567.472682 605.187336 L 567.866056 603.204159 L 568.259429 597.488347 L 568.652802 584.693179 L 569.046176 587.035514 L 569.832922 567.628037 L 570.226295 550.676636 L 570.619669 590.20326 L 571.013042 598.245561 L 571.406415 587.02757 L 571.799789 581.344293 L 572.193162 595.918574 L 572.586535 597.332169 L 572.979908 602.207953 L 573.373282 603.787913 L 573.766655 601.36502 L 574.160028 601.407398 L 574.553401 605.739924 L 574.946775 605.880977 L 575.733521 605.741977 L 576.126895 598.351494 L 576.520268 596.896792 L 576.913641 603.083911 L 577.307014 595.75115 L 577.700388 597.103663 L 578.093761 597.184696 L 578.487134 587.452804 L 578.880508 585.58928 L 579.273881 568.45514 L 579.667254 591.032243 L 580.060627 595.677552 L 580.454001 589.829884 L 580.847374 599.478077 L 581.240747 603.860685 L 581.634121 604.359843 L 582.027494 600.520325 L 582.420867 598.836112 L 582.81424 602.570405 L 583.207614 603.545047 L 583.600987 601.893084 L 583.99436 603.9902 L 584.387734 607.72946 L 585.567853 601.314006 L 585.961227 602.882243 L 586.3546 602.440467 L 586.747973 600.312922 L 587.141346 596.523364 L 587.53472 600.537269 L 587.928093 589.112126 L 588.321466 588.900863 L 589.108213 559.059318 L 589.501586 550.704848 L 589.894959 577.063441 L 590.288333 584.90525 L 590.681706 583.92158 L 591.075079 597.165297 L 591.468453 593.017244 L 591.861826 599.644375 L 592.255199 597.856613 L 592.648572 596.960445 L 593.041946 595.603738 L 593.435319 597.771788 L 593.828692 588.360944 L 594.222066 601.864265 L 594.615439 604.419315 L 595.008812 598.173942 L 595.402185 603.084638 L 595.795559 602.515075 L 596.188932 598.070038 L 596.582305 588.151771 L 596.975679 596.181416 L 597.369052 589.082027 L 597.762425 593.074224 L 598.155798 579.308508 L 598.549172 545.37757 L 598.942545 567.779166 L 599.335918 581.624207 L 599.729292 590.842991 L 600.122665 582.961682 L 600.516038 584.220653 L 600.909411 570.071556 L 601.696158 597.383194 L 602.089531 599.408411 L 602.482904 600.274398 L 602.876278 599.541808 L 603.269651 594.082031 L 603.663024 603.315173 L 604.056398 602.019711 L 604.449771 597.09756 L 604.843144 604.039305 L 605.236517 602.995769 L 605.629891 597.766011 L 606.023264 598.784299 L 606.416637 594.03725 L 607.203384 568.272897 L 607.596757 566.828972 L 607.99013 573.437871 L 608.383504 586.092483 L 608.776877 582.70401 L 609.17025 584.180289 L 609.563624 593.591835 L 609.956997 589.780685 L 610.35037 592.526168 L 610.743743 592.214843 L 611.53049 591.016493 L 611.923863 597.740187 L 612.317237 595.292577 L 612.71061 601.039053 L 613.103983 601.609346 L 613.497356 606.88401 L 613.89073 604.747342 L 614.284103 606.044397 L 615.070849 591.703448 L 615.464223 596.321495 L 615.857596 561.989572 L 616.250969 578.257441 L 616.644343 543.286491 L 617.037716 528.613409 L 617.431089 491.918341 L 617.824462 570.760748 L 618.217836 558.747609 L 618.611209 580.832243 L 619.004582 565.309141 L 619.397956 562.338823 L 619.791329 581.220941 L 620.184702 586.625142 L 620.578075 594.23985 L 620.971449 594.397791 L 621.364822 588.925801 L 622.151569 599.791343 L 622.938315 595.581308 L 623.331688 596.404517 L 623.725062 591.665203 L 624.118435 596.321341 L 624.511808 597.221495 L 624.905182 598.563529 L 625.298555 583.914306 L 625.691928 579.064338 L 626.085301 544.032162 L 626.478675 593.110971 L 626.872048 583.029907 L 627.265421 581.334641 L 627.658795 580.582259 L 628.052168 578.849108 L 628.445541 583.338318 L 629.232288 600.867846 L 629.625661 602.357962 L 630.019034 598.370553 L 630.412407 585.9866 L 630.805781 588.546877 L 631.199154 589.542487 L 631.592527 601.219127 L 631.985901 604.795491 L 632.379274 601.610467 L 632.772647 602.133429 L 633.16602 600.518692 L 633.559394 595.258054 L 633.952767 595.098505 L 634.34614 595.069839 L 634.739514 592.423868 L 635.132887 586.326603 L 635.52626 589.050443 L 635.919633 582.908411 L 636.313007 580.689107 L 637.099753 586.943106 L 637.493127 583.456016 L 637.8865 594.445794 L 638.279873 593.094631 L 638.673246 601.589319 L 639.06662 600.021184 L 639.853366 592.803779 L 640.24674 597.141072 L 640.640113 598.857009 L 641.033486 604.18589 L 641.426859 601.215654 L 641.820233 602.279207 L 642.213606 600.592245 L 642.606979 599.707264 L 643.000352 600.826848 L 643.393726 601.068458 L 643.787099 599.997196 L 644.180472 590.090888 L 644.573846 590.695794 L 644.967219 579.544945 L 645.360592 581.676168 L 646.147339 596.790421 L 646.540712 591.66961 L 646.934085 588.638233 L 647.327459 588.91596 L 647.720832 600.144393 L 648.114205 603.398876 L 648.507578 602.288986 L 648.900952 603.28904 L 649.294325 601.336077 L 649.687698 600.771804 L 650.081072 601.792796 L 650.474445 595.48413 L 651.261191 602.708899 L 651.654565 601.401068 L 652.047938 595.642409 L 652.441311 585.333035 L 653.228058 588.60341 L 653.621431 589.164297 L 654.014804 594.481054 L 654.408178 577.09568 L 654.801551 582.71215 L 655.194924 578.367375 L 655.588297 550.909617 L 656.375044 569.179652 L 656.768417 558.083061 L 657.555164 593.765888 L 657.948537 586.143925 L 658.34191 591.487198 L 658.735284 591.534257 L 659.128657 595.252948 L 659.52203 592.383135 L 659.915404 584.420756 L 660.308777 598.18948 L 660.70215 587.754393 L 661.095523 592.998251 L 661.488897 602.1517 L 661.88227 602.828717 L 662.275643 602.846625 L 662.669017 597.80448 L 663.455763 569.420518 L 663.849136 569.756922 L 664.24251 590.965524 L 664.635883 532.13972 L 665.029256 200.271028 L 665.42263 550.676636 L 665.816003 573.390654 L 666.209376 576.04031 L 666.602749 590.384008 L 666.996123 576.351367 L 667.389496 588.790654 L 667.782869 594.12737 L 668.176243 602.125448 L 668.569616 588.697052 L 668.962989 570.545144 L 669.356362 600.170368 L 669.749736 598.261296 L 670.143109 598.685811 L 670.536482 597.450296 L 670.929855 594.193458 L 671.323229 574.246509 L 671.716602 587.704319 L 672.109975 582.328819 L 672.503349 580.618047 L 673.290095 547.320561 L 674.076842 556.998571 L 674.470215 567.54475 L 674.863588 548.092749 L 675.256962 506.882573 L 675.650335 577.350779 L 676.043708 553.593575 L 676.437081 550.146729 L 676.830455 586.937617 L 677.223828 591.913245 L 677.617201 595.258054 L 678.010575 590.667757 L 678.403948 590.450467 L 678.797321 583.13271 L 679.190694 584.645492 L 679.584068 597.017118 L 679.977441 596.164591 L 680.370814 591.954928 L 680.764188 595.335505 L 681.157561 587.534579 L 681.550934 569.647381 L 681.944307 574.348999 L 682.337681 575.662836 L 682.731054 557.327103 L 683.124427 556.990654 L 683.5178 552.324007 L 683.911174 577.246542 L 684.304547 587.63271 L 684.69792 565.797401 L 685.091294 575.845687 L 685.484667 574.88972 L 685.87804 581.875165 L 686.271413 565.266059 L 686.664787 561.850123 L 687.05816 591.539772 L 687.451533 593.936352 L 687.844907 601.885234 L 688.23828 600.607009 L 688.631653 599.915672 L 689.025026 601.068458 L 689.4184 600.751836 L 689.811773 601.582237 L 690.205146 591.18596 L 690.59852 587.386057 L 690.991893 591.947083 L 691.385266 589.238826 L 691.778639 593.280309 L 692.958759 566.562617 L 693.352133 573.918925 L 693.745506 568.853206 L 694.138879 592.021835 L 694.532252 594.027401 L 694.925626 592.803779 L 695.318999 583.413084 L 695.712372 590.45457 L 696.105746 595.175447 L 696.499119 588.523635 L 696.892492 590.587276 L 697.285865 565.286916 L 697.679239 588.1565 L 698.072612 595.462419 L 698.465985 605.203989 L 698.859358 600.415319 L 699.252732 599.959567 L 699.646105 604.140072 L 700.039478 591.507187 L 700.432852 597.265027 L 700.826225 595.693458 L 701.219598 592.941481 L 701.612971 583.496737 L 702.006345 588.120782 L 702.399718 586.509043 L 702.793091 567.114236 L 703.186465 592.75514 L 703.579838 569.530841 L 703.973211 588.607647 L 704.366584 599.034579 L 704.759958 597.363435 L 705.153331 599.90053 L 705.546704 591.767587 L 705.940078 589.142416 L 706.333451 601.802287 L 706.726824 602.771623 L 707.120197 601.859133 L 707.513571 601.951583 L 707.906944 600.938017 L 708.300317 595.850939 L 708.693691 588.128529 L 709.087064 598.98785 L 709.480437 599.304099 L 709.87381 597.347664 L 710.267184 586.299285 L 710.660557 552.189635 L 711.447303 589.767056 L 711.840677 586.185981 L 712.23405 590.246774 L 712.627423 569.792523 L 713.020797 585.104398 L 713.41417 590.20326 L 713.807543 593.852939 L 714.200916 596.41317 L 714.59429 597.616677 L 714.987663 599.444644 L 715.381036 603.253037 L 715.77441 604.248095 L 716.954529 596.748173 L 717.347903 602.786745 L 717.741276 599.060932 L 718.134649 592.376444 L 718.528023 599.053271 L 718.921396 598.792863 L 719.314769 597.320901 L 719.708142 580.332774 L 720.101516 557.273481 L 720.494889 560.238711 L 720.888262 566.213859 L 721.281636 550.520853 L 721.675009 588.740556 L 722.068382 505.993015 L 722.461755 574.569764 L 722.855129 595.135259 L 723.248502 585.597196 L 723.641875 590.059654 L 724.035249 585.853555 L 724.428622 592.048598 L 724.821995 596.071963 L 725.215368 601.441311 L 725.608742 592.081676 L 726.002115 593.948492 L 726.395488 598.534886 L 726.788861 596.737468 L 727.182235 598.477365 L 727.575608 583.636109 L 727.968981 589.443224 L 728.362355 591.247577 L 728.755728 586.278505 L 729.149101 583.698556 L 729.542474 491.366355 L 729.935848 562.624443 L 730.329221 500.06729 L 730.722594 532.453312 L 731.115968 543.431776 L 731.509341 545.940638 L 731.902714 576.980062 L 732.296087 578.853505 L 732.689461 544.400623 L 733.082834 588.114444 L 733.476207 584.176995 L 733.869581 593.45166 L 734.262954 592.630841 L 734.656327 600.984033 L 735.0497 595.666229 L 735.443074 586.674898 L 735.836447 589.722897 L 736.22982 597.609346 L 736.623194 601.282372 L 737.016567 596.77465 L 737.40994 599.941859 L 737.803313 596.050156 L 738.196687 612.391452 L 738.983433 501.302103 L 739.376806 373.094159 L 739.77018 553.331521 L 740.163553 532.180935 L 740.556926 583.923364 L 740.9503 578.056924 L 741.343673 582.506542 L 741.737046 578.306776 L 742.130419 594.433475 L 742.523793 594.611895 L 742.917166 594.007083 L 743.310539 587.565981 L 743.703913 598.475756 L 744.097286 600.75 L 744.490659 598.361957 L 744.884032 599.914047 L 745.670779 586.496028 L 746.064152 596.854357 L 746.457526 595.916971 L 746.850899 562.903738 L 747.244272 584.340867 L 747.637645 580.223 L 748.031019 558.45514 L 748.424392 462.244141 L 748.817765 568.935362 L 749.211139 451.864231 L 749.604512 511.061215 L 749.997885 550.64965 L 750.391258 532.679439 L 750.784632 531.151402 L 751.178005 574.144726 L 751.571378 569.491589 L 751.964751 567.894393 L 752.358125 585.896221 L 752.751498 586.854385 L 753.144871 591.646839 L 753.931618 588.01003 L 754.324991 587.272897 L 754.718364 595.767854 L 755.505111 593.445397 L 755.898484 594.829296 L 756.291858 589.23715 L 756.685231 578.732998 L 757.078604 584.792688 L 757.471977 585.111174 L 757.865351 586.96215 L 758.258724 550.068224 L 759.045471 511.323069 L 759.438844 540.300935 L 759.832217 520.64503 L 760.22559 592.01552 L 760.618964 598.352379 L 761.012337 583.226022 L 761.40571 595.341221 L 761.799084 588.933254 L 762.192457 585.809234 L 762.58583 594.146145 L 763.372577 585.829038 L 763.76595 599.953257 L 764.552697 591.194142 L 764.94607 589.369626 L 765.339443 596.110125 L 765.732816 581.290797 L 766.519563 590.304602 L 766.912936 586.640187 L 767.699683 582.814953 L 768.093056 571.576051 L 768.486429 574.120694 L 768.879803 589.261185 L 769.273176 594.570263 L 769.666549 583.340277 L 770.059922 595.085796 L 770.453296 590.476111 L 770.846669 594.33237 L 771.240042 586.50075 L 771.633416 602.292688 L 772.026789 602.320861 L 772.420162 603.847584 L 772.813535 599.002752 L 773.206909 603.190489 L 773.600282 600.594393 L 773.993655 593.666208 L 774.387029 591.06028 L 774.780402 590.729152 L 775.173775 598.101722 L 775.567148 583.007899 L 775.960522 589.840654 L 776.353895 593.833546 L 776.747268 561.399949 L 777.140642 547.706993 L 777.534015 582.996028 L 777.927388 535.59317 L 778.320761 570.616822 L 778.714135 577.695574 L 779.107508 589.089179 L 779.500881 597.103663 L 779.894254 588.864183 L 780.287628 594.435057 L 780.681001 593.790162 L 781.074374 601.72206 L 781.467748 597.90061 L 781.861121 587.620935 L 782.254494 591.995072 L 782.647867 601.369646 L 783.041241 601.0631 L 783.434614 596.842991 L 783.827987 596.071963 L 784.221361 599.288814 L 784.614734 597.593417 L 785.008107 597.594249 L 785.40148 588.157843 L 785.794854 590.267705 L 786.188227 588.413832 L 786.5816 573.194949 L 786.974974 562.448768 L 787.368347 564.933497 L 787.76172 584.017202 L 788.155093 583.334579 L 788.548467 583.057944 L 789.335213 593.746053 L 789.728587 588.649346 L 790.12196 599.039252 L 790.515333 593.741355 L 790.908706 574.710758 L 791.30208 567.415475 L 791.695453 592.380213 L 792.088826 566.730841 L 792.4822 590.243507 L 792.875573 594.118451 L 793.268946 589.803855 L 793.662319 593.857886 L 794.055693 584.340867 L 794.449066 592.77178 L 794.842439 572.974416 L 795.235812 575.374206 L 795.629186 520.650664 L 796.022559 524.897664 L 796.415932 484.73271 L 797.202679 556.682243 L 797.596052 568.702586 L 797.989425 574.799873 L 798.382799 576.660927 L 798.776172 544.84428 L 799.169545 543.284579 L 799.956292 585.01731 L 800.349665 584.104529 L 800.743038 595.461265 L 801.136412 591.535123 L 801.529785 591.798195 L 801.923158 599.06729 L 802.316532 598.275 L 802.709905 600.74769 L 803.103278 597.863502 L 803.496651 597.675335 L 803.890025 574.231963 L 804.283398 588.959388 L 804.676771 584.706102 L 805.070145 553.794887 L 805.463518 575.740622 L 805.856891 528.459813 L 806.250264 538.425545 L 806.643638 493.790764 L 807.037011 543.910345 L 807.430384 561.812754 L 807.823757 524.240187 L 808.217131 586.015685 L 808.610504 583.989 L 809.003877 568.182265 L 809.397251 572.003144 L 809.790624 578.26472 L 810.183997 593.162858 L 810.57737 582.52684 L 810.970744 595.096427 L 811.75749 601.283651 L 812.150864 595.915331 L 812.93761 601.691415 L 813.330983 600.700815 L 813.724357 598.530181 L 814.11773 586.73271 L 814.511103 587.895701 L 814.904477 586.689801 L 815.29785 568.861682 L 815.691223 569.18183 L 816.084596 529.51472 L 816.47797 509.556714 L 816.871343 573.0753 L 817.264716 579.49818 L 817.65809 576.518004 L 818.838209 534.394766 L 819.231583 584.541589 L 820.018329 597.270866 L 820.411703 589.305903 L 820.805076 575.424079 L 821.198449 589.758879 L 821.591822 581.662816 L 821.985196 592.015144 L 822.378569 590.192807 L 822.771942 584.675603 L 823.165315 575.135459 L 823.558689 571.816942 L 823.952062 543.138833 L 824.345435 553.225584 L 824.738809 518.627103 L 825.132182 529.465654 L 825.525555 569.740187 L 825.918928 581.018692 L 826.312302 598.40257 L 826.705675 577.54704 L 827.099048 585.442084 L 827.492422 543.452804 L 827.885795 584.464695 L 828.279168 593.498869 L 828.672541 596.055607 L 829.065915 594.326423 L 829.459288 595.996921 L 829.852661 590.059654 L 830.246035 593.418298 L 830.639408 594.718946 L 831.032781 597.462294 L 831.426154 588.985425 L 831.819528 600.946252 L 832.212901 598.037096 L 832.606274 590.597664 L 832.999648 576.936449 L 833.393021 573.624533 L 833.786394 567.347664 L 834.179767 540.210981 L 834.573141 571.530719 L 834.966514 563.151648 L 835.359887 589.722534 L 835.75326 585.937723 L 836.146634 585.714953 L 836.540007 584.44712 L 836.93338 599.175746 L 837.326754 595.352654 L 837.720127 590.409931 L 838.1135 598.228325 L 838.506873 602.107326 L 838.900247 601.840017 L 839.29362 603.093638 L 839.686993 605.325124 L 840.080367 599.104366 L 840.47374 598.944449 L 840.867113 593.226168 L 841.260486 596.208612 L 841.65386 594.1488 L 842.047233 588.507822 L 842.440606 587.534579 L 843.227353 566.670453 L 843.620726 579.580817 L 844.014099 508.048598 L 844.407473 573.142056 L 844.800846 568.202804 L 845.194219 592.598562 L 845.587593 596.963902 L 845.980966 595.54701 L 846.374339 600.144393 L 846.767712 595.6313 L 847.161086 600.905078 L 847.554459 600.925984 L 848.341205 586.528738 L 848.734579 591.620391 L 849.127952 600.755741 L 849.521325 603.314247 L 849.914699 601.931776 L 850.308072 598.370798 L 850.701445 588.86763 L 851.094818 597.965888 L 851.488192 595.42125 L 851.881565 580.420093 L 852.668312 490.593575 L 853.061685 469.749533 L 853.455058 543.368692 L 853.848431 571.478704 L 854.635178 556.2 L 855.028551 590.296781 L 855.421925 556.957009 L 855.815298 569.836682 L 856.208671 588.17243 L 856.602044 583.253055 L 856.995418 590.20326 L 857.388791 582.23868 L 858.175538 600.99566 L 858.568911 601.007126 L 858.962284 598.828972 L 859.355657 593.560846 L 859.749031 593.162858 L 860.142404 600.278696 L 860.535777 601.441498 L 860.929151 594.992523 L 861.715897 561.333645 L 862.10927 563.696334 L 862.502644 539.385047 L 862.896017 429.329822 L 863.28939 527.370561 L 863.682763 564.119051 L 864.076137 572.849086 L 864.46951 567.721071 L 864.862883 590.397128 L 865.256257 568.015463 L 865.64963 575.135459 L 866.043003 598.826692 L 866.436376 592.253681 L 866.82975 593.146781 L 867.223123 596.407768 L 867.616496 593.684801 L 868.00987 598.062617 L 868.403243 604.724255 L 869.189989 596.848248 L 869.583363 584.948543 L 869.976736 599.390295 L 870.370109 590.610174 L 870.763483 557.261215 L 871.156856 545.534579 L 871.550229 549.939564 L 871.943602 567.706985 L 872.730349 578.847418 L 873.123722 574.409079 L 873.517096 579.973515 L 873.910469 558.271963 L 874.303842 551.532827 L 874.697215 579.177964 L 875.090589 588.70182 L 875.483962 588.500394 L 875.877335 570.905862 L 876.270708 587.537232 L 877.057455 586.135148 L 877.450828 599.341188 L 877.844202 594.42158 L 878.630948 598.854953 L 879.024321 599.471819 L 879.417695 593.821023 L 879.811068 585.970014 L 880.204441 565.460305 L 880.597815 579.38972 L 880.991188 567.894393 L 881.384561 565.160748 L 882.171308 579.395983 L 882.564681 516.566355 L 882.958054 550.305769 L 883.351428 540.497196 L 883.744801 569.825737 L 884.531547 576.631153 L 884.924921 588.653526 L 885.318294 581.352336 L 885.711667 583.591504 L 886.105041 596.651827 L 886.498414 596.480841 L 886.891787 603.207806 L 887.28516 600.187686 L 888.071907 590.268055 L 888.46528 589.555348 L 888.858654 590.382767 L 889.252027 573.452804 L 889.6454 531.963084 L 890.038773 579.641291 L 890.432147 564.751869 L 890.82552 359.552103 L 891.218893 358.742523 L 891.612266 363.011215 L 892.00564 560.729763 L 892.399013 536.728403 L 893.18576 581.315336 L 893.579133 588.118267 L 893.972506 578.439887 L 894.365879 595.636854 L 894.759253 596.87027 L 895.152626 592.526168 L 895.545999 594.166944 L 895.939373 593.542253 L 896.332746 593.232432 L 896.726119 597.48078 L 897.119492 589.104673 L 897.512866 597.763874 L 897.906239 589.0435 L 898.299612 593.654957 L 898.692986 580.293556 L 899.086359 578.345964 L 899.873105 593.381824 L 900.266479 580.31215 L 900.659852 584.614088 L 901.053225 524.097451 L 901.446599 571.057131 L 901.839972 588.644213 L 902.233345 595.700198 L 902.626718 596.396965 L 903.020092 594.1488 L 903.413465 583.796408 L 903.806838 598.203628 L 904.200211 604.277953 L 904.593585 593.42243 L 904.986958 590.043748 L 905.380331 599.931287 L 905.773705 574.276903 L 906.560451 593.894685 L 906.953824 589.0435 L 907.347198 587.402842 L 907.740571 592.805607 L 908.527318 557.146729 L 908.920691 576.604313 L 909.314064 541.696573 L 909.707437 549.656075 L 910.100811 589.27074 L 910.887557 574.973832 L 911.280931 572.164836 L 911.674304 563.517757 L 912.067677 585.017812 L 912.46105 583.032827 L 912.854424 577.473391 L 913.247797 597.550693 L 913.64117 597.398862 L 914.034544 600.148722 L 914.427917 599.538492 L 914.82129 586.749533 L 915.214663 579.074668 L 915.608037 582.257673 L 916.00141 597.199092 L 916.394783 598.178889 L 916.788157 588.554121 L 917.968276 584.517847 M 917.968276 590.871028 L 918.36165 563.521963 L 918.755023 592.274433 L 919.148396 597.60145 L 919.541769 584.267577 L 919.935143 560.73453 L 920.328516 565.685748 L 920.721889 509.553271 L 921.115263 554.544775 L 921.508636 560.842991 L 921.902009 532.385047 L 922.295382 566.730841 L 922.688756 587.958091 L 923.082129 594.570263 L 923.475502 592.558879 L 923.868876 597.172619 L 924.262249 586.117455 L 925.048995 578.206797 L 925.442369 586.980273 L 925.835742 586.328972 L 926.229115 573.894393 L 926.622489 582.983178 L 927.015862 588.71215 L 927.409235 585.085575 L 927.802608 574.569042 L 928.195982 554.630293 L 928.589355 572.147664 L 928.982728 111.6 L 929.376102 434.521835 L 929.769475 532.369346 L 930.162848 580.335981 L 930.556221 559.201529 L 930.949595 579.213084 L 931.342968 572.205289 L 931.736341 585.087081 L 932.129714 580.232291 L 932.523088 573.83231 L 932.916461 590.341121 L 933.309834 584.081007 L 933.703208 582.300935 L 934.096581 577.692948 L 934.489954 590.94906 L 934.883327 573.808528 L 935.276701 592.670837 L 935.670074 583.546899 L 936.063447 588.439422 L 936.456821 586.765664 L 936.850194 582.600438 L 937.243567 593.684801 L 938.030314 580.810034 L 938.423687 587.581682 L 939.210434 549.06729 L 939.603807 567.485694 L 939.99718 465.233357 L 940.390553 567.59348 L 940.783927 531.550935 L 941.1773 524.005526 L 941.570673 562.131953 L 941.964047 560.286032 L 942.35742 578.39949 L 942.750793 586.471495 L 943.144166 578.085981 L 943.930913 596.986966 L 944.324286 580.262192 L 944.717659 596.291152 L 945.111033 596.369956 L 945.504406 595.95549 L 945.897779 595.175447 L 946.291153 583.948055 L 946.684526 577.023257 L 947.077899 581.724557 L 947.471272 544.702159 L 947.864646 593.828037 L 948.258019 560.842991 L 949.044766 516.625234 L 949.438139 539.811589 L 949.831512 576.620249 L 950.224885 581.469772 L 950.618259 584.276636 L 951.011632 590.196079 L 951.405005 582.710835 L 951.798379 585.819423 L 952.191752 585.633477 L 952.585125 573.284275 L 953.371872 585.765421 L 953.765245 582.590051 L 954.158618 593.771569 L 954.551992 595.424299 L 955.338738 589.581663 L 955.732111 592.486764 L 956.125485 581.074031 L 956.518858 563.44604 L 956.912231 562.594249 L 957.305605 555.803683 L 957.698978 474.382171 L 958.092351 553.335981 L 958.485724 554.812404 L 958.879098 567.466822 L 959.272471 545.534579 L 959.665844 576.940152 L 960.059217 550.428855 L 960.452591 554.937823 L 960.845964 553.404673 L 961.239337 579.126316 L 961.632711 575.77775 L 962.026084 596.104673 L 962.419457 600.482203 L 962.81283 600.452552 L 963.206204 596.1919 L 963.599577 598.873794 L 963.99295 593.52366 L 964.386324 575.279547 L 964.779697 585.827956 L 965.17307 564.677274 L 965.566443 578.022897 L 965.959817 568.399065 L 966.35319 600.22568 L 966.746563 593.274656 L 967.139937 583.117028 L 967.53331 585.239171 L 967.926683 586.051402 L 968.320056 567.095327 L 968.71343 572.385631 L 969.106803 588.061682 L 969.500176 578.401402 L 969.89355 597.102771 L 970.286923 604.624922 L 970.680296 603.147897 L 971.073669 597.275985 L 971.467043 605.175561 L 971.860416 605.144693 L 973.040536 592.24486 L 973.433909 602.471191 L 973.827282 600.180915 L 974.220656 595.118283 L 974.614029 594.326423 L 975.007402 595.54734 L 975.400775 581.238119 L 975.794149 595.084882 L 976.187522 590.843321 L 976.580895 567.634558 L 976.974269 565.009777 L 977.367642 555.509291 L 977.761015 555.863551 L 978.154388 563.315888 L 978.547762 565.609346 L 978.941135 586.258879 L 979.334508 596.305136 L 979.727882 601.641389 L 980.121255 592.491841 L 980.514628 602.133429 L 980.908001 601.215094 L 981.301375 595.497196 L 981.694748 596.626815 L 982.088121 595.884112 L 982.481495 600.602804 L 982.874868 597.373487 L 983.268241 597.289836 L 983.661614 598.385277 L 984.054988 592.957375 L 984.448361 580.488785 L 984.841734 582.568161 L 985.235108 578.772073 L 985.628481 565.637383 L 986.021854 560.178233 L 986.415227 500.696334 L 986.808601 491.719626 L 987.201974 554.303271 L 987.595347 590.197117 L 987.98872 580.795027 L 988.382094 558.903463 L 988.775467 566.82669 L 989.16884 588.209056 L 989.562214 596.104673 L 989.955587 595.892365 L 990.34896 593.441423 L 990.742333 592.175722 L 991.135707 578.559112 L 991.52908 570.506745 L 991.922453 597.204446 L 992.315827 598.899065 L 992.7092 604.929773 L 993.102573 601.923255 L 993.495946 601.389052 L 993.88932 583.216822 L 994.282693 489.894393 L 994.676066 557.37757 L 995.06944 512.680374 L 995.462813 576.71838 L 995.856186 572.180235 L 996.249559 559.944319 L 996.642933 565.839707 L 997.036306 522.796262 L 997.429679 575.940328 L 997.823053 591.972402 L 998.216426 551.868479 L 998.609799 592.59769 L 999.003172 597.032243 L 999.396546 569.543925 L 999.789919 584.173598 L 1000.183292 574.64264 L 1000.576665 578.713133 L 1000.970039 596.544275 L 1001.363412 600.411117 L 1001.756785 595.73271 L 1002.150159 596.990187 L 1002.936905 590.94906 L 1003.330278 573.83231 L 1003.723652 546.166978 L 1004.117025 468.740187 L 1004.510398 537.470784 L 1004.903772 561.806457 L 1005.297145 489.473832 L 1005.690518 551.069159 L 1006.083891 535.266168 L 1006.477265 576.638282 L 1006.870638 578.463721 L 1007.264011 588.491355 L 1008.050758 563.277696 L 1008.444131 601.54631 L 1008.837504 595.164014 L 1009.230878 595.464717 L 1009.624251 595.221178 L 1010.017624 590.38865 L 1010.410998 587.313785 L 1010.804371 590.395744 L 1011.197744 587.857378 L 1011.591117 589.435864 L 1011.984491 589.98785 L 1012.377864 594.973732 L 1013.164611 559.371028 L 1013.557984 578.992031 L 1013.951357 550.362617 L 1014.34473 554.328369 L 1014.738104 508.735514 L 1015.131477 565.203183 L 1015.52485 533.268224 L 1015.918223 524.107924 L 1016.70497 565.803505 L 1017.098343 563.833399 L 1017.491717 589.954312 L 1017.88509 582.571963 L 1018.278463 597.045455 L 1018.671836 598.010047 L 1019.06521 595.82571 L 1019.458583 589.015237 L 1019.851956 590.842991 L 1020.24533 601.136191 L 1020.638703 599.555607 L 1021.032076 602.038703 L 1021.425449 592.598562 L 1021.818823 595.280908 L 1022.212196 592.794849 L 1022.605569 565.075878 L 1022.998943 575.435624 L 1023.392316 570.276351 L 1023.785689 560.604294 L 1024.179062 494.587356 L 1024.572436 545.471495 L 1024.965809 465.410748 L 1025.359182 557.545794 L 1025.752556 562.392425 L 1026.145929 589.187707 L 1026.539302 596.758879 L 1026.932675 589.406425 L 1027.326049 594.861682 L 1027.719422 587.250796 L 1028.112795 600.490674 L 1028.506168 600.476636 L 1029.292915 593.464188 L 1029.686288 583.253055 L 1030.079662 583.069626 L 1030.866408 600.231421 L 1031.259781 584.403592 L 1031.653155 597.540541 L 1032.046528 590.622745 L 1032.439901 538.033022 L 1032.833275 569.714019 L 1033.226648 583.170824 L 1033.620021 582.786916 L 1034.013394 581.714405 L 1034.406768 589.63307 L 1034.800141 581.064712 L 1035.193514 590.558901 L 1035.586888 594.391598 L 1035.980261 594.574486 L 1036.767007 600.140063 L 1037.160381 599.76079 L 1037.553754 596.368139 L 1037.947127 590.161648 L 1038.340501 600.670093 L 1038.733874 592.438916 L 1039.127247 593.846272 L 1039.52062 589.707996 L 1039.913994 603.487364 L 1040.307367 600.64653 L 1040.70074 587.015696 L 1041.094114 596.87027 L 1041.487487 596.631574 L 1041.88086 596.937135 L 1042.667607 585.862089 L 1043.06098 594.146928 L 1043.454353 594.686355 L 1043.847726 584.983178 L 1044.2411 589.380433 L 1044.634473 588.179439 L 1045.027846 585.211661 L 1045.42122 593.392564 L 1045.814593 591.304157 L 1046.207966 594.31112 L 1046.601339 593.924212 L 1046.994713 592.001763 L 1047.388086 595.016313 L 1047.781459 586.675935 L 1048.174833 586.725 L 1048.568206 579.621028 L 1048.961579 567.782243 L 1049.354952 599.123364 L 1049.748326 587.825047 L 1050.141699 601.0631 L 1050.535072 593.82722 L 1050.928446 590.20026 L 1051.321819 584.519286 L 1051.715192 588.965224 L 1052.108565 579.49486 L 1052.501939 576.286332 L 1052.895312 566.881461 L 1053.288685 565.311718 L 1053.682059 563.095093 L 1054.075432 590.429439 L 1054.468805 580.612197 L 1054.862178 589.165061 L 1055.255552 592.189104 L 1055.648925 583.859133 L 1056.042298 600.300312 L 1056.829045 595.960992 L 1057.222418 594.800267 L 1057.615791 587.441753 L 1058.009165 589.882451 L 1058.402538 589.275111 L 1059.189284 567.417757 L 1059.582658 584.001869 L 1059.976031 562.57752 L 1060.369404 587.661735 L 1060.762778 540.484615 L 1061.156151 542.334661 L 1061.549524 567.169007 L 1061.942897 571.992325 L 1062.336271 570.902446 L 1062.729644 564.537617 L 1063.516391 581.141596 L 1063.909764 578.441121 L 1064.303137 593.405903 L 1064.69651 593.023364 L 1065.483257 596.47274 L 1065.87663 596.186601 L 1066.270004 600.198131 L 1066.663377 597.613897 L 1067.05675 593.35912 L 1067.450123 596.467237 L 1067.843497 596.098559 L 1068.23687 596.608905 L 1068.630243 597.971083 L 1069.023616 596.610356 L 1069.41699 593.591835 L 1069.810363 583.170824 L 1070.203736 589.909594 L 1070.59711 546.853458 L 1070.990483 465.803271 L 1071.383856 563.643698 L 1071.777229 555.611215 L 1072.170603 562.231919 L 1072.563976 573.011215 L 1072.957349 458.345327 L 1073.350723 579.043679 L 1073.744096 562.850899 L 1074.137469 589.300935 L 1074.530842 563.500072 L 1074.924216 570.126625 L 1075.317589 592.256011 L 1075.710962 594.940572 L 1076.104336 591.786128 L 1076.497709 593.598032 L 1076.891082 596.448428 L 1077.284455 593.938908 L 1077.677829 577.951084 L 1078.071202 547.061059 L 1078.464575 570.545144 L 1078.857949 545.656397 L 1079.251322 536.585047 L 1079.644695 498.321379 L 1080.038068 561.061682 L 1080.431442 575.320176 L 1080.824815 578.874533 L 1081.218188 589.75161 L 1081.611562 573.724166 L 1082.004935 589.104673 L 1082.398308 594.301602 L 1082.791681 579.188293 L 1083.185055 551.707901 L 1083.578428 584.638965 L 1083.971801 573.391472 L 1084.365174 596.159088 L 1084.758548 595.262884 L 1085.151921 596.963902 L 1085.545294 600.047352 L 1086.332041 594.45781 L 1086.725414 589.759696 L 1087.118787 599.039841 L 1087.512161 585.353271 L 1087.905534 591.48785 L 1088.298907 586.493539 L 1088.692281 530.302966 L 1089.085654 555.378329 L 1089.479027 571.702804 L 1089.8724 466.773257 L 1090.265774 288.628037 L 1091.05252 556.173316 L 1091.445894 569.835344 L 1091.839267 565.553271 L 1092.23264 581.46012 L 1092.626013 551.308472 L 1093.019387 586.63356 L 1093.41276 587.144745 L 1093.806133 584.483602 L 1094.199507 585.648761 L 1094.59288 588.035563 L 1095.379626 594.975206 L 1096.166373 582 L 1096.953119 559.845327 L 1097.346493 575.755104 L 1097.739866 564.303898 L 1098.133239 580.06333 L 1098.526613 555.291589 L 1098.919986 581.011555 L 1099.313359 579.933597 L 1099.706732 591.179439 L 1100.100106 552.953271 L 1100.493479 562.364019 L 1100.886852 567.127929 L 1101.280226 575.354089 L 1101.673599 581.214953 L 1102.066972 578.806287 L 1102.460345 560.471126 L 1102.853719 585.34486 L 1103.247092 597.855931 L 1103.640465 591.113469 L 1104.033839 573.267557 L 1104.427212 547.280632 L 1104.820585 577.629372 L 1105.213958 569.059813 L 1105.607332 573.007039 L 1106.000705 588.614019 L 1106.394078 580.161231 L 1106.787452 579.054009 L 1107.574198 582.758879 L 1107.967571 574.27465 L 1108.360945 568.588785 L 1108.754318 550.966596 L 1109.147691 583.671323 L 1109.541065 545.092991 L 1109.934438 558.48785 L 1110.327811 566.071963 L 1111.114558 591.15503 L 1111.507931 579.765324 L 1111.901304 574.644112 L 1112.294677 602.613191 L 1113.081424 595.229192 L 1113.474797 585.802357 L 1113.868171 580.655091 L 1114.261544 573.713832 L 1114.654917 595.352654 L 1115.04829 592.77178 L 1115.441664 583.705967 L 1115.835037 589.961088 L 1116.22841 591.740187 L 1117.015157 564.639105 L 1117.40853 513.585243 L 1117.801903 574.77757 L 1118.195277 585.090229 L 1118.58865 529.081308 L 1118.982023 556.923364 L 1119.375397 554.56875 L 1119.76877 586.126615 L 1120.162143 561.177166 L 1120.555516 563.69395 L 1120.94889 573.384112 L 1121.342263 548.701837 L 1121.735636 557.663551 L 1122.12901 558.401264 L 1122.522383 587.965839 L 1122.915756 596.531526 L 1123.309129 594.379459 L 1123.702503 585.67436 L 1124.095876 586.285139 L 1124.489249 597.026986 L 1124.882622 601.190897 L 1126.062742 571.708751 L 1126.849489 517.020561 L 1127.242862 573.640053 L 1127.636235 570.731903 L 1128.029609 578.321825 L 1128.422982 554.193183 L 1128.816355 444.011215 L 1129.209729 569.84486 L 1129.603102 578.724611 L 1129.996475 561.779008 L 1130.389848 587.744662 L 1130.783222 552.915421 L 1131.569968 591.151728 L 1131.963342 597.493557 L 1132.356715 601.492868 L 1132.750088 588.674407 L 1133.143461 597.821685 L 1133.536835 599.114019 L 1133.930208 588.861308 L 1134.323581 588.737638 L 1134.716955 591.317937 L 1135.110328 580.213021 L 1135.503701 584.517422 L 1135.897074 581.185514 L 1136.683821 500.263551 M 1137.470568 477.403738 L 1137.863941 542.517056 L 1138.257314 539.366355 L 1138.650687 564.753127 L 1139.044061 579.410023 L 1139.437434 574.32241 L 1139.830807 580.203041 L 1140.22418 596.208612 L 1140.617554 588.764989 L 1141.010927 591.398904 L 1141.4043 592.081308 L 1141.797674 573.084813 L 1142.191047 585.753127 L 1142.58442 584.117842 L 1142.977793 581.500364 L 1143.371167 587.068458 L 1143.76454 597.413648 L 1144.157913 599.89759 L 1144.551287 586.285139 L 1144.94466 580.9016 L 1145.338033 560.301945 L 1145.731406 551.575078 L 1146.12478 552.189635 L 1146.518153 380.012383 L 1146.911526 543.15 L 1147.3049 445.048598 L 1147.698273 521.629907 L 1148.091646 553.295837 L 1148.485019 567.087211 L 1148.878393 575.313515 L 1149.271766 581.083683 L 1149.665139 553.552446 L 1150.058513 579.410023 L 1150.845259 588.470008 L 1151.238632 587.841884 L 1151.632006 593.658362 L 1152.025379 590.541589 L 1152.418752 576.511215 L 1152.812125 549.048297 L 1153.205499 576.887383 L 1153.598872 579.734869 L 1153.992245 577.173444 L 1154.385619 582.38271 L 1154.778992 571.185128 L 1155.172365 485.883294 M 1155.959112 467.012065 L 1156.352485 484.261682 L 1156.745858 539.793925 L 1157.139232 559.059318 L 1157.532605 566.908846 L 1157.925978 562.865996 L 1158.319351 539.690343 L 1158.712725 589.546262 L 1159.106098 589.594053 L 1159.499471 571.415522 L 1159.892845 595.977606 L 1160.286218 598.931776 L 1160.679591 596.660748 L 1161.072964 595.86729 L 1161.466338 595.451096 L 1161.859711 585.9866 L 1162.253084 584.789982 L 1162.646458 582.986828 L 1163.039831 579.168925 L 1163.433204 597.521739 L 1163.826577 566.598364 L 1164.219951 515.918692 L 1164.613324 571.172328 L 1165.006697 537.880374 L 1165.40007 570.237383 L 1165.793444 549.99795 L 1166.186817 577.938785 L 1166.58019 582.983178 L 1166.973564 581.431163 L 1167.366937 598.787466 L 1167.76031 585.26477 L 1168.153683 587.982056 L 1168.547057 549.048297 L 1168.94043 589.072847 L 1169.333803 596.601869 L 1170.12055 594.614461 L 1170.513923 597.497442 L 1170.907296 587.814185 L 1171.30067 575.043101 L 1171.694043 578.087599 L 1172.087416 556.973832 L 1172.48079 589.267364 L 1172.874163 575.950964 L 1173.267536 549.824299 L 1174.054283 579.197232 L 1174.447656 519.039252 L 1174.841029 523.160748 L 1175.234403 581.882243 L 1176.021149 558.193458 L 1176.414522 575.551294 L 1176.807896 585.605607 L 1177.201269 587.66094 L 1177.594642 586.433807 L 1177.988016 566.662378 L 1178.381389 597.569087 L 1178.774762 586.026168 L 1179.168135 580.193062 L 1179.561509 587.125701 L 1179.954882 589.219371 L 1180.348255 596.334953 L 1180.741628 598.496512 L 1181.135002 592.462689 L 1181.528375 593.059772 L 1181.921748 598.612104 L 1182.315122 594.349109 L 1182.708495 569.393755 L 1183.101868 567.263551 L 1183.495241 561.760803 L 1183.888615 552.011215 L 1184.281988 566.802644 L 1184.675361 523.036793 L 1185.068735 451.263551 L 1185.462108 471.852336 L 1185.855481 585.733404 L 1186.248854 572.949883 L 1186.642228 583.814528 L 1187.035601 557.414184 L 1187.428974 579.853762 L 1187.822348 579.816081 L 1188.215721 559.060722 L 1188.609094 560.008879 L 1189.002467 588.064217 L 1189.395841 584.210397 L 1189.789214 582.338318 L 1190.182587 591.179113 L 1190.575961 595.615277 L 1190.969334 589.475389 L 1191.362707 589.306099 L 1191.75608 592.349533 L 1192.149454 571.377123 L 1192.542827 571.261926 L 1193.329573 580.961476 L 1193.722947 580.140928 L 1194.11632 511.605841 L 1194.903067 458.620848 L 1195.29644 564.051869 L 1195.689813 561.748814 L 1196.083186 558.520561 L 1196.47656 589.761395 L 1196.869933 584.749395 L 1197.263306 586.854385 L 1197.65668 591.585981 L 1198.050053 593.555381 L 1198.836799 574.841656 L 1199.230173 591.617279 L 1199.623546 578.353458 L 1200.016919 581.348953 L 1200.410293 585.909648 L 1200.803666 583.385047 L 1201.197039 591.117496 L 1201.590412 588.577865 L 1201.983786 592.689145 L 1202.377159 567.826255 L 1202.770532 586.334488 L 1203.163906 546.319626 L 1203.557279 520.64503 L 1203.950652 542.064953 L 1204.344025 513.306345 L 1204.737399 566.232638 L 1205.130772 584.737118 L 1205.524145 578.611682 L 1205.917519 579.274065 L 1206.310892 565.825018 L 1206.704265 581.859623 L 1207.097638 578.054439 L 1207.491012 578.570773 L 1207.884385 592.78785 L 1208.277758 590.898736 L 1208.671131 591.665888 L 1209.064505 578.233956 L 1209.457878 591.680607 L 1209.851251 594.731516 L 1210.244625 599.85332 L 1210.637998 597.196559 L 1211.031371 581.119921 L 1211.424744 577.634687 L 1211.818118 586.45514 L 1212.211491 588.201331 L 1212.604864 565.311718 L 1212.998238 417.179439 L 1213.784984 582.960416 L 1214.178357 547.991234 L 1215.358477 578.656415 L 1215.751851 570.249859 L 1216.145224 582.618838 L 1216.538597 585.273304 L 1216.93197 591.165421 L 1217.325344 591.557944 L 1217.718717 596.98814 L 1218.11209 599.086202 L 1218.898837 596.115576 L 1219.29221 595.286916 L 1219.685583 591.801041 L 1220.078957 581.792342 L 1220.47233 584.139545 L 1220.865703 570.455547 L 1221.259076 587.203738 L 1221.65245 559.92003 L 1222.045823 554.879168 L 1222.439196 558.452167 L 1222.83257 548.86426 L 1223.225943 500.557944 L 1223.619316 491.871028 L 1224.012689 499.609346 L 1224.799436 568.209984 L 1225.192809 575.562617 L 1225.586183 585.247704 L 1225.979556 566.296262 L 1226.372929 584.034091 L 1226.766302 587.673598 L 1227.159676 593.716822 L 1227.553049 549.238227 L 1227.946422 582.0296 L 1228.339796 587.951636 L 1228.733169 572.642724 L 1229.126542 575.874327 L 1229.519915 592.624002 L 1229.913289 589.059382 L 1230.306662 576.651314 L 1230.700035 585.502694 L 1231.093409 590.431213 L 1231.486782 556.28972 L 1231.880155 544.945794 L 1232.273528 568.283093 L 1233.060275 555.786366 L 1234.240395 592.630768 L 1234.633768 599.005682 L 1235.027141 594.515298 L 1235.420515 587.440374 L 1235.813888 575.902301 L 1236.207261 584.086818 L 1236.600634 584.983178 L 1236.994008 572.373364 L 1237.387381 591.672627 L 1237.780754 577.939167 L 1238.174128 572.643746 L 1238.567501 591.520722 L 1238.960874 572.851752 L 1239.354247 567.924766 L 1239.747621 533.946219 L 1240.140994 573.820294 L 1240.534367 529.318458 L 1240.927741 576.262493 L 1241.321114 579.042757 L 1241.714487 556.983178 L 1242.10786 547.242056 L 1242.501234 521.366355 L 1242.894607 567.881648 L 1243.28798 574.632336 L 1243.681354 571.607517 L 1244.074727 585.614628 L 1244.4681 592.095972 L 1245.254847 565.729907 L 1245.64822 572.275234 L 1246.041593 593.212937 L 1246.434967 592.276083 L 1246.82834 599.16038 L 1247.221713 598.108178 L 1247.615086 596.335173 L 1248.00846 598.26945 L 1248.401833 596.225639 L 1248.795206 587.092991 L 1249.188579 571.093203 L 1249.975326 504.47457 L 1250.368699 547.183178 L 1250.762073 445.441121 L 1251.155446 568.924065 L 1251.548819 488.648886 L 1252.335566 579.221495 L 1252.728939 589.976671 L 1253.122312 585.937723 L 1253.515686 580.618047 L 1253.909059 588.263551 L 1254.302432 598.647701 L 1254.695805 593.105879 L 1255.482552 568.031645 L 1255.875925 592.705847 L 1256.269299 586.348832 L 1256.662672 597.86718 L 1257.056045 596.485896 L 1257.449418 583.633501 L 1257.842792 586.019771 L 1258.236165 597.977408 L 1258.629538 561.953271 L 1259.022912 583.551977 L 1259.416285 573.387717 L 1259.809658 573.364486 L 1260.203031 550.724611 L 1260.596405 573.507877 L 1261.383151 561.990367 L 1261.776524 560.188785 L 1262.169898 536.019813 L 1262.563271 582.170093 L 1262.956644 585.862209 L 1263.350018 592.90913 L 1263.743391 587.628678 L 1264.136764 569.969159 L 1264.530137 585.68972 L 1264.923511 587.109346 L 1265.316884 586.608556 L 1265.710257 589.380433 L 1266.103631 586.781795 L 1266.497004 588.004575 L 1266.890377 577.590654 L 1267.28375 591.70068 L 1267.677124 590.238629 L 1268.070497 585.01941 L 1268.46387 560.878675 L 1268.857244 528.406287 L 1269.250617 547.427103 L 1269.64399 472.525234 L 1270.037363 563.001869 L 1270.430737 489.557944 L 1270.82411 527.435839 L 1271.217483 544.966822 L 1271.610857 544.618692 L 1272.00423 551.164836 L 1272.397603 566.773923 L 1272.790976 560.450467 L 1273.18435 578.723463 L 1273.577723 602.795742 L 1273.971096 591.574863 L 1274.36447 596.293458 L 1274.757843 598.070038 L 1275.151216 593.796554 L 1275.544589 590.842991 L 1275.937963 574.071863 L 1276.331336 582.338635 L 1276.724709 558.965244 L 1277.118082 579.484147 L 1277.511456 478.265888 L 1277.904829 541.367793 L 1278.298202 554.452941 L 1278.691576 451.328972 L 1279.084949 515.388785 L 1279.478322 535.501682 L 1279.871695 501.506542 L 1280.265069 566.39965 L 1280.658442 560.564953 L 1281.051815 525.639843 L 1281.838562 577.812617 L 1282.231935 585.89538 L 1283.018682 579.318659 L 1283.412055 579.75771 L 1283.805428 584.340867 L 1284.198802 572.702804 L 1284.592175 588.39654 L 1284.985548 580.750016 L 1285.772295 590.786916 L 1286.165668 570.404348 L 1286.559041 582.983178 L 1286.952415 589.581663 L 1287.345788 586.000935 L 1287.739161 539.216463 L 1288.132534 525.756754 L 1288.525908 563.420914 L 1288.919281 556.911985 L 1289.312654 526.719057 L 1289.706027 549.600876 L 1290.099401 543.524589 L 1290.886147 575.857009 L 1291.279521 571.403539 L 1291.672894 575.291776 L 1292.066267 593.666208 L 1292.45964 580.322794 L 1292.853014 577.650127 L 1293.246387 577.307562 L 1293.63976 592.154447 L 1294.033134 592.366677 L 1294.426507 588.840474 L 1294.81988 582.674036 L 1295.213253 583.216822 L 1295.606627 585.069764 L 1296 591.942749 L 1296.393373 585.009541 L 1296.786747 586.666605 L 1297.18012 586.334895 L 1297.573493 563.433645 L 1297.966866 571.68759 L 1298.36024 540.897897 L 1298.753613 543.915421 L 1299.146986 583.020561 L 1299.54036 560.285194 L 1299.933733 591.944256 L 1300.327106 586.177333 L 1300.720479 588.776636 L 1301.113853 589.164297 L 1301.507226 589.722897 L 1301.900599 588.538533 L 1302.293973 594.336273 L 1302.687346 598.003007 L 1303.080719 590.353181 L 1303.474092 593.378113 L 1303.867466 592.068901 L 1304.260839 588.806457 L 1304.654212 582.029756 L 1305.047585 588.278738 L 1305.440959 576.070588 L 1305.834332 526.667859 L 1306.227705 545.778215 L 1306.621079 572.493418 L 1307.014452 542.04716 L 1307.407825 545.177103 L 1307.801198 527.79743 L 1308.194572 561.31729 L 1308.587945 531.747196 L 1308.981318 546.773058 L 1309.374692 587.53165 L 1309.768065 569.648003 L 1310.554811 591.729962 L 1310.948185 594.237343 L 1311.734931 583.665421 L 1312.128305 582.720035 L 1312.521678 587.223832 L 1312.915051 596.218709 L 1313.308424 600.974416 L 1313.701798 597.866593 L 1314.095171 587.495327 L 1314.488544 587.73353 L 1314.881918 591.823669 L 1315.275291 584.171368 L 1315.668664 570.629907 L 1316.062037 500.63972 L 1316.455411 547.418692 L 1316.848784 519.235514 L 1317.242157 577.408231 L 1317.63553 571.061682 L 1318.028904 592.721495 L 1318.422277 582.179439 L 1318.81565 579.020391 L 1319.209024 551.137534 L 1319.99577 585.979583 L 1320.389143 589.795223 L 1320.782517 588.144873 L 1321.569263 593.130171 L 1321.962637 589.346226 L 1322.35601 591.051127 L 1322.749383 593.986682 L 1323.142756 586.910844 L 1323.53613 587.810895 L 1323.929503 587.232009 L 1324.322876 580.665421 L 1324.71625 579.704415 L 1325.109623 547.908713 L 1325.502996 551.072839 L 1325.896369 579.906295 L 1326.289743 578.022897 L 1326.683116 548.107788 L 1327.076489 557.567874 L 1327.469863 572.532827 L 1327.863236 478.295327 L 1328.256609 589.809761 L 1328.649982 594.946344 L 1329.043356 584.349101 L 1329.436729 570.143118 L 1329.830102 595.286916 L 1330.223476 574.916108 L 1330.616849 593.752976 L 1331.010222 585.025843 L 1331.403595 589.406425 L 1331.796969 589.693458 L 1332.190342 598.559579 L 1332.583715 593.514297 L 1332.977088 574.327323 L 1333.370462 590.411488 L 1333.763835 588.859983 L 1334.157208 589.173492 L 1334.550582 573.555395 L 1334.943955 576.463112 L 1335.337328 564.83524 L 1335.730701 556.496372 L 1336.124075 511.911854 L 1336.517448 554.863143 L 1336.910821 427.616992 L 1337.304195 568.593045 L 1337.697568 564.493458 L 1338.090941 579.536916 L 1338.484314 582.846458 L 1338.877688 587.736145 L 1339.271061 586.384652 L 1339.664434 599.345004 L 1340.057808 593.449287 L 1340.451181 592.21215 L 1340.844554 600.83444 L 1341.237927 601.057421 L 1341.631301 601.703877 L 1342.024674 596.03803 L 1342.418047 597.696766 L 1342.811421 584.082158 L 1343.204794 576.328037 L 1343.598167 583.651618 L 1343.99154 577.034579 L 1344.384914 532.086729 L 1344.778287 544.466044 L 1345.17166 536.359346 L 1345.565033 555.406542 L 1345.958407 564.478738 L 1346.35178 563.881121 L 1346.745153 587.594724 L 1347.138527 588.115514 L 1347.5319 584.358709 L 1347.925273 586.404673 L 1348.318646 592.781308 L 1348.71202 593.616626 L 1349.105393 597.906762 L 1349.498766 592.202485 L 1349.89214 598.428712 L 1350.285513 600.867935 L 1350.678886 591.343425 L 1351.072259 592.42328 L 1351.465633 588.583825 L 1351.859006 581.224766 L 1352.252379 583.345619 L 1352.645753 582.478505 L 1353.039126 543.368692 L 1353.432499 542.378692 L 1353.825872 526.051147 L 1354.219246 460.704242 L 1354.612619 482.691589 L 1355.005992 561.399065 L 1355.399366 448.875701 L 1355.792739 574.009226 L 1356.186112 524.772159 L 1356.579485 571.340903 L 1356.972859 569.504673 L 1357.366232 563.167937 L 1357.759605 560.047335 L 1358.152978 552.728797 L 1358.546352 534.398862 L 1358.939725 585.879155 L 1359.333098 591.370811 L 1359.726472 580.626168 L 1360.119845 587.282622 L 1360.513218 600.688288 L 1360.906591 593.378113 L 1361.299965 588.531181 L 1361.693338 591.053271 L 1361.693338 591.053271" clip-path="url(#p4a951a8366)" fill="none" stroke="#8dd3c7" stroke-width="1.5" stroke-linecap="square"/></g><g id="patch_3"><path d="M 180 640.8 L 180 86.4" fill="none" stroke="#ffffff" stroke-width="0.8" stroke-linejoin="miter" stroke-linecap="square"/></g><g id="patch_4"><path d="M 1296 640.8 L 1296 86.4" fill="none" stroke="#ffffff" stroke-width="0.8" stroke-linejoin="miter" stroke-linecap="square"/></g><g id="patch_5"><path d="M 180 640.8 L 1296 640.8" fill="none" stroke="#ffffff" stroke-width="0.8" stroke-linejoin="miter" stroke-linecap="square"/></g><g id="patch_6"><path d="M 180 86.4 L 1296 86.4" fill="none" stroke="#ffffff" stroke-width="0.8" stroke-linejoin="miter" stroke-linecap="square"/></g><g id="text_14"><g transform="translate(676.92375 80.4) scale(0.12 -0.12)" fill="#ffffff"><defs><path id="DejaVuSans-41" d="M 2188 4044 L 1331 1722 L 3047 1722 L 2188 4044 z M 1831 4666 L 2547 4666 L 4325 0 L 3669 0 L 3244 1197 L 1141 1197 L 716 0 L 50 0 L 1831 4666 z" transform="scale(0.015625)"/><path id="DejaVuSans-76" d="M 191 3500 L 800 3500 L 1894 563 L 2988 3500 L 3597 3500 L 2284 0 L 1503 0 L 191 3500 z" transform="scale(0.015625)"/><path id="DejaVuSans-67" d="M 2906 1791 Q 2906 2416 2648 2759 Q 2391 3103 1925 3103 Q 1463 3103 1205 2759 Q 947 2416 947 1791 Q 947 1169 1205 825 Q 1463 481 1925 481 Q 2391 481 2648 825 Q 2906 1169 2906 1791 z M 3481 434 Q 3481 -459 3084 -895 Q 2688 -1331 1869 -1331 Q 1566 -1331 1297 -1286 Q 1028 -1241 775 -1147 L 775 -588 Q 1028 -725 1275 -790 Q 1522 -856 1778 -856 Q 2344 -856 2625 -561 Q 2906 -266 2906 331 L 2906 616 Q 2728 306 2450 153 Q 2172 0 1784 0 Q 1141 0 747 490 Q 353 981 353 1791 Q 353 2603 747 3093 Q 1141 3584 1784 3584 Q 2172 3584 2450 3431 Q 2728 3278 2906 2969 L 2906 3500 L 3481 3500 L 3481 434 z" transform="scale(0.015625)"/></defs><use xlink:href="#DejaVuSans-41"/><use xlink:href="#DejaVuSans-76" x="62.533"/><use xlink:href="#DejaVuSans-65" x="121.713"/><use xlink:href="#DejaVuSans-72" x="183.236"/><use xlink:href="#DejaVuSans-61" x="224.35"/><use xlink:href="#DejaVuSans-67" x="285.629"/><use xlink:href="#DejaVuSans-65" x="349.105"/><use xlink:href="#DejaVuSans-20" x="410.629"/><use xlink:href="#DejaVuSans-75" x="442.416"/><use xlink:href="#DejaVuSans-70" x="505.795"/><use xlink:href="#DejaVuSans-6c" x="569.271"/><use xlink:href="#DejaVuSans-6f" x="597.055"/><use xlink:href="#DejaVuSans-61" x="658.236"/><use xlink:href="#DejaVuSans-64" x="719.516"/><use xlink:href="#DejaVuSans-20" x="782.992"/><use xlink:href="#DejaVuSans-72" x="814.779"/><use xlink:href="#DejaVuSans-61" x="855.893"/><use xlink:href="#DejaVuSans-74" x="917.172"/><use xlink:href="#DejaVuSans-65" x="956.381"/></g></g></g></g><defs><clipPath id="p4a951a8366"><rect x="180" y="86.4" width="1116" height="554.4"/></clipPath></defs></svg>