<svg xmlns:xlink="http://www.w3.org/1999/xlink" width="1407.36" height="960" viewBox="0 0 1055.52 720" xmlns="http://www.w3.org/2000/svg" version="1.1"><metadata><rdf:RDF xmlns:dc="http://purl.org/dc/elements/1.1/" xmlns:cc="http://creativecommons.org/ns#" xmlns:rdf="http://www.w3.org/1999/02/22-rdf-syntax-ns#"><cc:Work><dc:type rdf:resource="http://purl.org/dc/dcmitype/StillImage"/><dc:format>image/svg+xml</dc:format><dc:creator><cc:Agent><dc:title>Matplotlib v3.7.1, https://matplotlib.org/</dc:title></cc:Agent></dc:creator></cc:Work></rdf:RDF></metadata><defs><style type="text/css">*{stroke-linejoin:round;stroke-linecap:butt}</style></defs><g id="figure_1"><g id="patch_1"><path d="M 0 720 L 1055.52 720 L 1055.52 0 L 0 0 z"/></g><g id="axes_1"><g id="patch_2"><path d="M 49.128365 658.187793 L 1046.15726 658.187793 L 1046.15726 18.118365 L 49.128365 18.118365 z"/></g><g id="PolyCollection_1"><path d="M 49.128365 623.122121 L 49.128365 658.187793 L 98.97981 658.187793 L 148.831255 658.187793 L 198.682699 658.187793 L 248.534144 658.187793 L 298.385589 658.187793 L 348.237034 658.187793 L 398.088478 658.187793 L 447.939923 658.187793 L 497.791368 658.187793 L 547.642813 658.187793 L 597.494257 658.187793 L 647.345702 658.187793 L 697.197147 658.187793 L 747.048592 658.187793 L 796.900036 658.187793 L 846.751481 658.187793 L 896.602926 658.187793 L 946.454371 658.187793 L 996.305815 658.187793 L 1046.15726 658.187793 L 1096.008705 658.187793 L 1096.008705 623.985807 L 1096.008705 623.985807 L 1046.15726 593.238568 L 996.305815 606.366603 L 946.454371 611.721459 L 896.602926 617.940002 L 846.751481 635.559206 L 796.900036 621.91296 L 747.048592 589.956559 L 697.197147 615.694417 L 647.345702 613.794306 L 597.494257 620.012849 L 547.642813 601.011746 L 497.791368 610.166823 L 447.939923 622.085697 L 398.088478 584.77444 L 348.237034 577.864948 L 298.385589 614.657993 L 248.534144 631.240774 L 198.682699 627.958765 L 148.831255 639.18669 L 98.97981 639.18669 L 49.128365 623.122121 z" clip-path="url(#pddffde10ad)" fill="#ac5953"/></g><g id="PolyCollection_2"><path d="M 49.128365 612.757883 L 49.128365 623.122121 L 98.97981 639.18669 L 148.831255 639.18669 L 198.682699 627.958765 L 248.534144 631.240774 L 298.385589 614.657993 L 348.237034 577.864948 L 398.088478 584.77444 L 447.939923 622.085697 L 497.791368 610.166823 L 547.642813 601.011746 L 597.494257 620.012849 L 647.345702 613.794306 L 697.197147 615.694417 L 747.048592 589.956559 L 796.900036 621.91296 L 846.751481 635.559206 L 896.602926 617.940002 L 946.454371 611.721459 L 996.305815 606.366603 L 1046.15726 593.238568 L 1096.008705 623.985807 L 1096.008705 616.730841 L 1096.008705 616.730841 L 1046.15726 569.919032 L 996.305815 592.202144 L 946.454371 591.16572 L 896.602926 607.921238 L 846.751481 618.630951 L 796.900036 614.657993 L 747.048592 572.510092 L 697.197147 589.26561 L 647.345702 599.457111 L 597.494257 599.802585 L 547.642813 579.592321 L 497.791368 599.111636 L 447.939923 612.066933 L 398.088478 541.93559 L 348.237034 556.61826 L 298.385589 603.775543 L 248.534144 624.676756 L 198.682699 619.840112 L 148.831255 629.340663 L 98.97981 624.849494 L 49.128365 612.757883 z" clip-path="url(#pddffde10ad)" fill="#a840bf"/></g><g id="PolyCollection_3"><path d="M 49.128365 565.773337 L 49.128365 612.757883 L 98.97981 624.849494 L 148.831255 629.340663 L 198.682699 619.840112 L 248.534144 624.676756 L 298.385589 603.775543 L 348.237034 556.61826 L 398.088478 541.93559 L 447.939923 612.066933 L 497.791368 599.111636 L 547.642813 579.592321 L 597.494257 599.802585 L 647.345702 599.457111 L 697.197147 589.26561 L 747.048592 572.510092 L 796.900036 614.657993 L 846.751481 618.630951 L 896.602926 607.921238 L 946.454371 591.16572 L 996.305815 592.202144 L 1046.15726 569.919032 L 1096.008705 616.730841 L 1096.008705 584.947177 L 1096.008705 584.947177 L 1046.15726 528.980292 L 996.305815 543.317488 L 946.454371 553.336252 L 896.602926 559.382057 L 846.751481 581.837906 L 796.900036 574.928414 L 747.048592 532.435038 L 697.197147 539.34453 L 647.345702 559.036582 L 597.494257 546.772234 L 547.642813 535.54431 L 497.791368 555.236362 L 447.939923 562.664066 L 398.088478 475.949941 L 348.237034 501.860536 L 298.385589 574.755677 L 248.534144 598.075212 L 198.682699 597.384263 L 148.831255 593.238568 L 98.97981 589.092873 L 49.128365 565.773337 z" clip-path="url(#pddffde10ad)" fill="#651f93"/></g><g id="PolyCollection_4"><path d="M 49.128365 544.699387 L 49.128365 565.773337 L 98.97981 589.092873 L 148.831255 593.238568 L 198.682699 597.384263 L 248.534144 598.075212 L 298.385589 574.755677 L 348.237034 501.860536 L 398.088478 475.949941 L 447.939923 562.664066 L 497.791368 555.236362 L 547.642813 535.54431 L 597.494257 546.772234 L 647.345702 559.036582 L 697.197147 539.34453 L 747.048592 532.435038 L 796.900036 574.928414 L 846.751481 581.837906 L 896.602926 559.382057 L 946.454371 553.336252 L 996.305815 543.317488 L 1046.15726 528.980292 L 1096.008705 584.947177 L 1096.008705 557.827421 L 1096.008705 557.827421 L 1046.15726 485.277755 L 996.305815 487.177866 L 946.454371 508.251816 L 896.602926 512.570249 L 846.751481 538.826318 L 796.900036 544.353912 L 747.048592 466.276652 L 697.197147 497.887578 L 647.345702 519.997953 L 597.494257 524.316385 L 547.642813 498.233053 L 497.791368 533.125987 L 447.939923 523.452699 L 398.088478 430.347294 L 348.237034 449.521134 L 298.385589 528.46208 L 248.534144 570.782719 L 198.682699 562.318591 L 148.831255 564.564176 L 98.97981 563.873227 L 49.128365 544.699387 z" clip-path="url(#pddffde10ad)" fill="#862d36"/></g><g id="PolyCollection_5"><path d="M 49.128365 505.315282 L 49.128365 544.699387 L 98.97981 563.873227 L 148.831255 564.564176 L 198.682699 562.318591 L 248.534144 570.782719 L 298.385589 528.46208 L 348.237034 449.521134 L 398.088478 430.347294 L 447.939923 523.452699 L 497.791368 533.125987 L 547.642813 498.233053 L 597.494257 524.316385 L 647.345702 519.997953 L 697.197147 497.887578 L 747.048592 466.276652 L 796.900036 544.353912 L 846.751481 538.826318 L 896.602926 512.570249 L 946.454371 508.251816 L 996.305815 487.177866 L 1046.15726 485.277755 L 1096.008705 557.827421 L 1096.008705 540.899166 L 1096.008705 540.899166 L 1046.15726 411.864403 L 996.305815 427.928972 L 946.454371 471.286034 L 896.602926 461.612745 L 846.751481 494.260095 L 796.900036 497.023892 L 747.048592 400.809216 L 697.197147 444.857227 L 647.345702 486.314179 L 597.494257 486.659654 L 547.642813 451.766719 L 497.791368 484.932281 L 447.939923 480.268374 L 398.088478 360.561425 L 348.237034 378.526104 L 298.385589 478.541001 L 248.534144 525.007334 L 198.682699 533.471462 L 148.831255 541.417378 L 98.97981 525.698284 L 49.128365 505.315282 z" clip-path="url(#pddffde10ad)" fill="#1f937c"/></g><g id="PolyCollection_6"><path d="M 49.128365 489.250713 L 49.128365 505.315282 L 98.97981 525.698284 L 148.831255 541.417378 L 198.682699 533.471462 L 248.534144 525.007334 L 298.385589 478.541001 L 348.237034 378.526104 L 398.088478 360.561425 L 447.939923 480.268374 L 497.791368 484.932281 L 547.642813 451.766719 L 597.494257 486.659654 L 647.345702 486.314179 L 697.197147 444.857227 L 747.048592 400.809216 L 796.900036 497.023892 L 846.751481 494.260095 L 896.602926 461.612745 L 946.454371 471.286034 L 996.305815 427.928972 L 1046.15726 411.864403 L 1096.008705 540.899166 L 1096.008705 510.842876 L 1096.008705 510.842876 L 1046.15726 318.931736 L 996.305815 381.462638 L 946.454371 427.41076 L 896.602926 389.235817 L 846.751481 451.07577 L 796.900036 438.120473 L 747.048592 362.979747 L 697.197147 403.573013 L 647.345702 455.739677 L 597.494257 408.755132 L 547.642813 413.764513 L 497.791368 440.020583 L 447.939923 436.3931 L 398.088478 288.529971 L 348.237034 342.078534 L 298.385589 428.101709 L 248.534144 483.72312 L 198.682699 506.006231 L 148.831255 524.66186 L 98.97981 476.468153 L 49.128365 489.250713 z" clip-path="url(#pddffde10ad)" fill="#2dbfd2"/></g><g id="PolyCollection_7"><path d="M 49.128365 475.777204 L 49.128365 489.250713 L 98.97981 476.468153 L 148.831255 524.66186 L 198.682699 506.006231 L 248.534144 483.72312 L 298.385589 428.101709 L 348.237034 342.078534 L 398.088478 288.529971 L 447.939923 436.3931 L 497.791368 440.020583 L 547.642813 413.764513 L 597.494257 408.755132 L 647.345702 455.739677 L 697.197147 403.573013 L 747.048592 362.979747 L 796.900036 438.120473 L 846.751481 451.07577 L 896.602926 389.235817 L 946.454371 427.41076 L 996.305815 381.462638 L 1046.15726 318.931736 L 1096.008705 510.842876 L 1096.008705 502.378748 L 1096.008705 502.378748 L 1046.15726 301.830743 L 996.305815 367.29818 L 946.454371 414.6282 L 896.602926 366.261756 L 846.751481 438.811422 L 796.900036 431.383718 L 747.048592 355.724781 L 697.197147 391.308664 L 647.345702 448.139236 L 597.494257 400.636479 L 547.642813 405.64586 L 497.791368 434.320252 L 447.939923 427.583497 L 398.088478 276.43836 L 348.237034 330.332398 L 298.385589 418.42842 L 248.534144 467.658551 L 198.682699 504.79707 L 148.831255 516.370469 L 98.97981 462.303695 L 49.128365 475.777204 z" clip-path="url(#pddffde10ad)" fill="#1f9327"/></g><g id="PolyCollection_8"><path d="M 49.128365 471.286034 L 49.128365 475.777204 L 98.97981 462.303695 L 148.831255 516.370469 L 198.682699 504.79707 L 248.534144 467.658551 L 298.385589 418.42842 L 348.237034 330.332398 L 398.088478 276.43836 L 447.939923 427.583497 L 497.791368 434.320252 L 547.642813 405.64586 L 597.494257 400.636479 L 647.345702 448.139236 L 697.197147 391.308664 L 747.048592 355.724781 L 796.900036 431.383718 L 846.751481 438.811422 L 896.602926 366.261756 L 946.454371 414.6282 L 996.305815 367.29818 L 1046.15726 301.830743 L 1096.008705 502.378748 L 1096.008705 500.651375 L 1096.008705 500.651375 L 1046.15726 284.72975 L 996.305815 354.342882 L 946.454371 404.782174 L 896.602926 352.960984 L 846.751481 431.038243 L 796.900036 410.655242 L 747.048592 346.569704 L 697.197147 380.253477 L 647.345702 437.602261 L 597.494257 394.936148 L 547.642813 394.417936 L 497.791368 426.028862 L 447.939923 417.219259 L 398.088478 266.074122 L 348.237034 315.649727 L 298.385589 408.582394 L 248.534144 465.412966 L 198.682699 499.442214 L 148.831255 507.38813 L 98.97981 455.221465 L 49.128365 471.286034 z" clip-path="url(#pddffde10ad)" fill="#5372ac"/></g><g id="PolyCollection_9"><path d="M 49.128365 461.440008 L 49.128365 471.286034 L 98.97981 455.221465 L 148.831255 507.38813 L 198.682699 499.442214 L 248.534144 465.412966 L 298.385589 408.582394 L 348.237034 315.649727 L 398.088478 266.074122 L 447.939923 417.219259 L 497.791368 426.028862 L 547.642813 394.417936 L 597.494257 394.936148 L 647.345702 437.602261 L 697.197147 380.253477 L 747.048592 346.569704 L 796.900036 410.655242 L 846.751481 431.038243 L 896.602926 352.960984 L 946.454371 404.782174 L 996.305815 354.342882 L 1046.15726 284.72975 L 1096.008705 500.651375 L 1096.008705 498.751265 L 1096.008705 498.751265 L 1046.15726 267.45602 L 996.305815 339.832949 L 946.454371 394.417936 L 896.602926 341.560322 L 846.751481 422.746853 L 796.900036 403.74575 L 747.048592 338.623788 L 697.197147 361.597849 L 647.345702 430.347294 L 597.494257 386.299283 L 547.642813 374.553146 L 497.791368 418.42842 L 447.939923 400.809216 L 398.088478 242.236375 L 348.237034 295.784938 L 298.385589 402.709326 L 248.534144 450.557558 L 198.682699 495.296519 L 148.831255 501.860536 L 98.97981 449.693872 L 49.128365 461.440008 z" clip-path="url(#pddffde10ad)" fill="#7f2dd2"/></g><g id="PolyCollection_10"><path d="M 49.128365 443.993541 L 49.128365 461.440008 L 98.97981 449.693872 L 148.831255 501.860536 L 198.682699 495.296519 L 248.534144 450.557558 L 298.385589 402.709326 L 348.237034 295.784938 L 398.088478 242.236375 L 447.939923 400.809216 L 497.791368 418.42842 L 547.642813 374.553146 L 597.494257 386.299283 L 647.345702 430.347294 L 697.197147 361.597849 L 747.048592 338.623788 L 796.900036 403.74575 L 846.751481 422.746853 L 896.602926 341.560322 L 946.454371 394.417936 L 996.305815 339.832949 L 1046.15726 267.45602 L 1096.008705 498.751265 L 1096.008705 483.032171 L 1096.008705 483.032171 L 1046.15726 223.753484 L 996.305815 312.367718 L 946.454371 355.897518 L 896.602926 307.358337 L 846.751481 402.191114 L 796.900036 373.171248 L 747.048592 319.27721 L 697.197147 335.169042 L 647.345702 407.027759 L 597.494257 363.497959 L 547.642813 346.569704 L 497.791368 397.008995 L 447.939923 359.352264 L 398.088478 196.633727 L 348.237034 261.410215 L 298.385589 376.453257 L 248.534144 424.301489 L 198.682699 462.303695 L 148.831255 481.823009 L 98.97981 427.583497 L 49.128365 443.993541 z" clip-path="url(#pddffde10ad)" fill="#6ce085"/></g><g id="PolyCollection_11"><path d="M 49.128365 435.874888 L 49.128365 443.993541 L 98.97981 427.583497 L 148.831255 481.823009 L 198.682699 462.303695 L 248.534144 424.301489 L 298.385589 376.453257 L 348.237034 261.410215 L 398.088478 196.633727 L 447.939923 359.352264 L 497.791368 397.008995 L 547.642813 346.569704 L 597.494257 363.497959 L 647.345702 407.027759 L 697.197147 335.169042 L 747.048592 319.27721 L 796.900036 373.171248 L 846.751481 402.191114 L 896.602926 307.358337 L 946.454371 355.897518 L 996.305815 312.367718 L 1046.15726 223.753484 L 1096.008705 483.032171 L 1096.008705 472.322458 L 1096.008705 472.322458 L 1046.15726 202.679533 L 996.305815 292.157454 L 946.454371 327.223126 L 896.602926 279.893106 L 846.751481 388.717605 L 796.900036 366.434493 L 747.048592 306.840125 L 697.197147 313.231405 L 647.345702 376.798731 L 597.494257 350.369924 L 547.642813 340.523898 L 497.791368 386.126545 L 447.939923 340.523898 L 398.088478 170.032183 L 348.237034 247.591231 L 298.385589 361.079637 L 248.534144 404.091225 L 198.682699 452.97588 L 148.831255 472.84067 L 98.97981 407.891445 L 49.128365 435.874888 z" clip-path="url(#pddffde10ad)" fill="#79d2b5"/></g><g id="PolyCollection_12"><path d="M 49.128365 422.228641 L 49.128365 435.874888 L 98.97981 407.891445 L 148.831255 472.84067 L 198.682699 452.97588 L 248.534144 404.091225 L 298.385589 361.079637 L 348.237034 247.591231 L 398.088478 170.032183 L 447.939923 340.523898 L 497.791368 386.126545 L 547.642813 340.523898 L 597.494257 350.369924 L 647.345702 376.798731 L 697.197147 313.231405 L 747.048592 306.840125 L 796.900036 366.434493 L 846.751481 388.717605 L 896.602926 279.893106 L 946.454371 327.223126 L 996.305815 292.157454 L 1046.15726 202.679533 L 1096.008705 472.322458 L 1096.008705 458.848949 L 1096.008705 458.848949 L 1046.15726 177.632624 L 996.305815 272.292665 L 946.454371 299.239684 L 896.602926 269.874343 L 846.751481 370.752926 L 796.900036 351.751823 L 747.048592 285.075225 L 697.197147 286.975335 L 647.345702 367.989129 L 597.494257 334.65083 L 547.642813 322.386482 L 497.791368 362.634273 L 447.939923 327.223126 L 398.088478 138.593995 L 348.237034 219.780526 L 298.385589 338.969262 L 248.534144 393.554249 L 198.682699 447.275549 L 148.831255 466.44939 L 98.97981 388.717605 L 49.128365 422.228641 z" clip-path="url(#pddffde10ad)" fill="#6ce098"/></g><g id="PolyCollection_13"><path d="M 49.128365 418.082946 L 49.128365 422.228641 L 98.97981 388.717605 L 148.831255 466.44939 L 198.682699 447.275549 L 248.534144 393.554249 L 298.385589 338.969262 L 348.237034 219.780526 L 398.088478 138.593995 L 447.939923 327.223126 L 497.791368 362.634273 L 547.642813 322.386482 L 597.494257 334.65083 L 647.345702 367.989129 L 697.197147 286.975335 L 747.048592 285.075225 L 796.900036 351.751823 L 846.751481 370.752926 L 896.602926 269.874343 L 946.454371 299.239684 L 996.305815 272.292665 L 1046.15726 177.632624 L 1096.008705 458.848949 L 1096.008705 456.948838 L 1096.008705 456.948838 L 1046.15726 172.105031 L 996.305815 263.828537 L 946.454371 294.057565 L 896.602926 262.792113 L 846.751481 369.025553 L 796.900036 344.669593 L 747.048592 278.683945 L 697.197147 275.747411 L 647.345702 362.461535 L 597.494257 330.15966 L 547.642813 319.27721 L 497.791368 359.006789 L 447.939923 323.077431 L 398.088478 132.202715 L 348.237034 203.197745 L 298.385589 332.923457 L 248.534144 385.953808 L 198.682699 437.256786 L 148.831255 463.512856 L 98.97981 382.499062 L 49.128365 418.082946 z" clip-path="url(#pddffde10ad)" fill="#2dd235"/></g><g id="PolyCollection_14"><path d="M 49.128365 417.910208 L 49.128365 418.082946 L 98.97981 382.499062 L 148.831255 463.512856 L 198.682699 437.256786 L 248.534144 385.953808 L 298.385589 332.923457 L 348.237034 203.197745 L 398.088478 132.202715 L 447.939923 323.077431 L 497.791368 359.006789 L 547.642813 319.27721 L 597.494257 330.15966 L 647.345702 362.461535 L 697.197147 275.747411 L 747.048592 278.683945 L 796.900036 344.669593 L 846.751481 369.025553 L 896.602926 262.792113 L 946.454371 294.057565 L 996.305815 263.828537 L 1046.15726 172.105031 L 1096.008705 456.948838 L 1096.008705 456.948838 L 1096.008705 456.948838 L 1046.15726 172.105031 L 996.305815 263.828537 L 946.454371 294.057565 L 896.602926 262.792113 L 846.751481 369.025553 L 796.900036 344.669593 L 747.048592 278.511208 L 697.197147 275.747411 L 647.345702 362.461535 L 597.494257 330.15966 L 547.642813 319.27721 L 497.791368 359.006789 L 447.939923 323.077431 L 398.088478 132.202715 L 348.237034 203.197745 L 298.385589 332.75072 L 248.534144 385.953808 L 198.682699 437.256786 L 148.831255 463.512856 L 98.97981 382.326325 L 49.128365 417.910208 z" clip-path="url(#pddffde10ad)" fill="#87c5a1"/></g><g id="PolyCollection_15"><path d="M 49.128365 417.219259 L 49.128365 417.910208 L 98.97981 382.326325 L 148.831255 463.512856 L 198.682699 437.256786 L 248.534144 385.953808 L 298.385589 332.75072 L 348.237034 203.197745 L 398.088478 132.202715 L 447.939923 323.077431 L 497.791368 359.006789 L 547.642813 319.27721 L 597.494257 330.15966 L 647.345702 362.461535 L 697.197147 275.747411 L 747.048592 278.511208 L 796.900036 344.669593 L 846.751481 369.025553 L 896.602926 262.792113 L 946.454371 294.057565 L 996.305815 263.828537 L 1046.15726 172.105031 L 1096.008705 456.948838 L 1096.008705 455.912414 L 1096.008705 455.912414 L 1046.15726 171.932294 L 996.305815 262.964851 L 946.454371 292.675666 L 896.602926 261.237478 L 846.751481 364.879857 L 796.900036 343.805907 L 747.048592 275.056462 L 697.197147 273.156351 L 647.345702 362.288798 L 597.494257 327.914075 L 547.642813 317.722575 L 497.791368 355.379306 L 447.939923 318.240787 L 398.088478 127.884282 L 348.237034 195.251829 L 298.385589 331.887033 L 248.534144 385.090122 L 198.682699 436.565837 L 148.831255 463.512856 L 98.97981 378.871579 L 49.128365 417.219259 z" clip-path="url(#pddffde10ad)" fill="#d279a6"/></g><g id="PolyCollection_16"><path d="M 49.128365 411.518928 L 49.128365 417.219259 L 98.97981 378.871579 L 148.831255 463.512856 L 198.682699 436.565837 L 248.534144 385.090122 L 298.385589 331.887033 L 348.237034 195.251829 L 398.088478 127.884282 L 447.939923 318.240787 L 497.791368 355.379306 L 547.642813 317.722575 L 597.494257 327.914075 L 647.345702 362.288798 L 697.197147 273.156351 L 747.048592 275.056462 L 796.900036 343.805907 L 846.751481 364.879857 L 896.602926 261.237478 L 946.454371 292.675666 L 996.305815 262.964851 L 1046.15726 171.932294 L 1096.008705 455.912414 L 1096.008705 445.029965 L 1096.008705 445.029965 L 1046.15726 153.794877 L 996.305815 241.8909 L 946.454371 276.611097 L 896.602926 250.355028 L 846.751481 350.02445 L 796.900036 330.850609 L 747.048592 262.792113 L 697.197147 239.127103 L 647.345702 353.133721 L 597.494257 314.440566 L 547.642813 298.894209 L 497.791368 338.796525 L 447.939923 295.784938 L 398.088478 97.30978 L 348.237034 169.513971 L 298.385589 312.367718 L 248.534144 368.334603 L 198.682699 428.965396 L 148.831255 457.46705 L 98.97981 368.852815 L 49.128365 411.518928 z" clip-path="url(#pddffde10ad)" fill="#6ce0bd"/></g><g id="PolyCollection_17"><path d="M 49.128365 409.791555 L 49.128365 411.518928 L 98.97981 368.852815 L 148.831255 457.46705 L 198.682699 428.965396 L 248.534144 368.334603 L 298.385589 312.367718 L 348.237034 169.513971 L 398.088478 97.30978 L 447.939923 295.784938 L 497.791368 338.796525 L 547.642813 298.894209 L 597.494257 314.440566 L 647.345702 353.133721 L 697.197147 239.127103 L 747.048592 262.792113 L 796.900036 330.850609 L 846.751481 350.02445 L 896.602926 250.355028 L 946.454371 276.611097 L 996.305815 241.8909 L 1046.15726 153.794877 L 1096.008705 445.029965 L 1096.008705 444.68449 L 1096.008705 444.68449 L 1046.15726 152.585716 L 996.305815 241.372688 L 946.454371 275.401936 L 896.602926 249.836816 L 846.751481 349.506238 L 796.900036 329.814186 L 747.048592 261.928427 L 697.197147 238.090679 L 647.345702 351.233611 L 597.494257 314.095091 L 547.642813 297.685048 L 497.791368 337.587364 L 447.939923 294.921251 L 398.088478 95.755144 L 348.237034 163.640903 L 298.385589 310.98582 L 248.534144 367.470917 L 198.682699 428.447184 L 148.831255 456.085152 L 98.97981 367.816392 L 49.128365 409.791555 z" clip-path="url(#pddffde10ad)" fill="#2d4f86"/></g><g id="PolyCollection_18"><path d="M 49.128365 407.200496 L 49.128365 409.791555 L 98.97981 367.816392 L 148.831255 456.085152 L 198.682699 428.447184 L 248.534144 367.470917 L 298.385589 310.98582 L 348.237034 163.640903 L 398.088478 95.755144 L 447.939923 294.921251 L 497.791368 337.587364 L 547.642813 297.685048 L 597.494257 314.095091 L 647.345702 351.233611 L 697.197147 238.090679 L 747.048592 261.928427 L 796.900036 329.814186 L 846.751481 349.506238 L 896.602926 249.836816 L 946.454371 275.401936 L 996.305815 241.372688 L 1046.15726 152.585716 L 1096.008705 444.68449 L 1096.008705 444.339015 L 1096.008705 444.339015 L 1046.15726 143.430639 L 996.305815 239.127103 L 946.454371 266.937808 L 896.602926 243.272798 L 846.751481 346.915178 L 796.900036 327.741338 L 747.048592 253.291562 L 697.197147 234.981408 L 647.345702 345.878754 L 597.494257 301.658006 L 547.642813 295.266726 L 497.791368 330.505135 L 447.939923 291.466505 L 398.088478 78.999626 L 348.237034 161.568056 L 298.385589 304.249065 L 248.534144 363.497959 L 198.682699 422.91959 L 148.831255 446.411863 L 98.97981 363.670696 L 49.128365 407.200496 z" clip-path="url(#pddffde10ad)" fill="#6c75e0"/></g><g id="PolyCollection_19"><path d="M 49.128365 395.45436 L 49.128365 407.200496 L 98.97981 363.670696 L 148.831255 446.411863 L 198.682699 422.91959 L 248.534144 363.497959 L 298.385589 304.249065 L 348.237034 161.568056 L 398.088478 78.999626 L 447.939923 291.466505 L 497.791368 330.505135 L 547.642813 295.266726 L 597.494257 301.658006 L 647.345702 345.878754 L 697.197147 234.981408 L 747.048592 253.291562 L 796.900036 327.741338 L 846.751481 346.915178 L 896.602926 243.272798 L 946.454371 266.937808 L 996.305815 239.127103 L 1046.15726 143.430639 L 1096.008705 444.339015 L 1096.008705 444.339015 L 1096.008705 444.339015 L 1046.15726 139.803156 L 996.305815 236.881518 L 946.454371 264.692224 L 896.602926 243.100061 L 846.751481 346.569704 L 796.900036 325.495753 L 747.048592 253.291562 L 697.197147 234.463196 L 647.345702 341.214847 L 597.494257 298.721472 L 547.642813 293.366615 L 497.791368 329.986923 L 447.939923 288.702708 L 398.088478 72.090134 L 348.237034 159.495208 L 298.385589 303.730853 L 248.534144 362.461535 L 198.682699 422.055904 L 148.831255 443.475329 L 98.97981 363.670696 L 49.128365 395.45436 z" clip-path="url(#pddffde10ad)" fill="#472d86"/></g><g id="PolyCollection_20"><path d="M 49.128365 390.272241 L 49.128365 395.45436 L 98.97981 363.670696 L 148.831255 443.475329 L 198.682699 422.055904 L 248.534144 362.461535 L 298.385589 303.730853 L 348.237034 159.495208 L 398.088478 72.090134 L 447.939923 288.702708 L 497.791368 329.986923 L 547.642813 293.366615 L 597.494257 298.721472 L 647.345702 341.214847 L 697.197147 234.463196 L 747.048592 253.291562 L 796.900036 325.495753 L 846.751481 346.569704 L 896.602926 243.100061 L 946.454371 264.692224 L 996.305815 236.881518 L 1046.15726 139.803156 L 1096.008705 444.339015 L 1096.008705 438.29321 L 1096.008705 438.29321 L 1046.15726 135.830198 L 996.305815 236.017832 L 946.454371 261.755689 L 896.602926 236.190569 L 846.751481 343.287695 L 796.900036 316.340676 L 747.048592 248.627655 L 697.197147 219.953263 L 647.345702 326.35944 L 597.494257 291.293768 L 547.642813 287.32081 L 497.791368 328.086813 L 447.939923 287.666284 L 398.088478 66.562541 L 348.237034 157.249623 L 298.385589 297.339573 L 248.534144 358.661315 L 198.682699 421.883166 L 148.831255 432.247404 L 98.97981 360.9069 L 49.128365 390.272241 z" clip-path="url(#pddffde10ad)" fill="#40b0bf"/></g><g id="PolyCollection_21"><path d="M 49.128365 389.926766 L 49.128365 390.272241 L 98.97981 360.9069 L 148.831255 432.247404 L 198.682699 421.883166 L 248.534144 358.661315 L 298.385589 297.339573 L 348.237034 157.249623 L 398.088478 66.562541 L 447.939923 287.666284 L 497.791368 328.086813 L 547.642813 287.32081 L 597.494257 291.293768 L 647.345702 326.35944 L 697.197147 219.953263 L 747.048592 248.627655 L 796.900036 316.340676 L 846.751481 343.287695 L 896.602926 236.190569 L 946.454371 261.755689 L 996.305815 236.017832 L 1046.15726 135.830198 L 1096.008705 438.29321 L 1096.008705 438.29321 L 1096.008705 438.29321 L 1046.15726 135.830198 L 996.305815 236.017832 L 946.454371 261.755689 L 896.602926 236.190569 L 846.751481 343.287695 L 796.900036 316.340676 L 747.048592 248.627655 L 697.197147 219.780526 L 647.345702 326.35944 L 597.494257 291.293768 L 547.642813 287.32081 L 497.791368 328.086813 L 447.939923 287.666284 L 398.088478 66.562541 L 348.237034 157.249623 L 298.385589 297.339573 L 248.534144 358.661315 L 198.682699 421.883166 L 148.831255 432.247404 L 98.97981 360.9069 L 49.128365 389.926766 z" clip-path="url(#pddffde10ad)" fill="#79d2b2"/></g><g id="PolyCollection_22"><path d="M 49.128365 388.890342 L 49.128365 389.926766 L 98.97981 360.9069 L 148.831255 432.247404 L 198.682699 421.883166 L 248.534144 358.661315 L 298.385589 297.339573 L 348.237034 157.249623 L 398.088478 66.562541 L 447.939923 287.666284 L 497.791368 328.086813 L 547.642813 287.32081 L 597.494257 291.293768 L 647.345702 326.35944 L 697.197147 219.780526 L 747.048592 248.627655 L 796.900036 316.340676 L 846.751481 343.287695 L 896.602926 236.190569 L 946.454371 261.755689 L 996.305815 236.017832 L 1046.15726 135.830198 L 1096.008705 438.29321 L 1096.008705 438.29321 L 1096.008705 438.29321 L 1046.15726 135.830198 L 996.305815 236.017832 L 946.454371 261.755689 L 896.602926 236.190569 L 846.751481 343.287695 L 796.900036 316.167939 L 747.048592 248.627655 L 697.197147 219.780526 L 647.345702 326.35944 L 597.494257 291.293768 L 547.642813 287.32081 L 497.791368 327.223126 L 447.939923 287.666284 L 398.088478 65.871592 L 348.237034 157.249623 L 298.385589 297.339573 L 248.534144 358.661315 L 198.682699 421.883166 L 148.831255 432.247404 L 98.97981 360.9069 L 49.128365 388.890342 z" clip-path="url(#pddffde10ad)" fill="#931f3c"/></g><g id="PolyCollection_23"><path d="M 49.128365 388.199393 L 49.128365 388.890342 L 98.97981 360.9069 L 148.831255 432.247404 L 198.682699 421.883166 L 248.534144 358.661315 L 298.385589 297.339573 L 348.237034 157.249623 L 398.088478 65.871592 L 447.939923 287.666284 L 497.791368 327.223126 L 547.642813 287.32081 L 597.494257 291.293768 L 647.345702 326.35944 L 697.197147 219.780526 L 747.048592 248.627655 L 796.900036 316.167939 L 846.751481 343.287695 L 896.602926 236.190569 L 946.454371 261.755689 L 996.305815 236.017832 L 1046.15726 135.830198 L 1096.008705 438.29321 L 1096.008705 434.838464 L 1096.008705 434.838464 L 1046.15726 130.648079 L 996.305815 232.044874 L 946.454371 258.646418 L 896.602926 232.390349 L 846.751481 338.969262 L 796.900036 309.431184 L 747.048592 244.136485 L 697.197147 215.63483 L 647.345702 321.350058 L 597.494257 284.902488 L 547.642813 276.956572 L 497.791368 322.904694 L 447.939923 282.656903 L 398.088478 57.752938 L 348.237034 152.585716 L 298.385589 295.784938 L 248.534144 354.688357 L 198.682699 421.192217 L 148.831255 431.038243 L 98.97981 360.561425 L 49.128365 388.199393 z" clip-path="url(#pddffde10ad)" fill="#2dd288"/></g><g id="PolyCollection_24"><path d="M 49.128365 385.090122 L 49.128365 388.199393 L 98.97981 360.561425 L 148.831255 431.038243 L 198.682699 421.192217 L 248.534144 354.688357 L 298.385589 295.784938 L 348.237034 152.585716 L 398.088478 57.752938 L 447.939923 282.656903 L 497.791368 322.904694 L 547.642813 276.956572 L 597.494257 284.902488 L 647.345702 321.350058 L 697.197147 215.63483 L 747.048592 244.136485 L 796.900036 309.431184 L 846.751481 338.969262 L 896.602926 232.390349 L 946.454371 258.646418 L 996.305815 232.044874 L 1046.15726 130.648079 L 1096.008705 434.838464 L 1096.008705 434.838464 L 1096.008705 434.838464 L 1046.15726 129.093443 L 996.305815 232.044874 L 946.454371 258.646418 L 896.602926 232.390349 L 846.751481 338.969262 L 796.900036 309.258447 L 747.048592 243.963748 L 697.197147 214.771144 L 647.345702 321.177321 L 597.494257 284.038801 L 547.642813 276.611097 L 497.791368 322.559219 L 447.939923 282.656903 L 398.088478 53.607243 L 348.237034 152.585716 L 298.385589 295.439463 L 248.534144 354.688357 L 198.682699 421.192217 L 148.831255 431.038243 L 98.97981 360.561425 L 49.128365 385.090122 z" clip-path="url(#pddffde10ad)" fill="#d22dd2"/></g><g id="PolyCollection_25"><path d="M 49.128365 384.917384 L 49.128365 385.090122 L 98.97981 360.561425 L 148.831255 431.038243 L 198.682699 421.192217 L 248.534144 354.688357 L 298.385589 295.439463 L 348.237034 152.585716 L 398.088478 53.607243 L 447.939923 282.656903 L 497.791368 322.559219 L 547.642813 276.611097 L 597.494257 284.038801 L 647.345702 321.177321 L 697.197147 214.771144 L 747.048592 243.963748 L 796.900036 309.258447 L 846.751481 338.969262 L 896.602926 232.390349 L 946.454371 258.646418 L 996.305815 232.044874 L 1046.15726 129.093443 L 1096.008705 434.838464 L 1096.008705 434.838464 L 1096.008705 434.838464 L 1046.15726 129.093443 L 996.305815 232.044874 L 946.454371 258.646418 L 896.602926 232.390349 L 846.751481 338.796525 L 796.900036 309.258447 L 747.048592 242.063637 L 697.197147 214.771144 L 647.345702 318.931736 L 597.494257 284.038801 L 547.642813 276.265623 L 497.791368 322.041007 L 447.939923 282.656903 L 398.088478 53.607243 L 348.237034 152.585716 L 298.385589 295.439463 L 248.534144 354.688357 L 198.682699 421.192217 L 148.831255 431.038243 L 98.97981 360.388688 L 49.128365 384.917384 z" clip-path="url(#pddffde10ad)" fill="#b9d279"/></g><g id="PolyCollection_26"><path d="M 49.128365 384.744647 L 49.128365 384.917384 L 98.97981 360.388688 L 148.831255 431.038243 L 198.682699 421.192217 L 248.534144 354.688357 L 298.385589 295.439463 L 348.237034 152.585716 L 398.088478 53.607243 L 447.939923 282.656903 L 497.791368 322.041007 L 547.642813 276.265623 L 597.494257 284.038801 L 647.345702 318.931736 L 697.197147 214.771144 L 747.048592 242.063637 L 796.900036 309.258447 L 846.751481 338.796525 L 896.602926 232.390349 L 946.454371 258.646418 L 996.305815 232.044874 L 1046.15726 129.093443 L 1096.008705 434.838464 L 1096.008705 434.838464 L 1096.008705 434.838464 L 1046.15726 129.093443 L 996.305815 232.044874 L 946.454371 258.646418 L 896.602926 232.390349 L 846.751481 338.796525 L 796.900036 309.258447 L 747.048592 241.718163 L 697.197147 214.771144 L 647.345702 318.413524 L 597.494257 284.038801 L 547.642813 276.265623 L 497.791368 322.041007 L 447.939923 282.656903 L 398.088478 53.607243 L 348.237034 152.585716 L 298.385589 295.439463 L 248.534144 354.688357 L 198.682699 421.192217 L 148.831255 431.038243 L 98.97981 360.388688 L 49.128365 384.744647 z" clip-path="url(#pddffde10ad)" fill="#48783a"/></g><g id="PolyCollection_27"><path d="M 49.128365 384.57191 L 49.128365 384.744647 L 98.97981 360.388688 L 148.831255 431.038243 L 198.682699 421.192217 L 248.534144 354.688357 L 298.385589 295.439463 L 348.237034 152.585716 L 398.088478 53.607243 L 447.939923 282.656903 L 497.791368 322.041007 L 547.642813 276.265623 L 597.494257 284.038801 L 647.345702 318.413524 L 697.197147 214.771144 L 747.048592 241.718163 L 796.900036 309.258447 L 846.751481 338.796525 L 896.602926 232.390349 L 946.454371 258.646418 L 996.305815 232.044874 L 1046.15726 129.093443 L 1096.008705 434.838464 L 1096.008705 434.838464 L 1096.008705 434.838464 L 1046.15726 129.093443 L 996.305815 232.044874 L 946.454371 258.646418 L 896.602926 232.390349 L 846.751481 338.796525 L 796.900036 309.258447 L 747.048592 241.372688 L 697.197147 214.598407 L 647.345702 318.413524 L 597.494257 284.038801 L 547.642813 276.265623 L 497.791368 322.041007 L 447.939923 282.656903 L 398.088478 53.434506 L 348.237034 152.585716 L 298.385589 295.439463 L 248.534144 354.688357 L 198.682699 421.192217 L 148.831255 431.038243 L 98.97981 360.388688 L 49.128365 384.57191 z" clip-path="url(#pddffde10ad)" fill="#d279c3"/></g><g id="PolyCollection_28"><path d="M 49.128365 384.399172 L 49.128365 384.57191 L 98.97981 360.388688 L 148.831255 431.038243 L 198.682699 421.192217 L 248.534144 354.688357 L 298.385589 295.439463 L 348.237034 152.585716 L 398.088478 53.434506 L 447.939923 282.656903 L 497.791368 322.041007 L 547.642813 276.265623 L 597.494257 284.038801 L 647.345702 318.413524 L 697.197147 214.598407 L 747.048592 241.372688 L 796.900036 309.258447 L 846.751481 338.796525 L 896.602926 232.390349 L 946.454371 258.646418 L 996.305815 232.044874 L 1046.15726 129.093443 L 1096.008705 434.838464 L 1096.008705 434.838464 L 1096.008705 434.838464 L 1046.15726 129.093443 L 996.305815 232.044874 L 946.454371 258.646418 L 896.602926 232.390349 L 846.751481 338.796525 L 796.900036 309.258447 L 747.048592 241.372688 L 697.197147 214.598407 L 647.345702 318.413524 L 597.494257 284.038801 L 547.642813 276.265623 L 497.791368 322.041007 L 447.939923 282.656903 L 398.088478 53.434506 L 348.237034 152.585716 L 298.385589 295.439463 L 248.534144 354.688357 L 198.682699 421.192217 L 148.831255 431.038243 L 98.97981 360.388688 L 49.128365 384.399172 z" clip-path="url(#pddffde10ad)" fill="#cae06c"/></g><g id="PolyCollection_29"><path d="M 49.128365 384.226435 L 49.128365 384.399172 L 98.97981 360.388688 L 148.831255 431.038243 L 198.682699 421.192217 L 248.534144 354.688357 L 298.385589 295.439463 L 348.237034 152.585716 L 398.088478 53.434506 L 447.939923 282.656903 L 497.791368 322.041007 L 547.642813 276.265623 L 597.494257 284.038801 L 647.345702 318.413524 L 697.197147 214.598407 L 747.048592 241.372688 L 796.900036 309.258447 L 846.751481 338.796525 L 896.602926 232.390349 L 946.454371 258.646418 L 996.305815 232.044874 L 1046.15726 129.093443 L 1096.008705 434.838464 L 1096.008705 433.974777 L 1096.008705 433.974777 L 1046.15726 127.538808 L 996.305815 230.662976 L 946.454371 257.609994 L 896.602926 228.417391 L 846.751481 336.378203 L 796.900036 308.39476 L 747.048592 240.854476 L 697.197147 213.216508 L 647.345702 314.613303 L 597.494257 282.656903 L 547.642813 276.092885 L 497.791368 320.659109 L 447.939923 281.447742 L 398.088478 52.916294 L 348.237034 146.539911 L 298.385589 289.22092 L 248.534144 352.442772 L 198.682699 419.11937 L 148.831255 430.174557 L 98.97981 358.143103 L 49.128365 384.226435 z" clip-path="url(#pddffde10ad)" fill="#c58799"/></g><g id="PolyCollection_30"><path d="M 49.128365 384.226435 L 49.128365 384.226435 L 98.97981 358.143103 L 148.831255 430.174557 L 198.682699 419.11937 L 248.534144 352.442772 L 298.385589 289.22092 L 348.237034 146.539911 L 398.088478 52.916294 L 447.939923 281.447742 L 497.791368 320.659109 L 547.642813 276.092885 L 597.494257 282.656903 L 647.345702 314.613303 L 697.197147 213.216508 L 747.048592 240.854476 L 796.900036 308.39476 L 846.751481 336.378203 L 896.602926 228.417391 L 946.454371 257.609994 L 996.305815 230.662976 L 1046.15726 127.538808 L 1096.008705 433.974777 L 1096.008705 433.80204 L 1096.008705 433.80204 L 1046.15726 126.847858 L 996.305815 229.626552 L 946.454371 254.846197 L 896.602926 228.071916 L 846.751481 335.859991 L 796.900036 305.458226 L 747.048592 237.745205 L 697.197147 209.24355 L 647.345702 313.576879 L 597.494257 282.484165 L 547.642813 275.747411 L 497.791368 317.3771 L 447.939923 280.411318 L 398.088478 49.97976 L 348.237034 145.503487 L 298.385589 289.22092 L 248.534144 350.197187 L 198.682699 416.701047 L 148.831255 428.792658 L 98.97981 357.797628 L 49.128365 384.226435 z" clip-path="url(#pddffde10ad)" fill="#72e06c"/></g><g id="PolyCollection_31"><path d="M 49.128365 384.226435 L 49.128365 384.226435 L 98.97981 357.797628 L 148.831255 428.792658 L 198.682699 416.701047 L 248.534144 350.197187 L 298.385589 289.22092 L 348.237034 145.503487 L 398.088478 49.97976 L 447.939923 280.411318 L 497.791368 317.3771 L 547.642813 275.747411 L 597.494257 282.484165 L 647.345702 313.576879 L 697.197147 209.24355 L 747.048592 237.745205 L 796.900036 305.458226 L 846.751481 335.859991 L 896.602926 228.071916 L 946.454371 254.846197 L 996.305815 229.626552 L 1046.15726 126.847858 L 1096.008705 433.80204 L 1096.008705 433.80204 L 1096.008705 433.80204 L 1046.15726 126.847858 L 996.305815 229.626552 L 946.454371 254.846197 L 896.602926 228.071916 L 846.751481 335.687254 L 796.900036 305.458226 L 747.048592 237.572468 L 697.197147 209.24355 L 647.345702 313.576879 L 597.494257 282.484165 L 547.642813 275.574673 L 497.791368 317.3771 L 447.939923 280.411318 L 398.088478 49.807023 L 348.237034 145.503487 L 298.385589 289.22092 L 248.534144 350.197187 L 198.682699 416.701047 L 148.831255 428.792658 L 98.97981 357.624891 L 49.128365 384.226435 z" clip-path="url(#pddffde10ad)" fill="#d22f2d"/></g><g id="PolyCollection_32"><path d="M 49.128365 384.226435 L 49.128365 384.226435 L 98.97981 357.624891 L 148.831255 428.792658 L 198.682699 416.701047 L 248.534144 350.197187 L 298.385589 289.22092 L 348.237034 145.503487 L 398.088478 49.807023 L 447.939923 280.411318 L 497.791368 317.3771 L 547.642813 275.574673 L 597.494257 282.484165 L 647.345702 313.576879 L 697.197147 209.24355 L 747.048592 237.572468 L 796.900036 305.458226 L 846.751481 335.687254 L 896.602926 228.071916 L 946.454371 254.846197 L 996.305815 229.626552 L 1046.15726 126.847858 L 1096.008705 433.80204 L 1096.008705 433.283828 L 1096.008705 433.283828 L 1046.15726 126.502384 L 996.305815 227.380967 L 946.454371 252.427875 L 896.602926 227.20823 L 846.751481 335.514516 L 796.900036 304.940014 L 747.048592 237.572468 L 697.197147 208.207127 L 647.345702 311.849506 L 597.494257 280.756792 L 547.642813 273.329089 L 497.791368 314.440566 L 447.939923 278.683945 L 398.088478 48.770599 L 348.237034 142.912427 L 298.385589 289.048183 L 248.534144 349.160763 L 198.682699 415.146412 L 148.831255 425.856124 L 98.97981 357.279416 L 49.128365 384.226435 z" clip-path="url(#pddffde10ad)" fill="#3a7877"/></g><g id="PolyCollection_33"><path d="M 49.128365 384.226435 L 49.128365 384.226435 L 98.97981 357.279416 L 148.831255 425.856124 L 198.682699 415.146412 L 248.534144 349.160763 L 298.385589 289.048183 L 348.237034 142.912427 L 398.088478 48.770599 L 447.939923 278.683945 L 497.791368 314.440566 L 547.642813 273.329089 L 597.494257 280.756792 L 647.345702 311.849506 L 697.197147 208.207127 L 747.048592 237.572468 L 796.900036 304.940014 L 846.751481 335.514516 L 896.602926 227.20823 L 946.454371 252.427875 L 996.305815 227.380967 L 1046.15726 126.502384 L 1096.008705 433.283828 L 1096.008705 433.111091 L 1096.008705 433.111091 L 1046.15726 126.502384 L 996.305815 227.380967 L 946.454371 252.427875 L 896.602926 227.20823 L 846.751481 335.514516 L 796.900036 304.940014 L 747.048592 236.190569 L 697.197147 205.270592 L 647.345702 311.849506 L 597.494257 280.756792 L 547.642813 271.256241 L 497.791368 308.740235 L 447.939923 277.647521 L 398.088478 48.597862 L 348.237034 142.394215 L 298.385589 285.075225 L 248.534144 348.297077 L 198.682699 414.973674 L 148.831255 422.574116 L 98.97981 357.279416 L 49.128365 384.226435 z" clip-path="url(#pddffde10ad)" fill="#6b1f93"/></g><g id="matplotlib.axis_1"><g id="xtick_1"><g id="line2d_1"><defs><path id="m8d3805e8d3" d="M 0 0 L 0 3.5" stroke="#ffffff" stroke-width="0.8"/></defs><g><use xlink:href="#m8d3805e8d3" x="49.128" y="658.188" fill="#ffffff" stroke="#ffffff" stroke-width="0.8"/></g></g><g id="text_1"><g transform="translate(45.947115 672.78623) scale(0.1 -0.1)" fill="#ffffff"><defs><path id="DejaVuSans-30" d="M 2034 4250 Q 1547 4250 1301 3770 Q 1056 3291 1056 2328 Q 1056 1369 1301 889 Q 1547 409 2034 409 Q 2525 409 2770 889 Q 3016 1369 3016 2328 Q 3016 3291 2770 3770 Q 2525 4250 2034 4250 z M 2034 4750 Q 2819 4750 3233 4129 Q 3647 3509 3647 2328 Q 3647 1150 3233 529 Q 2819 -91 2034 -91 Q 1250 -91 836 529 Q 422 1150 422 2328 Q 422 3509 836 4129 Q 1250 4750 2034 4750 z" transform="scale(0.015625)"/></defs><use xlink:href="#DejaVuSans-30"/></g></g></g><g id="xtick_2"><g id="line2d_2"><g><use xlink:href="#m8d3805e8d3" x="98.98" y="658.188" fill="#ffffff" stroke="#ffffff" stroke-width="0.8"/></g></g><g id="text_2"><g transform="translate(95.79856 672.78623) scale(0.1 -0.1)" fill="#ffffff"><defs><path id="DejaVuSans-31" d="M 794 531 L 1825 531 L 1825 4091 L 703 3866 L 703 4441 L 1819 4666 L 2450 4666 L 2450 531 L 3481 531 L 3481 0 L 794 0 L 794 531 z" transform="scale(0.015625)"/></defs><use xlink:href="#DejaVuSans-31"/></g></g></g><g id="xtick_3"><g id="line2d_3"><g><use xlink:href="#m8d3805e8d3" x="148.831" y="658.188" fill="#ffffff" stroke="#ffffff" stroke-width="0.8"/></g></g><g id="text_3"><g transform="translate(145.650005 672.78623) scale(0.1 -0.1)" fill="#ffffff"><defs><path id="DejaVuSans-32" d="M 1228 531 L 3431 531 L 3431 0 L 469 0 L 469 531 Q 828 903 1448 1529 Q 2069 2156 2228 2338 Q 2531 2678 2651 2914 Q 2772 3150 2772 3378 Q 2772 3750 2511 3984 Q 2250 4219 1831 4219 Q 1534 4219 1204 4116 Q 875 4013 500 3803 L 500 4441 Q 881 4594 1212 4672 Q 1544 4750 1819 4750 Q 2544 4750 2975 4387 Q 3406 4025 3406 3419 Q 3406 3131 3298 2873 Q 3191 2616 2906 2266 Q 2828 2175 2409 1742 Q 1991 1309 1228 531 z" transform="scale(0.015625)"/></defs><use xlink:href="#DejaVuSans-32"/></g></g></g><g id="xtick_4"><g id="line2d_4"><g><use xlink:href="#m8d3805e8d3" x="198.683" y="658.188" fill="#ffffff" stroke="#ffffff" stroke-width="0.8"/></g></g><g id="text_4"><g transform="translate(195.501449 672.78623) scale(0.1 -0.1)" fill="#ffffff"><defs><path id="DejaVuSans-33" d="M 2597 2516 Q 3050 2419 3304 2112 Q 3559 1806 3559 1356 Q 3559 666 3084 287 Q 2609 -91 1734 -91 Q 1441 -91 1130 -33 Q 819 25 488 141 L 488 750 Q 750 597 1062 519 Q 1375 441 1716 441 Q 2309 441 2620 675 Q 2931 909 2931 1356 Q 2931 1769 2642 2001 Q 2353 2234 1838 2234 L 1294 2234 L 1294 2753 L 1863 2753 Q 2328 2753 2575 2939 Q 2822 3125 2822 3475 Q 2822 3834 2567 4026 Q 2313 4219 1838 4219 Q 1578 4219 1281 4162 Q 984 4106 628 3988 L 628 4550 Q 988 4650 1302 4700 Q 1616 4750 1894 4750 Q 2613 4750 3031 4423 Q 3450 4097 3450 3541 Q 3450 3153 3228 2886 Q 3006 2619 2597 2516 z" transform="scale(0.015625)"/></defs><use xlink:href="#DejaVuSans-33"/></g></g></g><g id="xtick_5"><g id="line2d_5"><g><use xlink:href="#m8d3805e8d3" x="248.534" y="658.188" fill="#ffffff" stroke="#ffffff" stroke-width="0.8"/></g></g><g id="text_5"><g transform="translate(245.352894 672.78623) scale(0.1 -0.1)" fill="#ffffff"><defs><path id="DejaVuSans-34" d="M 2419 4116 L 825 1625 L 2419 1625 L 2419 4116 z M 2253 4666 L 3047 4666 L 3047 1625 L 3713 1625 L 3713 1100 L 3047 1100 L 3047 0 L 2419 0 L 2419 1100 L 313 1100 L 313 1709 L 2253 4666 z" transform="scale(0.015625)"/></defs><use xlink:href="#DejaVuSans-34"/></g></g></g><g id="xtick_6"><g id="line2d_6"><g><use xlink:href="#m8d3805e8d3" x="298.386" y="658.188" fill="#ffffff" stroke="#ffffff" stroke-width="0.8"/></g></g><g id="text_6"><g transform="translate(295.204339 672.78623) scale(0.1 -0.1)" fill="#ffffff"><defs><path id="DejaVuSans-35" d="M 691 4666 L 3169 4666 L 3169 4134 L 1269 4134 L 1269 2991 Q 1406 3038 1543 3061 Q 1681 3084 1819 3084 Q 2600 3084 3056 2656 Q 3513 2228 3513 1497 Q 3513 744 3044 326 Q 2575 -91 1722 -91 Q 1428 -91 1123 -41 Q 819 9 494 109 L 494 744 Q 775 591 1075 516 Q 1375 441 1709 441 Q 2250 441 2565 725 Q 2881 1009 2881 1497 Q 2881 1984 2565 2268 Q 2250 2553 1709 2553 Q 1456 2553 1204 2497 Q 953 2441 691 2322 L 691 4666 z" transform="scale(0.015625)"/></defs><use xlink:href="#DejaVuSans-35"/></g></g></g><g id="xtick_7"><g id="line2d_7"><g><use xlink:href="#m8d3805e8d3" x="348.237" y="658.188" fill="#ffffff" stroke="#ffffff" stroke-width="0.8"/></g></g><g id="text_7"><g transform="translate(345.055784 672.78623) scale(0.1 -0.1)" fill="#ffffff"><defs><path id="DejaVuSans-36" d="M 2113 2584 Q 1688 2584 1439 2293 Q 1191 2003 1191 1497 Q 1191 994 1439 701 Q 1688 409 2113 409 Q 2538 409 2786 701 Q 3034 994 3034 1497 Q 3034 2003 2786 2293 Q 2538 2584 2113 2584 z M 3366 4563 L 3366 3988 Q 3128 4100 2886 4159 Q 2644 4219 2406 4219 Q 1781 4219 1451 3797 Q 1122 3375 1075 2522 Q 1259 2794 1537 2939 Q 1816 3084 2150 3084 Q 2853 3084 3261 2657 Q 3669 2231 3669 1497 Q 3669 778 3244 343 Q 2819 -91 2113 -91 Q 1303 -91 875 529 Q 447 1150 447 2328 Q 447 3434 972 4092 Q 1497 4750 2381 4750 Q 2619 4750 2861 4703 Q 3103 4656 3366 4563 z" transform="scale(0.015625)"/></defs><use xlink:href="#DejaVuSans-36"/></g></g></g><g id="xtick_8"><g id="line2d_8"><g><use xlink:href="#m8d3805e8d3" x="398.088" y="658.188" fill="#ffffff" stroke="#ffffff" stroke-width="0.8"/></g></g><g id="text_8"><g transform="translate(394.907228 672.78623) scale(0.1 -0.1)" fill="#ffffff"><defs><path id="DejaVuSans-37" d="M 525 4666 L 3525 4666 L 3525 4397 L 1831 0 L 1172 0 L 2766 4134 L 525 4134 L 525 4666 z" transform="scale(0.015625)"/></defs><use xlink:href="#DejaVuSans-37"/></g></g></g><g id="xtick_9"><g id="line2d_9"><g><use xlink:href="#m8d3805e8d3" x="447.94" y="658.188" fill="#ffffff" stroke="#ffffff" stroke-width="0.8"/></g></g><g id="text_9"><g transform="translate(444.758673 672.78623) scale(0.1 -0.1)" fill="#ffffff"><defs><path id="DejaVuSans-38" d="M 2034 2216 Q 1584 2216 1326 1975 Q 1069 1734 1069 1313 Q 1069 891 1326 650 Q 1584 409 2034 409 Q 2484 409 2743 651 Q 3003 894 3003 1313 Q 3003 1734 2745 1975 Q 2488 2216 2034 2216 z M 1403 2484 Q 997 2584 770 2862 Q 544 3141 544 3541 Q 544 4100 942 4425 Q 1341 4750 2034 4750 Q 2731 4750 3128 4425 Q 3525 4100 3525 3541 Q 3525 3141 3298 2862 Q 3072 2584 2669 2484 Q 3125 2378 3379 2068 Q 3634 1759 3634 1313 Q 3634 634 3220 271 Q 2806 -91 2034 -91 Q 1263 -91 848 271 Q 434 634 434 1313 Q 434 1759 690 2068 Q 947 2378 1403 2484 z M 1172 3481 Q 1172 3119 1398 2916 Q 1625 2713 2034 2713 Q 2441 2713 2670 2916 Q 2900 3119 2900 3481 Q 2900 3844 2670 4047 Q 2441 4250 2034 4250 Q 1625 4250 1398 4047 Q 1172 3844 1172 3481 z" transform="scale(0.015625)"/></defs><use xlink:href="#DejaVuSans-38"/></g></g></g><g id="xtick_10"><g id="line2d_10"><g><use xlink:href="#m8d3805e8d3" x="497.791" y="658.188" fill="#ffffff" stroke="#ffffff" stroke-width="0.8"/></g></g><g id="text_10"><g transform="translate(494.610118 672.78623) scale(0.1 -0.1)" fill="#ffffff"><defs><path id="DejaVuSans-39" d="M 703 97 L 703 672 Q 941 559 1184 500 Q 1428 441 1663 441 Q 2288 441 2617 861 Q 2947 1281 2994 2138 Q 2813 1869 2534 1725 Q 2256 1581 1919 1581 Q 1219 1581 811 2004 Q 403 2428 403 3163 Q 403 3881 828 4315 Q 1253 4750 1959 4750 Q 2769 4750 3195 4129 Q 3622 3509 3622 2328 Q 3622 1225 3098 567 Q 2575 -91 1691 -91 Q 1453 -91 1209 -44 Q 966 3 703 97 z M 1959 2075 Q 2384 2075 2632 2365 Q 2881 2656 2881 3163 Q 2881 3666 2632 3958 Q 2384 4250 1959 4250 Q 1534 4250 1286 3958 Q 1038 3666 1038 3163 Q 1038 2656 1286 2365 Q 1534 2075 1959 2075 z" transform="scale(0.015625)"/></defs><use xlink:href="#DejaVuSans-39"/></g></g></g><g id="xtick_11"><g id="line2d_11"><g><use xlink:href="#m8d3805e8d3" x="547.643" y="658.188" fill="#ffffff" stroke="#ffffff" stroke-width="0.8"/></g></g><g id="text_11"><g transform="translate(541.280313 672.78623) scale(0.1 -0.1)" fill="#ffffff"><use xlink:href="#DejaVuSans-31"/><use xlink:href="#DejaVuSans-30" x="63.623"/></g></g></g><g id="xtick_12"><g id="line2d_12"><g><use xlink:href="#m8d3805e8d3" x="597.494" y="658.188" fill="#ffffff" stroke="#ffffff" stroke-width="0.8"/></g></g><g id="text_12"><g transform="translate(591.131757 672.78623) scale(0.1 -0.1)" fill="#ffffff"><use xlink:href="#DejaVuSans-31"/><use xlink:href="#DejaVuSans-31" x="63.623"/></g></g></g><g id="xtick_13"><g id="line2d_13"><g><use xlink:href="#m8d3805e8d3" x="647.346" y="658.188" fill="#ffffff" stroke="#ffffff" stroke-width="0.8"/></g></g><g id="text_13"><g transform="translate(640.983202 672.78623) scale(0.1 -0.1)" fill="#ffffff"><use xlink:href="#DejaVuSans-31"/><use xlink:href="#DejaVuSans-32" x="63.623"/></g></g></g><g id="xtick_14"><g id="line2d_14"><g><use xlink:href="#m8d3805e8d3" x="697.197" y="658.188" fill="#ffffff" stroke="#ffffff" stroke-width="0.8"/></g></g><g id="text_14"><g transform="translate(690.834647 672.78623) scale(0.1 -0.1)" fill="#ffffff"><use xlink:href="#DejaVuSans-31"/><use xlink:href="#DejaVuSans-33" x="63.623"/></g></g></g><g id="xtick_15"><g id="line2d_15"><g><use xlink:href="#m8d3805e8d3" x="747.049" y="658.188" fill="#ffffff" stroke="#ffffff" stroke-width="0.8"/></g></g><g id="text_15"><g transform="translate(740.686092 672.78623) scale(0.1 -0.1)" fill="#ffffff"><use xlink:href="#DejaVuSans-31"/><use xlink:href="#DejaVuSans-34" x="63.623"/></g></g></g><g id="xtick_16"><g id="line2d_16"><g><use xlink:href="#m8d3805e8d3" x="796.9" y="658.188" fill="#ffffff" stroke="#ffffff" stroke-width="0.8"/></g></g><g id="text_16"><g transform="translate(790.537536 672.78623) scale(0.1 -0.1)" fill="#ffffff"><use xlink:href="#DejaVuSans-31"/><use xlink:href="#DejaVuSans-35" x="63.623"/></g></g></g><g id="xtick_17"><g id="line2d_17"><g><use xlink:href="#m8d3805e8d3" x="846.751" y="658.188" fill="#ffffff" stroke="#ffffff" stroke-width="0.8"/></g></g><g id="text_17"><g transform="translate(840.388981 672.78623) scale(0.1 -0.1)" fill="#ffffff"><use xlink:href="#DejaVuSans-31"/><use xlink:href="#DejaVuSans-36" x="63.623"/></g></g></g><g id="xtick_18"><g id="line2d_18"><g><use xlink:href="#m8d3805e8d3" x="896.603" y="658.188" fill="#ffffff" stroke="#ffffff" stroke-width="0.8"/></g></g><g id="text_18"><g transform="translate(890.240426 672.78623) scale(0.1 -0.1)" fill="#ffffff"><use xlink:href="#DejaVuSans-31"/><use xlink:href="#DejaVuSans-37" x="63.623"/></g></g></g><g id="xtick_19"><g id="line2d_19"><g><use xlink:href="#m8d3805e8d3" x="946.454" y="658.188" fill="#ffffff" stroke="#ffffff" stroke-width="0.8"/></g></g><g id="text_19"><g transform="translate(940.091871 672.78623) scale(0.1 -0.1)" fill="#ffffff"><use xlink:href="#DejaVuSans-31"/><use xlink:href="#DejaVuSans-38" x="63.623"/></g></g></g><g id="xtick_20"><g id="line2d_20"><g><use xlink:href="#m8d3805e8d3" x="996.306" y="658.188" fill="#ffffff" stroke="#ffffff" stroke-width="0.8"/></g></g><g id="text_20"><g transform="translate(989.943315 672.78623) scale(0.1 -0.1)" fill="#ffffff"><use xlink:href="#DejaVuSans-31"/><use xlink:href="#DejaVuSans-39" x="63.623"/></g></g></g><g id="xtick_21"><g id="line2d_21"><g><use xlink:href="#m8d3805e8d3" x="1046.157" y="658.188" fill="#ffffff" stroke="#ffffff" stroke-width="0.8"/></g></g><g id="text_21"><g transform="translate(1039.79476 672.78623) scale(0.1 -0.1)" fill="#ffffff"><use xlink:href="#DejaVuSans-32"/><use xlink:href="#DejaVuSans-30" x="63.623"/></g></g></g><g id="text_22"><g transform="translate(474.484219 686.464355) scale(0.1 -0.1)" fill="#ffffff"><defs><path id="DejaVuSans-44" d="M 1259 4147 L 1259 519 L 2022 519 Q 2988 519 3436 956 Q 3884 1394 3884 2338 Q 3884 3275 3436 3711 Q 2988 4147 2022 4147 L 1259 4147 z M 628 4666 L 1925 4666 Q 3281 4666 3915 4102 Q 4550 3538 4550 2338 Q 4550 1131 3912 565 Q 3275 0 1925 0 L 628 0 L 628 4666 z" transform="scale(0.015625)"/><path id="DejaVuSans-61" d="M 2194 1759 Q 1497 1759 1228 1600 Q 959 1441 959 1056 Q 959 750 1161 570 Q 1363 391 1709 391 Q 2188 391 2477 730 Q 2766 1069 2766 1631 L 2766 1759 L 2194 1759 z M 3341 1997 L 3341 0 L 2766 0 L 2766 531 Q 2569 213 2275 61 Q 1981 -91 1556 -91 Q 1019 -91 701 211 Q 384 513 384 1019 Q 384 1609 779 1909 Q 1175 2209 1959 2209 L 2766 2209 L 2766 2266 Q 2766 2663 2505 2880 Q 2244 3097 1772 3097 Q 1472 3097 1187 3025 Q 903 2953 641 2809 L 641 3341 Q 956 3463 1253 3523 Q 1550 3584 1831 3584 Q 2591 3584 2966 3190 Q 3341 2797 3341 1997 z" transform="scale(0.015625)"/><path id="DejaVuSans-79" d="M 2059 -325 Q 1816 -950 1584 -1140 Q 1353 -1331 966 -1331 L 506 -1331 L 506 -850 L 844 -850 Q 1081 -850 1212 -737 Q 1344 -625 1503 -206 L 1606 56 L 191 3500 L 800 3500 L 1894 763 L 2988 3500 L 3597 3500 L 2059 -325 z" transform="scale(0.015625)"/><path id="DejaVuSans-73" d="M 2834 3397 L 2834 2853 Q 2591 2978 2328 3040 Q 2066 3103 1784 3103 Q 1356 3103 1142 2972 Q 928 2841 928 2578 Q 928 2378 1081 2264 Q 1234 2150 1697 2047 L 1894 2003 Q 2506 1872 2764 1633 Q 3022 1394 3022 966 Q 3022 478 2636 193 Q 2250 -91 1575 -91 Q 1294 -91 989 -36 Q 684 19 347 128 L 347 722 Q 666 556 975 473 Q 1284 391 1588 391 Q 1994 391 2212 530 Q 2431 669 2431 922 Q 2431 1156 2273 1281 Q 2116 1406 1581 1522 L 1381 1569 Q 847 1681 609 1914 Q 372 2147 372 2553 Q 372 3047 722 3315 Q 1072 3584 1716 3584 Q 2034 3584 2315 3537 Q 2597 3491 2834 3397 z" transform="scale(0.015625)"/><path id="DejaVuSans-20" transform="scale(0.015625)"/><path id="DejaVuSans-69" d="M 603 3500 L 1178 3500 L 1178 0 L 603 0 L 603 3500 z M 603 4863 L 1178 4863 L 1178 4134 L 603 4134 L 603 4863 z" transform="scale(0.015625)"/><path id="DejaVuSans-6e" d="M 3513 2113 L 3513 0 L 2938 0 L 2938 2094 Q 2938 2591 2744 2837 Q 2550 3084 2163 3084 Q 1697 3084 1428 2787 Q 1159 2491 1159 1978 L 1159 0 L 581 0 L 581 3500 L 1159 3500 L 1159 2956 Q 1366 3272 1645 3428 Q 1925 3584 2291 3584 Q 2894 3584 3203 3211 Q 3513 2838 3513 2113 z" transform="scale(0.015625)"/><path id="DejaVuSans-63" d="M 3122 3366 L 3122 2828 Q 2878 2963 2633 3030 Q 2388 3097 2138 3097 Q 1578 3097 1268 2742 Q 959 2388 959 1747 Q 959 1106 1268 751 Q 1578 397 2138 397 Q 2388 397 2633 464 Q 2878 531 3122 666 L 3122 134 Q 2881 22 2623 -34 Q 2366 -91 2075 -91 Q 1284 -91 818 406 Q 353 903 353 1747 Q 353 2603 823 3093 Q 1294 3584 2113 3584 Q 2378 3584 2631 3529 Q 2884 3475 3122 3366 z" transform="scale(0.015625)"/><path id="DejaVuSans-65" d="M 3597 1894 L 3597 1613 L 953 1613 Q 991 1019 1311 708 Q 1631 397 2203 397 Q 2534 397 2845 478 Q 3156 559 3463 722 L 3463 178 Q 3153 47 2828 -22 Q 2503 -91 2169 -91 Q 1331 -91 842 396 Q 353 884 353 1716 Q 353 2575 817 3079 Q 1281 3584 2069 3584 Q 2775 3584 3186 3129 Q 3597 2675 3597 1894 z M 3022 2063 Q 3016 2534 2758 2815 Q 2500 3097 2075 3097 Q 1594 3097 1305 2825 Q 1016 2553 972 2059 L 3022 2063 z" transform="scale(0.015625)"/><path id="DejaVuSans-2f" d="M 1625 4666 L 2156 4666 L 531 -594 L 0 -594 L 1625 4666 z" transform="scale(0.015625)"/><path id="DejaVuSans-28" d="M 1984 4856 Q 1566 4138 1362 3434 Q 1159 2731 1159 2009 Q 1159 1288 1364 580 Q 1569 -128 1984 -844 L 1484 -844 Q 1016 -109 783 600 Q 550 1309 550 2009 Q 550 2706 781 3412 Q 1013 4119 1484 4856 L 1984 4856 z" transform="scale(0.015625)"/><path id="DejaVuSans-55" d="M 556 4666 L 1191 4666 L 1191 1831 Q 1191 1081 1462 751 Q 1734 422 2344 422 Q 2950 422 3222 751 Q 3494 1081 3494 1831 L 3494 4666 L 4128 4666 L 4128 1753 Q 4128 841 3676 375 Q 3225 -91 2344 -91 Q 1459 -91 1007 375 Q 556 841 556 1753 L 556 4666 z" transform="scale(0.015625)"/><path id="DejaVuSans-43" d="M 4122 4306 L 4122 3641 Q 3803 3938 3442 4084 Q 3081 4231 2675 4231 Q 1875 4231 1450 3742 Q 1025 3253 1025 2328 Q 1025 1406 1450 917 Q 1875 428 2675 428 Q 3081 428 3442 575 Q 3803 722 4122 1019 L 4122 359 Q 3791 134 3420 21 Q 3050 -91 2638 -91 Q 1578 -91 968 557 Q 359 1206 359 2328 Q 359 3453 968 4101 Q 1578 4750 2638 4750 Q 3056 4750 3426 4639 Q 3797 4528 4122 4306 z" transform="scale(0.015625)"/><path id="DejaVuSans-54" d="M -19 4666 L 3928 4666 L 3928 4134 L 2272 4134 L 2272 0 L 1638 0 L 1638 4134 L -19 4134 L -19 4666 z" transform="scale(0.015625)"/><path id="DejaVuSans-29" d="M 513 4856 L 1013 4856 Q 1481 4119 1714 3412 Q 1947 2706 1947 2009 Q 1947 1309 1714 600 Q 1481 -109 1013 -844 L 513 -844 Q 928 -128 1133 580 Q 1338 1288 1338 2009 Q 1338 2731 1133 3434 Q 928 4138 513 4856 z" transform="scale(0.015625)"/></defs><use xlink:href="#DejaVuSans-44"/><use xlink:href="#DejaVuSans-61" x="77.002"/><use xlink:href="#DejaVuSans-79" x="138.281"/><use xlink:href="#DejaVuSans-73" x="197.461"/><use xlink:href="#DejaVuSans-20" x="249.561"/><use xlink:href="#DejaVuSans-73" x="281.348"/><use xlink:href="#DejaVuSans-69" x="333.447"/><use xlink:href="#DejaVuSans-6e" x="361.23"/><use xlink:href="#DejaVuSans-63" x="424.609"/><use xlink:href="#DejaVuSans-65" x="479.59"/><use xlink:href="#DejaVuSans-20" x="541.113"/><use xlink:href="#DejaVuSans-32" x="572.9"/><use xlink:href="#DejaVuSans-36" x="636.523"/><use xlink:href="#DejaVuSans-2f" x="700.146"/><use xlink:href="#DejaVuSans-30" x="733.838"/><use xlink:href="#DejaVuSans-32" x="797.461"/><use xlink:href="#DejaVuSans-2f" x="861.084"/><use xlink:href="#DejaVuSans-32" x="894.775"/><use xlink:href="#DejaVuSans-30" x="958.398"/><use xlink:href="#DejaVuSans-32" x="1022.021"/><use xlink:href="#DejaVuSans-33" x="1085.645"/><use xlink:href="#DejaVuSans-20" x="1149.268"/><use xlink:href="#DejaVuSans-28" x="1181.055"/><use xlink:href="#DejaVuSans-55" x="1220.068"/><use xlink:href="#DejaVuSans-43" x="1293.262"/><use xlink:href="#DejaVuSans-54" x="1363.086"/><use xlink:href="#DejaVuSans-29" x="1424.17"/></g></g></g><g id="matplotlib.axis_2"><g id="ytick_1"><g id="line2d_22"><defs><path id="m7d09e2e4e8" d="M 0 0 L -3.5 0" stroke="#ffffff" stroke-width="0.8"/></defs><g><use xlink:href="#m7d09e2e4e8" x="49.128" y="658.188" fill="#ffffff" stroke="#ffffff" stroke-width="0.8"/></g></g><g id="text_23"><g transform="translate(35.765865 661.987011) scale(0.1 -0.1)" fill="#ffffff"><use xlink:href="#DejaVuSans-30"/></g></g></g><g id="ytick_2"><g id="line2d_23"><g><use xlink:href="#m7d09e2e4e8" x="49.128" y="571.819" fill="#ffffff" stroke="#ffffff" stroke-width="0.8"/></g></g><g id="text_24"><g transform="translate(23.040865 575.618361) scale(0.1 -0.1)" fill="#ffffff"><use xlink:href="#DejaVuSans-35"/><use xlink:href="#DejaVuSans-30" x="63.623"/><use xlink:href="#DejaVuSans-30" x="127.246"/></g></g></g><g id="ytick_3"><g id="line2d_24"><g><use xlink:href="#m7d09e2e4e8" x="49.128" y="485.45" fill="#ffffff" stroke="#ffffff" stroke-width="0.8"/></g></g><g id="text_25"><g transform="translate(16.678365 489.249711) scale(0.1 -0.1)" fill="#ffffff"><use xlink:href="#DejaVuSans-31"/><use xlink:href="#DejaVuSans-30" x="63.623"/><use xlink:href="#DejaVuSans-30" x="127.246"/><use xlink:href="#DejaVuSans-30" x="190.869"/></g></g></g><g id="ytick_4"><g id="line2d_25"><g><use xlink:href="#m7d09e2e4e8" x="49.128" y="399.082" fill="#ffffff" stroke="#ffffff" stroke-width="0.8"/></g></g><g id="text_26"><g transform="translate(16.678365 402.881062) scale(0.1 -0.1)" fill="#ffffff"><use xlink:href="#DejaVuSans-31"/><use xlink:href="#DejaVuSans-35" x="63.623"/><use xlink:href="#DejaVuSans-30" x="127.246"/><use xlink:href="#DejaVuSans-30" x="190.869"/></g></g></g><g id="ytick_5"><g id="line2d_26"><g><use xlink:href="#m7d09e2e4e8" x="49.128" y="312.713" fill="#ffffff" stroke="#ffffff" stroke-width="0.8"/></g></g><g id="text_27"><g transform="translate(16.678365 316.512412) scale(0.1 -0.1)" fill="#ffffff"><use xlink:href="#DejaVuSans-32"/><use xlink:href="#DejaVuSans-30" x="63.623"/><use xlink:href="#DejaVuSans-30" x="127.246"/><use xlink:href="#DejaVuSans-30" x="190.869"/></g></g></g><g id="ytick_6"><g id="line2d_27"><g><use xlink:href="#m7d09e2e4e8" x="49.128" y="226.345" fill="#ffffff" stroke="#ffffff" stroke-width="0.8"/></g></g><g id="text_28"><g transform="translate(16.678365 230.143762) scale(0.1 -0.1)" fill="#ffffff"><use xlink:href="#DejaVuSans-32"/><use xlink:href="#DejaVuSans-35" x="63.623"/><use xlink:href="#DejaVuSans-30" x="127.246"/><use xlink:href="#DejaVuSans-30" x="190.869"/></g></g></g><g id="ytick_7"><g id="line2d_28"><g><use xlink:href="#m7d09e2e4e8" x="49.128" y="139.976" fill="#ffffff" stroke="#ffffff" stroke-width="0.8"/></g></g><g id="text_29"><g transform="translate(16.678365 143.775112) scale(0.1 -0.1)" fill="#ffffff"><use xlink:href="#DejaVuSans-33"/><use xlink:href="#DejaVuSans-30" x="63.623"/><use xlink:href="#DejaVuSans-30" x="127.246"/><use xlink:href="#DejaVuSans-30" x="190.869"/></g></g></g><g id="ytick_8"><g id="line2d_29"><g><use xlink:href="#m7d09e2e4e8" x="49.128" y="53.607" fill="#ffffff" stroke="#ffffff" stroke-width="0.8"/></g></g><g id="text_30"><g transform="translate(16.678365 57.406462) scale(0.1 -0.1)" fill="#ffffff"><use xlink:href="#DejaVuSans-33"/><use xlink:href="#DejaVuSans-35" x="63.623"/><use xlink:href="#DejaVuSans-30" x="127.246"/><use xlink:href="#DejaVuSans-30" x="190.869"/></g></g></g><g id="text_31"><g transform="translate(10.598678 359.071829) rotate(-90) scale(0.1 -0.1)" fill="#ffffff"><defs><path id="DejaVuSans-56" d="M 1831 0 L 50 4666 L 709 4666 L 2188 738 L 3669 4666 L 4325 4666 L 2547 0 L 1831 0 z" transform="scale(0.015625)"/><path id="DejaVuSans-74" d="M 1172 4494 L 1172 3500 L 2356 3500 L 2356 3053 L 1172 3053 L 1172 1153 Q 1172 725 1289 603 Q 1406 481 1766 481 L 2356 481 L 2356 0 L 1766 0 Q 1100 0 847 248 Q 594 497 594 1153 L 594 3053 L 172 3053 L 172 3500 L 594 3500 L 594 4494 L 1172 4494 z" transform="scale(0.015625)"/><path id="DejaVuSans-67" d="M 2906 1791 Q 2906 2416 2648 2759 Q 2391 3103 1925 3103 Q 1463 3103 1205 2759 Q 947 2416 947 1791 Q 947 1169 1205 825 Q 1463 481 1925 481 Q 2391 481 2648 825 Q 2906 1169 2906 1791 z M 3481 434 Q 3481 -459 3084 -895 Q 2688 -1331 1869 -1331 Q 1566 -1331 1297 -1286 Q 1028 -1241 775 -1147 L 775 -588 Q 1028 -725 1275 -790 Q 1522 -856 1778 -856 Q 2344 -856 2625 -561 Q 2906 -266 2906 331 L 2906 616 Q 2728 306 2450 153 Q 2172 0 1784 0 Q 1141 0 747 490 Q 353 981 353 1791 Q 353 2603 747 3093 Q 1141 3584 1784 3584 Q 2172 3584 2450 3431 Q 2728 3278 2906 2969 L 2906 3500 L 3481 3500 L 3481 434 z" transform="scale(0.015625)"/></defs><use xlink:href="#DejaVuSans-56"/><use xlink:href="#DejaVuSans-65" x="60.658"/><use xlink:href="#DejaVuSans-73" x="122.182"/><use xlink:href="#DejaVuSans-74" x="174.281"/><use xlink:href="#DejaVuSans-69" x="213.49"/><use xlink:href="#DejaVuSans-67" x="241.273"/><use xlink:href="#DejaVuSans-65" x="304.75"/><use xlink:href="#DejaVuSans-73" x="366.273"/></g></g></g><g id="patch_3"><path d="M 49.128365 658.187793 L 49.128365 18.118365" fill="none" stroke="#ffffff" stroke-width="0.8" stroke-linejoin="miter" stroke-linecap="square"/></g><g id="patch_4"><path d="M 1046.15726 658.187793 L 1046.15726 18.118365" fill="none" stroke="#ffffff" stroke-width="0.8" stroke-linejoin="miter" stroke-linecap="square"/></g><g id="patch_5"><path d="M 49.128365 658.187793 L 1046.15726 658.187793" fill="none" stroke="#ffffff" stroke-width="0.8" stroke-linejoin="miter" stroke-linecap="square"/></g><g id="patch_6"><path d="M 49.128365 18.118365 L 1046.15726 18.118365" fill="none" stroke="#ffffff" stroke-width="0.8" stroke-linejoin="miter" stroke-linecap="square"/></g><g id="text_32"><g transform="translate(494.199688 12.118365) scale(0.12 -0.12)" fill="#ffffff"><defs><path id="DejaVuSans-52" d="M 2841 2188 Q 3044 2119 3236 1894 Q 3428 1669 3622 1275 L 4263 0 L 3584 0 L 2988 1197 Q 2756 1666 2539 1819 Q 2322 1972 1947 1972 L 1259 1972 L 1259 0 L 628 0 L 628 4666 L 2053 4666 Q 2853 4666 3247 4331 Q 3641 3997 3641 3322 Q 3641 2881 3436 2590 Q 3231 2300 2841 2188 z M 1259 4147 L 1259 2491 L 2053 2491 Q 2509 2491 2742 2702 Q 2975 2913 2975 3322 Q 2975 3731 2742 3939 Q 2509 4147 2053 4147 L 1259 4147 z" transform="scale(0.015625)"/><path id="DejaVuSans-6f" d="M 1959 3097 Q 1497 3097 1228 2736 Q 959 2375 959 1747 Q 959 1119 1226 758 Q 1494 397 1959 397 Q 2419 397 2687 759 Q 2956 1122 2956 1747 Q 2956 2369 2687 2733 Q 2419 3097 1959 3097 z M 1959 3584 Q 2709 3584 3137 3096 Q 3566 2609 3566 1747 Q 3566 888 3137 398 Q 2709 -91 1959 -91 Q 1206 -91 779 398 Q 353 888 353 1747 Q 353 2609 779 3096 Q 1206 3584 1959 3584 z" transform="scale(0.015625)"/><path id="DejaVuSans-46" d="M 628 4666 L 3309 4666 L 3309 4134 L 1259 4134 L 1259 2759 L 3109 2759 L 3109 2228 L 1259 2228 L 1259 0 L 628 0 L 628 4666 z" transform="scale(0.015625)"/><path id="DejaVuSans-72" d="M 2631 2963 Q 2534 3019 2420 3045 Q 2306 3072 2169 3072 Q 1681 3072 1420 2755 Q 1159 2438 1159 1844 L 1159 0 L 581 0 L 581 3500 L 1159 3500 L 1159 2956 Q 1341 3275 1631 3429 Q 1922 3584 2338 3584 Q 2397 3584 2469 3576 Q 2541 3569 2628 3553 L 2631 2963 z" transform="scale(0.015625)"/><path id="DejaVuSans-71" d="M 947 1747 Q 947 1113 1208 752 Q 1469 391 1925 391 Q 2381 391 2643 752 Q 2906 1113 2906 1747 Q 2906 2381 2643 2742 Q 2381 3103 1925 3103 Q 1469 3103 1208 2742 Q 947 2381 947 1747 z M 2906 525 Q 2725 213 2448 61 Q 2172 -91 1784 -91 Q 1150 -91 751 415 Q 353 922 353 1747 Q 353 2572 751 3078 Q 1150 3584 1784 3584 Q 2172 3584 2448 3432 Q 2725 3281 2906 2969 L 2906 3500 L 3481 3500 L 3481 -1331 L 2906 -1331 L 2906 525 z" transform="scale(0.015625)"/><path id="DejaVuSans-75" d="M 544 1381 L 544 3500 L 1119 3500 L 1119 1403 Q 1119 906 1312 657 Q 1506 409 1894 409 Q 2359 409 2629 706 Q 2900 1003 2900 1516 L 2900 3500 L 3475 3500 L 3475 0 L 2900 0 L 2900 538 Q 2691 219 2414 64 Q 2138 -91 1772 -91 Q 1169 -91 856 284 Q 544 659 544 1381 z M 1991 3584 L 1991 3584 z" transform="scale(0.015625)"/></defs><use xlink:href="#DejaVuSans-52"/><use xlink:href="#DejaVuSans-65" x="64.982"/><use xlink:href="#DejaVuSans-67" x="126.506"/><use xlink:href="#DejaVuSans-69" x="189.982"/><use xlink:href="#DejaVuSans-6f" x="217.766"/><use xlink:href="#DejaVuSans-6e" x="278.947"/><use xlink:href="#DejaVuSans-20" x="342.326"/><use xlink:href="#DejaVuSans-46" x="374.113"/><use xlink:href="#DejaVuSans-72" x="424.383"/><use xlink:href="#DejaVuSans-65" x="463.246"/><use xlink:href="#DejaVuSans-71" x="524.77"/><use xlink:href="#DejaVuSans-75" x="588.246"/><use xlink:href="#DejaVuSans-65" x="651.625"/><use xlink:href="#DejaVuSans-6e" x="713.148"/><use xlink:href="#DejaVuSans-63" x="776.527"/><use xlink:href="#DejaVuSans-79" x="831.508"/></g></g></g><g id="legend_1"><g id="patch_7"><path d="M 56.651655 716.53 L 998.868345 716.53 Q 1000.256345 716.53 1000.256345 715.142 L 1000.256345 695.462763 Q 1000.256345 694.074763 998.868345 694.074763 L 56.651655 694.074763 Q 55.263655 694.074763 55.263655 695.462763 L 55.263655 715.142 Q 55.263655 716.53 56.651655 716.53 z" opacity="0.8" stroke="#cccccc" stroke-linejoin="miter"/></g><g id="patch_8"><path d="M 58.039655 702.124078 L 71.919655 702.124078 L 71.919655 697.266078 L 58.039655 697.266078 z" fill="#ac5953"/></g><g id="text_33"><g transform="translate(77.471655 702.124078) scale(0.0694 -0.0694)" fill="#ffffff"><defs><path id="DejaVuSans-53" d="M 3425 4513 L 3425 3897 Q 3066 4069 2747 4153 Q 2428 4238 2131 4238 Q 1616 4238 1336 4038 Q 1056 3838 1056 3469 Q 1056 3159 1242 3001 Q 1428 2844 1947 2747 L 2328 2669 Q 3034 2534 3370 2195 Q 3706 1856 3706 1288 Q 3706 609 3251 259 Q 2797 -91 1919 -91 Q 1588 -91 1214 -16 Q 841 59 441 206 L 441 856 Q 825 641 1194 531 Q 1563 422 1919 422 Q 2459 422 2753 634 Q 3047 847 3047 1241 Q 3047 1584 2836 1778 Q 2625 1972 2144 2069 L 1759 2144 Q 1053 2284 737 2584 Q 422 2884 422 3419 Q 422 4038 858 4394 Q 1294 4750 2059 4750 Q 2388 4750 2728 4690 Q 3069 4631 3425 4513 z" transform="scale(0.015625)"/></defs><use xlink:href="#DejaVuSans-53"/><use xlink:href="#DejaVuSans-55" x="63.477"/></g></g><g id="patch_9"><path d="M 58.039655 712.310697 L 71.919655 712.310697 L 71.919655 707.452697 L 58.039655 707.452697 z" fill="#a840bf"/></g><g id="text_34"><g transform="translate(77.471655 712.310697) scale(0.0694 -0.0694)" fill="#ffffff"><defs><path id="DejaVuSans-42" d="M 1259 2228 L 1259 519 L 2272 519 Q 2781 519 3026 730 Q 3272 941 3272 1375 Q 3272 1813 3026 2020 Q 2781 2228 2272 2228 L 1259 2228 z M 1259 4147 L 1259 2741 L 2194 2741 Q 2656 2741 2882 2914 Q 3109 3088 3109 3444 Q 3109 3797 2882 3972 Q 2656 4147 2194 4147 L 1259 4147 z M 628 4666 L 2241 4666 Q 2963 4666 3353 4366 Q 3744 4066 3744 3513 Q 3744 3084 3544 2831 Q 3344 2578 2956 2516 Q 3422 2416 3680 2098 Q 3938 1781 3938 1306 Q 3938 681 3513 340 Q 3088 0 2303 0 L 628 0 L 628 4666 z" transform="scale(0.015625)"/></defs><use xlink:href="#DejaVuSans-53"/><use xlink:href="#DejaVuSans-42" x="63.477"/></g></g><g id="patch_10"><path d="M 100.836683 702.124078 L 114.716683 702.124078 L 114.716683 697.266078 L 100.836683 697.266078 z" fill="#651f93"/></g><g id="text_35"><g transform="translate(120.268683 702.124078) scale(0.0694 -0.0694)" fill="#ffffff"><defs><path id="DejaVuSans-48" d="M 628 4666 L 1259 4666 L 1259 2753 L 3553 2753 L 3553 4666 L 4184 4666 L 4184 0 L 3553 0 L 3553 2222 L 1259 2222 L 1259 0 L 628 0 L 628 4666 z" transform="scale(0.015625)"/><path id="DejaVuSans-49" d="M 628 4666 L 1259 4666 L 1259 0 L 628 0 L 628 4666 z" transform="scale(0.015625)"/></defs><use xlink:href="#DejaVuSans-48"/><use xlink:href="#DejaVuSans-49" x="75.195"/></g></g><g id="patch_11"><path d="M 100.836683 712.310697 L 114.716683 712.310697 L 114.716683 707.452697 L 100.836683 707.452697 z" fill="#862d36"/></g><g id="text_36"><g transform="translate(120.268683 712.310697) scale(0.0694 -0.0694)" fill="#ffffff"><use xlink:href="#DejaVuSans-53"/><use xlink:href="#DejaVuSans-49" x="63.477"/></g></g><g id="patch_12"><path d="M 141.41508 702.124078 L 155.29508 702.124078 L 155.29508 697.266078 L 141.41508 697.266078 z" fill="#1f937c"/></g><g id="text_37"><g transform="translate(160.84708 702.124078) scale(0.0694 -0.0694)" fill="#ffffff"><use xlink:href="#DejaVuSans-43"/><use xlink:href="#DejaVuSans-43" x="69.824"/></g></g><g id="patch_13"><path d="M 141.41508 712.310697 L 155.29508 712.310697 L 155.29508 707.452697 L 141.41508 707.452697 z" fill="#2dbfd2"/></g><g id="text_38"><g transform="translate(160.84708 712.310697) scale(0.0694 -0.0694)" fill="#ffffff"><defs><path id="DejaVuSans-57" d="M 213 4666 L 850 4666 L 1831 722 L 2809 4666 L 3519 4666 L 4500 722 L 5478 4666 L 6119 4666 L 4947 0 L 4153 0 L 3169 4050 L 2175 0 L 1381 0 L 213 4666 z" transform="scale(0.015625)"/></defs><use xlink:href="#DejaVuSans-55"/><use xlink:href="#DejaVuSans-57" x="73.193"/></g></g><g id="patch_14"><path d="M 186.668217 702.124078 L 200.548217 702.124078 L 200.548217 697.266078 L 186.668217 697.266078 z" fill="#1f9327"/></g><g id="text_39"><g transform="translate(206.100217 702.124078) scale(0.0694 -0.0694)" fill="#ffffff"><defs><path id="DejaVuSans-4c" d="M 628 4666 L 1259 4666 L 1259 531 L 3531 531 L 3531 0 L 628 0 L 628 4666 z" transform="scale(0.015625)"/><path id="DejaVuSans-4d" d="M 628 4666 L 1569 4666 L 2759 1491 L 3956 4666 L 4897 4666 L 4897 0 L 4281 0 L 4281 4097 L 3078 897 L 2444 897 L 1241 4097 L 1241 0 L 628 0 L 628 4666 z" transform="scale(0.015625)"/></defs><use xlink:href="#DejaVuSans-4c"/><use xlink:href="#DejaVuSans-4d" x="55.713"/></g></g><g id="patch_15"><path d="M 186.668217 712.310697 L 200.548217 712.310697 L 200.548217 707.452697 L 186.668217 707.452697 z" fill="#5372ac"/></g><g id="text_40"><g transform="translate(206.100217 712.310697) scale(0.0694 -0.0694)" fill="#ffffff"><use xlink:href="#DejaVuSans-56"/><use xlink:href="#DejaVuSans-53" x="68.408"/></g></g><g id="patch_16"><path d="M 229.835017 702.124078 L 243.715017 702.124078 L 243.715017 697.266078 L 229.835017 697.266078 z" fill="#7f2dd2"/></g><g id="text_41"><g transform="translate(249.267017 702.124078) scale(0.0694 -0.0694)" fill="#ffffff"><use xlink:href="#DejaVuSans-53"/><use xlink:href="#DejaVuSans-4c" x="63.477"/></g></g><g id="patch_17"><path d="M 229.835017 712.310697 L 243.715017 712.310697 L 243.715017 707.452697 L 229.835017 707.452697 z" fill="#6ce085"/></g><g id="text_42"><g transform="translate(249.267017 712.310697) scale(0.0694 -0.0694)" fill="#ffffff"><defs><path id="DejaVuSans-47" d="M 3809 666 L 3809 1919 L 2778 1919 L 2778 2438 L 4434 2438 L 4434 434 Q 4069 175 3628 42 Q 3188 -91 2688 -91 Q 1594 -91 976 548 Q 359 1188 359 2328 Q 359 3472 976 4111 Q 1594 4750 2688 4750 Q 3144 4750 3555 4637 Q 3966 4525 4313 4306 L 4313 3634 Q 3963 3931 3569 4081 Q 3175 4231 2741 4231 Q 1884 4231 1454 3753 Q 1025 3275 1025 2328 Q 1025 1384 1454 906 Q 1884 428 2741 428 Q 3075 428 3337 486 Q 3600 544 3809 666 z" transform="scale(0.015625)"/></defs><use xlink:href="#DejaVuSans-47"/><use xlink:href="#DejaVuSans-57" x="77.49"/></g></g><g id="patch_18"><path d="M 275.386358 702.124078 L 289.266358 702.124078 L 289.266358 697.266078 L 275.386358 697.266078 z" fill="#79d2b5"/></g><g id="text_43"><g transform="translate(294.818358 702.124078) scale(0.0694 -0.0694)" fill="#ffffff"><use xlink:href="#DejaVuSans-4c"/><use xlink:href="#DejaVuSans-43" x="55.713"/></g></g><g id="patch_19"><path d="M 275.386358 712.310697 L 289.266358 712.310697 L 289.266358 707.452697 L 275.386358 707.452697 z" fill="#6ce098"/></g><g id="text_44"><g transform="translate(294.818358 712.310697) scale(0.0694 -0.0694)" fill="#ffffff"><use xlink:href="#DejaVuSans-4c"/><use xlink:href="#DejaVuSans-46" x="55.713"/></g></g><g id="patch_20"><path d="M 317.411311 702.124078 L 331.291311 702.124078 L 331.291311 697.266078 L 317.411311 697.266078 z" fill="#2dd235"/></g><g id="text_45"><g transform="translate(336.843311 702.124078) scale(0.0694 -0.0694)" fill="#ffffff"><use xlink:href="#DejaVuSans-44"/><use xlink:href="#DejaVuSans-53" x="77.002"/></g></g><g id="patch_21"><path d="M 317.411311 712.310697 L 331.291311 712.310697 L 331.291311 707.452697 L 317.411311 707.452697 z" fill="#87c5a1"/></g><g id="text_46"><g transform="translate(336.843311 712.310697) scale(0.0694 -0.0694)" fill="#ffffff"><defs><path id="DejaVuSans-41" d="M 2188 4044 L 1331 1722 L 3047 1722 L 2188 4044 z M 1831 4666 L 2547 4666 L 4325 0 L 3669 0 L 3244 1197 L 1141 1197 L 716 0 L 50 0 L 1831 4666 z" transform="scale(0.015625)"/></defs><use xlink:href="#DejaVuSans-4d"/><use xlink:href="#DejaVuSans-41" x="86.279"/></g></g><g id="patch_22"><path d="M 361.458623 702.124078 L 375.338623 702.124078 L 375.338623 697.266078 L 361.458623 697.266078 z" fill="#d279a6"/></g><g id="text_47"><g transform="translate(380.890623 702.124078) scale(0.0694 -0.0694)" fill="#ffffff"><use xlink:href="#DejaVuSans-43"/><use xlink:href="#DejaVuSans-4c" x="69.824"/></g></g><g id="patch_23"><path d="M 361.458623 712.310697 L 375.338623 712.310697 L 375.338623 707.452697 L 361.458623 707.452697 z" fill="#6ce0bd"/></g><g id="text_48"><g transform="translate(380.890623 712.310697) scale(0.0694 -0.0694)" fill="#ffffff"><use xlink:href="#DejaVuSans-53"/><use xlink:href="#DejaVuSans-48" x="63.477"/></g></g><g id="patch_24"><path d="M 404.395536 702.124078 L 418.275536 702.124078 L 418.275536 697.266078 L 404.395536 697.266078 z" fill="#2d4f86"/></g><g id="text_49"><g transform="translate(423.827536 702.124078) scale(0.0694 -0.0694)" fill="#ffffff"><defs><path id="DejaVuSans-45" d="M 628 4666 L 3578 4666 L 3578 4134 L 1259 4134 L 1259 2753 L 3481 2753 L 3481 2222 L 1259 2222 L 1259 531 L 3634 531 L 3634 0 L 628 0 L 628 4666 z" transform="scale(0.015625)"/></defs><use xlink:href="#DejaVuSans-47"/><use xlink:href="#DejaVuSans-41" x="77.49"/><use xlink:href="#DejaVuSans-54" x="138.148"/><use xlink:href="#DejaVuSans-45" x="199.232"/></g></g><g id="patch_25"><path d="M 404.395536 712.310697 L 418.275536 712.310697 L 418.275536 707.452697 L 404.395536 707.452697 z" fill="#6c75e0"/></g><g id="text_50"><g transform="translate(423.827536 712.310697) scale(0.0694 -0.0694)" fill="#ffffff"><defs><path id="DejaVuSans-4f" d="M 2522 4238 Q 1834 4238 1429 3725 Q 1025 3213 1025 2328 Q 1025 1447 1429 934 Q 1834 422 2522 422 Q 3209 422 3611 934 Q 4013 1447 4013 2328 Q 4013 3213 3611 3725 Q 3209 4238 2522 4238 z M 2522 4750 Q 3503 4750 4090 4092 Q 4678 3434 4678 2328 Q 4678 1225 4090 567 Q 3503 -91 2522 -91 Q 1538 -91 948 565 Q 359 1222 359 2328 Q 359 3434 948 4092 Q 1538 4750 2522 4750 z" transform="scale(0.015625)"/></defs><use xlink:href="#DejaVuSans-4f"/><use xlink:href="#DejaVuSans-45" x="78.711"/></g></g><g id="patch_26"><path d="M 455.91853 702.124078 L 469.79853 702.124078 L 469.79853 697.266078 L 455.91853 697.266078 z" fill="#472d86"/></g><g id="text_51"><g transform="translate(475.35053 702.124078) scale(0.0694 -0.0694)" fill="#ffffff"><use xlink:href="#DejaVuSans-48"/><use xlink:href="#DejaVuSans-52" x="75.195"/></g></g><g id="patch_27"><path d="M 455.91853 712.310697 L 469.79853 712.310697 L 469.79853 707.452697 L 455.91853 707.452697 z" fill="#40b0bf"/></g><g id="text_52"><g transform="translate(475.35053 712.310697) scale(0.0694 -0.0694)" fill="#ffffff"><use xlink:href="#DejaVuSans-44"/><use xlink:href="#DejaVuSans-4d" x="77.002"/></g></g><g id="patch_28"><path d="M 500.562248 702.124078 L 514.442248 702.124078 L 514.442248 697.266078 L 500.562248 697.266078 z" fill="#79d2b2"/></g><g id="text_53"><g transform="translate(519.994248 702.124078) scale(0.0694 -0.0694)" fill="#ffffff"><defs><path id="DejaVuSans-4e" d="M 628 4666 L 1478 4666 L 3547 763 L 3547 4666 L 4159 4666 L 4159 0 L 3309 0 L 1241 3903 L 1241 0 L 628 0 L 628 4666 z" transform="scale(0.015625)"/></defs><use xlink:href="#DejaVuSans-46"/><use xlink:href="#DejaVuSans-4e" x="57.52"/></g></g><g id="patch_29"><path d="M 500.562248 712.310697 L 514.442248 712.310697 L 514.442248 707.452697 L 500.562248 707.452697 z" fill="#931f3c"/></g><g id="text_54"><g transform="translate(519.994248 712.310697) scale(0.0694 -0.0694)" fill="#ffffff"><use xlink:href="#DejaVuSans-43"/><use xlink:href="#DejaVuSans-41" x="69.824"/></g></g><g id="patch_30"><path d="M 543.467714 702.124078 L 557.347714 702.124078 L 557.347714 697.266078 L 543.467714 697.266078 z" fill="#2dd288"/></g><g id="text_55"><g transform="translate(562.899714 702.124078) scale(0.0694 -0.0694)" fill="#ffffff"><use xlink:href="#DejaVuSans-53"/><use xlink:href="#DejaVuSans-53" x="63.477"/></g></g><g id="patch_31"><path d="M 585.591345 702.124078 L 599.471345 702.124078 L 599.471345 697.266078 L 585.591345 697.266078 z" fill="#d22dd2"/></g><g id="text_56"><g transform="translate(605.023345 702.124078) scale(0.0694 -0.0694)" fill="#ffffff"><use xlink:href="#DejaVuSans-43"/><use xlink:href="#DejaVuSans-46" x="69.824"/></g></g><g id="patch_32"><path d="M 627.741002 702.124078 L 641.621002 702.124078 L 641.621002 697.266078 L 627.741002 697.266078 z" fill="#b9d279"/></g><g id="text_57"><g transform="translate(647.173002 702.124078) scale(0.0694 -0.0694)" fill="#ffffff"><use xlink:href="#DejaVuSans-56"/><use xlink:href="#DejaVuSans-49" x="68.408"/></g></g><g id="patch_33"><path d="M 667.847695 702.124078 L 681.727695 702.124078 L 681.727695 697.266078 L 667.847695 697.266078 z" fill="#48783a"/></g><g id="text_58"><g transform="translate(687.279695 702.124078) scale(0.0694 -0.0694)" fill="#ffffff"><use xlink:href="#DejaVuSans-4d"/><use xlink:href="#DejaVuSans-45" x="86.279"/></g></g><g id="patch_34"><path d="M 711.532827 702.124078 L 725.412827 702.124078 L 725.412827 697.266078 L 711.532827 697.266078 z" fill="#d279c3"/></g><g id="text_59"><g transform="translate(730.964827 702.124078) scale(0.0694 -0.0694)" fill="#ffffff"><defs><path id="DejaVuSans-59" d="M -13 4666 L 666 4666 L 1959 2747 L 3244 4666 L 3922 4666 L 2272 2222 L 2272 0 L 1638 0 L 1638 2222 L -13 4666 z" transform="scale(0.015625)"/></defs><use xlink:href="#DejaVuSans-41"/><use xlink:href="#DejaVuSans-59" x="60.658"/></g></g><g id="patch_35"><path d="M 753.293192 702.124078 L 767.173192 702.124078 L 767.173192 697.266078 L 753.293192 697.266078 z" fill="#cae06c"/></g><g id="text_60"><g transform="translate(772.725192 702.124078) scale(0.0694 -0.0694)" fill="#ffffff"><defs><path id="DejaVuSans-50" d="M 1259 4147 L 1259 2394 L 2053 2394 Q 2494 2394 2734 2622 Q 2975 2850 2975 3272 Q 2975 3691 2734 3919 Q 2494 4147 2053 4147 L 1259 4147 z M 628 4666 L 2053 4666 Q 2838 4666 3239 4311 Q 3641 3956 3641 3272 Q 3641 2581 3239 2228 Q 2838 1875 2053 1875 L 1259 1875 L 1259 0 L 628 0 L 628 4666 z" transform="scale(0.015625)"/></defs><use xlink:href="#DejaVuSans-46"/><use xlink:href="#DejaVuSans-50" x="57.52"/></g></g><g id="patch_36"><path d="M 794.78138 702.124078 L 808.66138 702.124078 L 808.66138 697.266078 L 794.78138 697.266078 z" fill="#c58799"/></g><g id="text_61"><g transform="translate(814.21338 702.124078) scale(0.0694 -0.0694)" fill="#ffffff"><use xlink:href="#DejaVuSans-52"/><use xlink:href="#DejaVuSans-4d" x="69.482"/></g></g><g id="patch_37"><path d="M 838.903514 702.124078 L 852.783514 702.124078 L 852.783514 697.266078 L 838.903514 697.266078 z" fill="#72e06c"/></g><g id="text_62"><g transform="translate(858.335514 702.124078) scale(0.0694 -0.0694)" fill="#ffffff"><use xlink:href="#DejaVuSans-55"/><use xlink:href="#DejaVuSans-47" x="73.193"/></g></g><g id="patch_38"><path d="M 882.672142 702.124078 L 896.552142 702.124078 L 896.552142 697.266078 L 882.672142 697.266078 z" fill="#d22f2d"/></g><g id="text_63"><g transform="translate(902.104142 702.124078) scale(0.0694 -0.0694)" fill="#ffffff"><use xlink:href="#DejaVuSans-4f"/><use xlink:href="#DejaVuSans-53" x="78.711"/></g></g><g id="patch_39"><path d="M 925.853039 702.124078 L 939.733039 702.124078 L 939.733039 697.266078 L 925.853039 697.266078 z" fill="#3a7877"/></g><g id="text_64"><g transform="translate(945.285039 702.124078) scale(0.0694 -0.0694)" fill="#ffffff"><use xlink:href="#DejaVuSans-4d"/><use xlink:href="#DejaVuSans-53" x="86.279"/></g></g><g id="patch_40"><path d="M 969.558773 702.124078 L 983.438773 702.124078 L 983.438773 697.266078 L 969.558773 697.266078 z" fill="#6b1f93"/></g><g id="text_65"><g transform="translate(988.990773 702.124078) scale(0.0694 -0.0694)" fill="#ffffff"><use xlink:href="#DejaVuSans-50"/><use xlink:href="#DejaVuSans-41" x="53.928"/></g></g></g></g><defs><clipPath id="pddffde10ad"><rect x="49.128" y="18.118" width="997.029" height="640.069"/></clipPath></defs></svg>