<svg xmlns:xlink="http://www.w3.org/1999/xlink" width="1167.36" height="1071.36" viewBox="0 0 875.52 803.52" xmlns="http://www.w3.org/2000/svg" version="1.1"><metadata><rdf:RDF xmlns:dc="http://purl.org/dc/elements/1.1/" xmlns:cc="http://creativecommons.org/ns#" xmlns:rdf="http://www.w3.org/1999/02/22-rdf-syntax-ns#"><cc:Work><dc:type rdf:resource="http://purl.org/dc/dcmitype/StillImage"/><dc:format>image/svg+xml</dc:format><dc:creator><cc:Agent><dc:title>Matplotlib v3.7.1, https://matplotlib.org/</dc:title></cc:Agent></dc:creator></cc:Work></rdf:RDF></metadata><defs><style type="text/css">*{stroke-linejoin:round;stroke-linecap:butt}</style></defs><g id="figure_1"><g id="patch_1"><path d="M 0 803.52 L 875.52 803.52 L 875.52 0 L 0 0 z"/></g><g id="axes_1"><g id="patch_2"><path d="M 758.0592 405.7776 C 758.0592 360.917423 748.301312 316.589453 729.464026 275.875915 C 710.626739 235.162378 683.157012 199.029298 648.964879 169.989093 L 448.704 405.7776 z" fill="#ac5953"/></g><g id="patch_3"><path d="M 648.964879 169.989093 C 639.132363 161.6381 628.787106 153.910309 617.989719 146.850998 C 607.192331 139.791687 595.963942 133.414668 584.370336 127.757304 L 448.704 405.7776 z" fill="#a840bf"/></g><g id="patch_4"><path d="M 584.370336 127.757304 C 549.509757 110.746291 511.758682 100.442732 473.089767 97.385035 C 434.420851 94.327338 395.519574 98.569704 358.418696 109.890453 L 448.704 405.7776 z" fill="#651f93"/></g><g id="patch_5"><path d="M 358.418696 109.890453 C 331.66939 118.052583 306.150029 129.804502 282.558905 144.824641 C 258.96778 159.844779 237.522049 177.994876 218.808536 198.778287 L 448.704 405.7776 z" fill="#862d36"/></g><g id="patch_6"><path d="M 218.808536 198.778287 C 190.280925 230.461331 168.608507 267.702278 155.155024 308.157732 C 141.701542 348.613185 136.755229 391.416407 140.627334 433.873994 L 448.704 405.7776 z" fill="#1f937c"/></g><g id="patch_7"><path d="M 140.627334 433.873994 C 143.858211 469.300532 153.175697 503.905781 168.169306 536.165196 C 183.162915 568.42461 203.609183 597.857397 228.607342 623.166885 L 448.704 405.7776 z" fill="#2dbfd2"/></g><g id="patch_8"><path d="M 228.607342 623.166885 C 234.36932 629.000622 240.360959 634.60297 246.568061 639.960653 C 252.775164 645.318335 259.192824 650.427119 265.805836 655.274897 L 448.704 405.7776 z" fill="#1f9327"/></g><g id="patch_9"><path d="M 265.805836 655.274897 C 270.958647 659.052252 276.227241 662.66907 281.604036 666.120147 C 286.980832 669.571225 292.463248 672.854906 298.043397 675.966465 L 448.704 405.7776 z" fill="#5372ac"/></g><g id="patch_10"><path d="M 298.043397 675.966465 C 306.189479 680.508819 314.53682 684.680449 323.059834 688.468568 C 331.582849 692.256687 340.27282 695.657421 349.103113 698.660346 L 448.704 405.7776 z" fill="#7f2dd2"/></g><g id="patch_11"><path d="M 349.103113 698.660346 C 370.69726 706.003887 393.037483 710.936761 415.716091 713.368948 C 438.394699 715.801136 461.272894 715.717751 483.933171 713.120316 L 448.704 405.7776 z" fill="#6ce085"/></g><g id="patch_12"><path d="M 483.933171 713.120316 C 498.032397 711.504192 512.003719 708.919787 525.748109 705.385419 C 539.4925 701.851051 552.977408 697.37509 566.107255 691.989262 L 448.704 405.7776 z" fill="#79d2b5"/></g><g id="patch_13"><path d="M 566.107255 691.989262 C 578.859626 686.758274 591.248146 680.680842 603.189974 673.797606 C 615.131802 666.91437 626.600259 659.240708 637.518656 650.827932 L 448.704 405.7776 z" fill="#6ce098"/></g><g id="patch_14"><path d="M 637.518656 650.827932 C 642.11323 647.28775 646.60733 643.619049 650.995626 639.82618 C 655.383922 636.033311 659.664679 632.117775 663.832819 628.084215 L 448.704 405.7776 z" fill="#2dd235"/></g><g id="patch_15"><path d="M 663.832819 628.084215 C 663.877445 628.04103 663.922058 627.997832 663.966657 627.95462 C 664.011257 627.911408 664.055844 627.868183 664.100418 627.824944 L 448.704 405.7776 z" fill="#87c5a1"/></g><g id="patch_16"><path d="M 664.100418 627.824944 C 665.56022 626.408866 667.006023 624.978427 668.437615 623.533836 C 669.869207 622.089244 671.286518 620.63057 672.689342 619.158026 L 448.704 405.7776 z" fill="#d279a6"/></g><g id="patch_17"><path d="M 672.689342 619.158026 C 682.711276 608.638007 691.979623 597.424988 700.425528 585.60227 C 708.871434 573.779553 716.473932 561.376486 723.176544 548.485212 L 448.704 405.7776 z" fill="#6ce0bd"/></g><g id="patch_18"><path d="M 723.176544 548.485212 C 723.602671 547.665633 724.025124 546.844151 724.443892 546.020788 C 724.86266 545.197425 725.277738 544.372191 725.689113 543.545111 L 448.704 405.7776 z" fill="#2d4f86"/></g><g id="patch_19"><path d="M 725.689113 543.545111 C 728.137917 538.621727 730.455017 533.633928 732.637943 528.58703 C 734.820868 523.540131 736.868844 518.435928 738.779686 513.279861 L 448.704 405.7776 z" fill="#6c75e0"/></g><g id="patch_20"><path d="M 738.779686 513.279861 C 739.421246 511.548727 740.047296 509.811884 740.657761 508.069542 C 741.268226 506.327199 741.863082 504.579427 742.442257 502.826435 L 448.704 405.7776 z" fill="#472d86"/></g><g id="patch_21"><path d="M 742.442257 502.826435 C 743.913585 498.373157 745.283451 493.886995 746.550792 489.371429 C 747.818133 484.855863 748.982621 480.31206 750.043354 475.743545 L 448.704 405.7776 z" fill="#40b0bf"/></g><g id="patch_22"><path d="M 750.043354 475.743545 C 750.050669 475.712039 750.057979 475.680532 750.065285 475.649024 C 750.07259 475.617516 750.07989 475.586007 750.087185 475.554497 L 448.704 405.7776 z" fill="#79d2b2"/></g><g id="patch_23"><path d="M 750.087185 475.554497 C 750.113157 475.44232 750.139065 475.33013 750.164911 475.217924 C 750.190758 475.105719 750.216541 474.993499 750.242262 474.881265 L 448.704 405.7776 z" fill="#931f3c"/></g><g id="patch_24"><path d="M 750.242262 474.881265 C 751.04685 471.370391 751.790061 467.845733 752.471553 464.308903 C 753.153046 460.772072 753.772716 457.22361 754.330281 453.665138 L 448.704 405.7776 z" fill="#2dd288"/></g><g id="patch_25"><path d="M 754.330281 453.665138 C 754.401577 453.210115 754.471856 452.754933 754.541119 452.299596 C 754.610382 451.844259 754.678628 451.388768 754.745857 450.933127 L 448.704 405.7776 z" fill="#d22dd2"/></g><g id="patch_26"><path d="M 754.745857 450.933127 C 754.770784 450.764181 754.795572 450.595214 754.820219 450.426228 C 754.844867 450.257241 754.869375 450.088234 754.893742 449.919206 L 448.704 405.7776 z" fill="#b9d279"/></g><g id="patch_27"><path d="M 754.893742 449.919206 C 754.909249 449.811643 754.924699 449.704072 754.940093 449.596493 C 754.955486 449.488914 754.970823 449.381326 754.986103 449.273731 L 448.704 405.7776 z" fill="#48783a"/></g><g id="patch_28"><path d="M 754.986103 449.273731 C 754.992651 449.227619 754.999189 449.181505 755.005717 449.13539 C 755.012245 449.089275 755.018762 449.043158 755.025269 448.99704 L 448.704 405.7776 z" fill="#d279c3"/></g><g id="patch_29"><path d="M 755.025269 448.99704 C 755.02545 448.995759 755.02563 448.994478 755.025811 448.993197 C 755.025992 448.991915 755.026173 448.990634 755.026353 448.989353 L 448.704 405.7776 z" fill="#cae06c"/></g><g id="patch_30"><path d="M 755.026353 448.989353 C 755.332126 446.821771 755.614883 444.651003 755.874577 442.477418 C 756.13427 440.303833 756.370885 438.127553 756.584382 435.948946 L 448.704 405.7776 z" fill="#c58799"/></g><g id="patch_31"><path d="M 756.584382 435.948946 C 756.68684 434.903428 756.783971 433.857394 756.875772 432.810887 C 756.967573 431.764379 757.054043 430.717411 757.135179 429.670022 L 448.704 405.7776 z" fill="#72e06c"/></g><g id="patch_32"><path d="M 757.135179 429.670022 C 757.153364 429.435263 757.171281 429.200484 757.188931 428.965684 C 757.20658 428.730884 757.223961 428.496064 757.241075 428.261224 L 448.704 405.7776 z" fill="#d22f2d"/></g><g id="patch_33"><path d="M 757.241075 428.261224 C 757.359081 426.641855 757.464336 425.021582 757.556831 423.400555 C 757.649326 421.779529 757.729057 420.157799 757.796018 418.535517 L 448.704 405.7776 z" fill="#3a7877"/></g><g id="patch_34"><path d="M 757.796018 418.535517 C 757.830698 417.695295 757.861953 416.854934 757.88978 416.014457 C 757.917607 415.173979 757.942008 414.333392 757.96298 413.492716 L 448.704 405.7776 z" fill="#6b1f93"/></g><g id="patch_35"><path d="M 757.96298 413.492716 C 757.963077 413.488836 757.963174 413.484956 757.96327 413.481076 C 757.963367 413.477195 757.963463 413.473315 757.96356 413.469435 L 448.704 405.7776 z" fill="#9587c5"/></g><g id="patch_36"><path d="M 757.96356 413.469435 C 757.963592 413.468142 757.963624 413.466849 757.963656 413.465555 C 757.963689 413.464262 757.963721 413.462969 757.963753 413.461675 L 448.704 405.7776 z" fill="#1f3693"/></g><g id="patch_37"><path d="M 757.963753 413.461675 C 757.964749 413.421581 757.965737 413.381487 757.966718 413.341393 C 757.967699 413.301299 757.968672 413.261205 757.969637 413.22111 L 448.704 405.7776 z" fill="#1f4e93"/></g><g id="patch_38"><path d="M 757.969637 413.22111 C 757.969699 413.218523 757.969761 413.215936 757.969823 413.21335 C 757.969885 413.210763 757.969948 413.208176 757.97001 413.205589 L 448.704 405.7776 z" fill="#40bf90"/></g><g id="patch_39"><path d="M 757.97001 413.205589 C 757.970631 413.179722 757.971249 413.153854 757.971864 413.127987 C 757.972479 413.102119 757.97309 413.076251 757.973698 413.050383 L 448.704 405.7776 z" fill="#85d279"/></g><g id="patch_40"><path d="M 757.973698 413.050383 C 757.97452 413.015462 757.975335 412.98054 757.976144 412.945618 C 757.976954 412.910696 757.977757 412.875774 757.978555 412.840852 L 448.704 405.7776 z" fill="#bf4064"/></g><g id="patch_41"><path d="M 757.978555 412.840852 C 757.978998 412.821451 757.979439 412.80205 757.979879 412.782649 C 757.980318 412.763247 757.980756 412.743846 757.981191 412.724445 L 448.704 405.7776 z" fill="#7e79d2"/></g><g id="patch_42"><path d="M 757.981191 412.724445 C 757.981337 412.717978 757.981482 412.711511 757.981627 412.705043 C 757.981771 412.698576 757.981916 412.692109 757.982061 412.685642 L 448.704 405.7776 z" fill="#d28179"/></g><g id="patch_43"><path d="M 757.982061 412.685642 C 757.982234 412.677882 757.982407 412.670121 757.98258 412.66236 C 757.982752 412.6546 757.982925 412.646839 757.983097 412.639079 L 448.704 405.7776 z" fill="#90ac53"/></g><g id="patch_44"><path d="M 757.983097 412.639079 C 757.983126 412.637785 757.983154 412.636492 757.983183 412.635198 C 757.983212 412.633905 757.98324 412.632612 757.983269 412.631318 L 448.704 405.7776 z" fill="#2d6d86"/></g><g id="patch_45"><path d="M 757.983269 412.631318 C 757.983785 412.608036 757.984298 412.584754 757.984809 412.561473 C 757.98532 412.538191 757.985828 412.514909 757.986333 412.491627 L 448.704 405.7776 z" fill="#c58f87"/></g><g id="patch_46"><path d="M 757.986333 412.491627 C 757.986361 412.490333 757.986389 412.48904 757.986417 412.487746 C 757.986445 412.486453 757.986473 412.48516 757.986502 412.483866 L 448.704 405.7776 z" fill="#bf7140"/></g><g id="patch_47"><path d="M 757.986502 412.483866 C 757.991073 412.273035 757.995429 412.062198 757.999569 411.851358 C 758.00371 411.640518 758.007634 411.429673 758.011344 411.218824 L 448.704 405.7776 z" fill="#932d1f"/></g><g id="patch_48"><path d="M 758.011344 411.218824 C 758.011457 411.212357 758.011571 411.205889 758.011684 411.199421 C 758.011798 411.192953 758.011911 411.186486 758.012024 411.180018 L 448.704 405.7776 z" fill="#3a3c78"/></g><g id="patch_49"><path d="M 758.012024 411.180018 C 758.012069 411.177431 758.012114 411.174844 758.012159 411.172257 C 758.012204 411.16967 758.01225 411.167082 758.012295 411.164495 L 448.704 405.7776 z" fill="#e0cc6c"/></g><g id="patch_50"><path d="M 758.012295 411.164495 C 758.012317 411.163202 758.01234 411.161908 758.012362 411.160615 C 758.012385 411.159321 758.012407 411.158028 758.01243 411.156734 L 448.704 405.7776 z" fill="#c56ce0"/></g><g id="patch_51"><path d="M 758.01243 411.156734 C 758.012565 411.148973 758.012699 411.141211 758.012834 411.13345 C 758.012968 411.125689 758.013102 411.117927 758.013236 411.110166 L 448.704 405.7776 z" fill="#bf4080"/></g><g id="patch_52"><path d="M 758.013236 411.110166 C 758.013258 411.108873 758.013281 411.107579 758.013303 411.106285 C 758.013325 411.104992 758.013347 411.103698 758.01337 411.102405 L 448.704 405.7776 z" fill="#86762d"/></g><g id="patch_53"><path d="M 758.01337 411.102405 C 758.013748 411.080414 758.014125 411.058424 758.014498 411.036433 C 758.014872 411.014443 758.015244 410.992452 758.015613 410.970461 L 448.704 405.7776 z" fill="#c5d22d"/></g><g id="patch_54"><path d="M 758.015613 410.970461 C 758.015635 410.969168 758.015656 410.967874 758.015678 410.966581 C 758.0157 410.965287 758.015722 410.963994 758.015743 410.9627 L 448.704 405.7776 z" fill="#abc587"/></g><g id="patch_55"><path d="M 758.015743 410.9627 C 758.015765 410.961406 758.015787 410.960113 758.015808 410.958819 C 758.01583 410.957526 758.015852 410.956232 758.015873 410.954939 L 448.704 405.7776 z" fill="#c587a2"/></g><g id="patch_56"><path d="M 758.015873 410.954939 C 758.018385 410.804885 758.020787 410.654829 758.023081 410.504772 C 758.025374 410.354714 758.027558 410.204655 758.029633 410.054595 L 448.704 405.7776 z" fill="#2d4186"/></g><g id="patch_57"><path d="M 758.029633 410.054595 C 758.030259 410.009318 758.030875 409.964041 758.031481 409.918764 C 758.032087 409.873487 758.032683 409.828209 758.03327 409.782932 L 448.704 405.7776 z" fill="#e06ca4"/></g><g id="patch_58"><path d="M 758.03327 409.782932 C 758.033353 409.776464 758.033437 409.769996 758.03352 409.763527 C 758.033604 409.757059 758.033687 409.750591 758.03377 409.744123 L 448.704 405.7776 z" fill="#c59487"/></g><g id="patch_59"><path d="M 758.03377 409.744123 C 758.034002 409.726012 758.034233 409.707901 758.034462 409.68979 C 758.034691 409.671679 758.034918 409.653568 758.035144 409.635456 L 448.704 405.7776 z" fill="#87c59d"/></g><g id="patch_60"><path d="M 758.035144 409.635456 C 758.035225 409.628988 758.035305 409.62252 758.035385 409.616052 C 758.035466 409.609584 758.035546 409.603115 758.035626 409.596647 L 448.704 405.7776 z" fill="#1f9376"/></g><g id="patch_61"><path d="M 758.035626 409.596647 C 758.035674 409.592766 758.035721 409.588885 758.035769 409.585004 C 758.035817 409.581123 758.035865 409.577242 758.035912 409.573361 L 448.704 405.7776 z" fill="#40bf77"/></g><g id="patch_62"><path d="M 758.035912 409.573361 C 758.036023 409.564306 758.036134 409.55525 758.036244 409.546195 C 758.036355 409.537139 758.036465 409.528083 758.036574 409.519028 L 448.704 405.7776 z" fill="#538bac"/></g><g id="patch_63"><path d="M 758.036574 409.519028 C 758.036606 409.516441 758.036637 409.513853 758.036668 409.511266 C 758.036699 409.508679 758.03673 409.506091 758.036762 409.503504 L 448.704 405.7776 z" fill="#c587b2"/></g><g id="patch_64"><path d="M 758.036762 409.503504 C 758.036808 409.499623 758.036855 409.495742 758.036902 409.491861 C 758.036948 409.48798 758.036995 409.484099 758.037041 409.480218 L 448.704 405.7776 z" fill="#3a7877"/></g><g id="patch_65"><path d="M 758.037041 409.480218 C 758.039999 409.23313 758.04266 408.986038 758.045026 408.738943 C 758.047391 408.491849 758.049461 408.244751 758.051234 407.997651 L 448.704 405.7776 z" fill="#8840bf"/></g><g id="patch_66"><path d="M 758.051234 407.997651 C 758.053871 407.630236 758.055853 407.262816 758.057181 406.895394 C 758.058508 406.527971 758.059181 406.160547 758.0592 405.793122 L 448.704 405.7776 z" fill="#c1d279"/></g><g id="patch_67"><path d="M 758.0592 405.793122 C 758.0592 405.791829 758.0592 405.790535 758.0592 405.789241 C 758.0592 405.787947 758.0592 405.786654 758.0592 405.78536 L 448.704 405.7776 z" fill="#56ac53"/></g><g id="patch_68"><path d="M 758.0592 405.78536 C 758.0592 405.784066 758.0592 405.782772 758.0592 405.781479 C 758.0592 405.780185 758.0592 405.778891 758.0592 405.777597 L 448.704 405.7776 z" fill="#a12dd2"/></g><g id="text_1"><g transform="translate(395.260875 40.925568) scale(0.12 -0.12)" fill="#ffffff"><defs><path id="DejaVuSans-52" d="M 2841 2188 Q 3044 2119 3236 1894 Q 3428 1669 3622 1275 L 4263 0 L 3584 0 L 2988 1197 Q 2756 1666 2539 1819 Q 2322 1972 1947 1972 L 1259 1972 L 1259 0 L 628 0 L 628 4666 L 2053 4666 Q 2853 4666 3247 4331 Q 3641 3997 3641 3322 Q 3641 2881 3436 2590 Q 3231 2300 2841 2188 z M 1259 4147 L 1259 2491 L 2053 2491 Q 2509 2491 2742 2702 Q 2975 2913 2975 3322 Q 2975 3731 2742 3939 Q 2509 4147 2053 4147 L 1259 4147 z" transform="scale(0.015625)"/><path id="DejaVuSans-65" d="M 3597 1894 L 3597 1613 L 953 1613 Q 991 1019 1311 708 Q 1631 397 2203 397 Q 2534 397 2845 478 Q 3156 559 3463 722 L 3463 178 Q 3153 47 2828 -22 Q 2503 -91 2169 -91 Q 1331 -91 842 396 Q 353 884 353 1716 Q 353 2575 817 3079 Q 1281 3584 2069 3584 Q 2775 3584 3186 3129 Q 3597 2675 3597 1894 z M 3022 2063 Q 3016 2534 2758 2815 Q 2500 3097 2075 3097 Q 1594 3097 1305 2825 Q 1016 2553 972 2059 L 3022 2063 z" transform="scale(0.015625)"/><path id="DejaVuSans-67" d="M 2906 1791 Q 2906 2416 2648 2759 Q 2391 3103 1925 3103 Q 1463 3103 1205 2759 Q 947 2416 947 1791 Q 947 1169 1205 825 Q 1463 481 1925 481 Q 2391 481 2648 825 Q 2906 1169 2906 1791 z M 3481 434 Q 3481 -459 3084 -895 Q 2688 -1331 1869 -1331 Q 1566 -1331 1297 -1286 Q 1028 -1241 775 -1147 L 775 -588 Q 1028 -725 1275 -790 Q 1522 -856 1778 -856 Q 2344 -856 2625 -561 Q 2906 -266 2906 331 L 2906 616 Q 2728 306 2450 153 Q 2172 0 1784 0 Q 1141 0 747 490 Q 353 981 353 1791 Q 353 2603 747 3093 Q 1141 3584 1784 3584 Q 2172 3584 2450 3431 Q 2728 3278 2906 2969 L 2906 3500 L 3481 3500 L 3481 434 z" transform="scale(0.015625)"/><path id="DejaVuSans-69" d="M 603 3500 L 1178 3500 L 1178 0 L 603 0 L 603 3500 z M 603 4863 L 1178 4863 L 1178 4134 L 603 4134 L 603 4863 z" transform="scale(0.015625)"/><path id="DejaVuSans-6f" d="M 1959 3097 Q 1497 3097 1228 2736 Q 959 2375 959 1747 Q 959 1119 1226 758 Q 1494 397 1959 397 Q 2419 397 2687 759 Q 2956 1122 2956 1747 Q 2956 2369 2687 2733 Q 2419 3097 1959 3097 z M 1959 3584 Q 2709 3584 3137 3096 Q 3566 2609 3566 1747 Q 3566 888 3137 398 Q 2709 -91 1959 -91 Q 1206 -91 779 398 Q 353 888 353 1747 Q 353 2609 779 3096 Q 1206 3584 1959 3584 z" transform="scale(0.015625)"/><path id="DejaVuSans-6e" d="M 3513 2113 L 3513 0 L 2938 0 L 2938 2094 Q 2938 2591 2744 2837 Q 2550 3084 2163 3084 Q 1697 3084 1428 2787 Q 1159 2491 1159 1978 L 1159 0 L 581 0 L 581 3500 L 1159 3500 L 1159 2956 Q 1366 3272 1645 3428 Q 1925 3584 2291 3584 Q 2894 3584 3203 3211 Q 3513 2838 3513 2113 z" transform="scale(0.015625)"/><path id="DejaVuSans-20" transform="scale(0.015625)"/><path id="DejaVuSans-46" d="M 628 4666 L 3309 4666 L 3309 4134 L 1259 4134 L 1259 2759 L 3109 2759 L 3109 2228 L 1259 2228 L 1259 0 L 628 0 L 628 4666 z" transform="scale(0.015625)"/><path id="DejaVuSans-72" d="M 2631 2963 Q 2534 3019 2420 3045 Q 2306 3072 2169 3072 Q 1681 3072 1420 2755 Q 1159 2438 1159 1844 L 1159 0 L 581 0 L 581 3500 L 1159 3500 L 1159 2956 Q 1341 3275 1631 3429 Q 1922 3584 2338 3584 Q 2397 3584 2469 3576 Q 2541 3569 2628 3553 L 2631 2963 z" transform="scale(0.015625)"/><path id="DejaVuSans-71" d="M 947 1747 Q 947 1113 1208 752 Q 1469 391 1925 391 Q 2381 391 2643 752 Q 2906 1113 2906 1747 Q 2906 2381 2643 2742 Q 2381 3103 1925 3103 Q 1469 3103 1208 2742 Q 947 2381 947 1747 z M 2906 525 Q 2725 213 2448 61 Q 2172 -91 1784 -91 Q 1150 -91 751 415 Q 353 922 353 1747 Q 353 2572 751 3078 Q 1150 3584 1784 3584 Q 2172 3584 2448 3432 Q 2725 3281 2906 2969 L 2906 3500 L 3481 3500 L 3481 -1331 L 2906 -1331 L 2906 525 z" transform="scale(0.015625)"/><path id="DejaVuSans-75" d="M 544 1381 L 544 3500 L 1119 3500 L 1119 1403 Q 1119 906 1312 657 Q 1506 409 1894 409 Q 2359 409 2629 706 Q 2900 1003 2900 1516 L 2900 3500 L 3475 3500 L 3475 0 L 2900 0 L 2900 538 Q 2691 219 2414 64 Q 2138 -91 1772 -91 Q 1169 -91 856 284 Q 544 659 544 1381 z M 1991 3584 L 1991 3584 z" transform="scale(0.015625)"/><path id="DejaVuSans-63" d="M 3122 3366 L 3122 2828 Q 2878 2963 2633 3030 Q 2388 3097 2138 3097 Q 1578 3097 1268 2742 Q 959 2388 959 1747 Q 959 1106 1268 751 Q 1578 397 2138 397 Q 2388 397 2633 464 Q 2878 531 3122 666 L 3122 134 Q 2881 22 2623 -34 Q 2366 -91 2075 -91 Q 1284 -91 818 406 Q 353 903 353 1747 Q 353 2603 823 3093 Q 1294 3584 2113 3584 Q 2378 3584 2631 3529 Q 2884 3475 3122 3366 z" transform="scale(0.015625)"/><path id="DejaVuSans-79" d="M 2059 -325 Q 1816 -950 1584 -1140 Q 1353 -1331 966 -1331 L 506 -1331 L 506 -850 L 844 -850 Q 1081 -850 1212 -737 Q 1344 -625 1503 -206 L 1606 56 L 191 3500 L 800 3500 L 1894 763 L 2988 3500 L 3597 3500 L 2059 -325 z" transform="scale(0.015625)"/></defs><use xlink:href="#DejaVuSans-52"/><use xlink:href="#DejaVuSans-65" x="64.982"/><use xlink:href="#DejaVuSans-67" x="126.506"/><use xlink:href="#DejaVuSans-69" x="189.982"/><use xlink:href="#DejaVuSans-6f" x="217.766"/><use xlink:href="#DejaVuSans-6e" x="278.947"/><use xlink:href="#DejaVuSans-20" x="342.326"/><use xlink:href="#DejaVuSans-46" x="374.113"/><use xlink:href="#DejaVuSans-72" x="424.383"/><use xlink:href="#DejaVuSans-65" x="463.246"/><use xlink:href="#DejaVuSans-71" x="524.77"/><use xlink:href="#DejaVuSans-75" x="588.246"/><use xlink:href="#DejaVuSans-65" x="651.625"/><use xlink:href="#DejaVuSans-6e" x="713.148"/><use xlink:href="#DejaVuSans-63" x="776.527"/><use xlink:href="#DejaVuSans-79" x="831.508"/></g></g></g><g id="legend_1"><g id="patch_69"><path d="M 4.858 688.055456 L 45.276994 688.055456 Q 46.664994 688.055456 46.664994 686.667456 L 46.664994 4.858 Q 46.664994 3.47 45.276994 3.47 L 4.858 3.47 Q 3.47 3.47 3.47 4.858 L 3.47 686.667456 Q 3.47 688.055456 4.858 688.055456 z" opacity="0.8" stroke="#cccccc" stroke-linejoin="miter"/></g><g id="patch_70"><path d="M 6.246 11.519316 L 20.126 11.519316 L 20.126 6.661316 L 6.246 6.661316 z" fill="#ac5953"/></g><g id="text_2"><g transform="translate(25.678 11.519316) scale(0.0694 -0.0694)" fill="#ffffff"><defs><path id="DejaVuSans-53" d="M 3425 4513 L 3425 3897 Q 3066 4069 2747 4153 Q 2428 4238 2131 4238 Q 1616 4238 1336 4038 Q 1056 3838 1056 3469 Q 1056 3159 1242 3001 Q 1428 2844 1947 2747 L 2328 2669 Q 3034 2534 3370 2195 Q 3706 1856 3706 1288 Q 3706 609 3251 259 Q 2797 -91 1919 -91 Q 1588 -91 1214 -16 Q 841 59 441 206 L 441 856 Q 825 641 1194 531 Q 1563 422 1919 422 Q 2459 422 2753 634 Q 3047 847 3047 1241 Q 3047 1584 2836 1778 Q 2625 1972 2144 2069 L 1759 2144 Q 1053 2284 737 2584 Q 422 2884 422 3419 Q 422 4038 858 4394 Q 1294 4750 2059 4750 Q 2388 4750 2728 4690 Q 3069 4631 3425 4513 z" transform="scale(0.015625)"/><path id="DejaVuSans-55" d="M 556 4666 L 1191 4666 L 1191 1831 Q 1191 1081 1462 751 Q 1734 422 2344 422 Q 2950 422 3222 751 Q 3494 1081 3494 1831 L 3494 4666 L 4128 4666 L 4128 1753 Q 4128 841 3676 375 Q 3225 -91 2344 -91 Q 1459 -91 1007 375 Q 556 841 556 1753 L 556 4666 z" transform="scale(0.015625)"/></defs><use xlink:href="#DejaVuSans-53"/><use xlink:href="#DejaVuSans-55" x="63.477"/></g></g><g id="patch_71"><path d="M 6.246 21.705934 L 20.126 21.705934 L 20.126 16.847934 L 6.246 16.847934 z" fill="#a840bf"/></g><g id="text_3"><g transform="translate(25.678 21.705934) scale(0.0694 -0.0694)" fill="#ffffff"><defs><path id="DejaVuSans-42" d="M 1259 2228 L 1259 519 L 2272 519 Q 2781 519 3026 730 Q 3272 941 3272 1375 Q 3272 1813 3026 2020 Q 2781 2228 2272 2228 L 1259 2228 z M 1259 4147 L 1259 2741 L 2194 2741 Q 2656 2741 2882 2914 Q 3109 3088 3109 3444 Q 3109 3797 2882 3972 Q 2656 4147 2194 4147 L 1259 4147 z M 628 4666 L 2241 4666 Q 2963 4666 3353 4366 Q 3744 4066 3744 3513 Q 3744 3084 3544 2831 Q 3344 2578 2956 2516 Q 3422 2416 3680 2098 Q 3938 1781 3938 1306 Q 3938 681 3513 340 Q 3088 0 2303 0 L 628 0 L 628 4666 z" transform="scale(0.015625)"/></defs><use xlink:href="#DejaVuSans-53"/><use xlink:href="#DejaVuSans-42" x="63.477"/></g></g><g id="patch_72"><path d="M 6.246 31.892553 L 20.126 31.892553 L 20.126 27.034553 L 6.246 27.034553 z" fill="#651f93"/></g><g id="text_4"><g transform="translate(25.678 31.892553) scale(0.0694 -0.0694)" fill="#ffffff"><defs><path id="DejaVuSans-48" d="M 628 4666 L 1259 4666 L 1259 2753 L 3553 2753 L 3553 4666 L 4184 4666 L 4184 0 L 3553 0 L 3553 2222 L 1259 2222 L 1259 0 L 628 0 L 628 4666 z" transform="scale(0.015625)"/><path id="DejaVuSans-49" d="M 628 4666 L 1259 4666 L 1259 0 L 628 0 L 628 4666 z" transform="scale(0.015625)"/></defs><use xlink:href="#DejaVuSans-48"/><use xlink:href="#DejaVuSans-49" x="75.195"/></g></g><g id="patch_73"><path d="M 6.246 42.079172 L 20.126 42.079172 L 20.126 37.221172 L 6.246 37.221172 z" fill="#862d36"/></g><g id="text_5"><g transform="translate(25.678 42.079172) scale(0.0694 -0.0694)" fill="#ffffff"><use xlink:href="#DejaVuSans-53"/><use xlink:href="#DejaVuSans-49" x="63.477"/></g></g><g id="patch_74"><path d="M 6.246 52.265791 L 20.126 52.265791 L 20.126 47.407791 L 6.246 47.407791 z" fill="#1f937c"/></g><g id="text_6"><g transform="translate(25.678 52.265791) scale(0.0694 -0.0694)" fill="#ffffff"><defs><path id="DejaVuSans-43" d="M 4122 4306 L 4122 3641 Q 3803 3938 3442 4084 Q 3081 4231 2675 4231 Q 1875 4231 1450 3742 Q 1025 3253 1025 2328 Q 1025 1406 1450 917 Q 1875 428 2675 428 Q 3081 428 3442 575 Q 3803 722 4122 1019 L 4122 359 Q 3791 134 3420 21 Q 3050 -91 2638 -91 Q 1578 -91 968 557 Q 359 1206 359 2328 Q 359 3453 968 4101 Q 1578 4750 2638 4750 Q 3056 4750 3426 4639 Q 3797 4528 4122 4306 z" transform="scale(0.015625)"/></defs><use xlink:href="#DejaVuSans-43"/><use xlink:href="#DejaVuSans-43" x="69.824"/></g></g><g id="patch_75"><path d="M 6.246 62.452409 L 20.126 62.452409 L 20.126 57.594409 L 6.246 57.594409 z" fill="#2dbfd2"/></g><g id="text_7"><g transform="translate(25.678 62.452409) scale(0.0694 -0.0694)" fill="#ffffff"><defs><path id="DejaVuSans-57" d="M 213 4666 L 850 4666 L 1831 722 L 2809 4666 L 3519 4666 L 4500 722 L 5478 4666 L 6119 4666 L 4947 0 L 4153 0 L 3169 4050 L 2175 0 L 1381 0 L 213 4666 z" transform="scale(0.015625)"/></defs><use xlink:href="#DejaVuSans-55"/><use xlink:href="#DejaVuSans-57" x="73.193"/></g></g><g id="patch_76"><path d="M 6.246 72.639028 L 20.126 72.639028 L 20.126 67.781028 L 6.246 67.781028 z" fill="#1f9327"/></g><g id="text_8"><g transform="translate(25.678 72.639028) scale(0.0694 -0.0694)" fill="#ffffff"><defs><path id="DejaVuSans-4c" d="M 628 4666 L 1259 4666 L 1259 531 L 3531 531 L 3531 0 L 628 0 L 628 4666 z" transform="scale(0.015625)"/><path id="DejaVuSans-4d" d="M 628 4666 L 1569 4666 L 2759 1491 L 3956 4666 L 4897 4666 L 4897 0 L 4281 0 L 4281 4097 L 3078 897 L 2444 897 L 1241 4097 L 1241 0 L 628 0 L 628 4666 z" transform="scale(0.015625)"/></defs><use xlink:href="#DejaVuSans-4c"/><use xlink:href="#DejaVuSans-4d" x="55.713"/></g></g><g id="patch_77"><path d="M 6.246 82.825647 L 20.126 82.825647 L 20.126 77.967647 L 6.246 77.967647 z" fill="#5372ac"/></g><g id="text_9"><g transform="translate(25.678 82.825647) scale(0.0694 -0.0694)" fill="#ffffff"><defs><path id="DejaVuSans-56" d="M 1831 0 L 50 4666 L 709 4666 L 2188 738 L 3669 4666 L 4325 4666 L 2547 0 L 1831 0 z" transform="scale(0.015625)"/></defs><use xlink:href="#DejaVuSans-56"/><use xlink:href="#DejaVuSans-53" x="68.408"/></g></g><g id="patch_78"><path d="M 6.246 93.012266 L 20.126 93.012266 L 20.126 88.154266 L 6.246 88.154266 z" fill="#7f2dd2"/></g><g id="text_10"><g transform="translate(25.678 93.012266) scale(0.0694 -0.0694)" fill="#ffffff"><use xlink:href="#DejaVuSans-53"/><use xlink:href="#DejaVuSans-4c" x="63.477"/></g></g><g id="patch_79"><path d="M 6.246 103.198884 L 20.126 103.198884 L 20.126 98.340884 L 6.246 98.340884 z" fill="#6ce085"/></g><g id="text_11"><g transform="translate(25.678 103.198884) scale(0.0694 -0.0694)" fill="#ffffff"><defs><path id="DejaVuSans-47" d="M 3809 666 L 3809 1919 L 2778 1919 L 2778 2438 L 4434 2438 L 4434 434 Q 4069 175 3628 42 Q 3188 -91 2688 -91 Q 1594 -91 976 548 Q 359 1188 359 2328 Q 359 3472 976 4111 Q 1594 4750 2688 4750 Q 3144 4750 3555 4637 Q 3966 4525 4313 4306 L 4313 3634 Q 3963 3931 3569 4081 Q 3175 4231 2741 4231 Q 1884 4231 1454 3753 Q 1025 3275 1025 2328 Q 1025 1384 1454 906 Q 1884 428 2741 428 Q 3075 428 3337 486 Q 3600 544 3809 666 z" transform="scale(0.015625)"/></defs><use xlink:href="#DejaVuSans-47"/><use xlink:href="#DejaVuSans-57" x="77.49"/></g></g><g id="patch_80"><path d="M 6.246 113.385503 L 20.126 113.385503 L 20.126 108.527503 L 6.246 108.527503 z" fill="#79d2b5"/></g><g id="text_12"><g transform="translate(25.678 113.385503) scale(0.0694 -0.0694)" fill="#ffffff"><use xlink:href="#DejaVuSans-4c"/><use xlink:href="#DejaVuSans-43" x="55.713"/></g></g><g id="patch_81"><path d="M 6.246 123.572122 L 20.126 123.572122 L 20.126 118.714122 L 6.246 118.714122 z" fill="#6ce098"/></g><g id="text_13"><g transform="translate(25.678 123.572122) scale(0.0694 -0.0694)" fill="#ffffff"><use xlink:href="#DejaVuSans-4c"/><use xlink:href="#DejaVuSans-46" x="55.713"/></g></g><g id="patch_82"><path d="M 6.246 133.758741 L 20.126 133.758741 L 20.126 128.900741 L 6.246 128.900741 z" fill="#2dd235"/></g><g id="text_14"><g transform="translate(25.678 133.758741) scale(0.0694 -0.0694)" fill="#ffffff"><defs><path id="DejaVuSans-44" d="M 1259 4147 L 1259 519 L 2022 519 Q 2988 519 3436 956 Q 3884 1394 3884 2338 Q 3884 3275 3436 3711 Q 2988 4147 2022 4147 L 1259 4147 z M 628 4666 L 1925 4666 Q 3281 4666 3915 4102 Q 4550 3538 4550 2338 Q 4550 1131 3912 565 Q 3275 0 1925 0 L 628 0 L 628 4666 z" transform="scale(0.015625)"/></defs><use xlink:href="#DejaVuSans-44"/><use xlink:href="#DejaVuSans-53" x="77.002"/></g></g><g id="patch_83"><path d="M 6.246 143.945359 L 20.126 143.945359 L 20.126 139.087359 L 6.246 139.087359 z" fill="#87c5a1"/></g><g id="text_15"><g transform="translate(25.678 143.945359) scale(0.0694 -0.0694)" fill="#ffffff"><defs><path id="DejaVuSans-41" d="M 2188 4044 L 1331 1722 L 3047 1722 L 2188 4044 z M 1831 4666 L 2547 4666 L 4325 0 L 3669 0 L 3244 1197 L 1141 1197 L 716 0 L 50 0 L 1831 4666 z" transform="scale(0.015625)"/></defs><use xlink:href="#DejaVuSans-4d"/><use xlink:href="#DejaVuSans-41" x="86.279"/></g></g><g id="patch_84"><path d="M 6.246 154.131978 L 20.126 154.131978 L 20.126 149.273978 L 6.246 149.273978 z" fill="#d279a6"/></g><g id="text_16"><g transform="translate(25.678 154.131978) scale(0.0694 -0.0694)" fill="#ffffff"><use xlink:href="#DejaVuSans-43"/><use xlink:href="#DejaVuSans-4c" x="69.824"/></g></g><g id="patch_85"><path d="M 6.246 164.318597 L 20.126 164.318597 L 20.126 159.460597 L 6.246 159.460597 z" fill="#6ce0bd"/></g><g id="text_17"><g transform="translate(25.678 164.318597) scale(0.0694 -0.0694)" fill="#ffffff"><use xlink:href="#DejaVuSans-53"/><use xlink:href="#DejaVuSans-48" x="63.477"/></g></g><g id="patch_86"><path d="M 6.246 174.505216 L 20.126 174.505216 L 20.126 169.647216 L 6.246 169.647216 z" fill="#2d4f86"/></g><g id="text_18"><g transform="translate(25.678 174.505216) scale(0.0694 -0.0694)" fill="#ffffff"><defs><path id="DejaVuSans-54" d="M -19 4666 L 3928 4666 L 3928 4134 L 2272 4134 L 2272 0 L 1638 0 L 1638 4134 L -19 4134 L -19 4666 z" transform="scale(0.015625)"/><path id="DejaVuSans-45" d="M 628 4666 L 3578 4666 L 3578 4134 L 1259 4134 L 1259 2753 L 3481 2753 L 3481 2222 L 1259 2222 L 1259 531 L 3634 531 L 3634 0 L 628 0 L 628 4666 z" transform="scale(0.015625)"/></defs><use xlink:href="#DejaVuSans-47"/><use xlink:href="#DejaVuSans-41" x="77.49"/><use xlink:href="#DejaVuSans-54" x="138.148"/><use xlink:href="#DejaVuSans-45" x="199.232"/></g></g><g id="patch_87"><path d="M 6.246 184.691834 L 20.126 184.691834 L 20.126 179.833834 L 6.246 179.833834 z" fill="#6c75e0"/></g><g id="text_19"><g transform="translate(25.678 184.691834) scale(0.0694 -0.0694)" fill="#ffffff"><defs><path id="DejaVuSans-4f" d="M 2522 4238 Q 1834 4238 1429 3725 Q 1025 3213 1025 2328 Q 1025 1447 1429 934 Q 1834 422 2522 422 Q 3209 422 3611 934 Q 4013 1447 4013 2328 Q 4013 3213 3611 3725 Q 3209 4238 2522 4238 z M 2522 4750 Q 3503 4750 4090 4092 Q 4678 3434 4678 2328 Q 4678 1225 4090 567 Q 3503 -91 2522 -91 Q 1538 -91 948 565 Q 359 1222 359 2328 Q 359 3434 948 4092 Q 1538 4750 2522 4750 z" transform="scale(0.015625)"/></defs><use xlink:href="#DejaVuSans-4f"/><use xlink:href="#DejaVuSans-45" x="78.711"/></g></g><g id="patch_88"><path d="M 6.246 194.878453 L 20.126 194.878453 L 20.126 190.020453 L 6.246 190.020453 z" fill="#472d86"/></g><g id="text_20"><g transform="translate(25.678 194.878453) scale(0.0694 -0.0694)" fill="#ffffff"><use xlink:href="#DejaVuSans-48"/><use xlink:href="#DejaVuSans-52" x="75.195"/></g></g><g id="patch_89"><path d="M 6.246 205.065072 L 20.126 205.065072 L 20.126 200.207072 L 6.246 200.207072 z" fill="#40b0bf"/></g><g id="text_21"><g transform="translate(25.678 205.065072) scale(0.0694 -0.0694)" fill="#ffffff"><use xlink:href="#DejaVuSans-44"/><use xlink:href="#DejaVuSans-4d" x="77.002"/></g></g><g id="patch_90"><path d="M 6.246 215.251691 L 20.126 215.251691 L 20.126 210.393691 L 6.246 210.393691 z" fill="#79d2b2"/></g><g id="text_22"><g transform="translate(25.678 215.251691) scale(0.0694 -0.0694)" fill="#ffffff"><defs><path id="DejaVuSans-4e" d="M 628 4666 L 1478 4666 L 3547 763 L 3547 4666 L 4159 4666 L 4159 0 L 3309 0 L 1241 3903 L 1241 0 L 628 0 L 628 4666 z" transform="scale(0.015625)"/></defs><use xlink:href="#DejaVuSans-46"/><use xlink:href="#DejaVuSans-4e" x="57.52"/></g></g><g id="patch_91"><path d="M 6.246 225.438309 L 20.126 225.438309 L 20.126 220.580309 L 6.246 220.580309 z" fill="#931f3c"/></g><g id="text_23"><g transform="translate(25.678 225.438309) scale(0.0694 -0.0694)" fill="#ffffff"><use xlink:href="#DejaVuSans-43"/><use xlink:href="#DejaVuSans-41" x="69.824"/></g></g><g id="patch_92"><path d="M 6.246 235.624928 L 20.126 235.624928 L 20.126 230.766928 L 6.246 230.766928 z" fill="#2dd288"/></g><g id="text_24"><g transform="translate(25.678 235.624928) scale(0.0694 -0.0694)" fill="#ffffff"><use xlink:href="#DejaVuSans-53"/><use xlink:href="#DejaVuSans-53" x="63.477"/></g></g><g id="patch_93"><path d="M 6.246 245.811547 L 20.126 245.811547 L 20.126 240.953547 L 6.246 240.953547 z" fill="#d22dd2"/></g><g id="text_25"><g transform="translate(25.678 245.811547) scale(0.0694 -0.0694)" fill="#ffffff"><use xlink:href="#DejaVuSans-43"/><use xlink:href="#DejaVuSans-46" x="69.824"/></g></g><g id="patch_94"><path d="M 6.246 255.998166 L 20.126 255.998166 L 20.126 251.140166 L 6.246 251.140166 z" fill="#b9d279"/></g><g id="text_26"><g transform="translate(25.678 255.998166) scale(0.0694 -0.0694)" fill="#ffffff"><use xlink:href="#DejaVuSans-56"/><use xlink:href="#DejaVuSans-49" x="68.408"/></g></g><g id="patch_95"><path d="M 6.246 266.184784 L 20.126 266.184784 L 20.126 261.326784 L 6.246 261.326784 z" fill="#48783a"/></g><g id="text_27"><g transform="translate(25.678 266.184784) scale(0.0694 -0.0694)" fill="#ffffff"><use xlink:href="#DejaVuSans-4d"/><use xlink:href="#DejaVuSans-45" x="86.279"/></g></g><g id="patch_96"><path d="M 6.246 276.371403 L 20.126 276.371403 L 20.126 271.513403 L 6.246 271.513403 z" fill="#d279c3"/></g><g id="text_28"><g transform="translate(25.678 276.371403) scale(0.0694 -0.0694)" fill="#ffffff"><defs><path id="DejaVuSans-59" d="M -13 4666 L 666 4666 L 1959 2747 L 3244 4666 L 3922 4666 L 2272 2222 L 2272 0 L 1638 0 L 1638 2222 L -13 4666 z" transform="scale(0.015625)"/></defs><use xlink:href="#DejaVuSans-41"/><use xlink:href="#DejaVuSans-59" x="60.658"/></g></g><g id="patch_97"><path d="M 6.246 286.558022 L 20.126 286.558022 L 20.126 281.700022 L 6.246 281.700022 z" fill="#cae06c"/></g><g id="text_29"><g transform="translate(25.678 286.558022) scale(0.0694 -0.0694)" fill="#ffffff"><defs><path id="DejaVuSans-50" d="M 1259 4147 L 1259 2394 L 2053 2394 Q 2494 2394 2734 2622 Q 2975 2850 2975 3272 Q 2975 3691 2734 3919 Q 2494 4147 2053 4147 L 1259 4147 z M 628 4666 L 2053 4666 Q 2838 4666 3239 4311 Q 3641 3956 3641 3272 Q 3641 2581 3239 2228 Q 2838 1875 2053 1875 L 1259 1875 L 1259 0 L 628 0 L 628 4666 z" transform="scale(0.015625)"/></defs><use xlink:href="#DejaVuSans-46"/><use xlink:href="#DejaVuSans-50" x="57.52"/></g></g><g id="patch_98"><path d="M 6.246 296.744641 L 20.126 296.744641 L 20.126 291.886641 L 6.246 291.886641 z" fill="#c58799"/></g><g id="text_30"><g transform="translate(25.678 296.744641) scale(0.0694 -0.0694)" fill="#ffffff"><use xlink:href="#DejaVuSans-52"/><use xlink:href="#DejaVuSans-4d" x="69.482"/></g></g><g id="patch_99"><path d="M 6.246 306.931259 L 20.126 306.931259 L 20.126 302.073259 L 6.246 302.073259 z" fill="#72e06c"/></g><g id="text_31"><g transform="translate(25.678 306.931259) scale(0.0694 -0.0694)" fill="#ffffff"><use xlink:href="#DejaVuSans-55"/><use xlink:href="#DejaVuSans-47" x="73.193"/></g></g><g id="patch_100"><path d="M 6.246 317.117878 L 20.126 317.117878 L 20.126 312.259878 L 6.246 312.259878 z" fill="#d22f2d"/></g><g id="text_32"><g transform="translate(25.678 317.117878) scale(0.0694 -0.0694)" fill="#ffffff"><use xlink:href="#DejaVuSans-4f"/><use xlink:href="#DejaVuSans-53" x="78.711"/></g></g><g id="patch_101"><path d="M 6.246 327.304497 L 20.126 327.304497 L 20.126 322.446497 L 6.246 322.446497 z" fill="#3a7877"/></g><g id="text_33"><g transform="translate(25.678 327.304497) scale(0.0694 -0.0694)" fill="#ffffff"><use xlink:href="#DejaVuSans-4d"/><use xlink:href="#DejaVuSans-53" x="86.279"/></g></g><g id="patch_102"><path d="M 6.246 337.491116 L 20.126 337.491116 L 20.126 332.633116 L 6.246 332.633116 z" fill="#6b1f93"/></g><g id="text_34"><g transform="translate(25.678 337.491116) scale(0.0694 -0.0694)" fill="#ffffff"><use xlink:href="#DejaVuSans-50"/><use xlink:href="#DejaVuSans-41" x="53.928"/></g></g><g id="patch_103"><path d="M 6.246 347.677734 L 20.126 347.677734 L 20.126 342.819734 L 6.246 342.819734 z" fill="#9587c5"/></g><g id="text_35"><g transform="translate(25.678 347.677734) scale(0.0694 -0.0694)" fill="#ffffff"><defs><path id="DejaVuSans-4b" d="M 628 4666 L 1259 4666 L 1259 2694 L 3353 4666 L 4166 4666 L 1850 2491 L 4331 0 L 3500 0 L 1259 2247 L 1259 0 L 628 0 L 628 4666 z" transform="scale(0.015625)"/></defs><use xlink:href="#DejaVuSans-53"/><use xlink:href="#DejaVuSans-4b" x="63.477"/></g></g><g id="patch_104"><path d="M 6.246 357.864353 L 20.126 357.864353 L 20.126 353.006353 L 6.246 353.006353 z" fill="#1f3693"/></g><g id="text_36"><g transform="translate(25.678 357.864353) scale(0.0694 -0.0694)" fill="#ffffff"><use xlink:href="#DejaVuSans-49"/><use xlink:href="#DejaVuSans-57" x="29.492"/></g></g><g id="patch_105"><path d="M 6.246 368.050972 L 20.126 368.050972 L 20.126 363.192972 L 6.246 363.192972 z" fill="#1f4e93"/></g><g id="text_37"><g transform="translate(25.678 368.050972) scale(0.0694 -0.0694)" fill="#ffffff"><use xlink:href="#DejaVuSans-45"/><use xlink:href="#DejaVuSans-4c" x="63.184"/></g></g><g id="patch_106"><path d="M 6.246 378.237591 L 20.126 378.237591 L 20.126 373.379591 L 6.246 373.379591 z" fill="#40bf90"/></g><g id="text_38"><g transform="translate(25.678 378.237591) scale(0.0694 -0.0694)" fill="#ffffff"><use xlink:href="#DejaVuSans-54"/><use xlink:href="#DejaVuSans-59" x="61.084"/></g></g><g id="patch_107"><path d="M 6.246 388.424209 L 20.126 388.424209 L 20.126 383.566209 L 6.246 383.566209 z" fill="#85d279"/></g><g id="text_39"><g transform="translate(25.678 388.424209) scale(0.0694 -0.0694)" fill="#ffffff"><defs><path id="DejaVuSans-74" d="M 1172 4494 L 1172 3500 L 2356 3500 L 2356 3053 L 1172 3053 L 1172 1153 Q 1172 725 1289 603 Q 1406 481 1766 481 L 2356 481 L 2356 0 L 1766 0 Q 1100 0 847 248 Q 594 497 594 1153 L 594 3053 L 172 3053 L 172 3500 L 594 3500 L 594 4494 L 1172 4494 z" transform="scale(0.015625)"/></defs><use xlink:href="#DejaVuSans-74"/><use xlink:href="#DejaVuSans-72" x="39.209"/></g></g><g id="patch_108"><path d="M 6.246 398.610828 L 20.126 398.610828 L 20.126 393.752828 L 6.246 393.752828 z" fill="#bf4064"/></g><g id="text_40"><g transform="translate(25.678 398.610828) scale(0.0694 -0.0694)" fill="#ffffff"><defs><path id="DejaVuSans-58" d="M 403 4666 L 1081 4666 L 2241 2931 L 3406 4666 L 4084 4666 L 2584 2425 L 4184 0 L 3506 0 L 2194 1984 L 872 0 L 191 0 L 1856 2491 L 403 4666 z" transform="scale(0.015625)"/></defs><use xlink:href="#DejaVuSans-58"/><use xlink:href="#DejaVuSans-44" x="68.506"/></g></g><g id="patch_109"><path d="M 6.246 408.797447 L 20.126 408.797447 L 20.126 403.939447 L 6.246 403.939447 z" fill="#7e79d2"/></g><g id="text_41"><g transform="translate(25.678 408.797447) scale(0.0694 -0.0694)" fill="#ffffff"><use xlink:href="#DejaVuSans-57"/><use xlink:href="#DejaVuSans-52" x="98.877"/></g></g><g id="patch_110"><path d="M 6.246 418.984066 L 20.126 418.984066 L 20.126 414.126066 L 6.246 414.126066 z" fill="#d28179"/></g><g id="text_42"><g transform="translate(25.678 418.984066) scale(0.0694 -0.0694)" fill="#ffffff"><use xlink:href="#DejaVuSans-44"/><use xlink:href="#DejaVuSans-4e" x="77.002"/></g></g><g id="patch_111"><path d="M 6.246 429.170684 L 20.126 429.170684 L 20.126 424.312684 L 6.246 424.312684 z" fill="#90ac53"/></g><g id="text_43"><g transform="translate(25.678 429.170684) scale(0.0694 -0.0694)" fill="#ffffff"><use xlink:href="#DejaVuSans-4d"/><use xlink:href="#DejaVuSans-57" x="86.279"/></g></g><g id="patch_112"><path d="M 6.246 439.357303 L 20.126 439.357303 L 20.126 434.499303 L 6.246 434.499303 z" fill="#2d6d86"/></g><g id="text_44"><g transform="translate(25.678 439.357303) scale(0.0694 -0.0694)" fill="#ffffff"><use xlink:href="#DejaVuSans-54"/><use xlink:href="#DejaVuSans-53" x="61.084"/></g></g><g id="patch_113"><path d="M 6.246 449.543922 L 20.126 449.543922 L 20.126 444.685922 L 6.246 444.685922 z" fill="#c58f87"/></g><g id="text_45"><g transform="translate(25.678 449.543922) scale(0.0694 -0.0694)" fill="#ffffff"><use xlink:href="#DejaVuSans-42"/><use xlink:href="#DejaVuSans-4b" x="68.604"/></g></g><g id="patch_114"><path d="M 6.246 459.730541 L 20.126 459.730541 L 20.126 454.872541 L 6.246 454.872541 z" fill="#bf7140"/></g><g id="text_46"><g transform="translate(25.678 459.730541) scale(0.0694 -0.0694)" fill="#ffffff"><use xlink:href="#DejaVuSans-43"/><use xlink:href="#DejaVuSans-54" x="69.824"/></g></g><g id="patch_115"><path d="M 6.246 469.917159 L 20.126 469.917159 L 20.126 465.059159 L 6.246 465.059159 z" fill="#932d1f"/></g><g id="text_47"><g transform="translate(25.678 469.917159) scale(0.0694 -0.0694)" fill="#ffffff"><use xlink:href="#DejaVuSans-48"/><use xlink:href="#DejaVuSans-46" x="75.195"/></g></g><g id="patch_116"><path d="M 6.246 480.103778 L 20.126 480.103778 L 20.126 475.245778 L 6.246 475.245778 z" fill="#3a3c78"/></g><g id="text_48"><g transform="translate(25.678 480.103778) scale(0.0694 -0.0694)" fill="#ffffff"><defs><path id="DejaVuSans-51" d="M 2522 4238 Q 1834 4238 1429 3725 Q 1025 3213 1025 2328 Q 1025 1447 1429 934 Q 1834 422 2522 422 Q 3209 422 3611 934 Q 4013 1447 4013 2328 Q 4013 3213 3611 3725 Q 3209 4238 2522 4238 z M 3406 84 L 4238 -825 L 3475 -825 L 2784 -78 Q 2681 -84 2626 -87 Q 2572 -91 2522 -91 Q 1538 -91 948 567 Q 359 1225 359 2328 Q 359 3434 948 4092 Q 1538 4750 2522 4750 Q 3503 4750 4090 4092 Q 4678 3434 4678 2328 Q 4678 1516 4351 937 Q 4025 359 3406 84 z" transform="scale(0.015625)"/></defs><use xlink:href="#DejaVuSans-51"/><use xlink:href="#DejaVuSans-57" x="78.711"/></g></g><g id="patch_117"><path d="M 6.246 490.290397 L 20.126 490.290397 L 20.126 485.432397 L 6.246 485.432397 z" fill="#e0cc6c"/></g><g id="text_49"><g transform="translate(25.678 490.290397) scale(0.0694 -0.0694)" fill="#ffffff"><use xlink:href="#DejaVuSans-53"/><use xlink:href="#DejaVuSans-50" x="63.477"/></g></g><g id="patch_118"><path d="M 6.246 500.477016 L 20.126 500.477016 L 20.126 495.619016 L 6.246 495.619016 z" fill="#c56ce0"/></g><g id="text_50"><g transform="translate(25.678 500.477016) scale(0.0694 -0.0694)" fill="#ffffff"><use xlink:href="#DejaVuSans-55"/><use xlink:href="#DejaVuSans-59" x="73.193"/></g></g><g id="patch_119"><path d="M 6.246 510.663634 L 20.126 510.663634 L 20.126 505.805634 L 6.246 505.805634 z" fill="#bf4080"/></g><g id="text_51"><g transform="translate(25.678 510.663634) scale(0.0694 -0.0694)" fill="#ffffff"><use xlink:href="#DejaVuSans-57"/><use xlink:href="#DejaVuSans-4d" x="98.877"/></g></g><g id="patch_120"><path d="M 6.246 520.850253 L 20.126 520.850253 L 20.126 515.992253 L 6.246 515.992253 z" fill="#86762d"/></g><g id="text_52"><g transform="translate(25.678 520.850253) scale(0.0694 -0.0694)" fill="#ffffff"><use xlink:href="#DejaVuSans-49"/><use xlink:href="#DejaVuSans-4e" x="29.492"/></g></g><g id="patch_121"><path d="M 6.246 531.036872 L 20.126 531.036872 L 20.126 526.178872 L 6.246 526.178872 z" fill="#c5d22d"/></g><g id="text_53"><g transform="translate(25.678 531.036872) scale(0.0694 -0.0694)" fill="#ffffff"><use xlink:href="#DejaVuSans-42"/><use xlink:href="#DejaVuSans-57" x="64.979"/></g></g><g id="patch_122"><path d="M 6.246 541.223491 L 20.126 541.223491 L 20.126 536.365491 L 6.246 536.365491 z" fill="#abc587"/></g><g id="text_54"><g transform="translate(25.678 541.223491) scale(0.0694 -0.0694)" fill="#ffffff"><use xlink:href="#DejaVuSans-54"/><use xlink:href="#DejaVuSans-57" x="61.084"/></g></g><g id="patch_123"><path d="M 6.246 551.410109 L 20.126 551.410109 L 20.126 546.552109 L 6.246 546.552109 z" fill="#c587a2"/></g><g id="text_55"><g transform="translate(25.678 551.410109) scale(0.0694 -0.0694)" fill="#ffffff"><use xlink:href="#DejaVuSans-43"/><use xlink:href="#DejaVuSans-56" x="69.824"/></g></g><g id="patch_124"><path d="M 6.246 561.596728 L 20.126 561.596728 L 20.126 556.738728 L 6.246 556.738728 z" fill="#2d4186"/></g><g id="text_56"><g transform="translate(25.678 561.596728) scale(0.0694 -0.0694)" fill="#ffffff"><use xlink:href="#DejaVuSans-4d"/><use xlink:href="#DejaVuSans-4c" x="86.279"/></g></g><g id="patch_125"><path d="M 6.246 571.783347 L 20.126 571.783347 L 20.126 566.925347 L 6.246 566.925347 z" fill="#e06ca4"/></g><g id="text_57"><g transform="translate(25.678 571.783347) scale(0.0694 -0.0694)" fill="#ffffff"><use xlink:href="#DejaVuSans-52"/><use xlink:href="#DejaVuSans-50" x="69.482"/></g></g><g id="patch_126"><path d="M 6.246 581.969966 L 20.126 581.969966 L 20.126 577.111966 L 6.246 577.111966 z" fill="#c59487"/></g><g id="text_58"><g transform="translate(25.678 581.969966) scale(0.0694 -0.0694)" fill="#ffffff"><defs><path id="DejaVuSans-70" d="M 1159 525 L 1159 -1331 L 581 -1331 L 581 3500 L 1159 3500 L 1159 2969 Q 1341 3281 1617 3432 Q 1894 3584 2278 3584 Q 2916 3584 3314 3078 Q 3713 2572 3713 1747 Q 3713 922 3314 415 Q 2916 -91 2278 -91 Q 1894 -91 1617 61 Q 1341 213 1159 525 z M 3116 1747 Q 3116 2381 2855 2742 Q 2594 3103 2138 3103 Q 1681 3103 1420 2742 Q 1159 2381 1159 1747 Q 1159 1113 1420 752 Q 1681 391 2138 391 Q 2594 391 2855 752 Q 3116 1113 3116 1747 z" transform="scale(0.015625)"/><path id="DejaVuSans-73" d="M 2834 3397 L 2834 2853 Q 2591 2978 2328 3040 Q 2066 3103 1784 3103 Q 1356 3103 1142 2972 Q 928 2841 928 2578 Q 928 2378 1081 2264 Q 1234 2150 1697 2047 L 1894 2003 Q 2506 1872 2764 1633 Q 3022 1394 3022 966 Q 3022 478 2636 193 Q 2250 -91 1575 -91 Q 1294 -91 989 -36 Q 684 19 347 128 L 347 722 Q 666 556 975 473 Q 1284 391 1588 391 Q 1994 391 2212 530 Q 2431 669 2431 922 Q 2431 1156 2273 1281 Q 2116 1406 1581 1522 L 1381 1569 Q 847 1681 609 1914 Q 372 2147 372 2553 Q 372 3047 722 3315 Q 1072 3584 1716 3584 Q 2034 3584 2315 3537 Q 2597 3491 2834 3397 z" transform="scale(0.015625)"/></defs><use xlink:href="#DejaVuSans-70"/><use xlink:href="#DejaVuSans-73" x="63.477"/></g></g><g id="patch_127"><path d="M 6.246 592.156584 L 20.126 592.156584 L 20.126 587.298584 L 6.246 587.298584 z" fill="#87c59d"/></g><g id="text_59"><g transform="translate(25.678 592.156584) scale(0.0694 -0.0694)" fill="#ffffff"><use xlink:href="#DejaVuSans-4c"/><use xlink:href="#DejaVuSans-4b" x="55.713"/></g></g><g id="patch_128"><path d="M 6.246 602.343203 L 20.126 602.343203 L 20.126 597.485203 L 6.246 597.485203 z" fill="#1f9376"/></g><g id="text_60"><g transform="translate(25.678 602.343203) scale(0.0694 -0.0694)" fill="#ffffff"><use xlink:href="#DejaVuSans-54"/><use xlink:href="#DejaVuSans-4f" x="61.084"/></g></g><g id="patch_129"><path d="M 6.246 612.529822 L 20.126 612.529822 L 20.126 607.671822 L 6.246 607.671822 z" fill="#40bf77"/></g><g id="text_61"><g transform="translate(25.678 612.529822) scale(0.0694 -0.0694)" fill="#ffffff"><use xlink:href="#DejaVuSans-54"/><use xlink:href="#DejaVuSans-54" x="59.334"/></g></g><g id="patch_130"><path d="M 6.246 622.716441 L 20.126 622.716441 L 20.126 617.858441 L 6.246 617.858441 z" fill="#538bac"/></g><g id="text_62"><g transform="translate(25.678 622.716441) scale(0.0694 -0.0694)" fill="#ffffff"><use xlink:href="#DejaVuSans-46"/><use xlink:href="#DejaVuSans-43" x="57.52"/></g></g><g id="patch_131"><path d="M 6.246 632.903059 L 20.126 632.903059 L 20.126 628.045059 L 6.246 628.045059 z" fill="#c587b2"/></g><g id="text_63"><g transform="translate(25.678 632.903059) scale(0.0694 -0.0694)" fill="#ffffff"><use xlink:href="#DejaVuSans-43"/><use xlink:href="#DejaVuSans-48" x="69.824"/></g></g><g id="patch_132"><path d="M 6.246 643.089678 L 20.126 643.089678 L 20.126 638.231678 L 6.246 638.231678 z" fill="#3a7877"/></g><g id="text_64"><g transform="translate(25.678 643.089678) scale(0.0694 -0.0694)" fill="#ffffff"><use xlink:href="#DejaVuSans-54"/><use xlink:href="#DejaVuSans-43" x="55.209"/></g></g><g id="patch_133"><path d="M 6.246 653.276297 L 20.126 653.276297 L 20.126 648.418297 L 6.246 648.418297 z" fill="#8840bf"/></g><g id="text_65"><g transform="translate(25.678 653.276297) scale(0.0694 -0.0694)" fill="#ffffff"><use xlink:href="#DejaVuSans-53"/><use xlink:href="#DejaVuSans-44" x="63.477"/></g></g><g id="patch_134"><path d="M 6.246 663.462916 L 20.126 663.462916 L 20.126 658.604916 L 6.246 658.604916 z" fill="#c1d279"/></g><g id="text_66"><g transform="translate(25.678 663.462916) scale(0.0694 -0.0694)" fill="#ffffff"><use xlink:href="#DejaVuSans-48"/><use xlink:href="#DejaVuSans-43" x="75.195"/></g></g><g id="patch_135"><path d="M 6.246 673.649534 L 20.126 673.649534 L 20.126 668.791534 L 6.246 668.791534 z" fill="#56ac53"/></g><g id="text_67"><g transform="translate(25.678 673.649534) scale(0.0694 -0.0694)" fill="#ffffff"><use xlink:href="#DejaVuSans-44"/><use xlink:href="#DejaVuSans-4d" x="77.002"/><use xlink:href="#DejaVuSans-44" x="163.281"/></g></g><g id="patch_136"><path d="M 6.246 683.836153 L 20.126 683.836153 L 20.126 678.978153 L 6.246 678.978153 z" fill="#a12dd2"/></g><g id="text_68"><g transform="translate(25.678 683.836153) scale(0.0694 -0.0694)" fill="#ffffff"><use xlink:href="#DejaVuSans-53"/><use xlink:href="#DejaVuSans-43" x="63.477"/></g></g></g></g></svg>