<svg xmlns:xlink="http://www.w3.org/1999/xlink" width="751.68" height="655.68" viewBox="0 0 563.76 491.76" xmlns="http://www.w3.org/2000/svg" version="1.1"><metadata><rdf:RDF xmlns:dc="http://purl.org/dc/elements/1.1/" xmlns:cc="http://creativecommons.org/ns#" xmlns:rdf="http://www.w3.org/1999/02/22-rdf-syntax-ns#"><cc:Work><dc:type rdf:resource="http://purl.org/dc/dcmitype/StillImage"/><dc:format>image/svg+xml</dc:format><dc:creator><cc:Agent><dc:title>Matplotlib v3.7.1, https://matplotlib.org/</dc:title></cc:Agent></dc:creator></cc:Work></rdf:RDF></metadata><defs><style type="text/css">*{stroke-linejoin:round;stroke-linecap:butt}</style></defs><g id="figure_1"><g id="patch_1"><path d="M 0 491.76 L 563.76 491.76 L 563.76 0 L 0 0 z"/></g><g id="axes_1"><g id="patch_2"><path d="M 547.67472 248.3388 C 547.67472 212.411634 540.19198 176.875148 525.704322 143.998576 C 511.216664 111.122003 490.039171 81.620359 463.524163 57.377512 L 288.927 248.3388 z" fill="#ac5953"/></g><g id="patch_3"><path d="M 463.524163 57.377512 C 455.323513 49.879604 446.648387 42.91773 437.552681 36.535142 C 428.456976 30.152555 418.959567 24.362499 409.119462 19.200949 L 288.927 248.3388 z" fill="#a840bf"/></g><g id="patch_4"><path d="M 409.119462 19.200949 C 380.656783 4.271074 349.659874 -5.225641 317.718763 -8.80205 C 285.777653 -12.37846 253.447997 -9.972346 222.388192 -1.707135 L 288.927 248.3388 z" fill="#651f93"/></g><g id="patch_5"><path d="M 222.388192 -1.707135 C 198.519311 4.644526 175.682405 14.381301 154.573552 27.20641 C 133.4647 40.03152 114.300571 55.813321 97.665297 74.070778 L 288.927 248.3388 z" fill="#862d36"/></g><g id="patch_6"><path d="M 97.665297 74.070778 C 74.249542 99.769911 56.251841 129.926824 44.749711 162.736031 C 33.247581 195.545238 28.475238 230.338648 30.718402 265.033191 L 288.927 248.3388 z" fill="#1f937c"/></g><g id="patch_7"><path d="M 30.718402 265.033191 C 32.666866 295.169661 39.876377 324.733652 52.019868 352.38395 C 64.163358 380.034249 81.054373 405.346305 101.926627 427.171804 L 288.927 248.3388 z" fill="#2dbfd2"/></g><g id="patch_8"><path d="M 101.926627 427.171804 C 107.080971 432.561548 112.465921 437.725935 118.066393 442.650497 C 123.666865 447.575059 129.477624 452.255194 135.482392 456.67779 L 288.927 248.3388 z" fill="#1f9327"/></g><g id="patch_9"><path d="M 135.482392 456.67779 C 140.601243 460.447896 145.857302 464.028068 151.239867 467.411016 C 156.622431 470.793964 162.127846 473.97739 167.7449 476.954812 L 288.927 248.3388 z" fill="#5372ac"/></g><g id="patch_10"><path d="M 167.7449 476.954812 C 174.371344 480.46728 181.147369 483.689986 188.053779 486.613801 C 194.960189 489.537615 201.990455 492.159773 209.12466 494.472847 L 288.927 248.3388 z" fill="#7f2dd2"/></g><g id="patch_11"><path d="M 209.12466 494.472847 C 227.818271 500.533747 247.141656 504.445327 266.720757 506.131867 C 286.299857 507.818407 306.007516 507.268953 325.462233 504.494142 L 288.927 248.3388 z" fill="#6ce085"/></g><g id="patch_12"><path d="M 325.462233 504.494142 C 337.659142 502.754507 349.716241 500.145952 361.541477 496.688393 C 373.366713 493.230834 384.929915 488.933093 396.142799 483.827983 L 288.927 248.3388 z" fill="#79d2b5"/></g><g id="patch_13"><path d="M 396.142799 483.827983 C 407.163687 478.810286 417.818751 473.025107 428.029397 466.515118 C 438.240044 460.005129 447.981106 452.786376 457.180732 444.912105 L 288.927 248.3388 z" fill="#6ce098"/></g><g id="patch_14"><path d="M 457.180732 444.912105 C 460.672001 441.92381 464.08304 438.843034 467.410218 435.673056 C 470.737396 432.503078 473.979533 429.245023 477.133177 425.902359 L 288.927 248.3388 z" fill="#2dd235"/></g><g id="patch_15"><path d="M 477.133177 425.902359 C 477.175107 425.857916 477.217022 425.813457 477.258921 425.768984 C 477.30082 425.724511 477.342703 425.680022 477.38457 425.63552 L 288.927 248.3388 z" fill="#87c5a1"/></g><g id="patch_16"><path d="M 477.38457 425.63552 C 478.380732 424.576649 479.367952 423.509402 480.346125 422.433892 C 481.324299 421.358382 482.29339 420.274647 483.253296 419.182802 L 288.927 248.3388 z" fill="#d279a6"/></g><g id="patch_17"><path d="M 483.253296 419.182802 C 491.094187 410.264191 498.311804 400.816364 504.854946 390.906345 C 511.398087 380.996325 517.251243 370.647605 522.37289 359.933599 L 288.927 248.3388 z" fill="#6ce0bd"/></g><g id="patch_18"><path d="M 522.37289 359.933599 C 522.694571 359.260672 523.013341 358.586358 523.32919 357.910675 C 523.64504 357.234992 523.957967 356.557946 524.267962 355.879556 L 288.927 248.3388 z" fill="#2d4f86"/></g><g id="patch_19"><path d="M 524.267962 355.879556 C 526.211238 351.626913 528.038888 347.322378 529.748899 342.970694 C 531.458911 338.619009 533.050654 334.221774 534.522377 329.783832 L 288.927 248.3388 z" fill="#6c75e0"/></g><g id="patch_20"><path d="M 534.522377 329.783832 C 534.944835 328.509921 535.357375 327.232741 535.75996 325.95241 C 536.162544 324.672079 536.555161 323.388635 536.937774 322.102195 L 288.927 248.3388 z" fill="#472d86"/></g><g id="patch_21"><path d="M 536.937774 322.102195 C 538.065236 318.311391 539.105636 314.495235 540.058156 310.656736 C 541.010675 306.818238 541.875063 302.958405 542.650639 299.08028 L 288.927 248.3388 z" fill="#40b0bf"/></g><g id="patch_22"><path d="M 542.650639 299.08028 C 542.656836 299.04929 542.663028 299.018298 542.669215 298.987305 C 542.675401 298.956312 542.681582 298.925318 542.687757 298.894323 L 288.927 248.3388 z" fill="#79d2b2"/></g><g id="patch_23"><path d="M 542.687757 298.894323 C 542.706693 298.799272 542.725577 298.704209 542.744407 298.609136 C 542.763236 298.514064 542.782013 298.41898 542.800736 298.323886 L 288.927 248.3388 z" fill="#931f3c"/></g><g id="patch_24"><path d="M 542.800736 298.323886 C 543.38442 295.359358 543.916134 292.384834 544.395633 289.401682 C 544.875131 286.418531 545.302341 283.427209 545.677065 280.429094 L 288.927 248.3388 z" fill="#2dd288"/></g><g id="patch_25"><path d="M 545.677065 280.429094 C 545.717045 280.109219 545.756427 279.78927 545.795211 279.469249 C 545.833995 279.149227 545.872181 278.829133 545.909769 278.508969 L 288.927 248.3388 z" fill="#d22dd2"/></g><g id="patch_26"><path d="M 545.909769 278.508969 C 545.926966 278.362488 545.944038 278.215993 545.960984 278.069483 C 545.977931 277.922974 545.994752 277.77645 546.011448 277.629911 L 288.927 248.3388 z" fill="#b9d279"/></g><g id="patch_27"><path d="M 546.011448 277.629911 C 546.024089 277.518961 546.036659 277.408002 546.049156 277.297035 C 546.061654 277.186069 546.074079 277.075094 546.086433 276.964111 L 288.927 248.3388 z" fill="#48783a"/></g><g id="patch_28"><path d="M 546.086433 276.964111 C 546.092028 276.913855 546.097607 276.863597 546.103172 276.813337 C 546.108737 276.763077 546.114287 276.712816 546.119822 276.662553 L 288.927 248.3388 z" fill="#d279c3"/></g><g id="patch_29"><path d="M 546.119822 276.662553 C 546.120052 276.660459 546.120283 276.658365 546.120514 276.65627 C 546.120744 276.654176 546.120975 276.652082 546.121205 276.649987 L 288.927 248.3388 z" fill="#cae06c"/></g><g id="patch_30"><path d="M 546.121205 276.649987 C 546.29941 275.031082 546.462325 273.410531 546.609929 271.788549 C 546.757533 270.166568 546.88982 268.543229 547.006771 266.918749 L 288.927 248.3388 z" fill="#c58799"/></g><g id="patch_31"><path d="M 547.006771 266.918749 C 547.065019 266.109667 547.119462 265.300314 547.170099 264.490719 C 547.220735 263.681124 547.267564 262.871296 547.310584 262.06126 L 288.927 248.3388 z" fill="#72e06c"/></g><g id="patch_32"><path d="M 547.310584 262.06126 C 547.323323 261.821406 547.335727 261.581534 547.347798 261.341646 C 547.359868 261.101757 547.371604 260.861851 547.383007 260.62193 L 288.927 248.3388 z" fill="#d22f2d"/></g><g id="patch_33"><path d="M 547.383007 260.62193 C 547.44782 259.258159 547.501838 257.893896 547.545056 256.52927 C 547.588274 255.164644 547.62069 253.799697 547.642302 252.434558 L 288.927 248.3388 z" fill="#3a7877"/></g><g id="patch_34"><path d="M 547.642302 252.434558 C 547.650873 251.89314 547.657745 251.351696 547.662917 250.810234 C 547.668089 250.268772 547.671561 249.727296 547.673334 249.185812 L 288.927 248.3388 z" fill="#6b1f93"/></g><g id="patch_35"><path d="M 547.673334 249.185812 C 547.673347 249.181598 547.673361 249.177384 547.673375 249.173171 C 547.673388 249.168957 547.673402 249.164743 547.673415 249.160529 L 288.927 248.3388 z" fill="#9587c5"/></g><g id="patch_36"><path d="M 547.673415 249.160529 C 547.673422 249.158422 547.673429 249.156315 547.673435 249.154208 C 547.673442 249.152101 547.673448 249.149994 547.673455 249.147887 L 288.927 248.3388 z" fill="#1f3693"/></g><g id="patch_37"><path d="M 547.673455 249.147887 C 547.673646 249.086786 547.673815 249.025685 547.673963 248.964583 C 547.674111 248.903482 547.674237 248.842381 547.674342 248.781279 L 288.927 248.3388 z" fill="#1f4e93"/></g><g id="patch_38"><path d="M 547.674342 248.781279 C 547.674349 248.777065 547.674356 248.772851 547.674363 248.768638 C 547.67437 248.764424 547.674377 248.76021 547.674384 248.755996 L 288.927 248.3388 z" fill="#40bf90"/></g><g id="patch_39"><path d="M 547.674384 248.755996 C 547.674428 248.728606 547.674468 248.701215 547.674503 248.673825 C 547.674539 248.646435 547.67457 248.619044 547.674596 248.591654 L 288.927 248.3388 z" fill="#85d279"/></g><g id="patch_40"><path d="M 547.674596 248.591654 C 547.674615 248.572691 547.674631 248.553729 547.674646 248.534766 C 547.67466 248.515804 547.674672 248.496841 547.674683 248.477879 L 288.927 248.3388 z" fill="#bf4064"/></g><g id="patch_41"><path d="M 547.674683 248.477879 C 547.674689 248.465237 547.674695 248.452595 547.6747 248.439954 C 547.674705 248.427312 547.674709 248.41467 547.674712 248.402029 L 288.927 248.3388 z" fill="#7e79d2"/></g><g id="patch_42"><path d="M 547.674712 248.402029 C 547.674715 248.391494 547.674717 248.380959 547.674718 248.370424 C 547.674719 248.35989 547.67472 248.349355 547.67472 248.33882 L 288.927 248.3388 z" fill="#d28179"/></g><g id="text_1"><g transform="translate(235.483875 22.718784) scale(0.12 -0.12)" fill="#ffffff"><defs><path id="DejaVuSans-52" d="M 2841 2188 Q 3044 2119 3236 1894 Q 3428 1669 3622 1275 L 4263 0 L 3584 0 L 2988 1197 Q 2756 1666 2539 1819 Q 2322 1972 1947 1972 L 1259 1972 L 1259 0 L 628 0 L 628 4666 L 2053 4666 Q 2853 4666 3247 4331 Q 3641 3997 3641 3322 Q 3641 2881 3436 2590 Q 3231 2300 2841 2188 z M 1259 4147 L 1259 2491 L 2053 2491 Q 2509 2491 2742 2702 Q 2975 2913 2975 3322 Q 2975 3731 2742 3939 Q 2509 4147 2053 4147 L 1259 4147 z" transform="scale(0.015625)"/><path id="DejaVuSans-65" d="M 3597 1894 L 3597 1613 L 953 1613 Q 991 1019 1311 708 Q 1631 397 2203 397 Q 2534 397 2845 478 Q 3156 559 3463 722 L 3463 178 Q 3153 47 2828 -22 Q 2503 -91 2169 -91 Q 1331 -91 842 396 Q 353 884 353 1716 Q 353 2575 817 3079 Q 1281 3584 2069 3584 Q 2775 3584 3186 3129 Q 3597 2675 3597 1894 z M 3022 2063 Q 3016 2534 2758 2815 Q 2500 3097 2075 3097 Q 1594 3097 1305 2825 Q 1016 2553 972 2059 L 3022 2063 z" transform="scale(0.015625)"/><path id="DejaVuSans-67" d="M 2906 1791 Q 2906 2416 2648 2759 Q 2391 3103 1925 3103 Q 1463 3103 1205 2759 Q 947 2416 947 1791 Q 947 1169 1205 825 Q 1463 481 1925 481 Q 2391 481 2648 825 Q 2906 1169 2906 1791 z M 3481 434 Q 3481 -459 3084 -895 Q 2688 -1331 1869 -1331 Q 1566 -1331 1297 -1286 Q 1028 -1241 775 -1147 L 775 -588 Q 1028 -725 1275 -790 Q 1522 -856 1778 -856 Q 2344 -856 2625 -561 Q 2906 -266 2906 331 L 2906 616 Q 2728 306 2450 153 Q 2172 0 1784 0 Q 1141 0 747 490 Q 353 981 353 1791 Q 353 2603 747 3093 Q 1141 3584 1784 3584 Q 2172 3584 2450 3431 Q 2728 3278 2906 2969 L 2906 3500 L 3481 3500 L 3481 434 z" transform="scale(0.015625)"/><path id="DejaVuSans-69" d="M 603 3500 L 1178 3500 L 1178 0 L 603 0 L 603 3500 z M 603 4863 L 1178 4863 L 1178 4134 L 603 4134 L 603 4863 z" transform="scale(0.015625)"/><path id="DejaVuSans-6f" d="M 1959 3097 Q 1497 3097 1228 2736 Q 959 2375 959 1747 Q 959 1119 1226 758 Q 1494 397 1959 397 Q 2419 397 2687 759 Q 2956 1122 2956 1747 Q 2956 2369 2687 2733 Q 2419 3097 1959 3097 z M 1959 3584 Q 2709 3584 3137 3096 Q 3566 2609 3566 1747 Q 3566 888 3137 398 Q 2709 -91 1959 -91 Q 1206 -91 779 398 Q 353 888 353 1747 Q 353 2609 779 3096 Q 1206 3584 1959 3584 z" transform="scale(0.015625)"/><path id="DejaVuSans-6e" d="M 3513 2113 L 3513 0 L 2938 0 L 2938 2094 Q 2938 2591 2744 2837 Q 2550 3084 2163 3084 Q 1697 3084 1428 2787 Q 1159 2491 1159 1978 L 1159 0 L 581 0 L 581 3500 L 1159 3500 L 1159 2956 Q 1366 3272 1645 3428 Q 1925 3584 2291 3584 Q 2894 3584 3203 3211 Q 3513 2838 3513 2113 z" transform="scale(0.015625)"/><path id="DejaVuSans-20" transform="scale(0.015625)"/><path id="DejaVuSans-46" d="M 628 4666 L 3309 4666 L 3309 4134 L 1259 4134 L 1259 2759 L 3109 2759 L 3109 2228 L 1259 2228 L 1259 0 L 628 0 L 628 4666 z" transform="scale(0.015625)"/><path id="DejaVuSans-72" d="M 2631 2963 Q 2534 3019 2420 3045 Q 2306 3072 2169 3072 Q 1681 3072 1420 2755 Q 1159 2438 1159 1844 L 1159 0 L 581 0 L 581 3500 L 1159 3500 L 1159 2956 Q 1341 3275 1631 3429 Q 1922 3584 2338 3584 Q 2397 3584 2469 3576 Q 2541 3569 2628 3553 L 2631 2963 z" transform="scale(0.015625)"/><path id="DejaVuSans-71" d="M 947 1747 Q 947 1113 1208 752 Q 1469 391 1925 391 Q 2381 391 2643 752 Q 2906 1113 2906 1747 Q 2906 2381 2643 2742 Q 2381 3103 1925 3103 Q 1469 3103 1208 2742 Q 947 2381 947 1747 z M 2906 525 Q 2725 213 2448 61 Q 2172 -91 1784 -91 Q 1150 -91 751 415 Q 353 922 353 1747 Q 353 2572 751 3078 Q 1150 3584 1784 3584 Q 2172 3584 2448 3432 Q 2725 3281 2906 2969 L 2906 3500 L 3481 3500 L 3481 -1331 L 2906 -1331 L 2906 525 z" transform="scale(0.015625)"/><path id="DejaVuSans-75" d="M 544 1381 L 544 3500 L 1119 3500 L 1119 1403 Q 1119 906 1312 657 Q 1506 409 1894 409 Q 2359 409 2629 706 Q 2900 1003 2900 1516 L 2900 3500 L 3475 3500 L 3475 0 L 2900 0 L 2900 538 Q 2691 219 2414 64 Q 2138 -91 1772 -91 Q 1169 -91 856 284 Q 544 659 544 1381 z M 1991 3584 L 1991 3584 z" transform="scale(0.015625)"/><path id="DejaVuSans-63" d="M 3122 3366 L 3122 2828 Q 2878 2963 2633 3030 Q 2388 3097 2138 3097 Q 1578 3097 1268 2742 Q 959 2388 959 1747 Q 959 1106 1268 751 Q 1578 397 2138 397 Q 2388 397 2633 464 Q 2878 531 3122 666 L 3122 134 Q 2881 22 2623 -34 Q 2366 -91 2075 -91 Q 1284 -91 818 406 Q 353 903 353 1747 Q 353 2603 823 3093 Q 1294 3584 2113 3584 Q 2378 3584 2631 3529 Q 2884 3475 3122 3366 z" transform="scale(0.015625)"/><path id="DejaVuSans-79" d="M 2059 -325 Q 1816 -950 1584 -1140 Q 1353 -1331 966 -1331 L 506 -1331 L 506 -850 L 844 -850 Q 1081 -850 1212 -737 Q 1344 -625 1503 -206 L 1606 56 L 191 3500 L 800 3500 L 1894 763 L 2988 3500 L 3597 3500 L 2059 -325 z" transform="scale(0.015625)"/></defs><use xlink:href="#DejaVuSans-52"/><use xlink:href="#DejaVuSans-65" x="64.982"/><use xlink:href="#DejaVuSans-67" x="126.506"/><use xlink:href="#DejaVuSans-69" x="189.982"/><use xlink:href="#DejaVuSans-6f" x="217.766"/><use xlink:href="#DejaVuSans-6e" x="278.947"/><use xlink:href="#DejaVuSans-20" x="342.326"/><use xlink:href="#DejaVuSans-46" x="374.113"/><use xlink:href="#DejaVuSans-72" x="424.383"/><use xlink:href="#DejaVuSans-65" x="463.246"/><use xlink:href="#DejaVuSans-71" x="524.77"/><use xlink:href="#DejaVuSans-75" x="588.246"/><use xlink:href="#DejaVuSans-65" x="651.625"/><use xlink:href="#DejaVuSans-6e" x="713.148"/><use xlink:href="#DejaVuSans-63" x="776.527"/><use xlink:href="#DejaVuSans-79" x="831.508"/></g></g></g><g id="legend_1"><g id="patch_43"><path d="M 4.858 423.203369 L 45.276994 423.203369 Q 46.664994 423.203369 46.664994 421.815369 L 46.664994 4.858 Q 46.664994 3.47 45.276994 3.47 L 4.858 3.47 Q 3.47 3.47 3.47 4.858 L 3.47 421.815369 Q 3.47 423.203369 4.858 423.203369 z" opacity="0.8" stroke="#cccccc" stroke-linejoin="miter"/></g><g id="patch_44"><path d="M 6.246 11.519316 L 20.126 11.519316 L 20.126 6.661316 L 6.246 6.661316 z" fill="#ac5953"/></g><g id="text_2"><g transform="translate(25.678 11.519316) scale(0.0694 -0.0694)" fill="#ffffff"><defs><path id="DejaVuSans-53" d="M 3425 4513 L 3425 3897 Q 3066 4069 2747 4153 Q 2428 4238 2131 4238 Q 1616 4238 1336 4038 Q 1056 3838 1056 3469 Q 1056 3159 1242 3001 Q 1428 2844 1947 2747 L 2328 2669 Q 3034 2534 3370 2195 Q 3706 1856 3706 1288 Q 3706 609 3251 259 Q 2797 -91 1919 -91 Q 1588 -91 1214 -16 Q 841 59 441 206 L 441 856 Q 825 641 1194 531 Q 1563 422 1919 422 Q 2459 422 2753 634 Q 3047 847 3047 1241 Q 3047 1584 2836 1778 Q 2625 1972 2144 2069 L 1759 2144 Q 1053 2284 737 2584 Q 422 2884 422 3419 Q 422 4038 858 4394 Q 1294 4750 2059 4750 Q 2388 4750 2728 4690 Q 3069 4631 3425 4513 z" transform="scale(0.015625)"/><path id="DejaVuSans-55" d="M 556 4666 L 1191 4666 L 1191 1831 Q 1191 1081 1462 751 Q 1734 422 2344 422 Q 2950 422 3222 751 Q 3494 1081 3494 1831 L 3494 4666 L 4128 4666 L 4128 1753 Q 4128 841 3676 375 Q 3225 -91 2344 -91 Q 1459 -91 1007 375 Q 556 841 556 1753 L 556 4666 z" transform="scale(0.015625)"/></defs><use xlink:href="#DejaVuSans-53"/><use xlink:href="#DejaVuSans-55" x="63.477"/></g></g><g id="patch_45"><path d="M 6.246 21.705934 L 20.126 21.705934 L 20.126 16.847934 L 6.246 16.847934 z" fill="#a840bf"/></g><g id="text_3"><g transform="translate(25.678 21.705934) scale(0.0694 -0.0694)" fill="#ffffff"><defs><path id="DejaVuSans-42" d="M 1259 2228 L 1259 519 L 2272 519 Q 2781 519 3026 730 Q 3272 941 3272 1375 Q 3272 1813 3026 2020 Q 2781 2228 2272 2228 L 1259 2228 z M 1259 4147 L 1259 2741 L 2194 2741 Q 2656 2741 2882 2914 Q 3109 3088 3109 3444 Q 3109 3797 2882 3972 Q 2656 4147 2194 4147 L 1259 4147 z M 628 4666 L 2241 4666 Q 2963 4666 3353 4366 Q 3744 4066 3744 3513 Q 3744 3084 3544 2831 Q 3344 2578 2956 2516 Q 3422 2416 3680 2098 Q 3938 1781 3938 1306 Q 3938 681 3513 340 Q 3088 0 2303 0 L 628 0 L 628 4666 z" transform="scale(0.015625)"/></defs><use xlink:href="#DejaVuSans-53"/><use xlink:href="#DejaVuSans-42" x="63.477"/></g></g><g id="patch_46"><path d="M 6.246 31.892553 L 20.126 31.892553 L 20.126 27.034553 L 6.246 27.034553 z" fill="#651f93"/></g><g id="text_4"><g transform="translate(25.678 31.892553) scale(0.0694 -0.0694)" fill="#ffffff"><defs><path id="DejaVuSans-48" d="M 628 4666 L 1259 4666 L 1259 2753 L 3553 2753 L 3553 4666 L 4184 4666 L 4184 0 L 3553 0 L 3553 2222 L 1259 2222 L 1259 0 L 628 0 L 628 4666 z" transform="scale(0.015625)"/><path id="DejaVuSans-49" d="M 628 4666 L 1259 4666 L 1259 0 L 628 0 L 628 4666 z" transform="scale(0.015625)"/></defs><use xlink:href="#DejaVuSans-48"/><use xlink:href="#DejaVuSans-49" x="75.195"/></g></g><g id="patch_47"><path d="M 6.246 42.079172 L 20.126 42.079172 L 20.126 37.221172 L 6.246 37.221172 z" fill="#862d36"/></g><g id="text_5"><g transform="translate(25.678 42.079172) scale(0.0694 -0.0694)" fill="#ffffff"><use xlink:href="#DejaVuSans-53"/><use xlink:href="#DejaVuSans-49" x="63.477"/></g></g><g id="patch_48"><path d="M 6.246 52.265791 L 20.126 52.265791 L 20.126 47.407791 L 6.246 47.407791 z" fill="#1f937c"/></g><g id="text_6"><g transform="translate(25.678 52.265791) scale(0.0694 -0.0694)" fill="#ffffff"><defs><path id="DejaVuSans-43" d="M 4122 4306 L 4122 3641 Q 3803 3938 3442 4084 Q 3081 4231 2675 4231 Q 1875 4231 1450 3742 Q 1025 3253 1025 2328 Q 1025 1406 1450 917 Q 1875 428 2675 428 Q 3081 428 3442 575 Q 3803 722 4122 1019 L 4122 359 Q 3791 134 3420 21 Q 3050 -91 2638 -91 Q 1578 -91 968 557 Q 359 1206 359 2328 Q 359 3453 968 4101 Q 1578 4750 2638 4750 Q 3056 4750 3426 4639 Q 3797 4528 4122 4306 z" transform="scale(0.015625)"/></defs><use xlink:href="#DejaVuSans-43"/><use xlink:href="#DejaVuSans-43" x="69.824"/></g></g><g id="patch_49"><path d="M 6.246 62.452409 L 20.126 62.452409 L 20.126 57.594409 L 6.246 57.594409 z" fill="#2dbfd2"/></g><g id="text_7"><g transform="translate(25.678 62.452409) scale(0.0694 -0.0694)" fill="#ffffff"><defs><path id="DejaVuSans-57" d="M 213 4666 L 850 4666 L 1831 722 L 2809 4666 L 3519 4666 L 4500 722 L 5478 4666 L 6119 4666 L 4947 0 L 4153 0 L 3169 4050 L 2175 0 L 1381 0 L 213 4666 z" transform="scale(0.015625)"/></defs><use xlink:href="#DejaVuSans-55"/><use xlink:href="#DejaVuSans-57" x="73.193"/></g></g><g id="patch_50"><path d="M 6.246 72.639028 L 20.126 72.639028 L 20.126 67.781028 L 6.246 67.781028 z" fill="#1f9327"/></g><g id="text_8"><g transform="translate(25.678 72.639028) scale(0.0694 -0.0694)" fill="#ffffff"><defs><path id="DejaVuSans-4c" d="M 628 4666 L 1259 4666 L 1259 531 L 3531 531 L 3531 0 L 628 0 L 628 4666 z" transform="scale(0.015625)"/><path id="DejaVuSans-4d" d="M 628 4666 L 1569 4666 L 2759 1491 L 3956 4666 L 4897 4666 L 4897 0 L 4281 0 L 4281 4097 L 3078 897 L 2444 897 L 1241 4097 L 1241 0 L 628 0 L 628 4666 z" transform="scale(0.015625)"/></defs><use xlink:href="#DejaVuSans-4c"/><use xlink:href="#DejaVuSans-4d" x="55.713"/></g></g><g id="patch_51"><path d="M 6.246 82.825647 L 20.126 82.825647 L 20.126 77.967647 L 6.246 77.967647 z" fill="#5372ac"/></g><g id="text_9"><g transform="translate(25.678 82.825647) scale(0.0694 -0.0694)" fill="#ffffff"><defs><path id="DejaVuSans-56" d="M 1831 0 L 50 4666 L 709 4666 L 2188 738 L 3669 4666 L 4325 4666 L 2547 0 L 1831 0 z" transform="scale(0.015625)"/></defs><use xlink:href="#DejaVuSans-56"/><use xlink:href="#DejaVuSans-53" x="68.408"/></g></g><g id="patch_52"><path d="M 6.246 93.012266 L 20.126 93.012266 L 20.126 88.154266 L 6.246 88.154266 z" fill="#7f2dd2"/></g><g id="text_10"><g transform="translate(25.678 93.012266) scale(0.0694 -0.0694)" fill="#ffffff"><use xlink:href="#DejaVuSans-53"/><use xlink:href="#DejaVuSans-4c" x="63.477"/></g></g><g id="patch_53"><path d="M 6.246 103.198884 L 20.126 103.198884 L 20.126 98.340884 L 6.246 98.340884 z" fill="#6ce085"/></g><g id="text_11"><g transform="translate(25.678 103.198884) scale(0.0694 -0.0694)" fill="#ffffff"><defs><path id="DejaVuSans-47" d="M 3809 666 L 3809 1919 L 2778 1919 L 2778 2438 L 4434 2438 L 4434 434 Q 4069 175 3628 42 Q 3188 -91 2688 -91 Q 1594 -91 976 548 Q 359 1188 359 2328 Q 359 3472 976 4111 Q 1594 4750 2688 4750 Q 3144 4750 3555 4637 Q 3966 4525 4313 4306 L 4313 3634 Q 3963 3931 3569 4081 Q 3175 4231 2741 4231 Q 1884 4231 1454 3753 Q 1025 3275 1025 2328 Q 1025 1384 1454 906 Q 1884 428 2741 428 Q 3075 428 3337 486 Q 3600 544 3809 666 z" transform="scale(0.015625)"/></defs><use xlink:href="#DejaVuSans-47"/><use xlink:href="#DejaVuSans-57" x="77.49"/></g></g><g id="patch_54"><path d="M 6.246 113.385503 L 20.126 113.385503 L 20.126 108.527503 L 6.246 108.527503 z" fill="#79d2b5"/></g><g id="text_12"><g transform="translate(25.678 113.385503) scale(0.0694 -0.0694)" fill="#ffffff"><use xlink:href="#DejaVuSans-4c"/><use xlink:href="#DejaVuSans-43" x="55.713"/></g></g><g id="patch_55"><path d="M 6.246 123.572122 L 20.126 123.572122 L 20.126 118.714122 L 6.246 118.714122 z" fill="#6ce098"/></g><g id="text_13"><g transform="translate(25.678 123.572122) scale(0.0694 -0.0694)" fill="#ffffff"><use xlink:href="#DejaVuSans-4c"/><use xlink:href="#DejaVuSans-46" x="55.713"/></g></g><g id="patch_56"><path d="M 6.246 133.758741 L 20.126 133.758741 L 20.126 128.900741 L 6.246 128.900741 z" fill="#2dd235"/></g><g id="text_14"><g transform="translate(25.678 133.758741) scale(0.0694 -0.0694)" fill="#ffffff"><defs><path id="DejaVuSans-44" d="M 1259 4147 L 1259 519 L 2022 519 Q 2988 519 3436 956 Q 3884 1394 3884 2338 Q 3884 3275 3436 3711 Q 2988 4147 2022 4147 L 1259 4147 z M 628 4666 L 1925 4666 Q 3281 4666 3915 4102 Q 4550 3538 4550 2338 Q 4550 1131 3912 565 Q 3275 0 1925 0 L 628 0 L 628 4666 z" transform="scale(0.015625)"/></defs><use xlink:href="#DejaVuSans-44"/><use xlink:href="#DejaVuSans-53" x="77.002"/></g></g><g id="patch_57"><path d="M 6.246 143.945359 L 20.126 143.945359 L 20.126 139.087359 L 6.246 139.087359 z" fill="#87c5a1"/></g><g id="text_15"><g transform="translate(25.678 143.945359) scale(0.0694 -0.0694)" fill="#ffffff"><defs><path id="DejaVuSans-41" d="M 2188 4044 L 1331 1722 L 3047 1722 L 2188 4044 z M 1831 4666 L 2547 4666 L 4325 0 L 3669 0 L 3244 1197 L 1141 1197 L 716 0 L 50 0 L 1831 4666 z" transform="scale(0.015625)"/></defs><use xlink:href="#DejaVuSans-4d"/><use xlink:href="#DejaVuSans-41" x="86.279"/></g></g><g id="patch_58"><path d="M 6.246 154.131978 L 20.126 154.131978 L 20.126 149.273978 L 6.246 149.273978 z" fill="#d279a6"/></g><g id="text_16"><g transform="translate(25.678 154.131978) scale(0.0694 -0.0694)" fill="#ffffff"><use xlink:href="#DejaVuSans-43"/><use xlink:href="#DejaVuSans-4c" x="69.824"/></g></g><g id="patch_59"><path d="M 6.246 164.318597 L 20.126 164.318597 L 20.126 159.460597 L 6.246 159.460597 z" fill="#6ce0bd"/></g><g id="text_17"><g transform="translate(25.678 164.318597) scale(0.0694 -0.0694)" fill="#ffffff"><use xlink:href="#DejaVuSans-53"/><use xlink:href="#DejaVuSans-48" x="63.477"/></g></g><g id="patch_60"><path d="M 6.246 174.505216 L 20.126 174.505216 L 20.126 169.647216 L 6.246 169.647216 z" fill="#2d4f86"/></g><g id="text_18"><g transform="translate(25.678 174.505216) scale(0.0694 -0.0694)" fill="#ffffff"><defs><path id="DejaVuSans-54" d="M -19 4666 L 3928 4666 L 3928 4134 L 2272 4134 L 2272 0 L 1638 0 L 1638 4134 L -19 4134 L -19 4666 z" transform="scale(0.015625)"/><path id="DejaVuSans-45" d="M 628 4666 L 3578 4666 L 3578 4134 L 1259 4134 L 1259 2753 L 3481 2753 L 3481 2222 L 1259 2222 L 1259 531 L 3634 531 L 3634 0 L 628 0 L 628 4666 z" transform="scale(0.015625)"/></defs><use xlink:href="#DejaVuSans-47"/><use xlink:href="#DejaVuSans-41" x="77.49"/><use xlink:href="#DejaVuSans-54" x="138.148"/><use xlink:href="#DejaVuSans-45" x="199.232"/></g></g><g id="patch_61"><path d="M 6.246 184.691834 L 20.126 184.691834 L 20.126 179.833834 L 6.246 179.833834 z" fill="#6c75e0"/></g><g id="text_19"><g transform="translate(25.678 184.691834) scale(0.0694 -0.0694)" fill="#ffffff"><defs><path id="DejaVuSans-4f" d="M 2522 4238 Q 1834 4238 1429 3725 Q 1025 3213 1025 2328 Q 1025 1447 1429 934 Q 1834 422 2522 422 Q 3209 422 3611 934 Q 4013 1447 4013 2328 Q 4013 3213 3611 3725 Q 3209 4238 2522 4238 z M 2522 4750 Q 3503 4750 4090 4092 Q 4678 3434 4678 2328 Q 4678 1225 4090 567 Q 3503 -91 2522 -91 Q 1538 -91 948 565 Q 359 1222 359 2328 Q 359 3434 948 4092 Q 1538 4750 2522 4750 z" transform="scale(0.015625)"/></defs><use xlink:href="#DejaVuSans-4f"/><use xlink:href="#DejaVuSans-45" x="78.711"/></g></g><g id="patch_62"><path d="M 6.246 194.878453 L 20.126 194.878453 L 20.126 190.020453 L 6.246 190.020453 z" fill="#472d86"/></g><g id="text_20"><g transform="translate(25.678 194.878453) scale(0.0694 -0.0694)" fill="#ffffff"><use xlink:href="#DejaVuSans-48"/><use xlink:href="#DejaVuSans-52" x="75.195"/></g></g><g id="patch_63"><path d="M 6.246 205.065072 L 20.126 205.065072 L 20.126 200.207072 L 6.246 200.207072 z" fill="#40b0bf"/></g><g id="text_21"><g transform="translate(25.678 205.065072) scale(0.0694 -0.0694)" fill="#ffffff"><use xlink:href="#DejaVuSans-44"/><use xlink:href="#DejaVuSans-4d" x="77.002"/></g></g><g id="patch_64"><path d="M 6.246 215.251691 L 20.126 215.251691 L 20.126 210.393691 L 6.246 210.393691 z" fill="#79d2b2"/></g><g id="text_22"><g transform="translate(25.678 215.251691) scale(0.0694 -0.0694)" fill="#ffffff"><defs><path id="DejaVuSans-4e" d="M 628 4666 L 1478 4666 L 3547 763 L 3547 4666 L 4159 4666 L 4159 0 L 3309 0 L 1241 3903 L 1241 0 L 628 0 L 628 4666 z" transform="scale(0.015625)"/></defs><use xlink:href="#DejaVuSans-46"/><use xlink:href="#DejaVuSans-4e" x="57.52"/></g></g><g id="patch_65"><path d="M 6.246 225.438309 L 20.126 225.438309 L 20.126 220.580309 L 6.246 220.580309 z" fill="#931f3c"/></g><g id="text_23"><g transform="translate(25.678 225.438309) scale(0.0694 -0.0694)" fill="#ffffff"><use xlink:href="#DejaVuSans-43"/><use xlink:href="#DejaVuSans-41" x="69.824"/></g></g><g id="patch_66"><path d="M 6.246 235.624928 L 20.126 235.624928 L 20.126 230.766928 L 6.246 230.766928 z" fill="#2dd288"/></g><g id="text_24"><g transform="translate(25.678 235.624928) scale(0.0694 -0.0694)" fill="#ffffff"><use xlink:href="#DejaVuSans-53"/><use xlink:href="#DejaVuSans-53" x="63.477"/></g></g><g id="patch_67"><path d="M 6.246 245.811547 L 20.126 245.811547 L 20.126 240.953547 L 6.246 240.953547 z" fill="#d22dd2"/></g><g id="text_25"><g transform="translate(25.678 245.811547) scale(0.0694 -0.0694)" fill="#ffffff"><use xlink:href="#DejaVuSans-43"/><use xlink:href="#DejaVuSans-46" x="69.824"/></g></g><g id="patch_68"><path d="M 6.246 255.998166 L 20.126 255.998166 L 20.126 251.140166 L 6.246 251.140166 z" fill="#b9d279"/></g><g id="text_26"><g transform="translate(25.678 255.998166) scale(0.0694 -0.0694)" fill="#ffffff"><use xlink:href="#DejaVuSans-56"/><use xlink:href="#DejaVuSans-49" x="68.408"/></g></g><g id="patch_69"><path d="M 6.246 266.184784 L 20.126 266.184784 L 20.126 261.326784 L 6.246 261.326784 z" fill="#48783a"/></g><g id="text_27"><g transform="translate(25.678 266.184784) scale(0.0694 -0.0694)" fill="#ffffff"><use xlink:href="#DejaVuSans-4d"/><use xlink:href="#DejaVuSans-45" x="86.279"/></g></g><g id="patch_70"><path d="M 6.246 276.371403 L 20.126 276.371403 L 20.126 271.513403 L 6.246 271.513403 z" fill="#d279c3"/></g><g id="text_28"><g transform="translate(25.678 276.371403) scale(0.0694 -0.0694)" fill="#ffffff"><defs><path id="DejaVuSans-59" d="M -13 4666 L 666 4666 L 1959 2747 L 3244 4666 L 3922 4666 L 2272 2222 L 2272 0 L 1638 0 L 1638 2222 L -13 4666 z" transform="scale(0.015625)"/></defs><use xlink:href="#DejaVuSans-41"/><use xlink:href="#DejaVuSans-59" x="60.658"/></g></g><g id="patch_71"><path d="M 6.246 286.558022 L 20.126 286.558022 L 20.126 281.700022 L 6.246 281.700022 z" fill="#cae06c"/></g><g id="text_29"><g transform="translate(25.678 286.558022) scale(0.0694 -0.0694)" fill="#ffffff"><defs><path id="DejaVuSans-50" d="M 1259 4147 L 1259 2394 L 2053 2394 Q 2494 2394 2734 2622 Q 2975 2850 2975 3272 Q 2975 3691 2734 3919 Q 2494 4147 2053 4147 L 1259 4147 z M 628 4666 L 2053 4666 Q 2838 4666 3239 4311 Q 3641 3956 3641 3272 Q 3641 2581 3239 2228 Q 2838 1875 2053 1875 L 1259 1875 L 1259 0 L 628 0 L 628 4666 z" transform="scale(0.015625)"/></defs><use xlink:href="#DejaVuSans-46"/><use xlink:href="#DejaVuSans-50" x="57.52"/></g></g><g id="patch_72"><path d="M 6.246 296.744641 L 20.126 296.744641 L 20.126 291.886641 L 6.246 291.886641 z" fill="#c58799"/></g><g id="text_30"><g transform="translate(25.678 296.744641) scale(0.0694 -0.0694)" fill="#ffffff"><use xlink:href="#DejaVuSans-52"/><use xlink:href="#DejaVuSans-4d" x="69.482"/></g></g><g id="patch_73"><path d="M 6.246 306.931259 L 20.126 306.931259 L 20.126 302.073259 L 6.246 302.073259 z" fill="#72e06c"/></g><g id="text_31"><g transform="translate(25.678 306.931259) scale(0.0694 -0.0694)" fill="#ffffff"><use xlink:href="#DejaVuSans-55"/><use xlink:href="#DejaVuSans-47" x="73.193"/></g></g><g id="patch_74"><path d="M 6.246 317.117878 L 20.126 317.117878 L 20.126 312.259878 L 6.246 312.259878 z" fill="#d22f2d"/></g><g id="text_32"><g transform="translate(25.678 317.117878) scale(0.0694 -0.0694)" fill="#ffffff"><use xlink:href="#DejaVuSans-4f"/><use xlink:href="#DejaVuSans-53" x="78.711"/></g></g><g id="patch_75"><path d="M 6.246 327.304497 L 20.126 327.304497 L 20.126 322.446497 L 6.246 322.446497 z" fill="#3a7877"/></g><g id="text_33"><g transform="translate(25.678 327.304497) scale(0.0694 -0.0694)" fill="#ffffff"><use xlink:href="#DejaVuSans-4d"/><use xlink:href="#DejaVuSans-53" x="86.279"/></g></g><g id="patch_76"><path d="M 6.246 337.491116 L 20.126 337.491116 L 20.126 332.633116 L 6.246 332.633116 z" fill="#6b1f93"/></g><g id="text_34"><g transform="translate(25.678 337.491116) scale(0.0694 -0.0694)" fill="#ffffff"><use xlink:href="#DejaVuSans-50"/><use xlink:href="#DejaVuSans-41" x="53.928"/></g></g><g id="patch_77"><path d="M 6.246 347.677734 L 20.126 347.677734 L 20.126 342.819734 L 6.246 342.819734 z" fill="#9587c5"/></g><g id="text_35"><g transform="translate(25.678 347.677734) scale(0.0694 -0.0694)" fill="#ffffff"><defs><path id="DejaVuSans-4b" d="M 628 4666 L 1259 4666 L 1259 2694 L 3353 4666 L 4166 4666 L 1850 2491 L 4331 0 L 3500 0 L 1259 2247 L 1259 0 L 628 0 L 628 4666 z" transform="scale(0.015625)"/></defs><use xlink:href="#DejaVuSans-53"/><use xlink:href="#DejaVuSans-4b" x="63.477"/></g></g><g id="patch_78"><path d="M 6.246 357.864353 L 20.126 357.864353 L 20.126 353.006353 L 6.246 353.006353 z" fill="#1f3693"/></g><g id="text_36"><g transform="translate(25.678 357.864353) scale(0.0694 -0.0694)" fill="#ffffff"><use xlink:href="#DejaVuSans-49"/><use xlink:href="#DejaVuSans-57" x="29.492"/></g></g><g id="patch_79"><path d="M 6.246 368.050972 L 20.126 368.050972 L 20.126 363.192972 L 6.246 363.192972 z" fill="#1f4e93"/></g><g id="text_37"><g transform="translate(25.678 368.050972) scale(0.0694 -0.0694)" fill="#ffffff"><use xlink:href="#DejaVuSans-45"/><use xlink:href="#DejaVuSans-4c" x="63.184"/></g></g><g id="patch_80"><path d="M 6.246 378.237591 L 20.126 378.237591 L 20.126 373.379591 L 6.246 373.379591 z" fill="#40bf90"/></g><g id="text_38"><g transform="translate(25.678 378.237591) scale(0.0694 -0.0694)" fill="#ffffff"><use xlink:href="#DejaVuSans-54"/><use xlink:href="#DejaVuSans-59" x="61.084"/></g></g><g id="patch_81"><path d="M 6.246 388.424209 L 20.126 388.424209 L 20.126 383.566209 L 6.246 383.566209 z" fill="#85d279"/></g><g id="text_39"><g transform="translate(25.678 388.424209) scale(0.0694 -0.0694)" fill="#ffffff"><defs><path id="DejaVuSans-74" d="M 1172 4494 L 1172 3500 L 2356 3500 L 2356 3053 L 1172 3053 L 1172 1153 Q 1172 725 1289 603 Q 1406 481 1766 481 L 2356 481 L 2356 0 L 1766 0 Q 1100 0 847 248 Q 594 497 594 1153 L 594 3053 L 172 3053 L 172 3500 L 594 3500 L 594 4494 L 1172 4494 z" transform="scale(0.015625)"/></defs><use xlink:href="#DejaVuSans-74"/><use xlink:href="#DejaVuSans-72" x="39.209"/></g></g><g id="patch_82"><path d="M 6.246 398.610828 L 20.126 398.610828 L 20.126 393.752828 L 6.246 393.752828 z" fill="#bf4064"/></g><g id="text_40"><g transform="translate(25.678 398.610828) scale(0.0694 -0.0694)" fill="#ffffff"><defs><path id="DejaVuSans-58" d="M 403 4666 L 1081 4666 L 2241 2931 L 3406 4666 L 4084 4666 L 2584 2425 L 4184 0 L 3506 0 L 2194 1984 L 872 0 L 191 0 L 1856 2491 L 403 4666 z" transform="scale(0.015625)"/></defs><use xlink:href="#DejaVuSans-58"/><use xlink:href="#DejaVuSans-44" x="68.506"/></g></g><g id="patch_83"><path d="M 6.246 408.797447 L 20.126 408.797447 L 20.126 403.939447 L 6.246 403.939447 z" fill="#7e79d2"/></g><g id="text_41"><g transform="translate(25.678 408.797447) scale(0.0694 -0.0694)" fill="#ffffff"><use xlink:href="#DejaVuSans-57"/><use xlink:href="#DejaVuSans-52" x="98.877"/></g></g><g id="patch_84"><path d="M 6.246 418.984066 L 20.126 418.984066 L 20.126 414.126066 L 6.246 414.126066 z" fill="#d28179"/></g><g id="text_42"><g transform="translate(25.678 418.984066) scale(0.0694 -0.0694)" fill="#ffffff"><use xlink:href="#DejaVuSans-44"/><use xlink:href="#DejaVuSans-4e" x="77.002"/></g></g></g></g></svg>