<svg xmlns:xlink="http://www.w3.org/1999/xlink" width="1167.36" height="1071.36" viewBox="0 0 875.52 803.52" xmlns="http://www.w3.org/2000/svg" version="1.1"><metadata><rdf:RDF xmlns:dc="http://purl.org/dc/elements/1.1/" xmlns:cc="http://creativecommons.org/ns#" xmlns:rdf="http://www.w3.org/1999/02/22-rdf-syntax-ns#"><cc:Work><dc:type rdf:resource="http://purl.org/dc/dcmitype/StillImage"/><dc:format>image/svg+xml</dc:format><dc:creator><cc:Agent><dc:title>Matplotlib v3.7.1, https://matplotlib.org/</dc:title></cc:Agent></dc:creator></cc:Work></rdf:RDF></metadata><defs><style type="text/css">*{stroke-linejoin:round;stroke-linecap:butt}</style></defs><g id="figure_1"><g id="patch_1"><path d="M 0 803.52 L 875.52 803.52 L 875.52 0 L 0 0 z"/></g><g id="axes_1"><g id="patch_2"><path d="M 758.0592 405.7776 C 758.0592 360.921022 748.302878 316.596523 729.468507 275.885602 C 710.634137 235.174681 683.168535 199.043147 648.981149 170.002912 L 448.704 405.7776 z" fill="#ac5953"/></g><g id="patch_3"><path d="M 648.981149 170.002912 C 639.08054 161.59291 628.660026 153.814867 617.781515 146.714994 C 606.903004 139.615121 595.588081 133.207505 583.903966 127.530212 L 448.704 405.7776 z" fill="#a840bf"/></g><g id="patch_4"><path d="M 583.903966 127.530212 C 549.082275 110.610408 511.39185 100.376711 472.794694 97.361845 C 434.197538 94.346978 395.375213 98.60418 358.348645 109.911837 L 448.704 405.7776 z" fill="#651f93"/></g><g id="patch_5"><path d="M 358.348645 109.911837 C 331.579993 118.086798 306.044194 129.856941 282.441091 144.899688 C 258.837989 159.942435 237.385197 178.119097 218.67066 198.931516 L 448.704 405.7776 z" fill="#862d36"/></g><g id="patch_6"><path d="M 218.67066 198.931516 C 190.218581 230.573048 168.598652 267.747381 155.16622 308.124071 C 141.733788 348.500761 136.775535 391.218066 140.602292 433.598052 L 448.704 405.7776 z" fill="#1f937c"/></g><g id="patch_7"><path d="M 140.602292 433.598052 C 143.806067 469.078733 153.114778 503.740829 168.117152 536.052926 C 183.119527 568.365024 203.591322 597.844145 228.628068 623.187867 L 448.704 405.7776 z" fill="#2dbfd2"/></g><g id="patch_8"><path d="M 228.628068 623.187867 C 234.371197 629.001412 240.342428 634.585108 246.527707 639.925815 C 252.712987 645.266521 259.107459 650.360045 265.696075 655.194398 L 448.704 405.7776 z" fill="#1f9327"/></g><g id="patch_9"><path d="M 265.696075 655.194398 C 270.831876 658.962758 276.082845 662.571591 281.441471 666.015733 C 286.800096 669.459876 292.263822 672.737686 297.824834 675.844475 L 448.704 405.7776 z" fill="#5372ac"/></g><g id="patch_10"><path d="M 297.824834 675.844475 C 305.946318 680.381732 314.268338 684.550335 322.765517 688.337573 C 331.262695 692.12481 339.926386 695.526829 348.73017 698.533254 L 448.704 405.7776 z" fill="#7f2dd2"/></g><g id="patch_11"><path d="M 348.73017 698.533254 C 370.43164 705.944141 392.890014 710.919065 415.691029 713.36626 C 438.492044 715.813454 461.494637 715.717779 484.274506 713.080999 L 448.704 405.7776 z" fill="#6ce085"/></g><g id="patch_12"><path d="M 484.274506 713.080999 C 498.268577 711.461179 512.135674 708.88735 525.778941 705.377489 C 539.422207 701.867628 552.809805 697.429925 565.848227 692.095378 L 448.704 405.7776 z" fill="#79d2b5"/></g><g id="patch_13"><path d="M 565.848227 692.095378 C 578.581768 686.885569 590.953592 680.832101 602.88127 673.975305 C 614.808949 667.118509 626.265936 659.473646 637.1759 651.091649 L 448.704 405.7776 z" fill="#6ce098"/></g><g id="patch_14"><path d="M 637.1759 651.091649 C 641.79361 647.543917 646.310227 643.866509 650.720352 640.063821 C 655.130478 636.261133 659.432353 632.33468 663.620836 628.289158 L 448.704 405.7776 z" fill="#2dd235"/></g><g id="patch_15"><path d="M 663.620836 628.289158 C 663.665039 628.246464 663.709229 628.203756 663.753406 628.161036 C 663.797583 628.118316 663.841748 628.075582 663.8859 628.032836 L 448.704 405.7776 z" fill="#87c5a1"/></g><g id="patch_16"><path d="M 663.8859 628.032836 C 665.352118 626.61328 666.804254 625.17925 668.242093 623.730956 C 669.679932 622.282663 671.103404 620.820176 672.512301 619.343712 L 448.704 405.7776 z" fill="#d279a6"/></g><g id="patch_17"><path d="M 672.512301 619.343712 C 682.570471 608.803172 691.871458 597.565234 700.345787 585.713841 C 708.820115 573.862448 716.446633 561.427182 723.168371 548.500929 L 448.704 405.7776 z" fill="#6ce0bd"/></g><g id="patch_18"><path d="M 723.168371 548.500929 C 723.59484 547.680807 724.017632 546.858777 724.436732 546.034864 C 724.855833 545.210952 725.271238 544.385165 725.682936 543.557528 L 448.704 405.7776 z" fill="#2d4f86"/></g><g id="patch_19"><path d="M 725.682936 543.557528 C 728.117339 538.66365 730.421611 533.706111 732.593325 528.690134 C 734.765039 523.674157 736.803432 518.601504 738.706358 513.477518 L 448.704 405.7776 z" fill="#6c75e0"/></g><g id="patch_20"><path d="M 738.706358 513.477518 C 739.343754 511.761209 739.9659 510.039276 740.572725 508.311922 C 741.179549 506.584568 741.771027 504.851862 742.347089 503.114006 L 448.704 405.7776 z" fill="#472d86"/></g><g id="patch_21"><path d="M 742.347089 503.114006 C 743.819524 498.671985 745.190976 494.197124 746.460386 489.692879 C 747.729796 485.188635 748.896838 480.656166 749.960609 476.098972 L 448.704 405.7776 z" fill="#40b0bf"/></g><g id="patch_22"><path d="M 749.960609 476.098972 C 749.967885 476.067803 749.975156 476.036632 749.982422 476.00546 C 749.989688 475.974288 749.996949 475.943115 750.004206 475.911941 L 448.704 405.7776 z" fill="#79d2b2"/></g><g id="patch_23"><path d="M 750.004206 475.911941 C 750.030039 475.800961 750.05581 475.689967 750.081521 475.578959 C 750.107231 475.46795 750.13288 475.356928 750.158468 475.245891 L 448.704 405.7776 z" fill="#931f3c"/></g><g id="patch_24"><path d="M 750.158468 475.245891 C 750.973558 471.708844 751.726334 468.157725 752.416445 464.594184 C 753.106556 461.030643 753.733896 457.455232 754.298172 453.869612 L 448.704 405.7776 z" fill="#2dd288"/></g><g id="patch_25"><path d="M 754.298172 453.869612 C 754.369029 453.419366 754.43889 452.968964 754.507755 452.518409 C 754.57662 452.067853 754.64449 451.617147 754.711363 451.166292 L 448.704 405.7776 z" fill="#d22dd2"/></g><g id="patch_26"><path d="M 754.711363 451.166292 C 754.736159 450.999121 754.760818 450.83193 754.785339 450.664718 C 754.809861 450.497507 754.834246 450.330275 754.858493 450.163024 L 448.704 405.7776 z" fill="#b9d279"/></g><g id="patch_27"><path d="M 754.858493 450.163024 C 754.873924 450.056592 754.889299 449.950151 754.904618 449.843702 C 754.919937 449.737254 754.935201 449.630797 754.950409 449.524332 L 448.704 405.7776 z" fill="#48783a"/></g><g id="patch_28"><path d="M 754.950409 449.524332 C 754.956927 449.478705 754.963435 449.433075 754.969932 449.387445 C 754.97643 449.341814 754.982917 449.296182 754.989394 449.250549 L 448.704 405.7776 z" fill="#d279c3"/></g><g id="patch_29"><path d="M 754.989394 449.250549 C 754.989574 449.249281 754.989754 449.248014 754.989934 449.246746 C 754.990113 449.245478 754.990293 449.244211 754.990473 449.242943 L 448.704 405.7776 z" fill="#cae06c"/></g><g id="patch_30"><path d="M 754.990473 449.242943 C 755.296103 447.089268 755.579008 444.93243 755.839143 442.772788 C 756.099277 440.613146 756.336625 438.45082 756.551149 436.286171 L 448.704 405.7776 z" fill="#c58799"/></g><g id="patch_31"><path d="M 756.551149 436.286171 C 756.654053 435.24781 756.751704 434.208934 756.844096 433.169585 C 756.936489 432.130235 757.023622 431.090425 757.105493 430.050193 L 448.704 405.7776 z" fill="#72e06c"/></g><g id="patch_32"><path d="M 757.105493 430.050193 C 757.123776 429.817897 757.141796 429.58558 757.159554 429.353242 C 757.177312 429.120905 757.194807 428.888548 757.21204 428.656171 L 448.704 405.7776 z" fill="#d22f2d"/></g><g id="patch_33"><path d="M 757.21204 428.656171 C 757.331344 427.0474 757.438063 425.437721 757.532187 423.827281 C 757.62631 422.216841 757.707835 420.605689 757.776754 418.993973 L 448.704 405.7776 z" fill="#3a7877"/></g><g id="patch_34"><path d="M 757.776754 418.993973 C 757.813401 418.136953 757.846484 417.279784 757.876001 416.422489 C 757.905518 415.565194 757.931469 414.707779 757.953853 413.850268 L 448.704 405.7776 z" fill="#6b1f93"/></g><g id="patch_35"><path d="M 757.953853 413.850268 C 757.953954 413.846428 757.954054 413.842589 757.954154 413.838749 C 757.954254 413.834909 757.954354 413.83107 757.954454 413.82723 L 448.704 405.7776 z" fill="#9587c5"/></g><g id="patch_36"><path d="M 757.954454 413.82723 C 757.954487 413.82595 757.95452 413.82467 757.954554 413.823391 C 757.954587 413.822111 757.95462 413.820831 757.954654 413.819551 L 448.704 405.7776 z" fill="#1f3693"/></g><g id="patch_37"><path d="M 757.954654 413.819551 C 757.955685 413.779875 757.95671 413.740199 757.957726 413.700523 C 757.958743 413.660846 757.959751 413.62117 757.960753 413.581493 L 448.704 405.7776 z" fill="#1f4e93"/></g><g id="patch_38"><path d="M 757.960753 413.581493 C 757.960817 413.578933 757.960882 413.576373 757.960946 413.573814 C 757.961011 413.571254 757.961075 413.568694 757.96114 413.566134 L 448.704 405.7776 z" fill="#40bf90"/></g><g id="patch_39"><path d="M 757.96114 413.566134 C 757.961784 413.540536 757.962426 413.514938 757.963064 413.48934 C 757.963703 413.463742 757.964338 413.438144 757.96497 413.412546 L 448.704 405.7776 z" fill="#85d279"/></g><g id="patch_40"><path d="M 757.96497 413.412546 C 757.965854 413.376708 757.966733 413.340871 757.967605 413.305033 C 757.968478 413.269195 757.969344 413.233357 757.970203 413.197519 L 448.704 405.7776 z" fill="#bf4064"/></g><g id="patch_41"><path d="M 757.970203 413.197519 C 757.970664 413.17832 757.971123 413.159121 757.97158 413.139922 C 757.972037 413.120723 757.972492 413.101523 757.972946 413.082324 L 448.704 405.7776 z" fill="#7e79d2"/></g><g id="patch_42"><path d="M 757.972946 413.082324 C 757.973097 413.075925 757.973248 413.069525 757.973399 413.063125 C 757.973549 413.056725 757.9737 413.050326 757.97385 413.043926 L 448.704 405.7776 z" fill="#d28179"/></g><g id="patch_43"><path d="M 757.97385 413.043926 C 757.974031 413.036246 757.974211 413.028567 757.974391 413.020887 C 757.974571 413.013207 757.97475 413.005527 757.974929 412.997848 L 448.704 405.7776 z" fill="#90ac53"/></g><g id="patch_44"><path d="M 757.974929 412.997848 C 757.974959 412.996568 757.974989 412.995288 757.975019 412.994008 C 757.975049 412.992728 757.975079 412.991448 757.975109 412.990168 L 448.704 405.7776 z" fill="#2d6d86"/></g><g id="patch_45"><path d="M 757.975109 412.990168 C 757.975646 412.967129 757.976181 412.94409 757.976713 412.92105 C 757.977245 412.898011 757.977775 412.874972 757.978302 412.851932 L 448.704 405.7776 z" fill="#c58f87"/></g><g id="patch_46"><path d="M 757.978302 412.851932 C 757.978331 412.850652 757.97836 412.849372 757.978389 412.848092 C 757.978419 412.846812 757.978448 412.845532 757.978477 412.844252 L 448.704 405.7776 z" fill="#bf7140"/></g><g id="patch_47"><path d="M 757.978477 412.844252 C 757.983244 412.635618 757.9878 412.426978 757.992145 412.218334 C 757.99649 412.00969 758.000624 411.801042 758.004546 411.59239 L 448.704 405.7776 z" fill="#932d1f"/></g><g id="patch_48"><path d="M 758.004546 411.59239 C 758.004667 411.585989 758.004787 411.579589 758.004907 411.573189 C 758.005027 411.566788 758.005146 411.560388 758.005266 411.553987 L 448.704 405.7776 z" fill="#3a3c78"/></g><g id="patch_49"><path d="M 758.005266 411.553987 C 758.005314 411.551427 758.005362 411.548867 758.005409 411.546307 C 758.005457 411.543747 758.005505 411.541187 758.005552 411.538626 L 448.704 405.7776 z" fill="#e0cc6c"/></g><g id="patch_50"><path d="M 758.005552 411.538626 C 758.005576 411.537346 758.0056 411.536066 758.005624 411.534786 C 758.005648 411.533506 758.005672 411.532226 758.005695 411.530946 L 448.704 405.7776 z" fill="#c56ce0"/></g><g id="patch_51"><path d="M 758.005695 411.530946 C 758.005838 411.523266 758.005981 411.515585 758.006123 411.507905 C 758.006265 411.500224 758.006407 411.492544 758.006549 411.484863 L 448.704 405.7776 z" fill="#bf4080"/></g><g id="patch_52"><path d="M 758.006549 411.484863 C 758.006573 411.483583 758.006596 411.482303 758.00662 411.481023 C 758.006644 411.479743 758.006667 411.478463 758.006691 411.477183 L 448.704 405.7776 z" fill="#86762d"/></g><g id="patch_53"><path d="M 758.006691 411.477183 C 758.007092 411.455421 758.00749 411.43366 758.007887 411.411898 C 758.008283 411.390137 758.008677 411.368375 758.009069 411.346613 L 448.704 405.7776 z" fill="#c5d22d"/></g><g id="patch_54"><path d="M 758.009069 411.346613 C 758.009092 411.345333 758.009115 411.344053 758.009138 411.342773 C 758.009161 411.341493 758.009184 411.340213 758.009207 411.338933 L 448.704 405.7776 z" fill="#abc587"/></g><g id="patch_55"><path d="M 758.009207 411.338933 C 758.00923 411.337653 758.009253 411.336373 758.009276 411.335093 C 758.009299 411.333813 758.009322 411.332532 758.009345 411.331252 L 448.704 405.7776 z" fill="#c587a2"/></g><g id="patch_56"><path d="M 758.009345 411.331252 C 758.012012 411.182761 758.014571 411.034268 758.017023 410.885774 C 758.019476 410.737279 758.021821 410.588782 758.024059 410.440284 L 448.704 405.7776 z" fill="#2d4186"/></g><g id="patch_57"><path d="M 758.024059 410.440284 C 758.024735 410.395479 758.0254 410.350673 758.026056 410.305867 C 758.026712 410.261062 758.027358 410.216256 758.027995 410.17145 L 448.704 405.7776 z" fill="#e06ca4"/></g><g id="patch_58"><path d="M 758.027995 410.17145 C 758.028086 410.165049 758.028177 410.158648 758.028267 410.152247 C 758.028358 410.145846 758.028448 410.139445 758.028538 410.133044 L 448.704 405.7776 z" fill="#c59487"/></g><g id="patch_59"><path d="M 758.028538 410.133044 C 758.02879 410.115122 758.029041 410.0972 758.02929 410.079277 C 758.02954 410.061355 758.029787 410.043432 758.030034 410.025509 L 448.704 405.7776 z" fill="#87c59d"/></g><g id="patch_60"><path d="M 758.030034 410.025509 C 758.030121 410.019109 758.030209 410.012708 758.030297 410.006307 C 758.030384 409.999906 758.030471 409.993505 758.030559 409.987104 L 448.704 405.7776 z" fill="#1f9376"/></g><g id="patch_61"><path d="M 758.030559 409.987104 C 758.030611 409.983263 758.030663 409.979423 758.030715 409.975582 C 758.030767 409.971742 758.030819 409.967901 758.030871 409.964061 L 448.704 405.7776 z" fill="#40bf77"/></g><g id="patch_62"><path d="M 758.030871 409.964061 C 758.030993 409.955099 758.031113 409.946138 758.031234 409.937177 C 758.031354 409.928216 758.031475 409.919254 758.031594 409.910293 L 448.704 405.7776 z" fill="#538bac"/></g><g id="patch_63"><path d="M 758.031594 409.910293 C 758.031629 409.907733 758.031663 409.905172 758.031697 409.902612 C 758.031731 409.900051 758.031765 409.897491 758.031799 409.894931 L 448.704 405.7776 z" fill="#c587b2"/></g><g id="patch_64"><path d="M 758.031799 409.894931 C 758.03185 409.89109 758.031901 409.88725 758.031952 409.883409 C 758.032003 409.879568 758.032054 409.875728 758.032105 409.871887 L 448.704 405.7776 z" fill="#3a7877"/></g><g id="patch_65"><path d="M 758.032105 409.871887 C 758.035511 409.614569 758.038596 409.357247 758.041359 409.099921 C 758.044123 408.842595 758.046566 408.585266 758.048687 408.327934 L 448.704 405.7776 z" fill="#8840bf"/></g><g id="patch_66"><path d="M 758.048687 408.327934 C 758.05217 407.905449 758.054788 407.482957 758.05654 407.060461 C 758.058292 406.637965 758.059179 406.215465 758.0592 405.792966 L 448.704 405.7776 z" fill="#c1d279"/></g><g id="patch_67"><path d="M 758.0592 405.792966 C 758.0592 405.791685 758.0592 405.790405 758.0592 405.789125 C 758.0592 405.787844 758.0592 405.786564 758.0592 405.785284 L 448.704 405.7776 z" fill="#56ac53"/></g><g id="patch_68"><path d="M 758.0592 405.785284 C 758.0592 405.784004 758.0592 405.782723 758.0592 405.781443 C 758.0592 405.780163 758.0592 405.778882 758.0592 405.777602 L 448.704 405.7776 z" fill="#a12dd2"/></g><g id="text_1"><g transform="translate(395.260875 40.925568) scale(0.12 -0.12)" fill="#ffffff"><defs><path id="DejaVuSans-52" d="M 2841 2188 Q 3044 2119 3236 1894 Q 3428 1669 3622 1275 L 4263 0 L 3584 0 L 2988 1197 Q 2756 1666 2539 1819 Q 2322 1972 1947 1972 L 1259 1972 L 1259 0 L 628 0 L 628 4666 L 2053 4666 Q 2853 4666 3247 4331 Q 3641 3997 3641 3322 Q 3641 2881 3436 2590 Q 3231 2300 2841 2188 z M 1259 4147 L 1259 2491 L 2053 2491 Q 2509 2491 2742 2702 Q 2975 2913 2975 3322 Q 2975 3731 2742 3939 Q 2509 4147 2053 4147 L 1259 4147 z" transform="scale(0.015625)"/><path id="DejaVuSans-65" d="M 3597 1894 L 3597 1613 L 953 1613 Q 991 1019 1311 708 Q 1631 397 2203 397 Q 2534 397 2845 478 Q 3156 559 3463 722 L 3463 178 Q 3153 47 2828 -22 Q 2503 -91 2169 -91 Q 1331 -91 842 396 Q 353 884 353 1716 Q 353 2575 817 3079 Q 1281 3584 2069 3584 Q 2775 3584 3186 3129 Q 3597 2675 3597 1894 z M 3022 2063 Q 3016 2534 2758 2815 Q 2500 3097 2075 3097 Q 1594 3097 1305 2825 Q 1016 2553 972 2059 L 3022 2063 z" transform="scale(0.015625)"/><path id="DejaVuSans-67" d="M 2906 1791 Q 2906 2416 2648 2759 Q 2391 3103 1925 3103 Q 1463 3103 1205 2759 Q 947 2416 947 1791 Q 947 1169 1205 825 Q 1463 481 1925 481 Q 2391 481 2648 825 Q 2906 1169 2906 1791 z M 3481 434 Q 3481 -459 3084 -895 Q 2688 -1331 1869 -1331 Q 1566 -1331 1297 -1286 Q 1028 -1241 775 -1147 L 775 -588 Q 1028 -725 1275 -790 Q 1522 -856 1778 -856 Q 2344 -856 2625 -561 Q 2906 -266 2906 331 L 2906 616 Q 2728 306 2450 153 Q 2172 0 1784 0 Q 1141 0 747 490 Q 353 981 353 1791 Q 353 2603 747 3093 Q 1141 3584 1784 3584 Q 2172 3584 2450 3431 Q 2728 3278 2906 2969 L 2906 3500 L 3481 3500 L 3481 434 z" transform="scale(0.015625)"/><path id="DejaVuSans-69" d="M 603 3500 L 1178 3500 L 1178 0 L 603 0 L 603 3500 z M 603 4863 L 1178 4863 L 1178 4134 L 603 4134 L 603 4863 z" transform="scale(0.015625)"/><path id="DejaVuSans-6f" d="M 1959 3097 Q 1497 3097 1228 2736 Q 959 2375 959 1747 Q 959 1119 1226 758 Q 1494 397 1959 397 Q 2419 397 2687 759 Q 2956 1122 2956 1747 Q 2956 2369 2687 2733 Q 2419 3097 1959 3097 z M 1959 3584 Q 2709 3584 3137 3096 Q 3566 2609 3566 1747 Q 3566 888 3137 398 Q 2709 -91 1959 -91 Q 1206 -91 779 398 Q 353 888 353 1747 Q 353 2609 779 3096 Q 1206 3584 1959 3584 z" transform="scale(0.015625)"/><path id="DejaVuSans-6e" d="M 3513 2113 L 3513 0 L 2938 0 L 2938 2094 Q 2938 2591 2744 2837 Q 2550 3084 2163 3084 Q 1697 3084 1428 2787 Q 1159 2491 1159 1978 L 1159 0 L 581 0 L 581 3500 L 1159 3500 L 1159 2956 Q 1366 3272 1645 3428 Q 1925 3584 2291 3584 Q 2894 3584 3203 3211 Q 3513 2838 3513 2113 z" transform="scale(0.015625)"/><path id="DejaVuSans-20" transform="scale(0.015625)"/><path id="DejaVuSans-46" d="M 628 4666 L 3309 4666 L 3309 4134 L 1259 4134 L 1259 2759 L 3109 2759 L 3109 2228 L 1259 2228 L 1259 0 L 628 0 L 628 4666 z" transform="scale(0.015625)"/><path id="DejaVuSans-72" d="M 2631 2963 Q 2534 3019 2420 3045 Q 2306 3072 2169 3072 Q 1681 3072 1420 2755 Q 1159 2438 1159 1844 L 1159 0 L 581 0 L 581 3500 L 1159 3500 L 1159 2956 Q 1341 3275 1631 3429 Q 1922 3584 2338 3584 Q 2397 3584 2469 3576 Q 2541 3569 2628 3553 L 2631 2963 z" transform="scale(0.015625)"/><path id="DejaVuSans-71" d="M 947 1747 Q 947 1113 1208 752 Q 1469 391 1925 391 Q 2381 391 2643 752 Q 2906 1113 2906 1747 Q 2906 2381 2643 2742 Q 2381 3103 1925 3103 Q 1469 3103 1208 2742 Q 947 2381 947 1747 z M 2906 525 Q 2725 213 2448 61 Q 2172 -91 1784 -91 Q 1150 -91 751 415 Q 353 922 353 1747 Q 353 2572 751 3078 Q 1150 3584 1784 3584 Q 2172 3584 2448 3432 Q 2725 3281 2906 2969 L 2906 3500 L 3481 3500 L 3481 -1331 L 2906 -1331 L 2906 525 z" transform="scale(0.015625)"/><path id="DejaVuSans-75" d="M 544 1381 L 544 3500 L 1119 3500 L 1119 1403 Q 1119 906 1312 657 Q 1506 409 1894 409 Q 2359 409 2629 706 Q 2900 1003 2900 1516 L 2900 3500 L 3475 3500 L 3475 0 L 2900 0 L 2900 538 Q 2691 219 2414 64 Q 2138 -91 1772 -91 Q 1169 -91 856 284 Q 544 659 544 1381 z M 1991 3584 L 1991 3584 z" transform="scale(0.015625)"/><path id="DejaVuSans-63" d="M 3122 3366 L 3122 2828 Q 2878 2963 2633 3030 Q 2388 3097 2138 3097 Q 1578 3097 1268 2742 Q 959 2388 959 1747 Q 959 1106 1268 751 Q 1578 397 2138 397 Q 2388 397 2633 464 Q 2878 531 3122 666 L 3122 134 Q 2881 22 2623 -34 Q 2366 -91 2075 -91 Q 1284 -91 818 406 Q 353 903 353 1747 Q 353 2603 823 3093 Q 1294 3584 2113 3584 Q 2378 3584 2631 3529 Q 2884 3475 3122 3366 z" transform="scale(0.015625)"/><path id="DejaVuSans-79" d="M 2059 -325 Q 1816 -950 1584 -1140 Q 1353 -1331 966 -1331 L 506 -1331 L 506 -850 L 844 -850 Q 1081 -850 1212 -737 Q 1344 -625 1503 -206 L 1606 56 L 191 3500 L 800 3500 L 1894 763 L 2988 3500 L 3597 3500 L 2059 -325 z" transform="scale(0.015625)"/></defs><use xlink:href="#DejaVuSans-52"/><use xlink:href="#DejaVuSans-65" x="64.982"/><use xlink:href="#DejaVuSans-67" x="126.506"/><use xlink:href="#DejaVuSans-69" x="189.982"/><use xlink:href="#DejaVuSans-6f" x="217.766"/><use xlink:href="#DejaVuSans-6e" x="278.947"/><use xlink:href="#DejaVuSans-20" x="342.326"/><use xlink:href="#DejaVuSans-46" x="374.113"/><use xlink:href="#DejaVuSans-72" x="424.383"/><use xlink:href="#DejaVuSans-65" x="463.246"/><use xlink:href="#DejaVuSans-71" x="524.77"/><use xlink:href="#DejaVuSans-75" x="588.246"/><use xlink:href="#DejaVuSans-65" x="651.625"/><use xlink:href="#DejaVuSans-6e" x="713.148"/><use xlink:href="#DejaVuSans-63" x="776.527"/><use xlink:href="#DejaVuSans-79" x="831.508"/></g></g></g><g id="legend_1"><g id="patch_69"><path d="M 4.858 688.055456 L 45.276994 688.055456 Q 46.664994 688.055456 46.664994 686.667456 L 46.664994 4.858 Q 46.664994 3.47 45.276994 3.47 L 4.858 3.47 Q 3.47 3.47 3.47 4.858 L 3.47 686.667456 Q 3.47 688.055456 4.858 688.055456 z" opacity="0.8" stroke="#cccccc" stroke-linejoin="miter"/></g><g id="patch_70"><path d="M 6.246 11.519316 L 20.126 11.519316 L 20.126 6.661316 L 6.246 6.661316 z" fill="#ac5953"/></g><g id="text_2"><g transform="translate(25.678 11.519316) scale(0.0694 -0.0694)" fill="#ffffff"><defs><path id="DejaVuSans-53" d="M 3425 4513 L 3425 3897 Q 3066 4069 2747 4153 Q 2428 4238 2131 4238 Q 1616 4238 1336 4038 Q 1056 3838 1056 3469 Q 1056 3159 1242 3001 Q 1428 2844 1947 2747 L 2328 2669 Q 3034 2534 3370 2195 Q 3706 1856 3706 1288 Q 3706 609 3251 259 Q 2797 -91 1919 -91 Q 1588 -91 1214 -16 Q 841 59 441 206 L 441 856 Q 825 641 1194 531 Q 1563 422 1919 422 Q 2459 422 2753 634 Q 3047 847 3047 1241 Q 3047 1584 2836 1778 Q 2625 1972 2144 2069 L 1759 2144 Q 1053 2284 737 2584 Q 422 2884 422 3419 Q 422 4038 858 4394 Q 1294 4750 2059 4750 Q 2388 4750 2728 4690 Q 3069 4631 3425 4513 z" transform="scale(0.015625)"/><path id="DejaVuSans-55" d="M 556 4666 L 1191 4666 L 1191 1831 Q 1191 1081 1462 751 Q 1734 422 2344 422 Q 2950 422 3222 751 Q 3494 1081 3494 1831 L 3494 4666 L 4128 4666 L 4128 1753 Q 4128 841 3676 375 Q 3225 -91 2344 -91 Q 1459 -91 1007 375 Q 556 841 556 1753 L 556 4666 z" transform="scale(0.015625)"/></defs><use xlink:href="#DejaVuSans-53"/><use xlink:href="#DejaVuSans-55" x="63.477"/></g></g><g id="patch_71"><path d="M 6.246 21.705934 L 20.126 21.705934 L 20.126 16.847934 L 6.246 16.847934 z" fill="#a840bf"/></g><g id="text_3"><g transform="translate(25.678 21.705934) scale(0.0694 -0.0694)" fill="#ffffff"><defs><path id="DejaVuSans-42" d="M 1259 2228 L 1259 519 L 2272 519 Q 2781 519 3026 730 Q 3272 941 3272 1375 Q 3272 1813 3026 2020 Q 2781 2228 2272 2228 L 1259 2228 z M 1259 4147 L 1259 2741 L 2194 2741 Q 2656 2741 2882 2914 Q 3109 3088 3109 3444 Q 3109 3797 2882 3972 Q 2656 4147 2194 4147 L 1259 4147 z M 628 4666 L 2241 4666 Q 2963 4666 3353 4366 Q 3744 4066 3744 3513 Q 3744 3084 3544 2831 Q 3344 2578 2956 2516 Q 3422 2416 3680 2098 Q 3938 1781 3938 1306 Q 3938 681 3513 340 Q 3088 0 2303 0 L 628 0 L 628 4666 z" transform="scale(0.015625)"/></defs><use xlink:href="#DejaVuSans-53"/><use xlink:href="#DejaVuSans-42" x="63.477"/></g></g><g id="patch_72"><path d="M 6.246 31.892553 L 20.126 31.892553 L 20.126 27.034553 L 6.246 27.034553 z" fill="#651f93"/></g><g id="text_4"><g transform="translate(25.678 31.892553) scale(0.0694 -0.0694)" fill="#ffffff"><defs><path id="DejaVuSans-48" d="M 628 4666 L 1259 4666 L 1259 2753 L 3553 2753 L 3553 4666 L 4184 4666 L 4184 0 L 3553 0 L 3553 2222 L 1259 2222 L 1259 0 L 628 0 L 628 4666 z" transform="scale(0.015625)"/><path id="DejaVuSans-49" d="M 628 4666 L 1259 4666 L 1259 0 L 628 0 L 628 4666 z" transform="scale(0.015625)"/></defs><use xlink:href="#DejaVuSans-48"/><use xlink:href="#DejaVuSans-49" x="75.195"/></g></g><g id="patch_73"><path d="M 6.246 42.079172 L 20.126 42.079172 L 20.126 37.221172 L 6.246 37.221172 z" fill="#862d36"/></g><g id="text_5"><g transform="translate(25.678 42.079172) scale(0.0694 -0.0694)" fill="#ffffff"><use xlink:href="#DejaVuSans-53"/><use xlink:href="#DejaVuSans-49" x="63.477"/></g></g><g id="patch_74"><path d="M 6.246 52.265791 L 20.126 52.265791 L 20.126 47.407791 L 6.246 47.407791 z" fill="#1f937c"/></g><g id="text_6"><g transform="translate(25.678 52.265791) scale(0.0694 -0.0694)" fill="#ffffff"><defs><path id="DejaVuSans-43" d="M 4122 4306 L 4122 3641 Q 3803 3938 3442 4084 Q 3081 4231 2675 4231 Q 1875 4231 1450 3742 Q 1025 3253 1025 2328 Q 1025 1406 1450 917 Q 1875 428 2675 428 Q 3081 428 3442 575 Q 3803 722 4122 1019 L 4122 359 Q 3791 134 3420 21 Q 3050 -91 2638 -91 Q 1578 -91 968 557 Q 359 1206 359 2328 Q 359 3453 968 4101 Q 1578 4750 2638 4750 Q 3056 4750 3426 4639 Q 3797 4528 4122 4306 z" transform="scale(0.015625)"/></defs><use xlink:href="#DejaVuSans-43"/><use xlink:href="#DejaVuSans-43" x="69.824"/></g></g><g id="patch_75"><path d="M 6.246 62.452409 L 20.126 62.452409 L 20.126 57.594409 L 6.246 57.594409 z" fill="#2dbfd2"/></g><g id="text_7"><g transform="translate(25.678 62.452409) scale(0.0694 -0.0694)" fill="#ffffff"><defs><path id="DejaVuSans-57" d="M 213 4666 L 850 4666 L 1831 722 L 2809 4666 L 3519 4666 L 4500 722 L 5478 4666 L 6119 4666 L 4947 0 L 4153 0 L 3169 4050 L 2175 0 L 1381 0 L 213 4666 z" transform="scale(0.015625)"/></defs><use xlink:href="#DejaVuSans-55"/><use xlink:href="#DejaVuSans-57" x="73.193"/></g></g><g id="patch_76"><path d="M 6.246 72.639028 L 20.126 72.639028 L 20.126 67.781028 L 6.246 67.781028 z" fill="#1f9327"/></g><g id="text_8"><g transform="translate(25.678 72.639028) scale(0.0694 -0.0694)" fill="#ffffff"><defs><path id="DejaVuSans-4c" d="M 628 4666 L 1259 4666 L 1259 531 L 3531 531 L 3531 0 L 628 0 L 628 4666 z" transform="scale(0.015625)"/><path id="DejaVuSans-4d" d="M 628 4666 L 1569 4666 L 2759 1491 L 3956 4666 L 4897 4666 L 4897 0 L 4281 0 L 4281 4097 L 3078 897 L 2444 897 L 1241 4097 L 1241 0 L 628 0 L 628 4666 z" transform="scale(0.015625)"/></defs><use xlink:href="#DejaVuSans-4c"/><use xlink:href="#DejaVuSans-4d" x="55.713"/></g></g><g id="patch_77"><path d="M 6.246 82.825647 L 20.126 82.825647 L 20.126 77.967647 L 6.246 77.967647 z" fill="#5372ac"/></g><g id="text_9"><g transform="translate(25.678 82.825647) scale(0.0694 -0.0694)" fill="#ffffff"><defs><path id="DejaVuSans-56" d="M 1831 0 L 50 4666 L 709 4666 L 2188 738 L 3669 4666 L 4325 4666 L 2547 0 L 1831 0 z" transform="scale(0.015625)"/></defs><use xlink:href="#DejaVuSans-56"/><use xlink:href="#DejaVuSans-53" x="68.408"/></g></g><g id="patch_78"><path d="M 6.246 93.012266 L 20.126 93.012266 L 20.126 88.154266 L 6.246 88.154266 z" fill="#7f2dd2"/></g><g id="text_10"><g transform="translate(25.678 93.012266) scale(0.0694 -0.0694)" fill="#ffffff"><use xlink:href="#DejaVuSans-53"/><use xlink:href="#DejaVuSans-4c" x="63.477"/></g></g><g id="patch_79"><path d="M 6.246 103.198884 L 20.126 103.198884 L 20.126 98.340884 L 6.246 98.340884 z" fill="#6ce085"/></g><g id="text_11"><g transform="translate(25.678 103.198884) scale(0.0694 -0.0694)" fill="#ffffff"><defs><path id="DejaVuSans-47" d="M 3809 666 L 3809 1919 L 2778 1919 L 2778 2438 L 4434 2438 L 4434 434 Q 4069 175 3628 42 Q 3188 -91 2688 -91 Q 1594 -91 976 548 Q 359 1188 359 2328 Q 359 3472 976 4111 Q 1594 4750 2688 4750 Q 3144 4750 3555 4637 Q 3966 4525 4313 4306 L 4313 3634 Q 3963 3931 3569 4081 Q 3175 4231 2741 4231 Q 1884 4231 1454 3753 Q 1025 3275 1025 2328 Q 1025 1384 1454 906 Q 1884 428 2741 428 Q 3075 428 3337 486 Q 3600 544 3809 666 z" transform="scale(0.015625)"/></defs><use xlink:href="#DejaVuSans-47"/><use xlink:href="#DejaVuSans-57" x="77.49"/></g></g><g id="patch_80"><path d="M 6.246 113.385503 L 20.126 113.385503 L 20.126 108.527503 L 6.246 108.527503 z" fill="#79d2b5"/></g><g id="text_12"><g transform="translate(25.678 113.385503) scale(0.0694 -0.0694)" fill="#ffffff"><use xlink:href="#DejaVuSans-4c"/><use xlink:href="#DejaVuSans-43" x="55.713"/></g></g><g id="patch_81"><path d="M 6.246 123.572122 L 20.126 123.572122 L 20.126 118.714122 L 6.246 118.714122 z" fill="#6ce098"/></g><g id="text_13"><g transform="translate(25.678 123.572122) scale(0.0694 -0.0694)" fill="#ffffff"><use xlink:href="#DejaVuSans-4c"/><use xlink:href="#DejaVuSans-46" x="55.713"/></g></g><g id="patch_82"><path d="M 6.246 133.758741 L 20.126 133.758741 L 20.126 128.900741 L 6.246 128.900741 z" fill="#2dd235"/></g><g id="text_14"><g transform="translate(25.678 133.758741) scale(0.0694 -0.0694)" fill="#ffffff"><defs><path id="DejaVuSans-44" d="M 1259 4147 L 1259 519 L 2022 519 Q 2988 519 3436 956 Q 3884 1394 3884 2338 Q 3884 3275 3436 3711 Q 2988 4147 2022 4147 L 1259 4147 z M 628 4666 L 1925 4666 Q 3281 4666 3915 4102 Q 4550 3538 4550 2338 Q 4550 1131 3912 565 Q 3275 0 1925 0 L 628 0 L 628 4666 z" transform="scale(0.015625)"/></defs><use xlink:href="#DejaVuSans-44"/><use xlink:href="#DejaVuSans-53" x="77.002"/></g></g><g id="patch_83"><path d="M 6.246 143.945359 L 20.126 143.945359 L 20.126 139.087359 L 6.246 139.087359 z" fill="#87c5a1"/></g><g id="text_15"><g transform="translate(25.678 143.945359) scale(0.0694 -0.0694)" fill="#ffffff"><defs><path id="DejaVuSans-41" d="M 2188 4044 L 1331 1722 L 3047 1722 L 2188 4044 z M 1831 4666 L 2547 4666 L 4325 0 L 3669 0 L 3244 1197 L 1141 1197 L 716 0 L 50 0 L 1831 4666 z" transform="scale(0.015625)"/></defs><use xlink:href="#DejaVuSans-4d"/><use xlink:href="#DejaVuSans-41" x="86.279"/></g></g><g id="patch_84"><path d="M 6.246 154.131978 L 20.126 154.131978 L 20.126 149.273978 L 6.246 149.273978 z" fill="#d279a6"/></g><g id="text_16"><g transform="translate(25.678 154.131978) scale(0.0694 -0.0694)" fill="#ffffff"><use xlink:href="#DejaVuSans-43"/><use xlink:href="#DejaVuSans-4c" x="69.824"/></g></g><g id="patch_85"><path d="M 6.246 164.318597 L 20.126 164.318597 L 20.126 159.460597 L 6.246 159.460597 z" fill="#6ce0bd"/></g><g id="text_17"><g transform="translate(25.678 164.318597) scale(0.0694 -0.0694)" fill="#ffffff"><use xlink:href="#DejaVuSans-53"/><use xlink:href="#DejaVuSans-48" x="63.477"/></g></g><g id="patch_86"><path d="M 6.246 174.505216 L 20.126 174.505216 L 20.126 169.647216 L 6.246 169.647216 z" fill="#2d4f86"/></g><g id="text_18"><g transform="translate(25.678 174.505216) scale(0.0694 -0.0694)" fill="#ffffff"><defs><path id="DejaVuSans-54" d="M -19 4666 L 3928 4666 L 3928 4134 L 2272 4134 L 2272 0 L 1638 0 L 1638 4134 L -19 4134 L -19 4666 z" transform="scale(0.015625)"/><path id="DejaVuSans-45" d="M 628 4666 L 3578 4666 L 3578 4134 L 1259 4134 L 1259 2753 L 3481 2753 L 3481 2222 L 1259 2222 L 1259 531 L 3634 531 L 3634 0 L 628 0 L 628 4666 z" transform="scale(0.015625)"/></defs><use xlink:href="#DejaVuSans-47"/><use xlink:href="#DejaVuSans-41" x="77.49"/><use xlink:href="#DejaVuSans-54" x="138.148"/><use xlink:href="#DejaVuSans-45" x="199.232"/></g></g><g id="patch_87"><path d="M 6.246 184.691834 L 20.126 184.691834 L 20.126 179.833834 L 6.246 179.833834 z" fill="#6c75e0"/></g><g id="text_19"><g transform="translate(25.678 184.691834) scale(0.0694 -0.0694)" fill="#ffffff"><defs><path id="DejaVuSans-4f" d="M 2522 4238 Q 1834 4238 1429 3725 Q 1025 3213 1025 2328 Q 1025 1447 1429 934 Q 1834 422 2522 422 Q 3209 422 3611 934 Q 4013 1447 4013 2328 Q 4013 3213 3611 3725 Q 3209 4238 2522 4238 z M 2522 4750 Q 3503 4750 4090 4092 Q 4678 3434 4678 2328 Q 4678 1225 4090 567 Q 3503 -91 2522 -91 Q 1538 -91 948 565 Q 359 1222 359 2328 Q 359 3434 948 4092 Q 1538 4750 2522 4750 z" transform="scale(0.015625)"/></defs><use xlink:href="#DejaVuSans-4f"/><use xlink:href="#DejaVuSans-45" x="78.711"/></g></g><g id="patch_88"><path d="M 6.246 194.878453 L 20.126 194.878453 L 20.126 190.020453 L 6.246 190.020453 z" fill="#472d86"/></g><g id="text_20"><g transform="translate(25.678 194.878453) scale(0.0694 -0.0694)" fill="#ffffff"><use xlink:href="#DejaVuSans-48"/><use xlink:href="#DejaVuSans-52" x="75.195"/></g></g><g id="patch_89"><path d="M 6.246 205.065072 L 20.126 205.065072 L 20.126 200.207072 L 6.246 200.207072 z" fill="#40b0bf"/></g><g id="text_21"><g transform="translate(25.678 205.065072) scale(0.0694 -0.0694)" fill="#ffffff"><use xlink:href="#DejaVuSans-44"/><use xlink:href="#DejaVuSans-4d" x="77.002"/></g></g><g id="patch_90"><path d="M 6.246 215.251691 L 20.126 215.251691 L 20.126 210.393691 L 6.246 210.393691 z" fill="#79d2b2"/></g><g id="text_22"><g transform="translate(25.678 215.251691) scale(0.0694 -0.0694)" fill="#ffffff"><defs><path id="DejaVuSans-4e" d="M 628 4666 L 1478 4666 L 3547 763 L 3547 4666 L 4159 4666 L 4159 0 L 3309 0 L 1241 3903 L 1241 0 L 628 0 L 628 4666 z" transform="scale(0.015625)"/></defs><use xlink:href="#DejaVuSans-46"/><use xlink:href="#DejaVuSans-4e" x="57.52"/></g></g><g id="patch_91"><path d="M 6.246 225.438309 L 20.126 225.438309 L 20.126 220.580309 L 6.246 220.580309 z" fill="#931f3c"/></g><g id="text_23"><g transform="translate(25.678 225.438309) scale(0.0694 -0.0694)" fill="#ffffff"><use xlink:href="#DejaVuSans-43"/><use xlink:href="#DejaVuSans-41" x="69.824"/></g></g><g id="patch_92"><path d="M 6.246 235.624928 L 20.126 235.624928 L 20.126 230.766928 L 6.246 230.766928 z" fill="#2dd288"/></g><g id="text_24"><g transform="translate(25.678 235.624928) scale(0.0694 -0.0694)" fill="#ffffff"><use xlink:href="#DejaVuSans-53"/><use xlink:href="#DejaVuSans-53" x="63.477"/></g></g><g id="patch_93"><path d="M 6.246 245.811547 L 20.126 245.811547 L 20.126 240.953547 L 6.246 240.953547 z" fill="#d22dd2"/></g><g id="text_25"><g transform="translate(25.678 245.811547) scale(0.0694 -0.0694)" fill="#ffffff"><use xlink:href="#DejaVuSans-43"/><use xlink:href="#DejaVuSans-46" x="69.824"/></g></g><g id="patch_94"><path d="M 6.246 255.998166 L 20.126 255.998166 L 20.126 251.140166 L 6.246 251.140166 z" fill="#b9d279"/></g><g id="text_26"><g transform="translate(25.678 255.998166) scale(0.0694 -0.0694)" fill="#ffffff"><use xlink:href="#DejaVuSans-56"/><use xlink:href="#DejaVuSans-49" x="68.408"/></g></g><g id="patch_95"><path d="M 6.246 266.184784 L 20.126 266.184784 L 20.126 261.326784 L 6.246 261.326784 z" fill="#48783a"/></g><g id="text_27"><g transform="translate(25.678 266.184784) scale(0.0694 -0.0694)" fill="#ffffff"><use xlink:href="#DejaVuSans-4d"/><use xlink:href="#DejaVuSans-45" x="86.279"/></g></g><g id="patch_96"><path d="M 6.246 276.371403 L 20.126 276.371403 L 20.126 271.513403 L 6.246 271.513403 z" fill="#d279c3"/></g><g id="text_28"><g transform="translate(25.678 276.371403) scale(0.0694 -0.0694)" fill="#ffffff"><defs><path id="DejaVuSans-59" d="M -13 4666 L 666 4666 L 1959 2747 L 3244 4666 L 3922 4666 L 2272 2222 L 2272 0 L 1638 0 L 1638 2222 L -13 4666 z" transform="scale(0.015625)"/></defs><use xlink:href="#DejaVuSans-41"/><use xlink:href="#DejaVuSans-59" x="60.658"/></g></g><g id="patch_97"><path d="M 6.246 286.558022 L 20.126 286.558022 L 20.126 281.700022 L 6.246 281.700022 z" fill="#cae06c"/></g><g id="text_29"><g transform="translate(25.678 286.558022) scale(0.0694 -0.0694)" fill="#ffffff"><defs><path id="DejaVuSans-50" d="M 1259 4147 L 1259 2394 L 2053 2394 Q 2494 2394 2734 2622 Q 2975 2850 2975 3272 Q 2975 3691 2734 3919 Q 2494 4147 2053 4147 L 1259 4147 z M 628 4666 L 2053 4666 Q 2838 4666 3239 4311 Q 3641 3956 3641 3272 Q 3641 2581 3239 2228 Q 2838 1875 2053 1875 L 1259 1875 L 1259 0 L 628 0 L 628 4666 z" transform="scale(0.015625)"/></defs><use xlink:href="#DejaVuSans-46"/><use xlink:href="#DejaVuSans-50" x="57.52"/></g></g><g id="patch_98"><path d="M 6.246 296.744641 L 20.126 296.744641 L 20.126 291.886641 L 6.246 291.886641 z" fill="#c58799"/></g><g id="text_30"><g transform="translate(25.678 296.744641) scale(0.0694 -0.0694)" fill="#ffffff"><use xlink:href="#DejaVuSans-52"/><use xlink:href="#DejaVuSans-4d" x="69.482"/></g></g><g id="patch_99"><path d="M 6.246 306.931259 L 20.126 306.931259 L 20.126 302.073259 L 6.246 302.073259 z" fill="#72e06c"/></g><g id="text_31"><g transform="translate(25.678 306.931259) scale(0.0694 -0.0694)" fill="#ffffff"><use xlink:href="#DejaVuSans-55"/><use xlink:href="#DejaVuSans-47" x="73.193"/></g></g><g id="patch_100"><path d="M 6.246 317.117878 L 20.126 317.117878 L 20.126 312.259878 L 6.246 312.259878 z" fill="#d22f2d"/></g><g id="text_32"><g transform="translate(25.678 317.117878) scale(0.0694 -0.0694)" fill="#ffffff"><use xlink:href="#DejaVuSans-4f"/><use xlink:href="#DejaVuSans-53" x="78.711"/></g></g><g id="patch_101"><path d="M 6.246 327.304497 L 20.126 327.304497 L 20.126 322.446497 L 6.246 322.446497 z" fill="#3a7877"/></g><g id="text_33"><g transform="translate(25.678 327.304497) scale(0.0694 -0.0694)" fill="#ffffff"><use xlink:href="#DejaVuSans-4d"/><use xlink:href="#DejaVuSans-53" x="86.279"/></g></g><g id="patch_102"><path d="M 6.246 337.491116 L 20.126 337.491116 L 20.126 332.633116 L 6.246 332.633116 z" fill="#6b1f93"/></g><g id="text_34"><g transform="translate(25.678 337.491116) scale(0.0694 -0.0694)" fill="#ffffff"><use xlink:href="#DejaVuSans-50"/><use xlink:href="#DejaVuSans-41" x="53.928"/></g></g><g id="patch_103"><path d="M 6.246 347.677734 L 20.126 347.677734 L 20.126 342.819734 L 6.246 342.819734 z" fill="#9587c5"/></g><g id="text_35"><g transform="translate(25.678 347.677734) scale(0.0694 -0.0694)" fill="#ffffff"><defs><path id="DejaVuSans-4b" d="M 628 4666 L 1259 4666 L 1259 2694 L 3353 4666 L 4166 4666 L 1850 2491 L 4331 0 L 3500 0 L 1259 2247 L 1259 0 L 628 0 L 628 4666 z" transform="scale(0.015625)"/></defs><use xlink:href="#DejaVuSans-53"/><use xlink:href="#DejaVuSans-4b" x="63.477"/></g></g><g id="patch_104"><path d="M 6.246 357.864353 L 20.126 357.864353 L 20.126 353.006353 L 6.246 353.006353 z" fill="#1f3693"/></g><g id="text_36"><g transform="translate(25.678 357.864353) scale(0.0694 -0.0694)" fill="#ffffff"><use xlink:href="#DejaVuSans-49"/><use xlink:href="#DejaVuSans-57" x="29.492"/></g></g><g id="patch_105"><path d="M 6.246 368.050972 L 20.126 368.050972 L 20.126 363.192972 L 6.246 363.192972 z" fill="#1f4e93"/></g><g id="text_37"><g transform="translate(25.678 368.050972) scale(0.0694 -0.0694)" fill="#ffffff"><use xlink:href="#DejaVuSans-45"/><use xlink:href="#DejaVuSans-4c" x="63.184"/></g></g><g id="patch_106"><path d="M 6.246 378.237591 L 20.126 378.237591 L 20.126 373.379591 L 6.246 373.379591 z" fill="#40bf90"/></g><g id="text_38"><g transform="translate(25.678 378.237591) scale(0.0694 -0.0694)" fill="#ffffff"><use xlink:href="#DejaVuSans-54"/><use xlink:href="#DejaVuSans-59" x="61.084"/></g></g><g id="patch_107"><path d="M 6.246 388.424209 L 20.126 388.424209 L 20.126 383.566209 L 6.246 383.566209 z" fill="#85d279"/></g><g id="text_39"><g transform="translate(25.678 388.424209) scale(0.0694 -0.0694)" fill="#ffffff"><defs><path id="DejaVuSans-74" d="M 1172 4494 L 1172 3500 L 2356 3500 L 2356 3053 L 1172 3053 L 1172 1153 Q 1172 725 1289 603 Q 1406 481 1766 481 L 2356 481 L 2356 0 L 1766 0 Q 1100 0 847 248 Q 594 497 594 1153 L 594 3053 L 172 3053 L 172 3500 L 594 3500 L 594 4494 L 1172 4494 z" transform="scale(0.015625)"/></defs><use xlink:href="#DejaVuSans-74"/><use xlink:href="#DejaVuSans-72" x="39.209"/></g></g><g id="patch_108"><path d="M 6.246 398.610828 L 20.126 398.610828 L 20.126 393.752828 L 6.246 393.752828 z" fill="#bf4064"/></g><g id="text_40"><g transform="translate(25.678 398.610828) scale(0.0694 -0.0694)" fill="#ffffff"><defs><path id="DejaVuSans-58" d="M 403 4666 L 1081 4666 L 2241 2931 L 3406 4666 L 4084 4666 L 2584 2425 L 4184 0 L 3506 0 L 2194 1984 L 872 0 L 191 0 L 1856 2491 L 403 4666 z" transform="scale(0.015625)"/></defs><use xlink:href="#DejaVuSans-58"/><use xlink:href="#DejaVuSans-44" x="68.506"/></g></g><g id="patch_109"><path d="M 6.246 408.797447 L 20.126 408.797447 L 20.126 403.939447 L 6.246 403.939447 z" fill="#7e79d2"/></g><g id="text_41"><g transform="translate(25.678 408.797447) scale(0.0694 -0.0694)" fill="#ffffff"><use xlink:href="#DejaVuSans-57"/><use xlink:href="#DejaVuSans-52" x="98.877"/></g></g><g id="patch_110"><path d="M 6.246 418.984066 L 20.126 418.984066 L 20.126 414.126066 L 6.246 414.126066 z" fill="#d28179"/></g><g id="text_42"><g transform="translate(25.678 418.984066) scale(0.0694 -0.0694)" fill="#ffffff"><use xlink:href="#DejaVuSans-44"/><use xlink:href="#DejaVuSans-4e" x="77.002"/></g></g><g id="patch_111"><path d="M 6.246 429.170684 L 20.126 429.170684 L 20.126 424.312684 L 6.246 424.312684 z" fill="#90ac53"/></g><g id="text_43"><g transform="translate(25.678 429.170684) scale(0.0694 -0.0694)" fill="#ffffff"><use xlink:href="#DejaVuSans-4d"/><use xlink:href="#DejaVuSans-57" x="86.279"/></g></g><g id="patch_112"><path d="M 6.246 439.357303 L 20.126 439.357303 L 20.126 434.499303 L 6.246 434.499303 z" fill="#2d6d86"/></g><g id="text_44"><g transform="translate(25.678 439.357303) scale(0.0694 -0.0694)" fill="#ffffff"><use xlink:href="#DejaVuSans-54"/><use xlink:href="#DejaVuSans-53" x="61.084"/></g></g><g id="patch_113"><path d="M 6.246 449.543922 L 20.126 449.543922 L 20.126 444.685922 L 6.246 444.685922 z" fill="#c58f87"/></g><g id="text_45"><g transform="translate(25.678 449.543922) scale(0.0694 -0.0694)" fill="#ffffff"><use xlink:href="#DejaVuSans-42"/><use xlink:href="#DejaVuSans-4b" x="68.604"/></g></g><g id="patch_114"><path d="M 6.246 459.730541 L 20.126 459.730541 L 20.126 454.872541 L 6.246 454.872541 z" fill="#bf7140"/></g><g id="text_46"><g transform="translate(25.678 459.730541) scale(0.0694 -0.0694)" fill="#ffffff"><use xlink:href="#DejaVuSans-43"/><use xlink:href="#DejaVuSans-54" x="69.824"/></g></g><g id="patch_115"><path d="M 6.246 469.917159 L 20.126 469.917159 L 20.126 465.059159 L 6.246 465.059159 z" fill="#932d1f"/></g><g id="text_47"><g transform="translate(25.678 469.917159) scale(0.0694 -0.0694)" fill="#ffffff"><use xlink:href="#DejaVuSans-48"/><use xlink:href="#DejaVuSans-46" x="75.195"/></g></g><g id="patch_116"><path d="M 6.246 480.103778 L 20.126 480.103778 L 20.126 475.245778 L 6.246 475.245778 z" fill="#3a3c78"/></g><g id="text_48"><g transform="translate(25.678 480.103778) scale(0.0694 -0.0694)" fill="#ffffff"><defs><path id="DejaVuSans-51" d="M 2522 4238 Q 1834 4238 1429 3725 Q 1025 3213 1025 2328 Q 1025 1447 1429 934 Q 1834 422 2522 422 Q 3209 422 3611 934 Q 4013 1447 4013 2328 Q 4013 3213 3611 3725 Q 3209 4238 2522 4238 z M 3406 84 L 4238 -825 L 3475 -825 L 2784 -78 Q 2681 -84 2626 -87 Q 2572 -91 2522 -91 Q 1538 -91 948 567 Q 359 1225 359 2328 Q 359 3434 948 4092 Q 1538 4750 2522 4750 Q 3503 4750 4090 4092 Q 4678 3434 4678 2328 Q 4678 1516 4351 937 Q 4025 359 3406 84 z" transform="scale(0.015625)"/></defs><use xlink:href="#DejaVuSans-51"/><use xlink:href="#DejaVuSans-57" x="78.711"/></g></g><g id="patch_117"><path d="M 6.246 490.290397 L 20.126 490.290397 L 20.126 485.432397 L 6.246 485.432397 z" fill="#e0cc6c"/></g><g id="text_49"><g transform="translate(25.678 490.290397) scale(0.0694 -0.0694)" fill="#ffffff"><use xlink:href="#DejaVuSans-53"/><use xlink:href="#DejaVuSans-50" x="63.477"/></g></g><g id="patch_118"><path d="M 6.246 500.477016 L 20.126 500.477016 L 20.126 495.619016 L 6.246 495.619016 z" fill="#c56ce0"/></g><g id="text_50"><g transform="translate(25.678 500.477016) scale(0.0694 -0.0694)" fill="#ffffff"><use xlink:href="#DejaVuSans-55"/><use xlink:href="#DejaVuSans-59" x="73.193"/></g></g><g id="patch_119"><path d="M 6.246 510.663634 L 20.126 510.663634 L 20.126 505.805634 L 6.246 505.805634 z" fill="#bf4080"/></g><g id="text_51"><g transform="translate(25.678 510.663634) scale(0.0694 -0.0694)" fill="#ffffff"><use xlink:href="#DejaVuSans-57"/><use xlink:href="#DejaVuSans-4d" x="98.877"/></g></g><g id="patch_120"><path d="M 6.246 520.850253 L 20.126 520.850253 L 20.126 515.992253 L 6.246 515.992253 z" fill="#86762d"/></g><g id="text_52"><g transform="translate(25.678 520.850253) scale(0.0694 -0.0694)" fill="#ffffff"><use xlink:href="#DejaVuSans-49"/><use xlink:href="#DejaVuSans-4e" x="29.492"/></g></g><g id="patch_121"><path d="M 6.246 531.036872 L 20.126 531.036872 L 20.126 526.178872 L 6.246 526.178872 z" fill="#c5d22d"/></g><g id="text_53"><g transform="translate(25.678 531.036872) scale(0.0694 -0.0694)" fill="#ffffff"><use xlink:href="#DejaVuSans-42"/><use xlink:href="#DejaVuSans-57" x="64.979"/></g></g><g id="patch_122"><path d="M 6.246 541.223491 L 20.126 541.223491 L 20.126 536.365491 L 6.246 536.365491 z" fill="#abc587"/></g><g id="text_54"><g transform="translate(25.678 541.223491) scale(0.0694 -0.0694)" fill="#ffffff"><use xlink:href="#DejaVuSans-54"/><use xlink:href="#DejaVuSans-57" x="61.084"/></g></g><g id="patch_123"><path d="M 6.246 551.410109 L 20.126 551.410109 L 20.126 546.552109 L 6.246 546.552109 z" fill="#c587a2"/></g><g id="text_55"><g transform="translate(25.678 551.410109) scale(0.0694 -0.0694)" fill="#ffffff"><use xlink:href="#DejaVuSans-43"/><use xlink:href="#DejaVuSans-56" x="69.824"/></g></g><g id="patch_124"><path d="M 6.246 561.596728 L 20.126 561.596728 L 20.126 556.738728 L 6.246 556.738728 z" fill="#2d4186"/></g><g id="text_56"><g transform="translate(25.678 561.596728) scale(0.0694 -0.0694)" fill="#ffffff"><use xlink:href="#DejaVuSans-4d"/><use xlink:href="#DejaVuSans-4c" x="86.279"/></g></g><g id="patch_125"><path d="M 6.246 571.783347 L 20.126 571.783347 L 20.126 566.925347 L 6.246 566.925347 z" fill="#e06ca4"/></g><g id="text_57"><g transform="translate(25.678 571.783347) scale(0.0694 -0.0694)" fill="#ffffff"><use xlink:href="#DejaVuSans-52"/><use xlink:href="#DejaVuSans-50" x="69.482"/></g></g><g id="patch_126"><path d="M 6.246 581.969966 L 20.126 581.969966 L 20.126 577.111966 L 6.246 577.111966 z" fill="#c59487"/></g><g id="text_58"><g transform="translate(25.678 581.969966) scale(0.0694 -0.0694)" fill="#ffffff"><defs><path id="DejaVuSans-70" d="M 1159 525 L 1159 -1331 L 581 -1331 L 581 3500 L 1159 3500 L 1159 2969 Q 1341 3281 1617 3432 Q 1894 3584 2278 3584 Q 2916 3584 3314 3078 Q 3713 2572 3713 1747 Q 3713 922 3314 415 Q 2916 -91 2278 -91 Q 1894 -91 1617 61 Q 1341 213 1159 525 z M 3116 1747 Q 3116 2381 2855 2742 Q 2594 3103 2138 3103 Q 1681 3103 1420 2742 Q 1159 2381 1159 1747 Q 1159 1113 1420 752 Q 1681 391 2138 391 Q 2594 391 2855 752 Q 3116 1113 3116 1747 z" transform="scale(0.015625)"/><path id="DejaVuSans-73" d="M 2834 3397 L 2834 2853 Q 2591 2978 2328 3040 Q 2066 3103 1784 3103 Q 1356 3103 1142 2972 Q 928 2841 928 2578 Q 928 2378 1081 2264 Q 1234 2150 1697 2047 L 1894 2003 Q 2506 1872 2764 1633 Q 3022 1394 3022 966 Q 3022 478 2636 193 Q 2250 -91 1575 -91 Q 1294 -91 989 -36 Q 684 19 347 128 L 347 722 Q 666 556 975 473 Q 1284 391 1588 391 Q 1994 391 2212 530 Q 2431 669 2431 922 Q 2431 1156 2273 1281 Q 2116 1406 1581 1522 L 1381 1569 Q 847 1681 609 1914 Q 372 2147 372 2553 Q 372 3047 722 3315 Q 1072 3584 1716 3584 Q 2034 3584 2315 3537 Q 2597 3491 2834 3397 z" transform="scale(0.015625)"/></defs><use xlink:href="#DejaVuSans-70"/><use xlink:href="#DejaVuSans-73" x="63.477"/></g></g><g id="patch_127"><path d="M 6.246 592.156584 L 20.126 592.156584 L 20.126 587.298584 L 6.246 587.298584 z" fill="#87c59d"/></g><g id="text_59"><g transform="translate(25.678 592.156584) scale(0.0694 -0.0694)" fill="#ffffff"><use xlink:href="#DejaVuSans-4c"/><use xlink:href="#DejaVuSans-4b" x="55.713"/></g></g><g id="patch_128"><path d="M 6.246 602.343203 L 20.126 602.343203 L 20.126 597.485203 L 6.246 597.485203 z" fill="#1f9376"/></g><g id="text_60"><g transform="translate(25.678 602.343203) scale(0.0694 -0.0694)" fill="#ffffff"><use xlink:href="#DejaVuSans-54"/><use xlink:href="#DejaVuSans-4f" x="61.084"/></g></g><g id="patch_129"><path d="M 6.246 612.529822 L 20.126 612.529822 L 20.126 607.671822 L 6.246 607.671822 z" fill="#40bf77"/></g><g id="text_61"><g transform="translate(25.678 612.529822) scale(0.0694 -0.0694)" fill="#ffffff"><use xlink:href="#DejaVuSans-54"/><use xlink:href="#DejaVuSans-54" x="59.334"/></g></g><g id="patch_130"><path d="M 6.246 622.716441 L 20.126 622.716441 L 20.126 617.858441 L 6.246 617.858441 z" fill="#538bac"/></g><g id="text_62"><g transform="translate(25.678 622.716441) scale(0.0694 -0.0694)" fill="#ffffff"><use xlink:href="#DejaVuSans-46"/><use xlink:href="#DejaVuSans-43" x="57.52"/></g></g><g id="patch_131"><path d="M 6.246 632.903059 L 20.126 632.903059 L 20.126 628.045059 L 6.246 628.045059 z" fill="#c587b2"/></g><g id="text_63"><g transform="translate(25.678 632.903059) scale(0.0694 -0.0694)" fill="#ffffff"><use xlink:href="#DejaVuSans-43"/><use xlink:href="#DejaVuSans-48" x="69.824"/></g></g><g id="patch_132"><path d="M 6.246 643.089678 L 20.126 643.089678 L 20.126 638.231678 L 6.246 638.231678 z" fill="#3a7877"/></g><g id="text_64"><g transform="translate(25.678 643.089678) scale(0.0694 -0.0694)" fill="#ffffff"><use xlink:href="#DejaVuSans-54"/><use xlink:href="#DejaVuSans-43" x="55.209"/></g></g><g id="patch_133"><path d="M 6.246 653.276297 L 20.126 653.276297 L 20.126 648.418297 L 6.246 648.418297 z" fill="#8840bf"/></g><g id="text_65"><g transform="translate(25.678 653.276297) scale(0.0694 -0.0694)" fill="#ffffff"><use xlink:href="#DejaVuSans-53"/><use xlink:href="#DejaVuSans-44" x="63.477"/></g></g><g id="patch_134"><path d="M 6.246 663.462916 L 20.126 663.462916 L 20.126 658.604916 L 6.246 658.604916 z" fill="#c1d279"/></g><g id="text_66"><g transform="translate(25.678 663.462916) scale(0.0694 -0.0694)" fill="#ffffff"><use xlink:href="#DejaVuSans-48"/><use xlink:href="#DejaVuSans-43" x="75.195"/></g></g><g id="patch_135"><path d="M 6.246 673.649534 L 20.126 673.649534 L 20.126 668.791534 L 6.246 668.791534 z" fill="#56ac53"/></g><g id="text_67"><g transform="translate(25.678 673.649534) scale(0.0694 -0.0694)" fill="#ffffff"><use xlink:href="#DejaVuSans-44"/><use xlink:href="#DejaVuSans-4d" x="77.002"/><use xlink:href="#DejaVuSans-44" x="163.281"/></g></g><g id="patch_136"><path d="M 6.246 683.836153 L 20.126 683.836153 L 20.126 678.978153 L 6.246 678.978153 z" fill="#a12dd2"/></g><g id="text_68"><g transform="translate(25.678 683.836153) scale(0.0694 -0.0694)" fill="#ffffff"><use xlink:href="#DejaVuSans-53"/><use xlink:href="#DejaVuSans-43" x="63.477"/></g></g></g></g></svg>