<svg xmlns:xlink="http://www.w3.org/1999/xlink" width="847.68" height="751.68" viewBox="0 0 635.76 563.76" xmlns="http://www.w3.org/2000/svg" version="1.1"><metadata><rdf:RDF xmlns:dc="http://purl.org/dc/elements/1.1/" xmlns:cc="http://creativecommons.org/ns#" xmlns:rdf="http://www.w3.org/1999/02/22-rdf-syntax-ns#"><cc:Work><dc:type rdf:resource="http://purl.org/dc/dcmitype/StillImage"/><dc:format>image/svg+xml</dc:format><dc:creator><cc:Agent><dc:title>Matplotlib v3.7.1, https://matplotlib.org/</dc:title></cc:Agent></dc:creator></cc:Work></rdf:RDF></metadata><defs><style type="text/css">*{stroke-linejoin:round;stroke-linecap:butt}</style></defs><g id="figure_1"><g id="patch_1"><path d="M 0 563.76 L 635.76 563.76 L 635.76 0 L 0 0 z"/></g><g id="axes_1"><g id="patch_2"><path d="M 542.8746 284.6988 C 542.8746 253.400391 536.104723 222.469142 523.030547 194.032259 C 509.956372 165.595376 490.884642 140.320042 467.126961 119.944493 L 325.827 284.6988 z" fill="#ac5953"/></g><g id="patch_3"><path d="M 467.126961 119.944493 C 460.461564 114.227979 453.455399 108.921217 446.147105 104.053476 C 438.838812 99.185735 431.24185 94.76598 423.398118 90.818585 L 325.827 284.6988 z" fill="#a840bf"/></g><g id="patch_4"><path d="M 423.398118 90.818585 C 398.93301 78.506406 372.357071 70.935509 345.076472 68.506482 C 317.795872 66.077454 290.3004 68.833905 264.044879 76.629989 L 325.827 284.6988 z" fill="#651f93"/></g><g id="patch_5"><path d="M 264.044879 76.629989 C 245.173523 82.233483 227.151925 90.378401 210.4764 100.840432 C 193.800874 111.302462 178.625921 123.984674 165.369459 138.537799 L 325.827 284.6988 z" fill="#862d36"/></g><g id="patch_6"><path d="M 165.369459 138.537799 C 145.305226 160.564588 129.989826 186.488744 120.379585 214.691513 C 110.769343 242.894281 107.068538 272.776172 109.508256 302.471301 L 325.827 284.6988 z" fill="#1f937c"/></g><g id="patch_7"><path d="M 109.508256 302.471301 C 111.57753 327.657553 118.029693 352.289991 128.573431 375.256461 C 139.117168 398.222932 153.591373 419.17251 171.342535 437.159322 L 325.827 284.6988 z" fill="#2dbfd2"/></g><g id="patch_8"><path d="M 171.342535 437.159322 C 175.558887 441.431647 179.950654 445.527226 184.506508 449.435496 C 189.062362 453.343767 193.778382 457.061365 198.642406 460.578701 L 325.827 284.6988 z" fill="#1f9327"/></g><g id="patch_9"><path d="M 198.642406 460.578701 C 202.536139 463.394389 206.522302 466.079998 210.594304 468.631088 C 214.666306 471.182177 218.821901 473.597341 223.05422 475.872586 L 325.827 284.6988 z" fill="#5372ac"/></g><g id="patch_10"><path d="M 223.05422 475.872586 C 228.647756 478.879605 234.370571 481.639685 240.206144 484.144857 C 246.041718 486.65003 251.984429 488.897882 258.017122 490.881925 L 325.827 284.6988 z" fill="#7f2dd2"/></g><g id="patch_11"><path d="M 258.017122 490.881925 C 273.409877 495.944322 289.321242 499.267099 305.453549 500.788094 C 321.585857 502.30909 337.837875 502.018758 353.905563 499.922532 L 325.827 284.6988 z" fill="#6ce085"/></g><g id="patch_12"><path d="M 353.905563 499.922532 C 364.393246 498.554286 374.766905 496.421283 384.9436 493.540578 C 395.120294 490.659873 405.07283 487.039163 414.721633 482.707398 L 325.827 284.6988 z" fill="#79d2b5"/></g><g id="patch_13"><path d="M 414.721633 482.707398 C 423.690185 478.681027 432.37483 474.049974 440.715558 468.846241 C 449.056286 463.642507 457.033842 457.878106 464.5931 451.592868 L 325.827 284.6988 z" fill="#6ce098"/></g><g id="patch_14"><path d="M 464.5931 451.592868 C 467.473335 449.198062 470.291094 446.729097 473.043544 444.188454 C 475.795995 441.647811 478.482215 439.036341 481.099506 436.35667 L 325.827 284.6988 z" fill="#2dd235"/></g><g id="patch_15"><path d="M 481.099506 436.35667 C 481.14182 436.313348 481.184115 436.270008 481.226393 436.22665 C 481.26867 436.183293 481.310929 436.139917 481.35317 436.096524 L 325.827 284.6988 z" fill="#87c5a1"/></g><g id="patch_16"><path d="M 481.35317 436.096524 C 482.322026 435.101249 483.281306 434.096696 484.230877 433.083005 C 485.180448 432.069314 486.120267 431.046531 487.050203 430.014798 L 325.827 284.6988 z" fill="#d279a6"/></g><g id="patch_17"><path d="M 487.050203 430.014798 C 493.849755 422.470925 500.111447 414.459103 505.789108 406.038408 C 511.466769 397.617713 516.54641 388.808893 520.990576 379.676898 L 325.827 284.6988 z" fill="#6ce0bd"/></g><g id="patch_18"><path d="M 520.990576 379.676898 C 521.26854 379.10573 521.543996 378.533344 521.816935 377.959758 C 522.089873 377.386171 522.360293 376.811389 522.628185 376.235428 L 325.827 284.6988 z" fill="#2d4f86"/></g><g id="patch_19"><path d="M 522.628185 376.235428 C 524.291065 372.660282 525.856216 369.040488 527.321895 365.380075 C 528.787573 361.719662 530.153236 358.01999 531.417362 354.285177 L 325.827 284.6988 z" fill="#6c75e0"/></g><g id="patch_20"><path d="M 531.417362 354.285177 C 531.814754 353.111096 532.202082 351.933632 532.579302 350.752915 C 532.956523 349.572198 533.323622 348.388271 533.68056 347.201265 L 325.827 284.6988 z" fill="#472d86"/></g><g id="patch_21"><path d="M 533.68056 347.201265 C 534.578871 344.21391 535.412674 341.207537 536.181388 338.184239 C 536.950102 335.160941 537.653549 332.121422 538.291238 329.067801 L 325.827 284.6988 z" fill="#40b0bf"/></g><g id="patch_22"><path d="M 538.291238 329.067801 C 538.296506 329.042576 538.301769 329.01735 538.307028 328.992123 C 538.312287 328.966896 538.317541 328.941668 538.322791 328.916439 L 325.827 284.6988 z" fill="#79d2b2"/></g><g id="patch_23"><path d="M 538.322791 328.916439 C 538.342477 328.821831 538.362101 328.727209 538.381661 328.632575 C 538.401222 328.53794 538.420719 328.443293 538.440153 328.348632 L 325.827 284.6988 z" fill="#931f3c"/></g><g id="patch_24"><path d="M 538.440153 328.348632 C 538.942598 325.90128 539.40275 323.445435 539.820402 320.982195 C 540.238053 318.518955 540.613143 316.048687 540.945503 313.572497 L 325.827 284.6988 z" fill="#2dd288"/></g><g id="patch_25"><path d="M 540.945503 313.572497 C 540.986983 313.263459 541.027796 312.954333 541.067944 312.64512 C 541.108091 312.335906 541.147572 312.026607 541.186387 311.717223 L 325.827 284.6988 z" fill="#d22dd2"/></g><g id="patch_26"><path d="M 541.186387 311.717223 C 541.205313 311.566367 541.22408 311.415491 541.242689 311.264595 C 541.261298 311.113699 541.279749 310.962784 541.298041 310.811849 L 325.827 284.6988 z" fill="#b9d279"/></g><g id="patch_27"><path d="M 541.298041 310.811849 C 541.309512 310.717196 541.32092 310.622534 541.332267 310.527865 C 541.343613 310.433196 541.354897 310.33852 541.366119 310.243836 L 325.827 284.6988 z" fill="#48783a"/></g><g id="patch_28"><path d="M 541.366119 310.243836 C 541.370668 310.205451 541.375207 310.167064 541.379736 310.128677 C 541.384265 310.090289 541.388783 310.0519 541.393292 310.01351 L 325.827 284.6988 z" fill="#d279c3"/></g><g id="patch_29"><path d="M 541.393292 310.01351 C 541.393442 310.01223 541.393592 310.01095 541.393743 310.009671 C 541.393893 310.008391 541.394043 310.007111 541.394193 310.005832 L 325.827 284.6988 z" fill="#cae06c"/></g><g id="patch_30"><path d="M 541.394193 310.005832 C 541.564256 308.557225 541.719712 307.106941 541.860539 305.6552 C 542.001366 304.203459 542.127555 302.750336 542.239088 301.296052 L 325.827 284.6988 z" fill="#c58799"/></g><g id="patch_31"><path d="M 542.239088 301.296052 C 542.295938 300.554782 542.348979 299.813226 542.398209 299.071412 C 542.447439 298.329597 542.492858 297.587535 542.534463 296.845254 L 325.827 284.6988 z" fill="#72e06c"/></g><g id="patch_32"><path d="M 542.534463 296.845254 C 542.546216 296.635563 542.557665 296.425855 542.568809 296.216131 C 542.579953 296.006407 542.590793 295.796667 542.601329 295.586912 L 325.827 284.6988 z" fill="#d22f2d"/></g><g id="patch_33"><path d="M 542.601329 295.586912 C 542.658014 294.458345 542.705886 293.329352 542.744939 292.200038 C 542.783991 291.070723 542.814225 289.94112 542.835635 288.811333 L 325.827 284.6988 z" fill="#3a7877"/></g><g id="patch_34"><path d="M 542.835635 288.811333 C 542.844668 288.334686 542.852131 287.858011 542.858023 287.381315 C 542.863915 286.904619 542.868236 286.427904 542.870987 285.95118 L 325.827 284.6988 z" fill="#6b1f93"/></g><g id="patch_35"><path d="M 542.870987 285.95118 C 542.871002 285.948603 542.871017 285.946026 542.871031 285.943449 C 542.871046 285.940872 542.871061 285.938295 542.871075 285.935718 L 325.827 284.6988 z" fill="#9587c5"/></g><g id="patch_36"><path d="M 542.871075 285.935718 C 542.871083 285.93443 542.87109 285.933141 542.871097 285.931853 C 542.871105 285.930564 542.871112 285.929276 542.871119 285.927988 L 325.827 284.6988 z" fill="#1f3693"/></g><g id="patch_37"><path d="M 542.871119 285.927988 C 542.871338 285.889334 542.871547 285.850681 542.871745 285.812027 C 542.871943 285.773374 542.872131 285.73472 542.872309 285.696067 L 325.827 284.6988 z" fill="#1f4e93"/></g><g id="patch_38"><path d="M 542.872309 285.696067 C 542.872321 285.69349 542.872333 285.690913 542.872344 285.688336 C 542.872356 285.685759 542.872368 285.683182 542.872379 285.680605 L 325.827 284.6988 z" fill="#40bf90"/></g><g id="patch_39"><path d="M 542.872379 285.680605 C 542.872473 285.65999 542.872563 285.639375 542.87265 285.61876 C 542.872738 285.598144 542.872822 285.577529 542.872904 285.556914 L 325.827 284.6988 z" fill="#85d279"/></g><g id="patch_40"><path d="M 542.872904 285.556914 C 542.872965 285.541452 542.873024 285.525991 542.873082 285.51053 C 542.87314 285.495068 542.873196 285.479607 542.873251 285.464145 L 325.827 284.6988 z" fill="#bf4064"/></g><g id="patch_41"><path d="M 542.873251 285.464145 C 542.873319 285.444818 542.873384 285.425491 542.873447 285.406164 C 542.87351 285.386838 542.873571 285.367511 542.873629 285.348184 L 325.827 284.6988 z" fill="#7e79d2"/></g><g id="patch_42"><path d="M 542.873629 285.348184 C 542.873648 285.341742 542.873667 285.335299 542.873686 285.328857 C 542.873704 285.322415 542.873723 285.315972 542.873741 285.30953 L 325.827 284.6988 z" fill="#d28179"/></g><g id="patch_43"><path d="M 542.873741 285.30953 C 542.873759 285.303088 542.873777 285.296645 542.873794 285.290203 C 542.873812 285.283761 542.873829 285.277318 542.873846 285.270876 L 325.827 284.6988 z" fill="#90ac53"/></g><g id="patch_44"><path d="M 542.873846 285.270876 C 542.873849 285.269588 542.873853 285.268299 542.873856 285.267011 C 542.87386 285.265722 542.873863 285.264434 542.873866 285.263145 L 325.827 284.6988 z" fill="#2d6d86"/></g><g id="patch_45"><path d="M 542.873866 285.263145 C 542.873893 285.252838 542.873919 285.24253 542.873945 285.232222 C 542.87397 285.221915 542.873994 285.211607 542.874018 285.201299 L 325.827 284.6988 z" fill="#c58f87"/></g><g id="patch_46"><path d="M 542.874018 285.201299 C 542.874021 285.200011 542.874024 285.198722 542.874027 285.197434 C 542.87403 285.196145 542.874033 285.194857 542.874036 285.193569 L 325.827 284.6988 z" fill="#bf7140"/></g><g id="patch_47"><path d="M 542.874036 285.193569 C 542.874212 285.116261 542.874347 285.038953 542.874441 284.961645 C 542.874534 284.884337 542.874587 284.807029 542.874598 284.729721 L 325.827 284.6988 z" fill="#932d1f"/></g><g id="patch_48"><path d="M 542.874598 284.729721 C 542.874599 284.724568 542.874599 284.719414 542.874599 284.71426 C 542.8746 284.709106 542.8746 284.703952 542.8746 284.698798 L 325.827 284.6988 z" fill="#3a3c78"/></g><g id="text_1"><g transform="translate(272.383875 26.923584) scale(0.12 -0.12)" fill="#ffffff"><defs><path id="DejaVuSans-52" d="M 2841 2188 Q 3044 2119 3236 1894 Q 3428 1669 3622 1275 L 4263 0 L 3584 0 L 2988 1197 Q 2756 1666 2539 1819 Q 2322 1972 1947 1972 L 1259 1972 L 1259 0 L 628 0 L 628 4666 L 2053 4666 Q 2853 4666 3247 4331 Q 3641 3997 3641 3322 Q 3641 2881 3436 2590 Q 3231 2300 2841 2188 z M 1259 4147 L 1259 2491 L 2053 2491 Q 2509 2491 2742 2702 Q 2975 2913 2975 3322 Q 2975 3731 2742 3939 Q 2509 4147 2053 4147 L 1259 4147 z" transform="scale(0.015625)"/><path id="DejaVuSans-65" d="M 3597 1894 L 3597 1613 L 953 1613 Q 991 1019 1311 708 Q 1631 397 2203 397 Q 2534 397 2845 478 Q 3156 559 3463 722 L 3463 178 Q 3153 47 2828 -22 Q 2503 -91 2169 -91 Q 1331 -91 842 396 Q 353 884 353 1716 Q 353 2575 817 3079 Q 1281 3584 2069 3584 Q 2775 3584 3186 3129 Q 3597 2675 3597 1894 z M 3022 2063 Q 3016 2534 2758 2815 Q 2500 3097 2075 3097 Q 1594 3097 1305 2825 Q 1016 2553 972 2059 L 3022 2063 z" transform="scale(0.015625)"/><path id="DejaVuSans-67" d="M 2906 1791 Q 2906 2416 2648 2759 Q 2391 3103 1925 3103 Q 1463 3103 1205 2759 Q 947 2416 947 1791 Q 947 1169 1205 825 Q 1463 481 1925 481 Q 2391 481 2648 825 Q 2906 1169 2906 1791 z M 3481 434 Q 3481 -459 3084 -895 Q 2688 -1331 1869 -1331 Q 1566 -1331 1297 -1286 Q 1028 -1241 775 -1147 L 775 -588 Q 1028 -725 1275 -790 Q 1522 -856 1778 -856 Q 2344 -856 2625 -561 Q 2906 -266 2906 331 L 2906 616 Q 2728 306 2450 153 Q 2172 0 1784 0 Q 1141 0 747 490 Q 353 981 353 1791 Q 353 2603 747 3093 Q 1141 3584 1784 3584 Q 2172 3584 2450 3431 Q 2728 3278 2906 2969 L 2906 3500 L 3481 3500 L 3481 434 z" transform="scale(0.015625)"/><path id="DejaVuSans-69" d="M 603 3500 L 1178 3500 L 1178 0 L 603 0 L 603 3500 z M 603 4863 L 1178 4863 L 1178 4134 L 603 4134 L 603 4863 z" transform="scale(0.015625)"/><path id="DejaVuSans-6f" d="M 1959 3097 Q 1497 3097 1228 2736 Q 959 2375 959 1747 Q 959 1119 1226 758 Q 1494 397 1959 397 Q 2419 397 2687 759 Q 2956 1122 2956 1747 Q 2956 2369 2687 2733 Q 2419 3097 1959 3097 z M 1959 3584 Q 2709 3584 3137 3096 Q 3566 2609 3566 1747 Q 3566 888 3137 398 Q 2709 -91 1959 -91 Q 1206 -91 779 398 Q 353 888 353 1747 Q 353 2609 779 3096 Q 1206 3584 1959 3584 z" transform="scale(0.015625)"/><path id="DejaVuSans-6e" d="M 3513 2113 L 3513 0 L 2938 0 L 2938 2094 Q 2938 2591 2744 2837 Q 2550 3084 2163 3084 Q 1697 3084 1428 2787 Q 1159 2491 1159 1978 L 1159 0 L 581 0 L 581 3500 L 1159 3500 L 1159 2956 Q 1366 3272 1645 3428 Q 1925 3584 2291 3584 Q 2894 3584 3203 3211 Q 3513 2838 3513 2113 z" transform="scale(0.015625)"/><path id="DejaVuSans-20" transform="scale(0.015625)"/><path id="DejaVuSans-46" d="M 628 4666 L 3309 4666 L 3309 4134 L 1259 4134 L 1259 2759 L 3109 2759 L 3109 2228 L 1259 2228 L 1259 0 L 628 0 L 628 4666 z" transform="scale(0.015625)"/><path id="DejaVuSans-72" d="M 2631 2963 Q 2534 3019 2420 3045 Q 2306 3072 2169 3072 Q 1681 3072 1420 2755 Q 1159 2438 1159 1844 L 1159 0 L 581 0 L 581 3500 L 1159 3500 L 1159 2956 Q 1341 3275 1631 3429 Q 1922 3584 2338 3584 Q 2397 3584 2469 3576 Q 2541 3569 2628 3553 L 2631 2963 z" transform="scale(0.015625)"/><path id="DejaVuSans-71" d="M 947 1747 Q 947 1113 1208 752 Q 1469 391 1925 391 Q 2381 391 2643 752 Q 2906 1113 2906 1747 Q 2906 2381 2643 2742 Q 2381 3103 1925 3103 Q 1469 3103 1208 2742 Q 947 2381 947 1747 z M 2906 525 Q 2725 213 2448 61 Q 2172 -91 1784 -91 Q 1150 -91 751 415 Q 353 922 353 1747 Q 353 2572 751 3078 Q 1150 3584 1784 3584 Q 2172 3584 2448 3432 Q 2725 3281 2906 2969 L 2906 3500 L 3481 3500 L 3481 -1331 L 2906 -1331 L 2906 525 z" transform="scale(0.015625)"/><path id="DejaVuSans-75" d="M 544 1381 L 544 3500 L 1119 3500 L 1119 1403 Q 1119 906 1312 657 Q 1506 409 1894 409 Q 2359 409 2629 706 Q 2900 1003 2900 1516 L 2900 3500 L 3475 3500 L 3475 0 L 2900 0 L 2900 538 Q 2691 219 2414 64 Q 2138 -91 1772 -91 Q 1169 -91 856 284 Q 544 659 544 1381 z M 1991 3584 L 1991 3584 z" transform="scale(0.015625)"/><path id="DejaVuSans-63" d="M 3122 3366 L 3122 2828 Q 2878 2963 2633 3030 Q 2388 3097 2138 3097 Q 1578 3097 1268 2742 Q 959 2388 959 1747 Q 959 1106 1268 751 Q 1578 397 2138 397 Q 2388 397 2633 464 Q 2878 531 3122 666 L 3122 134 Q 2881 22 2623 -34 Q 2366 -91 2075 -91 Q 1284 -91 818 406 Q 353 903 353 1747 Q 353 2603 823 3093 Q 1294 3584 2113 3584 Q 2378 3584 2631 3529 Q 2884 3475 3122 3366 z" transform="scale(0.015625)"/><path id="DejaVuSans-79" d="M 2059 -325 Q 1816 -950 1584 -1140 Q 1353 -1331 966 -1331 L 506 -1331 L 506 -850 L 844 -850 Q 1081 -850 1212 -737 Q 1344 -625 1503 -206 L 1606 56 L 191 3500 L 800 3500 L 1894 763 L 2988 3500 L 3597 3500 L 2059 -325 z" transform="scale(0.015625)"/></defs><use xlink:href="#DejaVuSans-52"/><use xlink:href="#DejaVuSans-65" x="64.982"/><use xlink:href="#DejaVuSans-67" x="126.506"/><use xlink:href="#DejaVuSans-69" x="189.982"/><use xlink:href="#DejaVuSans-6f" x="217.766"/><use xlink:href="#DejaVuSans-6e" x="278.947"/><use xlink:href="#DejaVuSans-20" x="342.326"/><use xlink:href="#DejaVuSans-46" x="374.113"/><use xlink:href="#DejaVuSans-72" x="424.383"/><use xlink:href="#DejaVuSans-65" x="463.246"/><use xlink:href="#DejaVuSans-71" x="524.77"/><use xlink:href="#DejaVuSans-75" x="588.246"/><use xlink:href="#DejaVuSans-65" x="651.625"/><use xlink:href="#DejaVuSans-6e" x="713.148"/><use xlink:href="#DejaVuSans-63" x="776.527"/><use xlink:href="#DejaVuSans-79" x="831.508"/></g></g></g><g id="legend_1"><g id="patch_49"><path d="M 4.858 484.323081 L 45.276994 484.323081 Q 46.664994 484.323081 46.664994 482.935081 L 46.664994 4.858 Q 46.664994 3.47 45.276994 3.47 L 4.858 3.47 Q 3.47 3.47 3.47 4.858 L 3.47 482.935081 Q 3.47 484.323081 4.858 484.323081 z" opacity="0.8" stroke="#cccccc" stroke-linejoin="miter"/></g><g id="patch_50"><path d="M 6.246 11.519316 L 20.126 11.519316 L 20.126 6.661316 L 6.246 6.661316 z" fill="#ac5953"/></g><g id="text_2"><g transform="translate(25.678 11.519316) scale(0.0694 -0.0694)" fill="#ffffff"><defs><path id="DejaVuSans-53" d="M 3425 4513 L 3425 3897 Q 3066 4069 2747 4153 Q 2428 4238 2131 4238 Q 1616 4238 1336 4038 Q 1056 3838 1056 3469 Q 1056 3159 1242 3001 Q 1428 2844 1947 2747 L 2328 2669 Q 3034 2534 3370 2195 Q 3706 1856 3706 1288 Q 3706 609 3251 259 Q 2797 -91 1919 -91 Q 1588 -91 1214 -16 Q 841 59 441 206 L 441 856 Q 825 641 1194 531 Q 1563 422 1919 422 Q 2459 422 2753 634 Q 3047 847 3047 1241 Q 3047 1584 2836 1778 Q 2625 1972 2144 2069 L 1759 2144 Q 1053 2284 737 2584 Q 422 2884 422 3419 Q 422 4038 858 4394 Q 1294 4750 2059 4750 Q 2388 4750 2728 4690 Q 3069 4631 3425 4513 z" transform="scale(0.015625)"/><path id="DejaVuSans-55" d="M 556 4666 L 1191 4666 L 1191 1831 Q 1191 1081 1462 751 Q 1734 422 2344 422 Q 2950 422 3222 751 Q 3494 1081 3494 1831 L 3494 4666 L 4128 4666 L 4128 1753 Q 4128 841 3676 375 Q 3225 -91 2344 -91 Q 1459 -91 1007 375 Q 556 841 556 1753 L 556 4666 z" transform="scale(0.015625)"/></defs><use xlink:href="#DejaVuSans-53"/><use xlink:href="#DejaVuSans-55" x="63.477"/></g></g><g id="patch_51"><path d="M 6.246 21.705934 L 20.126 21.705934 L 20.126 16.847934 L 6.246 16.847934 z" fill="#a840bf"/></g><g id="text_3"><g transform="translate(25.678 21.705934) scale(0.0694 -0.0694)" fill="#ffffff"><defs><path id="DejaVuSans-42" d="M 1259 2228 L 1259 519 L 2272 519 Q 2781 519 3026 730 Q 3272 941 3272 1375 Q 3272 1813 3026 2020 Q 2781 2228 2272 2228 L 1259 2228 z M 1259 4147 L 1259 2741 L 2194 2741 Q 2656 2741 2882 2914 Q 3109 3088 3109 3444 Q 3109 3797 2882 3972 Q 2656 4147 2194 4147 L 1259 4147 z M 628 4666 L 2241 4666 Q 2963 4666 3353 4366 Q 3744 4066 3744 3513 Q 3744 3084 3544 2831 Q 3344 2578 2956 2516 Q 3422 2416 3680 2098 Q 3938 1781 3938 1306 Q 3938 681 3513 340 Q 3088 0 2303 0 L 628 0 L 628 4666 z" transform="scale(0.015625)"/></defs><use xlink:href="#DejaVuSans-53"/><use xlink:href="#DejaVuSans-42" x="63.477"/></g></g><g id="patch_52"><path d="M 6.246 31.892553 L 20.126 31.892553 L 20.126 27.034553 L 6.246 27.034553 z" fill="#651f93"/></g><g id="text_4"><g transform="translate(25.678 31.892553) scale(0.0694 -0.0694)" fill="#ffffff"><defs><path id="DejaVuSans-48" d="M 628 4666 L 1259 4666 L 1259 2753 L 3553 2753 L 3553 4666 L 4184 4666 L 4184 0 L 3553 0 L 3553 2222 L 1259 2222 L 1259 0 L 628 0 L 628 4666 z" transform="scale(0.015625)"/><path id="DejaVuSans-49" d="M 628 4666 L 1259 4666 L 1259 0 L 628 0 L 628 4666 z" transform="scale(0.015625)"/></defs><use xlink:href="#DejaVuSans-48"/><use xlink:href="#DejaVuSans-49" x="75.195"/></g></g><g id="patch_53"><path d="M 6.246 42.079172 L 20.126 42.079172 L 20.126 37.221172 L 6.246 37.221172 z" fill="#862d36"/></g><g id="text_5"><g transform="translate(25.678 42.079172) scale(0.0694 -0.0694)" fill="#ffffff"><use xlink:href="#DejaVuSans-53"/><use xlink:href="#DejaVuSans-49" x="63.477"/></g></g><g id="patch_54"><path d="M 6.246 52.265791 L 20.126 52.265791 L 20.126 47.407791 L 6.246 47.407791 z" fill="#1f937c"/></g><g id="text_6"><g transform="translate(25.678 52.265791) scale(0.0694 -0.0694)" fill="#ffffff"><defs><path id="DejaVuSans-43" d="M 4122 4306 L 4122 3641 Q 3803 3938 3442 4084 Q 3081 4231 2675 4231 Q 1875 4231 1450 3742 Q 1025 3253 1025 2328 Q 1025 1406 1450 917 Q 1875 428 2675 428 Q 3081 428 3442 575 Q 3803 722 4122 1019 L 4122 359 Q 3791 134 3420 21 Q 3050 -91 2638 -91 Q 1578 -91 968 557 Q 359 1206 359 2328 Q 359 3453 968 4101 Q 1578 4750 2638 4750 Q 3056 4750 3426 4639 Q 3797 4528 4122 4306 z" transform="scale(0.015625)"/></defs><use xlink:href="#DejaVuSans-43"/><use xlink:href="#DejaVuSans-43" x="69.824"/></g></g><g id="patch_55"><path d="M 6.246 62.452409 L 20.126 62.452409 L 20.126 57.594409 L 6.246 57.594409 z" fill="#2dbfd2"/></g><g id="text_7"><g transform="translate(25.678 62.452409) scale(0.0694 -0.0694)" fill="#ffffff"><defs><path id="DejaVuSans-57" d="M 213 4666 L 850 4666 L 1831 722 L 2809 4666 L 3519 4666 L 4500 722 L 5478 4666 L 6119 4666 L 4947 0 L 4153 0 L 3169 4050 L 2175 0 L 1381 0 L 213 4666 z" transform="scale(0.015625)"/></defs><use xlink:href="#DejaVuSans-55"/><use xlink:href="#DejaVuSans-57" x="73.193"/></g></g><g id="patch_56"><path d="M 6.246 72.639028 L 20.126 72.639028 L 20.126 67.781028 L 6.246 67.781028 z" fill="#1f9327"/></g><g id="text_8"><g transform="translate(25.678 72.639028) scale(0.0694 -0.0694)" fill="#ffffff"><defs><path id="DejaVuSans-4c" d="M 628 4666 L 1259 4666 L 1259 531 L 3531 531 L 3531 0 L 628 0 L 628 4666 z" transform="scale(0.015625)"/><path id="DejaVuSans-4d" d="M 628 4666 L 1569 4666 L 2759 1491 L 3956 4666 L 4897 4666 L 4897 0 L 4281 0 L 4281 4097 L 3078 897 L 2444 897 L 1241 4097 L 1241 0 L 628 0 L 628 4666 z" transform="scale(0.015625)"/></defs><use xlink:href="#DejaVuSans-4c"/><use xlink:href="#DejaVuSans-4d" x="55.713"/></g></g><g id="patch_57"><path d="M 6.246 82.825647 L 20.126 82.825647 L 20.126 77.967647 L 6.246 77.967647 z" fill="#5372ac"/></g><g id="text_9"><g transform="translate(25.678 82.825647) scale(0.0694 -0.0694)" fill="#ffffff"><defs><path id="DejaVuSans-56" d="M 1831 0 L 50 4666 L 709 4666 L 2188 738 L 3669 4666 L 4325 4666 L 2547 0 L 1831 0 z" transform="scale(0.015625)"/></defs><use xlink:href="#DejaVuSans-56"/><use xlink:href="#DejaVuSans-53" x="68.408"/></g></g><g id="patch_58"><path d="M 6.246 93.012266 L 20.126 93.012266 L 20.126 88.154266 L 6.246 88.154266 z" fill="#7f2dd2"/></g><g id="text_10"><g transform="translate(25.678 93.012266) scale(0.0694 -0.0694)" fill="#ffffff"><use xlink:href="#DejaVuSans-53"/><use xlink:href="#DejaVuSans-4c" x="63.477"/></g></g><g id="patch_59"><path d="M 6.246 103.198884 L 20.126 103.198884 L 20.126 98.340884 L 6.246 98.340884 z" fill="#6ce085"/></g><g id="text_11"><g transform="translate(25.678 103.198884) scale(0.0694 -0.0694)" fill="#ffffff"><defs><path id="DejaVuSans-47" d="M 3809 666 L 3809 1919 L 2778 1919 L 2778 2438 L 4434 2438 L 4434 434 Q 4069 175 3628 42 Q 3188 -91 2688 -91 Q 1594 -91 976 548 Q 359 1188 359 2328 Q 359 3472 976 4111 Q 1594 4750 2688 4750 Q 3144 4750 3555 4637 Q 3966 4525 4313 4306 L 4313 3634 Q 3963 3931 3569 4081 Q 3175 4231 2741 4231 Q 1884 4231 1454 3753 Q 1025 3275 1025 2328 Q 1025 1384 1454 906 Q 1884 428 2741 428 Q 3075 428 3337 486 Q 3600 544 3809 666 z" transform="scale(0.015625)"/></defs><use xlink:href="#DejaVuSans-47"/><use xlink:href="#DejaVuSans-57" x="77.49"/></g></g><g id="patch_60"><path d="M 6.246 113.385503 L 20.126 113.385503 L 20.126 108.527503 L 6.246 108.527503 z" fill="#79d2b5"/></g><g id="text_12"><g transform="translate(25.678 113.385503) scale(0.0694 -0.0694)" fill="#ffffff"><use xlink:href="#DejaVuSans-4c"/><use xlink:href="#DejaVuSans-43" x="55.713"/></g></g><g id="patch_61"><path d="M 6.246 123.572122 L 20.126 123.572122 L 20.126 118.714122 L 6.246 118.714122 z" fill="#6ce098"/></g><g id="text_13"><g transform="translate(25.678 123.572122) scale(0.0694 -0.0694)" fill="#ffffff"><use xlink:href="#DejaVuSans-4c"/><use xlink:href="#DejaVuSans-46" x="55.713"/></g></g><g id="patch_62"><path d="M 6.246 133.758741 L 20.126 133.758741 L 20.126 128.900741 L 6.246 128.900741 z" fill="#2dd235"/></g><g id="text_14"><g transform="translate(25.678 133.758741) scale(0.0694 -0.0694)" fill="#ffffff"><defs><path id="DejaVuSans-44" d="M 1259 4147 L 1259 519 L 2022 519 Q 2988 519 3436 956 Q 3884 1394 3884 2338 Q 3884 3275 3436 3711 Q 2988 4147 2022 4147 L 1259 4147 z M 628 4666 L 1925 4666 Q 3281 4666 3915 4102 Q 4550 3538 4550 2338 Q 4550 1131 3912 565 Q 3275 0 1925 0 L 628 0 L 628 4666 z" transform="scale(0.015625)"/></defs><use xlink:href="#DejaVuSans-44"/><use xlink:href="#DejaVuSans-53" x="77.002"/></g></g><g id="patch_63"><path d="M 6.246 143.945359 L 20.126 143.945359 L 20.126 139.087359 L 6.246 139.087359 z" fill="#87c5a1"/></g><g id="text_15"><g transform="translate(25.678 143.945359) scale(0.0694 -0.0694)" fill="#ffffff"><defs><path id="DejaVuSans-41" d="M 2188 4044 L 1331 1722 L 3047 1722 L 2188 4044 z M 1831 4666 L 2547 4666 L 4325 0 L 3669 0 L 3244 1197 L 1141 1197 L 716 0 L 50 0 L 1831 4666 z" transform="scale(0.015625)"/></defs><use xlink:href="#DejaVuSans-4d"/><use xlink:href="#DejaVuSans-41" x="86.279"/></g></g><g id="patch_64"><path d="M 6.246 154.131978 L 20.126 154.131978 L 20.126 149.273978 L 6.246 149.273978 z" fill="#d279a6"/></g><g id="text_16"><g transform="translate(25.678 154.131978) scale(0.0694 -0.0694)" fill="#ffffff"><use xlink:href="#DejaVuSans-43"/><use xlink:href="#DejaVuSans-4c" x="69.824"/></g></g><g id="patch_65"><path d="M 6.246 164.318597 L 20.126 164.318597 L 20.126 159.460597 L 6.246 159.460597 z" fill="#6ce0bd"/></g><g id="text_17"><g transform="translate(25.678 164.318597) scale(0.0694 -0.0694)" fill="#ffffff"><use xlink:href="#DejaVuSans-53"/><use xlink:href="#DejaVuSans-48" x="63.477"/></g></g><g id="patch_66"><path d="M 6.246 174.505216 L 20.126 174.505216 L 20.126 169.647216 L 6.246 169.647216 z" fill="#2d4f86"/></g><g id="text_18"><g transform="translate(25.678 174.505216) scale(0.0694 -0.0694)" fill="#ffffff"><defs><path id="DejaVuSans-54" d="M -19 4666 L 3928 4666 L 3928 4134 L 2272 4134 L 2272 0 L 1638 0 L 1638 4134 L -19 4134 L -19 4666 z" transform="scale(0.015625)"/><path id="DejaVuSans-45" d="M 628 4666 L 3578 4666 L 3578 4134 L 1259 4134 L 1259 2753 L 3481 2753 L 3481 2222 L 1259 2222 L 1259 531 L 3634 531 L 3634 0 L 628 0 L 628 4666 z" transform="scale(0.015625)"/></defs><use xlink:href="#DejaVuSans-47"/><use xlink:href="#DejaVuSans-41" x="77.49"/><use xlink:href="#DejaVuSans-54" x="138.148"/><use xlink:href="#DejaVuSans-45" x="199.232"/></g></g><g id="patch_67"><path d="M 6.246 184.691834 L 20.126 184.691834 L 20.126 179.833834 L 6.246 179.833834 z" fill="#6c75e0"/></g><g id="text_19"><g transform="translate(25.678 184.691834) scale(0.0694 -0.0694)" fill="#ffffff"><defs><path id="DejaVuSans-4f" d="M 2522 4238 Q 1834 4238 1429 3725 Q 1025 3213 1025 2328 Q 1025 1447 1429 934 Q 1834 422 2522 422 Q 3209 422 3611 934 Q 4013 1447 4013 2328 Q 4013 3213 3611 3725 Q 3209 4238 2522 4238 z M 2522 4750 Q 3503 4750 4090 4092 Q 4678 3434 4678 2328 Q 4678 1225 4090 567 Q 3503 -91 2522 -91 Q 1538 -91 948 565 Q 359 1222 359 2328 Q 359 3434 948 4092 Q 1538 4750 2522 4750 z" transform="scale(0.015625)"/></defs><use xlink:href="#DejaVuSans-4f"/><use xlink:href="#DejaVuSans-45" x="78.711"/></g></g><g id="patch_68"><path d="M 6.246 194.878453 L 20.126 194.878453 L 20.126 190.020453 L 6.246 190.020453 z" fill="#472d86"/></g><g id="text_20"><g transform="translate(25.678 194.878453) scale(0.0694 -0.0694)" fill="#ffffff"><use xlink:href="#DejaVuSans-48"/><use xlink:href="#DejaVuSans-52" x="75.195"/></g></g><g id="patch_69"><path d="M 6.246 205.065072 L 20.126 205.065072 L 20.126 200.207072 L 6.246 200.207072 z" fill="#40b0bf"/></g><g id="text_21"><g transform="translate(25.678 205.065072) scale(0.0694 -0.0694)" fill="#ffffff"><use xlink:href="#DejaVuSans-44"/><use xlink:href="#DejaVuSans-4d" x="77.002"/></g></g><g id="patch_70"><path d="M 6.246 215.251691 L 20.126 215.251691 L 20.126 210.393691 L 6.246 210.393691 z" fill="#79d2b2"/></g><g id="text_22"><g transform="translate(25.678 215.251691) scale(0.0694 -0.0694)" fill="#ffffff"><defs><path id="DejaVuSans-4e" d="M 628 4666 L 1478 4666 L 3547 763 L 3547 4666 L 4159 4666 L 4159 0 L 3309 0 L 1241 3903 L 1241 0 L 628 0 L 628 4666 z" transform="scale(0.015625)"/></defs><use xlink:href="#DejaVuSans-46"/><use xlink:href="#DejaVuSans-4e" x="57.52"/></g></g><g id="patch_71"><path d="M 6.246 225.438309 L 20.126 225.438309 L 20.126 220.580309 L 6.246 220.580309 z" fill="#931f3c"/></g><g id="text_23"><g transform="translate(25.678 225.438309) scale(0.0694 -0.0694)" fill="#ffffff"><use xlink:href="#DejaVuSans-43"/><use xlink:href="#DejaVuSans-41" x="69.824"/></g></g><g id="patch_72"><path d="M 6.246 235.624928 L 20.126 235.624928 L 20.126 230.766928 L 6.246 230.766928 z" fill="#2dd288"/></g><g id="text_24"><g transform="translate(25.678 235.624928) scale(0.0694 -0.0694)" fill="#ffffff"><use xlink:href="#DejaVuSans-53"/><use xlink:href="#DejaVuSans-53" x="63.477"/></g></g><g id="patch_73"><path d="M 6.246 245.811547 L 20.126 245.811547 L 20.126 240.953547 L 6.246 240.953547 z" fill="#d22dd2"/></g><g id="text_25"><g transform="translate(25.678 245.811547) scale(0.0694 -0.0694)" fill="#ffffff"><use xlink:href="#DejaVuSans-43"/><use xlink:href="#DejaVuSans-46" x="69.824"/></g></g><g id="patch_74"><path d="M 6.246 255.998166 L 20.126 255.998166 L 20.126 251.140166 L 6.246 251.140166 z" fill="#b9d279"/></g><g id="text_26"><g transform="translate(25.678 255.998166) scale(0.0694 -0.0694)" fill="#ffffff"><use xlink:href="#DejaVuSans-56"/><use xlink:href="#DejaVuSans-49" x="68.408"/></g></g><g id="patch_75"><path d="M 6.246 266.184784 L 20.126 266.184784 L 20.126 261.326784 L 6.246 261.326784 z" fill="#48783a"/></g><g id="text_27"><g transform="translate(25.678 266.184784) scale(0.0694 -0.0694)" fill="#ffffff"><use xlink:href="#DejaVuSans-4d"/><use xlink:href="#DejaVuSans-45" x="86.279"/></g></g><g id="patch_76"><path d="M 6.246 276.371403 L 20.126 276.371403 L 20.126 271.513403 L 6.246 271.513403 z" fill="#d279c3"/></g><g id="text_28"><g transform="translate(25.678 276.371403) scale(0.0694 -0.0694)" fill="#ffffff"><defs><path id="DejaVuSans-59" d="M -13 4666 L 666 4666 L 1959 2747 L 3244 4666 L 3922 4666 L 2272 2222 L 2272 0 L 1638 0 L 1638 2222 L -13 4666 z" transform="scale(0.015625)"/></defs><use xlink:href="#DejaVuSans-41"/><use xlink:href="#DejaVuSans-59" x="60.658"/></g></g><g id="patch_77"><path d="M 6.246 286.558022 L 20.126 286.558022 L 20.126 281.700022 L 6.246 281.700022 z" fill="#cae06c"/></g><g id="text_29"><g transform="translate(25.678 286.558022) scale(0.0694 -0.0694)" fill="#ffffff"><defs><path id="DejaVuSans-50" d="M 1259 4147 L 1259 2394 L 2053 2394 Q 2494 2394 2734 2622 Q 2975 2850 2975 3272 Q 2975 3691 2734 3919 Q 2494 4147 2053 4147 L 1259 4147 z M 628 4666 L 2053 4666 Q 2838 4666 3239 4311 Q 3641 3956 3641 3272 Q 3641 2581 3239 2228 Q 2838 1875 2053 1875 L 1259 1875 L 1259 0 L 628 0 L 628 4666 z" transform="scale(0.015625)"/></defs><use xlink:href="#DejaVuSans-46"/><use xlink:href="#DejaVuSans-50" x="57.52"/></g></g><g id="patch_78"><path d="M 6.246 296.744641 L 20.126 296.744641 L 20.126 291.886641 L 6.246 291.886641 z" fill="#c58799"/></g><g id="text_30"><g transform="translate(25.678 296.744641) scale(0.0694 -0.0694)" fill="#ffffff"><use xlink:href="#DejaVuSans-52"/><use xlink:href="#DejaVuSans-4d" x="69.482"/></g></g><g id="patch_79"><path d="M 6.246 306.931259 L 20.126 306.931259 L 20.126 302.073259 L 6.246 302.073259 z" fill="#72e06c"/></g><g id="text_31"><g transform="translate(25.678 306.931259) scale(0.0694 -0.0694)" fill="#ffffff"><use xlink:href="#DejaVuSans-55"/><use xlink:href="#DejaVuSans-47" x="73.193"/></g></g><g id="patch_80"><path d="M 6.246 317.117878 L 20.126 317.117878 L 20.126 312.259878 L 6.246 312.259878 z" fill="#d22f2d"/></g><g id="text_32"><g transform="translate(25.678 317.117878) scale(0.0694 -0.0694)" fill="#ffffff"><use xlink:href="#DejaVuSans-4f"/><use xlink:href="#DejaVuSans-53" x="78.711"/></g></g><g id="patch_81"><path d="M 6.246 327.304497 L 20.126 327.304497 L 20.126 322.446497 L 6.246 322.446497 z" fill="#3a7877"/></g><g id="text_33"><g transform="translate(25.678 327.304497) scale(0.0694 -0.0694)" fill="#ffffff"><use xlink:href="#DejaVuSans-4d"/><use xlink:href="#DejaVuSans-53" x="86.279"/></g></g><g id="patch_82"><path d="M 6.246 337.491116 L 20.126 337.491116 L 20.126 332.633116 L 6.246 332.633116 z" fill="#6b1f93"/></g><g id="text_34"><g transform="translate(25.678 337.491116) scale(0.0694 -0.0694)" fill="#ffffff"><use xlink:href="#DejaVuSans-50"/><use xlink:href="#DejaVuSans-41" x="53.928"/></g></g><g id="patch_83"><path d="M 6.246 347.677734 L 20.126 347.677734 L 20.126 342.819734 L 6.246 342.819734 z" fill="#9587c5"/></g><g id="text_35"><g transform="translate(25.678 347.677734) scale(0.0694 -0.0694)" fill="#ffffff"><defs><path id="DejaVuSans-4b" d="M 628 4666 L 1259 4666 L 1259 2694 L 3353 4666 L 4166 4666 L 1850 2491 L 4331 0 L 3500 0 L 1259 2247 L 1259 0 L 628 0 L 628 4666 z" transform="scale(0.015625)"/></defs><use xlink:href="#DejaVuSans-53"/><use xlink:href="#DejaVuSans-4b" x="63.477"/></g></g><g id="patch_84"><path d="M 6.246 357.864353 L 20.126 357.864353 L 20.126 353.006353 L 6.246 353.006353 z" fill="#1f3693"/></g><g id="text_36"><g transform="translate(25.678 357.864353) scale(0.0694 -0.0694)" fill="#ffffff"><use xlink:href="#DejaVuSans-49"/><use xlink:href="#DejaVuSans-57" x="29.492"/></g></g><g id="patch_85"><path d="M 6.246 368.050972 L 20.126 368.050972 L 20.126 363.192972 L 6.246 363.192972 z" fill="#1f4e93"/></g><g id="text_37"><g transform="translate(25.678 368.050972) scale(0.0694 -0.0694)" fill="#ffffff"><use xlink:href="#DejaVuSans-45"/><use xlink:href="#DejaVuSans-4c" x="63.184"/></g></g><g id="patch_86"><path d="M 6.246 378.237591 L 20.126 378.237591 L 20.126 373.379591 L 6.246 373.379591 z" fill="#40bf90"/></g><g id="text_38"><g transform="translate(25.678 378.237591) scale(0.0694 -0.0694)" fill="#ffffff"><use xlink:href="#DejaVuSans-54"/><use xlink:href="#DejaVuSans-59" x="61.084"/></g></g><g id="patch_87"><path d="M 6.246 388.424209 L 20.126 388.424209 L 20.126 383.566209 L 6.246 383.566209 z" fill="#85d279"/></g><g id="text_39"><g transform="translate(25.678 388.424209) scale(0.0694 -0.0694)" fill="#ffffff"><defs><path id="DejaVuSans-74" d="M 1172 4494 L 1172 3500 L 2356 3500 L 2356 3053 L 1172 3053 L 1172 1153 Q 1172 725 1289 603 Q 1406 481 1766 481 L 2356 481 L 2356 0 L 1766 0 Q 1100 0 847 248 Q 594 497 594 1153 L 594 3053 L 172 3053 L 172 3500 L 594 3500 L 594 4494 L 1172 4494 z" transform="scale(0.015625)"/></defs><use xlink:href="#DejaVuSans-74"/><use xlink:href="#DejaVuSans-72" x="39.209"/></g></g><g id="patch_88"><path d="M 6.246 398.610828 L 20.126 398.610828 L 20.126 393.752828 L 6.246 393.752828 z" fill="#bf4064"/></g><g id="text_40"><g transform="translate(25.678 398.610828) scale(0.0694 -0.0694)" fill="#ffffff"><defs><path id="DejaVuSans-58" d="M 403 4666 L 1081 4666 L 2241 2931 L 3406 4666 L 4084 4666 L 2584 2425 L 4184 0 L 3506 0 L 2194 1984 L 872 0 L 191 0 L 1856 2491 L 403 4666 z" transform="scale(0.015625)"/></defs><use xlink:href="#DejaVuSans-58"/><use xlink:href="#DejaVuSans-44" x="68.506"/></g></g><g id="patch_89"><path d="M 6.246 408.797447 L 20.126 408.797447 L 20.126 403.939447 L 6.246 403.939447 z" fill="#7e79d2"/></g><g id="text_41"><g transform="translate(25.678 408.797447) scale(0.0694 -0.0694)" fill="#ffffff"><use xlink:href="#DejaVuSans-57"/><use xlink:href="#DejaVuSans-52" x="98.877"/></g></g><g id="patch_90"><path d="M 6.246 418.984066 L 20.126 418.984066 L 20.126 414.126066 L 6.246 414.126066 z" fill="#d28179"/></g><g id="text_42"><g transform="translate(25.678 418.984066) scale(0.0694 -0.0694)" fill="#ffffff"><use xlink:href="#DejaVuSans-44"/><use xlink:href="#DejaVuSans-4e" x="77.002"/></g></g><g id="patch_91"><path d="M 6.246 429.170684 L 20.126 429.170684 L 20.126 424.312684 L 6.246 424.312684 z" fill="#90ac53"/></g><g id="text_43"><g transform="translate(25.678 429.170684) scale(0.0694 -0.0694)" fill="#ffffff"><use xlink:href="#DejaVuSans-4d"/><use xlink:href="#DejaVuSans-57" x="86.279"/></g></g><g id="patch_92"><path d="M 6.246 439.357303 L 20.126 439.357303 L 20.126 434.499303 L 6.246 434.499303 z" fill="#2d6d86"/></g><g id="text_44"><g transform="translate(25.678 439.357303) scale(0.0694 -0.0694)" fill="#ffffff"><use xlink:href="#DejaVuSans-54"/><use xlink:href="#DejaVuSans-53" x="61.084"/></g></g><g id="patch_93"><path d="M 6.246 449.543922 L 20.126 449.543922 L 20.126 444.685922 L 6.246 444.685922 z" fill="#c58f87"/></g><g id="text_45"><g transform="translate(25.678 449.543922) scale(0.0694 -0.0694)" fill="#ffffff"><use xlink:href="#DejaVuSans-42"/><use xlink:href="#DejaVuSans-4b" x="68.604"/></g></g><g id="patch_94"><path d="M 6.246 459.730541 L 20.126 459.730541 L 20.126 454.872541 L 6.246 454.872541 z" fill="#bf7140"/></g><g id="text_46"><g transform="translate(25.678 459.730541) scale(0.0694 -0.0694)" fill="#ffffff"><use xlink:href="#DejaVuSans-43"/><use xlink:href="#DejaVuSans-54" x="69.824"/></g></g><g id="patch_95"><path d="M 6.246 469.917159 L 20.126 469.917159 L 20.126 465.059159 L 6.246 465.059159 z" fill="#932d1f"/></g><g id="text_47"><g transform="translate(25.678 469.917159) scale(0.0694 -0.0694)" fill="#ffffff"><use xlink:href="#DejaVuSans-48"/><use xlink:href="#DejaVuSans-46" x="75.195"/></g></g><g id="patch_96"><path d="M 6.246 480.103778 L 20.126 480.103778 L 20.126 475.245778 L 6.246 475.245778 z" fill="#3a3c78"/></g><g id="text_48"><g transform="translate(25.678 480.103778) scale(0.0694 -0.0694)" fill="#ffffff"><defs><path id="DejaVuSans-51" d="M 2522 4238 Q 1834 4238 1429 3725 Q 1025 3213 1025 2328 Q 1025 1447 1429 934 Q 1834 422 2522 422 Q 3209 422 3611 934 Q 4013 1447 4013 2328 Q 4013 3213 3611 3725 Q 3209 4238 2522 4238 z M 3406 84 L 4238 -825 L 3475 -825 L 2784 -78 Q 2681 -84 2626 -87 Q 2572 -91 2522 -91 Q 1538 -91 948 567 Q 359 1225 359 2328 Q 359 3434 948 4092 Q 1538 4750 2522 4750 Q 3503 4750 4090 4092 Q 4678 3434 4678 2328 Q 4678 1516 4351 937 Q 4025 359 3406 84 z" transform="scale(0.015625)"/></defs><use xlink:href="#DejaVuSans-51"/><use xlink:href="#DejaVuSans-57" x="78.711"/></g></g></g></g></svg>