<svg xmlns:xlink="http://www.w3.org/1999/xlink" width="1008" height="912" viewBox="0 0 756 684" xmlns="http://www.w3.org/2000/svg" version="1.1"><metadata><rdf:RDF xmlns:dc="http://purl.org/dc/elements/1.1/" xmlns:cc="http://creativecommons.org/ns#" xmlns:rdf="http://www.w3.org/1999/02/22-rdf-syntax-ns#"><cc:Work><dc:type rdf:resource="http://purl.org/dc/dcmitype/StillImage"/><dc:format>image/svg+xml</dc:format><dc:creator><cc:Agent><dc:title>Matplotlib v3.7.1, https://matplotlib.org/</dc:title></cc:Agent></dc:creator></cc:Work></rdf:RDF></metadata><defs><style type="text/css">*{stroke-linejoin:round;stroke-linecap:butt}</style></defs><g id="figure_1"><g id="patch_1"><path d="M 0 684 L 756 684 L 756 0 L 0 0 z"/></g><g id="axes_1"><g id="patch_2"><path d="M 650.79 345.42 C 650.79 307.252914 642.492401 269.538147 626.473553 234.895356 C 610.454704 200.252566 587.094285 169.502856 558.014904 144.782094 L 387.45 345.42 z" fill="#ac5953"/></g><g id="patch_3"><path d="M 558.014904 144.782094 C 549.961655 137.935923 541.503517 131.580821 532.686406 125.75129 C 523.869294 119.921759 514.709195 114.628367 505.255835 109.899851 L 387.45 345.42 z" fill="#a840bf"/></g><g id="patch_4"><path d="M 505.255835 109.899851 C 475.662889 95.097628 443.543499 86.004651 410.58292 83.098015 C 377.622342 80.19138 344.407301 83.522826 312.680542 92.917557 L 387.45 345.42 z" fill="#651f93"/></g><g id="patch_5"><path d="M 312.680542 92.917557 C 289.580094 99.757918 267.527227 109.73609 247.139795 122.572514 C 226.752362 135.408939 208.222555 150.982607 192.069524 168.857192 L 387.45 345.42 z" fill="#862d36"/></g><g id="patch_6"><path d="M 192.069524 168.857192 C 167.894808 195.608394 149.469793 227.041707 137.939114 261.204364 C 126.408435 295.367022 122.015919 331.536624 125.034448 367.466169 L 387.45 345.42 z" fill="#1f937c"/></g><g id="patch_7"><path d="M 125.034448 367.466169 C 127.563013 397.563677 135.250841 427.003047 147.760978 454.493957 C 160.271114 481.984868 177.418076 507.119722 198.450316 528.796866 L 387.45 345.42 z" fill="#2dbfd2"/></g><g id="patch_8"><path d="M 198.450316 528.796866 C 203.487742 533.988753 208.736964 538.970866 214.184623 543.730526 C 219.632282 548.490186 225.273752 553.023352 231.094677 557.318487 L 387.45 345.42 z" fill="#1f9327"/></g><g id="patch_9"><path d="M 231.094677 557.318487 C 235.675007 560.698213 240.363715 563.928541 245.153412 567.004378 C 249.943109 570.080215 254.831276 572.999945 259.810209 575.758966 L 387.45 345.42 z" fill="#5372ac"/></g><g id="patch_10"><path d="M 259.810209 575.758966 C 266.673445 579.562153 273.703235 583.056692 280.878532 586.232121 C 288.053829 589.407551 295.367466 592.260699 302.797548 594.783025 L 387.45 345.42 z" fill="#7f2dd2"/></g><g id="patch_11"><path d="M 302.797548 594.783025 C 321.550851 601.149297 340.962607 605.379792 360.664331 607.394204 C 380.366056 609.408616 400.232292 609.194116 419.885928 606.754778 L 387.45 345.42 z" fill="#6ce085"/></g><g id="patch_12"><path d="M 419.885928 606.754778 C 432.518847 605.186826 445.021464 602.704922 457.295401 599.328597 C 469.569339 595.952271 481.582321 591.690402 493.239823 586.576524 L 387.45 345.42 z" fill="#79d2b5"/></g><g id="patch_13"><path d="M 493.239823 586.576524 C 504.040623 581.838461 514.510923 576.380135 524.57998 570.238425 C 534.649037 564.096715 544.294122 557.285484 553.450066 549.850755 L 387.45 345.42 z" fill="#6ce098"/></g><g id="patch_14"><path d="M 553.450066 549.850755 C 557.069773 546.911513 560.610777 543.876651 564.069333 540.749381 C 567.527888 537.62211 570.902775 534.403535 574.190424 531.097057 L 387.45 345.42 z" fill="#2dd235"/></g><g id="patch_15"><path d="M 574.190424 531.097057 C 574.234722 531.052506 574.279003 531.007939 574.323269 530.963356 C 574.367535 530.918773 574.411785 530.874174 574.456019 530.829559 L 387.45 345.42 z" fill="#87c5a1"/></g><g id="patch_16"><path d="M 574.456019 530.829559 C 575.666343 529.608813 576.864685 528.376246 578.050873 527.132033 C 579.23706 525.887821 580.411036 524.632023 581.572632 523.364822 L 387.45 345.42 z" fill="#d279a6"/></g><g id="patch_17"><path d="M 581.572632 523.364822 C 589.864273 514.319348 597.51355 504.705381 604.464529 494.59322 C 611.415509 484.48106 617.651206 473.895414 623.126024 462.91369 L 387.45 345.42 z" fill="#6ce0bd"/></g><g id="patch_18"><path d="M 623.126024 462.91369 C 623.465974 462.231797 623.802964 461.548432 624.136982 460.863614 C 624.471001 460.178796 624.802046 459.492532 625.130108 458.804841 L 387.45 345.42 z" fill="#2d4f86"/></g><g id="patch_19"><path d="M 625.130108 458.804841 C 627.210263 454.444368 629.170028 450.027477 631.007179 445.559184 C 632.84433 441.09089 634.55817 436.572886 636.146753 432.010303 L 387.45 345.42 z" fill="#6c75e0"/></g><g id="patch_20"><path d="M 636.146753 432.010303 C 636.655739 430.54844 637.151826 429.082117 637.634955 427.611507 C 638.118085 426.140896 638.588238 424.666054 639.045361 423.187153 L 387.45 345.42 z" fill="#472d86"/></g><g id="patch_21"><path d="M 639.045361 423.187153 C 640.147937 419.620054 641.174528 416.02991 642.124436 412.419157 C 643.074345 408.808403 643.947357 405.177856 644.74288 401.529979 L 387.45 345.42 z" fill="#40b0bf"/></g><g id="patch_22"><path d="M 644.74288 401.529979 C 644.749715 401.498634 644.756545 401.467288 644.763369 401.435941 C 644.770193 401.404594 644.777012 401.373245 644.783824 401.341896 L 387.45 345.42 z" fill="#79d2b2"/></g><g id="patch_23"><path d="M 644.783824 401.341896 C 644.807385 401.233478 644.830877 401.125045 644.8543 401.016598 C 644.877724 400.908151 644.901079 400.799688 644.924365 400.691211 L 387.45 345.42 z" fill="#931f3c"/></g><g id="patch_24"><path d="M 644.924365 400.691211 C 645.569387 397.686455 646.16176 394.670638 646.701213 391.645146 C 647.240666 388.619654 647.727116 385.584951 648.160339 382.54243 L 387.45 345.42 z" fill="#2dd288"/></g><g id="patch_25"><path d="M 648.160339 382.54243 C 648.216304 382.149387 648.27138 381.756218 648.325567 381.362926 C 648.379754 380.969634 648.433052 380.57622 648.48546 380.182687 L 387.45 345.42 z" fill="#d22dd2"/></g><g id="patch_26"><path d="M 648.48546 380.182687 C 648.508223 380.011758 648.530818 379.840807 648.553245 379.669835 C 648.575672 379.498862 648.597931 379.327867 648.620022 379.15685 L 387.45 345.42 z" fill="#b9d279"/></g><g id="patch_27"><path d="M 648.620022 379.15685 C 648.633551 379.052119 648.647017 378.94738 648.660419 378.842633 C 648.673822 378.737885 648.687162 378.63313 648.700439 378.528367 L 387.45 345.42 z" fill="#48783a"/></g><g id="patch_28"><path d="M 648.700439 378.528367 C 648.706153 378.483279 648.711855 378.438189 648.717546 378.393098 C 648.723236 378.348007 648.728915 378.302915 648.734583 378.257821 L 387.45 345.42 z" fill="#d279c3"/></g><g id="patch_29"><path d="M 648.734583 378.257821 C 648.734749 378.256495 648.734916 378.255168 648.735083 378.253842 C 648.735249 378.252516 648.735416 378.251189 648.735583 378.249863 L 387.45 345.42 z" fill="#cae06c"/></g><g id="patch_30"><path d="M 648.735583 378.249863 C 648.974722 376.346609 649.193058 374.440798 649.390553 372.532773 C 649.588047 370.624748 649.764688 368.714621 649.920444 366.802736 L 387.45 345.42 z" fill="#c58799"/></g><g id="patch_31"><path d="M 649.920444 366.802736 C 649.993817 365.902092 650.062554 365.001076 650.126652 364.099724 C 650.19075 363.198373 650.250208 362.296697 650.305024 361.394733 L 387.45 345.42 z" fill="#72e06c"/></g><g id="patch_32"><path d="M 650.305024 361.394733 C 650.319376 361.158569 650.333411 360.922385 650.347127 360.686182 C 650.360843 360.44998 650.374241 360.213759 650.38732 359.977521 L 387.45 345.42 z" fill="#d22f2d"/></g><g id="patch_33"><path d="M 650.38732 359.977521 C 650.468604 358.509363 650.537591 357.040551 650.594272 355.571238 C 650.650953 354.101925 650.695327 352.632163 650.727389 351.162107 L 387.45 345.42 z" fill="#3a7877"/></g><g id="patch_34"><path d="M 650.727389 351.162107 C 650.739486 350.607497 650.749829 350.052851 650.75842 349.498176 C 650.767011 348.943501 650.773849 348.388801 650.778935 347.834083 L 387.45 345.42 z" fill="#6b1f93"/></g><g id="patch_35"><path d="M 650.778935 347.834083 C 650.778971 347.830073 650.779008 347.826063 650.779045 347.822053 C 650.779081 347.818043 650.779118 347.814033 650.779154 347.810023 L 387.45 345.42 z" fill="#9587c5"/></g><g id="patch_36"><path d="M 650.779154 347.810023 C 650.779166 347.808686 650.779178 347.80735 650.77919 347.806013 C 650.779203 347.804676 650.779215 347.803339 650.779227 347.802003 L 387.45 345.42 z" fill="#1f3693"/></g><g id="patch_37"><path d="M 650.779227 347.802003 C 650.779602 347.760566 650.779967 347.719129 650.780322 347.677692 C 650.780677 347.636255 650.781023 347.594818 650.781358 347.553381 L 387.45 345.42 z" fill="#1f4e93"/></g><g id="patch_38"><path d="M 650.781358 347.553381 C 650.78138 347.550708 650.781402 347.548034 650.781423 347.545361 C 650.781445 347.542688 650.781466 347.540014 650.781488 347.537341 L 387.45 345.42 z" fill="#40bf90"/></g><g id="patch_39"><path d="M 650.781488 347.537341 C 650.781681 347.513281 650.781871 347.48922 650.782058 347.46516 C 650.782245 347.4411 650.782429 347.417039 650.782609 347.392979 L 387.45 345.42 z" fill="#85d279"/></g><g id="patch_40"><path d="M 650.782609 347.392979 C 650.782749 347.374265 650.782887 347.355552 650.783024 347.336838 C 650.78316 347.318125 650.783294 347.299411 650.783426 347.280697 L 387.45 345.42 z" fill="#bf4064"/></g><g id="patch_41"><path d="M 650.783426 347.280697 C 650.783568 347.260647 650.783707 347.240596 650.783844 347.220546 C 650.783982 347.200496 650.784116 347.180445 650.784249 347.160395 L 387.45 345.42 z" fill="#7e79d2"/></g><g id="patch_42"><path d="M 650.784249 347.160395 C 650.784293 347.153711 650.784337 347.147028 650.784381 347.140344 C 650.784424 347.133661 650.784468 347.126977 650.784511 347.120294 L 387.45 345.42 z" fill="#d28179"/></g><g id="patch_43"><path d="M 650.784511 347.120294 C 650.784563 347.112274 650.784614 347.104253 650.784665 347.096233 C 650.784716 347.088213 650.784767 347.080193 650.784817 347.072173 L 387.45 345.42 z" fill="#90ac53"/></g><g id="patch_44"><path d="M 650.784817 347.072173 C 650.784826 347.070836 650.784834 347.069499 650.784842 347.068163 C 650.784851 347.066826 650.784859 347.065489 650.784867 347.064153 L 387.45 345.42 z" fill="#2d6d86"/></g><g id="patch_45"><path d="M 650.784867 347.064153 C 650.784942 347.052122 650.785017 347.040092 650.78509 347.028062 C 650.785164 347.016031 650.785236 347.004001 650.785308 346.991971 L 387.45 345.42 z" fill="#c58f87"/></g><g id="patch_46"><path d="M 650.785308 346.991971 C 650.785316 346.990634 650.785324 346.989297 650.785332 346.987961 C 650.78534 346.986624 650.785348 346.985287 650.785356 346.983951 L 387.45 345.42 z" fill="#bf7140"/></g><g id="patch_47"><path d="M 650.785356 346.983951 C 650.78638 346.811516 650.787235 346.639081 650.78792 346.466644 C 650.788605 346.294208 650.789121 346.121772 650.789468 345.949334 L 387.45 345.42 z" fill="#932d1f"/></g><g id="patch_48"><path d="M 650.789468 345.949334 C 650.789479 345.943987 650.789489 345.938641 650.7895 345.933294 C 650.78951 345.927947 650.78952 345.9226 650.789531 345.917253 L 387.45 345.42 z" fill="#3a3c78"/></g><g id="patch_49"><path d="M 650.789531 345.917253 C 650.789536 345.91458 650.789541 345.911906 650.789546 345.909233 C 650.789551 345.906559 650.789555 345.903886 650.78956 345.901212 L 387.45 345.42 z" fill="#e0cc6c"/></g><g id="patch_50"><path d="M 650.78956 345.901212 C 650.789563 345.899876 650.789565 345.898539 650.789568 345.897202 C 650.78957 345.895865 650.789572 345.894529 650.789575 345.893192 L 387.45 345.42 z" fill="#c56ce0"/></g><g id="patch_51"><path d="M 650.789575 345.893192 C 650.78958 345.890519 650.789584 345.887845 650.789589 345.885172 C 650.789594 345.882498 650.789599 345.879825 650.789603 345.877151 L 387.45 345.42 z" fill="#bf4080"/></g><g id="patch_52"><path d="M 650.789603 345.877151 C 650.789606 345.875815 650.789608 345.874478 650.78961 345.873141 C 650.789612 345.871804 650.789615 345.870468 650.789617 345.869131 L 387.45 345.42 z" fill="#86762d"/></g><g id="patch_53"><path d="M 650.789617 345.869131 C 650.789653 345.847743 650.789687 345.826356 650.789719 345.804968 C 650.78975 345.783581 650.789779 345.762193 650.789805 345.740806 L 387.45 345.42 z" fill="#c5d22d"/></g><g id="patch_54"><path d="M 650.789805 345.740806 C 650.789806 345.739469 650.789808 345.738132 650.789809 345.736795 C 650.789811 345.735459 650.789813 345.734122 650.789814 345.732785 L 387.45 345.42 z" fill="#abc587"/></g><g id="patch_55"><path d="M 650.789814 345.732785 C 650.789816 345.731448 650.789817 345.730112 650.789819 345.728775 C 650.789821 345.727438 650.789822 345.726102 650.789824 345.724765 L 387.45 345.42 z" fill="#c587a2"/></g><g id="patch_56"><path d="M 650.789824 345.724765 C 650.789827 345.722091 650.78983 345.719418 650.789833 345.716745 C 650.789836 345.714071 650.789839 345.711398 650.789842 345.708724 L 387.45 345.42 z" fill="#2d4186"/></g><g id="patch_57"><path d="M 650.789842 345.708724 C 650.789892 345.663276 650.78993 345.617827 650.789956 345.572378 C 650.789982 345.52693 650.789997 345.481481 650.79 345.436032 L 387.45 345.42 z" fill="#e06ca4"/></g><g id="patch_58"><path d="M 650.79 345.436032 C 650.79 345.433359 650.79 345.430685 650.79 345.428012 C 650.79 345.425339 650.79 345.422665 650.79 345.419992 L 387.45 345.42 z" fill="#c59487"/></g><g id="text_1"><g transform="translate(334.006875 33.9456) scale(0.12 -0.12)" fill="#ffffff"><defs><path id="DejaVuSans-52" d="M 2841 2188 Q 3044 2119 3236 1894 Q 3428 1669 3622 1275 L 4263 0 L 3584 0 L 2988 1197 Q 2756 1666 2539 1819 Q 2322 1972 1947 1972 L 1259 1972 L 1259 0 L 628 0 L 628 4666 L 2053 4666 Q 2853 4666 3247 4331 Q 3641 3997 3641 3322 Q 3641 2881 3436 2590 Q 3231 2300 2841 2188 z M 1259 4147 L 1259 2491 L 2053 2491 Q 2509 2491 2742 2702 Q 2975 2913 2975 3322 Q 2975 3731 2742 3939 Q 2509 4147 2053 4147 L 1259 4147 z" transform="scale(0.015625)"/><path id="DejaVuSans-65" d="M 3597 1894 L 3597 1613 L 953 1613 Q 991 1019 1311 708 Q 1631 397 2203 397 Q 2534 397 2845 478 Q 3156 559 3463 722 L 3463 178 Q 3153 47 2828 -22 Q 2503 -91 2169 -91 Q 1331 -91 842 396 Q 353 884 353 1716 Q 353 2575 817 3079 Q 1281 3584 2069 3584 Q 2775 3584 3186 3129 Q 3597 2675 3597 1894 z M 3022 2063 Q 3016 2534 2758 2815 Q 2500 3097 2075 3097 Q 1594 3097 1305 2825 Q 1016 2553 972 2059 L 3022 2063 z" transform="scale(0.015625)"/><path id="DejaVuSans-67" d="M 2906 1791 Q 2906 2416 2648 2759 Q 2391 3103 1925 3103 Q 1463 3103 1205 2759 Q 947 2416 947 1791 Q 947 1169 1205 825 Q 1463 481 1925 481 Q 2391 481 2648 825 Q 2906 1169 2906 1791 z M 3481 434 Q 3481 -459 3084 -895 Q 2688 -1331 1869 -1331 Q 1566 -1331 1297 -1286 Q 1028 -1241 775 -1147 L 775 -588 Q 1028 -725 1275 -790 Q 1522 -856 1778 -856 Q 2344 -856 2625 -561 Q 2906 -266 2906 331 L 2906 616 Q 2728 306 2450 153 Q 2172 0 1784 0 Q 1141 0 747 490 Q 353 981 353 1791 Q 353 2603 747 3093 Q 1141 3584 1784 3584 Q 2172 3584 2450 3431 Q 2728 3278 2906 2969 L 2906 3500 L 3481 3500 L 3481 434 z" transform="scale(0.015625)"/><path id="DejaVuSans-69" d="M 603 3500 L 1178 3500 L 1178 0 L 603 0 L 603 3500 z M 603 4863 L 1178 4863 L 1178 4134 L 603 4134 L 603 4863 z" transform="scale(0.015625)"/><path id="DejaVuSans-6f" d="M 1959 3097 Q 1497 3097 1228 2736 Q 959 2375 959 1747 Q 959 1119 1226 758 Q 1494 397 1959 397 Q 2419 397 2687 759 Q 2956 1122 2956 1747 Q 2956 2369 2687 2733 Q 2419 3097 1959 3097 z M 1959 3584 Q 2709 3584 3137 3096 Q 3566 2609 3566 1747 Q 3566 888 3137 398 Q 2709 -91 1959 -91 Q 1206 -91 779 398 Q 353 888 353 1747 Q 353 2609 779 3096 Q 1206 3584 1959 3584 z" transform="scale(0.015625)"/><path id="DejaVuSans-6e" d="M 3513 2113 L 3513 0 L 2938 0 L 2938 2094 Q 2938 2591 2744 2837 Q 2550 3084 2163 3084 Q 1697 3084 1428 2787 Q 1159 2491 1159 1978 L 1159 0 L 581 0 L 581 3500 L 1159 3500 L 1159 2956 Q 1366 3272 1645 3428 Q 1925 3584 2291 3584 Q 2894 3584 3203 3211 Q 3513 2838 3513 2113 z" transform="scale(0.015625)"/><path id="DejaVuSans-20" transform="scale(0.015625)"/><path id="DejaVuSans-46" d="M 628 4666 L 3309 4666 L 3309 4134 L 1259 4134 L 1259 2759 L 3109 2759 L 3109 2228 L 1259 2228 L 1259 0 L 628 0 L 628 4666 z" transform="scale(0.015625)"/><path id="DejaVuSans-72" d="M 2631 2963 Q 2534 3019 2420 3045 Q 2306 3072 2169 3072 Q 1681 3072 1420 2755 Q 1159 2438 1159 1844 L 1159 0 L 581 0 L 581 3500 L 1159 3500 L 1159 2956 Q 1341 3275 1631 3429 Q 1922 3584 2338 3584 Q 2397 3584 2469 3576 Q 2541 3569 2628 3553 L 2631 2963 z" transform="scale(0.015625)"/><path id="DejaVuSans-71" d="M 947 1747 Q 947 1113 1208 752 Q 1469 391 1925 391 Q 2381 391 2643 752 Q 2906 1113 2906 1747 Q 2906 2381 2643 2742 Q 2381 3103 1925 3103 Q 1469 3103 1208 2742 Q 947 2381 947 1747 z M 2906 525 Q 2725 213 2448 61 Q 2172 -91 1784 -91 Q 1150 -91 751 415 Q 353 922 353 1747 Q 353 2572 751 3078 Q 1150 3584 1784 3584 Q 2172 3584 2448 3432 Q 2725 3281 2906 2969 L 2906 3500 L 3481 3500 L 3481 -1331 L 2906 -1331 L 2906 525 z" transform="scale(0.015625)"/><path id="DejaVuSans-75" d="M 544 1381 L 544 3500 L 1119 3500 L 1119 1403 Q 1119 906 1312 657 Q 1506 409 1894 409 Q 2359 409 2629 706 Q 2900 1003 2900 1516 L 2900 3500 L 3475 3500 L 3475 0 L 2900 0 L 2900 538 Q 2691 219 2414 64 Q 2138 -91 1772 -91 Q 1169 -91 856 284 Q 544 659 544 1381 z M 1991 3584 L 1991 3584 z" transform="scale(0.015625)"/><path id="DejaVuSans-63" d="M 3122 3366 L 3122 2828 Q 2878 2963 2633 3030 Q 2388 3097 2138 3097 Q 1578 3097 1268 2742 Q 959 2388 959 1747 Q 959 1106 1268 751 Q 1578 397 2138 397 Q 2388 397 2633 464 Q 2878 531 3122 666 L 3122 134 Q 2881 22 2623 -34 Q 2366 -91 2075 -91 Q 1284 -91 818 406 Q 353 903 353 1747 Q 353 2603 823 3093 Q 1294 3584 2113 3584 Q 2378 3584 2631 3529 Q 2884 3475 3122 3366 z" transform="scale(0.015625)"/><path id="DejaVuSans-79" d="M 2059 -325 Q 1816 -950 1584 -1140 Q 1353 -1331 966 -1331 L 506 -1331 L 506 -850 L 844 -850 Q 1081 -850 1212 -737 Q 1344 -625 1503 -206 L 1606 56 L 191 3500 L 800 3500 L 1894 763 L 2988 3500 L 3597 3500 L 2059 -325 z" transform="scale(0.015625)"/></defs><use xlink:href="#DejaVuSans-52"/><use xlink:href="#DejaVuSans-65" x="64.982"/><use xlink:href="#DejaVuSans-67" x="126.506"/><use xlink:href="#DejaVuSans-69" x="189.982"/><use xlink:href="#DejaVuSans-6f" x="217.766"/><use xlink:href="#DejaVuSans-6e" x="278.947"/><use xlink:href="#DejaVuSans-20" x="342.326"/><use xlink:href="#DejaVuSans-46" x="374.113"/><use xlink:href="#DejaVuSans-72" x="424.383"/><use xlink:href="#DejaVuSans-65" x="463.246"/><use xlink:href="#DejaVuSans-71" x="524.77"/><use xlink:href="#DejaVuSans-75" x="588.246"/><use xlink:href="#DejaVuSans-65" x="651.625"/><use xlink:href="#DejaVuSans-6e" x="713.148"/><use xlink:href="#DejaVuSans-63" x="776.527"/><use xlink:href="#DejaVuSans-79" x="831.508"/></g></g></g><g id="legend_1"><g id="patch_59"><path d="M 4.858 586.189269 L 45.276994 586.189269 Q 46.664994 586.189269 46.664994 584.801269 L 46.664994 4.858 Q 46.664994 3.47 45.276994 3.47 L 4.858 3.47 Q 3.47 3.47 3.47 4.858 L 3.47 584.801269 Q 3.47 586.189269 4.858 586.189269 z" opacity="0.8" stroke="#cccccc" stroke-linejoin="miter"/></g><g id="patch_60"><path d="M 6.246 11.519316 L 20.126 11.519316 L 20.126 6.661316 L 6.246 6.661316 z" fill="#ac5953"/></g><g id="text_2"><g transform="translate(25.678 11.519316) scale(0.0694 -0.0694)" fill="#ffffff"><defs><path id="DejaVuSans-53" d="M 3425 4513 L 3425 3897 Q 3066 4069 2747 4153 Q 2428 4238 2131 4238 Q 1616 4238 1336 4038 Q 1056 3838 1056 3469 Q 1056 3159 1242 3001 Q 1428 2844 1947 2747 L 2328 2669 Q 3034 2534 3370 2195 Q 3706 1856 3706 1288 Q 3706 609 3251 259 Q 2797 -91 1919 -91 Q 1588 -91 1214 -16 Q 841 59 441 206 L 441 856 Q 825 641 1194 531 Q 1563 422 1919 422 Q 2459 422 2753 634 Q 3047 847 3047 1241 Q 3047 1584 2836 1778 Q 2625 1972 2144 2069 L 1759 2144 Q 1053 2284 737 2584 Q 422 2884 422 3419 Q 422 4038 858 4394 Q 1294 4750 2059 4750 Q 2388 4750 2728 4690 Q 3069 4631 3425 4513 z" transform="scale(0.015625)"/><path id="DejaVuSans-55" d="M 556 4666 L 1191 4666 L 1191 1831 Q 1191 1081 1462 751 Q 1734 422 2344 422 Q 2950 422 3222 751 Q 3494 1081 3494 1831 L 3494 4666 L 4128 4666 L 4128 1753 Q 4128 841 3676 375 Q 3225 -91 2344 -91 Q 1459 -91 1007 375 Q 556 841 556 1753 L 556 4666 z" transform="scale(0.015625)"/></defs><use xlink:href="#DejaVuSans-53"/><use xlink:href="#DejaVuSans-55" x="63.477"/></g></g><g id="patch_61"><path d="M 6.246 21.705934 L 20.126 21.705934 L 20.126 16.847934 L 6.246 16.847934 z" fill="#a840bf"/></g><g id="text_3"><g transform="translate(25.678 21.705934) scale(0.0694 -0.0694)" fill="#ffffff"><defs><path id="DejaVuSans-42" d="M 1259 2228 L 1259 519 L 2272 519 Q 2781 519 3026 730 Q 3272 941 3272 1375 Q 3272 1813 3026 2020 Q 2781 2228 2272 2228 L 1259 2228 z M 1259 4147 L 1259 2741 L 2194 2741 Q 2656 2741 2882 2914 Q 3109 3088 3109 3444 Q 3109 3797 2882 3972 Q 2656 4147 2194 4147 L 1259 4147 z M 628 4666 L 2241 4666 Q 2963 4666 3353 4366 Q 3744 4066 3744 3513 Q 3744 3084 3544 2831 Q 3344 2578 2956 2516 Q 3422 2416 3680 2098 Q 3938 1781 3938 1306 Q 3938 681 3513 340 Q 3088 0 2303 0 L 628 0 L 628 4666 z" transform="scale(0.015625)"/></defs><use xlink:href="#DejaVuSans-53"/><use xlink:href="#DejaVuSans-42" x="63.477"/></g></g><g id="patch_62"><path d="M 6.246 31.892553 L 20.126 31.892553 L 20.126 27.034553 L 6.246 27.034553 z" fill="#651f93"/></g><g id="text_4"><g transform="translate(25.678 31.892553) scale(0.0694 -0.0694)" fill="#ffffff"><defs><path id="DejaVuSans-48" d="M 628 4666 L 1259 4666 L 1259 2753 L 3553 2753 L 3553 4666 L 4184 4666 L 4184 0 L 3553 0 L 3553 2222 L 1259 2222 L 1259 0 L 628 0 L 628 4666 z" transform="scale(0.015625)"/><path id="DejaVuSans-49" d="M 628 4666 L 1259 4666 L 1259 0 L 628 0 L 628 4666 z" transform="scale(0.015625)"/></defs><use xlink:href="#DejaVuSans-48"/><use xlink:href="#DejaVuSans-49" x="75.195"/></g></g><g id="patch_63"><path d="M 6.246 42.079172 L 20.126 42.079172 L 20.126 37.221172 L 6.246 37.221172 z" fill="#862d36"/></g><g id="text_5"><g transform="translate(25.678 42.079172) scale(0.0694 -0.0694)" fill="#ffffff"><use xlink:href="#DejaVuSans-53"/><use xlink:href="#DejaVuSans-49" x="63.477"/></g></g><g id="patch_64"><path d="M 6.246 52.265791 L 20.126 52.265791 L 20.126 47.407791 L 6.246 47.407791 z" fill="#1f937c"/></g><g id="text_6"><g transform="translate(25.678 52.265791) scale(0.0694 -0.0694)" fill="#ffffff"><defs><path id="DejaVuSans-43" d="M 4122 4306 L 4122 3641 Q 3803 3938 3442 4084 Q 3081 4231 2675 4231 Q 1875 4231 1450 3742 Q 1025 3253 1025 2328 Q 1025 1406 1450 917 Q 1875 428 2675 428 Q 3081 428 3442 575 Q 3803 722 4122 1019 L 4122 359 Q 3791 134 3420 21 Q 3050 -91 2638 -91 Q 1578 -91 968 557 Q 359 1206 359 2328 Q 359 3453 968 4101 Q 1578 4750 2638 4750 Q 3056 4750 3426 4639 Q 3797 4528 4122 4306 z" transform="scale(0.015625)"/></defs><use xlink:href="#DejaVuSans-43"/><use xlink:href="#DejaVuSans-43" x="69.824"/></g></g><g id="patch_65"><path d="M 6.246 62.452409 L 20.126 62.452409 L 20.126 57.594409 L 6.246 57.594409 z" fill="#2dbfd2"/></g><g id="text_7"><g transform="translate(25.678 62.452409) scale(0.0694 -0.0694)" fill="#ffffff"><defs><path id="DejaVuSans-57" d="M 213 4666 L 850 4666 L 1831 722 L 2809 4666 L 3519 4666 L 4500 722 L 5478 4666 L 6119 4666 L 4947 0 L 4153 0 L 3169 4050 L 2175 0 L 1381 0 L 213 4666 z" transform="scale(0.015625)"/></defs><use xlink:href="#DejaVuSans-55"/><use xlink:href="#DejaVuSans-57" x="73.193"/></g></g><g id="patch_66"><path d="M 6.246 72.639028 L 20.126 72.639028 L 20.126 67.781028 L 6.246 67.781028 z" fill="#1f9327"/></g><g id="text_8"><g transform="translate(25.678 72.639028) scale(0.0694 -0.0694)" fill="#ffffff"><defs><path id="DejaVuSans-4c" d="M 628 4666 L 1259 4666 L 1259 531 L 3531 531 L 3531 0 L 628 0 L 628 4666 z" transform="scale(0.015625)"/><path id="DejaVuSans-4d" d="M 628 4666 L 1569 4666 L 2759 1491 L 3956 4666 L 4897 4666 L 4897 0 L 4281 0 L 4281 4097 L 3078 897 L 2444 897 L 1241 4097 L 1241 0 L 628 0 L 628 4666 z" transform="scale(0.015625)"/></defs><use xlink:href="#DejaVuSans-4c"/><use xlink:href="#DejaVuSans-4d" x="55.713"/></g></g><g id="patch_67"><path d="M 6.246 82.825647 L 20.126 82.825647 L 20.126 77.967647 L 6.246 77.967647 z" fill="#5372ac"/></g><g id="text_9"><g transform="translate(25.678 82.825647) scale(0.0694 -0.0694)" fill="#ffffff"><defs><path id="DejaVuSans-56" d="M 1831 0 L 50 4666 L 709 4666 L 2188 738 L 3669 4666 L 4325 4666 L 2547 0 L 1831 0 z" transform="scale(0.015625)"/></defs><use xlink:href="#DejaVuSans-56"/><use xlink:href="#DejaVuSans-53" x="68.408"/></g></g><g id="patch_68"><path d="M 6.246 93.012266 L 20.126 93.012266 L 20.126 88.154266 L 6.246 88.154266 z" fill="#7f2dd2"/></g><g id="text_10"><g transform="translate(25.678 93.012266) scale(0.0694 -0.0694)" fill="#ffffff"><use xlink:href="#DejaVuSans-53"/><use xlink:href="#DejaVuSans-4c" x="63.477"/></g></g><g id="patch_69"><path d="M 6.246 103.198884 L 20.126 103.198884 L 20.126 98.340884 L 6.246 98.340884 z" fill="#6ce085"/></g><g id="text_11"><g transform="translate(25.678 103.198884) scale(0.0694 -0.0694)" fill="#ffffff"><defs><path id="DejaVuSans-47" d="M 3809 666 L 3809 1919 L 2778 1919 L 2778 2438 L 4434 2438 L 4434 434 Q 4069 175 3628 42 Q 3188 -91 2688 -91 Q 1594 -91 976 548 Q 359 1188 359 2328 Q 359 3472 976 4111 Q 1594 4750 2688 4750 Q 3144 4750 3555 4637 Q 3966 4525 4313 4306 L 4313 3634 Q 3963 3931 3569 4081 Q 3175 4231 2741 4231 Q 1884 4231 1454 3753 Q 1025 3275 1025 2328 Q 1025 1384 1454 906 Q 1884 428 2741 428 Q 3075 428 3337 486 Q 3600 544 3809 666 z" transform="scale(0.015625)"/></defs><use xlink:href="#DejaVuSans-47"/><use xlink:href="#DejaVuSans-57" x="77.49"/></g></g><g id="patch_70"><path d="M 6.246 113.385503 L 20.126 113.385503 L 20.126 108.527503 L 6.246 108.527503 z" fill="#79d2b5"/></g><g id="text_12"><g transform="translate(25.678 113.385503) scale(0.0694 -0.0694)" fill="#ffffff"><use xlink:href="#DejaVuSans-4c"/><use xlink:href="#DejaVuSans-43" x="55.713"/></g></g><g id="patch_71"><path d="M 6.246 123.572122 L 20.126 123.572122 L 20.126 118.714122 L 6.246 118.714122 z" fill="#6ce098"/></g><g id="text_13"><g transform="translate(25.678 123.572122) scale(0.0694 -0.0694)" fill="#ffffff"><use xlink:href="#DejaVuSans-4c"/><use xlink:href="#DejaVuSans-46" x="55.713"/></g></g><g id="patch_72"><path d="M 6.246 133.758741 L 20.126 133.758741 L 20.126 128.900741 L 6.246 128.900741 z" fill="#2dd235"/></g><g id="text_14"><g transform="translate(25.678 133.758741) scale(0.0694 -0.0694)" fill="#ffffff"><defs><path id="DejaVuSans-44" d="M 1259 4147 L 1259 519 L 2022 519 Q 2988 519 3436 956 Q 3884 1394 3884 2338 Q 3884 3275 3436 3711 Q 2988 4147 2022 4147 L 1259 4147 z M 628 4666 L 1925 4666 Q 3281 4666 3915 4102 Q 4550 3538 4550 2338 Q 4550 1131 3912 565 Q 3275 0 1925 0 L 628 0 L 628 4666 z" transform="scale(0.015625)"/></defs><use xlink:href="#DejaVuSans-44"/><use xlink:href="#DejaVuSans-53" x="77.002"/></g></g><g id="patch_73"><path d="M 6.246 143.945359 L 20.126 143.945359 L 20.126 139.087359 L 6.246 139.087359 z" fill="#87c5a1"/></g><g id="text_15"><g transform="translate(25.678 143.945359) scale(0.0694 -0.0694)" fill="#ffffff"><defs><path id="DejaVuSans-41" d="M 2188 4044 L 1331 1722 L 3047 1722 L 2188 4044 z M 1831 4666 L 2547 4666 L 4325 0 L 3669 0 L 3244 1197 L 1141 1197 L 716 0 L 50 0 L 1831 4666 z" transform="scale(0.015625)"/></defs><use xlink:href="#DejaVuSans-4d"/><use xlink:href="#DejaVuSans-41" x="86.279"/></g></g><g id="patch_74"><path d="M 6.246 154.131978 L 20.126 154.131978 L 20.126 149.273978 L 6.246 149.273978 z" fill="#d279a6"/></g><g id="text_16"><g transform="translate(25.678 154.131978) scale(0.0694 -0.0694)" fill="#ffffff"><use xlink:href="#DejaVuSans-43"/><use xlink:href="#DejaVuSans-4c" x="69.824"/></g></g><g id="patch_75"><path d="M 6.246 164.318597 L 20.126 164.318597 L 20.126 159.460597 L 6.246 159.460597 z" fill="#6ce0bd"/></g><g id="text_17"><g transform="translate(25.678 164.318597) scale(0.0694 -0.0694)" fill="#ffffff"><use xlink:href="#DejaVuSans-53"/><use xlink:href="#DejaVuSans-48" x="63.477"/></g></g><g id="patch_76"><path d="M 6.246 174.505216 L 20.126 174.505216 L 20.126 169.647216 L 6.246 169.647216 z" fill="#2d4f86"/></g><g id="text_18"><g transform="translate(25.678 174.505216) scale(0.0694 -0.0694)" fill="#ffffff"><defs><path id="DejaVuSans-54" d="M -19 4666 L 3928 4666 L 3928 4134 L 2272 4134 L 2272 0 L 1638 0 L 1638 4134 L -19 4134 L -19 4666 z" transform="scale(0.015625)"/><path id="DejaVuSans-45" d="M 628 4666 L 3578 4666 L 3578 4134 L 1259 4134 L 1259 2753 L 3481 2753 L 3481 2222 L 1259 2222 L 1259 531 L 3634 531 L 3634 0 L 628 0 L 628 4666 z" transform="scale(0.015625)"/></defs><use xlink:href="#DejaVuSans-47"/><use xlink:href="#DejaVuSans-41" x="77.49"/><use xlink:href="#DejaVuSans-54" x="138.148"/><use xlink:href="#DejaVuSans-45" x="199.232"/></g></g><g id="patch_77"><path d="M 6.246 184.691834 L 20.126 184.691834 L 20.126 179.833834 L 6.246 179.833834 z" fill="#6c75e0"/></g><g id="text_19"><g transform="translate(25.678 184.691834) scale(0.0694 -0.0694)" fill="#ffffff"><defs><path id="DejaVuSans-4f" d="M 2522 4238 Q 1834 4238 1429 3725 Q 1025 3213 1025 2328 Q 1025 1447 1429 934 Q 1834 422 2522 422 Q 3209 422 3611 934 Q 4013 1447 4013 2328 Q 4013 3213 3611 3725 Q 3209 4238 2522 4238 z M 2522 4750 Q 3503 4750 4090 4092 Q 4678 3434 4678 2328 Q 4678 1225 4090 567 Q 3503 -91 2522 -91 Q 1538 -91 948 565 Q 359 1222 359 2328 Q 359 3434 948 4092 Q 1538 4750 2522 4750 z" transform="scale(0.015625)"/></defs><use xlink:href="#DejaVuSans-4f"/><use xlink:href="#DejaVuSans-45" x="78.711"/></g></g><g id="patch_78"><path d="M 6.246 194.878453 L 20.126 194.878453 L 20.126 190.020453 L 6.246 190.020453 z" fill="#472d86"/></g><g id="text_20"><g transform="translate(25.678 194.878453) scale(0.0694 -0.0694)" fill="#ffffff"><use xlink:href="#DejaVuSans-48"/><use xlink:href="#DejaVuSans-52" x="75.195"/></g></g><g id="patch_79"><path d="M 6.246 205.065072 L 20.126 205.065072 L 20.126 200.207072 L 6.246 200.207072 z" fill="#40b0bf"/></g><g id="text_21"><g transform="translate(25.678 205.065072) scale(0.0694 -0.0694)" fill="#ffffff"><use xlink:href="#DejaVuSans-44"/><use xlink:href="#DejaVuSans-4d" x="77.002"/></g></g><g id="patch_80"><path d="M 6.246 215.251691 L 20.126 215.251691 L 20.126 210.393691 L 6.246 210.393691 z" fill="#79d2b2"/></g><g id="text_22"><g transform="translate(25.678 215.251691) scale(0.0694 -0.0694)" fill="#ffffff"><defs><path id="DejaVuSans-4e" d="M 628 4666 L 1478 4666 L 3547 763 L 3547 4666 L 4159 4666 L 4159 0 L 3309 0 L 1241 3903 L 1241 0 L 628 0 L 628 4666 z" transform="scale(0.015625)"/></defs><use xlink:href="#DejaVuSans-46"/><use xlink:href="#DejaVuSans-4e" x="57.52"/></g></g><g id="patch_81"><path d="M 6.246 225.438309 L 20.126 225.438309 L 20.126 220.580309 L 6.246 220.580309 z" fill="#931f3c"/></g><g id="text_23"><g transform="translate(25.678 225.438309) scale(0.0694 -0.0694)" fill="#ffffff"><use xlink:href="#DejaVuSans-43"/><use xlink:href="#DejaVuSans-41" x="69.824"/></g></g><g id="patch_82"><path d="M 6.246 235.624928 L 20.126 235.624928 L 20.126 230.766928 L 6.246 230.766928 z" fill="#2dd288"/></g><g id="text_24"><g transform="translate(25.678 235.624928) scale(0.0694 -0.0694)" fill="#ffffff"><use xlink:href="#DejaVuSans-53"/><use xlink:href="#DejaVuSans-53" x="63.477"/></g></g><g id="patch_83"><path d="M 6.246 245.811547 L 20.126 245.811547 L 20.126 240.953547 L 6.246 240.953547 z" fill="#d22dd2"/></g><g id="text_25"><g transform="translate(25.678 245.811547) scale(0.0694 -0.0694)" fill="#ffffff"><use xlink:href="#DejaVuSans-43"/><use xlink:href="#DejaVuSans-46" x="69.824"/></g></g><g id="patch_84"><path d="M 6.246 255.998166 L 20.126 255.998166 L 20.126 251.140166 L 6.246 251.140166 z" fill="#b9d279"/></g><g id="text_26"><g transform="translate(25.678 255.998166) scale(0.0694 -0.0694)" fill="#ffffff"><use xlink:href="#DejaVuSans-56"/><use xlink:href="#DejaVuSans-49" x="68.408"/></g></g><g id="patch_85"><path d="M 6.246 266.184784 L 20.126 266.184784 L 20.126 261.326784 L 6.246 261.326784 z" fill="#48783a"/></g><g id="text_27"><g transform="translate(25.678 266.184784) scale(0.0694 -0.0694)" fill="#ffffff"><use xlink:href="#DejaVuSans-4d"/><use xlink:href="#DejaVuSans-45" x="86.279"/></g></g><g id="patch_86"><path d="M 6.246 276.371403 L 20.126 276.371403 L 20.126 271.513403 L 6.246 271.513403 z" fill="#d279c3"/></g><g id="text_28"><g transform="translate(25.678 276.371403) scale(0.0694 -0.0694)" fill="#ffffff"><defs><path id="DejaVuSans-59" d="M -13 4666 L 666 4666 L 1959 2747 L 3244 4666 L 3922 4666 L 2272 2222 L 2272 0 L 1638 0 L 1638 2222 L -13 4666 z" transform="scale(0.015625)"/></defs><use xlink:href="#DejaVuSans-41"/><use xlink:href="#DejaVuSans-59" x="60.658"/></g></g><g id="patch_87"><path d="M 6.246 286.558022 L 20.126 286.558022 L 20.126 281.700022 L 6.246 281.700022 z" fill="#cae06c"/></g><g id="text_29"><g transform="translate(25.678 286.558022) scale(0.0694 -0.0694)" fill="#ffffff"><defs><path id="DejaVuSans-50" d="M 1259 4147 L 1259 2394 L 2053 2394 Q 2494 2394 2734 2622 Q 2975 2850 2975 3272 Q 2975 3691 2734 3919 Q 2494 4147 2053 4147 L 1259 4147 z M 628 4666 L 2053 4666 Q 2838 4666 3239 4311 Q 3641 3956 3641 3272 Q 3641 2581 3239 2228 Q 2838 1875 2053 1875 L 1259 1875 L 1259 0 L 628 0 L 628 4666 z" transform="scale(0.015625)"/></defs><use xlink:href="#DejaVuSans-46"/><use xlink:href="#DejaVuSans-50" x="57.52"/></g></g><g id="patch_88"><path d="M 6.246 296.744641 L 20.126 296.744641 L 20.126 291.886641 L 6.246 291.886641 z" fill="#c58799"/></g><g id="text_30"><g transform="translate(25.678 296.744641) scale(0.0694 -0.0694)" fill="#ffffff"><use xlink:href="#DejaVuSans-52"/><use xlink:href="#DejaVuSans-4d" x="69.482"/></g></g><g id="patch_89"><path d="M 6.246 306.931259 L 20.126 306.931259 L 20.126 302.073259 L 6.246 302.073259 z" fill="#72e06c"/></g><g id="text_31"><g transform="translate(25.678 306.931259) scale(0.0694 -0.0694)" fill="#ffffff"><use xlink:href="#DejaVuSans-55"/><use xlink:href="#DejaVuSans-47" x="73.193"/></g></g><g id="patch_90"><path d="M 6.246 317.117878 L 20.126 317.117878 L 20.126 312.259878 L 6.246 312.259878 z" fill="#d22f2d"/></g><g id="text_32"><g transform="translate(25.678 317.117878) scale(0.0694 -0.0694)" fill="#ffffff"><use xlink:href="#DejaVuSans-4f"/><use xlink:href="#DejaVuSans-53" x="78.711"/></g></g><g id="patch_91"><path d="M 6.246 327.304497 L 20.126 327.304497 L 20.126 322.446497 L 6.246 322.446497 z" fill="#3a7877"/></g><g id="text_33"><g transform="translate(25.678 327.304497) scale(0.0694 -0.0694)" fill="#ffffff"><use xlink:href="#DejaVuSans-4d"/><use xlink:href="#DejaVuSans-53" x="86.279"/></g></g><g id="patch_92"><path d="M 6.246 337.491116 L 20.126 337.491116 L 20.126 332.633116 L 6.246 332.633116 z" fill="#6b1f93"/></g><g id="text_34"><g transform="translate(25.678 337.491116) scale(0.0694 -0.0694)" fill="#ffffff"><use xlink:href="#DejaVuSans-50"/><use xlink:href="#DejaVuSans-41" x="53.928"/></g></g><g id="patch_93"><path d="M 6.246 347.677734 L 20.126 347.677734 L 20.126 342.819734 L 6.246 342.819734 z" fill="#9587c5"/></g><g id="text_35"><g transform="translate(25.678 347.677734) scale(0.0694 -0.0694)" fill="#ffffff"><defs><path id="DejaVuSans-4b" d="M 628 4666 L 1259 4666 L 1259 2694 L 3353 4666 L 4166 4666 L 1850 2491 L 4331 0 L 3500 0 L 1259 2247 L 1259 0 L 628 0 L 628 4666 z" transform="scale(0.015625)"/></defs><use xlink:href="#DejaVuSans-53"/><use xlink:href="#DejaVuSans-4b" x="63.477"/></g></g><g id="patch_94"><path d="M 6.246 357.864353 L 20.126 357.864353 L 20.126 353.006353 L 6.246 353.006353 z" fill="#1f3693"/></g><g id="text_36"><g transform="translate(25.678 357.864353) scale(0.0694 -0.0694)" fill="#ffffff"><use xlink:href="#DejaVuSans-49"/><use xlink:href="#DejaVuSans-57" x="29.492"/></g></g><g id="patch_95"><path d="M 6.246 368.050972 L 20.126 368.050972 L 20.126 363.192972 L 6.246 363.192972 z" fill="#1f4e93"/></g><g id="text_37"><g transform="translate(25.678 368.050972) scale(0.0694 -0.0694)" fill="#ffffff"><use xlink:href="#DejaVuSans-45"/><use xlink:href="#DejaVuSans-4c" x="63.184"/></g></g><g id="patch_96"><path d="M 6.246 378.237591 L 20.126 378.237591 L 20.126 373.379591 L 6.246 373.379591 z" fill="#40bf90"/></g><g id="text_38"><g transform="translate(25.678 378.237591) scale(0.0694 -0.0694)" fill="#ffffff"><use xlink:href="#DejaVuSans-54"/><use xlink:href="#DejaVuSans-59" x="61.084"/></g></g><g id="patch_97"><path d="M 6.246 388.424209 L 20.126 388.424209 L 20.126 383.566209 L 6.246 383.566209 z" fill="#85d279"/></g><g id="text_39"><g transform="translate(25.678 388.424209) scale(0.0694 -0.0694)" fill="#ffffff"><defs><path id="DejaVuSans-74" d="M 1172 4494 L 1172 3500 L 2356 3500 L 2356 3053 L 1172 3053 L 1172 1153 Q 1172 725 1289 603 Q 1406 481 1766 481 L 2356 481 L 2356 0 L 1766 0 Q 1100 0 847 248 Q 594 497 594 1153 L 594 3053 L 172 3053 L 172 3500 L 594 3500 L 594 4494 L 1172 4494 z" transform="scale(0.015625)"/></defs><use xlink:href="#DejaVuSans-74"/><use xlink:href="#DejaVuSans-72" x="39.209"/></g></g><g id="patch_98"><path d="M 6.246 398.610828 L 20.126 398.610828 L 20.126 393.752828 L 6.246 393.752828 z" fill="#bf4064"/></g><g id="text_40"><g transform="translate(25.678 398.610828) scale(0.0694 -0.0694)" fill="#ffffff"><defs><path id="DejaVuSans-58" d="M 403 4666 L 1081 4666 L 2241 2931 L 3406 4666 L 4084 4666 L 2584 2425 L 4184 0 L 3506 0 L 2194 1984 L 872 0 L 191 0 L 1856 2491 L 403 4666 z" transform="scale(0.015625)"/></defs><use xlink:href="#DejaVuSans-58"/><use xlink:href="#DejaVuSans-44" x="68.506"/></g></g><g id="patch_99"><path d="M 6.246 408.797447 L 20.126 408.797447 L 20.126 403.939447 L 6.246 403.939447 z" fill="#7e79d2"/></g><g id="text_41"><g transform="translate(25.678 408.797447) scale(0.0694 -0.0694)" fill="#ffffff"><use xlink:href="#DejaVuSans-57"/><use xlink:href="#DejaVuSans-52" x="98.877"/></g></g><g id="patch_100"><path d="M 6.246 418.984066 L 20.126 418.984066 L 20.126 414.126066 L 6.246 414.126066 z" fill="#d28179"/></g><g id="text_42"><g transform="translate(25.678 418.984066) scale(0.0694 -0.0694)" fill="#ffffff"><use xlink:href="#DejaVuSans-44"/><use xlink:href="#DejaVuSans-4e" x="77.002"/></g></g><g id="patch_101"><path d="M 6.246 429.170684 L 20.126 429.170684 L 20.126 424.312684 L 6.246 424.312684 z" fill="#90ac53"/></g><g id="text_43"><g transform="translate(25.678 429.170684) scale(0.0694 -0.0694)" fill="#ffffff"><use xlink:href="#DejaVuSans-4d"/><use xlink:href="#DejaVuSans-57" x="86.279"/></g></g><g id="patch_102"><path d="M 6.246 439.357303 L 20.126 439.357303 L 20.126 434.499303 L 6.246 434.499303 z" fill="#2d6d86"/></g><g id="text_44"><g transform="translate(25.678 439.357303) scale(0.0694 -0.0694)" fill="#ffffff"><use xlink:href="#DejaVuSans-54"/><use xlink:href="#DejaVuSans-53" x="61.084"/></g></g><g id="patch_103"><path d="M 6.246 449.543922 L 20.126 449.543922 L 20.126 444.685922 L 6.246 444.685922 z" fill="#c58f87"/></g><g id="text_45"><g transform="translate(25.678 449.543922) scale(0.0694 -0.0694)" fill="#ffffff"><use xlink:href="#DejaVuSans-42"/><use xlink:href="#DejaVuSans-4b" x="68.604"/></g></g><g id="patch_104"><path d="M 6.246 459.730541 L 20.126 459.730541 L 20.126 454.872541 L 6.246 454.872541 z" fill="#bf7140"/></g><g id="text_46"><g transform="translate(25.678 459.730541) scale(0.0694 -0.0694)" fill="#ffffff"><use xlink:href="#DejaVuSans-43"/><use xlink:href="#DejaVuSans-54" x="69.824"/></g></g><g id="patch_105"><path d="M 6.246 469.917159 L 20.126 469.917159 L 20.126 465.059159 L 6.246 465.059159 z" fill="#932d1f"/></g><g id="text_47"><g transform="translate(25.678 469.917159) scale(0.0694 -0.0694)" fill="#ffffff"><use xlink:href="#DejaVuSans-48"/><use xlink:href="#DejaVuSans-46" x="75.195"/></g></g><g id="patch_106"><path d="M 6.246 480.103778 L 20.126 480.103778 L 20.126 475.245778 L 6.246 475.245778 z" fill="#3a3c78"/></g><g id="text_48"><g transform="translate(25.678 480.103778) scale(0.0694 -0.0694)" fill="#ffffff"><defs><path id="DejaVuSans-51" d="M 2522 4238 Q 1834 4238 1429 3725 Q 1025 3213 1025 2328 Q 1025 1447 1429 934 Q 1834 422 2522 422 Q 3209 422 3611 934 Q 4013 1447 4013 2328 Q 4013 3213 3611 3725 Q 3209 4238 2522 4238 z M 3406 84 L 4238 -825 L 3475 -825 L 2784 -78 Q 2681 -84 2626 -87 Q 2572 -91 2522 -91 Q 1538 -91 948 567 Q 359 1225 359 2328 Q 359 3434 948 4092 Q 1538 4750 2522 4750 Q 3503 4750 4090 4092 Q 4678 3434 4678 2328 Q 4678 1516 4351 937 Q 4025 359 3406 84 z" transform="scale(0.015625)"/></defs><use xlink:href="#DejaVuSans-51"/><use xlink:href="#DejaVuSans-57" x="78.711"/></g></g><g id="patch_107"><path d="M 6.246 490.290397 L 20.126 490.290397 L 20.126 485.432397 L 6.246 485.432397 z" fill="#e0cc6c"/></g><g id="text_49"><g transform="translate(25.678 490.290397) scale(0.0694 -0.0694)" fill="#ffffff"><use xlink:href="#DejaVuSans-53"/><use xlink:href="#DejaVuSans-50" x="63.477"/></g></g><g id="patch_108"><path d="M 6.246 500.477016 L 20.126 500.477016 L 20.126 495.619016 L 6.246 495.619016 z" fill="#c56ce0"/></g><g id="text_50"><g transform="translate(25.678 500.477016) scale(0.0694 -0.0694)" fill="#ffffff"><use xlink:href="#DejaVuSans-55"/><use xlink:href="#DejaVuSans-59" x="73.193"/></g></g><g id="patch_109"><path d="M 6.246 510.663634 L 20.126 510.663634 L 20.126 505.805634 L 6.246 505.805634 z" fill="#bf4080"/></g><g id="text_51"><g transform="translate(25.678 510.663634) scale(0.0694 -0.0694)" fill="#ffffff"><use xlink:href="#DejaVuSans-57"/><use xlink:href="#DejaVuSans-4d" x="98.877"/></g></g><g id="patch_110"><path d="M 6.246 520.850253 L 20.126 520.850253 L 20.126 515.992253 L 6.246 515.992253 z" fill="#86762d"/></g><g id="text_52"><g transform="translate(25.678 520.850253) scale(0.0694 -0.0694)" fill="#ffffff"><use xlink:href="#DejaVuSans-49"/><use xlink:href="#DejaVuSans-4e" x="29.492"/></g></g><g id="patch_111"><path d="M 6.246 531.036872 L 20.126 531.036872 L 20.126 526.178872 L 6.246 526.178872 z" fill="#c5d22d"/></g><g id="text_53"><g transform="translate(25.678 531.036872) scale(0.0694 -0.0694)" fill="#ffffff"><use xlink:href="#DejaVuSans-42"/><use xlink:href="#DejaVuSans-57" x="64.979"/></g></g><g id="patch_112"><path d="M 6.246 541.223491 L 20.126 541.223491 L 20.126 536.365491 L 6.246 536.365491 z" fill="#abc587"/></g><g id="text_54"><g transform="translate(25.678 541.223491) scale(0.0694 -0.0694)" fill="#ffffff"><use xlink:href="#DejaVuSans-54"/><use xlink:href="#DejaVuSans-57" x="61.084"/></g></g><g id="patch_113"><path d="M 6.246 551.410109 L 20.126 551.410109 L 20.126 546.552109 L 6.246 546.552109 z" fill="#c587a2"/></g><g id="text_55"><g transform="translate(25.678 551.410109) scale(0.0694 -0.0694)" fill="#ffffff"><use xlink:href="#DejaVuSans-43"/><use xlink:href="#DejaVuSans-56" x="69.824"/></g></g><g id="patch_114"><path d="M 6.246 561.596728 L 20.126 561.596728 L 20.126 556.738728 L 6.246 556.738728 z" fill="#2d4186"/></g><g id="text_56"><g transform="translate(25.678 561.596728) scale(0.0694 -0.0694)" fill="#ffffff"><use xlink:href="#DejaVuSans-4d"/><use xlink:href="#DejaVuSans-4c" x="86.279"/></g></g><g id="patch_115"><path d="M 6.246 571.783347 L 20.126 571.783347 L 20.126 566.925347 L 6.246 566.925347 z" fill="#e06ca4"/></g><g id="text_57"><g transform="translate(25.678 571.783347) scale(0.0694 -0.0694)" fill="#ffffff"><use xlink:href="#DejaVuSans-52"/><use xlink:href="#DejaVuSans-50" x="69.482"/></g></g><g id="patch_116"><path d="M 6.246 581.969966 L 20.126 581.969966 L 20.126 577.111966 L 6.246 577.111966 z" fill="#c59487"/></g><g id="text_58"><g transform="translate(25.678 581.969966) scale(0.0694 -0.0694)" fill="#ffffff"><defs><path id="DejaVuSans-70" d="M 1159 525 L 1159 -1331 L 581 -1331 L 581 3500 L 1159 3500 L 1159 2969 Q 1341 3281 1617 3432 Q 1894 3584 2278 3584 Q 2916 3584 3314 3078 Q 3713 2572 3713 1747 Q 3713 922 3314 415 Q 2916 -91 2278 -91 Q 1894 -91 1617 61 Q 1341 213 1159 525 z M 3116 1747 Q 3116 2381 2855 2742 Q 2594 3103 2138 3103 Q 1681 3103 1420 2742 Q 1159 2381 1159 1747 Q 1159 1113 1420 752 Q 1681 391 2138 391 Q 2594 391 2855 752 Q 3116 1113 3116 1747 z" transform="scale(0.015625)"/><path id="DejaVuSans-73" d="M 2834 3397 L 2834 2853 Q 2591 2978 2328 3040 Q 2066 3103 1784 3103 Q 1356 3103 1142 2972 Q 928 2841 928 2578 Q 928 2378 1081 2264 Q 1234 2150 1697 2047 L 1894 2003 Q 2506 1872 2764 1633 Q 3022 1394 3022 966 Q 3022 478 2636 193 Q 2250 -91 1575 -91 Q 1294 -91 989 -36 Q 684 19 347 128 L 347 722 Q 666 556 975 473 Q 1284 391 1588 391 Q 1994 391 2212 530 Q 2431 669 2431 922 Q 2431 1156 2273 1281 Q 2116 1406 1581 1522 L 1381 1569 Q 847 1681 609 1914 Q 372 2147 372 2553 Q 372 3047 722 3315 Q 1072 3584 1716 3584 Q 2034 3584 2315 3537 Q 2597 3491 2834 3397 z" transform="scale(0.015625)"/></defs><use xlink:href="#DejaVuSans-70"/><use xlink:href="#DejaVuSans-73" x="63.477"/></g></g></g></g></svg>