<svg xmlns:xlink="http://www.w3.org/1999/xlink" width="624" height="528" viewBox="0 0 468 396" xmlns="http://www.w3.org/2000/svg" version="1.1"><metadata><rdf:RDF xmlns:dc="http://purl.org/dc/elements/1.1/" xmlns:cc="http://creativecommons.org/ns#" xmlns:rdf="http://www.w3.org/1999/02/22-rdf-syntax-ns#"><cc:Work><dc:type rdf:resource="http://purl.org/dc/dcmitype/StillImage"/><dc:format>image/svg+xml</dc:format><dc:creator><cc:Agent><dc:title>Matplotlib v3.7.1, https://matplotlib.org/</dc:title></cc:Agent></dc:creator></cc:Work></rdf:RDF></metadata><defs><style type="text/css">*{stroke-linejoin:round;stroke-linecap:butt}</style></defs><g id="figure_1"><g id="patch_1"><path d="M 0 396 L 468 396 L 468 0 L 0 0 z"/></g><g id="axes_1"><g id="patch_2"><path d="M 407.556 199.98 C 407.556 179.584807 403.835526 159.359639 396.577621 140.299557 C 389.319716 121.239475 378.645393 103.662269 365.079818 88.432722 L 239.85 199.98 z" fill="#ac5953"/></g><g id="patch_3"><path d="M 365.079818 88.432722 C 360.215183 82.971385 354.998497 77.834116 349.46318 73.053828 C 343.927864 68.27354 338.085765 63.860465 331.974312 59.842876 L 239.85 199.98 z" fill="#a840bf"/></g><g id="patch_4"><path d="M 331.974312 59.842876 C 315.570769 49.059401 297.400528 41.239335 278.292652 36.739487 C 259.184775 32.23964 239.434366 31.129506 219.942583 33.459739 L 239.85 199.98 z" fill="#651f93"/></g><g id="patch_5"><path d="M 219.942583 33.459739 C 202.172991 35.584086 184.857439 40.539127 168.654027 48.136542 C 152.450615 55.733956 137.567253 65.876259 124.569602 78.177979 L 239.85 199.98 z" fill="#862d36"/></g><g id="patch_6"><path d="M 124.569602 78.177979 C 108.755398 93.145446 96.006464 111.050513 87.036289 130.89113 C 78.066113 150.731746 73.045217 172.13075 72.254591 193.890552 L 239.85 199.98 z" fill="#1f937c"/></g><g id="patch_7"><path d="M 72.254591 193.890552 C 71.472695 215.410098 74.842789 236.880203 82.180342 257.125264 C 89.517894 277.370326 100.686493 296.013967 115.074597 312.035349 L 239.85 199.98 z" fill="#2dbfd2"/></g><g id="patch_8"><path d="M 115.074597 312.035349 C 118.464106 315.809621 122.02312 319.428159 125.740658 322.879799 C 129.458196 326.331438 133.330431 329.612626 137.345416 332.713239 L 239.85 199.98 z" fill="#1f9327"/></g><g id="patch_9"><path d="M 137.345416 332.713239 C 140.919322 335.473224 144.603241 338.087739 148.388165 340.550393 C 152.17309 343.013046 156.055933 345.321829 160.027201 347.471096 L 239.85 199.98 z" fill="#5372ac"/></g><g id="patch_10"><path d="M 160.027201 347.471096 C 164.627252 349.960662 169.341255 352.233662 174.153748 354.282641 C 178.966242 356.331619 183.871959 358.154334 188.854811 359.744806 L 239.85 199.98 z" fill="#7f2dd2"/></g><g id="patch_11"><path d="M 188.854811 359.744806 C 201.371137 363.739881 214.31369 366.250317 227.415986 367.224425 C 240.518282 368.198533 253.689776 367.629581 266.659271 365.529284 L 239.85 199.98 z" fill="#6ce085"/></g><g id="patch_12"><path d="M 266.659271 365.529284 C 274.284591 364.29443 281.81549 362.534208 289.198158 360.261196 C 296.580825 357.988184 303.797635 355.207809 310.797019 351.939938 L 239.85 199.98 z" fill="#79d2b5"/></g><g id="patch_13"><path d="M 310.797019 351.939938 C 318.361642 348.408169 325.651997 344.31647 332.607261 339.698979 C 339.562524 335.081488 346.163298 329.951082 352.354511 324.350565 L 239.85 199.98 z" fill="#6ce098"/></g><g id="patch_14"><path d="M 352.354511 324.350565 C 354.485353 322.423024 356.566306 320.44104 358.59531 318.406576 C 360.624313 316.372111 362.600697 314.285838 364.522504 312.149823 L 239.85 199.98 z" fill="#2dd235"/></g><g id="patch_15"><path d="M 364.522504 312.149823 C 364.532308 312.138926 364.542112 312.128027 364.551913 312.117127 C 364.561715 312.106227 364.571515 312.095326 364.581314 312.084423 L 239.85 199.98 z" fill="#87c5a1"/></g><g id="patch_16"><path d="M 364.581314 312.084423 C 365.252542 311.337592 365.917049 310.584747 366.574754 309.825979 C 367.232459 309.067212 367.883337 308.302553 368.527307 307.532095 L 239.85 199.98 z" fill="#d279a6"/></g><g id="patch_17"><path d="M 368.527307 307.532095 C 373.340056 301.774033 377.76089 295.699417 381.75999 289.349218 C 385.75909 282.999019 389.327447 276.387547 392.44099 269.559394 L 239.85 199.98 z" fill="#6ce0bd"/></g><g id="patch_18"><path d="M 392.44099 269.559394 C 392.679703 269.035886 392.915719 268.511153 393.149031 267.985216 C 393.382343 267.459279 393.612947 266.932145 393.840833 266.403835 L 239.85 199.98 z" fill="#2d4f86"/></g><g id="patch_19"><path d="M 393.840833 266.403835 C 394.894673 263.96071 395.890222 261.492852 396.826635 259.002356 C 397.763048 256.51186 398.640059 253.999432 399.456924 251.467205 L 239.85 199.98 z" fill="#6c75e0"/></g><g id="patch_20"><path d="M 399.456924 251.467205 C 399.784332 250.452262 400.102051 249.434219 400.410039 248.413215 C 400.718027 247.392211 401.016268 246.368293 401.304723 245.3416 L 239.85 199.98 z" fill="#472d86"/></g><g id="patch_21"><path d="M 401.304723 245.3416 C 401.998627 242.871801 402.635768 240.386405 403.215643 237.887375 C 403.795518 235.388345 404.317975 232.876338 404.782601 230.353338 L 239.85 199.98 z" fill="#40b0bf"/></g><g id="patch_22"><path d="M 404.782601 230.353338 C 404.784592 230.342525 404.786582 230.331713 404.788571 230.3209 C 404.79056 230.310087 404.792548 230.299274 404.794535 230.288461 L 239.85 199.98 z" fill="#79d2b2"/></g><g id="patch_23"><path d="M 404.794535 230.288461 C 404.805132 230.230791 404.815698 230.173115 404.826235 230.115434 C 404.836771 230.057753 404.847277 230.000066 404.857753 229.942373 L 239.85 199.98 z" fill="#931f3c"/></g><g id="patch_24"><path d="M 404.857753 229.942373 C 405.204775 228.031267 405.518569 226.114276 405.798994 224.192269 C 406.079418 222.270261 406.326431 220.343527 406.539919 218.412938 L 239.85 199.98 z" fill="#2dd288"/></g><g id="patch_25"><path d="M 406.539919 218.412938 C 406.568115 218.15796 406.595726 217.902919 406.622752 217.647815 C 406.649777 217.392711 406.676218 217.137546 406.702072 216.882321 L 239.85 199.98 z" fill="#d22dd2"/></g><g id="patch_26"><path d="M 406.702072 216.882321 C 406.713891 216.765646 406.725588 216.64896 406.737163 216.532261 C 406.748737 216.415562 406.760189 216.298851 406.771519 216.182128 L 239.85 199.98 z" fill="#b9d279"/></g><g id="patch_27"><path d="M 406.771519 216.182128 C 406.773643 216.160242 406.775763 216.138356 406.777879 216.11647 C 406.779995 216.094584 406.782106 216.072697 406.784213 216.05081 L 239.85 199.98 z" fill="#48783a"/></g><g id="patch_28"><path d="M 406.784213 216.05081 C 406.785969 216.03257 406.787722 216.014331 406.789472 215.996091 C 406.791222 215.977851 406.792969 215.959611 406.794713 215.94137 L 239.85 199.98 z" fill="#d279c3"/></g><g id="patch_29"><path d="M 406.794713 215.94137 C 406.795061 215.937722 406.79541 215.934074 406.795759 215.930426 C 406.796107 215.926778 406.796456 215.92313 406.796804 215.919482 L 239.85 199.98 z" fill="#cae06c"/></g><g id="patch_30"><path d="M 406.796804 215.919482 C 406.882141 215.025682 406.960298 214.131211 407.031269 213.236156 C 407.10224 212.341101 407.166022 211.445491 407.222608 210.549411 L 239.85 199.98 z" fill="#c58799"/></g><g id="patch_31"><path d="M 407.222608 210.549411 C 407.265106 209.876439 407.303544 209.203217 407.337921 208.529781 C 407.372298 207.856345 407.402613 207.182707 407.428864 206.508906 L 239.85 199.98 z" fill="#72e06c"/></g><g id="patch_32"><path d="M 407.428864 206.508906 C 407.429578 206.490596 407.430288 206.472286 407.430996 206.453976 C 407.431703 206.435666 407.432407 206.417356 407.433109 206.399046 L 239.85 199.98 z" fill="#d22f2d"/></g><g id="patch_33"><path d="M 407.433109 206.399046 C 407.455973 205.802131 407.475647 205.205098 407.492132 204.607972 C 407.508616 204.010847 407.52191 203.413638 407.532013 202.816371 L 239.85 199.98 z" fill="#3a7877"/></g><g id="patch_34"><path d="M 407.532013 202.816371 C 407.540008 202.343687 407.546005 201.870972 407.550003 201.398237 C 407.554001 200.925503 407.556 200.452754 407.556 199.980003 L 239.85 199.98 z" fill="#6b1f93"/></g><g id="text_1"><g transform="translate(186.406875 17.1264) scale(0.12 -0.12)" fill="#ffffff"><defs><path id="DejaVuSans-52" d="M 2841 2188 Q 3044 2119 3236 1894 Q 3428 1669 3622 1275 L 4263 0 L 3584 0 L 2988 1197 Q 2756 1666 2539 1819 Q 2322 1972 1947 1972 L 1259 1972 L 1259 0 L 628 0 L 628 4666 L 2053 4666 Q 2853 4666 3247 4331 Q 3641 3997 3641 3322 Q 3641 2881 3436 2590 Q 3231 2300 2841 2188 z M 1259 4147 L 1259 2491 L 2053 2491 Q 2509 2491 2742 2702 Q 2975 2913 2975 3322 Q 2975 3731 2742 3939 Q 2509 4147 2053 4147 L 1259 4147 z" transform="scale(0.015625)"/><path id="DejaVuSans-65" d="M 3597 1894 L 3597 1613 L 953 1613 Q 991 1019 1311 708 Q 1631 397 2203 397 Q 2534 397 2845 478 Q 3156 559 3463 722 L 3463 178 Q 3153 47 2828 -22 Q 2503 -91 2169 -91 Q 1331 -91 842 396 Q 353 884 353 1716 Q 353 2575 817 3079 Q 1281 3584 2069 3584 Q 2775 3584 3186 3129 Q 3597 2675 3597 1894 z M 3022 2063 Q 3016 2534 2758 2815 Q 2500 3097 2075 3097 Q 1594 3097 1305 2825 Q 1016 2553 972 2059 L 3022 2063 z" transform="scale(0.015625)"/><path id="DejaVuSans-67" d="M 2906 1791 Q 2906 2416 2648 2759 Q 2391 3103 1925 3103 Q 1463 3103 1205 2759 Q 947 2416 947 1791 Q 947 1169 1205 825 Q 1463 481 1925 481 Q 2391 481 2648 825 Q 2906 1169 2906 1791 z M 3481 434 Q 3481 -459 3084 -895 Q 2688 -1331 1869 -1331 Q 1566 -1331 1297 -1286 Q 1028 -1241 775 -1147 L 775 -588 Q 1028 -725 1275 -790 Q 1522 -856 1778 -856 Q 2344 -856 2625 -561 Q 2906 -266 2906 331 L 2906 616 Q 2728 306 2450 153 Q 2172 0 1784 0 Q 1141 0 747 490 Q 353 981 353 1791 Q 353 2603 747 3093 Q 1141 3584 1784 3584 Q 2172 3584 2450 3431 Q 2728 3278 2906 2969 L 2906 3500 L 3481 3500 L 3481 434 z" transform="scale(0.015625)"/><path id="DejaVuSans-69" d="M 603 3500 L 1178 3500 L 1178 0 L 603 0 L 603 3500 z M 603 4863 L 1178 4863 L 1178 4134 L 603 4134 L 603 4863 z" transform="scale(0.015625)"/><path id="DejaVuSans-6f" d="M 1959 3097 Q 1497 3097 1228 2736 Q 959 2375 959 1747 Q 959 1119 1226 758 Q 1494 397 1959 397 Q 2419 397 2687 759 Q 2956 1122 2956 1747 Q 2956 2369 2687 2733 Q 2419 3097 1959 3097 z M 1959 3584 Q 2709 3584 3137 3096 Q 3566 2609 3566 1747 Q 3566 888 3137 398 Q 2709 -91 1959 -91 Q 1206 -91 779 398 Q 353 888 353 1747 Q 353 2609 779 3096 Q 1206 3584 1959 3584 z" transform="scale(0.015625)"/><path id="DejaVuSans-6e" d="M 3513 2113 L 3513 0 L 2938 0 L 2938 2094 Q 2938 2591 2744 2837 Q 2550 3084 2163 3084 Q 1697 3084 1428 2787 Q 1159 2491 1159 1978 L 1159 0 L 581 0 L 581 3500 L 1159 3500 L 1159 2956 Q 1366 3272 1645 3428 Q 1925 3584 2291 3584 Q 2894 3584 3203 3211 Q 3513 2838 3513 2113 z" transform="scale(0.015625)"/><path id="DejaVuSans-20" transform="scale(0.015625)"/><path id="DejaVuSans-46" d="M 628 4666 L 3309 4666 L 3309 4134 L 1259 4134 L 1259 2759 L 3109 2759 L 3109 2228 L 1259 2228 L 1259 0 L 628 0 L 628 4666 z" transform="scale(0.015625)"/><path id="DejaVuSans-72" d="M 2631 2963 Q 2534 3019 2420 3045 Q 2306 3072 2169 3072 Q 1681 3072 1420 2755 Q 1159 2438 1159 1844 L 1159 0 L 581 0 L 581 3500 L 1159 3500 L 1159 2956 Q 1341 3275 1631 3429 Q 1922 3584 2338 3584 Q 2397 3584 2469 3576 Q 2541 3569 2628 3553 L 2631 2963 z" transform="scale(0.015625)"/><path id="DejaVuSans-71" d="M 947 1747 Q 947 1113 1208 752 Q 1469 391 1925 391 Q 2381 391 2643 752 Q 2906 1113 2906 1747 Q 2906 2381 2643 2742 Q 2381 3103 1925 3103 Q 1469 3103 1208 2742 Q 947 2381 947 1747 z M 2906 525 Q 2725 213 2448 61 Q 2172 -91 1784 -91 Q 1150 -91 751 415 Q 353 922 353 1747 Q 353 2572 751 3078 Q 1150 3584 1784 3584 Q 2172 3584 2448 3432 Q 2725 3281 2906 2969 L 2906 3500 L 3481 3500 L 3481 -1331 L 2906 -1331 L 2906 525 z" transform="scale(0.015625)"/><path id="DejaVuSans-75" d="M 544 1381 L 544 3500 L 1119 3500 L 1119 1403 Q 1119 906 1312 657 Q 1506 409 1894 409 Q 2359 409 2629 706 Q 2900 1003 2900 1516 L 2900 3500 L 3475 3500 L 3475 0 L 2900 0 L 2900 538 Q 2691 219 2414 64 Q 2138 -91 1772 -91 Q 1169 -91 856 284 Q 544 659 544 1381 z M 1991 3584 L 1991 3584 z" transform="scale(0.015625)"/><path id="DejaVuSans-63" d="M 3122 3366 L 3122 2828 Q 2878 2963 2633 3030 Q 2388 3097 2138 3097 Q 1578 3097 1268 2742 Q 959 2388 959 1747 Q 959 1106 1268 751 Q 1578 397 2138 397 Q 2388 397 2633 464 Q 2878 531 3122 666 L 3122 134 Q 2881 22 2623 -34 Q 2366 -91 2075 -91 Q 1284 -91 818 406 Q 353 903 353 1747 Q 353 2603 823 3093 Q 1294 3584 2113 3584 Q 2378 3584 2631 3529 Q 2884 3475 3122 3366 z" transform="scale(0.015625)"/><path id="DejaVuSans-79" d="M 2059 -325 Q 1816 -950 1584 -1140 Q 1353 -1331 966 -1331 L 506 -1331 L 506 -850 L 844 -850 Q 1081 -850 1212 -737 Q 1344 -625 1503 -206 L 1606 56 L 191 3500 L 800 3500 L 1894 763 L 2988 3500 L 3597 3500 L 2059 -325 z" transform="scale(0.015625)"/></defs><use xlink:href="#DejaVuSans-52"/><use xlink:href="#DejaVuSans-65" x="64.982"/><use xlink:href="#DejaVuSans-67" x="126.506"/><use xlink:href="#DejaVuSans-69" x="189.982"/><use xlink:href="#DejaVuSans-6f" x="217.766"/><use xlink:href="#DejaVuSans-6e" x="278.947"/><use xlink:href="#DejaVuSans-20" x="342.326"/><use xlink:href="#DejaVuSans-46" x="374.113"/><use xlink:href="#DejaVuSans-72" x="424.383"/><use xlink:href="#DejaVuSans-65" x="463.246"/><use xlink:href="#DejaVuSans-71" x="524.77"/><use xlink:href="#DejaVuSans-75" x="588.246"/><use xlink:href="#DejaVuSans-65" x="651.625"/><use xlink:href="#DejaVuSans-6e" x="713.148"/><use xlink:href="#DejaVuSans-63" x="776.527"/><use xlink:href="#DejaVuSans-79" x="831.508"/></g></g></g><g id="legend_1"><g id="patch_35"><path d="M 4.858 341.710419 L 45.276994 341.710419 Q 46.664994 341.710419 46.664994 340.322419 L 46.664994 4.858 Q 46.664994 3.47 45.276994 3.47 L 4.858 3.47 Q 3.47 3.47 3.47 4.858 L 3.47 340.322419 Q 3.47 341.710419 4.858 341.710419 z" opacity="0.8" stroke="#cccccc" stroke-linejoin="miter"/></g><g id="patch_36"><path d="M 6.246 11.519316 L 20.126 11.519316 L 20.126 6.661316 L 6.246 6.661316 z" fill="#ac5953"/></g><g id="text_2"><g transform="translate(25.678 11.519316) scale(0.0694 -0.0694)" fill="#ffffff"><defs><path id="DejaVuSans-53" d="M 3425 4513 L 3425 3897 Q 3066 4069 2747 4153 Q 2428 4238 2131 4238 Q 1616 4238 1336 4038 Q 1056 3838 1056 3469 Q 1056 3159 1242 3001 Q 1428 2844 1947 2747 L 2328 2669 Q 3034 2534 3370 2195 Q 3706 1856 3706 1288 Q 3706 609 3251 259 Q 2797 -91 1919 -91 Q 1588 -91 1214 -16 Q 841 59 441 206 L 441 856 Q 825 641 1194 531 Q 1563 422 1919 422 Q 2459 422 2753 634 Q 3047 847 3047 1241 Q 3047 1584 2836 1778 Q 2625 1972 2144 2069 L 1759 2144 Q 1053 2284 737 2584 Q 422 2884 422 3419 Q 422 4038 858 4394 Q 1294 4750 2059 4750 Q 2388 4750 2728 4690 Q 3069 4631 3425 4513 z" transform="scale(0.015625)"/><path id="DejaVuSans-55" d="M 556 4666 L 1191 4666 L 1191 1831 Q 1191 1081 1462 751 Q 1734 422 2344 422 Q 2950 422 3222 751 Q 3494 1081 3494 1831 L 3494 4666 L 4128 4666 L 4128 1753 Q 4128 841 3676 375 Q 3225 -91 2344 -91 Q 1459 -91 1007 375 Q 556 841 556 1753 L 556 4666 z" transform="scale(0.015625)"/></defs><use xlink:href="#DejaVuSans-53"/><use xlink:href="#DejaVuSans-55" x="63.477"/></g></g><g id="patch_37"><path d="M 6.246 21.705934 L 20.126 21.705934 L 20.126 16.847934 L 6.246 16.847934 z" fill="#a840bf"/></g><g id="text_3"><g transform="translate(25.678 21.705934) scale(0.0694 -0.0694)" fill="#ffffff"><defs><path id="DejaVuSans-42" d="M 1259 2228 L 1259 519 L 2272 519 Q 2781 519 3026 730 Q 3272 941 3272 1375 Q 3272 1813 3026 2020 Q 2781 2228 2272 2228 L 1259 2228 z M 1259 4147 L 1259 2741 L 2194 2741 Q 2656 2741 2882 2914 Q 3109 3088 3109 3444 Q 3109 3797 2882 3972 Q 2656 4147 2194 4147 L 1259 4147 z M 628 4666 L 2241 4666 Q 2963 4666 3353 4366 Q 3744 4066 3744 3513 Q 3744 3084 3544 2831 Q 3344 2578 2956 2516 Q 3422 2416 3680 2098 Q 3938 1781 3938 1306 Q 3938 681 3513 340 Q 3088 0 2303 0 L 628 0 L 628 4666 z" transform="scale(0.015625)"/></defs><use xlink:href="#DejaVuSans-53"/><use xlink:href="#DejaVuSans-42" x="63.477"/></g></g><g id="patch_38"><path d="M 6.246 31.892553 L 20.126 31.892553 L 20.126 27.034553 L 6.246 27.034553 z" fill="#651f93"/></g><g id="text_4"><g transform="translate(25.678 31.892553) scale(0.0694 -0.0694)" fill="#ffffff"><defs><path id="DejaVuSans-48" d="M 628 4666 L 1259 4666 L 1259 2753 L 3553 2753 L 3553 4666 L 4184 4666 L 4184 0 L 3553 0 L 3553 2222 L 1259 2222 L 1259 0 L 628 0 L 628 4666 z" transform="scale(0.015625)"/><path id="DejaVuSans-49" d="M 628 4666 L 1259 4666 L 1259 0 L 628 0 L 628 4666 z" transform="scale(0.015625)"/></defs><use xlink:href="#DejaVuSans-48"/><use xlink:href="#DejaVuSans-49" x="75.195"/></g></g><g id="patch_39"><path d="M 6.246 42.079172 L 20.126 42.079172 L 20.126 37.221172 L 6.246 37.221172 z" fill="#862d36"/></g><g id="text_5"><g transform="translate(25.678 42.079172) scale(0.0694 -0.0694)" fill="#ffffff"><use xlink:href="#DejaVuSans-53"/><use xlink:href="#DejaVuSans-49" x="63.477"/></g></g><g id="patch_40"><path d="M 6.246 52.265791 L 20.126 52.265791 L 20.126 47.407791 L 6.246 47.407791 z" fill="#1f937c"/></g><g id="text_6"><g transform="translate(25.678 52.265791) scale(0.0694 -0.0694)" fill="#ffffff"><defs><path id="DejaVuSans-43" d="M 4122 4306 L 4122 3641 Q 3803 3938 3442 4084 Q 3081 4231 2675 4231 Q 1875 4231 1450 3742 Q 1025 3253 1025 2328 Q 1025 1406 1450 917 Q 1875 428 2675 428 Q 3081 428 3442 575 Q 3803 722 4122 1019 L 4122 359 Q 3791 134 3420 21 Q 3050 -91 2638 -91 Q 1578 -91 968 557 Q 359 1206 359 2328 Q 359 3453 968 4101 Q 1578 4750 2638 4750 Q 3056 4750 3426 4639 Q 3797 4528 4122 4306 z" transform="scale(0.015625)"/></defs><use xlink:href="#DejaVuSans-43"/><use xlink:href="#DejaVuSans-43" x="69.824"/></g></g><g id="patch_41"><path d="M 6.246 62.452409 L 20.126 62.452409 L 20.126 57.594409 L 6.246 57.594409 z" fill="#2dbfd2"/></g><g id="text_7"><g transform="translate(25.678 62.452409) scale(0.0694 -0.0694)" fill="#ffffff"><defs><path id="DejaVuSans-57" d="M 213 4666 L 850 4666 L 1831 722 L 2809 4666 L 3519 4666 L 4500 722 L 5478 4666 L 6119 4666 L 4947 0 L 4153 0 L 3169 4050 L 2175 0 L 1381 0 L 213 4666 z" transform="scale(0.015625)"/></defs><use xlink:href="#DejaVuSans-55"/><use xlink:href="#DejaVuSans-57" x="73.193"/></g></g><g id="patch_42"><path d="M 6.246 72.639028 L 20.126 72.639028 L 20.126 67.781028 L 6.246 67.781028 z" fill="#1f9327"/></g><g id="text_8"><g transform="translate(25.678 72.639028) scale(0.0694 -0.0694)" fill="#ffffff"><defs><path id="DejaVuSans-4c" d="M 628 4666 L 1259 4666 L 1259 531 L 3531 531 L 3531 0 L 628 0 L 628 4666 z" transform="scale(0.015625)"/><path id="DejaVuSans-4d" d="M 628 4666 L 1569 4666 L 2759 1491 L 3956 4666 L 4897 4666 L 4897 0 L 4281 0 L 4281 4097 L 3078 897 L 2444 897 L 1241 4097 L 1241 0 L 628 0 L 628 4666 z" transform="scale(0.015625)"/></defs><use xlink:href="#DejaVuSans-4c"/><use xlink:href="#DejaVuSans-4d" x="55.713"/></g></g><g id="patch_43"><path d="M 6.246 82.825647 L 20.126 82.825647 L 20.126 77.967647 L 6.246 77.967647 z" fill="#5372ac"/></g><g id="text_9"><g transform="translate(25.678 82.825647) scale(0.0694 -0.0694)" fill="#ffffff"><defs><path id="DejaVuSans-56" d="M 1831 0 L 50 4666 L 709 4666 L 2188 738 L 3669 4666 L 4325 4666 L 2547 0 L 1831 0 z" transform="scale(0.015625)"/></defs><use xlink:href="#DejaVuSans-56"/><use xlink:href="#DejaVuSans-53" x="68.408"/></g></g><g id="patch_44"><path d="M 6.246 93.012266 L 20.126 93.012266 L 20.126 88.154266 L 6.246 88.154266 z" fill="#7f2dd2"/></g><g id="text_10"><g transform="translate(25.678 93.012266) scale(0.0694 -0.0694)" fill="#ffffff"><use xlink:href="#DejaVuSans-53"/><use xlink:href="#DejaVuSans-4c" x="63.477"/></g></g><g id="patch_45"><path d="M 6.246 103.198884 L 20.126 103.198884 L 20.126 98.340884 L 6.246 98.340884 z" fill="#6ce085"/></g><g id="text_11"><g transform="translate(25.678 103.198884) scale(0.0694 -0.0694)" fill="#ffffff"><defs><path id="DejaVuSans-47" d="M 3809 666 L 3809 1919 L 2778 1919 L 2778 2438 L 4434 2438 L 4434 434 Q 4069 175 3628 42 Q 3188 -91 2688 -91 Q 1594 -91 976 548 Q 359 1188 359 2328 Q 359 3472 976 4111 Q 1594 4750 2688 4750 Q 3144 4750 3555 4637 Q 3966 4525 4313 4306 L 4313 3634 Q 3963 3931 3569 4081 Q 3175 4231 2741 4231 Q 1884 4231 1454 3753 Q 1025 3275 1025 2328 Q 1025 1384 1454 906 Q 1884 428 2741 428 Q 3075 428 3337 486 Q 3600 544 3809 666 z" transform="scale(0.015625)"/></defs><use xlink:href="#DejaVuSans-47"/><use xlink:href="#DejaVuSans-57" x="77.49"/></g></g><g id="patch_46"><path d="M 6.246 113.385503 L 20.126 113.385503 L 20.126 108.527503 L 6.246 108.527503 z" fill="#79d2b5"/></g><g id="text_12"><g transform="translate(25.678 113.385503) scale(0.0694 -0.0694)" fill="#ffffff"><use xlink:href="#DejaVuSans-4c"/><use xlink:href="#DejaVuSans-43" x="55.713"/></g></g><g id="patch_47"><path d="M 6.246 123.572122 L 20.126 123.572122 L 20.126 118.714122 L 6.246 118.714122 z" fill="#6ce098"/></g><g id="text_13"><g transform="translate(25.678 123.572122) scale(0.0694 -0.0694)" fill="#ffffff"><use xlink:href="#DejaVuSans-4c"/><use xlink:href="#DejaVuSans-46" x="55.713"/></g></g><g id="patch_48"><path d="M 6.246 133.758741 L 20.126 133.758741 L 20.126 128.900741 L 6.246 128.900741 z" fill="#2dd235"/></g><g id="text_14"><g transform="translate(25.678 133.758741) scale(0.0694 -0.0694)" fill="#ffffff"><defs><path id="DejaVuSans-44" d="M 1259 4147 L 1259 519 L 2022 519 Q 2988 519 3436 956 Q 3884 1394 3884 2338 Q 3884 3275 3436 3711 Q 2988 4147 2022 4147 L 1259 4147 z M 628 4666 L 1925 4666 Q 3281 4666 3915 4102 Q 4550 3538 4550 2338 Q 4550 1131 3912 565 Q 3275 0 1925 0 L 628 0 L 628 4666 z" transform="scale(0.015625)"/></defs><use xlink:href="#DejaVuSans-44"/><use xlink:href="#DejaVuSans-53" x="77.002"/></g></g><g id="patch_49"><path d="M 6.246 143.945359 L 20.126 143.945359 L 20.126 139.087359 L 6.246 139.087359 z" fill="#87c5a1"/></g><g id="text_15"><g transform="translate(25.678 143.945359) scale(0.0694 -0.0694)" fill="#ffffff"><defs><path id="DejaVuSans-41" d="M 2188 4044 L 1331 1722 L 3047 1722 L 2188 4044 z M 1831 4666 L 2547 4666 L 4325 0 L 3669 0 L 3244 1197 L 1141 1197 L 716 0 L 50 0 L 1831 4666 z" transform="scale(0.015625)"/></defs><use xlink:href="#DejaVuSans-4d"/><use xlink:href="#DejaVuSans-41" x="86.279"/></g></g><g id="patch_50"><path d="M 6.246 154.131978 L 20.126 154.131978 L 20.126 149.273978 L 6.246 149.273978 z" fill="#d279a6"/></g><g id="text_16"><g transform="translate(25.678 154.131978) scale(0.0694 -0.0694)" fill="#ffffff"><use xlink:href="#DejaVuSans-43"/><use xlink:href="#DejaVuSans-4c" x="69.824"/></g></g><g id="patch_51"><path d="M 6.246 164.318597 L 20.126 164.318597 L 20.126 159.460597 L 6.246 159.460597 z" fill="#6ce0bd"/></g><g id="text_17"><g transform="translate(25.678 164.318597) scale(0.0694 -0.0694)" fill="#ffffff"><use xlink:href="#DejaVuSans-53"/><use xlink:href="#DejaVuSans-48" x="63.477"/></g></g><g id="patch_52"><path d="M 6.246 174.505216 L 20.126 174.505216 L 20.126 169.647216 L 6.246 169.647216 z" fill="#2d4f86"/></g><g id="text_18"><g transform="translate(25.678 174.505216) scale(0.0694 -0.0694)" fill="#ffffff"><defs><path id="DejaVuSans-54" d="M -19 4666 L 3928 4666 L 3928 4134 L 2272 4134 L 2272 0 L 1638 0 L 1638 4134 L -19 4134 L -19 4666 z" transform="scale(0.015625)"/><path id="DejaVuSans-45" d="M 628 4666 L 3578 4666 L 3578 4134 L 1259 4134 L 1259 2753 L 3481 2753 L 3481 2222 L 1259 2222 L 1259 531 L 3634 531 L 3634 0 L 628 0 L 628 4666 z" transform="scale(0.015625)"/></defs><use xlink:href="#DejaVuSans-47"/><use xlink:href="#DejaVuSans-41" x="77.49"/><use xlink:href="#DejaVuSans-54" x="138.148"/><use xlink:href="#DejaVuSans-45" x="199.232"/></g></g><g id="patch_53"><path d="M 6.246 184.691834 L 20.126 184.691834 L 20.126 179.833834 L 6.246 179.833834 z" fill="#6c75e0"/></g><g id="text_19"><g transform="translate(25.678 184.691834) scale(0.0694 -0.0694)" fill="#ffffff"><defs><path id="DejaVuSans-4f" d="M 2522 4238 Q 1834 4238 1429 3725 Q 1025 3213 1025 2328 Q 1025 1447 1429 934 Q 1834 422 2522 422 Q 3209 422 3611 934 Q 4013 1447 4013 2328 Q 4013 3213 3611 3725 Q 3209 4238 2522 4238 z M 2522 4750 Q 3503 4750 4090 4092 Q 4678 3434 4678 2328 Q 4678 1225 4090 567 Q 3503 -91 2522 -91 Q 1538 -91 948 565 Q 359 1222 359 2328 Q 359 3434 948 4092 Q 1538 4750 2522 4750 z" transform="scale(0.015625)"/></defs><use xlink:href="#DejaVuSans-4f"/><use xlink:href="#DejaVuSans-45" x="78.711"/></g></g><g id="patch_54"><path d="M 6.246 194.878453 L 20.126 194.878453 L 20.126 190.020453 L 6.246 190.020453 z" fill="#472d86"/></g><g id="text_20"><g transform="translate(25.678 194.878453) scale(0.0694 -0.0694)" fill="#ffffff"><use xlink:href="#DejaVuSans-48"/><use xlink:href="#DejaVuSans-52" x="75.195"/></g></g><g id="patch_55"><path d="M 6.246 205.065072 L 20.126 205.065072 L 20.126 200.207072 L 6.246 200.207072 z" fill="#40b0bf"/></g><g id="text_21"><g transform="translate(25.678 205.065072) scale(0.0694 -0.0694)" fill="#ffffff"><use xlink:href="#DejaVuSans-44"/><use xlink:href="#DejaVuSans-4d" x="77.002"/></g></g><g id="patch_56"><path d="M 6.246 215.251691 L 20.126 215.251691 L 20.126 210.393691 L 6.246 210.393691 z" fill="#79d2b2"/></g><g id="text_22"><g transform="translate(25.678 215.251691) scale(0.0694 -0.0694)" fill="#ffffff"><defs><path id="DejaVuSans-4e" d="M 628 4666 L 1478 4666 L 3547 763 L 3547 4666 L 4159 4666 L 4159 0 L 3309 0 L 1241 3903 L 1241 0 L 628 0 L 628 4666 z" transform="scale(0.015625)"/></defs><use xlink:href="#DejaVuSans-46"/><use xlink:href="#DejaVuSans-4e" x="57.52"/></g></g><g id="patch_57"><path d="M 6.246 225.438309 L 20.126 225.438309 L 20.126 220.580309 L 6.246 220.580309 z" fill="#931f3c"/></g><g id="text_23"><g transform="translate(25.678 225.438309) scale(0.0694 -0.0694)" fill="#ffffff"><use xlink:href="#DejaVuSans-43"/><use xlink:href="#DejaVuSans-41" x="69.824"/></g></g><g id="patch_58"><path d="M 6.246 235.624928 L 20.126 235.624928 L 20.126 230.766928 L 6.246 230.766928 z" fill="#2dd288"/></g><g id="text_24"><g transform="translate(25.678 235.624928) scale(0.0694 -0.0694)" fill="#ffffff"><use xlink:href="#DejaVuSans-53"/><use xlink:href="#DejaVuSans-53" x="63.477"/></g></g><g id="patch_59"><path d="M 6.246 245.811547 L 20.126 245.811547 L 20.126 240.953547 L 6.246 240.953547 z" fill="#d22dd2"/></g><g id="text_25"><g transform="translate(25.678 245.811547) scale(0.0694 -0.0694)" fill="#ffffff"><use xlink:href="#DejaVuSans-43"/><use xlink:href="#DejaVuSans-46" x="69.824"/></g></g><g id="patch_60"><path d="M 6.246 255.998166 L 20.126 255.998166 L 20.126 251.140166 L 6.246 251.140166 z" fill="#b9d279"/></g><g id="text_26"><g transform="translate(25.678 255.998166) scale(0.0694 -0.0694)" fill="#ffffff"><use xlink:href="#DejaVuSans-56"/><use xlink:href="#DejaVuSans-49" x="68.408"/></g></g><g id="patch_61"><path d="M 6.246 266.184784 L 20.126 266.184784 L 20.126 261.326784 L 6.246 261.326784 z" fill="#48783a"/></g><g id="text_27"><g transform="translate(25.678 266.184784) scale(0.0694 -0.0694)" fill="#ffffff"><use xlink:href="#DejaVuSans-4d"/><use xlink:href="#DejaVuSans-45" x="86.279"/></g></g><g id="patch_62"><path d="M 6.246 276.371403 L 20.126 276.371403 L 20.126 271.513403 L 6.246 271.513403 z" fill="#d279c3"/></g><g id="text_28"><g transform="translate(25.678 276.371403) scale(0.0694 -0.0694)" fill="#ffffff"><defs><path id="DejaVuSans-59" d="M -13 4666 L 666 4666 L 1959 2747 L 3244 4666 L 3922 4666 L 2272 2222 L 2272 0 L 1638 0 L 1638 2222 L -13 4666 z" transform="scale(0.015625)"/></defs><use xlink:href="#DejaVuSans-41"/><use xlink:href="#DejaVuSans-59" x="60.658"/></g></g><g id="patch_63"><path d="M 6.246 286.558022 L 20.126 286.558022 L 20.126 281.700022 L 6.246 281.700022 z" fill="#cae06c"/></g><g id="text_29"><g transform="translate(25.678 286.558022) scale(0.0694 -0.0694)" fill="#ffffff"><defs><path id="DejaVuSans-50" d="M 1259 4147 L 1259 2394 L 2053 2394 Q 2494 2394 2734 2622 Q 2975 2850 2975 3272 Q 2975 3691 2734 3919 Q 2494 4147 2053 4147 L 1259 4147 z M 628 4666 L 2053 4666 Q 2838 4666 3239 4311 Q 3641 3956 3641 3272 Q 3641 2581 3239 2228 Q 2838 1875 2053 1875 L 1259 1875 L 1259 0 L 628 0 L 628 4666 z" transform="scale(0.015625)"/></defs><use xlink:href="#DejaVuSans-46"/><use xlink:href="#DejaVuSans-50" x="57.52"/></g></g><g id="patch_64"><path d="M 6.246 296.744641 L 20.126 296.744641 L 20.126 291.886641 L 6.246 291.886641 z" fill="#c58799"/></g><g id="text_30"><g transform="translate(25.678 296.744641) scale(0.0694 -0.0694)" fill="#ffffff"><use xlink:href="#DejaVuSans-52"/><use xlink:href="#DejaVuSans-4d" x="69.482"/></g></g><g id="patch_65"><path d="M 6.246 306.931259 L 20.126 306.931259 L 20.126 302.073259 L 6.246 302.073259 z" fill="#72e06c"/></g><g id="text_31"><g transform="translate(25.678 306.931259) scale(0.0694 -0.0694)" fill="#ffffff"><use xlink:href="#DejaVuSans-55"/><use xlink:href="#DejaVuSans-47" x="73.193"/></g></g><g id="patch_66"><path d="M 6.246 317.117878 L 20.126 317.117878 L 20.126 312.259878 L 6.246 312.259878 z" fill="#d22f2d"/></g><g id="text_32"><g transform="translate(25.678 317.117878) scale(0.0694 -0.0694)" fill="#ffffff"><use xlink:href="#DejaVuSans-4f"/><use xlink:href="#DejaVuSans-53" x="78.711"/></g></g><g id="patch_67"><path d="M 6.246 327.304497 L 20.126 327.304497 L 20.126 322.446497 L 6.246 322.446497 z" fill="#3a7877"/></g><g id="text_33"><g transform="translate(25.678 327.304497) scale(0.0694 -0.0694)" fill="#ffffff"><use xlink:href="#DejaVuSans-4d"/><use xlink:href="#DejaVuSans-53" x="86.279"/></g></g><g id="patch_68"><path d="M 6.246 337.491116 L 20.126 337.491116 L 20.126 332.633116 L 6.246 332.633116 z" fill="#6b1f93"/></g><g id="text_34"><g transform="translate(25.678 337.491116) scale(0.0694 -0.0694)" fill="#ffffff"><use xlink:href="#DejaVuSans-50"/><use xlink:href="#DejaVuSans-41" x="53.928"/></g></g></g></g></svg>