<svg xmlns:xlink="http://www.w3.org/1999/xlink" width="2112" height="960" viewBox="0 0 1584 720" xmlns="http://www.w3.org/2000/svg" version="1.1"><metadata><rdf:RDF xmlns:dc="http://purl.org/dc/elements/1.1/" xmlns:cc="http://creativecommons.org/ns#" xmlns:rdf="http://www.w3.org/1999/02/22-rdf-syntax-ns#"><cc:Work><dc:type rdf:resource="http://purl.org/dc/dcmitype/StillImage"/><dc:format>image/svg+xml</dc:format><dc:creator><cc:Agent><dc:title>Matplotlib v3.7.1, https://matplotlib.org/</dc:title></cc:Agent></dc:creator></cc:Work></rdf:RDF></metadata><defs><style type="text/css">*{stroke-linejoin:round;stroke-linecap:butt}</style></defs><g id="figure_1"><g id="patch_1"><path d="M 0 720 L 1584 720 L 1584 0 L 0 0 z"/></g><g id="axes_1"><g id="patch_2"><path d="M 49.128365 668.374411 L 1574.63726 668.374411 L 1574.63726 18.118365 L 49.128365 18.118365 z"/></g><g id="PolyCollection_1"><path d="M 49.128365 632.750674 L 49.128365 668.374411 L 125.40381 668.374411 L 201.679254 668.374411 L 277.954699 668.374411 L 354.230144 668.374411 L 430.505589 668.374411 L 506.781033 668.374411 L 583.056478 668.374411 L 659.331923 668.374411 L 735.607368 668.374411 L 811.882812 668.374411 L 888.158257 668.374411 L 964.433702 668.374411 L 1040.709147 668.374411 L 1116.984591 668.374411 L 1193.260036 668.374411 L 1269.535481 668.374411 L 1345.810926 668.374411 L 1422.08637 668.374411 L 1498.361815 668.374411 L 1574.63726 668.374411 L 1650.912705 668.374411 L 1650.912705 639.419157 L 1650.912705 639.419157 L 1574.63726 602.391528 L 1498.361815 615.728494 L 1422.08637 621.168572 L 1345.810926 627.486082 L 1269.535481 645.385694 L 1193.260036 631.522269 L 1116.984591 599.057287 L 1040.709147 625.204759 L 964.433702 623.274409 L 888.158257 629.591919 L 811.882812 610.288416 L 735.607368 619.589195 L 659.331923 631.697756 L 583.056478 593.792695 L 506.781033 586.77324 L 430.505589 624.151841 L 354.230144 640.998534 L 277.954699 637.664293 L 201.679254 649.070908 L 125.40381 649.070908 L 49.128365 632.750674 z" clip-path="url(#pb647229ef0)" fill="#ac5953"/></g><g id="PolyCollection_2"><path d="M 49.128365 622.221491 L 49.128365 632.750674 L 125.40381 649.070908 L 201.679254 649.070908 L 277.954699 637.664293 L 354.230144 640.998534 L 430.505589 624.151841 L 506.781033 586.77324 L 583.056478 593.792695 L 659.331923 631.697756 L 735.607368 619.589195 L 811.882812 610.288416 L 888.158257 629.591919 L 964.433702 623.274409 L 1040.709147 625.204759 L 1116.984591 599.057287 L 1193.260036 631.522269 L 1269.535481 645.385694 L 1345.810926 627.486082 L 1422.08637 621.168572 L 1498.361815 615.728494 L 1574.63726 602.391528 L 1650.912705 639.419157 L 1650.912705 633.979079 L 1650.912705 633.979079 L 1574.63726 578.700866 L 1498.361815 601.33861 L 1422.08637 600.285692 L 1345.810926 617.307872 L 1269.535481 628.188028 L 1193.260036 624.151841 L 1116.984591 581.333161 L 1040.709147 598.355341 L 964.433702 608.709038 L 888.158257 609.060011 L 811.882812 588.528104 L 735.607368 608.358066 L 659.331923 621.519545 L 583.056478 550.27207 L 506.781033 565.188414 L 430.505589 613.096198 L 354.230144 634.330051 L 277.954699 629.416433 L 201.679254 639.068184 L 125.40381 634.505538 L 49.128365 622.221491 z" clip-path="url(#pb647229ef0)" fill="#a840bf"/></g><g id="PolyCollection_3"><path d="M 49.128365 574.489192 L 49.128365 622.221491 L 125.40381 634.505538 L 201.679254 639.068184 L 277.954699 629.416433 L 354.230144 634.330051 L 430.505589 613.096198 L 506.781033 565.188414 L 583.056478 550.27207 L 659.331923 621.519545 L 735.607368 608.358066 L 811.882812 588.528104 L 888.158257 609.060011 L 964.433702 608.709038 L 1040.709147 598.355341 L 1116.984591 581.333161 L 1193.260036 624.151841 L 1269.535481 628.188028 L 1345.810926 617.307872 L 1422.08637 600.285692 L 1498.361815 601.33861 L 1574.63726 578.700866 L 1650.912705 633.979079 L 1650.912705 603.795419 L 1650.912705 603.795419 L 1574.63726 537.110591 L 1498.361815 551.675961 L 1422.08637 561.854172 L 1345.810926 567.996196 L 1269.535481 590.809427 L 1193.260036 583.789971 L 1116.984591 540.620319 L 1040.709147 547.639774 L 964.433702 567.645223 L 888.158257 555.185689 L 811.882812 543.779074 L 735.607368 563.784522 L 659.331923 571.330437 L 583.056478 483.236269 L 506.781033 509.559228 L 430.505589 583.614485 L 354.230144 607.305147 L 277.954699 606.603202 L 201.679254 602.391528 L 125.40381 598.179855 L 49.128365 574.489192 z" clip-path="url(#pb647229ef0)" fill="#651f93"/></g><g id="PolyCollection_4"><path d="M 49.128365 553.079853 L 49.128365 574.489192 L 125.40381 598.179855 L 201.679254 602.391528 L 277.954699 606.603202 L 354.230144 607.305147 L 430.505589 583.614485 L 506.781033 509.559228 L 583.056478 483.236269 L 659.331923 571.330437 L 735.607368 563.784522 L 811.882812 543.779074 L 888.158257 555.185689 L 964.433702 567.645223 L 1040.709147 547.639774 L 1116.984591 540.620319 L 1193.260036 583.789971 L 1269.535481 590.809427 L 1345.810926 567.996196 L 1422.08637 561.854172 L 1498.361815 551.675961 L 1574.63726 537.110591 L 1650.912705 603.795419 L 1650.912705 576.595029 L 1650.912705 576.595029 L 1574.63726 492.712534 L 1498.361815 494.642885 L 1422.08637 516.052224 L 1345.810926 520.439384 L 1269.535481 547.113315 L 1193.260036 552.72888 L 1116.984591 473.409031 L 1040.709147 505.523041 L 964.433702 527.985299 L 888.158257 532.372458 L 811.882812 505.874014 L 735.607368 541.322264 L 659.331923 531.495027 L 583.056478 436.907862 L 506.781033 456.386851 L 430.505589 536.584132 L 354.230144 579.578298 L 277.954699 570.979464 L 201.679254 573.260788 L 125.40381 572.558842 L 49.128365 553.079853 z" clip-path="url(#pb647229ef0)" fill="#862d36"/></g><g id="PolyCollection_5"><path d="M 49.128365 513.068956 L 49.128365 553.079853 L 125.40381 572.558842 L 201.679254 573.260788 L 277.954699 570.979464 L 354.230144 579.578298 L 430.505589 536.584132 L 506.781033 456.386851 L 583.056478 436.907862 L 659.331923 531.495027 L 735.607368 541.322264 L 811.882812 505.874014 L 888.158257 532.372458 L 964.433702 527.985299 L 1040.709147 505.523041 L 1116.984591 473.409031 L 1193.260036 552.72888 L 1269.535481 547.113315 L 1345.810926 520.439384 L 1422.08637 516.052224 L 1498.361815 494.642885 L 1574.63726 492.712534 L 1650.912705 576.595029 L 1650.912705 565.012927 L 1650.912705 565.012927 L 1574.63726 418.130818 L 1498.361815 434.451053 L 1422.08637 478.498137 L 1345.810926 468.670899 L 1269.535481 501.837827 L 1193.260036 504.645609 L 1116.984591 406.899689 L 1040.709147 451.648719 L 964.433702 493.765453 L 888.158257 494.116425 L 811.882812 458.668174 L 735.607368 492.361561 L 659.331923 487.623429 L 583.056478 366.01136 L 506.781033 384.261945 L 430.505589 485.868565 L 354.230144 533.074404 L 277.954699 541.673237 L 201.679254 549.745611 L 125.40381 533.77635 L 49.128365 513.068956 z" clip-path="url(#pb647229ef0)" fill="#1f937c"/></g><g id="PolyCollection_6"><path d="M 49.128365 496.748721 L 49.128365 513.068956 L 125.40381 533.77635 L 201.679254 549.745611 L 277.954699 541.673237 L 354.230144 533.074404 L 430.505589 485.868565 L 506.781033 384.261945 L 583.056478 366.01136 L 659.331923 487.623429 L 735.607368 492.361561 L 811.882812 458.668174 L 888.158257 494.116425 L 964.433702 493.765453 L 1040.709147 451.648719 L 1116.984591 406.899689 L 1193.260036 504.645609 L 1269.535481 501.837827 L 1345.810926 468.670899 L 1422.08637 478.498137 L 1498.361815 434.451053 L 1574.63726 418.130818 L 1650.912705 565.012927 L 1650.912705 539.216428 L 1650.912705 539.216428 L 1574.63726 323.71914 L 1498.361815 387.245213 L 1422.08637 433.924593 L 1345.810926 395.142101 L 1269.535481 457.966229 L 1193.260036 444.80475 L 1116.984591 368.46817 L 1040.709147 409.707471 L 964.433702 462.704361 L 888.158257 414.972063 L 811.882812 420.061168 L 735.607368 446.7351 L 659.331923 443.049886 L 583.056478 292.833535 L 506.781033 347.234316 L 430.505589 434.626539 L 354.230144 491.133157 L 277.954699 513.770901 L 201.679254 532.723431 L 125.40381 483.762728 L 49.128365 496.748721 z" clip-path="url(#pb647229ef0)" fill="#2dbfd2"/></g><g id="PolyCollection_7"><path d="M 49.128365 483.060783 L 49.128365 496.748721 L 125.40381 483.762728 L 201.679254 532.723431 L 277.954699 513.770901 L 354.230144 491.133157 L 430.505589 434.626539 L 506.781033 347.234316 L 583.056478 292.833535 L 659.331923 443.049886 L 735.607368 446.7351 L 811.882812 420.061168 L 888.158257 414.972063 L 964.433702 462.704361 L 1040.709147 409.707471 L 1116.984591 368.46817 L 1193.260036 444.80475 L 1269.535481 457.966229 L 1345.810926 395.142101 L 1422.08637 433.924593 L 1498.361815 387.245213 L 1574.63726 323.71914 L 1650.912705 539.216428 L 1650.912705 532.898918 L 1650.912705 532.898918 L 1574.63726 306.345987 L 1498.361815 372.855329 L 1422.08637 420.9386 L 1345.810926 371.802411 L 1269.535481 445.506695 L 1193.260036 437.96078 L 1116.984591 361.097741 L 1040.709147 397.247938 L 964.433702 454.98296 L 888.158257 406.724203 L 811.882812 411.813308 L 735.607368 440.944049 L 659.331923 434.10008 L 583.056478 280.549488 L 506.781033 335.301242 L 430.505589 424.799301 L 354.230144 474.812922 L 277.954699 512.542496 L 201.679254 524.300085 L 125.40381 469.372844 L 49.128365 483.060783 z" clip-path="url(#pb647229ef0)" fill="#1f9327"/></g><g id="PolyCollection_8"><path d="M 49.128365 478.498137 L 49.128365 483.060783 L 125.40381 469.372844 L 201.679254 524.300085 L 277.954699 512.542496 L 354.230144 474.812922 L 430.505589 424.799301 L 506.781033 335.301242 L 583.056478 280.549488 L 659.331923 434.10008 L 735.607368 440.944049 L 811.882812 411.813308 L 888.158257 406.724203 L 964.433702 454.98296 L 1040.709147 397.247938 L 1116.984591 361.097741 L 1193.260036 437.96078 L 1269.535481 445.506695 L 1345.810926 371.802411 L 1422.08637 420.9386 L 1498.361815 372.855329 L 1574.63726 306.345987 L 1650.912705 532.898918 L 1650.912705 531.495027 L 1650.912705 531.495027 L 1574.63726 288.972835 L 1498.361815 359.69385 L 1422.08637 410.935876 L 1345.810926 358.289959 L 1269.535481 437.609808 L 1193.260036 416.902413 L 1116.984591 351.796963 L 1040.709147 386.016809 L 964.433702 444.27829 L 888.158257 400.933152 L 811.882812 400.406693 L 735.607368 432.520702 L 659.331923 423.570896 L 583.056478 270.020304 L 506.781033 320.384899 L 430.505589 414.796577 L 354.230144 472.531599 L 277.954699 507.102418 L 201.679254 515.174792 L 125.40381 462.177902 L 49.128365 478.498137 z" clip-path="url(#pb647229ef0)" fill="#5372ac"/></g><g id="PolyCollection_9"><path d="M 49.128365 468.495412 L 49.128365 478.498137 L 125.40381 462.177902 L 201.679254 515.174792 L 277.954699 507.102418 L 354.230144 472.531599 L 430.505589 414.796577 L 506.781033 320.384899 L 583.056478 270.020304 L 659.331923 423.570896 L 735.607368 432.520702 L 811.882812 400.406693 L 888.158257 400.933152 L 964.433702 444.27829 L 1040.709147 386.016809 L 1116.984591 351.796963 L 1193.260036 416.902413 L 1269.535481 437.609808 L 1345.810926 358.289959 L 1422.08637 410.935876 L 1498.361815 359.69385 L 1574.63726 288.972835 L 1650.912705 531.495027 L 1650.912705 529.915649 L 1650.912705 529.915649 L 1574.63726 271.424196 L 1498.361815 344.952993 L 1422.08637 400.406693 L 1345.810926 346.707857 L 1269.535481 429.186461 L 1193.260036 409.882958 L 1116.984591 343.724589 L 1040.709147 367.064278 L 964.433702 436.907862 L 888.158257 392.158832 L 811.882812 380.225758 L 735.607368 424.799301 L 659.331923 406.899689 L 583.056478 245.803183 L 506.781033 300.203964 L 430.505589 408.830039 L 354.230144 457.43977 L 277.954699 502.890745 L 201.679254 509.559228 L 125.40381 456.562338 L 49.128365 468.495412 z" clip-path="url(#pb647229ef0)" fill="#7f2dd2"/></g><g id="PolyCollection_10"><path d="M 49.128365 450.771287 L 49.128365 468.495412 L 125.40381 456.562338 L 201.679254 509.559228 L 277.954699 502.890745 L 354.230144 457.43977 L 430.505589 408.830039 L 506.781033 300.203964 L 583.056478 245.803183 L 659.331923 406.899689 L 735.607368 424.799301 L 811.882812 380.225758 L 888.158257 392.158832 L 964.433702 436.907862 L 1040.709147 367.064278 L 1116.984591 343.724589 L 1193.260036 409.882958 L 1269.535481 429.186461 L 1345.810926 346.707857 L 1422.08637 400.406693 L 1498.361815 344.952993 L 1574.63726 271.424196 L 1650.912705 529.915649 L 1650.912705 515.876738 L 1650.912705 515.876738 L 1574.63726 227.026139 L 1498.361815 317.050657 L 1422.08637 361.273228 L 1345.810926 311.961552 L 1269.535481 408.30358 L 1193.260036 378.821867 L 1116.984591 324.070113 L 1040.709147 340.214861 L 964.433702 413.217199 L 888.158257 368.994629 L 811.882812 351.796963 L 735.607368 403.038989 L 659.331923 364.782955 L 583.056478 199.474775 L 506.781033 265.282172 L 430.505589 382.156108 L 354.230144 430.765838 L 277.954699 469.372844 L 201.679254 489.202806 L 125.40381 434.10008 L 49.128365 450.771287 z" clip-path="url(#pb647229ef0)" fill="#6ce085"/></g><g id="PolyCollection_11"><path d="M 49.128365 442.523426 L 49.128365 450.771287 L 125.40381 434.10008 L 201.679254 489.202806 L 277.954699 469.372844 L 354.230144 430.765838 L 430.505589 382.156108 L 506.781033 265.282172 L 583.056478 199.474775 L 659.331923 364.782955 L 735.607368 403.038989 L 811.882812 351.796963 L 888.158257 368.994629 L 964.433702 413.217199 L 1040.709147 340.214861 L 1116.984591 324.070113 L 1193.260036 378.821867 L 1269.535481 408.30358 L 1345.810926 311.961552 L 1422.08637 361.273228 L 1498.361815 317.050657 L 1574.63726 227.026139 L 1650.912705 515.876738 L 1650.912705 510.963119 L 1650.912705 510.963119 L 1574.63726 205.616799 L 1498.361815 296.518749 L 1422.08637 332.142487 L 1345.810926 284.059216 L 1269.535481 394.615642 L 1193.260036 371.977897 L 1116.984591 311.435093 L 1040.709147 317.928089 L 964.433702 382.507081 L 888.158257 355.657663 L 811.882812 345.654939 L 735.607368 391.983346 L 659.331923 345.654939 L 583.056478 172.449871 L 506.781033 251.243261 L 430.505589 366.537819 L 354.230144 410.233931 L 277.954699 459.896579 L 201.679254 480.077514 L 125.40381 414.094631 L 49.128365 442.523426 z" clip-path="url(#pb647229ef0)" fill="#79d2b5"/></g><g id="PolyCollection_12"><path d="M 49.128365 428.660002 L 49.128365 442.523426 L 125.40381 414.094631 L 201.679254 480.077514 L 277.954699 459.896579 L 354.230144 410.233931 L 430.505589 366.537819 L 506.781033 251.243261 L 583.056478 172.449871 L 659.331923 345.654939 L 735.607368 391.983346 L 811.882812 345.654939 L 888.158257 355.657663 L 964.433702 382.507081 L 1040.709147 317.928089 L 1116.984591 311.435093 L 1193.260036 371.977897 L 1269.535481 394.615642 L 1345.810926 284.059216 L 1422.08637 332.142487 L 1498.361815 296.518749 L 1574.63726 205.616799 L 1650.912705 510.963119 L 1650.912705 497.977126 L 1650.912705 497.977126 L 1574.63726 180.171272 L 1498.361815 276.337815 L 1422.08637 303.713691 L 1345.810926 273.881005 L 1269.535481 376.365057 L 1193.260036 357.061554 L 1116.984591 289.323807 L 1040.709147 291.254158 L 964.433702 373.557275 L 888.158257 339.688402 L 811.882812 327.228868 L 735.607368 368.117197 L 659.331923 332.142487 L 583.056478 140.511348 L 506.781033 222.989952 L 430.505589 344.075561 L 354.230144 399.529261 L 277.954699 454.105528 L 201.679254 473.584518 L 125.40381 394.615642 L 49.128365 428.660002 z" clip-path="url(#pb647229ef0)" fill="#6ce098"/></g><g id="PolyCollection_13"><path d="M 49.128365 424.448328 L 49.128365 428.660002 L 125.40381 394.615642 L 201.679254 473.584518 L 277.954699 454.105528 L 354.230144 399.529261 L 430.505589 344.075561 L 506.781033 222.989952 L 583.056478 140.511348 L 659.331923 332.142487 L 735.607368 368.117197 L 811.882812 327.228868 L 888.158257 339.688402 L 964.433702 373.557275 L 1040.709147 291.254158 L 1116.984591 289.323807 L 1193.260036 357.061554 L 1269.535481 376.365057 L 1345.810926 273.881005 L 1422.08637 303.713691 L 1498.361815 276.337815 L 1574.63726 180.171272 L 1650.912705 497.977126 L 1650.912705 496.397748 L 1650.912705 496.397748 L 1574.63726 174.555708 L 1498.361815 267.738981 L 1422.08637 298.4491 L 1345.810926 266.686063 L 1269.535481 374.610193 L 1193.260036 349.866612 L 1116.984591 282.830811 L 1040.709147 279.847542 L 964.433702 367.94171 L 888.158257 335.125755 L 811.882812 324.070113 L 735.607368 364.431983 L 659.331923 327.930813 L 583.056478 134.018352 L 506.781033 206.143258 L 430.505589 337.933538 L 354.230144 391.80786 L 277.954699 443.927318 L 201.679254 470.601249 L 125.40381 388.298132 L 49.128365 424.448328 z" clip-path="url(#pb647229ef0)" fill="#2dd235"/></g><g id="PolyCollection_14"><path d="M 49.128365 424.272842 L 49.128365 424.448328 L 125.40381 388.298132 L 201.679254 470.601249 L 277.954699 443.927318 L 354.230144 391.80786 L 430.505589 337.933538 L 506.781033 206.143258 L 583.056478 134.018352 L 659.331923 327.930813 L 735.607368 364.431983 L 811.882812 324.070113 L 888.158257 335.125755 L 964.433702 367.94171 L 1040.709147 279.847542 L 1116.984591 282.830811 L 1193.260036 349.866612 L 1269.535481 374.610193 L 1345.810926 266.686063 L 1422.08637 298.4491 L 1498.361815 267.738981 L 1574.63726 174.555708 L 1650.912705 496.397748 L 1650.912705 496.397748 L 1650.912705 496.397748 L 1574.63726 174.555708 L 1498.361815 267.738981 L 1422.08637 298.4491 L 1345.810926 266.686063 L 1269.535481 374.610193 L 1193.260036 349.866612 L 1116.984591 282.655325 L 1040.709147 279.847542 L 964.433702 367.94171 L 888.158257 335.125755 L 811.882812 324.070113 L 735.607368 364.431983 L 659.331923 327.930813 L 583.056478 134.018352 L 506.781033 206.143258 L 430.505589 337.758051 L 354.230144 391.80786 L 277.954699 443.927318 L 201.679254 470.601249 L 125.40381 388.122645 L 49.128365 424.272842 z" clip-path="url(#pb647229ef0)" fill="#87c5a1"/></g><g id="PolyCollection_15"><path d="M 49.128365 423.570896 L 49.128365 424.272842 L 125.40381 388.122645 L 201.679254 470.601249 L 277.954699 443.927318 L 354.230144 391.80786 L 430.505589 337.758051 L 506.781033 206.143258 L 583.056478 134.018352 L 659.331923 327.930813 L 735.607368 364.431983 L 811.882812 324.070113 L 888.158257 335.125755 L 964.433702 367.94171 L 1040.709147 279.847542 L 1116.984591 282.655325 L 1193.260036 349.866612 L 1269.535481 374.610193 L 1345.810926 266.686063 L 1422.08637 298.4491 L 1498.361815 267.738981 L 1574.63726 174.555708 L 1650.912705 496.397748 L 1650.912705 495.34483 L 1650.912705 495.34483 L 1574.63726 174.380222 L 1498.361815 266.861549 L 1422.08637 297.045209 L 1345.810926 265.106686 L 1269.535481 370.39852 L 1193.260036 348.98918 L 1116.984591 279.145597 L 1040.709147 277.215246 L 964.433702 367.766224 L 888.158257 332.844432 L 811.882812 322.490735 L 735.607368 360.746768 L 659.331923 323.017194 L 583.056478 129.631192 L 506.781033 198.070884 L 430.505589 336.880619 L 354.230144 390.930428 L 277.954699 443.225372 L 201.679254 470.601249 L 125.40381 384.612918 L 49.128365 423.570896 z" clip-path="url(#pb647229ef0)" fill="#d279a6"/></g><g id="PolyCollection_16"><path d="M 49.128365 417.779845 L 49.128365 423.570896 L 125.40381 384.612918 L 201.679254 470.601249 L 277.954699 443.225372 L 354.230144 390.930428 L 430.505589 336.880619 L 506.781033 198.070884 L 583.056478 129.631192 L 659.331923 323.017194 L 735.607368 360.746768 L 811.882812 322.490735 L 888.158257 332.844432 L 964.433702 367.766224 L 1040.709147 277.215246 L 1116.984591 279.145597 L 1193.260036 348.98918 L 1269.535481 370.39852 L 1345.810926 265.106686 L 1422.08637 297.045209 L 1498.361815 266.861549 L 1574.63726 174.380222 L 1650.912705 495.34483 L 1650.912705 486.395024 L 1650.912705 486.395024 L 1574.63726 155.954151 L 1498.361815 245.45221 L 1422.08637 280.724974 L 1345.810926 254.051043 L 1269.535481 355.30669 L 1193.260036 335.827701 L 1116.984591 266.686063 L 1040.709147 242.644428 L 964.433702 358.465445 L 888.158257 319.156494 L 811.882812 303.362719 L 735.607368 343.900075 L 659.331923 300.203964 L 583.056478 98.570101 L 506.781033 171.923412 L 430.505589 317.050657 L 354.230144 373.908248 L 277.954699 435.503971 L 201.679254 464.459225 L 125.40381 374.434707 L 49.128365 417.779845 z" clip-path="url(#pb647229ef0)" fill="#6ce0bd"/></g><g id="PolyCollection_17"><path d="M 49.128365 416.024981 L 49.128365 417.779845 L 125.40381 374.434707 L 201.679254 464.459225 L 277.954699 435.503971 L 354.230144 373.908248 L 430.505589 317.050657 L 506.781033 171.923412 L 583.056478 98.570101 L 659.331923 300.203964 L 735.607368 343.900075 L 811.882812 303.362719 L 888.158257 319.156494 L 964.433702 358.465445 L 1040.709147 242.644428 L 1116.984591 266.686063 L 1193.260036 335.827701 L 1269.535481 355.30669 L 1345.810926 254.051043 L 1422.08637 280.724974 L 1498.361815 245.45221 L 1574.63726 155.954151 L 1650.912705 486.395024 L 1650.912705 486.044051 L 1650.912705 486.044051 L 1574.63726 154.725746 L 1498.361815 244.925751 L 1422.08637 279.49657 L 1345.810926 253.524584 L 1269.535481 354.780231 L 1193.260036 334.774783 L 1116.984591 265.808631 L 1040.709147 241.591509 L 964.433702 356.535095 L 888.158257 318.805521 L 811.882812 302.134314 L 735.607368 342.67167 L 659.331923 299.326532 L 583.056478 96.990723 L 506.781033 165.956875 L 430.505589 315.646766 L 354.230144 373.030816 L 277.954699 434.977512 L 201.679254 463.055334 L 125.40381 373.381789 L 49.128365 416.024981 z" clip-path="url(#pb647229ef0)" fill="#2d4f86"/></g><g id="PolyCollection_18"><path d="M 49.128365 413.392686 L 49.128365 416.024981 L 125.40381 373.381789 L 201.679254 463.055334 L 277.954699 434.977512 L 354.230144 373.030816 L 430.505589 315.646766 L 506.781033 165.956875 L 583.056478 96.990723 L 659.331923 299.326532 L 735.607368 342.67167 L 811.882812 302.134314 L 888.158257 318.805521 L 964.433702 356.535095 L 1040.709147 241.591509 L 1116.984591 265.808631 L 1193.260036 334.774783 L 1269.535481 354.780231 L 1345.810926 253.524584 L 1422.08637 279.49657 L 1498.361815 244.925751 L 1574.63726 154.725746 L 1650.912705 486.044051 L 1650.912705 485.693079 L 1650.912705 485.693079 L 1574.63726 145.424967 L 1498.361815 242.644428 L 1422.08637 270.897736 L 1345.810926 246.856101 L 1269.535481 352.147935 L 1193.260036 332.668946 L 1116.984591 257.034312 L 1040.709147 238.432754 L 964.433702 351.095017 L 888.158257 306.170501 L 811.882812 299.677504 L 735.607368 335.476728 L 659.331923 295.816804 L 583.056478 79.968543 L 506.781033 163.851038 L 430.505589 308.802797 L 354.230144 368.994629 L 277.954699 429.361947 L 201.679254 453.228096 L 125.40381 369.170115 L 49.128365 413.392686 z" clip-path="url(#pb647229ef0)" fill="#6c75e0"/></g><g id="PolyCollection_19"><path d="M 49.128365 401.459611 L 49.128365 413.392686 L 125.40381 369.170115 L 201.679254 453.228096 L 277.954699 429.361947 L 354.230144 368.994629 L 430.505589 308.802797 L 506.781033 163.851038 L 583.056478 79.968543 L 659.331923 295.816804 L 735.607368 335.476728 L 811.882812 299.677504 L 888.158257 306.170501 L 964.433702 351.095017 L 1040.709147 238.432754 L 1116.984591 257.034312 L 1193.260036 332.668946 L 1269.535481 352.147935 L 1345.810926 246.856101 L 1422.08637 270.897736 L 1498.361815 242.644428 L 1574.63726 145.424967 L 1650.912705 485.693079 L 1650.912705 485.693079 L 1650.912705 485.693079 L 1574.63726 141.739753 L 1498.361815 240.363104 L 1422.08637 268.616413 L 1345.810926 246.680615 L 1269.535481 351.796963 L 1193.260036 330.387623 L 1116.984591 257.034312 L 1040.709147 237.906295 L 964.433702 346.356884 L 888.158257 303.187232 L 811.882812 297.747154 L 735.607368 334.950269 L 659.331923 293.009022 L 583.056478 72.949088 L 506.781033 161.745201 L 430.505589 308.276338 L 354.230144 367.94171 L 277.954699 428.484515 L 201.679254 450.244828 L 125.40381 369.170115 L 49.128365 401.459611 z" clip-path="url(#pb647229ef0)" fill="#472d86"/></g><g id="PolyCollection_20"><path d="M 49.128365 396.195019 L 49.128365 401.459611 L 125.40381 369.170115 L 201.679254 450.244828 L 277.954699 428.484515 L 354.230144 367.94171 L 430.505589 308.276338 L 506.781033 161.745201 L 583.056478 72.949088 L 659.331923 293.009022 L 735.607368 334.950269 L 811.882812 297.747154 L 888.158257 303.187232 L 964.433702 346.356884 L 1040.709147 237.906295 L 1116.984591 257.034312 L 1193.260036 330.387623 L 1269.535481 351.796963 L 1345.810926 246.680615 L 1422.08637 268.616413 L 1498.361815 240.363104 L 1574.63726 141.739753 L 1650.912705 485.693079 L 1650.912705 484.113701 L 1650.912705 484.113701 L 1574.63726 137.703566 L 1498.361815 239.485672 L 1422.08637 265.633145 L 1345.810926 239.661159 L 1269.535481 348.462721 L 1193.260036 321.086844 L 1116.984591 252.296179 L 1040.709147 223.165438 L 964.433702 331.265055 L 888.158257 295.641318 L 811.882812 291.605131 L 735.607368 333.019919 L 659.331923 291.956103 L 583.056478 67.333523 L 506.781033 159.463878 L 430.505589 301.783341 L 354.230144 364.08101 L 277.954699 428.309029 L 201.679254 438.838212 L 125.40381 366.362333 L 49.128365 396.195019 z" clip-path="url(#pb647229ef0)" fill="#40b0bf"/></g><g id="PolyCollection_21"><path d="M 49.128365 395.844047 L 49.128365 396.195019 L 125.40381 366.362333 L 201.679254 438.838212 L 277.954699 428.309029 L 354.230144 364.08101 L 430.505589 301.783341 L 506.781033 159.463878 L 583.056478 67.333523 L 659.331923 291.956103 L 735.607368 333.019919 L 811.882812 291.605131 L 888.158257 295.641318 L 964.433702 331.265055 L 1040.709147 223.165438 L 1116.984591 252.296179 L 1193.260036 321.086844 L 1269.535481 348.462721 L 1345.810926 239.661159 L 1422.08637 265.633145 L 1498.361815 239.485672 L 1574.63726 137.703566 L 1650.912705 484.113701 L 1650.912705 484.113701 L 1650.912705 484.113701 L 1574.63726 137.703566 L 1498.361815 239.485672 L 1422.08637 265.633145 L 1345.810926 239.661159 L 1269.535481 348.462721 L 1193.260036 321.086844 L 1116.984591 252.296179 L 1040.709147 222.989952 L 964.433702 331.265055 L 888.158257 295.641318 L 811.882812 291.605131 L 735.607368 333.019919 L 659.331923 291.956103 L 583.056478 67.333523 L 506.781033 159.463878 L 430.505589 301.783341 L 354.230144 364.08101 L 277.954699 428.309029 L 201.679254 438.838212 L 125.40381 366.362333 L 49.128365 395.844047 z" clip-path="url(#pb647229ef0)" fill="#79d2b2"/></g><g id="PolyCollection_22"><path d="M 49.128365 394.791128 L 49.128365 395.844047 L 125.40381 366.362333 L 201.679254 438.838212 L 277.954699 428.309029 L 354.230144 364.08101 L 430.505589 301.783341 L 506.781033 159.463878 L 583.056478 67.333523 L 659.331923 291.956103 L 735.607368 333.019919 L 811.882812 291.605131 L 888.158257 295.641318 L 964.433702 331.265055 L 1040.709147 222.989952 L 1116.984591 252.296179 L 1193.260036 321.086844 L 1269.535481 348.462721 L 1345.810926 239.661159 L 1422.08637 265.633145 L 1498.361815 239.485672 L 1574.63726 137.703566 L 1650.912705 484.113701 L 1650.912705 484.113701 L 1650.912705 484.113701 L 1574.63726 137.703566 L 1498.361815 239.485672 L 1422.08637 265.633145 L 1345.810926 239.661159 L 1269.535481 348.462721 L 1193.260036 320.911358 L 1116.984591 252.296179 L 1040.709147 222.989952 L 964.433702 331.265055 L 888.158257 295.641318 L 811.882812 291.605131 L 735.607368 332.142487 L 659.331923 291.956103 L 583.056478 66.631578 L 506.781033 159.463878 L 430.505589 301.783341 L 354.230144 364.08101 L 277.954699 428.309029 L 201.679254 438.838212 L 125.40381 366.362333 L 49.128365 394.791128 z" clip-path="url(#pb647229ef0)" fill="#931f3c"/></g><g id="PolyCollection_23"><path d="M 49.128365 394.089183 L 49.128365 394.791128 L 125.40381 366.362333 L 201.679254 438.838212 L 277.954699 428.309029 L 354.230144 364.08101 L 430.505589 301.783341 L 506.781033 159.463878 L 583.056478 66.631578 L 659.331923 291.956103 L 735.607368 332.142487 L 811.882812 291.605131 L 888.158257 295.641318 L 964.433702 331.265055 L 1040.709147 222.989952 L 1116.984591 252.296179 L 1193.260036 320.911358 L 1269.535481 348.462721 L 1345.810926 239.661159 L 1422.08637 265.633145 L 1498.361815 239.485672 L 1574.63726 137.703566 L 1650.912705 484.113701 L 1650.912705 480.603973 L 1650.912705 480.603973 L 1574.63726 132.438974 L 1498.361815 235.449486 L 1422.08637 262.47439 L 1345.810926 235.800458 L 1269.535481 344.075561 L 1193.260036 314.067389 L 1116.984591 247.733533 L 1040.709147 218.778278 L 964.433702 326.175949 L 888.158257 289.148321 L 811.882812 281.075947 L 735.607368 327.755327 L 659.331923 286.866998 L 583.056478 58.383717 L 506.781033 154.725746 L 430.505589 300.203964 L 354.230144 360.044823 L 277.954699 427.607083 L 201.679254 437.609808 L 125.40381 366.01136 L 49.128365 394.089183 z" clip-path="url(#pb647229ef0)" fill="#2dd288"/></g><g id="PolyCollection_24"><path d="M 49.128365 390.930428 L 49.128365 394.089183 L 125.40381 366.01136 L 201.679254 437.609808 L 277.954699 427.607083 L 354.230144 360.044823 L 430.505589 300.203964 L 506.781033 154.725746 L 583.056478 58.383717 L 659.331923 286.866998 L 735.607368 327.755327 L 811.882812 281.075947 L 888.158257 289.148321 L 964.433702 326.175949 L 1040.709147 218.778278 L 1116.984591 247.733533 L 1193.260036 314.067389 L 1269.535481 344.075561 L 1345.810926 235.800458 L 1422.08637 262.47439 L 1498.361815 235.449486 L 1574.63726 132.438974 L 1650.912705 480.603973 L 1650.912705 480.603973 L 1650.912705 480.603973 L 1574.63726 130.859597 L 1498.361815 235.449486 L 1422.08637 262.47439 L 1345.810926 235.800458 L 1269.535481 344.075561 L 1193.260036 313.891902 L 1116.984591 247.558046 L 1040.709147 217.900846 L 964.433702 326.000463 L 888.158257 288.270889 L 811.882812 280.724974 L 735.607368 327.404354 L 659.331923 286.866998 L 583.056478 54.172044 L 506.781033 154.725746 L 430.505589 299.852991 L 354.230144 360.044823 L 277.954699 427.607083 L 201.679254 437.609808 L 125.40381 366.01136 L 49.128365 390.930428 z" clip-path="url(#pb647229ef0)" fill="#d22dd2"/></g><g id="PolyCollection_25"><path d="M 49.128365 390.754941 L 49.128365 390.930428 L 125.40381 366.01136 L 201.679254 437.609808 L 277.954699 427.607083 L 354.230144 360.044823 L 430.505589 299.852991 L 506.781033 154.725746 L 583.056478 54.172044 L 659.331923 286.866998 L 735.607368 327.404354 L 811.882812 280.724974 L 888.158257 288.270889 L 964.433702 326.000463 L 1040.709147 217.900846 L 1116.984591 247.558046 L 1193.260036 313.891902 L 1269.535481 344.075561 L 1345.810926 235.800458 L 1422.08637 262.47439 L 1498.361815 235.449486 L 1574.63726 130.859597 L 1650.912705 480.603973 L 1650.912705 480.603973 L 1650.912705 480.603973 L 1574.63726 130.859597 L 1498.361815 235.449486 L 1422.08637 262.47439 L 1345.810926 235.800458 L 1269.535481 343.900075 L 1193.260036 313.891902 L 1116.984591 245.627696 L 1040.709147 217.900846 L 964.433702 323.71914 L 888.158257 288.270889 L 811.882812 280.374002 L 735.607368 326.877895 L 659.331923 286.866998 L 583.056478 54.172044 L 506.781033 154.725746 L 430.505589 299.852991 L 354.230144 360.044823 L 277.954699 427.607083 L 201.679254 437.609808 L 125.40381 365.835874 L 49.128365 390.754941 z" clip-path="url(#pb647229ef0)" fill="#b9d279"/></g><g id="PolyCollection_26"><path d="M 49.128365 390.579455 L 49.128365 390.754941 L 125.40381 365.835874 L 201.679254 437.609808 L 277.954699 427.607083 L 354.230144 360.044823 L 430.505589 299.852991 L 506.781033 154.725746 L 583.056478 54.172044 L 659.331923 286.866998 L 735.607368 326.877895 L 811.882812 280.374002 L 888.158257 288.270889 L 964.433702 323.71914 L 1040.709147 217.900846 L 1116.984591 245.627696 L 1193.260036 313.891902 L 1269.535481 343.900075 L 1345.810926 235.800458 L 1422.08637 262.47439 L 1498.361815 235.449486 L 1574.63726 130.859597 L 1650.912705 480.603973 L 1650.912705 480.603973 L 1650.912705 480.603973 L 1574.63726 130.859597 L 1498.361815 235.449486 L 1422.08637 262.47439 L 1345.810926 235.800458 L 1269.535481 343.900075 L 1193.260036 313.891902 L 1116.984591 245.276723 L 1040.709147 217.900846 L 964.433702 323.192681 L 888.158257 288.270889 L 811.882812 280.374002 L 735.607368 326.877895 L 659.331923 286.866998 L 583.056478 54.172044 L 506.781033 154.725746 L 430.505589 299.852991 L 354.230144 360.044823 L 277.954699 427.607083 L 201.679254 437.609808 L 125.40381 365.835874 L 49.128365 390.579455 z" clip-path="url(#pb647229ef0)" fill="#48783a"/></g><g id="PolyCollection_27"><path d="M 49.128365 390.403968 L 49.128365 390.579455 L 125.40381 365.835874 L 201.679254 437.609808 L 277.954699 427.607083 L 354.230144 360.044823 L 430.505589 299.852991 L 506.781033 154.725746 L 583.056478 54.172044 L 659.331923 286.866998 L 735.607368 326.877895 L 811.882812 280.374002 L 888.158257 288.270889 L 964.433702 323.192681 L 1040.709147 217.900846 L 1116.984591 245.276723 L 1193.260036 313.891902 L 1269.535481 343.900075 L 1345.810926 235.800458 L 1422.08637 262.47439 L 1498.361815 235.449486 L 1574.63726 130.859597 L 1650.912705 480.603973 L 1650.912705 480.603973 L 1650.912705 480.603973 L 1574.63726 130.859597 L 1498.361815 235.449486 L 1422.08637 262.47439 L 1345.810926 235.800458 L 1269.535481 343.900075 L 1193.260036 313.891902 L 1116.984591 244.925751 L 1040.709147 217.72536 L 964.433702 323.192681 L 888.158257 288.270889 L 811.882812 280.374002 L 735.607368 326.877895 L 659.331923 286.866998 L 583.056478 53.996558 L 506.781033 154.725746 L 430.505589 299.852991 L 354.230144 360.044823 L 277.954699 427.607083 L 201.679254 437.609808 L 125.40381 365.835874 L 49.128365 390.403968 z" clip-path="url(#pb647229ef0)" fill="#d279c3"/></g><g id="PolyCollection_28"><path d="M 49.128365 390.228482 L 49.128365 390.403968 L 125.40381 365.835874 L 201.679254 437.609808 L 277.954699 427.607083 L 354.230144 360.044823 L 430.505589 299.852991 L 506.781033 154.725746 L 583.056478 53.996558 L 659.331923 286.866998 L 735.607368 326.877895 L 811.882812 280.374002 L 888.158257 288.270889 L 964.433702 323.192681 L 1040.709147 217.72536 L 1116.984591 244.925751 L 1193.260036 313.891902 L 1269.535481 343.900075 L 1345.810926 235.800458 L 1422.08637 262.47439 L 1498.361815 235.449486 L 1574.63726 130.859597 L 1650.912705 480.603973 L 1650.912705 480.603973 L 1650.912705 480.603973 L 1574.63726 130.859597 L 1498.361815 235.449486 L 1422.08637 262.47439 L 1345.810926 235.800458 L 1269.535481 343.900075 L 1193.260036 313.891902 L 1116.984591 244.925751 L 1040.709147 217.72536 L 964.433702 323.192681 L 888.158257 288.270889 L 811.882812 280.374002 L 735.607368 326.877895 L 659.331923 286.866998 L 583.056478 53.996558 L 506.781033 154.725746 L 430.505589 299.852991 L 354.230144 360.044823 L 277.954699 427.607083 L 201.679254 437.609808 L 125.40381 365.835874 L 49.128365 390.228482 z" clip-path="url(#pb647229ef0)" fill="#cae06c"/></g><g id="PolyCollection_29"><path d="M 49.128365 390.052996 L 49.128365 390.228482 L 125.40381 365.835874 L 201.679254 437.609808 L 277.954699 427.607083 L 354.230144 360.044823 L 430.505589 299.852991 L 506.781033 154.725746 L 583.056478 53.996558 L 659.331923 286.866998 L 735.607368 326.877895 L 811.882812 280.374002 L 888.158257 288.270889 L 964.433702 323.192681 L 1040.709147 217.72536 L 1116.984591 244.925751 L 1193.260036 313.891902 L 1269.535481 343.900075 L 1345.810926 235.800458 L 1422.08637 262.47439 L 1498.361815 235.449486 L 1574.63726 130.859597 L 1650.912705 480.603973 L 1650.912705 480.253 L 1650.912705 480.253 L 1574.63726 129.280219 L 1498.361815 234.045594 L 1422.08637 261.421471 L 1345.810926 231.764271 L 1269.535481 341.443265 L 1193.260036 313.01447 L 1116.984591 244.399291 L 1040.709147 216.321469 L 964.433702 319.33198 L 888.158257 286.866998 L 811.882812 280.198515 L 735.607368 325.474004 L 659.331923 285.638593 L 583.056478 53.470098 L 506.781033 148.583722 L 430.505589 293.535481 L 354.230144 357.7635 L 277.954699 425.501247 L 201.679254 436.732376 L 125.40381 363.554551 L 49.128365 390.052996 z" clip-path="url(#pb647229ef0)" fill="#c58799"/></g><g id="PolyCollection_30"><path d="M 49.128365 390.052996 L 49.128365 390.052996 L 125.40381 363.554551 L 201.679254 436.732376 L 277.954699 425.501247 L 354.230144 357.7635 L 430.505589 293.535481 L 506.781033 148.583722 L 583.056478 53.470098 L 659.331923 285.638593 L 735.607368 325.474004 L 811.882812 280.198515 L 888.158257 286.866998 L 964.433702 319.33198 L 1040.709147 216.321469 L 1116.984591 244.399291 L 1193.260036 313.01447 L 1269.535481 341.443265 L 1345.810926 231.764271 L 1422.08637 261.421471 L 1498.361815 234.045594 L 1574.63726 129.280219 L 1650.912705 480.253 L 1650.912705 480.077514 L 1650.912705 480.077514 L 1574.63726 128.578274 L 1498.361815 232.992676 L 1422.08637 258.613689 L 1345.810926 231.413299 L 1269.535481 340.916806 L 1193.260036 310.031202 L 1116.984591 241.240536 L 1040.709147 212.285282 L 964.433702 318.279062 L 888.158257 286.691512 L 811.882812 279.847542 L 735.607368 322.139762 L 659.331923 284.585675 L 583.056478 50.48683 L 506.781033 147.530804 L 430.505589 293.535481 L 354.230144 355.482177 L 277.954699 423.044437 L 201.679254 435.328484 L 125.40381 363.203578 L 49.128365 390.052996 z" clip-path="url(#pb647229ef0)" fill="#72e06c"/></g><g id="PolyCollection_31"><path d="M 49.128365 390.052996 L 49.128365 390.052996 L 125.40381 363.203578 L 201.679254 435.328484 L 277.954699 423.044437 L 354.230144 355.482177 L 430.505589 293.535481 L 506.781033 147.530804 L 583.056478 50.48683 L 659.331923 284.585675 L 735.607368 322.139762 L 811.882812 279.847542 L 888.158257 286.691512 L 964.433702 318.279062 L 1040.709147 212.285282 L 1116.984591 241.240536 L 1193.260036 310.031202 L 1269.535481 340.916806 L 1345.810926 231.413299 L 1422.08637 258.613689 L 1498.361815 232.992676 L 1574.63726 128.578274 L 1650.912705 480.077514 L 1650.912705 480.077514 L 1650.912705 480.077514 L 1574.63726 128.578274 L 1498.361815 232.992676 L 1422.08637 258.613689 L 1345.810926 231.413299 L 1269.535481 340.74132 L 1193.260036 310.031202 L 1116.984591 241.06505 L 1040.709147 212.285282 L 964.433702 318.279062 L 888.158257 286.691512 L 811.882812 279.672056 L 735.607368 322.139762 L 659.331923 284.585675 L 583.056478 50.311343 L 506.781033 147.530804 L 430.505589 293.535481 L 354.230144 355.482177 L 277.954699 423.044437 L 201.679254 435.328484 L 125.40381 363.028092 L 49.128365 390.052996 z" clip-path="url(#pb647229ef0)" fill="#d22f2d"/></g><g id="PolyCollection_32"><path d="M 49.128365 390.052996 L 49.128365 390.052996 L 125.40381 363.028092 L 201.679254 435.328484 L 277.954699 423.044437 L 354.230144 355.482177 L 430.505589 293.535481 L 506.781033 147.530804 L 583.056478 50.311343 L 659.331923 284.585675 L 735.607368 322.139762 L 811.882812 279.672056 L 888.158257 286.691512 L 964.433702 318.279062 L 1040.709147 212.285282 L 1116.984591 241.06505 L 1193.260036 310.031202 L 1269.535481 340.74132 L 1345.810926 231.413299 L 1422.08637 258.613689 L 1498.361815 232.992676 L 1574.63726 128.578274 L 1650.912705 480.077514 L 1650.912705 479.551055 L 1650.912705 479.551055 L 1574.63726 128.227301 L 1498.361815 230.711353 L 1422.08637 256.15688 L 1345.810926 230.535867 L 1269.535481 340.565834 L 1193.260036 309.504742 L 1116.984591 241.06505 L 1040.709147 211.232364 L 964.433702 316.524198 L 888.158257 284.936648 L 811.882812 277.390733 L 735.607368 319.156494 L 659.331923 282.830811 L 583.056478 49.258425 L 506.781033 144.898508 L 430.505589 293.359994 L 354.230144 354.429258 L 277.954699 421.46506 L 201.679254 432.345216 L 125.40381 362.677119 L 49.128365 390.052996 z" clip-path="url(#pb647229ef0)" fill="#3a7877"/></g><g id="PolyCollection_33"><path d="M 49.128365 390.052996 L 49.128365 390.052996 L 125.40381 362.677119 L 201.679254 432.345216 L 277.954699 421.46506 L 354.230144 354.429258 L 430.505589 293.359994 L 506.781033 144.898508 L 583.056478 49.258425 L 659.331923 282.830811 L 735.607368 319.156494 L 811.882812 277.390733 L 888.158257 284.936648 L 964.433702 316.524198 L 1040.709147 211.232364 L 1116.984591 241.06505 L 1193.260036 309.504742 L 1269.535481 340.565834 L 1345.810926 230.535867 L 1422.08637 256.15688 L 1498.361815 230.711353 L 1574.63726 128.227301 L 1650.912705 479.551055 L 1650.912705 479.375569 L 1650.912705 479.375569 L 1574.63726 128.227301 L 1498.361815 230.711353 L 1422.08637 256.15688 L 1345.810926 230.535867 L 1269.535481 340.565834 L 1193.260036 309.504742 L 1116.984591 239.661159 L 1040.709147 208.249095 L 964.433702 316.524198 L 888.158257 284.936648 L 811.882812 275.284896 L 735.607368 313.365443 L 659.331923 281.777893 L 583.056478 49.082939 L 506.781033 144.372049 L 430.505589 289.323807 L 354.230144 353.551826 L 277.954699 421.289573 L 201.679254 429.010974 L 125.40381 362.677119 L 49.128365 390.052996 z" clip-path="url(#pb647229ef0)" fill="#6b1f93"/></g><g id="matplotlib.axis_1"><g id="xtick_1"><g id="line2d_1"><defs><path id="m826e504b66" d="M 0 0 L 0 3.5" stroke="#ffffff" stroke-width="0.8"/></defs><g><use xlink:href="#m826e504b66" x="49.128" y="668.374" fill="#ffffff" stroke="#ffffff" stroke-width="0.8"/></g></g><g id="text_1"><g transform="translate(45.947115 682.972849) scale(0.1 -0.1)" fill="#ffffff"><defs><path id="DejaVuSans-30" d="M 2034 4250 Q 1547 4250 1301 3770 Q 1056 3291 1056 2328 Q 1056 1369 1301 889 Q 1547 409 2034 409 Q 2525 409 2770 889 Q 3016 1369 3016 2328 Q 3016 3291 2770 3770 Q 2525 4250 2034 4250 z M 2034 4750 Q 2819 4750 3233 4129 Q 3647 3509 3647 2328 Q 3647 1150 3233 529 Q 2819 -91 2034 -91 Q 1250 -91 836 529 Q 422 1150 422 2328 Q 422 3509 836 4129 Q 1250 4750 2034 4750 z" transform="scale(0.015625)"/></defs><use xlink:href="#DejaVuSans-30"/></g></g></g><g id="xtick_2"><g id="line2d_2"><g><use xlink:href="#m826e504b66" x="125.404" y="668.374" fill="#ffffff" stroke="#ffffff" stroke-width="0.8"/></g></g><g id="text_2"><g transform="translate(122.22256 682.972849) scale(0.1 -0.1)" fill="#ffffff"><defs><path id="DejaVuSans-31" d="M 794 531 L 1825 531 L 1825 4091 L 703 3866 L 703 4441 L 1819 4666 L 2450 4666 L 2450 531 L 3481 531 L 3481 0 L 794 0 L 794 531 z" transform="scale(0.015625)"/></defs><use xlink:href="#DejaVuSans-31"/></g></g></g><g id="xtick_3"><g id="line2d_3"><g><use xlink:href="#m826e504b66" x="201.679" y="668.374" fill="#ffffff" stroke="#ffffff" stroke-width="0.8"/></g></g><g id="text_3"><g transform="translate(198.498004 682.972849) scale(0.1 -0.1)" fill="#ffffff"><defs><path id="DejaVuSans-32" d="M 1228 531 L 3431 531 L 3431 0 L 469 0 L 469 531 Q 828 903 1448 1529 Q 2069 2156 2228 2338 Q 2531 2678 2651 2914 Q 2772 3150 2772 3378 Q 2772 3750 2511 3984 Q 2250 4219 1831 4219 Q 1534 4219 1204 4116 Q 875 4013 500 3803 L 500 4441 Q 881 4594 1212 4672 Q 1544 4750 1819 4750 Q 2544 4750 2975 4387 Q 3406 4025 3406 3419 Q 3406 3131 3298 2873 Q 3191 2616 2906 2266 Q 2828 2175 2409 1742 Q 1991 1309 1228 531 z" transform="scale(0.015625)"/></defs><use xlink:href="#DejaVuSans-32"/></g></g></g><g id="xtick_4"><g id="line2d_4"><g><use xlink:href="#m826e504b66" x="277.955" y="668.374" fill="#ffffff" stroke="#ffffff" stroke-width="0.8"/></g></g><g id="text_4"><g transform="translate(274.773449 682.972849) scale(0.1 -0.1)" fill="#ffffff"><defs><path id="DejaVuSans-33" d="M 2597 2516 Q 3050 2419 3304 2112 Q 3559 1806 3559 1356 Q 3559 666 3084 287 Q 2609 -91 1734 -91 Q 1441 -91 1130 -33 Q 819 25 488 141 L 488 750 Q 750 597 1062 519 Q 1375 441 1716 441 Q 2309 441 2620 675 Q 2931 909 2931 1356 Q 2931 1769 2642 2001 Q 2353 2234 1838 2234 L 1294 2234 L 1294 2753 L 1863 2753 Q 2328 2753 2575 2939 Q 2822 3125 2822 3475 Q 2822 3834 2567 4026 Q 2313 4219 1838 4219 Q 1578 4219 1281 4162 Q 984 4106 628 3988 L 628 4550 Q 988 4650 1302 4700 Q 1616 4750 1894 4750 Q 2613 4750 3031 4423 Q 3450 4097 3450 3541 Q 3450 3153 3228 2886 Q 3006 2619 2597 2516 z" transform="scale(0.015625)"/></defs><use xlink:href="#DejaVuSans-33"/></g></g></g><g id="xtick_5"><g id="line2d_5"><g><use xlink:href="#m826e504b66" x="354.23" y="668.374" fill="#ffffff" stroke="#ffffff" stroke-width="0.8"/></g></g><g id="text_5"><g transform="translate(351.048894 682.972849) scale(0.1 -0.1)" fill="#ffffff"><defs><path id="DejaVuSans-34" d="M 2419 4116 L 825 1625 L 2419 1625 L 2419 4116 z M 2253 4666 L 3047 4666 L 3047 1625 L 3713 1625 L 3713 1100 L 3047 1100 L 3047 0 L 2419 0 L 2419 1100 L 313 1100 L 313 1709 L 2253 4666 z" transform="scale(0.015625)"/></defs><use xlink:href="#DejaVuSans-34"/></g></g></g><g id="xtick_6"><g id="line2d_6"><g><use xlink:href="#m826e504b66" x="430.506" y="668.374" fill="#ffffff" stroke="#ffffff" stroke-width="0.8"/></g></g><g id="text_6"><g transform="translate(427.324339 682.972849) scale(0.1 -0.1)" fill="#ffffff"><defs><path id="DejaVuSans-35" d="M 691 4666 L 3169 4666 L 3169 4134 L 1269 4134 L 1269 2991 Q 1406 3038 1543 3061 Q 1681 3084 1819 3084 Q 2600 3084 3056 2656 Q 3513 2228 3513 1497 Q 3513 744 3044 326 Q 2575 -91 1722 -91 Q 1428 -91 1123 -41 Q 819 9 494 109 L 494 744 Q 775 591 1075 516 Q 1375 441 1709 441 Q 2250 441 2565 725 Q 2881 1009 2881 1497 Q 2881 1984 2565 2268 Q 2250 2553 1709 2553 Q 1456 2553 1204 2497 Q 953 2441 691 2322 L 691 4666 z" transform="scale(0.015625)"/></defs><use xlink:href="#DejaVuSans-35"/></g></g></g><g id="xtick_7"><g id="line2d_7"><g><use xlink:href="#m826e504b66" x="506.781" y="668.374" fill="#ffffff" stroke="#ffffff" stroke-width="0.8"/></g></g><g id="text_7"><g transform="translate(503.599783 682.972849) scale(0.1 -0.1)" fill="#ffffff"><defs><path id="DejaVuSans-36" d="M 2113 2584 Q 1688 2584 1439 2293 Q 1191 2003 1191 1497 Q 1191 994 1439 701 Q 1688 409 2113 409 Q 2538 409 2786 701 Q 3034 994 3034 1497 Q 3034 2003 2786 2293 Q 2538 2584 2113 2584 z M 3366 4563 L 3366 3988 Q 3128 4100 2886 4159 Q 2644 4219 2406 4219 Q 1781 4219 1451 3797 Q 1122 3375 1075 2522 Q 1259 2794 1537 2939 Q 1816 3084 2150 3084 Q 2853 3084 3261 2657 Q 3669 2231 3669 1497 Q 3669 778 3244 343 Q 2819 -91 2113 -91 Q 1303 -91 875 529 Q 447 1150 447 2328 Q 447 3434 972 4092 Q 1497 4750 2381 4750 Q 2619 4750 2861 4703 Q 3103 4656 3366 4563 z" transform="scale(0.015625)"/></defs><use xlink:href="#DejaVuSans-36"/></g></g></g><g id="xtick_8"><g id="line2d_8"><g><use xlink:href="#m826e504b66" x="583.056" y="668.374" fill="#ffffff" stroke="#ffffff" stroke-width="0.8"/></g></g><g id="text_8"><g transform="translate(579.875228 682.972849) scale(0.1 -0.1)" fill="#ffffff"><defs><path id="DejaVuSans-37" d="M 525 4666 L 3525 4666 L 3525 4397 L 1831 0 L 1172 0 L 2766 4134 L 525 4134 L 525 4666 z" transform="scale(0.015625)"/></defs><use xlink:href="#DejaVuSans-37"/></g></g></g><g id="xtick_9"><g id="line2d_9"><g><use xlink:href="#m826e504b66" x="659.332" y="668.374" fill="#ffffff" stroke="#ffffff" stroke-width="0.8"/></g></g><g id="text_9"><g transform="translate(656.150673 682.972849) scale(0.1 -0.1)" fill="#ffffff"><defs><path id="DejaVuSans-38" d="M 2034 2216 Q 1584 2216 1326 1975 Q 1069 1734 1069 1313 Q 1069 891 1326 650 Q 1584 409 2034 409 Q 2484 409 2743 651 Q 3003 894 3003 1313 Q 3003 1734 2745 1975 Q 2488 2216 2034 2216 z M 1403 2484 Q 997 2584 770 2862 Q 544 3141 544 3541 Q 544 4100 942 4425 Q 1341 4750 2034 4750 Q 2731 4750 3128 4425 Q 3525 4100 3525 3541 Q 3525 3141 3298 2862 Q 3072 2584 2669 2484 Q 3125 2378 3379 2068 Q 3634 1759 3634 1313 Q 3634 634 3220 271 Q 2806 -91 2034 -91 Q 1263 -91 848 271 Q 434 634 434 1313 Q 434 1759 690 2068 Q 947 2378 1403 2484 z M 1172 3481 Q 1172 3119 1398 2916 Q 1625 2713 2034 2713 Q 2441 2713 2670 2916 Q 2900 3119 2900 3481 Q 2900 3844 2670 4047 Q 2441 4250 2034 4250 Q 1625 4250 1398 4047 Q 1172 3844 1172 3481 z" transform="scale(0.015625)"/></defs><use xlink:href="#DejaVuSans-38"/></g></g></g><g id="xtick_10"><g id="line2d_10"><g><use xlink:href="#m826e504b66" x="735.607" y="668.374" fill="#ffffff" stroke="#ffffff" stroke-width="0.8"/></g></g><g id="text_10"><g transform="translate(732.426118 682.972849) scale(0.1 -0.1)" fill="#ffffff"><defs><path id="DejaVuSans-39" d="M 703 97 L 703 672 Q 941 559 1184 500 Q 1428 441 1663 441 Q 2288 441 2617 861 Q 2947 1281 2994 2138 Q 2813 1869 2534 1725 Q 2256 1581 1919 1581 Q 1219 1581 811 2004 Q 403 2428 403 3163 Q 403 3881 828 4315 Q 1253 4750 1959 4750 Q 2769 4750 3195 4129 Q 3622 3509 3622 2328 Q 3622 1225 3098 567 Q 2575 -91 1691 -91 Q 1453 -91 1209 -44 Q 966 3 703 97 z M 1959 2075 Q 2384 2075 2632 2365 Q 2881 2656 2881 3163 Q 2881 3666 2632 3958 Q 2384 4250 1959 4250 Q 1534 4250 1286 3958 Q 1038 3666 1038 3163 Q 1038 2656 1286 2365 Q 1534 2075 1959 2075 z" transform="scale(0.015625)"/></defs><use xlink:href="#DejaVuSans-39"/></g></g></g><g id="xtick_11"><g id="line2d_11"><g><use xlink:href="#m826e504b66" x="811.883" y="668.374" fill="#ffffff" stroke="#ffffff" stroke-width="0.8"/></g></g><g id="text_11"><g transform="translate(805.520313 682.972849) scale(0.1 -0.1)" fill="#ffffff"><use xlink:href="#DejaVuSans-31"/><use xlink:href="#DejaVuSans-30" x="63.623"/></g></g></g><g id="xtick_12"><g id="line2d_12"><g><use xlink:href="#m826e504b66" x="888.158" y="668.374" fill="#ffffff" stroke="#ffffff" stroke-width="0.8"/></g></g><g id="text_12"><g transform="translate(881.795757 682.972849) scale(0.1 -0.1)" fill="#ffffff"><use xlink:href="#DejaVuSans-31"/><use xlink:href="#DejaVuSans-31" x="63.623"/></g></g></g><g id="xtick_13"><g id="line2d_13"><g><use xlink:href="#m826e504b66" x="964.434" y="668.374" fill="#ffffff" stroke="#ffffff" stroke-width="0.8"/></g></g><g id="text_13"><g transform="translate(958.071202 682.972849) scale(0.1 -0.1)" fill="#ffffff"><use xlink:href="#DejaVuSans-31"/><use xlink:href="#DejaVuSans-32" x="63.623"/></g></g></g><g id="xtick_14"><g id="line2d_14"><g><use xlink:href="#m826e504b66" x="1040.709" y="668.374" fill="#ffffff" stroke="#ffffff" stroke-width="0.8"/></g></g><g id="text_14"><g transform="translate(1034.346647 682.972849) scale(0.1 -0.1)" fill="#ffffff"><use xlink:href="#DejaVuSans-31"/><use xlink:href="#DejaVuSans-33" x="63.623"/></g></g></g><g id="xtick_15"><g id="line2d_15"><g><use xlink:href="#m826e504b66" x="1116.985" y="668.374" fill="#ffffff" stroke="#ffffff" stroke-width="0.8"/></g></g><g id="text_15"><g transform="translate(1110.622091 682.972849) scale(0.1 -0.1)" fill="#ffffff"><use xlink:href="#DejaVuSans-31"/><use xlink:href="#DejaVuSans-34" x="63.623"/></g></g></g><g id="xtick_16"><g id="line2d_16"><g><use xlink:href="#m826e504b66" x="1193.26" y="668.374" fill="#ffffff" stroke="#ffffff" stroke-width="0.8"/></g></g><g id="text_16"><g transform="translate(1186.897536 682.972849) scale(0.1 -0.1)" fill="#ffffff"><use xlink:href="#DejaVuSans-31"/><use xlink:href="#DejaVuSans-35" x="63.623"/></g></g></g><g id="xtick_17"><g id="line2d_17"><g><use xlink:href="#m826e504b66" x="1269.535" y="668.374" fill="#ffffff" stroke="#ffffff" stroke-width="0.8"/></g></g><g id="text_17"><g transform="translate(1263.172981 682.972849) scale(0.1 -0.1)" fill="#ffffff"><use xlink:href="#DejaVuSans-31"/><use xlink:href="#DejaVuSans-36" x="63.623"/></g></g></g><g id="xtick_18"><g id="line2d_18"><g><use xlink:href="#m826e504b66" x="1345.811" y="668.374" fill="#ffffff" stroke="#ffffff" stroke-width="0.8"/></g></g><g id="text_18"><g transform="translate(1339.448426 682.972849) scale(0.1 -0.1)" fill="#ffffff"><use xlink:href="#DejaVuSans-31"/><use xlink:href="#DejaVuSans-37" x="63.623"/></g></g></g><g id="xtick_19"><g id="line2d_19"><g><use xlink:href="#m826e504b66" x="1422.086" y="668.374" fill="#ffffff" stroke="#ffffff" stroke-width="0.8"/></g></g><g id="text_19"><g transform="translate(1415.72387 682.972849) scale(0.1 -0.1)" fill="#ffffff"><use xlink:href="#DejaVuSans-31"/><use xlink:href="#DejaVuSans-38" x="63.623"/></g></g></g><g id="xtick_20"><g id="line2d_20"><g><use xlink:href="#m826e504b66" x="1498.362" y="668.374" fill="#ffffff" stroke="#ffffff" stroke-width="0.8"/></g></g><g id="text_20"><g transform="translate(1491.999315 682.972849) scale(0.1 -0.1)" fill="#ffffff"><use xlink:href="#DejaVuSans-31"/><use xlink:href="#DejaVuSans-39" x="63.623"/></g></g></g><g id="xtick_21"><g id="line2d_21"><g><use xlink:href="#m826e504b66" x="1574.637" y="668.374" fill="#ffffff" stroke="#ffffff" stroke-width="0.8"/></g></g><g id="text_21"><g transform="translate(1568.27476 682.972849) scale(0.1 -0.1)" fill="#ffffff"><use xlink:href="#DejaVuSans-32"/><use xlink:href="#DejaVuSans-30" x="63.623"/></g></g></g><g id="text_22"><g transform="translate(738.724219 696.650974) scale(0.1 -0.1)" fill="#ffffff"><defs><path id="DejaVuSans-44" d="M 1259 4147 L 1259 519 L 2022 519 Q 2988 519 3436 956 Q 3884 1394 3884 2338 Q 3884 3275 3436 3711 Q 2988 4147 2022 4147 L 1259 4147 z M 628 4666 L 1925 4666 Q 3281 4666 3915 4102 Q 4550 3538 4550 2338 Q 4550 1131 3912 565 Q 3275 0 1925 0 L 628 0 L 628 4666 z" transform="scale(0.015625)"/><path id="DejaVuSans-61" d="M 2194 1759 Q 1497 1759 1228 1600 Q 959 1441 959 1056 Q 959 750 1161 570 Q 1363 391 1709 391 Q 2188 391 2477 730 Q 2766 1069 2766 1631 L 2766 1759 L 2194 1759 z M 3341 1997 L 3341 0 L 2766 0 L 2766 531 Q 2569 213 2275 61 Q 1981 -91 1556 -91 Q 1019 -91 701 211 Q 384 513 384 1019 Q 384 1609 779 1909 Q 1175 2209 1959 2209 L 2766 2209 L 2766 2266 Q 2766 2663 2505 2880 Q 2244 3097 1772 3097 Q 1472 3097 1187 3025 Q 903 2953 641 2809 L 641 3341 Q 956 3463 1253 3523 Q 1550 3584 1831 3584 Q 2591 3584 2966 3190 Q 3341 2797 3341 1997 z" transform="scale(0.015625)"/><path id="DejaVuSans-79" d="M 2059 -325 Q 1816 -950 1584 -1140 Q 1353 -1331 966 -1331 L 506 -1331 L 506 -850 L 844 -850 Q 1081 -850 1212 -737 Q 1344 -625 1503 -206 L 1606 56 L 191 3500 L 800 3500 L 1894 763 L 2988 3500 L 3597 3500 L 2059 -325 z" transform="scale(0.015625)"/><path id="DejaVuSans-73" d="M 2834 3397 L 2834 2853 Q 2591 2978 2328 3040 Q 2066 3103 1784 3103 Q 1356 3103 1142 2972 Q 928 2841 928 2578 Q 928 2378 1081 2264 Q 1234 2150 1697 2047 L 1894 2003 Q 2506 1872 2764 1633 Q 3022 1394 3022 966 Q 3022 478 2636 193 Q 2250 -91 1575 -91 Q 1294 -91 989 -36 Q 684 19 347 128 L 347 722 Q 666 556 975 473 Q 1284 391 1588 391 Q 1994 391 2212 530 Q 2431 669 2431 922 Q 2431 1156 2273 1281 Q 2116 1406 1581 1522 L 1381 1569 Q 847 1681 609 1914 Q 372 2147 372 2553 Q 372 3047 722 3315 Q 1072 3584 1716 3584 Q 2034 3584 2315 3537 Q 2597 3491 2834 3397 z" transform="scale(0.015625)"/><path id="DejaVuSans-20" transform="scale(0.015625)"/><path id="DejaVuSans-69" d="M 603 3500 L 1178 3500 L 1178 0 L 603 0 L 603 3500 z M 603 4863 L 1178 4863 L 1178 4134 L 603 4134 L 603 4863 z" transform="scale(0.015625)"/><path id="DejaVuSans-6e" d="M 3513 2113 L 3513 0 L 2938 0 L 2938 2094 Q 2938 2591 2744 2837 Q 2550 3084 2163 3084 Q 1697 3084 1428 2787 Q 1159 2491 1159 1978 L 1159 0 L 581 0 L 581 3500 L 1159 3500 L 1159 2956 Q 1366 3272 1645 3428 Q 1925 3584 2291 3584 Q 2894 3584 3203 3211 Q 3513 2838 3513 2113 z" transform="scale(0.015625)"/><path id="DejaVuSans-63" d="M 3122 3366 L 3122 2828 Q 2878 2963 2633 3030 Q 2388 3097 2138 3097 Q 1578 3097 1268 2742 Q 959 2388 959 1747 Q 959 1106 1268 751 Q 1578 397 2138 397 Q 2388 397 2633 464 Q 2878 531 3122 666 L 3122 134 Q 2881 22 2623 -34 Q 2366 -91 2075 -91 Q 1284 -91 818 406 Q 353 903 353 1747 Q 353 2603 823 3093 Q 1294 3584 2113 3584 Q 2378 3584 2631 3529 Q 2884 3475 3122 3366 z" transform="scale(0.015625)"/><path id="DejaVuSans-65" d="M 3597 1894 L 3597 1613 L 953 1613 Q 991 1019 1311 708 Q 1631 397 2203 397 Q 2534 397 2845 478 Q 3156 559 3463 722 L 3463 178 Q 3153 47 2828 -22 Q 2503 -91 2169 -91 Q 1331 -91 842 396 Q 353 884 353 1716 Q 353 2575 817 3079 Q 1281 3584 2069 3584 Q 2775 3584 3186 3129 Q 3597 2675 3597 1894 z M 3022 2063 Q 3016 2534 2758 2815 Q 2500 3097 2075 3097 Q 1594 3097 1305 2825 Q 1016 2553 972 2059 L 3022 2063 z" transform="scale(0.015625)"/><path id="DejaVuSans-2f" d="M 1625 4666 L 2156 4666 L 531 -594 L 0 -594 L 1625 4666 z" transform="scale(0.015625)"/><path id="DejaVuSans-28" d="M 1984 4856 Q 1566 4138 1362 3434 Q 1159 2731 1159 2009 Q 1159 1288 1364 580 Q 1569 -128 1984 -844 L 1484 -844 Q 1016 -109 783 600 Q 550 1309 550 2009 Q 550 2706 781 3412 Q 1013 4119 1484 4856 L 1984 4856 z" transform="scale(0.015625)"/><path id="DejaVuSans-55" d="M 556 4666 L 1191 4666 L 1191 1831 Q 1191 1081 1462 751 Q 1734 422 2344 422 Q 2950 422 3222 751 Q 3494 1081 3494 1831 L 3494 4666 L 4128 4666 L 4128 1753 Q 4128 841 3676 375 Q 3225 -91 2344 -91 Q 1459 -91 1007 375 Q 556 841 556 1753 L 556 4666 z" transform="scale(0.015625)"/><path id="DejaVuSans-43" d="M 4122 4306 L 4122 3641 Q 3803 3938 3442 4084 Q 3081 4231 2675 4231 Q 1875 4231 1450 3742 Q 1025 3253 1025 2328 Q 1025 1406 1450 917 Q 1875 428 2675 428 Q 3081 428 3442 575 Q 3803 722 4122 1019 L 4122 359 Q 3791 134 3420 21 Q 3050 -91 2638 -91 Q 1578 -91 968 557 Q 359 1206 359 2328 Q 359 3453 968 4101 Q 1578 4750 2638 4750 Q 3056 4750 3426 4639 Q 3797 4528 4122 4306 z" transform="scale(0.015625)"/><path id="DejaVuSans-54" d="M -19 4666 L 3928 4666 L 3928 4134 L 2272 4134 L 2272 0 L 1638 0 L 1638 4134 L -19 4134 L -19 4666 z" transform="scale(0.015625)"/><path id="DejaVuSans-29" d="M 513 4856 L 1013 4856 Q 1481 4119 1714 3412 Q 1947 2706 1947 2009 Q 1947 1309 1714 600 Q 1481 -109 1013 -844 L 513 -844 Q 928 -128 1133 580 Q 1338 1288 1338 2009 Q 1338 2731 1133 3434 Q 928 4138 513 4856 z" transform="scale(0.015625)"/></defs><use xlink:href="#DejaVuSans-44"/><use xlink:href="#DejaVuSans-61" x="77.002"/><use xlink:href="#DejaVuSans-79" x="138.281"/><use xlink:href="#DejaVuSans-73" x="197.461"/><use xlink:href="#DejaVuSans-20" x="249.561"/><use xlink:href="#DejaVuSans-73" x="281.348"/><use xlink:href="#DejaVuSans-69" x="333.447"/><use xlink:href="#DejaVuSans-6e" x="361.23"/><use xlink:href="#DejaVuSans-63" x="424.609"/><use xlink:href="#DejaVuSans-65" x="479.59"/><use xlink:href="#DejaVuSans-20" x="541.113"/><use xlink:href="#DejaVuSans-32" x="572.9"/><use xlink:href="#DejaVuSans-36" x="636.523"/><use xlink:href="#DejaVuSans-2f" x="700.146"/><use xlink:href="#DejaVuSans-30" x="733.838"/><use xlink:href="#DejaVuSans-32" x="797.461"/><use xlink:href="#DejaVuSans-2f" x="861.084"/><use xlink:href="#DejaVuSans-32" x="894.775"/><use xlink:href="#DejaVuSans-30" x="958.398"/><use xlink:href="#DejaVuSans-32" x="1022.021"/><use xlink:href="#DejaVuSans-33" x="1085.645"/><use xlink:href="#DejaVuSans-20" x="1149.268"/><use xlink:href="#DejaVuSans-28" x="1181.055"/><use xlink:href="#DejaVuSans-55" x="1220.068"/><use xlink:href="#DejaVuSans-43" x="1293.262"/><use xlink:href="#DejaVuSans-54" x="1363.086"/><use xlink:href="#DejaVuSans-29" x="1424.17"/></g></g></g><g id="matplotlib.axis_2"><g id="ytick_1"><g id="line2d_22"><defs><path id="m3acf29ea02" d="M 0 0 L -3.5 0" stroke="#ffffff" stroke-width="0.8"/></defs><g><use xlink:href="#m3acf29ea02" x="49.128" y="668.374" fill="#ffffff" stroke="#ffffff" stroke-width="0.8"/></g></g><g id="text_23"><g transform="translate(35.765865 672.17363) scale(0.1 -0.1)" fill="#ffffff"><use xlink:href="#DejaVuSans-30"/></g></g></g><g id="ytick_2"><g id="line2d_23"><g><use xlink:href="#m3acf29ea02" x="49.128" y="580.631" fill="#ffffff" stroke="#ffffff" stroke-width="0.8"/></g></g><g id="text_24"><g transform="translate(23.040865 584.430435) scale(0.1 -0.1)" fill="#ffffff"><use xlink:href="#DejaVuSans-35"/><use xlink:href="#DejaVuSans-30" x="63.623"/><use xlink:href="#DejaVuSans-30" x="127.246"/></g></g></g><g id="ytick_3"><g id="line2d_24"><g><use xlink:href="#m3acf29ea02" x="49.128" y="492.888" fill="#ffffff" stroke="#ffffff" stroke-width="0.8"/></g></g><g id="text_25"><g transform="translate(16.678365 496.687239) scale(0.1 -0.1)" fill="#ffffff"><use xlink:href="#DejaVuSans-31"/><use xlink:href="#DejaVuSans-30" x="63.623"/><use xlink:href="#DejaVuSans-30" x="127.246"/><use xlink:href="#DejaVuSans-30" x="190.869"/></g></g></g><g id="ytick_4"><g id="line2d_25"><g><use xlink:href="#m3acf29ea02" x="49.128" y="405.145" fill="#ffffff" stroke="#ffffff" stroke-width="0.8"/></g></g><g id="text_26"><g transform="translate(16.678365 408.944044) scale(0.1 -0.1)" fill="#ffffff"><use xlink:href="#DejaVuSans-31"/><use xlink:href="#DejaVuSans-35" x="63.623"/><use xlink:href="#DejaVuSans-30" x="127.246"/><use xlink:href="#DejaVuSans-30" x="190.869"/></g></g></g><g id="ytick_5"><g id="line2d_26"><g><use xlink:href="#m3acf29ea02" x="49.128" y="317.402" fill="#ffffff" stroke="#ffffff" stroke-width="0.8"/></g></g><g id="text_27"><g transform="translate(16.678365 321.200849) scale(0.1 -0.1)" fill="#ffffff"><use xlink:href="#DejaVuSans-32"/><use xlink:href="#DejaVuSans-30" x="63.623"/><use xlink:href="#DejaVuSans-30" x="127.246"/><use xlink:href="#DejaVuSans-30" x="190.869"/></g></g></g><g id="ytick_6"><g id="line2d_27"><g><use xlink:href="#m3acf29ea02" x="49.128" y="229.658" fill="#ffffff" stroke="#ffffff" stroke-width="0.8"/></g></g><g id="text_28"><g transform="translate(16.678365 233.457653) scale(0.1 -0.1)" fill="#ffffff"><use xlink:href="#DejaVuSans-32"/><use xlink:href="#DejaVuSans-35" x="63.623"/><use xlink:href="#DejaVuSans-30" x="127.246"/><use xlink:href="#DejaVuSans-30" x="190.869"/></g></g></g><g id="ytick_7"><g id="line2d_28"><g><use xlink:href="#m3acf29ea02" x="49.128" y="141.915" fill="#ffffff" stroke="#ffffff" stroke-width="0.8"/></g></g><g id="text_29"><g transform="translate(16.678365 145.714458) scale(0.1 -0.1)" fill="#ffffff"><use xlink:href="#DejaVuSans-33"/><use xlink:href="#DejaVuSans-30" x="63.623"/><use xlink:href="#DejaVuSans-30" x="127.246"/><use xlink:href="#DejaVuSans-30" x="190.869"/></g></g></g><g id="ytick_8"><g id="line2d_29"><g><use xlink:href="#m3acf29ea02" x="49.128" y="54.172" fill="#ffffff" stroke="#ffffff" stroke-width="0.8"/></g></g><g id="text_30"><g transform="translate(16.678365 57.971263) scale(0.1 -0.1)" fill="#ffffff"><use xlink:href="#DejaVuSans-33"/><use xlink:href="#DejaVuSans-35" x="63.623"/><use xlink:href="#DejaVuSans-30" x="127.246"/><use xlink:href="#DejaVuSans-30" x="190.869"/></g></g></g><g id="text_31"><g transform="translate(10.598677 364.165138) rotate(-90) scale(0.1 -0.1)" fill="#ffffff"><defs><path id="DejaVuSans-56" d="M 1831 0 L 50 4666 L 709 4666 L 2188 738 L 3669 4666 L 4325 4666 L 2547 0 L 1831 0 z" transform="scale(0.015625)"/><path id="DejaVuSans-74" d="M 1172 4494 L 1172 3500 L 2356 3500 L 2356 3053 L 1172 3053 L 1172 1153 Q 1172 725 1289 603 Q 1406 481 1766 481 L 2356 481 L 2356 0 L 1766 0 Q 1100 0 847 248 Q 594 497 594 1153 L 594 3053 L 172 3053 L 172 3500 L 594 3500 L 594 4494 L 1172 4494 z" transform="scale(0.015625)"/><path id="DejaVuSans-67" d="M 2906 1791 Q 2906 2416 2648 2759 Q 2391 3103 1925 3103 Q 1463 3103 1205 2759 Q 947 2416 947 1791 Q 947 1169 1205 825 Q 1463 481 1925 481 Q 2391 481 2648 825 Q 2906 1169 2906 1791 z M 3481 434 Q 3481 -459 3084 -895 Q 2688 -1331 1869 -1331 Q 1566 -1331 1297 -1286 Q 1028 -1241 775 -1147 L 775 -588 Q 1028 -725 1275 -790 Q 1522 -856 1778 -856 Q 2344 -856 2625 -561 Q 2906 -266 2906 331 L 2906 616 Q 2728 306 2450 153 Q 2172 0 1784 0 Q 1141 0 747 490 Q 353 981 353 1791 Q 353 2603 747 3093 Q 1141 3584 1784 3584 Q 2172 3584 2450 3431 Q 2728 3278 2906 2969 L 2906 3500 L 3481 3500 L 3481 434 z" transform="scale(0.015625)"/></defs><use xlink:href="#DejaVuSans-56"/><use xlink:href="#DejaVuSans-65" x="60.658"/><use xlink:href="#DejaVuSans-73" x="122.182"/><use xlink:href="#DejaVuSans-74" x="174.281"/><use xlink:href="#DejaVuSans-69" x="213.49"/><use xlink:href="#DejaVuSans-67" x="241.273"/><use xlink:href="#DejaVuSans-65" x="304.75"/><use xlink:href="#DejaVuSans-73" x="366.273"/></g></g></g><g id="patch_3"><path d="M 49.128365 668.374411 L 49.128365 18.118365" fill="none" stroke="#ffffff" stroke-width="0.8" stroke-linejoin="miter" stroke-linecap="square"/></g><g id="patch_4"><path d="M 1574.63726 668.374411 L 1574.63726 18.118365" fill="none" stroke="#ffffff" stroke-width="0.8" stroke-linejoin="miter" stroke-linecap="square"/></g><g id="patch_5"><path d="M 49.128365 668.374411 L 1574.63726 668.374411" fill="none" stroke="#ffffff" stroke-width="0.8" stroke-linejoin="miter" stroke-linecap="square"/></g><g id="patch_6"><path d="M 49.128365 18.118365 L 1574.63726 18.118365" fill="none" stroke="#ffffff" stroke-width="0.8" stroke-linejoin="miter" stroke-linecap="square"/></g><g id="text_32"><g transform="translate(758.439687 12.118365) scale(0.12 -0.12)" fill="#ffffff"><defs><path id="DejaVuSans-52" d="M 2841 2188 Q 3044 2119 3236 1894 Q 3428 1669 3622 1275 L 4263 0 L 3584 0 L 2988 1197 Q 2756 1666 2539 1819 Q 2322 1972 1947 1972 L 1259 1972 L 1259 0 L 628 0 L 628 4666 L 2053 4666 Q 2853 4666 3247 4331 Q 3641 3997 3641 3322 Q 3641 2881 3436 2590 Q 3231 2300 2841 2188 z M 1259 4147 L 1259 2491 L 2053 2491 Q 2509 2491 2742 2702 Q 2975 2913 2975 3322 Q 2975 3731 2742 3939 Q 2509 4147 2053 4147 L 1259 4147 z" transform="scale(0.015625)"/><path id="DejaVuSans-6f" d="M 1959 3097 Q 1497 3097 1228 2736 Q 959 2375 959 1747 Q 959 1119 1226 758 Q 1494 397 1959 397 Q 2419 397 2687 759 Q 2956 1122 2956 1747 Q 2956 2369 2687 2733 Q 2419 3097 1959 3097 z M 1959 3584 Q 2709 3584 3137 3096 Q 3566 2609 3566 1747 Q 3566 888 3137 398 Q 2709 -91 1959 -91 Q 1206 -91 779 398 Q 353 888 353 1747 Q 353 2609 779 3096 Q 1206 3584 1959 3584 z" transform="scale(0.015625)"/><path id="DejaVuSans-46" d="M 628 4666 L 3309 4666 L 3309 4134 L 1259 4134 L 1259 2759 L 3109 2759 L 3109 2228 L 1259 2228 L 1259 0 L 628 0 L 628 4666 z" transform="scale(0.015625)"/><path id="DejaVuSans-72" d="M 2631 2963 Q 2534 3019 2420 3045 Q 2306 3072 2169 3072 Q 1681 3072 1420 2755 Q 1159 2438 1159 1844 L 1159 0 L 581 0 L 581 3500 L 1159 3500 L 1159 2956 Q 1341 3275 1631 3429 Q 1922 3584 2338 3584 Q 2397 3584 2469 3576 Q 2541 3569 2628 3553 L 2631 2963 z" transform="scale(0.015625)"/><path id="DejaVuSans-71" d="M 947 1747 Q 947 1113 1208 752 Q 1469 391 1925 391 Q 2381 391 2643 752 Q 2906 1113 2906 1747 Q 2906 2381 2643 2742 Q 2381 3103 1925 3103 Q 1469 3103 1208 2742 Q 947 2381 947 1747 z M 2906 525 Q 2725 213 2448 61 Q 2172 -91 1784 -91 Q 1150 -91 751 415 Q 353 922 353 1747 Q 353 2572 751 3078 Q 1150 3584 1784 3584 Q 2172 3584 2448 3432 Q 2725 3281 2906 2969 L 2906 3500 L 3481 3500 L 3481 -1331 L 2906 -1331 L 2906 525 z" transform="scale(0.015625)"/><path id="DejaVuSans-75" d="M 544 1381 L 544 3500 L 1119 3500 L 1119 1403 Q 1119 906 1312 657 Q 1506 409 1894 409 Q 2359 409 2629 706 Q 2900 1003 2900 1516 L 2900 3500 L 3475 3500 L 3475 0 L 2900 0 L 2900 538 Q 2691 219 2414 64 Q 2138 -91 1772 -91 Q 1169 -91 856 284 Q 544 659 544 1381 z M 1991 3584 L 1991 3584 z" transform="scale(0.015625)"/></defs><use xlink:href="#DejaVuSans-52"/><use xlink:href="#DejaVuSans-65" x="64.982"/><use xlink:href="#DejaVuSans-67" x="126.506"/><use xlink:href="#DejaVuSans-69" x="189.982"/><use xlink:href="#DejaVuSans-6f" x="217.766"/><use xlink:href="#DejaVuSans-6e" x="278.947"/><use xlink:href="#DejaVuSans-20" x="342.326"/><use xlink:href="#DejaVuSans-46" x="374.113"/><use xlink:href="#DejaVuSans-72" x="424.383"/><use xlink:href="#DejaVuSans-65" x="463.246"/><use xlink:href="#DejaVuSans-71" x="524.77"/><use xlink:href="#DejaVuSans-75" x="588.246"/><use xlink:href="#DejaVuSans-65" x="651.625"/><use xlink:href="#DejaVuSans-6e" x="713.148"/><use xlink:href="#DejaVuSans-63" x="776.527"/><use xlink:href="#DejaVuSans-79" x="831.508"/></g></g></g><g id="legend_1"><g id="patch_7"><path d="M 88.609312 716.53 L 1495.390688 716.53 Q 1496.778687 716.53 1496.778687 715.142 L 1496.778687 705.649381 Q 1496.778687 704.261381 1495.390688 704.261381 L 88.609312 704.261381 Q 87.221312 704.261381 87.221312 705.649381 L 87.221312 715.142 Q 87.221312 716.53 88.609312 716.53 z" opacity="0.8" stroke="#cccccc" stroke-linejoin="miter"/></g><g id="patch_8"><path d="M 89.997312 712.310697 L 103.877312 712.310697 L 103.877312 707.452697 L 89.997312 707.452697 z" fill="#ac5953"/></g><g id="text_33"><g transform="translate(109.429312 712.310697) scale(0.0694 -0.0694)" fill="#ffffff"><defs><path id="DejaVuSans-53" d="M 3425 4513 L 3425 3897 Q 3066 4069 2747 4153 Q 2428 4238 2131 4238 Q 1616 4238 1336 4038 Q 1056 3838 1056 3469 Q 1056 3159 1242 3001 Q 1428 2844 1947 2747 L 2328 2669 Q 3034 2534 3370 2195 Q 3706 1856 3706 1288 Q 3706 609 3251 259 Q 2797 -91 1919 -91 Q 1588 -91 1214 -16 Q 841 59 441 206 L 441 856 Q 825 641 1194 531 Q 1563 422 1919 422 Q 2459 422 2753 634 Q 3047 847 3047 1241 Q 3047 1584 2836 1778 Q 2625 1972 2144 2069 L 1759 2144 Q 1053 2284 737 2584 Q 422 2884 422 3419 Q 422 4038 858 4394 Q 1294 4750 2059 4750 Q 2388 4750 2728 4690 Q 3069 4631 3425 4513 z" transform="scale(0.015625)"/></defs><use xlink:href="#DejaVuSans-53"/><use xlink:href="#DejaVuSans-55" x="63.477"/></g></g><g id="patch_9"><path d="M 132.794341 712.310697 L 146.674341 712.310697 L 146.674341 707.452697 L 132.794341 707.452697 z" fill="#a840bf"/></g><g id="text_34"><g transform="translate(152.226341 712.310697) scale(0.0694 -0.0694)" fill="#ffffff"><defs><path id="DejaVuSans-42" d="M 1259 2228 L 1259 519 L 2272 519 Q 2781 519 3026 730 Q 3272 941 3272 1375 Q 3272 1813 3026 2020 Q 2781 2228 2272 2228 L 1259 2228 z M 1259 4147 L 1259 2741 L 2194 2741 Q 2656 2741 2882 2914 Q 3109 3088 3109 3444 Q 3109 3797 2882 3972 Q 2656 4147 2194 4147 L 1259 4147 z M 628 4666 L 2241 4666 Q 2963 4666 3353 4366 Q 3744 4066 3744 3513 Q 3744 3084 3544 2831 Q 3344 2578 2956 2516 Q 3422 2416 3680 2098 Q 3938 1781 3938 1306 Q 3938 681 3513 340 Q 3088 0 2303 0 L 628 0 L 628 4666 z" transform="scale(0.015625)"/></defs><use xlink:href="#DejaVuSans-53"/><use xlink:href="#DejaVuSans-42" x="63.477"/></g></g><g id="patch_10"><path d="M 175.273647 712.310697 L 189.153647 712.310697 L 189.153647 707.452697 L 175.273647 707.452697 z" fill="#651f93"/></g><g id="text_35"><g transform="translate(194.705647 712.310697) scale(0.0694 -0.0694)" fill="#ffffff"><defs><path id="DejaVuSans-48" d="M 628 4666 L 1259 4666 L 1259 2753 L 3553 2753 L 3553 4666 L 4184 4666 L 4184 0 L 3553 0 L 3553 2222 L 1259 2222 L 1259 0 L 628 0 L 628 4666 z" transform="scale(0.015625)"/><path id="DejaVuSans-49" d="M 628 4666 L 1259 4666 L 1259 0 L 628 0 L 628 4666 z" transform="scale(0.015625)"/></defs><use xlink:href="#DejaVuSans-48"/><use xlink:href="#DejaVuSans-49" x="75.195"/></g></g><g id="patch_11"><path d="M 215.852044 712.310697 L 229.732044 712.310697 L 229.732044 707.452697 L 215.852044 707.452697 z" fill="#862d36"/></g><g id="text_36"><g transform="translate(235.284044 712.310697) scale(0.0694 -0.0694)" fill="#ffffff"><use xlink:href="#DejaVuSans-53"/><use xlink:href="#DejaVuSans-49" x="63.477"/></g></g><g id="patch_12"><path d="M 255.617159 712.310697 L 269.497159 712.310697 L 269.497159 707.452697 L 255.617159 707.452697 z" fill="#1f937c"/></g><g id="text_37"><g transform="translate(275.049159 712.310697) scale(0.0694 -0.0694)" fill="#ffffff"><use xlink:href="#DejaVuSans-43"/><use xlink:href="#DejaVuSans-43" x="69.824"/></g></g><g id="patch_13"><path d="M 298.621303 712.310697 L 312.501303 712.310697 L 312.501303 707.452697 L 298.621303 707.452697 z" fill="#2dbfd2"/></g><g id="text_38"><g transform="translate(318.053303 712.310697) scale(0.0694 -0.0694)" fill="#ffffff"><defs><path id="DejaVuSans-57" d="M 213 4666 L 850 4666 L 1831 722 L 2809 4666 L 3519 4666 L 4500 722 L 5478 4666 L 6119 4666 L 4947 0 L 4153 0 L 3169 4050 L 2175 0 L 1381 0 L 213 4666 z" transform="scale(0.015625)"/></defs><use xlink:href="#DejaVuSans-55"/><use xlink:href="#DejaVuSans-57" x="73.193"/></g></g><g id="patch_14"><path d="M 343.874441 712.310697 L 357.754441 712.310697 L 357.754441 707.452697 L 343.874441 707.452697 z" fill="#1f9327"/></g><g id="text_39"><g transform="translate(363.306441 712.310697) scale(0.0694 -0.0694)" fill="#ffffff"><defs><path id="DejaVuSans-4c" d="M 628 4666 L 1259 4666 L 1259 531 L 3531 531 L 3531 0 L 628 0 L 628 4666 z" transform="scale(0.015625)"/><path id="DejaVuSans-4d" d="M 628 4666 L 1569 4666 L 2759 1491 L 3956 4666 L 4897 4666 L 4897 0 L 4281 0 L 4281 4097 L 3078 897 L 2444 897 L 1241 4097 L 1241 0 L 628 0 L 628 4666 z" transform="scale(0.015625)"/></defs><use xlink:href="#DejaVuSans-4c"/><use xlink:href="#DejaVuSans-4d" x="55.713"/></g></g><g id="patch_15"><path d="M 387.041241 712.310697 L 400.921241 712.310697 L 400.921241 707.452697 L 387.041241 707.452697 z" fill="#5372ac"/></g><g id="text_40"><g transform="translate(406.473241 712.310697) scale(0.0694 -0.0694)" fill="#ffffff"><use xlink:href="#DejaVuSans-56"/><use xlink:href="#DejaVuSans-53" x="68.408"/></g></g><g id="patch_16"><path d="M 429.50645 712.310697 L 443.38645 712.310697 L 443.38645 707.452697 L 429.50645 707.452697 z" fill="#7f2dd2"/></g><g id="text_41"><g transform="translate(448.93845 712.310697) scale(0.0694 -0.0694)" fill="#ffffff"><use xlink:href="#DejaVuSans-53"/><use xlink:href="#DejaVuSans-4c" x="63.477"/></g></g><g id="patch_17"><path d="M 471.091147 712.310697 L 484.971147 712.310697 L 484.971147 707.452697 L 471.091147 707.452697 z" fill="#6ce085"/></g><g id="text_42"><g transform="translate(490.523147 712.310697) scale(0.0694 -0.0694)" fill="#ffffff"><defs><path id="DejaVuSans-47" d="M 3809 666 L 3809 1919 L 2778 1919 L 2778 2438 L 4434 2438 L 4434 434 Q 4069 175 3628 42 Q 3188 -91 2688 -91 Q 1594 -91 976 548 Q 359 1188 359 2328 Q 359 3472 976 4111 Q 1594 4750 2688 4750 Q 3144 4750 3555 4637 Q 3966 4525 4313 4306 L 4313 3634 Q 3963 3931 3569 4081 Q 3175 4231 2741 4231 Q 1884 4231 1454 3753 Q 1025 3275 1025 2328 Q 1025 1384 1454 906 Q 1884 428 2741 428 Q 3075 428 3337 486 Q 3600 544 3809 666 z" transform="scale(0.015625)"/></defs><use xlink:href="#DejaVuSans-47"/><use xlink:href="#DejaVuSans-57" x="77.49"/></g></g><g id="patch_18"><path d="M 516.642487 712.310697 L 530.522487 712.310697 L 530.522487 707.452697 L 516.642487 707.452697 z" fill="#79d2b5"/></g><g id="text_43"><g transform="translate(536.074487 712.310697) scale(0.0694 -0.0694)" fill="#ffffff"><use xlink:href="#DejaVuSans-4c"/><use xlink:href="#DejaVuSans-43" x="55.713"/></g></g><g id="patch_19"><path d="M 558.667441 712.310697 L 572.547441 712.310697 L 572.547441 707.452697 L 558.667441 707.452697 z" fill="#6ce098"/></g><g id="text_44"><g transform="translate(578.099441 712.310697) scale(0.0694 -0.0694)" fill="#ffffff"><use xlink:href="#DejaVuSans-4c"/><use xlink:href="#DejaVuSans-46" x="55.713"/></g></g><g id="patch_20"><path d="M 599.837906 712.310697 L 613.717906 712.310697 L 613.717906 707.452697 L 599.837906 707.452697 z" fill="#2dd235"/></g><g id="text_45"><g transform="translate(619.269906 712.310697) scale(0.0694 -0.0694)" fill="#ffffff"><use xlink:href="#DejaVuSans-44"/><use xlink:href="#DejaVuSans-53" x="77.002"/></g></g><g id="patch_21"><path d="M 642.899522 712.310697 L 656.779522 712.310697 L 656.779522 707.452697 L 642.899522 707.452697 z" fill="#87c5a1"/></g><g id="text_46"><g transform="translate(662.331522 712.310697) scale(0.0694 -0.0694)" fill="#ffffff"><defs><path id="DejaVuSans-41" d="M 2188 4044 L 1331 1722 L 3047 1722 L 2188 4044 z M 1831 4666 L 2547 4666 L 4325 0 L 3669 0 L 3244 1197 L 1141 1197 L 716 0 L 50 0 L 1831 4666 z" transform="scale(0.015625)"/></defs><use xlink:href="#DejaVuSans-4d"/><use xlink:href="#DejaVuSans-41" x="86.279"/></g></g><g id="patch_22"><path d="M 686.946834 712.310697 L 700.826834 712.310697 L 700.826834 707.452697 L 686.946834 707.452697 z" fill="#d279a6"/></g><g id="text_47"><g transform="translate(706.378834 712.310697) scale(0.0694 -0.0694)" fill="#ffffff"><use xlink:href="#DejaVuSans-43"/><use xlink:href="#DejaVuSans-4c" x="69.824"/></g></g><g id="patch_23"><path d="M 728.971787 712.310697 L 742.851787 712.310697 L 742.851787 707.452697 L 728.971787 707.452697 z" fill="#6ce0bd"/></g><g id="text_48"><g transform="translate(748.403787 712.310697) scale(0.0694 -0.0694)" fill="#ffffff"><use xlink:href="#DejaVuSans-53"/><use xlink:href="#DejaVuSans-48" x="63.477"/></g></g><g id="patch_24"><path d="M 771.9087 712.310697 L 785.7887 712.310697 L 785.7887 707.452697 L 771.9087 707.452697 z" fill="#2d4f86"/></g><g id="text_49"><g transform="translate(791.3407 712.310697) scale(0.0694 -0.0694)" fill="#ffffff"><defs><path id="DejaVuSans-45" d="M 628 4666 L 3578 4666 L 3578 4134 L 1259 4134 L 1259 2753 L 3481 2753 L 3481 2222 L 1259 2222 L 1259 531 L 3634 531 L 3634 0 L 628 0 L 628 4666 z" transform="scale(0.015625)"/></defs><use xlink:href="#DejaVuSans-47"/><use xlink:href="#DejaVuSans-41" x="77.49"/><use xlink:href="#DejaVuSans-54" x="138.148"/><use xlink:href="#DejaVuSans-45" x="199.232"/></g></g><g id="patch_25"><path d="M 823.431694 712.310697 L 837.311694 712.310697 L 837.311694 707.452697 L 823.431694 707.452697 z" fill="#6c75e0"/></g><g id="text_50"><g transform="translate(842.863694 712.310697) scale(0.0694 -0.0694)" fill="#ffffff"><defs><path id="DejaVuSans-4f" d="M 2522 4238 Q 1834 4238 1429 3725 Q 1025 3213 1025 2328 Q 1025 1447 1429 934 Q 1834 422 2522 422 Q 3209 422 3611 934 Q 4013 1447 4013 2328 Q 4013 3213 3611 3725 Q 3209 4238 2522 4238 z M 2522 4750 Q 3503 4750 4090 4092 Q 4678 3434 4678 2328 Q 4678 1225 4090 567 Q 3503 -91 2522 -91 Q 1538 -91 948 565 Q 359 1222 359 2328 Q 359 3434 948 4092 Q 1538 4750 2522 4750 z" transform="scale(0.015625)"/></defs><use xlink:href="#DejaVuSans-4f"/><use xlink:href="#DejaVuSans-45" x="78.711"/></g></g><g id="patch_26"><path d="M 866.591987 712.310697 L 880.471987 712.310697 L 880.471987 707.452697 L 866.591987 707.452697 z" fill="#472d86"/></g><g id="text_51"><g transform="translate(886.023987 712.310697) scale(0.0694 -0.0694)" fill="#ffffff"><use xlink:href="#DejaVuSans-48"/><use xlink:href="#DejaVuSans-52" x="75.195"/></g></g><g id="patch_27"><path d="M 909.9453 712.310697 L 923.8253 712.310697 L 923.8253 707.452697 L 909.9453 707.452697 z" fill="#40b0bf"/></g><g id="text_52"><g transform="translate(929.3773 712.310697) scale(0.0694 -0.0694)" fill="#ffffff"><use xlink:href="#DejaVuSans-44"/><use xlink:href="#DejaVuSans-4d" x="77.002"/></g></g><g id="patch_28"><path d="M 954.589019 712.310697 L 968.469019 712.310697 L 968.469019 707.452697 L 954.589019 707.452697 z" fill="#79d2b2"/></g><g id="text_53"><g transform="translate(974.021019 712.310697) scale(0.0694 -0.0694)" fill="#ffffff"><defs><path id="DejaVuSans-4e" d="M 628 4666 L 1478 4666 L 3547 763 L 3547 4666 L 4159 4666 L 4159 0 L 3309 0 L 1241 3903 L 1241 0 L 628 0 L 628 4666 z" transform="scale(0.015625)"/></defs><use xlink:href="#DejaVuSans-46"/><use xlink:href="#DejaVuSans-4e" x="57.52"/></g></g><g id="patch_29"><path d="M 997.084591 712.310697 L 1010.964591 712.310697 L 1010.964591 707.452697 L 997.084591 707.452697 z" fill="#931f3c"/></g><g id="text_54"><g transform="translate(1016.516591 712.310697) scale(0.0694 -0.0694)" fill="#ffffff"><use xlink:href="#DejaVuSans-43"/><use xlink:href="#DejaVuSans-41" x="69.824"/></g></g><g id="patch_30"><path d="M 1039.990056 712.310697 L 1053.870056 712.310697 L 1053.870056 707.452697 L 1039.990056 707.452697 z" fill="#2dd288"/></g><g id="text_55"><g transform="translate(1059.422056 712.310697) scale(0.0694 -0.0694)" fill="#ffffff"><use xlink:href="#DejaVuSans-53"/><use xlink:href="#DejaVuSans-53" x="63.477"/></g></g><g id="patch_31"><path d="M 1082.113687 712.310697 L 1095.993687 712.310697 L 1095.993687 707.452697 L 1082.113687 707.452697 z" fill="#d22dd2"/></g><g id="text_56"><g transform="translate(1101.545687 712.310697) scale(0.0694 -0.0694)" fill="#ffffff"><use xlink:href="#DejaVuSans-43"/><use xlink:href="#DejaVuSans-46" x="69.824"/></g></g><g id="patch_32"><path d="M 1124.263344 712.310697 L 1138.143344 712.310697 L 1138.143344 707.452697 L 1124.263344 707.452697 z" fill="#b9d279"/></g><g id="text_57"><g transform="translate(1143.695344 712.310697) scale(0.0694 -0.0694)" fill="#ffffff"><use xlink:href="#DejaVuSans-56"/><use xlink:href="#DejaVuSans-49" x="68.408"/></g></g><g id="patch_33"><path d="M 1164.370037 712.310697 L 1178.250037 712.310697 L 1178.250037 707.452697 L 1164.370037 707.452697 z" fill="#48783a"/></g><g id="text_58"><g transform="translate(1183.802037 712.310697) scale(0.0694 -0.0694)" fill="#ffffff"><use xlink:href="#DejaVuSans-4d"/><use xlink:href="#DejaVuSans-45" x="86.279"/></g></g><g id="patch_34"><path d="M 1208.055169 712.310697 L 1221.935169 712.310697 L 1221.935169 707.452697 L 1208.055169 707.452697 z" fill="#d279c3"/></g><g id="text_59"><g transform="translate(1227.487169 712.310697) scale(0.0694 -0.0694)" fill="#ffffff"><defs><path id="DejaVuSans-59" d="M -13 4666 L 666 4666 L 1959 2747 L 3244 4666 L 3922 4666 L 2272 2222 L 2272 0 L 1638 0 L 1638 2222 L -13 4666 z" transform="scale(0.015625)"/></defs><use xlink:href="#DejaVuSans-41"/><use xlink:href="#DejaVuSans-59" x="60.658"/></g></g><g id="patch_35"><path d="M 1249.815534 712.310697 L 1263.695534 712.310697 L 1263.695534 707.452697 L 1249.815534 707.452697 z" fill="#cae06c"/></g><g id="text_60"><g transform="translate(1269.247534 712.310697) scale(0.0694 -0.0694)" fill="#ffffff"><defs><path id="DejaVuSans-50" d="M 1259 4147 L 1259 2394 L 2053 2394 Q 2494 2394 2734 2622 Q 2975 2850 2975 3272 Q 2975 3691 2734 3919 Q 2494 4147 2053 4147 L 1259 4147 z M 628 4666 L 2053 4666 Q 2838 4666 3239 4311 Q 3641 3956 3641 3272 Q 3641 2581 3239 2228 Q 2838 1875 2053 1875 L 1259 1875 L 1259 0 L 628 0 L 628 4666 z" transform="scale(0.015625)"/></defs><use xlink:href="#DejaVuSans-46"/><use xlink:href="#DejaVuSans-50" x="57.52"/></g></g><g id="patch_36"><path d="M 1291.303722 712.310697 L 1305.183722 712.310697 L 1305.183722 707.452697 L 1291.303722 707.452697 z" fill="#c58799"/></g><g id="text_61"><g transform="translate(1310.735722 712.310697) scale(0.0694 -0.0694)" fill="#ffffff"><use xlink:href="#DejaVuSans-52"/><use xlink:href="#DejaVuSans-4d" x="69.482"/></g></g><g id="patch_37"><path d="M 1335.425856 712.310697 L 1349.305856 712.310697 L 1349.305856 707.452697 L 1335.425856 707.452697 z" fill="#72e06c"/></g><g id="text_62"><g transform="translate(1354.857856 712.310697) scale(0.0694 -0.0694)" fill="#ffffff"><use xlink:href="#DejaVuSans-55"/><use xlink:href="#DejaVuSans-47" x="73.193"/></g></g><g id="patch_38"><path d="M 1379.194484 712.310697 L 1393.074484 712.310697 L 1393.074484 707.452697 L 1379.194484 707.452697 z" fill="#d22f2d"/></g><g id="text_63"><g transform="translate(1398.626484 712.310697) scale(0.0694 -0.0694)" fill="#ffffff"><use xlink:href="#DejaVuSans-4f"/><use xlink:href="#DejaVuSans-53" x="78.711"/></g></g><g id="patch_39"><path d="M 1422.375381 712.310697 L 1436.255381 712.310697 L 1436.255381 707.452697 L 1422.375381 707.452697 z" fill="#3a7877"/></g><g id="text_64"><g transform="translate(1441.807381 712.310697) scale(0.0694 -0.0694)" fill="#ffffff"><use xlink:href="#DejaVuSans-4d"/><use xlink:href="#DejaVuSans-53" x="86.279"/></g></g><g id="patch_40"><path d="M 1466.081116 712.310697 L 1479.961116 712.310697 L 1479.961116 707.452697 L 1466.081116 707.452697 z" fill="#6b1f93"/></g><g id="text_65"><g transform="translate(1485.513116 712.310697) scale(0.0694 -0.0694)" fill="#ffffff"><use xlink:href="#DejaVuSans-50"/><use xlink:href="#DejaVuSans-41" x="53.928"/></g></g></g></g><defs><clipPath id="pb647229ef0"><rect x="49.128" y="18.118" width="1525.509" height="650.256"/></clipPath></defs></svg>