<svg xmlns:xlink="http://www.w3.org/1999/xlink" width="703.68" height="607.68" viewBox="0 0 527.76 455.76" xmlns="http://www.w3.org/2000/svg" version="1.1"><metadata><rdf:RDF xmlns:dc="http://purl.org/dc/elements/1.1/" xmlns:cc="http://creativecommons.org/ns#" xmlns:rdf="http://www.w3.org/1999/02/22-rdf-syntax-ns#"><cc:Work><dc:type rdf:resource="http://purl.org/dc/dcmitype/StillImage"/><dc:format>image/svg+xml</dc:format><dc:creator><cc:Agent><dc:title>Matplotlib v3.7.1, https://matplotlib.org/</dc:title></cc:Agent></dc:creator></cc:Work></rdf:RDF></metadata><defs><style type="text/css">*{stroke-linejoin:round;stroke-linecap:butt}</style></defs><g id="figure_1"><g id="patch_1"><path d="M 0 455.76 L 527.76 455.76 L 527.76 0 L 0 0 z"/></g><g id="axes_1"><g id="patch_2"><path d="M 492.73596 230.1588 C 492.73596 199.952267 486.578044 170.060391 474.639235 142.313328 C 462.700427 114.566265 445.229456 89.54209 423.295997 68.772929 L 270.477 230.1588 z" fill="#ac5953"/></g><g id="patch_3"><path d="M 423.295997 68.772929 C 416.288894 62.137785 408.857094 55.966034 401.047791 50.29687 C 393.238489 44.627706 385.068251 39.473155 376.588964 34.865952 L 270.477 230.1588 z" fill="#a840bf"/></g><g id="patch_4"><path d="M 376.588964 34.865952 C 352.706461 21.889444 326.644926 13.403239 299.700691 9.829453 C 272.756456 6.255667 245.383799 7.654552 218.944267 13.956527 L 270.477 230.1588 z" fill="#651f93"/></g><g id="patch_5"><path d="M 218.944267 13.956527 C 197.568048 19.05164 177.065174 27.288943 158.105641 38.399255 C 139.146109 49.509567 121.938711 63.370536 107.045754 79.52921 L 270.477 230.1588 z" fill="#862d36"/></g><g id="patch_6"><path d="M 107.045754 79.52921 C 86.900927 101.3861 71.343913 127.063716 61.297558 155.038855 C 51.251203 183.013994 46.918165 212.722334 48.555482 242.401567 L 270.477 230.1588 z" fill="#1f937c"/></g><g id="patch_7"><path d="M 48.555482 242.401567 C 49.999777 268.581925 56.065537 294.301351 66.471699 318.368111 C 76.877862 342.434871 91.461179 364.471414 109.545918 383.456654 L 270.477 230.1588 z" fill="#2dbfd2"/></g><g id="patch_8"><path d="M 109.545918 383.456654 C 114.026578 388.160421 118.71131 392.665484 123.586618 396.958863 C 128.461927 401.252242 133.523125 405.329811 138.755634 409.179824 L 270.477 230.1588 z" fill="#1f9327"/></g><g id="patch_9"><path d="M 138.755634 409.179824 C 143.426097 412.616291 148.229254 415.868671 153.154076 418.929499 C 158.078898 421.990326 163.121615 424.857257 168.270651 427.52371 L 270.477 230.1588 z" fill="#5372ac"/></g><g id="patch_10"><path d="M 168.270651 427.52371 C 174.080497 430.532366 180.02036 433.283018 186.072882 435.767628 C 192.125405 438.252239 198.284687 440.468385 204.53273 442.409592 L 270.477 230.1588 z" fill="#7f2dd2"/></g><g id="patch_11"><path d="M 204.53273 442.409592 C 220.118415 447.251913 236.190154 450.36284 252.457014 451.686057 C 268.723875 453.009273 285.087107 452.536748 301.250503 450.277034 L 270.477 230.1588 z" fill="#6ce085"/></g><g id="patch_12"><path d="M 301.250503 450.277034 C 312.425313 448.714746 323.464947 446.303751 334.27362 443.064968 C 345.082293 439.826186 355.628654 435.769009 365.821199 430.928641 L 270.477 230.1588 z" fill="#79d2b5"/></g><g id="patch_13"><path d="M 365.821199 430.928641 C 375.380736 426.388883 384.603841 421.172159 393.420101 415.318297 C 402.236361 409.464434 410.623282 402.988367 418.516833 395.939538 L 270.477 230.1588 z" fill="#6ce098"/></g><g id="patch_14"><path d="M 418.516833 395.939538 C 421.346399 393.412776 424.11081 390.813986 426.807349 388.145721 C 429.503889 385.477456 432.131673 382.740591 434.688119 379.937816 L 270.477 230.1588 z" fill="#2dd235"/></g><g id="patch_15"><path d="M 434.688119 379.937816 C 434.713104 379.910423 434.738083 379.883024 434.763054 379.855619 C 434.788026 379.828214 434.812991 379.800802 434.837948 379.773385 L 270.477 230.1588 z" fill="#87c5a1"/></g><g id="patch_16"><path d="M 434.837948 379.773385 C 435.574208 378.964557 436.304488 378.150306 437.028727 377.330698 C 437.752966 376.511089 438.471146 375.686146 439.183207 374.855936 L 270.477 230.1588 z" fill="#d279a6"/></g><g id="patch_17"><path d="M 439.183207 374.855936 C 445.748133 367.201715 451.784546 359.109583 457.250594 350.635643 C 462.716643 342.161703 467.599665 333.325585 471.865806 324.188552 L 270.477 230.1588 z" fill="#6ce0bd"/></g><g id="patch_18"><path d="M 471.865806 324.188552 C 472.13344 323.615344 472.398626 323.040996 472.661356 322.465524 C 472.924086 321.890053 473.184358 321.313462 473.442165 320.735767 L 270.477 230.1588 z" fill="#2d4f86"/></g><g id="patch_19"><path d="M 473.442165 320.735767 C 474.973032 317.305397 476.416686 313.836767 477.771736 310.333221 C 479.126786 306.829675 480.392797 303.292339 481.568548 299.724622 L 270.477 230.1588 z" fill="#6c75e0"/></g><g id="patch_20"><path d="M 481.568548 299.724622 C 481.925391 298.641814 482.273896 297.556277 482.614034 296.468106 C 482.954172 295.379936 483.285932 294.289164 483.609285 293.195888 L 270.477 230.1588 z" fill="#472d86"/></g><g id="patch_21"><path d="M 483.609285 293.195888 C 484.572809 289.938155 485.461514 286.658759 486.2747 283.360285 C 487.087886 280.061811 487.82534 276.745126 488.486479 273.412844 L 270.477 230.1588 z" fill="#40b0bf"/></g><g id="patch_22"><path d="M 488.486479 273.412844 C 488.49144 273.387842 488.496396 273.362839 488.501348 273.337835 C 488.5063 273.312831 488.511248 273.287826 488.516191 273.26282 L 270.477 230.1588 z" fill="#79d2b2"/></g><g id="patch_23"><path d="M 488.516191 273.26282 C 488.527875 273.203715 488.539536 273.144606 488.551172 273.085492 C 488.562808 273.026378 488.57442 272.967259 488.586009 272.908136 L 270.477 230.1588 z" fill="#931f3c"/></g><g id="patch_24"><path d="M 488.586009 272.908136 C 489.099915 270.286164 489.566499 267.655139 489.985535 265.016344 C 490.404571 262.377548 490.77599 259.731411 491.09961 257.079223 L 270.477 230.1588 z" fill="#2dd288"/></g><g id="patch_25"><path d="M 491.09961 257.079223 C 491.134133 256.7963 491.168111 256.51331 491.201544 256.230257 C 491.234978 255.947203 491.267867 255.664085 491.300212 255.380904 L 270.477 230.1588 z" fill="#d22dd2"/></g><g id="patch_26"><path d="M 491.300212 255.380904 C 491.317041 255.233558 491.333723 255.086196 491.350258 254.938816 C 491.366793 254.791437 491.38318 254.644041 491.399419 254.496629 L 270.477 230.1588 z" fill="#b9d279"/></g><g id="patch_27"><path d="M 491.399419 254.496629 C 491.407032 254.42753 491.414612 254.358427 491.422159 254.28932 C 491.429706 254.220214 491.437222 254.151104 491.444704 254.08199 L 270.477 230.1588 z" fill="#48783a"/></g><g id="patch_28"><path d="M 491.444704 254.08199 C 491.450441 254.029003 491.456158 253.976014 491.461857 253.923023 C 491.467556 253.870032 491.473235 253.817038 491.478895 253.764043 L 270.477 230.1588 z" fill="#d279c3"/></g><g id="patch_29"><path d="M 491.478895 253.764043 C 491.479142 253.761739 491.479388 253.759435 491.479634 253.757131 C 491.47988 253.754827 491.480126 253.752522 491.480372 253.750218 L 270.477 230.1588 z" fill="#cae06c"/></g><g id="patch_30"><path d="M 491.480372 253.750218 C 491.623276 252.411494 491.754014 251.071498 491.872569 249.730398 C 491.991123 248.389297 492.09749 247.047147 492.191656 245.704114 L 270.477 230.1588 z" fill="#c58799"/></g><g id="patch_31"><path d="M 492.191656 245.704114 C 492.246275 244.925112 492.296788 244.145827 492.343193 243.366293 C 492.389598 242.586758 492.431894 241.806985 492.47008 241.027005 L 270.477 230.1588 z" fill="#72e06c"/></g><g id="patch_32"><path d="M 492.47008 241.027005 C 492.478011 240.864991 492.485766 240.702969 492.493343 240.540939 C 492.50092 240.378909 492.50832 240.21687 492.515542 240.054823 L 270.477 230.1588 z" fill="#d22f2d"/></g><g id="patch_33"><path d="M 492.515542 240.054823 C 492.564447 238.957532 492.605217 237.859893 492.63785 236.761997 C 492.670482 235.664102 492.694975 234.565979 492.711328 233.46772 L 270.477 230.1588 z" fill="#3a7877"/></g><g id="patch_34"><path d="M 492.711328 233.46772 C 492.718814 232.964933 492.724594 232.462121 492.728667 231.959294 C 492.732741 231.456467 492.735108 230.953628 492.735768 230.450785 L 270.477 230.1588 z" fill="#6b1f93"/></g><g id="patch_35"><path d="M 492.735768 230.450785 C 492.735774 230.446151 492.73578 230.441516 492.735786 230.436882 C 492.735792 230.432247 492.735797 230.427613 492.735803 230.422978 L 270.477 230.1588 z" fill="#9587c5"/></g><g id="patch_36"><path d="M 492.735803 230.422978 C 492.735806 230.420661 492.735808 230.418344 492.735811 230.416026 C 492.735814 230.413709 492.735816 230.411392 492.735819 230.409075 L 270.477 230.1588 z" fill="#1f3693"/></g><g id="patch_37"><path d="M 492.735819 230.409075 C 492.735861 230.371999 492.735893 230.334923 492.735917 230.297847 C 492.73594 230.260771 492.735954 230.223695 492.735958 230.186619 L 270.477 230.1588 z" fill="#1f4e93"/></g><g id="patch_38"><path d="M 492.735958 230.186619 C 492.735959 230.184302 492.735959 230.181984 492.735959 230.179667 C 492.735959 230.17735 492.735959 230.175033 492.73596 230.172715 L 270.477 230.1588 z" fill="#40bf90"/></g><g id="patch_39"><path d="M 492.73596 230.172715 C 492.73596 230.170398 492.73596 230.168081 492.73596 230.165764 C 492.73596 230.163446 492.73596 230.161129 492.73596 230.158812 L 270.477 230.1588 z" fill="#85d279"/></g><g id="text_1"><g transform="translate(217.033875 20.616384) scale(0.12 -0.12)" fill="#ffffff"><defs><path id="DejaVuSans-52" d="M 2841 2188 Q 3044 2119 3236 1894 Q 3428 1669 3622 1275 L 4263 0 L 3584 0 L 2988 1197 Q 2756 1666 2539 1819 Q 2322 1972 1947 1972 L 1259 1972 L 1259 0 L 628 0 L 628 4666 L 2053 4666 Q 2853 4666 3247 4331 Q 3641 3997 3641 3322 Q 3641 2881 3436 2590 Q 3231 2300 2841 2188 z M 1259 4147 L 1259 2491 L 2053 2491 Q 2509 2491 2742 2702 Q 2975 2913 2975 3322 Q 2975 3731 2742 3939 Q 2509 4147 2053 4147 L 1259 4147 z" transform="scale(0.015625)"/><path id="DejaVuSans-65" d="M 3597 1894 L 3597 1613 L 953 1613 Q 991 1019 1311 708 Q 1631 397 2203 397 Q 2534 397 2845 478 Q 3156 559 3463 722 L 3463 178 Q 3153 47 2828 -22 Q 2503 -91 2169 -91 Q 1331 -91 842 396 Q 353 884 353 1716 Q 353 2575 817 3079 Q 1281 3584 2069 3584 Q 2775 3584 3186 3129 Q 3597 2675 3597 1894 z M 3022 2063 Q 3016 2534 2758 2815 Q 2500 3097 2075 3097 Q 1594 3097 1305 2825 Q 1016 2553 972 2059 L 3022 2063 z" transform="scale(0.015625)"/><path id="DejaVuSans-67" d="M 2906 1791 Q 2906 2416 2648 2759 Q 2391 3103 1925 3103 Q 1463 3103 1205 2759 Q 947 2416 947 1791 Q 947 1169 1205 825 Q 1463 481 1925 481 Q 2391 481 2648 825 Q 2906 1169 2906 1791 z M 3481 434 Q 3481 -459 3084 -895 Q 2688 -1331 1869 -1331 Q 1566 -1331 1297 -1286 Q 1028 -1241 775 -1147 L 775 -588 Q 1028 -725 1275 -790 Q 1522 -856 1778 -856 Q 2344 -856 2625 -561 Q 2906 -266 2906 331 L 2906 616 Q 2728 306 2450 153 Q 2172 0 1784 0 Q 1141 0 747 490 Q 353 981 353 1791 Q 353 2603 747 3093 Q 1141 3584 1784 3584 Q 2172 3584 2450 3431 Q 2728 3278 2906 2969 L 2906 3500 L 3481 3500 L 3481 434 z" transform="scale(0.015625)"/><path id="DejaVuSans-69" d="M 603 3500 L 1178 3500 L 1178 0 L 603 0 L 603 3500 z M 603 4863 L 1178 4863 L 1178 4134 L 603 4134 L 603 4863 z" transform="scale(0.015625)"/><path id="DejaVuSans-6f" d="M 1959 3097 Q 1497 3097 1228 2736 Q 959 2375 959 1747 Q 959 1119 1226 758 Q 1494 397 1959 397 Q 2419 397 2687 759 Q 2956 1122 2956 1747 Q 2956 2369 2687 2733 Q 2419 3097 1959 3097 z M 1959 3584 Q 2709 3584 3137 3096 Q 3566 2609 3566 1747 Q 3566 888 3137 398 Q 2709 -91 1959 -91 Q 1206 -91 779 398 Q 353 888 353 1747 Q 353 2609 779 3096 Q 1206 3584 1959 3584 z" transform="scale(0.015625)"/><path id="DejaVuSans-6e" d="M 3513 2113 L 3513 0 L 2938 0 L 2938 2094 Q 2938 2591 2744 2837 Q 2550 3084 2163 3084 Q 1697 3084 1428 2787 Q 1159 2491 1159 1978 L 1159 0 L 581 0 L 581 3500 L 1159 3500 L 1159 2956 Q 1366 3272 1645 3428 Q 1925 3584 2291 3584 Q 2894 3584 3203 3211 Q 3513 2838 3513 2113 z" transform="scale(0.015625)"/><path id="DejaVuSans-20" transform="scale(0.015625)"/><path id="DejaVuSans-46" d="M 628 4666 L 3309 4666 L 3309 4134 L 1259 4134 L 1259 2759 L 3109 2759 L 3109 2228 L 1259 2228 L 1259 0 L 628 0 L 628 4666 z" transform="scale(0.015625)"/><path id="DejaVuSans-72" d="M 2631 2963 Q 2534 3019 2420 3045 Q 2306 3072 2169 3072 Q 1681 3072 1420 2755 Q 1159 2438 1159 1844 L 1159 0 L 581 0 L 581 3500 L 1159 3500 L 1159 2956 Q 1341 3275 1631 3429 Q 1922 3584 2338 3584 Q 2397 3584 2469 3576 Q 2541 3569 2628 3553 L 2631 2963 z" transform="scale(0.015625)"/><path id="DejaVuSans-71" d="M 947 1747 Q 947 1113 1208 752 Q 1469 391 1925 391 Q 2381 391 2643 752 Q 2906 1113 2906 1747 Q 2906 2381 2643 2742 Q 2381 3103 1925 3103 Q 1469 3103 1208 2742 Q 947 2381 947 1747 z M 2906 525 Q 2725 213 2448 61 Q 2172 -91 1784 -91 Q 1150 -91 751 415 Q 353 922 353 1747 Q 353 2572 751 3078 Q 1150 3584 1784 3584 Q 2172 3584 2448 3432 Q 2725 3281 2906 2969 L 2906 3500 L 3481 3500 L 3481 -1331 L 2906 -1331 L 2906 525 z" transform="scale(0.015625)"/><path id="DejaVuSans-75" d="M 544 1381 L 544 3500 L 1119 3500 L 1119 1403 Q 1119 906 1312 657 Q 1506 409 1894 409 Q 2359 409 2629 706 Q 2900 1003 2900 1516 L 2900 3500 L 3475 3500 L 3475 0 L 2900 0 L 2900 538 Q 2691 219 2414 64 Q 2138 -91 1772 -91 Q 1169 -91 856 284 Q 544 659 544 1381 z M 1991 3584 L 1991 3584 z" transform="scale(0.015625)"/><path id="DejaVuSans-63" d="M 3122 3366 L 3122 2828 Q 2878 2963 2633 3030 Q 2388 3097 2138 3097 Q 1578 3097 1268 2742 Q 959 2388 959 1747 Q 959 1106 1268 751 Q 1578 397 2138 397 Q 2388 397 2633 464 Q 2878 531 3122 666 L 3122 134 Q 2881 22 2623 -34 Q 2366 -91 2075 -91 Q 1284 -91 818 406 Q 353 903 353 1747 Q 353 2603 823 3093 Q 1294 3584 2113 3584 Q 2378 3584 2631 3529 Q 2884 3475 3122 3366 z" transform="scale(0.015625)"/><path id="DejaVuSans-79" d="M 2059 -325 Q 1816 -950 1584 -1140 Q 1353 -1331 966 -1331 L 506 -1331 L 506 -850 L 844 -850 Q 1081 -850 1212 -737 Q 1344 -625 1503 -206 L 1606 56 L 191 3500 L 800 3500 L 1894 763 L 2988 3500 L 3597 3500 L 2059 -325 z" transform="scale(0.015625)"/></defs><use xlink:href="#DejaVuSans-52"/><use xlink:href="#DejaVuSans-65" x="64.982"/><use xlink:href="#DejaVuSans-67" x="126.506"/><use xlink:href="#DejaVuSans-69" x="189.982"/><use xlink:href="#DejaVuSans-6f" x="217.766"/><use xlink:href="#DejaVuSans-6e" x="278.947"/><use xlink:href="#DejaVuSans-20" x="342.326"/><use xlink:href="#DejaVuSans-46" x="374.113"/><use xlink:href="#DejaVuSans-72" x="424.383"/><use xlink:href="#DejaVuSans-65" x="463.246"/><use xlink:href="#DejaVuSans-71" x="524.77"/><use xlink:href="#DejaVuSans-75" x="588.246"/><use xlink:href="#DejaVuSans-65" x="651.625"/><use xlink:href="#DejaVuSans-6e" x="713.148"/><use xlink:href="#DejaVuSans-63" x="776.527"/><use xlink:href="#DejaVuSans-79" x="831.508"/></g></g></g><g id="legend_1"><g id="patch_40"><path d="M 4.858 392.643512 L 45.276994 392.643512 Q 46.664994 392.643512 46.664994 391.255512 L 46.664994 4.858 Q 46.664994 3.47 45.276994 3.47 L 4.858 3.47 Q 3.47 3.47 3.47 4.858 L 3.47 391.255512 Q 3.47 392.643512 4.858 392.643512 z" opacity="0.8" stroke="#cccccc" stroke-linejoin="miter"/></g><g id="patch_41"><path d="M 6.246 11.519316 L 20.126 11.519316 L 20.126 6.661316 L 6.246 6.661316 z" fill="#ac5953"/></g><g id="text_2"><g transform="translate(25.678 11.519316) scale(0.0694 -0.0694)" fill="#ffffff"><defs><path id="DejaVuSans-53" d="M 3425 4513 L 3425 3897 Q 3066 4069 2747 4153 Q 2428 4238 2131 4238 Q 1616 4238 1336 4038 Q 1056 3838 1056 3469 Q 1056 3159 1242 3001 Q 1428 2844 1947 2747 L 2328 2669 Q 3034 2534 3370 2195 Q 3706 1856 3706 1288 Q 3706 609 3251 259 Q 2797 -91 1919 -91 Q 1588 -91 1214 -16 Q 841 59 441 206 L 441 856 Q 825 641 1194 531 Q 1563 422 1919 422 Q 2459 422 2753 634 Q 3047 847 3047 1241 Q 3047 1584 2836 1778 Q 2625 1972 2144 2069 L 1759 2144 Q 1053 2284 737 2584 Q 422 2884 422 3419 Q 422 4038 858 4394 Q 1294 4750 2059 4750 Q 2388 4750 2728 4690 Q 3069 4631 3425 4513 z" transform="scale(0.015625)"/><path id="DejaVuSans-55" d="M 556 4666 L 1191 4666 L 1191 1831 Q 1191 1081 1462 751 Q 1734 422 2344 422 Q 2950 422 3222 751 Q 3494 1081 3494 1831 L 3494 4666 L 4128 4666 L 4128 1753 Q 4128 841 3676 375 Q 3225 -91 2344 -91 Q 1459 -91 1007 375 Q 556 841 556 1753 L 556 4666 z" transform="scale(0.015625)"/></defs><use xlink:href="#DejaVuSans-53"/><use xlink:href="#DejaVuSans-55" x="63.477"/></g></g><g id="patch_42"><path d="M 6.246 21.705934 L 20.126 21.705934 L 20.126 16.847934 L 6.246 16.847934 z" fill="#a840bf"/></g><g id="text_3"><g transform="translate(25.678 21.705934) scale(0.0694 -0.0694)" fill="#ffffff"><defs><path id="DejaVuSans-42" d="M 1259 2228 L 1259 519 L 2272 519 Q 2781 519 3026 730 Q 3272 941 3272 1375 Q 3272 1813 3026 2020 Q 2781 2228 2272 2228 L 1259 2228 z M 1259 4147 L 1259 2741 L 2194 2741 Q 2656 2741 2882 2914 Q 3109 3088 3109 3444 Q 3109 3797 2882 3972 Q 2656 4147 2194 4147 L 1259 4147 z M 628 4666 L 2241 4666 Q 2963 4666 3353 4366 Q 3744 4066 3744 3513 Q 3744 3084 3544 2831 Q 3344 2578 2956 2516 Q 3422 2416 3680 2098 Q 3938 1781 3938 1306 Q 3938 681 3513 340 Q 3088 0 2303 0 L 628 0 L 628 4666 z" transform="scale(0.015625)"/></defs><use xlink:href="#DejaVuSans-53"/><use xlink:href="#DejaVuSans-42" x="63.477"/></g></g><g id="patch_43"><path d="M 6.246 31.892553 L 20.126 31.892553 L 20.126 27.034553 L 6.246 27.034553 z" fill="#651f93"/></g><g id="text_4"><g transform="translate(25.678 31.892553) scale(0.0694 -0.0694)" fill="#ffffff"><defs><path id="DejaVuSans-48" d="M 628 4666 L 1259 4666 L 1259 2753 L 3553 2753 L 3553 4666 L 4184 4666 L 4184 0 L 3553 0 L 3553 2222 L 1259 2222 L 1259 0 L 628 0 L 628 4666 z" transform="scale(0.015625)"/><path id="DejaVuSans-49" d="M 628 4666 L 1259 4666 L 1259 0 L 628 0 L 628 4666 z" transform="scale(0.015625)"/></defs><use xlink:href="#DejaVuSans-48"/><use xlink:href="#DejaVuSans-49" x="75.195"/></g></g><g id="patch_44"><path d="M 6.246 42.079172 L 20.126 42.079172 L 20.126 37.221172 L 6.246 37.221172 z" fill="#862d36"/></g><g id="text_5"><g transform="translate(25.678 42.079172) scale(0.0694 -0.0694)" fill="#ffffff"><use xlink:href="#DejaVuSans-53"/><use xlink:href="#DejaVuSans-49" x="63.477"/></g></g><g id="patch_45"><path d="M 6.246 52.265791 L 20.126 52.265791 L 20.126 47.407791 L 6.246 47.407791 z" fill="#1f937c"/></g><g id="text_6"><g transform="translate(25.678 52.265791) scale(0.0694 -0.0694)" fill="#ffffff"><defs><path id="DejaVuSans-43" d="M 4122 4306 L 4122 3641 Q 3803 3938 3442 4084 Q 3081 4231 2675 4231 Q 1875 4231 1450 3742 Q 1025 3253 1025 2328 Q 1025 1406 1450 917 Q 1875 428 2675 428 Q 3081 428 3442 575 Q 3803 722 4122 1019 L 4122 359 Q 3791 134 3420 21 Q 3050 -91 2638 -91 Q 1578 -91 968 557 Q 359 1206 359 2328 Q 359 3453 968 4101 Q 1578 4750 2638 4750 Q 3056 4750 3426 4639 Q 3797 4528 4122 4306 z" transform="scale(0.015625)"/></defs><use xlink:href="#DejaVuSans-43"/><use xlink:href="#DejaVuSans-43" x="69.824"/></g></g><g id="patch_46"><path d="M 6.246 62.452409 L 20.126 62.452409 L 20.126 57.594409 L 6.246 57.594409 z" fill="#2dbfd2"/></g><g id="text_7"><g transform="translate(25.678 62.452409) scale(0.0694 -0.0694)" fill="#ffffff"><defs><path id="DejaVuSans-57" d="M 213 4666 L 850 4666 L 1831 722 L 2809 4666 L 3519 4666 L 4500 722 L 5478 4666 L 6119 4666 L 4947 0 L 4153 0 L 3169 4050 L 2175 0 L 1381 0 L 213 4666 z" transform="scale(0.015625)"/></defs><use xlink:href="#DejaVuSans-55"/><use xlink:href="#DejaVuSans-57" x="73.193"/></g></g><g id="patch_47"><path d="M 6.246 72.639028 L 20.126 72.639028 L 20.126 67.781028 L 6.246 67.781028 z" fill="#1f9327"/></g><g id="text_8"><g transform="translate(25.678 72.639028) scale(0.0694 -0.0694)" fill="#ffffff"><defs><path id="DejaVuSans-4c" d="M 628 4666 L 1259 4666 L 1259 531 L 3531 531 L 3531 0 L 628 0 L 628 4666 z" transform="scale(0.015625)"/><path id="DejaVuSans-4d" d="M 628 4666 L 1569 4666 L 2759 1491 L 3956 4666 L 4897 4666 L 4897 0 L 4281 0 L 4281 4097 L 3078 897 L 2444 897 L 1241 4097 L 1241 0 L 628 0 L 628 4666 z" transform="scale(0.015625)"/></defs><use xlink:href="#DejaVuSans-4c"/><use xlink:href="#DejaVuSans-4d" x="55.713"/></g></g><g id="patch_48"><path d="M 6.246 82.825647 L 20.126 82.825647 L 20.126 77.967647 L 6.246 77.967647 z" fill="#5372ac"/></g><g id="text_9"><g transform="translate(25.678 82.825647) scale(0.0694 -0.0694)" fill="#ffffff"><defs><path id="DejaVuSans-56" d="M 1831 0 L 50 4666 L 709 4666 L 2188 738 L 3669 4666 L 4325 4666 L 2547 0 L 1831 0 z" transform="scale(0.015625)"/></defs><use xlink:href="#DejaVuSans-56"/><use xlink:href="#DejaVuSans-53" x="68.408"/></g></g><g id="patch_49"><path d="M 6.246 93.012266 L 20.126 93.012266 L 20.126 88.154266 L 6.246 88.154266 z" fill="#7f2dd2"/></g><g id="text_10"><g transform="translate(25.678 93.012266) scale(0.0694 -0.0694)" fill="#ffffff"><use xlink:href="#DejaVuSans-53"/><use xlink:href="#DejaVuSans-4c" x="63.477"/></g></g><g id="patch_50"><path d="M 6.246 103.198884 L 20.126 103.198884 L 20.126 98.340884 L 6.246 98.340884 z" fill="#6ce085"/></g><g id="text_11"><g transform="translate(25.678 103.198884) scale(0.0694 -0.0694)" fill="#ffffff"><defs><path id="DejaVuSans-47" d="M 3809 666 L 3809 1919 L 2778 1919 L 2778 2438 L 4434 2438 L 4434 434 Q 4069 175 3628 42 Q 3188 -91 2688 -91 Q 1594 -91 976 548 Q 359 1188 359 2328 Q 359 3472 976 4111 Q 1594 4750 2688 4750 Q 3144 4750 3555 4637 Q 3966 4525 4313 4306 L 4313 3634 Q 3963 3931 3569 4081 Q 3175 4231 2741 4231 Q 1884 4231 1454 3753 Q 1025 3275 1025 2328 Q 1025 1384 1454 906 Q 1884 428 2741 428 Q 3075 428 3337 486 Q 3600 544 3809 666 z" transform="scale(0.015625)"/></defs><use xlink:href="#DejaVuSans-47"/><use xlink:href="#DejaVuSans-57" x="77.49"/></g></g><g id="patch_51"><path d="M 6.246 113.385503 L 20.126 113.385503 L 20.126 108.527503 L 6.246 108.527503 z" fill="#79d2b5"/></g><g id="text_12"><g transform="translate(25.678 113.385503) scale(0.0694 -0.0694)" fill="#ffffff"><use xlink:href="#DejaVuSans-4c"/><use xlink:href="#DejaVuSans-43" x="55.713"/></g></g><g id="patch_52"><path d="M 6.246 123.572122 L 20.126 123.572122 L 20.126 118.714122 L 6.246 118.714122 z" fill="#6ce098"/></g><g id="text_13"><g transform="translate(25.678 123.572122) scale(0.0694 -0.0694)" fill="#ffffff"><use xlink:href="#DejaVuSans-4c"/><use xlink:href="#DejaVuSans-46" x="55.713"/></g></g><g id="patch_53"><path d="M 6.246 133.758741 L 20.126 133.758741 L 20.126 128.900741 L 6.246 128.900741 z" fill="#2dd235"/></g><g id="text_14"><g transform="translate(25.678 133.758741) scale(0.0694 -0.0694)" fill="#ffffff"><defs><path id="DejaVuSans-44" d="M 1259 4147 L 1259 519 L 2022 519 Q 2988 519 3436 956 Q 3884 1394 3884 2338 Q 3884 3275 3436 3711 Q 2988 4147 2022 4147 L 1259 4147 z M 628 4666 L 1925 4666 Q 3281 4666 3915 4102 Q 4550 3538 4550 2338 Q 4550 1131 3912 565 Q 3275 0 1925 0 L 628 0 L 628 4666 z" transform="scale(0.015625)"/></defs><use xlink:href="#DejaVuSans-44"/><use xlink:href="#DejaVuSans-53" x="77.002"/></g></g><g id="patch_54"><path d="M 6.246 143.945359 L 20.126 143.945359 L 20.126 139.087359 L 6.246 139.087359 z" fill="#87c5a1"/></g><g id="text_15"><g transform="translate(25.678 143.945359) scale(0.0694 -0.0694)" fill="#ffffff"><defs><path id="DejaVuSans-41" d="M 2188 4044 L 1331 1722 L 3047 1722 L 2188 4044 z M 1831 4666 L 2547 4666 L 4325 0 L 3669 0 L 3244 1197 L 1141 1197 L 716 0 L 50 0 L 1831 4666 z" transform="scale(0.015625)"/></defs><use xlink:href="#DejaVuSans-4d"/><use xlink:href="#DejaVuSans-41" x="86.279"/></g></g><g id="patch_55"><path d="M 6.246 154.131978 L 20.126 154.131978 L 20.126 149.273978 L 6.246 149.273978 z" fill="#d279a6"/></g><g id="text_16"><g transform="translate(25.678 154.131978) scale(0.0694 -0.0694)" fill="#ffffff"><use xlink:href="#DejaVuSans-43"/><use xlink:href="#DejaVuSans-4c" x="69.824"/></g></g><g id="patch_56"><path d="M 6.246 164.318597 L 20.126 164.318597 L 20.126 159.460597 L 6.246 159.460597 z" fill="#6ce0bd"/></g><g id="text_17"><g transform="translate(25.678 164.318597) scale(0.0694 -0.0694)" fill="#ffffff"><use xlink:href="#DejaVuSans-53"/><use xlink:href="#DejaVuSans-48" x="63.477"/></g></g><g id="patch_57"><path d="M 6.246 174.505216 L 20.126 174.505216 L 20.126 169.647216 L 6.246 169.647216 z" fill="#2d4f86"/></g><g id="text_18"><g transform="translate(25.678 174.505216) scale(0.0694 -0.0694)" fill="#ffffff"><defs><path id="DejaVuSans-54" d="M -19 4666 L 3928 4666 L 3928 4134 L 2272 4134 L 2272 0 L 1638 0 L 1638 4134 L -19 4134 L -19 4666 z" transform="scale(0.015625)"/><path id="DejaVuSans-45" d="M 628 4666 L 3578 4666 L 3578 4134 L 1259 4134 L 1259 2753 L 3481 2753 L 3481 2222 L 1259 2222 L 1259 531 L 3634 531 L 3634 0 L 628 0 L 628 4666 z" transform="scale(0.015625)"/></defs><use xlink:href="#DejaVuSans-47"/><use xlink:href="#DejaVuSans-41" x="77.49"/><use xlink:href="#DejaVuSans-54" x="138.148"/><use xlink:href="#DejaVuSans-45" x="199.232"/></g></g><g id="patch_58"><path d="M 6.246 184.691834 L 20.126 184.691834 L 20.126 179.833834 L 6.246 179.833834 z" fill="#6c75e0"/></g><g id="text_19"><g transform="translate(25.678 184.691834) scale(0.0694 -0.0694)" fill="#ffffff"><defs><path id="DejaVuSans-4f" d="M 2522 4238 Q 1834 4238 1429 3725 Q 1025 3213 1025 2328 Q 1025 1447 1429 934 Q 1834 422 2522 422 Q 3209 422 3611 934 Q 4013 1447 4013 2328 Q 4013 3213 3611 3725 Q 3209 4238 2522 4238 z M 2522 4750 Q 3503 4750 4090 4092 Q 4678 3434 4678 2328 Q 4678 1225 4090 567 Q 3503 -91 2522 -91 Q 1538 -91 948 565 Q 359 1222 359 2328 Q 359 3434 948 4092 Q 1538 4750 2522 4750 z" transform="scale(0.015625)"/></defs><use xlink:href="#DejaVuSans-4f"/><use xlink:href="#DejaVuSans-45" x="78.711"/></g></g><g id="patch_59"><path d="M 6.246 194.878453 L 20.126 194.878453 L 20.126 190.020453 L 6.246 190.020453 z" fill="#472d86"/></g><g id="text_20"><g transform="translate(25.678 194.878453) scale(0.0694 -0.0694)" fill="#ffffff"><use xlink:href="#DejaVuSans-48"/><use xlink:href="#DejaVuSans-52" x="75.195"/></g></g><g id="patch_60"><path d="M 6.246 205.065072 L 20.126 205.065072 L 20.126 200.207072 L 6.246 200.207072 z" fill="#40b0bf"/></g><g id="text_21"><g transform="translate(25.678 205.065072) scale(0.0694 -0.0694)" fill="#ffffff"><use xlink:href="#DejaVuSans-44"/><use xlink:href="#DejaVuSans-4d" x="77.002"/></g></g><g id="patch_61"><path d="M 6.246 215.251691 L 20.126 215.251691 L 20.126 210.393691 L 6.246 210.393691 z" fill="#79d2b2"/></g><g id="text_22"><g transform="translate(25.678 215.251691) scale(0.0694 -0.0694)" fill="#ffffff"><defs><path id="DejaVuSans-4e" d="M 628 4666 L 1478 4666 L 3547 763 L 3547 4666 L 4159 4666 L 4159 0 L 3309 0 L 1241 3903 L 1241 0 L 628 0 L 628 4666 z" transform="scale(0.015625)"/></defs><use xlink:href="#DejaVuSans-46"/><use xlink:href="#DejaVuSans-4e" x="57.52"/></g></g><g id="patch_62"><path d="M 6.246 225.438309 L 20.126 225.438309 L 20.126 220.580309 L 6.246 220.580309 z" fill="#931f3c"/></g><g id="text_23"><g transform="translate(25.678 225.438309) scale(0.0694 -0.0694)" fill="#ffffff"><use xlink:href="#DejaVuSans-43"/><use xlink:href="#DejaVuSans-41" x="69.824"/></g></g><g id="patch_63"><path d="M 6.246 235.624928 L 20.126 235.624928 L 20.126 230.766928 L 6.246 230.766928 z" fill="#2dd288"/></g><g id="text_24"><g transform="translate(25.678 235.624928) scale(0.0694 -0.0694)" fill="#ffffff"><use xlink:href="#DejaVuSans-53"/><use xlink:href="#DejaVuSans-53" x="63.477"/></g></g><g id="patch_64"><path d="M 6.246 245.811547 L 20.126 245.811547 L 20.126 240.953547 L 6.246 240.953547 z" fill="#d22dd2"/></g><g id="text_25"><g transform="translate(25.678 245.811547) scale(0.0694 -0.0694)" fill="#ffffff"><use xlink:href="#DejaVuSans-43"/><use xlink:href="#DejaVuSans-46" x="69.824"/></g></g><g id="patch_65"><path d="M 6.246 255.998166 L 20.126 255.998166 L 20.126 251.140166 L 6.246 251.140166 z" fill="#b9d279"/></g><g id="text_26"><g transform="translate(25.678 255.998166) scale(0.0694 -0.0694)" fill="#ffffff"><use xlink:href="#DejaVuSans-56"/><use xlink:href="#DejaVuSans-49" x="68.408"/></g></g><g id="patch_66"><path d="M 6.246 266.184784 L 20.126 266.184784 L 20.126 261.326784 L 6.246 261.326784 z" fill="#48783a"/></g><g id="text_27"><g transform="translate(25.678 266.184784) scale(0.0694 -0.0694)" fill="#ffffff"><use xlink:href="#DejaVuSans-4d"/><use xlink:href="#DejaVuSans-45" x="86.279"/></g></g><g id="patch_67"><path d="M 6.246 276.371403 L 20.126 276.371403 L 20.126 271.513403 L 6.246 271.513403 z" fill="#d279c3"/></g><g id="text_28"><g transform="translate(25.678 276.371403) scale(0.0694 -0.0694)" fill="#ffffff"><defs><path id="DejaVuSans-59" d="M -13 4666 L 666 4666 L 1959 2747 L 3244 4666 L 3922 4666 L 2272 2222 L 2272 0 L 1638 0 L 1638 2222 L -13 4666 z" transform="scale(0.015625)"/></defs><use xlink:href="#DejaVuSans-41"/><use xlink:href="#DejaVuSans-59" x="60.658"/></g></g><g id="patch_68"><path d="M 6.246 286.558022 L 20.126 286.558022 L 20.126 281.700022 L 6.246 281.700022 z" fill="#cae06c"/></g><g id="text_29"><g transform="translate(25.678 286.558022) scale(0.0694 -0.0694)" fill="#ffffff"><defs><path id="DejaVuSans-50" d="M 1259 4147 L 1259 2394 L 2053 2394 Q 2494 2394 2734 2622 Q 2975 2850 2975 3272 Q 2975 3691 2734 3919 Q 2494 4147 2053 4147 L 1259 4147 z M 628 4666 L 2053 4666 Q 2838 4666 3239 4311 Q 3641 3956 3641 3272 Q 3641 2581 3239 2228 Q 2838 1875 2053 1875 L 1259 1875 L 1259 0 L 628 0 L 628 4666 z" transform="scale(0.015625)"/></defs><use xlink:href="#DejaVuSans-46"/><use xlink:href="#DejaVuSans-50" x="57.52"/></g></g><g id="patch_69"><path d="M 6.246 296.744641 L 20.126 296.744641 L 20.126 291.886641 L 6.246 291.886641 z" fill="#c58799"/></g><g id="text_30"><g transform="translate(25.678 296.744641) scale(0.0694 -0.0694)" fill="#ffffff"><use xlink:href="#DejaVuSans-52"/><use xlink:href="#DejaVuSans-4d" x="69.482"/></g></g><g id="patch_70"><path d="M 6.246 306.931259 L 20.126 306.931259 L 20.126 302.073259 L 6.246 302.073259 z" fill="#72e06c"/></g><g id="text_31"><g transform="translate(25.678 306.931259) scale(0.0694 -0.0694)" fill="#ffffff"><use xlink:href="#DejaVuSans-55"/><use xlink:href="#DejaVuSans-47" x="73.193"/></g></g><g id="patch_71"><path d="M 6.246 317.117878 L 20.126 317.117878 L 20.126 312.259878 L 6.246 312.259878 z" fill="#d22f2d"/></g><g id="text_32"><g transform="translate(25.678 317.117878) scale(0.0694 -0.0694)" fill="#ffffff"><use xlink:href="#DejaVuSans-4f"/><use xlink:href="#DejaVuSans-53" x="78.711"/></g></g><g id="patch_72"><path d="M 6.246 327.304497 L 20.126 327.304497 L 20.126 322.446497 L 6.246 322.446497 z" fill="#3a7877"/></g><g id="text_33"><g transform="translate(25.678 327.304497) scale(0.0694 -0.0694)" fill="#ffffff"><use xlink:href="#DejaVuSans-4d"/><use xlink:href="#DejaVuSans-53" x="86.279"/></g></g><g id="patch_73"><path d="M 6.246 337.491116 L 20.126 337.491116 L 20.126 332.633116 L 6.246 332.633116 z" fill="#6b1f93"/></g><g id="text_34"><g transform="translate(25.678 337.491116) scale(0.0694 -0.0694)" fill="#ffffff"><use xlink:href="#DejaVuSans-50"/><use xlink:href="#DejaVuSans-41" x="53.928"/></g></g><g id="patch_74"><path d="M 6.246 347.677734 L 20.126 347.677734 L 20.126 342.819734 L 6.246 342.819734 z" fill="#9587c5"/></g><g id="text_35"><g transform="translate(25.678 347.677734) scale(0.0694 -0.0694)" fill="#ffffff"><defs><path id="DejaVuSans-4b" d="M 628 4666 L 1259 4666 L 1259 2694 L 3353 4666 L 4166 4666 L 1850 2491 L 4331 0 L 3500 0 L 1259 2247 L 1259 0 L 628 0 L 628 4666 z" transform="scale(0.015625)"/></defs><use xlink:href="#DejaVuSans-53"/><use xlink:href="#DejaVuSans-4b" x="63.477"/></g></g><g id="patch_75"><path d="M 6.246 357.864353 L 20.126 357.864353 L 20.126 353.006353 L 6.246 353.006353 z" fill="#1f3693"/></g><g id="text_36"><g transform="translate(25.678 357.864353) scale(0.0694 -0.0694)" fill="#ffffff"><use xlink:href="#DejaVuSans-49"/><use xlink:href="#DejaVuSans-57" x="29.492"/></g></g><g id="patch_76"><path d="M 6.246 368.050972 L 20.126 368.050972 L 20.126 363.192972 L 6.246 363.192972 z" fill="#1f4e93"/></g><g id="text_37"><g transform="translate(25.678 368.050972) scale(0.0694 -0.0694)" fill="#ffffff"><use xlink:href="#DejaVuSans-45"/><use xlink:href="#DejaVuSans-4c" x="63.184"/></g></g><g id="patch_77"><path d="M 6.246 378.237591 L 20.126 378.237591 L 20.126 373.379591 L 6.246 373.379591 z" fill="#40bf90"/></g><g id="text_38"><g transform="translate(25.678 378.237591) scale(0.0694 -0.0694)" fill="#ffffff"><use xlink:href="#DejaVuSans-54"/><use xlink:href="#DejaVuSans-59" x="61.084"/></g></g><g id="patch_78"><path d="M 6.246 388.424209 L 20.126 388.424209 L 20.126 383.566209 L 6.246 383.566209 z" fill="#85d279"/></g><g id="text_39"><g transform="translate(25.678 388.424209) scale(0.0694 -0.0694)" fill="#ffffff"><defs><path id="DejaVuSans-74" d="M 1172 4494 L 1172 3500 L 2356 3500 L 2356 3053 L 1172 3053 L 1172 1153 Q 1172 725 1289 603 Q 1406 481 1766 481 L 2356 481 L 2356 0 L 1766 0 Q 1100 0 847 248 Q 594 497 594 1153 L 594 3053 L 172 3053 L 172 3500 L 594 3500 L 594 4494 L 1172 4494 z" transform="scale(0.015625)"/></defs><use xlink:href="#DejaVuSans-74"/><use xlink:href="#DejaVuSans-72" x="39.209"/></g></g></g></g></svg>