<svg xmlns:xlink="http://www.w3.org/1999/xlink" width="1920" height="960" viewBox="0 0 1440 720" xmlns="http://www.w3.org/2000/svg" version="1.1"><metadata><rdf:RDF xmlns:dc="http://purl.org/dc/elements/1.1/" xmlns:cc="http://creativecommons.org/ns#" xmlns:rdf="http://www.w3.org/1999/02/22-rdf-syntax-ns#"><cc:Work><dc:type rdf:resource="http://purl.org/dc/dcmitype/StillImage"/><dc:format>image/svg+xml</dc:format><dc:creator><cc:Agent><dc:title>Matplotlib v3.7.1, https://matplotlib.org/</dc:title></cc:Agent></dc:creator></cc:Work></rdf:RDF></metadata><defs><style type="text/css">*{stroke-linejoin:round;stroke-linecap:butt}</style></defs><g id="figure_1"><g id="patch_1"><path d="M 0 720 L 1440 720 L 1440 0 L 0 0 z"/></g><g id="axes_1"><g id="patch_2"><path d="M 180 640.8 L 1296 640.8 L 1296 86.4 L 180 86.4 z"/></g><g id="PolyCollection_1"><path d="M 180 517.663222 L 180 640.8 L 191.747368 640.8 L 203.494737 640.8 L 215.242105 640.8 L 226.989474 640.8 L 238.736842 640.8 L 250.484211 640.8 L 262.231579 640.8 L 273.978947 640.8 L 285.726316 640.8 L 297.473684 640.8 L 309.221053 640.8 L 320.968421 640.8 L 332.715789 640.8 L 344.463158 640.8 L 356.210526 640.8 L 367.957895 640.8 L 379.705263 640.8 L 391.452632 640.8 L 403.2 640.8 L 414.947368 640.8 L 426.694737 640.8 L 438.442105 640.8 L 450.189474 640.8 L 461.936842 640.8 L 473.684211 640.8 L 485.431579 640.8 L 497.178947 640.8 L 508.926316 640.8 L 520.673684 640.8 L 532.421053 640.8 L 544.168421 640.8 L 555.915789 640.8 L 567.663158 640.8 L 579.410526 640.8 L 591.157895 640.8 L 602.905263 640.8 L 614.652632 640.8 L 626.4 640.8 L 638.147368 640.8 L 649.894737 640.8 L 661.642105 640.8 L 673.389474 640.8 L 685.136842 640.8 L 696.884211 640.8 L 708.631579 640.8 L 720.378947 640.8 L 732.126316 640.8 L 743.873684 640.8 L 755.621053 640.8 L 767.368421 640.8 L 779.115789 640.8 L 790.863158 640.8 L 802.610526 640.8 L 814.357895 640.8 L 826.105263 640.8 L 837.852632 640.8 L 849.6 640.8 L 861.347368 640.8 L 873.094737 640.8 L 884.842105 640.8 L 896.589474 640.8 L 908.336842 640.8 L 920.084211 640.8 L 931.831579 640.8 L 943.578947 640.8 L 955.326316 640.8 L 967.073684 640.8 L 978.821053 640.8 L 990.568421 640.8 L 1002.315789 640.8 L 1014.063158 640.8 L 1025.810526 640.8 L 1037.557895 640.8 L 1049.305263 640.8 L 1061.052632 640.8 L 1072.8 640.8 L 1084.547368 640.8 L 1096.294737 640.8 L 1108.042105 640.8 L 1119.789474 640.8 L 1131.536842 640.8 L 1143.284211 640.8 L 1155.031579 640.8 L 1166.778947 640.8 L 1178.526316 640.8 L 1190.273684 640.8 L 1202.021053 640.8 L 1213.768421 640.8 L 1225.515789 640.8 L 1237.263158 640.8 L 1249.010526 640.8 L 1260.757895 640.8 L 1272.505263 640.8 L 1284.252632 640.8 L 1296 640.8 L 1307.747368 640.8 L 1319.494737 640.8 L 1331.242105 640.8 L 1342.989474 640.8 L 1354.736842 640.8 L 1366.484211 640.8 L 1378.231579 640.8 L 1378.231579 624.459574 L 1378.231579 624.459574 L 1366.484211 559.097872 L 1354.736842 535.462614 L 1342.989474 562.599392 L 1331.242105 516.641945 L 1319.494737 553.116109 L 1307.747368 533.274164 L 1296 509.638906 L 1284.252632 536.775684 L 1272.505263 526.271125 L 1260.757895 532.106991 L 1249.010526 510.806079 L 1237.263158 494.61155 L 1225.515789 495.04924 L 1213.768421 534.733131 L 1202.021053 534.587234 L 1190.273684 521.456535 L 1178.526316 539.401824 L 1166.778947 498.842553 L 1155.031579 486.295441 L 1143.284211 530.793921 L 1131.536842 537.651064 L 1119.789474 562.599392 L 1108.042105 569.894225 L 1096.294737 558.514286 L 1084.547368 537.505167 L 1072.8 525.103951 L 1061.052632 549.468693 L 1049.305263 557.930699 L 1037.557895 537.213374 L 1025.810526 536.921581 L 1014.063158 534.003647 L 1002.315789 487.900304 L 990.568421 482.502128 L 978.821053 551.948936 L 967.073684 533.565957 L 955.326316 511.389666 L 943.578947 558.806079 L 931.831579 529.334954 L 920.084211 507.888146 L 908.336842 466.745289 L 896.589474 540.86079 L 884.842105 563.474772 L 873.094737 435.815198 L 861.347368 538.526444 L 849.6 528.459574 L 837.852632 491.839514 L 826.105263 487.316717 L 814.357895 517.955015 L 802.610526 559.243769 L 790.863158 566.684498 L 779.115789 486.295441 L 767.368421 526.854711 L 755.621053 439.316717 L 743.873684 458.429179 L 732.126316 494.027964 L 720.378947 489.359271 L 708.631579 466.015805 L 696.884211 467.328875 L 685.136842 462.806079 L 673.389474 414.660182 L 661.642105 434.210334 L 649.894737 420.204255 L 638.147368 429.541641 L 626.4 424.581155 L 614.652632 423.997568 L 602.905263 452.009726 L 591.157895 355.572036 L 579.410526 388.544681 L 567.663158 412.179939 L 555.915789 488.046201 L 544.168421 485.420061 L 532.421053 445.73617 L 520.673684 453.468693 L 508.926316 373.225532 L 497.178947 407.657143 L 485.431579 500.885106 L 473.684211 544.216413 L 461.936842 550.344073 L 450.189474 576.021884 L 438.442105 489.505167 L 426.694737 449.67538 L 414.947368 411.012766 L 403.2 489.651064 L 391.452632 498.98845 L 379.705263 522.040122 L 367.957895 522.477812 L 356.210526 483.669301 L 344.463158 503.073556 L 332.715789 453.031003 L 320.968421 506.283283 L 309.221053 485.565957 L 297.473684 495.632827 L 285.726316 541.006687 L 273.978947 519.997568 L 262.231579 406.635866 L 250.484211 451.572036 L 238.736842 506.575076 L 226.989474 527.875988 L 215.242105 568.872948 L 203.494737 540.714894 L 191.747368 511.243769 L 180 517.663222 z" clip-path="url(#p84b2e2e788)" fill="#0f0f0f"/></g><g id="PolyCollection_2"><path d="M 180 498.55076 L 180 517.663222 L 191.747368 511.243769 L 203.494737 540.714894 L 215.242105 568.872948 L 226.989474 527.875988 L 238.736842 506.575076 L 250.484211 451.572036 L 262.231579 406.635866 L 273.978947 519.997568 L 285.726316 541.006687 L 297.473684 495.632827 L 309.221053 485.565957 L 320.968421 506.283283 L 332.715789 453.031003 L 344.463158 503.073556 L 356.210526 483.669301 L 367.957895 522.477812 L 379.705263 522.040122 L 391.452632 498.98845 L 403.2 489.651064 L 414.947368 411.012766 L 426.694737 449.67538 L 438.442105 489.505167 L 450.189474 576.021884 L 461.936842 550.344073 L 473.684211 544.216413 L 485.431579 500.885106 L 497.178947 407.657143 L 508.926316 373.225532 L 520.673684 453.468693 L 532.421053 445.73617 L 544.168421 485.420061 L 555.915789 488.046201 L 567.663158 412.179939 L 579.410526 388.544681 L 591.157895 355.572036 L 602.905263 452.009726 L 614.652632 423.997568 L 626.4 424.581155 L 638.147368 429.541641 L 649.894737 420.204255 L 661.642105 434.210334 L 673.389474 414.660182 L 685.136842 462.806079 L 696.884211 467.328875 L 708.631579 466.015805 L 720.378947 489.359271 L 732.126316 494.027964 L 743.873684 458.429179 L 755.621053 439.316717 L 767.368421 526.854711 L 779.115789 486.295441 L 790.863158 566.684498 L 802.610526 559.243769 L 814.357895 517.955015 L 826.105263 487.316717 L 837.852632 491.839514 L 849.6 528.459574 L 861.347368 538.526444 L 873.094737 435.815198 L 884.842105 563.474772 L 896.589474 540.86079 L 908.336842 466.745289 L 920.084211 507.888146 L 931.831579 529.334954 L 943.578947 558.806079 L 955.326316 511.389666 L 967.073684 533.565957 L 978.821053 551.948936 L 990.568421 482.502128 L 1002.315789 487.900304 L 1014.063158 534.003647 L 1025.810526 536.921581 L 1037.557895 537.213374 L 1049.305263 557.930699 L 1061.052632 549.468693 L 1072.8 525.103951 L 1084.547368 537.505167 L 1096.294737 558.514286 L 1108.042105 569.894225 L 1119.789474 562.599392 L 1131.536842 537.651064 L 1143.284211 530.793921 L 1155.031579 486.295441 L 1166.778947 498.842553 L 1178.526316 539.401824 L 1190.273684 521.456535 L 1202.021053 534.587234 L 1213.768421 534.733131 L 1225.515789 495.04924 L 1237.263158 494.61155 L 1249.010526 510.806079 L 1260.757895 532.106991 L 1272.505263 526.271125 L 1284.252632 536.775684 L 1296 509.638906 L 1307.747368 533.274164 L 1319.494737 553.116109 L 1331.242105 516.641945 L 1342.989474 562.599392 L 1354.736842 535.462614 L 1366.484211 559.097872 L 1378.231579 624.459574 L 1378.231579 618.477812 L 1378.231579 618.477812 L 1366.484211 532.690578 L 1354.736842 504.386626 L 1342.989474 532.544681 L 1331.242105 486.733131 L 1319.494737 525.833435 L 1307.747368 496.508207 L 1296 478.271125 L 1284.252632 484.106991 L 1272.505263 485.565957 L 1260.757895 496.508207 L 1249.010526 467.766565 L 1237.263158 459.012766 L 1225.515789 465.286322 L 1213.768421 509.201216 L 1202.021053 509.201216 L 1190.273684 481.918541 L 1178.526316 497.67538 L 1166.778947 454.781763 L 1155.031579 435.669301 L 1143.284211 500.155623 L 1131.536842 495.04924 L 1119.789474 542.465653 L 1108.042105 538.526444 L 1096.294737 535.170821 L 1084.547368 502.198176 L 1072.8 459.596353 L 1061.052632 507.158663 L 1049.305263 509.347112 L 1037.557895 510.951976 L 1025.810526 489.505167 L 1014.063158 491.11003 L 1002.315789 459.888146 L 990.568421 440.775684 L 978.821053 522.477812 L 967.073684 518.100912 L 955.326316 495.48693 L 943.578947 537.359271 L 931.831579 506.283283 L 920.084211 483.815198 L 908.336842 426.915502 L 896.589474 522.477812 L 884.842105 539.693617 L 873.094737 406.781763 L 861.347368 519.705775 L 849.6 500.009726 L 837.852632 442.818237 L 826.105263 424.872948 L 814.357895 467.037082 L 802.610526 518.538602 L 790.863158 538.818237 L 779.115789 445.882067 L 767.368421 492.86079 L 755.621053 381.103951 L 743.873684 400.216413 L 732.126316 454.92766 L 720.378947 473.310638 L 708.631579 438.003647 L 696.884211 441.942857 L 685.136842 429.687538 L 673.389474 368.994529 L 661.642105 385.480851 L 649.894737 383.875988 L 638.147368 388.690578 L 626.4 374.830395 L 614.652632 395.839514 L 602.905263 428.812158 L 591.157895 299.54772 L 579.410526 316.909422 L 567.663158 362.429179 L 555.915789 449.383587 L 544.168421 450.55076 L 532.421053 411.158663 L 520.673684 401.67538 L 508.926316 331.644985 L 497.178947 364.471733 L 485.431579 461.638906 L 473.684211 510.660182 L 461.936842 539.255927 L 450.189474 557.638906 L 438.442105 474.040122 L 426.694737 405.1769 L 414.947368 389.420061 L 403.2 466.745289 L 391.452632 471.122188 L 379.705263 496.654103 L 367.957895 509.201216 L 356.210526 458.720973 L 344.463158 468.058359 L 332.715789 421.663222 L 320.968421 478.562918 L 309.221053 464.410942 L 297.473684 470.976292 L 285.726316 524.958055 L 273.978947 490.818237 L 262.231579 372.496049 L 250.484211 415.389666 L 238.736842 491.98541 L 226.989474 505.116109 L 215.242105 558.076596 L 203.494737 521.894225 L 191.747368 500.447416 L 180 498.55076 z" clip-path="url(#p84b2e2e788)" fill="#ffffff"/></g><g id="PolyCollection_3"><path d="M 180 490.088754 L 180 498.55076 L 191.747368 500.447416 L 203.494737 521.894225 L 215.242105 558.076596 L 226.989474 505.116109 L 238.736842 491.98541 L 250.484211 415.389666 L 262.231579 372.496049 L 273.978947 490.818237 L 285.726316 524.958055 L 297.473684 470.976292 L 309.221053 464.410942 L 320.968421 478.562918 L 332.715789 421.663222 L 344.463158 468.058359 L 356.210526 458.720973 L 367.957895 509.201216 L 379.705263 496.654103 L 391.452632 471.122188 L 403.2 466.745289 L 414.947368 389.420061 L 426.694737 405.1769 L 438.442105 474.040122 L 450.189474 557.638906 L 461.936842 539.255927 L 473.684211 510.660182 L 485.431579 461.638906 L 497.178947 364.471733 L 508.926316 331.644985 L 520.673684 401.67538 L 532.421053 411.158663 L 544.168421 450.55076 L 555.915789 449.383587 L 567.663158 362.429179 L 579.410526 316.909422 L 591.157895 299.54772 L 602.905263 428.812158 L 614.652632 395.839514 L 626.4 374.830395 L 638.147368 388.690578 L 649.894737 383.875988 L 661.642105 385.480851 L 673.389474 368.994529 L 685.136842 429.687538 L 696.884211 441.942857 L 708.631579 438.003647 L 720.378947 473.310638 L 732.126316 454.92766 L 743.873684 400.216413 L 755.621053 381.103951 L 767.368421 492.86079 L 779.115789 445.882067 L 790.863158 538.818237 L 802.610526 518.538602 L 814.357895 467.037082 L 826.105263 424.872948 L 837.852632 442.818237 L 849.6 500.009726 L 861.347368 519.705775 L 873.094737 406.781763 L 884.842105 539.693617 L 896.589474 522.477812 L 908.336842 426.915502 L 920.084211 483.815198 L 931.831579 506.283283 L 943.578947 537.359271 L 955.326316 495.48693 L 967.073684 518.100912 L 978.821053 522.477812 L 990.568421 440.775684 L 1002.315789 459.888146 L 1014.063158 491.11003 L 1025.810526 489.505167 L 1037.557895 510.951976 L 1049.305263 509.347112 L 1061.052632 507.158663 L 1072.8 459.596353 L 1084.547368 502.198176 L 1096.294737 535.170821 L 1108.042105 538.526444 L 1119.789474 542.465653 L 1131.536842 495.04924 L 1143.284211 500.155623 L 1155.031579 435.669301 L 1166.778947 454.781763 L 1178.526316 497.67538 L 1190.273684 481.918541 L 1202.021053 509.201216 L 1213.768421 509.201216 L 1225.515789 465.286322 L 1237.263158 459.012766 L 1249.010526 467.766565 L 1260.757895 496.508207 L 1272.505263 485.565957 L 1284.252632 484.106991 L 1296 478.271125 L 1307.747368 496.508207 L 1319.494737 525.833435 L 1331.242105 486.733131 L 1342.989474 532.544681 L 1354.736842 504.386626 L 1366.484211 532.690578 L 1378.231579 618.477812 L 1378.231579 612.350152 L 1378.231579 612.350152 L 1366.484211 521.602432 L 1354.736842 491.11003 L 1342.989474 511.827356 L 1331.242105 470.538602 L 1319.494737 511.243769 L 1307.747368 483.669301 L 1296 462.806079 L 1284.252632 472.727052 L 1272.505263 473.018845 L 1260.757895 484.398784 L 1249.010526 446.17386 L 1237.263158 445.882067 L 1225.515789 459.742249 L 1213.768421 496.8 L 1202.021053 501.322796 L 1190.273684 470.976292 L 1178.526316 484.836474 L 1166.778947 434.793921 L 1155.031579 415.389666 L 1143.284211 488.483891 L 1131.536842 487.900304 L 1119.789474 534.441337 L 1108.042105 517.809119 L 1096.294737 522.186018 L 1084.547368 485.420061 L 1072.8 441.79696 L 1061.052632 492.4231 L 1049.305263 490.526444 L 1037.557895 499.280243 L 1025.810526 470.976292 L 1014.063158 474.040122 L 1002.315789 433.918541 L 990.568421 426.331915 L 978.821053 513.869909 L 967.073684 499.134347 L 955.326316 488.337994 L 943.578947 519.122188 L 931.831579 487.316717 L 920.084211 467.037082 L 908.336842 411.742249 L 896.589474 505.262006 L 884.842105 533.711854 L 873.094737 390.733131 L 861.347368 508.909422 L 849.6 474.331915 L 837.852632 427.061398 L 826.105263 410.137386 L 814.357895 458.429179 L 802.610526 505.553799 L 790.863158 516.350152 L 779.115789 433.772644 L 767.368421 475.353191 L 755.621053 349.882067 L 743.873684 382.125228 L 732.126316 435.669301 L 720.378947 458.283283 L 708.631579 422.100912 L 696.884211 429.979331 L 685.136842 403.717933 L 673.389474 356.447416 L 661.642105 355.42614 L 649.894737 344.192097 L 638.147368 366.076596 L 626.4 346.088754 L 614.652632 377.310638 L 602.905263 407.80304 L 591.157895 262.92766 L 579.410526 297.505167 L 567.663158 347.693617 L 555.915789 438.587234 L 544.168421 414.076596 L 532.421053 398.61155 L 520.673684 373.663222 L 508.926316 304.654103 L 497.178947 330.186018 L 485.431579 427.790881 L 473.684211 488.192097 L 461.936842 524.958055 L 450.189474 543.195137 L 438.442105 459.742249 L 426.694737 358.344073 L 414.947368 369.578116 L 403.2 434.356231 L 391.452632 444.86079 L 379.705263 457.699696 L 367.957895 467.182979 L 356.210526 449.529483 L 344.463158 437.857751 L 332.715789 408.386626 L 320.968421 459.158663 L 309.221053 450.55076 L 297.473684 451.42614 L 285.726316 508.617629 L 273.978947 474.915502 L 262.231579 320.702736 L 250.484211 377.456535 L 238.736842 462.368389 L 226.989474 493.590274 L 215.242105 532.252888 L 203.494737 519.413982 L 191.747368 490.380547 L 180 490.088754 z" clip-path="url(#p84b2e2e788)" fill="#ff7373"/></g><g id="PolyCollection_4"><path d="M 180 461.638906 L 180 490.088754 L 191.747368 490.380547 L 203.494737 519.413982 L 215.242105 532.252888 L 226.989474 493.590274 L 238.736842 462.368389 L 250.484211 377.456535 L 262.231579 320.702736 L 273.978947 474.915502 L 285.726316 508.617629 L 297.473684 451.42614 L 309.221053 450.55076 L 320.968421 459.158663 L 332.715789 408.386626 L 344.463158 437.857751 L 356.210526 449.529483 L 367.957895 467.182979 L 379.705263 457.699696 L 391.452632 444.86079 L 403.2 434.356231 L 414.947368 369.578116 L 426.694737 358.344073 L 438.442105 459.742249 L 450.189474 543.195137 L 461.936842 524.958055 L 473.684211 488.192097 L 485.431579 427.790881 L 497.178947 330.186018 L 508.926316 304.654103 L 520.673684 373.663222 L 532.421053 398.61155 L 544.168421 414.076596 L 555.915789 438.587234 L 567.663158 347.693617 L 579.410526 297.505167 L 591.157895 262.92766 L 602.905263 407.80304 L 614.652632 377.310638 L 626.4 346.088754 L 638.147368 366.076596 L 649.894737 344.192097 L 661.642105 355.42614 L 673.389474 356.447416 L 685.136842 403.717933 L 696.884211 429.979331 L 708.631579 422.100912 L 720.378947 458.283283 L 732.126316 435.669301 L 743.873684 382.125228 L 755.621053 349.882067 L 767.368421 475.353191 L 779.115789 433.772644 L 790.863158 516.350152 L 802.610526 505.553799 L 814.357895 458.429179 L 826.105263 410.137386 L 837.852632 427.061398 L 849.6 474.331915 L 861.347368 508.909422 L 873.094737 390.733131 L 884.842105 533.711854 L 896.589474 505.262006 L 908.336842 411.742249 L 920.084211 467.037082 L 931.831579 487.316717 L 943.578947 519.122188 L 955.326316 488.337994 L 967.073684 499.134347 L 978.821053 513.869909 L 990.568421 426.331915 L 1002.315789 433.918541 L 1014.063158 474.040122 L 1025.810526 470.976292 L 1037.557895 499.280243 L 1049.305263 490.526444 L 1061.052632 492.4231 L 1072.8 441.79696 L 1084.547368 485.420061 L 1096.294737 522.186018 L 1108.042105 517.809119 L 1119.789474 534.441337 L 1131.536842 487.900304 L 1143.284211 488.483891 L 1155.031579 415.389666 L 1166.778947 434.793921 L 1178.526316 484.836474 L 1190.273684 470.976292 L 1202.021053 501.322796 L 1213.768421 496.8 L 1225.515789 459.742249 L 1237.263158 445.882067 L 1249.010526 446.17386 L 1260.757895 484.398784 L 1272.505263 473.018845 L 1284.252632 472.727052 L 1296 462.806079 L 1307.747368 483.669301 L 1319.494737 511.243769 L 1331.242105 470.538602 L 1342.989474 511.827356 L 1354.736842 491.11003 L 1366.484211 521.602432 L 1378.231579 612.350152 L 1378.231579 606.076596 L 1378.231579 606.076596 L 1366.484211 491.401824 L 1354.736842 477.541641 L 1342.989474 488.337994 L 1331.242105 448.654103 L 1319.494737 489.79696 L 1307.747368 473.602432 L 1296 437.565957 L 1284.252632 447.341033 L 1272.505263 451.134347 L 1260.757895 442.67234 L 1249.010526 419.182979 L 1237.263158 411.596353 L 1225.515789 427.353191 L 1213.768421 456.532523 L 1202.021053 482.210334 L 1190.273684 450.696657 L 1178.526316 459.888146 L 1166.778947 409.845593 L 1155.031579 380.374468 L 1143.284211 468.204255 L 1131.536842 469.225532 L 1119.789474 501.468693 L 1108.042105 508.909422 L 1096.294737 503.219453 L 1084.547368 472.435258 L 1072.8 407.36535 L 1061.052632 471.997568 L 1049.305263 473.018845 L 1037.557895 462.514286 L 1025.810526 428.520365 L 1014.063158 444.277204 L 1002.315789 400.216413 L 990.568421 386.356231 L 978.821053 481.480851 L 967.073684 467.766565 L 955.326316 469.809119 L 943.578947 488.775684 L 931.831579 456.240729 L 920.084211 448.216413 L 908.336842 387.231611 L 896.589474 472.143465 L 884.842105 511.827356 L 873.094737 366.368389 L 861.347368 475.936778 L 849.6 431.730091 L 837.852632 383.730091 L 826.105263 362.283283 L 814.357895 430.562918 L 802.610526 478.562918 L 790.863158 500.155623 L 779.115789 406.198176 L 767.368421 438.587234 L 755.621053 313.116109 L 743.873684 355.86383 L 732.126316 397.444377 L 720.378947 426.769605 L 708.631579 375.268085 L 696.884211 377.602432 L 685.136842 368.848632 L 673.389474 314.720973 L 661.642105 308.73921 L 649.894737 295.900304 L 638.147368 329.748328 L 626.4 321.578116 L 614.652632 350.17386 L 602.905263 390.149544 L 591.157895 231.997568 L 579.410526 254.903343 L 567.663158 313.262006 L 555.915789 404.30152 L 544.168421 385.189058 L 532.421053 379.790881 L 520.673684 337.626748 L 508.926316 261.468693 L 497.178947 301.152584 L 485.431579 399.632827 L 473.684211 456.532523 L 461.936842 510.951976 L 450.189474 523.499088 L 438.442105 428.666261 L 426.694737 304.508207 L 414.947368 330.915502 L 403.2 403.86383 L 391.452632 400.508207 L 379.705263 399.04924 L 367.957895 439.608511 L 356.210526 424.289362 L 344.463158 393.359271 L 332.715789 367.535562 L 320.968421 418.745289 L 309.221053 418.745289 L 297.473684 408.532523 L 285.726316 475.790881 L 273.978947 444.86079 L 262.231579 274.891185 L 250.484211 340.252888 L 238.736842 407.073556 L 226.989474 460.471733 L 215.242105 504.386626 L 203.494737 505.699696 L 191.747368 467.912462 L 180 461.638906 z" clip-path="url(#p84b2e2e788)" fill="#4f2d68"/></g><g id="PolyCollection_5"><path d="M 180 447.04924 L 180 461.638906 L 191.747368 467.912462 L 203.494737 505.699696 L 215.242105 504.386626 L 226.989474 460.471733 L 238.736842 407.073556 L 250.484211 340.252888 L 262.231579 274.891185 L 273.978947 444.86079 L 285.726316 475.790881 L 297.473684 408.532523 L 309.221053 418.745289 L 320.968421 418.745289 L 332.715789 367.535562 L 344.463158 393.359271 L 356.210526 424.289362 L 367.957895 439.608511 L 379.705263 399.04924 L 391.452632 400.508207 L 403.2 403.86383 L 414.947368 330.915502 L 426.694737 304.508207 L 438.442105 428.666261 L 450.189474 523.499088 L 461.936842 510.951976 L 473.684211 456.532523 L 485.431579 399.632827 L 497.178947 301.152584 L 508.926316 261.468693 L 520.673684 337.626748 L 532.421053 379.790881 L 544.168421 385.189058 L 555.915789 404.30152 L 567.663158 313.262006 L 579.410526 254.903343 L 591.157895 231.997568 L 602.905263 390.149544 L 614.652632 350.17386 L 626.4 321.578116 L 638.147368 329.748328 L 649.894737 295.900304 L 661.642105 308.73921 L 673.389474 314.720973 L 685.136842 368.848632 L 696.884211 377.602432 L 708.631579 375.268085 L 720.378947 426.769605 L 732.126316 397.444377 L 743.873684 355.86383 L 755.621053 313.116109 L 767.368421 438.587234 L 779.115789 406.198176 L 790.863158 500.155623 L 802.610526 478.562918 L 814.357895 430.562918 L 826.105263 362.283283 L 837.852632 383.730091 L 849.6 431.730091 L 861.347368 475.936778 L 873.094737 366.368389 L 884.842105 511.827356 L 896.589474 472.143465 L 908.336842 387.231611 L 920.084211 448.216413 L 931.831579 456.240729 L 943.578947 488.775684 L 955.326316 469.809119 L 967.073684 467.766565 L 978.821053 481.480851 L 990.568421 386.356231 L 1002.315789 400.216413 L 1014.063158 444.277204 L 1025.810526 428.520365 L 1037.557895 462.514286 L 1049.305263 473.018845 L 1061.052632 471.997568 L 1072.8 407.36535 L 1084.547368 472.435258 L 1096.294737 503.219453 L 1108.042105 508.909422 L 1119.789474 501.468693 L 1131.536842 469.225532 L 1143.284211 468.204255 L 1155.031579 380.374468 L 1166.778947 409.845593 L 1178.526316 459.888146 L 1190.273684 450.696657 L 1202.021053 482.210334 L 1213.768421 456.532523 L 1225.515789 427.353191 L 1237.263158 411.596353 L 1249.010526 419.182979 L 1260.757895 442.67234 L 1272.505263 451.134347 L 1284.252632 447.341033 L 1296 437.565957 L 1307.747368 473.602432 L 1319.494737 489.79696 L 1331.242105 448.654103 L 1342.989474 488.337994 L 1354.736842 477.541641 L 1366.484211 491.401824 L 1378.231579 606.076596 L 1378.231579 605.347112 L 1378.231579 605.347112 L 1366.484211 490.818237 L 1354.736842 470.976292 L 1342.989474 484.690578 L 1331.242105 445.152584 L 1319.494737 488.192097 L 1307.747368 471.268085 L 1296 436.690578 L 1284.252632 445.73617 L 1272.505263 447.778723 L 1260.757895 437.128267 L 1249.010526 410.137386 L 1237.263158 400.654103 L 1225.515789 421.663222 L 1213.768421 454.635866 L 1202.021053 477.979331 L 1190.273684 447.04924 L 1178.526316 458.137386 L 1166.778947 404.447416 L 1155.031579 373.371429 L 1143.284211 465.432219 L 1131.536842 464.119149 L 1119.789474 496.8 L 1108.042105 505.116109 L 1096.294737 495.341033 L 1084.547368 465.140426 L 1072.8 401.67538 L 1061.052632 467.328875 L 1049.305263 467.328875 L 1037.557895 457.699696 L 1025.810526 426.915502 L 1014.063158 441.359271 L 1002.315789 390.879027 L 990.568421 383.438298 L 978.821053 475.207295 L 967.073684 463.973252 L 955.326316 466.307599 L 943.578947 486.003647 L 931.831579 454.344073 L 920.084211 438.149544 L 908.336842 372.641945 L 896.589474 465.869909 L 884.842105 499.134347 L 873.094737 360.094833 L 861.347368 469.371429 L 849.6 426.331915 L 837.852632 379.353191 L 826.105263 355.86383 L 814.357895 427.790881 L 802.610526 470.246809 L 790.863158 498.55076 L 779.115789 399.48693 L 767.368421 434.648024 L 755.621053 309.031003 L 743.873684 348.568997 L 732.126316 388.836474 L 720.378947 426.186018 L 708.631579 372.933739 L 696.884211 375.413982 L 685.136842 366.368389 L 673.389474 309.906383 L 661.642105 302.757447 L 649.894737 288.459574 L 638.147368 318.514286 L 626.4 318.222492 L 614.652632 346.088754 L 602.905263 372.496049 L 591.157895 225.432219 L 579.410526 247.316717 L 567.663158 303.778723 L 555.915789 399.632827 L 544.168421 382.708815 L 532.421053 367.827356 L 520.673684 336.021884 L 508.926316 253.882067 L 497.178947 291.961094 L 485.431579 396.568997 L 473.684211 456.240729 L 461.936842 505.845593 L 450.189474 519.705775 L 438.442105 426.477812 L 426.694737 300.86079 L 414.947368 319.389666 L 403.2 390.295441 L 391.452632 391.316717 L 379.705263 393.359271 L 367.957895 434.939818 L 356.210526 411.304559 L 344.463158 389.420061 L 332.715789 361.553799 L 320.968421 416.410942 L 309.221053 405.1769 L 297.473684 403.42614 L 285.726316 465.140426 L 273.978947 440.775684 L 262.231579 265.116109 L 250.484211 332.520365 L 238.736842 401.529483 L 226.989474 457.262006 L 215.242105 502.198176 L 203.494737 503.219453 L 191.747368 442.23465 L 180 447.04924 z" clip-path="url(#p84b2e2e788)" fill="#ffff73"/></g><g id="PolyCollection_6"><path d="M 180 422.684498 L 180 447.04924 L 191.747368 442.23465 L 203.494737 503.219453 L 215.242105 502.198176 L 226.989474 457.262006 L 238.736842 401.529483 L 250.484211 332.520365 L 262.231579 265.116109 L 273.978947 440.775684 L 285.726316 465.140426 L 297.473684 403.42614 L 309.221053 405.1769 L 320.968421 416.410942 L 332.715789 361.553799 L 344.463158 389.420061 L 356.210526 411.304559 L 367.957895 434.939818 L 379.705263 393.359271 L 391.452632 391.316717 L 403.2 390.295441 L 414.947368 319.389666 L 426.694737 300.86079 L 438.442105 426.477812 L 450.189474 519.705775 L 461.936842 505.845593 L 473.684211 456.240729 L 485.431579 396.568997 L 497.178947 291.961094 L 508.926316 253.882067 L 520.673684 336.021884 L 532.421053 367.827356 L 544.168421 382.708815 L 555.915789 399.632827 L 567.663158 303.778723 L 579.410526 247.316717 L 591.157895 225.432219 L 602.905263 372.496049 L 614.652632 346.088754 L 626.4 318.222492 L 638.147368 318.514286 L 649.894737 288.459574 L 661.642105 302.757447 L 673.389474 309.906383 L 685.136842 366.368389 L 696.884211 375.413982 L 708.631579 372.933739 L 720.378947 426.186018 L 732.126316 388.836474 L 743.873684 348.568997 L 755.621053 309.031003 L 767.368421 434.648024 L 779.115789 399.48693 L 790.863158 498.55076 L 802.610526 470.246809 L 814.357895 427.790881 L 826.105263 355.86383 L 837.852632 379.353191 L 849.6 426.331915 L 861.347368 469.371429 L 873.094737 360.094833 L 884.842105 499.134347 L 896.589474 465.869909 L 908.336842 372.641945 L 920.084211 438.149544 L 931.831579 454.344073 L 943.578947 486.003647 L 955.326316 466.307599 L 967.073684 463.973252 L 978.821053 475.207295 L 990.568421 383.438298 L 1002.315789 390.879027 L 1014.063158 441.359271 L 1025.810526 426.915502 L 1037.557895 457.699696 L 1049.305263 467.328875 L 1061.052632 467.328875 L 1072.8 401.67538 L 1084.547368 465.140426 L 1096.294737 495.341033 L 1108.042105 505.116109 L 1119.789474 496.8 L 1131.536842 464.119149 L 1143.284211 465.432219 L 1155.031579 373.371429 L 1166.778947 404.447416 L 1178.526316 458.137386 L 1190.273684 447.04924 L 1202.021053 477.979331 L 1213.768421 454.635866 L 1225.515789 421.663222 L 1237.263158 400.654103 L 1249.010526 410.137386 L 1260.757895 437.128267 L 1272.505263 447.778723 L 1284.252632 445.73617 L 1296 436.690578 L 1307.747368 471.268085 L 1319.494737 488.192097 L 1331.242105 445.152584 L 1342.989474 484.690578 L 1354.736842 470.976292 L 1366.484211 490.818237 L 1378.231579 605.347112 L 1378.231579 597.760486 L 1378.231579 597.760486 L 1366.484211 470.538602 L 1354.736842 437.420061 L 1342.989474 472.143465 L 1331.242105 433.772644 L 1319.494737 479.000608 L 1307.747368 467.037082 L 1296 427.499088 L 1284.252632 432.167781 L 1272.505263 420.787842 L 1260.757895 403.280243 L 1249.010526 372.496049 L 1237.263158 367.827356 L 1225.515789 395.54772 L 1213.768421 441.79696 L 1202.021053 449.23769 L 1190.273684 414.222492 L 1178.526316 435.815198 L 1166.778947 367.535562 L 1155.031579 343.608511 L 1143.284211 452.009726 L 1131.536842 446.61155 L 1119.789474 475.790881 L 1108.042105 489.505167 L 1096.294737 462.368389 L 1084.547368 436.252888 L 1072.8 374.976292 L 1061.052632 440.629787 L 1049.305263 428.082675 L 1037.557895 437.128267 L 1025.810526 400.654103 L 1014.063158 420.058359 L 1002.315789 358.198176 L 990.568421 345.213374 L 978.821053 443.401824 L 967.073684 419.766565 L 955.326316 445.29848 L 943.578947 461.493009 L 931.831579 418.745289 L 920.084211 400.070517 L 908.336842 339.523404 L 896.589474 418.891185 L 884.842105 467.037082 L 873.094737 309.031003 L 861.347368 441.505167 L 849.6 397.006687 L 837.852632 327.851672 L 826.105263 310.05228 L 814.357895 382.271125 L 802.610526 423.268085 L 790.863158 474.915502 L 779.115789 378.477812 L 767.368421 419.182979 L 755.621053 272.265046 L 743.873684 306.842553 L 732.126316 350.319757 L 720.378947 397.006687 L 708.631579 328.872948 L 696.884211 330.477812 L 685.136842 318.514286 L 673.389474 228.058359 L 661.642105 251.54772 L 649.894737 262.781763 L 638.147368 260.593313 L 626.4 264.240729 L 614.652632 296.337994 L 602.905263 346.964134 L 591.157895 179.328875 L 579.410526 200.192097 L 567.663158 265.553799 L 555.915789 363.012766 L 544.168421 339.377508 L 532.421053 307.134347 L 520.673684 309.760486 L 508.926316 201.067477 L 497.178947 239.584195 L 485.431579 363.012766 L 473.684211 419.912462 L 461.936842 463.973252 L 450.189474 489.942857 L 438.442105 393.79696 L 426.694737 270.806079 L 414.947368 256.654103 L 403.2 341.128267 L 391.452632 341.857751 L 379.705263 321.432219 L 367.957895 402.98845 L 356.210526 387.815198 L 344.463158 357.468693 L 332.715789 335.146505 L 320.968421 392.921581 L 309.221053 373.079635 L 297.473684 370.891185 L 285.726316 421.517325 L 273.978947 391.900304 L 262.231579 188.374468 L 250.484211 268.909422 L 238.736842 350.027964 L 226.989474 413.638906 L 215.242105 462.660182 L 203.494737 481.189058 L 191.747368 416.848632 L 180 422.684498 z" clip-path="url(#p84b2e2e788)" fill="#70223b"/></g><g id="PolyCollection_7"><path d="M 180 416.119149 L 180 422.684498 L 191.747368 416.848632 L 203.494737 481.189058 L 215.242105 462.660182 L 226.989474 413.638906 L 238.736842 350.027964 L 250.484211 268.909422 L 262.231579 188.374468 L 273.978947 391.900304 L 285.726316 421.517325 L 297.473684 370.891185 L 309.221053 373.079635 L 320.968421 392.921581 L 332.715789 335.146505 L 344.463158 357.468693 L 356.210526 387.815198 L 367.957895 402.98845 L 379.705263 321.432219 L 391.452632 341.857751 L 403.2 341.128267 L 414.947368 256.654103 L 426.694737 270.806079 L 438.442105 393.79696 L 450.189474 489.942857 L 461.936842 463.973252 L 473.684211 419.912462 L 485.431579 363.012766 L 497.178947 239.584195 L 508.926316 201.067477 L 520.673684 309.760486 L 532.421053 307.134347 L 544.168421 339.377508 L 555.915789 363.012766 L 567.663158 265.553799 L 579.410526 200.192097 L 591.157895 179.328875 L 602.905263 346.964134 L 614.652632 296.337994 L 626.4 264.240729 L 638.147368 260.593313 L 649.894737 262.781763 L 661.642105 251.54772 L 673.389474 228.058359 L 685.136842 318.514286 L 696.884211 330.477812 L 708.631579 328.872948 L 720.378947 397.006687 L 732.126316 350.319757 L 743.873684 306.842553 L 755.621053 272.265046 L 767.368421 419.182979 L 779.115789 378.477812 L 790.863158 474.915502 L 802.610526 423.268085 L 814.357895 382.271125 L 826.105263 310.05228 L 837.852632 327.851672 L 849.6 397.006687 L 861.347368 441.505167 L 873.094737 309.031003 L 884.842105 467.037082 L 896.589474 418.891185 L 908.336842 339.523404 L 920.084211 400.070517 L 931.831579 418.745289 L 943.578947 461.493009 L 955.326316 445.29848 L 967.073684 419.766565 L 978.821053 443.401824 L 990.568421 345.213374 L 1002.315789 358.198176 L 1014.063158 420.058359 L 1025.810526 400.654103 L 1037.557895 437.128267 L 1049.305263 428.082675 L 1061.052632 440.629787 L 1072.8 374.976292 L 1084.547368 436.252888 L 1096.294737 462.368389 L 1108.042105 489.505167 L 1119.789474 475.790881 L 1131.536842 446.61155 L 1143.284211 452.009726 L 1155.031579 343.608511 L 1166.778947 367.535562 L 1178.526316 435.815198 L 1190.273684 414.222492 L 1202.021053 449.23769 L 1213.768421 441.79696 L 1225.515789 395.54772 L 1237.263158 367.827356 L 1249.010526 372.496049 L 1260.757895 403.280243 L 1272.505263 420.787842 L 1284.252632 432.167781 L 1296 427.499088 L 1307.747368 467.037082 L 1319.494737 479.000608 L 1331.242105 433.772644 L 1342.989474 472.143465 L 1354.736842 437.420061 L 1366.484211 470.538602 L 1378.231579 597.760486 L 1378.231579 592.8 L 1378.231579 592.8 L 1366.484211 462.806079 L 1354.736842 428.228571 L 1342.989474 464.265046 L 1331.242105 428.958055 L 1319.494737 475.936778 L 1307.747368 461.201216 L 1296 415.097872 L 1284.252632 422.100912 L 1272.505263 417.724012 L 1260.757895 387.815198 L 1249.010526 341.420061 L 1237.263158 352.216413 L 1225.515789 382.417021 L 1213.768421 425.748328 L 1202.021053 431.438298 L 1190.273684 401.091793 L 1178.526316 420.204255 L 1166.778947 344.483891 L 1155.031579 336.459574 L 1143.284211 442.818237 L 1131.536842 442.964134 L 1119.789474 463.973252 L 1108.042105 474.186018 L 1096.294737 441.213374 L 1084.547368 419.037082 L 1072.8 364.909422 L 1061.052632 434.939818 L 1049.305263 413.784802 L 1037.557895 431.730091 L 1025.810526 390.003647 L 1014.063158 405.322796 L 1002.315789 348.131307 L 990.568421 338.793921 L 978.821053 429.103951 L 967.073684 405.031003 L 955.326316 431.000608 L 943.578947 452.447416 L 931.831579 405.760486 L 920.084211 379.936778 L 908.336842 330.769605 L 896.589474 410.283283 L 884.842105 462.514286 L 873.094737 299.98541 L 861.347368 422.538602 L 849.6 375.997568 L 837.852632 317.201216 L 826.105263 293.420061 L 814.357895 374.246809 L 802.610526 412.179939 L 790.863158 462.660182 L 779.115789 368.556839 L 767.368421 400.654103 L 755.621053 261.1769 L 743.873684 292.252888 L 732.126316 344.192097 L 720.378947 390.441337 L 708.631579 312.532523 L 696.884211 319.097872 L 685.136842 302.903343 L 673.389474 203.11003 L 661.642105 223.389666 L 649.894737 236.228571 L 638.147368 240.459574 L 626.4 249.79696 L 614.652632 278.976292 L 602.905263 336.021884 L 591.157895 165.760486 L 579.410526 182.684498 L 567.663158 239.584195 L 555.915789 342.587234 L 544.168421 331.207295 L 532.421053 292.106991 L 520.673684 295.754407 L 508.926316 179.474772 L 497.178947 222.806079 L 485.431579 343.754407 L 473.684211 408.240729 L 461.936842 436.106991 L 450.189474 482.648024 L 438.442105 376.581155 L 426.694737 237.103951 L 414.947368 228.204255 L 403.2 317.930699 L 391.452632 326.538602 L 379.705263 304.070517 L 367.957895 395.693617 L 356.210526 377.310638 L 344.463158 343.754407 L 332.715789 317.784802 L 320.968421 376.289362 L 309.221053 361.407903 L 297.473684 359.657143 L 285.726316 404.447416 L 273.978947 369.140426 L 262.231579 176.994529 L 250.484211 244.836474 L 238.736842 340.982371 L 226.989474 404.30152 L 215.242105 452.009726 L 203.494737 476.520365 L 191.747368 409.699696 L 180 416.119149 z" clip-path="url(#p84b2e2e788)" fill="#91ccf0"/></g><g id="PolyCollection_8"><path d="M 180 414.806079 L 180 416.119149 L 191.747368 409.699696 L 203.494737 476.520365 L 215.242105 452.009726 L 226.989474 404.30152 L 238.736842 340.982371 L 250.484211 244.836474 L 262.231579 176.994529 L 273.978947 369.140426 L 285.726316 404.447416 L 297.473684 359.657143 L 309.221053 361.407903 L 320.968421 376.289362 L 332.715789 317.784802 L 344.463158 343.754407 L 356.210526 377.310638 L 367.957895 395.693617 L 379.705263 304.070517 L 391.452632 326.538602 L 403.2 317.930699 L 414.947368 228.204255 L 426.694737 237.103951 L 438.442105 376.581155 L 450.189474 482.648024 L 461.936842 436.106991 L 473.684211 408.240729 L 485.431579 343.754407 L 497.178947 222.806079 L 508.926316 179.474772 L 520.673684 295.754407 L 532.421053 292.106991 L 544.168421 331.207295 L 555.915789 342.587234 L 567.663158 239.584195 L 579.410526 182.684498 L 591.157895 165.760486 L 602.905263 336.021884 L 614.652632 278.976292 L 626.4 249.79696 L 638.147368 240.459574 L 649.894737 236.228571 L 661.642105 223.389666 L 673.389474 203.11003 L 685.136842 302.903343 L 696.884211 319.097872 L 708.631579 312.532523 L 720.378947 390.441337 L 732.126316 344.192097 L 743.873684 292.252888 L 755.621053 261.1769 L 767.368421 400.654103 L 779.115789 368.556839 L 790.863158 462.660182 L 802.610526 412.179939 L 814.357895 374.246809 L 826.105263 293.420061 L 837.852632 317.201216 L 849.6 375.997568 L 861.347368 422.538602 L 873.094737 299.98541 L 884.842105 462.514286 L 896.589474 410.283283 L 908.336842 330.769605 L 920.084211 379.936778 L 931.831579 405.760486 L 943.578947 452.447416 L 955.326316 431.000608 L 967.073684 405.031003 L 978.821053 429.103951 L 990.568421 338.793921 L 1002.315789 348.131307 L 1014.063158 405.322796 L 1025.810526 390.003647 L 1037.557895 431.730091 L 1049.305263 413.784802 L 1061.052632 434.939818 L 1072.8 364.909422 L 1084.547368 419.037082 L 1096.294737 441.213374 L 1108.042105 474.186018 L 1119.789474 463.973252 L 1131.536842 442.964134 L 1143.284211 442.818237 L 1155.031579 336.459574 L 1166.778947 344.483891 L 1178.526316 420.204255 L 1190.273684 401.091793 L 1202.021053 431.438298 L 1213.768421 425.748328 L 1225.515789 382.417021 L 1237.263158 352.216413 L 1249.010526 341.420061 L 1260.757895 387.815198 L 1272.505263 417.724012 L 1284.252632 422.100912 L 1296 415.097872 L 1307.747368 461.201216 L 1319.494737 475.936778 L 1331.242105 428.958055 L 1342.989474 464.265046 L 1354.736842 428.228571 L 1366.484211 462.806079 L 1378.231579 592.8 L 1378.231579 591.778723 L 1378.231579 591.778723 L 1366.484211 457.845593 L 1354.736842 425.164742 L 1342.989474 452.155623 L 1331.242105 425.018845 L 1319.494737 465.286322 L 1307.747368 453.031003 L 1296 407.657143 L 1284.252632 408.970213 L 1272.505263 412.034043 L 1260.757895 377.894225 L 1249.010526 329.602432 L 1237.263158 333.395745 L 1225.515789 373.809119 L 1213.768421 418.891185 L 1202.021053 425.602432 L 1190.273684 393.942857 L 1178.526316 415.827356 L 1166.778947 336.751368 L 1155.031579 325.225532 L 1143.284211 436.252888 L 1131.536842 436.982371 L 1119.789474 456.678419 L 1108.042105 469.663222 L 1096.294737 432.167781 L 1084.547368 410.575076 L 1072.8 354.258967 L 1061.052632 429.979331 L 1049.305263 397.73617 L 1037.557895 421.955015 L 1025.810526 378.623708 L 1014.063158 390.003647 L 1002.315789 339.669301 L 990.568421 327.997568 L 978.821053 415.681459 L 967.073684 395.255927 L 955.326316 420.496049 L 943.578947 446.757447 L 931.831579 393.067477 L 920.084211 364.763526 L 908.336842 312.532523 L 896.589474 399.632827 L 884.842105 449.967173 L 873.094737 287.875988 L 861.347368 412.909422 L 849.6 364.471733 L 837.852632 304.945897 L 826.105263 278.976292 L 814.357895 361.845593 L 802.610526 400.654103 L 790.863158 455.073556 L 779.115789 363.888146 L 767.368421 393.359271 L 755.621053 246.149544 L 743.873684 280.872948 L 732.126316 329.018845 L 720.378947 380.520365 L 708.631579 299.693617 L 696.884211 309.322796 L 685.136842 294.295441 L 673.389474 189.979331 L 661.642105 212.593313 L 649.894737 226.307599 L 638.147368 222.222492 L 626.4 235.353191 L 614.652632 266.866869 L 602.905263 327.997568 L 591.157895 143.875988 L 579.410526 154.380547 L 567.663158 230.392705 L 555.915789 329.310638 L 544.168421 322.891185 L 532.421053 285.103951 L 520.673684 287.730091 L 508.926316 160.945897 L 497.178947 216.824316 L 485.431579 339.961094 L 473.684211 400.945897 L 461.936842 427.499088 L 450.189474 471.705775 L 438.442105 364.909422 L 426.694737 224.410942 L 414.947368 217.553799 L 403.2 304.36231 L 391.452632 315.158663 L 379.705263 294.587234 L 367.957895 389.565957 L 356.210526 364.763526 L 344.463158 329.164742 L 332.715789 304.8 L 320.968421 361.262006 L 309.221053 346.964134 L 297.473684 345.651064 L 285.726316 383.730091 L 273.978947 354.55076 L 262.231579 158.903343 L 250.484211 229.955015 L 238.736842 337.626748 L 226.989474 394.23465 L 215.242105 445.590274 L 203.494737 463.097872 L 191.747368 402.98845 L 180 414.806079 z" clip-path="url(#p84b2e2e788)" fill="#aaf155"/></g><g id="PolyCollection_9"><path d="M 180 409.407903 L 180 414.806079 L 191.747368 402.98845 L 203.494737 463.097872 L 215.242105 445.590274 L 226.989474 394.23465 L 238.736842 337.626748 L 250.484211 229.955015 L 262.231579 158.903343 L 273.978947 354.55076 L 285.726316 383.730091 L 297.473684 345.651064 L 309.221053 346.964134 L 320.968421 361.262006 L 332.715789 304.8 L 344.463158 329.164742 L 356.210526 364.763526 L 367.957895 389.565957 L 379.705263 294.587234 L 391.452632 315.158663 L 403.2 304.36231 L 414.947368 217.553799 L 426.694737 224.410942 L 438.442105 364.909422 L 450.189474 471.705775 L 461.936842 427.499088 L 473.684211 400.945897 L 485.431579 339.961094 L 497.178947 216.824316 L 508.926316 160.945897 L 520.673684 287.730091 L 532.421053 285.103951 L 544.168421 322.891185 L 555.915789 329.310638 L 567.663158 230.392705 L 579.410526 154.380547 L 591.157895 143.875988 L 602.905263 327.997568 L 614.652632 266.866869 L 626.4 235.353191 L 638.147368 222.222492 L 649.894737 226.307599 L 661.642105 212.593313 L 673.389474 189.979331 L 685.136842 294.295441 L 696.884211 309.322796 L 708.631579 299.693617 L 720.378947 380.520365 L 732.126316 329.018845 L 743.873684 280.872948 L 755.621053 246.149544 L 767.368421 393.359271 L 779.115789 363.888146 L 790.863158 455.073556 L 802.610526 400.654103 L 814.357895 361.845593 L 826.105263 278.976292 L 837.852632 304.945897 L 849.6 364.471733 L 861.347368 412.909422 L 873.094737 287.875988 L 884.842105 449.967173 L 896.589474 399.632827 L 908.336842 312.532523 L 920.084211 364.763526 L 931.831579 393.067477 L 943.578947 446.757447 L 955.326316 420.496049 L 967.073684 395.255927 L 978.821053 415.681459 L 990.568421 327.997568 L 1002.315789 339.669301 L 1014.063158 390.003647 L 1025.810526 378.623708 L 1037.557895 421.955015 L 1049.305263 397.73617 L 1061.052632 429.979331 L 1072.8 354.258967 L 1084.547368 410.575076 L 1096.294737 432.167781 L 1108.042105 469.663222 L 1119.789474 456.678419 L 1131.536842 436.982371 L 1143.284211 436.252888 L 1155.031579 325.225532 L 1166.778947 336.751368 L 1178.526316 415.827356 L 1190.273684 393.942857 L 1202.021053 425.602432 L 1213.768421 418.891185 L 1225.515789 373.809119 L 1237.263158 333.395745 L 1249.010526 329.602432 L 1260.757895 377.894225 L 1272.505263 412.034043 L 1284.252632 408.970213 L 1296 407.657143 L 1307.747368 453.031003 L 1319.494737 465.286322 L 1331.242105 425.018845 L 1342.989474 452.155623 L 1354.736842 425.164742 L 1366.484211 457.845593 L 1378.231579 591.778723 L 1378.231579 586.380547 L 1378.231579 586.380547 L 1366.484211 446.17386 L 1354.736842 404.30152 L 1342.989474 445.29848 L 1331.242105 417.578116 L 1319.494737 457.116109 L 1307.747368 442.526444 L 1296 404.447416 L 1284.252632 401.529483 L 1272.505263 397.006687 L 1260.757895 364.179939 L 1249.010526 317.930699 L 1237.263158 328.727052 L 1225.515789 366.660182 L 1213.768421 414.368389 L 1202.021053 409.845593 L 1190.273684 379.936778 L 1178.526316 399.341033 L 1166.778947 309.468693 L 1155.031579 304.508207 L 1143.284211 414.222492 L 1131.536842 419.912462 L 1119.789474 435.961094 L 1108.042105 455.511246 L 1096.294737 413.201216 L 1084.547368 395.839514 L 1072.8 345.651064 L 1061.052632 417.432219 L 1049.305263 383.730091 L 1037.557895 400.508207 L 1025.810526 367.827356 L 1014.063158 378.331915 L 1002.315789 328.289362 L 990.568421 312.240729 L 978.821053 408.970213 L 967.073684 388.398784 L 955.326316 406.635866 L 943.578947 430.271125 L 931.831579 365.055319 L 920.084211 341.420061 L 908.336842 302.027964 L 896.589474 389.128267 L 884.842105 439.024924 L 873.094737 276.058359 L 861.347368 404.155623 L 849.6 350.61155 L 837.852632 277.371429 L 826.105263 258.842553 L 814.357895 345.505167 L 802.610526 384.751368 L 790.863158 426.477812 L 779.115789 347.11003 L 767.368421 377.748328 L 755.621053 226.599392 L 743.873684 267.012766 L 732.126316 310.48997 L 720.378947 361.845593 L 708.631579 287.000608 L 696.884211 296.046201 L 685.136842 275.328875 L 673.389474 166.198176 L 661.642105 185.018845 L 649.894737 194.356231 L 638.147368 199.024924 L 626.4 211.280243 L 614.652632 241.043161 L 602.905263 305.967173 L 591.157895 112.945897 L 579.410526 128.410942 L 567.663158 198.587234 L 555.915789 317.055319 L 544.168421 303.632827 L 532.421053 271.389666 L 520.673684 272.848632 L 508.926316 139.936778 L 497.178947 201.067477 L 485.431579 324.933739 L 473.684211 377.164742 L 461.936842 418.891185 L 450.189474 464.556839 L 438.442105 343.024924 L 426.694737 202.088754 L 414.947368 195.085714 L 403.2 284.520365 L 391.452632 300.277204 L 379.705263 277.225532 L 367.957895 372.496049 L 356.210526 354.404863 L 344.463158 311.948936 L 332.715789 281.310638 L 320.968421 349.29848 L 309.221053 333.541641 L 297.473684 328.143465 L 285.726316 345.79696 L 273.978947 320.410942 L 262.231579 133.517325 L 250.484211 217.845593 L 238.736842 330.186018 L 226.989474 388.836474 L 215.242105 436.836474 L 203.494737 444.131307 L 191.747368 391.462614 L 180 409.407903 z" clip-path="url(#p84b2e2e788)" fill="#f0c097"/></g><g id="PolyCollection_10"><path d="M 180 409.407903 L 180 409.407903 L 191.747368 391.462614 L 203.494737 444.131307 L 215.242105 436.836474 L 226.989474 388.836474 L 238.736842 330.186018 L 250.484211 217.845593 L 262.231579 133.517325 L 273.978947 320.410942 L 285.726316 345.79696 L 297.473684 328.143465 L 309.221053 333.541641 L 320.968421 349.29848 L 332.715789 281.310638 L 344.463158 311.948936 L 356.210526 354.404863 L 367.957895 372.496049 L 379.705263 277.225532 L 391.452632 300.277204 L 403.2 284.520365 L 414.947368 195.085714 L 426.694737 202.088754 L 438.442105 343.024924 L 450.189474 464.556839 L 461.936842 418.891185 L 473.684211 377.164742 L 485.431579 324.933739 L 497.178947 201.067477 L 508.926316 139.936778 L 520.673684 272.848632 L 532.421053 271.389666 L 544.168421 303.632827 L 555.915789 317.055319 L 567.663158 198.587234 L 579.410526 128.410942 L 591.157895 112.945897 L 602.905263 305.967173 L 614.652632 241.043161 L 626.4 211.280243 L 638.147368 199.024924 L 649.894737 194.356231 L 661.642105 185.018845 L 673.389474 166.198176 L 685.136842 275.328875 L 696.884211 296.046201 L 708.631579 287.000608 L 720.378947 361.845593 L 732.126316 310.48997 L 743.873684 267.012766 L 755.621053 226.599392 L 767.368421 377.748328 L 779.115789 347.11003 L 790.863158 426.477812 L 802.610526 384.751368 L 814.357895 345.505167 L 826.105263 258.842553 L 837.852632 277.371429 L 849.6 350.61155 L 861.347368 404.155623 L 873.094737 276.058359 L 884.842105 439.024924 L 896.589474 389.128267 L 908.336842 302.027964 L 920.084211 341.420061 L 931.831579 365.055319 L 943.578947 430.271125 L 955.326316 406.635866 L 967.073684 388.398784 L 978.821053 408.970213 L 990.568421 312.240729 L 1002.315789 328.289362 L 1014.063158 378.331915 L 1025.810526 367.827356 L 1037.557895 400.508207 L 1049.305263 383.730091 L 1061.052632 417.432219 L 1072.8 345.651064 L 1084.547368 395.839514 L 1096.294737 413.201216 L 1108.042105 455.511246 L 1119.789474 435.961094 L 1131.536842 419.912462 L 1143.284211 414.222492 L 1155.031579 304.508207 L 1166.778947 309.468693 L 1178.526316 399.341033 L 1190.273684 379.936778 L 1202.021053 409.845593 L 1213.768421 414.368389 L 1225.515789 366.660182 L 1237.263158 328.727052 L 1249.010526 317.930699 L 1260.757895 364.179939 L 1272.505263 397.006687 L 1284.252632 401.529483 L 1296 404.447416 L 1307.747368 442.526444 L 1319.494737 457.116109 L 1331.242105 417.578116 L 1342.989474 445.29848 L 1354.736842 404.30152 L 1366.484211 446.17386 L 1378.231579 586.380547 L 1378.231579 584.921581 L 1378.231579 584.921581 L 1366.484211 445.444377 L 1354.736842 398.465653 L 1342.989474 442.67234 L 1331.242105 409.991489 L 1319.494737 450.55076 L 1307.747368 439.024924 L 1296 403.572036 L 1284.252632 401.383587 L 1272.505263 393.79696 L 1260.757895 358.781763 L 1249.010526 317.930699 L 1237.263158 328.289362 L 1225.515789 366.660182 L 1213.768421 414.222492 L 1202.021053 408.678419 L 1190.273684 377.602432 L 1178.526316 399.341033 L 1166.778947 308.009726 L 1155.031579 300.277204 L 1143.284211 409.845593 L 1131.536842 418.453495 L 1119.789474 434.064438 L 1108.042105 452.885106 L 1096.294737 405.031003 L 1084.547368 393.942857 L 1072.8 345.505167 L 1061.052632 417.432219 L 1049.305263 383.438298 L 1037.557895 400.070517 L 1025.810526 363.012766 L 1014.063158 378.331915 L 1002.315789 313.116109 L 990.568421 301.73617 L 978.821053 400.945897 L 967.073684 387.815198 L 955.326316 405.468693 L 943.578947 428.228571 L 931.831579 364.909422 L 920.084211 339.669301 L 908.336842 300.568997 L 896.589474 384.459574 L 884.842105 438.587234 L 873.094737 269.930699 L 861.347368 403.86383 L 849.6 347.54772 L 837.852632 276.204255 L 826.105263 256.216413 L 814.357895 336.897264 L 802.610526 380.228571 L 790.863158 424.727052 L 779.115789 339.523404 L 767.368421 374.246809 L 755.621053 219.450456 L 743.873684 264.824316 L 732.126316 302.319757 L 720.378947 352.8 L 708.631579 281.310638 L 696.884211 294.879027 L 685.136842 270.660182 L 673.389474 163.42614 L 661.642105 184.872948 L 649.894737 193.772644 L 638.147368 197.711854 L 626.4 211.134347 L 614.652632 236.082675 L 602.905263 303.195137 L 591.157895 112.8 L 579.410526 127.973252 L 567.663158 197.857751 L 555.915789 316.909422 L 544.168421 294.441337 L 532.421053 270.806079 L 520.673684 264.678419 L 508.926316 130.161702 L 497.178947 194.356231 L 485.431579 313.991489 L 473.684211 367.243769 L 461.936842 416.410942 L 450.189474 464.410942 L 438.442105 341.420061 L 426.694737 196.544681 L 414.947368 191.730091 L 403.2 276.933739 L 391.452632 298.088754 L 379.705263 276.787842 L 367.957895 368.265046 L 356.210526 342.441337 L 344.463158 284.374468 L 332.715789 258.258967 L 320.968421 348.277204 L 309.221053 322.015805 L 297.473684 313.991489 L 285.726316 345.651064 L 273.978947 319.389666 L 262.231579 125.930699 L 250.484211 205.152584 L 238.736842 325.663222 L 226.989474 379.061398 L 215.242105 435.377508 L 203.494737 441.79696 L 191.747368 386.648024 L 180 409.407903 z" clip-path="url(#p84b2e2e788)" fill="#16234f"/></g><g id="matplotlib.axis_1"><g id="xtick_1"><g id="line2d_1"><defs><path id="m20145753ed" d="M 0 0 L 0 3.5" stroke="#ffffff" stroke-width="0.8"/></defs><g><use xlink:href="#m20145753ed" x="180" y="640.8" fill="#ffffff" stroke="#ffffff" stroke-width="0.8"/></g></g><g id="text_1"><g transform="translate(176.81875 655.398438) scale(0.1 -0.1)" fill="#ffffff"><defs><path id="DejaVuSans-30" d="M 2034 4250 Q 1547 4250 1301 3770 Q 1056 3291 1056 2328 Q 1056 1369 1301 889 Q 1547 409 2034 409 Q 2525 409 2770 889 Q 3016 1369 3016 2328 Q 3016 3291 2770 3770 Q 2525 4250 2034 4250 z M 2034 4750 Q 2819 4750 3233 4129 Q 3647 3509 3647 2328 Q 3647 1150 3233 529 Q 2819 -91 2034 -91 Q 1250 -91 836 529 Q 422 1150 422 2328 Q 422 3509 836 4129 Q 1250 4750 2034 4750 z" transform="scale(0.015625)"/></defs><use xlink:href="#DejaVuSans-30"/></g></g></g><g id="xtick_2"><g id="line2d_2"><g><use xlink:href="#m20145753ed" x="414.947" y="640.8" fill="#ffffff" stroke="#ffffff" stroke-width="0.8"/></g></g><g id="text_2"><g transform="translate(408.584868 655.398438) scale(0.1 -0.1)" fill="#ffffff"><defs><path id="DejaVuSans-32" d="M 1228 531 L 3431 531 L 3431 0 L 469 0 L 469 531 Q 828 903 1448 1529 Q 2069 2156 2228 2338 Q 2531 2678 2651 2914 Q 2772 3150 2772 3378 Q 2772 3750 2511 3984 Q 2250 4219 1831 4219 Q 1534 4219 1204 4116 Q 875 4013 500 3803 L 500 4441 Q 881 4594 1212 4672 Q 1544 4750 1819 4750 Q 2544 4750 2975 4387 Q 3406 4025 3406 3419 Q 3406 3131 3298 2873 Q 3191 2616 2906 2266 Q 2828 2175 2409 1742 Q 1991 1309 1228 531 z" transform="scale(0.015625)"/></defs><use xlink:href="#DejaVuSans-32"/><use xlink:href="#DejaVuSans-30" x="63.623"/></g></g></g><g id="xtick_3"><g id="line2d_3"><g><use xlink:href="#m20145753ed" x="649.895" y="640.8" fill="#ffffff" stroke="#ffffff" stroke-width="0.8"/></g></g><g id="text_3"><g transform="translate(643.532237 655.398438) scale(0.1 -0.1)" fill="#ffffff"><defs><path id="DejaVuSans-34" d="M 2419 4116 L 825 1625 L 2419 1625 L 2419 4116 z M 2253 4666 L 3047 4666 L 3047 1625 L 3713 1625 L 3713 1100 L 3047 1100 L 3047 0 L 2419 0 L 2419 1100 L 313 1100 L 313 1709 L 2253 4666 z" transform="scale(0.015625)"/></defs><use xlink:href="#DejaVuSans-34"/><use xlink:href="#DejaVuSans-30" x="63.623"/></g></g></g><g id="xtick_4"><g id="line2d_4"><g><use xlink:href="#m20145753ed" x="884.842" y="640.8" fill="#ffffff" stroke="#ffffff" stroke-width="0.8"/></g></g><g id="text_4"><g transform="translate(878.479605 655.398438) scale(0.1 -0.1)" fill="#ffffff"><defs><path id="DejaVuSans-36" d="M 2113 2584 Q 1688 2584 1439 2293 Q 1191 2003 1191 1497 Q 1191 994 1439 701 Q 1688 409 2113 409 Q 2538 409 2786 701 Q 3034 994 3034 1497 Q 3034 2003 2786 2293 Q 2538 2584 2113 2584 z M 3366 4563 L 3366 3988 Q 3128 4100 2886 4159 Q 2644 4219 2406 4219 Q 1781 4219 1451 3797 Q 1122 3375 1075 2522 Q 1259 2794 1537 2939 Q 1816 3084 2150 3084 Q 2853 3084 3261 2657 Q 3669 2231 3669 1497 Q 3669 778 3244 343 Q 2819 -91 2113 -91 Q 1303 -91 875 529 Q 447 1150 447 2328 Q 447 3434 972 4092 Q 1497 4750 2381 4750 Q 2619 4750 2861 4703 Q 3103 4656 3366 4563 z" transform="scale(0.015625)"/></defs><use xlink:href="#DejaVuSans-36"/><use xlink:href="#DejaVuSans-30" x="63.623"/></g></g></g><g id="xtick_5"><g id="line2d_5"><g><use xlink:href="#m20145753ed" x="1119.789" y="640.8" fill="#ffffff" stroke="#ffffff" stroke-width="0.8"/></g></g><g id="text_5"><g transform="translate(1113.426974 655.398438) scale(0.1 -0.1)" fill="#ffffff"><defs><path id="DejaVuSans-38" d="M 2034 2216 Q 1584 2216 1326 1975 Q 1069 1734 1069 1313 Q 1069 891 1326 650 Q 1584 409 2034 409 Q 2484 409 2743 651 Q 3003 894 3003 1313 Q 3003 1734 2745 1975 Q 2488 2216 2034 2216 z M 1403 2484 Q 997 2584 770 2862 Q 544 3141 544 3541 Q 544 4100 942 4425 Q 1341 4750 2034 4750 Q 2731 4750 3128 4425 Q 3525 4100 3525 3541 Q 3525 3141 3298 2862 Q 3072 2584 2669 2484 Q 3125 2378 3379 2068 Q 3634 1759 3634 1313 Q 3634 634 3220 271 Q 2806 -91 2034 -91 Q 1263 -91 848 271 Q 434 634 434 1313 Q 434 1759 690 2068 Q 947 2378 1403 2484 z M 1172 3481 Q 1172 3119 1398 2916 Q 1625 2713 2034 2713 Q 2441 2713 2670 2916 Q 2900 3119 2900 3481 Q 2900 3844 2670 4047 Q 2441 4250 2034 4250 Q 1625 4250 1398 4047 Q 1172 3844 1172 3481 z" transform="scale(0.015625)"/></defs><use xlink:href="#DejaVuSans-38"/><use xlink:href="#DejaVuSans-30" x="63.623"/></g></g></g><g id="xtick_6"><g id="line2d_6"><defs><path id="m7c56798d7f" d="M 0 0 L 0 2" stroke="#ffffff" stroke-width="0.6"/></defs><g><use xlink:href="#m7c56798d7f" x="238.737" y="640.8" fill="#ffffff" stroke="#ffffff" stroke-width="0.6"/></g></g></g><g id="xtick_7"><g id="line2d_7"><g><use xlink:href="#m7c56798d7f" x="297.474" y="640.8" fill="#ffffff" stroke="#ffffff" stroke-width="0.6"/></g></g></g><g id="xtick_8"><g id="line2d_8"><g><use xlink:href="#m7c56798d7f" x="356.211" y="640.8" fill="#ffffff" stroke="#ffffff" stroke-width="0.6"/></g></g></g><g id="xtick_9"><g id="line2d_9"><g><use xlink:href="#m7c56798d7f" x="473.684" y="640.8" fill="#ffffff" stroke="#ffffff" stroke-width="0.6"/></g></g></g><g id="xtick_10"><g id="line2d_10"><g><use xlink:href="#m7c56798d7f" x="532.421" y="640.8" fill="#ffffff" stroke="#ffffff" stroke-width="0.6"/></g></g></g><g id="xtick_11"><g id="line2d_11"><g><use xlink:href="#m7c56798d7f" x="591.158" y="640.8" fill="#ffffff" stroke="#ffffff" stroke-width="0.6"/></g></g></g><g id="xtick_12"><g id="line2d_12"><g><use xlink:href="#m7c56798d7f" x="708.632" y="640.8" fill="#ffffff" stroke="#ffffff" stroke-width="0.6"/></g></g></g><g id="xtick_13"><g id="line2d_13"><g><use xlink:href="#m7c56798d7f" x="767.368" y="640.8" fill="#ffffff" stroke="#ffffff" stroke-width="0.6"/></g></g></g><g id="xtick_14"><g id="line2d_14"><g><use xlink:href="#m7c56798d7f" x="826.105" y="640.8" fill="#ffffff" stroke="#ffffff" stroke-width="0.6"/></g></g></g><g id="xtick_15"><g id="line2d_15"><g><use xlink:href="#m7c56798d7f" x="943.579" y="640.8" fill="#ffffff" stroke="#ffffff" stroke-width="0.6"/></g></g></g><g id="xtick_16"><g id="line2d_16"><g><use xlink:href="#m7c56798d7f" x="1002.316" y="640.8" fill="#ffffff" stroke="#ffffff" stroke-width="0.6"/></g></g></g><g id="xtick_17"><g id="line2d_17"><g><use xlink:href="#m7c56798d7f" x="1061.053" y="640.8" fill="#ffffff" stroke="#ffffff" stroke-width="0.6"/></g></g></g><g id="xtick_18"><g id="line2d_18"><g><use xlink:href="#m7c56798d7f" x="1178.526" y="640.8" fill="#ffffff" stroke="#ffffff" stroke-width="0.6"/></g></g></g><g id="xtick_19"><g id="line2d_19"><g><use xlink:href="#m7c56798d7f" x="1237.263" y="640.8" fill="#ffffff" stroke="#ffffff" stroke-width="0.6"/></g></g></g><g id="xtick_20"><g id="line2d_20"><g><use xlink:href="#m7c56798d7f" x="1296" y="640.8" fill="#ffffff" stroke="#ffffff" stroke-width="0.6"/></g></g></g><g id="text_6"><g transform="translate(664.841406 669.076563) scale(0.1 -0.1)" fill="#ffffff"><defs><path id="DejaVuSans-44" d="M 1259 4147 L 1259 519 L 2022 519 Q 2988 519 3436 956 Q 3884 1394 3884 2338 Q 3884 3275 3436 3711 Q 2988 4147 2022 4147 L 1259 4147 z M 628 4666 L 1925 4666 Q 3281 4666 3915 4102 Q 4550 3538 4550 2338 Q 4550 1131 3912 565 Q 3275 0 1925 0 L 628 0 L 628 4666 z" transform="scale(0.015625)"/><path id="DejaVuSans-61" d="M 2194 1759 Q 1497 1759 1228 1600 Q 959 1441 959 1056 Q 959 750 1161 570 Q 1363 391 1709 391 Q 2188 391 2477 730 Q 2766 1069 2766 1631 L 2766 1759 L 2194 1759 z M 3341 1997 L 3341 0 L 2766 0 L 2766 531 Q 2569 213 2275 61 Q 1981 -91 1556 -91 Q 1019 -91 701 211 Q 384 513 384 1019 Q 384 1609 779 1909 Q 1175 2209 1959 2209 L 2766 2209 L 2766 2266 Q 2766 2663 2505 2880 Q 2244 3097 1772 3097 Q 1472 3097 1187 3025 Q 903 2953 641 2809 L 641 3341 Q 956 3463 1253 3523 Q 1550 3584 1831 3584 Q 2591 3584 2966 3190 Q 3341 2797 3341 1997 z" transform="scale(0.015625)"/><path id="DejaVuSans-79" d="M 2059 -325 Q 1816 -950 1584 -1140 Q 1353 -1331 966 -1331 L 506 -1331 L 506 -850 L 844 -850 Q 1081 -850 1212 -737 Q 1344 -625 1503 -206 L 1606 56 L 191 3500 L 800 3500 L 1894 763 L 2988 3500 L 3597 3500 L 2059 -325 z" transform="scale(0.015625)"/><path id="DejaVuSans-73" d="M 2834 3397 L 2834 2853 Q 2591 2978 2328 3040 Q 2066 3103 1784 3103 Q 1356 3103 1142 2972 Q 928 2841 928 2578 Q 928 2378 1081 2264 Q 1234 2150 1697 2047 L 1894 2003 Q 2506 1872 2764 1633 Q 3022 1394 3022 966 Q 3022 478 2636 193 Q 2250 -91 1575 -91 Q 1294 -91 989 -36 Q 684 19 347 128 L 347 722 Q 666 556 975 473 Q 1284 391 1588 391 Q 1994 391 2212 530 Q 2431 669 2431 922 Q 2431 1156 2273 1281 Q 2116 1406 1581 1522 L 1381 1569 Q 847 1681 609 1914 Q 372 2147 372 2553 Q 372 3047 722 3315 Q 1072 3584 1716 3584 Q 2034 3584 2315 3537 Q 2597 3491 2834 3397 z" transform="scale(0.015625)"/><path id="DejaVuSans-20" transform="scale(0.015625)"/><path id="DejaVuSans-69" d="M 603 3500 L 1178 3500 L 1178 0 L 603 0 L 603 3500 z M 603 4863 L 1178 4863 L 1178 4134 L 603 4134 L 603 4863 z" transform="scale(0.015625)"/><path id="DejaVuSans-6e" d="M 3513 2113 L 3513 0 L 2938 0 L 2938 2094 Q 2938 2591 2744 2837 Q 2550 3084 2163 3084 Q 1697 3084 1428 2787 Q 1159 2491 1159 1978 L 1159 0 L 581 0 L 581 3500 L 1159 3500 L 1159 2956 Q 1366 3272 1645 3428 Q 1925 3584 2291 3584 Q 2894 3584 3203 3211 Q 3513 2838 3513 2113 z" transform="scale(0.015625)"/><path id="DejaVuSans-63" d="M 3122 3366 L 3122 2828 Q 2878 2963 2633 3030 Q 2388 3097 2138 3097 Q 1578 3097 1268 2742 Q 959 2388 959 1747 Q 959 1106 1268 751 Q 1578 397 2138 397 Q 2388 397 2633 464 Q 2878 531 3122 666 L 3122 134 Q 2881 22 2623 -34 Q 2366 -91 2075 -91 Q 1284 -91 818 406 Q 353 903 353 1747 Q 353 2603 823 3093 Q 1294 3584 2113 3584 Q 2378 3584 2631 3529 Q 2884 3475 3122 3366 z" transform="scale(0.015625)"/><path id="DejaVuSans-65" d="M 3597 1894 L 3597 1613 L 953 1613 Q 991 1019 1311 708 Q 1631 397 2203 397 Q 2534 397 2845 478 Q 3156 559 3463 722 L 3463 178 Q 3153 47 2828 -22 Q 2503 -91 2169 -91 Q 1331 -91 842 396 Q 353 884 353 1716 Q 353 2575 817 3079 Q 1281 3584 2069 3584 Q 2775 3584 3186 3129 Q 3597 2675 3597 1894 z M 3022 2063 Q 3016 2534 2758 2815 Q 2500 3097 2075 3097 Q 1594 3097 1305 2825 Q 1016 2553 972 2059 L 3022 2063 z" transform="scale(0.015625)"/><path id="DejaVuSans-2f" d="M 1625 4666 L 2156 4666 L 531 -594 L 0 -594 L 1625 4666 z" transform="scale(0.015625)"/><path id="DejaVuSans-33" d="M 2597 2516 Q 3050 2419 3304 2112 Q 3559 1806 3559 1356 Q 3559 666 3084 287 Q 2609 -91 1734 -91 Q 1441 -91 1130 -33 Q 819 25 488 141 L 488 750 Q 750 597 1062 519 Q 1375 441 1716 441 Q 2309 441 2620 675 Q 2931 909 2931 1356 Q 2931 1769 2642 2001 Q 2353 2234 1838 2234 L 1294 2234 L 1294 2753 L 1863 2753 Q 2328 2753 2575 2939 Q 2822 3125 2822 3475 Q 2822 3834 2567 4026 Q 2313 4219 1838 4219 Q 1578 4219 1281 4162 Q 984 4106 628 3988 L 628 4550 Q 988 4650 1302 4700 Q 1616 4750 1894 4750 Q 2613 4750 3031 4423 Q 3450 4097 3450 3541 Q 3450 3153 3228 2886 Q 3006 2619 2597 2516 z" transform="scale(0.015625)"/><path id="DejaVuSans-28" d="M 1984 4856 Q 1566 4138 1362 3434 Q 1159 2731 1159 2009 Q 1159 1288 1364 580 Q 1569 -128 1984 -844 L 1484 -844 Q 1016 -109 783 600 Q 550 1309 550 2009 Q 550 2706 781 3412 Q 1013 4119 1484 4856 L 1984 4856 z" transform="scale(0.015625)"/><path id="DejaVuSans-55" d="M 556 4666 L 1191 4666 L 1191 1831 Q 1191 1081 1462 751 Q 1734 422 2344 422 Q 2950 422 3222 751 Q 3494 1081 3494 1831 L 3494 4666 L 4128 4666 L 4128 1753 Q 4128 841 3676 375 Q 3225 -91 2344 -91 Q 1459 -91 1007 375 Q 556 841 556 1753 L 556 4666 z" transform="scale(0.015625)"/><path id="DejaVuSans-43" d="M 4122 4306 L 4122 3641 Q 3803 3938 3442 4084 Q 3081 4231 2675 4231 Q 1875 4231 1450 3742 Q 1025 3253 1025 2328 Q 1025 1406 1450 917 Q 1875 428 2675 428 Q 3081 428 3442 575 Q 3803 722 4122 1019 L 4122 359 Q 3791 134 3420 21 Q 3050 -91 2638 -91 Q 1578 -91 968 557 Q 359 1206 359 2328 Q 359 3453 968 4101 Q 1578 4750 2638 4750 Q 3056 4750 3426 4639 Q 3797 4528 4122 4306 z" transform="scale(0.015625)"/><path id="DejaVuSans-54" d="M -19 4666 L 3928 4666 L 3928 4134 L 2272 4134 L 2272 0 L 1638 0 L 1638 4134 L -19 4134 L -19 4666 z" transform="scale(0.015625)"/><path id="DejaVuSans-29" d="M 513 4856 L 1013 4856 Q 1481 4119 1714 3412 Q 1947 2706 1947 2009 Q 1947 1309 1714 600 Q 1481 -109 1013 -844 L 513 -844 Q 928 -128 1133 580 Q 1338 1288 1338 2009 Q 1338 2731 1133 3434 Q 928 4138 513 4856 z" transform="scale(0.015625)"/></defs><use xlink:href="#DejaVuSans-44"/><use xlink:href="#DejaVuSans-61" x="77.002"/><use xlink:href="#DejaVuSans-79" x="138.281"/><use xlink:href="#DejaVuSans-73" x="197.461"/><use xlink:href="#DejaVuSans-20" x="249.561"/><use xlink:href="#DejaVuSans-73" x="281.348"/><use xlink:href="#DejaVuSans-69" x="333.447"/><use xlink:href="#DejaVuSans-6e" x="361.23"/><use xlink:href="#DejaVuSans-63" x="424.609"/><use xlink:href="#DejaVuSans-65" x="479.59"/><use xlink:href="#DejaVuSans-20" x="541.113"/><use xlink:href="#DejaVuSans-32" x="572.9"/><use xlink:href="#DejaVuSans-36" x="636.523"/><use xlink:href="#DejaVuSans-2f" x="700.146"/><use xlink:href="#DejaVuSans-30" x="733.838"/><use xlink:href="#DejaVuSans-32" x="797.461"/><use xlink:href="#DejaVuSans-2f" x="861.084"/><use xlink:href="#DejaVuSans-32" x="894.775"/><use xlink:href="#DejaVuSans-30" x="958.398"/><use xlink:href="#DejaVuSans-32" x="1022.021"/><use xlink:href="#DejaVuSans-33" x="1085.645"/><use xlink:href="#DejaVuSans-20" x="1149.268"/><use xlink:href="#DejaVuSans-28" x="1181.055"/><use xlink:href="#DejaVuSans-55" x="1220.068"/><use xlink:href="#DejaVuSans-43" x="1293.262"/><use xlink:href="#DejaVuSans-54" x="1363.086"/><use xlink:href="#DejaVuSans-29" x="1424.17"/></g></g></g><g id="matplotlib.axis_2"><g id="ytick_1"><g id="line2d_21"><defs><path id="m9a151f286a" d="M 0 0 L -3.5 0" stroke="#ffffff" stroke-width="0.8"/></defs><g><use xlink:href="#m9a151f286a" x="180" y="640.8" fill="#ffffff" stroke="#ffffff" stroke-width="0.8"/></g></g><g id="text_7"><g transform="translate(166.6375 644.599219) scale(0.1 -0.1)" fill="#ffffff"><use xlink:href="#DejaVuSans-30"/></g></g></g><g id="ytick_2"><g id="line2d_22"><g><use xlink:href="#m9a151f286a" x="180" y="567.852" fill="#ffffff" stroke="#ffffff" stroke-width="0.8"/></g></g><g id="text_8"><g transform="translate(153.9125 571.65089) scale(0.1 -0.1)" fill="#ffffff"><defs><path id="DejaVuSans-35" d="M 691 4666 L 3169 4666 L 3169 4134 L 1269 4134 L 1269 2991 Q 1406 3038 1543 3061 Q 1681 3084 1819 3084 Q 2600 3084 3056 2656 Q 3513 2228 3513 1497 Q 3513 744 3044 326 Q 2575 -91 1722 -91 Q 1428 -91 1123 -41 Q 819 9 494 109 L 494 744 Q 775 591 1075 516 Q 1375 441 1709 441 Q 2250 441 2565 725 Q 2881 1009 2881 1497 Q 2881 1984 2565 2268 Q 2250 2553 1709 2553 Q 1456 2553 1204 2497 Q 953 2441 691 2322 L 691 4666 z" transform="scale(0.015625)"/></defs><use xlink:href="#DejaVuSans-35"/><use xlink:href="#DejaVuSans-30" x="63.623"/><use xlink:href="#DejaVuSans-30" x="127.246"/></g></g></g><g id="ytick_3"><g id="line2d_23"><g><use xlink:href="#m9a151f286a" x="180" y="494.903" fill="#ffffff" stroke="#ffffff" stroke-width="0.8"/></g></g><g id="text_9"><g transform="translate(147.55 498.702562) scale(0.1 -0.1)" fill="#ffffff"><defs><path id="DejaVuSans-31" d="M 794 531 L 1825 531 L 1825 4091 L 703 3866 L 703 4441 L 1819 4666 L 2450 4666 L 2450 531 L 3481 531 L 3481 0 L 794 0 L 794 531 z" transform="scale(0.015625)"/></defs><use xlink:href="#DejaVuSans-31"/><use xlink:href="#DejaVuSans-30" x="63.623"/><use xlink:href="#DejaVuSans-30" x="127.246"/><use xlink:href="#DejaVuSans-30" x="190.869"/></g></g></g><g id="ytick_4"><g id="line2d_24"><g><use xlink:href="#m9a151f286a" x="180" y="421.955" fill="#ffffff" stroke="#ffffff" stroke-width="0.8"/></g></g><g id="text_10"><g transform="translate(147.55 425.754234) scale(0.1 -0.1)" fill="#ffffff"><use xlink:href="#DejaVuSans-31"/><use xlink:href="#DejaVuSans-35" x="63.623"/><use xlink:href="#DejaVuSans-30" x="127.246"/><use xlink:href="#DejaVuSans-30" x="190.869"/></g></g></g><g id="ytick_5"><g id="line2d_25"><g><use xlink:href="#m9a151f286a" x="180" y="349.007" fill="#ffffff" stroke="#ffffff" stroke-width="0.8"/></g></g><g id="text_11"><g transform="translate(147.55 352.805906) scale(0.1 -0.1)" fill="#ffffff"><use xlink:href="#DejaVuSans-32"/><use xlink:href="#DejaVuSans-30" x="63.623"/><use xlink:href="#DejaVuSans-30" x="127.246"/><use xlink:href="#DejaVuSans-30" x="190.869"/></g></g></g><g id="ytick_6"><g id="line2d_26"><g><use xlink:href="#m9a151f286a" x="180" y="276.058" fill="#ffffff" stroke="#ffffff" stroke-width="0.8"/></g></g><g id="text_12"><g transform="translate(147.55 279.857577) scale(0.1 -0.1)" fill="#ffffff"><use xlink:href="#DejaVuSans-32"/><use xlink:href="#DejaVuSans-35" x="63.623"/><use xlink:href="#DejaVuSans-30" x="127.246"/><use xlink:href="#DejaVuSans-30" x="190.869"/></g></g></g><g id="ytick_7"><g id="line2d_27"><g><use xlink:href="#m9a151f286a" x="180" y="203.11" fill="#ffffff" stroke="#ffffff" stroke-width="0.8"/></g></g><g id="text_13"><g transform="translate(147.55 206.909249) scale(0.1 -0.1)" fill="#ffffff"><use xlink:href="#DejaVuSans-33"/><use xlink:href="#DejaVuSans-30" x="63.623"/><use xlink:href="#DejaVuSans-30" x="127.246"/><use xlink:href="#DejaVuSans-30" x="190.869"/></g></g></g><g id="ytick_8"><g id="line2d_28"><g><use xlink:href="#m9a151f286a" x="180" y="130.162" fill="#ffffff" stroke="#ffffff" stroke-width="0.8"/></g></g><g id="text_14"><g transform="translate(147.55 133.960921) scale(0.1 -0.1)" fill="#ffffff"><use xlink:href="#DejaVuSans-33"/><use xlink:href="#DejaVuSans-35" x="63.623"/><use xlink:href="#DejaVuSans-30" x="127.246"/><use xlink:href="#DejaVuSans-30" x="190.869"/></g></g></g><g id="ytick_9"><g id="line2d_29"><defs><path id="mfe53cb93cb" d="M 0 0 L -2 0" stroke="#ffffff" stroke-width="0.6"/></defs><g><use xlink:href="#mfe53cb93cb" x="180" y="626.21" fill="#ffffff" stroke="#ffffff" stroke-width="0.6"/></g></g></g><g id="ytick_10"><g id="line2d_30"><g><use xlink:href="#mfe53cb93cb" x="180" y="611.621" fill="#ffffff" stroke="#ffffff" stroke-width="0.6"/></g></g></g><g id="ytick_11"><g id="line2d_31"><g><use xlink:href="#mfe53cb93cb" x="180" y="597.031" fill="#ffffff" stroke="#ffffff" stroke-width="0.6"/></g></g></g><g id="ytick_12"><g id="line2d_32"><g><use xlink:href="#mfe53cb93cb" x="180" y="582.441" fill="#ffffff" stroke="#ffffff" stroke-width="0.6"/></g></g></g><g id="ytick_13"><g id="line2d_33"><g><use xlink:href="#mfe53cb93cb" x="180" y="553.262" fill="#ffffff" stroke="#ffffff" stroke-width="0.6"/></g></g></g><g id="ytick_14"><g id="line2d_34"><g><use xlink:href="#mfe53cb93cb" x="180" y="538.672" fill="#ffffff" stroke="#ffffff" stroke-width="0.6"/></g></g></g><g id="ytick_15"><g id="line2d_35"><g><use xlink:href="#mfe53cb93cb" x="180" y="524.083" fill="#ffffff" stroke="#ffffff" stroke-width="0.6"/></g></g></g><g id="ytick_16"><g id="line2d_36"><g><use xlink:href="#mfe53cb93cb" x="180" y="509.493" fill="#ffffff" stroke="#ffffff" stroke-width="0.6"/></g></g></g><g id="ytick_17"><g id="line2d_37"><g><use xlink:href="#mfe53cb93cb" x="180" y="480.314" fill="#ffffff" stroke="#ffffff" stroke-width="0.6"/></g></g></g><g id="ytick_18"><g id="line2d_38"><g><use xlink:href="#mfe53cb93cb" x="180" y="465.724" fill="#ffffff" stroke="#ffffff" stroke-width="0.6"/></g></g></g><g id="ytick_19"><g id="line2d_39"><g><use xlink:href="#mfe53cb93cb" x="180" y="451.134" fill="#ffffff" stroke="#ffffff" stroke-width="0.6"/></g></g></g><g id="ytick_20"><g id="line2d_40"><g><use xlink:href="#mfe53cb93cb" x="180" y="436.545" fill="#ffffff" stroke="#ffffff" stroke-width="0.6"/></g></g></g><g id="ytick_21"><g id="line2d_41"><g><use xlink:href="#mfe53cb93cb" x="180" y="407.365" fill="#ffffff" stroke="#ffffff" stroke-width="0.6"/></g></g></g><g id="ytick_22"><g id="line2d_42"><g><use xlink:href="#mfe53cb93cb" x="180" y="392.776" fill="#ffffff" stroke="#ffffff" stroke-width="0.6"/></g></g></g><g id="ytick_23"><g id="line2d_43"><g><use xlink:href="#mfe53cb93cb" x="180" y="378.186" fill="#ffffff" stroke="#ffffff" stroke-width="0.6"/></g></g></g><g id="ytick_24"><g id="line2d_44"><g><use xlink:href="#mfe53cb93cb" x="180" y="363.596" fill="#ffffff" stroke="#ffffff" stroke-width="0.6"/></g></g></g><g id="ytick_25"><g id="line2d_45"><g><use xlink:href="#mfe53cb93cb" x="180" y="334.417" fill="#ffffff" stroke="#ffffff" stroke-width="0.6"/></g></g></g><g id="ytick_26"><g id="line2d_46"><g><use xlink:href="#mfe53cb93cb" x="180" y="319.827" fill="#ffffff" stroke="#ffffff" stroke-width="0.6"/></g></g></g><g id="ytick_27"><g id="line2d_47"><g><use xlink:href="#mfe53cb93cb" x="180" y="305.238" fill="#ffffff" stroke="#ffffff" stroke-width="0.6"/></g></g></g><g id="ytick_28"><g id="line2d_48"><g><use xlink:href="#mfe53cb93cb" x="180" y="290.648" fill="#ffffff" stroke="#ffffff" stroke-width="0.6"/></g></g></g><g id="ytick_29"><g id="line2d_49"><g><use xlink:href="#mfe53cb93cb" x="180" y="261.469" fill="#ffffff" stroke="#ffffff" stroke-width="0.6"/></g></g></g><g id="ytick_30"><g id="line2d_50"><g><use xlink:href="#mfe53cb93cb" x="180" y="246.879" fill="#ffffff" stroke="#ffffff" stroke-width="0.6"/></g></g></g><g id="ytick_31"><g id="line2d_51"><g><use xlink:href="#mfe53cb93cb" x="180" y="232.289" fill="#ffffff" stroke="#ffffff" stroke-width="0.6"/></g></g></g><g id="ytick_32"><g id="line2d_52"><g><use xlink:href="#mfe53cb93cb" x="180" y="217.7" fill="#ffffff" stroke="#ffffff" stroke-width="0.6"/></g></g></g><g id="ytick_33"><g id="line2d_53"><g><use xlink:href="#mfe53cb93cb" x="180" y="188.52" fill="#ffffff" stroke="#ffffff" stroke-width="0.6"/></g></g></g><g id="ytick_34"><g id="line2d_54"><g><use xlink:href="#mfe53cb93cb" x="180" y="173.931" fill="#ffffff" stroke="#ffffff" stroke-width="0.6"/></g></g></g><g id="ytick_35"><g id="line2d_55"><g><use xlink:href="#mfe53cb93cb" x="180" y="159.341" fill="#ffffff" stroke="#ffffff" stroke-width="0.6"/></g></g></g><g id="ytick_36"><g id="line2d_56"><g><use xlink:href="#mfe53cb93cb" x="180" y="144.751" fill="#ffffff" stroke="#ffffff" stroke-width="0.6"/></g></g></g><g id="ytick_37"><g id="line2d_57"><g><use xlink:href="#mfe53cb93cb" x="180" y="115.572" fill="#ffffff" stroke="#ffffff" stroke-width="0.6"/></g></g></g><g id="ytick_38"><g id="line2d_58"><g><use xlink:href="#mfe53cb93cb" x="180" y="100.982" fill="#ffffff" stroke="#ffffff" stroke-width="0.6"/></g></g></g><g id="text_15"><g transform="translate(141.470313 384.51875) rotate(-90) scale(0.1 -0.1)" fill="#ffffff"><defs><path id="DejaVuSans-56" d="M 1831 0 L 50 4666 L 709 4666 L 2188 738 L 3669 4666 L 4325 4666 L 2547 0 L 1831 0 z" transform="scale(0.015625)"/><path id="DejaVuSans-74" d="M 1172 4494 L 1172 3500 L 2356 3500 L 2356 3053 L 1172 3053 L 1172 1153 Q 1172 725 1289 603 Q 1406 481 1766 481 L 2356 481 L 2356 0 L 1766 0 Q 1100 0 847 248 Q 594 497 594 1153 L 594 3053 L 172 3053 L 172 3500 L 594 3500 L 594 4494 L 1172 4494 z" transform="scale(0.015625)"/><path id="DejaVuSans-67" d="M 2906 1791 Q 2906 2416 2648 2759 Q 2391 3103 1925 3103 Q 1463 3103 1205 2759 Q 947 2416 947 1791 Q 947 1169 1205 825 Q 1463 481 1925 481 Q 2391 481 2648 825 Q 2906 1169 2906 1791 z M 3481 434 Q 3481 -459 3084 -895 Q 2688 -1331 1869 -1331 Q 1566 -1331 1297 -1286 Q 1028 -1241 775 -1147 L 775 -588 Q 1028 -725 1275 -790 Q 1522 -856 1778 -856 Q 2344 -856 2625 -561 Q 2906 -266 2906 331 L 2906 616 Q 2728 306 2450 153 Q 2172 0 1784 0 Q 1141 0 747 490 Q 353 981 353 1791 Q 353 2603 747 3093 Q 1141 3584 1784 3584 Q 2172 3584 2450 3431 Q 2728 3278 2906 2969 L 2906 3500 L 3481 3500 L 3481 434 z" transform="scale(0.015625)"/></defs><use xlink:href="#DejaVuSans-56"/><use xlink:href="#DejaVuSans-65" x="60.658"/><use xlink:href="#DejaVuSans-73" x="122.182"/><use xlink:href="#DejaVuSans-74" x="174.281"/><use xlink:href="#DejaVuSans-69" x="213.49"/><use xlink:href="#DejaVuSans-67" x="241.273"/><use xlink:href="#DejaVuSans-65" x="304.75"/><use xlink:href="#DejaVuSans-73" x="366.273"/></g></g></g><g id="patch_3"><path d="M 180 640.8 L 180 86.4" fill="none" stroke="#ffffff" stroke-width="0.8" stroke-linejoin="miter" stroke-linecap="square"/></g><g id="patch_4"><path d="M 1296 640.8 L 1296 86.4" fill="none" stroke="#ffffff" stroke-width="0.8" stroke-linejoin="miter" stroke-linecap="square"/></g><g id="patch_5"><path d="M 180 640.8 L 1296 640.8" fill="none" stroke="#ffffff" stroke-width="0.8" stroke-linejoin="miter" stroke-linecap="square"/></g><g id="patch_6"><path d="M 180 86.4 L 1296 86.4" fill="none" stroke="#ffffff" stroke-width="0.8" stroke-linejoin="miter" stroke-linecap="square"/></g><g id="text_16"><g transform="translate(682.681875 80.4) scale(0.12 -0.12)" fill="#ffffff"><defs><path id="DejaVuSans-53" d="M 3425 4513 L 3425 3897 Q 3066 4069 2747 4153 Q 2428 4238 2131 4238 Q 1616 4238 1336 4038 Q 1056 3838 1056 3469 Q 1056 3159 1242 3001 Q 1428 2844 1947 2747 L 2328 2669 Q 3034 2534 3370 2195 Q 3706 1856 3706 1288 Q 3706 609 3251 259 Q 2797 -91 1919 -91 Q 1588 -91 1214 -16 Q 841 59 441 206 L 441 856 Q 825 641 1194 531 Q 1563 422 1919 422 Q 2459 422 2753 634 Q 3047 847 3047 1241 Q 3047 1584 2836 1778 Q 2625 1972 2144 2069 L 1759 2144 Q 1053 2284 737 2584 Q 422 2884 422 3419 Q 422 4038 858 4394 Q 1294 4750 2059 4750 Q 2388 4750 2728 4690 Q 3069 4631 3425 4513 z" transform="scale(0.015625)"/><path id="DejaVuSans-6c" d="M 603 4863 L 1178 4863 L 1178 0 L 603 0 L 603 4863 z" transform="scale(0.015625)"/><path id="DejaVuSans-75" d="M 544 1381 L 544 3500 L 1119 3500 L 1119 1403 Q 1119 906 1312 657 Q 1506 409 1894 409 Q 2359 409 2629 706 Q 2900 1003 2900 1516 L 2900 3500 L 3475 3500 L 3475 0 L 2900 0 L 2900 538 Q 2691 219 2414 64 Q 2138 -91 1772 -91 Q 1169 -91 856 284 Q 544 659 544 1381 z M 1991 3584 L 1991 3584 z" transform="scale(0.015625)"/><path id="DejaVuSans-46" d="M 628 4666 L 3309 4666 L 3309 4134 L 1259 4134 L 1259 2759 L 3109 2759 L 3109 2228 L 1259 2228 L 1259 0 L 628 0 L 628 4666 z" transform="scale(0.015625)"/><path id="DejaVuSans-72" d="M 2631 2963 Q 2534 3019 2420 3045 Q 2306 3072 2169 3072 Q 1681 3072 1420 2755 Q 1159 2438 1159 1844 L 1159 0 L 581 0 L 581 3500 L 1159 3500 L 1159 2956 Q 1341 3275 1631 3429 Q 1922 3584 2338 3584 Q 2397 3584 2469 3576 Q 2541 3569 2628 3553 L 2631 2963 z" transform="scale(0.015625)"/><path id="DejaVuSans-71" d="M 947 1747 Q 947 1113 1208 752 Q 1469 391 1925 391 Q 2381 391 2643 752 Q 2906 1113 2906 1747 Q 2906 2381 2643 2742 Q 2381 3103 1925 3103 Q 1469 3103 1208 2742 Q 947 2381 947 1747 z M 2906 525 Q 2725 213 2448 61 Q 2172 -91 1784 -91 Q 1150 -91 751 415 Q 353 922 353 1747 Q 353 2572 751 3078 Q 1150 3584 1784 3584 Q 2172 3584 2448 3432 Q 2725 3281 2906 2969 L 2906 3500 L 3481 3500 L 3481 -1331 L 2906 -1331 L 2906 525 z" transform="scale(0.015625)"/></defs><use xlink:href="#DejaVuSans-53"/><use xlink:href="#DejaVuSans-6c" x="63.477"/><use xlink:href="#DejaVuSans-75" x="91.26"/><use xlink:href="#DejaVuSans-67" x="154.639"/><use xlink:href="#DejaVuSans-63" x="218.115"/><use xlink:href="#DejaVuSans-61" x="273.096"/><use xlink:href="#DejaVuSans-74" x="334.375"/><use xlink:href="#DejaVuSans-20" x="373.584"/><use xlink:href="#DejaVuSans-46" x="405.371"/><use xlink:href="#DejaVuSans-72" x="455.641"/><use xlink:href="#DejaVuSans-65" x="494.504"/><use xlink:href="#DejaVuSans-71" x="556.027"/><use xlink:href="#DejaVuSans-75" x="619.504"/><use xlink:href="#DejaVuSans-65" x="682.883"/><use xlink:href="#DejaVuSans-6e" x="744.406"/><use xlink:href="#DejaVuSans-63" x="807.785"/><use xlink:href="#DejaVuSans-79" x="862.766"/></g></g></g><g id="legend_1"><g id="patch_7"><path d="M 283.516406 715 L 1156.483594 715 Q 1158.483594 715 1158.483594 713 L 1158.483594 699.321875 Q 1158.483594 697.321875 1156.483594 697.321875 L 283.516406 697.321875 Q 281.516406 697.321875 281.516406 699.321875 L 281.516406 713 Q 281.516406 715 283.516406 715 z" opacity="0.8" stroke="#cccccc" stroke-linejoin="miter"/></g><g id="patch_8"><path d="M 285.516406 708.920313 L 305.516406 708.920313 L 305.516406 701.920313 L 285.516406 701.920313 z" fill="#0f0f0f"/></g><g id="text_17"><g transform="translate(313.516406 708.920313) scale(0.1 -0.1)" fill="#ffffff"><defs><path id="DejaVuSans-6f" d="M 1959 3097 Q 1497 3097 1228 2736 Q 959 2375 959 1747 Q 959 1119 1226 758 Q 1494 397 1959 397 Q 2419 397 2687 759 Q 2956 1122 2956 1747 Q 2956 2369 2687 2733 Q 2419 3097 1959 3097 z M 1959 3584 Q 2709 3584 3137 3096 Q 3566 2609 3566 1747 Q 3566 888 3137 398 Q 2709 -91 1959 -91 Q 1206 -91 779 398 Q 353 888 353 1747 Q 353 2609 779 3096 Q 1206 3584 1959 3584 z" transform="scale(0.015625)"/><path id="DejaVuSans-6d" d="M 3328 2828 Q 3544 3216 3844 3400 Q 4144 3584 4550 3584 Q 5097 3584 5394 3201 Q 5691 2819 5691 2113 L 5691 0 L 5113 0 L 5113 2094 Q 5113 2597 4934 2840 Q 4756 3084 4391 3084 Q 3944 3084 3684 2787 Q 3425 2491 3425 1978 L 3425 0 L 2847 0 L 2847 2094 Q 2847 2600 2669 2842 Q 2491 3084 2119 3084 Q 1678 3084 1418 2786 Q 1159 2488 1159 1978 L 1159 0 L 581 0 L 581 3500 L 1159 3500 L 1159 2956 Q 1356 3278 1631 3431 Q 1906 3584 2284 3584 Q 2666 3584 2933 3390 Q 3200 3197 3328 2828 z" transform="scale(0.015625)"/></defs><use xlink:href="#DejaVuSans-43"/><use xlink:href="#DejaVuSans-75" x="69.824"/><use xlink:href="#DejaVuSans-73" x="133.203"/><use xlink:href="#DejaVuSans-74" x="185.303"/><use xlink:href="#DejaVuSans-6f" x="224.512"/><use xlink:href="#DejaVuSans-6d" x="285.693"/><use xlink:href="#DejaVuSans-20" x="383.105"/><use xlink:href="#DejaVuSans-43" x="414.893"/><use xlink:href="#DejaVuSans-6f" x="484.717"/><use xlink:href="#DejaVuSans-6c" x="545.898"/><use xlink:href="#DejaVuSans-6f" x="573.682"/><use xlink:href="#DejaVuSans-75" x="634.863"/><use xlink:href="#DejaVuSans-72" x="698.242"/></g></g><g id="patch_9"><path d="M 407.450781 708.920313 L 427.450781 708.920313 L 427.450781 701.920313 L 407.450781 701.920313 z" fill="#ffffff"/></g><g id="text_18"><g transform="translate(435.450781 708.920313) scale(0.1 -0.1)" fill="#ffffff"><defs><path id="DejaVuSans-76" d="M 191 3500 L 800 3500 L 1894 563 L 2988 3500 L 3597 3500 L 2284 0 L 1503 0 L 191 3500 z" transform="scale(0.015625)"/></defs><use xlink:href="#DejaVuSans-53"/><use xlink:href="#DejaVuSans-75" x="63.477"/><use xlink:href="#DejaVuSans-72" x="126.855"/><use xlink:href="#DejaVuSans-76" x="167.969"/><use xlink:href="#DejaVuSans-69" x="227.148"/><use xlink:href="#DejaVuSans-76" x="254.932"/><use xlink:href="#DejaVuSans-6f" x="314.111"/><use xlink:href="#DejaVuSans-72" x="375.293"/></g></g><g id="patch_10"><path d="M 497.092969 708.920313 L 517.092969 708.920313 L 517.092969 701.920313 L 497.092969 701.920313 z" fill="#ff7373"/></g><g id="text_19"><g transform="translate(525.092969 708.920313) scale(0.1 -0.1)" fill="#ffffff"><defs><path id="DejaVuSans-48" d="M 628 4666 L 1259 4666 L 1259 2753 L 3553 2753 L 3553 4666 L 4184 4666 L 4184 0 L 3553 0 L 3553 2222 L 1259 2222 L 1259 0 L 628 0 L 628 4666 z" transform="scale(0.015625)"/></defs><use xlink:href="#DejaVuSans-48"/><use xlink:href="#DejaVuSans-75" x="75.195"/><use xlink:href="#DejaVuSans-6e" x="138.574"/><use xlink:href="#DejaVuSans-74" x="201.953"/><use xlink:href="#DejaVuSans-65" x="241.162"/><use xlink:href="#DejaVuSans-72" x="302.686"/></g></g><g id="patch_11"><path d="M 579.472656 708.920313 L 599.472656 708.920313 L 599.472656 701.920313 L 579.472656 701.920313 z" fill="#4f2d68"/></g><g id="text_20"><g transform="translate(607.472656 708.920313) scale(0.1 -0.1)" fill="#ffffff"><defs><path id="DejaVuSans-70" d="M 1159 525 L 1159 -1331 L 581 -1331 L 581 3500 L 1159 3500 L 1159 2969 Q 1341 3281 1617 3432 Q 1894 3584 2278 3584 Q 2916 3584 3314 3078 Q 3713 2572 3713 1747 Q 3713 922 3314 415 Q 2916 -91 2278 -91 Q 1894 -91 1617 61 Q 1341 213 1159 525 z M 3116 1747 Q 3116 2381 2855 2742 Q 2594 3103 2138 3103 Q 1681 3103 1420 2742 Q 1159 2381 1159 1747 Q 1159 1113 1420 752 Q 1681 391 2138 391 Q 2594 391 2855 752 Q 3116 1113 3116 1747 z" transform="scale(0.015625)"/></defs><use xlink:href="#DejaVuSans-53"/><use xlink:href="#DejaVuSans-70" x="63.477"/><use xlink:href="#DejaVuSans-65" x="126.953"/><use xlink:href="#DejaVuSans-61" x="188.477"/><use xlink:href="#DejaVuSans-72" x="249.756"/><use xlink:href="#DejaVuSans-6d" x="289.119"/><use xlink:href="#DejaVuSans-61" x="386.531"/><use xlink:href="#DejaVuSans-73" x="447.811"/><use xlink:href="#DejaVuSans-74" x="499.91"/><use xlink:href="#DejaVuSans-65" x="539.119"/><use xlink:href="#DejaVuSans-72" x="600.643"/></g></g><g id="patch_12"><path d="M 691.649219 708.920313 L 711.649219 708.920313 L 711.649219 701.920313 L 691.649219 701.920313 z" fill="#ffff73"/></g><g id="text_21"><g transform="translate(719.649219 708.920313) scale(0.1 -0.1)" fill="#ffffff"><defs><path id="DejaVuSans-4d" d="M 628 4666 L 1569 4666 L 2759 1491 L 3956 4666 L 4897 4666 L 4897 0 L 4281 0 L 4281 4097 L 3078 897 L 2444 897 L 1241 4097 L 1241 0 L 628 0 L 628 4666 z" transform="scale(0.015625)"/><path id="DejaVuSans-6b" d="M 581 4863 L 1159 4863 L 1159 1991 L 2875 3500 L 3609 3500 L 1753 1863 L 3688 0 L 2938 0 L 1159 1709 L 1159 0 L 581 0 L 581 4863 z" transform="scale(0.015625)"/></defs><use xlink:href="#DejaVuSans-4d"/><use xlink:href="#DejaVuSans-6f" x="86.279"/><use xlink:href="#DejaVuSans-6e" x="147.461"/><use xlink:href="#DejaVuSans-6b" x="210.84"/></g></g><g id="patch_13"><path d="M 766.524219 708.920313 L 786.524219 708.920313 L 786.524219 701.920313 L 766.524219 701.920313 z" fill="#70223b"/></g><g id="text_22"><g transform="translate(794.524219 708.920313) scale(0.1 -0.1)" fill="#ffffff"><defs><path id="DejaVuSans-41" d="M 2188 4044 L 1331 1722 L 3047 1722 L 2188 4044 z M 1831 4666 L 2547 4666 L 4325 0 L 3669 0 L 3244 1197 L 1141 1197 L 716 0 L 50 0 L 1831 4666 z" transform="scale(0.015625)"/><path id="DejaVuSans-66" d="M 2375 4863 L 2375 4384 L 1825 4384 Q 1516 4384 1395 4259 Q 1275 4134 1275 3809 L 1275 3500 L 2222 3500 L 2222 3053 L 1275 3053 L 1275 0 L 697 0 L 697 3053 L 147 3053 L 147 3500 L 697 3500 L 697 3744 Q 697 4328 969 4595 Q 1241 4863 1831 4863 L 2375 4863 z" transform="scale(0.015625)"/></defs><use xlink:href="#DejaVuSans-41"/><use xlink:href="#DejaVuSans-72" x="68.408"/><use xlink:href="#DejaVuSans-74" x="109.521"/><use xlink:href="#DejaVuSans-69" x="148.73"/><use xlink:href="#DejaVuSans-66" x="176.514"/><use xlink:href="#DejaVuSans-69" x="211.719"/><use xlink:href="#DejaVuSans-63" x="239.502"/><use xlink:href="#DejaVuSans-65" x="294.482"/><use xlink:href="#DejaVuSans-72" x="356.006"/></g></g><g id="patch_14"><path d="M 854.235156 708.920313 L 874.235156 708.920313 L 874.235156 701.920313 L 854.235156 701.920313 z" fill="#91ccf0"/></g><g id="text_23"><g transform="translate(882.235156 708.920313) scale(0.1 -0.1)" fill="#ffffff"><defs><path id="DejaVuSans-52" d="M 2841 2188 Q 3044 2119 3236 1894 Q 3428 1669 3622 1275 L 4263 0 L 3584 0 L 2988 1197 Q 2756 1666 2539 1819 Q 2322 1972 1947 1972 L 1259 1972 L 1259 0 L 628 0 L 628 4666 L 2053 4666 Q 2853 4666 3247 4331 Q 3641 3997 3641 3322 Q 3641 2881 3436 2590 Q 3231 2300 2841 2188 z M 1259 4147 L 1259 2491 L 2053 2491 Q 2509 2491 2742 2702 Q 2975 2913 2975 3322 Q 2975 3731 2742 3939 Q 2509 4147 2053 4147 L 1259 4147 z" transform="scale(0.015625)"/></defs><use xlink:href="#DejaVuSans-52"/><use xlink:href="#DejaVuSans-69" x="69.482"/><use xlink:href="#DejaVuSans-76" x="97.266"/><use xlink:href="#DejaVuSans-75" x="156.445"/><use xlink:href="#DejaVuSans-6c" x="219.824"/><use xlink:href="#DejaVuSans-65" x="247.607"/><use xlink:href="#DejaVuSans-74" x="309.131"/></g></g><g id="patch_15"><path d="M 937.069531 708.920313 L 957.069531 708.920313 L 957.069531 701.920313 L 937.069531 701.920313 z" fill="#aaf155"/></g><g id="text_24"><g transform="translate(965.069531 708.920313) scale(0.1 -0.1)" fill="#ffffff"><use xlink:href="#DejaVuSans-53"/><use xlink:href="#DejaVuSans-61" x="63.477"/><use xlink:href="#DejaVuSans-69" x="124.756"/><use xlink:href="#DejaVuSans-6e" x="152.539"/><use xlink:href="#DejaVuSans-74" x="215.918"/></g></g><g id="patch_16"><path d="M 1010.582031 708.920313 L 1030.582031 708.920313 L 1030.582031 701.920313 L 1010.582031 701.920313 z" fill="#f0c097"/></g><g id="text_25"><g transform="translate(1038.582031 708.920313) scale(0.1 -0.1)" fill="#ffffff"><defs><path id="DejaVuSans-47" d="M 3809 666 L 3809 1919 L 2778 1919 L 2778 2438 L 4434 2438 L 4434 434 Q 4069 175 3628 42 Q 3188 -91 2688 -91 Q 1594 -91 976 548 Q 359 1188 359 2328 Q 359 3472 976 4111 Q 1594 4750 2688 4750 Q 3144 4750 3555 4637 Q 3966 4525 4313 4306 L 4313 3634 Q 3963 3931 3569 4081 Q 3175 4231 2741 4231 Q 1884 4231 1454 3753 Q 1025 3275 1025 2328 Q 1025 1384 1454 906 Q 1884 428 2741 428 Q 3075 428 3337 486 Q 3600 544 3809 666 z" transform="scale(0.015625)"/><path id="DejaVuSans-64" d="M 2906 2969 L 2906 4863 L 3481 4863 L 3481 0 L 2906 0 L 2906 525 Q 2725 213 2448 61 Q 2172 -91 1784 -91 Q 1150 -91 751 415 Q 353 922 353 1747 Q 353 2572 751 3078 Q 1150 3584 1784 3584 Q 2172 3584 2448 3432 Q 2725 3281 2906 2969 z M 947 1747 Q 947 1113 1208 752 Q 1469 391 1925 391 Q 2381 391 2643 752 Q 2906 1113 2906 1747 Q 2906 2381 2643 2742 Q 2381 3103 1925 3103 Q 1469 3103 1208 2742 Q 947 2381 947 1747 z" transform="scale(0.015625)"/></defs><use xlink:href="#DejaVuSans-47"/><use xlink:href="#DejaVuSans-6f" x="77.49"/><use xlink:href="#DejaVuSans-75" x="138.672"/><use xlink:href="#DejaVuSans-72" x="202.051"/><use xlink:href="#DejaVuSans-6d" x="241.414"/><use xlink:href="#DejaVuSans-61" x="338.826"/><use xlink:href="#DejaVuSans-6e" x="400.105"/><use xlink:href="#DejaVuSans-64" x="463.484"/></g></g><g id="patch_17"><path d="M 1111.277344 708.920313 L 1131.277344 708.920313 L 1131.277344 701.920313 L 1111.277344 701.920313 z" fill="#16234f"/></g><g id="text_26"><g transform="translate(1139.277344 708.920313) scale(0.1 -0.1)" fill="#ffffff"><defs><path id="DejaVuSans-49" d="M 628 4666 L 1259 4666 L 1259 0 L 628 0 L 628 4666 z" transform="scale(0.015625)"/></defs><use xlink:href="#DejaVuSans-49"/><use xlink:href="#DejaVuSans-6e" x="29.492"/><use xlink:href="#DejaVuSans-76" x="92.871"/></g></g></g></g><defs><clipPath id="p84b2e2e788"><rect x="180" y="86.4" width="1116" height="554.4"/></clipPath></defs></svg>