<svg xmlns:xlink="http://www.w3.org/1999/xlink" width="1920" height="960" viewBox="0 0 1440 720" xmlns="http://www.w3.org/2000/svg" version="1.1"><metadata><rdf:RDF xmlns:dc="http://purl.org/dc/elements/1.1/" xmlns:cc="http://creativecommons.org/ns#" xmlns:rdf="http://www.w3.org/1999/02/22-rdf-syntax-ns#"><cc:Work><dc:type rdf:resource="http://purl.org/dc/dcmitype/StillImage"/><dc:format>image/svg+xml</dc:format><dc:creator><cc:Agent><dc:title>Matplotlib v3.7.1, https://matplotlib.org/</dc:title></cc:Agent></dc:creator></cc:Work></rdf:RDF></metadata><defs><style type="text/css">*{stroke-linejoin:round;stroke-linecap:butt}</style></defs><g id="figure_1"><g id="patch_1"><path d="M 0 720 L 1440 720 L 1440 0 L 0 0 z"/></g><g id="axes_1"><g id="patch_2"><path d="M 180 640.8 L 1296 640.8 L 1296 86.4 L 180 86.4 z"/></g><g id="PolyCollection_1"><path d="M 180 517.663222 L 180 640.8 L 195.71831 640.8 L 211.43662 640.8 L 227.15493 640.8 L 242.873239 640.8 L 258.591549 640.8 L 274.309859 640.8 L 290.028169 640.8 L 305.746479 640.8 L 321.464789 640.8 L 337.183099 640.8 L 352.901408 640.8 L 368.619718 640.8 L 384.338028 640.8 L 400.056338 640.8 L 415.774648 640.8 L 431.492958 640.8 L 447.211268 640.8 L 462.929577 640.8 L 478.647887 640.8 L 494.366197 640.8 L 510.084507 640.8 L 525.802817 640.8 L 541.521127 640.8 L 557.239437 640.8 L 572.957746 640.8 L 588.676056 640.8 L 604.394366 640.8 L 620.112676 640.8 L 635.830986 640.8 L 651.549296 640.8 L 667.267606 640.8 L 682.985915 640.8 L 698.704225 640.8 L 714.422535 640.8 L 730.140845 640.8 L 745.859155 640.8 L 761.577465 640.8 L 777.295775 640.8 L 793.014085 640.8 L 808.732394 640.8 L 824.450704 640.8 L 840.169014 640.8 L 855.887324 640.8 L 871.605634 640.8 L 887.323944 640.8 L 903.042254 640.8 L 918.760563 640.8 L 934.478873 640.8 L 950.197183 640.8 L 965.915493 640.8 L 981.633803 640.8 L 997.352113 640.8 L 1013.070423 640.8 L 1028.788732 640.8 L 1044.507042 640.8 L 1060.225352 640.8 L 1075.943662 640.8 L 1091.661972 640.8 L 1107.380282 640.8 L 1123.098592 640.8 L 1138.816901 640.8 L 1154.535211 640.8 L 1170.253521 640.8 L 1185.971831 640.8 L 1201.690141 640.8 L 1217.408451 640.8 L 1233.126761 640.8 L 1248.84507 640.8 L 1264.56338 640.8 L 1280.28169 640.8 L 1296 640.8 L 1311.71831 640.8 L 1327.43662 640.8 L 1343.15493 640.8 L 1358.873239 640.8 L 1374.591549 640.8 L 1390.309859 640.8 L 1406.028169 640.8 L 1406.028169 614.100912 L 1406.028169 614.100912 L 1390.309859 537.505167 L 1374.591549 525.103951 L 1358.873239 549.468693 L 1343.15493 557.930699 L 1327.43662 537.213374 L 1311.71831 536.921581 L 1296 534.003647 L 1280.28169 487.900304 L 1264.56338 482.502128 L 1248.84507 551.948936 L 1233.126761 533.565957 L 1217.408451 511.389666 L 1201.690141 558.806079 L 1185.971831 529.334954 L 1170.253521 507.888146 L 1154.535211 466.745289 L 1138.816901 540.86079 L 1123.098592 563.474772 L 1107.380282 435.815198 L 1091.661972 538.526444 L 1075.943662 528.459574 L 1060.225352 491.839514 L 1044.507042 487.316717 L 1028.788732 517.955015 L 1013.070423 559.243769 L 997.352113 566.684498 L 981.633803 486.295441 L 965.915493 526.854711 L 950.197183 439.316717 L 934.478873 458.429179 L 918.760563 494.027964 L 903.042254 489.359271 L 887.323944 466.015805 L 871.605634 467.328875 L 855.887324 462.806079 L 840.169014 414.660182 L 824.450704 434.210334 L 808.732394 420.204255 L 793.014085 429.541641 L 777.295775 424.581155 L 761.577465 423.997568 L 745.859155 452.009726 L 730.140845 355.572036 L 714.422535 388.544681 L 698.704225 412.179939 L 682.985915 488.046201 L 667.267606 485.420061 L 651.549296 445.73617 L 635.830986 453.468693 L 620.112676 373.225532 L 604.394366 407.657143 L 588.676056 500.885106 L 572.957746 544.216413 L 557.239437 550.344073 L 541.521127 576.021884 L 525.802817 489.505167 L 510.084507 449.67538 L 494.366197 411.012766 L 478.647887 489.651064 L 462.929577 498.98845 L 447.211268 522.040122 L 431.492958 522.477812 L 415.774648 483.669301 L 400.056338 503.073556 L 384.338028 453.031003 L 368.619718 506.283283 L 352.901408 485.565957 L 337.183099 495.632827 L 321.464789 541.006687 L 305.746479 519.997568 L 290.028169 406.635866 L 274.309859 451.572036 L 258.591549 506.575076 L 242.873239 527.875988 L 227.15493 568.872948 L 211.43662 540.714894 L 195.71831 511.243769 L 180 517.663222 z" clip-path="url(#p8f05429cac)" fill="#0f0f0f"/></g><g id="PolyCollection_2"><path d="M 180 498.55076 L 180 517.663222 L 195.71831 511.243769 L 211.43662 540.714894 L 227.15493 568.872948 L 242.873239 527.875988 L 258.591549 506.575076 L 274.309859 451.572036 L 290.028169 406.635866 L 305.746479 519.997568 L 321.464789 541.006687 L 337.183099 495.632827 L 352.901408 485.565957 L 368.619718 506.283283 L 384.338028 453.031003 L 400.056338 503.073556 L 415.774648 483.669301 L 431.492958 522.477812 L 447.211268 522.040122 L 462.929577 498.98845 L 478.647887 489.651064 L 494.366197 411.012766 L 510.084507 449.67538 L 525.802817 489.505167 L 541.521127 576.021884 L 557.239437 550.344073 L 572.957746 544.216413 L 588.676056 500.885106 L 604.394366 407.657143 L 620.112676 373.225532 L 635.830986 453.468693 L 651.549296 445.73617 L 667.267606 485.420061 L 682.985915 488.046201 L 698.704225 412.179939 L 714.422535 388.544681 L 730.140845 355.572036 L 745.859155 452.009726 L 761.577465 423.997568 L 777.295775 424.581155 L 793.014085 429.541641 L 808.732394 420.204255 L 824.450704 434.210334 L 840.169014 414.660182 L 855.887324 462.806079 L 871.605634 467.328875 L 887.323944 466.015805 L 903.042254 489.359271 L 918.760563 494.027964 L 934.478873 458.429179 L 950.197183 439.316717 L 965.915493 526.854711 L 981.633803 486.295441 L 997.352113 566.684498 L 1013.070423 559.243769 L 1028.788732 517.955015 L 1044.507042 487.316717 L 1060.225352 491.839514 L 1075.943662 528.459574 L 1091.661972 538.526444 L 1107.380282 435.815198 L 1123.098592 563.474772 L 1138.816901 540.86079 L 1154.535211 466.745289 L 1170.253521 507.888146 L 1185.971831 529.334954 L 1201.690141 558.806079 L 1217.408451 511.389666 L 1233.126761 533.565957 L 1248.84507 551.948936 L 1264.56338 482.502128 L 1280.28169 487.900304 L 1296 534.003647 L 1311.71831 536.921581 L 1327.43662 537.213374 L 1343.15493 557.930699 L 1358.873239 549.468693 L 1374.591549 525.103951 L 1390.309859 537.505167 L 1406.028169 614.100912 L 1406.028169 611.620669 L 1406.028169 611.620669 L 1390.309859 502.198176 L 1374.591549 459.596353 L 1358.873239 507.158663 L 1343.15493 509.347112 L 1327.43662 510.951976 L 1311.71831 489.505167 L 1296 491.11003 L 1280.28169 459.888146 L 1264.56338 440.775684 L 1248.84507 522.477812 L 1233.126761 518.100912 L 1217.408451 495.48693 L 1201.690141 537.359271 L 1185.971831 506.283283 L 1170.253521 483.815198 L 1154.535211 426.915502 L 1138.816901 522.477812 L 1123.098592 539.693617 L 1107.380282 406.781763 L 1091.661972 519.705775 L 1075.943662 500.009726 L 1060.225352 442.818237 L 1044.507042 424.872948 L 1028.788732 467.037082 L 1013.070423 518.538602 L 997.352113 538.818237 L 981.633803 445.882067 L 965.915493 492.86079 L 950.197183 381.103951 L 934.478873 400.216413 L 918.760563 454.92766 L 903.042254 473.310638 L 887.323944 438.003647 L 871.605634 441.942857 L 855.887324 429.687538 L 840.169014 368.994529 L 824.450704 385.480851 L 808.732394 383.875988 L 793.014085 388.690578 L 777.295775 374.830395 L 761.577465 395.839514 L 745.859155 428.812158 L 730.140845 299.54772 L 714.422535 316.909422 L 698.704225 362.429179 L 682.985915 449.383587 L 667.267606 450.55076 L 651.549296 411.158663 L 635.830986 401.67538 L 620.112676 331.644985 L 604.394366 364.471733 L 588.676056 461.638906 L 572.957746 510.660182 L 557.239437 539.255927 L 541.521127 557.638906 L 525.802817 474.040122 L 510.084507 405.1769 L 494.366197 389.420061 L 478.647887 466.745289 L 462.929577 471.122188 L 447.211268 496.654103 L 431.492958 509.201216 L 415.774648 458.720973 L 400.056338 468.058359 L 384.338028 421.663222 L 368.619718 478.562918 L 352.901408 464.410942 L 337.183099 470.976292 L 321.464789 524.958055 L 305.746479 490.818237 L 290.028169 372.496049 L 274.309859 415.389666 L 258.591549 491.98541 L 242.873239 505.116109 L 227.15493 558.076596 L 211.43662 521.894225 L 195.71831 500.447416 L 180 498.55076 z" clip-path="url(#p8f05429cac)" fill="#ffffff"/></g><g id="PolyCollection_3"><path d="M 180 490.088754 L 180 498.55076 L 195.71831 500.447416 L 211.43662 521.894225 L 227.15493 558.076596 L 242.873239 505.116109 L 258.591549 491.98541 L 274.309859 415.389666 L 290.028169 372.496049 L 305.746479 490.818237 L 321.464789 524.958055 L 337.183099 470.976292 L 352.901408 464.410942 L 368.619718 478.562918 L 384.338028 421.663222 L 400.056338 468.058359 L 415.774648 458.720973 L 431.492958 509.201216 L 447.211268 496.654103 L 462.929577 471.122188 L 478.647887 466.745289 L 494.366197 389.420061 L 510.084507 405.1769 L 525.802817 474.040122 L 541.521127 557.638906 L 557.239437 539.255927 L 572.957746 510.660182 L 588.676056 461.638906 L 604.394366 364.471733 L 620.112676 331.644985 L 635.830986 401.67538 L 651.549296 411.158663 L 667.267606 450.55076 L 682.985915 449.383587 L 698.704225 362.429179 L 714.422535 316.909422 L 730.140845 299.54772 L 745.859155 428.812158 L 761.577465 395.839514 L 777.295775 374.830395 L 793.014085 388.690578 L 808.732394 383.875988 L 824.450704 385.480851 L 840.169014 368.994529 L 855.887324 429.687538 L 871.605634 441.942857 L 887.323944 438.003647 L 903.042254 473.310638 L 918.760563 454.92766 L 934.478873 400.216413 L 950.197183 381.103951 L 965.915493 492.86079 L 981.633803 445.882067 L 997.352113 538.818237 L 1013.070423 518.538602 L 1028.788732 467.037082 L 1044.507042 424.872948 L 1060.225352 442.818237 L 1075.943662 500.009726 L 1091.661972 519.705775 L 1107.380282 406.781763 L 1123.098592 539.693617 L 1138.816901 522.477812 L 1154.535211 426.915502 L 1170.253521 483.815198 L 1185.971831 506.283283 L 1201.690141 537.359271 L 1217.408451 495.48693 L 1233.126761 518.100912 L 1248.84507 522.477812 L 1264.56338 440.775684 L 1280.28169 459.888146 L 1296 491.11003 L 1311.71831 489.505167 L 1327.43662 510.951976 L 1343.15493 509.347112 L 1358.873239 507.158663 L 1374.591549 459.596353 L 1390.309859 502.198176 L 1406.028169 611.620669 L 1406.028169 606.514286 L 1406.028169 606.514286 L 1390.309859 485.420061 L 1374.591549 441.79696 L 1358.873239 492.4231 L 1343.15493 490.526444 L 1327.43662 499.280243 L 1311.71831 470.976292 L 1296 474.040122 L 1280.28169 433.918541 L 1264.56338 426.331915 L 1248.84507 513.869909 L 1233.126761 499.134347 L 1217.408451 488.337994 L 1201.690141 519.122188 L 1185.971831 487.316717 L 1170.253521 467.037082 L 1154.535211 411.742249 L 1138.816901 505.262006 L 1123.098592 533.711854 L 1107.380282 390.733131 L 1091.661972 508.909422 L 1075.943662 474.331915 L 1060.225352 427.061398 L 1044.507042 410.137386 L 1028.788732 458.429179 L 1013.070423 505.553799 L 997.352113 516.350152 L 981.633803 433.772644 L 965.915493 475.353191 L 950.197183 349.882067 L 934.478873 382.125228 L 918.760563 435.669301 L 903.042254 458.283283 L 887.323944 422.100912 L 871.605634 429.979331 L 855.887324 403.717933 L 840.169014 356.447416 L 824.450704 355.42614 L 808.732394 344.192097 L 793.014085 366.076596 L 777.295775 346.088754 L 761.577465 377.310638 L 745.859155 407.80304 L 730.140845 262.92766 L 714.422535 297.505167 L 698.704225 347.693617 L 682.985915 438.587234 L 667.267606 414.076596 L 651.549296 398.61155 L 635.830986 373.663222 L 620.112676 304.654103 L 604.394366 330.186018 L 588.676056 427.790881 L 572.957746 488.192097 L 557.239437 524.958055 L 541.521127 543.195137 L 525.802817 459.742249 L 510.084507 358.344073 L 494.366197 369.578116 L 478.647887 434.356231 L 462.929577 444.86079 L 447.211268 457.699696 L 431.492958 467.182979 L 415.774648 449.529483 L 400.056338 437.857751 L 384.338028 408.386626 L 368.619718 459.158663 L 352.901408 450.55076 L 337.183099 451.42614 L 321.464789 508.617629 L 305.746479 474.915502 L 290.028169 320.702736 L 274.309859 377.456535 L 258.591549 462.368389 L 242.873239 493.590274 L 227.15493 532.252888 L 211.43662 519.413982 L 195.71831 490.380547 L 180 490.088754 z" clip-path="url(#p8f05429cac)" fill="#ff7373"/></g><g id="PolyCollection_4"><path d="M 180 461.638906 L 180 490.088754 L 195.71831 490.380547 L 211.43662 519.413982 L 227.15493 532.252888 L 242.873239 493.590274 L 258.591549 462.368389 L 274.309859 377.456535 L 290.028169 320.702736 L 305.746479 474.915502 L 321.464789 508.617629 L 337.183099 451.42614 L 352.901408 450.55076 L 368.619718 459.158663 L 384.338028 408.386626 L 400.056338 437.857751 L 415.774648 449.529483 L 431.492958 467.182979 L 447.211268 457.699696 L 462.929577 444.86079 L 478.647887 434.356231 L 494.366197 369.578116 L 510.084507 358.344073 L 525.802817 459.742249 L 541.521127 543.195137 L 557.239437 524.958055 L 572.957746 488.192097 L 588.676056 427.790881 L 604.394366 330.186018 L 620.112676 304.654103 L 635.830986 373.663222 L 651.549296 398.61155 L 667.267606 414.076596 L 682.985915 438.587234 L 698.704225 347.693617 L 714.422535 297.505167 L 730.140845 262.92766 L 745.859155 407.80304 L 761.577465 377.310638 L 777.295775 346.088754 L 793.014085 366.076596 L 808.732394 344.192097 L 824.450704 355.42614 L 840.169014 356.447416 L 855.887324 403.717933 L 871.605634 429.979331 L 887.323944 422.100912 L 903.042254 458.283283 L 918.760563 435.669301 L 934.478873 382.125228 L 950.197183 349.882067 L 965.915493 475.353191 L 981.633803 433.772644 L 997.352113 516.350152 L 1013.070423 505.553799 L 1028.788732 458.429179 L 1044.507042 410.137386 L 1060.225352 427.061398 L 1075.943662 474.331915 L 1091.661972 508.909422 L 1107.380282 390.733131 L 1123.098592 533.711854 L 1138.816901 505.262006 L 1154.535211 411.742249 L 1170.253521 467.037082 L 1185.971831 487.316717 L 1201.690141 519.122188 L 1217.408451 488.337994 L 1233.126761 499.134347 L 1248.84507 513.869909 L 1264.56338 426.331915 L 1280.28169 433.918541 L 1296 474.040122 L 1311.71831 470.976292 L 1327.43662 499.280243 L 1343.15493 490.526444 L 1358.873239 492.4231 L 1374.591549 441.79696 L 1390.309859 485.420061 L 1406.028169 606.514286 L 1406.028169 606.368389 L 1406.028169 606.368389 L 1390.309859 472.435258 L 1374.591549 407.36535 L 1358.873239 471.997568 L 1343.15493 473.018845 L 1327.43662 462.514286 L 1311.71831 428.520365 L 1296 444.277204 L 1280.28169 400.216413 L 1264.56338 386.356231 L 1248.84507 481.480851 L 1233.126761 467.766565 L 1217.408451 469.809119 L 1201.690141 488.775684 L 1185.971831 456.240729 L 1170.253521 448.216413 L 1154.535211 387.231611 L 1138.816901 472.143465 L 1123.098592 511.827356 L 1107.380282 366.368389 L 1091.661972 475.936778 L 1075.943662 431.730091 L 1060.225352 383.730091 L 1044.507042 362.283283 L 1028.788732 430.562918 L 1013.070423 478.562918 L 997.352113 500.155623 L 981.633803 406.198176 L 965.915493 438.587234 L 950.197183 313.116109 L 934.478873 355.86383 L 918.760563 397.444377 L 903.042254 426.769605 L 887.323944 375.268085 L 871.605634 377.602432 L 855.887324 368.848632 L 840.169014 314.720973 L 824.450704 308.73921 L 808.732394 295.900304 L 793.014085 329.748328 L 777.295775 321.578116 L 761.577465 350.17386 L 745.859155 390.149544 L 730.140845 231.997568 L 714.422535 254.903343 L 698.704225 313.262006 L 682.985915 404.30152 L 667.267606 385.189058 L 651.549296 379.790881 L 635.830986 337.626748 L 620.112676 261.468693 L 604.394366 301.152584 L 588.676056 399.632827 L 572.957746 456.532523 L 557.239437 510.951976 L 541.521127 523.499088 L 525.802817 428.666261 L 510.084507 304.508207 L 494.366197 330.915502 L 478.647887 403.86383 L 462.929577 400.508207 L 447.211268 399.04924 L 431.492958 439.608511 L 415.774648 424.289362 L 400.056338 393.359271 L 384.338028 367.535562 L 368.619718 418.745289 L 352.901408 418.745289 L 337.183099 408.532523 L 321.464789 475.790881 L 305.746479 444.86079 L 290.028169 274.891185 L 274.309859 340.252888 L 258.591549 407.073556 L 242.873239 460.471733 L 227.15493 504.386626 L 211.43662 505.699696 L 195.71831 467.912462 L 180 461.638906 z" clip-path="url(#p8f05429cac)" fill="#4f2d68"/></g><g id="PolyCollection_5"><path d="M 180 447.04924 L 180 461.638906 L 195.71831 467.912462 L 211.43662 505.699696 L 227.15493 504.386626 L 242.873239 460.471733 L 258.591549 407.073556 L 274.309859 340.252888 L 290.028169 274.891185 L 305.746479 444.86079 L 321.464789 475.790881 L 337.183099 408.532523 L 352.901408 418.745289 L 368.619718 418.745289 L 384.338028 367.535562 L 400.056338 393.359271 L 415.774648 424.289362 L 431.492958 439.608511 L 447.211268 399.04924 L 462.929577 400.508207 L 478.647887 403.86383 L 494.366197 330.915502 L 510.084507 304.508207 L 525.802817 428.666261 L 541.521127 523.499088 L 557.239437 510.951976 L 572.957746 456.532523 L 588.676056 399.632827 L 604.394366 301.152584 L 620.112676 261.468693 L 635.830986 337.626748 L 651.549296 379.790881 L 667.267606 385.189058 L 682.985915 404.30152 L 698.704225 313.262006 L 714.422535 254.903343 L 730.140845 231.997568 L 745.859155 390.149544 L 761.577465 350.17386 L 777.295775 321.578116 L 793.014085 329.748328 L 808.732394 295.900304 L 824.450704 308.73921 L 840.169014 314.720973 L 855.887324 368.848632 L 871.605634 377.602432 L 887.323944 375.268085 L 903.042254 426.769605 L 918.760563 397.444377 L 934.478873 355.86383 L 950.197183 313.116109 L 965.915493 438.587234 L 981.633803 406.198176 L 997.352113 500.155623 L 1013.070423 478.562918 L 1028.788732 430.562918 L 1044.507042 362.283283 L 1060.225352 383.730091 L 1075.943662 431.730091 L 1091.661972 475.936778 L 1107.380282 366.368389 L 1123.098592 511.827356 L 1138.816901 472.143465 L 1154.535211 387.231611 L 1170.253521 448.216413 L 1185.971831 456.240729 L 1201.690141 488.775684 L 1217.408451 469.809119 L 1233.126761 467.766565 L 1248.84507 481.480851 L 1264.56338 386.356231 L 1280.28169 400.216413 L 1296 444.277204 L 1311.71831 428.520365 L 1327.43662 462.514286 L 1343.15493 473.018845 L 1358.873239 471.997568 L 1374.591549 407.36535 L 1390.309859 472.435258 L 1406.028169 606.368389 L 1406.028169 606.368389 L 1406.028169 606.368389 L 1390.309859 465.140426 L 1374.591549 401.67538 L 1358.873239 467.328875 L 1343.15493 467.328875 L 1327.43662 457.699696 L 1311.71831 426.915502 L 1296 441.359271 L 1280.28169 390.879027 L 1264.56338 383.438298 L 1248.84507 475.207295 L 1233.126761 463.973252 L 1217.408451 466.307599 L 1201.690141 486.003647 L 1185.971831 454.344073 L 1170.253521 438.149544 L 1154.535211 372.641945 L 1138.816901 465.869909 L 1123.098592 499.134347 L 1107.380282 360.094833 L 1091.661972 469.371429 L 1075.943662 426.331915 L 1060.225352 379.353191 L 1044.507042 355.86383 L 1028.788732 427.790881 L 1013.070423 470.246809 L 997.352113 498.55076 L 981.633803 399.48693 L 965.915493 434.648024 L 950.197183 309.031003 L 934.478873 348.568997 L 918.760563 388.836474 L 903.042254 426.186018 L 887.323944 372.933739 L 871.605634 375.413982 L 855.887324 366.368389 L 840.169014 309.906383 L 824.450704 302.757447 L 808.732394 288.459574 L 793.014085 318.514286 L 777.295775 318.222492 L 761.577465 346.088754 L 745.859155 372.496049 L 730.140845 225.432219 L 714.422535 247.316717 L 698.704225 303.778723 L 682.985915 399.632827 L 667.267606 382.708815 L 651.549296 367.827356 L 635.830986 336.021884 L 620.112676 253.882067 L 604.394366 291.961094 L 588.676056 396.568997 L 572.957746 456.240729 L 557.239437 505.845593 L 541.521127 519.705775 L 525.802817 426.477812 L 510.084507 300.86079 L 494.366197 319.389666 L 478.647887 390.295441 L 462.929577 391.316717 L 447.211268 393.359271 L 431.492958 434.939818 L 415.774648 411.304559 L 400.056338 389.420061 L 384.338028 361.553799 L 368.619718 416.410942 L 352.901408 405.1769 L 337.183099 403.42614 L 321.464789 465.140426 L 305.746479 440.775684 L 290.028169 265.116109 L 274.309859 332.520365 L 258.591549 401.529483 L 242.873239 457.262006 L 227.15493 502.198176 L 211.43662 503.219453 L 195.71831 442.23465 L 180 447.04924 z" clip-path="url(#p8f05429cac)" fill="#ffff73"/></g><g id="PolyCollection_6"><path d="M 180 422.684498 L 180 447.04924 L 195.71831 442.23465 L 211.43662 503.219453 L 227.15493 502.198176 L 242.873239 457.262006 L 258.591549 401.529483 L 274.309859 332.520365 L 290.028169 265.116109 L 305.746479 440.775684 L 321.464789 465.140426 L 337.183099 403.42614 L 352.901408 405.1769 L 368.619718 416.410942 L 384.338028 361.553799 L 400.056338 389.420061 L 415.774648 411.304559 L 431.492958 434.939818 L 447.211268 393.359271 L 462.929577 391.316717 L 478.647887 390.295441 L 494.366197 319.389666 L 510.084507 300.86079 L 525.802817 426.477812 L 541.521127 519.705775 L 557.239437 505.845593 L 572.957746 456.240729 L 588.676056 396.568997 L 604.394366 291.961094 L 620.112676 253.882067 L 635.830986 336.021884 L 651.549296 367.827356 L 667.267606 382.708815 L 682.985915 399.632827 L 698.704225 303.778723 L 714.422535 247.316717 L 730.140845 225.432219 L 745.859155 372.496049 L 761.577465 346.088754 L 777.295775 318.222492 L 793.014085 318.514286 L 808.732394 288.459574 L 824.450704 302.757447 L 840.169014 309.906383 L 855.887324 366.368389 L 871.605634 375.413982 L 887.323944 372.933739 L 903.042254 426.186018 L 918.760563 388.836474 L 934.478873 348.568997 L 950.197183 309.031003 L 965.915493 434.648024 L 981.633803 399.48693 L 997.352113 498.55076 L 1013.070423 470.246809 L 1028.788732 427.790881 L 1044.507042 355.86383 L 1060.225352 379.353191 L 1075.943662 426.331915 L 1091.661972 469.371429 L 1107.380282 360.094833 L 1123.098592 499.134347 L 1138.816901 465.869909 L 1154.535211 372.641945 L 1170.253521 438.149544 L 1185.971831 454.344073 L 1201.690141 486.003647 L 1217.408451 466.307599 L 1233.126761 463.973252 L 1248.84507 475.207295 L 1264.56338 383.438298 L 1280.28169 390.879027 L 1296 441.359271 L 1311.71831 426.915502 L 1327.43662 457.699696 L 1343.15493 467.328875 L 1358.873239 467.328875 L 1374.591549 401.67538 L 1390.309859 465.140426 L 1406.028169 606.368389 L 1406.028169 597.61459 L 1406.028169 597.61459 L 1390.309859 436.252888 L 1374.591549 374.976292 L 1358.873239 440.629787 L 1343.15493 428.082675 L 1327.43662 437.128267 L 1311.71831 400.654103 L 1296 420.058359 L 1280.28169 358.198176 L 1264.56338 345.213374 L 1248.84507 443.401824 L 1233.126761 419.766565 L 1217.408451 445.29848 L 1201.690141 461.493009 L 1185.971831 418.745289 L 1170.253521 400.070517 L 1154.535211 339.523404 L 1138.816901 418.891185 L 1123.098592 467.037082 L 1107.380282 309.031003 L 1091.661972 441.505167 L 1075.943662 397.006687 L 1060.225352 327.851672 L 1044.507042 310.05228 L 1028.788732 382.271125 L 1013.070423 423.268085 L 997.352113 474.915502 L 981.633803 378.477812 L 965.915493 419.182979 L 950.197183 272.265046 L 934.478873 306.842553 L 918.760563 350.319757 L 903.042254 397.006687 L 887.323944 328.872948 L 871.605634 330.477812 L 855.887324 318.514286 L 840.169014 228.058359 L 824.450704 251.54772 L 808.732394 262.781763 L 793.014085 260.593313 L 777.295775 264.240729 L 761.577465 296.337994 L 745.859155 346.964134 L 730.140845 179.328875 L 714.422535 200.192097 L 698.704225 265.553799 L 682.985915 363.012766 L 667.267606 339.377508 L 651.549296 307.134347 L 635.830986 309.760486 L 620.112676 201.067477 L 604.394366 239.584195 L 588.676056 363.012766 L 572.957746 419.912462 L 557.239437 463.973252 L 541.521127 489.942857 L 525.802817 393.79696 L 510.084507 270.806079 L 494.366197 256.654103 L 478.647887 341.128267 L 462.929577 341.857751 L 447.211268 321.432219 L 431.492958 402.98845 L 415.774648 387.815198 L 400.056338 357.468693 L 384.338028 335.146505 L 368.619718 392.921581 L 352.901408 373.079635 L 337.183099 370.891185 L 321.464789 421.517325 L 305.746479 391.900304 L 290.028169 188.374468 L 274.309859 268.909422 L 258.591549 350.027964 L 242.873239 413.638906 L 227.15493 462.660182 L 211.43662 481.189058 L 195.71831 416.848632 L 180 422.684498 z" clip-path="url(#p8f05429cac)" fill="#70223b"/></g><g id="PolyCollection_7"><path d="M 180 416.119149 L 180 422.684498 L 195.71831 416.848632 L 211.43662 481.189058 L 227.15493 462.660182 L 242.873239 413.638906 L 258.591549 350.027964 L 274.309859 268.909422 L 290.028169 188.374468 L 305.746479 391.900304 L 321.464789 421.517325 L 337.183099 370.891185 L 352.901408 373.079635 L 368.619718 392.921581 L 384.338028 335.146505 L 400.056338 357.468693 L 415.774648 387.815198 L 431.492958 402.98845 L 447.211268 321.432219 L 462.929577 341.857751 L 478.647887 341.128267 L 494.366197 256.654103 L 510.084507 270.806079 L 525.802817 393.79696 L 541.521127 489.942857 L 557.239437 463.973252 L 572.957746 419.912462 L 588.676056 363.012766 L 604.394366 239.584195 L 620.112676 201.067477 L 635.830986 309.760486 L 651.549296 307.134347 L 667.267606 339.377508 L 682.985915 363.012766 L 698.704225 265.553799 L 714.422535 200.192097 L 730.140845 179.328875 L 745.859155 346.964134 L 761.577465 296.337994 L 777.295775 264.240729 L 793.014085 260.593313 L 808.732394 262.781763 L 824.450704 251.54772 L 840.169014 228.058359 L 855.887324 318.514286 L 871.605634 330.477812 L 887.323944 328.872948 L 903.042254 397.006687 L 918.760563 350.319757 L 934.478873 306.842553 L 950.197183 272.265046 L 965.915493 419.182979 L 981.633803 378.477812 L 997.352113 474.915502 L 1013.070423 423.268085 L 1028.788732 382.271125 L 1044.507042 310.05228 L 1060.225352 327.851672 L 1075.943662 397.006687 L 1091.661972 441.505167 L 1107.380282 309.031003 L 1123.098592 467.037082 L 1138.816901 418.891185 L 1154.535211 339.523404 L 1170.253521 400.070517 L 1185.971831 418.745289 L 1201.690141 461.493009 L 1217.408451 445.29848 L 1233.126761 419.766565 L 1248.84507 443.401824 L 1264.56338 345.213374 L 1280.28169 358.198176 L 1296 420.058359 L 1311.71831 400.654103 L 1327.43662 437.128267 L 1343.15493 428.082675 L 1358.873239 440.629787 L 1374.591549 374.976292 L 1390.309859 436.252888 L 1406.028169 597.61459 L 1406.028169 593.967173 L 1406.028169 593.967173 L 1390.309859 419.037082 L 1374.591549 364.909422 L 1358.873239 434.939818 L 1343.15493 413.784802 L 1327.43662 431.730091 L 1311.71831 390.003647 L 1296 405.322796 L 1280.28169 348.131307 L 1264.56338 338.793921 L 1248.84507 429.103951 L 1233.126761 405.031003 L 1217.408451 431.000608 L 1201.690141 452.447416 L 1185.971831 405.760486 L 1170.253521 379.936778 L 1154.535211 330.769605 L 1138.816901 410.283283 L 1123.098592 462.514286 L 1107.380282 299.98541 L 1091.661972 422.538602 L 1075.943662 375.997568 L 1060.225352 317.201216 L 1044.507042 293.420061 L 1028.788732 374.246809 L 1013.070423 412.179939 L 997.352113 462.660182 L 981.633803 368.556839 L 965.915493 400.654103 L 950.197183 261.1769 L 934.478873 292.252888 L 918.760563 344.192097 L 903.042254 390.441337 L 887.323944 312.532523 L 871.605634 319.097872 L 855.887324 302.903343 L 840.169014 203.11003 L 824.450704 223.389666 L 808.732394 236.228571 L 793.014085 240.459574 L 777.295775 249.79696 L 761.577465 278.976292 L 745.859155 336.021884 L 730.140845 165.760486 L 714.422535 182.684498 L 698.704225 239.584195 L 682.985915 342.587234 L 667.267606 331.207295 L 651.549296 292.106991 L 635.830986 295.754407 L 620.112676 179.474772 L 604.394366 222.806079 L 588.676056 343.754407 L 572.957746 408.240729 L 557.239437 436.106991 L 541.521127 482.648024 L 525.802817 376.581155 L 510.084507 237.103951 L 494.366197 228.204255 L 478.647887 317.930699 L 462.929577 326.538602 L 447.211268 304.070517 L 431.492958 395.693617 L 415.774648 377.310638 L 400.056338 343.754407 L 384.338028 317.784802 L 368.619718 376.289362 L 352.901408 361.407903 L 337.183099 359.657143 L 321.464789 404.447416 L 305.746479 369.140426 L 290.028169 176.994529 L 274.309859 244.836474 L 258.591549 340.982371 L 242.873239 404.30152 L 227.15493 452.009726 L 211.43662 476.520365 L 195.71831 409.699696 L 180 416.119149 z" clip-path="url(#p8f05429cac)" fill="#91ccf0"/></g><g id="PolyCollection_8"><path d="M 180 414.806079 L 180 416.119149 L 195.71831 409.699696 L 211.43662 476.520365 L 227.15493 452.009726 L 242.873239 404.30152 L 258.591549 340.982371 L 274.309859 244.836474 L 290.028169 176.994529 L 305.746479 369.140426 L 321.464789 404.447416 L 337.183099 359.657143 L 352.901408 361.407903 L 368.619718 376.289362 L 384.338028 317.784802 L 400.056338 343.754407 L 415.774648 377.310638 L 431.492958 395.693617 L 447.211268 304.070517 L 462.929577 326.538602 L 478.647887 317.930699 L 494.366197 228.204255 L 510.084507 237.103951 L 525.802817 376.581155 L 541.521127 482.648024 L 557.239437 436.106991 L 572.957746 408.240729 L 588.676056 343.754407 L 604.394366 222.806079 L 620.112676 179.474772 L 635.830986 295.754407 L 651.549296 292.106991 L 667.267606 331.207295 L 682.985915 342.587234 L 698.704225 239.584195 L 714.422535 182.684498 L 730.140845 165.760486 L 745.859155 336.021884 L 761.577465 278.976292 L 777.295775 249.79696 L 793.014085 240.459574 L 808.732394 236.228571 L 824.450704 223.389666 L 840.169014 203.11003 L 855.887324 302.903343 L 871.605634 319.097872 L 887.323944 312.532523 L 903.042254 390.441337 L 918.760563 344.192097 L 934.478873 292.252888 L 950.197183 261.1769 L 965.915493 400.654103 L 981.633803 368.556839 L 997.352113 462.660182 L 1013.070423 412.179939 L 1028.788732 374.246809 L 1044.507042 293.420061 L 1060.225352 317.201216 L 1075.943662 375.997568 L 1091.661972 422.538602 L 1107.380282 299.98541 L 1123.098592 462.514286 L 1138.816901 410.283283 L 1154.535211 330.769605 L 1170.253521 379.936778 L 1185.971831 405.760486 L 1201.690141 452.447416 L 1217.408451 431.000608 L 1233.126761 405.031003 L 1248.84507 429.103951 L 1264.56338 338.793921 L 1280.28169 348.131307 L 1296 405.322796 L 1311.71831 390.003647 L 1327.43662 431.730091 L 1343.15493 413.784802 L 1358.873239 434.939818 L 1374.591549 364.909422 L 1390.309859 419.037082 L 1406.028169 593.967173 L 1406.028169 591.92462 L 1406.028169 591.92462 L 1390.309859 410.575076 L 1374.591549 354.258967 L 1358.873239 429.979331 L 1343.15493 397.73617 L 1327.43662 421.955015 L 1311.71831 378.623708 L 1296 390.003647 L 1280.28169 339.669301 L 1264.56338 327.997568 L 1248.84507 415.681459 L 1233.126761 395.255927 L 1217.408451 420.496049 L 1201.690141 446.757447 L 1185.971831 393.067477 L 1170.253521 364.763526 L 1154.535211 312.532523 L 1138.816901 399.632827 L 1123.098592 449.967173 L 1107.380282 287.875988 L 1091.661972 412.909422 L 1075.943662 364.471733 L 1060.225352 304.945897 L 1044.507042 278.976292 L 1028.788732 361.845593 L 1013.070423 400.654103 L 997.352113 455.073556 L 981.633803 363.888146 L 965.915493 393.359271 L 950.197183 246.149544 L 934.478873 280.872948 L 918.760563 329.018845 L 903.042254 380.520365 L 887.323944 299.693617 L 871.605634 309.322796 L 855.887324 294.295441 L 840.169014 189.979331 L 824.450704 212.593313 L 808.732394 226.307599 L 793.014085 222.222492 L 777.295775 235.353191 L 761.577465 266.866869 L 745.859155 327.997568 L 730.140845 143.875988 L 714.422535 154.380547 L 698.704225 230.392705 L 682.985915 329.310638 L 667.267606 322.891185 L 651.549296 285.103951 L 635.830986 287.730091 L 620.112676 160.945897 L 604.394366 216.824316 L 588.676056 339.961094 L 572.957746 400.945897 L 557.239437 427.499088 L 541.521127 471.705775 L 525.802817 364.909422 L 510.084507 224.410942 L 494.366197 217.553799 L 478.647887 304.36231 L 462.929577 315.158663 L 447.211268 294.587234 L 431.492958 389.565957 L 415.774648 364.763526 L 400.056338 329.164742 L 384.338028 304.8 L 368.619718 361.262006 L 352.901408 346.964134 L 337.183099 345.651064 L 321.464789 383.730091 L 305.746479 354.55076 L 290.028169 158.903343 L 274.309859 229.955015 L 258.591549 337.626748 L 242.873239 394.23465 L 227.15493 445.590274 L 211.43662 463.097872 L 195.71831 402.98845 L 180 414.806079 z" clip-path="url(#p8f05429cac)" fill="#aaf155"/></g><g id="PolyCollection_9"><path d="M 180 409.407903 L 180 414.806079 L 195.71831 402.98845 L 211.43662 463.097872 L 227.15493 445.590274 L 242.873239 394.23465 L 258.591549 337.626748 L 274.309859 229.955015 L 290.028169 158.903343 L 305.746479 354.55076 L 321.464789 383.730091 L 337.183099 345.651064 L 352.901408 346.964134 L 368.619718 361.262006 L 384.338028 304.8 L 400.056338 329.164742 L 415.774648 364.763526 L 431.492958 389.565957 L 447.211268 294.587234 L 462.929577 315.158663 L 478.647887 304.36231 L 494.366197 217.553799 L 510.084507 224.410942 L 525.802817 364.909422 L 541.521127 471.705775 L 557.239437 427.499088 L 572.957746 400.945897 L 588.676056 339.961094 L 604.394366 216.824316 L 620.112676 160.945897 L 635.830986 287.730091 L 651.549296 285.103951 L 667.267606 322.891185 L 682.985915 329.310638 L 698.704225 230.392705 L 714.422535 154.380547 L 730.140845 143.875988 L 745.859155 327.997568 L 761.577465 266.866869 L 777.295775 235.353191 L 793.014085 222.222492 L 808.732394 226.307599 L 824.450704 212.593313 L 840.169014 189.979331 L 855.887324 294.295441 L 871.605634 309.322796 L 887.323944 299.693617 L 903.042254 380.520365 L 918.760563 329.018845 L 934.478873 280.872948 L 950.197183 246.149544 L 965.915493 393.359271 L 981.633803 363.888146 L 997.352113 455.073556 L 1013.070423 400.654103 L 1028.788732 361.845593 L 1044.507042 278.976292 L 1060.225352 304.945897 L 1075.943662 364.471733 L 1091.661972 412.909422 L 1107.380282 287.875988 L 1123.098592 449.967173 L 1138.816901 399.632827 L 1154.535211 312.532523 L 1170.253521 364.763526 L 1185.971831 393.067477 L 1201.690141 446.757447 L 1217.408451 420.496049 L 1233.126761 395.255927 L 1248.84507 415.681459 L 1264.56338 327.997568 L 1280.28169 339.669301 L 1296 390.003647 L 1311.71831 378.623708 L 1327.43662 421.955015 L 1343.15493 397.73617 L 1358.873239 429.979331 L 1374.591549 354.258967 L 1390.309859 410.575076 L 1406.028169 591.92462 L 1406.028169 589.882067 L 1406.028169 589.882067 L 1390.309859 395.839514 L 1374.591549 345.651064 L 1358.873239 417.432219 L 1343.15493 383.730091 L 1327.43662 400.508207 L 1311.71831 367.827356 L 1296 378.331915 L 1280.28169 328.289362 L 1264.56338 312.240729 L 1248.84507 408.970213 L 1233.126761 388.398784 L 1217.408451 406.635866 L 1201.690141 430.271125 L 1185.971831 365.055319 L 1170.253521 341.420061 L 1154.535211 302.027964 L 1138.816901 389.128267 L 1123.098592 439.024924 L 1107.380282 276.058359 L 1091.661972 404.155623 L 1075.943662 350.61155 L 1060.225352 277.371429 L 1044.507042 258.842553 L 1028.788732 345.505167 L 1013.070423 384.751368 L 997.352113 426.477812 L 981.633803 347.11003 L 965.915493 377.748328 L 950.197183 226.599392 L 934.478873 267.012766 L 918.760563 310.48997 L 903.042254 361.845593 L 887.323944 287.000608 L 871.605634 296.046201 L 855.887324 275.328875 L 840.169014 166.198176 L 824.450704 185.018845 L 808.732394 194.356231 L 793.014085 199.024924 L 777.295775 211.280243 L 761.577465 241.043161 L 745.859155 305.967173 L 730.140845 112.945897 L 714.422535 128.410942 L 698.704225 198.587234 L 682.985915 317.055319 L 667.267606 303.632827 L 651.549296 271.389666 L 635.830986 272.848632 L 620.112676 139.936778 L 604.394366 201.067477 L 588.676056 324.933739 L 572.957746 377.164742 L 557.239437 418.891185 L 541.521127 464.556839 L 525.802817 343.024924 L 510.084507 202.088754 L 494.366197 195.085714 L 478.647887 284.520365 L 462.929577 300.277204 L 447.211268 277.225532 L 431.492958 372.496049 L 415.774648 354.404863 L 400.056338 311.948936 L 384.338028 281.310638 L 368.619718 349.29848 L 352.901408 333.541641 L 337.183099 328.143465 L 321.464789 345.79696 L 305.746479 320.410942 L 290.028169 133.517325 L 274.309859 217.845593 L 258.591549 330.186018 L 242.873239 388.836474 L 227.15493 436.836474 L 211.43662 444.131307 L 195.71831 391.462614 L 180 409.407903 z" clip-path="url(#p8f05429cac)" fill="#f0c097"/></g><g id="PolyCollection_10"><path d="M 180 409.407903 L 180 409.407903 L 195.71831 391.462614 L 211.43662 444.131307 L 227.15493 436.836474 L 242.873239 388.836474 L 258.591549 330.186018 L 274.309859 217.845593 L 290.028169 133.517325 L 305.746479 320.410942 L 321.464789 345.79696 L 337.183099 328.143465 L 352.901408 333.541641 L 368.619718 349.29848 L 384.338028 281.310638 L 400.056338 311.948936 L 415.774648 354.404863 L 431.492958 372.496049 L 447.211268 277.225532 L 462.929577 300.277204 L 478.647887 284.520365 L 494.366197 195.085714 L 510.084507 202.088754 L 525.802817 343.024924 L 541.521127 464.556839 L 557.239437 418.891185 L 572.957746 377.164742 L 588.676056 324.933739 L 604.394366 201.067477 L 620.112676 139.936778 L 635.830986 272.848632 L 651.549296 271.389666 L 667.267606 303.632827 L 682.985915 317.055319 L 698.704225 198.587234 L 714.422535 128.410942 L 730.140845 112.945897 L 745.859155 305.967173 L 761.577465 241.043161 L 777.295775 211.280243 L 793.014085 199.024924 L 808.732394 194.356231 L 824.450704 185.018845 L 840.169014 166.198176 L 855.887324 275.328875 L 871.605634 296.046201 L 887.323944 287.000608 L 903.042254 361.845593 L 918.760563 310.48997 L 934.478873 267.012766 L 950.197183 226.599392 L 965.915493 377.748328 L 981.633803 347.11003 L 997.352113 426.477812 L 1013.070423 384.751368 L 1028.788732 345.505167 L 1044.507042 258.842553 L 1060.225352 277.371429 L 1075.943662 350.61155 L 1091.661972 404.155623 L 1107.380282 276.058359 L 1123.098592 439.024924 L 1138.816901 389.128267 L 1154.535211 302.027964 L 1170.253521 341.420061 L 1185.971831 365.055319 L 1201.690141 430.271125 L 1217.408451 406.635866 L 1233.126761 388.398784 L 1248.84507 408.970213 L 1264.56338 312.240729 L 1280.28169 328.289362 L 1296 378.331915 L 1311.71831 367.827356 L 1327.43662 400.508207 L 1343.15493 383.730091 L 1358.873239 417.432219 L 1374.591549 345.651064 L 1390.309859 395.839514 L 1406.028169 589.882067 L 1406.028169 587.98541 L 1406.028169 587.98541 L 1390.309859 393.942857 L 1374.591549 345.505167 L 1358.873239 417.432219 L 1343.15493 383.438298 L 1327.43662 400.070517 L 1311.71831 363.012766 L 1296 378.331915 L 1280.28169 313.116109 L 1264.56338 301.73617 L 1248.84507 400.945897 L 1233.126761 387.815198 L 1217.408451 405.468693 L 1201.690141 428.228571 L 1185.971831 364.909422 L 1170.253521 339.669301 L 1154.535211 300.568997 L 1138.816901 384.459574 L 1123.098592 438.587234 L 1107.380282 269.930699 L 1091.661972 403.86383 L 1075.943662 347.54772 L 1060.225352 276.204255 L 1044.507042 256.216413 L 1028.788732 336.897264 L 1013.070423 380.228571 L 997.352113 424.727052 L 981.633803 339.523404 L 965.915493 374.246809 L 950.197183 219.450456 L 934.478873 264.824316 L 918.760563 302.319757 L 903.042254 352.8 L 887.323944 281.310638 L 871.605634 294.879027 L 855.887324 270.660182 L 840.169014 163.42614 L 824.450704 184.872948 L 808.732394 193.772644 L 793.014085 197.711854 L 777.295775 211.134347 L 761.577465 236.082675 L 745.859155 303.195137 L 730.140845 112.8 L 714.422535 127.973252 L 698.704225 197.857751 L 682.985915 316.909422 L 667.267606 294.441337 L 651.549296 270.806079 L 635.830986 264.678419 L 620.112676 130.161702 L 604.394366 194.356231 L 588.676056 313.991489 L 572.957746 367.243769 L 557.239437 416.410942 L 541.521127 464.410942 L 525.802817 341.420061 L 510.084507 196.544681 L 494.366197 191.730091 L 478.647887 276.933739 L 462.929577 298.088754 L 447.211268 276.787842 L 431.492958 368.265046 L 415.774648 342.441337 L 400.056338 284.374468 L 384.338028 258.258967 L 368.619718 348.277204 L 352.901408 322.015805 L 337.183099 313.991489 L 321.464789 345.651064 L 305.746479 319.389666 L 290.028169 125.930699 L 274.309859 205.152584 L 258.591549 325.663222 L 242.873239 379.061398 L 227.15493 435.377508 L 211.43662 441.79696 L 195.71831 386.648024 L 180 409.407903 z" clip-path="url(#p8f05429cac)" fill="#16234f"/></g><g id="matplotlib.axis_1"><g id="xtick_1"><g id="line2d_1"><defs><path id="m6ccb7879dd" d="M 0 0 L 0 3.5" stroke="#ffffff" stroke-width="0.8"/></defs><g><use xlink:href="#m6ccb7879dd" x="180" y="640.8" fill="#ffffff" stroke="#ffffff" stroke-width="0.8"/></g></g><g id="text_1"><g transform="translate(176.81875 655.398438) scale(0.1 -0.1)" fill="#ffffff"><defs><path id="DejaVuSans-30" d="M 2034 4250 Q 1547 4250 1301 3770 Q 1056 3291 1056 2328 Q 1056 1369 1301 889 Q 1547 409 2034 409 Q 2525 409 2770 889 Q 3016 1369 3016 2328 Q 3016 3291 2770 3770 Q 2525 4250 2034 4250 z M 2034 4750 Q 2819 4750 3233 4129 Q 3647 3509 3647 2328 Q 3647 1150 3233 529 Q 2819 -91 2034 -91 Q 1250 -91 836 529 Q 422 1150 422 2328 Q 422 3509 836 4129 Q 1250 4750 2034 4750 z" transform="scale(0.015625)"/></defs><use xlink:href="#DejaVuSans-30"/></g></g></g><g id="xtick_2"><g id="line2d_2"><g><use xlink:href="#m6ccb7879dd" x="337.183" y="640.8" fill="#ffffff" stroke="#ffffff" stroke-width="0.8"/></g></g><g id="text_2"><g transform="translate(330.820599 655.398438) scale(0.1 -0.1)" fill="#ffffff"><defs><path id="DejaVuSans-31" d="M 794 531 L 1825 531 L 1825 4091 L 703 3866 L 703 4441 L 1819 4666 L 2450 4666 L 2450 531 L 3481 531 L 3481 0 L 794 0 L 794 531 z" transform="scale(0.015625)"/></defs><use xlink:href="#DejaVuSans-31"/><use xlink:href="#DejaVuSans-30" x="63.623"/></g></g></g><g id="xtick_3"><g id="line2d_3"><g><use xlink:href="#m6ccb7879dd" x="494.366" y="640.8" fill="#ffffff" stroke="#ffffff" stroke-width="0.8"/></g></g><g id="text_3"><g transform="translate(488.003697 655.398438) scale(0.1 -0.1)" fill="#ffffff"><defs><path id="DejaVuSans-32" d="M 1228 531 L 3431 531 L 3431 0 L 469 0 L 469 531 Q 828 903 1448 1529 Q 2069 2156 2228 2338 Q 2531 2678 2651 2914 Q 2772 3150 2772 3378 Q 2772 3750 2511 3984 Q 2250 4219 1831 4219 Q 1534 4219 1204 4116 Q 875 4013 500 3803 L 500 4441 Q 881 4594 1212 4672 Q 1544 4750 1819 4750 Q 2544 4750 2975 4387 Q 3406 4025 3406 3419 Q 3406 3131 3298 2873 Q 3191 2616 2906 2266 Q 2828 2175 2409 1742 Q 1991 1309 1228 531 z" transform="scale(0.015625)"/></defs><use xlink:href="#DejaVuSans-32"/><use xlink:href="#DejaVuSans-30" x="63.623"/></g></g></g><g id="xtick_4"><g id="line2d_4"><g><use xlink:href="#m6ccb7879dd" x="651.549" y="640.8" fill="#ffffff" stroke="#ffffff" stroke-width="0.8"/></g></g><g id="text_4"><g transform="translate(645.186796 655.398438) scale(0.1 -0.1)" fill="#ffffff"><defs><path id="DejaVuSans-33" d="M 2597 2516 Q 3050 2419 3304 2112 Q 3559 1806 3559 1356 Q 3559 666 3084 287 Q 2609 -91 1734 -91 Q 1441 -91 1130 -33 Q 819 25 488 141 L 488 750 Q 750 597 1062 519 Q 1375 441 1716 441 Q 2309 441 2620 675 Q 2931 909 2931 1356 Q 2931 1769 2642 2001 Q 2353 2234 1838 2234 L 1294 2234 L 1294 2753 L 1863 2753 Q 2328 2753 2575 2939 Q 2822 3125 2822 3475 Q 2822 3834 2567 4026 Q 2313 4219 1838 4219 Q 1578 4219 1281 4162 Q 984 4106 628 3988 L 628 4550 Q 988 4650 1302 4700 Q 1616 4750 1894 4750 Q 2613 4750 3031 4423 Q 3450 4097 3450 3541 Q 3450 3153 3228 2886 Q 3006 2619 2597 2516 z" transform="scale(0.015625)"/></defs><use xlink:href="#DejaVuSans-33"/><use xlink:href="#DejaVuSans-30" x="63.623"/></g></g></g><g id="xtick_5"><g id="line2d_5"><g><use xlink:href="#m6ccb7879dd" x="808.732" y="640.8" fill="#ffffff" stroke="#ffffff" stroke-width="0.8"/></g></g><g id="text_5"><g transform="translate(802.369894 655.398438) scale(0.1 -0.1)" fill="#ffffff"><defs><path id="DejaVuSans-34" d="M 2419 4116 L 825 1625 L 2419 1625 L 2419 4116 z M 2253 4666 L 3047 4666 L 3047 1625 L 3713 1625 L 3713 1100 L 3047 1100 L 3047 0 L 2419 0 L 2419 1100 L 313 1100 L 313 1709 L 2253 4666 z" transform="scale(0.015625)"/></defs><use xlink:href="#DejaVuSans-34"/><use xlink:href="#DejaVuSans-30" x="63.623"/></g></g></g><g id="xtick_6"><g id="line2d_6"><g><use xlink:href="#m6ccb7879dd" x="965.915" y="640.8" fill="#ffffff" stroke="#ffffff" stroke-width="0.8"/></g></g><g id="text_6"><g transform="translate(959.552993 655.398438) scale(0.1 -0.1)" fill="#ffffff"><defs><path id="DejaVuSans-35" d="M 691 4666 L 3169 4666 L 3169 4134 L 1269 4134 L 1269 2991 Q 1406 3038 1543 3061 Q 1681 3084 1819 3084 Q 2600 3084 3056 2656 Q 3513 2228 3513 1497 Q 3513 744 3044 326 Q 2575 -91 1722 -91 Q 1428 -91 1123 -41 Q 819 9 494 109 L 494 744 Q 775 591 1075 516 Q 1375 441 1709 441 Q 2250 441 2565 725 Q 2881 1009 2881 1497 Q 2881 1984 2565 2268 Q 2250 2553 1709 2553 Q 1456 2553 1204 2497 Q 953 2441 691 2322 L 691 4666 z" transform="scale(0.015625)"/></defs><use xlink:href="#DejaVuSans-35"/><use xlink:href="#DejaVuSans-30" x="63.623"/></g></g></g><g id="xtick_7"><g id="line2d_7"><g><use xlink:href="#m6ccb7879dd" x="1123.099" y="640.8" fill="#ffffff" stroke="#ffffff" stroke-width="0.8"/></g></g><g id="text_7"><g transform="translate(1116.736092 655.398438) scale(0.1 -0.1)" fill="#ffffff"><defs><path id="DejaVuSans-36" d="M 2113 2584 Q 1688 2584 1439 2293 Q 1191 2003 1191 1497 Q 1191 994 1439 701 Q 1688 409 2113 409 Q 2538 409 2786 701 Q 3034 994 3034 1497 Q 3034 2003 2786 2293 Q 2538 2584 2113 2584 z M 3366 4563 L 3366 3988 Q 3128 4100 2886 4159 Q 2644 4219 2406 4219 Q 1781 4219 1451 3797 Q 1122 3375 1075 2522 Q 1259 2794 1537 2939 Q 1816 3084 2150 3084 Q 2853 3084 3261 2657 Q 3669 2231 3669 1497 Q 3669 778 3244 343 Q 2819 -91 2113 -91 Q 1303 -91 875 529 Q 447 1150 447 2328 Q 447 3434 972 4092 Q 1497 4750 2381 4750 Q 2619 4750 2861 4703 Q 3103 4656 3366 4563 z" transform="scale(0.015625)"/></defs><use xlink:href="#DejaVuSans-36"/><use xlink:href="#DejaVuSans-30" x="63.623"/></g></g></g><g id="xtick_8"><g id="line2d_8"><g><use xlink:href="#m6ccb7879dd" x="1280.282" y="640.8" fill="#ffffff" stroke="#ffffff" stroke-width="0.8"/></g></g><g id="text_8"><g transform="translate(1273.91919 655.398438) scale(0.1 -0.1)" fill="#ffffff"><defs><path id="DejaVuSans-37" d="M 525 4666 L 3525 4666 L 3525 4397 L 1831 0 L 1172 0 L 2766 4134 L 525 4134 L 525 4666 z" transform="scale(0.015625)"/></defs><use xlink:href="#DejaVuSans-37"/><use xlink:href="#DejaVuSans-30" x="63.623"/></g></g></g><g id="xtick_9"><g id="line2d_9"><defs><path id="m8d82616541" d="M 0 0 L 0 2" stroke="#ffffff" stroke-width="0.6"/></defs><g><use xlink:href="#m8d82616541" x="211.437" y="640.8" fill="#ffffff" stroke="#ffffff" stroke-width="0.6"/></g></g></g><g id="xtick_10"><g id="line2d_10"><g><use xlink:href="#m8d82616541" x="242.873" y="640.8" fill="#ffffff" stroke="#ffffff" stroke-width="0.6"/></g></g></g><g id="xtick_11"><g id="line2d_11"><g><use xlink:href="#m8d82616541" x="274.31" y="640.8" fill="#ffffff" stroke="#ffffff" stroke-width="0.6"/></g></g></g><g id="xtick_12"><g id="line2d_12"><g><use xlink:href="#m8d82616541" x="305.746" y="640.8" fill="#ffffff" stroke="#ffffff" stroke-width="0.6"/></g></g></g><g id="xtick_13"><g id="line2d_13"><g><use xlink:href="#m8d82616541" x="368.62" y="640.8" fill="#ffffff" stroke="#ffffff" stroke-width="0.6"/></g></g></g><g id="xtick_14"><g id="line2d_14"><g><use xlink:href="#m8d82616541" x="400.056" y="640.8" fill="#ffffff" stroke="#ffffff" stroke-width="0.6"/></g></g></g><g id="xtick_15"><g id="line2d_15"><g><use xlink:href="#m8d82616541" x="431.493" y="640.8" fill="#ffffff" stroke="#ffffff" stroke-width="0.6"/></g></g></g><g id="xtick_16"><g id="line2d_16"><g><use xlink:href="#m8d82616541" x="462.93" y="640.8" fill="#ffffff" stroke="#ffffff" stroke-width="0.6"/></g></g></g><g id="xtick_17"><g id="line2d_17"><g><use xlink:href="#m8d82616541" x="525.803" y="640.8" fill="#ffffff" stroke="#ffffff" stroke-width="0.6"/></g></g></g><g id="xtick_18"><g id="line2d_18"><g><use xlink:href="#m8d82616541" x="557.239" y="640.8" fill="#ffffff" stroke="#ffffff" stroke-width="0.6"/></g></g></g><g id="xtick_19"><g id="line2d_19"><g><use xlink:href="#m8d82616541" x="588.676" y="640.8" fill="#ffffff" stroke="#ffffff" stroke-width="0.6"/></g></g></g><g id="xtick_20"><g id="line2d_20"><g><use xlink:href="#m8d82616541" x="620.113" y="640.8" fill="#ffffff" stroke="#ffffff" stroke-width="0.6"/></g></g></g><g id="xtick_21"><g id="line2d_21"><g><use xlink:href="#m8d82616541" x="682.986" y="640.8" fill="#ffffff" stroke="#ffffff" stroke-width="0.6"/></g></g></g><g id="xtick_22"><g id="line2d_22"><g><use xlink:href="#m8d82616541" x="714.423" y="640.8" fill="#ffffff" stroke="#ffffff" stroke-width="0.6"/></g></g></g><g id="xtick_23"><g id="line2d_23"><g><use xlink:href="#m8d82616541" x="745.859" y="640.8" fill="#ffffff" stroke="#ffffff" stroke-width="0.6"/></g></g></g><g id="xtick_24"><g id="line2d_24"><g><use xlink:href="#m8d82616541" x="777.296" y="640.8" fill="#ffffff" stroke="#ffffff" stroke-width="0.6"/></g></g></g><g id="xtick_25"><g id="line2d_25"><g><use xlink:href="#m8d82616541" x="840.169" y="640.8" fill="#ffffff" stroke="#ffffff" stroke-width="0.6"/></g></g></g><g id="xtick_26"><g id="line2d_26"><g><use xlink:href="#m8d82616541" x="871.606" y="640.8" fill="#ffffff" stroke="#ffffff" stroke-width="0.6"/></g></g></g><g id="xtick_27"><g id="line2d_27"><g><use xlink:href="#m8d82616541" x="903.042" y="640.8" fill="#ffffff" stroke="#ffffff" stroke-width="0.6"/></g></g></g><g id="xtick_28"><g id="line2d_28"><g><use xlink:href="#m8d82616541" x="934.479" y="640.8" fill="#ffffff" stroke="#ffffff" stroke-width="0.6"/></g></g></g><g id="xtick_29"><g id="line2d_29"><g><use xlink:href="#m8d82616541" x="997.352" y="640.8" fill="#ffffff" stroke="#ffffff" stroke-width="0.6"/></g></g></g><g id="xtick_30"><g id="line2d_30"><g><use xlink:href="#m8d82616541" x="1028.789" y="640.8" fill="#ffffff" stroke="#ffffff" stroke-width="0.6"/></g></g></g><g id="xtick_31"><g id="line2d_31"><g><use xlink:href="#m8d82616541" x="1060.225" y="640.8" fill="#ffffff" stroke="#ffffff" stroke-width="0.6"/></g></g></g><g id="xtick_32"><g id="line2d_32"><g><use xlink:href="#m8d82616541" x="1091.662" y="640.8" fill="#ffffff" stroke="#ffffff" stroke-width="0.6"/></g></g></g><g id="xtick_33"><g id="line2d_33"><g><use xlink:href="#m8d82616541" x="1154.535" y="640.8" fill="#ffffff" stroke="#ffffff" stroke-width="0.6"/></g></g></g><g id="xtick_34"><g id="line2d_34"><g><use xlink:href="#m8d82616541" x="1185.972" y="640.8" fill="#ffffff" stroke="#ffffff" stroke-width="0.6"/></g></g></g><g id="xtick_35"><g id="line2d_35"><g><use xlink:href="#m8d82616541" x="1217.408" y="640.8" fill="#ffffff" stroke="#ffffff" stroke-width="0.6"/></g></g></g><g id="xtick_36"><g id="line2d_36"><g><use xlink:href="#m8d82616541" x="1248.845" y="640.8" fill="#ffffff" stroke="#ffffff" stroke-width="0.6"/></g></g></g><g id="text_9"><g transform="translate(664.841406 669.076563) scale(0.1 -0.1)" fill="#ffffff"><defs><path id="DejaVuSans-44" d="M 1259 4147 L 1259 519 L 2022 519 Q 2988 519 3436 956 Q 3884 1394 3884 2338 Q 3884 3275 3436 3711 Q 2988 4147 2022 4147 L 1259 4147 z M 628 4666 L 1925 4666 Q 3281 4666 3915 4102 Q 4550 3538 4550 2338 Q 4550 1131 3912 565 Q 3275 0 1925 0 L 628 0 L 628 4666 z" transform="scale(0.015625)"/><path id="DejaVuSans-61" d="M 2194 1759 Q 1497 1759 1228 1600 Q 959 1441 959 1056 Q 959 750 1161 570 Q 1363 391 1709 391 Q 2188 391 2477 730 Q 2766 1069 2766 1631 L 2766 1759 L 2194 1759 z M 3341 1997 L 3341 0 L 2766 0 L 2766 531 Q 2569 213 2275 61 Q 1981 -91 1556 -91 Q 1019 -91 701 211 Q 384 513 384 1019 Q 384 1609 779 1909 Q 1175 2209 1959 2209 L 2766 2209 L 2766 2266 Q 2766 2663 2505 2880 Q 2244 3097 1772 3097 Q 1472 3097 1187 3025 Q 903 2953 641 2809 L 641 3341 Q 956 3463 1253 3523 Q 1550 3584 1831 3584 Q 2591 3584 2966 3190 Q 3341 2797 3341 1997 z" transform="scale(0.015625)"/><path id="DejaVuSans-79" d="M 2059 -325 Q 1816 -950 1584 -1140 Q 1353 -1331 966 -1331 L 506 -1331 L 506 -850 L 844 -850 Q 1081 -850 1212 -737 Q 1344 -625 1503 -206 L 1606 56 L 191 3500 L 800 3500 L 1894 763 L 2988 3500 L 3597 3500 L 2059 -325 z" transform="scale(0.015625)"/><path id="DejaVuSans-73" d="M 2834 3397 L 2834 2853 Q 2591 2978 2328 3040 Q 2066 3103 1784 3103 Q 1356 3103 1142 2972 Q 928 2841 928 2578 Q 928 2378 1081 2264 Q 1234 2150 1697 2047 L 1894 2003 Q 2506 1872 2764 1633 Q 3022 1394 3022 966 Q 3022 478 2636 193 Q 2250 -91 1575 -91 Q 1294 -91 989 -36 Q 684 19 347 128 L 347 722 Q 666 556 975 473 Q 1284 391 1588 391 Q 1994 391 2212 530 Q 2431 669 2431 922 Q 2431 1156 2273 1281 Q 2116 1406 1581 1522 L 1381 1569 Q 847 1681 609 1914 Q 372 2147 372 2553 Q 372 3047 722 3315 Q 1072 3584 1716 3584 Q 2034 3584 2315 3537 Q 2597 3491 2834 3397 z" transform="scale(0.015625)"/><path id="DejaVuSans-20" transform="scale(0.015625)"/><path id="DejaVuSans-69" d="M 603 3500 L 1178 3500 L 1178 0 L 603 0 L 603 3500 z M 603 4863 L 1178 4863 L 1178 4134 L 603 4134 L 603 4863 z" transform="scale(0.015625)"/><path id="DejaVuSans-6e" d="M 3513 2113 L 3513 0 L 2938 0 L 2938 2094 Q 2938 2591 2744 2837 Q 2550 3084 2163 3084 Q 1697 3084 1428 2787 Q 1159 2491 1159 1978 L 1159 0 L 581 0 L 581 3500 L 1159 3500 L 1159 2956 Q 1366 3272 1645 3428 Q 1925 3584 2291 3584 Q 2894 3584 3203 3211 Q 3513 2838 3513 2113 z" transform="scale(0.015625)"/><path id="DejaVuSans-63" d="M 3122 3366 L 3122 2828 Q 2878 2963 2633 3030 Q 2388 3097 2138 3097 Q 1578 3097 1268 2742 Q 959 2388 959 1747 Q 959 1106 1268 751 Q 1578 397 2138 397 Q 2388 397 2633 464 Q 2878 531 3122 666 L 3122 134 Q 2881 22 2623 -34 Q 2366 -91 2075 -91 Q 1284 -91 818 406 Q 353 903 353 1747 Q 353 2603 823 3093 Q 1294 3584 2113 3584 Q 2378 3584 2631 3529 Q 2884 3475 3122 3366 z" transform="scale(0.015625)"/><path id="DejaVuSans-65" d="M 3597 1894 L 3597 1613 L 953 1613 Q 991 1019 1311 708 Q 1631 397 2203 397 Q 2534 397 2845 478 Q 3156 559 3463 722 L 3463 178 Q 3153 47 2828 -22 Q 2503 -91 2169 -91 Q 1331 -91 842 396 Q 353 884 353 1716 Q 353 2575 817 3079 Q 1281 3584 2069 3584 Q 2775 3584 3186 3129 Q 3597 2675 3597 1894 z M 3022 2063 Q 3016 2534 2758 2815 Q 2500 3097 2075 3097 Q 1594 3097 1305 2825 Q 1016 2553 972 2059 L 3022 2063 z" transform="scale(0.015625)"/><path id="DejaVuSans-2f" d="M 1625 4666 L 2156 4666 L 531 -594 L 0 -594 L 1625 4666 z" transform="scale(0.015625)"/><path id="DejaVuSans-28" d="M 1984 4856 Q 1566 4138 1362 3434 Q 1159 2731 1159 2009 Q 1159 1288 1364 580 Q 1569 -128 1984 -844 L 1484 -844 Q 1016 -109 783 600 Q 550 1309 550 2009 Q 550 2706 781 3412 Q 1013 4119 1484 4856 L 1984 4856 z" transform="scale(0.015625)"/><path id="DejaVuSans-55" d="M 556 4666 L 1191 4666 L 1191 1831 Q 1191 1081 1462 751 Q 1734 422 2344 422 Q 2950 422 3222 751 Q 3494 1081 3494 1831 L 3494 4666 L 4128 4666 L 4128 1753 Q 4128 841 3676 375 Q 3225 -91 2344 -91 Q 1459 -91 1007 375 Q 556 841 556 1753 L 556 4666 z" transform="scale(0.015625)"/><path id="DejaVuSans-43" d="M 4122 4306 L 4122 3641 Q 3803 3938 3442 4084 Q 3081 4231 2675 4231 Q 1875 4231 1450 3742 Q 1025 3253 1025 2328 Q 1025 1406 1450 917 Q 1875 428 2675 428 Q 3081 428 3442 575 Q 3803 722 4122 1019 L 4122 359 Q 3791 134 3420 21 Q 3050 -91 2638 -91 Q 1578 -91 968 557 Q 359 1206 359 2328 Q 359 3453 968 4101 Q 1578 4750 2638 4750 Q 3056 4750 3426 4639 Q 3797 4528 4122 4306 z" transform="scale(0.015625)"/><path id="DejaVuSans-54" d="M -19 4666 L 3928 4666 L 3928 4134 L 2272 4134 L 2272 0 L 1638 0 L 1638 4134 L -19 4134 L -19 4666 z" transform="scale(0.015625)"/><path id="DejaVuSans-29" d="M 513 4856 L 1013 4856 Q 1481 4119 1714 3412 Q 1947 2706 1947 2009 Q 1947 1309 1714 600 Q 1481 -109 1013 -844 L 513 -844 Q 928 -128 1133 580 Q 1338 1288 1338 2009 Q 1338 2731 1133 3434 Q 928 4138 513 4856 z" transform="scale(0.015625)"/></defs><use xlink:href="#DejaVuSans-44"/><use xlink:href="#DejaVuSans-61" x="77.002"/><use xlink:href="#DejaVuSans-79" x="138.281"/><use xlink:href="#DejaVuSans-73" x="197.461"/><use xlink:href="#DejaVuSans-20" x="249.561"/><use xlink:href="#DejaVuSans-73" x="281.348"/><use xlink:href="#DejaVuSans-69" x="333.447"/><use xlink:href="#DejaVuSans-6e" x="361.23"/><use xlink:href="#DejaVuSans-63" x="424.609"/><use xlink:href="#DejaVuSans-65" x="479.59"/><use xlink:href="#DejaVuSans-20" x="541.113"/><use xlink:href="#DejaVuSans-32" x="572.9"/><use xlink:href="#DejaVuSans-36" x="636.523"/><use xlink:href="#DejaVuSans-2f" x="700.146"/><use xlink:href="#DejaVuSans-30" x="733.838"/><use xlink:href="#DejaVuSans-32" x="797.461"/><use xlink:href="#DejaVuSans-2f" x="861.084"/><use xlink:href="#DejaVuSans-32" x="894.775"/><use xlink:href="#DejaVuSans-30" x="958.398"/><use xlink:href="#DejaVuSans-32" x="1022.021"/><use xlink:href="#DejaVuSans-33" x="1085.645"/><use xlink:href="#DejaVuSans-20" x="1149.268"/><use xlink:href="#DejaVuSans-28" x="1181.055"/><use xlink:href="#DejaVuSans-55" x="1220.068"/><use xlink:href="#DejaVuSans-43" x="1293.262"/><use xlink:href="#DejaVuSans-54" x="1363.086"/><use xlink:href="#DejaVuSans-29" x="1424.17"/></g></g></g><g id="matplotlib.axis_2"><g id="ytick_1"><g id="line2d_37"><defs><path id="m26595861ff" d="M 0 0 L -3.5 0" stroke="#ffffff" stroke-width="0.8"/></defs><g><use xlink:href="#m26595861ff" x="180" y="640.8" fill="#ffffff" stroke="#ffffff" stroke-width="0.8"/></g></g><g id="text_10"><g transform="translate(166.6375 644.599219) scale(0.1 -0.1)" fill="#ffffff"><use xlink:href="#DejaVuSans-30"/></g></g></g><g id="ytick_2"><g id="line2d_38"><g><use xlink:href="#m26595861ff" x="180" y="567.852" fill="#ffffff" stroke="#ffffff" stroke-width="0.8"/></g></g><g id="text_11"><g transform="translate(153.9125 571.65089) scale(0.1 -0.1)" fill="#ffffff"><use xlink:href="#DejaVuSans-35"/><use xlink:href="#DejaVuSans-30" x="63.623"/><use xlink:href="#DejaVuSans-30" x="127.246"/></g></g></g><g id="ytick_3"><g id="line2d_39"><g><use xlink:href="#m26595861ff" x="180" y="494.903" fill="#ffffff" stroke="#ffffff" stroke-width="0.8"/></g></g><g id="text_12"><g transform="translate(147.55 498.702562) scale(0.1 -0.1)" fill="#ffffff"><use xlink:href="#DejaVuSans-31"/><use xlink:href="#DejaVuSans-30" x="63.623"/><use xlink:href="#DejaVuSans-30" x="127.246"/><use xlink:href="#DejaVuSans-30" x="190.869"/></g></g></g><g id="ytick_4"><g id="line2d_40"><g><use xlink:href="#m26595861ff" x="180" y="421.955" fill="#ffffff" stroke="#ffffff" stroke-width="0.8"/></g></g><g id="text_13"><g transform="translate(147.55 425.754234) scale(0.1 -0.1)" fill="#ffffff"><use xlink:href="#DejaVuSans-31"/><use xlink:href="#DejaVuSans-35" x="63.623"/><use xlink:href="#DejaVuSans-30" x="127.246"/><use xlink:href="#DejaVuSans-30" x="190.869"/></g></g></g><g id="ytick_5"><g id="line2d_41"><g><use xlink:href="#m26595861ff" x="180" y="349.007" fill="#ffffff" stroke="#ffffff" stroke-width="0.8"/></g></g><g id="text_14"><g transform="translate(147.55 352.805906) scale(0.1 -0.1)" fill="#ffffff"><use xlink:href="#DejaVuSans-32"/><use xlink:href="#DejaVuSans-30" x="63.623"/><use xlink:href="#DejaVuSans-30" x="127.246"/><use xlink:href="#DejaVuSans-30" x="190.869"/></g></g></g><g id="ytick_6"><g id="line2d_42"><g><use xlink:href="#m26595861ff" x="180" y="276.058" fill="#ffffff" stroke="#ffffff" stroke-width="0.8"/></g></g><g id="text_15"><g transform="translate(147.55 279.857577) scale(0.1 -0.1)" fill="#ffffff"><use xlink:href="#DejaVuSans-32"/><use xlink:href="#DejaVuSans-35" x="63.623"/><use xlink:href="#DejaVuSans-30" x="127.246"/><use xlink:href="#DejaVuSans-30" x="190.869"/></g></g></g><g id="ytick_7"><g id="line2d_43"><g><use xlink:href="#m26595861ff" x="180" y="203.11" fill="#ffffff" stroke="#ffffff" stroke-width="0.8"/></g></g><g id="text_16"><g transform="translate(147.55 206.909249) scale(0.1 -0.1)" fill="#ffffff"><use xlink:href="#DejaVuSans-33"/><use xlink:href="#DejaVuSans-30" x="63.623"/><use xlink:href="#DejaVuSans-30" x="127.246"/><use xlink:href="#DejaVuSans-30" x="190.869"/></g></g></g><g id="ytick_8"><g id="line2d_44"><g><use xlink:href="#m26595861ff" x="180" y="130.162" fill="#ffffff" stroke="#ffffff" stroke-width="0.8"/></g></g><g id="text_17"><g transform="translate(147.55 133.960921) scale(0.1 -0.1)" fill="#ffffff"><use xlink:href="#DejaVuSans-33"/><use xlink:href="#DejaVuSans-35" x="63.623"/><use xlink:href="#DejaVuSans-30" x="127.246"/><use xlink:href="#DejaVuSans-30" x="190.869"/></g></g></g><g id="ytick_9"><g id="line2d_45"><defs><path id="m70e1903263" d="M 0 0 L -2 0" stroke="#ffffff" stroke-width="0.6"/></defs><g><use xlink:href="#m70e1903263" x="180" y="626.21" fill="#ffffff" stroke="#ffffff" stroke-width="0.6"/></g></g></g><g id="ytick_10"><g id="line2d_46"><g><use xlink:href="#m70e1903263" x="180" y="611.621" fill="#ffffff" stroke="#ffffff" stroke-width="0.6"/></g></g></g><g id="ytick_11"><g id="line2d_47"><g><use xlink:href="#m70e1903263" x="180" y="597.031" fill="#ffffff" stroke="#ffffff" stroke-width="0.6"/></g></g></g><g id="ytick_12"><g id="line2d_48"><g><use xlink:href="#m70e1903263" x="180" y="582.441" fill="#ffffff" stroke="#ffffff" stroke-width="0.6"/></g></g></g><g id="ytick_13"><g id="line2d_49"><g><use xlink:href="#m70e1903263" x="180" y="553.262" fill="#ffffff" stroke="#ffffff" stroke-width="0.6"/></g></g></g><g id="ytick_14"><g id="line2d_50"><g><use xlink:href="#m70e1903263" x="180" y="538.672" fill="#ffffff" stroke="#ffffff" stroke-width="0.6"/></g></g></g><g id="ytick_15"><g id="line2d_51"><g><use xlink:href="#m70e1903263" x="180" y="524.083" fill="#ffffff" stroke="#ffffff" stroke-width="0.6"/></g></g></g><g id="ytick_16"><g id="line2d_52"><g><use xlink:href="#m70e1903263" x="180" y="509.493" fill="#ffffff" stroke="#ffffff" stroke-width="0.6"/></g></g></g><g id="ytick_17"><g id="line2d_53"><g><use xlink:href="#m70e1903263" x="180" y="480.314" fill="#ffffff" stroke="#ffffff" stroke-width="0.6"/></g></g></g><g id="ytick_18"><g id="line2d_54"><g><use xlink:href="#m70e1903263" x="180" y="465.724" fill="#ffffff" stroke="#ffffff" stroke-width="0.6"/></g></g></g><g id="ytick_19"><g id="line2d_55"><g><use xlink:href="#m70e1903263" x="180" y="451.134" fill="#ffffff" stroke="#ffffff" stroke-width="0.6"/></g></g></g><g id="ytick_20"><g id="line2d_56"><g><use xlink:href="#m70e1903263" x="180" y="436.545" fill="#ffffff" stroke="#ffffff" stroke-width="0.6"/></g></g></g><g id="ytick_21"><g id="line2d_57"><g><use xlink:href="#m70e1903263" x="180" y="407.365" fill="#ffffff" stroke="#ffffff" stroke-width="0.6"/></g></g></g><g id="ytick_22"><g id="line2d_58"><g><use xlink:href="#m70e1903263" x="180" y="392.776" fill="#ffffff" stroke="#ffffff" stroke-width="0.6"/></g></g></g><g id="ytick_23"><g id="line2d_59"><g><use xlink:href="#m70e1903263" x="180" y="378.186" fill="#ffffff" stroke="#ffffff" stroke-width="0.6"/></g></g></g><g id="ytick_24"><g id="line2d_60"><g><use xlink:href="#m70e1903263" x="180" y="363.596" fill="#ffffff" stroke="#ffffff" stroke-width="0.6"/></g></g></g><g id="ytick_25"><g id="line2d_61"><g><use xlink:href="#m70e1903263" x="180" y="334.417" fill="#ffffff" stroke="#ffffff" stroke-width="0.6"/></g></g></g><g id="ytick_26"><g id="line2d_62"><g><use xlink:href="#m70e1903263" x="180" y="319.827" fill="#ffffff" stroke="#ffffff" stroke-width="0.6"/></g></g></g><g id="ytick_27"><g id="line2d_63"><g><use xlink:href="#m70e1903263" x="180" y="305.238" fill="#ffffff" stroke="#ffffff" stroke-width="0.6"/></g></g></g><g id="ytick_28"><g id="line2d_64"><g><use xlink:href="#m70e1903263" x="180" y="290.648" fill="#ffffff" stroke="#ffffff" stroke-width="0.6"/></g></g></g><g id="ytick_29"><g id="line2d_65"><g><use xlink:href="#m70e1903263" x="180" y="261.469" fill="#ffffff" stroke="#ffffff" stroke-width="0.6"/></g></g></g><g id="ytick_30"><g id="line2d_66"><g><use xlink:href="#m70e1903263" x="180" y="246.879" fill="#ffffff" stroke="#ffffff" stroke-width="0.6"/></g></g></g><g id="ytick_31"><g id="line2d_67"><g><use xlink:href="#m70e1903263" x="180" y="232.289" fill="#ffffff" stroke="#ffffff" stroke-width="0.6"/></g></g></g><g id="ytick_32"><g id="line2d_68"><g><use xlink:href="#m70e1903263" x="180" y="217.7" fill="#ffffff" stroke="#ffffff" stroke-width="0.6"/></g></g></g><g id="ytick_33"><g id="line2d_69"><g><use xlink:href="#m70e1903263" x="180" y="188.52" fill="#ffffff" stroke="#ffffff" stroke-width="0.6"/></g></g></g><g id="ytick_34"><g id="line2d_70"><g><use xlink:href="#m70e1903263" x="180" y="173.931" fill="#ffffff" stroke="#ffffff" stroke-width="0.6"/></g></g></g><g id="ytick_35"><g id="line2d_71"><g><use xlink:href="#m70e1903263" x="180" y="159.341" fill="#ffffff" stroke="#ffffff" stroke-width="0.6"/></g></g></g><g id="ytick_36"><g id="line2d_72"><g><use xlink:href="#m70e1903263" x="180" y="144.751" fill="#ffffff" stroke="#ffffff" stroke-width="0.6"/></g></g></g><g id="ytick_37"><g id="line2d_73"><g><use xlink:href="#m70e1903263" x="180" y="115.572" fill="#ffffff" stroke="#ffffff" stroke-width="0.6"/></g></g></g><g id="ytick_38"><g id="line2d_74"><g><use xlink:href="#m70e1903263" x="180" y="100.982" fill="#ffffff" stroke="#ffffff" stroke-width="0.6"/></g></g></g><g id="text_18"><g transform="translate(141.470313 384.51875) rotate(-90) scale(0.1 -0.1)" fill="#ffffff"><defs><path id="DejaVuSans-56" d="M 1831 0 L 50 4666 L 709 4666 L 2188 738 L 3669 4666 L 4325 4666 L 2547 0 L 1831 0 z" transform="scale(0.015625)"/><path id="DejaVuSans-74" d="M 1172 4494 L 1172 3500 L 2356 3500 L 2356 3053 L 1172 3053 L 1172 1153 Q 1172 725 1289 603 Q 1406 481 1766 481 L 2356 481 L 2356 0 L 1766 0 Q 1100 0 847 248 Q 594 497 594 1153 L 594 3053 L 172 3053 L 172 3500 L 594 3500 L 594 4494 L 1172 4494 z" transform="scale(0.015625)"/><path id="DejaVuSans-67" d="M 2906 1791 Q 2906 2416 2648 2759 Q 2391 3103 1925 3103 Q 1463 3103 1205 2759 Q 947 2416 947 1791 Q 947 1169 1205 825 Q 1463 481 1925 481 Q 2391 481 2648 825 Q 2906 1169 2906 1791 z M 3481 434 Q 3481 -459 3084 -895 Q 2688 -1331 1869 -1331 Q 1566 -1331 1297 -1286 Q 1028 -1241 775 -1147 L 775 -588 Q 1028 -725 1275 -790 Q 1522 -856 1778 -856 Q 2344 -856 2625 -561 Q 2906 -266 2906 331 L 2906 616 Q 2728 306 2450 153 Q 2172 0 1784 0 Q 1141 0 747 490 Q 353 981 353 1791 Q 353 2603 747 3093 Q 1141 3584 1784 3584 Q 2172 3584 2450 3431 Q 2728 3278 2906 2969 L 2906 3500 L 3481 3500 L 3481 434 z" transform="scale(0.015625)"/></defs><use xlink:href="#DejaVuSans-56"/><use xlink:href="#DejaVuSans-65" x="60.658"/><use xlink:href="#DejaVuSans-73" x="122.182"/><use xlink:href="#DejaVuSans-74" x="174.281"/><use xlink:href="#DejaVuSans-69" x="213.49"/><use xlink:href="#DejaVuSans-67" x="241.273"/><use xlink:href="#DejaVuSans-65" x="304.75"/><use xlink:href="#DejaVuSans-73" x="366.273"/></g></g></g><g id="patch_3"><path d="M 180 640.8 L 180 86.4" fill="none" stroke="#ffffff" stroke-width="0.8" stroke-linejoin="miter" stroke-linecap="square"/></g><g id="patch_4"><path d="M 1296 640.8 L 1296 86.4" fill="none" stroke="#ffffff" stroke-width="0.8" stroke-linejoin="miter" stroke-linecap="square"/></g><g id="patch_5"><path d="M 180 640.8 L 1296 640.8" fill="none" stroke="#ffffff" stroke-width="0.8" stroke-linejoin="miter" stroke-linecap="square"/></g><g id="patch_6"><path d="M 180 86.4 L 1296 86.4" fill="none" stroke="#ffffff" stroke-width="0.8" stroke-linejoin="miter" stroke-linecap="square"/></g><g id="text_19"><g transform="translate(682.681875 80.4) scale(0.12 -0.12)" fill="#ffffff"><defs><path id="DejaVuSans-53" d="M 3425 4513 L 3425 3897 Q 3066 4069 2747 4153 Q 2428 4238 2131 4238 Q 1616 4238 1336 4038 Q 1056 3838 1056 3469 Q 1056 3159 1242 3001 Q 1428 2844 1947 2747 L 2328 2669 Q 3034 2534 3370 2195 Q 3706 1856 3706 1288 Q 3706 609 3251 259 Q 2797 -91 1919 -91 Q 1588 -91 1214 -16 Q 841 59 441 206 L 441 856 Q 825 641 1194 531 Q 1563 422 1919 422 Q 2459 422 2753 634 Q 3047 847 3047 1241 Q 3047 1584 2836 1778 Q 2625 1972 2144 2069 L 1759 2144 Q 1053 2284 737 2584 Q 422 2884 422 3419 Q 422 4038 858 4394 Q 1294 4750 2059 4750 Q 2388 4750 2728 4690 Q 3069 4631 3425 4513 z" transform="scale(0.015625)"/><path id="DejaVuSans-6c" d="M 603 4863 L 1178 4863 L 1178 0 L 603 0 L 603 4863 z" transform="scale(0.015625)"/><path id="DejaVuSans-75" d="M 544 1381 L 544 3500 L 1119 3500 L 1119 1403 Q 1119 906 1312 657 Q 1506 409 1894 409 Q 2359 409 2629 706 Q 2900 1003 2900 1516 L 2900 3500 L 3475 3500 L 3475 0 L 2900 0 L 2900 538 Q 2691 219 2414 64 Q 2138 -91 1772 -91 Q 1169 -91 856 284 Q 544 659 544 1381 z M 1991 3584 L 1991 3584 z" transform="scale(0.015625)"/><path id="DejaVuSans-46" d="M 628 4666 L 3309 4666 L 3309 4134 L 1259 4134 L 1259 2759 L 3109 2759 L 3109 2228 L 1259 2228 L 1259 0 L 628 0 L 628 4666 z" transform="scale(0.015625)"/><path id="DejaVuSans-72" d="M 2631 2963 Q 2534 3019 2420 3045 Q 2306 3072 2169 3072 Q 1681 3072 1420 2755 Q 1159 2438 1159 1844 L 1159 0 L 581 0 L 581 3500 L 1159 3500 L 1159 2956 Q 1341 3275 1631 3429 Q 1922 3584 2338 3584 Q 2397 3584 2469 3576 Q 2541 3569 2628 3553 L 2631 2963 z" transform="scale(0.015625)"/><path id="DejaVuSans-71" d="M 947 1747 Q 947 1113 1208 752 Q 1469 391 1925 391 Q 2381 391 2643 752 Q 2906 1113 2906 1747 Q 2906 2381 2643 2742 Q 2381 3103 1925 3103 Q 1469 3103 1208 2742 Q 947 2381 947 1747 z M 2906 525 Q 2725 213 2448 61 Q 2172 -91 1784 -91 Q 1150 -91 751 415 Q 353 922 353 1747 Q 353 2572 751 3078 Q 1150 3584 1784 3584 Q 2172 3584 2448 3432 Q 2725 3281 2906 2969 L 2906 3500 L 3481 3500 L 3481 -1331 L 2906 -1331 L 2906 525 z" transform="scale(0.015625)"/></defs><use xlink:href="#DejaVuSans-53"/><use xlink:href="#DejaVuSans-6c" x="63.477"/><use xlink:href="#DejaVuSans-75" x="91.26"/><use xlink:href="#DejaVuSans-67" x="154.639"/><use xlink:href="#DejaVuSans-63" x="218.115"/><use xlink:href="#DejaVuSans-61" x="273.096"/><use xlink:href="#DejaVuSans-74" x="334.375"/><use xlink:href="#DejaVuSans-20" x="373.584"/><use xlink:href="#DejaVuSans-46" x="405.371"/><use xlink:href="#DejaVuSans-72" x="455.641"/><use xlink:href="#DejaVuSans-65" x="494.504"/><use xlink:href="#DejaVuSans-71" x="556.027"/><use xlink:href="#DejaVuSans-75" x="619.504"/><use xlink:href="#DejaVuSans-65" x="682.883"/><use xlink:href="#DejaVuSans-6e" x="744.406"/><use xlink:href="#DejaVuSans-63" x="807.785"/><use xlink:href="#DejaVuSans-79" x="862.766"/></g></g></g><g id="legend_1"><g id="patch_7"><path d="M 283.516406 715 L 1156.483594 715 Q 1158.483594 715 1158.483594 713 L 1158.483594 699.321875 Q 1158.483594 697.321875 1156.483594 697.321875 L 283.516406 697.321875 Q 281.516406 697.321875 281.516406 699.321875 L 281.516406 713 Q 281.516406 715 283.516406 715 z" opacity="0.8" stroke="#cccccc" stroke-linejoin="miter"/></g><g id="patch_8"><path d="M 285.516406 708.920313 L 305.516406 708.920313 L 305.516406 701.920313 L 285.516406 701.920313 z" fill="#0f0f0f"/></g><g id="text_20"><g transform="translate(313.516406 708.920313) scale(0.1 -0.1)" fill="#ffffff"><defs><path id="DejaVuSans-6f" d="M 1959 3097 Q 1497 3097 1228 2736 Q 959 2375 959 1747 Q 959 1119 1226 758 Q 1494 397 1959 397 Q 2419 397 2687 759 Q 2956 1122 2956 1747 Q 2956 2369 2687 2733 Q 2419 3097 1959 3097 z M 1959 3584 Q 2709 3584 3137 3096 Q 3566 2609 3566 1747 Q 3566 888 3137 398 Q 2709 -91 1959 -91 Q 1206 -91 779 398 Q 353 888 353 1747 Q 353 2609 779 3096 Q 1206 3584 1959 3584 z" transform="scale(0.015625)"/><path id="DejaVuSans-6d" d="M 3328 2828 Q 3544 3216 3844 3400 Q 4144 3584 4550 3584 Q 5097 3584 5394 3201 Q 5691 2819 5691 2113 L 5691 0 L 5113 0 L 5113 2094 Q 5113 2597 4934 2840 Q 4756 3084 4391 3084 Q 3944 3084 3684 2787 Q 3425 2491 3425 1978 L 3425 0 L 2847 0 L 2847 2094 Q 2847 2600 2669 2842 Q 2491 3084 2119 3084 Q 1678 3084 1418 2786 Q 1159 2488 1159 1978 L 1159 0 L 581 0 L 581 3500 L 1159 3500 L 1159 2956 Q 1356 3278 1631 3431 Q 1906 3584 2284 3584 Q 2666 3584 2933 3390 Q 3200 3197 3328 2828 z" transform="scale(0.015625)"/></defs><use xlink:href="#DejaVuSans-43"/><use xlink:href="#DejaVuSans-75" x="69.824"/><use xlink:href="#DejaVuSans-73" x="133.203"/><use xlink:href="#DejaVuSans-74" x="185.303"/><use xlink:href="#DejaVuSans-6f" x="224.512"/><use xlink:href="#DejaVuSans-6d" x="285.693"/><use xlink:href="#DejaVuSans-20" x="383.105"/><use xlink:href="#DejaVuSans-43" x="414.893"/><use xlink:href="#DejaVuSans-6f" x="484.717"/><use xlink:href="#DejaVuSans-6c" x="545.898"/><use xlink:href="#DejaVuSans-6f" x="573.682"/><use xlink:href="#DejaVuSans-75" x="634.863"/><use xlink:href="#DejaVuSans-72" x="698.242"/></g></g><g id="patch_9"><path d="M 407.450781 708.920313 L 427.450781 708.920313 L 427.450781 701.920313 L 407.450781 701.920313 z" fill="#ffffff"/></g><g id="text_21"><g transform="translate(435.450781 708.920313) scale(0.1 -0.1)" fill="#ffffff"><defs><path id="DejaVuSans-76" d="M 191 3500 L 800 3500 L 1894 563 L 2988 3500 L 3597 3500 L 2284 0 L 1503 0 L 191 3500 z" transform="scale(0.015625)"/></defs><use xlink:href="#DejaVuSans-53"/><use xlink:href="#DejaVuSans-75" x="63.477"/><use xlink:href="#DejaVuSans-72" x="126.855"/><use xlink:href="#DejaVuSans-76" x="167.969"/><use xlink:href="#DejaVuSans-69" x="227.148"/><use xlink:href="#DejaVuSans-76" x="254.932"/><use xlink:href="#DejaVuSans-6f" x="314.111"/><use xlink:href="#DejaVuSans-72" x="375.293"/></g></g><g id="patch_10"><path d="M 497.092969 708.920313 L 517.092969 708.920313 L 517.092969 701.920313 L 497.092969 701.920313 z" fill="#ff7373"/></g><g id="text_22"><g transform="translate(525.092969 708.920313) scale(0.1 -0.1)" fill="#ffffff"><defs><path id="DejaVuSans-48" d="M 628 4666 L 1259 4666 L 1259 2753 L 3553 2753 L 3553 4666 L 4184 4666 L 4184 0 L 3553 0 L 3553 2222 L 1259 2222 L 1259 0 L 628 0 L 628 4666 z" transform="scale(0.015625)"/></defs><use xlink:href="#DejaVuSans-48"/><use xlink:href="#DejaVuSans-75" x="75.195"/><use xlink:href="#DejaVuSans-6e" x="138.574"/><use xlink:href="#DejaVuSans-74" x="201.953"/><use xlink:href="#DejaVuSans-65" x="241.162"/><use xlink:href="#DejaVuSans-72" x="302.686"/></g></g><g id="patch_11"><path d="M 579.472656 708.920313 L 599.472656 708.920313 L 599.472656 701.920313 L 579.472656 701.920313 z" fill="#4f2d68"/></g><g id="text_23"><g transform="translate(607.472656 708.920313) scale(0.1 -0.1)" fill="#ffffff"><defs><path id="DejaVuSans-70" d="M 1159 525 L 1159 -1331 L 581 -1331 L 581 3500 L 1159 3500 L 1159 2969 Q 1341 3281 1617 3432 Q 1894 3584 2278 3584 Q 2916 3584 3314 3078 Q 3713 2572 3713 1747 Q 3713 922 3314 415 Q 2916 -91 2278 -91 Q 1894 -91 1617 61 Q 1341 213 1159 525 z M 3116 1747 Q 3116 2381 2855 2742 Q 2594 3103 2138 3103 Q 1681 3103 1420 2742 Q 1159 2381 1159 1747 Q 1159 1113 1420 752 Q 1681 391 2138 391 Q 2594 391 2855 752 Q 3116 1113 3116 1747 z" transform="scale(0.015625)"/></defs><use xlink:href="#DejaVuSans-53"/><use xlink:href="#DejaVuSans-70" x="63.477"/><use xlink:href="#DejaVuSans-65" x="126.953"/><use xlink:href="#DejaVuSans-61" x="188.477"/><use xlink:href="#DejaVuSans-72" x="249.756"/><use xlink:href="#DejaVuSans-6d" x="289.119"/><use xlink:href="#DejaVuSans-61" x="386.531"/><use xlink:href="#DejaVuSans-73" x="447.811"/><use xlink:href="#DejaVuSans-74" x="499.91"/><use xlink:href="#DejaVuSans-65" x="539.119"/><use xlink:href="#DejaVuSans-72" x="600.643"/></g></g><g id="patch_12"><path d="M 691.649219 708.920313 L 711.649219 708.920313 L 711.649219 701.920313 L 691.649219 701.920313 z" fill="#ffff73"/></g><g id="text_24"><g transform="translate(719.649219 708.920313) scale(0.1 -0.1)" fill="#ffffff"><defs><path id="DejaVuSans-4d" d="M 628 4666 L 1569 4666 L 2759 1491 L 3956 4666 L 4897 4666 L 4897 0 L 4281 0 L 4281 4097 L 3078 897 L 2444 897 L 1241 4097 L 1241 0 L 628 0 L 628 4666 z" transform="scale(0.015625)"/><path id="DejaVuSans-6b" d="M 581 4863 L 1159 4863 L 1159 1991 L 2875 3500 L 3609 3500 L 1753 1863 L 3688 0 L 2938 0 L 1159 1709 L 1159 0 L 581 0 L 581 4863 z" transform="scale(0.015625)"/></defs><use xlink:href="#DejaVuSans-4d"/><use xlink:href="#DejaVuSans-6f" x="86.279"/><use xlink:href="#DejaVuSans-6e" x="147.461"/><use xlink:href="#DejaVuSans-6b" x="210.84"/></g></g><g id="patch_13"><path d="M 766.524219 708.920313 L 786.524219 708.920313 L 786.524219 701.920313 L 766.524219 701.920313 z" fill="#70223b"/></g><g id="text_25"><g transform="translate(794.524219 708.920313) scale(0.1 -0.1)" fill="#ffffff"><defs><path id="DejaVuSans-41" d="M 2188 4044 L 1331 1722 L 3047 1722 L 2188 4044 z M 1831 4666 L 2547 4666 L 4325 0 L 3669 0 L 3244 1197 L 1141 1197 L 716 0 L 50 0 L 1831 4666 z" transform="scale(0.015625)"/><path id="DejaVuSans-66" d="M 2375 4863 L 2375 4384 L 1825 4384 Q 1516 4384 1395 4259 Q 1275 4134 1275 3809 L 1275 3500 L 2222 3500 L 2222 3053 L 1275 3053 L 1275 0 L 697 0 L 697 3053 L 147 3053 L 147 3500 L 697 3500 L 697 3744 Q 697 4328 969 4595 Q 1241 4863 1831 4863 L 2375 4863 z" transform="scale(0.015625)"/></defs><use xlink:href="#DejaVuSans-41"/><use xlink:href="#DejaVuSans-72" x="68.408"/><use xlink:href="#DejaVuSans-74" x="109.521"/><use xlink:href="#DejaVuSans-69" x="148.73"/><use xlink:href="#DejaVuSans-66" x="176.514"/><use xlink:href="#DejaVuSans-69" x="211.719"/><use xlink:href="#DejaVuSans-63" x="239.502"/><use xlink:href="#DejaVuSans-65" x="294.482"/><use xlink:href="#DejaVuSans-72" x="356.006"/></g></g><g id="patch_14"><path d="M 854.235156 708.920313 L 874.235156 708.920313 L 874.235156 701.920313 L 854.235156 701.920313 z" fill="#91ccf0"/></g><g id="text_26"><g transform="translate(882.235156 708.920313) scale(0.1 -0.1)" fill="#ffffff"><defs><path id="DejaVuSans-52" d="M 2841 2188 Q 3044 2119 3236 1894 Q 3428 1669 3622 1275 L 4263 0 L 3584 0 L 2988 1197 Q 2756 1666 2539 1819 Q 2322 1972 1947 1972 L 1259 1972 L 1259 0 L 628 0 L 628 4666 L 2053 4666 Q 2853 4666 3247 4331 Q 3641 3997 3641 3322 Q 3641 2881 3436 2590 Q 3231 2300 2841 2188 z M 1259 4147 L 1259 2491 L 2053 2491 Q 2509 2491 2742 2702 Q 2975 2913 2975 3322 Q 2975 3731 2742 3939 Q 2509 4147 2053 4147 L 1259 4147 z" transform="scale(0.015625)"/></defs><use xlink:href="#DejaVuSans-52"/><use xlink:href="#DejaVuSans-69" x="69.482"/><use xlink:href="#DejaVuSans-76" x="97.266"/><use xlink:href="#DejaVuSans-75" x="156.445"/><use xlink:href="#DejaVuSans-6c" x="219.824"/><use xlink:href="#DejaVuSans-65" x="247.607"/><use xlink:href="#DejaVuSans-74" x="309.131"/></g></g><g id="patch_15"><path d="M 937.069531 708.920313 L 957.069531 708.920313 L 957.069531 701.920313 L 937.069531 701.920313 z" fill="#aaf155"/></g><g id="text_27"><g transform="translate(965.069531 708.920313) scale(0.1 -0.1)" fill="#ffffff"><use xlink:href="#DejaVuSans-53"/><use xlink:href="#DejaVuSans-61" x="63.477"/><use xlink:href="#DejaVuSans-69" x="124.756"/><use xlink:href="#DejaVuSans-6e" x="152.539"/><use xlink:href="#DejaVuSans-74" x="215.918"/></g></g><g id="patch_16"><path d="M 1010.582031 708.920313 L 1030.582031 708.920313 L 1030.582031 701.920313 L 1010.582031 701.920313 z" fill="#f0c097"/></g><g id="text_28"><g transform="translate(1038.582031 708.920313) scale(0.1 -0.1)" fill="#ffffff"><defs><path id="DejaVuSans-47" d="M 3809 666 L 3809 1919 L 2778 1919 L 2778 2438 L 4434 2438 L 4434 434 Q 4069 175 3628 42 Q 3188 -91 2688 -91 Q 1594 -91 976 548 Q 359 1188 359 2328 Q 359 3472 976 4111 Q 1594 4750 2688 4750 Q 3144 4750 3555 4637 Q 3966 4525 4313 4306 L 4313 3634 Q 3963 3931 3569 4081 Q 3175 4231 2741 4231 Q 1884 4231 1454 3753 Q 1025 3275 1025 2328 Q 1025 1384 1454 906 Q 1884 428 2741 428 Q 3075 428 3337 486 Q 3600 544 3809 666 z" transform="scale(0.015625)"/><path id="DejaVuSans-64" d="M 2906 2969 L 2906 4863 L 3481 4863 L 3481 0 L 2906 0 L 2906 525 Q 2725 213 2448 61 Q 2172 -91 1784 -91 Q 1150 -91 751 415 Q 353 922 353 1747 Q 353 2572 751 3078 Q 1150 3584 1784 3584 Q 2172 3584 2448 3432 Q 2725 3281 2906 2969 z M 947 1747 Q 947 1113 1208 752 Q 1469 391 1925 391 Q 2381 391 2643 752 Q 2906 1113 2906 1747 Q 2906 2381 2643 2742 Q 2381 3103 1925 3103 Q 1469 3103 1208 2742 Q 947 2381 947 1747 z" transform="scale(0.015625)"/></defs><use xlink:href="#DejaVuSans-47"/><use xlink:href="#DejaVuSans-6f" x="77.49"/><use xlink:href="#DejaVuSans-75" x="138.672"/><use xlink:href="#DejaVuSans-72" x="202.051"/><use xlink:href="#DejaVuSans-6d" x="241.414"/><use xlink:href="#DejaVuSans-61" x="338.826"/><use xlink:href="#DejaVuSans-6e" x="400.105"/><use xlink:href="#DejaVuSans-64" x="463.484"/></g></g><g id="patch_17"><path d="M 1111.277344 708.920313 L 1131.277344 708.920313 L 1131.277344 701.920313 L 1111.277344 701.920313 z" fill="#16234f"/></g><g id="text_29"><g transform="translate(1139.277344 708.920313) scale(0.1 -0.1)" fill="#ffffff"><defs><path id="DejaVuSans-49" d="M 628 4666 L 1259 4666 L 1259 0 L 628 0 L 628 4666 z" transform="scale(0.015625)"/></defs><use xlink:href="#DejaVuSans-49"/><use xlink:href="#DejaVuSans-6e" x="29.492"/><use xlink:href="#DejaVuSans-76" x="92.871"/></g></g></g></g><defs><clipPath id="p8f05429cac"><rect x="180" y="86.4" width="1116" height="554.4"/></clipPath></defs></svg>