<svg xmlns:xlink="http://www.w3.org/1999/xlink" width="1920" height="960" viewBox="0 0 1440 720" xmlns="http://www.w3.org/2000/svg" version="1.1"><metadata><rdf:RDF xmlns:dc="http://purl.org/dc/elements/1.1/" xmlns:cc="http://creativecommons.org/ns#" xmlns:rdf="http://www.w3.org/1999/02/22-rdf-syntax-ns#"><cc:Work><dc:type rdf:resource="http://purl.org/dc/dcmitype/StillImage"/><dc:format>image/svg+xml</dc:format><dc:creator><cc:Agent><dc:title>Matplotlib v3.7.1, https://matplotlib.org/</dc:title></cc:Agent></dc:creator></cc:Work></rdf:RDF></metadata><defs><style type="text/css">*{stroke-linejoin:round;stroke-linecap:butt}</style></defs><g id="figure_1"><g id="patch_1"><path d="M 0 720 L 1440 720 L 1440 0 L 0 0 z"/></g><g id="axes_1"><g id="patch_2"><path d="M 180 640.8 L 1296 640.8 L 1296 86.4 L 180 86.4 z"/></g><g id="PolyCollection_1"><path d="M 180 514.522868 L 180 640.8 L 222.923077 640.8 L 265.846154 640.8 L 308.769231 640.8 L 351.692308 640.8 L 394.615385 640.8 L 437.538462 640.8 L 480.461538 640.8 L 523.384615 640.8 L 566.307692 640.8 L 609.230769 640.8 L 652.153846 640.8 L 695.076923 640.8 L 738 640.8 L 780.923077 640.8 L 823.846154 640.8 L 866.769231 640.8 L 909.692308 640.8 L 952.615385 640.8 L 995.538462 640.8 L 1038.461538 640.8 L 1081.384615 640.8 L 1124.307692 640.8 L 1167.230769 640.8 L 1210.153846 640.8 L 1253.076923 640.8 L 1296 640.8 L 1338.923077 640.8 L 1381.846154 640.8 L 1424.769231 640.8 L 1467.692308 640.8 L 1510.615385 640.8 L 1553.538462 640.8 L 1596.461538 640.8 L 1596.461538 551.029527 L 1596.461538 551.029527 L 1553.538462 484.150524 L 1510.615385 481.45741 L 1467.692308 440.761462 L 1424.769231 448.691187 L 1381.846154 366.401587 L 1338.923077 401.711306 L 1296 497.31686 L 1253.076923 541.753245 L 1210.153846 548.037178 L 1167.230769 574.36985 L 1124.307692 485.646699 L 1081.384615 444.801133 L 1038.461538 405.152508 L 995.538462 485.796316 L 952.615385 495.371833 L 909.692308 519.011391 L 866.769231 519.460244 L 823.846154 479.662001 L 780.923077 499.561122 L 738 448.242335 L 695.076923 502.852706 L 652.153846 481.607027 L 609.230769 491.930632 L 566.307692 538.461661 L 523.384615 516.916747 L 480.461538 400.663984 L 437.538462 446.74616 L 394.615385 503.151941 L 351.692308 524.99609 L 308.769231 567.038595 L 265.846154 538.162426 L 222.923077 507.9397 L 180 514.522868 z" clip-path="url(#p1aa700c61e)" fill="#0f0f0f"/></g><g id="PolyCollection_2"><path d="M 180 494.922981 L 180 514.522868 L 222.923077 507.9397 L 265.846154 538.162426 L 308.769231 567.038595 L 351.692308 524.99609 L 394.615385 503.151941 L 437.538462 446.74616 L 480.461538 400.663984 L 523.384615 516.916747 L 566.307692 538.461661 L 609.230769 491.930632 L 652.153846 481.607027 L 695.076923 502.852706 L 738 448.242335 L 780.923077 499.561122 L 823.846154 479.662001 L 866.769231 519.460244 L 909.692308 519.011391 L 952.615385 495.371833 L 995.538462 485.796316 L 1038.461538 405.152508 L 1081.384615 444.801133 L 1124.307692 485.646699 L 1167.230769 574.36985 L 1210.153846 548.037178 L 1253.076923 541.753245 L 1296 497.31686 L 1338.923077 401.711306 L 1381.846154 366.401587 L 1424.769231 448.691187 L 1467.692308 440.761462 L 1510.615385 481.45741 L 1553.538462 484.150524 L 1596.461538 551.029527 L 1596.461538 525.893794 L 1596.461538 525.893794 L 1553.538462 444.501899 L 1510.615385 445.698838 L 1467.692308 405.302125 L 1424.769231 395.576991 L 1381.846154 323.760612 L 1338.923077 357.42454 L 1296 457.069765 L 1253.076923 507.34123 L 1210.153846 536.666251 L 1167.230769 555.51805 L 1124.307692 469.787249 L 1081.384615 399.16781 L 1038.461538 383.009124 L 995.538462 462.306376 L 952.615385 466.794899 L 909.692308 492.977954 L 866.769231 505.845055 L 823.846154 454.077416 L 780.923077 463.652933 L 738 416.074582 L 695.076923 474.42539 L 652.153846 459.912496 L 609.230769 466.645282 L 566.307692 522.00374 L 523.384615 486.993256 L 480.461538 365.6535 L 437.538462 409.641031 L 394.615385 488.190196 L 351.692308 501.655767 L 308.769231 555.966903 L 265.846154 518.861774 L 222.923077 496.868008 L 180 494.922981 z" clip-path="url(#p1aa700c61e)" fill="#ffffff"/></g><g id="PolyCollection_3"><path d="M 180 486.245169 L 180 494.922981 L 222.923077 496.868008 L 265.846154 518.861774 L 308.769231 555.966903 L 351.692308 501.655767 L 394.615385 488.190196 L 437.538462 409.641031 L 480.461538 365.6535 L 523.384615 486.993256 L 566.307692 522.00374 L 609.230769 466.645282 L 652.153846 459.912496 L 695.076923 474.42539 L 738 416.074582 L 780.923077 463.652933 L 823.846154 454.077416 L 866.769231 505.845055 L 909.692308 492.977954 L 952.615385 466.794899 L 995.538462 462.306376 L 1038.461538 383.009124 L 1081.384615 399.16781 L 1124.307692 469.787249 L 1167.230769 555.51805 L 1210.153846 536.666251 L 1253.076923 507.34123 L 1296 457.069765 L 1338.923077 357.42454 L 1381.846154 323.760612 L 1424.769231 395.576991 L 1467.692308 405.302125 L 1510.615385 445.698838 L 1553.538462 444.501899 L 1596.461538 525.893794 L 1596.461538 519.161009 L 1596.461538 519.161009 L 1553.538462 433.430207 L 1510.615385 408.294474 L 1467.692308 392.435024 L 1424.769231 366.850439 L 1381.846154 296.081383 L 1338.923077 322.264438 L 1296 422.358515 L 1253.076923 484.300142 L 1210.153846 522.00374 L 1167.230769 540.705922 L 1124.307692 455.124738 L 1081.384615 351.140606 L 1038.461538 362.66115 L 995.538462 429.091301 L 952.615385 439.863757 L 909.692308 453.030094 L 866.769231 462.755228 L 823.846154 444.651516 L 780.923077 432.68212 L 738 402.459394 L 695.076923 454.526268 L 652.153846 445.698838 L 609.230769 446.596543 L 566.307692 505.246585 L 523.384615 470.684953 L 480.461538 312.539303 L 437.538462 370.740493 L 394.615385 457.817852 L 351.692308 489.835988 L 308.769231 529.484613 L 265.846154 516.318277 L 222.923077 486.544404 L 180 486.245169 z" clip-path="url(#p1aa700c61e)" fill="#ff7373"/></g><g id="PolyCollection_4"><path d="M 180 457.069765 L 180 486.245169 L 222.923077 486.544404 L 265.846154 516.318277 L 308.769231 529.484613 L 351.692308 489.835988 L 394.615385 457.817852 L 437.538462 370.740493 L 480.461538 312.539303 L 523.384615 470.684953 L 566.307692 505.246585 L 609.230769 446.596543 L 652.153846 445.698838 L 695.076923 454.526268 L 738 402.459394 L 780.923077 432.68212 L 823.846154 444.651516 L 866.769231 462.755228 L 909.692308 453.030094 L 952.615385 439.863757 L 995.538462 429.091301 L 1038.461538 362.66115 L 1081.384615 351.140606 L 1124.307692 455.124738 L 1167.230769 540.705922 L 1210.153846 522.00374 L 1253.076923 484.300142 L 1296 422.358515 L 1338.923077 322.264438 L 1381.846154 296.081383 L 1424.769231 366.850439 L 1467.692308 392.435024 L 1510.615385 408.294474 L 1553.538462 433.430207 L 1596.461538 519.161009 L 1596.461538 510.632814 L 1596.461538 510.632814 L 1553.538462 398.270105 L 1510.615385 378.670218 L 1467.692308 373.134372 L 1424.769231 329.894928 L 1381.846154 251.794616 L 1338.923077 292.490564 L 1296 393.482346 L 1253.076923 451.833154 L 1210.153846 507.640465 L 1167.230769 520.507566 L 1124.307692 423.25622 L 1081.384615 295.931765 L 1038.461538 323.012525 L 995.538462 397.821252 L 952.615385 394.380051 L 909.692308 392.883876 L 866.769231 434.477529 L 823.846154 418.767696 L 780.923077 387.048796 L 738 360.566506 L 695.076923 413.082233 L 652.153846 413.082233 L 609.230769 402.609011 L 566.307692 471.582658 L 523.384615 439.863757 L 480.461538 265.559422 L 437.538462 332.588042 L 394.615385 401.112836 L 351.692308 455.872825 L 308.769231 500.907679 L 265.846154 502.254236 L 222.923077 463.503315 L 180 457.069765 z" clip-path="url(#p1aa700c61e)" fill="#4f2d68"/></g><g id="PolyCollection_5"><path d="M 180 442.108019 L 180 457.069765 L 222.923077 463.503315 L 265.846154 502.254236 L 308.769231 500.907679 L 351.692308 455.872825 L 394.615385 401.112836 L 437.538462 332.588042 L 480.461538 265.559422 L 523.384615 439.863757 L 566.307692 471.582658 L 609.230769 402.609011 L 652.153846 413.082233 L 695.076923 413.082233 L 738 360.566506 L 780.923077 387.048796 L 823.846154 418.767696 L 866.769231 434.477529 L 909.692308 392.883876 L 952.615385 394.380051 L 995.538462 397.821252 L 1038.461538 323.012525 L 1081.384615 295.931765 L 1124.307692 423.25622 L 1167.230769 520.507566 L 1210.153846 507.640465 L 1253.076923 451.833154 L 1296 393.482346 L 1338.923077 292.490564 L 1381.846154 251.794616 L 1424.769231 329.894928 L 1467.692308 373.134372 L 1510.615385 378.670218 L 1553.538462 398.270105 L 1596.461538 510.632814 L 1596.461538 506.593143 L 1596.461538 506.593143 L 1553.538462 393.482346 L 1510.615385 376.126721 L 1467.692308 360.865741 L 1424.769231 328.249136 L 1381.846154 244.014508 L 1338.923077 283.064664 L 1296 390.34038 L 1253.076923 451.533919 L 1210.153846 502.403854 L 1167.230769 516.617512 L 1124.307692 421.011958 L 1081.384615 292.191329 L 1038.461538 311.192746 L 995.538462 383.906829 L 952.615385 384.954151 L 909.692308 387.048796 L 866.769231 429.68977 L 823.846154 405.451743 L 780.923077 383.009124 L 738 354.43219 L 695.076923 410.688354 L 652.153846 399.16781 L 609.230769 397.3724 L 566.307692 460.660584 L 523.384615 435.674469 L 480.461538 255.535052 L 437.538462 324.658317 L 394.615385 395.427373 L 351.692308 452.581241 L 308.769231 498.663417 L 265.846154 499.71074 L 222.923077 437.170643 L 180 442.108019 z" clip-path="url(#p1aa700c61e)" fill="#ffff73"/></g><g id="PolyCollection_6"><path d="M 180 417.121904 L 180 442.108019 L 222.923077 437.170643 L 265.846154 499.71074 L 308.769231 498.663417 L 351.692308 452.581241 L 394.615385 395.427373 L 437.538462 324.658317 L 480.461538 255.535052 L 523.384615 435.674469 L 566.307692 460.660584 L 609.230769 397.3724 L 652.153846 399.16781 L 695.076923 410.688354 L 738 354.43219 L 780.923077 383.009124 L 823.846154 405.451743 L 866.769231 429.68977 L 909.692308 387.048796 L 952.615385 384.954151 L 995.538462 383.906829 L 1038.461538 311.192746 L 1081.384615 292.191329 L 1124.307692 421.011958 L 1167.230769 516.617512 L 1210.153846 502.403854 L 1253.076923 451.533919 L 1296 390.34038 L 1338.923077 283.064664 L 1381.846154 244.014508 L 1424.769231 328.249136 L 1467.692308 360.865741 L 1510.615385 376.126721 L 1553.538462 393.482346 L 1596.461538 506.593143 L 1596.461538 492.828337 L 1596.461538 492.828337 L 1553.538462 355.928365 L 1510.615385 331.690337 L 1467.692308 298.62488 L 1424.769231 301.317994 L 1381.846154 189.85299 L 1338.923077 229.351998 L 1296 355.928365 L 1253.076923 414.279173 L 1210.153846 459.463644 L 1167.230769 486.095551 L 1124.307692 387.497648 L 1081.384615 261.370133 L 1038.461538 246.85724 L 995.538462 333.485747 L 952.615385 334.233834 L 909.692308 313.28739 L 866.769231 396.923548 L 823.846154 381.363332 L 780.923077 350.242902 L 738 327.351431 L 695.076923 386.599943 L 652.153846 366.251969 L 609.230769 364.007708 L 566.307692 415.924965 L 523.384615 385.552621 L 480.461538 176.836271 L 437.538462 259.425106 L 394.615385 342.612411 L 351.692308 407.845622 L 308.769231 458.117087 L 265.846154 477.118504 L 222.923077 411.137206 L 180 417.121904 z" clip-path="url(#p1aa700c61e)" fill="#70223b"/></g><g id="PolyCollection_7"><path d="M 180 410.389119 L 180 417.121904 L 222.923077 411.137206 L 265.846154 477.118504 L 308.769231 458.117087 L 351.692308 407.845622 L 394.615385 342.612411 L 437.538462 259.425106 L 480.461538 176.836271 L 523.384615 385.552621 L 566.307692 415.924965 L 609.230769 364.007708 L 652.153846 366.251969 L 695.076923 386.599943 L 738 327.351431 L 780.923077 350.242902 L 823.846154 381.363332 L 866.769231 396.923548 L 909.692308 313.28739 L 952.615385 334.233834 L 995.538462 333.485747 L 1038.461538 246.85724 L 1081.384615 261.370133 L 1124.307692 387.497648 L 1167.230769 486.095551 L 1210.153846 459.463644 L 1253.076923 414.279173 L 1296 355.928365 L 1338.923077 229.351998 L 1381.846154 189.85299 L 1424.769231 301.317994 L 1467.692308 298.62488 L 1510.615385 331.690337 L 1553.538462 355.928365 L 1596.461538 492.828337 L 1596.461538 484.000907 L 1596.461538 484.000907 L 1553.538462 334.981921 L 1510.615385 323.31176 L 1467.692308 283.214282 L 1424.769231 286.954718 L 1381.846154 167.709606 L 1338.923077 212.14599 L 1296 336.178861 L 1253.076923 402.309776 L 1210.153846 430.88671 L 1167.230769 478.614678 L 1124.307692 369.842788 L 1081.384615 226.808501 L 1038.461538 217.681836 L 995.538462 309.696571 L 952.615385 318.524001 L 909.692308 295.482913 L 866.769231 389.442675 L 823.846154 370.590876 L 780.923077 336.178861 L 738 309.546954 L 695.076923 369.543553 L 652.153846 354.282573 L 609.230769 352.487164 L 566.307692 398.419722 L 523.384615 362.212298 L 480.461538 165.166109 L 437.538462 234.738226 L 394.615385 333.336129 L 351.692308 398.270105 L 308.769231 447.195013 L 265.846154 472.330745 L 222.923077 403.805951 L 180 410.389119 z" clip-path="url(#p1aa700c61e)" fill="#91ccf0"/></g><g id="PolyCollection_8"><path d="M 180 409.042562 L 180 410.389119 L 222.923077 403.805951 L 265.846154 472.330745 L 308.769231 447.195013 L 351.692308 398.270105 L 394.615385 333.336129 L 437.538462 234.738226 L 480.461538 165.166109 L 523.384615 362.212298 L 566.307692 398.419722 L 609.230769 352.487164 L 652.153846 354.282573 L 695.076923 369.543553 L 738 309.546954 L 780.923077 336.178861 L 823.846154 370.590876 L 866.769231 389.442675 L 909.692308 295.482913 L 952.615385 318.524001 L 995.538462 309.696571 L 1038.461538 217.681836 L 1081.384615 226.808501 L 1124.307692 369.842788 L 1167.230769 478.614678 L 1210.153846 430.88671 L 1253.076923 402.309776 L 1296 336.178861 L 1338.923077 212.14599 L 1381.846154 167.709606 L 1424.769231 286.954718 L 1467.692308 283.214282 L 1510.615385 323.31176 L 1553.538462 334.981921 L 1596.461538 484.000907 L 1596.461538 480.26047 L 1596.461538 480.26047 L 1553.538462 321.366733 L 1510.615385 314.783565 L 1467.692308 276.032644 L 1424.769231 278.725758 L 1381.846154 148.708189 L 1338.923077 206.011675 L 1296 332.288807 L 1253.076923 394.828903 L 1210.153846 422.05928 L 1167.230769 467.393369 L 1124.307692 357.873392 L 1081.384615 213.791782 L 1038.461538 206.759762 L 995.538462 295.782148 L 952.615385 306.85384 L 909.692308 285.757778 L 866.769231 383.158742 L 823.846154 357.723774 L 780.923077 321.217115 L 738 296.231 L 695.076923 354.132956 L 652.153846 339.470445 L 609.230769 338.123888 L 566.307692 377.174044 L 523.384615 347.250553 L 480.461538 146.613545 L 437.538462 219.477246 L 394.615385 329.894928 L 351.692308 387.9465 L 308.769231 440.611845 L 265.846154 458.565939 L 222.923077 396.923548 L 180 409.042562 z" clip-path="url(#p1aa700c61e)" fill="#aaf155"/></g><g id="PolyCollection_9"><path d="M 180 403.506716 L 180 409.042562 L 222.923077 396.923548 L 265.846154 458.565939 L 308.769231 440.611845 L 351.692308 387.9465 L 394.615385 329.894928 L 437.538462 219.477246 L 480.461538 146.613545 L 523.384615 347.250553 L 566.307692 377.174044 L 609.230769 338.123888 L 652.153846 339.470445 L 695.076923 354.132956 L 738 296.231 L 780.923077 321.217115 L 823.846154 357.723774 L 866.769231 383.158742 L 909.692308 285.757778 L 952.615385 306.85384 L 995.538462 295.782148 L 1038.461538 206.759762 L 1081.384615 213.791782 L 1124.307692 357.873392 L 1167.230769 467.393369 L 1210.153846 422.05928 L 1253.076923 394.828903 L 1296 332.288807 L 1338.923077 206.011675 L 1381.846154 148.708189 L 1424.769231 278.725758 L 1467.692308 276.032644 L 1510.615385 314.783565 L 1553.538462 321.366733 L 1596.461538 480.26047 L 1596.461538 468.590309 L 1596.461538 468.590309 L 1553.538462 308.798867 L 1510.615385 295.034061 L 1467.692308 261.968603 L 1424.769231 263.464778 L 1381.846154 127.163276 L 1338.923077 189.85299 L 1296 316.878209 L 1253.076923 370.441258 L 1210.153846 413.23185 L 1167.230769 460.062114 L 1124.307692 335.430774 L 1081.384615 190.900312 L 1038.461538 183.718674 L 995.538462 275.434174 L 952.615385 291.592859 L 909.692308 267.953301 L 866.769231 365.6535 L 823.846154 347.100935 L 780.923077 303.562256 L 738 272.14259 L 695.076923 341.864324 L 652.153846 325.705639 L 609.230769 320.169793 L 566.307692 338.273505 L 523.384615 312.240068 L 480.461538 120.580108 L 437.538462 207.058997 L 394.615385 322.264438 L 351.692308 382.410655 L 308.769231 431.634797 L 265.846154 439.11567 L 222.923077 385.103769 L 180 403.506716 z" clip-path="url(#p1aa700c61e)" fill="#f0c097"/></g><g id="PolyCollection_10"><path d="M 180 403.506716 L 180 403.506716 L 222.923077 385.103769 L 265.846154 439.11567 L 308.769231 431.634797 L 351.692308 382.410655 L 394.615385 322.264438 L 437.538462 207.058997 L 480.461538 120.580108 L 523.384615 312.240068 L 566.307692 338.273505 L 609.230769 320.169793 L 652.153846 325.705639 L 695.076923 341.864324 L 738 272.14259 L 780.923077 303.562256 L 823.846154 347.100935 L 866.769231 365.6535 L 909.692308 267.953301 L 952.615385 291.592859 L 995.538462 275.434174 L 1038.461538 183.718674 L 1081.384615 190.900312 L 1124.307692 335.430774 L 1167.230769 460.062114 L 1210.153846 413.23185 L 1253.076923 370.441258 L 1296 316.878209 L 1338.923077 189.85299 L 1381.846154 127.163276 L 1424.769231 263.464778 L 1467.692308 261.968603 L 1510.615385 295.034061 L 1553.538462 308.798867 L 1596.461538 468.590309 L 1596.461538 468.141457 L 1596.461538 468.141457 L 1553.538462 308.649249 L 1510.615385 285.608161 L 1467.692308 261.370133 L 1424.769231 255.0862 L 1381.846154 117.138906 L 1338.923077 182.970587 L 1296 305.6569 L 1253.076923 360.267271 L 1210.153846 410.688354 L 1167.230769 459.912496 L 1124.307692 333.784982 L 1081.384615 185.214848 L 1038.461538 180.277472 L 995.538462 267.654066 L 952.615385 289.348597 L 909.692308 267.504449 L 866.769231 361.314593 L 823.846154 334.832304 L 780.923077 275.284557 L 738 248.503032 L 695.076923 340.817002 L 652.153846 313.88586 L 609.230769 305.6569 L 566.307692 338.123888 L 523.384615 311.192746 L 480.461538 112.8 L 437.538462 194.042278 L 394.615385 317.626296 L 351.692308 372.386285 L 308.769231 430.138623 L 265.846154 436.721791 L 222.923077 380.166393 L 180 403.506716 z" clip-path="url(#p1aa700c61e)" fill="#16234f"/></g><g id="matplotlib.axis_1"><g id="xtick_1"><g id="line2d_1"><defs><path id="mcf380a00e3" d="M 0 0 L 0 3.5" stroke="#ffffff" stroke-width="0.8"/></defs><g><use xlink:href="#mcf380a00e3" x="180" y="640.8" fill="#ffffff" stroke="#ffffff" stroke-width="0.8"/></g></g><g id="text_1"><g transform="translate(176.81875 655.398438) scale(0.1 -0.1)" fill="#ffffff"><defs><path id="DejaVuSans-30" d="M 2034 4250 Q 1547 4250 1301 3770 Q 1056 3291 1056 2328 Q 1056 1369 1301 889 Q 1547 409 2034 409 Q 2525 409 2770 889 Q 3016 1369 3016 2328 Q 3016 3291 2770 3770 Q 2525 4250 2034 4250 z M 2034 4750 Q 2819 4750 3233 4129 Q 3647 3509 3647 2328 Q 3647 1150 3233 529 Q 2819 -91 2034 -91 Q 1250 -91 836 529 Q 422 1150 422 2328 Q 422 3509 836 4129 Q 1250 4750 2034 4750 z" transform="scale(0.015625)"/></defs><use xlink:href="#DejaVuSans-30"/></g></g></g><g id="xtick_2"><g id="line2d_2"><g><use xlink:href="#mcf380a00e3" x="394.615" y="640.8" fill="#ffffff" stroke="#ffffff" stroke-width="0.8"/></g></g><g id="text_2"><g transform="translate(391.434135 655.398438) scale(0.1 -0.1)" fill="#ffffff"><defs><path id="DejaVuSans-35" d="M 691 4666 L 3169 4666 L 3169 4134 L 1269 4134 L 1269 2991 Q 1406 3038 1543 3061 Q 1681 3084 1819 3084 Q 2600 3084 3056 2656 Q 3513 2228 3513 1497 Q 3513 744 3044 326 Q 2575 -91 1722 -91 Q 1428 -91 1123 -41 Q 819 9 494 109 L 494 744 Q 775 591 1075 516 Q 1375 441 1709 441 Q 2250 441 2565 725 Q 2881 1009 2881 1497 Q 2881 1984 2565 2268 Q 2250 2553 1709 2553 Q 1456 2553 1204 2497 Q 953 2441 691 2322 L 691 4666 z" transform="scale(0.015625)"/></defs><use xlink:href="#DejaVuSans-35"/></g></g></g><g id="xtick_3"><g id="line2d_3"><g><use xlink:href="#mcf380a00e3" x="609.231" y="640.8" fill="#ffffff" stroke="#ffffff" stroke-width="0.8"/></g></g><g id="text_3"><g transform="translate(602.868269 655.398438) scale(0.1 -0.1)" fill="#ffffff"><defs><path id="DejaVuSans-31" d="M 794 531 L 1825 531 L 1825 4091 L 703 3866 L 703 4441 L 1819 4666 L 2450 4666 L 2450 531 L 3481 531 L 3481 0 L 794 0 L 794 531 z" transform="scale(0.015625)"/></defs><use xlink:href="#DejaVuSans-31"/><use xlink:href="#DejaVuSans-30" x="63.623"/></g></g></g><g id="xtick_4"><g id="line2d_4"><g><use xlink:href="#mcf380a00e3" x="823.846" y="640.8" fill="#ffffff" stroke="#ffffff" stroke-width="0.8"/></g></g><g id="text_4"><g transform="translate(817.483654 655.398438) scale(0.1 -0.1)" fill="#ffffff"><use xlink:href="#DejaVuSans-31"/><use xlink:href="#DejaVuSans-35" x="63.623"/></g></g></g><g id="xtick_5"><g id="line2d_5"><g><use xlink:href="#mcf380a00e3" x="1038.462" y="640.8" fill="#ffffff" stroke="#ffffff" stroke-width="0.8"/></g></g><g id="text_5"><g transform="translate(1032.099038 655.398438) scale(0.1 -0.1)" fill="#ffffff"><defs><path id="DejaVuSans-32" d="M 1228 531 L 3431 531 L 3431 0 L 469 0 L 469 531 Q 828 903 1448 1529 Q 2069 2156 2228 2338 Q 2531 2678 2651 2914 Q 2772 3150 2772 3378 Q 2772 3750 2511 3984 Q 2250 4219 1831 4219 Q 1534 4219 1204 4116 Q 875 4013 500 3803 L 500 4441 Q 881 4594 1212 4672 Q 1544 4750 1819 4750 Q 2544 4750 2975 4387 Q 3406 4025 3406 3419 Q 3406 3131 3298 2873 Q 3191 2616 2906 2266 Q 2828 2175 2409 1742 Q 1991 1309 1228 531 z" transform="scale(0.015625)"/></defs><use xlink:href="#DejaVuSans-32"/><use xlink:href="#DejaVuSans-30" x="63.623"/></g></g></g><g id="xtick_6"><g id="line2d_6"><g><use xlink:href="#mcf380a00e3" x="1253.077" y="640.8" fill="#ffffff" stroke="#ffffff" stroke-width="0.8"/></g></g><g id="text_6"><g transform="translate(1246.714423 655.398438) scale(0.1 -0.1)" fill="#ffffff"><use xlink:href="#DejaVuSans-32"/><use xlink:href="#DejaVuSans-35" x="63.623"/></g></g></g><g id="xtick_7"><g id="line2d_7"><defs><path id="mef67087445" d="M 0 0 L 0 2" stroke="#ffffff" stroke-width="0.6"/></defs><g><use xlink:href="#mef67087445" x="222.923" y="640.8" fill="#ffffff" stroke="#ffffff" stroke-width="0.6"/></g></g></g><g id="xtick_8"><g id="line2d_8"><g><use xlink:href="#mef67087445" x="265.846" y="640.8" fill="#ffffff" stroke="#ffffff" stroke-width="0.6"/></g></g></g><g id="xtick_9"><g id="line2d_9"><g><use xlink:href="#mef67087445" x="308.769" y="640.8" fill="#ffffff" stroke="#ffffff" stroke-width="0.6"/></g></g></g><g id="xtick_10"><g id="line2d_10"><g><use xlink:href="#mef67087445" x="351.692" y="640.8" fill="#ffffff" stroke="#ffffff" stroke-width="0.6"/></g></g></g><g id="xtick_11"><g id="line2d_11"><g><use xlink:href="#mef67087445" x="437.538" y="640.8" fill="#ffffff" stroke="#ffffff" stroke-width="0.6"/></g></g></g><g id="xtick_12"><g id="line2d_12"><g><use xlink:href="#mef67087445" x="480.462" y="640.8" fill="#ffffff" stroke="#ffffff" stroke-width="0.6"/></g></g></g><g id="xtick_13"><g id="line2d_13"><g><use xlink:href="#mef67087445" x="523.385" y="640.8" fill="#ffffff" stroke="#ffffff" stroke-width="0.6"/></g></g></g><g id="xtick_14"><g id="line2d_14"><g><use xlink:href="#mef67087445" x="566.308" y="640.8" fill="#ffffff" stroke="#ffffff" stroke-width="0.6"/></g></g></g><g id="xtick_15"><g id="line2d_15"><g><use xlink:href="#mef67087445" x="652.154" y="640.8" fill="#ffffff" stroke="#ffffff" stroke-width="0.6"/></g></g></g><g id="xtick_16"><g id="line2d_16"><g><use xlink:href="#mef67087445" x="695.077" y="640.8" fill="#ffffff" stroke="#ffffff" stroke-width="0.6"/></g></g></g><g id="xtick_17"><g id="line2d_17"><g><use xlink:href="#mef67087445" x="738" y="640.8" fill="#ffffff" stroke="#ffffff" stroke-width="0.6"/></g></g></g><g id="xtick_18"><g id="line2d_18"><g><use xlink:href="#mef67087445" x="780.923" y="640.8" fill="#ffffff" stroke="#ffffff" stroke-width="0.6"/></g></g></g><g id="xtick_19"><g id="line2d_19"><g><use xlink:href="#mef67087445" x="866.769" y="640.8" fill="#ffffff" stroke="#ffffff" stroke-width="0.6"/></g></g></g><g id="xtick_20"><g id="line2d_20"><g><use xlink:href="#mef67087445" x="909.692" y="640.8" fill="#ffffff" stroke="#ffffff" stroke-width="0.6"/></g></g></g><g id="xtick_21"><g id="line2d_21"><g><use xlink:href="#mef67087445" x="952.615" y="640.8" fill="#ffffff" stroke="#ffffff" stroke-width="0.6"/></g></g></g><g id="xtick_22"><g id="line2d_22"><g><use xlink:href="#mef67087445" x="995.538" y="640.8" fill="#ffffff" stroke="#ffffff" stroke-width="0.6"/></g></g></g><g id="xtick_23"><g id="line2d_23"><g><use xlink:href="#mef67087445" x="1081.385" y="640.8" fill="#ffffff" stroke="#ffffff" stroke-width="0.6"/></g></g></g><g id="xtick_24"><g id="line2d_24"><g><use xlink:href="#mef67087445" x="1124.308" y="640.8" fill="#ffffff" stroke="#ffffff" stroke-width="0.6"/></g></g></g><g id="xtick_25"><g id="line2d_25"><g><use xlink:href="#mef67087445" x="1167.231" y="640.8" fill="#ffffff" stroke="#ffffff" stroke-width="0.6"/></g></g></g><g id="xtick_26"><g id="line2d_26"><g><use xlink:href="#mef67087445" x="1210.154" y="640.8" fill="#ffffff" stroke="#ffffff" stroke-width="0.6"/></g></g></g><g id="xtick_27"><g id="line2d_27"><g><use xlink:href="#mef67087445" x="1296" y="640.8" fill="#ffffff" stroke="#ffffff" stroke-width="0.6"/></g></g></g><g id="text_7"><g transform="translate(664.841406 669.076563) scale(0.1 -0.1)" fill="#ffffff"><defs><path id="DejaVuSans-44" d="M 1259 4147 L 1259 519 L 2022 519 Q 2988 519 3436 956 Q 3884 1394 3884 2338 Q 3884 3275 3436 3711 Q 2988 4147 2022 4147 L 1259 4147 z M 628 4666 L 1925 4666 Q 3281 4666 3915 4102 Q 4550 3538 4550 2338 Q 4550 1131 3912 565 Q 3275 0 1925 0 L 628 0 L 628 4666 z" transform="scale(0.015625)"/><path id="DejaVuSans-61" d="M 2194 1759 Q 1497 1759 1228 1600 Q 959 1441 959 1056 Q 959 750 1161 570 Q 1363 391 1709 391 Q 2188 391 2477 730 Q 2766 1069 2766 1631 L 2766 1759 L 2194 1759 z M 3341 1997 L 3341 0 L 2766 0 L 2766 531 Q 2569 213 2275 61 Q 1981 -91 1556 -91 Q 1019 -91 701 211 Q 384 513 384 1019 Q 384 1609 779 1909 Q 1175 2209 1959 2209 L 2766 2209 L 2766 2266 Q 2766 2663 2505 2880 Q 2244 3097 1772 3097 Q 1472 3097 1187 3025 Q 903 2953 641 2809 L 641 3341 Q 956 3463 1253 3523 Q 1550 3584 1831 3584 Q 2591 3584 2966 3190 Q 3341 2797 3341 1997 z" transform="scale(0.015625)"/><path id="DejaVuSans-79" d="M 2059 -325 Q 1816 -950 1584 -1140 Q 1353 -1331 966 -1331 L 506 -1331 L 506 -850 L 844 -850 Q 1081 -850 1212 -737 Q 1344 -625 1503 -206 L 1606 56 L 191 3500 L 800 3500 L 1894 763 L 2988 3500 L 3597 3500 L 2059 -325 z" transform="scale(0.015625)"/><path id="DejaVuSans-73" d="M 2834 3397 L 2834 2853 Q 2591 2978 2328 3040 Q 2066 3103 1784 3103 Q 1356 3103 1142 2972 Q 928 2841 928 2578 Q 928 2378 1081 2264 Q 1234 2150 1697 2047 L 1894 2003 Q 2506 1872 2764 1633 Q 3022 1394 3022 966 Q 3022 478 2636 193 Q 2250 -91 1575 -91 Q 1294 -91 989 -36 Q 684 19 347 128 L 347 722 Q 666 556 975 473 Q 1284 391 1588 391 Q 1994 391 2212 530 Q 2431 669 2431 922 Q 2431 1156 2273 1281 Q 2116 1406 1581 1522 L 1381 1569 Q 847 1681 609 1914 Q 372 2147 372 2553 Q 372 3047 722 3315 Q 1072 3584 1716 3584 Q 2034 3584 2315 3537 Q 2597 3491 2834 3397 z" transform="scale(0.015625)"/><path id="DejaVuSans-20" transform="scale(0.015625)"/><path id="DejaVuSans-69" d="M 603 3500 L 1178 3500 L 1178 0 L 603 0 L 603 3500 z M 603 4863 L 1178 4863 L 1178 4134 L 603 4134 L 603 4863 z" transform="scale(0.015625)"/><path id="DejaVuSans-6e" d="M 3513 2113 L 3513 0 L 2938 0 L 2938 2094 Q 2938 2591 2744 2837 Q 2550 3084 2163 3084 Q 1697 3084 1428 2787 Q 1159 2491 1159 1978 L 1159 0 L 581 0 L 581 3500 L 1159 3500 L 1159 2956 Q 1366 3272 1645 3428 Q 1925 3584 2291 3584 Q 2894 3584 3203 3211 Q 3513 2838 3513 2113 z" transform="scale(0.015625)"/><path id="DejaVuSans-63" d="M 3122 3366 L 3122 2828 Q 2878 2963 2633 3030 Q 2388 3097 2138 3097 Q 1578 3097 1268 2742 Q 959 2388 959 1747 Q 959 1106 1268 751 Q 1578 397 2138 397 Q 2388 397 2633 464 Q 2878 531 3122 666 L 3122 134 Q 2881 22 2623 -34 Q 2366 -91 2075 -91 Q 1284 -91 818 406 Q 353 903 353 1747 Q 353 2603 823 3093 Q 1294 3584 2113 3584 Q 2378 3584 2631 3529 Q 2884 3475 3122 3366 z" transform="scale(0.015625)"/><path id="DejaVuSans-65" d="M 3597 1894 L 3597 1613 L 953 1613 Q 991 1019 1311 708 Q 1631 397 2203 397 Q 2534 397 2845 478 Q 3156 559 3463 722 L 3463 178 Q 3153 47 2828 -22 Q 2503 -91 2169 -91 Q 1331 -91 842 396 Q 353 884 353 1716 Q 353 2575 817 3079 Q 1281 3584 2069 3584 Q 2775 3584 3186 3129 Q 3597 2675 3597 1894 z M 3022 2063 Q 3016 2534 2758 2815 Q 2500 3097 2075 3097 Q 1594 3097 1305 2825 Q 1016 2553 972 2059 L 3022 2063 z" transform="scale(0.015625)"/><path id="DejaVuSans-36" d="M 2113 2584 Q 1688 2584 1439 2293 Q 1191 2003 1191 1497 Q 1191 994 1439 701 Q 1688 409 2113 409 Q 2538 409 2786 701 Q 3034 994 3034 1497 Q 3034 2003 2786 2293 Q 2538 2584 2113 2584 z M 3366 4563 L 3366 3988 Q 3128 4100 2886 4159 Q 2644 4219 2406 4219 Q 1781 4219 1451 3797 Q 1122 3375 1075 2522 Q 1259 2794 1537 2939 Q 1816 3084 2150 3084 Q 2853 3084 3261 2657 Q 3669 2231 3669 1497 Q 3669 778 3244 343 Q 2819 -91 2113 -91 Q 1303 -91 875 529 Q 447 1150 447 2328 Q 447 3434 972 4092 Q 1497 4750 2381 4750 Q 2619 4750 2861 4703 Q 3103 4656 3366 4563 z" transform="scale(0.015625)"/><path id="DejaVuSans-2f" d="M 1625 4666 L 2156 4666 L 531 -594 L 0 -594 L 1625 4666 z" transform="scale(0.015625)"/><path id="DejaVuSans-33" d="M 2597 2516 Q 3050 2419 3304 2112 Q 3559 1806 3559 1356 Q 3559 666 3084 287 Q 2609 -91 1734 -91 Q 1441 -91 1130 -33 Q 819 25 488 141 L 488 750 Q 750 597 1062 519 Q 1375 441 1716 441 Q 2309 441 2620 675 Q 2931 909 2931 1356 Q 2931 1769 2642 2001 Q 2353 2234 1838 2234 L 1294 2234 L 1294 2753 L 1863 2753 Q 2328 2753 2575 2939 Q 2822 3125 2822 3475 Q 2822 3834 2567 4026 Q 2313 4219 1838 4219 Q 1578 4219 1281 4162 Q 984 4106 628 3988 L 628 4550 Q 988 4650 1302 4700 Q 1616 4750 1894 4750 Q 2613 4750 3031 4423 Q 3450 4097 3450 3541 Q 3450 3153 3228 2886 Q 3006 2619 2597 2516 z" transform="scale(0.015625)"/><path id="DejaVuSans-28" d="M 1984 4856 Q 1566 4138 1362 3434 Q 1159 2731 1159 2009 Q 1159 1288 1364 580 Q 1569 -128 1984 -844 L 1484 -844 Q 1016 -109 783 600 Q 550 1309 550 2009 Q 550 2706 781 3412 Q 1013 4119 1484 4856 L 1984 4856 z" transform="scale(0.015625)"/><path id="DejaVuSans-55" d="M 556 4666 L 1191 4666 L 1191 1831 Q 1191 1081 1462 751 Q 1734 422 2344 422 Q 2950 422 3222 751 Q 3494 1081 3494 1831 L 3494 4666 L 4128 4666 L 4128 1753 Q 4128 841 3676 375 Q 3225 -91 2344 -91 Q 1459 -91 1007 375 Q 556 841 556 1753 L 556 4666 z" transform="scale(0.015625)"/><path id="DejaVuSans-43" d="M 4122 4306 L 4122 3641 Q 3803 3938 3442 4084 Q 3081 4231 2675 4231 Q 1875 4231 1450 3742 Q 1025 3253 1025 2328 Q 1025 1406 1450 917 Q 1875 428 2675 428 Q 3081 428 3442 575 Q 3803 722 4122 1019 L 4122 359 Q 3791 134 3420 21 Q 3050 -91 2638 -91 Q 1578 -91 968 557 Q 359 1206 359 2328 Q 359 3453 968 4101 Q 1578 4750 2638 4750 Q 3056 4750 3426 4639 Q 3797 4528 4122 4306 z" transform="scale(0.015625)"/><path id="DejaVuSans-54" d="M -19 4666 L 3928 4666 L 3928 4134 L 2272 4134 L 2272 0 L 1638 0 L 1638 4134 L -19 4134 L -19 4666 z" transform="scale(0.015625)"/><path id="DejaVuSans-29" d="M 513 4856 L 1013 4856 Q 1481 4119 1714 3412 Q 1947 2706 1947 2009 Q 1947 1309 1714 600 Q 1481 -109 1013 -844 L 513 -844 Q 928 -128 1133 580 Q 1338 1288 1338 2009 Q 1338 2731 1133 3434 Q 928 4138 513 4856 z" transform="scale(0.015625)"/></defs><use xlink:href="#DejaVuSans-44"/><use xlink:href="#DejaVuSans-61" x="77.002"/><use xlink:href="#DejaVuSans-79" x="138.281"/><use xlink:href="#DejaVuSans-73" x="197.461"/><use xlink:href="#DejaVuSans-20" x="249.561"/><use xlink:href="#DejaVuSans-73" x="281.348"/><use xlink:href="#DejaVuSans-69" x="333.447"/><use xlink:href="#DejaVuSans-6e" x="361.23"/><use xlink:href="#DejaVuSans-63" x="424.609"/><use xlink:href="#DejaVuSans-65" x="479.59"/><use xlink:href="#DejaVuSans-20" x="541.113"/><use xlink:href="#DejaVuSans-32" x="572.9"/><use xlink:href="#DejaVuSans-36" x="636.523"/><use xlink:href="#DejaVuSans-2f" x="700.146"/><use xlink:href="#DejaVuSans-30" x="733.838"/><use xlink:href="#DejaVuSans-32" x="797.461"/><use xlink:href="#DejaVuSans-2f" x="861.084"/><use xlink:href="#DejaVuSans-32" x="894.775"/><use xlink:href="#DejaVuSans-30" x="958.398"/><use xlink:href="#DejaVuSans-32" x="1022.021"/><use xlink:href="#DejaVuSans-33" x="1085.645"/><use xlink:href="#DejaVuSans-20" x="1149.268"/><use xlink:href="#DejaVuSans-28" x="1181.055"/><use xlink:href="#DejaVuSans-55" x="1220.068"/><use xlink:href="#DejaVuSans-43" x="1293.262"/><use xlink:href="#DejaVuSans-54" x="1363.086"/><use xlink:href="#DejaVuSans-29" x="1424.17"/></g></g></g><g id="matplotlib.axis_2"><g id="ytick_1"><g id="line2d_28"><defs><path id="m6c8d49026a" d="M 0 0 L -3.5 0" stroke="#ffffff" stroke-width="0.8"/></defs><g><use xlink:href="#m6c8d49026a" x="180" y="640.8" fill="#ffffff" stroke="#ffffff" stroke-width="0.8"/></g></g><g id="text_8"><g transform="translate(166.6375 644.599219) scale(0.1 -0.1)" fill="#ffffff"><use xlink:href="#DejaVuSans-30"/></g></g></g><g id="ytick_2"><g id="line2d_29"><g><use xlink:href="#m6c8d49026a" x="180" y="565.991" fill="#ffffff" stroke="#ffffff" stroke-width="0.8"/></g></g><g id="text_9"><g transform="translate(153.9125 569.790491) scale(0.1 -0.1)" fill="#ffffff"><use xlink:href="#DejaVuSans-35"/><use xlink:href="#DejaVuSans-30" x="63.623"/><use xlink:href="#DejaVuSans-30" x="127.246"/></g></g></g><g id="ytick_3"><g id="line2d_30"><g><use xlink:href="#m6c8d49026a" x="180" y="491.183" fill="#ffffff" stroke="#ffffff" stroke-width="0.8"/></g></g><g id="text_10"><g transform="translate(147.55 494.981763) scale(0.1 -0.1)" fill="#ffffff"><use xlink:href="#DejaVuSans-31"/><use xlink:href="#DejaVuSans-30" x="63.623"/><use xlink:href="#DejaVuSans-30" x="127.246"/><use xlink:href="#DejaVuSans-30" x="190.869"/></g></g></g><g id="ytick_4"><g id="line2d_31"><g><use xlink:href="#m6c8d49026a" x="180" y="416.374" fill="#ffffff" stroke="#ffffff" stroke-width="0.8"/></g></g><g id="text_11"><g transform="translate(147.55 420.173036) scale(0.1 -0.1)" fill="#ffffff"><use xlink:href="#DejaVuSans-31"/><use xlink:href="#DejaVuSans-35" x="63.623"/><use xlink:href="#DejaVuSans-30" x="127.246"/><use xlink:href="#DejaVuSans-30" x="190.869"/></g></g></g><g id="ytick_5"><g id="line2d_32"><g><use xlink:href="#m6c8d49026a" x="180" y="341.565" fill="#ffffff" stroke="#ffffff" stroke-width="0.8"/></g></g><g id="text_12"><g transform="translate(147.55 345.364308) scale(0.1 -0.1)" fill="#ffffff"><use xlink:href="#DejaVuSans-32"/><use xlink:href="#DejaVuSans-30" x="63.623"/><use xlink:href="#DejaVuSans-30" x="127.246"/><use xlink:href="#DejaVuSans-30" x="190.869"/></g></g></g><g id="ytick_6"><g id="line2d_33"><g><use xlink:href="#m6c8d49026a" x="180" y="266.756" fill="#ffffff" stroke="#ffffff" stroke-width="0.8"/></g></g><g id="text_13"><g transform="translate(147.55 270.55558) scale(0.1 -0.1)" fill="#ffffff"><use xlink:href="#DejaVuSans-32"/><use xlink:href="#DejaVuSans-35" x="63.623"/><use xlink:href="#DejaVuSans-30" x="127.246"/><use xlink:href="#DejaVuSans-30" x="190.869"/></g></g></g><g id="ytick_7"><g id="line2d_34"><g><use xlink:href="#m6c8d49026a" x="180" y="191.948" fill="#ffffff" stroke="#ffffff" stroke-width="0.8"/></g></g><g id="text_14"><g transform="translate(147.55 195.746853) scale(0.1 -0.1)" fill="#ffffff"><use xlink:href="#DejaVuSans-33"/><use xlink:href="#DejaVuSans-30" x="63.623"/><use xlink:href="#DejaVuSans-30" x="127.246"/><use xlink:href="#DejaVuSans-30" x="190.869"/></g></g></g><g id="ytick_8"><g id="line2d_35"><g><use xlink:href="#m6c8d49026a" x="180" y="117.139" fill="#ffffff" stroke="#ffffff" stroke-width="0.8"/></g></g><g id="text_15"><g transform="translate(147.55 120.938125) scale(0.1 -0.1)" fill="#ffffff"><use xlink:href="#DejaVuSans-33"/><use xlink:href="#DejaVuSans-35" x="63.623"/><use xlink:href="#DejaVuSans-30" x="127.246"/><use xlink:href="#DejaVuSans-30" x="190.869"/></g></g></g><g id="ytick_9"><g id="line2d_36"><defs><path id="m0f713c266d" d="M 0 0 L -2 0" stroke="#ffffff" stroke-width="0.6"/></defs><g><use xlink:href="#m0f713c266d" x="180" y="625.838" fill="#ffffff" stroke="#ffffff" stroke-width="0.6"/></g></g></g><g id="ytick_10"><g id="line2d_37"><g><use xlink:href="#m0f713c266d" x="180" y="610.877" fill="#ffffff" stroke="#ffffff" stroke-width="0.6"/></g></g></g><g id="ytick_11"><g id="line2d_38"><g><use xlink:href="#m0f713c266d" x="180" y="595.915" fill="#ffffff" stroke="#ffffff" stroke-width="0.6"/></g></g></g><g id="ytick_12"><g id="line2d_39"><g><use xlink:href="#m0f713c266d" x="180" y="580.953" fill="#ffffff" stroke="#ffffff" stroke-width="0.6"/></g></g></g><g id="ytick_13"><g id="line2d_40"><g><use xlink:href="#m0f713c266d" x="180" y="551.03" fill="#ffffff" stroke="#ffffff" stroke-width="0.6"/></g></g></g><g id="ytick_14"><g id="line2d_41"><g><use xlink:href="#m0f713c266d" x="180" y="536.068" fill="#ffffff" stroke="#ffffff" stroke-width="0.6"/></g></g></g><g id="ytick_15"><g id="line2d_42"><g><use xlink:href="#m0f713c266d" x="180" y="521.106" fill="#ffffff" stroke="#ffffff" stroke-width="0.6"/></g></g></g><g id="ytick_16"><g id="line2d_43"><g><use xlink:href="#m0f713c266d" x="180" y="506.144" fill="#ffffff" stroke="#ffffff" stroke-width="0.6"/></g></g></g><g id="ytick_17"><g id="line2d_44"><g><use xlink:href="#m0f713c266d" x="180" y="476.221" fill="#ffffff" stroke="#ffffff" stroke-width="0.6"/></g></g></g><g id="ytick_18"><g id="line2d_45"><g><use xlink:href="#m0f713c266d" x="180" y="461.259" fill="#ffffff" stroke="#ffffff" stroke-width="0.6"/></g></g></g><g id="ytick_19"><g id="line2d_46"><g><use xlink:href="#m0f713c266d" x="180" y="446.297" fill="#ffffff" stroke="#ffffff" stroke-width="0.6"/></g></g></g><g id="ytick_20"><g id="line2d_47"><g><use xlink:href="#m0f713c266d" x="180" y="431.336" fill="#ffffff" stroke="#ffffff" stroke-width="0.6"/></g></g></g><g id="ytick_21"><g id="line2d_48"><g><use xlink:href="#m0f713c266d" x="180" y="401.412" fill="#ffffff" stroke="#ffffff" stroke-width="0.6"/></g></g></g><g id="ytick_22"><g id="line2d_49"><g><use xlink:href="#m0f713c266d" x="180" y="386.45" fill="#ffffff" stroke="#ffffff" stroke-width="0.6"/></g></g></g><g id="ytick_23"><g id="line2d_50"><g><use xlink:href="#m0f713c266d" x="180" y="371.489" fill="#ffffff" stroke="#ffffff" stroke-width="0.6"/></g></g></g><g id="ytick_24"><g id="line2d_51"><g><use xlink:href="#m0f713c266d" x="180" y="356.527" fill="#ffffff" stroke="#ffffff" stroke-width="0.6"/></g></g></g><g id="ytick_25"><g id="line2d_52"><g><use xlink:href="#m0f713c266d" x="180" y="326.603" fill="#ffffff" stroke="#ffffff" stroke-width="0.6"/></g></g></g><g id="ytick_26"><g id="line2d_53"><g><use xlink:href="#m0f713c266d" x="180" y="311.642" fill="#ffffff" stroke="#ffffff" stroke-width="0.6"/></g></g></g><g id="ytick_27"><g id="line2d_54"><g><use xlink:href="#m0f713c266d" x="180" y="296.68" fill="#ffffff" stroke="#ffffff" stroke-width="0.6"/></g></g></g><g id="ytick_28"><g id="line2d_55"><g><use xlink:href="#m0f713c266d" x="180" y="281.718" fill="#ffffff" stroke="#ffffff" stroke-width="0.6"/></g></g></g><g id="ytick_29"><g id="line2d_56"><g><use xlink:href="#m0f713c266d" x="180" y="251.795" fill="#ffffff" stroke="#ffffff" stroke-width="0.6"/></g></g></g><g id="ytick_30"><g id="line2d_57"><g><use xlink:href="#m0f713c266d" x="180" y="236.833" fill="#ffffff" stroke="#ffffff" stroke-width="0.6"/></g></g></g><g id="ytick_31"><g id="line2d_58"><g><use xlink:href="#m0f713c266d" x="180" y="221.871" fill="#ffffff" stroke="#ffffff" stroke-width="0.6"/></g></g></g><g id="ytick_32"><g id="line2d_59"><g><use xlink:href="#m0f713c266d" x="180" y="206.909" fill="#ffffff" stroke="#ffffff" stroke-width="0.6"/></g></g></g><g id="ytick_33"><g id="line2d_60"><g><use xlink:href="#m0f713c266d" x="180" y="176.986" fill="#ffffff" stroke="#ffffff" stroke-width="0.6"/></g></g></g><g id="ytick_34"><g id="line2d_61"><g><use xlink:href="#m0f713c266d" x="180" y="162.024" fill="#ffffff" stroke="#ffffff" stroke-width="0.6"/></g></g></g><g id="ytick_35"><g id="line2d_62"><g><use xlink:href="#m0f713c266d" x="180" y="147.062" fill="#ffffff" stroke="#ffffff" stroke-width="0.6"/></g></g></g><g id="ytick_36"><g id="line2d_63"><g><use xlink:href="#m0f713c266d" x="180" y="132.101" fill="#ffffff" stroke="#ffffff" stroke-width="0.6"/></g></g></g><g id="ytick_37"><g id="line2d_64"><g><use xlink:href="#m0f713c266d" x="180" y="102.177" fill="#ffffff" stroke="#ffffff" stroke-width="0.6"/></g></g></g><g id="ytick_38"><g id="line2d_65"><g><use xlink:href="#m0f713c266d" x="180" y="87.215" fill="#ffffff" stroke="#ffffff" stroke-width="0.6"/></g></g></g><g id="text_16"><g transform="translate(141.470313 384.51875) rotate(-90) scale(0.1 -0.1)" fill="#ffffff"><defs><path id="DejaVuSans-56" d="M 1831 0 L 50 4666 L 709 4666 L 2188 738 L 3669 4666 L 4325 4666 L 2547 0 L 1831 0 z" transform="scale(0.015625)"/><path id="DejaVuSans-74" d="M 1172 4494 L 1172 3500 L 2356 3500 L 2356 3053 L 1172 3053 L 1172 1153 Q 1172 725 1289 603 Q 1406 481 1766 481 L 2356 481 L 2356 0 L 1766 0 Q 1100 0 847 248 Q 594 497 594 1153 L 594 3053 L 172 3053 L 172 3500 L 594 3500 L 594 4494 L 1172 4494 z" transform="scale(0.015625)"/><path id="DejaVuSans-67" d="M 2906 1791 Q 2906 2416 2648 2759 Q 2391 3103 1925 3103 Q 1463 3103 1205 2759 Q 947 2416 947 1791 Q 947 1169 1205 825 Q 1463 481 1925 481 Q 2391 481 2648 825 Q 2906 1169 2906 1791 z M 3481 434 Q 3481 -459 3084 -895 Q 2688 -1331 1869 -1331 Q 1566 -1331 1297 -1286 Q 1028 -1241 775 -1147 L 775 -588 Q 1028 -725 1275 -790 Q 1522 -856 1778 -856 Q 2344 -856 2625 -561 Q 2906 -266 2906 331 L 2906 616 Q 2728 306 2450 153 Q 2172 0 1784 0 Q 1141 0 747 490 Q 353 981 353 1791 Q 353 2603 747 3093 Q 1141 3584 1784 3584 Q 2172 3584 2450 3431 Q 2728 3278 2906 2969 L 2906 3500 L 3481 3500 L 3481 434 z" transform="scale(0.015625)"/></defs><use xlink:href="#DejaVuSans-56"/><use xlink:href="#DejaVuSans-65" x="60.658"/><use xlink:href="#DejaVuSans-73" x="122.182"/><use xlink:href="#DejaVuSans-74" x="174.281"/><use xlink:href="#DejaVuSans-69" x="213.49"/><use xlink:href="#DejaVuSans-67" x="241.273"/><use xlink:href="#DejaVuSans-65" x="304.75"/><use xlink:href="#DejaVuSans-73" x="366.273"/></g></g></g><g id="patch_3"><path d="M 180 640.8 L 180 86.4" fill="none" stroke="#ffffff" stroke-width="0.8" stroke-linejoin="miter" stroke-linecap="square"/></g><g id="patch_4"><path d="M 1296 640.8 L 1296 86.4" fill="none" stroke="#ffffff" stroke-width="0.8" stroke-linejoin="miter" stroke-linecap="square"/></g><g id="patch_5"><path d="M 180 640.8 L 1296 640.8" fill="none" stroke="#ffffff" stroke-width="0.8" stroke-linejoin="miter" stroke-linecap="square"/></g><g id="patch_6"><path d="M 180 86.4 L 1296 86.4" fill="none" stroke="#ffffff" stroke-width="0.8" stroke-linejoin="miter" stroke-linecap="square"/></g><g id="text_17"><g transform="translate(682.681875 80.4) scale(0.12 -0.12)" fill="#ffffff"><defs><path id="DejaVuSans-53" d="M 3425 4513 L 3425 3897 Q 3066 4069 2747 4153 Q 2428 4238 2131 4238 Q 1616 4238 1336 4038 Q 1056 3838 1056 3469 Q 1056 3159 1242 3001 Q 1428 2844 1947 2747 L 2328 2669 Q 3034 2534 3370 2195 Q 3706 1856 3706 1288 Q 3706 609 3251 259 Q 2797 -91 1919 -91 Q 1588 -91 1214 -16 Q 841 59 441 206 L 441 856 Q 825 641 1194 531 Q 1563 422 1919 422 Q 2459 422 2753 634 Q 3047 847 3047 1241 Q 3047 1584 2836 1778 Q 2625 1972 2144 2069 L 1759 2144 Q 1053 2284 737 2584 Q 422 2884 422 3419 Q 422 4038 858 4394 Q 1294 4750 2059 4750 Q 2388 4750 2728 4690 Q 3069 4631 3425 4513 z" transform="scale(0.015625)"/><path id="DejaVuSans-6c" d="M 603 4863 L 1178 4863 L 1178 0 L 603 0 L 603 4863 z" transform="scale(0.015625)"/><path id="DejaVuSans-75" d="M 544 1381 L 544 3500 L 1119 3500 L 1119 1403 Q 1119 906 1312 657 Q 1506 409 1894 409 Q 2359 409 2629 706 Q 2900 1003 2900 1516 L 2900 3500 L 3475 3500 L 3475 0 L 2900 0 L 2900 538 Q 2691 219 2414 64 Q 2138 -91 1772 -91 Q 1169 -91 856 284 Q 544 659 544 1381 z M 1991 3584 L 1991 3584 z" transform="scale(0.015625)"/><path id="DejaVuSans-46" d="M 628 4666 L 3309 4666 L 3309 4134 L 1259 4134 L 1259 2759 L 3109 2759 L 3109 2228 L 1259 2228 L 1259 0 L 628 0 L 628 4666 z" transform="scale(0.015625)"/><path id="DejaVuSans-72" d="M 2631 2963 Q 2534 3019 2420 3045 Q 2306 3072 2169 3072 Q 1681 3072 1420 2755 Q 1159 2438 1159 1844 L 1159 0 L 581 0 L 581 3500 L 1159 3500 L 1159 2956 Q 1341 3275 1631 3429 Q 1922 3584 2338 3584 Q 2397 3584 2469 3576 Q 2541 3569 2628 3553 L 2631 2963 z" transform="scale(0.015625)"/><path id="DejaVuSans-71" d="M 947 1747 Q 947 1113 1208 752 Q 1469 391 1925 391 Q 2381 391 2643 752 Q 2906 1113 2906 1747 Q 2906 2381 2643 2742 Q 2381 3103 1925 3103 Q 1469 3103 1208 2742 Q 947 2381 947 1747 z M 2906 525 Q 2725 213 2448 61 Q 2172 -91 1784 -91 Q 1150 -91 751 415 Q 353 922 353 1747 Q 353 2572 751 3078 Q 1150 3584 1784 3584 Q 2172 3584 2448 3432 Q 2725 3281 2906 2969 L 2906 3500 L 3481 3500 L 3481 -1331 L 2906 -1331 L 2906 525 z" transform="scale(0.015625)"/></defs><use xlink:href="#DejaVuSans-53"/><use xlink:href="#DejaVuSans-6c" x="63.477"/><use xlink:href="#DejaVuSans-75" x="91.26"/><use xlink:href="#DejaVuSans-67" x="154.639"/><use xlink:href="#DejaVuSans-63" x="218.115"/><use xlink:href="#DejaVuSans-61" x="273.096"/><use xlink:href="#DejaVuSans-74" x="334.375"/><use xlink:href="#DejaVuSans-20" x="373.584"/><use xlink:href="#DejaVuSans-46" x="405.371"/><use xlink:href="#DejaVuSans-72" x="455.641"/><use xlink:href="#DejaVuSans-65" x="494.504"/><use xlink:href="#DejaVuSans-71" x="556.027"/><use xlink:href="#DejaVuSans-75" x="619.504"/><use xlink:href="#DejaVuSans-65" x="682.883"/><use xlink:href="#DejaVuSans-6e" x="744.406"/><use xlink:href="#DejaVuSans-63" x="807.785"/><use xlink:href="#DejaVuSans-79" x="862.766"/></g></g></g><g id="legend_1"><g id="patch_7"><path d="M 283.516406 715 L 1156.483594 715 Q 1158.483594 715 1158.483594 713 L 1158.483594 699.321875 Q 1158.483594 697.321875 1156.483594 697.321875 L 283.516406 697.321875 Q 281.516406 697.321875 281.516406 699.321875 L 281.516406 713 Q 281.516406 715 283.516406 715 z" opacity="0.8" stroke="#cccccc" stroke-linejoin="miter"/></g><g id="patch_8"><path d="M 285.516406 708.920313 L 305.516406 708.920313 L 305.516406 701.920313 L 285.516406 701.920313 z" fill="#0f0f0f"/></g><g id="text_18"><g transform="translate(313.516406 708.920313) scale(0.1 -0.1)" fill="#ffffff"><defs><path id="DejaVuSans-6f" d="M 1959 3097 Q 1497 3097 1228 2736 Q 959 2375 959 1747 Q 959 1119 1226 758 Q 1494 397 1959 397 Q 2419 397 2687 759 Q 2956 1122 2956 1747 Q 2956 2369 2687 2733 Q 2419 3097 1959 3097 z M 1959 3584 Q 2709 3584 3137 3096 Q 3566 2609 3566 1747 Q 3566 888 3137 398 Q 2709 -91 1959 -91 Q 1206 -91 779 398 Q 353 888 353 1747 Q 353 2609 779 3096 Q 1206 3584 1959 3584 z" transform="scale(0.015625)"/><path id="DejaVuSans-6d" d="M 3328 2828 Q 3544 3216 3844 3400 Q 4144 3584 4550 3584 Q 5097 3584 5394 3201 Q 5691 2819 5691 2113 L 5691 0 L 5113 0 L 5113 2094 Q 5113 2597 4934 2840 Q 4756 3084 4391 3084 Q 3944 3084 3684 2787 Q 3425 2491 3425 1978 L 3425 0 L 2847 0 L 2847 2094 Q 2847 2600 2669 2842 Q 2491 3084 2119 3084 Q 1678 3084 1418 2786 Q 1159 2488 1159 1978 L 1159 0 L 581 0 L 581 3500 L 1159 3500 L 1159 2956 Q 1356 3278 1631 3431 Q 1906 3584 2284 3584 Q 2666 3584 2933 3390 Q 3200 3197 3328 2828 z" transform="scale(0.015625)"/></defs><use xlink:href="#DejaVuSans-43"/><use xlink:href="#DejaVuSans-75" x="69.824"/><use xlink:href="#DejaVuSans-73" x="133.203"/><use xlink:href="#DejaVuSans-74" x="185.303"/><use xlink:href="#DejaVuSans-6f" x="224.512"/><use xlink:href="#DejaVuSans-6d" x="285.693"/><use xlink:href="#DejaVuSans-20" x="383.105"/><use xlink:href="#DejaVuSans-43" x="414.893"/><use xlink:href="#DejaVuSans-6f" x="484.717"/><use xlink:href="#DejaVuSans-6c" x="545.898"/><use xlink:href="#DejaVuSans-6f" x="573.682"/><use xlink:href="#DejaVuSans-75" x="634.863"/><use xlink:href="#DejaVuSans-72" x="698.242"/></g></g><g id="patch_9"><path d="M 407.450781 708.920313 L 427.450781 708.920313 L 427.450781 701.920313 L 407.450781 701.920313 z" fill="#ffffff"/></g><g id="text_19"><g transform="translate(435.450781 708.920313) scale(0.1 -0.1)" fill="#ffffff"><defs><path id="DejaVuSans-76" d="M 191 3500 L 800 3500 L 1894 563 L 2988 3500 L 3597 3500 L 2284 0 L 1503 0 L 191 3500 z" transform="scale(0.015625)"/></defs><use xlink:href="#DejaVuSans-53"/><use xlink:href="#DejaVuSans-75" x="63.477"/><use xlink:href="#DejaVuSans-72" x="126.855"/><use xlink:href="#DejaVuSans-76" x="167.969"/><use xlink:href="#DejaVuSans-69" x="227.148"/><use xlink:href="#DejaVuSans-76" x="254.932"/><use xlink:href="#DejaVuSans-6f" x="314.111"/><use xlink:href="#DejaVuSans-72" x="375.293"/></g></g><g id="patch_10"><path d="M 497.092969 708.920313 L 517.092969 708.920313 L 517.092969 701.920313 L 497.092969 701.920313 z" fill="#ff7373"/></g><g id="text_20"><g transform="translate(525.092969 708.920313) scale(0.1 -0.1)" fill="#ffffff"><defs><path id="DejaVuSans-48" d="M 628 4666 L 1259 4666 L 1259 2753 L 3553 2753 L 3553 4666 L 4184 4666 L 4184 0 L 3553 0 L 3553 2222 L 1259 2222 L 1259 0 L 628 0 L 628 4666 z" transform="scale(0.015625)"/></defs><use xlink:href="#DejaVuSans-48"/><use xlink:href="#DejaVuSans-75" x="75.195"/><use xlink:href="#DejaVuSans-6e" x="138.574"/><use xlink:href="#DejaVuSans-74" x="201.953"/><use xlink:href="#DejaVuSans-65" x="241.162"/><use xlink:href="#DejaVuSans-72" x="302.686"/></g></g><g id="patch_11"><path d="M 579.472656 708.920313 L 599.472656 708.920313 L 599.472656 701.920313 L 579.472656 701.920313 z" fill="#4f2d68"/></g><g id="text_21"><g transform="translate(607.472656 708.920313) scale(0.1 -0.1)" fill="#ffffff"><defs><path id="DejaVuSans-70" d="M 1159 525 L 1159 -1331 L 581 -1331 L 581 3500 L 1159 3500 L 1159 2969 Q 1341 3281 1617 3432 Q 1894 3584 2278 3584 Q 2916 3584 3314 3078 Q 3713 2572 3713 1747 Q 3713 922 3314 415 Q 2916 -91 2278 -91 Q 1894 -91 1617 61 Q 1341 213 1159 525 z M 3116 1747 Q 3116 2381 2855 2742 Q 2594 3103 2138 3103 Q 1681 3103 1420 2742 Q 1159 2381 1159 1747 Q 1159 1113 1420 752 Q 1681 391 2138 391 Q 2594 391 2855 752 Q 3116 1113 3116 1747 z" transform="scale(0.015625)"/></defs><use xlink:href="#DejaVuSans-53"/><use xlink:href="#DejaVuSans-70" x="63.477"/><use xlink:href="#DejaVuSans-65" x="126.953"/><use xlink:href="#DejaVuSans-61" x="188.477"/><use xlink:href="#DejaVuSans-72" x="249.756"/><use xlink:href="#DejaVuSans-6d" x="289.119"/><use xlink:href="#DejaVuSans-61" x="386.531"/><use xlink:href="#DejaVuSans-73" x="447.811"/><use xlink:href="#DejaVuSans-74" x="499.91"/><use xlink:href="#DejaVuSans-65" x="539.119"/><use xlink:href="#DejaVuSans-72" x="600.643"/></g></g><g id="patch_12"><path d="M 691.649219 708.920313 L 711.649219 708.920313 L 711.649219 701.920313 L 691.649219 701.920313 z" fill="#ffff73"/></g><g id="text_22"><g transform="translate(719.649219 708.920313) scale(0.1 -0.1)" fill="#ffffff"><defs><path id="DejaVuSans-4d" d="M 628 4666 L 1569 4666 L 2759 1491 L 3956 4666 L 4897 4666 L 4897 0 L 4281 0 L 4281 4097 L 3078 897 L 2444 897 L 1241 4097 L 1241 0 L 628 0 L 628 4666 z" transform="scale(0.015625)"/><path id="DejaVuSans-6b" d="M 581 4863 L 1159 4863 L 1159 1991 L 2875 3500 L 3609 3500 L 1753 1863 L 3688 0 L 2938 0 L 1159 1709 L 1159 0 L 581 0 L 581 4863 z" transform="scale(0.015625)"/></defs><use xlink:href="#DejaVuSans-4d"/><use xlink:href="#DejaVuSans-6f" x="86.279"/><use xlink:href="#DejaVuSans-6e" x="147.461"/><use xlink:href="#DejaVuSans-6b" x="210.84"/></g></g><g id="patch_13"><path d="M 766.524219 708.920313 L 786.524219 708.920313 L 786.524219 701.920313 L 766.524219 701.920313 z" fill="#70223b"/></g><g id="text_23"><g transform="translate(794.524219 708.920313) scale(0.1 -0.1)" fill="#ffffff"><defs><path id="DejaVuSans-41" d="M 2188 4044 L 1331 1722 L 3047 1722 L 2188 4044 z M 1831 4666 L 2547 4666 L 4325 0 L 3669 0 L 3244 1197 L 1141 1197 L 716 0 L 50 0 L 1831 4666 z" transform="scale(0.015625)"/><path id="DejaVuSans-66" d="M 2375 4863 L 2375 4384 L 1825 4384 Q 1516 4384 1395 4259 Q 1275 4134 1275 3809 L 1275 3500 L 2222 3500 L 2222 3053 L 1275 3053 L 1275 0 L 697 0 L 697 3053 L 147 3053 L 147 3500 L 697 3500 L 697 3744 Q 697 4328 969 4595 Q 1241 4863 1831 4863 L 2375 4863 z" transform="scale(0.015625)"/></defs><use xlink:href="#DejaVuSans-41"/><use xlink:href="#DejaVuSans-72" x="68.408"/><use xlink:href="#DejaVuSans-74" x="109.521"/><use xlink:href="#DejaVuSans-69" x="148.73"/><use xlink:href="#DejaVuSans-66" x="176.514"/><use xlink:href="#DejaVuSans-69" x="211.719"/><use xlink:href="#DejaVuSans-63" x="239.502"/><use xlink:href="#DejaVuSans-65" x="294.482"/><use xlink:href="#DejaVuSans-72" x="356.006"/></g></g><g id="patch_14"><path d="M 854.235156 708.920313 L 874.235156 708.920313 L 874.235156 701.920313 L 854.235156 701.920313 z" fill="#91ccf0"/></g><g id="text_24"><g transform="translate(882.235156 708.920313) scale(0.1 -0.1)" fill="#ffffff"><defs><path id="DejaVuSans-52" d="M 2841 2188 Q 3044 2119 3236 1894 Q 3428 1669 3622 1275 L 4263 0 L 3584 0 L 2988 1197 Q 2756 1666 2539 1819 Q 2322 1972 1947 1972 L 1259 1972 L 1259 0 L 628 0 L 628 4666 L 2053 4666 Q 2853 4666 3247 4331 Q 3641 3997 3641 3322 Q 3641 2881 3436 2590 Q 3231 2300 2841 2188 z M 1259 4147 L 1259 2491 L 2053 2491 Q 2509 2491 2742 2702 Q 2975 2913 2975 3322 Q 2975 3731 2742 3939 Q 2509 4147 2053 4147 L 1259 4147 z" transform="scale(0.015625)"/></defs><use xlink:href="#DejaVuSans-52"/><use xlink:href="#DejaVuSans-69" x="69.482"/><use xlink:href="#DejaVuSans-76" x="97.266"/><use xlink:href="#DejaVuSans-75" x="156.445"/><use xlink:href="#DejaVuSans-6c" x="219.824"/><use xlink:href="#DejaVuSans-65" x="247.607"/><use xlink:href="#DejaVuSans-74" x="309.131"/></g></g><g id="patch_15"><path d="M 937.069531 708.920313 L 957.069531 708.920313 L 957.069531 701.920313 L 937.069531 701.920313 z" fill="#aaf155"/></g><g id="text_25"><g transform="translate(965.069531 708.920313) scale(0.1 -0.1)" fill="#ffffff"><use xlink:href="#DejaVuSans-53"/><use xlink:href="#DejaVuSans-61" x="63.477"/><use xlink:href="#DejaVuSans-69" x="124.756"/><use xlink:href="#DejaVuSans-6e" x="152.539"/><use xlink:href="#DejaVuSans-74" x="215.918"/></g></g><g id="patch_16"><path d="M 1010.582031 708.920313 L 1030.582031 708.920313 L 1030.582031 701.920313 L 1010.582031 701.920313 z" fill="#f0c097"/></g><g id="text_26"><g transform="translate(1038.582031 708.920313) scale(0.1 -0.1)" fill="#ffffff"><defs><path id="DejaVuSans-47" d="M 3809 666 L 3809 1919 L 2778 1919 L 2778 2438 L 4434 2438 L 4434 434 Q 4069 175 3628 42 Q 3188 -91 2688 -91 Q 1594 -91 976 548 Q 359 1188 359 2328 Q 359 3472 976 4111 Q 1594 4750 2688 4750 Q 3144 4750 3555 4637 Q 3966 4525 4313 4306 L 4313 3634 Q 3963 3931 3569 4081 Q 3175 4231 2741 4231 Q 1884 4231 1454 3753 Q 1025 3275 1025 2328 Q 1025 1384 1454 906 Q 1884 428 2741 428 Q 3075 428 3337 486 Q 3600 544 3809 666 z" transform="scale(0.015625)"/><path id="DejaVuSans-64" d="M 2906 2969 L 2906 4863 L 3481 4863 L 3481 0 L 2906 0 L 2906 525 Q 2725 213 2448 61 Q 2172 -91 1784 -91 Q 1150 -91 751 415 Q 353 922 353 1747 Q 353 2572 751 3078 Q 1150 3584 1784 3584 Q 2172 3584 2448 3432 Q 2725 3281 2906 2969 z M 947 1747 Q 947 1113 1208 752 Q 1469 391 1925 391 Q 2381 391 2643 752 Q 2906 1113 2906 1747 Q 2906 2381 2643 2742 Q 2381 3103 1925 3103 Q 1469 3103 1208 2742 Q 947 2381 947 1747 z" transform="scale(0.015625)"/></defs><use xlink:href="#DejaVuSans-47"/><use xlink:href="#DejaVuSans-6f" x="77.49"/><use xlink:href="#DejaVuSans-75" x="138.672"/><use xlink:href="#DejaVuSans-72" x="202.051"/><use xlink:href="#DejaVuSans-6d" x="241.414"/><use xlink:href="#DejaVuSans-61" x="338.826"/><use xlink:href="#DejaVuSans-6e" x="400.105"/><use xlink:href="#DejaVuSans-64" x="463.484"/></g></g><g id="patch_17"><path d="M 1111.277344 708.920313 L 1131.277344 708.920313 L 1131.277344 701.920313 L 1111.277344 701.920313 z" fill="#16234f"/></g><g id="text_27"><g transform="translate(1139.277344 708.920313) scale(0.1 -0.1)" fill="#ffffff"><defs><path id="DejaVuSans-49" d="M 628 4666 L 1259 4666 L 1259 0 L 628 0 L 628 4666 z" transform="scale(0.015625)"/></defs><use xlink:href="#DejaVuSans-49"/><use xlink:href="#DejaVuSans-6e" x="29.492"/><use xlink:href="#DejaVuSans-76" x="92.871"/></g></g></g></g><defs><clipPath id="p1aa700c61e"><rect x="180" y="86.4" width="1116" height="554.4"/></clipPath></defs></svg>