<svg xmlns:xlink="http://www.w3.org/1999/xlink" width="1920" height="960" viewBox="0 0 1440 720" xmlns="http://www.w3.org/2000/svg" version="1.1"><metadata><rdf:RDF xmlns:dc="http://purl.org/dc/elements/1.1/" xmlns:cc="http://creativecommons.org/ns#" xmlns:rdf="http://www.w3.org/1999/02/22-rdf-syntax-ns#"><cc:Work><dc:type rdf:resource="http://purl.org/dc/dcmitype/StillImage"/><dc:format>image/svg+xml</dc:format><dc:creator><cc:Agent><dc:title>Matplotlib v3.7.1, https://matplotlib.org/</dc:title></cc:Agent></dc:creator></cc:Work></rdf:RDF></metadata><defs><style type="text/css">*{stroke-linejoin:round;stroke-linecap:butt}</style></defs><g id="figure_1"><g id="patch_1"><path d="M 0 720 L 1440 720 L 1440 0 L 0 0 z"/></g><g id="axes_1"><g id="patch_2"><path d="M 180 640.8 L 1296 640.8 L 1296 86.4 L 180 86.4 z"/></g><g id="PolyCollection_1"><path d="M 180 517.663222 L 180 640.8 L 189.3 640.8 L 198.6 640.8 L 207.9 640.8 L 217.2 640.8 L 226.5 640.8 L 235.8 640.8 L 245.1 640.8 L 254.4 640.8 L 263.7 640.8 L 273 640.8 L 282.3 640.8 L 291.6 640.8 L 300.9 640.8 L 310.2 640.8 L 319.5 640.8 L 328.8 640.8 L 338.1 640.8 L 347.4 640.8 L 356.7 640.8 L 366 640.8 L 375.3 640.8 L 384.6 640.8 L 393.9 640.8 L 403.2 640.8 L 412.5 640.8 L 421.8 640.8 L 431.1 640.8 L 440.4 640.8 L 449.7 640.8 L 459 640.8 L 468.3 640.8 L 477.6 640.8 L 486.9 640.8 L 496.2 640.8 L 505.5 640.8 L 514.8 640.8 L 524.1 640.8 L 533.4 640.8 L 542.7 640.8 L 552 640.8 L 561.3 640.8 L 570.6 640.8 L 579.9 640.8 L 589.2 640.8 L 598.5 640.8 L 607.8 640.8 L 617.1 640.8 L 626.4 640.8 L 635.7 640.8 L 645 640.8 L 654.3 640.8 L 663.6 640.8 L 672.9 640.8 L 682.2 640.8 L 691.5 640.8 L 700.8 640.8 L 710.1 640.8 L 719.4 640.8 L 728.7 640.8 L 738 640.8 L 747.3 640.8 L 756.6 640.8 L 765.9 640.8 L 775.2 640.8 L 784.5 640.8 L 793.8 640.8 L 803.1 640.8 L 812.4 640.8 L 821.7 640.8 L 831 640.8 L 840.3 640.8 L 849.6 640.8 L 858.9 640.8 L 868.2 640.8 L 877.5 640.8 L 886.8 640.8 L 896.1 640.8 L 905.4 640.8 L 914.7 640.8 L 924 640.8 L 933.3 640.8 L 942.6 640.8 L 951.9 640.8 L 961.2 640.8 L 970.5 640.8 L 979.8 640.8 L 989.1 640.8 L 998.4 640.8 L 1007.7 640.8 L 1017 640.8 L 1026.3 640.8 L 1035.6 640.8 L 1044.9 640.8 L 1054.2 640.8 L 1063.5 640.8 L 1072.8 640.8 L 1082.1 640.8 L 1091.4 640.8 L 1100.7 640.8 L 1110 640.8 L 1119.3 640.8 L 1128.6 640.8 L 1137.9 640.8 L 1147.2 640.8 L 1156.5 640.8 L 1165.8 640.8 L 1175.1 640.8 L 1184.4 640.8 L 1193.7 640.8 L 1203 640.8 L 1212.3 640.8 L 1221.6 640.8 L 1230.9 640.8 L 1240.2 640.8 L 1249.5 640.8 L 1258.8 640.8 L 1268.1 640.8 L 1277.4 640.8 L 1286.7 640.8 L 1296 640.8 L 1305.3 640.8 L 1314.6 640.8 L 1323.9 640.8 L 1333.2 640.8 L 1342.5 640.8 L 1351.8 640.8 L 1361.1 640.8 L 1361.1 632.046201 L 1361.1 632.046201 L 1351.8 583.316717 L 1342.5 561.432219 L 1333.2 572.958055 L 1323.9 523.353191 L 1314.6 541.73617 L 1305.3 555.596353 L 1296 552.532523 L 1286.7 556.617629 L 1277.4 519.997568 L 1268.1 552.678419 L 1258.8 565.079635 L 1249.5 531.231611 L 1240.2 510.222492 L 1230.9 535.462614 L 1221.6 537.213374 L 1212.3 529.334954 L 1203 560.410942 L 1193.7 521.894225 L 1184.4 550.05228 L 1175.1 556.325836 L 1165.8 545.383587 L 1156.5 550.635866 L 1147.2 525.249848 L 1137.9 553.553799 L 1128.6 580.398784 L 1119.3 559.097872 L 1110 535.462614 L 1100.7 562.599392 L 1091.4 516.641945 L 1082.1 553.116109 L 1072.8 533.274164 L 1063.5 509.638906 L 1054.2 536.775684 L 1044.9 526.271125 L 1035.6 532.106991 L 1026.3 510.806079 L 1017 494.61155 L 1007.7 495.04924 L 998.4 534.733131 L 989.1 534.587234 L 979.8 521.456535 L 970.5 539.401824 L 961.2 498.842553 L 951.9 486.295441 L 942.6 530.793921 L 933.3 537.651064 L 924 562.599392 L 914.7 569.894225 L 905.4 558.514286 L 896.1 537.505167 L 886.8 525.103951 L 877.5 549.468693 L 868.2 557.930699 L 858.9 537.213374 L 849.6 536.921581 L 840.3 534.003647 L 831 487.900304 L 821.7 482.502128 L 812.4 551.948936 L 803.1 533.565957 L 793.8 511.389666 L 784.5 558.806079 L 775.2 529.334954 L 765.9 507.888146 L 756.6 466.745289 L 747.3 540.86079 L 738 563.474772 L 728.7 435.815198 L 719.4 538.526444 L 710.1 528.459574 L 700.8 491.839514 L 691.5 487.316717 L 682.2 517.955015 L 672.9 559.243769 L 663.6 566.684498 L 654.3 486.295441 L 645 526.854711 L 635.7 439.316717 L 626.4 458.429179 L 617.1 494.027964 L 607.8 489.359271 L 598.5 466.015805 L 589.2 467.328875 L 579.9 462.806079 L 570.6 414.660182 L 561.3 434.210334 L 552 420.204255 L 542.7 429.541641 L 533.4 424.581155 L 524.1 423.997568 L 514.8 452.009726 L 505.5 355.572036 L 496.2 388.544681 L 486.9 412.179939 L 477.6 488.046201 L 468.3 485.420061 L 459 445.73617 L 449.7 453.468693 L 440.4 373.225532 L 431.1 407.657143 L 421.8 500.885106 L 412.5 544.216413 L 403.2 550.344073 L 393.9 576.021884 L 384.6 489.505167 L 375.3 449.67538 L 366 411.012766 L 356.7 489.651064 L 347.4 498.98845 L 338.1 522.040122 L 328.8 522.477812 L 319.5 483.669301 L 310.2 503.073556 L 300.9 453.031003 L 291.6 506.283283 L 282.3 485.565957 L 273 495.632827 L 263.7 541.006687 L 254.4 519.997568 L 245.1 406.635866 L 235.8 451.572036 L 226.5 506.575076 L 217.2 527.875988 L 207.9 568.872948 L 198.6 540.714894 L 189.3 511.243769 L 180 517.663222 z" clip-path="url(#p91931af4f3)" fill="#0f0f0f"/></g><g id="PolyCollection_2"><path d="M 180 498.55076 L 180 517.663222 L 189.3 511.243769 L 198.6 540.714894 L 207.9 568.872948 L 217.2 527.875988 L 226.5 506.575076 L 235.8 451.572036 L 245.1 406.635866 L 254.4 519.997568 L 263.7 541.006687 L 273 495.632827 L 282.3 485.565957 L 291.6 506.283283 L 300.9 453.031003 L 310.2 503.073556 L 319.5 483.669301 L 328.8 522.477812 L 338.1 522.040122 L 347.4 498.98845 L 356.7 489.651064 L 366 411.012766 L 375.3 449.67538 L 384.6 489.505167 L 393.9 576.021884 L 403.2 550.344073 L 412.5 544.216413 L 421.8 500.885106 L 431.1 407.657143 L 440.4 373.225532 L 449.7 453.468693 L 459 445.73617 L 468.3 485.420061 L 477.6 488.046201 L 486.9 412.179939 L 496.2 388.544681 L 505.5 355.572036 L 514.8 452.009726 L 524.1 423.997568 L 533.4 424.581155 L 542.7 429.541641 L 552 420.204255 L 561.3 434.210334 L 570.6 414.660182 L 579.9 462.806079 L 589.2 467.328875 L 598.5 466.015805 L 607.8 489.359271 L 617.1 494.027964 L 626.4 458.429179 L 635.7 439.316717 L 645 526.854711 L 654.3 486.295441 L 663.6 566.684498 L 672.9 559.243769 L 682.2 517.955015 L 691.5 487.316717 L 700.8 491.839514 L 710.1 528.459574 L 719.4 538.526444 L 728.7 435.815198 L 738 563.474772 L 747.3 540.86079 L 756.6 466.745289 L 765.9 507.888146 L 775.2 529.334954 L 784.5 558.806079 L 793.8 511.389666 L 803.1 533.565957 L 812.4 551.948936 L 821.7 482.502128 L 831 487.900304 L 840.3 534.003647 L 849.6 536.921581 L 858.9 537.213374 L 868.2 557.930699 L 877.5 549.468693 L 886.8 525.103951 L 896.1 537.505167 L 905.4 558.514286 L 914.7 569.894225 L 924 562.599392 L 933.3 537.651064 L 942.6 530.793921 L 951.9 486.295441 L 961.2 498.842553 L 970.5 539.401824 L 979.8 521.456535 L 989.1 534.587234 L 998.4 534.733131 L 1007.7 495.04924 L 1017 494.61155 L 1026.3 510.806079 L 1035.6 532.106991 L 1044.9 526.271125 L 1054.2 536.775684 L 1063.5 509.638906 L 1072.8 533.274164 L 1082.1 553.116109 L 1091.4 516.641945 L 1100.7 562.599392 L 1110 535.462614 L 1119.3 559.097872 L 1128.6 580.398784 L 1137.9 553.553799 L 1147.2 525.249848 L 1156.5 550.635866 L 1165.8 545.383587 L 1175.1 556.325836 L 1184.4 550.05228 L 1193.7 521.894225 L 1203 560.410942 L 1212.3 529.334954 L 1221.6 537.213374 L 1230.9 535.462614 L 1240.2 510.222492 L 1249.5 531.231611 L 1258.8 565.079635 L 1268.1 552.678419 L 1277.4 519.997568 L 1286.7 556.617629 L 1296 552.532523 L 1305.3 555.596353 L 1314.6 541.73617 L 1323.9 523.353191 L 1333.2 572.958055 L 1342.5 561.432219 L 1351.8 583.316717 L 1361.1 632.046201 L 1361.1 626.064438 L 1361.1 626.064438 L 1351.8 548.885106 L 1342.5 521.310638 L 1333.2 552.970213 L 1323.9 491.54772 L 1314.6 516.933739 L 1305.3 522.477812 L 1296 511.535562 L 1286.7 522.186018 L 1277.4 488.775684 L 1268.1 534.733131 L 1258.8 536.629787 L 1249.5 516.058359 L 1240.2 483.377508 L 1230.9 503.948936 L 1221.6 498.404863 L 1212.3 497.23769 L 1203 530.502128 L 1193.7 481.626748 L 1184.4 525.979331 L 1175.1 526.417021 L 1165.8 511.243769 L 1156.5 509.493009 L 1147.2 492.277204 L 1137.9 524.958055 L 1128.6 537.79696 L 1119.3 532.690578 L 1110 504.386626 L 1100.7 532.544681 L 1091.4 486.733131 L 1082.1 525.833435 L 1072.8 496.508207 L 1063.5 478.271125 L 1054.2 484.106991 L 1044.9 485.565957 L 1035.6 496.508207 L 1026.3 467.766565 L 1017 459.012766 L 1007.7 465.286322 L 998.4 509.201216 L 989.1 509.201216 L 979.8 481.918541 L 970.5 497.67538 L 961.2 454.781763 L 951.9 435.669301 L 942.6 500.155623 L 933.3 495.04924 L 924 542.465653 L 914.7 538.526444 L 905.4 535.170821 L 896.1 502.198176 L 886.8 459.596353 L 877.5 507.158663 L 868.2 509.347112 L 858.9 510.951976 L 849.6 489.505167 L 840.3 491.11003 L 831 459.888146 L 821.7 440.775684 L 812.4 522.477812 L 803.1 518.100912 L 793.8 495.48693 L 784.5 537.359271 L 775.2 506.283283 L 765.9 483.815198 L 756.6 426.915502 L 747.3 522.477812 L 738 539.693617 L 728.7 406.781763 L 719.4 519.705775 L 710.1 500.009726 L 700.8 442.818237 L 691.5 424.872948 L 682.2 467.037082 L 672.9 518.538602 L 663.6 538.818237 L 654.3 445.882067 L 645 492.86079 L 635.7 381.103951 L 626.4 400.216413 L 617.1 454.92766 L 607.8 473.310638 L 598.5 438.003647 L 589.2 441.942857 L 579.9 429.687538 L 570.6 368.994529 L 561.3 385.480851 L 552 383.875988 L 542.7 388.690578 L 533.4 374.830395 L 524.1 395.839514 L 514.8 428.812158 L 505.5 299.54772 L 496.2 316.909422 L 486.9 362.429179 L 477.6 449.383587 L 468.3 450.55076 L 459 411.158663 L 449.7 401.67538 L 440.4 331.644985 L 431.1 364.471733 L 421.8 461.638906 L 412.5 510.660182 L 403.2 539.255927 L 393.9 557.638906 L 384.6 474.040122 L 375.3 405.1769 L 366 389.420061 L 356.7 466.745289 L 347.4 471.122188 L 338.1 496.654103 L 328.8 509.201216 L 319.5 458.720973 L 310.2 468.058359 L 300.9 421.663222 L 291.6 478.562918 L 282.3 464.410942 L 273 470.976292 L 263.7 524.958055 L 254.4 490.818237 L 245.1 372.496049 L 235.8 415.389666 L 226.5 491.98541 L 217.2 505.116109 L 207.9 558.076596 L 198.6 521.894225 L 189.3 500.447416 L 180 498.55076 z" clip-path="url(#p91931af4f3)" fill="#ffffff"/></g><g id="PolyCollection_3"><path d="M 180 490.088754 L 180 498.55076 L 189.3 500.447416 L 198.6 521.894225 L 207.9 558.076596 L 217.2 505.116109 L 226.5 491.98541 L 235.8 415.389666 L 245.1 372.496049 L 254.4 490.818237 L 263.7 524.958055 L 273 470.976292 L 282.3 464.410942 L 291.6 478.562918 L 300.9 421.663222 L 310.2 468.058359 L 319.5 458.720973 L 328.8 509.201216 L 338.1 496.654103 L 347.4 471.122188 L 356.7 466.745289 L 366 389.420061 L 375.3 405.1769 L 384.6 474.040122 L 393.9 557.638906 L 403.2 539.255927 L 412.5 510.660182 L 421.8 461.638906 L 431.1 364.471733 L 440.4 331.644985 L 449.7 401.67538 L 459 411.158663 L 468.3 450.55076 L 477.6 449.383587 L 486.9 362.429179 L 496.2 316.909422 L 505.5 299.54772 L 514.8 428.812158 L 524.1 395.839514 L 533.4 374.830395 L 542.7 388.690578 L 552 383.875988 L 561.3 385.480851 L 570.6 368.994529 L 579.9 429.687538 L 589.2 441.942857 L 598.5 438.003647 L 607.8 473.310638 L 617.1 454.92766 L 626.4 400.216413 L 635.7 381.103951 L 645 492.86079 L 654.3 445.882067 L 663.6 538.818237 L 672.9 518.538602 L 682.2 467.037082 L 691.5 424.872948 L 700.8 442.818237 L 710.1 500.009726 L 719.4 519.705775 L 728.7 406.781763 L 738 539.693617 L 747.3 522.477812 L 756.6 426.915502 L 765.9 483.815198 L 775.2 506.283283 L 784.5 537.359271 L 793.8 495.48693 L 803.1 518.100912 L 812.4 522.477812 L 821.7 440.775684 L 831 459.888146 L 840.3 491.11003 L 849.6 489.505167 L 858.9 510.951976 L 868.2 509.347112 L 877.5 507.158663 L 886.8 459.596353 L 896.1 502.198176 L 905.4 535.170821 L 914.7 538.526444 L 924 542.465653 L 933.3 495.04924 L 942.6 500.155623 L 951.9 435.669301 L 961.2 454.781763 L 970.5 497.67538 L 979.8 481.918541 L 989.1 509.201216 L 998.4 509.201216 L 1007.7 465.286322 L 1017 459.012766 L 1026.3 467.766565 L 1035.6 496.508207 L 1044.9 485.565957 L 1054.2 484.106991 L 1063.5 478.271125 L 1072.8 496.508207 L 1082.1 525.833435 L 1091.4 486.733131 L 1100.7 532.544681 L 1110 504.386626 L 1119.3 532.690578 L 1128.6 537.79696 L 1137.9 524.958055 L 1147.2 492.277204 L 1156.5 509.493009 L 1165.8 511.243769 L 1175.1 526.417021 L 1184.4 525.979331 L 1193.7 481.626748 L 1203 530.502128 L 1212.3 497.23769 L 1221.6 498.404863 L 1230.9 503.948936 L 1240.2 483.377508 L 1249.5 516.058359 L 1258.8 536.629787 L 1268.1 534.733131 L 1277.4 488.775684 L 1286.7 522.186018 L 1296 511.535562 L 1305.3 522.477812 L 1314.6 516.933739 L 1323.9 491.54772 L 1333.2 552.970213 L 1342.5 521.310638 L 1351.8 548.885106 L 1361.1 626.064438 L 1361.1 617.018845 L 1361.1 617.018845 L 1351.8 529.043161 L 1342.5 502.198176 L 1333.2 540.86079 L 1323.9 477.979331 L 1314.6 496.216413 L 1305.3 509.055319 L 1296 492.714894 L 1286.7 509.055319 L 1277.4 471.268085 L 1268.1 524.958055 L 1258.8 528.459574 L 1249.5 498.696657 L 1240.2 466.015805 L 1230.9 491.11003 L 1221.6 491.401824 L 1212.3 482.648024 L 1203 511.973252 L 1193.7 469.809119 L 1184.4 515.474772 L 1175.1 490.964134 L 1165.8 500.155623 L 1156.5 487.900304 L 1147.2 478.562918 L 1137.9 506.866869 L 1128.6 526.417021 L 1119.3 521.602432 L 1110 491.11003 L 1100.7 511.827356 L 1091.4 470.538602 L 1082.1 511.243769 L 1072.8 483.669301 L 1063.5 462.806079 L 1054.2 472.727052 L 1044.9 473.018845 L 1035.6 484.398784 L 1026.3 446.17386 L 1017 445.882067 L 1007.7 459.742249 L 998.4 496.8 L 989.1 501.322796 L 979.8 470.976292 L 970.5 484.836474 L 961.2 434.793921 L 951.9 415.389666 L 942.6 488.483891 L 933.3 487.900304 L 924 534.441337 L 914.7 517.809119 L 905.4 522.186018 L 896.1 485.420061 L 886.8 441.79696 L 877.5 492.4231 L 868.2 490.526444 L 858.9 499.280243 L 849.6 470.976292 L 840.3 474.040122 L 831 433.918541 L 821.7 426.331915 L 812.4 513.869909 L 803.1 499.134347 L 793.8 488.337994 L 784.5 519.122188 L 775.2 487.316717 L 765.9 467.037082 L 756.6 411.742249 L 747.3 505.262006 L 738 533.711854 L 728.7 390.733131 L 719.4 508.909422 L 710.1 474.331915 L 700.8 427.061398 L 691.5 410.137386 L 682.2 458.429179 L 672.9 505.553799 L 663.6 516.350152 L 654.3 433.772644 L 645 475.353191 L 635.7 349.882067 L 626.4 382.125228 L 617.1 435.669301 L 607.8 458.283283 L 598.5 422.100912 L 589.2 429.979331 L 579.9 403.717933 L 570.6 356.447416 L 561.3 355.42614 L 552 344.192097 L 542.7 366.076596 L 533.4 346.088754 L 524.1 377.310638 L 514.8 407.80304 L 505.5 262.92766 L 496.2 297.505167 L 486.9 347.693617 L 477.6 438.587234 L 468.3 414.076596 L 459 398.61155 L 449.7 373.663222 L 440.4 304.654103 L 431.1 330.186018 L 421.8 427.790881 L 412.5 488.192097 L 403.2 524.958055 L 393.9 543.195137 L 384.6 459.742249 L 375.3 358.344073 L 366 369.578116 L 356.7 434.356231 L 347.4 444.86079 L 338.1 457.699696 L 328.8 467.182979 L 319.5 449.529483 L 310.2 437.857751 L 300.9 408.386626 L 291.6 459.158663 L 282.3 450.55076 L 273 451.42614 L 263.7 508.617629 L 254.4 474.915502 L 245.1 320.702736 L 235.8 377.456535 L 226.5 462.368389 L 217.2 493.590274 L 207.9 532.252888 L 198.6 519.413982 L 189.3 490.380547 L 180 490.088754 z" clip-path="url(#p91931af4f3)" fill="#ff7373"/></g><g id="PolyCollection_4"><path d="M 180 461.638906 L 180 490.088754 L 189.3 490.380547 L 198.6 519.413982 L 207.9 532.252888 L 217.2 493.590274 L 226.5 462.368389 L 235.8 377.456535 L 245.1 320.702736 L 254.4 474.915502 L 263.7 508.617629 L 273 451.42614 L 282.3 450.55076 L 291.6 459.158663 L 300.9 408.386626 L 310.2 437.857751 L 319.5 449.529483 L 328.8 467.182979 L 338.1 457.699696 L 347.4 444.86079 L 356.7 434.356231 L 366 369.578116 L 375.3 358.344073 L 384.6 459.742249 L 393.9 543.195137 L 403.2 524.958055 L 412.5 488.192097 L 421.8 427.790881 L 431.1 330.186018 L 440.4 304.654103 L 449.7 373.663222 L 459 398.61155 L 468.3 414.076596 L 477.6 438.587234 L 486.9 347.693617 L 496.2 297.505167 L 505.5 262.92766 L 514.8 407.80304 L 524.1 377.310638 L 533.4 346.088754 L 542.7 366.076596 L 552 344.192097 L 561.3 355.42614 L 570.6 356.447416 L 579.9 403.717933 L 589.2 429.979331 L 598.5 422.100912 L 607.8 458.283283 L 617.1 435.669301 L 626.4 382.125228 L 635.7 349.882067 L 645 475.353191 L 654.3 433.772644 L 663.6 516.350152 L 672.9 505.553799 L 682.2 458.429179 L 691.5 410.137386 L 700.8 427.061398 L 710.1 474.331915 L 719.4 508.909422 L 728.7 390.733131 L 738 533.711854 L 747.3 505.262006 L 756.6 411.742249 L 765.9 467.037082 L 775.2 487.316717 L 784.5 519.122188 L 793.8 488.337994 L 803.1 499.134347 L 812.4 513.869909 L 821.7 426.331915 L 831 433.918541 L 840.3 474.040122 L 849.6 470.976292 L 858.9 499.280243 L 868.2 490.526444 L 877.5 492.4231 L 886.8 441.79696 L 896.1 485.420061 L 905.4 522.186018 L 914.7 517.809119 L 924 534.441337 L 933.3 487.900304 L 942.6 488.483891 L 951.9 415.389666 L 961.2 434.793921 L 970.5 484.836474 L 979.8 470.976292 L 989.1 501.322796 L 998.4 496.8 L 1007.7 459.742249 L 1017 445.882067 L 1026.3 446.17386 L 1035.6 484.398784 L 1044.9 473.018845 L 1054.2 472.727052 L 1063.5 462.806079 L 1072.8 483.669301 L 1082.1 511.243769 L 1091.4 470.538602 L 1100.7 511.827356 L 1110 491.11003 L 1119.3 521.602432 L 1128.6 526.417021 L 1137.9 506.866869 L 1147.2 478.562918 L 1156.5 487.900304 L 1165.8 500.155623 L 1175.1 490.964134 L 1184.4 515.474772 L 1193.7 469.809119 L 1203 511.973252 L 1212.3 482.648024 L 1221.6 491.401824 L 1230.9 491.11003 L 1240.2 466.015805 L 1249.5 498.696657 L 1258.8 528.459574 L 1268.1 524.958055 L 1277.4 471.268085 L 1286.7 509.055319 L 1296 492.714894 L 1305.3 509.055319 L 1314.6 496.216413 L 1323.9 477.979331 L 1333.2 540.86079 L 1342.5 502.198176 L 1351.8 529.043161 L 1361.1 617.018845 L 1361.1 608.410942 L 1361.1 608.410942 L 1351.8 522.040122 L 1342.5 486.441337 L 1333.2 523.644985 L 1323.9 451.86383 L 1314.6 472.289362 L 1305.3 484.106991 L 1296 464.848632 L 1286.7 491.11003 L 1277.4 452.155623 L 1268.1 511.681459 L 1258.8 523.207295 L 1249.5 478.417021 L 1240.2 450.98845 L 1230.9 480.021884 L 1221.6 482.502128 L 1212.3 470.830395 L 1203 506.283283 L 1193.7 448.8 L 1184.4 488.337994 L 1175.1 477.833435 L 1165.8 487.900304 L 1156.5 477.395745 L 1147.2 460.617629 L 1137.9 488.046201 L 1128.6 497.821277 L 1119.3 491.401824 L 1110 477.541641 L 1100.7 488.337994 L 1091.4 448.654103 L 1082.1 489.79696 L 1072.8 473.602432 L 1063.5 437.565957 L 1054.2 447.341033 L 1044.9 451.134347 L 1035.6 442.67234 L 1026.3 419.182979 L 1017 411.596353 L 1007.7 427.353191 L 998.4 456.532523 L 989.1 482.210334 L 979.8 450.696657 L 970.5 459.888146 L 961.2 409.845593 L 951.9 380.374468 L 942.6 468.204255 L 933.3 469.225532 L 924 501.468693 L 914.7 508.909422 L 905.4 503.219453 L 896.1 472.435258 L 886.8 407.36535 L 877.5 471.997568 L 868.2 473.018845 L 858.9 462.514286 L 849.6 428.520365 L 840.3 444.277204 L 831 400.216413 L 821.7 386.356231 L 812.4 481.480851 L 803.1 467.766565 L 793.8 469.809119 L 784.5 488.775684 L 775.2 456.240729 L 765.9 448.216413 L 756.6 387.231611 L 747.3 472.143465 L 738 511.827356 L 728.7 366.368389 L 719.4 475.936778 L 710.1 431.730091 L 700.8 383.730091 L 691.5 362.283283 L 682.2 430.562918 L 672.9 478.562918 L 663.6 500.155623 L 654.3 406.198176 L 645 438.587234 L 635.7 313.116109 L 626.4 355.86383 L 617.1 397.444377 L 607.8 426.769605 L 598.5 375.268085 L 589.2 377.602432 L 579.9 368.848632 L 570.6 314.720973 L 561.3 308.73921 L 552 295.900304 L 542.7 329.748328 L 533.4 321.578116 L 524.1 350.17386 L 514.8 390.149544 L 505.5 231.997568 L 496.2 254.903343 L 486.9 313.262006 L 477.6 404.30152 L 468.3 385.189058 L 459 379.790881 L 449.7 337.626748 L 440.4 261.468693 L 431.1 301.152584 L 421.8 399.632827 L 412.5 456.532523 L 403.2 510.951976 L 393.9 523.499088 L 384.6 428.666261 L 375.3 304.508207 L 366 330.915502 L 356.7 403.86383 L 347.4 400.508207 L 338.1 399.04924 L 328.8 439.608511 L 319.5 424.289362 L 310.2 393.359271 L 300.9 367.535562 L 291.6 418.745289 L 282.3 418.745289 L 273 408.532523 L 263.7 475.790881 L 254.4 444.86079 L 245.1 274.891185 L 235.8 340.252888 L 226.5 407.073556 L 217.2 460.471733 L 207.9 504.386626 L 198.6 505.699696 L 189.3 467.912462 L 180 461.638906 z" clip-path="url(#p91931af4f3)" fill="#4f2d68"/></g><g id="PolyCollection_5"><path d="M 180 447.04924 L 180 461.638906 L 189.3 467.912462 L 198.6 505.699696 L 207.9 504.386626 L 217.2 460.471733 L 226.5 407.073556 L 235.8 340.252888 L 245.1 274.891185 L 254.4 444.86079 L 263.7 475.790881 L 273 408.532523 L 282.3 418.745289 L 291.6 418.745289 L 300.9 367.535562 L 310.2 393.359271 L 319.5 424.289362 L 328.8 439.608511 L 338.1 399.04924 L 347.4 400.508207 L 356.7 403.86383 L 366 330.915502 L 375.3 304.508207 L 384.6 428.666261 L 393.9 523.499088 L 403.2 510.951976 L 412.5 456.532523 L 421.8 399.632827 L 431.1 301.152584 L 440.4 261.468693 L 449.7 337.626748 L 459 379.790881 L 468.3 385.189058 L 477.6 404.30152 L 486.9 313.262006 L 496.2 254.903343 L 505.5 231.997568 L 514.8 390.149544 L 524.1 350.17386 L 533.4 321.578116 L 542.7 329.748328 L 552 295.900304 L 561.3 308.73921 L 570.6 314.720973 L 579.9 368.848632 L 589.2 377.602432 L 598.5 375.268085 L 607.8 426.769605 L 617.1 397.444377 L 626.4 355.86383 L 635.7 313.116109 L 645 438.587234 L 654.3 406.198176 L 663.6 500.155623 L 672.9 478.562918 L 682.2 430.562918 L 691.5 362.283283 L 700.8 383.730091 L 710.1 431.730091 L 719.4 475.936778 L 728.7 366.368389 L 738 511.827356 L 747.3 472.143465 L 756.6 387.231611 L 765.9 448.216413 L 775.2 456.240729 L 784.5 488.775684 L 793.8 469.809119 L 803.1 467.766565 L 812.4 481.480851 L 821.7 386.356231 L 831 400.216413 L 840.3 444.277204 L 849.6 428.520365 L 858.9 462.514286 L 868.2 473.018845 L 877.5 471.997568 L 886.8 407.36535 L 896.1 472.435258 L 905.4 503.219453 L 914.7 508.909422 L 924 501.468693 L 933.3 469.225532 L 942.6 468.204255 L 951.9 380.374468 L 961.2 409.845593 L 970.5 459.888146 L 979.8 450.696657 L 989.1 482.210334 L 998.4 456.532523 L 1007.7 427.353191 L 1017 411.596353 L 1026.3 419.182979 L 1035.6 442.67234 L 1044.9 451.134347 L 1054.2 447.341033 L 1063.5 437.565957 L 1072.8 473.602432 L 1082.1 489.79696 L 1091.4 448.654103 L 1100.7 488.337994 L 1110 477.541641 L 1119.3 491.401824 L 1128.6 497.821277 L 1137.9 488.046201 L 1147.2 460.617629 L 1156.5 477.395745 L 1165.8 487.900304 L 1175.1 477.833435 L 1184.4 488.337994 L 1193.7 448.8 L 1203 506.283283 L 1212.3 470.830395 L 1221.6 482.502128 L 1230.9 480.021884 L 1240.2 450.98845 L 1249.5 478.417021 L 1258.8 523.207295 L 1268.1 511.681459 L 1277.4 452.155623 L 1286.7 491.11003 L 1296 464.848632 L 1305.3 484.106991 L 1314.6 472.289362 L 1323.9 451.86383 L 1333.2 523.644985 L 1342.5 486.441337 L 1351.8 522.040122 L 1361.1 608.410942 L 1361.1 607.681459 L 1361.1 607.681459 L 1351.8 519.268085 L 1342.5 480.021884 L 1333.2 523.499088 L 1323.9 450.11307 L 1314.6 469.517325 L 1305.3 480.605471 L 1296 461.055319 L 1286.7 488.629787 L 1277.4 449.821277 L 1268.1 509.055319 L 1258.8 520.727052 L 1249.5 475.207295 L 1240.2 446.465653 L 1230.9 473.310638 L 1221.6 481.189058 L 1212.3 467.912462 L 1203 501.61459 L 1193.7 446.757447 L 1184.4 487.170821 L 1175.1 473.602432 L 1165.8 486.879027 L 1156.5 470.976292 L 1147.2 458.429179 L 1137.9 485.857751 L 1128.6 493.444377 L 1119.3 490.818237 L 1110 470.976292 L 1100.7 484.690578 L 1091.4 445.152584 L 1082.1 488.192097 L 1072.8 471.268085 L 1063.5 436.690578 L 1054.2 445.73617 L 1044.9 447.778723 L 1035.6 437.128267 L 1026.3 410.137386 L 1017 400.654103 L 1007.7 421.663222 L 998.4 454.635866 L 989.1 477.979331 L 979.8 447.04924 L 970.5 458.137386 L 961.2 404.447416 L 951.9 373.371429 L 942.6 465.432219 L 933.3 464.119149 L 924 496.8 L 914.7 505.116109 L 905.4 495.341033 L 896.1 465.140426 L 886.8 401.67538 L 877.5 467.328875 L 868.2 467.328875 L 858.9 457.699696 L 849.6 426.915502 L 840.3 441.359271 L 831 390.879027 L 821.7 383.438298 L 812.4 475.207295 L 803.1 463.973252 L 793.8 466.307599 L 784.5 486.003647 L 775.2 454.344073 L 765.9 438.149544 L 756.6 372.641945 L 747.3 465.869909 L 738 499.134347 L 728.7 360.094833 L 719.4 469.371429 L 710.1 426.331915 L 700.8 379.353191 L 691.5 355.86383 L 682.2 427.790881 L 672.9 470.246809 L 663.6 498.55076 L 654.3 399.48693 L 645 434.648024 L 635.7 309.031003 L 626.4 348.568997 L 617.1 388.836474 L 607.8 426.186018 L 598.5 372.933739 L 589.2 375.413982 L 579.9 366.368389 L 570.6 309.906383 L 561.3 302.757447 L 552 288.459574 L 542.7 318.514286 L 533.4 318.222492 L 524.1 346.088754 L 514.8 372.496049 L 505.5 225.432219 L 496.2 247.316717 L 486.9 303.778723 L 477.6 399.632827 L 468.3 382.708815 L 459 367.827356 L 449.7 336.021884 L 440.4 253.882067 L 431.1 291.961094 L 421.8 396.568997 L 412.5 456.240729 L 403.2 505.845593 L 393.9 519.705775 L 384.6 426.477812 L 375.3 300.86079 L 366 319.389666 L 356.7 390.295441 L 347.4 391.316717 L 338.1 393.359271 L 328.8 434.939818 L 319.5 411.304559 L 310.2 389.420061 L 300.9 361.553799 L 291.6 416.410942 L 282.3 405.1769 L 273 403.42614 L 263.7 465.140426 L 254.4 440.775684 L 245.1 265.116109 L 235.8 332.520365 L 226.5 401.529483 L 217.2 457.262006 L 207.9 502.198176 L 198.6 503.219453 L 189.3 442.23465 L 180 447.04924 z" clip-path="url(#p91931af4f3)" fill="#ffff73"/></g><g id="PolyCollection_6"><path d="M 180 422.684498 L 180 447.04924 L 189.3 442.23465 L 198.6 503.219453 L 207.9 502.198176 L 217.2 457.262006 L 226.5 401.529483 L 235.8 332.520365 L 245.1 265.116109 L 254.4 440.775684 L 263.7 465.140426 L 273 403.42614 L 282.3 405.1769 L 291.6 416.410942 L 300.9 361.553799 L 310.2 389.420061 L 319.5 411.304559 L 328.8 434.939818 L 338.1 393.359271 L 347.4 391.316717 L 356.7 390.295441 L 366 319.389666 L 375.3 300.86079 L 384.6 426.477812 L 393.9 519.705775 L 403.2 505.845593 L 412.5 456.240729 L 421.8 396.568997 L 431.1 291.961094 L 440.4 253.882067 L 449.7 336.021884 L 459 367.827356 L 468.3 382.708815 L 477.6 399.632827 L 486.9 303.778723 L 496.2 247.316717 L 505.5 225.432219 L 514.8 372.496049 L 524.1 346.088754 L 533.4 318.222492 L 542.7 318.514286 L 552 288.459574 L 561.3 302.757447 L 570.6 309.906383 L 579.9 366.368389 L 589.2 375.413982 L 598.5 372.933739 L 607.8 426.186018 L 617.1 388.836474 L 626.4 348.568997 L 635.7 309.031003 L 645 434.648024 L 654.3 399.48693 L 663.6 498.55076 L 672.9 470.246809 L 682.2 427.790881 L 691.5 355.86383 L 700.8 379.353191 L 710.1 426.331915 L 719.4 469.371429 L 728.7 360.094833 L 738 499.134347 L 747.3 465.869909 L 756.6 372.641945 L 765.9 438.149544 L 775.2 454.344073 L 784.5 486.003647 L 793.8 466.307599 L 803.1 463.973252 L 812.4 475.207295 L 821.7 383.438298 L 831 390.879027 L 840.3 441.359271 L 849.6 426.915502 L 858.9 457.699696 L 868.2 467.328875 L 877.5 467.328875 L 886.8 401.67538 L 896.1 465.140426 L 905.4 495.341033 L 914.7 505.116109 L 924 496.8 L 933.3 464.119149 L 942.6 465.432219 L 951.9 373.371429 L 961.2 404.447416 L 970.5 458.137386 L 979.8 447.04924 L 989.1 477.979331 L 998.4 454.635866 L 1007.7 421.663222 L 1017 400.654103 L 1026.3 410.137386 L 1035.6 437.128267 L 1044.9 447.778723 L 1054.2 445.73617 L 1063.5 436.690578 L 1072.8 471.268085 L 1082.1 488.192097 L 1091.4 445.152584 L 1100.7 484.690578 L 1110 470.976292 L 1119.3 490.818237 L 1128.6 493.444377 L 1137.9 485.857751 L 1147.2 458.429179 L 1156.5 470.976292 L 1165.8 486.879027 L 1175.1 473.602432 L 1184.4 487.170821 L 1193.7 446.757447 L 1203 501.61459 L 1212.3 467.912462 L 1221.6 481.189058 L 1230.9 473.310638 L 1240.2 446.465653 L 1249.5 475.207295 L 1258.8 520.727052 L 1268.1 509.055319 L 1277.4 449.821277 L 1286.7 488.629787 L 1296 461.055319 L 1305.3 480.605471 L 1314.6 469.517325 L 1323.9 450.11307 L 1333.2 523.499088 L 1342.5 480.021884 L 1351.8 519.268085 L 1361.1 607.681459 L 1361.1 604.909422 L 1361.1 604.909422 L 1351.8 497.67538 L 1342.5 431.146505 L 1333.2 501.906383 L 1323.9 424.581155 L 1314.6 455.657143 L 1305.3 456.094833 L 1296 446.17386 L 1286.7 478.271125 L 1277.4 421.809119 L 1268.1 484.544681 L 1258.8 502.48997 L 1249.5 454.781763 L 1240.2 434.502128 L 1230.9 442.67234 L 1221.6 472.435258 L 1212.3 449.529483 L 1203 473.602432 L 1193.7 426.040122 L 1184.4 465.869909 L 1175.1 455.219453 L 1165.8 466.015805 L 1156.5 455.073556 L 1147.2 435.085714 L 1137.9 469.079635 L 1128.6 476.374468 L 1119.3 470.538602 L 1110 437.420061 L 1100.7 472.143465 L 1091.4 433.772644 L 1082.1 479.000608 L 1072.8 467.037082 L 1063.5 427.499088 L 1054.2 432.167781 L 1044.9 420.787842 L 1035.6 403.280243 L 1026.3 372.496049 L 1017 367.827356 L 1007.7 395.54772 L 998.4 441.79696 L 989.1 449.23769 L 979.8 414.222492 L 970.5 435.815198 L 961.2 367.535562 L 951.9 343.608511 L 942.6 452.009726 L 933.3 446.61155 L 924 475.790881 L 914.7 489.505167 L 905.4 462.368389 L 896.1 436.252888 L 886.8 374.976292 L 877.5 440.629787 L 868.2 428.082675 L 858.9 437.128267 L 849.6 400.654103 L 840.3 420.058359 L 831 358.198176 L 821.7 345.213374 L 812.4 443.401824 L 803.1 419.766565 L 793.8 445.29848 L 784.5 461.493009 L 775.2 418.745289 L 765.9 400.070517 L 756.6 339.523404 L 747.3 418.891185 L 738 467.037082 L 728.7 309.031003 L 719.4 441.505167 L 710.1 397.006687 L 700.8 327.851672 L 691.5 310.05228 L 682.2 382.271125 L 672.9 423.268085 L 663.6 474.915502 L 654.3 378.477812 L 645 419.182979 L 635.7 272.265046 L 626.4 306.842553 L 617.1 350.319757 L 607.8 397.006687 L 598.5 328.872948 L 589.2 330.477812 L 579.9 318.514286 L 570.6 228.058359 L 561.3 251.54772 L 552 262.781763 L 542.7 260.593313 L 533.4 264.240729 L 524.1 296.337994 L 514.8 346.964134 L 505.5 179.328875 L 496.2 200.192097 L 486.9 265.553799 L 477.6 363.012766 L 468.3 339.377508 L 459 307.134347 L 449.7 309.760486 L 440.4 201.067477 L 431.1 239.584195 L 421.8 363.012766 L 412.5 419.912462 L 403.2 463.973252 L 393.9 489.942857 L 384.6 393.79696 L 375.3 270.806079 L 366 256.654103 L 356.7 341.128267 L 347.4 341.857751 L 338.1 321.432219 L 328.8 402.98845 L 319.5 387.815198 L 310.2 357.468693 L 300.9 335.146505 L 291.6 392.921581 L 282.3 373.079635 L 273 370.891185 L 263.7 421.517325 L 254.4 391.900304 L 245.1 188.374468 L 235.8 268.909422 L 226.5 350.027964 L 217.2 413.638906 L 207.9 462.660182 L 198.6 481.189058 L 189.3 416.848632 L 180 422.684498 z" clip-path="url(#p91931af4f3)" fill="#70223b"/></g><g id="PolyCollection_7"><path d="M 180 416.119149 L 180 422.684498 L 189.3 416.848632 L 198.6 481.189058 L 207.9 462.660182 L 217.2 413.638906 L 226.5 350.027964 L 235.8 268.909422 L 245.1 188.374468 L 254.4 391.900304 L 263.7 421.517325 L 273 370.891185 L 282.3 373.079635 L 291.6 392.921581 L 300.9 335.146505 L 310.2 357.468693 L 319.5 387.815198 L 328.8 402.98845 L 338.1 321.432219 L 347.4 341.857751 L 356.7 341.128267 L 366 256.654103 L 375.3 270.806079 L 384.6 393.79696 L 393.9 489.942857 L 403.2 463.973252 L 412.5 419.912462 L 421.8 363.012766 L 431.1 239.584195 L 440.4 201.067477 L 449.7 309.760486 L 459 307.134347 L 468.3 339.377508 L 477.6 363.012766 L 486.9 265.553799 L 496.2 200.192097 L 505.5 179.328875 L 514.8 346.964134 L 524.1 296.337994 L 533.4 264.240729 L 542.7 260.593313 L 552 262.781763 L 561.3 251.54772 L 570.6 228.058359 L 579.9 318.514286 L 589.2 330.477812 L 598.5 328.872948 L 607.8 397.006687 L 617.1 350.319757 L 626.4 306.842553 L 635.7 272.265046 L 645 419.182979 L 654.3 378.477812 L 663.6 474.915502 L 672.9 423.268085 L 682.2 382.271125 L 691.5 310.05228 L 700.8 327.851672 L 710.1 397.006687 L 719.4 441.505167 L 728.7 309.031003 L 738 467.037082 L 747.3 418.891185 L 756.6 339.523404 L 765.9 400.070517 L 775.2 418.745289 L 784.5 461.493009 L 793.8 445.29848 L 803.1 419.766565 L 812.4 443.401824 L 821.7 345.213374 L 831 358.198176 L 840.3 420.058359 L 849.6 400.654103 L 858.9 437.128267 L 868.2 428.082675 L 877.5 440.629787 L 886.8 374.976292 L 896.1 436.252888 L 905.4 462.368389 L 914.7 489.505167 L 924 475.790881 L 933.3 446.61155 L 942.6 452.009726 L 951.9 343.608511 L 961.2 367.535562 L 970.5 435.815198 L 979.8 414.222492 L 989.1 449.23769 L 998.4 441.79696 L 1007.7 395.54772 L 1017 367.827356 L 1026.3 372.496049 L 1035.6 403.280243 L 1044.9 420.787842 L 1054.2 432.167781 L 1063.5 427.499088 L 1072.8 467.037082 L 1082.1 479.000608 L 1091.4 433.772644 L 1100.7 472.143465 L 1110 437.420061 L 1119.3 470.538602 L 1128.6 476.374468 L 1137.9 469.079635 L 1147.2 435.085714 L 1156.5 455.073556 L 1165.8 466.015805 L 1175.1 455.219453 L 1184.4 465.869909 L 1193.7 426.040122 L 1203 473.602432 L 1212.3 449.529483 L 1221.6 472.435258 L 1230.9 442.67234 L 1240.2 434.502128 L 1249.5 454.781763 L 1258.8 502.48997 L 1268.1 484.544681 L 1277.4 421.809119 L 1286.7 478.271125 L 1296 446.17386 L 1305.3 456.094833 L 1314.6 455.657143 L 1323.9 424.581155 L 1333.2 501.906383 L 1342.5 431.146505 L 1351.8 497.67538 L 1361.1 604.909422 L 1361.1 603.596353 L 1361.1 603.596353 L 1351.8 488.921581 L 1342.5 421.955015 L 1333.2 496.216413 L 1323.9 410.575076 L 1314.6 431.292401 L 1305.3 437.274164 L 1296 432.897264 L 1286.7 467.766565 L 1277.4 409.553799 L 1268.1 471.705775 L 1258.8 497.967173 L 1249.5 443.54772 L 1240.2 426.915502 L 1230.9 428.374468 L 1221.6 462.514286 L 1212.3 437.565957 L 1203 464.556839 L 1193.7 412.763526 L 1184.4 455.511246 L 1175.1 450.696657 L 1165.8 460.325836 L 1156.5 446.319757 L 1147.2 423.705775 L 1137.9 461.493009 L 1128.6 461.201216 L 1119.3 462.806079 L 1110 428.228571 L 1100.7 464.265046 L 1091.4 428.958055 L 1082.1 475.936778 L 1072.8 461.201216 L 1063.5 415.097872 L 1054.2 422.100912 L 1044.9 417.724012 L 1035.6 387.815198 L 1026.3 341.420061 L 1017 352.216413 L 1007.7 382.417021 L 998.4 425.748328 L 989.1 431.438298 L 979.8 401.091793 L 970.5 420.204255 L 961.2 344.483891 L 951.9 336.459574 L 942.6 442.818237 L 933.3 442.964134 L 924 463.973252 L 914.7 474.186018 L 905.4 441.213374 L 896.1 419.037082 L 886.8 364.909422 L 877.5 434.939818 L 868.2 413.784802 L 858.9 431.730091 L 849.6 390.003647 L 840.3 405.322796 L 831 348.131307 L 821.7 338.793921 L 812.4 429.103951 L 803.1 405.031003 L 793.8 431.000608 L 784.5 452.447416 L 775.2 405.760486 L 765.9 379.936778 L 756.6 330.769605 L 747.3 410.283283 L 738 462.514286 L 728.7 299.98541 L 719.4 422.538602 L 710.1 375.997568 L 700.8 317.201216 L 691.5 293.420061 L 682.2 374.246809 L 672.9 412.179939 L 663.6 462.660182 L 654.3 368.556839 L 645 400.654103 L 635.7 261.1769 L 626.4 292.252888 L 617.1 344.192097 L 607.8 390.441337 L 598.5 312.532523 L 589.2 319.097872 L 579.9 302.903343 L 570.6 203.11003 L 561.3 223.389666 L 552 236.228571 L 542.7 240.459574 L 533.4 249.79696 L 524.1 278.976292 L 514.8 336.021884 L 505.5 165.760486 L 496.2 182.684498 L 486.9 239.584195 L 477.6 342.587234 L 468.3 331.207295 L 459 292.106991 L 449.7 295.754407 L 440.4 179.474772 L 431.1 222.806079 L 421.8 343.754407 L 412.5 408.240729 L 403.2 436.106991 L 393.9 482.648024 L 384.6 376.581155 L 375.3 237.103951 L 366 228.204255 L 356.7 317.930699 L 347.4 326.538602 L 338.1 304.070517 L 328.8 395.693617 L 319.5 377.310638 L 310.2 343.754407 L 300.9 317.784802 L 291.6 376.289362 L 282.3 361.407903 L 273 359.657143 L 263.7 404.447416 L 254.4 369.140426 L 245.1 176.994529 L 235.8 244.836474 L 226.5 340.982371 L 217.2 404.30152 L 207.9 452.009726 L 198.6 476.520365 L 189.3 409.699696 L 180 416.119149 z" clip-path="url(#p91931af4f3)" fill="#91ccf0"/></g><g id="PolyCollection_8"><path d="M 180 414.806079 L 180 416.119149 L 189.3 409.699696 L 198.6 476.520365 L 207.9 452.009726 L 217.2 404.30152 L 226.5 340.982371 L 235.8 244.836474 L 245.1 176.994529 L 254.4 369.140426 L 263.7 404.447416 L 273 359.657143 L 282.3 361.407903 L 291.6 376.289362 L 300.9 317.784802 L 310.2 343.754407 L 319.5 377.310638 L 328.8 395.693617 L 338.1 304.070517 L 347.4 326.538602 L 356.7 317.930699 L 366 228.204255 L 375.3 237.103951 L 384.6 376.581155 L 393.9 482.648024 L 403.2 436.106991 L 412.5 408.240729 L 421.8 343.754407 L 431.1 222.806079 L 440.4 179.474772 L 449.7 295.754407 L 459 292.106991 L 468.3 331.207295 L 477.6 342.587234 L 486.9 239.584195 L 496.2 182.684498 L 505.5 165.760486 L 514.8 336.021884 L 524.1 278.976292 L 533.4 249.79696 L 542.7 240.459574 L 552 236.228571 L 561.3 223.389666 L 570.6 203.11003 L 579.9 302.903343 L 589.2 319.097872 L 598.5 312.532523 L 607.8 390.441337 L 617.1 344.192097 L 626.4 292.252888 L 635.7 261.1769 L 645 400.654103 L 654.3 368.556839 L 663.6 462.660182 L 672.9 412.179939 L 682.2 374.246809 L 691.5 293.420061 L 700.8 317.201216 L 710.1 375.997568 L 719.4 422.538602 L 728.7 299.98541 L 738 462.514286 L 747.3 410.283283 L 756.6 330.769605 L 765.9 379.936778 L 775.2 405.760486 L 784.5 452.447416 L 793.8 431.000608 L 803.1 405.031003 L 812.4 429.103951 L 821.7 338.793921 L 831 348.131307 L 840.3 405.322796 L 849.6 390.003647 L 858.9 431.730091 L 868.2 413.784802 L 877.5 434.939818 L 886.8 364.909422 L 896.1 419.037082 L 905.4 441.213374 L 914.7 474.186018 L 924 463.973252 L 933.3 442.964134 L 942.6 442.818237 L 951.9 336.459574 L 961.2 344.483891 L 970.5 420.204255 L 979.8 401.091793 L 989.1 431.438298 L 998.4 425.748328 L 1007.7 382.417021 L 1017 352.216413 L 1026.3 341.420061 L 1035.6 387.815198 L 1044.9 417.724012 L 1054.2 422.100912 L 1063.5 415.097872 L 1072.8 461.201216 L 1082.1 475.936778 L 1091.4 428.958055 L 1100.7 464.265046 L 1110 428.228571 L 1119.3 462.806079 L 1128.6 461.201216 L 1137.9 461.493009 L 1147.2 423.705775 L 1156.5 446.319757 L 1165.8 460.325836 L 1175.1 450.696657 L 1184.4 455.511246 L 1193.7 412.763526 L 1203 464.556839 L 1212.3 437.565957 L 1221.6 462.514286 L 1230.9 428.374468 L 1240.2 426.915502 L 1249.5 443.54772 L 1258.8 497.967173 L 1268.1 471.705775 L 1277.4 409.553799 L 1286.7 467.766565 L 1296 432.897264 L 1305.3 437.274164 L 1314.6 431.292401 L 1323.9 410.575076 L 1333.2 496.216413 L 1342.5 421.955015 L 1351.8 488.921581 L 1361.1 603.596353 L 1361.1 602.720973 L 1361.1 602.720973 L 1351.8 484.252888 L 1342.5 419.912462 L 1333.2 487.754407 L 1323.9 402.842553 L 1314.6 425.018845 L 1305.3 430.271125 L 1296 428.666261 L 1286.7 453.61459 L 1277.4 399.341033 L 1268.1 462.368389 L 1258.8 494.17386 L 1249.5 439.462614 L 1240.2 423.268085 L 1230.9 419.620669 L 1221.6 449.821277 L 1212.3 420.058359 L 1203 460.471733 L 1193.7 406.05228 L 1184.4 442.23465 L 1175.1 446.465653 L 1165.8 458.283283 L 1156.5 442.67234 L 1147.2 415.243769 L 1137.9 452.593313 L 1128.6 457.407903 L 1119.3 457.845593 L 1110 425.164742 L 1100.7 452.155623 L 1091.4 425.018845 L 1082.1 465.286322 L 1072.8 453.031003 L 1063.5 407.657143 L 1054.2 408.970213 L 1044.9 412.034043 L 1035.6 377.894225 L 1026.3 329.602432 L 1017 333.395745 L 1007.7 373.809119 L 998.4 418.891185 L 989.1 425.602432 L 979.8 393.942857 L 970.5 415.827356 L 961.2 336.751368 L 951.9 325.225532 L 942.6 436.252888 L 933.3 436.982371 L 924 456.678419 L 914.7 469.663222 L 905.4 432.167781 L 896.1 410.575076 L 886.8 354.258967 L 877.5 429.979331 L 868.2 397.73617 L 858.9 421.955015 L 849.6 378.623708 L 840.3 390.003647 L 831 339.669301 L 821.7 327.997568 L 812.4 415.681459 L 803.1 395.255927 L 793.8 420.496049 L 784.5 446.757447 L 775.2 393.067477 L 765.9 364.763526 L 756.6 312.532523 L 747.3 399.632827 L 738 449.967173 L 728.7 287.875988 L 719.4 412.909422 L 710.1 364.471733 L 700.8 304.945897 L 691.5 278.976292 L 682.2 361.845593 L 672.9 400.654103 L 663.6 455.073556 L 654.3 363.888146 L 645 393.359271 L 635.7 246.149544 L 626.4 280.872948 L 617.1 329.018845 L 607.8 380.520365 L 598.5 299.693617 L 589.2 309.322796 L 579.9 294.295441 L 570.6 189.979331 L 561.3 212.593313 L 552 226.307599 L 542.7 222.222492 L 533.4 235.353191 L 524.1 266.866869 L 514.8 327.997568 L 505.5 143.875988 L 496.2 154.380547 L 486.9 230.392705 L 477.6 329.310638 L 468.3 322.891185 L 459 285.103951 L 449.7 287.730091 L 440.4 160.945897 L 431.1 216.824316 L 421.8 339.961094 L 412.5 400.945897 L 403.2 427.499088 L 393.9 471.705775 L 384.6 364.909422 L 375.3 224.410942 L 366 217.553799 L 356.7 304.36231 L 347.4 315.158663 L 338.1 294.587234 L 328.8 389.565957 L 319.5 364.763526 L 310.2 329.164742 L 300.9 304.8 L 291.6 361.262006 L 282.3 346.964134 L 273 345.651064 L 263.7 383.730091 L 254.4 354.55076 L 245.1 158.903343 L 235.8 229.955015 L 226.5 337.626748 L 217.2 394.23465 L 207.9 445.590274 L 198.6 463.097872 L 189.3 402.98845 L 180 414.806079 z" clip-path="url(#p91931af4f3)" fill="#aaf155"/></g><g id="PolyCollection_9"><path d="M 180 409.407903 L 180 414.806079 L 189.3 402.98845 L 198.6 463.097872 L 207.9 445.590274 L 217.2 394.23465 L 226.5 337.626748 L 235.8 229.955015 L 245.1 158.903343 L 254.4 354.55076 L 263.7 383.730091 L 273 345.651064 L 282.3 346.964134 L 291.6 361.262006 L 300.9 304.8 L 310.2 329.164742 L 319.5 364.763526 L 328.8 389.565957 L 338.1 294.587234 L 347.4 315.158663 L 356.7 304.36231 L 366 217.553799 L 375.3 224.410942 L 384.6 364.909422 L 393.9 471.705775 L 403.2 427.499088 L 412.5 400.945897 L 421.8 339.961094 L 431.1 216.824316 L 440.4 160.945897 L 449.7 287.730091 L 459 285.103951 L 468.3 322.891185 L 477.6 329.310638 L 486.9 230.392705 L 496.2 154.380547 L 505.5 143.875988 L 514.8 327.997568 L 524.1 266.866869 L 533.4 235.353191 L 542.7 222.222492 L 552 226.307599 L 561.3 212.593313 L 570.6 189.979331 L 579.9 294.295441 L 589.2 309.322796 L 598.5 299.693617 L 607.8 380.520365 L 617.1 329.018845 L 626.4 280.872948 L 635.7 246.149544 L 645 393.359271 L 654.3 363.888146 L 663.6 455.073556 L 672.9 400.654103 L 682.2 361.845593 L 691.5 278.976292 L 700.8 304.945897 L 710.1 364.471733 L 719.4 412.909422 L 728.7 287.875988 L 738 449.967173 L 747.3 399.632827 L 756.6 312.532523 L 765.9 364.763526 L 775.2 393.067477 L 784.5 446.757447 L 793.8 420.496049 L 803.1 395.255927 L 812.4 415.681459 L 821.7 327.997568 L 831 339.669301 L 840.3 390.003647 L 849.6 378.623708 L 858.9 421.955015 L 868.2 397.73617 L 877.5 429.979331 L 886.8 354.258967 L 896.1 410.575076 L 905.4 432.167781 L 914.7 469.663222 L 924 456.678419 L 933.3 436.982371 L 942.6 436.252888 L 951.9 325.225532 L 961.2 336.751368 L 970.5 415.827356 L 979.8 393.942857 L 989.1 425.602432 L 998.4 418.891185 L 1007.7 373.809119 L 1017 333.395745 L 1026.3 329.602432 L 1035.6 377.894225 L 1044.9 412.034043 L 1054.2 408.970213 L 1063.5 407.657143 L 1072.8 453.031003 L 1082.1 465.286322 L 1091.4 425.018845 L 1100.7 452.155623 L 1110 425.164742 L 1119.3 457.845593 L 1128.6 457.407903 L 1137.9 452.593313 L 1147.2 415.243769 L 1156.5 442.67234 L 1165.8 458.283283 L 1175.1 446.465653 L 1184.4 442.23465 L 1193.7 406.05228 L 1203 460.471733 L 1212.3 420.058359 L 1221.6 449.821277 L 1230.9 419.620669 L 1240.2 423.268085 L 1249.5 439.462614 L 1258.8 494.17386 L 1268.1 462.368389 L 1277.4 399.341033 L 1286.7 453.61459 L 1296 428.666261 L 1305.3 430.271125 L 1314.6 425.018845 L 1323.9 402.842553 L 1333.2 487.754407 L 1342.5 419.912462 L 1351.8 484.252888 L 1361.1 602.720973 L 1361.1 602.283283 L 1361.1 602.283283 L 1351.8 481.626748 L 1342.5 407.80304 L 1333.2 481.480851 L 1323.9 377.456535 L 1314.6 399.778723 L 1305.3 421.079635 L 1296 409.991489 L 1286.7 445.73617 L 1277.4 396.568997 L 1268.1 447.92462 L 1258.8 488.629787 L 1249.5 434.356231 L 1240.2 414.076596 L 1230.9 412.909422 L 1221.6 446.17386 L 1212.3 416.265046 L 1203 455.657143 L 1193.7 393.942857 L 1184.4 438.441337 L 1175.1 435.669301 L 1165.8 445.590274 L 1156.5 435.085714 L 1147.2 404.593313 L 1137.9 444.714894 L 1128.6 444.86079 L 1119.3 446.17386 L 1110 404.30152 L 1100.7 445.29848 L 1091.4 417.578116 L 1082.1 457.116109 L 1072.8 442.526444 L 1063.5 404.447416 L 1054.2 401.529483 L 1044.9 397.006687 L 1035.6 364.179939 L 1026.3 317.930699 L 1017 328.727052 L 1007.7 366.660182 L 998.4 414.368389 L 989.1 409.845593 L 979.8 379.936778 L 970.5 399.341033 L 961.2 309.468693 L 951.9 304.508207 L 942.6 414.222492 L 933.3 419.912462 L 924 435.961094 L 914.7 455.511246 L 905.4 413.201216 L 896.1 395.839514 L 886.8 345.651064 L 877.5 417.432219 L 868.2 383.730091 L 858.9 400.508207 L 849.6 367.827356 L 840.3 378.331915 L 831 328.289362 L 821.7 312.240729 L 812.4 408.970213 L 803.1 388.398784 L 793.8 406.635866 L 784.5 430.271125 L 775.2 365.055319 L 765.9 341.420061 L 756.6 302.027964 L 747.3 389.128267 L 738 439.024924 L 728.7 276.058359 L 719.4 404.155623 L 710.1 350.61155 L 700.8 277.371429 L 691.5 258.842553 L 682.2 345.505167 L 672.9 384.751368 L 663.6 426.477812 L 654.3 347.11003 L 645 377.748328 L 635.7 226.599392 L 626.4 267.012766 L 617.1 310.48997 L 607.8 361.845593 L 598.5 287.000608 L 589.2 296.046201 L 579.9 275.328875 L 570.6 166.198176 L 561.3 185.018845 L 552 194.356231 L 542.7 199.024924 L 533.4 211.280243 L 524.1 241.043161 L 514.8 305.967173 L 505.5 112.945897 L 496.2 128.410942 L 486.9 198.587234 L 477.6 317.055319 L 468.3 303.632827 L 459 271.389666 L 449.7 272.848632 L 440.4 139.936778 L 431.1 201.067477 L 421.8 324.933739 L 412.5 377.164742 L 403.2 418.891185 L 393.9 464.556839 L 384.6 343.024924 L 375.3 202.088754 L 366 195.085714 L 356.7 284.520365 L 347.4 300.277204 L 338.1 277.225532 L 328.8 372.496049 L 319.5 354.404863 L 310.2 311.948936 L 300.9 281.310638 L 291.6 349.29848 L 282.3 333.541641 L 273 328.143465 L 263.7 345.79696 L 254.4 320.410942 L 245.1 133.517325 L 235.8 217.845593 L 226.5 330.186018 L 217.2 388.836474 L 207.9 436.836474 L 198.6 444.131307 L 189.3 391.462614 L 180 409.407903 z" clip-path="url(#p91931af4f3)" fill="#f0c097"/></g><g id="PolyCollection_10"><path d="M 180 409.407903 L 180 409.407903 L 189.3 391.462614 L 198.6 444.131307 L 207.9 436.836474 L 217.2 388.836474 L 226.5 330.186018 L 235.8 217.845593 L 245.1 133.517325 L 254.4 320.410942 L 263.7 345.79696 L 273 328.143465 L 282.3 333.541641 L 291.6 349.29848 L 300.9 281.310638 L 310.2 311.948936 L 319.5 354.404863 L 328.8 372.496049 L 338.1 277.225532 L 347.4 300.277204 L 356.7 284.520365 L 366 195.085714 L 375.3 202.088754 L 384.6 343.024924 L 393.9 464.556839 L 403.2 418.891185 L 412.5 377.164742 L 421.8 324.933739 L 431.1 201.067477 L 440.4 139.936778 L 449.7 272.848632 L 459 271.389666 L 468.3 303.632827 L 477.6 317.055319 L 486.9 198.587234 L 496.2 128.410942 L 505.5 112.945897 L 514.8 305.967173 L 524.1 241.043161 L 533.4 211.280243 L 542.7 199.024924 L 552 194.356231 L 561.3 185.018845 L 570.6 166.198176 L 579.9 275.328875 L 589.2 296.046201 L 598.5 287.000608 L 607.8 361.845593 L 617.1 310.48997 L 626.4 267.012766 L 635.7 226.599392 L 645 377.748328 L 654.3 347.11003 L 663.6 426.477812 L 672.9 384.751368 L 682.2 345.505167 L 691.5 258.842553 L 700.8 277.371429 L 710.1 350.61155 L 719.4 404.155623 L 728.7 276.058359 L 738 439.024924 L 747.3 389.128267 L 756.6 302.027964 L 765.9 341.420061 L 775.2 365.055319 L 784.5 430.271125 L 793.8 406.635866 L 803.1 388.398784 L 812.4 408.970213 L 821.7 312.240729 L 831 328.289362 L 840.3 378.331915 L 849.6 367.827356 L 858.9 400.508207 L 868.2 383.730091 L 877.5 417.432219 L 886.8 345.651064 L 896.1 395.839514 L 905.4 413.201216 L 914.7 455.511246 L 924 435.961094 L 933.3 419.912462 L 942.6 414.222492 L 951.9 304.508207 L 961.2 309.468693 L 970.5 399.341033 L 979.8 379.936778 L 989.1 409.845593 L 998.4 414.368389 L 1007.7 366.660182 L 1017 328.727052 L 1026.3 317.930699 L 1035.6 364.179939 L 1044.9 397.006687 L 1054.2 401.529483 L 1063.5 404.447416 L 1072.8 442.526444 L 1082.1 457.116109 L 1091.4 417.578116 L 1100.7 445.29848 L 1110 404.30152 L 1119.3 446.17386 L 1128.6 444.86079 L 1137.9 444.714894 L 1147.2 404.593313 L 1156.5 435.085714 L 1165.8 445.590274 L 1175.1 435.669301 L 1184.4 438.441337 L 1193.7 393.942857 L 1203 455.657143 L 1212.3 416.265046 L 1221.6 446.17386 L 1230.9 412.909422 L 1240.2 414.076596 L 1249.5 434.356231 L 1258.8 488.629787 L 1268.1 447.92462 L 1277.4 396.568997 L 1286.7 445.73617 L 1296 409.991489 L 1305.3 421.079635 L 1314.6 399.778723 L 1323.9 377.456535 L 1333.2 481.480851 L 1342.5 407.80304 L 1351.8 481.626748 L 1361.1 602.283283 L 1361.1 599.073556 L 1361.1 599.073556 L 1351.8 473.602432 L 1342.5 404.447416 L 1333.2 479.438298 L 1323.9 376.581155 L 1314.6 392.483891 L 1305.3 419.328875 L 1296 405.1769 L 1286.7 440.483891 L 1277.4 396.277204 L 1268.1 447.92462 L 1258.8 488.192097 L 1249.5 433.626748 L 1240.2 414.076596 L 1230.9 412.179939 L 1221.6 446.17386 L 1212.3 415.243769 L 1203 451.717933 L 1193.7 392.775684 L 1184.4 436.252888 L 1175.1 429.979331 L 1165.8 445.29848 L 1156.5 430.417021 L 1147.2 404.593313 L 1137.9 444.4231 L 1128.6 442.964134 L 1119.3 445.444377 L 1110 398.465653 L 1100.7 442.67234 L 1091.4 409.991489 L 1082.1 450.55076 L 1072.8 439.024924 L 1063.5 403.572036 L 1054.2 401.383587 L 1044.9 393.79696 L 1035.6 358.781763 L 1026.3 317.930699 L 1017 328.289362 L 1007.7 366.660182 L 998.4 414.222492 L 989.1 408.678419 L 979.8 377.602432 L 970.5 399.341033 L 961.2 308.009726 L 951.9 300.277204 L 942.6 409.845593 L 933.3 418.453495 L 924 434.064438 L 914.7 452.885106 L 905.4 405.031003 L 896.1 393.942857 L 886.8 345.505167 L 877.5 417.432219 L 868.2 383.438298 L 858.9 400.070517 L 849.6 363.012766 L 840.3 378.331915 L 831 313.116109 L 821.7 301.73617 L 812.4 400.945897 L 803.1 387.815198 L 793.8 405.468693 L 784.5 428.228571 L 775.2 364.909422 L 765.9 339.669301 L 756.6 300.568997 L 747.3 384.459574 L 738 438.587234 L 728.7 269.930699 L 719.4 403.86383 L 710.1 347.54772 L 700.8 276.204255 L 691.5 256.216413 L 682.2 336.897264 L 672.9 380.228571 L 663.6 424.727052 L 654.3 339.523404 L 645 374.246809 L 635.7 219.450456 L 626.4 264.824316 L 617.1 302.319757 L 607.8 352.8 L 598.5 281.310638 L 589.2 294.879027 L 579.9 270.660182 L 570.6 163.42614 L 561.3 184.872948 L 552 193.772644 L 542.7 197.711854 L 533.4 211.134347 L 524.1 236.082675 L 514.8 303.195137 L 505.5 112.8 L 496.2 127.973252 L 486.9 197.857751 L 477.6 316.909422 L 468.3 294.441337 L 459 270.806079 L 449.7 264.678419 L 440.4 130.161702 L 431.1 194.356231 L 421.8 313.991489 L 412.5 367.243769 L 403.2 416.410942 L 393.9 464.410942 L 384.6 341.420061 L 375.3 196.544681 L 366 191.730091 L 356.7 276.933739 L 347.4 298.088754 L 338.1 276.787842 L 328.8 368.265046 L 319.5 342.441337 L 310.2 284.374468 L 300.9 258.258967 L 291.6 348.277204 L 282.3 322.015805 L 273 313.991489 L 263.7 345.651064 L 254.4 319.389666 L 245.1 125.930699 L 235.8 205.152584 L 226.5 325.663222 L 217.2 379.061398 L 207.9 435.377508 L 198.6 441.79696 L 189.3 386.648024 L 180 409.407903 z" clip-path="url(#p91931af4f3)" fill="#16234f"/></g><g id="matplotlib.axis_1"><g id="xtick_1"><g id="line2d_1"><defs><path id="mb66f054ab6" d="M 0 0 L 0 3.5" stroke="#ffffff" stroke-width="0.8"/></defs><g><use xlink:href="#mb66f054ab6" x="180" y="640.8" fill="#ffffff" stroke="#ffffff" stroke-width="0.8"/></g></g><g id="text_1"><g transform="translate(176.81875 655.398438) scale(0.1 -0.1)" fill="#ffffff"><defs><path id="DejaVuSans-30" d="M 2034 4250 Q 1547 4250 1301 3770 Q 1056 3291 1056 2328 Q 1056 1369 1301 889 Q 1547 409 2034 409 Q 2525 409 2770 889 Q 3016 1369 3016 2328 Q 3016 3291 2770 3770 Q 2525 4250 2034 4250 z M 2034 4750 Q 2819 4750 3233 4129 Q 3647 3509 3647 2328 Q 3647 1150 3233 529 Q 2819 -91 2034 -91 Q 1250 -91 836 529 Q 422 1150 422 2328 Q 422 3509 836 4129 Q 1250 4750 2034 4750 z" transform="scale(0.015625)"/></defs><use xlink:href="#DejaVuSans-30"/></g></g></g><g id="xtick_2"><g id="line2d_2"><g><use xlink:href="#mb66f054ab6" x="366" y="640.8" fill="#ffffff" stroke="#ffffff" stroke-width="0.8"/></g></g><g id="text_2"><g transform="translate(359.6375 655.398438) scale(0.1 -0.1)" fill="#ffffff"><defs><path id="DejaVuSans-32" d="M 1228 531 L 3431 531 L 3431 0 L 469 0 L 469 531 Q 828 903 1448 1529 Q 2069 2156 2228 2338 Q 2531 2678 2651 2914 Q 2772 3150 2772 3378 Q 2772 3750 2511 3984 Q 2250 4219 1831 4219 Q 1534 4219 1204 4116 Q 875 4013 500 3803 L 500 4441 Q 881 4594 1212 4672 Q 1544 4750 1819 4750 Q 2544 4750 2975 4387 Q 3406 4025 3406 3419 Q 3406 3131 3298 2873 Q 3191 2616 2906 2266 Q 2828 2175 2409 1742 Q 1991 1309 1228 531 z" transform="scale(0.015625)"/></defs><use xlink:href="#DejaVuSans-32"/><use xlink:href="#DejaVuSans-30" x="63.623"/></g></g></g><g id="xtick_3"><g id="line2d_3"><g><use xlink:href="#mb66f054ab6" x="552" y="640.8" fill="#ffffff" stroke="#ffffff" stroke-width="0.8"/></g></g><g id="text_3"><g transform="translate(545.6375 655.398438) scale(0.1 -0.1)" fill="#ffffff"><defs><path id="DejaVuSans-34" d="M 2419 4116 L 825 1625 L 2419 1625 L 2419 4116 z M 2253 4666 L 3047 4666 L 3047 1625 L 3713 1625 L 3713 1100 L 3047 1100 L 3047 0 L 2419 0 L 2419 1100 L 313 1100 L 313 1709 L 2253 4666 z" transform="scale(0.015625)"/></defs><use xlink:href="#DejaVuSans-34"/><use xlink:href="#DejaVuSans-30" x="63.623"/></g></g></g><g id="xtick_4"><g id="line2d_4"><g><use xlink:href="#mb66f054ab6" x="738" y="640.8" fill="#ffffff" stroke="#ffffff" stroke-width="0.8"/></g></g><g id="text_4"><g transform="translate(731.6375 655.398438) scale(0.1 -0.1)" fill="#ffffff"><defs><path id="DejaVuSans-36" d="M 2113 2584 Q 1688 2584 1439 2293 Q 1191 2003 1191 1497 Q 1191 994 1439 701 Q 1688 409 2113 409 Q 2538 409 2786 701 Q 3034 994 3034 1497 Q 3034 2003 2786 2293 Q 2538 2584 2113 2584 z M 3366 4563 L 3366 3988 Q 3128 4100 2886 4159 Q 2644 4219 2406 4219 Q 1781 4219 1451 3797 Q 1122 3375 1075 2522 Q 1259 2794 1537 2939 Q 1816 3084 2150 3084 Q 2853 3084 3261 2657 Q 3669 2231 3669 1497 Q 3669 778 3244 343 Q 2819 -91 2113 -91 Q 1303 -91 875 529 Q 447 1150 447 2328 Q 447 3434 972 4092 Q 1497 4750 2381 4750 Q 2619 4750 2861 4703 Q 3103 4656 3366 4563 z" transform="scale(0.015625)"/></defs><use xlink:href="#DejaVuSans-36"/><use xlink:href="#DejaVuSans-30" x="63.623"/></g></g></g><g id="xtick_5"><g id="line2d_5"><g><use xlink:href="#mb66f054ab6" x="924" y="640.8" fill="#ffffff" stroke="#ffffff" stroke-width="0.8"/></g></g><g id="text_5"><g transform="translate(917.6375 655.398438) scale(0.1 -0.1)" fill="#ffffff"><defs><path id="DejaVuSans-38" d="M 2034 2216 Q 1584 2216 1326 1975 Q 1069 1734 1069 1313 Q 1069 891 1326 650 Q 1584 409 2034 409 Q 2484 409 2743 651 Q 3003 894 3003 1313 Q 3003 1734 2745 1975 Q 2488 2216 2034 2216 z M 1403 2484 Q 997 2584 770 2862 Q 544 3141 544 3541 Q 544 4100 942 4425 Q 1341 4750 2034 4750 Q 2731 4750 3128 4425 Q 3525 4100 3525 3541 Q 3525 3141 3298 2862 Q 3072 2584 2669 2484 Q 3125 2378 3379 2068 Q 3634 1759 3634 1313 Q 3634 634 3220 271 Q 2806 -91 2034 -91 Q 1263 -91 848 271 Q 434 634 434 1313 Q 434 1759 690 2068 Q 947 2378 1403 2484 z M 1172 3481 Q 1172 3119 1398 2916 Q 1625 2713 2034 2713 Q 2441 2713 2670 2916 Q 2900 3119 2900 3481 Q 2900 3844 2670 4047 Q 2441 4250 2034 4250 Q 1625 4250 1398 4047 Q 1172 3844 1172 3481 z" transform="scale(0.015625)"/></defs><use xlink:href="#DejaVuSans-38"/><use xlink:href="#DejaVuSans-30" x="63.623"/></g></g></g><g id="xtick_6"><g id="line2d_6"><g><use xlink:href="#mb66f054ab6" x="1110" y="640.8" fill="#ffffff" stroke="#ffffff" stroke-width="0.8"/></g></g><g id="text_6"><g transform="translate(1100.45625 655.398438) scale(0.1 -0.1)" fill="#ffffff"><defs><path id="DejaVuSans-31" d="M 794 531 L 1825 531 L 1825 4091 L 703 3866 L 703 4441 L 1819 4666 L 2450 4666 L 2450 531 L 3481 531 L 3481 0 L 794 0 L 794 531 z" transform="scale(0.015625)"/></defs><use xlink:href="#DejaVuSans-31"/><use xlink:href="#DejaVuSans-30" x="63.623"/><use xlink:href="#DejaVuSans-30" x="127.246"/></g></g></g><g id="xtick_7"><g id="line2d_7"><g><use xlink:href="#mb66f054ab6" x="1296" y="640.8" fill="#ffffff" stroke="#ffffff" stroke-width="0.8"/></g></g><g id="text_7"><g transform="translate(1286.45625 655.398438) scale(0.1 -0.1)" fill="#ffffff"><use xlink:href="#DejaVuSans-31"/><use xlink:href="#DejaVuSans-32" x="63.623"/><use xlink:href="#DejaVuSans-30" x="127.246"/></g></g></g><g id="xtick_8"><g id="line2d_8"><defs><path id="m0aec2ee64f" d="M 0 0 L 0 2" stroke="#ffffff" stroke-width="0.6"/></defs><g><use xlink:href="#m0aec2ee64f" x="226.5" y="640.8" fill="#ffffff" stroke="#ffffff" stroke-width="0.6"/></g></g></g><g id="xtick_9"><g id="line2d_9"><g><use xlink:href="#m0aec2ee64f" x="273" y="640.8" fill="#ffffff" stroke="#ffffff" stroke-width="0.6"/></g></g></g><g id="xtick_10"><g id="line2d_10"><g><use xlink:href="#m0aec2ee64f" x="319.5" y="640.8" fill="#ffffff" stroke="#ffffff" stroke-width="0.6"/></g></g></g><g id="xtick_11"><g id="line2d_11"><g><use xlink:href="#m0aec2ee64f" x="412.5" y="640.8" fill="#ffffff" stroke="#ffffff" stroke-width="0.6"/></g></g></g><g id="xtick_12"><g id="line2d_12"><g><use xlink:href="#m0aec2ee64f" x="459" y="640.8" fill="#ffffff" stroke="#ffffff" stroke-width="0.6"/></g></g></g><g id="xtick_13"><g id="line2d_13"><g><use xlink:href="#m0aec2ee64f" x="505.5" y="640.8" fill="#ffffff" stroke="#ffffff" stroke-width="0.6"/></g></g></g><g id="xtick_14"><g id="line2d_14"><g><use xlink:href="#m0aec2ee64f" x="598.5" y="640.8" fill="#ffffff" stroke="#ffffff" stroke-width="0.6"/></g></g></g><g id="xtick_15"><g id="line2d_15"><g><use xlink:href="#m0aec2ee64f" x="645" y="640.8" fill="#ffffff" stroke="#ffffff" stroke-width="0.6"/></g></g></g><g id="xtick_16"><g id="line2d_16"><g><use xlink:href="#m0aec2ee64f" x="691.5" y="640.8" fill="#ffffff" stroke="#ffffff" stroke-width="0.6"/></g></g></g><g id="xtick_17"><g id="line2d_17"><g><use xlink:href="#m0aec2ee64f" x="784.5" y="640.8" fill="#ffffff" stroke="#ffffff" stroke-width="0.6"/></g></g></g><g id="xtick_18"><g id="line2d_18"><g><use xlink:href="#m0aec2ee64f" x="831" y="640.8" fill="#ffffff" stroke="#ffffff" stroke-width="0.6"/></g></g></g><g id="xtick_19"><g id="line2d_19"><g><use xlink:href="#m0aec2ee64f" x="877.5" y="640.8" fill="#ffffff" stroke="#ffffff" stroke-width="0.6"/></g></g></g><g id="xtick_20"><g id="line2d_20"><g><use xlink:href="#m0aec2ee64f" x="970.5" y="640.8" fill="#ffffff" stroke="#ffffff" stroke-width="0.6"/></g></g></g><g id="xtick_21"><g id="line2d_21"><g><use xlink:href="#m0aec2ee64f" x="1017" y="640.8" fill="#ffffff" stroke="#ffffff" stroke-width="0.6"/></g></g></g><g id="xtick_22"><g id="line2d_22"><g><use xlink:href="#m0aec2ee64f" x="1063.5" y="640.8" fill="#ffffff" stroke="#ffffff" stroke-width="0.6"/></g></g></g><g id="xtick_23"><g id="line2d_23"><g><use xlink:href="#m0aec2ee64f" x="1156.5" y="640.8" fill="#ffffff" stroke="#ffffff" stroke-width="0.6"/></g></g></g><g id="xtick_24"><g id="line2d_24"><g><use xlink:href="#m0aec2ee64f" x="1203" y="640.8" fill="#ffffff" stroke="#ffffff" stroke-width="0.6"/></g></g></g><g id="xtick_25"><g id="line2d_25"><g><use xlink:href="#m0aec2ee64f" x="1249.5" y="640.8" fill="#ffffff" stroke="#ffffff" stroke-width="0.6"/></g></g></g><g id="text_8"><g transform="translate(664.841406 669.076563) scale(0.1 -0.1)" fill="#ffffff"><defs><path id="DejaVuSans-44" d="M 1259 4147 L 1259 519 L 2022 519 Q 2988 519 3436 956 Q 3884 1394 3884 2338 Q 3884 3275 3436 3711 Q 2988 4147 2022 4147 L 1259 4147 z M 628 4666 L 1925 4666 Q 3281 4666 3915 4102 Q 4550 3538 4550 2338 Q 4550 1131 3912 565 Q 3275 0 1925 0 L 628 0 L 628 4666 z" transform="scale(0.015625)"/><path id="DejaVuSans-61" d="M 2194 1759 Q 1497 1759 1228 1600 Q 959 1441 959 1056 Q 959 750 1161 570 Q 1363 391 1709 391 Q 2188 391 2477 730 Q 2766 1069 2766 1631 L 2766 1759 L 2194 1759 z M 3341 1997 L 3341 0 L 2766 0 L 2766 531 Q 2569 213 2275 61 Q 1981 -91 1556 -91 Q 1019 -91 701 211 Q 384 513 384 1019 Q 384 1609 779 1909 Q 1175 2209 1959 2209 L 2766 2209 L 2766 2266 Q 2766 2663 2505 2880 Q 2244 3097 1772 3097 Q 1472 3097 1187 3025 Q 903 2953 641 2809 L 641 3341 Q 956 3463 1253 3523 Q 1550 3584 1831 3584 Q 2591 3584 2966 3190 Q 3341 2797 3341 1997 z" transform="scale(0.015625)"/><path id="DejaVuSans-79" d="M 2059 -325 Q 1816 -950 1584 -1140 Q 1353 -1331 966 -1331 L 506 -1331 L 506 -850 L 844 -850 Q 1081 -850 1212 -737 Q 1344 -625 1503 -206 L 1606 56 L 191 3500 L 800 3500 L 1894 763 L 2988 3500 L 3597 3500 L 2059 -325 z" transform="scale(0.015625)"/><path id="DejaVuSans-73" d="M 2834 3397 L 2834 2853 Q 2591 2978 2328 3040 Q 2066 3103 1784 3103 Q 1356 3103 1142 2972 Q 928 2841 928 2578 Q 928 2378 1081 2264 Q 1234 2150 1697 2047 L 1894 2003 Q 2506 1872 2764 1633 Q 3022 1394 3022 966 Q 3022 478 2636 193 Q 2250 -91 1575 -91 Q 1294 -91 989 -36 Q 684 19 347 128 L 347 722 Q 666 556 975 473 Q 1284 391 1588 391 Q 1994 391 2212 530 Q 2431 669 2431 922 Q 2431 1156 2273 1281 Q 2116 1406 1581 1522 L 1381 1569 Q 847 1681 609 1914 Q 372 2147 372 2553 Q 372 3047 722 3315 Q 1072 3584 1716 3584 Q 2034 3584 2315 3537 Q 2597 3491 2834 3397 z" transform="scale(0.015625)"/><path id="DejaVuSans-20" transform="scale(0.015625)"/><path id="DejaVuSans-69" d="M 603 3500 L 1178 3500 L 1178 0 L 603 0 L 603 3500 z M 603 4863 L 1178 4863 L 1178 4134 L 603 4134 L 603 4863 z" transform="scale(0.015625)"/><path id="DejaVuSans-6e" d="M 3513 2113 L 3513 0 L 2938 0 L 2938 2094 Q 2938 2591 2744 2837 Q 2550 3084 2163 3084 Q 1697 3084 1428 2787 Q 1159 2491 1159 1978 L 1159 0 L 581 0 L 581 3500 L 1159 3500 L 1159 2956 Q 1366 3272 1645 3428 Q 1925 3584 2291 3584 Q 2894 3584 3203 3211 Q 3513 2838 3513 2113 z" transform="scale(0.015625)"/><path id="DejaVuSans-63" d="M 3122 3366 L 3122 2828 Q 2878 2963 2633 3030 Q 2388 3097 2138 3097 Q 1578 3097 1268 2742 Q 959 2388 959 1747 Q 959 1106 1268 751 Q 1578 397 2138 397 Q 2388 397 2633 464 Q 2878 531 3122 666 L 3122 134 Q 2881 22 2623 -34 Q 2366 -91 2075 -91 Q 1284 -91 818 406 Q 353 903 353 1747 Q 353 2603 823 3093 Q 1294 3584 2113 3584 Q 2378 3584 2631 3529 Q 2884 3475 3122 3366 z" transform="scale(0.015625)"/><path id="DejaVuSans-65" d="M 3597 1894 L 3597 1613 L 953 1613 Q 991 1019 1311 708 Q 1631 397 2203 397 Q 2534 397 2845 478 Q 3156 559 3463 722 L 3463 178 Q 3153 47 2828 -22 Q 2503 -91 2169 -91 Q 1331 -91 842 396 Q 353 884 353 1716 Q 353 2575 817 3079 Q 1281 3584 2069 3584 Q 2775 3584 3186 3129 Q 3597 2675 3597 1894 z M 3022 2063 Q 3016 2534 2758 2815 Q 2500 3097 2075 3097 Q 1594 3097 1305 2825 Q 1016 2553 972 2059 L 3022 2063 z" transform="scale(0.015625)"/><path id="DejaVuSans-2f" d="M 1625 4666 L 2156 4666 L 531 -594 L 0 -594 L 1625 4666 z" transform="scale(0.015625)"/><path id="DejaVuSans-33" d="M 2597 2516 Q 3050 2419 3304 2112 Q 3559 1806 3559 1356 Q 3559 666 3084 287 Q 2609 -91 1734 -91 Q 1441 -91 1130 -33 Q 819 25 488 141 L 488 750 Q 750 597 1062 519 Q 1375 441 1716 441 Q 2309 441 2620 675 Q 2931 909 2931 1356 Q 2931 1769 2642 2001 Q 2353 2234 1838 2234 L 1294 2234 L 1294 2753 L 1863 2753 Q 2328 2753 2575 2939 Q 2822 3125 2822 3475 Q 2822 3834 2567 4026 Q 2313 4219 1838 4219 Q 1578 4219 1281 4162 Q 984 4106 628 3988 L 628 4550 Q 988 4650 1302 4700 Q 1616 4750 1894 4750 Q 2613 4750 3031 4423 Q 3450 4097 3450 3541 Q 3450 3153 3228 2886 Q 3006 2619 2597 2516 z" transform="scale(0.015625)"/><path id="DejaVuSans-28" d="M 1984 4856 Q 1566 4138 1362 3434 Q 1159 2731 1159 2009 Q 1159 1288 1364 580 Q 1569 -128 1984 -844 L 1484 -844 Q 1016 -109 783 600 Q 550 1309 550 2009 Q 550 2706 781 3412 Q 1013 4119 1484 4856 L 1984 4856 z" transform="scale(0.015625)"/><path id="DejaVuSans-55" d="M 556 4666 L 1191 4666 L 1191 1831 Q 1191 1081 1462 751 Q 1734 422 2344 422 Q 2950 422 3222 751 Q 3494 1081 3494 1831 L 3494 4666 L 4128 4666 L 4128 1753 Q 4128 841 3676 375 Q 3225 -91 2344 -91 Q 1459 -91 1007 375 Q 556 841 556 1753 L 556 4666 z" transform="scale(0.015625)"/><path id="DejaVuSans-43" d="M 4122 4306 L 4122 3641 Q 3803 3938 3442 4084 Q 3081 4231 2675 4231 Q 1875 4231 1450 3742 Q 1025 3253 1025 2328 Q 1025 1406 1450 917 Q 1875 428 2675 428 Q 3081 428 3442 575 Q 3803 722 4122 1019 L 4122 359 Q 3791 134 3420 21 Q 3050 -91 2638 -91 Q 1578 -91 968 557 Q 359 1206 359 2328 Q 359 3453 968 4101 Q 1578 4750 2638 4750 Q 3056 4750 3426 4639 Q 3797 4528 4122 4306 z" transform="scale(0.015625)"/><path id="DejaVuSans-54" d="M -19 4666 L 3928 4666 L 3928 4134 L 2272 4134 L 2272 0 L 1638 0 L 1638 4134 L -19 4134 L -19 4666 z" transform="scale(0.015625)"/><path id="DejaVuSans-29" d="M 513 4856 L 1013 4856 Q 1481 4119 1714 3412 Q 1947 2706 1947 2009 Q 1947 1309 1714 600 Q 1481 -109 1013 -844 L 513 -844 Q 928 -128 1133 580 Q 1338 1288 1338 2009 Q 1338 2731 1133 3434 Q 928 4138 513 4856 z" transform="scale(0.015625)"/></defs><use xlink:href="#DejaVuSans-44"/><use xlink:href="#DejaVuSans-61" x="77.002"/><use xlink:href="#DejaVuSans-79" x="138.281"/><use xlink:href="#DejaVuSans-73" x="197.461"/><use xlink:href="#DejaVuSans-20" x="249.561"/><use xlink:href="#DejaVuSans-73" x="281.348"/><use xlink:href="#DejaVuSans-69" x="333.447"/><use xlink:href="#DejaVuSans-6e" x="361.23"/><use xlink:href="#DejaVuSans-63" x="424.609"/><use xlink:href="#DejaVuSans-65" x="479.59"/><use xlink:href="#DejaVuSans-20" x="541.113"/><use xlink:href="#DejaVuSans-32" x="572.9"/><use xlink:href="#DejaVuSans-36" x="636.523"/><use xlink:href="#DejaVuSans-2f" x="700.146"/><use xlink:href="#DejaVuSans-30" x="733.838"/><use xlink:href="#DejaVuSans-32" x="797.461"/><use xlink:href="#DejaVuSans-2f" x="861.084"/><use xlink:href="#DejaVuSans-32" x="894.775"/><use xlink:href="#DejaVuSans-30" x="958.398"/><use xlink:href="#DejaVuSans-32" x="1022.021"/><use xlink:href="#DejaVuSans-33" x="1085.645"/><use xlink:href="#DejaVuSans-20" x="1149.268"/><use xlink:href="#DejaVuSans-28" x="1181.055"/><use xlink:href="#DejaVuSans-55" x="1220.068"/><use xlink:href="#DejaVuSans-43" x="1293.262"/><use xlink:href="#DejaVuSans-54" x="1363.086"/><use xlink:href="#DejaVuSans-29" x="1424.17"/></g></g></g><g id="matplotlib.axis_2"><g id="ytick_1"><g id="line2d_26"><defs><path id="mb379d181a8" d="M 0 0 L -3.5 0" stroke="#ffffff" stroke-width="0.8"/></defs><g><use xlink:href="#mb379d181a8" x="180" y="640.8" fill="#ffffff" stroke="#ffffff" stroke-width="0.8"/></g></g><g id="text_9"><g transform="translate(166.6375 644.599219) scale(0.1 -0.1)" fill="#ffffff"><use xlink:href="#DejaVuSans-30"/></g></g></g><g id="ytick_2"><g id="line2d_27"><g><use xlink:href="#mb379d181a8" x="180" y="567.852" fill="#ffffff" stroke="#ffffff" stroke-width="0.8"/></g></g><g id="text_10"><g transform="translate(153.9125 571.65089) scale(0.1 -0.1)" fill="#ffffff"><defs><path id="DejaVuSans-35" d="M 691 4666 L 3169 4666 L 3169 4134 L 1269 4134 L 1269 2991 Q 1406 3038 1543 3061 Q 1681 3084 1819 3084 Q 2600 3084 3056 2656 Q 3513 2228 3513 1497 Q 3513 744 3044 326 Q 2575 -91 1722 -91 Q 1428 -91 1123 -41 Q 819 9 494 109 L 494 744 Q 775 591 1075 516 Q 1375 441 1709 441 Q 2250 441 2565 725 Q 2881 1009 2881 1497 Q 2881 1984 2565 2268 Q 2250 2553 1709 2553 Q 1456 2553 1204 2497 Q 953 2441 691 2322 L 691 4666 z" transform="scale(0.015625)"/></defs><use xlink:href="#DejaVuSans-35"/><use xlink:href="#DejaVuSans-30" x="63.623"/><use xlink:href="#DejaVuSans-30" x="127.246"/></g></g></g><g id="ytick_3"><g id="line2d_28"><g><use xlink:href="#mb379d181a8" x="180" y="494.903" fill="#ffffff" stroke="#ffffff" stroke-width="0.8"/></g></g><g id="text_11"><g transform="translate(147.55 498.702562) scale(0.1 -0.1)" fill="#ffffff"><use xlink:href="#DejaVuSans-31"/><use xlink:href="#DejaVuSans-30" x="63.623"/><use xlink:href="#DejaVuSans-30" x="127.246"/><use xlink:href="#DejaVuSans-30" x="190.869"/></g></g></g><g id="ytick_4"><g id="line2d_29"><g><use xlink:href="#mb379d181a8" x="180" y="421.955" fill="#ffffff" stroke="#ffffff" stroke-width="0.8"/></g></g><g id="text_12"><g transform="translate(147.55 425.754234) scale(0.1 -0.1)" fill="#ffffff"><use xlink:href="#DejaVuSans-31"/><use xlink:href="#DejaVuSans-35" x="63.623"/><use xlink:href="#DejaVuSans-30" x="127.246"/><use xlink:href="#DejaVuSans-30" x="190.869"/></g></g></g><g id="ytick_5"><g id="line2d_30"><g><use xlink:href="#mb379d181a8" x="180" y="349.007" fill="#ffffff" stroke="#ffffff" stroke-width="0.8"/></g></g><g id="text_13"><g transform="translate(147.55 352.805906) scale(0.1 -0.1)" fill="#ffffff"><use xlink:href="#DejaVuSans-32"/><use xlink:href="#DejaVuSans-30" x="63.623"/><use xlink:href="#DejaVuSans-30" x="127.246"/><use xlink:href="#DejaVuSans-30" x="190.869"/></g></g></g><g id="ytick_6"><g id="line2d_31"><g><use xlink:href="#mb379d181a8" x="180" y="276.058" fill="#ffffff" stroke="#ffffff" stroke-width="0.8"/></g></g><g id="text_14"><g transform="translate(147.55 279.857577) scale(0.1 -0.1)" fill="#ffffff"><use xlink:href="#DejaVuSans-32"/><use xlink:href="#DejaVuSans-35" x="63.623"/><use xlink:href="#DejaVuSans-30" x="127.246"/><use xlink:href="#DejaVuSans-30" x="190.869"/></g></g></g><g id="ytick_7"><g id="line2d_32"><g><use xlink:href="#mb379d181a8" x="180" y="203.11" fill="#ffffff" stroke="#ffffff" stroke-width="0.8"/></g></g><g id="text_15"><g transform="translate(147.55 206.909249) scale(0.1 -0.1)" fill="#ffffff"><use xlink:href="#DejaVuSans-33"/><use xlink:href="#DejaVuSans-30" x="63.623"/><use xlink:href="#DejaVuSans-30" x="127.246"/><use xlink:href="#DejaVuSans-30" x="190.869"/></g></g></g><g id="ytick_8"><g id="line2d_33"><g><use xlink:href="#mb379d181a8" x="180" y="130.162" fill="#ffffff" stroke="#ffffff" stroke-width="0.8"/></g></g><g id="text_16"><g transform="translate(147.55 133.960921) scale(0.1 -0.1)" fill="#ffffff"><use xlink:href="#DejaVuSans-33"/><use xlink:href="#DejaVuSans-35" x="63.623"/><use xlink:href="#DejaVuSans-30" x="127.246"/><use xlink:href="#DejaVuSans-30" x="190.869"/></g></g></g><g id="ytick_9"><g id="line2d_34"><defs><path id="m63c81a89f5" d="M 0 0 L -2 0" stroke="#ffffff" stroke-width="0.6"/></defs><g><use xlink:href="#m63c81a89f5" x="180" y="626.21" fill="#ffffff" stroke="#ffffff" stroke-width="0.6"/></g></g></g><g id="ytick_10"><g id="line2d_35"><g><use xlink:href="#m63c81a89f5" x="180" y="611.621" fill="#ffffff" stroke="#ffffff" stroke-width="0.6"/></g></g></g><g id="ytick_11"><g id="line2d_36"><g><use xlink:href="#m63c81a89f5" x="180" y="597.031" fill="#ffffff" stroke="#ffffff" stroke-width="0.6"/></g></g></g><g id="ytick_12"><g id="line2d_37"><g><use xlink:href="#m63c81a89f5" x="180" y="582.441" fill="#ffffff" stroke="#ffffff" stroke-width="0.6"/></g></g></g><g id="ytick_13"><g id="line2d_38"><g><use xlink:href="#m63c81a89f5" x="180" y="553.262" fill="#ffffff" stroke="#ffffff" stroke-width="0.6"/></g></g></g><g id="ytick_14"><g id="line2d_39"><g><use xlink:href="#m63c81a89f5" x="180" y="538.672" fill="#ffffff" stroke="#ffffff" stroke-width="0.6"/></g></g></g><g id="ytick_15"><g id="line2d_40"><g><use xlink:href="#m63c81a89f5" x="180" y="524.083" fill="#ffffff" stroke="#ffffff" stroke-width="0.6"/></g></g></g><g id="ytick_16"><g id="line2d_41"><g><use xlink:href="#m63c81a89f5" x="180" y="509.493" fill="#ffffff" stroke="#ffffff" stroke-width="0.6"/></g></g></g><g id="ytick_17"><g id="line2d_42"><g><use xlink:href="#m63c81a89f5" x="180" y="480.314" fill="#ffffff" stroke="#ffffff" stroke-width="0.6"/></g></g></g><g id="ytick_18"><g id="line2d_43"><g><use xlink:href="#m63c81a89f5" x="180" y="465.724" fill="#ffffff" stroke="#ffffff" stroke-width="0.6"/></g></g></g><g id="ytick_19"><g id="line2d_44"><g><use xlink:href="#m63c81a89f5" x="180" y="451.134" fill="#ffffff" stroke="#ffffff" stroke-width="0.6"/></g></g></g><g id="ytick_20"><g id="line2d_45"><g><use xlink:href="#m63c81a89f5" x="180" y="436.545" fill="#ffffff" stroke="#ffffff" stroke-width="0.6"/></g></g></g><g id="ytick_21"><g id="line2d_46"><g><use xlink:href="#m63c81a89f5" x="180" y="407.365" fill="#ffffff" stroke="#ffffff" stroke-width="0.6"/></g></g></g><g id="ytick_22"><g id="line2d_47"><g><use xlink:href="#m63c81a89f5" x="180" y="392.776" fill="#ffffff" stroke="#ffffff" stroke-width="0.6"/></g></g></g><g id="ytick_23"><g id="line2d_48"><g><use xlink:href="#m63c81a89f5" x="180" y="378.186" fill="#ffffff" stroke="#ffffff" stroke-width="0.6"/></g></g></g><g id="ytick_24"><g id="line2d_49"><g><use xlink:href="#m63c81a89f5" x="180" y="363.596" fill="#ffffff" stroke="#ffffff" stroke-width="0.6"/></g></g></g><g id="ytick_25"><g id="line2d_50"><g><use xlink:href="#m63c81a89f5" x="180" y="334.417" fill="#ffffff" stroke="#ffffff" stroke-width="0.6"/></g></g></g><g id="ytick_26"><g id="line2d_51"><g><use xlink:href="#m63c81a89f5" x="180" y="319.827" fill="#ffffff" stroke="#ffffff" stroke-width="0.6"/></g></g></g><g id="ytick_27"><g id="line2d_52"><g><use xlink:href="#m63c81a89f5" x="180" y="305.238" fill="#ffffff" stroke="#ffffff" stroke-width="0.6"/></g></g></g><g id="ytick_28"><g id="line2d_53"><g><use xlink:href="#m63c81a89f5" x="180" y="290.648" fill="#ffffff" stroke="#ffffff" stroke-width="0.6"/></g></g></g><g id="ytick_29"><g id="line2d_54"><g><use xlink:href="#m63c81a89f5" x="180" y="261.469" fill="#ffffff" stroke="#ffffff" stroke-width="0.6"/></g></g></g><g id="ytick_30"><g id="line2d_55"><g><use xlink:href="#m63c81a89f5" x="180" y="246.879" fill="#ffffff" stroke="#ffffff" stroke-width="0.6"/></g></g></g><g id="ytick_31"><g id="line2d_56"><g><use xlink:href="#m63c81a89f5" x="180" y="232.289" fill="#ffffff" stroke="#ffffff" stroke-width="0.6"/></g></g></g><g id="ytick_32"><g id="line2d_57"><g><use xlink:href="#m63c81a89f5" x="180" y="217.7" fill="#ffffff" stroke="#ffffff" stroke-width="0.6"/></g></g></g><g id="ytick_33"><g id="line2d_58"><g><use xlink:href="#m63c81a89f5" x="180" y="188.52" fill="#ffffff" stroke="#ffffff" stroke-width="0.6"/></g></g></g><g id="ytick_34"><g id="line2d_59"><g><use xlink:href="#m63c81a89f5" x="180" y="173.931" fill="#ffffff" stroke="#ffffff" stroke-width="0.6"/></g></g></g><g id="ytick_35"><g id="line2d_60"><g><use xlink:href="#m63c81a89f5" x="180" y="159.341" fill="#ffffff" stroke="#ffffff" stroke-width="0.6"/></g></g></g><g id="ytick_36"><g id="line2d_61"><g><use xlink:href="#m63c81a89f5" x="180" y="144.751" fill="#ffffff" stroke="#ffffff" stroke-width="0.6"/></g></g></g><g id="ytick_37"><g id="line2d_62"><g><use xlink:href="#m63c81a89f5" x="180" y="115.572" fill="#ffffff" stroke="#ffffff" stroke-width="0.6"/></g></g></g><g id="ytick_38"><g id="line2d_63"><g><use xlink:href="#m63c81a89f5" x="180" y="100.982" fill="#ffffff" stroke="#ffffff" stroke-width="0.6"/></g></g></g><g id="text_17"><g transform="translate(141.470313 384.51875) rotate(-90) scale(0.1 -0.1)" fill="#ffffff"><defs><path id="DejaVuSans-56" d="M 1831 0 L 50 4666 L 709 4666 L 2188 738 L 3669 4666 L 4325 4666 L 2547 0 L 1831 0 z" transform="scale(0.015625)"/><path id="DejaVuSans-74" d="M 1172 4494 L 1172 3500 L 2356 3500 L 2356 3053 L 1172 3053 L 1172 1153 Q 1172 725 1289 603 Q 1406 481 1766 481 L 2356 481 L 2356 0 L 1766 0 Q 1100 0 847 248 Q 594 497 594 1153 L 594 3053 L 172 3053 L 172 3500 L 594 3500 L 594 4494 L 1172 4494 z" transform="scale(0.015625)"/><path id="DejaVuSans-67" d="M 2906 1791 Q 2906 2416 2648 2759 Q 2391 3103 1925 3103 Q 1463 3103 1205 2759 Q 947 2416 947 1791 Q 947 1169 1205 825 Q 1463 481 1925 481 Q 2391 481 2648 825 Q 2906 1169 2906 1791 z M 3481 434 Q 3481 -459 3084 -895 Q 2688 -1331 1869 -1331 Q 1566 -1331 1297 -1286 Q 1028 -1241 775 -1147 L 775 -588 Q 1028 -725 1275 -790 Q 1522 -856 1778 -856 Q 2344 -856 2625 -561 Q 2906 -266 2906 331 L 2906 616 Q 2728 306 2450 153 Q 2172 0 1784 0 Q 1141 0 747 490 Q 353 981 353 1791 Q 353 2603 747 3093 Q 1141 3584 1784 3584 Q 2172 3584 2450 3431 Q 2728 3278 2906 2969 L 2906 3500 L 3481 3500 L 3481 434 z" transform="scale(0.015625)"/></defs><use xlink:href="#DejaVuSans-56"/><use xlink:href="#DejaVuSans-65" x="60.658"/><use xlink:href="#DejaVuSans-73" x="122.182"/><use xlink:href="#DejaVuSans-74" x="174.281"/><use xlink:href="#DejaVuSans-69" x="213.49"/><use xlink:href="#DejaVuSans-67" x="241.273"/><use xlink:href="#DejaVuSans-65" x="304.75"/><use xlink:href="#DejaVuSans-73" x="366.273"/></g></g></g><g id="patch_3"><path d="M 180 640.8 L 180 86.4" fill="none" stroke="#ffffff" stroke-width="0.8" stroke-linejoin="miter" stroke-linecap="square"/></g><g id="patch_4"><path d="M 1296 640.8 L 1296 86.4" fill="none" stroke="#ffffff" stroke-width="0.8" stroke-linejoin="miter" stroke-linecap="square"/></g><g id="patch_5"><path d="M 180 640.8 L 1296 640.8" fill="none" stroke="#ffffff" stroke-width="0.8" stroke-linejoin="miter" stroke-linecap="square"/></g><g id="patch_6"><path d="M 180 86.4 L 1296 86.4" fill="none" stroke="#ffffff" stroke-width="0.8" stroke-linejoin="miter" stroke-linecap="square"/></g><g id="text_18"><g transform="translate(682.681875 80.4) scale(0.12 -0.12)" fill="#ffffff"><defs><path id="DejaVuSans-53" d="M 3425 4513 L 3425 3897 Q 3066 4069 2747 4153 Q 2428 4238 2131 4238 Q 1616 4238 1336 4038 Q 1056 3838 1056 3469 Q 1056 3159 1242 3001 Q 1428 2844 1947 2747 L 2328 2669 Q 3034 2534 3370 2195 Q 3706 1856 3706 1288 Q 3706 609 3251 259 Q 2797 -91 1919 -91 Q 1588 -91 1214 -16 Q 841 59 441 206 L 441 856 Q 825 641 1194 531 Q 1563 422 1919 422 Q 2459 422 2753 634 Q 3047 847 3047 1241 Q 3047 1584 2836 1778 Q 2625 1972 2144 2069 L 1759 2144 Q 1053 2284 737 2584 Q 422 2884 422 3419 Q 422 4038 858 4394 Q 1294 4750 2059 4750 Q 2388 4750 2728 4690 Q 3069 4631 3425 4513 z" transform="scale(0.015625)"/><path id="DejaVuSans-6c" d="M 603 4863 L 1178 4863 L 1178 0 L 603 0 L 603 4863 z" transform="scale(0.015625)"/><path id="DejaVuSans-75" d="M 544 1381 L 544 3500 L 1119 3500 L 1119 1403 Q 1119 906 1312 657 Q 1506 409 1894 409 Q 2359 409 2629 706 Q 2900 1003 2900 1516 L 2900 3500 L 3475 3500 L 3475 0 L 2900 0 L 2900 538 Q 2691 219 2414 64 Q 2138 -91 1772 -91 Q 1169 -91 856 284 Q 544 659 544 1381 z M 1991 3584 L 1991 3584 z" transform="scale(0.015625)"/><path id="DejaVuSans-46" d="M 628 4666 L 3309 4666 L 3309 4134 L 1259 4134 L 1259 2759 L 3109 2759 L 3109 2228 L 1259 2228 L 1259 0 L 628 0 L 628 4666 z" transform="scale(0.015625)"/><path id="DejaVuSans-72" d="M 2631 2963 Q 2534 3019 2420 3045 Q 2306 3072 2169 3072 Q 1681 3072 1420 2755 Q 1159 2438 1159 1844 L 1159 0 L 581 0 L 581 3500 L 1159 3500 L 1159 2956 Q 1341 3275 1631 3429 Q 1922 3584 2338 3584 Q 2397 3584 2469 3576 Q 2541 3569 2628 3553 L 2631 2963 z" transform="scale(0.015625)"/><path id="DejaVuSans-71" d="M 947 1747 Q 947 1113 1208 752 Q 1469 391 1925 391 Q 2381 391 2643 752 Q 2906 1113 2906 1747 Q 2906 2381 2643 2742 Q 2381 3103 1925 3103 Q 1469 3103 1208 2742 Q 947 2381 947 1747 z M 2906 525 Q 2725 213 2448 61 Q 2172 -91 1784 -91 Q 1150 -91 751 415 Q 353 922 353 1747 Q 353 2572 751 3078 Q 1150 3584 1784 3584 Q 2172 3584 2448 3432 Q 2725 3281 2906 2969 L 2906 3500 L 3481 3500 L 3481 -1331 L 2906 -1331 L 2906 525 z" transform="scale(0.015625)"/></defs><use xlink:href="#DejaVuSans-53"/><use xlink:href="#DejaVuSans-6c" x="63.477"/><use xlink:href="#DejaVuSans-75" x="91.26"/><use xlink:href="#DejaVuSans-67" x="154.639"/><use xlink:href="#DejaVuSans-63" x="218.115"/><use xlink:href="#DejaVuSans-61" x="273.096"/><use xlink:href="#DejaVuSans-74" x="334.375"/><use xlink:href="#DejaVuSans-20" x="373.584"/><use xlink:href="#DejaVuSans-46" x="405.371"/><use xlink:href="#DejaVuSans-72" x="455.641"/><use xlink:href="#DejaVuSans-65" x="494.504"/><use xlink:href="#DejaVuSans-71" x="556.027"/><use xlink:href="#DejaVuSans-75" x="619.504"/><use xlink:href="#DejaVuSans-65" x="682.883"/><use xlink:href="#DejaVuSans-6e" x="744.406"/><use xlink:href="#DejaVuSans-63" x="807.785"/><use xlink:href="#DejaVuSans-79" x="862.766"/></g></g></g><g id="legend_1"><g id="patch_7"><path d="M 283.516406 715 L 1156.483594 715 Q 1158.483594 715 1158.483594 713 L 1158.483594 699.321875 Q 1158.483594 697.321875 1156.483594 697.321875 L 283.516406 697.321875 Q 281.516406 697.321875 281.516406 699.321875 L 281.516406 713 Q 281.516406 715 283.516406 715 z" opacity="0.8" stroke="#cccccc" stroke-linejoin="miter"/></g><g id="patch_8"><path d="M 285.516406 708.920313 L 305.516406 708.920313 L 305.516406 701.920313 L 285.516406 701.920313 z" fill="#0f0f0f"/></g><g id="text_19"><g transform="translate(313.516406 708.920313) scale(0.1 -0.1)" fill="#ffffff"><defs><path id="DejaVuSans-6f" d="M 1959 3097 Q 1497 3097 1228 2736 Q 959 2375 959 1747 Q 959 1119 1226 758 Q 1494 397 1959 397 Q 2419 397 2687 759 Q 2956 1122 2956 1747 Q 2956 2369 2687 2733 Q 2419 3097 1959 3097 z M 1959 3584 Q 2709 3584 3137 3096 Q 3566 2609 3566 1747 Q 3566 888 3137 398 Q 2709 -91 1959 -91 Q 1206 -91 779 398 Q 353 888 353 1747 Q 353 2609 779 3096 Q 1206 3584 1959 3584 z" transform="scale(0.015625)"/><path id="DejaVuSans-6d" d="M 3328 2828 Q 3544 3216 3844 3400 Q 4144 3584 4550 3584 Q 5097 3584 5394 3201 Q 5691 2819 5691 2113 L 5691 0 L 5113 0 L 5113 2094 Q 5113 2597 4934 2840 Q 4756 3084 4391 3084 Q 3944 3084 3684 2787 Q 3425 2491 3425 1978 L 3425 0 L 2847 0 L 2847 2094 Q 2847 2600 2669 2842 Q 2491 3084 2119 3084 Q 1678 3084 1418 2786 Q 1159 2488 1159 1978 L 1159 0 L 581 0 L 581 3500 L 1159 3500 L 1159 2956 Q 1356 3278 1631 3431 Q 1906 3584 2284 3584 Q 2666 3584 2933 3390 Q 3200 3197 3328 2828 z" transform="scale(0.015625)"/></defs><use xlink:href="#DejaVuSans-43"/><use xlink:href="#DejaVuSans-75" x="69.824"/><use xlink:href="#DejaVuSans-73" x="133.203"/><use xlink:href="#DejaVuSans-74" x="185.303"/><use xlink:href="#DejaVuSans-6f" x="224.512"/><use xlink:href="#DejaVuSans-6d" x="285.693"/><use xlink:href="#DejaVuSans-20" x="383.105"/><use xlink:href="#DejaVuSans-43" x="414.893"/><use xlink:href="#DejaVuSans-6f" x="484.717"/><use xlink:href="#DejaVuSans-6c" x="545.898"/><use xlink:href="#DejaVuSans-6f" x="573.682"/><use xlink:href="#DejaVuSans-75" x="634.863"/><use xlink:href="#DejaVuSans-72" x="698.242"/></g></g><g id="patch_9"><path d="M 407.450781 708.920313 L 427.450781 708.920313 L 427.450781 701.920313 L 407.450781 701.920313 z" fill="#ffffff"/></g><g id="text_20"><g transform="translate(435.450781 708.920313) scale(0.1 -0.1)" fill="#ffffff"><defs><path id="DejaVuSans-76" d="M 191 3500 L 800 3500 L 1894 563 L 2988 3500 L 3597 3500 L 2284 0 L 1503 0 L 191 3500 z" transform="scale(0.015625)"/></defs><use xlink:href="#DejaVuSans-53"/><use xlink:href="#DejaVuSans-75" x="63.477"/><use xlink:href="#DejaVuSans-72" x="126.855"/><use xlink:href="#DejaVuSans-76" x="167.969"/><use xlink:href="#DejaVuSans-69" x="227.148"/><use xlink:href="#DejaVuSans-76" x="254.932"/><use xlink:href="#DejaVuSans-6f" x="314.111"/><use xlink:href="#DejaVuSans-72" x="375.293"/></g></g><g id="patch_10"><path d="M 497.092969 708.920313 L 517.092969 708.920313 L 517.092969 701.920313 L 497.092969 701.920313 z" fill="#ff7373"/></g><g id="text_21"><g transform="translate(525.092969 708.920313) scale(0.1 -0.1)" fill="#ffffff"><defs><path id="DejaVuSans-48" d="M 628 4666 L 1259 4666 L 1259 2753 L 3553 2753 L 3553 4666 L 4184 4666 L 4184 0 L 3553 0 L 3553 2222 L 1259 2222 L 1259 0 L 628 0 L 628 4666 z" transform="scale(0.015625)"/></defs><use xlink:href="#DejaVuSans-48"/><use xlink:href="#DejaVuSans-75" x="75.195"/><use xlink:href="#DejaVuSans-6e" x="138.574"/><use xlink:href="#DejaVuSans-74" x="201.953"/><use xlink:href="#DejaVuSans-65" x="241.162"/><use xlink:href="#DejaVuSans-72" x="302.686"/></g></g><g id="patch_11"><path d="M 579.472656 708.920313 L 599.472656 708.920313 L 599.472656 701.920313 L 579.472656 701.920313 z" fill="#4f2d68"/></g><g id="text_22"><g transform="translate(607.472656 708.920313) scale(0.1 -0.1)" fill="#ffffff"><defs><path id="DejaVuSans-70" d="M 1159 525 L 1159 -1331 L 581 -1331 L 581 3500 L 1159 3500 L 1159 2969 Q 1341 3281 1617 3432 Q 1894 3584 2278 3584 Q 2916 3584 3314 3078 Q 3713 2572 3713 1747 Q 3713 922 3314 415 Q 2916 -91 2278 -91 Q 1894 -91 1617 61 Q 1341 213 1159 525 z M 3116 1747 Q 3116 2381 2855 2742 Q 2594 3103 2138 3103 Q 1681 3103 1420 2742 Q 1159 2381 1159 1747 Q 1159 1113 1420 752 Q 1681 391 2138 391 Q 2594 391 2855 752 Q 3116 1113 3116 1747 z" transform="scale(0.015625)"/></defs><use xlink:href="#DejaVuSans-53"/><use xlink:href="#DejaVuSans-70" x="63.477"/><use xlink:href="#DejaVuSans-65" x="126.953"/><use xlink:href="#DejaVuSans-61" x="188.477"/><use xlink:href="#DejaVuSans-72" x="249.756"/><use xlink:href="#DejaVuSans-6d" x="289.119"/><use xlink:href="#DejaVuSans-61" x="386.531"/><use xlink:href="#DejaVuSans-73" x="447.811"/><use xlink:href="#DejaVuSans-74" x="499.91"/><use xlink:href="#DejaVuSans-65" x="539.119"/><use xlink:href="#DejaVuSans-72" x="600.643"/></g></g><g id="patch_12"><path d="M 691.649219 708.920313 L 711.649219 708.920313 L 711.649219 701.920313 L 691.649219 701.920313 z" fill="#ffff73"/></g><g id="text_23"><g transform="translate(719.649219 708.920313) scale(0.1 -0.1)" fill="#ffffff"><defs><path id="DejaVuSans-4d" d="M 628 4666 L 1569 4666 L 2759 1491 L 3956 4666 L 4897 4666 L 4897 0 L 4281 0 L 4281 4097 L 3078 897 L 2444 897 L 1241 4097 L 1241 0 L 628 0 L 628 4666 z" transform="scale(0.015625)"/><path id="DejaVuSans-6b" d="M 581 4863 L 1159 4863 L 1159 1991 L 2875 3500 L 3609 3500 L 1753 1863 L 3688 0 L 2938 0 L 1159 1709 L 1159 0 L 581 0 L 581 4863 z" transform="scale(0.015625)"/></defs><use xlink:href="#DejaVuSans-4d"/><use xlink:href="#DejaVuSans-6f" x="86.279"/><use xlink:href="#DejaVuSans-6e" x="147.461"/><use xlink:href="#DejaVuSans-6b" x="210.84"/></g></g><g id="patch_13"><path d="M 766.524219 708.920313 L 786.524219 708.920313 L 786.524219 701.920313 L 766.524219 701.920313 z" fill="#70223b"/></g><g id="text_24"><g transform="translate(794.524219 708.920313) scale(0.1 -0.1)" fill="#ffffff"><defs><path id="DejaVuSans-41" d="M 2188 4044 L 1331 1722 L 3047 1722 L 2188 4044 z M 1831 4666 L 2547 4666 L 4325 0 L 3669 0 L 3244 1197 L 1141 1197 L 716 0 L 50 0 L 1831 4666 z" transform="scale(0.015625)"/><path id="DejaVuSans-66" d="M 2375 4863 L 2375 4384 L 1825 4384 Q 1516 4384 1395 4259 Q 1275 4134 1275 3809 L 1275 3500 L 2222 3500 L 2222 3053 L 1275 3053 L 1275 0 L 697 0 L 697 3053 L 147 3053 L 147 3500 L 697 3500 L 697 3744 Q 697 4328 969 4595 Q 1241 4863 1831 4863 L 2375 4863 z" transform="scale(0.015625)"/></defs><use xlink:href="#DejaVuSans-41"/><use xlink:href="#DejaVuSans-72" x="68.408"/><use xlink:href="#DejaVuSans-74" x="109.521"/><use xlink:href="#DejaVuSans-69" x="148.73"/><use xlink:href="#DejaVuSans-66" x="176.514"/><use xlink:href="#DejaVuSans-69" x="211.719"/><use xlink:href="#DejaVuSans-63" x="239.502"/><use xlink:href="#DejaVuSans-65" x="294.482"/><use xlink:href="#DejaVuSans-72" x="356.006"/></g></g><g id="patch_14"><path d="M 854.235156 708.920313 L 874.235156 708.920313 L 874.235156 701.920313 L 854.235156 701.920313 z" fill="#91ccf0"/></g><g id="text_25"><g transform="translate(882.235156 708.920313) scale(0.1 -0.1)" fill="#ffffff"><defs><path id="DejaVuSans-52" d="M 2841 2188 Q 3044 2119 3236 1894 Q 3428 1669 3622 1275 L 4263 0 L 3584 0 L 2988 1197 Q 2756 1666 2539 1819 Q 2322 1972 1947 1972 L 1259 1972 L 1259 0 L 628 0 L 628 4666 L 2053 4666 Q 2853 4666 3247 4331 Q 3641 3997 3641 3322 Q 3641 2881 3436 2590 Q 3231 2300 2841 2188 z M 1259 4147 L 1259 2491 L 2053 2491 Q 2509 2491 2742 2702 Q 2975 2913 2975 3322 Q 2975 3731 2742 3939 Q 2509 4147 2053 4147 L 1259 4147 z" transform="scale(0.015625)"/></defs><use xlink:href="#DejaVuSans-52"/><use xlink:href="#DejaVuSans-69" x="69.482"/><use xlink:href="#DejaVuSans-76" x="97.266"/><use xlink:href="#DejaVuSans-75" x="156.445"/><use xlink:href="#DejaVuSans-6c" x="219.824"/><use xlink:href="#DejaVuSans-65" x="247.607"/><use xlink:href="#DejaVuSans-74" x="309.131"/></g></g><g id="patch_15"><path d="M 937.069531 708.920313 L 957.069531 708.920313 L 957.069531 701.920313 L 937.069531 701.920313 z" fill="#aaf155"/></g><g id="text_26"><g transform="translate(965.069531 708.920313) scale(0.1 -0.1)" fill="#ffffff"><use xlink:href="#DejaVuSans-53"/><use xlink:href="#DejaVuSans-61" x="63.477"/><use xlink:href="#DejaVuSans-69" x="124.756"/><use xlink:href="#DejaVuSans-6e" x="152.539"/><use xlink:href="#DejaVuSans-74" x="215.918"/></g></g><g id="patch_16"><path d="M 1010.582031 708.920313 L 1030.582031 708.920313 L 1030.582031 701.920313 L 1010.582031 701.920313 z" fill="#f0c097"/></g><g id="text_27"><g transform="translate(1038.582031 708.920313) scale(0.1 -0.1)" fill="#ffffff"><defs><path id="DejaVuSans-47" d="M 3809 666 L 3809 1919 L 2778 1919 L 2778 2438 L 4434 2438 L 4434 434 Q 4069 175 3628 42 Q 3188 -91 2688 -91 Q 1594 -91 976 548 Q 359 1188 359 2328 Q 359 3472 976 4111 Q 1594 4750 2688 4750 Q 3144 4750 3555 4637 Q 3966 4525 4313 4306 L 4313 3634 Q 3963 3931 3569 4081 Q 3175 4231 2741 4231 Q 1884 4231 1454 3753 Q 1025 3275 1025 2328 Q 1025 1384 1454 906 Q 1884 428 2741 428 Q 3075 428 3337 486 Q 3600 544 3809 666 z" transform="scale(0.015625)"/><path id="DejaVuSans-64" d="M 2906 2969 L 2906 4863 L 3481 4863 L 3481 0 L 2906 0 L 2906 525 Q 2725 213 2448 61 Q 2172 -91 1784 -91 Q 1150 -91 751 415 Q 353 922 353 1747 Q 353 2572 751 3078 Q 1150 3584 1784 3584 Q 2172 3584 2448 3432 Q 2725 3281 2906 2969 z M 947 1747 Q 947 1113 1208 752 Q 1469 391 1925 391 Q 2381 391 2643 752 Q 2906 1113 2906 1747 Q 2906 2381 2643 2742 Q 2381 3103 1925 3103 Q 1469 3103 1208 2742 Q 947 2381 947 1747 z" transform="scale(0.015625)"/></defs><use xlink:href="#DejaVuSans-47"/><use xlink:href="#DejaVuSans-6f" x="77.49"/><use xlink:href="#DejaVuSans-75" x="138.672"/><use xlink:href="#DejaVuSans-72" x="202.051"/><use xlink:href="#DejaVuSans-6d" x="241.414"/><use xlink:href="#DejaVuSans-61" x="338.826"/><use xlink:href="#DejaVuSans-6e" x="400.105"/><use xlink:href="#DejaVuSans-64" x="463.484"/></g></g><g id="patch_17"><path d="M 1111.277344 708.920313 L 1131.277344 708.920313 L 1131.277344 701.920313 L 1111.277344 701.920313 z" fill="#16234f"/></g><g id="text_28"><g transform="translate(1139.277344 708.920313) scale(0.1 -0.1)" fill="#ffffff"><defs><path id="DejaVuSans-49" d="M 628 4666 L 1259 4666 L 1259 0 L 628 0 L 628 4666 z" transform="scale(0.015625)"/></defs><use xlink:href="#DejaVuSans-49"/><use xlink:href="#DejaVuSans-6e" x="29.492"/><use xlink:href="#DejaVuSans-76" x="92.871"/></g></g></g></g><defs><clipPath id="p91931af4f3"><rect x="180" y="86.4" width="1116" height="554.4"/></clipPath></defs></svg>