<?xml version="1.0"?>
<svg xmlns="http://www.w3.org/2000/svg" xmlns:xlink="http://www.w3.org/1999/xlink" class="plot-d6a7b5" fill="currentColor" font-family="system-ui, sans-serif" font-size="10" text-anchor="middle" width="830" height="470" viewBox="0 0 830 470" color="#1e90ff">
  <style>:where(.plot-d6a7b5){--plot-background: white;display:block;height:intrinsic;max-width:100%}:where(.plot-d6a7b5 text),:where(.plot-d6a7b5 tspan){white-space:pre}</style>
  <g aria-label="y-grid" aria-hidden="true" stroke="currentColor" stroke-opacity=".1">
    <line x1="60" x2="770" y1="410" y2="410"/>
    <line x1="60" x2="770" y1="384.798" y2="384.798"/>
    <line x1="60" x2="770" y1="359.596" y2="359.596"/>
    <line x1="60" x2="770" y1="334.395" y2="334.395"/>
    <line x1="60" x2="770" y1="309.193" y2="309.193"/>
    <line x1="60" x2="770" y1="283.991" y2="283.991"/>
    <line x1="60" x2="770" y1="258.789" y2="258.789"/>
    <line x1="60" x2="770" y1="233.588" y2="233.588"/>
    <line x1="60" x2="770" y1="208.386" y2="208.386"/>
    <line x1="60" x2="770" y1="183.184" y2="183.184"/>
    <line x1="60" x2="770" y1="157.982" y2="157.982"/>
    <line x1="60" x2="770" y1="132.781" y2="132.781"/>
    <line x1="60" x2="770" y1="107.579" y2="107.579"/>
    <line x1="60" x2="770" y1="82.377" y2="82.377"/>
  </g>
  <g aria-label="y-axis tick" aria-hidden="true" fill="none" stroke="currentColor">
    <path transform="translate(60,410)" d="M0,0L-6,0"/>
    <path transform="translate(60,384.7982419253567)" d="M0,0L-6,0"/>
    <path transform="translate(60,359.5964838507134)" d="M0,0L-6,0"/>
    <path transform="translate(60,334.3947257760701)" d="M0,0L-6,0"/>
    <path transform="translate(60,309.1929677014268)" d="M0,0L-6,0"/>
    <path transform="translate(60,283.99120962678353)" d="M0,0L-6,0"/>
    <path transform="translate(60,258.7894515521403)" d="M0,0L-6,0"/>
    <path transform="translate(60,233.587693477497)" d="M0,0L-6,0"/>
    <path transform="translate(60,208.38593540285373)" d="M0,0L-6,0"/>
    <path transform="translate(60,183.1841773282104)" d="M0,0L-6,0"/>
    <path transform="translate(60,157.98241925356712)" d="M0,0L-6,0"/>
    <path transform="translate(60,132.78066117892385)" d="M0,0L-6,0"/>
    <path transform="translate(60,107.57890310428056)" d="M0,0L-6,0"/>
    <path transform="translate(60,82.37714502963728)" d="M0,0L-6,0"/>
  </g>
  <g aria-label="y-axis tick label" text-anchor="end" font-variant="tabular-nums">
    <text y=".32em" transform="translate(-9,0) translate(60,410)">0</text>
    <text y=".32em" transform="translate(-9,0) translate(60,384.7982419253567)">50,000</text>
    <text y=".32em" transform="translate(-9,0) translate(60,359.5964838507134)">100,000</text>
    <text y=".32em" transform="translate(-9,0) translate(60,334.3947257760701)">150,000</text>
    <text y=".32em" transform="translate(-9,0) translate(60,309.1929677014268)">200,000</text>
    <text y=".32em" transform="translate(-9,0) translate(60,283.99120962678353)">250,000</text>
    <text y=".32em" transform="translate(-9,0) translate(60,258.7894515521403)">300,000</text>
    <text y=".32em" transform="translate(-9,0) translate(60,233.587693477497)">350,000</text>
    <text y=".32em" transform="translate(-9,0) translate(60,208.38593540285373)">400,000</text>
    <text y=".32em" transform="translate(-9,0) translate(60,183.1841773282104)">450,000</text>
    <text y=".32em" transform="translate(-9,0) translate(60,157.98241925356712)">500,000</text>
    <text y=".32em" transform="translate(-9,0) translate(60,132.78066117892385)">550,000</text>
    <text y=".32em" transform="translate(-9,0) translate(60,107.57890310428056)">600,000</text>
    <text y=".32em" transform="translate(-9,0) translate(60,82.37714502963728)">650,000</text>
  </g>
  <g aria-label="y-axis label" text-anchor="start">
    <text y=".71em" transform="translate(-57,-57) translate(60,60)">&#x2191; Total Vestiges</text>
  </g>
  <g aria-label="x-axis tick" aria-hidden="true" fill="none" stroke="currentColor">
    <path transform="translate(84.76744186046511,410)" d="M0,0L0,6"/>
    <path transform="translate(151.05677154582762,410)" d="M0,0L0,6"/>
    <path transform="translate(218.07455540355676,410)" d="M0,0L0,6"/>
    <path transform="translate(285.0923392612859,410)" d="M0,0L0,6"/>
    <path transform="translate(351.38166894664846,410)" d="M0,0L0,6"/>
    <path transform="translate(417.6709986320109,410)" d="M0,0L0,6"/>
    <path transform="translate(484.6887824897401,410)" d="M0,0L0,6"/>
    <path transform="translate(551.7065663474692,410)" d="M0,0L0,6"/>
    <path transform="translate(617.267441860465,410)" d="M0,0L0,6"/>
    <path transform="translate(683.5567715458276,410)" d="M0,0L0,6"/>
    <path transform="translate(750.5745554035567,410)" d="M0,0L0,6"/>
  </g>
  <g aria-label="x-axis tick label" font-variant="tabular-nums">
    <text transform="translate(0,9) translate(84.76744186046511,410)">
      <tspan x="0" y=".71em">Apr</tspan>
      <tspan x="0" dy="1em">2023</tspan>
    </text>
    <text y=".71em" transform="translate(0,9) translate(151.05677154582762,410)">Jul</text>
    <text y=".71em" transform="translate(0,9) translate(218.07455540355676,410)">Oct</text>
    <text transform="translate(0,9) translate(285.0923392612859,410)">
      <tspan x="0" y=".71em">Jan</tspan>
      <tspan x="0" dy="1em">2024</tspan>
    </text>
    <text y=".71em" transform="translate(0,9) translate(351.38166894664846,410)">Apr</text>
    <text y=".71em" transform="translate(0,9) translate(417.6709986320109,410)">Jul</text>
    <text y=".71em" transform="translate(0,9) translate(484.6887824897401,410)">Oct</text>
    <text transform="translate(0,9) translate(551.7065663474692,410)">
      <tspan x="0" y=".71em">Jan</tspan>
      <tspan x="0" dy="1em">2025</tspan>
    </text>
    <text y=".71em" transform="translate(0,9) translate(617.267441860465,410)">Apr</text>
    <text y=".71em" transform="translate(0,9) translate(683.5567715458276,410)">Jul</text>
    <text y=".71em" transform="translate(0,9) translate(750.5745554035567,410)">Oct</text>
  </g>
  <g aria-label="line" fill="none" stroke="currentColor" stroke-width="1.5" stroke-linejoin="round" stroke-linecap="round">
    <path d="M60,
410.00L
60.49,
409.75L
60.97,
408.82L
61.46,
408.32L
61.94,
407.97L
62.43,
407.39L
62.91,
406.93L
63.40,
406.49L
63.89,
405.62L
64.37,
404.93L
64.86,
404.11L
65.34,
402.85L
65.83,
401.65L
66.31,
401.03L
66.80,
400.13L
67.29,
399.52L
67.77,
398.82L
68.26,
397.90L
68.74,
397.29L
69.23,
396.68L
69.71,
395.87L
70.20,
394.96L
70.68,
394.31L
71.17,
393.21L
71.66,
392.69L
72.14,
392.21L
72.63,
391.33L
73.11,
390.50L
73.60,
389.85L
74.08,
388.95L
74.57,
388.05L
75.06,
387.24L
75.54,
385.97L
76.03,
384.97L
76.51,
384.39L
77.00,
383.78L
77.48,
383.32L
77.97,
382.96L
78.45,
382.27L
78.94,
381.60L
79.43,
381.14L
79.91,
380.06L
80.40,
378.93L
80.88,
377.92L
81.37,
376.70L
81.85,
375.87L
82.34,
375.16L
82.83,
374.20L
83.31,
373.39L
83.80,
372.81L
84.28,
371.76L
84.77,
370.75L
85.25,
369.80L
85.74,
368.44L
86.22,
367.15L
86.71,
366.48L
87.20,
365.48L
87.68,
364.58L
88.17,
363.78L
88.65,
362.64L
89.14,
361.57L
89.62,
360.64L
90.11,
359.52L
90.60,
358.45L
91.08,
357.53L
91.57,
356.29L
92.05,
355.52L
92.54,
354.83L
93.02,
353.87L
93.51,
353.09L
94.00,
352.50L
94.48,
351.74L
94.97,
350.92L
95.45,
350.16L
95.94,
349.16L
96.42,
348.17L
96.91,
347.60L
97.39,
346.82L
97.88,
346.20L
98.37,
345.80L
98.85,
345.18L
99.34,
344.56L
99.82,
343.90L
100.31,
343.05L
100.79,
342.18L
101.28,
341.50L
101.77,
340.57L
102.25,
339.91L
102.74,
339.48L
103.22,
338.49L
103.71,
337.81L
104.19,
337.44L
104.68,
336.82L
105.16,
336.22L
105.65,
335.60L
106.14,
334.75L
106.62,
334.01L
107.11,
333.37L
107.59,
332.81L
108.08,
332.32L
108.56,
331.85L
109.05,
331.07L
109.54,
330.63L
110.02,
330.18L
110.51,
329.46L
110.99,
328.63L
111.48,
327.99L
111.96,
327.15L
112.45,
326.59L
112.93,
326.07L
113.42,
325.32L
113.91,
324.80L
114.39,
324.31L
114.88,
323.65L
115.36,
323.14L
115.85,
322.52L
116.33,
321.86L
116.82,
321.27L
117.31,
320.77L
117.79,
320.26L
118.28,
319.80L
118.76,
319.38L
119.25,
318.78L
119.73,
318.32L
120.22,
317.91L
120.71,
317.23L
121.19,
316.35L
121.68,
315.70L
122.16,
314.87L
122.65,
314.36L
123.13,
313.79L
123.62,
313.20L
124.10,
312.65L
124.59,
312.27L
125.08,
311.52L
125.56,
310.92L
126.05,
310.30L
126.53,
309.39L
127.02,
308.73L
127.50,
308.15L
127.99,
307.55L
128.48,
306.90L
128.96,
306.40L
129.45,
305.90L
129.93,
305.25L
130.42,
304.87L
130.90,
304.36L
131.39,
303.90L
131.87,
303.47L
132.36,
302.86L
132.85,
302.42L
133.33,
301.96L
133.82,
301.34L
134.30,
300.90L
134.79,
300.50L
135.27,
300.06L
135.76,
299.54L
136.25,
299.06L
136.73,
298.55L
137.22,
298.00L
137.70,
297.57L
138.19,
297.04L
138.67,
296.60L
139.16,
296.15L
139.64,
295.54L
140.13,
295.03L
140.62,
294.63L
141.10,
294.10L
141.59,
293.60L
142.07,
293.24L
142.56,
292.61L
143.04,
292.14L
143.53,
291.65L
144.01,
291.10L
144.50,
290.64L
144.99,
290.36L
145.47,
289.86L
145.96,
289.45L
146.44,
288.96L
146.93,
288.37L
147.42,
287.91L
147.90,
287.40L
148.39,
286.84L
148.87,
286.33L
149.36,
285.88L
149.84,
285.15L
150.33,
284.56L
150.81,
284.22L
151.30,
283.67L
151.79,
283.19L
152.27,
282.89L
152.76,
282.38L
153.24,
282.04L
153.73,
281.64L
154.21,
281.16L
154.70,
280.71L
155.19,
280.35L
155.67,
279.79L
156.16,
279.38L
156.64,
279.00L
157.13,
278.48L
157.61,
278.01L
158.10,
277.64L
158.58,
277.07L
159.07,
276.71L
159.56,
276.29L
160.04,
275.77L
160.53,
275.35L
161.01,
274.87L
161.50,
274.32L
161.98,
273.83L
162.47,
273.42L
162.96,
272.95L
163.44,
272.40L
163.93,
271.97L
164.41,
271.56L
164.90,
271.13L
165.38,
270.80L
165.87,
270.24L
166.35,
269.89L
166.84,
269.50L
167.33,
269.00L
167.81,
268.60L
168.30,
268.12L
168.78,
267.48L
169.27,
267.00L
169.75,
266.71L
170.24,
266.06L
170.73,
265.57L
171.21,
265.14L
171.70,
264.55L
172.18,
264.14L
172.67,
263.71L
173.15,
263.21L
173.64,
262.70L
174.12,
262.26L
174.61,
261.61L
175.10,
261.12L
175.58,
260.68L
176.07,
260.14L
176.55,
259.56L
177.04,
258.96L
177.52,
258.07L
178.01,
257.53L
178.50,
257.13L
178.98,
256.58L
179.47,
256.14L
179.95,
255.82L
180.44,
255.32L
180.92,
254.88L
181.41,
254.57L
181.90,
254.06L
182.38,
253.61L
182.87,
253.27L
183.35,
252.74L
183.84,
252.25L
184.32,
251.87L
184.81,
251.37L
185.29,
250.75L
185.78,
250.22L
186.27,
249.57L
186.75,
249.11L
187.24,
248.66L
187.72,
248.00L
188.21,
247.50L
188.69,
247.04L
189.18,
246.48L
189.67,
246.03L
190.15,
245.72L
190.64,
245.27L
191.12,
244.94L
191.61,
244.57L
192.09,
244.13L
192.58,
243.68L
193.06,
243.27L
193.55,
242.85L
194.04,
242.42L
194.52,
242.06L
195.01,
241.66L
195.49,
241.26L
195.98,
240.93L
196.46,
240.54L
196.95,
240.14L
197.44,
239.71L
197.92,
239.19L
198.41,
238.82L
198.89,
238.42L
199.38,
238.01L
199.86,
237.70L
200.35,
237.37L
200.83,
237.03L
201.32,
236.82L
201.81,
236.56L
202.29,
235.97L
202.78,
235.57L
203.26,
235.19L
203.75,
234.67L
204.23,
234.45L
204.72,
234.16L
205.21,
233.89L
205.69,
233.67L
206.18,
233.34L
206.66,
233.01L
207.15,
232.62L
207.63,
232.22L
208.12,
231.57L
208.61,
231.03L
209.09,
230.73L
209.58,
230.34L
210.06,
230.06L
210.55,
229.74L
211.03,
229.36L
211.52,
229.02L
212.00,
228.75L
212.49,
228.33L
212.98,
227.88L
213.46,
227.54L
213.95,
227.08L
214.43,
226.85L
214.92,
226.62L
215.40,
226.31L
215.89,
226.03L
216.38,
225.77L
216.86,
225.35L
217.35,
225.00L
217.83,
224.64L
218.32,
224.16L
218.80,
223.80L
219.29,
223.61L
219.77,
223.25L
220.26,
222.99L
220.75,
222.76L
221.23,
222.46L
221.72,
222.17L
222.20,
221.83L
222.69,
221.39L
223.17,
220.92L
223.66,
220.45L
224.15,
219.96L
224.63,
219.60L
225.12,
219.33L
225.60,
219.00L
226.09,
218.72L
226.57,
218.42L
227.06,
218.01L
227.54,
217.74L
228.03,
217.48L
228.52,
216.91L
229.00,
216.42L
229.49,
216.12L
229.97,
215.81L
230.46,
215.59L
230.94,
215.42L
231.43,
215.05L
231.92,
214.80L
232.40,
214.56L
232.89,
214.08L
233.37,
213.57L
233.86,
213.18L
234.34,
212.66L
234.83,
212.39L
235.32,
212.14L
235.80,
211.70L
236.29,
211.42L
236.77,
211.15L
237.26,
210.77L
237.74,
210.36L
238.23,
210.10L
238.71,
209.67L
239.20,
209.40L
239.69,
209.22L
240.17,
208.84L
240.66,
208.58L
241.14,
208.42L
241.63,
208.19L
242.11,
207.94L
242.60,
207.54L
243.09,
207.07L
243.57,
206.59L
244.06,
206.27L
244.54,
205.95L
245.03,
205.77L
245.51,
205.50L
246.00,
205.17L
246.48,
204.99L
246.97,
204.81L
247.46,
204.49L
247.94,
204.29L
248.43,
204.02L
248.91,
203.73L
249.40,
203.46L
249.88,
203.29L
250.37,
203.06L
250.86,
202.93L
251.34,
202.75L
251.83,
202.51L
252.31,
202.35L
252.80,
202.24L
253.28,
201.86L
253.77,
201.49L
254.25,
201.12L
254.74,
200.76L
255.23,
200.48L
255.71,
200.31L
256.20,
200.03L
256.68,
199.86L
257.17,
199.61L
257.65,
199.26L
258.14,
198.97L
258.63,
198.72L
259.11,
198.34L
259.60,
198.07L
260.08,
197.81L
260.57,
197.50L
261.05,
197.25L
261.54,
196.96L
262.02,
196.54L
262.51,
196.29L
263.00,
196.05L
263.48,
195.80L
263.97,
195.52L
264.45,
195.24L
264.94,
194.93L
265.42,
194.75L
265.91,
194.64L
266.40,
194.37L
266.88,
194.15L
267.37,
193.98L
267.85,
193.77L
268.34,
193.58L
268.82,
193.42L
269.31,
193.18L
269.80,
192.96L
270.28,
192.83L
270.77,
192.55L
271.25,
192.28L
271.74,
192.16L
272.22,
191.99L
272.71,
191.85L
273.19,
191.71L
273.68,
191.43L
274.17,
191.14L
274.65,
190.94L
275.14,
190.75L
275.62,
190.55L
276.11,
190.30L
276.59,
190.10L
277.08,
189.96L
277.57,
189.80L
278.05,
189.52L
278.54,
189.35L
279.02,
189.14L
279.51,
188.78L
279.99,
188.50L
280.48,
188.35L
280.96,
188.13L
281.45,
187.83L
281.94,
187.60L
282.42,
187.29L
282.91,
187.06L
283.39,
186.81L
283.88,
186.50L
284.36,
186.27L
284.85,
186.05L
285.33,
185.77L
285.82,
185.53L
286.31,
185.32L
286.79,
184.98L
287.28,
184.77L
287.76,
184.62L
288.25,
184.29L
288.74,
184.17L
289.22,
183.97L
289.71,
183.65L
290.19,
183.48L
290.68,
183.29L
291.16,
183.05L
291.65,
182.90L
292.13,
182.75L
292.62,
182.60L
293.11,
182.49L
293.59,
182.28L
294.08,
182.00L
294.56,
181.74L
295.05,
181.43L
295.53,
181.05L
296.02,
180.88L
296.51,
180.67L
296.99,
180.47L
297.48,
180.20L
297.96,
179.89L
298.45,
179.67L
298.93,
179.50L
299.42,
179.23L
299.90,
178.91L
300.39,
178.46L
300.88,
178.18L
301.36,
177.84L
301.85,
177.64L
302.33,
177.46L
302.82,
177.21L
303.30,
177.11L
303.79,
176.95L
304.27,
176.56L
304.76,
176.14L
305.25,
175.82L
305.73,
175.39L
306.22,
175.14L
306.70,
174.94L
307.19,
174.69L
307.67,
174.44L
308.16,
174.24L
308.65,
173.91L
309.13,
173.72L
309.62,
173.39L
310.10,
172.91L
310.59,
172.57L
311.07,
172.32L
311.56,
171.96L
312.05,
171.71L
312.53,
171.54L
313.02,
171.16L
313.50,
170.86L
313.99,
170.52L
314.47,
170.19L
314.96,
169.81L
315.45,
169.29L
315.93,
168.73L
316.42,
168.43L
316.90,
168.11L
317.39,
167.65L
317.87,
167.33L
318.36,
167.10L
318.84,
166.79L
319.33,
166.54L
319.82,
166.28L
320.30,
165.86L
320.79,
165.50L
321.27,
165.35L
321.76,
165.03L
322.24,
164.75L
322.73,
164.43L
323.21,
164.12L
323.70,
163.93L
324.19,
163.65L
324.67,
163.24L
325.16,
162.85L
325.64,
162.60L
326.13,
162.21L
326.61,
162.01L
327.10,
161.76L
327.58,
161.48L
328.07,
161.29L
328.56,
161.07L
329.04,
160.78L
329.53,
160.55L
330.01,
160.32L
330.50,
159.89L
330.99,
159.65L
331.47,
159.44L
331.96,
159.26L
332.44,
159.08L
332.93,
158.85L
333.41,
158.64L
333.90,
158.51L
334.38,
158.35L
334.87,
158.00L
335.36,
157.78L
335.84,
157.62L
336.33,
157.29L
336.81,
157.07L
337.30,
156.97L
337.78,
156.77L
338.27,
156.51L
338.76,
156.32L
339.24,
156.05L
339.73,
155.77L
340.21,
155.49L
340.70,
155.07L
341.18,
154.77L
341.67,
154.58L
342.16,
154.55L
342.64,
154.54L
343.13,
154.54L
343.61,
154.54L
344.10,
154.54L
344.58,
154.53L
345.07,
154.53L
345.55,
154.50L
346.04,
154.49L
346.53,
154.48L
347.01,
154.45L
347.50,
154.40L
347.98,
154.37L
348.47,
154.33L
348.95,
154.25L
349.44,
154.15L
349.93,
153.88L
350.41,
153.70L
350.90,
153.54L
351.38,
153.38L
351.87,
153.24L
352.35,
153.07L
352.84,
152.86L
353.32,
152.68L
353.81,
152.45L
354.30,
152.22L
354.78,
152.01L
355.27,
151.77L
355.75,
151.58L
356.24,
151.43L
356.72,
151.22L
357.21,
151.00L
357.70,
150.90L
358.18,
150.75L
358.67,
150.53L
359.15,
150.41L
359.64,
150.28L
360.12,
150.09L
360.61,
149.94L
361.09,
149.72L
361.58,
149.53L
362.07,
149.42L
362.55,
149.25L
363.04,
149.11L
363.52,
148.97L
364.01,
148.87L
364.49,
148.75L
364.98,
148.68L
365.47,
148.56L
365.95,
148.42L
366.44,
148.25L
366.92,
148.01L
367.41,
147.85L
367.89,
147.75L
368.38,
147.54L
368.87,
147.38L
369.35,
147.23L
369.84,
147.08L
370.32,
146.87L
370.81,
146.72L
371.29,
146.51L
371.78,
146.37L
372.26,
146.27L
372.75,
146.10L
373.24,
145.92L
373.72,
145.73L
374.21,
145.60L
374.69,
145.43L
375.18,
145.29L
375.66,
145.10L
376.15,
144.84L
376.64,
144.65L
377.12,
144.40L
377.61,
144.26L
378.09,
144.14L
378.58,
143.96L
379.06,
143.79L
379.55,
143.65L
380.03,
143.46L
380.52,
143.24L
381.01,
143.10L
381.49,
142.86L
381.98,
142.64L
382.46,
142.47L
382.95,
142.22L
383.43,
142.07L
383.92,
141.96L
384.41,
141.87L
384.89,
141.74L
385.38,
141.59L
385.86,
141.42L
386.35,
141.06L
386.83,
140.88L
387.32,
140.61L
387.80,
140.48L
388.29,
140.35L
388.78,
140.20L
389.26,
139.97L
389.75,
139.90L
390.23,
139.73L
390.72,
139.55L
391.20,
139.38L
391.69,
139.13L
392.18,
138.82L
392.66,
138.65L
393.15,
138.38L
393.63,
138.25L
394.12,
138.09L
394.60,
137.78L
395.09,
137.56L
395.58,
137.40L
396.06,
137.16L
396.55,
136.89L
397.03,
136.75L
397.52,
136.42L
398.00,
136.27L
398.49,
136.13L
398.97,
135.91L
399.46,
135.69L
399.95,
135.54L
400.43,
135.29L
400.92,
135.10L
401.40,
134.90L
401.89,
134.60L
402.37,
134.30L
402.86,
134.09L
403.35,
133.88L
403.83,
133.61L
404.32,
133.44L
404.80,
133.27L
405.29,
133.12L
405.77,
132.90L
406.26,
132.72L
406.74,
132.52L
407.23,
132.34L
407.72,
132.14L
408.20,
131.92L
408.69,
131.85L
409.17,
131.75L
409.66,
131.60L
410.14,
131.47L
410.63,
131.18L
411.12,
131.01L
411.60,
130.89L
412.09,
130.73L
412.57,
130.39L
413.06,
130.27L
413.54,
130.10L
414.03,
129.87L
414.51,
129.69L
415.00,
129.58L
415.49,
129.43L
415.97,
129.33L
416.46,
129.21L
416.94,
129.06L
417.43,
128.91L
417.91,
128.63L
418.40,
128.43L
418.89,
128.30L
419.37,
128.06L
419.86,
127.89L
420.34,
127.71L
420.83,
127.58L
421.31,
127.44L
421.80,
127.34L
422.29,
127.17L
422.77,
126.99L
423.26,
126.90L
423.74,
126.79L
424.23,
126.67L
424.71,
126.55L
425.20,
126.42L
425.68,
126.25L
426.17,
126.08L
426.66,
125.88L
427.14,
125.78L
427.63,
125.67L
428.11,
125.48L
428.60,
125.32L
429.08,
125.22L
429.57,
125.04L
430.06,
124.87L
430.54,
124.74L
431.03,
124.58L
431.51,
124.41L
432.00,
124.24L
432.48,
123.99L
432.97,
123.66L
433.45,
123.45L
433.94,
123.23L
434.43,
123.08L
434.91,
122.93L
435.40,
122.73L
435.88,
122.59L
436.37,
122.48L
436.85,
122.34L
437.34,
122.20L
437.83,
122.04L
438.31,
121.87L
438.80,
121.64L
439.28,
121.47L
439.77,
121.20L
440.25,
120.94L
440.74,
120.68L
441.22,
120.41L
441.71,
120.18L
442.20,
119.91L
442.68,
119.61L
443.17,
119.47L
443.65,
119.28L
444.14,
118.93L
444.62,
118.75L
445.11,
118.58L
445.60,
118.36L
446.08,
118.20L
446.57,
118.12L
447.05,
117.65L
447.54,
117.25L
448.02,
116.85L
448.51,
116.42L
449.00,
116.07L
449.48,
115.82L
449.97,
115.42L
450.45,
115.01L
450.94,
114.76L
451.42,
114.52L
451.91,
114.23L
452.39,
113.96L
452.88,
113.67L
453.37,
113.34L
453.85,
113.12L
454.34,
112.99L
454.82,
112.75L
455.31,
112.61L
455.79,
112.46L
456.28,
112.27L
456.77,
112.09L
457.25,
111.87L
457.74,
111.62L
458.22,
111.36L
458.71,
111.17L
459.19,
110.97L
459.68,
110.79L
460.16,
110.64L
460.65,
110.53L
461.14,
110.45L
461.62,
110.36L
462.11,
110.24L
462.59,
110.11L
463.08,
110.01L
463.56,
109.86L
464.05,
109.76L
464.54,
109.63L
465.02,
109.53L
465.51,
109.39L
465.99,
109.29L
466.48,
109.09L
466.96,
108.95L
467.45,
108.80L
467.93,
108.68L
468.42,
108.50L
468.91,
108.32L
469.39,
108.16L
469.88,
108.04L
470.36,
107.89L
470.85,
107.77L
471.33,
107.65L
471.82,
107.56L
472.31,
107.46L
472.79,
107.35L
473.28,
107.26L
473.76,
107.09L
474.25,
106.96L
474.73,
106.85L
475.22,
106.73L
475.71,
106.59L
476.19,
106.47L
476.68,
106.32L
477.16,
106.22L
477.65,
106.04L
478.13,
105.80L
478.62,
105.58L
479.10,
105.26L
479.59,
105.12L
480.08,
104.97L
480.56,
104.80L
481.05,
104.70L
481.53,
104.53L
482.02,
104.36L
482.50,
104.19L
482.99,
103.97L
483.48,
103.58L
483.96,
103.40L
484.45,
103.29L
484.93,
103.04L
485.42,
102.90L
485.90,
102.82L
486.39,
102.66L
486.87,
102.52L
487.36,
102.42L
487.85,
102.23L
488.33,
102.02L
488.82,
101.81L
489.30,
101.51L
489.79,
101.40L
490.27,
101.30L
490.76,
101.15L
491.25,
101.02L
491.73,
100.95L
492.22,
100.87L
492.70,
100.74L
493.19,
100.67L
493.67,
100.55L
494.16,
100.44L
494.64,
100.36L
495.13,
100.26L
495.62,
100.20L
496.10,
100.10L
496.59,
99.96L
497.07,
99.83L
497.56,
99.74L
498.04,
99.55L
498.53,
99.41L
499.02,
99.27L
499.50,
99.08L
499.99,
99.02L
500.47,
98.95L
500.96,
98.82L
501.44,
98.74L
501.93,
98.66L
502.42,
98.56L
502.90,
98.49L
503.39,
98.42L
503.87,
98.23L
504.36,
98.11L
504.84,
98.07L
505.33,
98.02L
505.81,
97.95L
506.30,
97.84L
506.79,
97.74L
507.27,
97.59L
507.76,
97.50L
508.24,
97.34L
508.73,
97.10L
509.21,
96.93L
509.70,
96.67L
510.19,
96.49L
510.67,
96.37L
511.16,
96.26L
511.64,
96.15L
512.13,
96.02L
512.61,
95.92L
513.10,
95.83L
513.58,
95.68L
514.07,
95.53L
514.55,
95.37L
515.04,
95.28L
515.53,
95.13L
516.01,
95.07L
516.50,
95.00L
516.98,
94.85L
517.47,
94.76L
517.96,
94.66L
518.44,
94.56L
518.93,
94.42L
519.41,
94.29L
519.90,
94.16L
520.38,
94.08L
520.87,
93.96L
521.35,
93.83L
521.84,
93.72L
522.33,
93.61L
522.81,
93.46L
523.30,
93.36L
523.78,
93.24L
524.27,
93.06L
524.75,
92.88L
525.24,
92.81L
525.73,
92.71L
526.21,
92.59L
526.70,
92.51L
527.18,
92.41L
527.67,
92.33L
528.15,
92.28L
528.64,
92.18L
529.12,
92.13L
529.61,
92.10L
530.10,
92.03L
530.58,
91.94L
531.07,
91.89L
531.55,
91.83L
532.04,
91.72L
532.52,
91.56L
533.01,
91.45L
533.50,
91.29L
533.98,
91.23L
534.47,
91.14L
534.95,
91.07L
535.44,
90.98L
535.92,
90.88L
536.41,
90.84L
536.90,
90.77L
537.38,
90.65L
537.87,
90.56L
538.35,
90.48L
538.84,
90.32L
539.32,
90.17L
539.81,
90.09L
540.29,
89.94L
540.78,
89.86L
541.27,
89.72L
541.75,
89.61L
542.24,
89.56L
542.72,
89.49L
543.21,
89.38L
543.69,
89.30L
544.18,
89.20L
544.67,
89.02L
545.15,
88.97L
545.64,
88.84L
546.12,
88.73L
546.61,
88.65L
547.09,
88.58L
547.58,
88.49L
548.06,
88.43L
548.55,
88.35L
549.04,
88.26L
549.52,
88.12L
550.01,
88.01L
550.49,
87.76L
550.98,
87.59L
551.46,
87.45L
551.95,
87.29L
552.43,
87.17L
552.92,
87.05L
553.41,
86.85L
553.89,
86.65L
554.38,
86.55L
554.86,
86.36L
555.35,
86.25L
555.83,
86.18L
556.32,
86.05L
556.81,
85.97L
557.29,
85.87L
557.78,
85.80L
558.26,
85.66L
558.75,
85.58L
559.23,
85.48L
559.72,
85.38L
560.21,
85.27L
560.69,
85.19L
561.18,
85.10L
561.66,
85.01L
562.15,
84.92L
562.63,
84.79L
563.12,
84.69L
563.61,
84.52L
564.09,
84.41L
564.58,
84.30L
565.06,
84.17L
565.55,
84.04L
566.03,
83.90L
566.52,
83.74L
567.00,
83.64L
567.49,
83.57L
567.98,
83.44L
568.46,
83.33L
568.95,
83.22L
569.43,
83.09L
569.92,
82.94L
570.40,
82.73L
570.89,
82.47L
571.38,
82.27L
571.86,
82.17L
572.35,
82.05L
572.83,
81.97L
573.32,
81.86L
573.80,
81.72L
574.29,
81.63L
574.77,
81.56L
575.26,
81.37L
575.75,
81.20L
576.23,
81.12L
576.72,
80.97L
577.20,
80.85L
577.69,
80.74L
578.17,
80.62L
578.66,
80.46L
579.15,
80.27L
579.63,
80.15L
580.12,
80.02L
580.60,
79.94L
581.09,
79.83L
581.57,
79.74L
582.06,
79.70L
582.54,
79.52L
583.03,
79.45L
583.52,
79.32L
584.00,
79.17L
584.49,
79.03L
584.97,
78.85L
585.46,
78.68L
585.94,
78.56L
586.43,
78.44L
586.92,
78.24L
587.40,
78.14L
587.89,
78.03L
588.37,
77.85L
588.86,
77.74L
589.34,
77.61L
589.83,
77.43L
590.32,
77.34L
590.80,
77.24L
591.29,
77.09L
591.77,
76.98L
592.26,
76.79L
592.74,
76.68L
593.23,
76.50L
593.71,
76.35L
594.20,
76.25L
594.68,
76.16L
595.17,
76.04L
595.66,
75.81L
596.14,
75.58L
596.63,
75.43L
597.11,
75.23L
597.60,
75.11L
598.09,
74.96L
598.57,
74.73L
599.06,
74.56L
599.54,
74.41L
600.03,
74.27L
600.51,
74.17L
601.00,
74.04L
601.48,
73.93L
601.97,
73.79L
602.46,
73.68L
602.94,
73.54L
603.43,
73.44L
603.91,
73.31L
604.40,
73.13L
604.88,
72.99L
605.37,
72.90L
605.86,
72.82L
606.34,
72.72L
606.83,
72.62L
607.31,
72.52L
607.80,
72.46L
608.28,
72.39L
608.77,
72.28L
609.25,
72.22L
609.74,
72.15L
610.23,
72.05L
610.71,
71.94L
611.20,
71.86L
611.68,
71.72L
612.17,
71.64L
612.65,
71.53L
613.14,
71.45L
613.63,
71.30L
614.11,
71.23L
614.60,
71.11L
615.08,
71.06L
615.57,
71.00L
616.05,
70.83L
616.54,
70.74L
617.03,
70.64L
617.51,
70.59L
618.00,
70.52L
618.48,
70.40L
618.97,
70.33L
619.45,
70.26L
619.94,
70.23L
620.42,
70.16L
620.91,
70.13L
621.40,
70.06L
621.88,
70.01L
622.37,
69.90L
622.85,
69.78L
623.34,
69.67L
623.82,
69.63L
624.31,
69.57L
624.79,
69.51L
625.28,
69.48L
625.77,
69.46L
626.25,
69.36L
626.74,
69.29L
627.22,
69.20L
627.71,
69.17L
628.19,
69.11L
628.68,
69.05L
629.17,
68.96L
629.65,
68.93L
630.14,
68.88L
630.62,
68.84L
631.11,
68.75L
631.59,
68.67L
632.08,
68.60L
632.57,
68.55L
633.05,
68.50L
633.54,
68.46L
634.02,
68.42L
634.51,
68.40L
634.99,
68.38L
635.48,
68.34L
635.96,
68.28L
636.45,
68.27L
636.94,
68.23L
637.42,
68.22L
637.91,
68.19L
638.39,
68.17L
638.88,
68.16L
639.36,
68.14L
639.85,
68.13L
640.34,
68.12L
640.82,
68.09L
641.31,
68.04L
641.79,
68.02L
642.28,
67.99L
642.76,
67.99L
643.25,
67.95L
643.74,
67.91L
644.22,
67.87L
644.71,
67.85L
645.19,
67.77L
645.68,
67.74L
646.16,
67.72L
646.65,
67.69L
647.13,
67.65L
647.62,
67.61L
648.11,
67.60L
648.59,
67.59L
649.08,
67.58L
649.56,
67.56L
650.05,
67.53L
650.53,
67.49L
651.02,
67.46L
651.51,
67.43L
651.99,
67.38L
652.48,
67.32L
652.96,
67.28L
653.45,
67.24L
653.93,
67.19L
654.42,
67.18L
654.90,
67.14L
655.39,
67.08L
655.88,
67.05L
656.36,
66.98L
656.85,
66.91L
657.33,
66.87L
657.82,
66.80L
658.30,
66.78L
658.79,
66.75L
659.28,
66.73L
659.76,
66.68L
660.25,
66.59L
660.73,
66.57L
661.22,
66.50L
661.70,
66.44L
662.19,
66.41L
662.67,
66.39L
663.16,
66.37L
663.65,
66.33L
664.13,
66.30L
664.62,
66.24L
665.10,
66.19L
665.59,
66.13L
666.07,
66.08L
666.56,
66.06L
667.05,
66.00L
667.53,
65.97L
668.02,
65.95L
668.50,
65.95L
668.99,
65.92L
669.47,
65.89L
669.96,
65.86L
670.45,
65.81L
670.93,
65.80L
671.42,
65.76L
671.90,
65.75L
672.39,
65.73L
672.87,
65.71L
673.36,
65.69L
673.84,
65.67L
674.33,
65.63L
674.82,
65.60L
675.30,
65.58L
675.79,
65.51L
676.27,
65.46L
676.76,
65.43L
677.24,
65.39L
677.73,
65.33L
678.22,
65.28L
678.70,
65.25L
679.19,
65.21L
679.67,
65.15L
680.16,
65.11L
680.64,
65.08L
681.13,
65.04L
681.61,
64.97L
682.10,
64.96L
682.59,
64.94L
683.07,
64.91L
683.56,
64.84L
684.04,
64.81L
684.53,
64.73L
685.01,
64.69L
685.50,
64.65L
685.99,
64.56L
686.47,
64.50L
686.96,
64.47L
687.44,
64.41L
687.93,
64.39L
688.41,
64.35L
688.90,
64.35L
689.38,
64.32L
689.87,
64.30L
690.36,
64.28L
690.84,
64.25L
691.33,
64.22L
691.81,
64.17L
692.30,
64.11L
692.78,
64.03L
693.27,
63.99L
693.76,
63.95L
694.24,
63.94L
694.73,
63.89L
695.21,
63.85L
695.70,
63.78L
696.18,
63.76L
696.67,
63.73L
697.16,
63.67L
697.64,
63.62L
698.13,
63.60L
698.61,
63.55L
699.10,
63.51L
699.58,
63.51L
700.07,
63.48L
700.55,
63.44L
701.04,
63.39L
701.53,
63.35L
702.01,
63.32L
702.50,
63.29L
702.98,
63.23L
703.47,
63.16L
703.95,
63.12L
704.44,
63.09L
704.93,
63.02L
705.41,
62.99L
705.90,
62.96L
706.38,
62.94L
706.87,
62.91L
707.35,
62.89L
707.84,
62.83L
708.32,
62.80L
708.81,
62.79L
709.30,
62.77L
709.78,
62.73L
710.27,
62.72L
710.75,
62.68L
711.24,
62.64L
711.72,
62.62L
712.21,
62.61L
712.70,
62.61L
713.18,
62.60L
713.67,
62.59L
714.15,
62.58L
714.64,
62.54L
715.12,
62.53L
715.61,
62.52L
716.09,
62.50L
716.58,
62.49L
717.07,
62.46L
717.55,
62.40L
718.04,
62.40L
718.52,
62.36L
719.01,
62.28L
719.49,
62.17L
719.98,
62.09L
720.47,
62.07L
720.95,
62.04L
721.44,
62.01L
721.92,
61.98L
722.41,
61.97L
722.89,
61.93L
723.38,
61.88L
723.87,
61.82L
724.35,
61.78L
724.84,
61.77L
725.32,
61.76L
725.81,
61.74L
726.29,
61.67L
726.78,
61.65L
727.26,
61.63L
727.75,
61.59L
728.24,
61.57L
728.72,
61.52L
729.21,
61.48L
729.69,
61.41L
730.18,
61.41L
730.66,
61.41L
731.15,
61.39L
731.64,
61.36L
732.12,
61.36L
732.61,
61.29L
733.09,
61.27L
733.58,
61.22L
734.06,
61.16L
734.55,
61.16L
735.03,
61.16L
735.52,
61.15L
736.01,
61.14L
736.49,
61.13L
736.98,
61.11L
737.46,
61.11L
737.95,
61.11L
738.43,
61.11L
738.92,
61.11L
739.41,
61.11L
739.89,
61.11L
740.38,
61.11L
740.86,
61.11L
741.35,
61.11L
741.83,
61.11L
742.32,
61.11L
742.80,
61.11L
743.29,
61.11L
743.78,
61.11L
744.26,
61.11L
744.75,
61.11L
745.23,
61.11L
745.72,
61.11L
746.20,
61.11L
746.69,
61.11L
747.18,
61.11L
747.66,
61.11L
748.15,
61.11L
748.63,
61.10L
749.12,
61.04L
749.60,
61.01L
750.09,
60.99L
750.58,
60.96L
751.06,
60.94L
751.55,
60.90L
752.03,
60.85L
752.52,
60.83L
753.00,
60.82L
753.49,
60.77L
753.97,
60.72L
754.46,
60.66L
754.95,
60.64L
755.43,
60.64L
755.92,
60.63L
756.40,
60.61L
756.89,
60.59L
757.37,
60.57L
757.86,
60.57L
758.35,
60.55L
758.83,
60.55L
759.32,
60.52L
759.80,
60.50L
760.29,
60.45L
760.77,
60.44L
761.26,
60.43L
761.74,
60.41L
762.23,
60.39L
762.72,
60.35L
763.20,
60.32L
763.69,
60.28L
764.17,
60.25L
764.66,
60.24L
765.14,
60.23L
765.63,
60.21L
766.12,
60.17L
766.60,
60.17L
767.09,
60.15L
767.57,
60.11L
768.06,
60.07L
768.54,
60.06L
769.03,
60.04L
769.51,
60.02L
770.00,
60"/>
  </g>
</svg>
