<svg xmlns="http://www.w3.org/2000/svg" width="830" height="470" fill="currentColor" class="plot-d6a7b5" font-family="system-ui, sans-serif" font-size="10" style="--plot-background:white;display:block;height:intrinsic;max-width:100%;color:#1e90ff" text-anchor="middle" viewBox="0 0 830 470">
    <style>
        :where(.plot-d6a7b5 text),:where(.plot-d6a7b5 tspan){white-space:pre}
    </style>
    <path stroke="currentColor" stroke-opacity=".1" d="
M60
410
h710
M60
362.919
h710
M60
315.838
h710
M60
268.757
h710
M60
221.676
h710
M60
174.595
h710
M60
127.514
h710
M60
80.433
h710" aria-hidden="true" aria-label="y-grid"/>
    <path fill="none" stroke="currentColor" d="
M60
410
h-6
m6
-47.081
h-6
m6
-47.081
h-6
m6
-47.081
h-6
m6
-47.081
h-6
m6
-47.081
h-6
m6
-47.081
h-6
m6
-47.081
h-6" aria-hidden="true" aria-label="y-axis tick"/>
    <g aria-label="y-axis tick label" font-variant="tabular-nums" text-anchor="end">
        <text y=".32em" transform="translate(51 410)">0</text>
        <text y=".32em" transform="translate(51 362.919)">2,000</text>
        <text y=".32em" transform="translate(51 315.838)">4,000</text>
        <text y=".32em" transform="translate(51 268.757)">6,000</text>
        <text y=".32em" transform="translate(51 221.676)">8,000</text>
        <text y=".32em" transform="translate(51 174.595)">10,000</text>
        <text y=".32em" transform="translate(51 127.514)">12,000</text>
        <text y=".32em" transform="translate(51 80.433)">14,000</text>
    </g>
    <text y=".71em" aria-label="y-axis label" text-anchor="start" transform="translate(3 3)">↑ Visible vestiges (8 days)</text>
    <path fill="none" stroke="currentColor" d="
M81.363
410
v6
m57.177
-6
v6
m57.805
-6
v6
m57.805
-6
v6
m57.177
-6
v6
m57.177
-6
v6
m57.806
-6
v6
m57.805
-6
v6
m56.549
-6
v6
m57.176
-6
v6
m57.806
-6
v6
m57.805
-6
v6
M770
410
v6" aria-hidden="true" aria-label="x-axis tick"/>
    <g aria-label="x-axis tick label" font-variant="tabular-nums">
        <text transform="translate(81.363 419)"><tspan x="0" y=".71em">Apr</tspan><tspan x="0" dy="1em">2023</tspan></text>
        <text y=".71em" transform="translate(138.54 419)">Jul</text>
        <text y=".71em" transform="translate(196.345 419)">Oct</text>
        <text transform="translate(254.15 419)"><tspan x="0" y=".71em">Jan</tspan><tspan x="0" dy="1em">2024</tspan></text>
        <text y=".71em" transform="translate(311.327 419)">Apr</text>
        <text y=".71em" transform="translate(368.504 419)">Jul</text>
        <text y=".71em" transform="translate(426.31 419)">Oct</text>
        <text transform="translate(484.115 419)"><tspan x="0" y=".71em">Jan</tspan><tspan x="0" dy="1em">2025</tspan></text>
        <text y=".71em" transform="translate(540.664 419)">Apr</text>
        <text y=".71em" transform="translate(597.84 419)">Jul</text>
        <text y=".71em" transform="translate(655.646 419)">Oct</text>
        <text transform="translate(713.451 419)"><tspan x="0" y=".71em">Jan</tspan><tspan x="0" dy="1em">2026</tspan></text>
        <text y=".71em" transform="translate(770 419)">Apr</text>
    </g>
    <path fill="none" stroke="currentColor" stroke-linecap="round" stroke-linejoin="round" stroke-width="1.5" d="
m60
410
.419
-11.817
.419
-43.221
.419
-23.305
.419
-16.525
.418
-27.26
.419
-21.469
.419
-20.127
.419
-28.908
.419
10.994
.419
-14.949
.419
-42.726
.419
-28.601
.418
-7.533
.419
-21.846
.419
12.218
.419
-.448
.419
-4.472
.419
30.485
.419
27.66
.419
-9.275
.418
-.471
.419
-1.554
.419
-18.62
.419
18.432
.419
6.097
.419
-12.688
.419
-.871
.419
12.311
.418
-11.935
.419
9.416
.419
-13.841
.419
-36.441
.419
-6.003
.419
11.982
.419
1.836
.419
20.693
.419
24.67
.418
6.215
.419
27.895
.419
25.118
.419
-23.188
.419
-24.34
.419
-25.871
.419
-39.949
.419
-6.826
.418
-1.789
.419
-23.188
.419
12.736
.419
25.4
.419
-1.883
.419
9.722
.419
-5.509
.419
-30.438
.418
-15.277
.419
6.285
.419
-19.256
.419
7.109
.419
9.84
.419
-8.969
.419
13.442
.419
16.808
.419
-20.881
.418
-3.554
.419
-1.154
L87.227
60
l.419
17.561
.419
17.82
.419
-1.459
.419
15.466
.419
22.575
.418
7.698
.419
19.774
.419
.047
.419
-14.548
.419
-1.412
.419
10.357
.419
-9.157
.419
6.803
.418
19.398
.419
6.497
.419
17.749
.419
15.537
.419
-13.441
.419
-3.861
.419
-3.013
.419
-24.977
.418
-1.624
.419
8.898
.419
-15.348
.419
7.957
.419
23.234
.419
2.731
.419
15.937
.419
1.742
.419
-19.751
.418
11.464
.419
2.025
.419
-8.687
.419
5.862
.419
5.815
.419
-7.157
.419
19.233
.419
13.724
.418
-4.12
.419
-12.57
.419
-7.18
.419
-16.808
.419
9.981
.419
-3.719
.419
-14.313
.419
9.864
.418
15.56
.419
-.447
.419
14.877
.419
-2.778
.419
-6.356
.419
7.392
.419
1.036
.419
-1.224
.418
9.534
.419
4.072
.419
.942
.419
9.345
.419
8.616
.419
-8.663
.419
-17.066
.419
-8.969
.419
-19.257
.418
4.591
.419
-5.532
.419
-8.498
.419
6.403
.419
23.446
.419
-5.202
.419
11.44
.419
-5.697
.418
-15.419
.419
-3.389
.419
-1.884
.419
-10.004
.419
4.943
.419
4.214
.419
6.12
.419
11.865
.418
13.183
.419
3.389
.419
6.309
.419
10.146
.419
-4.967
.419
2.448
.419
8.993
.419
-10.758
.418
3.319
.419
2.542
.419
-.306
.419
4.308
.419
-2.142
.419
-2.26
.419
3.013
.419
.353
.419
-5.72
.418
-.235
.419
3.531
.419
-5.909
.419
-.118
.419
6.898
.419
-4.52
.419
1.224
.419
3.79
.418
-8.498
.419
6.38
.419
.894
.419
-6.662
.419
3.013
.419
10.57
.419
-6.662
.419
9.863
.418
-.706
.419
-4.355
.419
3.861
.419
-2.119
.419
-13.277
.419
-.211
.419
-1.648
.419
-11.158
.419
-.448
.418
5.626
.419
-1.718
.419
3.437
.419
10.169
.419
-3.295
.419
18.455
.419
9.134
.419
-6.615
.418
4.449
.419
6.074
.419
-12.665
.419
4.92
.419
-1.813
.419
-5.908
.419
.565
.419
3.719
.418
-9.91
.419
9.416
.419
.07
.419
-6.92
.419
4.684
.419
-.471
.419
-8.404
.419
4.026
.418
-2.26
.419
-2.778
.419
-1.483
.419
-.424
.419
3.508
.419
5.673
.419
7.251
.419
-7.015
.419
5.602
.418
7.321
.419
-3.036
.419
.447
.419
-2.448
.419
-14.666
.419
3.602
.419
3.083
.419
-12.076
.418
.753
.419
-1.483
.419
-5.438
.419
11.064
.419
2.307
.419
-10.075
.419
6.898
.419
2.048
.418
-10.264
.419
4.637
.419
-1.647
.419
-4.614
.419
-4.026
.419
-4.308
.419
-20.762
.419
5.108
.418
4.331
.419
-5.155
.419
4.237
.419
12.43
.419
4.684
.419
20.645
.419
10.758
.419
-4.52
.419
4.285
.418
5.132
.419
-9.864
.419
.118
.419
2.919
.419
-8.828
.419
-5.555
.419
-3.108
.419
-15.042
.418
3.201
.419
2.307
.419
-13.277
.419
.024
.419
7.509
.419
-1.365
.419
9.134
.419
7.297
.418
.189
.419
15.301
.419
6.026
.419
.73
.419
4.967
.419
2.095
.419
-4.99
.419
.777
.418
-1.272
.419
-1.577
.419
2.236
.419
5.203
.419
1.2
.419
.66
.419
-.212
.419
-7.251
.419
1.53
.418
-.047
.419
-3.813
.419
3.813
.419
3.32
.419
4.143
.419
14.359
.419
5.226
.419
-8.78
.418
.541
.419
-3.484
.419
-8.78
.419
5.908
.419
-3.719
.419
-.73
.419
17.232
.419
3.601
.418
2.119
.419
6.144
.419
-8.78
.419
-16.62
.419
-12.83
.419
-3.554
.419
-3.131
.419
2.942
.419
2.637
.418
1.201
.419
14.265
.419
12.947
.419
-5.626
.419
-2.754
.419
-2.99
.419
-6.05
.419
6.804
.418
5.155
.419
-1.695
.419
5.838
.419
9.228
.419
-3.837
.419
5.085
.419
-5.791
.419
-11.818
.418
-2.566
.419
4.567
.419
-4.567
.419
7.345
.419
5.344
.419
2.825
.419
8.945
.419
1.248
.418
-11.606
.419
-5.391
.419
-9.84
.419
-11.982
.419
-2.707
.419
.965
.419
-.023
.419
7.462
.419
7.839
.418
3.037
.419
10.193
.419
4.59
.419
-13.983
.419
-7.085
.419
-.919
.419
-.306
.419
8.64
.418
4.567
.419
-5.344
.419
15.137
.419
11.322
.419
-8.192
.419
-9.439
.419
-7.557
.419
-16.125
.418
4.426
.419
-.354
.419
-8.898
.419
9.063
.419
11.394
.419
.141
.419
5.344
.419
.73
.418
-8.31
.419
7.391
.419
4.803
.419
-5.391
.419
5.791
.419
11.676
.419
1.13
.419
8.875
.419
-5.933
.418
-13.888
.419
-4.45
.419
-2.872
.419
-7.391
.419
2.472
.419
-1.625
.419
3.743
.419
13.889
.418
13.63
.419
-.047
.419
5.579
.419
-4.025
.419
-.871
.419
2.777
.419
.306
.419
-2.354
.418
8.875
.419
.824
.419
1.342
.419
6.167
.419
7.251
.419
-9.652
.419
-6.309
.419
-10.946
.419
-8.639
.418
-1.719
.419
-.447
.419
-7.98
.419
9.581
.419
6.003
.419
.4
.419
3.413
.419
1.083
.418
-9.699
.419
.471
.419
-4.096
.419
-2.99
.419
4.803
.419
.141
.419
-7.863
.419
6.003
.418
1.578
.419
.659
.419
1.059
.419
-1.318
.419
-1.083
.419
11.37
.419
6.521
.419
-1.366
.418
1.177
.419
5.297
.419
3.46
.419
5.297
.419
1.177
.419
-6.121
.419
2.001
.419
4.52
.419
-5.391
.418
-3.013
.419
3.673
.419
-.754
.419
5.085
.419
3.484
.419
-7.298
.419
.212
.419
3.061
.418
-3.508
.419
-1.318
.419
-5.391
.419
-2.213
.419
6.544
.419
5.391
.419
-3.319
.419
.918
.418
-.565
.419
-4.779
.419
-4.143
.419
-.212
.419
-2.848
.419
-.895
.419
-2.871
.419
-4.308
.418
5.673
.419
1.2
.419
-7.344
.419
-.283
.419
3.578
.419
-2.048
.419
3.014
.419
.588
.419
-3.837
.418
4.637
.419
3.555
.419
-5.132
.419
7.557
.419
1.812
.419
-4.896
.419
8.098
.419
.471
.418
-3.908
.419
8.545
.419
-1.553
.419
2.236
.419
9.887
.419
-1.836
.419
-4.096
.419
-.848
.418
-7.956
.419
-10.641
.419
-1.012
.419
-4.402
.419
.377
.419
.353
.419
-2.119
.419
4.12
.418
9.934
.419
-4.449
.419
-5.485
.419
-11.794
.419
-.283
.419
-1.789
.419
1.413
.419
-.801
.419
1.107
.418
10.146
.419
13.841
.419
-5.131
.419
-3.955
.419
-5.391
.419
-11.888
.419
.094
.419
-4.731
.418
-4.402
.419
6.803
.419
10.287
.419
-.612
.419
11.299
.419
-3.86
.419
-12.995
.419
-4.26
.418
-.071
.419
-7.321
.419
3.931
.419
.8
.419
-2.307
.419
8.546
.419
.164
.419
-4.001
.419
-1.013
.418
-12.712
.419
-17.843
.419
3.248
.419
-.753
.419
-5.932
.419
.753
.419
7.039
.419
9.863
.418
14.125
.419
2.165
.419
-4.543
.419
4.685
.419
7.721
.419
-4.12
.419
1.224
.419
-2.942
.418
-2.637
.419
10.57
.419
4.002
.419
-12.335
.419
-2.731
.419
1.036
.419
-3.32
.419
5.556
.418
-2.919
.419
-.283
.419
10.711
.419
7.628
.419
-1.648
.419
7.486
.419
-1.719
.419
-8.427
.419
1.977
.418
-.989
.419
1.601
.419
5.509
.419
.094
.419
.894
.419
14.03
.419
3.649
.419
-6.638
.418
-1.577
.419
.306
.419
-4.473
.419
-.612
.419
1.648
.419
-1.483
.419
4.096
.419
1.106
.418
-4.637
.419
1.694
.419
-2.259
.419
-15.396
.419
-4.684
.419
3.272
.419
7.509
.419
12.194
.418
13.371
.419
12.735
.419
19.704
.419
13.559
.419
8.64
.419
.517
.419
-.612
.419
-.4
.419
-1.153
.418
-1.931
.419
-1.247
.419
-1.648
.419
-2.613
.419
-4.12
.419
-11.888
.419
-7.109
.419
-5.744
.418
-5.602
.419
-4.85
.419
-4.049
.419
-4.896
.419
3.578
.419
-2.048
.419
-2.99
.419
-2.518
.418
-4.92
.419
-1.154
.419
3.037
.419
-1.012
.419
-.095
.419
6.262
.419
2.731
.419
1.507
.418
3.154
.419
.8
.419
.918
.419
3.437
.419
-5.767
.419
-1.836
.419
4.967
.419
-2.142
.419
-.871
.418
2.424
.419
2.613
.419
4.755
.419
5.368
.419
-.777
.419
1.553
.419
-1.153
.419
-4.826
.418
-2.683
.419
.941
.419
-6.615
.419
-1.6
.419
-.542
.419
.848
.419
1.341
.419
.283
.418
-4.944
.419
3.39
.419
2.519
.419
-.871
.419
-1.412
.419
1.035
.419
1.06
.419
1.6
.419
-.258
.418
-3.508
.419
-4.426
.419
-.541
.419
-2.801
.419
-.659
.419
2.236
.419
-1.177
.419
.612
.418
5.461
.419
.142
.419
1.553
.419
.118
.419
-5.673
.419
-2.119
.419
-.259
.419
-5.179
.418
2.142
.419
4.897
.419
2.189
.419
5.626
.419
2.778
.419
.235
.419
-4.896
.419
-1.483
.418
-7.415
.419
-1.813
h.419
l.419
.165
.419
-2.66
.419
13.159
.419
.541
.419
4.12
.419
-1.742
.418
-6.003
.419
-7.439
.419
3.013
.419
-9.18
.419
1.859
.419
.659
.419
-6.567
.419
1.342
.418
7.462
.419
-3.931
.419
.423
.419
-.753
.419
-7.321
.419
7.392
.419
3.554
.419
-2.848
.418
1.224
.419
5.344
.419
-4.967
.419
6.144
.419
-2.59
.419
-7.062
.419
-3.908
.419
.306
.418
-2.589
.419
-1.13
.419
1.436
.419
1.601
.419
6.85
.419
3.766
.419
1.295
.419
.306
.419
4.167
.418
-1.483
.419
-2.354
.419
3.978
.419
5.367
.419
1.436
.419
3.578
.419
-5.084
.419
1.153
.418
4.638
.419
-4.308
.419
-11.158
.419
1.836
.419
-2.307
.419
2.825
.419
-.189
.419
.259
.418
.353
.419
11.512
.419
-.565
.419
1.153
.419
3.72
.419
-4.779
.419
-3.696
.419
.942
.419
-6.921
.418
-2.166
.419
-1.365
.419
.965
.419
6.732
.419
4.379
.419
-1.766
.419
2.472
.419
4.285
.418
2.966
.419
.447
.419
.871
.419
-1.695
.419
.33
.419
.541
.419
-5.085
.419
.306
.418
.471
.419
-3.154
.419
-1.154
.419
2.849
.419
-.165
.419
1.13
.419
-1.224
.419
-2.166
.418
.753
.419
-.8
.419
-6.639
.419
-7.109
.419
-1.86
.419
-4.166
.419
.329
.419
.871
.419
-1.177
.418
4.732
.419
10.405
.419
3.343
.419
3.743
.419
-.212
.419
-.942
.419
-1.554
.419
-1.294
.418
-7.51
.419
-5.626
.419
-5.65
.419
-5.108
.419
-3.178
.419
-1.601
.419
-5.649
.419
5.838
.418
3.013
.419
-3.955
.419
3.955
.419
3.343
.419
2.095
.419
6.285
.419
3.131
.419
-12.877
.418
-2.66
.419
-10.358
.419
-12.523
.419
-5.744
.419
-4.426
.419
-14.571
.419
2.613
.419
7.062
.419
7.627
.418
6.662
.419
3.837
.419
-2.119
.419
2.967
.419
9.133
.419
5.579
.419
-.188
.419
7.062
.418
5.626
.419
4.85
.419
6.826
.419
.189
.419
-5.697
.419
-.565
.419
-2.731
.419
-2.448
.418
.8
.419
1.272
.419
4.92
.419
8.215
.419
7.651
.419
3.743
.419
2.895
.419
3.743
.418
.071
.419
.165
.419
-1.931
.419
-.706
.419
-.777
.419
1.342
.419
-4.637
.419
.612
.419
-2.354
.418
.117
.419
-3.225
.419
-2.307
.419
-2.495
.419
3.319
.419
-.494
.419
1.954
.419
-.4
.418
4.331
.419
3.743
.419
2.283
.419
1.413
.419
-.589
.419
-.965
.419
.589
.419
-1.483
.418
-1.625
.419
-.4
.419
-2.895
.419
2.966
.419
-2.048
.419
-5.768
.419
-5.249
.419
-8.381
.419
-.753
.418
-.024
.419
-2.966
.419
3.508
.419
3.154
.419
2.708
.419
6.85
.419
-4.002
.419
-11.135
.418
-.494
.419
-.565
.419
-3.413
.419
1.106
.419
4.237
.419
2.849
.419
12.099
.419
3.155
.418
-3.461
.419
1.413
.419
-2.943
.419
-10.146
.419
2.213
.419
1.601
.419
-1.766
.419
2.802
.418
6.591
.419
5.697
.419
7.862
.419
2.307
.419
-.941
.419
1.671
.419
2.166
.419
-1.366
.419
1.177
.418
1.366
.419
-3.72
.419
-.023
.419
.8
.419
-4.99
.419
-2.19
.419
-3.366
.419
-4.543
.418
4.143
.419
2.283
.419
-1.789
.419
5.203
.419
3.154
.419
1.46
.419
6.097
.419
-1.036
.418
-5.391
.419
.612
.419
1.624
.419
1.413
.419
1.412
.419
-1.859
.419
-1.083
.419
1.577
.418
1.624
.419
-5.885
.419
-8.639
.419
-4.708
.419
-7.133
.419
-3.861
.419
1.719
.419
-1.413
.419
2.707
.418
4.967
.419
3.414
.419
8.051
.419
1.553
.419
-1.483
.419
-2.354
.419
1.13
.419
-.965
.418
1.836
.419
.565
.419
.165
.419
2.589
.419
3.108
.419
-1.083
.419
.565
.419
-3.06
.418
-2.896
.419
3.131
.419
-.824
.419
-1.671
.419
-.306
.419
1.365
.419
-.965
.419
1.577
.418
-1.765
.419
-3.273
.419
-2.283
.419
2.048
.419
.306
.419
1.412
.419
1.201
.419
.612
.419
4.638
.418
6.379
.419
-1.412
.419
2.354
.419
4.166
.419
.283
.419
.376
.419
1.484
.419
-.565
.418
-.236
.419
-5.461
.419
-3.837
.419
-4.002
.419
1.695
.419
-1.742
.419
-.589
.419
.565
.418
3.484
.419
2.801
.419
4.097
.419
-2.59
.419
-.118
.419
-.776
.419
-2.778
.419
-2.754
.419
-1.436
.418
-3.602
.419
1.671
.419
-2.566
.419
-1.106
.419
4.755
.419
4.143
.419
-1.318
.419
2.707
.418
-.894
.419
-1.483
.419
2.612
.419
-3.625
.419
-2.001
.419
1.06
.419
.918
.419
.706
.418
5.344
.419
-1.342
.419
1.954
.419
-1.554
.419
-1.412
.419
-8.145
.419
-4.12
.419
-3.531
.418
-3.837
.419
-1.648
.419
1.201
.419
-3.767
.419
1.836
.419
3.037
.419
-2.189
.419
2.448
.419
2.589
.418
-.588
.419
5.108
.419
4.991
.419
1.93
.419
2.072
.419
1.224
.419
-1.507
.419
1.46
.418
-1.224
.419
.706
.419
-1.201
.419
2.731
.419
-.33
.419
-1.577
.419
-.118
.419
-2.754
.418
-1.106
.419
-.801
.419
-2.495
.419
-1.813
.419
-.329
.419
-2.566
.419
3.037
.419
1.859
.418
-1.13
.419
1.036
.419
1.342
.419
.471
.419
.188
.419
-4.826
.419
-9.439
.419
-2.731
.419
.447
.418
-.612
.419
1.978
.419
2.236
.419
3.154
.419
8.216
.419
5.532
.419
-4.025
.419
-2.378
.418
.259
.419
-2.048
.419
1.059
.419
-.989
.419
-2.212
.419
1.365
.419
-1.13
.419
-1.883
.418
1.012
.419
1.671
.419
.354
.419
1.341
.419
5.65
.419
.636
.419
2.165
h.419
l.419
-3.436
.418
-1.225
.419
-4.331
.419
-6.262
.419
2.613
.419
-1.977
.419
-3.484
.419
2.66
.419
1.106
.418
.4
.419
2.943
.419
-.471
.419
-2.872
.419
5.085
.419
.141
.419
-2.283
.419
3.319
.418
-3.861
.419
1.201
.419
.047
.419
-3.013
.419
.047
.419
3.131
.419
-.73
.419
-1.977
.418
-5.697
.419
1.506
.419
-2.071
.419
-1.365
.419
-2.825
.419
-4.92
.419
2.989
.419
3.743
.419
-.047
.418
4.567
.419
.094
.419
1.577
.419
4.45
.419
2.613
.419
.612
.419
2.001
.419
-1.13
.418
-2.802
.419
-1.153
.419
2.048
.419
1.53
.419
1.483
.419
.353
.419
1.389
.419
5.626
.418
3.343
.419
-1.201
.419
1.154
.419
1.436
.419
-.283
.419
-.306
.419
-1.13
.419
-3.319
.418
1.907
.419
-2.707
.419
-.165
.419
-2.26
.419
1.554
.419
-1.766
.419
4.261
.419
.589
.419
-2.401
.418
-.613
.419
2.402
.419
.941
.419
2.59
.419
-3.32
.419
-.706
.419
4.52
.419
2.966
.418
1.271
.419
.777
.419
.047
.419
3.319
.419
-1.836
.419
-2.165
.419
-4.049
.419
1.718
.418
-1.624
.419
.777
.419
.659
.419
4.331
.419
.942
.419
1.836
.419
-2.142
.419
1.553
.418
-.447
.419
-1.13
.419
-3.484
.419
3.319
.419
1.225
.419
1.977
.419
-2.59
.419
-1.153
.419
-.212
.418
1.907
.419
-1.271
.419
.235
.419
.236
.419
3.201
.419
3.202
.419
1.106
.419
-.4
.418
1.954
.419
.329
.419
.989
.419
-.377
.419
.047
.419
1.154
.419
2.095
.419
-.071
.418
1.177
.419
-.612
.419
-1.13
.419
-.117
.419
-.73
.419
.753
.419
-1.247
.419
-1.201
.419
-.683
.418
1.295
.419
-2.707
.419
.07
.419
-.918
.419
.518
.419
-.235
.419
.212
.419
.635
.418
3.225
.419
.66
.419
.188
.419
.094
.419
-.024
.419
.118
.419
-.871
.419
-1.883
.418
-2.26
.419
-1.059
.419
-.565
.419
-.165
.419
1.059
.419
-.588
.419
-.448
.419
1.578
.418
-1.601
.419
-1.295
.419
.024
.419
-2.378
.419
.683
.419
1.648
.419
.4
.419
1.012
.419
-.989
.418
1.083
.419
-.518
.419
-1.318
.419
-.259
.419
-.353
.419
1.695
.419
2.519
.419
-.895
.418
.871
.419
.236
.419
-1.53
.419
-.966
.419
.118
.419
-1.271
.419
.329
.419
1.554
.418
2.284
.419
1.671
.419
1.036
.419
-.965
.419
.729
.419
.73
.419
-.588
.419
-.73
.418
.353
.419
.353
.419
.612
.419
1.295
.419
-1.201
.419
.589
.419
-.518
.419
-2.401
.419
-1.224
.418
-.353
.419
-1.083
.419
-.895
.419
-1.483
.419
.118
.419
1.247
.419
-.353
.419
-.494
.418
.612
.419
.8
.419
-.824
.419
.565
.419
1.483
.419
.754
.419
-1.436
.419
-.071
.418
-1.436
.419
1.107
.419
-.777
.419
-3.931
.419
-1.177
.419
2.142
.419
-1.554
.419
2.66
.418
.283
.419
1.247
.419
3.013
.419
2.025
.419
.4
.419
1.342
.419
-.518
.419
-.471
.419
-2.166
.418
-2.66
.419
-.682
.419
-1.107
.419
.895
.419
-.871
.419
.518
.419
-1.06
.419
3.296
.418
.071
.419
-.801
.419
-1.718
.419
1.389
.419
-.495
.419
1.483
.419
.589
.419
.118
.418
.941
.419
-.023
.419
-.895
.419
.871
.419
.824
.419
-2.613
.419
-2.024
.419
-.142
.419
1.225
.418
-1.648
.419
-.024
.419
-.353
.419
2.095
.419
2.119
.419
.894
.419
-1.6
.419
1.883
.418
.871
.419
.8
.419
-1.483
.419
.942
.419
-.942
.419
1.177
.419
.306
.419
.33
.418
.588
.419
1.719
.419
-.047
.419
1.224
.419
.188
.419
.565
.419
-.282
.419
-.613
.418
-.047
.419
-.918
.419
-2.095
.419
1.06
.419
-1.201
.419
-2.825
.419
-4.425
.419
-3.39
.419
.259
.418
1.647
.419
-1.177
.419
.683
.419
2.59
.419
3.484
.419
1.53
.419
-1.907
.419
-.353
.418
.682
.419
1.013
.419
-.33
.419
-1.389
.419
1.201
.419
1.907
.419
.07
.419
-.4
.418
-2.236
.419
-.471
.419
-.212
.419
1.106
.419
.848
.419
.588
.419
.118
.419
2.284
.418
-1.507
.419
2.166
.419
-2.307
.419
-2.637
.419
.824
.419
1.036
.419
-.188
.419
2.801
.419
.424
.418
1.718
.419
2.613
.419
-1.813
.419
-.824
.419
-.588
.419
.024
.419
.47
.419
.518
.418
.141
.419
1.695
.419
.848
.419
-.33
.419
-1.459
.419
-4.167
.419
-4.308
.419
-2.424
.418
-.542
.419
.094
.419
-.518
.419
.142
.419
3.178
.419
2.989
.419
-1.247
.419
-2.402
.419
-1.671
.418
-1.224
.419
.235
.419
.212
.419
.189
.419
2.989
.419
.989
.419
-.659
.419
1.883
.418
1.106
.419
-1.459
.419
-.871
.419
-2.331
.419
1.177
.419
2.237
.419
.8
.419
-.447
.418
1.2
.419
1.507
.419
2.778
.419
.235
.419
-.023
.419
-.942
.419
-.518
.419
-.918
.418
.306
.419
-.447
.419
-.236
.419
-.659
.419
-.565
.419
-.235
.419
.094
.419
-.777
.419
.33
.418
.141
.419
-.212
.419
.165
.419
1.224
.419
1.177
.419
-.683
.419
-1.53
.419
.565
.418
-.235
.419
.683
.419
-.495
.419
.306
.419
.942
.419
1.883
.419
.094
.419
.212
.418
.895
.419
-.189
.419
-.753
.419
.895
.419
-.565
.419
-.542
.419
-.07
.419
-1.342
.418
-.518
.419
.989
.419
-.777
.419
.47
.419
.165
.419
.353
.419
-.988
.419
1.365
.419
-.918
.418
-.259
.419
-.235
.419
-.848
.419
-.494
.419
.847
.419
-1.789
.419
-.753
.419
-.33
.418
-1.883
.419
.942
.419
.423
.419
.919
.419
1.412
.419
1.789
.419
1.318
.419
2.119
.418
-.377
.419
.094
.419
.189
.419
-.165
.419
-1.154
.419
-.47
.419
-1.672
.419
.142
.418
.07
.419
-.212
.419
-.259
.419
.918
.419
-.047
.419
-.164
h.419
l.419
-.495
.419
-.659
.418
.848
.419
-.189
.419
-.447
.419
.918
.419
.447
.419
-.753
.419
.188
.419
-.4
.418
-.07
.419
-.942
.419
.306
.419
-.895
.419
1.201
.419
.471
.419
-1.46
.419
.589
.418
1.954
.419
-.871
.419
-1.672
.419
-.706
.419
.4
.419
1.86
h.419
l.419
-.683
.419
1.083
.418
1.954
.419
-.847
.419
-1.319
.419
-1.036
.419
-.564
.419
-1.79
.419
-1.506
.419
.353
.418
.918
.419
1.036
.419
.353
.419
.424
.419
1.483
.419
1.318
.419
-.777
.419
-.259
.418
-4.19
.419
-1.295
.419
-1.459
.419
-2.095
.419
-1.813
h.419
l.419
-1.977
.419
4.378
.418
.212
.419
.942
.419
1.224
.419
1.883
.419
-.942
.419
2.543
.419
-1.083
h.419
l.419
-.777
.418
-.306
.419
-1.766
.419
1.484
.419
.47
.419
-1.412
.419
.377
.419
-.142
.419
.165
.418
1.036
.419
-.824
.419
-.565
.419
.306
.419
.494
.419
.33
.419
-.424
.419
-.447
.418
-1.813
.419
-.965
.419
1.86
.419
-.165
.419
.353
.419
1.978
.419
-1.837
.419
1.86
.418
.73
.419
-.589
.419
-1.459
.419
.023
.419
-.047
.419
3.013
.419
1.13
.419
-.753
h.419
l.418
1.295
.419
.683
.419
.094
.419
.235
.419
-2.283
.419
.4
.419
-1.059
.419
-.871
.418
-4.638
.419
-4.284
.419
-4.002
.419
-.518
.419
-2.566
.419
-2.801
.419
.353
.419
.07
.418
1.154
.419
1.954
.419
-.895
.419
1.366
.419
.376
.419
-.282
.419
-.424
.419
1.083
.418
.188
.419
1.672
.419
2.071
.419
1.695
.419
-2.189
.419
3.366
.419
.377
.419
-4.544
.419
.377
.418
-2.472
.419
-.306
.419
.895
.419
.235
.419
-2.401
.419
3.484
.419
-.235
.419
1.294
.418
1.342
.419
1.766
.419
-.659
.419
3.978
.419
2.731
.419
.282
.419
.565
.419
-.73
.418
-1.106
.419
1.436
.419
-1.813
.419
-.494
.419
.847
.419
-.259
.419
.966
.419
1.953
.419
.401
.418
.141
.419
-.683
.419
-1.153
.419
-.965
.419
-1.672
.419
-.706
.419
-1.318
.419
1.224
.418
-1.154
.419
.895
.419
1.836
.419
1.671
h.419
l.419
1.107
.419
-.753
.419
.847
.418
.094
.419
-1.53
.419
.965
.419
-1.765
.419
.282
.419
.071
.419
.988
.419
.283
.418
1.53
.419
-1.106
.419
2.401
.419
-.636
.419
.848" aria-label="line"/>
</svg>
