<svg class="plot-d6a7b5" fill="currentColor" font-family="system-ui, sans-serif" font-size="10" text-anchor="middle" width="830" height="470" viewBox="0 0 830 470" xmlns="http://www.w3.org/2000/svg" xmlns:xlink="http://www.w3.org/1999/xlink" color="#1e90ff"><style>:where(.plot-d6a7b5){--plot-background: white;display:block;height:intrinsic;max-width:100%}:where(.plot-d6a7b5 text),:where(.plot-d6a7b5 tspan){white-space:pre}</style><g aria-label="y-grid" stroke="currentColor" stroke-opacity=".1"><line x1="60" x2="770" y1="410" y2="410"/><line x1="60" x2="770" y1="360.939" y2="360.939"/><line x1="60" x2="770" y1="311.878" y2="311.878"/><line x1="60" x2="770" y1="262.817" y2="262.817"/><line x1="60" x2="770" y1="213.757" y2="213.757"/><line x1="60" x2="770" y1="164.696" y2="164.696"/><line x1="60" x2="770" y1="115.635" y2="115.635"/><line x1="60" x2="770" y1="66.574" y2="66.574"/></g><g aria-label="y-axis tick" fill="none" stroke="currentColor"><path transform="translate(60,410)" d="M0,0L-6,0"/><path transform="translate(60,360.9391645640594)" d="M0,0L-6,0"/><path transform="translate(60,311.8783291281189)" d="M0,0L-6,0"/><path transform="translate(60,262.8174936921783)" d="M0,0L-6,0"/><path transform="translate(60,213.7566582562377)" d="M0,0L-6,0"/><path transform="translate(60,164.69582282029717)" d="M0,0L-6,0"/><path transform="translate(60,115.6349873843566)" d="M0,0L-6,0"/><path transform="translate(60,66.57415194841604)" d="M0,0L-6,0"/></g><g aria-label="y-axis tick label" text-anchor="end" font-variant="tabular-nums"><text y=".32em" transform="translate(-9,0) translate(60,410)">0</text><text y=".32em" transform="translate(-9,0) translate(60,360.9391645640594)">1,000</text><text y=".32em" transform="translate(-9,0) translate(60,311.8783291281189)">2,000</text><text y=".32em" transform="translate(-9,0) translate(60,262.8174936921783)">3,000</text><text y=".32em" transform="translate(-9,0) translate(60,213.7566582562377)">4,000</text><text y=".32em" transform="translate(-9,0) translate(60,164.69582282029717)">5,000</text><text y=".32em" transform="translate(-9,0) translate(60,115.6349873843566)">6,000</text><text y=".32em" transform="translate(-9,0) translate(60,66.57415194841604)">7,000</text></g><g aria-label="y-axis label" text-anchor="start"><text y=".71em" transform="translate(-57,-57) translate(60,60)">↑ Visible Vestiges (4 days)</text></g><g aria-label="x-axis tick" fill="none" stroke="currentColor"><path transform="translate(65.65486725663716,410)" d="M0,0L0,6"/><path transform="translate(124.08849557522123,410)" d="M0,0L0,6"/><path transform="translate(180.6371681415929,410)" d="M0,0L0,6"/><path transform="translate(239.07079646017698,410)" d="M0,0L0,6"/><path transform="translate(295.6194690265487,410)" d="M0,0L0,6"/><path transform="translate(354.05309734513276,410)" d="M0,0L0,6"/><path transform="translate(412.4867256637168,410)" d="M0,0L0,6"/><path transform="translate(469.03539823008845,410)" d="M0,0L0,6"/><path transform="translate(527.4690265486727,410)" d="M0,0L0,6"/><path transform="translate(584.0176991150443,410)" d="M0,0L0,6"/><path transform="translate(642.4513274336283,410)" d="M0,0L0,6"/><path transform="translate(700.8849557522124,410)" d="M0,0L0,6"/><path transform="translate(755.5486725663718,410)" d="M0,0L0,6"/></g><g aria-label="x-axis tick label" font-variant="tabular-nums"><text transform="translate(0,9) translate(65.65486725663716,410)"><tspan x="0" y=".71em">Mar</tspan><tspan x="0" dy="1em">2023</tspan></text><text y=".71em" transform="translate(0,9) translate(124.08849557522123,410)">Apr</text><text y=".71em" transform="translate(0,9) translate(180.6371681415929,410)">May</text><text y=".71em" transform="translate(0,9) translate(239.07079646017698,410)">Jun</text><text y=".71em" transform="translate(0,9) translate(295.6194690265487,410)">Jul</text><text y=".71em" transform="translate(0,9) translate(354.05309734513276,410)">Aug</text><text y=".71em" transform="translate(0,9) translate(412.4867256637168,410)">Sep</text><text y=".71em" transform="translate(0,9) translate(469.03539823008845,410)">Oct</text><text y=".71em" transform="translate(0,9) translate(527.4690265486727,410)">Nov</text><text y=".71em" transform="translate(0,9) translate(584.0176991150443,410)">Dec</text><text transform="translate(0,9) translate(642.4513274336283,410)"><tspan x="0" y=".71em">Jan</tspan><tspan x="0" dy="1em">2024</tspan></text><text y=".71em" transform="translate(0,9) translate(700.8849557522124,410)">Feb</text><text y=".71em" transform="translate(0,9) translate(755.5486725663718,410)">Mar</text></g><g aria-label="line" fill="none" stroke="currentColor" stroke-width="1.5" stroke-linejoin="round" stroke-linecap="round"><path d="M60,410L61.257,385.371L62.513,295.296L63.77,246.726L65.027,236.913L66.283,270.177L67.54,274.003L68.796,266.497L70.053,238.434L71.31,216.013L72.566,178.237L73.823,139.626L75.08,90.369L76.336,109.65L77.593,145.66L78.85,202.669L80.106,195.015L81.363,193.445L82.619,192.906L83.876,202.227L85.133,211.5L86.389,182.996L87.646,179.12L88.903,151.989L90.159,189.815L91.416,205.22L92.673,226.905L93.929,195.948L95.186,180.395L96.442,178.089L97.699,172.398L98.956,155.718L100.212,120.05L101.469,109.601L102.726,132.463L103.982,196.683L105.239,250.013L106.496,270.765L107.752,263.21L109.009,242.555L110.265,233.038L111.522,194.623L112.779,149.978L114.035,97.041L115.292,82.862L116.549,111.808L117.805,141.343L119.062,166.756L120.319,169.111L121.575,181.131L122.832,172.595L124.088,152.136L125.345,116.665L126.602,86.689L127.858,60L129.115,86.934L130.372,122.258L131.628,160.378L132.885,147.328L134.142,133.297L135.398,116.518L136.655,104.351L137.912,106.461L139.168,106.362L140.425,107.049L141.681,95.029L142.938,125.006L144.195,147.77L145.451,175.048L146.708,172.791L147.965,182.603L149.221,202.375L150.478,199.333L151.735,182.358L152.991,158.759L154.248,141.883L155.504,161.114L156.761,182.161L158.018,219.055L159.274,234.853L160.531,250.503L161.788,249.718L163.044,224.795L164.301,202.473L165.558,178.482L166.814,176.716L168.071,168.474L169.327,188.785L170.584,212.825L171.841,207.967L173.097,205.613L174.354,211.5L175.611,247.412L176.867,255.802L178.124,231.32L179.381,208.507L180.637,194.329L181.894,192.562L183.15,221.508L184.407,245.744L185.664,262.033L186.92,240.74L188.177,245.793L189.434,248.099L190.69,252.662L191.947,215.327L193.204,195.997L194.46,185.841L195.717,211.549L196.973,223.814L198.23,231.32L199.487,235.638L200.743,238.483L202,248.05L203.257,248.345L204.513,235.834L205.77,235.785L207.027,227.69L208.283,239.955L209.54,253.496L210.796,267.527L212.053,274.151L213.31,266.154L214.566,265.712L215.823,267.086L217.08,259.334L218.336,217.829L219.593,195.212L220.85,179.757L222.106,216.897L223.363,223.618L224.619,247.412L225.876,243.438L227.133,262.327L228.389,246.578L229.646,241.623L230.903,218.025L232.159,203.454L233.416,196.34L234.673,200.314L235.929,230.486L237.186,232.105L238.442,239.857L239.699,249.865L240.956,249.718L242.212,261.297L243.469,259.579L244.726,278.174L245.982,273.464L247.239,263.799L248.496,265.761L249.752,263.21L251.009,262.719L252.265,262.817L253.522,267.969L254.779,285.042L256.035,277.438L257.292,269.637L258.549,263.014L259.805,259.825L261.062,265.123L262.319,263.063L263.575,273.366L264.832,272.384L266.088,264.191L267.345,257.813L268.602,261.64L269.858,269.833L271.115,270.569L272.372,274.396L273.628,265.123L274.885,267.675L276.142,255.262L277.398,262.916L278.655,264.093L279.912,284.993L281.168,288.82L282.425,293.824L283.681,272.875L284.938,265.271L286.195,260.414L287.451,258.647L288.708,260.953L289.965,256.292L291.221,262.278L292.478,245.744L293.735,237.649L294.991,247.952L296.248,265.859L297.504,276.26L298.761,281.068L300.018,283.766L301.274,298.534L302.531,288.28L303.788,291.665L305.044,280.381L306.301,284.404L307.558,276.604L308.814,280.283L310.071,278.615L311.327,282.442L312.584,276.751L313.841,276.996L315.097,272.679L316.354,283.325L317.611,279.4L318.867,283.963L320.124,277.928L321.381,271.109L322.637,268.263L323.894,262.572L325.15,269.49L326.407,277.29L327.664,270.373L328.92,268.165L330.177,274.445L331.434,286.514L332.69,296.817L333.947,281.804L335.204,289.458L336.46,282.687L337.717,288.771L338.973,284.306L340.23,276.015L341.487,262.082L342.743,253.643L344,272.826L345.257,271.452L346.513,271.599L347.77,257.617L349.027,263.161L350.283,270.716L351.54,270.177L352.796,279.694L354.053,269.637L355.31,269.244L356.566,254.87L357.823,255.704L359.08,255.556L360.336,266.791L361.593,258.255L362.85,242.653L364.106,208.605L365.363,213.266L366.619,232.105L367.876,264.486L369.133,273.905L370.389,282.246L371.646,287.152L372.903,287.299L374.159,288.476L375.416,288.133L376.673,286.416L377.929,284.11L379.186,281.313L380.442,277.536L381.699,273.071L382.956,276.407L384.212,264.24L385.469,249.964L386.726,234.706L387.982,250.16L389.239,257.666L390.496,256.881L391.752,253.594L393.009,252.269L394.265,262.817L395.522,266.546L396.779,281.559L398.035,292.303L399.292,304.372L400.549,298.436L401.805,298.239L403.062,287.25L404.319,282.785L405.575,285.876L406.832,287.888L408.088,292.941L409.345,294.118L410.602,296.964L411.858,299.466L413.115,300.791L414.372,300.594L415.628,291.322L416.885,278.762L418.142,281.755L419.398,284.944L420.655,294.609L421.912,300.692L423.168,307.512L424.425,314.822L425.681,324.242L426.938,331.208L428.195,307.463L429.451,288.329L430.708,276.26L431.965,283.08L433.221,301.576L434.478,310.505L435.735,334.25L436.991,334.103L438.248,330.227L439.504,324.094L440.761,307.806L442.018,300.496L443.274,270.373L444.531,254.575L445.788,265.32L447.044,289.556L448.301,316.294L449.558,312.909L450.814,314.626L452.071,308.101L453.327,313.792L454.584,310.308L455.841,299.073L457.097,292.597L458.354,288.329L459.611,309.965L460.867,320.415L462.124,335.182L463.381,329.687L464.637,326.94L465.894,315.999L467.15,310.161L468.407,300.496L469.664,294.315L470.92,293.137L472.177,309.229L473.434,321.592L474.69,331.306L475.947,327.087L477.204,332.827L478.46,329.982L479.717,320.268L480.973,306.285L482.23,288.771L483.487,275.377L484.743,270.373L486,281.706L487.257,301.379L488.513,316.588L489.77,323.8L491.027,320.611L492.283,313.595L493.54,314.282L494.796,318.845L496.053,303.047L497.31,282.246L498.566,277.977L499.823,303.293L501.08,329.05L502.336,341.168L503.593,335.231L504.85,332.974L506.106,326.253L507.363,316.049L508.619,290.144L509.876,276.555L511.133,272.139L512.389,295.1L513.646,307.855L514.903,316.196L516.159,315.656L517.416,314.233L518.673,319.483L519.929,307.316L521.186,308.052L522.442,303.195L523.699,315.803L524.956,323.751L526.212,328.412L527.469,330.325L528.726,332.484L529.982,346.81L531.239,348.38L532.496,324.291L533.752,300.938L535.009,277.83L536.265,286.121L537.522,301.821L538.779,330.571L540.035,334.741L541.292,333.858L542.549,334.299L543.805,342.983L545.062,343.375L546.319,341.756L547.575,333.71L548.832,336.163L550.088,329.442L551.345,338.911L552.602,344.504L553.858,357.603L555.115,357.063L556.372,356.72L557.628,353.531L558.885,360.203L560.142,346.761L561.398,326.351L562.655,301.526L563.912,303.096L565.168,312.32L566.425,331.012L567.681,339.058L568.938,349.165L570.195,342.198L571.451,334.839L572.708,323.555L573.965,322.525L575.221,320.17L576.478,322.083L577.735,321.396L578.991,328.412L580.248,330.08L581.504,327.627L582.761,316.441L584.018,316.588L585.274,321.494L586.531,338.567L587.788,335.28L589.044,330.914L590.301,324.83L591.558,335.133L592.814,351.618L594.071,355.935L595.327,351.765L596.584,345.927L597.841,351.618L599.097,354.12L600.354,355.837L601.611,352.354L602.867,349.802L604.124,352.599L605.381,348.281L606.637,343.523L607.894,344.258L609.15,355.641L610.407,369.034L611.664,366.091L612.92,355.248L614.177,340.775L615.434,335.133L616.69,343.768L617.947,351.961L619.204,347.742L620.46,347.496L621.717,353.04L622.973,361.037L624.23,353.089L625.487,349.999L626.743,345.779L628,338.518L629.257,327.725L630.513,334.005L631.77,346.025L633.027,344.847L634.283,336.213L635.54,328.951L636.796,335.378L638.053,333.073L639.31,333.024L640.566,332.631L641.823,336.409L643.08,338.813L644.336,338.42L645.593,338.616L646.85,332.582L648.106,335.918L649.363,341.707L650.619,342.787L651.876,351.274L653.133,347.251L654.389,347.938L655.646,343.032L656.903,343.572L658.159,351.421L659.416,353.433L660.673,357.701L661.929,366.483L663.186,369.966L664.442,364.472L665.699,351.814L666.956,337.292L668.212,326.548L669.469,317.177L670.726,325.615L671.982,336.507L673.239,353.973L674.496,344.16L675.752,334.397L677.009,331.454L678.265,342.051L679.522,345.632L680.779,336.507L682.035,308.689L683.292,307.561L684.549,305.5L685.805,330.08L687.062,339.598L688.319,349.214L689.575,358.29L690.832,360.988L692.088,346.859L693.345,315.411L694.602,299.907L695.858,295.345L697.115,313.399L698.372,323.849L699.628,342.149L700.885,342.002L702.142,341.854L703.398,334.25L704.655,339.058L705.912,327.627L707.168,312.271L708.425,298.141L709.681,305.893L710.938,317.569L712.195,327.038L713.451,333.661L714.708,332.68L715.965,326.94L717.221,311.486L718.478,315.705L719.735,307.463L720.991,290.095L722.248,267.871L723.504,275.77L724.761,294.952L726.018,304.323L727.274,303.342L728.531,311.339L729.788,326.891L731.044,332.533L732.301,330.276L733.558,319.434L734.814,309.131L736.071,319.728L737.327,328.608L738.584,336.948L739.841,320.366L741.097,321.2L742.354,329.835L743.611,334.005L744.867,324.389L746.124,305.549L747.381,307.708L748.637,309.916L749.894,328.019L751.15,328.412L752.407,338.911L753.664,340.039L754.92,343.179L756.177,342.492L757.434,337.979L758.69,336.605L759.947,322.868L761.204,321.887L762.46,324.536L763.717,348.576L764.973,355.248L766.23,352.991L767.487,350.146L768.743,354.169L770,360.596"/></g></svg>