<svg xmlns="http://www.w3.org/2000/svg" width="830" height="470" fill="currentColor" class="plot-d6a7b5" font-family="system-ui, sans-serif" font-size="10" style="--plot-background:white;display:block;height:intrinsic;max-width:100%;color:#1e90ff" text-anchor="middle" viewBox="0 0 830 470">
    <style>
        :where(.plot-d6a7b5 text),:where(.plot-d6a7b5 tspan){white-space:pre}
    </style>
    <path stroke="currentColor" stroke-opacity=".1" d="
M60
410
h710
M60
360.794
h710
M60
311.588
h710
M60
262.382
h710
M60
213.176
h710
M60
163.97
h710
M60
114.764
h710
M60
65.558
h710" aria-hidden="true" aria-label="y-grid"/>
    <path fill="none" stroke="currentColor" d="
M60
410
h-6
m6
-49.206
h-6
m6
-49.206
h-6
m6
-49.206
h-6
m6
-49.206
h-6
m6
-49.206
h-6
m6
-49.206
h-6
m6
-49.206
h-6" aria-hidden="true" aria-label="y-axis tick"/>
    <g aria-label="y-axis tick label" font-variant="tabular-nums" text-anchor="end">
        <text y=".32em" transform="translate(51 410)">0</text>
        <text y=".32em" transform="translate(51 360.794)">100,000</text>
        <text y=".32em" transform="translate(51 311.588)">200,000</text>
        <text y=".32em" transform="translate(51 262.382)">300,000</text>
        <text y=".32em" transform="translate(51 213.176)">400,000</text>
        <text y=".32em" transform="translate(51 163.97)">500,000</text>
        <text y=".32em" transform="translate(51 114.764)">600,000</text>
        <text y=".32em" transform="translate(51 65.558)">700,000</text>
    </g>
    <text y=".71em" aria-label="y-axis label" text-anchor="start" transform="translate(3 3)">↑ Total vestiges</text>
    <path fill="none" stroke="currentColor" d="
M81.363
410
v6
m57.177
-6
v6
m57.805
-6
v6
m57.805
-6
v6
m57.177
-6
v6
m57.177
-6
v6
m57.806
-6
v6
m57.805
-6
v6
m56.549
-6
v6
m57.176
-6
v6
m57.806
-6
v6
m57.805
-6
v6
M770
410
v6" aria-hidden="true" aria-label="x-axis tick"/>
    <g aria-label="x-axis tick label" font-variant="tabular-nums">
        <text transform="translate(81.363 419)"><tspan x="0" y=".71em">Apr</tspan><tspan x="0" dy="1em">2023</tspan></text>
        <text y=".71em" transform="translate(138.54 419)">Jul</text>
        <text y=".71em" transform="translate(196.345 419)">Oct</text>
        <text transform="translate(254.15 419)"><tspan x="0" y=".71em">Jan</tspan><tspan x="0" dy="1em">2024</tspan></text>
        <text y=".71em" transform="translate(311.327 419)">Apr</text>
        <text y=".71em" transform="translate(368.504 419)">Jul</text>
        <text y=".71em" transform="translate(426.31 419)">Oct</text>
        <text transform="translate(484.115 419)"><tspan x="0" y=".71em">Jan</tspan><tspan x="0" dy="1em">2025</tspan></text>
        <text y=".71em" transform="translate(540.664 419)">Apr</text>
        <text y=".71em" transform="translate(597.84 419)">Jul</text>
        <text y=".71em" transform="translate(655.646 419)">Oct</text>
        <text transform="translate(713.451 419)"><tspan x="0" y=".71em">Jan</tspan><tspan x="0" dy="1em">2026</tspan></text>
        <text y=".71em" transform="translate(770 419)">Apr</text>
    </g>
    <path fill="none" stroke="currentColor" stroke-linecap="round" stroke-linejoin="round" stroke-width="1.5" d="
m60
410
.419
-.247
.419
-.903
.419
-.488
.419
-.345
.418
-.57
.419
-.449
.419
-.42
.419
-.852
.419
-.673
.419
-.8
.419
-1.238
.419
-1.168
.418
-.606
.419
-.877
.419
-.596
.419
-.683
.419
-.893
.419
-.602
.419
-.589
.419
-.8
.418
-.888
.419
-.628
.419
-1.072
.419
-.508
.419
-.474
.419
-.854
.419
-.819
.419
-.63
.418
-.877
.419
-.876
.419
-.797
.419
-1.235
.419
-.981
.419
-.567
.419
-.592
.419
-.445
.419
-.36
.418
-.667
.419
-.653
.419
-.455
.419
-1.052
.419
-1.101
.419
-.986
.419
-1.194
.419
-.81
.418
-.69
.419
-.94
.419
-.786
.419
-.57
.419
-1.025
.419
-.992
.419
-.925
.419
-1.326
.418
-1.259
.419
-.655
.419
-.972
.419
-.877
.419
-.785
.419
-1.113
.419
-1.045
.419
-.908
.419
-1.091
.418
-1.046
.419
-.901
.419
-1.212
.419
-.746
.419
-.672
.419
-.939
.419
-.768
.419
-.574
.418
-.74
.419
-.799
.419
-.744
.419
-.977
.419
-.968
.419
-.551
.419
-.766
.419
-.598
.418
-.393
.419
-.609
.419
-.606
.419
-.643
.419
-.832
.419
-.847
.419
-.66
.419
-.916
.418
-.642
.419
-.42
.419
-.964
.419
-.666
.419
-.361
.419
-.604
.419
-.582
.419
-.606
.419
-.833
.418
-.724
.419
-.624
.419
-.542
.419
-.481
.419
-.461
.419
-.756
.419
-.43
.419
-.438
.418
-.71
.419
-.805
.419
-.631
.419
-.812
.419
-.547
.419
-.508
.419
-.737
.419
-.504
.418
-.48
.419
-.64
.419
-.501
.419
-.605
.419
-.642
.419
-.582
.419
-.482
.419
-.505
.418
-.442
.419
-.415
.419
-.586
.419
-.446
.419
-.402
.419
-.663
.419
-.862
.419
-.629
.419
-.818
.418
-.49
.419
-.561
.419
-.58
.419
-.529
.419
-.372
.419
-.738
.419
-.579
.419
-.609
.418
-.884
.419
-.65
.419
-.569
.419
-.581
.419
-.634
.419
-.491
.419
-.481
.419
-.636
.418
-.375
.419
-.498
.419
-.449
.419
-.422
.419
-.595
.419
-.43
.419
-.447
.419
-.6
.418
-.429
.419
-.396
.419
-.429
.419
-.504
.419
-.475
.419
-.495
.419
-.537
.419
-.421
.419
-.515
.418
-.434
.419
-.431
.419
-.598
.419
-.497
.419
-.393
.419
-.516
.419
-.49
.419
-.354
.418
-.609
.419
-.464
.419
-.479
.419
-.532
.419
-.453
.419
-.269
.419
-.493
.419
-.403
.418
-.479
.419
-.57
.419
-.451
.419
-.497
.419
-.547
.419
-.498
.419
-.437
.419
-.712
.419
-.579
.418
-.334
.419
-.533
.419
-.475
.419
-.285
.419
-.506
.419
-.327
.419
-.388
.419
-.472
.418
-.44
.419
-.348
.419
-.55
.419
-.403
.419
-.364
.419
-.512
.419
-.46
.419
-.362
.418
-.555
.419
-.354
.419
-.401
.419
-.509
.419
-.414
.419
-.47
.419
-.538
.419
-.471
.418
-.4
.419
-.46
.419
-.54
.419
-.423
.419
-.397
.419
-.419
.419
-.319
.419
-.547
.419
-.343
.418
-.387
.419
-.486
.419
-.387
.419
-.471
.419
-.626
.419
-.472
.419
-.278
.419
-.639
.418
-.471
.419
-.418
.419
-.584
.419
-.395
.419
-.423
.419
-.489
.419
-.495
.419
-.428
.418
-.633
.419
-.487
.419
-.429
.419
-.52
.419
-.573
.419
-.585
.419
-.862
.419
-.526
.418
-.397
.419
-.537
.419
-.431
.419
-.313
.419
-.488
.419
-.43
.419
-.301
.419
-.491
.419
-.447
.418
-.324
.419
-.52
.419
-.485
.419
-.369
.419
-.485
.419
-.608
.419
-.512
.419
-.639
.418
-.452
.419
-.437
.419
-.646
.419
-.485
.419
-.451
.419
-.541
.419
-.447
.419
-.3
.418
-.433
.419
-.327
.419
-.359
.419
-.435
.419
-.437
.419
-.404
.419
-.404
.419
-.417
.418
-.353
.419
-.392
.419
-.388
.419
-.328
.419
-.379
.419
-.391
.419
-.421
.419
-.505
.419
-.36
.418
-.389
.419
-.408
.419
-.299
.419
-.321
.419
-.335
.419
-.204
.419
-.251
.419
-.573
.418
-.397
.419
-.372
.419
-.504
.419
-.211
.419
-.282
.419
-.267
.419
-.212
.419
-.322
.418
-.327
.419
-.376
.419
-.395
.419
-.63
.419
-.534
.419
-.287
.419
-.387
.419
-.266
.419
-.321
.418
-.369
.419
-.332
.419
-.264
.419
-.404
.419
-.444
.419
-.329
.419
-.447
.419
-.228
.418
-.224
.419
-.299
.419
-.282
.419
-.252
.419
-.409
.419
-.341
.419
-.348
.419
-.471
.418
-.353
.419
-.187
.419
-.347
.419
-.255
.419
-.229
.419
-.29
.419
-.283
.419
-.327
.418
-.43
.419
-.459
.419
-.461
.419
-.48
.419
-.346
.419
-.264
.419
-.327
.419
-.274
.419
-.295
.418
-.398
.419
-.267
.419
-.25
.419
-.556
.419
-.475
.419
-.293
.419
-.302
.419
-.217
.418
-.171
.419
-.362
.419
-.239
.419
-.239
.419
-.464
.419
-.499
.419
-.375
.419
-.509
.418
-.269
.419
-.247
.419
-.425
.419
-.274
.419
-.261
.419
-.372
.419
-.397
.419
-.254
.418
-.421
.419
-.27
.419
-.174
.419
-.374
.419
-.251
.419
-.152
.419
-.231
.419
-.235
.419
-.394
.418
-.465
.419
-.466
.419
-.311
.419
-.308
.419
-.178
.419
-.269
.419
-.316
.419
-.174
.418
-.182
.419
-.312
.419
-.191
.419
-.263
.419
-.287
.419
-.258
.419
-.168
.419
-.231
.418
-.126
.419
-.174
.419
-.234
.419
-.159
.419
-.106
.419
-.369
.419
-.364
.419
-.355
.419
-.354
.418
-.27
.419
-.168
.419
-.273
.419
-.169
.419
-.238
.419
-.347
.419
-.282
.419
-.248
.418
-.371
.419
-.263
.419
-.255
.419
-.3
.419
-.247
.419
-.279
.419
-.413
.419
-.245
.418
-.23
.419
-.241
.419
-.278
.419
-.274
.419
-.302
.419
-.175
.419
-.109
.419
-.259
.418
-.216
.419
-.167
.419
-.202
.419
-.192
.419
-.15
.419
-.236
.419
-.217
.419
-.122
.419
-.28
.418
-.265
.419
-.115
.419
-.165
.419
-.131
.419
-.144
.419
-.275
.419
-.275
.419
-.201
.418
-.188
.419
-.193
.419
-.243
.419
-.191
.419
-.138
.419
-.162
.419
-.271
.419
-.168
.418
-.206
.419
-.343
.419
-.277
.419
-.142
.419
-.222
.419
-.289
.419
-.229
.419
-.295
.418
-.224
.419
-.252
.419
-.296
.419
-.228
.419
-.214
.419
-.272
.419
-.232
.419
-.212
.419
-.333
.418
-.198
.419
-.154
.419
-.322
.419
-.113
.419
-.195
.419
-.314
.419
-.163
.419
-.189
.418
-.236
.419
-.142
.419
-.146
.419
-.148
.419
-.108
.419
-.201
.419
-.275
.419
-.253
.418
-.309
.419
-.369
.419
-.168
.419
-.2
.419
-.194
.419
-.267
.419
-.297
.419
-.223
.418
-.161
.419
-.262
.419
-.314
.419
-.44
.419
-.273
.419
-.336
.419
-.193
.419
-.178
.419
-.238
.418
-.103
.419
-.15
.419
-.38
.419
-.418
.419
-.306
.419
-.426
.419
-.237
.419
-.201
.418
-.243
.419
-.238
.419
-.203
.419
-.319
.419
-.19
.419
-.317
.419
-.473
.419
-.332
.418
-.239
.419
-.356
.419
-.237
.419
-.173
.419
-.365
.419
-.295
.419
-.328
.419
-.323
.419
-.377
.418
-.502
.419
-.547
.419
-.297
.419
-.31
.419
-.453
.419
-.307
.419
-.23
.419
-.296
.418
-.251
.419
-.252
.419
-.405
.419
-.355
.419
-.146
.419
-.316
.419
-.27
.419
-.313
.418
-.307
.419
-.184
.419
-.271
.419
-.404
.419
-.373
.419
-.249
.419
-.382
.419
-.191
.418
-.245
.419
-.277
.419
-.18
.419
-.213
.419
-.284
.419
-.225
.419
-.228
.419
-.421
.419
-.235
.418
-.201
.419
-.18
.419
-.168
.419
-.224
.419
-.208
.419
-.128
.419
-.159
.419
-.34
.418
-.213
.419
-.162
.419
-.316
.419
-.222
.419
-.093
.419
-.19
.419
-.254
.419
-.19
.418
-.259
.419
-.281
.419
-.269
.419
-.415
.419
-.288
.419
-.186
.419
-.033
.419
-.004
.418
-.002
.419
-.002
.419
-.003
.419
-.005
.419
-.005
.419
-.022
.419
-.017
.419
-.01
.419
-.027
.418
-.043
.419
-.031
.419
-.039
.419
-.077
.419
-.103
.419
-.259
.419
-.175
.419
-.164
.418
-.147
.419
-.141
.419
-.161
.419
-.206
.419
-.184
.419
-.218
.419
-.226
.419
-.2
.418
-.244
.419
-.185
.419
-.142
.419
-.205
.419
-.22
.419
-.096
.419
-.143
.419
-.212
.418
-.12
.419
-.124
.419
-.186
.419
-.149
.419
-.216
.419
-.181
.419
-.108
.419
-.165
.419
-.143
.418
-.135
.419
-.094
.419
-.116
.419
-.07
.419
-.124
.419
-.132
.419
-.167
.419
-.237
.418
-.149
.419
-.097
.419
-.208
.419
-.158
.419
-.143
.419
-.15
.419
-.208
.419
-.143
.418
-.201
.419
-.136
.419
-.106
.419
-.161
.419
-.179
.419
-.187
.419
-.121
.419
-.167
.419
-.142
.418
-.179
.419
-.254
.419
-.19
.419
-.245
.419
-.136
.419
-.12
.419
-.166
.419
-.166
.418
-.14
.419
-.187
.419
-.213
.419
-.133
.419
-.239
.419
-.211
.419
-.171
.419
-.248
.418
-.143
.419
-.11
.419
-.087
.419
-.121
.419
-.153
.419
-.166
.419
-.351
.419
-.173
.418
-.266
.419
-.125
.419
-.121
.419
-.149
.419
-.222
.419
-.075
.419
-.163
.419
-.179
.419
-.161
.418
-.247
.419
-.305
.419
-.159
.419
-.267
.419
-.123
.419
-.166
.419
-.298
.419
-.219
.418
-.149
.419
-.241
.419
-.259
.419
-.139
.419
-.318
.419
-.144
.419
-.144
.419
-.209
.418
-.216
.419
-.146
.419
-.243
.419
-.19
.419
-.199
.419
-.291
.419
-.291
.419
-.209
.418
-.201
.419
-.266
.419
-.16
.419
-.165
.419
-.149
.419
-.211
.419
-.182
.419
-.195
.419
-.179
.418
-.191
.419
-.214
.419
-.066
.419
-.099
.419
-.152
.419
-.12
.419
-.286
.419
-.166
.418
-.117
.419
-.156
.419
-.333
.419
-.113
.419
-.168
.419
-.227
.419
-.171
.419
-.111
.418
-.148
.419
-.092
.419
-.126
.419
-.144
.419
-.149
.419
-.27
.419
-.189
.419
-.129
.419
-.236
.418
-.171
.419
-.172
.419
-.129
.419
-.13
.419
-.098
.419
-.165
.419
-.185
.419
-.081
.418
-.11
.419
-.12
.419
-.112
.419
-.132
.419
-.159
.419
-.174
.419
-.187
.419
-.104
.418
-.11
.419
-.177
.419
-.157
.419
-.099
.419
-.177
.419
-.164
.419
-.13
.419
-.155
.418
-.161
.419
-.174
.419
-.238
.419
-.326
.419
-.202
.419
-.217
.419
-.148
.419
-.144
.419
-.198
.418
-.139
.419
-.108
.419
-.133
.419
-.138
.419
-.153
.419
-.163
.419
-.231
.419
-.166
.418
-.265
.419
-.25
.419
-.257
.419
-.259
.419
-.23
.419
-.264
.419
-.284
.419
-.143
.418
-.187
.419
-.34
.419
-.176
.419
-.16
.419
-.221
.419
-.152
.419
-.078
.419
-.456
.418
-.395
.419
-.393
.419
-.422
.419
-.34
.419
-.245
.419
-.383
.419
-.402
.419
-.247
.419
-.234
.418
-.282
.419
-.26
.419
-.29
.419
-.32
.419
-.211
.419
-.13
.419
-.238
.419
-.135
.418
-.143
.419
-.188
.419
-.177
.419
-.207
.419
-.25
.419
-.249
.419
-.192
.419
-.194
.418
-.171
.419
-.151
.419
-.105
.419
-.077
.419
-.09
.419
-.114
.419
-.133
.419
-.093
.418
-.15
.419
-.101
.419
-.118
.419
-.104
.419
-.13
.419
-.105
.419
-.19
.419
-.137
.419
-.15
.418
-.116
.419
-.171
.419
-.178
.419
-.158
.419
-.12
.419
-.148
.419
-.109
.419
-.124
.418
-.081
.419
-.1
.419
-.11
.419
-.091
.419
-.159
.419
-.129
.419
-.112
.419
-.112
.418
-.134
.419
-.118
.419
-.152
.419
-.097
.419
-.173
.419
-.232
.419
-.222
.419
-.309
.419
-.134
.418
-.152
.419
-.159
.419
-.099
.419
-.166
.419
-.166
.419
-.165
.419
-.218
.419
-.385
.418
-.169
.419
-.111
.419
-.238
.419
-.142
.419
-.077
.419
-.158
.419
-.132
.419
-.104
.418
-.183
.419
-.208
.419
-.204
.419
-.289
.419
-.112
.419
-.098
.419
-.141
.419
-.124
.418
-.071
.419
-.084
.419
-.125
.419
-.064
.419
-.118
.419
-.106
.419
-.079
.419
-.099
.419
-.06
.418
-.096
.419
-.142
.419
-.118
.419
-.089
.419
-.184
.419
-.144
.419
-.131
.419
-.191
.418
-.055
.419
-.071
.419
-.126
.419
-.075
.419
-.079
.419
-.1
.419
-.064
.419
-.076
.418
-.183
.419
-.114
.419
-.041
.419
-.049
.419
-.07
.419
-.103
.419
-.099
.419
-.151
.418
-.08
.419
-.163
.419
-.23
.419
-.169
.419
-.252
.419
-.179
.419
-.115
.419
-.109
.419
-.108
.418
-.126
.419
-.097
.419
-.084
.419
-.147
.419
-.145
.419
-.159
.419
-.084
.419
-.146
.418
-.059
.419
-.072
.419
-.143
.419
-.092
.419
-.093
.419
-.107
.419
-.134
.419
-.123
.418
-.132
.419
-.079
.419
-.108
.419
-.129
.419
-.112
.419
-.106
.419
-.143
.419
-.1
.418
-.115
.419
-.177
.419
-.176
.419
-.07
.419
-.099
.419
-.114
.419
-.074
.419
-.103
.419
-.08
.418
-.043
.419
-.099
.419
-.05
.419
-.027
.419
-.068
.419
-.095
.419
-.049
.419
-.055
.418
-.104
.419
-.164
.419
-.107
.419
-.152
.419
-.059
.419
-.086
.419
-.067
.419
-.092
.418
-.092
.419
-.048
.419
-.066
.419
-.114
.419
-.088
.419
-.083
.419
-.15
.419
-.149
.419
-.079
.418
-.141
.419
-.079
.419
-.141
.419
-.107
.419
-.051
.419
-.062
.419
-.106
.419
-.085
.418
-.097
.419
-.173
.419
-.052
.419
-.126
.419
-.105
.419
-.083
.419
-.066
.419
-.083
.418
-.061
.419
-.079
.419
-.086
.419
-.137
.419
-.113
.419
-.237
.419
-.168
.419
-.135
.418
-.16
.419
-.12
.419
-.112
.419
-.192
.419
-.198
.419
-.104
.419
-.181
.419
-.109
.419
-.066
.418
-.124
.419
-.085
.419
-.094
.419
-.064
.419
-.137
.419
-.084
.419
-.098
.419
-.093
.418
-.111
.419
-.079
.419
-.089
.419
-.08
.419
-.09
.419
-.131
.419
-.096
.419
-.168
.418
-.102
.419
-.107
.419
-.132
.419
-.128
.419
-.138
.419
-.149
.419
-.105
.419
-.063
.418
-.13
.419
-.111
.419
-.1
.419
-.127
.419
-.146
.419
-.206
.419
-.26
.419
-.187
.419
-.101
.418
-.113
.419
-.087
.419
-.099
.419
-.139
.419
-.089
.419
-.071
.419
-.186
.419
-.162
.418
-.081
.419
-.142
.419
-.118
.419
-.109
.419
-.118
.419
-.156
.419
-.186
.419
-.121
.418
-.121
.419
-.082
.419
-.102
.419
-.09
.419
-.039
.419
-.172
.419
-.076
.419
-.12
.419
-.155
.418
-.127
.419
-.18
.419
-.17
.419
-.118
.419
-.117
.419
-.193
.419
-.099
.419
-.104
.418
-.172
.419
-.108
.419
-.128
.419
-.177
.419
-.087
.419
-.096
.419
-.152
.419
-.102
.418
-.189
.419
-.103
.419
-.176
.419
-.15
.419
-.095
.419
-.086
.419
-.118
.419
-.23
.418
-.222
.419
-.144
.419
-.194
.419
-.123
.419
-.146
.419
-.22
.419
-.168
.419
-.144
.419
-.145
.418
-.098
.419
-.121
.419
-.113
.419
-.128
.419
-.113
.419
-.131
.419
-.103
.419
-.121
.418
-.181
.419
-.136
.419
-.085
.419
-.081
.419
-.1
.419
-.096
.419
-.092
.419
-.063
.418
-.067
.419
-.11
.419
-.057
.419
-.07
.419
-.101
.419
-.099
.419
-.086
.419
-.137
.418
-.07
.419
-.113
.419
-.074
.419
-.149
.419
-.066
.419
-.123
.419
-.047
.419
-.058
.419
-.164
.418
-.086
.419
-.099
.419
-.047
.419
-.068
.419
-.117
.419
-.072
.419
-.07
.419
-.024
.418
-.072
.419
-.031
.419
-.068
.419
-.047
.419
-.111
.419
-.114
.419
-.109
.419
-.036
.418
-.065
.419
-.052
.419
-.033
.419
-.02
.419
-.095
.419
-.071
.419
-.081
.419
-.032
.418
-.061
.419
-.057
.419
-.093
.419
-.025
.419
-.045
.419
-.04
.419
-.086
.419
-.085
.419
-.062
.418
-.053
.419
-.052
.419
-.04
.419
-.035
.419
-.019
.419
-.018
.419
-.039
.419
-.061
.418
-.011
.419
-.033
.419
-.015
.419
-.027
.419
-.017
.419
-.014
.419
-.018
.419
-.013
.418
-.008
.419
-.027
.419
-.051
.419
-.02
.419
-.029
.419
-.002
.419
-.039
.419
-.033
.419
-.042
.418
-.023
.419
-.077
.419
-.028
.419
-.021
.419
-.028
.419
-.038
.419
-.037
.419
-.01
.418
-.009
.419
-.015
.419
-.017
.419
-.026
.419
-.039
.419
-.034
.419
-.029
.419
-.048
.418
-.061
.419
-.04
.419
-.038
.419
-.042
.419
-.012
.419
-.041
.419
-.058
.419
-.028
.418
-.073
.419
-.065
.419
-.042
.419
-.062
.419
-.026
.419
-.024
.419
-.02
.419
-.051
.419
-.086
.418
-.019
.419
-.073
.419
-.054
.419
-.029
.419
-.027
.419
-.017
.419
-.032
.419
-.038
.418
-.055
.419
-.049
.419
-.061
.419
-.047
.419
-.014
.419
-.06
.419
-.031
.419
-.022
.418
-.001
.419
-.026
.419
-.026
.419
-.034
.419
-.044
.419
-.016
.419
-.034
.419
-.017
.418
-.018
.419
-.019
.419
-.021
.419
-.017
.419
-.041
.419
-.022
.419
-.028
.419
-.068
.419
-.045
.418
-.028
.419
-.04
.419
-.06
.419
-.053
.419
-.025
.419
-.042
.419
-.052
.419
-.039
.418
-.027
.419
-.043
.419
-.07
.419
-.013
.419
-.012
.419
-.036
.419
-.068
.419
-.029
.418
-.073
.419
-.047
.419
-.03
.419
-.093
.419
-.061
.419
-.024
.419
-.061
.419
-.017
.418
-.041
.419
-.004
.419
-.03
.419
-.018
.419
-.016
.419
-.033
.419
-.028
.419
-.051
.419
-.049
.418
-.086
.419
-.033
.419
-.038
.419
-.015
.419
-.046
.419
-.04
.419
-.071
.419
-.017
.418
-.031
.419
-.056
.419
-.05
.419
-.017
.419
-.051
.419
-.04
.419
-.005
.419
-.028
.418
-.036
.419
-.051
.419
-.036
.419
-.032
.419
-.023
.419
-.06
.419
-.07
.419
-.039
.419
-.025
.418
-.071
.419
-.033
.419
-.03
.419
-.016
.419
-.026
.419
-.02
.419
-.059
.419
-.031
.418
-.015
.419
-.013
.419
-.047
.419
-.007
.419
-.039
.419
-.034
.419
-.025
.419
-.008
.418
-.001
.419
-.011
.419
-.007
.419
-.015
.419
-.03
.419
-.013
.419
-.013
.419
-.014
.418
-.012
.419
-.027
.419
-.058
.419
-.008
.419
-.038
.419
-.073
.419
-.106
.419
-.083
.419
-.021
.418
-.024
.419
-.032
.419
-.024
.419
-.019
.419
-.033
.419
-.051
.419
-.061
.419
-.031
.418
-.019
.419
-.002
.419
-.026
.419
-.062
.419
-.026
.419
-.021
.419
-.03
.419
-.026
.418
-.05
.419
-.035
.419
-.067
.419
-.002
.419
-.004
.419
-.018
.419
-.024
.419
-.001
.418
-.067
.419
-.022
.419
-.05
.419
-.059
h.419
l.419
-.003
.419
-.005
.419
-.009
.419
-.012
.418
-.015
.419
-.005
.419
-.038
.419
-.019
.419
-.018
.419
-.008
.419
-.003
.419
-.004
.418
-.001
.419
-.003
.419
-.002
.419
-.024
.419
-.039
.419
-.09
.419
-.094
.419
-.052
.418
-.014
h.419
l.419
-.035
.419
-.035
.419
-.024
.419
-.032
.419
-.078
.419
-.064
.419
-.035
.418
-.061
.419
-.03
.419
-.019
.419
-.028
.419
-.016
.419
-.043
.419
-.049
.419
-.021
.418
-.008
.419
-.049
.419
-.046
.419
-.065
.419
-.018
.419
-.002
.419
-.005
.419
-.017
.418
-.025
.419
-.014
.419
-.006
.419
-.014
.419
-.002
.419
-.025
.419
-.028
.419
-.043
.418
-.008
.419
-.016
.419
-.019
.419
-.016
.419
-.036
.419
-.033
.419
-.042
.419
-.024
.419
-.009
.418
-.015
.419
-.021
.419
-.033
.419
-.007
.419
-.017
.419
-.039
.419
-.04
.419
-.004
.418
-.026
.419
-.019
.419
-.017
.419
-.011
.419
-.018
.419
-.002
.419
-.002
.419
-.021
h.418
l.419
-.021
.419
-.027
h.419
l.419
-.013
.419
-.013
.419
-.023
.419
-.028
.418
-.032
.419
-.006
.419
-.016
.419
-.004
.419
-.009
.419
-.016
.419
-.048
.419
-.004
.419
-.025
.418
-.022
.419
-.008
.419
-.027
.419
-.026
.419
-.031
.419
-.041
.419
-.041
.419
-.028
.418
-.048
.419
-.008
.419
-.017
.419
-.011
.419
-.012
.419
-.003
.419
-.001
.419
-.004
.418
-.015
.419
-.015
.419
-.008
.419
-.015
.419
-.027
.419
-.011
.419
-.038
.419
-.013
.418
-.014
.419
-.012
.419
-.02
.419
-.008
.419
-.012
.419
-.042
.419
-.013
.419
-.023
.419
-.027
.418
-.002
.419
-.012
.419
-.021
.419
-.023
.419
-.004
.419
-.039
.419
-.022
.419
-.011
.418
-.014
.419
-.04
.419
-.017
.419
-.022
.419
-.014
.419
-.012
.419
-.042
.419
-.001
h.418
l.419
-.035
.419
-.057
.419
-.029
.419
-.004
.419
-.002
.419
-.002
.419
-.014
.419
-.012
.418
-.016
.419
-.047
.419
-.031
.419
-.024
.419
-.014
.419
-.051
.419
-.044
.419
-.008
.418
-.028
.419
-.01
.419
-.017
.419
-.004
.419
-.021
.419
-.015
.419
-.025
.419
-.033
.418
-.098
.419
-.044
.419
-.035
.419
-.064
.419
-.054
.419
-.025
.419
-.074
.419
-.006
.418
-.039
.419
-.016
.419
-.039
.419
-.014
.419
-.045
.419
-.021
.419
-.028
.419
-.04
.419
-.031
.418
-.045
.419
-.052
.419
-.013
.419
-.012
.419
-.058
.419
-.031
.419
-.035
.419
-.041
.418
-.03
.419
-.031
.419
-.023
.419
-.052
.419
-.021
.419
-.027
.419
-.051
.419
-.039
.418
-.069
.419
-.043
.419
-.013
.419
-.025
.419
-.02
.419
-.009
.419
-.077
.419
-.03
.418
-.028
.419
-.026
.419
-.055
.419
-.019
.419
-.011
.419
-.014
.419
-.006
.419
-.044
.419
-.025
.418
-.028
.419
-.006
.419
-.008
.419
-.009
.419
-.055
.419
-.035
.419
-.047
.419
-.046
.418
-.103
.419
-.098
.419
-.093
.419
-.065
.419
-.089
.419
-.106
.419
-.038
.419
-.101
.418
-.074
.419
-.052
.419
-.084
.419
-.06
.419
-.098
.419
-.045
.419
-.11
.419
-.051
.418
-.048
.419
-.049
.419
-.017
.419
-.063
.419
-.09
.419
-.04
.419
-.043
.419
-.143
.419
-.041
.418
-.069
.419
-.069
.419
-.072
.419
-.034
.419
-.093
.419
-.071
.419
-.046
.419
-.041
.418
-.041
.419
-.035
.419
-.048
.419
-.011
.419
-.013
.419
-.04
.419
-.03
.419
-.056
.418
-.058
.419
-.018
.419
-.049
.419
-.023
.419
-.022
.419
-.036
.419
-.036
.419
-.017
.419
-.01
.418
-.045
.419
-.038
.419
-.046
.419
-.056
.419
-.071
.419
-.032
.419
-.037
.419
-.02
.418
-.062
.419
-.027
.419
-.017
.419
-.036
.419
-.032
.419
-.015
.419
-.035
.419
-.044
.418
-.026
.419
-.049
.419
-.016
.419
-.069
.419
-.008
.419
-.034
.419
-.024
.419
-.019
.418
-.018
.419
-.038
.419
-.019
.419
-.022
L770
60" aria-label="line"/>
</svg>
