<svg class="plot-d6a7b5" fill="currentColor" font-family="system-ui, sans-serif" font-size="10" text-anchor="middle" width="830" height="564" xmlns="http://www.w3.org/2000/svg" xmlns:xlink="http://www.w3.org/1999/xlink" color="#1e90ff"><style>:where(.plot-d6a7b5){--plot-background: white;display:block;height:intrinsic;max-width:100%}:where(.plot-d6a7b5 text),:where(.plot-d6a7b5 tspan){white-space:pre}</style><path d="M60 410h710M60 375h710M60 340h710M60 305h710M60 270h710M60 235h710M60 200h710M60 165h710M60 130h710M60 95h710M60 60h710" aria-label="y-grid" stroke="currentColor" stroke-opacity=".1"/><path d="M60 410h-6m6-35h-6m6-35h-6m6-35h-6m6-35h-6m6-35h-6m6-35h-6m6-35h-6m6-35h-6m6-35h-6m6-35h-6" aria-label="y-axis tick" fill="none" stroke="currentColor"/><g aria-label="y-axis tick label" text-anchor="end" font-variant="tabular-nums"><text y=".32em" transform="translate(51 410)">0%</text><text y=".32em" transform="translate(51 375)">10%</text><text y=".32em" transform="translate(51 340)">20%</text><text y=".32em" transform="translate(51 305)">30%</text><text y=".32em" transform="translate(51 270)">40%</text><text y=".32em" transform="translate(51 235)">50%</text><text y=".32em" transform="translate(51 200)">60%</text><text y=".32em" transform="translate(51 165)">70%</text><text y=".32em" transform="translate(51 130)">80%</text><text y=".32em" transform="translate(51 95)">90%</text><text y=".32em" transform="translate(51 60)">100%</text></g><text y=".71em" transform="translate(3 3)" aria-label="y-axis label" text-anchor="start">↑ Frequency</text><path d="M108.045 410v6m53.384-6v6m55.162-6v6m53.384-6v6m55.163-6v6m55.162-6v6m53.384-6v6m55.163-6v6m53.383-6v6m55.163-6v6m55.163-6v6m51.604-6v6m55.163-6v6" aria-label="x-axis tick" fill="none" stroke="currentColor"/><g aria-label="x-axis tick label" font-variant="tabular-nums"><text transform="translate(108.045 419)"><tspan x="0" y=".71em">Apr</tspan><tspan x="0" dy="1em">2023</tspan></text><text y=".71em" transform="translate(161.429 419)">May</text><text y=".71em" transform="translate(216.591 419)">Jun</text><text y=".71em" transform="translate(269.975 419)">Jul</text><text y=".71em" transform="translate(325.138 419)">Aug</text><text y=".71em" transform="translate(380.3 419)">Sep</text><text y=".71em" transform="translate(433.684 419)">Oct</text><text y=".71em" transform="translate(488.847 419)">Nov</text><text y=".71em" transform="translate(542.23 419)">Dec</text><text transform="translate(597.393 419)"><tspan x="0" y=".71em">Jan</tspan><tspan x="0" dy="1em">2024</tspan></text><text y=".71em" transform="translate(652.556 419)">Feb</text><text y=".71em" transform="translate(704.16 419)">Mar</text><text y=".71em" transform="translate(759.323 419)">Apr</text></g><text transform="translate(827 467)" aria-label="x-axis label" text-anchor="end">timestamp →</text><g aria-label="rect"><path fill="#70223b" d="M60.5 137.239h11.456v40.504H60.5zm12.456-2.719h11.456v45.868H72.956zm12.456-4.306h11.456v40.991H85.412zm12.456-11.618h11.456v37.039H97.868zm12.457-4.8h11.456v35.64h-11.456zm12.456 12.207h11.456v44.941h-11.456zm12.456 1.622h11.456v38.209h-11.456zm12.456 1.633h11.456v46.106h-11.456zm12.456 5.516h11.456v44.001h-11.456zm12.456-3.571h11.456v35.927h-11.456zm12.456-6.055h11.456v33.338h-11.456zm12.457 4.662h11.456v35.8h-11.456zm12.456-.599h11.456v27.393h-11.456zm12.456-3.175h11.456v31.552H222.43zm12.456-10.461h11.456v33.861h-11.456zm12.456-2.293h11.456v34.474h-11.456zm12.456 19.259h11.456v35.635h-11.456zm12.456-2.103h11.456v48.045h-11.456zm12.457-6.309h11.456v49.523h-11.456zm12.456-6.328h11.456v46.089h-11.456zm12.456-16.325h11.456v45.526h-11.456zm12.456 14.402h11.456v29.462h-11.456zm12.456 11.501h11.456v36.557h-11.456zm12.456-22.798h11.456v39.843h-11.456zm12.456 6.269h11.456v41.074h-11.456zm12.457 4.231h11.456v30.466h-11.456zm12.456-2.885h11.456v41.086H384.36zm12.456.25h11.456v35.894h-11.456zm12.456 5.924h11.456v26.467h-11.456zm12.456.874h11.456v34.627h-11.456zm12.456 6.816h11.456v33.71h-11.456zm12.456-4.502h11.456v31.294H446.64zm12.456 14.007h11.456v36.775h-11.456zm12.457 7.171h11.456v33.598h-11.456zm12.456-4.611h11.456v35.07h-11.456zm12.456 1.693h11.456v31.18h-11.456zm12.456-23.203h11.456v34.059h-11.456zm12.456-9.996h11.456v37.93h-11.456zm12.456 7.514h11.456v25.375h-11.456zm12.456 8.889h11.456v27.975h-11.456zm12.457-6.207h11.456v18.469h-11.456zm12.456-13.134h11.456v40.272h-11.456zm12.456 14.797h11.456v34.234h-11.456zm12.456 20.287h11.456v26.353h-11.456zm12.456 9.441h11.456v38.289H608.57zm12.456-21.839h11.456v30.631h-11.456zm12.456 13.707h11.456v37.192h-11.456zm12.457-16.54h11.456v30.792h-11.456zm12.456.894h11.456v41.844h-11.456zm12.456 2.945h11.456v27.916h-11.456zm12.456 5.808h11.456v33.746h-11.456zm12.456-11.772h11.456v34.3h-11.456zm12.456-14.139h11.456v18.11h-11.456zm12.456 23.636h11.456v14.293h-11.456zm12.457-9.197h11.456v17.194h-11.456zm12.456 13.615h11.456v16.169h-11.456zm12.456-7.819H769.5v24.507h-11.456z"/><path fill="#00000f" d="M60.5 256.21h11.456V410H60.5zm12.456 2.934h11.456V410H72.956zm12.456-3.648h11.456V410H85.412zm12.456-20.204h11.456V410H97.868zm12.457-2.874h11.456V410h-11.456zm12.456 8.707h11.456V410h-11.456zm12.456 22.342h11.456V410h-11.456zm12.456-9.421h11.456V410h-11.456zm12.456 3.243h11.456V410h-11.456zm12.456 12.12h11.456V410h-11.456zm12.456-6.51h11.456V410h-11.456zm12.457-14.054h11.456V410h-11.456zm12.456 1.751h11.456V410h-11.456zm12.456 6.831h11.456V410H222.43zm12.456-5.823h11.456V410h-11.456zm12.456-19.056h11.456V410h-11.456zm12.456 38.722h11.456V410h-11.456zm12.456 9.31h11.456V410h-11.456zm12.457-1.386h11.456V410h-11.456zm12.456-21.948h11.456V410h-11.456zm12.456-16.643h11.456V410h-11.456zm12.456-11.228h11.456V410h-11.456zm12.456 26.953h11.456V410h-11.456zm12.456-11.622h11.456V410h-11.456zm12.456 7.721h11.456V410h-11.456zm12.457 9.131h11.456V410h-11.456zm12.456-25.47h11.456V410H384.36zm12.456 6.266h11.456V410h-11.456zm12.456-3.411h11.456V410h-11.456zm12.456 1.854h11.456V410h-11.456zm12.456 6.599h11.456V410h-11.456zm12.456 17.844h11.456V410H446.64zm12.456 13.344h11.456V410h-11.456zm12.457-19.467h11.456V410h-11.456zm12.456 3.966h11.456V410h-11.456zm12.456-4.537h11.456V410h-11.456zm12.456-17.048h11.456V410h-11.456zm12.456 1.621h11.456V410h-11.456zm12.456-10.044h11.456V410h-11.456zm12.456 20.077h11.456V410h-11.456zm12.457-2.085h11.456V410h-11.456zm12.456-12.698h11.456V410h-11.456zm12.456 22.773h11.456V410h-11.456zm12.456 24.435h11.456V410h-11.456zm12.456 3.825h11.456V410H608.57zm12.456-16.909h11.456V410h-11.456zm12.456 6.407h11.456V410h-11.456zm12.457-40.945h11.456V410h-11.456zm12.456 36.699h11.456V410h-11.456zm12.456-25.907h11.456V410h-11.456zm12.456 14.669h11.456V410h-11.456zm12.456-9.771h11.456V410h-11.456zm12.456-6.252h11.456V410h-11.456zm12.456-20.76h11.456V410h-11.456zm12.457 21.086h11.456V410h-11.456zm12.456 47.915h11.456V410h-11.456zm12.456-50.052H769.5V410h-11.456z"/><path fill="#f0c097" d="M60.5 177.743h11.456v23.386H60.5zm12.456 2.645h11.456v17.049H72.956zm12.456-9.182h11.456v18.293H85.412zm12.456-15.571h11.456v16.863H97.868zm12.457-6.199h11.456v21.324h-11.456zm12.456 21.509h11.456v16.406h-11.456zm12.456-5.111h11.456v21.594h-11.456zm12.456 9.53h11.456v15.929h-11.456zm12.456 3.411h11.456v20.928h-11.456zm12.456-11.645h11.456v16.798h-11.456zm12.456-8.645h11.456v26.89h-11.456zm12.457 7.125h11.456v16.707h-11.456zm12.456-9.006h11.456v14.186h-11.456zm12.456.984h11.456v18.215H222.43zm12.456-8.152h11.456v13.111h-11.456zm12.456-1.68h11.456v11.468h-11.456zm12.456 20.42h11.456v23.388h-11.456zm12.456 10.307h11.456v13.761h-11.456zm12.457-4.831h11.456v19.809h-11.456zm12.456-9.762h11.456v15.211h-11.456zm12.456-16.888h11.456v18.993h-11.456zm12.456-1.662h11.456v17.994h-11.456zm12.456 18.596h11.456v15.429h-11.456zm12.456-19.512h11.456v18.03h-11.456zm12.456 7.5h11.456v18.624h-11.456zm12.457-6.378h11.456v35.439h-11.456zm12.456 7.736h11.456v13.514H384.36zm12.456-4.943h11.456v23.598h-11.456zm12.456-3.501h11.456v25.13h-11.456zm12.456 9.033h11.456v16.599h-11.456zm12.456 5.899h11.456v12.748h-11.456zm12.456-6.918h11.456v20.566H446.64zm12.456 19.488h11.456v26.647h-11.456zm12.457 3.994h11.456v17.203h-11.456zm12.456-3.138h11.456v11.007h-11.456zm12.456-2.198h11.456v6.378h-11.456zm12.456-20.324h11.456v20.54h-11.456zm12.456-6.125h11.456v14.92h-11.456zm12.456-5.041h11.456v6.3h-11.456zm12.456 11.489h11.456v6.365h-11.456zm12.457-15.713h11.456v15.902h-11.456zm12.456 8.668h11.456v9.275h-11.456zm12.456 8.76h11.456v17.45h-11.456zm12.456 12.405h11.456v14.975h-11.456zm12.456 21.378h11.456v13.787H608.57zm12.456-29.497h11.456v10.807h-11.456zm12.456 20.268h11.456v21.501h-11.456zm12.457-22.94h11.456v18.026h-11.456zm12.456 11.946h11.456v25.381h-11.456zm12.456-10.984h11.456v12.339h-11.456zm12.456 11.64h11.456v9.279h-11.456zm12.456-11.219h11.456v10.309h-11.456zm12.456-30.329h11.456v8.364h-11.456zm12.456 19.819h11.456v6.275h-11.456zm12.457-6.296h11.456v16.252h-11.456zm12.456 12.59h11.456v15.38h-11.456zm12.456.518H769.5v12.922h-11.456z"/><path fill="#ff7373" d="M60.5 201.129h11.456v21.429H60.5zm12.456-3.692h11.456v28.443H72.956zm12.456-7.938h11.456v28.827H85.412zm12.456-17.001h11.456v18.085H97.868zm12.457-1.738h11.456v22.665h-11.456zm12.456 16.591h11.456v16.266h-11.456zm12.456.077h11.456v19.437h-11.456zm12.456 3.865h11.456v18.081h-11.456zm12.456 8.41h11.456v19.443h-11.456zm12.456-15.775h11.456v23.138h-11.456zm12.456 1.447h11.456v20.443h-11.456zm12.457-3.058h11.456v15.378h-11.456zm12.456-11.527h11.456v20.449h-11.456zm12.456 5.013h11.456v24.423H222.43zm12.456-13.257h11.456v29.147h-11.456zm12.456-3.322h11.456v21.771h-11.456zm12.456 32.34h11.456v24.756h-11.456zm12.456.68h11.456v27.364h-11.456zm12.457 1.217h11.456v24.977h-11.456zm12.456-14.361h11.456v22.36h-11.456zm12.456-13.105h11.456v13.546h-11.456zm12.456-2.661h11.456v17.435h-11.456zm12.456 16.031h11.456v22.508h-11.456zm12.456-16.912h11.456v26.058h-11.456zm12.456 8.096h11.456v35.433h-11.456zm12.457 10.436h11.456v22.275h-11.456zm12.456-14.189h11.456v18.502H384.36zm12.456 5.142h11.456v15.511h-11.456zm12.456-1.97h11.456v20.942h-11.456zm12.456.502h11.456v21.246h-11.456zm12.456 2.048h11.456v22.876h-11.456zm12.456.901h11.456v26.047H446.64zm12.456 25.568h11.456v20.993h-11.456zm12.457-5.45h11.456v21.005h-11.456zm12.456-9.335h11.456v28.758h-11.456zm12.456-6.827h11.456v18.747h-11.456zm12.456-6.161h11.456v22.258h-11.456zm12.456-11.745h11.456v15.28h-11.456zm12.456-13.661h11.456v15.225h-11.456zm12.456 11.554h11.456v19.488h-11.456zm12.457-6.176h11.456v12.672h-11.456zm12.456 2.042h11.456v17.282h-11.456zm12.456 16.934h11.456v29.239h-11.456zm12.456 9.93h11.456v20.04h-11.456zm12.456 20.19h11.456v16.777H608.57zm12.456-32.477h11.456v23.073h-11.456zm12.456 30.961h11.456v20.003h-11.456zm12.457-26.414h11.456v17.021h-11.456zm12.456 19.3h11.456v26.753h-11.456zm12.456-24.025h11.456v27.399h-11.456zm12.456 8.579h11.456v20.436h-11.456zm12.456-10.188h11.456v22.273h-11.456zm12.456-32.273h11.456v31.079h-11.456zm12.456 17.729h11.456v27.958h-11.456zm12.457 3.681h11.456v31.797h-11.456zm12.456 11.718h11.456v49.099h-11.456zm12.456-1.94H769.5v31.859h-11.456z"/><path fill="#16234f" d="M60.5 60h11.456v8.351H60.5zm12.456 0h11.456v8.201H72.956zm12.456 0h11.456v5.966H85.412zm12.456 0h11.456v3.525H97.868zm12.457 0h11.456v1.157h-11.456zm12.456 0h11.456v4.616h-11.456zm12.456 0h11.456v5.807h-11.456zm12.456 0h11.456v2.919h-11.456zm12.456 0h11.456v4.565h-11.456zm12.456 0h11.456v3.874h-11.456zm12.456 0h11.456v5.164h-11.456zm12.457 0h11.456v1.031h-11.456zm12.456 0h11.456v4.007h-11.456zm12.456 0h11.456v4.434H222.43zm12.456 0h11.456v4.474h-11.456zm12.456 0h11.456v.529h-11.456zm12.456 0h11.456v5.668h-11.456zm12.456 0h11.456v5.886h-11.456zm12.457 0h11.456v5.455h-11.456zm12.456 0h11.456v6.731h-11.456zm12.456 0h11.456v1.92h-11.456zm12.456 0h11.456v4.102h-11.456zm12.456 0h11.456v.508h-11.456zm12.456 0h11.456v1.152h-11.456zm12.456 0h11.456v3.207h-11.456zm12.457 0h11.456v4.597h-11.456zm12.456 0h11.456v2.403H384.36zm12.456 0h11.456v2.27h-11.456zm12.456 0h11.456v7.708h-11.456zm12.456 0h11.456v5.618h-11.456zm12.456 0h11.456v1.411h-11.456zm12.456 0h11.456v2.389H446.64zm12.456 0h11.456v2.507h-11.456zm12.457 0h11.456v2.614h-11.456zm12.456 0h11.456v1.888h-11.456zm12.456 0h11.456v.451h-11.456zm12.456 0h11.456v4.407h-11.456zm12.456 0h11.456v2.517h-11.456zm12.456 0h11.456v4.783h-11.456zm12.456 0h11.456v4.401h-11.456zm12.457 0h11.456v8.945h-11.456zm12.456 0h11.456v4.757h-11.456zm12.456 0h11.456v3.796h-11.456zm12.456 0h11.456v5.285h-11.456zm12.456 0h11.456v10.216H608.57zm12.456 0h11.456v1.591h-11.456zm12.456 0h11.456v8.984h-11.456zm12.457 0h11.456v.946h-11.456zm12.456 0h11.456v5.382h-11.456zm12.456 0h11.456v2.393h-11.456zm12.456 0h11.456v6.186h-11.456zm12.456 0h11.456v7.891h-11.456zm12.456 0h11.456v1.381h-11.456zm12.456 0h11.456v37.44h-11.456zm12.457 0h11.456v33.445h-11.456zm12.456 0h11.456v3.549h-11.456z"/><path fill="#ffff73" d="M60.5 222.557h11.456v7.351H60.5zm12.456 3.324h11.456v8.806H72.956zm12.456-7.555h11.456v4.358H85.412zm12.456-27.742h11.456v5.509H97.868zm12.457 2.841h11.456v6.471h-11.456zm12.456 10.192h11.456v3.877h-11.456zm12.456 3.247h11.456v5.499h-11.456zm12.456 2.511h11.456v9.523h-11.456zm12.456 9.771h11.456v5.885h-11.456zm12.456-12.08h11.456v6.448h-11.456zm12.456-1.248h11.456v8.067h-11.456zm12.457-8.123h11.456v6.238h-11.456zm12.456-6.456h11.456v4.956h-11.456zm12.456 8.986h11.456v5.389H222.43zm12.456-8.532h11.456v5.299h-11.456zm12.456-10.698h11.456v5.61h-11.456zm12.456 35.324h11.456v4.658h-11.456zm12.456 3.289h11.456v11.335h-11.456zm12.457-1.17h11.456v6.065h-11.456zm12.456-16.978h11.456v4.183h-11.456zm12.456-21.919h11.456v5.167h-11.456zm12.456 1.228h11.456v5.625h-11.456zm12.456 21.104h11.456v6.716h-11.456zm12.456-13.362h11.456v9.344h-11.456zm12.456 17.47h11.456v8.81h-11.456zm12.457-2.721h11.456v7.355h-11.456zm12.456-17.962h11.456v6.712H384.36zm12.456 2.151h11.456v5.58h-11.456zm12.456 3.461h11.456v6.461h-11.456zm12.456.806h11.456v9.142h-11.456zm12.456 3.678h11.456v8.516h-11.456zm12.456 4.072h11.456v6.278H446.64zm12.456 20.514h11.456v7.473h-11.456zm12.457-5.438h11.456v5.227h-11.456zm12.456-1.582h11.456v3.993h-11.456zm12.456-16.838h11.456v11.016h-11.456zm12.456-2.65h11.456v5.901h-11.456zm12.456-18.723h11.456v8.389h-11.456zm12.456-13.716h11.456v14.817h-11.456zm12.456 15.817h11.456v5.501h-11.456zm12.457-12.993h11.456v8.779h-11.456zm12.456 6.653h11.456v15.934h-11.456zm12.456 28.891h11.456v17.05h-11.456zm12.456.731h11.456v10.497h-11.456zm12.456 16.928h11.456v6.728H608.57zm12.456-26.183h11.456v13.127h-11.456zm12.456 27.893h11.456v11.619h-11.456zm12.457-29.396h11.456v15.78h-11.456zm12.456 29.031h11.456v11.767h-11.456zm12.456-23.378h11.456v9.899h-11.456zm12.456 1.615h11.456v12.317h-11.456zm12.456-8.351h11.456v4.2h-11.456zm12.456-23.467h11.456v4.297h-11.456zm12.456 14.608h11.456v11.016h-11.456zm12.457 7.52h11.456v6.124h-11.456zm12.456 29.02h11.456v5.521h-11.456z"/><path fill="#91ccf0" d="M60.5 121.808h11.456v15.431H60.5zm12.456-3.857h11.456v16.569H72.956zm12.456-9.106h11.456v21.37H85.412zm12.456-5.146h11.456v14.897H97.868zm12.457-4.974h11.456v15.071h-11.456zm12.456 14.19h11.456v13.089h-11.456zm12.456.488h11.456v14.222h-11.456zm12.456 2.028h11.456v13.827h-11.456zm12.456 2.018h11.456v17.325h-11.456zm12.456.586h11.456v13.168h-11.456zm12.456-10.794h11.456v17.906h-11.456zm12.457 1.306h11.456v21.263h-11.456zm12.456 4.192h11.456v16.472h-11.456zm12.456-1.609h11.456v14.906H222.43zm12.456-10.559h11.456v15.003h-11.456zm12.456-4.862h11.456v17.572h-11.456zm12.456 15.431h11.456v21.401h-11.456zm12.456 4.661h11.456v14.636h-11.456zm12.457-7.498h11.456v15.826h-11.456zm12.456-7.424h11.456v16.922h-11.456zm12.456-8.724h11.456v9.322h-11.456zm12.456 6.382h11.456v17.342h-11.456zm12.456 14.647h11.456v14.195h-11.456zm12.456-25.942h11.456v17.339h-11.456zm12.456 7.032h11.456v16.577h-11.456zm12.457 6.18h11.456v14.627h-11.456zm12.456-5.853h11.456v17.595H384.36zm12.456 11.508h11.456v6.337h-11.456zm12.456 5.756h11.456v6.505h-11.456zm12.456-13.561h11.456v20.94h-11.456zm12.456 7.197h11.456v20.559h-11.456zm12.456-5.071h11.456v21.128H446.64zm12.456 24.713h11.456v10.423h-11.456zm12.457.01h11.456v17.583h-11.456zm12.456.024h11.456v12.949h-11.456zm12.456 3.689h11.456v10.952h-11.456zm12.456-26.89h11.456v14.639h-11.456zm12.456-7.461h11.456v12.104h-11.456zm12.456 7.718h11.456v11.9h-11.456zm12.456 3.344h11.456v17.445h-11.456zm12.457-3.09h11.456v14.328h-11.456zm12.456-9.271h11.456v10.464h-11.456zm12.456 3.283h11.456v21.979h-11.456zm12.456 31.181h11.456v11.084h-11.456zm12.456 5.41h11.456v15.116H608.57zm12.456-23.099h11.456v16.376h-11.456zm12.456 14.511h11.456v15.572h-11.456zm12.457-13.143h11.456v12.175h-11.456zm12.456-3.394h11.456v16.463h-11.456zm12.456 1.345h11.456v18.063h-11.456zm12.456 9.511h11.456v14.36h-11.456zm12.456-7.148h11.456v9.736h-11.456zm12.456-15.913h11.456v11.511h-11.456zm12.456 22.178h11.456v12.968h-11.456zm12.457.003h11.456v3.769h-11.456zm12.456 2.791h11.456v14.592h-11.456zm12.456-6.149H769.5v12.922h-11.456z"/><path fill="#aaf155" d="M60.5 68.351h11.456v15.681H60.5zm12.456-.15h11.456v11.206H72.956zm12.456-2.235h11.456v9.741H85.412zm12.456-2.441h11.456v11.248H97.868zm12.457-2.368h11.456v10.964h-11.456zm12.456 3.459h11.456v11.071h-11.456zm12.456 1.191h11.456v11.852h-11.456zm12.456-2.888h11.456v14.742h-11.456zm12.456 1.646h11.456v14.713h-11.456zm12.456-.691h11.456v14.224h-11.456zm12.456 1.29h11.456v11.123h-11.456zm12.457-4.133h11.456v11.038h-11.456zm12.456 2.976h11.456V77.6h-11.456zm12.456.427h11.456v10.574H222.43zm12.456.04h11.456v12.147h-11.456zm12.456-3.945h11.456v12.703h-11.456zm12.456 5.139h11.456v11.14h-11.456zm12.456.218h11.456v18.176h-11.456zm12.457-.431h11.456v10.371h-11.456zm12.456 1.276h11.456v7.91h-11.456zm12.456-4.811h11.456v6.843h-11.456zm12.456 2.182h11.456V76.16h-11.456zm12.456-3.594h11.456v8.676h-11.456zm12.456.644h11.456v10.923h-11.456zm12.456 2.055h11.456v9.389h-11.456zm12.457 1.39h11.456v12.621h-11.456zm12.456-2.194h11.456v8.027H384.36zm12.456-.133h11.456v9.647h-11.456zm12.456 5.438h11.456v11.941h-11.456zm12.456-2.09h11.456v12.257h-11.456zm12.456-4.207h11.456v10.481h-11.456zm12.456.978h11.456v8.62H446.64zm12.456.118h11.456v18.092h-11.456zm12.457.107h11.456v31.84h-11.456zm12.456-.726h11.456v13.165h-11.456zm12.456-1.437h11.456v17.716h-11.456zm12.456 3.956h11.456V72.1h-11.456zm12.456-1.89h11.456v10.247h-11.456zm12.456 2.266h11.456v8.225h-11.456zm12.456-.382h11.456v16.816h-11.456zm12.457 4.544h11.456v11.761h-11.456zm12.456-4.188h11.456v6.501h-11.456zm12.456-.961h11.456v6.527h-11.456zm12.456 1.489h11.456v9.836h-11.456zm12.456 4.931h11.456v16.196H608.57zm12.456-8.625h11.456v14.52h-11.456zm12.456 7.393h11.456V87.79h-11.456zm12.457-8.038h11.456v13.652h-11.456zm12.456 4.436h11.456v14.247h-11.456zm12.456-2.989h11.456v10.885h-11.456zm12.456 3.793h11.456v12.372h-11.456zm12.456 1.705h11.456v18.455h-11.456zm12.456-6.51h11.456v11.741h-11.456zm12.456 36.059h11.456v8.715h-11.456zm12.457-3.995h11.456v3.769h-11.456zm12.456-29.896h11.456v22.282h-11.456zM758.044 60H769.5v8.689h-11.456z"/><path fill="#4f2d68" d="M60.5 84.032h11.456v37.776H60.5zm12.456-4.625h11.456v38.543H72.956zm12.456-3.7h11.456v33.138H85.412zm12.456-.934h11.456v28.926H97.868zm12.457-2.653h11.456v26.605h-11.456zm12.456 3.567h11.456v37.228h-11.456zm12.456 1.972h11.456v35.744h-11.456zm12.456.002h11.456v37.77h-11.456zm12.456 1.617h11.456v38.171h-11.456zm12.456-1.179h11.456v39.937h-11.456zm12.456-1.812h11.456v30.954h-11.456zm12.457-4.218h11.456v36.478h-11.456zm12.456 5.53h11.456v35.139h-11.456zm12.456-2.591h11.456v36.122H222.43zm12.456 1.613h11.456v23.95h-11.456zm12.456-3.389h11.456v22.477h-11.456zm12.456 3.576h11.456v34.332h-11.456zm12.456 7.254h11.456v31.739h-11.456zm12.457-8.236h11.456v32.477h-11.456zm12.456-1.186h11.456v26.239h-11.456zm12.456-5.877h11.456v23.392h-11.456zm12.456 7.398h11.456v22.376h-11.456zm12.456-6.976h11.456v44h-11.456zm12.456 2.89h11.456v15.167h-11.456zm12.456.522h11.456v21.677h-11.456zm12.457 4.621h11.456v23.236h-11.456zm12.456-6.788h11.456v24.171H384.36zm12.456 1.487h11.456v34.191h-11.456zm12.456 7.733h11.456v32.215h-11.456zm12.456-1.775h11.456v20.429h-11.456zm12.456-5.983h11.456v33.609h-11.456zm12.456-.883h11.456v29.42H446.64zm12.456 9.591h11.456v44.543h-11.456zm12.457 13.853h11.456v30.699h-11.456zm12.456-19.4h11.456v50.123h-11.456zm12.456 3.114h11.456v50.699h-11.456zm12.456-6.067h11.456v29.876h-11.456zm12.456.663h11.456v21.751h-11.456zm12.456.245h11.456v29.225h-11.456zm12.456 8.209h11.456v24.36h-11.456zm12.457-.512h11.456v21.782h-11.456zm12.456-9.448h11.456v21.959h-11.456zm12.456-.933h11.456v26.175h-11.456zm12.456 4.798h11.456v52.559h-11.456zm12.456 11.29h11.456v46.678H608.57zm12.456-10.301h11.456v33.88h-11.456zm12.456 11.678h11.456v36.713h-11.456zm12.457-13.191h11.456v36.761h-11.456zm12.456 5.031h11.456v28.336h-11.456zm12.456-6.352h11.456v36.032h-11.456zm12.456 5.281h11.456v40.264h-11.456zm12.456 7.787h11.456v25.327h-11.456zm12.456-13.223h11.456V95.76h-11.456zm12.456 33.033h11.456v11.783h-11.456zm12.457-8.941h11.456v20.727h-11.456zm12.456-11.383h11.456v34.901h-11.456zm12.456-17.142H769.5v45.894h-11.456z"/><path fill="#fff" d="M60.5 229.908h11.456v26.302H60.5zm12.456 4.779h11.456v24.457H72.956zm12.456-12.003h11.456v32.812H85.412zm12.456-26.592h11.456v39.2H97.868zm12.457 3.804h11.456v32.522h-11.456zm12.456 7.598h11.456v33.631h-11.456zm12.456 4.87h11.456v51.104h-11.456zm12.456 6.534h11.456v35.148h-11.456zm12.456 6.133h11.456v32.258h-11.456zm12.456-11.517h11.456v55.895h-11.456zm12.456.371h11.456v49.013h-11.456zm12.457-9.952h11.456v44.913h-11.456zm12.456-7.738h11.456v54.401h-11.456zm12.456 9.419h11.456v51.813H222.43zm12.456-8.622h11.456v54.611h-11.456zm12.456-10.386h11.456v45.942h-11.456zm12.456 34.371h11.456v50.293h-11.456zm12.456 9.966h11.456v49.636h-11.456zm12.457-6.44h11.456v54.691h-11.456zm12.456-18.86h11.456v51.603h-11.456zm12.456-20.935h11.456v55.895h-11.456zm12.456 1.686h11.456v42.981h-11.456zm12.456 22.195h11.456v47.739h-11.456zm12.456-10.734h11.456v46.851h-11.456zm12.456 16.936h11.456v37.635h-11.456zm12.457-4.176h11.456v50.943h-11.456zm12.456-18.605h11.456v44.079H384.36zm12.456 1.019h11.456v49.324h-11.456zm12.456 4.342h11.456v41.572h-11.456zm12.456 3.487h11.456v39.939h-11.456zm12.456 3.052h11.456v43.485h-11.456zm12.456 1.834h11.456v59.497H446.64zm12.456 21.709h11.456v51.131h-11.456zm12.457-7.684h11.456v39.348h-11.456zm12.456-2.817h11.456v46.131h-11.456zm12.456-9.814h11.456v51.408h-11.456zm12.456-7.765h11.456v42.125h-11.456zm12.456-16.235h11.456v59.981h-11.456zm12.456-7.288h11.456v57.225h-11.456zm12.456 6.501h11.456v70.802h-11.456zm12.457-9.715h11.456v78.431h-11.456zm12.456 13.808h11.456v51.925h-11.456zm12.456 30.007h11.456v44.691h-11.456zm12.456-5.822h11.456v74.948h-11.456zm12.456 13.158h11.456v65.615H608.57zm12.456-19.782h11.456v68.488h-11.456zm12.456 26.383h11.456v48.511h-11.456zm12.457-25.234h11.456v32.801h-11.456zm12.456 25.018h11.456v44.482h-11.456zm12.456-25.246h11.456v43.82h-11.456zm12.456 4.032h11.456v54.458h-11.456zm12.456-16.467h11.456v61.155h-11.456zm12.456-23.37h11.456v78.272h-11.456zm12.456 21.327h11.456v36.185h-11.456zm12.457 2.627h11.456v54.643h-11.456zm12.456 28.418h11.456v74.141h-11.456zm12.456-24.701H769.5v48.791h-11.456z"/></g><path aria-label="rule" stroke="currentColor" d="M60 410h710"/><svg viewBox="0 0 830 564" xmlns="http://www.w3.org/2000/svg"><g style="shape-padding:2.00159" aria-label="■ Custom Colour/Modded Campaigns ■ Survivor ■ Monk ■ Hunter ■ Gourmand ■ Artificer ■ Rivulet ■ Spearmaster ■ Saint ■ ⏿" white-space="pre"><path d="M55.012 483.999v-7.744h7.75v7.744z" fill="#00000f"/><path d="M77.438 483.167q-.489.26-1.003.388-.514.133-1.092.133-1.822 0-2.83-1.289-1.004-1.288-1.004-3.624 0-2.323 1.01-3.618 1.015-1.302 2.824-1.302.578 0 1.092.134.514.127 1.003.387v1.314q-.47-.387-1.01-.59-.539-.204-1.085-.204-1.25 0-1.872.965-.622.965-.622 2.914 0 1.942.622 2.907t1.872.965q.559 0 1.092-.203.54-.203 1.003-.59zm2.253-2.354v-4.406h1.168v4.406q0 .958.337 1.409.343.45 1.054.45.825 0 1.263-.577.438-.584.438-1.67v-4.018h1.174v7.097h-1.174v-1.067q-.311.616-.85.934-.534.317-1.251.317-1.092 0-1.625-.711-.534-.717-.534-2.165zm12.766-4.17v1.142q-.502-.292-1.01-.438-.508-.146-1.034-.146-.794 0-1.187.26-.388.254-.388.78 0 .477.292.712.292.234 1.454.457l.47.089q.87.165 1.314.66.45.495.45 1.288 0 1.054-.749 1.65-.749.591-2.082.591-.527 0-1.104-.114-.578-.108-1.25-.33v-1.206q.653.336 1.25.507.596.165 1.13.165.774 0 1.2-.31.425-.318.425-.883 0-.812-1.555-1.123l-.051-.013-.438-.089q-1.01-.197-1.473-.66-.463-.47-.463-1.276 0-1.022.692-1.574.692-.559 1.974-.559.571 0 1.098.108.527.102 1.035.311zm5.547-2.267v2.019h2.654v.907h-2.654v3.86q0 .787.299 1.098.298.31 1.04.31h1.315v.934h-1.429q-1.313 0-1.853-.527t-.54-1.815v-3.86h-1.898v-.907h1.898v-2.019zm7.84 2.837q-.889 0-1.346.692-.457.692-.457 2.05 0 1.353.457 2.05.457.693 1.346.693.895 0 1.352-.692.457-.698.457-2.05 0-1.359-.457-2.05-.457-.693-1.352-.693zm0-.99q1.479 0 2.26.959.787.958.787 2.774 0 1.821-.781 2.78-.78.952-2.266.952-1.48 0-2.26-.952-.78-.959-.78-2.78 0-1.816.78-2.774.78-.959 2.26-.959zm8.207.895q.216-.457.546-.673.337-.222.806-.222.857 0 1.206.667.356.66.356 2.494v4.12h-1.067v-4.069q0-1.504-.171-1.866-.165-.368-.61-.368-.507 0-.698.393-.184.387-.184 1.841v4.069h-1.066v-4.069q0-1.523-.184-1.879-.178-.355-.648-.355-.463 0-.647.393-.178.387-.178 1.841v4.069h-1.06v-7.11h1.06v.61q.21-.381.52-.578.318-.203.718-.203.482 0 .8.222.324.222.501.673zm18.174 6.05q-.49.26-1.003.387-.514.133-1.092.133-1.822 0-2.831-1.289-1.003-1.288-1.003-3.624 0-2.323 1.01-3.618 1.015-1.302 2.824-1.302.578 0 1.092.134.514.127 1.003.387v1.314q-.47-.387-1.01-.59-.54-.204-1.085-.204-1.25 0-1.873.965-.622.965-.622 2.914 0 1.942.622 2.907t1.873.965q.558 0 1.092-.203.54-.203 1.003-.59zm4.925-5.955q-.888 0-1.345.692-.457.692-.457 2.05 0 1.353.457 2.05.457.693 1.345.693.895 0 1.352-.692.457-.698.457-2.05 0-1.359-.457-2.05-.457-.693-1.352-.693zm0-.99q1.48 0 2.26.959.787.958.787 2.774 0 1.821-.78 2.78-.781.952-2.267.952-1.479 0-2.26-.952-.78-.959-.78-2.78 0-1.816.78-2.774.781-.959 2.26-.959zm7.973 4.704q0 .787.286 1.187.292.4.857.4h1.364v.99h-1.479q-1.047 0-1.625-.673-.57-.673-.57-1.904v-6.456h-1.873v-.914h3.04zm7.68-3.714q-.888 0-1.345.692-.457.692-.457 2.05 0 1.353.457 2.05.457.693 1.346.693.895 0 1.352-.692.457-.698.457-2.05 0-1.359-.457-2.05-.457-.693-1.352-.693zm0-.99q1.48 0 2.26.959.788.958.788 2.774 0 1.821-.781 2.78-.78.952-2.266.952-1.48 0-2.26-.952-.78-.959-.78-2.78 0-1.816.78-2.774.78-.959 2.26-.959zm5.155 4.59v-4.406h1.168v4.405q0 .959.336 1.41.343.45 1.054.45.825 0 1.263-.577.438-.584.438-1.67v-4.018h1.175v7.097h-1.175v-1.067q-.31.616-.85.934-.533.317-1.25.317-1.093 0-1.626-.711-.533-.717-.533-2.165zm13.92-2.952q-.374-.292-.761-.425t-.85-.134q-1.093 0-1.67.686-.578.685-.578 1.98v3.536h-1.174v-7.11h1.174v1.39q.292-.755.895-1.155.61-.406 1.441-.406.432 0 .806.108t.717.336zm6.139-3.834h1.206l-4.99 10.683h-1.212zm2.73 0h1.713l1.638 4.824 1.65-4.824h1.72v9.477h-1.187v-8.373l-1.688 4.996h-.971l-1.695-4.996v8.373h-1.18zm11.19 3.186q-.889 0-1.346.692-.457.692-.457 2.05 0 1.353.457 2.05.457.693 1.346.693.895 0 1.352-.692.457-.698.457-2.05 0-1.359-.457-2.05-.457-.693-1.352-.693zm0-.99q1.479 0 2.26.959.787.958.787 2.774 0 1.821-.78 2.78-.782.952-2.267.952-1.479 0-2.26-.952-.78-.959-.78-2.78 0-1.816.78-2.774.781-.959 2.26-.959zm9.363 1.08v-3.676h1.168v9.877H201.3v-.895q-.292.527-.781.806-.482.273-1.117.273-1.289 0-2.031-.997-.737-1.003-.737-2.76 0-1.734.743-2.718.743-.99 2.025-.99.641 0 1.13.28.489.272.768.8zm-3.434 2.653q0 1.358.431 2.05.432.692 1.276.692t1.282-.698q.445-.699.445-2.044 0-1.352-.445-2.044-.438-.699-1.282-.699t-1.276.692q-.431.692-.431 2.05zm11.26-2.654v-3.675h1.168v9.877h-1.168v-.895q-.292.527-.78.806-.483.273-1.117.273-1.29 0-2.032-.997-.736-1.003-.736-2.76 0-1.734.743-2.718.742-.99 2.025-.99.64 0 1.13.28.488.272.767.8zm-3.434 2.654q0 1.358.432 2.05.432.692 1.276.692t1.282-.698q.444-.699.444-2.044 0-1.352-.444-2.044-.438-.699-1.282-.699t-1.276.692q-.432.692-.432 2.05zm12.873-.299v.572h-5.059v.038q0 1.161.603 1.796.61.635 1.714.635.559 0 1.168-.178.61-.178 1.301-.54v1.162q-.666.273-1.288.406-.616.14-1.193.14-1.657 0-2.59-.99-.933-.997-.933-2.742 0-1.702.914-2.717.914-1.016 2.437-1.016 1.359 0 2.14.92.786.921.786 2.514zm-1.168-.343q-.025-1.028-.488-1.561-.457-.54-1.32-.54-.845 0-1.39.559-.547.559-.648 1.549zm7.383-2.012v-3.675h1.168v9.877h-1.168v-.895q-.292.527-.781.806-.482.273-1.117.273-1.289 0-2.031-.997-.737-1.003-.737-2.76 0-1.734.743-2.718.743-.99 2.025-.99.641 0 1.13.28.488.272.768.8zm-3.434 2.654q0 1.358.431 2.05.432.692 1.276.692t1.282-.698q.445-.699.445-2.044 0-1.352-.445-2.044-.438-.699-1.282-.699t-1.276.692q-.431.692-.431 2.05zm20.452 3.211q-.489.26-1.003.388-.514.133-1.092.133-1.822 0-2.83-1.289-1.004-1.288-1.004-3.624 0-2.323 1.01-3.618 1.015-1.302 2.824-1.302.578 0 1.092.134.514.127 1.003.387v1.314q-.47-.387-1.01-.59-.539-.204-1.085-.204-1.25 0-1.872.965-.622.965-.622 2.914 0 1.942.622 2.907t1.872.965q.559 0 1.092-.203.54-.203 1.003-.59zm5.472-3.237h-.388q-1.022 0-1.542.362-.514.355-.514 1.066 0 .642.387.997t1.073.355q.964 0 1.517-.666.552-.673.558-1.854v-.26zm2.266-.482v4.056h-1.175v-1.054q-.374.635-.945.94-.565.298-1.378.298-1.085 0-1.733-.61-.647-.615-.647-1.643 0-1.187.793-1.803.8-.616 2.342-.616h1.568v-.184q-.006-.85-.431-1.231-.426-.388-1.359-.388-.596 0-1.206.172-.61.171-1.187.501v-1.168q.648-.247 1.238-.368.597-.127 1.155-.127.883 0 1.505.26.628.26 1.015.781.242.318.343.787.102.464.102 1.397zm5.395-2.33q.216-.457.546-.673.336-.222.806-.222.857 0 1.206.667.356.66.356 2.494v4.12h-1.067v-4.069q0-1.504-.171-1.866-.165-.368-.61-.368-.507 0-.698.393-.184.387-.184 1.841v4.069h-1.066v-4.069q0-1.523-.184-1.879-.178-.355-.648-.355-.463 0-.647.393-.178.387-.178 1.841v4.069h-1.06v-7.11h1.06v.61q.21-.381.52-.578.318-.203.718-.203.482 0 .8.222.323.222.501.673zm5.916 5.49v3.6h-1.174v-9.813h1.174v.907q.292-.527.775-.8.488-.279 1.123-.279 1.289 0 2.019.997.736.996.736 2.761 0 1.733-.736 2.723-.737.984-2.019.984-.647 0-1.136-.273-.483-.28-.762-.806zm3.428-2.652q0-1.359-.432-2.05-.425-.693-1.27-.693-.85 0-1.288.699-.438.692-.438 2.044 0 1.345.438 2.044.438.698 1.289.698.844 0 1.27-.692.43-.692.43-2.05zm6.475-.026h-.388q-1.022 0-1.542.362-.514.355-.514 1.066 0 .641.387.997t1.073.355q.964 0 1.517-.666.552-.673.558-1.854v-.26zm2.266-.482v4.056h-1.175v-1.054q-.374.635-.945.94-.565.298-1.378.298-1.085 0-1.733-.61-.647-.615-.647-1.643 0-1.187.793-1.803.8-.616 2.342-.616h1.568v-.184q-.006-.85-.431-1.231-.426-.388-1.359-.388-.596 0-1.206.172-.61.171-1.187.501v-1.168q.648-.247 1.238-.368.597-.127 1.155-.127.883 0 1.505.26.628.26 1.015.781.241.318.343.787.102.464.102 1.397zm2.73-3.053h2.989v6.201h2.317v.908h-5.802v-.908h2.317v-5.294h-1.822zm1.82-2.768h1.169v1.479h-1.168zm9.827 6.265q0-1.314-.432-1.993-.425-.686-1.244-.686-.857 0-1.307.686-.451.68-.451 1.993 0 1.314.45 2.006.458.685 1.321.685.806 0 1.231-.691.432-.692.432-2zm1.168 3.155q0 1.6-.755 2.425-.756.825-2.222.825-.482 0-1.01-.089-.526-.089-1.053-.26v-1.156q.622.292 1.13.432t.933.14q.946 0 1.377-.514t.432-1.632v-.844q-.28.597-.762.889-.482.292-1.174.292-1.244 0-1.987-.997-.742-.997-.742-2.666 0-1.676.742-2.672.743-.997 1.987-.997.686 0 1.162.273.476.273.774.844v-.92h1.168zm7.884-3.948v4.405h-1.174v-4.405q0-.959-.337-1.41-.336-.45-1.054-.45-.818 0-1.263.584-.438.577-.438 1.663v4.018h-1.168v-7.11h1.168v1.067q.311-.61.844-.92.534-.318 1.264-.318 1.085 0 1.618.717.54.711.54 2.159zm7.331-2.457v1.143q-.501-.292-1.009-.438t-1.035-.146q-.793 0-1.187.26-.387.254-.387.78 0 .477.292.712.292.234 1.454.457l.47.089q.87.165 1.314.66.45.495.45 1.288 0 1.054-.749 1.65-.749.591-2.082.591-.527 0-1.104-.114-.578-.108-1.25-.33v-1.206q.653.336 1.25.507.596.165 1.13.165.774 0 1.2-.31.425-.318.425-.883 0-.812-1.556-1.123l-.05-.013-.438-.089q-1.01-.197-1.473-.66-.463-.47-.463-1.276 0-1.022.691-1.574.692-.559 1.975-.559.57 0 1.098.108.527.102 1.034.311z" fill="#1e90ff"/><path d="M313.291 483.999v-7.744h7.751v7.744z" fill="#fff"/><path d="M335.33 474.35v1.302q-.583-.375-1.174-.565-.584-.19-1.18-.19-.908 0-1.435.425-.527.419-.527 1.136 0 .628.343.958.349.33 1.295.553l.673.152q1.333.311 1.942.978.61.666.61 1.815 0 1.352-.838 2.063t-2.438.711q-.666 0-1.34-.146-.672-.14-1.351-.425v-1.365q.73.463 1.377.68.654.215 1.314.215.971 0 1.51-.432.54-.438.54-1.218 0-.711-.374-1.086-.368-.374-1.289-.578l-.685-.158q-1.32-.299-1.917-.902t-.597-1.618q0-1.27.85-2.031.858-.769 2.273-.769.546 0 1.149.127.603.121 1.27.369zm2.641 6.462v-4.405h1.168v4.406q0 .958.337 1.409.342.45 1.053.45.825 0 1.263-.577.438-.584.438-1.67v-4.018h1.175v7.097h-1.175v-1.067q-.31.616-.85.934-.533.317-1.25.317-1.092 0-1.626-.711-.533-.717-.533-2.165zm13.92-2.951q-.374-.292-.761-.425-.387-.134-.85-.134-1.092 0-1.67.686-.578.685-.578 1.98v3.536h-1.174v-7.11h1.174v1.39q.292-.755.895-1.155.61-.406 1.441-.406.432 0 .806.108.375.108.718.336zm1.13-1.466h1.213l2.063 5.966 2.07-5.966h1.212l-2.527 7.109h-1.504zm8.817 0h2.99v6.201h2.317v.908h-5.802v-.908h2.317v-5.294h-1.822zm1.822-2.768h1.168v1.479h-1.168zm5.015 2.768h1.212l2.063 5.966 2.07-5.966h1.212l-2.526 7.109H371.2zm11.102.818q-.889 0-1.346.692-.457.692-.457 2.05 0 1.353.457 2.05.457.693 1.346.693.895 0 1.352-.692.457-.698.457-2.05 0-1.359-.457-2.05-.457-.693-1.352-.693zm0-.99q1.479 0 2.26.959.787.958.787 2.774 0 1.821-.781 2.78-.78.952-2.266.952-1.48 0-2.26-.952-.78-.959-.78-2.78 0-1.816.78-2.774t2.26-.959zm11.248 1.638q-.375-.292-.762-.425-.387-.134-.85-.134-1.092 0-1.67.686-.577.685-.577 1.98v3.536h-1.175v-7.11h1.175v1.39q.292-.755.895-1.155.609-.406 1.44-.406.432 0 .807.108t.717.336z" fill="#1e90ff"/><path d="M399.385 483.999v-7.744h7.75v7.744z" fill="#ffff73"/><path d="M415.546 474.027h1.714l1.637 4.824 1.65-4.824h1.721v9.477h-1.187v-8.373l-1.688 4.996h-.972l-1.694-4.996v8.373h-1.181zm11.19 3.186q-.888 0-1.345.692-.457.692-.457 2.05 0 1.353.457 2.05.457.693 1.346.693.895 0 1.352-.692.457-.698.457-2.05 0-1.359-.457-2.05-.457-.693-1.352-.693zm0-.99q1.48 0 2.26.959.788.958.788 2.774 0 1.821-.781 2.78-.78.952-2.266.952-1.48 0-2.26-.952-.78-.959-.78-2.78 0-1.816.78-2.774t2.26-.959zm10.589 2.876v4.405h-1.175v-4.405q0-.959-.336-1.41-.336-.45-1.054-.45-.819 0-1.263.584-.438.577-.438 1.663v4.018h-1.168v-7.11h1.168v1.067q.311-.61.844-.92.534-.318 1.263-.318 1.086 0 1.62.717.539.711.539 2.159zm2.653-5.472h1.206v5.72l3.066-2.952h1.422l-2.8 2.678 3.238 4.43h-1.428l-2.628-3.668-.87.819v2.85h-1.206z" fill="#1e90ff"/><path d="M454.171 483.999v-7.744h7.75v7.744z" fill="#ff7373"/><path d="M470.656 474.027h1.289v3.885h3.51v-3.885h1.289v9.477h-1.289v-4.513h-3.51v4.513h-1.289zm8.195 6.786v-4.406h1.168v4.406q0 .958.336 1.409.343.45 1.054.45.825 0 1.263-.577.438-.584.438-1.67v-4.018h1.175v7.097h-1.175v-1.067q-.31.616-.85.934-.533.317-1.25.317-1.093 0-1.626-.711-.533-.717-.533-2.165zm13.26-1.714v4.405h-1.174v-4.405q0-.959-.336-1.41-.337-.45-1.054-.45-.819 0-1.263.584-.438.577-.438 1.663v4.018h-1.168v-7.11h1.168v1.067q.31-.61.844-.92.533-.318 1.263-.318 1.086 0 1.619.717.54.711.54 2.159zm5.053-4.723v2.019h2.653v.907h-2.653v3.86q0 .787.298 1.098.299.31 1.041.31h1.314v.934h-1.428q-1.314 0-1.853-.527-.54-.527-.54-1.815v-3.86h-1.898v-.907h1.898v-2.019zm10.988 5.281v.572h-5.06v.038q0 1.161.604 1.796.61.635 1.714.635.558 0 1.168-.178.609-.178 1.3-.54v1.162q-.666.273-1.288.406-.615.14-1.193.14-1.657 0-2.59-.99-.933-.997-.933-2.742 0-1.702.914-2.717.914-1.016 2.438-1.016 1.358 0 2.139.92.787.921.787 2.514zm-1.168-.343q-.026-1.028-.489-1.561-.457-.54-1.32-.54-.844 0-1.39.559-.546.559-.648 1.549zm9.267-1.453q-.374-.292-.761-.425-.387-.134-.85-.134-1.093 0-1.67.686-.578.685-.578 1.98v3.536h-1.174v-7.11h1.174v1.39q.292-.755.895-1.155.61-.406 1.441-.406.432 0 .806.108t.717.336z" fill="#1e90ff"/><path d="M524.611 483.999v-7.744h7.75v7.744z" fill="#f0c097"/><path d="M547.234 482.723q-.514.476-1.161.724-.641.241-1.39.241-1.803 0-2.806-1.289-1.003-1.295-1.003-3.624 0-2.323 1.016-3.618 1.015-1.302 2.824-1.302.597 0 1.143.172.546.165 1.054.508v1.314q-.515-.49-1.054-.718-.54-.235-1.143-.235-1.25 0-1.879.972-.622.965-.622 2.907 0 1.974.603 2.926.61.946 1.867.946.425 0 .742-.095.324-.102.584-.311v-2.546h-1.377v-1.053h2.602zm4.73-5.51q-.89 0-1.346.692-.457.692-.457 2.05 0 1.353.457 2.05.457.693 1.345.693.895 0 1.352-.692.457-.698.457-2.05 0-1.359-.457-2.05-.457-.693-1.352-.693zm0-.99q1.478 0 2.26.959.786.958.786 2.774 0 1.821-.78 2.78-.781.952-2.267.952-1.479 0-2.26-.952-.78-.959-.78-2.78 0-1.816.78-2.774t2.26-.959zm5.154 4.59v-4.406h1.168v4.406q0 .958.336 1.409.343.45 1.054.45.825 0 1.263-.577.438-.584.438-1.67v-4.018h1.174v7.097h-1.174v-1.067q-.311.616-.85.934-.534.317-1.251.317-1.092 0-1.625-.71-.533-.718-.533-2.165zm13.92-2.952q-.374-.292-.762-.425-.387-.134-.85-.134-1.092 0-1.67.686-.577.685-.577 1.98v3.536h-1.175v-7.11h1.175v1.39q.292-.755.895-1.155.61-.406 1.44-.406.432 0 .807.108t.717.336zm4.786-.743q.216-.457.546-.673.337-.222.806-.222.857 0 1.206.667.356.66.356 2.494v4.12h-1.067v-4.069q0-1.504-.171-1.866-.165-.368-.61-.368-.507 0-.698.393-.184.387-.184 1.841v4.069h-1.066v-4.069q0-1.523-.184-1.879-.178-.355-.648-.355-.463 0-.647.393-.178.387-.178 1.841v4.069h-1.06v-7.11h1.06v.61q.21-.381.52-.578.318-.203.718-.203.482 0 .8.222.323.222.501.673zm7.992 2.812h-.387q-1.022 0-1.543.362-.514.355-.514 1.066 0 .642.387.997t1.073.355q.965 0 1.517-.666.552-.673.559-1.854v-.26zm2.266-.482v4.056h-1.174v-1.054q-.375.635-.946.94-.565.298-1.378.298-1.085 0-1.732-.61-.648-.615-.648-1.643 0-1.187.794-1.803.8-.616 2.342-.616h1.568v-.184q-.006-.85-.432-1.231-.425-.388-1.358-.388-.597 0-1.206.172-.61.171-1.187.501v-1.168q.647-.247 1.237-.368.597-.127 1.156-.127.882 0 1.504.26.628.26 1.016.781.24.318.342.787.102.464.102 1.397zm7.776-.35v4.406h-1.174v-4.405q0-.959-.337-1.41-.336-.45-1.054-.45-.818 0-1.263.584-.438.577-.438 1.663v4.018h-1.168v-7.11h1.168v1.067q.311-.61.845-.92.533-.318 1.263-.318 1.085 0 1.618.717.54.711.54 2.159zm6.601-1.796v-3.675h1.168v9.877h-1.168v-.895q-.292.527-.78.806-.483.273-1.117.273-1.29 0-2.032-.997-.736-1.003-.736-2.76 0-1.734.743-2.718.742-.99 2.025-.99.64 0 1.13.28.488.272.767.8zm-3.434 2.654q0 1.358.432 2.05.432.692 1.276.692t1.282-.698q.444-.699.444-2.044 0-1.352-.444-2.044-.438-.699-1.282-.699t-1.276.692q-.432.692-.432 2.05z" fill="#1e90ff"/><path d="M610.705 483.999v-7.744h7.75v7.744z" fill="#70223b"/><path d="M630.23 475.157l-1.352 4.85h2.704zm-.774-1.13h1.555l2.9 9.477h-1.326l-.698-2.47h-3.32l-.686 2.47h-1.326zm12.022 3.834q-.374-.292-.762-.425t-.85-.134q-1.092 0-1.67.686-.577.685-.577 1.98v3.536h-1.175v-7.11h1.175v1.39q.292-.755.895-1.155.61-.406 1.44-.406.432 0 .807.108t.717.336zm4.393-3.485v2.019h2.653v.907h-2.653v3.86q0 .787.298 1.098.298.31 1.041.31h1.314v.934h-1.428q-1.314 0-1.854-.527t-.54-1.815v-3.86h-1.897v-.907h1.898v-2.019zm5.554 2.019h2.99v6.201h2.316v.908h-5.801v-.908h2.317v-5.294h-1.822zm1.822-2.768h1.168v1.479h-1.168zm11.127 0v.971h-1.327q-.628 0-.876.26-.24.254-.24.908v.629h2.443v.907h-2.444v6.202h-1.168v-6.202h-1.898v-.907h1.898v-.496q0-1.168.533-1.72.54-.552 1.676-.552zm2.704 2.768h2.99v6.201h2.317v.908h-5.802v-.908h2.317v-5.294h-1.822zm1.822-2.768h1.168v1.479H668.9zm11.115 9.515q-.47.273-.972.406-.495.14-1.015.14-1.65 0-2.584-.99-.926-.99-.926-2.742t.926-2.743q.933-.99 2.584-.99.514 0 1.003.133.489.134.984.413v1.225q-.464-.412-.933-.597-.464-.184-1.054-.184-1.098 0-1.689.711-.59.711-.59 2.032 0 1.314.59 2.03.597.712 1.689.712.61 0 1.092-.184.482-.19.895-.584zm8.15-3.485v.572h-5.059v.038q0 1.161.603 1.796.61.635 1.714.635.558 0 1.168-.178.61-.178 1.301-.54v1.162q-.666.273-1.288.406-.616.14-1.194.14-1.657 0-2.59-.99-.933-.997-.933-2.742 0-1.702.914-2.717.914-1.016 2.438-1.016 1.358 0 2.139.92.787.921.787 2.514zm-1.168-.343q-.025-1.028-.489-1.561-.457-.54-1.32-.54-.844 0-1.39.559-.546.559-.648 1.549zm9.268-1.453q-.375-.292-.762-.425t-.85-.134q-1.092 0-1.67.686-.578.685-.578 1.98v3.536h-1.174v-7.11h1.174v1.39q.292-.755.895-1.155.61-.406 1.441-.406.432 0 .806.108t.718.336z" fill="#1e90ff"/><path d="M704.625 483.999v-7.744h7.75v7.744z" fill="#91ccf0"/><path d="M725.064 479.029q.495.127.844.482.35.35.87 1.403l1.288 2.59h-1.377l-1.13-2.393q-.489-1.022-.882-1.314-.387-.298-1.016-.298h-1.225v4.005h-1.289v-9.477h2.641q1.562 0 2.393.704.832.705.832 2.038 0 .94-.514 1.536-.508.59-1.435.724zm-2.628-3.948v3.364h1.403q.92 0 1.371-.413.45-.412.45-1.263 0-.819-.482-1.25-.476-.438-1.39-.438zm7.255 1.314h2.99v6.201h2.317v.908h-5.802v-.908h2.317v-5.294h-1.822zm1.822-2.768h1.168v1.479h-1.168zm5.015 2.768h1.212l2.063 5.966 2.07-5.966h1.212l-2.526 7.109h-1.505zm8.43 4.418v-4.406h1.167v4.406q0 .958.337 1.409.343.45 1.054.45.825 0 1.263-.577.438-.584.438-1.67v-4.018h1.174v7.097h-1.174v-1.067q-.311.616-.85.934-.534.317-1.251.317-1.092 0-1.625-.71-.533-.718-.533-2.165zm10.645.114q0 .787.285 1.187.292.4.857.4h1.365v.99h-1.48q-1.047 0-1.624-.673-.571-.673-.571-1.904v-6.456h-1.873v-.914h3.04zm10.829-1.27v.572h-5.06v.038q0 1.161.604 1.796.609.635 1.713.635.56 0 1.168-.178.61-.178 1.302-.54v1.162q-.667.273-1.289.406-.616.14-1.193.14-1.657 0-2.59-.99-.933-.997-.933-2.742 0-1.702.914-2.717.914-1.016 2.437-1.016 1.359 0 2.14.92.787.921.787 2.514zm-1.168-.343q-.026-1.028-.49-1.561-.456-.54-1.32-.54-.844 0-1.39.559-.545.559-.647 1.549zm5.833-4.938v2.019h2.653v.907h-2.653v3.86q0 .787.299 1.098.298.31 1.04.31h1.314v.934h-1.428q-1.314 0-1.853-.527-.54-.527-.54-1.815v-3.86h-1.898v-.907h1.898v-2.019z" fill="#1e90ff"/><path d="M314.618 500.249v-7.744h7.75v7.744z" fill="#4f2d68"/><path d="M336.657 490.6v1.302q-.584-.375-1.174-.565-.584-.19-1.18-.19-.908 0-1.435.425-.527.419-.527 1.136 0 .628.343.958.349.33 1.295.553l.672.152q1.333.311 1.943.978.61.666.61 1.815 0 1.352-.839 2.063t-2.437.711q-.667 0-1.34-.146-.672-.14-1.352-.425v-1.365q.73.463 1.378.68.654.215 1.314.215.97 0 1.51-.432.54-.438.54-1.218 0-.711-.374-1.086-.369-.374-1.29-.578l-.685-.158q-1.32-.299-1.917-.902-.596-.603-.596-1.618 0-1.27.85-2.031.857-.769 2.273-.769.546 0 1.149.127.603.121 1.27.369zm3.783 8.259v3.599h-1.174v-9.813h1.174v.907q.292-.527.775-.8.489-.279 1.123-.279 1.289 0 2.019.997.736.996.736 2.761 0 1.733-.736 2.723-.736.984-2.019.984-.647 0-1.136-.273-.482-.28-.762-.806zm3.428-2.653q0-1.359-.431-2.05-.426-.693-1.27-.693-.85 0-1.289.699-.438.692-.438 2.044 0 1.345.438 2.044t1.289.698q.844 0 1.27-.692.431-.692.431-2.05zm9.077-.299v.572h-5.059v.038q0 1.161.603 1.796.61.635 1.714.635.559 0 1.168-.178.61-.178 1.301-.54v1.162q-.666.273-1.288.406-.616.14-1.194.14-1.656 0-2.59-.99-.933-.997-.933-2.742 0-1.702.915-2.717.914-1.016 2.437-1.016 1.358 0 2.14.92.786.921.786 2.514zm-1.168-.343q-.025-1.028-.488-1.561-.457-.54-1.32-.54-.845 0-1.39.559-.547.559-.648 1.549zm6.392.616h-.387q-1.022 0-1.542.362-.514.355-.514 1.066 0 .642.387.997t1.073.355q.964 0 1.517-.666.552-.673.558-1.854v-.26zm2.267-.482v4.056h-1.175V498.7q-.374.635-.946.94-.565.298-1.377.298-1.085 0-1.733-.61-.647-.615-.647-1.643 0-1.187.793-1.803.8-.616 2.342-.616h1.568v-.184q-.006-.85-.431-1.231-.426-.388-1.359-.388-.596 0-1.206.172-.61.171-1.187.501v-1.168q.648-.247 1.238-.368.597-.127 1.155-.127.883 0 1.505.26.628.26 1.015.781.241.318.343.787.102.464.102 1.397zm8.436-1.587q-.375-.292-.762-.425-.387-.134-.85-.134-1.093 0-1.67.686-.578.685-.578 1.98v3.536h-1.174v-7.11h1.174v1.39q.292-.755.895-1.155.61-.406 1.441-.406.432 0 .806.108t.718.336zm4.786-.743q.216-.457.546-.673.336-.222.806-.222.857 0 1.206.667.355.66.355 2.494v4.12h-1.066v-4.069q0-1.504-.171-1.866-.166-.368-.61-.368-.508 0-.698.393-.184.387-.184 1.841v4.069h-1.067v-4.069q0-1.523-.184-1.879-.177-.355-.647-.355-.464 0-.648.393-.177.387-.177 1.841v4.069h-1.06v-7.11h1.06v.61q.21-.381.52-.578.318-.203.717-.203.483 0 .8.222.324.222.502.673zm7.991 2.812h-.387q-1.022 0-1.542.362-.514.355-.514 1.066 0 .642.387.997t1.073.355q.964 0 1.517-.666.552-.673.558-1.854v-.26zm2.267-.482v4.056h-1.175V498.7q-.374.635-.946.94-.565.298-1.377.298-1.085 0-1.733-.61-.647-.615-.647-1.643 0-1.187.793-1.803.8-.616 2.342-.616h1.568v-.184q-.006-.85-.431-1.231-.426-.388-1.359-.388-.597 0-1.206.172-.61.171-1.187.501v-1.168q.648-.247 1.238-.368.597-.127 1.155-.127.882 0 1.505.26.628.26 1.015.781.241.318.343.787.102.464.102 1.397zm7.28-2.806v1.143q-.501-.292-1.009-.438t-1.035-.146q-.793 0-1.187.26-.387.254-.387.78 0 .477.292.712.292.234 1.454.457l.47.089q.87.165 1.313.66.451.495.451 1.288 0 1.054-.749 1.65-.749.591-2.082.591-.527 0-1.104-.114-.578-.108-1.25-.33v-1.206q.653.336 1.25.507.596.165 1.13.165.774 0 1.2-.31.424-.318.424-.883 0-.812-1.555-1.123l-.05-.013-.439-.089q-1.009-.197-1.472-.66-.464-.47-.464-1.276 0-1.022.692-1.574.692-.559 1.974-.559.572 0 1.099.108.526.102 1.034.311zm5.548-2.266v2.019h2.653v.907h-2.653v3.86q0 .787.298 1.098.299.31 1.042.31h1.313v.934h-1.428q-1.314 0-1.853-.527-.54-.527-.54-1.815v-3.86h-1.898v-.907h1.898v-2.019zm10.988 5.281v.572h-5.06v.038q0 1.161.604 1.796.61.635 1.714.635.558 0 1.168-.178.61-.178 1.301-.54v1.162q-.667.273-1.289.406-.615.14-1.193.14-1.657 0-2.59-.99-.933-.997-.933-2.742 0-1.702.914-2.717.914-1.016 2.438-1.016 1.358 0 2.139.92.787.921.787 2.514zm-1.168-.343q-.025-1.028-.489-1.561-.457-.54-1.32-.54-.844 0-1.39.559-.546.559-.648 1.549zm9.268-1.453q-.375-.292-.762-.425-.387-.134-.85-.134-1.093 0-1.67.686-.578.685-.578 1.98v3.536h-1.174v-7.11h1.174v1.39q.292-.755.895-1.155.61-.406 1.441-.406.432 0 .806.108t.718.336z" fill="#1e90ff"/><path d="M424.191 500.249v-7.744h7.75v7.744z" fill="#aaf155"/><path d="M446.23 490.6v1.302q-.584-.375-1.174-.565-.584-.19-1.18-.19-.908 0-1.435.425-.527.419-.527 1.136 0 .628.343.958.349.33 1.295.553l.673.152q1.333.311 1.942.978.61.666.61 1.815 0 1.352-.839 2.063t-2.437.711q-.667 0-1.34-.146-.672-.14-1.351-.425v-1.365q.73.463 1.377.68.654.215 1.314.215.971 0 1.51-.432.54-.438.54-1.218 0-.711-.374-1.086-.368-.374-1.289-.578l-.685-.158q-1.32-.299-1.917-.902t-.597-1.618q0-1.27.85-2.031.857-.769 2.273-.769.546 0 1.149.127.603.121 1.27.369zm5.86 5.58h-.388q-1.022 0-1.542.362-.514.355-.514 1.066 0 .642.387.997t1.072.355q.965 0 1.518-.666.552-.673.558-1.854v-.26zm2.265-.482v4.056h-1.174V498.7q-.374.635-.946.94-.565.298-1.377.298-1.086 0-1.733-.61-.647-.615-.647-1.643 0-1.187.793-1.803.8-.616 2.342-.616h1.568v-.184q-.006-.85-.431-1.231-.426-.388-1.359-.388-.597 0-1.206.172-.61.171-1.187.501v-1.168q.648-.247 1.238-.368.597-.127 1.155-.127.882 0 1.505.26.628.26 1.015.781.241.318.343.787.101.464.101 1.397zm2.73-3.053h2.99v6.201h2.317v.908h-5.802v-.908h2.317v-5.294h-1.822zm1.822-2.768h1.168v1.479h-1.168zm11.051 5.472v4.405h-1.174v-4.405q0-.959-.337-1.41-.336-.45-1.053-.45-.82 0-1.264.584-.438.577-.438 1.663v4.018h-1.168v-7.11h1.168v1.067q.311-.61.845-.92.533-.318 1.263-.318 1.085 0 1.618.717.54.711.54 2.159zm5.053-4.723v2.019h2.653v.907h-2.653v3.86q0 .787.298 1.098.298.31 1.041.31h1.314v.934h-1.428q-1.314 0-1.854-.527t-.54-1.815v-3.86h-1.897v-.907h1.898v-2.019z" fill="#1e90ff"/><path d="M486.805 500.249v-7.744h7.75v7.744z" fill="#16234f"/><path d="M515.287 492.905q-.248-.013-.413-.013-1.11 0-3.117.387.203.52.203.978 0 .616-.298 1.085-.349.533-.933.533-.355 0-.552-.406-.159-.323-.159-.723 0-.527.267-.876.21.45.552.603.425-.4.578-1.13-1.156.235-2.482.596-.121.426-.121.851 0 .914.489 1.473.514.584 1.415.584.565 0 1.029-.299.298-.19.806-.717.127-.133.431-.374-.006.977-.87 1.694-.818.68-1.821.68-.92 0-1.574-.534-.698-.577-.698-1.479 0-1.053.463-1.752-2.361.673-4.202 1.429.457.793 1.961 1.637 1.225.686 2.412 1.054 1.092.336 1.924.336.26 0 .774-.063.514-.07.768-.07.12 0 .229.057-.197.343-.933.553-.59.17-1.118.17-2.107 0-4.38-1.072-2.481-1.174-3.364-2.888 3.377-1.784 8.88-2.647 1.296-.203 2.184-.203 1.384 0 1.67.546z" fill="#1e90ff"/></g></svg></svg>