<svg class="plot-d6a7b5" fill="currentColor" font-family="system-ui, sans-serif" font-size="10" text-anchor="middle" width="830" height="470" viewBox="0 0 830 470" xmlns="http://www.w3.org/2000/svg" xmlns:xlink="http://www.w3.org/1999/xlink" color="#1e90ff"><style>:where(.plot-d6a7b5){--plot-background: white;display:block;height:intrinsic;max-width:100%}:where(.plot-d6a7b5 text),:where(.plot-d6a7b5 tspan){white-space:pre}</style><g aria-label="y-grid" stroke="currentColor" stroke-opacity=".1"><line x1="60" x2="770" y1="410" y2="410"/><line x1="60" x2="770" y1="360.939" y2="360.939"/><line x1="60" x2="770" y1="311.878" y2="311.878"/><line x1="60" x2="770" y1="262.817" y2="262.817"/><line x1="60" x2="770" y1="213.757" y2="213.757"/><line x1="60" x2="770" y1="164.696" y2="164.696"/><line x1="60" x2="770" y1="115.635" y2="115.635"/><line x1="60" x2="770" y1="66.574" y2="66.574"/></g><g aria-label="y-axis tick" fill="none" stroke="currentColor"><path transform="translate(60,410)" d="M0,0L-6,0"/><path transform="translate(60,360.9391645640594)" d="M0,0L-6,0"/><path transform="translate(60,311.8783291281189)" d="M0,0L-6,0"/><path transform="translate(60,262.8174936921783)" d="M0,0L-6,0"/><path transform="translate(60,213.7566582562377)" d="M0,0L-6,0"/><path transform="translate(60,164.69582282029717)" d="M0,0L-6,0"/><path transform="translate(60,115.6349873843566)" d="M0,0L-6,0"/><path transform="translate(60,66.57415194841604)" d="M0,0L-6,0"/></g><g aria-label="y-axis tick label" text-anchor="end" font-variant="tabular-nums"><text y=".32em" transform="translate(-9,0) translate(60,410)">0</text><text y=".32em" transform="translate(-9,0) translate(60,360.9391645640594)">1,000</text><text y=".32em" transform="translate(-9,0) translate(60,311.8783291281189)">2,000</text><text y=".32em" transform="translate(-9,0) translate(60,262.8174936921783)">3,000</text><text y=".32em" transform="translate(-9,0) translate(60,213.7566582562377)">4,000</text><text y=".32em" transform="translate(-9,0) translate(60,164.69582282029717)">5,000</text><text y=".32em" transform="translate(-9,0) translate(60,115.6349873843566)">6,000</text><text y=".32em" transform="translate(-9,0) translate(60,66.57415194841604)">7,000</text></g><g aria-label="y-axis label" text-anchor="start"><text y=".71em" transform="translate(-57,-57) translate(60,60)">↑ Visible Vestiges (4 days)</text></g><g aria-label="x-axis tick" fill="none" stroke="currentColor"><path transform="translate(90.17500000000001,410)" d="M0,0L0,6"/><path transform="translate(170.9375,410)" d="M0,0L0,6"/><path transform="translate(252.58749999999998,410)" d="M0,0L0,6"/><path transform="translate(334.23749999999995,410)" d="M0,0L0,6"/><path transform="translate(415,410)" d="M0,0L0,6"/><path transform="translate(495.76250000000005,410)" d="M0,0L0,6"/><path transform="translate(577.4125,410)" d="M0,0L0,6"/><path transform="translate(659.0625,410)" d="M0,0L0,6"/><path transform="translate(738.9375,410)" d="M0,0L0,6"/></g><g aria-label="x-axis tick label" font-variant="tabular-nums"><text transform="translate(0,9) translate(90.17500000000001,410)"><tspan x="0" y=".71em">Apr</tspan><tspan x="0" dy="1em">2023</tspan></text><text y=".71em" transform="translate(0,9) translate(170.9375,410)">Jul</text><text y=".71em" transform="translate(0,9) translate(252.58749999999998,410)">Oct</text><text transform="translate(0,9) translate(334.23749999999995,410)"><tspan x="0" y=".71em">Jan</tspan><tspan x="0" dy="1em">2024</tspan></text><text y=".71em" transform="translate(0,9) translate(415,410)">Apr</text><text y=".71em" transform="translate(0,9) translate(495.76250000000005,410)">Jul</text><text y=".71em" transform="translate(0,9) translate(577.4125,410)">Oct</text><text transform="translate(0,9) translate(659.0625,410)"><tspan x="0" y=".71em">Jan</tspan><tspan x="0" dy="1em">2025</tspan></text><text y=".71em" transform="translate(0,9) translate(738.9375,410)">Apr</text></g><g aria-label="line" fill="none" stroke="currentColor" stroke-width="1.5" stroke-linejoin="round" stroke-linecap="round"><path d="M60,410L60.592,385.371L61.183,295.296L61.775,246.726L62.367,236.913L62.958,270.177L63.55,274.003L64.142,266.497L64.733,238.434L65.325,216.013L65.917,178.237L66.508,139.626L67.1,90.369L67.692,109.65L68.283,145.66L68.875,202.669L69.467,195.015L70.058,193.445L70.65,192.906L71.242,202.227L71.833,211.5L72.425,182.996L73.017,179.12L73.608,151.989L74.2,189.815L74.792,205.22L75.383,226.905L75.975,195.948L76.567,180.395L77.158,178.089L77.75,172.398L78.342,155.718L78.933,120.05L79.525,109.601L80.117,132.463L80.708,196.683L81.3,250.013L81.892,270.765L82.483,263.21L83.075,242.555L83.667,233.038L84.258,194.623L84.85,149.978L85.442,97.041L86.033,82.862L86.625,111.808L87.217,141.343L87.808,166.756L88.4,169.111L88.992,181.131L89.583,172.595L90.175,152.136L90.767,116.665L91.358,86.689L91.95,60L92.542,86.934L93.133,122.258L93.725,160.378L94.317,147.328L94.908,133.297L95.5,116.518L96.092,104.351L96.683,106.461L97.275,106.362L97.867,107.049L98.458,95.029L99.05,125.006L99.642,147.77L100.233,175.048L100.825,172.791L101.417,182.603L102.008,202.375L102.6,199.333L103.192,182.358L103.783,158.759L104.375,141.883L104.967,161.114L105.558,182.161L106.15,219.055L106.742,234.853L107.333,250.503L107.925,249.718L108.517,224.795L109.108,202.473L109.7,178.482L110.292,176.716L110.883,168.474L111.475,188.785L112.067,212.825L112.658,207.967L113.25,205.613L113.842,211.5L114.433,247.412L115.025,255.802L115.617,231.32L116.208,208.507L116.8,194.329L117.392,192.562L117.983,221.508L118.575,245.744L119.167,262.033L119.758,240.74L120.35,245.793L120.942,248.099L121.533,252.662L122.125,215.327L122.717,195.997L123.308,185.841L123.9,211.549L124.492,223.814L125.083,231.32L125.675,235.638L126.267,238.483L126.858,248.05L127.45,248.345L128.042,235.834L128.633,235.785L129.225,227.69L129.817,239.955L130.408,253.496L131,267.527L131.592,274.151L132.183,266.154L132.775,265.712L133.367,267.086L133.958,259.334L134.55,217.829L135.142,195.212L135.733,179.757L136.325,216.897L136.917,223.618L137.508,247.412L138.1,243.438L138.692,262.327L139.283,246.578L139.875,241.623L140.467,218.025L141.058,203.454L141.65,196.34L142.242,200.314L142.833,230.486L143.425,232.105L144.017,239.857L144.608,249.865L145.2,249.718L145.792,261.297L146.383,259.579L146.975,278.174L147.567,273.464L148.158,263.799L148.75,265.761L149.342,263.21L149.933,262.719L150.525,262.817L151.117,267.969L151.708,285.042L152.3,277.438L152.892,269.637L153.483,263.014L154.075,259.825L154.667,265.123L155.258,263.063L155.85,273.366L156.442,272.384L157.033,264.191L157.625,257.813L158.217,261.64L158.808,269.833L159.4,270.569L159.992,274.396L160.583,265.123L161.175,267.675L161.767,255.262L162.358,262.916L162.95,264.093L163.542,284.993L164.133,288.82L164.725,293.824L165.317,272.875L165.908,265.271L166.5,260.414L167.092,258.647L167.683,260.953L168.275,256.292L168.867,262.278L169.458,245.744L170.05,237.649L170.642,247.952L171.233,265.859L171.825,276.26L172.417,281.068L173.008,283.766L173.6,298.534L174.192,288.28L174.783,291.665L175.375,280.381L175.967,284.404L176.558,276.604L177.15,280.283L177.742,278.615L178.333,282.442L178.925,276.751L179.517,276.996L180.108,272.679L180.7,283.325L181.292,279.4L181.883,283.963L182.475,277.928L183.067,271.109L183.658,268.263L184.25,262.572L184.842,269.49L185.433,277.29L186.025,270.373L186.617,268.165L187.208,274.445L187.8,286.514L188.392,296.817L188.983,281.804L189.575,289.458L190.167,282.687L190.758,288.771L191.35,284.306L191.942,276.015L192.533,262.082L193.125,253.643L193.717,272.826L194.308,271.452L194.9,271.599L195.492,257.617L196.083,263.161L196.675,270.716L197.267,270.177L197.858,279.694L198.45,269.637L199.042,269.244L199.633,254.87L200.225,255.704L200.817,255.556L201.408,266.791L202,258.255L202.592,242.653L203.183,208.605L203.775,213.266L204.367,232.105L204.958,264.486L205.55,273.905L206.142,282.246L206.733,287.152L207.325,287.299L207.917,288.476L208.508,288.133L209.1,286.416L209.692,284.11L210.283,281.313L210.875,277.536L211.467,273.071L212.058,276.407L212.65,264.24L213.242,249.964L213.833,234.706L214.425,250.16L215.017,257.666L215.608,256.881L216.2,253.594L216.792,252.269L217.383,262.817L217.975,266.546L218.567,281.559L219.158,292.303L219.75,304.372L220.342,298.436L220.933,298.239L221.525,287.25L222.117,282.785L222.708,285.876L223.3,287.888L223.892,292.941L224.483,294.118L225.075,296.964L225.667,299.466L226.258,300.791L226.85,300.594L227.442,291.322L228.033,278.762L228.625,281.755L229.217,284.944L229.808,294.609L230.4,300.692L230.992,307.512L231.583,314.822L232.175,324.242L232.767,331.208L233.358,307.463L233.95,288.329L234.542,276.26L235.133,283.08L235.725,301.576L236.317,310.505L236.908,334.25L237.5,334.103L238.092,330.227L238.683,324.094L239.275,307.806L239.867,300.496L240.458,270.373L241.05,254.575L241.642,265.32L242.233,289.556L242.825,316.294L243.417,312.909L244.008,314.626L244.6,308.101L245.192,313.792L245.783,310.308L246.375,299.073L246.967,292.597L247.558,288.329L248.15,309.965L248.742,320.415L249.333,335.182L249.925,329.687L250.517,326.94L251.108,315.999L251.7,310.161L252.292,300.496L252.883,294.315L253.475,293.137L254.067,309.229L254.658,321.592L255.25,331.306L255.842,327.087L256.433,332.827L257.025,329.982L257.617,320.268L258.208,306.285L258.8,288.771L259.392,275.377L259.983,270.373L260.575,281.706L261.167,301.379L261.758,316.588L262.35,323.8L262.942,320.611L263.533,313.595L264.125,314.282L264.717,318.845L265.308,303.047L265.9,282.246L266.492,277.977L267.083,303.293L267.675,329.05L268.267,341.168L268.858,335.231L269.45,332.974L270.042,326.253L270.633,316.049L271.225,290.144L271.817,276.555L272.408,272.139L273,295.1L273.592,307.855L274.183,316.196L274.775,315.656L275.367,314.233L275.958,319.483L276.55,307.316L277.142,308.052L277.733,303.195L278.325,315.803L278.917,323.751L279.508,328.412L280.1,330.325L280.692,332.484L281.283,346.81L281.875,348.38L282.467,324.291L283.058,300.938L283.65,277.83L284.242,286.121L284.833,301.821L285.425,330.571L286.017,334.741L286.608,333.858L287.2,334.299L287.792,342.983L288.383,343.375L288.975,341.756L289.567,333.71L290.158,336.163L290.75,329.442L291.342,338.911L291.933,344.504L292.525,357.603L293.117,357.063L293.708,356.72L294.3,353.531L294.892,360.203L295.483,346.761L296.075,326.351L296.667,301.526L297.258,303.096L297.85,312.32L298.442,331.012L299.033,339.058L299.625,349.165L300.217,342.198L300.808,334.839L301.4,323.555L301.992,322.525L302.583,320.17L303.175,322.083L303.767,321.396L304.358,328.412L304.95,330.08L305.542,327.627L306.133,316.441L306.725,316.588L307.317,321.494L307.908,338.567L308.5,335.28L309.092,330.914L309.683,324.83L310.275,335.133L310.867,351.618L311.458,355.935L312.05,351.765L312.642,345.927L313.233,351.618L313.825,354.12L314.417,355.837L315.008,352.354L315.6,349.802L316.192,352.599L316.783,348.281L317.375,343.523L317.967,344.258L318.558,355.641L319.15,369.034L319.742,366.091L320.333,355.248L320.925,340.775L321.517,335.133L322.108,343.768L322.7,351.961L323.292,347.742L323.883,347.496L324.475,353.04L325.067,361.037L325.658,353.089L326.25,349.999L326.842,345.779L327.433,338.518L328.025,327.725L328.617,334.005L329.208,346.025L329.8,344.847L330.392,336.213L330.983,328.951L331.575,335.378L332.167,333.073L332.758,333.024L333.35,332.631L333.942,336.409L334.533,338.813L335.125,338.42L335.717,338.616L336.308,332.582L336.9,335.918L337.492,341.707L338.083,342.787L338.675,351.274L339.267,347.251L339.858,347.938L340.45,343.032L341.042,343.572L341.633,351.421L342.225,353.433L342.817,357.701L343.408,366.483L344,369.966L344.592,364.472L345.183,351.814L345.775,337.292L346.367,326.548L346.958,317.177L347.55,325.615L348.142,336.507L348.733,353.973L349.325,344.16L349.917,334.397L350.508,331.454L351.1,342.051L351.692,345.632L352.283,336.507L352.875,308.689L353.467,307.561L354.058,305.5L354.65,330.08L355.242,339.598L355.833,349.214L356.425,358.29L357.017,360.988L357.608,346.859L358.2,315.411L358.792,299.907L359.383,295.345L359.975,313.399L360.567,323.849L361.158,342.149L361.75,342.002L362.342,341.854L362.933,334.25L363.525,339.058L364.117,327.627L364.708,312.271L365.3,298.141L365.892,305.893L366.483,317.569L367.075,327.038L367.667,333.661L368.258,332.68L368.85,326.94L369.442,311.486L370.033,315.705L370.625,307.463L371.217,290.095L371.808,267.871L372.4,275.77L372.992,294.952L373.583,304.323L374.175,303.342L374.767,311.339L375.358,326.891L375.95,332.533L376.542,330.276L377.133,319.434L377.725,309.131L378.317,319.728L378.908,328.608L379.5,336.948L380.092,320.366L380.683,321.2L381.275,329.835L381.867,334.005L382.458,324.389L383.05,305.549L383.642,307.708L384.233,309.916L384.825,328.019L385.417,328.412L386.008,338.911L386.6,340.039L387.192,343.179L387.783,342.492L388.375,337.979L388.967,336.605L389.558,322.868L390.15,321.887L390.742,324.536L391.333,348.576L391.925,355.248L392.517,352.991L393.108,350.146L393.7,354.169L394.292,360.596L394.883,347.546L395.475,339.058L396.067,338.764L396.658,341.02L397.25,340.186L397.842,347.006L398.433,359.664L399.025,356.426L399.617,346.81L400.208,339.941L400.8,337.194L401.392,329.344L401.983,313.743L402.575,313.105L403.167,321.396L403.758,359.516L404.35,387.825L404.942,406.124L405.533,409.166L406.125,409.215L406.717,408.97L407.308,408.724L407.9,406.86L408.492,405.634L409.083,405.094L409.675,404.652L410.267,401.954L410.858,399.943L411.45,398.667L412.042,395.38L412.633,388.168L413.225,366.287L413.817,356.475L414.408,350.391L415,361.479L415.592,364.913L416.183,365.158L416.775,359.418L417.367,355.101L417.958,349.459L418.55,347.349L419.142,345.73L419.733,343.179L420.325,347.251L420.917,353.089L421.508,356.916L422.1,353.482L422.692,358.094L423.283,364.275L423.875,365.06L424.467,362.656L425.058,364.472L425.65,367.072L426.242,364.226L426.833,355.15L427.425,355.592L428.017,359.565L428.608,364.717L429.2,368.544L429.792,365.845L430.383,372.91L430.975,375.559L431.567,382.133L432.158,379.043L432.75,377.522L433.342,367.759L433.933,356.622L434.525,354.856L435.117,361.871L435.708,364.717L436.3,363.883L436.892,359.271L437.483,365.06L438.075,360.056L438.667,360.007L439.258,354.954L439.85,362.068L440.442,365.894L441.033,369.77L441.625,365.551L442.217,357.456L442.808,361.43L443.4,362.656L443.992,367.072L444.583,361.381L445.175,352.697L445.767,347.889L446.358,341.266L446.95,353.089L447.542,360.105L448.133,367.906L448.725,364.864L449.317,362.902L449.908,360.841L450.5,356.18L451.092,356.867L451.683,351.765L452.275,351.912L452.867,348.085L453.458,347.153L454.05,353.973L454.642,360.056L455.233,376.099L455.825,378.258L456.417,373.989L457.008,366.091L457.6,343.228L458.192,341.168L458.783,331.306L459.375,353.776L459.967,359.026L460.558,370.555L461.15,360.89L461.742,365.453L462.333,364.177L462.925,368.445L463.517,359.86L464.108,351.47L464.7,338.911L465.292,339.156L465.883,337.096L466.475,355.199L467.067,354.561L467.658,351.421L468.25,341.953L468.842,343.572L469.433,349.312L470.025,345.338L470.617,346.319L471.208,338.616L471.8,349.999L472.392,349.508L472.983,360.449L473.575,353.335L474.167,353.089L474.758,349.655L475.35,352.206L475.942,347.055L476.533,342.198L477.125,332.19L477.717,331.11L478.308,340.186L478.9,342.541L479.492,347.447L480.083,351.029L480.675,362.803L481.267,357.652L481.858,355.935L482.45,351.372L483.042,354.561L483.633,353.678L484.225,351.716L484.817,363.098L485.408,372.223L486,378.405L486.592,373.008L487.183,354.414L487.775,352.942L488.367,353.188L488.958,366.189L489.55,349.655L490.142,349.999L490.733,348.772L491.325,359.32L491.917,353.629L492.508,359.222L493.1,367.072L493.692,374.922L494.283,373.548L494.875,373.989L495.467,368.298L496.058,353.825L496.65,349.312L497.242,351.372L497.833,354.757L498.425,356.573L499.017,352.206L499.608,362.951L500.2,367.023L500.792,374.48L501.383,370.849L501.975,365.355L502.567,366.974L503.158,372.468L503.75,378.994L504.342,375.952L504.933,373.695L505.525,369.819L506.117,363.638L506.708,358.192L507.3,363.638L507.892,370.015L508.483,370.997L509.075,365.698L509.667,366.777L510.258,366.826L510.85,366.14L511.442,363.098L512.033,365.306L512.625,365.502L513.217,361.086L513.808,352.844L514.4,336.507L514.992,333.612L515.583,335.722L516.175,353.433L516.767,359.32L517.358,361.135L517.95,362.068L518.542,365.6L519.133,372.125L519.725,372.174L520.317,367.759L520.908,364.717L521.5,355.493L522.092,354.169L522.683,344.013L523.275,342.051L523.867,333.024L524.458,333.612L525.05,335.673L525.642,334.888L526.233,332.435L526.825,341.07L527.417,348.723L528.008,343.228L528.6,339.892L529.192,342.639L529.783,354.463L530.375,356.867L530.967,365.06L531.558,341.511L532.15,317.373L532.742,285.925L533.333,289.408L533.925,294.805L534.517,309.572L535.108,313.497L535.7,307.365L536.292,307.168L536.883,321.985L537.475,333.907L538.067,332.582L538.658,327.038L539.25,323.26L539.842,328.167L540.433,344.013L541.025,352.255L541.617,359.86L542.208,358.633L542.8,363.588L543.392,359.32L543.983,352.893L544.575,346.761L545.167,339.598L545.758,341.119L546.35,346.662L546.942,354.463L547.533,358.535L548.125,367.464L548.717,376.786L549.308,382.918L549.9,381.986L550.492,376.442L551.083,376.099L551.675,372.518L552.267,375.756L552.858,373.253L553.45,377.767L554.042,374.872L554.633,376.148L555.225,367.611L555.817,366.925L556.408,362.46L557,369.868L557.592,366.385L558.183,363.588L558.775,359.418L559.367,364.521L559.958,367.611L560.55,372.419L561.142,372.076L561.733,378.65L562.325,379.582L562.917,381.005L563.508,380.024L564.1,374.087L564.692,372.125L565.283,370.064L565.875,374.774L566.467,374.333L567.058,373.695L567.65,369.77L568.242,373.401L568.833,368.004L569.425,359.958L570.017,347.546L570.608,333.907L571.2,343.719L571.792,350.685L572.383,365.6L572.975,369.083L573.567,367.66L574.158,367.072L574.75,360.399L575.342,355.297L575.933,333.416L576.525,333.024L577.117,343.67L577.708,358.339L578.3,361.086L578.892,364.422L579.483,372.37L580.075,373.401L580.667,370.751L581.258,368.249L581.85,360.645L582.442,350.685L583.033,340.088L583.625,349.704L584.217,360.203L584.808,375.02L585.4,373.744L585.992,376.541L586.583,382.133L587.175,382.084L587.767,382.771L588.358,379.435L588.95,381.348L589.542,379.779L590.133,381.692L590.725,386.255L591.317,384.537L591.908,380.318L592.5,374.48L593.092,375.216L593.683,370.997L594.275,368.396L594.867,364.275L595.458,363.49L596.05,372.468L596.642,378.405L597.233,384.881L597.825,382.869L598.417,382.084L599.008,384.734L599.6,385.813L600.192,386.058L600.783,377.718L601.375,372.763L601.967,376.295L602.558,389.689L603.15,394.006L603.742,387.825L604.333,382.869L604.925,374.872L605.517,377.178L606.108,370.702L606.7,362.803L607.292,353.923L607.883,345.142L608.475,350.146L609.067,355.542L609.658,369.77L610.25,376.982L610.842,375.854L611.433,377.031L612.025,379.386L612.617,377.276L613.208,372.468L613.8,365.011L614.392,371.34L614.983,371.291L615.575,381.201L616.167,382.379L616.758,382.624L617.35,379.386L617.942,377.227L618.533,380.956L619.125,376.688L619.717,373.744L620.308,371.144L620.9,376.737L621.492,378.16L622.083,378.552L622.675,375.118L623.267,375.412L623.858,373.94L624.45,375.265L625.042,374.333L625.633,370.948L626.225,363.294L626.817,367.808L627.408,375.559L628,381.79L628.592,381.348L629.183,381.054L629.775,384.39L630.367,387.53L630.958,387.825L631.55,390.817L632.142,392.436L632.733,395.527L633.325,391.112L633.917,388.855L634.508,390.228L635.1,389.247L635.692,377.767L636.283,372.567L636.875,367.808L637.467,378.307L638.058,380.416L638.65,388.904L639.242,385.568L639.833,384.979L640.425,386.843L641.017,389.444L641.608,387.285L642.2,383.311L642.792,381.643L643.383,377.914L643.975,371.831L644.567,372.321L645.158,373.204L645.75,380.269L646.342,373.94L646.933,377.473L647.525,380.171L648.117,388.07L648.708,388.119L649.3,384.734L649.892,381.299L650.483,374.627L651.075,377.963L651.667,374.971L652.258,381.79L652.85,378.601L653.442,384.685L654.033,386.892L654.625,389.149L655.217,387.775L655.808,387.383L656.4,379.828L656.992,376.491L657.583,361.528L658.175,358.388L658.767,356.229L659.358,363.834L659.95,368.593L660.542,370.899L661.133,367.71L661.725,360.007L662.317,360.694L662.908,361.822L663.5,370.702L664.092,374.529L664.683,380.171L665.275,382.526L665.867,379.828L666.458,385.764L667.05,380.563L667.642,381.594L668.233,378.258L668.825,382.624L669.417,379.877L670.008,381.79L670.6,382.183L671.192,385.224L671.783,384.096L672.375,379.975L672.967,378.405L673.558,370.604L674.15,373.499L674.742,372.468L675.333,376.05L675.925,373.45L676.517,370.31L677.108,368.593L677.7,370.899L678.292,378.356L678.883,380.318L679.475,379.729L680.067,376.05L680.658,376.246L681.25,372.763L681.842,362.215L682.433,349.017L683.025,344.896L683.617,355.297L684.208,370.015L684.8,380.024L685.392,380.269L685.983,377.571L686.575,377.375L687.167,380.122L687.758,375.559L688.35,368.2L688.942,367.219L689.533,371.585L690.125,376.05L690.717,373.253L691.308,375.657L691.9,371.733L692.492,364.079L693.083,363.785L693.675,367.415L694.267,377.718L694.858,379.582L695.45,382.673L696.042,387.04L696.633,379.975L697.225,381.398L697.817,373.253L698.408,375.069L699,369.868L699.592,363.932L700.183,362.411L700.775,363.343L701.367,369.672L701.958,367.317L702.55,369.23L703.142,370.457L703.733,372.616L704.325,371.683L704.917,369.329L705.508,368.838L706.1,370.948L706.692,374.137L707.283,376.59L707.875,375.069L708.467,365.796L709.058,370.702L709.65,363.392L710.242,367.268L710.833,368.053L711.425,376.933L712.017,380.171L712.608,366.679L713.2,353.188L713.792,350.538L714.383,354.218L714.975,364.03L715.567,363.883L716.158,361.184L716.75,356.769L717.342,356.965L717.933,364.472L718.525,371.438L719.117,373.646L719.708,376.884L720.3,373.94L720.892,374.774L721.483,372.959L722.075,375.363L722.667,374.529L723.258,369.623L723.85,366.287L724.442,369.966L725.033,379.828L725.625,383.507L726.217,382.379L726.808,381.25L727.4,384.979L727.992,387.874L728.583,386.156L729.175,386.696L729.767,386.402L730.358,387.187L730.95,383.017L731.542,381.398L732.133,377.963L732.725,380.858L733.317,378.11L733.908,384.39L734.5,376.491L735.092,381.201L735.683,376.246L736.275,386.402L736.867,387.285L737.458,383.213L738.05,379.337L738.642,375.216L739.233,386.892L739.825,388.609L740.417,386.843L741.008,384.292L741.6,384.243L742.192,393.466L742.783,393.466L743.375,397.342L743.967,392.976L744.558,395.478L745.15,387.481L745.742,382.82L746.333,376.688L746.925,384.096L747.517,389.1L748.108,394.791L748.7,395.086L749.292,399.501L749.883,395.184L750.475,391.504L751.067,385.421L751.658,391.7L752.25,392.632L752.842,395.036L753.433,388.953L754.025,392.485L754.617,393.712L755.208,399.01L755.8,392.976L756.392,388.953L756.983,386.794L757.575,390.081L758.167,393.368L758.758,395.527L759.35,397.342L759.942,400.629L760.533,402.788L761.125,402.445L761.717,398.225L762.308,398.912L762.9,399.452L763.492,404.162L764.083,402.592L764.675,404.162L765.267,404.162L765.858,405.094L766.45,405.535L767.042,406.124L767.633,405.192L768.225,401.414L768.817,400.286L769.408,400.041L770,404.898"/></g></svg>