<svg class="plot-d6a7b5" fill="currentColor" font-family="system-ui, sans-serif" font-size="10" text-anchor="middle" width="830" height="470" viewBox="0 0 830 470" xmlns="http://www.w3.org/2000/svg" xmlns:xlink="http://www.w3.org/1999/xlink" color="dodgerblue"><style>:where(.plot-d6a7b5){--plot-background: white;display:block;height:intrinsic;max-width:100%}:where(.plot-d6a7b5 text),:where(.plot-d6a7b5 tspan){white-space:pre}</style><g aria-label="y-grid" stroke="currentColor" stroke-opacity=".1"><line x1="60" x2="770" y1="410" y2="410"/><line x1="60" x2="770" y1="360.939" y2="360.939"/><line x1="60" x2="770" y1="311.878" y2="311.878"/><line x1="60" x2="770" y1="262.817" y2="262.817"/><line x1="60" x2="770" y1="213.757" y2="213.757"/><line x1="60" x2="770" y1="164.696" y2="164.696"/><line x1="60" x2="770" y1="115.635" y2="115.635"/><line x1="60" x2="770" y1="66.574" y2="66.574"/></g><g aria-label="y-axis tick" fill="none" stroke="currentColor"><path transform="translate(60,410)" d="M0,0L-6,0"/><path transform="translate(60,360.9391645640594)" d="M0,0L-6,0"/><path transform="translate(60,311.8783291281189)" d="M0,0L-6,0"/><path transform="translate(60,262.8174936921783)" d="M0,0L-6,0"/><path transform="translate(60,213.7566582562377)" d="M0,0L-6,0"/><path transform="translate(60,164.69582282029717)" d="M0,0L-6,0"/><path transform="translate(60,115.6349873843566)" d="M0,0L-6,0"/><path transform="translate(60,66.57415194841604)" d="M0,0L-6,0"/></g><g aria-label="y-axis tick label" text-anchor="end" font-variant="tabular-nums"><text y=".32em" transform="translate(-9,0) translate(60,410)">0</text><text y=".32em" transform="translate(-9,0) translate(60,360.9391645640594)">1,000</text><text y=".32em" transform="translate(-9,0) translate(60,311.8783291281189)">2,000</text><text y=".32em" transform="translate(-9,0) translate(60,262.8174936921783)">3,000</text><text y=".32em" transform="translate(-9,0) translate(60,213.7566582562377)">4,000</text><text y=".32em" transform="translate(-9,0) translate(60,164.69582282029717)">5,000</text><text y=".32em" transform="translate(-9,0) translate(60,115.6349873843566)">6,000</text><text y=".32em" transform="translate(-9,0) translate(60,66.57415194841604)">7,000</text></g><g aria-label="y-axis label" text-anchor="start"><text y=".71em" transform="translate(-57,-57) translate(60,60)">↑ Visible Vestiges (Default settings)</text></g><g aria-label="x-axis tick" fill="none" stroke="currentColor"><path transform="translate(67.00657894736842,410)" d="M0,0L0,6"/><path transform="translate(139.4078947368421,410)" d="M0,0L0,6"/><path transform="translate(209.47368421052633,410)" d="M0,0L0,6"/><path transform="translate(281.875,410)" d="M0,0L0,6"/><path transform="translate(351.94078947368416,410)" d="M0,0L0,6"/><path transform="translate(424.3421052631579,410)" d="M0,0L0,6"/><path transform="translate(496.74342105263156,410)" d="M0,0L0,6"/><path transform="translate(566.8092105263157,410)" d="M0,0L0,6"/><path transform="translate(639.2105263157895,410)" d="M0,0L0,6"/><path transform="translate(709.2763157894738,410)" d="M0,0L0,6"/></g><g aria-label="x-axis tick label" font-variant="tabular-nums"><text transform="translate(0,9) translate(67.00657894736842,410)"><tspan x="0" y=".71em">Mar</tspan><tspan x="0" dy="1em">2023</tspan></text><text y=".71em" transform="translate(0,9) translate(139.4078947368421,410)">Apr</text><text y=".71em" transform="translate(0,9) translate(209.47368421052633,410)">May</text><text y=".71em" transform="translate(0,9) translate(281.875,410)">Jun</text><text y=".71em" transform="translate(0,9) translate(351.94078947368416,410)">Jul</text><text y=".71em" transform="translate(0,9) translate(424.3421052631579,410)">Aug</text><text y=".71em" transform="translate(0,9) translate(496.74342105263156,410)">Sep</text><text y=".71em" transform="translate(0,9) translate(566.8092105263157,410)">Oct</text><text y=".71em" transform="translate(0,9) translate(639.2105263157895,410)">Nov</text><text y=".71em" transform="translate(0,9) translate(709.2763157894738,410)">Dec</text></g><g aria-label="line" fill="none" stroke="currentColor" stroke-width="1.5" stroke-linejoin="round" stroke-linecap="round"><path d="M60,410L61.557,385.371L63.114,295.296L64.671,246.726L66.228,236.913L67.785,270.177L69.342,274.003L70.899,266.497L72.456,238.434L74.013,216.013L75.57,178.237L77.127,139.626L78.684,90.369L80.241,109.65L81.798,145.66L83.355,202.669L84.912,195.015L86.469,193.445L88.026,192.906L89.583,202.227L91.14,211.5L92.697,182.996L94.254,179.12L95.811,151.989L97.368,189.815L98.925,205.22L100.482,226.905L102.039,195.948L103.596,180.395L105.154,178.089L106.711,172.398L108.268,155.718L109.825,120.05L111.382,109.601L112.939,132.463L114.496,196.683L116.053,250.013L117.61,270.765L119.167,263.21L120.724,242.555L122.281,233.038L123.838,194.623L125.395,149.978L126.952,97.041L128.509,82.862L130.066,111.808L131.623,141.343L133.18,166.756L134.737,169.111L136.294,181.131L137.851,172.595L139.408,152.136L140.965,116.665L142.522,86.689L144.079,60L145.636,86.934L147.193,122.258L148.75,160.378L150.307,147.328L151.864,133.297L153.421,116.518L154.978,104.351L156.535,106.461L158.092,106.362L159.649,107.049L161.206,95.029L162.763,125.006L164.32,147.77L165.877,175.048L167.434,172.791L168.991,182.603L170.548,202.375L172.105,199.333L173.662,182.358L175.219,158.759L176.776,141.883L178.333,161.114L179.89,182.161L181.447,219.055L183.004,234.853L184.561,250.503L186.118,249.718L187.675,224.795L189.232,202.473L190.789,178.482L192.346,176.716L193.904,168.474L195.461,188.785L197.018,212.825L198.575,207.967L200.132,205.613L201.689,211.5L203.246,247.412L204.803,255.802L206.36,231.32L207.917,208.507L209.474,194.329L211.031,192.562L212.588,221.508L214.145,245.744L215.702,262.033L217.259,240.74L218.816,245.793L220.373,248.099L221.93,252.662L223.487,215.327L225.044,195.997L226.601,185.841L228.158,211.549L229.715,223.814L231.272,231.32L232.829,235.638L234.386,238.483L235.943,248.05L237.5,248.345L239.057,235.834L240.614,235.785L242.171,227.69L243.728,239.955L245.285,253.496L246.842,267.527L248.399,274.151L249.956,266.154L251.513,265.712L253.07,267.086L254.627,259.334L256.184,217.829L257.741,195.212L259.298,179.757L260.855,216.897L262.412,223.618L263.969,247.412L265.526,243.438L267.083,262.327L268.64,246.578L270.197,241.623L271.754,218.025L273.311,203.454L274.868,196.34L276.425,200.314L277.982,230.486L279.539,232.105L281.096,239.857L282.654,249.865L284.211,249.718L285.768,261.297L287.325,259.579L288.882,278.174L290.439,273.464L291.996,263.799L293.553,265.761L295.11,263.21L296.667,262.719L298.224,262.817L299.781,267.969L301.338,285.042L302.895,277.438L304.452,269.637L306.009,263.014L307.566,259.825L309.123,265.123L310.68,263.063L312.237,273.366L313.794,272.384L315.351,264.191L316.908,257.813L318.465,261.64L320.022,269.833L321.579,270.569L323.136,274.396L324.693,265.123L326.25,267.675L327.807,255.262L329.364,262.916L330.921,264.093L332.478,284.993L334.035,288.82L335.592,293.824L337.149,272.875L338.706,265.271L340.263,260.414L341.82,258.647L343.377,260.953L344.934,256.292L346.491,262.278L348.048,245.744L349.605,237.649L351.162,247.952L352.719,265.859L354.276,276.26L355.833,281.068L357.39,283.766L358.947,298.534L360.504,288.28L362.061,291.665L363.618,280.381L365.175,284.404L366.732,276.604L368.289,280.283L369.846,278.615L371.404,282.442L372.961,276.751L374.518,276.996L376.075,272.679L377.632,283.325L379.189,279.4L380.746,283.963L382.303,277.928L383.86,271.109L385.417,268.263L386.974,262.572L388.531,269.49L390.088,277.29L391.645,270.373L393.202,268.165L394.759,274.445L396.316,286.514L397.873,296.817L399.43,281.804L400.987,289.458L402.544,282.687L404.101,288.771L405.658,284.306L407.215,276.015L408.772,262.082L410.329,253.643L411.886,272.826L413.443,271.452L415,271.599L416.557,257.617L418.114,263.161L419.671,270.716L421.228,270.177L422.785,279.694L424.342,269.637L425.899,269.244L427.456,254.87L429.013,255.704L430.57,255.556L432.127,266.791L433.684,258.255L435.241,242.653L436.798,208.605L438.355,213.266L439.912,232.105L441.469,264.486L443.026,273.905L444.583,282.246L446.14,287.152L447.697,287.299L449.254,288.476L450.811,288.133L452.368,286.416L453.925,284.11L455.482,281.313L457.039,277.536L458.596,273.071L460.154,276.407L461.711,264.24L463.268,249.964L464.825,234.706L466.382,250.16L467.939,257.666L469.496,256.881L471.053,253.594L472.61,252.269L474.167,262.817L475.724,266.546L477.281,281.559L478.838,292.303L480.395,304.372L481.952,298.436L483.509,298.239L485.066,287.25L486.623,282.785L488.18,285.876L489.737,287.888L491.294,292.941L492.851,294.118L494.408,296.964L495.965,299.466L497.522,300.791L499.079,300.594L500.636,291.322L502.193,278.762L503.75,281.755L505.307,284.944L506.864,294.609L508.421,300.692L509.978,307.512L511.535,314.822L513.092,324.242L514.649,331.208L516.206,307.463L517.763,288.329L519.32,276.26L520.877,283.08L522.434,301.576L523.991,310.505L525.548,334.25L527.105,334.103L528.662,330.227L530.219,324.094L531.776,307.806L533.333,300.496L534.89,270.373L536.447,254.575L538.004,265.32L539.561,289.556L541.118,316.294L542.675,312.909L544.232,314.626L545.789,308.101L547.346,313.792L548.904,310.308L550.461,299.073L552.018,292.597L553.575,288.329L555.132,309.965L556.689,320.415L558.246,335.182L559.803,329.687L561.36,326.94L562.917,315.999L564.474,310.161L566.031,300.496L567.588,294.315L569.145,293.137L570.702,309.229L572.259,321.592L573.816,331.306L575.373,327.087L576.93,332.827L578.487,329.982L580.044,320.268L581.601,306.285L583.158,288.771L584.715,275.377L586.272,270.373L587.829,281.706L589.386,301.379L590.943,316.588L592.5,323.8L594.057,320.611L595.614,313.595L597.171,314.282L598.728,318.845L600.285,303.047L601.842,282.246L603.399,277.977L604.956,303.293L606.513,329.05L608.07,341.168L609.627,335.231L611.184,332.974L612.741,326.253L614.298,316.049L615.855,290.144L617.412,276.555L618.969,272.139L620.526,295.1L622.083,307.855L623.64,316.196L625.197,315.656L626.754,314.233L628.311,319.483L629.868,307.316L631.425,308.052L632.982,303.195L634.539,315.803L636.096,323.751L637.654,328.412L639.211,330.325L640.768,332.484L642.325,346.81L643.882,348.38L645.439,324.291L646.996,300.938L648.553,277.83L650.11,286.121L651.667,301.821L653.224,330.571L654.781,334.741L656.338,333.858L657.895,334.299L659.452,342.983L661.009,343.375L662.566,341.756L664.123,333.71L665.68,336.163L667.237,329.442L668.794,338.911L670.351,344.504L671.908,357.603L673.465,357.063L675.022,356.72L676.579,353.531L678.136,360.203L679.693,346.761L681.25,326.351L682.807,301.526L684.364,303.096L685.921,312.32L687.478,331.012L689.035,339.058L690.592,349.165L692.149,342.198L693.706,334.839L695.263,323.555L696.82,322.525L698.377,320.17L699.934,322.083L701.491,321.396L703.048,328.412L704.605,330.08L706.162,327.627L707.719,316.441L709.276,316.588L710.833,321.494L712.39,338.567L713.947,335.28L715.504,330.914L717.061,324.83L718.618,335.133L720.175,351.618L721.732,355.935L723.289,351.765L724.846,345.927L726.404,351.618L727.961,354.12L729.518,355.837L731.075,352.354L732.632,349.802L734.189,352.599L735.746,348.281L737.303,343.523L738.86,344.258L740.417,355.641L741.974,369.034L743.531,366.091L745.088,355.248L746.645,340.775L748.202,335.133L749.759,343.768L751.316,351.961L752.873,347.742L754.43,347.496L755.987,353.04L757.544,361.037L759.101,353.089L760.658,349.999L762.215,345.779L763.772,338.518L765.329,327.725L766.886,334.005L768.443,346.025L770,344.847"/></g></svg>