<?xml version="1.0"?>
<svg xmlns="http://www.w3.org/2000/svg" xmlns:xlink="http://www.w3.org/1999/xlink" class="plot-d6a7b5" fill="currentColor" font-family="system-ui, sans-serif" font-size="10" text-anchor="middle" width="830" height="470" viewBox="0 0 830 470" color="#1e90ff">
  <style>:where(.plot-d6a7b5){--plot-background: white;display:block;height:intrinsic;max-width:100%}:where(.plot-d6a7b5 text),:where(.plot-d6a7b5 tspan){white-space:pre}</style>
  <g aria-label="y-grid" stroke="currentColor" stroke-opacity=".1">
    <line x1="60" x2="770" y1="410" y2="410"/>
    <line x1="60" x2="770" y1="378.557" y2="378.557"/>
    <line x1="60" x2="770" y1="347.114" y2="347.114"/>
    <line x1="60" x2="770" y1="315.671" y2="315.671"/>
    <line x1="60" x2="770" y1="284.227" y2="284.227"/>
    <line x1="60" x2="770" y1="252.784" y2="252.784"/>
    <line x1="60" x2="770" y1="221.341" y2="221.341"/>
    <line x1="60" x2="770" y1="189.898" y2="189.898"/>
    <line x1="60" x2="770" y1="158.455" y2="158.455"/>
    <line x1="60" x2="770" y1="127.012" y2="127.012"/>
    <line x1="60" x2="770" y1="95.568" y2="95.568"/>
    <line x1="60" x2="770" y1="64.125" y2="64.125"/>
  </g>
  <g aria-label="y-axis tick" fill="none" stroke="currentColor">
    <path transform="translate(60,410)" d="M0,0L-6,0"/>
    <path transform="translate(60,378.55684921661634)" d="M0,0L-6,0"/>
    <path transform="translate(60,347.11369843323274)" d="M0,0L-6,0"/>
    <path transform="translate(60,315.6705476498491)" d="M0,0L-6,0"/>
    <path transform="translate(60,284.2273968664655)" d="M0,0L-6,0"/>
    <path transform="translate(60,252.7842460830818)" d="M0,0L-6,0"/>
    <path transform="translate(60,221.34109529969817)" d="M0,0L-6,0"/>
    <path transform="translate(60,189.8979445163145)" d="M0,0L-6,0"/>
    <path transform="translate(60,158.45479373293085)" d="M0,0L-6,0"/>
    <path transform="translate(60,127.01164294954722)" d="M0,0L-6,0"/>
    <path transform="translate(60,95.56849216616357)" d="M0,0L-6,0"/>
    <path transform="translate(60,64.12534138277994)" d="M0,0L-6,0"/>
  </g>
  <g aria-label="y-axis tick label" text-anchor="end" font-variant="tabular-nums">
    <text y=".32em" transform="translate(-9,0) translate(60,410)">0</text>
    <text y=".32em" transform="translate(-9,0) translate(60,378.55684921661634)">5,000</text>
    <text y=".32em" transform="translate(-9,0) translate(60,347.11369843323274)">10,000</text>
    <text y=".32em" transform="translate(-9,0) translate(60,315.6705476498491)">15,000</text>
    <text y=".32em" transform="translate(-9,0) translate(60,284.2273968664655)">20,000</text>
    <text y=".32em" transform="translate(-9,0) translate(60,252.7842460830818)">25,000</text>
    <text y=".32em" transform="translate(-9,0) translate(60,221.34109529969817)">30,000</text>
    <text y=".32em" transform="translate(-9,0) translate(60,189.8979445163145)">35,000</text>
    <text y=".32em" transform="translate(-9,0) translate(60,158.45479373293085)">40,000</text>
    <text y=".32em" transform="translate(-9,0) translate(60,127.01164294954722)">45,000</text>
    <text y=".32em" transform="translate(-9,0) translate(60,95.56849216616357)">50,000</text>
    <text y=".32em" transform="translate(-9,0) translate(60,64.12534138277994)">55,000</text>
  </g>
  <g aria-label="y-axis label" text-anchor="start">
    <text y=".71em" transform="translate(-57,-57) translate(60,60)">&#x2191; Visible Vestiges (30 days)</text>
  </g>
  <g aria-label="x-axis tick" fill="none" stroke="currentColor">
    <path transform="translate(86.06911447084234,410)" d="M0,0L0,6"/>
    <path transform="translate(155.8423326133909,410)" d="M0,0L0,6"/>
    <path transform="translate(226.38228941684662,410)" d="M0,0L0,6"/>
    <path transform="translate(296.9222462203024,410)" d="M0,0L0,6"/>
    <path transform="translate(366.695464362851,410)" d="M0,0L0,6"/>
    <path transform="translate(436.4686825053995,410)" d="M0,0L0,6"/>
    <path transform="translate(507.00863930885527,410)" d="M0,0L0,6"/>
    <path transform="translate(577.548596112311,410)" d="M0,0L0,6"/>
    <path transform="translate(646.5550755939524,410)" d="M0,0L0,6"/>
    <path transform="translate(716.328293736501,410)" d="M0,0L0,6"/>
  </g>
  <g aria-label="x-axis tick label" font-variant="tabular-nums">
    <text transform="translate(0,9) translate(86.06911447084234,410)">
      <tspan x="0" y=".71em">Apr</tspan>
      <tspan x="0" dy="1em">2023</tspan>
    </text>
    <text y=".71em" transform="translate(0,9) translate(155.8423326133909,410)">Jul</text>
    <text y=".71em" transform="translate(0,9) translate(226.38228941684662,410)">Oct</text>
    <text transform="translate(0,9) translate(296.9222462203024,410)">
      <tspan x="0" y=".71em">Jan</tspan>
      <tspan x="0" dy="1em">2024</tspan>
    </text>
    <text y=".71em" transform="translate(0,9) translate(366.695464362851,410)">Apr</text>
    <text y=".71em" transform="translate(0,9) translate(436.4686825053995,410)">Jul</text>
    <text y=".71em" transform="translate(0,9) translate(507.00863930885527,410)">Oct</text>
    <text transform="translate(0,9) translate(577.548596112311,410)">
      <tspan x="0" y=".71em">Jan</tspan>
      <tspan x="0" dy="1em">2025</tspan>
    </text>
    <text y=".71em" transform="translate(0,9) translate(646.5550755939524,410)">Apr</text>
    <text y=".71em" transform="translate(0,9) translate(716.328293736501,410)">Jul</text>
  </g>
  <g aria-label="line" fill="none" stroke="currentColor" stroke-width="1.5" stroke-linejoin="round" stroke-linecap="round">
    <path d="M60,410L60.511,406.843L61.022,395.297L61.533,389.071L62.045,384.657L62.556,377.375L63.067,371.639L63.578,366.263L64.089,355.383L64.6,346.774L65.112,336.555L65.623,320.727L66.134,305.804L66.645,298.056L67.156,286.843L67.667,279.228L68.179,270.499L68.69,259.085L69.201,251.401L69.712,243.867L70.223,233.642L70.734,222.303L71.246,214.273L71.757,200.57L72.268,194.08L72.779,188.024L73.29,177.101L73.801,166.643L74.312,158.593L74.824,147.374L75.335,139.344L75.846,140.702L76.357,131.137L76.868,123.025L77.379,123.05L77.891,121.226L78.402,120.912L78.913,127.194L79.424,127.276L79.935,129.156L80.446,139.168L80.958,140.639L81.469,134.325L81.98,132.936L82.491,125.282L83.002,123.66L83.513,126.257L84.024,121.93L84.536,119.415L85.047,122.364L85.558,120.597L86.069,115.956L86.58,117.837L87.091,107.379L87.603,97.342L88.114,99.895L88.625,97.933L89.136,94.776L89.647,95.952L90.158,92.921L90.67,89.752L91.181,93.94L91.692,92.519L92.203,86.406L92.714,82.45L93.225,72.653L93.737,67.722L94.248,67.653L94.759,64L95.27,60L95.781,66.113L96.292,70.716L96.803,73.112L97.315,78.866L97.826,76.734L98.337,73.181L98.848,78.143L99.359,78.407L99.87,78.042L100.382,86.123L100.893,91.016L101.404,95.097L101.915,103.825L102.426,109.278L102.937,106.831L103.449,110.806L103.96,110.315L104.471,112.145L104.982,121L105.493,122.037L106.004,125.125L106.515,134.464L107.027,140.117L107.538,144.192L108.049,151.933L108.56,150.82L109.071,150.16L109.582,154.179L110.094,157.065L110.605,158.254L111.116,161.825L111.627,162.373L112.138,166.385L112.649,173.277L113.161,176.572L113.672,173.334L114.183,175.05L114.694,172.315L115.205,170.347L115.716,171.629L116.228,169.957L116.739,171.736L117.25,176.245L117.761,178.874L118.272,180.918L118.783,184.88L119.294,184.898L119.806,182.823L120.317,188.98L120.828,191.036L121.339,190.005L121.85,192.407L122.361,192.363L122.873,194.413L123.384,199.916L123.895,200.696L124.406,197.652L124.917,196.545L125.428,192.237L125.94,191.866L126.451,194.35L126.962,192.445L127.473,191.269L127.984,195.589L128.495,196.451L129.006,197.117L129.518,199.714L130.029,195.413L130.54,193.596L131.051,195.74L131.562,194.753L132.073,192.778L132.585,194.69L133.096,194.948L133.607,194.558L134.118,197.96L134.629,199.035L135.14,199.457L135.652,200.519L136.163,198.557L136.674,198.381L137.185,200.142L137.696,198.174L138.207,197.834L138.719,201.249L139.23,206.789L139.741,208.374L140.252,212.77L140.763,212.701L141.274,213.015L141.785,215.04L142.297,215.216L142.808,214.43L143.319,218.348L143.83,218.109L144.341,219.53L144.852,225.806L145.364,227.529L145.875,228.535L146.386,231.434L146.897,231.761L147.408,232.101L147.919,232.126L148.431,233.453L148.942,232.459L149.453,235.384L149.964,234.818L150.475,235.069L150.986,236.547L151.497,234.755L152.009,234.711L152.52,236.025L153.031,234.516L153.542,233.214L154.053,233.107L154.564,230.453L155.076,229.114L155.587,231.177L156.098,231.227L156.609,230.541L157.12,233.484L157.631,232.56L158.143,233.893L158.654,236.572L159.165,236.899L159.676,236.295L160.187,238.44L160.698,237.673L161.21,237.05L161.721,240.169L162.232,239.566L162.743,239.805L163.254,241.974L163.765,240.666L164.276,239.591L164.788,240.767L165.299,239.402L165.81,240.238L166.321,241.515L166.832,240.408L167.343,240.742L167.855,242.609L168.366,243.1L168.877,241.779L169.388,245.483L169.899,247.816L170.41,246.722L170.922,249.451L171.433,248.527L171.944,247.797L172.455,249.313L172.966,247.275L173.477,247.288L173.988,247.307L174.5,244.93L175.011,243.345L175.522,246.823L176.033,243.798L176.544,242.446L177.055,243.641L177.567,242.056L178.078,241.641L178.589,243.32L179.1,241.59L179.611,240.389L180.122,241.433L180.634,238.635L181.145,238.415L181.656,239.805L182.167,239.176L182.678,236.975L183.189,235.365L183.701,231.258L184.212,229.938L184.723,229.938L185.234,228.435L185.745,227.001L186.256,229.994L186.767,228.139L187.279,227.592L187.79,229.957L188.301,228.63L188.812,228.925L189.323,232.78L189.834,232.176L190.346,229.529L190.857,232.988L191.368,232.793L191.879,230.378L192.39,231.296L192.901,228.177L193.413,227.812L193.924,228.472L194.435,226.542L194.946,225.806L195.457,228.139L195.968,227.454L196.479,227.215L196.991,230.032L197.502,231.818L198.013,235.126L198.524,241.546L199.035,242.71L199.546,242.194L200.058,243.892L200.569,244.244L201.08,242.917L201.591,244.634L202.102,245.118L202.613,244.005L203.125,246.087L203.636,246.961L204.147,246.118L204.658,247.37L205.169,247.118L205.68,247.231L206.192,248.464L206.703,251.011L207.214,253.734L207.725,257.796L208.236,259.299L208.747,262.268L209.258,267.324L209.77,266.204L210.281,266.89L210.792,269.047L211.303,268.323L211.814,269.455L212.325,271.38L212.837,272.153L213.348,274.027L213.859,275.48L214.37,276.876L214.881,277.234L215.392,277.354L215.904,274.631L216.415,272.317L216.926,273.662L217.437,273.681L217.948,274.474L218.459,275.216L218.97,275.48L219.482,276.624L219.993,279.706L220.504,279.14L221.015,278.436L221.526,279.448L222.037,277.555L222.549,278.75L223.06,280.165L223.571,278.958L224.082,278.555L224.593,282.662L225.104,282.504L225.616,282.9L226.127,284.894L226.638,281.574L227.149,280.674L227.66,281.687L228.171,279.97L228.683,280.813L229.194,282.07L229.705,283.177L230.216,284.592L230.727,288.466L231.238,289.805L231.749,287.598L232.261,286.649L232.772,283.919L233.283,283.599L233.794,284.951L234.305,285.007L234.816,284.881L235.328,286.271L235.839,286.869L236.35,287.661L236.861,290.183L237.372,285.982L237.883,282.768L238.395,282.85L238.906,282.599L239.417,283.039L239.928,286.076L240.439,285.812L240.95,287.202L241.461,290.17L241.973,288.749L242.484,284.756L242.995,284.397L243.506,281.165L244.017,280.655L244.528,281.196L245.04,279.398L245.551,280.064L246.062,282.215L246.573,283.334L247.084,284.158L247.595,287.045L248.107,286.089L248.618,286.007L249.129,287.963L249.64,286.68L250.151,287.252L250.662,290.384L251.174,290.849L251.685,291.038L252.196,293.107L252.707,293.245L253.218,291.019L253.729,290.906L254.24,289.755L254.752,289.661L255.263,290.843L255.774,289.868L256.285,290.692L256.796,294.295L257.307,296.691L257.819,299.05L258.33,302.188L258.841,301.955L259.352,301.817L259.863,305.099L260.374,305.653L260.886,307.376L261.397,309.916L261.908,311.985L262.419,313.205L262.93,317.224L263.441,315.954L263.952,313.539L264.464,313.778L264.975,312.463L265.486,310.954L265.997,311.753L266.508,311.269L267.019,314.142L267.531,317.041L268.042,318.576L268.553,318.941L269.064,319.695L269.575,317.243L270.086,317.318L270.598,318.098L271.109,316.488L271.62,315.664L272.131,316.079L272.642,313.243L273.153,313.47L273.665,314.199L274.176,314.413L274.687,313.004L275.198,312.457L275.709,310.212L276.22,310.193L276.731,311.803L277.243,310.52L277.754,309.112L278.265,311.696L278.776,313.759L279.287,315.853L279.798,318.456L280.31,318.89L280.821,318.261L281.332,320.192L281.843,318.777L282.354,318.431L282.865,321.399L283.377,322.89L283.888,324.393L284.399,327.286L284.91,327.141L285.421,326.877L285.932,328.147L286.443,328.896L286.955,329.996L287.466,332.159L287.977,332.857L288.488,334.04L288.999,335.04L289.51,335.14L290.022,336.486L290.533,337.725L291.044,335.574L291.555,333.423L292.066,334.914L292.577,334.838L293.089,333.285L293.6,332.939L294.111,331.612L294.622,330.663L295.133,330.468L295.644,329.462L296.156,328.103L296.667,328.946L297.178,328.858L297.689,327.355L298.2,326.764L298.711,324.185L299.222,323.487L299.734,325.028L300.245,324.443L300.756,325.556L301.267,325.475L301.778,323.928L302.289,324.953L302.801,324.971L303.312,323.72L303.823,323.978L304.334,325.563L304.845,325.833L305.356,327.078L305.868,328.889L306.379,328.921L306.89,327.499L307.401,326.393L307.912,325.374L308.423,326.141L308.934,327.361L309.446,327.757L309.957,327.562L310.468,327.537L310.979,327.606L311.49,328.286L312.001,328.411L312.513,327.361L313.024,324.449L313.535,325.204L314.046,323.462L314.557,322.959L315.068,324.795L315.58,323.198L316.091,324.374L316.602,326.468L317.113,323.689L317.624,320.764L318.135,319.865L318.647,316.243L319.158,315.086L319.669,314.4L320.18,312.677L320.691,312.206L321.202,313.124L321.713,312.287L322.225,313.809L322.736,314.463L323.247,310.577L323.758,308.891L324.269,308.3L324.78,307.168L325.292,307.948L325.803,308.583L326.314,305.967L326.825,305.552L327.336,305.376L327.847,306.866L328.359,305.54L328.87,303.401L329.381,298.892L329.892,297.358L330.403,296.446L330.914,291.975L331.425,289.969L331.937,291.893L332.448,293.447L332.959,294.151L333.47,296.371L333.981,294.22L334.492,292.264L335.004,293.497L335.515,292.503L336.026,291.635L336.537,291.717L337.048,290.214L337.559,291.918L338.071,294.503L338.582,293.579L339.093,291.874L339.604,293.239L340.115,291.384L340.626,291.151L341.138,292.692L341.649,292.918L342.16,294.811L342.671,296.214L343.182,297.408L343.693,300.949L344.204,305.024L344.716,303.445L345.227,304.401L345.738,307.615L346.249,309.244L346.76,310.03L347.271,310.96L347.783,311.501L348.294,313.092L348.805,316.237L349.316,316.425L349.827,315.57L350.338,317.538L350.85,316.947L351.361,318.111L351.872,320.846L352.383,320.771L352.894,320.984L353.405,323.72L353.916,325.179L354.428,324.764L354.939,326.21L355.45,323.349L355.961,322.802L356.472,323.965L356.983,325.846L357.495,328.525L358.006,332.122L358.517,334.97L359.028,337.832L359.539,343.158L360.05,346.101L360.562,348.384L361.073,350.472L361.584,352.49L362.095,355.006L362.606,357.113L363.117,358.358L363.629,359.886L364.14,363.244L364.651,364.653L365.162,363.414L365.673,365.225L366.184,365.961L366.695,365.269L367.207,365.898L367.718,367.08L368.229,366.885L368.74,367.841L369.251,368.652L369.762,369.193L370.274,371.941L370.785,372.507L371.296,372.507L371.807,371.117L372.318,368.545L372.829,365.759L373.341,364.571L373.852,362.785L374.363,360.131L374.874,358.666L375.385,357.352L375.896,355.188L376.407,353.427L376.919,351.006L377.43,349.246L377.941,348.252L378.452,346.655L378.963,345.806L379.474,345.391L379.986,347.504L380.497,348.252L381.008,349.459L381.519,349.755L382.03,349.868L382.541,349.793L383.053,349.396L383.564,349.837L384.075,351.384L384.586,351.623L385.097,352.163L385.608,353.446L386.12,353.905L386.631,353.056L387.142,353.843L387.653,354.094L388.164,353.566L388.675,354.05L389.186,354.698L389.698,353.937L390.209,353.151L390.72,353.975L391.231,353.736L391.742,354.679L392.253,354.717L392.765,352.855L393.276,352.522L393.787,351.22L394.298,351.22L394.809,350.881L395.32,350.239L395.832,349.007L396.343,348.812L396.854,348.101L397.365,347.522L397.876,348.843L398.387,347.705L398.898,346.246L399.41,346.711L399.921,345.56L400.432,345.567L400.943,346.07L401.454,347.617L401.965,347.906L402.477,348.51L402.988,348.132L403.499,345.001L404.01,344.844L404.521,343.743L405.032,344.529L405.544,344.535L406.055,344.755L406.566,343.737L407.077,345.057L407.588,346.227L408.099,346.372L408.611,347.441L409.122,346.019L409.633,343.655L410.144,343.756L410.655,342.46L411.166,342.668L411.677,342.951L412.189,341.85L412.7,340.756L413.211,341.9L413.722,341.517L414.233,340.404L414.744,341.794L415.256,339.548L415.767,339.115L416.278,338.385L416.789,337.266L417.3,336.467L417.811,336.719L418.323,338.09L418.834,337.882L419.345,338.737L419.856,336.605L420.367,334.442L420.878,333.681L421.389,333.952L421.901,331.505L422.412,331.537L422.923,331.719L423.434,331.883L423.945,332.329L424.456,333.901L424.968,333.449L425.479,334.568L425.99,333.706L426.501,333.084L427.012,336.065L427.523,337.586L428.035,337.549L428.546,339.102L429.057,338.75L429.568,338.398L430.079,340.97L430.59,340.825L431.102,338.417L431.613,339.63L432.124,340.24L432.635,339.215L433.146,340.14L433.657,341.139L434.168,341.781L434.68,344.334L435.191,346.441L435.702,347.277L436.213,347.938L436.724,347.887L437.235,347.516L437.747,347.982L438.258,346.856L438.769,347.378L439.28,347.504L439.791,348.34L440.302,348.975L440.814,350.17L441.325,350.793L441.836,349.264L442.347,349.497L442.858,350.032L443.369,350.032L443.88,352.258L444.392,352.692L444.903,352.163L445.414,351.931L445.925,353.786L446.436,353.912L446.947,354.654L447.459,355.283L447.97,355.459L448.481,355.622L448.992,355.251L449.503,354.333L450.014,354.283L450.526,354.138L451.037,353.975L451.548,355.213L452.059,354.591L452.57,352.069L453.081,352.503L453.593,351.918L454.104,352.226L454.615,352.038L455.126,351.164L455.637,350.635L456.148,351.365L456.659,352.031L457.171,351.302L457.682,350.761L458.193,350.201L458.704,348.68L459.215,348.258L459.726,346.894L460.238,345.913L460.749,345.032L461.26,343.045L461.771,341.511L462.282,340.404L462.793,338.781L463.305,338.215L463.816,338.083L464.327,335.844L464.838,335.241L465.349,335.178L465.86,334.43L466.371,334.7L466.883,336.744L467.394,335.071L467.905,332.618L468.416,330.361L468.927,326.864L469.438,324.349L469.95,323.751L470.461,320.639L470.972,316.884L471.483,315.425L471.994,314.205L472.505,312.545L473.017,311.306L473.528,310.558L474.039,308.583L474.55,309.275L475.061,310.809L475.572,311.048L476.084,312.639L476.595,313.753L477.106,314.727L477.617,316.086L478.128,315.268L478.639,314.476L479.15,315.62L479.662,315.425L480.173,314.991L480.684,315.62L481.195,315.639L481.706,315.3L482.217,320.142L482.729,324.041L483.24,327.613L483.751,331.298L484.262,334.461L484.773,335.681L485.284,339.278L485.796,342.907L486.307,344.73L486.818,346.057L487.329,348.321L487.84,349.22L488.351,351.17L488.862,353.346L489.374,354.566L489.885,354.037L490.396,354.798L490.907,354.509L491.418,354.792L491.929,355.314L492.441,356.188L492.952,357.251L493.463,359.402L493.974,361.313L494.485,362.364L494.996,363.678L495.508,363.829L496.019,364.106L496.53,364.011L497.041,363.571L497.552,363.005L498.063,362.948L498.575,362.716L499.086,362.659L499.597,362.37L500.108,360.691L500.619,359.364L501.13,356.748L501.641,356.698L502.153,356.1L502.664,356.49L503.175,356.974L503.686,356.767L504.197,356.132L504.708,356.207L505.22,355.704L505.731,352.799L506.242,352.17L506.753,352.635L507.264,350.994L507.775,350.761L508.287,350.811L508.798,350.069L509.309,349.786L509.82,349.623L510.331,349.321L510.842,348.315L511.353,347.139L511.865,344.875L512.376,345.158L512.887,345.409L513.398,345.548L513.909,345.202L514.42,346.504L514.932,348.39L515.443,349.629L515.954,352.767L516.465,352.968L516.976,353.56L517.487,354.585L517.999,354.585L518.51,355.943L519.021,356.823L519.532,357.138L520.043,358.402L520.554,362.181L521.066,362.005L521.577,361.571L522.088,362.942L522.599,362.313L523.11,362.603L523.621,363.716L524.132,363.785L524.644,364.156L525.155,365.489L525.666,366.873L526.177,368.659L526.688,371.382L527.199,370.463L527.711,370.268L528.222,371.545L528.733,372.507L529.244,372.507L529.755,372.275L530.266,372.608L530.778,371.495L531.289,371.985L531.8,371.243L532.311,369.319L532.822,368.426L533.333,365.973L533.844,364.911L534.356,365.25L534.867,365.37L535.378,365.137L535.889,365.873L536.4,366.476L536.911,367.074L537.423,367.64L537.934,366.476L538.445,365.357L538.956,365.904L539.467,364.992L539.978,365.244L540.49,365.602L541.001,364.584L541.512,364.389L542.023,365.539L542.534,365.634L543.045,364.439L543.557,363.496L544.068,362.703L544.579,363.018L545.09,362.892L545.601,363.175L546.112,362.754L546.623,363.496L547.135,364.602L547.646,365.489L548.157,367.237L548.668,367.269L549.179,366.483L549.69,366.986L550.202,367.086L550.713,367.244L551.224,367.539L551.735,367.3L552.246,368.155L552.757,369.47L553.269,370.224L553.78,370.652L554.291,372.18L554.802,372.061L555.313,371.771L555.824,372.979L556.335,373.45L556.847,373.312L557.358,372.57L557.869,372.922L558.38,372.551L558.891,373.488L559.402,373.394L559.914,373.928L560.425,374.387L560.936,374.658L561.447,375.394L561.958,376.375L562.469,376.199L562.981,376.544L563.492,377.746L564.003,378.073L564.514,377.06L565.025,377.331L565.536,376.972L566.048,376.922L566.559,376.419L567.07,376.085L567.581,375.979L568.092,376.45L568.603,375.74L569.114,374.991L569.626,374.626L570.137,373.627L570.648,373.595L571.159,372.671L571.67,372.671L572.181,373.702L572.693,374.224L573.204,375.117L573.715,375.092L574.226,375.167L574.737,374.922L575.248,374.356L575.76,374.079L576.271,371.677L576.782,370.375L577.293,370.099L577.804,369.181L578.315,368.703L578.826,369.199L579.338,368.652L579.849,367.124L580.36,367.596L580.871,366.288L581.382,366.709L581.893,367.218L582.405,366.288L582.916,365.998L583.427,366.156L583.938,366.42L584.449,365.904L584.96,367.049L585.472,366.458L585.983,366.885L586.494,366.803L587.005,366.866L587.516,366.564L588.027,366.59L588.539,366.219L589.05,365.565L589.561,365.439L590.072,365.036L590.583,365.181L591.094,366.841L591.605,367.3L592.117,367.388L592.628,367.671L593.139,367.3L593.65,367.388L594.161,369.036L594.672,369.904L595.184,369.828L595.695,370.86L596.206,370.614L596.717,369.602L597.228,368.558L597.739,366.319L598.251,365.124L598.762,364.653L599.273,364.967L599.784,364.923L600.295,364.911L600.806,364.319L601.317,364.602L601.829,364.697L602.34,363.47L602.851,362.42L603.362,362.533L603.873,362.395L604.384,362.118L604.896,362.873L605.407,362.672L605.918,362.024L606.429,361.339L606.94,361.433L607.451,361.653L607.963,362.508L608.474,362.546L608.985,362.206L609.496,363.37L610.007,362.577L610.518,362.892L611.03,362.986L611.541,362.873L612.052,363.873L612.563,364.898L613.074,365.118L613.585,364.904L614.096,364.854L614.608,363.489L615.119,363.489L615.63,363.942L616.141,362.879L616.652,362.408L617.163,363.143L617.675,362.961L618.186,362.886L618.697,363.47L619.208,363.03L619.719,363.118L620.23,362.206L620.742,362.898L621.253,363.03L621.764,362.653L622.275,362.98L622.786,362.93L623.297,362.728L623.808,360.93L624.32,358.59L624.831,358.955L625.342,357.446L625.853,357.408L626.364,357.521L626.875,356.333L627.387,356.49L627.898,356.823L628.409,356.477L628.92,356.716L629.431,357.635L629.942,357.458L630.454,357.163L630.965,357.911L631.476,357.622L631.987,357.936L632.498,358.641L633.009,357.452L633.521,356.93L634.032,357.792L634.543,358.062L635.054,359.2L635.565,359.288L636.076,360.351L636.587,361.471L637.099,361.829L637.61,361.534L638.121,362.307L638.632,364.357L639.143,365.892L639.654,366.47L640.166,367.841L640.677,367.678L641.188,368.646L641.699,370.011L642.21,371.218L642.721,371.149L643.233,372.155L643.744,371.834L644.255,372.784L644.766,373.488L645.277,373.023L645.788,373.369L646.299,373.777L646.811,374.501L647.322,375.174L647.833,375.985L648.344,376.809L648.855,377.004L649.366,377.733L649.878,378.085L650.389,378.922L650.9,379.236L651.411,379.431L651.922,378.871L652.433,378.808L652.945,378.148L653.456,378.576L653.967,379.054L654.478,379.657L654.989,380.33L655.5,381.814L656.012,381.494L656.523,382.047L657.034,381.946L657.545,383.443L658.056,383.512L658.567,384.355L659.078,383.77L659.59,384.179L660.101,385.701L660.612,386.292L661.123,386.455L661.634,385.965L662.145,386.059L662.657,386.87L663.168,387.128L663.679,387.506L664.19,387.367L664.701,388.046L665.212,388.204L665.724,388.581L666.235,388.399L666.746,389.669L667.257,390.713L667.768,391.92L668.279,392.04L668.79,392.643L669.302,393.121L669.813,393.323L670.324,393.417L670.835,394.524L671.346,395.077L671.857,395.467L672.369,395.624L672.88,396.027L673.391,396.731L673.902,397.423L674.413,397.322L674.924,397.366L675.436,397.574L675.947,397.699L676.458,398.429L676.969,398.945L677.48,399.265L677.991,399.441L678.503,399.479L679.014,399.794L679.525,399.926L680.036,399.976L680.547,400.246L681.058,400.699L681.569,400.347L682.081,400.328L682.592,400.146L683.103,399.875L683.614,399.309L684.125,398.989L684.636,398.731L685.148,398.353L685.659,398.303L686.17,398.127L686.681,398.039L687.192,397.926L687.703,397.372L688.215,396.567L688.726,396.53L689.237,396.165L689.748,396.354L690.259,396.36L690.77,397.077L691.281,396.775L691.793,395.951L692.304,396.064L692.815,395.624L693.326,395.404L693.837,395.171L694.348,394.932L694.86,394.907L695.371,394.706L695.882,394.555L696.393,394.354L696.904,394.165L697.415,393.756L697.927,393.763L698.438,394.373L698.949,394.115L699.46,394.203L699.971,394.461L700.482,394.599L700.994,394.794L701.505,395.197L702.016,395.127L702.527,395.492L703.038,396.121L703.549,396.215L704.06,396.794L704.572,396.901L705.083,396.957L705.594,396.945L706.105,397.385L706.616,397.957L707.127,397.92L707.639,398.498L708.15,398.316L708.661,398.114L709.172,398.102L709.683,397.8L710.194,397.46L710.706,397.266L711.217,397.643L711.728,397.731L712.239,397.844L712.75,397.957L713.261,397.787L713.772,398.001L714.284,397.498L714.795,397.611L715.306,397.486L715.817,397.354L716.328,396.806L716.839,396.876L717.351,396.511L717.862,396.108L718.373,396.171L718.884,395.19L719.395,394.649L719.906,394.58L720.418,394.071L720.929,394.071L721.44,394.065L721.951,394.304L722.462,394.266L722.973,394.907L723.485,395.272L723.996,395.215L724.507,395.366L725.018,395.473L725.529,395.53L726.04,394.75L726.551,394.876L727.063,395.039L727.574,395.354L728.085,395.109L728.596,395.14L729.107,395.134L729.618,395.083L730.13,394.832L730.641,394.58L731.152,394.819L731.663,394.964L732.174,395.247L732.685,395.341L733.197,395.656L733.708,396.486L734.219,396.8L734.73,396.461L735.241,396.781L735.752,396.586L736.263,396.825L736.775,396.108L737.286,395.593L737.797,395.329L738.308,395.209L738.819,394.731L739.33,394.668L739.842,394.939L740.353,395.36L740.864,396.121L741.375,396.278L741.886,396.027L742.397,395.813L742.909,396.215L743.42,396.561L743.931,396.869L744.442,397.001L744.953,396.888L745.464,397.165L745.976,397.492L746.487,397.611L746.998,398.247L747.509,398.618L748.02,398.58L748.531,398.762L749.042,398.838L749.554,399.322L750.065,399.605L750.576,399.844L751.087,399.982L751.598,400.397L752.109,400.561L752.621,400.957L753.132,400.793L753.643,400.762L754.154,399.825L754.665,399.152L755.176,399.077L755.688,399.114L756.199,398.957L756.71,399.404L757.221,399.561L757.732,399.322L758.243,398.844L758.754,398.655L759.266,398.347L759.777,398.624L760.288,399.026L760.799,399.014L761.31,398.316L761.821,398.001L762.333,397.863L762.844,397.586L763.355,397.429L763.866,397.184L764.377,396.894L764.888,396.215L765.4,396.36L765.911,396.461L766.422,396.586L766.933,397.02L767.444,397.102L767.955,396.731L768.467,397.385L768.978,398.096L769.489,398.397L770,398.674"/>
  </g>
</svg>
