<svg class="plot-d6a7b5" fill="currentColor" font-family="system-ui, sans-serif" font-size="10" text-anchor="middle" width="830" height="470" viewBox="0 0 830 470" xmlns="http://www.w3.org/2000/svg" xmlns:xlink="http://www.w3.org/1999/xlink" color="#1e90ff"><style>:where(.plot-d6a7b5){--plot-background: white;display:block;height:intrinsic;max-width:100%}:where(.plot-d6a7b5 text),:where(.plot-d6a7b5 tspan){white-space:pre}</style><g aria-label="y-grid" stroke="currentColor" stroke-opacity=".1"><line x1="60" x2="770" y1="410" y2="410"/><line x1="60" x2="770" y1="378.557" y2="378.557"/><line x1="60" x2="770" y1="347.114" y2="347.114"/><line x1="60" x2="770" y1="315.671" y2="315.671"/><line x1="60" x2="770" y1="284.227" y2="284.227"/><line x1="60" x2="770" y1="252.784" y2="252.784"/><line x1="60" x2="770" y1="221.341" y2="221.341"/><line x1="60" x2="770" y1="189.898" y2="189.898"/><line x1="60" x2="770" y1="158.455" y2="158.455"/><line x1="60" x2="770" y1="127.012" y2="127.012"/><line x1="60" x2="770" y1="95.568" y2="95.568"/><line x1="60" x2="770" y1="64.125" y2="64.125"/></g><g aria-label="y-axis tick" fill="none" stroke="currentColor"><path transform="translate(60,410)" d="M0,0L-6,0"/><path transform="translate(60,378.55684921661634)" d="M0,0L-6,0"/><path transform="translate(60,347.11369843323274)" d="M0,0L-6,0"/><path transform="translate(60,315.6705476498491)" d="M0,0L-6,0"/><path transform="translate(60,284.2273968664655)" d="M0,0L-6,0"/><path transform="translate(60,252.7842460830818)" d="M0,0L-6,0"/><path transform="translate(60,221.34109529969817)" d="M0,0L-6,0"/><path transform="translate(60,189.8979445163145)" d="M0,0L-6,0"/><path transform="translate(60,158.45479373293085)" d="M0,0L-6,0"/><path transform="translate(60,127.01164294954722)" d="M0,0L-6,0"/><path transform="translate(60,95.56849216616357)" d="M0,0L-6,0"/><path transform="translate(60,64.12534138277994)" d="M0,0L-6,0"/></g><g aria-label="y-axis tick label" text-anchor="end" font-variant="tabular-nums"><text y=".32em" transform="translate(-9,0) translate(60,410)">0</text><text y=".32em" transform="translate(-9,0) translate(60,378.55684921661634)">5,000</text><text y=".32em" transform="translate(-9,0) translate(60,347.11369843323274)">10,000</text><text y=".32em" transform="translate(-9,0) translate(60,315.6705476498491)">15,000</text><text y=".32em" transform="translate(-9,0) translate(60,284.2273968664655)">20,000</text><text y=".32em" transform="translate(-9,0) translate(60,252.7842460830818)">25,000</text><text y=".32em" transform="translate(-9,0) translate(60,221.34109529969817)">30,000</text><text y=".32em" transform="translate(-9,0) translate(60,189.8979445163145)">35,000</text><text y=".32em" transform="translate(-9,0) translate(60,158.45479373293085)">40,000</text><text y=".32em" transform="translate(-9,0) translate(60,127.01164294954722)">45,000</text><text y=".32em" transform="translate(-9,0) translate(60,95.56849216616357)">50,000</text><text y=".32em" transform="translate(-9,0) translate(60,64.12534138277994)">55,000</text></g><g aria-label="y-axis label" text-anchor="start"><text y=".71em" transform="translate(-57,-57) translate(60,60)">↑ Visible Vestiges (30 days)</text></g><g aria-label="x-axis tick" fill="none" stroke="currentColor"><path transform="translate(97.8765690376569,410)" d="M0,0L0,6"/><path transform="translate(199.2520920502092,410)" d="M0,0L0,6"/><path transform="translate(301.74163179916314,410)" d="M0,0L0,6"/><path transform="translate(404.2311715481171,410)" d="M0,0L0,6"/><path transform="translate(505.60669456066944,410)" d="M0,0L0,6"/><path transform="translate(606.9822175732218,410)" d="M0,0L0,6"/><path transform="translate(709.4717573221757,410)" d="M0,0L0,6"/></g><g aria-label="x-axis tick label" font-variant="tabular-nums"><text transform="translate(0,9) translate(97.8765690376569,410)"><tspan x="0" y=".71em">Apr</tspan><tspan x="0" dy="1em">2023</tspan></text><text y=".71em" transform="translate(0,9) translate(199.2520920502092,410)">Jul</text><text y=".71em" transform="translate(0,9) translate(301.74163179916314,410)">Oct</text><text transform="translate(0,9) translate(404.2311715481171,410)"><tspan x="0" y=".71em">Jan</tspan><tspan x="0" dy="1em">2024</tspan></text><text y=".71em" transform="translate(0,9) translate(505.60669456066944,410)">Apr</text><text y=".71em" transform="translate(0,9) translate(606.9822175732218,410)">Jul</text><text y=".71em" transform="translate(0,9) translate(709.4717573221757,410)">Oct</text></g><g aria-label="line" fill="none" stroke="currentColor" stroke-width="1.5" stroke-linejoin="round" stroke-linecap="round"><path d="M60,410L60.743,406.843L61.485,395.297L62.228,389.071L62.971,384.657L63.713,377.375L64.456,371.639L65.199,366.263L65.941,355.383L66.684,346.774L67.427,336.555L68.169,320.727L68.912,305.804L69.655,298.056L70.397,286.843L71.14,279.228L71.883,270.499L72.626,259.085L73.368,251.401L74.111,243.867L74.854,233.642L75.596,222.303L76.339,214.273L77.082,200.57L77.824,194.08L78.567,188.024L79.31,177.101L80.052,166.643L80.795,158.593L81.538,147.374L82.28,139.344L83.023,140.702L83.766,131.137L84.508,123.025L85.251,123.05L85.994,121.226L86.736,120.912L87.479,127.194L88.222,127.276L88.964,129.156L89.707,139.168L90.45,140.639L91.192,134.325L91.935,132.936L92.678,125.282L93.421,123.66L94.163,126.257L94.906,121.93L95.649,119.415L96.391,122.364L97.134,120.597L97.877,115.956L98.619,117.837L99.362,107.379L100.105,97.342L100.847,99.895L101.59,97.933L102.333,94.776L103.075,95.952L103.818,92.921L104.561,89.752L105.303,93.94L106.046,92.519L106.789,86.406L107.531,82.45L108.274,72.653L109.017,67.722L109.759,67.653L110.502,64L111.245,60L111.987,66.113L112.73,70.716L113.473,73.112L114.215,78.866L114.958,76.734L115.701,73.181L116.444,78.143L117.186,78.407L117.929,78.042L118.672,86.123L119.414,91.016L120.157,95.097L120.9,103.825L121.642,109.278L122.385,106.831L123.128,110.806L123.87,110.315L124.613,112.145L125.356,121L126.098,122.037L126.841,125.125L127.584,134.464L128.326,140.117L129.069,144.192L129.812,151.933L130.554,150.82L131.297,150.16L132.04,154.179L132.782,157.065L133.525,158.254L134.268,161.825L135.01,162.373L135.753,166.385L136.496,173.277L137.238,176.572L137.981,173.334L138.724,175.05L139.467,172.315L140.209,170.347L140.952,171.629L141.695,169.957L142.437,171.736L143.18,176.245L143.923,178.874L144.665,180.918L145.408,184.88L146.151,184.898L146.893,182.823L147.636,188.98L148.379,191.036L149.121,190.005L149.864,192.407L150.607,192.363L151.349,194.413L152.092,199.916L152.835,200.696L153.577,197.652L154.32,196.545L155.063,192.237L155.805,191.866L156.548,194.35L157.291,192.445L158.033,191.269L158.776,195.589L159.519,196.451L160.262,197.117L161.004,199.714L161.747,195.413L162.49,193.596L163.232,195.74L163.975,194.753L164.718,192.778L165.46,194.69L166.203,194.948L166.946,194.558L167.688,197.96L168.431,199.035L169.174,199.457L169.916,200.519L170.659,198.557L171.402,198.381L172.144,200.142L172.887,198.174L173.63,197.834L174.372,201.249L175.115,206.789L175.858,208.374L176.6,212.77L177.343,212.701L178.086,213.015L178.828,215.04L179.571,215.216L180.314,214.43L181.056,218.348L181.799,218.109L182.542,219.53L183.285,225.806L184.027,227.529L184.77,228.535L185.513,231.434L186.255,231.761L186.998,232.101L187.741,232.126L188.483,233.453L189.226,232.459L189.969,235.384L190.711,234.818L191.454,235.069L192.197,236.547L192.939,234.755L193.682,234.711L194.425,236.025L195.167,234.516L195.91,233.214L196.653,233.107L197.395,230.453L198.138,229.114L198.881,231.177L199.623,231.227L200.366,230.541L201.109,233.484L201.851,232.56L202.594,233.893L203.337,236.572L204.079,236.899L204.822,236.295L205.565,238.44L206.308,237.673L207.05,237.05L207.793,240.169L208.536,239.566L209.278,239.805L210.021,241.974L210.764,240.666L211.506,239.591L212.249,240.767L212.992,239.402L213.734,240.238L214.477,241.515L215.22,240.408L215.962,240.742L216.705,242.609L217.448,243.1L218.19,241.779L218.933,245.483L219.676,247.816L220.418,246.722L221.161,249.451L221.904,248.527L222.646,247.797L223.389,249.313L224.132,247.275L224.874,247.288L225.617,247.307L226.36,244.93L227.103,243.345L227.845,246.823L228.588,243.798L229.331,242.446L230.073,243.641L230.816,242.056L231.559,241.641L232.301,243.32L233.044,241.59L233.787,240.389L234.529,241.433L235.272,238.635L236.015,238.415L236.757,239.805L237.5,239.176L238.243,236.975L238.985,235.365L239.728,231.258L240.471,229.938L241.213,229.938L241.956,228.435L242.699,227.001L243.441,229.994L244.184,228.139L244.927,227.592L245.669,229.957L246.412,228.63L247.155,228.925L247.897,232.78L248.64,232.176L249.383,229.529L250.126,232.988L250.868,232.793L251.611,230.378L252.354,231.296L253.096,228.177L253.839,227.812L254.582,228.472L255.324,226.542L256.067,225.806L256.81,228.139L257.552,227.454L258.295,227.215L259.038,230.032L259.78,231.818L260.523,235.126L261.266,241.546L262.008,242.71L262.751,242.194L263.494,243.892L264.236,244.244L264.979,242.917L265.722,244.634L266.464,245.118L267.207,244.005L267.95,246.087L268.692,246.961L269.435,246.118L270.178,247.37L270.921,247.118L271.663,247.231L272.406,248.464L273.149,251.011L273.891,253.734L274.634,257.796L275.377,259.299L276.119,262.268L276.862,267.324L277.605,266.204L278.347,266.89L279.09,269.047L279.833,268.323L280.575,269.455L281.318,271.38L282.061,272.153L282.803,274.027L283.546,275.48L284.289,276.876L285.031,277.234L285.774,277.354L286.517,274.631L287.259,272.317L288.002,273.662L288.745,273.681L289.487,274.474L290.23,275.216L290.973,275.48L291.715,276.624L292.458,279.706L293.201,279.14L293.944,278.436L294.686,279.448L295.429,277.555L296.172,278.75L296.914,280.165L297.657,278.958L298.4,278.555L299.142,282.662L299.885,282.504L300.628,282.9L301.37,284.894L302.113,281.574L302.856,280.674L303.598,281.687L304.341,279.97L305.084,280.813L305.826,282.07L306.569,283.177L307.312,284.592L308.054,288.466L308.797,289.805L309.54,287.598L310.282,286.649L311.025,283.919L311.768,283.599L312.51,284.951L313.253,285.007L313.996,284.881L314.738,286.271L315.481,286.869L316.224,287.661L316.967,290.183L317.709,285.982L318.452,282.768L319.195,282.85L319.937,282.599L320.68,283.039L321.423,286.076L322.165,285.812L322.908,287.202L323.651,290.17L324.393,288.749L325.136,284.756L325.879,284.397L326.621,281.165L327.364,280.655L328.107,281.196L328.849,279.398L329.592,280.064L330.335,282.215L331.077,283.334L331.82,284.158L332.563,287.045L333.305,286.089L334.048,286.007L334.791,287.963L335.533,286.68L336.276,287.252L337.019,290.384L337.762,290.849L338.504,291.038L339.247,293.107L339.99,293.245L340.732,291.019L341.475,290.906L342.218,289.755L342.96,289.661L343.703,290.843L344.446,289.868L345.188,290.692L345.931,294.295L346.674,296.691L347.416,299.05L348.159,302.188L348.902,301.955L349.644,301.817L350.387,305.099L351.13,305.653L351.872,307.376L352.615,309.916L353.358,311.985L354.1,313.205L354.843,317.224L355.586,315.954L356.328,313.539L357.071,313.778L357.814,312.463L358.556,310.954L359.299,311.753L360.042,311.269L360.785,314.142L361.527,317.041L362.27,318.576L363.013,318.941L363.755,319.695L364.498,317.243L365.241,317.318L365.983,318.098L366.726,316.488L367.469,315.664L368.211,316.079L368.954,313.243L369.697,313.47L370.439,314.199L371.182,314.413L371.925,313.004L372.667,312.457L373.41,310.212L374.153,310.193L374.895,311.803L375.638,310.52L376.381,309.112L377.123,311.696L377.866,313.759L378.609,315.853L379.351,318.456L380.094,318.89L380.837,318.261L381.579,320.192L382.322,318.777L383.065,318.431L383.808,321.399L384.55,322.89L385.293,324.393L386.036,327.286L386.778,327.141L387.521,326.877L388.264,328.147L389.006,328.896L389.749,329.996L390.492,332.159L391.234,332.857L391.977,334.04L392.72,335.04L393.462,335.14L394.205,336.486L394.948,337.725L395.69,335.574L396.433,333.423L397.176,334.914L397.918,334.838L398.661,333.285L399.404,332.939L400.146,331.612L400.889,330.663L401.632,330.468L402.374,329.462L403.117,328.103L403.86,328.946L404.603,328.858L405.345,327.355L406.088,326.764L406.831,324.185L407.573,323.487L408.316,325.028L409.059,324.443L409.801,325.556L410.544,325.475L411.287,323.928L412.029,324.953L412.772,324.971L413.515,323.72L414.257,323.978L415,325.563L415.743,325.833L416.485,327.078L417.228,328.889L417.971,328.921L418.713,327.499L419.456,326.393L420.199,325.374L420.941,326.141L421.684,327.361L422.427,327.757L423.169,327.562L423.912,327.537L424.655,327.606L425.397,328.286L426.14,328.411L426.883,327.361L427.626,324.449L428.368,325.204L429.111,323.462L429.854,322.959L430.596,324.795L431.339,323.198L432.082,324.374L432.824,326.468L433.567,323.689L434.31,320.764L435.052,319.865L435.795,316.243L436.538,315.086L437.28,314.4L438.023,312.677L438.766,312.206L439.508,313.124L440.251,312.287L440.994,313.809L441.736,314.463L442.479,310.577L443.222,308.891L443.964,308.3L444.707,307.168L445.45,307.948L446.192,308.583L446.935,305.967L447.678,305.552L448.421,305.376L449.163,306.866L449.906,305.54L450.649,303.401L451.391,298.892L452.134,297.358L452.877,296.446L453.619,291.975L454.362,289.969L455.105,291.893L455.847,293.447L456.59,294.151L457.333,296.371L458.075,294.22L458.818,292.264L459.561,293.497L460.303,292.503L461.046,291.635L461.789,291.717L462.531,290.214L463.274,291.918L464.017,294.503L464.759,293.579L465.502,291.874L466.245,293.239L466.987,291.384L467.73,291.151L468.473,292.692L469.215,292.918L469.958,294.811L470.701,296.214L471.444,297.408L472.186,300.949L472.929,305.024L473.672,303.445L474.414,304.401L475.157,307.615L475.9,309.244L476.642,310.03L477.385,310.96L478.128,311.501L478.87,313.092L479.613,316.237L480.356,316.425L481.098,315.57L481.841,317.538L482.584,316.947L483.326,318.111L484.069,320.846L484.812,320.771L485.554,320.984L486.297,323.72L487.04,325.179L487.782,324.764L488.525,326.21L489.268,323.349L490.01,322.802L490.753,323.965L491.496,325.846L492.238,328.525L492.981,332.122L493.724,334.97L494.467,337.832L495.209,343.158L495.952,346.101L496.695,348.384L497.437,350.472L498.18,352.49L498.923,355.006L499.665,357.113L500.408,358.358L501.151,359.886L501.893,363.244L502.636,364.653L503.379,363.414L504.121,365.225L504.864,365.961L505.607,365.269L506.349,365.898L507.092,367.08L507.835,366.885L508.577,367.841L509.32,368.652L510.063,369.193L510.805,371.941L511.548,372.507L512.291,372.507L513.033,371.117L513.776,368.545L514.519,365.759L515.262,364.571L516.004,362.785L516.747,360.131L517.49,358.666L518.232,357.352L518.975,355.188L519.718,353.427L520.46,351.006L521.203,349.246L521.946,348.252L522.688,346.655L523.431,345.806L524.174,345.391L524.916,347.504L525.659,348.252L526.402,349.459L527.144,349.755L527.887,349.868L528.63,349.793L529.372,349.396L530.115,349.837L530.858,351.384L531.6,351.623L532.343,352.163L533.086,353.446L533.828,353.905L534.571,353.056L535.314,353.843L536.056,354.094L536.799,353.566L537.542,354.05L538.285,354.698L539.027,353.937L539.77,353.151L540.513,353.975L541.255,353.736L541.998,354.679L542.741,354.717L543.483,352.855L544.226,352.522L544.969,351.22L545.711,351.22L546.454,350.881L547.197,350.239L547.939,349.007L548.682,348.812L549.425,348.101L550.167,347.522L550.91,348.843L551.653,347.705L552.395,346.246L553.138,346.711L553.881,345.56L554.623,345.567L555.366,346.07L556.109,347.617L556.851,347.906L557.594,348.51L558.337,348.132L559.079,345.001L559.822,344.844L560.565,343.743L561.308,344.529L562.05,344.535L562.793,344.755L563.536,343.737L564.278,345.057L565.021,346.227L565.764,346.372L566.506,347.441L567.249,346.019L567.992,343.655L568.734,343.756L569.477,342.46L570.22,342.668L570.962,342.951L571.705,341.85L572.448,340.756L573.19,341.9L573.933,341.517L574.676,340.404L575.418,341.794L576.161,339.548L576.904,339.115L577.646,338.385L578.389,337.266L579.132,336.467L579.874,336.719L580.617,338.09L581.36,337.882L582.103,338.737L582.845,336.605L583.588,334.442L584.331,333.681L585.073,333.952L585.816,331.505L586.559,331.537L587.301,331.719L588.044,331.883L588.787,332.329L589.529,333.901L590.272,333.449L591.015,334.568L591.757,333.706L592.5,333.084L593.243,336.065L593.985,337.586L594.728,337.549L595.471,339.102L596.213,338.75L596.956,338.398L597.699,340.97L598.441,340.825L599.184,338.417L599.927,339.63L600.669,340.24L601.412,339.215L602.155,340.14L602.897,341.139L603.64,341.781L604.383,344.334L605.126,346.441L605.868,347.277L606.611,347.938L607.354,347.887L608.096,347.516L608.839,347.982L609.582,346.856L610.324,347.378L611.067,347.504L611.81,348.34L612.552,348.975L613.295,350.17L614.038,350.793L614.78,349.264L615.523,349.497L616.266,350.032L617.008,350.032L617.751,352.258L618.494,352.692L619.236,352.163L619.979,351.931L620.722,353.786L621.464,353.912L622.207,354.654L622.95,355.283L623.692,355.459L624.435,355.622L625.178,355.251L625.921,354.333L626.663,354.283L627.406,354.138L628.149,353.975L628.891,355.213L629.634,354.591L630.377,352.069L631.119,352.503L631.862,351.918L632.605,352.226L633.347,352.038L634.09,351.164L634.833,350.635L635.575,351.365L636.318,352.031L637.061,351.302L637.803,350.761L638.546,350.201L639.289,348.68L640.031,348.258L640.774,346.894L641.517,345.913L642.259,345.032L643.002,343.045L643.745,341.511L644.487,340.404L645.23,338.781L645.973,338.215L646.715,338.083L647.458,335.844L648.201,335.241L648.944,335.178L649.686,334.43L650.429,334.7L651.172,336.744L651.914,335.071L652.657,332.618L653.4,330.361L654.142,326.864L654.885,324.349L655.628,323.751L656.37,320.639L657.113,316.884L657.856,315.425L658.598,314.205L659.341,312.545L660.084,311.306L660.826,310.558L661.569,308.583L662.312,309.275L663.054,310.809L663.797,311.048L664.54,312.639L665.282,313.753L666.025,314.727L666.768,316.086L667.51,315.268L668.253,314.476L668.996,315.62L669.738,315.425L670.481,314.991L671.224,315.62L671.967,315.639L672.709,315.3L673.452,320.142L674.195,324.041L674.937,327.613L675.68,331.298L676.423,334.461L677.165,335.681L677.908,339.278L678.651,342.907L679.393,344.73L680.136,346.057L680.879,348.321L681.621,349.22L682.364,351.17L683.107,353.346L683.849,354.566L684.592,354.037L685.335,354.798L686.077,354.509L686.82,354.792L687.563,355.314L688.305,356.188L689.048,357.251L689.791,359.402L690.533,361.313L691.276,362.364L692.019,363.678L692.762,363.829L693.504,364.106L694.247,364.011L694.99,363.571L695.732,363.005L696.475,362.948L697.218,362.716L697.96,362.659L698.703,362.37L699.446,360.691L700.188,359.364L700.931,356.748L701.674,356.698L702.416,356.1L703.159,356.49L703.902,356.974L704.644,356.767L705.387,356.132L706.13,356.207L706.872,355.704L707.615,352.799L708.358,352.17L709.1,352.635L709.843,350.994L710.586,350.761L711.328,350.811L712.071,350.069L712.814,349.786L713.556,349.623L714.299,349.321L715.042,348.315L715.785,347.139L716.527,344.875L717.27,345.158L718.013,345.409L718.755,345.548L719.498,345.202L720.241,346.504L720.983,348.39L721.726,349.629L722.469,352.767L723.211,352.968L723.954,353.56L724.697,354.585L725.439,354.585L726.182,355.943L726.925,356.823L727.667,357.138L728.41,358.402L729.153,362.181L729.895,362.005L730.638,361.571L731.381,362.942L732.123,362.313L732.866,362.603L733.609,363.716L734.351,363.785L735.094,364.156L735.837,365.489L736.579,366.873L737.322,368.659L738.065,371.382L738.808,370.463L739.55,370.268L740.293,371.545L741.036,372.507L741.778,372.507L742.521,372.275L743.264,372.608L744.006,371.495L744.749,371.985L745.492,371.243L746.234,369.319L746.977,368.426L747.72,365.973L748.462,364.911L749.205,365.25L749.948,365.37L750.69,365.137L751.433,365.873L752.176,366.476L752.918,367.074L753.661,367.64L754.404,366.476L755.146,365.357L755.889,365.904L756.632,364.992L757.374,365.244L758.117,365.602L758.86,364.584L759.603,364.389L760.345,365.539L761.088,365.634L761.831,364.439L762.573,363.496L763.316,362.703L764.059,363.018L764.801,362.892L765.544,363.175L766.287,362.754L767.029,363.496L767.772,364.602L768.515,365.489L769.257,367.237L770,367.269"/></g></svg>