<?xml version="1.0"?>
<svg xmlns="http://www.w3.org/2000/svg" xmlns:xlink="http://www.w3.org/1999/xlink" class="plot-d6a7b5" fill="currentColor" font-family="system-ui, sans-serif" font-size="10" text-anchor="middle" width="830" height="470" viewBox="0 0 830 470" color="#1e90ff">
  <style>:where(.plot-d6a7b5){--plot-background: white;display:block;height:intrinsic;max-width:100%}:where(.plot-d6a7b5 text),:where(.plot-d6a7b5 tspan){white-space:pre}</style>
  <g aria-label="y-grid" stroke="currentColor" stroke-opacity=".1">
    <line x1="60" x2="770" y1="410" y2="410"/>
    <line x1="60" x2="770" y1="384.54" y2="384.54"/>
    <line x1="60" x2="770" y1="359.08" y2="359.08"/>
    <line x1="60" x2="770" y1="333.62" y2="333.62"/>
    <line x1="60" x2="770" y1="308.16" y2="308.16"/>
    <line x1="60" x2="770" y1="282.7" y2="282.7"/>
    <line x1="60" x2="770" y1="257.24" y2="257.24"/>
    <line x1="60" x2="770" y1="231.78" y2="231.78"/>
    <line x1="60" x2="770" y1="206.32" y2="206.32"/>
    <line x1="60" x2="770" y1="180.86" y2="180.86"/>
    <line x1="60" x2="770" y1="155.4" y2="155.4"/>
    <line x1="60" x2="770" y1="129.94" y2="129.94"/>
    <line x1="60" x2="770" y1="104.48" y2="104.48"/>
    <line x1="60" x2="770" y1="79.02" y2="79.02"/>
  </g>
  <g aria-label="y-axis tick" fill="none" stroke="currentColor">
    <path transform="translate(60,410)" d="M0,0L-6,0"/>
    <path transform="translate(60,384.5399736961557)" d="M0,0L-6,0"/>
    <path transform="translate(60,359.07994739231134)" d="M0,0L-6,0"/>
    <path transform="translate(60,333.619921088467)" d="M0,0L-6,0"/>
    <path transform="translate(60,308.1598947846228)" d="M0,0L-6,0"/>
    <path transform="translate(60,282.6998684807784)" d="M0,0L-6,0"/>
    <path transform="translate(60,257.2398421769341)" d="M0,0L-6,0"/>
    <path transform="translate(60,231.77981587308977)" d="M0,0L-6,0"/>
    <path transform="translate(60,206.31978956924547)" d="M0,0L-6,0"/>
    <path transform="translate(60,180.85976326540114)" d="M0,0L-6,0"/>
    <path transform="translate(60,155.39973696155684)" d="M0,0L-6,0"/>
    <path transform="translate(60,129.93971065771248)" d="M0,0L-6,0"/>
    <path transform="translate(60,104.47968435386817)" d="M0,0L-6,0"/>
    <path transform="translate(60,79.01965805002385)" d="M0,0L-6,0"/>
  </g>
  <g aria-label="y-axis tick label" text-anchor="end" font-variant="tabular-nums">
    <text y=".32em" transform="translate(-9,0) translate(60,410)">0</text>
    <text y=".32em" transform="translate(-9,0) translate(60,384.5399736961557)">50,000</text>
    <text y=".32em" transform="translate(-9,0) translate(60,359.07994739231134)">100,000</text>
    <text y=".32em" transform="translate(-9,0) translate(60,333.619921088467)">150,000</text>
    <text y=".32em" transform="translate(-9,0) translate(60,308.1598947846228)">200,000</text>
    <text y=".32em" transform="translate(-9,0) translate(60,282.6998684807784)">250,000</text>
    <text y=".32em" transform="translate(-9,0) translate(60,257.2398421769341)">300,000</text>
    <text y=".32em" transform="translate(-9,0) translate(60,231.77981587308977)">350,000</text>
    <text y=".32em" transform="translate(-9,0) translate(60,206.31978956924547)">400,000</text>
    <text y=".32em" transform="translate(-9,0) translate(60,180.85976326540114)">450,000</text>
    <text y=".32em" transform="translate(-9,0) translate(60,155.39973696155684)">500,000</text>
    <text y=".32em" transform="translate(-9,0) translate(60,129.93971065771248)">550,000</text>
    <text y=".32em" transform="translate(-9,0) translate(60,104.47968435386817)">600,000</text>
    <text y=".32em" transform="translate(-9,0) translate(60,79.01965805002385)">650,000</text>
  </g>
  <g aria-label="y-axis label" text-anchor="start">
    <text y=".71em" transform="translate(-57,-57) translate(60,60)">&#x2191; Total Vestiges</text>
  </g>
  <g aria-label="x-axis tick" fill="none" stroke="currentColor">
    <path transform="translate(87.5361216730038,410)" d="M0,0L0,6"/>
    <path transform="translate(161.2357414448669,410)" d="M0,0L0,6"/>
    <path transform="translate(235.745247148289,410)" d="M0,0L0,6"/>
    <path transform="translate(310.25475285171103,410)" d="M0,0L0,6"/>
    <path transform="translate(383.95437262357416,410)" d="M0,0L0,6"/>
    <path transform="translate(457.6539923954373,410)" d="M0,0L0,6"/>
    <path transform="translate(532.1634980988593,410)" d="M0,0L0,6"/>
    <path transform="translate(606.6730038022813,410)" d="M0,0L0,6"/>
    <path transform="translate(679.5627376425856,410)" d="M0,0L0,6"/>
    <path transform="translate(753.2623574144486,410)" d="M0,0L0,6"/>
  </g>
  <g aria-label="x-axis tick label" font-variant="tabular-nums">
    <text transform="translate(0,9) translate(87.5361216730038,410)">
      <tspan x="0" y=".71em">Apr</tspan>
      <tspan x="0" dy="1em">2023</tspan>
    </text>
    <text y=".71em" transform="translate(0,9) translate(161.2357414448669,410)">Jul</text>
    <text y=".71em" transform="translate(0,9) translate(235.745247148289,410)">Oct</text>
    <text transform="translate(0,9) translate(310.25475285171103,410)">
      <tspan x="0" y=".71em">Jan</tspan>
      <tspan x="0" dy="1em">2024</tspan>
    </text>
    <text y=".71em" transform="translate(0,9) translate(383.95437262357416,410)">Apr</text>
    <text y=".71em" transform="translate(0,9) translate(457.6539923954373,410)">Jul</text>
    <text y=".71em" transform="translate(0,9) translate(532.1634980988593,410)">Oct</text>
    <text transform="translate(0,9) translate(606.6730038022813,410)">
      <tspan x="0" y=".71em">Jan</tspan>
      <tspan x="0" dy="1em">2025</tspan>
    </text>
    <text y=".71em" transform="translate(0,9) translate(679.5627376425856,410)">Apr</text>
    <text y=".71em" transform="translate(0,9) translate(753.2623574144486,410)">Jul</text>
  </g>
  <g aria-label="line" fill="none" stroke="currentColor" stroke-width="1.5" stroke-linejoin="round" stroke-linecap="round">
    <path d="M60,410L60.54,409.744L61.08,408.809L61.62,408.305L62.16,407.948L62.7,407.358L63.24,406.894L63.779,406.459L64.319,405.578L64.859,404.88L65.399,404.053L65.939,402.771L66.479,401.563L67.019,400.936L67.559,400.028L68.099,399.411L68.639,398.704L69.179,397.78L69.719,397.158L70.259,396.548L70.798,395.72L71.338,394.802L71.878,394.152L72.418,393.042L72.958,392.517L73.498,392.026L74.038,391.142L74.578,390.295L75.118,389.643L75.658,388.735L76.198,387.829L76.738,387.004L77.278,385.725L77.817,384.711L78.357,384.123L78.897,383.511L79.437,383.051L79.977,382.678L80.517,381.988L81.057,381.313L81.597,380.842L82.137,379.752L82.677,378.614L83.217,377.593L83.757,376.357L84.297,375.519L84.837,374.805L85.376,373.833L85.916,373.019L86.456,372.43L86.996,371.368L87.536,370.342L88.076,369.385L88.616,368.013L89.156,366.71L89.696,366.032L90.236,365.026L90.776,364.119L91.316,363.306L91.856,362.155L92.395,361.073L92.935,360.133L93.475,359.004L94.015,357.922L94.555,356.989L95.095,355.735L95.635,354.964L96.175,354.267L96.715,353.296L97.255,352.502L97.795,351.907L98.335,351.142L98.875,350.315L99.414,349.545L99.954,348.534L100.494,347.532L101.034,346.961L101.574,346.169L102.114,345.55L102.654,345.144L103.194,344.514L103.734,343.887L104.274,343.221L104.814,342.36L105.354,341.484L105.894,340.8L106.433,339.853L106.973,339.188L107.513,338.754L108.053,337.756L108.593,337.067L109.133,336.693L109.673,336.069L110.213,335.466L110.753,334.839L111.293,333.977L111.833,333.228L112.373,332.582L112.913,332.021L113.452,331.523L113.992,331.046L114.532,330.264L115.072,329.819L115.612,329.366L116.152,328.631L116.692,327.798L117.232,327.145L117.772,326.305L118.312,325.739L118.852,325.213L119.392,324.45L119.932,323.929L120.471,323.432L121.011,322.769L121.551,322.251L122.091,321.625L122.631,320.961L123.171,320.359L123.711,319.86L124.251,319.337L124.791,318.88L125.331,318.45L125.871,317.844L126.411,317.383L126.951,316.967L127.49,316.28L128.03,315.388L128.57,314.737L129.11,313.89L129.65,313.384L130.19,312.803L130.73,312.203L131.27,311.655L131.81,311.27L132.35,310.507L132.89,309.907L133.43,309.278L133.97,308.363L134.51,307.69L135.049,307.101L135.589,306.5L136.129,305.844L136.669,305.335L137.209,304.838L137.749,304.18L138.289,303.792L138.829,303.277L139.369,302.812L139.909,302.375L140.449,301.759L140.989,301.315L141.529,300.851L142.068,300.231L142.608,299.787L143.148,299.377L143.688,298.934L144.228,298.411L144.768,297.92L145.308,297.408L145.848,296.853L146.388,296.417L146.928,295.883L147.468,295.434L148.008,294.988L148.548,294.37L149.087,293.855L149.627,293.449L150.167,292.915L150.707,292.408L151.247,292.041L151.787,291.411L152.327,290.931L152.867,290.435L153.407,289.885L153.947,289.416L154.487,289.138L155.027,288.627L155.567,288.21L156.106,287.714L156.646,287.125L157.186,286.658L157.726,286.144L158.266,285.578L158.806,285.063L159.346,284.61L159.886,283.873L160.426,283.274L160.966,282.928L161.506,282.377L162.046,281.886L162.586,281.59L163.125,281.067L163.665,280.729L164.205,280.327L164.745,279.839L165.285,279.383L165.825,279.023L166.365,278.454L166.905,278.037L167.445,277.66L167.985,277.13L168.525,276.654L169.065,276.279L169.605,275.705L170.144,275.339L170.684,274.924L171.224,274.397L171.764,273.969L172.304,273.482L172.844,272.926L173.384,272.438L173.924,272.024L174.464,271.548L175.004,270.989L175.544,270.552L176.084,270.141L176.624,269.708L177.163,269.377L177.703,268.811L178.243,268.457L178.783,268.056L179.323,267.553L179.863,267.152L180.403,266.665L180.943,266.017L181.483,265.529L182.023,265.241L182.563,264.579L183.103,264.093L183.643,263.66L184.183,263.055L184.722,262.647L185.262,262.209L185.802,261.703L186.342,261.19L186.882,260.748L187.422,260.093L187.962,259.589L188.502,259.145L189.042,258.607L189.582,258.014L190.122,257.408L190.662,256.516L191.202,255.972L191.741,255.562L192.281,255.006L192.821,254.559L193.361,254.236L193.901,253.731L194.441,253.286L194.981,252.974L195.521,252.466L196.061,252.003L196.601,251.668L197.141,251.13L197.681,250.628L198.221,250.246L198.76,249.744L199.3,249.116L199.84,248.585L200.38,247.925L200.92,247.457L201.46,247.004L202,246.335L202.54,245.833L203.08,245.367L203.62,244.808L204.16,244.344L204.7,244.034L205.24,243.586L205.779,243.248L206.319,242.876L206.859,242.426L207.399,241.974L207.939,241.556L208.479,241.138L209.019,240.707L209.559,240.341L210.099,239.935L210.639,239.533L211.179,239.194L211.719,238.802L212.259,238.398L212.798,237.962L213.338,237.44L213.878,237.067L214.418,236.664L214.958,236.242L215.498,235.932L216.038,235.6L216.578,235.254L217.118,235.042L217.658,234.783L218.198,234.19L218.738,233.779L219.278,233.394L219.817,232.873L220.357,232.654L220.897,232.362L221.437,232.086L221.977,231.866L222.517,231.534L223.057,231.195L223.597,230.806L224.137,230.397L224.677,229.746L225.217,229.193L225.757,228.896L226.297,228.495L226.837,228.22L227.376,227.888L227.916,227.506L228.456,227.162L228.996,226.889L229.536,226.471L230.076,226.011L230.616,225.671L231.156,225.208L231.696,224.973L232.236,224.741L232.776,224.432L233.316,224.139L233.856,223.879L234.395,223.456L234.935,223.103L235.475,222.743L236.015,222.255L236.555,221.89L237.095,221.697L237.635,221.338L238.175,221.073L238.715,220.836L239.255,220.537L239.795,220.243L240.335,219.905L240.875,219.46L241.414,218.985L241.954,218.508L242.494,218.011L243.034,217.653L243.574,217.38L244.114,217.042L244.654,216.758L245.194,216.452L245.734,216.041L246.274,215.765L246.814,215.506L247.354,214.931L247.894,214.439L248.433,214.136L248.973,213.823L249.513,213.599L250.053,213.422L250.593,213.047L251.133,212.799L251.673,212.552L252.213,212.072L252.753,211.555L253.293,211.167L253.833,210.641L254.373,210.363L254.913,210.107L255.452,209.668L255.992,209.384L256.532,209.113L257.072,208.728L257.612,208.318L258.152,208.055L258.692,207.62L259.232,207.34L259.772,207.16L260.312,206.773L260.852,206.513L261.392,206.355L261.932,206.117L262.471,205.874L263.011,205.466L263.551,204.985L264.091,204.502L264.631,204.18L265.171,203.862L265.711,203.678L266.251,203.399L266.791,203.072L267.331,202.892L267.871,202.703L268.411,202.381L268.951,202.184L269.49,201.912L270.03,201.614L270.57,201.347L271.11,201.174L271.65,200.934L272.19,200.804L272.73,200.624L273.27,200.381L273.81,200.218L274.35,200.108L274.89,199.725L275.43,199.349L275.97,198.982L276.51,198.616L277.049,198.336L277.589,198.162L278.129,197.879L278.669,197.704L279.209,197.458L279.749,197.099L280.289,196.807L280.829,196.55L281.369,196.167L281.909,195.894L282.449,195.631L282.989,195.32L283.529,195.065L284.068,194.776L284.608,194.349L285.148,194.095L285.688,193.857L286.228,193.608L286.768,193.32L287.308,193.036L287.848,192.724L288.388,192.543L288.928,192.43L289.468,192.162L290.008,191.938L290.548,191.765L291.087,191.557L291.627,191.358L292.167,191.203L292.707,190.958L293.247,190.734L293.787,190.607L294.327,190.318L294.867,190.044L295.407,189.925L295.947,189.753L296.487,189.619L297.027,189.469L297.567,189.185L298.106,188.9L298.646,188.692L299.186,188.498L299.726,188.298L300.266,188.046L300.806,187.849L301.346,187.706L301.886,187.538L302.426,187.258L302.966,187.084L303.506,186.871L304.046,186.516L304.586,186.23L305.125,186.083L305.665,185.852L306.205,185.554L306.745,185.317L307.285,185.011L307.825,184.779L308.365,184.518L308.905,184.212L309.445,183.976L309.985,183.755L310.525,183.473L311.065,183.233L311.605,183.014L312.144,182.67L312.684,182.464L313.224,182.305L313.764,181.972L314.304,181.855L314.844,181.654L315.384,181.328L315.924,181.16L316.464,180.964L317.004,180.72L317.544,180.573L318.084,180.421L318.624,180.269L319.163,180.157L319.703,179.949L320.243,179.665L320.783,179.402L321.323,179.083L321.863,178.701L322.403,178.527L322.943,178.32L323.483,178.12L324.023,177.843L324.563,177.535L325.103,177.305L325.643,177.138L326.183,176.867L326.722,176.542L327.262,176.087L327.802,175.804L328.342,175.457L328.882,175.257L329.422,175.073L329.962,174.826L330.502,174.72L331.042,174.565L331.582,174.171L332.122,173.739L332.662,173.422L333.202,172.981L333.741,172.736L334.281,172.528L334.821,172.277L335.361,172.03L335.901,171.82L336.441,171.49L336.981,171.294L337.521,170.965L338.061,170.476L338.601,170.133L339.141,169.885L339.681,169.517L340.221,169.272L340.76,169.093L341.3,168.714L341.84,168.41L342.38,168.07L342.92,167.736L343.46,167.346L344,166.826L344.54,166.26L345.08,165.952L345.62,165.632L346.16,165.164L346.7,164.845L347.24,164.608L347.779,164.301L348.319,164.041L348.859,163.78L349.399,163.361L349.939,162.994L350.479,162.843L351.019,162.516L351.559,162.236L352.099,161.913L352.639,161.595L353.179,161.404L353.719,161.124L354.259,160.706L354.798,160.32L355.338,160.062L355.878,159.667L356.418,159.469L356.958,159.216L357.498,158.93L358.038,158.743L358.578,158.522L359.118,158.229L359.658,157.996L360.198,157.76L360.738,157.325L361.278,157.081L361.817,156.873L362.357,156.687L362.897,156.513L363.437,156.282L363.977,156.066L364.517,155.933L365.057,155.769L365.597,155.418L366.137,155.197L366.677,155.03L367.217,154.702L367.757,154.472L368.297,154.376L368.837,154.179L369.376,153.916L369.916,153.72L370.456,153.452L370.996,153.161L371.536,152.883L372.076,152.453L372.616,152.155L373.156,151.963L373.696,151.929L374.236,151.925L374.776,151.923L375.316,151.92L375.856,151.917L376.395,151.912L376.935,151.907L377.475,151.884L378.015,151.867L378.555,151.856L379.095,151.829L379.635,151.783L380.175,151.752L380.715,151.711L381.255,151.632L381.795,151.525L382.335,151.257L382.875,151.076L383.414,150.907L383.954,150.754L384.494,150.608L385.034,150.441L385.574,150.229L386.114,150.038L386.654,149.813L387.194,149.579L387.734,149.371L388.274,149.119L388.814,148.927L389.354,148.781L389.894,148.568L390.433,148.341L390.973,148.242L391.513,148.094L392.053,147.874L392.593,147.751L393.133,147.621L393.673,147.429L394.213,147.275L394.753,147.052L395.293,146.864L395.833,146.752L396.373,146.582L396.913,146.434L397.452,146.294L397.992,146.197L398.532,146.076L399.072,146.004L399.612,145.876L400.152,145.739L400.692,145.566L401.232,145.322L401.772,145.167L402.312,145.067L402.852,144.852L403.392,144.688L403.932,144.54L404.471,144.385L405.011,144.17L405.551,144.021L406.091,143.814L406.631,143.672L407.171,143.563L407.711,143.396L408.251,143.211L408.791,143.018L409.331,142.892L409.871,142.72L410.411,142.572L410.951,142.388L411.49,142.125L412.03,141.928L412.57,141.674L413.11,141.534L413.65,141.41L414.19,141.237L414.73,141.066L415.27,140.921L415.81,140.727L416.35,140.507L416.89,140.37L417.43,140.123L417.97,139.904L418.51,139.727L419.049,139.47L419.589,139.323L420.129,139.209L420.669,139.119L421.209,138.993L421.749,138.835L422.289,138.663L422.829,138.3L423.369,138.121L423.909,137.846L424.449,137.717L424.989,137.591L425.529,137.437L426.068,137.207L426.608,137.129L427.148,136.961L427.688,136.776L428.228,136.609L428.768,136.354L429.308,136.038L429.848,135.873L430.388,135.597L430.928,135.469L431.468,135.298L432.008,134.989L432.548,134.763L433.087,134.609L433.627,134.359L434.167,134.092L434.707,133.948L435.247,133.618L435.787,133.469L436.327,133.32L436.867,133.104L437.407,132.881L437.947,132.729L438.487,132.478L439.027,132.281L439.567,132.076L440.106,131.774L440.646,131.473L441.186,131.257L441.726,131.049L442.266,130.773L442.806,130.608L443.346,130.437L443.886,130.283L444.426,130.064L444.966,129.876L445.506,129.675L446.046,129.489L446.586,129.291L447.125,129.07L447.665,129.002L448.205,128.899L448.745,128.742L449.285,128.618L449.825,128.322L450.365,128.15L450.905,128.029L451.445,127.868L451.985,127.524L452.525,127.406L453.065,127.232L453.605,126.998L454.144,126.821L454.684,126.705L455.224,126.552L455.764,126.457L456.304,126.327L456.844,126.178L457.384,126.024L457.924,125.744L458.464,125.548L459.004,125.415L459.544,125.171L460.084,124.994L460.624,124.816L461.163,124.682L461.703,124.548L462.243,124.447L462.783,124.276L463.323,124.084L463.863,124L464.403,123.886L464.943,123.763L465.483,123.647L466.023,123.51L466.563,123.346L467.103,123.166L467.643,122.972L468.183,122.864L468.722,122.751L469.262,122.567L469.802,122.405L470.342,122.302L470.882,122.119L471.422,121.949L471.962,121.815L472.502,121.655L473.042,121.487L473.582,121.308L474.122,121.062L474.662,120.725L475.202,120.515L475.741,120.291L476.281,120.138L476.821,119.989L477.361,119.784L477.901,119.64L478.441,119.528L478.981,119.391L479.521,119.248L480.061,119.09L480.601,118.921L481.141,118.682L481.681,118.51L482.221,118.236L482.76,117.977L483.3,117.711L483.84,117.443L484.38,117.205L484.92,116.932L485.46,116.638L486,116.49L486.54,116.296L487.08,115.945L487.62,115.762L488.16,115.597L488.7,115.368L489.24,115.211L489.779,115.13L490.319,114.658L490.859,114.249L491.399,113.842L491.939,113.406L492.479,113.054L493.019,112.8L493.559,112.404L494.099,111.988L494.639,111.733L495.179,111.491L495.719,111.199L496.259,110.929L496.798,110.63L497.338,110.298L497.878,110.08L498.418,109.945L498.958,109.699L499.498,109.559L500.038,109.412L500.578,109.217L501.118,109.033L501.658,108.819L502.198,108.561L502.738,108.303L503.278,108.104L503.817,107.904L504.357,107.726L504.897,107.57L505.437,107.462L505.977,107.382L506.517,107.289L507.057,107.171L507.597,107.033L508.137,106.937L508.677,106.782L509.217,106.678L509.757,106.556L510.297,106.448L510.837,106.313L511.376,106.204L511.916,106.008L512.456,105.866L512.996,105.711L513.536,105.591L514.076,105.414L514.616,105.229L515.156,105.066L515.696,104.942L516.236,104.789L516.776,104.676L517.316,104.548L517.856,104.464L518.395,104.361L518.935,104.247L519.475,104.153L520.015,103.988L520.555,103.854L521.095,103.738L521.635,103.622L522.175,103.484L522.715,103.361L523.255,103.205L523.795,103.104L524.335,102.926L524.875,102.685L525.414,102.456L525.954,102.136L526.494,101.997L527.034,101.84L527.574,101.675L528.114,101.573L528.654,101.401L529.194,101.229L529.734,101.058L530.274,100.833L530.814,100.435L531.354,100.259L531.894,100.144L532.433,99.898L532.973,99.751L533.513,99.671L534.053,99.508L534.593,99.371L535.133,99.264L535.673,99.075L536.213,98.859L536.753,98.648L537.293,98.349L537.833,98.233L538.373,98.131L538.913,97.986L539.452,97.857L539.992,97.784L540.532,97.697L541.072,97.567L541.612,97.502L542.152,97.379L542.692,97.27L543.232,97.188L543.772,97.086L544.312,97.023L544.852,96.924L545.392,96.778L545.932,96.655L546.471,96.563L547.011,96.373L547.551,96.223L548.091,96.088L548.631,95.89L549.171,95.833L549.711,95.76L550.251,95.629L550.791,95.552L551.331,95.47L551.871,95.367L552.411,95.301L552.951,95.222L553.49,95.032L554.03,94.914L554.57,94.872L555.11,94.821L555.65,94.748L556.19,94.642L556.73,94.54L557.27,94.384L557.81,94.301L558.35,94.132L558.89,93.894L559.43,93.719L559.97,93.459L560.51,93.273L561.049,93.154L561.589,93.041L562.129,92.93L562.669,92.8L563.209,92.699L563.749,92.612L564.289,92.46L564.829,92.309L565.369,92.145L565.909,92.059L566.449,91.908L566.989,91.846L567.529,91.772L568.068,91.623L568.608,91.529L569.148,91.432L569.688,91.322L570.228,91.183L570.768,91.056L571.308,90.919L571.848,90.838L572.388,90.725L572.928,90.592L573.468,90.476L574.008,90.366L574.548,90.218L575.087,90.115L575.627,89.996L576.167,89.813L576.707,89.63L577.247,89.558L577.787,89.455L578.327,89.338L578.867,89.261L579.407,89.155L579.947,89.072L580.487,89.027L581.027,88.925L581.567,88.873L582.106,88.845L582.646,88.774L583.186,88.677L583.726,88.626L584.266,88.569L584.806,88.461L585.346,88.291L585.886,88.181L586.426,88.023L586.966,87.962L587.506,87.874L588.046,87.804L588.586,87.709L589.125,87.614L589.665,87.564L590.205,87.495L590.745,87.378L591.285,87.287L591.825,87.201L592.365,87.045L592.905,86.891L593.445,86.81L593.985,86.663L594.525,86.582L595.065,86.436L595.605,86.326L596.144,86.273L596.684,86.208L597.224,86.099L597.764,86.01L598.304,85.91L598.844,85.731L599.384,85.678L599.924,85.547L600.464,85.439L601.004,85.352L601.544,85.284L602.084,85.199L602.624,85.136L603.163,85.053L603.703,84.964L604.243,84.823L604.783,84.705L605.323,84.461L605.863,84.287L606.403,84.147L606.943,83.982L607.483,83.857L608.023,83.741L608.563,83.543L609.103,83.338L609.643,83.23L610.183,83.043L610.722,82.93L611.262,82.862L611.802,82.733L612.342,82.645L612.882,82.548L613.422,82.482L613.962,82.34L614.502,82.254L615.042,82.152L615.582,82.056L616.122,81.941L616.662,81.859L617.202,81.767L617.741,81.684L618.281,81.591L618.821,81.455L619.361,81.356L619.901,81.182L620.441,81.076L620.981,80.966L621.521,80.829L622.061,80.697L622.601,80.554L623.141,80.4L623.681,80.291L624.221,80.226L624.76,80.092L625.3,79.977L625.84,79.874L626.38,79.741L626.92,79.59L627.46,79.378L628,79.108L628.54,78.915L629.08,78.81L629.62,78.693L630.16,78.604L630.7,78.501L631.24,78.357L631.779,78.265L632.319,78.191L632.859,77.999L633.399,77.831L633.939,77.747L634.479,77.601L635.019,77.479L635.559,77.366L636.099,77.244L636.639,77.082L637.179,76.889L637.719,76.764L638.259,76.64L638.798,76.554L639.338,76.449L639.878,76.356L640.418,76.316L640.958,76.137L641.498,76.059L642.038,75.934L642.578,75.775L643.118,75.643L643.658,75.456L644.198,75.281L644.738,75.158L645.278,75.038L645.817,74.838L646.357,74.735L646.897,74.627L647.437,74.45L647.977,74.338L648.517,74.205L649.057,74.022L649.597,73.932L650.137,73.833L650.677,73.676L651.217,73.57L651.757,73.374L652.297,73.268L652.837,73.086L653.376,72.931L653.916,72.832L654.456,72.743L654.996,72.621L655.536,72.383L656.076,72.153L656.616,72.004L657.156,71.804L657.696,71.676L658.236,71.525L658.776,71.297L659.316,71.123L659.856,70.975L660.395,70.825L660.935,70.723L661.475,70.597L662.015,70.481L662.555,70.349L663.095,70.232L663.635,70.096L664.175,69.989L664.715,69.864L665.255,69.677L665.795,69.536L666.335,69.448L666.875,69.364L667.414,69.261L667.954,69.162L668.494,69.066L669.034,69.001L669.574,68.932L670.114,68.818L670.654,68.759L671.194,68.687L671.734,68.582L672.274,68.479L672.814,68.39L673.354,68.249L673.894,68.177L674.433,68.059L674.973,67.983L675.513,67.829L676.053,67.76L676.593,67.633L677.133,67.584L677.673,67.524L678.213,67.355L678.753,67.266L679.293,67.163L679.833,67.115L680.373,67.044L680.913,66.923L681.452,66.848L681.992,66.776L682.532,66.751L683.072,66.677L683.612,66.645L684.152,66.575L684.692,66.526L685.232,66.411L685.772,66.293L686.312,66.18L686.852,66.142L687.392,66.076L687.932,66.022L688.471,65.988L689.011,65.967L689.551,65.869L690.091,65.796L690.631,65.712L691.171,65.679L691.711,65.615L692.251,65.556L692.791,65.46L693.331,65.434L693.871,65.387L694.411,65.346L694.951,65.257L695.49,65.169L696.03,65.105L696.57,65.05L697.11,64.996L697.65,64.955L698.19,64.919L698.73,64.899L699.27,64.88L699.81,64.84L700.35,64.777L700.89,64.765L701.43,64.731L701.97,64.716L702.51,64.688L703.049,64.67L703.589,64.656L704.129,64.637L704.669,64.624L705.209,64.615L705.749,64.587L706.289,64.535L706.829,64.515L707.369,64.484L707.909,64.482L708.449,64.442L708.989,64.407L709.529,64.364L710.068,64.34L710.608,64.261L711.148,64.232L711.688,64.21L712.228,64.181L712.768,64.141L713.308,64.103L713.848,64.092L714.388,64.083L714.928,64.069L715.468,64.051L716.008,64.024L716.548,63.983L717.087,63.948L717.627,63.918L718.167,63.868L718.707,63.805L719.247,63.764L719.787,63.725L720.327,63.681L720.867,63.668L721.407,63.626L721.947,63.566L722.487,63.537L723.027,63.462L723.567,63.394L724.106,63.351L724.646,63.287L725.186,63.259L725.726,63.235L726.266,63.215L726.806,63.161L727.346,63.073L727.886,63.053L728.426,62.977L728.966,62.921L729.506,62.892L730.046,62.863L730.586,62.846L731.125,62.812L731.665,62.773L732.205,62.717L732.745,62.666L733.285,62.603L733.825,62.554L734.365,62.539L734.905,62.478L735.445,62.446L735.985,62.423L736.525,62.421L737.065,62.395L737.605,62.368L738.144,62.333L738.684,62.287L739.224,62.271L739.764,62.235L740.304,62.218L740.844,62.199L741.384,62.179L741.924,62.157L742.464,62.14L743.004,62.097L743.544,62.074L744.084,62.046L744.624,61.975L745.163,61.929L745.703,61.9L746.243,61.859L746.783,61.797L747.323,61.742L747.863,61.716L748.403,61.672L748.943,61.619L749.483,61.579L750.023,61.551L750.563,61.506L751.103,61.433L751.643,61.42L752.183,61.408L752.722,61.371L753.262,61.299L753.802,61.27L754.342,61.195L754.882,61.146L755.422,61.115L755.962,61.018L756.502,60.956L757.042,60.931L757.582,60.868L758.122,60.85L758.662,60.807L759.202,60.804L759.741,60.772L760.281,60.753L760.821,60.737L761.361,60.703L761.901,60.674L762.441,60.621L762.981,60.57L763.521,60.481L764.061,60.448L764.601,60.407L765.141,60.393L765.681,60.345L766.221,60.303L766.76,60.23L767.3,60.212L767.84,60.18L768.38,60.122L768.92,60.07L769.46,60.052L770,60"/>
  </g>
</svg>
