<svg xmlns="http://www.w3.org/2000/svg" width="830" height="470" fill="currentColor" class="plot-d6a7b5" font-family="system-ui, sans-serif" font-size="10" style="--plot-background:white;display:block;height:intrinsic;max-width:100%;color:#1e90ff" text-anchor="middle" viewBox="0 0 830 470">
    <style>
        :where(.plot-d6a7b5 text),:where(.plot-d6a7b5 tspan){white-space:pre}
    </style>
    <path stroke="currentColor" stroke-opacity=".1" d="
M60
410
h710
M60
384.975
h710
M60
359.949
h710
M60
334.924
h710
M60
309.899
h710
M60
284.873
h710
M60
259.848
h710
M60
234.823
h710
M60
209.797
h710
M60
184.772
h710
M60
159.747
h710
M60
134.721
h710
M60
109.696
h710
M60
84.67
h710" aria-hidden="true" aria-label="y-grid"/>
    <path fill="none" stroke="currentColor" d="
M60
410
h-6
m6
-25.025
h-6
m6
-25.025
h-6
m6
-25.026
h-6
m6
-25.025
h-6
m6
-25.026
h-6
m6
-25.025
h-6
m6
-25.025
h-6
m6
-25.026
h-6
m6
-25.025
h-6
m6
-25.025
h-6
m6
-25.026
h-6
m6
-25.025
h-6
m6
-25.026
h-6" aria-hidden="true" aria-label="y-axis tick"/>
    <g aria-label="y-axis tick label" font-variant="tabular-nums" text-anchor="end">
        <text y=".32em" transform="translate(51 410)">0</text>
        <text y=".32em" transform="translate(51 384.975)">50,000</text>
        <text y=".32em" transform="translate(51 359.95)">100,000</text>
        <text y=".32em" transform="translate(51 334.924)">150,000</text>
        <text y=".32em" transform="translate(51 309.899)">200,000</text>
        <text y=".32em" transform="translate(51 284.873)">250,000</text>
        <text y=".32em" transform="translate(51 259.848)">300,000</text>
        <text y=".32em" transform="translate(51 234.823)">350,000</text>
        <text y=".32em" transform="translate(51 209.797)">400,000</text>
        <text y=".32em" transform="translate(51 184.772)">450,000</text>
        <text y=".32em" transform="translate(51 159.747)">500,000</text>
        <text y=".32em" transform="translate(51 134.721)">550,000</text>
        <text y=".32em" transform="translate(51 109.696)">600,000</text>
        <text y=".32em" transform="translate(51 84.67)">650,000</text>
    </g>
    <text y=".71em" aria-label="y-axis label" text-anchor="start" transform="translate(3 3)">↑ Total Vestiges</text>
    <path fill="none" stroke="currentColor" d="
M83.331
410
v6
m62.445
-6
v6
m63.132
-6
v6
m63.132
-6
v6
m62.445
-6
v6
m62.445
-6
v6
m63.131
-6
v6
m63.132
-6
v6
m61.759
-6
v6
m62.445
-6
v6
m63.131
-6
v6" aria-hidden="true" aria-label="x-axis tick"/>
    <g aria-label="x-axis tick label" font-variant="tabular-nums">
        <text transform="translate(83.331 419)"><tspan x="0" y=".71em">Apr</tspan><tspan x="0" dy="1em">2023</tspan></text>
        <text y=".71em" transform="translate(145.776 419)">Jul</text>
        <text y=".71em" transform="translate(208.908 419)">Oct</text>
        <text transform="translate(272.04 419)"><tspan x="0" y=".71em">Jan</tspan><tspan x="0" dy="1em">2024</tspan></text>
        <text y=".71em" transform="translate(334.485 419)">Apr</text>
        <text y=".71em" transform="translate(396.93 419)">Jul</text>
        <text y=".71em" transform="translate(460.061 419)">Oct</text>
        <text transform="translate(523.193 419)"><tspan x="0" y=".71em">Jan</tspan><tspan x="0" dy="1em">2025</tspan></text>
        <text y=".71em" transform="translate(584.952 419)">Apr</text>
        <text y=".71em" transform="translate(647.397 419)">Jul</text>
        <text y=".71em" transform="translate(710.528 419)">Oct</text>
    </g>
    <path fill="none" stroke="currentColor" stroke-linecap="round" stroke-linejoin="round" stroke-width="1.5" d="
m60
410
.457
-.251
.458
-.919
.457
-.496
.458
-.351
.457
-.58
.458
-.456
.457
-.428
.458
-.866
.457
-.685
.458
-.813
.457
-1.26
.458
-1.188
.457
-.617
.458
-.892
.457
-.606
.458
-.695
.457
-.908
.458
-.612
.457
-.599
.457
-.814
.458
-.903
.457
-.639
.458
-1.09
.457
-.517
.458
-.482
.457
-.869
.458
-.833
.457
-.64
.458
-.893
.457
-.891
.458
-.81
.457
-1.257
.458
-.997
.457
-.578
.458
-.601
.457
-.453
.458
-.366
.457
-.679
.457
-.664
.458
-.463
.457
-1.07
.458
-1.119
.457
-1.003
.458
-1.215
.457
-.824
.458
-.702
.457
-.956
.458
-.8
.457
-.579
.458
-1.043
.457
-1.008
.458
-.941
.457
-1.349
.458
-1.281
.457
-.666
.458
-.989
.457
-.892
.458
-.799
.457
-1.132
.457
-1.063
.458
-.923
.457
-1.11
.458
-1.064
.457
-.917
.458
-1.233
.457
-.758
.458
-.684
.457
-.954
.458
-.782
.457
-.584
.458
-.753
.457
-.812
.458
-.757
.457
-.994
.458
-.984
.457
-.561
.458
-.779
.457
-.608
.457
-.4
.458
-.619
.457
-.616
.458
-.654
.457
-.847
.458
-.861
.457
-.672
.458
-.931
.457
-.654
.458
-.427
.457
-.98
.458
-.678
.457
-.367
.458
-.614
.457
-.592
.458
-.617
.457
-.847
.458
-.736
.457
-.635
.457
-.552
.458
-.489
.457
-.469
.458
-.768
.457
-.438
.458
-.445
.457
-.723
.458
-.818
.457
-.642
.458
-.826
.457
-.557
.458
-.517
.457
-.749
.458
-.513
.457
-.488
.458
-.651
.457
-.51
.458
-.615
.457
-.653
.457
-.592
.458
-.49
.457
-.514
.458
-.449
.457
-.423
.458
-.596
.457
-.453
.458
-.409
.457
-.675
.458
-.877
.457
-.639
.458
-.833
.457
-.498
.458
-.571
.457
-.589
.458
-.539
.457
-.378
.458
-.751
.457
-.589
.457
-.619
.458
-.899
.457
-.661
.458
-.579
.457
-.591
.458
-.645
.457
-.5
.458
-.489
.457
-.646
.458
-.382
.457
-.506
.458
-.457
.457
-.43
.458
-.605
.457
-.437
.458
-.455
.457
-.61
.458
-.436
.457
-.403
.458
-.436
.457
-.514
.457
-.482
.458
-.504
.457
-.546
.458
-.428
.457
-.525
.458
-.441
.457
-.438
.458
-.608
.457
-.506
.458
-.4
.457
-.524
.458
-.499
.457
-.36
.458
-.619
.457
-.473
.458
-.487
.457
-.541
.458
-.46
.457
-.274
.457
-.502
.458
-.409
.457
-.488
.458
-.579
.457
-.459
.458
-.506
.457
-.556
.458
-.506
.457
-.445
.458
-.725
.457
-.589
.458
-.339
.457
-.542
.458
-.483
.457
-.29
.458
-.515
.457
-.332
.458
-.395
.457
-.48
.457
-.448
.458
-.353
.457
-.56
.458
-.41
.457
-.371
.458
-.52
.457
-.468
.458
-.369
.457
-.564
.458
-.36
.457
-.408
.458
-.518
.457
-.421
.458
-.478
.457
-.547
.458
-.479
.457
-.407
.458
-.468
.457
-.549
.457
-.43
.458
-.404
.457
-.426
.458
-.325
.457
-.557
.458
-.348
.457
-.394
.458
-.494
.457
-.394
.458
-.479
.457
-.636
.458
-.48
.457
-.283
.458
-.651
.457
-.478
.458
-.426
.457
-.594
.458
-.401
.457
-.431
.457
-.497
.458
-.504
.457
-.435
.458
-.644
.457
-.495
.458
-.437
.457
-.529
.458
-.582
.457
-.596
.458
-.876
.457
-.535
.458
-.404
.457
-.546
.458
-.439
.457
-.318
.458
-.496
.457
-.438
.458
-.306
.457
-.499
.458
-.455
.457
-.33
.457
-.528
.458
-.494
.457
-.375
.458
-.494
.457
-.618
.458
-.521
.457
-.649
.458
-.46
.457
-.445
.458
-.657
.457
-.494
.458
-.458
.457
-.55
.458
-.455
.457
-.305
.458
-.441
.457
-.332
.458
-.365
.457
-.443
.457
-.444
.458
-.411
.457
-.411
.458
-.424
.457
-.359
.458
-.399
.457
-.395
.458
-.334
.457
-.385
.458
-.397
.457
-.429
.458
-.513
.457
-.367
.458
-.396
.457
-.414
.458
-.305
.457
-.326
.458
-.34
.457
-.209
.457
-.255
.458
-.583
.457
-.403
.458
-.378
.457
-.513
.458
-.215
.457
-.287
.458
-.271
.457
-.216
.458
-.327
.457
-.334
.458
-.382
.457
-.401
.458
-.641
.457
-.544
.458
-.291
.457
-.394
.458
-.27
.457
-.327
.457
-.376
.458
-.337
.457
-.268
.458
-.412
.457
-.452
.458
-.334
.457
-.455
.458
-.231
.457
-.228
.458
-.304
.457
-.288
.458
-.255
.457
-.416
.458
-.347
.457
-.354
.458
-.479
.457
-.359
.458
-.19
.457
-.353
.457
-.26
.458
-.233
.457
-.295
.458
-.288
.457
-.333
.458
-.437
.457
-.467
.458
-.469
.457
-.488
.458
-.352
.457
-.268
.458
-.333
.457
-.278
.458
-.301
.457
-.405
.458
-.271
.457
-.254
.458
-.566
.457
-.483
.458
-.298
.457
-.307
.457
-.221
.458
-.174
.457
-.368
.458
-.244
.457
-.243
.458
-.472
.457
-.508
.458
-.381
.457
-.517
.458
-.274
.457
-.251
.458
-.432
.457
-.279
.458
-.266
.457
-.378
.458
-.404
.457
-.258
.458
-.428
.457
-.275
.457
-.177
.458
-.38
.457
-.256
.458
-.155
.457
-.234
.458
-.239
.457
-.401
.458
-.473
.457
-.475
.458
-.316
.457
-.312
.458
-.182
.457
-.274
.458
-.321
.457
-.177
.458
-.185
.457
-.318
.458
-.193
.457
-.268
.457
-.292
.458
-.262
.457
-.171
.458
-.235
.457
-.129
.458
-.176
.457
-.239
.458
-.161
.457
-.108
.458
-.376
.457
-.369
.458
-.362
.457
-.359
.458
-.276
.457
-.17
.458
-.278
.457
-.172
.458
-.242
.457
-.353
.457
-.287
.458
-.253
.457
-.376
.458
-.268
.457
-.259
.458
-.306
.457
-.25
.458
-.285
.457
-.419
.458
-.249
.457
-.235
.458
-.245
.457
-.283
.458
-.279
.457
-.307
.458
-.177
.457
-.111
.458
-.263
.457
-.221
.457
-.17
.458
-.205
.457
-.195
.458
-.152
.457
-.241
.458
-.221
.457
-.124
.458
-.285
.457
-.269
.458
-.117
.457
-.168
.458
-.133
.457
-.147
.458
-.279
.457
-.28
.458
-.204
.457
-.192
.458
-.196
.457
-.247
.458
-.194
.457
-.14
.457
-.166
.458
-.275
.457
-.171
.458
-.209
.457
-.349
.458
-.282
.457
-.144
.458
-.227
.457
-.293
.458
-.233
.457
-.3
.458
-.229
.457
-.256
.458
-.301
.457
-.232
.458
-.218
.457
-.276
.458
-.236
.457
-.216
.457
-.338
.458
-.202
.457
-.157
.458
-.327
.457
-.115
.458
-.198
.457
-.32
.458
-.165
.457
-.193
.458
-.239
.457
-.145
.458
-.149
.457
-.15
.458
-.11
.457
-.205
.458
-.279
.457
-.258
.458
-.314
.457
-.375
.457
-.171
.458
-.204
.457
-.196
.458
-.272
.457
-.303
.458
-.227
.457
-.163
.458
-.267
.457
-.319
.458
-.448
.457
-.278
.458
-.341
.457
-.196
.458
-.181
.457
-.243
.458
-.104
.457
-.153
.458
-.387
.457
-.425
.457
-.311
.458
-.433
.457
-.241
.458
-.205
.457
-.247
.458
-.242
.457
-.206
.458
-.324
.457
-.194
.458
-.322
.457
-.481
.458
-.338
.457
-.244
.458
-.361
.457
-.241
.458
-.176
.457
-.372
.458
-.3
.457
-.333
.457
-.329
.458
-.384
.457
-.511
.458
-.555
.457
-.303
.458
-.315
.457
-.46
.458
-.313
.457
-.234
.458
-.301
.457
-.255
.458
-.257
.457
-.412
.458
-.36
.457
-.149
.458
-.321
.457
-.276
.458
-.317
.457
-.313
.458
-.187
.457
-.276
.457
-.411
.458
-.379
.457
-.253
.458
-.389
.457
-.194
.458
-.25
.457
-.281
.458
-.183
.457
-.217
.458
-.289
.457
-.229
.458
-.231
.457
-.429
.458
-.239
.457
-.204
.458
-.183
.457
-.171
.458
-.228
.457
-.212
.457
-.13
.458
-.162
.457
-.345
.458
-.217
.457
-.164
.458
-.323
.457
-.225
.458
-.095
.457
-.193
.458
-.258
.457
-.194
.458
-.263
.457
-.286
.458
-.273
.457
-.423
.458
-.293
.457
-.188
.458
-.034
.457
-.004
.457
-.002
.458
-.002
.457
-.004
.458
-.004
.457
-.005
.458
-.023
.457
-.017
.458
-.01
.457
-.028
.458
-.044
.457
-.031
.458
-.04
.457
-.078
.458
-.105
.457
-.263
.458
-.178
.457
-.167
.458
-.15
.457
-.143
.457
-.164
.458
-.209
.457
-.187
.458
-.222
.457
-.23
.458
-.204
.457
-.248
.458
-.188
.457
-.145
.458
-.208
.457
-.224
.458
-.097
.457
-.146
.458
-.215
.457
-.122
.458
-.127
.457
-.189
.458
-.151
.457
-.22
.457
-.184
.458
-.111
.457
-.167
.458
-.145
.457
-.138
.458
-.095
.457
-.119
.458
-.07
.457
-.127
.458
-.134
.457
-.17
.458
-.241
.457
-.152
.458
-.098
.457
-.211
.458
-.161
.457
-.146
.458
-.152
.457
-.212
.458
-.146
.457
-.204
.457
-.139
.458
-.107
.457
-.164
.458
-.182
.457
-.19
.458
-.123
.457
-.17
.458
-.145
.457
-.181
.458
-.259
.457
-.193
.458
-.25
.457
-.137
.458
-.122
.457
-.17
.458
-.169
.457
-.142
.458
-.191
.457
-.216
.457
-.135
.458
-.243
.457
-.214
.458
-.175
.457
-.252
.458
-.145
.457
-.112
.458
-.089
.457
-.123
.458
-.155
.457
-.17
.458
-.356
.457
-.177
.458
-.269
.457
-.128
.458
-.123
.457
-.152
.458
-.226
.457
-.076
.457
-.165
.458
-.183
.457
-.164
.458
-.25
.457
-.311
.458
-.161
.457
-.272
.458
-.126
.457
-.168
.458
-.304
.457
-.222
.458
-.152
.457
-.245
.458
-.263
.457
-.141
.458
-.324
.457
-.147
.458
-.146
.457
-.213
.457
-.219
.458
-.149
.457
-.247
.458
-.193
.457
-.202
.458
-.297
.457
-.295
.458
-.213
.457
-.204
.458
-.271
.457
-.163
.458
-.168
.457
-.151
.458
-.215
.457
-.185
.458
-.198
.457
-.183
.458
-.194
.457
-.218
.457
-.066
.458
-.101
.457
-.155
.458
-.122
.457
-.29
.458
-.17
.457
-.119
.458
-.158
.457
-.339
.458
-.115
.457
-.171
.458
-.231
.457
-.173
.458
-.114
.457
-.151
.458
-.093
.457
-.128
.458
-.146
.457
-.152
.458
-.275
.457
-.192
.457
-.131
.458
-.241
.457
-.173
.458
-.175
.457
-.132
.458
-.132
.457
-.099
.458
-.168
.457
-.188
.458
-.083
.457
-.112
.458
-.121
.457
-.114
.458
-.135
.457
-.161
.458
-.177
.457
-.191
.458
-.105
.457
-.112
.457
-.181
.458
-.159
.457
-.101
.458
-.18
.457
-.167
.458
-.131
.457
-.158
.458
-.165
.457
-.176
.458
-.242
.457
-.331
.458
-.207
.457
-.22
.458
-.151
.457
-.146
.458
-.201
.457
-.142
.458
-.11
.457
-.135
.457
-.14
.458
-.156
.457
-.166
.458
-.235
.457
-.168
.458
-.27
.457
-.255
.458
-.26
.457
-.264
.458
-.234
.457
-.269
.458
-.289
.457
-.145
.458
-.191
.457
-.345
.458
-.179
.457
-.163
.458
-.224
.457
-.155
.457
-.08
.458
-.464
.457
-.401
.458
-.4
.457
-.429
.458
-.347
.457
-.249
.458
-.389
.457
-.409
.458
-.251
.457
-.238
.458
-.287
.457
-.265
.458
-.294
.457
-.326
.458
-.215
.457
-.132
.458
-.242
.457
-.137
.457
-.145
.458
-.191
.457
-.181
.458
-.211
.457
-.254
.458
-.253
.457
-.196
.458
-.197
.457
-.174
.458
-.154
.457
-.106
.458
-.079
.457
-.091
.458
-.115
.457
-.136
.458
-.095
.457
-.152
.458
-.102
.457
-.121
.458
-.106
.457
-.132
.457
-.107
.458
-.193
.457
-.139
.458
-.153
.457
-.118
.458
-.174
.457
-.181
.458
-.161
.457
-.122
.458
-.15
.457
-.111
.458
-.126
.457
-.083
.458
-.101
.457
-.112
.458
-.092
.457
-.163
.458
-.131
.457
-.114
.457
-.114
.458
-.136
.457
-.12
.458
-.154
.457
-.1
.458
-.175
.457
-.236
.458
-.226
.457
-.314
.458
-.136
.457
-.155
.458
-.162
.457
-.101
.458
-.169
.457
-.168
.458
-.169
.457
-.221
.458
-.391
.457
-.173
.457
-.112
.458
-.242
.457
-.145
.458
-.078
.457
-.161
.458
-.134
.457
-.106
.458
-.186
.457
-.212
.458
-.207
.457
-.294
.458
-.114
.457
-.1
.458
-.143
.457
-.127
.458
-.071
.457
-.086
.458
-.128
.457
-.064
.457
-.12
.458
-.108
.457
-.08
.458
-.101
.457
-.061
.458
-.098
.457
-.144
.458
-.12
.457
-.091
.458
-.187
.457
-.147
.458
-.133
.457
-.194
.458
-.056
.457
-.072
.458
-.128
.457
-.077
.458
-.08
.457
-.101
.457
-.065
.458
-.078
.457
-.187
.458
-.115
.457
-.042
.458
-.05
.457
-.071
.458
-.105
.457
-.101
.458
-.153
.457
-.081
.458
-.166
.457
-.234
.458
-.172
.457
-.256
.458
-.183
.457
-.116
.458
-.112
.457
-.109
.458
-.128
.457
-.099
.457
-.085
.458
-.15
.457
-.148
.458
-.161
.457
-.085
.458
-.149
.457
-.06
.458
-.073
.457
-.146
.458
-.093
.457
-.095
.458
-.108
.457
-.137
.458
-.125
.457
-.135
.458
-.079
.457
-.111
.458
-.13
.457
-.115
.457
-.108
.458
-.145
.457
-.101
.458
-.118
.457
-.18
.458
-.179
.457
-.071
.458
-.101
.457
-.116
.458
-.075
.457
-.104
.458
-.082
.457
-.044
.458
-.101
.457
-.051
.458
-.027
.457
-.069
.458
-.096
.457
-.05
.457
-.056
.458
-.106
.457
-.167
.458
-.109
.457
-.155
.458
-.06
.457
-.087
.458
-.068
.457
-.094
.458
-.093
.457
-.049
.458
-.068
.457
-.115
.458
-.089
.457
-.085
.458
-.153
.457
-.152
.458
-.079
.457
-.144
.457
-.08
.458
-.144
.457
-.108
.458
-.052
.457
-.064
.458
-.107
.457
-.087
.458
-.099
.457
-.175
.458
-.053
.457
-.129
.458
-.106
.457
-.085
.458
-.067
.457
-.084
.458
-.062
.457
-.081
.458
-.088
.457
-.139
.457
-.115
.458
-.24
.457
-.171
.458
-.137
.457
-.163
.458
-.123
.457
-.113
.458
-.196
.457
-.201
.458
-.106
.457
-.184
.458
-.111
.457
-.067
.458
-.126
.457
-.087
.458
-.095
.457
-.066
.458
-.139
.457
-.085
.458
-.099
.457
-.095
.457
-.113
.458
-.08
.457
-.091
.458
-.082
.457
-.091
.458
-.134
.457
-.097
.458
-.171
.457
-.104
.458
-.108
.457
-.135
.458
-.13
.457
-.14
.458
-.152
.457
-.107
.458
-.064
.457
-.132
.458
-.113
.457
-.101
.457
-.13
.458
-.148
.457
-.21
.458
-.264
.457
-.191
.458
-.103
.457
-.114
.458
-.088
.457
-.101
.458
-.142
.457
-.09
.458
-.073
.457
-.189
.458
-.165
.457
-.082
.458
-.144
.457
-.12
.458
-.111
.457
-.12
.457
-.159
.458
-.19
.457
-.122
.458
-.123
.457
-.084
.458
-.104
.457
-.091
.458
-.039
.457
-.176
.458
-.076
.457
-.123
.458
-.157
.457
-.13
.458
-.183
.457
-.173
.458
-.12
.457
-.118
.458
-.197
.457
-.101
.457
-.106
.458
-.175
.457
-.11
.458
-.13
.457
-.179
.458
-.089
.457
-.098
.458
-.154
.457
-.104
.458
-.193
.457
-.104
.458
-.179
.457
-.153
.458
-.096
.457
-.088
.458
-.12
.457
-.234
.458
-.226
.457
-.146
.457
-.197
.458
-.126
.457
-.148
.458
-.224
.457
-.171
.458
-.146
.457
-.148
.458
-.099
.457
-.124
.458
-.115
.457
-.129
.458
-.115
.457
-.133
.458
-.106
.457
-.123
.458
-.183
.457
-.139
.458
-.087
.457
-.082
.458
-.102
.457
-.097
.457
-.094
.458
-.064
.457
-.068
.458
-.112
.457
-.058
.458
-.071
.457
-.103
.458
-.101
.457
-.088
.458
-.138
.457
-.071
.458
-.116
.457
-.074
.458
-.152
.457
-.068
.458
-.125
.457
-.048
.458
-.058
.457
-.167
.457
-.088
.458
-.1
.457
-.048
.458
-.07
.457
-.119
.458
-.073
.457
-.071
.458
-.024
.457
-.074
.458
-.031
.457
-.069
.458
-.048
.457
-.113
.458
-.116
.457
-.111
.458
-.037
.457
-.065
.458
-.053
.457
-.034
.457
-.021
.458
-.096
.457
-.072
.458
-.082
.457
-.033
.458
-.062
.457
-.058
.458
-.095
.457
-.026
.458
-.045
.457
-.041
.458
-.087
.457
-.087
.458
-.062
.457
-.054
.458
-.053
.457
-.041
.458
-.036
.457
-.019
.457
-.019
.458
-.039
.457
-.062
.458
-.012
.457
-.033
.458
-.015
.457
-.027
.458
-.018
.457
-.014
.458
-.018
.457
-.013
.458
-.009
.457
-.027
.458
-.052
.457
-.02
.458
-.03
.457
-.002
.458
-.04
.457
-.034
.457
-.042
.458
-.024
.457
-.077
.458
-.029
.457
-.021
.458
-.029
.457
-.039
.458
-.037
.457
-.011
.458
-.009
.457
-.014
.458
-.018
.457
-.026
.458
-.04
.457
-.035
.458
-.029
.457
-.049
.458
-.063
.457
-.04
.458
-.038
.457
-.043
.457
-.013
.458
-.041
.457
-.059
.458
-.029
.457
-.074
.458
-.066
.457
-.043
.458
-.063
.457
-.027
.458
-.023
.457
-.021
.458
-.052
.457
-.087
.458
-.02
.457
-.074
.458
-.055
.457
-.029
.458
-.028
.457
-.017
.457
-.033
.458
-.039
.457
-.055
.458
-.05
.457
-.062
.458
-.048
.457
-.014
.458
-.061
.457
-.032
.458
-.022
.457
-.002
.458
-.026
.457
-.026
.458
-.035
.457
-.045
.458
-.016
.457
-.035
.458
-.017
.457
-.018
.457
-.019
.458
-.022
.457
-.017
.458
-.042
.457
-.022
.458
-.028
.457
-.07
.458
-.045
.457
-.029
.458
-.041
.457
-.06
.458
-.054
.457
-.026
.458
-.043
.457
-.052
.458
-.04
.457
-.027
.458
-.044
.457
-.072
.457
-.013
.458
-.012
.457
-.036
.458
-.07
.457
-.029
.458
-.074
.457
-.048
.458
-.03
.457
-.095
.458
-.062
.457
-.025
.458
-.062
.457
-.017
.458
-.042
.457
-.004
.458
-.031
.457
-.018
.458
-.016
.457
-.034
.457
-.028
.458
-.052
.457
-.05
.458
-.087
.457
-.034
.458
-.039
.457
-.015
.458
-.047
.457
-.041
.458
-.072
.457
-.017
.458
-.032
.457
-.056
.458
-.051
.457
-.018
.458
-.051
.457
-.041
.458
-.005
.457
-.029
.458
-.037
.457
-.051
.457
-.037
.458
-.033
.457
-.023
.458
-.06
.457
-.072
.458
-.04
.457
-.025
.458
-.072
.457
-.034
.458
-.03
.457
-.016
.458
-.027
.457
-.021
.458
-.059
.457
-.032
.458
-.015
.457
-.013
.458
-.048
.457
-.007
.457
-.04
.458
-.035
.457
-.025
.458
-.008
.457
-.001
.458
-.011
.457
-.008
.458
-.014
.457
-.031
.458
-.013
.457
-.014
.458
-.014
.457
-.012
.458
-.028
.457
-.059
.458
-.008
.457
-.038
.458
-.074
.457
-.108
.457
-.084
.458
-.022
.457
-.024
.458
-.033
.457
-.025
.458
-.019
.457
-.034
.458
-.051
.457
-.063
.458
-.031
.457
-.019
.458
-.002
.457
-.026
.458
-.064
.457
-.026
.458
-.022
.457
-.03
.458
-.027
.457
-.05
.457
-.036
.458
-.068
.457
-.003
.458
-.004
.457
-.017
.458
-.025
.457
-.001
.458
-.068
.457
-.022
.458
-.052
.457
-.06
h.458
l.457
-.002
.458
-.006
.457
-.008
.458
-.013
.457
-.015
.458
-.005
.457
-.038
.457
-.02
.458
-.018
.457
-.008
.458
-.003
.457
-.004
.458
-.002
.457
-.003
.458
-.002
.457
-.025
.458
-.039
.457
-.091
.458
-.096
.457
-.053
.458
-.014
h.457
l.458
-.036
.457
-.036
.458
-.024
.457
-.032
.458
-.08
.457
-.065
.457
-.035
.458
-.062
.457
-.031
.458
-.02
.457
-.028
.458
-.016
.457
-.044
.458
-.049
.457
-.022
.458
-.008
.457
-.05
.458
-.047
.457
-.066
.458
-.019
.457
-.002
.458
-.005
.457
-.017
.458
-.025
.457
-.014
.457
-.007
.458
-.014
.457
-.002
.458
-.025
.457
-.028
.458
-.045
.457
-.008
.458
-.016
.457
-.019
.458
-.016
.457
-.037
.458
-.033
.457
-.043
.458
-.024
.457
-.009
.458
-.017
.457
-.021
.458
-.033
.457
-.007
.457
-.018
.458
-.039
.457
-.041
.458
-.004
.457
-.026
.458
-.019
.457
-.018
.458
-.011
.457
-.019
.458
-.001
.457
-.002
.458
-.022
h.457
l.458
-.021
.457
-.027
h.458
l.457
-.014
.458
-.013
.457
-.023
.457
-.029
.458
-.032
.457
-.006
.458
-.017
.457
-.003
.458
-.01
.457
-.016
.458
-.05
.457
-.003
.458
-.026
.457
-.022
.458
-.008
.457
-.028
.458
-.026
.457
-.032
.458
-.041
.457
-.042
.458
-.029
.457
-.048
.457
-.008
.458
-.017
.457
-.012
.458
-.012
.457
-.003
.458
-.001
.457
-.004
.458
-.016
.457
-.015
.458
-.008
.457
-.015
.458
-.028
.457
-.011
.458
-.039
.457
-.013
.458
-.014
.457
-.012
.458
-.021
.457
-.008
.458
-.012
.457
-.043
.457
-.013
.458
-.024
.457
-.026
.458
-.003
.457
-.012
.458
-.022
.457
-.023
.458
-.003
.457
-.04
.458
-.023
.457
-.011
.458
-.014
.457
-.041
.458
-.017
.457
-.022
.458
-.015
.457
-.013
.458
-.042
.457
-.001
h.457
l.458
-.035
.457
-.058
.458
-.03
.457
-.004
.458
-.002
.457
-.002
.458
-.014
.457
-.012
.458
-.017
.457
-.047
.458
-.032
.457
-.025
.458
-.013
.457
-.053
.458
-.044
.457
-.009
.458
-.028
L770
60" aria-label="line"/>
</svg>
