<svg xmlns="http://www.w3.org/2000/svg" width="830" height="470" fill="currentColor" class="plot-d6a7b5" font-family="system-ui, sans-serif" font-size="10" style="--plot-background:white;display:block;height:intrinsic;max-width:100%;color:#1e90ff" text-anchor="middle" viewBox="0 0 830 470">
    <style>
        :where(.plot-d6a7b5 text),:where(.plot-d6a7b5 tspan){white-space:pre}
    </style>
    <path stroke="currentColor" stroke-opacity=".1" d="
M60
410
h710
M60
360.939
h710
M60
311.878
h710
M60
262.817
h710
m-710
-49.06
h710
M60
164.696
h710
M60
115.635
h710
M60
66.574
h710" aria-hidden="true" aria-label="y-grid"/>
    <path fill="none" stroke="currentColor" d="
M60
410
h-6
m6
-49.06
h-6
m6
-49.062
h-6
m6
-49.061
h-6
m6
-49.06
h-6
m6
-49.061
h-6
m6
-49.061
h-6
m6
-49.061
h-6" aria-hidden="true" aria-label="y-axis tick"/>
    <g aria-label="y-axis tick label" font-variant="tabular-nums" text-anchor="end">
        <text y=".32em" transform="translate(51 410)">0</text>
        <text y=".32em" transform="translate(51 360.94)">1,000</text>
        <text y=".32em" transform="translate(51 311.878)">2,000</text>
        <text y=".32em" transform="translate(51 262.817)">3,000</text>
        <text y=".32em" transform="translate(51 213.757)">4,000</text>
        <text y=".32em" transform="translate(51 164.696)">5,000</text>
        <text y=".32em" transform="translate(51 115.635)">6,000</text>
        <text y=".32em" transform="translate(51 66.574)">7,000</text>
    </g>
    <text y=".71em" aria-label="y-axis label" text-anchor="start" transform="translate(3 3)">↑ Visible Vestiges (4 days)</text>
    <path fill="none" stroke="currentColor" d="
M83.331
410
v6
m62.445
-6
v6
m63.132
-6
v6
m63.132
-6
v6
m62.445
-6
v6
m62.445
-6
v6
m63.131
-6
v6
m63.132
-6
v6
m61.759
-6
v6
m62.445
-6
v6
m63.131
-6
v6" aria-hidden="true" aria-label="x-axis tick"/>
    <g aria-label="x-axis tick label" font-variant="tabular-nums">
        <text transform="translate(83.331 419)"><tspan x="0" y=".71em">Apr</tspan><tspan x="0" dy="1em">2023</tspan></text>
        <text y=".71em" transform="translate(145.776 419)">Jul</text>
        <text y=".71em" transform="translate(208.908 419)">Oct</text>
        <text transform="translate(272.04 419)"><tspan x="0" y=".71em">Jan</tspan><tspan x="0" dy="1em">2024</tspan></text>
        <text y=".71em" transform="translate(334.485 419)">Apr</text>
        <text y=".71em" transform="translate(396.93 419)">Jul</text>
        <text y=".71em" transform="translate(460.061 419)">Oct</text>
        <text transform="translate(523.193 419)"><tspan x="0" y=".71em">Jan</tspan><tspan x="0" dy="1em">2025</tspan></text>
        <text y=".71em" transform="translate(584.952 419)">Apr</text>
        <text y=".71em" transform="translate(647.397 419)">Jul</text>
        <text y=".71em" transform="translate(710.528 419)">Oct</text>
    </g>
    <path fill="none" stroke="currentColor" stroke-linecap="round" stroke-linejoin="round" stroke-width="1.5" d="
m60
410
.457
-24.629
.458
-90.075
.457
-48.57
.458
-9.813
.457
33.264
.458
3.826
.457
-7.506
.458
-28.063
.457
-22.421
.458
-37.776
.457
-38.611
.458
-49.257
.457
19.281
.458
36.01
.457
57.009
.458
-7.654
.457
-1.57
.458
-.539
.457
9.321
.457
9.273
.458
-28.504
.457
-3.876
.458
-27.131
.457
37.826
.458
15.405
.457
21.685
.458
-30.957
.457
-15.553
.458
-2.306
.457
-5.691
.458
-16.68
.457
-35.668
.458
-10.449
.457
22.862
.458
64.22
.457
53.33
.458
20.752
.457
-7.555
.457
-20.655
.458
-9.517
.457
-38.415
.458
-44.645
.457
-52.937
.458
-14.179
.457
28.946
.458
29.535
.457
25.413
.458
2.355
.457
12.02
.458
-8.536
.457
-20.459
.458
-35.471
.457
-29.976
L84.704
60
l.457
26.934
.458
35.324
.457
38.12
.458
-13.05
.457
-14.031
.457
-16.779
.458
-12.167
.457
2.11
.458
-.099
.457
.687
.458
-12.02
.457
29.977
.458
22.764
.457
27.278
.458
-2.257
.457
9.812
.458
19.772
.457
-3.042
.458
-16.975
.457
-23.599
.458
-16.876
.457
19.231
.458
21.047
.457
36.894
.457
15.798
.458
15.65
.457
-.785
.458
-24.923
.457
-22.322
.458
-23.991
.457
-1.766
.458
-8.242
.457
20.311
.458
24.04
.457
-4.858
.458
-2.354
.457
5.887
.458
35.912
.457
8.39
.458
-24.482
.457
-22.813
.458
-14.178
.457
-1.767
.457
28.946
.458
24.236
.457
16.289
.458
-21.293
.457
5.053
.458
2.306
.457
4.563
.458
-37.335
.457
-19.33
.458
-10.156
.457
25.708
.458
12.265
.457
7.506
.458
4.318
.457
2.845
.458
9.567
.457
.295
.458
-12.511
.457
-.049
.457
-8.095
.458
12.265
.457
13.541
.458
14.031
.457
6.624
.458
-7.997
.457
-.442
.458
1.374
.457
-7.752
.458
-41.505
.457
-22.617
.458
-15.455
.457
37.14
.458
6.721
.457
23.794
.458
-3.974
.457
18.889
.458
-15.749
.457
-4.955
.457
-23.598
.458
-14.571
.457
-7.114
.458
3.974
.457
30.172
.458
1.619
.457
7.752
.458
10.008
.457
-.147
.458
11.579
.457
-1.718
.458
18.595
.457
-4.71
.458
-9.665
.457
1.962
.458
-2.551
.457
-.491
.458
.098
.457
5.152
.458
17.073
.457
-7.604
.457
-7.801
.458
-6.623
.457
-3.189
.458
5.298
.457
-2.06
.458
10.303
.457
-.982
.458
-8.193
.457
-6.378
.458
3.827
.457
8.193
.458
.736
.457
3.827
.458
-9.273
.457
2.552
.458
-12.413
.457
7.654
.458
1.177
.457
20.9
.457
3.827
.458
5.004
.457
-20.949
.458
-7.604
.457
-4.857
.458
-1.767
.457
2.306
.458
-4.661
.457
5.986
.458
-16.534
.457
-8.095
.458
10.303
.457
17.907
.458
10.401
.457
4.808
.458
2.698
.457
14.768
.458
-10.254
.457
3.385
.457
-11.284
.458
4.023
.457
-7.8
.458
3.679
.457
-1.668
.458
3.827
.457
-5.691
.458
.245
.457
-4.317
.458
10.646
.457
-3.925
.458
4.563
.457
-6.035
.458
-6.819
.457
-2.846
.458
-5.691
.457
6.918
.458
7.8
.457
-6.917
.457
-2.208
.458
6.28
.457
12.069
.458
10.303
.457
-15.013
.458
7.654
.457
-6.771
.458
6.084
.457
-4.465
.458
-8.291
.457
-13.933
.458
-8.439
.457
19.183
.458
-1.374
.457
.147
.458
-13.982
.457
5.544
.458
7.555
.457
-.539
.457
9.517
.458
-10.057
.457
-.393
.458
-14.374
.457
.834
.458
-.148
.457
11.235
.458
-8.536
.457
-15.602
.458
-34.048
.457
4.661
.458
18.839
.457
32.381
.458
9.419
.457
8.341
.458
4.906
.457
.147
.458
1.177
.457
-.343
.458
-1.717
.457
-2.306
.457
-2.797
.458
-3.777
.457
-4.465
.458
3.336
.457
-12.167
.458
-14.276
.457
-15.258
.458
15.454
.457
7.506
.458
-.785
.457
-3.287
.458
-1.325
.457
10.548
.458
3.729
.457
15.013
.458
10.744
.457
12.069
.458
-5.936
.457
-.197
.457
-10.989
.458
-4.465
.457
3.091
.458
2.012
.457
5.053
.458
1.177
.457
2.846
.458
2.502
.457
1.325
.458
-.197
.457
-9.272
.458
-12.56
.457
2.993
.458
3.189
.457
9.665
.458
6.083
.457
6.82
.458
7.31
.457
9.42
.457
6.966
.458
-23.745
.457
-19.134
.458
-12.069
.457
6.82
.458
18.496
.457
8.929
.458
23.745
.457
-.147
.458
-3.876
.457
-6.133
.458
-16.288
.457
-7.31
.458
-30.123
.457
-15.798
.458
10.745
.457
24.236
.458
26.738
.457
-3.385
.457
1.717
.458
-6.525
.457
5.691
.458
-3.484
.457
-11.235
.458
-6.476
.457
-4.268
.458
21.636
.457
10.45
.458
14.767
.457
-5.495
.458
-2.747
.457
-10.941
.458
-5.838
.457
-9.665
.458
-6.181
.457
-1.178
.458
16.092
.457
12.363
.457
9.714
.458
-4.219
.457
5.74
.458
-2.845
.457
-9.714
.458
-13.983
.457
-17.514
.458
-13.394
.457
-5.004
.458
11.333
.457
19.673
.458
15.209
.457
7.212
.458
-3.189
.457
-7.016
.458
.687
.457
4.563
.458
-15.798
.457
-20.801
.458
-4.269
.457
25.316
.457
25.757
.458
12.118
.457
-5.937
.458
-2.257
.457
-6.721
.458
-10.204
.457
-25.905
.458
-13.589
.457
-4.416
.458
22.961
.457
12.755
.458
8.341
.457
-.54
.458
-1.423
.457
5.25
.458
-12.167
.457
.736
.458
-4.857
.457
12.608
.457
7.948
.458
4.661
.457
1.913
.458
2.159
.457
14.326
.458
1.57
.457
-24.089
.458
-23.353
.457
-23.108
.458
8.291
.457
15.7
.458
28.75
.457
4.17
.458
-.883
.457
.441
.458
8.684
.457
.392
.458
-1.619
.457
-8.046
.457
2.453
.458
-6.721
.457
9.469
.458
5.593
.457
13.099
.458
-.54
.457
-.343
.458
-3.189
.457
6.672
.458
-13.442
.457
-20.41
.458
-24.825
.457
1.57
.458
9.224
.457
18.692
.458
8.046
.457
10.107
.458
-6.967
.457
-7.359
.457
-11.284
.458
-1.03
.457
-2.355
.458
1.913
.457
-.687
.458
7.016
.457
1.668
.458
-2.453
.457
-11.186
.458
.147
.457
4.906
.458
17.073
.457
-3.287
.458
-4.366
.457
-6.084
.458
10.303
.457
16.485
.458
4.317
.457
-4.17
.457
-5.838
.458
5.691
.457
2.502
.458
1.717
.457
-3.483
.458
-2.552
.457
2.797
.458
-4.318
.457
-4.758
.458
.735
.457
11.383
.458
13.393
.457
-2.943
.458
-10.843
.457
-14.473
.458
-5.642
.457
8.635
.458
8.193
.457
-4.219
.458
-.246
.457
5.544
.457
7.997
.458
-7.948
.457
-3.09
.458
-4.22
.457
-7.261
.458
-10.793
.457
6.28
.458
12.02
.457
-1.178
.458
-8.634
.457
-7.262
.458
6.427
.457
-2.305
.458
-.049
.457
-.393
.458
3.778
.457
2.404
.458
-.393
.457
.196
.457
-6.034
.458
3.336
.457
5.789
.458
1.08
.457
8.487
.458
-4.023
.457
.687
.458
-4.906
.457
.54
.458
7.849
.457
2.012
.458
4.268
.457
8.782
.458
3.483
.457
-5.494
.458
-12.658
.457
-14.522
.458
-10.744
.457
-9.371
.457
8.438
.458
10.892
.457
17.466
.458
-9.813
.457
-9.763
.458
-2.943
.457
10.597
.458
3.581
.457
-9.125
.458
-27.818
.457
-1.128
.458
-2.061
.457
24.58
.458
9.518
.457
9.616
.458
9.076
.457
2.698
.458
-14.129
.457
-31.448
.457
-15.504
.458
-4.562
.457
18.054
.458
10.45
.457
18.3
.458
-.147
.457
-.148
.458
-7.604
.457
4.808
.458
-11.431
.457
-15.356
.458
-14.13
.457
7.752
.458
11.676
.457
9.469
.458
6.623
.457
-.981
.458
-5.74
.457
-15.454
.457
4.219
.458
-8.242
.457
-17.368
.458
-22.224
.457
7.899
.458
19.182
.457
9.371
.458
-.981
.457
7.997
.458
15.552
.457
5.642
.458
-2.257
.457
-10.842
.458
-10.303
.457
10.597
.458
8.88
.457
8.34
.458
-16.582
.457
.834
.458
8.635
.457
4.17
.457
-9.616
.458
-18.84
.457
2.159
.458
2.208
.457
18.103
.458
.393
.457
10.499
.458
1.128
.457
3.14
.458
-.687
.457
-4.513
.458
-1.374
.457
-13.737
.458
-.981
.457
2.649
.458
24.04
.457
6.672
.458
-2.257
.457
-2.845
.457
4.023
.458
6.427
.457
-13.05
.458
-8.488
.457
-.294
.458
2.256
.457
-.834
.458
6.82
.457
12.658
.458
-3.238
.457
-9.616
.458
-6.869
.457
-2.747
.458
-7.85
.457
-15.601
.458
-.638
.457
8.291
.458
38.12
.457
28.309
.457
18.299
.458
3.042
.457
.049
.458
-.245
.457
-.246
.458
-1.864
.457
-1.226
.458
-.54
.457
-.442
.458
-2.698
.457
-2.011
.458
-1.276
.457
-3.287
.458
-7.212
.457
-21.881
.458
-9.812
.457
-6.084
.458
11.088
.457
3.434
.457
.245
.458
-5.74
.457
-4.317
.458
-5.642
.457
-2.11
.458
-1.619
.457
-2.551
.458
4.072
.457
5.838
.458
3.827
.457
-3.434
.458
4.612
.457
6.181
.458
.785
.457
-2.404
.458
1.816
.457
2.6
.458
-2.846
.457
-9.076
.457
.442
.458
3.973
.457
5.152
.458
3.827
.457
-2.699
.458
7.065
.457
2.649
.458
6.574
.457
-3.09
.458
-1.521
.457
-9.763
.458
-11.137
.457
-1.766
.458
7.015
.457
2.846
.458
-.834
.457
-4.612
.458
5.789
.457
-5.004
.458
-.049
.457
-5.053
.457
7.114
.458
3.826
.457
3.876
.458
-4.219
.457
-8.095
.458
3.974
.457
1.226
.458
4.416
.457
-5.691
.458
-8.684
.457
-4.808
.458
-6.623
.457
11.823
.458
7.016
.457
7.801
.458
-3.042
.457
-1.962
.458
-2.061
.457
-4.661
.457
.687
.458
-5.102
.457
.147
.458
-3.827
.457
-.932
.458
6.82
.457
6.083
.458
16.043
.457
2.159
.458
-4.269
.457
-7.898
.458
-22.863
.457
-2.06
.458
-9.862
.457
22.47
.458
5.25
.457
11.529
.458
-9.665
.457
4.563
.457
-1.276
.458
4.268
.457
-8.585
.458
-8.39
.457
-12.559
.458
.245
.457
-2.06
.458
18.103
.457
-.638
.458
-3.14
.457
-9.468
.458
1.619
.457
5.74
.458
-3.974
.457
.981
.458
-7.703
.457
11.383
.458
-.491
.457
10.941
.457
-7.114
.458
-.246
.457
-3.434
.458
2.551
.457
-5.151
.458
-4.857
.457
-10.008
.458
-1.08
.457
9.076
.458
2.355
.457
4.906
.458
3.582
.457
11.774
.458
-5.151
.457
-1.717
.458
-4.563
.457
3.189
.458
-.883
.457
-1.962
.457
11.382
.458
9.125
.457
6.182
.458
-5.397
.457
-18.594
.458
-1.472
.457
.246
.458
13.001
.457
-16.534
.458
.344
.457
-1.227
.458
10.548
.457
-5.691
.458
5.593
.457
7.85
.458
7.85
.457
-1.374
.458
.441
.457
-5.691
.458
-14.473
.457
-4.513
.457
2.06
.458
3.385
.457
1.816
.458
-4.367
.457
10.745
.458
4.072
.457
7.457
.458
-3.631
.457
-5.494
.458
1.619
.457
5.494
.458
6.526
.457
-3.042
.458
-2.257
.457
-3.876
.458
-6.181
.457
-5.446
.458
5.446
.457
6.377
.457
.982
.458
-5.299
.457
1.079
.458
.049
.457
-.686
.458
-3.042
.457
2.208
.458
.196
.457
-4.416
.458
-8.242
.457
-16.337
.458
-2.895
.457
2.11
.458
17.711
.457
5.887
.458
1.815
.457
.933
.458
3.532
.457
6.525
.457
.049
.458
-4.415
.457
-3.042
.458
-9.224
.457
-1.324
.458
-10.156
.457
-1.962
.458
-9.027
.457
.588
.458
2.061
.457
-.785
.458
-2.453
.457
8.635
.458
7.653
.457
-5.495
.458
-3.336
.457
2.747
.458
11.824
.457
2.404
.457
8.193
.458
-23.549
.457
-24.138
.458
-31.448
.457
3.483
.458
5.397
.457
14.767
.458
3.925
.457
-6.132
.458
-.197
.457
14.817
.458
11.922
.457
-1.325
.458
-5.544
.457
-3.778
.458
4.907
.457
15.846
.458
8.242
.457
7.605
.457
-1.227
.458
4.955
.457
-4.268
.458
-6.427
.457
-6.132
.458
-7.163
.457
1.521
.458
5.543
.457
7.801
.458
4.072
.457
8.929
.458
9.322
.457
6.132
.458
-.932
.457
-5.544
.458
-.343
.457
-3.581
.458
3.238
.457
-2.503
.458
4.514
.457
-2.895
.457
1.276
.458
-8.537
.457
-.686
.458
-4.465
.457
7.408
.458
-3.483
.457
-2.797
.458
-4.17
.457
5.103
.458
3.09
.457
4.808
.458
-.343
.457
6.574
.458
.932
.457
1.423
.458
-.981
.457
-5.937
.458
-1.962
.457
-2.061
.457
4.71
.458
-.441
.457
-.638
.458
-3.925
.457
3.631
.458
-5.397
.457
-8.046
.458
-12.412
.457
-13.639
.458
9.812
.457
6.966
.458
14.915
.457
3.483
.458
-1.423
.457
-.588
.458
-6.673
.457
-5.102
.458
-21.881
.457
-.392
.457
10.646
.458
14.669
.457
2.747
.458
3.336
.457
7.948
.458
1.031
.457
-2.65
.458
-2.502
.457
-7.604
.458
-9.96
.457
-10.597
.458
9.616
.457
10.499
.458
14.817
.457
-1.276
.458
2.797
.457
5.592
.458
-.049
.457
.687
.457
-3.336
.458
1.913
.457
-1.569
.458
1.913
.457
4.563
.458
-1.718
.457
-4.219
.458
-5.838
.457
.736
.458
-4.219
.457
-2.601
.458
-4.121
.457
-.785
.458
8.978
.457
5.937
.458
6.476
.457
-2.012
.458
-.785
.457
2.65
.457
1.079
.458
.245
.457
-8.34
.458
-4.955
.457
3.532
.458
13.394
.457
4.317
.458
-6.181
.457
-4.956
.458
-7.997
.457
2.306
.458
-6.476
.457
-7.899
.458
-8.88
.457
-8.781
.458
5.004
.457
5.396
.458
14.228
.457
7.212
.458
-1.128
.457
1.177
.457
2.355
.458
-2.11
.457
-4.808
.458
-7.457
.457
6.329
.458
-.049
.457
9.91
.458
1.178
.457
.245
.458
-3.238
.457
-2.159
.458
3.729
.457
-4.268
.458
-2.944
.457
-2.6
.458
5.593
.457
1.423
.458
.392
.457
-3.434
.457
.294
.458
-1.472
.457
1.325
.458
-.932
.457
-3.385
.458
-7.654
.457
4.514
.458
7.751
.457
6.231
.458
-.442
.457
-.294
.458
3.336
.457
3.14
.458
.295
.457
2.992
.458
1.619
.457
3.091
.458
-4.415
.457
-2.257
.457
1.373
.458
-.981
.457
-11.48
.458
-5.2
.457
-4.759
.458
10.499
.457
2.109
.458
8.488
.457
-3.336
.458
-.589
.457
1.864
.458
2.601
.457
-2.159
.458
-3.974
.457
-1.668
.458
-3.729
.457
-6.083
.458
.49
.457
.883
.457
7.065
.458
-6.329
.457
3.533
.458
2.698
.457
7.899
.458
.049
.457
-3.385
.458
-3.435
.457
-6.672
.458
3.336
.457
-2.992
.458
6.819
.457
-3.189
.458
6.084
.457
2.207
.458
2.257
.457
-1.374
.458
-.392
.457
-7.555
.457
-3.337
.458
-14.963
.457
-3.14
.458
-2.159
.457
7.605
.458
4.759
.457
2.306
.458
-3.189
.457
-7.703
.458
.687
.457
1.128
.458
8.88
.457
3.827
.458
5.642
.457
2.355
.458
-2.698
.457
5.936
.458
-5.201
.457
1.031
.458
-3.336
.457
4.366
.457
-2.747
.458
1.913
.457
.393
.458
3.041
.457
-1.128
.458
-4.121
.457
-1.57
.458
-7.801
.457
2.895
.458
-1.031
.457
3.582
.458
-2.6
.457
-3.14
.458
-1.717
.457
2.306
.458
7.457
.457
1.962
.458
-.589
.457
-3.679
.457
.196
.458
-3.483
.457
-10.548
.458
-13.198
.457
-4.121
.458
10.401
.457
14.718
.458
10.009
.457
.245
.458
-2.698
.457
-.196
.458
2.747
.457
-4.563
.458
-7.359
.457
-.981
.458
4.366
.457
4.465
.458
-2.797
.457
2.404
.457
-3.924
.458
-7.654
.457
-.294
.458
3.63
.457
10.303
.458
1.864
.457
3.091
.458
4.367
.457
-7.065
.458
1.423
.457
-8.145
.458
1.816
.457
-5.201
.458
-5.936
.457
-1.521
.458
.932
.457
6.329
.458
-2.355
.457
1.913
.457
1.227
.458
2.159
.457
-.933
.458
-2.354
.457
-.491
.458
2.11
.457
3.189
.458
2.453
.457
-1.521
.458
-9.273
.457
4.906
.458
-7.31
.457
3.876
.458
.785
.457
8.88
.458
3.238
.457
-13.492
.458
-13.491
.457
-2.65
.457
3.68
.458
9.812
.457
-.147
.458
-2.699
.457
-4.415
.458
.196
.457
7.507
.458
6.966
.457
2.208
.458
3.238
.457
-2.944
.458
.834
.457
-1.815
.458
2.404
.457
-.834
.458
-4.906
.457
-3.336
.458
3.679
.457
9.862
.458
3.679
.457
-1.128
.457
-1.129
.458
3.729
.457
2.895
.458
-1.718
.457
.54
.458
-.294
.457
.785
.458
-4.17
.457
-1.619
.458
-3.435
.457
2.895
.458
-2.748
.457
6.28
.458
-7.899
.457
4.71
.458
-4.955
.457
10.156
.458
.883
.457
-4.072
.457
-3.876
.458
-4.121
.457
11.676
.458
1.717
.457
-1.766
.458
-2.551
.457
-.049
.458
9.223
h.457
l.458
3.876
.457
-4.366
.458
2.502
.457
-7.997
.458
-4.661
.457
-6.132
.458
7.408
.457
5.004
.458
5.691
.457
.295
.457
4.415
.458
-4.317
.457
-3.68
.458
-6.083
.457
6.279
.458
.932
.457
2.404
.458
-6.083
.457
3.532
.458
1.227
.457
5.298
.458
-6.034
.457
-4.023
.458
-2.159
.457
3.287
.458
3.287
.457
2.159
.458
1.815
.457
3.287
.457
2.159
.458
-.343
.457
-4.22
.458
.687
.457
.54
.458
4.71
.457
-1.57
.458
1.57
h.457
l.458
.932
.457
.441
.458
.589
.457
-.932
.458
-3.778
.457
-1.128
.458
-.245
.457
4.857
.458
-1.914
.457
-.392
.457
-3.925
.458
1.521
.457
-4.268
.458
1.324
.457
.245
.458
4.808
.457
-1.03
.458
-1.57
.457
1.766
.458
2.944
.457
2.257
.458
-.687
.457
-1.717
.458
-2.453
.457
-1.717
.458
-.246
.457
-.932
.458
-2.698
.457
-1.079
.458
1.03
.457
1.913
.457
2.699
.458
-.295
.457
-1.521
.458
-1.619
.457
-3.189
.458
-.736
.457
-1.324
.458
1.079
.457
3.827
.458
1.864
.457
4.17
.458
-2.502
.457
-6.23
.458
.098
.457
-2.11
.458
3.14
.457
-.932
.458
4.513
.457
3.778
.457
-.441
.458
-1.031
.457
-3.827
.458
-1.619
.457
-2.256
.458
.687
.457
3.532
.458
.098
.457
1.668
.458
-.834
.457
5.789
.458
.54
.457
-.393
.458
-3.238
.457
-1.864
.458
1.03
.457
-.049
.458
2.748
.457
-.246
.457
1.57
.458
-.441
.457
.098
.458
-2.208
.457
-.098
.458
-1.03
.457
-2.748
.458
-2.207
.457
-.098
.458
2.845
.457
-1.521
.458
-2.453
.457
1.472
.458
1.717
.457
.147
.458
-1.373
.457
1.52
.458
.884
.457
-3.14
.457
1.373
.458
3.14
.457
3.435
.458
-5.544
.457
-1.717
.458
-3.68
.457
2.159
.458
-.098
.457
-2.061
.458
-1.325
.457
.54
.458
3.238
.457
4.317
.458
-1.717
.457
5.74
.458
-1.324
.457
2.306
.458
-1.227
.457
-.245
.457
-.981
.458
-3.533
.457
-1.57
.458
-5.789
.457
1.864
.458
.982
.457
7.162
.458
-1.373
.457
-.147
.458
-5.642
.457
2.894
.458
.932
.457
1.521
.458
-3.287
.457
1.374
.458
.49
.457
1.031
.458
1.226
.457
2.208
.458
.392
.457
-4.562
.457
-.736
.458
.343
.457
2.797
.458
-2.355
.457
-3.827
.458
-1.619
.457
3.434
.458
.049
.457
.589
.458
-.49
.457
5.445
.458
.638
.457
.981
.458
-4.268
.457
-.442
.458
.54
.457
4.514
.458
-1.57
.457
.785
.457
-2.65
.458
1.276
.457
-1.766
.458
3.189
.457
3.287
.458
1.374
h.457
l.458
-1.325
.457
-1.913
.458
-.491
.457
.049
.458
1.619
.457
.098
.458
-1.325
.457
-4.415
.458
.393
.457
-1.08
.458
-1.472
.457
-9.812
.457
-4.464
.458
5.102
.457
8.242
.458
5.004
.457
-.196
.458
.491
.457
-.098
.458
-2.699
.457
-4.268
.458
.245
.457
3.238
.458
5.888
.457
.539
.458
-4.415
.457
-2.306
.458
.392
.457
3.288
.458
-.099
.457
-2.747
.457
-.589
.458
-4.023
.457
4.661
.458
3.14
.457
4.955
.458
-2.159
.457
.246
.458
-4.955
.457
.245
.458
-4.906
.457
.785
.458
2.158
.457
4.808
.458
5.348
.457
-.834
.458
-1.03
.457
-.932
.458
.392
.457
-2.502
.457
-.491
.458
-1.324
.457
2.992
.458
1.668
.457
1.374
.458
.638
.457
.049
.458
.196
.457
-2.306
.458
-3.581
.457
-8.782
.458
-6.917
.457
-1.374
.458
7.604
.457
9.371
.458
1.668
.457
-2.159
.458
-2.355
.457
.393
.458
-4.268
.457
-4.023
.457
-.344
.458
1.717
.457
3.336
.458
1.57
.457
3.336
.458
1.472
.457
-2.404
.458
-2.109
.457
-.589
.458
3.581
.457
-.098
.458
-2.404
.457
-5.691
.458
3.091
.457
4.366
.458
5.937
.457
.196
.458
-2.257
.457
-.932
.457
1.03
.458
1.08
.457
1.177
.458
-1.815
.457
-1.374
.458
-4.121
.457
1.668
.458
1.178
.457
2.502
.458
-.834
.457
-2.061
.458
-1.374
.457
-2.551
.458
1.227
.457
2.355
.458
2.6
.457
.343
.458
-2.404
.457
.884
.457
.343
.458
-.54
.457
-3.385
.458
1.325
.457
1.275
.458
2.208
.457
-1.325
.458
1.472
h.457
l.458
1.57
.457
.883
.458
-.245
.457
.147
.458
-1.913
.457
-.54
h.458
l.457
.785
.458
1.325
.457
-2.257
.457
-1.472
.458
-1.864
.457
1.668
.458
1.177
.457
2.846
.458
-.393
.457
.098
.458
-4.513
.457
.638
.458
-.982
.457
2.699
.458
-.491
.457
-.245
.458
-.393
.457
-2.256
.458
-1.325
.457
-1.521
.458
.245
.457
-.686
.457
3.287
.458
1.177
.457
3.581
.458
-.343
.457
1.325
.458
1.079
.457
.785
.458
-1.226
.457
-1.374
.458
-.442
.457
.098
.458
-1.275
.457
-.295
.458
-2.354
.457
1.471
.458
-.245
.457
2.6
.458
-.736
.457
.491
.458
.049
.457
-2.159
.457
-.441
.458
-1.178
.457
1.57
.458
1.031
.457
1.128
.458
.491
.457
-2.012
.458
.883
.457
-1.815
.458
.049
.457
-.736
.458
2.551
.457
-1.864
.458
-.54
.457
-.834
.458
2.649
.457
.393
.458
-1.913
.457
1.275
.457
1.227
.458
.687
.457
-5.544
.458
-2.895
.457
3.042
.458
5.446
.457
2.747
.458
-1.03
.457
-.932
.458
-1.472
.457
-3.238
.458
-1.963
.457
-.785
.458
3.336
.457
-2.011
.458
-1.913
.457
.441
.458
2.404
.457
3.336" aria-label="line"/>
</svg>
