<svg class="plot-d6a7b5" fill="currentColor" font-family="system-ui, sans-serif" font-size="10" text-anchor="middle" width="830" height="470" viewBox="0 0 830 470" xmlns="http://www.w3.org/2000/svg" xmlns:xlink="http://www.w3.org/1999/xlink" color="#1e90ff"><style>:where(.plot-d6a7b5){--plot-background: white;display:block;height:intrinsic;max-width:100%}:where(.plot-d6a7b5 text),:where(.plot-d6a7b5 tspan){white-space:pre}</style><g aria-label="y-grid" stroke="currentColor" stroke-opacity=".1"><line x1="60" x2="770" y1="410" y2="410"/><line x1="60" x2="770" y1="376.497" y2="376.497"/><line x1="60" x2="770" y1="342.995" y2="342.995"/><line x1="60" x2="770" y1="309.492" y2="309.492"/><line x1="60" x2="770" y1="275.989" y2="275.989"/><line x1="60" x2="770" y1="242.487" y2="242.487"/><line x1="60" x2="770" y1="208.984" y2="208.984"/><line x1="60" x2="770" y1="175.481" y2="175.481"/><line x1="60" x2="770" y1="141.978" y2="141.978"/><line x1="60" x2="770" y1="108.476" y2="108.476"/><line x1="60" x2="770" y1="74.973" y2="74.973"/></g><g aria-label="y-axis tick" fill="none" stroke="currentColor"><path transform="translate(60,410)" d="M0,0L-6,0"/><path transform="translate(60,376.49730255424566)" d="M0,0L-6,0"/><path transform="translate(60,342.9946051084913)" d="M0,0L-6,0"/><path transform="translate(60,309.49190766273693)" d="M0,0L-6,0"/><path transform="translate(60,275.98921021698266)" d="M0,0L-6,0"/><path transform="translate(60,242.4865127712283)" d="M0,0L-6,0"/><path transform="translate(60,208.98381532547393)" d="M0,0L-6,0"/><path transform="translate(60,175.48111787971956)" d="M0,0L-6,0"/><path transform="translate(60,141.97842043396525)" d="M0,0L-6,0"/><path transform="translate(60,108.47572298821089)" d="M0,0L-6,0"/><path transform="translate(60,74.97302554245653)" d="M0,0L-6,0"/></g><g aria-label="y-axis tick label" text-anchor="end" font-variant="tabular-nums"><text y=".32em" transform="translate(-9,0) translate(60,410)">0</text><text y=".32em" transform="translate(-9,0) translate(60,376.49730255424566)">50,000</text><text y=".32em" transform="translate(-9,0) translate(60,342.9946051084913)">100,000</text><text y=".32em" transform="translate(-9,0) translate(60,309.49190766273693)">150,000</text><text y=".32em" transform="translate(-9,0) translate(60,275.98921021698266)">200,000</text><text y=".32em" transform="translate(-9,0) translate(60,242.4865127712283)">250,000</text><text y=".32em" transform="translate(-9,0) translate(60,208.98381532547393)">300,000</text><text y=".32em" transform="translate(-9,0) translate(60,175.48111787971956)">350,000</text><text y=".32em" transform="translate(-9,0) translate(60,141.97842043396525)">400,000</text><text y=".32em" transform="translate(-9,0) translate(60,108.47572298821089)">450,000</text><text y=".32em" transform="translate(-9,0) translate(60,74.97302554245653)">500,000</text></g><g aria-label="y-axis label" text-anchor="start"><text y=".71em" transform="translate(-57,-57) translate(60,60)">↑ Total Vestiges</text></g><g aria-label="x-axis tick" fill="none" stroke="currentColor"><path transform="translate(64.9921875,410)" d="M0,0L0,6"/><path transform="translate(116.578125,410)" d="M0,0L0,6"/><path transform="translate(166.5,410)" d="M0,0L0,6"/><path transform="translate(218.0859375,410)" d="M0,0L0,6"/><path transform="translate(268.0078125,410)" d="M0,0L0,6"/><path transform="translate(319.59375,410)" d="M0,0L0,6"/><path transform="translate(371.1796875,410)" d="M0,0L0,6"/><path transform="translate(421.10156249999994,410)" d="M0,0L0,6"/><path transform="translate(472.68750000000006,410)" d="M0,0L0,6"/><path transform="translate(522.609375,410)" d="M0,0L0,6"/><path transform="translate(574.1953125,410)" d="M0,0L0,6"/><path transform="translate(625.78125,410)" d="M0,0L0,6"/><path transform="translate(674.0390625,410)" d="M0,0L0,6"/><path transform="translate(725.625,410)" d="M0,0L0,6"/></g><g aria-label="x-axis tick label" font-variant="tabular-nums"><text transform="translate(0,9) translate(64.9921875,410)"><tspan x="0" y=".71em">Mar</tspan><tspan x="0" dy="1em">2023</tspan></text><text y=".71em" transform="translate(0,9) translate(116.578125,410)">Apr</text><text y=".71em" transform="translate(0,9) translate(166.5,410)">May</text><text y=".71em" transform="translate(0,9) translate(218.0859375,410)">Jun</text><text y=".71em" transform="translate(0,9) translate(268.0078125,410)">Jul</text><text y=".71em" transform="translate(0,9) translate(319.59375,410)">Aug</text><text y=".71em" transform="translate(0,9) translate(371.1796875,410)">Sep</text><text y=".71em" transform="translate(0,9) translate(421.10156249999994,410)">Oct</text><text y=".71em" transform="translate(0,9) translate(472.68750000000006,410)">Nov</text><text y=".71em" transform="translate(0,9) translate(522.609375,410)">Dec</text><text transform="translate(0,9) translate(574.1953125,410)"><tspan x="0" y=".71em">Jan</tspan><tspan x="0" dy="1em">2024</tspan></text><text y=".71em" transform="translate(0,9) translate(625.78125,410)">Feb</text><text y=".71em" transform="translate(0,9) translate(674.0390625,410)">Mar</text><text y=".71em" transform="translate(0,9) translate(725.625,410)">Apr</text></g><g aria-label="line" fill="none" stroke="currentColor" stroke-width="1.5" stroke-linejoin="round" stroke-linecap="round"><path d="M60,410L61.109,409.664L62.219,408.433L63.328,407.77L64.438,407.3L65.547,406.524L66.656,405.913L67.766,405.34L68.875,404.181L69.984,403.263L71.094,402.174L72.203,400.488L73.313,398.898L74.422,398.072L75.531,396.878L76.641,396.066L77.75,395.136L78.859,393.92L79.969,393.101L81.078,392.299L82.188,391.209L83.297,390.001L84.406,389.145L85.516,387.685L86.625,386.994L87.734,386.348L88.844,385.185L89.953,384.07L91.063,383.213L92.172,382.017L93.281,380.825L94.391,379.74L95.5,378.057L96.609,376.722L97.719,375.949L98.828,375.144L99.938,374.537L101.047,374.048L102.156,373.139L103.266,372.251L104.375,371.631L105.484,370.197L106.594,368.699L107.703,367.356L108.813,365.73L109.922,364.627L111.031,363.687L112.141,362.407L113.25,361.337L114.359,360.561L115.469,359.165L116.578,357.815L117.688,356.555L118.797,354.749L119.906,353.035L121.016,352.143L122.125,350.819L123.234,349.625L124.344,348.555L125.453,347.04L126.563,345.617L127.672,344.381L128.781,342.895L129.891,341.47L131,340.243L132.109,338.593L133.219,337.578L134.328,336.662L135.438,335.384L136.547,334.338L137.656,333.556L138.766,332.548L139.875,331.461L140.984,330.447L142.094,329.117L143.203,327.799L144.313,327.048L145.422,326.005L146.531,325.191L147.641,324.656L148.75,323.827L149.859,323.002L150.969,322.126L152.078,320.993L153.188,319.84L154.297,318.94L155.406,317.694L156.516,316.819L157.625,316.247L158.734,314.935L159.844,314.028L160.953,313.536L162.063,312.714L163.172,311.922L164.281,311.096L165.391,309.962L166.5,308.976L167.609,308.126L168.719,307.388L169.828,306.733L170.938,306.105L172.047,305.076L173.156,304.49L174.266,303.894L175.375,302.927L176.484,301.831L177.594,300.972L178.703,299.866L179.813,299.121L180.922,298.429L182.031,297.426L183.141,296.739L184.25,296.086L185.359,295.214L186.469,294.532L187.578,293.707L188.688,292.834L189.797,292.042L190.906,291.385L192.016,290.697L193.125,290.096L194.234,289.53L195.344,288.732L196.453,288.125L197.563,287.578L198.672,286.675L199.781,285.501L200.891,284.644L202,283.53L203.109,282.863L204.219,282.099L205.328,281.309L206.438,280.588L207.547,280.082L208.656,279.077L209.766,278.289L210.875,277.46L211.984,276.257L213.094,275.371L214.203,274.596L215.313,273.805L216.422,272.941L217.531,272.272L218.641,271.618L219.75,270.752L220.859,270.241L221.969,269.563L223.078,268.952L224.188,268.377L225.297,267.567L226.406,266.982L227.516,266.372L228.625,265.555L229.734,264.972L230.844,264.432L231.953,263.849L233.063,263.161L234.172,262.515L235.281,261.841L236.391,261.11L237.5,260.536L238.609,259.834L239.719,259.244L240.828,258.657L241.937,257.843L243.047,257.165L244.156,256.631L245.266,255.928L246.375,255.261L247.484,254.779L248.594,253.95L249.703,253.317L250.813,252.665L251.922,251.941L253.031,251.325L254.141,250.958L255.25,250.286L256.359,249.738L257.469,249.085L258.578,248.309L259.688,247.695L260.797,247.018L261.906,246.274L263.016,245.596L264.125,245.001L265.234,244.03L266.344,243.242L267.453,242.787L268.563,242.062L269.672,241.415L270.781,241.026L271.891,240.338L273,239.893L274.109,239.364L275.219,238.721L276.328,238.122L277.438,237.649L278.547,236.9L279.656,236.351L280.766,235.854L281.875,235.157L282.984,234.531L284.094,234.038L285.203,233.282L286.313,232.801L287.422,232.254L288.531,231.561L289.641,230.997L290.75,230.357L291.859,229.625L292.969,228.984L294.078,228.438L295.188,227.812L296.297,227.077L297.406,226.501L298.516,225.961L299.625,225.39L300.734,224.955L301.844,224.21L302.953,223.744L304.063,223.216L305.172,222.554L306.281,222.027L307.391,221.387L308.5,220.534L309.609,219.892L310.719,219.513L311.828,218.642L312.938,218.001L314.047,217.432L315.156,216.637L316.266,216.099L317.375,215.522L318.484,214.857L319.594,214.182L320.703,213.6L321.813,212.738L322.922,212.075L324.031,211.49L325.141,210.782L326.25,210.002L327.359,209.205L328.469,208.032L329.578,207.315L330.688,206.775L331.797,206.044L332.906,205.457L334.016,205.03L335.125,204.366L336.234,203.781L337.344,203.371L338.453,202.702L339.563,202.093L340.672,201.651L341.781,200.945L342.891,200.284L344,199.781L345.109,199.12L346.219,198.293L347.328,197.596L348.438,196.726L349.547,196.11L350.656,195.515L351.766,194.635L352.875,193.974L353.984,193.361L355.094,192.624L356.203,192.015L357.313,191.607L358.422,191.017L359.531,190.572L360.641,190.083L361.75,189.491L362.859,188.896L363.969,188.345L365.078,187.795L366.188,187.228L367.297,186.747L368.406,186.213L369.516,185.684L370.625,185.237L371.734,184.721L372.844,184.19L373.953,183.616L375.063,182.929L376.172,182.438L377.281,181.908L378.391,181.353L379.5,180.945L380.609,180.509L381.719,180.053L382.828,179.774L383.938,179.432L385.047,178.652L386.156,178.112L387.266,177.606L388.375,176.919L389.484,176.632L390.594,176.247L391.703,175.884L392.813,175.595L393.922,175.157L395.031,174.711L396.141,174.199L397.25,173.662L398.359,172.804L399.469,172.077L400.578,171.686L401.688,171.159L402.797,170.797L403.906,170.36L405.016,169.857L406.125,169.405L407.234,169.046L408.344,168.495L409.453,167.89L410.563,167.442L411.672,166.833L412.781,166.524L413.891,166.219L415,165.812L416.109,165.427L417.219,165.085L418.328,164.528L419.438,164.063L420.547,163.589L421.656,162.948L422.766,162.467L423.875,162.213L424.984,161.74L426.094,161.393L427.203,161.08L428.313,160.686L429.422,160.3L430.531,159.855L431.641,159.27L432.75,158.644L433.859,158.016L434.969,157.363L436.078,156.892L437.188,156.533L438.297,156.087L439.406,155.715L440.516,155.312L441.625,154.77L442.734,154.407L443.844,154.067L444.953,153.31L446.062,152.662L447.172,152.264L448.281,151.852L449.391,151.557L450.5,151.324L451.609,150.831L452.719,150.505L453.828,150.18L454.938,149.548L456.047,148.868L457.156,148.357L458.266,147.665L459.375,147.299L460.484,146.962L461.594,146.384L462.703,146.01L463.813,145.654L464.922,145.148L466.031,144.608L467.141,144.262L468.25,143.689L469.359,143.321L470.469,143.084L471.578,142.575L472.688,142.233L473.797,142.025L474.906,141.712L476.016,141.391L477.125,140.855L478.234,140.222L479.344,139.586L480.453,139.163L481.563,138.745L482.672,138.502L483.781,138.135L484.891,137.705L486,137.468L487.109,137.22L488.219,136.795L489.328,136.536L490.437,136.178L491.547,135.786L492.656,135.435L493.766,135.207L494.875,134.892L495.984,134.72L497.094,134.484L498.203,134.164L499.313,133.948L500.422,133.804L501.531,133.301L502.641,132.806L503.75,132.322L504.859,131.841L505.969,131.472L507.078,131.243L508.188,130.872L509.297,130.641L510.406,130.317L511.516,129.845L512.625,129.46L513.734,129.123L514.844,128.618L515.953,128.26L517.063,127.913L518.172,127.504L519.281,127.168L520.391,126.788L521.5,126.226L522.609,125.892L523.719,125.579L524.828,125.251L525.938,124.872L527.047,124.499L528.156,124.087L529.266,123.849L530.375,123.701L531.484,123.349L532.594,123.054L533.703,122.826L534.813,122.552L535.922,122.291L537.031,122.087L538.141,121.764L539.25,121.469L540.359,121.303L541.469,120.921L542.578,120.561L543.688,120.405L544.797,120.179L545.906,120.001L547.016,119.805L548.125,119.431L549.234,119.056L550.344,118.782L551.453,118.527L552.563,118.263L553.672,117.932L554.781,117.673L555.891,117.485L557,117.263L558.109,116.896L559.219,116.666L560.328,116.386L561.438,115.919L562.547,115.542L563.656,115.348L564.766,115.046L565.875,114.652L566.984,114.341L568.094,113.939L569.203,113.633L570.313,113.29L571.422,112.887L572.531,112.576L573.641,112.285L574.75,111.915L575.859,111.599L576.969,111.31L578.078,110.858L579.188,110.587L580.297,110.377L581.406,109.94L582.516,109.785L583.625,109.52L584.734,109.092L585.844,108.87L586.953,108.613L588.063,108.292L589.172,108.098L590.281,107.899L591.391,107.698L592.5,107.551L593.609,107.277L594.719,106.903L595.828,106.558L596.938,106.137L598.047,105.635L599.156,105.406L600.266,105.133L601.375,104.87L602.484,104.506L603.594,104.101L604.703,103.797L605.813,103.578L606.922,103.222L608.031,102.794L609.141,102.195L610.25,101.823L611.359,101.366L612.469,101.103L613.578,100.861L614.688,100.536L615.797,100.397L616.906,100.192L618.016,99.674L619.125,99.105L620.234,98.688L621.344,98.108L622.453,97.786L623.563,97.512L624.672,97.181L625.781,96.857L626.891,96.581L628,96.147L629.109,95.888L630.219,95.456L631.328,94.812L632.438,94.36L633.547,94.034L634.656,93.55L635.766,93.227L636.875,92.991L637.984,92.494L639.094,92.093L640.203,91.646L641.313,91.206L642.422,90.692L643.531,90.008L644.641,89.265L645.75,88.859L646.859,88.437L647.969,87.821L649.078,87.403L650.188,87.09L651.297,86.686L652.406,86.345L653.516,86.001L654.625,85.449L655.734,84.967L656.844,84.768L657.953,84.338L659.063,83.969L660.172,83.544L661.281,83.125L662.391,82.874L663.5,82.506L664.609,81.956L665.719,81.448L666.828,81.109L667.938,80.589L669.047,80.328L670.156,79.994L671.266,79.618L672.375,79.373L673.484,79.082L674.594,78.696L675.703,78.389L676.813,78.079L677.922,77.506L679.031,77.186L680.141,76.912L681.25,76.667L682.359,76.438L683.469,76.134L684.578,75.849L685.688,75.675L686.797,75.459L687.906,74.996L689.016,74.706L690.125,74.486L691.234,74.054L692.344,73.753L693.453,73.626L694.563,73.367L695.672,73.021L696.781,72.763L697.891,72.41L699,72.027L700.109,71.661L701.219,71.095L702.328,70.703L703.438,70.451L704.547,70.406L705.656,70.401L706.766,70.398L707.875,70.395L708.984,70.39L710.094,70.384L711.203,70.377L712.313,70.347L713.422,70.324L714.531,70.31L715.641,70.274L716.75,70.214L717.859,70.173L718.969,70.119L720.078,70.015L721.188,69.875L722.297,69.522L723.406,69.284L724.516,69.06L725.625,68.859L726.734,68.668L727.844,68.448L728.953,68.169L730.063,67.918L731.172,67.621L732.281,67.313L733.391,67.04L734.5,66.709L735.609,66.456L736.719,66.263L737.828,65.984L738.938,65.684L740.047,65.554L741.156,65.359L742.266,65.07L743.375,64.907L744.484,64.737L745.594,64.484L746.703,64.282L747.813,63.988L748.922,63.741L750.031,63.593L751.141,63.37L752.25,63.175L753.359,62.99L754.469,62.863L755.578,62.704L756.688,62.61L757.797,62.44L758.906,62.261L760.016,62.033L761.125,61.711L762.234,61.508L763.344,61.376L764.453,61.093L765.563,60.878L766.672,60.683L767.781,60.479L768.891,60.196L770,60"/></g></svg>