<svg class="plot-d6a7b5" fill="currentColor" font-family="system-ui, sans-serif" font-size="10" text-anchor="middle" width="830" height="470" viewBox="0 0 830 470" xmlns="http://www.w3.org/2000/svg" xmlns:xlink="http://www.w3.org/1999/xlink" color="#1e90ff"><style>:where(.plot-d6a7b5){--plot-background: white;display:block;height:intrinsic;max-width:100%}:where(.plot-d6a7b5 text),:where(.plot-d6a7b5 tspan){white-space:pre}</style><g aria-label="y-grid" stroke="currentColor" stroke-opacity=".1"><line x1="60" x2="770" y1="410" y2="410"/><line x1="60" x2="770" y1="360.939" y2="360.939"/><line x1="60" x2="770" y1="311.878" y2="311.878"/><line x1="60" x2="770" y1="262.817" y2="262.817"/><line x1="60" x2="770" y1="213.757" y2="213.757"/><line x1="60" x2="770" y1="164.696" y2="164.696"/><line x1="60" x2="770" y1="115.635" y2="115.635"/><line x1="60" x2="770" y1="66.574" y2="66.574"/></g><g aria-label="y-axis tick" fill="none" stroke="currentColor"><path transform="translate(60,410)" d="M0,0L-6,0"/><path transform="translate(60,360.9391645640594)" d="M0,0L-6,0"/><path transform="translate(60,311.8783291281189)" d="M0,0L-6,0"/><path transform="translate(60,262.8174936921783)" d="M0,0L-6,0"/><path transform="translate(60,213.7566582562377)" d="M0,0L-6,0"/><path transform="translate(60,164.69582282029717)" d="M0,0L-6,0"/><path transform="translate(60,115.6349873843566)" d="M0,0L-6,0"/><path transform="translate(60,66.57415194841604)" d="M0,0L-6,0"/></g><g aria-label="y-axis tick label" text-anchor="end" font-variant="tabular-nums"><text y=".32em" transform="translate(-9,0) translate(60,410)">0</text><text y=".32em" transform="translate(-9,0) translate(60,360.9391645640594)">1,000</text><text y=".32em" transform="translate(-9,0) translate(60,311.8783291281189)">2,000</text><text y=".32em" transform="translate(-9,0) translate(60,262.8174936921783)">3,000</text><text y=".32em" transform="translate(-9,0) translate(60,213.7566582562377)">4,000</text><text y=".32em" transform="translate(-9,0) translate(60,164.69582282029717)">5,000</text><text y=".32em" transform="translate(-9,0) translate(60,115.6349873843566)">6,000</text><text y=".32em" transform="translate(-9,0) translate(60,66.57415194841604)">7,000</text></g><g aria-label="y-axis label" text-anchor="start"><text y=".71em" transform="translate(-57,-57) translate(60,60)">↑ Visible Vestiges (4 days)</text></g><g aria-label="x-axis tick" fill="none" stroke="currentColor"><path transform="translate(64.9921875,410)" d="M0,0L0,6"/><path transform="translate(116.578125,410)" d="M0,0L0,6"/><path transform="translate(166.5,410)" d="M0,0L0,6"/><path transform="translate(218.0859375,410)" d="M0,0L0,6"/><path transform="translate(268.0078125,410)" d="M0,0L0,6"/><path transform="translate(319.59375,410)" d="M0,0L0,6"/><path transform="translate(371.1796875,410)" d="M0,0L0,6"/><path transform="translate(421.10156249999994,410)" d="M0,0L0,6"/><path transform="translate(472.68750000000006,410)" d="M0,0L0,6"/><path transform="translate(522.609375,410)" d="M0,0L0,6"/><path transform="translate(574.1953125,410)" d="M0,0L0,6"/><path transform="translate(625.78125,410)" d="M0,0L0,6"/><path transform="translate(674.0390625,410)" d="M0,0L0,6"/><path transform="translate(725.625,410)" d="M0,0L0,6"/></g><g aria-label="x-axis tick label" font-variant="tabular-nums"><text transform="translate(0,9) translate(64.9921875,410)"><tspan x="0" y=".71em">Mar</tspan><tspan x="0" dy="1em">2023</tspan></text><text y=".71em" transform="translate(0,9) translate(116.578125,410)">Apr</text><text y=".71em" transform="translate(0,9) translate(166.5,410)">May</text><text y=".71em" transform="translate(0,9) translate(218.0859375,410)">Jun</text><text y=".71em" transform="translate(0,9) translate(268.0078125,410)">Jul</text><text y=".71em" transform="translate(0,9) translate(319.59375,410)">Aug</text><text y=".71em" transform="translate(0,9) translate(371.1796875,410)">Sep</text><text y=".71em" transform="translate(0,9) translate(421.10156249999994,410)">Oct</text><text y=".71em" transform="translate(0,9) translate(472.68750000000006,410)">Nov</text><text y=".71em" transform="translate(0,9) translate(522.609375,410)">Dec</text><text transform="translate(0,9) translate(574.1953125,410)"><tspan x="0" y=".71em">Jan</tspan><tspan x="0" dy="1em">2024</tspan></text><text y=".71em" transform="translate(0,9) translate(625.78125,410)">Feb</text><text y=".71em" transform="translate(0,9) translate(674.0390625,410)">Mar</text><text y=".71em" transform="translate(0,9) translate(725.625,410)">Apr</text></g><g aria-label="line" fill="none" stroke="currentColor" stroke-width="1.5" stroke-linejoin="round" stroke-linecap="round"><path d="M60,410L61.109,385.371L62.219,295.296L63.328,246.726L64.438,236.913L65.547,270.177L66.656,274.003L67.766,266.497L68.875,238.434L69.984,216.013L71.094,178.237L72.203,139.626L73.313,90.369L74.422,109.65L75.531,145.66L76.641,202.669L77.75,195.015L78.859,193.445L79.969,192.906L81.078,202.227L82.188,211.5L83.297,182.996L84.406,179.12L85.516,151.989L86.625,189.815L87.734,205.22L88.844,226.905L89.953,195.948L91.063,180.395L92.172,178.089L93.281,172.398L94.391,155.718L95.5,120.05L96.609,109.601L97.719,132.463L98.828,196.683L99.938,250.013L101.047,270.765L102.156,263.21L103.266,242.555L104.375,233.038L105.484,194.623L106.594,149.978L107.703,97.041L108.813,82.862L109.922,111.808L111.031,141.343L112.141,166.756L113.25,169.111L114.359,181.131L115.469,172.595L116.578,152.136L117.688,116.665L118.797,86.689L119.906,60L121.016,86.934L122.125,122.258L123.234,160.378L124.344,147.328L125.453,133.297L126.563,116.518L127.672,104.351L128.781,106.461L129.891,106.362L131,107.049L132.109,95.029L133.219,125.006L134.328,147.77L135.438,175.048L136.547,172.791L137.656,182.603L138.766,202.375L139.875,199.333L140.984,182.358L142.094,158.759L143.203,141.883L144.313,161.114L145.422,182.161L146.531,219.055L147.641,234.853L148.75,250.503L149.859,249.718L150.969,224.795L152.078,202.473L153.188,178.482L154.297,176.716L155.406,168.474L156.516,188.785L157.625,212.825L158.734,207.967L159.844,205.613L160.953,211.5L162.063,247.412L163.172,255.802L164.281,231.32L165.391,208.507L166.5,194.329L167.609,192.562L168.719,221.508L169.828,245.744L170.938,262.033L172.047,240.74L173.156,245.793L174.266,248.099L175.375,252.662L176.484,215.327L177.594,195.997L178.703,185.841L179.813,211.549L180.922,223.814L182.031,231.32L183.141,235.638L184.25,238.483L185.359,248.05L186.469,248.345L187.578,235.834L188.688,235.785L189.797,227.69L190.906,239.955L192.016,253.496L193.125,267.527L194.234,274.151L195.344,266.154L196.453,265.712L197.563,267.086L198.672,259.334L199.781,217.829L200.891,195.212L202,179.757L203.109,216.897L204.219,223.618L205.328,247.412L206.438,243.438L207.547,262.327L208.656,246.578L209.766,241.623L210.875,218.025L211.984,203.454L213.094,196.34L214.203,200.314L215.313,230.486L216.422,232.105L217.531,239.857L218.641,249.865L219.75,249.718L220.859,261.297L221.969,259.579L223.078,278.174L224.188,273.464L225.297,263.799L226.406,265.761L227.516,263.21L228.625,262.719L229.734,262.817L230.844,267.969L231.953,285.042L233.063,277.438L234.172,269.637L235.281,263.014L236.391,259.825L237.5,265.123L238.609,263.063L239.719,273.366L240.828,272.384L241.937,264.191L243.047,257.813L244.156,261.64L245.266,269.833L246.375,270.569L247.484,274.396L248.594,265.123L249.703,267.675L250.813,255.262L251.922,262.916L253.031,264.093L254.141,284.993L255.25,288.82L256.359,293.824L257.469,272.875L258.578,265.271L259.688,260.414L260.797,258.647L261.906,260.953L263.016,256.292L264.125,262.278L265.234,245.744L266.344,237.649L267.453,247.952L268.563,265.859L269.672,276.26L270.781,281.068L271.891,283.766L273,298.534L274.109,288.28L275.219,291.665L276.328,280.381L277.438,284.404L278.547,276.604L279.656,280.283L280.766,278.615L281.875,282.442L282.984,276.751L284.094,276.996L285.203,272.679L286.313,283.325L287.422,279.4L288.531,283.963L289.641,277.928L290.75,271.109L291.859,268.263L292.969,262.572L294.078,269.49L295.188,277.29L296.297,270.373L297.406,268.165L298.516,274.445L299.625,286.514L300.734,296.817L301.844,281.804L302.953,289.458L304.063,282.687L305.172,288.771L306.281,284.306L307.391,276.015L308.5,262.082L309.609,253.643L310.719,272.826L311.828,271.452L312.938,271.599L314.047,257.617L315.156,263.161L316.266,270.716L317.375,270.177L318.484,279.694L319.594,269.637L320.703,269.244L321.813,254.87L322.922,255.704L324.031,255.556L325.141,266.791L326.25,258.255L327.359,242.653L328.469,208.605L329.578,213.266L330.688,232.105L331.797,264.486L332.906,273.905L334.016,282.246L335.125,287.152L336.234,287.299L337.344,288.476L338.453,288.133L339.563,286.416L340.672,284.11L341.781,281.313L342.891,277.536L344,273.071L345.109,276.407L346.219,264.24L347.328,249.964L348.438,234.706L349.547,250.16L350.656,257.666L351.766,256.881L352.875,253.594L353.984,252.269L355.094,262.817L356.203,266.546L357.313,281.559L358.422,292.303L359.531,304.372L360.641,298.436L361.75,298.239L362.859,287.25L363.969,282.785L365.078,285.876L366.188,287.888L367.297,292.941L368.406,294.118L369.516,296.964L370.625,299.466L371.734,300.791L372.844,300.594L373.953,291.322L375.063,278.762L376.172,281.755L377.281,284.944L378.391,294.609L379.5,300.692L380.609,307.512L381.719,314.822L382.828,324.242L383.938,331.208L385.047,307.463L386.156,288.329L387.266,276.26L388.375,283.08L389.484,301.576L390.594,310.505L391.703,334.25L392.813,334.103L393.922,330.227L395.031,324.094L396.141,307.806L397.25,300.496L398.359,270.373L399.469,254.575L400.578,265.32L401.688,289.556L402.797,316.294L403.906,312.909L405.016,314.626L406.125,308.101L407.234,313.792L408.344,310.308L409.453,299.073L410.563,292.597L411.672,288.329L412.781,309.965L413.891,320.415L415,335.182L416.109,329.687L417.219,326.94L418.328,315.999L419.438,310.161L420.547,300.496L421.656,294.315L422.766,293.137L423.875,309.229L424.984,321.592L426.094,331.306L427.203,327.087L428.313,332.827L429.422,329.982L430.531,320.268L431.641,306.285L432.75,288.771L433.859,275.377L434.969,270.373L436.078,281.706L437.188,301.379L438.297,316.588L439.406,323.8L440.516,320.611L441.625,313.595L442.734,314.282L443.844,318.845L444.953,303.047L446.062,282.246L447.172,277.977L448.281,303.293L449.391,329.05L450.5,341.168L451.609,335.231L452.719,332.974L453.828,326.253L454.938,316.049L456.047,290.144L457.156,276.555L458.266,272.139L459.375,295.1L460.484,307.855L461.594,316.196L462.703,315.656L463.813,314.233L464.922,319.483L466.031,307.316L467.141,308.052L468.25,303.195L469.359,315.803L470.469,323.751L471.578,328.412L472.688,330.325L473.797,332.484L474.906,346.81L476.016,348.38L477.125,324.291L478.234,300.938L479.344,277.83L480.453,286.121L481.563,301.821L482.672,330.571L483.781,334.741L484.891,333.858L486,334.299L487.109,342.983L488.219,343.375L489.328,341.756L490.437,333.71L491.547,336.163L492.656,329.442L493.766,338.911L494.875,344.504L495.984,357.603L497.094,357.063L498.203,356.72L499.313,353.531L500.422,360.203L501.531,346.761L502.641,326.351L503.75,301.526L504.859,303.096L505.969,312.32L507.078,331.012L508.188,339.058L509.297,349.165L510.406,342.198L511.516,334.839L512.625,323.555L513.734,322.525L514.844,320.17L515.953,322.083L517.063,321.396L518.172,328.412L519.281,330.08L520.391,327.627L521.5,316.441L522.609,316.588L523.719,321.494L524.828,338.567L525.938,335.28L527.047,330.914L528.156,324.83L529.266,335.133L530.375,351.618L531.484,355.935L532.594,351.765L533.703,345.927L534.813,351.618L535.922,354.12L537.031,355.837L538.141,352.354L539.25,349.802L540.359,352.599L541.469,348.281L542.578,343.523L543.688,344.258L544.797,355.641L545.906,369.034L547.016,366.091L548.125,355.248L549.234,340.775L550.344,335.133L551.453,343.768L552.563,351.961L553.672,347.742L554.781,347.496L555.891,353.04L557,361.037L558.109,353.089L559.219,349.999L560.328,345.779L561.438,338.518L562.547,327.725L563.656,334.005L564.766,346.025L565.875,344.847L566.984,336.213L568.094,328.951L569.203,335.378L570.313,333.073L571.422,333.024L572.531,332.631L573.641,336.409L574.75,338.813L575.859,338.42L576.969,338.616L578.078,332.582L579.188,335.918L580.297,341.707L581.406,342.787L582.516,351.274L583.625,347.251L584.734,347.938L585.844,343.032L586.953,343.572L588.063,351.421L589.172,353.433L590.281,357.701L591.391,366.483L592.5,369.966L593.609,364.472L594.719,351.814L595.828,337.292L596.938,326.548L598.047,317.177L599.156,325.615L600.266,336.507L601.375,353.973L602.484,344.16L603.594,334.397L604.703,331.454L605.813,342.051L606.922,345.632L608.031,336.507L609.141,308.689L610.25,307.561L611.359,305.5L612.469,330.08L613.578,339.598L614.688,349.214L615.797,358.29L616.906,360.988L618.016,346.859L619.125,315.411L620.234,299.907L621.344,295.345L622.453,313.399L623.563,323.849L624.672,342.149L625.781,342.002L626.891,341.854L628,334.25L629.109,339.058L630.219,327.627L631.328,312.271L632.438,298.141L633.547,305.893L634.656,317.569L635.766,327.038L636.875,333.661L637.984,332.68L639.094,326.94L640.203,311.486L641.313,315.705L642.422,307.463L643.531,290.095L644.641,267.871L645.75,275.77L646.859,294.952L647.969,304.323L649.078,303.342L650.188,311.339L651.297,326.891L652.406,332.533L653.516,330.276L654.625,319.434L655.734,309.131L656.844,319.728L657.953,328.608L659.063,336.948L660.172,320.366L661.281,321.2L662.391,329.835L663.5,334.005L664.609,324.389L665.719,305.549L666.828,307.708L667.938,309.916L669.047,328.019L670.156,328.412L671.266,338.911L672.375,340.039L673.484,343.179L674.594,342.492L675.703,337.979L676.813,336.605L677.922,322.868L679.031,321.887L680.141,324.536L681.25,348.576L682.359,355.248L683.469,352.991L684.578,350.146L685.688,354.169L686.797,360.596L687.906,347.546L689.016,339.058L690.125,338.764L691.234,341.02L692.344,340.186L693.453,347.006L694.563,359.664L695.672,356.426L696.781,346.81L697.891,339.941L699,337.194L700.109,329.344L701.219,313.743L702.328,313.105L703.438,321.396L704.547,359.516L705.656,387.825L706.766,406.124L707.875,409.166L708.984,409.215L710.094,408.97L711.203,408.724L712.313,406.86L713.422,405.634L714.531,405.094L715.641,404.652L716.75,401.954L717.859,399.943L718.969,398.667L720.078,395.38L721.188,388.168L722.297,366.287L723.406,356.475L724.516,350.391L725.625,361.479L726.734,364.913L727.844,365.158L728.953,359.418L730.063,355.101L731.172,349.459L732.281,347.349L733.391,345.73L734.5,343.179L735.609,347.251L736.719,353.089L737.828,356.916L738.938,353.482L740.047,358.094L741.156,364.275L742.266,365.06L743.375,362.656L744.484,364.472L745.594,367.072L746.703,364.226L747.813,355.15L748.922,355.592L750.031,359.565L751.141,364.717L752.25,368.544L753.359,365.845L754.469,372.91L755.578,375.559L756.688,382.133L757.797,379.043L758.906,377.522L760.016,367.759L761.125,356.622L762.234,354.856L763.344,361.871L764.453,364.717L765.563,363.883L766.672,359.271L767.781,365.06L768.891,360.056L770,360.007"/></g></svg>