<svg class="plot-d6a7b5" fill="currentColor" font-family="system-ui, sans-serif" font-size="10" text-anchor="middle" width="830" height="470" xmlns="http://www.w3.org/2000/svg" color="#1e90ff"><style>:where(.plot-d6a7b5){--plot-background: white;display:block;height:intrinsic;max-width:100%}:where(.plot-d6a7b5 text),:where(.plot-d6a7b5 tspan){white-space:pre}</style><path d="M60 410h710M60 360.939h710M60 311.878h710M60 262.817h710m-710-49.06h710M60 164.696h710M60 115.635h710M60 66.574h710" aria-label="y-grid" stroke="currentColor" stroke-opacity=".1"/><path d="M60 410h-6m6-49.06h-6m6-49.062h-6m6-49.061h-6m6-49.06h-6m6-49.061h-6m6-49.061h-6m6-49.061h-6" aria-label="y-axis tick" fill="none" stroke="currentColor"/><g aria-label="y-axis tick label" text-anchor="end" font-variant="tabular-nums"><text y=".32em" transform="translate(51 410)">0</text><text y=".32em" transform="translate(51 360.94)">1,000</text><text y=".32em" transform="translate(51 311.878)">2,000</text><text y=".32em" transform="translate(51 262.817)">3,000</text><text y=".32em" transform="translate(51 213.757)">4,000</text><text y=".32em" transform="translate(51 164.696)">5,000</text><text y=".32em" transform="translate(51 115.635)">6,000</text><text y=".32em" transform="translate(51 66.574)">7,000</text></g><text y=".71em" transform="translate(3 3)" aria-label="y-axis label" text-anchor="start">↑ Visible Vestiges (4 days)</text><path d="M65.299 410v6m54.751-6v6m52.985-6v6m54.751-6v6m52.985-6v6m54.751-6v6m54.752-6v6m52.985-6v6m54.751-6v6m52.985-6v6m54.751-6v6m54.752-6v6m51.218-6v6m54.752-6v6" aria-label="x-axis tick" fill="none" stroke="currentColor"/><g aria-label="x-axis tick label" font-variant="tabular-nums"><text transform="translate(65.299 419)"><tspan x="0" y=".71em">Mar</tspan><tspan x="0" dy="1em">2023</tspan></text><text y=".71em" transform="translate(120.05 419)">Apr</text><text y=".71em" transform="translate(173.035 419)">May</text><text y=".71em" transform="translate(227.786 419)">Jun</text><text y=".71em" transform="translate(280.771 419)">Jul</text><text y=".71em" transform="translate(335.522 419)">Aug</text><text y=".71em" transform="translate(390.274 419)">Sep</text><text y=".71em" transform="translate(443.259 419)">Oct</text><text y=".71em" transform="translate(498.01 419)">Nov</text><text y=".71em" transform="translate(550.995 419)">Dec</text><text transform="translate(605.746 419)"><tspan x="0" y=".71em">Jan</tspan><tspan x="0" dy="1em">2024</tspan></text><text y=".71em" transform="translate(660.498 419)">Feb</text><text y=".71em" transform="translate(711.716 419)">Mar</text><text y=".71em" transform="translate(766.468 419)">Apr</text></g><path d="M60 410l1.177-24.629 1.178-90.075 1.177-48.57 1.178-9.813 1.177 33.264 1.178 3.826 1.177-7.506 1.178-28.063 1.177-22.421 1.177-37.776 1.178-38.611 1.177-49.257 1.178 19.281 1.177 36.01 1.178 57.009 1.177-7.654 1.178-1.57 1.177-.539 1.177 9.321 1.178 9.273 1.177-28.504 1.178-3.876 1.177-27.131 1.178 37.826 1.177 15.405 1.178 21.685 1.177-30.957 1.177-15.553 1.178-2.306 1.177-5.691 1.178-16.68 1.177-35.668 1.178-10.449 1.177 22.862 1.178 64.22 1.177 53.33 1.178 20.752 1.177-7.555 1.177-20.655 1.178-9.517 1.177-38.415 1.178-44.645 1.177-52.937 1.178-14.179 1.177 28.946 1.178 29.535 1.177 25.413 1.177 2.355 1.178 12.02 1.177-8.536 1.178-20.459 1.177-35.471 1.178-29.976L123.582 60l1.178 26.934 1.177 35.324 1.177 38.12 1.178-13.05 1.177-14.031 1.178-16.779 1.177-12.167 1.178 2.11 1.177-.099 1.178.687 1.177-12.02 1.177 29.977 1.178 22.764 1.177 27.278 1.178-2.257 1.177 9.812 1.178 19.772 1.177-3.042 1.178-16.975 1.177-23.599 1.177-16.876 1.178 19.231 1.177 21.047 1.178 36.894 1.177 15.798 1.178 15.65 1.177-.785 1.178-24.923 1.177-22.322 1.177-23.991 1.178-1.766 1.177-8.242 1.178 20.311 1.177 24.04 1.178-4.858 1.177-2.354 1.178 5.887 1.177 35.912 1.177 8.39 1.178-24.482 1.177-22.813 1.178-14.178 1.177-1.767 1.178 28.946 1.177 24.236 1.178 16.289 1.177-21.293 1.178 5.053 1.177 2.306 1.177 4.563 1.178-37.335 1.177-19.33 1.178-10.156 1.177 25.708 1.178 12.265 1.177 7.506 1.178 4.318 1.177 2.845 1.177 9.567 1.178.295 1.177-12.511 1.178-.049 1.177-8.095 1.178 12.265 1.177 13.541 1.178 14.031 1.177 6.624 1.177-7.997 1.178-.442 1.177 1.374 1.178-7.752 1.177-41.505 1.178-22.617 1.177-15.455 1.178 37.14 1.177 6.721 1.177 23.794 1.178-3.974 1.177 18.889 1.178-15.749 1.177-4.955 1.178-23.598 1.177-14.571 1.178-7.114 1.177 3.974 1.177 30.172 1.178 1.619 1.177 7.752 1.178 10.008 1.177-.147 1.178 11.579 1.177-1.718 1.178 18.595 1.177-4.71 1.177-9.665 1.178 1.962 1.177-2.551 1.178-.491 1.177.098 1.178 5.152 1.177 17.073 1.178-7.604 1.177-7.801 1.177-6.623 1.178-3.189 1.177 5.298 1.178-2.06 1.177 10.303 1.178-.982 1.177-8.193 1.178-6.378 1.177 3.827 1.177 8.193 1.178.736 1.177 3.827 1.178-9.273 1.177 2.552 1.178-12.413 1.177 7.654 1.178 1.177 1.177 20.9 1.178 3.827 1.177 5.004 1.177-20.949 1.178-7.604 1.177-4.857 1.178-1.767 1.177 2.306 1.178-4.661 1.177 5.986 1.178-16.534 1.177-8.095 1.177 10.303 1.178 17.907 1.177 10.401 1.178 4.808 1.177 2.698 1.178 14.768 1.177-10.254 1.178 3.385 1.177-11.284 1.177 4.023 1.178-7.8 1.177 3.679 1.178-1.668 1.177 3.827 1.178-5.691 1.177.245 1.178-4.317 1.177 10.646 1.177-3.925 1.178 4.563 1.177-6.035 1.178-6.819 1.177-2.846 1.178-5.691 1.177 6.918 1.178 7.8 1.177-6.917 1.177-2.208 1.178 6.28 1.177 12.069 1.178 10.303 1.177-15.013 1.178 7.654 1.177-6.771 1.178 6.084 1.177-4.465 1.177-8.291 1.178-13.933 1.177-8.439 1.178 19.183 1.177-1.374 1.178.147 1.177-13.982 1.178 5.544 1.177 7.555 1.177-.539 1.178 9.517 1.177-10.057 1.178-.393 1.177-14.374 1.178.834 1.177-.148 1.178 11.235 1.177-8.536 1.178-15.602 1.177-34.048 1.177 4.661 1.178 18.839 1.177 32.381 1.178 9.419 1.177 8.341 1.178 4.906 1.177.147 1.178 1.177 1.177-.343 1.177-1.717 1.178-2.306 1.177-2.797 1.178-3.777 1.177-4.465 1.178 3.336 1.177-12.167 1.178-14.276 1.177-15.258 1.177 15.454 1.178 7.506 1.177-.785 1.178-3.287 1.177-1.325 1.178 10.548 1.177 3.729 1.178 15.013 1.177 10.744 1.177 12.069 1.178-5.936 1.177-.197 1.178-10.989 1.177-4.465 1.178 3.091 1.177 2.012 1.178 5.053 1.177 1.177 1.177 2.846 1.178 2.502 1.177 1.325 1.178-.197 1.177-9.272 1.178-12.56 1.177 2.993 1.178 3.189 1.177 9.665 1.177 6.083 1.178 6.82 1.177 7.31 1.178 9.42 1.177 6.966 1.178-23.745 1.177-19.134 1.178-12.069 1.177 6.82 1.177 18.496 1.178 8.929 1.177 23.745 1.178-.147 1.177-3.876 1.178-6.133 1.177-16.288 1.178-7.31 1.177-30.123 1.178-15.798 1.177 10.745 1.177 24.236 1.178 26.738 1.177-3.385 1.178 1.717 1.177-6.525 1.178 5.691 1.177-3.484 1.178-11.235 1.177-6.476 1.177-4.268 1.178 21.636 1.177 10.45 1.178 14.767 1.177-5.495 1.178-2.747 1.177-10.941 1.178-5.838 1.177-9.665 1.177-6.181 1.178-1.178 1.177 16.092 1.178 12.363 1.177 9.714 1.178-4.219 1.177 5.74 1.178-2.845 1.177-9.714 1.177-13.983 1.178-17.514 1.177-13.394 1.178-5.004 1.177 11.333 1.178 19.673 1.177 15.209 1.178 7.212 1.177-3.189 1.177-7.016 1.178.687 1.177 4.563 1.178-15.798 1.177-20.801 1.178-4.269 1.177 25.316 1.178 25.757 1.177 12.118 1.177-5.937 1.178-2.257 1.177-6.721 1.178-10.204 1.177-25.905 1.178-13.589 1.177-4.416 1.178 22.961 1.177 12.755 1.177 8.341 1.178-.54 1.177-1.423 1.178 5.25 1.177-12.167 1.178.736 1.177-4.857 1.178 12.608 1.177 7.948 1.178 4.661 1.177 1.913 1.177 2.159 1.178 14.326 1.177 1.57 1.178-24.089 1.177-23.353 1.178-23.108 1.177 8.291 1.178 15.7 1.177 28.75 1.177 4.17 1.178-.883 1.177.441 1.178 8.684 1.177.392 1.178-1.619 1.177-8.046 1.178 2.453 1.177-6.721 1.177 9.469 1.178 5.593 1.177 13.099 1.178-.54 1.177-.343 1.178-3.189 1.177 6.672 1.178-13.442 1.177-20.41 1.177-24.825 1.178 1.57 1.177 9.224 1.178 18.692 1.177 8.046 1.178 10.107 1.177-6.967 1.178-7.359 1.177-11.284 1.177-1.03 1.178-2.355 1.177 1.913 1.178-.687 1.177 7.016 1.178 1.668 1.177-2.453 1.178-11.186 1.177.147 1.177 4.906 1.178 17.073 1.177-3.287 1.178-4.366 1.177-6.084 1.178 10.303 1.177 16.485 1.178 4.317 1.177-4.17 1.177-5.838 1.178 5.691 1.177 2.502 1.178 1.717 1.177-3.483 1.178-2.552 1.177 2.797 1.178-4.318 1.177-4.758 1.178.735 1.177 11.383 1.177 13.393 1.178-2.943 1.177-10.843 1.178-14.473 1.177-5.642 1.178 8.635 1.177 8.193 1.178-4.219 1.177-.246 1.177 5.544 1.178 7.997 1.177-7.948 1.178-3.09 1.177-4.22 1.178-7.261 1.177-10.793 1.178 6.28 1.177 12.02 1.177-1.178 1.178-8.634 1.177-7.262 1.178 6.427 1.177-2.305 1.178-.049 1.177-.393 1.178 3.778 1.177 2.404 1.177-.393 1.178.196 1.177-6.034 1.178 3.336 1.177 5.789 1.178 1.08 1.177 8.487 1.178-4.023 1.177.687 1.177-4.906 1.178.54 1.177 7.849 1.178 2.012 1.177 4.268 1.178 8.782 1.177 3.483 1.178-5.494 1.177-12.658 1.177-14.522 1.178-10.744 1.177-9.371 1.178 8.438 1.177 10.892 1.178 17.466 1.177-9.813 1.178-9.763 1.177-2.943 1.177 10.597 1.178 3.581 1.177-9.125 1.178-27.818 1.177-1.128 1.178-2.061 1.177 24.58 1.178 9.518 1.177 9.616 1.177 9.076 1.178 2.698 1.177-14.129 1.178-31.448 1.177-15.504 1.178-4.562 1.177 18.054 1.178 10.45 1.177 18.3 1.178-.147 1.177-.148 1.177-7.604 1.178 4.808 1.177-11.431 1.178-15.356 1.177-14.13 1.178 7.752 1.177 11.676 1.178 9.469 1.177 6.623 1.177-.981 1.178-5.74 1.177-15.454 1.178 4.219 1.177-8.242 1.178-17.368 1.177-22.224 1.178 7.899 1.177 19.182 1.177 9.371 1.178-.981 1.177 7.997 1.178 15.552 1.177 5.642 1.178-2.257 1.177-10.842 1.178-10.303 1.177 10.597 1.177 8.88 1.178 8.34 1.177-16.582 1.178.834 1.177 8.635 1.178 4.17 1.177-9.616 1.178-18.84 1.177 2.159 1.177 2.208 1.178 18.103 1.177.393 1.178 10.499 1.177 1.128 1.178 3.14 1.177-.687 1.178-4.513 1.177-1.374 1.177-13.737 1.178-.981 1.177 2.649 1.178 24.04 1.177 6.672 1.178-2.257 1.177-2.845 1.178 4.023 1.177 6.427 1.177-13.05 1.178-8.488 1.177-.294 1.178 2.256 1.177-.834 1.178 6.82 1.177 12.658 1.178-3.238 1.177-9.616 1.178-6.869 1.177-2.747 1.177-7.85 1.178-15.601 1.177-.638 1.178 8.291 1.177 38.12 1.178 28.309 1.177 18.299 1.178 3.042 1.177.049 1.177-.245 1.178-.246 1.177-1.864 1.178-1.226 1.177-.54 1.178-.442 1.177-2.698 1.178-2.011 1.177-1.276 1.177-3.287 1.178-7.212 1.177-21.881 1.178-9.812 1.177-6.084 1.178 11.088 1.177 3.434 1.178.245 1.177-5.74" aria-label="line" fill="none" stroke="currentColor" stroke-width="1.5" stroke-linejoin="round" stroke-linecap="round"/></svg>