<?xml version="1.0"?>
<svg xmlns="http://www.w3.org/2000/svg" xmlns:xlink="http://www.w3.org/1999/xlink" class="plot-d6a7b5" fill="currentColor" font-family="system-ui, sans-serif" font-size="10" text-anchor="middle" width="830" height="470" viewBox="0 0 830 470" color="#1e90ff">
  <style>:where(.plot-d6a7b5){--plot-background: white;display:block;height:intrinsic;max-width:100%}:where(.plot-d6a7b5 text),:where(.plot-d6a7b5 tspan){white-space:pre}</style>
  <g aria-label="y-grid" stroke="currentColor" stroke-opacity=".1">
    <line x1="60" x2="770" y1="410" y2="410"/>
    <line x1="60" x2="770" y1="360.939" y2="360.939"/>
    <line x1="60" x2="770" y1="311.878" y2="311.878"/>
    <line x1="60" x2="770" y1="262.817" y2="262.817"/>
    <line x1="60" x2="770" y1="213.757" y2="213.757"/>
    <line x1="60" x2="770" y1="164.696" y2="164.696"/>
    <line x1="60" x2="770" y1="115.635" y2="115.635"/>
    <line x1="60" x2="770" y1="66.574" y2="66.574"/>
  </g>
  <g aria-label="y-axis tick" fill="none" stroke="currentColor">
    <path transform="translate(60,410)" d="M0,0L-6,0"/>
    <path transform="translate(60,360.9391645640594)" d="M0,0L-6,0"/>
    <path transform="translate(60,311.8783291281189)" d="M0,0L-6,0"/>
    <path transform="translate(60,262.8174936921783)" d="M0,0L-6,0"/>
    <path transform="translate(60,213.7566582562377)" d="M0,0L-6,0"/>
    <path transform="translate(60,164.69582282029717)" d="M0,0L-6,0"/>
    <path transform="translate(60,115.6349873843566)" d="M0,0L-6,0"/>
    <path transform="translate(60,66.57415194841604)" d="M0,0L-6,0"/>
  </g>
  <g aria-label="y-axis tick label" text-anchor="end" font-variant="tabular-nums">
    <text y=".32em" transform="translate(-9,0) translate(60,410)">0</text>
    <text y=".32em" transform="translate(-9,0) translate(60,360.9391645640594)">1,000</text>
    <text y=".32em" transform="translate(-9,0) translate(60,311.8783291281189)">2,000</text>
    <text y=".32em" transform="translate(-9,0) translate(60,262.8174936921783)">3,000</text>
    <text y=".32em" transform="translate(-9,0) translate(60,213.7566582562377)">4,000</text>
    <text y=".32em" transform="translate(-9,0) translate(60,164.69582282029717)">5,000</text>
    <text y=".32em" transform="translate(-9,0) translate(60,115.6349873843566)">6,000</text>
    <text y=".32em" transform="translate(-9,0) translate(60,66.57415194841604)">7,000</text>
  </g>
  <g aria-label="y-axis label" text-anchor="start">
    <text y=".71em" transform="translate(-57,-57) translate(60,60)">&#x2191; Visible Vestiges (4 days)</text>
  </g>
  <g aria-label="x-axis tick" fill="none" stroke="currentColor">
    <path transform="translate(86.05035971223022,410)" d="M0,0L0,6"/>
    <path transform="translate(155.77338129496403,410)" d="M0,0L0,6"/>
    <path transform="translate(226.26258992805757,410)" d="M0,0L0,6"/>
    <path transform="translate(296.7517985611511,410)" d="M0,0L0,6"/>
    <path transform="translate(366.4748201438849,410)" d="M0,0L0,6"/>
    <path transform="translate(436.19784172661866,410)" d="M0,0L0,6"/>
    <path transform="translate(506.6870503597122,410)" d="M0,0L0,6"/>
    <path transform="translate(577.1762589928059,410)" d="M0,0L0,6"/>
    <path transform="translate(646.1330935251799,410)" d="M0,0L0,6"/>
    <path transform="translate(715.8561151079136,410)" d="M0,0L0,6"/>
  </g>
  <g aria-label="x-axis tick label" font-variant="tabular-nums">
    <text transform="translate(0,9) translate(86.05035971223022,410)">
      <tspan x="0" y=".71em">Apr</tspan>
      <tspan x="0" dy="1em">2023</tspan>
    </text>
    <text y=".71em" transform="translate(0,9) translate(155.77338129496403,410)">Jul</text>
    <text y=".71em" transform="translate(0,9) translate(226.26258992805757,410)">Oct</text>
    <text transform="translate(0,9) translate(296.7517985611511,410)">
      <tspan x="0" y=".71em">Jan</tspan>
      <tspan x="0" dy="1em">2024</tspan>
    </text>
    <text y=".71em" transform="translate(0,9) translate(366.4748201438849,410)">Apr</text>
    <text y=".71em" transform="translate(0,9) translate(436.19784172661866,410)">Jul</text>
    <text y=".71em" transform="translate(0,9) translate(506.6870503597122,410)">Oct</text>
    <text transform="translate(0,9) translate(577.1762589928059,410)">
      <tspan x="0" y=".71em">Jan</tspan>
      <tspan x="0" dy="1em">2025</tspan>
    </text>
    <text y=".71em" transform="translate(0,9) translate(646.1330935251799,410)">Apr</text>
    <text y=".71em" transform="translate(0,9) translate(715.8561151079136,410)">Jul</text>
  </g>
  <g aria-label="line" fill="none" stroke="currentColor" stroke-width="1.5" stroke-linejoin="round" stroke-linecap="round">
    <path d="M60,
410L60.511,
385.371L61.022,
295.296L61.532,
246.726L62.043,
236.913L62.554,
270.177L63.065,
274.003L63.576,
266.497L64.086,
238.434L64.597,
216.013L65.108,
178.237L65.619,
139.626L66.129,
90.369L66.64,
109.65L67.151,
145.66L67.662,
202.669L68.173,
195.015L68.683,
193.445L69.194,
192.906L69.705,
202.227L70.216,
211.5L70.727,
182.996L71.237,
179.12L71.748,
151.989L72.259,
189.815L72.77,
205.22L73.281,
226.905L73.791,
195.948L74.302,
180.395L74.813,
178.089L75.324,
172.398L75.835,
155.718L76.345,
120.05L76.856,
109.601L77.367,
132.463L77.878,
196.683L78.388,
250.013L78.899,
270.765L79.41,
263.21L79.921,
242.555L80.432,
233.038L80.942,
194.623L81.453,
149.978L81.964,
97.041L82.475,
82.862L82.986,
111.808L83.496,
141.343L84.007,
166.756L84.518,
169.111L85.029,
181.131L85.54,
172.595L86.05,
152.136L86.561,
116.665L87.072,
86.689L87.583,
60L88.094,
86.934L88.604,
122.258L89.115,
160.378L89.626,
147.328L90.137,
133.297L90.647,
116.518L91.158,
104.351L91.669,
106.461L92.18,
106.362L92.691,
107.049L93.201,
95.029L93.712,
125.006L94.223,
147.77L94.734,
175.048L95.245,
172.791L95.755,
182.603L96.266,
202.375L96.777,
199.333L97.288,
182.358L97.799,
158.759L98.309,
141.883L98.82,
161.114L99.331,
182.161L99.842,
219.055L100.353,
234.853L100.863,
250.503L101.374,
249.718L101.885,
224.795L102.396,
202.473L102.906,
178.482L103.417,
176.716L103.928,
168.474L104.439,
188.785L104.95,
212.825L105.46,
207.967L105.971,
205.613L106.482,
211.5L106.993,
247.412L107.504,
255.802L108.014,
231.32L108.525,
208.507L109.036,
194.329L109.547,
192.562L110.058,
221.508L110.568,
245.744L111.079,
262.033L111.59,
240.74L112.101,
245.793L112.612,
248.099L113.122,
252.662L113.633,
215.327L114.144,
195.997L114.655,
185.841L115.165,
211.549L115.676,
223.814L116.187,
231.32L116.698,
235.638L117.209,
238.483L117.719,
248.05L118.23,
248.345L118.741,
235.834L119.252,
235.785L119.763,
227.69L120.273,
239.955L120.784,
253.496L121.295,
267.527L121.806,
274.151L122.317,
266.154L122.827,
265.712L123.338,
267.086L123.849,
259.334L124.36,
217.829L124.871,
195.212L125.381,
179.757L125.892,
216.897L126.403,
223.618L126.914,
247.412L127.424,
243.438L127.935,
262.327L128.446,
246.578L128.957,
241.623L129.468,
218.025L129.978,
203.454L130.489,
196.34L131,
200.314L131.511,
230.486L132.022,
232.105L132.532,
239.857L133.043,
249.865L133.554,
249.718L134.065,
261.297L134.576,
259.579L135.086,
278.174L135.597,
273.464L136.108,
263.799L136.619,
265.761L137.129,
263.21L137.64,
262.719L138.151,
262.817L138.662,
267.969L139.173,
285.042L139.683,
277.438L140.194,
269.637L140.705,
263.014L141.216,
259.825L141.727,
265.123L142.237,
263.063L142.748,
273.366L143.259,
272.384L143.77,
264.191L144.281,
257.813L144.791,
261.64L145.302,
269.833L145.813,
270.569L146.324,
274.396L146.835,
265.123L147.345,
267.675L147.856,
255.262L148.367,
262.916L148.878,
264.093L149.388,
284.993L149.899,
288.82L150.41,
293.824L150.921,
272.875L151.432,
265.271L151.942,
260.414L152.453,
258.647L152.964,
260.953L153.475,
256.292L153.986,
262.278L154.496,
245.744L155.007,
237.649L155.518,
247.952L156.029,
265.859L156.54,
276.26L157.05,
281.068L157.561,
283.766L158.072,
298.534L158.583,
288.28L159.094,
291.665L159.604,
280.381L160.115,
284.404L160.626,
276.604L161.137,
280.283L161.647,
278.615L162.158,
282.442L162.669,
276.751L163.18,
276.996L163.691,
272.679L164.201,
283.325L164.712,
279.4L165.223,
283.963L165.734,
277.928L166.245,
271.109L166.755,
268.263L167.266,
262.572L167.777,
269.49L168.288,
277.29L168.799,
270.373L169.309,
268.165L169.82,
274.445L170.331,
286.514L170.842,
296.817L171.353,
281.804L171.863,
289.458L172.374,
282.687L172.885,
288.771L173.396,
284.306L173.906,
276.015L174.417,
262.082L174.928,
253.643L175.439,
272.826L175.95,
271.452L176.46,
271.599L176.971,
257.617L177.482,
263.161L177.993,
270.716L178.504,
270.177L179.014,
279.694L179.525,
269.637L180.036,
269.244L180.547,
254.87L181.058,
255.704L181.568,
255.556L182.079,
266.791L182.59,
258.255L183.101,
242.653L183.612,
208.605L184.122,
213.266L184.633,
232.105L185.144,
264.486L185.655,
273.905L186.165,
282.246L186.676,
287.152L187.187,
287.299L187.698,
288.476L188.209,
288.133L188.719,
286.416L189.23,
284.11L189.741,
281.313L190.252,
277.536L190.763,
273.071L191.273,
276.407L191.784,
264.24L192.295,
249.964L192.806,
234.706L193.317,
250.16L193.827,
257.666L194.338,
256.881L194.849,
253.594L195.36,
252.269L195.871,
262.817L196.381,
266.546L196.892,
281.559L197.403,
292.303L197.914,
304.372L198.424,
298.436L198.935,
298.239L199.446,
287.25L199.957,
282.785L200.468,
285.876L200.978,
287.888L201.489,
292.941L202,
294.118L202.511,
296.964L203.022,
299.466L203.532,
300.791L204.043,
300.594L204.554,
291.322L205.065,
278.762L205.576,
281.755L206.086,
284.944L206.597,
294.609L207.108,
300.692L207.619,
307.512L208.129,
314.822L208.64,
324.242L209.151,
331.208L209.662,
307.463L210.173,
288.329L210.683,
276.26L211.194,
283.08L211.705,
301.576L212.216,
310.505L212.727,
334.25L213.237,
334.103L213.748,
330.227L214.259,
324.094L214.77,
307.806L215.281,
300.496L215.791,
270.373L216.302,
254.575L216.813,
265.32L217.324,
289.556L217.835,
316.294L218.345,
312.909L218.856,
314.626L219.367,
308.101L219.878,
313.792L220.388,
310.308L220.899,
299.073L221.41,
292.597L221.921,
288.329L222.432,
309.965L222.942,
320.415L223.453,
335.182L223.964,
329.687L224.475,
326.94L224.986,
315.999L225.496,
310.161L226.007,
300.496L226.518,
294.315L227.029,
293.137L227.54,
309.229L228.05,
321.592L228.561,
331.306L229.072,
327.087L229.583,
332.827L230.094,
329.982L230.604,
320.268L231.115,
306.285L231.626,
288.771L232.137,
275.377L232.647,
270.373L233.158,
281.706L233.669,
301.379L234.18,
316.588L234.691,
323.8L235.201,
320.611L235.712,
313.595L236.223,
314.282L236.734,
318.845L237.245,
303.047L237.755,
282.246L238.266,
277.977L238.777,
303.293L239.288,
329.05L239.799,
341.168L240.309,
335.231L240.82,
332.974L241.331,
326.253L241.842,
316.049L242.353,
290.144L242.863,
276.555L243.374,
272.139L243.885,
295.1L244.396,
307.855L244.906,
316.196L245.417,
315.656L245.928,
314.233L246.439,
319.483L246.95,
307.316L247.46,
308.052L247.971,
303.195L248.482,
315.803L248.993,
323.751L249.504,
328.412L250.014,
330.325L250.525,
332.484L251.036,
346.81L251.547,
348.38L252.058,
324.291L252.568,
300.938L253.079,
277.83L253.59,
286.121L254.101,
301.821L254.612,
330.571L255.122,
334.741L255.633,
333.858L256.144,
334.299L256.655,
342.983L257.165,
343.375L257.676,
341.756L258.187,
333.71L258.698,
336.163L259.209,
329.442L259.719,
338.911L260.23,
344.504L260.741,
357.603L261.252,
357.063L261.763,
356.72L262.273,
353.531L262.784,
360.203L263.295,
346.761L263.806,
326.351L264.317,
301.526L264.827,
303.096L265.338,
312.32L265.849,
331.012L266.36,
339.058L266.871,
349.165L267.381,
342.198L267.892,
334.839L268.403,
323.555L268.914,
322.525L269.424,
320.17L269.935,
322.083L270.446,
321.396L270.957,
328.412L271.468,
330.08L271.978,
327.627L272.489,
316.441L273,
316.588L273.511,
321.494L274.022,
338.567L274.532,
335.28L275.043,
330.914L275.554,
324.83L276.065,
335.133L276.576,
351.618L277.086,
355.935L277.597,
351.765L278.108,
345.927L278.619,
351.618L279.129,
354.12L279.64,
355.837L280.151,
352.354L280.662,
349.802L281.173,
352.599L281.683,
348.281L282.194,
343.523L282.705,
344.258L283.216,
355.641L283.727,
369.034L284.237,
366.091L284.748,
355.248L285.259,
340.775L285.77,
335.133L286.281,
343.768L286.791,
351.961L287.302,
347.742L287.813,
347.496L288.324,
353.04L288.835,
361.037L289.345,
353.089L289.856,
349.999L290.367,
345.779L290.878,
338.518L291.388,
327.725L291.899,
334.005L292.41,
346.025L292.921,
344.847L293.432,
336.213L293.942,
328.951L294.453,
335.378L294.964,
333.073L295.475,
333.024L295.986,
332.631L296.496,
336.409L297.007,
338.813L297.518,
338.42L298.029,
338.616L298.54,
332.582L299.05,
335.918L299.561,
341.707L300.072,
342.787L300.583,
351.274L301.094,
347.251L301.604,
347.938L302.115,
343.032L302.626,
343.572L303.137,
351.421L303.647,
353.433L304.158,
357.701L304.669,
366.483L305.18,
369.966L305.691,
364.472L306.201,
351.814L306.712,
337.292L307.223,
326.548L307.734,
317.177L308.245,
325.615L308.755,
336.507L309.266,
353.973L309.777,
344.16L310.288,
334.397L310.799,
331.454L311.309,
342.051L311.82,
345.632L312.331,
336.507L312.842,
308.689L313.353,
307.561L313.863,
305.5L314.374,
330.08L314.885,
339.598L315.396,
349.214L315.906,
358.29L316.417,
360.988L316.928,
346.859L317.439,
315.411L317.95,
299.907L318.46,
295.345L318.971,
313.399L319.482,
323.849L319.993,
342.149L320.504,
342.002L321.014,
341.854L321.525,
334.25L322.036,
339.058L322.547,
327.627L323.058,
312.271L323.568,
298.141L324.079,
305.893L324.59,
317.569L325.101,
327.038L325.612,
333.661L326.122,
332.68L326.633,
326.94L327.144,
311.486L327.655,
315.705L328.165,
307.463L328.676,
290.095L329.187,
267.871L329.698,
275.77L330.209,
294.952L330.719,
304.323L331.23,
303.342L331.741,
311.339L332.252,
326.891L332.763,
332.533L333.273,
330.276L333.784,
319.434L334.295,
309.131L334.806,
319.728L335.317,
328.608L335.827,
336.948L336.338,
320.366L336.849,
321.2L337.36,
329.835L337.871,
334.005L338.381,
324.389L338.892,
305.549L339.403,
307.708L339.914,
309.916L340.424,
328.019L340.935,
328.412L341.446,
338.911L341.957,
340.039L342.468,
343.179L342.978,
342.492L343.489,
337.979L344,
336.605L344.511,
322.868L345.022,
321.887L345.532,
324.536L346.043,
348.576L346.554,
355.248L347.065,
352.991L347.576,
350.146L348.086,
354.169L348.597,
360.596L349.108,
347.546L349.619,
339.058L350.129,
338.764L350.64,
341.02L351.151,
340.186L351.662,
347.006L352.173,
359.664L352.683,
356.426L353.194,
346.81L353.705,
339.941L354.216,
337.194L354.727,
329.344L355.237,
313.743L355.748,
313.105L356.259,
321.396L356.77,
359.516L357.281,
387.825L357.791,
406.124L358.302,
409.166L358.813,
409.215L359.324,
408.97L359.835,
408.724L360.345,
406.86L360.856,
405.634L361.367,
405.094L361.878,
404.652L362.388,
401.954L362.899,
399.943L363.41,
398.667L363.921,
395.38L364.432,
388.168L364.942,
366.287L365.453,
356.475L365.964,
350.391L366.475,
361.479L366.986,
364.913L367.496,
365.158L368.007,
359.418L368.518,
355.101L369.029,
349.459L369.54,
347.349L370.05,
345.73L370.561,
343.179L371.072,
347.251L371.583,
353.089L372.094,
356.916L372.604,
353.482L373.115,
358.094L373.626,
364.275L374.137,
365.06L374.647,
362.656L375.158,
364.472L375.669,
367.072L376.18,
364.226L376.691,
355.15L377.201,
355.592L377.712,
359.565L378.223,
364.717L378.734,
368.544L379.245,
365.845L379.755,
372.91L380.266,
375.559L380.777,
382.133L381.288,
379.043L381.799,
377.522L382.309,
367.759L382.82,
356.622L383.331,
354.856L383.842,
361.871L384.353,
364.717L384.863,
363.883L385.374,
359.271L385.885,
365.06L386.396,
360.056L386.906,
360.007L387.417,
354.954L387.928,
362.068L388.439,
365.894L388.95,
369.77L389.46,
365.551L389.971,
357.456L390.482,
361.43L390.993,
362.656L391.504,
367.072L392.014,
361.381L392.525,
352.697L393.036,
347.889L393.547,
341.266L394.058,
353.089L394.568,
360.105L395.079,
367.906L395.59,
364.864L396.101,
362.902L396.612,
360.841L397.122,
356.18L397.633,
356.867L398.144,
351.765L398.655,
351.912L399.165,
348.085L399.676,
347.153L400.187,
353.973L400.698,
360.056L401.209,
376.099L401.719,
378.258L402.23,
373.989L402.741,
366.091L403.252,
343.228L403.763,
341.168L404.273,
331.306L404.784,
353.776L405.295,
359.026L405.806,
370.555L406.317,
360.89L406.827,
365.453L407.338,
364.177L407.849,
368.445L408.36,
359.86L408.871,
351.47L409.381,
338.911L409.892,
339.156L410.403,
337.096L410.914,
355.199L411.424,
354.561L411.935,
351.421L412.446,
341.953L412.957,
343.572L413.468,
349.312L413.978,
345.338L414.489,
346.319L415,
338.616L415.511,
349.999L416.022,
349.508L416.532,
360.449L417.043,
353.335L417.554,
353.089L418.065,
349.655L418.576,
352.206L419.086,
347.055L419.597,
342.198L420.108,
332.19L420.619,
331.11L421.129,
340.186L421.64,
342.541L422.151,
347.447L422.662,
351.029L423.173,
362.803L423.683,
357.652L424.194,
355.935L424.705,
351.372L425.216,
354.561L425.727,
353.678L426.237,
351.716L426.748,
363.098L427.259,
372.223L427.77,
378.405L428.281,
373.008L428.791,
354.414L429.302,
352.942L429.813,
353.188L430.324,
366.189L430.835,
349.655L431.345,
349.999L431.856,
348.772L432.367,
359.32L432.878,
353.629L433.388,
359.222L433.899,
367.072L434.41,
374.922L434.921,
373.548L435.432,
373.989L435.942,
368.298L436.453,
353.825L436.964,
349.312L437.475,
351.372L437.986,
354.757L438.496,
356.573L439.007,
352.206L439.518,
362.951L440.029,
367.023L440.54,
374.48L441.05,
370.849L441.561,
365.355L442.072,
366.974L442.583,
372.468L443.094,
378.994L443.604,
375.952L444.115,
373.695L444.626,
369.819L445.137,
363.638L445.647,
358.192L446.158,
363.638L446.669,
370.015L447.18,
370.997L447.691,
365.698L448.201,
366.777L448.712,
366.826L449.223,
366.14L449.734,
363.098L450.245,
365.306L450.755,
365.502L451.266,
361.086L451.777,
352.844L452.288,
336.507L452.799,
333.612L453.309,
335.722L453.82,
353.433L454.331,
359.32L454.842,
361.135L455.353,
362.068L455.863,
365.6L456.374,
372.125L456.885,
372.174L457.396,
367.759L457.906,
364.717L458.417,
355.493L458.928,
354.169L459.439,
344.013L459.95,
342.051L460.46,
333.024L460.971,
333.612L461.482,
335.673L461.993,
334.888L462.504,
332.435L463.014,
341.07L463.525,
348.723L464.036,
343.228L464.547,
339.892L465.058,
342.639L465.568,
354.463L466.079,
356.867L466.59,
365.06L467.101,
341.511L467.612,
317.373L468.122,
285.925L468.633,
289.408L469.144,
294.805L469.655,
309.572L470.165,
313.497L470.676,
307.365L471.187,
307.168L471.698,
321.985L472.209,
333.907L472.719,
332.582L473.23,
327.038L473.741,
323.26L474.252,
328.167L474.763,
344.013L475.273,
352.255L475.784,
359.86L476.295,
358.633L476.806,
363.588L477.317,
359.32L477.827,
352.893L478.338,
346.761L478.849,
339.598L479.36,
341.119L479.871,
346.662L480.381,
354.463L480.892,
358.535L481.403,
367.464L481.914,
376.786L482.424,
382.918L482.935,
381.986L483.446,
376.442L483.957,
376.099L484.468,
372.518L484.978,
375.756L485.489,
373.253L486,
377.767L486.511,
374.872L487.022,
376.148L487.532,
367.611L488.043,
366.925L488.554,
362.46L489.065,
369.868L489.576,
366.385L490.086,
363.588L490.597,
359.418L491.108,
364.521L491.619,
367.611L492.129,
372.419L492.64,
372.076L493.151,
378.65L493.662,
379.582L494.173,
381.005L494.683,
380.024L495.194,
374.087L495.705,
372.125L496.216,
370.064L496.727,
374.774L497.237,
374.333L497.748,
373.695L498.259,
369.77L498.77,
373.401L499.281,
368.004L499.791,
359.958L500.302,
347.546L500.813,
333.907L501.324,
343.719L501.835,
350.685L502.345,
365.6L502.856,
369.083L503.367,
367.66L503.878,
367.072L504.388,
360.399L504.899,
355.297L505.41,
333.416L505.921,
333.024L506.432,
343.67L506.942,
358.339L507.453,
361.086L507.964,
364.422L508.475,
372.37L508.986,
373.401L509.496,
370.751L510.007,
368.249L510.518,
360.645L511.029,
350.685L511.54,
340.088L512.05,
349.704L512.561,
360.203L513.072,
375.02L513.583,
373.744L514.094,
376.541L514.604,
382.133L515.115,
382.084L515.626,
382.771L516.137,
379.435L516.647,
381.348L517.158,
379.779L517.669,
381.692L518.18,
386.255L518.691,
384.537L519.201,
380.318L519.712,
374.48L520.223,
375.216L520.734,
370.997L521.245,
368.396L521.755,
364.275L522.266,
363.49L522.777,
372.468L523.288,
378.405L523.799,
384.881L524.309,
382.869L524.82,
382.084L525.331,
384.734L525.842,
385.813L526.353,
386.058L526.863,
377.718L527.374,
372.763L527.885,
376.295L528.396,
389.689L528.906,
394.006L529.417,
387.825L529.928,
382.869L530.439,
374.872L530.95,
377.178L531.46,
370.702L531.971,
362.803L532.482,
353.923L532.993,
345.142L533.504,
350.146L534.014,
355.542L534.525,
369.77L535.036,
376.982L535.547,
375.854L536.058,
377.031L536.568,
379.386L537.079,
377.276L537.59,
372.468L538.101,
365.011L538.612,
371.34L539.122,
371.291L539.633,
381.201L540.144,
382.379L540.655,
382.624L541.165,
379.386L541.676,
377.227L542.187,
380.956L542.698,
376.688L543.209,
373.744L543.719,
371.144L544.23,
376.737L544.741,
378.16L545.252,
378.552L545.763,
375.118L546.273,
375.412L546.784,
373.94L547.295,
375.265L547.806,
374.333L548.317,
370.948L548.827,
363.294L549.338,
367.808L549.849,
375.559L550.36,
381.79L550.871,
381.348L551.381,
381.054L551.892,
384.39L552.403,
387.53L552.914,
387.825L553.424,
390.817L553.935,
392.436L554.446,
395.527L554.957,
391.112L555.468,
388.855L555.978,
390.228L556.489,
389.247L557,
377.767L557.511,
372.567L558.022,
367.808L558.532,
378.307L559.043,
380.416L559.554,
388.904L560.065,
385.568L560.576,
384.979L561.086,
386.843L561.597,
389.444L562.108,
387.285L562.619,
383.311L563.129,
381.643L563.64,
377.914L564.151,
371.831L564.662,
372.321L565.173,
373.204L565.683,
380.269L566.194,
373.94L566.705,
377.473L567.216,
380.171L567.727,
388.07L568.237,
388.119L568.748,
384.734L569.259,
381.299L569.77,
374.627L570.281,
377.963L570.791,
374.971L571.302,
381.79L571.813,
378.601L572.324,
384.685L572.835,
386.892L573.345,
389.149L573.856,
387.775L574.367,
387.383L574.878,
379.828L575.388,
376.491L575.899,
361.528L576.41,
358.388L576.921,
356.229L577.432,
363.834L577.942,
368.593L578.453,
370.899L578.964,
367.71L579.475,
360.007L579.986,
360.694L580.496,
361.822L581.007,
370.702L581.518,
374.529L582.029,
380.171L582.54,
382.526L583.05,
379.828L583.561,
385.764L584.072,
380.563L584.583,
381.594L585.094,
378.258L585.604,
382.624L586.115,
379.877L586.626,
381.79L587.137,
382.183L587.647,
385.224L588.158,
384.096L588.669,
379.975L589.18,
378.405L589.691,
370.604L590.201,
373.499L590.712,
372.468L591.223,
376.05L591.734,
373.45L592.245,
370.31L592.755,
368.593L593.266,
370.899L593.777,
378.356L594.288,
380.318L594.799,
379.729L595.309,
376.05L595.82,
376.246L596.331,
372.763L596.842,
362.215L597.353,
349.017L597.863,
344.896L598.374,
355.297L598.885,
370.015L599.396,
380.024L599.906,
380.269L600.417,
377.571L600.928,
377.375L601.439,
380.122L601.95,
375.559L602.46,
368.2L602.971,
367.219L603.482,
371.585L603.993,
376.05L604.504,
373.253L605.014,
375.657L605.525,
371.733L606.036,
364.079L606.547,
363.785L607.058,
367.415L607.568,
377.718L608.079,
379.582L608.59,
382.673L609.101,
387.04L609.612,
379.975L610.122,
381.398L610.633,
373.253L611.144,
375.069L611.655,
369.868L612.165,
363.932L612.676,
362.411L613.187,
363.343L613.698,
369.672L614.209,
367.317L614.719,
369.23L615.23,
370.457L615.741,
372.616L616.252,
371.683L616.763,
369.329L617.273,
368.838L617.784,
370.948L618.295,
374.137L618.806,
376.59L619.317,
375.069L619.827,
365.796L620.338,
370.702L620.849,
363.392L621.36,
367.268L621.871,
368.053L622.381,
376.933L622.892,
380.171L623.403,
366.679L623.914,
353.188L624.424,
350.538L624.935,
354.218L625.446,
364.03L625.957,
363.883L626.468,
361.184L626.978,
356.769L627.489,
356.965L628,
364.472L628.511,
371.438L629.022,
373.646L629.532,
376.884L630.043,
373.94L630.554,
374.774L631.065,
372.959L631.576,
375.363L632.086,
374.529L632.597,
369.623L633.108,
366.287L633.619,
369.966L634.129,
379.828L634.64,
383.507L635.151,
382.379L635.662,
381.25L636.173,
384.979L636.683,
387.874L637.194,
386.156L637.705,
386.696L638.216,
386.402L638.727,
387.187L639.237,
383.017L639.748,
381.398L640.259,
377.963L640.77,
380.858L641.281,
378.11L641.791,
384.39L642.302,
376.491L642.813,
381.201L643.324,
376.246L643.835,
386.402L644.345,
387.285L644.856,
383.213L645.367,
379.337L645.878,
375.216L646.388,
386.892L646.899,
388.609L647.41,
386.843L647.921,
384.292L648.432,
384.243L648.942,
393.466L649.453,
393.466L649.964,
397.342L650.475,
392.976L650.986,
395.478L651.496,
387.481L652.007,
382.82L652.518,
376.688L653.029,
384.096L653.54,
389.1L654.05,
394.791L654.561,
395.086L655.072,
399.501L655.583,
395.184L656.094,
391.504L656.604,
385.421L657.115,
391.7L657.626,
392.632L658.137,
395.036L658.647,
388.953L659.158,
392.485L659.669,
393.712L660.18,
399.01L660.691,
392.976L661.201,
388.953L661.712,
386.794L662.223,
390.081L662.734,
393.368L663.245,
395.527L663.755,
397.342L664.266,
400.629L664.777,
402.788L665.288,
402.445L665.799,
398.225L666.309,
398.912L666.82,
399.452L667.331,
404.162L667.842,
402.592L668.353,
404.162L668.863,
404.162L669.374,
405.094L669.885,
405.535L670.396,
406.124L670.906,
405.192L671.417,
401.414L671.928,
400.286L672.439,
400.041L672.95,
404.898L673.46,
402.984L673.971,
402.592L674.482,
398.667L674.993,
400.188L675.504,
395.92L676.014,
397.244L676.525,
397.489L677.036,
402.297L677.547,
401.267L678.058,
399.697L678.568,
401.463L679.079,
404.407L679.59,
406.664L680.101,
405.977L680.612,
404.26L681.122,
401.807L681.633,
400.09L682.144,
399.844L682.655,
398.912L683.165,
396.214L683.676,
395.135L684.187,
396.165L684.698,
398.078L685.209,
400.777L685.719,
400.482L686.23,
398.961L686.741,
397.342L687.252,
394.153L687.763,
393.417L688.273,
392.093L688.784,
393.172L689.295,
396.999L689.806,
398.863L690.317,
403.033L690.827,
400.531L691.338,
394.301L691.849,
394.399L692.36,
392.289L692.871,
395.429L693.381,
394.497L693.892,
399.01L694.403,
402.788L694.914,
402.347L695.424,
401.316L695.935,
397.489L696.446,
395.87L696.957,
393.614L697.468,
394.301L697.978,
397.833L698.489,
397.931L699,
399.599L699.511,
398.765L700.022,
404.554L700.532,
405.094L701.043,
404.701L701.554,
401.463L702.065,
399.599L702.576,
400.629L703.086,
400.58L703.597,
403.328L704.108,
403.082L704.619,
404.652L705.129,
404.211L705.64,
404.309L706.151,
402.101L706.662,
402.003L707.173,
400.973L707.683,
398.225L708.194,
396.018L708.705,
395.92L709.216,
398.765L709.727,
397.244L710.237,
394.791L710.748,
396.263L711.259,
397.98L711.77,
398.127L712.281,
396.754L712.791,
398.274L713.302,
399.158L713.813,
396.018L714.324,
397.391L714.835,
400.531L715.345,
403.966L715.856,
398.422L716.367,
396.705L716.878,
393.025L717.388,
395.184L717.899,
395.086L718.41,
393.025L718.921,
391.7L719.432,
392.24L719.942,
395.478L720.453,
399.795L720.964,
398.078L721.475,
403.818L721.986,
402.494L722.496,
404.8L723.007,
403.573L723.518,
403.328L724.029,
402.347L724.54,
398.814L725.05,
397.244L725.561,
391.455L726.072,
393.319L726.583,
394.301L727.094,
401.463L727.604,
400.09L728.115,
399.943L728.626,
394.301L729.137,
397.195L729.647,
398.127L730.158,
399.648L730.669,
396.361L731.18,
397.735L731.691,
398.225L732.201,
399.256L732.712,
400.482L733.223,
402.69L733.734,
403.082L734.245,
398.52L734.755,
397.784L735.266,
398.127L735.777,
400.924L736.288,
398.569L736.799,
394.742L737.309,
393.123L737.82,
396.557L738.331,
396.606L738.842,
397.195L739.353,
396.705L739.863,
402.15L740.374,
402.788L740.885,
403.769L741.396,
399.501L741.906,
399.059L742.417,
399.599L742.928,
404.113L743.439,
402.543L743.95,
403.328L744.46,
400.678L744.971,
401.954L745.482,
400.188L745.993,
403.377L746.504,
406.664L747.014,
408.038L747.525,
408.038L748.036,
406.713L748.547,
404.8L749.058,
404.309L749.568,
404.358L750.079,
405.977L750.59,
406.075L751.101,
404.75L751.612,
400.335L752.122,
400.728L752.633,
399.648L753.144,
398.176L753.655,
388.364L754.165,
383.9L754.676,
389.002L755.187,
397.244L755.698,
402.248L756.209,
402.052L756.719,
402.543L757.23,
402.445L757.741,
399.746L758.252,
395.478L758.763,
395.723L759.273,
398.961L759.784,
404.849L760.295,
405.388L760.806,
400.973L761.317,
398.667L761.827,
399.059L762.338,
402.347L762.849,
402.248L763.36,
399.501L763.871,
398.912L764.381,
394.889L764.892,
399.55L765.403,
402.69L765.914,
407.645L766.424,
405.486L766.935,
405.732L767.446,
400.777L767.957,
401.022L768.468,
396.116L768.978,
396.901L769.489,
399.059L770,
403.867"/>
  </g>
</svg>
