<svg class="plot-d6a7b5" fill="currentColor" font-family="system-ui, sans-serif" font-size="10" text-anchor="middle" width="830" height="470" viewBox="0 0 830 470" xmlns="http://www.w3.org/2000/svg" xmlns:xlink="http://www.w3.org/1999/xlink" color="#1e90ff"><style>:where(.plot-d6a7b5){--plot-background: white;display:block;height:intrinsic;max-width:100%}:where(.plot-d6a7b5 text),:where(.plot-d6a7b5 tspan){white-space:pre}</style><g aria-label="y-grid" stroke="currentColor" stroke-opacity=".1"><line x1="60" x2="770" y1="410" y2="410"/><line x1="60" x2="770" y1="378.557" y2="378.557"/><line x1="60" x2="770" y1="347.114" y2="347.114"/><line x1="60" x2="770" y1="315.671" y2="315.671"/><line x1="60" x2="770" y1="284.227" y2="284.227"/><line x1="60" x2="770" y1="252.784" y2="252.784"/><line x1="60" x2="770" y1="221.341" y2="221.341"/><line x1="60" x2="770" y1="189.898" y2="189.898"/><line x1="60" x2="770" y1="158.455" y2="158.455"/><line x1="60" x2="770" y1="127.012" y2="127.012"/><line x1="60" x2="770" y1="95.568" y2="95.568"/><line x1="60" x2="770" y1="64.125" y2="64.125"/></g><g aria-label="y-axis tick" fill="none" stroke="currentColor"><path transform="translate(60,410)" d="M0,0L-6,0"/><path transform="translate(60,378.55684921661634)" d="M0,0L-6,0"/><path transform="translate(60,347.11369843323274)" d="M0,0L-6,0"/><path transform="translate(60,315.6705476498491)" d="M0,0L-6,0"/><path transform="translate(60,284.2273968664655)" d="M0,0L-6,0"/><path transform="translate(60,252.7842460830818)" d="M0,0L-6,0"/><path transform="translate(60,221.34109529969817)" d="M0,0L-6,0"/><path transform="translate(60,189.8979445163145)" d="M0,0L-6,0"/><path transform="translate(60,158.45479373293085)" d="M0,0L-6,0"/><path transform="translate(60,127.01164294954722)" d="M0,0L-6,0"/><path transform="translate(60,95.56849216616357)" d="M0,0L-6,0"/><path transform="translate(60,64.12534138277994)" d="M0,0L-6,0"/></g><g aria-label="y-axis tick label" text-anchor="end" font-variant="tabular-nums"><text y=".32em" transform="translate(-9,0) translate(60,410)">0</text><text y=".32em" transform="translate(-9,0) translate(60,378.55684921661634)">5,000</text><text y=".32em" transform="translate(-9,0) translate(60,347.11369843323274)">10,000</text><text y=".32em" transform="translate(-9,0) translate(60,315.6705476498491)">15,000</text><text y=".32em" transform="translate(-9,0) translate(60,284.2273968664655)">20,000</text><text y=".32em" transform="translate(-9,0) translate(60,252.7842460830818)">25,000</text><text y=".32em" transform="translate(-9,0) translate(60,221.34109529969817)">30,000</text><text y=".32em" transform="translate(-9,0) translate(60,189.8979445163145)">35,000</text><text y=".32em" transform="translate(-9,0) translate(60,158.45479373293085)">40,000</text><text y=".32em" transform="translate(-9,0) translate(60,127.01164294954722)">45,000</text><text y=".32em" transform="translate(-9,0) translate(60,95.56849216616357)">50,000</text><text y=".32em" transform="translate(-9,0) translate(60,64.12534138277994)">55,000</text></g><g aria-label="y-axis label" text-anchor="start"><text y=".71em" transform="translate(-57,-57) translate(60,60)">↑ Visible Vestiges (30 days)</text></g><g aria-label="x-axis tick" fill="none" stroke="currentColor"><path transform="translate(97.02453987730061,410)" d="M0,0L0,6"/><path transform="translate(196.11963190184048,410)" d="M0,0L0,6"/><path transform="translate(296.3036809815951,410)" d="M0,0L0,6"/><path transform="translate(396.4877300613497,410)" d="M0,0L0,6"/><path transform="translate(495.5828220858896,410)" d="M0,0L0,6"/><path transform="translate(594.6779141104295,410)" d="M0,0L0,6"/><path transform="translate(694.861963190184,410)" d="M0,0L0,6"/></g><g aria-label="x-axis tick label" font-variant="tabular-nums"><text transform="translate(0,9) translate(97.02453987730061,410)"><tspan x="0" y=".71em">Apr</tspan><tspan x="0" dy="1em">2023</tspan></text><text y=".71em" transform="translate(0,9) translate(196.11963190184048,410)">Jul</text><text y=".71em" transform="translate(0,9) translate(296.3036809815951,410)">Oct</text><text transform="translate(0,9) translate(396.4877300613497,410)"><tspan x="0" y=".71em">Jan</tspan><tspan x="0" dy="1em">2024</tspan></text><text y=".71em" transform="translate(0,9) translate(495.5828220858896,410)">Apr</text><text y=".71em" transform="translate(0,9) translate(594.6779141104295,410)">Jul</text><text y=".71em" transform="translate(0,9) translate(694.861963190184,410)">Oct</text></g><g aria-label="line" fill="none" stroke="currentColor" stroke-width="1.5" stroke-linejoin="round" stroke-linecap="round"><path d="M60,410L60.726,406.843L61.452,395.297L62.178,389.071L62.904,384.657L63.63,377.375L64.356,371.639L65.082,366.263L65.808,355.383L66.534,346.774L67.26,336.555L67.986,320.727L68.712,305.804L69.438,298.056L70.164,286.843L70.89,279.228L71.616,270.499L72.342,259.085L73.067,251.401L73.793,243.867L74.519,233.642L75.245,222.303L75.971,214.273L76.697,200.57L77.423,194.08L78.149,188.024L78.875,177.101L79.601,166.643L80.327,158.593L81.053,147.374L81.779,139.344L82.505,140.702L83.231,131.137L83.957,123.025L84.683,123.05L85.409,121.226L86.135,120.912L86.861,127.194L87.587,127.276L88.313,129.156L89.039,139.168L89.765,140.639L90.491,134.325L91.217,132.936L91.943,125.282L92.669,123.66L93.395,126.257L94.121,121.93L94.847,119.415L95.573,122.364L96.299,120.597L97.025,115.956L97.751,117.837L98.476,107.379L99.202,97.342L99.928,99.895L100.654,97.933L101.38,94.776L102.106,95.952L102.832,92.921L103.558,89.752L104.284,93.94L105.01,92.519L105.736,86.406L106.462,82.45L107.188,72.653L107.914,67.722L108.64,67.653L109.366,64L110.092,60L110.818,66.113L111.544,70.716L112.27,73.112L112.996,78.866L113.722,76.734L114.448,73.181L115.174,78.143L115.9,78.407L116.626,78.042L117.352,86.123L118.078,91.016L118.804,95.097L119.53,103.825L120.256,109.278L120.982,106.831L121.708,110.806L122.434,110.315L123.16,112.145L123.885,121L124.611,122.037L125.337,125.125L126.063,134.464L126.789,140.117L127.515,144.192L128.241,151.933L128.967,150.82L129.693,150.16L130.419,154.179L131.145,157.065L131.871,158.254L132.597,161.825L133.323,162.373L134.049,166.385L134.775,173.277L135.501,176.572L136.227,173.334L136.953,175.05L137.679,172.315L138.405,170.347L139.131,171.629L139.857,169.957L140.583,171.736L141.309,176.245L142.035,178.874L142.761,180.918L143.487,184.88L144.213,184.898L144.939,182.823L145.665,188.98L146.391,191.036L147.117,190.005L147.843,192.407L148.569,192.363L149.294,194.413L150.02,199.916L150.746,200.696L151.472,197.652L152.198,196.545L152.924,192.237L153.65,191.866L154.376,194.35L155.102,192.445L155.828,191.269L156.554,195.589L157.28,196.451L158.006,197.117L158.732,199.714L159.458,195.413L160.184,193.596L160.91,195.74L161.636,194.753L162.362,192.778L163.088,194.69L163.814,194.948L164.54,194.558L165.266,197.96L165.992,199.035L166.718,199.457L167.444,200.519L168.17,198.557L168.896,198.381L169.622,200.142L170.348,198.174L171.074,197.834L171.8,201.249L172.526,206.789L173.252,208.374L173.978,212.77L174.703,212.701L175.429,213.015L176.155,215.04L176.881,215.216L177.607,214.43L178.333,218.348L179.059,218.109L179.785,219.53L180.511,225.806L181.237,227.529L181.963,228.535L182.689,231.434L183.415,231.761L184.141,232.101L184.867,232.126L185.593,233.453L186.319,232.459L187.045,235.384L187.771,234.818L188.497,235.069L189.223,236.547L189.949,234.755L190.675,234.711L191.401,236.025L192.127,234.516L192.853,233.214L193.579,233.107L194.305,230.453L195.031,229.114L195.757,231.177L196.483,231.227L197.209,230.541L197.935,233.484L198.661,232.56L199.387,233.893L200.112,236.572L200.838,236.899L201.564,236.295L202.29,238.44L203.016,237.673L203.742,237.05L204.468,240.169L205.194,239.566L205.92,239.805L206.646,241.974L207.372,240.666L208.098,239.591L208.824,240.767L209.55,239.402L210.276,240.238L211.002,241.515L211.728,240.408L212.454,240.742L213.18,242.609L213.906,243.1L214.632,241.779L215.358,245.483L216.084,247.816L216.81,246.722L217.536,249.451L218.262,248.527L218.988,247.797L219.714,249.313L220.44,247.275L221.166,247.288L221.892,247.307L222.618,244.93L223.344,243.345L224.07,246.823L224.796,243.798L225.521,242.446L226.247,243.641L226.973,242.056L227.699,241.641L228.425,243.32L229.151,241.59L229.877,240.389L230.603,241.433L231.329,238.635L232.055,238.415L232.781,239.805L233.507,239.176L234.233,236.975L234.959,235.365L235.685,231.258L236.411,229.938L237.137,229.938L237.863,228.435L238.589,227.001L239.315,229.994L240.041,228.139L240.767,227.592L241.493,229.957L242.219,228.63L242.945,228.925L243.671,232.78L244.397,232.176L245.123,229.529L245.849,232.988L246.575,232.793L247.301,230.378L248.027,231.296L248.753,228.177L249.479,227.812L250.204,228.472L250.93,226.542L251.656,225.806L252.382,228.139L253.108,227.454L253.834,227.215L254.56,230.032L255.286,231.818L256.012,235.126L256.738,241.546L257.464,242.71L258.19,242.194L258.916,243.892L259.642,244.244L260.368,242.917L261.094,244.634L261.82,245.118L262.546,244.005L263.272,246.087L263.998,246.961L264.724,246.118L265.45,247.37L266.176,247.118L266.902,247.231L267.628,248.464L268.354,251.011L269.08,253.734L269.806,257.796L270.532,259.299L271.258,262.268L271.984,267.324L272.71,266.204L273.436,266.89L274.162,269.047L274.888,268.323L275.613,269.455L276.339,271.38L277.065,272.153L277.791,274.027L278.517,275.48L279.243,276.876L279.969,277.234L280.695,277.354L281.421,274.631L282.147,272.317L282.873,273.662L283.599,273.681L284.325,274.474L285.051,275.216L285.777,275.48L286.503,276.624L287.229,279.706L287.955,279.14L288.681,278.436L289.407,279.448L290.133,277.555L290.859,278.75L291.585,280.165L292.311,278.958L293.037,278.555L293.763,282.662L294.489,282.504L295.215,282.9L295.941,284.894L296.667,281.574L297.393,280.674L298.119,281.687L298.845,279.97L299.571,280.813L300.297,282.07L301.022,283.177L301.748,284.592L302.474,288.466L303.2,289.805L303.926,287.598L304.652,286.649L305.378,283.919L306.104,283.599L306.83,284.951L307.556,285.007L308.282,284.881L309.008,286.271L309.734,286.869L310.46,287.661L311.186,290.183L311.912,285.982L312.638,282.768L313.364,282.85L314.09,282.599L314.816,283.039L315.542,286.076L316.268,285.812L316.994,287.202L317.72,290.17L318.446,288.749L319.172,284.756L319.898,284.397L320.624,281.165L321.35,280.655L322.076,281.196L322.802,279.398L323.528,280.064L324.254,282.215L324.98,283.334L325.706,284.158L326.431,287.045L327.157,286.089L327.883,286.007L328.609,287.963L329.335,286.68L330.061,287.252L330.787,290.384L331.513,290.849L332.239,291.038L332.965,293.107L333.691,293.245L334.417,291.019L335.143,290.906L335.869,289.755L336.595,289.661L337.321,290.843L338.047,289.868L338.773,290.692L339.499,294.295L340.225,296.691L340.951,299.05L341.677,302.188L342.403,301.955L343.129,301.817L343.855,305.099L344.581,305.653L345.307,307.376L346.033,309.916L346.759,311.985L347.485,313.205L348.211,317.224L348.937,315.954L349.663,313.539L350.389,313.778L351.115,312.463L351.84,310.954L352.566,311.753L353.292,311.269L354.018,314.142L354.744,317.041L355.47,318.576L356.196,318.941L356.922,319.695L357.648,317.243L358.374,317.318L359.1,318.098L359.826,316.488L360.552,315.664L361.278,316.079L362.004,313.243L362.73,313.47L363.456,314.199L364.182,314.413L364.908,313.004L365.634,312.457L366.36,310.212L367.086,310.193L367.812,311.803L368.538,310.52L369.264,309.112L369.99,311.696L370.716,313.759L371.442,315.853L372.168,318.456L372.894,318.89L373.62,318.261L374.346,320.192L375.072,318.777L375.798,318.431L376.524,321.399L377.249,322.89L377.975,324.393L378.701,327.286L379.427,327.141L380.153,326.877L380.879,328.147L381.605,328.896L382.331,329.996L383.057,332.159L383.783,332.857L384.509,334.04L385.235,335.04L385.961,335.14L386.687,336.486L387.413,337.725L388.139,335.574L388.865,333.423L389.591,334.914L390.317,334.838L391.043,333.285L391.769,332.939L392.495,331.612L393.221,330.663L393.947,330.468L394.673,329.462L395.399,328.103L396.125,328.946L396.851,328.858L397.577,327.355L398.303,326.764L399.029,324.185L399.755,323.487L400.481,325.028L401.207,324.443L401.933,325.556L402.658,325.475L403.384,323.928L404.11,324.953L404.836,324.971L405.562,323.72L406.288,323.978L407.014,325.563L407.74,325.833L408.466,327.078L409.192,328.889L409.918,328.921L410.644,327.499L411.37,326.393L412.096,325.374L412.822,326.141L413.548,327.361L414.274,327.757L415,327.562L415.726,327.537L416.452,327.606L417.178,328.286L417.904,328.411L418.63,327.361L419.356,324.449L420.082,325.204L420.808,323.462L421.534,322.959L422.26,324.795L422.986,323.198L423.712,324.374L424.438,326.468L425.164,323.689L425.89,320.764L426.616,319.865L427.342,316.243L428.067,315.086L428.793,314.4L429.519,312.677L430.245,312.206L430.971,313.124L431.697,312.287L432.423,313.809L433.149,314.463L433.875,310.577L434.601,308.891L435.327,308.3L436.053,307.168L436.779,307.948L437.505,308.583L438.231,305.967L438.957,305.552L439.683,305.376L440.409,306.866L441.135,305.54L441.861,303.401L442.587,298.892L443.313,297.358L444.039,296.446L444.765,291.975L445.491,289.969L446.217,291.893L446.943,293.447L447.669,294.151L448.395,296.371L449.121,294.22L449.847,292.264L450.573,293.497L451.299,292.503L452.025,291.635L452.751,291.717L453.476,290.214L454.202,291.918L454.928,294.503L455.654,293.579L456.38,291.874L457.106,293.239L457.832,291.384L458.558,291.151L459.284,292.692L460.01,292.918L460.736,294.811L461.462,296.214L462.188,297.408L462.914,300.949L463.64,305.024L464.366,303.445L465.092,304.401L465.818,307.615L466.544,309.244L467.27,310.03L467.996,310.96L468.722,311.501L469.448,313.092L470.174,316.237L470.9,316.425L471.626,315.57L472.352,317.538L473.078,316.947L473.804,318.111L474.53,320.846L475.256,320.771L475.982,320.984L476.708,323.72L477.434,325.179L478.16,324.764L478.885,326.21L479.611,323.349L480.337,322.802L481.063,323.965L481.789,325.846L482.515,328.525L483.241,332.122L483.967,334.97L484.693,337.832L485.419,343.158L486.145,346.101L486.871,348.384L487.597,350.472L488.323,352.49L489.049,355.006L489.775,357.113L490.501,358.358L491.227,359.886L491.953,363.244L492.679,364.653L493.405,363.414L494.131,365.225L494.857,365.961L495.583,365.269L496.309,365.898L497.035,367.08L497.761,366.885L498.487,367.841L499.213,368.652L499.939,369.193L500.665,371.941L501.391,372.507L502.117,372.507L502.843,371.117L503.569,368.545L504.294,365.759L505.02,364.571L505.746,362.785L506.472,360.131L507.198,358.666L507.924,357.352L508.65,355.188L509.376,353.427L510.102,351.006L510.828,349.246L511.554,348.252L512.28,346.655L513.006,345.806L513.732,345.391L514.458,347.504L515.184,348.252L515.91,349.459L516.636,349.755L517.362,349.868L518.088,349.793L518.814,349.396L519.54,349.837L520.266,351.384L520.992,351.623L521.718,352.163L522.444,353.446L523.17,353.905L523.896,353.056L524.622,353.843L525.348,354.094L526.074,353.566L526.8,354.05L527.526,354.698L528.252,353.937L528.978,353.151L529.703,353.975L530.429,353.736L531.155,354.679L531.881,354.717L532.607,352.855L533.333,352.522L534.059,351.22L534.785,351.22L535.511,350.881L536.237,350.239L536.963,349.007L537.689,348.812L538.415,348.101L539.141,347.522L539.867,348.843L540.593,347.705L541.319,346.246L542.045,346.711L542.771,345.56L543.497,345.567L544.223,346.07L544.949,347.617L545.675,347.906L546.401,348.51L547.127,348.132L547.853,345.001L548.579,344.844L549.305,343.743L550.031,344.529L550.757,344.535L551.483,344.755L552.209,343.737L552.935,345.057L553.661,346.227L554.387,346.372L555.112,347.441L555.838,346.019L556.564,343.655L557.29,343.756L558.016,342.46L558.742,342.668L559.468,342.951L560.194,341.85L560.92,340.756L561.646,341.9L562.372,341.517L563.098,340.404L563.824,341.794L564.55,339.548L565.276,339.115L566.002,338.385L566.728,337.266L567.454,336.467L568.18,336.719L568.906,338.09L569.632,337.882L570.358,338.737L571.084,336.605L571.81,334.442L572.536,333.681L573.262,333.952L573.988,331.505L574.714,331.537L575.44,331.719L576.166,331.883L576.892,332.329L577.618,333.901L578.344,333.449L579.07,334.568L579.796,333.706L580.521,333.084L581.247,336.065L581.973,337.586L582.699,337.549L583.425,339.102L584.151,338.75L584.877,338.398L585.603,340.97L586.329,340.825L587.055,338.417L587.781,339.63L588.507,340.24L589.233,339.215L589.959,340.14L590.685,341.139L591.411,341.781L592.137,344.334L592.863,346.441L593.589,347.277L594.315,347.938L595.041,347.887L595.767,347.516L596.493,347.982L597.219,346.856L597.945,347.378L598.671,347.504L599.397,348.34L600.123,348.975L600.849,350.17L601.575,350.793L602.301,349.264L603.027,349.497L603.753,350.032L604.479,350.032L605.204,352.258L605.93,352.692L606.656,352.163L607.382,351.931L608.108,353.786L608.834,353.912L609.56,354.654L610.286,355.283L611.012,355.459L611.738,355.622L612.464,355.251L613.19,354.333L613.916,354.283L614.642,354.138L615.368,353.975L616.094,355.213L616.82,354.591L617.546,352.069L618.272,352.503L618.998,351.918L619.724,352.226L620.45,352.038L621.176,351.164L621.902,350.635L622.628,351.365L623.354,352.031L624.08,351.302L624.806,350.761L625.532,350.201L626.258,348.68L626.984,348.258L627.71,346.894L628.436,345.913L629.162,345.032L629.888,343.045L630.613,341.511L631.339,340.404L632.065,338.781L632.791,338.215L633.517,338.083L634.243,335.844L634.969,335.241L635.695,335.178L636.421,334.43L637.147,334.7L637.873,336.744L638.599,335.071L639.325,332.618L640.051,330.361L640.777,326.864L641.503,324.349L642.229,323.751L642.955,320.639L643.681,316.884L644.407,315.425L645.133,314.205L645.859,312.545L646.585,311.306L647.311,310.558L648.037,308.583L648.763,309.275L649.489,310.809L650.215,311.048L650.941,312.639L651.667,313.753L652.393,314.727L653.119,316.086L653.845,315.268L654.571,314.476L655.297,315.62L656.022,315.425L656.748,314.991L657.474,315.62L658.2,315.639L658.926,315.3L659.652,320.142L660.378,324.041L661.104,327.613L661.83,331.298L662.556,334.461L663.282,335.681L664.008,339.278L664.734,342.907L665.46,344.73L666.186,346.057L666.912,348.321L667.638,349.22L668.364,351.17L669.09,353.346L669.816,354.566L670.542,354.037L671.268,354.798L671.994,354.509L672.72,354.792L673.446,355.314L674.172,356.188L674.898,357.251L675.624,359.402L676.35,361.313L677.076,362.364L677.802,363.678L678.528,363.829L679.254,364.106L679.98,364.011L680.706,363.571L681.431,363.005L682.157,362.948L682.883,362.716L683.609,362.659L684.335,362.37L685.061,360.691L685.787,359.364L686.513,356.748L687.239,356.698L687.965,356.1L688.691,356.49L689.417,356.974L690.143,356.767L690.869,356.132L691.595,356.207L692.321,355.704L693.047,352.799L693.773,352.17L694.499,352.635L695.225,350.994L695.951,350.761L696.677,350.811L697.403,350.069L698.129,349.786L698.855,349.623L699.581,349.321L700.307,348.315L701.033,347.139L701.759,344.875L702.485,345.158L703.211,345.409L703.937,345.548L704.663,345.202L705.389,346.504L706.115,348.39L706.84,349.629L707.566,352.767L708.292,352.968L709.018,353.56L709.744,354.585L710.47,354.585L711.196,355.943L711.922,356.823L712.648,357.138L713.374,358.402L714.1,362.181L714.826,362.005L715.552,361.571L716.278,362.942L717.004,362.313L717.73,362.603L718.456,363.716L719.182,363.785L719.908,364.156L720.634,365.489L721.36,366.873L722.086,368.659L722.812,371.382L723.538,370.463L724.264,370.268L724.99,371.545L725.716,372.507L726.442,372.507L727.168,372.275L727.894,372.608L728.62,371.495L729.346,371.985L730.072,371.243L730.798,369.319L731.524,368.426L732.249,365.973L732.975,364.911L733.701,365.25L734.427,365.37L735.153,365.137L735.879,365.873L736.605,366.476L737.331,367.074L738.057,367.64L738.783,366.476L739.509,365.357L740.235,365.904L740.961,364.992L741.687,365.244L742.413,365.602L743.139,364.584L743.865,364.389L744.591,365.539L745.317,365.634L746.043,364.439L746.769,363.496L747.495,362.703L748.221,363.018L748.947,362.892L749.673,363.175L750.399,362.754L751.125,363.496L751.851,364.602L752.577,365.489L753.303,367.237L754.029,367.269L754.755,366.483L755.481,366.986L756.207,367.086L756.933,367.244L757.658,367.539L758.384,367.3L759.11,368.155L759.836,369.47L760.562,370.224L761.288,370.652L762.014,372.18L762.74,372.061L763.466,371.771L764.192,372.979L764.918,373.45L765.644,373.312L766.37,372.57L767.096,372.922L767.822,372.551L768.548,373.488L769.274,373.394L770,373.928"/></g></svg>