<?xml version="1.0"?>
<svg xmlns="http://www.w3.org/2000/svg" xmlns:xlink="http://www.w3.org/1999/xlink" class="plot-d6a7b5" fill="currentColor" font-family="system-ui, sans-serif" font-size="10" text-anchor="middle" width="830" height="470" viewBox="0 0 830 470" color="#1e90ff">
  <style>:where(.plot-d6a7b5){--plot-background: white;display:block;height:intrinsic;max-width:100%}:where(.plot-d6a7b5 text),:where(.plot-d6a7b5 tspan){white-space:pre}</style>
  <g aria-label="y-grid" aria-hidden="true" stroke="currentColor" stroke-opacity=".1">
    <line x1="60" x2="770" y1="410" y2="410"/>
    <line x1="60" x2="770" y1="384.85" y2="384.85"/>
    <line x1="60" x2="770" y1="359.7" y2="359.7"/>
    <line x1="60" x2="770" y1="334.55" y2="334.55"/>
    <line x1="60" x2="770" y1="309.4" y2="309.4"/>
    <line x1="60" x2="770" y1="284.251" y2="284.251"/>
    <line x1="60" x2="770" y1="259.101" y2="259.101"/>
    <line x1="60" x2="770" y1="233.951" y2="233.951"/>
    <line x1="60" x2="770" y1="208.801" y2="208.801"/>
    <line x1="60" x2="770" y1="183.651" y2="183.651"/>
    <line x1="60" x2="770" y1="158.501" y2="158.501"/>
    <line x1="60" x2="770" y1="133.351" y2="133.351"/>
    <line x1="60" x2="770" y1="108.201" y2="108.201"/>
    <line x1="60" x2="770" y1="83.051" y2="83.051"/>
  </g>
  <g aria-label="y-axis tick" aria-hidden="true" fill="none" stroke="currentColor">
    <path transform="translate(60,410)" d="M0,0L-6,0"/>
    <path transform="translate(60,384.8501066355479)" d="M0,0L-6,0"/>
    <path transform="translate(60,359.7002132710957)" d="M0,0L-6,0"/>
    <path transform="translate(60,334.5503199066436)" d="M0,0L-6,0"/>
    <path transform="translate(60,309.4004265421915)" d="M0,0L-6,0"/>
    <path transform="translate(60,284.2505331777393)" d="M0,0L-6,0"/>
    <path transform="translate(60,259.1006398132872)" d="M0,0L-6,0"/>
    <path transform="translate(60,233.95074644883505)" d="M0,0L-6,0"/>
    <path transform="translate(60,208.80085308438294)" d="M0,0L-6,0"/>
    <path transform="translate(60,183.65095971993077)" d="M0,0L-6,0"/>
    <path transform="translate(60,158.50106635547866)" d="M0,0L-6,0"/>
    <path transform="translate(60,133.35117299102652)" d="M0,0L-6,0"/>
    <path transform="translate(60,108.2012796265744)" d="M0,0L-6,0"/>
    <path transform="translate(60,83.05138626212225)" d="M0,0L-6,0"/>
  </g>
  <g aria-label="y-axis tick label" text-anchor="end" font-variant="tabular-nums">
    <text y=".32em" transform="translate(-9,0) translate(60,410)">0</text>
    <text y=".32em" transform="translate(-9,0) translate(60,384.8501066355479)">50,000</text>
    <text y=".32em" transform="translate(-9,0) translate(60,359.7002132710957)">100,000</text>
    <text y=".32em" transform="translate(-9,0) translate(60,334.5503199066436)">150,000</text>
    <text y=".32em" transform="translate(-9,0) translate(60,309.4004265421915)">200,000</text>
    <text y=".32em" transform="translate(-9,0) translate(60,284.2505331777393)">250,000</text>
    <text y=".32em" transform="translate(-9,0) translate(60,259.1006398132872)">300,000</text>
    <text y=".32em" transform="translate(-9,0) translate(60,233.95074644883505)">350,000</text>
    <text y=".32em" transform="translate(-9,0) translate(60,208.80085308438294)">400,000</text>
    <text y=".32em" transform="translate(-9,0) translate(60,183.65095971993077)">450,000</text>
    <text y=".32em" transform="translate(-9,0) translate(60,158.50106635547866)">500,000</text>
    <text y=".32em" transform="translate(-9,0) translate(60,133.35117299102652)">550,000</text>
    <text y=".32em" transform="translate(-9,0) translate(60,108.2012796265744)">600,000</text>
    <text y=".32em" transform="translate(-9,0) translate(60,83.05138626212225)">650,000</text>
  </g>
  <g aria-label="y-axis label" text-anchor="start">
    <text y=".71em" transform="translate(-57,-57) translate(60,60)">&#x2191; Total Vestiges</text>
  </g>
  <g aria-label="x-axis tick" aria-hidden="true" fill="none" stroke="currentColor">
    <path transform="translate(84.76744186046511,410)" d="M0,0L0,6"/>
    <path transform="translate(151.05677154582762,410)" d="M0,0L0,6"/>
    <path transform="translate(218.07455540355676,410)" d="M0,0L0,6"/>
    <path transform="translate(285.0923392612859,410)" d="M0,0L0,6"/>
    <path transform="translate(351.38166894664846,410)" d="M0,0L0,6"/>
    <path transform="translate(417.6709986320109,410)" d="M0,0L0,6"/>
    <path transform="translate(484.6887824897401,410)" d="M0,0L0,6"/>
    <path transform="translate(551.7065663474692,410)" d="M0,0L0,6"/>
    <path transform="translate(617.267441860465,410)" d="M0,0L0,6"/>
    <path transform="translate(683.5567715458276,410)" d="M0,0L0,6"/>
    <path transform="translate(750.5745554035567,410)" d="M0,0L0,6"/>
  </g>
  <g aria-label="x-axis tick label" font-variant="tabular-nums">
    <text transform="translate(0,9) translate(84.76744186046511,410)">
      <tspan x="0" y=".71em">Apr</tspan>
      <tspan x="0" dy="1em">2023</tspan>
    </text>
    <text y=".71em" transform="translate(0,9) translate(151.05677154582762,410)">Jul</text>
    <text y=".71em" transform="translate(0,9) translate(218.07455540355676,410)">Oct</text>
    <text transform="translate(0,9) translate(285.0923392612859,410)">
      <tspan x="0" y=".71em">Jan</tspan>
      <tspan x="0" dy="1em">2024</tspan>
    </text>
    <text y=".71em" transform="translate(0,9) translate(351.38166894664846,410)">Apr</text>
    <text y=".71em" transform="translate(0,9) translate(417.6709986320109,410)">Jul</text>
    <text y=".71em" transform="translate(0,9) translate(484.6887824897401,410)">Oct</text>
    <text transform="translate(0,9) translate(551.7065663474692,410)">
      <tspan x="0" y=".71em">Jan</tspan>
      <tspan x="0" dy="1em">2025</tspan>
    </text>
    <text y=".71em" transform="translate(0,9) translate(617.267441860465,410)">Apr</text>
    <text y=".71em" transform="translate(0,9) translate(683.5567715458276,410)">Jul</text>
    <text y=".71em" transform="translate(0,9) translate(750.5745554035567,410)">Oct</text>
  </g>
  <g aria-label="line" fill="none" stroke="currentColor" stroke-width="1.5" stroke-linejoin="round" stroke-linecap="round">
    <path d="M60,
410.00L
60.49,
409.75L
60.97,
408.82L
61.46,
408.33L
61.94,
407.97L
62.43,
407.39L
62.91,
406.93L
63.40,
406.50L
63.89,
405.63L
64.37,
404.94L
64.86,
404.13L
65.34,
402.86L
65.83,
401.67L
66.31,
401.05L
66.80,
400.15L
67.29,
399.54L
67.77,
398.84L
68.26,
397.93L
68.74,
397.31L
69.23,
396.71L
69.71,
395.89L
70.20,
394.99L
70.68,
394.35L
71.17,
393.25L
71.66,
392.73L
72.14,
392.25L
72.63,
391.37L
73.11,
390.54L
73.60,
389.89L
74.08,
388.99L
74.57,
388.10L
75.06,
387.28L
75.54,
386.02L
76.03,
385.02L
76.51,
384.44L
77.00,
383.83L
77.48,
383.38L
77.97,
383.01L
78.45,
382.33L
78.94,
381.66L
79.43,
381.20L
79.91,
380.12L
80.40,
379.00L
80.88,
377.99L
81.37,
376.77L
81.85,
375.94L
82.34,
375.23L
82.83,
374.27L
83.31,
373.47L
83.80,
372.89L
84.28,
371.84L
84.77,
370.83L
85.25,
369.88L
85.74,
368.52L
86.22,
367.24L
86.71,
366.57L
87.20,
365.57L
87.68,
364.68L
88.17,
363.88L
88.65,
362.74L
89.14,
361.67L
89.62,
360.74L
90.11,
359.63L
90.60,
358.56L
91.08,
357.64L
91.57,
356.40L
92.05,
355.63L
92.54,
354.95L
93.02,
353.99L
93.51,
353.20L
94.00,
352.62L
94.48,
351.86L
94.97,
351.04L
95.45,
350.28L
95.94,
349.28L
96.42,
348.29L
96.91,
347.73L
97.39,
346.95L
97.88,
346.34L
98.37,
345.93L
98.85,
345.31L
99.34,
344.69L
99.82,
344.04L
100.31,
343.18L
100.79,
342.32L
101.28,
341.64L
101.77,
340.71L
102.25,
340.05L
102.74,
339.62L
103.22,
338.64L
103.71,
337.96L
104.19,
337.59L
104.68,
336.97L
105.16,
336.37L
105.65,
335.75L
106.14,
334.90L
106.62,
334.16L
107.11,
333.53L
107.59,
332.97L
108.08,
332.48L
108.56,
332.01L
109.05,
331.24L
109.54,
330.80L
110.02,
330.35L
110.51,
329.62L
110.99,
328.80L
111.48,
328.15L
111.96,
327.32L
112.45,
326.77L
112.93,
326.25L
113.42,
325.49L
113.91,
324.98L
114.39,
324.49L
114.88,
323.83L
115.36,
323.32L
115.85,
322.70L
116.33,
322.05L
116.82,
321.45L
117.31,
320.96L
117.79,
320.44L
118.28,
319.99L
118.76,
319.57L
119.25,
318.97L
119.73,
318.51L
120.22,
318.10L
120.71,
317.42L
121.19,
316.54L
121.68,
315.90L
122.16,
315.06L
122.65,
314.56L
123.13,
313.99L
123.62,
313.39L
124.10,
312.85L
124.59,
312.47L
125.08,
311.72L
125.56,
311.13L
126.05,
310.51L
126.53,
309.60L
127.02,
308.94L
127.50,
308.36L
127.99,
307.76L
128.48,
307.11L
128.96,
306.61L
129.45,
306.12L
129.93,
305.47L
130.42,
305.09L
130.90,
304.58L
131.39,
304.12L
131.87,
303.69L
132.36,
303.08L
132.85,
302.64L
133.33,
302.18L
133.82,
301.57L
134.30,
301.13L
134.79,
300.73L
135.27,
300.29L
135.76,
299.77L
136.25,
299.29L
136.73,
298.78L
137.22,
298.23L
137.70,
297.80L
138.19,
297.27L
138.67,
296.83L
139.16,
296.39L
139.64,
295.78L
140.13,
295.27L
140.62,
294.87L
141.10,
294.34L
141.59,
293.84L
142.07,
293.48L
142.56,
292.86L
143.04,
292.38L
143.53,
291.89L
144.01,
291.35L
144.50,
290.89L
144.99,
290.61L
145.47,
290.11L
145.96,
289.69L
146.44,
289.20L
146.93,
288.62L
147.42,
288.16L
147.90,
287.65L
148.39,
287.09L
148.87,
286.58L
149.36,
286.14L
149.84,
285.41L
150.33,
284.82L
150.81,
284.48L
151.30,
283.93L
151.79,
283.45L
152.27,
283.15L
152.76,
282.64L
153.24,
282.30L
153.73,
281.91L
154.21,
281.42L
154.70,
280.98L
155.19,
280.62L
155.67,
280.06L
156.16,
279.65L
156.64,
279.27L
157.13,
278.75L
157.61,
278.28L
158.10,
277.91L
158.58,
277.34L
159.07,
276.98L
159.56,
276.57L
160.04,
276.05L
160.53,
275.63L
161.01,
275.15L
161.50,
274.60L
161.98,
274.11L
162.47,
273.71L
162.96,
273.24L
163.44,
272.68L
163.93,
272.25L
164.41,
271.85L
164.90,
271.42L
165.38,
271.09L
165.87,
270.53L
166.35,
270.18L
166.84,
269.79L
167.33,
269.29L
167.81,
268.89L
168.30,
268.41L
168.78,
267.77L
169.27,
267.29L
169.75,
267.01L
170.24,
266.35L
170.73,
265.87L
171.21,
265.44L
171.70,
264.85L
172.18,
264.44L
172.67,
264.01L
173.15,
263.51L
173.64,
263.00L
174.12,
262.57L
174.61,
261.92L
175.10,
261.42L
175.58,
260.98L
176.07,
260.45L
176.55,
259.87L
177.04,
259.27L
177.52,
258.39L
178.01,
257.85L
178.50,
257.44L
178.98,
256.89L
179.47,
256.45L
179.95,
256.13L
180.44,
255.63L
180.92,
255.20L
181.41,
254.89L
181.90,
254.39L
182.38,
253.93L
182.87,
253.60L
183.35,
253.07L
183.84,
252.57L
184.32,
252.19L
184.81,
251.70L
185.29,
251.08L
185.78,
250.55L
186.27,
249.90L
186.75,
249.44L
187.24,
248.99L
187.72,
248.33L
188.21,
247.83L
188.69,
247.37L
189.18,
246.82L
189.67,
246.36L
190.15,
246.06L
190.64,
245.61L
191.12,
245.28L
191.61,
244.91L
192.09,
244.47L
192.58,
244.02L
193.06,
243.61L
193.55,
243.20L
194.04,
242.77L
194.52,
242.41L
195.01,
242.01L
195.49,
241.61L
195.98,
241.27L
196.46,
240.89L
196.95,
240.49L
197.44,
240.06L
197.92,
239.54L
198.41,
239.17L
198.89,
238.78L
199.38,
238.36L
199.86,
238.05L
200.35,
237.73L
200.83,
237.38L
201.32,
237.17L
201.81,
236.92L
202.29,
236.33L
202.78,
235.93L
203.26,
235.55L
203.75,
235.03L
204.23,
234.81L
204.72,
234.53L
205.21,
234.25L
205.69,
234.04L
206.18,
233.71L
206.66,
233.37L
207.15,
232.99L
207.63,
232.59L
208.12,
231.94L
208.61,
231.40L
209.09,
231.10L
209.58,
230.71L
210.06,
230.43L
210.55,
230.11L
211.03,
229.73L
211.52,
229.39L
212.00,
229.12L
212.49,
228.71L
212.98,
228.25L
213.46,
227.92L
213.95,
227.46L
214.43,
227.23L
214.92,
227.00L
215.40,
226.69L
215.89,
226.40L
216.38,
226.15L
216.86,
225.73L
217.35,
225.38L
217.83,
225.02L
218.32,
224.54L
218.80,
224.18L
219.29,
223.99L
219.77,
223.64L
220.26,
223.38L
220.75,
223.14L
221.23,
222.85L
221.72,
222.55L
222.20,
222.22L
222.69,
221.78L
223.17,
221.31L
223.66,
220.84L
224.15,
220.35L
224.63,
220.00L
225.12,
219.73L
225.60,
219.39L
226.09,
219.11L
226.57,
218.81L
227.06,
218.40L
227.54,
218.13L
228.03,
217.88L
228.52,
217.31L
229.00,
216.82L
229.49,
216.52L
229.97,
216.21L
230.46,
215.99L
230.94,
215.82L
231.43,
215.45L
231.92,
215.20L
232.40,
214.96L
232.89,
214.48L
233.37,
213.97L
233.86,
213.59L
234.34,
213.07L
234.83,
212.80L
235.32,
212.54L
235.80,
212.11L
236.29,
211.83L
236.77,
211.56L
237.26,
211.18L
237.74,
210.78L
238.23,
210.52L
238.71,
210.09L
239.20,
209.81L
239.69,
209.63L
240.17,
209.25L
240.66,
208.99L
241.14,
208.84L
241.63,
208.60L
242.11,
208.36L
242.60,
207.96L
243.09,
207.48L
243.57,
207.01L
244.06,
206.69L
244.54,
206.37L
245.03,
206.19L
245.51,
205.92L
246.00,
205.59L
246.48,
205.42L
246.97,
205.23L
247.46,
204.91L
247.94,
204.72L
248.43,
204.45L
248.91,
204.15L
249.40,
203.89L
249.88,
203.72L
250.37,
203.48L
250.86,
203.35L
251.34,
203.18L
251.83,
202.94L
252.31,
202.77L
252.80,
202.66L
253.28,
202.29L
253.77,
201.92L
254.25,
201.55L
254.74,
201.19L
255.23,
200.91L
255.71,
200.74L
256.20,
200.46L
256.68,
200.29L
257.17,
200.05L
257.65,
199.69L
258.14,
199.40L
258.63,
199.15L
259.11,
198.77L
259.60,
198.50L
260.08,
198.24L
260.57,
197.94L
261.05,
197.68L
261.54,
197.40L
262.02,
196.98L
262.51,
196.73L
263.00,
196.49L
263.48,
196.24L
263.97,
195.96L
264.45,
195.68L
264.94,
195.37L
265.42,
195.19L
265.91,
195.08L
266.40,
194.82L
266.88,
194.60L
267.37,
194.42L
267.85,
194.22L
268.34,
194.02L
268.82,
193.87L
269.31,
193.63L
269.80,
193.41L
270.28,
193.28L
270.77,
192.99L
271.25,
192.72L
271.74,
192.61L
272.22,
192.44L
272.71,
192.30L
273.19,
192.16L
273.68,
191.88L
274.17,
191.59L
274.65,
191.39L
275.14,
191.20L
275.62,
191.00L
276.11,
190.75L
276.59,
190.56L
277.08,
190.41L
277.57,
190.25L
278.05,
189.97L
278.54,
189.80L
279.02,
189.59L
279.51,
189.24L
279.99,
188.96L
280.48,
188.81L
280.96,
188.58L
281.45,
188.29L
281.94,
188.05L
282.42,
187.75L
282.91,
187.52L
283.39,
187.27L
283.88,
186.96L
284.36,
186.73L
284.85,
186.51L
285.33,
186.23L
285.82,
186.00L
286.31,
185.78L
286.79,
185.44L
287.28,
185.24L
287.76,
185.08L
288.25,
184.75L
288.74,
184.63L
289.22,
184.44L
289.71,
184.11L
290.19,
183.95L
290.68,
183.75L
291.16,
183.51L
291.65,
183.37L
292.13,
183.22L
292.62,
183.07L
293.11,
182.96L
293.59,
182.75L
294.08,
182.47L
294.56,
182.21L
295.05,
181.90L
295.53,
181.52L
296.02,
181.35L
296.51,
181.14L
296.99,
180.94L
297.48,
180.67L
297.96,
180.37L
298.45,
180.14L
298.93,
179.98L
299.42,
179.71L
299.90,
179.39L
300.39,
178.94L
300.88,
178.66L
301.36,
178.31L
301.85,
178.12L
302.33,
177.94L
302.82,
177.69L
303.30,
177.59L
303.79,
177.43L
304.27,
177.04L
304.76,
176.62L
305.25,
176.30L
305.73,
175.87L
306.22,
175.63L
306.70,
175.42L
307.19,
175.17L
307.67,
174.93L
308.16,
174.72L
308.65,
174.40L
309.13,
174.20L
309.62,
173.88L
310.10,
173.39L
310.59,
173.06L
311.07,
172.81L
311.56,
172.45L
312.05,
172.20L
312.53,
172.03L
313.02,
171.65L
313.50,
171.35L
313.99,
171.02L
314.47,
170.69L
314.96,
170.30L
315.45,
169.79L
315.93,
169.23L
316.42,
168.93L
316.90,
168.61L
317.39,
168.15L
317.87,
167.83L
318.36,
167.60L
318.84,
167.29L
319.33,
167.04L
319.82,
166.78L
320.30,
166.37L
320.79,
166.00L
321.27,
165.85L
321.76,
165.53L
322.24,
165.25L
322.73,
164.94L
323.21,
164.62L
323.70,
164.43L
324.19,
164.16L
324.67,
163.74L
325.16,
163.36L
325.64,
163.11L
326.13,
162.72L
326.61,
162.52L
327.10,
162.27L
327.58,
161.99L
328.07,
161.80L
328.56,
161.59L
329.04,
161.30L
329.53,
161.07L
330.01,
160.83L
330.50,
160.40L
330.99,
160.16L
331.47,
159.96L
331.96,
159.77L
332.44,
159.60L
332.93,
159.37L
333.41,
159.16L
333.90,
159.03L
334.38,
158.87L
334.87,
158.52L
335.36,
158.30L
335.84,
158.14L
336.33,
157.81L
336.81,
157.59L
337.30,
157.49L
337.78,
157.29L
338.27,
157.04L
338.76,
156.84L
339.24,
156.58L
339.73,
156.29L
340.21,
156.01L
340.70,
155.59L
341.18,
155.30L
341.67,
155.11L
342.16,
155.07L
342.64,
155.07L
343.13,
155.07L
343.61,
155.06L
344.10,
155.06L
344.58,
155.06L
345.07,
155.05L
345.55,
155.03L
346.04,
155.01L
346.53,
155.00L
347.01,
154.97L
347.50,
154.93L
347.98,
154.90L
348.47,
154.86L
348.95,
154.78L
349.44,
154.67L
349.93,
154.41L
350.41,
154.23L
350.90,
154.06L
351.38,
153.91L
351.87,
153.77L
352.35,
153.60L
352.84,
153.39L
353.32,
153.21L
353.81,
152.98L
354.30,
152.75L
354.78,
152.55L
355.27,
152.30L
355.75,
152.11L
356.24,
151.96L
356.72,
151.75L
357.21,
151.53L
357.70,
151.43L
358.18,
151.28L
358.67,
151.07L
359.15,
150.95L
359.64,
150.82L
360.12,
150.63L
360.61,
150.48L
361.09,
150.26L
361.58,
150.07L
362.07,
149.96L
362.55,
149.79L
363.04,
149.64L
363.52,
149.51L
364.01,
149.41L
364.49,
149.29L
364.98,
149.22L
365.47,
149.09L
365.95,
148.96L
366.44,
148.79L
366.92,
148.55L
367.41,
148.39L
367.89,
148.29L
368.38,
148.08L
368.87,
147.92L
369.35,
147.77L
369.84,
147.62L
370.32,
147.41L
370.81,
147.26L
371.29,
147.06L
371.78,
146.92L
372.26,
146.81L
372.75,
146.64L
373.24,
146.46L
373.72,
146.27L
374.21,
146.15L
374.69,
145.98L
375.18,
145.83L
375.66,
145.65L
376.15,
145.39L
376.64,
145.19L
377.12,
144.94L
377.61,
144.80L
378.09,
144.68L
378.58,
144.51L
379.06,
144.34L
379.55,
144.20L
380.03,
144.01L
380.52,
143.79L
381.01,
143.65L
381.49,
143.41L
381.98,
143.19L
382.46,
143.02L
382.95,
142.77L
383.43,
142.62L
383.92,
142.51L
384.41,
142.42L
384.89,
142.29L
385.38,
142.14L
385.86,
141.97L
386.35,
141.61L
386.83,
141.43L
387.32,
141.16L
387.80,
141.03L
388.29,
140.91L
388.78,
140.76L
389.26,
140.53L
389.75,
140.45L
390.23,
140.29L
390.72,
140.10L
391.20,
139.94L
391.69,
139.69L
392.18,
139.38L
392.66,
139.21L
393.15,
138.94L
393.63,
138.81L
394.12,
138.64L
394.60,
138.34L
395.09,
138.12L
395.58,
137.96L
396.06,
137.72L
396.55,
137.45L
397.03,
137.31L
397.52,
136.99L
398.00,
136.84L
398.49,
136.69L
398.97,
136.48L
399.46,
136.26L
399.95,
136.11L
400.43,
135.86L
400.92,
135.66L
401.40,
135.46L
401.89,
135.16L
402.37,
134.87L
402.86,
134.65L
403.35,
134.45L
403.83,
134.18L
404.32,
134.01L
404.80,
133.84L
405.29,
133.69L
405.77,
133.47L
406.26,
133.29L
406.74,
133.09L
407.23,
132.91L
407.72,
132.71L
408.20,
132.49L
408.69,
132.43L
409.17,
132.32L
409.66,
132.17L
410.14,
132.05L
410.63,
131.75L
411.12,
131.58L
411.60,
131.46L
412.09,
131.30L
412.57,
130.96L
413.06,
130.85L
413.54,
130.68L
414.03,
130.45L
414.51,
130.27L
415.00,
130.16L
415.49,
130.01L
415.97,
129.91L
416.46,
129.78L
416.94,
129.64L
417.43,
129.48L
417.91,
129.21L
418.40,
129.01L
418.89,
128.88L
419.37,
128.64L
419.86,
128.47L
420.34,
128.29L
420.83,
128.16L
421.31,
128.03L
421.80,
127.93L
422.29,
127.76L
422.77,
127.57L
423.26,
127.48L
423.74,
127.37L
424.23,
127.25L
424.71,
127.14L
425.20,
127.00L
425.68,
126.84L
426.17,
126.66L
426.66,
126.47L
427.14,
126.36L
427.63,
126.25L
428.11,
126.07L
428.60,
125.91L
429.08,
125.81L
429.57,
125.63L
430.06,
125.46L
430.54,
125.33L
431.03,
125.17L
431.51,
125.00L
432.00,
124.82L
432.48,
124.58L
432.97,
124.25L
433.45,
124.04L
433.94,
123.82L
434.43,
123.67L
434.91,
123.52L
435.40,
123.32L
435.88,
123.18L
436.37,
123.07L
436.85,
122.93L
437.34,
122.79L
437.83,
122.63L
438.31,
122.47L
438.80,
122.23L
439.28,
122.06L
439.77,
121.79L
440.25,
121.53L
440.74,
121.27L
441.22,
121.01L
441.71,
120.77L
442.20,
120.50L
442.68,
120.21L
443.17,
120.07L
443.65,
119.87L
444.14,
119.53L
444.62,
119.35L
445.11,
119.18L
445.60,
118.96L
446.08,
118.80L
446.57,
118.72L
447.05,
118.26L
447.54,
117.85L
448.02,
117.45L
448.51,
117.02L
449.00,
116.67L
449.48,
116.42L
449.97,
116.03L
450.45,
115.62L
450.94,
115.37L
451.42,
115.13L
451.91,
114.84L
452.39,
114.57L
452.88,
114.28L
453.37,
113.95L
453.85,
113.73L
454.34,
113.60L
454.82,
113.36L
455.31,
113.22L
455.79,
113.07L
456.28,
112.88L
456.77,
112.70L
457.25,
112.49L
457.74,
112.23L
458.22,
111.98L
458.71,
111.78L
459.19,
111.58L
459.68,
111.41L
460.16,
111.25L
460.65,
111.15L
461.14,
111.07L
461.62,
110.98L
462.11,
110.86L
462.59,
110.72L
463.08,
110.63L
463.56,
110.48L
464.05,
110.37L
464.54,
110.25L
465.02,
110.15L
465.51,
110.01L
465.99,
109.91L
466.48,
109.71L
466.96,
109.57L
467.45,
109.42L
467.93,
109.30L
468.42,
109.12L
468.91,
108.94L
469.39,
108.78L
469.88,
108.66L
470.36,
108.51L
470.85,
108.40L
471.33,
108.27L
471.82,
108.19L
472.31,
108.08L
472.79,
107.97L
473.28,
107.88L
473.76,
107.72L
474.25,
107.58L
474.73,
107.47L
475.22,
107.35L
475.71,
107.22L
476.19,
107.10L
476.68,
106.94L
477.16,
106.84L
477.65,
106.67L
478.13,
106.43L
478.62,
106.20L
479.10,
105.89L
479.59,
105.75L
480.08,
105.59L
480.56,
105.43L
481.05,
105.33L
481.53,
105.16L
482.02,
104.99L
482.50,
104.82L
482.99,
104.60L
483.48,
104.21L
483.96,
104.03L
484.45,
103.92L
484.93,
103.68L
485.42,
103.53L
485.90,
103.45L
486.39,
103.29L
486.87,
103.16L
487.36,
103.05L
487.85,
102.86L
488.33,
102.65L
488.82,
102.44L
489.30,
102.15L
489.79,
102.03L
490.27,
101.93L
490.76,
101.79L
491.25,
101.66L
491.73,
101.59L
492.22,
101.50L
492.70,
101.37L
493.19,
101.31L
493.67,
101.19L
494.16,
101.08L
494.64,
101.00L
495.13,
100.90L
495.62,
100.84L
496.10,
100.74L
496.59,
100.59L
497.07,
100.47L
497.56,
100.38L
498.04,
100.19L
498.53,
100.05L
499.02,
99.91L
499.50,
99.72L
499.99,
99.66L
500.47,
99.59L
500.96,
99.46L
501.44,
99.38L
501.93,
99.30L
502.42,
99.20L
502.90,
99.13L
503.39,
99.06L
503.87,
98.87L
504.36,
98.75L
504.84,
98.71L
505.33,
98.66L
505.81,
98.59L
506.30,
98.48L
506.79,
98.38L
507.27,
98.23L
507.76,
98.15L
508.24,
97.98L
508.73,
97.74L
509.21,
97.57L
509.70,
97.31L
510.19,
97.13L
510.67,
97.01L
511.16,
96.90L
511.64,
96.79L
512.13,
96.66L
512.61,
96.56L
513.10,
96.48L
513.58,
96.33L
514.07,
96.18L
514.55,
96.02L
515.04,
95.93L
515.53,
95.78L
516.01,
95.72L
516.50,
95.65L
516.98,
95.50L
517.47,
95.41L
517.96,
95.31L
518.44,
95.20L
518.93,
95.07L
519.41,
94.94L
519.90,
94.81L
520.38,
94.73L
520.87,
94.61L
521.35,
94.48L
521.84,
94.37L
522.33,
94.26L
522.81,
94.11L
523.30,
94.01L
523.78,
93.89L
524.27,
93.71L
524.75,
93.53L
525.24,
93.46L
525.73,
93.36L
526.21,
93.24L
526.70,
93.17L
527.18,
93.06L
527.67,
92.98L
528.15,
92.94L
528.64,
92.84L
529.12,
92.78L
529.61,
92.76L
530.10,
92.69L
530.58,
92.59L
531.07,
92.54L
531.55,
92.49L
532.04,
92.38L
532.52,
92.21L
533.01,
92.10L
533.50,
91.95L
533.98,
91.89L
534.47,
91.80L
534.95,
91.73L
535.44,
91.64L
535.92,
91.54L
536.41,
91.49L
536.90,
91.42L
537.38,
91.31L
537.87,
91.22L
538.35,
91.13L
538.84,
90.98L
539.32,
90.83L
539.81,
90.75L
540.29,
90.60L
540.78,
90.52L
541.27,
90.38L
541.75,
90.27L
542.24,
90.22L
542.72,
90.15L
543.21,
90.04L
543.69,
89.96L
544.18,
89.86L
544.67,
89.68L
545.15,
89.63L
545.64,
89.50L
546.12,
89.39L
546.61,
89.31L
547.09,
89.24L
547.58,
89.16L
548.06,
89.09L
548.55,
89.01L
549.04,
88.92L
549.52,
88.78L
550.01,
88.67L
550.49,
88.43L
550.98,
88.25L
551.46,
88.12L
551.95,
87.95L
552.43,
87.83L
552.92,
87.72L
553.41,
87.52L
553.89,
87.32L
554.38,
87.21L
554.86,
87.03L
555.35,
86.91L
555.83,
86.85L
556.32,
86.72L
556.81,
86.63L
557.29,
86.54L
557.78,
86.47L
558.26,
86.33L
558.75,
86.25L
559.23,
86.15L
559.72,
86.05L
560.21,
85.94L
560.69,
85.86L
561.18,
85.77L
561.66,
85.68L
562.15,
85.59L
562.63,
85.46L
563.12,
85.36L
563.61,
85.19L
564.09,
85.08L
564.58,
84.97L
565.06,
84.84L
565.55,
84.71L
566.03,
84.57L
566.52,
84.42L
567.00,
84.31L
567.49,
84.24L
567.98,
84.11L
568.46,
84.00L
568.95,
83.90L
569.43,
83.76L
569.92,
83.62L
570.40,
83.41L
570.89,
83.14L
571.38,
82.95L
571.86,
82.84L
572.35,
82.73L
572.83,
82.64L
573.32,
82.54L
573.80,
82.40L
574.29,
82.31L
574.77,
82.23L
575.26,
82.04L
575.75,
81.88L
576.23,
81.79L
576.72,
81.65L
577.20,
81.53L
577.69,
81.42L
578.17,
81.30L
578.66,
81.14L
579.15,
80.95L
579.63,
80.82L
580.12,
80.70L
580.60,
80.62L
581.09,
80.51L
581.57,
80.42L
582.06,
80.38L
582.54,
80.20L
583.03,
80.13L
583.52,
80.00L
584.00,
79.85L
584.49,
79.72L
584.97,
79.53L
585.46,
79.36L
585.94,
79.24L
586.43,
79.12L
586.92,
78.92L
587.40,
78.82L
587.89,
78.71L
588.37,
78.54L
588.86,
78.43L
589.34,
78.30L
589.83,
78.11L
590.32,
78.03L
590.80,
77.93L
591.29,
77.77L
591.77,
77.67L
592.26,
77.47L
592.74,
77.37L
593.23,
77.19L
593.71,
77.04L
594.20,
76.94L
594.68,
76.85L
595.17,
76.73L
595.66,
76.50L
596.14,
76.27L
596.63,
76.12L
597.11,
75.92L
597.60,
75.80L
598.09,
75.65L
598.57,
75.42L
599.06,
75.25L
599.54,
75.11L
600.03,
74.96L
600.51,
74.86L
601.00,
74.73L
601.48,
74.62L
601.97,
74.49L
602.46,
74.37L
602.94,
74.24L
603.43,
74.13L
603.91,
74.01L
604.40,
73.82L
604.88,
73.68L
605.37,
73.60L
605.86,
73.51L
606.34,
73.41L
606.83,
73.31L
607.31,
73.22L
607.80,
73.16L
608.28,
73.09L
608.77,
72.97L
609.25,
72.92L
609.74,
72.85L
610.23,
72.74L
610.71,
72.64L
611.20,
72.55L
611.68,
72.41L
612.17,
72.34L
612.65,
72.22L
613.14,
72.15L
613.63,
72.00L
614.11,
71.93L
614.60,
71.80L
615.08,
71.76L
615.57,
71.70L
616.05,
71.53L
616.54,
71.44L
617.03,
71.34L
617.51,
71.29L
618.00,
71.22L
618.48,
71.10L
618.97,
71.03L
619.45,
70.96L
619.94,
70.93L
620.42,
70.86L
620.91,
70.83L
621.40,
70.76L
621.88,
70.71L
622.37,
70.60L
622.85,
70.48L
623.34,
70.37L
623.82,
70.33L
624.31,
70.27L
624.79,
70.21L
625.28,
70.18L
625.77,
70.16L
626.25,
70.06L
626.74,
69.99L
627.22,
69.91L
627.71,
69.87L
628.19,
69.81L
628.68,
69.75L
629.17,
69.66L
629.65,
69.63L
630.14,
69.58L
630.62,
69.54L
631.11,
69.46L
631.59,
69.37L
632.08,
69.31L
632.57,
69.25L
633.05,
69.20L
633.54,
69.16L
634.02,
69.12L
634.51,
69.10L
634.99,
69.08L
635.48,
69.05L
635.96,
68.98L
636.45,
68.97L
636.94,
68.94L
637.42,
68.92L
637.91,
68.90L
638.39,
68.88L
638.88,
68.86L
639.36,
68.84L
639.85,
68.83L
640.34,
68.82L
640.82,
68.80L
641.31,
68.74L
641.79,
68.72L
642.28,
68.69L
642.76,
68.69L
643.25,
68.65L
643.74,
68.62L
644.22,
68.58L
644.71,
68.55L
645.19,
68.47L
645.68,
68.44L
646.16,
68.42L
646.65,
68.39L
647.13,
68.35L
647.62,
68.32L
648.11,
68.31L
648.59,
68.30L
649.08,
68.28L
649.56,
68.27L
650.05,
68.24L
650.53,
68.20L
651.02,
68.16L
651.51,
68.13L
651.99,
68.08L
652.48,
68.02L
652.96,
67.98L
653.45,
67.94L
653.93,
67.90L
654.42,
67.89L
654.90,
67.85L
655.39,
67.79L
655.88,
67.76L
656.36,
67.68L
656.85,
67.62L
657.33,
67.57L
657.82,
67.51L
658.30,
67.48L
658.79,
67.46L
659.28,
67.44L
659.76,
67.39L
660.25,
67.30L
660.73,
67.28L
661.22,
67.20L
661.70,
67.15L
662.19,
67.12L
662.67,
67.09L
663.16,
67.08L
663.65,
67.04L
664.13,
67.00L
664.62,
66.95L
665.10,
66.90L
665.59,
66.83L
666.07,
66.79L
666.56,
66.77L
667.05,
66.71L
667.53,
66.68L
668.02,
66.66L
668.50,
66.66L
668.99,
66.63L
669.47,
66.60L
669.96,
66.57L
670.45,
66.52L
670.93,
66.51L
671.42,
66.47L
671.90,
66.45L
672.39,
66.44L
672.87,
66.42L
673.36,
66.40L
673.84,
66.38L
674.33,
66.33L
674.82,
66.31L
675.30,
66.28L
675.79,
66.22L
676.27,
66.17L
676.76,
66.14L
677.24,
66.10L
677.73,
66.04L
678.22,
65.98L
678.70,
65.96L
679.19,
65.92L
679.67,
65.86L
680.16,
65.82L
680.64,
65.80L
681.13,
65.75L
681.61,
65.68L
682.10,
65.67L
682.59,
65.65L
683.07,
65.62L
683.56,
65.55L
684.04,
65.52L
684.53,
65.44L
685.01,
65.40L
685.50,
65.36L
685.99,
65.27L
686.47,
65.21L
686.96,
65.18L
687.44,
65.12L
687.93,
65.10L
688.41,
65.06L
688.90,
65.06L
689.38,
65.03L
689.87,
65.01L
690.36,
64.99L
690.84,
64.96L
691.33,
64.93L
691.81,
64.88L
692.30,
64.83L
692.78,
64.74L
693.27,
64.71L
693.76,
64.67L
694.24,
64.65L
694.73,
64.60L
695.21,
64.56L
695.70,
64.49L
696.18,
64.47L
696.67,
64.44L
697.16,
64.38L
697.64,
64.33L
698.13,
64.32L
698.61,
64.26L
699.10,
64.22L
699.58,
64.22L
700.07,
64.19L
700.55,
64.15L
701.04,
64.10L
701.53,
64.06L
702.01,
64.03L
702.50,
64.01L
702.98,
63.95L
703.47,
63.87L
703.95,
63.83L
704.44,
63.81L
704.93,
63.74L
705.41,
63.70L
705.90,
63.67L
706.38,
63.66L
706.87,
63.63L
707.35,
63.61L
707.84,
63.55L
708.32,
63.52L
708.81,
63.50L
709.30,
63.49L
709.78,
63.44L
710.27,
63.43L
710.75,
63.39L
711.24,
63.36L
711.72,
63.33L
712.21,
63.32L
712.70,
63.32L
713.18,
63.31L
713.67,
63.30L
714.15,
63.29L
714.64,
63.26L
715.12,
63.25L
715.61,
63.23L
716.09,
63.22L
716.58,
63.21L
717.07,
63.18L
717.55,
63.12L
718.04,
63.11L
718.52,
63.07L
719.01,
63.00L
719.49,
62.89L
719.98,
62.80L
720.47,
62.78L
720.95,
62.76L
721.44,
62.73L
721.92,
62.70L
722.41,
62.68L
722.89,
62.65L
723.38,
62.60L
723.87,
62.53L
724.35,
62.50L
724.84,
62.48L
725.32,
62.48L
725.81,
62.45L
726.29,
62.39L
726.78,
62.36L
727.26,
62.34L
727.75,
62.31L
728.24,
62.28L
728.72,
62.23L
729.21,
62.20L
729.69,
62.13L
730.18,
62.13L
730.66,
62.12L
731.15,
62.11L
731.64,
62.08L
732.12,
62.08L
732.61,
62.01L
733.09,
61.99L
733.58,
61.94L
734.06,
61.88L
734.55,
61.88L
735.03,
61.87L
735.52,
61.87L
736.01,
61.86L
736.49,
61.85L
736.98,
61.83L
737.46,
61.83L
737.95,
61.79L
738.43,
61.77L
738.92,
61.75L
739.41,
61.74L
739.89,
61.74L
740.38,
61.74L
740.86,
61.73L
741.35,
61.73L
741.83,
61.73L
742.32,
61.70L
742.80,
61.66L
743.29,
61.57L
743.78,
61.48L
744.26,
61.42L
744.75,
61.41L
745.23,
61.41L
745.72,
61.37L
746.20,
61.34L
746.69,
61.31L
747.18,
61.28L
747.66,
61.20L
748.15,
61.14L
748.63,
61.10L
749.12,
61.04L
749.60,
61.01L
750.09,
60.99L
750.58,
60.96L
751.06,
60.94L
751.55,
60.90L
752.03,
60.85L
752.52,
60.83L
753.00,
60.82L
753.49,
60.77L
753.97,
60.72L
754.46,
60.65L
754.95,
60.64L
755.43,
60.63L
755.92,
60.63L
756.40,
60.61L
756.89,
60.59L
757.37,
60.57L
757.86,
60.57L
758.35,
60.55L
758.83,
60.55L
759.32,
60.52L
759.80,
60.50L
760.29,
60.45L
760.77,
60.44L
761.26,
60.43L
761.74,
60.41L
762.23,
60.39L
762.72,
60.35L
763.20,
60.32L
763.69,
60.28L
764.17,
60.25L
764.66,
60.24L
765.14,
60.23L
765.63,
60.21L
766.12,
60.17L
766.60,
60.17L
767.09,
60.15L
767.57,
60.11L
768.06,
60.07L
768.54,
60.06L
769.03,
60.04L
769.51,
60.02L
770.00,
60"/>
  </g>
</svg>
