<svg xmlns="http://www.w3.org/2000/svg" width="830" height="564" fill="currentColor" class="plot-d6a7b5" font-family="system-ui, sans-serif" font-size="10" style="--plot-background:white;display:block;height:intrinsic;max-width:100%;color:#1e90ff" text-anchor="middle" viewBox="0 0 830 564">
    <style>
        :where(.plot-d6a7b5 text),:where(.plot-d6a7b5 tspan){white-space:pre}
    </style>
    <path stroke="currentColor" stroke-opacity=".1" d="M60 410h710M60 375h710M60 340h710M60 305h710M60 270h710M60 235h710M60 200h710M60 165h710M60 130h710M60 95h710M60 60h710" aria-hidden="true" aria-label="y-grid"/>
    <path fill="none" stroke="currentColor" d="M60 410h-6m6-35h-6m6-35h-6m6-35h-6m6-35h-6m6-35h-6m6-35h-6m6-35h-6m6-35h-6m6-35h-6m6-35h-6" aria-hidden="true" aria-label="y-axis tick"/>
    <g aria-label="y-axis tick label" font-variant="tabular-nums" text-anchor="end">
        <text y=".32em" transform="translate(51 410)">0%</text>
        <text y=".32em" transform="translate(51 375)">10%</text>
        <text y=".32em" transform="translate(51 340)">20%</text>
        <text y=".32em" transform="translate(51 305)">30%</text>
        <text y=".32em" transform="translate(51 270)">40%</text>
        <text y=".32em" transform="translate(51 235)">50%</text>
        <text y=".32em" transform="translate(51 200)">60%</text>
        <text y=".32em" transform="translate(51 165)">70%</text>
        <text y=".32em" transform="translate(51 130)">80%</text>
        <text y=".32em" transform="translate(51 95)">90%</text>
        <text y=".32em" transform="translate(51 60)">100%</text>
    </g>
    <text y=".71em" aria-label="y-axis label" text-anchor="start" transform="translate(3 3)">↑ Frequency</text>
    <path fill="none" stroke="currentColor" d="M78.63 410v6m62.789-6v6m63.479-6v6m63.479-6v6m62.789-6v6m62.789-6v6m63.479-6v6m63.48-6v6m62.099-6v6m62.789-6v6m63.478-6v6" aria-hidden="true" aria-label="x-axis tick"/>
    <g aria-label="x-axis tick label" font-variant="tabular-nums">
        <text transform="translate(78.63 419)"><tspan x="0" y=".71em">Apr</tspan><tspan x="0" dy="1em">2023</tspan></text>
        <text y=".71em" transform="translate(141.419 419)">Jul</text>
        <text y=".71em" transform="translate(204.898 419)">Oct</text>
        <text transform="translate(268.377 419)"><tspan x="0" y=".71em">Jan</tspan><tspan x="0" dy="1em">2024</tspan></text>
        <text y=".71em" transform="translate(331.166 419)">Apr</text>
        <text y=".71em" transform="translate(393.955 419)">Jul</text>
        <text y=".71em" transform="translate(457.434 419)">Oct</text>
        <text transform="translate(520.914 419)"><tspan x="0" y=".71em">Jan</tspan><tspan x="0" dy="1em">2025</tspan></text>
        <text y=".71em" transform="translate(583.013 419)">Apr</text>
        <text y=".71em" transform="translate(645.802 419)">Jul</text>
        <text y=".71em" transform="translate(709.28 419)">Oct</text>
    </g>
    <text aria-label="x-axis label" text-anchor="end" transform="translate(827 467)">timestamp →</text>
    <g aria-label="rect">
        <path fill="#00000f" d="M60.5 256.21h3.83V410H60.5zm4.83 2.934h3.83V410h-3.83zm4.83-3.648h3.83V410h-3.83zm4.83-20.204h3.83V410h-3.83zm4.83-2.874h3.83V410h-3.83zm4.83 8.707h3.83V410h-3.83zm4.83 22.342h3.83V410h-3.83zm4.83-9.421h3.83V410h-3.83zm4.829 3.243h3.83V410h-3.83zm4.83 12.12h3.83V410h-3.83zm4.83-6.51h3.83V410h-3.83zm4.83-14.054h3.83V410h-3.83zm4.83 1.751h3.83V410h-3.83zm4.83 6.831h3.83V410h-3.83zm4.83-5.823h3.83V410h-3.83zm4.83-19.056h3.83V410h-3.83zm4.83 38.722h3.83V410h-3.83zm4.83 9.31h3.83V410h-3.83zm4.83-1.386h3.83V410h-3.83zm4.83-21.948h3.83V410h-3.83zm4.83-16.643h3.83V410h-3.83zm4.83-10.917h3.83V410h-3.83zm4.83 27.586h3.83V410h-3.83zm4.829-11.415h3.83V410h-3.83zm4.83 7.574h3.83V410h-3.83zm4.83 8.796h3.83V410h-3.83zm4.83-25.594h3.83V410h-3.83zm4.83 5.815h3.83V410h-3.83zm4.83-3.282h3.83V410h-3.83zm4.83 1.988h3.83V410h-3.83zm4.83 7.401h3.83V410h-3.83zm4.83 16.685h3.83V410h-3.83zm4.83 13.393h3.83V410h-3.83zm4.83-18.28h3.83V410h-3.83zm4.83 3.162h3.83V410h-3.83zm4.83-4.583h3.83V410h-3.83zm4.83-14.073h3.83V410h-3.83zm4.829 3.054h3.83V410h-3.83zm4.83-14.196h3.83V410h-3.83zm4.83 19.435h3.83V410h-3.83zm4.83-1.754h3.83V410h-3.83zm4.83-13.029h3.83V410h-3.83zm4.83 23.039h3.83V410h-3.83zm4.83 24.169h3.83V410h-3.83zm4.83 4.323h3.83V410h-3.83zm4.83-17.275h3.83V410h-3.83zm4.83 7.293h3.83V410h-3.83zm4.83-41.904h3.83V410h-3.83zm4.83 36.798h3.83V410h-3.83zm4.83-25.925h3.83V410h-3.83zm4.83 14.529h3.83V410h-3.83zm4.83-9.58h3.83V410h-3.83zm4.829-5.292h3.83V410h-3.83zm4.83-21.911h3.83V410h-3.83zm4.83 21.086h3.83V410h-3.83zm4.83 48.506h3.83V410h-3.83zm4.83-41.52h3.83V410h-3.83zm4.83 35.636h3.83V410h-3.83zm4.83-36.183h3.83V410h-3.83zm4.83 23.162h3.83V410h-3.83zm4.83-45.475h3.83V410h-3.83zm4.83 23.484h3.83V410h-3.83zm4.83 20.467h3.83V410h-3.83zm4.83-11.384h3.83V410h-3.83zm4.83-14.288h3.83V410h-3.83zm4.83 34.946h3.83V410h-3.83zm4.83-2.706h3.83V410h-3.83zm4.829-7.45h3.83V410h-3.83zm4.83-8.93h3.83V410h-3.83zm4.83-43.308h3.83V410h-3.83zm4.83 32.439h3.83V410h-3.83zm4.83 4.623h3.83V410h-3.83zm4.83 3.672h3.83V410h-3.83zm4.83 15.079h3.83V410h-3.83zm4.83 2.355h3.83V410h-3.83zm4.83 28.768h3.83V410h-3.83zm4.83-56.846h3.83V410h-3.83zm4.83-10.537h3.83V410h-3.83zm4.83-13.883h3.83V410h-3.83zm4.83 13.793h3.83V410h-3.83zm4.83 15.483h3.83V410h-3.83zm4.829-3.987h3.83V410h-3.83zm4.83 19.59h3.83V410h-3.83zm4.83 18.506h3.83V410h-3.83zm4.83-.963h3.83V410h-3.83zm4.83-5.253h3.83V410h-3.83zm4.83-33.302h3.83V410h-3.83zm4.83 41.393h3.83V410h-3.83zm4.83-17.332h3.83V410h-3.83zm4.83-6.947h3.83V410h-3.83zm4.83-9.18h3.83V410h-3.83zm4.83-60.184h3.83V410h-3.83zm4.83 64.512h3.83V410h-3.83zm4.83 11.574h3.83V410h-3.83zm4.83-41.65h3.83V410h-3.83zm4.83-29.067h3.83V410h-3.83zm4.829 4.692h3.83V410h-3.83zm4.83-4.078h3.83V410h-3.83zm4.83-7.201h3.83V410h-3.83zm4.83 23.704h3.83V410h-3.83zm4.83 10.517h3.83V410h-3.83zm4.83 30.681h3.83V410h-3.83zm4.83-18.88h3.83V410h-3.83zm4.83-28.073h3.83V410h-3.83zm4.83 16.556h3.83V410h-3.83zm4.83 16.789h3.83V410h-3.83zm4.83 43.8h3.83V410h-3.83zm4.83-26.005h3.83V410h-3.83zm4.83 17.818h3.83V410h-3.83zm4.83 33.882h3.83V410h-3.83zm4.83 35.695h3.83V410h-3.83zm4.829-63.12h3.83V410h-3.83zm4.83 47.891h3.83v70h-3.83zm4.83-90.178h3.83V410h-3.83zm4.83 15.754h3.83V410h-3.83zm4.83 50.737h3.83V410h-3.83zm4.83-82.398h3.83V410h-3.83zm4.83 97.324h3.83V410h-3.83zm4.83-30.495h3.83V410h-3.83zm4.83-87.912h3.83V410h-3.83zm4.83 12.793h3.83V410h-3.83zm4.83-.655h3.83V410h-3.83zm4.83-7.043h3.83V410h-3.83zm4.83-4.642h3.83V410h-3.83zm4.83-9.842h3.83V410h-3.83zm4.829 48.214h3.83V410h-3.83zm4.83-18.91h3.83V410h-3.83zm4.83 102.437h3.83V410h-3.83zm4.83-35.003h3.83V410h-3.83zm4.83 8.123h3.83V410h-3.83zm4.83-13.494h3.83V410h-3.83zm4.83-6.221h3.83V410h-3.83zm4.83-95.093h3.83V410h-3.83zm4.83 54.996h3.83V410h-3.83zm4.83 75.743h3.83V410h-3.83zm4.83 29.733h3.83V410h-3.83zm4.83-54.834h3.83V410h-3.83zm4.83-82.701h3.83V410h-3.83zm4.83 116.9h3.83V410h-3.83zm4.83-48.974h3.83V410h-3.83zm4.829-13.62h3.83V410h-3.83zm4.83 112.846h3.83V410h-3.83zM746.35 329h3.83v81h-3.83zm4.83-27.182h3.83V410h-3.83zm4.83-2.831h3.83V410h-3.83zm4.83 3.944h3.83V410h-3.83zm4.83 25.307h3.83V410h-3.83z"/>
        <path fill="#fff" d="M60.5 229.908h3.83v26.302H60.5zm4.83 4.779h3.83v24.457h-3.83zm4.83-12.003h3.83v32.812h-3.83zm4.83-26.592h3.83v39.2h-3.83zm4.83 3.804h3.83v32.522h-3.83zm4.83 7.598h3.83v33.631h-3.83zm4.83 4.87h3.83v51.104h-3.83zm4.83 6.534h3.83v35.148h-3.83zm4.829 6.133h3.83v32.258h-3.83zm4.83-11.517h3.83v55.895h-3.83zm4.83.371h3.83v49.013h-3.83zm4.83-9.952h3.83v44.913h-3.83zm4.83-7.738h3.83v54.401h-3.83zm4.83 9.419h3.83v51.813h-3.83zm4.83-8.622h3.83v54.611h-3.83zm4.83-10.386h3.83v45.942h-3.83zm4.83 34.371h3.83v50.293h-3.83zm4.83 9.966h3.83v49.636h-3.83zm4.83-6.44h3.83v54.691h-3.83zm4.83-18.86h3.83v51.603h-3.83zm4.83-20.935h3.83v55.895h-3.83zm4.83 1.997h3.83v42.981h-3.83zm4.83 22.828h3.83v47.739h-3.83zm4.829-10.527h3.83v46.851h-3.83zm4.83 16.79h3.83v37.635h-3.83zm4.83-4.512h3.83v50.943h-3.83zm4.83-18.73h3.83v44.079h-3.83zm4.83.57h3.83v49.324h-3.83zm4.83 4.47h3.83v41.572h-3.83zm4.83 3.622h3.83v39.939h-3.83zm4.83 3.853h3.83v43.485h-3.83zm4.83.675h3.83v59.497h-3.83zm4.83 21.758h3.83v51.131h-3.83zm4.83-6.497h3.83v39.348h-3.83zm4.83-3.621h3.83v46.131h-3.83zm4.83-9.86h3.83v51.408h-3.83zm4.83-4.79h3.83v42.125h-3.83zm4.829-14.802h3.83v59.981h-3.83zm4.83-11.44h3.83v57.225h-3.83zm4.83 5.859h3.83v70.802h-3.83zm4.83-9.384h3.83v78.431h-3.83zm4.83 13.477h3.83v51.925h-3.83zm4.83 30.273h3.83v44.691h-3.83zm4.83-6.088h3.83v74.948h-3.83zm4.83 13.657h3.83v65.615h-3.83zm4.83-20.149h3.83v68.488h-3.83zm4.83 27.27h3.83v48.511h-3.83zm4.83-26.194h3.83v32.801h-3.83zm4.83 25.117h3.83v44.482h-3.83zm4.83-25.263h3.83v43.82h-3.83zm4.83 3.891h3.83v54.458h-3.83zm4.83-16.276h3.83v61.155h-3.83zm4.829-22.41h3.83v78.272h-3.83zm4.83 20.176h3.83v36.185h-3.83zm4.83 2.627h3.83v54.643h-3.83zm4.83 29.01h3.83v74.141h-3.83zm4.83-17.727h3.83v50.347h-3.83zm4.83 24.526h3.83v61.457h-3.83zm4.83-44.262h3.83v69.536h-3.83zm4.83 41.598h3.83v51.099h-3.83zm4.83-36.178h3.83v41.803h-3.83zm4.83-15.845h3.83v81.133h-3.83zm4.83 40.171h3.83v61.428h-3.83zm4.83-13.342h3.83v63.386h-3.83zm4.83-6.511h3.83v55.609h-3.83zm4.83 15.287h3.83v75.268h-3.83zm4.83 20.246h3.83v52.316h-3.83zm4.829-32.515h3.83v77.381h-3.83zm4.83 20.65h3.83v47.801h-3.83zm4.83-31.887h3.83v36.38h-3.83zm4.83 37.227h3.83v31.592h-3.83zm4.83 4.417h3.83v31.799h-3.83zm4.83-19.172h3.83v54.642h-3.83zm4.83-10.207h3.83v79.928h-3.83zm4.83 6.289h3.83v75.995h-3.83zm4.83 25.466h3.83v79.296h-3.83zm4.83-19.866h3.83v42.317h-3.83zm4.83-23.024h3.83v54.803h-3.83zm4.83-8.046h3.83v48.966h-3.83zm4.83 3.589h3.83v59.169h-3.83zm4.83 14.874h3.83v59.779h-3.83zm4.829 7.383h3.83v48.409h-3.83zm4.83 17.066h3.83v50.933h-3.83zm4.83 18.21h3.83v51.229h-3.83zm4.83-60.689h3.83v110.954h-3.83zm4.83 44.198h3.83v61.504h-3.83zm4.83-48.253h3.83v76.455h-3.83zm4.83 34.793h3.83v83.055h-3.83zm4.83 2.386h3.83v63.336h-3.83zm4.83-23.053h3.83v79.444h-3.83zm4.83 16.879h3.83v53.384h-3.83zm4.83-42.112h3.83v35.313h-3.83zm4.83 53.368h3.83v46.456h-3.83zm4.83 9.29h3.83v48.741h-3.83zm4.83-74.869h3.83v81.959h-3.83zm4.83-17.336h3.83v70.228h-3.83zm4.829 7.469h3.83v67.451h-3.83zm4.83 26.136h3.83v37.237h-3.83zm4.83-7.613h3.83v37.649h-3.83zm4.83 27.253h3.83v34.1h-3.83zm4.83-4.573h3.83v49.19h-3.83zm4.83 36.617h3.83v43.254h-3.83zm4.83-31.278h3.83v55.651h-3.83zm4.83-23.028h3.83v50.607h-3.83zm4.83 31.874h3.83v35.29h-3.83zm4.83 12.977h3.83v39.102h-3.83zm4.83 22.072h3.83v60.828h-3.83zm4.83-18.827h3.83v53.651h-3.83zm4.83 1.195h3.83v70.274h-3.83zm4.83 59.17h3.83v44.986h-3.83zm4.83-30.197h3.83v110.878h-3.83zm4.829 24.621h3.83v23.137h-3.83zm4.83-59.187h3.83V340h-3.83zm4.83-28.091h3.83v68.128h-3.83zm4.83 42.247h3.83v41.636h-3.83zm4.83 4.695h3.83v87.677h-3.83zm4.83-61.973h3.83v67.252h-3.83zm4.83 96.345h3.83v68.231h-3.83zm4.83 14.233h3.83v23.503h-3.83zm4.83-102.487h3.83v38.077h-3.83zm4.83 6.73h3.83v44.141h-3.83zm4.83 19.623h3.83v23.864h-3.83zm4.83-14.125h3.83v30.945h-3.83zm4.83-30.267h3.83v56.569h-3.83zm4.83 9.172h3.83v37.556h-3.83zm4.829-3.199h3.83v88.97h-3.83zm4.83 27.999h3.83v42.06h-3.83zm4.83 80.861h3.83v63.636h-3.83zm4.83-11.335h3.83v39.968h-3.83zm4.83 7.825h3.83v40.265h-3.83zm4.83-48.544h3.83v75.316h-3.83zm4.83 38.951h3.83v30.144h-3.83zm4.83-119.716h3.83v54.768h-3.83zm4.83 75.349h3.83v34.413h-3.83zm4.83 101.234h3.83v8.924h-3.83zm4.83 8.609h3.83v30.046h-3.83zm4.83-99.556h3.83v74.77h-3.83zm4.83-42.695h3.83v34.763h-3.83zm4.83 123.886h3.83v27.778h-3.83zm4.83-70.556h3.83v49.359h-3.83zm4.829 24.648h3.83v11.092h-3.83zm4.83 84.314h3.83v39.623h-3.83zM746.35 312h3.83v17h-3.83zm4.83-33.818h3.83v23.636h-3.83zm4.83-55.517h3.83v76.322h-3.83zm4.83 45.176h3.83v35.09h-3.83zm4.83-123.21h3.83v183.607h-3.83z"/>
        <path fill="#ff7373" d="M60.5 201.129h3.83v21.429H60.5zm4.83-3.692h3.83v28.443h-3.83zm4.83-7.938h3.83v28.827h-3.83zm4.83-17.001h3.83v18.085h-3.83zm4.83-1.738h3.83v22.665h-3.83zm4.83 16.591h3.83v16.266h-3.83zm4.83.077h3.83v19.437h-3.83zm4.83 3.865h3.83v18.081h-3.83zm4.829 8.41h3.83v19.443h-3.83zm4.83-15.775h3.83v23.138h-3.83zm4.83 1.447h3.83v20.443h-3.83zm4.83-3.058h3.83v15.378h-3.83zm4.83-11.527h3.83v20.449h-3.83zm4.83 5.013h3.83v24.423h-3.83zm4.83-13.257h3.83v29.147h-3.83zm4.83-3.322h3.83v21.771h-3.83zm4.83 32.34h3.83v24.756h-3.83zm4.83.68h3.83v27.364h-3.83zm4.83 1.217h3.83v24.977h-3.83zm4.83-14.361h3.83v22.36h-3.83zm4.83-13.105h3.83v13.546h-3.83zm4.83-2.35h3.83v17.435h-3.83zm4.83 16.664h3.83v22.508h-3.83zm4.829-16.704h3.83v26.058h-3.83zm4.83 7.948h3.83v35.433h-3.83zm4.83 10.101h3.83v22.275h-3.83zm4.83-14.314h3.83v18.502h-3.83zm4.83 4.692h3.83v15.511h-3.83zm4.83-1.841h3.83v20.942h-3.83zm4.83.636h3.83v21.246h-3.83zm4.83 2.85h3.83v22.876h-3.83zm4.83-.258h3.83v26.047h-3.83zm4.83 25.617h3.83v20.993h-3.83zm4.83-4.263h3.83v21.005h-3.83zm4.83-10.139h3.83v28.758h-3.83zm4.83-6.872h3.83v18.747h-3.83zm4.83-3.187h3.83v22.258h-3.83zm4.829-10.312h3.83v15.28h-3.83zm4.83-17.813h3.83v15.225h-3.83zm4.83 10.912h3.83v19.488h-3.83zm4.83-5.845h3.83v12.672h-3.83zm4.83 1.711h3.83v17.282h-3.83zm4.83 17.2h3.83v29.239h-3.83zm4.83 9.664h3.83v20.04h-3.83zm4.83 20.689h3.83v16.777h-3.83zm4.83-32.844h3.83v23.073h-3.83zm4.83 31.847h3.83v20.003h-3.83zm4.83-27.373h3.83v17.021h-3.83zm4.83 19.4h3.83v26.753h-3.83zm4.83-24.043h3.83v27.399h-3.83zm4.83 8.438h3.83v20.436h-3.83zm4.83-9.997h3.83v22.273h-3.83zm4.829-31.313h3.83v31.079h-3.83zm4.83 16.578h3.83v27.958h-3.83zm4.83 3.681h3.83v31.797h-3.83zm4.83 12.31h3.83v49.099h-3.83zm4.83-12.587h3.83v46.962h-3.83zm4.83 29.812h3.83v37.289h-3.83zm4.83-31.675h3.83v26.834h-3.83zm4.83 28.124h3.83v38.176h-3.83zm4.83-29.054h3.83v24.056h-3.83zm4.83-7.248h3.83v24.358h-3.83zm4.83 23.108h3.83v40.514h-3.83zm4.83.391h3.83v30.22h-3.83zm4.83-15.985h3.83v36.36h-3.83zm4.83 20.836h3.83v29.683h-3.83zm4.83 11.334h3.83v28.435h-3.83zm4.829-16.554h3.83v19.473h-3.83zm4.83-10.122h3.83v47.394h-3.83zm4.83 5.479h3.83v18.141h-3.83zm4.83 36.534h3.83v17.63h-3.83zm4.83-12.664h3.83v34.062h-3.83zm4.83-7.381h3.83v24.416h-3.83zm4.83-13.41h3.83v28.849h-3.83zm4.83-.788h3.83v32.377h-3.83zm4.83 26.87h3.83v26.364h-3.83zm4.83-8.604h3.83v18.736h-3.83zm4.83-21.223h3.83v17.819h-3.83zm4.83-9.635h3.83v17.959h-3.83zm4.83 15.797h3.83v7.075h-3.83zm4.83 9.917h3.83v17.23h-3.83zm4.829 1.471h3.83v16.793h-3.83zm4.83 15.036h3.83v20.108h-3.83zm4.83 16.418h3.83v23.401h-3.83zm4.83-46.372h3.83v10.602h-3.83zm4.83 25.591h3.83v28.046h-3.83zm4.83-51.27h3.83v30.41h-3.83zm4.83 32.922h3.83v33.573h-3.83zm4.83.181h3.83v34.069h-3.83zm4.83-17.438h3.83v27.042h-3.83zm4.83 23.851h3.83v21.113h-3.83zm4.83-39.306h3.83v13.61h-3.83zm4.83 19.777h3.83v45.576h-3.83zm4.83 16.204h3.83v44.247h-3.83zm4.83-42.091h3.83v15.292h-3.83zm4.83-10.64h3.83v7.158h-3.83zm4.829-10.231h3.83v13.762h-3.83zm4.83 35.899h3.83v15.916h-3.83zm4.83-10.372h3.83v19.382h-3.83zm4.83 38.023h3.83v11.248h-3.83zm4.83-17.764h3.83v21.944h-3.83zm4.83 33.688h3.83v21.84h-3.83zm4.83-27.523h3.83v19.042h-3.83zm4.83-42.563h3.83v9.622h-3.83zm4.83 45.441h3.83v18.995h-3.83zm4.83 15.241h3.83v21.055h-3.83zm4.83 1.968h3.83v44.532h-3.83zm4.83-6.406h3.83v31.141h-3.83zm9.66 88.661h3.83v6.921h-3.83zm4.83-39.614h3.83v14.16h-3.83zm4.829 13.174h3.83v26.443h-3.83zm4.83-48.22h3.83v16.559h-3.83zm4.83-22.74h3.83v11.961h-3.83zm4.83 38.594h3.83v.651h-3.83zm4.83-30.6h3.83v39.596h-3.83zm4.83-20.465h3.83v8.678h-3.83zm4.83 83.424h3.83v10.951h-3.83zm4.83 3.525h3.83v33.031h-3.83zm4.83-91.886h3.83v21.386h-3.83zm4.83 15.488h3.83v1.172h-3.83zm4.83 24.993h3.83v7.263h-3.83zm4.83-56.51h3.83v41.616h-3.83zm4.83 17.865h3.83v1.825h-3.83zm4.83-6.009h3.83v12.519h-3.83zm9.659 18.5h3.83v12.017h-3.83zm4.83 92.857h3.83v11.179h-3.83zm4.83-17.225h3.83v5.977h-3.83zm4.83-5.735h3.83v21.681h-3.83zm4.83-66.897h3.83v48.734h-3.83zm4.83 84.606h3.83v4.187h-3.83zm4.83-122.375h3.83v5.99h-3.83zm4.83 68.899h3.83v12.905h-3.83zm9.66 74.415h3.83v31.671h-3.83zm9.66-104.588h3.83v5.53h-3.83zm4.83 9.391h3.83v100h-3.83zm4.83 39.295h3.83v2.244h-3.83zm4.829 5.23h3.83v35.123h-3.83zm4.83 93.022h3.83v11.006h-3.83zM746.35 285h3.83v15h-3.83zm4.83-16.818h3.83v5.455h-3.83zm4.83-54.768h3.83v9.251h-3.83zm4.83 41.83h3.83v11.697h-3.83zm4.83-119.219h3.83v2.869h-3.83z"/>
        <path fill="#4f2d68" d="M60.5 84.032h3.83v37.776H60.5zm4.83-4.625h3.83v38.543h-3.83zm4.83-3.7h3.83v33.138h-3.83zm4.83-.934h3.83v28.926h-3.83zm4.83-2.653h3.83v26.605h-3.83zm4.83 3.567h3.83v37.228h-3.83zm4.83 1.972h3.83v35.744h-3.83zm4.83.002h3.83v37.77h-3.83zm4.829 1.617h3.83v38.171h-3.83zm4.83-1.179h3.83v39.937h-3.83zm4.83-1.812h3.83v30.954h-3.83zm4.83-4.218h3.83v36.478h-3.83zm4.83 5.53h3.83v35.139h-3.83zm4.83-2.591h3.83v36.122h-3.83zm4.83 1.613h3.83v23.95h-3.83zm4.83-3.389h3.83v22.477h-3.83zm4.83 3.576h3.83v34.332h-3.83zm4.83 7.254h3.83v31.739h-3.83zm4.83-8.236h3.83v32.477h-3.83zm4.83-1.186h3.83v26.239h-3.83zm4.83-5.877h3.83v23.392h-3.83zm4.83 7.398h3.83v22.376h-3.83zm4.83-6.976h3.83v44h-3.83zm4.829 2.89h3.83v15.167h-3.83zm4.83.522h3.83v21.677h-3.83zm4.83 4.621h3.83v23.236h-3.83zm4.83-6.788h3.83v24.171h-3.83zm4.83 1.487h3.83v34.191h-3.83zm4.83 7.733h3.83v32.215h-3.83zm4.83-1.775h3.83v20.429h-3.83zm4.83-5.983h3.83v33.609h-3.83zm4.83-.883h3.83v29.42h-3.83zm4.83 9.591h3.83v44.543h-3.83zm4.83 13.853h3.83v30.699h-3.83zm4.83-19.4h3.83v50.123h-3.83zm4.83 3.114h3.83v50.699h-3.83zm4.83-6.067h3.83v29.876h-3.83zm4.829.663h3.83v21.751h-3.83zm4.83.245h3.83v29.225h-3.83zm4.83 8.209h3.83v24.36h-3.83zm4.83-.512h3.83v21.782h-3.83zm4.83-9.448h3.83v21.959h-3.83zm4.83-.933h3.83v26.175h-3.83zm4.83 4.798h3.83v52.559h-3.83zm4.83 11.29h3.83v46.678h-3.83zm4.83-10.301h3.83v33.88h-3.83zm4.83 11.678h3.83v36.713h-3.83zm4.83-13.191h3.83v36.761h-3.83zm4.83 5.031h3.83v28.336h-3.83zm4.83-6.352h3.83v36.032h-3.83zm4.83 5.281h3.83v40.264h-3.83zm4.83 7.787h3.83v25.327h-3.83zm4.829-13.223h3.83V95.76h-3.83zm4.83 33.033h3.83v11.783h-3.83zm4.83-8.941h3.83v20.727h-3.83zm4.83-11.383h3.83v34.901h-3.83zm4.83-1.959h3.83v26.649h-3.83zm4.83-11.936h3.83v27.72h-3.83zm4.83-.067h3.83v23.738h-3.83zm4.83.856h3.83v39.952h-3.83zm4.83-7.894h3.83v34.014h-3.83zm4.83 12.859h3.83v20.005h-3.83zm4.83-3.154h3.83v17.538h-3.83zm4.83-6.363h3.83v27.559h-3.83zm4.83 1.986h3.83v38.498h-3.83zm4.83 3.215h3.83v27.074h-3.83zm4.83-6.345h3.83v32.348h-3.83zm4.829 5.205h3.83v16.72h-3.83zm4.83-1.125h3.83v12.842h-3.83zm4.83 1.412h3.83v17.944h-3.83zm4.83 13.392h3.83v26.149h-3.83zm4.83-19.769h3.83v27.81h-3.83zm4.83 12.736h3.83v31.769h-3.83zm4.83 2.343h3.83v21.727h-3.83zm4.83-16.062h3.83v21.208h-3.83zm4.83 5.333h3.83v30.254h-3.83zm4.83 3.638h3.83v23.662h-3.83zm4.83-6.175h3.83v51.441h-3.83zm4.83 1.604h3.83v19.897h-3.83zm4.83 10.505h3.83v22.51h-3.83zm4.83-9.282h3.83v28.952h-3.83zm4.829 5.666h3.83v22.191h-3.83zm4.83 8.761h3.83v45.626h-3.83zm4.83-17.369h3.83v37.568h-3.83zm4.83 7.407h3.83v29.191h-3.83zm4.83 3.448h3.83v33.95h-3.83zm4.83-6.791h3.83v15.061h-3.83zm4.83 6.46h3.83v36.965h-3.83zm4.83-12.813h3.83v51.329h-3.83zm4.83 3.694h3.83V97.55h-3.83zm4.83 1.91h3.83v42.398h-3.83zm4.83-9.686h3.83V90.53h-3.83zm4.83 3.104h3.83v34.49h-3.83zm4.83 13.573h3.83v30.593h-3.83zm4.83-.794h3.83v20.275h-3.83zm4.83-8.018h3.83v8.714h-3.83zm4.829-5.428h3.83v21.408h-3.83zm4.83-.154h3.83v33.183h-3.83zm4.83 5.031h3.83v31.235h-3.83zm4.83-3.22h3.83v30.074h-3.83zm4.83 2.448h3.83v21.451h-3.83zm4.83 7.161h3.83v31.199h-3.83zm4.83 2.885h3.83v34.275h-3.83zm4.83-10.312h3.83V86.49h-3.83zm4.83-2.249h3.83v17.895h-3.83zm4.83 13.916h3.83v35h-3.83zm4.83-.275h3.83v24.824h-3.83zm4.83-11.015h3.83v42.481h-3.83zm9.66-3.428h3.83v4.696h-3.83zm4.83 3.052h3.83v18.435h-3.83zm4.829 3.27h3.83v40.766h-3.83zm4.83-10.265h3.83v1.505h-3.83zm4.83-.753h3.83v3.64h-3.83zm4.83 2.602h3.83v19.517h-3.83zM615.942 95h3.83v6.717h-3.83zm4.83-34.277h3.83v35.795h-3.83zm4.83.541h3.83v12.214h-3.83zm4.83-.629h3.83v97.187h-3.83zm4.83-.635h3.83v4.173h-3.83zm4.83.391h3.83v23.047h-3.83zm4.83 10.33h3.83V76.6h-3.83zm4.83-5.386h3.83v4.268h-3.83zm4.83-1.32h3.83v4.745h-3.83zm4.83-1.407h3.83v5.216h-3.83zm4.829 4.447h3.83v27.044h-3.83zm4.83-2.549h3.83v27.79h-3.83zm4.83 1.514h3.83v12.039h-3.83zm4.83 23.489h3.83v33.618h-3.83zm4.83 15.403h3.83v41.814h-3.83zm4.83-12.792h3.83v13.845h-3.83zm4.83-28.771h3.83v21.77h-3.83zm4.83-1.638h3.83v5.134h-3.83zm4.83-.929h3.83v1.173h-3.83zm9.66.03h3.83v36.543h-3.83zm4.83 9.501h3.83v14.825h-3.83zM722.201 60h3.83v17.381h-3.83zm4.83 0h3.83v20h-3.83zm4.83 2.244h3.83v41.506h-3.83zm4.829 32.879h3.83v10.475h-3.83zm4.83-14.211h3.83v4.403h-3.83zM746.35 92h3.83v12h-3.83zm4.83-7.455h3.83v27.273h-3.83zM760.84 60h3.83v21.594h-3.83zm4.83 7.172h3.83v30.123h-3.83z"/>
        <path fill="#ffff73" d="M60.5 222.557h3.83v7.351H60.5zm4.83 3.324h3.83v8.806h-3.83zm4.83-7.555h3.83v4.358h-3.83zm4.83-27.742h3.83v5.509h-3.83zm4.83 2.841h3.83v6.471h-3.83zm4.83 10.192h3.83v3.877h-3.83zm4.83 3.247h3.83v5.499h-3.83zm4.83 2.511h3.83v9.523h-3.83zm4.829 9.771h3.83v5.885h-3.83zm4.83-12.08h3.83v6.448h-3.83zm4.83-1.248h3.83v8.067h-3.83zm4.83-8.123h3.83v6.238h-3.83zm4.83-6.456h3.83v4.956h-3.83zm4.83 8.986h3.83v5.389h-3.83zm4.83-8.532h3.83v5.299h-3.83zm4.83-10.698h3.83v5.61h-3.83zm4.83 35.324h3.83v4.658h-3.83zm4.83 3.289h3.83v11.335h-3.83zm4.83-1.17h3.83v6.065h-3.83zm4.83-16.978h3.83v4.183h-3.83zm4.83-21.919h3.83v5.167h-3.83zm4.83 1.539h3.83v5.625h-3.83zm4.83 21.737h3.83v6.716h-3.83zm4.829-13.154h3.83v9.344h-3.83zm4.83 17.323h3.83v8.81h-3.83zm4.83-3.058h3.83v7.355h-3.83zm4.83-18.086h3.83v6.712h-3.83zm4.83 1.702h3.83v5.58h-3.83zm4.83 3.589h3.83v6.461h-3.83zm4.83.941h3.83v9.142h-3.83zm4.83 4.479h3.83v8.516h-3.83zm4.83 2.913h3.83v6.278h-3.83zm4.83 20.563h3.83v7.473h-3.83zm4.83-4.252h3.83v5.227h-3.83zm4.83-2.386h3.83v3.993h-3.83zm4.83-16.883h3.83v11.016h-3.83zm4.83.325h3.83v5.901h-3.83zm4.829-17.29h3.83v8.389h-3.83zm4.83-17.868h3.83v14.817h-3.83zm4.83 15.175h3.83v5.501h-3.83zm4.83-12.662h3.83v8.779h-3.83zm4.83 6.322h3.83v15.934h-3.83zm4.83 29.157h3.83v17.05h-3.83zm4.83.465h3.83v10.497h-3.83zm4.83 17.426h3.83v6.728h-3.83zm4.83-26.548h3.83v13.127h-3.83zm4.83 28.778h3.83v11.619h-3.83zm4.83-30.355h3.83v15.78h-3.83zm4.83 29.13h3.83v11.767h-3.83zm4.83-23.395h3.83v9.899h-3.83zm4.83 1.474h3.83v12.317h-3.83zm4.83-8.16h3.83v4.2h-3.83zm4.829-22.507h3.83v4.297h-3.83zm4.83 13.457h3.83v11.016h-3.83zm4.83 7.52h3.83v6.124h-3.83zm4.83 29.611h3.83v5.521h-3.83zm4.83-14.723h3.83v2.517h-3.83zm4.83 20.139h3.83v6.905h-3.83zm4.83-42.13h3.83v4.773h-3.83zm4.83 39.466h3.83v6.905h-3.83zm4.83-43.174h3.83v13.901h-3.83zm4.83-6.945h3.83v5.001h-3.83zm4.83 39.263h3.83v5.908h-3.83zm4.83-9.903h3.83v2.471h-3.83zm4.83-9.846h3.83v5.805h-3.83zm4.83 14.16h3.83v6.932h-3.83zm4.83 10.085h3.83v17.093h-3.83zm4.829-25.515h3.83v10.093h-3.83zm4.83 17.799h3.83v12.944h-3.83zm4.83-23.774h3.83v4.831h-3.83zm4.83 36.023h3.83v6.034h-3.83zm4.83 3.769h3.83v6.683h-3.83zm4.83-17.027h3.83v4.538h-3.83zm4.83-8.978h3.83v3.309h-3.83zm4.83 2.74h3.83v6.857h-3.83zm4.83 20.857h3.83v11.467h-3.83zm4.83-16.232h3.83v7.833h-3.83zm4.83-22.14h3.83v6.948h-3.83zm4.83-9.495h3.83v8.398h-3.83zm4.83 4.913h3.83v7.075h-3.83zm4.83 20.073h3.83v1.875h-3.83zm4.829 1.033h3.83v8.225h-3.83zm4.83 18.35h3.83v6.941h-3.83zm4.83 19.712h3.83v5.439h-3.83zm4.83-59.171h3.83v3.921h-3.83zm4.83 43.035h3.83v5.084h-3.83zm4.83-48.907h3.83v5.738h-3.83zm4.83 36.086h3.83v4.445h-3.83zm4.83.678h3.83v6.154h-3.83zm4.83-24.466h3.83v7.566h-3.83zm4.83 17.922h3.83v6.523h-3.83zm4.83-46.809h3.83v11.219h-3.83zm4.83 51.742h3.83v12.846h-3.83zm4.83 14.876h3.83v7.259h-3.83zm4.83-71.046h3.83v3.436h-3.83zm4.83-18.775h3.83v4.876h-3.83zm4.829-3.626h3.83v15.971h-3.83zm4.83 38.053h3.83v4.054h-3.83zm4.83-6.906h3.83v3.347h-3.83zm4.83 29.89h3.83v.71h-3.83zm4.83-7.068h3.83v3.205h-3.83zm4.83 33.582h3.83v6.24h-3.83zm4.83-30.32h3.83v5.283h-3.83zm4.83-51.984h3.83v34.238h-3.83zm4.83 54.815h3.83v11.297h-3.83zm4.83 17.301h3.83v6.973h-3.83zm4.83 25.445h3.83v3.6h-3.83zm4.83-19.797h3.83v4.57h-3.83zm4.83 4.624h3.83v1.141h-3.83zm4.83 59.817h3.83v.494h-3.83zm4.83-32.375h3.83v2.672h-3.83zm4.829 25.456h3.83v1.836h-3.83zm4.83-58.103h3.83v.753h-3.83zm9.66-.054h3.83v14.963h-3.83zm4.83 8.345h3.83v11.313h-3.83zm4.83-51.383h3.83v.723h-3.83zm4.83 85.697h3.83v11.372h-3.83zm9.66-77.926h3.83v1.043h-3.83zm4.83-4.727h3.83v12.5h-3.83zm4.83 31.085h3.83v1.038h-3.83zm4.83-22.157h3.83v9.07h-3.83zm4.83-21.927h3.83v.73h-3.83zm4.83 4.686h3.83v5.216h-3.83zm4.829-4.646h3.83v6.663h-3.83zm4.83 22.645h3.83v12.017h-3.83zm4.83 92.018h3.83v.86h-3.83zm4.83-22.428h3.83v11.953h-3.83zm4.83 9.97h3.83v9.808h-3.83zm4.83-39.844h3.83v1.108h-3.83zm9.66-80.513h3.83v.856h-3.83zm4.83 75.814h3.83v.391h-3.83zm9.66 93.181h3.83v17.053h-3.83zm4.83-130.201h3.83v47.698h-3.83zm4.83-.527h3.83v5.53h-3.83zm4.83 103.86h3.83v25.556h-3.83zm4.83-58.462h3.83V235h-3.83zm9.659 107.015h3.83v15.409h-3.83zM746.35 300h3.83v12h-3.83zm4.83-26.364h3.83v4.545h-3.83zm9.66-6.695h3.83v.9h-3.83zm4.83-128.048h3.83v5.738h-3.83z"/>
        <path fill="#70223b" d="M60.5 137.239h3.83v40.504H60.5zm4.83-2.719h3.83v45.868h-3.83zm4.83-4.306h3.83v40.991h-3.83zm4.83-11.618h3.83v37.039h-3.83zm4.83-4.8h3.83v35.64h-3.83zm4.83 12.207h3.83v44.941h-3.83zm4.83 1.622h3.83v38.209h-3.83zm4.83 1.633h3.83v46.106h-3.83zm4.829 5.516h3.83v44.001h-3.83zm4.83-3.571h3.83v35.927h-3.83zm4.83-6.055h3.83v33.338h-3.83zm4.83 4.662h3.83v35.8h-3.83zm4.83-.599h3.83v27.393h-3.83zm4.83-3.175h3.83v31.552h-3.83zm4.83-10.461h3.83v33.861h-3.83zm4.83-2.293h3.83v34.474h-3.83zm4.83 19.259h3.83v35.635h-3.83zm4.83-2.103h3.83v48.045h-3.83zm4.83-6.309h3.83v49.523h-3.83zm4.83-6.328h3.83v46.089h-3.83zm4.83-16.325h3.83v45.526h-3.83zm4.83 14.402h3.83v29.462h-3.83zm4.83 11.501h3.83v36.557h-3.83zm4.829-22.798h3.83v39.843h-3.83zm4.83 6.269h3.83v41.074h-3.83zm4.83 4.231h3.83v30.466h-3.83zm4.83-2.885h3.83v41.086h-3.83zm4.83.25h3.83v35.894h-3.83zm4.83 5.924h3.83v26.467h-3.83zm4.83.874h3.83v34.627h-3.83zm4.83 6.816h3.83v33.71h-3.83zm4.83-4.502h3.83v31.294h-3.83zm4.83 14.007h3.83v36.775h-3.83zm4.83 7.171h3.83v33.598h-3.83zm4.83-4.611h3.83v35.07h-3.83zm4.83 1.693h3.83v31.18h-3.83zm4.83-23.203h3.83v34.059h-3.83zm4.829-9.996h3.83v37.93h-3.83zm4.83 7.514h3.83v25.375h-3.83zm4.83 8.889h3.83v27.975h-3.83zm4.83-6.207h3.83v18.469h-3.83zm4.83-13.134h3.83v40.272h-3.83zm4.83 14.797h3.83v34.234h-3.83zm4.83 20.287h3.83v26.353h-3.83zm4.83 9.441h3.83v38.289h-3.83zm4.83-21.839h3.83v30.631h-3.83zm4.83 13.707h3.83v37.192h-3.83zm4.83-16.54h3.83v30.792h-3.83zm4.83.894h3.83v41.844h-3.83zm4.83 2.945h3.83v27.916h-3.83zm4.83 5.808h3.83v33.746h-3.83zm4.83-11.772h3.83v34.3h-3.83zm4.829-14.139h3.83v18.11h-3.83zm4.83 23.636h3.83v14.293h-3.83zm4.83-9.197h3.83v17.194h-3.83zm4.83 13.615h3.83v16.169h-3.83zm4.83-12.824h3.83v23.177h-3.83zm4.83-14.459h3.83v54.157h-3.83zm4.83 9.497h3.83v21.931h-3.83zm4.83 15.855h3.83v32.159h-3.83zm4.83-22.717h3.83v21h-3.83zm4.83-.107h3.83v17.134h-3.83zm4.83.449h3.83v45.766h-3.83zm4.83-4.168h3.83v48.466h-3.83zm4.83 11.509h3.83v23.909h-3.83zm4.83.926h3.83v33.516h-3.83zm4.83 13.399h3.83v33.626h-3.83zm4.829-18.242h3.83v27.629h-3.83zm4.83-10.106h3.83v26.194h-3.83zm4.83 12.058h3.83v35.592h-3.83zm4.83 24.539h3.83v38.81h-3.83zm4.83-20.785h3.83v48.722h-3.83zm4.83 15.098h3.83v35.127h-3.83zm4.83-21.361h3.83v35.827h-3.83zm4.83-5.885h3.83v49.485h-3.83zm4.83 13.123h3.83v44.537h-3.83zm4.83-4.189h3.83v56.045h-3.83zm4.83 8.964h3.83v19.052h-3.83zm4.83-23.908h3.83v39.276h-3.83zm4.83 17.179h3.83v29.199h-3.83zm4.83 5.416h3.83v48.761h-3.83zm4.829-20.889h3.83v64.431h-3.83zm4.83 45.82h3.83v32.561h-3.83zm4.83-22.349h3.83v51.861h-3.83zm4.83-2.395h3.83v20.332h-3.83zm4.83 5.261h3.83v44.775h-3.83zm4.83-30.873h3.83v29.98h-3.83zm4.83 24.593h3.83v34.041h-3.83zm4.83 6.787h3.83v32.419h-3.83zm4.83-15.056h3.83v21.017h-3.83zm4.83-.04h3.83v38.794h-3.83zm4.83-12.039h3.83v22.07h-3.83zm4.83 9.209h3.83v24.635h-3.83zm4.83 12.374h3.83v34.741h-3.83zm4.83-22.72h3.83v22.337h-3.83zm4.83-12.807h3.83v28.942h-3.83zm4.829 7.578h3.83v9.005h-3.83zm4.83 12.21h3.83v24.625h-3.83zm4.83-2.257h3.83v18.127h-3.83zm4.83-3.183h3.83v62.399h-3.83zm4.83 7.6h3.83v39.697h-3.83zm4.83 20.208h3.83v46.657h-3.83zm4.83-9.086h3.83v28.624h-3.83zm4.83-26.294h3.83v22.492h-3.83zm4.83-3.946h3.83v51.985h-3.83zm4.83 35.521h3.83v43.203h-3.83zm4.83-13.237h3.83v52.68h-3.83zm4.83 6.692h3.83v23.356h-3.83zm4.83-57.845h3.83v1.369h-3.83zm4.83 16.599h3.83v33.863h-3.83zm4.83 8.834h3.83v18.435h-3.83zm4.829 26.601h3.83v50.315h-3.83zm4.83-39.65h3.83v43.656h-3.83zm4.83 5.516h3.83v18.202h-3.83zm4.83 5.351h3.83v59.851h-3.83zm4.83 15.044h3.83v43.131h-3.83zm4.83-1.221h3.83v19.163h-3.83zm4.83-6.802h3.83v84.657h-3.83zm4.83 73.656h3.83v60.345h-3.83zm4.83-101.091h3.83v4.173h-3.83zm4.83 46.085h3.83v23.438h-3.83zm4.83-25.714h3.83v52.569h-3.83zm4.83-17.026h3.83v22.409h-3.83zm4.83 15.214h3.83v51.095h-3.83zm4.83 26.821h3.83v10.432h-3.83zm4.829-11.661h3.83v16.461h-3.83zm4.83 29.121h3.83v18.777h-3.83zm4.83-36.421h3.83v13.759h-3.83zm4.83 110.011h3.83v1.121h-3.83zm4.83-19.311h3.83v19.617h-3.83zm4.83-74.644h3.83v12.737h-3.83zm4.83-1.007h3.83v63.636h-3.83zm4.83-36.602h3.83v54.768h-3.83zm4.83-9.17h3.83v48.883h-3.83zm9.66 88.184h3.83v7.309h-3.83zm4.83-60.489h3.83v44.475h-3.83zm4.83-12.269h3.83v3.95h-3.83zm14.489 68.27h3.83v23.415h-3.83zm4.83-53.733h3.83v3.302h-3.83zM746.35 109h3.83v4h-3.83zm4.83 7.364h3.83V150h-3.83zM756.01 60h3.83v6.938h-3.83zm4.83 21.594h3.83V95.09h-3.83z"/>
        <path fill="#91ccf0" d="M60.5 121.808h3.83v15.431H60.5zm4.83-3.857h3.83v16.569h-3.83zm4.83-9.106h3.83v21.37h-3.83zm4.83-5.146h3.83v14.897h-3.83zm4.83-4.974h3.83v15.071h-3.83zm4.83 14.19h3.83v13.089h-3.83zm4.83.488h3.83v14.222h-3.83zm4.83 2.028h3.83v13.827h-3.83zm4.829 2.018h3.83v17.325h-3.83zm4.83.586h3.83v13.168h-3.83zm4.83-10.794h3.83v17.906h-3.83zm4.83 1.306h3.83v21.263h-3.83zm4.83 4.192h3.83v16.472h-3.83zm4.83-1.609h3.83v14.906h-3.83zm4.83-10.559h3.83v15.003h-3.83zm4.83-4.862h3.83v17.572h-3.83zm4.83 15.431h3.83v21.401h-3.83zm4.83 4.661h3.83v14.636h-3.83zm4.83-7.498h3.83v15.826h-3.83zm4.83-7.424h3.83v16.922h-3.83zm4.83-8.724h3.83v9.322h-3.83zm4.83 6.382h3.83v17.342h-3.83zm4.83 14.647h3.83v14.195h-3.83zm4.829-25.942h3.83v17.339h-3.83zm4.83 7.032h3.83v16.577h-3.83zm4.83 6.18h3.83v14.627h-3.83zm4.83-5.853h3.83v17.595h-3.83zm4.83 11.508h3.83v6.337h-3.83zm4.83 5.756h3.83v6.505h-3.83zm4.83-13.561h3.83v20.94h-3.83zm4.83 7.197h3.83v20.559h-3.83zm4.83-5.071h3.83v21.128h-3.83zm4.83 24.713h3.83v10.423h-3.83zm4.83.01h3.83v17.583h-3.83zm4.83.024h3.83v12.949h-3.83zm4.83 3.689h3.83v10.952h-3.83zm4.83-26.89h3.83v14.639h-3.83zm4.829-7.461h3.83v12.104h-3.83zm4.83 7.718h3.83v11.9h-3.83zm4.83 3.344h3.83v17.445h-3.83zm4.83-3.09h3.83v14.328h-3.83zm4.83-9.271h3.83v10.464h-3.83zm4.83 3.283h3.83v21.979h-3.83zm4.83 31.181h3.83v11.084h-3.83zm4.83 5.41h3.83v15.116h-3.83zm4.83-23.099h3.83v16.376h-3.83zm4.83 14.511h3.83v15.572h-3.83zm4.83-13.143h3.83v12.175h-3.83zm4.83-3.394h3.83v16.463h-3.83zm4.83 1.345h3.83v18.063h-3.83zm4.83 9.511h3.83v14.36h-3.83zm4.83-7.148h3.83v9.736h-3.83zm4.829-15.913h3.83v11.511h-3.83zm4.83 22.178h3.83v12.968h-3.83zm4.83.003h3.83v3.769h-3.83zm4.83 2.791h3.83v14.592h-3.83zm4.83-10.211h3.83V122.5h-3.83zm4.83-10.865h3.83v8.385h-3.83zm4.83-4.05h3.83v21.931h-3.83zm4.83 17.072h3.83v20.716h-3.83zm4.83-13.833h3.83v11.831h-3.83zm4.83-1.15h3.83v12.874h-3.83zm4.83-5.621h3.83v18.944h-3.83zm4.83 3.658h3.83v11.119h-3.83zm4.83 12.926h3.83v9.701h-3.83zm4.83-8.211h3.83v18.837h-3.83zm4.83-1.07h3.83v33.307h-3.83zm4.829-10.423h3.83v25.488h-3.83zm4.83-5.002h3.83v20.384h-3.83zm4.83 6.513h3.83v25.93h-3.83zm4.83 21.597h3.83v28.871h-3.83zm4.83-18.108h3.83v26.193h-3.83zm4.83 16.694h3.83v24.598h-3.83zm4.83-7.698h3.83v10.935h-3.83zm4.83-16.582h3.83V108h-3.83zm4.83 14.381h3.83v20.374h-3.83zm4.83-2.955h3.83v19.139h-3.83zm4.83 21.604h3.83v6.5h-3.83zm4.83-29.941h3.83v12.532h-3.83zm4.83 13.119h3.83v16.593h-3.83zm4.83-2.841h3.83v24.849h-3.83zm4.829-1.094h3.83v5.055h-3.83zm4.83 32.196h3.83v18.679h-3.83zm4.83-25.427h3.83v21.756h-3.83zm4.83-.97h3.83v20.332h-3.83zm4.83 8.208h3.83v17.385h-3.83zm4.83-25.681h3.83V99.16h-3.83zm4.83 28.364h3.83v8.422h-3.83zm4.83 1.552h3.83v13.658h-3.83zm4.83-19.333h3.83v17.934h-3.83zm4.83 16.006h3.83v1.888h-3.83zm4.83-23.025h3.83v12.874h-3.83zm4.83 8.534h3.83v13.55h-3.83zm4.83 9.676h3.83v16.247h-3.83zm4.83-11.112h3.83v4.639h-3.83zm4.83-19.579h3.83v11.411h-3.83zm4.829 7.266h3.83v11.723h-3.83zm4.83 11.621h3.83v12.312h-3.83zm4.83 3.083h3.83v6.972h-3.83zm4.83-4.381h3.83v8.17h-3.83zm4.83-6.174h3.83v21.944h-3.83zm4.83 16.909h3.83v25.243h-3.83zm4.83 5.96h3.83v10.197h-3.83zm4.83-25.843h3.83v9.747h-3.83zm4.83-3.098h3.83v8.897h-3.83zm4.83 31.021h3.83v13.398h-3.83zm4.83-10.451h3.83v10.612h-3.83zm4.83 6.641h3.83v10.662h-3.83zm4.83-48.551h3.83v1.369h-3.83zm4.83 7.34h3.83v10.629h-3.83zm4.83 16.79h3.83v2.672h-3.83zm4.829 25.601h3.83v3.673h-3.83zm4.83-49.526h3.83v13.548h-3.83zm4.83 1.382h3.83v17.682h-3.83zm4.83 18.479h3.83v4.554h-3.83zm9.66 14.4h3.83v3.977h-3.83zm4.83-23.041h3.83v20.217h-3.83zm4.83 84.344h3.83v9.528h-3.83zm4.83-93.649h3.83v2.086h-3.83zm4.83 19.265h3.83v28.906h-3.83zm4.83-6.837h3.83v10.03h-3.83zm9.66-7.842h3.83v16.058h-3.83zm4.83-.935h3.83v43.815h-3.83zm4.829 26.275h3.83v5.879h-3.83zm4.83-1.803h3.83v36.803h-3.83zm4.83-14.237h3.83v14.619h-3.83zm4.83 45.068h3.83v79.562h-3.83zm4.83 23.599h3.83v36.652h-3.83zm4.83-40.761h3.83v2.769h-3.83zm4.83-20.845h3.83v22.608h-3.83zm4.83-18.274h3.83v4.279h-3.83zm14.49 30.509h3.83v52.784h-3.83zm4.83-12.217h3.83v4.512h-3.83zm9.66-5.138h3.83v10h-3.83zm4.83 23.75h3.83v1.122h-3.83zm4.829 1.849h3.83v40.053h-3.83zm4.83-20.285h3.83v6.604h-3.83zM746.35 104h3.83v5h-3.83zm4.83 7.818h3.83v4.545h-3.83zm14.49-14.523h3.83v5.738h-3.83z"/>
        <path fill="#aaf155" d="M60.5 68.351h3.83v15.681H60.5zm4.83-.15h3.83v11.206h-3.83zm4.83-2.235h3.83v9.741h-3.83zm4.83-2.441h3.83v11.248h-3.83zm4.83-2.368h3.83v10.964h-3.83zm4.83 3.459h3.83v11.071h-3.83zm4.83 1.191h3.83v11.852h-3.83zm4.83-2.888h3.83v14.742h-3.83zm4.829 1.646h3.83v14.713h-3.83zm4.83-.691h3.83v14.224h-3.83zm4.83 1.29h3.83v11.123h-3.83zm4.83-4.133h3.83v11.038h-3.83zm4.83 2.976h3.83V77.6h-3.83zm4.83.427h3.83v10.574h-3.83zm4.83.04h3.83v12.147h-3.83zm4.83-3.945h3.83v12.703h-3.83zm4.83 5.139h3.83v11.14h-3.83zm4.83.218h3.83v18.176h-3.83zm4.83-.431h3.83v10.371h-3.83zm4.83 1.276h3.83v7.91h-3.83zm4.83-4.811h3.83v6.843h-3.83zm4.83 2.182h3.83V76.16h-3.83zm4.83-3.594h3.83v8.676h-3.83zm4.829.644h3.83v10.923h-3.83zm4.83 2.055h3.83v9.389h-3.83zm4.83 1.39h3.83v12.621h-3.83zm4.83-2.194h3.83v8.027h-3.83zm4.83-.133h3.83v9.647h-3.83zm4.83 5.438h3.83v11.941h-3.83zm4.83-2.09h3.83v12.257h-3.83zm4.83-4.207h3.83v10.481h-3.83zm4.83.978h3.83v8.62h-3.83zm4.83.118h3.83v18.092h-3.83zm4.83.107h3.83v31.84h-3.83zm4.83-.726h3.83v13.165h-3.83zm4.83-1.437h3.83v17.716h-3.83zm4.83 3.956h3.83V72.1h-3.83zm4.829-1.89h3.83v10.247h-3.83zm4.83 2.266h3.83v8.225h-3.83zm4.83-.382h3.83v16.816h-3.83zm4.83 4.544h3.83v11.761h-3.83zm4.83-4.188h3.83v6.501h-3.83zm4.83-.961h3.83v6.527h-3.83zm4.83 1.489h3.83v9.836h-3.83zm4.83 4.931h3.83v16.196h-3.83zm4.83-8.625h3.83v14.52h-3.83zm4.83 7.393h3.83V87.79h-3.83zm4.83-8.038h3.83v13.652h-3.83zm4.83 4.436h3.83v14.247h-3.83zm4.83-2.989h3.83v10.885h-3.83zm4.83 3.793h3.83v12.372h-3.83zm4.83 1.705h3.83v18.455h-3.83zm4.829-6.51h3.83v11.741h-3.83zm4.83 36.059h3.83v8.715h-3.83zm4.83-3.995h3.83v3.769h-3.83zm4.83-29.896h3.83v22.282h-3.83zm4.83 10.514h3.83v9.809h-3.83zm4.83-4.593h3.83v2.466h-3.83zm4.83-8.051h3.83v10.45h-3.83zm4.83 3.316h3.83v7.99h-3.83zm4.83-4.636h3.83v4.732h-3.83zm4.83 13.238h3.83v4.353h-3.83zm4.83-6.397h3.83v7.596h-3.83zm4.83-2.093h3.83v3.326h-3.83zm4.83-2.479h3.83v7.791h-3.83zm4.83-.982h3.83v11.987h-3.83zm4.83-1.306h3.83v6.949h-3.83zm4.829.634h3.83v11.521h-3.83zm4.83 2.242h3.83v8.154h-3.83zm4.83.396h3.83v9.169h-3.83zm4.83 1.144h3.83v21.416h-3.83zm4.83-3.634h3.83v5.282h-3.83zm4.83.136h3.83v17.881h-3.83zm4.83 9.074h3.83v11.151h-3.83zm4.83-9.436h3.83v4.524h-3.83zm4.83.746h3.83v9.112h-3.83zm4.83 3.14h3.83v9.61h-3.83zm4.83-.712h3.83v4.147h-3.83zm4.83 1.229h3.83v4.522h-3.83zm4.83 8.081h3.83v6.946h-3.83zm4.83-7.728h3.83v5.392h-3.83zm4.829-.508h3.83v11.567h-3.83zm4.83 5.425h3.83v14.902h-3.83zm4.83-8.285h3.83v5.819h-3.83zm4.83.009h3.83v13.216h-3.83zm4.83 1.411h3.83v15.253h-3.83zm4.83 2.581h3.83v5.881h-3.83zm4.83-.41h3.83v12.751h-3.83zm4.83-4.264h3.83v4.202h-3.83zm4.83-.23h3.83v8.127h-3.83zm4.83-.434h3.83v10.471h-3.83zm4.83-.503h3.83v1.287h-3.83zm4.83 1.752h3.83v2.64h-3.83zm4.83 3.595h3.83v12.617h-3.83zm4.83-2.266h3.83v14.089h-3.83zm4.83-1.502h3.83v7.573h-3.83zm4.829-.744h3.83v2.888h-3.83zm4.83.182h3.83v2.553h-3.83zm4.83-.783h3.83v8.367h-3.83zm4.83 1.832h3.83v3.315h-3.83zm4.83-.894h3.83v6.657h-3.83zm4.83.062h3.83v13.756h-3.83zm4.83.425h3.83v16.216h-3.83zm4.83-1.218h3.83v7.122h-3.83zm4.83.475h3.83v4.399h-3.83zm4.83 3.138h3.83v15.176h-3.83zm4.83-2.533h3.83v17.434h-3.83zm4.83 3.542h3.83v2.877h-3.83zm4.83-5.247h3.83v2.053h-3.83zm4.83.247h3.83v4.449h-3.83zm4.83 3.761h3.83v3.74h-3.83zm4.829 6.643h3.83v.367h-3.83zM601.452 60h3.83v.753h-3.83zm9.66 1.952h3.83v.651h-3.83zm4.83 25.624h3.83V95h-3.83zm4.83-27.214h3.83v.362h-3.83zm4.83-.362h3.83v1.264h-3.83zm4.83 0h3.83v.635h-3.83zm14.49 0h3.83v10.721h-3.83zm4.83 0h3.83v5.335h-3.83zm4.83 2.555h3.83v1.46h-3.83zm4.83-2.033h3.83v2.086h-3.83zm4.829-.522h3.83v7.055h-3.83zm4.83 0h3.83v4.506h-3.83zm4.83 0h3.83v6.02h-3.83zm4.83 26.147h3.83v3.362h-3.83zm4.83-3.433h3.83v22.198h-3.83zm4.83-.562h3.83v9.968h-3.83zm4.83-19.64h3.83v.837h-3.83zm4.83-2.512h3.83v1.711h-3.83zm4.83 0h3.83v.782h-3.83zm14.49 0h3.83v10.313h-3.83zm14.49 0h3.83v2.244h-3.83zm4.829 0h3.83v35.123h-3.83zm4.83 15.409h3.83v5.503h-3.83zM746.35 60h3.83v32h-3.83zm4.83 3.636h3.83v20.909h-3.83zm14.49.667h3.83v2.869h-3.83z"/>
        <path fill="#f0c097" d="M60.5 177.743h3.83v23.386H60.5zm4.83 2.645h3.83v17.049h-3.83zm4.83-9.182h3.83v18.293h-3.83zm4.83-15.571h3.83v16.863h-3.83zm4.83-6.199h3.83v21.324h-3.83zm4.83 21.509h3.83v16.406h-3.83zm4.83-5.111h3.83v21.594h-3.83zm4.83 9.53h3.83v15.929h-3.83zm4.829 3.411h3.83v20.928h-3.83zm4.83-11.645h3.83v16.798h-3.83zm4.83-8.645h3.83v26.89h-3.83zm4.83 7.125h3.83v16.707h-3.83zm4.83-9.006h3.83v14.186h-3.83zm4.83.984h3.83v18.215h-3.83zm4.83-8.152h3.83v13.111h-3.83zm4.83-1.68h3.83v11.468h-3.83zm4.83 20.42h3.83v23.388h-3.83zm4.83 10.307h3.83v13.761h-3.83zm4.83-4.831h3.83v19.809h-3.83zm4.83-9.762h3.83v15.211h-3.83zm4.83-16.888h3.83v18.993h-3.83zm4.83-1.662h3.83v17.994h-3.83zm4.83 18.596h3.83v15.429h-3.83zm4.829-19.512h3.83v18.03h-3.83zm4.83 7.5h3.83v18.624h-3.83zm4.83-6.378h3.83v35.439h-3.83zm4.83 7.736h3.83v13.514h-3.83zm4.83-4.943h3.83v23.598h-3.83zm4.83-3.501h3.83v25.13h-3.83zm4.83 9.033h3.83v16.599h-3.83zm4.83 5.899h3.83v12.748h-3.83zm4.83-6.918h3.83v20.566h-3.83zm4.83 19.488h3.83v26.647h-3.83zm4.83 3.994h3.83v17.203h-3.83zm4.83-3.138h3.83v11.007h-3.83zm4.83-2.198h3.83v6.378h-3.83zm4.83-20.324h3.83v20.54h-3.83zm4.829-6.125h3.83v14.92h-3.83zm4.83-5.041h3.83v6.3h-3.83zm4.83 11.489h3.83v6.365h-3.83zm4.83-15.713h3.83v15.902h-3.83zm4.83 8.668h3.83v9.275h-3.83zm4.83 8.76h3.83v17.45h-3.83zm4.83 12.405h3.83v14.975h-3.83zm4.83 21.378h3.83v13.787h-3.83zm4.83-29.497h3.83v10.807h-3.83zm4.83 20.268h3.83v21.501h-3.83zm4.83-22.94h3.83v18.026h-3.83zm4.83 11.946h3.83v25.381h-3.83zm4.83-10.984h3.83v12.339h-3.83zm4.83 11.64h3.83v9.279h-3.83zm4.83-11.219h3.83v10.309h-3.83zm4.829-30.329h3.83v8.364h-3.83zm4.83 19.819h3.83v6.275h-3.83zm4.83-6.296h3.83v16.252h-3.83zm4.83 12.59h3.83v15.38h-3.83zm4.83-5.816h3.83v9.201h-3.83zm4.83 16.521h3.83v22.393h-3.83zm4.83-22.729h3.83v13.546h-3.83zm4.83 26.083h3.83v15.29h-3.83zm4.83-33.876h3.83v20.408h-3.83zm4.83-3.973h3.83v16.949h-3.83zm4.83 29.082h3.83v11.16h-3.83zm4.83-1.469h3.83v12.829h-3.83zm4.83-13.048h3.83v10.007h-3.83zm4.83 10.533h3.83v20.387h-3.83zm4.83 13.509h3.83v17.572h-3.83zm4.829-24.239h3.83v25.896h-3.83zm4.83-11.541h3.83v27.315h-3.83zm4.83 21.456h3.83v11.141h-3.83zm4.83 27.757h3.83v18.813h-3.83zm4.83-10.873h3.83v18.325h-3.83zm4.83 1.503h3.83v9.168h-3.83zm4.83-20.661h3.83v16.619h-3.83zm4.83 7.773h3.83v7.564h-3.83zm4.83 8.175h3.83v26.825h-3.83zm4.83 7.319h3.83v10.741h-3.83zm4.83-28.029h3.83v17.707h-3.83zm4.83-3.684h3.83v11.499h-3.83zm4.83 7.102h3.83v20.452h-3.83zm4.83 24.978h3.83v4.454h-3.83zm4.829-5.219h3.83v12.081h-3.83zm4.83 13.949h3.83v12.963h-3.83zm4.83-3.048h3.83v32.635h-3.83zm4.83-33.924h3.83v19.461h-3.83zm4.83 29.704h3.83v16.073h-3.83zm4.83-45.669h3.83v10.471h-3.83zm4.83 28.655h3.83v14.739h-3.83zm4.83 5.165h3.83v9.756h-3.83zm4.83-26.458h3.83v18.775h-3.83zm4.83 17.736h3.83v24.89h-3.83zm4.83-28.761h3.83v13.794h-3.83zm4.83 11.774h3.83v22.348h-3.83zm4.83 22.478h3.83v16.074h-3.83zm4.83-35.123h3.83v9.107h-3.83zm4.83-6.203h3.83v4.668h-3.83zm4.829-12.358h3.83v6.796h-3.83zm4.83 27.83h3.83v14.865h-3.83zm4.83-8.754h3.83v13.247h-3.83zm4.83 41.088h3.83v10.183h-3.83zm4.83-15.102h3.83v7.52h-3.83zm4.83 27.168h3.83v13.614h-3.83zm4.83-27.119h3.83v13.636h-3.83zm4.83-32.426h3.83v2.249h-3.83zm4.83 25.547h3.83v23.193h-3.83zm4.83 26.74h3.83v9.98h-3.83zm4.83-3.761h3.83v17.623h-3.83zm4.83-22.632h3.83v6.093h-3.83zm9.66-30.739h3.83v9.145h-3.83zm4.83-6.594h3.83v8.55h-3.83zm14.489-7.765h3.83v16.122h-3.83zm4.83 46.999h3.83v7.807h-3.83zm4.83-1.676h3.83v31.465h-3.83zm4.83-25.189h3.83v19.163h-3.83zm4.83 58.692h3.83v11.793h-3.83zm4.83 49.344h3.83v1.906h-3.83zm4.83-157.263h3.83v41.207h-3.83zm4.83 65.349h3.83v21.094h-3.83zm4.83 3.419h3.83v1.729h-3.83zm4.83-47.188h3.83v16.54h-3.83zm4.83 43.9h3.83v2.19h-3.83zm4.83-13.84h3.83v.522h-3.83zm4.829-5.633h3.83v5.095h-3.83zm4.83 31.437h3.83v3.004h-3.83zm4.83-41.439h3.83v85.995h-3.83zm14.49 15.035h3.83v29.905h-3.83zm4.83 49.892h3.83v.837h-3.83zm9.66-60.526h3.83v6.257h-3.83zM707.711 60h3.83v8.924h-3.83zm4.83 97.448h3.83v12.993h-3.83zm9.66-76.116h3.83v72.686h-3.83zm4.83 8.668h3.83v38.889h-3.83zm9.659 79.067h3.83v11.708h-3.83zm4.83-73.847h3.83v11.006h-3.83zm4.83 17.78h3.83v49h-3.83zm4.83 37h3.83v5.455h-3.83zm4.83-83.062h3.83v12.335h-3.83zm4.83 28.152h3.83v2.699h-3.83zm4.83 7.943h3.83v1.434h-3.83z"/>
        <path fill="#16234f" d="M60.5 60h3.83v8.351H60.5zm4.83 0h3.83v8.201h-3.83zm4.83 0h3.83v5.966h-3.83zm4.83 0h3.83v3.525h-3.83zm4.83 0h3.83v1.157h-3.83zm4.83 0h3.83v4.616h-3.83zm4.83 0h3.83v5.807h-3.83zm4.83 0h3.83v2.919h-3.83zm4.829 0h3.83v4.565h-3.83zm4.83 0h3.83v3.874h-3.83zm4.83 0h3.83v5.164h-3.83zm4.83 0h3.83v1.031h-3.83zm4.83 0h3.83v4.007h-3.83zm4.83 0h3.83v4.434h-3.83zm4.83 0h3.83v4.474h-3.83zm4.83 0h3.83v.529h-3.83zm4.83 0h3.83v5.668h-3.83zm4.83 0h3.83v5.886h-3.83zm4.83 0h3.83v5.455h-3.83zm4.83 0h3.83v6.731h-3.83zm4.83 0h3.83v1.92h-3.83zm4.83 0h3.83v4.102h-3.83zm4.83 0h3.83v.508h-3.83zm4.829 0h3.83v1.152h-3.83zm4.83 0h3.83v3.207h-3.83zm4.83 0h3.83v4.597h-3.83zm4.83 0h3.83v2.403h-3.83zm4.83 0h3.83v2.27h-3.83zm4.83 0h3.83v7.708h-3.83zm4.83 0h3.83v5.618h-3.83zm4.83 0h3.83v1.411h-3.83zm4.83 0h3.83v2.389h-3.83zm4.83 0h3.83v2.507h-3.83zm4.83 0h3.83v2.614h-3.83zm4.83 0h3.83v1.888h-3.83zm4.83 0h3.83v.451h-3.83zm4.83 0h3.83v4.407h-3.83zm4.829 0h3.83v2.517h-3.83zm4.83 0h3.83v4.783h-3.83zm4.83 0h3.83v4.401h-3.83zm4.83 0h3.83v8.945h-3.83zm4.83 0h3.83v4.757h-3.83zm4.83 0h3.83v3.796h-3.83zm4.83 0h3.83v5.285h-3.83zm4.83 0h3.83v10.216h-3.83zm4.83 0h3.83v1.591h-3.83zm4.83 0h3.83v8.984h-3.83zm4.83 0h3.83v.946h-3.83zm4.83 0h3.83v5.382h-3.83zm4.83 0h3.83v2.393h-3.83zm4.83 0h3.83v6.186h-3.83zm4.83 0h3.83v7.891h-3.83zm4.829 0h3.83v1.381h-3.83zm4.83 0h3.83v37.44h-3.83zm4.83 0h3.83v33.445h-3.83zm4.83 0h3.83v3.549h-3.83zm4.83 0h3.83v14.063h-3.83zm4.83 0h3.83v9.47h-3.83zm4.83 0h3.83v1.419h-3.83zm4.83 0h3.83v4.735h-3.83zm4.83 0h3.83v.099h-3.83zm4.83 0h3.83v13.337h-3.83zm4.83 0h3.83v6.94h-3.83zm4.83 0h3.83v4.847h-3.83zm4.83 0h3.83v2.368h-3.83zm4.83 0h3.83v1.386h-3.83zm4.83 0h3.83v.08h-3.83zm4.829 0h3.83v.714h-3.83zm4.83 0h3.83v2.956h-3.83zm4.83 0h3.83v3.352h-3.83zm4.83 0h3.83v4.496h-3.83zm4.83 0h3.83v.862h-3.83zm4.83 0h3.83v.998h-3.83zm4.83 0h3.83v10.072h-3.83zm4.83 0h3.83v.636h-3.83zm4.83 0h3.83v1.382h-3.83zm4.83 0h3.83v4.522h-3.83zm4.83 0h3.83v3.81h-3.83zm4.83 0h3.83v5.039h-3.83zm4.83 0h3.83v13.12h-3.83zm4.83 0h3.83v5.392h-3.83zm4.829 0h3.83v4.884h-3.83zm4.83 0h3.83v10.309h-3.83zm4.83 0h3.83v2.024h-3.83zm4.83 0h3.83v2.033h-3.83zm4.83 0h3.83v3.444h-3.83zm4.83 0h3.83v6.025h-3.83zm4.83 0h3.83v5.615h-3.83zm4.83 0h3.83v1.351h-3.83zm4.83 0h3.83v1.121h-3.83zm4.83 0h3.83v.687h-3.83zm4.83 0h3.83v.184h-3.83zm4.83 0h3.83v1.936h-3.83zm4.83 0h3.83v5.531h-3.83zm4.83 0h3.83v3.265h-3.83zm4.83 0h3.83v1.763h-3.83zm4.829 0h3.83v1.019h-3.83zm4.83 0h3.83v1.201h-3.83zm4.83 0h3.83v.418h-3.83zm4.83 0h3.83v2.25h-3.83zm4.83 0h3.83v1.356h-3.83zm4.83 0h3.83v1.418h-3.83zm4.83 0h3.83v1.843h-3.83zm4.83 0h3.83v.625h-3.83zm4.83 0h3.83v1.1h-3.83zm4.83 0h3.83v4.238h-3.83zm4.83 0h3.83v1.705h-3.83zm4.83 0h3.83v5.247h-3.83zm9.66 0h3.83v.247h-3.83zm4.83 0h3.83v4.008h-3.83zm4.829 0h3.83v10.651h-3.83zm14.49 0h3.83v1.952h-3.83zm4.83 0h3.83v27.576h-3.83zm4.83 0h3.83v.362h-3.83zm19.32 0h3.83v.391h-3.83zm14.49 0h3.83v2.555h-3.83zm4.83 0h3.83v.522h-3.83zm19.319 0h3.83v26.147h-3.83zm4.83 0h3.83v22.714h-3.83zm4.83 0h3.83v22.152h-3.83zm4.83 0h3.83v2.512h-3.83zm19.32 0h3.83v.812h-3.83zm28.979 0h3.83v15.409h-3.83zm9.66 0h3.83v3.636h-3.83zm14.49 0h3.83v4.303h-3.83z"/>
        <path fill="#17234f" d="M161.929 163.334h3.83v.311h-3.83zm4.83 16.031h3.83v.944h-3.83zm4.829-16.912h3.83v1.152h-3.83zm4.83 8.096h3.83v1.005h-3.83zm4.83 10.436h3.83v.669h-3.83zm4.83-14.189h3.83v.544h-3.83zm4.83 5.142h3.83v.095h-3.83zm4.83-1.97h3.83v.223h-3.83zm4.83.502h3.83v.358h-3.83zm4.83 2.048h3.83v1.159h-3.83zm9.66 26.469h3.83v.049h-3.83zm4.83-5.45h3.83v1.236h-3.83zm4.83-9.335h3.83v.432h-3.83zm4.83-6.827h3.83v.387h-3.83zm4.83-6.161h3.83v3.361h-3.83zm4.829-11.745h3.83v4.794h-3.83zm4.83-13.661h3.83v.642h-3.83zm9.66 5.378h3.83v.331h-3.83zm9.66 18.976h3.83v.266h-3.83zm9.66 30.12h3.83v.498h-3.83zm4.83-32.477h3.83v.133h-3.83zm4.83 30.961h3.83v1.018h-3.83zm4.83-26.414h3.83v.059h-3.83zm4.83 19.3h3.83v.158h-3.83zm4.83-24.025h3.83v.141h-3.83zm9.66-1.609h3.83v.191h-3.83zm4.829-32.273h3.83v1.151h-3.83zm14.49 33.128h3.83v.592h-3.83zm9.66 17.718h3.83v.099h-3.83zm9.66-3.748h3.83v.296h-3.83zm9.66-36.191h3.83v.185h-3.83zm9.66 23.494h3.83v.19h-3.83zm4.83-15.872h3.83v.076h-3.83zm9.66 31.608h3.83v.639h-3.83zm14.489-20.755h3.83v.197h-3.83zm4.83 35.429h3.83v1.302h-3.83zm9.66-19.015h3.83v.272h-3.83zm4.83-13.21h3.83v.072h-3.83zm4.83-1.282h3.83v.566h-3.83zm9.66 18.67h3.83v.162h-3.83zm9.66-30.954h3.83v.258h-3.83zm9.66 25.035h3.83v.938h-3.83zm9.659 17.239h3.83v.204h-3.83zm9.66-30.475h3.83v.726h-3.83zm33.81-25.294h3.83v.552h-3.83zm48.299 52.618h3.83v.425h-3.83zm9.66-70.91h3.83v1.25h-3.83zm4.83 46.491h3.83v.2h-3.83zm4.83 13.527h3.83v1.914h-3.83zm9.66-30.28h3.83v27.756h-3.83zm4.83-85.925h3.83v149.446h-3.83zm4.83 58.239h3.83v144.103h-3.83zm4.83-7.19h3.83v111.679h-3.83zm4.829 49.931h3.83v74.921h-3.83zm4.83-46.309h3.83v73.011h-3.83zm4.83-3.816h3.83v54.086h-3.83zm4.83 38.685h3.83v53.996h-3.83zm4.83 21.982h3.83v1.414h-3.83zm4.83-37.491h3.83v18.44h-3.83zm4.83 51.322h3.83v50.542h-3.83zm4.83 39.457h3.83v14.61h-3.83zm4.83-117.962h3.83v40.686h-3.83zm4.83 45.236h3.83v10.938h-3.83zm4.83-15.946h3.83v51.877h-3.83zm4.83-32.377h3.83v27.744h-3.83zm4.83 29.55h3.83v16.058h-3.83zm4.83-15.509h3.83v25.559h-3.83zm4.829-1.059h3.83v34.49h-3.83zm4.83 29.346h3.83v15.773h-3.83zm4.83 41.552h3.83v67.076h-3.83zm4.83 11.378h3.83v38.474h-3.83zm4.83-.816h3.83v33.555h-3.83zm4.83-51.617h3.83v18.275h-3.83zm4.83 20.824h3.83v82.057h-3.83zm4.83-46.309h3.83v5.99h-3.83zm4.83-8.797h3.83v83.687h-3.83zm4.83-48.171h3.83v246.388h-3.83zm4.83 101.517h3.83v104.756h-3.83zm4.83-36.316h3.83v42.541h-3.83zm4.83 19.893h3.83v16.591h-3.83zm4.83-25.129h3.83V180h-3.83zm4.83-24.017h3.83v114.423h-3.83zm4.829 75.903h3.83v43.75h-3.83zm4.83-74.549h3.83v211.321h-3.83zM746.35 162h3.83v123h-3.83zm4.83-6.545h3.83v112.727h-3.83zm4.83-76.182h3.83v134.141h-3.83zm4.83 18.516h3.83v157.455h-3.83zm4.83 6.678h3.83v31.557h-3.83z"/>
    </g>
    <path stroke="currentColor" d="M60 410h710" aria-label="rule"/>
    <svg xmlns="http://www.w3.org/2000/svg" viewBox="0 0 830 564">
        <g aria-label="■ Custom Colour/Modded Campaigns ■ Survivor ■ Monk ■ Hunter ■ Gourmand ■ Artificer ■ Rivulet ■ Spearmaster ■ Saint ■ ⏿" style="shape-padding:2.00159">
            <path fill="#00000f" d="M55.012 483.999v-7.744h7.75v7.744z"/>
            <path fill="#1e90ff" d="M77.438 483.167q-.489.26-1.003.388-.514.133-1.092.133-1.822 0-2.83-1.289-1.004-1.288-1.004-3.624 0-2.323 1.01-3.618 1.015-1.302 2.824-1.302.578 0 1.092.134.514.127 1.003.387v1.314q-.47-.387-1.01-.59-.539-.204-1.085-.204-1.25 0-1.872.965t-.622 2.914q0 1.942.622 2.907t1.872.965q.559 0 1.092-.203.54-.203 1.003-.59zm2.253-2.354v-4.406h1.168v4.406q0 .958.337 1.409.343.45 1.054.45.825 0 1.263-.577.438-.584.438-1.67v-4.018h1.174v7.097h-1.174v-1.067q-.311.616-.85.934-.534.317-1.251.317-1.092 0-1.625-.711-.534-.717-.534-2.165m12.766-4.17v1.142q-.502-.292-1.01-.438t-1.034-.146q-.794 0-1.187.26-.388.254-.388.78 0 .477.292.712t1.454.457l.47.089q.87.165 1.314.66.45.495.45 1.288 0 1.054-.749 1.65-.749.591-2.082.591-.527 0-1.104-.114-.578-.108-1.25-.33v-1.206q.653.336 1.25.507.596.165 1.13.165.774 0 1.2-.31.425-.318.425-.883 0-.812-1.555-1.123l-.051-.013-.438-.089q-1.01-.197-1.473-.66-.463-.47-.463-1.276 0-1.022.692-1.574.692-.559 1.974-.559.571 0 1.098.108.527.102 1.035.311m5.547-2.267v2.019h2.654v.907h-2.654v3.86q0 .787.299 1.098.298.31 1.04.31h1.315v.934h-1.429q-1.313 0-1.853-.527t-.54-1.815v-3.86h-1.898v-.907h1.898v-2.019zm7.84 2.837q-.889 0-1.346.692t-.457 2.05q0 1.353.457 2.05.457.693 1.346.693.895 0 1.352-.692.457-.698.457-2.05 0-1.359-.457-2.05-.457-.693-1.352-.693m0-.99q1.479 0 2.26.959.787.958.787 2.774 0 1.821-.781 2.78-.78.952-2.266.952-1.48 0-2.26-.952-.78-.959-.78-2.78 0-1.816.78-2.774.78-.959 2.26-.959m8.207.895q.216-.457.546-.673.337-.222.806-.222.857 0 1.206.667.356.66.356 2.494v4.12h-1.067v-4.069q0-1.504-.171-1.866-.165-.368-.61-.368-.507 0-.698.393-.184.387-.184 1.841v4.069h-1.066v-4.069q0-1.523-.184-1.879-.178-.355-.648-.355-.463 0-.647.393-.178.387-.178 1.841v4.069h-1.06v-7.11h1.06v.61q.21-.381.52-.578.318-.203.718-.203.482 0 .8.222.324.222.501.673m18.174 6.05q-.49.26-1.003.387-.514.133-1.092.133-1.822 0-2.831-1.289-1.003-1.288-1.003-3.624 0-2.323 1.01-3.618 1.015-1.302 2.824-1.302.578 0 1.092.134.514.127 1.003.387v1.314q-.47-.387-1.01-.59-.54-.204-1.085-.204-1.25 0-1.873.965-.622.965-.622 2.914 0 1.942.622 2.907t1.873.965q.558 0 1.092-.203.54-.203 1.003-.59zm4.925-5.955q-.888 0-1.345.692t-.457 2.05q0 1.353.457 2.05.457.693 1.345.693.895 0 1.352-.692.457-.698.457-2.05 0-1.359-.457-2.05-.457-.693-1.352-.693m0-.99q1.48 0 2.26.959.787.958.787 2.774 0 1.821-.78 2.78-.781.952-2.267.952-1.479 0-2.26-.952-.78-.959-.78-2.78 0-1.816.78-2.774.781-.959 2.26-.959m7.973 4.704q0 .787.286 1.187.292.4.857.4h1.364v.99h-1.479q-1.047 0-1.625-.673-.57-.673-.57-1.904v-6.456h-1.873v-.914h3.04zm7.68-3.714q-.888 0-1.345.692t-.457 2.05q0 1.353.457 2.05.457.693 1.346.693.895 0 1.352-.692.457-.698.457-2.05 0-1.359-.457-2.05-.457-.693-1.352-.693m0-.99q1.48 0 2.26.959.788.958.788 2.774 0 1.821-.781 2.78-.78.952-2.266.952-1.48 0-2.26-.952-.78-.959-.78-2.78 0-1.816.78-2.774.78-.959 2.26-.959m5.155 4.59v-4.406h1.168v4.405q0 .959.336 1.41.343.45 1.054.45.825 0 1.263-.577.438-.584.438-1.67v-4.018h1.175v7.097h-1.175v-1.067q-.31.616-.85.934-.533.317-1.25.317-1.093 0-1.626-.711-.533-.717-.533-2.165m13.92-2.952q-.374-.292-.761-.425t-.85-.134q-1.093 0-1.67.686-.578.685-.578 1.98v3.536h-1.174v-7.11h1.174v1.39q.292-.755.895-1.155.61-.406 1.441-.406.432 0 .806.108t.717.336zm6.139-3.834h1.206l-4.99 10.683h-1.212zm2.73 0h1.713l1.638 4.824 1.65-4.824h1.72v9.477h-1.187v-8.373l-1.688 4.996h-.971l-1.695-4.996v8.373h-1.18zm11.19 3.186q-.889 0-1.346.692t-.457 2.05q0 1.353.457 2.05.457.693 1.346.693.895 0 1.352-.692.457-.698.457-2.05 0-1.359-.457-2.05-.457-.693-1.352-.693m0-.99q1.479 0 2.26.959.787.958.787 2.774 0 1.821-.78 2.78-.782.952-2.267.952-1.479 0-2.26-.952-.78-.959-.78-2.78 0-1.816.78-2.774.781-.959 2.26-.959m9.363 1.08v-3.676h1.168v9.877h-1.17v-.895q-.292.527-.781.806-.482.273-1.117.273-1.289 0-2.031-.997-.737-1.003-.737-2.76 0-1.734.743-2.718.743-.99 2.025-.99.641 0 1.13.28.489.272.768.8m-3.434 2.653q0 1.358.431 2.05.432.692 1.276.692t1.282-.698q.445-.699.445-2.044 0-1.352-.445-2.044-.438-.699-1.282-.699t-1.276.692-.431 2.05m11.26-2.654v-3.675h1.168v9.877h-1.168v-.895q-.292.527-.78.806-.483.273-1.117.273-1.29 0-2.032-.997-.736-1.003-.736-2.76 0-1.734.743-2.718.742-.99 2.025-.99.64 0 1.13.28.488.272.767.8m-3.434 2.654q0 1.358.432 2.05t1.276.692 1.282-.698q.444-.699.444-2.044 0-1.352-.444-2.044-.438-.699-1.282-.699t-1.276.692-.432 2.05m12.873-.299v.572h-5.059v.038q0 1.161.603 1.796.61.635 1.714.635.559 0 1.168-.178.61-.178 1.301-.54v1.162q-.666.273-1.288.406-.616.14-1.193.14-1.657 0-2.59-.99-.933-.997-.933-2.742 0-1.702.914-2.717t2.437-1.016q1.359 0 2.14.92.786.921.786 2.514m-1.168-.343q-.025-1.028-.488-1.561-.457-.54-1.32-.54-.845 0-1.39.559-.547.559-.648 1.549zm7.383-2.012v-3.675h1.168v9.877h-1.168v-.895q-.292.527-.781.806-.482.273-1.117.273-1.289 0-2.031-.997-.737-1.003-.737-2.76 0-1.734.743-2.718.743-.99 2.025-.99.641 0 1.13.28.488.272.768.8m-3.434 2.654q0 1.358.431 2.05.432.692 1.276.692t1.282-.698q.445-.699.445-2.044 0-1.352-.445-2.044-.438-.699-1.282-.699t-1.276.692-.431 2.05m20.452 3.211q-.489.26-1.003.388-.514.133-1.092.133-1.822 0-2.83-1.289-1.004-1.288-1.004-3.624 0-2.323 1.01-3.618 1.015-1.302 2.824-1.302.578 0 1.092.134.514.127 1.003.387v1.314q-.47-.387-1.01-.59-.539-.204-1.085-.204-1.25 0-1.872.965t-.622 2.914q0 1.942.622 2.907t1.872.965q.559 0 1.092-.203.54-.203 1.003-.59zm5.472-3.237h-.388q-1.022 0-1.542.362-.514.355-.514 1.066 0 .642.387.997t1.073.355q.964 0 1.517-.666.552-.673.558-1.854v-.26zm2.266-.482v4.056h-1.175v-1.054q-.374.635-.945.94-.565.298-1.378.298-1.085 0-1.733-.61-.647-.615-.647-1.643 0-1.187.793-1.803.8-.616 2.342-.616h1.568v-.184q-.006-.85-.431-1.231-.426-.388-1.359-.388-.596 0-1.206.172t-1.187.501v-1.168q.648-.247 1.238-.368.597-.127 1.155-.127.883 0 1.505.26.628.26 1.015.781.242.318.343.787.102.464.102 1.397m5.395-2.33q.216-.457.546-.673.336-.222.806-.222.857 0 1.206.667.356.66.356 2.494v4.12h-1.067v-4.069q0-1.504-.171-1.866-.165-.368-.61-.368-.507 0-.698.393-.184.387-.184 1.841v4.069h-1.066v-4.069q0-1.523-.184-1.879-.178-.355-.648-.355-.463 0-.647.393-.178.387-.178 1.841v4.069h-1.06v-7.11h1.06v.61q.21-.381.52-.578.318-.203.718-.203.482 0 .8.222.323.222.501.673m5.916 5.49v3.6h-1.174v-9.813h1.174v.907q.292-.527.775-.8.488-.279 1.123-.279 1.289 0 2.019.997.736.996.736 2.761 0 1.733-.736 2.723-.737.984-2.019.984-.647 0-1.136-.273-.483-.28-.762-.806m3.428-2.652q0-1.359-.432-2.05-.425-.693-1.27-.693-.85 0-1.288.699-.438.692-.438 2.044 0 1.345.438 2.044.438.698 1.289.698.844 0 1.27-.692.43-.692.43-2.05m6.475-.026h-.388q-1.022 0-1.542.362-.514.355-.514 1.066 0 .641.387.997t1.073.355q.964 0 1.517-.666.552-.673.558-1.854v-.26zm2.266-.482v4.056h-1.175v-1.054q-.374.635-.945.94-.565.298-1.378.298-1.085 0-1.733-.61-.647-.615-.647-1.643 0-1.187.793-1.803.8-.616 2.342-.616h1.568v-.184q-.006-.85-.431-1.231-.426-.388-1.359-.388-.596 0-1.206.172t-1.187.501v-1.168q.648-.247 1.238-.368.597-.127 1.155-.127.883 0 1.505.26.628.26 1.015.781.241.318.343.787.102.464.102 1.397m2.73-3.053h2.989v6.201h2.317v.908h-5.802v-.908h2.317v-5.294h-1.822zm1.82-2.768h1.169v1.479h-1.168zm9.827 6.265q0-1.314-.432-1.993-.425-.686-1.244-.686-.857 0-1.307.686-.451.68-.451 1.993t.45 2.006q.458.685 1.321.685.806 0 1.231-.691.432-.692.432-2m1.168 3.155q0 1.6-.755 2.425-.756.825-2.222.825-.482 0-1.01-.089-.526-.089-1.053-.26v-1.156q.622.292 1.13.432t.933.14q.946 0 1.377-.514t.432-1.632v-.844q-.28.597-.762.889t-1.174.292q-1.244 0-1.987-.997-.742-.997-.742-2.666 0-1.676.742-2.672.743-.997 1.987-.997.686 0 1.162.273t.774.844v-.92h1.168zm7.884-3.948v4.405h-1.174v-4.405q0-.959-.337-1.41-.336-.45-1.054-.45-.818 0-1.263.584-.438.577-.438 1.663v4.018h-1.168v-7.11h1.168v1.067q.311-.61.844-.92.534-.318 1.264-.318 1.085 0 1.618.717.54.711.54 2.159m7.331-2.457v1.143q-.501-.292-1.009-.438t-1.035-.146q-.793 0-1.187.26-.387.254-.387.78 0 .477.292.712t1.454.457l.47.089q.87.165 1.314.66.45.495.45 1.288 0 1.054-.749 1.65-.749.591-2.082.591-.527 0-1.104-.114-.578-.108-1.25-.33v-1.206q.653.336 1.25.507.596.165 1.13.165.774 0 1.2-.31.425-.318.425-.883 0-.812-1.556-1.123l-.05-.013-.438-.089q-1.01-.197-1.473-.66-.463-.47-.463-1.276 0-1.022.691-1.574.692-.559 1.975-.559.57 0 1.098.108.527.102 1.034.311"/>
            <path fill="#fff" d="M313.292 483.999v-7.744h7.75v7.744z"/>
            <path fill="#1e90ff" d="M335.33 474.35v1.302q-.583-.375-1.174-.565-.584-.19-1.18-.19-.908 0-1.435.425-.527.419-.527 1.136 0 .628.343.958.349.33 1.295.553l.673.152q1.333.311 1.942.978.61.666.61 1.815 0 1.352-.838 2.063t-2.438.711q-.666 0-1.34-.146-.672-.14-1.351-.425v-1.365q.73.463 1.377.68.654.215 1.314.215.971 0 1.51-.432.54-.438.54-1.218 0-.711-.374-1.086-.368-.374-1.289-.578l-.685-.158q-1.32-.299-1.917-.902t-.597-1.618q0-1.27.85-2.031.858-.769 2.273-.769.546 0 1.149.127.603.121 1.27.369m2.641 6.462v-4.405h1.168v4.406q0 .958.337 1.409.342.45 1.053.45.825 0 1.263-.577.438-.584.438-1.67v-4.018h1.175v7.097h-1.175v-1.067q-.31.616-.85.934-.533.317-1.25.317-1.092 0-1.626-.711-.533-.717-.533-2.165m13.92-2.951q-.374-.292-.761-.425-.387-.134-.85-.134-1.092 0-1.67.686-.578.685-.578 1.98v3.536h-1.174v-7.11h1.174v1.39q.292-.755.895-1.155.61-.406 1.441-.406.432 0 .806.108t.718.336zm1.13-1.466h1.213l2.063 5.966 2.07-5.966h1.212l-2.527 7.109h-1.504zm8.817 0h2.99v6.201h2.317v.908h-5.802v-.908h2.317v-5.294h-1.822zm1.822-2.768h1.168v1.479h-1.168zm5.015 2.768h1.212l2.063 5.966 2.07-5.966h1.212l-2.526 7.109H371.2zm11.102.818q-.889 0-1.346.692t-.457 2.05q0 1.353.457 2.05.457.693 1.346.693.895 0 1.352-.692.457-.698.457-2.05 0-1.359-.457-2.05-.457-.693-1.352-.693m0-.99q1.479 0 2.26.959.787.958.787 2.774 0 1.821-.781 2.78-.78.952-2.266.952-1.48 0-2.26-.952-.78-.959-.78-2.78 0-1.816.78-2.774t2.26-.959m11.248 1.638q-.375-.292-.762-.425-.387-.134-.85-.134-1.092 0-1.67.686-.577.685-.577 1.98v3.536h-1.175v-7.11h1.175v1.39q.292-.755.895-1.155.609-.406 1.44-.406.432 0 .807.108t.717.336z"/>
            <path fill="#ffff73" d="M399.385 483.999v-7.744h7.75v7.744z"/>
            <path fill="#1e90ff" d="M415.546 474.027h1.714l1.637 4.824 1.65-4.824h1.721v9.477h-1.187v-8.373l-1.688 4.996h-.972l-1.694-4.996v8.373h-1.181zm11.19 3.186q-.888 0-1.345.692t-.457 2.05q0 1.353.457 2.05.457.693 1.346.693.895 0 1.352-.692.457-.698.457-2.05 0-1.359-.457-2.05-.457-.693-1.352-.693m0-.99q1.48 0 2.26.959.788.958.788 2.774 0 1.821-.781 2.78-.78.952-2.266.952-1.48 0-2.26-.952-.78-.959-.78-2.78 0-1.816.78-2.774t2.26-.959m10.589 2.876v4.405h-1.175v-4.405q0-.959-.336-1.41t-1.054-.45q-.819 0-1.263.584-.438.577-.438 1.663v4.018h-1.168v-7.11h1.168v1.067q.311-.61.844-.92.534-.318 1.263-.318 1.086 0 1.62.717.539.711.539 2.159m2.653-5.472h1.206v5.72l3.066-2.952h1.422l-2.8 2.678 3.238 4.43h-1.428l-2.628-3.668-.87.819v2.85h-1.206z"/>
            <path fill="#ff7373" d="M454.171 483.999v-7.744h7.75v7.744z"/>
            <path fill="#1e90ff" d="M470.656 474.027h1.289v3.885h3.51v-3.885h1.289v9.477h-1.289v-4.513h-3.51v4.513h-1.289zm8.195 6.786v-4.406h1.168v4.406q0 .958.336 1.409.343.45 1.054.45.825 0 1.263-.577.438-.584.438-1.67v-4.018h1.175v7.097h-1.175v-1.067q-.31.616-.85.934-.533.317-1.25.317-1.093 0-1.626-.711-.533-.717-.533-2.165m13.26-1.714v4.405h-1.174v-4.405q0-.959-.336-1.41-.337-.45-1.054-.45-.819 0-1.263.584-.438.577-.438 1.663v4.018h-1.168v-7.11h1.168v1.067q.31-.61.844-.92.533-.318 1.263-.318 1.086 0 1.619.717.54.711.54 2.159m5.053-4.723v2.019h2.653v.907h-2.653v3.86q0 .787.298 1.098.299.31 1.041.31h1.314v.934h-1.428q-1.314 0-1.853-.527-.54-.527-.54-1.815v-3.86h-1.898v-.907h1.898v-2.019zm10.988 5.281v.572h-5.06v.038q0 1.161.604 1.796.61.635 1.714.635.558 0 1.168-.178t1.3-.54v1.162q-.666.273-1.288.406-.615.14-1.193.14-1.657 0-2.59-.99-.933-.997-.933-2.742 0-1.702.914-2.717t2.438-1.016q1.358 0 2.139.92.787.921.787 2.514m-1.168-.343q-.026-1.028-.489-1.561-.457-.54-1.32-.54-.844 0-1.39.559t-.648 1.549zm9.267-1.453q-.374-.292-.761-.425-.387-.134-.85-.134-1.093 0-1.67.686-.578.685-.578 1.98v3.536h-1.174v-7.11h1.174v1.39q.292-.755.895-1.155.61-.406 1.441-.406.432 0 .806.108t.717.336z"/>
            <path fill="#17234f" d="M524.611 483.999v-7.744h7.75v7.744z"/>
            <path fill="#1e90ff" d="M626.505 482.723q-.514.476-1.161.724-.641.241-1.39.241-1.803 0-2.806-1.289-1.003-1.295-1.003-3.624 0-2.323 1.016-3.618 1.015-1.302 2.824-1.302.597 0 1.143.172.546.165 1.054.508v1.314q-.515-.49-1.054-.718-.54-.235-1.143-.235-1.25 0-1.879.972-.622.965-.622 2.907 0 1.974.603 2.926.61.946 1.867.946.425 0 .742-.095.324-.102.584-.311v-2.546h-1.377v-1.053h2.602zm4.73-5.51q-.89 0-1.346.692t-.457 2.05q0 1.353.457 2.05.457.693 1.345.693.895 0 1.352-.692.457-.698.457-2.05 0-1.359-.457-2.05-.457-.693-1.352-.693m0-.99q1.478 0 2.26.959.786.958.786 2.774 0 1.821-.78 2.78-.781.952-2.267.952-1.479 0-2.26-.952-.78-.959-.78-2.78 0-1.816.78-2.774t2.26-.959m5.154 4.59v-4.406h1.168v4.406q0 .958.336 1.409.343.45 1.054.45.825 0 1.263-.577.438-.584.438-1.67v-4.018h1.174v7.097h-1.174v-1.067q-.311.616-.85.934-.534.317-1.251.317-1.092 0-1.625-.71-.533-.718-.533-2.165m13.92-2.952q-.374-.292-.762-.425-.387-.134-.85-.134-1.092 0-1.67.686-.577.685-.577 1.98v3.536h-1.175v-7.11h1.175v1.39q.292-.755.895-1.155.61-.406 1.44-.406.432 0 .807.108t.717.336zm4.786-.743q.216-.457.546-.673.337-.222.806-.222.857 0 1.206.667.356.66.356 2.494v4.12h-1.067v-4.069q0-1.504-.171-1.866-.165-.368-.61-.368-.507 0-.698.393-.184.387-.184 1.841v4.069h-1.066v-4.069q0-1.523-.184-1.879-.178-.355-.648-.355-.463 0-.647.393-.178.387-.178 1.841v4.069h-1.06v-7.11h1.06v.61q.21-.381.52-.578.318-.203.718-.203.482 0 .8.222.323.222.501.673m7.992 2.812h-.387q-1.022 0-1.543.362-.514.355-.514 1.066 0 .642.387.997t1.073.355q.965 0 1.517-.666.552-.673.559-1.854v-.26zm2.266-.482v4.056h-1.174v-1.054q-.375.635-.946.94-.565.298-1.378.298-1.085 0-1.732-.61-.648-.615-.648-1.643 0-1.187.794-1.803.8-.616 2.342-.616h1.568v-.184q-.006-.85-.432-1.231-.425-.388-1.358-.388-.597 0-1.206.172-.61.171-1.187.501v-1.168q.647-.247 1.237-.368.597-.127 1.156-.127.882 0 1.504.26.628.26 1.016.781.24.318.342.787.102.464.102 1.397m7.776-.35v4.406h-1.174v-4.405q0-.959-.337-1.41-.336-.45-1.054-.45-.818 0-1.263.584-.438.577-.438 1.663v4.018h-1.168v-7.11h1.168v1.067q.311-.61.845-.92.533-.318 1.263-.318 1.085 0 1.618.717.54.711.54 2.159m6.601-1.796v-3.675h1.168v9.877h-1.168v-.895q-.292.527-.78.806-.483.273-1.118.273-1.288 0-2.03-.997-.737-1.003-.737-2.76 0-1.734.743-2.718.742-.99 2.024-.99.642 0 1.13.28.49.272.768.8m-3.434 2.654q0 1.358.432 2.05t1.276.692 1.282-.698q.444-.699.444-2.044 0-1.352-.444-2.044-.438-.699-1.282-.699t-1.276.692-.432 2.05"/>
            <path fill="#70223b" d="M689.976 483.999v-7.744h7.75v7.744z"/>
            <path fill="#1e90ff" d="m709.501 475.157-1.352 4.85h2.704zm-.774-1.13h1.555l2.9 9.477h-1.326l-.698-2.47h-3.32l-.685 2.47h-1.327zm12.022 3.834q-.374-.292-.761-.425t-.851-.134q-1.092 0-1.67.686-.577.685-.577 1.98v3.536h-1.174v-7.11h1.174v1.39q.292-.755.895-1.155.61-.406 1.44-.406.433 0 .807.108t.717.336zm4.393-3.485v2.019h2.653v.907h-2.653v3.86q0 .787.298 1.098.299.31 1.041.31h1.314v.934h-1.428q-1.314 0-1.853-.527-.54-.527-.54-1.815v-3.86h-1.898v-.907h1.898v-2.019zm5.554 2.019h2.99v6.201h2.317v.908H730.2v-.908h2.317v-5.294h-1.822zm1.822-2.768h1.168v1.479h-1.168zm11.127 0v.971h-1.326q-.629 0-.876.26-.242.254-.242.908v.629h2.444v.907h-2.444v6.202h-1.167v-6.202h-1.898v-.907h1.898v-.496q0-1.168.533-1.72.54-.552 1.675-.552zm2.704 2.768h2.99v6.201h2.317v.908h-5.802v-.908h2.317v-5.294h-1.822zm1.822-2.768h1.168v1.479h-1.168zm11.115 9.515q-.47.273-.971.406-.495.14-1.016.14-1.65 0-2.583-.99-.927-.99-.927-2.742t.927-2.743q.933-.99 2.583-.99.514 0 1.003.133.489.134.984.413v1.225q-.463-.412-.933-.597-.464-.184-1.054-.184-1.098 0-1.688.711t-.59 2.032q0 1.314.59 2.03.596.712 1.688.712.61 0 1.092-.184.482-.19.895-.584zm8.15-3.485v.572h-5.059v.038q0 1.161.603 1.796.61.635 1.714.635.559 0 1.168-.178.61-.178 1.301-.54v1.162q-.666.273-1.288.406-.616.14-1.194.14-1.656 0-2.59-.99-.932-.997-.932-2.742 0-1.702.914-2.717t2.437-1.016q1.358 0 2.14.92.786.921.786 2.514m-1.168-.343q-.025-1.028-.488-1.561-.457-.54-1.32-.54-.845 0-1.39.559-.547.559-.648 1.549zm9.268-1.453q-.375-.292-.762-.425t-.85-.134q-1.092 0-1.67.686-.577.685-.577 1.98v3.536h-1.175v-7.11h1.175v1.39q.292-.755.895-1.155.609-.406 1.44-.406.432 0 .807.108t.717.336z"/>
            <path fill="#91ccf0" d="M235.871 500.25v-7.745h7.75v7.744z"/>
            <path fill="#1e90ff" d="M256.627 495.577q.495.127.844.482.349.35.87 1.403l1.288 2.59h-1.377l-1.13-2.393q-.49-1.022-.883-1.314-.387-.299-1.015-.299h-1.225v4.006h-1.289v-9.477h2.64q1.562 0 2.394.704.831.705.831 2.038 0 .94-.514 1.536-.508.59-1.434.724m-2.628-3.949v3.365h1.402q.92 0 1.372-.413.45-.412.45-1.263 0-.819-.482-1.25-.476-.439-1.39-.439zm7.255 1.314h2.99v6.202h2.317v.908h-5.802v-.908h2.317v-5.294h-1.822zm1.822-2.767h1.168v1.479h-1.168zm5.014 2.767h1.213l2.063 5.967 2.07-5.967h1.212l-2.527 7.11h-1.504zm8.43 4.418v-4.405h1.168v4.405q0 .959.337 1.41.342.45 1.053.45.825 0 1.263-.577.438-.584.438-1.67v-4.018h1.175v7.097h-1.175v-1.067q-.31.616-.85.933-.533.318-1.25.318-1.092 0-1.626-.711-.533-.717-.533-2.165m10.645.115q0 .787.286 1.187.292.4.857.4h1.364v.99h-1.479q-1.047 0-1.625-.673-.57-.673-.57-1.904v-6.456h-1.873v-.914h3.04zm10.83-1.27v.571h-5.06v.038q0 1.162.603 1.797.61.635 1.714.635.559 0 1.168-.178.61-.178 1.301-.54v1.162q-.666.273-1.288.406-.616.14-1.194.14-1.656 0-2.59-.99-.933-.997-.933-2.743 0-1.7.914-2.716.915-1.016 2.438-1.016 1.358 0 2.14.92.786.92.786 2.514m-1.169-.343q-.025-1.028-.488-1.561-.458-.54-1.32-.54-.845 0-1.39.559-.547.558-.648 1.549zm5.834-4.938v2.018h2.653v.908h-2.653v3.86q0 .787.298 1.098.298.31 1.041.31h1.314v.934h-1.428q-1.314 0-1.854-.527t-.54-1.816v-3.859h-1.897v-.908h1.898v-2.018z"/>
            <path fill="#4f2d68" d="M314.618 500.249v-7.744h7.75v7.744z"/>
            <path fill="#1e90ff" d="M336.657 490.6v1.302q-.584-.375-1.174-.565-.584-.19-1.18-.19-.908 0-1.435.425-.527.419-.527 1.136 0 .628.343.958.349.33 1.295.553l.672.152q1.333.311 1.943.978.61.666.61 1.815 0 1.352-.839 2.063t-2.437.711q-.667 0-1.34-.146-.672-.14-1.352-.425v-1.365q.73.463 1.378.68.654.215 1.314.215.97 0 1.51-.432.54-.438.54-1.218 0-.711-.374-1.086-.369-.374-1.29-.578l-.685-.158q-1.32-.299-1.917-.902-.596-.603-.596-1.618 0-1.27.85-2.031.857-.769 2.273-.769.546 0 1.149.127.603.121 1.27.369m3.783 8.259v3.599h-1.174v-9.813h1.174v.907q.292-.527.775-.8.489-.279 1.123-.279 1.289 0 2.019.997.736.996.736 2.761 0 1.733-.736 2.723-.736.984-2.019.984-.647 0-1.136-.273-.482-.28-.762-.806m3.428-2.653q0-1.359-.431-2.05-.426-.693-1.27-.693-.85 0-1.289.699-.438.692-.438 2.044 0 1.345.438 2.044t1.289.698q.844 0 1.27-.692.431-.692.431-2.05m9.077-.299v.572h-5.059v.038q0 1.161.603 1.796.61.635 1.714.635.559 0 1.168-.178.61-.178 1.301-.54v1.162q-.666.273-1.288.406-.616.14-1.194.14-1.656 0-2.59-.99-.933-.997-.933-2.742 0-1.702.915-2.717.914-1.016 2.437-1.016 1.358 0 2.14.92.786.921.786 2.514m-1.168-.343q-.025-1.028-.488-1.561-.457-.54-1.32-.54-.845 0-1.39.559-.547.559-.648 1.549zm6.392.616h-.387q-1.022 0-1.542.362-.514.355-.514 1.066 0 .642.387.997t1.073.355q.964 0 1.517-.666.552-.673.558-1.854v-.26zm2.267-.482v4.056h-1.175V498.7q-.374.635-.946.94-.565.298-1.377.298-1.085 0-1.733-.61-.647-.615-.647-1.643 0-1.187.793-1.803.8-.616 2.342-.616h1.568v-.184q-.006-.85-.431-1.231-.426-.388-1.359-.388-.596 0-1.206.172t-1.187.501v-1.168q.648-.247 1.238-.368.597-.127 1.155-.127.883 0 1.505.26.628.26 1.015.781.241.318.343.787.102.464.102 1.397m8.436-1.587q-.375-.292-.762-.425-.387-.134-.85-.134-1.093 0-1.67.686-.578.685-.578 1.98v3.536h-1.174v-7.11h1.174v1.39q.292-.755.895-1.155.61-.406 1.441-.406.432 0 .806.108t.718.336zm4.786-.743q.216-.457.546-.673.336-.222.806-.222.857 0 1.206.667.355.66.355 2.494v4.12h-1.066v-4.069q0-1.504-.171-1.866-.166-.368-.61-.368-.508 0-.698.393-.184.387-.184 1.841v4.069h-1.067v-4.069q0-1.523-.184-1.879-.177-.355-.647-.355-.464 0-.648.393-.177.387-.177 1.841v4.069h-1.06v-7.11h1.06v.61q.21-.381.52-.578.318-.203.717-.203.483 0 .8.222.324.222.502.673m7.991 2.812h-.387q-1.022 0-1.542.362-.514.355-.514 1.066 0 .642.387.997t1.073.355q.964 0 1.517-.666.552-.673.558-1.854v-.26zm2.267-.482v4.056h-1.175V498.7q-.374.635-.946.94-.565.298-1.377.298-1.085 0-1.733-.61-.647-.615-.647-1.643 0-1.187.793-1.803.8-.616 2.342-.616h1.568v-.184q-.006-.85-.431-1.231-.426-.388-1.359-.388-.597 0-1.206.172-.61.171-1.187.501v-1.168q.648-.247 1.238-.368.597-.127 1.155-.127.882 0 1.505.26.628.26 1.015.781.241.318.343.787.102.464.102 1.397m7.28-2.806v1.143q-.501-.292-1.009-.438t-1.035-.146q-.793 0-1.187.26-.387.254-.387.78 0 .477.292.712t1.454.457l.47.089q.87.165 1.313.66.451.495.451 1.288 0 1.054-.749 1.65-.749.591-2.082.591-.527 0-1.104-.114-.578-.108-1.25-.33v-1.206q.653.336 1.25.507.596.165 1.13.165.774 0 1.2-.31.424-.318.424-.883 0-.812-1.555-1.123l-.05-.013-.439-.089q-1.009-.197-1.472-.66-.464-.47-.464-1.276 0-1.022.692-1.574.692-.559 1.974-.559.572 0 1.099.108.526.102 1.034.311m5.548-2.266v2.019h2.653v.907h-2.653v3.86q0 .787.298 1.098.299.31 1.042.31h1.313v.934h-1.428q-1.314 0-1.853-.527-.54-.527-.54-1.815v-3.86h-1.898v-.907h1.898v-2.019zm10.988 5.281v.572h-5.06v.038q0 1.161.604 1.796.61.635 1.714.635.558 0 1.168-.178t1.301-.54v1.162q-.667.273-1.289.406-.615.14-1.193.14-1.657 0-2.59-.99-.933-.997-.933-2.742 0-1.702.914-2.717t2.438-1.016q1.358 0 2.139.92.787.921.787 2.514m-1.168-.343q-.025-1.028-.489-1.561-.457-.54-1.32-.54-.844 0-1.39.559t-.648 1.549zm9.268-1.453q-.375-.292-.762-.425-.387-.134-.85-.134-1.093 0-1.67.686-.578.685-.578 1.98v3.536h-1.174v-7.11h1.174v1.39q.292-.755.895-1.155.61-.406 1.441-.406.432 0 .806.108t.718.336z"/>
            <path fill="#aaf155" d="M424.191 500.249v-7.744h7.75v7.744z"/>
            <path fill="#1e90ff" d="M446.23 490.6v1.302q-.584-.375-1.174-.565-.584-.19-1.18-.19-.908 0-1.435.425-.527.419-.527 1.136 0 .628.343.958.349.33 1.295.553l.673.152q1.333.311 1.942.978.61.666.61 1.815 0 1.352-.839 2.063t-2.437.711q-.667 0-1.34-.146-.672-.14-1.351-.425v-1.365q.73.463 1.377.68.654.215 1.314.215.971 0 1.51-.432.54-.438.54-1.218 0-.711-.374-1.086-.368-.374-1.289-.578l-.685-.158q-1.32-.299-1.917-.902t-.597-1.618q0-1.27.85-2.031.857-.769 2.273-.769.546 0 1.149.127.603.121 1.27.369m5.86 5.58h-.388q-1.022 0-1.542.362-.514.355-.514 1.066 0 .642.387.997t1.072.355q.965 0 1.518-.666.552-.673.558-1.854v-.26zm2.265-.482v4.056h-1.174V498.7q-.374.635-.946.94-.565.298-1.377.298-1.086 0-1.733-.61-.647-.615-.647-1.643 0-1.187.793-1.803.8-.616 2.342-.616h1.568v-.184q-.006-.85-.431-1.231-.426-.388-1.359-.388-.597 0-1.206.172-.61.171-1.187.501v-1.168q.648-.247 1.238-.368.597-.127 1.155-.127.882 0 1.505.26.628.26 1.015.781.241.318.343.787.101.464.101 1.397m2.73-3.053h2.99v6.201h2.317v.908h-5.802v-.908h2.317v-5.294h-1.822zm1.822-2.768h1.168v1.479h-1.168zm11.051 5.472v4.405h-1.174v-4.405q0-.959-.337-1.41-.336-.45-1.053-.45-.82 0-1.264.584-.438.577-.438 1.663v4.018h-1.168v-7.11h1.168v1.067q.311-.61.845-.92.533-.318 1.263-.318 1.085 0 1.618.717.54.711.54 2.159m5.053-4.723v2.019h2.653v.907h-2.653v3.86q0 .787.298 1.098.298.31 1.041.31h1.314v.934h-1.428q-1.314 0-1.854-.527t-.54-1.815v-3.86h-1.897v-.907h1.898v-2.019z"/>
            <path fill="#16234f" d="M486.805 500.249v-7.744h7.75v7.744z"/>
            <path fill="#1e90ff" d="M515.287 492.905q-.248-.013-.413-.013-1.11 0-3.117.387.203.52.203.978 0 .616-.298 1.085-.349.533-.933.533-.355 0-.552-.406-.159-.323-.159-.723 0-.527.267-.876.21.45.552.603.425-.4.578-1.13-1.156.235-2.482.596-.121.426-.121.851 0 .914.489 1.473.514.584 1.415.584.565 0 1.029-.299.298-.19.806-.717.127-.133.431-.374-.006.977-.87 1.694-.818.68-1.821.68-.92 0-1.574-.534-.698-.577-.698-1.479 0-1.053.463-1.752-2.361.673-4.202 1.429.457.793 1.961 1.637 1.225.686 2.412 1.054 1.092.336 1.924.336.26 0 .774-.063.514-.07.768-.07.12 0 .229.057-.197.343-.933.553-.59.17-1.118.17-2.107 0-4.38-1.072-2.481-1.174-3.364-2.888 3.377-1.784 8.88-2.647 1.296-.203 2.184-.203 1.384 0 1.67.546"/>
            <path fill="#1e90ff" d="M541.228 474.029h1.25l.908 7.693 1.079-5.09h1.34l1.091 5.103.908-7.706h1.25l-1.415 9.477h-1.213l-1.288-5.63-1.283 5.63h-1.212zm12.282 5.903h-.387q-1.022 0-1.542.362-.515.356-.515 1.067 0 .64.388.996t1.072.356q.965 0 1.518-.667.552-.673.558-1.853v-.26zm2.266-.482v4.056h-1.174v-1.054q-.374.635-.946.94-.565.298-1.377.298-1.086 0-1.733-.61-.648-.615-.648-1.643 0-1.187.794-1.803.8-.616 2.342-.616h1.568v-.184q-.006-.85-.431-1.231-.426-.387-1.359-.387-.597 0-1.206.171-.61.171-1.187.501v-1.168q.647-.247 1.238-.368.596-.127 1.155-.127.882 0 1.505.26.628.26 1.015.781.241.318.343.787.101.464.101 1.397m5.002-5.072v2.019h2.654v.907h-2.654v3.86q0 .787.299 1.098.298.311 1.04.311h1.315v.933h-1.428q-1.314 0-1.854-.527t-.54-1.815v-3.86h-1.897v-.907h1.897v-2.019zm10.665 8.766q-.47.273-.972.407-.495.14-1.015.14-1.65 0-2.584-.991-.926-.99-.926-2.742t.926-2.742q.933-.99 2.584-.99.514 0 1.003.133t.984.412v1.225q-.464-.412-.934-.596-.463-.184-1.053-.184-1.098 0-1.689.71-.59.711-.59 2.032 0 1.314.59 2.031.597.711 1.689.711.61 0 1.092-.184.482-.19.895-.584zm7.763-4.043v4.405h-1.174v-4.405q0-.959-.337-1.41-.336-.45-1.054-.45-.818 0-1.263.584-.438.578-.438 1.663v4.018h-1.168v-9.877h1.168v3.834q.311-.61.844-.92.534-.318 1.264-.318 1.085 0 1.618.718.54.71.54 2.158m8.214.558v.572h-5.06v.038q0 1.161.604 1.796.61.635 1.714.635.558 0 1.168-.178t1.3-.54v1.162q-.666.273-1.288.407-.615.14-1.193.14-1.657 0-2.59-.991-.933-.997-.933-2.742 0-1.701.914-2.717t2.437-1.016q1.359 0 2.14.92.787.921.787 2.514m-1.168-.342q-.026-1.029-.489-1.562-.457-.54-1.32-.54-.845 0-1.39.56-.546.558-.648 1.548zm9.267-1.454q-.374-.292-.761-.425t-.85-.134q-1.093 0-1.67.686-.578.686-.578 1.98v3.536h-1.174v-7.11h1.174v1.39q.292-.754.895-1.154.61-.407 1.441-.407.432 0 .806.108t.717.337z" aria-label="Watcher"/>
            <path fill="#f0c097" d="M603.882 483.999v-7.744h7.75v7.744z"/>
        </g>
    </svg>
</svg>
