<svg class="plot-d6a7b5" fill="currentColor" font-family="system-ui, sans-serif" font-size="10" text-anchor="middle" width="830" height="470" viewBox="0 0 830 470" xmlns="http://www.w3.org/2000/svg" xmlns:xlink="http://www.w3.org/1999/xlink" color="#1e90ff"><style>:where(.plot-d6a7b5){--plot-background: white;display:block;height:intrinsic;max-width:100%}:where(.plot-d6a7b5 text),:where(.plot-d6a7b5 tspan){white-space:pre}</style><g aria-label="y-grid" stroke="currentColor" stroke-opacity=".1"><line x1="60" x2="770" y1="410" y2="410"/><line x1="60" x2="770" y1="360.939" y2="360.939"/><line x1="60" x2="770" y1="311.878" y2="311.878"/><line x1="60" x2="770" y1="262.817" y2="262.817"/><line x1="60" x2="770" y1="213.757" y2="213.757"/><line x1="60" x2="770" y1="164.696" y2="164.696"/><line x1="60" x2="770" y1="115.635" y2="115.635"/><line x1="60" x2="770" y1="66.574" y2="66.574"/></g><g aria-label="y-axis tick" fill="none" stroke="currentColor"><path transform="translate(60,410)" d="M0,0L-6,0"/><path transform="translate(60,360.9391645640594)" d="M0,0L-6,0"/><path transform="translate(60,311.8783291281189)" d="M0,0L-6,0"/><path transform="translate(60,262.8174936921783)" d="M0,0L-6,0"/><path transform="translate(60,213.7566582562377)" d="M0,0L-6,0"/><path transform="translate(60,164.69582282029717)" d="M0,0L-6,0"/><path transform="translate(60,115.6349873843566)" d="M0,0L-6,0"/><path transform="translate(60,66.57415194841604)" d="M0,0L-6,0"/></g><g aria-label="y-axis tick label" text-anchor="end" font-variant="tabular-nums"><text y=".32em" transform="translate(-9,0) translate(60,410)">0</text><text y=".32em" transform="translate(-9,0) translate(60,360.9391645640594)">1,000</text><text y=".32em" transform="translate(-9,0) translate(60,311.8783291281189)">2,000</text><text y=".32em" transform="translate(-9,0) translate(60,262.8174936921783)">3,000</text><text y=".32em" transform="translate(-9,0) translate(60,213.7566582562377)">4,000</text><text y=".32em" transform="translate(-9,0) translate(60,164.69582282029717)">5,000</text><text y=".32em" transform="translate(-9,0) translate(60,115.6349873843566)">6,000</text><text y=".32em" transform="translate(-9,0) translate(60,66.57415194841604)">7,000</text></g><g aria-label="y-axis label" text-anchor="start"><text y=".71em" transform="translate(-57,-57) translate(60,60)">↑ Visible Vestiges (4 days)</text></g><g aria-label="x-axis tick" fill="none" stroke="currentColor"><path transform="translate(65.35175879396985,410)" d="M0,0L0,6"/><path transform="translate(120.65326633165827,410)" d="M0,0L0,6"/><path transform="translate(174.1708542713568,410)" d="M0,0L0,6"/><path transform="translate(229.47236180904522,410)" d="M0,0L0,6"/><path transform="translate(282.98994974874375,410)" d="M0,0L0,6"/><path transform="translate(338.29145728643215,410)" d="M0,0L0,6"/><path transform="translate(393.5929648241206,410)" d="M0,0L0,6"/><path transform="translate(447.11055276381904,410)" d="M0,0L0,6"/><path transform="translate(502.41206030150755,410)" d="M0,0L0,6"/><path transform="translate(555.929648241206,410)" d="M0,0L0,6"/><path transform="translate(611.2311557788945,410)" d="M0,0L0,6"/><path transform="translate(666.5326633165829,410)" d="M0,0L0,6"/><path transform="translate(718.2663316582914,410)" d="M0,0L0,6"/></g><g aria-label="x-axis tick label" font-variant="tabular-nums"><text transform="translate(0,9) translate(65.35175879396985,410)"><tspan x="0" y=".71em">Mar</tspan><tspan x="0" dy="1em">2023</tspan></text><text y=".71em" transform="translate(0,9) translate(120.65326633165827,410)">Apr</text><text y=".71em" transform="translate(0,9) translate(174.1708542713568,410)">May</text><text y=".71em" transform="translate(0,9) translate(229.47236180904522,410)">Jun</text><text y=".71em" transform="translate(0,9) translate(282.98994974874375,410)">Jul</text><text y=".71em" transform="translate(0,9) translate(338.29145728643215,410)">Aug</text><text y=".71em" transform="translate(0,9) translate(393.5929648241206,410)">Sep</text><text y=".71em" transform="translate(0,9) translate(447.11055276381904,410)">Oct</text><text y=".71em" transform="translate(0,9) translate(502.41206030150755,410)">Nov</text><text y=".71em" transform="translate(0,9) translate(555.929648241206,410)">Dec</text><text transform="translate(0,9) translate(611.2311557788945,410)"><tspan x="0" y=".71em">Jan</tspan><tspan x="0" dy="1em">2024</tspan></text><text y=".71em" transform="translate(0,9) translate(666.5326633165829,410)">Feb</text><text y=".71em" transform="translate(0,9) translate(718.2663316582914,410)">Mar</text></g><g aria-label="line" fill="none" stroke="currentColor" stroke-width="1.5" stroke-linejoin="round" stroke-linecap="round"><path d="M60,410L61.189,385.371L62.379,295.296L63.568,246.726L64.757,236.913L65.946,270.177L67.136,274.003L68.325,266.497L69.514,238.434L70.704,216.013L71.893,178.237L73.082,139.626L74.271,90.369L75.461,109.65L76.65,145.66L77.839,202.669L79.028,195.015L80.218,193.445L81.407,192.906L82.596,202.227L83.786,211.5L84.975,182.996L86.164,179.12L87.353,151.989L88.543,189.815L89.732,205.22L90.921,226.905L92.111,195.948L93.3,180.395L94.489,178.089L95.678,172.398L96.868,155.718L98.057,120.05L99.246,109.601L100.436,132.463L101.625,196.683L102.814,250.013L104.003,270.765L105.193,263.21L106.382,242.555L107.571,233.038L108.76,194.623L109.95,149.978L111.139,97.041L112.328,82.862L113.518,111.808L114.707,141.343L115.896,166.756L117.085,169.111L118.275,181.131L119.464,172.595L120.653,152.136L121.843,116.665L123.032,86.689L124.221,60L125.41,86.934L126.6,122.258L127.789,160.378L128.978,147.328L130.168,133.297L131.357,116.518L132.546,104.351L133.735,106.461L134.925,106.362L136.114,107.049L137.303,95.029L138.492,125.006L139.682,147.77L140.871,175.048L142.06,172.791L143.25,182.603L144.439,202.375L145.628,199.333L146.817,182.358L148.007,158.759L149.196,141.883L150.385,161.114L151.575,182.161L152.764,219.055L153.953,234.853L155.142,250.503L156.332,249.718L157.521,224.795L158.71,202.473L159.899,178.482L161.089,176.716L162.278,168.474L163.467,188.785L164.657,212.825L165.846,207.967L167.035,205.613L168.224,211.5L169.414,247.412L170.603,255.802L171.792,231.32L172.982,208.507L174.171,194.329L175.36,192.562L176.549,221.508L177.739,245.744L178.928,262.033L180.117,240.74L181.307,245.793L182.496,248.099L183.685,252.662L184.874,215.327L186.064,195.997L187.253,185.841L188.442,211.549L189.631,223.814L190.821,231.32L192.01,235.638L193.199,238.483L194.389,248.05L195.578,248.345L196.767,235.834L197.956,235.785L199.146,227.69L200.335,239.955L201.524,253.496L202.714,267.527L203.903,274.151L205.092,266.154L206.281,265.712L207.471,267.086L208.66,259.334L209.849,217.829L211.039,195.212L212.228,179.757L213.417,216.897L214.606,223.618L215.796,247.412L216.985,243.438L218.174,262.327L219.363,246.578L220.553,241.623L221.742,218.025L222.931,203.454L224.121,196.34L225.31,200.314L226.499,230.486L227.688,232.105L228.878,239.857L230.067,249.865L231.256,249.718L232.446,261.297L233.635,259.579L234.824,278.174L236.013,273.464L237.203,263.799L238.392,265.761L239.581,263.21L240.771,262.719L241.96,262.817L243.149,267.969L244.338,285.042L245.528,277.438L246.717,269.637L247.906,263.014L249.095,259.825L250.285,265.123L251.474,263.063L252.663,273.366L253.853,272.384L255.042,264.191L256.231,257.813L257.42,261.64L258.61,269.833L259.799,270.569L260.988,274.396L262.178,265.123L263.367,267.675L264.556,255.262L265.745,262.916L266.935,264.093L268.124,284.993L269.313,288.82L270.503,293.824L271.692,272.875L272.881,265.271L274.07,260.414L275.26,258.647L276.449,260.953L277.638,256.292L278.827,262.278L280.017,245.744L281.206,237.649L282.395,247.952L283.585,265.859L284.774,276.26L285.963,281.068L287.152,283.766L288.342,298.534L289.531,288.28L290.72,291.665L291.91,280.381L293.099,284.404L294.288,276.604L295.477,280.283L296.667,278.615L297.856,282.442L299.045,276.751L300.235,276.996L301.424,272.679L302.613,283.325L303.802,279.4L304.992,283.963L306.181,277.928L307.37,271.109L308.559,268.263L309.749,262.572L310.938,269.49L312.127,277.29L313.317,270.373L314.506,268.165L315.695,274.445L316.884,286.514L318.074,296.817L319.263,281.804L320.452,289.458L321.642,282.687L322.831,288.771L324.02,284.306L325.209,276.015L326.399,262.082L327.588,253.643L328.777,272.826L329.966,271.452L331.156,271.599L332.345,257.617L333.534,263.161L334.724,270.716L335.913,270.177L337.102,279.694L338.291,269.637L339.481,269.244L340.67,254.87L341.859,255.704L343.049,255.556L344.238,266.791L345.427,258.255L346.616,242.653L347.806,208.605L348.995,213.266L350.184,232.105L351.374,264.486L352.563,273.905L353.752,282.246L354.941,287.152L356.131,287.299L357.32,288.476L358.509,288.133L359.698,286.416L360.888,284.11L362.077,281.313L363.266,277.536L364.456,273.071L365.645,276.407L366.834,264.24L368.023,249.964L369.213,234.706L370.402,250.16L371.591,257.666L372.781,256.881L373.97,253.594L375.159,252.269L376.348,262.817L377.538,266.546L378.727,281.559L379.916,292.303L381.106,304.372L382.295,298.436L383.484,298.239L384.673,287.25L385.863,282.785L387.052,285.876L388.241,287.888L389.43,292.941L390.62,294.118L391.809,296.964L392.998,299.466L394.188,300.791L395.377,300.594L396.566,291.322L397.755,278.762L398.945,281.755L400.134,284.944L401.323,294.609L402.513,300.692L403.702,307.512L404.891,314.822L406.08,324.242L407.27,331.208L408.459,307.463L409.648,288.329L410.838,276.26L412.027,283.08L413.216,301.576L414.405,310.505L415.595,334.25L416.784,334.103L417.973,330.227L419.162,324.094L420.352,307.806L421.541,300.496L422.73,270.373L423.92,254.575L425.109,265.32L426.298,289.556L427.487,316.294L428.677,312.909L429.866,314.626L431.055,308.101L432.245,313.792L433.434,310.308L434.623,299.073L435.812,292.597L437.002,288.329L438.191,309.965L439.38,320.415L440.57,335.182L441.759,329.687L442.948,326.94L444.137,315.999L445.327,310.161L446.516,300.496L447.705,294.315L448.894,293.137L450.084,309.229L451.273,321.592L452.462,331.306L453.652,327.087L454.841,332.827L456.03,329.982L457.219,320.268L458.409,306.285L459.598,288.771L460.787,275.377L461.977,270.373L463.166,281.706L464.355,301.379L465.544,316.588L466.734,323.8L467.923,320.611L469.112,313.595L470.302,314.282L471.491,318.845L472.68,303.047L473.869,282.246L475.059,277.977L476.248,303.293L477.437,329.05L478.626,341.168L479.816,335.231L481.005,332.974L482.194,326.253L483.384,316.049L484.573,290.144L485.762,276.555L486.951,272.139L488.141,295.1L489.33,307.855L490.519,316.196L491.709,315.656L492.898,314.233L494.087,319.483L495.276,307.316L496.466,308.052L497.655,303.195L498.844,315.803L500.034,323.751L501.223,328.412L502.412,330.325L503.601,332.484L504.791,346.81L505.98,348.38L507.169,324.291L508.358,300.938L509.548,277.83L510.737,286.121L511.926,301.821L513.116,330.571L514.305,334.741L515.494,333.858L516.683,334.299L517.873,342.983L519.062,343.375L520.251,341.756L521.441,333.71L522.63,336.163L523.819,329.442L525.008,338.911L526.198,344.504L527.387,357.603L528.576,357.063L529.765,356.72L530.955,353.531L532.144,360.203L533.333,346.761L534.523,326.351L535.712,301.526L536.901,303.096L538.09,312.32L539.28,331.012L540.469,339.058L541.658,349.165L542.848,342.198L544.037,334.839L545.226,323.555L546.415,322.525L547.605,320.17L548.794,322.083L549.983,321.396L551.173,328.412L552.362,330.08L553.551,327.627L554.74,316.441L555.93,316.588L557.119,321.494L558.308,338.567L559.497,335.28L560.687,330.914L561.876,324.83L563.065,335.133L564.255,351.618L565.444,355.935L566.633,351.765L567.822,345.927L569.012,351.618L570.201,354.12L571.39,355.837L572.58,352.354L573.769,349.802L574.958,352.599L576.147,348.281L577.337,343.523L578.526,344.258L579.715,355.641L580.905,369.034L582.094,366.091L583.283,355.248L584.472,340.775L585.662,335.133L586.851,343.768L588.04,351.961L589.229,347.742L590.419,347.496L591.608,353.04L592.797,361.037L593.987,353.089L595.176,349.999L596.365,345.779L597.554,338.518L598.744,327.725L599.933,334.005L601.122,346.025L602.312,344.847L603.501,336.213L604.69,328.951L605.879,335.378L607.069,333.073L608.258,333.024L609.447,332.631L610.637,336.409L611.826,338.813L613.015,338.42L614.204,338.616L615.394,332.582L616.583,335.918L617.772,341.707L618.961,342.787L620.151,351.274L621.34,347.251L622.529,347.938L623.719,343.032L624.908,343.572L626.097,351.421L627.286,353.433L628.476,357.701L629.665,366.483L630.854,369.966L632.044,364.472L633.233,351.814L634.422,337.292L635.611,326.548L636.801,317.177L637.99,325.615L639.179,336.507L640.369,353.973L641.558,344.16L642.747,334.397L643.936,331.454L645.126,342.051L646.315,345.632L647.504,336.507L648.693,308.689L649.883,307.561L651.072,305.5L652.261,330.08L653.451,339.598L654.64,349.214L655.829,358.29L657.018,360.988L658.208,346.859L659.397,315.411L660.586,299.907L661.776,295.345L662.965,313.399L664.154,323.849L665.343,342.149L666.533,342.002L667.722,341.854L668.911,334.25L670.101,339.058L671.29,327.627L672.479,312.271L673.668,298.141L674.858,305.893L676.047,317.569L677.236,327.038L678.425,333.661L679.615,332.68L680.804,326.94L681.993,311.486L683.183,315.705L684.372,307.463L685.561,290.095L686.75,267.871L687.94,275.77L689.129,294.952L690.318,304.323L691.508,303.342L692.697,311.339L693.886,326.891L695.075,332.533L696.265,330.276L697.454,319.434L698.643,309.131L699.832,319.728L701.022,328.608L702.211,336.948L703.4,320.366L704.59,321.2L705.779,329.835L706.968,334.005L708.157,324.389L709.347,305.549L710.536,307.708L711.725,309.916L712.915,328.019L714.104,328.412L715.293,338.911L716.482,340.039L717.672,343.179L718.861,342.492L720.05,337.979L721.24,336.605L722.429,322.868L723.618,321.887L724.807,324.536L725.997,348.576L727.186,355.248L728.375,352.991L729.564,350.146L730.754,354.169L731.943,360.596L733.132,347.546L734.322,339.058L735.511,338.764L736.7,341.02L737.889,340.186L739.079,347.006L740.268,359.664L741.457,356.426L742.647,346.81L743.836,339.941L745.025,337.194L746.214,329.344L747.404,313.743L748.593,313.105L749.782,321.396L750.972,359.516L752.161,387.825L753.35,406.124L754.539,409.166L755.729,409.215L756.918,408.97L758.107,408.724L759.296,406.86L760.486,405.634L761.675,405.094L762.864,404.652L764.054,401.954L765.243,399.943L766.432,398.667L767.621,395.38L768.811,388.168L770,366.287"/></g></svg>