<?xml version="1.0"?>
<svg xmlns="http://www.w3.org/2000/svg" xmlns:xlink="http://www.w3.org/1999/xlink" class="plot-d6a7b5" fill="currentColor" font-family="system-ui, sans-serif" font-size="10" text-anchor="middle" width="830" height="470" viewBox="0 0 830 470" color="#1e90ff">
  <style>:where(.plot-d6a7b5){--plot-background: white;display:block;height:intrinsic;max-width:100%}:where(.plot-d6a7b5 text),:where(.plot-d6a7b5 tspan){white-space:pre}</style>
  <g aria-label="y-grid" stroke="currentColor" stroke-opacity=".1">
    <line x1="60" x2="770" y1="410" y2="410"/>
    <line x1="60" x2="770" y1="384.715" y2="384.715"/>
    <line x1="60" x2="770" y1="359.429" y2="359.429"/>
    <line x1="60" x2="770" y1="334.144" y2="334.144"/>
    <line x1="60" x2="770" y1="308.859" y2="308.859"/>
    <line x1="60" x2="770" y1="283.574" y2="283.574"/>
    <line x1="60" x2="770" y1="258.288" y2="258.288"/>
    <line x1="60" x2="770" y1="233.003" y2="233.003"/>
    <line x1="60" x2="770" y1="207.718" y2="207.718"/>
    <line x1="60" x2="770" y1="182.433" y2="182.433"/>
    <line x1="60" x2="770" y1="157.147" y2="157.147"/>
    <line x1="60" x2="770" y1="131.862" y2="131.862"/>
    <line x1="60" x2="770" y1="106.577" y2="106.577"/>
    <line x1="60" x2="770" y1="81.292" y2="81.292"/>
  </g>
  <g aria-label="y-axis tick" fill="none" stroke="currentColor">
    <path transform="translate(60,410)" d="M0,0L-6,0"/>
    <path transform="translate(60,384.71474621551994)" d="M0,0L-6,0"/>
    <path transform="translate(60,359.4294924310399)" d="M0,0L-6,0"/>
    <path transform="translate(60,334.14423864655987)" d="M0,0L-6,0"/>
    <path transform="translate(60,308.85898486207975)" d="M0,0L-6,0"/>
    <path transform="translate(60,283.57373107759975)" d="M0,0L-6,0"/>
    <path transform="translate(60,258.2884772931197)" d="M0,0L-6,0"/>
    <path transform="translate(60,233.00322350863962)" d="M0,0L-6,0"/>
    <path transform="translate(60,207.71796972415956)" d="M0,0L-6,0"/>
    <path transform="translate(60,182.43271593967947)" d="M0,0L-6,0"/>
    <path transform="translate(60,157.14746215519943)" d="M0,0L-6,0"/>
    <path transform="translate(60,131.86220837071937)" d="M0,0L-6,0"/>
    <path transform="translate(60,106.57695458623932)" d="M0,0L-6,0"/>
    <path transform="translate(60,81.29170080175929)" d="M0,0L-6,0"/>
  </g>
  <g aria-label="y-axis tick label" text-anchor="end" font-variant="tabular-nums">
    <text y=".32em" transform="translate(-9,0) translate(60,410)">0</text>
    <text y=".32em" transform="translate(-9,0) translate(60,384.71474621551994)">50,000</text>
    <text y=".32em" transform="translate(-9,0) translate(60,359.4294924310399)">100,000</text>
    <text y=".32em" transform="translate(-9,0) translate(60,334.14423864655987)">150,000</text>
    <text y=".32em" transform="translate(-9,0) translate(60,308.85898486207975)">200,000</text>
    <text y=".32em" transform="translate(-9,0) translate(60,283.57373107759975)">250,000</text>
    <text y=".32em" transform="translate(-9,0) translate(60,258.2884772931197)">300,000</text>
    <text y=".32em" transform="translate(-9,0) translate(60,233.00322350863962)">350,000</text>
    <text y=".32em" transform="translate(-9,0) translate(60,207.71796972415956)">400,000</text>
    <text y=".32em" transform="translate(-9,0) translate(60,182.43271593967947)">450,000</text>
    <text y=".32em" transform="translate(-9,0) translate(60,157.14746215519943)">500,000</text>
    <text y=".32em" transform="translate(-9,0) translate(60,131.86220837071937)">550,000</text>
    <text y=".32em" transform="translate(-9,0) translate(60,106.57695458623932)">600,000</text>
    <text y=".32em" transform="translate(-9,0) translate(60,81.29170080175929)">650,000</text>
  </g>
  <g aria-label="y-axis label" text-anchor="start">
    <text y=".71em" transform="translate(-57,-57) translate(60,60)">&#x2191; Total Vestiges</text>
  </g>
  <g aria-label="x-axis tick" fill="none" stroke="currentColor">
    <path transform="translate(86.05035971223022,410)" d="M0,0L0,6"/>
    <path transform="translate(155.77338129496403,410)" d="M0,0L0,6"/>
    <path transform="translate(226.26258992805757,410)" d="M0,0L0,6"/>
    <path transform="translate(296.7517985611511,410)" d="M0,0L0,6"/>
    <path transform="translate(366.4748201438849,410)" d="M0,0L0,6"/>
    <path transform="translate(436.19784172661866,410)" d="M0,0L0,6"/>
    <path transform="translate(506.6870503597122,410)" d="M0,0L0,6"/>
    <path transform="translate(577.1762589928059,410)" d="M0,0L0,6"/>
    <path transform="translate(646.1330935251799,410)" d="M0,0L0,6"/>
    <path transform="translate(715.8561151079136,410)" d="M0,0L0,6"/>
  </g>
  <g aria-label="x-axis tick label" font-variant="tabular-nums">
    <text transform="translate(0,9) translate(86.05035971223022,410)">
      <tspan x="0" y=".71em">Apr</tspan>
      <tspan x="0" dy="1em">2023</tspan>
    </text>
    <text y=".71em" transform="translate(0,9) translate(155.77338129496403,410)">Jul</text>
    <text y=".71em" transform="translate(0,9) translate(226.26258992805757,410)">Oct</text>
    <text transform="translate(0,9) translate(296.7517985611511,410)">
      <tspan x="0" y=".71em">Jan</tspan>
      <tspan x="0" dy="1em">2024</tspan>
    </text>
    <text y=".71em" transform="translate(0,9) translate(366.4748201438849,410)">Apr</text>
    <text y=".71em" transform="translate(0,9) translate(436.19784172661866,410)">Jul</text>
    <text y=".71em" transform="translate(0,9) translate(506.6870503597122,410)">Oct</text>
    <text transform="translate(0,9) translate(577.1762589928059,410)">
      <tspan x="0" y=".71em">Jan</tspan>
      <tspan x="0" dy="1em">2025</tspan>
    </text>
    <text y=".71em" transform="translate(0,9) translate(646.1330935251799,410)">Apr</text>
    <text y=".71em" transform="translate(0,9) translate(715.8561151079136,410)">Jul</text>
  </g>
  <g aria-label="line" fill="none" stroke="currentColor" stroke-width="1.5" stroke-linejoin="round" stroke-linecap="round">
    <path d="M60,410L60.511,409.746L61.022,408.818L61.532,408.317L62.043,407.962L62.554,407.376L63.065,406.915L63.576,406.483L64.086,405.608L64.597,404.916L65.108,404.094L65.619,402.821L66.129,401.621L66.64,400.998L67.151,400.096L67.662,399.484L68.173,398.782L68.683,397.864L69.194,397.246L69.705,396.64L70.216,395.818L70.727,394.906L71.237,394.26L71.748,393.159L72.259,392.637L72.77,392.15L73.281,391.271L73.791,390.43L74.302,389.783L74.813,388.881L75.324,387.981L75.835,387.162L76.345,385.892L76.856,384.885L77.367,384.301L77.878,383.693L78.388,383.236L78.899,382.866L79.41,382.18L79.921,381.51L80.432,381.042L80.942,379.96L81.453,378.829L81.964,377.816L82.475,376.588L82.986,375.756L83.496,375.047L84.007,374.081L84.518,373.273L85.029,372.688L85.54,371.634L86.05,370.615L86.561,369.664L87.072,368.301L87.583,367.007L88.094,366.334L88.604,365.335L89.115,364.434L89.626,363.626L90.137,362.483L90.647,361.409L91.158,360.476L91.669,359.354L92.18,358.279L92.691,357.353L93.201,356.108L93.712,355.341L94.223,354.65L94.734,353.686L95.245,352.896L95.755,352.306L96.266,351.546L96.777,350.725L97.288,349.96L97.799,348.956L98.309,347.961L98.82,347.394L99.331,346.607L99.842,345.993L100.353,345.589L100.863,344.963L101.374,344.341L101.885,343.68L102.396,342.824L102.906,341.954L103.417,341.275L103.928,340.335L104.439,339.674L104.95,339.243L105.46,338.252L105.971,337.567L106.482,337.197L106.993,336.576L107.504,335.978L108.014,335.355L108.525,334.499L109.036,333.755L109.547,333.114L110.058,332.556L110.568,332.062L111.079,331.588L111.59,330.812L112.101,330.369L112.612,329.92L113.122,329.19L113.633,328.363L114.144,327.714L114.655,326.879L115.165,326.317L115.676,325.795L116.187,325.038L116.698,324.52L117.209,324.027L117.719,323.368L118.23,322.853L118.741,322.231L119.252,321.572L119.763,320.974L120.273,320.479L120.784,319.959L121.295,319.506L121.806,319.078L122.317,318.476L122.827,318.018L123.338,317.605L123.849,316.923L124.36,316.037L124.871,315.391L125.381,314.55L125.892,314.047L126.403,313.47L126.914,312.874L127.424,312.33L127.935,311.948L128.446,311.19L128.957,310.595L129.468,309.969L129.978,309.061L130.489,308.392L131,307.808L131.511,307.21L132.022,306.559L132.532,306.054L133.043,305.56L133.554,304.906L134.065,304.521L134.576,304.009L135.086,303.548L135.597,303.114L136.108,302.502L136.619,302.061L137.129,301.601L137.64,300.984L138.151,300.544L138.662,300.137L139.173,299.696L139.683,299.177L140.194,298.69L140.705,298.181L141.216,297.629L141.727,297.196L142.237,296.666L142.748,296.221L143.259,295.778L143.77,295.163L144.281,294.652L144.791,294.249L145.302,293.719L145.813,293.215L146.324,292.851L146.835,292.225L147.345,291.748L147.856,291.256L148.367,290.709L148.878,290.244L149.388,289.967L149.899,289.46L150.41,289.046L150.921,288.554L151.432,287.968L151.942,287.505L152.453,286.994L152.964,286.432L153.475,285.92L153.986,285.471L154.496,284.739L155.007,284.144L155.518,283.801L156.029,283.253L156.54,282.765L157.05,282.472L157.561,281.952L158.072,281.616L158.583,281.217L159.094,280.732L159.604,280.28L160.115,279.923L160.626,279.357L161.137,278.943L161.647,278.568L162.158,278.042L162.669,277.569L163.18,277.197L163.691,276.627L164.201,276.264L164.712,275.851L165.223,275.328L165.734,274.902L166.245,274.419L166.755,273.867L167.266,273.383L167.777,272.971L168.288,272.499L168.799,271.944L169.309,271.509L169.82,271.102L170.331,270.671L170.842,270.342L171.353,269.78L171.863,269.428L172.374,269.03L172.885,268.531L173.396,268.133L173.906,267.649L174.417,267.006L174.928,266.521L175.439,266.235L175.95,265.578L176.46,265.094L176.971,264.664L177.482,264.064L177.993,263.659L178.504,263.223L179.014,262.721L179.525,262.212L180.036,261.772L180.547,261.122L181.058,260.621L181.568,260.18L182.079,259.646L182.59,259.057L183.101,258.455L183.612,257.57L184.122,257.029L184.633,256.622L185.144,256.07L185.655,255.626L186.165,255.305L186.676,254.804L187.187,254.362L187.698,254.052L188.209,253.547L188.719,253.088L189.23,252.755L189.741,252.221L190.252,251.722L190.763,251.343L191.273,250.844L191.784,250.22L192.295,249.694L192.806,249.037L193.317,248.572L193.827,248.123L194.338,247.459L194.849,246.96L195.36,246.497L195.871,245.942L196.381,245.481L196.892,245.174L197.403,244.729L197.914,244.393L198.424,244.024L198.935,243.577L199.446,243.127L199.957,242.712L200.468,242.297L200.978,241.869L201.489,241.506L202,241.103L202.511,240.704L203.022,240.366L203.532,239.977L204.043,239.576L204.554,239.143L205.065,238.624L205.576,238.254L206.086,237.854L206.597,237.435L207.108,237.127L207.619,236.798L208.129,236.454L208.64,236.243L209.151,235.985L209.662,235.397L210.173,234.989L210.683,234.607L211.194,234.088L211.705,233.872L212.216,233.581L212.727,233.308L213.237,233.089L213.748,232.759L214.259,232.422L214.77,232.036L215.281,231.63L215.791,230.983L216.302,230.434L216.813,230.139L217.324,229.741L217.835,229.468L218.345,229.138L218.856,228.758L219.367,228.417L219.878,228.146L220.388,227.731L220.899,227.274L221.41,226.936L221.921,226.477L222.432,226.243L222.942,226.013L223.453,225.705L223.964,225.415L224.475,225.157L224.986,224.736L225.496,224.386L226.007,224.028L226.518,223.544L227.029,223.181L227.54,222.989L228.05,222.633L228.561,222.37L229.072,222.135L229.583,221.837L230.094,221.545L230.604,221.21L231.115,220.768L231.626,220.296L232.137,219.822L232.647,219.329L233.158,218.973L233.669,218.702L234.18,218.366L234.691,218.085L235.201,217.781L235.712,217.372L236.223,217.098L236.734,216.841L237.245,216.27L237.755,215.781L238.266,215.481L238.777,215.17L239.288,214.947L239.799,214.771L240.309,214.399L240.82,214.153L241.331,213.908L241.842,213.431L242.353,212.918L242.863,212.532L243.374,212.01L243.885,211.733L244.396,211.479L244.906,211.043L245.417,210.761L245.928,210.492L246.439,210.11L246.95,209.702L247.46,209.441L247.971,209.009L248.482,208.731L248.993,208.552L249.504,208.168L250.014,207.91L250.525,207.753L251.036,207.517L251.547,207.275L252.058,206.87L252.568,206.393L253.079,205.913L253.59,205.593L254.101,205.277L254.612,205.094L255.122,204.817L255.633,204.493L256.144,204.314L256.655,204.126L257.165,203.806L257.676,203.61L258.187,203.34L258.698,203.045L259.209,202.78L259.719,202.607L260.23,202.37L260.741,202.24L261.252,202.062L261.763,201.82L262.273,201.658L262.784,201.548L263.295,201.169L263.806,200.795L264.317,200.43L264.827,200.067L265.338,199.789L265.849,199.616L266.36,199.335L266.871,199.161L267.381,198.917L267.892,198.561L268.403,198.27L268.914,198.016L269.424,197.635L269.935,197.364L270.446,197.102L270.957,196.794L271.468,196.54L271.978,196.253L272.489,195.829L273,195.578L273.511,195.341L274.022,195.093L274.532,194.807L275.043,194.526L275.554,194.215L276.065,194.036L276.576,193.924L277.086,193.658L277.597,193.435L278.108,193.263L278.619,193.056L279.129,192.859L279.64,192.705L280.151,192.462L280.662,192.239L281.173,192.113L281.683,191.826L282.194,191.554L282.705,191.436L283.216,191.265L283.727,191.131L284.237,190.983L284.748,190.701L285.259,190.418L285.77,190.211L286.281,190.018L286.791,189.82L287.302,189.57L287.813,189.374L288.324,189.232L288.835,189.065L289.345,188.787L289.856,188.614L290.367,188.403L290.878,188.051L291.388,187.766L291.899,187.62L292.41,187.391L292.921,187.094L293.432,186.859L293.942,186.556L294.453,186.325L294.964,186.066L295.475,185.762L295.986,185.528L296.496,185.308L297.007,185.029L297.518,184.79L298.029,184.572L298.54,184.23L299.05,184.026L299.561,183.868L300.072,183.538L300.583,183.421L301.094,183.221L301.604,182.898L302.115,182.731L302.626,182.536L303.137,182.294L303.647,182.147L304.158,181.997L304.669,181.846L305.18,181.735L305.691,181.528L306.201,181.246L306.712,180.985L307.223,180.668L307.734,180.289L308.245,180.116L308.755,179.91L309.266,179.712L309.777,179.437L310.288,179.131L310.799,178.902L311.309,178.737L311.82,178.467L312.331,178.144L312.842,177.692L313.353,177.412L313.863,177.067L314.374,176.868L314.885,176.686L315.396,176.441L315.906,176.335L316.417,176.181L316.928,175.79L317.439,175.36L317.95,175.046L318.46,174.608L318.971,174.365L319.482,174.158L319.993,173.909L320.504,173.664L321.014,173.455L321.525,173.128L322.036,172.933L322.547,172.606L323.058,172.12L323.568,171.78L324.079,171.533L324.59,171.168L325.101,170.924L325.612,170.746L326.122,170.371L326.633,170.068L327.144,169.731L327.655,169.399L328.165,169.011L328.676,168.495L329.187,167.934L329.698,167.628L330.209,167.309L330.719,166.844L331.23,166.528L331.741,166.292L332.252,165.988L332.763,165.73L333.273,165.47L333.784,165.054L334.295,164.69L334.806,164.54L335.317,164.215L335.827,163.937L336.338,163.616L336.849,163.3L337.36,163.111L337.871,162.833L338.381,162.417L338.892,162.034L339.403,161.778L339.914,161.386L340.424,161.189L340.935,160.937L341.446,160.653L341.957,160.468L342.468,160.248L342.978,159.957L343.489,159.726L344,159.492L344.511,159.059L345.022,158.817L345.532,158.611L346.043,158.426L346.554,158.253L347.065,158.023L347.576,157.809L348.086,157.677L348.597,157.514L349.108,157.165L349.619,156.946L350.129,156.78L350.64,156.454L351.151,156.227L351.662,156.13L352.173,155.935L352.683,155.674L353.194,155.479L353.705,155.213L354.216,154.924L354.727,154.648L355.237,154.221L355.748,153.925L356.259,153.734L356.77,153.701L357.281,153.697L357.791,153.695L358.302,153.692L358.813,153.688L359.324,153.684L359.835,153.679L360.345,153.656L360.856,153.639L361.367,153.628L361.878,153.601L362.388,153.556L362.899,153.525L363.41,153.484L363.921,153.405L364.432,153.3L364.942,153.034L365.453,152.854L365.964,152.685L366.475,152.533L366.986,152.389L367.496,152.223L368.007,152.012L368.518,151.823L369.029,151.599L369.54,151.366L370.05,151.16L370.561,150.91L371.072,150.719L371.583,150.574L372.094,150.363L372.604,150.137L373.115,150.039L373.626,149.892L374.137,149.674L374.647,149.551L375.158,149.422L375.669,149.231L376.18,149.079L376.691,148.857L377.201,148.67L377.712,148.559L378.223,148.39L378.734,148.243L379.245,148.104L379.755,148.008L380.266,147.888L380.777,147.817L381.288,147.689L381.799,147.553L382.309,147.381L382.82,147.139L383.331,146.985L383.842,146.885L384.353,146.672L384.863,146.509L385.374,146.362L385.885,146.209L386.396,145.995L386.906,145.847L387.417,145.641L387.928,145.501L388.439,145.392L388.95,145.226L389.46,145.042L389.971,144.851L390.482,144.726L390.993,144.554L391.504,144.408L392.014,144.225L392.525,143.964L393.036,143.768L393.547,143.516L394.058,143.377L394.568,143.254L395.079,143.082L395.59,142.912L396.101,142.768L396.612,142.576L397.122,142.357L397.633,142.221L398.144,141.975L398.655,141.758L399.165,141.582L399.676,141.327L400.187,141.181L400.698,141.068L401.209,140.978L401.719,140.854L402.23,140.696L402.741,140.525L403.252,140.165L403.763,139.987L404.273,139.714L404.784,139.586L405.295,139.461L405.806,139.308L406.317,139.08L406.827,139.002L407.338,138.835L407.849,138.651L408.36,138.485L408.871,138.232L409.381,137.919L409.892,137.755L410.403,137.481L410.914,137.354L411.424,137.184L411.935,136.877L412.446,136.652L412.957,136.499L413.468,136.251L413.978,135.986L414.489,135.843L415,135.515L415.511,135.367L416.022,135.219L416.532,135.005L417.043,134.783L417.554,134.632L418.065,134.383L418.576,134.187L419.086,133.984L419.597,133.684L420.108,133.385L420.619,133.17L421.129,132.964L421.64,132.69L422.151,132.526L422.662,132.356L423.173,132.204L423.683,131.986L424.194,131.799L424.705,131.599L425.216,131.415L425.727,131.218L426.237,130.998L426.748,130.931L427.259,130.829L427.77,130.673L428.281,130.55L428.791,130.256L429.302,130.085L429.813,129.964L430.324,129.804L430.835,129.463L431.345,129.346L431.856,129.173L432.367,128.94L432.878,128.765L433.388,128.65L433.899,128.498L434.41,128.403L434.921,128.274L435.432,128.127L435.942,127.973L436.453,127.695L436.964,127.501L437.475,127.369L437.986,127.126L438.496,126.95L439.007,126.773L439.518,126.641L440.029,126.507L440.54,126.407L441.05,126.237L441.561,126.047L442.072,125.964L442.583,125.85L443.094,125.728L443.604,125.613L444.115,125.476L444.626,125.313L445.137,125.135L445.647,124.942L446.158,124.835L446.669,124.723L447.18,124.54L447.691,124.379L448.201,124.277L448.712,124.095L449.223,123.927L449.734,123.794L450.245,123.634L450.755,123.468L451.266,123.289L451.777,123.045L452.288,122.71L452.799,122.502L453.309,122.28L453.82,122.127L454.331,121.98L454.842,121.776L455.353,121.633L455.863,121.522L456.374,121.386L456.885,121.243L457.396,121.087L457.906,120.919L458.417,120.682L458.928,120.511L459.439,120.239L459.95,119.981L460.46,119.718L460.971,119.451L461.482,119.215L461.993,118.943L462.504,118.652L463.014,118.505L463.525,118.312L464.036,117.963L464.547,117.782L465.058,117.618L465.568,117.391L466.079,117.234L466.59,117.154L467.101,116.685L467.612,116.279L468.122,115.875L468.633,115.442L469.144,115.092L469.655,114.84L470.165,114.447L470.676,114.034L471.187,113.78L471.698,113.54L472.209,113.25L472.719,112.982L473.23,112.685L473.741,112.356L474.252,112.139L474.763,112.005L475.273,111.76L475.784,111.622L476.295,111.475L476.806,111.282L477.317,111.099L477.827,110.887L478.338,110.63L478.849,110.374L479.36,110.177L479.871,109.977L480.381,109.801L480.892,109.646L481.403,109.539L481.914,109.459L482.424,109.367L482.935,109.25L483.446,109.113L483.957,109.017L484.468,108.864L484.978,108.76L485.489,108.639L486,108.532L486.511,108.398L487.022,108.29L487.532,108.095L488.043,107.954L488.554,107.8L489.065,107.681L489.576,107.504L490.086,107.321L490.597,107.16L491.108,107.036L491.619,106.884L492.129,106.772L492.64,106.645L493.151,106.561L493.662,106.459L494.173,106.346L494.683,106.252L495.194,106.088L495.705,105.955L496.216,105.841L496.727,105.725L497.237,105.588L497.748,105.466L498.259,105.311L498.77,105.211L499.281,105.034L499.791,104.795L500.302,104.567L500.813,104.249L501.324,104.112L501.835,103.955L502.345,103.792L502.856,103.69L503.367,103.519L503.878,103.349L504.388,103.179L504.899,102.955L505.41,102.56L505.921,102.385L506.432,102.271L506.942,102.027L507.453,101.881L507.964,101.802L508.475,101.639L508.986,101.504L509.496,101.397L510.007,101.209L510.518,100.995L511.029,100.786L511.54,100.488L512.05,100.373L512.561,100.272L513.072,100.128L513.583,100L514.094,99.927L514.604,99.84L515.115,99.712L515.626,99.647L516.137,99.525L516.647,99.417L517.158,99.335L517.669,99.234L518.18,99.172L518.691,99.073L519.201,98.928L519.712,98.806L520.223,98.714L520.734,98.526L521.245,98.377L521.755,98.243L522.266,98.046L522.777,97.99L523.288,97.917L523.799,97.787L524.309,97.71L524.82,97.63L525.331,97.527L525.842,97.461L526.353,97.383L526.863,97.194L527.374,97.077L527.885,97.035L528.396,96.985L528.906,96.912L529.417,96.807L529.928,96.705L530.439,96.55L530.95,96.468L531.46,96.3L531.971,96.064L532.482,95.89L532.993,95.631L533.504,95.447L534.014,95.329L534.525,95.217L535.036,95.107L535.547,94.977L536.058,94.877L536.568,94.791L537.079,94.64L537.59,94.49L538.101,94.327L538.612,94.241L539.122,94.091L539.633,94.03L540.144,93.957L540.655,93.809L541.165,93.715L541.676,93.619L542.187,93.51L542.698,93.371L543.209,93.245L543.719,93.109L544.23,93.029L544.741,92.917L545.252,92.785L545.763,92.669L546.273,92.56L546.784,92.413L547.295,92.311L547.806,92.193L548.317,92.011L548.827,91.83L549.338,91.758L549.849,91.656L550.36,91.539L550.871,91.462L551.381,91.357L551.892,91.275L552.403,91.231L552.914,91.129L553.424,91.077L553.935,91.05L554.446,90.979L554.957,90.882L555.468,90.832L555.978,90.776L556.489,90.668L557,90.5L557.511,90.39L558.022,90.234L558.532,90.173L559.043,90.085L559.554,90.016L560.065,89.921L560.576,89.827L561.086,89.777L561.597,89.709L562.108,89.593L562.619,89.502L563.129,89.417L563.64,89.262L564.151,89.109L564.662,89.028L565.173,88.883L565.683,88.802L566.194,88.657L566.705,88.548L567.216,88.495L567.727,88.431L568.237,88.322L568.748,88.235L569.259,88.135L569.77,87.957L570.281,87.904L570.791,87.774L571.302,87.667L571.813,87.581L572.324,87.513L572.835,87.428L573.345,87.366L573.856,87.284L574.367,87.195L574.878,87.055L575.388,86.938L575.899,86.696L576.41,86.523L576.921,86.384L577.432,86.22L577.942,86.096L578.453,85.981L578.964,85.784L579.475,85.581L579.986,85.473L580.496,85.287L581.007,85.176L581.518,85.107L582.029,84.98L582.54,84.892L583.05,84.796L583.561,84.73L584.072,84.589L584.583,84.503L585.094,84.403L585.604,84.307L586.115,84.193L586.626,84.112L587.137,84.02L587.647,83.938L588.158,83.845L588.669,83.71L589.18,83.612L589.691,83.439L590.201,83.334L590.712,83.225L591.223,83.089L591.734,82.957L592.245,82.816L592.755,82.662L593.266,82.554L593.777,82.49L594.288,82.356L594.799,82.242L595.309,82.14L595.82,82.008L596.331,81.859L596.842,81.647L597.353,81.38L597.863,81.188L598.374,81.083L598.885,80.968L599.396,80.879L599.906,80.777L600.417,80.633L600.928,80.542L601.439,80.469L601.95,80.278L602.46,80.111L602.971,80.028L603.482,79.882L603.993,79.761L604.504,79.649L605.014,79.528L605.525,79.367L606.036,79.176L606.547,79.052L607.058,78.928L607.568,78.843L608.079,78.738L608.59,78.646L609.101,78.606L609.612,78.429L610.122,78.352L610.633,78.228L611.144,78.069L611.655,77.938L612.165,77.753L612.676,77.578L613.187,77.457L613.698,77.337L614.209,77.138L614.719,77.037L615.23,76.929L615.741,76.753L616.252,76.642L616.763,76.51L617.273,76.329L617.784,76.239L618.295,76.141L618.806,75.984L619.317,75.879L619.827,75.685L620.338,75.579L620.849,75.399L621.36,75.244L621.871,75.147L622.381,75.058L622.892,74.937L623.403,74.7L623.914,74.472L624.424,74.324L624.935,74.125L625.446,73.998L625.957,73.849L626.468,73.622L626.978,73.45L627.489,73.302L628,73.153L628.511,73.052L629.022,72.927L629.532,72.812L630.043,72.681L630.554,72.564L631.065,72.43L631.576,72.324L632.086,72.199L632.597,72.014L633.108,71.873L633.619,71.786L634.129,71.703L634.64,71.6L635.151,71.501L635.662,71.406L636.173,71.342L636.683,71.273L637.194,71.16L637.705,71.102L638.216,71.03L638.727,70.925L639.237,70.824L639.748,70.735L640.259,70.595L640.77,70.523L641.281,70.406L641.791,70.331L642.302,70.178L642.813,70.11L643.324,69.983L643.835,69.935L644.345,69.875L644.856,69.707L645.367,69.619L645.878,69.517L646.388,69.469L646.899,69.398L647.41,69.278L647.921,69.204L648.432,69.133L648.942,69.108L649.453,69.033L649.964,69.002L650.475,68.932L650.986,68.884L651.496,68.77L652.007,68.652L652.518,68.54L653.029,68.503L653.54,68.437L654.05,68.384L654.561,68.349L655.072,68.328L655.583,68.231L656.094,68.159L656.604,68.075L657.115,68.042L657.626,67.98L658.137,67.921L658.647,67.825L659.158,67.799L659.669,67.753L660.18,67.712L660.691,67.624L661.201,67.536L661.712,67.473L662.223,67.418L662.734,67.365L663.245,67.324L663.755,67.288L664.266,67.268L664.777,67.249L665.288,67.21L665.799,67.147L666.309,67.135L666.82,67.101L667.331,67.086L667.842,67.059L668.353,67.041L668.863,67.026L669.374,67.008L669.885,66.995L670.396,66.986L670.906,66.959L671.417,66.906L671.928,66.886L672.439,66.856L672.95,66.854L673.46,66.814L673.971,66.779L674.482,66.737L674.993,66.713L675.504,66.634L676.014,66.606L676.525,66.584L677.036,66.555L677.547,66.516L678.058,66.478L678.568,66.467L679.079,66.458L679.59,66.443L680.101,66.425L680.612,66.399L681.122,66.359L681.633,66.323L682.144,66.294L682.655,66.244L683.165,66.181L683.676,66.141L684.187,66.102L684.698,66.058L685.209,66.046L685.719,66.004L686.23,65.945L686.741,65.915L687.252,65.84L687.763,65.774L688.273,65.731L688.784,65.667L689.295,65.64L689.806,65.616L690.317,65.595L690.827,65.542L691.338,65.454L691.849,65.434L692.36,65.359L692.871,65.304L693.381,65.275L693.892,65.246L694.403,65.229L694.914,65.196L695.424,65.157L695.935,65.101L696.446,65.05L696.957,64.988L697.468,64.939L697.978,64.925L698.489,64.863L699,64.832L699.511,64.809L700.022,64.807L700.532,64.781L701.043,64.754L701.554,64.719L702.065,64.674L702.576,64.658L703.086,64.622L703.597,64.605L704.108,64.586L704.619,64.567L705.129,64.545L705.64,64.528L706.151,64.486L706.662,64.463L707.173,64.435L707.683,64.364L708.194,64.319L708.705,64.289L709.216,64.248L709.727,64.187L710.237,64.133L710.748,64.107L711.259,64.063L711.77,64.01L712.281,63.97L712.791,63.942L713.302,63.898L713.813,63.826L714.324,63.813L714.835,63.801L715.345,63.764L715.856,63.693L716.367,63.664L716.878,63.589L717.388,63.54L717.899,63.51L718.41,63.414L718.921,63.352L719.432,63.327L719.942,63.264L720.453,63.247L720.964,63.204L721.475,63.201L721.986,63.169L722.496,63.151L723.007,63.134L723.518,63.1L724.029,63.072L724.54,63.019L725.05,62.969L725.561,62.88L726.072,62.847L726.583,62.807L727.094,62.793L727.604,62.745L728.115,62.703L728.626,62.631L729.137,62.613L729.647,62.581L730.158,62.524L730.669,62.472L731.18,62.455L731.691,62.403L732.201,62.362L732.712,62.357L733.223,62.327L733.734,62.29L734.245,62.238L734.755,62.201L735.266,62.168L735.777,62.145L736.288,62.084L736.799,62.011L737.309,61.971L737.82,61.945L738.331,61.873L738.842,61.839L739.353,61.808L739.863,61.792L740.374,61.764L740.885,61.744L741.396,61.683L741.906,61.652L742.417,61.636L742.928,61.623L743.439,61.575L743.95,61.568L744.46,61.527L744.971,61.492L745.482,61.467L745.993,61.458L746.504,61.457L747.014,61.446L747.525,61.438L748.036,61.424L748.547,61.393L749.058,61.38L749.568,61.365L750.079,61.351L750.59,61.339L751.101,61.311L751.612,61.252L752.122,61.244L752.633,61.205L753.144,61.13L753.655,61.021L754.165,60.936L754.676,60.913L755.187,60.889L755.698,60.856L756.209,60.831L756.719,60.812L757.23,60.778L757.741,60.726L758.252,60.662L758.763,60.631L759.273,60.612L759.784,60.609L760.295,60.583L760.806,60.519L761.317,60.493L761.827,60.47L762.338,60.44L762.849,60.413L763.36,60.362L763.871,60.326L764.381,60.257L764.892,60.254L765.403,60.25L765.914,60.233L766.424,60.208L766.935,60.206L767.446,60.138L767.957,60.115L768.468,60.063L768.978,60.003L769.489,60.003L770,60"/>
  </g>
</svg>
