<svg class="plot-d6a7b5" fill="currentColor" font-family="system-ui, sans-serif" font-size="10" text-anchor="middle" width="830" height="470" viewBox="0 0 830 470" style="color: dodgerblue;" xmlns="http://www.w3.org/2000/svg" xmlns:xlink="http://www.w3.org/1999/xlink"><style>:where(.plot-d6a7b5) {
  --plot-background: white;
  display: block;
  height: auto;
  height: intrinsic;
  max-width: 100%;
}
:where(.plot-d6a7b5 text),
:where(.plot-d6a7b5 tspan) {
  white-space: pre;
}</style><g aria-label="y-grid" stroke="currentColor" stroke-opacity="0.1"><line x1="60" x2="770" y1="410" y2="410"></line><line x1="60" x2="770" y1="381.65445648635125" y2="381.65445648635125"></line><line x1="60" x2="770" y1="353.30891297270244" y2="353.30891297270244"></line><line x1="60" x2="770" y1="324.96336945905364" y2="324.96336945905364"></line><line x1="60" x2="770" y1="296.61782594540483" y2="296.61782594540483"></line><line x1="60" x2="770" y1="268.2722824317561" y2="268.2722824317561"></line><line x1="60" x2="770" y1="239.92673891810728" y2="239.92673891810728"></line><line x1="60" x2="770" y1="211.5811954044585" y2="211.5811954044585"></line><line x1="60" x2="770" y1="183.23565189080972" y2="183.23565189080972"></line><line x1="60" x2="770" y1="154.89010837716094" y2="154.89010837716094"></line><line x1="60" x2="770" y1="126.54456486351214" y2="126.54456486351214"></line><line x1="60" x2="770" y1="98.19902134986336" y2="98.19902134986336"></line><line x1="60" x2="770" y1="69.85347783621458" y2="69.85347783621458"></line></g><g aria-label="y-axis tick" fill="none" stroke="currentColor"><path transform="translate(60,410)" d="M0,0L-6,0"></path><path transform="translate(60,381.65445648635125)" d="M0,0L-6,0"></path><path transform="translate(60,353.30891297270244)" d="M0,0L-6,0"></path><path transform="translate(60,324.96336945905364)" d="M0,0L-6,0"></path><path transform="translate(60,296.61782594540483)" d="M0,0L-6,0"></path><path transform="translate(60,268.2722824317561)" d="M0,0L-6,0"></path><path transform="translate(60,239.92673891810728)" d="M0,0L-6,0"></path><path transform="translate(60,211.5811954044585)" d="M0,0L-6,0"></path><path transform="translate(60,183.23565189080972)" d="M0,0L-6,0"></path><path transform="translate(60,154.89010837716094)" d="M0,0L-6,0"></path><path transform="translate(60,126.54456486351214)" d="M0,0L-6,0"></path><path transform="translate(60,98.19902134986336)" d="M0,0L-6,0"></path><path transform="translate(60,69.85347783621458)" d="M0,0L-6,0"></path></g><g aria-label="y-axis tick label" text-anchor="end" font-variant="tabular-nums" transform="translate(-9,0)"><text y="0.32em" transform="translate(60,410)">0</text><text y="0.32em" transform="translate(60,381.65445648635125)">50,000</text><text y="0.32em" transform="translate(60,353.30891297270244)">100,000</text><text y="0.32em" transform="translate(60,324.96336945905364)">150,000</text><text y="0.32em" transform="translate(60,296.61782594540483)">200,000</text><text y="0.32em" transform="translate(60,268.2722824317561)">250,000</text><text y="0.32em" transform="translate(60,239.92673891810728)">300,000</text><text y="0.32em" transform="translate(60,211.5811954044585)">350,000</text><text y="0.32em" transform="translate(60,183.23565189080972)">400,000</text><text y="0.32em" transform="translate(60,154.89010837716094)">450,000</text><text y="0.32em" transform="translate(60,126.54456486351214)">500,000</text><text y="0.32em" transform="translate(60,98.19902134986336)">550,000</text><text y="0.32em" transform="translate(60,69.85347783621458)">600,000</text></g><g aria-label="y-axis label" text-anchor="start" transform="translate(-57,-57)"><text y="0.71em" transform="translate(60,60)">↑ Total Vestiges</text></g><g aria-label="x-axis tick" fill="none" stroke="currentColor"><path transform="translate(99.87885462555064,410)" d="M0,0L0,6"></path><path transform="translate(206.613436123348,410)" d="M0,0L0,6"></path><path transform="translate(314.5209251101321,410)" d="M0,0L0,6"></path><path transform="translate(422.4284140969163,410)" d="M0,0L0,6"></path><path transform="translate(529.1629955947137,410)" d="M0,0L0,6"></path><path transform="translate(635.897577092511,410)" d="M0,0L0,6"></path><path transform="translate(743.8050660792952,410)" d="M0,0L0,6"></path></g><g aria-label="x-axis tick label" font-variant="tabular-nums" transform="translate(0,9)"><text transform="translate(99.87885462555064,410)"><tspan x="0" y="0.71em">Apr</tspan><tspan x="0" dy="1em">2023</tspan></text><text y="0.71em" transform="translate(206.613436123348,410)">Jul</text><text y="0.71em" transform="translate(314.5209251101321,410)">Oct</text><text transform="translate(422.4284140969163,410)"><tspan x="0" y="0.71em">Jan</tspan><tspan x="0" dy="1em">2024</tspan></text><text y="0.71em" transform="translate(529.1629955947137,410)">Apr</text><text y="0.71em" transform="translate(635.897577092511,410)">Jul</text><text y="0.71em" transform="translate(743.8050660792952,410)">Oct</text></g><g aria-label="line" fill="none" stroke="currentColor" stroke-width="1.5" stroke-linejoin="round" stroke-linecap="round"><path d="M60,410L60.782,409.715L61.564,408.675L62.346,408.113L63.128,407.715L63.91,407.059L64.692,406.542L65.474,406.057L66.256,405.076L67.037,404.3L67.819,403.379L68.601,401.952L69.383,400.607L70.165,399.908L70.947,398.898L71.729,398.211L72.511,397.424L73.293,396.395L74.075,395.703L74.857,395.023L75.639,394.102L76.421,393.079L77.203,392.355L77.985,391.12L78.767,390.535L79.548,389.989L80.33,389.004L81.112,388.062L81.894,387.336L82.676,386.325L83.458,385.316L84.24,384.398L85.022,382.974L85.804,381.845L86.586,381.191L87.368,380.509L88.15,379.996L88.932,379.582L89.714,378.813L90.496,378.061L91.278,377.537L92.059,376.324L92.841,375.057L93.623,373.921L94.405,372.544L95.187,371.611L95.969,370.816L96.751,369.733L97.533,368.828L98.315,368.172L99.097,366.99L99.879,365.848L100.661,364.782L101.443,363.254L102.225,361.804L103.007,361.049L103.789,359.929L104.57,358.919L105.352,358.014L106.134,356.732L106.916,355.528L107.698,354.482L108.48,353.224L109.262,352.019L110.044,350.981L110.826,349.585L111.608,348.726L112.39,347.951L113.172,346.87L113.954,345.985L114.736,345.323L115.518,344.471L116.3,343.551L117.081,342.693L117.863,341.568L118.645,340.453L119.427,339.817L120.209,338.935L120.991,338.246L121.773,337.793L122.555,337.092L123.337,336.394L124.119,335.653L124.901,334.694L125.683,333.719L126.465,332.957L127.247,331.903L128.029,331.163L128.811,330.679L129.593,329.568L130.374,328.801L131.156,328.385L131.938,327.69L132.72,327.019L133.502,326.321L134.284,325.361L135.066,324.527L135.848,323.808L136.63,323.183L137.412,322.629L138.194,322.098L138.976,321.227L139.758,320.731L140.54,320.227L141.322,319.409L142.104,318.482L142.885,317.755L143.667,316.819L144.449,316.189L145.231,315.603L146.013,314.754L146.795,314.174L147.577,313.621L148.359,312.883L149.141,312.306L149.923,311.609L150.705,310.87L151.487,310.199L152.269,309.644L153.051,309.062L153.833,308.553L154.615,308.074L155.396,307.399L156.178,306.886L156.96,306.423L157.742,305.658L158.524,304.665L159.306,303.941L160.088,302.998L160.87,302.434L161.652,301.787L162.434,301.119L163.216,300.509L163.998,300.081L164.78,299.231L165.562,298.563L166.344,297.862L167.126,296.844L167.907,296.095L168.689,295.439L169.471,294.77L170.253,294.039L171.035,293.473L171.817,292.919L172.599,292.187L173.381,291.755L174.163,291.181L174.945,290.664L175.727,290.177L176.509,289.492L177.291,288.997L178.073,288.481L178.855,287.79L179.637,287.296L180.419,286.84L181.2,286.346L181.982,285.764L182.764,285.218L183.546,284.648L184.328,284.029L185.11,283.544L185.892,282.95L186.674,282.45L187.456,281.954L188.238,281.265L189.02,280.692L189.802,280.239L190.584,279.645L191.366,279.08L192.148,278.672L192.93,277.971L193.711,277.436L194.493,276.884L195.275,276.271L196.057,275.75L196.839,275.44L197.621,274.871L198.403,274.407L199.185,273.855L199.967,273.199L200.749,272.679L201.531,272.106L202.313,271.476L203.095,270.903L203.877,270.399L204.659,269.578L205.441,268.911L206.222,268.527L207.004,267.913L207.786,267.366L208.568,267.037L209.35,266.454L210.132,266.078L210.914,265.63L211.696,265.087L212.478,264.58L213.26,264.179L214.042,263.545L214.824,263.081L215.606,262.661L216.388,262.071L217.17,261.541L217.952,261.124L218.733,260.485L219.515,260.078L220.297,259.615L221.079,259.028L221.861,258.551L222.643,258.01L223.425,257.39L224.207,256.848L224.989,256.386L225.771,255.857L226.553,255.234L227.335,254.747L228.117,254.291L228.899,253.808L229.681,253.44L230.463,252.809L231.244,252.415L232.026,251.968L232.808,251.408L233.59,250.962L234.372,250.42L235.154,249.699L235.936,249.155L236.718,248.835L237.5,248.098L238.282,247.556L239.064,247.074L239.846,246.401L240.628,245.947L241.41,245.459L242.192,244.896L242.974,244.325L243.756,243.832L244.537,243.103L245.319,242.542L246.101,242.048L246.883,241.448L247.665,240.788L248.447,240.114L249.229,239.121L250.011,238.515L250.793,238.058L251.575,237.44L252.357,236.943L253.139,236.582L253.921,236.02L254.703,235.525L255.485,235.178L256.267,234.612L257.048,234.097L257.83,233.723L258.612,233.125L259.394,232.566L260.176,232.141L260.958,231.581L261.74,230.882L262.522,230.292L263.304,229.556L264.086,229.035L264.868,228.531L265.65,227.786L266.432,227.227L267.214,226.709L267.996,226.086L268.778,225.57L269.559,225.224L270.341,224.726L271.123,224.349L271.905,223.935L272.687,223.434L273.469,222.931L274.251,222.465L275.033,222L275.815,221.52L276.597,221.113L277.379,220.661L278.161,220.214L278.943,219.835L279.725,219.399L280.507,218.949L281.289,218.464L282.07,217.882L282.852,217.467L283.634,217.019L284.416,216.549L285.198,216.204L285.98,215.835L286.762,215.449L287.544,215.213L288.326,214.924L289.108,214.264L289.89,213.807L290.672,213.379L291.454,212.798L292.236,212.555L293.018,212.229L293.8,211.922L294.581,211.678L295.363,211.307L296.145,210.93L296.927,210.497L297.709,210.042L298.491,209.316L299.273,208.701L300.055,208.37L300.837,207.925L301.619,207.618L302.401,207.248L303.183,206.823L303.965,206.44L304.747,206.137L305.529,205.671L306.311,205.159L307.093,204.78L307.874,204.265L308.656,204.003L309.438,203.745L310.22,203.4L311.002,203.075L311.784,202.785L312.566,202.314L313.348,201.921L314.13,201.52L314.912,200.977L315.694,200.571L316.476,200.355L317.258,199.956L318.04,199.661L318.822,199.397L319.604,199.064L320.385,198.737L321.167,198.36L321.949,197.865L322.731,197.336L323.513,196.805L324.295,196.252L325.077,195.853L325.859,195.55L326.641,195.173L327.423,194.857L328.205,194.517L328.987,194.059L329.769,193.751L330.551,193.463L331.333,192.823L332.115,192.275L332.896,191.938L333.678,191.59L334.46,191.34L335.242,191.142L336.024,190.726L336.806,190.45L337.588,190.175L338.37,189.64L339.152,189.065L339.934,188.633L340.716,188.047L341.498,187.737L342.28,187.452L343.062,186.963L343.844,186.647L344.626,186.346L345.407,185.917L346.189,185.46L346.971,185.168L347.753,184.683L348.535,184.372L349.317,184.171L350.099,183.74L350.881,183.451L351.663,183.275L352.445,183.01L353.227,182.739L354.009,182.285L354.791,181.75L355.573,181.212L356.355,180.853L357.137,180.5L357.919,180.294L358.7,179.984L359.482,179.62L360.264,179.419L361.046,179.209L361.828,178.85L362.61,178.631L363.392,178.328L364.174,177.997L364.956,177.7L365.738,177.506L366.52,177.24L367.302,177.094L368.084,176.895L368.866,176.624L369.648,176.442L370.43,176.319L371.211,175.894L371.993,175.475L372.775,175.066L373.557,174.658L374.339,174.346L375.121,174.153L375.903,173.839L376.685,173.644L377.467,173.37L378.249,172.97L379.031,172.645L379.813,172.359L380.595,171.932L381.377,171.629L382.159,171.335L382.941,170.989L383.722,170.705L384.504,170.383L385.286,169.908L386.068,169.626L386.85,169.361L387.632,169.083L388.414,168.762L389.196,168.447L389.978,168.099L390.76,167.897L391.542,167.772L392.324,167.474L393.106,167.224L393.888,167.032L394.67,166.799L395.452,166.579L396.233,166.406L397.015,166.133L397.797,165.883L398.579,165.742L399.361,165.42L400.143,165.115L400.925,164.983L401.707,164.792L402.489,164.642L403.271,164.475L404.053,164.159L404.835,163.842L405.617,163.61L406.399,163.394L407.181,163.171L407.963,162.891L408.744,162.672L409.526,162.513L410.308,162.325L411.09,162.014L411.872,161.819L412.654,161.583L413.436,161.188L414.218,160.869L415,160.705L415.782,160.449L416.564,160.116L417.346,159.852L418.128,159.512L418.91,159.254L419.692,158.963L420.474,158.623L421.256,158.36L422.037,158.113L422.819,157.8L423.601,157.532L424.383,157.288L425.165,156.905L425.947,156.676L426.729,156.499L427.511,156.129L428.293,155.998L429.075,155.774L429.857,155.412L430.639,155.224L431.421,155.006L432.203,154.735L432.985,154.57L433.767,154.402L434.548,154.232L435.33,154.108L436.112,153.876L436.894,153.56L437.676,153.268L438.458,152.912L439.24,152.487L440.022,152.293L440.804,152.062L441.586,151.84L442.368,151.532L443.15,151.189L443.932,150.932L444.714,150.747L445.496,150.445L446.278,150.083L447.059,149.576L447.841,149.261L448.623,148.875L449.405,148.652L450.187,148.448L450.969,148.173L451.751,148.055L452.533,147.881L453.315,147.443L454.097,146.962L454.879,146.609L455.661,146.118L456.443,145.846L457.225,145.614L458.007,145.334L458.789,145.06L459.57,144.826L460.352,144.459L461.134,144.24L461.916,143.874L462.698,143.33L463.48,142.948L464.262,142.671L465.044,142.262L465.826,141.989L466.608,141.789L467.39,141.368L468.172,141.029L468.954,140.651L469.736,140.279L470.518,139.844L471.3,139.265L472.081,138.636L472.863,138.293L473.645,137.936L474.427,137.415L475.209,137.061L475.991,136.796L476.773,136.455L477.555,136.166L478.337,135.875L479.119,135.408L479.901,135L480.683,134.832L481.465,134.468L482.247,134.156L483.029,133.796L483.811,133.442L484.593,133.23L485.374,132.918L486.156,132.452L486.938,132.023L487.72,131.736L488.502,131.296L489.284,131.075L490.066,130.793L490.848,130.474L491.63,130.267L492.412,130.021L493.194,129.694L493.976,129.435L494.758,129.173L495.54,128.687L496.322,128.417L497.104,128.185L497.885,127.978L498.667,127.784L499.449,127.526L500.231,127.286L501.013,127.139L501.795,126.956L502.577,126.564L503.359,126.319L504.141,126.132L504.923,125.767L505.705,125.512L506.487,125.405L507.269,125.186L508.051,124.893L508.833,124.674L509.615,124.376L510.396,124.052L511.178,123.742L511.96,123.264L512.742,122.932L513.524,122.718L514.306,122.681L515.088,122.676L515.87,122.674L516.652,122.671L517.434,122.667L518.216,122.662L518.998,122.656L519.78,122.631L520.562,122.611L521.344,122.599L522.126,122.569L522.907,122.518L523.689,122.483L524.471,122.438L525.253,122.349L526.035,122.231L526.817,121.933L527.599,121.731L528.381,121.542L529.163,121.372L529.945,121.21L530.727,121.024L531.509,120.788L532.291,120.576L533.073,120.324L533.855,120.064L534.637,119.833L535.419,119.552L536.2,119.339L536.982,119.175L537.764,118.939L538.546,118.685L539.328,118.575L540.11,118.411L540.892,118.166L541.674,118.028L542.456,117.884L543.238,117.67L544.02,117.5L544.802,117.251L545.584,117.041L546.366,116.917L547.148,116.727L547.93,116.562L548.711,116.406L549.493,116.299L550.275,116.164L551.057,116.084L551.839,115.941L552.621,115.789L553.403,115.596L554.185,115.324L554.967,115.152L555.749,115.04L556.531,114.801L557.313,114.619L558.095,114.454L558.877,114.282L559.659,114.042L560.441,113.876L561.222,113.646L562.004,113.488L562.786,113.367L563.568,113.181L564.35,112.974L565.132,112.76L565.914,112.62L566.696,112.427L567.478,112.264L568.26,112.058L569.042,111.765L569.824,111.546L570.606,111.263L571.388,111.108L572.17,110.969L572.952,110.777L573.733,110.586L574.515,110.425L575.297,110.209L576.079,109.964L576.861,109.811L577.643,109.536L578.425,109.293L579.207,109.096L579.989,108.81L580.771,108.645L581.553,108.518L582.335,108.418L583.117,108.279L583.899,108.102L584.681,107.911L585.463,107.507L586.244,107.307L587.026,107.001L587.808,106.857L588.59,106.718L589.372,106.546L590.154,106.29L590.936,106.203L591.718,106.016L592.5,105.81L593.282,105.624L594.064,105.34L594.846,104.988L595.628,104.805L596.41,104.497L597.192,104.355L597.974,104.165L598.756,103.821L599.537,103.569L600.319,103.397L601.101,103.119L601.883,102.822L602.665,102.661L603.447,102.294L604.229,102.128L605.011,101.962L605.793,101.722L606.575,101.473L607.357,101.305L608.139,101.025L608.921,100.806L609.703,100.577L610.485,100.241L611.267,99.907L612.048,99.666L612.83,99.434L613.612,99.127L614.394,98.943L615.176,98.753L615.958,98.582L616.74,98.338L617.522,98.128L618.304,97.904L619.086,97.697L619.868,97.477L620.65,97.231L621.432,97.155L622.214,97.041L622.996,96.866L623.778,96.728L624.559,96.399L625.341,96.206L626.123,96.071L626.905,95.892L627.687,95.509L628.469,95.378L629.251,95.185L630.033,94.923L630.815,94.727L631.597,94.598L632.379,94.427L633.161,94.321L633.943,94.177L634.725,94.011L635.507,93.839L636.289,93.528L637.07,93.31L637.852,93.162L638.634,92.889L639.416,92.693L640.198,92.494L640.98,92.346L641.762,92.196L642.544,92.084L643.326,91.893L644.108,91.68L644.89,91.587L645.672,91.46L646.454,91.322L647.236,91.193L648.018,91.04L648.8,90.858L649.581,90.657L650.363,90.441L651.145,90.322L651.927,90.195L652.709,89.991L653.491,89.81L654.273,89.696L655.055,89.492L655.837,89.303L656.619,89.154L657.401,88.975L658.183,88.789L658.965,88.589L659.747,88.315L660.529,87.94L661.311,87.706L662.093,87.457L662.874,87.286L663.656,87.12L664.438,86.892L665.22,86.732L666.002,86.607L666.784,86.454L667.566,86.295L668.348,86.119L669.13,85.931L669.912,85.665L670.694,85.474L671.476,85.169L672.258,84.88L673.04,84.585L673.822,84.286L674.604,84.021L675.385,83.717L676.167,83.39L676.949,83.225L677.731,83.009L678.513,82.618L679.295,82.415L680.077,82.23L680.859,81.976L681.641,81.801L682.423,81.711L683.205,81.185L683.987,80.73L684.769,80.277L685.551,79.791L686.333,79.399L687.115,79.117L687.896,78.676L688.678,78.213L689.46,77.929L690.242,77.659L691.024,77.334L691.806,77.034L692.588,76.701L693.37,76.332L694.152,76.088L694.934,75.938L695.716,75.664L696.498,75.509L697.28,75.345L698.062,75.128L698.844,74.923L699.626,74.685L700.407,74.397L701.189,74.11L701.971,73.889L702.753,73.665L703.535,73.468L704.317,73.294L705.099,73.174L705.881,73.084L706.663,72.981L707.445,72.85L708.227,72.697L709.009,72.589L709.791,72.417L710.573,72.301L711.355,72.165L712.137,72.045L712.919,71.895L713.7,71.774L714.482,71.555L715.264,71.397L716.046,71.224L716.828,71.091L717.61,70.893L718.392,70.688L719.174,70.507L719.956,70.368L720.738,70.198L721.52,70.072L722.302,69.929L723.084,69.836L723.866,69.721L724.648,69.594L725.43,69.49L726.211,69.306L726.993,69.157L727.775,69.028L728.557,68.899L729.339,68.745L730.121,68.609L730.903,68.434L731.685,68.322L732.467,68.123L733.249,67.856L734.031,67.6L734.813,67.244L735.595,67.09L736.377,66.915L737.159,66.731L737.941,66.617L738.722,66.425L739.504,66.235L740.286,66.044L741.068,65.793L741.85,65.35L742.632,65.154L743.414,65.027L744.196,64.753L744.978,64.589L745.76,64.5L746.542,64.318L747.324,64.166L748.106,64.047L748.888,63.836L749.67,63.596L750.452,63.361L751.233,63.028L752.015,62.899L752.797,62.786L753.579,62.624L754.361,62.48L755.143,62.399L755.925,62.302L756.707,62.158L757.489,62.085L758.271,61.948L759.053,61.827L759.835,61.735L760.617,61.621L761.399,61.552L762.181,61.441L762.963,61.278L763.744,61.142L764.526,61.039L765.308,60.828L766.09,60.661L766.872,60.511L767.654,60.29L768.436,60.227L769.218,60.146L770,60"></path></g></svg> 
 
