<svg class="plot-d6a7b5" fill="currentColor" font-family="system-ui, sans-serif" font-size="10" text-anchor="middle" width="830" height="470" viewBox="0 0 830 470" style="color: dodgerblue;" xmlns="http://www.w3.org/2000/svg" xmlns:xlink="http://www.w3.org/1999/xlink"><style>:where(.plot-d6a7b5) {
  --plot-background: white;
  display: block;
  height: auto;
  height: intrinsic;
  max-width: 100%;
}
:where(.plot-d6a7b5 text),
:where(.plot-d6a7b5 tspan) {
  white-space: pre;
}</style><g aria-label="y-grid" stroke="currentColor" stroke-opacity="0.1"><line x1="60" x2="770" y1="410" y2="410"></line><line x1="60" x2="770" y1="382.089848360159" y2="382.089848360159"></line><line x1="60" x2="770" y1="354.17969672031796" y2="354.17969672031796"></line><line x1="60" x2="770" y1="326.2695450804769" y2="326.2695450804769"></line><line x1="60" x2="770" y1="298.35939344063587" y2="298.35939344063587"></line><line x1="60" x2="770" y1="270.4492418007949" y2="270.4492418007949"></line><line x1="60" x2="770" y1="242.53909016095383" y2="242.53909016095383"></line><line x1="60" x2="770" y1="214.62893852111284" y2="214.62893852111284"></line><line x1="60" x2="770" y1="186.7187868812718" y2="186.7187868812718"></line><line x1="60" x2="770" y1="158.8086352414308" y2="158.8086352414308"></line><line x1="60" x2="770" y1="130.89848360158976" y2="130.89848360158976"></line><line x1="60" x2="770" y1="102.98833196174874" y2="102.98833196174874"></line><line x1="60" x2="770" y1="75.07818032190772" y2="75.07818032190772"></line></g><g aria-label="y-axis tick" fill="none" stroke="currentColor"><path transform="translate(60,410)" d="M0,0L-6,0"></path><path transform="translate(60,382.089848360159)" d="M0,0L-6,0"></path><path transform="translate(60,354.17969672031796)" d="M0,0L-6,0"></path><path transform="translate(60,326.2695450804769)" d="M0,0L-6,0"></path><path transform="translate(60,298.35939344063587)" d="M0,0L-6,0"></path><path transform="translate(60,270.4492418007949)" d="M0,0L-6,0"></path><path transform="translate(60,242.53909016095383)" d="M0,0L-6,0"></path><path transform="translate(60,214.62893852111284)" d="M0,0L-6,0"></path><path transform="translate(60,186.7187868812718)" d="M0,0L-6,0"></path><path transform="translate(60,158.8086352414308)" d="M0,0L-6,0"></path><path transform="translate(60,130.89848360158976)" d="M0,0L-6,0"></path><path transform="translate(60,102.98833196174874)" d="M0,0L-6,0"></path><path transform="translate(60,75.07818032190772)" d="M0,0L-6,0"></path></g><g aria-label="y-axis tick label" text-anchor="end" font-variant="tabular-nums" transform="translate(-9,0)"><text y="0.32em" transform="translate(60,410)">0</text><text y="0.32em" transform="translate(60,382.089848360159)">50,000</text><text y="0.32em" transform="translate(60,354.17969672031796)">100,000</text><text y="0.32em" transform="translate(60,326.2695450804769)">150,000</text><text y="0.32em" transform="translate(60,298.35939344063587)">200,000</text><text y="0.32em" transform="translate(60,270.4492418007949)">250,000</text><text y="0.32em" transform="translate(60,242.53909016095383)">300,000</text><text y="0.32em" transform="translate(60,214.62893852111284)">350,000</text><text y="0.32em" transform="translate(60,186.7187868812718)">400,000</text><text y="0.32em" transform="translate(60,158.8086352414308)">450,000</text><text y="0.32em" transform="translate(60,130.89848360158976)">500,000</text><text y="0.32em" transform="translate(60,102.98833196174874)">550,000</text><text y="0.32em" transform="translate(60,75.07818032190772)">600,000</text></g><g aria-label="y-axis label" text-anchor="start" transform="translate(-57,-57)"><text y="0.71em" transform="translate(60,60)">↑ Total Vestiges</text></g><g aria-label="x-axis tick" fill="none" stroke="currentColor"><path transform="translate(98.1559536354057,410)" d="M0,0L0,6"></path><path transform="translate(200.2792413066386,410)" d="M0,0L0,6"></path><path transform="translate(303.52476290832453,410)" d="M0,0L0,6"></path><path transform="translate(406.7702845100105,410)" d="M0,0L0,6"></path><path transform="translate(508.8935721812435,410)" d="M0,0L0,6"></path><path transform="translate(611.0168598524763,410)" d="M0,0L0,6"></path><path transform="translate(714.2623814541622,410)" d="M0,0L0,6"></path></g><g aria-label="x-axis tick label" font-variant="tabular-nums" transform="translate(0,9)"><text transform="translate(98.1559536354057,410)"><tspan x="0" y="0.71em">Apr</tspan><tspan x="0" dy="1em">2023</tspan></text><text y="0.71em" transform="translate(200.2792413066386,410)">Jul</text><text y="0.71em" transform="translate(303.52476290832453,410)">Oct</text><text transform="translate(406.7702845100105,410)"><tspan x="0" y="0.71em">Jan</tspan><tspan x="0" dy="1em">2024</tspan></text><text y="0.71em" transform="translate(508.8935721812435,410)">Apr</text><text y="0.71em" transform="translate(611.0168598524763,410)">Jul</text><text y="0.71em" transform="translate(714.2623814541622,410)">Oct</text></g><g aria-label="line" fill="none" stroke="currentColor" stroke-width="1.5" stroke-linejoin="round" stroke-linecap="round"><path d="M60,410L60.748,409.72L61.496,408.695L62.244,408.142L62.993,407.75L63.741,407.104L64.489,406.595L65.237,406.118L65.985,405.152L66.733,404.388L67.482,403.481L68.23,402.076L68.978,400.751L69.726,400.063L70.474,399.068L71.222,398.392L71.97,397.617L72.719,396.604L73.467,395.922L74.215,395.253L74.963,394.346L75.711,393.339L76.459,392.626L77.208,391.41L77.956,390.834L78.704,390.297L79.452,389.327L80.2,388.399L80.948,387.684L81.697,386.688L82.445,385.695L83.193,384.791L83.941,383.389L84.689,382.277L85.437,381.633L86.185,380.962L86.934,380.457L87.682,380.049L88.43,379.292L89.178,378.552L89.926,378.036L90.674,376.842L91.423,375.593L92.171,374.475L92.919,373.12L93.667,372.201L94.415,371.418L95.163,370.352L95.911,369.46L96.66,368.814L97.408,367.651L98.156,366.526L98.904,365.477L99.652,363.972L100.4,362.544L101.149,361.801L101.897,360.698L102.645,359.704L103.393,358.812L104.141,357.55L104.889,356.365L105.638,355.335L106.386,354.097L107.134,352.91L107.882,351.888L108.63,350.513L109.378,349.667L110.126,348.904L110.875,347.84L111.623,346.968L112.371,346.317L113.119,345.477L113.867,344.571L114.615,343.727L115.364,342.619L116.112,341.521L116.86,340.895L117.608,340.026L118.356,339.348L119.104,338.902L119.852,338.212L120.601,337.525L121.349,336.795L122.097,335.851L122.845,334.89L123.593,334.141L124.341,333.103L125.09,332.373L125.838,331.897L126.586,330.804L127.334,330.048L128.082,329.639L128.83,328.954L129.579,328.294L130.327,327.606L131.075,326.661L131.823,325.84L132.571,325.132L133.319,324.517L134.067,323.971L134.816,323.448L135.564,322.591L136.312,322.103L137.06,321.606L137.808,320.801L138.556,319.888L139.305,319.171L140.053,318.25L140.801,317.63L141.549,317.053L142.297,316.217L143.045,315.646L143.793,315.102L144.542,314.375L145.29,313.807L146.038,313.12L146.786,312.393L147.534,311.732L148.282,311.185L149.031,310.612L149.779,310.111L150.527,309.64L151.275,308.975L152.023,308.47L152.771,308.014L153.519,307.261L154.268,306.283L155.016,305.57L155.764,304.641L156.512,304.086L157.26,303.449L158.008,302.792L158.757,302.191L159.505,301.769L160.253,300.932L161.001,300.275L161.749,299.585L162.497,298.582L163.246,297.844L163.994,297.199L164.742,296.54L165.49,295.82L166.238,295.263L166.986,294.718L167.734,293.996L168.483,293.571L169.231,293.006L169.979,292.497L170.727,292.018L171.475,291.343L172.223,290.855L172.972,290.348L173.72,289.667L174.468,289.181L175.216,288.732L175.964,288.245L176.712,287.673L177.46,287.134L178.209,286.573L178.957,285.964L179.705,285.486L180.453,284.901L181.201,284.409L181.949,283.92L182.698,283.242L183.446,282.678L184.194,282.232L184.942,281.647L185.69,281.091L186.438,280.689L187.187,279.999L187.935,279.472L188.683,278.929L189.431,278.325L190.179,277.812L190.927,277.507L191.675,276.947L192.424,276.49L193.172,275.946L193.92,275.3L194.668,274.788L195.416,274.224L196.164,273.604L196.913,273.039L197.661,272.544L198.409,271.735L199.157,271.078L199.905,270.7L200.653,270.095L201.401,269.557L202.15,269.233L202.898,268.659L203.646,268.288L204.394,267.848L205.142,267.313L205.89,266.814L206.639,266.419L207.387,265.795L208.135,265.338L208.883,264.924L209.631,264.344L210.379,263.822L211.128,263.411L211.876,262.781L212.624,262.38L213.372,261.925L214.12,261.347L214.868,260.878L215.616,260.345L216.365,259.735L217.113,259.2L217.861,258.746L218.609,258.225L219.357,257.612L220.105,257.132L220.854,256.682L221.602,256.207L222.35,255.844L223.098,255.224L223.846,254.835L224.594,254.396L225.342,253.844L226.091,253.405L226.839,252.871L227.587,252.161L228.335,251.626L229.083,251.311L229.831,250.585L230.58,250.051L231.328,249.577L232.076,248.914L232.824,248.467L233.572,247.986L234.32,247.432L235.068,246.87L235.817,246.385L236.565,245.667L237.313,245.114L238.061,244.627L238.809,244.037L239.557,243.388L240.306,242.723L241.054,241.746L241.802,241.149L242.55,240.699L243.298,240.09L244.046,239.601L244.795,239.246L245.543,238.693L246.291,238.205L247.039,237.863L247.787,237.306L248.535,236.799L249.283,236.431L250.032,235.842L250.78,235.291L251.528,234.873L252.276,234.322L253.024,233.633L253.772,233.052L254.521,232.327L255.269,231.814L256.017,231.319L256.765,230.585L257.513,230.035L258.261,229.524L259.009,228.911L259.758,228.403L260.506,228.063L261.254,227.571L262.002,227.201L262.75,226.793L263.498,226.3L264.247,225.804L264.995,225.346L265.743,224.888L266.491,224.415L267.239,224.014L267.987,223.569L268.736,223.129L269.484,222.756L270.232,222.327L270.98,221.884L271.728,221.406L272.476,220.833L273.224,220.425L273.973,219.983L274.721,219.52L275.469,219.181L276.217,218.817L276.965,218.438L277.713,218.205L278.462,217.921L279.21,217.271L279.958,216.821L280.706,216.399L281.454,215.827L282.202,215.587L282.95,215.267L283.699,214.965L284.447,214.724L285.195,214.359L285.943,213.988L286.691,213.561L287.439,213.113L288.188,212.399L288.936,211.793L289.684,211.467L290.432,211.029L291.18,210.727L291.928,210.363L292.677,209.943L293.425,209.567L294.173,209.268L294.921,208.809L295.669,208.305L296.417,207.932L297.165,207.425L297.914,207.167L298.662,206.913L299.41,206.574L300.158,206.253L300.906,205.968L301.654,205.504L302.403,205.117L303.151,204.722L303.899,204.188L304.647,203.788L305.395,203.575L306.143,203.182L306.891,202.892L307.64,202.632L308.388,202.304L309.136,201.982L309.884,201.611L310.632,201.124L311.38,200.602L312.129,200.079L312.877,199.535L313.625,199.143L314.373,198.844L315.121,198.472L315.869,198.162L316.617,197.826L317.366,197.375L318.114,197.073L318.862,196.789L319.61,196.159L320.358,195.619L321.106,195.287L321.855,194.944L322.603,194.698L323.351,194.504L324.099,194.094L324.847,193.822L325.595,193.551L326.344,193.025L327.092,192.458L327.84,192.033L328.588,191.456L329.336,191.151L330.084,190.871L330.832,190.389L331.581,190.077L332.329,189.781L333.077,189.359L333.825,188.909L334.573,188.621L335.321,188.144L336.07,187.837L336.818,187.64L337.566,187.216L338.314,186.931L339.062,186.758L339.81,186.497L340.558,186.23L341.307,185.783L342.055,185.256L342.803,184.726L343.551,184.373L344.299,184.025L345.047,183.822L345.796,183.517L346.544,183.159L347.292,182.961L348.04,182.754L348.788,182.401L349.536,182.185L350.285,181.886L351.033,181.56L351.781,181.268L352.529,181.078L353.277,180.815L354.025,180.672L354.773,180.475L355.522,180.209L356.27,180.029L357.018,179.909L357.766,179.489L358.514,179.078L359.262,178.675L360.011,178.273L360.759,177.966L361.507,177.776L362.255,177.466L363.003,177.274L363.751,177.004L364.499,176.611L365.248,176.29L365.996,176.009L366.744,175.589L367.492,175.29L368.24,175.001L368.988,174.66L369.737,174.381L370.485,174.064L371.233,173.596L371.981,173.318L372.729,173.057L373.477,172.783L374.226,172.468L374.974,172.157L375.722,171.814L376.47,171.616L377.218,171.493L377.966,171.199L378.714,170.953L379.463,170.764L380.211,170.535L380.959,170.318L381.707,170.147L382.455,169.879L383.203,169.633L383.952,169.494L384.7,169.177L385.448,168.876L386.196,168.746L386.944,168.558L387.692,168.41L388.44,168.247L389.189,167.935L389.937,167.623L390.685,167.395L391.433,167.182L392.181,166.962L392.929,166.687L393.678,166.471L394.426,166.314L395.174,166.129L395.922,165.823L396.67,165.632L397.418,165.399L398.166,165.01L398.915,164.695L399.663,164.534L400.411,164.282L401.159,163.954L401.907,163.695L402.655,163.36L403.404,163.105L404.152,162.819L404.9,162.484L405.648,162.225L406.396,161.982L407.144,161.674L407.893,161.41L408.641,161.17L409.389,160.793L410.137,160.568L410.885,160.393L411.633,160.028L412.381,159.899L413.13,159.679L413.878,159.322L414.626,159.137L415.374,158.923L416.122,158.656L416.87,158.494L417.619,158.328L418.367,158.161L419.115,158.038L419.863,157.81L420.611,157.499L421.359,157.211L422.107,156.861L422.856,156.442L423.604,156.251L424.352,156.024L425.1,155.805L425.848,155.502L426.596,155.164L427.345,154.911L428.093,154.729L428.841,154.432L429.589,154.075L430.337,153.576L431.085,153.266L431.834,152.886L432.582,152.667L433.33,152.465L434.078,152.194L434.826,152.078L435.574,151.908L436.322,151.476L437.071,151.002L437.819,150.655L438.567,150.172L439.315,149.903L440.063,149.675L440.811,149.4L441.56,149.129L442.308,148.899L443.056,148.538L443.804,148.322L444.552,147.962L445.3,147.426L446.048,147.05L446.797,146.778L447.545,146.374L448.293,146.106L449.041,145.909L449.789,145.494L450.537,145.161L451.286,144.788L452.034,144.422L452.782,143.994L453.53,143.424L454.278,142.804L455.026,142.467L455.774,142.115L456.523,141.602L457.271,141.253L458.019,140.992L458.767,140.656L459.515,140.372L460.263,140.085L461.012,139.626L461.76,139.224L462.508,139.058L463.256,138.7L464.004,138.393L464.752,138.038L465.501,137.69L466.249,137.481L466.997,137.174L467.745,136.716L468.493,136.292L469.241,136.01L469.989,135.577L470.738,135.36L471.486,135.082L472.234,134.768L472.982,134.564L473.73,134.321L474.478,134L475.227,133.744L475.975,133.486L476.723,133.008L477.471,132.742L478.219,132.514L478.967,132.31L479.715,132.119L480.464,131.865L481.212,131.629L481.96,131.483L482.708,131.303L483.456,130.918L484.204,130.676L484.953,130.493L485.701,130.133L486.449,129.882L487.197,129.776L487.945,129.56L488.693,129.272L489.442,129.057L490.19,128.763L490.938,128.444L491.686,128.139L492.434,127.668L493.182,127.342L493.93,127.131L494.679,127.094L495.427,127.089L496.175,127.087L496.923,127.084L497.671,127.08L498.419,127.075L499.168,127.07L499.916,127.045L500.664,127.026L501.412,127.014L502.16,126.984L502.908,126.934L503.656,126.9L504.405,126.855L505.153,126.768L505.901,126.651L506.649,126.358L507.397,126.159L508.145,125.973L508.894,125.805L509.642,125.646L510.39,125.463L511.138,125.23L511.886,125.021L512.634,124.774L513.383,124.517L514.131,124.29L514.879,124.014L515.627,123.803L516.375,123.642L517.123,123.41L517.871,123.16L518.62,123.052L519.368,122.889L520.116,122.649L520.864,122.513L521.612,122.371L522.36,122.16L523.109,121.992L523.857,121.747L524.605,121.541L525.353,121.419L526.101,121.232L526.849,121.07L527.597,120.916L528.346,120.81L529.094,120.678L529.842,120.599L530.59,120.458L531.338,120.308L532.086,120.118L532.835,119.851L533.583,119.681L534.331,119.571L535.079,119.335L535.827,119.156L536.575,118.994L537.323,118.824L538.072,118.588L538.82,118.425L539.568,118.198L540.316,118.043L541.064,117.923L541.812,117.74L542.561,117.537L543.309,117.325L544.057,117.187L544.805,116.998L545.553,116.837L546.301,116.634L547.05,116.346L547.798,116.13L548.546,115.852L549.294,115.699L550.042,115.562L550.79,115.373L551.538,115.185L552.287,115.027L553.035,114.814L553.783,114.573L554.531,114.422L555.279,114.151L556.027,113.912L556.776,113.718L557.524,113.436L558.272,113.274L559.02,113.149L559.768,113.05L560.516,112.913L561.264,112.74L562.013,112.551L562.761,112.153L563.509,111.956L564.257,111.656L565.005,111.514L565.753,111.376L566.502,111.207L567.25,110.955L567.998,110.87L568.746,110.685L569.494,110.482L570.242,110.299L570.991,110.019L571.739,109.673L572.487,109.493L573.235,109.19L573.983,109.05L574.731,108.862L575.479,108.523L576.228,108.276L576.976,108.106L577.724,107.833L578.472,107.54L579.22,107.382L579.968,107.021L580.717,106.857L581.465,106.694L582.213,106.457L582.961,106.213L583.709,106.046L584.457,105.77L585.205,105.555L585.954,105.33L586.702,104.999L587.45,104.67L588.198,104.432L588.946,104.205L589.694,103.902L590.443,103.721L591.191,103.534L591.939,103.365L592.687,103.125L593.435,102.919L594.183,102.698L594.932,102.494L595.68,102.278L596.428,102.035L597.176,101.961L597.924,101.848L598.672,101.675L599.42,101.54L600.169,101.215L600.917,101.026L601.665,100.893L602.413,100.717L603.161,100.34L603.909,100.211L604.658,100.02L605.406,99.763L606.154,99.569L606.902,99.443L607.65,99.275L608.398,99.17L609.146,99.028L609.895,98.865L610.643,98.696L611.391,98.389L612.139,98.174L612.887,98.029L613.635,97.76L614.384,97.567L615.132,97.371L615.88,97.225L616.628,97.078L617.376,96.967L618.124,96.779L618.872,96.57L619.621,96.477L620.369,96.352L621.117,96.217L621.865,96.09L622.613,95.939L623.361,95.76L624.11,95.563L624.858,95.35L625.606,95.232L626.354,95.108L627.102,94.906L627.85,94.728L628.599,94.616L629.347,94.415L630.095,94.229L630.843,94.082L631.591,93.906L632.339,93.723L633.087,93.526L633.836,93.256L634.584,92.887L635.332,92.657L636.08,92.411L636.828,92.243L637.576,92.08L638.325,91.855L639.073,91.698L639.821,91.575L640.569,91.424L641.317,91.267L642.065,91.094L642.813,90.909L643.562,90.647L644.31,90.459L645.058,90.158L645.806,89.874L646.554,89.583L647.302,89.289L648.051,89.028L648.799,88.728L649.547,88.406L650.295,88.244L651.043,88.031L651.791,87.647L652.54,87.446L653.288,87.265L654.036,87.015L654.784,86.842L655.532,86.754L656.28,86.236L657.028,85.788L657.777,85.342L658.525,84.863L659.273,84.477L660.021,84.199L660.769,83.765L661.517,83.309L662.266,83.029L663.014,82.764L663.762,82.444L664.51,82.148L665.258,81.82L666.006,81.457L666.754,81.217L667.503,81.069L668.251,80.8L668.999,80.647L669.747,80.485L670.495,80.272L671.243,80.07L671.992,79.835L672.74,79.552L673.488,79.269L674.236,79.051L674.984,78.832L675.732,78.637L676.481,78.466L677.229,78.348L677.977,78.259L678.725,78.158L679.473,78.029L680.221,77.878L680.969,77.772L681.718,77.602L682.466,77.488L683.214,77.354L683.962,77.236L684.71,77.088L685.458,76.969L686.207,76.753L686.955,76.598L687.703,76.428L688.451,76.297L689.199,76.102L689.947,75.9L690.695,75.721L691.444,75.584L692.192,75.418L692.94,75.294L693.688,75.153L694.436,75.061L695.184,74.948L695.933,74.823L696.681,74.72L697.429,74.539L698.177,74.392L698.925,74.265L699.673,74.138L700.421,73.986L701.17,73.852L701.918,73.68L702.666,73.57L703.414,73.375L704.162,73.111L704.91,72.859L705.659,72.509L706.407,72.357L707.155,72.184L707.903,72.004L708.651,71.891L709.399,71.703L710.148,71.515L710.896,71.327L711.644,71.08L712.392,70.644L713.14,70.451L713.888,70.326L714.636,70.056L715.385,69.895L716.133,69.807L716.881,69.628L717.629,69.478L718.377,69.361L719.125,69.153L719.874,68.917L720.622,68.686L721.37,68.357L722.118,68.231L722.866,68.119L723.614,67.959L724.362,67.818L725.111,67.738L725.859,67.642L726.607,67.501L727.355,67.429L728.103,67.295L728.851,67.175L729.6,67.085L730.348,66.973L731.096,66.904L731.844,66.795L732.592,66.635L733.34,66.5L734.089,66.399L734.837,66.191L735.585,66.027L736.333,65.879L737.081,65.662L737.829,65.6L738.577,65.52L739.326,65.376L740.074,65.291L740.822,65.202L741.57,65.089L742.318,65.016L743.066,64.929L743.815,64.721L744.563,64.592L745.311,64.546L746.059,64.49L746.807,64.41L747.555,64.294L748.303,64.181L749.052,64.011L749.8,63.92L750.548,63.734L751.296,63.474L752.044,63.282L752.792,62.996L753.541,62.793L754.289,62.663L755.037,62.539L755.785,62.417L756.533,62.274L757.281,62.164L758.03,62.069L758.778,61.902L759.526,61.737L760.274,61.557L761.022,61.462L761.77,61.296L762.518,61.229L763.267,61.148L764.015,60.985L764.763,60.881L765.511,60.775L766.259,60.654L767.007,60.502L767.756,60.362L768.504,60.212L769.252,60.123L770,60"></path></g></svg> 
 
