<svg xmlns="http://www.w3.org/2000/svg" width="830" height="564" fill="currentColor" class="plot-d6a7b5" font-family="system-ui, sans-serif" font-size="10" style="--plot-background:white;display:block;height:intrinsic;max-width:100%;color:#1e90ff" text-anchor="middle" viewBox="0 0 830 564">
    <style>
        :where(.plot-d6a7b5 text),:where(.plot-d6a7b5 tspan){white-space:pre}
    </style>
    <path stroke="currentColor" stroke-opacity=".1" d="M60 410h710M60 376.472h710M60 342.944h710M60 309.416h710M60 275.888h710M60 242.359h710M60 208.831h710M60 175.303h710M60 141.775h710M60 108.247h710M60 74.719h710" aria-hidden="true" aria-label="y-grid"/>
    <path fill="none" stroke="currentColor" d="M60 410h-6m6-33.528h-6m6-33.528h-6m6-33.528h-6m6-33.528h-6m6-33.528h-6m6-33.529h-6m6-33.528h-6m6-33.528h-6m6-33.528h-6m6-33.528h-6" aria-hidden="true" aria-label="y-axis tick"/>
    <g aria-label="y-axis tick label" font-variant="tabular-nums" text-anchor="end">
        <text y=".32em" transform="translate(51 410)">0</text>
        <text y=".32em" transform="translate(51 376.472)">2,000</text>
        <text y=".32em" transform="translate(51 342.944)">4,000</text>
        <text y=".32em" transform="translate(51 309.416)">6,000</text>
        <text y=".32em" transform="translate(51 275.888)">8,000</text>
        <text y=".32em" transform="translate(51 242.36)">10,000</text>
        <text y=".32em" transform="translate(51 208.831)">12,000</text>
        <text y=".32em" transform="translate(51 175.303)">14,000</text>
        <text y=".32em" transform="translate(51 141.775)">16,000</text>
        <text y=".32em" transform="translate(51 108.247)">18,000</text>
        <text y=".32em" transform="translate(51 74.719)">20,000</text>
    </g>
    <text y=".71em" aria-label="y-axis label" text-anchor="start" transform="translate(3 3)">↑ Frequency</text>
    <path fill="none" stroke="currentColor" d="M79.15 410v6m64.546-6v6m65.255-6v6m65.255-6v6m64.545-6v6m64.546-6v6m65.254-6v6m65.255-6v6m63.836-6v6m64.546-6v6m65.255-6v6" aria-hidden="true" aria-label="x-axis tick"/>
    <g aria-label="x-axis tick label" font-variant="tabular-nums">
        <text transform="translate(79.15 419)"><tspan x="0" y=".71em">Apr</tspan><tspan x="0" dy="1em">2023</tspan></text>
        <text y=".71em" transform="translate(143.696 419)">Jul</text>
        <text y=".71em" transform="translate(208.951 419)">Oct</text>
        <text transform="translate(274.206 419)"><tspan x="0" y=".71em">Jan</tspan><tspan x="0" dy="1em">2024</tspan></text>
        <text y=".71em" transform="translate(338.751 419)">Apr</text>
        <text y=".71em" transform="translate(403.297 419)">Jul</text>
        <text y=".71em" transform="translate(468.551 419)">Oct</text>
        <text transform="translate(533.806 419)"><tspan x="0" y=".71em">Jan</tspan><tspan x="0" dy="1em">2025</tspan></text>
        <text y=".71em" transform="translate(597.642 419)">Apr</text>
        <text y=".71em" transform="translate(662.188 419)">Jul</text>
        <text y=".71em" transform="translate(727.443 419)">Oct</text>
    </g>
    <text aria-label="x-axis label" text-anchor="end" transform="translate(827 467)">timestamp →</text>
    <g aria-label="rect">
        <path fill="#00000f" d="M60.5 286.197h3.965V410H60.5zm4.965 2.616h3.965V410h-3.965zm4.965 10.041h3.965V410H70.43zm4.965-54.198h3.965V410h-3.965zm4.965-12.238h3.965V410H80.36zm4.965 35.909h3.965V410h-3.965zm4.965 38.038h3.965V410H90.29zm4.965-2.062h3.965V410h-3.965zm4.965 12.606h3.965V410h-3.965zm4.965 6.102h3.965V410h-3.965zm4.965 6.287h3.965V410h-3.965zm4.965-18.91h3.965V410h-3.965zm4.965 9.572h3.965V410h-3.965zm4.965 15.054h3.965V410h-3.965zm4.965-2.179h3.965V410h-3.965zm4.966-7.141h3.965V410h-3.965zm4.965 12.908h3.965V410h-3.965zm4.965 16.848h3.965V410h-3.965zm4.965-6.555h3.965V410h-3.965zm4.965-6.236h3.965V410h-3.965zm4.965-13.998h3.965V410h-3.965zm4.965-15.926h3.965V410h-3.965zm4.965 26.739h3.965V410h-3.965zm4.965-13.11h3.965V410h-3.965zm4.965 15.708h3.965V410h-3.965zm4.965 8.65h3.965V410h-3.965zm4.965-4.811h3.965V410h-3.965zm4.965 4.694h3.965V410h-3.965zm4.965-4.878h3.965V410h-3.965zm4.965 8.851h3.965V410h-3.965zm4.965 1.71h3.965V410h-3.965zm4.965 1.911h3.965V410h-3.965zm4.965 7.007h3.965V410h-3.965zm4.965-7.996h3.965V410h-3.965zm4.965 7.276h3.965V410h-3.965zm4.965 6.202h3.965V410h-3.965zm4.965 2.247h3.965V410h-3.965zm4.965-8.282h3.965V410h-3.965zm4.965-5.314h3.965V410h-3.965zm4.965 17.2h3.965V410h-3.965zm4.965 1.358h3.965V410h-3.965zm4.965-4.191h3.965V410h-3.965zm4.965-1.107h3.965V410h-3.965zm4.966 8.986h3.965V410h-3.965zm4.965 4.174h3.965V410h-3.965zm4.965-10.494h3.965V410h-3.965zm4.965-1.677h3.965V410h-3.965zm4.965-12.371h3.965V410h-3.965zm4.965 5.833h3.965V410h-3.965zm4.965-14.618h3.965V410h-3.965zm4.965 13.076h3.965V410h-3.965zm4.965 3.353h3.965V410h-3.965zm4.965 5.867h3.965V410h-3.965zm4.965-8.817h3.965V410h-3.965zm4.965 32.539h3.965V410h-3.965zm4.965 1.877h3.965V410h-3.965zm4.965-20.318h3.965V410h-3.965zm4.965 9.656h3.965V410h-3.965zm4.965.084h3.965V410h-3.965zm4.965-2.297h3.965V410h-3.965zm4.965-7.745h3.965V410h-3.965zm4.965 2.297h3.965V410h-3.965zm4.965 4.007h3.965V410h-3.965zm4.965-1.694h3.965V410h-3.965zm4.965-9.404h3.965V410h-3.965zm4.965 9.404h3.965V410h-3.965zm4.965-1.106h3.965V410h-3.965zm4.965 4.577h3.965V410h-3.965zm4.965-1.476h3.965V410h-3.965zm4.965-8.164h3.965V410h-3.965zm4.965 9.908h3.965V410h-3.965zm4.965-1.425h3.965V410h-3.965zm4.966-3.705h3.965V410h-3.965zm4.965-3.571h3.965V410h-3.965zm4.965.017h3.965V410h-3.965zm4.965-2.246h3.965V410h-3.965zm4.965.234h3.965V410h-3.965zm4.965 7.544h3.965V410h-3.965zm4.965 1.526h3.965V410h-3.965zm4.965 1.693h3.965V410h-3.965zm4.965.084h3.965V410h-3.965zm4.965-8.801h3.965V410h-3.965zm4.965 8.13h3.965V410h-3.965zm4.965 6.79h3.965V410h-3.965zm4.965 1.911h3.965V410h-3.965zm4.965 1.039h3.965V410h-3.965zm4.965-5.716h3.965V410h-3.965zm4.965 1.76h3.965V410h-3.965zm4.965 1.743h3.965V410h-3.965zm4.965-1.894h3.965V410h-3.965zm4.965 2.196h3.965V410h-3.965zm4.965-4.51h3.965V410h-3.965zm4.965 5.281h3.965V410h-3.965zm4.965.872h3.965V410h-3.965zm4.965-4.141h3.965V410h-3.965zm4.965-15.942h3.965V410h-3.965zm4.965 13.344h3.965V410h-3.965zm4.965-3.051h3.965V410h-3.965zm4.965-2.616h3.965V410h-3.965zm4.965-1.156h3.965V410h-3.965zm4.965 2.481h3.965V410h-3.965zm4.966 6.772h3.965V410h-3.965zm4.965-5.247h3.965V410h-3.965zm4.965-3.386h3.965V410h-3.965zm4.965-3.705h3.965V410h-3.965zm4.965 10.025h3.965V410h-3.965zm4.965 9.338h3.965V410h-3.965zm4.965-3.806h3.965V410h-3.965zm4.965 4.946h3.965V410h-3.965zm4.965 3h3.965V410h-3.965zm4.965 2.699h3.965V410h-3.965zm4.965-1.944h3.965V410h-3.965zm4.965 3.822h3.965V410h-3.965zm4.965-3.604h3.965V410h-3.965zm4.965 1.441h3.965V410h-3.965zm4.965-.72h3.965V410h-3.965zm4.965-3.722h3.965V410h-3.965zm4.965 5.029h3.965V410h-3.965zm4.965.252h3.965V410h-3.965zm4.965-3.454h3.965V410h-3.965zm4.965-1.576h3.965V410h-3.965zm4.965-1.056h3.965V410h-3.965zm4.965 2.934h3.965V410h-3.965zm4.965-3.001h3.965V410h-3.965zm4.965 2.397h3.965V410h-3.965zm4.965-.134h3.965V410h-3.965zm4.965 2.817h3.965V410h-3.965zm4.965 2.498h3.965V410h-3.965zm4.965-3.471h3.965V410h-3.965zm4.966 1.626h3.965V410h-3.965zm4.965-.184h3.965V410h-3.965zm4.965 1.056h3.965V410h-3.965zm4.965-1.81h3.965V410h-3.965zm4.965-2.683h3.965V410h-3.965zm4.965 4.024h3.965v2.9h-3.965zm4.965 1.743h3.965V410h-3.965zm4.965-1.726h3.965V410h-3.965zm4.965-1.224h3.965V410h-3.965zm4.965 2.95h3.965V410h-3.965zm4.965-.721h3.965V410h-3.965zm4.965-1.911h3.965V410h-3.965zm4.965 3.387h3.965V410h-3.965zm4.965-.537h3.965V410h-3.965z"/>
        <path fill="#fff" d="M60.5 265.024h3.965v21.173H60.5zm4.965 4.141h3.965v19.647h-3.965zm4.965 6.086h3.965v23.604H70.43zm4.965-67.694h3.965v37.099h-3.965zm4.965-7.661h3.965v32.522H80.36zm4.965 40.217h3.965v28.214h-3.965zm4.965 30.108h3.965v36.143H90.29zm4.965 10.26h3.965v23.822h-3.965zm4.965 16.764h3.965v19.664h-3.965zm4.965-8.818h3.965v34.584h-3.965zm4.965 13.981h3.965v26.89h-3.965zm4.965-19.781h3.965v27.761h-3.965zm4.965 6.605h3.965v30.729h-3.965zm4.965 20.318h3.965v25.465h-3.965zm4.965-3.32h3.965v26.605h-3.965zm4.966-2.363h3.965v21.827h-3.965zm4.965 8.851h3.965v25.884h-3.965zm4.965 21.81h3.965v20.922h-3.965zm4.965-11.181h3.965v25.548h-3.965zm4.965-3.437h3.965v22.749h-3.965zm4.965-18.088h3.965v26.839h-3.965zm4.965-12.272h3.965v23.185h-3.965zm4.965 27.879h3.965v22.045h-3.965zm4.965-14.937h3.965v23.872h-3.965zm4.965 23.252h3.965v16.328h-3.965zm4.965 4.543h3.965v20.435h-3.965zm4.965-.671h3.965v16.295h-3.965zm4.965 3.504h3.965v17.485h-3.965zm4.965-3.034h3.965v15.641h-3.965zm4.965 11.383h3.965v13.109h-3.965zm4.965.352h3.965v14.467h-3.965zm4.965-4.912h3.965v21.29h-3.965zm4.965 10.863h3.965v17.435h-3.965zm4.965-4.443h3.965v13.881h-3.965zm4.965 6.823h3.965v14.333h-3.965zm4.965 7.159h3.965v13.378h-3.965zm4.965 6.169h3.965v9.455h-3.965zm4.965-15.608h3.965v16.781h-3.965zm4.965-4.979h3.965v16.446h-3.965zm4.965 18.542h3.965v15.104h-3.965zm4.965.586h3.965v15.876h-3.965zm4.965.704h3.965v10.98h-3.965zm4.965-1.374h3.965V372.6h-3.965zm4.966 3.118h3.965v17.116h-3.965zm4.965 8.047h3.965v13.244h-3.965zm4.965-14.568h3.965v17.317h-3.965zm4.965 2.062h3.965v13.579h-3.965zm4.965-8.097h3.965v9.304h-3.965zm4.965 1.005h3.965v14.132h-3.965zm4.965-16.143h3.965v15.658h-3.965zm4.965 12.204h3.965v16.529h-3.965zm4.965 3.772h3.965v16.11h-3.965zm4.965 4.878h3.965v17.099h-3.965zm4.965-.419h3.965v8.701h-3.965zm4.965 37.35h3.965v3.889h-3.965zm4.965-.536h3.965v6.303h-3.965zm4.965-23.738h3.965v9.723h-3.965zm4.965 8.935h3.965v10.444h-3.965zm4.965 1.492h3.965v9.036h-3.965zm4.965-1.944h3.965v8.684h-3.965zm4.965-6.17h3.965v7.108h-3.965zm4.965-5.28h3.965v14.685h-3.965zm4.965 7.711h3.965v10.98h-3.965zm4.965-1.894h3.965v11.182h-3.965zm4.965-10.427h3.965v12.204h-3.965zm4.965 6.135h3.965v15.473h-3.965zm4.965 3.387h3.965v10.98h-3.965zm4.965 2.833h3.965v12.724h-3.965zm4.965 3.386h3.965v7.862h-3.965zm4.965-6.488h3.965v6.186h-3.965zm4.965 11.618h3.965v4.476h-3.965zm4.965-1.894h3.965v4.945h-3.965zm4.966-8.852h3.965v10.092h-3.965zm4.965-12.104h3.965v18.625h-3.965zm4.965.621h3.965v18.021h-3.965zm4.965-10.193h3.965v25.968h-3.965zm4.965 17.418h3.965v8.784h-3.965zm4.965 8.131h3.965v8.198h-3.965zm4.965 3.369h3.965v6.354h-3.965zm4.965.335h3.965v7.711h-3.965zm4.965-.754h3.965v8.55h-3.965zm4.965-9.723h3.965v9.472h-3.965zm4.965 9.237h3.965v8.365h-3.965zm4.965 8.365h3.965v6.789h-3.965zm4.965-4.107h3.965v12.808h-3.965zm4.965 7.561h3.965v6.287h-3.965zm4.965-8.366h3.965v8.935h-3.965zm4.965-1.207h3.965v11.902h-3.965zm4.965 6.572h3.965v7.074h-3.965zm4.965-4.325h3.965v9.505h-3.965zm4.965 6.487h3.965v5.214h-3.965zm4.965-2.514h3.965v3.219h-3.965zm4.965 4.073h3.965v4.426h-3.965zm4.965.57h3.965v4.727h-3.965zm4.965-7.409h3.965v7.996h-3.965zm4.965-19.296h3.965v11.349h-3.965zm4.965 18.038h3.965v6.655h-3.965zm4.965-.553h3.965v4.157h-3.965zm4.965-2.984h3.965v4.526h-3.965zm4.965-1.458h3.965v4.828h-3.965zm4.965.62h3.965v6.689h-3.965zm4.966 8.348h3.965v5.113h-3.965zm4.965-7.728h3.965v7.594h-3.965zm4.965-2.581h3.965v6.789h-3.965zm4.965-2.834h3.965v5.918h-3.965zm4.965 11.149h3.965v4.795h-3.965zm4.965 8.75h3.965v5.381h-3.965zm4.965-3.738h3.965v5.314h-3.965zm4.965 5.096h3.965v5.163h-3.965zm4.965 5.113h3.965v3.051h-3.965zm4.965-1.207h3.965v6.957h-3.965zm4.965 3.957h3.965v1.056h-3.965zm4.965 1.978h3.965v2.9h-3.965zm4.965-2.9h3.965v2.196h-3.965zm4.965 2.564h3.965v1.073h-3.965zm4.965-3.805h3.965v4.157h-3.965zm4.965-2.682h3.965v3.118h-3.965zm4.965 5.431h3.965v2.716h-3.965zm4.965 2.347h3.965v.62h-3.965zm4.965-4.057h3.965v1.224h-3.965zm4.965-2.246h3.965v1.894h-3.965zm4.965-.318h3.965v1.157h-3.965zm4.965 3.118h3.965v.972h-3.965zm4.965-4.627h3.965v2.598h-3.965zm4.965 3.788h3.965v1.207h-3.965zm4.965-2.732h3.965v3.805h-3.965zm4.965 5.683h3.965v.939h-3.965zm4.965 2.196h3.965v1.241h-3.965zm4.965-4.023h3.965v1.794h-3.965zm4.966 2.112h3.965v1.308h-3.965zm4.965-1.157h3.965v2.28h-3.965zm4.965 2.733h3.965v.604h-3.965zm4.965-2.28h3.965v1.073h-3.965zm4.965-3.085h3.965v1.475h-3.965zm4.965 5.197h3.965v.302h-3.965zm4.965 1.425h3.965v.62h-3.965zm4.965-3.051h3.965v1.945h-3.965zm4.965-.017h3.965v.738h-3.965zm4.965 3.269h3.965v.419h-3.965zm4.965-1.039h3.965v.738h-3.965zm4.965-1.475h3.965v.302h-3.965zm4.965 3.084h3.965v.604h-3.965zm4.965-.084h3.965v.151h-3.965z"/>
        <path fill="#ff7373" d="M60.5 241.856h3.965v17.25H60.5zm4.965-2.615h3.965v22.849h-3.965zm4.965 12.137h3.965v20.737H70.43zm4.965-66.15h3.965v17.116h-3.965zm4.965-14.468h3.965v22.665H80.36zm4.965 52.455h3.965v13.646h-3.965zm4.965 29.37h3.965v13.747H90.29zm4.965 9.187h3.965v12.255h-3.965zm4.965 20.033h3.965v11.852h-3.965zm4.965-11.684h3.965v14.317h-3.965zm4.965 16.646h3.965v11.215h-3.965zm4.965-17.501h3.965v9.505h-3.965zm4.965 5.616h3.965v11.55h-3.965zm4.965 20.016h3.965v12.003h-3.965zm4.965-5.448h3.965v14.199h-3.965zm4.966 1.408h3.965v10.343h-3.965zm4.965 6.722h3.965v12.741h-3.965zm4.965 20.637h3.965v11.534h-3.965zm4.965-9.371h3.965v11.668h-3.965zm4.965-.637h3.965v9.857h-3.965zm4.965-15.373h3.965v6.504h-3.965zm4.965-15.725h3.965v9.405h-3.965zm4.965 26.823h3.965v10.394h-3.965zm4.965-19.48h3.965v13.277h-3.965zm4.965 22.095h3.965v15.373h-3.965zm4.965 11.852h3.965v8.935h-3.965zm4.965 1.895h3.965v6.84h-3.965zm4.965 5.347h3.965v5.499h-3.965zm4.965-5.867h3.965v7.879h-3.965zm4.965 11.718h3.965v6.974h-3.965zm4.965-.117h3.965v7.611h-3.965zm4.965-6.035h3.965v9.321h-3.965zm4.965 12.723h3.965v7.158h-3.965zm4.965-3.989h3.965v7.41h-3.965zm4.965 5.901h3.965v8.935h-3.965zm4.965 9.589h3.965v4.878h-3.965zm4.965 7.594h3.965v4.996h-3.965zm4.965-15.909h3.965v4.275h-3.965zm4.965-6.991h3.965v4.375h-3.965zm4.965 21.844h3.965v4.157h-3.965zm4.965 1.575h3.965v2.565h-3.965zm4.965-1.978h3.965v3.655h-3.965zm4.965-6.001h3.965v7.359h-3.965zm4.966 7.795h3.965v4.577h-3.965zm4.965 10.276h3.965v3.386h-3.965zm4.965-18.977h3.965v5.834h-3.965zm4.965 2.364h3.965v5.599h-3.965zm4.965-8.55h3.965v4.828h-3.965zm4.965-1.927h3.965v8.499h-3.965zm4.965-17.234h3.965v9.79h-3.965zm4.965 15.591h3.965v6.203h-3.965zm4.965 6.739h3.965v5.867h-3.965zm4.965 4.124h3.965v6.789h-3.965zm4.965-2.062h3.965v6.722h-3.965zm4.965 44.022h3.965v2.263h-3.965zm4.965-2.481h3.965v4.174h-3.965zm4.965-28.65h3.965v9.069h-3.965zm4.965 10.981h3.965v6.337h-3.965zm4.965 4.895h3.965v3.487h-3.965zm4.965-5.499h3.965v6.488h-3.965zm4.965-4.962h3.965v4.09h-3.965zm4.965-4.14h3.965v4.409h-3.965zm4.965 4.727h3.965v7.242h-3.965zm4.965.637h3.965v5.331h-3.965zm4.965-13.914h3.965v7.98h-3.965zm4.965 7.862h3.965v6.102h-3.965zm4.965 1.358h3.965v5.968h-3.965zm4.965 7.527h3.965v3.202h-3.965zm4.965-1.676h3.965v7.795h-3.965zm4.965-.47h3.965v3.085h-3.965zm4.965 12.171h3.965v2.498h-3.965zm4.965-4.878h3.965v5.297h-3.965zm4.966-7.863h3.965v4.51h-3.965zm4.965-14.249h3.965v6.722h-3.965zm4.965-1.19h3.965v7.678h-3.965zm4.965-13.277h3.965v8.633h-3.965zm4.965 24.291h3.965v3.889h-3.965zm4.965 9.941h3.965v2.665h-3.965zm4.965 3.654h3.965v2.33h-3.965zm4.965 1.911h3.965v.922h-3.965zm4.965-1.642h3.965v2.464h-3.965zm4.965-11.886h3.965v3.286h-3.965zm4.965 9.689h3.965v3.303h-3.965zm4.965 8.986h3.965v3.101h-3.965zm4.965-1.961h3.965v1.224h-3.965zm4.965 5.85h3.965v2.867h-3.965zm4.965-9.203h3.965v3.554h-3.965zm4.965-2.431h3.965v4.811h-3.965zm4.965 7.527h3.965v3.805h-3.965zm4.965-3.973h3.965v3.235h-3.965zm4.965 7.929h3.965v2.062h-3.965zm4.965-2.078h3.965v1.241h-3.965zm4.965.771h3.965v4.342h-3.965zm4.965 1.14h3.965v4.292h-3.965zm4.965-4.242h3.965v1.492h-3.965zm4.965-19.412h3.965v1.157h-3.965zm4.965 17.049h3.965v1.358h-3.965zm4.965.151h3.965v1.777h-3.965zm4.965-3.487h3.965v2.33h-3.965zm4.965-.419h3.965v1.593h-3.965zm4.965-1.107h3.965v2.984h-3.965zm4.966 8.449h3.965v2.582h-3.965zm4.965-7.728h3.965v2.598h-3.965zm4.965-5.147h3.965v1.291h-3.965zm4.965-2.028h3.965v3.185h-3.965zm4.965 12.791h3.965v2.582h-3.965zm4.965 7.929h3.965v3.94h-3.965zm4.965-3.017h3.965v3.085h-3.965zm9.93 13.243h3.965v.469h-3.965zm4.965-1.76h3.965v.888h-3.965zm4.965 3.722h3.965v1.207h-3.965zm4.965 2.883h3.965v.369h-3.965zm4.965-2.9h3.965v.386h-3.965zm4.965 2.548h3.965v.017h-3.965zm4.965-5.817h3.965v1.878h-3.965zm4.965-.704h3.965v.402h-3.965zm4.965 4.979h3.965v.436h-3.965zm4.965 2.364h3.965v.872h-3.965zm4.965-3.906h3.965v.687h-3.965zm4.965-2.113h3.965v.05h-3.965zm4.965-.134h3.965v.352h-3.965zm4.965 1.928h3.965v1.308h-3.965zm4.965-3.152h3.965v.084h-3.965zm4.965 3.336h3.965v.402h-3.965zm9.93 2.984h3.965v.268h-3.965zm4.965 2.498h3.965v.218h-3.965zm4.965-4.593h3.965v.268h-3.965zm4.966 1.894h3.965v.704h-3.965zm4.965-1.643h3.965v1.475h-3.965zm4.965 4.158h3.965v.084h-3.965zm4.965-2.33h3.965v.117h-3.965zm4.965-3.521h3.965v.553h-3.965zm9.93 6.186h3.965v.654h-3.965zm9.93-2.297h3.965v.117h-3.965zm4.965 1.61h3.965v1.509h-3.965zm4.965.62h3.965v.034h-3.965zm4.965-2.196h3.965v.956h-3.965zm4.965 3.638h3.965v.168h-3.965zm4.965.218h3.965v.101h-3.965z"/>
        <path fill="#4f2d68" d="M60.5 147.592h3.965v30.41H60.5zm4.965-3.168h3.965v30.963h-3.965zm4.965 25.096h3.965v23.838H70.43zm4.965-76.78h3.965v27.376h-3.965zm4.965-20.62h3.965v26.605H80.36zm4.965 57.417h3.965v31.231h-3.965zm4.965 45.414h3.965v25.28H90.29zm4.965 9.807h3.965v25.599h-3.965zm4.965 23.637h3.965v23.269h-3.965zm4.965-3.755h3.965v24.71h-3.965zm4.965 22.28h3.965v16.982h-3.965zm4.965-25.8h3.965v22.548h-3.965zm4.965 21.123h3.965v19.849h-3.965zm4.965 23.117h3.965v17.753h-3.965zm4.965 2.23h3.965v11.668h-3.965zm4.966 2.414h3.965v10.679h-3.965zm4.965-11.484h3.965v17.669h-3.965zm4.965 34.099h3.965v13.378h-3.965zm4.965-18.726h3.965v15.171h-3.965zm4.965 8.265h3.965v11.567h-3.965zm4.965-16.01h3.965v11.232h-3.965zm4.965-16.228h3.965v12.07h-3.965zm4.965 22.699h3.965v20.318h-3.965zm4.965-14.803h3.965v7.728h-3.965zm4.965 25.8h3.965v9.405h-3.965zm4.965 12.892h3.965v9.321h-3.965zm4.965 7.963h3.965v8.935h-3.965zm4.965 5.683h3.965v12.12h-3.965zm4.965-4.443h3.965v12.12h-3.965zm4.965 15.272h3.965v6.706h-3.965zm4.965-3.47h3.965v11.182h-3.965zm4.965-8.818h3.965v10.528h-3.965zm4.965 8.986h3.965v15.188h-3.965zm4.965 1.006h3.965v10.83h-3.965zm4.965 7.242h3.965v15.574h-3.965zm4.965 17.719h3.965v13.193h-3.965zm4.965 10.511h3.965v6.706h-3.965zm4.965-18.507h3.965v6.085h-3.965zm4.965-2.498h3.965v8.399h-3.965zm4.965 26.705h3.965v5.197h-3.965zm4.965 3.487h3.965v4.409h-3.965zm4.965-4.979h3.965v4.644h-3.965zm4.965-13.864h3.965v6.588h-3.965zm4.966 9.019h3.965v12.003h-3.965zm4.965 11.165h3.965v9.421h-3.965zm4.965-19.111h3.965v8.566h-3.965zm4.965-5.767h3.965v10.276h-3.965zm4.965-4.945h3.965v10.427h-3.965zm4.965-9.824h3.965v9.002h-3.965zm4.965-15.356h3.965v12.875h-3.965zm4.965 19.715h3.965v12.221h-3.965zm4.965 15.339h3.965v6.672h-3.965zm4.965 11.668h3.965v4.945h-3.965zm4.965.536h3.965v2.833h-3.965zm4.965 50.795h3.965v1.475h-3.965zm4.965-5.297h3.965v2.967h-3.965zm4.965-35.423h3.965v5.147h-3.965zm4.965 5.533h3.965v4.711h-3.965zm4.965 13.511h3.965v3.085h-3.965zm4.965-13.377h3.965v6.789h-3.965zm4.965-1.375h3.965v5.784h-3.965zm4.965-1.458h3.965v3.621h-3.965zm4.965.184h3.965v3.135h-3.965zm4.965-.335h3.965v4.862h-3.965zm4.965-14.283h3.965v8.449h-3.965zm4.965 5.381h3.965v5.566h-3.965zm4.965-2.783h3.965v6.789h-3.965zm4.965 16.446h3.965v2.749h-3.965zm4.965-.201h3.965v2.112h-3.965zm4.965-1.643h3.965v3.051h-3.965zm4.965 11.466h3.965v3.705h-3.965zm4.965-7.56h3.965v4.325h-3.965zm4.966-7.678h3.965v5.867h-3.965zm4.965-15.457h3.965v5.063h-3.965zm4.965-5.163h3.965v5.029h-3.965zm4.965-29.404h3.965v9.908h-3.965zm4.965 41.457h3.965v4.912h-3.965zm4.965 18.558h3.965v7.695h-3.965zm4.965 6.991h3.965v2.582h-3.965zm4.965 1.173h3.965v2.934h-3.965zm4.965-5.515h3.965v4.141h-3.965zm4.965-16.747h3.965v4.342h-3.965zm4.965 11.919h3.965v7.494h-3.965zm4.965 7.996h3.965v4.979h-3.965zm4.965 6.706h3.965v3.37h-3.965zm4.965 4.778h3.965v3.47h-3.965zm4.965-5.65h3.965v1.76h-3.965zm4.965-8.013h3.965v5.297h-3.965zm4.965 9.052h3.965v5.733h-3.965zm4.965-2.296h3.965v3.386h-3.965zm4.965 7.678h3.965v4.141h-3.965zm4.965 1.324h3.965v2.649h-3.965zm4.965-1.14h3.965v3.286h-3.965zm4.965.721h3.965v2.967h-3.965zm4.965-.268h3.965v1.978h-3.965zm4.965-22.598h3.965v1.408h-3.965zm4.965 20.905h3.965v2.112h-3.965zm4.965-4.51h3.965v3.705h-3.965zm4.965-2.364h3.965v3.755h-3.965zm4.965-7.745h3.965v4.258h-3.965zm4.965 2.264h3.965v2.917h-3.965zm4.966 6.923h3.965v3.688h-3.965zm4.965-5.716h3.965v4.677h-3.965zm4.965-.621h3.965v2.515h-3.965zm4.965-11.852h3.965v3.001h-3.965zm4.965 17.234h3.965v4.292h-3.965zm4.965 11.265h3.965v2.196h-3.965zm4.965-4.593h3.965v4.208h-3.965zm9.93 10.444h3.965v.319h-3.965zm4.965 1.944h3.965v1.157h-3.965zm4.965 6.002h3.965v1.861h-3.965zm4.965 7.694h3.965v.034h-3.965zm4.965-3.503h3.965v.117h-3.965zm4.965 2.33h3.965v.503h-3.965zm4.965-5.985h3.965v.319h-3.965zm4.965-1.257h3.965v1.66h-3.965zm4.965 2.313h3.965v.486h-3.965zm4.965 4.661h3.965v2.565h-3.965zm4.965-2.029h3.965v.134h-3.965zm4.965-3.755h3.965v.989h-3.965zm4.965-1.442h3.965v.285h-3.965zm4.965 5.616h3.965v.134h-3.965zm4.965-5.062h3.965v.218h-3.965zm4.965 4.727h3.965v.168h-3.965zm4.965-3.504h3.965v1.157h-3.965zm4.965 6.958h3.965v.62h-3.965zm4.965 1.005h3.965v.235h-3.965zm4.965-7.678h3.965v1.509h-3.965zm4.966 4.476h3.965v1.358h-3.965zm4.965.285h3.965v.419h-3.965zm4.965 2.683h3.965v.436h-3.965zm4.965.117h3.965v.101h-3.965zm4.965-8.147h3.965v.05h-3.965zm9.93 7.761h3.965v.754h-3.965zm4.965-1.626h3.965v.386h-3.965zm4.965 1.409h3.965v.369h-3.965zm4.965 2.145h3.965v.302h-3.965zm4.965.084h3.965v.62h-3.965zm4.965-3.369h3.965v.285h-3.965zm4.965 3.554h3.965v.067h-3.965zm4.965 1.927h3.965v.168h-3.965z"/>
        <path fill="#ffff73" d="M60.5 259.107h3.965v5.918H60.5zm4.965 2.984h3.965v7.074h-3.965zm4.965 10.025h3.965v3.135H70.43zm4.965-69.772h3.965v5.214h-3.965zm4.965-8.919h3.965v6.471H80.36zm4.965 43.436h3.965v3.252h-3.965zm4.965 29.471h3.965v3.889H90.29zm4.965 7.695h3.965v6.454h-3.965zm4.965 19.63h3.965v3.588h-3.965zm4.965-9.22h3.965v3.99h-3.965zm4.965 13.546h3.965v4.426h-3.965zm4.965-19.212h3.965v3.856h-3.965zm4.965 7.661h3.965v2.8h-3.965zm4.965 20.469h3.965v2.649h-3.965zm4.965-3.252h3.965v2.582h-3.965zm4.966-2.448h3.965v2.665h-3.965zm4.965 9.12h3.965v2.397h-3.965zm4.965 19.429h3.965v4.778h-3.965zm4.965-9.237h3.965v2.833h-3.965zm4.965-2.447h3.965v1.844h-3.965zm4.965-18.726h3.965v2.481h-3.965zm4.965-12.824h3.965v3.034h-3.965zm4.965 27.812h3.965v3.101h-3.965zm4.965-16.597h3.965v4.761h-3.965zm4.965 24.191h3.965v3.822h-3.965zm4.965 5.414h3.965v2.95h-3.965zm4.965-.201h3.965v2.481h-3.965zm4.965 4.007h3.965v1.978h-3.965zm4.965-3.487h3.965v2.431h-3.965zm4.965 10.813h3.965v3.001h-3.965zm4.965.519h3.965v2.833h-3.965zm4.965-4.325h3.965v2.246h-3.965zm4.965 10.562h3.965v2.548h-3.965zm4.965-3.739h3.965v1.844h-3.965zm4.965 7.427h3.965v1.241h-3.965zm4.965 5.532h3.965v2.867h-3.965zm4.965 7.711h3.965v1.324h-3.965zm4.965-16.63h3.965v2.347h-3.965zm4.965-6.89h3.965v4.258h-3.965zm4.965 21.626h3.965v1.173h-3.965zm4.965-.017h3.965v1.777h-3.965zm4.965-.888h3.965v3.37h-3.965zm4.965-2.297h3.965v4.292h-3.965zm4.966 5.013h3.965v2.397h-3.965zm4.965 9.086h3.965v1.358h-3.965zm4.965-16.53h3.965v3.319h-3.965zm4.965 2.129h3.965v3.252h-3.965zm4.965-9.32h3.965v4.476h-3.965zm4.965 1.743h3.965v3.738h-3.965zm4.965-15.943h3.965v3.537h-3.965zm4.965 12.003h3.965v3.738h-3.965zm4.965 6.404h3.965v1.106h-3.965zm4.965 5.046h3.965v.939h-3.965zm4.965-2.129h3.965v2.649h-3.965zm4.965 39.563h3.965v.436h-3.965zm4.965-.57h3.965v.469h-3.965zm4.965-23.754h3.965v.486h-3.965zm4.965 8.248h3.965v1.173h-3.965zm4.965 2.045h3.965v.62h-3.965zm4.965-2.498h3.965v1.173h-3.965zm4.965-7.359h3.965v2.364h-3.965zm4.965-3.823h3.965v.905h-3.965zm4.965 7.561h3.965v1.056h-3.965zm4.965-1.274h3.965v.436h-3.965zm4.965-11.265h3.965v1.274h-3.965zm4.965 5.984h3.965v1.425h-3.965zm4.965 1.224h3.965v3.588h-3.965zm4.965 4.761h3.965v1.66h-3.965zm4.965 2.917h3.965v2.129h-3.965zm4.965-5.18h3.965v.821h-3.965zm4.965 11.584h3.965v.855h-3.965zm4.965-2.079h3.965v1.039h-3.965zm4.966-8.65h3.965v.838h-3.965zm4.965-12.037h3.965v.771h-3.965zm4.965-.234h3.965v1.626h-3.965zm4.965-12.322h3.965v3.755h-3.965zm4.965 19.547h3.965v1.626h-3.965zm4.965 8.717h3.965v1.039h-3.965zm4.965 3.319h3.965v1.09h-3.965zm4.965.503h3.965v.922h-3.965zm4.965-.1h3.965v.268h-3.965zm4.965-11.064h3.965v1.609h-3.965zm4.965 9.706h3.965v1.14h-3.965zm4.965 8.784h3.965v.721h-3.965zm4.965-3.839h3.965v.453h-3.965zm4.965 7.494h3.965v.52h-3.965zm4.965-8.516h3.965v.671h-3.965zm4.965-1.174h3.965v.637h-3.965zm4.965 6.521h3.965v.687h-3.965zm4.965-4.543h3.965v.905h-3.965zm4.965 6.756h3.965v.637h-3.965zm4.965-2.9h3.965v1.023h-3.965zm4.965 3.873h3.965v1.224h-3.965zm4.965 1.089h3.965v.704h-3.965zm4.965-7.041h3.965v.335h-3.965zm4.965-19.748h3.965v.788h-3.965zm4.965 17.251h3.965v1.576h-3.965zm4.965.57h3.965v.453h-3.965zm4.965-2.934h3.965v.402h-3.965zm4.965-1.157h3.965v.101h-3.965zm4.965.285h3.965v.436h-3.965zm4.966 8.047h3.965v.738h-3.965zm4.965-7.712h3.965v.721h-3.965zm4.965-6.454h3.965v4.593h-3.965zm4.965-.134h3.965v1.894h-3.965zm4.965 12.188h3.965v.855h-3.965zm4.965 9.287h3.965v.319h-3.965zm4.965-3.873h3.965v.453h-3.965zm4.965 5.465h3.965v.084h-3.965zm4.965 5.164h3.965v.034h-3.965zm4.965-1.341h3.965v.168h-3.965zm4.965 4.04h3.965v.084h-3.965zm4.965 2.045h3.965v.017h-3.965zm9.93-.704h3.965v.386h-3.965zm4.965-3.956h3.965v.536h-3.965zm4.965-2.18h3.965v.034h-3.965zm4.965 5.013h3.965v.453h-3.965zm9.93-1.291h3.965v.034h-3.965zm4.965-2.749h3.965v.536h-3.965zm4.965.167h3.965v.05h-3.965zm4.965 2.884h3.965v.285h-3.965zm4.965-4.376h3.965v.034h-3.965zm4.965 3.655h3.965v.168h-3.965zm4.965-2.85h3.965v.285h-3.965zm4.965 5.7h3.965v.268h-3.965zm4.965 2.447h3.965v.017h-3.965zm4.965-4.543h3.965v.536h-3.965zm4.966 2.33h3.965v.319h-3.965zm4.965-.871h3.965v.034h-3.965zm9.93.469h3.965v.017h-3.965zm4.965-3.085h3.965v.017h-3.965zm9.93 6.287h3.965v.352h-3.965zm4.965-3.94h3.965v1.241h-3.965zm4.965 1.107h3.965v.117h-3.965zm4.965 3.001h3.965v.386h-3.965zm4.965-.855h3.965v.201h-3.965zm9.93 1.575h3.965v.235h-3.965z"/>
        <path fill="#70223b" d="M60.5 190.424h3.965v32.606H60.5zm4.965-1.726h3.965v36.847h-3.965zm4.965 20.033h3.965v29.488H70.43zm4.965-74.517h3.965v35.054h-3.965zm4.965-20.418h3.965v35.64H80.36zm4.965 57.953h3.965v37.702h-3.965zm4.965 38.541h3.965v27.024H90.29zm4.965 9.438h3.965v31.248h-3.965zm4.965 22.497h3.965v26.822h-3.965zm4.965-4.727h3.965v22.229h-3.965zm4.965 16.227h3.965v18.29h-3.965zm4.965-16.914h3.965v22.129h-3.965zm4.965 14.584h3.965v15.473h-3.965zm4.965 19.044h3.965v15.507h-3.965zm4.965-3.872h3.965v16.496h-3.965zm4.966 2.464h3.965v16.378h-3.965zm4.965-1.827h3.965v18.34h-3.965zm4.965 24.961h3.965v20.251h-3.965zm4.965-15.707h3.965v23.134h-3.965zm4.965 4.727h3.965v20.318h-3.965zm4.965-19.329h3.965v21.86h-3.965zm4.965-10.511h3.965v15.892h-3.965zm4.965 28.147h3.965v16.881h-3.965zm4.965-25.113h3.965v20.301h-3.965zm4.965 25.834h3.965v17.82h-3.965zm4.965 11.483h3.965v12.221h-3.965zm4.965 8.214h3.965v15.188h-3.965zm4.965 4.611h3.965v12.724h-3.965zm4.965-4.242h3.965v9.958h-3.965zm4.965 14.283h3.965v11.366h-3.965zm4.965.973h3.965v11.215h-3.965zm4.965-8.751h3.965v11.198h-3.965zm4.965 9.639h3.965v12.54h-3.965zm4.965-.704h3.965v11.852h-3.965zm4.965 9.807h3.965v10.897h-3.965zm4.965 14.166h3.965v8.114h-3.965zm4.965 4.459h3.965v7.644h-3.965zm4.965-19.027h3.965v10.612h-3.965zm4.965-.151h3.965v7.292h-3.965zm4.965 23.805h3.965v5.968h-3.965zm4.965 1.877h3.965v3.738h-3.965zm4.965-5.431h3.965v8.516h-3.965zm4.965-8.6h3.965v8.617h-3.965zm4.966 11.433h3.965v6.018h-3.965zm4.965 9.103h3.965v7.728h-3.965zm4.965-18.877h3.965v7.745h-3.965zm4.965-3.839h3.965v10.41h-3.965zm4.965-5.699h3.965v8.734h-3.965zm4.965-9.472h3.965v13.294h-3.965zm4.965-10.26h3.965v9.975h-3.965zm4.965 16.966h3.965v10.243h-3.965zm4.965 7.996h3.965v9.036h-3.965zm4.965 9.891h3.965v3.956h-3.965zm4.965-.973h3.965v3.437h-3.965zm4.965 46.588h3.965v1.224h-3.965zm4.965-2.833h3.965v1.375h-3.965zm4.965-32.171h3.965v4.476h-3.965zm4.965 4.208h3.965v9.203h-3.965zm4.965 13.311h3.965v2.85h-3.965zm4.965-9.002h3.965v5.465h-3.965zm4.965-3.89h3.965v3.571h-3.965zm4.965-3.302h3.965v3.101h-3.965zm4.965.754h3.965v8.181h-3.965zm4.965-.033h3.965v8.55h-3.965zm4.965-10.528h3.965v5.247h-3.965zm4.965 4.241h3.965v6.89h-3.965zm4.965 1.559h3.965v7.058h-3.965zm4.965 9.606h3.965v4.543h-3.965zm4.965-1.676h3.965v4.308h-3.965zm4.965.352h3.965v6.052h-3.965zm4.965 11.802h3.965v5.499h-3.965zm4.965-6.958h3.965v7.577h-3.965zm4.966-5.666h3.965v6.488h-3.965zm4.965-18.256h3.965v8.349h-3.965zm4.965-2.615h3.965v11.735h-3.965zm4.965-22.984h3.965v14.585h-3.965zm4.965 33.763h3.965v11.634h-3.965zm4.965 18.34h3.965v2.85h-3.965zm4.965 2.531h3.965v5.096h-3.965zm4.965 2.062h3.965v3.805h-3.965zm4.965-2.916h3.965v6.974h-3.965zm4.965-19.112h3.965v12.607h-3.965zm4.965 17.15h3.965v5.348h-3.965zm4.965 5.298h3.965v6.873h-3.965zm4.965 4.559h3.965v2.347h-3.965zm4.965 4.309h3.965v4.577h-3.965zm4.965-7.712h3.965v3.504h-3.965zm4.965-4.694h3.965v4.878h-3.965zm4.965 9.807h3.965v3.621h-3.965zm4.965-4.023h3.965v2.515h-3.965zm4.965 6.471h3.965v3.789h-3.965zm4.965.821h3.965v2.012h-3.965zm4.965-.385h3.965v2.347h-3.965zm4.965.687h3.965v3.37h-3.965zm4.965-2.38h3.965v2.179h-3.965zm4.965-21.777h3.965v4.677h-3.965zm4.965 20.922h3.965v.888h-3.965zm4.965-2.699h3.965v2.749h-3.965zm4.965-2.85h3.965v2.179h-3.965zm4.965-6.924h3.965v8.835h-3.965zm4.965 2.749h3.965v5.398h-3.965zm4.966 7.695h3.965v5.515h-3.965zm4.965-6.32h3.965v3.906h-3.965zm4.965-2.867h3.965v3.018h-3.965zm4.965-11.181h3.965v8.717h-3.965zm4.965 18.675h3.965v5.297h-3.965zm4.965 8.466h3.965v4.66h-3.965zm4.965-2.464h3.965v2.313h-3.965zm4.965 3.134h3.965v.101h-3.965zm4.965 3.085h3.965v2.297h-3.965zm4.965 2.23h3.965v1.157h-3.965zm4.965 6.705h3.965v2.297h-3.965zm4.965 6.002h3.965v.972h-3.965zm4.965-3.152h3.965v.587h-3.965zm4.965 2.263h3.965v1.542h-3.965zm4.965-6.286h3.965v2.045h-3.965zm4.965.268h3.965v.888h-3.965zm4.965 1.76h3.965v3.37h-3.965zm4.965 6.186h3.965v1.593h-3.965zm4.965-4.644h3.965v.134h-3.965zm4.965-1.726h3.965v1.006h-3.965zm4.965-2.9h3.965v2.548h-3.965zm4.965 4.979h3.965v.704h-3.965zm4.965-4.242h3.965v2.347h-3.965zm4.965 5.348h3.965v.335h-3.965zm4.965-3.671h3.965v.704h-3.965zm4.965 6.99h3.965v.419h-3.965zm4.965.084h3.965v.268h-3.965zm4.965-3.118h3.965v.05h-3.965zm4.966 1.945h3.965v.637h-3.965zm4.965-1.761h3.965v.386h-3.965zm4.965 3.068h3.965v1.274h-3.965zm4.965-.587h3.965v1.073h-3.965zm4.965-8.281h3.965v2.096h-3.965zm9.93 9.556h3.965v.151h-3.965zm4.965-2.968h3.965v1.157h-3.965zm4.965 1.274h3.965v.084h-3.965zm14.895-.134h3.965v.637h-3.965zm4.965 2.347h3.965v.05h-3.965z"/>
        <path fill="#91ccf0" d="M60.5 178.002h3.965v12.422H60.5zm4.965-2.615h3.965v13.311h-3.965zm4.965 17.971h3.965v15.373H70.43zm4.965-73.242h3.965v14.099h-3.965zm4.965-21.391h3.965v15.071H80.36zm4.965 62.044h3.965v10.98h-3.965zm4.965 39.462h3.965v10.058H90.29zm4.965 10.126h3.965v9.371h-3.965zm4.965 21.307h3.965v10.561h-3.965zm4.965-2.313h3.965v8.147h-3.965zm4.965 14.551h3.965v9.824h-3.965zm4.965-20.235h3.965v13.143h-3.965zm4.965 18.424h3.965v9.304h-3.965zm4.965 21.022h3.965v7.326h-3.965zm4.965-3.855h3.965v7.309h-3.965zm4.966 1.425h3.965v8.349h-3.965zm4.965-4.493h3.965v11.014h-3.965zm4.965 29.806h3.965v6.169h-3.965zm4.965-16.931h3.965v7.393h-3.965zm4.965 4.66h3.965v7.46h-3.965zm4.965-16.345h3.965v4.476h-3.965zm4.965-15.389h3.965v9.354h-3.965zm4.965 30.946h3.965v6.555h-3.965zm4.965-27.392h3.965v8.835h-3.965zm4.965 27.476h3.965v7.192h-3.965zm4.965 12.808h3.965v5.867h-3.965zm4.965 7.577h3.965v6.504h-3.965zm4.965 8.868h3.965v2.246h-3.965zm4.965-4.442h3.965v2.448h-3.965zm4.965 9.857h3.965v6.873h-3.965zm4.965 1.006h3.965v6.84h-3.965zm4.965-9.472h3.965v7.561h-3.965zm4.965 13.646h3.965v3.554h-3.965zm4.965-3.353h3.965v6.203h-3.965zm4.965 11.987h3.965v4.023h-3.965zm4.965 15.339h3.965v2.85h-3.965zm4.965 4.023h3.965v3.286h-3.965zm4.965-19.128h3.965v3.386h-3.965zm4.965-.184h3.965v3.42h-3.965zm4.965 23.503h3.965v3.722h-3.965zm4.965 2.699h3.965v2.9h-3.965zm4.965-4.744h3.965v2.213h-3.965zm4.965-11.919h3.965v5.532h-3.965zm4.966 14.433h3.965v2.531h-3.965zm4.965 8.584h3.965v3.051h-3.965zm4.965-19.966h3.965v4.141h-3.965zm4.965-4.057h3.965v4.359h-3.965zm4.965-4.795h3.965v3.453h-3.965zm4.965-11.248h3.965v5.23h-3.965zm4.965-11.484h3.965v6.454h-3.965zm4.965 19.061h3.965v4.359h-3.965zm4.965 9.79h3.965v2.565h-3.965zm4.965 9.941h3.965v2.515h-3.965zm4.965-1.576h3.965v3.118h-3.965zm4.965 49.438h3.965v.268h-3.965zm4.965-3.806h3.965v1.241h-3.965zm4.965-33.243h3.965v2.313h-3.965zm4.965 5.096h3.965v1.425h-3.965zm4.965 11.886h3.965v2.85h-3.965zm4.965-9.673h3.965v3.52h-3.965zm4.965-2.38h3.965v2.012h-3.965zm4.965-3.621h3.965v2.33h-3.965zm4.965-.302h3.965v3.386h-3.965zm4.965 1.391h3.965v1.961h-3.965zm4.965-10.695h3.965v2.129h-3.965zm4.965 2.498h3.965v3.872h-3.965zm4.965-1.559h3.965v6.991h-3.965zm4.965 12.405h3.965v4.191h-3.965zm4.965-.838h3.965v3.353h-3.965zm4.965-.704h3.965v4.409h-3.965zm4.965 12.12h3.965v4.09h-3.965zm4.965-6.94h3.965v4.074h-3.965zm4.966-6.136h3.965v4.543h-3.965zm4.965-16.261h3.965v2.548h-3.965zm4.965-5.197h3.965v5.13h-3.965zm4.965-24.526h3.965v6.672h-3.965zm4.965 36.462h3.965v3.973h-3.965zm4.965 21.341h3.965v.972h-3.965zm4.965 1.877h3.965v1.626h-3.965zm4.965 1.526h3.965v2.163h-3.965zm4.965-4.308h3.965v3.554h-3.965zm4.965-16.547h3.965v.989h-3.965zm4.965 15.071h3.965v3.068h-3.965zm4.965 5.482h3.965v2.883h-3.965zm4.965 5.096h3.965v2.347h-3.965zm4.965 4.879h3.965v1.777h-3.965zm4.965-7.36h3.965v1.425h-3.965zm4.965-4.476h3.965v1.207h-3.965zm4.965 9.489h3.965v1.526h-3.965zm4.965-4.644h3.965v2.146h-3.965zm4.965 8.432h3.965v.184h-3.965zm4.965-.167h3.965v1.173h-3.965zm4.965-.503h3.965v1.291h-3.965zm4.965.402h3.965v1.576h-3.965zm4.965-1.257h3.965v.453h-3.965zm4.965-23.168h3.965v1.844h-3.965zm4.965 21.609h3.965v1.157h-3.965zm4.965-2.917h3.965v1.375h-3.965zm4.965-2.314h3.965v.838h-3.965zm4.965-7.242h3.965v1.157h-3.965zm4.965.922h3.965v2.984h-3.965zm4.966 7.695h3.965v2.984h-3.965zm4.965-4.727h3.965v1.391h-3.965zm4.965-2.783h3.965v1.308h-3.965zm4.965-11.366h3.965v1.492h-3.965zm4.965 18.524h3.965v1.643h-3.965zm4.965 9.17h3.965v.939h-3.965zm4.965-2.582h3.965v1.056h-3.965zm4.965 4.091h3.965v.101h-3.965zm4.965 2.464h3.965v.721h-3.965zm4.965 2.783h3.965v.168h-3.965zm4.965 6.706h3.965v.168h-3.965zm4.965 5.867h3.965v.302h-3.965zm4.965-3.42h3.965v.57h-3.965zm4.965 2.716h3.965v.117h-3.965zm9.93-6.085h3.965v.184h-3.965zm4.965 1.14h3.965v.805h-3.965zm4.965 6.739h3.965v.251h-3.965zm4.965-4.46h3.965v.067h-3.965zm4.965-2.9h3.965v1.241h-3.965zm4.965-2.146h3.965v.486h-3.965zm9.93.487h3.965v.738h-3.965zm4.965 4.677h3.965v1.408h-3.965zm4.965-2.515h3.965v.251h-3.965zm4.965 6.421h3.965v.821h-3.965zm4.965.62h3.965v.285h-3.965zm4.965-6.404h3.965v3.571h-3.965zm4.966 4.325h3.965v1.19h-3.965zm4.965-.653h3.965v.084h-3.965zm4.965 2.699h3.965v.453h-3.965zm4.965-.218h3.965v.084h-3.965zm14.895.268h3.965v1.09h-3.965zm4.965-1.995h3.965v.117h-3.965zm9.93 3.47h3.965v.151h-3.965zm4.965.402h3.965v.017h-3.965zm4.965-3.704h3.965v1.09h-3.965zm4.965 3.336h3.965v.101h-3.965zm4.965 2.028h3.965v.084h-3.965z"/>
        <path fill="#aaf155" d="M60.5 134.969h3.965v12.623H60.5zm4.965.452h3.965v9.002h-3.965zm4.965 27.091h3.965v7.007H70.43zm4.965-80.417h3.965V92.74h-3.965zm4.965-20.938h3.965v10.964H80.36zm4.965 59.093h3.965v9.287h-3.965zm4.965 46.319h3.965v8.382H90.29zm4.965 8.198h3.965v9.991h-3.965zm4.965 24.66h3.965v8.969h-3.965zm4.965-3.588h3.965v8.801h-3.965zm4.965 24.979h3.965v6.102h-3.965zm4.965-26.521h3.965v6.823h-3.965zm4.965 20.268h3.965v7.678h-3.965zm4.965 25.598h3.965v5.197h-3.965zm4.965 1.509h3.965v5.918h-3.965zm4.966 2.297h3.965v6.035h-3.965zm4.965-11.182h3.965v5.733h-3.965zm4.965 32.17h3.965v7.661h-3.965zm4.965-15.909h3.965v4.845h-3.965zm4.965 9.623h3.965v3.487h-3.965zm4.965-15.809h3.965v3.286h-3.965zm4.965-19.446h3.965v6.504h-3.965zm4.965 25.196h3.965v4.007h-3.965zm4.965-16.361h3.965v5.566h-3.965zm4.965 27.292h3.965v4.074h-3.965zm4.965 11.902h3.965v5.063h-3.965zm4.965 10.058h3.965v2.967h-3.965zm4.965 5.231h3.965v3.42h-3.965zm4.965-5.515h3.965v4.493h-3.965zm4.965 15.741h3.965v4.023h-3.965zm4.965-2.934h3.965v3.487h-3.965zm4.965-8.415h3.965v3.085h-3.965zm4.965 5.901h3.965v6.169h-3.965zm4.965-4.057h3.965v11.232h-3.965zm4.965 14.383h3.965v4.09h-3.965zm4.965 17.2h3.965v4.61h-3.965zm4.965 13.395h3.965v1.727h-3.965zm4.965-19.648h3.965v2.867h-3.965zm4.965-1.995h3.965v2.364h-3.965zm4.965 25.482h3.965v3.588h-3.965zm4.965 4.694h3.965v2.38h-3.965zm4.965-3.973h3.965v1.375h-3.965zm4.965-14.133h3.965v1.643h-3.965zm4.966 8.416h3.965v2.246h-3.965zm4.965 10.142h3.965v3.269h-3.965zm4.965-19.513h3.965v3.671h-3.965zm4.965-7.36h3.965v5.264h-3.965zm4.965-3.554h3.965v3.872h-3.965zm4.965-10.477h3.965v4.526h-3.965zm4.965-14.719h3.965v3.889h-3.965zm4.965 19.849h3.965v3.755h-3.965zm4.965 14.232h3.965v4.862h-3.965zm4.965 13.965h3.965v2.565h-3.965zm4.965 1.006h3.965v2.096h-3.965zm4.965 52.622h3.965v.268h-3.965zm4.965-6.923h3.965v1.894h-3.965zm4.965-35.423h3.965v1.894h-3.965zm4.965 7.007h3.965v.419h-3.965zm4.965 12.574h3.965v1.358h-3.965zm4.965-13.378h3.965v1.358h-3.965zm4.965-.822h3.965v.805h-3.965zm4.965-1.441h3.965v.788h-3.965zm4.965-.386h3.965v1.358h-3.965zm4.965.436h3.965v.587h-3.965zm4.965-15.406h3.965v1.71h-3.965zm4.965 4.627h3.965v2.464h-3.965zm4.965-1.777h3.965v1.458h-3.965zm4.965 16.009h3.965v1.894h-3.965zm4.965.352h3.965v1.341h-3.965zm4.965-1.86h3.965v1.559h-3.965zm4.965 9.991h3.965v3.034h-3.965zm4.965-5.348h3.965v.821h-3.965zm4.966-10.159h3.965v3.303h-3.965zm4.965-14.752h3.965v2.598h-3.965zm4.965-3.638h3.965v1.073h-3.965zm4.965-31.315h3.965v2.984h-3.965zm4.965 42.446h3.965v1.995h-3.965zm4.965 19.933h3.965v.62h-3.965zm4.965 7.024h3.965v.587h-3.965zm4.965.855h3.965V367h-3.965zm4.965-5.381h3.965v.771h-3.965zm4.965-18.24h3.965v2.263h-3.965zm4.965 11.735h3.965v2.448h-3.965zm4.965 9.673h3.965v.771h-3.965zm4.965 5.951h3.965v1.526h-3.965zm4.965 4.745h3.965v1.559h-3.965zm4.965-4.778h3.965v.687h-3.965zm4.965-9.153h3.965v1.827h-3.965zm4.965 10.41h3.965v.469h-3.965zm4.965-2.8h3.965v.972h-3.965zm4.965 7.628h3.965v1.023h-3.965zm4.965 2.23h3.965v.117h-3.965zm4.965-1.274h3.965v.251h-3.965zm4.965-.252h3.965v1.224h-3.965zm4.965-.419h3.965v1.375h-3.965zm4.965-22.447h3.965v1.224h-3.965zm4.965 21.844h3.965v.285h-3.965zm4.965-4.51h3.965v.285h-3.965zm4.965-3.084h3.965v1.006h-3.965zm4.965-7.209h3.965v.469h-3.965zm4.965 1.827h3.965v.905h-3.965zm4.966 6.203h3.965v1.626h-3.965zm4.965-6.303h3.965v2.213h-3.965zm4.965.637h3.965v.956h-3.965zm4.965-11.635h3.965v.738h-3.965zm4.965 16.111h3.965v1.861h-3.965zm4.965 11.584h3.965v1.542h-3.965zm4.965-3.336h3.965v.285h-3.965zm4.965 8.432h3.965v.151h-3.965zm4.965 1.995h3.965v.302h-3.965zm4.965 2.012h3.965v.235h-3.965zm4.965 6.219h3.965v.017h-3.965zm4.965 7.695h3.965v.017h-3.965zm9.93-1.174h3.965v.017h-3.965zm4.965-6.32h3.965v.352h-3.965zm4.965-.922h3.965v.017h-3.965zm4.965 2.28h3.965v.05h-3.965zm4.965 4.694h3.965v.017h-3.965zm14.895-7.728h3.965v.52h-3.965zm4.965 5.968h3.965v.168h-3.965zm4.965-4.962h3.965v.067h-3.965zm4.965 4.727h3.965v.067h-3.965zm4.965-3.738h3.965v.302h-3.965zm4.965 7.158h3.965v.101h-3.965zm4.965.989h3.965v.117h-3.965zm4.965-7.711h3.965v.151h-3.965zm4.966 3.906h3.965v.721h-3.965zm4.965.704h3.965v.302h-3.965zm4.965 2.967h3.965v.017h-3.965zm4.965.101h3.965v.034h-3.965zm4.965-8.148h3.965v.034h-3.965zm14.895 5.901h3.965v.268h-3.965zm14.895 3.873h3.965v.034h-3.965zm4.965-4.292h3.965v.956h-3.965zm4.965 4.426h3.965v.084h-3.965zm4.965 1.508h3.965v.503h-3.965z"/>
        <path fill="#f0c097" d="M60.5 223.03h3.965v18.826H60.5zm4.965 2.515h3.965v13.696h-3.965zm4.965 12.674h3.965v13.16H70.43zm4.965-68.951h3.965v15.959h-3.965zm4.965-19.832h3.965v21.324H80.36zm4.965 60.016h3.965v13.763h-3.965zm4.965 27.861h3.965v15.272H90.29zm4.965 13.663h3.965v10.796h-3.965zm4.965 18.072h3.965v12.757h-3.965zm4.965-9.321h3.965v10.394h-3.965zm4.965 12.288h3.965v14.752h-3.965zm4.965-13.076h3.965v10.327h-3.965zm4.965 7.929h3.965v8.013h-3.965zm4.965 19.078h3.965v8.952h-3.965zm4.965-2.883h3.965v6.387h-3.965zm4.966 2.347h3.965v5.448h-3.965zm4.965.134h3.965v12.037h-3.965zm4.965 26.872h3.965v5.8h-3.965zm4.965-12.824h3.965v9.254h-3.965zm4.965 1.911h3.965v6.706h-3.965zm4.965-17.787h3.965v9.12h-3.965zm4.965-16.479h3.965v9.706h-3.965zm4.965 29.136h3.965v7.125h-3.965zm4.965-21.692h3.965v9.187h-3.965zm4.965 23.352h3.965v8.08h-3.965zm4.965 5.884h3.965v14.216h-3.965zm4.965 11.182h3.965v4.996h-3.965zm4.965 2.145h3.965v8.365h-3.965zm4.965-7.007h3.965v9.455h-3.965zm4.965 15.691h3.965v5.448h-3.965zm4.965.822h3.965v4.241h-3.965zm4.965-8.768h3.965v7.359h-3.965zm4.965 10.981h3.965v9.086h-3.965zm4.965-1.392h3.965v6.069h-3.965zm4.965 8.852h3.965v3.42h-3.965zm4.965 11.382h3.965v1.66h-3.965zm4.965 3.99h3.965v4.61h-3.965zm4.965-16.06h3.965v4.174h-3.965zm4.965-3.47h3.965v1.811h-3.965zm4.965 22.481h3.965v1.358h-3.965zm4.965-.352h3.965v3.219h-3.965zm4.965-.654h3.965v1.961h-3.965zm4.965-8.5h3.965v4.392h-3.965zm4.966 8.835h3.965v3.42h-3.965zm4.965 10.813h3.965v2.783h-3.965zm4.965-18.86h3.965v2.733h-3.965zm4.965-1.173h3.965v6.018h-3.965zm4.965-7.376h3.965v5.113h-3.965zm4.965-4.912h3.965v8.064h-3.965zm4.965-13.579h3.965v4.409h-3.965zm4.965 17.233h3.965v2.816h-3.965zm4.965 6.79h3.965v2.716h-3.965zm4.965 4.811h3.965v1.827h-3.965zm4.965-1.492h3.965v1.509h-3.965zm4.965 44.375h3.965v1.157h-3.965zm4.965-2.683h3.965v1.308h-3.965zm4.965-29.069h3.965v1.777h-3.965zm4.965 8.936h3.965v3.805h-3.965zm4.965 6.957h3.965v1.76h-3.965zm4.965-6.387h3.965v2.598h-3.965zm4.965-5.784h3.965v3.47h-3.965zm4.965-3.772h3.965v3.068h-3.965zm4.965 5.834h3.965v1.995h-3.965zm4.965.335h3.965v2.263h-3.965zm4.965-13.83h3.965v2.196h-3.965zm4.965 5.884h3.965v4.191h-3.965zm4.965 1.727h3.965v3.688h-3.965zm4.965 7.091h3.965v4.258h-3.965zm4.965-1.911h3.965v4.493h-3.965zm4.965 2.095h3.965v1.894h-3.965zm4.965 11.249h3.965v2.665h-3.965zm4.965-4.878h3.965v2.85h-3.965zm4.966-6.756h3.965v1.693h-3.965zm4.965-16.395h3.965v3.872h-3.965zm4.965.771h3.965v1.794h-3.965zm4.965-20.134h3.965v8.784h-3.965zm4.965 30.812h3.965v2.23h-3.965zm4.965 9.556h3.965v2.649h-3.965zm4.965 4.778h3.965v1.492h-3.965zm4.965.771h3.965v2.665h-3.965zm4.965.251h3.965v.637h-3.965zm4.965-13.478h3.965v2.364h-3.965zm4.965 9.891h3.965v2.129h-3.965zm4.965 6.823h3.965v4.325h-3.965zm4.965.033h3.965v2.246h-3.965zm4.965 6.538h3.965v1.643h-3.965zm4.965-8.784h3.965v1.224h-3.965zm4.965-3.319h3.965v2.112h-3.965zm4.965 8.549h3.965v1.09h-3.965zm4.965-5.129h3.965v2.246h-3.965zm4.965 7.745h3.965v2.431h-3.965zm4.965-.956h3.965v1.257h-3.965zm4.965-.05h3.965v2.129h-3.965zm4.965 1.71h3.965v1.559h-3.965zm4.965-3.571h3.965v.888h-3.965zm4.965-19.279h3.965v.754h-3.965zm4.965 17.133h3.965v.671h-3.965zm4.965-.838h3.965v1.66h-3.965zm4.965-3.42h3.965v1.593h-3.965zm4.965-.268h3.965v1.442h-3.965zm4.965-.688h3.965v1.023h-3.965zm4.966 7.813h3.965v1.609h-3.965zm4.965-7.93h3.965v1.861h-3.965zm4.965-3.755h3.965v.302h-3.965zm4.965-5.482h3.965v3.889h-3.965zm4.965 15.255h3.965v1.224h-3.965zm4.965 7.829h3.965v1.559h-3.965zm4.965-4.811h3.965v.604h-3.965zm9.93 6.203h3.965v.62h-3.965zm4.965 1.089h3.965v.536h-3.965zm14.895 8.986h3.965v.52h-3.965zm4.965 3.219h3.965v.201h-3.965zm4.965-5.784h3.965v1.492h-3.965zm4.965-.889h3.965v.888h-3.965zm4.965 4.242h3.965v.469h-3.965zm4.965 4.409h3.965v.05h-3.965zm4.965-6.102h3.965v1.324h-3.965zm4.965-.855h3.965v.905h-3.965zm4.965-1.358h3.965v.084h-3.965zm4.965 3.135h3.965v.52h-3.965zm4.965-2.599h3.965v.101h-3.965zm4.965 3.336h3.965v.017h-3.965zm4.965-3.302h3.965v.218h-3.965zm4.965 6.705h3.965v.067h-3.965zm4.965-.067h3.965v1.676h-3.965zm14.896-2.816h3.965v.905h-3.965zm4.965 3.956h3.965v.017h-3.965zm9.93-8.047h3.965v.268h-3.965zm4.965.99h3.965v.302h-3.965zm4.965 6.621h3.965v.268h-3.965zm9.93-1.76h3.965v1.542h-3.965zm4.965 2.146h3.965v.587h-3.965zm9.93-1.727h3.965v.319h-3.965zm4.965 1.76h3.965v.168h-3.965zm4.965 1.962h3.965v.754h-3.965z"/>
        <path fill="#16234f" d="M60.5 128.246h3.965v6.722H60.5zm4.965.587h3.965v6.588h-3.965zm4.965 29.388h3.965v4.292H70.43zm4.965-79.462h3.965v3.336h-3.965zM80.36 60h3.965v1.157H80.36zm4.965 56.378h3.965v3.872h-3.965zm4.965 46.084h3.965v4.107H90.29zm4.965 10.327h3.965v1.978h-3.965zm4.965 23.855h3.965v2.783h-3.965zm4.965-3.202h3.965v2.397h-3.965zm4.965 24.542h3.965v2.833h-3.965zm4.965-24.324h3.965v.637h-3.965zm4.965 18.641h3.965v2.263h-3.965zm4.965 25.683h3.965v2.179h-3.965zm4.965 1.509h3.965v2.179h-3.965zm4.966 4.224h3.965v.251h-3.965zm4.965-13.847h3.965v2.917h-3.965zm4.965 32.606h3.965v2.481h-3.965zm4.965-15.976h3.965v2.548h-3.965zm4.965 9.204h3.965v2.967h-3.965zm4.965-13.764h3.965v.922h-3.965zm4.965-20.737h3.965v2.213h-3.965zm4.965 27.175h3.965v.235h-3.965zm4.965-16.714h3.965v.587h-3.965zm4.965 26.487h3.965v1.391h-3.965zm4.965 11.45h3.965v1.844h-3.965zm4.965 11.014h3.965v.888h-3.965zm4.965 5.314h3.965v.805h-3.965zm4.965-7.611h3.965v2.9h-3.965zm4.965 16.798h3.965v1.844h-3.965zm4.965-1.559h3.965v.469h-3.965zm4.965-8.801h3.965v.855h-3.965zm4.965 5.901h3.965v.855h-3.965zm4.965-4.124h3.965v.922h-3.965zm4.965 14.719h3.965v.587h-3.965zm4.965 17.669h3.965v.117h-3.965zm4.965 12.523h3.965v.989h-3.965zm4.965-19.363h3.965v.704h-3.965zm4.965-2.665h3.965v1.375h-3.965zm4.965 25.917h3.965v.939h-3.965zm4.965 3.822h3.965v1.811h-3.965zm4.965-3.168h3.965v1.006h-3.965zm4.965-14.082h3.965v.956h-3.965zm4.966 8.164h3.965v1.207h-3.965zm4.965 9.287h3.965v2.062h-3.965zm4.965-17.853h3.965v.402h-3.965zm4.965-9.472h3.965v2.515h-3.965zm4.965-1.308h3.965v.268h-3.965zm4.965-11.919h3.965v1.71h-3.965zm4.965-13.864h3.965v.855h-3.965zm4.965 18.826h3.965v1.878h-3.965zm4.965 14.032h3.965v2.079h-3.965zm4.965 15.741h3.965v.302h-3.965zm4.965-7.695h3.965v9.002h-3.965zm4.965 59.245h3.965v2.38h-3.965zm4.965-4.845h3.965v.302h-3.965zm4.965-37.837h3.965v2.716h-3.965zm4.965 8.114h3.965v1.609h-3.965zm4.965 13.998h3.965v.184h-3.965zm4.965-13.998h3.965v.805h-3.965zm4.965-.033h3.965v.017h-3.965zm4.965-3.839h3.965v2.414h-3.965zm4.965.788h3.965v1.241h-3.965zm4.965.821h3.965v.855h-3.965zm4.965-15.071h3.965v.52h-3.965zm4.965 4.862h3.965v.285h-3.965zm4.965-1.509h3.965v.017h-3.965zm4.965 15.909h3.965v.117h-3.965zm4.965-.017h3.965v.486h-3.965zm4.965-1.944h3.965v.57h-3.965zm4.965 9.924h3.965v.637h-3.965zm4.965-4.845h3.965v.134h-3.965zm4.966-10.209h3.965v.184h-3.965zm4.965-16.915h3.965v2.347h-3.965zm4.965-1.442h3.965v.151h-3.965zm4.965-31.617h3.965v.453h-3.965zm4.965 41.961h3.965v.939h-3.965zm4.965 20.301h3.965v.57h-3.965zm4.965 6.94h3.965v.654h-3.965zm4.965-.201h3.965v1.71h-3.965zm4.965-4.442h3.965v.771h-3.965zm4.965-18.424h3.965v.956h-3.965zm4.965 10.997h3.965v1.693h-3.965zm4.965 11.098h3.965v.268h-3.965zm4.965 5.985h3.965v.235h-3.965zm4.965 4.627h3.965v.352h-3.965zm4.965-5.13h3.965v.704h-3.965zm4.965-9.254h3.965v.805h-3.965zm4.965 11.064h3.965v.151h-3.965zm4.965-2.783h3.965v.134h-3.965zm4.965 7.695h3.965v.067h-3.965zm4.965 2.28h3.965v.017h-3.965zm4.965-1.442h3.965v.184h-3.965zm4.965-.603h3.965v.536h-3.965zm4.965-.201h3.965v.319h-3.965zm4.965-22.414h3.965v.285h-3.965zm4.965 22.028h3.965v.101h-3.965zm4.965-4.543h3.965v.134h-3.965zm4.965-3.001h3.965v.05h-3.965zm4.965-7.477h3.965v.319h-3.965zm4.965 1.962h3.965v.184h-3.965zm4.966 6.219h3.965v.168h-3.965zm4.965-6.387h3.965v.251h-3.965zm4.965.805h3.965v.084h-3.965zm4.965-11.735h3.965v.184h-3.965zm4.965 15.775h3.965v.52h-3.965zm4.965 11.953h3.965v.151h-3.965zm4.965-3.705h3.965v.52h-3.965zm9.93 10.93h3.965v.017h-3.965zm4.965 1.777h3.965v.251h-3.965zm4.965 5.985h3.965v.486h-3.965zm14.895 6.957h3.965v.05h-3.965zm4.965-7.577h3.965v1.308h-3.965zm4.965.368h3.965v.017h-3.965zm19.86 1.207h3.965v.017h-3.965zm14.895-1.056h3.965v.117h-3.965zm4.965 4.828h3.965v.017h-3.965zm19.86-4.459h3.965v1.173h-3.965zm4.966 4.342h3.965v.738h-3.965zm4.965.771h3.965v.671h-3.965zm4.965 3.588h3.965v.05h-3.965zm19.86-.218h3.965v.017h-3.965zm29.79 1.894h3.965v.235h-3.965z"/>
        <path fill="#17234f" d="M164.766 276.944h3.965v.168h-3.965zm4.965 26.554h3.965v.436h-3.965zm4.965-19.631h3.965v.587h-3.965zm4.965 22.246h3.965v.436h-3.965zm4.965 12.02h3.965v.268h-3.965zm4.965 1.961h3.965v.201h-3.965zm4.965 5.516h3.965v.034h-3.965zm4.965-5.918h3.965v.084h-3.965zm4.965 11.685h3.965v.117h-3.965zm4.965-.386h3.965v.386h-3.965zm9.93 7.058h3.965v.017h-3.965zm4.965-4.409h3.965v.436h-3.965zm4.965 6.202h3.965v.134h-3.965zm4.965 9.623h3.965v.101h-3.965zm4.965 6.94h3.965v.754h-3.965zm4.965-16.496h3.965v1.341h-3.965zm4.965-5.833h3.965v.184h-3.965zm9.93 23.536h3.965v.067h-3.965zm9.93-7.979h3.965v.067h-3.965zm9.931 18.038h3.965v.101h-3.965zm4.965-18.91h3.965v.034h-3.965zm4.965 2.112h3.965v.285h-3.965zm4.965-8.281h3.965v.017h-3.965zm4.965-1.962h3.965v.05h-3.965zm4.965-17.233h3.965v.05h-3.965zm9.93 22.33h3.965v.05h-3.965zm4.965 3.922h3.965v.251h-3.965zm14.895 39.681h3.965v.05h-3.965zm9.93-17.636h3.965v.017h-3.965zm9.93-.637h3.965v.05h-3.965zm9.93-9.086h3.965v.034h-3.965zm9.93 5.364h3.965v.034h-3.965zm4.965-13.897h3.965v.017h-3.965zm9.93 9.103h3.965v.134h-3.965zm14.895 5.482h3.965v.034h-3.965zm4.965 12.02h3.965v.184h-3.965zm9.931-12.607h3.965v.05h-3.965zm4.965-14.216h3.965v.017h-3.965zm4.965-1.307h3.965v.134h-3.965zm9.93 11.114h3.965v.034h-3.965zm9.93 13.596h3.965v.034h-3.965zm9.93.167h3.965v.134h-3.965zm9.93-2.095h3.965v.034h-3.965zm9.93 6.974h3.965v.084h-3.965zm34.755 3.654h3.965v.05h-3.965zm49.651-1.106h3.965v.05h-3.965zm9.93-12.992h3.965v.168h-3.965zm4.965-1.895h3.965v.034h-3.965zm4.965 12.59h3.965v.235h-3.965zm9.93 2.397h3.965v2.749h-3.965zm4.965.319h3.965v10.98h-3.965zm4.965 5.901h3.965v9.773h-3.965zm4.965 1.006h3.965v7.007h-3.965zm4.965 7.309h3.965v3.42h-3.965zm4.965 4.677h3.965v1.626h-3.965zm4.965-3.017h3.965v1.743h-3.965zm4.965 2.9h3.965v1.391h-3.965zm4.965-4.493h3.965v.067h-3.965zm4.965-1.492h3.965v.855h-3.965zm4.965 3.822h3.965v2.012h-3.965zm4.965 3.99h3.965v.386h-3.965zm4.965-4.828h3.965v1.308h-3.965zm4.965-1.274h3.965v.469h-3.965zm4.965-2.179h3.965v2.515h-3.965zm4.965 3.57h3.965v.872h-3.965zm4.965-3.017h3.965v.738h-3.965zm4.965 3.252h3.965v.821h-3.965zm4.965-3.101h3.965v1.475h-3.965zm4.965 6.554h3.965v.352h-3.965zm4.965 1.543h3.965v1.308h-3.965zm4.965-5.013h3.965v1.727h-3.965zm4.966 2.532h3.965v1.09h-3.965zm4.965-1.107h3.965v.553h-3.965zm4.965 3.068h3.965v1.643h-3.965zm4.965-.805h3.965v.117h-3.965zm4.965-6.99h3.965v3.588h-3.965zm4.965 1.022h3.965v8.332h-3.965zm4.965 6.589h3.965v2.163h-3.965zm4.965-2.23h3.965v1.106h-3.965zm4.965 1.743h3.965v.352h-3.965zm4.965 1.191h3.965v.771h-3.965zm4.965-.319h3.965v1.71h-3.965zm4.965-1.676h3.965v1.19h-3.965zm4.965 1.609h3.965v3.219h-3.965zm4.965 2.548h3.965v.888h-3.965z"/>
    </g>
    <path stroke="currentColor" d="M60 410h710" aria-label="rule"/>
    <svg xmlns="http://www.w3.org/2000/svg" viewBox="0 0 830 564">
        <g aria-label="■ Custom Colour/Modded Campaigns ■ Survivor ■ Monk ■ Hunter ■ Gourmand ■ Artificer ■ Rivulet ■ Spearmaster ■ Saint ■ ⏿" style="shape-padding:2.00159">
            <path fill="#00000f" d="M55.012 483.999v-7.744h7.75v7.744z"/>
            <path fill="#1e90ff" d="M77.438 483.167q-.489.26-1.003.388-.514.133-1.092.133-1.822 0-2.83-1.289-1.004-1.288-1.004-3.624 0-2.323 1.01-3.618 1.015-1.302 2.824-1.302.578 0 1.092.134.514.127 1.003.387v1.314q-.47-.387-1.01-.59-.539-.204-1.085-.204-1.25 0-1.872.965t-.622 2.914q0 1.942.622 2.907t1.872.965q.559 0 1.092-.203.54-.203 1.003-.59zm2.253-2.354v-4.406h1.168v4.406q0 .958.337 1.409.343.45 1.054.45.825 0 1.263-.577.438-.584.438-1.67v-4.018h1.174v7.097h-1.174v-1.067q-.311.616-.85.934-.534.317-1.251.317-1.092 0-1.625-.711-.534-.717-.534-2.165m12.766-4.17v1.142q-.502-.292-1.01-.438t-1.034-.146q-.794 0-1.187.26-.388.254-.388.78 0 .477.292.712t1.454.457l.47.089q.87.165 1.314.66.45.495.45 1.288 0 1.054-.749 1.65-.749.591-2.082.591-.527 0-1.104-.114-.578-.108-1.25-.33v-1.206q.653.336 1.25.507.596.165 1.13.165.774 0 1.2-.31.425-.318.425-.883 0-.812-1.555-1.123l-.051-.013-.438-.089q-1.01-.197-1.473-.66-.463-.47-.463-1.276 0-1.022.692-1.574.692-.559 1.974-.559.571 0 1.098.108.527.102 1.035.311m5.547-2.267v2.019h2.654v.907h-2.654v3.86q0 .787.299 1.098.298.31 1.04.31h1.315v.934h-1.429q-1.313 0-1.853-.527t-.54-1.815v-3.86h-1.898v-.907h1.898v-2.019zm7.84 2.837q-.889 0-1.346.692t-.457 2.05q0 1.353.457 2.05.457.693 1.346.693.895 0 1.352-.692.457-.698.457-2.05 0-1.359-.457-2.05-.457-.693-1.352-.693m0-.99q1.479 0 2.26.959.787.958.787 2.774 0 1.821-.781 2.78-.78.952-2.266.952-1.48 0-2.26-.952-.78-.959-.78-2.78 0-1.816.78-2.774.78-.959 2.26-.959m8.207.895q.216-.457.546-.673.337-.222.806-.222.857 0 1.206.667.356.66.356 2.494v4.12h-1.067v-4.069q0-1.504-.171-1.866-.165-.368-.61-.368-.507 0-.698.393-.184.387-.184 1.841v4.069h-1.066v-4.069q0-1.523-.184-1.879-.178-.355-.648-.355-.463 0-.647.393-.178.387-.178 1.841v4.069h-1.06v-7.11h1.06v.61q.21-.381.52-.578.318-.203.718-.203.482 0 .8.222.324.222.501.673m18.174 6.05q-.49.26-1.003.387-.514.133-1.092.133-1.822 0-2.831-1.289-1.003-1.288-1.003-3.624 0-2.323 1.01-3.618 1.015-1.302 2.824-1.302.578 0 1.092.134.514.127 1.003.387v1.314q-.47-.387-1.01-.59-.54-.204-1.085-.204-1.25 0-1.873.965-.622.965-.622 2.914 0 1.942.622 2.907t1.873.965q.558 0 1.092-.203.54-.203 1.003-.59zm4.925-5.955q-.888 0-1.345.692t-.457 2.05q0 1.353.457 2.05.457.693 1.345.693.895 0 1.352-.692.457-.698.457-2.05 0-1.359-.457-2.05-.457-.693-1.352-.693m0-.99q1.48 0 2.26.959.787.958.787 2.774 0 1.821-.78 2.78-.781.952-2.267.952-1.479 0-2.26-.952-.78-.959-.78-2.78 0-1.816.78-2.774.781-.959 2.26-.959m7.973 4.704q0 .787.286 1.187.292.4.857.4h1.364v.99h-1.479q-1.047 0-1.625-.673-.57-.673-.57-1.904v-6.456h-1.873v-.914h3.04zm7.68-3.714q-.888 0-1.345.692t-.457 2.05q0 1.353.457 2.05.457.693 1.346.693.895 0 1.352-.692.457-.698.457-2.05 0-1.359-.457-2.05-.457-.693-1.352-.693m0-.99q1.48 0 2.26.959.788.958.788 2.774 0 1.821-.781 2.78-.78.952-2.266.952-1.48 0-2.26-.952-.78-.959-.78-2.78 0-1.816.78-2.774.78-.959 2.26-.959m5.155 4.59v-4.406h1.168v4.405q0 .959.336 1.41.343.45 1.054.45.825 0 1.263-.577.438-.584.438-1.67v-4.018h1.175v7.097h-1.175v-1.067q-.31.616-.85.934-.533.317-1.25.317-1.093 0-1.626-.711-.533-.717-.533-2.165m13.92-2.952q-.374-.292-.761-.425t-.85-.134q-1.093 0-1.67.686-.578.685-.578 1.98v3.536h-1.174v-7.11h1.174v1.39q.292-.755.895-1.155.61-.406 1.441-.406.432 0 .806.108t.717.336zm6.139-3.834h1.206l-4.99 10.683h-1.212zm2.73 0h1.713l1.638 4.824 1.65-4.824h1.72v9.477h-1.187v-8.373l-1.688 4.996h-.971l-1.695-4.996v8.373h-1.18zm11.19 3.186q-.889 0-1.346.692t-.457 2.05q0 1.353.457 2.05.457.693 1.346.693.895 0 1.352-.692.457-.698.457-2.05 0-1.359-.457-2.05-.457-.693-1.352-.693m0-.99q1.479 0 2.26.959.787.958.787 2.774 0 1.821-.78 2.78-.782.952-2.267.952-1.479 0-2.26-.952-.78-.959-.78-2.78 0-1.816.78-2.774.781-.959 2.26-.959m9.363 1.08v-3.676h1.168v9.877h-1.17v-.895q-.292.527-.781.806-.482.273-1.117.273-1.289 0-2.031-.997-.737-1.003-.737-2.76 0-1.734.743-2.718.743-.99 2.025-.99.641 0 1.13.28.489.272.768.8m-3.434 2.653q0 1.358.431 2.05.432.692 1.276.692t1.282-.698q.445-.699.445-2.044 0-1.352-.445-2.044-.438-.699-1.282-.699t-1.276.692-.431 2.05m11.26-2.654v-3.675h1.168v9.877h-1.168v-.895q-.292.527-.78.806-.483.273-1.117.273-1.29 0-2.032-.997-.736-1.003-.736-2.76 0-1.734.743-2.718.742-.99 2.025-.99.64 0 1.13.28.488.272.767.8m-3.434 2.654q0 1.358.432 2.05t1.276.692 1.282-.698q.444-.699.444-2.044 0-1.352-.444-2.044-.438-.699-1.282-.699t-1.276.692-.432 2.05m12.873-.299v.572h-5.059v.038q0 1.161.603 1.796.61.635 1.714.635.559 0 1.168-.178.61-.178 1.301-.54v1.162q-.666.273-1.288.406-.616.14-1.193.14-1.657 0-2.59-.99-.933-.997-.933-2.742 0-1.702.914-2.717t2.437-1.016q1.359 0 2.14.92.786.921.786 2.514m-1.168-.343q-.025-1.028-.488-1.561-.457-.54-1.32-.54-.845 0-1.39.559-.547.559-.648 1.549zm7.383-2.012v-3.675h1.168v9.877h-1.168v-.895q-.292.527-.781.806-.482.273-1.117.273-1.289 0-2.031-.997-.737-1.003-.737-2.76 0-1.734.743-2.718.743-.99 2.025-.99.641 0 1.13.28.488.272.768.8m-3.434 2.654q0 1.358.431 2.05.432.692 1.276.692t1.282-.698q.445-.699.445-2.044 0-1.352-.445-2.044-.438-.699-1.282-.699t-1.276.692-.431 2.05m20.452 3.211q-.489.26-1.003.388-.514.133-1.092.133-1.822 0-2.83-1.289-1.004-1.288-1.004-3.624 0-2.323 1.01-3.618 1.015-1.302 2.824-1.302.578 0 1.092.134.514.127 1.003.387v1.314q-.47-.387-1.01-.59-.539-.204-1.085-.204-1.25 0-1.872.965t-.622 2.914q0 1.942.622 2.907t1.872.965q.559 0 1.092-.203.54-.203 1.003-.59zm5.472-3.237h-.388q-1.022 0-1.542.362-.514.355-.514 1.066 0 .642.387.997t1.073.355q.964 0 1.517-.666.552-.673.558-1.854v-.26zm2.266-.482v4.056h-1.175v-1.054q-.374.635-.945.94-.565.298-1.378.298-1.085 0-1.733-.61-.647-.615-.647-1.643 0-1.187.793-1.803.8-.616 2.342-.616h1.568v-.184q-.006-.85-.431-1.231-.426-.388-1.359-.388-.596 0-1.206.172t-1.187.501v-1.168q.648-.247 1.238-.368.597-.127 1.155-.127.883 0 1.505.26.628.26 1.015.781.242.318.343.787.102.464.102 1.397m5.395-2.33q.216-.457.546-.673.336-.222.806-.222.857 0 1.206.667.356.66.356 2.494v4.12h-1.067v-4.069q0-1.504-.171-1.866-.165-.368-.61-.368-.507 0-.698.393-.184.387-.184 1.841v4.069h-1.066v-4.069q0-1.523-.184-1.879-.178-.355-.648-.355-.463 0-.647.393-.178.387-.178 1.841v4.069h-1.06v-7.11h1.06v.61q.21-.381.52-.578.318-.203.718-.203.482 0 .8.222.323.222.501.673m5.916 5.49v3.6h-1.174v-9.813h1.174v.907q.292-.527.775-.8.488-.279 1.123-.279 1.289 0 2.019.997.736.996.736 2.761 0 1.733-.736 2.723-.737.984-2.019.984-.647 0-1.136-.273-.483-.28-.762-.806m3.428-2.652q0-1.359-.432-2.05-.425-.693-1.27-.693-.85 0-1.288.699-.438.692-.438 2.044 0 1.345.438 2.044.438.698 1.289.698.844 0 1.27-.692.43-.692.43-2.05m6.475-.026h-.388q-1.022 0-1.542.362-.514.355-.514 1.066 0 .641.387.997t1.073.355q.964 0 1.517-.666.552-.673.558-1.854v-.26zm2.266-.482v4.056h-1.175v-1.054q-.374.635-.945.94-.565.298-1.378.298-1.085 0-1.733-.61-.647-.615-.647-1.643 0-1.187.793-1.803.8-.616 2.342-.616h1.568v-.184q-.006-.85-.431-1.231-.426-.388-1.359-.388-.596 0-1.206.172t-1.187.501v-1.168q.648-.247 1.238-.368.597-.127 1.155-.127.883 0 1.505.26.628.26 1.015.781.241.318.343.787.102.464.102 1.397m2.73-3.053h2.989v6.201h2.317v.908h-5.802v-.908h2.317v-5.294h-1.822zm1.82-2.768h1.169v1.479h-1.168zm9.827 6.265q0-1.314-.432-1.993-.425-.686-1.244-.686-.857 0-1.307.686-.451.68-.451 1.993t.45 2.006q.458.685 1.321.685.806 0 1.231-.691.432-.692.432-2m1.168 3.155q0 1.6-.755 2.425-.756.825-2.222.825-.482 0-1.01-.089-.526-.089-1.053-.26v-1.156q.622.292 1.13.432t.933.14q.946 0 1.377-.514t.432-1.632v-.844q-.28.597-.762.889t-1.174.292q-1.244 0-1.987-.997-.742-.997-.742-2.666 0-1.676.742-2.672.743-.997 1.987-.997.686 0 1.162.273t.774.844v-.92h1.168zm7.884-3.948v4.405h-1.174v-4.405q0-.959-.337-1.41-.336-.45-1.054-.45-.818 0-1.263.584-.438.577-.438 1.663v4.018h-1.168v-7.11h1.168v1.067q.311-.61.844-.92.534-.318 1.264-.318 1.085 0 1.618.717.54.711.54 2.159m7.331-2.457v1.143q-.501-.292-1.009-.438t-1.035-.146q-.793 0-1.187.26-.387.254-.387.78 0 .477.292.712t1.454.457l.47.089q.87.165 1.314.66.45.495.45 1.288 0 1.054-.749 1.65-.749.591-2.082.591-.527 0-1.104-.114-.578-.108-1.25-.33v-1.206q.653.336 1.25.507.596.165 1.13.165.774 0 1.2-.31.425-.318.425-.883 0-.812-1.556-1.123l-.05-.013-.438-.089q-1.01-.197-1.473-.66-.463-.47-.463-1.276 0-1.022.691-1.574.692-.559 1.975-.559.57 0 1.098.108.527.102 1.034.311"/>
            <path fill="#fff" d="M313.292 483.999v-7.744h7.75v7.744z"/>
            <path fill="#1e90ff" d="M335.33 474.35v1.302q-.583-.375-1.174-.565-.584-.19-1.18-.19-.908 0-1.435.425-.527.419-.527 1.136 0 .628.343.958.349.33 1.295.553l.673.152q1.333.311 1.942.978.61.666.61 1.815 0 1.352-.838 2.063t-2.438.711q-.666 0-1.34-.146-.672-.14-1.351-.425v-1.365q.73.463 1.377.68.654.215 1.314.215.971 0 1.51-.432.54-.438.54-1.218 0-.711-.374-1.086-.368-.374-1.289-.578l-.685-.158q-1.32-.299-1.917-.902t-.597-1.618q0-1.27.85-2.031.858-.769 2.273-.769.546 0 1.149.127.603.121 1.27.369m2.641 6.462v-4.405h1.168v4.406q0 .958.337 1.409.342.45 1.053.45.825 0 1.263-.577.438-.584.438-1.67v-4.018h1.175v7.097h-1.175v-1.067q-.31.616-.85.934-.533.317-1.25.317-1.092 0-1.626-.711-.533-.717-.533-2.165m13.92-2.951q-.374-.292-.761-.425-.387-.134-.85-.134-1.092 0-1.67.686-.578.685-.578 1.98v3.536h-1.174v-7.11h1.174v1.39q.292-.755.895-1.155.61-.406 1.441-.406.432 0 .806.108t.718.336zm1.13-1.466h1.213l2.063 5.966 2.07-5.966h1.212l-2.527 7.109h-1.504zm8.817 0h2.99v6.201h2.317v.908h-5.802v-.908h2.317v-5.294h-1.822zm1.822-2.768h1.168v1.479h-1.168zm5.015 2.768h1.212l2.063 5.966 2.07-5.966h1.212l-2.526 7.109H371.2zm11.102.818q-.889 0-1.346.692t-.457 2.05q0 1.353.457 2.05.457.693 1.346.693.895 0 1.352-.692.457-.698.457-2.05 0-1.359-.457-2.05-.457-.693-1.352-.693m0-.99q1.479 0 2.26.959.787.958.787 2.774 0 1.821-.781 2.78-.78.952-2.266.952-1.48 0-2.26-.952-.78-.959-.78-2.78 0-1.816.78-2.774t2.26-.959m11.248 1.638q-.375-.292-.762-.425-.387-.134-.85-.134-1.092 0-1.67.686-.577.685-.577 1.98v3.536h-1.175v-7.11h1.175v1.39q.292-.755.895-1.155.609-.406 1.44-.406.432 0 .807.108t.717.336z"/>
            <path fill="#ffff73" d="M399.385 483.999v-7.744h7.75v7.744z"/>
            <path fill="#1e90ff" d="M415.546 474.027h1.714l1.637 4.824 1.65-4.824h1.721v9.477h-1.187v-8.373l-1.688 4.996h-.972l-1.694-4.996v8.373h-1.181zm11.19 3.186q-.888 0-1.345.692t-.457 2.05q0 1.353.457 2.05.457.693 1.346.693.895 0 1.352-.692.457-.698.457-2.05 0-1.359-.457-2.05-.457-.693-1.352-.693m0-.99q1.48 0 2.26.959.788.958.788 2.774 0 1.821-.781 2.78-.78.952-2.266.952-1.48 0-2.26-.952-.78-.959-.78-2.78 0-1.816.78-2.774t2.26-.959m10.589 2.876v4.405h-1.175v-4.405q0-.959-.336-1.41t-1.054-.45q-.819 0-1.263.584-.438.577-.438 1.663v4.018h-1.168v-7.11h1.168v1.067q.311-.61.844-.92.534-.318 1.263-.318 1.086 0 1.62.717.539.711.539 2.159m2.653-5.472h1.206v5.72l3.066-2.952h1.422l-2.8 2.678 3.238 4.43h-1.428l-2.628-3.668-.87.819v2.85h-1.206z"/>
            <path fill="#ff7373" d="M454.171 483.999v-7.744h7.75v7.744z"/>
            <path fill="#1e90ff" d="M470.656 474.027h1.289v3.885h3.51v-3.885h1.289v9.477h-1.289v-4.513h-3.51v4.513h-1.289zm8.195 6.786v-4.406h1.168v4.406q0 .958.336 1.409.343.45 1.054.45.825 0 1.263-.577.438-.584.438-1.67v-4.018h1.175v7.097h-1.175v-1.067q-.31.616-.85.934-.533.317-1.25.317-1.093 0-1.626-.711-.533-.717-.533-2.165m13.26-1.714v4.405h-1.174v-4.405q0-.959-.336-1.41-.337-.45-1.054-.45-.819 0-1.263.584-.438.577-.438 1.663v4.018h-1.168v-7.11h1.168v1.067q.31-.61.844-.92.533-.318 1.263-.318 1.086 0 1.619.717.54.711.54 2.159m5.053-4.723v2.019h2.653v.907h-2.653v3.86q0 .787.298 1.098.299.31 1.041.31h1.314v.934h-1.428q-1.314 0-1.853-.527-.54-.527-.54-1.815v-3.86h-1.898v-.907h1.898v-2.019zm10.988 5.281v.572h-5.06v.038q0 1.161.604 1.796.61.635 1.714.635.558 0 1.168-.178t1.3-.54v1.162q-.666.273-1.288.406-.615.14-1.193.14-1.657 0-2.59-.99-.933-.997-.933-2.742 0-1.702.914-2.717t2.438-1.016q1.358 0 2.139.92.787.921.787 2.514m-1.168-.343q-.026-1.028-.489-1.561-.457-.54-1.32-.54-.844 0-1.39.559t-.648 1.549zm9.267-1.453q-.374-.292-.761-.425-.387-.134-.85-.134-1.093 0-1.67.686-.578.685-.578 1.98v3.536h-1.174v-7.11h1.174v1.39q.292-.755.895-1.155.61-.406 1.441-.406.432 0 .806.108t.717.336z"/>
            <path fill="#17234f" d="M524.611 483.999v-7.744h7.75v7.744z"/>
            <path fill="#1e90ff" d="M626.505 482.723q-.514.476-1.161.724-.641.241-1.39.241-1.803 0-2.806-1.289-1.003-1.295-1.003-3.624 0-2.323 1.016-3.618 1.015-1.302 2.824-1.302.597 0 1.143.172.546.165 1.054.508v1.314q-.515-.49-1.054-.718-.54-.235-1.143-.235-1.25 0-1.879.972-.622.965-.622 2.907 0 1.974.603 2.926.61.946 1.867.946.425 0 .742-.095.324-.102.584-.311v-2.546h-1.377v-1.053h2.602zm4.73-5.51q-.89 0-1.346.692t-.457 2.05q0 1.353.457 2.05.457.693 1.345.693.895 0 1.352-.692.457-.698.457-2.05 0-1.359-.457-2.05-.457-.693-1.352-.693m0-.99q1.478 0 2.26.959.786.958.786 2.774 0 1.821-.78 2.78-.781.952-2.267.952-1.479 0-2.26-.952-.78-.959-.78-2.78 0-1.816.78-2.774t2.26-.959m5.154 4.59v-4.406h1.168v4.406q0 .958.336 1.409.343.45 1.054.45.825 0 1.263-.577.438-.584.438-1.67v-4.018h1.174v7.097h-1.174v-1.067q-.311.616-.85.934-.534.317-1.251.317-1.092 0-1.625-.71-.533-.718-.533-2.165m13.92-2.952q-.374-.292-.762-.425-.387-.134-.85-.134-1.092 0-1.67.686-.577.685-.577 1.98v3.536h-1.175v-7.11h1.175v1.39q.292-.755.895-1.155.61-.406 1.44-.406.432 0 .807.108t.717.336zm4.786-.743q.216-.457.546-.673.337-.222.806-.222.857 0 1.206.667.356.66.356 2.494v4.12h-1.067v-4.069q0-1.504-.171-1.866-.165-.368-.61-.368-.507 0-.698.393-.184.387-.184 1.841v4.069h-1.066v-4.069q0-1.523-.184-1.879-.178-.355-.648-.355-.463 0-.647.393-.178.387-.178 1.841v4.069h-1.06v-7.11h1.06v.61q.21-.381.52-.578.318-.203.718-.203.482 0 .8.222.323.222.501.673m7.992 2.812h-.387q-1.022 0-1.543.362-.514.355-.514 1.066 0 .642.387.997t1.073.355q.965 0 1.517-.666.552-.673.559-1.854v-.26zm2.266-.482v4.056h-1.174v-1.054q-.375.635-.946.94-.565.298-1.378.298-1.085 0-1.732-.61-.648-.615-.648-1.643 0-1.187.794-1.803.8-.616 2.342-.616h1.568v-.184q-.006-.85-.432-1.231-.425-.388-1.358-.388-.597 0-1.206.172-.61.171-1.187.501v-1.168q.647-.247 1.237-.368.597-.127 1.156-.127.882 0 1.504.26.628.26 1.016.781.24.318.342.787.102.464.102 1.397m7.776-.35v4.406h-1.174v-4.405q0-.959-.337-1.41-.336-.45-1.054-.45-.818 0-1.263.584-.438.577-.438 1.663v4.018h-1.168v-7.11h1.168v1.067q.311-.61.845-.92.533-.318 1.263-.318 1.085 0 1.618.717.54.711.54 2.159m6.601-1.796v-3.675h1.168v9.877h-1.168v-.895q-.292.527-.78.806-.483.273-1.118.273-1.288 0-2.03-.997-.737-1.003-.737-2.76 0-1.734.743-2.718.742-.99 2.024-.99.642 0 1.13.28.49.272.768.8m-3.434 2.654q0 1.358.432 2.05t1.276.692 1.282-.698q.444-.699.444-2.044 0-1.352-.444-2.044-.438-.699-1.282-.699t-1.276.692-.432 2.05"/>
            <path fill="#70223b" d="M689.976 483.999v-7.744h7.75v7.744z"/>
            <path fill="#1e90ff" d="m709.501 475.157-1.352 4.85h2.704zm-.774-1.13h1.555l2.9 9.477h-1.326l-.698-2.47h-3.32l-.685 2.47h-1.327zm12.022 3.834q-.374-.292-.761-.425t-.851-.134q-1.092 0-1.67.686-.577.685-.577 1.98v3.536h-1.174v-7.11h1.174v1.39q.292-.755.895-1.155.61-.406 1.44-.406.433 0 .807.108t.717.336zm4.393-3.485v2.019h2.653v.907h-2.653v3.86q0 .787.298 1.098.299.31 1.041.31h1.314v.934h-1.428q-1.314 0-1.853-.527-.54-.527-.54-1.815v-3.86h-1.898v-.907h1.898v-2.019zm5.554 2.019h2.99v6.201h2.317v.908H730.2v-.908h2.317v-5.294h-1.822zm1.822-2.768h1.168v1.479h-1.168zm11.127 0v.971h-1.326q-.629 0-.876.26-.242.254-.242.908v.629h2.444v.907h-2.444v6.202h-1.167v-6.202h-1.898v-.907h1.898v-.496q0-1.168.533-1.72.54-.552 1.675-.552zm2.704 2.768h2.99v6.201h2.317v.908h-5.802v-.908h2.317v-5.294h-1.822zm1.822-2.768h1.168v1.479h-1.168zm11.115 9.515q-.47.273-.971.406-.495.14-1.016.14-1.65 0-2.583-.99-.927-.99-.927-2.742t.927-2.743q.933-.99 2.583-.99.514 0 1.003.133.489.134.984.413v1.225q-.463-.412-.933-.597-.464-.184-1.054-.184-1.098 0-1.688.711t-.59 2.032q0 1.314.59 2.03.596.712 1.688.712.61 0 1.092-.184.482-.19.895-.584zm8.15-3.485v.572h-5.059v.038q0 1.161.603 1.796.61.635 1.714.635.559 0 1.168-.178.61-.178 1.301-.54v1.162q-.666.273-1.288.406-.616.14-1.194.14-1.656 0-2.59-.99-.932-.997-.932-2.742 0-1.702.914-2.717t2.437-1.016q1.358 0 2.14.92.786.921.786 2.514m-1.168-.343q-.025-1.028-.488-1.561-.457-.54-1.32-.54-.845 0-1.39.559-.547.559-.648 1.549zm9.268-1.453q-.375-.292-.762-.425t-.85-.134q-1.092 0-1.67.686-.577.685-.577 1.98v3.536h-1.175v-7.11h1.175v1.39q.292-.755.895-1.155.609-.406 1.44-.406.432 0 .807.108t.717.336z"/>
            <path fill="#91ccf0" d="M235.871 500.25v-7.745h7.75v7.744z"/>
            <path fill="#1e90ff" d="M256.627 495.577q.495.127.844.482.349.35.87 1.403l1.288 2.59h-1.377l-1.13-2.393q-.49-1.022-.883-1.314-.387-.299-1.015-.299h-1.225v4.006h-1.289v-9.477h2.64q1.562 0 2.394.704.831.705.831 2.038 0 .94-.514 1.536-.508.59-1.434.724m-2.628-3.949v3.365h1.402q.92 0 1.372-.413.45-.412.45-1.263 0-.819-.482-1.25-.476-.439-1.39-.439zm7.255 1.314h2.99v6.202h2.317v.908h-5.802v-.908h2.317v-5.294h-1.822zm1.822-2.767h1.168v1.479h-1.168zm5.014 2.767h1.213l2.063 5.967 2.07-5.967h1.212l-2.527 7.11h-1.504zm8.43 4.418v-4.405h1.168v4.405q0 .959.337 1.41.342.45 1.053.45.825 0 1.263-.577.438-.584.438-1.67v-4.018h1.175v7.097h-1.175v-1.067q-.31.616-.85.933-.533.318-1.25.318-1.092 0-1.626-.711-.533-.717-.533-2.165m10.645.115q0 .787.286 1.187.292.4.857.4h1.364v.99h-1.479q-1.047 0-1.625-.673-.57-.673-.57-1.904v-6.456h-1.873v-.914h3.04zm10.83-1.27v.571h-5.06v.038q0 1.162.603 1.797.61.635 1.714.635.559 0 1.168-.178.61-.178 1.301-.54v1.162q-.666.273-1.288.406-.616.14-1.194.14-1.656 0-2.59-.99-.933-.997-.933-2.743 0-1.7.914-2.716.915-1.016 2.438-1.016 1.358 0 2.14.92.786.92.786 2.514m-1.169-.343q-.025-1.028-.488-1.561-.458-.54-1.32-.54-.845 0-1.39.559-.547.558-.648 1.549zm5.834-4.938v2.018h2.653v.908h-2.653v3.86q0 .787.298 1.098.298.31 1.041.31h1.314v.934h-1.428q-1.314 0-1.854-.527t-.54-1.816v-3.859h-1.897v-.908h1.898v-2.018z"/>
            <path fill="#4f2d68" d="M314.618 500.249v-7.744h7.75v7.744z"/>
            <path fill="#1e90ff" d="M336.657 490.6v1.302q-.584-.375-1.174-.565-.584-.19-1.18-.19-.908 0-1.435.425-.527.419-.527 1.136 0 .628.343.958.349.33 1.295.553l.672.152q1.333.311 1.943.978.61.666.61 1.815 0 1.352-.839 2.063t-2.437.711q-.667 0-1.34-.146-.672-.14-1.352-.425v-1.365q.73.463 1.378.68.654.215 1.314.215.97 0 1.51-.432.54-.438.54-1.218 0-.711-.374-1.086-.369-.374-1.29-.578l-.685-.158q-1.32-.299-1.917-.902-.596-.603-.596-1.618 0-1.27.85-2.031.857-.769 2.273-.769.546 0 1.149.127.603.121 1.27.369m3.783 8.259v3.599h-1.174v-9.813h1.174v.907q.292-.527.775-.8.489-.279 1.123-.279 1.289 0 2.019.997.736.996.736 2.761 0 1.733-.736 2.723-.736.984-2.019.984-.647 0-1.136-.273-.482-.28-.762-.806m3.428-2.653q0-1.359-.431-2.05-.426-.693-1.27-.693-.85 0-1.289.699-.438.692-.438 2.044 0 1.345.438 2.044t1.289.698q.844 0 1.27-.692.431-.692.431-2.05m9.077-.299v.572h-5.059v.038q0 1.161.603 1.796.61.635 1.714.635.559 0 1.168-.178.61-.178 1.301-.54v1.162q-.666.273-1.288.406-.616.14-1.194.14-1.656 0-2.59-.99-.933-.997-.933-2.742 0-1.702.915-2.717.914-1.016 2.437-1.016 1.358 0 2.14.92.786.921.786 2.514m-1.168-.343q-.025-1.028-.488-1.561-.457-.54-1.32-.54-.845 0-1.39.559-.547.559-.648 1.549zm6.392.616h-.387q-1.022 0-1.542.362-.514.355-.514 1.066 0 .642.387.997t1.073.355q.964 0 1.517-.666.552-.673.558-1.854v-.26zm2.267-.482v4.056h-1.175V498.7q-.374.635-.946.94-.565.298-1.377.298-1.085 0-1.733-.61-.647-.615-.647-1.643 0-1.187.793-1.803.8-.616 2.342-.616h1.568v-.184q-.006-.85-.431-1.231-.426-.388-1.359-.388-.596 0-1.206.172t-1.187.501v-1.168q.648-.247 1.238-.368.597-.127 1.155-.127.883 0 1.505.26.628.26 1.015.781.241.318.343.787.102.464.102 1.397m8.436-1.587q-.375-.292-.762-.425-.387-.134-.85-.134-1.093 0-1.67.686-.578.685-.578 1.98v3.536h-1.174v-7.11h1.174v1.39q.292-.755.895-1.155.61-.406 1.441-.406.432 0 .806.108t.718.336zm4.786-.743q.216-.457.546-.673.336-.222.806-.222.857 0 1.206.667.355.66.355 2.494v4.12h-1.066v-4.069q0-1.504-.171-1.866-.166-.368-.61-.368-.508 0-.698.393-.184.387-.184 1.841v4.069h-1.067v-4.069q0-1.523-.184-1.879-.177-.355-.647-.355-.464 0-.648.393-.177.387-.177 1.841v4.069h-1.06v-7.11h1.06v.61q.21-.381.52-.578.318-.203.717-.203.483 0 .8.222.324.222.502.673m7.991 2.812h-.387q-1.022 0-1.542.362-.514.355-.514 1.066 0 .642.387.997t1.073.355q.964 0 1.517-.666.552-.673.558-1.854v-.26zm2.267-.482v4.056h-1.175V498.7q-.374.635-.946.94-.565.298-1.377.298-1.085 0-1.733-.61-.647-.615-.647-1.643 0-1.187.793-1.803.8-.616 2.342-.616h1.568v-.184q-.006-.85-.431-1.231-.426-.388-1.359-.388-.597 0-1.206.172-.61.171-1.187.501v-1.168q.648-.247 1.238-.368.597-.127 1.155-.127.882 0 1.505.26.628.26 1.015.781.241.318.343.787.102.464.102 1.397m7.28-2.806v1.143q-.501-.292-1.009-.438t-1.035-.146q-.793 0-1.187.26-.387.254-.387.78 0 .477.292.712t1.454.457l.47.089q.87.165 1.313.66.451.495.451 1.288 0 1.054-.749 1.65-.749.591-2.082.591-.527 0-1.104-.114-.578-.108-1.25-.33v-1.206q.653.336 1.25.507.596.165 1.13.165.774 0 1.2-.31.424-.318.424-.883 0-.812-1.555-1.123l-.05-.013-.439-.089q-1.009-.197-1.472-.66-.464-.47-.464-1.276 0-1.022.692-1.574.692-.559 1.974-.559.572 0 1.099.108.526.102 1.034.311m5.548-2.266v2.019h2.653v.907h-2.653v3.86q0 .787.298 1.098.299.31 1.042.31h1.313v.934h-1.428q-1.314 0-1.853-.527-.54-.527-.54-1.815v-3.86h-1.898v-.907h1.898v-2.019zm10.988 5.281v.572h-5.06v.038q0 1.161.604 1.796.61.635 1.714.635.558 0 1.168-.178t1.301-.54v1.162q-.667.273-1.289.406-.615.14-1.193.14-1.657 0-2.59-.99-.933-.997-.933-2.742 0-1.702.914-2.717t2.438-1.016q1.358 0 2.139.92.787.921.787 2.514m-1.168-.343q-.025-1.028-.489-1.561-.457-.54-1.32-.54-.844 0-1.39.559t-.648 1.549zm9.268-1.453q-.375-.292-.762-.425-.387-.134-.85-.134-1.093 0-1.67.686-.578.685-.578 1.98v3.536h-1.174v-7.11h1.174v1.39q.292-.755.895-1.155.61-.406 1.441-.406.432 0 .806.108t.718.336z"/>
            <path fill="#aaf155" d="M424.191 500.249v-7.744h7.75v7.744z"/>
            <path fill="#1e90ff" d="M446.23 490.6v1.302q-.584-.375-1.174-.565-.584-.19-1.18-.19-.908 0-1.435.425-.527.419-.527 1.136 0 .628.343.958.349.33 1.295.553l.673.152q1.333.311 1.942.978.61.666.61 1.815 0 1.352-.839 2.063t-2.437.711q-.667 0-1.34-.146-.672-.14-1.351-.425v-1.365q.73.463 1.377.68.654.215 1.314.215.971 0 1.51-.432.54-.438.54-1.218 0-.711-.374-1.086-.368-.374-1.289-.578l-.685-.158q-1.32-.299-1.917-.902t-.597-1.618q0-1.27.85-2.031.857-.769 2.273-.769.546 0 1.149.127.603.121 1.27.369m5.86 5.58h-.388q-1.022 0-1.542.362-.514.355-.514 1.066 0 .642.387.997t1.072.355q.965 0 1.518-.666.552-.673.558-1.854v-.26zm2.265-.482v4.056h-1.174V498.7q-.374.635-.946.94-.565.298-1.377.298-1.086 0-1.733-.61-.647-.615-.647-1.643 0-1.187.793-1.803.8-.616 2.342-.616h1.568v-.184q-.006-.85-.431-1.231-.426-.388-1.359-.388-.597 0-1.206.172-.61.171-1.187.501v-1.168q.648-.247 1.238-.368.597-.127 1.155-.127.882 0 1.505.26.628.26 1.015.781.241.318.343.787.101.464.101 1.397m2.73-3.053h2.99v6.201h2.317v.908h-5.802v-.908h2.317v-5.294h-1.822zm1.822-2.768h1.168v1.479h-1.168zm11.051 5.472v4.405h-1.174v-4.405q0-.959-.337-1.41-.336-.45-1.053-.45-.82 0-1.264.584-.438.577-.438 1.663v4.018h-1.168v-7.11h1.168v1.067q.311-.61.845-.92.533-.318 1.263-.318 1.085 0 1.618.717.54.711.54 2.159m5.053-4.723v2.019h2.653v.907h-2.653v3.86q0 .787.298 1.098.298.31 1.041.31h1.314v.934h-1.428q-1.314 0-1.854-.527t-.54-1.815v-3.86h-1.897v-.907h1.898v-2.019z"/>
            <path fill="#16234f" d="M486.805 500.249v-7.744h7.75v7.744z"/>
            <path fill="#1e90ff" d="M515.287 492.905q-.248-.013-.413-.013-1.11 0-3.117.387.203.52.203.978 0 .616-.298 1.085-.349.533-.933.533-.355 0-.552-.406-.159-.323-.159-.723 0-.527.267-.876.21.45.552.603.425-.4.578-1.13-1.156.235-2.482.596-.121.426-.121.851 0 .914.489 1.473.514.584 1.415.584.565 0 1.029-.299.298-.19.806-.717.127-.133.431-.374-.006.977-.87 1.694-.818.68-1.821.68-.92 0-1.574-.534-.698-.577-.698-1.479 0-1.053.463-1.752-2.361.673-4.202 1.429.457.793 1.961 1.637 1.225.686 2.412 1.054 1.092.336 1.924.336.26 0 .774-.063.514-.07.768-.07.12 0 .229.057-.197.343-.933.553-.59.17-1.118.17-2.107 0-4.38-1.072-2.481-1.174-3.364-2.888 3.377-1.784 8.88-2.647 1.296-.203 2.184-.203 1.384 0 1.67.546"/>
            <path fill="#1e90ff" d="M541.228 474.029h1.25l.908 7.693 1.079-5.09h1.34l1.091 5.103.908-7.706h1.25l-1.415 9.477h-1.213l-1.288-5.63-1.283 5.63h-1.212zm12.282 5.903h-.387q-1.022 0-1.542.362-.515.356-.515 1.067 0 .64.388.996t1.072.356q.965 0 1.518-.667.552-.673.558-1.853v-.26zm2.266-.482v4.056h-1.174v-1.054q-.374.635-.946.94-.565.298-1.377.298-1.086 0-1.733-.61-.648-.615-.648-1.643 0-1.187.794-1.803.8-.616 2.342-.616h1.568v-.184q-.006-.85-.431-1.231-.426-.387-1.359-.387-.597 0-1.206.171-.61.171-1.187.501v-1.168q.647-.247 1.238-.368.596-.127 1.155-.127.882 0 1.505.26.628.26 1.015.781.241.318.343.787.101.464.101 1.397m5.002-5.072v2.019h2.654v.907h-2.654v3.86q0 .787.299 1.098.298.311 1.04.311h1.315v.933h-1.428q-1.314 0-1.854-.527t-.54-1.815v-3.86h-1.897v-.907h1.897v-2.019zm10.665 8.766q-.47.273-.972.407-.495.14-1.015.14-1.65 0-2.584-.991-.926-.99-.926-2.742t.926-2.742q.933-.99 2.584-.99.514 0 1.003.133t.984.412v1.225q-.464-.412-.934-.596-.463-.184-1.053-.184-1.098 0-1.689.71-.59.711-.59 2.032 0 1.314.59 2.031.597.711 1.689.711.61 0 1.092-.184.482-.19.895-.584zm7.763-4.043v4.405h-1.174v-4.405q0-.959-.337-1.41-.336-.45-1.054-.45-.818 0-1.263.584-.438.578-.438 1.663v4.018h-1.168v-9.877h1.168v3.834q.311-.61.844-.92.534-.318 1.264-.318 1.085 0 1.618.718.54.71.54 2.158m8.214.558v.572h-5.06v.038q0 1.161.604 1.796.61.635 1.714.635.558 0 1.168-.178t1.3-.54v1.162q-.666.273-1.288.407-.615.14-1.193.14-1.657 0-2.59-.991-.933-.997-.933-2.742 0-1.701.914-2.717t2.437-1.016q1.359 0 2.14.92.787.921.787 2.514m-1.168-.342q-.026-1.029-.489-1.562-.457-.54-1.32-.54-.845 0-1.39.56-.546.558-.648 1.548zm9.267-1.454q-.374-.292-.761-.425t-.85-.134q-1.093 0-1.67.686-.578.686-.578 1.98v3.536h-1.174v-7.11h1.174v1.39q.292-.754.895-1.154.61-.407 1.441-.407.432 0 .806.108t.717.337z" aria-label="Watcher"/>
            <path fill="#f0c097" d="M603.882 483.999v-7.744h7.75v7.744z"/>
        </g>
    </svg>
</svg>
