<svg xmlns="http://www.w3.org/2000/svg" width="830" height="470" fill="currentColor" class="plot-d6a7b5" font-family="system-ui, sans-serif" font-size="10" style="--plot-background:white;display:block;height:intrinsic;max-width:100%;color:#1e90ff" text-anchor="middle" viewBox="0 0 830 470">
    <style>
        :where(.plot-d6a7b5 text),:where(.plot-d6a7b5 tspan){white-space:pre}
    </style>
    <path stroke="currentColor" stroke-opacity=".1" d="
M60
410
h710
M60
366.25
h710
M60
322.5
h710
M60
278.75
h710
M60
235
h710
M60
191.25
h710
M60
147.5
h710
M60
103.75
h710
M60
60
h710" aria-hidden="true" aria-label="y-grid"/>
    <path fill="none" stroke="currentColor" d="
M60
410
h-6
m6
-43.75
h-6
m6
-43.75
h-6
m6
-43.75
h-6
M60
235
h-6
m6
-43.75
h-6
m6
-43.75
h-6
m6
-43.75
h-6
M60
60
h-6" aria-hidden="true" aria-label="y-axis tick"/>
    <g aria-label="y-axis tick label" font-variant="tabular-nums" text-anchor="end">
        <text y=".32em" transform="translate(51 410)">0.0</text>
        <text y=".32em" transform="translate(51 366.25)">0.5</text>
        <text y=".32em" transform="translate(51 322.5)">1.0</text>
        <text y=".32em" transform="translate(51 278.75)">1.5</text>
        <text y=".32em" transform="translate(51 235)">2.0</text>
        <text y=".32em" transform="translate(51 191.25)">2.5</text>
        <text y=".32em" transform="translate(51 147.5)">3.0</text>
        <text y=".32em" transform="translate(51 103.75)">3.5</text>
        <text y=".32em" transform="translate(51 60)">4.0</text>
    </g>
    <text y=".71em" aria-label="y-axis label" text-anchor="start" transform="translate(3 3)">↑ Karma vestiges (30 days)</text>
    <path fill="none" stroke="currentColor" d="
M193.962
410
v6
m140.661
-6
v6
m140.66
-6
v6
m140.66
-6
v6
m140.661
-6
v6" aria-hidden="true" aria-label="x-axis tick"/>
    <g aria-label="x-axis tick label" font-variant="tabular-nums">
        <text transform="translate(193.962 419)"><tspan x="0" y=".71em">8</tspan><tspan x="0" dy="1em">Feb</tspan></text>
        <text y=".71em" transform="translate(334.623 419)">15</text>
        <text y=".71em" transform="translate(475.283 419)">22</text>
        <text transform="translate(615.943 419)"><tspan x="0" y=".71em">1</tspan><tspan x="0" dy="1em">Mar</tspan></text>
        <text y=".71em" transform="translate(756.604 419)">8</text>
    </g>
    <path fill="none" stroke="currentColor" stroke-linecap="round" stroke-linejoin="round" stroke-width="1.5" d="
M60
410
h40.189
l13.396
-175
h80.377
l13.396
-87.5
h80.378
L301.132
60
h187.547
l13.396
175
h80.378
l13.396
87.5
h40.189
l13.396
-87.5
h26.792
l13.397
87.5
H770" aria-label="line"/>
</svg>
