<svg class="plot-d6a7b5" fill="currentColor" font-family="system-ui, sans-serif" font-size="10" text-anchor="middle" width="830" height="470" viewBox="0 0 830 470" xmlns="http://www.w3.org/2000/svg" xmlns:xlink="http://www.w3.org/1999/xlink" color="#1e90ff"><style>:where(.plot-d6a7b5){--plot-background: white;display:block;height:intrinsic;max-width:100%}:where(.plot-d6a7b5 text),:where(.plot-d6a7b5 tspan){white-space:pre}</style><g aria-label="y-grid" stroke="currentColor" stroke-opacity=".1"><line x1="60" x2="770" y1="410" y2="410"/><line x1="60" x2="770" y1="378.557" y2="378.557"/><line x1="60" x2="770" y1="347.114" y2="347.114"/><line x1="60" x2="770" y1="315.671" y2="315.671"/><line x1="60" x2="770" y1="284.227" y2="284.227"/><line x1="60" x2="770" y1="252.784" y2="252.784"/><line x1="60" x2="770" y1="221.341" y2="221.341"/><line x1="60" x2="770" y1="189.898" y2="189.898"/><line x1="60" x2="770" y1="158.455" y2="158.455"/><line x1="60" x2="770" y1="127.012" y2="127.012"/><line x1="60" x2="770" y1="95.568" y2="95.568"/><line x1="60" x2="770" y1="64.125" y2="64.125"/></g><g aria-label="y-axis tick" fill="none" stroke="currentColor"><path transform="translate(60,410)" d="M0,0L-6,0"/><path transform="translate(60,378.55684921661634)" d="M0,0L-6,0"/><path transform="translate(60,347.11369843323274)" d="M0,0L-6,0"/><path transform="translate(60,315.6705476498491)" d="M0,0L-6,0"/><path transform="translate(60,284.2273968664655)" d="M0,0L-6,0"/><path transform="translate(60,252.7842460830818)" d="M0,0L-6,0"/><path transform="translate(60,221.34109529969817)" d="M0,0L-6,0"/><path transform="translate(60,189.8979445163145)" d="M0,0L-6,0"/><path transform="translate(60,158.45479373293085)" d="M0,0L-6,0"/><path transform="translate(60,127.01164294954722)" d="M0,0L-6,0"/><path transform="translate(60,95.56849216616357)" d="M0,0L-6,0"/><path transform="translate(60,64.12534138277994)" d="M0,0L-6,0"/></g><g aria-label="y-axis tick label" text-anchor="end" font-variant="tabular-nums"><text y=".32em" transform="translate(-9,0) translate(60,410)">0</text><text y=".32em" transform="translate(-9,0) translate(60,378.55684921661634)">5,000</text><text y=".32em" transform="translate(-9,0) translate(60,347.11369843323274)">10,000</text><text y=".32em" transform="translate(-9,0) translate(60,315.6705476498491)">15,000</text><text y=".32em" transform="translate(-9,0) translate(60,284.2273968664655)">20,000</text><text y=".32em" transform="translate(-9,0) translate(60,252.7842460830818)">25,000</text><text y=".32em" transform="translate(-9,0) translate(60,221.34109529969817)">30,000</text><text y=".32em" transform="translate(-9,0) translate(60,189.8979445163145)">35,000</text><text y=".32em" transform="translate(-9,0) translate(60,158.45479373293085)">40,000</text><text y=".32em" transform="translate(-9,0) translate(60,127.01164294954722)">45,000</text><text y=".32em" transform="translate(-9,0) translate(60,95.56849216616357)">50,000</text><text y=".32em" transform="translate(-9,0) translate(60,64.12534138277994)">55,000</text></g><g aria-label="y-axis label" text-anchor="start"><text y=".71em" transform="translate(-57,-57) translate(60,60)">↑ Visible Vestiges (30 days)</text></g><g aria-label="x-axis tick" fill="none" stroke="currentColor"><path transform="translate(108.08764940239044,410)" d="M0,0L0,6"/><path transform="translate(236.79282868525897,410)" d="M0,0L0,6"/><path transform="translate(366.91235059760953,410)" d="M0,0L0,6"/><path transform="translate(497.0318725099601,410)" d="M0,0L0,6"/><path transform="translate(625.7370517928287,410)" d="M0,0L0,6"/><path transform="translate(754.4422310756972,410)" d="M0,0L0,6"/></g><g aria-label="x-axis tick label" font-variant="tabular-nums"><text transform="translate(0,9) translate(108.08764940239044,410)"><tspan x="0" y=".71em">Apr</tspan><tspan x="0" dy="1em">2023</tspan></text><text y=".71em" transform="translate(0,9) translate(236.79282868525897,410)">Jul</text><text y=".71em" transform="translate(0,9) translate(366.91235059760953,410)">Oct</text><text transform="translate(0,9) translate(497.0318725099601,410)"><tspan x="0" y=".71em">Jan</tspan><tspan x="0" dy="1em">2024</tspan></text><text y=".71em" transform="translate(0,9) translate(625.7370517928287,410)">Apr</text><text y=".71em" transform="translate(0,9) translate(754.4422310756972,410)">Jul</text></g><g aria-label="line" fill="none" stroke="currentColor" stroke-width="1.5" stroke-linejoin="round" stroke-linecap="round"><path d="M60,410L60.943,406.843L61.886,395.297L62.829,389.071L63.772,384.657L64.714,377.375L65.657,371.639L66.6,366.263L67.543,355.383L68.486,346.774L69.429,336.555L70.372,320.727L71.315,305.804L72.258,298.056L73.201,286.843L74.143,279.228L75.086,270.499L76.029,259.085L76.972,251.401L77.915,243.867L78.858,233.642L79.801,222.303L80.744,214.273L81.687,200.57L82.629,194.08L83.572,188.024L84.515,177.101L85.458,166.643L86.401,158.593L87.344,147.374L88.287,139.344L89.23,140.702L90.173,131.137L91.116,123.025L92.058,123.05L93.001,121.226L93.944,120.912L94.887,127.194L95.83,127.276L96.773,129.156L97.716,139.168L98.659,140.639L99.602,134.325L100.544,132.936L101.487,125.282L102.43,123.66L103.373,126.257L104.316,121.93L105.259,119.415L106.202,122.364L107.145,120.597L108.088,115.956L109.031,117.837L109.973,107.379L110.916,97.342L111.859,99.895L112.802,97.933L113.745,94.776L114.688,95.952L115.631,92.921L116.574,89.752L117.517,93.94L118.459,92.519L119.402,86.406L120.345,82.45L121.288,72.653L122.231,67.722L123.174,67.653L124.117,64L125.06,60L126.003,66.113L126.946,70.716L127.888,73.112L128.831,78.866L129.774,76.734L130.717,73.181L131.66,78.143L132.603,78.407L133.546,78.042L134.489,86.123L135.432,91.016L136.375,95.097L137.317,103.825L138.26,109.278L139.203,106.831L140.146,110.806L141.089,110.315L142.032,112.145L142.975,121L143.918,122.037L144.861,125.125L145.803,134.464L146.746,140.117L147.689,144.192L148.632,151.933L149.575,150.82L150.518,150.16L151.461,154.179L152.404,157.065L153.347,158.254L154.29,161.825L155.232,162.373L156.175,166.385L157.118,173.277L158.061,176.572L159.004,173.334L159.947,175.05L160.89,172.315L161.833,170.347L162.776,171.629L163.718,169.957L164.661,171.736L165.604,176.245L166.547,178.874L167.49,180.918L168.433,184.88L169.376,184.898L170.319,182.823L171.262,188.98L172.205,191.036L173.147,190.005L174.09,192.407L175.033,192.363L175.976,194.413L176.919,199.916L177.862,200.696L178.805,197.652L179.748,196.545L180.691,192.237L181.633,191.866L182.576,194.35L183.519,192.445L184.462,191.269L185.405,195.589L186.348,196.451L187.291,197.117L188.234,199.714L189.177,195.413L190.12,193.596L191.062,195.74L192.005,194.753L192.948,192.778L193.891,194.69L194.834,194.948L195.777,194.558L196.72,197.96L197.663,199.035L198.606,199.457L199.548,200.519L200.491,198.557L201.434,198.381L202.377,200.142L203.32,198.174L204.263,197.834L205.206,201.249L206.149,206.789L207.092,208.374L208.035,212.77L208.977,212.701L209.92,213.015L210.863,215.04L211.806,215.216L212.749,214.43L213.692,218.348L214.635,218.109L215.578,219.53L216.521,225.806L217.463,227.529L218.406,228.535L219.349,231.434L220.292,231.761L221.235,232.101L222.178,232.126L223.121,233.453L224.064,232.459L225.007,235.384L225.95,234.818L226.892,235.069L227.835,236.547L228.778,234.755L229.721,234.711L230.664,236.025L231.607,234.516L232.55,233.214L233.493,233.107L234.436,230.453L235.378,229.114L236.321,231.177L237.264,231.227L238.207,230.541L239.15,233.484L240.093,232.56L241.036,233.893L241.979,236.572L242.922,236.899L243.865,236.295L244.807,238.44L245.75,237.673L246.693,237.05L247.636,240.169L248.579,239.566L249.522,239.805L250.465,241.974L251.408,240.666L252.351,239.591L253.293,240.767L254.236,239.402L255.179,240.238L256.122,241.515L257.065,240.408L258.008,240.742L258.951,242.609L259.894,243.1L260.837,241.779L261.78,245.483L262.722,247.816L263.665,246.722L264.608,249.451L265.551,248.527L266.494,247.797L267.437,249.313L268.38,247.275L269.323,247.288L270.266,247.307L271.208,244.93L272.151,243.345L273.094,246.823L274.037,243.798L274.98,242.446L275.923,243.641L276.866,242.056L277.809,241.641L278.752,243.32L279.695,241.59L280.637,240.389L281.58,241.433L282.523,238.635L283.466,238.415L284.409,239.805L285.352,239.176L286.295,236.975L287.238,235.365L288.181,231.258L289.124,229.938L290.066,229.938L291.009,228.435L291.952,227.001L292.895,229.994L293.838,228.139L294.781,227.592L295.724,229.957L296.667,228.63L297.61,228.925L298.552,232.78L299.495,232.176L300.438,229.529L301.381,232.988L302.324,232.793L303.267,230.378L304.21,231.296L305.153,228.177L306.096,227.812L307.039,228.472L307.981,226.542L308.924,225.806L309.867,228.139L310.81,227.454L311.753,227.215L312.696,230.032L313.639,231.818L314.582,235.126L315.525,241.546L316.467,242.71L317.41,242.194L318.353,243.892L319.296,244.244L320.239,242.917L321.182,244.634L322.125,245.118L323.068,244.005L324.011,246.087L324.954,246.961L325.896,246.118L326.839,247.37L327.782,247.118L328.725,247.231L329.668,248.464L330.611,251.011L331.554,253.734L332.497,257.796L333.44,259.299L334.382,262.268L335.325,267.324L336.268,266.204L337.211,266.89L338.154,269.047L339.097,268.323L340.04,269.455L340.983,271.38L341.926,272.153L342.869,274.027L343.811,275.48L344.754,276.876L345.697,277.234L346.64,277.354L347.583,274.631L348.526,272.317L349.469,273.662L350.412,273.681L351.355,274.474L352.297,275.216L353.24,275.48L354.183,276.624L355.126,279.706L356.069,279.14L357.012,278.436L357.955,279.448L358.898,277.555L359.841,278.75L360.784,280.165L361.726,278.958L362.669,278.555L363.612,282.662L364.555,282.504L365.498,282.9L366.441,284.894L367.384,281.574L368.327,280.674L369.27,281.687L370.212,279.97L371.155,280.813L372.098,282.07L373.041,283.177L373.984,284.592L374.927,288.466L375.87,289.805L376.813,287.598L377.756,286.649L378.699,283.919L379.641,283.599L380.584,284.951L381.527,285.007L382.47,284.881L383.413,286.271L384.356,286.869L385.299,287.661L386.242,290.183L387.185,285.982L388.127,282.768L389.07,282.85L390.013,282.599L390.956,283.039L391.899,286.076L392.842,285.812L393.785,287.202L394.728,290.17L395.671,288.749L396.614,284.756L397.556,284.397L398.499,281.165L399.442,280.655L400.385,281.196L401.328,279.398L402.271,280.064L403.214,282.215L404.157,283.334L405.1,284.158L406.042,287.045L406.985,286.089L407.928,286.007L408.871,287.963L409.814,286.68L410.757,287.252L411.7,290.384L412.643,290.849L413.586,291.038L414.529,293.107L415.471,293.245L416.414,291.019L417.357,290.906L418.3,289.755L419.243,289.661L420.186,290.843L421.129,289.868L422.072,290.692L423.015,294.295L423.958,296.691L424.9,299.05L425.843,302.188L426.786,301.955L427.729,301.817L428.672,305.099L429.615,305.653L430.558,307.376L431.501,309.916L432.444,311.985L433.386,313.205L434.329,317.224L435.272,315.954L436.215,313.539L437.158,313.778L438.101,312.463L439.044,310.954L439.987,311.753L440.93,311.269L441.873,314.142L442.815,317.041L443.758,318.576L444.701,318.941L445.644,319.695L446.587,317.243L447.53,317.318L448.473,318.098L449.416,316.488L450.359,315.664L451.301,316.079L452.244,313.243L453.187,313.47L454.13,314.199L455.073,314.413L456.016,313.004L456.959,312.457L457.902,310.212L458.845,310.193L459.788,311.803L460.73,310.52L461.673,309.112L462.616,311.696L463.559,313.759L464.502,315.853L465.445,318.456L466.388,318.89L467.331,318.261L468.274,320.192L469.216,318.777L470.159,318.431L471.102,321.399L472.045,322.89L472.988,324.393L473.931,327.286L474.874,327.141L475.817,326.877L476.76,328.147L477.703,328.896L478.645,329.996L479.588,332.159L480.531,332.857L481.474,334.04L482.417,335.04L483.36,335.14L484.303,336.486L485.246,337.725L486.189,335.574L487.131,333.423L488.074,334.914L489.017,334.838L489.96,333.285L490.903,332.939L491.846,331.612L492.789,330.663L493.732,330.468L494.675,329.462L495.618,328.103L496.56,328.946L497.503,328.858L498.446,327.355L499.389,326.764L500.332,324.185L501.275,323.487L502.218,325.028L503.161,324.443L504.104,325.556L505.046,325.475L505.989,323.928L506.932,324.953L507.875,324.971L508.818,323.72L509.761,323.978L510.704,325.563L511.647,325.833L512.59,327.078L513.533,328.889L514.475,328.921L515.418,327.499L516.361,326.393L517.304,325.374L518.247,326.141L519.19,327.361L520.133,327.757L521.076,327.562L522.019,327.537L522.961,327.606L523.904,328.286L524.847,328.411L525.79,327.361L526.733,324.449L527.676,325.204L528.619,323.462L529.562,322.959L530.505,324.795L531.448,323.198L532.39,324.374L533.333,326.468L534.276,323.689L535.219,320.764L536.162,319.865L537.105,316.243L538.048,315.086L538.991,314.4L539.934,312.677L540.876,312.206L541.819,313.124L542.762,312.287L543.705,313.809L544.648,314.463L545.591,310.577L546.534,308.891L547.477,308.3L548.42,307.168L549.363,307.948L550.305,308.583L551.248,305.967L552.191,305.552L553.134,305.376L554.077,306.866L555.02,305.54L555.963,303.401L556.906,298.892L557.849,297.358L558.792,296.446L559.734,291.975L560.677,289.969L561.62,291.893L562.563,293.447L563.506,294.151L564.449,296.371L565.392,294.22L566.335,292.264L567.278,293.497L568.22,292.503L569.163,291.635L570.106,291.717L571.049,290.214L571.992,291.918L572.935,294.503L573.878,293.579L574.821,291.874L575.764,293.239L576.707,291.384L577.649,291.151L578.592,292.692L579.535,292.918L580.478,294.811L581.421,296.214L582.364,297.408L583.307,300.949L584.25,305.024L585.193,303.445L586.135,304.401L587.078,307.615L588.021,309.244L588.964,310.03L589.907,310.96L590.85,311.501L591.793,313.092L592.736,316.237L593.679,316.425L594.622,315.57L595.564,317.538L596.507,316.947L597.45,318.111L598.393,320.846L599.336,320.771L600.279,320.984L601.222,323.72L602.165,325.179L603.108,324.764L604.05,326.21L604.993,323.349L605.936,322.802L606.879,323.965L607.822,325.846L608.765,328.525L609.708,332.122L610.651,334.97L611.594,337.832L612.537,343.158L613.479,346.101L614.422,348.384L615.365,350.472L616.308,352.49L617.251,355.006L618.194,357.113L619.137,358.358L620.08,359.886L621.023,363.244L621.965,364.653L622.908,363.414L623.851,365.225L624.794,365.961L625.737,365.269L626.68,365.898L627.623,367.08L628.566,366.885L629.509,367.841L630.452,368.652L631.394,369.193L632.337,371.941L633.28,372.507L634.223,372.507L635.166,371.117L636.109,368.545L637.052,365.759L637.995,364.571L638.938,362.785L639.88,360.131L640.823,358.666L641.766,357.352L642.709,355.188L643.652,353.427L644.595,351.006L645.538,349.246L646.481,348.252L647.424,346.655L648.367,345.806L649.309,345.391L650.252,347.504L651.195,348.252L652.138,349.459L653.081,349.755L654.024,349.868L654.967,349.793L655.91,349.396L656.853,349.837L657.795,351.384L658.738,351.623L659.681,352.163L660.624,353.446L661.567,353.905L662.51,353.056L663.453,353.843L664.396,354.094L665.339,353.566L666.282,354.05L667.224,354.698L668.167,353.937L669.11,353.151L670.053,353.975L670.996,353.736L671.939,354.679L672.882,354.717L673.825,352.855L674.768,352.522L675.71,351.22L676.653,351.22L677.596,350.881L678.539,350.239L679.482,349.007L680.425,348.812L681.368,348.101L682.311,347.522L683.254,348.843L684.197,347.705L685.139,346.246L686.082,346.711L687.025,345.56L687.968,345.567L688.911,346.07L689.854,347.617L690.797,347.906L691.74,348.51L692.683,348.132L693.625,345.001L694.568,344.844L695.511,343.743L696.454,344.529L697.397,344.535L698.34,344.755L699.283,343.737L700.226,345.057L701.169,346.227L702.112,346.372L703.054,347.441L703.997,346.019L704.94,343.655L705.883,343.756L706.826,342.46L707.769,342.668L708.712,342.951L709.655,341.85L710.598,340.756L711.541,341.9L712.483,341.517L713.426,340.404L714.369,341.794L715.312,339.548L716.255,339.115L717.198,338.385L718.141,337.266L719.084,336.467L720.027,336.719L720.969,338.09L721.912,337.882L722.855,338.737L723.798,336.605L724.741,334.442L725.684,333.681L726.627,333.952L727.57,331.505L728.513,331.537L729.456,331.719L730.398,331.883L731.341,332.329L732.284,333.901L733.227,333.449L734.17,334.568L735.113,333.706L736.056,333.084L736.999,336.065L737.942,337.586L738.884,337.549L739.827,339.102L740.77,338.75L741.713,338.398L742.656,340.97L743.599,340.825L744.542,338.417L745.485,339.63L746.428,340.24L747.371,339.215L748.313,340.14L749.256,341.139L750.199,341.781L751.142,344.334L752.085,346.441L753.028,347.277L753.971,347.938L754.914,347.887L755.857,347.516L756.799,347.982L757.742,346.856L758.685,347.378L759.628,347.504L760.571,348.34L761.514,348.975L762.457,350.17L763.4,350.793L764.343,349.264L765.286,349.497L766.228,350.032L767.171,350.032L768.114,352.258L769.057,352.692L770,352.163"/></g></svg>