<svg xmlns="http://www.w3.org/2000/svg" width="830" height="470" fill="currentColor" class="plot-d6a7b5" font-family="system-ui, sans-serif" font-size="10" style="--plot-background:white;display:block;height:intrinsic;max-width:100%;color:#1e90ff" text-anchor="middle" viewBox="0 0 830 470">
    <style>
        :where(.plot-d6a7b5 text),:where(.plot-d6a7b5 tspan){white-space:pre}
    </style>
    <path stroke="currentColor" stroke-opacity=".1" d="
M60
410
h710
M60
378.557
h710
M60
347.114
h710
M60
315.671
h710
M60
284.227
h710
M60
252.784
h710
M60
221.341
h710
M60
189.898
h710
M60
158.455
h710
M60
127.012
h710
M60
95.568
h710
M60
64.125
h710" aria-hidden="true" aria-label="y-grid"/>
    <path fill="none" stroke="currentColor" d="
M60
410
h-6
m6
-31.443
h-6
m6
-31.443
h-6
m6
-31.444
h-6
m6
-31.443
h-6
m6
-31.443
h-6
m6
-31.443
h-6
m6
-31.443
h-6
m6
-31.443
h-6
m6
-31.443
h-6
m6
-31.444
h-6
m6
-31.443
h-6" aria-hidden="true" aria-label="y-axis tick"/>
    <g aria-label="y-axis tick label" font-variant="tabular-nums" text-anchor="end">
        <text y=".32em" transform="translate(51 410)">0</text>
        <text y=".32em" transform="translate(51 378.557)">5,000</text>
        <text y=".32em" transform="translate(51 347.114)">10,000</text>
        <text y=".32em" transform="translate(51 315.67)">15,000</text>
        <text y=".32em" transform="translate(51 284.227)">20,000</text>
        <text y=".32em" transform="translate(51 252.784)">25,000</text>
        <text y=".32em" transform="translate(51 221.341)">30,000</text>
        <text y=".32em" transform="translate(51 189.898)">35,000</text>
        <text y=".32em" transform="translate(51 158.455)">40,000</text>
        <text y=".32em" transform="translate(51 127.012)">45,000</text>
        <text y=".32em" transform="translate(51 95.568)">50,000</text>
        <text y=".32em" transform="translate(51 64.125)">55,000</text>
    </g>
    <text y=".71em" aria-label="y-axis label" text-anchor="start" transform="translate(3 3)">↑ Visible vestiges (30 days)</text>
    <path fill="none" stroke="currentColor" d="
M81.188
410
v6
m56.708
-6
v6
m57.332
-6
v6
m57.332
-6
v6
m56.709
-6
v6
m56.708
-6
v6
m57.332
-6
v6
m57.331
-6
v6
m56.086
-6
v6
m56.709
-6
v6
m57.332
-6
v6
m57.331
-6
v6
m56.086
-6
v6" aria-hidden="true" aria-label="x-axis tick"/>
    <g aria-label="x-axis tick label" font-variant="tabular-nums">
        <text transform="translate(81.188 419)"><tspan x="0" y=".71em">Apr</tspan><tspan x="0" dy="1em">2023</tspan></text>
        <text y=".71em" transform="translate(137.896 419)">Jul</text>
        <text y=".71em" transform="translate(195.228 419)">Oct</text>
        <text transform="translate(252.56 419)"><tspan x="0" y=".71em">Jan</tspan><tspan x="0" dy="1em">2024</tspan></text>
        <text y=".71em" transform="translate(309.269 419)">Apr</text>
        <text y=".71em" transform="translate(365.977 419)">Jul</text>
        <text y=".71em" transform="translate(423.309 419)">Oct</text>
        <text transform="translate(480.64 419)"><tspan x="0" y=".71em">Jan</tspan><tspan x="0" dy="1em">2025</tspan></text>
        <text y=".71em" transform="translate(536.726 419)">Apr</text>
        <text y=".71em" transform="translate(593.435 419)">Jul</text>
        <text y=".71em" transform="translate(650.767 419)">Oct</text>
        <text transform="translate(708.098 419)"><tspan x="0" y=".71em">Jan</tspan><tspan x="0" dy="1em">2026</tspan></text>
        <text y=".71em" transform="translate(764.184 419)">Apr</text>
    </g>
    <path fill="none" stroke="currentColor" stroke-linecap="round" stroke-linejoin="round" stroke-width="1.5" d="
m60
410
.415
-3.157
.416
-11.546
.415
-6.226
.416
-4.414
.415
-7.282
.416
-5.736
.415
-5.376
.416
-10.88
.415
-8.609
.415
-10.219
.416
-15.828
.415
-14.923
.416
-7.748
.415
-11.213
.416
-7.615
.415
-8.729
.416
-11.414
.415
-7.684
.416
-7.534
.415
-10.225
.415
-11.339
.416
-8.03
.415
-13.703
.416
-6.49
.415
-6.056
.416
-10.923
.415
-10.458
.416
-8.05
.415
-11.219
.415
-8.03
.416
1.358
.415
-9.565
.416
-8.112
.415
.025
.416
-1.824
.415
-.314
.416
6.282
.415
.082
.415
1.88
.416
10.012
.415
1.471
.416
-6.314
.415
-1.389
.416
-7.654
.415
-1.622
.416
2.597
.415
-4.327
.415
-2.515
.416
2.949
.415
-1.767
.416
-4.641
.415
1.881
.416
-10.458
.415
-10.037
.416
2.553
.415
-1.962
.416
-3.157
.415
1.176
.415
-3.031
.416
-3.169
.415
4.188
.416
-1.421
.415
-6.113
.416
-3.956
.415
-9.797
.416
-4.931
.415
-.069
L88.25
64
l.416
-4
.415
6.113
.416
4.603
.415
2.396
.416
5.754
.415
-2.132
.416
-3.553
.415
4.962
.415
.264
.416
-.365
.415
8.081
.416
4.893
.415
4.081
.416
8.728
.415
5.453
.416
-2.447
.415
3.975
.415
-.491
.416
1.83
.415
8.855
.416
1.037
.415
3.088
.416
9.339
.415
5.653
.416
4.075
.415
7.741
.416
-1.113
.415
-.66
.415
4.019
.416
2.886
.415
1.189
.416
3.571
.415
.548
.416
4.012
.415
6.892
.416
3.295
.415
-3.238
.415
1.716
.416
-2.735
.415
-1.968
.416
1.282
.415
-1.672
.416
1.779
.415
4.509
.416
2.629
.415
2.044
.415
3.962
.416
.018
.415
-2.075
.416
6.157
.415
2.056
.416
-1.031
.415
2.402
.416
-.044
.415
2.05
.416
5.503
.415
.78
.415
-3.044
.416
-1.107
.415
-4.308
.416
-.371
.415
2.484
.416
-1.905
.415
-1.176
.416
4.32
.415
.862
.415
.666
.416
2.597
.415
-4.301
.416
-1.817
.415
2.144
.416
-.987
.415
-1.975
.416
1.912
.415
.258
.415
-.39
.416
3.402
.415
1.075
.416
.422
.415
1.062
.416
-1.962
.415
-.176
.416
1.761
.415
-1.968
.415
-.34
.416
3.415
.415
5.54
.416
1.585
.415
4.396
.416
-.069
.415
.314
.416
2.025
.415
.176
.416
-.786
.415
3.918
.415
-.239
.416
1.421
.415
6.276
.416
1.723
.415
1.006
.416
2.899
.415
.327
.416
.34
.415
.025
.415
1.327
.416
-.994
.415
2.925
.416
-.566
.415
.251
.416
1.478
.415
-1.792
.416
-.044
.415
1.314
.415
-1.509
.416
-1.302
.415
-.107
.416
-2.654
.415
-1.339
.416
2.063
.415
.05
.416
-.686
.415
2.943
.415
-.924
.416
1.333
.415
2.679
.416
.327
.415
-.604
.416
2.145
.415
-.767
.416
-.623
.415
3.119
.416
-.603
.415
.239
.415
2.169
.416
-1.308
.415
-1.075
.416
1.176
.415
-1.365
.416
.836
.415
1.277
.416
-1.107
.415
.334
.415
1.867
.416
.491
.415
-1.321
.416
3.704
.415
2.333
.416
-1.094
.415
2.729
.416
-.924
.415
-.73
.415
1.516
.416
-2.038
.415
.013
.416
.019
.415
-2.377
.416
-1.585
.415
3.478
.416
-3.025
.415
-1.352
.416
1.195
.415
-1.585
.415
-.415
.416
1.679
.415
-1.73
.416
-1.201
.415
1.044
.416
-2.798
.415
-.22
.416
1.39
.415
-.629
.415
-2.201
.416
-1.61
.415
-4.107
.416
-1.32
h.415
l.416
-1.503
.415
-1.434
.416
2.993
.415
-1.855
.415
-.547
.416
2.365
.415
-1.327
.416
.295
.415
3.855
.416
-.604
.415
-2.647
.416
3.459
.415
-.195
.415
-2.415
.416
.918
.415
-3.119
.416
-.365
.415
.66
.416
-1.93
.415
-.736
.416
2.333
.415
-.685
.416
-.239
.415
2.817
.415
1.786
.416
3.308
.415
6.42
.416
1.164
.415
-.516
.416
1.698
.415
.352
.416
-1.327
.415
1.717
.415
.484
.416
-1.113
.415
2.082
.416
.874
.415
-.843
.416
1.252
.415
-.252
.416
.113
.415
1.233
.415
2.547
.416
2.723
.415
4.062
.416
1.503
.415
2.969
.416
5.056
.415
-1.12
.416
.686
.415
2.157
.415
-.724
.416
1.132
.415
1.925
.416
.773
.415
1.874
.416
1.453
.415
1.396
.416
.358
.415
.12
.416
-2.723
.415
-2.314
.415
1.345
.416
.019
.415
.793
.416
.742
.415
.264
.416
1.144
.415
3.082
.416
-.566
.415
-.704
.415
1.012
.416
-1.893
.415
1.195
.416
1.415
.415
-1.207
.416
-.403
.415
4.107
.416
-.158
.415
.396
.415
1.994
.416
-3.32
.415
-.9
.416
1.013
.415
-1.717
.416
.843
.415
1.257
.416
1.107
.415
1.415
.416
3.874
.415
1.339
.415
-2.207
.416
-.949
.415
-2.73
.416
-.32
.415
1.352
.416
.056
.415
-.126
.416
1.39
.415
.598
.415
.792
.416
2.522
.415
-4.201
.416
-3.214
.415
.082
.416
-.251
.415
.44
.416
3.037
.415
-.264
.415
1.39
.416
2.968
.415
-1.421
.416
-3.993
.415
-.359
.416
-3.232
.415
-.51
.416
.541
.415
-1.798
.415
.666
.416
2.151
.415
1.119
.416
.824
.415
2.887
.416
-.956
.415
-.082
.416
1.956
.415
-1.283
.416
.572
.415
3.132
.415
.465
.416
.189
.415
2.069
.416
.138
.415
-2.226
.416
-.113
.415
-1.151
.416
-.094
.415
1.182
.415
-.975
.416
.824
.415
3.603
.416
2.396
.415
2.359
.416
3.138
.415
-.233
.416
-.138
.415
3.282
.415
.554
.416
1.723
.415
2.54
.416
2.069
.415
1.22
.416
4.019
.415
-1.27
.416
-2.415
.415
.239
.415
-1.315
.416
-1.509
.415
.799
.416
-.484
.415
2.873
.416
2.899
.415
1.535
.416
.365
.415
.754
.416
-2.452
.415
.075
.415
.78
.416
-1.61
.415
-.824
.416
.415
.415
-2.836
.416
.227
.415
.729
.416
.214
.415
-1.409
.415
-.547
.416
-2.245
.415
-.019
.416
1.61
.415
-1.283
.416
-1.408
.415
2.584
.416
2.063
.415
2.094
.415
2.603
.416
.434
.415
-.629
.416
1.931
.415
-1.415
.416
-.346
.415
2.968
.416
1.491
.415
1.503
.416
2.893
.415
-.145
.415
-.264
.416
1.27
.415
.749
.416
1.1
.415
2.163
.416
.698
.415
1.183
.416
1
.415
.1
.415
1.346
.416
1.239
.415
-2.151
.416
-2.151
.415
1.491
.416
-.076
.415
-1.553
.416
-.346
.415
-1.327
.415
-.949
.416
-.195
.415
-1.006
.416
-1.359
.415
.843
.416
-.088
.415
-1.503
.416
-.591
.415
-2.579
.415
-.698
.416
1.541
.415
-.585
.416
1.113
.415
-.081
.416
-1.547
.415
1.025
.416
.018
.415
-1.251
.416
.258
.415
1.585
.415
.27
.416
1.245
.415
1.811
.416
.032
.415
-1.422
.416
-1.106
.415
-1.019
.416
.767
.415
1.22
.415
.396
.416
-.195
.415
-.025
.416
.069
.415
.68
.416
.125
.415
-1.05
.416
-2.912
.415
.755
.415
-1.742
.416
-.503
.415
1.836
.416
-1.597
.415
1.176
.416
2.094
.415
-2.779
.416
-2.925
.415
-.899
.416
-3.622
.415
-1.157
.415
-.686
.416
-1.723
.415
-.471
.416
.918
.415
-.837
.416
1.522
.415
.654
.416
-3.886
.415
-1.686
.415
-.591
.416
-1.132
.415
.78
.416
.635
.415
-2.616
.416
-.415
.415
-.176
.416
1.49
.415
-1.326
.415
-2.139
.416
-4.509
.415
-1.534
.416
-.912
.415
-4.471
.416
-2.006
.415
1.924
.416
1.554
.415
.704
.415
2.22
.416
-2.151
.415
-1.956
.416
1.233
.415
-.994
.416
-.868
.415
.082
.416
-1.503
.415
1.704
.416
2.585
.415
-.924
.415
-1.705
.416
1.365
.415
-1.855
.416
-.233
.415
1.541
.416
.226
.415
1.893
.416
1.403
.415
1.194
.415
3.541
.416
4.075
.415
-1.579
.416
.956
.415
3.214
.416
1.629
.415
.786
.416
.93
.415
.541
.415
1.591
.416
3.145
.415
.188
.416
-.855
.415
1.968
.416
-.591
.415
1.164
.416
2.735
.415
-.075
.415
.213
.416
2.736
.415
1.459
.416
-.415
.415
1.446
.416
-2.861
.415
-.547
.416
1.163
.415
1.881
.416
2.679
.415
3.597
.415
2.848
.416
2.862
.415
5.326
.416
2.943
.415
2.283
.416
2.088
.415
2.018
.416
2.516
.415
2.107
.415
1.245
.416
1.528
.415
3.358
.416
1.409
.415
-1.239
.416
1.811
.415
.736
.416
-.692
.415
.629
.415
1.182
.416
-.195
.415
.956
.416
.811
.415
.541
.416
2.748
.415
.566
h.416
l.415
-1.39
.416
-2.572
.415
-2.786
.415
-1.188
.416
-1.786
.415
-2.654
.416
-1.465
.415
-1.314
.416
-2.164
.415
-1.761
.416
-2.421
.415
-1.76
.415
-.994
.416
-1.597
.415
-.849
.416
-.415
.415
2.113
.416
.748
.415
1.207
.416
.296
.415
.113
.415
-.075
.416
-.397
.415
.441
.416
1.547
.415
.239
.416
.54
.415
1.283
.416
.459
.415
-.849
.415
.787
.416
.251
.415
-.528
.416
.484
.415
.648
.416
-.761
.415
-.786
.416
.824
.415
-.239
.416
.943
.415
.038
.415
-1.862
.416
-.333
.415
-1.302
h.416
l.415
-.339
.416
-.642
.415
-1.232
.416
-.195
.415
-.711
.415
-.579
.416
1.321
.415
-1.138
.416
-1.459
.415
.465
.416
-1.151
.415
.007
.416
.503
.415
1.547
.415
.289
.416
.604
.415
-.378
.416
-3.131
.415
-.157
.416
-1.101
.415
.786
.416
.006
.415
.22
.415
-1.018
.416
1.32
.415
1.17
.416
.145
.415
1.069
.416
-1.422
.415
-2.364
.416
.101
.415
-1.296
.416
.208
.415
.283
.415
-1.101
.416
-1.094
.415
1.144
.416
-.383
.415
-1.113
.416
1.39
.415
-2.246
.416
-.433
.415
-.73
.415
-1.119
.416
-.799
.415
.252
.416
1.371
.415
-.208
.416
.855
.415
-2.132
.416
-2.163
.415
-.761
.415
.271
.416
-2.447
.415
.032
.416
.182
.415
.164
.416
.446
.415
1.572
.416
-.452
.415
1.119
.416
-.862
.415
-.622
.415
2.981
.416
1.521
.415
-.037
.416
1.553
.415
-.352
.416
-.352
.415
2.572
.416
-.145
.415
-2.408
.415
1.213
.416
.61
.415
-1.025
.416
.925
.415
.999
.416
.642
.415
2.553
.416
2.107
.415
.836
.415
.661
.416
-.051
.415
-.371
.416
.466
.415
-1.126
.416
.522
.415
.126
.416
.836
.415
.635
.415
1.195
.416
.623
.415
-1.529
.416
.233
.415
.535
h.416
l.415
2.226
.416
.434
.415
-.529
.416
-.232
.415
1.855
.415
.126
.416
.742
.415
.629
.416
.176
.415
.163
.416
-.371
.415
-.918
.416
-.05
.415
-.145
.415
-.163
.416
1.238
.415
-.622
.416
-2.522
.415
.434
.416
-.585
.415
.308
.416
-.188
.415
-.874
.415
-.529
.416
.73
.415
.666
.416
-.729
.415
-.541
.416
-.56
.415
-1.521
.416
-.422
.415
-1.364
.415
-.981
.416
-.881
.415
-1.987
.416
-1.534
.415
-1.107
.416
-1.623
.415
-.566
.416
-.132
.415
-2.239
.416
-.603
.415
-.063
.415
-.748
.416
.27
.415
2.044
.416
-1.673
.415
-2.453
.416
-2.257
.415
-3.497
.416
-2.515
.415
-.598
.415
-3.112
.416
-3.755
.415
-1.459
.416
-1.22
.415
-1.66
.416
-1.239
.415
-.748
.416
-1.975
.415
.692
.415
1.534
.416
.239
.415
1.591
.416
1.114
.415
.974
.416
1.359
.415
-.818
.416
-.792
.415
1.144
.416
-.195
.415
-.434
.415
.629
.416
.019
.415
-.339
.416
4.842
.415
3.899
.416
3.572
.415
3.685
.416
3.163
.415
1.22
.415
3.597
.416
3.629
.415
1.823
.416
1.327
.415
2.264
.416
.899
.415
1.95
.416
2.176
.415
1.22
.415
-.529
.416
.761
.415
-.289
.416
.283
.415
.522
.416
.874
.415
1.063
.416
2.151
.415
1.911
.415
1.051
.416
1.314
.415
.151
.416
.277
.415
-.095
.416
-.44
.415
-.566
.416
-.057
.415
-.232
.416
-.057
.415
-.289
.415
-1.679
.416
-1.327
.415
-2.616
.416
-.05
.415
-.598
.416
.39
.415
.484
.416
-.207
.415
-.635
.415
.075
.416
-.503
.415
-2.905
.416
-.629
.415
.465
.416
-1.641
.415
-.233
.416
.05
.415
-.742
.415
-.283
.416
-.163
.415
-.302
.416
-1.006
.415
-1.176
.416
-2.264
.415
.283
.416
.251
.415
.139
.415
-.346
.416
1.302
.415
1.886
.416
1.239
.415
3.138
.416
.201
.415
.592
.416
1.025
h.415
l.416
1.358
.415
.88
.415
.315
.416
1.264
.415
3.779
.416
-.176
.415
-.434
.416
1.371
.415
-.629
.416
.29
.415
1.113
.415
.069
.416
.371
.415
1.333
.416
1.384
.415
1.786
.416
2.723
.415
-.919
.416
-.195
.415
1.277
.415
.962
h.416
l.415
-.232
.416
.333
.415
-1.113
.416
.49
.415
-.742
.416
-1.924
.415
-.893
.416
-2.453
.415
-1.062
.415
.339
.416
.12
.415
-.233
.416
.736
.415
.603
.416
.598
.415
.566
.416
-1.164
.415
-1.119
.415
.547
.416
-.912
.415
.252
.416
.358
.415
-1.018
.416
-.195
.415
1.15
.416
.095
.415
-1.195
.415
-.943
.416
-.793
.415
.315
.416
-.126
.415
.283
.416
-.421
.415
.742
.416
1.106
.415
.887
.415
1.748
.416
.032
.415
-.786
.416
.503
.415
.1
.416
.158
.415
.295
.416
-.239
.415
.855
.416
1.315
.415
.754
.415
.428
.416
1.528
.415
-.119
.416
-.29
.415
1.208
.416
.471
.415
-.138
.416
-.742
.415
.352
.415
-.371
.416
.937
.415
-.094
.416
.534
.415
.459
.416
.271
.415
.736
.416
.981
.415
-.176
.415
.345
.416
1.202
.415
.327
.416
-1.013
.415
.271
.416
-.359
.415
-.05
.416
-.503
.415
-.334
.415
-.106
.416
.471
.415
-.71
.416
-.749
.415
-.365
.416
-.999
.415
-.032
.416
-.924
h.415
l.416
1.031
.415
.522
.415
.893
.416
-.025
.415
.075
.416
-.245
.415
-.566
.416
-.277
.415
-2.402
.416
-1.302
.415
-.276
.415
-.918
.416
-.478
.415
.496
.416
-.547
.415
-1.528
.416
.472
.415
-1.308
.416
.421
.415
.509
.415
-.93
.416
-.29
.415
.158
.416
.264
.415
-.516
.416
1.145
.415
-.591
.416
.427
.415
-.082
.416
.063
.415
-.302
.415
.026
.416
-.371
.415
-.654
.416
-.126
.415
-.403
.416
.145
.415
1.66
.416
.459
.415
.088
.415
.283
.416
-.371
.415
.088
.416
1.648
.415
.868
.416
-.076
.415
1.032
.416
-.246
.415
-1.012
.415
-1.044
.416
-2.239
.415
-1.195
.416
-.471
.415
.314
.416
-.044
.415
-.012
.416
-.592
.415
.283
.415
.095
.416
-1.227
.415
-1.05
.416
.113
.415
-.138
.416
-.277
.415
.755
.416
-.201
.415
-.648
.416
-.685
.415
.094
.415
.22
.416
.855
.415
.038
.416
-.34
.415
1.164
.416
-.793
.415
.315
.416
.094
.415
-.113
.415
1
.416
1.025
.415
.22
.416
-.214
.415
-.05
.416
-1.365
h.415
l.416
.453
.415
-1.063
.415
-.471
.416
.735
.415
-.182
.416
-.075
.415
.584
.416
-.44
.415
.088
.416
-.912
.415
.692
.415
.132
.416
-.377
.415
.327
.416
-.05
.415
-.202
.416
-1.798
.415
-2.34
.416
.365
.415
-1.509
.416
-.038
.415
.113
.415
-1.188
.416
.157
.415
.333
.416
-.346
.415
.239
.416
.919
.415
-.177
.416
-.295
.415
.748
.415
-.289
.416
.314
.415
.705
.416
-1.189
.415
-.522
.416
.862
.415
.27
.416
1.138
.415
.088
.415
1.063
.416
1.12
.415
.358
.416
-.295
.415
.773
.416
2.05
.415
1.535
.416
.578
.415
1.371
.416
-.163
.415
.968
.415
1.365
.416
1.207
.415
-.069
.416
1.006
.415
-.321
.416
.95
.415
.704
.416
-.465
.415
.346
.415
.408
.416
.724
.415
.673
.416
.811
.415
.824
.416
.195
.415
.729
.416
.352
.415
.837
.415
.314
.416
.195
.415
-.56
.416
-.063
.415
-.66
.416
.428
.415
.478
.416
.603
.415
.673
.415
1.484
.416
-.32
.415
.553
.416
-.101
.415
1.497
.416
.069
.415
.843
.416
-.585
.415
.409
.416
1.522
.415
.591
.415
.163
.416
-.49
.415
.094
.416
.811
.415
.258
.416
.378
.415
-.139
.416
.679
.415
.158
.415
.377
.416
-.182
.415
1.27
.416
1.044
.415
1.207
.416
.12
.415
.603
.416
.478
.415
.202
.415
.094
.416
1.107
.415
.553
.416
.39
.415
.157
.416
.403
.415
.704
.416
.692
.415
-.101
.415
.044
.416
.208
.415
.125
.416
.73
.415
.516
.416
.32
.415
.176
.416
.038
.415
.315
.416
.132
.415
.05
.415
.27
.416
.453
.415
-.352
.416
-.019
.415
-.182
.416
-.271
.415
-.566
.416
-.32
.415
-.258
.415
-.378
.416
-.05
.415
-.176
.416
-.088
.415
-.113
.416
-.554
.415
-.805
.416
-.037
.415
-.365
.415
.189
.416
.006
.415
.717
.416
-.302
.415
-.824
.416
.113
.415
-.44
.416
-.22
.415
-.233
.416
-.239
.415
-.025
.415
-.201
.416
-.151
.415
-.201
.416
-.189
.415
-.409
.416
.007
.415
.61
.416
-.258
.415
.088
.415
.258
.416
.138
.415
.195
.416
.403
.415
-.07
.416
.365
.415
.629
.416
.094
.415
.579
.415
.107
.416
.056
.415
-.012
.416
.44
.415
.572
.416
-.037
.415
.578
.416
-.182
.415
-.202
.415
-.012
.416
-.302
.415
-.34
.416
-.194
.415
.377
.416
.088
.415
.113
.416
.113
.415
-.17
.416
.214
.415
-.503
.415
.113
.416
-.125
.415
-.132
.416
-.548
.415
.07
.416
-.365
.415
-.403
.416
.063
.415
-.981
.415
-.541
.416
-.069
.415
-.509
h.416
l.415
-.006
.416
.239
.415
-.038
.416
.641
.415
.365
.415
-.057
.416
.151
.415
.107
.416
.057
.415
-.78
.416
.126
.415
.163
.416
.315
.415
-.245
.416
.031
.415
-.006
.415
-.051
.416
-.251
.415
-.252
.416
.239
.415
.145
.416
.283
.415
.094
.416
.315
.415
.83
.415
.314
.416
-.339
.415
.32
.416
-.195
.415
.239
.416
-.717
.415
-.515
.416
-.264
.415
-.12
.415
-.478
.416
-.063
.415
.271
.416
.421
.415
.761
.416
.157
.415
-.251
.416
-.214
.415
.402
.415
.346
.416
.308
.415
.132
.416
-.113
.415
.277
.416
.327
.415
.119
.416
.636
.415
.371
.416
-.038
.415
.182
.415
.076
.416
.484
.415
.283
.416
.239
.415
.138
.416
.415
.415
.164
.416
.396
.415
-.164
.415
-.031
.416
-.937
.415
-.673
.416
-.075
.415
.037
.416
-.157
.415
.447
.416
.157
.415
-.239
.415
-.478
.416
-.189
.415
-.308
.416
.277
.415
.402
.416
-.012
.415
-.698
.416
-.315
.415
-.138
.415
-.277
.416
-.157
.415
-.245
.416
-.29
.415
-.679
.416
.145
.415
.101
.416
.125
.415
.434
.416
.082
.415
-.371
.415
.654
.416
.711
.415
.301
.416
.277
.415
.271
.416
.345
.415
.195
.416
.076
.415
.239
.415
.591
.416
.302
.415
.144
.416
.007
.415
-.069
.416
.289
.415
.748
.416
.308
.415
.246
.415
.352
.416
.025
.415
.138
.416
-.698
.415
-.346
.416
-.635
.415
-.126
.416
.221
.415
-.145
.416
-.434
.415
.553
.415
-.125
.416
-.353
.415
-.062
.416
-.447
.415
-.748
.416
-.321
.415
-.138
.416
-.189
.415
-.013
.415
-.496
.416
-.139
.415
-.025
.416
.132
.415
-.534
.416
-.547
.415
-.774
.416
-.22
.415
.006
.415
-.038
.416
.101
.415
.176
.416
.969
.415
1.119
.416
.491
.415
.144
.416
-.314
.415
.1
.415
-.107
.416
.202
.415
.201
.416
.761
.415
.61
.416
-.019
.415
.365
.416
-.145
.415
-.063
.416
.239
h.415
l.415
.289
.416
.202
.415
.188
.416
-.125
.415
.144
.416
.063
.415
.774
.416
-.088
.415
-.214
.415
-.157
.416
.075
.415
.075
.416
.164
.415
.057
.416
-.095
.415
.032
.416
.044
.415
.012
.415
.56
.416
-.069
.415
.031
.416
-.05
.415
-.151
.416
.057
.415
.339
.416
.327
.415
.264
.415
-.012
.416
.006
.415
-.358
.416
.377
.415
-.233
.416
-.056
.415
.383
.416
.17
.415
-.277
.416
-.069
.415
-.283
.415
-.302
.416
-.226
.415
-.371
.416
-.082
.415
-.189
.416
.12
.415
-.145
.416
.227
.415
.327
.415
-.044
.416
-.032
.415
-.019
.416
.189
.415
.17
.416
.056
.415
-.062
.416
-.283
.415
-.12
.415
-.044
.416
.038
.415
.364
.416
-.062
.415
.169
.416
-.257
.415
-.057
.416
.05
.415
-.006
.416
.365
.415
.364
.415
.252
.416
.075
.415
.566
.416
-.402
.415
-.069
.416
.012
.415
-.031
.416
-.478
.415
-.195
.415
-.239
.416
.019
.415
.031
.416
-.427
.415
.17
.416
.352
.415
-.302
.416
-.239
.415
-.208
.415
.12
.416
.126
.415
.239
.416
-.076
h.415
l.416
.327
.415
-.434
.416
-.1
.415
.025
.415
-.139
.416
-.503
.415
-.283
.416
.176
.415
-.308
.416
.378
.415
.069
.416
.082
.415
-.089
.416
.321
.415
-.113
.415
-.138
.416
-1.063
.415
-.403
.416
.082
.415
-.805
.416
-.685
.415
.119
.416
-.22
.415
.296
.415
-.453
.416
-.164
.415
-.478
h.416
l.415
-.421
.416
-.063
.415
.233
.416
-.101
.415
-.094
.415
-.409
.416
.007
.415
.377
.416
-.032
.415
-.39
.416
-.276
.415
-.227
.416
-.478
.415
-.113
.415
-.195
.416
.025
.415
-.238
.416
.974
.415
.208
.416
-.201
.415
.327
.416
-.195
.415
-.233
.416
.786
.415
-.239
.415
.245
.416
.076
.415
-.491
.416
-.201
.415
.214
.416
-.05
.415
-.34
.416
.251
.415
.271
.415
.396
.416
.572
.415
-.383
.416
-.176
.415
.383
.416
.334
.415
.333
.416
.415
.415
-.315
.415
-.056
.416
-.308
.415
.069
.416
-1.038
.415
-.899
.416
-.541
.415
-.333
.416
-.258
.415
-.799
.416
-.333
.415
-.975
.415
-.685
.416
-.547
.415
-.082
.416
-.39
.415
-.893
.416
-.251
.415
-.698
.416
-.403
.415
-.484
.415
-.44
.416
-.139
.415
-.239
.416
-.836
.415
-.145
.416
-.484
.415
-1.723
.416
-.402
.415
-.189
.415
-.428
.416
-.314
.415
.151
.416
.113
.415
.352
.416
.604
.415
.295
.416
.617
.415
.905
.415
-.119
.416
1.157
.415
.773
.416
.158
.415
.685
.416
.057
.415
.509
.416
.34
.415
.786
.416
.352
.415
.333
.415
.17
.416
-.239
.415
.579
.416
1.031
.415
-.076
.416
.07
.415
1.238
.416
-.188
.415
-.025
.415
.471
.416
.44
.415
.189
.416
.403
.415
.547
.416
.364
.415
.076
.416
.113
.415
.264
.415
.164
.416
-.434
.415
-.157
.416
-.12
.415
.182
.416
-.163
.415
.635
.416
-.201
.415
.314
.415
.051
.416
.063
.415
-.045
.416
.221
.415
-.057
.416
-.082
.415
.447
.416
.484
.415
.591
.416
.711
.415
.905
.415
.409
.416
.478
.415
.252
.416
.792
.415
.352
.416
.22
.415
.459
.416
.409
.415
.176" aria-label="line"/>
</svg>
