<?xml version="1.0"?>
<svg xmlns="http://www.w3.org/2000/svg" xmlns:xlink="http://www.w3.org/1999/xlink" class="plot-d6a7b5" fill="currentColor" font-family="system-ui, sans-serif" font-size="10" text-anchor="middle" width="830" height="470" viewBox="0 0 830 470" color="#1e90ff">
  <style>:where(.plot-d6a7b5){--plot-background: white;display:block;height:intrinsic;max-width:100%}:where(.plot-d6a7b5 text),:where(.plot-d6a7b5 tspan){white-space:pre}</style>
  <g aria-label="y-grid" aria-hidden="true" stroke="currentColor" stroke-opacity=".1">
    <line x1="60" x2="770" y1="410" y2="410"/>
    <line x1="60" x2="770" y1="378.557" y2="378.557"/>
    <line x1="60" x2="770" y1="347.114" y2="347.114"/>
    <line x1="60" x2="770" y1="315.671" y2="315.671"/>
    <line x1="60" x2="770" y1="284.227" y2="284.227"/>
    <line x1="60" x2="770" y1="252.784" y2="252.784"/>
    <line x1="60" x2="770" y1="221.341" y2="221.341"/>
    <line x1="60" x2="770" y1="189.898" y2="189.898"/>
    <line x1="60" x2="770" y1="158.455" y2="158.455"/>
    <line x1="60" x2="770" y1="127.012" y2="127.012"/>
    <line x1="60" x2="770" y1="95.568" y2="95.568"/>
    <line x1="60" x2="770" y1="64.125" y2="64.125"/>
  </g>
  <g aria-label="y-axis tick" aria-hidden="true" fill="none" stroke="currentColor">
    <path transform="translate(60,410)" d="M0,0L-6,0"/>
    <path transform="translate(60,378.55684921661634)" d="M0,0L-6,0"/>
    <path transform="translate(60,347.11369843323274)" d="M0,0L-6,0"/>
    <path transform="translate(60,315.6705476498491)" d="M0,0L-6,0"/>
    <path transform="translate(60,284.2273968664655)" d="M0,0L-6,0"/>
    <path transform="translate(60,252.7842460830818)" d="M0,0L-6,0"/>
    <path transform="translate(60,221.34109529969817)" d="M0,0L-6,0"/>
    <path transform="translate(60,189.8979445163145)" d="M0,0L-6,0"/>
    <path transform="translate(60,158.45479373293085)" d="M0,0L-6,0"/>
    <path transform="translate(60,127.01164294954722)" d="M0,0L-6,0"/>
    <path transform="translate(60,95.56849216616357)" d="M0,0L-6,0"/>
    <path transform="translate(60,64.12534138277994)" d="M0,0L-6,0"/>
  </g>
  <g aria-label="y-axis tick label" text-anchor="end" font-variant="tabular-nums">
    <text y=".32em" transform="translate(-9,0) translate(60,410)">0</text>
    <text y=".32em" transform="translate(-9,0) translate(60,378.55684921661634)">5,000</text>
    <text y=".32em" transform="translate(-9,0) translate(60,347.11369843323274)">10,000</text>
    <text y=".32em" transform="translate(-9,0) translate(60,315.6705476498491)">15,000</text>
    <text y=".32em" transform="translate(-9,0) translate(60,284.2273968664655)">20,000</text>
    <text y=".32em" transform="translate(-9,0) translate(60,252.7842460830818)">25,000</text>
    <text y=".32em" transform="translate(-9,0) translate(60,221.34109529969817)">30,000</text>
    <text y=".32em" transform="translate(-9,0) translate(60,189.8979445163145)">35,000</text>
    <text y=".32em" transform="translate(-9,0) translate(60,158.45479373293085)">40,000</text>
    <text y=".32em" transform="translate(-9,0) translate(60,127.01164294954722)">45,000</text>
    <text y=".32em" transform="translate(-9,0) translate(60,95.56849216616357)">50,000</text>
    <text y=".32em" transform="translate(-9,0) translate(60,64.12534138277994)">55,000</text>
  </g>
  <g aria-label="y-axis label" text-anchor="start">
    <text y=".71em" transform="translate(-57,-57) translate(60,60)">&#x2191; Visible Vestiges (30 days)</text>
  </g>
  <g aria-label="x-axis tick" aria-hidden="true" fill="none" stroke="currentColor">
    <path transform="translate(84.76744186046511,410)" d="M0,0L0,6"/>
    <path transform="translate(151.05677154582762,410)" d="M0,0L0,6"/>
    <path transform="translate(218.07455540355676,410)" d="M0,0L0,6"/>
    <path transform="translate(285.0923392612859,410)" d="M0,0L0,6"/>
    <path transform="translate(351.38166894664846,410)" d="M0,0L0,6"/>
    <path transform="translate(417.6709986320109,410)" d="M0,0L0,6"/>
    <path transform="translate(484.6887824897401,410)" d="M0,0L0,6"/>
    <path transform="translate(551.7065663474692,410)" d="M0,0L0,6"/>
    <path transform="translate(617.267441860465,410)" d="M0,0L0,6"/>
    <path transform="translate(683.5567715458276,410)" d="M0,0L0,6"/>
    <path transform="translate(750.5745554035567,410)" d="M0,0L0,6"/>
  </g>
  <g aria-label="x-axis tick label" font-variant="tabular-nums">
    <text transform="translate(0,9) translate(84.76744186046511,410)">
      <tspan x="0" y=".71em">Apr</tspan>
      <tspan x="0" dy="1em">2023</tspan>
    </text>
    <text y=".71em" transform="translate(0,9) translate(151.05677154582762,410)">Jul</text>
    <text y=".71em" transform="translate(0,9) translate(218.07455540355676,410)">Oct</text>
    <text transform="translate(0,9) translate(285.0923392612859,410)">
      <tspan x="0" y=".71em">Jan</tspan>
      <tspan x="0" dy="1em">2024</tspan>
    </text>
    <text y=".71em" transform="translate(0,9) translate(351.38166894664846,410)">Apr</text>
    <text y=".71em" transform="translate(0,9) translate(417.6709986320109,410)">Jul</text>
    <text y=".71em" transform="translate(0,9) translate(484.6887824897401,410)">Oct</text>
    <text transform="translate(0,9) translate(551.7065663474692,410)">
      <tspan x="0" y=".71em">Jan</tspan>
      <tspan x="0" dy="1em">2025</tspan>
    </text>
    <text y=".71em" transform="translate(0,9) translate(617.267441860465,410)">Apr</text>
    <text y=".71em" transform="translate(0,9) translate(683.5567715458276,410)">Jul</text>
    <text y=".71em" transform="translate(0,9) translate(750.5745554035567,410)">Oct</text>
  </g>
  <g aria-label="line" fill="none" stroke="currentColor" stroke-width="1.5" stroke-linejoin="round" stroke-linecap="round">
    <path d="M60,
410.00L
60.49,
406.84L
60.97,
395.30L
61.46,
389.07L
61.94,
384.66L
62.43,
377.38L
62.91,
371.64L
63.40,
366.26L
63.89,
355.38L
64.37,
346.77L
64.86,
336.56L
65.34,
320.73L
65.83,
305.80L
66.31,
298.06L
66.80,
286.84L
67.29,
279.23L
67.77,
270.50L
68.26,
259.08L
68.74,
251.40L
69.23,
243.87L
69.71,
233.64L
70.20,
222.30L
70.68,
214.27L
71.17,
200.57L
71.66,
194.08L
72.14,
188.02L
72.63,
177.10L
73.11,
166.64L
73.60,
158.59L
74.08,
147.37L
74.57,
139.34L
75.06,
140.70L
75.54,
131.14L
76.03,
123.03L
76.51,
123.05L
77.00,
121.23L
77.48,
120.91L
77.97,
127.19L
78.45,
127.28L
78.94,
129.16L
79.43,
139.17L
79.91,
140.64L
80.40,
134.32L
80.88,
132.94L
81.37,
125.28L
81.85,
123.66L
82.34,
126.26L
82.83,
121.93L
83.31,
119.42L
83.80,
122.36L
84.28,
120.60L
84.77,
115.96L
85.25,
117.84L
85.74,
107.38L
86.22,
97.34L
86.71,
99.90L
87.20,
97.93L
87.68,
94.78L
88.17,
95.95L
88.65,
92.92L
89.14,
89.75L
89.62,
93.94L
90.11,
92.52L
90.60,
86.41L
91.08,
82.45L
91.57,
72.65L
92.05,
67.72L
92.54,
67.65L
93.02,
64.00L
93.51,
60.00L
94.00,
66.11L
94.48,
70.72L
94.97,
73.11L
95.45,
78.87L
95.94,
76.73L
96.42,
73.18L
96.91,
78.14L
97.39,
78.41L
97.88,
78.04L
98.37,
86.12L
98.85,
91.02L
99.34,
95.10L
99.82,
103.83L
100.31,
109.28L
100.79,
106.83L
101.28,
110.81L
101.77,
110.32L
102.25,
112.15L
102.74,
121.00L
103.22,
122.04L
103.71,
125.13L
104.19,
134.46L
104.68,
140.12L
105.16,
144.19L
105.65,
151.93L
106.14,
150.82L
106.62,
150.16L
107.11,
154.18L
107.59,
157.07L
108.08,
158.25L
108.56,
161.82L
109.05,
162.37L
109.54,
166.39L
110.02,
173.28L
110.51,
176.57L
110.99,
173.33L
111.48,
175.05L
111.96,
172.32L
112.45,
170.35L
112.93,
171.63L
113.42,
169.96L
113.91,
171.74L
114.39,
176.25L
114.88,
178.87L
115.36,
180.92L
115.85,
184.88L
116.33,
184.90L
116.82,
182.82L
117.31,
188.98L
117.79,
191.04L
118.28,
190.01L
118.76,
192.41L
119.25,
192.36L
119.73,
194.41L
120.22,
199.92L
120.71,
200.70L
121.19,
197.65L
121.68,
196.55L
122.16,
192.24L
122.65,
191.87L
123.13,
194.35L
123.62,
192.45L
124.10,
191.27L
124.59,
195.59L
125.08,
196.45L
125.56,
197.12L
126.05,
199.71L
126.53,
195.41L
127.02,
193.60L
127.50,
195.74L
127.99,
194.75L
128.48,
192.78L
128.96,
194.69L
129.45,
194.95L
129.93,
194.56L
130.42,
197.96L
130.90,
199.04L
131.39,
199.46L
131.87,
200.52L
132.36,
198.56L
132.85,
198.38L
133.33,
200.14L
133.82,
198.17L
134.30,
197.83L
134.79,
201.25L
135.27,
206.79L
135.76,
208.37L
136.25,
212.77L
136.73,
212.70L
137.22,
213.02L
137.70,
215.04L
138.19,
215.22L
138.67,
214.43L
139.16,
218.35L
139.64,
218.11L
140.13,
219.53L
140.62,
225.81L
141.10,
227.53L
141.59,
228.54L
142.07,
231.43L
142.56,
231.76L
143.04,
232.10L
143.53,
232.13L
144.01,
233.45L
144.50,
232.46L
144.99,
235.38L
145.47,
234.82L
145.96,
235.07L
146.44,
236.55L
146.93,
234.76L
147.42,
234.71L
147.90,
236.03L
148.39,
234.52L
148.87,
233.21L
149.36,
233.11L
149.84,
230.45L
150.33,
229.11L
150.81,
231.18L
151.30,
231.23L
151.79,
230.54L
152.27,
233.48L
152.76,
232.56L
153.24,
233.89L
153.73,
236.57L
154.21,
236.90L
154.70,
236.30L
155.19,
238.44L
155.67,
237.67L
156.16,
237.05L
156.64,
240.17L
157.13,
239.57L
157.61,
239.81L
158.10,
241.97L
158.58,
240.67L
159.07,
239.59L
159.56,
240.77L
160.04,
239.40L
160.53,
240.24L
161.01,
241.52L
161.50,
240.41L
161.98,
240.74L
162.47,
242.61L
162.96,
243.10L
163.44,
241.78L
163.93,
245.48L
164.41,
247.82L
164.90,
246.72L
165.38,
249.45L
165.87,
248.53L
166.35,
247.80L
166.84,
249.31L
167.33,
247.28L
167.81,
247.29L
168.30,
247.31L
168.78,
244.93L
169.27,
243.35L
169.75,
246.82L
170.24,
243.80L
170.73,
242.45L
171.21,
243.64L
171.70,
242.06L
172.18,
241.64L
172.67,
243.32L
173.15,
241.59L
173.64,
240.39L
174.12,
241.43L
174.61,
238.64L
175.10,
238.42L
175.58,
239.81L
176.07,
239.18L
176.55,
236.98L
177.04,
235.37L
177.52,
231.26L
178.01,
229.94L
178.50,
229.94L
178.98,
228.44L
179.47,
227.00L
179.95,
229.99L
180.44,
228.14L
180.92,
227.59L
181.41,
229.96L
181.90,
228.63L
182.38,
228.93L
182.87,
232.78L
183.35,
232.18L
183.84,
229.53L
184.32,
232.99L
184.81,
232.79L
185.29,
230.38L
185.78,
231.30L
186.27,
228.18L
186.75,
227.81L
187.24,
228.47L
187.72,
226.54L
188.21,
225.81L
188.69,
228.14L
189.18,
227.45L
189.67,
227.22L
190.15,
230.03L
190.64,
231.82L
191.12,
235.13L
191.61,
241.55L
192.09,
242.71L
192.58,
242.19L
193.06,
243.89L
193.55,
244.24L
194.04,
242.92L
194.52,
244.63L
195.01,
245.12L
195.49,
244.01L
195.98,
246.09L
196.46,
246.96L
196.95,
246.12L
197.44,
247.37L
197.92,
247.12L
198.41,
247.23L
198.89,
248.46L
199.38,
251.01L
199.86,
253.73L
200.35,
257.80L
200.83,
259.30L
201.32,
262.27L
201.81,
267.32L
202.29,
266.20L
202.78,
266.89L
203.26,
269.05L
203.75,
268.32L
204.23,
269.46L
204.72,
271.38L
205.21,
272.15L
205.69,
274.03L
206.18,
275.48L
206.66,
276.88L
207.15,
277.23L
207.63,
277.35L
208.12,
274.63L
208.61,
272.32L
209.09,
273.66L
209.58,
273.68L
210.06,
274.47L
210.55,
275.22L
211.03,
275.48L
211.52,
276.62L
212.00,
279.71L
212.49,
279.14L
212.98,
278.44L
213.46,
279.45L
213.95,
277.56L
214.43,
278.75L
214.92,
280.17L
215.40,
278.96L
215.89,
278.56L
216.38,
282.66L
216.86,
282.50L
217.35,
282.90L
217.83,
284.89L
218.32,
281.57L
218.80,
280.67L
219.29,
281.69L
219.77,
279.97L
220.26,
280.81L
220.75,
282.07L
221.23,
283.18L
221.72,
284.59L
222.20,
288.47L
222.69,
289.81L
223.17,
287.60L
223.66,
286.65L
224.15,
283.92L
224.63,
283.60L
225.12,
284.95L
225.60,
285.01L
226.09,
284.88L
226.57,
286.27L
227.06,
286.87L
227.54,
287.66L
228.03,
290.18L
228.52,
285.98L
229.00,
282.77L
229.49,
282.85L
229.97,
282.60L
230.46,
283.04L
230.94,
286.08L
231.43,
285.81L
231.92,
287.20L
232.40,
290.17L
232.89,
288.75L
233.37,
284.76L
233.86,
284.40L
234.34,
281.17L
234.83,
280.65L
235.32,
281.20L
235.80,
279.40L
236.29,
280.06L
236.77,
282.21L
237.26,
283.33L
237.74,
284.16L
238.23,
287.05L
238.71,
286.09L
239.20,
286.01L
239.69,
287.96L
240.17,
286.68L
240.66,
287.25L
241.14,
290.38L
241.63,
290.85L
242.11,
291.04L
242.60,
293.11L
243.09,
293.25L
243.57,
291.02L
244.06,
290.91L
244.54,
289.76L
245.03,
289.66L
245.51,
290.84L
246.00,
289.87L
246.48,
290.69L
246.97,
294.30L
247.46,
296.69L
247.94,
299.05L
248.43,
302.19L
248.91,
301.96L
249.40,
301.82L
249.88,
305.10L
250.37,
305.65L
250.86,
307.38L
251.34,
309.92L
251.83,
311.99L
252.31,
313.21L
252.80,
317.22L
253.28,
315.95L
253.77,
313.54L
254.25,
313.78L
254.74,
312.46L
255.23,
310.95L
255.71,
311.75L
256.20,
311.27L
256.68,
314.14L
257.17,
317.04L
257.65,
318.58L
258.14,
318.94L
258.63,
319.70L
259.11,
317.24L
259.60,
317.32L
260.08,
318.10L
260.57,
316.49L
261.05,
315.66L
261.54,
316.08L
262.02,
313.24L
262.51,
313.47L
263.00,
314.20L
263.48,
314.41L
263.97,
313.00L
264.45,
312.46L
264.94,
310.21L
265.42,
310.19L
265.91,
311.80L
266.40,
310.52L
266.88,
309.11L
267.37,
311.70L
267.85,
313.76L
268.34,
315.85L
268.82,
318.46L
269.31,
318.89L
269.80,
318.26L
270.28,
320.19L
270.77,
318.78L
271.25,
318.43L
271.74,
321.40L
272.22,
322.89L
272.71,
324.39L
273.19,
327.29L
273.68,
327.14L
274.17,
326.88L
274.65,
328.15L
275.14,
328.90L
275.62,
330.00L
276.11,
332.16L
276.59,
332.86L
277.08,
334.04L
277.57,
335.04L
278.05,
335.14L
278.54,
336.49L
279.02,
337.73L
279.51,
335.57L
279.99,
333.42L
280.48,
334.91L
280.96,
334.84L
281.45,
333.29L
281.94,
332.94L
282.42,
331.61L
282.91,
330.66L
283.39,
330.47L
283.88,
329.46L
284.36,
328.10L
284.85,
328.95L
285.33,
328.86L
285.82,
327.36L
286.31,
326.76L
286.79,
324.19L
287.28,
323.49L
287.76,
325.03L
288.25,
324.44L
288.74,
325.56L
289.22,
325.48L
289.71,
323.93L
290.19,
324.95L
290.68,
324.97L
291.16,
323.72L
291.65,
323.98L
292.13,
325.56L
292.62,
325.83L
293.11,
327.08L
293.59,
328.89L
294.08,
328.92L
294.56,
327.50L
295.05,
326.39L
295.53,
325.37L
296.02,
326.14L
296.51,
327.36L
296.99,
327.76L
297.48,
327.56L
297.96,
327.54L
298.45,
327.61L
298.93,
328.29L
299.42,
328.41L
299.90,
327.36L
300.39,
324.45L
300.88,
325.20L
301.36,
323.46L
301.85,
322.96L
302.33,
324.80L
302.82,
323.20L
303.30,
324.37L
303.79,
326.47L
304.27,
323.69L
304.76,
320.76L
305.25,
319.87L
305.73,
316.24L
306.22,
315.09L
306.70,
314.40L
307.19,
312.68L
307.67,
312.21L
308.16,
313.12L
308.65,
312.29L
309.13,
313.81L
309.62,
314.46L
310.10,
310.58L
310.59,
308.89L
311.07,
308.30L
311.56,
307.17L
312.05,
307.95L
312.53,
308.58L
313.02,
305.97L
313.50,
305.55L
313.99,
305.38L
314.47,
306.87L
314.96,
305.54L
315.45,
303.40L
315.93,
298.89L
316.42,
297.36L
316.90,
296.45L
317.39,
291.98L
317.87,
289.97L
318.36,
291.89L
318.84,
293.45L
319.33,
294.15L
319.82,
296.37L
320.30,
294.22L
320.79,
292.26L
321.27,
293.50L
321.76,
292.50L
322.24,
291.64L
322.73,
291.72L
323.21,
290.21L
323.70,
291.92L
324.19,
294.50L
324.67,
293.58L
325.16,
291.87L
325.64,
293.24L
326.13,
291.38L
326.61,
291.15L
327.10,
292.69L
327.58,
292.92L
328.07,
294.81L
328.56,
296.21L
329.04,
297.41L
329.53,
300.95L
330.01,
305.02L
330.50,
303.45L
330.99,
304.40L
331.47,
307.62L
331.96,
309.24L
332.44,
310.03L
332.93,
310.96L
333.41,
311.50L
333.90,
313.09L
334.38,
316.24L
334.87,
316.43L
335.36,
315.57L
335.84,
317.54L
336.33,
316.95L
336.81,
318.11L
337.30,
320.85L
337.78,
320.77L
338.27,
320.98L
338.76,
323.72L
339.24,
325.18L
339.73,
324.76L
340.21,
326.21L
340.70,
323.35L
341.18,
322.80L
341.67,
323.96L
342.16,
325.85L
342.64,
328.53L
343.13,
332.12L
343.61,
334.97L
344.10,
337.83L
344.58,
343.16L
345.07,
346.10L
345.55,
348.38L
346.04,
350.47L
346.53,
352.49L
347.01,
355.01L
347.50,
357.11L
347.98,
358.36L
348.47,
359.89L
348.95,
363.24L
349.44,
364.65L
349.93,
363.41L
350.41,
365.23L
350.90,
365.96L
351.38,
365.27L
351.87,
365.90L
352.35,
367.08L
352.84,
366.89L
353.32,
367.84L
353.81,
368.65L
354.30,
369.19L
354.78,
371.94L
355.27,
372.51L
355.75,
372.51L
356.24,
371.12L
356.72,
368.55L
357.21,
365.76L
357.70,
364.57L
358.18,
362.79L
358.67,
360.13L
359.15,
358.67L
359.64,
357.35L
360.12,
355.19L
360.61,
353.43L
361.09,
351.01L
361.58,
349.25L
362.07,
348.25L
362.55,
346.66L
363.04,
345.81L
363.52,
345.39L
364.01,
347.50L
364.49,
348.25L
364.98,
349.46L
365.47,
349.76L
365.95,
349.87L
366.44,
349.79L
366.92,
349.40L
367.41,
349.84L
367.89,
351.38L
368.38,
351.62L
368.87,
352.16L
369.35,
353.45L
369.84,
353.91L
370.32,
353.06L
370.81,
353.84L
371.29,
354.09L
371.78,
353.57L
372.26,
354.05L
372.75,
354.70L
373.24,
353.94L
373.72,
353.15L
374.21,
353.98L
374.69,
353.74L
375.18,
354.68L
375.66,
354.72L
376.15,
352.86L
376.64,
352.52L
377.12,
351.22L
377.61,
351.22L
378.09,
350.88L
378.58,
350.24L
379.06,
349.01L
379.55,
348.81L
380.03,
348.10L
380.52,
347.52L
381.01,
348.84L
381.49,
347.71L
381.98,
346.25L
382.46,
346.71L
382.95,
345.56L
383.43,
345.57L
383.92,
346.07L
384.41,
347.62L
384.89,
347.91L
385.38,
348.51L
385.86,
348.13L
386.35,
345.00L
386.83,
344.84L
387.32,
343.74L
387.80,
344.53L
388.29,
344.54L
388.78,
344.76L
389.26,
343.74L
389.75,
345.06L
390.23,
346.23L
390.72,
346.37L
391.20,
347.44L
391.69,
346.02L
392.18,
343.66L
392.66,
343.76L
393.15,
342.46L
393.63,
342.67L
394.12,
342.95L
394.60,
341.85L
395.09,
340.76L
395.58,
341.90L
396.06,
341.52L
396.55,
340.40L
397.03,
341.79L
397.52,
339.55L
398.00,
339.12L
398.49,
338.39L
398.97,
337.27L
399.46,
336.47L
399.95,
336.72L
400.43,
338.09L
400.92,
337.88L
401.40,
338.74L
401.89,
336.61L
402.37,
334.44L
402.86,
333.68L
403.35,
333.95L
403.83,
331.51L
404.32,
331.54L
404.80,
331.72L
405.29,
331.88L
405.77,
332.33L
406.26,
333.90L
406.74,
333.45L
407.23,
334.57L
407.72,
333.71L
408.20,
333.08L
408.69,
336.07L
409.17,
337.59L
409.66,
337.55L
410.14,
339.10L
410.63,
338.75L
411.12,
338.40L
411.60,
340.97L
412.09,
340.83L
412.57,
338.42L
413.06,
339.63L
413.54,
340.24L
414.03,
339.22L
414.51,
340.14L
415.00,
341.14L
415.49,
341.78L
415.97,
344.33L
416.46,
346.44L
416.94,
347.28L
417.43,
347.94L
417.91,
347.89L
418.40,
347.52L
418.89,
347.98L
419.37,
346.86L
419.86,
347.38L
420.34,
347.50L
420.83,
348.34L
421.31,
348.98L
421.80,
350.17L
422.29,
350.79L
422.77,
349.26L
423.26,
349.50L
423.74,
350.03L
424.23,
350.03L
424.71,
352.26L
425.20,
352.69L
425.68,
352.16L
426.17,
351.93L
426.66,
353.79L
427.14,
353.91L
427.63,
354.65L
428.11,
355.28L
428.60,
355.46L
429.08,
355.62L
429.57,
355.25L
430.06,
354.33L
430.54,
354.28L
431.03,
354.14L
431.51,
353.98L
432.00,
355.21L
432.48,
354.59L
432.97,
352.07L
433.45,
352.50L
433.94,
351.92L
434.43,
352.23L
434.91,
352.04L
435.40,
351.16L
435.88,
350.64L
436.37,
351.37L
436.85,
352.03L
437.34,
351.30L
437.83,
350.76L
438.31,
350.20L
438.80,
348.68L
439.28,
348.26L
439.77,
346.89L
440.25,
345.91L
440.74,
345.03L
441.22,
343.05L
441.71,
341.51L
442.20,
340.40L
442.68,
338.78L
443.17,
338.22L
443.65,
338.08L
444.14,
335.84L
444.62,
335.24L
445.11,
335.18L
445.60,
334.43L
446.08,
334.70L
446.57,
336.74L
447.05,
335.07L
447.54,
332.62L
448.02,
330.36L
448.51,
326.86L
449.00,
324.35L
449.48,
323.75L
449.97,
320.64L
450.45,
316.88L
450.94,
315.43L
451.42,
314.21L
451.91,
312.55L
452.39,
311.31L
452.88,
310.56L
453.37,
308.58L
453.85,
309.27L
454.34,
310.81L
454.82,
311.05L
455.31,
312.64L
455.79,
313.75L
456.28,
314.73L
456.77,
316.09L
457.25,
315.27L
457.74,
314.48L
458.22,
315.62L
458.71,
315.43L
459.19,
314.99L
459.68,
315.62L
460.16,
315.64L
460.65,
315.30L
461.14,
320.14L
461.62,
324.04L
462.11,
327.61L
462.59,
331.30L
463.08,
334.46L
463.56,
335.68L
464.05,
339.28L
464.54,
342.91L
465.02,
344.73L
465.51,
346.06L
465.99,
348.32L
466.48,
349.22L
466.96,
351.17L
467.45,
353.35L
467.93,
354.57L
468.42,
354.04L
468.91,
354.80L
469.39,
354.51L
469.88,
354.79L
470.36,
355.31L
470.85,
356.19L
471.33,
357.25L
471.82,
359.40L
472.31,
361.31L
472.79,
362.36L
473.28,
363.68L
473.76,
363.83L
474.25,
364.11L
474.73,
364.01L
475.22,
363.57L
475.71,
363.01L
476.19,
362.95L
476.68,
362.72L
477.16,
362.66L
477.65,
362.37L
478.13,
360.69L
478.62,
359.36L
479.10,
356.75L
479.59,
356.70L
480.08,
356.10L
480.56,
356.49L
481.05,
356.97L
481.53,
356.77L
482.02,
356.13L
482.50,
356.21L
482.99,
355.70L
483.48,
352.80L
483.96,
352.17L
484.45,
352.64L
484.93,
350.99L
485.42,
350.76L
485.90,
350.81L
486.39,
350.07L
486.87,
349.79L
487.36,
349.62L
487.85,
349.32L
488.33,
348.32L
488.82,
347.14L
489.30,
344.88L
489.79,
345.16L
490.27,
345.41L
490.76,
345.55L
491.25,
345.20L
491.73,
346.50L
492.22,
348.39L
492.70,
349.63L
493.19,
352.77L
493.67,
352.97L
494.16,
353.56L
494.64,
354.59L
495.13,
354.59L
495.62,
355.94L
496.10,
356.82L
496.59,
357.14L
497.07,
358.40L
497.56,
362.18L
498.04,
362.01L
498.53,
361.57L
499.02,
362.94L
499.50,
362.31L
499.99,
362.60L
500.47,
363.72L
500.96,
363.79L
501.44,
364.16L
501.93,
365.49L
502.42,
366.87L
502.90,
368.66L
503.39,
371.38L
503.87,
370.46L
504.36,
370.27L
504.84,
371.55L
505.33,
372.51L
505.81,
372.51L
506.30,
372.28L
506.79,
372.61L
507.27,
371.50L
507.76,
371.99L
508.24,
371.24L
508.73,
369.32L
509.21,
368.43L
509.70,
365.97L
510.19,
364.91L
510.67,
365.25L
511.16,
365.37L
511.64,
365.14L
512.13,
365.87L
512.61,
366.48L
513.10,
367.07L
513.58,
367.64L
514.07,
366.48L
514.55,
365.36L
515.04,
365.90L
515.53,
364.99L
516.01,
365.24L
516.50,
365.60L
516.98,
364.58L
517.47,
364.39L
517.96,
365.54L
518.44,
365.63L
518.93,
364.44L
519.41,
363.50L
519.90,
362.70L
520.38,
363.02L
520.87,
362.89L
521.35,
363.18L
521.84,
362.75L
522.33,
363.50L
522.81,
364.60L
523.30,
365.49L
523.78,
367.24L
524.27,
367.27L
524.75,
366.48L
525.24,
366.99L
525.73,
367.09L
526.21,
367.24L
526.70,
367.54L
527.18,
367.30L
527.67,
368.16L
528.15,
369.47L
528.64,
370.22L
529.12,
370.65L
529.61,
372.18L
530.10,
372.06L
530.58,
371.77L
531.07,
372.98L
531.55,
373.45L
532.04,
373.31L
532.52,
372.57L
533.01,
372.92L
533.50,
372.55L
533.98,
373.49L
534.47,
373.39L
534.95,
373.93L
535.44,
374.39L
535.92,
374.66L
536.41,
375.39L
536.90,
376.38L
537.38,
376.20L
537.87,
376.54L
538.35,
377.75L
538.84,
378.07L
539.32,
377.06L
539.81,
377.33L
540.29,
376.97L
540.78,
376.92L
541.27,
376.42L
541.75,
376.09L
542.24,
375.98L
542.72,
376.45L
543.21,
375.74L
543.69,
374.99L
544.18,
374.63L
544.67,
373.63L
545.15,
373.60L
545.64,
372.67L
546.12,
372.67L
546.61,
373.70L
547.09,
374.22L
547.58,
375.12L
548.06,
375.09L
548.55,
375.17L
549.04,
374.92L
549.52,
374.36L
550.01,
374.08L
550.49,
371.68L
550.98,
370.38L
551.46,
370.10L
551.95,
369.18L
552.43,
368.70L
552.92,
369.20L
553.41,
368.65L
553.89,
367.12L
554.38,
367.60L
554.86,
366.29L
555.35,
366.71L
555.83,
367.22L
556.32,
366.29L
556.81,
366.00L
557.29,
366.16L
557.78,
366.42L
558.26,
365.90L
558.75,
367.05L
559.23,
366.46L
559.72,
366.89L
560.21,
366.80L
560.69,
366.87L
561.18,
366.56L
561.66,
366.59L
562.15,
366.22L
562.63,
365.57L
563.12,
365.44L
563.61,
365.04L
564.09,
365.18L
564.58,
366.84L
565.06,
367.30L
565.55,
367.39L
566.03,
367.67L
566.52,
367.30L
567.00,
367.39L
567.49,
369.04L
567.98,
369.90L
568.46,
369.83L
568.95,
370.86L
569.43,
370.61L
569.92,
369.60L
570.40,
368.56L
570.89,
366.32L
571.38,
365.12L
571.86,
364.65L
572.35,
364.97L
572.83,
364.92L
573.32,
364.91L
573.80,
364.32L
574.29,
364.60L
574.77,
364.70L
575.26,
363.47L
575.75,
362.42L
576.23,
362.53L
576.72,
362.40L
577.20,
362.12L
577.69,
362.87L
578.17,
362.67L
578.66,
362.02L
579.15,
361.34L
579.63,
361.43L
580.12,
361.65L
580.60,
362.51L
581.09,
362.55L
581.57,
362.21L
582.06,
363.37L
582.54,
362.58L
583.03,
362.89L
583.52,
362.99L
584.00,
362.87L
584.49,
363.87L
584.97,
364.90L
585.46,
365.12L
585.94,
364.90L
586.43,
364.85L
586.92,
363.49L
587.40,
363.49L
587.89,
363.94L
588.37,
362.88L
588.86,
362.41L
589.34,
363.14L
589.83,
362.96L
590.32,
362.89L
590.80,
363.47L
591.29,
363.03L
591.77,
363.12L
592.26,
362.21L
592.74,
362.90L
593.23,
363.03L
593.71,
362.65L
594.20,
362.98L
594.68,
362.93L
595.17,
362.73L
595.66,
360.93L
596.14,
358.59L
596.63,
358.96L
597.11,
357.45L
597.60,
357.41L
598.09,
357.52L
598.57,
356.33L
599.06,
356.49L
599.54,
356.82L
600.03,
356.48L
600.51,
356.72L
601.00,
357.64L
601.48,
357.46L
601.97,
357.16L
602.46,
357.91L
602.94,
357.62L
603.43,
357.94L
603.91,
358.64L
604.40,
357.45L
604.88,
356.93L
605.37,
357.79L
605.86,
358.06L
606.34,
359.20L
606.83,
359.29L
607.31,
360.35L
607.80,
361.47L
608.28,
361.83L
608.77,
361.53L
609.25,
362.31L
609.74,
364.36L
610.23,
365.89L
610.71,
366.47L
611.20,
367.84L
611.68,
367.68L
612.17,
368.65L
612.65,
370.01L
613.14,
371.22L
613.63,
371.15L
614.11,
372.16L
614.60,
371.83L
615.08,
372.78L
615.57,
373.49L
616.05,
373.02L
616.54,
373.37L
617.03,
373.78L
617.51,
374.50L
618.00,
375.17L
618.48,
375.99L
618.97,
376.81L
619.45,
377.00L
619.94,
377.73L
620.42,
378.09L
620.91,
378.92L
621.40,
379.24L
621.88,
379.43L
622.37,
378.87L
622.85,
378.81L
623.34,
378.15L
623.82,
378.58L
624.31,
379.05L
624.79,
379.66L
625.28,
380.33L
625.77,
381.81L
626.25,
381.49L
626.74,
382.05L
627.22,
381.95L
627.71,
383.44L
628.19,
383.51L
628.68,
384.36L
629.17,
383.77L
629.65,
384.18L
630.14,
385.70L
630.62,
386.29L
631.11,
386.46L
631.59,
385.97L
632.08,
386.06L
632.57,
386.87L
633.05,
387.13L
633.54,
387.51L
634.02,
387.37L
634.51,
388.05L
634.99,
388.20L
635.48,
388.58L
635.96,
388.40L
636.45,
389.67L
636.94,
390.71L
637.42,
391.92L
637.91,
392.04L
638.39,
392.64L
638.88,
393.12L
639.36,
393.32L
639.85,
393.42L
640.34,
394.52L
640.82,
395.08L
641.31,
395.47L
641.79,
395.62L
642.28,
396.03L
642.76,
396.73L
643.25,
397.42L
643.74,
397.32L
644.22,
397.37L
644.71,
397.57L
645.19,
397.70L
645.68,
398.43L
646.16,
398.95L
646.65,
399.27L
647.13,
399.44L
647.62,
399.48L
648.11,
399.79L
648.59,
399.93L
649.08,
399.98L
649.56,
400.25L
650.05,
400.70L
650.53,
400.35L
651.02,
400.33L
651.51,
400.15L
651.99,
399.88L
652.48,
399.31L
652.96,
398.99L
653.45,
398.73L
653.93,
398.35L
654.42,
398.30L
654.90,
398.13L
655.39,
398.04L
655.88,
397.93L
656.36,
397.37L
656.85,
396.57L
657.33,
396.53L
657.82,
396.17L
658.30,
396.35L
658.79,
396.36L
659.28,
397.08L
659.76,
396.78L
660.25,
395.95L
660.73,
396.06L
661.22,
395.62L
661.70,
395.40L
662.19,
395.17L
662.67,
394.93L
663.16,
394.91L
663.65,
394.71L
664.13,
394.56L
664.62,
394.35L
665.10,
394.17L
665.59,
393.76L
666.07,
393.76L
666.56,
394.37L
667.05,
394.12L
667.53,
394.20L
668.02,
394.46L
668.50,
394.60L
668.99,
394.79L
669.47,
395.20L
669.96,
395.13L
670.45,
395.49L
670.93,
396.12L
671.42,
396.22L
671.90,
396.79L
672.39,
396.90L
672.87,
396.96L
673.36,
396.95L
673.84,
397.39L
674.33,
397.96L
674.82,
397.92L
675.30,
398.50L
675.79,
398.32L
676.27,
398.11L
676.76,
398.10L
677.24,
397.80L
677.73,
397.46L
678.22,
397.27L
678.70,
397.64L
679.19,
397.73L
679.67,
397.84L
680.16,
397.96L
680.64,
397.79L
681.13,
398.00L
681.61,
397.50L
682.10,
397.61L
682.59,
397.49L
683.07,
397.35L
683.56,
396.81L
684.04,
396.88L
684.53,
396.51L
685.01,
396.11L
685.50,
396.17L
685.99,
395.19L
686.47,
394.65L
686.96,
394.58L
687.44,
394.07L
687.93,
394.07L
688.41,
394.07L
688.90,
394.30L
689.38,
394.27L
689.87,
394.91L
690.36,
395.27L
690.84,
395.22L
691.33,
395.37L
691.81,
395.47L
692.30,
395.53L
692.78,
394.75L
693.27,
394.88L
693.76,
395.04L
694.24,
395.35L
694.73,
395.11L
695.21,
395.14L
695.70,
395.13L
696.18,
395.08L
696.67,
394.83L
697.16,
394.58L
697.64,
394.82L
698.13,
394.96L
698.61,
395.25L
699.10,
395.34L
699.58,
395.66L
700.07,
396.49L
700.55,
396.80L
701.04,
396.46L
701.53,
396.78L
702.01,
396.59L
702.50,
396.83L
702.98,
396.11L
703.47,
395.59L
703.95,
395.33L
704.44,
395.21L
704.93,
394.73L
705.41,
394.67L
705.90,
394.94L
706.38,
395.36L
706.87,
396.12L
707.35,
396.28L
707.84,
396.03L
708.32,
395.81L
708.81,
396.22L
709.30,
396.56L
709.78,
396.87L
710.27,
397.00L
710.75,
396.89L
711.24,
397.17L
711.72,
397.49L
712.21,
397.61L
712.70,
398.25L
713.18,
398.62L
713.67,
398.58L
714.15,
398.76L
714.64,
398.84L
715.12,
399.32L
715.61,
399.61L
716.09,
399.84L
716.58,
399.98L
717.07,
400.40L
717.55,
400.56L
718.04,
400.96L
718.52,
400.79L
719.01,
400.76L
719.49,
399.83L
719.98,
399.15L
720.47,
399.08L
720.95,
399.11L
721.44,
398.96L
721.92,
399.40L
722.41,
399.56L
722.89,
399.32L
723.38,
398.84L
723.87,
398.66L
724.35,
398.35L
724.84,
398.62L
725.32,
399.03L
725.81,
399.01L
726.29,
398.32L
726.78,
398.00L
727.26,
397.86L
727.75,
397.59L
728.24,
397.43L
728.72,
397.18L
729.21,
396.89L
729.69,
396.22L
730.18,
396.36L
730.66,
396.46L
731.15,
396.59L
731.64,
397.02L
732.12,
397.10L
732.61,
396.73L
733.09,
397.39L
733.58,
398.10L
734.06,
398.40L
734.55,
398.67L
735.03,
398.95L
735.52,
399.29L
736.01,
399.49L
736.49,
399.56L
736.98,
399.80L
737.46,
400.45L
737.95,
401.23L
738.43,
401.63L
738.92,
401.86L
739.41,
401.89L
739.89,
402.22L
740.38,
403.02L
740.86,
403.35L
741.35,
403.62L
741.83,
404.00L
742.32,
404.34L
742.80,
404.97L
743.29,
405.42L
743.78,
406.28L
744.26,
406.31L
744.75,
406.36L
745.23,
406.58L
745.72,
406.89L
746.20,
406.91L
746.69,
407.76L
747.18,
408.04L
747.66,
408.69L
748.15,
409.44L
748.63,
409.29L
749.12,
408.54L
749.60,
408.22L
750.09,
408.08L
750.58,
407.89L
751.06,
407.88L
751.55,
407.33L
752.03,
406.71L
752.52,
406.43L
753.00,
406.33L
753.49,
405.70L
753.97,
405.11L
754.46,
404.29L
754.95,
404.05L
755.43,
404.03L
755.92,
403.96L
756.40,
403.75L
756.89,
403.44L
757.37,
403.25L
757.86,
403.17L
758.35,
402.99L
758.83,
402.96L
759.32,
402.65L
759.80,
402.30L
760.29,
401.74L
760.77,
401.64L
761.26,
401.44L
761.74,
401.20L
762.23,
400.99L
762.72,
400.67L
763.20,
401.04L
763.69,
400.89L
764.17,
400.83L
764.66,
401.07L
765.14,
401.07L
765.63,
401.36L
766.12,
401.56L
766.60,
401.75L
767.09,
401.62L
767.57,
401.77L
768.06,
401.83L
768.54,
402.61L
769.03,
402.52L
769.51,
402.30L
770.00,
402.146"/>
  </g>
</svg>
