<?xml version="1.0"?>
<svg xmlns="http://www.w3.org/2000/svg" xmlns:xlink="http://www.w3.org/1999/xlink" class="plot-d6a7b5" fill="currentColor" font-family="system-ui, sans-serif" font-size="10" text-anchor="middle" width="830" height="470" viewBox="0 0 830 470" color="#1e90ff">
  <style>:where(.plot-d6a7b5){--plot-background: white;display:block;height:intrinsic;max-width:100%}:where(.plot-d6a7b5 text),:where(.plot-d6a7b5 tspan){white-space:pre}</style>
  <g aria-label="y-grid" aria-hidden="true" stroke="currentColor" stroke-opacity=".1">
    <line x1="60" x2="770" y1="410" y2="410"/>
    <line x1="60" x2="770" y1="384.868" y2="384.868"/>
    <line x1="60" x2="770" y1="359.736" y2="359.736"/>
    <line x1="60" x2="770" y1="334.605" y2="334.605"/>
    <line x1="60" x2="770" y1="309.473" y2="309.473"/>
    <line x1="60" x2="770" y1="284.341" y2="284.341"/>
    <line x1="60" x2="770" y1="259.209" y2="259.209"/>
    <line x1="60" x2="770" y1="234.077" y2="234.077"/>
    <line x1="60" x2="770" y1="208.946" y2="208.946"/>
    <line x1="60" x2="770" y1="183.814" y2="183.814"/>
    <line x1="60" x2="770" y1="158.682" y2="158.682"/>
    <line x1="60" x2="770" y1="133.55" y2="133.55"/>
    <line x1="60" x2="770" y1="108.418" y2="108.418"/>
    <line x1="60" x2="770" y1="83.287" y2="83.287"/>
  </g>
  <g aria-label="y-axis tick" aria-hidden="true" fill="none" stroke="currentColor">
    <path transform="translate(60,410)" d="M0,0L-6,0"/>
    <path transform="translate(60,384.8682016690386)" d="M0,0L-6,0"/>
    <path transform="translate(60,359.73640333807725)" d="M0,0L-6,0"/>
    <path transform="translate(60,334.6046050071159)" d="M0,0L-6,0"/>
    <path transform="translate(60,309.4728066761545)" d="M0,0L-6,0"/>
    <path transform="translate(60,284.3410083451932)" d="M0,0L-6,0"/>
    <path transform="translate(60,259.20921001423176)" d="M0,0L-6,0"/>
    <path transform="translate(60,234.0774116832704)" d="M0,0L-6,0"/>
    <path transform="translate(60,208.94561335230904)" d="M0,0L-6,0"/>
    <path transform="translate(60,183.8138150213477)" d="M0,0L-6,0"/>
    <path transform="translate(60,158.6820166903863)" d="M0,0L-6,0"/>
    <path transform="translate(60,133.55021835942492)" d="M0,0L-6,0"/>
    <path transform="translate(60,108.41842002846354)" d="M0,0L-6,0"/>
    <path transform="translate(60,83.28662169750218)" d="M0,0L-6,0"/>
  </g>
  <g aria-label="y-axis tick label" text-anchor="end" font-variant="tabular-nums">
    <text y=".32em" transform="translate(-9,0) translate(60,410)">0</text>
    <text y=".32em" transform="translate(-9,0) translate(60,384.8682016690386)">50,000</text>
    <text y=".32em" transform="translate(-9,0) translate(60,359.73640333807725)">100,000</text>
    <text y=".32em" transform="translate(-9,0) translate(60,334.6046050071159)">150,000</text>
    <text y=".32em" transform="translate(-9,0) translate(60,309.4728066761545)">200,000</text>
    <text y=".32em" transform="translate(-9,0) translate(60,284.3410083451932)">250,000</text>
    <text y=".32em" transform="translate(-9,0) translate(60,259.20921001423176)">300,000</text>
    <text y=".32em" transform="translate(-9,0) translate(60,234.0774116832704)">350,000</text>
    <text y=".32em" transform="translate(-9,0) translate(60,208.94561335230904)">400,000</text>
    <text y=".32em" transform="translate(-9,0) translate(60,183.8138150213477)">450,000</text>
    <text y=".32em" transform="translate(-9,0) translate(60,158.6820166903863)">500,000</text>
    <text y=".32em" transform="translate(-9,0) translate(60,133.55021835942492)">550,000</text>
    <text y=".32em" transform="translate(-9,0) translate(60,108.41842002846354)">600,000</text>
    <text y=".32em" transform="translate(-9,0) translate(60,83.28662169750218)">650,000</text>
  </g>
  <g aria-label="y-axis label" text-anchor="start">
    <text y=".71em" transform="translate(-57,-57) translate(60,60)">&#x2191; Total Vestiges</text>
  </g>
  <g aria-label="x-axis tick" aria-hidden="true" fill="none" stroke="currentColor">
    <path transform="translate(84.46621621621621,410)" d="M0,0L0,6"/>
    <path transform="translate(149.94932432432432,410)" d="M0,0L0,6"/>
    <path transform="translate(216.15202702702703,410)" d="M0,0L0,6"/>
    <path transform="translate(282.35472972972974,410)" d="M0,0L0,6"/>
    <path transform="translate(347.83783783783787,410)" d="M0,0L0,6"/>
    <path transform="translate(413.32094594594594,410)" d="M0,0L0,6"/>
    <path transform="translate(479.5236486486487,410)" d="M0,0L0,6"/>
    <path transform="translate(545.7263513513514,410)" d="M0,0L0,6"/>
    <path transform="translate(610.4898648648648,410)" d="M0,0L0,6"/>
    <path transform="translate(675.972972972973,410)" d="M0,0L0,6"/>
    <path transform="translate(742.1756756756756,410)" d="M0,0L0,6"/>
  </g>
  <g aria-label="x-axis tick label" font-variant="tabular-nums">
    <text transform="translate(0,9) translate(84.46621621621621,410)">
      <tspan x="0" y=".71em">Apr</tspan>
      <tspan x="0" dy="1em">2023</tspan>
    </text>
    <text y=".71em" transform="translate(0,9) translate(149.94932432432432,410)">Jul</text>
    <text y=".71em" transform="translate(0,9) translate(216.15202702702703,410)">Oct</text>
    <text transform="translate(0,9) translate(282.35472972972974,410)">
      <tspan x="0" y=".71em">Jan</tspan>
      <tspan x="0" dy="1em">2024</tspan>
    </text>
    <text y=".71em" transform="translate(0,9) translate(347.83783783783787,410)">Apr</text>
    <text y=".71em" transform="translate(0,9) translate(413.32094594594594,410)">Jul</text>
    <text y=".71em" transform="translate(0,9) translate(479.5236486486487,410)">Oct</text>
    <text transform="translate(0,9) translate(545.7263513513514,410)">
      <tspan x="0" y=".71em">Jan</tspan>
      <tspan x="0" dy="1em">2025</tspan>
    </text>
    <text y=".71em" transform="translate(0,9) translate(610.4898648648648,410)">Apr</text>
    <text y=".71em" transform="translate(0,9) translate(675.972972972973,410)">Jul</text>
    <text y=".71em" transform="translate(0,9) translate(742.1756756756756,410)">Oct</text>
  </g>
  <g aria-label="line" fill="none" stroke="currentColor" stroke-width="1.5" stroke-linejoin="round" stroke-linecap="round">
    <path d="M60,
410.00L
60.48,
409.75L
60.96,
408.83L
61.44,
408.33L
61.92,
407.97L
62.40,
407.39L
62.88,
406.93L
63.36,
406.50L
63.84,
405.64L
64.32,
404.95L
64.80,
404.13L
65.28,
402.87L
65.76,
401.67L
66.24,
401.05L
66.72,
400.16L
67.20,
399.55L
67.68,
398.85L
68.16,
397.94L
68.64,
397.32L
69.11,
396.72L
69.60,
395.90L
70.07,
395.00L
70.55,
394.36L
71.03,
393.26L
71.51,
392.74L
71.99,
392.26L
72.47,
391.39L
72.95,
390.55L
73.43,
389.91L
73.91,
389.01L
74.39,
388.12L
74.87,
387.30L
75.35,
386.04L
75.83,
385.04L
76.31,
384.46L
76.79,
383.85L
77.27,
383.40L
77.75,
383.03L
78.23,
382.35L
78.71,
381.68L
79.19,
381.22L
79.67,
380.14L
80.15,
379.02L
80.63,
378.01L
81.11,
376.79L
81.59,
375.96L
82.07,
375.26L
82.55,
374.30L
83.03,
373.50L
83.51,
372.91L
83.99,
371.87L
84.47,
370.85L
84.95,
369.91L
85.43,
368.55L
85.91,
367.27L
86.39,
366.60L
86.87,
365.61L
87.35,
364.71L
87.82,
363.91L
88.30,
362.77L
88.78,
361.70L
89.26,
360.78L
89.74,
359.66L
90.22,
358.59L
90.70,
357.67L
91.18,
356.44L
91.66,
355.67L
92.14,
354.99L
92.62,
354.03L
93.10,
353.24L
93.58,
352.66L
94.06,
351.90L
94.54,
351.09L
95.02,
350.32L
95.50,
349.33L
95.98,
348.34L
96.46,
347.77L
96.94,
346.99L
97.42,
346.38L
97.90,
345.98L
98.38,
345.36L
98.86,
344.74L
99.34,
344.08L
99.82,
343.23L
100.30,
342.37L
100.78,
341.69L
101.26,
340.76L
101.74,
340.10L
102.22,
339.67L
102.70,
338.69L
103.18,
338.01L
103.66,
337.64L
104.14,
337.02L
104.62,
336.43L
105.10,
335.81L
105.57,
334.96L
106.05,
334.22L
106.53,
333.58L
107.01,
333.03L
107.49,
332.54L
107.97,
332.06L
108.45,
331.29L
108.93,
330.85L
109.41,
330.41L
109.89,
329.68L
110.37,
328.86L
110.85,
328.21L
111.33,
327.38L
111.81,
326.83L
112.29,
326.31L
112.77,
325.55L
113.25,
325.04L
113.73,
324.55L
114.21,
323.89L
114.69,
323.38L
115.17,
322.76L
115.65,
322.11L
116.13,
321.51L
116.61,
321.02L
117.09,
320.51L
117.57,
320.06L
118.05,
319.63L
118.53,
319.03L
119.01,
318.58L
119.49,
318.17L
119.97,
317.49L
120.45,
316.61L
120.93,
315.96L
121.41,
315.13L
121.89,
314.63L
122.37,
314.06L
122.85,
313.46L
123.32,
312.92L
123.80,
312.54L
124.28,
311.79L
124.76,
311.20L
125.24,
310.58L
125.72,
309.67L
126.20,
309.01L
126.68,
308.43L
127.16,
307.83L
127.64,
307.19L
128.12,
306.69L
128.60,
306.19L
129.08,
305.54L
129.56,
305.16L
130.04,
304.65L
130.52,
304.19L
131.00,
303.76L
131.48,
303.15L
131.96,
302.72L
132.44,
302.26L
132.92,
301.65L
133.40,
301.21L
133.88,
300.80L
134.36,
300.37L
134.84,
299.85L
135.32,
299.37L
135.80,
298.86L
136.28,
298.31L
136.76,
297.88L
137.24,
297.35L
137.72,
296.91L
138.20,
296.47L
138.68,
295.86L
139.16,
295.35L
139.64,
294.95L
140.12,
294.42L
140.60,
293.92L
141.07,
293.56L
141.55,
292.94L
142.03,
292.47L
142.51,
291.98L
142.99,
291.43L
143.47,
290.97L
143.95,
290.70L
144.43,
290.19L
144.91,
289.78L
145.39,
289.29L
145.87,
288.71L
146.35,
288.25L
146.83,
287.74L
147.31,
287.18L
147.79,
286.67L
148.27,
286.23L
148.75,
285.50L
149.23,
284.91L
149.71,
284.57L
150.19,
284.02L
150.67,
283.54L
151.15,
283.25L
151.63,
282.73L
152.11,
282.40L
152.59,
282.00L
153.07,
281.52L
153.55,
281.07L
154.03,
280.71L
154.51,
280.15L
154.99,
279.74L
155.47,
279.37L
155.95,
278.84L
156.43,
278.37L
156.91,
278.00L
157.39,
277.44L
157.87,
277.08L
158.35,
276.67L
158.82,
276.15L
159.30,
275.72L
159.78,
275.24L
160.26,
274.69L
160.74,
274.21L
161.22,
273.80L
161.70,
273.33L
162.18,
272.78L
162.66,
272.35L
163.14,
271.94L
163.62,
271.52L
164.10,
271.19L
164.58,
270.63L
165.06,
270.28L
165.54,
269.89L
166.02,
269.39L
166.50,
268.99L
166.98,
268.51L
167.46,
267.87L
167.94,
267.39L
168.42,
267.11L
168.90,
266.45L
169.38,
265.97L
169.86,
265.55L
170.34,
264.95L
170.82,
264.55L
171.30,
264.11L
171.78,
263.62L
172.26,
263.11L
172.74,
262.67L
173.22,
262.02L
173.70,
261.53L
174.18,
261.09L
174.66,
260.56L
175.14,
259.97L
175.62,
259.38L
176.10,
258.50L
176.57,
257.96L
177.05,
257.55L
177.53,
257.00L
178.01,
256.56L
178.49,
256.24L
178.97,
255.75L
179.45,
255.31L
179.93,
255.00L
180.41,
254.50L
180.89,
254.04L
181.37,
253.71L
181.85,
253.18L
182.33,
252.68L
182.81,
252.31L
183.29,
251.81L
183.77,
251.19L
184.25,
250.67L
184.73,
250.01L
185.21,
249.55L
185.69,
249.11L
186.17,
248.45L
186.65,
247.95L
187.13,
247.49L
187.61,
246.94L
188.09,
246.48L
188.57,
246.17L
189.05,
245.73L
189.53,
245.40L
190.01,
245.03L
190.49,
244.59L
190.97,
244.14L
191.45,
243.73L
191.93,
243.32L
192.41,
242.89L
192.89,
242.53L
193.37,
242.13L
193.85,
241.73L
194.32,
241.40L
194.80,
241.01L
195.28,
240.61L
195.76,
240.18L
196.24,
239.66L
196.72,
239.30L
197.20,
238.90L
197.68,
238.48L
198.16,
238.18L
198.64,
237.85L
199.12,
237.51L
199.60,
237.30L
200.08,
237.04L
200.56,
236.46L
201.04,
236.05L
201.52,
235.67L
202.00,
235.16L
202.48,
234.94L
202.96,
234.65L
203.44,
234.38L
203.92,
234.16L
204.40,
233.84L
204.88,
233.50L
205.36,
233.12L
205.84,
232.71L
206.32,
232.07L
206.80,
231.52L
207.28,
231.23L
207.76,
230.84L
208.24,
230.56L
208.72,
230.24L
209.20,
229.86L
209.68,
229.52L
210.16,
229.25L
210.64,
228.84L
211.12,
228.38L
211.60,
228.05L
212.07,
227.59L
212.55,
227.36L
213.03,
227.13L
213.51,
226.82L
213.99,
226.54L
214.47,
226.28L
214.95,
225.86L
215.43,
225.51L
215.91,
225.16L
216.39,
224.68L
216.87,
224.32L
217.35,
224.12L
217.83,
223.77L
218.31,
223.51L
218.79,
223.28L
219.27,
222.98L
219.75,
222.69L
220.23,
222.36L
220.71,
221.92L
221.19,
221.45L
221.67,
220.98L
222.15,
220.49L
222.63,
220.13L
223.11,
219.86L
223.59,
219.53L
224.07,
219.25L
224.55,
218.95L
225.03,
218.54L
225.51,
218.27L
225.99,
218.01L
226.47,
217.45L
226.95,
216.96L
227.43,
216.66L
227.91,
216.35L
228.39,
216.13L
228.87,
215.96L
229.35,
215.59L
229.82,
215.34L
230.30,
215.10L
230.78,
214.62L
231.26,
214.11L
231.74,
213.73L
232.22,
213.21L
232.70,
212.94L
233.18,
212.68L
233.66,
212.25L
234.14,
211.97L
234.62,
211.70L
235.10,
211.32L
235.58,
210.92L
236.06,
210.66L
236.54,
210.23L
237.02,
209.95L
237.50,
209.78L
237.98,
209.39L
238.46,
209.14L
238.94,
208.98L
239.42,
208.75L
239.90,
208.51L
240.38,
208.10L
240.86,
207.63L
241.34,
207.15L
241.82,
206.83L
242.30,
206.52L
242.78,
206.34L
243.26,
206.06L
243.74,
205.74L
244.22,
205.56L
244.70,
205.38L
245.18,
205.06L
245.66,
204.86L
246.14,
204.59L
246.62,
204.30L
247.10,
204.04L
247.57,
203.87L
248.05,
203.63L
248.53,
203.50L
249.01,
203.32L
249.49,
203.08L
249.97,
202.92L
250.45,
202.81L
250.93,
202.44L
251.41,
202.07L
251.89,
201.70L
252.37,
201.34L
252.85,
201.06L
253.33,
200.89L
253.81,
200.61L
254.29,
200.44L
254.77,
200.20L
255.25,
199.84L
255.73,
199.56L
256.21,
199.30L
256.69,
198.92L
257.17,
198.66L
257.65,
198.39L
258.13,
198.09L
258.61,
197.84L
259.09,
197.55L
259.57,
197.13L
260.05,
196.88L
260.53,
196.64L
261.01,
196.40L
261.49,
196.11L
261.97,
195.83L
262.45,
195.53L
262.93,
195.35L
263.40,
195.24L
263.89,
194.97L
264.37,
194.75L
264.85,
194.58L
265.32,
194.37L
265.80,
194.18L
266.28,
194.02L
266.76,
193.78L
267.24,
193.56L
267.72,
193.44L
268.20,
193.15L
268.68,
192.88L
269.16,
192.76L
269.64,
192.59L
270.12,
192.46L
270.60,
192.31L
271.08,
192.03L
271.56,
191.75L
272.04,
191.55L
272.52,
191.35L
273.00,
191.16L
273.48,
190.91L
273.96,
190.71L
274.44,
190.57L
274.92,
190.41L
275.40,
190.13L
275.88,
189.96L
276.36,
189.75L
276.84,
189.40L
277.32,
189.12L
277.80,
188.97L
278.28,
188.74L
278.76,
188.45L
279.24,
188.21L
279.72,
187.91L
280.20,
187.68L
280.68,
187.43L
281.15,
187.12L
281.64,
186.89L
282.12,
186.67L
282.60,
186.39L
283.07,
186.16L
283.55,
185.94L
284.03,
185.60L
284.51,
185.40L
284.99,
185.24L
285.47,
184.91L
285.95,
184.80L
286.43,
184.60L
286.91,
184.28L
287.39,
184.11L
287.87,
183.92L
288.35,
183.68L
288.83,
183.53L
289.31,
183.38L
289.79,
183.23L
290.27,
183.12L
290.75,
182.92L
291.23,
182.63L
291.71,
182.38L
292.19,
182.06L
292.67,
181.68L
293.15,
181.51L
293.63,
181.31L
294.11,
181.11L
294.59,
180.84L
295.07,
180.53L
295.55,
180.30L
296.03,
180.14L
296.51,
179.87L
296.99,
179.55L
297.47,
179.10L
297.95,
178.82L
298.43,
178.48L
298.90,
178.28L
299.39,
178.10L
299.87,
177.86L
300.35,
177.75L
300.82,
177.60L
301.30,
177.21L
301.78,
176.78L
302.26,
176.47L
302.74,
176.04L
303.22,
175.80L
303.70,
175.59L
304.18,
175.34L
304.66,
175.10L
305.14,
174.89L
305.62,
174.57L
306.10,
174.37L
306.58,
174.05L
307.06,
173.56L
307.54,
173.23L
308.02,
172.98L
308.50,
172.62L
308.98,
172.38L
309.46,
172.20L
309.94,
171.83L
310.42,
171.52L
310.90,
171.19L
311.38,
170.86L
311.86,
170.47L
312.34,
169.96L
312.82,
169.40L
313.30,
169.10L
313.78,
168.78L
314.26,
168.32L
314.74,
168.01L
315.22,
167.77L
315.70,
167.47L
316.18,
167.21L
316.65,
166.95L
317.14,
166.54L
317.62,
166.18L
318.10,
166.03L
318.57,
165.71L
319.05,
165.43L
319.53,
165.11L
320.01,
164.80L
320.49,
164.61L
320.97,
164.33L
321.45,
163.92L
321.93,
163.54L
322.41,
163.29L
322.89,
162.90L
323.37,
162.70L
323.85,
162.45L
324.33,
162.17L
324.81,
161.98L
325.29,
161.76L
325.77,
161.48L
326.25,
161.24L
326.73,
161.01L
327.21,
160.58L
327.69,
160.34L
328.17,
160.14L
328.65,
159.95L
329.13,
159.78L
329.61,
159.55L
330.09,
159.34L
330.57,
159.21L
331.05,
159.05L
331.53,
158.70L
332.01,
158.48L
332.49,
158.32L
332.97,
157.99L
333.45,
157.77L
333.93,
157.67L
334.41,
157.48L
334.89,
157.22L
335.37,
157.02L
335.85,
156.76L
336.32,
156.47L
336.80,
156.20L
337.28,
155.77L
337.76,
155.48L
338.24,
155.29L
338.72,
155.26L
339.20,
155.25L
339.68,
155.25L
340.16,
155.25L
340.64,
155.24L
341.12,
155.24L
341.60,
155.23L
342.08,
155.21L
342.56,
155.20L
343.04,
155.18L
343.52,
155.16L
344.00,
155.11L
344.48,
155.08L
344.96,
155.04L
345.44,
154.96L
345.92,
154.86L
346.40,
154.59L
346.88,
154.41L
347.36,
154.25L
347.84,
154.10L
348.32,
153.95L
348.80,
153.79L
349.28,
153.58L
349.76,
153.39L
350.24,
153.17L
350.72,
152.94L
351.20,
152.73L
351.68,
152.48L
352.16,
152.29L
352.64,
152.15L
353.12,
151.94L
353.60,
151.71L
354.07,
151.62L
354.55,
151.47L
355.03,
151.25L
355.51,
151.13L
355.99,
151.00L
356.47,
150.81L
356.95,
150.66L
357.43,
150.44L
357.91,
150.26L
358.39,
150.15L
358.87,
149.98L
359.35,
149.83L
359.83,
149.69L
360.31,
149.60L
360.79,
149.48L
361.27,
149.41L
361.75,
149.28L
362.23,
149.15L
362.71,
148.98L
363.19,
148.73L
363.67,
148.58L
364.15,
148.48L
364.63,
148.27L
365.11,
148.11L
365.59,
147.96L
366.07,
147.81L
366.55,
147.60L
367.03,
147.45L
367.51,
147.25L
367.99,
147.11L
368.47,
147.00L
368.95,
146.83L
369.43,
146.65L
369.91,
146.46L
370.39,
146.34L
370.87,
146.17L
371.35,
146.02L
371.82,
145.84L
372.30,
145.58L
372.78,
145.38L
373.26,
145.13L
373.74,
145.00L
374.22,
144.87L
374.70,
144.70L
375.18,
144.53L
375.66,
144.39L
376.14,
144.20L
376.62,
143.98L
377.10,
143.85L
377.58,
143.60L
378.06,
143.39L
378.54,
143.21L
379.02,
142.96L
379.50,
142.81L
379.98,
142.70L
380.46,
142.61L
380.94,
142.49L
381.42,
142.33L
381.90,
142.16L
382.38,
141.80L
382.86,
141.63L
383.34,
141.35L
383.82,
141.23L
384.30,
141.10L
384.78,
140.95L
385.26,
140.72L
385.74,
140.65L
386.22,
140.48L
386.70,
140.30L
387.18,
140.13L
387.66,
139.88L
388.14,
139.57L
388.62,
139.41L
389.10,
139.14L
389.57,
139.01L
390.05,
138.84L
390.53,
138.53L
391.01,
138.31L
391.49,
138.16L
391.97,
137.91L
392.45,
137.65L
392.93,
137.51L
393.41,
137.18L
393.89,
137.03L
394.37,
136.89L
394.85,
136.67L
395.33,
136.45L
395.81,
136.30L
396.29,
136.06L
396.77,
135.86L
397.25,
135.66L
397.73,
135.36L
398.21,
135.06L
398.69,
134.85L
399.17,
134.65L
399.65,
134.37L
400.13,
134.21L
400.61,
134.04L
401.09,
133.89L
401.57,
133.67L
402.05,
133.49L
402.53,
133.29L
403.01,
133.10L
403.49,
132.91L
403.97,
132.69L
404.45,
132.63L
404.93,
132.52L
405.41,
132.37L
405.89,
132.25L
406.37,
131.95L
406.85,
131.78L
407.32,
131.66L
407.80,
131.51L
408.28,
131.17L
408.76,
131.05L
409.24,
130.88L
409.72,
130.65L
410.20,
130.47L
410.68,
130.36L
411.16,
130.21L
411.64,
130.11L
412.12,
129.98L
412.60,
129.84L
413.08,
129.69L
413.56,
129.41L
414.04,
129.22L
414.52,
129.08L
415.00,
128.84L
415.48,
128.67L
415.96,
128.49L
416.44,
128.36L
416.92,
128.23L
417.40,
128.13L
417.88,
127.96L
418.36,
127.77L
418.84,
127.69L
419.32,
127.58L
419.80,
127.45L
420.28,
127.34L
420.76,
127.20L
421.24,
127.04L
421.72,
126.86L
422.20,
126.67L
422.68,
126.57L
423.16,
126.45L
423.64,
126.27L
424.12,
126.11L
424.60,
126.01L
425.07,
125.83L
425.55,
125.66L
426.03,
125.53L
426.51,
125.37L
426.99,
125.21L
427.47,
125.03L
427.95,
124.79L
428.43,
124.45L
428.91,
124.25L
429.39,
124.03L
429.87,
123.87L
430.35,
123.73L
430.83,
123.53L
431.31,
123.38L
431.79,
123.27L
432.27,
123.14L
432.75,
123.00L
433.23,
122.84L
433.71,
122.67L
434.19,
122.44L
434.67,
122.27L
435.15,
122.00L
435.63,
121.74L
436.11,
121.48L
436.59,
121.22L
437.07,
120.98L
437.55,
120.71L
438.03,
120.42L
438.51,
120.27L
438.99,
120.08L
439.47,
119.74L
439.95,
119.56L
440.43,
119.39L
440.91,
119.17L
441.39,
119.01L
441.87,
118.93L
442.35,
118.47L
442.82,
118.06L
443.30,
117.66L
443.78,
117.23L
444.26,
116.88L
444.74,
116.63L
445.22,
116.24L
445.70,
115.83L
446.18,
115.58L
446.66,
115.34L
447.14,
115.05L
447.62,
114.79L
448.10,
114.49L
448.58,
114.16L
449.06,
113.95L
449.54,
113.81L
450.02,
113.57L
450.50,
113.43L
450.98,
113.29L
451.46,
113.10L
451.94,
112.91L
452.42,
112.70L
452.90,
112.45L
453.38,
112.19L
453.86,
112.00L
454.34,
111.80L
454.82,
111.62L
455.30,
111.47L
455.78,
111.36L
456.26,
111.28L
456.74,
111.19L
457.22,
111.08L
457.70,
110.94L
458.18,
110.84L
458.66,
110.69L
459.14,
110.59L
459.62,
110.47L
460.10,
110.36L
460.57,
110.23L
461.05,
110.12L
461.53,
109.93L
462.01,
109.79L
462.49,
109.63L
462.97,
109.52L
463.45,
109.34L
463.93,
109.16L
464.41,
109.00L
464.89,
108.87L
465.37,
108.72L
465.85,
108.61L
466.33,
108.49L
466.81,
108.40L
467.29,
108.30L
467.77,
108.19L
468.25,
108.10L
468.73,
107.93L
469.21,
107.80L
469.69,
107.69L
470.17,
107.57L
470.65,
107.44L
471.13,
107.32L
471.61,
107.16L
472.09,
107.06L
472.57,
106.88L
473.05,
106.65L
473.53,
106.42L
474.01,
106.11L
474.49,
105.97L
474.97,
105.81L
475.45,
105.65L
475.93,
105.55L
476.41,
105.38L
476.89,
105.21L
477.37,
105.04L
477.85,
104.82L
478.32,
104.43L
478.80,
104.25L
479.28,
104.14L
479.76,
103.90L
480.24,
103.75L
480.72,
103.67L
481.20,
103.51L
481.68,
103.38L
482.16,
103.27L
482.64,
103.08L
483.12,
102.87L
483.60,
102.66L
484.08,
102.37L
484.56,
102.25L
485.04,
102.15L
485.52,
102.01L
486.00,
101.88L
486.48,
101.81L
486.96,
101.72L
487.44,
101.60L
487.92,
101.53L
488.40,
101.41L
488.88,
101.30L
489.36,
101.22L
489.84,
101.12L
490.32,
101.06L
490.80,
100.96L
491.28,
100.82L
491.76,
100.69L
492.24,
100.60L
492.72,
100.42L
493.20,
100.27L
493.68,
100.14L
494.16,
99.94L
494.64,
99.88L
495.12,
99.81L
495.60,
99.68L
496.07,
99.61L
496.55,
99.53L
497.03,
99.42L
497.51,
99.36L
497.99,
99.28L
498.47,
99.09L
498.95,
98.98L
499.43,
98.94L
499.91,
98.88L
500.39,
98.81L
500.87,
98.71L
501.35,
98.61L
501.83,
98.45L
502.31,
98.37L
502.79,
98.20L
503.27,
97.97L
503.75,
97.80L
504.23,
97.54L
504.71,
97.36L
505.19,
97.24L
505.67,
97.13L
506.15,
97.02L
506.63,
96.89L
507.11,
96.79L
507.59,
96.70L
508.07,
96.55L
508.55,
96.41L
509.03,
96.24L
509.51,
96.16L
509.99,
96.01L
510.47,
95.95L
510.95,
95.88L
511.43,
95.73L
511.91,
95.63L
512.39,
95.54L
512.87,
95.43L
513.35,
95.29L
513.82,
95.17L
514.30,
95.03L
514.78,
94.95L
515.26,
94.84L
515.74,
94.71L
516.22,
94.60L
516.70,
94.49L
517.18,
94.34L
517.66,
94.24L
518.14,
94.12L
518.62,
93.94L
519.10,
93.76L
519.58,
93.69L
520.06,
93.59L
520.54,
93.47L
521.02,
93.40L
521.50,
93.29L
521.98,
93.21L
522.46,
93.17L
522.94,
93.06L
523.42,
93.01L
523.90,
92.99L
524.38,
92.92L
524.86,
92.82L
525.34,
92.77L
525.82,
92.71L
526.30,
92.61L
526.78,
92.44L
527.26,
92.33L
527.74,
92.17L
528.22,
92.11L
528.70,
92.03L
529.18,
91.96L
529.66,
91.86L
530.14,
91.77L
530.62,
91.72L
531.10,
91.65L
531.57,
91.54L
532.05,
91.45L
532.53,
91.36L
533.01,
91.21L
533.49,
91.06L
533.97,
90.98L
534.45,
90.83L
534.93,
90.75L
535.41,
90.61L
535.89,
90.50L
536.37,
90.45L
536.85,
90.38L
537.33,
90.27L
537.81,
90.19L
538.29,
90.09L
538.77,
89.91L
539.25,
89.86L
539.73,
89.73L
540.21,
89.62L
540.69,
89.54L
541.17,
89.47L
541.65,
89.39L
542.13,
89.32L
542.61,
89.24L
543.09,
89.15L
543.57,
89.02L
544.05,
88.90L
544.53,
88.66L
545.01,
88.49L
545.49,
88.35L
545.97,
88.19L
546.45,
88.06L
546.93,
87.95L
547.41,
87.75L
547.89,
87.55L
548.37,
87.44L
548.85,
87.26L
549.32,
87.15L
549.80,
87.08L
550.28,
86.95L
550.76,
86.87L
551.24,
86.77L
551.72,
86.70L
552.20,
86.56L
552.68,
86.48L
553.16,
86.38L
553.64,
86.28L
554.12,
86.17L
554.60,
86.09L
555.08,
86.00L
555.56,
85.92L
556.04,
85.82L
556.52,
85.69L
557.00,
85.59L
557.48,
85.42L
557.96,
85.32L
558.44,
85.21L
558.92,
85.07L
559.40,
84.94L
559.88,
84.80L
560.36,
84.65L
560.84,
84.54L
561.32,
84.48L
561.80,
84.35L
562.28,
84.23L
562.76,
84.13L
563.24,
84.00L
563.72,
83.85L
564.20,
83.64L
564.68,
83.37L
565.16,
83.18L
565.64,
83.08L
566.12,
82.96L
566.60,
82.88L
567.07,
82.78L
567.55,
82.63L
568.03,
82.54L
568.51,
82.47L
568.99,
82.28L
569.47,
82.11L
569.95,
82.03L
570.43,
81.89L
570.91,
81.77L
571.39,
81.65L
571.87,
81.53L
572.35,
81.37L
572.83,
81.18L
573.31,
81.06L
573.79,
80.94L
574.27,
80.85L
574.75,
80.75L
575.23,
80.66L
575.71,
80.62L
576.19,
80.44L
576.67,
80.36L
577.15,
80.24L
577.63,
80.08L
578.11,
79.95L
578.59,
79.77L
579.07,
79.60L
579.55,
79.47L
580.03,
79.36L
580.51,
79.16L
580.99,
79.06L
581.47,
78.95L
581.95,
78.78L
582.43,
78.67L
582.91,
78.53L
583.39,
78.35L
583.87,
78.27L
584.35,
78.17L
584.82,
78.01L
585.30,
77.91L
585.78,
77.71L
586.26,
77.61L
586.74,
77.43L
587.22,
77.28L
587.70,
77.18L
588.18,
77.09L
588.66,
76.97L
589.14,
76.74L
589.62,
76.51L
590.10,
76.36L
590.58,
76.16L
591.06,
76.04L
591.54,
75.89L
592.02,
75.66L
592.50,
75.49L
592.98,
75.35L
593.46,
75.20L
593.94,
75.10L
594.42,
74.97L
594.90,
74.86L
595.38,
74.73L
595.86,
74.61L
596.34,
74.48L
596.82,
74.37L
597.30,
74.25L
597.78,
74.07L
598.26,
73.93L
598.74,
73.84L
599.22,
73.76L
599.70,
73.65L
600.18,
73.56L
600.66,
73.46L
601.14,
73.40L
601.62,
73.33L
602.10,
73.22L
602.57,
73.16L
603.05,
73.09L
603.53,
72.98L
604.01,
72.88L
604.49,
72.79L
604.97,
72.66L
605.45,
72.58L
605.93,
72.47L
606.41,
72.39L
606.89,
72.24L
607.37,
72.17L
607.85,
72.05L
608.33,
72.00L
608.81,
71.94L
609.29,
71.77L
609.77,
71.68L
610.25,
71.58L
610.73,
71.54L
611.21,
71.47L
611.69,
71.35L
612.17,
71.27L
612.65,
71.20L
613.13,
71.18L
613.61,
71.10L
614.09,
71.07L
614.57,
71.00L
615.05,
70.95L
615.53,
70.84L
616.01,
70.72L
616.49,
70.61L
616.97,
70.58L
617.45,
70.51L
617.93,
70.46L
618.41,
70.42L
618.89,
70.40L
619.37,
70.31L
619.85,
70.23L
620.32,
70.15L
620.80,
70.12L
621.28,
70.06L
621.76,
70.00L
622.24,
69.90L
622.72,
69.88L
623.20,
69.83L
623.68,
69.79L
624.16,
69.70L
624.64,
69.61L
625.12,
69.55L
625.60,
69.50L
626.08,
69.44L
626.56,
69.40L
627.04,
69.37L
627.52,
69.35L
628.00,
69.33L
628.48,
69.29L
628.96,
69.23L
629.44,
69.22L
629.92,
69.18L
630.40,
69.17L
630.88,
69.14L
631.36,
69.12L
631.84,
69.11L
632.32,
69.09L
632.80,
69.08L
633.28,
69.07L
633.76,
69.04L
634.24,
68.99L
634.72,
68.97L
635.20,
68.94L
635.68,
68.94L
636.16,
68.90L
636.64,
68.86L
637.12,
68.82L
637.60,
68.80L
638.07,
68.72L
638.55,
68.69L
639.03,
68.67L
639.51,
68.64L
639.99,
68.60L
640.47,
68.56L
640.95,
68.55L
641.43,
68.54L
641.91,
68.53L
642.39,
68.51L
642.87,
68.48L
643.35,
68.44L
643.83,
68.41L
644.31,
68.38L
644.79,
68.33L
645.27,
68.27L
645.75,
68.23L
646.23,
68.19L
646.71,
68.15L
647.19,
68.13L
647.67,
68.09L
648.15,
68.03L
648.63,
68.00L
649.11,
67.93L
649.59,
67.86L
650.07,
67.82L
650.55,
67.76L
651.03,
67.73L
651.51,
67.71L
651.99,
67.69L
652.47,
67.63L
652.95,
67.55L
653.43,
67.53L
653.91,
67.45L
654.39,
67.40L
654.87,
67.37L
655.35,
67.34L
655.82,
67.32L
656.30,
67.29L
656.78,
67.25L
657.26,
67.19L
657.74,
67.14L
658.22,
67.08L
658.70,
67.03L
659.18,
67.02L
659.66,
66.96L
660.14,
66.93L
660.62,
66.90L
661.10,
66.90L
661.58,
66.88L
662.06,
66.85L
662.54,
66.82L
663.02,
66.77L
663.50,
66.75L
663.98,
66.72L
664.46,
66.70L
664.94,
66.68L
665.42,
66.66L
665.90,
66.64L
666.38,
66.62L
666.86,
66.58L
667.34,
66.56L
667.82,
66.53L
668.30,
66.46L
668.78,
66.42L
669.26,
66.39L
669.74,
66.35L
670.22,
66.29L
670.70,
66.23L
671.18,
66.21L
671.66,
66.16L
672.14,
66.11L
672.62,
66.07L
673.10,
66.04L
673.57,
66.00L
674.05,
65.93L
674.53,
65.91L
675.01,
65.90L
675.49,
65.86L
675.97,
65.80L
676.45,
65.77L
676.93,
65.69L
677.41,
65.64L
677.89,
65.61L
678.37,
65.52L
678.85,
65.46L
679.33,
65.43L
679.81,
65.37L
680.29,
65.35L
680.77,
65.31L
681.25,
65.31L
681.73,
65.27L
682.21,
65.26L
682.69,
65.24L
683.17,
65.21L
683.65,
65.18L
684.13,
65.13L
684.61,
65.08L
685.09,
64.99L
685.57,
64.95L
686.05,
64.91L
686.53,
64.90L
687.01,
64.85L
687.49,
64.81L
687.97,
64.74L
688.45,
64.72L
688.93,
64.69L
689.41,
64.63L
689.89,
64.58L
690.37,
64.56L
690.85,
64.51L
691.32,
64.47L
691.80,
64.47L
692.28,
64.44L
692.76,
64.40L
693.24,
64.35L
693.72,
64.31L
694.20,
64.28L
694.68,
64.26L
695.16,
64.19L
695.64,
64.12L
696.12,
64.08L
696.60,
64.06L
697.08,
63.99L
697.56,
63.95L
698.04,
63.92L
698.52,
63.91L
699.00,
63.88L
699.48,
63.86L
699.96,
63.80L
700.44,
63.77L
700.92,
63.75L
701.40,
63.74L
701.88,
63.69L
702.36,
63.68L
702.84,
63.64L
703.32,
63.61L
703.80,
63.58L
704.28,
63.57L
704.76,
63.57L
705.24,
63.56L
705.72,
63.55L
706.20,
63.54L
706.68,
63.51L
707.16,
63.50L
707.64,
63.48L
708.12,
63.47L
708.60,
63.46L
709.07,
63.43L
709.55,
63.37L
710.03,
63.36L
710.51,
63.32L
710.99,
63.25L
711.47,
63.14L
711.95,
63.05L
712.43,
63.03L
712.91,
63.01L
713.39,
62.98L
713.87,
62.95L
714.35,
62.93L
714.83,
62.90L
715.31,
62.85L
715.79,
62.78L
716.27,
62.75L
716.75,
62.73L
717.23,
62.73L
717.71,
62.70L
718.19,
62.64L
718.67,
62.61L
719.15,
62.59L
719.63,
62.56L
720.11,
62.53L
720.59,
62.48L
721.07,
62.45L
721.55,
62.38L
722.03,
62.38L
722.51,
62.37L
722.99,
62.36L
723.47,
62.33L
723.95,
62.33L
724.43,
62.26L
724.91,
62.24L
725.39,
62.19L
725.87,
62.13L
726.35,
62.13L
726.82,
62.12L
727.30,
62.12L
727.78,
62.11L
728.26,
62.10L
728.74,
62.08L
729.22,
62.08L
729.70,
62.04L
730.18,
62.02L
730.66,
62.00L
731.14,
61.99L
731.62,
61.99L
732.10,
61.99L
732.58,
61.98L
733.06,
61.98L
733.54,
61.98L
734.02,
61.95L
734.50,
61.92L
734.98,
61.82L
735.46,
61.73L
735.94,
61.67L
736.42,
61.66L
736.90,
61.66L
737.38,
61.62L
737.86,
61.59L
738.34,
61.56L
738.82,
61.53L
739.30,
61.45L
739.78,
61.39L
740.26,
61.35L
740.74,
61.29L
741.22,
61.26L
741.70,
61.24L
742.18,
61.21L
742.66,
61.19L
743.14,
61.15L
743.62,
61.10L
744.10,
61.08L
744.57,
61.07L
745.05,
61.02L
745.53,
60.97L
746.01,
60.91L
746.49,
60.89L
746.97,
60.89L
747.45,
60.88L
747.93,
60.86L
748.41,
60.84L
748.89,
60.82L
749.37,
60.82L
749.85,
60.80L
750.33,
60.80L
750.81,
60.78L
751.29,
60.75L
751.77,
60.70L
752.25,
60.69L
752.73,
60.68L
753.21,
60.66L
753.69,
60.64L
754.17,
60.61L
754.65,
60.57L
755.13,
60.53L
755.61,
60.50L
756.09,
60.50L
756.57,
60.48L
757.05,
60.46L
757.53,
60.42L
758.01,
60.42L
758.49,
60.40L
758.97,
60.36L
759.45,
60.32L
759.93,
60.32L
760.41,
60.29L
760.89,
60.27L
761.37,
60.25L
761.85,
60.24L
762.32,
60.22L
762.80,
60.22L
763.28,
60.22L
763.76,
60.20L
764.24,
60.20L
764.72,
60.18L
765.20,
60.15L
765.68,
60.15L
766.16,
60.13L
766.64,
60.12L
767.12,
60.10L
767.60,
60.07L
768.08,
60.04L
768.56,
60.03L
769.04,
60.01L
769.52,
60.01L
770.00,
60"/>
  </g>
</svg>
