<svg class="plot-d6a7b5" fill="currentColor" font-family="system-ui, sans-serif" font-size="10" text-anchor="middle" width="830" height="470" viewBox="0 0 830 470" xmlns="http://www.w3.org/2000/svg" xmlns:xlink="http://www.w3.org/1999/xlink" color="#1e90ff"><style>:where(.plot-d6a7b5){--plot-background: white;display:block;height:intrinsic;max-width:100%}:where(.plot-d6a7b5 text),:where(.plot-d6a7b5 tspan){white-space:pre}</style><g aria-label="y-grid" stroke="currentColor" stroke-opacity=".1"><line x1="60" x2="770" y1="410" y2="410"/><line x1="60" x2="770" y1="360.939" y2="360.939"/><line x1="60" x2="770" y1="311.878" y2="311.878"/><line x1="60" x2="770" y1="262.817" y2="262.817"/><line x1="60" x2="770" y1="213.757" y2="213.757"/><line x1="60" x2="770" y1="164.696" y2="164.696"/><line x1="60" x2="770" y1="115.635" y2="115.635"/><line x1="60" x2="770" y1="66.574" y2="66.574"/></g><g aria-label="y-axis tick" fill="none" stroke="currentColor"><path transform="translate(60,410)" d="M0,0L-6,0"/><path transform="translate(60,360.9391645640594)" d="M0,0L-6,0"/><path transform="translate(60,311.8783291281189)" d="M0,0L-6,0"/><path transform="translate(60,262.8174936921783)" d="M0,0L-6,0"/><path transform="translate(60,213.7566582562377)" d="M0,0L-6,0"/><path transform="translate(60,164.69582282029717)" d="M0,0L-6,0"/><path transform="translate(60,115.6349873843566)" d="M0,0L-6,0"/><path transform="translate(60,66.57415194841604)" d="M0,0L-6,0"/></g><g aria-label="y-axis tick label" text-anchor="end" font-variant="tabular-nums"><text y=".32em" transform="translate(-9,0) translate(60,410)">0</text><text y=".32em" transform="translate(-9,0) translate(60,360.9391645640594)">1,000</text><text y=".32em" transform="translate(-9,0) translate(60,311.8783291281189)">2,000</text><text y=".32em" transform="translate(-9,0) translate(60,262.8174936921783)">3,000</text><text y=".32em" transform="translate(-9,0) translate(60,213.7566582562377)">4,000</text><text y=".32em" transform="translate(-9,0) translate(60,164.69582282029717)">5,000</text><text y=".32em" transform="translate(-9,0) translate(60,115.6349873843566)">6,000</text><text y=".32em" transform="translate(-9,0) translate(60,66.57415194841604)">7,000</text></g><g aria-label="y-axis label" text-anchor="start"><text y=".71em" transform="translate(-57,-57) translate(60,60)">↑ Visible Vestiges (4 days)</text></g><g aria-label="x-axis tick" fill="none" stroke="currentColor"><path transform="translate(94.38746438746439,410)" d="M0,0L0,6"/><path transform="translate(186.42450142450141,410)" d="M0,0L0,6"/><path transform="translate(279.47293447293447,410)" d="M0,0L0,6"/><path transform="translate(372.5213675213675,410)" d="M0,0L0,6"/><path transform="translate(464.55840455840456,410)" d="M0,0L0,6"/><path transform="translate(556.5954415954416,410)" d="M0,0L0,6"/><path transform="translate(649.6438746438746,410)" d="M0,0L0,6"/><path transform="translate(742.6923076923076,410)" d="M0,0L0,6"/></g><g aria-label="x-axis tick label" font-variant="tabular-nums"><text transform="translate(0,9) translate(94.38746438746439,410)"><tspan x="0" y=".71em">Apr</tspan><tspan x="0" dy="1em">2023</tspan></text><text y=".71em" transform="translate(0,9) translate(186.42450142450141,410)">Jul</text><text y=".71em" transform="translate(0,9) translate(279.47293447293447,410)">Oct</text><text transform="translate(0,9) translate(372.5213675213675,410)"><tspan x="0" y=".71em">Jan</tspan><tspan x="0" dy="1em">2024</tspan></text><text y=".71em" transform="translate(0,9) translate(464.55840455840456,410)">Apr</text><text y=".71em" transform="translate(0,9) translate(556.5954415954416,410)">Jul</text><text y=".71em" transform="translate(0,9) translate(649.6438746438746,410)">Oct</text><text transform="translate(0,9) translate(742.6923076923076,410)"><tspan x="0" y=".71em">Jan</tspan><tspan x="0" dy="1em">2025</tspan></text></g><g aria-label="line" fill="none" stroke="currentColor" stroke-width="1.5" stroke-linejoin="round" stroke-linecap="round"><path d="M60,410L60.674,385.371L61.349,295.296L62.023,246.726L62.697,236.913L63.371,270.177L64.046,274.003L64.72,266.497L65.394,238.434L66.068,216.013L66.743,178.237L67.417,139.626L68.091,90.369L68.765,109.65L69.44,145.66L70.114,202.669L70.788,195.015L71.462,193.445L72.137,192.906L72.811,202.227L73.485,211.5L74.16,182.996L74.834,179.12L75.508,151.989L76.182,189.815L76.857,205.22L77.531,226.905L78.205,195.948L78.879,180.395L79.554,178.089L80.228,172.398L80.902,155.718L81.576,120.05L82.251,109.601L82.925,132.463L83.599,196.683L84.274,250.013L84.948,270.765L85.622,263.21L86.296,242.555L86.971,233.038L87.645,194.623L88.319,149.978L88.993,97.041L89.668,82.862L90.342,111.808L91.016,141.343L91.69,166.756L92.365,169.111L93.039,181.131L93.713,172.595L94.387,152.136L95.062,116.665L95.736,86.689L96.41,60L97.085,86.934L97.759,122.258L98.433,160.378L99.107,147.328L99.782,133.297L100.456,116.518L101.13,104.351L101.804,106.461L102.479,106.362L103.153,107.049L103.827,95.029L104.501,125.006L105.176,147.77L105.85,175.048L106.524,172.791L107.198,182.603L107.873,202.375L108.547,199.333L109.221,182.358L109.896,158.759L110.57,141.883L111.244,161.114L111.918,182.161L112.593,219.055L113.267,234.853L113.941,250.503L114.615,249.718L115.29,224.795L115.964,202.473L116.638,178.482L117.312,176.716L117.987,168.474L118.661,188.785L119.335,212.825L120.009,207.967L120.684,205.613L121.358,211.5L122.032,247.412L122.707,255.802L123.381,231.32L124.055,208.507L124.729,194.329L125.404,192.562L126.078,221.508L126.752,245.744L127.426,262.033L128.101,240.74L128.775,245.793L129.449,248.099L130.123,252.662L130.798,215.327L131.472,195.997L132.146,185.841L132.821,211.549L133.495,223.814L134.169,231.32L134.843,235.638L135.518,238.483L136.192,248.05L136.866,248.345L137.54,235.834L138.215,235.785L138.889,227.69L139.563,239.955L140.237,253.496L140.912,267.527L141.586,274.151L142.26,266.154L142.934,265.712L143.609,267.086L144.283,259.334L144.957,217.829L145.632,195.212L146.306,179.757L146.98,216.897L147.654,223.618L148.329,247.412L149.003,243.438L149.677,262.327L150.351,246.578L151.026,241.623L151.7,218.025L152.374,203.454L153.048,196.34L153.723,200.314L154.397,230.486L155.071,232.105L155.745,239.857L156.42,249.865L157.094,249.718L157.768,261.297L158.443,259.579L159.117,278.174L159.791,273.464L160.465,263.799L161.14,265.761L161.814,263.21L162.488,262.719L163.162,262.817L163.837,267.969L164.511,285.042L165.185,277.438L165.859,269.637L166.534,263.014L167.208,259.825L167.882,265.123L168.557,263.063L169.231,273.366L169.905,272.384L170.579,264.191L171.254,257.813L171.928,261.64L172.602,269.833L173.276,270.569L173.951,274.396L174.625,265.123L175.299,267.675L175.973,255.262L176.648,262.916L177.322,264.093L177.996,284.993L178.67,288.82L179.345,293.824L180.019,272.875L180.693,265.271L181.368,260.414L182.042,258.647L182.716,260.953L183.39,256.292L184.065,262.278L184.739,245.744L185.413,237.649L186.087,247.952L186.762,265.859L187.436,276.26L188.11,281.068L188.784,283.766L189.459,298.534L190.133,288.28L190.807,291.665L191.481,280.381L192.156,284.404L192.83,276.604L193.504,280.283L194.179,278.615L194.853,282.442L195.527,276.751L196.201,276.996L196.876,272.679L197.55,283.325L198.224,279.4L198.898,283.963L199.573,277.928L200.247,271.109L200.921,268.263L201.595,262.572L202.27,269.49L202.944,277.29L203.618,270.373L204.292,268.165L204.967,274.445L205.641,286.514L206.315,296.817L206.99,281.804L207.664,289.458L208.338,282.687L209.012,288.771L209.687,284.306L210.361,276.015L211.035,262.082L211.709,253.643L212.384,272.826L213.058,271.452L213.732,271.599L214.406,257.617L215.081,263.161L215.755,270.716L216.429,270.177L217.104,279.694L217.778,269.637L218.452,269.244L219.126,254.87L219.801,255.704L220.475,255.556L221.149,266.791L221.823,258.255L222.498,242.653L223.172,208.605L223.846,213.266L224.52,232.105L225.195,264.486L225.869,273.905L226.543,282.246L227.217,287.152L227.892,287.299L228.566,288.476L229.24,288.133L229.915,286.416L230.589,284.11L231.263,281.313L231.937,277.536L232.612,273.071L233.286,276.407L233.96,264.24L234.634,249.964L235.309,234.706L235.983,250.16L236.657,257.666L237.331,256.881L238.006,253.594L238.68,252.269L239.354,262.817L240.028,266.546L240.703,281.559L241.377,292.303L242.051,304.372L242.726,298.436L243.4,298.239L244.074,287.25L244.748,282.785L245.423,285.876L246.097,287.888L246.771,292.941L247.445,294.118L248.12,296.964L248.794,299.466L249.468,300.791L250.142,300.594L250.817,291.322L251.491,278.762L252.165,281.755L252.84,284.944L253.514,294.609L254.188,300.692L254.862,307.512L255.537,314.822L256.211,324.242L256.885,331.208L257.559,307.463L258.234,288.329L258.908,276.26L259.582,283.08L260.256,301.576L260.931,310.505L261.605,334.25L262.279,334.103L262.953,330.227L263.628,324.094L264.302,307.806L264.976,300.496L265.651,270.373L266.325,254.575L266.999,265.32L267.673,289.556L268.348,316.294L269.022,312.909L269.696,314.626L270.37,308.101L271.045,313.792L271.719,310.308L272.393,299.073L273.067,292.597L273.742,288.329L274.416,309.965L275.09,320.415L275.764,335.182L276.439,329.687L277.113,326.94L277.787,315.999L278.462,310.161L279.136,300.496L279.81,294.315L280.484,293.137L281.159,309.229L281.833,321.592L282.507,331.306L283.181,327.087L283.856,332.827L284.53,329.982L285.204,320.268L285.878,306.285L286.553,288.771L287.227,275.377L287.901,270.373L288.575,281.706L289.25,301.379L289.924,316.588L290.598,323.8L291.273,320.611L291.947,313.595L292.621,314.282L293.295,318.845L293.97,303.047L294.644,282.246L295.318,277.977L295.992,303.293L296.667,329.05L297.341,341.168L298.015,335.231L298.689,332.974L299.364,326.253L300.038,316.049L300.712,290.144L301.387,276.555L302.061,272.139L302.735,295.1L303.409,307.855L304.084,316.196L304.758,315.656L305.432,314.233L306.106,319.483L306.781,307.316L307.455,308.052L308.129,303.195L308.803,315.803L309.478,323.751L310.152,328.412L310.826,330.325L311.5,332.484L312.175,346.81L312.849,348.38L313.523,324.291L314.198,300.938L314.872,277.83L315.546,286.121L316.22,301.821L316.895,330.571L317.569,334.741L318.243,333.858L318.917,334.299L319.592,342.983L320.266,343.375L320.94,341.756L321.614,333.71L322.289,336.163L322.963,329.442L323.637,338.911L324.311,344.504L324.986,357.603L325.66,357.063L326.334,356.72L327.009,353.531L327.683,360.203L328.357,346.761L329.031,326.351L329.706,301.526L330.38,303.096L331.054,312.32L331.728,331.012L332.403,339.058L333.077,349.165L333.751,342.198L334.425,334.839L335.1,323.555L335.774,322.525L336.448,320.17L337.123,322.083L337.797,321.396L338.471,328.412L339.145,330.08L339.82,327.627L340.494,316.441L341.168,316.588L341.842,321.494L342.517,338.567L343.191,335.28L343.865,330.914L344.539,324.83L345.214,335.133L345.888,351.618L346.562,355.935L347.236,351.765L347.911,345.927L348.585,351.618L349.259,354.12L349.934,355.837L350.608,352.354L351.282,349.802L351.956,352.599L352.631,348.281L353.305,343.523L353.979,344.258L354.653,355.641L355.328,369.034L356.002,366.091L356.676,355.248L357.35,340.775L358.025,335.133L358.699,343.768L359.373,351.961L360.047,347.742L360.722,347.496L361.396,353.04L362.07,361.037L362.745,353.089L363.419,349.999L364.093,345.779L364.767,338.518L365.442,327.725L366.116,334.005L366.79,346.025L367.464,344.847L368.139,336.213L368.813,328.951L369.487,335.378L370.161,333.073L370.836,333.024L371.51,332.631L372.184,336.409L372.858,338.813L373.533,338.42L374.207,338.616L374.881,332.582L375.556,335.918L376.23,341.707L376.904,342.787L377.578,351.274L378.253,347.251L378.927,347.938L379.601,343.032L380.275,343.572L380.95,351.421L381.624,353.433L382.298,357.701L382.972,366.483L383.647,369.966L384.321,364.472L384.995,351.814L385.67,337.292L386.344,326.548L387.018,317.177L387.692,325.615L388.367,336.507L389.041,353.973L389.715,344.16L390.389,334.397L391.064,331.454L391.738,342.051L392.412,345.632L393.086,336.507L393.761,308.689L394.435,307.561L395.109,305.5L395.783,330.08L396.458,339.598L397.132,349.214L397.806,358.29L398.481,360.988L399.155,346.859L399.829,315.411L400.503,299.907L401.178,295.345L401.852,313.399L402.526,323.849L403.2,342.149L403.875,342.002L404.549,341.854L405.223,334.25L405.897,339.058L406.572,327.627L407.246,312.271L407.92,298.141L408.594,305.893L409.269,317.569L409.943,327.038L410.617,333.661L411.292,332.68L411.966,326.94L412.64,311.486L413.314,315.705L413.989,307.463L414.663,290.095L415.337,267.871L416.011,275.77L416.686,294.952L417.36,304.323L418.034,303.342L418.708,311.339L419.383,326.891L420.057,332.533L420.731,330.276L421.406,319.434L422.08,309.131L422.754,319.728L423.428,328.608L424.103,336.948L424.777,320.366L425.451,321.2L426.125,329.835L426.8,334.005L427.474,324.389L428.148,305.549L428.822,307.708L429.497,309.916L430.171,328.019L430.845,328.412L431.519,338.911L432.194,340.039L432.868,343.179L433.542,342.492L434.217,337.979L434.891,336.605L435.565,322.868L436.239,321.887L436.914,324.536L437.588,348.576L438.262,355.248L438.936,352.991L439.611,350.146L440.285,354.169L440.959,360.596L441.633,347.546L442.308,339.058L442.982,338.764L443.656,341.02L444.33,340.186L445.005,347.006L445.679,359.664L446.353,356.426L447.028,346.81L447.702,339.941L448.376,337.194L449.05,329.344L449.725,313.743L450.399,313.105L451.073,321.396L451.747,359.516L452.422,387.825L453.096,406.124L453.77,409.166L454.444,409.215L455.119,408.97L455.793,408.724L456.467,406.86L457.142,405.634L457.816,405.094L458.49,404.652L459.164,401.954L459.839,399.943L460.513,398.667L461.187,395.38L461.861,388.168L462.536,366.287L463.21,356.475L463.884,350.391L464.558,361.479L465.233,364.913L465.907,365.158L466.581,359.418L467.255,355.101L467.93,349.459L468.604,347.349L469.278,345.73L469.953,343.179L470.627,347.251L471.301,353.089L471.975,356.916L472.65,353.482L473.324,358.094L473.998,364.275L474.672,365.06L475.347,362.656L476.021,364.472L476.695,367.072L477.369,364.226L478.044,355.15L478.718,355.592L479.392,359.565L480.066,364.717L480.741,368.544L481.415,365.845L482.089,372.91L482.764,375.559L483.438,382.133L484.112,379.043L484.786,377.522L485.461,367.759L486.135,356.622L486.809,354.856L487.483,361.871L488.158,364.717L488.832,363.883L489.506,359.271L490.18,365.06L490.855,360.056L491.529,360.007L492.203,354.954L492.877,362.068L493.552,365.894L494.226,369.77L494.9,365.551L495.575,357.456L496.249,361.43L496.923,362.656L497.597,367.072L498.272,361.381L498.946,352.697L499.62,347.889L500.294,341.266L500.969,353.089L501.643,360.105L502.317,367.906L502.991,364.864L503.666,362.902L504.34,360.841L505.014,356.18L505.689,356.867L506.363,351.765L507.037,351.912L507.711,348.085L508.386,347.153L509.06,353.973L509.734,360.056L510.408,376.099L511.083,378.258L511.757,373.989L512.431,366.091L513.105,343.228L513.78,341.168L514.454,331.306L515.128,353.776L515.802,359.026L516.477,370.555L517.151,360.89L517.825,365.453L518.5,364.177L519.174,368.445L519.848,359.86L520.522,351.47L521.197,338.911L521.871,339.156L522.545,337.096L523.219,355.199L523.894,354.561L524.568,351.421L525.242,341.953L525.916,343.572L526.591,349.312L527.265,345.338L527.939,346.319L528.613,338.616L529.288,349.999L529.962,349.508L530.636,360.449L531.311,353.335L531.985,353.089L532.659,349.655L533.333,352.206L534.008,347.055L534.682,342.198L535.356,332.19L536.03,331.11L536.705,340.186L537.379,342.541L538.053,347.447L538.727,351.029L539.402,362.803L540.076,357.652L540.75,355.935L541.425,351.372L542.099,354.561L542.773,353.678L543.447,351.716L544.122,363.098L544.796,372.223L545.47,378.405L546.144,373.008L546.819,354.414L547.493,352.942L548.167,353.188L548.841,366.189L549.516,349.655L550.19,349.999L550.864,348.772L551.538,359.32L552.213,353.629L552.887,359.222L553.561,367.072L554.236,374.922L554.91,373.548L555.584,373.989L556.258,368.298L556.933,353.825L557.607,349.312L558.281,351.372L558.955,354.757L559.63,356.573L560.304,352.206L560.978,362.951L561.652,367.023L562.327,374.48L563.001,370.849L563.675,365.355L564.349,366.974L565.024,372.468L565.698,378.994L566.372,375.952L567.047,373.695L567.721,369.819L568.395,363.638L569.069,358.192L569.744,363.638L570.418,370.015L571.092,370.997L571.766,365.698L572.441,366.777L573.115,366.826L573.789,366.14L574.463,363.098L575.138,365.306L575.812,365.502L576.486,361.086L577.16,352.844L577.835,336.507L578.509,333.612L579.183,335.722L579.858,353.433L580.532,359.32L581.206,361.135L581.88,362.068L582.555,365.6L583.229,372.125L583.903,372.174L584.577,367.759L585.252,364.717L585.926,355.493L586.6,354.169L587.274,344.013L587.949,342.051L588.623,333.024L589.297,333.612L589.972,335.673L590.646,334.888L591.32,332.435L591.994,341.07L592.669,348.723L593.343,343.228L594.017,339.892L594.691,342.639L595.366,354.463L596.04,356.867L596.714,365.06L597.388,341.511L598.063,317.373L598.737,285.925L599.411,289.408L600.085,294.805L600.76,309.572L601.434,313.497L602.108,307.365L602.783,307.168L603.457,321.985L604.131,333.907L604.805,332.582L605.48,327.038L606.154,323.26L606.828,328.167L607.502,344.013L608.177,352.255L608.851,359.86L609.525,358.633L610.199,363.588L610.874,359.32L611.548,352.893L612.222,346.761L612.896,339.598L613.571,341.119L614.245,346.662L614.919,354.463L615.594,358.535L616.268,367.464L616.942,376.786L617.616,382.918L618.291,381.986L618.965,376.442L619.639,376.099L620.313,372.518L620.988,375.756L621.662,373.253L622.336,377.767L623.01,374.872L623.685,376.148L624.359,367.611L625.033,366.925L625.708,362.46L626.382,369.868L627.056,366.385L627.73,363.588L628.405,359.418L629.079,364.521L629.753,367.611L630.427,372.419L631.102,372.076L631.776,378.65L632.45,379.582L633.124,381.005L633.799,380.024L634.473,374.087L635.147,372.125L635.821,370.064L636.496,374.774L637.17,374.333L637.844,373.695L638.519,369.77L639.193,373.401L639.867,368.004L640.541,359.958L641.216,347.546L641.89,333.907L642.564,343.719L643.238,350.685L643.913,365.6L644.587,369.083L645.261,367.66L645.935,367.072L646.61,360.399L647.284,355.297L647.958,333.416L648.632,333.024L649.307,343.67L649.981,358.339L650.655,361.086L651.33,364.422L652.004,372.37L652.678,373.401L653.352,370.751L654.027,368.249L654.701,360.645L655.375,350.685L656.049,340.088L656.724,349.704L657.398,360.203L658.072,375.02L658.746,373.744L659.421,376.541L660.095,382.133L660.769,382.084L661.443,382.771L662.118,379.435L662.792,381.348L663.466,379.779L664.141,381.692L664.815,386.255L665.489,384.537L666.163,380.318L666.838,374.48L667.512,375.216L668.186,370.997L668.86,368.396L669.535,364.275L670.209,363.49L670.883,372.468L671.557,378.405L672.232,384.881L672.906,382.869L673.58,382.084L674.255,384.734L674.929,385.813L675.603,386.058L676.277,377.718L676.952,372.763L677.626,376.295L678.3,389.689L678.974,394.006L679.649,387.825L680.323,382.869L680.997,374.872L681.671,377.178L682.346,370.702L683.02,362.803L683.694,353.923L684.368,345.142L685.043,350.146L685.717,355.542L686.391,369.77L687.066,376.982L687.74,375.854L688.414,377.031L689.088,379.386L689.763,377.276L690.437,372.468L691.111,365.011L691.785,371.34L692.46,371.291L693.134,381.201L693.808,382.379L694.482,382.624L695.157,379.386L695.831,377.227L696.505,380.956L697.179,376.688L697.854,373.744L698.528,371.144L699.202,376.737L699.877,378.16L700.551,378.552L701.225,375.118L701.899,375.412L702.574,373.94L703.248,375.265L703.922,374.333L704.596,370.948L705.271,363.294L705.945,367.808L706.619,375.559L707.293,381.79L707.968,381.348L708.642,381.054L709.316,384.39L709.991,387.53L710.665,387.825L711.339,390.817L712.013,392.436L712.688,395.527L713.362,391.112L714.036,388.855L714.71,390.228L715.385,389.247L716.059,377.767L716.733,372.567L717.407,367.808L718.082,378.307L718.756,380.416L719.43,388.904L720.104,385.568L720.779,384.979L721.453,386.843L722.127,389.444L722.802,387.285L723.476,383.311L724.15,381.643L724.824,377.914L725.499,371.831L726.173,372.321L726.847,373.204L727.521,380.269L728.196,373.94L728.87,377.473L729.544,380.171L730.218,388.07L730.893,388.119L731.567,384.734L732.241,381.299L732.915,374.627L733.59,377.963L734.264,374.971L734.938,381.79L735.613,378.601L736.287,384.685L736.961,386.892L737.635,389.149L738.31,387.775L738.984,387.383L739.658,379.828L740.332,376.491L741.007,361.528L741.681,358.388L742.355,356.229L743.029,363.834L743.704,368.593L744.378,370.899L745.052,367.71L745.726,360.007L746.401,360.694L747.075,361.822L747.749,370.702L748.424,374.529L749.098,380.171L749.772,382.526L750.446,379.828L751.121,385.764L751.795,380.563L752.469,381.594L753.143,378.258L753.818,382.624L754.492,379.877L755.166,381.79L755.84,382.183L756.515,385.224L757.189,384.096L757.863,379.975L758.538,378.405L759.212,370.604L759.886,373.499L760.56,372.468L761.235,376.05L761.909,373.45L762.583,370.31L763.257,368.593L763.932,370.899L764.606,378.356L765.28,380.318L765.954,379.729L766.629,376.05L767.303,376.246L767.977,372.763L768.651,362.215L769.326,349.017L770,344.896"/></g></svg>