<svg class="plot-d6a7b5" fill="currentColor" font-family="system-ui, sans-serif" font-size="10" text-anchor="middle" width="830" height="470" viewBox="0 0 830 470" xmlns="http://www.w3.org/2000/svg" xmlns:xlink="http://www.w3.org/1999/xlink" color="#1e90ff"><style>:where(.plot-d6a7b5){--plot-background: white;display:block;height:intrinsic;max-width:100%}:where(.plot-d6a7b5 text),:where(.plot-d6a7b5 tspan){white-space:pre}</style><g aria-label="y-grid" stroke="currentColor" stroke-opacity=".1"><line x1="60" x2="770" y1="410" y2="410"/><line x1="60" x2="770" y1="378.557" y2="378.557"/><line x1="60" x2="770" y1="347.114" y2="347.114"/><line x1="60" x2="770" y1="315.671" y2="315.671"/><line x1="60" x2="770" y1="284.227" y2="284.227"/><line x1="60" x2="770" y1="252.784" y2="252.784"/><line x1="60" x2="770" y1="221.341" y2="221.341"/><line x1="60" x2="770" y1="189.898" y2="189.898"/><line x1="60" x2="770" y1="158.455" y2="158.455"/><line x1="60" x2="770" y1="127.012" y2="127.012"/><line x1="60" x2="770" y1="95.568" y2="95.568"/><line x1="60" x2="770" y1="64.125" y2="64.125"/></g><g aria-label="y-axis tick" fill="none" stroke="currentColor"><path transform="translate(60,410)" d="M0,0L-6,0"/><path transform="translate(60,378.55684921661634)" d="M0,0L-6,0"/><path transform="translate(60,347.11369843323274)" d="M0,0L-6,0"/><path transform="translate(60,315.6705476498491)" d="M0,0L-6,0"/><path transform="translate(60,284.2273968664655)" d="M0,0L-6,0"/><path transform="translate(60,252.7842460830818)" d="M0,0L-6,0"/><path transform="translate(60,221.34109529969817)" d="M0,0L-6,0"/><path transform="translate(60,189.8979445163145)" d="M0,0L-6,0"/><path transform="translate(60,158.45479373293085)" d="M0,0L-6,0"/><path transform="translate(60,127.01164294954722)" d="M0,0L-6,0"/><path transform="translate(60,95.56849216616357)" d="M0,0L-6,0"/><path transform="translate(60,64.12534138277994)" d="M0,0L-6,0"/></g><g aria-label="y-axis tick label" text-anchor="end" font-variant="tabular-nums"><text y=".32em" transform="translate(-9,0) translate(60,410)">0</text><text y=".32em" transform="translate(-9,0) translate(60,378.55684921661634)">5,000</text><text y=".32em" transform="translate(-9,0) translate(60,347.11369843323274)">10,000</text><text y=".32em" transform="translate(-9,0) translate(60,315.6705476498491)">15,000</text><text y=".32em" transform="translate(-9,0) translate(60,284.2273968664655)">20,000</text><text y=".32em" transform="translate(-9,0) translate(60,252.7842460830818)">25,000</text><text y=".32em" transform="translate(-9,0) translate(60,221.34109529969817)">30,000</text><text y=".32em" transform="translate(-9,0) translate(60,189.8979445163145)">35,000</text><text y=".32em" transform="translate(-9,0) translate(60,158.45479373293085)">40,000</text><text y=".32em" transform="translate(-9,0) translate(60,127.01164294954722)">45,000</text><text y=".32em" transform="translate(-9,0) translate(60,95.56849216616357)">50,000</text><text y=".32em" transform="translate(-9,0) translate(60,64.12534138277994)">55,000</text></g><g aria-label="y-axis label" text-anchor="start"><text y=".71em" transform="translate(-57,-57) translate(60,60)">↑ Visible Vestiges (30 days)</text></g><g aria-label="x-axis tick" fill="none" stroke="currentColor"><path transform="translate(65.91666666666667,410)" d="M0,0L0,6"/><path transform="translate(127.05555555555554,410)" d="M0,0L0,6"/><path transform="translate(186.22222222222223,410)" d="M0,0L0,6"/><path transform="translate(247.36111111111114,410)" d="M0,0L0,6"/><path transform="translate(306.52777777777777,410)" d="M0,0L0,6"/><path transform="translate(367.6666666666667,410)" d="M0,0L0,6"/><path transform="translate(428.80555555555554,410)" d="M0,0L0,6"/><path transform="translate(487.9722222222222,410)" d="M0,0L0,6"/><path transform="translate(549.1111111111111,410)" d="M0,0L0,6"/><path transform="translate(608.2777777777777,410)" d="M0,0L0,6"/><path transform="translate(669.4166666666666,410)" d="M0,0L0,6"/><path transform="translate(730.5555555555555,410)" d="M0,0L0,6"/></g><g aria-label="x-axis tick label" font-variant="tabular-nums"><text transform="translate(0,9) translate(65.91666666666667,410)"><tspan x="0" y=".71em">Mar</tspan><tspan x="0" dy="1em">2023</tspan></text><text y=".71em" transform="translate(0,9) translate(127.05555555555554,410)">Apr</text><text y=".71em" transform="translate(0,9) translate(186.22222222222223,410)">May</text><text y=".71em" transform="translate(0,9) translate(247.36111111111114,410)">Jun</text><text y=".71em" transform="translate(0,9) translate(306.52777777777777,410)">Jul</text><text y=".71em" transform="translate(0,9) translate(367.6666666666667,410)">Aug</text><text y=".71em" transform="translate(0,9) translate(428.80555555555554,410)">Sep</text><text y=".71em" transform="translate(0,9) translate(487.9722222222222,410)">Oct</text><text y=".71em" transform="translate(0,9) translate(549.1111111111111,410)">Nov</text><text y=".71em" transform="translate(0,9) translate(608.2777777777777,410)">Dec</text><text transform="translate(0,9) translate(669.4166666666666,410)"><tspan x="0" y=".71em">Jan</tspan><tspan x="0" dy="1em">2024</tspan></text><text y=".71em" transform="translate(0,9) translate(730.5555555555555,410)">Feb</text></g><g aria-label="line" fill="none" stroke="currentColor" stroke-width="1.5" stroke-linejoin="round" stroke-linecap="round"><path d="M60,410L61.315,406.843L62.63,395.297L63.944,389.071L65.259,384.657L66.574,377.375L67.889,371.639L69.204,366.263L70.519,355.383L71.833,346.774L73.148,336.555L74.463,320.727L75.778,305.804L77.093,298.056L78.407,286.843L79.722,279.228L81.037,270.499L82.352,259.085L83.667,251.401L84.981,243.867L86.296,233.642L87.611,222.303L88.926,214.273L90.241,200.57L91.556,194.08L92.87,188.024L94.185,177.101L95.5,166.643L96.815,158.593L98.13,147.374L99.444,139.344L100.759,140.702L102.074,131.137L103.389,123.025L104.704,123.05L106.019,121.226L107.333,120.912L108.648,127.194L109.963,127.276L111.278,129.156L112.593,139.168L113.907,140.639L115.222,134.325L116.537,132.936L117.852,125.282L119.167,123.66L120.481,126.257L121.796,121.93L123.111,119.415L124.426,122.364L125.741,120.597L127.056,115.956L128.37,117.837L129.685,107.379L131,97.342L132.315,99.895L133.63,97.933L134.944,94.776L136.259,95.952L137.574,92.921L138.889,89.752L140.204,93.94L141.519,92.519L142.833,86.406L144.148,82.45L145.463,72.653L146.778,67.722L148.093,67.653L149.407,64L150.722,60L152.037,66.113L153.352,70.716L154.667,73.112L155.981,78.866L157.296,76.734L158.611,73.181L159.926,78.143L161.241,78.407L162.556,78.042L163.87,86.123L165.185,91.016L166.5,95.097L167.815,103.825L169.13,109.278L170.444,106.831L171.759,110.806L173.074,110.315L174.389,112.145L175.704,121L177.019,122.037L178.333,125.125L179.648,134.464L180.963,140.117L182.278,144.192L183.593,151.933L184.907,150.82L186.222,150.16L187.537,154.179L188.852,157.065L190.167,158.254L191.481,161.825L192.796,162.373L194.111,166.385L195.426,173.277L196.741,176.572L198.056,173.334L199.37,175.05L200.685,172.315L202,170.347L203.315,171.629L204.63,169.957L205.944,171.736L207.259,176.245L208.574,178.874L209.889,180.918L211.204,184.88L212.519,184.898L213.833,182.823L215.148,188.98L216.463,191.036L217.778,190.005L219.093,192.407L220.407,192.363L221.722,194.413L223.037,199.916L224.352,200.696L225.667,197.652L226.981,196.545L228.296,192.237L229.611,191.866L230.926,194.35L232.241,192.445L233.556,191.269L234.87,195.589L236.185,196.451L237.5,197.117L238.815,199.714L240.13,195.413L241.444,193.596L242.759,195.74L244.074,194.753L245.389,192.778L246.704,194.69L248.019,194.948L249.333,194.558L250.648,197.96L251.963,199.035L253.278,199.457L254.593,200.519L255.907,198.557L257.222,198.381L258.537,200.142L259.852,198.174L261.167,197.834L262.481,201.249L263.796,206.789L265.111,208.374L266.426,212.77L267.741,212.701L269.056,213.015L270.37,215.04L271.685,215.216L273,214.43L274.315,218.348L275.63,218.109L276.944,219.53L278.259,225.806L279.574,227.529L280.889,228.535L282.204,231.434L283.519,231.761L284.833,232.101L286.148,232.126L287.463,233.453L288.778,232.459L290.093,235.384L291.407,234.818L292.722,235.069L294.037,236.547L295.352,234.755L296.667,234.711L297.981,236.025L299.296,234.516L300.611,233.214L301.926,233.107L303.241,230.453L304.556,229.114L305.87,231.177L307.185,231.227L308.5,230.541L309.815,233.484L311.13,232.56L312.444,233.893L313.759,236.572L315.074,236.899L316.389,236.295L317.704,238.44L319.019,237.673L320.333,237.05L321.648,240.169L322.963,239.566L324.278,239.805L325.593,241.974L326.907,240.666L328.222,239.591L329.537,240.767L330.852,239.402L332.167,240.238L333.481,241.515L334.796,240.408L336.111,240.742L337.426,242.609L338.741,243.1L340.056,241.779L341.37,245.483L342.685,247.816L344,246.722L345.315,249.451L346.63,248.527L347.944,247.797L349.259,249.313L350.574,247.275L351.889,247.288L353.204,247.307L354.519,244.93L355.833,243.345L357.148,246.823L358.463,243.798L359.778,242.446L361.093,243.641L362.407,242.056L363.722,241.641L365.037,243.32L366.352,241.59L367.667,240.389L368.981,241.433L370.296,238.635L371.611,238.415L372.926,239.805L374.241,239.176L375.556,236.975L376.87,235.365L378.185,231.258L379.5,229.938L380.815,229.938L382.13,228.435L383.444,227.001L384.759,229.994L386.074,228.139L387.389,227.592L388.704,229.957L390.019,228.63L391.333,228.925L392.648,232.78L393.963,232.176L395.278,229.529L396.593,232.988L397.907,232.793L399.222,230.378L400.537,231.296L401.852,228.177L403.167,227.812L404.481,228.472L405.796,226.542L407.111,225.806L408.426,228.139L409.741,227.454L411.056,227.215L412.37,230.032L413.685,231.818L415,235.126L416.315,241.546L417.63,242.71L418.944,242.194L420.259,243.892L421.574,244.244L422.889,242.917L424.204,244.634L425.519,245.118L426.833,244.005L428.148,246.087L429.463,246.961L430.778,246.118L432.093,247.37L433.407,247.118L434.722,247.231L436.037,248.464L437.352,251.011L438.667,253.734L439.981,257.796L441.296,259.299L442.611,262.268L443.926,267.324L445.241,266.204L446.556,266.89L447.87,269.047L449.185,268.323L450.5,269.455L451.815,271.38L453.13,272.153L454.444,274.027L455.759,275.48L457.074,276.876L458.389,277.234L459.704,277.354L461.019,274.631L462.333,272.317L463.648,273.662L464.963,273.681L466.278,274.474L467.593,275.216L468.907,275.48L470.222,276.624L471.537,279.706L472.852,279.14L474.167,278.436L475.481,279.448L476.796,277.555L478.111,278.75L479.426,280.165L480.741,278.958L482.056,278.555L483.37,282.662L484.685,282.504L486,282.9L487.315,284.894L488.63,281.574L489.944,280.674L491.259,281.687L492.574,279.97L493.889,280.813L495.204,282.07L496.519,283.177L497.833,284.592L499.148,288.466L500.463,289.805L501.778,287.598L503.093,286.649L504.407,283.919L505.722,283.599L507.037,284.951L508.352,285.007L509.667,284.881L510.981,286.271L512.296,286.869L513.611,287.661L514.926,290.183L516.241,285.982L517.556,282.768L518.87,282.85L520.185,282.599L521.5,283.039L522.815,286.076L524.13,285.812L525.444,287.202L526.759,290.17L528.074,288.749L529.389,284.756L530.704,284.397L532.019,281.165L533.333,280.655L534.648,281.196L535.963,279.398L537.278,280.064L538.593,282.215L539.907,283.334L541.222,284.158L542.537,287.045L543.852,286.089L545.167,286.007L546.481,287.963L547.796,286.68L549.111,287.252L550.426,290.384L551.741,290.849L553.056,291.038L554.37,293.107L555.685,293.245L557,291.019L558.315,290.906L559.63,289.755L560.944,289.661L562.259,290.843L563.574,289.868L564.889,290.692L566.204,294.295L567.519,296.691L568.833,299.05L570.148,302.188L571.463,301.955L572.778,301.817L574.093,305.099L575.407,305.653L576.722,307.376L578.037,309.916L579.352,311.985L580.667,313.205L581.981,317.224L583.296,315.954L584.611,313.539L585.926,313.778L587.241,312.463L588.556,310.954L589.87,311.753L591.185,311.269L592.5,314.142L593.815,317.041L595.13,318.576L596.444,318.941L597.759,319.695L599.074,317.243L600.389,317.318L601.704,318.098L603.019,316.488L604.333,315.664L605.648,316.079L606.963,313.243L608.278,313.47L609.593,314.199L610.907,314.413L612.222,313.004L613.537,312.457L614.852,310.212L616.167,310.193L617.481,311.803L618.796,310.52L620.111,309.112L621.426,311.696L622.741,313.759L624.056,315.853L625.37,318.456L626.685,318.89L628,318.261L629.315,320.192L630.63,318.777L631.944,318.431L633.259,321.399L634.574,322.89L635.889,324.393L637.204,327.286L638.519,327.141L639.833,326.877L641.148,328.147L642.463,328.896L643.778,329.996L645.093,332.159L646.407,332.857L647.722,334.04L649.037,335.04L650.352,335.14L651.667,336.486L652.981,337.725L654.296,335.574L655.611,333.423L656.926,334.914L658.241,334.838L659.556,333.285L660.87,332.939L662.185,331.612L663.5,330.663L664.815,330.468L666.13,329.462L667.444,328.103L668.759,328.946L670.074,328.858L671.389,327.355L672.704,326.764L674.019,324.185L675.333,323.487L676.648,325.028L677.963,324.443L679.278,325.556L680.593,325.475L681.907,323.928L683.222,324.953L684.537,324.971L685.852,323.72L687.167,323.978L688.481,325.563L689.796,325.833L691.111,327.078L692.426,328.889L693.741,328.921L695.056,327.499L696.37,326.393L697.685,325.374L699,326.141L700.315,327.361L701.63,327.757L702.944,327.562L704.259,327.537L705.574,327.606L706.889,328.286L708.204,328.411L709.519,327.361L710.833,324.449L712.148,325.204L713.463,323.462L714.778,322.959L716.093,324.795L717.407,323.198L718.722,324.374L720.037,326.468L721.352,323.689L722.667,320.764L723.981,319.865L725.296,316.243L726.611,315.086L727.926,314.4L729.241,312.677L730.556,312.206L731.87,313.124L733.185,312.287L734.5,313.809L735.815,314.463L737.13,310.577L738.444,308.891L739.759,308.3L741.074,307.168L742.389,307.948L743.704,308.583L745.019,305.967L746.333,305.552L747.648,305.376L748.963,306.866L750.278,305.54L751.593,303.401L752.907,298.892L754.222,297.358L755.537,296.446L756.852,291.975L758.167,289.969L759.481,291.893L760.796,293.447L762.111,294.151L763.426,296.371L764.741,294.22L766.056,292.264L767.37,293.497L768.685,292.503L770,291.635"/></g></svg>