<svg xmlns="http://www.w3.org/2000/svg" width="830" height="564" fill="currentColor" class="plot-d6a7b5" font-family="system-ui, sans-serif" font-size="10" style="--plot-background:white;display:block;height:intrinsic;max-width:100%;color:#1e90ff" text-anchor="middle" viewBox="0 0 830 564">
    <style>
        :where(.plot-d6a7b5 text),:where(.plot-d6a7b5 tspan){white-space:pre}
    </style>
    <path stroke="currentColor" stroke-opacity=".1" d="M60 410h710M60 375h710M60 340h710M60 305h710M60 270h710M60 235h710M60 200h710M60 165h710M60 130h710M60 95h710M60 60h710" aria-hidden="true" aria-label="y-grid"/>
    <path fill="none" stroke="currentColor" d="M60 410h-6m6-35h-6m6-35h-6m6-35h-6m6-35h-6m6-35h-6m6-35h-6m6-35h-6m6-35h-6m6-35h-6m6-35h-6" aria-hidden="true" aria-label="y-axis tick"/>
    <g aria-label="y-axis tick label" font-variant="tabular-nums" text-anchor="end">
        <text y=".32em" transform="translate(51 410)">0%</text>
        <text y=".32em" transform="translate(51 375)">10%</text>
        <text y=".32em" transform="translate(51 340)">20%</text>
        <text y=".32em" transform="translate(51 305)">30%</text>
        <text y=".32em" transform="translate(51 270)">40%</text>
        <text y=".32em" transform="translate(51 235)">50%</text>
        <text y=".32em" transform="translate(51 200)">60%</text>
        <text y=".32em" transform="translate(51 165)">70%</text>
        <text y=".32em" transform="translate(51 130)">80%</text>
        <text y=".32em" transform="translate(51 95)">90%</text>
        <text y=".32em" transform="translate(51 60)">100%</text>
    </g>
    <text y=".71em" aria-label="y-axis label" text-anchor="start" transform="translate(3 3)">↑ Frequency</text>
    <path fill="none" stroke="currentColor" d="M79.15 410v6m64.546-6v6m65.255-6v6m65.255-6v6m64.545-6v6m64.546-6v6m65.254-6v6m65.255-6v6m63.836-6v6m64.546-6v6m65.255-6v6" aria-hidden="true" aria-label="x-axis tick"/>
    <g aria-label="x-axis tick label" font-variant="tabular-nums">
        <text transform="translate(79.15 419)"><tspan x="0" y=".71em">Apr</tspan><tspan x="0" dy="1em">2023</tspan></text>
        <text y=".71em" transform="translate(143.696 419)">Jul</text>
        <text y=".71em" transform="translate(208.951 419)">Oct</text>
        <text transform="translate(274.206 419)"><tspan x="0" y=".71em">Jan</tspan><tspan x="0" dy="1em">2024</tspan></text>
        <text y=".71em" transform="translate(338.751 419)">Apr</text>
        <text y=".71em" transform="translate(403.297 419)">Jul</text>
        <text y=".71em" transform="translate(468.551 419)">Oct</text>
        <text transform="translate(533.806 419)"><tspan x="0" y=".71em">Jan</tspan><tspan x="0" dy="1em">2025</tspan></text>
        <text y=".71em" transform="translate(597.642 419)">Apr</text>
        <text y=".71em" transform="translate(662.188 419)">Jul</text>
        <text y=".71em" transform="translate(727.443 419)">Oct</text>
    </g>
    <text aria-label="x-axis label" text-anchor="end" transform="translate(827 467)">timestamp →</text>
    <g aria-label="rect">
        <path fill="#00000f" d="M60.5 256.21h3.965V410H60.5zm4.965 2.934h3.965V410h-3.965zm4.965-3.648h3.965V410H70.43zm4.965-20.204h3.965V410h-3.965zm4.965-2.874h3.965V410H80.36zm4.965 8.707h3.965V410h-3.965zm4.965 22.342h3.965V410H90.29zm4.965-9.421h3.965V410h-3.965zm4.965 3.243h3.965V410h-3.965zm4.965 12.12h3.965V410h-3.965zm4.965-6.51h3.965V410h-3.965zm4.965-14.054h3.965V410h-3.965zm4.965 1.751h3.965V410h-3.965zm4.965 6.831h3.965V410h-3.965zm4.965-5.823h3.965V410h-3.965zm4.966-19.056h3.965V410h-3.965zm4.965 38.722h3.965V410h-3.965zm4.965 9.31h3.965V410h-3.965zm4.965-1.386h3.965V410h-3.965zm4.965-21.948h3.965V410h-3.965zm4.965-16.643h3.965V410h-3.965zm4.965-10.917h3.965V410h-3.965zm4.965 27.586h3.965V410h-3.965zm4.965-11.415h3.965V410h-3.965zm4.965 7.574h3.965V410h-3.965zm4.965 8.796h3.965V410h-3.965zm4.965-25.594h3.965V410h-3.965zm4.965 5.815h3.965V410h-3.965zm4.965-3.282h3.965V410h-3.965zm4.965 1.988h3.965V410h-3.965zm4.965 7.401h3.965V410h-3.965zm4.965 16.685h3.965V410h-3.965zm4.965 13.393h3.965V410h-3.965zm4.965-18.28h3.965V410h-3.965zm4.965 3.162h3.965V410h-3.965zm4.965-4.583h3.965V410h-3.965zm4.965-14.073h3.965V410h-3.965zm4.965 3.054h3.965V410h-3.965zm4.965-14.196h3.965V410h-3.965zm4.965 19.435h3.965V410h-3.965zm4.965-1.754h3.965V410h-3.965zm4.965-13.029h3.965V410h-3.965zm4.965 23.039h3.965V410h-3.965zm4.966 24.169h3.965V410h-3.965zm4.965 4.323h3.965V410h-3.965zm4.965-17.275h3.965V410h-3.965zm4.965 7.293h3.965V410h-3.965zm4.965-41.904h3.965V410h-3.965zm4.965 36.798h3.965V410h-3.965zm4.965-25.925h3.965V410h-3.965zm4.965 14.529h3.965V410h-3.965zm4.965-9.58h3.965V410h-3.965zm4.965-5.292h3.965V410h-3.965zm4.965-21.911h3.965V410h-3.965zm4.965 21.086h3.965V410h-3.965zm4.965 48.506h3.965V410h-3.965zm4.965-41.52h3.965V410h-3.965zm4.965 35.636h3.965V410h-3.965zm4.965-36.183h3.965V410h-3.965zm4.965 23.162h3.965V410h-3.965zm4.965-45.475h3.965V410h-3.965zm4.965 23.484h3.965V410h-3.965zm4.965 20.467h3.965V410h-3.965zm4.965-11.384h3.965V410h-3.965zm4.965-14.288h3.965V410h-3.965zm4.965 34.946h3.965V410h-3.965zm4.965-2.706h3.965V410h-3.965zm4.965-7.45h3.965V410h-3.965zm4.965-8.93h3.965V410h-3.965zm4.965-43.308h3.965V410h-3.965zm4.965 32.439h3.965V410h-3.965zm4.965 4.623h3.965V410h-3.965zm4.966 3.672h3.965V410h-3.965zm4.965 15.079h3.965V410h-3.965zm4.965 2.355h3.965V410h-3.965zm4.965 28.768h3.965V410h-3.965zm4.965-56.846h3.965V410h-3.965zm4.965-10.537h3.965V410h-3.965zm4.965-13.883h3.965V410h-3.965zm4.965 13.793h3.965V410h-3.965zm4.965 15.483h3.965V410h-3.965zm4.965-3.987h3.965V410h-3.965zm4.965 19.59h3.965V410h-3.965zm4.965 18.506h3.965V410h-3.965zm4.965-.963h3.965V410h-3.965zm4.965-5.253h3.965V410h-3.965zm4.965-33.302h3.965V410h-3.965zm4.965 41.393h3.965V410h-3.965zm4.965-17.332h3.965V410h-3.965zm4.965-6.947h3.965V410h-3.965zm4.965-9.18h3.965V410h-3.965zm4.965-60.184h3.965V410h-3.965zm4.965 64.512h3.965V410h-3.965zm4.965 11.574h3.965V410h-3.965zm4.965-41.65h3.965V410h-3.965zm4.965-29.067h3.965V410h-3.965zm4.965 4.692h3.965V410h-3.965zm4.965-4.078h3.965V410h-3.965zm4.965-7.201h3.965V410h-3.965zm4.965 23.704h3.965V410h-3.965zm4.965 10.517h3.965V410h-3.965zm4.966 30.681h3.965V410h-3.965zm4.965-18.88h3.965V410h-3.965zm4.965-28.073h3.965V410h-3.965zm4.965 16.556h3.965V410h-3.965zm4.965 16.789h3.965V410h-3.965zm4.965 43.8h3.965V410h-3.965zm4.965-26.005h3.965V410h-3.965zm4.965 17.818h3.965V410h-3.965zm4.965 33.882h3.965V410h-3.965zm4.965 35.695h3.965V410h-3.965zm4.965-63.12h3.965V410h-3.965zM616.584 340h3.965v70h-3.965zm4.965-90.178h3.965V410h-3.965zm4.965 15.754h3.965V410h-3.965zm4.965 50.737h3.965V410h-3.965zm4.965-82.398h3.965V410h-3.965zm4.965 97.324h3.965V410h-3.965zm4.965-30.495h3.965V410h-3.965zm4.965-87.912h3.965V410h-3.965zm4.965 12.793h3.965V410h-3.965zm4.965-.655h3.965V410h-3.965zm4.965-7.043h3.965V410h-3.965zm4.965-4.642h3.965V410h-3.965zm4.965-9.842h3.965V410h-3.965zm4.965 48.214h3.965V410h-3.965zm4.965-18.91h3.965V410h-3.965zm4.965 102.437h3.965V410h-3.965zm4.965-35.003h3.965V410h-3.965zm4.966 8.123h3.965V410h-3.965zm4.965-13.494h3.965V410h-3.965zm4.965-6.221h3.965V410h-3.965zm4.965-95.093h3.965V410h-3.965zm4.965 54.996h3.965V410h-3.965zm4.965 75.743h3.965V410h-3.965zm4.965 29.733h3.965V410h-3.965zm4.965-54.834h3.965V410h-3.965zm4.965-82.701h3.965V410h-3.965zm4.965 116.9h3.965V410h-3.965zm4.965-48.974h3.965V410h-3.965zm4.965-13.62h3.965V410h-3.965zm4.965 112.846h3.965V410h-3.965zm4.965-65.174h3.965V410h-3.965z"/>
        <path fill="#fff" d="M60.5 229.908h3.965v26.302H60.5zm4.965 4.779h3.965v24.457h-3.965zm4.965-12.003h3.965v32.812H70.43zm4.965-26.592h3.965v39.2h-3.965zm4.965 3.804h3.965v32.522H80.36zm4.965 7.598h3.965v33.631h-3.965zm4.965 4.87h3.965v51.104H90.29zm4.965 6.534h3.965v35.148h-3.965zm4.965 6.133h3.965v32.258h-3.965zm4.965-11.517h3.965v55.895h-3.965zm4.965.371h3.965v49.013h-3.965zm4.965-9.952h3.965v44.913h-3.965zm4.965-7.738h3.965v54.401h-3.965zm4.965 9.419h3.965v51.813h-3.965zm4.965-8.622h3.965v54.611h-3.965zm4.966-10.386h3.965v45.942h-3.965zm4.965 34.371h3.965v50.293h-3.965zm4.965 9.966h3.965v49.636h-3.965zm4.965-6.44h3.965v54.691h-3.965zm4.965-18.86h3.965v51.603h-3.965zm4.965-20.935h3.965v55.895h-3.965zm4.965 1.997h3.965v42.981h-3.965zm4.965 22.828h3.965v47.739h-3.965zm4.965-10.527h3.965v46.851h-3.965zm4.965 16.79h3.965v37.635h-3.965zm4.965-4.512h3.965v50.943h-3.965zm4.965-18.73h3.965v44.079h-3.965zm4.965.57h3.965v49.324h-3.965zm4.965 4.47h3.965v41.572h-3.965zm4.965 3.622h3.965v39.939h-3.965zm4.965 3.853h3.965v43.485h-3.965zm4.965.675h3.965v59.497h-3.965zm4.965 21.758h3.965v51.131h-3.965zm4.965-6.497h3.965v39.348h-3.965zm4.965-3.621h3.965v46.131h-3.965zm4.965-9.86h3.965v51.408h-3.965zm4.965-4.79h3.965v42.125h-3.965zm4.965-14.802h3.965v59.981h-3.965zm4.965-11.44h3.965v57.225h-3.965zm4.965 5.859h3.965v70.802h-3.965zm4.965-9.384h3.965v78.431h-3.965zm4.965 13.477h3.965v51.925h-3.965zm4.965 30.273h3.965v44.691h-3.965zm4.966-6.088h3.965v74.948h-3.965zm4.965 13.657h3.965v65.615h-3.965zm4.965-20.149h3.965v68.488h-3.965zm4.965 27.27h3.965v48.511h-3.965zm4.965-26.194h3.965v32.801h-3.965zm4.965 25.117h3.965v44.482h-3.965zm4.965-25.263h3.965v43.82h-3.965zm4.965 3.891h3.965v54.458h-3.965zm4.965-16.276h3.965v61.155h-3.965zm4.965-22.41h3.965v78.272h-3.965zm4.965 20.176h3.965v36.185h-3.965zm4.965 2.627h3.965v54.643h-3.965zm4.965 29.01h3.965v74.141h-3.965zm4.965-17.727h3.965v50.347h-3.965zm4.965 24.526h3.965v61.457h-3.965zm4.965-44.262h3.965v69.536h-3.965zm4.965 41.598h3.965v51.099h-3.965zm4.965-36.178h3.965v41.803h-3.965zm4.965-15.845h3.965v81.133h-3.965zm4.965 40.171h3.965v61.428h-3.965zm4.965-13.342h3.965v63.386h-3.965zm4.965-6.511h3.965v55.609h-3.965zm4.965 15.287h3.965v75.268h-3.965zm4.965 20.246h3.965v52.316h-3.965zm4.965-32.515h3.965v77.381h-3.965zm4.965 20.65h3.965v47.801h-3.965zm4.965-31.887h3.965v36.38h-3.965zm4.965 37.227h3.965v31.592h-3.965zm4.965 4.417h3.965v31.799h-3.965zm4.966-19.172h3.965v54.642h-3.965zm4.965-10.207h3.965v79.928h-3.965zm4.965 6.289h3.965v75.995h-3.965zm4.965 25.466h3.965v79.296h-3.965zm4.965-19.866h3.965v42.317h-3.965zm4.965-23.024h3.965v54.803h-3.965zm4.965-8.046h3.965v48.966h-3.965zm4.965 3.589h3.965v59.169h-3.965zm4.965 14.874h3.965v59.779h-3.965zm4.965 7.383h3.965v48.409h-3.965zm4.965 17.066h3.965v50.933h-3.965zm4.965 18.21h3.965v51.229h-3.965zm4.965-60.689h3.965v110.954h-3.965zm4.965 44.198h3.965v61.504h-3.965zm4.965-48.253h3.965v76.455h-3.965zm4.965 34.793h3.965v83.055h-3.965zm4.965 2.386h3.965v63.336h-3.965zm4.965-23.053h3.965v79.444h-3.965zm4.965 16.879h3.965v53.384h-3.965zm4.965-42.112h3.965v35.313h-3.965zm4.965 53.368h3.965v46.456h-3.965zm4.965 9.29h3.965v48.741h-3.965zm4.965-74.869h3.965v81.959h-3.965zm4.965-17.336h3.965v70.228h-3.965zm4.965 7.469h3.965v67.451h-3.965zm4.965 26.136h3.965v37.237h-3.965zm4.965-7.613h3.965v37.649h-3.965zm4.965 27.253h3.965v34.1h-3.965zm4.965-4.573h3.965v49.19h-3.965zm4.966 36.617h3.965v43.254h-3.965zm4.965-31.278h3.965v55.651h-3.965zm4.965-23.028h3.965v50.607h-3.965zm4.965 31.874h3.965v35.29h-3.965zm4.965 12.977h3.965v39.102h-3.965zm4.965 22.072h3.965v60.828h-3.965zm4.965-18.827h3.965v53.651h-3.965zm4.965 1.195h3.965v70.274h-3.965zm4.965 59.17h3.965v44.986h-3.965zm4.965-30.197h3.965v110.878h-3.965zm4.965 24.621h3.965v23.137h-3.965zm4.965-59.187h3.965V340h-3.965zm4.965-28.091h3.965v68.128h-3.965zm4.965 42.247h3.965v41.636h-3.965zm4.965 4.695h3.965v87.677h-3.965zm4.965-61.973h3.965v67.252h-3.965zm4.965 96.345h3.965v68.231h-3.965zm4.965 14.233h3.965v23.503h-3.965zm4.965-102.487h3.965v38.077h-3.965zm4.965 6.73h3.965v44.141h-3.965zm4.965 19.623h3.965v23.864h-3.965zm4.965-14.125h3.965v30.945h-3.965zm4.965-30.267h3.965v56.569h-3.965zm4.965 9.172h3.965v37.556h-3.965zm4.965-3.199h3.965v88.97h-3.965zm4.965 27.999h3.965v42.06h-3.965zm4.965 80.861h3.965v63.636h-3.965zm4.965-11.335h3.965v39.968h-3.965zm4.966 7.825h3.965v40.265h-3.965zm4.965-48.544h3.965v75.316h-3.965zm4.965 38.951h3.965v30.144h-3.965zm4.965-119.716h3.965v54.768h-3.965zm4.965 75.349h3.965v34.413h-3.965zm4.965 101.234h3.965v8.924h-3.965zm4.965 8.609h3.965v30.046h-3.965zm4.965-99.556h3.965v74.77h-3.965zm4.965-42.695h3.965v34.763h-3.965zm4.965 123.886h3.965v27.778h-3.965zM750.64 235h3.965v49.359h-3.965zm4.965 24.648h3.965v11.092h-3.965zm4.965 84.314h3.965v39.623h-3.965zm4.965-40.27h3.965v14.72h-3.965z"/>
        <path fill="#ff7373" d="M60.5 201.129h3.965v21.429H60.5zm4.965-3.692h3.965v28.443h-3.965zm4.965-7.938h3.965v28.827H70.43zm4.965-17.001h3.965v18.085h-3.965zm4.965-1.738h3.965v22.665H80.36zm4.965 16.591h3.965v16.266h-3.965zm4.965.077h3.965v19.437H90.29zm4.965 3.865h3.965v18.081h-3.965zm4.965 8.41h3.965v19.443h-3.965zm4.965-15.775h3.965v23.138h-3.965zm4.965 1.447h3.965v20.443h-3.965zm4.965-3.058h3.965v15.378h-3.965zm4.965-11.527h3.965v20.449h-3.965zm4.965 5.013h3.965v24.423h-3.965zm4.965-13.257h3.965v29.147h-3.965zm4.966-3.322h3.965v21.771h-3.965zm4.965 32.34h3.965v24.756h-3.965zm4.965.68h3.965v27.364h-3.965zm4.965 1.217h3.965v24.977h-3.965zm4.965-14.361h3.965v22.36h-3.965zm4.965-13.105h3.965v13.546h-3.965zm4.965-2.35h3.965v17.435h-3.965zm4.965 16.664h3.965v22.508h-3.965zm4.965-16.704h3.965v26.058h-3.965zm4.965 7.948h3.965v35.433h-3.965zm4.965 10.101h3.965v22.275h-3.965zm4.965-14.314h3.965v18.502h-3.965zm4.965 4.692h3.965v15.511h-3.965zm4.965-1.841h3.965v20.942h-3.965zm4.965.636h3.965v21.246h-3.965zm4.965 2.85h3.965v22.876h-3.965zm4.965-.258h3.965v26.047h-3.965zm4.965 25.617h3.965v20.993h-3.965zm4.965-4.263h3.965v21.005h-3.965zm4.965-10.139h3.965v28.758h-3.965zm4.965-6.872h3.965v18.747h-3.965zm4.965-3.187h3.965v22.258h-3.965zm4.965-10.312h3.965v15.28h-3.965zm4.965-17.813h3.965v15.225h-3.965zm4.965 10.912h3.965v19.488h-3.965zm4.965-5.845h3.965v12.672h-3.965zm4.965 1.711h3.965v17.282h-3.965zm4.965 17.2h3.965v29.239h-3.965zm4.966 9.664h3.965v20.04h-3.965zm4.965 20.689h3.965v16.777h-3.965zm4.965-32.844h3.965v23.073h-3.965zm4.965 31.847h3.965v20.003h-3.965zm4.965-27.373h3.965v17.021h-3.965zm4.965 19.4h3.965v26.753h-3.965zm4.965-24.043h3.965v27.399h-3.965zm4.965 8.438h3.965v20.436h-3.965zm4.965-9.997h3.965v22.273h-3.965zm4.965-31.313h3.965v31.079h-3.965zm4.965 16.578h3.965v27.958h-3.965zm4.965 3.681h3.965v31.797h-3.965zm4.965 12.31h3.965v49.099h-3.965zm4.965-12.587h3.965v46.962h-3.965zm4.965 29.812h3.965v37.289h-3.965zm4.965-31.675h3.965v26.834h-3.965zm4.965 28.124h3.965v38.176h-3.965zm4.965-29.054h3.965v24.056h-3.965zm4.965-7.248h3.965v24.358h-3.965zm4.965 23.108h3.965v40.514h-3.965zm4.965.391h3.965v30.22h-3.965zm4.965-15.985h3.965v36.36h-3.965zm4.965 20.836h3.965v29.683h-3.965zm4.965 11.334h3.965v28.435h-3.965zm4.965-16.554h3.965v19.473h-3.965zm4.965-10.122h3.965v47.394h-3.965zm4.965 5.479h3.965v18.141h-3.965zm4.965 36.534h3.965v17.63h-3.965zm4.965-12.664h3.965v34.062h-3.965zm4.966-7.381h3.965v24.416h-3.965zm4.965-13.41h3.965v28.849h-3.965zm4.965-.788h3.965v32.377h-3.965zm4.965 26.87h3.965v26.364h-3.965zm4.965-8.604h3.965v18.736h-3.965zm4.965-21.223h3.965v17.819h-3.965zm4.965-9.635h3.965v17.959h-3.965zm4.965 15.797h3.965v7.075h-3.965zm4.965 9.917h3.965v17.23h-3.965zm4.965 1.471h3.965v16.793h-3.965zm4.965 15.036h3.965v20.108h-3.965zm4.965 16.418h3.965v23.401h-3.965zm4.965-46.372h3.965v10.602h-3.965zm4.965 25.591h3.965v28.046h-3.965zm4.965-51.27h3.965v30.41h-3.965zm4.965 32.922h3.965v33.573h-3.965zm4.965.181h3.965v34.069h-3.965zm4.965-17.438h3.965v27.042h-3.965zm4.965 23.851h3.965v21.113h-3.965zm4.965-39.306h3.965v13.61h-3.965zm4.965 19.777h3.965v45.576h-3.965zm4.965 16.204h3.965v44.247h-3.965zm4.965-42.091h3.965v15.292h-3.965zm4.965-10.64h3.965v7.158h-3.965zm4.965-10.231h3.965v13.762h-3.965zm4.965 35.899h3.965v15.916h-3.965zm4.965-10.372h3.965v19.382h-3.965zm4.965 38.023h3.965v11.248h-3.965zm4.965-17.764h3.965v21.944h-3.965zm4.966 33.688h3.965v21.84h-3.965zm4.965-27.523h3.965v19.042h-3.965zm4.965-42.563h3.965v9.622h-3.965zm4.965 45.441h3.965v18.995h-3.965zm4.965 15.241h3.965v21.055h-3.965zm4.965 1.968h3.965v44.532h-3.965zm4.965-6.406h3.965v31.141h-3.965zm9.93 88.661h3.965v6.921h-3.965zm4.965-39.614h3.965v14.16h-3.965zm4.965 13.174h3.965v26.443h-3.965zm4.965-48.22h3.965v16.559h-3.965zm4.965-22.74h3.965v11.961h-3.965zm4.965 38.594h3.965v.651h-3.965zm4.965-30.6h3.965v39.596h-3.965zm4.965-20.465h3.965v8.678h-3.965zm4.965 83.424h3.965v10.951h-3.965zm4.965 3.525h3.965v33.031h-3.965zm4.965-91.886h3.965v21.386h-3.965zm4.965 15.488h3.965v1.172h-3.965zm4.965 24.993h3.965v7.263h-3.965zm4.965-56.51h3.965v41.616h-3.965zm4.965 17.865h3.965v1.825h-3.965zm4.965-6.009h3.965v12.519h-3.965zm9.93 18.5h3.965v12.017h-3.965zm4.965 92.857h3.965v11.179h-3.965zm4.965-17.225h3.965v5.977h-3.965zm4.966-5.735h3.965v21.681h-3.965zm4.965-66.897h3.965v48.734h-3.965zm4.965 84.606h3.965v4.187h-3.965zm4.965-122.375h3.965v5.99h-3.965zm4.965 68.899h3.965v12.905h-3.965zm9.93 74.415h3.965v31.671h-3.965zm9.93-104.588h3.965v5.53h-3.965zm4.965 9.391h3.965v100h-3.965zm4.965 39.295h3.965v2.244h-3.965zm4.965 5.23h3.965v35.123h-3.965zm4.965 93.022h3.965v11.006h-3.965zm4.965-23.668h3.965v9.813h-3.965z"/>
        <path fill="#4f2d68" d="M60.5 84.032h3.965v37.776H60.5zm4.965-4.625h3.965v38.543h-3.965zm4.965-3.7h3.965v33.138H70.43zm4.965-.934h3.965v28.926h-3.965zm4.965-2.653h3.965v26.605H80.36zm4.965 3.567h3.965v37.228h-3.965zm4.965 1.972h3.965v35.744H90.29zm4.965.002h3.965v37.77h-3.965zm4.965 1.617h3.965v38.171h-3.965zm4.965-1.179h3.965v39.937h-3.965zm4.965-1.812h3.965v30.954h-3.965zm4.965-4.218h3.965v36.478h-3.965zm4.965 5.53h3.965v35.139h-3.965zm4.965-2.591h3.965v36.122h-3.965zm4.965 1.613h3.965v23.95h-3.965zm4.966-3.389h3.965v22.477h-3.965zm4.965 3.576h3.965v34.332h-3.965zm4.965 7.254h3.965v31.739h-3.965zm4.965-8.236h3.965v32.477h-3.965zm4.965-1.186h3.965v26.239h-3.965zm4.965-5.877h3.965v23.392h-3.965zm4.965 7.398h3.965v22.376h-3.965zm4.965-6.976h3.965v44h-3.965zm4.965 2.89h3.965v15.167h-3.965zm4.965.522h3.965v21.677h-3.965zm4.965 4.621h3.965v23.236h-3.965zm4.965-6.788h3.965v24.171h-3.965zm4.965 1.487h3.965v34.191h-3.965zm4.965 7.733h3.965v32.215h-3.965zm4.965-1.775h3.965v20.429h-3.965zm4.965-5.983h3.965v33.609h-3.965zm4.965-.883h3.965v29.42h-3.965zm4.965 9.591h3.965v44.543h-3.965zm4.965 13.853h3.965v30.699h-3.965zm4.965-19.4h3.965v50.123h-3.965zm4.965 3.114h3.965v50.699h-3.965zm4.965-6.067h3.965v29.876h-3.965zm4.965.663h3.965v21.751h-3.965zm4.965.245h3.965v29.225h-3.965zm4.965 8.209h3.965v24.36h-3.965zm4.965-.512h3.965v21.782h-3.965zm4.965-9.448h3.965v21.959h-3.965zm4.965-.933h3.965v26.175h-3.965zm4.966 4.798h3.965v52.559h-3.965zm4.965 11.29h3.965v46.678h-3.965zm4.965-10.301h3.965v33.88h-3.965zm4.965 11.678h3.965v36.713h-3.965zm4.965-13.191h3.965v36.761h-3.965zm4.965 5.031h3.965v28.336h-3.965zm4.965-6.352h3.965v36.032h-3.965zm4.965 5.281h3.965v40.264h-3.965zm4.965 7.787h3.965v25.327h-3.965zm4.965-13.223h3.965V95.76h-3.965zm4.965 33.033h3.965v11.783h-3.965zm4.965-8.941h3.965v20.727h-3.965zm4.965-11.383h3.965v34.901h-3.965zm4.965-1.959h3.965v26.649h-3.965zm4.965-11.936h3.965v27.72h-3.965zm4.965-.067h3.965v23.738h-3.965zm4.965.856h3.965v39.952h-3.965zm4.965-7.894h3.965v34.014h-3.965zm4.965 12.859h3.965v20.005h-3.965zm4.965-3.154h3.965v17.538h-3.965zm4.965-6.363h3.965v27.559h-3.965zm4.965 1.986h3.965v38.498h-3.965zm4.965 3.215h3.965v27.074h-3.965zm4.965-6.345h3.965v32.348h-3.965zm4.965 5.205h3.965v16.72h-3.965zm4.965-1.125h3.965v12.842h-3.965zm4.965 1.412h3.965v17.944h-3.965zm4.965 13.392h3.965v26.149h-3.965zm4.965-19.769h3.965v27.81h-3.965zm4.966 12.736h3.965v31.769h-3.965zm4.965 2.343h3.965v21.727h-3.965zm4.965-16.062h3.965v21.208h-3.965zm4.965 5.333h3.965v30.254h-3.965zm4.965 3.638h3.965v23.662h-3.965zm4.965-6.175h3.965v51.441h-3.965zm4.965 1.604h3.965v19.897h-3.965zm4.965 10.505h3.965v22.51h-3.965zm4.965-9.282h3.965v28.952h-3.965zm4.965 5.666h3.965v22.191h-3.965zm4.965 8.761h3.965v45.626h-3.965zm4.965-17.369h3.965v37.568h-3.965zm4.965 7.407h3.965v29.191h-3.965zm4.965 3.448h3.965v33.95h-3.965zm4.965-6.791h3.965v15.061h-3.965zm4.965 6.46h3.965v36.965h-3.965zm4.965-12.813h3.965v51.329h-3.965zm4.965 3.694h3.965V97.55h-3.965zm4.965 1.91h3.965v42.398h-3.965zm4.965-9.686h3.965V90.53h-3.965zm4.965 3.104h3.965v34.49h-3.965zm4.965 13.573h3.965v30.593h-3.965zm4.965-.794h3.965v20.275h-3.965zm4.965-8.018h3.965v8.714h-3.965zm4.965-5.428h3.965v21.408h-3.965zm4.965-.154h3.965v33.183h-3.965zm4.965 5.031h3.965v31.235h-3.965zm4.965-3.22h3.965v30.074h-3.965zm4.965 2.448h3.965v21.451h-3.965zm4.966 7.161h3.965v31.199h-3.965zm4.965 2.885h3.965v34.275h-3.965zm4.965-10.312h3.965V86.49h-3.965zm4.965-2.249h3.965v17.895h-3.965zm4.965 13.916h3.965v35h-3.965zm4.965-.275h3.965v24.824h-3.965zm4.965-11.015h3.965v42.481h-3.965zm9.93-3.428h3.965v4.696h-3.965zm4.965 3.052h3.965v18.435h-3.965zm4.965 3.27h3.965v40.766h-3.965zm4.965-10.265h3.965v1.505h-3.965zm4.965-.753h3.965v3.64h-3.965zm4.965 2.602h3.965v19.517h-3.965zM631.479 95h3.965v6.717h-3.965zm4.965-34.277h3.965v35.795h-3.965zm4.965.541h3.965v12.214h-3.965zm4.965-.629h3.965v97.187h-3.965zm4.965-.635h3.965v4.173h-3.965zm4.965.391h3.965v23.047h-3.965zm4.965 10.33h3.965V76.6h-3.965zm4.965-5.386h3.965v4.268h-3.965zm4.965-1.32h3.965v4.745h-3.965zm4.965-1.407h3.965v5.216h-3.965zm4.965 4.447h3.965v27.044h-3.965zm4.965-2.549h3.965v27.79h-3.965zm4.965 1.514h3.965v12.039h-3.965zm4.965 23.489h3.965v33.618h-3.965zm4.966 15.403h3.965v41.814h-3.965zm4.965-12.792h3.965v13.845h-3.965zm4.965-28.771h3.965v21.77h-3.965zm4.965-1.638h3.965v5.134h-3.965zm4.965-.929h3.965v1.173h-3.965zm9.93.03h3.965v36.543h-3.965zm4.965 9.501h3.965v14.825h-3.965zM740.71 60h3.965v17.381h-3.965zm4.965 0h3.965v20h-3.965zm4.965 2.244h3.965v41.506h-3.965zm4.965 32.879h3.965v10.475h-3.965zm4.965-14.211h3.965v4.403h-3.965zm4.965 28.153h3.965v16.355h-3.965z"/>
        <path fill="#ffff73" d="M60.5 222.557h3.965v7.351H60.5zm4.965 3.324h3.965v8.806h-3.965zm4.965-7.555h3.965v4.358H70.43zm4.965-27.742h3.965v5.509h-3.965zm4.965 2.841h3.965v6.471H80.36zm4.965 10.192h3.965v3.877h-3.965zm4.965 3.247h3.965v5.499H90.29zm4.965 2.511h3.965v9.523h-3.965zm4.965 9.771h3.965v5.885h-3.965zm4.965-12.08h3.965v6.448h-3.965zm4.965-1.248h3.965v8.067h-3.965zm4.965-8.123h3.965v6.238h-3.965zm4.965-6.456h3.965v4.956h-3.965zm4.965 8.986h3.965v5.389h-3.965zm4.965-8.532h3.965v5.299h-3.965zm4.966-10.698h3.965v5.61h-3.965zm4.965 35.324h3.965v4.658h-3.965zm4.965 3.289h3.965v11.335h-3.965zm4.965-1.17h3.965v6.065h-3.965zm4.965-16.978h3.965v4.183h-3.965zm4.965-21.919h3.965v5.167h-3.965zm4.965 1.539h3.965v5.625h-3.965zm4.965 21.737h3.965v6.716h-3.965zm4.965-13.154h3.965v9.344h-3.965zm4.965 17.323h3.965v8.81h-3.965zm4.965-3.058h3.965v7.355h-3.965zm4.965-18.086h3.965v6.712h-3.965zm4.965 1.702h3.965v5.58h-3.965zm4.965 3.589h3.965v6.461h-3.965zm4.965.941h3.965v9.142h-3.965zm4.965 4.479h3.965v8.516h-3.965zm4.965 2.913h3.965v6.278h-3.965zm4.965 20.563h3.965v7.473h-3.965zm4.965-4.252h3.965v5.227h-3.965zm4.965-2.386h3.965v3.993h-3.965zm4.965-16.883h3.965v11.016h-3.965zm4.965.325h3.965v5.901h-3.965zm4.965-17.29h3.965v8.389h-3.965zm4.965-17.868h3.965v14.817h-3.965zm4.965 15.175h3.965v5.501h-3.965zm4.965-12.662h3.965v8.779h-3.965zm4.965 6.322h3.965v15.934h-3.965zm4.965 29.157h3.965v17.05h-3.965zm4.966.465h3.965v10.497h-3.965zm4.965 17.426h3.965v6.728h-3.965zm4.965-26.548h3.965v13.127h-3.965zm4.965 28.778h3.965v11.619h-3.965zm4.965-30.355h3.965v15.78h-3.965zm4.965 29.13h3.965v11.767h-3.965zm4.965-23.395h3.965v9.899h-3.965zm4.965 1.474h3.965v12.317h-3.965zm4.965-8.16h3.965v4.2h-3.965zm4.965-22.507h3.965v4.297h-3.965zm4.965 13.457h3.965v11.016h-3.965zm4.965 7.52h3.965v6.124h-3.965zm4.965 29.611h3.965v5.521h-3.965zm4.965-14.723h3.965v2.517h-3.965zm4.965 20.139h3.965v6.905h-3.965zm4.965-42.13h3.965v4.773h-3.965zm4.965 39.466h3.965v6.905h-3.965zm4.965-43.174h3.965v13.901h-3.965zm4.965-6.945h3.965v5.001h-3.965zm4.965 39.263h3.965v5.908h-3.965zm4.965-9.903h3.965v2.471h-3.965zm4.965-9.846h3.965v5.805h-3.965zm4.965 14.16h3.965v6.932h-3.965zm4.965 10.085h3.965v17.093h-3.965zm4.965-25.515h3.965v10.093h-3.965zm4.965 17.799h3.965v12.944h-3.965zm4.965-23.774h3.965v4.831h-3.965zm4.965 36.023h3.965v6.034h-3.965zm4.965 3.769h3.965v6.683h-3.965zm4.966-17.027h3.965v4.538h-3.965zm4.965-8.978h3.965v3.309h-3.965zm4.965 2.74h3.965v6.857h-3.965zm4.965 20.857h3.965v11.467h-3.965zm4.965-16.232h3.965v7.833h-3.965zm4.965-22.14h3.965v6.948h-3.965zm4.965-9.495h3.965v8.398h-3.965zm4.965 4.913h3.965v7.075h-3.965zm4.965 20.073h3.965v1.875h-3.965zm4.965 1.033h3.965v8.225h-3.965zm4.965 18.35h3.965v6.941h-3.965zm4.965 19.712h3.965v5.439h-3.965zm4.965-59.171h3.965v3.921h-3.965zm4.965 43.035h3.965v5.084h-3.965zm4.965-48.907h3.965v5.738h-3.965zm4.965 36.086h3.965v4.445h-3.965zm4.965.678h3.965v6.154h-3.965zm4.965-24.466h3.965v7.566h-3.965zm4.965 17.922h3.965v6.523h-3.965zm4.965-46.809h3.965v11.219h-3.965zm4.965 51.742h3.965v12.846h-3.965zm4.965 14.876h3.965v7.259h-3.965zm4.965-71.046h3.965v3.436h-3.965zm4.965-18.775h3.965v4.876h-3.965zm4.965-3.626h3.965v15.971h-3.965zm4.965 38.053h3.965v4.054h-3.965zm4.965-6.906h3.965v3.347h-3.965zm4.965 29.89h3.965v.71h-3.965zm4.965-7.068h3.965v3.205h-3.965zm4.966 33.582h3.965v6.24h-3.965zm4.965-30.32h3.965v5.283h-3.965zm4.965-51.984h3.965v34.238h-3.965zm4.965 54.815h3.965v11.297h-3.965zm4.965 17.301h3.965v6.973h-3.965zm4.965 25.445h3.965v3.6h-3.965zm4.965-19.797h3.965v4.57h-3.965zm4.965 4.624h3.965v1.141h-3.965zm4.965 59.817h3.965v.494h-3.965zm4.965-32.375h3.965v2.672h-3.965zm4.965 25.456h3.965v1.836h-3.965zm4.965-58.103h3.965v.753h-3.965zm9.93-.054h3.965v14.963h-3.965zm4.965 8.345h3.965v11.313h-3.965zm4.965-51.383h3.965v.723h-3.965zm4.965 85.697h3.965v11.372h-3.965zm9.93-77.926h3.965v1.043h-3.965zm4.965-4.727h3.965v12.5h-3.965zm4.965 31.085h3.965v1.038h-3.965zm4.965-22.157h3.965v9.07h-3.965zm4.965-21.927h3.965v.73h-3.965zm4.965 4.686h3.965v5.216h-3.965zm4.965-4.646h3.965v6.663h-3.965zm4.965 22.645h3.965v12.017h-3.965zm4.965 92.018h3.965v.86h-3.965zm4.965-22.428h3.965v11.953h-3.965zm4.966 9.97h3.965v9.808h-3.965zm4.965-39.844h3.965v1.108h-3.965zm9.93-80.513h3.965v.856h-3.965zm4.965 75.814h3.965v.391h-3.965zm9.93 93.181h3.965v17.053h-3.965zm4.965-130.201h3.965v47.698h-3.965zm4.965-.527h3.965v5.53h-3.965zM745.675 280h3.965v25.556h-3.965zm4.965-58.462h3.965V235h-3.965zm9.93 107.015h3.965v15.409h-3.965z"/>
        <path fill="#70223b" d="M60.5 137.239h3.965v40.504H60.5zm4.965-2.719h3.965v45.868h-3.965zm4.965-4.306h3.965v40.991H70.43zm4.965-11.618h3.965v37.039h-3.965zm4.965-4.8h3.965v35.64H80.36zm4.965 12.207h3.965v44.941h-3.965zm4.965 1.622h3.965v38.209H90.29zm4.965 1.633h3.965v46.106h-3.965zm4.965 5.516h3.965v44.001h-3.965zm4.965-3.571h3.965v35.927h-3.965zm4.965-6.055h3.965v33.338h-3.965zm4.965 4.662h3.965v35.8h-3.965zm4.965-.599h3.965v27.393h-3.965zm4.965-3.175h3.965v31.552h-3.965zm4.965-10.461h3.965v33.861h-3.965zm4.966-2.293h3.965v34.474h-3.965zm4.965 19.259h3.965v35.635h-3.965zm4.965-2.103h3.965v48.045h-3.965zm4.965-6.309h3.965v49.523h-3.965zm4.965-6.328h3.965v46.089h-3.965zm4.965-16.325h3.965v45.526h-3.965zm4.965 14.402h3.965v29.462h-3.965zm4.965 11.501h3.965v36.557h-3.965zm4.965-22.798h3.965v39.843h-3.965zm4.965 6.269h3.965v41.074h-3.965zm4.965 4.231h3.965v30.466h-3.965zm4.965-2.885h3.965v41.086h-3.965zm4.965.25h3.965v35.894h-3.965zm4.965 5.924h3.965v26.467h-3.965zm4.965.874h3.965v34.627h-3.965zm4.965 6.816h3.965v33.71h-3.965zm4.965-4.502h3.965v31.294h-3.965zm4.965 14.007h3.965v36.775h-3.965zm4.965 7.171h3.965v33.598h-3.965zm4.965-4.611h3.965v35.07h-3.965zm4.965 1.693h3.965v31.18h-3.965zm4.965-23.203h3.965v34.059h-3.965zm4.965-9.996h3.965v37.93h-3.965zm4.965 7.514h3.965v25.375h-3.965zm4.965 8.889h3.965v27.975h-3.965zm4.965-6.207h3.965v18.469h-3.965zm4.965-13.134h3.965v40.272h-3.965zm4.965 14.797h3.965v34.234h-3.965zm4.966 20.287h3.965v26.353h-3.965zm4.965 9.441h3.965v38.289h-3.965zm4.965-21.839h3.965v30.631h-3.965zm4.965 13.707h3.965v37.192h-3.965zm4.965-16.54h3.965v30.792h-3.965zm4.965.894h3.965v41.844h-3.965zm4.965 2.945h3.965v27.916h-3.965zm4.965 5.808h3.965v33.746h-3.965zm4.965-11.772h3.965v34.3h-3.965zm4.965-14.139h3.965v18.11h-3.965zm4.965 23.636h3.965v14.293h-3.965zm4.965-9.197h3.965v17.194h-3.965zm4.965 13.615h3.965v16.169h-3.965zm4.965-12.824h3.965v23.177h-3.965zm4.965-14.459h3.965v54.157h-3.965zm4.965 9.497h3.965v21.931h-3.965zm4.965 15.855h3.965v32.159h-3.965zm4.965-22.717h3.965v21h-3.965zm4.965-.107h3.965v17.134h-3.965zm4.965.449h3.965v45.766h-3.965zm4.965-4.168h3.965v48.466h-3.965zm4.965 11.509h3.965v23.909h-3.965zm4.965.926h3.965v33.516h-3.965zm4.965 13.399h3.965v33.626h-3.965zm4.965-18.242h3.965v27.629h-3.965zm4.965-10.106h3.965v26.194h-3.965zm4.965 12.058h3.965v35.592h-3.965zm4.965 24.539h3.965v38.81h-3.965zm4.965-20.785h3.965v48.722h-3.965zm4.966 15.098h3.965v35.127h-3.965zm4.965-21.361h3.965v35.827h-3.965zm4.965-5.885h3.965v49.485h-3.965zm4.965 13.123h3.965v44.537h-3.965zm4.965-4.189h3.965v56.045h-3.965zm4.965 8.964h3.965v19.052h-3.965zm4.965-23.908h3.965v39.276h-3.965zm4.965 17.179h3.965v29.199h-3.965zm4.965 5.416h3.965v48.761h-3.965zm4.965-20.889h3.965v64.431h-3.965zm4.965 45.82h3.965v32.561h-3.965zm4.965-22.349h3.965v51.861h-3.965zm4.965-2.395h3.965v20.332h-3.965zm4.965 5.261h3.965v44.775h-3.965zm4.965-30.873h3.965v29.98h-3.965zm4.965 24.593h3.965v34.041h-3.965zm4.965 6.787h3.965v32.419h-3.965zm4.965-15.056h3.965v21.017h-3.965zm4.965-.04h3.965v38.794h-3.965zm4.965-12.039h3.965v22.07h-3.965zm4.965 9.209h3.965v24.635h-3.965zm4.965 12.374h3.965v34.741h-3.965zm4.965-22.72h3.965v22.337h-3.965zm4.965-12.807h3.965v28.942h-3.965zm4.965 7.578h3.965v9.005h-3.965zm4.965 12.21h3.965v24.625h-3.965zm4.965-2.257h3.965v18.127h-3.965zm4.965-3.183h3.965v62.399h-3.965zm4.965 7.6h3.965v39.697h-3.965zm4.966 20.208h3.965v46.657h-3.965zm4.965-9.086h3.965v28.624h-3.965zm4.965-26.294h3.965v22.492h-3.965zm4.965-3.946h3.965v51.985h-3.965zm4.965 35.521h3.965v43.203h-3.965zm4.965-13.237h3.965v52.68h-3.965zm4.965 6.692h3.965v23.356h-3.965zm4.965-57.845h3.965v1.369h-3.965zm4.965 16.599h3.965v33.863h-3.965zm4.965 8.834h3.965v18.435h-3.965zm4.965 26.601h3.965v50.315h-3.965zm4.965-39.65h3.965v43.656h-3.965zm4.965 5.516h3.965v18.202h-3.965zm4.965 5.351h3.965v59.851h-3.965zm4.965 15.044h3.965v43.131h-3.965zm4.965-1.221h3.965v19.163h-3.965zm4.965-6.802h3.965v84.657h-3.965zm4.965 73.656h3.965v60.345h-3.965zm4.965-101.091h3.965v4.173h-3.965zm4.965 46.085h3.965v23.438h-3.965zm4.965-25.714h3.965v52.569h-3.965zm4.965-17.026h3.965v22.409h-3.965zm4.965 15.214h3.965v51.095h-3.965zm4.965 26.821h3.965v10.432h-3.965zm4.965-11.661h3.965v16.461h-3.965zm4.965 29.121h3.965v18.777h-3.965zm4.965-36.421h3.965v13.759h-3.965zm4.965 110.011h3.965v1.121h-3.965zm4.966-19.311h3.965v19.617h-3.965zm4.965-74.644h3.965v12.737h-3.965zm4.965-1.007h3.965v63.636h-3.965zm4.965-36.602h3.965v54.768h-3.965zm4.965-9.17h3.965v48.883h-3.965zm9.93 88.184h3.965v7.309h-3.965zm4.965-60.489h3.965v44.475h-3.965zm4.965-12.269h3.965v3.95h-3.965zm14.895 68.27h3.965v23.415h-3.965zm4.965-53.733h3.965v3.302h-3.965z"/>
        <path fill="#91ccf0" d="M60.5 121.808h3.965v15.431H60.5zm4.965-3.857h3.965v16.569h-3.965zm4.965-9.106h3.965v21.37H70.43zm4.965-5.146h3.965v14.897h-3.965zm4.965-4.974h3.965v15.071H80.36zm4.965 14.19h3.965v13.089h-3.965zm4.965.488h3.965v14.222H90.29zm4.965 2.028h3.965v13.827h-3.965zm4.965 2.018h3.965v17.325h-3.965zm4.965.586h3.965v13.168h-3.965zm4.965-10.794h3.965v17.906h-3.965zm4.965 1.306h3.965v21.263h-3.965zm4.965 4.192h3.965v16.472h-3.965zm4.965-1.609h3.965v14.906h-3.965zm4.965-10.559h3.965v15.003h-3.965zm4.966-4.862h3.965v17.572h-3.965zm4.965 15.431h3.965v21.401h-3.965zm4.965 4.661h3.965v14.636h-3.965zm4.965-7.498h3.965v15.826h-3.965zm4.965-7.424h3.965v16.922h-3.965zm4.965-8.724h3.965v9.322h-3.965zm4.965 6.382h3.965v17.342h-3.965zm4.965 14.647h3.965v14.195h-3.965zm4.965-25.942h3.965v17.339h-3.965zm4.965 7.032h3.965v16.577h-3.965zm4.965 6.18h3.965v14.627h-3.965zm4.965-5.853h3.965v17.595h-3.965zm4.965 11.508h3.965v6.337h-3.965zm4.965 5.756h3.965v6.505h-3.965zm4.965-13.561h3.965v20.94h-3.965zm4.965 7.197h3.965v20.559h-3.965zm4.965-5.071h3.965v21.128h-3.965zm4.965 24.713h3.965v10.423h-3.965zm4.965.01h3.965v17.583h-3.965zm4.965.024h3.965v12.949h-3.965zm4.965 3.689h3.965v10.952h-3.965zm4.965-26.89h3.965v14.639h-3.965zm4.965-7.461h3.965v12.104h-3.965zm4.965 7.718h3.965v11.9h-3.965zm4.965 3.344h3.965v17.445h-3.965zm4.965-3.09h3.965v14.328h-3.965zm4.965-9.271h3.965v10.464h-3.965zm4.965 3.283h3.965v21.979h-3.965zm4.966 31.181h3.965v11.084h-3.965zm4.965 5.41h3.965v15.116h-3.965zm4.965-23.099h3.965v16.376h-3.965zm4.965 14.511h3.965v15.572h-3.965zm4.965-13.143h3.965v12.175h-3.965zm4.965-3.394h3.965v16.463h-3.965zm4.965 1.345h3.965v18.063h-3.965zm4.965 9.511h3.965v14.36h-3.965zm4.965-7.148h3.965v9.736h-3.965zm4.965-15.913h3.965v11.511h-3.965zm4.965 22.178h3.965v12.968h-3.965zm4.965.003h3.965v3.769h-3.965zm4.965 2.791h3.965v14.592h-3.965zm4.965-10.211h3.965V122.5h-3.965zm4.965-10.865h3.965v8.385h-3.965zm4.965-4.05h3.965v21.931h-3.965zm4.965 17.072h3.965v20.716h-3.965zm4.965-13.833h3.965v11.831h-3.965zm4.965-1.15h3.965v12.874h-3.965zm4.965-5.621h3.965v18.944h-3.965zm4.965 3.658h3.965v11.119h-3.965zm4.965 12.926h3.965v9.701h-3.965zm4.965-8.211h3.965v18.837h-3.965zm4.965-1.07h3.965v33.307h-3.965zm4.965-10.423h3.965v25.488h-3.965zm4.965-5.002h3.965v20.384h-3.965zm4.965 6.513h3.965v25.93h-3.965zm4.965 21.597h3.965v28.871h-3.965zm4.965-18.108h3.965v26.193h-3.965zm4.966 16.694h3.965v24.598h-3.965zm4.965-7.698h3.965v10.935h-3.965zm4.965-16.582h3.965V108h-3.965zm4.965 14.381h3.965v20.374h-3.965zm4.965-2.955h3.965v19.139h-3.965zm4.965 21.604h3.965v6.5h-3.965zm4.965-29.941h3.965v12.532h-3.965zm4.965 13.119h3.965v16.593h-3.965zm4.965-2.841h3.965v24.849h-3.965zm4.965-1.094h3.965v5.055h-3.965zm4.965 32.196h3.965v18.679h-3.965zm4.965-25.427h3.965v21.756h-3.965zm4.965-.97h3.965v20.332h-3.965zm4.965 8.208h3.965v17.385h-3.965zm4.965-25.681h3.965V99.16h-3.965zm4.965 28.364h3.965v8.422h-3.965zm4.965 1.552h3.965v13.658h-3.965zm4.965-19.333h3.965v17.934h-3.965zm4.965 16.006h3.965v1.888h-3.965zm4.965-23.025h3.965v12.874h-3.965zm4.965 8.534h3.965v13.55h-3.965zm4.965 9.676h3.965v16.247h-3.965zm4.965-11.112h3.965v4.639h-3.965zm4.965-19.579h3.965v11.411h-3.965zm4.965 7.266h3.965v11.723h-3.965zm4.965 11.621h3.965v12.312h-3.965zm4.965 3.083h3.965v6.972h-3.965zm4.965-4.381h3.965v8.17h-3.965zm4.965-6.174h3.965v21.944h-3.965zm4.966 16.909h3.965v25.243h-3.965zm4.965 5.96h3.965v10.197h-3.965zm4.965-25.843h3.965v9.747h-3.965zm4.965-3.098h3.965v8.897h-3.965zm4.965 31.021h3.965v13.398h-3.965zm4.965-10.451h3.965v10.612h-3.965zm4.965 6.641h3.965v10.662h-3.965zm4.965-48.551h3.965v1.369h-3.965zm4.965 7.34h3.965v10.629h-3.965zm4.965 16.79h3.965v2.672h-3.965zm4.965 25.601h3.965v3.673h-3.965zm4.965-49.526h3.965v13.548h-3.965zm4.965 1.382h3.965v17.682h-3.965zm4.965 18.479h3.965v4.554h-3.965zm9.93 14.4h3.965v3.977h-3.965zm4.965-23.041h3.965v20.217h-3.965zm4.965 84.344h3.965v9.528h-3.965zm4.965-93.649h3.965v2.086h-3.965zm4.965 19.265h3.965v28.906h-3.965zm4.965-6.837h3.965v10.03h-3.965zm9.93-7.842h3.965v16.058h-3.965zm4.965-.935h3.965v43.815h-3.965zm4.965 26.275h3.965v5.879h-3.965zm4.965-1.803h3.965v36.803h-3.965zm4.965-14.237h3.965v14.619h-3.965zm4.965 45.068h3.965v79.562h-3.965zm4.966 23.599h3.965v36.652h-3.965zm4.965-40.761h3.965v2.769h-3.965zm4.965-20.845h3.965v22.608h-3.965zm4.965-18.274h3.965v4.279h-3.965zm14.895 30.509h3.965v52.784h-3.965zm4.965-12.217h3.965v4.512h-3.965zm9.93-5.138h3.965v10h-3.965zm4.965 23.75h3.965v1.122h-3.965zm4.965 1.849h3.965v40.053h-3.965zm4.965-20.285h3.965v6.604h-3.965zm4.965 40.107h3.965v8.178h-3.965z"/>
        <path fill="#aaf155" d="M60.5 68.351h3.965v15.681H60.5zm4.965-.15h3.965v11.206h-3.965zm4.965-2.235h3.965v9.741H70.43zm4.965-2.441h3.965v11.248h-3.965zm4.965-2.368h3.965v10.964H80.36zm4.965 3.459h3.965v11.071h-3.965zm4.965 1.191h3.965v11.852H90.29zm4.965-2.888h3.965v14.742h-3.965zm4.965 1.646h3.965v14.713h-3.965zm4.965-.691h3.965v14.224h-3.965zm4.965 1.29h3.965v11.123h-3.965zm4.965-4.133h3.965v11.038h-3.965zm4.965 2.976h3.965V77.6h-3.965zm4.965.427h3.965v10.574h-3.965zm4.965.04h3.965v12.147h-3.965zm4.966-3.945h3.965v12.703h-3.965zm4.965 5.139h3.965v11.14h-3.965zm4.965.218h3.965v18.176h-3.965zm4.965-.431h3.965v10.371h-3.965zm4.965 1.276h3.965v7.91h-3.965zm4.965-4.811h3.965v6.843h-3.965zm4.965 2.182h3.965V76.16h-3.965zm4.965-3.594h3.965v8.676h-3.965zm4.965.644h3.965v10.923h-3.965zm4.965 2.055h3.965v9.389h-3.965zm4.965 1.39h3.965v12.621h-3.965zm4.965-2.194h3.965v8.027h-3.965zm4.965-.133h3.965v9.647h-3.965zm4.965 5.438h3.965v11.941h-3.965zm4.965-2.09h3.965v12.257h-3.965zm4.965-4.207h3.965v10.481h-3.965zm4.965.978h3.965v8.62h-3.965zm4.965.118h3.965v18.092h-3.965zm4.965.107h3.965v31.84h-3.965zm4.965-.726h3.965v13.165h-3.965zm4.965-1.437h3.965v17.716h-3.965zm4.965 3.956h3.965V72.1h-3.965zm4.965-1.89h3.965v10.247h-3.965zm4.965 2.266h3.965v8.225h-3.965zm4.965-.382h3.965v16.816h-3.965zm4.965 4.544h3.965v11.761h-3.965zm4.965-4.188h3.965v6.501h-3.965zm4.965-.961h3.965v6.527h-3.965zm4.966 1.489h3.965v9.836h-3.965zm4.965 4.931h3.965v16.196h-3.965zm4.965-8.625h3.965v14.52h-3.965zm4.965 7.393h3.965V87.79h-3.965zm4.965-8.038h3.965v13.652h-3.965zm4.965 4.436h3.965v14.247h-3.965zm4.965-2.989h3.965v10.885h-3.965zm4.965 3.793h3.965v12.372h-3.965zm4.965 1.705h3.965v18.455h-3.965zm4.965-6.51h3.965v11.741h-3.965zm4.965 36.059h3.965v8.715h-3.965zm4.965-3.995h3.965v3.769h-3.965zm4.965-29.896h3.965v22.282h-3.965zm4.965 10.514h3.965v9.809h-3.965zm4.965-4.593h3.965v2.466h-3.965zm4.965-8.051h3.965v10.45h-3.965zm4.965 3.316h3.965v7.99h-3.965zm4.965-4.636h3.965v4.732h-3.965zm4.965 13.238h3.965v4.353h-3.965zm4.965-6.397h3.965v7.596h-3.965zm4.965-2.093h3.965v3.326h-3.965zm4.965-2.479h3.965v7.791h-3.965zm4.965-.982h3.965v11.987h-3.965zm4.965-1.306h3.965v6.949h-3.965zm4.965.634h3.965v11.521h-3.965zm4.965 2.242h3.965v8.154h-3.965zm4.965.396h3.965v9.169h-3.965zm4.965 1.144h3.965v21.416h-3.965zm4.965-3.634h3.965v5.282h-3.965zm4.966.136h3.965v17.881h-3.965zm4.965 9.074h3.965v11.151h-3.965zm4.965-9.436h3.965v4.524h-3.965zm4.965.746h3.965v9.112h-3.965zm4.965 3.14h3.965v9.61h-3.965zm4.965-.712h3.965v4.147h-3.965zm4.965 1.229h3.965v4.522h-3.965zm4.965 8.081h3.965v6.946h-3.965zm4.965-7.728h3.965v5.392h-3.965zm4.965-.508h3.965v11.567h-3.965zm4.965 5.425h3.965v14.902h-3.965zm4.965-8.285h3.965v5.819h-3.965zm4.965.009h3.965v13.216h-3.965zm4.965 1.411h3.965v15.253h-3.965zm4.965 2.581h3.965v5.881h-3.965zm4.965-.41h3.965v12.751h-3.965zm4.965-4.264h3.965v4.202h-3.965zm4.965-.23h3.965v8.127h-3.965zm4.965-.434h3.965v10.471h-3.965zm4.965-.503h3.965v1.287h-3.965zm4.965 1.752h3.965v2.64h-3.965zm4.965 3.595h3.965v12.617h-3.965zm4.965-2.266h3.965v14.089h-3.965zm4.965-1.502h3.965v7.573h-3.965zm4.965-.744h3.965v2.888h-3.965zm4.965.182h3.965v2.553h-3.965zm4.965-.783h3.965v8.367h-3.965zm4.965 1.832h3.965v3.315h-3.965zm4.965-.894h3.965v6.657h-3.965zm4.966.062h3.965v13.756h-3.965zm4.965.425h3.965v16.216h-3.965zm4.965-1.218h3.965v7.122h-3.965zm4.965.475h3.965v4.399h-3.965zm4.965 3.138h3.965v15.176h-3.965zm4.965-2.533h3.965v17.434h-3.965zm4.965 3.542h3.965v2.877h-3.965zM596.724 60h3.965v2.053h-3.965zm4.965.247h3.965v4.449h-3.965zm4.965 3.761h3.965v3.74h-3.965zm4.965 6.643h3.965v.367h-3.965zM616.584 60h3.965v.753h-3.965zm9.93 1.952h3.965v.651h-3.965zm4.965 25.624h3.965V95h-3.965zm4.965-27.214h3.965v.362h-3.965zm4.965-.362h3.965v1.264h-3.965zm4.965 0h3.965v.635h-3.965zm14.895 0h3.965v10.721h-3.965zm4.965 0h3.965v5.335h-3.965zm4.965 2.555h3.965v1.46h-3.965zm4.965-2.033h3.965v2.086h-3.965zm4.965-.522h3.965v7.055h-3.965zm4.965 0h3.965v4.506h-3.965zm4.965 0h3.965v6.02h-3.965zm4.965 26.147h3.965v3.362h-3.965zm4.966-3.433h3.965v22.198h-3.965zm4.965-.562h3.965v9.968h-3.965zm4.965-19.64h3.965v.837h-3.965zM715.885 60h3.965v1.711h-3.965zm4.965 0h3.965v.782h-3.965zm14.895 0h3.965v10.313h-3.965zm14.895 0h3.965v2.244h-3.965zm4.965 0h3.965v35.123h-3.965zm4.965 15.409h3.965v5.503h-3.965zM765.535 60h3.965v49.065h-3.965z"/>
        <path fill="#f0c097" d="M60.5 177.743h3.965v23.386H60.5zm4.965 2.645h3.965v17.049h-3.965zm4.965-9.182h3.965v18.293H70.43zm4.965-15.571h3.965v16.863h-3.965zm4.965-6.199h3.965v21.324H80.36zm4.965 21.509h3.965v16.406h-3.965zm4.965-5.111h3.965v21.594H90.29zm4.965 9.53h3.965v15.929h-3.965zm4.965 3.411h3.965v20.928h-3.965zm4.965-11.645h3.965v16.798h-3.965zm4.965-8.645h3.965v26.89h-3.965zm4.965 7.125h3.965v16.707h-3.965zm4.965-9.006h3.965v14.186h-3.965zm4.965.984h3.965v18.215h-3.965zm4.965-8.152h3.965v13.111h-3.965zm4.966-1.68h3.965v11.468h-3.965zm4.965 20.42h3.965v23.388h-3.965zm4.965 10.307h3.965v13.761h-3.965zm4.965-4.831h3.965v19.809h-3.965zm4.965-9.762h3.965v15.211h-3.965zm4.965-16.888h3.965v18.993h-3.965zm4.965-1.662h3.965v17.994h-3.965zm4.965 18.596h3.965v15.429h-3.965zm4.965-19.512h3.965v18.03h-3.965zm4.965 7.5h3.965v18.624h-3.965zm4.965-6.378h3.965v35.439h-3.965zm4.965 7.736h3.965v13.514h-3.965zm4.965-4.943h3.965v23.598h-3.965zm4.965-3.501h3.965v25.13h-3.965zm4.965 9.033h3.965v16.599h-3.965zm4.965 5.899h3.965v12.748h-3.965zm4.965-6.918h3.965v20.566h-3.965zm4.965 19.488h3.965v26.647h-3.965zm4.965 3.994h3.965v17.203h-3.965zm4.965-3.138h3.965v11.007h-3.965zm4.965-2.198h3.965v6.378h-3.965zm4.965-20.324h3.965v20.54h-3.965zm4.965-6.125h3.965v14.92h-3.965zm4.965-5.041h3.965v6.3h-3.965zm4.965 11.489h3.965v6.365h-3.965zm4.965-15.713h3.965v15.902h-3.965zm4.965 8.668h3.965v9.275h-3.965zm4.965 8.76h3.965v17.45h-3.965zm4.966 12.405h3.965v14.975h-3.965zm4.965 21.378h3.965v13.787h-3.965zm4.965-29.497h3.965v10.807h-3.965zm4.965 20.268h3.965v21.501h-3.965zm4.965-22.94h3.965v18.026h-3.965zm4.965 11.946h3.965v25.381h-3.965zm4.965-10.984h3.965v12.339h-3.965zm4.965 11.64h3.965v9.279h-3.965zm4.965-11.219h3.965v10.309h-3.965zm4.965-30.329h3.965v8.364h-3.965zm4.965 19.819h3.965v6.275h-3.965zm4.965-6.296h3.965v16.252h-3.965zm4.965 12.59h3.965v15.38h-3.965zm4.965-5.816h3.965v9.201h-3.965zm4.965 16.521h3.965v22.393h-3.965zm4.965-22.729h3.965v13.546h-3.965zm4.965 26.083h3.965v15.29h-3.965zm4.965-33.876h3.965v20.408h-3.965zm4.965-3.973h3.965v16.949h-3.965zm4.965 29.082h3.965v11.16h-3.965zm4.965-1.469h3.965v12.829h-3.965zm4.965-13.048h3.965v10.007h-3.965zm4.965 10.533h3.965v20.387h-3.965zm4.965 13.509h3.965v17.572h-3.965zm4.965-24.239h3.965v25.896h-3.965zm4.965-11.541h3.965v27.315h-3.965zm4.965 21.456h3.965v11.141h-3.965zm4.965 27.757h3.965v18.813h-3.965zm4.965-10.873h3.965v18.325h-3.965zm4.966 1.503h3.965v9.168h-3.965zm4.965-20.661h3.965v16.619h-3.965zm4.965 7.773h3.965v7.564h-3.965zm4.965 8.175h3.965v26.825h-3.965zm4.965 7.319h3.965v10.741h-3.965zm4.965-28.029h3.965v17.707h-3.965zm4.965-3.684h3.965v11.499h-3.965zm4.965 7.102h3.965v20.452h-3.965zm4.965 24.978h3.965v4.454h-3.965zm4.965-5.219h3.965v12.081h-3.965zm4.965 13.949h3.965v12.963h-3.965zm4.965-3.048h3.965v32.635h-3.965zm4.965-33.924h3.965v19.461h-3.965zm4.965 29.704h3.965v16.073h-3.965zm4.965-45.669h3.965v10.471h-3.965zm4.965 28.655h3.965v14.739h-3.965zm4.965 5.165h3.965v9.756h-3.965zm4.965-26.458h3.965v18.775h-3.965zm4.965 17.736h3.965v24.89h-3.965zm4.965-28.761h3.965v13.794h-3.965zm4.965 11.774h3.965v22.348h-3.965zm4.965 22.478h3.965v16.074h-3.965zm4.965-35.123h3.965v9.107h-3.965zm4.965-6.203h3.965v4.668h-3.965zm4.965-12.358h3.965v6.796h-3.965zm4.965 27.83h3.965v14.865h-3.965zm4.965-8.754h3.965v13.247h-3.965zm4.965 41.088h3.965v10.183h-3.965zm4.965-15.102h3.965v7.52h-3.965zm4.966 27.168h3.965v13.614h-3.965zm4.965-27.119h3.965v13.636h-3.965zm4.965-32.426h3.965v2.249h-3.965zm4.965 25.547h3.965v23.193h-3.965zm4.965 26.74h3.965v9.98h-3.965zm4.965-3.761h3.965v17.623h-3.965zm4.965-22.632h3.965v6.093h-3.965zm9.93-30.739h3.965v9.145h-3.965zm4.965-6.594h3.965v8.55h-3.965zm14.895-7.765h3.965v16.122h-3.965zm4.965 46.999h3.965v7.807h-3.965zm4.965-1.676h3.965v31.465h-3.965zm4.965-25.189h3.965v19.163h-3.965zm4.965 58.692h3.965v11.793h-3.965zm4.965 49.344h3.965v1.906h-3.965zm4.965-157.263h3.965v41.207h-3.965zm4.965 65.349h3.965v21.094h-3.965zm4.965 3.419h3.965v1.729h-3.965zm4.965-47.188h3.965v16.54h-3.965zm4.965 43.9h3.965v2.19h-3.965zm4.965-13.84h3.965v.522h-3.965zm4.965-5.633h3.965v5.095h-3.965zm4.965 31.437h3.965v3.004h-3.965zm4.965-41.439h3.965v85.995h-3.965zm14.896 15.035h3.965v29.905h-3.965zm4.965 49.892h3.965v.837h-3.965zm9.93-60.526h3.965v6.257h-3.965zM725.815 60h3.965v8.924h-3.965zm4.965 97.448h3.965v12.993h-3.965zm9.93-76.116h3.965v72.686h-3.965zM745.675 90h3.965v38.889h-3.965zm9.93 79.067h3.965v11.708h-3.965zm4.965-73.847h3.965v11.006h-3.965zm4.965 38.378h3.965v73.598h-3.965z"/>
        <path fill="#16234f" d="M60.5 60h3.965v8.351H60.5zm4.965 0h3.965v8.201h-3.965zm4.965 0h3.965v5.966H70.43zm4.965 0h3.965v3.525h-3.965zm4.965 0h3.965v1.157H80.36zm4.965 0h3.965v4.616h-3.965zm4.965 0h3.965v5.807H90.29zm4.965 0h3.965v2.919h-3.965zm4.965 0h3.965v4.565h-3.965zm4.965 0h3.965v3.874h-3.965zm4.965 0h3.965v5.164h-3.965zm4.965 0h3.965v1.031h-3.965zm4.965 0h3.965v4.007h-3.965zm4.965 0h3.965v4.434h-3.965zm4.965 0h3.965v4.474h-3.965zm4.966 0h3.965v.529h-3.965zm4.965 0h3.965v5.668h-3.965zm4.965 0h3.965v5.886h-3.965zm4.965 0h3.965v5.455h-3.965zm4.965 0h3.965v6.731h-3.965zm4.965 0h3.965v1.92h-3.965zm4.965 0h3.965v4.102h-3.965zm4.965 0h3.965v.508h-3.965zm4.965 0h3.965v1.152h-3.965zm4.965 0h3.965v3.207h-3.965zm4.965 0h3.965v4.597h-3.965zm4.965 0h3.965v2.403h-3.965zm4.965 0h3.965v2.27h-3.965zm4.965 0h3.965v7.708h-3.965zm4.965 0h3.965v5.618h-3.965zm4.965 0h3.965v1.411h-3.965zm4.965 0h3.965v2.389h-3.965zm4.965 0h3.965v2.507h-3.965zm4.965 0h3.965v2.614h-3.965zm4.965 0h3.965v1.888h-3.965zm4.965 0h3.965v.451h-3.965zm4.965 0h3.965v4.407h-3.965zm4.965 0h3.965v2.517h-3.965zm4.965 0h3.965v4.783h-3.965zm4.965 0h3.965v4.401h-3.965zm4.965 0h3.965v8.945h-3.965zm4.965 0h3.965v4.757h-3.965zm4.965 0h3.965v3.796h-3.965zm4.966 0h3.965v5.285h-3.965zm4.965 0h3.965v10.216h-3.965zm4.965 0h3.965v1.591h-3.965zm4.965 0h3.965v8.984h-3.965zm4.965 0h3.965v.946h-3.965zm4.965 0h3.965v5.382h-3.965zm4.965 0h3.965v2.393h-3.965zm4.965 0h3.965v6.186h-3.965zm4.965 0h3.965v7.891h-3.965zm4.965 0h3.965v1.381h-3.965zm4.965 0h3.965v37.44h-3.965zm4.965 0h3.965v33.445h-3.965zm4.965 0h3.965v3.549h-3.965zm4.965 0h3.965v14.063h-3.965zm4.965 0h3.965v9.47h-3.965zm4.965 0h3.965v1.419h-3.965zm4.965 0h3.965v4.735h-3.965zm4.965 0h3.965v.099h-3.965zm4.965 0h3.965v13.337h-3.965zm4.965 0h3.965v6.94h-3.965zm4.965 0h3.965v4.847h-3.965zm4.965 0h3.965v2.368h-3.965zm4.965 0h3.965v1.386h-3.965zm4.965 0h3.965v.08h-3.965zm4.965 0h3.965v.714h-3.965zm4.965 0h3.965v2.956h-3.965zm4.965 0h3.965v3.352h-3.965zm4.965 0h3.965v4.496h-3.965zm4.965 0h3.965v.862h-3.965zm4.966 0h3.965v.998h-3.965zm4.965 0h3.965v10.072h-3.965zm4.965 0h3.965v.636h-3.965zm4.965 0h3.965v1.382h-3.965zm4.965 0h3.965v4.522h-3.965zm4.965 0h3.965v3.81h-3.965zm4.965 0h3.965v5.039h-3.965zm4.965 0h3.965v13.12h-3.965zm4.965 0h3.965v5.392h-3.965zm4.965 0h3.965v4.884h-3.965zm4.965 0h3.965v10.309h-3.965zm4.965 0h3.965v2.024h-3.965zm4.965 0h3.965v2.033h-3.965zm4.965 0h3.965v3.444h-3.965zm4.965 0h3.965v6.025h-3.965zm4.965 0h3.965v5.615h-3.965zm4.965 0h3.965v1.351h-3.965zm4.965 0h3.965v1.121h-3.965zm4.965 0h3.965v.687h-3.965zm4.965 0h3.965v.184h-3.965zm4.965 0h3.965v1.936h-3.965zm4.965 0h3.965v5.531h-3.965zm4.965 0h3.965v3.265h-3.965zm4.965 0h3.965v1.763h-3.965zm4.965 0h3.965v1.019h-3.965zm4.965 0h3.965v1.201h-3.965zm4.965 0h3.965v.418h-3.965zm4.965 0h3.965v2.25h-3.965zm4.965 0h3.965v1.356h-3.965zm4.966 0h3.965v1.418h-3.965zm4.965 0h3.965v1.843h-3.965zm4.965 0h3.965v.625h-3.965zm4.965 0h3.965v1.1h-3.965zm4.965 0h3.965v4.238h-3.965zm4.965 0h3.965v1.705h-3.965zm4.965 0h3.965v5.247h-3.965zm9.93 0h3.965v.247h-3.965zm4.965 0h3.965v4.008h-3.965zm4.965 0h3.965v10.651h-3.965zm14.895 0h3.965v1.952h-3.965zm4.965 0h3.965v27.576h-3.965zm4.965 0h3.965v.362h-3.965zm19.86 0h3.965v.391h-3.965zm14.895 0h3.965v2.555h-3.965zm4.965 0h3.965v.522h-3.965zm19.86 0h3.965v26.147h-3.965zm4.966 0h3.965v22.714h-3.965zm4.965 0h3.965v22.152h-3.965zm4.965 0h3.965v2.512h-3.965zm19.86 0h3.965v.812h-3.965zm29.79 0h3.965v15.409h-3.965z"/>
        <path fill="#17234f" d="M164.766 163.334h3.965v.311h-3.965zm4.965 16.031h3.965v.944h-3.965zm4.965-16.912h3.965v1.152h-3.965zm4.965 8.096h3.965v1.005h-3.965zm4.965 10.436h3.965v.669h-3.965zm4.965-14.189h3.965v.544h-3.965zm4.965 5.142h3.965v.095h-3.965zm4.965-1.97h3.965v.223h-3.965zm4.965.502h3.965v.358h-3.965zm4.965 2.048h3.965v1.159h-3.965zm9.93 26.469h3.965v.049h-3.965zm4.965-5.45h3.965v1.236h-3.965zm4.965-9.335h3.965v.432h-3.965zm4.965-6.827h3.965v.387h-3.965zm4.965-6.161h3.965v3.361h-3.965zm4.965-11.745h3.965v4.794h-3.965zm4.965-13.661h3.965v.642h-3.965zm9.93 5.378h3.965v.331h-3.965zm9.93 18.976h3.965v.266h-3.965zm9.931 30.12h3.965v.498h-3.965zm4.965-32.477h3.965v.133h-3.965zm4.965 30.961h3.965v1.018h-3.965zm4.965-26.414h3.965v.059h-3.965zm4.965 19.3h3.965v.158h-3.965zm4.965-24.025h3.965v.141h-3.965zm9.93-1.609h3.965v.191h-3.965zm4.965-32.273h3.965v1.151h-3.965zm14.895 33.128h3.965v.592h-3.965zm9.93 17.718h3.965v.099h-3.965zm9.93-3.748h3.965v.296h-3.965zm9.93-36.191h3.965v.185h-3.965zm9.93 23.494h3.965v.19h-3.965zm4.965-15.872h3.965v.076h-3.965zm9.93 31.608h3.965v.639h-3.965zm14.895-20.755h3.965v.197h-3.965zm4.965 35.429h3.965v1.302h-3.965zm9.931-19.015h3.965v.272h-3.965zm4.965-13.21h3.965v.072h-3.965zm4.965-1.282h3.965v.566h-3.965zm9.93 18.67h3.965v.162h-3.965zm9.93-30.954h3.965v.258h-3.965zm9.93 25.035h3.965v.938h-3.965zm9.93 17.239h3.965v.204h-3.965zm9.93-30.475h3.965v.726h-3.965zm34.755-25.294h3.965v.552h-3.965zm49.651 52.618h3.965v.425h-3.965zm9.93-70.91h3.965v1.25h-3.965zm4.965 46.491h3.965v.2h-3.965zm4.965 13.527h3.965v1.914h-3.965zm9.93-30.28h3.965v27.756h-3.965zm4.965-85.925h3.965v149.446h-3.965zm4.965 58.239h3.965v144.103h-3.965zm4.965-7.19h3.965v111.679h-3.965zm4.965 49.931h3.965v74.921h-3.965zm4.965-46.309h3.965v73.011h-3.965zm4.965-3.816h3.965v54.086h-3.965zm4.965 38.685h3.965v53.996h-3.965zm4.965 21.982h3.965v1.414h-3.965zm4.965-37.491h3.965v18.44h-3.965zm4.965 51.322h3.965v50.542h-3.965zm4.965 39.457h3.965v14.61h-3.965zm4.965-117.962h3.965v40.686h-3.965zm4.965 45.236h3.965v10.938h-3.965zm4.965-15.946h3.965v51.877h-3.965zm4.965-32.377h3.965v27.744h-3.965zm4.965 29.55h3.965v16.058h-3.965zm4.965-15.509h3.965v25.559h-3.965zm4.965-1.059h3.965v34.49h-3.965zm4.965 29.346h3.965v15.773h-3.965zm4.965 41.552h3.965v67.076h-3.965zm4.965 11.378h3.965v38.474h-3.965zm4.966-.816h3.965v33.555h-3.965zm4.965-51.617h3.965v18.275h-3.965zm4.965 20.824h3.965v82.057h-3.965zm4.965-46.309h3.965v5.99h-3.965zm4.965-8.797h3.965v83.687h-3.965zm4.965-48.171h3.965v246.388h-3.965zm4.965 101.517h3.965v104.756h-3.965zm4.965-36.316h3.965v42.541h-3.965zm4.965 19.893h3.965v16.591h-3.965zm4.965-25.129h3.965V180h-3.965zm4.965-24.017h3.965v114.423h-3.965zm4.965 75.903h3.965v43.75h-3.965zm4.965-74.549h3.965v211.321h-3.965zm4.965 100.97h3.965v86.682h-3.965z"/>
    </g>
    <path stroke="currentColor" d="M60 410h710" aria-label="rule"/>
    <svg xmlns="http://www.w3.org/2000/svg" viewBox="0 0 830 564">
        <g aria-label="■ Custom Colour/Modded Campaigns ■ Survivor ■ Monk ■ Hunter ■ Gourmand ■ Artificer ■ Rivulet ■ Spearmaster ■ Saint ■ ⏿" style="shape-padding:2.00159">
            <path fill="#00000f" d="M55.012 483.999v-7.744h7.75v7.744z"/>
            <path fill="#1e90ff" d="M77.438 483.167q-.489.26-1.003.388-.514.133-1.092.133-1.822 0-2.83-1.289-1.004-1.288-1.004-3.624 0-2.323 1.01-3.618 1.015-1.302 2.824-1.302.578 0 1.092.134.514.127 1.003.387v1.314q-.47-.387-1.01-.59-.539-.204-1.085-.204-1.25 0-1.872.965t-.622 2.914q0 1.942.622 2.907t1.872.965q.559 0 1.092-.203.54-.203 1.003-.59zm2.253-2.354v-4.406h1.168v4.406q0 .958.337 1.409.343.45 1.054.45.825 0 1.263-.577.438-.584.438-1.67v-4.018h1.174v7.097h-1.174v-1.067q-.311.616-.85.934-.534.317-1.251.317-1.092 0-1.625-.711-.534-.717-.534-2.165m12.766-4.17v1.142q-.502-.292-1.01-.438t-1.034-.146q-.794 0-1.187.26-.388.254-.388.78 0 .477.292.712t1.454.457l.47.089q.87.165 1.314.66.45.495.45 1.288 0 1.054-.749 1.65-.749.591-2.082.591-.527 0-1.104-.114-.578-.108-1.25-.33v-1.206q.653.336 1.25.507.596.165 1.13.165.774 0 1.2-.31.425-.318.425-.883 0-.812-1.555-1.123l-.051-.013-.438-.089q-1.01-.197-1.473-.66-.463-.47-.463-1.276 0-1.022.692-1.574.692-.559 1.974-.559.571 0 1.098.108.527.102 1.035.311m5.547-2.267v2.019h2.654v.907h-2.654v3.86q0 .787.299 1.098.298.31 1.04.31h1.315v.934h-1.429q-1.313 0-1.853-.527t-.54-1.815v-3.86h-1.898v-.907h1.898v-2.019zm7.84 2.837q-.889 0-1.346.692t-.457 2.05q0 1.353.457 2.05.457.693 1.346.693.895 0 1.352-.692.457-.698.457-2.05 0-1.359-.457-2.05-.457-.693-1.352-.693m0-.99q1.479 0 2.26.959.787.958.787 2.774 0 1.821-.781 2.78-.78.952-2.266.952-1.48 0-2.26-.952-.78-.959-.78-2.78 0-1.816.78-2.774.78-.959 2.26-.959m8.207.895q.216-.457.546-.673.337-.222.806-.222.857 0 1.206.667.356.66.356 2.494v4.12h-1.067v-4.069q0-1.504-.171-1.866-.165-.368-.61-.368-.507 0-.698.393-.184.387-.184 1.841v4.069h-1.066v-4.069q0-1.523-.184-1.879-.178-.355-.648-.355-.463 0-.647.393-.178.387-.178 1.841v4.069h-1.06v-7.11h1.06v.61q.21-.381.52-.578.318-.203.718-.203.482 0 .8.222.324.222.501.673m18.174 6.05q-.49.26-1.003.387-.514.133-1.092.133-1.822 0-2.831-1.289-1.003-1.288-1.003-3.624 0-2.323 1.01-3.618 1.015-1.302 2.824-1.302.578 0 1.092.134.514.127 1.003.387v1.314q-.47-.387-1.01-.59-.54-.204-1.085-.204-1.25 0-1.873.965-.622.965-.622 2.914 0 1.942.622 2.907t1.873.965q.558 0 1.092-.203.54-.203 1.003-.59zm4.925-5.955q-.888 0-1.345.692t-.457 2.05q0 1.353.457 2.05.457.693 1.345.693.895 0 1.352-.692.457-.698.457-2.05 0-1.359-.457-2.05-.457-.693-1.352-.693m0-.99q1.48 0 2.26.959.787.958.787 2.774 0 1.821-.78 2.78-.781.952-2.267.952-1.479 0-2.26-.952-.78-.959-.78-2.78 0-1.816.78-2.774.781-.959 2.26-.959m7.973 4.704q0 .787.286 1.187.292.4.857.4h1.364v.99h-1.479q-1.047 0-1.625-.673-.57-.673-.57-1.904v-6.456h-1.873v-.914h3.04zm7.68-3.714q-.888 0-1.345.692t-.457 2.05q0 1.353.457 2.05.457.693 1.346.693.895 0 1.352-.692.457-.698.457-2.05 0-1.359-.457-2.05-.457-.693-1.352-.693m0-.99q1.48 0 2.26.959.788.958.788 2.774 0 1.821-.781 2.78-.78.952-2.266.952-1.48 0-2.26-.952-.78-.959-.78-2.78 0-1.816.78-2.774.78-.959 2.26-.959m5.155 4.59v-4.406h1.168v4.405q0 .959.336 1.41.343.45 1.054.45.825 0 1.263-.577.438-.584.438-1.67v-4.018h1.175v7.097h-1.175v-1.067q-.31.616-.85.934-.533.317-1.25.317-1.093 0-1.626-.711-.533-.717-.533-2.165m13.92-2.952q-.374-.292-.761-.425t-.85-.134q-1.093 0-1.67.686-.578.685-.578 1.98v3.536h-1.174v-7.11h1.174v1.39q.292-.755.895-1.155.61-.406 1.441-.406.432 0 .806.108t.717.336zm6.139-3.834h1.206l-4.99 10.683h-1.212zm2.73 0h1.713l1.638 4.824 1.65-4.824h1.72v9.477h-1.187v-8.373l-1.688 4.996h-.971l-1.695-4.996v8.373h-1.18zm11.19 3.186q-.889 0-1.346.692t-.457 2.05q0 1.353.457 2.05.457.693 1.346.693.895 0 1.352-.692.457-.698.457-2.05 0-1.359-.457-2.05-.457-.693-1.352-.693m0-.99q1.479 0 2.26.959.787.958.787 2.774 0 1.821-.78 2.78-.782.952-2.267.952-1.479 0-2.26-.952-.78-.959-.78-2.78 0-1.816.78-2.774.781-.959 2.26-.959m9.363 1.08v-3.676h1.168v9.877h-1.17v-.895q-.292.527-.781.806-.482.273-1.117.273-1.289 0-2.031-.997-.737-1.003-.737-2.76 0-1.734.743-2.718.743-.99 2.025-.99.641 0 1.13.28.489.272.768.8m-3.434 2.653q0 1.358.431 2.05.432.692 1.276.692t1.282-.698q.445-.699.445-2.044 0-1.352-.445-2.044-.438-.699-1.282-.699t-1.276.692-.431 2.05m11.26-2.654v-3.675h1.168v9.877h-1.168v-.895q-.292.527-.78.806-.483.273-1.117.273-1.29 0-2.032-.997-.736-1.003-.736-2.76 0-1.734.743-2.718.742-.99 2.025-.99.64 0 1.13.28.488.272.767.8m-3.434 2.654q0 1.358.432 2.05t1.276.692 1.282-.698q.444-.699.444-2.044 0-1.352-.444-2.044-.438-.699-1.282-.699t-1.276.692-.432 2.05m12.873-.299v.572h-5.059v.038q0 1.161.603 1.796.61.635 1.714.635.559 0 1.168-.178.61-.178 1.301-.54v1.162q-.666.273-1.288.406-.616.14-1.193.14-1.657 0-2.59-.99-.933-.997-.933-2.742 0-1.702.914-2.717t2.437-1.016q1.359 0 2.14.92.786.921.786 2.514m-1.168-.343q-.025-1.028-.488-1.561-.457-.54-1.32-.54-.845 0-1.39.559-.547.559-.648 1.549zm7.383-2.012v-3.675h1.168v9.877h-1.168v-.895q-.292.527-.781.806-.482.273-1.117.273-1.289 0-2.031-.997-.737-1.003-.737-2.76 0-1.734.743-2.718.743-.99 2.025-.99.641 0 1.13.28.488.272.768.8m-3.434 2.654q0 1.358.431 2.05.432.692 1.276.692t1.282-.698q.445-.699.445-2.044 0-1.352-.445-2.044-.438-.699-1.282-.699t-1.276.692-.431 2.05m20.452 3.211q-.489.26-1.003.388-.514.133-1.092.133-1.822 0-2.83-1.289-1.004-1.288-1.004-3.624 0-2.323 1.01-3.618 1.015-1.302 2.824-1.302.578 0 1.092.134.514.127 1.003.387v1.314q-.47-.387-1.01-.59-.539-.204-1.085-.204-1.25 0-1.872.965t-.622 2.914q0 1.942.622 2.907t1.872.965q.559 0 1.092-.203.54-.203 1.003-.59zm5.472-3.237h-.388q-1.022 0-1.542.362-.514.355-.514 1.066 0 .642.387.997t1.073.355q.964 0 1.517-.666.552-.673.558-1.854v-.26zm2.266-.482v4.056h-1.175v-1.054q-.374.635-.945.94-.565.298-1.378.298-1.085 0-1.733-.61-.647-.615-.647-1.643 0-1.187.793-1.803.8-.616 2.342-.616h1.568v-.184q-.006-.85-.431-1.231-.426-.388-1.359-.388-.596 0-1.206.172t-1.187.501v-1.168q.648-.247 1.238-.368.597-.127 1.155-.127.883 0 1.505.26.628.26 1.015.781.242.318.343.787.102.464.102 1.397m5.395-2.33q.216-.457.546-.673.336-.222.806-.222.857 0 1.206.667.356.66.356 2.494v4.12h-1.067v-4.069q0-1.504-.171-1.866-.165-.368-.61-.368-.507 0-.698.393-.184.387-.184 1.841v4.069h-1.066v-4.069q0-1.523-.184-1.879-.178-.355-.648-.355-.463 0-.647.393-.178.387-.178 1.841v4.069h-1.06v-7.11h1.06v.61q.21-.381.52-.578.318-.203.718-.203.482 0 .8.222.323.222.501.673m5.916 5.49v3.6h-1.174v-9.813h1.174v.907q.292-.527.775-.8.488-.279 1.123-.279 1.289 0 2.019.997.736.996.736 2.761 0 1.733-.736 2.723-.737.984-2.019.984-.647 0-1.136-.273-.483-.28-.762-.806m3.428-2.652q0-1.359-.432-2.05-.425-.693-1.27-.693-.85 0-1.288.699-.438.692-.438 2.044 0 1.345.438 2.044.438.698 1.289.698.844 0 1.27-.692.43-.692.43-2.05m6.475-.026h-.388q-1.022 0-1.542.362-.514.355-.514 1.066 0 .641.387.997t1.073.355q.964 0 1.517-.666.552-.673.558-1.854v-.26zm2.266-.482v4.056h-1.175v-1.054q-.374.635-.945.94-.565.298-1.378.298-1.085 0-1.733-.61-.647-.615-.647-1.643 0-1.187.793-1.803.8-.616 2.342-.616h1.568v-.184q-.006-.85-.431-1.231-.426-.388-1.359-.388-.596 0-1.206.172t-1.187.501v-1.168q.648-.247 1.238-.368.597-.127 1.155-.127.883 0 1.505.26.628.26 1.015.781.241.318.343.787.102.464.102 1.397m2.73-3.053h2.989v6.201h2.317v.908h-5.802v-.908h2.317v-5.294h-1.822zm1.82-2.768h1.169v1.479h-1.168zm9.827 6.265q0-1.314-.432-1.993-.425-.686-1.244-.686-.857 0-1.307.686-.451.68-.451 1.993t.45 2.006q.458.685 1.321.685.806 0 1.231-.691.432-.692.432-2m1.168 3.155q0 1.6-.755 2.425-.756.825-2.222.825-.482 0-1.01-.089-.526-.089-1.053-.26v-1.156q.622.292 1.13.432t.933.14q.946 0 1.377-.514t.432-1.632v-.844q-.28.597-.762.889t-1.174.292q-1.244 0-1.987-.997-.742-.997-.742-2.666 0-1.676.742-2.672.743-.997 1.987-.997.686 0 1.162.273t.774.844v-.92h1.168zm7.884-3.948v4.405h-1.174v-4.405q0-.959-.337-1.41-.336-.45-1.054-.45-.818 0-1.263.584-.438.577-.438 1.663v4.018h-1.168v-7.11h1.168v1.067q.311-.61.844-.92.534-.318 1.264-.318 1.085 0 1.618.717.54.711.54 2.159m7.331-2.457v1.143q-.501-.292-1.009-.438t-1.035-.146q-.793 0-1.187.26-.387.254-.387.78 0 .477.292.712t1.454.457l.47.089q.87.165 1.314.66.45.495.45 1.288 0 1.054-.749 1.65-.749.591-2.082.591-.527 0-1.104-.114-.578-.108-1.25-.33v-1.206q.653.336 1.25.507.596.165 1.13.165.774 0 1.2-.31.425-.318.425-.883 0-.812-1.556-1.123l-.05-.013-.438-.089q-1.01-.197-1.473-.66-.463-.47-.463-1.276 0-1.022.691-1.574.692-.559 1.975-.559.57 0 1.098.108.527.102 1.034.311"/>
            <path fill="#fff" d="M313.292 483.999v-7.744h7.75v7.744z"/>
            <path fill="#1e90ff" d="M335.33 474.35v1.302q-.583-.375-1.174-.565-.584-.19-1.18-.19-.908 0-1.435.425-.527.419-.527 1.136 0 .628.343.958.349.33 1.295.553l.673.152q1.333.311 1.942.978.61.666.61 1.815 0 1.352-.838 2.063t-2.438.711q-.666 0-1.34-.146-.672-.14-1.351-.425v-1.365q.73.463 1.377.68.654.215 1.314.215.971 0 1.51-.432.54-.438.54-1.218 0-.711-.374-1.086-.368-.374-1.289-.578l-.685-.158q-1.32-.299-1.917-.902t-.597-1.618q0-1.27.85-2.031.858-.769 2.273-.769.546 0 1.149.127.603.121 1.27.369m2.641 6.462v-4.405h1.168v4.406q0 .958.337 1.409.342.45 1.053.45.825 0 1.263-.577.438-.584.438-1.67v-4.018h1.175v7.097h-1.175v-1.067q-.31.616-.85.934-.533.317-1.25.317-1.092 0-1.626-.711-.533-.717-.533-2.165m13.92-2.951q-.374-.292-.761-.425-.387-.134-.85-.134-1.092 0-1.67.686-.578.685-.578 1.98v3.536h-1.174v-7.11h1.174v1.39q.292-.755.895-1.155.61-.406 1.441-.406.432 0 .806.108t.718.336zm1.13-1.466h1.213l2.063 5.966 2.07-5.966h1.212l-2.527 7.109h-1.504zm8.817 0h2.99v6.201h2.317v.908h-5.802v-.908h2.317v-5.294h-1.822zm1.822-2.768h1.168v1.479h-1.168zm5.015 2.768h1.212l2.063 5.966 2.07-5.966h1.212l-2.526 7.109H371.2zm11.102.818q-.889 0-1.346.692t-.457 2.05q0 1.353.457 2.05.457.693 1.346.693.895 0 1.352-.692.457-.698.457-2.05 0-1.359-.457-2.05-.457-.693-1.352-.693m0-.99q1.479 0 2.26.959.787.958.787 2.774 0 1.821-.781 2.78-.78.952-2.266.952-1.48 0-2.26-.952-.78-.959-.78-2.78 0-1.816.78-2.774t2.26-.959m11.248 1.638q-.375-.292-.762-.425-.387-.134-.85-.134-1.092 0-1.67.686-.577.685-.577 1.98v3.536h-1.175v-7.11h1.175v1.39q.292-.755.895-1.155.609-.406 1.44-.406.432 0 .807.108t.717.336z"/>
            <path fill="#ffff73" d="M399.385 483.999v-7.744h7.75v7.744z"/>
            <path fill="#1e90ff" d="M415.546 474.027h1.714l1.637 4.824 1.65-4.824h1.721v9.477h-1.187v-8.373l-1.688 4.996h-.972l-1.694-4.996v8.373h-1.181zm11.19 3.186q-.888 0-1.345.692t-.457 2.05q0 1.353.457 2.05.457.693 1.346.693.895 0 1.352-.692.457-.698.457-2.05 0-1.359-.457-2.05-.457-.693-1.352-.693m0-.99q1.48 0 2.26.959.788.958.788 2.774 0 1.821-.781 2.78-.78.952-2.266.952-1.48 0-2.26-.952-.78-.959-.78-2.78 0-1.816.78-2.774t2.26-.959m10.589 2.876v4.405h-1.175v-4.405q0-.959-.336-1.41t-1.054-.45q-.819 0-1.263.584-.438.577-.438 1.663v4.018h-1.168v-7.11h1.168v1.067q.311-.61.844-.92.534-.318 1.263-.318 1.086 0 1.62.717.539.711.539 2.159m2.653-5.472h1.206v5.72l3.066-2.952h1.422l-2.8 2.678 3.238 4.43h-1.428l-2.628-3.668-.87.819v2.85h-1.206z"/>
            <path fill="#ff7373" d="M454.171 483.999v-7.744h7.75v7.744z"/>
            <path fill="#1e90ff" d="M470.656 474.027h1.289v3.885h3.51v-3.885h1.289v9.477h-1.289v-4.513h-3.51v4.513h-1.289zm8.195 6.786v-4.406h1.168v4.406q0 .958.336 1.409.343.45 1.054.45.825 0 1.263-.577.438-.584.438-1.67v-4.018h1.175v7.097h-1.175v-1.067q-.31.616-.85.934-.533.317-1.25.317-1.093 0-1.626-.711-.533-.717-.533-2.165m13.26-1.714v4.405h-1.174v-4.405q0-.959-.336-1.41-.337-.45-1.054-.45-.819 0-1.263.584-.438.577-.438 1.663v4.018h-1.168v-7.11h1.168v1.067q.31-.61.844-.92.533-.318 1.263-.318 1.086 0 1.619.717.54.711.54 2.159m5.053-4.723v2.019h2.653v.907h-2.653v3.86q0 .787.298 1.098.299.31 1.041.31h1.314v.934h-1.428q-1.314 0-1.853-.527-.54-.527-.54-1.815v-3.86h-1.898v-.907h1.898v-2.019zm10.988 5.281v.572h-5.06v.038q0 1.161.604 1.796.61.635 1.714.635.558 0 1.168-.178t1.3-.54v1.162q-.666.273-1.288.406-.615.14-1.193.14-1.657 0-2.59-.99-.933-.997-.933-2.742 0-1.702.914-2.717t2.438-1.016q1.358 0 2.139.92.787.921.787 2.514m-1.168-.343q-.026-1.028-.489-1.561-.457-.54-1.32-.54-.844 0-1.39.559t-.648 1.549zm9.267-1.453q-.374-.292-.761-.425-.387-.134-.85-.134-1.093 0-1.67.686-.578.685-.578 1.98v3.536h-1.174v-7.11h1.174v1.39q.292-.755.895-1.155.61-.406 1.441-.406.432 0 .806.108t.717.336z"/>
            <path fill="#17234f" d="M524.611 483.999v-7.744h7.75v7.744z"/>
            <path fill="#1e90ff" d="M626.505 482.723q-.514.476-1.161.724-.641.241-1.39.241-1.803 0-2.806-1.289-1.003-1.295-1.003-3.624 0-2.323 1.016-3.618 1.015-1.302 2.824-1.302.597 0 1.143.172.546.165 1.054.508v1.314q-.515-.49-1.054-.718-.54-.235-1.143-.235-1.25 0-1.879.972-.622.965-.622 2.907 0 1.974.603 2.926.61.946 1.867.946.425 0 .742-.095.324-.102.584-.311v-2.546h-1.377v-1.053h2.602zm4.73-5.51q-.89 0-1.346.692t-.457 2.05q0 1.353.457 2.05.457.693 1.345.693.895 0 1.352-.692.457-.698.457-2.05 0-1.359-.457-2.05-.457-.693-1.352-.693m0-.99q1.478 0 2.26.959.786.958.786 2.774 0 1.821-.78 2.78-.781.952-2.267.952-1.479 0-2.26-.952-.78-.959-.78-2.78 0-1.816.78-2.774t2.26-.959m5.154 4.59v-4.406h1.168v4.406q0 .958.336 1.409.343.45 1.054.45.825 0 1.263-.577.438-.584.438-1.67v-4.018h1.174v7.097h-1.174v-1.067q-.311.616-.85.934-.534.317-1.251.317-1.092 0-1.625-.71-.533-.718-.533-2.165m13.92-2.952q-.374-.292-.762-.425-.387-.134-.85-.134-1.092 0-1.67.686-.577.685-.577 1.98v3.536h-1.175v-7.11h1.175v1.39q.292-.755.895-1.155.61-.406 1.44-.406.432 0 .807.108t.717.336zm4.786-.743q.216-.457.546-.673.337-.222.806-.222.857 0 1.206.667.356.66.356 2.494v4.12h-1.067v-4.069q0-1.504-.171-1.866-.165-.368-.61-.368-.507 0-.698.393-.184.387-.184 1.841v4.069h-1.066v-4.069q0-1.523-.184-1.879-.178-.355-.648-.355-.463 0-.647.393-.178.387-.178 1.841v4.069h-1.06v-7.11h1.06v.61q.21-.381.52-.578.318-.203.718-.203.482 0 .8.222.323.222.501.673m7.992 2.812h-.387q-1.022 0-1.543.362-.514.355-.514 1.066 0 .642.387.997t1.073.355q.965 0 1.517-.666.552-.673.559-1.854v-.26zm2.266-.482v4.056h-1.174v-1.054q-.375.635-.946.94-.565.298-1.378.298-1.085 0-1.732-.61-.648-.615-.648-1.643 0-1.187.794-1.803.8-.616 2.342-.616h1.568v-.184q-.006-.85-.432-1.231-.425-.388-1.358-.388-.597 0-1.206.172-.61.171-1.187.501v-1.168q.647-.247 1.237-.368.597-.127 1.156-.127.882 0 1.504.26.628.26 1.016.781.24.318.342.787.102.464.102 1.397m7.776-.35v4.406h-1.174v-4.405q0-.959-.337-1.41-.336-.45-1.054-.45-.818 0-1.263.584-.438.577-.438 1.663v4.018h-1.168v-7.11h1.168v1.067q.311-.61.845-.92.533-.318 1.263-.318 1.085 0 1.618.717.54.711.54 2.159m6.601-1.796v-3.675h1.168v9.877h-1.168v-.895q-.292.527-.78.806-.483.273-1.118.273-1.288 0-2.03-.997-.737-1.003-.737-2.76 0-1.734.743-2.718.742-.99 2.024-.99.642 0 1.13.28.49.272.768.8m-3.434 2.654q0 1.358.432 2.05t1.276.692 1.282-.698q.444-.699.444-2.044 0-1.352-.444-2.044-.438-.699-1.282-.699t-1.276.692-.432 2.05"/>
            <path fill="#70223b" d="M689.976 483.999v-7.744h7.75v7.744z"/>
            <path fill="#1e90ff" d="m709.501 475.157-1.352 4.85h2.704zm-.774-1.13h1.555l2.9 9.477h-1.326l-.698-2.47h-3.32l-.685 2.47h-1.327zm12.022 3.834q-.374-.292-.761-.425t-.851-.134q-1.092 0-1.67.686-.577.685-.577 1.98v3.536h-1.174v-7.11h1.174v1.39q.292-.755.895-1.155.61-.406 1.44-.406.433 0 .807.108t.717.336zm4.393-3.485v2.019h2.653v.907h-2.653v3.86q0 .787.298 1.098.299.31 1.041.31h1.314v.934h-1.428q-1.314 0-1.853-.527-.54-.527-.54-1.815v-3.86h-1.898v-.907h1.898v-2.019zm5.554 2.019h2.99v6.201h2.317v.908H730.2v-.908h2.317v-5.294h-1.822zm1.822-2.768h1.168v1.479h-1.168zm11.127 0v.971h-1.326q-.629 0-.876.26-.242.254-.242.908v.629h2.444v.907h-2.444v6.202h-1.167v-6.202h-1.898v-.907h1.898v-.496q0-1.168.533-1.72.54-.552 1.675-.552zm2.704 2.768h2.99v6.201h2.317v.908h-5.802v-.908h2.317v-5.294h-1.822zm1.822-2.768h1.168v1.479h-1.168zm11.115 9.515q-.47.273-.971.406-.495.14-1.016.14-1.65 0-2.583-.99-.927-.99-.927-2.742t.927-2.743q.933-.99 2.583-.99.514 0 1.003.133.489.134.984.413v1.225q-.463-.412-.933-.597-.464-.184-1.054-.184-1.098 0-1.688.711t-.59 2.032q0 1.314.59 2.03.596.712 1.688.712.61 0 1.092-.184.482-.19.895-.584zm8.15-3.485v.572h-5.059v.038q0 1.161.603 1.796.61.635 1.714.635.559 0 1.168-.178.61-.178 1.301-.54v1.162q-.666.273-1.288.406-.616.14-1.194.14-1.656 0-2.59-.99-.932-.997-.932-2.742 0-1.702.914-2.717t2.437-1.016q1.358 0 2.14.92.786.921.786 2.514m-1.168-.343q-.025-1.028-.488-1.561-.457-.54-1.32-.54-.845 0-1.39.559-.547.559-.648 1.549zm9.268-1.453q-.375-.292-.762-.425t-.85-.134q-1.092 0-1.67.686-.577.685-.577 1.98v3.536h-1.175v-7.11h1.175v1.39q.292-.755.895-1.155.609-.406 1.44-.406.432 0 .807.108t.717.336z"/>
            <path fill="#91ccf0" d="M235.871 500.25v-7.745h7.75v7.744z"/>
            <path fill="#1e90ff" d="M256.627 495.577q.495.127.844.482.349.35.87 1.403l1.288 2.59h-1.377l-1.13-2.393q-.49-1.022-.883-1.314-.387-.299-1.015-.299h-1.225v4.006h-1.289v-9.477h2.64q1.562 0 2.394.704.831.705.831 2.038 0 .94-.514 1.536-.508.59-1.434.724m-2.628-3.949v3.365h1.402q.92 0 1.372-.413.45-.412.45-1.263 0-.819-.482-1.25-.476-.439-1.39-.439zm7.255 1.314h2.99v6.202h2.317v.908h-5.802v-.908h2.317v-5.294h-1.822zm1.822-2.767h1.168v1.479h-1.168zm5.014 2.767h1.213l2.063 5.967 2.07-5.967h1.212l-2.527 7.11h-1.504zm8.43 4.418v-4.405h1.168v4.405q0 .959.337 1.41.342.45 1.053.45.825 0 1.263-.577.438-.584.438-1.67v-4.018h1.175v7.097h-1.175v-1.067q-.31.616-.85.933-.533.318-1.25.318-1.092 0-1.626-.711-.533-.717-.533-2.165m10.645.115q0 .787.286 1.187.292.4.857.4h1.364v.99h-1.479q-1.047 0-1.625-.673-.57-.673-.57-1.904v-6.456h-1.873v-.914h3.04zm10.83-1.27v.571h-5.06v.038q0 1.162.603 1.797.61.635 1.714.635.559 0 1.168-.178.61-.178 1.301-.54v1.162q-.666.273-1.288.406-.616.14-1.194.14-1.656 0-2.59-.99-.933-.997-.933-2.743 0-1.7.914-2.716.915-1.016 2.438-1.016 1.358 0 2.14.92.786.92.786 2.514m-1.169-.343q-.025-1.028-.488-1.561-.458-.54-1.32-.54-.845 0-1.39.559-.547.558-.648 1.549zm5.834-4.938v2.018h2.653v.908h-2.653v3.86q0 .787.298 1.098.298.31 1.041.31h1.314v.934h-1.428q-1.314 0-1.854-.527t-.54-1.816v-3.859h-1.897v-.908h1.898v-2.018z"/>
            <path fill="#4f2d68" d="M314.618 500.249v-7.744h7.75v7.744z"/>
            <path fill="#1e90ff" d="M336.657 490.6v1.302q-.584-.375-1.174-.565-.584-.19-1.18-.19-.908 0-1.435.425-.527.419-.527 1.136 0 .628.343.958.349.33 1.295.553l.672.152q1.333.311 1.943.978.61.666.61 1.815 0 1.352-.839 2.063t-2.437.711q-.667 0-1.34-.146-.672-.14-1.352-.425v-1.365q.73.463 1.378.68.654.215 1.314.215.97 0 1.51-.432.54-.438.54-1.218 0-.711-.374-1.086-.369-.374-1.29-.578l-.685-.158q-1.32-.299-1.917-.902-.596-.603-.596-1.618 0-1.27.85-2.031.857-.769 2.273-.769.546 0 1.149.127.603.121 1.27.369m3.783 8.259v3.599h-1.174v-9.813h1.174v.907q.292-.527.775-.8.489-.279 1.123-.279 1.289 0 2.019.997.736.996.736 2.761 0 1.733-.736 2.723-.736.984-2.019.984-.647 0-1.136-.273-.482-.28-.762-.806m3.428-2.653q0-1.359-.431-2.05-.426-.693-1.27-.693-.85 0-1.289.699-.438.692-.438 2.044 0 1.345.438 2.044t1.289.698q.844 0 1.27-.692.431-.692.431-2.05m9.077-.299v.572h-5.059v.038q0 1.161.603 1.796.61.635 1.714.635.559 0 1.168-.178.61-.178 1.301-.54v1.162q-.666.273-1.288.406-.616.14-1.194.14-1.656 0-2.59-.99-.933-.997-.933-2.742 0-1.702.915-2.717.914-1.016 2.437-1.016 1.358 0 2.14.92.786.921.786 2.514m-1.168-.343q-.025-1.028-.488-1.561-.457-.54-1.32-.54-.845 0-1.39.559-.547.559-.648 1.549zm6.392.616h-.387q-1.022 0-1.542.362-.514.355-.514 1.066 0 .642.387.997t1.073.355q.964 0 1.517-.666.552-.673.558-1.854v-.26zm2.267-.482v4.056h-1.175V498.7q-.374.635-.946.94-.565.298-1.377.298-1.085 0-1.733-.61-.647-.615-.647-1.643 0-1.187.793-1.803.8-.616 2.342-.616h1.568v-.184q-.006-.85-.431-1.231-.426-.388-1.359-.388-.596 0-1.206.172t-1.187.501v-1.168q.648-.247 1.238-.368.597-.127 1.155-.127.883 0 1.505.26.628.26 1.015.781.241.318.343.787.102.464.102 1.397m8.436-1.587q-.375-.292-.762-.425-.387-.134-.85-.134-1.093 0-1.67.686-.578.685-.578 1.98v3.536h-1.174v-7.11h1.174v1.39q.292-.755.895-1.155.61-.406 1.441-.406.432 0 .806.108t.718.336zm4.786-.743q.216-.457.546-.673.336-.222.806-.222.857 0 1.206.667.355.66.355 2.494v4.12h-1.066v-4.069q0-1.504-.171-1.866-.166-.368-.61-.368-.508 0-.698.393-.184.387-.184 1.841v4.069h-1.067v-4.069q0-1.523-.184-1.879-.177-.355-.647-.355-.464 0-.648.393-.177.387-.177 1.841v4.069h-1.06v-7.11h1.06v.61q.21-.381.52-.578.318-.203.717-.203.483 0 .8.222.324.222.502.673m7.991 2.812h-.387q-1.022 0-1.542.362-.514.355-.514 1.066 0 .642.387.997t1.073.355q.964 0 1.517-.666.552-.673.558-1.854v-.26zm2.267-.482v4.056h-1.175V498.7q-.374.635-.946.94-.565.298-1.377.298-1.085 0-1.733-.61-.647-.615-.647-1.643 0-1.187.793-1.803.8-.616 2.342-.616h1.568v-.184q-.006-.85-.431-1.231-.426-.388-1.359-.388-.597 0-1.206.172-.61.171-1.187.501v-1.168q.648-.247 1.238-.368.597-.127 1.155-.127.882 0 1.505.26.628.26 1.015.781.241.318.343.787.102.464.102 1.397m7.28-2.806v1.143q-.501-.292-1.009-.438t-1.035-.146q-.793 0-1.187.26-.387.254-.387.78 0 .477.292.712t1.454.457l.47.089q.87.165 1.313.66.451.495.451 1.288 0 1.054-.749 1.65-.749.591-2.082.591-.527 0-1.104-.114-.578-.108-1.25-.33v-1.206q.653.336 1.25.507.596.165 1.13.165.774 0 1.2-.31.424-.318.424-.883 0-.812-1.555-1.123l-.05-.013-.439-.089q-1.009-.197-1.472-.66-.464-.47-.464-1.276 0-1.022.692-1.574.692-.559 1.974-.559.572 0 1.099.108.526.102 1.034.311m5.548-2.266v2.019h2.653v.907h-2.653v3.86q0 .787.298 1.098.299.31 1.042.31h1.313v.934h-1.428q-1.314 0-1.853-.527-.54-.527-.54-1.815v-3.86h-1.898v-.907h1.898v-2.019zm10.988 5.281v.572h-5.06v.038q0 1.161.604 1.796.61.635 1.714.635.558 0 1.168-.178t1.301-.54v1.162q-.667.273-1.289.406-.615.14-1.193.14-1.657 0-2.59-.99-.933-.997-.933-2.742 0-1.702.914-2.717t2.438-1.016q1.358 0 2.139.92.787.921.787 2.514m-1.168-.343q-.025-1.028-.489-1.561-.457-.54-1.32-.54-.844 0-1.39.559t-.648 1.549zm9.268-1.453q-.375-.292-.762-.425-.387-.134-.85-.134-1.093 0-1.67.686-.578.685-.578 1.98v3.536h-1.174v-7.11h1.174v1.39q.292-.755.895-1.155.61-.406 1.441-.406.432 0 .806.108t.718.336z"/>
            <path fill="#aaf155" d="M424.191 500.249v-7.744h7.75v7.744z"/>
            <path fill="#1e90ff" d="M446.23 490.6v1.302q-.584-.375-1.174-.565-.584-.19-1.18-.19-.908 0-1.435.425-.527.419-.527 1.136 0 .628.343.958.349.33 1.295.553l.673.152q1.333.311 1.942.978.61.666.61 1.815 0 1.352-.839 2.063t-2.437.711q-.667 0-1.34-.146-.672-.14-1.351-.425v-1.365q.73.463 1.377.68.654.215 1.314.215.971 0 1.51-.432.54-.438.54-1.218 0-.711-.374-1.086-.368-.374-1.289-.578l-.685-.158q-1.32-.299-1.917-.902t-.597-1.618q0-1.27.85-2.031.857-.769 2.273-.769.546 0 1.149.127.603.121 1.27.369m5.86 5.58h-.388q-1.022 0-1.542.362-.514.355-.514 1.066 0 .642.387.997t1.072.355q.965 0 1.518-.666.552-.673.558-1.854v-.26zm2.265-.482v4.056h-1.174V498.7q-.374.635-.946.94-.565.298-1.377.298-1.086 0-1.733-.61-.647-.615-.647-1.643 0-1.187.793-1.803.8-.616 2.342-.616h1.568v-.184q-.006-.85-.431-1.231-.426-.388-1.359-.388-.597 0-1.206.172-.61.171-1.187.501v-1.168q.648-.247 1.238-.368.597-.127 1.155-.127.882 0 1.505.26.628.26 1.015.781.241.318.343.787.101.464.101 1.397m2.73-3.053h2.99v6.201h2.317v.908h-5.802v-.908h2.317v-5.294h-1.822zm1.822-2.768h1.168v1.479h-1.168zm11.051 5.472v4.405h-1.174v-4.405q0-.959-.337-1.41-.336-.45-1.053-.45-.82 0-1.264.584-.438.577-.438 1.663v4.018h-1.168v-7.11h1.168v1.067q.311-.61.845-.92.533-.318 1.263-.318 1.085 0 1.618.717.54.711.54 2.159m5.053-4.723v2.019h2.653v.907h-2.653v3.86q0 .787.298 1.098.298.31 1.041.31h1.314v.934h-1.428q-1.314 0-1.854-.527t-.54-1.815v-3.86h-1.897v-.907h1.898v-2.019z"/>
            <path fill="#16234f" d="M486.805 500.249v-7.744h7.75v7.744z"/>
            <path fill="#1e90ff" d="M515.287 492.905q-.248-.013-.413-.013-1.11 0-3.117.387.203.52.203.978 0 .616-.298 1.085-.349.533-.933.533-.355 0-.552-.406-.159-.323-.159-.723 0-.527.267-.876.21.45.552.603.425-.4.578-1.13-1.156.235-2.482.596-.121.426-.121.851 0 .914.489 1.473.514.584 1.415.584.565 0 1.029-.299.298-.19.806-.717.127-.133.431-.374-.006.977-.87 1.694-.818.68-1.821.68-.92 0-1.574-.534-.698-.577-.698-1.479 0-1.053.463-1.752-2.361.673-4.202 1.429.457.793 1.961 1.637 1.225.686 2.412 1.054 1.092.336 1.924.336.26 0 .774-.063.514-.07.768-.07.12 0 .229.057-.197.343-.933.553-.59.17-1.118.17-2.107 0-4.38-1.072-2.481-1.174-3.364-2.888 3.377-1.784 8.88-2.647 1.296-.203 2.184-.203 1.384 0 1.67.546"/>
            <path fill="#1e90ff" d="M541.228 474.029h1.25l.908 7.693 1.079-5.09h1.34l1.091 5.103.908-7.706h1.25l-1.415 9.477h-1.213l-1.288-5.63-1.283 5.63h-1.212zm12.282 5.903h-.387q-1.022 0-1.542.362-.515.356-.515 1.067 0 .64.388.996t1.072.356q.965 0 1.518-.667.552-.673.558-1.853v-.26zm2.266-.482v4.056h-1.174v-1.054q-.374.635-.946.94-.565.298-1.377.298-1.086 0-1.733-.61-.648-.615-.648-1.643 0-1.187.794-1.803.8-.616 2.342-.616h1.568v-.184q-.006-.85-.431-1.231-.426-.387-1.359-.387-.597 0-1.206.171-.61.171-1.187.501v-1.168q.647-.247 1.238-.368.596-.127 1.155-.127.882 0 1.505.26.628.26 1.015.781.241.318.343.787.101.464.101 1.397m5.002-5.072v2.019h2.654v.907h-2.654v3.86q0 .787.299 1.098.298.311 1.04.311h1.315v.933h-1.428q-1.314 0-1.854-.527t-.54-1.815v-3.86h-1.897v-.907h1.897v-2.019zm10.665 8.766q-.47.273-.972.407-.495.14-1.015.14-1.65 0-2.584-.991-.926-.99-.926-2.742t.926-2.742q.933-.99 2.584-.99.514 0 1.003.133t.984.412v1.225q-.464-.412-.934-.596-.463-.184-1.053-.184-1.098 0-1.689.71-.59.711-.59 2.032 0 1.314.59 2.031.597.711 1.689.711.61 0 1.092-.184.482-.19.895-.584zm7.763-4.043v4.405h-1.174v-4.405q0-.959-.337-1.41-.336-.45-1.054-.45-.818 0-1.263.584-.438.578-.438 1.663v4.018h-1.168v-9.877h1.168v3.834q.311-.61.844-.92.534-.318 1.264-.318 1.085 0 1.618.718.54.71.54 2.158m8.214.558v.572h-5.06v.038q0 1.161.604 1.796.61.635 1.714.635.558 0 1.168-.178t1.3-.54v1.162q-.666.273-1.288.407-.615.14-1.193.14-1.657 0-2.59-.991-.933-.997-.933-2.742 0-1.701.914-2.717t2.437-1.016q1.359 0 2.14.92.787.921.787 2.514m-1.168-.342q-.026-1.029-.489-1.562-.457-.54-1.32-.54-.845 0-1.39.56-.546.558-.648 1.548zm9.267-1.454q-.374-.292-.761-.425t-.85-.134q-1.093 0-1.67.686-.578.686-.578 1.98v3.536h-1.174v-7.11h1.174v1.39q.292-.754.895-1.154.61-.407 1.441-.407.432 0 .806.108t.717.337z" aria-label="Watcher"/>
            <path fill="#f0c097" d="M603.882 483.999v-7.744h7.75v7.744z"/>
        </g>
    </svg>
</svg>
