<?xml version="1.0"?>
<svg xmlns="http://www.w3.org/2000/svg" xmlns:xlink="http://www.w3.org/1999/xlink" class="plot-d6a7b5" fill="currentColor" font-family="system-ui, sans-serif" font-size="10" text-anchor="middle" width="830" height="470" viewBox="0 0 830 470" color="#1e90ff">
  <style>:where(.plot-d6a7b5){--plot-background: white;display:block;height:intrinsic;max-width:100%}:where(.plot-d6a7b5 text),:where(.plot-d6a7b5 tspan){white-space:pre}</style>
  <g aria-label="y-grid" stroke="currentColor" stroke-opacity=".1">
    <line x1="60" x2="770" y1="410" y2="410"/>
    <line x1="60" x2="770" y1="378.557" y2="378.557"/>
    <line x1="60" x2="770" y1="347.114" y2="347.114"/>
    <line x1="60" x2="770" y1="315.671" y2="315.671"/>
    <line x1="60" x2="770" y1="284.227" y2="284.227"/>
    <line x1="60" x2="770" y1="252.784" y2="252.784"/>
    <line x1="60" x2="770" y1="221.341" y2="221.341"/>
    <line x1="60" x2="770" y1="189.898" y2="189.898"/>
    <line x1="60" x2="770" y1="158.455" y2="158.455"/>
    <line x1="60" x2="770" y1="127.012" y2="127.012"/>
    <line x1="60" x2="770" y1="95.568" y2="95.568"/>
    <line x1="60" x2="770" y1="64.125" y2="64.125"/>
  </g>
  <g aria-label="y-axis tick" fill="none" stroke="currentColor">
    <path transform="translate(60,410)" d="M0,0L-6,0"/>
    <path transform="translate(60,378.55684921661634)" d="M0,0L-6,0"/>
    <path transform="translate(60,347.11369843323274)" d="M0,0L-6,0"/>
    <path transform="translate(60,315.6705476498491)" d="M0,0L-6,0"/>
    <path transform="translate(60,284.2273968664655)" d="M0,0L-6,0"/>
    <path transform="translate(60,252.7842460830818)" d="M0,0L-6,0"/>
    <path transform="translate(60,221.34109529969817)" d="M0,0L-6,0"/>
    <path transform="translate(60,189.8979445163145)" d="M0,0L-6,0"/>
    <path transform="translate(60,158.45479373293085)" d="M0,0L-6,0"/>
    <path transform="translate(60,127.01164294954722)" d="M0,0L-6,0"/>
    <path transform="translate(60,95.56849216616357)" d="M0,0L-6,0"/>
    <path transform="translate(60,64.12534138277994)" d="M0,0L-6,0"/>
  </g>
  <g aria-label="y-axis tick label" text-anchor="end" font-variant="tabular-nums">
    <text y=".32em" transform="translate(-9,0) translate(60,410)">0</text>
    <text y=".32em" transform="translate(-9,0) translate(60,378.55684921661634)">5,000</text>
    <text y=".32em" transform="translate(-9,0) translate(60,347.11369843323274)">10,000</text>
    <text y=".32em" transform="translate(-9,0) translate(60,315.6705476498491)">15,000</text>
    <text y=".32em" transform="translate(-9,0) translate(60,284.2273968664655)">20,000</text>
    <text y=".32em" transform="translate(-9,0) translate(60,252.7842460830818)">25,000</text>
    <text y=".32em" transform="translate(-9,0) translate(60,221.34109529969817)">30,000</text>
    <text y=".32em" transform="translate(-9,0) translate(60,189.8979445163145)">35,000</text>
    <text y=".32em" transform="translate(-9,0) translate(60,158.45479373293085)">40,000</text>
    <text y=".32em" transform="translate(-9,0) translate(60,127.01164294954722)">45,000</text>
    <text y=".32em" transform="translate(-9,0) translate(60,95.56849216616357)">50,000</text>
    <text y=".32em" transform="translate(-9,0) translate(60,64.12534138277994)">55,000</text>
  </g>
  <g aria-label="y-axis label" text-anchor="start">
    <text y=".71em" transform="translate(-57,-57) translate(60,60)">&#x2191; Visible Vestiges (30 days)</text>
  </g>
  <g aria-label="x-axis tick" fill="none" stroke="currentColor">
    <path transform="translate(86.05035971223022,410)" d="M0,0L0,6"/>
    <path transform="translate(155.77338129496403,410)" d="M0,0L0,6"/>
    <path transform="translate(226.26258992805757,410)" d="M0,0L0,6"/>
    <path transform="translate(296.7517985611511,410)" d="M0,0L0,6"/>
    <path transform="translate(366.4748201438849,410)" d="M0,0L0,6"/>
    <path transform="translate(436.19784172661866,410)" d="M0,0L0,6"/>
    <path transform="translate(506.6870503597122,410)" d="M0,0L0,6"/>
    <path transform="translate(577.1762589928059,410)" d="M0,0L0,6"/>
    <path transform="translate(646.1330935251799,410)" d="M0,0L0,6"/>
    <path transform="translate(715.8561151079136,410)" d="M0,0L0,6"/>
  </g>
  <g aria-label="x-axis tick label" font-variant="tabular-nums">
    <text transform="translate(0,9) translate(86.05035971223022,410)">
      <tspan x="0" y=".71em">Apr</tspan>
      <tspan x="0" dy="1em">2023</tspan>
    </text>
    <text y=".71em" transform="translate(0,9) translate(155.77338129496403,410)">Jul</text>
    <text y=".71em" transform="translate(0,9) translate(226.26258992805757,410)">Oct</text>
    <text transform="translate(0,9) translate(296.7517985611511,410)">
      <tspan x="0" y=".71em">Jan</tspan>
      <tspan x="0" dy="1em">2024</tspan>
    </text>
    <text y=".71em" transform="translate(0,9) translate(366.4748201438849,410)">Apr</text>
    <text y=".71em" transform="translate(0,9) translate(436.19784172661866,410)">Jul</text>
    <text y=".71em" transform="translate(0,9) translate(506.6870503597122,410)">Oct</text>
    <text transform="translate(0,9) translate(577.1762589928059,410)">
      <tspan x="0" y=".71em">Jan</tspan>
      <tspan x="0" dy="1em">2025</tspan>
    </text>
    <text y=".71em" transform="translate(0,9) translate(646.1330935251799,410)">Apr</text>
    <text y=".71em" transform="translate(0,9) translate(715.8561151079136,410)">Jul</text>
  </g>
  <g aria-label="line" fill="none" stroke="currentColor" stroke-width="1.5" stroke-linejoin="round" stroke-linecap="round">
    <path d="M60,410L60.511,406.843L61.022,395.297L61.532,389.071L62.043,384.657L62.554,377.375L63.065,371.639L63.576,366.263L64.086,355.383L64.597,346.774L65.108,336.555L65.619,320.727L66.129,305.804L66.64,298.056L67.151,286.843L67.662,279.228L68.173,270.499L68.683,259.085L69.194,251.401L69.705,243.867L70.216,233.642L70.727,222.303L71.237,214.273L71.748,200.57L72.259,194.08L72.77,188.024L73.281,177.101L73.791,166.643L74.302,158.593L74.813,147.374L75.324,139.344L75.835,140.702L76.345,131.137L76.856,123.025L77.367,123.05L77.878,121.226L78.388,120.912L78.899,127.194L79.41,127.276L79.921,129.156L80.432,139.168L80.942,140.639L81.453,134.325L81.964,132.936L82.475,125.282L82.986,123.66L83.496,126.257L84.007,121.93L84.518,119.415L85.029,122.364L85.54,120.597L86.05,115.956L86.561,117.837L87.072,107.379L87.583,97.342L88.094,99.895L88.604,97.933L89.115,94.776L89.626,95.952L90.137,92.921L90.647,89.752L91.158,93.94L91.669,92.519L92.18,86.406L92.691,82.45L93.201,72.653L93.712,67.722L94.223,67.653L94.734,64L95.245,60L95.755,66.113L96.266,70.716L96.777,73.112L97.288,78.866L97.799,76.734L98.309,73.181L98.82,78.143L99.331,78.407L99.842,78.042L100.353,86.123L100.863,91.016L101.374,95.097L101.885,103.825L102.396,109.278L102.906,106.831L103.417,110.806L103.928,110.315L104.439,112.145L104.95,121L105.46,122.037L105.971,125.125L106.482,134.464L106.993,140.117L107.504,144.192L108.014,151.933L108.525,150.82L109.036,150.16L109.547,154.179L110.058,157.065L110.568,158.254L111.079,161.825L111.59,162.373L112.101,166.385L112.612,173.277L113.122,176.572L113.633,173.334L114.144,175.05L114.655,172.315L115.165,170.347L115.676,171.629L116.187,169.957L116.698,171.736L117.209,176.245L117.719,178.874L118.23,180.918L118.741,184.88L119.252,184.898L119.763,182.823L120.273,188.98L120.784,191.036L121.295,190.005L121.806,192.407L122.317,192.363L122.827,194.413L123.338,199.916L123.849,200.696L124.36,197.652L124.871,196.545L125.381,192.237L125.892,191.866L126.403,194.35L126.914,192.445L127.424,191.269L127.935,195.589L128.446,196.451L128.957,197.117L129.468,199.714L129.978,195.413L130.489,193.596L131,195.74L131.511,194.753L132.022,192.778L132.532,194.69L133.043,194.948L133.554,194.558L134.065,197.96L134.576,199.035L135.086,199.457L135.597,200.519L136.108,198.557L136.619,198.381L137.129,200.142L137.64,198.174L138.151,197.834L138.662,201.249L139.173,206.789L139.683,208.374L140.194,212.77L140.705,212.701L141.216,213.015L141.727,215.04L142.237,215.216L142.748,214.43L143.259,218.348L143.77,218.109L144.281,219.53L144.791,225.806L145.302,227.529L145.813,228.535L146.324,231.434L146.835,231.761L147.345,232.101L147.856,232.126L148.367,233.453L148.878,232.459L149.388,235.384L149.899,234.818L150.41,235.069L150.921,236.547L151.432,234.755L151.942,234.711L152.453,236.025L152.964,234.516L153.475,233.214L153.986,233.107L154.496,230.453L155.007,229.114L155.518,231.177L156.029,231.227L156.54,230.541L157.05,233.484L157.561,232.56L158.072,233.893L158.583,236.572L159.094,236.899L159.604,236.295L160.115,238.44L160.626,237.673L161.137,237.05L161.647,240.169L162.158,239.566L162.669,239.805L163.18,241.974L163.691,240.666L164.201,239.591L164.712,240.767L165.223,239.402L165.734,240.238L166.245,241.515L166.755,240.408L167.266,240.742L167.777,242.609L168.288,243.1L168.799,241.779L169.309,245.483L169.82,247.816L170.331,246.722L170.842,249.451L171.353,248.527L171.863,247.797L172.374,249.313L172.885,247.275L173.396,247.288L173.906,247.307L174.417,244.93L174.928,243.345L175.439,246.823L175.95,243.798L176.46,242.446L176.971,243.641L177.482,242.056L177.993,241.641L178.504,243.32L179.014,241.59L179.525,240.389L180.036,241.433L180.547,238.635L181.058,238.415L181.568,239.805L182.079,239.176L182.59,236.975L183.101,235.365L183.612,231.258L184.122,229.938L184.633,229.938L185.144,228.435L185.655,227.001L186.165,229.994L186.676,228.139L187.187,227.592L187.698,229.957L188.209,228.63L188.719,228.925L189.23,232.78L189.741,232.176L190.252,229.529L190.763,232.988L191.273,232.793L191.784,230.378L192.295,231.296L192.806,228.177L193.317,227.812L193.827,228.472L194.338,226.542L194.849,225.806L195.36,228.139L195.871,227.454L196.381,227.215L196.892,230.032L197.403,231.818L197.914,235.126L198.424,241.546L198.935,242.71L199.446,242.194L199.957,243.892L200.468,244.244L200.978,242.917L201.489,244.634L202,245.118L202.511,244.005L203.022,246.087L203.532,246.961L204.043,246.118L204.554,247.37L205.065,247.118L205.576,247.231L206.086,248.464L206.597,251.011L207.108,253.734L207.619,257.796L208.129,259.299L208.64,262.268L209.151,267.324L209.662,266.204L210.173,266.89L210.683,269.047L211.194,268.323L211.705,269.455L212.216,271.38L212.727,272.153L213.237,274.027L213.748,275.48L214.259,276.876L214.77,277.234L215.281,277.354L215.791,274.631L216.302,272.317L216.813,273.662L217.324,273.681L217.835,274.474L218.345,275.216L218.856,275.48L219.367,276.624L219.878,279.706L220.388,279.14L220.899,278.436L221.41,279.448L221.921,277.555L222.432,278.75L222.942,280.165L223.453,278.958L223.964,278.555L224.475,282.662L224.986,282.504L225.496,282.9L226.007,284.894L226.518,281.574L227.029,280.674L227.54,281.687L228.05,279.97L228.561,280.813L229.072,282.07L229.583,283.177L230.094,284.592L230.604,288.466L231.115,289.805L231.626,287.598L232.137,286.649L232.647,283.919L233.158,283.599L233.669,284.951L234.18,285.007L234.691,284.881L235.201,286.271L235.712,286.869L236.223,287.661L236.734,290.183L237.245,285.982L237.755,282.768L238.266,282.85L238.777,282.599L239.288,283.039L239.799,286.076L240.309,285.812L240.82,287.202L241.331,290.17L241.842,288.749L242.353,284.756L242.863,284.397L243.374,281.165L243.885,280.655L244.396,281.196L244.906,279.398L245.417,280.064L245.928,282.215L246.439,283.334L246.95,284.158L247.46,287.045L247.971,286.089L248.482,286.007L248.993,287.963L249.504,286.68L250.014,287.252L250.525,290.384L251.036,290.849L251.547,291.038L252.058,293.107L252.568,293.245L253.079,291.019L253.59,290.906L254.101,289.755L254.612,289.661L255.122,290.843L255.633,289.868L256.144,290.692L256.655,294.295L257.165,296.691L257.676,299.05L258.187,302.188L258.698,301.955L259.209,301.817L259.719,305.099L260.23,305.653L260.741,307.376L261.252,309.916L261.763,311.985L262.273,313.205L262.784,317.224L263.295,315.954L263.806,313.539L264.317,313.778L264.827,312.463L265.338,310.954L265.849,311.753L266.36,311.269L266.871,314.142L267.381,317.041L267.892,318.576L268.403,318.941L268.914,319.695L269.424,317.243L269.935,317.318L270.446,318.098L270.957,316.488L271.468,315.664L271.978,316.079L272.489,313.243L273,313.47L273.511,314.199L274.022,314.413L274.532,313.004L275.043,312.457L275.554,310.212L276.065,310.193L276.576,311.803L277.086,310.52L277.597,309.112L278.108,311.696L278.619,313.759L279.129,315.853L279.64,318.456L280.151,318.89L280.662,318.261L281.173,320.192L281.683,318.777L282.194,318.431L282.705,321.399L283.216,322.89L283.727,324.393L284.237,327.286L284.748,327.141L285.259,326.877L285.77,328.147L286.281,328.896L286.791,329.996L287.302,332.159L287.813,332.857L288.324,334.04L288.835,335.04L289.345,335.14L289.856,336.486L290.367,337.725L290.878,335.574L291.388,333.423L291.899,334.914L292.41,334.838L292.921,333.285L293.432,332.939L293.942,331.612L294.453,330.663L294.964,330.468L295.475,329.462L295.986,328.103L296.496,328.946L297.007,328.858L297.518,327.355L298.029,326.764L298.54,324.185L299.05,323.487L299.561,325.028L300.072,324.443L300.583,325.556L301.094,325.475L301.604,323.928L302.115,324.953L302.626,324.971L303.137,323.72L303.647,323.978L304.158,325.563L304.669,325.833L305.18,327.078L305.691,328.889L306.201,328.921L306.712,327.499L307.223,326.393L307.734,325.374L308.245,326.141L308.755,327.361L309.266,327.757L309.777,327.562L310.288,327.537L310.799,327.606L311.309,328.286L311.82,328.411L312.331,327.361L312.842,324.449L313.353,325.204L313.863,323.462L314.374,322.959L314.885,324.795L315.396,323.198L315.906,324.374L316.417,326.468L316.928,323.689L317.439,320.764L317.95,319.865L318.46,316.243L318.971,315.086L319.482,314.4L319.993,312.677L320.504,312.206L321.014,313.124L321.525,312.287L322.036,313.809L322.547,314.463L323.058,310.577L323.568,308.891L324.079,308.3L324.59,307.168L325.101,307.948L325.612,308.583L326.122,305.967L326.633,305.552L327.144,305.376L327.655,306.866L328.165,305.54L328.676,303.401L329.187,298.892L329.698,297.358L330.209,296.446L330.719,291.975L331.23,289.969L331.741,291.893L332.252,293.447L332.763,294.151L333.273,296.371L333.784,294.22L334.295,292.264L334.806,293.497L335.317,292.503L335.827,291.635L336.338,291.717L336.849,290.214L337.36,291.918L337.871,294.503L338.381,293.579L338.892,291.874L339.403,293.239L339.914,291.384L340.424,291.151L340.935,292.692L341.446,292.918L341.957,294.811L342.468,296.214L342.978,297.408L343.489,300.949L344,305.024L344.511,303.445L345.022,304.401L345.532,307.615L346.043,309.244L346.554,310.03L347.065,310.96L347.576,311.501L348.086,313.092L348.597,316.237L349.108,316.425L349.619,315.57L350.129,317.538L350.64,316.947L351.151,318.111L351.662,320.846L352.173,320.771L352.683,320.984L353.194,323.72L353.705,325.179L354.216,324.764L354.727,326.21L355.237,323.349L355.748,322.802L356.259,323.965L356.77,325.846L357.281,328.525L357.791,332.122L358.302,334.97L358.813,337.832L359.324,343.158L359.835,346.101L360.345,348.384L360.856,350.472L361.367,352.49L361.878,355.006L362.388,357.113L362.899,358.358L363.41,359.886L363.921,363.244L364.432,364.653L364.942,363.414L365.453,365.225L365.964,365.961L366.475,365.269L366.986,365.898L367.496,367.08L368.007,366.885L368.518,367.841L369.029,368.652L369.54,369.193L370.05,371.941L370.561,372.507L371.072,372.507L371.583,371.117L372.094,368.545L372.604,365.759L373.115,364.571L373.626,362.785L374.137,360.131L374.647,358.666L375.158,357.352L375.669,355.188L376.18,353.427L376.691,351.006L377.201,349.246L377.712,348.252L378.223,346.655L378.734,345.806L379.245,345.391L379.755,347.504L380.266,348.252L380.777,349.459L381.288,349.755L381.799,349.868L382.309,349.793L382.82,349.396L383.331,349.837L383.842,351.384L384.353,351.623L384.863,352.163L385.374,353.446L385.885,353.905L386.396,353.056L386.906,353.843L387.417,354.094L387.928,353.566L388.439,354.05L388.95,354.698L389.46,353.937L389.971,353.151L390.482,353.975L390.993,353.736L391.504,354.679L392.014,354.717L392.525,352.855L393.036,352.522L393.547,351.22L394.058,351.22L394.568,350.881L395.079,350.239L395.59,349.007L396.101,348.812L396.612,348.101L397.122,347.522L397.633,348.843L398.144,347.705L398.655,346.246L399.165,346.711L399.676,345.56L400.187,345.567L400.698,346.07L401.209,347.617L401.719,347.906L402.23,348.51L402.741,348.132L403.252,345.001L403.763,344.844L404.273,343.743L404.784,344.529L405.295,344.535L405.806,344.755L406.317,343.737L406.827,345.057L407.338,346.227L407.849,346.372L408.36,347.441L408.871,346.019L409.381,343.655L409.892,343.756L410.403,342.46L410.914,342.668L411.424,342.951L411.935,341.85L412.446,340.756L412.957,341.9L413.468,341.517L413.978,340.404L414.489,341.794L415,339.548L415.511,339.115L416.022,338.385L416.532,337.266L417.043,336.467L417.554,336.719L418.065,338.09L418.576,337.882L419.086,338.737L419.597,336.605L420.108,334.442L420.619,333.681L421.129,333.952L421.64,331.505L422.151,331.537L422.662,331.719L423.173,331.883L423.683,332.329L424.194,333.901L424.705,333.449L425.216,334.568L425.727,333.706L426.237,333.084L426.748,336.065L427.259,337.586L427.77,337.549L428.281,339.102L428.791,338.75L429.302,338.398L429.813,340.97L430.324,340.825L430.835,338.417L431.345,339.63L431.856,340.24L432.367,339.215L432.878,340.14L433.388,341.139L433.899,341.781L434.41,344.334L434.921,346.441L435.432,347.277L435.942,347.938L436.453,347.887L436.964,347.516L437.475,347.982L437.986,346.856L438.496,347.378L439.007,347.504L439.518,348.34L440.029,348.975L440.54,350.17L441.05,350.793L441.561,349.264L442.072,349.497L442.583,350.032L443.094,350.032L443.604,352.258L444.115,352.692L444.626,352.163L445.137,351.931L445.647,353.786L446.158,353.912L446.669,354.654L447.18,355.283L447.691,355.459L448.201,355.622L448.712,355.251L449.223,354.333L449.734,354.283L450.245,354.138L450.755,353.975L451.266,355.213L451.777,354.591L452.288,352.069L452.799,352.503L453.309,351.918L453.82,352.226L454.331,352.038L454.842,351.164L455.353,350.635L455.863,351.365L456.374,352.031L456.885,351.302L457.396,350.761L457.906,350.201L458.417,348.68L458.928,348.258L459.439,346.894L459.95,345.913L460.46,345.032L460.971,343.045L461.482,341.511L461.993,340.404L462.504,338.781L463.014,338.215L463.525,338.083L464.036,335.844L464.547,335.241L465.058,335.178L465.568,334.43L466.079,334.7L466.59,336.744L467.101,335.071L467.612,332.618L468.122,330.361L468.633,326.864L469.144,324.349L469.655,323.751L470.165,320.639L470.676,316.884L471.187,315.425L471.698,314.205L472.209,312.545L472.719,311.306L473.23,310.558L473.741,308.583L474.252,309.275L474.763,310.809L475.273,311.048L475.784,312.639L476.295,313.753L476.806,314.727L477.317,316.086L477.827,315.268L478.338,314.476L478.849,315.62L479.36,315.425L479.871,314.991L480.381,315.62L480.892,315.639L481.403,315.3L481.914,320.142L482.424,324.041L482.935,327.613L483.446,331.298L483.957,334.461L484.468,335.681L484.978,339.278L485.489,342.907L486,344.73L486.511,346.057L487.022,348.321L487.532,349.22L488.043,351.17L488.554,353.346L489.065,354.566L489.576,354.037L490.086,354.798L490.597,354.509L491.108,354.792L491.619,355.314L492.129,356.188L492.64,357.251L493.151,359.402L493.662,361.313L494.173,362.364L494.683,363.678L495.194,363.829L495.705,364.106L496.216,364.011L496.727,363.571L497.237,363.005L497.748,362.948L498.259,362.716L498.77,362.659L499.281,362.37L499.791,360.691L500.302,359.364L500.813,356.748L501.324,356.698L501.835,356.1L502.345,356.49L502.856,356.974L503.367,356.767L503.878,356.132L504.388,356.207L504.899,355.704L505.41,352.799L505.921,352.17L506.432,352.635L506.942,350.994L507.453,350.761L507.964,350.811L508.475,350.069L508.986,349.786L509.496,349.623L510.007,349.321L510.518,348.315L511.029,347.139L511.54,344.875L512.05,345.158L512.561,345.409L513.072,345.548L513.583,345.202L514.094,346.504L514.604,348.39L515.115,349.629L515.626,352.767L516.137,352.968L516.647,353.56L517.158,354.585L517.669,354.585L518.18,355.943L518.691,356.823L519.201,357.138L519.712,358.402L520.223,362.181L520.734,362.005L521.245,361.571L521.755,362.942L522.266,362.313L522.777,362.603L523.288,363.716L523.799,363.785L524.309,364.156L524.82,365.489L525.331,366.873L525.842,368.659L526.353,371.382L526.863,370.463L527.374,370.268L527.885,371.545L528.396,372.507L528.906,372.507L529.417,372.275L529.928,372.608L530.439,371.495L530.95,371.985L531.46,371.243L531.971,369.319L532.482,368.426L532.993,365.973L533.504,364.911L534.014,365.25L534.525,365.37L535.036,365.137L535.547,365.873L536.058,366.476L536.568,367.074L537.079,367.64L537.59,366.476L538.101,365.357L538.612,365.904L539.122,364.992L539.633,365.244L540.144,365.602L540.655,364.584L541.165,364.389L541.676,365.539L542.187,365.634L542.698,364.439L543.209,363.496L543.719,362.703L544.23,363.018L544.741,362.892L545.252,363.175L545.763,362.754L546.273,363.496L546.784,364.602L547.295,365.489L547.806,367.237L548.317,367.269L548.827,366.483L549.338,366.986L549.849,367.086L550.36,367.244L550.871,367.539L551.381,367.3L551.892,368.155L552.403,369.47L552.914,370.224L553.424,370.652L553.935,372.18L554.446,372.061L554.957,371.771L555.468,372.979L555.978,373.45L556.489,373.312L557,372.57L557.511,372.922L558.022,372.551L558.532,373.488L559.043,373.394L559.554,373.928L560.065,374.387L560.576,374.658L561.086,375.394L561.597,376.375L562.108,376.199L562.619,376.544L563.129,377.746L563.64,378.073L564.151,377.06L564.662,377.331L565.173,376.972L565.683,376.922L566.194,376.419L566.705,376.085L567.216,375.979L567.727,376.45L568.237,375.74L568.748,374.991L569.259,374.626L569.77,373.627L570.281,373.595L570.791,372.671L571.302,372.671L571.813,373.702L572.324,374.224L572.835,375.117L573.345,375.092L573.856,375.167L574.367,374.922L574.878,374.356L575.388,374.079L575.899,371.677L576.41,370.375L576.921,370.099L577.432,369.181L577.942,368.703L578.453,369.199L578.964,368.652L579.475,367.124L579.986,367.596L580.496,366.288L581.007,366.709L581.518,367.218L582.029,366.288L582.54,365.998L583.05,366.156L583.561,366.42L584.072,365.904L584.583,367.049L585.094,366.458L585.604,366.885L586.115,366.803L586.626,366.866L587.137,366.564L587.647,366.59L588.158,366.219L588.669,365.565L589.18,365.439L589.691,365.036L590.201,365.181L590.712,366.841L591.223,367.3L591.734,367.388L592.245,367.671L592.755,367.3L593.266,367.388L593.777,369.036L594.288,369.904L594.799,369.828L595.309,370.86L595.82,370.614L596.331,369.602L596.842,368.558L597.353,366.319L597.863,365.124L598.374,364.653L598.885,364.967L599.396,364.923L599.906,364.911L600.417,364.319L600.928,364.602L601.439,364.697L601.95,363.47L602.46,362.42L602.971,362.533L603.482,362.395L603.993,362.118L604.504,362.873L605.014,362.672L605.525,362.024L606.036,361.339L606.547,361.433L607.058,361.653L607.568,362.508L608.079,362.546L608.59,362.206L609.101,363.37L609.612,362.577L610.122,362.892L610.633,362.986L611.144,362.873L611.655,363.873L612.165,364.898L612.676,365.118L613.187,364.904L613.698,364.854L614.209,363.489L614.719,363.489L615.23,363.942L615.741,362.879L616.252,362.408L616.763,363.143L617.273,362.961L617.784,362.886L618.295,363.47L618.806,363.03L619.317,363.118L619.827,362.206L620.338,362.898L620.849,363.03L621.36,362.653L621.871,362.98L622.381,362.93L622.892,362.728L623.403,360.93L623.914,358.59L624.424,358.955L624.935,357.446L625.446,357.408L625.957,357.521L626.468,356.333L626.978,356.49L627.489,356.823L628,356.477L628.511,356.716L629.022,357.635L629.532,357.458L630.043,357.163L630.554,357.911L631.065,357.622L631.576,357.936L632.086,358.641L632.597,357.452L633.108,356.93L633.619,357.792L634.129,358.062L634.64,359.2L635.151,359.288L635.662,360.351L636.173,361.471L636.683,361.829L637.194,361.534L637.705,362.307L638.216,364.357L638.727,365.892L639.237,366.47L639.748,367.841L640.259,367.678L640.77,368.646L641.281,370.011L641.791,371.218L642.302,371.149L642.813,372.155L643.324,371.834L643.835,372.784L644.345,373.488L644.856,373.023L645.367,373.369L645.878,373.777L646.388,374.501L646.899,375.174L647.41,375.985L647.921,376.809L648.432,377.004L648.942,377.733L649.453,378.085L649.964,378.922L650.475,379.236L650.986,379.431L651.496,378.871L652.007,378.808L652.518,378.148L653.029,378.576L653.54,379.054L654.05,379.657L654.561,380.33L655.072,381.814L655.583,381.494L656.094,382.047L656.604,381.946L657.115,383.443L657.626,383.512L658.137,384.355L658.647,383.77L659.158,384.179L659.669,385.701L660.18,386.292L660.691,386.455L661.201,385.965L661.712,386.059L662.223,386.87L662.734,387.128L663.245,387.506L663.755,387.367L664.266,388.046L664.777,388.204L665.288,388.581L665.799,388.399L666.309,389.669L666.82,390.713L667.331,391.92L667.842,392.04L668.353,392.643L668.863,393.121L669.374,393.323L669.885,393.417L670.396,394.524L670.906,395.077L671.417,395.467L671.928,395.624L672.439,396.027L672.95,396.731L673.46,397.423L673.971,397.322L674.482,397.366L674.993,397.574L675.504,397.699L676.014,398.429L676.525,398.945L677.036,399.265L677.547,399.441L678.058,399.479L678.568,399.794L679.079,399.926L679.59,399.976L680.101,400.246L680.612,400.699L681.122,400.347L681.633,400.328L682.144,400.146L682.655,399.875L683.165,399.309L683.676,398.989L684.187,398.731L684.698,398.353L685.209,398.303L685.719,398.127L686.23,398.039L686.741,397.926L687.252,397.372L687.763,396.567L688.273,396.53L688.784,396.165L689.295,396.354L689.806,396.36L690.317,397.077L690.827,396.775L691.338,395.951L691.849,396.064L692.36,395.624L692.871,395.404L693.381,395.171L693.892,394.932L694.403,394.907L694.914,394.706L695.424,394.555L695.935,394.354L696.446,394.165L696.957,393.756L697.468,393.763L697.978,394.373L698.489,394.115L699,394.203L699.511,394.461L700.022,394.599L700.532,394.794L701.043,395.197L701.554,395.127L702.065,395.492L702.576,396.121L703.086,396.215L703.597,396.794L704.108,396.901L704.619,396.957L705.129,396.945L705.64,397.385L706.151,397.957L706.662,397.92L707.173,398.498L707.683,398.316L708.194,398.114L708.705,398.102L709.216,397.8L709.727,397.46L710.237,397.266L710.748,397.643L711.259,397.731L711.77,397.844L712.281,397.957L712.791,397.787L713.302,398.001L713.813,397.498L714.324,397.611L714.835,397.486L715.345,397.354L715.856,396.806L716.367,396.876L716.878,396.511L717.388,396.108L717.899,396.171L718.41,395.19L718.921,394.649L719.432,394.58L719.942,394.071L720.453,394.071L720.964,394.065L721.475,394.304L721.986,394.266L722.496,394.907L723.007,395.272L723.518,395.215L724.029,395.366L724.54,395.473L725.05,395.53L725.561,394.75L726.072,394.876L726.583,395.039L727.094,395.354L727.604,395.109L728.115,395.14L728.626,395.134L729.137,395.083L729.647,394.832L730.158,394.58L730.669,394.819L731.18,394.964L731.691,395.247L732.201,395.341L732.712,395.656L733.223,396.486L733.734,396.8L734.245,396.461L734.755,396.781L735.266,396.586L735.777,396.825L736.288,396.108L736.799,395.593L737.309,395.329L737.82,395.209L738.331,394.731L738.842,394.668L739.353,394.939L739.863,395.36L740.374,396.121L740.885,396.278L741.396,396.027L741.906,395.813L742.417,396.215L742.928,396.561L743.439,396.869L743.95,397.001L744.46,396.888L744.971,397.165L745.482,397.492L745.993,397.611L746.504,398.247L747.014,398.618L747.525,398.58L748.036,398.762L748.547,398.838L749.058,399.322L749.568,399.605L750.079,399.844L750.59,399.982L751.101,400.397L751.612,400.561L752.122,400.957L752.633,400.793L753.144,400.762L753.655,399.825L754.165,399.152L754.676,399.077L755.187,399.114L755.698,398.957L756.209,399.404L756.719,399.561L757.23,399.322L757.741,398.844L758.252,398.655L758.763,398.347L759.273,398.624L759.784,399.026L760.295,399.014L760.806,398.316L761.317,398.001L761.827,397.863L762.338,397.586L762.849,397.429L763.36,397.184L763.871,396.894L764.381,396.215L764.892,396.36L765.403,396.461L765.914,396.586L766.424,397.02L766.935,397.102L767.446,396.731L767.957,397.385L768.468,398.096L768.978,398.397L769.489,398.674L770,398.945"/>
  </g>
</svg>
