<svg class="plot-d6a7b5" fill="currentColor" font-family="system-ui, sans-serif" font-size="10" text-anchor="middle" width="830" height="470" viewBox="0 0 830 470" xmlns="http://www.w3.org/2000/svg" xmlns:xlink="http://www.w3.org/1999/xlink" color="#1e90ff"><style>:where(.plot-d6a7b5){--plot-background: white;display:block;height:intrinsic;max-width:100%}:where(.plot-d6a7b5 text),:where(.plot-d6a7b5 tspan){white-space:pre}</style><g aria-label="y-grid" stroke="currentColor" stroke-opacity=".1"><line x1="60" x2="770" y1="410" y2="410"/><line x1="60" x2="770" y1="378.557" y2="378.557"/><line x1="60" x2="770" y1="347.114" y2="347.114"/><line x1="60" x2="770" y1="315.671" y2="315.671"/><line x1="60" x2="770" y1="284.227" y2="284.227"/><line x1="60" x2="770" y1="252.784" y2="252.784"/><line x1="60" x2="770" y1="221.341" y2="221.341"/><line x1="60" x2="770" y1="189.898" y2="189.898"/><line x1="60" x2="770" y1="158.455" y2="158.455"/><line x1="60" x2="770" y1="127.012" y2="127.012"/><line x1="60" x2="770" y1="95.568" y2="95.568"/><line x1="60" x2="770" y1="64.125" y2="64.125"/></g><g aria-label="y-axis tick" fill="none" stroke="currentColor"><path transform="translate(60,410)" d="M0,0L-6,0"/><path transform="translate(60,378.55684921661634)" d="M0,0L-6,0"/><path transform="translate(60,347.11369843323274)" d="M0,0L-6,0"/><path transform="translate(60,315.6705476498491)" d="M0,0L-6,0"/><path transform="translate(60,284.2273968664655)" d="M0,0L-6,0"/><path transform="translate(60,252.7842460830818)" d="M0,0L-6,0"/><path transform="translate(60,221.34109529969817)" d="M0,0L-6,0"/><path transform="translate(60,189.8979445163145)" d="M0,0L-6,0"/><path transform="translate(60,158.45479373293085)" d="M0,0L-6,0"/><path transform="translate(60,127.01164294954722)" d="M0,0L-6,0"/><path transform="translate(60,95.56849216616357)" d="M0,0L-6,0"/><path transform="translate(60,64.12534138277994)" d="M0,0L-6,0"/></g><g aria-label="y-axis tick label" text-anchor="end" font-variant="tabular-nums"><text y=".32em" transform="translate(-9,0) translate(60,410)">0</text><text y=".32em" transform="translate(-9,0) translate(60,378.55684921661634)">5,000</text><text y=".32em" transform="translate(-9,0) translate(60,347.11369843323274)">10,000</text><text y=".32em" transform="translate(-9,0) translate(60,315.6705476498491)">15,000</text><text y=".32em" transform="translate(-9,0) translate(60,284.2273968664655)">20,000</text><text y=".32em" transform="translate(-9,0) translate(60,252.7842460830818)">25,000</text><text y=".32em" transform="translate(-9,0) translate(60,221.34109529969817)">30,000</text><text y=".32em" transform="translate(-9,0) translate(60,189.8979445163145)">35,000</text><text y=".32em" transform="translate(-9,0) translate(60,158.45479373293085)">40,000</text><text y=".32em" transform="translate(-9,0) translate(60,127.01164294954722)">45,000</text><text y=".32em" transform="translate(-9,0) translate(60,95.56849216616357)">50,000</text><text y=".32em" transform="translate(-9,0) translate(60,64.12534138277994)">55,000</text></g><g aria-label="y-axis label" text-anchor="start"><text y=".71em" transform="translate(-57,-57) translate(60,60)">↑ Visible Vestiges (30 days)</text></g><g aria-label="x-axis tick" fill="none" stroke="currentColor"><path transform="translate(105.77749683944374,410)" d="M0,0L0,6"/><path transform="translate(228.29962073324907,410)" d="M0,0L0,6"/><path transform="translate(352.16814159292034,410)" d="M0,0L0,6"/><path transform="translate(476.0366624525917,410)" d="M0,0L0,6"/><path transform="translate(598.558786346397,410)" d="M0,0L0,6"/><path transform="translate(721.0809102402022,410)" d="M0,0L0,6"/></g><g aria-label="x-axis tick label" font-variant="tabular-nums"><text transform="translate(0,9) translate(105.77749683944374,410)"><tspan x="0" y=".71em">Apr</tspan><tspan x="0" dy="1em">2023</tspan></text><text y=".71em" transform="translate(0,9) translate(228.29962073324907,410)">Jul</text><text y=".71em" transform="translate(0,9) translate(352.16814159292034,410)">Oct</text><text transform="translate(0,9) translate(476.0366624525917,410)"><tspan x="0" y=".71em">Jan</tspan><tspan x="0" dy="1em">2024</tspan></text><text y=".71em" transform="translate(0,9) translate(598.558786346397,410)">Apr</text><text y=".71em" transform="translate(0,9) translate(721.0809102402022,410)">Jul</text></g><g aria-label="line" fill="none" stroke="currentColor" stroke-width="1.5" stroke-linejoin="round" stroke-linecap="round"><path d="M60,410L60.898,406.843L61.795,395.297L62.693,389.071L63.59,384.657L64.488,377.375L65.386,371.639L66.283,366.263L67.181,355.383L68.078,346.774L68.976,336.555L69.874,320.727L70.771,305.804L71.669,298.056L72.566,286.843L73.464,279.228L74.362,270.499L75.259,259.085L76.157,251.401L77.054,243.867L77.952,233.642L78.85,222.303L79.747,214.273L80.645,200.57L81.542,194.08L82.44,188.024L83.338,177.101L84.235,166.643L85.133,158.593L86.03,147.374L86.928,139.344L87.826,140.702L88.723,131.137L89.621,123.025L90.518,123.05L91.416,121.226L92.314,120.912L93.211,127.194L94.109,127.276L95.006,129.156L95.904,139.168L96.802,140.639L97.699,134.325L98.597,132.936L99.494,125.282L100.392,123.66L101.29,126.257L102.187,121.93L103.085,119.415L103.982,122.364L104.88,120.597L105.777,115.956L106.675,117.837L107.573,107.379L108.47,97.342L109.368,99.895L110.265,97.933L111.163,94.776L112.061,95.952L112.958,92.921L113.856,89.752L114.753,93.94L115.651,92.519L116.549,86.406L117.446,82.45L118.344,72.653L119.241,67.722L120.139,67.653L121.037,64L121.934,60L122.832,66.113L123.729,70.716L124.627,73.112L125.525,78.866L126.422,76.734L127.32,73.181L128.217,78.143L129.115,78.407L130.013,78.042L130.91,86.123L131.808,91.016L132.705,95.097L133.603,103.825L134.501,109.278L135.398,106.831L136.296,110.806L137.193,110.315L138.091,112.145L138.989,121L139.886,122.037L140.784,125.125L141.681,134.464L142.579,140.117L143.477,144.192L144.374,151.933L145.272,150.82L146.169,150.16L147.067,154.179L147.965,157.065L148.862,158.254L149.76,161.825L150.657,162.373L151.555,166.385L152.453,173.277L153.35,176.572L154.248,173.334L155.145,175.05L156.043,172.315L156.941,170.347L157.838,171.629L158.736,169.957L159.633,171.736L160.531,176.245L161.429,178.874L162.326,180.918L163.224,184.88L164.121,184.898L165.019,182.823L165.917,188.98L166.814,191.036L167.712,190.005L168.609,192.407L169.507,192.363L170.405,194.413L171.302,199.916L172.2,200.696L173.097,197.652L173.995,196.545L174.893,192.237L175.79,191.866L176.688,194.35L177.585,192.445L178.483,191.269L179.381,195.589L180.278,196.451L181.176,197.117L182.073,199.714L182.971,195.413L183.869,193.596L184.766,195.74L185.664,194.753L186.561,192.778L187.459,194.69L188.357,194.948L189.254,194.558L190.152,197.96L191.049,199.035L191.947,199.457L192.845,200.519L193.742,198.557L194.64,198.381L195.537,200.142L196.435,198.174L197.332,197.834L198.23,201.249L199.128,206.789L200.025,208.374L200.923,212.77L201.82,212.701L202.718,213.015L203.616,215.04L204.513,215.216L205.411,214.43L206.308,218.348L207.206,218.109L208.104,219.53L209.001,225.806L209.899,227.529L210.796,228.535L211.694,231.434L212.592,231.761L213.489,232.101L214.387,232.126L215.284,233.453L216.182,232.459L217.08,235.384L217.977,234.818L218.875,235.069L219.772,236.547L220.67,234.755L221.568,234.711L222.465,236.025L223.363,234.516L224.26,233.214L225.158,233.107L226.056,230.453L226.953,229.114L227.851,231.177L228.748,231.227L229.646,230.541L230.544,233.484L231.441,232.56L232.339,233.893L233.236,236.572L234.134,236.899L235.032,236.295L235.929,238.44L236.827,237.673L237.724,237.05L238.622,240.169L239.52,239.566L240.417,239.805L241.315,241.974L242.212,240.666L243.11,239.591L244.008,240.767L244.905,239.402L245.803,240.238L246.7,241.515L247.598,240.408L248.496,240.742L249.393,242.609L250.291,243.1L251.188,241.779L252.086,245.483L252.984,247.816L253.881,246.722L254.779,249.451L255.676,248.527L256.574,247.797L257.472,249.313L258.369,247.275L259.267,247.288L260.164,247.307L261.062,244.93L261.96,243.345L262.857,246.823L263.755,243.798L264.652,242.446L265.55,243.641L266.448,242.056L267.345,241.641L268.243,243.32L269.14,241.59L270.038,240.389L270.936,241.433L271.833,238.635L272.731,238.415L273.628,239.805L274.526,239.176L275.424,236.975L276.321,235.365L277.219,231.258L278.116,229.938L279.014,229.938L279.912,228.435L280.809,227.001L281.707,229.994L282.604,228.139L283.502,227.592L284.399,229.957L285.297,228.63L286.195,228.925L287.092,232.78L287.99,232.176L288.887,229.529L289.785,232.988L290.683,232.793L291.58,230.378L292.478,231.296L293.375,228.177L294.273,227.812L295.171,228.472L296.068,226.542L296.966,225.806L297.863,228.139L298.761,227.454L299.659,227.215L300.556,230.032L301.454,231.818L302.351,235.126L303.249,241.546L304.147,242.71L305.044,242.194L305.942,243.892L306.839,244.244L307.737,242.917L308.635,244.634L309.532,245.118L310.43,244.005L311.327,246.087L312.225,246.961L313.123,246.118L314.02,247.37L314.918,247.118L315.815,247.231L316.713,248.464L317.611,251.011L318.508,253.734L319.406,257.796L320.303,259.299L321.201,262.268L322.099,267.324L322.996,266.204L323.894,266.89L324.791,269.047L325.689,268.323L326.587,269.455L327.484,271.38L328.382,272.153L329.279,274.027L330.177,275.48L331.075,276.876L331.972,277.234L332.87,277.354L333.767,274.631L334.665,272.317L335.563,273.662L336.46,273.681L337.358,274.474L338.255,275.216L339.153,275.48L340.051,276.624L340.948,279.706L341.846,279.14L342.743,278.436L343.641,279.448L344.539,277.555L345.436,278.75L346.334,280.165L347.231,278.958L348.129,278.555L349.027,282.662L349.924,282.504L350.822,282.9L351.719,284.894L352.617,281.574L353.515,280.674L354.412,281.687L355.31,279.97L356.207,280.813L357.105,282.07L358.003,283.177L358.9,284.592L359.798,288.466L360.695,289.805L361.593,287.598L362.491,286.649L363.388,283.919L364.286,283.599L365.183,284.951L366.081,285.007L366.979,284.881L367.876,286.271L368.774,286.869L369.671,287.661L370.569,290.183L371.466,285.982L372.364,282.768L373.262,282.85L374.159,282.599L375.057,283.039L375.954,286.076L376.852,285.812L377.75,287.202L378.647,290.17L379.545,288.749L380.442,284.756L381.34,284.397L382.238,281.165L383.135,280.655L384.033,281.196L384.93,279.398L385.828,280.064L386.726,282.215L387.623,283.334L388.521,284.158L389.418,287.045L390.316,286.089L391.214,286.007L392.111,287.963L393.009,286.68L393.906,287.252L394.804,290.384L395.702,290.849L396.599,291.038L397.497,293.107L398.394,293.245L399.292,291.019L400.19,290.906L401.087,289.755L401.985,289.661L402.882,290.843L403.78,289.868L404.678,290.692L405.575,294.295L406.473,296.691L407.37,299.05L408.268,302.188L409.166,301.955L410.063,301.817L410.961,305.099L411.858,305.653L412.756,307.376L413.654,309.916L414.551,311.985L415.449,313.205L416.346,317.224L417.244,315.954L418.142,313.539L419.039,313.778L419.937,312.463L420.834,310.954L421.732,311.753L422.63,311.269L423.527,314.142L424.425,317.041L425.322,318.576L426.22,318.941L427.118,319.695L428.015,317.243L428.913,317.318L429.81,318.098L430.708,316.488L431.606,315.664L432.503,316.079L433.401,313.243L434.298,313.47L435.196,314.199L436.094,314.413L436.991,313.004L437.889,312.457L438.786,310.212L439.684,310.193L440.582,311.803L441.479,310.52L442.377,309.112L443.274,311.696L444.172,313.759L445.07,315.853L445.967,318.456L446.865,318.89L447.762,318.261L448.66,320.192L449.558,318.777L450.455,318.431L451.353,321.399L452.25,322.89L453.148,324.393L454.046,327.286L454.943,327.141L455.841,326.877L456.738,328.147L457.636,328.896L458.534,329.996L459.431,332.159L460.329,332.857L461.226,334.04L462.124,335.04L463.021,335.14L463.919,336.486L464.817,337.725L465.714,335.574L466.612,333.423L467.509,334.914L468.407,334.838L469.305,333.285L470.202,332.939L471.1,331.612L471.997,330.663L472.895,330.468L473.793,329.462L474.69,328.103L475.588,328.946L476.485,328.858L477.383,327.355L478.281,326.764L479.178,324.185L480.076,323.487L480.973,325.028L481.871,324.443L482.769,325.556L483.666,325.475L484.564,323.928L485.461,324.953L486.359,324.971L487.257,323.72L488.154,323.978L489.052,325.563L489.949,325.833L490.847,327.078L491.745,328.889L492.642,328.921L493.54,327.499L494.437,326.393L495.335,325.374L496.233,326.141L497.13,327.361L498.028,327.757L498.925,327.562L499.823,327.537L500.721,327.606L501.618,328.286L502.516,328.411L503.413,327.361L504.311,324.449L505.209,325.204L506.106,323.462L507.004,322.959L507.901,324.795L508.799,323.198L509.697,324.374L510.594,326.468L511.492,323.689L512.389,320.764L513.287,319.865L514.185,316.243L515.082,315.086L515.98,314.4L516.877,312.677L517.775,312.206L518.673,313.124L519.57,312.287L520.468,313.809L521.365,314.463L522.263,310.577L523.161,308.891L524.058,308.3L524.956,307.168L525.853,307.948L526.751,308.583L527.649,305.967L528.546,305.552L529.444,305.376L530.341,306.866L531.239,305.54L532.137,303.401L533.034,298.892L533.932,297.358L534.829,296.446L535.727,291.975L536.625,289.969L537.522,291.893L538.42,293.447L539.317,294.151L540.215,296.371L541.113,294.22L542.01,292.264L542.908,293.497L543.805,292.503L544.703,291.635L545.601,291.717L546.498,290.214L547.396,291.918L548.293,294.503L549.191,293.579L550.088,291.874L550.986,293.239L551.884,291.384L552.781,291.151L553.679,292.692L554.576,292.918L555.474,294.811L556.372,296.214L557.269,297.408L558.167,300.949L559.064,305.024L559.962,303.445L560.86,304.401L561.757,307.615L562.655,309.244L563.552,310.03L564.45,310.96L565.348,311.501L566.245,313.092L567.143,316.237L568.04,316.425L568.938,315.57L569.836,317.538L570.733,316.947L571.631,318.111L572.528,320.846L573.426,320.771L574.324,320.984L575.221,323.72L576.119,325.179L577.016,324.764L577.914,326.21L578.812,323.349L579.709,322.802L580.607,323.965L581.504,325.846L582.402,328.525L583.3,332.122L584.197,334.97L585.095,337.832L585.992,343.158L586.89,346.101L587.788,348.384L588.685,350.472L589.583,352.49L590.48,355.006L591.378,357.113L592.276,358.358L593.173,359.886L594.071,363.244L594.968,364.653L595.866,363.414L596.764,365.225L597.661,365.961L598.559,365.269L599.456,365.898L600.354,367.08L601.252,366.885L602.149,367.841L603.047,368.652L603.944,369.193L604.842,371.941L605.74,372.507L606.637,372.507L607.535,371.117L608.432,368.545L609.33,365.759L610.228,364.571L611.125,362.785L612.023,360.131L612.92,358.666L613.818,357.352L614.716,355.188L615.613,353.427L616.511,351.006L617.408,349.246L618.306,348.252L619.204,346.655L620.101,345.806L620.999,345.391L621.896,347.504L622.794,348.252L623.692,349.459L624.589,349.755L625.487,349.868L626.384,349.793L627.282,349.396L628.18,349.837L629.077,351.384L629.975,351.623L630.872,352.163L631.77,353.446L632.668,353.905L633.565,353.056L634.463,353.843L635.36,354.094L636.258,353.566L637.155,354.05L638.053,354.698L638.951,353.937L639.848,353.151L640.746,353.975L641.643,353.736L642.541,354.679L643.439,354.717L644.336,352.855L645.234,352.522L646.131,351.22L647.029,351.22L647.927,350.881L648.824,350.239L649.722,349.007L650.619,348.812L651.517,348.101L652.415,347.522L653.312,348.843L654.21,347.705L655.107,346.246L656.005,346.711L656.903,345.56L657.8,345.567L658.698,346.07L659.595,347.617L660.493,347.906L661.391,348.51L662.288,348.132L663.186,345.001L664.083,344.844L664.981,343.743L665.879,344.529L666.776,344.535L667.674,344.755L668.571,343.737L669.469,345.057L670.367,346.227L671.264,346.372L672.162,347.441L673.059,346.019L673.957,343.655L674.855,343.756L675.752,342.46L676.65,342.668L677.547,342.951L678.445,341.85L679.343,340.756L680.24,341.9L681.138,341.517L682.035,340.404L682.933,341.794L683.831,339.548L684.728,339.115L685.626,338.385L686.523,337.266L687.421,336.467L688.319,336.719L689.216,338.09L690.114,337.882L691.011,338.737L691.909,336.605L692.807,334.442L693.704,333.681L694.602,333.952L695.499,331.505L696.397,331.537L697.295,331.719L698.192,331.883L699.09,332.329L699.987,333.901L700.885,333.449L701.783,334.568L702.68,333.706L703.578,333.084L704.475,336.065L705.373,337.586L706.271,337.549L707.168,339.102L708.066,338.75L708.963,338.398L709.861,340.97L710.759,340.825L711.656,338.417L712.554,339.63L713.451,340.24L714.349,339.215L715.247,340.14L716.144,341.139L717.042,341.781L717.939,344.334L718.837,346.441L719.735,347.277L720.632,347.938L721.53,347.887L722.427,347.516L723.325,347.982L724.223,346.856L725.12,347.378L726.018,347.504L726.915,348.34L727.813,348.975L728.71,350.17L729.608,350.793L730.506,349.264L731.403,349.497L732.301,350.032L733.198,350.032L734.096,352.258L734.994,352.692L735.891,352.163L736.789,351.931L737.686,353.786L738.584,353.912L739.482,354.654L740.379,355.283L741.277,355.459L742.174,355.622L743.072,355.251L743.97,354.333L744.867,354.283L745.765,354.138L746.662,353.975L747.56,355.213L748.458,354.591L749.355,352.069L750.253,352.503L751.15,351.918L752.048,352.226L752.946,352.038L753.843,351.164L754.741,350.635L755.638,351.365L756.536,352.031L757.434,351.302L758.331,350.761L759.229,350.201L760.126,348.68L761.024,348.258L761.922,346.894L762.819,345.913L763.717,345.032L764.614,343.045L765.512,341.511L766.41,340.404L767.307,338.781L768.205,338.215L769.102,338.083L770,335.844"/></g></svg>