<svg xmlns="http://www.w3.org/2000/svg" width="830" height="564" fill="currentColor" class="plot-d6a7b5" font-family="system-ui, sans-serif" font-size="10" style="--plot-background:white;display:block;height:intrinsic;max-width:100%;color:#1e90ff" text-anchor="middle" viewBox="0 0 830 564">
    <style>
        :where(.plot-d6a7b5 text),:where(.plot-d6a7b5 tspan){white-space:pre}
    </style>
    <path stroke="currentColor" stroke-opacity=".1" d="
M60
410
h710
M60
376.472
h710
M60
342.944
h710
M60
309.416
h710
M60
275.888
h710
M60
242.359
h710
M60
208.831
h710
M60
175.303
h710
M60
141.775
h710
M60
108.247
h710
M60
74.719
h710" aria-hidden="true" aria-label="y-grid"/>
    <path fill="none" stroke="currentColor" d="
M60
410
h-6
m6
-33.528
h-6
m6
-33.528
h-6
m6
-33.528
h-6
m6
-33.528
h-6
m6
-33.528
h-6
m6
-33.529
h-6
m6
-33.528
h-6
m6
-33.528
h-6
m6
-33.528
h-6
m6
-33.528
h-6" aria-hidden="true" aria-label="y-axis tick"/>
    <g aria-label="y-axis tick label" font-variant="tabular-nums" text-anchor="end">
        <text y=".32em" transform="translate(51 410)">0</text>
        <text y=".32em" transform="translate(51 376.472)">2,000</text>
        <text y=".32em" transform="translate(51 342.944)">4,000</text>
        <text y=".32em" transform="translate(51 309.416)">6,000</text>
        <text y=".32em" transform="translate(51 275.888)">8,000</text>
        <text y=".32em" transform="translate(51 242.36)">10,000</text>
        <text y=".32em" transform="translate(51 208.831)">12,000</text>
        <text y=".32em" transform="translate(51 175.303)">14,000</text>
        <text y=".32em" transform="translate(51 141.775)">16,000</text>
        <text y=".32em" transform="translate(51 108.247)">18,000</text>
        <text y=".32em" transform="translate(51 74.719)">20,000</text>
    </g>
    <text y=".71em" aria-label="y-axis label" text-anchor="start" transform="translate(3 3)">↑ Frequency</text>
    <path fill="none" stroke="currentColor" d="
M78.63
410
v6
m62.789
-6
v6
m63.479
-6
v6
m63.479
-6
v6
m62.789
-6
v6
m62.789
-6
v6
m63.479
-6
v6
m63.48
-6
v6
m62.099
-6
v6
m62.789
-6
v6
m63.478
-6
v6" aria-hidden="true" aria-label="x-axis tick"/>
    <g aria-label="x-axis tick label" font-variant="tabular-nums">
        <text transform="translate(78.63 419)"><tspan x="0" y=".71em">Apr</tspan><tspan x="0" dy="1em">2023</tspan></text>
        <text y=".71em" transform="translate(141.419 419)">Jul</text>
        <text y=".71em" transform="translate(204.898 419)">Oct</text>
        <text transform="translate(268.377 419)"><tspan x="0" y=".71em">Jan</tspan><tspan x="0" dy="1em">2024</tspan></text>
        <text y=".71em" transform="translate(331.166 419)">Apr</text>
        <text y=".71em" transform="translate(393.955 419)">Jul</text>
        <text y=".71em" transform="translate(457.434 419)">Oct</text>
        <text transform="translate(520.914 419)"><tspan x="0" y=".71em">Jan</tspan><tspan x="0" dy="1em">2025</tspan></text>
        <text y=".71em" transform="translate(583.013 419)">Apr</text>
        <text y=".71em" transform="translate(645.802 419)">Jul</text>
        <text y=".71em" transform="translate(709.28 419)">Oct</text>
    </g>
    <text aria-label="x-axis label" text-anchor="end" transform="translate(827 467)">timestamp →</text>
    <g aria-label="rect">
        <path fill="#00000f" d="
M60.5
286.197
h3.83
V410
H60.5z
m4.83
2.616
h3.83
V410
h-3.83z
m4.83
10.041
h3.83
V410
h-3.83z
m4.83
-54.198
h3.83
V410
h-3.83z
m4.83
-12.238
h3.83
V410
h-3.83z
m4.83
35.909
h3.83
V410
h-3.83z
m4.83
38.038
h3.83
V410
h-3.83z
m4.83
-2.062
h3.83
V410
h-3.83z
m4.829
12.606
h3.83
V410
h-3.83z
m4.83
6.102
h3.83
V410
h-3.83z
m4.83
6.287
h3.83
V410
h-3.83z
m4.83
-18.91
h3.83
V410
h-3.83z
m4.83
9.572
h3.83
V410
h-3.83z
m4.83
15.054
h3.83
V410
h-3.83z
m4.83
-2.179
h3.83
V410
h-3.83z
m4.83
-7.141
h3.83
V410
h-3.83z
m4.83
12.908
h3.83
V410
h-3.83z
m4.83
16.848
h3.83
V410
h-3.83z
m4.83
-6.555
h3.83
V410
h-3.83z
m4.83
-6.236
h3.83
V410
h-3.83z
m4.83
-13.998
h3.83
V410
h-3.83z
m4.83
-15.926
h3.83
V410
h-3.83z
m4.83
26.739
h3.83
V410
h-3.83z
m4.829
-13.11
h3.83
V410
h-3.83z
m4.83
15.708
h3.83
V410
h-3.83z
m4.83
8.65
h3.83
V410
h-3.83z
m4.83
-4.811
h3.83
V410
h-3.83z
m4.83
4.694
h3.83
V410
h-3.83z
m4.83
-4.878
h3.83
V410
h-3.83z
m4.83
8.851
h3.83
V410
h-3.83z
m4.83
1.71
h3.83
V410
h-3.83z
m4.83
1.911
h3.83
V410
h-3.83z
m4.83
7.007
h3.83
V410
h-3.83z
m4.83
-7.996
h3.83
V410
h-3.83z
m4.83
7.276
h3.83
V410
h-3.83z
m4.83
6.202
h3.83
V410
h-3.83z
m4.83
2.247
h3.83
V410
h-3.83z
m4.829
-8.282
h3.83
V410
h-3.83z
m4.83
-5.314
h3.83
V410
h-3.83z
m4.83
17.2
h3.83
V410
h-3.83z
m4.83
1.358
h3.83
V410
h-3.83z
m4.83
-4.191
h3.83
V410
h-3.83z
m4.83
-1.107
h3.83
V410
h-3.83z
m4.83
8.986
h3.83
V410
h-3.83z
m4.83
4.174
h3.83
V410
h-3.83z
m4.83
-10.494
h3.83
V410
h-3.83z
m4.83
-1.677
h3.83
V410
h-3.83z
m4.83
-12.371
h3.83
V410
h-3.83z
m4.83
5.833
h3.83
V410
h-3.83z
m4.83
-14.618
h3.83
V410
h-3.83z
m4.83
13.076
h3.83
V410
h-3.83z
m4.83
3.353
h3.83
V410
h-3.83z
m4.829
5.867
h3.83
V410
h-3.83z
m4.83
-8.817
h3.83
V410
h-3.83z
m4.83
32.539
h3.83
V410
h-3.83z
m4.83
1.877
h3.83
V410
h-3.83z
m4.83
-20.318
h3.83
V410
h-3.83z
m4.83
9.656
h3.83
V410
h-3.83z
m4.83
.084
h3.83
V410
h-3.83z
m4.83
-2.297
h3.83
V410
h-3.83z
m4.83
-7.745
h3.83
V410
h-3.83z
m4.83
2.297
h3.83
V410
h-3.83z
m4.83
4.007
h3.83
V410
h-3.83z
m4.83
-1.694
h3.83
V410
h-3.83z
m4.83
-9.404
h3.83
V410
h-3.83z
m4.83
9.404
h3.83
V410
h-3.83z
m4.83
-1.106
h3.83
V410
h-3.83z
m4.829
4.577
h3.83
V410
h-3.83z
m4.83
-1.476
h3.83
V410
h-3.83z
m4.83
-8.164
h3.83
V410
h-3.83z
m4.83
9.908
h3.83
V410
h-3.83z
m4.83
-1.425
h3.83
V410
h-3.83z
m4.83
-3.705
h3.83
V410
h-3.83z
m4.83
-3.571
h3.83
V410
h-3.83z
m4.83
.017
h3.83
V410
h-3.83z
m4.83
-2.246
h3.83
V410
h-3.83z
m4.83
.234
h3.83
V410
h-3.83z
m4.83
7.544
h3.83
V410
h-3.83z
m4.83
1.526
h3.83
V410
h-3.83z
m4.83
1.693
h3.83
V410
h-3.83z
m4.83
.084
h3.83
V410
h-3.83z
m4.829
-8.801
h3.83
V410
h-3.83z
m4.83
8.13
h3.83
V410
h-3.83z
m4.83
6.79
h3.83
V410
h-3.83z
m4.83
1.911
h3.83
V410
h-3.83z
m4.83
1.039
h3.83
V410
h-3.83z
m4.83
-5.716
h3.83
V410
h-3.83z
m4.83
1.76
h3.83
V410
h-3.83z
m4.83
1.743
h3.83
V410
h-3.83z
m4.83
-1.894
h3.83
V410
h-3.83z
m4.83
2.196
h3.83
V410
h-3.83z
m4.83
-4.51
h3.83
V410
h-3.83z
m4.83
5.281
h3.83
V410
h-3.83z
m4.83
.872
h3.83
V410
h-3.83z
m4.83
-4.141
h3.83
V410
h-3.83z
m4.83
-15.942
h3.83
V410
h-3.83z
m4.829
13.344
h3.83
V410
h-3.83z
m4.83
-3.051
h3.83
V410
h-3.83z
m4.83
-2.616
h3.83
V410
h-3.83z
m4.83
-1.156
h3.83
V410
h-3.83z
m4.83
2.481
h3.83
V410
h-3.83z
m4.83
6.772
h3.83
V410
h-3.83z
m4.83
-5.247
h3.83
V410
h-3.83z
m4.83
-3.386
h3.83
V410
h-3.83z
m4.83
-3.705
h3.83
V410
h-3.83z
m4.83
10.025
h3.83
V410
h-3.83z
m4.83
9.338
h3.83
V410
h-3.83z
m4.83
-3.806
h3.83
V410
h-3.83z
m4.83
4.946
h3.83
V410
h-3.83z
m4.83
3
h3.83
V410
h-3.83z
m4.83
2.699
h3.83
V410
h-3.83z
m4.829
-1.944
h3.83
V410
h-3.83z
m4.83
3.822
h3.83
V410
h-3.83z
m4.83
-3.604
h3.83
V410
h-3.83z
m4.83
1.441
h3.83
V410
h-3.83z
m4.83
-.72
h3.83
V410
h-3.83z
m4.83
-3.722
h3.83
V410
h-3.83z
m4.83
5.029
h3.83
V410
h-3.83z
m4.83
.252
h3.83
V410
h-3.83z
m4.83
-3.454
h3.83
V410
h-3.83z
m4.83
-1.576
h3.83
V410
h-3.83z
m4.83
-1.056
h3.83
V410
h-3.83z
m4.83
2.934
h3.83
V410
h-3.83z
m4.83
-3.001
h3.83
V410
h-3.83z
m4.83
2.397
h3.83
V410
h-3.83z
m4.829
-.134
h3.83
V410
h-3.83z
m4.83
2.817
h3.83
V410
h-3.83z
m4.83
2.498
h3.83
V410
h-3.83z
m4.83
-3.471
h3.83
V410
h-3.83z
m4.83
1.626
h3.83
V410
h-3.83z
m4.83
-.184
h3.83
V410
h-3.83z
m4.83
1.056
h3.83
V410
h-3.83z
m4.83
-1.81
h3.83
V410
h-3.83z
m4.83
-2.683
h3.83
V410
h-3.83z
m4.83
4.024
h3.83
v2.9
h-3.83z
m4.83
1.743
h3.83
V410
h-3.83z
m4.83
-1.726
h3.83
V410
h-3.83z
m4.83
-1.224
h3.83
V410
h-3.83z
m4.83
2.95
h3.83
V410
h-3.83z
m4.83
-.721
h3.83
V410
h-3.83z
m4.829
-1.911
h3.83
V410
h-3.83z
m4.83
3.387
h3.83
V410
h-3.83z
m4.83
-.956
h3.83
V410
h-3.83z
m4.83
-.637
h3.83
V410
h-3.83z
m4.83
-.419
h3.83
V410
h-3.83z
m4.83
.419
h3.83
V410
h-3.83z
m4.83
-.805
h3.83
v2.8
h-3.83z"/>
        <path fill="#fff" d="
M60.5
265.024
h3.83
v21.173
H60.5z
m4.83
4.141
h3.83
v19.647
h-3.83z
m4.83
6.086
h3.83
v23.604
h-3.83z
m4.83
-67.694
h3.83
v37.099
h-3.83z
m4.83
-7.661
h3.83
v32.522
h-3.83z
m4.83
40.217
h3.83
v28.214
h-3.83z
m4.83
30.108
h3.83
v36.143
h-3.83z
m4.83
10.26
h3.83
v23.822
h-3.83z
m4.829
16.764
h3.83
v19.664
h-3.83z
m4.83
-8.818
h3.83
v34.584
h-3.83z
m4.83
13.981
h3.83
v26.89
h-3.83z
m4.83
-19.781
h3.83
v27.761
h-3.83z
m4.83
6.605
h3.83
v30.729
h-3.83z
m4.83
20.318
h3.83
v25.465
h-3.83z
m4.83
-3.32
h3.83
v26.605
h-3.83z
m4.83
-2.363
h3.83
v21.827
h-3.83z
m4.83
8.851
h3.83
v25.884
h-3.83z
m4.83
21.81
h3.83
v20.922
h-3.83z
m4.83
-11.181
h3.83
v25.548
h-3.83z
m4.83
-3.437
h3.83
v22.749
h-3.83z
m4.83
-18.088
h3.83
v26.839
h-3.83z
m4.83
-12.272
h3.83
v23.185
h-3.83z
m4.83
27.879
h3.83
v22.045
h-3.83z
m4.829
-14.937
h3.83
v23.872
h-3.83z
m4.83
23.252
h3.83
v16.328
h-3.83z
m4.83
4.543
h3.83
v20.435
h-3.83z
m4.83
-.671
h3.83
v16.295
h-3.83z
m4.83
3.504
h3.83
v17.485
h-3.83z
m4.83
-3.034
h3.83
v15.641
h-3.83z
m4.83
11.383
h3.83
v13.109
h-3.83z
m4.83
.352
h3.83
v14.467
h-3.83z
m4.83
-4.912
h3.83
v21.29
h-3.83z
m4.83
10.863
h3.83
v17.435
h-3.83z
m4.83
-4.443
h3.83
v13.881
h-3.83z
m4.83
6.823
h3.83
v14.333
h-3.83z
m4.83
7.159
h3.83
v13.378
h-3.83z
m4.83
6.169
h3.83
v9.455
h-3.83z
m4.829
-15.608
h3.83
v16.781
h-3.83z
m4.83
-4.979
h3.83
v16.446
h-3.83z
m4.83
18.542
h3.83
v15.104
h-3.83z
m4.83
.586
h3.83
v15.876
h-3.83z
m4.83
.704
h3.83
v10.98
h-3.83z
m4.83
-1.374
h3.83
V372.6
h-3.83z
m4.83
3.118
h3.83
v17.116
h-3.83z
m4.83
8.047
h3.83
v13.244
h-3.83z
m4.83
-14.568
h3.83
v17.317
h-3.83z
m4.83
2.062
h3.83
v13.579
h-3.83z
m4.83
-8.097
h3.83
v9.304
h-3.83z
m4.83
1.005
h3.83
v14.132
h-3.83z
m4.83
-16.143
h3.83
v15.658
h-3.83z
m4.83
12.204
h3.83
v16.529
h-3.83z
m4.83
3.772
h3.83
v16.11
h-3.83z
m4.829
4.878
h3.83
v17.099
h-3.83z
m4.83
-.419
h3.83
v8.701
h-3.83z
m4.83
37.35
h3.83
v3.889
h-3.83z
m4.83
-.536
h3.83
v6.303
h-3.83z
m4.83
-23.738
h3.83
v9.723
h-3.83z
m4.83
8.935
h3.83
v10.444
h-3.83z
m4.83
1.492
h3.83
v9.036
h-3.83z
m4.83
-1.944
h3.83
v8.684
h-3.83z
m4.83
-6.17
h3.83
v7.108
h-3.83z
m4.83
-5.28
h3.83
v14.685
h-3.83z
m4.83
7.711
h3.83
v10.98
h-3.83z
m4.83
-1.894
h3.83
v11.182
h-3.83z
m4.83
-10.427
h3.83
v12.204
h-3.83z
m4.83
6.135
h3.83
v15.473
h-3.83z
m4.83
3.387
h3.83
v10.98
h-3.83z
m4.829
2.833
h3.83
v12.724
h-3.83z
m4.83
3.386
h3.83
v7.862
h-3.83z
m4.83
-6.488
h3.83
v6.186
h-3.83z
m4.83
11.618
h3.83
v4.476
h-3.83z
m4.83
-1.894
h3.83
v4.945
h-3.83z
m4.83
-8.852
h3.83
v10.092
h-3.83z
m4.83
-12.104
h3.83
v18.625
h-3.83z
m4.83
.621
h3.83
v18.021
h-3.83z
m4.83
-10.193
h3.83
v25.968
h-3.83z
m4.83
17.418
h3.83
v8.784
h-3.83z
m4.83
8.131
h3.83
v8.198
h-3.83z
m4.83
3.369
h3.83
v6.354
h-3.83z
m4.83
.335
h3.83
v7.711
h-3.83z
m4.83
-.754
h3.83
v8.55
h-3.83z
m4.829
-9.723
h3.83
v9.472
h-3.83z
m4.83
9.237
h3.83
v8.365
h-3.83z
m4.83
8.365
h3.83
v6.789
h-3.83z
m4.83
-4.107
h3.83
v12.808
h-3.83z
m4.83
7.561
h3.83
v6.287
h-3.83z
m4.83
-8.366
h3.83
v8.935
h-3.83z
m4.83
-1.207
h3.83
v11.902
h-3.83z
m4.83
6.572
h3.83
v7.074
h-3.83z
m4.83
-4.325
h3.83
v9.505
h-3.83z
m4.83
6.487
h3.83
v5.214
h-3.83z
m4.83
-2.514
h3.83
v3.219
h-3.83z
m4.83
4.073
h3.83
v4.426
h-3.83z
m4.83
.57
h3.83
v4.727
h-3.83z
m4.83
-7.409
h3.83
v7.996
h-3.83z
m4.83
-19.296
h3.83
v11.349
h-3.83z
m4.829
18.038
h3.83
v6.655
h-3.83z
m4.83
-.553
h3.83
v4.157
h-3.83z
m4.83
-2.984
h3.83
v4.526
h-3.83z
m4.83
-1.458
h3.83
v4.828
h-3.83z
m4.83
.62
h3.83
v6.689
h-3.83z
m4.83
8.348
h3.83
v5.113
h-3.83z
m4.83
-7.728
h3.83
v7.594
h-3.83z
m4.83
-2.581
h3.83
v6.789
h-3.83z
m4.83
-2.834
h3.83
v5.918
h-3.83z
m4.83
11.149
h3.83
v4.795
h-3.83z
m4.83
8.75
h3.83
v5.381
h-3.83z
m4.83
-3.738
h3.83
v5.314
h-3.83z
m4.83
5.096
h3.83
v5.163
h-3.83z
m4.83
5.113
h3.83
v3.051
h-3.83z
m4.83
-1.207
h3.83
v6.957
h-3.83z
m4.829
3.957
h3.83
v1.056
h-3.83z
m4.83
1.978
h3.83
v2.9
h-3.83z
m4.83
-2.9
h3.83
v2.196
h-3.83z
m4.83
2.564
h3.83
v1.073
h-3.83z
m4.83
-3.805
h3.83
v4.157
h-3.83z
m4.83
-2.682
h3.83
v3.118
h-3.83z
m4.83
5.431
h3.83
v2.716
h-3.83z
m4.83
2.347
h3.83
v.62
h-3.83z
m4.83
-4.057
h3.83
v1.224
h-3.83z
m4.83
-2.246
h3.83
v1.894
h-3.83z
m4.83
-.318
h3.83
v1.157
h-3.83z
m4.83
3.118
h3.83
v.972
h-3.83z
m4.83
-4.627
h3.83
v2.598
h-3.83z
m4.83
3.788
h3.83
v1.207
h-3.83z
m4.829
-2.732
h3.83
v3.805
h-3.83z
m4.83
5.683
h3.83
v.939
h-3.83z
m4.83
2.196
h3.83
v1.241
h-3.83z
m4.83
-4.023
h3.83
v1.794
h-3.83z
m4.83
2.112
h3.83
v1.308
h-3.83z
m4.83
-1.157
h3.83
v2.28
h-3.83z
m4.83
2.733
h3.83
v.604
h-3.83z
m4.83
-2.28
h3.83
v1.073
h-3.83z
m4.83
-3.085
h3.83
v1.475
h-3.83z
m4.83
5.197
h3.83
v.302
h-3.83z
m4.83
1.425
h3.83
v.62
h-3.83z
m4.83
-3.051
h3.83
v1.945
h-3.83z
m4.83
-.017
h3.83
v.738
h-3.83z
m4.83
3.269
h3.83
v.419
h-3.83z
m4.83
-1.039
h3.83
v.738
h-3.83z
m4.829
-1.475
h3.83
v.302
h-3.83z
m4.83
3.084
h3.83
v.604
h-3.83z
m4.83
-.637
h3.83
v.285
h-3.83z
m4.83
-.788
h3.83
v.436
h-3.83z
m4.83
-1.643
h3.83
v1.66
h-3.83z
m4.83
1.425
h3.83
v.654
h-3.83z
m4.83
-3.906
h3.83
v3.755
h-3.83z"/>
        <path fill="#ff7373" d="
M60.5
241.856
h3.83
v17.25
H60.5z
m4.83
-2.615
h3.83
v22.849
h-3.83z
m4.83
12.137
h3.83
v20.737
h-3.83z
m4.83
-66.15
h3.83
v17.116
h-3.83z
m4.83
-14.468
h3.83
v22.665
h-3.83z
m4.83
52.455
h3.83
v13.646
h-3.83z
m4.83
29.37
h3.83
v13.747
h-3.83z
m4.83
9.187
h3.83
v12.255
h-3.83z
m4.829
20.033
h3.83
v11.852
h-3.83z
m4.83
-11.684
h3.83
v14.317
h-3.83z
m4.83
16.646
h3.83
v11.215
h-3.83z
m4.83
-17.501
h3.83
v9.505
h-3.83z
m4.83
5.616
h3.83
v11.55
h-3.83z
m4.83
20.016
h3.83
v12.003
h-3.83z
m4.83
-5.448
h3.83
v14.199
h-3.83z
m4.83
1.408
h3.83
v10.343
h-3.83z
m4.83
6.722
h3.83
v12.741
h-3.83z
m4.83
20.637
h3.83
v11.534
h-3.83z
m4.83
-9.371
h3.83
v11.668
h-3.83z
m4.83
-.637
h3.83
v9.857
h-3.83z
m4.83
-15.373
h3.83
v6.504
h-3.83z
m4.83
-15.725
h3.83
v9.405
h-3.83z
m4.83
26.823
h3.83
v10.394
h-3.83z
m4.829
-19.48
h3.83
v13.277
h-3.83z
m4.83
22.095
h3.83
v15.373
h-3.83z
m4.83
11.852
h3.83
v8.935
h-3.83z
m4.83
1.895
h3.83
v6.84
h-3.83z
m4.83
5.347
h3.83
v5.499
h-3.83z
m4.83
-5.867
h3.83
v7.879
h-3.83z
m4.83
11.718
h3.83
v6.974
h-3.83z
m4.83
-.117
h3.83
v7.611
h-3.83z
m4.83
-6.035
h3.83
v9.321
h-3.83z
m4.83
12.723
h3.83
v7.158
h-3.83z
m4.83
-3.989
h3.83
v7.41
h-3.83z
m4.83
5.901
h3.83
v8.935
h-3.83z
m4.83
9.589
h3.83
v4.878
h-3.83z
m4.83
7.594
h3.83
v4.996
h-3.83z
m4.829
-15.909
h3.83
v4.275
h-3.83z
m4.83
-6.991
h3.83
v4.375
h-3.83z
m4.83
21.844
h3.83
v4.157
h-3.83z
m4.83
1.575
h3.83
v2.565
h-3.83z
m4.83
-1.978
h3.83
v3.655
h-3.83z
m4.83
-6.001
h3.83
v7.359
h-3.83z
m4.83
7.795
h3.83
v4.577
h-3.83z
m4.83
10.276
h3.83
v3.386
h-3.83z
m4.83
-18.977
h3.83
v5.834
h-3.83z
m4.83
2.364
h3.83
v5.599
h-3.83z
m4.83
-8.55
h3.83
v4.828
h-3.83z
m4.83
-1.927
h3.83
v8.499
h-3.83z
m4.83
-17.234
h3.83
v9.79
h-3.83z
m4.83
15.591
h3.83
v6.203
h-3.83z
m4.83
6.739
h3.83
v5.867
h-3.83z
m4.829
4.124
h3.83
v6.789
h-3.83z
m4.83
-2.062
h3.83
v6.722
h-3.83z
m4.83
44.022
h3.83
v2.263
h-3.83z
m4.83
-2.481
h3.83
v4.174
h-3.83z
m4.83
-28.65
h3.83
v9.069
h-3.83z
m4.83
10.981
h3.83
v6.337
h-3.83z
m4.83
4.895
h3.83
v3.487
h-3.83z
m4.83
-5.499
h3.83
v6.488
h-3.83z
m4.83
-4.962
h3.83
v4.09
h-3.83z
m4.83
-4.14
h3.83
v4.409
h-3.83z
m4.83
4.727
h3.83
v7.242
h-3.83z
m4.83
.637
h3.83
v5.331
h-3.83z
m4.83
-13.914
h3.83
v7.98
h-3.83z
m4.83
7.862
h3.83
v6.102
h-3.83z
m4.83
1.358
h3.83
v5.968
h-3.83z
m4.829
7.527
h3.83
v3.202
h-3.83z
m4.83
-1.676
h3.83
v7.795
h-3.83z
m4.83
-.47
h3.83
v3.085
h-3.83z
m4.83
12.171
h3.83
v2.498
h-3.83z
m4.83
-4.878
h3.83
v5.297
h-3.83z
m4.83
-7.863
h3.83
v4.51
h-3.83z
m4.83
-14.249
h3.83
v6.722
h-3.83z
m4.83
-1.19
h3.83
v7.678
h-3.83z
m4.83
-13.277
h3.83
v8.633
h-3.83z
m4.83
24.291
h3.83
v3.889
h-3.83z
m4.83
9.941
h3.83
v2.665
h-3.83z
m4.83
3.654
h3.83
v2.33
h-3.83z
m4.83
1.911
h3.83
v.922
h-3.83z
m4.83
-1.642
h3.83
v2.464
h-3.83z
m4.829
-11.886
h3.83
v3.286
h-3.83z
m4.83
9.689
h3.83
v3.303
h-3.83z
m4.83
8.986
h3.83
v3.101
h-3.83z
m4.83
-1.961
h3.83
v1.224
h-3.83z
m4.83
5.85
h3.83
v2.867
h-3.83z
m4.83
-9.203
h3.83
v3.554
h-3.83z
m4.83
-2.431
h3.83
v4.811
h-3.83z
m4.83
7.527
h3.83
v3.805
h-3.83z
m4.83
-3.973
h3.83
v3.235
h-3.83z
m4.83
7.929
h3.83
v2.062
h-3.83z
m4.83
-2.078
h3.83
v1.241
h-3.83z
m4.83
.771
h3.83
v4.342
h-3.83z
m4.83
1.14
h3.83
v4.292
h-3.83z
m4.83
-4.242
h3.83
v1.492
h-3.83z
m4.83
-19.412
h3.83
v1.157
h-3.83z
m4.829
17.049
h3.83
v1.358
h-3.83z
m4.83
.151
h3.83
v1.777
h-3.83z
m4.83
-3.487
h3.83
v2.33
h-3.83z
m4.83
-.419
h3.83
v1.593
h-3.83z
m4.83
-1.107
h3.83
v2.984
h-3.83z
m4.83
8.449
h3.83
v2.582
h-3.83z
m4.83
-7.728
h3.83
v2.598
h-3.83z
m4.83
-5.147
h3.83
v1.291
h-3.83z
m4.83
-2.028
h3.83
v3.185
h-3.83z
m4.83
12.791
h3.83
v2.582
h-3.83z
m4.83
7.929
h3.83
v3.94
h-3.83z
m4.83
-3.017
h3.83
v3.085
h-3.83z
m9.66
13.243
h3.83
v.469
h-3.83z
m4.83
-1.76
h3.83
v.888
h-3.83z
m4.829
3.722
h3.83
v1.207
h-3.83z
m4.83
2.883
h3.83
v.369
h-3.83z
m4.83
-2.9
h3.83
v.386
h-3.83z
m4.83
2.548
h3.83
v.017
h-3.83z
m4.83
-5.817
h3.83
v1.878
h-3.83z
m4.83
-.704
h3.83
v.402
h-3.83z
m4.83
4.979
h3.83
v.436
h-3.83z
m4.83
2.364
h3.83
v.872
h-3.83z
m4.83
-3.906
h3.83
v.687
h-3.83z
m4.83
-2.113
h3.83
v.05
h-3.83z
m4.83
-.134
h3.83
v.352
h-3.83z
m4.83
1.928
h3.83
v1.308
h-3.83z
m4.83
-3.152
h3.83
v.084
h-3.83z
m4.83
3.336
h3.83
v.402
h-3.83z
m9.659
2.984
h3.83
v.268
h-3.83z
m4.83
2.498
h3.83
v.218
h-3.83z
m4.83
-4.593
h3.83
v.268
h-3.83z
m4.83
1.894
h3.83
v.704
h-3.83z
m4.83
-1.643
h3.83
v1.475
h-3.83z
m4.83
4.158
h3.83
v.084
h-3.83z
m4.83
-2.33
h3.83
v.117
h-3.83z
m4.83
-3.521
h3.83
v.553
h-3.83z
m9.66
6.186
h3.83
v.654
h-3.83z
m9.66
-2.297
h3.83
v.117
h-3.83z
m4.83
1.61
h3.83
v1.509
h-3.83z
m4.83
.62
h3.83
v.034
h-3.83z
m4.829
-2.196
h3.83
v.956
h-3.83z
m4.83
3.638
h3.83
v.168
h-3.83z
m4.83
-.688
h3.83
v.251
h-3.83z
m4.83
-.519
h3.83
v.101
h-3.83z
m4.83
-1.66
h3.83
v.201
h-3.83z
m4.83
1.392
h3.83
v.218
h-3.83z
m4.83
-3.906
h3.83
v.034
h-3.83z"/>
        <path fill="#4f2d68" d="
M60.5
147.592
h3.83
v30.41
H60.5z
m4.83
-3.168
h3.83
v30.963
h-3.83z
m4.83
25.096
h3.83
v23.838
h-3.83z
m4.83
-76.78
h3.83
v27.376
h-3.83z
m4.83
-20.62
h3.83
v26.605
h-3.83z
m4.83
57.417
h3.83
v31.231
h-3.83z
m4.83
45.414
h3.83
v25.28
h-3.83z
m4.83
9.807
h3.83
v25.599
h-3.83z
m4.829
23.637
h3.83
v23.269
h-3.83z
m4.83
-3.755
h3.83
v24.71
h-3.83z
m4.83
22.28
h3.83
v16.982
h-3.83z
m4.83
-25.8
h3.83
v22.548
h-3.83z
m4.83
21.123
h3.83
v19.849
h-3.83z
m4.83
23.117
h3.83
v17.753
h-3.83z
m4.83
2.23
h3.83
v11.668
h-3.83z
m4.83
2.414
h3.83
v10.679
h-3.83z
m4.83
-11.484
h3.83
v17.669
h-3.83z
m4.83
34.099
h3.83
v13.378
h-3.83z
m4.83
-18.726
h3.83
v15.171
h-3.83z
m4.83
8.265
h3.83
v11.567
h-3.83z
m4.83
-16.01
h3.83
v11.232
h-3.83z
m4.83
-16.228
h3.83
v12.07
h-3.83z
m4.83
22.699
h3.83
v20.318
h-3.83z
m4.829
-14.803
h3.83
v7.728
h-3.83z
m4.83
25.8
h3.83
v9.405
h-3.83z
m4.83
12.892
h3.83
v9.321
h-3.83z
m4.83
7.963
h3.83
v8.935
h-3.83z
m4.83
5.683
h3.83
v12.12
h-3.83z
m4.83
-4.443
h3.83
v12.12
h-3.83z
m4.83
15.272
h3.83
v6.706
h-3.83z
m4.83
-3.47
h3.83
v11.182
h-3.83z
m4.83
-8.818
h3.83
v10.528
h-3.83z
m4.83
8.986
h3.83
v15.188
h-3.83z
m4.83
1.006
h3.83
v10.83
h-3.83z
m4.83
7.242
h3.83
v15.574
h-3.83z
m4.83
17.719
h3.83
v13.193
h-3.83z
m4.83
10.511
h3.83
v6.706
h-3.83z
m4.829
-18.507
h3.83
v6.085
h-3.83z
m4.83
-2.498
h3.83
v8.399
h-3.83z
m4.83
26.705
h3.83
v5.197
h-3.83z
m4.83
3.487
h3.83
v4.409
h-3.83z
m4.83
-4.979
h3.83
v4.644
h-3.83z
m4.83
-13.864
h3.83
v6.588
h-3.83z
m4.83
9.019
h3.83
v12.003
h-3.83z
m4.83
11.165
h3.83
v9.421
h-3.83z
m4.83
-19.111
h3.83
v8.566
h-3.83z
m4.83
-5.767
h3.83
v10.276
h-3.83z
m4.83
-4.945
h3.83
v10.427
h-3.83z
m4.83
-9.824
h3.83
v9.002
h-3.83z
m4.83
-15.356
h3.83
v12.875
h-3.83z
m4.83
19.715
h3.83
v12.221
h-3.83z
m4.83
15.339
h3.83
v6.672
h-3.83z
m4.829
11.668
h3.83
v4.945
h-3.83z
m4.83
.536
h3.83
v2.833
h-3.83z
m4.83
50.795
h3.83
v1.475
h-3.83z
m4.83
-5.297
h3.83
v2.967
h-3.83z
m4.83
-35.423
h3.83
v5.147
h-3.83z
m4.83
5.533
h3.83
v4.711
h-3.83z
m4.83
13.511
h3.83
v3.085
h-3.83z
m4.83
-13.377
h3.83
v6.789
h-3.83z
m4.83
-1.375
h3.83
v5.784
h-3.83z
m4.83
-1.458
h3.83
v3.621
h-3.83z
m4.83
.184
h3.83
v3.135
h-3.83z
m4.83
-.335
h3.83
v4.862
h-3.83z
m4.83
-14.283
h3.83
v8.449
h-3.83z
m4.83
5.381
h3.83
v5.566
h-3.83z
m4.83
-2.783
h3.83
v6.789
h-3.83z
m4.829
16.446
h3.83
v2.749
h-3.83z
m4.83
-.201
h3.83
v2.112
h-3.83z
m4.83
-1.643
h3.83
v3.051
h-3.83z
m4.83
11.466
h3.83
v3.705
h-3.83z
m4.83
-7.56
h3.83
v4.325
h-3.83z
m4.83
-7.678
h3.83
v5.867
h-3.83z
m4.83
-15.457
h3.83
v5.063
h-3.83z
m4.83
-5.163
h3.83
v5.029
h-3.83z
m4.83
-29.404
h3.83
v9.908
h-3.83z
m4.83
41.457
h3.83
v4.912
h-3.83z
m4.83
18.558
h3.83
v7.695
h-3.83z
m4.83
6.991
h3.83
v2.582
h-3.83z
m4.83
1.173
h3.83
v2.934
h-3.83z
m4.83
-5.515
h3.83
v4.141
h-3.83z
m4.829
-16.747
h3.83
v4.342
h-3.83z
m4.83
11.919
h3.83
v7.494
h-3.83z
m4.83
7.996
h3.83
v4.979
h-3.83z
m4.83
6.706
h3.83
v3.37
h-3.83z
m4.83
4.778
h3.83
v3.47
h-3.83z
m4.83
-5.65
h3.83
v1.76
h-3.83z
m4.83
-8.013
h3.83
v5.297
h-3.83z
m4.83
9.052
h3.83
v5.733
h-3.83z
m4.83
-2.296
h3.83
v3.386
h-3.83z
m4.83
7.678
h3.83
v4.141
h-3.83z
m4.83
1.324
h3.83
v2.649
h-3.83z
m4.83
-1.14
h3.83
v3.286
h-3.83z
m4.83
.721
h3.83
v2.967
h-3.83z
m4.83
-.268
h3.83
v1.978
h-3.83z
m4.83
-22.598
h3.83
v1.408
h-3.83z
m4.829
20.905
h3.83
v2.112
h-3.83z
m4.83
-4.51
h3.83
v3.705
h-3.83z
m4.83
-2.364
h3.83
v3.755
h-3.83z
m4.83
-7.745
h3.83
v4.258
h-3.83z
m4.83
2.264
h3.83
v2.917
h-3.83z
m4.83
6.923
h3.83
v3.688
h-3.83z
m4.83
-5.716
h3.83
v4.677
h-3.83z
m4.83
-.621
h3.83
v2.515
h-3.83z
m4.83
-11.852
h3.83
v3.001
h-3.83z
m4.83
17.234
h3.83
v4.292
h-3.83z
m4.83
11.265
h3.83
v2.196
h-3.83z
m4.83
-4.593
h3.83
v4.208
h-3.83z
m9.66
10.444
h3.83
v.319
h-3.83z
m4.83
1.944
h3.83
v1.157
h-3.83z
m4.829
6.002
h3.83
v1.861
h-3.83z
m4.83
7.694
h3.83
v.034
h-3.83z
m4.83
-3.503
h3.83
v.117
h-3.83z
m4.83
2.33
h3.83
v.503
h-3.83z
m4.83
-5.985
h3.83
v.319
h-3.83z
m4.83
-1.257
h3.83
v1.66
h-3.83z
m4.83
2.313
h3.83
v.486
h-3.83z
m4.83
4.661
h3.83
v2.565
h-3.83z
m4.83
-2.029
h3.83
v.134
h-3.83z
m4.83
-3.755
h3.83
v.989
h-3.83z
m4.83
-1.442
h3.83
v.285
h-3.83z
m4.83
5.616
h3.83
v.134
h-3.83z
m4.83
-5.062
h3.83
v.218
h-3.83z
m4.83
4.727
h3.83
v.168
h-3.83z
m4.829
-3.504
h3.83
v1.157
h-3.83z
m4.83
6.958
h3.83
v.62
h-3.83z
m4.83
1.005
h3.83
v.235
h-3.83z
m4.83
-7.678
h3.83
v1.509
h-3.83z
m4.83
4.476
h3.83
v1.358
h-3.83z
m4.83
.285
h3.83
v.419
h-3.83z
m4.83
2.683
h3.83
v.436
h-3.83z
m4.83
.117
h3.83
v.101
h-3.83z
m4.83
-8.147
h3.83
v.05
h-3.83z
m9.66
7.761
h3.83
v.754
h-3.83z
m4.83
-1.626
h3.83
v.386
h-3.83z
m4.83
1.409
h3.83
v.369
h-3.83z
m4.83
2.145
h3.83
v.302
h-3.83z
m4.83
.084
h3.83
v.62
h-3.83z
m4.829
-3.369
h3.83
v.285
h-3.83z
m4.83
3.554
h3.83
v.067
h-3.83z
m4.83
-.319
h3.83
v.201
h-3.83z
m4.83
-.671
h3.83
v.503
h-3.83z
m9.66
-.519
h3.83
v.402
h-3.83z
m4.83
-2.012
h3.83
v.352
h-3.83z"/>
        <path fill="#ffff73" d="
M60.5
259.107
h3.83
v5.918
H60.5z
m4.83
2.984
h3.83
v7.074
h-3.83z
m4.83
10.025
h3.83
v3.135
h-3.83z
m4.83
-69.772
h3.83
v5.214
h-3.83z
m4.83
-8.919
h3.83
v6.471
h-3.83z
m4.83
43.436
h3.83
v3.252
h-3.83z
m4.83
29.471
h3.83
v3.889
h-3.83z
m4.83
7.695
h3.83
v6.454
h-3.83z
m4.829
19.63
h3.83
v3.588
h-3.83z
m4.83
-9.22
h3.83
v3.99
h-3.83z
m4.83
13.546
h3.83
v4.426
h-3.83z
m4.83
-19.212
h3.83
v3.856
h-3.83z
m4.83
7.661
h3.83
v2.8
h-3.83z
m4.83
20.469
h3.83
v2.649
h-3.83z
m4.83
-3.252
h3.83
v2.582
h-3.83z
m4.83
-2.448
h3.83
v2.665
h-3.83z
m4.83
9.12
h3.83
v2.397
h-3.83z
m4.83
19.429
h3.83
v4.778
h-3.83z
m4.83
-9.237
h3.83
v2.833
h-3.83z
m4.83
-2.447
h3.83
v1.844
h-3.83z
m4.83
-18.726
h3.83
v2.481
h-3.83z
m4.83
-12.824
h3.83
v3.034
h-3.83z
m4.83
27.812
h3.83
v3.101
h-3.83z
m4.829
-16.597
h3.83
v4.761
h-3.83z
m4.83
24.191
h3.83
v3.822
h-3.83z
m4.83
5.414
h3.83
v2.95
h-3.83z
m4.83
-.201
h3.83
v2.481
h-3.83z
m4.83
4.007
h3.83
v1.978
h-3.83z
m4.83
-3.487
h3.83
v2.431
h-3.83z
m4.83
10.813
h3.83
v3.001
h-3.83z
m4.83
.519
h3.83
v2.833
h-3.83z
m4.83
-4.325
h3.83
v2.246
h-3.83z
m4.83
10.562
h3.83
v2.548
h-3.83z
m4.83
-3.739
h3.83
v1.844
h-3.83z
m4.83
7.427
h3.83
v1.241
h-3.83z
m4.83
5.532
h3.83
v2.867
h-3.83z
m4.83
7.711
h3.83
v1.324
h-3.83z
m4.829
-16.63
h3.83
v2.347
h-3.83z
m4.83
-6.89
h3.83
v4.258
h-3.83z
m4.83
21.626
h3.83
v1.173
h-3.83z
m4.83
-.017
h3.83
v1.777
h-3.83z
m4.83
-.888
h3.83
v3.37
h-3.83z
m4.83
-2.297
h3.83
v4.292
h-3.83z
m4.83
5.013
h3.83
v2.397
h-3.83z
m4.83
9.086
h3.83
v1.358
h-3.83z
m4.83
-16.53
h3.83
v3.319
h-3.83z
m4.83
2.129
h3.83
v3.252
h-3.83z
m4.83
-9.32
h3.83
v4.476
h-3.83z
m4.83
1.743
h3.83
v3.738
h-3.83z
m4.83
-15.943
h3.83
v3.537
h-3.83z
m4.83
12.003
h3.83
v3.738
h-3.83z
m4.83
6.404
h3.83
v1.106
h-3.83z
m4.829
5.046
h3.83
v.939
h-3.83z
m4.83
-2.129
h3.83
v2.649
h-3.83z
m4.83
39.563
h3.83
v.436
h-3.83z
m4.83
-.57
h3.83
v.469
h-3.83z
m4.83
-23.754
h3.83
v.486
h-3.83z
m4.83
8.248
h3.83
v1.173
h-3.83z
m4.83
2.045
h3.83
v.62
h-3.83z
m4.83
-2.498
h3.83
v1.173
h-3.83z
m4.83
-7.359
h3.83
v2.364
h-3.83z
m4.83
-3.823
h3.83
v.905
h-3.83z
m4.83
7.561
h3.83
v1.056
h-3.83z
m4.83
-1.274
h3.83
v.436
h-3.83z
m4.83
-11.265
h3.83
v1.274
h-3.83z
m4.83
5.984
h3.83
v1.425
h-3.83z
m4.83
1.224
h3.83
v3.588
h-3.83z
m4.829
4.761
h3.83
v1.66
h-3.83z
m4.83
2.917
h3.83
v2.129
h-3.83z
m4.83
-5.18
h3.83
v.821
h-3.83z
m4.83
11.584
h3.83
v.855
h-3.83z
m4.83
-2.079
h3.83
v1.039
h-3.83z
m4.83
-8.65
h3.83
v.838
h-3.83z
m4.83
-12.037
h3.83
v.771
h-3.83z
m4.83
-.234
h3.83
v1.626
h-3.83z
m4.83
-12.322
h3.83
v3.755
h-3.83z
m4.83
19.547
h3.83
v1.626
h-3.83z
m4.83
8.717
h3.83
v1.039
h-3.83z
m4.83
3.319
h3.83
v1.09
h-3.83z
m4.83
.503
h3.83
v.922
h-3.83z
m4.83
-.1
h3.83
v.268
h-3.83z
m4.829
-11.064
h3.83
v1.609
h-3.83z
m4.83
9.706
h3.83
v1.14
h-3.83z
m4.83
8.784
h3.83
v.721
h-3.83z
m4.83
-3.839
h3.83
v.453
h-3.83z
m4.83
7.494
h3.83
v.52
h-3.83z
m4.83
-8.516
h3.83
v.671
h-3.83z
m4.83
-1.174
h3.83
v.637
h-3.83z
m4.83
6.521
h3.83
v.687
h-3.83z
m4.83
-4.543
h3.83
v.905
h-3.83z
m4.83
6.756
h3.83
v.637
h-3.83z
m4.83
-2.9
h3.83
v1.023
h-3.83z
m4.83
3.873
h3.83
v1.224
h-3.83z
m4.83
1.089
h3.83
v.704
h-3.83z
m4.83
-7.041
h3.83
v.335
h-3.83z
m4.83
-19.748
h3.83
v.788
h-3.83z
m4.829
17.251
h3.83
v1.576
h-3.83z
m4.83
.57
h3.83
v.453
h-3.83z
m4.83
-2.934
h3.83
v.402
h-3.83z
m4.83
-1.157
h3.83
v.101
h-3.83z
m4.83
.285
h3.83
v.436
h-3.83z
m4.83
8.047
h3.83
v.738
h-3.83z
m4.83
-7.712
h3.83
v.721
h-3.83z
m4.83
-6.454
h3.83
v4.593
h-3.83z
m4.83
-.134
h3.83
v1.894
h-3.83z
m4.83
12.188
h3.83
v.855
h-3.83z
m4.83
9.287
h3.83
v.319
h-3.83z
m4.83
-3.873
h3.83
v.453
h-3.83z
m4.83
5.465
h3.83
v.084
h-3.83z
m4.83
5.164
h3.83
v.034
h-3.83z
m4.83
-1.341
h3.83
v.168
h-3.83z
m4.829
4.04
h3.83
v.084
h-3.83z
m4.83
2.045
h3.83
v.017
h-3.83z
m9.66
-.704
h3.83
v.386
h-3.83z
m4.83
-3.956
h3.83
v.536
h-3.83z
m4.83
-2.18
h3.83
v.034
h-3.83z
m4.83
5.013
h3.83
v.453
h-3.83z
m9.66
-1.291
h3.83
v.034
h-3.83z
m4.83
-2.749
h3.83
v.536
h-3.83z
m4.83
.167
h3.83
v.05
h-3.83z
m4.83
2.884
h3.83
v.285
h-3.83z
m4.83
-4.376
h3.83
v.034
h-3.83z
m4.83
3.655
h3.83
v.168
h-3.83z
m4.829
-2.85
h3.83
v.285
h-3.83z
m4.83
5.7
h3.83
v.268
h-3.83z
m4.83
2.447
h3.83
v.017
h-3.83z
m4.83
-4.543
h3.83
v.536
h-3.83z
m4.83
2.33
h3.83
v.319
h-3.83z
m4.83
-.871
h3.83
v.034
h-3.83z
m9.66
.469
h3.83
v.017
h-3.83z
m4.83
-3.085
h3.83
v.017
h-3.83z
m9.66
6.287
h3.83
v.352
h-3.83z
m4.83
-3.94
h3.83
v1.241
h-3.83z
m4.83
1.107
h3.83
v.117
h-3.83z
m4.83
3.001
h3.83
v.386
h-3.83z
m4.83
-.855
h3.83
v.201
h-3.83z
m9.659
1.575
h3.83
v.235
h-3.83z
m4.83
-.603
h3.83
v.201
h-3.83z
m4.83
-.671
h3.83
v.084
h-3.83z
m9.66
-.15
h3.83
v.017
h-3.83z
m4.83
-4.091
h3.83
v.201
h-3.83z"/>
        <path fill="#70223b" d="
M60.5
190.424
h3.83
v32.606
H60.5z
m4.83
-1.726
h3.83
v36.847
h-3.83z
m4.83
20.033
h3.83
v29.488
h-3.83z
m4.83
-74.517
h3.83
v35.054
h-3.83z
m4.83
-20.418
h3.83
v35.64
h-3.83z
m4.83
57.953
h3.83
v37.702
h-3.83z
m4.83
38.541
h3.83
v27.024
h-3.83z
m4.83
9.438
h3.83
v31.248
h-3.83z
m4.829
22.497
h3.83
v26.822
h-3.83z
m4.83
-4.727
h3.83
v22.229
h-3.83z
m4.83
16.227
h3.83
v18.29
h-3.83z
m4.83
-16.914
h3.83
v22.129
h-3.83z
m4.83
14.584
h3.83
v15.473
h-3.83z
m4.83
19.044
h3.83
v15.507
h-3.83z
m4.83
-3.872
h3.83
v16.496
h-3.83z
m4.83
2.464
h3.83
v16.378
h-3.83z
m4.83
-1.827
h3.83
v18.34
h-3.83z
m4.83
24.961
h3.83
v20.251
h-3.83z
m4.83
-15.707
h3.83
v23.134
h-3.83z
m4.83
4.727
h3.83
v20.318
h-3.83z
m4.83
-19.329
h3.83
v21.86
h-3.83z
m4.83
-10.511
h3.83
v15.892
h-3.83z
m4.83
28.147
h3.83
v16.881
h-3.83z
m4.829
-25.113
h3.83
v20.301
h-3.83z
m4.83
25.834
h3.83
v17.82
h-3.83z
m4.83
11.483
h3.83
v12.221
h-3.83z
m4.83
8.214
h3.83
v15.188
h-3.83z
m4.83
4.611
h3.83
v12.724
h-3.83z
m4.83
-4.242
h3.83
v9.958
h-3.83z
m4.83
14.283
h3.83
v11.366
h-3.83z
m4.83
.973
h3.83
v11.215
h-3.83z
m4.83
-8.751
h3.83
v11.198
h-3.83z
m4.83
9.639
h3.83
v12.54
h-3.83z
m4.83
-.704
h3.83
v11.852
h-3.83z
m4.83
9.807
h3.83
v10.897
h-3.83z
m4.83
14.166
h3.83
v8.114
h-3.83z
m4.83
4.459
h3.83
v7.644
h-3.83z
m4.829
-19.027
h3.83
v10.612
h-3.83z
m4.83
-.151
h3.83
v7.292
h-3.83z
m4.83
23.805
h3.83
v5.968
h-3.83z
m4.83
1.877
h3.83
v3.738
h-3.83z
m4.83
-5.431
h3.83
v8.516
h-3.83z
m4.83
-8.6
h3.83
v8.617
h-3.83z
m4.83
11.433
h3.83
v6.018
h-3.83z
m4.83
9.103
h3.83
v7.728
h-3.83z
m4.83
-18.877
h3.83
v7.745
h-3.83z
m4.83
-3.839
h3.83
v10.41
h-3.83z
m4.83
-5.699
h3.83
v8.734
h-3.83z
m4.83
-9.472
h3.83
v13.294
h-3.83z
m4.83
-10.26
h3.83
v9.975
h-3.83z
m4.83
16.966
h3.83
v10.243
h-3.83z
m4.83
7.996
h3.83
v9.036
h-3.83z
m4.829
9.891
h3.83
v3.956
h-3.83z
m4.83
-.973
h3.83
v3.437
h-3.83z
m4.83
46.588
h3.83
v1.224
h-3.83z
m4.83
-2.833
h3.83
v1.375
h-3.83z
m4.83
-32.171
h3.83
v4.476
h-3.83z
m4.83
4.208
h3.83
v9.203
h-3.83z
m4.83
13.311
h3.83
v2.85
h-3.83z
m4.83
-9.002
h3.83
v5.465
h-3.83z
m4.83
-3.89
h3.83
v3.571
h-3.83z
m4.83
-3.302
h3.83
v3.101
h-3.83z
m4.83
.754
h3.83
v8.181
h-3.83z
m4.83
-.033
h3.83
v8.55
h-3.83z
m4.83
-10.528
h3.83
v5.247
h-3.83z
m4.83
4.241
h3.83
v6.89
h-3.83z
m4.83
1.559
h3.83
v7.058
h-3.83z
m4.829
9.606
h3.83
v4.543
h-3.83z
m4.83
-1.676
h3.83
v4.308
h-3.83z
m4.83
.352
h3.83
v6.052
h-3.83z
m4.83
11.802
h3.83
v5.499
h-3.83z
m4.83
-6.958
h3.83
v7.577
h-3.83z
m4.83
-5.666
h3.83
v6.488
h-3.83z
m4.83
-18.256
h3.83
v8.349
h-3.83z
m4.83
-2.615
h3.83
v11.735
h-3.83z
m4.83
-22.984
h3.83
v14.585
h-3.83z
m4.83
33.763
h3.83
v11.634
h-3.83z
m4.83
18.34
h3.83
v2.85
h-3.83z
m4.83
2.531
h3.83
v5.096
h-3.83z
m4.83
2.062
h3.83
v3.805
h-3.83z
m4.83
-2.916
h3.83
v6.974
h-3.83z
m4.829
-19.112
h3.83
v12.607
h-3.83z
m4.83
17.15
h3.83
v5.348
h-3.83z
m4.83
5.298
h3.83
v6.873
h-3.83z
m4.83
4.559
h3.83
v2.347
h-3.83z
m4.83
4.309
h3.83
v4.577
h-3.83z
m4.83
-7.712
h3.83
v3.504
h-3.83z
m4.83
-4.694
h3.83
v4.878
h-3.83z
m4.83
9.807
h3.83
v3.621
h-3.83z
m4.83
-4.023
h3.83
v2.515
h-3.83z
m4.83
6.471
h3.83
v3.789
h-3.83z
m4.83
.821
h3.83
v2.012
h-3.83z
m4.83
-.385
h3.83
v2.347
h-3.83z
m4.83
.687
h3.83
v3.37
h-3.83z
m4.83
-2.38
h3.83
v2.179
h-3.83z
m4.83
-21.777
h3.83
v4.677
h-3.83z
m4.829
20.922
h3.83
v.888
h-3.83z
m4.83
-2.699
h3.83
v2.749
h-3.83z
m4.83
-2.85
h3.83
v2.179
h-3.83z
m4.83
-6.924
h3.83
v8.835
h-3.83z
m4.83
2.749
h3.83
v5.398
h-3.83z
m4.83
7.695
h3.83
v5.515
h-3.83z
m4.83
-6.32
h3.83
v3.906
h-3.83z
m4.83
-2.867
h3.83
v3.018
h-3.83z
m4.83
-11.181
h3.83
v8.717
h-3.83z
m4.83
18.675
h3.83
v5.297
h-3.83z
m4.83
8.466
h3.83
v4.66
h-3.83z
m4.83
-2.464
h3.83
v2.313
h-3.83z
m4.83
3.134
h3.83
v.101
h-3.83z
m4.83
3.085
h3.83
v2.297
h-3.83z
m4.83
2.23
h3.83
v1.157
h-3.83z
m4.829
6.705
h3.83
v2.297
h-3.83z
m4.83
6.002
h3.83
v.972
h-3.83z
m4.83
-3.152
h3.83
v.587
h-3.83z
m4.83
2.263
h3.83
v1.542
h-3.83z
m4.83
-6.286
h3.83
v2.045
h-3.83z
m4.83
.268
h3.83
v.888
h-3.83z
m4.83
1.76
h3.83
v3.37
h-3.83z
m4.83
6.186
h3.83
v1.593
h-3.83z
m4.83
-4.644
h3.83
v.134
h-3.83z
m4.83
-1.726
h3.83
v1.006
h-3.83z
m4.83
-2.9
h3.83
v2.548
h-3.83z
m4.83
4.979
h3.83
v.704
h-3.83z
m4.83
-4.242
h3.83
v2.347
h-3.83z
m4.83
5.348
h3.83
v.335
h-3.83z
m4.829
-3.671
h3.83
v.704
h-3.83z
m4.83
6.99
h3.83
v.419
h-3.83z
m4.83
.084
h3.83
v.268
h-3.83z
m4.83
-3.118
h3.83
v.05
h-3.83z
m4.83
1.945
h3.83
v.637
h-3.83z
m4.83
-1.761
h3.83
v.386
h-3.83z
m4.83
3.068
h3.83
v1.274
h-3.83z
m4.83
-.587
h3.83
v1.073
h-3.83z
m4.83
-8.281
h3.83
v2.096
h-3.83z
m9.66
9.556
h3.83
v.151
h-3.83z
m4.83
-2.968
h3.83
v1.157
h-3.83z
m4.83
1.274
h3.83
v.084
h-3.83z
m14.489
-.134
h3.83
v.637
h-3.83z
m4.83
2.347
h3.83
v.05
h-3.83z
m4.83
-.201
h3.83
v.067
h-3.83z
m4.83
-.369
h3.83
v.62
h-3.83z
m4.83
-2.196
h3.83
v.151
h-3.83z
m4.83
1.492
h3.83
v.251
h-3.83z"/>
        <path fill="#91ccf0" d="
M60.5
178.002
h3.83
v12.422
H60.5z
m4.83
-2.615
h3.83
v13.311
h-3.83z
m4.83
17.971
h3.83
v15.373
h-3.83z
m4.83
-73.242
h3.83
v14.099
h-3.83z
m4.83
-21.391
h3.83
v15.071
h-3.83z
m4.83
62.044
h3.83
v10.98
h-3.83z
m4.83
39.462
h3.83
v10.058
h-3.83z
m4.83
10.126
h3.83
v9.371
h-3.83z
m4.829
21.307
h3.83
v10.561
h-3.83z
m4.83
-2.313
h3.83
v8.147
h-3.83z
m4.83
14.551
h3.83
v9.824
h-3.83z
m4.83
-20.235
h3.83
v13.143
h-3.83z
m4.83
18.424
h3.83
v9.304
h-3.83z
m4.83
21.022
h3.83
v7.326
h-3.83z
m4.83
-3.855
h3.83
v7.309
h-3.83z
m4.83
1.425
h3.83
v8.349
h-3.83z
m4.83
-4.493
h3.83
v11.014
h-3.83z
m4.83
29.806
h3.83
v6.169
h-3.83z
m4.83
-16.931
h3.83
v7.393
h-3.83z
m4.83
4.66
h3.83
v7.46
h-3.83z
m4.83
-16.345
h3.83
v4.476
h-3.83z
m4.83
-15.389
h3.83
v9.354
h-3.83z
m4.83
30.946
h3.83
v6.555
h-3.83z
m4.829
-27.392
h3.83
v8.835
h-3.83z
m4.83
27.476
h3.83
v7.192
h-3.83z
m4.83
12.808
h3.83
v5.867
h-3.83z
m4.83
7.577
h3.83
v6.504
h-3.83z
m4.83
8.868
h3.83
v2.246
h-3.83z
m4.83
-4.442
h3.83
v2.448
h-3.83z
m4.83
9.857
h3.83
v6.873
h-3.83z
m4.83
1.006
h3.83
v6.84
h-3.83z
m4.83
-9.472
h3.83
v7.561
h-3.83z
m4.83
13.646
h3.83
v3.554
h-3.83z
m4.83
-3.353
h3.83
v6.203
h-3.83z
m4.83
11.987
h3.83
v4.023
h-3.83z
m4.83
15.339
h3.83
v2.85
h-3.83z
m4.83
4.023
h3.83
v3.286
h-3.83z
m4.829
-19.128
h3.83
v3.386
h-3.83z
m4.83
-.184
h3.83
v3.42
h-3.83z
m4.83
23.503
h3.83
v3.722
h-3.83z
m4.83
2.699
h3.83
v2.9
h-3.83z
m4.83
-4.744
h3.83
v2.213
h-3.83z
m4.83
-11.919
h3.83
v5.532
h-3.83z
m4.83
14.433
h3.83
v2.531
h-3.83z
m4.83
8.584
h3.83
v3.051
h-3.83z
m4.83
-19.966
h3.83
v4.141
h-3.83z
m4.83
-4.057
h3.83
v4.359
h-3.83z
m4.83
-4.795
h3.83
v3.453
h-3.83z
m4.83
-11.248
h3.83
v5.23
h-3.83z
m4.83
-11.484
h3.83
v6.454
h-3.83z
m4.83
19.061
h3.83
v4.359
h-3.83z
m4.83
9.79
h3.83
v2.565
h-3.83z
m4.829
9.941
h3.83
v2.515
h-3.83z
m4.83
-1.576
h3.83
v3.118
h-3.83z
m4.83
49.438
h3.83
v.268
h-3.83z
m4.83
-3.806
h3.83
v1.241
h-3.83z
m4.83
-33.243
h3.83
v2.313
h-3.83z
m4.83
5.096
h3.83
v1.425
h-3.83z
m4.83
11.886
h3.83
v2.85
h-3.83z
m4.83
-9.673
h3.83
v3.52
h-3.83z
m4.83
-2.38
h3.83
v2.012
h-3.83z
m4.83
-3.621
h3.83
v2.33
h-3.83z
m4.83
-.302
h3.83
v3.386
h-3.83z
m4.83
1.391
h3.83
v1.961
h-3.83z
m4.83
-10.695
h3.83
v2.129
h-3.83z
m4.83
2.498
h3.83
v3.872
h-3.83z
m4.83
-1.559
h3.83
v6.991
h-3.83z
m4.829
12.405
h3.83
v4.191
h-3.83z
m4.83
-.838
h3.83
v3.353
h-3.83z
m4.83
-.704
h3.83
v4.409
h-3.83z
m4.83
12.12
h3.83
v4.09
h-3.83z
m4.83
-6.94
h3.83
v4.074
h-3.83z
m4.83
-6.136
h3.83
v4.543
h-3.83z
m4.83
-16.261
h3.83
v2.548
h-3.83z
m4.83
-5.197
h3.83
v5.13
h-3.83z
m4.83
-24.526
h3.83
v6.672
h-3.83z
m4.83
36.462
h3.83
v3.973
h-3.83z
m4.83
21.341
h3.83
v.972
h-3.83z
m4.83
1.877
h3.83
v1.626
h-3.83z
m4.83
1.526
h3.83
v2.163
h-3.83z
m4.83
-4.308
h3.83
v3.554
h-3.83z
m4.829
-16.547
h3.83
v.989
h-3.83z
m4.83
15.071
h3.83
v3.068
h-3.83z
m4.83
5.482
h3.83
v2.883
h-3.83z
m4.83
5.096
h3.83
v2.347
h-3.83z
m4.83
4.879
h3.83
v1.777
h-3.83z
m4.83
-7.36
h3.83
v1.425
h-3.83z
m4.83
-4.476
h3.83
v1.207
h-3.83z
m4.83
9.489
h3.83
v1.526
h-3.83z
m4.83
-4.644
h3.83
v2.146
h-3.83z
m4.83
8.432
h3.83
v.184
h-3.83z
m4.83
-.167
h3.83
v1.173
h-3.83z
m4.83
-.503
h3.83
v1.291
h-3.83z
m4.83
.402
h3.83
v1.576
h-3.83z
m4.83
-1.257
h3.83
v.453
h-3.83z
m4.83
-23.168
h3.83
v1.844
h-3.83z
m4.829
21.609
h3.83
v1.157
h-3.83z
m4.83
-2.917
h3.83
v1.375
h-3.83z
m4.83
-2.314
h3.83
v.838
h-3.83z
m4.83
-7.242
h3.83
v1.157
h-3.83z
m4.83
.922
h3.83
v2.984
h-3.83z
m4.83
7.695
h3.83
v2.984
h-3.83z
m4.83
-4.727
h3.83
v1.391
h-3.83z
m4.83
-2.783
h3.83
v1.308
h-3.83z
m4.83
-11.366
h3.83
v1.492
h-3.83z
m4.83
18.524
h3.83
v1.643
h-3.83z
m4.83
9.17
h3.83
v.939
h-3.83z
m4.83
-2.582
h3.83
v1.056
h-3.83z
m4.83
4.091
h3.83
v.101
h-3.83z
m4.83
2.464
h3.83
v.721
h-3.83z
m4.83
2.783
h3.83
v.168
h-3.83z
m4.829
6.706
h3.83
v.168
h-3.83z
m4.83
5.867
h3.83
v.302
h-3.83z
m4.83
-3.42
h3.83
v.57
h-3.83z
m4.83
2.716
h3.83
v.117
h-3.83z
m9.66
-6.085
h3.83
v.184
h-3.83z
m4.83
1.14
h3.83
v.805
h-3.83z
m4.83
6.739
h3.83
v.251
h-3.83z
m4.83
-4.46
h3.83
v.067
h-3.83z
m4.83
-2.9
h3.83
v1.241
h-3.83z
m4.83
-2.146
h3.83
v.486
h-3.83z
m9.66
.487
h3.83
v.738
h-3.83z
m4.83
4.677
h3.83
v1.408
h-3.83z
m4.829
-2.515
h3.83
v.251
h-3.83z
m4.83
6.421
h3.83
v.821
h-3.83z
m4.83
.62
h3.83
v.285
h-3.83z
m4.83
-6.404
h3.83
v3.571
h-3.83z
m4.83
4.325
h3.83
v1.19
h-3.83z
m4.83
-.653
h3.83
v.084
h-3.83z
m4.83
2.699
h3.83
v.453
h-3.83z
m4.83
-.218
h3.83
v.084
h-3.83z
m14.49
.268
h3.83
v1.09
h-3.83z
m4.83
-1.995
h3.83
v.117
h-3.83z
m9.66
3.47
h3.83
v.151
h-3.83z
m4.83
.402
h3.83
v.017
h-3.83z
m4.829
-3.704
h3.83
v1.09
h-3.83z
m4.83
3.336
h3.83
v.101
h-3.83z
m4.83
-.185
h3.83
v.084
h-3.83z
m4.83
-.369
h3.83
v.084
h-3.83z
m14.49
-2.682
h3.83
v.704
h-3.83z"/>
        <path fill="#aaf155" d="
M60.5
134.969
h3.83
v12.623
H60.5z
m4.83
.452
h3.83
v9.002
h-3.83z
m4.83
27.091
h3.83
v7.007
h-3.83z
m4.83
-80.417
h3.83
V92.74
h-3.83z
m4.83
-20.938
h3.83
v10.964
h-3.83z
m4.83
59.093
h3.83
v9.287
h-3.83z
m4.83
46.319
h3.83
v8.382
h-3.83z
m4.83
8.198
h3.83
v9.991
h-3.83z
m4.829
24.66
h3.83
v8.969
h-3.83z
m4.83
-3.588
h3.83
v8.801
h-3.83z
m4.83
24.979
h3.83
v6.102
h-3.83z
m4.83
-26.521
h3.83
v6.823
h-3.83z
m4.83
20.268
h3.83
v7.678
h-3.83z
m4.83
25.598
h3.83
v5.197
h-3.83z
m4.83
1.509
h3.83
v5.918
h-3.83z
m4.83
2.297
h3.83
v6.035
h-3.83z
m4.83
-11.182
h3.83
v5.733
h-3.83z
m4.83
32.17
h3.83
v7.661
h-3.83z
m4.83
-15.909
h3.83
v4.845
h-3.83z
m4.83
9.623
h3.83
v3.487
h-3.83z
m4.83
-15.809
h3.83
v3.286
h-3.83z
m4.83
-19.446
h3.83
v6.504
h-3.83z
m4.83
25.196
h3.83
v4.007
h-3.83z
m4.829
-16.361
h3.83
v5.566
h-3.83z
m4.83
27.292
h3.83
v4.074
h-3.83z
m4.83
11.902
h3.83
v5.063
h-3.83z
m4.83
10.058
h3.83
v2.967
h-3.83z
m4.83
5.231
h3.83
v3.42
h-3.83z
m4.83
-5.515
h3.83
v4.493
h-3.83z
m4.83
15.741
h3.83
v4.023
h-3.83z
m4.83
-2.934
h3.83
v3.487
h-3.83z
m4.83
-8.415
h3.83
v3.085
h-3.83z
m4.83
5.901
h3.83
v6.169
h-3.83z
m4.83
-4.057
h3.83
v11.232
h-3.83z
m4.83
14.383
h3.83
v4.09
h-3.83z
m4.83
17.2
h3.83
v4.61
h-3.83z
m4.83
13.395
h3.83
v1.727
h-3.83z
m4.829
-19.648
h3.83
v2.867
h-3.83z
m4.83
-1.995
h3.83
v2.364
h-3.83z
m4.83
25.482
h3.83
v3.588
h-3.83z
m4.83
4.694
h3.83
v2.38
h-3.83z
m4.83
-3.973
h3.83
v1.375
h-3.83z
m4.83
-14.133
h3.83
v1.643
h-3.83z
m4.83
8.416
h3.83
v2.246
h-3.83z
m4.83
10.142
h3.83
v3.269
h-3.83z
m4.83
-19.513
h3.83
v3.671
h-3.83z
m4.83
-7.36
h3.83
v5.264
h-3.83z
m4.83
-3.554
h3.83
v3.872
h-3.83z
m4.83
-10.477
h3.83
v4.526
h-3.83z
m4.83
-14.719
h3.83
v3.889
h-3.83z
m4.83
19.849
h3.83
v3.755
h-3.83z
m4.83
14.232
h3.83
v4.862
h-3.83z
m4.829
13.965
h3.83
v2.565
h-3.83z
m4.83
1.006
h3.83
v2.096
h-3.83z
m4.83
52.622
h3.83
v.268
h-3.83z
m4.83
-6.923
h3.83
v1.894
h-3.83z
m4.83
-35.423
h3.83
v1.894
h-3.83z
m4.83
7.007
h3.83
v.419
h-3.83z
m4.83
12.574
h3.83
v1.358
h-3.83z
m4.83
-13.378
h3.83
v1.358
h-3.83z
m4.83
-.822
h3.83
v.805
h-3.83z
m4.83
-1.441
h3.83
v.788
h-3.83z
m4.83
-.386
h3.83
v1.358
h-3.83z
m4.83
.436
h3.83
v.587
h-3.83z
m4.83
-15.406
h3.83
v1.71
h-3.83z
m4.83
4.627
h3.83
v2.464
h-3.83z
m4.83
-1.777
h3.83
v1.458
h-3.83z
m4.829
16.009
h3.83
v1.894
h-3.83z
m4.83
.352
h3.83
v1.341
h-3.83z
m4.83
-1.86
h3.83
v1.559
h-3.83z
m4.83
9.991
h3.83
v3.034
h-3.83z
m4.83
-5.348
h3.83
v.821
h-3.83z
m4.83
-10.159
h3.83
v3.303
h-3.83z
m4.83
-14.752
h3.83
v2.598
h-3.83z
m4.83
-3.638
h3.83
v1.073
h-3.83z
m4.83
-31.315
h3.83
v2.984
h-3.83z
m4.83
42.446
h3.83
v1.995
h-3.83z
m4.83
19.933
h3.83
v.62
h-3.83z
m4.83
7.024
h3.83
v.587
h-3.83z
m4.83
.855
h3.83
V367
h-3.83z
m4.83
-5.381
h3.83
v.771
h-3.83z
m4.829
-18.24
h3.83
v2.263
h-3.83z
m4.83
11.735
h3.83
v2.448
h-3.83z
m4.83
9.673
h3.83
v.771
h-3.83z
m4.83
5.951
h3.83
v1.526
h-3.83z
m4.83
4.745
h3.83
v1.559
h-3.83z
m4.83
-4.778
h3.83
v.687
h-3.83z
m4.83
-9.153
h3.83
v1.827
h-3.83z
m4.83
10.41
h3.83
v.469
h-3.83z
m4.83
-2.8
h3.83
v.972
h-3.83z
m4.83
7.628
h3.83
v1.023
h-3.83z
m4.83
2.23
h3.83
v.117
h-3.83z
m4.83
-1.274
h3.83
v.251
h-3.83z
m4.83
-.252
h3.83
v1.224
h-3.83z
m4.83
-.419
h3.83
v1.375
h-3.83z
m4.83
-22.447
h3.83
v1.224
h-3.83z
m4.829
21.844
h3.83
v.285
h-3.83z
m4.83
-4.51
h3.83
v.285
h-3.83z
m4.83
-3.084
h3.83
v1.006
h-3.83z
m4.83
-7.209
h3.83
v.469
h-3.83z
m4.83
1.827
h3.83
v.905
h-3.83z
m4.83
6.203
h3.83
v1.626
h-3.83z
m4.83
-6.303
h3.83
v2.213
h-3.83z
m4.83
.637
h3.83
v.956
h-3.83z
m4.83
-11.635
h3.83
v.738
h-3.83z
m4.83
16.111
h3.83
v1.861
h-3.83z
m4.83
11.584
h3.83
v1.542
h-3.83z
m4.83
-3.336
h3.83
v.285
h-3.83z
m4.83
8.432
h3.83
v.151
h-3.83z
m4.83
1.995
h3.83
v.302
h-3.83z
m4.83
2.012
h3.83
v.235
h-3.83z
m4.829
6.219
h3.83
v.017
h-3.83z
m4.83
7.695
h3.83
v.017
h-3.83z
m9.66
-1.174
h3.83
v.017
h-3.83z
m4.83
-6.32
h3.83
v.352
h-3.83z
m4.83
-.922
h3.83
v.017
h-3.83z
m4.83
2.28
h3.83
v.05
h-3.83z
m4.83
4.694
h3.83
v.017
h-3.83z
m14.49
-7.728
h3.83
v.52
h-3.83z
m4.83
5.968
h3.83
v.168
h-3.83z
m4.83
-4.962
h3.83
v.067
h-3.83z
m4.83
4.727
h3.83
v.067
h-3.83z
m4.829
-3.738
h3.83
v.302
h-3.83z
m4.83
7.158
h3.83
v.101
h-3.83z
m4.83
.989
h3.83
v.117
h-3.83z
m4.83
-7.711
h3.83
v.151
h-3.83z
m4.83
3.906
h3.83
v.721
h-3.83z
m4.83
.704
h3.83
v.302
h-3.83z
m4.83
2.967
h3.83
v.017
h-3.83z
m4.83
.101
h3.83
v.034
h-3.83z
m4.83
-8.148
h3.83
v.034
h-3.83z
m14.49
5.901
h3.83
v.268
h-3.83z
m14.49
3.873
h3.83
v.034
h-3.83z
m4.829
-4.292
h3.83
v.956
h-3.83z
m4.83
4.426
h3.83
v.084
h-3.83z
m4.83
-.771
h3.83
v.536
h-3.83z
m4.83
-.52
h3.83
v.386
h-3.83z
m14.49
-2.179
h3.83
v.034
h-3.83z"/>
        <path fill="#f0c097" d="
M60.5
223.03
h3.83
v18.826
H60.5z
m4.83
2.515
h3.83
v13.696
h-3.83z
m4.83
12.674
h3.83
v13.16
h-3.83z
m4.83
-68.951
h3.83
v15.959
h-3.83z
m4.83
-19.832
h3.83
v21.324
h-3.83z
m4.83
60.016
h3.83
v13.763
h-3.83z
m4.83
27.861
h3.83
v15.272
h-3.83z
m4.83
13.663
h3.83
v10.796
h-3.83z
m4.829
18.072
h3.83
v12.757
h-3.83z
m4.83
-9.321
h3.83
v10.394
h-3.83z
m4.83
12.288
h3.83
v14.752
h-3.83z
m4.83
-13.076
h3.83
v10.327
h-3.83z
m4.83
7.929
h3.83
v8.013
h-3.83z
m4.83
19.078
h3.83
v8.952
h-3.83z
m4.83
-2.883
h3.83
v6.387
h-3.83z
m4.83
2.347
h3.83
v5.448
h-3.83z
m4.83
.134
h3.83
v12.037
h-3.83z
m4.83
26.872
h3.83
v5.8
h-3.83z
m4.83
-12.824
h3.83
v9.254
h-3.83z
m4.83
1.911
h3.83
v6.706
h-3.83z
m4.83
-17.787
h3.83
v9.12
h-3.83z
m4.83
-16.479
h3.83
v9.706
h-3.83z
m4.83
29.136
h3.83
v7.125
h-3.83z
m4.829
-21.692
h3.83
v9.187
h-3.83z
m4.83
23.352
h3.83
v8.08
h-3.83z
m4.83
5.884
h3.83
v14.216
h-3.83z
m4.83
11.182
h3.83
v4.996
h-3.83z
m4.83
2.145
h3.83
v8.365
h-3.83z
m4.83
-7.007
h3.83
v9.455
h-3.83z
m4.83
15.691
h3.83
v5.448
h-3.83z
m4.83
.822
h3.83
v4.241
h-3.83z
m4.83
-8.768
h3.83
v7.359
h-3.83z
m4.83
10.981
h3.83
v9.086
h-3.83z
m4.83
-1.392
h3.83
v6.069
h-3.83z
m4.83
8.852
h3.83
v3.42
h-3.83z
m4.83
11.382
h3.83
v1.66
h-3.83z
m4.83
3.99
h3.83
v4.61
h-3.83z
m4.829
-16.06
h3.83
v4.174
h-3.83z
m4.83
-3.47
h3.83
v1.811
h-3.83z
m4.83
22.481
h3.83
v1.358
h-3.83z
m4.83
-.352
h3.83
v3.219
h-3.83z
m4.83
-.654
h3.83
v1.961
h-3.83z
m4.83
-8.5
h3.83
v4.392
h-3.83z
m4.83
8.835
h3.83
v3.42
h-3.83z
m4.83
10.813
h3.83
v2.783
h-3.83z
m4.83
-18.86
h3.83
v2.733
h-3.83z
m4.83
-1.173
h3.83
v6.018
h-3.83z
m4.83
-7.376
h3.83
v5.113
h-3.83z
m4.83
-4.912
h3.83
v8.064
h-3.83z
m4.83
-13.579
h3.83
v4.409
h-3.83z
m4.83
17.233
h3.83
v2.816
h-3.83z
m4.83
6.79
h3.83
v2.716
h-3.83z
m4.829
4.811
h3.83
v1.827
h-3.83z
m4.83
-1.492
h3.83
v1.509
h-3.83z
m4.83
44.375
h3.83
v1.157
h-3.83z
m4.83
-2.683
h3.83
v1.308
h-3.83z
m4.83
-29.069
h3.83
v1.777
h-3.83z
m4.83
8.936
h3.83
v3.805
h-3.83z
m4.83
6.957
h3.83
v1.76
h-3.83z
m4.83
-6.387
h3.83
v2.598
h-3.83z
m4.83
-5.784
h3.83
v3.47
h-3.83z
m4.83
-3.772
h3.83
v3.068
h-3.83z
m4.83
5.834
h3.83
v1.995
h-3.83z
m4.83
.335
h3.83
v2.263
h-3.83z
m4.83
-13.83
h3.83
v2.196
h-3.83z
m4.83
5.884
h3.83
v4.191
h-3.83z
m4.83
1.727
h3.83
v3.688
h-3.83z
m4.829
7.091
h3.83
v4.258
h-3.83z
m4.83
-1.911
h3.83
v4.493
h-3.83z
m4.83
2.095
h3.83
v1.894
h-3.83z
m4.83
11.249
h3.83
v2.665
h-3.83z
m4.83
-4.878
h3.83
v2.85
h-3.83z
m4.83
-6.756
h3.83
v1.693
h-3.83z
m4.83
-16.395
h3.83
v3.872
h-3.83z
m4.83
.771
h3.83
v1.794
h-3.83z
m4.83
-20.134
h3.83
v8.784
h-3.83z
m4.83
30.812
h3.83
v2.23
h-3.83z
m4.83
9.556
h3.83
v2.649
h-3.83z
m4.83
4.778
h3.83
v1.492
h-3.83z
m4.83
.771
h3.83
v2.665
h-3.83z
m4.83
.251
h3.83
v.637
h-3.83z
m4.829
-13.478
h3.83
v2.364
h-3.83z
m4.83
9.891
h3.83
v2.129
h-3.83z
m4.83
6.823
h3.83
v4.325
h-3.83z
m4.83
.033
h3.83
v2.246
h-3.83z
m4.83
6.538
h3.83
v1.643
h-3.83z
m4.83
-8.784
h3.83
v1.224
h-3.83z
m4.83
-3.319
h3.83
v2.112
h-3.83z
m4.83
8.549
h3.83
v1.09
h-3.83z
m4.83
-5.129
h3.83
v2.246
h-3.83z
m4.83
7.745
h3.83
v2.431
h-3.83z
m4.83
-.956
h3.83
v1.257
h-3.83z
m4.83
-.05
h3.83
v2.129
h-3.83z
m4.83
1.71
h3.83
v1.559
h-3.83z
m4.83
-3.571
h3.83
v.888
h-3.83z
m4.83
-19.279
h3.83
v.754
h-3.83z
m4.829
17.133
h3.83
v.671
h-3.83z
m4.83
-.838
h3.83
v1.66
h-3.83z
m4.83
-3.42
h3.83
v1.593
h-3.83z
m4.83
-.268
h3.83
v1.442
h-3.83z
m4.83
-.688
h3.83
v1.023
h-3.83z
m4.83
7.813
h3.83
v1.609
h-3.83z
m4.83
-7.93
h3.83
v1.861
h-3.83z
m4.83
-3.755
h3.83
v.302
h-3.83z
m4.83
-5.482
h3.83
v3.889
h-3.83z
m4.83
15.255
h3.83
v1.224
h-3.83z
m4.83
7.829
h3.83
v1.559
h-3.83z
m4.83
-4.811
h3.83
v.604
h-3.83z
m9.66
6.203
h3.83
v.62
h-3.83z
m4.83
1.089
h3.83
v.536
h-3.83z
m14.489
8.986
h3.83
v.52
h-3.83z
m4.83
3.219
h3.83
v.201
h-3.83z
m4.83
-5.784
h3.83
v1.492
h-3.83z
m4.83
-.889
h3.83
v.888
h-3.83z
m4.83
4.242
h3.83
v.469
h-3.83z
m4.83
4.409
h3.83
v.05
h-3.83z
m4.83
-6.102
h3.83
v1.324
h-3.83z
m4.83
-.855
h3.83
v.905
h-3.83z
m4.83
-1.358
h3.83
v.084
h-3.83z
m4.83
3.135
h3.83
v.52
h-3.83z
m4.83
-2.599
h3.83
v.101
h-3.83z
m4.83
3.336
h3.83
v.017
h-3.83z
m4.829
-3.302
h3.83
v.218
h-3.83z
m4.83
6.705
h3.83
v.067
h-3.83z
m4.83
-.067
h3.83
v1.676
h-3.83z
m14.49
-2.816
h3.83
v.905
h-3.83z
m4.83
3.956
h3.83
v.017
h-3.83z
m9.66
-8.047
h3.83
v.268
h-3.83z
m4.83
.99
h3.83
v.302
h-3.83z
m4.83
6.621
h3.83
v.268
h-3.83z
m9.66
-1.76
h3.83
v1.542
h-3.83z
m4.83
2.146
h3.83
v.587
h-3.83z
m9.659
-1.727
h3.83
v.319
h-3.83z
m4.83
1.76
h3.83
v.168
h-3.83z
m4.83
-.184
h3.83
v.821
h-3.83z
m4.83
.184
h3.83
v.101
h-3.83z
m4.83
-2.665
h3.83
v.268
h-3.83z
m4.83
1.593
h3.83
v.05
h-3.83z
m4.83
-1.61
h3.83
v.084
h-3.83z"/>
        <path fill="#16234f" d="
M60.5
128.246
h3.83
v6.722
H60.5z
m4.83
.587
h3.83
v6.588
h-3.83z
m4.83
29.388
h3.83
v4.292
h-3.83z
m4.83
-79.462
h3.83
v3.336
h-3.83z
M79.82
60
h3.83
v1.157
h-3.83z
m4.83
56.378
h3.83
v3.872
h-3.83z
m4.83
46.084
h3.83
v4.107
h-3.83z
m4.83
10.327
h3.83
v1.978
h-3.83z
m4.829
23.855
h3.83
v2.783
h-3.83z
m4.83
-3.202
h3.83
v2.397
h-3.83z
m4.83
24.542
h3.83
v2.833
h-3.83z
m4.83
-24.324
h3.83
v.637
h-3.83z
m4.83
18.641
h3.83
v2.263
h-3.83z
m4.83
25.683
h3.83
v2.179
h-3.83z
m4.83
1.509
h3.83
v2.179
h-3.83z
m4.83
4.224
h3.83
v.251
h-3.83z
m4.83
-13.847
h3.83
v2.917
h-3.83z
m4.83
32.606
h3.83
v2.481
h-3.83z
m4.83
-15.976
h3.83
v2.548
h-3.83z
m4.83
9.204
h3.83
v2.967
h-3.83z
m4.83
-13.764
h3.83
v.922
h-3.83z
m4.83
-20.737
h3.83
v2.213
h-3.83z
m4.83
27.175
h3.83
v.235
h-3.83z
m4.829
-16.714
h3.83
v.587
h-3.83z
m4.83
26.487
h3.83
v1.391
h-3.83z
m4.83
11.45
h3.83
v1.844
h-3.83z
m4.83
11.014
h3.83
v.888
h-3.83z
m4.83
5.314
h3.83
v.805
h-3.83z
m4.83
-7.611
h3.83
v2.9
h-3.83z
m4.83
16.798
h3.83
v1.844
h-3.83z
m4.83
-1.559
h3.83
v.469
h-3.83z
m4.83
-8.801
h3.83
v.855
h-3.83z
m4.83
5.901
h3.83
v.855
h-3.83z
m4.83
-4.124
h3.83
v.922
h-3.83z
m4.83
14.719
h3.83
v.587
h-3.83z
m4.83
17.669
h3.83
v.117
h-3.83z
m4.83
12.523
h3.83
v.989
h-3.83z
m4.829
-19.363
h3.83
v.704
h-3.83z
m4.83
-2.665
h3.83
v1.375
h-3.83z
m4.83
25.917
h3.83
v.939
h-3.83z
m4.83
3.822
h3.83
v1.811
h-3.83z
m4.83
-3.168
h3.83
v1.006
h-3.83z
m4.83
-14.082
h3.83
v.956
h-3.83z
m4.83
8.164
h3.83
v1.207
h-3.83z
m4.83
9.287
h3.83
v2.062
h-3.83z
m4.83
-17.853
h3.83
v.402
h-3.83z
m4.83
-9.472
h3.83
v2.515
h-3.83z
m4.83
-1.308
h3.83
v.268
h-3.83z
m4.83
-11.919
h3.83
v1.71
h-3.83z
m4.83
-13.864
h3.83
v.855
h-3.83z
m4.83
18.826
h3.83
v1.878
h-3.83z
m4.83
14.032
h3.83
v2.079
h-3.83z
m4.829
15.741
h3.83
v.302
h-3.83z
m4.83
-7.695
h3.83
v9.002
h-3.83z
m4.83
59.245
h3.83
v2.38
h-3.83z
m4.83
-4.845
h3.83
v.302
h-3.83z
m4.83
-37.837
h3.83
v2.716
h-3.83z
m4.83
8.114
h3.83
v1.609
h-3.83z
m4.83
13.998
h3.83
v.184
h-3.83z
m4.83
-13.998
h3.83
v.805
h-3.83z
m4.83
-.033
h3.83
v.017
h-3.83z
m4.83
-3.839
h3.83
v2.414
h-3.83z
m4.83
.788
h3.83
v1.241
h-3.83z
m4.83
.821
h3.83
v.855
h-3.83z
m4.83
-15.071
h3.83
v.52
h-3.83z
m4.83
4.862
h3.83
v.285
h-3.83z
m4.83
-1.509
h3.83
v.017
h-3.83z
m4.829
15.909
h3.83
v.117
h-3.83z
m4.83
-.017
h3.83
v.486
h-3.83z
m4.83
-1.944
h3.83
v.57
h-3.83z
m4.83
9.924
h3.83
v.637
h-3.83z
m4.83
-4.845
h3.83
v.134
h-3.83z
m4.83
-10.209
h3.83
v.184
h-3.83z
m4.83
-16.915
h3.83
v2.347
h-3.83z
m4.83
-1.442
h3.83
v.151
h-3.83z
m4.83
-31.617
h3.83
v.453
h-3.83z
m4.83
41.961
h3.83
v.939
h-3.83z
m4.83
20.301
h3.83
v.57
h-3.83z
m4.83
6.94
h3.83
v.654
h-3.83z
m4.83
-.201
h3.83
v1.71
h-3.83z
m4.83
-4.442
h3.83
v.771
h-3.83z
m4.829
-18.424
h3.83
v.956
h-3.83z
m4.83
10.997
h3.83
v1.693
h-3.83z
m4.83
11.098
h3.83
v.268
h-3.83z
m4.83
5.985
h3.83
v.235
h-3.83z
m4.83
4.627
h3.83
v.352
h-3.83z
m4.83
-5.13
h3.83
v.704
h-3.83z
m4.83
-9.254
h3.83
v.805
h-3.83z
m4.83
11.064
h3.83
v.151
h-3.83z
m4.83
-2.783
h3.83
v.134
h-3.83z
m4.83
7.695
h3.83
v.067
h-3.83z
m4.83
2.28
h3.83
v.017
h-3.83z
m4.83
-1.442
h3.83
v.184
h-3.83z
m4.83
-.603
h3.83
v.536
h-3.83z
m4.83
-.201
h3.83
v.319
h-3.83z
m4.83
-22.414
h3.83
v.285
h-3.83z
m4.829
22.028
h3.83
v.101
h-3.83z
m4.83
-4.543
h3.83
v.134
h-3.83z
m4.83
-3.001
h3.83
v.05
h-3.83z
m4.83
-7.477
h3.83
v.319
h-3.83z
m4.83
1.962
h3.83
v.184
h-3.83z
m4.83
6.219
h3.83
v.168
h-3.83z
m4.83
-6.387
h3.83
v.251
h-3.83z
m4.83
.805
h3.83
v.084
h-3.83z
m4.83
-11.735
h3.83
v.184
h-3.83z
m4.83
15.775
h3.83
v.52
h-3.83z
m4.83
11.953
h3.83
v.151
h-3.83z
m4.83
-3.705
h3.83
v.52
h-3.83z
m9.66
10.93
h3.83
v.017
h-3.83z
m4.83
1.777
h3.83
v.251
h-3.83z
m4.829
5.985
h3.83
v.486
h-3.83z
m14.49
6.957
h3.83
v.05
h-3.83z
m4.83
-7.577
h3.83
v1.308
h-3.83z
m4.83
.368
h3.83
v.017
h-3.83z
m19.32
1.207
h3.83
v.017
h-3.83z
m14.49
-1.056
h3.83
v.117
h-3.83z
m4.83
4.828
h3.83
v.017
h-3.83z
m19.319
-4.459
h3.83
v1.173
h-3.83z
m4.83
4.342
h3.83
v.738
h-3.83z
m4.83
.771
h3.83
v.671
h-3.83z
m4.83
3.588
h3.83
v.05
h-3.83z
m19.32
-.218
h3.83
v.017
h-3.83z
m28.979
1.894
h3.83
v.235
h-3.83z
m9.66
-1.123
h3.83
v.067
h-3.83z
m14.49
-2.163
h3.83
v.05
h-3.83z"/>
        <path fill="#17234f" d="
M161.929
276.944
h3.83
v.168
h-3.83z
m4.83
26.554
h3.83
v.436
h-3.83z
m4.829
-19.631
h3.83
v.587
h-3.83z
m4.83
22.246
h3.83
v.436
h-3.83z
m4.83
12.02
h3.83
v.268
h-3.83z
m4.83
1.961
h3.83
v.201
h-3.83z
m4.83
5.516
h3.83
v.034
h-3.83z
m4.83
-5.918
h3.83
v.084
h-3.83z
m4.83
11.685
h3.83
v.117
h-3.83z
m4.83
-.386
h3.83
v.386
h-3.83z
m9.66
7.058
h3.83
v.017
h-3.83z
m4.83
-4.409
h3.83
v.436
h-3.83z
m4.83
6.202
h3.83
v.134
h-3.83z
m4.83
9.623
h3.83
v.101
h-3.83z
m4.83
6.94
h3.83
v.754
h-3.83z
m4.829
-16.496
h3.83
v1.341
h-3.83z
m4.83
-5.833
h3.83
v.184
h-3.83z
m9.66
23.536
h3.83
v.067
h-3.83z
m9.66
-7.979
h3.83
v.067
h-3.83z
m9.66
18.038
h3.83
v.101
h-3.83z
m4.83
-18.91
h3.83
v.034
h-3.83z
m4.83
2.112
h3.83
v.285
h-3.83z
m4.83
-8.281
h3.83
v.017
h-3.83z
m4.83
-1.962
h3.83
v.05
h-3.83z
m4.83
-17.233
h3.83
v.05
h-3.83z
m9.66
22.33
h3.83
v.05
h-3.83z
m4.829
3.922
h3.83
v.251
h-3.83z
m14.49
39.681
h3.83
v.05
h-3.83z
m9.66
-17.636
h3.83
v.017
h-3.83z
m9.66
-.637
h3.83
v.05
h-3.83z
m9.66
-9.086
h3.83
v.034
h-3.83z
m9.66
5.364
h3.83
v.034
h-3.83z
m4.83
-13.897
h3.83
v.017
h-3.83z
m9.66
9.103
h3.83
v.134
h-3.83z
m14.489
5.482
h3.83
v.034
h-3.83z
m4.83
12.02
h3.83
v.184
h-3.83z
m9.66
-12.607
h3.83
v.05
h-3.83z
m4.83
-14.216
h3.83
v.017
h-3.83z
m4.83
-1.307
h3.83
v.134
h-3.83z
m9.66
11.114
h3.83
v.034
h-3.83z
m9.66
13.596
h3.83
v.034
h-3.83z
m9.66
.167
h3.83
v.134
h-3.83z
m9.659
-2.095
h3.83
v.034
h-3.83z
m9.66
6.974
h3.83
v.084
h-3.83z
m33.81
3.654
h3.83
v.05
h-3.83z
m48.299
-1.106
h3.83
v.05
h-3.83z
m9.66
-12.992
h3.83
v.168
h-3.83z
m4.83
-1.895
h3.83
v.034
h-3.83z
m4.83
12.59
h3.83
v.235
h-3.83z
m9.66
2.397
h3.83
v2.749
h-3.83z
m4.83
.319
h3.83
v10.98
h-3.83z
m4.83
5.901
h3.83
v9.773
h-3.83z
m4.83
1.006
h3.83
v7.007
h-3.83z
m4.829
7.309
h3.83
v3.42
h-3.83z
m4.83
4.677
h3.83
v1.626
h-3.83z
m4.83
-3.017
h3.83
v1.743
h-3.83z
m4.83
2.9
h3.83
v1.391
h-3.83z
m4.83
-4.493
h3.83
v.067
h-3.83z
m4.83
-1.492
h3.83
v.855
h-3.83z
m4.83
3.822
h3.83
v2.012
h-3.83z
m4.83
3.99
h3.83
v.386
h-3.83z
m4.83
-4.828
h3.83
v1.308
h-3.83z
m4.83
-1.274
h3.83
v.469
h-3.83z
m4.83
-2.179
h3.83
v2.515
h-3.83z
m4.83
3.57
h3.83
v.872
h-3.83z
m4.83
-3.017
h3.83
v.738
h-3.83z
m4.83
3.252
h3.83
v.821
h-3.83z
m4.829
-3.101
h3.83
v1.475
h-3.83z
m4.83
6.554
h3.83
v.352
h-3.83z
m4.83
1.543
h3.83
v1.308
h-3.83z
m4.83
-5.013
h3.83
v1.727
h-3.83z
m4.83
2.532
h3.83
v1.09
h-3.83z
m4.83
-1.107
h3.83
v.553
h-3.83z
m4.83
3.068
h3.83
v1.643
h-3.83z
m4.83
-.805
h3.83
v.117
h-3.83z
m4.83
-6.99
h3.83
v3.588
h-3.83z
m4.83
1.022
h3.83
v8.332
h-3.83z
m4.83
6.589
h3.83
v2.163
h-3.83z
m4.83
-2.23
h3.83
v1.106
h-3.83z
m4.83
1.743
h3.83
v.352
h-3.83z
m4.83
1.191
h3.83
v.771
h-3.83z
m4.83
-.319
h3.83
v1.71
h-3.83z
m4.829
-1.676
h3.83
v1.19
h-3.83z
m4.83
1.609
h3.83
v3.219
h-3.83z
m4.83
.47
h3.83
v2.062
h-3.83z
m4.83
-.537
h3.83
v2.079
h-3.83z
m4.83
-2.498
h3.83
v2.917
h-3.83z
m4.83
1.375
h3.83
v2.934
h-3.83z
m4.83
-1.576
h3.83
v.604
h-3.83z"/>
    </g>
    <path stroke="currentColor" d="
M60
410
h710" aria-label="rule"/>
    <svg xmlns="http://www.w3.org/2000/svg" viewBox="0 0 830 564">
        <g aria-label="■ Custom Colour/Modded Campaigns ■ Survivor ■ Monk ■ Hunter ■ Gourmand ■ Artificer ■ Rivulet ■ Spearmaster ■ Saint ■ ⏿" style="shape-padding:2.00159">
            <path fill="#00000f" d="
M55.012
483.999
v-7.744
h7.75
v7.744z"/>
            <path fill="#1e90ff" d="
M77.438
483.167
q-.489
.26
-1.003
.388
-.514
.133
-1.092
.133
-1.822
0
-2.83
-1.289
-1.004
-1.288
-1.004
-3.624
0
-2.323
1.01
-3.618
1.015
-1.302
2.824
-1.302
.578
0
1.092
.134
.514
.127
1.003
.387
v1.314
q-.47
-.387
-1.01
-.59
-.539
-.204
-1.085
-.204
-1.25
0
-1.872
.965
t-.622
2.914
q0
1.942
.622
2.907
t1.872
.965
q.559
0
1.092
-.203
.54
-.203
1.003
-.59z
m2.253
-2.354
v-4.406
h1.168
v4.406
q0
.958
.337
1.409
.343
.45
1.054
.45
.825
0
1.263
-.577
.438
-.584
.438
-1.67
v-4.018
h1.174
v7.097
h-1.174
v-1.067
q-.311
.616
-.85
.934
-.534
.317
-1.251
.317
-1.092
0
-1.625
-.711
-.534
-.717
-.534
-2.165
m12.766
-4.17
v1.142
q-.502
-.292
-1.01
-.438
t-1.034
-.146
q-.794
0
-1.187
.26
-.388
.254
-.388
.78
0
.477
.292
.712
t1.454
.457
l.47
.089
q.87
.165
1.314
.66
.45
.495
.45
1.288
0
1.054
-.749
1.65
-.749
.591
-2.082
.591
-.527
0
-1.104
-.114
-.578
-.108
-1.25
-.33
v-1.206
q.653
.336
1.25
.507
.596
.165
1.13
.165
.774
0
1.2
-.31
.425
-.318
.425
-.883
0
-.812
-1.555
-1.123
l-.051
-.013
-.438
-.089
q-1.01
-.197
-1.473
-.66
-.463
-.47
-.463
-1.276
0
-1.022
.692
-1.574
.692
-.559
1.974
-.559
.571
0
1.098
.108
.527
.102
1.035
.311
m5.547
-2.267
v2.019
h2.654
v.907
h-2.654
v3.86
q0
.787
.299
1.098
.298
.31
1.04
.31
h1.315
v.934
h-1.429
q-1.313
0
-1.853
-.527
t-.54
-1.815
v-3.86
h-1.898
v-.907
h1.898
v-2.019z
m7.84
2.837
q-.889
0
-1.346
.692
t-.457
2.05
q0
1.353
.457
2.05
.457
.693
1.346
.693
.895
0
1.352
-.692
.457
-.698
.457
-2.05
0
-1.359
-.457
-2.05
-.457
-.693
-1.352
-.693
m0
-.99
q1.479
0
2.26
.959
.787
.958
.787
2.774
0
1.821
-.781
2.78
-.78
.952
-2.266
.952
-1.48
0
-2.26
-.952
-.78
-.959
-.78
-2.78
0
-1.816
.78
-2.774
.78
-.959
2.26
-.959
m8.207
.895
q.216
-.457
.546
-.673
.337
-.222
.806
-.222
.857
0
1.206
.667
.356
.66
.356
2.494
v4.12
h-1.067
v-4.069
q0
-1.504
-.171
-1.866
-.165
-.368
-.61
-.368
-.507
0
-.698
.393
-.184
.387
-.184
1.841
v4.069
h-1.066
v-4.069
q0
-1.523
-.184
-1.879
-.178
-.355
-.648
-.355
-.463
0
-.647
.393
-.178
.387
-.178
1.841
v4.069
h-1.06
v-7.11
h1.06
v.61
q.21
-.381
.52
-.578
.318
-.203
.718
-.203
.482
0
.8
.222
.324
.222
.501
.673
m18.174
6.05
q-.49
.26
-1.003
.387
-.514
.133
-1.092
.133
-1.822
0
-2.831
-1.289
-1.003
-1.288
-1.003
-3.624
0
-2.323
1.01
-3.618
1.015
-1.302
2.824
-1.302
.578
0
1.092
.134
.514
.127
1.003
.387
v1.314
q-.47
-.387
-1.01
-.59
-.54
-.204
-1.085
-.204
-1.25
0
-1.873
.965
-.622
.965
-.622
2.914
0
1.942
.622
2.907
t1.873
.965
q.558
0
1.092
-.203
.54
-.203
1.003
-.59z
m4.925
-5.955
q-.888
0
-1.345
.692
t-.457
2.05
q0
1.353
.457
2.05
.457
.693
1.345
.693
.895
0
1.352
-.692
.457
-.698
.457
-2.05
0
-1.359
-.457
-2.05
-.457
-.693
-1.352
-.693
m0
-.99
q1.48
0
2.26
.959
.787
.958
.787
2.774
0
1.821
-.78
2.78
-.781
.952
-2.267
.952
-1.479
0
-2.26
-.952
-.78
-.959
-.78
-2.78
0
-1.816
.78
-2.774
.781
-.959
2.26
-.959
m7.973
4.704
q0
.787
.286
1.187
.292
.4
.857
.4
h1.364
v.99
h-1.479
q-1.047
0
-1.625
-.673
-.57
-.673
-.57
-1.904
v-6.456
h-1.873
v-.914
h3.04z
m7.68
-3.714
q-.888
0
-1.345
.692
t-.457
2.05
q0
1.353
.457
2.05
.457
.693
1.346
.693
.895
0
1.352
-.692
.457
-.698
.457
-2.05
0
-1.359
-.457
-2.05
-.457
-.693
-1.352
-.693
m0
-.99
q1.48
0
2.26
.959
.788
.958
.788
2.774
0
1.821
-.781
2.78
-.78
.952
-2.266
.952
-1.48
0
-2.26
-.952
-.78
-.959
-.78
-2.78
0
-1.816
.78
-2.774
.78
-.959
2.26
-.959
m5.155
4.59
v-4.406
h1.168
v4.405
q0
.959
.336
1.41
.343
.45
1.054
.45
.825
0
1.263
-.577
.438
-.584
.438
-1.67
v-4.018
h1.175
v7.097
h-1.175
v-1.067
q-.31
.616
-.85
.934
-.533
.317
-1.25
.317
-1.093
0
-1.626
-.711
-.533
-.717
-.533
-2.165
m13.92
-2.952
q-.374
-.292
-.761
-.425
t-.85
-.134
q-1.093
0
-1.67
.686
-.578
.685
-.578
1.98
v3.536
h-1.174
v-7.11
h1.174
v1.39
q.292
-.755
.895
-1.155
.61
-.406
1.441
-.406
.432
0
.806
.108
t.717
.336z
m6.139
-3.834
h1.206
l-4.99
10.683
h-1.212z
m2.73
0
h1.713
l1.638
4.824
1.65
-4.824
h1.72
v9.477
h-1.187
v-8.373
l-1.688
4.996
h-.971
l-1.695
-4.996
v8.373
h-1.18z
m11.19
3.186
q-.889
0
-1.346
.692
t-.457
2.05
q0
1.353
.457
2.05
.457
.693
1.346
.693
.895
0
1.352
-.692
.457
-.698
.457
-2.05
0
-1.359
-.457
-2.05
-.457
-.693
-1.352
-.693
m0
-.99
q1.479
0
2.26
.959
.787
.958
.787
2.774
0
1.821
-.78
2.78
-.782
.952
-2.267
.952
-1.479
0
-2.26
-.952
-.78
-.959
-.78
-2.78
0
-1.816
.78
-2.774
.781
-.959
2.26
-.959
m9.363
1.08
v-3.676
h1.168
v9.877
h-1.17
v-.895
q-.292
.527
-.781
.806
-.482
.273
-1.117
.273
-1.289
0
-2.031
-.997
-.737
-1.003
-.737
-2.76
0
-1.734
.743
-2.718
.743
-.99
2.025
-.99
.641
0
1.13
.28
.489
.272
.768
.8
m-3.434
2.653
q0
1.358
.431
2.05
.432
.692
1.276
.692
t1.282
-.698
q.445
-.699
.445
-2.044
0
-1.352
-.445
-2.044
-.438
-.699
-1.282
-.699
t-1.276
.692
-.431
2.05
m11.26
-2.654
v-3.675
h1.168
v9.877
h-1.168
v-.895
q-.292
.527
-.78
.806
-.483
.273
-1.117
.273
-1.29
0
-2.032
-.997
-.736
-1.003
-.736
-2.76
0
-1.734
.743
-2.718
.742
-.99
2.025
-.99
.64
0
1.13
.28
.488
.272
.767
.8
m-3.434
2.654
q0
1.358
.432
2.05
t1.276
.692
1.282
-.698
q.444
-.699
.444
-2.044
0
-1.352
-.444
-2.044
-.438
-.699
-1.282
-.699
t-1.276
.692
-.432
2.05
m12.873
-.299
v.572
h-5.059
v.038
q0
1.161
.603
1.796
.61
.635
1.714
.635
.559
0
1.168
-.178
.61
-.178
1.301
-.54
v1.162
q-.666
.273
-1.288
.406
-.616
.14
-1.193
.14
-1.657
0
-2.59
-.99
-.933
-.997
-.933
-2.742
0
-1.702
.914
-2.717
t2.437
-1.016
q1.359
0
2.14
.92
.786
.921
.786
2.514
m-1.168
-.343
q-.025
-1.028
-.488
-1.561
-.457
-.54
-1.32
-.54
-.845
0
-1.39
.559
-.547
.559
-.648
1.549z
m7.383
-2.012
v-3.675
h1.168
v9.877
h-1.168
v-.895
q-.292
.527
-.781
.806
-.482
.273
-1.117
.273
-1.289
0
-2.031
-.997
-.737
-1.003
-.737
-2.76
0
-1.734
.743
-2.718
.743
-.99
2.025
-.99
.641
0
1.13
.28
.488
.272
.768
.8
m-3.434
2.654
q0
1.358
.431
2.05
.432
.692
1.276
.692
t1.282
-.698
q.445
-.699
.445
-2.044
0
-1.352
-.445
-2.044
-.438
-.699
-1.282
-.699
t-1.276
.692
-.431
2.05
m20.452
3.211
q-.489
.26
-1.003
.388
-.514
.133
-1.092
.133
-1.822
0
-2.83
-1.289
-1.004
-1.288
-1.004
-3.624
0
-2.323
1.01
-3.618
1.015
-1.302
2.824
-1.302
.578
0
1.092
.134
.514
.127
1.003
.387
v1.314
q-.47
-.387
-1.01
-.59
-.539
-.204
-1.085
-.204
-1.25
0
-1.872
.965
t-.622
2.914
q0
1.942
.622
2.907
t1.872
.965
q.559
0
1.092
-.203
.54
-.203
1.003
-.59z
m5.472
-3.237
h-.388
q-1.022
0
-1.542
.362
-.514
.355
-.514
1.066
0
.642
.387
.997
t1.073
.355
q.964
0
1.517
-.666
.552
-.673
.558
-1.854
v-.26z
m2.266
-.482
v4.056
h-1.175
v-1.054
q-.374
.635
-.945
.94
-.565
.298
-1.378
.298
-1.085
0
-1.733
-.61
-.647
-.615
-.647
-1.643
0
-1.187
.793
-1.803
.8
-.616
2.342
-.616
h1.568
v-.184
q-.006
-.85
-.431
-1.231
-.426
-.388
-1.359
-.388
-.596
0
-1.206
.172
t-1.187
.501
v-1.168
q.648
-.247
1.238
-.368
.597
-.127
1.155
-.127
.883
0
1.505
.26
.628
.26
1.015
.781
.242
.318
.343
.787
.102
.464
.102
1.397
m5.395
-2.33
q.216
-.457
.546
-.673
.336
-.222
.806
-.222
.857
0
1.206
.667
.356
.66
.356
2.494
v4.12
h-1.067
v-4.069
q0
-1.504
-.171
-1.866
-.165
-.368
-.61
-.368
-.507
0
-.698
.393
-.184
.387
-.184
1.841
v4.069
h-1.066
v-4.069
q0
-1.523
-.184
-1.879
-.178
-.355
-.648
-.355
-.463
0
-.647
.393
-.178
.387
-.178
1.841
v4.069
h-1.06
v-7.11
h1.06
v.61
q.21
-.381
.52
-.578
.318
-.203
.718
-.203
.482
0
.8
.222
.323
.222
.501
.673
m5.916
5.49
v3.6
h-1.174
v-9.813
h1.174
v.907
q.292
-.527
.775
-.8
.488
-.279
1.123
-.279
1.289
0
2.019
.997
.736
.996
.736
2.761
0
1.733
-.736
2.723
-.737
.984
-2.019
.984
-.647
0
-1.136
-.273
-.483
-.28
-.762
-.806
m3.428
-2.652
q0
-1.359
-.432
-2.05
-.425
-.693
-1.27
-.693
-.85
0
-1.288
.699
-.438
.692
-.438
2.044
0
1.345
.438
2.044
.438
.698
1.289
.698
.844
0
1.27
-.692
.43
-.692
.43
-2.05
m6.475
-.026
h-.388
q-1.022
0
-1.542
.362
-.514
.355
-.514
1.066
0
.641
.387
.997
t1.073
.355
q.964
0
1.517
-.666
.552
-.673
.558
-1.854
v-.26z
m2.266
-.482
v4.056
h-1.175
v-1.054
q-.374
.635
-.945
.94
-.565
.298
-1.378
.298
-1.085
0
-1.733
-.61
-.647
-.615
-.647
-1.643
0
-1.187
.793
-1.803
.8
-.616
2.342
-.616
h1.568
v-.184
q-.006
-.85
-.431
-1.231
-.426
-.388
-1.359
-.388
-.596
0
-1.206
.172
t-1.187
.501
v-1.168
q.648
-.247
1.238
-.368
.597
-.127
1.155
-.127
.883
0
1.505
.26
.628
.26
1.015
.781
.241
.318
.343
.787
.102
.464
.102
1.397
m2.73
-3.053
h2.989
v6.201
h2.317
v.908
h-5.802
v-.908
h2.317
v-5.294
h-1.822z
m1.82
-2.768
h1.169
v1.479
h-1.168z
m9.827
6.265
q0
-1.314
-.432
-1.993
-.425
-.686
-1.244
-.686
-.857
0
-1.307
.686
-.451
.68
-.451
1.993
t.45
2.006
q.458
.685
1.321
.685
.806
0
1.231
-.691
.432
-.692
.432
-2
m1.168
3.155
q0
1.6
-.755
2.425
-.756
.825
-2.222
.825
-.482
0
-1.01
-.089
-.526
-.089
-1.053
-.26
v-1.156
q.622
.292
1.13
.432
t.933
.14
q.946
0
1.377
-.514
t.432
-1.632
v-.844
q-.28
.597
-.762
.889
t-1.174
.292
q-1.244
0
-1.987
-.997
-.742
-.997
-.742
-2.666
0
-1.676
.742
-2.672
.743
-.997
1.987
-.997
.686
0
1.162
.273
t.774
.844
v-.92
h1.168z
m7.884
-3.948
v4.405
h-1.174
v-4.405
q0
-.959
-.337
-1.41
-.336
-.45
-1.054
-.45
-.818
0
-1.263
.584
-.438
.577
-.438
1.663
v4.018
h-1.168
v-7.11
h1.168
v1.067
q.311
-.61
.844
-.92
.534
-.318
1.264
-.318
1.085
0
1.618
.717
.54
.711
.54
2.159
m7.331
-2.457
v1.143
q-.501
-.292
-1.009
-.438
t-1.035
-.146
q-.793
0
-1.187
.26
-.387
.254
-.387
.78
0
.477
.292
.712
t1.454
.457
l.47
.089
q.87
.165
1.314
.66
.45
.495
.45
1.288
0
1.054
-.749
1.65
-.749
.591
-2.082
.591
-.527
0
-1.104
-.114
-.578
-.108
-1.25
-.33
v-1.206
q.653
.336
1.25
.507
.596
.165
1.13
.165
.774
0
1.2
-.31
.425
-.318
.425
-.883
0
-.812
-1.556
-1.123
l-.05
-.013
-.438
-.089
q-1.01
-.197
-1.473
-.66
-.463
-.47
-.463
-1.276
0
-1.022
.691
-1.574
.692
-.559
1.975
-.559
.57
0
1.098
.108
.527
.102
1.034
.311"/>
            <path fill="#fff" d="
M313.292
483.999
v-7.744
h7.75
v7.744z"/>
            <path fill="#1e90ff" d="
M335.33
474.35
v1.302
q-.583
-.375
-1.174
-.565
-.584
-.19
-1.18
-.19
-.908
0
-1.435
.425
-.527
.419
-.527
1.136
0
.628
.343
.958
.349
.33
1.295
.553
l.673
.152
q1.333
.311
1.942
.978
.61
.666
.61
1.815
0
1.352
-.838
2.063
t-2.438
.711
q-.666
0
-1.34
-.146
-.672
-.14
-1.351
-.425
v-1.365
q.73
.463
1.377
.68
.654
.215
1.314
.215
.971
0
1.51
-.432
.54
-.438
.54
-1.218
0
-.711
-.374
-1.086
-.368
-.374
-1.289
-.578
l-.685
-.158
q-1.32
-.299
-1.917
-.902
t-.597
-1.618
q0
-1.27
.85
-2.031
.858
-.769
2.273
-.769
.546
0
1.149
.127
.603
.121
1.27
.369
m2.641
6.462
v-4.405
h1.168
v4.406
q0
.958
.337
1.409
.342
.45
1.053
.45
.825
0
1.263
-.577
.438
-.584
.438
-1.67
v-4.018
h1.175
v7.097
h-1.175
v-1.067
q-.31
.616
-.85
.934
-.533
.317
-1.25
.317
-1.092
0
-1.626
-.711
-.533
-.717
-.533
-2.165
m13.92
-2.951
q-.374
-.292
-.761
-.425
-.387
-.134
-.85
-.134
-1.092
0
-1.67
.686
-.578
.685
-.578
1.98
v3.536
h-1.174
v-7.11
h1.174
v1.39
q.292
-.755
.895
-1.155
.61
-.406
1.441
-.406
.432
0
.806
.108
t.718
.336z
m1.13
-1.466
h1.213
l2.063
5.966
2.07
-5.966
h1.212
l-2.527
7.109
h-1.504z
m8.817
0
h2.99
v6.201
h2.317
v.908
h-5.802
v-.908
h2.317
v-5.294
h-1.822z
m1.822
-2.768
h1.168
v1.479
h-1.168z
m5.015
2.768
h1.212
l2.063
5.966
2.07
-5.966
h1.212
l-2.526
7.109
H371.2z
m11.102
.818
q-.889
0
-1.346
.692
t-.457
2.05
q0
1.353
.457
2.05
.457
.693
1.346
.693
.895
0
1.352
-.692
.457
-.698
.457
-2.05
0
-1.359
-.457
-2.05
-.457
-.693
-1.352
-.693
m0
-.99
q1.479
0
2.26
.959
.787
.958
.787
2.774
0
1.821
-.781
2.78
-.78
.952
-2.266
.952
-1.48
0
-2.26
-.952
-.78
-.959
-.78
-2.78
0
-1.816
.78
-2.774
t2.26
-.959
m11.248
1.638
q-.375
-.292
-.762
-.425
-.387
-.134
-.85
-.134
-1.092
0
-1.67
.686
-.577
.685
-.577
1.98
v3.536
h-1.175
v-7.11
h1.175
v1.39
q.292
-.755
.895
-1.155
.609
-.406
1.44
-.406
.432
0
.807
.108
t.717
.336z"/>
            <path fill="#ffff73" d="
M399.385
483.999
v-7.744
h7.75
v7.744z"/>
            <path fill="#1e90ff" d="
M415.546
474.027
h1.714
l1.637
4.824
1.65
-4.824
h1.721
v9.477
h-1.187
v-8.373
l-1.688
4.996
h-.972
l-1.694
-4.996
v8.373
h-1.181z
m11.19
3.186
q-.888
0
-1.345
.692
t-.457
2.05
q0
1.353
.457
2.05
.457
.693
1.346
.693
.895
0
1.352
-.692
.457
-.698
.457
-2.05
0
-1.359
-.457
-2.05
-.457
-.693
-1.352
-.693
m0
-.99
q1.48
0
2.26
.959
.788
.958
.788
2.774
0
1.821
-.781
2.78
-.78
.952
-2.266
.952
-1.48
0
-2.26
-.952
-.78
-.959
-.78
-2.78
0
-1.816
.78
-2.774
t2.26
-.959
m10.589
2.876
v4.405
h-1.175
v-4.405
q0
-.959
-.336
-1.41
t-1.054
-.45
q-.819
0
-1.263
.584
-.438
.577
-.438
1.663
v4.018
h-1.168
v-7.11
h1.168
v1.067
q.311
-.61
.844
-.92
.534
-.318
1.263
-.318
1.086
0
1.62
.717
.539
.711
.539
2.159
m2.653
-5.472
h1.206
v5.72
l3.066
-2.952
h1.422
l-2.8
2.678
3.238
4.43
h-1.428
l-2.628
-3.668
-.87
.819
v2.85
h-1.206z"/>
            <path fill="#ff7373" d="
M454.171
483.999
v-7.744
h7.75
v7.744z"/>
            <path fill="#1e90ff" d="
M470.656
474.027
h1.289
v3.885
h3.51
v-3.885
h1.289
v9.477
h-1.289
v-4.513
h-3.51
v4.513
h-1.289z
m8.195
6.786
v-4.406
h1.168
v4.406
q0
.958
.336
1.409
.343
.45
1.054
.45
.825
0
1.263
-.577
.438
-.584
.438
-1.67
v-4.018
h1.175
v7.097
h-1.175
v-1.067
q-.31
.616
-.85
.934
-.533
.317
-1.25
.317
-1.093
0
-1.626
-.711
-.533
-.717
-.533
-2.165
m13.26
-1.714
v4.405
h-1.174
v-4.405
q0
-.959
-.336
-1.41
-.337
-.45
-1.054
-.45
-.819
0
-1.263
.584
-.438
.577
-.438
1.663
v4.018
h-1.168
v-7.11
h1.168
v1.067
q.31
-.61
.844
-.92
.533
-.318
1.263
-.318
1.086
0
1.619
.717
.54
.711
.54
2.159
m5.053
-4.723
v2.019
h2.653
v.907
h-2.653
v3.86
q0
.787
.298
1.098
.299
.31
1.041
.31
h1.314
v.934
h-1.428
q-1.314
0
-1.853
-.527
-.54
-.527
-.54
-1.815
v-3.86
h-1.898
v-.907
h1.898
v-2.019z
m10.988
5.281
v.572
h-5.06
v.038
q0
1.161
.604
1.796
.61
.635
1.714
.635
.558
0
1.168
-.178
t1.3
-.54
v1.162
q-.666
.273
-1.288
.406
-.615
.14
-1.193
.14
-1.657
0
-2.59
-.99
-.933
-.997
-.933
-2.742
0
-1.702
.914
-2.717
t2.438
-1.016
q1.358
0
2.139
.92
.787
.921
.787
2.514
m-1.168
-.343
q-.026
-1.028
-.489
-1.561
-.457
-.54
-1.32
-.54
-.844
0
-1.39
.559
t-.648
1.549z
m9.267
-1.453
q-.374
-.292
-.761
-.425
-.387
-.134
-.85
-.134
-1.093
0
-1.67
.686
-.578
.685
-.578
1.98
v3.536
h-1.174
v-7.11
h1.174
v1.39
q.292
-.755
.895
-1.155
.61
-.406
1.441
-.406
.432
0
.806
.108
t.717
.336z"/>
            <path fill="#17234f" d="
M524.611
483.999
v-7.744
h7.75
v7.744z"/>
            <path fill="#1e90ff" d="
M626.505
482.723
q-.514
.476
-1.161
.724
-.641
.241
-1.39
.241
-1.803
0
-2.806
-1.289
-1.003
-1.295
-1.003
-3.624
0
-2.323
1.016
-3.618
1.015
-1.302
2.824
-1.302
.597
0
1.143
.172
.546
.165
1.054
.508
v1.314
q-.515
-.49
-1.054
-.718
-.54
-.235
-1.143
-.235
-1.25
0
-1.879
.972
-.622
.965
-.622
2.907
0
1.974
.603
2.926
.61
.946
1.867
.946
.425
0
.742
-.095
.324
-.102
.584
-.311
v-2.546
h-1.377
v-1.053
h2.602z
m4.73
-5.51
q-.89
0
-1.346
.692
t-.457
2.05
q0
1.353
.457
2.05
.457
.693
1.345
.693
.895
0
1.352
-.692
.457
-.698
.457
-2.05
0
-1.359
-.457
-2.05
-.457
-.693
-1.352
-.693
m0
-.99
q1.478
0
2.26
.959
.786
.958
.786
2.774
0
1.821
-.78
2.78
-.781
.952
-2.267
.952
-1.479
0
-2.26
-.952
-.78
-.959
-.78
-2.78
0
-1.816
.78
-2.774
t2.26
-.959
m5.154
4.59
v-4.406
h1.168
v4.406
q0
.958
.336
1.409
.343
.45
1.054
.45
.825
0
1.263
-.577
.438
-.584
.438
-1.67
v-4.018
h1.174
v7.097
h-1.174
v-1.067
q-.311
.616
-.85
.934
-.534
.317
-1.251
.317
-1.092
0
-1.625
-.71
-.533
-.718
-.533
-2.165
m13.92
-2.952
q-.374
-.292
-.762
-.425
-.387
-.134
-.85
-.134
-1.092
0
-1.67
.686
-.577
.685
-.577
1.98
v3.536
h-1.175
v-7.11
h1.175
v1.39
q.292
-.755
.895
-1.155
.61
-.406
1.44
-.406
.432
0
.807
.108
t.717
.336z
m4.786
-.743
q.216
-.457
.546
-.673
.337
-.222
.806
-.222
.857
0
1.206
.667
.356
.66
.356
2.494
v4.12
h-1.067
v-4.069
q0
-1.504
-.171
-1.866
-.165
-.368
-.61
-.368
-.507
0
-.698
.393
-.184
.387
-.184
1.841
v4.069
h-1.066
v-4.069
q0
-1.523
-.184
-1.879
-.178
-.355
-.648
-.355
-.463
0
-.647
.393
-.178
.387
-.178
1.841
v4.069
h-1.06
v-7.11
h1.06
v.61
q.21
-.381
.52
-.578
.318
-.203
.718
-.203
.482
0
.8
.222
.323
.222
.501
.673
m7.992
2.812
h-.387
q-1.022
0
-1.543
.362
-.514
.355
-.514
1.066
0
.642
.387
.997
t1.073
.355
q.965
0
1.517
-.666
.552
-.673
.559
-1.854
v-.26z
m2.266
-.482
v4.056
h-1.174
v-1.054
q-.375
.635
-.946
.94
-.565
.298
-1.378
.298
-1.085
0
-1.732
-.61
-.648
-.615
-.648
-1.643
0
-1.187
.794
-1.803
.8
-.616
2.342
-.616
h1.568
v-.184
q-.006
-.85
-.432
-1.231
-.425
-.388
-1.358
-.388
-.597
0
-1.206
.172
-.61
.171
-1.187
.501
v-1.168
q.647
-.247
1.237
-.368
.597
-.127
1.156
-.127
.882
0
1.504
.26
.628
.26
1.016
.781
.24
.318
.342
.787
.102
.464
.102
1.397
m7.776
-.35
v4.406
h-1.174
v-4.405
q0
-.959
-.337
-1.41
-.336
-.45
-1.054
-.45
-.818
0
-1.263
.584
-.438
.577
-.438
1.663
v4.018
h-1.168
v-7.11
h1.168
v1.067
q.311
-.61
.845
-.92
.533
-.318
1.263
-.318
1.085
0
1.618
.717
.54
.711
.54
2.159
m6.601
-1.796
v-3.675
h1.168
v9.877
h-1.168
v-.895
q-.292
.527
-.78
.806
-.483
.273
-1.118
.273
-1.288
0
-2.03
-.997
-.737
-1.003
-.737
-2.76
0
-1.734
.743
-2.718
.742
-.99
2.024
-.99
.642
0
1.13
.28
.49
.272
.768
.8
m-3.434
2.654
q0
1.358
.432
2.05
t1.276
.692
1.282
-.698
q.444
-.699
.444
-2.044
0
-1.352
-.444
-2.044
-.438
-.699
-1.282
-.699
t-1.276
.692
-.432
2.05"/>
            <path fill="#70223b" d="
M689.976
483.999
v-7.744
h7.75
v7.744z"/>
            <path fill="#1e90ff" d="
m709.501
475.157
-1.352
4.85
h2.704z
m-.774
-1.13
h1.555
l2.9
9.477
h-1.326
l-.698
-2.47
h-3.32
l-.685
2.47
h-1.327z
m12.022
3.834
q-.374
-.292
-.761
-.425
t-.851
-.134
q-1.092
0
-1.67
.686
-.577
.685
-.577
1.98
v3.536
h-1.174
v-7.11
h1.174
v1.39
q.292
-.755
.895
-1.155
.61
-.406
1.44
-.406
.433
0
.807
.108
t.717
.336z
m4.393
-3.485
v2.019
h2.653
v.907
h-2.653
v3.86
q0
.787
.298
1.098
.299
.31
1.041
.31
h1.314
v.934
h-1.428
q-1.314
0
-1.853
-.527
-.54
-.527
-.54
-1.815
v-3.86
h-1.898
v-.907
h1.898
v-2.019z
m5.554
2.019
h2.99
v6.201
h2.317
v.908
H730.2
v-.908
h2.317
v-5.294
h-1.822z
m1.822
-2.768
h1.168
v1.479
h-1.168z
m11.127
0
v.971
h-1.326
q-.629
0
-.876
.26
-.242
.254
-.242
.908
v.629
h2.444
v.907
h-2.444
v6.202
h-1.167
v-6.202
h-1.898
v-.907
h1.898
v-.496
q0
-1.168
.533
-1.72
.54
-.552
1.675
-.552z
m2.704
2.768
h2.99
v6.201
h2.317
v.908
h-5.802
v-.908
h2.317
v-5.294
h-1.822z
m1.822
-2.768
h1.168
v1.479
h-1.168z
m11.115
9.515
q-.47
.273
-.971
.406
-.495
.14
-1.016
.14
-1.65
0
-2.583
-.99
-.927
-.99
-.927
-2.742
t.927
-2.743
q.933
-.99
2.583
-.99
.514
0
1.003
.133
.489
.134
.984
.413
v1.225
q-.463
-.412
-.933
-.597
-.464
-.184
-1.054
-.184
-1.098
0
-1.688
.711
t-.59
2.032
q0
1.314
.59
2.03
.596
.712
1.688
.712
.61
0
1.092
-.184
.482
-.19
.895
-.584z
m8.15
-3.485
v.572
h-5.059
v.038
q0
1.161
.603
1.796
.61
.635
1.714
.635
.559
0
1.168
-.178
.61
-.178
1.301
-.54
v1.162
q-.666
.273
-1.288
.406
-.616
.14
-1.194
.14
-1.656
0
-2.59
-.99
-.932
-.997
-.932
-2.742
0
-1.702
.914
-2.717
t2.437
-1.016
q1.358
0
2.14
.92
.786
.921
.786
2.514
m-1.168
-.343
q-.025
-1.028
-.488
-1.561
-.457
-.54
-1.32
-.54
-.845
0
-1.39
.559
-.547
.559
-.648
1.549z
m9.268
-1.453
q-.375
-.292
-.762
-.425
t-.85
-.134
q-1.092
0
-1.67
.686
-.577
.685
-.577
1.98
v3.536
h-1.175
v-7.11
h1.175
v1.39
q.292
-.755
.895
-1.155
.609
-.406
1.44
-.406
.432
0
.807
.108
t.717
.336z"/>
            <path fill="#91ccf0" d="
M235.871
500.25
v-7.745
h7.75
v7.744z"/>
            <path fill="#1e90ff" d="
M256.627
495.577
q.495
.127
.844
.482
.349
.35
.87
1.403
l1.288
2.59
h-1.377
l-1.13
-2.393
q-.49
-1.022
-.883
-1.314
-.387
-.299
-1.015
-.299
h-1.225
v4.006
h-1.289
v-9.477
h2.64
q1.562
0
2.394
.704
.831
.705
.831
2.038
0
.94
-.514
1.536
-.508
.59
-1.434
.724
m-2.628
-3.949
v3.365
h1.402
q.92
0
1.372
-.413
.45
-.412
.45
-1.263
0
-.819
-.482
-1.25
-.476
-.439
-1.39
-.439z
m7.255
1.314
h2.99
v6.202
h2.317
v.908
h-5.802
v-.908
h2.317
v-5.294
h-1.822z
m1.822
-2.767
h1.168
v1.479
h-1.168z
m5.014
2.767
h1.213
l2.063
5.967
2.07
-5.967
h1.212
l-2.527
7.11
h-1.504z
m8.43
4.418
v-4.405
h1.168
v4.405
q0
.959
.337
1.41
.342
.45
1.053
.45
.825
0
1.263
-.577
.438
-.584
.438
-1.67
v-4.018
h1.175
v7.097
h-1.175
v-1.067
q-.31
.616
-.85
.933
-.533
.318
-1.25
.318
-1.092
0
-1.626
-.711
-.533
-.717
-.533
-2.165
m10.645
.115
q0
.787
.286
1.187
.292
.4
.857
.4
h1.364
v.99
h-1.479
q-1.047
0
-1.625
-.673
-.57
-.673
-.57
-1.904
v-6.456
h-1.873
v-.914
h3.04z
m10.83
-1.27
v.571
h-5.06
v.038
q0
1.162
.603
1.797
.61
.635
1.714
.635
.559
0
1.168
-.178
.61
-.178
1.301
-.54
v1.162
q-.666
.273
-1.288
.406
-.616
.14
-1.194
.14
-1.656
0
-2.59
-.99
-.933
-.997
-.933
-2.743
0
-1.7
.914
-2.716
.915
-1.016
2.438
-1.016
1.358
0
2.14
.92
.786
.92
.786
2.514
m-1.169
-.343
q-.025
-1.028
-.488
-1.561
-.458
-.54
-1.32
-.54
-.845
0
-1.39
.559
-.547
.558
-.648
1.549z
m5.834
-4.938
v2.018
h2.653
v.908
h-2.653
v3.86
q0
.787
.298
1.098
.298
.31
1.041
.31
h1.314
v.934
h-1.428
q-1.314
0
-1.854
-.527
t-.54
-1.816
v-3.859
h-1.897
v-.908
h1.898
v-2.018z"/>
            <path fill="#4f2d68" d="
M314.618
500.249
v-7.744
h7.75
v7.744z"/>
            <path fill="#1e90ff" d="
M336.657
490.6
v1.302
q-.584
-.375
-1.174
-.565
-.584
-.19
-1.18
-.19
-.908
0
-1.435
.425
-.527
.419
-.527
1.136
0
.628
.343
.958
.349
.33
1.295
.553
l.672
.152
q1.333
.311
1.943
.978
.61
.666
.61
1.815
0
1.352
-.839
2.063
t-2.437
.711
q-.667
0
-1.34
-.146
-.672
-.14
-1.352
-.425
v-1.365
q.73
.463
1.378
.68
.654
.215
1.314
.215
.97
0
1.51
-.432
.54
-.438
.54
-1.218
0
-.711
-.374
-1.086
-.369
-.374
-1.29
-.578
l-.685
-.158
q-1.32
-.299
-1.917
-.902
-.596
-.603
-.596
-1.618
0
-1.27
.85
-2.031
.857
-.769
2.273
-.769
.546
0
1.149
.127
.603
.121
1.27
.369
m3.783
8.259
v3.599
h-1.174
v-9.813
h1.174
v.907
q.292
-.527
.775
-.8
.489
-.279
1.123
-.279
1.289
0
2.019
.997
.736
.996
.736
2.761
0
1.733
-.736
2.723
-.736
.984
-2.019
.984
-.647
0
-1.136
-.273
-.482
-.28
-.762
-.806
m3.428
-2.653
q0
-1.359
-.431
-2.05
-.426
-.693
-1.27
-.693
-.85
0
-1.289
.699
-.438
.692
-.438
2.044
0
1.345
.438
2.044
t1.289
.698
q.844
0
1.27
-.692
.431
-.692
.431
-2.05
m9.077
-.299
v.572
h-5.059
v.038
q0
1.161
.603
1.796
.61
.635
1.714
.635
.559
0
1.168
-.178
.61
-.178
1.301
-.54
v1.162
q-.666
.273
-1.288
.406
-.616
.14
-1.194
.14
-1.656
0
-2.59
-.99
-.933
-.997
-.933
-2.742
0
-1.702
.915
-2.717
.914
-1.016
2.437
-1.016
1.358
0
2.14
.92
.786
.921
.786
2.514
m-1.168
-.343
q-.025
-1.028
-.488
-1.561
-.457
-.54
-1.32
-.54
-.845
0
-1.39
.559
-.547
.559
-.648
1.549z
m6.392
.616
h-.387
q-1.022
0
-1.542
.362
-.514
.355
-.514
1.066
0
.642
.387
.997
t1.073
.355
q.964
0
1.517
-.666
.552
-.673
.558
-1.854
v-.26z
m2.267
-.482
v4.056
h-1.175
V498.7
q-.374
.635
-.946
.94
-.565
.298
-1.377
.298
-1.085
0
-1.733
-.61
-.647
-.615
-.647
-1.643
0
-1.187
.793
-1.803
.8
-.616
2.342
-.616
h1.568
v-.184
q-.006
-.85
-.431
-1.231
-.426
-.388
-1.359
-.388
-.596
0
-1.206
.172
t-1.187
.501
v-1.168
q.648
-.247
1.238
-.368
.597
-.127
1.155
-.127
.883
0
1.505
.26
.628
.26
1.015
.781
.241
.318
.343
.787
.102
.464
.102
1.397
m8.436
-1.587
q-.375
-.292
-.762
-.425
-.387
-.134
-.85
-.134
-1.093
0
-1.67
.686
-.578
.685
-.578
1.98
v3.536
h-1.174
v-7.11
h1.174
v1.39
q.292
-.755
.895
-1.155
.61
-.406
1.441
-.406
.432
0
.806
.108
t.718
.336z
m4.786
-.743
q.216
-.457
.546
-.673
.336
-.222
.806
-.222
.857
0
1.206
.667
.355
.66
.355
2.494
v4.12
h-1.066
v-4.069
q0
-1.504
-.171
-1.866
-.166
-.368
-.61
-.368
-.508
0
-.698
.393
-.184
.387
-.184
1.841
v4.069
h-1.067
v-4.069
q0
-1.523
-.184
-1.879
-.177
-.355
-.647
-.355
-.464
0
-.648
.393
-.177
.387
-.177
1.841
v4.069
h-1.06
v-7.11
h1.06
v.61
q.21
-.381
.52
-.578
.318
-.203
.717
-.203
.483
0
.8
.222
.324
.222
.502
.673
m7.991
2.812
h-.387
q-1.022
0
-1.542
.362
-.514
.355
-.514
1.066
0
.642
.387
.997
t1.073
.355
q.964
0
1.517
-.666
.552
-.673
.558
-1.854
v-.26z
m2.267
-.482
v4.056
h-1.175
V498.7
q-.374
.635
-.946
.94
-.565
.298
-1.377
.298
-1.085
0
-1.733
-.61
-.647
-.615
-.647
-1.643
0
-1.187
.793
-1.803
.8
-.616
2.342
-.616
h1.568
v-.184
q-.006
-.85
-.431
-1.231
-.426
-.388
-1.359
-.388
-.597
0
-1.206
.172
-.61
.171
-1.187
.501
v-1.168
q.648
-.247
1.238
-.368
.597
-.127
1.155
-.127
.882
0
1.505
.26
.628
.26
1.015
.781
.241
.318
.343
.787
.102
.464
.102
1.397
m7.28
-2.806
v1.143
q-.501
-.292
-1.009
-.438
t-1.035
-.146
q-.793
0
-1.187
.26
-.387
.254
-.387
.78
0
.477
.292
.712
t1.454
.457
l.47
.089
q.87
.165
1.313
.66
.451
.495
.451
1.288
0
1.054
-.749
1.65
-.749
.591
-2.082
.591
-.527
0
-1.104
-.114
-.578
-.108
-1.25
-.33
v-1.206
q.653
.336
1.25
.507
.596
.165
1.13
.165
.774
0
1.2
-.31
.424
-.318
.424
-.883
0
-.812
-1.555
-1.123
l-.05
-.013
-.439
-.089
q-1.009
-.197
-1.472
-.66
-.464
-.47
-.464
-1.276
0
-1.022
.692
-1.574
.692
-.559
1.974
-.559
.572
0
1.099
.108
.526
.102
1.034
.311
m5.548
-2.266
v2.019
h2.653
v.907
h-2.653
v3.86
q0
.787
.298
1.098
.299
.31
1.042
.31
h1.313
v.934
h-1.428
q-1.314
0
-1.853
-.527
-.54
-.527
-.54
-1.815
v-3.86
h-1.898
v-.907
h1.898
v-2.019z
m10.988
5.281
v.572
h-5.06
v.038
q0
1.161
.604
1.796
.61
.635
1.714
.635
.558
0
1.168
-.178
t1.301
-.54
v1.162
q-.667
.273
-1.289
.406
-.615
.14
-1.193
.14
-1.657
0
-2.59
-.99
-.933
-.997
-.933
-2.742
0
-1.702
.914
-2.717
t2.438
-1.016
q1.358
0
2.139
.92
.787
.921
.787
2.514
m-1.168
-.343
q-.025
-1.028
-.489
-1.561
-.457
-.54
-1.32
-.54
-.844
0
-1.39
.559
t-.648
1.549z
m9.268
-1.453
q-.375
-.292
-.762
-.425
-.387
-.134
-.85
-.134
-1.093
0
-1.67
.686
-.578
.685
-.578
1.98
v3.536
h-1.174
v-7.11
h1.174
v1.39
q.292
-.755
.895
-1.155
.61
-.406
1.441
-.406
.432
0
.806
.108
t.718
.336z"/>
            <path fill="#aaf155" d="
M424.191
500.249
v-7.744
h7.75
v7.744z"/>
            <path fill="#1e90ff" d="
M446.23
490.6
v1.302
q-.584
-.375
-1.174
-.565
-.584
-.19
-1.18
-.19
-.908
0
-1.435
.425
-.527
.419
-.527
1.136
0
.628
.343
.958
.349
.33
1.295
.553
l.673
.152
q1.333
.311
1.942
.978
.61
.666
.61
1.815
0
1.352
-.839
2.063
t-2.437
.711
q-.667
0
-1.34
-.146
-.672
-.14
-1.351
-.425
v-1.365
q.73
.463
1.377
.68
.654
.215
1.314
.215
.971
0
1.51
-.432
.54
-.438
.54
-1.218
0
-.711
-.374
-1.086
-.368
-.374
-1.289
-.578
l-.685
-.158
q-1.32
-.299
-1.917
-.902
t-.597
-1.618
q0
-1.27
.85
-2.031
.857
-.769
2.273
-.769
.546
0
1.149
.127
.603
.121
1.27
.369
m5.86
5.58
h-.388
q-1.022
0
-1.542
.362
-.514
.355
-.514
1.066
0
.642
.387
.997
t1.072
.355
q.965
0
1.518
-.666
.552
-.673
.558
-1.854
v-.26z
m2.265
-.482
v4.056
h-1.174
V498.7
q-.374
.635
-.946
.94
-.565
.298
-1.377
.298
-1.086
0
-1.733
-.61
-.647
-.615
-.647
-1.643
0
-1.187
.793
-1.803
.8
-.616
2.342
-.616
h1.568
v-.184
q-.006
-.85
-.431
-1.231
-.426
-.388
-1.359
-.388
-.597
0
-1.206
.172
-.61
.171
-1.187
.501
v-1.168
q.648
-.247
1.238
-.368
.597
-.127
1.155
-.127
.882
0
1.505
.26
.628
.26
1.015
.781
.241
.318
.343
.787
.101
.464
.101
1.397
m2.73
-3.053
h2.99
v6.201
h2.317
v.908
h-5.802
v-.908
h2.317
v-5.294
h-1.822z
m1.822
-2.768
h1.168
v1.479
h-1.168z
m11.051
5.472
v4.405
h-1.174
v-4.405
q0
-.959
-.337
-1.41
-.336
-.45
-1.053
-.45
-.82
0
-1.264
.584
-.438
.577
-.438
1.663
v4.018
h-1.168
v-7.11
h1.168
v1.067
q.311
-.61
.845
-.92
.533
-.318
1.263
-.318
1.085
0
1.618
.717
.54
.711
.54
2.159
m5.053
-4.723
v2.019
h2.653
v.907
h-2.653
v3.86
q0
.787
.298
1.098
.298
.31
1.041
.31
h1.314
v.934
h-1.428
q-1.314
0
-1.854
-.527
t-.54
-1.815
v-3.86
h-1.897
v-.907
h1.898
v-2.019z"/>
            <path fill="#16234f" d="
M486.805
500.249
v-7.744
h7.75
v7.744z"/>
            <path fill="#1e90ff" d="
M515.287
492.905
q-.248
-.013
-.413
-.013
-1.11
0
-3.117
.387
.203
.52
.203
.978
0
.616
-.298
1.085
-.349
.533
-.933
.533
-.355
0
-.552
-.406
-.159
-.323
-.159
-.723
0
-.527
.267
-.876
.21
.45
.552
.603
.425
-.4
.578
-1.13
-1.156
.235
-2.482
.596
-.121
.426
-.121
.851
0
.914
.489
1.473
.514
.584
1.415
.584
.565
0
1.029
-.299
.298
-.19
.806
-.717
.127
-.133
.431
-.374
-.006
.977
-.87
1.694
-.818
.68
-1.821
.68
-.92
0
-1.574
-.534
-.698
-.577
-.698
-1.479
0
-1.053
.463
-1.752
-2.361
.673
-4.202
1.429
.457
.793
1.961
1.637
1.225
.686
2.412
1.054
1.092
.336
1.924
.336
.26
0
.774
-.063
.514
-.07
.768
-.07
.12
0
.229
.057
-.197
.343
-.933
.553
-.59
.17
-1.118
.17
-2.107
0
-4.38
-1.072
-2.481
-1.174
-3.364
-2.888
3.377
-1.784
8.88
-2.647
1.296
-.203
2.184
-.203
1.384
0
1.67
.546"/>
            <path fill="#1e90ff" d="
M541.228
474.029
h1.25
l.908
7.693
1.079
-5.09
h1.34
l1.091
5.103
.908
-7.706
h1.25
l-1.415
9.477
h-1.213
l-1.288
-5.63
-1.283
5.63
h-1.212z
m12.282
5.903
h-.387
q-1.022
0
-1.542
.362
-.515
.356
-.515
1.067
0
.64
.388
.996
t1.072
.356
q.965
0
1.518
-.667
.552
-.673
.558
-1.853
v-.26z
m2.266
-.482
v4.056
h-1.174
v-1.054
q-.374
.635
-.946
.94
-.565
.298
-1.377
.298
-1.086
0
-1.733
-.61
-.648
-.615
-.648
-1.643
0
-1.187
.794
-1.803
.8
-.616
2.342
-.616
h1.568
v-.184
q-.006
-.85
-.431
-1.231
-.426
-.387
-1.359
-.387
-.597
0
-1.206
.171
-.61
.171
-1.187
.501
v-1.168
q.647
-.247
1.238
-.368
.596
-.127
1.155
-.127
.882
0
1.505
.26
.628
.26
1.015
.781
.241
.318
.343
.787
.101
.464
.101
1.397
m5.002
-5.072
v2.019
h2.654
v.907
h-2.654
v3.86
q0
.787
.299
1.098
.298
.311
1.04
.311
h1.315
v.933
h-1.428
q-1.314
0
-1.854
-.527
t-.54
-1.815
v-3.86
h-1.897
v-.907
h1.897
v-2.019z
m10.665
8.766
q-.47
.273
-.972
.407
-.495
.14
-1.015
.14
-1.65
0
-2.584
-.991
-.926
-.99
-.926
-2.742
t.926
-2.742
q.933
-.99
2.584
-.99
.514
0
1.003
.133
t.984
.412
v1.225
q-.464
-.412
-.934
-.596
-.463
-.184
-1.053
-.184
-1.098
0
-1.689
.71
-.59
.711
-.59
2.032
0
1.314
.59
2.031
.597
.711
1.689
.711
.61
0
1.092
-.184
.482
-.19
.895
-.584z
m7.763
-4.043
v4.405
h-1.174
v-4.405
q0
-.959
-.337
-1.41
-.336
-.45
-1.054
-.45
-.818
0
-1.263
.584
-.438
.578
-.438
1.663
v4.018
h-1.168
v-9.877
h1.168
v3.834
q.311
-.61
.844
-.92
.534
-.318
1.264
-.318
1.085
0
1.618
.718
.54
.71
.54
2.158
m8.214
.558
v.572
h-5.06
v.038
q0
1.161
.604
1.796
.61
.635
1.714
.635
.558
0
1.168
-.178
t1.3
-.54
v1.162
q-.666
.273
-1.288
.407
-.615
.14
-1.193
.14
-1.657
0
-2.59
-.991
-.933
-.997
-.933
-2.742
0
-1.701
.914
-2.717
t2.437
-1.016
q1.359
0
2.14
.92
.787
.921
.787
2.514
m-1.168
-.342
q-.026
-1.029
-.489
-1.562
-.457
-.54
-1.32
-.54
-.845
0
-1.39
.56
-.546
.558
-.648
1.548z
m9.267
-1.454
q-.374
-.292
-.761
-.425
t-.85
-.134
q-1.093
0
-1.67
.686
-.578
.686
-.578
1.98
v3.536
h-1.174
v-7.11
h1.174
v1.39
q.292
-.754
.895
-1.154
.61
-.407
1.441
-.407
.432
0
.806
.108
t.717
.337z" aria-label="Watcher"/>
            <path fill="#f0c097" d="
M603.882
483.999
v-7.744
h7.75
v7.744z"/>
        </g>
    </svg>
</svg>
