<svg class="plot-d6a7b5" fill="currentColor" font-family="system-ui, sans-serif" font-size="10" text-anchor="middle" width="830" height="470" viewBox="0 0 830 470" xmlns="http://www.w3.org/2000/svg" xmlns:xlink="http://www.w3.org/1999/xlink" color="#1e90ff"><style>:where(.plot-d6a7b5){--plot-background: white;display:block;height:intrinsic;max-width:100%}:where(.plot-d6a7b5 text),:where(.plot-d6a7b5 tspan){white-space:pre}</style><g aria-label="y-grid" stroke="currentColor" stroke-opacity=".1"><line x1="60" x2="770" y1="410" y2="410"/><line x1="60" x2="770" y1="370.34" y2="370.34"/><line x1="60" x2="770" y1="330.679" y2="330.679"/><line x1="60" x2="770" y1="291.019" y2="291.019"/><line x1="60" x2="770" y1="251.359" y2="251.359"/><line x1="60" x2="770" y1="211.698" y2="211.698"/><line x1="60" x2="770" y1="172.038" y2="172.038"/><line x1="60" x2="770" y1="132.378" y2="132.378"/><line x1="60" x2="770" y1="92.717" y2="92.717"/></g><g aria-label="y-axis tick" fill="none" stroke="currentColor"><path transform="translate(60,410)" d="M0,0L-6,0"/><path transform="translate(60,370.3396736974982)" d="M0,0L-6,0"/><path transform="translate(60,330.67934739499646)" d="M0,0L-6,0"/><path transform="translate(60,291.01902109249465)" d="M0,0L-6,0"/><path transform="translate(60,251.35869478999288)" d="M0,0L-6,0"/><path transform="translate(60,211.6983684874911)" d="M0,0L-6,0"/><path transform="translate(60,172.03804218498937)" d="M0,0L-6,0"/><path transform="translate(60,132.37771588248756)" d="M0,0L-6,0"/><path transform="translate(60,92.71738957998579)" d="M0,0L-6,0"/></g><g aria-label="y-axis tick label" text-anchor="end" font-variant="tabular-nums"><text y=".32em" transform="translate(-9,0) translate(60,410)">0</text><text y=".32em" transform="translate(-9,0) translate(60,370.3396736974982)">50,000</text><text y=".32em" transform="translate(-9,0) translate(60,330.67934739499646)">100,000</text><text y=".32em" transform="translate(-9,0) translate(60,291.01902109249465)">150,000</text><text y=".32em" transform="translate(-9,0) translate(60,251.35869478999288)">200,000</text><text y=".32em" transform="translate(-9,0) translate(60,211.6983684874911)">250,000</text><text y=".32em" transform="translate(-9,0) translate(60,172.03804218498937)">300,000</text><text y=".32em" transform="translate(-9,0) translate(60,132.37771588248756)">350,000</text><text y=".32em" transform="translate(-9,0) translate(60,92.71738957998579)">400,000</text></g><g aria-label="y-axis label" text-anchor="start"><text y=".71em" transform="translate(-57,-57) translate(60,60)">↑ Total Vestiges (∞ Lifespan)</text></g><g aria-label="x-axis tick" fill="none" stroke="currentColor"><path transform="translate(66.99124726477024,410)" d="M0,0L0,6"/><path transform="translate(139.23413566739606,410)" d="M0,0L0,6"/><path transform="translate(209.1466083150985,410)" d="M0,0L0,6"/><path transform="translate(281.3894967177243,410)" d="M0,0L0,6"/><path transform="translate(351.30196936542666,410)" d="M0,0L0,6"/><path transform="translate(423.5448577680525,410)" d="M0,0L0,6"/><path transform="translate(495.7877461706783,410)" d="M0,0L0,6"/><path transform="translate(565.7002188183808,410)" d="M0,0L0,6"/><path transform="translate(637.9431072210066,410)" d="M0,0L0,6"/><path transform="translate(707.855579868709,410)" d="M0,0L0,6"/></g><g aria-label="x-axis tick label" font-variant="tabular-nums"><text transform="translate(0,9) translate(66.99124726477024,410)"><tspan x="0" y=".71em">Mar</tspan><tspan x="0" dy="1em">2023</tspan></text><text y=".71em" transform="translate(0,9) translate(139.23413566739606,410)">Apr</text><text y=".71em" transform="translate(0,9) translate(209.1466083150985,410)">May</text><text y=".71em" transform="translate(0,9) translate(281.3894967177243,410)">Jun</text><text y=".71em" transform="translate(0,9) translate(351.30196936542666,410)">Jul</text><text y=".71em" transform="translate(0,9) translate(423.5448577680525,410)">Aug</text><text y=".71em" transform="translate(0,9) translate(495.7877461706783,410)">Sep</text><text y=".71em" transform="translate(0,9) translate(565.7002188183808,410)">Oct</text><text y=".71em" transform="translate(0,9) translate(637.9431072210066,410)">Nov</text><text y=".71em" transform="translate(0,9) translate(707.855579868709,410)">Dec</text></g><g aria-label="line" fill="none" stroke="currentColor" stroke-width="1.5" stroke-linejoin="round" stroke-linecap="round"><path d="M60,410L61.554,409.602L63.107,408.145L64.661,407.36L66.214,406.803L67.768,405.885L69.322,405.161L70.875,404.483L72.429,403.111L73.982,402.025L75.536,400.736L77.09,398.74L78.643,396.857L80.197,395.88L81.751,394.466L83.304,393.505L84.858,392.404L86.411,390.965L87.965,389.995L89.519,389.045L91.072,387.755L92.626,386.325L94.179,385.312L95.733,383.584L97.287,382.765L98.84,382.001L100.394,380.624L101.947,379.304L103.501,378.289L105.055,376.874L106.608,375.463L108.162,374.178L109.716,372.186L111.269,370.606L112.823,369.691L114.376,368.737L115.93,368.02L117.484,367.44L119.037,366.364L120.591,365.312L122.144,364.579L123.698,362.882L125.252,361.108L126.805,359.519L128.359,357.593L129.912,356.287L131.466,355.175L133.02,353.66L134.573,352.393L136.127,351.475L137.681,349.822L139.234,348.223L140.788,346.732L142.341,344.595L143.895,342.565L145.449,341.509L147.002,339.942L148.556,338.529L150.109,337.262L151.663,335.469L153.217,333.784L154.77,332.32L156.324,330.561L157.877,328.875L159.431,327.422L160.985,325.469L162.538,324.267L164.092,323.183L165.646,321.67L167.199,320.432L168.753,319.506L170.306,318.313L171.86,317.026L173.414,315.826L174.967,314.251L176.521,312.691L178.074,311.802L179.628,310.568L181.182,309.604L182.735,308.97L184.289,307.989L185.842,307.012L187.396,305.976L188.95,304.634L190.503,303.269L192.057,302.204L193.611,300.729L195.164,299.693L196.718,299.016L198.271,297.462L199.825,296.388L201.379,295.807L202.932,294.834L204.486,293.895L206.039,292.918L207.593,291.576L209.147,290.408L210.7,289.402L212.254,288.528L213.807,287.753L215.361,287.01L216.915,285.792L218.468,285.098L220.022,284.393L221.575,283.248L223.129,281.95L224.683,280.933L226.236,279.624L227.79,278.742L229.344,277.922L230.897,276.735L232.451,275.923L234.004,275.149L235.558,274.117L237.112,273.309L238.665,272.333L240.219,271.3L241.772,270.362L243.326,269.584L244.88,268.77L246.433,268.058L247.987,267.388L249.54,266.444L251.094,265.725L252.648,265.077L254.201,264.008L255.755,262.618L257.309,261.605L258.862,260.285L260.416,259.496L261.969,258.591L263.523,257.657L265.077,256.803L266.63,256.204L268.184,255.015L269.737,254.081L271.291,253.1L272.845,251.675L274.398,250.627L275.952,249.71L277.505,248.773L279.059,247.75L280.613,246.959L282.166,246.184L283.72,245.159L285.274,244.555L286.827,243.752L288.381,243.028L289.934,242.347L291.488,241.388L293.042,240.696L294.595,239.974L296.149,239.007L297.702,238.316L299.256,237.677L300.81,236.987L302.363,236.173L303.917,235.408L305.47,234.61L307.024,233.745L308.578,233.066L310.131,232.234L311.685,231.536L313.239,230.841L314.792,229.877L316.346,229.075L317.899,228.442L319.453,227.611L321.007,226.821L322.56,226.25L324.114,225.269L325.667,224.52L327.221,223.748L328.775,222.891L330.328,222.161L331.882,221.727L333.435,220.931L334.989,220.282L336.543,219.51L338.096,218.591L339.65,217.864L341.204,217.063L342.757,216.182L344.311,215.379L345.864,214.674L347.418,213.526L348.972,212.592L350.525,212.055L352.079,211.195L353.632,210.43L355.186,209.97L356.74,209.155L358.293,208.628L359.847,208.002L361.4,207.241L362.954,206.532L364.508,205.971L366.061,205.085L367.615,204.435L369.168,203.847L370.722,203.022L372.276,202.281L373.829,201.697L375.383,200.802L376.937,200.233L378.49,199.585L380.044,198.764L381.597,198.097L383.151,197.34L384.705,196.473L386.258,195.714L387.812,195.068L389.365,194.327L390.919,193.456L392.473,192.775L394.026,192.136L395.58,191.46L397.133,190.945L398.687,190.063L400.241,189.511L401.794,188.887L403.348,188.103L404.902,187.479L406.455,186.72L408.009,185.711L409.562,184.951L411.116,184.502L412.67,183.471L414.223,182.713L415.777,182.039L417.33,181.097L418.884,180.461L420.438,179.778L421.991,178.99L423.545,178.192L425.098,177.502L426.652,176.482L428.206,175.697L429.759,175.005L431.313,174.167L432.867,173.244L434.42,172.3L435.974,170.911L437.527,170.063L439.081,169.424L440.635,168.558L442.188,167.863L443.742,167.358L445.295,166.572L446.849,165.879L448.403,165.393L449.956,164.602L451.51,163.881L453.063,163.358L454.617,162.521L456.171,161.739L457.724,161.144L459.278,160.361L460.832,159.382L462.385,158.557L463.939,157.527L465.492,156.798L467.046,156.094L468.6,155.052L470.153,154.269L471.707,153.544L473.26,152.672L474.814,151.95L476.368,151.467L477.921,150.769L479.475,150.242L481.028,149.663L482.582,148.962L484.136,148.258L485.689,147.606L487.243,146.955L488.796,146.283L490.35,145.714L491.904,145.082L493.457,144.456L495.011,143.927L496.565,143.316L498.118,142.687L499.672,142.008L501.225,141.194L502.779,140.614L504.333,139.986L505.886,139.329L507.44,138.846L508.993,138.329L510.547,137.79L512.101,137.46L513.654,137.055L515.208,136.132L516.761,135.493L518.315,134.893L519.869,134.08L521.422,133.74L522.976,133.284L524.53,132.855L526.083,132.513L527.637,131.995L529.19,131.466L530.744,130.86L532.298,130.224L533.851,129.209L535.405,128.347L536.958,127.885L538.512,127.262L540.066,126.832L541.619,126.315L543.173,125.72L544.726,125.185L546.28,124.76L547.834,124.108L549.387,123.391L550.941,122.862L552.495,122.141L554.048,121.774L555.602,121.413L557.155,120.931L558.709,120.476L560.263,120.07L561.816,119.411L563.37,118.861L564.923,118.3L566.477,117.541L568.031,116.972L569.584,116.671L571.138,116.111L572.691,115.7L574.245,115.33L575.799,114.864L577.352,114.406L578.906,113.879L580.46,113.187L582.013,112.446L583.567,111.703L585.12,110.929L586.674,110.372L588.228,109.947L589.781,109.419L591.335,108.978L592.888,108.501L594.442,107.86L595.996,107.431L597.549,107.028L599.103,106.131L600.656,105.365L602.21,104.893L603.764,104.406L605.317,104.056L606.871,103.78L608.425,103.197L609.978,102.811L611.532,102.426L613.085,101.678L614.639,100.873L616.193,100.269L617.746,99.449L619.3,99.015L620.853,98.617L622.407,97.933L623.961,97.49L625.514,97.069L627.068,96.469L628.621,95.83L630.175,95.421L631.729,94.742L633.282,94.307L634.836,94.026L636.389,93.423L637.943,93.019L639.497,92.773L641.05,92.402L642.604,92.023L644.158,91.387L645.711,90.638L647.265,89.886L648.818,89.384L650.372,88.889L651.926,88.601L653.479,88.168L655.033,87.658L656.586,87.378L658.14,87.084L659.694,86.581L661.247,86.274L662.801,85.851L664.354,85.387L665.908,84.972L667.462,84.701L669.015,84.328L670.569,84.125L672.123,83.845L673.676,83.467L675.23,83.212L676.783,83.04L678.337,82.445L679.891,81.859L681.444,81.286L682.998,80.716L684.551,80.28L686.105,80.009L687.659,79.569L689.212,79.296L690.766,78.913L692.319,78.354L693.873,77.899L695.427,77.499L696.98,76.902L698.534,76.477L700.088,76.066L701.641,75.583L703.195,75.185L704.748,74.735L706.302,74.07L707.856,73.675L709.409,73.304L710.963,72.915L712.516,72.467L714.07,72.025L715.624,71.538L717.177,71.256L718.731,71.081L720.284,70.664L721.838,70.315L723.392,70.045L724.945,69.72L726.499,69.411L728.053,69.169L729.606,68.788L731.16,68.438L732.713,68.241L734.267,67.79L735.821,67.363L737.374,67.179L738.928,66.911L740.481,66.701L742.035,66.469L743.589,66.026L745.142,65.582L746.696,65.258L748.249,64.955L749.803,64.643L751.357,64.252L752.91,63.945L754.464,63.723L756.018,63.46L757.571,63.024L759.125,62.752L760.678,62.422L762.232,61.869L763.786,61.422L765.339,61.193L766.893,60.834L768.446,60.369L770,60"/></g></svg>