<svg class="plot-d6a7b5" fill="currentColor" font-family="system-ui, sans-serif" font-size="10" text-anchor="middle" width="830" height="470" viewBox="0 0 830 470" style="color: dodgerblue;" xmlns="http://www.w3.org/2000/svg" xmlns:xlink="http://www.w3.org/1999/xlink"><style>:where(.plot-d6a7b5) {
  --plot-background: white;
  display: block;
  height: auto;
  height: intrinsic;
  max-width: 100%;
}
:where(.plot-d6a7b5 text),
:where(.plot-d6a7b5 tspan) {
  white-space: pre;
}</style><g aria-label="y-grid" stroke="currentColor" stroke-opacity="0.1"><line x1="60" x2="770" y1="410" y2="410"></line><line x1="60" x2="770" y1="381.99802866121775" y2="381.99802866121775"></line><line x1="60" x2="770" y1="353.99605732243555" y2="353.99605732243555"></line><line x1="60" x2="770" y1="325.99408598365324" y2="325.99408598365324"></line><line x1="60" x2="770" y1="297.99211464487104" y2="297.99211464487104"></line><line x1="60" x2="770" y1="269.9901433060887" y2="269.9901433060887"></line><line x1="60" x2="770" y1="241.9881719673065" y2="241.9881719673065"></line><line x1="60" x2="770" y1="213.98620062852427" y2="213.98620062852427"></line><line x1="60" x2="770" y1="185.984229289742" y2="185.984229289742"></line><line x1="60" x2="770" y1="157.98225795095976" y2="157.98225795095976"></line><line x1="60" x2="770" y1="129.98028661217748" y2="129.98028661217748"></line><line x1="60" x2="770" y1="101.97831527339524" y2="101.97831527339524"></line><line x1="60" x2="770" y1="73.976343934613" y2="73.976343934613"></line></g><g aria-label="y-axis tick" fill="none" stroke="currentColor"><path transform="translate(60,410)" d="M0,0L-6,0"></path><path transform="translate(60,381.99802866121775)" d="M0,0L-6,0"></path><path transform="translate(60,353.99605732243555)" d="M0,0L-6,0"></path><path transform="translate(60,325.99408598365324)" d="M0,0L-6,0"></path><path transform="translate(60,297.99211464487104)" d="M0,0L-6,0"></path><path transform="translate(60,269.9901433060887)" d="M0,0L-6,0"></path><path transform="translate(60,241.9881719673065)" d="M0,0L-6,0"></path><path transform="translate(60,213.98620062852427)" d="M0,0L-6,0"></path><path transform="translate(60,185.984229289742)" d="M0,0L-6,0"></path><path transform="translate(60,157.98225795095976)" d="M0,0L-6,0"></path><path transform="translate(60,129.98028661217748)" d="M0,0L-6,0"></path><path transform="translate(60,101.97831527339524)" d="M0,0L-6,0"></path><path transform="translate(60,73.976343934613)" d="M0,0L-6,0"></path></g><g aria-label="y-axis tick label" text-anchor="end" font-variant="tabular-nums" transform="translate(-9,0)"><text y="0.32em" transform="translate(60,410)">0</text><text y="0.32em" transform="translate(60,381.99802866121775)">50,000</text><text y="0.32em" transform="translate(60,353.99605732243555)">100,000</text><text y="0.32em" transform="translate(60,325.99408598365324)">150,000</text><text y="0.32em" transform="translate(60,297.99211464487104)">200,000</text><text y="0.32em" transform="translate(60,269.9901433060887)">250,000</text><text y="0.32em" transform="translate(60,241.9881719673065)">300,000</text><text y="0.32em" transform="translate(60,213.98620062852427)">350,000</text><text y="0.32em" transform="translate(60,185.984229289742)">400,000</text><text y="0.32em" transform="translate(60,157.98225795095976)">450,000</text><text y="0.32em" transform="translate(60,129.98028661217748)">500,000</text><text y="0.32em" transform="translate(60,101.97831527339524)">550,000</text><text y="0.32em" transform="translate(60,73.976343934613)">600,000</text></g><g aria-label="y-axis label" text-anchor="start" transform="translate(-57,-57)"><text y="0.71em" transform="translate(60,60)">↑ Total Vestiges</text></g><g aria-label="x-axis tick" fill="none" stroke="currentColor"><path transform="translate(98.52127659574468,410)" d="M0,0L0,6"></path><path transform="translate(201.62234042553192,410)" d="M0,0L0,6"></path><path transform="translate(305.8563829787234,410)" d="M0,0L0,6"></path><path transform="translate(410.0904255319149,410)" d="M0,0L0,6"></path><path transform="translate(513.1914893617021,410)" d="M0,0L0,6"></path><path transform="translate(616.2925531914894,410)" d="M0,0L0,6"></path><path transform="translate(720.5265957446808,410)" d="M0,0L0,6"></path></g><g aria-label="x-axis tick label" font-variant="tabular-nums" transform="translate(0,9)"><text transform="translate(98.52127659574468,410)"><tspan x="0" y="0.71em">Apr</tspan><tspan x="0" dy="1em">2023</tspan></text><text y="0.71em" transform="translate(201.62234042553192,410)">Jul</text><text y="0.71em" transform="translate(305.8563829787234,410)">Oct</text><text transform="translate(410.0904255319149,410)"><tspan x="0" y="0.71em">Jan</tspan><tspan x="0" dy="1em">2024</tspan></text><text y="0.71em" transform="translate(513.1914893617021,410)">Apr</text><text y="0.71em" transform="translate(616.2925531914894,410)">Jul</text><text y="0.71em" transform="translate(720.5265957446808,410)">Oct</text></g><g aria-label="line" fill="none" stroke="currentColor" stroke-width="1.5" stroke-linejoin="round" stroke-linecap="round"><path d="M60,410L60.755,409.719L61.511,408.691L62.266,408.136L63.021,407.743L63.777,407.095L64.532,406.584L65.287,406.105L66.043,405.136L66.798,404.369L67.553,403.459L68.309,402.05L69.064,400.721L69.819,400.031L70.574,399.032L71.33,398.354L72.085,397.577L72.84,396.56L73.596,395.876L74.351,395.205L75.106,394.294L75.862,393.285L76.617,392.569L77.372,391.349L78.128,390.771L78.883,390.232L79.638,389.259L80.394,388.328L81.149,387.611L81.904,386.612L82.66,385.615L83.415,384.708L84.17,383.302L84.926,382.186L85.681,381.54L86.436,380.867L87.191,380.36L87.947,379.951L88.702,379.191L89.457,378.448L90.213,377.93L90.968,376.733L91.723,375.48L92.479,374.358L93.234,372.998L93.989,372.076L94.745,371.291L95.5,370.222L96.255,369.327L97.011,368.679L97.766,367.511L98.521,366.383L99.277,365.33L100.032,363.821L100.787,362.388L101.543,361.642L102.298,360.536L103.053,359.538L103.809,358.644L104.564,357.378L105.319,356.188L106.074,355.155L106.83,353.913L107.585,352.722L108.34,351.697L109.096,350.317L109.851,349.469L110.606,348.703L111.362,347.635L112.117,346.761L112.872,346.107L113.628,345.265L114.383,344.356L115.138,343.509L115.894,342.397L116.649,341.295L117.404,340.668L118.16,339.796L118.915,339.116L119.67,338.668L120.426,337.976L121.181,337.286L121.936,336.554L122.691,335.607L123.447,334.643L124.202,333.891L124.957,332.85L125.713,332.118L126.468,331.64L127.223,330.543L127.979,329.785L128.734,329.374L129.489,328.687L130.245,328.025L131,327.335L131.755,326.387L132.511,325.563L133.266,324.853L134.021,324.236L134.777,323.688L135.532,323.164L136.287,322.303L137.043,321.813L137.798,321.316L138.553,320.507L139.309,319.591L140.064,318.873L140.819,317.949L141.574,317.326L142.33,316.747L143.085,315.909L143.84,315.335L144.596,314.789L145.351,314.06L146.106,313.49L146.862,312.801L147.617,312.072L148.372,311.409L149.128,310.86L149.883,310.285L150.638,309.783L151.394,309.309L152.149,308.643L152.904,308.136L153.66,307.678L154.415,306.923L155.17,305.942L155.926,305.226L156.681,304.295L157.436,303.738L158.191,303.099L158.947,302.439L159.702,301.836L160.457,301.413L161.213,300.573L161.968,299.914L162.723,299.221L163.479,298.216L164.234,297.475L164.989,296.828L165.745,296.166L166.5,295.444L167.255,294.886L168.011,294.338L168.766,293.615L169.521,293.188L170.277,292.621L171.032,292.11L171.787,291.63L172.543,290.952L173.298,290.464L174.053,289.954L174.809,289.271L175.564,288.783L176.319,288.333L177.074,287.845L177.83,287.27L178.585,286.73L179.34,286.167L180.096,285.556L180.851,285.076L181.606,284.49L182.362,283.996L183.117,283.506L183.872,282.825L184.628,282.259L185.383,281.812L186.138,281.225L186.894,280.667L187.649,280.264L188.404,279.571L189.16,279.043L189.915,278.498L190.67,277.892L191.426,277.377L192.181,277.071L192.936,276.509L193.691,276.051L194.447,275.505L195.202,274.857L195.957,274.343L196.713,273.778L197.468,273.155L198.223,272.589L198.979,272.091L199.734,271.28L200.489,270.621L201.245,270.242L202,269.635L202.755,269.095L203.511,268.77L204.266,268.194L205.021,267.822L205.777,267.38L206.532,266.843L207.287,266.343L208.043,265.947L208.798,265.321L209.553,264.862L210.309,264.447L211.064,263.864L211.819,263.341L212.574,262.929L213.33,262.297L214.085,261.895L214.84,261.438L215.596,260.858L216.351,260.387L217.106,259.852L217.862,259.24L218.617,258.704L219.372,258.248L220.128,257.725L220.883,257.11L221.638,256.629L222.394,256.178L223.149,255.701L223.904,255.337L224.66,254.715L225.415,254.325L226.17,253.884L226.926,253.331L227.681,252.89L228.436,252.355L229.191,251.642L229.947,251.105L230.702,250.789L231.457,250.061L232.213,249.525L232.968,249.049L233.723,248.384L234.479,247.935L235.234,247.453L235.989,246.897L236.745,246.333L237.5,245.846L238.255,245.126L239.011,244.572L239.766,244.083L240.521,243.491L241.277,242.839L242.032,242.173L242.787,241.192L243.543,240.594L244.298,240.142L245.053,239.531L245.809,239.04L246.564,238.684L247.319,238.129L248.074,237.639L248.83,237.297L249.585,236.738L250.34,236.229L251.096,235.86L251.851,235.269L252.606,234.717L253.362,234.297L254.117,233.744L254.872,233.053L255.628,232.47L256.383,231.743L257.138,231.228L257.894,230.731L258.649,229.995L259.404,229.443L260.16,228.93L260.915,228.315L261.67,227.805L262.426,227.464L263.181,226.971L263.936,226.599L264.691,226.191L265.447,225.696L266.202,225.198L266.957,224.738L267.713,224.279L268.468,223.804L269.223,223.402L269.979,222.956L270.734,222.514L271.489,222.14L272.245,221.709L273,221.265L273.755,220.786L274.511,220.211L275.266,219.801L276.021,219.358L276.777,218.894L277.532,218.553L278.287,218.188L279.043,217.807L279.798,217.574L280.553,217.289L281.309,216.637L282.064,216.185L282.819,215.762L283.574,215.188L284.33,214.948L285.085,214.626L285.84,214.323L286.596,214.081L287.351,213.716L288.106,213.343L288.862,212.915L289.617,212.466L290.372,211.749L291.128,211.141L291.883,210.814L292.638,210.374L293.394,210.071L294.149,209.706L294.904,209.285L295.66,208.908L296.415,208.608L297.17,208.147L297.926,207.642L298.681,207.267L299.436,206.758L300.191,206.5L300.947,206.245L301.702,205.904L302.457,205.583L303.213,205.297L303.968,204.831L304.723,204.443L305.479,204.047L306.234,203.511L306.989,203.109L307.745,202.896L308.5,202.501L309.255,202.211L310.011,201.95L310.766,201.621L311.521,201.297L312.277,200.926L313.032,200.437L313.787,199.914L314.543,199.389L315.298,198.843L316.053,198.449L316.809,198.149L317.564,197.776L318.319,197.465L319.074,197.128L319.83,196.676L320.585,196.372L321.34,196.088L322.096,195.455L322.851,194.914L323.606,194.581L324.362,194.237L325.117,193.99L325.872,193.795L326.628,193.383L327.383,193.111L328.138,192.839L328.894,192.311L329.649,191.743L330.404,191.316L331.16,190.737L331.915,190.431L332.67,190.15L333.426,189.666L334.181,189.354L334.936,189.057L335.691,188.633L336.447,188.182L337.202,187.893L337.957,187.414L338.713,187.107L339.468,186.908L340.223,186.483L340.979,186.197L341.734,186.023L342.489,185.761L343.245,185.494L344,185.045L344.755,184.516L345.511,183.985L346.266,183.631L347.021,183.281L347.777,183.078L348.532,182.772L349.287,182.412L350.043,182.214L350.798,182.007L351.553,181.652L352.309,181.435L353.064,181.136L353.819,180.809L354.574,180.515L355.33,180.324L356.085,180.061L356.84,179.917L357.596,179.72L358.351,179.453L359.106,179.273L359.862,179.152L360.617,178.731L361.372,178.318L362.128,177.914L362.883,177.511L363.638,177.203L364.394,177.012L365.149,176.701L365.904,176.508L366.66,176.238L367.415,175.843L368.17,175.522L368.926,175.239L369.681,174.818L370.436,174.518L371.191,174.228L371.947,173.886L372.702,173.606L373.457,173.288L374.213,172.818L374.968,172.539L375.723,172.277L376.479,172.003L377.234,171.686L377.989,171.374L378.745,171.031L379.5,170.832L380.255,170.708L381.011,170.413L381.766,170.167L382.521,169.977L383.277,169.747L384.032,169.529L384.787,169.358L385.543,169.089L386.298,168.842L387.053,168.703L387.809,168.384L388.564,168.083L389.319,167.953L390.074,167.764L390.83,167.615L391.585,167.451L392.34,167.139L393.096,166.825L393.851,166.597L394.606,166.383L395.362,166.163L396.117,165.886L396.872,165.669L397.628,165.513L398.383,165.327L399.138,165.02L399.894,164.828L400.649,164.594L401.404,164.204L402.16,163.888L402.915,163.727L403.67,163.473L404.426,163.145L405.181,162.884L405.936,162.548L406.691,162.293L407.447,162.006L408.202,161.67L408.957,161.41L409.713,161.166L410.468,160.857L411.223,160.593L411.979,160.351L412.734,159.973L413.489,159.747L414.245,159.572L415,159.206L415.755,159.077L416.511,158.855L417.266,158.497L418.021,158.312L418.777,158.097L419.532,157.829L420.287,157.666L421.043,157.5L421.798,157.332L422.553,157.209L423.309,156.98L424.064,156.668L424.819,156.379L425.574,156.028L426.33,155.608L427.085,155.416L427.84,155.189L428.596,154.969L429.351,154.665L430.106,154.326L430.862,154.072L431.617,153.889L432.372,153.591L433.128,153.233L433.883,152.732L434.638,152.422L435.394,152.04L436.149,151.82L436.904,151.618L437.66,151.346L438.415,151.23L439.17,151.058L439.926,150.626L440.681,150.15L441.436,149.802L442.191,149.317L442.947,149.047L443.702,148.818L444.457,148.542L445.213,148.271L445.968,148.04L446.723,147.678L447.479,147.461L448.234,147.1L448.989,146.562L449.745,146.184L450.5,145.912L451.255,145.507L452.011,145.237L452.766,145.04L453.521,144.624L454.277,144.289L455.032,143.916L455.787,143.548L456.543,143.119L457.298,142.547L458.053,141.925L458.809,141.587L459.564,141.234L460.319,140.719L461.074,140.369L461.83,140.107L462.585,139.77L463.34,139.485L464.096,139.197L464.851,138.737L465.606,138.333L466.362,138.167L467.117,137.807L467.872,137.499L468.628,137.144L469.383,136.794L470.138,136.584L470.894,136.276L471.649,135.816L472.404,135.392L473.16,135.109L473.915,134.674L474.67,134.456L475.426,134.177L476.181,133.862L476.936,133.658L477.691,133.414L478.447,133.092L479.202,132.835L479.957,132.577L480.713,132.097L481.468,131.83L482.223,131.601L482.979,131.396L483.734,131.205L484.489,130.95L485.245,130.713L486,130.567L486.755,130.386L487.511,130L488.266,129.757L489.021,129.573L489.777,129.212L490.532,128.96L491.287,128.854L492.043,128.638L492.798,128.349L493.553,128.133L494.309,127.838L495.064,127.518L495.819,127.212L496.574,126.739L497.33,126.412L498.085,126.201L498.84,126.163L499.596,126.159L500.351,126.156L501.106,126.154L501.862,126.15L502.617,126.145L503.372,126.139L504.128,126.114L504.883,126.095L505.638,126.083L506.394,126.053L507.149,126.003L507.904,125.968L508.66,125.923L509.415,125.836L510.17,125.719L510.926,125.424L511.681,125.225L512.436,125.038L513.191,124.87L513.947,124.71L514.702,124.527L515.457,124.293L516.213,124.084L516.968,123.836L517.723,123.578L518.479,123.35L519.234,123.073L519.989,122.862L520.745,122.7L521.5,122.467L522.255,122.216L523.011,122.108L523.766,121.945L524.521,121.703L525.277,121.567L526.032,121.425L526.787,121.213L527.543,121.045L528.298,120.799L529.053,120.592L529.809,120.469L530.564,120.282L531.319,120.119L532.074,119.965L532.83,119.859L533.585,119.726L534.34,119.647L535.096,119.505L535.851,119.355L536.606,119.165L537.362,118.896L538.117,118.726L538.872,118.615L539.628,118.379L540.383,118.199L541.138,118.036L541.894,117.866L542.649,117.629L543.404,117.466L544.16,117.238L544.915,117.082L545.67,116.962L546.426,116.778L547.181,116.575L547.936,116.362L548.691,116.224L549.447,116.034L550.202,115.872L550.957,115.669L551.713,115.38L552.468,115.163L553.223,114.884L553.979,114.73L554.734,114.594L555.489,114.404L556.245,114.215L557,114.056L557.755,113.843L558.511,113.601L559.266,113.45L560.021,113.178L560.777,112.938L561.532,112.743L562.287,112.461L563.043,112.298L563.798,112.173L564.553,112.074L565.309,111.936L566.064,111.762L566.819,111.572L567.574,111.174L568.33,110.976L569.085,110.674L569.84,110.532L570.596,110.394L571.351,110.224L572.106,109.971L572.862,109.886L573.617,109.701L574.372,109.497L575.128,109.313L575.883,109.033L576.638,108.685L577.394,108.504L578.149,108.2L578.904,108.06L579.66,107.872L580.415,107.532L581.17,107.283L581.926,107.113L582.681,106.839L583.436,106.545L584.191,106.386L584.947,106.024L585.702,105.86L586.457,105.696L587.213,105.458L587.968,105.213L588.723,105.046L589.479,104.77L590.234,104.553L590.989,104.328L591.745,103.996L592.5,103.665L593.255,103.427L594.011,103.199L594.766,102.895L595.521,102.713L596.277,102.525L597.032,102.356L597.787,102.116L598.543,101.908L599.298,101.687L600.053,101.483L600.809,101.265L601.564,101.022L602.319,100.947L603.074,100.834L603.83,100.661L604.585,100.525L605.34,100.2L606.096,100.01L606.851,99.876L607.606,99.7L608.362,99.321L609.117,99.192L609.872,99.001L610.628,98.742L611.383,98.548L612.138,98.421L612.894,98.252L613.649,98.148L614.404,98.005L615.16,97.841L615.915,97.672L616.67,97.364L617.426,97.149L618.181,97.002L618.936,96.733L619.691,96.539L620.447,96.343L621.202,96.196L621.957,96.048L622.713,95.937L623.468,95.749L624.223,95.538L624.979,95.446L625.734,95.321L626.489,95.184L627.245,95.057L628,94.906L628.755,94.726L629.511,94.528L630.266,94.315L631.021,94.197L631.777,94.072L632.532,93.87L633.287,93.691L634.043,93.578L634.798,93.377L635.553,93.19L636.309,93.043L637.064,92.866L637.819,92.682L638.574,92.485L639.33,92.214L640.085,91.843L640.84,91.613L641.596,91.366L642.351,91.198L643.106,91.034L643.862,90.808L644.617,90.65L645.372,90.527L646.128,90.376L646.883,90.219L647.638,90.045L648.394,89.859L649.149,89.596L649.904,89.408L650.66,89.106L651.415,88.821L652.17,88.529L652.926,88.234L653.681,87.972L654.436,87.672L655.191,87.348L655.947,87.185L656.702,86.972L657.457,86.586L658.213,86.385L658.968,86.203L659.723,85.952L660.479,85.779L661.234,85.69L661.989,85.17L662.745,84.721L663.5,84.274L664.255,83.794L665.011,83.406L665.766,83.127L666.521,82.692L667.277,82.235L668.032,81.954L668.787,81.688L669.543,81.366L670.298,81.07L671.053,80.741L671.809,80.376L672.564,80.136L673.319,79.987L674.074,79.717L674.83,79.563L675.585,79.401L676.34,79.187L677.096,78.985L677.851,78.749L678.606,78.465L679.362,78.181L680.117,77.963L680.872,77.742L681.628,77.547L682.383,77.375L683.138,77.256L683.894,77.168L684.649,77.066L685.404,76.937L686.16,76.785L686.915,76.679L687.67,76.509L688.426,76.394L689.181,76.26L689.936,76.141L690.691,75.993L691.447,75.873L692.202,75.657L692.957,75.501L693.713,75.331L694.468,75.199L695.223,75.003L695.979,74.801L696.734,74.622L697.489,74.484L698.245,74.317L699,74.193L699.755,74.051L700.511,73.959L701.266,73.845L702.021,73.72L702.777,73.617L703.532,73.435L704.287,73.288L705.043,73.161L705.798,73.033L706.553,72.881L707.309,72.746L708.064,72.574L708.819,72.463L709.574,72.267L710.33,72.003L711.085,71.75L711.84,71.398L712.596,71.246L713.351,71.073L714.106,70.892L714.862,70.779L715.617,70.59L716.372,70.402L717.128,70.213L717.883,69.965L718.638,69.527L719.394,69.334L720.149,69.208L720.904,68.938L721.66,68.776L722.415,68.688L723.17,68.508L723.926,68.358L724.681,68.24L725.436,68.032L726.191,67.795L726.947,67.563L727.702,67.233L728.457,67.106L729.213,66.994L729.968,66.834L730.723,66.692L731.479,66.612L732.234,66.516L732.989,66.374L733.745,66.302L734.5,66.167L735.255,66.047L736.011,65.957L736.766,65.844L737.521,65.776L738.277,65.666L739.032,65.505L739.787,65.37L740.543,65.269L741.298,65.06L742.053,64.895L742.809,64.747L743.564,64.529L744.319,64.467L745.074,64.386L745.83,64.242L746.585,64.157L747.34,64.068L748.096,63.954L748.851,63.881L749.606,63.794L750.362,63.585L751.117,63.456L751.872,63.41L752.628,63.354L753.383,63.273L754.138,63.156L754.894,63.044L755.649,62.872L756.404,62.782L757.16,62.595L757.915,62.334L758.67,62.142L759.426,61.855L760.181,61.65L760.936,61.52L761.691,61.396L762.447,61.274L763.202,61.13L763.957,61.019L764.713,60.924L765.468,60.757L766.223,60.591L766.979,60.411L767.734,60.315L768.489,60.149L769.245,60.082L770,60"></path></g></svg> 
 
