<svg class="plot-d6a7b5" fill="currentColor" font-family="system-ui, sans-serif" font-size="10" text-anchor="middle" width="830" height="470" viewBox="0 0 830 470" xmlns="http://www.w3.org/2000/svg" xmlns:xlink="http://www.w3.org/1999/xlink" color="#1e90ff"><style>:where(.plot-d6a7b5){--plot-background: white;display:block;height:intrinsic;max-width:100%}:where(.plot-d6a7b5 text),:where(.plot-d6a7b5 tspan){white-space:pre}</style><g aria-label="y-grid" stroke="currentColor" stroke-opacity=".1"><line x1="60" x2="770" y1="410" y2="410"/><line x1="60" x2="770" y1="378.557" y2="378.557"/><line x1="60" x2="770" y1="347.114" y2="347.114"/><line x1="60" x2="770" y1="315.671" y2="315.671"/><line x1="60" x2="770" y1="284.227" y2="284.227"/><line x1="60" x2="770" y1="252.784" y2="252.784"/><line x1="60" x2="770" y1="221.341" y2="221.341"/><line x1="60" x2="770" y1="189.898" y2="189.898"/><line x1="60" x2="770" y1="158.455" y2="158.455"/><line x1="60" x2="770" y1="127.012" y2="127.012"/><line x1="60" x2="770" y1="95.568" y2="95.568"/><line x1="60" x2="770" y1="64.125" y2="64.125"/></g><g aria-label="y-axis tick" fill="none" stroke="currentColor"><path transform="translate(60,410)" d="M0,0L-6,0"/><path transform="translate(60,378.55684921661634)" d="M0,0L-6,0"/><path transform="translate(60,347.11369843323274)" d="M0,0L-6,0"/><path transform="translate(60,315.6705476498491)" d="M0,0L-6,0"/><path transform="translate(60,284.2273968664655)" d="M0,0L-6,0"/><path transform="translate(60,252.7842460830818)" d="M0,0L-6,0"/><path transform="translate(60,221.34109529969817)" d="M0,0L-6,0"/><path transform="translate(60,189.8979445163145)" d="M0,0L-6,0"/><path transform="translate(60,158.45479373293085)" d="M0,0L-6,0"/><path transform="translate(60,127.01164294954722)" d="M0,0L-6,0"/><path transform="translate(60,95.56849216616357)" d="M0,0L-6,0"/><path transform="translate(60,64.12534138277994)" d="M0,0L-6,0"/></g><g aria-label="y-axis tick label" text-anchor="end" font-variant="tabular-nums"><text y=".32em" transform="translate(-9,0) translate(60,410)">0</text><text y=".32em" transform="translate(-9,0) translate(60,378.55684921661634)">5,000</text><text y=".32em" transform="translate(-9,0) translate(60,347.11369843323274)">10,000</text><text y=".32em" transform="translate(-9,0) translate(60,315.6705476498491)">15,000</text><text y=".32em" transform="translate(-9,0) translate(60,284.2273968664655)">20,000</text><text y=".32em" transform="translate(-9,0) translate(60,252.7842460830818)">25,000</text><text y=".32em" transform="translate(-9,0) translate(60,221.34109529969817)">30,000</text><text y=".32em" transform="translate(-9,0) translate(60,189.8979445163145)">35,000</text><text y=".32em" transform="translate(-9,0) translate(60,158.45479373293085)">40,000</text><text y=".32em" transform="translate(-9,0) translate(60,127.01164294954722)">45,000</text><text y=".32em" transform="translate(-9,0) translate(60,95.56849216616357)">50,000</text><text y=".32em" transform="translate(-9,0) translate(60,64.12534138277994)">55,000</text></g><g aria-label="y-axis label" text-anchor="start"><text y=".71em" transform="translate(-57,-57) translate(60,60)">↑ Visible Vestiges (30 days)</text></g><g aria-label="x-axis tick" fill="none" stroke="currentColor"><path transform="translate(66.5204081632653,410)" d="M0,0L0,6"/><path transform="translate(133.89795918367346,410)" d="M0,0L0,6"/><path transform="translate(199.10204081632654,410)" d="M0,0L0,6"/><path transform="translate(266.4795918367347,410)" d="M0,0L0,6"/><path transform="translate(331.6836734693877,410)" d="M0,0L0,6"/><path transform="translate(399.0612244897959,410)" d="M0,0L0,6"/><path transform="translate(466.4387755102041,410)" d="M0,0L0,6"/><path transform="translate(531.6428571428571,410)" d="M0,0L0,6"/><path transform="translate(599.0204081632653,410)" d="M0,0L0,6"/><path transform="translate(664.2244897959184,410)" d="M0,0L0,6"/><path transform="translate(731.6020408163265,410)" d="M0,0L0,6"/></g><g aria-label="x-axis tick label" font-variant="tabular-nums"><text transform="translate(0,9) translate(66.5204081632653,410)"><tspan x="0" y=".71em">Mar</tspan><tspan x="0" dy="1em">2023</tspan></text><text y=".71em" transform="translate(0,9) translate(133.89795918367346,410)">Apr</text><text y=".71em" transform="translate(0,9) translate(199.10204081632654,410)">May</text><text y=".71em" transform="translate(0,9) translate(266.4795918367347,410)">Jun</text><text y=".71em" transform="translate(0,9) translate(331.6836734693877,410)">Jul</text><text y=".71em" transform="translate(0,9) translate(399.0612244897959,410)">Aug</text><text y=".71em" transform="translate(0,9) translate(466.4387755102041,410)">Sep</text><text y=".71em" transform="translate(0,9) translate(531.6428571428571,410)">Oct</text><text y=".71em" transform="translate(0,9) translate(599.0204081632653,410)">Nov</text><text y=".71em" transform="translate(0,9) translate(664.2244897959184,410)">Dec</text><text transform="translate(0,9) translate(731.6020408163265,410)"><tspan x="0" y=".71em">Jan</tspan><tspan x="0" dy="1em">2024</tspan></text></g><g aria-label="line" fill="none" stroke="currentColor" stroke-width="1.5" stroke-linejoin="round" stroke-linecap="round"><path d="M60,410L61.449,406.843L62.898,395.297L64.347,389.071L65.796,384.657L67.245,377.375L68.694,371.639L70.143,366.263L71.592,355.383L73.041,346.774L74.49,336.555L75.939,320.727L77.388,305.804L78.837,298.056L80.286,286.843L81.735,279.228L83.184,270.499L84.633,259.085L86.082,251.401L87.531,243.867L88.98,233.642L90.429,222.303L91.878,214.273L93.327,200.57L94.776,194.08L96.224,188.024L97.673,177.101L99.122,166.643L100.571,158.593L102.02,147.374L103.469,139.344L104.918,140.702L106.367,131.137L107.816,123.025L109.265,123.05L110.714,121.226L112.163,120.912L113.612,127.194L115.061,127.276L116.51,129.156L117.959,139.168L119.408,140.639L120.857,134.325L122.306,132.936L123.755,125.282L125.204,123.66L126.653,126.257L128.102,121.93L129.551,119.415L131,122.364L132.449,120.597L133.898,115.956L135.347,117.837L136.796,107.379L138.245,97.342L139.694,99.895L141.143,97.933L142.592,94.776L144.041,95.952L145.49,92.921L146.939,89.752L148.388,93.94L149.837,92.519L151.286,86.406L152.735,82.45L154.184,72.653L155.633,67.722L157.082,67.653L158.531,64L159.98,60L161.429,66.113L162.878,70.716L164.327,73.112L165.776,78.866L167.224,76.734L168.673,73.181L170.122,78.143L171.571,78.407L173.02,78.042L174.469,86.123L175.918,91.016L177.367,95.097L178.816,103.825L180.265,109.278L181.714,106.831L183.163,110.806L184.612,110.315L186.061,112.145L187.51,121L188.959,122.037L190.408,125.125L191.857,134.464L193.306,140.117L194.755,144.192L196.204,151.933L197.653,150.82L199.102,150.16L200.551,154.179L202,157.065L203.449,158.254L204.898,161.825L206.347,162.373L207.796,166.385L209.245,173.277L210.694,176.572L212.143,173.334L213.592,175.05L215.041,172.315L216.49,170.347L217.939,171.629L219.388,169.957L220.837,171.736L222.286,176.245L223.735,178.874L225.184,180.918L226.633,184.88L228.082,184.898L229.531,182.823L230.98,188.98L232.429,191.036L233.878,190.005L235.327,192.407L236.776,192.363L238.224,194.413L239.673,199.916L241.122,200.696L242.571,197.652L244.02,196.545L245.469,192.237L246.918,191.866L248.367,194.35L249.816,192.445L251.265,191.269L252.714,195.589L254.163,196.451L255.612,197.117L257.061,199.714L258.51,195.413L259.959,193.596L261.408,195.74L262.857,194.753L264.306,192.778L265.755,194.69L267.204,194.948L268.653,194.558L270.102,197.96L271.551,199.035L273,199.457L274.449,200.519L275.898,198.557L277.347,198.381L278.796,200.142L280.245,198.174L281.694,197.834L283.143,201.249L284.592,206.789L286.041,208.374L287.49,212.77L288.939,212.701L290.388,213.015L291.837,215.04L293.286,215.216L294.735,214.43L296.184,218.348L297.633,218.109L299.082,219.53L300.531,225.806L301.98,227.529L303.429,228.535L304.878,231.434L306.327,231.761L307.776,232.101L309.224,232.126L310.673,233.453L312.122,232.459L313.571,235.384L315.02,234.818L316.469,235.069L317.918,236.547L319.367,234.755L320.816,234.711L322.265,236.025L323.714,234.516L325.163,233.214L326.612,233.107L328.061,230.453L329.51,229.114L330.959,231.177L332.408,231.227L333.857,230.541L335.306,233.484L336.755,232.56L338.204,233.893L339.653,236.572L341.102,236.899L342.551,236.295L344,238.44L345.449,237.673L346.898,237.05L348.347,240.169L349.796,239.566L351.245,239.805L352.694,241.974L354.143,240.666L355.592,239.591L357.041,240.767L358.49,239.402L359.939,240.238L361.388,241.515L362.837,240.408L364.286,240.742L365.735,242.609L367.184,243.1L368.633,241.779L370.082,245.483L371.531,247.816L372.98,246.722L374.429,249.451L375.878,248.527L377.327,247.797L378.776,249.313L380.224,247.275L381.673,247.288L383.122,247.307L384.571,244.93L386.02,243.345L387.469,246.823L388.918,243.798L390.367,242.446L391.816,243.641L393.265,242.056L394.714,241.641L396.163,243.32L397.612,241.59L399.061,240.389L400.51,241.433L401.959,238.635L403.408,238.415L404.857,239.805L406.306,239.176L407.755,236.975L409.204,235.365L410.653,231.258L412.102,229.938L413.551,229.938L415,228.435L416.449,227.001L417.898,229.994L419.347,228.139L420.796,227.592L422.245,229.957L423.694,228.63L425.143,228.925L426.592,232.78L428.041,232.176L429.49,229.529L430.939,232.988L432.388,232.793L433.837,230.378L435.286,231.296L436.735,228.177L438.184,227.812L439.633,228.472L441.082,226.542L442.531,225.806L443.98,228.139L445.429,227.454L446.878,227.215L448.327,230.032L449.776,231.818L451.224,235.126L452.673,241.546L454.122,242.71L455.571,242.194L457.02,243.892L458.469,244.244L459.918,242.917L461.367,244.634L462.816,245.118L464.265,244.005L465.714,246.087L467.163,246.961L468.612,246.118L470.061,247.37L471.51,247.118L472.959,247.231L474.408,248.464L475.857,251.011L477.306,253.734L478.755,257.796L480.204,259.299L481.653,262.268L483.102,267.324L484.551,266.204L486,266.89L487.449,269.047L488.898,268.323L490.347,269.455L491.796,271.38L493.245,272.153L494.694,274.027L496.143,275.48L497.592,276.876L499.041,277.234L500.49,277.354L501.939,274.631L503.388,272.317L504.837,273.662L506.286,273.681L507.735,274.474L509.184,275.216L510.633,275.48L512.082,276.624L513.531,279.706L514.98,279.14L516.429,278.436L517.878,279.448L519.327,277.555L520.776,278.75L522.224,280.165L523.673,278.958L525.122,278.555L526.571,282.662L528.02,282.504L529.469,282.9L530.918,284.894L532.367,281.574L533.816,280.674L535.265,281.687L536.714,279.97L538.163,280.813L539.612,282.07L541.061,283.177L542.51,284.592L543.959,288.466L545.408,289.805L546.857,287.598L548.306,286.649L549.755,283.919L551.204,283.599L552.653,284.951L554.102,285.007L555.551,284.881L557,286.271L558.449,286.869L559.898,287.661L561.347,290.183L562.796,285.982L564.245,282.768L565.694,282.85L567.143,282.599L568.592,283.039L570.041,286.076L571.49,285.812L572.939,287.202L574.388,290.17L575.837,288.749L577.286,284.756L578.735,284.397L580.184,281.165L581.633,280.655L583.082,281.196L584.531,279.398L585.98,280.064L587.429,282.215L588.878,283.334L590.327,284.158L591.776,287.045L593.224,286.089L594.673,286.007L596.122,287.963L597.571,286.68L599.02,287.252L600.469,290.384L601.918,290.849L603.367,291.038L604.816,293.107L606.265,293.245L607.714,291.019L609.163,290.906L610.612,289.755L612.061,289.661L613.51,290.843L614.959,289.868L616.408,290.692L617.857,294.295L619.306,296.691L620.755,299.05L622.204,302.188L623.653,301.955L625.102,301.817L626.551,305.099L628,305.653L629.449,307.376L630.898,309.916L632.347,311.985L633.796,313.205L635.245,317.224L636.694,315.954L638.143,313.539L639.592,313.778L641.041,312.463L642.49,310.954L643.939,311.753L645.388,311.269L646.837,314.142L648.286,317.041L649.735,318.576L651.184,318.941L652.633,319.695L654.082,317.243L655.531,317.318L656.98,318.098L658.429,316.488L659.878,315.664L661.327,316.079L662.776,313.243L664.224,313.47L665.673,314.199L667.122,314.413L668.571,313.004L670.02,312.457L671.469,310.212L672.918,310.193L674.367,311.803L675.816,310.52L677.265,309.112L678.714,311.696L680.163,313.759L681.612,315.853L683.061,318.456L684.51,318.89L685.959,318.261L687.408,320.192L688.857,318.777L690.306,318.431L691.755,321.399L693.204,322.89L694.653,324.393L696.102,327.286L697.551,327.141L699,326.877L700.449,328.147L701.898,328.896L703.347,329.996L704.796,332.159L706.245,332.857L707.694,334.04L709.143,335.04L710.592,335.14L712.041,336.486L713.49,337.725L714.939,335.574L716.388,333.423L717.837,334.914L719.286,334.838L720.735,333.285L722.184,332.939L723.633,331.612L725.082,330.663L726.531,330.468L727.98,329.462L729.429,328.103L730.878,328.946L732.327,328.858L733.776,327.355L735.224,326.764L736.673,324.185L738.122,323.487L739.571,325.028L741.02,324.443L742.469,325.556L743.918,325.475L745.367,323.928L746.816,324.953L748.265,324.971L749.714,323.72L751.163,323.978L752.612,325.563L754.061,325.833L755.51,327.078L756.959,328.889L758.408,328.921L759.857,327.499L761.306,326.393L762.755,325.374L764.204,326.141L765.653,327.361L767.102,327.757L768.551,327.562L770,327.537"/></g></svg>