<svg xmlns="http://www.w3.org/2000/svg" width="830" height="470" fill="currentColor" class="plot-d6a7b5" font-family="system-ui, sans-serif" font-size="10" style="--plot-background:white;display:block;height:intrinsic;max-width:100%;color:#1e90ff" text-anchor="middle" viewBox="0 0 830 470">
    <style>
        :where(.plot-d6a7b5 text),:where(.plot-d6a7b5 tspan){white-space:pre}
    </style>
    <path stroke="currentColor" stroke-opacity=".1" d="
M60
410
h710
M60
378.557
h710
M60
347.114
h710
M60
315.671
h710
M60
284.227
h710
M60
252.784
h710
M60
221.341
h710
M60
189.898
h710
M60
158.455
h710
M60
127.012
h710
M60
95.568
h710
M60
64.125
h710" aria-hidden="true" aria-label="y-grid"/>
    <path fill="none" stroke="currentColor" d="
M60
410
h-6
m6
-31.443
h-6
m6
-31.443
h-6
m6
-31.444
h-6
m6
-31.443
h-6
m6
-31.443
h-6
m6
-31.443
h-6
m6
-31.443
h-6
m6
-31.443
h-6
m6
-31.443
h-6
m6
-31.444
h-6
m6
-31.443
h-6" aria-hidden="true" aria-label="y-axis tick"/>
    <g aria-label="y-axis tick label" font-variant="tabular-nums" text-anchor="end">
        <text y=".32em" transform="translate(51 410)">0</text>
        <text y=".32em" transform="translate(51 378.557)">5,000</text>
        <text y=".32em" transform="translate(51 347.114)">10,000</text>
        <text y=".32em" transform="translate(51 315.67)">15,000</text>
        <text y=".32em" transform="translate(51 284.227)">20,000</text>
        <text y=".32em" transform="translate(51 252.784)">25,000</text>
        <text y=".32em" transform="translate(51 221.341)">30,000</text>
        <text y=".32em" transform="translate(51 189.898)">35,000</text>
        <text y=".32em" transform="translate(51 158.455)">40,000</text>
        <text y=".32em" transform="translate(51 127.012)">45,000</text>
        <text y=".32em" transform="translate(51 95.568)">50,000</text>
        <text y=".32em" transform="translate(51 64.125)">55,000</text>
    </g>
    <text y=".71em" aria-label="y-axis label" text-anchor="start" transform="translate(3 3)">↑ Visible vestiges (30 days)</text>
    <path fill="none" stroke="currentColor" d="
M81.363
410
v6
m57.177
-6
v6
m57.805
-6
v6
m57.805
-6
v6
m57.177
-6
v6
m57.177
-6
v6
m57.806
-6
v6
m57.805
-6
v6
m56.549
-6
v6
m57.176
-6
v6
m57.806
-6
v6
m57.805
-6
v6
M770
410
v6" aria-hidden="true" aria-label="x-axis tick"/>
    <g aria-label="x-axis tick label" font-variant="tabular-nums">
        <text transform="translate(81.363 419)"><tspan x="0" y=".71em">Apr</tspan><tspan x="0" dy="1em">2023</tspan></text>
        <text y=".71em" transform="translate(138.54 419)">Jul</text>
        <text y=".71em" transform="translate(196.345 419)">Oct</text>
        <text transform="translate(254.15 419)"><tspan x="0" y=".71em">Jan</tspan><tspan x="0" dy="1em">2024</tspan></text>
        <text y=".71em" transform="translate(311.327 419)">Apr</text>
        <text y=".71em" transform="translate(368.504 419)">Jul</text>
        <text y=".71em" transform="translate(426.31 419)">Oct</text>
        <text transform="translate(484.115 419)"><tspan x="0" y=".71em">Jan</tspan><tspan x="0" dy="1em">2025</tspan></text>
        <text y=".71em" transform="translate(540.664 419)">Apr</text>
        <text y=".71em" transform="translate(597.84 419)">Jul</text>
        <text y=".71em" transform="translate(655.646 419)">Oct</text>
        <text transform="translate(713.451 419)"><tspan x="0" y=".71em">Jan</tspan><tspan x="0" dy="1em">2026</tspan></text>
        <text y=".71em" transform="translate(770 419)">Apr</text>
    </g>
    <path fill="none" stroke="currentColor" stroke-linecap="round" stroke-linejoin="round" stroke-width="1.5" d="
m60
410
.419
-3.157
.419
-11.546
.419
-6.226
.419
-4.414
.418
-7.282
.419
-5.736
.419
-5.376
.419
-10.88
.419
-8.609
.419
-10.219
.419
-15.828
.419
-14.923
.418
-7.748
.419
-11.213
.419
-7.615
.419
-8.729
.419
-11.414
.419
-7.684
.419
-7.534
.419
-10.225
.418
-11.339
.419
-8.03
.419
-13.703
.419
-6.49
.419
-6.056
.419
-10.923
.419
-10.458
.419
-8.05
.418
-11.219
.419
-8.03
.419
1.358
.419
-9.565
.419
-8.112
.419
.025
.419
-1.824
.419
-.314
.419
6.282
.418
.082
.419
1.88
.419
10.012
.419
1.471
.419
-6.314
.419
-1.389
.419
-7.654
.419
-1.622
.418
2.597
.419
-4.327
.419
-2.515
.419
2.949
.419
-1.767
.419
-4.641
.419
1.881
.419
-10.458
.418
-10.037
.419
2.553
.419
-1.962
.419
-3.157
.419
1.176
.419
-3.031
.419
-3.169
.419
4.188
.419
-1.421
.418
-6.113
.419
-3.956
.419
-9.797
.419
-4.931
.419
-.069
.419
-3.653
.419
-4
.419
6.113
.418
4.603
.419
2.396
.419
5.754
.419
-2.132
.419
-3.553
.419
4.962
.419
.264
.419
-.365
.418
8.081
.419
4.893
.419
4.081
.419
8.728
.419
5.453
.419
-2.447
.419
3.975
.419
-.491
.418
1.83
.419
8.855
.419
1.037
.419
3.088
.419
9.339
.419
5.653
.419
4.075
.419
7.741
.419
-1.113
.418
-.66
.419
4.019
.419
2.886
.419
1.189
.419
3.571
.419
.548
.419
4.012
.419
6.892
.418
3.295
.419
-3.238
.419
1.716
.419
-2.735
.419
-1.968
.419
1.282
.419
-1.672
.419
1.779
.418
4.509
.419
2.629
.419
2.044
.419
3.962
.419
.018
.419
-2.075
.419
6.157
.419
2.056
.418
-1.031
.419
2.402
.419
-.044
.419
2.05
.419
5.503
.419
.78
.419
-3.044
.419
-1.107
.419
-4.308
.418
-.371
.419
2.484
.419
-1.905
.419
-1.176
.419
4.32
.419
.862
.419
.666
.419
2.597
.418
-4.301
.419
-1.817
.419
2.144
.419
-.987
.419
-1.975
.419
1.912
.419
.258
.419
-.39
.418
3.402
.419
1.075
.419
.422
.419
1.062
.419
-1.962
.419
-.176
.419
1.761
.419
-1.968
.418
-.34
.419
3.415
.419
5.54
.419
1.585
.419
4.396
.419
-.069
.419
.314
.419
2.025
.419
.176
.418
-.786
.419
3.918
.419
-.239
.419
1.421
.419
6.276
.419
1.723
.419
1.006
.419
2.899
.418
.327
.419
.34
.419
.025
.419
1.327
.419
-.994
.419
2.925
.419
-.566
.419
.251
.418
1.478
.419
-1.792
.419
-.044
.419
1.314
.419
-1.509
.419
-1.302
.419
-.107
.419
-2.654
.419
-1.339
.418
2.063
.419
.05
.419
-.686
.419
2.943
.419
-.924
.419
1.333
.419
2.679
.419
.327
.418
-.604
.419
2.145
.419
-.767
.419
-.623
.419
3.119
.419
-.603
.419
.239
.419
2.169
.418
-1.308
.419
-1.075
.419
1.176
.419
-1.365
.419
.836
.419
1.277
.419
-1.107
.419
.334
.418
1.867
.419
.491
.419
-1.321
.419
3.704
.419
2.333
.419
-1.094
.419
2.729
.419
-.924
.419
-.73
.418
1.516
.419
-2.038
.419
.013
.419
.019
.419
-2.377
.419
-1.585
.419
3.478
.419
-3.025
.418
-1.352
.419
1.195
.419
-1.585
.419
-.415
.419
1.679
.419
-1.73
.419
-1.201
.419
1.044
.418
-2.798
.419
-.22
.419
1.39
.419
-.629
.419
-2.201
.419
-1.61
.419
-4.107
.419
-1.32
h.418
l.419
-1.503
.419
-1.434
.419
2.993
.419
-1.855
.419
-.547
.419
2.365
.419
-1.327
.419
.295
.418
3.855
.419
-.604
.419
-2.647
.419
3.459
.419
-.195
.419
-2.415
.419
.918
.419
-3.119
.418
-.365
.419
.66
.419
-1.93
.419
-.736
.419
2.333
.419
-.685
.419
-.239
.419
2.817
.418
1.786
.419
3.308
.419
6.42
.419
1.164
.419
-.516
.419
1.698
.419
.352
.419
-1.327
.418
1.717
.419
.484
.419
-1.113
.419
2.082
.419
.874
.419
-.843
.419
1.252
.419
-.252
.419
.113
.418
1.233
.419
2.547
.419
2.723
.419
4.062
.419
1.503
.419
2.969
.419
5.056
.419
-1.12
.418
.686
.419
2.157
.419
-.724
.419
1.132
.419
1.925
.419
.773
.419
1.874
.419
1.453
.418
1.396
.419
.358
.419
.12
.419
-2.723
.419
-2.314
.419
1.345
.419
.019
.419
.793
.419
.742
.418
.264
.419
1.144
.419
3.082
.419
-.566
.419
-.704
.419
1.012
.419
-1.893
.419
1.195
.418
1.415
.419
-1.207
.419
-.403
.419
4.107
.419
-.158
.419
.396
.419
1.994
.419
-3.32
.418
-.9
.419
1.013
.419
-1.717
.419
.843
.419
1.257
.419
1.107
.419
1.415
.419
3.874
.418
1.339
.419
-2.207
.419
-.949
.419
-2.73
.419
-.32
.419
1.352
.419
.056
.419
-.126
.419
1.39
.418
.598
.419
.792
.419
2.522
.419
-4.201
.419
-3.214
.419
.082
.419
-.251
.419
.44
.418
3.037
.419
-.264
.419
1.39
.419
2.968
.419
-1.421
.419
-3.993
.419
-.359
.419
-3.232
.418
-.51
.419
.541
.419
-1.798
.419
.666
.419
2.151
.419
1.119
.419
.824
.419
2.887
.418
-.956
.419
-.082
.419
1.956
.419
-1.283
.419
.572
.419
3.132
.419
.465
.419
.189
.419
2.069
.418
.138
.419
-2.226
.419
-.113
.419
-1.151
.419
-.094
.419
1.182
.419
-.975
.419
.824
.418
3.603
.419
2.396
.419
2.359
.419
3.138
.419
-.233
.419
-.138
.419
3.282
.419
.554
.418
1.723
.419
2.54
.419
2.069
.419
1.22
.419
4.019
.419
-1.27
.419
-2.415
.419
.239
.419
-1.315
.418
-1.509
.419
.799
.419
-.484
.419
2.873
.419
2.899
.419
1.535
.419
.365
.419
.754
.418
-2.452
.419
.075
.419
.78
.419
-1.61
.419
-.824
.419
.415
.419
-2.836
.419
.227
.418
.729
.419
.214
.419
-1.409
.419
-.547
.419
-2.245
.419
-.019
.419
1.61
.419
-1.283
.418
-1.408
.419
2.584
.419
2.063
.419
2.094
.419
2.603
.419
.434
.419
-.629
.419
1.931
.419
-1.415
.418
-.346
.419
2.968
.419
1.491
.419
1.503
.419
2.893
.419
-.145
.419
-.264
.419
1.27
.418
.749
.419
1.1
.419
2.163
.419
.698
.419
1.183
.419
1
.419
.1
.419
1.346
.418
1.239
.419
-2.151
.419
-2.151
.419
1.491
.419
-.076
.419
-1.553
.419
-.346
.419
-1.327
.418
-.949
.419
-.195
.419
-1.006
.419
-1.359
.419
.843
.419
-.088
.419
-1.503
.419
-.591
.419
-2.579
.418
-.698
.419
1.541
.419
-.585
.419
1.113
.419
-.081
.419
-1.547
.419
1.025
.419
.018
.418
-1.251
.419
.258
.419
1.585
.419
.27
.419
1.245
.419
1.811
.419
.032
.419
-1.422
.418
-1.106
.419
-1.019
.419
.767
.419
1.22
.419
.396
.419
-.195
.419
-.025
.419
.069
.418
.68
.419
.125
.419
-1.05
.419
-2.912
.419
.755
.419
-1.742
.419
-.503
.419
1.836
.419
-1.597
.418
1.176
.419
2.094
.419
-2.779
.419
-2.925
.419
-.899
.419
-3.622
.419
-1.157
.419
-.686
.418
-1.723
.419
-.471
.419
.918
.419
-.837
.419
1.522
.419
.654
.419
-3.886
.419
-1.686
.418
-.591
.419
-1.132
.419
.78
.419
.635
.419
-2.616
.419
-.415
.419
-.176
.419
1.49
.419
-1.326
.418
-2.139
.419
-4.509
.419
-1.534
.419
-.912
.419
-4.471
.419
-2.006
.419
1.924
.419
1.554
.418
.704
.419
2.22
.419
-2.151
.419
-1.956
.419
1.233
.419
-.994
.419
-.868
.419
.082
.418
-1.503
.419
1.704
.419
2.585
.419
-.924
.419
-1.705
.419
1.365
.419
-1.855
.419
-.233
.418
1.541
.419
.226
.419
1.893
.419
1.403
.419
1.194
.419
3.541
.419
4.075
.419
-1.579
.419
.956
.418
3.214
.419
1.629
.419
.786
.419
.93
.419
.541
.419
1.591
.419
3.145
.419
.188
.418
-.855
.419
1.968
.419
-.591
.419
1.164
.419
2.735
.419
-.075
.419
.213
.419
2.736
.418
1.459
.419
-.415
.419
1.446
.419
-2.861
.419
-.547
.419
1.163
.419
1.881
.419
2.679
.418
3.597
.419
2.848
.419
2.862
.419
5.326
.419
2.943
.419
2.283
.419
2.088
.419
2.018
.419
2.516
.418
2.107
.419
1.245
.419
1.528
.419
3.358
.419
1.409
.419
-1.239
.419
1.811
.419
.736
.418
-.692
.419
.629
.419
1.182
.419
-.195
.419
.956
.419
.811
.419
.541
.419
2.748
.418
.566
h.419
l.419
-1.39
.419
-2.572
.419
-2.786
.419
-1.188
.419
-1.786
.419
-2.654
.418
-1.465
.419
-1.314
.419
-2.164
.419
-1.761
.419
-2.421
.419
-1.76
.419
-.994
.419
-1.597
.419
-.849
.418
-.415
.419
2.113
.419
.748
.419
1.207
.419
.296
.419
.113
.419
-.075
.419
-.397
.418
.441
.419
1.547
.419
.239
.419
.54
.419
1.283
.419
.459
.419
-.849
.419
.787
.418
.251
.419
-.528
.419
.484
.419
.648
.419
-.761
.419
-.786
.419
.824
.419
-.239
.419
.943
.418
.038
.419
-1.862
.419
-.333
.419
-1.302
h.419
l.419
-.339
.419
-.642
.419
-1.232
.418
-.195
.419
-.711
.419
-.579
.419
1.321
.419
-1.138
.419
-1.459
.419
.465
.419
-1.151
.418
.007
.419
.503
.419
1.547
.419
.289
.419
.604
.419
-.378
.419
-3.131
.419
-.157
.418
-1.101
.419
.786
.419
.006
.419
.22
.419
-1.018
.419
1.32
.419
1.17
.419
.145
.419
1.069
.418
-1.422
.419
-2.364
.419
.101
.419
-1.296
.419
.208
.419
.283
.419
-1.101
.419
-1.094
.418
1.144
.419
-.383
.419
-1.113
.419
1.39
.419
-2.246
.419
-.433
.419
-.73
.419
-1.119
.418
-.799
.419
.252
.419
1.371
.419
-.208
.419
.855
.419
-2.132
.419
-2.163
.419
-.761
.418
.271
.419
-2.447
.419
.032
.419
.182
.419
.164
.419
.446
.419
1.572
.419
-.452
.419
1.119
.418
-.862
.419
-.622
.419
2.981
.419
1.521
.419
-.037
.419
1.553
.419
-.352
.419
-.352
.418
2.572
.419
-.145
.419
-2.408
.419
1.213
.419
.61
.419
-1.025
.419
.925
.419
.999
.418
.642
.419
2.553
.419
2.107
.419
.836
.419
.661
.419
-.051
.419
-.371
.419
.466
.419
-1.126
.418
.522
.419
.126
.419
.836
.419
.635
.419
1.195
.419
.623
.419
-1.529
.419
.233
.418
.535
h.419
l.419
2.226
.419
.434
.419
-.529
.419
-.232
.419
1.855
.419
.126
.418
.742
.419
.629
.419
.176
.419
.163
.419
-.371
.419
-.918
.419
-.05
.419
-.145
.418
-.163
.419
1.238
.419
-.622
.419
-2.522
.419
.434
.419
-.585
.419
.308
.419
-.188
.419
-.874
.418
-.529
.419
.73
.419
.666
.419
-.729
.419
-.541
.419
-.56
.419
-1.521
.419
-.422
.418
-1.364
.419
-.981
.419
-.881
.419
-1.987
.419
-1.534
.419
-1.107
.419
-1.623
.419
-.566
.418
-.132
.419
-2.239
.419
-.603
.419
-.063
.419
-.748
.419
.27
.419
2.044
.419
-1.673
.418
-2.453
.419
-2.257
.419
-3.497
.419
-2.515
.419
-.598
.419
-3.112
.419
-3.755
.419
-1.459
.419
-1.22
.418
-1.66
.419
-1.239
.419
-.748
.419
-1.975
.419
.692
.419
1.534
.419
.239
.419
1.591
.418
1.114
.419
.974
.419
1.359
.419
-.818
.419
-.792
.419
1.144
.419
-.195
.419
-.434
.418
.629
.419
.019
.419
-.339
.419
4.842
.419
3.899
.419
3.572
.419
3.685
.419
3.163
.418
1.22
.419
3.597
.419
3.629
.419
1.823
.419
1.327
.419
2.264
.419
.899
.419
1.95
.419
2.176
.418
1.22
.419
-.529
.419
.761
.419
-.289
.419
.283
.419
.522
.419
.874
.419
1.063
.418
2.151
.419
1.911
.419
1.051
.419
1.314
.419
.151
.419
.277
.419
-.095
.419
-.44
.418
-.566
.419
-.057
.419
-.232
.419
-.057
.419
-.289
.419
-1.679
.419
-1.327
.419
-2.616
.419
-.05
.418
-.598
.419
.39
.419
.484
.419
-.207
.419
-.635
.419
.075
.419
-.503
.419
-2.905
.418
-.629
.419
.465
.419
-1.641
.419
-.233
.419
.05
.419
-.742
.419
-.283
.419
-.163
.418
-.302
.419
-1.006
.419
-1.176
.419
-2.264
.419
.283
.419
.251
.419
.139
.419
-.346
.418
1.302
.419
1.886
.419
1.239
.419
3.138
.419
.201
.419
.592
.419
1.025
h.419
l.419
1.358
.418
.88
.419
.315
.419
1.264
.419
3.779
.419
-.176
.419
-.434
.419
1.371
.419
-.629
.418
.29
.419
1.113
.419
.069
.419
.371
.419
1.333
.419
1.384
.419
1.786
.419
2.723
.418
-.919
.419
-.195
.419
1.277
.419
.962
h.419
l.419
-.232
.419
.333
.419
-1.113
.418
.49
.419
-.742
.419
-1.924
.419
-.893
.419
-2.453
.419
-1.062
.419
.339
.419
.12
.419
-.233
.418
.736
.419
.603
.419
.598
.419
.566
.419
-1.164
.419
-1.119
.419
.547
.419
-.912
.418
.252
.419
.358
.419
-1.018
.419
-.195
.419
1.15
.419
.095
.419
-1.195
.419
-.943
.418
-.793
.419
.315
.419
-.126
.419
.283
.419
-.421
.419
.742
.419
1.106
.419
.887
.418
1.748
.419
.032
.419
-.786
.419
.503
.419
.1
.419
.158
.419
.295
.419
-.239
.419
.855
.418
1.315
.419
.754
.419
.428
.419
1.528
.419
-.119
.419
-.29
.419
1.208
.419
.471
.418
-.138
.419
-.742
.419
.352
.419
-.371
.419
.937
.419
-.094
.419
.534
.419
.459
.418
.271
.419
.736
.419
.981
.419
-.176
.419
.345
.419
1.202
.419
.327
.419
-1.013
.419
.271
.418
-.359
.419
-.05
.419
-.503
.419
-.334
.419
-.106
.419
.471
.419
-.71
.419
-.749
.418
-.365
.419
-.999
.419
-.032
.419
-.924
h.419
l.419
1.031
.419
.522
.419
.893
.418
-.025
.419
.075
.419
-.245
.419
-.566
.419
-.277
.419
-2.402
.419
-1.302
.419
-.276
.418
-.918
.419
-.478
.419
.496
.419
-.547
.419
-1.528
.419
.472
.419
-1.308
.419
.421
.419
.509
.418
-.93
.419
-.29
.419
.158
.419
.264
.419
-.516
.419
1.145
.419
-.591
.419
.427
.418
-.082
.419
.063
.419
-.302
.419
.026
.419
-.371
.419
-.654
.419
-.126
.419
-.403
.418
.145
.419
1.66
.419
.459
.419
.088
.419
.283
.419
-.371
.419
.088
.419
1.648
.418
.868
.419
-.076
.419
1.032
.419
-.246
.419
-1.012
.419
-1.044
.419
-2.239
.419
-1.195
.419
-.471
.418
.314
.419
-.044
.419
-.012
.419
-.592
.419
.283
.419
.095
.419
-1.227
.419
-1.05
.418
.113
.419
-.138
.419
-.277
.419
.755
.419
-.201
.419
-.648
.419
-.685
.419
.094
.418
.22
.419
.855
.419
.038
.419
-.34
.419
1.164
.419
-.793
.419
.315
.419
.094
.419
-.113
.418
1
.419
1.025
.419
.22
.419
-.214
.419
-.05
.419
-1.365
h.419
l.419
.453
.418
-1.063
.419
-.471
.419
.735
.419
-.182
.419
-.075
.419
.584
.419
-.44
.419
.088
.418
-.912
.419
.692
.419
.132
.419
-.377
.419
.327
.419
-.05
.419
-.202
.419
-1.798
.418
-2.34
.419
.365
.419
-1.509
.419
-.038
.419
.113
.419
-1.188
.419
.157
.419
.333
.419
-.346
.418
.239
.419
.919
.419
-.177
.419
-.295
.419
.748
.419
-.289
.419
.314
.419
.705
.418
-1.189
.419
-.522
.419
.862
.419
.27
.419
1.138
.419
.088
.419
1.063
.419
1.12
.418
.358
.419
-.295
.419
.773
.419
2.05
.419
1.535
.419
.578
.419
1.371
.419
-.163
.418
.968
.419
1.365
.419
1.207
.419
-.069
.419
1.006
.419
-.321
.419
.95
.419
.704
.419
-.465
.418
.346
.419
.408
.419
.724
.419
.673
.419
.811
.419
.824
.419
.195
.419
.729
.418
.352
.419
.837
.419
.314
.419
.195
.419
-.56
.419
-.063
.419
-.66
.419
.428
.418
.478
.419
.603
.419
.673
.419
1.484
.419
-.32
.419
.553
.419
-.101
.419
1.497
.418
.069
.419
.843
.419
-.585
.419
.409
.419
1.522
.419
.591
.419
.163
.419
-.49
.419
.094
.418
.811
.419
.258
.419
.378
.419
-.139
.419
.679
.419
.158
.419
.377
.419
-.182
.418
1.27
.419
1.044
.419
1.207
.419
.12
.419
.603
.419
.478
.419
.202
.419
.094
.418
1.107
.419
.553
.419
.39
.419
.157
.419
.403
.419
.704
.419
.692
.419
-.101
.419
.044
.418
.208
.419
.125
.419
.73
.419
.516
.419
.32
.419
.176
.419
.038
.419
.315
.418
.132
.419
.05
.419
.27
.419
.453
.419
-.352
.419
-.019
.419
-.182
.419
-.271
.418
-.566
.419
-.32
.419
-.258
.419
-.378
.419
-.05
.419
-.176
.419
-.088
.419
-.113
.418
-.554
.419
-.805
.419
-.037
.419
-.365
.419
.189
.419
.006
.419
.717
.419
-.302
.419
-.824
.418
.113
.419
-.44
.419
-.22
.419
-.233
.419
-.239
.419
-.025
.419
-.201
.419
-.151
.418
-.201
.419
-.189
.419
-.409
.419
.007
.419
.61
.419
-.258
.419
.088
.419
.258
.418
.138
.419
.195
.419
.403
.419
-.07
.419
.365
.419
.629
.419
.094
.419
.579
.418
.107
.419
.056
.419
-.012
.419
.44
.419
.572
.419
-.037
.419
.578
.419
-.182
.419
-.202
.418
-.012
.419
-.302
.419
-.34
.419
-.194
.419
.377
.419
.088
.419
.113
.419
.113
.418
-.17
.419
.214
.419
-.503
.419
.113
.419
-.125
.419
-.132
.419
-.548
.419
.07
.418
-.365
.419
-.403
.419
.063
.419
-.981
.419
-.541
.419
-.069
.419
-.509
h.419
l.418
-.006
.419
.239
.419
-.038
.419
.641
.419
.365
.419
-.057
.419
.151
.419
.107
.419
.057
.418
-.78
.419
.126
.419
.163
.419
.315
.419
-.245
.419
.031
.419
-.006
.419
-.051
.418
-.251
.419
-.252
.419
.239
.419
.145
.419
.283
.419
.094
.419
.315
.419
.83
.418
.314
.419
-.339
.419
.32
.419
-.195
.419
.239
.419
-.717
.419
-.515
.419
-.264
.419
-.12
.418
-.478
.419
-.063
.419
.271
.419
.421
.419
.761
.419
.157
.419
-.251
.419
-.214
.418
.402
.419
.346
.419
.308
.419
.132
.419
-.113
.419
.277
.419
.327
.419
.119
.418
.636
.419
.371
.419
-.038
.419
.182
.419
.076
.419
.484
.419
.283
.419
.239
.418
.138
.419
.415
.419
.164
.419
.396
.419
-.164
.419
-.031
.419
-.937
.419
-.673
.419
-.075
.418
.037
.419
-.157
.419
.447
.419
.157
.419
-.239
.419
-.478
.419
-.189
.419
-.308
.418
.277
.419
.402
.419
-.012
.419
-.698
.419
-.315
.419
-.138
.419
-.277
.419
-.157
.418
-.245
.419
-.29
.419
-.679
.419
.145
.419
.101
.419
.125
.419
.434
.419
.082
.418
-.371
.419
.654
.419
.711
.419
.301
.419
.277
.419
.271
.419
.345
.419
.195
.419
.076
.418
.239
.419
.591
.419
.302
.419
.144
.419
.007
.419
-.069
.419
.289
.419
.748
.418
.308
.419
.246
.419
.352
.419
.025
.419
.138
.419
-.698
.419
-.346
.419
-.635
.418
-.126
.419
.221
.419
-.145
.419
-.434
.419
.553
.419
-.125
.419
-.353
.419
-.062
.419
-.447
.418
-.748
.419
-.321
.419
-.138
.419
-.189
.419
-.013
.419
-.496
.419
-.139
.419
-.025
.418
.132
.419
-.534
.419
-.547
.419
-.774
.419
-.22
.419
.006
.419
-.038
.419
.101
.418
.176
.419
.969
.419
1.119
.419
.491
.419
.144
.419
-.314
.419
.1
.419
-.107
.418
.202
.419
.201
.419
.761
.419
.61
.419
-.019
.419
.365
.419
-.145
.419
-.063
.419
.239
h.418
l.419
.289
.419
.202
.419
.188
.419
-.125
.419
.144
.419
.063
.419
.774
.418
-.088
.419
-.214
.419
-.157
.419
.075
.419
.075
.419
.164
.419
.057
.419
-.095
.418
.032
.419
.044
.419
.012
.419
.56
.419
-.069
.419
.031
.419
-.05
.419
-.151
.418
.057
.419
.339
.419
.327
.419
.264
.419
-.012
.419
.006
.419
-.358
.419
.377
.419
-.233
.418
-.056
.419
.383
.419
.17
.419
-.277
.419
-.069
.419
-.283
.419
-.302
.419
-.226
.418
-.371
.419
-.082
.419
-.189
.419
.12
.419
-.145
.419
.227
.419
.327
.419
-.044
.418
-.032
.419
-.019
.419
.189
.419
.17
.419
.056
.419
-.062
.419
-.283
.419
-.12
.418
-.044
.419
.038
.419
.364
.419
-.062
.419
.169
.419
-.257
.419
-.057
.419
.05
.419
-.006
.418
.365
.419
.364
.419
.252
.419
.075
.419
.566
.419
-.402
.419
-.069
.419
.012
.418
-.031
.419
-.478
.419
-.195
.419
-.239
.419
.019
.419
.031
.419
-.427
.419
.17
.418
.352
.419
-.302
.419
-.239
.419
-.208
.419
.12
.419
.126
.419
.239
.419
-.076
h.419
l.418
.327
.419
-.434
.419
-.1
.419
.025
.419
-.139
.419
-.503
.419
-.283
.419
.176
.418
-.308
.419
.378
.419
.069
.419
.082
.419
-.089
.419
.321
.419
-.113
.419
-.138
.418
-1.063
.419
-.403
.419
.082
.419
-.805
.419
-.685
.419
.119
.419
-.22
.419
.296
.418
-.453
.419
-.164
.419
-.478
h.419
l.419
-.421
.419
-.063
.419
.233
.419
-.101
.419
-.094
.418
-.409
.419
.007
.419
.377
.419
-.032
.419
-.39
.419
-.276
.419
-.227
.419
-.478
.418
-.113
.419
-.195
.419
.025
.419
-.238
.419
.974
.419
.208
.419
-.201
.419
.327
.418
-.195
.419
-.233
.419
.786
.419
-.239
.419
.245
.419
.076
.419
-.491
.419
-.201
.418
.214
.419
-.05
.419
-.34
.419
.251
.419
.271
.419
.396
.419
.572
.419
-.383
.419
-.176
.418
.383
.419
.334
.419
.333
.419
.415
.419
-.315
.419
-.056
.419
-.308
.419
.069
.418
-1.038
.419
-.899
.419
-.541
.419
-.333
.419
-.258
.419
-.799
.419
-.333
.419
-.975
.418
-.685
.419
-.547
.419
-.082
.419
-.39
.419
-.893
.419
-.251
.419
-.698
.419
-.403
.418
-.484
.419
-.44
.419
-.139
.419
-.239
.419
-.836
.419
-.145
.419
-.484
.419
-1.723
.419
-.402
.418
-.189
.419
-.428
.419
-.314
.419
.151
.419
.113
.419
.352
.419
.604
.419
.295
.418
.617
.419
.905
.419
-.119
.419
1.157
.419
.773
.419
.158
.419
.685
.419
.057
.418
.509
.419
.34
.419
.786
.419
.352
.419
.333
.419
.17
.419
-.239
.419
.579
.419
1.031
.418
-.076
.419
.07
.419
1.238
.419
-.188
.419
-.025
.419
.471
.419
.44
.419
.189
.418
.403
.419
.547
.419
.364
.419
.076
.419
.113
.419
.264
.419
.164
.419
-.434
.418
-.157
.419
-.12
.419
.182
.419
-.163
.419
.635
.419
-.201
.419
.314
.419
.051
.418
.063
.419
-.045
.419
.221
.419
-.057
.419
-.082" aria-label="line"/>
</svg>
