<svg xmlns="http://www.w3.org/2000/svg" width="830" height="470" fill="currentColor" class="plot-d6a7b5" font-family="system-ui, sans-serif" font-size="10" style="--plot-background:white;display:block;height:intrinsic;max-width:100%;color:#1e90ff" text-anchor="middle" viewBox="0 0 830 470">
    <style>
        :where(.plot-d6a7b5 text),:where(.plot-d6a7b5 tspan){white-space:pre}
    </style>
    <path stroke="currentColor" stroke-opacity=".1" d="
M60
410
h710
M60
362.919
h710
M60
315.838
h710
M60
268.757
h710
M60
221.676
h710
M60
174.595
h710
M60
127.514
h710
M60
80.433
h710" aria-hidden="true" aria-label="y-grid"/>
    <path fill="none" stroke="currentColor" d="
M60
410
h-6
m6
-47.081
h-6
m6
-47.081
h-6
m6
-47.081
h-6
m6
-47.081
h-6
m6
-47.081
h-6
m6
-47.081
h-6
m6
-47.081
h-6" aria-hidden="true" aria-label="y-axis tick"/>
    <g aria-label="y-axis tick label" font-variant="tabular-nums" text-anchor="end">
        <text y=".32em" transform="translate(51 410)">0</text>
        <text y=".32em" transform="translate(51 362.919)">2,000</text>
        <text y=".32em" transform="translate(51 315.838)">4,000</text>
        <text y=".32em" transform="translate(51 268.757)">6,000</text>
        <text y=".32em" transform="translate(51 221.676)">8,000</text>
        <text y=".32em" transform="translate(51 174.595)">10,000</text>
        <text y=".32em" transform="translate(51 127.514)">12,000</text>
        <text y=".32em" transform="translate(51 80.433)">14,000</text>
    </g>
    <text y=".71em" aria-label="y-axis label" text-anchor="start" transform="translate(3 3)">↑ Visible vestiges (8 days)</text>
    <path fill="none" stroke="currentColor" d="
M81.188
410
v6
m56.708
-6
v6
m57.332
-6
v6
m57.332
-6
v6
m56.709
-6
v6
m56.708
-6
v6
m57.332
-6
v6
m57.331
-6
v6
m56.086
-6
v6
m56.709
-6
v6
m57.332
-6
v6
m57.331
-6
v6
m56.086
-6
v6" aria-hidden="true" aria-label="x-axis tick"/>
    <g aria-label="x-axis tick label" font-variant="tabular-nums">
        <text transform="translate(81.188 419)"><tspan x="0" y=".71em">Apr</tspan><tspan x="0" dy="1em">2023</tspan></text>
        <text y=".71em" transform="translate(137.896 419)">Jul</text>
        <text y=".71em" transform="translate(195.228 419)">Oct</text>
        <text transform="translate(252.56 419)"><tspan x="0" y=".71em">Jan</tspan><tspan x="0" dy="1em">2024</tspan></text>
        <text y=".71em" transform="translate(309.269 419)">Apr</text>
        <text y=".71em" transform="translate(365.977 419)">Jul</text>
        <text y=".71em" transform="translate(423.309 419)">Oct</text>
        <text transform="translate(480.64 419)"><tspan x="0" y=".71em">Jan</tspan><tspan x="0" dy="1em">2025</tspan></text>
        <text y=".71em" transform="translate(536.726 419)">Apr</text>
        <text y=".71em" transform="translate(593.435 419)">Jul</text>
        <text y=".71em" transform="translate(650.767 419)">Oct</text>
        <text transform="translate(708.098 419)"><tspan x="0" y=".71em">Jan</tspan><tspan x="0" dy="1em">2026</tspan></text>
        <text y=".71em" transform="translate(764.184 419)">Apr</text>
    </g>
    <path fill="none" stroke="currentColor" stroke-linecap="round" stroke-linejoin="round" stroke-width="1.5" d="
m60
410
.415
-11.817
.416
-43.221
.415
-23.305
.416
-16.525
.415
-27.26
.416
-21.469
.415
-20.127
.416
-28.908
.415
10.994
.415
-14.949
.416
-42.726
.415
-28.601
.416
-7.533
.415
-21.846
.416
12.218
.415
-.448
.416
-4.472
.415
30.485
.416
27.66
.415
-9.275
.415
-.471
.416
-1.554
.415
-18.62
.416
18.432
.415
6.097
.416
-12.688
.415
-.871
.416
12.311
.415
-11.935
.415
9.416
.416
-13.841
.415
-36.441
.416
-6.003
.415
11.982
.416
1.836
.415
20.693
.416
24.67
.415
6.215
.415
27.895
.416
25.118
.415
-23.188
.416
-24.34
.415
-25.871
.416
-39.949
.415
-6.826
.416
-1.789
.415
-23.188
.415
12.736
.416
25.4
.415
-1.883
.416
9.722
.415
-5.509
.416
-30.438
.415
-15.277
.416
6.285
.415
-19.256
.416
7.109
.415
9.84
.415
-8.969
.416
13.442
.415
16.808
.416
-20.881
.415
-3.554
.416
-1.154
L87.004
60
l.416
17.561
.415
17.82
.415
-1.459
.416
15.466
.415
22.575
.416
7.698
.415
19.774
.416
.047
.415
-14.548
.416
-1.412
.415
10.357
.415
-9.157
.416
6.803
.415
19.398
.416
6.497
.415
17.749
.416
15.537
.415
-13.441
.416
-3.861
.415
-3.013
.415
-24.977
.416
-1.624
.415
8.898
.416
-15.348
.415
7.957
.416
23.234
.415
2.731
.416
15.937
.415
1.742
.416
-19.751
.415
11.464
.415
2.025
.416
-8.687
.415
5.862
.416
5.815
.415
-7.157
.416
19.233
.415
13.724
.416
-4.12
.415
-12.57
.415
-7.18
.416
-16.808
.415
9.981
.416
-3.719
.415
-14.313
.416
9.864
.415
15.56
.416
-.447
.415
14.877
.415
-2.778
.416
-6.356
.415
7.392
.416
1.036
.415
-1.224
.416
9.534
.415
4.072
.416
.942
.415
9.345
.416
8.616
.415
-8.663
.415
-17.066
.416
-8.969
.415
-19.257
.416
4.591
.415
-5.532
.416
-8.498
.415
6.403
.416
23.446
.415
-5.202
.415
11.44
.416
-5.697
.415
-15.419
.416
-3.389
.415
-1.884
.416
-10.004
.415
4.943
.416
4.214
.415
6.12
.415
11.865
.416
13.183
.415
3.389
.416
6.309
.415
10.146
.416
-4.967
.415
2.448
.416
8.993
.415
-10.758
.415
3.319
.416
2.542
.415
-.306
.416
4.308
.415
-2.142
.416
-2.26
.415
3.013
.416
.353
.415
-5.72
.416
-.235
.415
3.531
.415
-5.909
.416
-.118
.415
6.898
.416
-4.52
.415
1.224
.416
3.79
.415
-8.498
.416
6.38
.415
.894
.415
-6.662
.416
3.013
.415
10.57
.416
-6.662
.415
9.863
.416
-.706
.415
-4.355
.416
3.861
.415
-2.119
.415
-13.277
.416
-.211
.415
-1.648
.416
-11.158
.415
-.448
.416
5.626
.415
-1.718
.416
3.437
.415
10.169
.415
-3.295
.416
18.455
.415
9.134
.416
-6.615
.415
4.449
.416
6.074
.415
-12.665
.416
4.92
.415
-1.813
.416
-5.908
.415
.565
.415
3.719
.416
-9.91
.415
9.416
.416
.07
.415
-6.92
.416
4.684
.415
-.471
.416
-8.404
.415
4.026
.415
-2.26
.416
-2.778
.415
-1.483
.416
-.424
.415
3.508
.416
5.673
.415
7.251
.416
-7.015
.415
5.602
.415
7.321
.416
-3.036
.415
.447
.416
-2.448
.415
-14.666
.416
3.602
.415
3.083
.416
-12.076
.415
.753
.416
-1.483
.415
-5.438
.415
11.064
.416
2.307
.415
-10.075
.416
6.898
.415
2.048
.416
-10.264
.415
4.637
.416
-1.647
.415
-4.614
.415
-4.026
.416
-4.308
.415
-20.762
.416
5.108
.415
4.331
.416
-5.155
.415
4.237
.416
12.43
.415
4.684
.415
20.645
.416
10.758
.415
-4.52
.416
4.285
.415
5.132
.416
-9.864
.415
.118
.416
2.919
.415
-8.828
.415
-5.555
.416
-3.108
.415
-15.042
.416
3.201
.415
2.307
.416
-13.277
.415
.024
.416
7.509
.415
-1.365
.416
9.134
.415
7.297
.415
.189
.416
15.301
.415
6.026
.416
.73
.415
4.967
.416
2.095
.415
-4.99
.416
.777
.415
-1.272
.415
-1.577
.416
2.236
.415
5.203
.416
1.2
.415
.66
.416
-.212
.415
-7.251
.416
1.53
.415
-.047
.415
-3.813
.416
3.813
.415
3.32
.416
4.143
.415
14.359
.416
5.226
.415
-8.78
.416
.541
.415
-3.484
.415
-8.78
.416
5.908
.415
-3.719
.416
-.73
.415
17.232
.416
3.601
.415
2.119
.416
6.144
.415
-8.78
.416
-16.62
.415
-12.83
.415
-3.554
.416
-3.131
.415
2.942
.416
2.637
.415
1.201
.416
14.265
.415
12.947
.416
-5.626
.415
-2.754
.415
-2.99
.416
-6.05
.415
6.804
.416
5.155
.415
-1.695
.416
5.838
.415
9.228
.416
-3.837
.415
5.085
.415
-5.791
.416
-11.818
.415
-2.566
.416
4.567
.415
-4.567
.416
7.345
.415
5.344
.416
2.825
.415
8.945
.416
1.248
.415
-11.606
.415
-5.391
.416
-9.84
.415
-11.982
.416
-2.707
.415
.965
.416
-.023
.415
7.462
.416
7.839
.415
3.037
.415
10.193
.416
4.59
.415
-13.983
.416
-7.085
.415
-.919
.416
-.306
.415
8.64
.416
4.567
.415
-5.344
.415
15.137
.416
11.322
.415
-8.192
.416
-9.439
.415
-7.557
.416
-16.125
.415
4.426
.416
-.354
.415
-8.898
.415
9.063
.416
11.394
.415
.141
.416
5.344
.415
.73
.416
-8.31
.415
7.391
.416
4.803
.415
-5.391
.416
5.791
.415
11.676
.415
1.13
.416
8.875
.415
-5.933
.416
-13.888
.415
-4.45
.416
-2.872
.415
-7.391
.416
2.472
.415
-1.625
.415
3.743
.416
13.889
.415
13.63
.416
-.047
.415
5.579
.416
-4.025
.415
-.871
.416
2.777
.415
.306
.415
-2.354
.416
8.875
.415
.824
.416
1.342
.415
6.167
.416
7.251
.415
-9.652
.416
-6.309
.415
-10.946
.415
-8.639
.416
-1.719
.415
-.447
.416
-7.98
.415
9.581
.416
6.003
.415
.4
.416
3.413
.415
1.083
.416
-9.699
.415
.471
.415
-4.096
.416
-2.99
.415
4.803
.416
.141
.415
-7.863
.416
6.003
.415
1.578
.416
.659
.415
1.059
.415
-1.318
.416
-1.083
.415
11.37
.416
6.521
.415
-1.366
.416
1.177
.415
5.297
.416
3.46
.415
5.297
.415
1.177
.416
-6.121
.415
2.001
.416
4.52
.415
-5.391
.416
-3.013
.415
3.673
.416
-.754
.415
5.085
.416
3.484
.415
-7.298
.415
.212
.416
3.061
.415
-3.508
.416
-1.318
.415
-5.391
.416
-2.213
.415
6.544
.416
5.391
.415
-3.319
.415
.918
.416
-.565
.415
-4.779
.416
-4.143
.415
-.212
.416
-2.848
.415
-.895
.416
-2.871
.415
-4.308
.415
5.673
.416
1.2
.415
-7.344
.416
-.283
.415
3.578
.416
-2.048
.415
3.014
.416
.588
.415
-3.837
.415
4.637
.416
3.555
.415
-5.132
.416
7.557
.415
1.812
.416
-4.896
.415
8.098
.416
.471
.415
-3.908
.416
8.545
.415
-1.553
.415
2.236
.416
9.887
.415
-1.836
.416
-4.096
.415
-.848
.416
-7.956
.415
-10.641
.416
-1.012
.415
-4.402
.415
.377
.416
.353
.415
-2.119
.416
4.12
.415
9.934
.416
-4.449
.415
-5.485
.416
-11.794
.415
-.283
.415
-1.789
.416
1.413
.415
-.801
.416
1.107
.415
10.146
.416
13.841
.415
-5.131
.416
-3.955
.415
-5.391
.416
-11.888
.415
.094
.415
-4.731
.416
-4.402
.415
6.803
.416
10.287
.415
-.612
.416
11.299
.415
-3.86
.416
-12.995
.415
-4.26
.415
-.071
.416
-7.321
.415
3.931
.416
.8
.415
-2.307
.416
8.546
.415
.164
.416
-4.001
.415
-1.013
.415
-12.712
.416
-17.843
.415
3.248
.416
-.753
.415
-5.932
.416
.753
.415
7.039
.416
9.863
.415
14.125
.415
2.165
.416
-4.543
.415
4.685
.416
7.721
.415
-4.12
.416
1.224
.415
-2.942
.416
-2.637
.415
10.57
.416
4.002
.415
-12.335
.415
-2.731
.416
1.036
.415
-3.32
.416
5.556
.415
-2.919
.416
-.283
.415
10.711
.416
7.628
.415
-1.648
.415
7.486
.416
-1.719
.415
-8.427
.416
1.977
.415
-.989
.416
1.601
.415
5.509
.416
.094
.415
.894
.415
14.03
.416
3.649
.415
-6.638
.416
-1.577
.415
.306
.416
-4.473
.415
-.612
.416
1.648
.415
-1.483
.415
4.096
.416
1.106
.415
-4.637
.416
1.694
.415
-2.259
.416
-15.396
.415
-4.684
.416
3.272
.415
7.509
.416
12.194
.415
13.371
.415
12.735
.416
19.704
.415
13.559
.416
8.64
.415
.517
.416
-.612
.415
-.4
.416
-1.153
.415
-1.931
.415
-1.247
.416
-1.648
.415
-2.613
.416
-4.12
.415
-11.888
.416
-7.109
.415
-5.744
.416
-5.602
.415
-4.85
.415
-4.049
.416
-4.896
.415
3.578
.416
-2.048
.415
-2.99
.416
-2.518
.415
-4.92
.416
-1.154
.415
3.037
.416
-1.012
.415
-.095
.415
6.262
.416
2.731
.415
1.507
.416
3.154
.415
.8
.416
.918
.415
3.437
.416
-5.767
.415
-1.836
.415
4.967
.416
-2.142
.415
-.871
.416
2.424
.415
2.613
.416
4.755
.415
5.368
.416
-.777
.415
1.553
.415
-1.153
.416
-4.826
.415
-2.683
.416
.941
.415
-6.615
.416
-1.6
.415
-.542
.416
.848
.415
1.341
.415
.283
.416
-4.944
.415
3.39
.416
2.519
.415
-.871
.416
-1.412
.415
1.035
.416
1.06
.415
1.6
.416
-.258
.415
-3.508
.415
-4.426
.416
-.541
.415
-2.801
.416
-.659
.415
2.236
.416
-1.177
.415
.612
.416
5.461
.415
.142
.415
1.553
.416
.118
.415
-5.673
.416
-2.119
.415
-.259
.416
-5.179
.415
2.142
.416
4.897
.415
2.189
.415
5.626
.416
2.778
.415
.235
.416
-4.896
.415
-1.483
.416
-7.415
.415
-1.813
h.416
l.415
.165
.415
-2.66
.416
13.159
.415
.541
.416
4.12
.415
-1.742
.416
-6.003
.415
-7.439
.416
3.013
.415
-9.18
.416
1.859
.415
.659
.415
-6.567
.416
1.342
.415
7.462
.416
-3.931
.415
.423
.416
-.753
.415
-7.321
.416
7.392
.415
3.554
.415
-2.848
.416
1.224
.415
5.344
.416
-4.967
.415
6.144
.416
-2.59
.415
-7.062
.416
-3.908
.415
.306
.415
-2.589
.416
-1.13
.415
1.436
.416
1.601
.415
6.85
.416
3.766
.415
1.295
.416
.306
.415
4.167
.416
-1.483
.415
-2.354
.415
3.978
.416
5.367
.415
1.436
.416
3.578
.415
-5.084
.416
1.153
.415
4.638
.416
-4.308
.415
-11.158
.415
1.836
.416
-2.307
.415
2.825
.416
-.189
.415
.259
.416
.353
.415
11.512
.416
-.565
.415
1.153
.415
3.72
.416
-4.779
.415
-3.696
.416
.942
.415
-6.921
.416
-2.166
.415
-1.365
.416
.965
.415
6.732
.415
4.379
.416
-1.766
.415
2.472
.416
4.285
.415
2.966
.416
.447
.415
.871
.416
-1.695
.415
.33
.416
.541
.415
-5.085
.415
.306
.416
.471
.415
-3.154
.416
-1.154
.415
2.849
.416
-.165
.415
1.13
.416
-1.224
.415
-2.166
.415
.753
.416
-.8
.415
-6.639
.416
-7.109
.415
-1.86
.416
-4.166
.415
.329
.416
.871
.415
-1.177
.415
4.732
.416
10.405
.415
3.343
.416
3.743
.415
-.212
.416
-.942
.415
-1.554
.416
-1.294
.415
-7.51
.415
-5.626
.416
-5.65
.415
-5.108
.416
-3.178
.415
-1.601
.416
-5.649
.415
5.838
.416
3.013
.415
-3.955
.416
3.955
.415
3.343
.415
2.095
.416
6.285
.415
3.131
.416
-12.877
.415
-2.66
.416
-10.358
.415
-12.523
.416
-5.744
.415
-4.426
.415
-14.571
.416
2.613
.415
7.062
.416
7.627
.415
6.662
.416
3.837
.415
-2.119
.416
2.967
.415
9.133
.415
5.579
.416
-.188
.415
7.062
.416
5.626
.415
4.85
.416
6.826
.415
.189
.416
-5.697
.415
-.565
.416
-2.731
.415
-2.448
.415
.8
.416
1.272
.415
4.92
.416
8.215
.415
7.651
.416
3.743
.415
2.895
.416
3.743
.415
.071
.415
.165
.416
-1.931
.415
-.706
.416
-.777
.415
1.342
.416
-4.637
.415
.612
.416
-2.354
.415
.117
.415
-3.225
.416
-2.307
.415
-2.495
.416
3.319
.415
-.494
.416
1.954
.415
-.4
.416
4.331
.415
3.743
.415
2.283
.416
1.413
.415
-.589
.416
-.965
.415
.589
.416
-1.483
.415
-1.625
.416
-.4
.415
-2.895
.416
2.966
.415
-2.048
.415
-5.768
.416
-5.249
.415
-8.381
.416
-.753
.415
-.024
.416
-2.966
.415
3.508
.416
3.154
.415
2.708
.415
6.85
.416
-4.002
.415
-11.135
.416
-.494
.415
-.565
.416
-3.413
.415
1.106
.416
4.237
.415
2.849
.415
12.099
.416
3.155
.415
-3.461
.416
1.413
.415
-2.943
.416
-10.146
.415
2.213
.416
1.601
.415
-1.766
.415
2.802
.416
6.591
.415
5.697
.416
7.862
.415
2.307
.416
-.941
.415
1.671
.416
2.166
.415
-1.366
.416
1.177
.415
1.366
.415
-3.72
.416
-.023
.415
.8
.416
-4.99
.415
-2.19
.416
-3.366
.415
-4.543
.416
4.143
.415
2.283
.415
-1.789
.416
5.203
.415
3.154
.416
1.46
.415
6.097
.416
-1.036
.415
-5.391
.416
.612
.415
1.624
.415
1.413
.416
1.412
.415
-1.859
.416
-1.083
.415
1.577
.416
1.624
.415
-5.885
.416
-8.639
.415
-4.708
.416
-7.133
.415
-3.861
.415
1.719
.416
-1.413
.415
2.707
.416
4.967
.415
3.414
.416
8.051
.415
1.553
.416
-1.483
.415
-2.354
.415
1.13
.416
-.965
.415
1.836
.416
.565
.415
.165
.416
2.589
.415
3.108
.416
-1.083
.415
.565
.415
-3.06
.416
-2.896
.415
3.131
.416
-.824
.415
-1.671
.416
-.306
.415
1.365
.416
-.965
.415
1.577
.415
-1.765
.416
-3.273
.415
-2.283
.416
2.048
.415
.306
.416
1.412
.415
1.201
.416
.612
.415
4.638
.416
6.379
.415
-1.412
.415
2.354
.416
4.166
.415
.283
.416
.376
.415
1.484
.416
-.565
.415
-.236
.416
-5.461
.415
-3.837
.415
-4.002
.416
1.695
.415
-1.742
.416
-.589
.415
.565
.416
3.484
.415
2.801
.416
4.097
.415
-2.59
.415
-.118
.416
-.776
.415
-2.778
.416
-2.754
.415
-1.436
.416
-3.602
.415
1.671
.416
-2.566
.415
-1.106
.415
4.755
.416
4.143
.415
-1.318
.416
2.707
.415
-.894
.416
-1.483
.415
2.612
.416
-3.625
.415
-2.001
.416
1.06
.415
.918
.415
.706
.416
5.344
.415
-1.342
.416
1.954
.415
-1.554
.416
-1.412
.415
-8.145
.416
-4.12
.415
-3.531
.415
-3.837
.416
-1.648
.415
1.201
.416
-3.767
.415
1.836
.416
3.037
.415
-2.189
.416
2.448
.415
2.589
.415
-.588
.416
5.108
.415
4.991
.416
1.93
.415
2.072
.416
1.224
.415
-1.507
.416
1.46
.415
-1.224
.416
.706
.415
-1.201
.415
2.731
.416
-.33
.415
-1.577
.416
-.118
.415
-2.754
.416
-1.106
.415
-.801
.416
-2.495
.415
-1.813
.415
-.329
.416
-2.566
.415
3.037
.416
1.859
.415
-1.13
.416
1.036
.415
1.342
.416
.471
.415
.188
.415
-4.826
.416
-9.439
.415
-2.731
.416
.447
.415
-.612
.416
1.978
.415
2.236
.416
3.154
.415
8.216
.415
5.532
.416
-4.025
.415
-2.378
.416
.259
.415
-2.048
.416
1.059
.415
-.989
.416
-2.212
.415
1.365
.416
-1.13
.415
-1.883
.415
1.012
.416
1.671
.415
.354
.416
1.341
.415
5.65
.416
.636
.415
2.165
h.416
l.415
-3.436
.415
-1.225
.416
-4.331
.415
-6.262
.416
2.613
.415
-1.977
.416
-3.484
.415
2.66
.416
1.106
.415
.4
.415
2.943
.416
-.471
.415
-2.872
.416
5.085
.415
.141
.416
-2.283
.415
3.319
.416
-3.861
.415
1.201
.415
.047
.416
-3.013
.415
.047
.416
3.131
.415
-.73
.416
-1.977
.415
-5.697
.416
1.506
.415
-2.071
.416
-1.365
.415
-2.825
.415
-4.92
.416
2.989
.415
3.743
.416
-.047
.415
4.567
.416
.094
.415
1.577
.416
4.45
.415
2.613
.415
.612
.416
2.001
.415
-1.13
.416
-2.802
.415
-1.153
.416
2.048
.415
1.53
.416
1.483
.415
.353
.415
1.389
.416
5.626
.415
3.343
.416
-1.201
.415
1.154
.416
1.436
.415
-.283
.416
-.306
.415
-1.13
.416
-3.319
.415
1.907
.415
-2.707
.416
-.165
.415
-2.26
.416
1.554
.415
-1.766
.416
4.261
.415
.589
.416
-2.401
.415
-.613
.415
2.402
.416
.941
.415
2.59
.416
-3.32
.415
-.706
.416
4.52
.415
2.966
.416
1.271
.415
.777
.415
.047
.416
3.319
.415
-1.836
.416
-2.165
.415
-4.049
.416
1.718
.415
-1.624
.416
.777
.415
.659
.415
4.331
.416
.942
.415
1.836
.416
-2.142
.415
1.553
.416
-.447
.415
-1.13
.416
-3.484
.415
3.319
.416
1.225
.415
1.977
.415
-2.59
.416
-1.153
.415
-.212
.416
1.907
.415
-1.271
.416
.235
.415
.236
.416
3.201
.415
3.202
.415
1.106
.416
-.4
.415
1.954
.416
.329
.415
.989
.416
-.377
.415
.047
.416
1.154
.415
2.095
.415
-.071
.416
1.177
.415
-.612
.416
-1.13
.415
-.117
.416
-.73
.415
.753
.416
-1.247
.415
-1.201
.415
-.683
.416
1.295
.415
-2.707
.416
.07
.415
-.918
.416
.518
.415
-.235
.416
.212
.415
.635
.416
3.225
.415
.66
.415
.188
.416
.094
.415
-.024
.416
.118
.415
-.871
.416
-1.883
.415
-2.26
.416
-1.059
.415
-.565
.415
-.165
.416
1.059
.415
-.588
.416
-.448
.415
1.578
.416
-1.601
.415
-1.295
.416
.024
.415
-2.378
.415
.683
.416
1.648
.415
.4
.416
1.012
.415
-.989
.416
1.083
.415
-.518
.416
-1.318
.415
-.259
.416
-.353
.415
1.695
.415
2.519
.416
-.895
.415
.871
.416
.236
.415
-1.53
.416
-.966
.415
.118
.416
-1.271
.415
.329
.415
1.554
.416
2.284
.415
1.671
.416
1.036
.415
-.965
.416
.729
.415
.73
.416
-.588
.415
-.73
.415
.353
.416
.353
.415
.612
.416
1.295
.415
-1.201
.416
.589
.415
-.518
.416
-2.401
.415
-1.224
.415
-.353
.416
-1.083
.415
-.895
.416
-1.483
.415
.118
.416
1.247
.415
-.353
.416
-.494
.415
.612
.416
.8
.415
-.824
.415
.565
.416
1.483
.415
.754
.416
-1.436
.415
-.071
.416
-1.436
.415
1.107
.416
-.777
.415
-3.931
.415
-1.177
.416
2.142
.415
-1.554
.416
2.66
.415
.283
.416
1.247
.415
3.013
.416
2.025
.415
.4
.415
1.342
.416
-.518
.415
-.471
.416
-2.166
.415
-2.66
.416
-.682
.415
-1.107
.416
.895
.415
-.871
.416
.518
.415
-1.06
.415
3.296
.416
.071
.415
-.801
.416
-1.718
.415
1.389
.416
-.495
.415
1.483
.416
.589
.415
.118
.415
.941
.416
-.023
.415
-.895
.416
.871
.415
.824
.416
-2.613
.415
-2.024
.416
-.142
.415
1.225
.415
-1.648
.416
-.024
.415
-.353
.416
2.095
.415
2.119
.416
.894
.415
-1.6
.416
1.883
.415
.871
.415
.8
.416
-1.483
.415
.942
.416
-.942
.415
1.177
.416
.306
.415
.33
.416
.588
.415
1.719
.416
-.047
.415
1.224
.415
.188
.416
.565
.415
-.282
.416
-.613
.415
-.047
.416
-.918
.415
-2.095
.416
1.06
.415
-1.201
.415
-2.825
.416
-4.425
.415
-3.39
.416
.259
.415
1.647
.416
-1.177
.415
.683
.416
2.59
.415
3.484
.415
1.53
.416
-1.907
.415
-.353
.416
.682
.415
1.013
.416
-.33
.415
-1.389
.416
1.201
.415
1.907
.415
.07
.416
-.4
.415
-2.236
.416
-.471
.415
-.212
.416
1.106
.415
.848
.416
.588
.415
.118
.416
2.284
.415
-1.507
.415
2.166
.416
-2.307
.415
-2.637
.416
.824
.415
1.036
.416
-.188
.415
2.801
.416
.424
.415
1.718
.415
2.613
.416
-1.813
.415
-.824
.416
-.588
.415
.024
.416
.47
.415
.518
.416
.141
.415
1.695
.415
.848
.416
-.33
.415
-1.459
.416
-4.167
.415
-4.308
.416
-2.424
.415
-.542
.416
.094
.415
-.518
.416
.142
.415
3.178
.415
2.989
.416
-1.247
.415
-2.402
.416
-1.671
.415
-1.224
.416
.235
.415
.212
.416
.189
.415
2.989
.415
.989
.416
-.659
.415
1.883
.416
1.106
.415
-1.459
.416
-.871
.415
-2.331
.416
1.177
.415
2.237
.415
.8
.416
-.447
.415
1.2
.416
1.507
.415
2.778
.416
.235
.415
-.023
.416
-.942
.415
-.518
.415
-.918
.416
.306
.415
-.447
.416
-.236
.415
-.659
.416
-.565
.415
-.235
.416
.094
.415
-.777
.416
.33
.415
.141
.415
-.212
.416
.165
.415
1.224
.416
1.177
.415
-.683
.416
-1.53
.415
.565
.416
-.235
.415
.683
.415
-.495
.416
.306
.415
.942
.416
1.883
.415
.094
.416
.212
.415
.895
.416
-.189
.415
-.753
.415
.895
.416
-.565
.415
-.542
.416
-.07
.415
-1.342
.416
-.518
.415
.989
.416
-.777
.415
.47
.415
.165
.416
.353
.415
-.988
.416
1.365
.415
-.918
.416
-.259
.415
-.235
.416
-.848
.415
-.494
.416
.847
.415
-1.789
.415
-.753
.416
-.33
.415
-1.883
.416
.942
.415
.423
.416
.919
.415
1.412
.416
1.789
.415
1.318
.415
2.119
.416
-.377
.415
.094
.416
.189
.415
-.165
.416
-1.154
.415
-.47
.416
-1.672
.415
.142
.415
.07
.416
-.212
.415
-.259
.416
.918
.415
-.047
.416
-.164
h.415
l.416
-.495
.415
-.659
.416
.848
.415
-.189
.415
-.447
.416
.918
.415
.447
.416
-.753
.415
.188
.416
-.4
.415
-.07
.416
-.942
.415
.306
.415
-.895
.416
1.201
.415
.471
.416
-1.46
.415
.589
.416
1.954
.415
-.871
.416
-1.672
.415
-.706
.415
.4
.416
1.86
h.415
l.416
-.683
.415
1.083
.416
1.954
.415
-.847
.416
-1.319
.415
-1.036
.415
-.564
.416
-1.79
.415
-1.506
.416
.353
.415
.918
.416
1.036
.415
.353
.416
.424
.415
1.483
.416
1.318
.415
-.777
.415
-.259
.416
-4.19
.415
-1.295
.416
-1.459
.415
-2.095
.416
-1.813
h.415
l.416
-1.977
.415
4.378
.415
.212
.416
.942
.415
1.224
.416
1.883
.415
-.942
.416
2.543
.415
-1.083
h.416
l.415
-.777
.415
-.306
.416
-1.766
.415
1.484
.416
.47
.415
-1.412
.416
.377
.415
-.142
.416
.165
.415
1.036
.415
-.824
.416
-.565
.415
.306
.416
.494
.415
.33
.416
-.424
.415
-.447
.416
-1.813
.415
-.965
.416
1.86
.415
-.165
.415
.353
.416
1.978
.415
-1.837
.416
1.86
.415
.73
.416
-.589
.415
-1.459
.416
.023
.415
-.047
.415
3.013
.416
1.13
.415
-.753
h.416
l.415
1.295
.416
.683
.415
.094
.416
.235
.415
-2.283
.415
.4
.416
-1.059
.415
-.871
.416
-4.638
.415
-4.284
.416
-4.002
.415
-.518
.416
-2.566
.415
-2.801
.416
.353
.415
.07
.415
1.154
.416
1.954
.415
-.895
.416
1.366
.415
.376
.416
-.282
.415
-.424
.416
1.083
.415
.188
.415
1.672
.416
2.071
.415
1.695
.416
-2.189
.415
3.366
.416
.377
.415
-4.544
.416
.377
.415
-2.472
.415
-.306
.416
.895
.415
.235
.416
-2.401
.415
3.484
.416
-.235
.415
1.294
.416
1.342
.415
1.766
.415
-.659
.416
3.978
.415
2.731
.416
.282
.415
.565
.416
-.73
.415
-1.106
.416
1.436
.415
-1.813
.416
-.494
.415
.847
.415
-.259
.416
.966
.415
1.953
.416
.401
.415
.141
.416
-.683
.415
-1.153
.416
-.965
.415
-1.672
.415
-.706
.416
-1.318
.415
1.224
.416
-1.154
.415
.895
.416
1.836
.415
1.671
h.416
l.415
1.107
.415
-.753
.416
.847
.415
.094
.416
-1.53
.415
.965
.416
-1.765
.415
.282
.416
.071
.415
.988
.415
.283
.416
1.53
.415
-1.106
.416
2.401
.415
-.636
.416
.848
.415
.635
.416
.942
.415
.824
.416
1.859
.415
.895
.415
1.036
.416
.777
.415
.494
h2.078
l.415
-.024" aria-label="line"/>
</svg>
