<?xml version="1.0"?>
<svg xmlns="http://www.w3.org/2000/svg" xmlns:xlink="http://www.w3.org/1999/xlink" class="plot-d6a7b5" fill="currentColor" font-family="system-ui, sans-serif" font-size="10" text-anchor="middle" width="830" height="470" viewBox="0 0 830 470" color="#1e90ff">
  <style>:where(.plot-d6a7b5){--plot-background: white;display:block;height:intrinsic;max-width:100%}:where(.plot-d6a7b5 text),:where(.plot-d6a7b5 tspan){white-space:pre}</style>
  <g aria-label="y-grid" stroke="currentColor" stroke-opacity=".1">
    <line x1="60" x2="770" y1="410" y2="410"/>
    <line x1="60" x2="770" y1="360.939" y2="360.939"/>
    <line x1="60" x2="770" y1="311.878" y2="311.878"/>
    <line x1="60" x2="770" y1="262.817" y2="262.817"/>
    <line x1="60" x2="770" y1="213.757" y2="213.757"/>
    <line x1="60" x2="770" y1="164.696" y2="164.696"/>
    <line x1="60" x2="770" y1="115.635" y2="115.635"/>
    <line x1="60" x2="770" y1="66.574" y2="66.574"/>
  </g>
  <g aria-label="y-axis tick" fill="none" stroke="currentColor">
    <path transform="translate(60,410)" d="M0,0L-6,0"/>
    <path transform="translate(60,360.9391645640594)" d="M0,0L-6,0"/>
    <path transform="translate(60,311.8783291281189)" d="M0,0L-6,0"/>
    <path transform="translate(60,262.8174936921783)" d="M0,0L-6,0"/>
    <path transform="translate(60,213.7566582562377)" d="M0,0L-6,0"/>
    <path transform="translate(60,164.69582282029717)" d="M0,0L-6,0"/>
    <path transform="translate(60,115.6349873843566)" d="M0,0L-6,0"/>
    <path transform="translate(60,66.57415194841604)" d="M0,0L-6,0"/>
  </g>
  <g aria-label="y-axis tick label" text-anchor="end" font-variant="tabular-nums">
    <text y=".32em" transform="translate(-9,0) translate(60,410)">0</text>
    <text y=".32em" transform="translate(-9,0) translate(60,360.9391645640594)">1,000</text>
    <text y=".32em" transform="translate(-9,0) translate(60,311.8783291281189)">2,000</text>
    <text y=".32em" transform="translate(-9,0) translate(60,262.8174936921783)">3,000</text>
    <text y=".32em" transform="translate(-9,0) translate(60,213.7566582562377)">4,000</text>
    <text y=".32em" transform="translate(-9,0) translate(60,164.69582282029717)">5,000</text>
    <text y=".32em" transform="translate(-9,0) translate(60,115.6349873843566)">6,000</text>
    <text y=".32em" transform="translate(-9,0) translate(60,66.57415194841604)">7,000</text>
  </g>
  <g aria-label="y-axis label" text-anchor="start">
    <text y=".71em" transform="translate(-57,-57) translate(60,60)">&#x2191; Visible Vestiges (4 days)</text>
  </g>
  <g aria-label="x-axis tick" fill="none" stroke="currentColor">
    <path transform="translate(89.20161290322581,410)" d="M0,0L0,6"/>
    <path transform="translate(167.35887096774195,410)" d="M0,0L0,6"/>
    <path transform="translate(246.375,410)" d="M0,0L0,6"/>
    <path transform="translate(325.39112903225805,410)" d="M0,0L0,6"/>
    <path transform="translate(403.54838709677415,410)" d="M0,0L0,6"/>
    <path transform="translate(481.70564516129036,410)" d="M0,0L0,6"/>
    <path transform="translate(560.7217741935483,410)" d="M0,0L0,6"/>
    <path transform="translate(639.7379032258065,410)" d="M0,0L0,6"/>
    <path transform="translate(717.0362903225807,410)" d="M0,0L0,6"/>
  </g>
  <g aria-label="x-axis tick label" font-variant="tabular-nums">
    <text transform="translate(0,9) translate(89.20161290322581,410)">
      <tspan x="0" y=".71em">Apr</tspan>
      <tspan x="0" dy="1em">2023</tspan>
    </text>
    <text y=".71em" transform="translate(0,9) translate(167.35887096774195,410)">Jul</text>
    <text y=".71em" transform="translate(0,9) translate(246.375,410)">Oct</text>
    <text transform="translate(0,9) translate(325.39112903225805,410)">
      <tspan x="0" y=".71em">Jan</tspan>
      <tspan x="0" dy="1em">2024</tspan>
    </text>
    <text y=".71em" transform="translate(0,9) translate(403.54838709677415,410)">Apr</text>
    <text y=".71em" transform="translate(0,9) translate(481.70564516129036,410)">Jul</text>
    <text y=".71em" transform="translate(0,9) translate(560.7217741935483,410)">Oct</text>
    <text transform="translate(0,9) translate(639.7379032258065,410)">
      <tspan x="0" y=".71em">Jan</tspan>
      <tspan x="0" dy="1em">2025</tspan>
    </text>
    <text y=".71em" transform="translate(0,9) translate(717.0362903225807,410)">Apr</text>
  </g>
  <g aria-label="line" fill="none" stroke="currentColor" stroke-width="1.5" stroke-linejoin="round" stroke-linecap="round">
    <path d="M60,410L60.573,385.371L61.145,295.296L61.718,246.726L62.29,236.913L62.863,270.177L63.435,274.003L64.008,266.497L64.581,238.434L65.153,216.013L65.726,178.237L66.298,139.626L66.871,90.369L67.444,109.65L68.016,145.66L68.589,202.669L69.161,195.015L69.734,193.445L70.306,192.906L70.879,202.227L71.452,211.5L72.024,182.996L72.597,179.12L73.169,151.989L73.742,189.815L74.315,205.22L74.887,226.905L75.46,195.948L76.032,180.395L76.605,178.089L77.177,172.398L77.75,155.718L78.323,120.05L78.895,109.601L79.468,132.463L80.04,196.683L80.613,250.013L81.185,270.765L81.758,263.21L82.331,242.555L82.903,233.038L83.476,194.623L84.048,149.978L84.621,97.041L85.194,82.862L85.766,111.808L86.339,141.343L86.911,166.756L87.484,169.111L88.056,181.131L88.629,172.595L89.202,152.136L89.774,116.665L90.347,86.689L90.919,60L91.492,86.934L92.065,122.258L92.637,160.378L93.21,147.328L93.782,133.297L94.355,116.518L94.927,104.351L95.5,106.461L96.073,106.362L96.645,107.049L97.218,95.029L97.79,125.006L98.363,147.77L98.935,175.048L99.508,172.791L100.081,182.603L100.653,202.375L101.226,199.333L101.798,182.358L102.371,158.759L102.944,141.883L103.516,161.114L104.089,182.161L104.661,219.055L105.234,234.853L105.806,250.503L106.379,249.718L106.952,224.795L107.524,202.473L108.097,178.482L108.669,176.716L109.242,168.474L109.815,188.785L110.387,212.825L110.96,207.967L111.532,205.613L112.105,211.5L112.677,247.412L113.25,255.802L113.823,231.32L114.395,208.507L114.968,194.329L115.54,192.562L116.113,221.508L116.685,245.744L117.258,262.033L117.831,240.74L118.403,245.793L118.976,248.099L119.548,252.662L120.121,215.327L120.694,195.997L121.266,185.841L121.839,211.549L122.411,223.814L122.984,231.32L123.556,235.638L124.129,238.483L124.702,248.05L125.274,248.345L125.847,235.834L126.419,235.785L126.992,227.69L127.565,239.955L128.137,253.496L128.71,267.527L129.282,274.151L129.855,266.154L130.427,265.712L131,267.086L131.573,259.334L132.145,217.829L132.718,195.212L133.29,179.757L133.863,216.897L134.435,223.618L135.008,247.412L135.581,243.438L136.153,262.327L136.726,246.578L137.298,241.623L137.871,218.025L138.444,203.454L139.016,196.34L139.589,200.314L140.161,230.486L140.734,232.105L141.306,239.857L141.879,249.865L142.452,249.718L143.024,261.297L143.597,259.579L144.169,278.174L144.742,273.464L145.315,263.799L145.887,265.761L146.46,263.21L147.032,262.719L147.605,262.817L148.177,267.969L148.75,285.042L149.323,277.438L149.895,269.637L150.468,263.014L151.04,259.825L151.613,265.123L152.185,263.063L152.758,273.366L153.331,272.384L153.903,264.191L154.476,257.813L155.048,261.64L155.621,269.833L156.194,270.569L156.766,274.396L157.339,265.123L157.911,267.675L158.484,255.262L159.056,262.916L159.629,264.093L160.202,284.993L160.774,288.82L161.347,293.824L161.919,272.875L162.492,265.271L163.065,260.414L163.637,258.647L164.21,260.953L164.782,256.292L165.355,262.278L165.927,245.744L166.5,237.649L167.073,247.952L167.645,265.859L168.218,276.26L168.79,281.068L169.363,283.766L169.935,298.534L170.508,288.28L171.081,291.665L171.653,280.381L172.226,284.404L172.798,276.604L173.371,280.283L173.944,278.615L174.516,282.442L175.089,276.751L175.661,276.996L176.234,272.679L176.806,283.325L177.379,279.4L177.952,283.963L178.524,277.928L179.097,271.109L179.669,268.263L180.242,262.572L180.815,269.49L181.387,277.29L181.96,270.373L182.532,268.165L183.105,274.445L183.677,286.514L184.25,296.817L184.823,281.804L185.395,289.458L185.968,282.687L186.54,288.771L187.113,284.306L187.685,276.015L188.258,262.082L188.831,253.643L189.403,272.826L189.976,271.452L190.548,271.599L191.121,257.617L191.694,263.161L192.266,270.716L192.839,270.177L193.411,279.694L193.984,269.637L194.556,269.244L195.129,254.87L195.702,255.704L196.274,255.556L196.847,266.791L197.419,258.255L197.992,242.653L198.565,208.605L199.137,213.266L199.71,232.105L200.282,264.486L200.855,273.905L201.427,282.246L202,287.152L202.573,287.299L203.145,288.476L203.718,288.133L204.29,286.416L204.863,284.11L205.435,281.313L206.008,277.536L206.581,273.071L207.153,276.407L207.726,264.24L208.298,249.964L208.871,234.706L209.444,250.16L210.016,257.666L210.589,256.881L211.161,253.594L211.734,252.269L212.306,262.817L212.879,266.546L213.452,281.559L214.024,292.303L214.597,304.372L215.169,298.436L215.742,298.239L216.315,287.25L216.887,282.785L217.46,285.876L218.032,287.888L218.605,292.941L219.177,294.118L219.75,296.964L220.323,299.466L220.895,300.791L221.468,300.594L222.04,291.322L222.613,278.762L223.185,281.755L223.758,284.944L224.331,294.609L224.903,300.692L225.476,307.512L226.048,314.822L226.621,324.242L227.194,331.208L227.766,307.463L228.339,288.329L228.911,276.26L229.484,283.08L230.056,301.576L230.629,310.505L231.202,334.25L231.774,334.103L232.347,330.227L232.919,324.094L233.492,307.806L234.065,300.496L234.637,270.373L235.21,254.575L235.782,265.32L236.355,289.556L236.927,316.294L237.5,312.909L238.073,314.626L238.645,308.101L239.218,313.792L239.79,310.308L240.363,299.073L240.935,292.597L241.508,288.329L242.081,309.965L242.653,320.415L243.226,335.182L243.798,329.687L244.371,326.94L244.944,315.999L245.516,310.161L246.089,300.496L246.661,294.315L247.234,293.137L247.806,309.229L248.379,321.592L248.952,331.306L249.524,327.087L250.097,332.827L250.669,329.982L251.242,320.268L251.815,306.285L252.387,288.771L252.96,275.377L253.532,270.373L254.105,281.706L254.677,301.379L255.25,316.588L255.823,323.8L256.395,320.611L256.968,313.595L257.54,314.282L258.113,318.845L258.685,303.047L259.258,282.246L259.831,277.977L260.403,303.293L260.976,329.05L261.548,341.168L262.121,335.231L262.694,332.974L263.266,326.253L263.839,316.049L264.411,290.144L264.984,276.555L265.556,272.139L266.129,295.1L266.702,307.855L267.274,316.196L267.847,315.656L268.419,314.233L268.992,319.483L269.565,307.316L270.137,308.052L270.71,303.195L271.282,315.803L271.855,323.751L272.427,328.412L273,330.325L273.573,332.484L274.145,346.81L274.718,348.38L275.29,324.291L275.863,300.938L276.435,277.83L277.008,286.121L277.581,301.821L278.153,330.571L278.726,334.741L279.298,333.858L279.871,334.299L280.444,342.983L281.016,343.375L281.589,341.756L282.161,333.71L282.734,336.163L283.306,329.442L283.879,338.911L284.452,344.504L285.024,357.603L285.597,357.063L286.169,356.72L286.742,353.531L287.315,360.203L287.887,346.761L288.46,326.351L289.032,301.526L289.605,303.096L290.177,312.32L290.75,331.012L291.323,339.058L291.895,349.165L292.468,342.198L293.04,334.839L293.613,323.555L294.185,322.525L294.758,320.17L295.331,322.083L295.903,321.396L296.476,328.412L297.048,330.08L297.621,327.627L298.194,316.441L298.766,316.588L299.339,321.494L299.911,338.567L300.484,335.28L301.056,330.914L301.629,324.83L302.202,335.133L302.774,351.618L303.347,355.935L303.919,351.765L304.492,345.927L305.065,351.618L305.637,354.12L306.21,355.837L306.782,352.354L307.355,349.802L307.927,352.599L308.5,348.281L309.073,343.523L309.645,344.258L310.218,355.641L310.79,369.034L311.363,366.091L311.935,355.248L312.508,340.775L313.081,335.133L313.653,343.768L314.226,351.961L314.798,347.742L315.371,347.496L315.944,353.04L316.516,361.037L317.089,353.089L317.661,349.999L318.234,345.779L318.806,338.518L319.379,327.725L319.952,334.005L320.524,346.025L321.097,344.847L321.669,336.213L322.242,328.951L322.815,335.378L323.387,333.073L323.96,333.024L324.532,332.631L325.105,336.409L325.677,338.813L326.25,338.42L326.823,338.616L327.395,332.582L327.968,335.918L328.54,341.707L329.113,342.787L329.685,351.274L330.258,347.251L330.831,347.938L331.403,343.032L331.976,343.572L332.548,351.421L333.121,353.433L333.694,357.701L334.266,366.483L334.839,369.966L335.411,364.472L335.984,351.814L336.556,337.292L337.129,326.548L337.702,317.177L338.274,325.615L338.847,336.507L339.419,353.973L339.992,344.16L340.565,334.397L341.137,331.454L341.71,342.051L342.282,345.632L342.855,336.507L343.427,308.689L344,307.561L344.573,305.5L345.145,330.08L345.718,339.598L346.29,349.214L346.863,358.29L347.435,360.988L348.008,346.859L348.581,315.411L349.153,299.907L349.726,295.345L350.298,313.399L350.871,323.849L351.444,342.149L352.016,342.002L352.589,341.854L353.161,334.25L353.734,339.058L354.306,327.627L354.879,312.271L355.452,298.141L356.024,305.893L356.597,317.569L357.169,327.038L357.742,333.661L358.315,332.68L358.887,326.94L359.46,311.486L360.032,315.705L360.605,307.463L361.177,290.095L361.75,267.871L362.323,275.77L362.895,294.952L363.468,304.323L364.04,303.342L364.613,311.339L365.185,326.891L365.758,332.533L366.331,330.276L366.903,319.434L367.476,309.131L368.048,319.728L368.621,328.608L369.194,336.948L369.766,320.366L370.339,321.2L370.911,329.835L371.484,334.005L372.056,324.389L372.629,305.549L373.202,307.708L373.774,309.916L374.347,328.019L374.919,328.412L375.492,338.911L376.065,340.039L376.637,343.179L377.21,342.492L377.782,337.979L378.355,336.605L378.927,322.868L379.5,321.887L380.073,324.536L380.645,348.576L381.218,355.248L381.79,352.991L382.363,350.146L382.935,354.169L383.508,360.596L384.081,347.546L384.653,339.058L385.226,338.764L385.798,341.02L386.371,340.186L386.944,347.006L387.516,359.664L388.089,356.426L388.661,346.81L389.234,339.941L389.806,337.194L390.379,329.344L390.952,313.743L391.524,313.105L392.097,321.396L392.669,359.516L393.242,387.825L393.815,406.124L394.387,409.166L394.96,409.215L395.532,408.97L396.105,408.724L396.677,406.86L397.25,405.634L397.823,405.094L398.395,404.652L398.968,401.954L399.54,399.943L400.113,398.667L400.685,395.38L401.258,388.168L401.831,366.287L402.403,356.475L402.976,350.391L403.548,361.479L404.121,364.913L404.694,365.158L405.266,359.418L405.839,355.101L406.411,349.459L406.984,347.349L407.556,345.73L408.129,343.179L408.702,347.251L409.274,353.089L409.847,356.916L410.419,353.482L410.992,358.094L411.565,364.275L412.137,365.06L412.71,362.656L413.282,364.472L413.855,367.072L414.427,364.226L415,355.15L415.573,355.592L416.145,359.565L416.718,364.717L417.29,368.544L417.863,365.845L418.435,372.91L419.008,375.559L419.581,382.133L420.153,379.043L420.726,377.522L421.298,367.759L421.871,356.622L422.444,354.856L423.016,361.871L423.589,364.717L424.161,363.883L424.734,359.271L425.306,365.06L425.879,360.056L426.452,360.007L427.024,354.954L427.597,362.068L428.169,365.894L428.742,369.77L429.315,365.551L429.887,357.456L430.46,361.43L431.032,362.656L431.605,367.072L432.177,361.381L432.75,352.697L433.323,347.889L433.895,341.266L434.468,353.089L435.04,360.105L435.613,367.906L436.185,364.864L436.758,362.902L437.331,360.841L437.903,356.18L438.476,356.867L439.048,351.765L439.621,351.912L440.194,348.085L440.766,347.153L441.339,353.973L441.911,360.056L442.484,376.099L443.056,378.258L443.629,373.989L444.202,366.091L444.774,343.228L445.347,341.168L445.919,331.306L446.492,353.776L447.065,359.026L447.637,370.555L448.21,360.89L448.782,365.453L449.355,364.177L449.927,368.445L450.5,359.86L451.073,351.47L451.645,338.911L452.218,339.156L452.79,337.096L453.363,355.199L453.935,354.561L454.508,351.421L455.081,341.953L455.653,343.572L456.226,349.312L456.798,345.338L457.371,346.319L457.944,338.616L458.516,349.999L459.089,349.508L459.661,360.449L460.234,353.335L460.806,353.089L461.379,349.655L461.952,352.206L462.524,347.055L463.097,342.198L463.669,332.19L464.242,331.11L464.815,340.186L465.387,342.541L465.96,347.447L466.532,351.029L467.105,362.803L467.677,357.652L468.25,355.935L468.823,351.372L469.395,354.561L469.968,353.678L470.54,351.716L471.113,363.098L471.685,372.223L472.258,378.405L472.831,373.008L473.403,354.414L473.976,352.942L474.548,353.188L475.121,366.189L475.694,349.655L476.266,349.999L476.839,348.772L477.411,359.32L477.984,353.629L478.556,359.222L479.129,367.072L479.702,374.922L480.274,373.548L480.847,373.989L481.419,368.298L481.992,353.825L482.565,349.312L483.137,351.372L483.71,354.757L484.282,356.573L484.855,352.206L485.427,362.951L486,367.023L486.573,374.48L487.145,370.849L487.718,365.355L488.29,366.974L488.863,372.468L489.435,378.994L490.008,375.952L490.581,373.695L491.153,369.819L491.726,363.638L492.298,358.192L492.871,363.638L493.444,370.015L494.016,370.997L494.589,365.698L495.161,366.777L495.734,366.826L496.306,366.14L496.879,363.098L497.452,365.306L498.024,365.502L498.597,361.086L499.169,352.844L499.742,336.507L500.315,333.612L500.887,335.722L501.46,353.433L502.032,359.32L502.605,361.135L503.177,362.068L503.75,365.6L504.323,372.125L504.895,372.174L505.468,367.759L506.04,364.717L506.613,355.493L507.185,354.169L507.758,344.013L508.331,342.051L508.903,333.024L509.476,333.612L510.048,335.673L510.621,334.888L511.194,332.435L511.766,341.07L512.339,348.723L512.911,343.228L513.484,339.892L514.056,342.639L514.629,354.463L515.202,356.867L515.774,365.06L516.347,341.511L516.919,317.373L517.492,285.925L518.065,289.408L518.637,294.805L519.21,309.572L519.782,313.497L520.355,307.365L520.927,307.168L521.5,321.985L522.073,333.907L522.645,332.582L523.218,327.038L523.79,323.26L524.363,328.167L524.935,344.013L525.508,352.255L526.081,359.86L526.653,358.633L527.226,363.588L527.798,359.32L528.371,352.893L528.944,346.761L529.516,339.598L530.089,341.119L530.661,346.662L531.234,354.463L531.806,358.535L532.379,367.464L532.952,376.786L533.524,382.918L534.097,381.986L534.669,376.442L535.242,376.099L535.815,372.518L536.387,375.756L536.96,373.253L537.532,377.767L538.105,374.872L538.677,376.148L539.25,367.611L539.823,366.925L540.395,362.46L540.968,369.868L541.54,366.385L542.113,363.588L542.685,359.418L543.258,364.521L543.831,367.611L544.403,372.419L544.976,372.076L545.548,378.65L546.121,379.582L546.694,381.005L547.266,380.024L547.839,374.087L548.411,372.125L548.984,370.064L549.556,374.774L550.129,374.333L550.702,373.695L551.274,369.77L551.847,373.401L552.419,368.004L552.992,359.958L553.565,347.546L554.137,333.907L554.71,343.719L555.282,350.685L555.855,365.6L556.427,369.083L557,367.66L557.573,367.072L558.145,360.399L558.718,355.297L559.29,333.416L559.863,333.024L560.435,343.67L561.008,358.339L561.581,361.086L562.153,364.422L562.726,372.37L563.298,373.401L563.871,370.751L564.444,368.249L565.016,360.645L565.589,350.685L566.161,340.088L566.734,349.704L567.306,360.203L567.879,375.02L568.452,373.744L569.024,376.541L569.597,382.133L570.169,382.084L570.742,382.771L571.315,379.435L571.887,381.348L572.46,379.779L573.032,381.692L573.605,386.255L574.177,384.537L574.75,380.318L575.323,374.48L575.895,375.216L576.468,370.997L577.04,368.396L577.613,364.275L578.185,363.49L578.758,372.468L579.331,378.405L579.903,384.881L580.476,382.869L581.048,382.084L581.621,384.734L582.194,385.813L582.766,386.058L583.339,377.718L583.911,372.763L584.484,376.295L585.056,389.689L585.629,394.006L586.202,387.825L586.774,382.869L587.347,374.872L587.919,377.178L588.492,370.702L589.065,362.803L589.637,353.923L590.21,345.142L590.782,350.146L591.355,355.542L591.927,369.77L592.5,376.982L593.073,375.854L593.645,377.031L594.218,379.386L594.79,377.276L595.363,372.468L595.935,365.011L596.508,371.34L597.081,371.291L597.653,381.201L598.226,382.379L598.798,382.624L599.371,379.386L599.944,377.227L600.516,380.956L601.089,376.688L601.661,373.744L602.234,371.144L602.806,376.737L603.379,378.16L603.952,378.552L604.524,375.118L605.097,375.412L605.669,373.94L606.242,375.265L606.815,374.333L607.387,370.948L607.96,363.294L608.532,367.808L609.105,375.559L609.677,381.79L610.25,381.348L610.823,381.054L611.395,384.39L611.968,387.53L612.54,387.825L613.113,390.817L613.685,392.436L614.258,395.527L614.831,391.112L615.403,388.855L615.976,390.228L616.548,389.247L617.121,377.767L617.694,372.567L618.266,367.808L618.839,378.307L619.411,380.416L619.984,388.904L620.556,385.568L621.129,384.979L621.702,386.843L622.274,389.444L622.847,387.285L623.419,383.311L623.992,381.643L624.565,377.914L625.137,371.831L625.71,372.321L626.282,373.204L626.855,380.269L627.427,373.94L628,377.473L628.573,380.171L629.145,388.07L629.718,388.119L630.29,384.734L630.863,381.299L631.435,374.627L632.008,377.963L632.581,374.971L633.153,381.79L633.726,378.601L634.298,384.685L634.871,386.892L635.444,389.149L636.016,387.775L636.589,387.383L637.161,379.828L637.734,376.491L638.306,361.528L638.879,358.388L639.452,356.229L640.024,363.834L640.597,368.593L641.169,370.899L641.742,367.71L642.315,360.007L642.887,360.694L643.46,361.822L644.032,370.702L644.605,374.529L645.177,380.171L645.75,382.526L646.323,379.828L646.895,385.764L647.468,380.563L648.04,381.594L648.613,378.258L649.185,382.624L649.758,379.877L650.331,381.79L650.903,382.183L651.476,385.224L652.048,384.096L652.621,379.975L653.194,378.405L653.766,370.604L654.339,373.499L654.911,372.468L655.484,376.05L656.056,373.45L656.629,370.31L657.202,368.593L657.774,370.899L658.347,378.356L658.919,380.318L659.492,379.729L660.065,376.05L660.637,376.246L661.21,372.763L661.782,362.215L662.355,349.017L662.927,344.896L663.5,355.297L664.073,370.015L664.645,380.024L665.218,380.269L665.79,377.571L666.363,377.375L666.935,380.122L667.508,375.559L668.081,368.2L668.653,367.219L669.226,371.585L669.798,376.05L670.371,373.253L670.944,375.657L671.516,371.733L672.089,364.079L672.661,363.785L673.234,367.415L673.806,377.718L674.379,379.582L674.952,382.673L675.524,387.04L676.097,379.975L676.669,381.398L677.242,373.253L677.815,375.069L678.387,369.868L678.96,363.932L679.532,362.411L680.105,363.343L680.677,369.672L681.25,367.317L681.823,369.23L682.395,370.457L682.968,372.616L683.54,371.683L684.113,369.329L684.685,368.838L685.258,370.948L685.831,374.137L686.403,376.59L686.976,375.069L687.548,365.796L688.121,370.702L688.694,363.392L689.266,367.268L689.839,368.053L690.411,376.933L690.984,380.171L691.556,366.679L692.129,353.188L692.702,350.538L693.274,354.218L693.847,364.03L694.419,363.883L694.992,361.184L695.565,356.769L696.137,356.965L696.71,364.472L697.282,371.438L697.855,373.646L698.427,376.884L699,373.94L699.573,374.774L700.145,372.959L700.718,375.363L701.29,374.529L701.863,369.623L702.435,366.287L703.008,369.966L703.581,379.828L704.153,383.507L704.726,382.379L705.298,381.25L705.871,384.979L706.444,387.874L707.016,386.156L707.589,386.696L708.161,386.402L708.734,387.187L709.306,383.017L709.879,381.398L710.452,377.963L711.024,380.858L711.597,378.11L712.169,384.39L712.742,376.491L713.315,381.201L713.887,376.246L714.46,386.402L715.032,387.285L715.605,383.213L716.177,379.337L716.75,375.216L717.323,386.892L717.895,388.609L718.468,386.843L719.04,384.292L719.613,384.243L720.185,393.466L720.758,393.466L721.331,397.342L721.903,392.976L722.476,395.478L723.048,387.481L723.621,382.82L724.194,376.688L724.766,384.096L725.339,389.1L725.911,394.791L726.484,395.086L727.056,399.501L727.629,395.184L728.202,391.504L728.774,385.421L729.347,391.7L729.919,392.632L730.492,395.036L731.065,388.953L731.637,392.485L732.21,393.712L732.782,399.01L733.355,392.976L733.927,388.953L734.5,386.794L735.073,390.081L735.645,393.368L736.218,395.527L736.79,397.342L737.363,400.629L737.935,402.788L738.508,402.445L739.081,398.225L739.653,398.912L740.226,399.452L740.798,404.162L741.371,402.592L741.944,404.162L742.516,404.162L743.089,405.094L743.661,405.535L744.234,406.124L744.806,405.192L745.379,401.414L745.952,400.286L746.524,400.041L747.097,404.898L747.669,402.984L748.242,402.592L748.815,398.667L749.387,400.188L749.96,395.92L750.532,397.244L751.105,397.489L751.677,402.297L752.25,401.267L752.823,399.697L753.395,401.463L753.968,404.407L754.54,406.664L755.113,405.977L755.685,404.26L756.258,401.807L756.831,400.09L757.403,399.844L757.976,398.912L758.548,396.214L759.121,395.135L759.694,396.165L760.266,398.078L760.839,400.777L761.411,400.482L761.984,398.961L762.556,397.342L763.129,394.153L763.702,393.417L764.274,392.093L764.847,393.172L765.419,396.999L765.992,398.863L766.565,403.033L767.137,400.531L767.71,394.301L768.282,394.399L768.855,392.289L769.427,395.429L770,394.497"/>
  </g>
</svg>
