<svg class="plot-d6a7b5" fill="currentColor" font-family="system-ui, sans-serif" font-size="10" text-anchor="middle" width="830" height="470" viewBox="0 0 830 470" xmlns="http://www.w3.org/2000/svg" xmlns:xlink="http://www.w3.org/1999/xlink" color="#1e90ff"><style>:where(.plot-d6a7b5){--plot-background: white;display:block;height:intrinsic;max-width:100%}:where(.plot-d6a7b5 text),:where(.plot-d6a7b5 tspan){white-space:pre}</style><g aria-label="y-grid" stroke="currentColor" stroke-opacity=".1"><line x1="60" x2="770" y1="410" y2="410"/><line x1="60" x2="770" y1="378.557" y2="378.557"/><line x1="60" x2="770" y1="347.114" y2="347.114"/><line x1="60" x2="770" y1="315.671" y2="315.671"/><line x1="60" x2="770" y1="284.227" y2="284.227"/><line x1="60" x2="770" y1="252.784" y2="252.784"/><line x1="60" x2="770" y1="221.341" y2="221.341"/><line x1="60" x2="770" y1="189.898" y2="189.898"/><line x1="60" x2="770" y1="158.455" y2="158.455"/><line x1="60" x2="770" y1="127.012" y2="127.012"/><line x1="60" x2="770" y1="95.568" y2="95.568"/><line x1="60" x2="770" y1="64.125" y2="64.125"/></g><g aria-label="y-axis tick" fill="none" stroke="currentColor"><path transform="translate(60,410)" d="M0,0L-6,0"/><path transform="translate(60,378.55684921661634)" d="M0,0L-6,0"/><path transform="translate(60,347.11369843323274)" d="M0,0L-6,0"/><path transform="translate(60,315.6705476498491)" d="M0,0L-6,0"/><path transform="translate(60,284.2273968664655)" d="M0,0L-6,0"/><path transform="translate(60,252.7842460830818)" d="M0,0L-6,0"/><path transform="translate(60,221.34109529969817)" d="M0,0L-6,0"/><path transform="translate(60,189.8979445163145)" d="M0,0L-6,0"/><path transform="translate(60,158.45479373293085)" d="M0,0L-6,0"/><path transform="translate(60,127.01164294954722)" d="M0,0L-6,0"/><path transform="translate(60,95.56849216616357)" d="M0,0L-6,0"/><path transform="translate(60,64.12534138277994)" d="M0,0L-6,0"/></g><g aria-label="y-axis tick label" text-anchor="end" font-variant="tabular-nums"><text y=".32em" transform="translate(-9,0) translate(60,410)">0</text><text y=".32em" transform="translate(-9,0) translate(60,378.55684921661634)">5,000</text><text y=".32em" transform="translate(-9,0) translate(60,347.11369843323274)">10,000</text><text y=".32em" transform="translate(-9,0) translate(60,315.6705476498491)">15,000</text><text y=".32em" transform="translate(-9,0) translate(60,284.2273968664655)">20,000</text><text y=".32em" transform="translate(-9,0) translate(60,252.7842460830818)">25,000</text><text y=".32em" transform="translate(-9,0) translate(60,221.34109529969817)">30,000</text><text y=".32em" transform="translate(-9,0) translate(60,189.8979445163145)">35,000</text><text y=".32em" transform="translate(-9,0) translate(60,158.45479373293085)">40,000</text><text y=".32em" transform="translate(-9,0) translate(60,127.01164294954722)">45,000</text><text y=".32em" transform="translate(-9,0) translate(60,95.56849216616357)">50,000</text><text y=".32em" transform="translate(-9,0) translate(60,64.12534138277994)">55,000</text></g><g aria-label="y-axis label" text-anchor="start"><text y=".71em" transform="translate(-57,-57) translate(60,60)">↑ Visible Vestiges (30 days)</text></g><g aria-label="x-axis tick" fill="none" stroke="currentColor"><path transform="translate(94.38746438746439,410)" d="M0,0L0,6"/><path transform="translate(186.42450142450141,410)" d="M0,0L0,6"/><path transform="translate(279.47293447293447,410)" d="M0,0L0,6"/><path transform="translate(372.5213675213675,410)" d="M0,0L0,6"/><path transform="translate(464.55840455840456,410)" d="M0,0L0,6"/><path transform="translate(556.5954415954416,410)" d="M0,0L0,6"/><path transform="translate(649.6438746438746,410)" d="M0,0L0,6"/><path transform="translate(742.6923076923076,410)" d="M0,0L0,6"/></g><g aria-label="x-axis tick label" font-variant="tabular-nums"><text transform="translate(0,9) translate(94.38746438746439,410)"><tspan x="0" y=".71em">Apr</tspan><tspan x="0" dy="1em">2023</tspan></text><text y=".71em" transform="translate(0,9) translate(186.42450142450141,410)">Jul</text><text y=".71em" transform="translate(0,9) translate(279.47293447293447,410)">Oct</text><text transform="translate(0,9) translate(372.5213675213675,410)"><tspan x="0" y=".71em">Jan</tspan><tspan x="0" dy="1em">2024</tspan></text><text y=".71em" transform="translate(0,9) translate(464.55840455840456,410)">Apr</text><text y=".71em" transform="translate(0,9) translate(556.5954415954416,410)">Jul</text><text y=".71em" transform="translate(0,9) translate(649.6438746438746,410)">Oct</text><text transform="translate(0,9) translate(742.6923076923076,410)"><tspan x="0" y=".71em">Jan</tspan><tspan x="0" dy="1em">2025</tspan></text></g><g aria-label="line" fill="none" stroke="currentColor" stroke-width="1.5" stroke-linejoin="round" stroke-linecap="round"><path d="M60,410L60.674,406.843L61.349,395.297L62.023,389.071L62.697,384.657L63.371,377.375L64.046,371.639L64.72,366.263L65.394,355.383L66.068,346.774L66.743,336.555L67.417,320.727L68.091,305.804L68.765,298.056L69.44,286.843L70.114,279.228L70.788,270.499L71.462,259.085L72.137,251.401L72.811,243.867L73.485,233.642L74.16,222.303L74.834,214.273L75.508,200.57L76.182,194.08L76.857,188.024L77.531,177.101L78.205,166.643L78.879,158.593L79.554,147.374L80.228,139.344L80.902,140.702L81.576,131.137L82.251,123.025L82.925,123.05L83.599,121.226L84.274,120.912L84.948,127.194L85.622,127.276L86.296,129.156L86.971,139.168L87.645,140.639L88.319,134.325L88.993,132.936L89.668,125.282L90.342,123.66L91.016,126.257L91.69,121.93L92.365,119.415L93.039,122.364L93.713,120.597L94.387,115.956L95.062,117.837L95.736,107.379L96.41,97.342L97.085,99.895L97.759,97.933L98.433,94.776L99.107,95.952L99.782,92.921L100.456,89.752L101.13,93.94L101.804,92.519L102.479,86.406L103.153,82.45L103.827,72.653L104.501,67.722L105.176,67.653L105.85,64L106.524,60L107.198,66.113L107.873,70.716L108.547,73.112L109.221,78.866L109.896,76.734L110.57,73.181L111.244,78.143L111.918,78.407L112.593,78.042L113.267,86.123L113.941,91.016L114.615,95.097L115.29,103.825L115.964,109.278L116.638,106.831L117.312,110.806L117.987,110.315L118.661,112.145L119.335,121L120.009,122.037L120.684,125.125L121.358,134.464L122.032,140.117L122.707,144.192L123.381,151.933L124.055,150.82L124.729,150.16L125.404,154.179L126.078,157.065L126.752,158.254L127.426,161.825L128.101,162.373L128.775,166.385L129.449,173.277L130.123,176.572L130.798,173.334L131.472,175.05L132.146,172.315L132.821,170.347L133.495,171.629L134.169,169.957L134.843,171.736L135.518,176.245L136.192,178.874L136.866,180.918L137.54,184.88L138.215,184.898L138.889,182.823L139.563,188.98L140.237,191.036L140.912,190.005L141.586,192.407L142.26,192.363L142.934,194.413L143.609,199.916L144.283,200.696L144.957,197.652L145.632,196.545L146.306,192.237L146.98,191.866L147.654,194.35L148.329,192.445L149.003,191.269L149.677,195.589L150.351,196.451L151.026,197.117L151.7,199.714L152.374,195.413L153.048,193.596L153.723,195.74L154.397,194.753L155.071,192.778L155.745,194.69L156.42,194.948L157.094,194.558L157.768,197.96L158.443,199.035L159.117,199.457L159.791,200.519L160.465,198.557L161.14,198.381L161.814,200.142L162.488,198.174L163.162,197.834L163.837,201.249L164.511,206.789L165.185,208.374L165.859,212.77L166.534,212.701L167.208,213.015L167.882,215.04L168.557,215.216L169.231,214.43L169.905,218.348L170.579,218.109L171.254,219.53L171.928,225.806L172.602,227.529L173.276,228.535L173.951,231.434L174.625,231.761L175.299,232.101L175.973,232.126L176.648,233.453L177.322,232.459L177.996,235.384L178.67,234.818L179.345,235.069L180.019,236.547L180.693,234.755L181.368,234.711L182.042,236.025L182.716,234.516L183.39,233.214L184.065,233.107L184.739,230.453L185.413,229.114L186.087,231.177L186.762,231.227L187.436,230.541L188.11,233.484L188.784,232.56L189.459,233.893L190.133,236.572L190.807,236.899L191.481,236.295L192.156,238.44L192.83,237.673L193.504,237.05L194.179,240.169L194.853,239.566L195.527,239.805L196.201,241.974L196.876,240.666L197.55,239.591L198.224,240.767L198.898,239.402L199.573,240.238L200.247,241.515L200.921,240.408L201.595,240.742L202.27,242.609L202.944,243.1L203.618,241.779L204.292,245.483L204.967,247.816L205.641,246.722L206.315,249.451L206.99,248.527L207.664,247.797L208.338,249.313L209.012,247.275L209.687,247.288L210.361,247.307L211.035,244.93L211.709,243.345L212.384,246.823L213.058,243.798L213.732,242.446L214.406,243.641L215.081,242.056L215.755,241.641L216.429,243.32L217.104,241.59L217.778,240.389L218.452,241.433L219.126,238.635L219.801,238.415L220.475,239.805L221.149,239.176L221.823,236.975L222.498,235.365L223.172,231.258L223.846,229.938L224.52,229.938L225.195,228.435L225.869,227.001L226.543,229.994L227.217,228.139L227.892,227.592L228.566,229.957L229.24,228.63L229.915,228.925L230.589,232.78L231.263,232.176L231.937,229.529L232.612,232.988L233.286,232.793L233.96,230.378L234.634,231.296L235.309,228.177L235.983,227.812L236.657,228.472L237.331,226.542L238.006,225.806L238.68,228.139L239.354,227.454L240.028,227.215L240.703,230.032L241.377,231.818L242.051,235.126L242.726,241.546L243.4,242.71L244.074,242.194L244.748,243.892L245.423,244.244L246.097,242.917L246.771,244.634L247.445,245.118L248.12,244.005L248.794,246.087L249.468,246.961L250.142,246.118L250.817,247.37L251.491,247.118L252.165,247.231L252.84,248.464L253.514,251.011L254.188,253.734L254.862,257.796L255.537,259.299L256.211,262.268L256.885,267.324L257.559,266.204L258.234,266.89L258.908,269.047L259.582,268.323L260.256,269.455L260.931,271.38L261.605,272.153L262.279,274.027L262.953,275.48L263.628,276.876L264.302,277.234L264.976,277.354L265.651,274.631L266.325,272.317L266.999,273.662L267.673,273.681L268.348,274.474L269.022,275.216L269.696,275.48L270.37,276.624L271.045,279.706L271.719,279.14L272.393,278.436L273.067,279.448L273.742,277.555L274.416,278.75L275.09,280.165L275.764,278.958L276.439,278.555L277.113,282.662L277.787,282.504L278.462,282.9L279.136,284.894L279.81,281.574L280.484,280.674L281.159,281.687L281.833,279.97L282.507,280.813L283.181,282.07L283.856,283.177L284.53,284.592L285.204,288.466L285.878,289.805L286.553,287.598L287.227,286.649L287.901,283.919L288.575,283.599L289.25,284.951L289.924,285.007L290.598,284.881L291.273,286.271L291.947,286.869L292.621,287.661L293.295,290.183L293.97,285.982L294.644,282.768L295.318,282.85L295.992,282.599L296.667,283.039L297.341,286.076L298.015,285.812L298.689,287.202L299.364,290.17L300.038,288.749L300.712,284.756L301.387,284.397L302.061,281.165L302.735,280.655L303.409,281.196L304.084,279.398L304.758,280.064L305.432,282.215L306.106,283.334L306.781,284.158L307.455,287.045L308.129,286.089L308.803,286.007L309.478,287.963L310.152,286.68L310.826,287.252L311.5,290.384L312.175,290.849L312.849,291.038L313.523,293.107L314.198,293.245L314.872,291.019L315.546,290.906L316.22,289.755L316.895,289.661L317.569,290.843L318.243,289.868L318.917,290.692L319.592,294.295L320.266,296.691L320.94,299.05L321.614,302.188L322.289,301.955L322.963,301.817L323.637,305.099L324.311,305.653L324.986,307.376L325.66,309.916L326.334,311.985L327.009,313.205L327.683,317.224L328.357,315.954L329.031,313.539L329.706,313.778L330.38,312.463L331.054,310.954L331.728,311.753L332.403,311.269L333.077,314.142L333.751,317.041L334.425,318.576L335.1,318.941L335.774,319.695L336.448,317.243L337.123,317.318L337.797,318.098L338.471,316.488L339.145,315.664L339.82,316.079L340.494,313.243L341.168,313.47L341.842,314.199L342.517,314.413L343.191,313.004L343.865,312.457L344.539,310.212L345.214,310.193L345.888,311.803L346.562,310.52L347.236,309.112L347.911,311.696L348.585,313.759L349.259,315.853L349.934,318.456L350.608,318.89L351.282,318.261L351.956,320.192L352.631,318.777L353.305,318.431L353.979,321.399L354.653,322.89L355.328,324.393L356.002,327.286L356.676,327.141L357.35,326.877L358.025,328.147L358.699,328.896L359.373,329.996L360.047,332.159L360.722,332.857L361.396,334.04L362.07,335.04L362.745,335.14L363.419,336.486L364.093,337.725L364.767,335.574L365.442,333.423L366.116,334.914L366.79,334.838L367.464,333.285L368.139,332.939L368.813,331.612L369.487,330.663L370.161,330.468L370.836,329.462L371.51,328.103L372.184,328.946L372.858,328.858L373.533,327.355L374.207,326.764L374.881,324.185L375.556,323.487L376.23,325.028L376.904,324.443L377.578,325.556L378.253,325.475L378.927,323.928L379.601,324.953L380.275,324.971L380.95,323.72L381.624,323.978L382.298,325.563L382.972,325.833L383.647,327.078L384.321,328.889L384.995,328.921L385.67,327.499L386.344,326.393L387.018,325.374L387.692,326.141L388.367,327.361L389.041,327.757L389.715,327.562L390.389,327.537L391.064,327.606L391.738,328.286L392.412,328.411L393.086,327.361L393.761,324.449L394.435,325.204L395.109,323.462L395.783,322.959L396.458,324.795L397.132,323.198L397.806,324.374L398.481,326.468L399.155,323.689L399.829,320.764L400.503,319.865L401.178,316.243L401.852,315.086L402.526,314.4L403.2,312.677L403.875,312.206L404.549,313.124L405.223,312.287L405.897,313.809L406.572,314.463L407.246,310.577L407.92,308.891L408.594,308.3L409.269,307.168L409.943,307.948L410.617,308.583L411.292,305.967L411.966,305.552L412.64,305.376L413.314,306.866L413.989,305.54L414.663,303.401L415.337,298.892L416.011,297.358L416.686,296.446L417.36,291.975L418.034,289.969L418.708,291.893L419.383,293.447L420.057,294.151L420.731,296.371L421.406,294.22L422.08,292.264L422.754,293.497L423.428,292.503L424.103,291.635L424.777,291.717L425.451,290.214L426.125,291.918L426.8,294.503L427.474,293.579L428.148,291.874L428.822,293.239L429.497,291.384L430.171,291.151L430.845,292.692L431.519,292.918L432.194,294.811L432.868,296.214L433.542,297.408L434.217,300.949L434.891,305.024L435.565,303.445L436.239,304.401L436.914,307.615L437.588,309.244L438.262,310.03L438.936,310.96L439.611,311.501L440.285,313.092L440.959,316.237L441.633,316.425L442.308,315.57L442.982,317.538L443.656,316.947L444.33,318.111L445.005,320.846L445.679,320.771L446.353,320.984L447.028,323.72L447.702,325.179L448.376,324.764L449.05,326.21L449.725,323.349L450.399,322.802L451.073,323.965L451.747,325.846L452.422,328.525L453.096,332.122L453.77,334.97L454.444,337.832L455.119,343.158L455.793,346.101L456.467,348.384L457.142,350.472L457.816,352.49L458.49,355.006L459.164,357.113L459.839,358.358L460.513,359.886L461.187,363.244L461.861,364.653L462.536,363.414L463.21,365.225L463.884,365.961L464.558,365.269L465.233,365.898L465.907,367.08L466.581,366.885L467.255,367.841L467.93,368.652L468.604,369.193L469.278,371.941L469.953,372.507L470.627,372.507L471.301,371.117L471.975,368.545L472.65,365.759L473.324,364.571L473.998,362.785L474.672,360.131L475.347,358.666L476.021,357.352L476.695,355.188L477.369,353.427L478.044,351.006L478.718,349.246L479.392,348.252L480.066,346.655L480.741,345.806L481.415,345.391L482.089,347.504L482.764,348.252L483.438,349.459L484.112,349.755L484.786,349.868L485.461,349.793L486.135,349.396L486.809,349.837L487.483,351.384L488.158,351.623L488.832,352.163L489.506,353.446L490.18,353.905L490.855,353.056L491.529,353.843L492.203,354.094L492.877,353.566L493.552,354.05L494.226,354.698L494.9,353.937L495.575,353.151L496.249,353.975L496.923,353.736L497.597,354.679L498.272,354.717L498.946,352.855L499.62,352.522L500.294,351.22L500.969,351.22L501.643,350.881L502.317,350.239L502.991,349.007L503.666,348.812L504.34,348.101L505.014,347.522L505.689,348.843L506.363,347.705L507.037,346.246L507.711,346.711L508.386,345.56L509.06,345.567L509.734,346.07L510.408,347.617L511.083,347.906L511.757,348.51L512.431,348.132L513.105,345.001L513.78,344.844L514.454,343.743L515.128,344.529L515.802,344.535L516.477,344.755L517.151,343.737L517.825,345.057L518.5,346.227L519.174,346.372L519.848,347.441L520.522,346.019L521.197,343.655L521.871,343.756L522.545,342.46L523.219,342.668L523.894,342.951L524.568,341.85L525.242,340.756L525.916,341.9L526.591,341.517L527.265,340.404L527.939,341.794L528.613,339.548L529.288,339.115L529.962,338.385L530.636,337.266L531.311,336.467L531.985,336.719L532.659,338.09L533.333,337.882L534.008,338.737L534.682,336.605L535.356,334.442L536.03,333.681L536.705,333.952L537.379,331.505L538.053,331.537L538.727,331.719L539.402,331.883L540.076,332.329L540.75,333.901L541.425,333.449L542.099,334.568L542.773,333.706L543.447,333.084L544.122,336.065L544.796,337.586L545.47,337.549L546.144,339.102L546.819,338.75L547.493,338.398L548.167,340.97L548.841,340.825L549.516,338.417L550.19,339.63L550.864,340.24L551.538,339.215L552.213,340.14L552.887,341.139L553.561,341.781L554.236,344.334L554.91,346.441L555.584,347.277L556.258,347.938L556.933,347.887L557.607,347.516L558.281,347.982L558.955,346.856L559.63,347.378L560.304,347.504L560.978,348.34L561.652,348.975L562.327,350.17L563.001,350.793L563.675,349.264L564.349,349.497L565.024,350.032L565.698,350.032L566.372,352.258L567.047,352.692L567.721,352.163L568.395,351.931L569.069,353.786L569.744,353.912L570.418,354.654L571.092,355.283L571.766,355.459L572.441,355.622L573.115,355.251L573.789,354.333L574.463,354.283L575.138,354.138L575.812,353.975L576.486,355.213L577.16,354.591L577.835,352.069L578.509,352.503L579.183,351.918L579.858,352.226L580.532,352.038L581.206,351.164L581.88,350.635L582.555,351.365L583.229,352.031L583.903,351.302L584.577,350.761L585.252,350.201L585.926,348.68L586.6,348.258L587.274,346.894L587.949,345.913L588.623,345.032L589.297,343.045L589.972,341.511L590.646,340.404L591.32,338.781L591.994,338.215L592.669,338.083L593.343,335.844L594.017,335.241L594.691,335.178L595.366,334.43L596.04,334.7L596.714,336.744L597.388,335.071L598.063,332.618L598.737,330.361L599.411,326.864L600.085,324.349L600.76,323.751L601.434,320.639L602.108,316.884L602.783,315.425L603.457,314.205L604.131,312.545L604.805,311.306L605.48,310.558L606.154,308.583L606.828,309.275L607.502,310.809L608.177,311.048L608.851,312.639L609.525,313.753L610.199,314.727L610.874,316.086L611.548,315.268L612.222,314.476L612.896,315.62L613.571,315.425L614.245,314.991L614.919,315.62L615.594,315.639L616.268,315.3L616.942,320.142L617.616,324.041L618.291,327.613L618.965,331.298L619.639,334.461L620.313,335.681L620.988,339.278L621.662,342.907L622.336,344.73L623.01,346.057L623.685,348.321L624.359,349.22L625.033,351.17L625.708,353.346L626.382,354.566L627.056,354.037L627.73,354.798L628.405,354.509L629.079,354.792L629.753,355.314L630.427,356.188L631.102,357.251L631.776,359.402L632.45,361.313L633.124,362.364L633.799,363.678L634.473,363.829L635.147,364.106L635.821,364.011L636.496,363.571L637.17,363.005L637.844,362.948L638.519,362.716L639.193,362.659L639.867,362.37L640.541,360.691L641.216,359.364L641.89,356.748L642.564,356.698L643.238,356.1L643.913,356.49L644.587,356.974L645.261,356.767L645.935,356.132L646.61,356.207L647.284,355.704L647.958,352.799L648.632,352.17L649.307,352.635L649.981,350.994L650.655,350.761L651.33,350.811L652.004,350.069L652.678,349.786L653.352,349.623L654.027,349.321L654.701,348.315L655.375,347.139L656.049,344.875L656.724,345.158L657.398,345.409L658.072,345.548L658.746,345.202L659.421,346.504L660.095,348.39L660.769,349.629L661.443,352.767L662.118,352.968L662.792,353.56L663.466,354.585L664.141,354.585L664.815,355.943L665.489,356.823L666.163,357.138L666.838,358.402L667.512,362.181L668.186,362.005L668.86,361.571L669.535,362.942L670.209,362.313L670.883,362.603L671.557,363.716L672.232,363.785L672.906,364.156L673.58,365.489L674.255,366.873L674.929,368.659L675.603,371.382L676.277,370.463L676.952,370.268L677.626,371.545L678.3,372.507L678.974,372.507L679.649,372.275L680.323,372.608L680.997,371.495L681.671,371.985L682.346,371.243L683.02,369.319L683.694,368.426L684.368,365.973L685.043,364.911L685.717,365.25L686.391,365.37L687.066,365.137L687.74,365.873L688.414,366.476L689.088,367.074L689.763,367.64L690.437,366.476L691.111,365.357L691.785,365.904L692.46,364.992L693.134,365.244L693.808,365.602L694.482,364.584L695.157,364.389L695.831,365.539L696.505,365.634L697.179,364.439L697.854,363.496L698.528,362.703L699.202,363.018L699.877,362.892L700.551,363.175L701.225,362.754L701.899,363.496L702.574,364.602L703.248,365.489L703.922,367.237L704.596,367.269L705.271,366.483L705.945,366.986L706.619,367.086L707.293,367.244L707.968,367.539L708.642,367.3L709.316,368.155L709.991,369.47L710.665,370.224L711.339,370.652L712.013,372.18L712.688,372.061L713.362,371.771L714.036,372.979L714.71,373.45L715.385,373.312L716.059,372.57L716.733,372.922L717.407,372.551L718.082,373.488L718.756,373.394L719.43,373.928L720.104,374.387L720.779,374.658L721.453,375.394L722.127,376.375L722.802,376.199L723.476,376.544L724.15,377.746L724.824,378.073L725.499,377.06L726.173,377.331L726.847,376.972L727.521,376.922L728.196,376.419L728.87,376.085L729.544,375.979L730.218,376.45L730.893,375.74L731.567,374.991L732.241,374.626L732.915,373.627L733.59,373.595L734.264,372.671L734.938,372.671L735.613,373.702L736.287,374.224L736.961,375.117L737.635,375.092L738.31,375.167L738.984,374.922L739.658,374.356L740.332,374.079L741.007,371.677L741.681,370.375L742.355,370.099L743.029,369.181L743.704,368.703L744.378,369.199L745.052,368.652L745.726,367.124L746.401,367.596L747.075,366.288L747.749,366.709L748.424,367.218L749.098,366.288L749.772,365.998L750.446,366.156L751.121,366.42L751.795,365.904L752.469,367.049L753.143,366.458L753.818,366.885L754.492,366.803L755.166,366.866L755.84,366.564L756.515,366.59L757.189,366.219L757.863,365.565L758.538,365.439L759.212,365.036L759.886,365.181L760.56,366.841L761.235,367.3L761.909,367.388L762.583,367.671L763.257,367.3L763.932,367.388L764.606,369.036L765.28,369.904L765.954,369.828L766.629,370.86L767.303,370.614L767.977,369.602L768.651,368.558L769.326,366.319L770,365.124"/></g></svg>