<svg class="plot-d6a7b5" fill="currentColor" font-family="system-ui, sans-serif" font-size="10" text-anchor="middle" width="830" height="470" viewBox="0 0 830 470" xmlns="http://www.w3.org/2000/svg" xmlns:xlink="http://www.w3.org/1999/xlink" color="#1e90ff"><style>:where(.plot-d6a7b5){--plot-background: white;display:block;height:intrinsic;max-width:100%}:where(.plot-d6a7b5 text),:where(.plot-d6a7b5 tspan){white-space:pre}</style><g aria-label="y-grid" stroke="currentColor" stroke-opacity=".1"><line x1="60" x2="770" y1="410" y2="410"/><line x1="60" x2="770" y1="378.557" y2="378.557"/><line x1="60" x2="770" y1="347.114" y2="347.114"/><line x1="60" x2="770" y1="315.671" y2="315.671"/><line x1="60" x2="770" y1="284.227" y2="284.227"/><line x1="60" x2="770" y1="252.784" y2="252.784"/><line x1="60" x2="770" y1="221.341" y2="221.341"/><line x1="60" x2="770" y1="189.898" y2="189.898"/><line x1="60" x2="770" y1="158.455" y2="158.455"/><line x1="60" x2="770" y1="127.012" y2="127.012"/><line x1="60" x2="770" y1="95.568" y2="95.568"/><line x1="60" x2="770" y1="64.125" y2="64.125"/></g><g aria-label="y-axis tick" fill="none" stroke="currentColor"><path transform="translate(60,410)" d="M0,0L-6,0"/><path transform="translate(60,378.55684921661634)" d="M0,0L-6,0"/><path transform="translate(60,347.11369843323274)" d="M0,0L-6,0"/><path transform="translate(60,315.6705476498491)" d="M0,0L-6,0"/><path transform="translate(60,284.2273968664655)" d="M0,0L-6,0"/><path transform="translate(60,252.7842460830818)" d="M0,0L-6,0"/><path transform="translate(60,221.34109529969817)" d="M0,0L-6,0"/><path transform="translate(60,189.8979445163145)" d="M0,0L-6,0"/><path transform="translate(60,158.45479373293085)" d="M0,0L-6,0"/><path transform="translate(60,127.01164294954722)" d="M0,0L-6,0"/><path transform="translate(60,95.56849216616357)" d="M0,0L-6,0"/><path transform="translate(60,64.12534138277994)" d="M0,0L-6,0"/></g><g aria-label="y-axis tick label" text-anchor="end" font-variant="tabular-nums"><text y=".32em" transform="translate(-9,0) translate(60,410)">0</text><text y=".32em" transform="translate(-9,0) translate(60,378.55684921661634)">5,000</text><text y=".32em" transform="translate(-9,0) translate(60,347.11369843323274)">10,000</text><text y=".32em" transform="translate(-9,0) translate(60,315.6705476498491)">15,000</text><text y=".32em" transform="translate(-9,0) translate(60,284.2273968664655)">20,000</text><text y=".32em" transform="translate(-9,0) translate(60,252.7842460830818)">25,000</text><text y=".32em" transform="translate(-9,0) translate(60,221.34109529969817)">30,000</text><text y=".32em" transform="translate(-9,0) translate(60,189.8979445163145)">35,000</text><text y=".32em" transform="translate(-9,0) translate(60,158.45479373293085)">40,000</text><text y=".32em" transform="translate(-9,0) translate(60,127.01164294954722)">45,000</text><text y=".32em" transform="translate(-9,0) translate(60,95.56849216616357)">50,000</text><text y=".32em" transform="translate(-9,0) translate(60,64.12534138277994)">55,000</text></g><g aria-label="y-axis label" text-anchor="start"><text y=".71em" transform="translate(-57,-57) translate(60,60)">↑ Visible Vestiges (30 days)</text></g><g aria-label="x-axis tick" fill="none" stroke="currentColor"><path transform="translate(65.66489361702128,410)" d="M0,0L0,6"/><path transform="translate(124.20212765957447,410)" d="M0,0L0,6"/><path transform="translate(180.85106382978722,410)" d="M0,0L0,6"/><path transform="translate(239.38829787234044,410)" d="M0,0L0,6"/><path transform="translate(296.03723404255317,410)" d="M0,0L0,6"/><path transform="translate(354.57446808510633,410)" d="M0,0L0,6"/><path transform="translate(413.11170212765956,410)" d="M0,0L0,6"/><path transform="translate(469.76063829787233,410)" d="M0,0L0,6"/><path transform="translate(528.2978723404256,410)" d="M0,0L0,6"/><path transform="translate(584.9468085106383,410)" d="M0,0L0,6"/><path transform="translate(643.4840425531914,410)" d="M0,0L0,6"/><path transform="translate(702.0212765957447,410)" d="M0,0L0,6"/><path transform="translate(756.7819148936171,410)" d="M0,0L0,6"/></g><g aria-label="x-axis tick label" font-variant="tabular-nums"><text transform="translate(0,9) translate(65.66489361702128,410)"><tspan x="0" y=".71em">Mar</tspan><tspan x="0" dy="1em">2023</tspan></text><text y=".71em" transform="translate(0,9) translate(124.20212765957447,410)">Apr</text><text y=".71em" transform="translate(0,9) translate(180.85106382978722,410)">May</text><text y=".71em" transform="translate(0,9) translate(239.38829787234044,410)">Jun</text><text y=".71em" transform="translate(0,9) translate(296.03723404255317,410)">Jul</text><text y=".71em" transform="translate(0,9) translate(354.57446808510633,410)">Aug</text><text y=".71em" transform="translate(0,9) translate(413.11170212765956,410)">Sep</text><text y=".71em" transform="translate(0,9) translate(469.76063829787233,410)">Oct</text><text y=".71em" transform="translate(0,9) translate(528.2978723404256,410)">Nov</text><text y=".71em" transform="translate(0,9) translate(584.9468085106383,410)">Dec</text><text transform="translate(0,9) translate(643.4840425531914,410)"><tspan x="0" y=".71em">Jan</tspan><tspan x="0" dy="1em">2024</tspan></text><text y=".71em" transform="translate(0,9) translate(702.0212765957447,410)">Feb</text><text y=".71em" transform="translate(0,9) translate(756.7819148936171,410)">Mar</text></g><g aria-label="line" fill="none" stroke="currentColor" stroke-width="1.5" stroke-linejoin="round" stroke-linecap="round"><path d="M60,410L61.259,406.843L62.518,395.297L63.777,389.071L65.035,384.657L66.294,377.375L67.553,371.639L68.812,366.263L70.071,355.383L71.33,346.774L72.589,336.555L73.848,320.727L75.106,305.804L76.365,298.056L77.624,286.843L78.883,279.228L80.142,270.499L81.401,259.085L82.66,251.401L83.918,243.867L85.177,233.642L86.436,222.303L87.695,214.273L88.954,200.57L90.213,194.08L91.472,188.024L92.73,177.101L93.989,166.643L95.248,158.593L96.507,147.374L97.766,139.344L99.025,140.702L100.284,131.137L101.543,123.025L102.801,123.05L104.06,121.226L105.319,120.912L106.578,127.194L107.837,127.276L109.096,129.156L110.355,139.168L111.613,140.639L112.872,134.325L114.131,132.936L115.39,125.282L116.649,123.66L117.908,126.257L119.167,121.93L120.426,119.415L121.684,122.364L122.943,120.597L124.202,115.956L125.461,117.837L126.72,107.379L127.979,97.342L129.238,99.895L130.496,97.933L131.755,94.776L133.014,95.952L134.273,92.921L135.532,89.752L136.791,93.94L138.05,92.519L139.309,86.406L140.567,82.45L141.826,72.653L143.085,67.722L144.344,67.653L145.603,64L146.862,60L148.121,66.113L149.379,70.716L150.638,73.112L151.897,78.866L153.156,76.734L154.415,73.181L155.674,78.143L156.933,78.407L158.191,78.042L159.45,86.123L160.709,91.016L161.968,95.097L163.227,103.825L164.486,109.278L165.745,106.831L167.004,110.806L168.262,110.315L169.521,112.145L170.78,121L172.039,122.037L173.298,125.125L174.557,134.464L175.816,140.117L177.074,144.192L178.333,151.933L179.592,150.82L180.851,150.16L182.11,154.179L183.369,157.065L184.628,158.254L185.887,161.825L187.145,162.373L188.404,166.385L189.663,173.277L190.922,176.572L192.181,173.334L193.44,175.05L194.699,172.315L195.957,170.347L197.216,171.629L198.475,169.957L199.734,171.736L200.993,176.245L202.252,178.874L203.511,180.918L204.77,184.88L206.028,184.898L207.287,182.823L208.546,188.98L209.805,191.036L211.064,190.005L212.323,192.407L213.582,192.363L214.84,194.413L216.099,199.916L217.358,200.696L218.617,197.652L219.876,196.545L221.135,192.237L222.394,191.866L223.652,194.35L224.911,192.445L226.17,191.269L227.429,195.589L228.688,196.451L229.947,197.117L231.206,199.714L232.465,195.413L233.723,193.596L234.982,195.74L236.241,194.753L237.5,192.778L238.759,194.69L240.018,194.948L241.277,194.558L242.535,197.96L243.794,199.035L245.053,199.457L246.312,200.519L247.571,198.557L248.83,198.381L250.089,200.142L251.348,198.174L252.606,197.834L253.865,201.249L255.124,206.789L256.383,208.374L257.642,212.77L258.901,212.701L260.16,213.015L261.418,215.04L262.677,215.216L263.936,214.43L265.195,218.348L266.454,218.109L267.713,219.53L268.972,225.806L270.23,227.529L271.489,228.535L272.748,231.434L274.007,231.761L275.266,232.101L276.525,232.126L277.784,233.453L279.043,232.459L280.301,235.384L281.56,234.818L282.819,235.069L284.078,236.547L285.337,234.755L286.596,234.711L287.855,236.025L289.113,234.516L290.372,233.214L291.631,233.107L292.89,230.453L294.149,229.114L295.408,231.177L296.667,231.227L297.926,230.541L299.184,233.484L300.443,232.56L301.702,233.893L302.961,236.572L304.22,236.899L305.479,236.295L306.738,238.44L307.996,237.673L309.255,237.05L310.514,240.169L311.773,239.566L313.032,239.805L314.291,241.974L315.55,240.666L316.809,239.591L318.067,240.767L319.326,239.402L320.585,240.238L321.844,241.515L323.103,240.408L324.362,240.742L325.621,242.609L326.879,243.1L328.138,241.779L329.397,245.483L330.656,247.816L331.915,246.722L333.174,249.451L334.433,248.527L335.691,247.797L336.95,249.313L338.209,247.275L339.468,247.288L340.727,247.307L341.986,244.93L343.245,243.345L344.504,246.823L345.762,243.798L347.021,242.446L348.28,243.641L349.539,242.056L350.798,241.641L352.057,243.32L353.316,241.59L354.574,240.389L355.833,241.433L357.092,238.635L358.351,238.415L359.61,239.805L360.869,239.176L362.128,236.975L363.387,235.365L364.645,231.258L365.904,229.938L367.163,229.938L368.422,228.435L369.681,227.001L370.94,229.994L372.199,228.139L373.457,227.592L374.716,229.957L375.975,228.63L377.234,228.925L378.493,232.78L379.752,232.176L381.011,229.529L382.27,232.988L383.528,232.793L384.787,230.378L386.046,231.296L387.305,228.177L388.564,227.812L389.823,228.472L391.082,226.542L392.34,225.806L393.599,228.139L394.858,227.454L396.117,227.215L397.376,230.032L398.635,231.818L399.894,235.126L401.152,241.546L402.411,242.71L403.67,242.194L404.929,243.892L406.188,244.244L407.447,242.917L408.706,244.634L409.965,245.118L411.223,244.005L412.482,246.087L413.741,246.961L415,246.118L416.259,247.37L417.518,247.118L418.777,247.231L420.035,248.464L421.294,251.011L422.553,253.734L423.812,257.796L425.071,259.299L426.33,262.268L427.589,267.324L428.848,266.204L430.106,266.89L431.365,269.047L432.624,268.323L433.883,269.455L435.142,271.38L436.401,272.153L437.66,274.027L438.918,275.48L440.177,276.876L441.436,277.234L442.695,277.354L443.954,274.631L445.213,272.317L446.472,273.662L447.73,273.681L448.989,274.474L450.248,275.216L451.507,275.48L452.766,276.624L454.025,279.706L455.284,279.14L456.543,278.436L457.801,279.448L459.06,277.555L460.319,278.75L461.578,280.165L462.837,278.958L464.096,278.555L465.355,282.662L466.613,282.504L467.872,282.9L469.131,284.894L470.39,281.574L471.649,280.674L472.908,281.687L474.167,279.97L475.426,280.813L476.684,282.07L477.943,283.177L479.202,284.592L480.461,288.466L481.72,289.805L482.979,287.598L484.238,286.649L485.496,283.919L486.755,283.599L488.014,284.951L489.273,285.007L490.532,284.881L491.791,286.271L493.05,286.869L494.309,287.661L495.567,290.183L496.826,285.982L498.085,282.768L499.344,282.85L500.603,282.599L501.862,283.039L503.121,286.076L504.379,285.812L505.638,287.202L506.897,290.17L508.156,288.749L509.415,284.756L510.674,284.397L511.933,281.165L513.191,280.655L514.45,281.196L515.709,279.398L516.968,280.064L518.227,282.215L519.486,283.334L520.745,284.158L522.004,287.045L523.262,286.089L524.521,286.007L525.78,287.963L527.039,286.68L528.298,287.252L529.557,290.384L530.816,290.849L532.074,291.038L533.333,293.107L534.592,293.245L535.851,291.019L537.11,290.906L538.369,289.755L539.628,289.661L540.887,290.843L542.145,289.868L543.404,290.692L544.663,294.295L545.922,296.691L547.181,299.05L548.44,302.188L549.699,301.955L550.957,301.817L552.216,305.099L553.475,305.653L554.734,307.376L555.993,309.916L557.252,311.985L558.511,313.205L559.77,317.224L561.028,315.954L562.287,313.539L563.546,313.778L564.805,312.463L566.064,310.954L567.323,311.753L568.582,311.269L569.84,314.142L571.099,317.041L572.358,318.576L573.617,318.941L574.876,319.695L576.135,317.243L577.394,317.318L578.652,318.098L579.911,316.488L581.17,315.664L582.429,316.079L583.688,313.243L584.947,313.47L586.206,314.199L587.465,314.413L588.723,313.004L589.982,312.457L591.241,310.212L592.5,310.193L593.759,311.803L595.018,310.52L596.277,309.112L597.535,311.696L598.794,313.759L600.053,315.853L601.312,318.456L602.571,318.89L603.83,318.261L605.089,320.192L606.348,318.777L607.606,318.431L608.865,321.399L610.124,322.89L611.383,324.393L612.642,327.286L613.901,327.141L615.16,326.877L616.418,328.147L617.677,328.896L618.936,329.996L620.195,332.159L621.454,332.857L622.713,334.04L623.972,335.04L625.23,335.14L626.489,336.486L627.748,337.725L629.007,335.574L630.266,333.423L631.525,334.914L632.784,334.838L634.043,333.285L635.301,332.939L636.56,331.612L637.819,330.663L639.078,330.468L640.337,329.462L641.596,328.103L642.855,328.946L644.113,328.858L645.372,327.355L646.631,326.764L647.89,324.185L649.149,323.487L650.408,325.028L651.667,324.443L652.926,325.556L654.184,325.475L655.443,323.928L656.702,324.953L657.961,324.971L659.22,323.72L660.479,323.978L661.738,325.563L662.996,325.833L664.255,327.078L665.514,328.889L666.773,328.921L668.032,327.499L669.291,326.393L670.55,325.374L671.809,326.141L673.067,327.361L674.326,327.757L675.585,327.562L676.844,327.537L678.103,327.606L679.362,328.286L680.621,328.411L681.879,327.361L683.138,324.449L684.397,325.204L685.656,323.462L686.915,322.959L688.174,324.795L689.433,323.198L690.691,324.374L691.95,326.468L693.209,323.689L694.468,320.764L695.727,319.865L696.986,316.243L698.245,315.086L699.504,314.4L700.762,312.677L702.021,312.206L703.28,313.124L704.539,312.287L705.798,313.809L707.057,314.463L708.316,310.577L709.574,308.891L710.833,308.3L712.092,307.168L713.351,307.948L714.61,308.583L715.869,305.967L717.128,305.552L718.387,305.376L719.645,306.866L720.904,305.54L722.163,303.401L723.422,298.892L724.681,297.358L725.94,296.446L727.199,291.975L728.457,289.969L729.716,291.893L730.975,293.447L732.234,294.151L733.493,296.371L734.752,294.22L736.011,292.264L737.27,293.497L738.528,292.503L739.787,291.635L741.046,291.717L742.305,290.214L743.564,291.918L744.823,294.503L746.082,293.579L747.34,291.874L748.599,293.239L749.858,291.384L751.117,291.151L752.376,292.692L753.635,292.918L754.894,294.811L756.152,296.214L757.411,297.408L758.67,300.949L759.929,305.024L761.188,303.445L762.447,304.401L763.706,307.615L764.965,309.244L766.223,310.03L767.482,310.96L768.741,311.501L770,313.092"/></g></svg>