<svg class="plot-d6a7b5" fill="currentColor" font-family="system-ui, sans-serif" font-size="10" text-anchor="middle" width="830" height="470" viewBox="0 0 830 470" xmlns="http://www.w3.org/2000/svg" xmlns:xlink="http://www.w3.org/1999/xlink" color="#1e90ff"><style>:where(.plot-d6a7b5){--plot-background: white;display:block;height:intrinsic;max-width:100%}:where(.plot-d6a7b5 text),:where(.plot-d6a7b5 tspan){white-space:pre}</style><g aria-label="y-grid" stroke="currentColor" stroke-opacity=".1"><line x1="60" x2="770" y1="410" y2="410"/><line x1="60" x2="770" y1="360.939" y2="360.939"/><line x1="60" x2="770" y1="311.878" y2="311.878"/><line x1="60" x2="770" y1="262.817" y2="262.817"/><line x1="60" x2="770" y1="213.757" y2="213.757"/><line x1="60" x2="770" y1="164.696" y2="164.696"/><line x1="60" x2="770" y1="115.635" y2="115.635"/><line x1="60" x2="770" y1="66.574" y2="66.574"/></g><g aria-label="y-axis tick" fill="none" stroke="currentColor"><path transform="translate(60,410)" d="M0,0L-6,0"/><path transform="translate(60,360.9391645640594)" d="M0,0L-6,0"/><path transform="translate(60,311.8783291281189)" d="M0,0L-6,0"/><path transform="translate(60,262.8174936921783)" d="M0,0L-6,0"/><path transform="translate(60,213.7566582562377)" d="M0,0L-6,0"/><path transform="translate(60,164.69582282029717)" d="M0,0L-6,0"/><path transform="translate(60,115.6349873843566)" d="M0,0L-6,0"/><path transform="translate(60,66.57415194841604)" d="M0,0L-6,0"/></g><g aria-label="y-axis tick label" text-anchor="end" font-variant="tabular-nums"><text y=".32em" transform="translate(-9,0) translate(60,410)">0</text><text y=".32em" transform="translate(-9,0) translate(60,360.9391645640594)">1,000</text><text y=".32em" transform="translate(-9,0) translate(60,311.8783291281189)">2,000</text><text y=".32em" transform="translate(-9,0) translate(60,262.8174936921783)">3,000</text><text y=".32em" transform="translate(-9,0) translate(60,213.7566582562377)">4,000</text><text y=".32em" transform="translate(-9,0) translate(60,164.69582282029717)">5,000</text><text y=".32em" transform="translate(-9,0) translate(60,115.6349873843566)">6,000</text><text y=".32em" transform="translate(-9,0) translate(60,66.57415194841604)">7,000</text></g><g aria-label="y-axis label" text-anchor="start"><text y=".71em" transform="translate(-57,-57) translate(60,60)">↑ Visible Vestiges (4 days)</text></g><g aria-label="x-axis tick" fill="none" stroke="currentColor"><path transform="translate(110.71428571428572,410)" d="M0,0L0,6"/><path transform="translate(246.4495798319328,410)" d="M0,0L0,6"/><path transform="translate(383.67647058823525,410)" d="M0,0L0,6"/><path transform="translate(520.9033613445379,410)" d="M0,0L0,6"/><path transform="translate(656.6386554621849,410)" d="M0,0L0,6"/></g><g aria-label="x-axis tick label" font-variant="tabular-nums"><text transform="translate(0,9) translate(110.71428571428572,410)"><tspan x="0" y=".71em">Apr</tspan><tspan x="0" dy="1em">2023</tspan></text><text y=".71em" transform="translate(0,9) translate(246.4495798319328,410)">Jul</text><text y=".71em" transform="translate(0,9) translate(383.67647058823525,410)">Oct</text><text transform="translate(0,9) translate(520.9033613445379,410)"><tspan x="0" y=".71em">Jan</tspan><tspan x="0" dy="1em">2024</tspan></text><text y=".71em" transform="translate(0,9) translate(656.6386554621849,410)">Apr</text></g><g aria-label="line" fill="none" stroke="currentColor" stroke-width="1.5" stroke-linejoin="round" stroke-linecap="round"><path d="M60,410L60.994,385.371L61.989,295.296L62.983,246.726L63.978,236.913L64.972,270.177L65.966,274.003L66.961,266.497L67.955,238.434L68.95,216.013L69.944,178.237L70.938,139.626L71.933,90.369L72.927,109.65L73.922,145.66L74.916,202.669L75.91,195.015L76.905,193.445L77.899,192.906L78.894,202.227L79.888,211.5L80.882,182.996L81.877,179.12L82.871,151.989L83.866,189.815L84.86,205.22L85.854,226.905L86.849,195.948L87.843,180.395L88.838,178.089L89.832,172.398L90.826,155.718L91.821,120.05L92.815,109.601L93.81,132.463L94.804,196.683L95.798,250.013L96.793,270.765L97.787,263.21L98.782,242.555L99.776,233.038L100.77,194.623L101.765,149.978L102.759,97.041L103.754,82.862L104.748,111.808L105.742,141.343L106.737,166.756L107.731,169.111L108.725,181.131L109.72,172.595L110.714,152.136L111.709,116.665L112.703,86.689L113.697,60L114.692,86.934L115.686,122.258L116.681,160.378L117.675,147.328L118.669,133.297L119.664,116.518L120.658,104.351L121.653,106.461L122.647,106.362L123.641,107.049L124.636,95.029L125.63,125.006L126.625,147.77L127.619,175.048L128.613,172.791L129.608,182.603L130.602,202.375L131.597,199.333L132.591,182.358L133.585,158.759L134.58,141.883L135.574,161.114L136.569,182.161L137.563,219.055L138.557,234.853L139.552,250.503L140.546,249.718L141.541,224.795L142.535,202.473L143.529,178.482L144.524,176.716L145.518,168.474L146.513,188.785L147.507,212.825L148.501,207.967L149.496,205.613L150.49,211.5L151.485,247.412L152.479,255.802L153.473,231.32L154.468,208.507L155.462,194.329L156.457,192.562L157.451,221.508L158.445,245.744L159.44,262.033L160.434,240.74L161.429,245.793L162.423,248.099L163.417,252.662L164.412,215.327L165.406,195.997L166.401,185.841L167.395,211.549L168.389,223.814L169.384,231.32L170.378,235.638L171.373,238.483L172.367,248.05L173.361,248.345L174.356,235.834L175.35,235.785L176.345,227.69L177.339,239.955L178.333,253.496L179.328,267.527L180.322,274.151L181.317,266.154L182.311,265.712L183.305,267.086L184.3,259.334L185.294,217.829L186.289,195.212L187.283,179.757L188.277,216.897L189.272,223.618L190.266,247.412L191.261,243.438L192.255,262.327L193.249,246.578L194.244,241.623L195.238,218.025L196.232,203.454L197.227,196.34L198.221,200.314L199.216,230.486L200.21,232.105L201.204,239.857L202.199,249.865L203.193,249.718L204.188,261.297L205.182,259.579L206.176,278.174L207.171,273.464L208.165,263.799L209.16,265.761L210.154,263.21L211.148,262.719L212.143,262.817L213.137,267.969L214.132,285.042L215.126,277.438L216.12,269.637L217.115,263.014L218.109,259.825L219.104,265.123L220.098,263.063L221.092,273.366L222.087,272.384L223.081,264.191L224.076,257.813L225.07,261.64L226.064,269.833L227.059,270.569L228.053,274.396L229.048,265.123L230.042,267.675L231.036,255.262L232.031,262.916L233.025,264.093L234.02,284.993L235.014,288.82L236.008,293.824L237.003,272.875L237.997,265.271L238.992,260.414L239.986,258.647L240.98,260.953L241.975,256.292L242.969,262.278L243.964,245.744L244.958,237.649L245.952,247.952L246.947,265.859L247.941,276.26L248.936,281.068L249.93,283.766L250.924,298.534L251.919,288.28L252.913,291.665L253.908,280.381L254.902,284.404L255.896,276.604L256.891,280.283L257.885,278.615L258.88,282.442L259.874,276.751L260.868,276.996L261.863,272.679L262.857,283.325L263.852,279.4L264.846,283.963L265.84,277.928L266.835,271.109L267.829,268.263L268.824,262.572L269.818,269.49L270.812,277.29L271.807,270.373L272.801,268.165L273.796,274.445L274.79,286.514L275.784,296.817L276.779,281.804L277.773,289.458L278.768,282.687L279.762,288.771L280.756,284.306L281.751,276.015L282.745,262.082L283.739,253.643L284.734,272.826L285.728,271.452L286.723,271.599L287.717,257.617L288.711,263.161L289.706,270.716L290.7,270.177L291.695,279.694L292.689,269.637L293.683,269.244L294.678,254.87L295.672,255.704L296.667,255.556L297.661,266.791L298.655,258.255L299.65,242.653L300.644,208.605L301.639,213.266L302.633,232.105L303.627,264.486L304.622,273.905L305.616,282.246L306.611,287.152L307.605,287.299L308.599,288.476L309.594,288.133L310.588,286.416L311.583,284.11L312.577,281.313L313.571,277.536L314.566,273.071L315.56,276.407L316.555,264.24L317.549,249.964L318.543,234.706L319.538,250.16L320.532,257.666L321.527,256.881L322.521,253.594L323.515,252.269L324.51,262.817L325.504,266.546L326.499,281.559L327.493,292.303L328.487,304.372L329.482,298.436L330.476,298.239L331.471,287.25L332.465,282.785L333.459,285.876L334.454,287.888L335.448,292.941L336.443,294.118L337.437,296.964L338.431,299.466L339.426,300.791L340.42,300.594L341.415,291.322L342.409,278.762L343.403,281.755L344.398,284.944L345.392,294.609L346.387,300.692L347.381,307.512L348.375,314.822L349.37,324.242L350.364,331.208L351.359,307.463L352.353,288.329L353.347,276.26L354.342,283.08L355.336,301.576L356.331,310.505L357.325,334.25L358.319,334.103L359.314,330.227L360.308,324.094L361.303,307.806L362.297,300.496L363.291,270.373L364.286,254.575L365.28,265.32L366.275,289.556L367.269,316.294L368.263,312.909L369.258,314.626L370.252,308.101L371.246,313.792L372.241,310.308L373.235,299.073L374.23,292.597L375.224,288.329L376.218,309.965L377.213,320.415L378.207,335.182L379.202,329.687L380.196,326.94L381.19,315.999L382.185,310.161L383.179,300.496L384.174,294.315L385.168,293.137L386.162,309.229L387.157,321.592L388.151,331.306L389.146,327.087L390.14,332.827L391.134,329.982L392.129,320.268L393.123,306.285L394.118,288.771L395.112,275.377L396.106,270.373L397.101,281.706L398.095,301.379L399.09,316.588L400.084,323.8L401.078,320.611L402.073,313.595L403.067,314.282L404.062,318.845L405.056,303.047L406.05,282.246L407.045,277.977L408.039,303.293L409.034,329.05L410.028,341.168L411.022,335.231L412.017,332.974L413.011,326.253L414.006,316.049L415,290.144L415.994,276.555L416.989,272.139L417.983,295.1L418.978,307.855L419.972,316.196L420.966,315.656L421.961,314.233L422.955,319.483L423.95,307.316L424.944,308.052L425.938,303.195L426.933,315.803L427.927,323.751L428.922,328.412L429.916,330.325L430.91,332.484L431.905,346.81L432.899,348.38L433.894,324.291L434.888,300.938L435.882,277.83L436.877,286.121L437.871,301.821L438.866,330.571L439.86,334.741L440.854,333.858L441.849,334.299L442.843,342.983L443.838,343.375L444.832,341.756L445.826,333.71L446.821,336.163L447.815,329.442L448.81,338.911L449.804,344.504L450.798,357.603L451.793,357.063L452.787,356.72L453.782,353.531L454.776,360.203L455.77,346.761L456.765,326.351L457.759,301.526L458.754,303.096L459.748,312.32L460.742,331.012L461.737,339.058L462.731,349.165L463.725,342.198L464.72,334.839L465.714,323.555L466.709,322.525L467.703,320.17L468.697,322.083L469.692,321.396L470.686,328.412L471.681,330.08L472.675,327.627L473.669,316.441L474.664,316.588L475.658,321.494L476.653,338.567L477.647,335.28L478.641,330.914L479.636,324.83L480.63,335.133L481.625,351.618L482.619,355.935L483.613,351.765L484.608,345.927L485.602,351.618L486.597,354.12L487.591,355.837L488.585,352.354L489.58,349.802L490.574,352.599L491.569,348.281L492.563,343.523L493.557,344.258L494.552,355.641L495.546,369.034L496.541,366.091L497.535,355.248L498.529,340.775L499.524,335.133L500.518,343.768L501.513,351.961L502.507,347.742L503.501,347.496L504.496,353.04L505.49,361.037L506.485,353.089L507.479,349.999L508.473,345.779L509.468,338.518L510.462,327.725L511.457,334.005L512.451,346.025L513.445,344.847L514.44,336.213L515.434,328.951L516.429,335.378L517.423,333.073L518.417,333.024L519.412,332.631L520.406,336.409L521.401,338.813L522.395,338.42L523.389,338.616L524.384,332.582L525.378,335.918L526.373,341.707L527.367,342.787L528.361,351.274L529.356,347.251L530.35,347.938L531.345,343.032L532.339,343.572L533.333,351.421L534.328,353.433L535.322,357.701L536.317,366.483L537.311,369.966L538.305,364.472L539.3,351.814L540.294,337.292L541.289,326.548L542.283,317.177L543.277,325.615L544.272,336.507L545.266,353.973L546.261,344.16L547.255,334.397L548.249,331.454L549.244,342.051L550.238,345.632L551.232,336.507L552.227,308.689L553.221,307.561L554.216,305.5L555.21,330.08L556.204,339.598L557.199,349.214L558.193,358.29L559.188,360.988L560.182,346.859L561.176,315.411L562.171,299.907L563.165,295.345L564.16,313.399L565.154,323.849L566.148,342.149L567.143,342.002L568.137,341.854L569.132,334.25L570.126,339.058L571.12,327.627L572.115,312.271L573.109,298.141L574.104,305.893L575.098,317.569L576.092,327.038L577.087,333.661L578.081,332.68L579.076,326.94L580.07,311.486L581.064,315.705L582.059,307.463L583.053,290.095L584.048,267.871L585.042,275.77L586.036,294.952L587.031,304.323L588.025,303.342L589.02,311.339L590.014,326.891L591.008,332.533L592.003,330.276L592.997,319.434L593.992,309.131L594.986,319.728L595.98,328.608L596.975,336.948L597.969,320.366L598.964,321.2L599.958,329.835L600.952,334.005L601.947,324.389L602.941,305.549L603.936,307.708L604.93,309.916L605.924,328.019L606.919,328.412L607.913,338.911L608.908,340.039L609.902,343.179L610.896,342.492L611.891,337.979L612.885,336.605L613.88,322.868L614.874,321.887L615.868,324.536L616.863,348.576L617.857,355.248L618.852,352.991L619.846,350.146L620.84,354.169L621.835,360.596L622.829,347.546L623.824,339.058L624.818,338.764L625.812,341.02L626.807,340.186L627.801,347.006L628.796,359.664L629.79,356.426L630.784,346.81L631.779,339.941L632.773,337.194L633.768,329.344L634.762,313.743L635.756,313.105L636.751,321.396L637.745,359.516L638.739,387.825L639.734,406.124L640.728,409.166L641.723,409.215L642.717,408.97L643.711,408.724L644.706,406.86L645.7,405.634L646.695,405.094L647.689,404.652L648.683,401.954L649.678,399.943L650.672,398.667L651.667,395.38L652.661,388.168L653.655,366.287L654.65,356.475L655.644,350.391L656.639,361.479L657.633,364.913L658.627,365.158L659.622,359.418L660.616,355.101L661.611,349.459L662.605,347.349L663.599,345.73L664.594,343.179L665.588,347.251L666.583,353.089L667.577,356.916L668.571,353.482L669.566,358.094L670.56,364.275L671.555,365.06L672.549,362.656L673.543,364.472L674.538,367.072L675.532,364.226L676.527,355.15L677.521,355.592L678.515,359.565L679.51,364.717L680.504,368.544L681.499,365.845L682.493,372.91L683.487,375.559L684.482,382.133L685.476,379.043L686.471,377.522L687.465,367.759L688.459,356.622L689.454,354.856L690.448,361.871L691.443,364.717L692.437,363.883L693.431,359.271L694.426,365.06L695.42,360.056L696.415,360.007L697.409,354.954L698.403,362.068L699.398,365.894L700.392,369.77L701.387,365.551L702.381,357.456L703.375,361.43L704.37,362.656L705.364,367.072L706.359,361.381L707.353,352.697L708.347,347.889L709.342,341.266L710.336,353.089L711.331,360.105L712.325,367.906L713.319,364.864L714.314,362.902L715.308,360.841L716.303,356.18L717.297,356.867L718.291,351.765L719.286,351.912L720.28,348.085L721.275,347.153L722.269,353.973L723.263,360.056L724.258,376.099L725.252,378.258L726.246,373.989L727.241,366.091L728.235,343.228L729.23,341.168L730.224,331.306L731.218,353.776L732.213,359.026L733.207,370.555L734.202,360.89L735.196,365.453L736.19,364.177L737.185,368.445L738.179,359.86L739.174,351.47L740.168,338.911L741.162,339.156L742.157,337.096L743.151,355.199L744.146,354.561L745.14,351.421L746.134,341.953L747.129,343.572L748.123,349.312L749.118,345.338L750.112,346.319L751.106,338.616L752.101,349.999L753.095,349.508L754.09,360.449L755.084,353.335L756.078,353.089L757.073,349.655L758.067,352.206L759.062,347.055L760.056,342.198L761.05,332.19L762.045,331.11L763.039,340.186L764.034,342.541L765.028,347.447L766.022,351.029L767.017,362.803L768.011,357.652L769.006,355.935L770,351.372"/></g></svg>