<svg xmlns="http://www.w3.org/2000/svg" width="830" height="470" fill="currentColor" class="plot-d6a7b5" font-family="system-ui, sans-serif" font-size="10" style="--plot-background:white;display:block;height:intrinsic;max-width:100%;color:#1e90ff" text-anchor="middle" viewBox="0 0 830 470">
    <style>
        :where(.plot-d6a7b5 text),:where(.plot-d6a7b5 tspan){white-space:pre}
    </style>
    <path stroke="currentColor" stroke-opacity=".1" d="
M60
410
h710
M60
380.833
h710
M60
351.667
h710
M60
322.5
h710
M60
293.333
h710
M60
264.167
h710
M60
235
h710
M60
205.833
h710
M60
176.667
h710
M60
147.5
h710
M60
118.333
h710
M60
89.167
h710
M60
60
h710" aria-hidden="true" aria-label="y-grid"/>
    <path fill="none" stroke="currentColor" d="
M60
410
h-6
m6
-29.167
h-6
m6
-29.166
h-6
m6
-29.167
h-6
m6
-29.167
h-6
m6
-29.166
h-6
M60
235
h-6
m6
-29.167
h-6
m6
-29.166
h-6
m6
-29.167
h-6
m6
-29.167
h-6
m6
-29.166
h-6
M60
60
h-6" aria-hidden="true" aria-label="y-axis tick"/>
    <g aria-label="y-axis tick label" font-variant="tabular-nums" text-anchor="end">
        <text y=".32em" transform="translate(51 410)">0.0</text>
        <text y=".32em" transform="translate(51 380.833)">0.5</text>
        <text y=".32em" transform="translate(51 351.667)">1.0</text>
        <text y=".32em" transform="translate(51 322.5)">1.5</text>
        <text y=".32em" transform="translate(51 293.333)">2.0</text>
        <text y=".32em" transform="translate(51 264.167)">2.5</text>
        <text y=".32em" transform="translate(51 235)">3.0</text>
        <text y=".32em" transform="translate(51 205.833)">3.5</text>
        <text y=".32em" transform="translate(51 176.667)">4.0</text>
        <text y=".32em" transform="translate(51 147.5)">4.5</text>
        <text y=".32em" transform="translate(51 118.333)">5.0</text>
        <text y=".32em" transform="translate(51 89.167)">5.5</text>
        <text y=".32em" transform="translate(51 60)">6.0</text>
    </g>
    <text y=".71em" aria-label="y-axis label" text-anchor="start" transform="translate(3 3)">↑ Karma vestiges (30 days)</text>
    <path fill="none" stroke="currentColor" d="
M107.02
410
v6
m49.37
-6
v6
m49.372
-6
v6
m49.37
-6
v6
m49.371
-6
v6
m49.371
-6
v6
m49.371
-6
v6
m49.371
-6
v6
m49.371
-6
v6
m49.371
-6
v6
m49.37
-6
v6
m49.372
-6
v6
m49.37
-6
v6
m49.371
-6
v6" aria-hidden="true" aria-label="x-axis tick"/>
    <g aria-label="x-axis tick label" font-variant="tabular-nums">
        <text transform="translate(107.02 419)"><tspan x="0" y=".71em">8</tspan><tspan x="0" dy="1em">Feb</tspan></text>
        <text y=".71em" transform="translate(156.39 419)">15</text>
        <text y=".71em" transform="translate(205.762 419)">22</text>
        <text transform="translate(255.132 419)"><tspan x="0" y=".71em">1</tspan><tspan x="0" dy="1em">Mar</tspan></text>
        <text y=".71em" transform="translate(304.503 419)">8</text>
        <text y=".71em" transform="translate(353.874 419)">15</text>
        <text y=".71em" transform="translate(403.245 419)">22</text>
        <text y=".71em" transform="translate(452.616 419)">29</text>
        <text transform="translate(501.987 419)"><tspan x="0" y=".71em">5</tspan><tspan x="0" dy="1em">Apr</tspan></text>
        <text y=".71em" transform="translate(551.358 419)">12</text>
        <text y=".71em" transform="translate(600.728 419)">19</text>
        <text y=".71em" transform="translate(650.1 419)">26</text>
        <text transform="translate(699.47 419)"><tspan x="0" y=".71em">3</tspan><tspan x="0" dy="1em">May</tspan></text>
        <text y=".71em" transform="translate(748.841 419)">10</text>
    </g>
    <path fill="none" stroke="currentColor" stroke-linecap="round" stroke-linejoin="round" stroke-width="1.5" d="
M60
410
h14.106
l4.702
-116.667
h28.212
L111.722
235
h28.212
l4.702
-58.333
h65.828
l4.702
116.666
h28.211
l4.702
58.334
h14.106
l4.702
-58.334
h9.404
l4.702
58.334
h47.02
L332.715
235
h4.702
l4.702
-116.667
h14.106
L360.927
60
h37.616
l4.702
58.333
h32.914
L440.861
60
h23.51
l4.702
116.667
h4.702
l4.702
116.666
h14.106
l4.702
58.334
h84.636
l4.702
-58.334
h51.721
L643.046
235
h65.828
l4.702
58.333
h4.702
l4.702
58.334
H770" aria-label="line"/>
</svg>
