<svg class="plot-d6a7b5" fill="currentColor" font-family="system-ui, sans-serif" font-size="10" text-anchor="middle" width="830" height="470" viewBox="0 0 830 470" xmlns="http://www.w3.org/2000/svg" xmlns:xlink="http://www.w3.org/1999/xlink" color="#1e90ff"><style>:where(.plot-d6a7b5){--plot-background: white;display:block;height:intrinsic;max-width:100%}:where(.plot-d6a7b5 text),:where(.plot-d6a7b5 tspan){white-space:pre}</style><g aria-label="y-grid" stroke="currentColor" stroke-opacity=".1"><line x1="60" x2="770" y1="410" y2="410"/><line x1="60" x2="770" y1="382.343" y2="382.343"/><line x1="60" x2="770" y1="354.686" y2="354.686"/><line x1="60" x2="770" y1="327.029" y2="327.029"/><line x1="60" x2="770" y1="299.371" y2="299.371"/><line x1="60" x2="770" y1="271.714" y2="271.714"/><line x1="60" x2="770" y1="244.057" y2="244.057"/><line x1="60" x2="770" y1="216.4" y2="216.4"/><line x1="60" x2="770" y1="188.743" y2="188.743"/><line x1="60" x2="770" y1="161.086" y2="161.086"/><line x1="60" x2="770" y1="133.429" y2="133.429"/><line x1="60" x2="770" y1="105.771" y2="105.771"/><line x1="60" x2="770" y1="78.114" y2="78.114"/></g><g aria-label="y-axis tick" fill="none" stroke="currentColor"><path transform="translate(60,410)" d="M0,0L-6,0"/><path transform="translate(60,382.3428600327461)" d="M0,0L-6,0"/><path transform="translate(60,354.6857200654921)" d="M0,0L-6,0"/><path transform="translate(60,327.0285800982382)" d="M0,0L-6,0"/><path transform="translate(60,299.37144013098424)" d="M0,0L-6,0"/><path transform="translate(60,271.7143001637303)" d="M0,0L-6,0"/><path transform="translate(60,244.05716019647633)" d="M0,0L-6,0"/><path transform="translate(60,216.40002022922238)" d="M0,0L-6,0"/><path transform="translate(60,188.74288026196845)" d="M0,0L-6,0"/><path transform="translate(60,161.0857402947145)" d="M0,0L-6,0"/><path transform="translate(60,133.42860032746054)" d="M0,0L-6,0"/><path transform="translate(60,105.77146036020658)" d="M0,0L-6,0"/><path transform="translate(60,78.11432039295264)" d="M0,0L-6,0"/></g><g aria-label="y-axis tick label" text-anchor="end" font-variant="tabular-nums"><text y=".32em" transform="translate(-9,0) translate(60,410)">0</text><text y=".32em" transform="translate(-9,0) translate(60,382.3428600327461)">50,000</text><text y=".32em" transform="translate(-9,0) translate(60,354.6857200654921)">100,000</text><text y=".32em" transform="translate(-9,0) translate(60,327.0285800982382)">150,000</text><text y=".32em" transform="translate(-9,0) translate(60,299.37144013098424)">200,000</text><text y=".32em" transform="translate(-9,0) translate(60,271.7143001637303)">250,000</text><text y=".32em" transform="translate(-9,0) translate(60,244.05716019647633)">300,000</text><text y=".32em" transform="translate(-9,0) translate(60,216.40002022922238)">350,000</text><text y=".32em" transform="translate(-9,0) translate(60,188.74288026196845)">400,000</text><text y=".32em" transform="translate(-9,0) translate(60,161.0857402947145)">450,000</text><text y=".32em" transform="translate(-9,0) translate(60,133.42860032746054)">500,000</text><text y=".32em" transform="translate(-9,0) translate(60,105.77146036020658)">550,000</text><text y=".32em" transform="translate(-9,0) translate(60,78.11432039295264)">600,000</text></g><g aria-label="y-axis label" text-anchor="start"><text y=".71em" transform="translate(-57,-57) translate(60,60)">↑ Total Vestiges</text></g><g aria-label="x-axis tick" fill="none" stroke="currentColor"><path transform="translate(97.02453987730061,410)" d="M0,0L0,6"/><path transform="translate(196.11963190184048,410)" d="M0,0L0,6"/><path transform="translate(296.3036809815951,410)" d="M0,0L0,6"/><path transform="translate(396.4877300613497,410)" d="M0,0L0,6"/><path transform="translate(495.5828220858896,410)" d="M0,0L0,6"/><path transform="translate(594.6779141104295,410)" d="M0,0L0,6"/><path transform="translate(694.861963190184,410)" d="M0,0L0,6"/></g><g aria-label="x-axis tick label" font-variant="tabular-nums"><text transform="translate(0,9) translate(97.02453987730061,410)"><tspan x="0" y=".71em">Apr</tspan><tspan x="0" dy="1em">2023</tspan></text><text y=".71em" transform="translate(0,9) translate(196.11963190184048,410)">Jul</text><text y=".71em" transform="translate(0,9) translate(296.3036809815951,410)">Oct</text><text transform="translate(0,9) translate(396.4877300613497,410)"><tspan x="0" y=".71em">Jan</tspan><tspan x="0" dy="1em">2024</tspan></text><text y=".71em" transform="translate(0,9) translate(495.5828220858896,410)">Apr</text><text y=".71em" transform="translate(0,9) translate(594.6779141104295,410)">Jul</text><text y=".71em" transform="translate(0,9) translate(694.861963190184,410)">Oct</text></g><g aria-label="line" fill="none" stroke="currentColor" stroke-width="1.5" stroke-linejoin="round" stroke-linecap="round"><path d="M60,410L60.726,409.722L61.452,408.707L62.178,408.159L62.904,407.771L63.63,407.13L64.356,406.626L65.082,406.153L65.808,405.196L66.534,404.439L67.26,403.54L67.986,402.148L68.712,400.835L69.438,400.154L70.164,399.167L70.89,398.497L71.616,397.73L72.342,396.726L73.067,396.05L73.793,395.387L74.519,394.488L75.245,393.49L75.971,392.784L76.697,391.579L77.423,391.008L78.149,390.475L78.875,389.514L79.601,388.594L80.327,387.886L81.053,386.9L81.779,385.916L82.505,385.02L83.231,383.631L83.957,382.529L84.683,381.89L85.409,381.226L86.135,380.725L86.861,380.321L87.587,379.571L88.313,378.837L89.039,378.325L89.765,377.142L90.491,375.905L91.217,374.797L91.943,373.454L92.669,372.543L93.395,371.768L94.121,370.711L94.847,369.827L95.573,369.187L96.299,368.035L97.025,366.92L97.751,365.88L98.476,364.39L99.202,362.974L99.928,362.238L100.654,361.145L101.38,360.16L102.106,359.276L102.832,358.026L103.558,356.851L104.284,355.83L105.01,354.603L105.736,353.427L106.462,352.415L107.188,351.052L107.914,350.214L108.64,349.458L109.366,348.403L110.092,347.54L110.818,346.894L111.544,346.062L112.27,345.164L112.996,344.328L113.722,343.23L114.448,342.142L115.174,341.521L115.9,340.661L116.626,339.989L117.352,339.547L118.078,338.863L118.804,338.182L119.53,337.459L120.256,336.523L120.982,335.571L121.708,334.828L122.434,333.8L123.16,333.077L123.885,332.605L124.611,331.522L125.337,330.773L126.063,330.367L126.789,329.689L127.515,329.034L128.241,328.353L128.967,327.417L129.693,326.603L130.419,325.901L131.145,325.292L131.871,324.751L132.597,324.233L133.323,323.383L134.049,322.899L134.775,322.408L135.501,321.609L136.227,320.704L136.953,319.995L137.679,319.082L138.405,318.467L139.131,317.896L139.857,317.068L140.583,316.501L141.309,315.962L142.035,315.242L142.761,314.679L143.487,313.998L144.213,313.277L144.939,312.623L145.665,312.081L146.391,311.513L147.117,311.017L147.843,310.549L148.569,309.891L149.294,309.39L150.02,308.938L150.746,308.192L151.472,307.223L152.198,306.516L152.924,305.597L153.65,305.046L154.376,304.415L155.102,303.763L155.828,303.168L156.554,302.75L157.28,301.921L158.006,301.27L158.732,300.586L159.458,299.592L160.184,298.861L160.91,298.221L161.636,297.568L162.362,296.855L163.088,296.303L163.814,295.763L164.54,295.048L165.266,294.627L165.992,294.067L166.718,293.562L167.444,293.087L168.17,292.418L168.896,291.936L169.622,291.432L170.348,290.758L171.074,290.276L171.8,289.831L172.526,289.349L173.252,288.782L173.978,288.248L174.703,287.692L175.429,287.088L176.155,286.615L176.881,286.035L177.607,285.548L178.333,285.063L179.059,284.391L179.785,283.832L180.511,283.391L181.237,282.811L181.963,282.26L182.689,281.862L183.415,281.177L184.141,280.655L184.867,280.117L185.593,279.519L186.319,279.01L187.045,278.708L187.771,278.153L188.497,277.7L189.223,277.162L189.949,276.521L190.675,276.014L191.401,275.455L192.127,274.841L192.853,274.281L193.579,273.79L194.305,272.989L195.031,272.338L195.757,271.963L196.483,271.364L197.209,270.83L197.935,270.509L198.661,269.94L199.387,269.573L200.112,269.137L200.838,268.606L201.564,268.112L202.29,267.721L203.016,267.102L203.742,266.649L204.468,266.239L205.194,265.664L205.92,265.147L206.646,264.74L207.372,264.116L208.098,263.719L208.824,263.267L209.55,262.695L210.276,262.23L211.002,261.701L211.728,261.097L212.454,260.567L213.18,260.117L213.906,259.6L214.632,258.993L215.358,258.518L216.084,258.072L216.81,257.601L217.536,257.242L218.262,256.627L218.988,256.242L219.714,255.806L220.44,255.26L221.166,254.825L221.892,254.296L222.618,253.592L223.344,253.062L224.07,252.749L224.796,252.03L225.521,251.501L226.247,251.031L226.973,250.375L227.699,249.931L228.425,249.455L229.151,248.905L229.877,248.348L230.603,247.868L231.329,247.156L232.055,246.609L232.781,246.126L233.507,245.542L234.233,244.898L234.959,244.24L235.685,243.271L236.411,242.68L237.137,242.234L237.863,241.631L238.589,241.145L239.315,240.794L240.041,240.245L240.767,239.762L241.493,239.423L242.219,238.871L242.945,238.369L243.671,238.004L244.397,237.421L245.123,236.875L245.849,236.46L246.575,235.914L247.301,235.232L248.027,234.656L248.753,233.938L249.479,233.43L250.204,232.938L250.93,232.212L251.656,231.666L252.382,231.16L253.108,230.552L253.834,230.049L254.56,229.712L255.286,229.225L256.012,228.858L256.738,228.454L257.464,227.965L258.19,227.474L258.916,227.02L259.642,226.566L260.368,226.097L261.094,225.7L261.82,225.259L262.546,224.823L263.272,224.454L263.998,224.028L264.724,223.589L265.45,223.116L266.176,222.548L266.902,222.143L267.628,221.706L268.354,221.247L269.08,220.911L269.806,220.55L270.532,220.174L271.258,219.944L271.984,219.662L272.71,219.018L273.436,218.572L274.162,218.154L274.888,217.587L275.613,217.35L276.339,217.032L277.065,216.733L277.791,216.494L278.517,216.133L279.243,215.764L279.969,215.342L280.695,214.898L281.421,214.19L282.147,213.59L282.873,213.267L283.599,212.832L284.325,212.533L285.051,212.172L285.777,211.757L286.503,211.384L287.229,211.088L287.955,210.633L288.681,210.133L289.407,209.764L290.133,209.261L290.859,209.006L291.585,208.754L292.311,208.418L293.037,208.1L293.763,207.817L294.489,207.358L295.215,206.974L295.941,206.583L296.667,206.053L297.393,205.657L298.119,205.447L298.845,205.057L299.571,204.77L300.297,204.512L301.022,204.187L301.748,203.867L302.474,203.5L303.2,203.017L303.926,202.501L304.652,201.982L305.378,201.443L306.104,201.054L306.83,200.758L307.556,200.39L308.282,200.082L309.008,199.75L309.734,199.303L310.46,199.003L311.186,198.722L311.912,198.097L312.638,197.563L313.364,197.234L314.09,196.894L314.816,196.65L315.542,196.458L316.268,196.051L316.994,195.782L317.72,195.513L318.446,194.992L319.172,194.43L319.898,194.009L320.624,193.437L321.35,193.135L322.076,192.857L322.802,192.38L323.528,192.071L324.254,191.777L324.98,191.359L325.706,190.913L326.431,190.628L327.157,190.155L327.883,189.851L328.609,189.656L329.335,189.235L330.061,188.953L330.787,188.782L331.513,188.523L332.239,188.258L332.965,187.815L333.691,187.293L334.417,186.768L335.143,186.419L335.869,186.073L336.595,185.873L337.321,185.57L338.047,185.215L338.773,185.019L339.499,184.814L340.225,184.464L340.951,184.25L341.677,183.954L342.403,183.631L343.129,183.341L343.855,183.153L344.581,182.893L345.307,182.751L346.033,182.556L346.759,182.292L347.485,182.114L348.211,181.995L348.937,181.579L349.663,181.171L350.389,180.772L351.115,180.374L351.84,180.07L352.566,179.881L353.292,179.574L354.018,179.384L354.744,179.117L355.47,178.727L356.196,178.409L356.922,178.13L357.648,177.714L358.374,177.418L359.1,177.131L359.826,176.794L360.552,176.517L361.278,176.203L362.004,175.739L362.73,175.464L363.456,175.205L364.182,174.934L364.908,174.621L365.634,174.313L366.36,173.973L367.086,173.777L367.812,173.655L368.538,173.364L369.264,173.12L369.99,172.932L370.716,172.706L371.442,172.49L372.168,172.322L372.894,172.056L373.62,171.812L374.346,171.675L375.072,171.36L375.798,171.062L376.524,170.933L377.249,170.747L377.975,170.6L378.701,170.438L379.427,170.13L380.153,169.82L380.879,169.594L381.605,169.383L382.331,169.165L383.057,168.892L383.783,168.678L384.509,168.523L385.235,168.34L385.961,168.037L386.687,167.847L387.413,167.616L388.139,167.231L388.865,166.919L389.591,166.759L390.317,166.509L391.043,166.185L391.769,165.927L392.495,165.596L393.221,165.343L393.947,165.06L394.673,164.728L395.399,164.471L396.125,164.23L396.851,163.925L397.577,163.664L398.303,163.426L399.029,163.052L399.755,162.829L400.481,162.656L401.207,162.294L401.933,162.167L402.658,161.948L403.384,161.595L404.11,161.412L404.836,161.199L405.562,160.934L406.288,160.774L407.014,160.609L407.74,160.444L408.466,160.322L409.192,160.096L409.918,159.788L410.644,159.503L411.37,159.155L412.096,158.741L412.822,158.551L413.548,158.327L414.274,158.109L415,157.809L415.726,157.474L416.452,157.224L417.178,157.043L417.904,156.749L418.63,156.395L419.356,155.901L420.082,155.594L420.808,155.217L421.534,155L422.26,154.8L422.986,154.532L423.712,154.416L424.438,154.247L425.164,153.82L425.89,153.35L426.616,153.006L427.342,152.527L428.067,152.261L428.793,152.035L429.519,151.762L430.245,151.494L430.971,151.266L431.697,150.908L432.423,150.694L433.149,150.338L433.875,149.806L434.601,149.433L435.327,149.164L436.053,148.764L436.779,148.498L437.505,148.303L438.231,147.892L438.957,147.561L439.683,147.192L440.409,146.829L441.135,146.405L441.861,145.841L442.587,145.227L443.313,144.892L444.039,144.543L444.765,144.035L445.491,143.689L446.217,143.431L446.943,143.098L447.669,142.816L448.395,142.532L449.121,142.077L449.847,141.679L450.573,141.514L451.299,141.159L452.025,140.855L452.751,140.504L453.476,140.158L454.202,139.951L454.928,139.647L455.654,139.193L456.38,138.774L457.106,138.494L457.832,138.064L458.558,137.849L459.284,137.574L460.01,137.263L460.736,137.061L461.462,136.82L462.188,136.502L462.914,136.249L463.64,135.993L464.366,135.519L465.092,135.255L465.818,135.029L466.544,134.827L467.27,134.638L467.996,134.387L468.722,134.152L469.448,134.008L470.174,133.83L470.9,133.448L471.626,133.208L472.352,133.026L473.078,132.67L473.804,132.421L474.53,132.316L475.256,132.103L475.982,131.817L476.708,131.604L477.434,131.313L478.16,130.996L478.885,130.694L479.611,130.228L480.337,129.904L481.063,129.695L481.789,129.658L482.515,129.654L483.241,129.652L483.967,129.649L484.693,129.645L485.419,129.64L486.145,129.635L486.871,129.61L487.597,129.591L488.323,129.579L489.049,129.549L489.775,129.5L490.501,129.466L491.227,129.422L491.953,129.335L492.679,129.22L493.405,128.929L494.131,128.732L494.857,128.548L495.583,128.382L496.309,128.224L497.035,128.042L497.761,127.811L498.487,127.605L499.213,127.36L499.939,127.105L500.665,126.88L501.391,126.606L502.117,126.398L502.843,126.238L503.569,126.008L504.294,125.76L505.02,125.653L505.746,125.492L506.472,125.254L507.198,125.119L507.924,124.979L508.65,124.77L509.376,124.603L510.102,124.36L510.828,124.156L511.554,124.035L512.28,123.85L513.006,123.689L513.732,123.537L514.458,123.432L515.184,123.301L515.91,123.223L516.636,123.083L517.362,122.934L518.088,122.746L518.814,122.481L519.54,122.313L520.266,122.204L520.992,121.97L521.718,121.793L522.444,121.632L523.17,121.464L523.896,121.23L524.622,121.068L525.348,120.843L526.074,120.689L526.8,120.571L527.526,120.389L528.252,120.188L528.978,119.978L529.703,119.842L530.429,119.654L531.155,119.494L531.881,119.294L532.607,119.008L533.333,118.794L534.059,118.519L534.785,118.367L535.511,118.232L536.237,118.044L536.963,117.858L537.689,117.701L538.415,117.49L539.141,117.251L539.867,117.101L540.593,116.833L541.319,116.596L542.045,116.403L542.771,116.125L543.497,115.964L544.223,115.84L544.949,115.742L545.675,115.606L546.401,115.434L547.127,115.247L547.853,114.854L548.579,114.658L549.305,114.36L550.031,114.22L550.757,114.084L551.483,113.915L552.209,113.666L552.935,113.581L553.661,113.399L554.387,113.197L555.112,113.016L555.838,112.739L556.564,112.396L557.29,112.217L558.016,111.917L558.742,111.778L559.468,111.592L560.194,111.256L560.92,111.011L561.646,110.843L562.372,110.572L563.098,110.282L563.824,110.125L564.55,109.767L565.276,109.605L566.002,109.443L566.728,109.209L567.454,108.966L568.18,108.802L568.906,108.528L569.632,108.315L570.358,108.092L571.084,107.764L571.81,107.438L572.536,107.202L573.262,106.977L573.988,106.677L574.714,106.497L575.44,106.312L576.166,106.145L576.892,105.907L577.618,105.702L578.344,105.484L579.07,105.282L579.796,105.067L580.521,104.827L581.247,104.753L581.973,104.641L582.699,104.47L583.425,104.336L584.151,104.015L584.877,103.827L585.603,103.696L586.329,103.521L587.055,103.147L587.781,103.019L588.507,102.83L589.233,102.575L589.959,102.383L590.685,102.258L591.411,102.091L592.137,101.988L592.863,101.847L593.589,101.685L594.315,101.518L595.041,101.214L595.767,101.001L596.493,100.857L597.219,100.591L597.945,100.399L598.671,100.205L599.397,100.06L600.123,99.914L600.849,99.805L601.575,99.619L602.301,99.411L603.027,99.32L603.753,99.196L604.479,99.061L605.204,98.936L605.93,98.786L606.656,98.608L607.382,98.413L608.108,98.202L608.834,98.086L609.56,97.962L610.286,97.763L611.012,97.586L611.738,97.475L612.464,97.276L613.19,97.092L613.916,96.946L614.642,96.772L615.368,96.59L616.094,96.395L616.82,96.127L617.546,95.761L618.272,95.533L618.998,95.29L619.724,95.123L620.45,94.962L621.176,94.739L621.902,94.583L622.628,94.461L623.354,94.312L624.08,94.157L624.806,93.985L625.532,93.801L626.258,93.542L626.984,93.356L627.71,93.057L628.436,92.776L629.162,92.488L629.888,92.196L630.613,91.938L631.339,91.641L632.065,91.322L632.791,91.161L633.517,90.95L634.243,90.569L634.969,90.37L635.695,90.191L636.421,89.943L637.147,89.771L637.873,89.684L638.599,89.171L639.325,88.727L640.051,88.285L640.777,87.811L641.503,87.428L642.229,87.153L642.955,86.723L643.681,86.271L644.407,85.993L645.133,85.731L645.859,85.413L646.585,85.12L647.311,84.795L648.037,84.435L648.763,84.198L649.489,84.051L650.215,83.784L650.941,83.632L651.667,83.472L652.393,83.261L653.119,83.061L653.845,82.828L654.571,82.548L655.297,82.267L656.022,82.052L656.748,81.834L657.474,81.641L658.2,81.471L658.926,81.354L659.652,81.267L660.378,81.166L661.104,81.038L661.83,80.888L662.556,80.784L663.282,80.616L664.008,80.502L664.734,80.369L665.46,80.252L666.186,80.106L666.912,79.988L667.638,79.774L668.364,79.621L669.09,79.452L669.816,79.322L670.542,79.129L671.268,78.929L671.994,78.752L672.72,78.616L673.446,78.451L674.172,78.328L674.898,78.188L675.624,78.097L676.35,77.985L677.076,77.862L677.802,77.759L678.528,77.58L679.254,77.435L679.98,77.309L680.706,77.183L681.431,77.032L682.157,76.9L682.883,76.729L683.609,76.62L684.335,76.426L685.061,76.165L685.787,75.916L686.513,75.568L687.239,75.418L687.965,75.247L688.691,75.068L689.417,74.956L690.143,74.769L690.869,74.584L691.595,74.397L692.321,74.153L693.047,73.72L693.773,73.529L694.499,73.405L695.225,73.138L695.951,72.978L696.677,72.891L697.403,72.713L698.129,72.565L698.855,72.448L699.581,72.243L700.307,72.009L701.033,71.78L701.759,71.454L702.485,71.329L703.211,71.218L703.937,71.06L704.663,70.92L705.389,70.841L706.115,70.746L706.84,70.605L707.566,70.534L708.292,70.401L709.018,70.282L709.744,70.193L710.47,70.082L711.196,70.015L711.922,69.906L712.648,69.747L713.374,69.614L714.1,69.514L714.826,69.308L715.552,69.145L716.278,68.999L717.004,68.783L717.73,68.722L718.456,68.642L719.182,68.5L719.908,68.416L720.634,68.328L721.36,68.215L722.086,68.143L722.812,68.058L723.538,67.851L724.264,67.724L724.99,67.678L725.716,67.622L726.442,67.543L727.168,67.428L727.894,67.316L728.62,67.147L729.346,67.058L730.072,66.873L730.798,66.615L731.524,66.425L732.249,66.142L732.975,65.94L733.701,65.811L734.427,65.689L735.153,65.568L735.879,65.426L736.605,65.317L737.331,65.223L738.057,65.057L738.783,64.894L739.509,64.716L740.235,64.622L740.961,64.457L741.687,64.391L742.413,64.31L743.139,64.149L743.865,64.046L744.591,63.941L745.317,63.821L746.043,63.67L746.769,63.532L747.495,63.383L748.221,63.295L748.947,63.173L749.673,63.028L750.399,62.902L751.125,62.783L751.851,62.622L752.577,62.51L753.303,62.381L754.029,62.182L754.755,61.984L755.481,61.905L756.207,61.793L756.933,61.666L757.658,61.582L758.384,61.467L759.11,61.377L759.836,61.329L760.562,61.217L761.288,61.16L762.014,61.131L762.74,61.054L763.466,60.948L764.192,60.892L764.918,60.831L765.644,60.714L766.37,60.529L767.096,60.409L767.822,60.238L768.548,60.171L769.274,60.075L770,60"/></g></svg>