<?xml version="1.0"?>
<svg xmlns="http://www.w3.org/2000/svg" xmlns:xlink="http://www.w3.org/1999/xlink" class="plot-d6a7b5" fill="currentColor" font-family="system-ui, sans-serif" font-size="10" text-anchor="middle" width="830" height="470" viewBox="0 0 830 470" color="#1e90ff">
  <style>:where(.plot-d6a7b5){--plot-background: white;display:block;height:intrinsic;max-width:100%}:where(.plot-d6a7b5 text),:where(.plot-d6a7b5 tspan){white-space:pre}</style>
  <g aria-label="y-grid" aria-hidden="true" stroke="currentColor" stroke-opacity=".1">
    <line x1="60" x2="770" y1="410" y2="410"/>
    <line x1="60" x2="770" y1="360.939" y2="360.939"/>
    <line x1="60" x2="770" y1="311.878" y2="311.878"/>
    <line x1="60" x2="770" y1="262.817" y2="262.817"/>
    <line x1="60" x2="770" y1="213.757" y2="213.757"/>
    <line x1="60" x2="770" y1="164.696" y2="164.696"/>
    <line x1="60" x2="770" y1="115.635" y2="115.635"/>
    <line x1="60" x2="770" y1="66.574" y2="66.574"/>
  </g>
  <g aria-label="y-axis tick" aria-hidden="true" fill="none" stroke="currentColor">
    <path transform="translate(60,410)" d="M0,0L-6,0"/>
    <path transform="translate(60,360.9391645640594)" d="M0,0L-6,0"/>
    <path transform="translate(60,311.8783291281189)" d="M0,0L-6,0"/>
    <path transform="translate(60,262.8174936921783)" d="M0,0L-6,0"/>
    <path transform="translate(60,213.7566582562377)" d="M0,0L-6,0"/>
    <path transform="translate(60,164.69582282029717)" d="M0,0L-6,0"/>
    <path transform="translate(60,115.6349873843566)" d="M0,0L-6,0"/>
    <path transform="translate(60,66.57415194841604)" d="M0,0L-6,0"/>
  </g>
  <g aria-label="y-axis tick label" text-anchor="end" font-variant="tabular-nums">
    <text y=".32em" transform="translate(-9,0) translate(60,410)">0</text>
    <text y=".32em" transform="translate(-9,0) translate(60,360.9391645640594)">1,000</text>
    <text y=".32em" transform="translate(-9,0) translate(60,311.8783291281189)">2,000</text>
    <text y=".32em" transform="translate(-9,0) translate(60,262.8174936921783)">3,000</text>
    <text y=".32em" transform="translate(-9,0) translate(60,213.7566582562377)">4,000</text>
    <text y=".32em" transform="translate(-9,0) translate(60,164.69582282029717)">5,000</text>
    <text y=".32em" transform="translate(-9,0) translate(60,115.6349873843566)">6,000</text>
    <text y=".32em" transform="translate(-9,0) translate(60,66.57415194841604)">7,000</text>
  </g>
  <g aria-label="y-axis label" text-anchor="start">
    <text y=".71em" transform="translate(-57,-57) translate(60,60)">&#x2191; Visible Vestiges (4 days)</text>
  </g>
  <g aria-label="x-axis tick" aria-hidden="true" fill="none" stroke="currentColor">
    <path transform="translate(86.01293103448276,410)" d="M0,0L0,6"/>
    <path transform="translate(155.63577586206898,410)" d="M0,0L0,6"/>
    <path transform="translate(226.02370689655172,410)" d="M0,0L0,6"/>
    <path transform="translate(296.4116379310345,410)" d="M0,0L0,6"/>
    <path transform="translate(366.0344827586207,410)" d="M0,0L0,6"/>
    <path transform="translate(435.65732758620686,410)" d="M0,0L0,6"/>
    <path transform="translate(506.0452586206896,410)" d="M0,0L0,6"/>
    <path transform="translate(576.4331896551723,410)" d="M0,0L0,6"/>
    <path transform="translate(645.2909482758621,410)" d="M0,0L0,6"/>
    <path transform="translate(714.9137931034484,410)" d="M0,0L0,6"/>
  </g>
  <g aria-label="x-axis tick label" font-variant="tabular-nums">
    <text transform="translate(0,9) translate(86.01293103448276,410)">
      <tspan x="0" y=".71em">Apr</tspan>
      <tspan x="0" dy="1em">2023</tspan>
    </text>
    <text y=".71em" transform="translate(0,9) translate(155.63577586206898,410)">Jul</text>
    <text y=".71em" transform="translate(0,9) translate(226.02370689655172,410)">Oct</text>
    <text transform="translate(0,9) translate(296.4116379310345,410)">
      <tspan x="0" y=".71em">Jan</tspan>
      <tspan x="0" dy="1em">2024</tspan>
    </text>
    <text y=".71em" transform="translate(0,9) translate(366.0344827586207,410)">Apr</text>
    <text y=".71em" transform="translate(0,9) translate(435.65732758620686,410)">Jul</text>
    <text y=".71em" transform="translate(0,9) translate(506.0452586206896,410)">Oct</text>
    <text transform="translate(0,9) translate(576.4331896551723,410)">
      <tspan x="0" y=".71em">Jan</tspan>
      <tspan x="0" dy="1em">2025</tspan>
    </text>
    <text y=".71em" transform="translate(0,9) translate(645.2909482758621,410)">Apr</text>
    <text y=".71em" transform="translate(0,9) translate(714.9137931034484,410)">Jul</text>
  </g>
  <g aria-label="line" fill="none" stroke="currentColor" stroke-width="1.5" stroke-linejoin="round" stroke-linecap="round">
    <path d="M60,
410.00L
60.51,
385.37L
61.02,
295.30L
61.53,
246.73L
62.04,
236.91L
62.55,
270.18L
63.06,
274.00L
63.57,
266.50L
64.08,
238.43L
64.59,
216.01L
65.10,
178.24L
65.61,
139.63L
66.12,
90.37L
66.63,
109.65L
67.14,
145.66L
67.65,
202.67L
68.16,
195.02L
68.67,
193.45L
69.18,
192.91L
69.69,
202.23L
70.20,
211.50L
70.71,
183.00L
71.22,
179.12L
71.73,
151.99L
72.24,
189.82L
72.75,
205.22L
73.26,
226.91L
73.77,
195.95L
74.28,
180.40L
74.79,
178.09L
75.30,
172.40L
75.81,
155.72L
76.32,
120.05L
76.83,
109.60L
77.34,
132.46L
77.85,
196.68L
78.36,
250.01L
78.87,
270.77L
79.38,
263.21L
79.89,
242.56L
80.40,
233.04L
80.91,
194.62L
81.42,
149.98L
81.93,
97.04L
82.44,
82.86L
82.95,
111.81L
83.46,
141.34L
83.97,
166.76L
84.48,
169.11L
84.99,
181.13L
85.50,
172.60L
86.01,
152.14L
86.52,
116.67L
87.03,
86.69L
87.54,
60.00L
88.05,
86.93L
88.56,
122.26L
89.07,
160.38L
89.58,
147.33L
90.09,
133.30L
90.60,
116.52L
91.11,
104.35L
91.62,
106.46L
92.13,
106.36L
92.64,
107.05L
93.15,
95.03L
93.66,
125.01L
94.17,
147.77L
94.68,
175.05L
95.19,
172.79L
95.70,
182.60L
96.21,
202.38L
96.72,
199.33L
97.23,
182.36L
97.74,
158.76L
98.25,
141.88L
98.76,
161.11L
99.27,
182.16L
99.78,
219.06L
100.30,
234.85L
100.81,
250.50L
101.32,
249.72L
101.83,
224.80L
102.34,
202.47L
102.85,
178.48L
103.36,
176.72L
103.87,
168.47L
104.38,
188.79L
104.89,
212.83L
105.40,
207.97L
105.91,
205.61L
106.42,
211.50L
106.93,
247.41L
107.44,
255.80L
107.95,
231.32L
108.46,
208.51L
108.97,
194.33L
109.48,
192.56L
109.99,
221.51L
110.50,
245.74L
111.01,
262.03L
111.52,
240.74L
112.03,
245.79L
112.54,
248.10L
113.05,
252.66L
113.56,
215.33L
114.07,
196.00L
114.58,
185.84L
115.09,
211.55L
115.60,
223.81L
116.11,
231.32L
116.62,
235.64L
117.13,
238.48L
117.64,
248.05L
118.15,
248.35L
118.66,
235.83L
119.17,
235.79L
119.68,
227.69L
120.19,
239.96L
120.70,
253.50L
121.21,
267.53L
121.72,
274.15L
122.23,
266.15L
122.74,
265.71L
123.25,
267.09L
123.76,
259.33L
124.27,
217.83L
124.78,
195.21L
125.29,
179.76L
125.80,
216.90L
126.31,
223.62L
126.82,
247.41L
127.33,
243.44L
127.84,
262.33L
128.35,
246.58L
128.86,
241.62L
129.37,
218.03L
129.88,
203.45L
130.39,
196.34L
130.90,
200.31L
131.41,
230.49L
131.92,
232.11L
132.43,
239.86L
132.94,
249.87L
133.45,
249.72L
133.96,
261.30L
134.47,
259.58L
134.98,
278.17L
135.49,
273.46L
136.00,
263.80L
136.51,
265.76L
137.02,
263.21L
137.53,
262.72L
138.04,
262.82L
138.55,
267.97L
139.06,
285.04L
139.57,
277.44L
140.08,
269.64L
140.59,
263.01L
141.10,
259.83L
141.61,
265.12L
142.12,
263.06L
142.63,
273.37L
143.14,
272.38L
143.65,
264.19L
144.16,
257.81L
144.67,
261.64L
145.18,
269.83L
145.69,
270.57L
146.20,
274.40L
146.71,
265.12L
147.22,
267.68L
147.73,
255.26L
148.24,
262.92L
148.75,
264.09L
149.26,
284.99L
149.77,
288.82L
150.28,
293.82L
150.79,
272.88L
151.30,
265.27L
151.81,
260.41L
152.32,
258.65L
152.83,
260.95L
153.34,
256.29L
153.85,
262.28L
154.36,
245.74L
154.87,
237.65L
155.38,
247.95L
155.89,
265.86L
156.40,
276.26L
156.91,
281.07L
157.42,
283.77L
157.93,
298.53L
158.44,
288.28L
158.95,
291.67L
159.46,
280.38L
159.97,
284.40L
160.48,
276.60L
160.99,
280.28L
161.50,
278.62L
162.01,
282.44L
162.52,
276.75L
163.03,
277.00L
163.54,
272.68L
164.05,
283.33L
164.56,
279.40L
165.07,
283.96L
165.58,
277.93L
166.09,
271.11L
166.60,
268.26L
167.11,
262.57L
167.62,
269.49L
168.13,
277.29L
168.64,
270.37L
169.15,
268.17L
169.66,
274.45L
170.17,
286.51L
170.68,
296.82L
171.19,
281.80L
171.70,
289.46L
172.21,
282.69L
172.72,
288.77L
173.23,
284.31L
173.74,
276.02L
174.25,
262.08L
174.76,
253.64L
175.27,
272.83L
175.78,
271.45L
176.29,
271.60L
176.80,
257.62L
177.31,
263.16L
177.82,
270.72L
178.33,
270.18L
178.84,
279.69L
179.35,
269.64L
179.86,
269.24L
180.37,
254.87L
180.88,
255.70L
181.39,
255.56L
181.90,
266.79L
182.41,
258.26L
182.92,
242.65L
183.43,
208.61L
183.94,
213.27L
184.45,
232.11L
184.96,
264.49L
185.47,
273.90L
185.98,
282.25L
186.49,
287.15L
187.00,
287.30L
187.51,
288.48L
188.02,
288.13L
188.53,
286.42L
189.05,
284.11L
189.56,
281.31L
190.07,
277.54L
190.58,
273.07L
191.09,
276.41L
191.60,
264.24L
192.11,
249.96L
192.62,
234.71L
193.13,
250.16L
193.64,
257.67L
194.15,
256.88L
194.66,
253.59L
195.17,
252.27L
195.68,
262.82L
196.19,
266.55L
196.70,
281.56L
197.21,
292.30L
197.72,
304.37L
198.23,
298.44L
198.74,
298.24L
199.25,
287.25L
199.76,
282.79L
200.27,
285.88L
200.78,
287.89L
201.29,
292.94L
201.80,
294.12L
202.31,
296.96L
202.82,
299.47L
203.33,
300.79L
203.84,
300.59L
204.35,
291.32L
204.86,
278.76L
205.37,
281.76L
205.88,
284.94L
206.39,
294.61L
206.90,
300.69L
207.41,
307.51L
207.92,
314.82L
208.43,
324.24L
208.94,
331.21L
209.45,
307.46L
209.96,
288.33L
210.47,
276.26L
210.98,
283.08L
211.49,
301.58L
212.00,
310.51L
212.51,
334.25L
213.02,
334.10L
213.53,
330.23L
214.04,
324.09L
214.55,
307.81L
215.06,
300.50L
215.57,
270.37L
216.08,
254.58L
216.59,
265.32L
217.10,
289.56L
217.61,
316.29L
218.12,
312.91L
218.63,
314.63L
219.14,
308.10L
219.65,
313.79L
220.16,
310.31L
220.67,
299.07L
221.18,
292.60L
221.69,
288.33L
222.20,
309.96L
222.71,
320.42L
223.22,
335.18L
223.73,
329.69L
224.24,
326.94L
224.75,
316.00L
225.26,
310.16L
225.77,
300.50L
226.28,
294.32L
226.79,
293.14L
227.30,
309.23L
227.81,
321.59L
228.32,
331.31L
228.83,
327.09L
229.34,
332.83L
229.85,
329.98L
230.36,
320.27L
230.87,
306.29L
231.38,
288.77L
231.89,
275.38L
232.40,
270.37L
232.91,
281.71L
233.42,
301.38L
233.93,
316.59L
234.44,
323.80L
234.95,
320.61L
235.46,
313.60L
235.97,
314.28L
236.48,
318.85L
236.99,
303.05L
237.50,
282.25L
238.01,
277.98L
238.52,
303.29L
239.03,
329.05L
239.54,
341.17L
240.05,
335.23L
240.56,
332.97L
241.07,
326.25L
241.58,
316.05L
242.09,
290.14L
242.60,
276.56L
243.11,
272.14L
243.62,
295.10L
244.13,
307.86L
244.64,
316.20L
245.15,
315.66L
245.66,
314.23L
246.17,
319.48L
246.68,
307.32L
247.19,
308.05L
247.70,
303.20L
248.21,
315.80L
248.72,
323.75L
249.23,
328.41L
249.74,
330.33L
250.25,
332.48L
250.76,
346.81L
251.27,
348.38L
251.78,
324.29L
252.29,
300.94L
252.80,
277.83L
253.31,
286.12L
253.82,
301.82L
254.33,
330.57L
254.84,
334.74L
255.35,
333.86L
255.86,
334.30L
256.37,
342.98L
256.88,
343.38L
257.39,
341.76L
257.90,
333.71L
258.41,
336.16L
258.92,
329.44L
259.43,
338.91L
259.94,
344.50L
260.45,
357.60L
260.96,
357.06L
261.47,
356.72L
261.98,
353.53L
262.49,
360.20L
263.00,
346.76L
263.51,
326.35L
264.02,
301.53L
264.53,
303.10L
265.04,
312.32L
265.55,
331.01L
266.06,
339.06L
266.57,
349.17L
267.08,
342.20L
267.59,
334.84L
268.10,
323.56L
268.61,
322.52L
269.12,
320.17L
269.63,
322.08L
270.14,
321.40L
270.65,
328.41L
271.16,
330.08L
271.67,
327.63L
272.18,
316.44L
272.69,
316.59L
273.20,
321.49L
273.71,
338.57L
274.22,
335.28L
274.73,
330.91L
275.24,
324.83L
275.75,
335.13L
276.26,
351.62L
276.77,
355.94L
277.28,
351.77L
277.80,
345.93L
278.31,
351.62L
278.82,
354.12L
279.33,
355.84L
279.83,
352.35L
280.35,
349.80L
280.86,
352.60L
281.37,
348.28L
281.88,
343.52L
282.39,
344.26L
282.90,
355.64L
283.40,
369.03L
283.92,
366.09L
284.43,
355.25L
284.94,
340.78L
285.45,
335.13L
285.96,
343.77L
286.47,
351.96L
286.98,
347.74L
287.49,
347.50L
288.00,
353.04L
288.51,
361.04L
289.02,
353.09L
289.53,
350.00L
290.04,
345.78L
290.55,
338.52L
291.06,
327.73L
291.57,
334.01L
292.08,
346.03L
292.59,
344.85L
293.10,
336.21L
293.61,
328.95L
294.12,
335.38L
294.63,
333.07L
295.14,
333.02L
295.65,
332.63L
296.16,
336.41L
296.67,
338.81L
297.18,
338.42L
297.69,
338.62L
298.20,
332.58L
298.71,
335.92L
299.22,
341.71L
299.73,
342.79L
300.24,
351.27L
300.75,
347.25L
301.26,
347.94L
301.77,
343.03L
302.28,
343.57L
302.79,
351.42L
303.30,
353.43L
303.81,
357.70L
304.32,
366.48L
304.83,
369.97L
305.34,
364.47L
305.85,
351.81L
306.36,
337.29L
306.87,
326.55L
307.38,
317.18L
307.89,
325.62L
308.40,
336.51L
308.91,
353.97L
309.42,
344.16L
309.93,
334.40L
310.44,
331.45L
310.95,
342.05L
311.46,
345.63L
311.97,
336.51L
312.48,
308.69L
312.99,
307.56L
313.50,
305.50L
314.01,
330.08L
314.52,
339.60L
315.03,
349.21L
315.54,
358.29L
316.05,
360.99L
316.56,
346.86L
317.07,
315.41L
317.58,
299.91L
318.09,
295.35L
318.60,
313.40L
319.11,
323.85L
319.62,
342.15L
320.13,
342.00L
320.64,
341.85L
321.15,
334.25L
321.66,
339.06L
322.17,
327.63L
322.68,
312.27L
323.19,
298.14L
323.70,
305.89L
324.21,
317.57L
324.72,
327.04L
325.23,
333.66L
325.74,
332.68L
326.25,
326.94L
326.76,
311.49L
327.27,
315.71L
327.78,
307.46L
328.29,
290.10L
328.80,
267.87L
329.31,
275.77L
329.82,
294.95L
330.33,
304.32L
330.84,
303.34L
331.35,
311.34L
331.86,
326.89L
332.37,
332.53L
332.88,
330.28L
333.39,
319.43L
333.90,
309.13L
334.41,
319.73L
334.92,
328.61L
335.43,
336.95L
335.94,
320.37L
336.45,
321.20L
336.96,
329.84L
337.47,
334.01L
337.98,
324.39L
338.49,
305.55L
339.00,
307.71L
339.51,
309.92L
340.02,
328.02L
340.53,
328.41L
341.04,
338.91L
341.55,
340.04L
342.06,
343.18L
342.57,
342.49L
343.08,
337.98L
343.59,
336.61L
344.10,
322.87L
344.61,
321.89L
345.12,
324.54L
345.63,
348.58L
346.14,
355.25L
346.65,
352.99L
347.16,
350.15L
347.67,
354.17L
348.18,
360.60L
348.69,
347.55L
349.20,
339.06L
349.71,
338.76L
350.22,
341.02L
350.73,
340.19L
351.24,
347.01L
351.75,
359.66L
352.26,
356.43L
352.77,
346.81L
353.28,
339.94L
353.79,
337.19L
354.30,
329.34L
354.81,
313.74L
355.32,
313.11L
355.83,
321.40L
356.34,
359.52L
356.85,
387.83L
357.36,
406.12L
357.87,
409.17L
358.38,
409.22L
358.89,
408.97L
359.40,
408.72L
359.91,
406.86L
360.42,
405.63L
360.93,
405.09L
361.44,
404.65L
361.95,
401.95L
362.46,
399.94L
362.97,
398.67L
363.48,
395.38L
363.99,
388.17L
364.50,
366.29L
365.01,
356.48L
365.52,
350.39L
366.03,
361.48L
366.55,
364.91L
367.06,
365.16L
367.57,
359.42L
368.08,
355.10L
368.59,
349.46L
369.10,
347.35L
369.61,
345.73L
370.12,
343.18L
370.63,
347.25L
371.14,
353.09L
371.65,
356.92L
372.16,
353.48L
372.67,
358.09L
373.18,
364.28L
373.69,
365.06L
374.20,
362.66L
374.71,
364.47L
375.22,
367.07L
375.73,
364.23L
376.24,
355.15L
376.75,
355.59L
377.26,
359.57L
377.77,
364.72L
378.28,
368.54L
378.79,
365.85L
379.30,
372.91L
379.81,
375.56L
380.32,
382.13L
380.83,
379.04L
381.34,
377.52L
381.85,
367.76L
382.36,
356.62L
382.87,
354.86L
383.38,
361.87L
383.89,
364.72L
384.40,
363.88L
384.91,
359.27L
385.42,
365.06L
385.93,
360.06L
386.44,
360.01L
386.95,
354.95L
387.46,
362.07L
387.97,
365.89L
388.48,
369.77L
388.99,
365.55L
389.50,
357.46L
390.01,
361.43L
390.52,
362.66L
391.03,
367.07L
391.54,
361.38L
392.05,
352.70L
392.56,
347.89L
393.07,
341.27L
393.58,
353.09L
394.09,
360.11L
394.60,
367.91L
395.11,
364.86L
395.62,
362.90L
396.13,
360.84L
396.64,
356.18L
397.15,
356.87L
397.66,
351.77L
398.17,
351.91L
398.68,
348.09L
399.19,
347.15L
399.70,
353.97L
400.21,
360.06L
400.72,
376.10L
401.23,
378.26L
401.74,
373.99L
402.25,
366.09L
402.76,
343.23L
403.27,
341.17L
403.78,
331.31L
404.29,
353.78L
404.80,
359.03L
405.31,
370.56L
405.82,
360.89L
406.33,
365.45L
406.84,
364.18L
407.35,
368.45L
407.86,
359.86L
408.37,
351.47L
408.88,
338.91L
409.39,
339.16L
409.90,
337.10L
410.41,
355.20L
410.92,
354.56L
411.43,
351.42L
411.94,
341.95L
412.45,
343.57L
412.96,
349.31L
413.47,
345.34L
413.98,
346.32L
414.49,
338.62L
415.00,
350.00L
415.51,
349.51L
416.02,
360.45L
416.53,
353.34L
417.04,
353.09L
417.55,
349.66L
418.06,
352.21L
418.57,
347.06L
419.08,
342.20L
419.59,
332.19L
420.10,
331.11L
420.61,
340.19L
421.12,
342.54L
421.63,
347.45L
422.14,
351.03L
422.65,
362.80L
423.16,
357.65L
423.67,
355.94L
424.18,
351.37L
424.69,
354.56L
425.20,
353.68L
425.71,
351.72L
426.22,
363.10L
426.73,
372.22L
427.24,
378.41L
427.75,
373.01L
428.26,
354.41L
428.77,
352.94L
429.28,
353.19L
429.79,
366.19L
430.30,
349.66L
430.81,
350.00L
431.32,
348.77L
431.83,
359.32L
432.34,
353.63L
432.85,
359.22L
433.36,
367.07L
433.87,
374.92L
434.38,
373.55L
434.89,
373.99L
435.40,
368.30L
435.91,
353.83L
436.42,
349.31L
436.93,
351.37L
437.44,
354.76L
437.95,
356.57L
438.46,
352.21L
438.97,
362.95L
439.48,
367.02L
439.99,
374.48L
440.50,
370.85L
441.01,
365.36L
441.52,
366.97L
442.03,
372.47L
442.54,
378.99L
443.05,
375.95L
443.56,
373.70L
444.07,
369.82L
444.58,
363.64L
445.09,
358.19L
445.60,
363.64L
446.11,
370.02L
446.62,
371.00L
447.13,
365.70L
447.64,
366.78L
448.15,
366.83L
448.66,
366.14L
449.17,
363.10L
449.68,
365.31L
450.19,
365.50L
450.70,
361.09L
451.21,
352.84L
451.72,
336.51L
452.23,
333.61L
452.74,
335.72L
453.25,
353.43L
453.76,
359.32L
454.27,
361.14L
454.78,
362.07L
455.30,
365.60L
455.81,
372.13L
456.32,
372.17L
456.83,
367.76L
457.34,
364.72L
457.85,
355.49L
458.36,
354.17L
458.87,
344.01L
459.38,
342.05L
459.89,
333.02L
460.40,
333.61L
460.91,
335.67L
461.42,
334.89L
461.93,
332.44L
462.44,
341.07L
462.95,
348.72L
463.46,
343.23L
463.97,
339.89L
464.48,
342.64L
464.99,
354.46L
465.50,
356.87L
466.01,
365.06L
466.52,
341.51L
467.03,
317.37L
467.54,
285.93L
468.05,
289.41L
468.56,
294.81L
469.07,
309.57L
469.58,
313.50L
470.09,
307.37L
470.60,
307.17L
471.11,
321.99L
471.62,
333.91L
472.13,
332.58L
472.64,
327.04L
473.15,
323.26L
473.66,
328.17L
474.17,
344.01L
474.68,
352.26L
475.19,
359.86L
475.70,
358.63L
476.21,
363.59L
476.72,
359.32L
477.23,
352.89L
477.74,
346.76L
478.25,
339.60L
478.76,
341.12L
479.27,
346.66L
479.78,
354.46L
480.29,
358.54L
480.80,
367.46L
481.31,
376.79L
481.82,
382.92L
482.33,
381.99L
482.84,
376.44L
483.35,
376.10L
483.86,
372.52L
484.37,
375.76L
484.88,
373.25L
485.39,
377.77L
485.90,
374.87L
486.41,
376.15L
486.92,
367.61L
487.43,
366.93L
487.94,
362.46L
488.45,
369.87L
488.96,
366.39L
489.47,
363.59L
489.98,
359.42L
490.49,
364.52L
491.00,
367.61L
491.51,
372.42L
492.02,
372.08L
492.53,
378.65L
493.04,
379.58L
493.55,
381.01L
494.06,
380.02L
494.57,
374.09L
495.08,
372.13L
495.59,
370.06L
496.10,
374.77L
496.61,
374.33L
497.12,
373.70L
497.63,
369.77L
498.14,
373.40L
498.65,
368.00L
499.16,
359.96L
499.67,
347.55L
500.18,
333.91L
500.69,
343.72L
501.20,
350.69L
501.71,
365.60L
502.22,
369.08L
502.73,
367.66L
503.24,
367.07L
503.75,
360.40L
504.26,
355.30L
504.77,
333.42L
505.28,
333.02L
505.79,
343.67L
506.30,
358.34L
506.81,
361.09L
507.32,
364.42L
507.83,
372.37L
508.34,
373.40L
508.85,
370.75L
509.36,
368.25L
509.87,
360.65L
510.38,
350.69L
510.89,
340.09L
511.40,
349.70L
511.91,
360.20L
512.42,
375.02L
512.93,
373.74L
513.44,
376.54L
513.95,
382.13L
514.46,
382.08L
514.97,
382.77L
515.48,
379.44L
515.99,
381.35L
516.50,
379.78L
517.01,
381.69L
517.52,
386.26L
518.03,
384.54L
518.54,
380.32L
519.05,
374.48L
519.56,
375.22L
520.07,
371.00L
520.58,
368.40L
521.09,
364.28L
521.60,
363.49L
522.11,
372.47L
522.62,
378.41L
523.13,
384.88L
523.64,
382.87L
524.15,
382.08L
524.66,
384.73L
525.17,
385.81L
525.68,
386.06L
526.19,
377.72L
526.70,
372.76L
527.21,
376.30L
527.72,
389.69L
528.23,
394.01L
528.74,
387.83L
529.25,
382.87L
529.76,
374.87L
530.27,
377.18L
530.78,
370.70L
531.29,
362.80L
531.80,
353.92L
532.31,
345.14L
532.82,
350.15L
533.33,
355.54L
533.84,
369.77L
534.35,
376.98L
534.86,
375.85L
535.37,
377.03L
535.88,
379.39L
536.39,
377.28L
536.90,
372.47L
537.41,
365.01L
537.92,
371.34L
538.43,
371.29L
538.94,
381.20L
539.45,
382.38L
539.96,
382.62L
540.47,
379.39L
540.98,
377.23L
541.49,
380.96L
542.00,
376.69L
542.51,
373.74L
543.02,
371.14L
543.53,
376.74L
544.04,
378.16L
544.55,
378.55L
545.07,
375.12L
545.58,
375.41L
546.09,
373.94L
546.60,
375.27L
547.11,
374.33L
547.62,
370.95L
548.13,
363.29L
548.64,
367.81L
549.15,
375.56L
549.66,
381.79L
550.17,
381.35L
550.67,
381.05L
551.18,
384.39L
551.70,
387.53L
552.21,
387.83L
552.72,
390.82L
553.23,
392.44L
553.74,
395.53L
554.25,
391.11L
554.76,
388.86L
555.27,
390.23L
555.78,
389.25L
556.29,
377.77L
556.80,
372.57L
557.31,
367.81L
557.82,
378.31L
558.33,
380.42L
558.84,
388.90L
559.35,
385.57L
559.86,
384.98L
560.37,
386.84L
560.88,
389.44L
561.39,
387.29L
561.90,
383.31L
562.41,
381.64L
562.92,
377.91L
563.43,
371.83L
563.94,
372.32L
564.45,
373.20L
564.96,
380.27L
565.47,
373.94L
565.98,
377.47L
566.49,
380.17L
567.00,
388.07L
567.51,
388.12L
568.02,
384.73L
568.53,
381.30L
569.04,
374.63L
569.55,
377.96L
570.06,
374.97L
570.57,
381.79L
571.08,
378.60L
571.59,
384.69L
572.10,
386.89L
572.61,
389.15L
573.12,
387.78L
573.63,
387.38L
574.14,
379.83L
574.65,
376.49L
575.16,
361.53L
575.67,
358.39L
576.18,
356.23L
576.69,
363.83L
577.20,
368.59L
577.71,
370.90L
578.22,
367.71L
578.73,
360.01L
579.24,
360.69L
579.75,
361.82L
580.26,
370.70L
580.77,
374.53L
581.28,
380.17L
581.79,
382.53L
582.30,
379.83L
582.81,
385.76L
583.32,
380.56L
583.83,
381.59L
584.34,
378.26L
584.85,
382.62L
585.36,
379.88L
585.87,
381.79L
586.38,
382.18L
586.89,
385.22L
587.40,
384.10L
587.91,
379.98L
588.42,
378.41L
588.93,
370.60L
589.44,
373.50L
589.95,
372.47L
590.46,
376.05L
590.97,
373.45L
591.48,
370.31L
591.99,
368.59L
592.50,
370.90L
593.01,
378.36L
593.52,
380.32L
594.03,
379.73L
594.54,
376.05L
595.05,
376.25L
595.56,
372.76L
596.07,
362.22L
596.58,
349.02L
597.09,
344.90L
597.60,
355.30L
598.11,
370.02L
598.62,
380.02L
599.13,
380.27L
599.64,
377.57L
600.15,
377.38L
600.66,
380.12L
601.17,
375.56L
601.68,
368.20L
602.19,
367.22L
602.70,
371.59L
603.21,
376.05L
603.72,
373.25L
604.23,
375.66L
604.74,
371.73L
605.25,
364.08L
605.76,
363.79L
606.27,
367.42L
606.78,
377.72L
607.29,
379.58L
607.80,
382.67L
608.31,
387.04L
608.82,
379.98L
609.33,
381.40L
609.84,
373.25L
610.35,
375.07L
610.86,
369.87L
611.37,
363.93L
611.88,
362.41L
612.39,
363.34L
612.90,
369.67L
613.41,
367.32L
613.92,
369.23L
614.43,
370.46L
614.94,
372.62L
615.45,
371.68L
615.96,
369.33L
616.47,
368.84L
616.98,
370.95L
617.49,
374.14L
618.00,
376.59L
618.51,
375.07L
619.02,
365.80L
619.53,
370.70L
620.04,
363.39L
620.55,
367.27L
621.06,
368.05L
621.57,
376.93L
622.08,
380.17L
622.59,
366.68L
623.10,
353.19L
623.61,
350.54L
624.12,
354.22L
624.63,
364.03L
625.14,
363.88L
625.65,
361.18L
626.16,
356.77L
626.67,
356.97L
627.18,
364.47L
627.69,
371.44L
628.20,
373.65L
628.71,
376.88L
629.22,
373.94L
629.73,
374.77L
630.24,
372.96L
630.75,
375.36L
631.26,
374.53L
631.77,
369.62L
632.28,
366.29L
632.79,
369.97L
633.30,
379.83L
633.82,
383.51L
634.33,
382.38L
634.84,
381.25L
635.35,
384.98L
635.86,
387.87L
636.37,
386.16L
636.88,
386.70L
637.39,
386.40L
637.90,
387.19L
638.41,
383.02L
638.92,
381.40L
639.42,
377.96L
639.93,
380.86L
640.45,
378.11L
640.96,
384.39L
641.47,
376.49L
641.98,
381.20L
642.49,
376.25L
643.00,
386.40L
643.51,
387.29L
644.02,
383.21L
644.53,
379.34L
645.04,
375.22L
645.55,
386.89L
646.06,
388.61L
646.57,
386.84L
647.08,
384.29L
647.59,
384.24L
648.10,
393.47L
648.61,
393.47L
649.12,
397.34L
649.63,
392.98L
650.14,
395.48L
650.65,
387.48L
651.16,
382.82L
651.67,
376.69L
652.18,
384.10L
652.69,
389.10L
653.20,
394.79L
653.71,
395.09L
654.22,
399.50L
654.73,
395.18L
655.24,
391.50L
655.75,
385.42L
656.26,
391.70L
656.77,
392.63L
657.28,
395.04L
657.79,
388.95L
658.30,
392.49L
658.81,
393.71L
659.32,
399.01L
659.83,
392.98L
660.34,
388.95L
660.85,
386.79L
661.36,
390.08L
661.87,
393.37L
662.38,
395.53L
662.89,
397.34L
663.40,
400.63L
663.91,
402.79L
664.42,
402.45L
664.93,
398.23L
665.44,
398.91L
665.95,
399.45L
666.46,
404.16L
666.97,
402.59L
667.48,
404.16L
667.99,
404.16L
668.50,
405.09L
669.01,
405.54L
669.52,
406.12L
670.03,
405.19L
670.54,
401.41L
671.05,
400.29L
671.56,
400.04L
672.07,
404.90L
672.58,
402.98L
673.09,
402.59L
673.60,
398.67L
674.11,
400.19L
674.62,
395.92L
675.13,
397.24L
675.64,
397.49L
676.15,
402.30L
676.66,
401.27L
677.17,
399.70L
677.68,
401.46L
678.19,
404.41L
678.70,
406.66L
679.21,
405.98L
679.72,
404.26L
680.23,
401.81L
680.74,
400.09L
681.25,
399.84L
681.76,
398.91L
682.27,
396.21L
682.78,
395.14L
683.29,
396.17L
683.80,
398.08L
684.31,
400.78L
684.82,
400.48L
685.33,
398.96L
685.84,
397.34L
686.35,
394.15L
686.86,
393.42L
687.37,
392.09L
687.88,
393.17L
688.39,
397.00L
688.90,
398.86L
689.41,
403.03L
689.92,
400.53L
690.43,
394.30L
690.94,
394.40L
691.45,
392.29L
691.96,
395.43L
692.47,
394.50L
692.98,
399.01L
693.49,
402.79L
694.00,
402.35L
694.51,
401.32L
695.02,
397.49L
695.53,
395.87L
696.04,
393.61L
696.55,
394.30L
697.06,
397.83L
697.57,
397.93L
698.08,
399.60L
698.59,
398.77L
699.10,
404.55L
699.61,
405.09L
700.12,
404.70L
700.63,
401.46L
701.14,
399.60L
701.65,
400.63L
702.16,
400.58L
702.67,
403.33L
703.18,
403.08L
703.69,
404.65L
704.20,
404.21L
704.71,
404.31L
705.22,
402.10L
705.73,
402.00L
706.24,
400.97L
706.75,
398.23L
707.26,
396.02L
707.77,
395.92L
708.28,
398.77L
708.79,
397.24L
709.30,
394.79L
709.81,
396.26L
710.32,
397.98L
710.83,
398.13L
711.34,
396.75L
711.85,
398.27L
712.36,
399.16L
712.87,
396.02L
713.38,
397.39L
713.89,
400.53L
714.40,
403.97L
714.91,
398.42L
715.42,
396.71L
715.93,
393.03L
716.44,
395.18L
716.95,
395.09L
717.46,
393.03L
717.97,
391.70L
718.48,
392.24L
718.99,
395.48L
719.50,
399.80L
720.01,
398.08L
720.52,
403.82L
721.03,
402.49L
721.55,
404.80L
722.06,
403.57L
722.57,
403.33L
723.08,
402.35L
723.59,
398.81L
724.10,
397.24L
724.61,
391.46L
725.12,
393.32L
725.63,
394.30L
726.14,
401.46L
726.65,
400.09L
727.16,
399.94L
727.67,
394.30L
728.18,
397.20L
728.69,
398.13L
729.20,
399.65L
729.71,
396.36L
730.22,
397.74L
730.73,
398.23L
731.24,
399.26L
731.75,
400.48L
732.26,
402.69L
732.77,
403.08L
733.28,
398.52L
733.79,
397.78L
734.30,
398.13L
734.81,
400.92L
735.32,
398.57L
735.83,
394.74L
736.34,
393.12L
736.85,
396.56L
737.36,
396.61L
737.87,
397.20L
738.38,
396.71L
738.89,
402.15L
739.40,
402.79L
739.91,
403.77L
740.42,
399.50L
740.93,
399.06L
741.44,
399.60L
741.95,
404.11L
742.46,
402.54L
742.97,
403.33L
743.48,
400.68L
743.99,
401.95L
744.50,
400.19L
745.01,
403.38L
745.52,
406.66L
746.03,
408.04L
746.54,
408.04L
747.05,
406.71L
747.56,
404.80L
748.07,
404.31L
748.58,
404.36L
749.09,
405.98L
749.60,
406.08L
750.11,
404.75L
750.62,
400.34L
751.13,
400.73L
751.64,
399.65L
752.15,
398.18L
752.66,
388.36L
753.17,
383.90L
753.68,
389.00L
754.19,
397.24L
754.70,
402.25L
755.21,
402.05L
755.72,
402.54L
756.23,
402.45L
756.74,
399.75L
757.25,
395.48L
757.76,
395.72L
758.27,
398.96L
758.78,
404.85L
759.29,
405.39L
759.80,
400.97L
760.31,
398.67L
760.82,
399.06L
761.33,
402.35L
761.84,
402.25L
762.35,
399.50L
762.86,
398.91L
763.37,
394.89L
763.88,
399.55L
764.39,
402.69L
764.90,
407.65L
765.41,
405.49L
765.92,
405.73L
766.43,
400.78L
766.94,
401.02L
767.45,
396.12L
767.96,
396.90L
768.47,
399.06L
768.98,
403.87L
769.49,
409.22L
770.00,
408.381"/>
  </g>
</svg>
