<svg class="plot-d6a7b5" fill="currentColor" font-family="system-ui, sans-serif" font-size="10" text-anchor="middle" width="830" height="470" viewBox="0 0 830 470" xmlns="http://www.w3.org/2000/svg" xmlns:xlink="http://www.w3.org/1999/xlink" color="#1e90ff"><style>:where(.plot-d6a7b5){--plot-background: white;display:block;height:intrinsic;max-width:100%}:where(.plot-d6a7b5 text),:where(.plot-d6a7b5 tspan){white-space:pre}</style><g aria-label="y-grid" stroke="currentColor" stroke-opacity=".1"><line x1="60" x2="770" y1="410" y2="410"/><line x1="60" x2="770" y1="373.277" y2="373.277"/><line x1="60" x2="770" y1="336.554" y2="336.554"/><line x1="60" x2="770" y1="299.831" y2="299.831"/><line x1="60" x2="770" y1="263.108" y2="263.108"/><line x1="60" x2="770" y1="226.385" y2="226.385"/><line x1="60" x2="770" y1="189.662" y2="189.662"/><line x1="60" x2="770" y1="152.939" y2="152.939"/><line x1="60" x2="770" y1="116.216" y2="116.216"/><line x1="60" x2="770" y1="79.493" y2="79.493"/></g><g aria-label="y-axis tick" fill="none" stroke="currentColor"><path transform="translate(60,410)" d="M0,0L-6,0"/><path transform="translate(60,373.276954715239)" d="M0,0L-6,0"/><path transform="translate(60,336.553909430478)" d="M0,0L-6,0"/><path transform="translate(60,299.83086414571704)" d="M0,0L-6,0"/><path transform="translate(60,263.10781886095606)" d="M0,0L-6,0"/><path transform="translate(60,226.38477357619504)" d="M0,0L-6,0"/><path transform="translate(60,189.6617282914341)" d="M0,0L-6,0"/><path transform="translate(60,152.9386830066731)" d="M0,0L-6,0"/><path transform="translate(60,116.2156377219121)" d="M0,0L-6,0"/><path transform="translate(60,79.49259243715115)" d="M0,0L-6,0"/></g><g aria-label="y-axis tick label" text-anchor="end" font-variant="tabular-nums"><text y=".32em" transform="translate(-9,0) translate(60,410)">0</text><text y=".32em" transform="translate(-9,0) translate(60,373.276954715239)">50,000</text><text y=".32em" transform="translate(-9,0) translate(60,336.553909430478)">100,000</text><text y=".32em" transform="translate(-9,0) translate(60,299.83086414571704)">150,000</text><text y=".32em" transform="translate(-9,0) translate(60,263.10781886095606)">200,000</text><text y=".32em" transform="translate(-9,0) translate(60,226.38477357619504)">250,000</text><text y=".32em" transform="translate(-9,0) translate(60,189.6617282914341)">300,000</text><text y=".32em" transform="translate(-9,0) translate(60,152.9386830066731)">350,000</text><text y=".32em" transform="translate(-9,0) translate(60,116.2156377219121)">400,000</text><text y=".32em" transform="translate(-9,0) translate(60,79.49259243715115)">450,000</text></g><g aria-label="y-axis label" text-anchor="start"><text y=".71em" transform="translate(-57,-57) translate(60,60)">↑ Total Vestiges</text></g><g aria-label="x-axis tick" fill="none" stroke="currentColor"><path transform="translate(66.08571428571429,410)" d="M0,0L0,6"/><path transform="translate(128.97142857142856,410)" d="M0,0L0,6"/><path transform="translate(189.82857142857145,410)" d="M0,0L0,6"/><path transform="translate(252.7142857142857,410)" d="M0,0L0,6"/><path transform="translate(313.57142857142856,410)" d="M0,0L0,6"/><path transform="translate(376.45714285714286,410)" d="M0,0L0,6"/><path transform="translate(439.3428571428571,410)" d="M0,0L0,6"/><path transform="translate(500.2,410)" d="M0,0L0,6"/><path transform="translate(563.0857142857142,410)" d="M0,0L0,6"/><path transform="translate(623.9428571428572,410)" d="M0,0L0,6"/><path transform="translate(686.8285714285715,410)" d="M0,0L0,6"/><path transform="translate(749.7142857142857,410)" d="M0,0L0,6"/></g><g aria-label="x-axis tick label" font-variant="tabular-nums"><text transform="translate(0,9) translate(66.08571428571429,410)"><tspan x="0" y=".71em">Mar</tspan><tspan x="0" dy="1em">2023</tspan></text><text y=".71em" transform="translate(0,9) translate(128.97142857142856,410)">Apr</text><text y=".71em" transform="translate(0,9) translate(189.82857142857145,410)">May</text><text y=".71em" transform="translate(0,9) translate(252.7142857142857,410)">Jun</text><text y=".71em" transform="translate(0,9) translate(313.57142857142856,410)">Jul</text><text y=".71em" transform="translate(0,9) translate(376.45714285714286,410)">Aug</text><text y=".71em" transform="translate(0,9) translate(439.3428571428571,410)">Sep</text><text y=".71em" transform="translate(0,9) translate(500.2,410)">Oct</text><text y=".71em" transform="translate(0,9) translate(563.0857142857142,410)">Nov</text><text y=".71em" transform="translate(0,9) translate(623.9428571428572,410)">Dec</text><text transform="translate(0,9) translate(686.8285714285715,410)"><tspan x="0" y=".71em">Jan</tspan><tspan x="0" dy="1em">2024</tspan></text><text y=".71em" transform="translate(0,9) translate(749.7142857142857,410)">Feb</text></g><g aria-label="line" fill="none" stroke="currentColor" stroke-width="1.5" stroke-linejoin="round" stroke-linecap="round"><path d="M60,410L61.352,409.631L62.705,408.283L64.057,407.556L65.41,407.04L66.762,406.19L68.114,405.52L69.467,404.892L70.819,403.621L72.171,402.616L73.524,401.422L74.876,399.574L76.229,397.831L77.581,396.926L78.933,395.616L80.286,394.727L81.638,393.707L82.99,392.374L84.343,391.477L85.695,390.597L87.048,389.403L88.4,388.079L89.752,387.141L91.105,385.54L92.457,384.782L93.81,384.075L95.162,382.799L96.514,381.578L97.867,380.638L99.219,379.327L100.571,378.021L101.924,376.831L103.276,374.987L104.629,373.524L105.981,372.676L107.333,371.793L108.686,371.129L110.038,370.592L111.39,369.596L112.743,368.622L114.095,367.943L115.448,366.372L116.8,364.729L118.152,363.257L119.505,361.474L120.857,360.265L122.21,359.236L123.562,357.833L124.914,356.659L126.267,355.809L127.619,354.279L128.971,352.799L130.324,351.418L131.676,349.439L133.029,347.559L134.381,346.582L135.733,345.131L137.086,343.822L138.438,342.649L139.79,340.989L141.143,339.429L142.495,338.074L143.848,336.444L145.2,334.883L146.552,333.538L147.905,331.729L149.257,330.617L150.61,329.613L151.962,328.212L153.314,327.065L154.667,326.208L156.019,325.104L157.371,323.912L158.724,322.8L160.076,321.342L161.429,319.898L162.781,319.074L164.133,317.932L165.486,317.039L166.838,316.452L168.19,315.544L169.543,314.64L170.895,313.68L172.248,312.437L173.6,311.174L174.952,310.187L176.305,308.821L177.657,307.862L179.01,307.236L180.362,305.797L181.714,304.802L183.067,304.264L184.419,303.363L185.771,302.494L187.124,301.589L188.476,300.346L189.829,299.265L191.181,298.334L192.533,297.525L193.886,296.806L195.238,296.119L196.59,294.991L197.943,294.348L199.295,293.695L200.648,292.635L202,291.434L203.352,290.491L204.705,289.28L206.057,288.463L207.41,287.704L208.762,286.605L210.114,285.853L211.467,285.137L212.819,284.18L214.171,283.433L215.524,282.529L216.876,281.572L218.229,280.703L219.581,279.984L220.933,279.229L222.286,278.57L223.638,277.95L224.99,277.076L226.343,276.41L227.695,275.81L229.048,274.82L230.4,273.533L231.752,272.595L233.105,271.373L234.457,270.643L235.81,269.805L237.162,268.939L238.514,268.149L239.867,267.594L241.219,266.493L242.571,265.628L243.924,264.72L245.276,263.401L246.629,262.43L247.981,261.581L249.333,260.713L250.686,259.767L252.038,259.034L253.39,258.316L254.743,257.367L256.095,256.808L257.448,256.064L258.8,255.394L260.152,254.764L261.505,253.876L262.857,253.234L264.21,252.566L265.562,251.671L266.914,251.031L268.267,250.44L269.619,249.8L270.971,249.047L272.324,248.339L273.676,247.6L275.029,246.798L276.381,246.17L277.733,245.4L279.086,244.753L280.438,244.11L281.79,243.217L283.143,242.475L284.495,241.889L285.848,241.119L287.2,240.387L288.552,239.858L289.905,238.95L291.257,238.257L292.61,237.542L293.962,236.748L295.314,236.072L296.667,235.671L298.019,234.934L299.371,234.333L300.724,233.618L302.076,232.767L303.429,232.094L304.781,231.352L306.133,230.536L307.486,229.793L308.838,229.14L310.19,228.077L311.543,227.213L312.895,226.715L314.248,225.919L315.6,225.21L316.952,224.784L318.305,224.029L319.657,223.542L321.01,222.962L322.362,222.258L323.714,221.601L325.067,221.082L326.419,220.261L327.771,219.659L329.124,219.115L330.476,218.351L331.829,217.665L333.181,217.124L334.533,216.295L335.886,215.768L337.238,215.169L338.59,214.409L339.943,213.791L341.295,213.09L342.648,212.287L344,211.584L345.352,210.986L346.705,210.3L348.057,209.494L349.41,208.863L350.762,208.271L352.114,207.645L353.467,207.168L354.819,206.352L356.171,205.84L357.524,205.262L358.876,204.537L360.229,203.959L361.581,203.257L362.933,202.322L364.286,201.618L365.638,201.203L366.99,200.248L368.343,199.546L369.695,198.922L371.048,198.05L372.4,197.461L373.752,196.829L375.105,196.099L376.457,195.36L377.81,194.721L379.162,193.777L380.514,193.05L381.867,192.409L383.219,191.633L384.571,190.778L385.924,189.904L387.276,188.618L388.629,187.833L389.981,187.241L391.333,186.44L392.686,185.796L394.038,185.328L395.39,184.601L396.743,183.959L398.095,183.509L399.448,182.776L400.8,182.109L402.152,181.625L403.505,180.85L404.857,180.125L406.21,179.575L407.562,178.85L408.914,177.943L410.267,177.179L411.619,176.226L412.971,175.551L414.324,174.898L415.676,173.933L417.029,173.209L418.381,172.537L419.733,171.73L421.086,171.062L422.438,170.614L423.79,169.968L425.143,169.48L426.495,168.944L427.848,168.295L429.2,167.643L430.552,167.04L431.905,166.437L433.257,165.815L434.61,165.287L435.962,164.702L437.314,164.122L438.667,163.632L440.019,163.067L441.371,162.484L442.724,161.856L444.076,161.102L445.429,160.565L446.781,159.984L448.133,159.375L449.486,158.928L450.838,158.449L452.19,157.95L453.543,157.644L454.895,157.27L456.248,156.415L457.6,155.823L458.952,155.268L460.305,154.515L461.657,154.2L463.01,153.778L464.362,153.381L465.714,153.064L467.067,152.584L468.419,152.095L469.771,151.534L471.124,150.945L472.476,150.005L473.829,149.207L475.181,148.779L476.533,148.201L477.886,147.804L479.238,147.325L480.59,146.774L481.943,146.279L483.295,145.885L484.648,145.281L486,144.618L487.352,144.127L488.705,143.46L490.057,143.12L491.41,142.786L492.762,142.34L494.114,141.918L495.467,141.543L496.819,140.932L498.171,140.423L499.524,139.903L500.876,139.201L502.229,138.674L503.581,138.395L504.933,137.877L506.286,137.496L507.638,137.154L508.99,136.722L510.343,136.298L511.695,135.81L513.048,135.169L514.4,134.483L515.752,133.795L517.105,133.079L518.457,132.563L519.81,132.169L521.162,131.68L522.514,131.272L523.867,130.831L525.219,130.237L526.571,129.839L527.924,129.466L529.276,128.636L530.629,127.927L531.981,127.49L533.333,127.039L534.686,126.715L536.038,126.459L537.39,125.919L538.743,125.562L540.095,125.205L541.448,124.513L542.8,123.767L544.152,123.208L545.505,122.449L546.857,122.047L548.21,121.679L549.562,121.045L550.914,120.635L552.267,120.245L553.619,119.69L554.971,119.098L556.324,118.719L557.676,118.091L559.029,117.687L560.381,117.427L561.733,116.869L563.086,116.495L564.438,116.267L565.79,115.923L567.143,115.572L568.495,114.984L569.848,114.291L571.2,113.594L572.552,113.129L573.905,112.671L575.257,112.405L576.61,112.003L577.962,111.531L579.314,111.271L580.667,110.999L582.019,110.534L583.371,110.25L584.724,109.857L586.076,109.428L587.429,109.044L588.781,108.793L590.133,108.448L591.486,108.259L592.838,108.001L594.19,107.65L595.543,107.414L596.895,107.255L598.248,106.704L599.6,106.162L600.952,105.631L602.305,105.103L603.657,104.699L605.01,104.449L606.362,104.041L607.714,103.789L609.067,103.434L610.419,102.916L611.771,102.494L613.124,102.124L614.476,101.571L615.829,101.178L617.181,100.798L618.533,100.35L619.886,99.982L621.238,99.565L622.59,98.949L623.943,98.583L625.295,98.24L626.648,97.88L628,97.465L629.352,97.056L630.705,96.605L632.057,96.344L633.41,96.182L634.762,95.795L636.114,95.472L637.467,95.223L638.819,94.921L640.171,94.636L641.524,94.412L642.876,94.058L644.229,93.735L645.581,93.552L646.933,93.134L648.286,92.739L649.638,92.568L650.99,92.321L652.343,92.126L653.695,91.911L655.048,91.501L656.4,91.09L657.752,90.79L659.105,90.51L660.457,90.221L661.81,89.858L663.162,89.574L664.514,89.368L665.867,89.125L667.219,88.722L668.571,88.47L669.924,88.164L671.276,87.652L672.629,87.238L673.981,87.026L675.333,86.694L676.686,86.263L678.038,85.921L679.39,85.481L680.743,85.146L682.095,84.77L683.448,84.328L684.8,83.987L686.152,83.668L687.505,83.263L688.857,82.916L690.21,82.599L691.562,82.104L692.914,81.807L694.267,81.577L695.619,81.097L696.971,80.928L698.324,80.638L699.676,80.168L701.029,79.925L702.381,79.643L703.733,79.291L705.086,79.078L706.438,78.86L707.79,78.64L709.143,78.479L710.495,78.179L711.848,77.769L713.2,77.391L714.552,76.929L715.905,76.379L717.257,76.127L718.61,75.829L719.962,75.54L721.314,75.142L722.667,74.697L724.019,74.365L725.371,74.124L726.724,73.734L728.076,73.264L729.429,72.608L730.781,72.2L732.133,71.7L733.486,71.411L734.838,71.146L736.19,70.79L737.543,70.637L738.895,70.412L740.248,69.845L741.6,69.221L742.952,68.764L744.305,68.128L745.657,67.775L747.01,67.475L748.362,67.113L749.714,66.757L751.067,66.454L752.419,65.979L753.771,65.695L755.124,65.221L756.476,64.515L757.829,64.02L759.181,63.663L760.533,63.132L761.886,62.778L763.238,62.52L764.59,61.974L765.943,61.535L767.295,61.045L768.648,60.563L770,60"/></g></svg>