<svg class="plot-d6a7b5" fill="currentColor" font-family="system-ui, sans-serif" font-size="10" text-anchor="middle" width="830" height="470" viewBox="0 0 830 470" xmlns="http://www.w3.org/2000/svg" xmlns:xlink="http://www.w3.org/1999/xlink" color="#1e90ff"><style>:where(.plot-d6a7b5){--plot-background: white;display:block;height:intrinsic;max-width:100%}:where(.plot-d6a7b5 text),:where(.plot-d6a7b5 tspan){white-space:pre}</style><g aria-label="y-grid" stroke="currentColor" stroke-opacity=".1"><line x1="60" x2="770" y1="410" y2="410"/><line x1="60" x2="770" y1="374.949" y2="374.949"/><line x1="60" x2="770" y1="339.898" y2="339.898"/><line x1="60" x2="770" y1="304.848" y2="304.848"/><line x1="60" x2="770" y1="269.797" y2="269.797"/><line x1="60" x2="770" y1="234.746" y2="234.746"/><line x1="60" x2="770" y1="199.695" y2="199.695"/><line x1="60" x2="770" y1="164.644" y2="164.644"/><line x1="60" x2="770" y1="129.593" y2="129.593"/><line x1="60" x2="770" y1="94.543" y2="94.543"/></g><g aria-label="y-axis tick" fill="none" stroke="currentColor"><path transform="translate(60,410)" d="M0,0L-6,0"/><path transform="translate(60,374.9491763056432)" d="M0,0L-6,0"/><path transform="translate(60,339.8983526112864)" d="M0,0L-6,0"/><path transform="translate(60,304.84752891692955)" d="M0,0L-6,0"/><path transform="translate(60,269.79670522257277)" d="M0,0L-6,0"/><path transform="translate(60,234.74588152821593)" d="M0,0L-6,0"/><path transform="translate(60,199.6950578338591)" d="M0,0L-6,0"/><path transform="translate(60,164.64423413950226)" d="M0,0L-6,0"/><path transform="translate(60,129.59341044514548)" d="M0,0L-6,0"/><path transform="translate(60,94.54258675078864)" d="M0,0L-6,0"/></g><g aria-label="y-axis tick label" text-anchor="end" font-variant="tabular-nums"><text y=".32em" transform="translate(-9,0) translate(60,410)">0</text><text y=".32em" transform="translate(-9,0) translate(60,374.9491763056432)">50,000</text><text y=".32em" transform="translate(-9,0) translate(60,339.8983526112864)">100,000</text><text y=".32em" transform="translate(-9,0) translate(60,304.84752891692955)">150,000</text><text y=".32em" transform="translate(-9,0) translate(60,269.79670522257277)">200,000</text><text y=".32em" transform="translate(-9,0) translate(60,234.74588152821593)">250,000</text><text y=".32em" transform="translate(-9,0) translate(60,199.6950578338591)">300,000</text><text y=".32em" transform="translate(-9,0) translate(60,164.64423413950226)">350,000</text><text y=".32em" transform="translate(-9,0) translate(60,129.59341044514548)">400,000</text><text y=".32em" transform="translate(-9,0) translate(60,94.54258675078864)">450,000</text></g><g aria-label="y-axis label" text-anchor="start"><text y=".71em" transform="translate(-57,-57) translate(60,60)">↑ Total Vestiges</text></g><g aria-label="x-axis tick" fill="none" stroke="currentColor"><path transform="translate(65.65486725663716,410)" d="M0,0L0,6"/><path transform="translate(124.08849557522123,410)" d="M0,0L0,6"/><path transform="translate(180.6371681415929,410)" d="M0,0L0,6"/><path transform="translate(239.07079646017698,410)" d="M0,0L0,6"/><path transform="translate(295.6194690265487,410)" d="M0,0L0,6"/><path transform="translate(354.05309734513276,410)" d="M0,0L0,6"/><path transform="translate(412.4867256637168,410)" d="M0,0L0,6"/><path transform="translate(469.03539823008845,410)" d="M0,0L0,6"/><path transform="translate(527.4690265486727,410)" d="M0,0L0,6"/><path transform="translate(584.0176991150443,410)" d="M0,0L0,6"/><path transform="translate(642.4513274336283,410)" d="M0,0L0,6"/><path transform="translate(700.8849557522124,410)" d="M0,0L0,6"/><path transform="translate(755.5486725663718,410)" d="M0,0L0,6"/></g><g aria-label="x-axis tick label" font-variant="tabular-nums"><text transform="translate(0,9) translate(65.65486725663716,410)"><tspan x="0" y=".71em">Mar</tspan><tspan x="0" dy="1em">2023</tspan></text><text y=".71em" transform="translate(0,9) translate(124.08849557522123,410)">Apr</text><text y=".71em" transform="translate(0,9) translate(180.6371681415929,410)">May</text><text y=".71em" transform="translate(0,9) translate(239.07079646017698,410)">Jun</text><text y=".71em" transform="translate(0,9) translate(295.6194690265487,410)">Jul</text><text y=".71em" transform="translate(0,9) translate(354.05309734513276,410)">Aug</text><text y=".71em" transform="translate(0,9) translate(412.4867256637168,410)">Sep</text><text y=".71em" transform="translate(0,9) translate(469.03539823008845,410)">Oct</text><text y=".71em" transform="translate(0,9) translate(527.4690265486727,410)">Nov</text><text y=".71em" transform="translate(0,9) translate(584.0176991150443,410)">Dec</text><text transform="translate(0,9) translate(642.4513274336283,410)"><tspan x="0" y=".71em">Jan</tspan><tspan x="0" dy="1em">2024</tspan></text><text y=".71em" transform="translate(0,9) translate(700.8849557522124,410)">Feb</text><text y=".71em" transform="translate(0,9) translate(755.5486725663718,410)">Mar</text></g><g aria-label="line" fill="none" stroke="currentColor" stroke-width="1.5" stroke-linejoin="round" stroke-linecap="round"><path d="M60,410L61.257,409.648L62.513,408.361L63.77,407.667L65.027,407.175L66.283,406.363L67.54,405.724L68.796,405.124L70.053,403.912L71.31,402.952L72.566,401.813L73.823,400.048L75.08,398.385L76.336,397.521L77.593,396.271L78.85,395.422L80.106,394.449L81.363,393.177L82.619,392.32L83.876,391.481L85.133,390.341L86.389,389.077L87.646,388.182L88.903,386.654L90.159,385.931L91.416,385.256L92.673,384.038L93.929,382.872L95.186,381.975L96.442,380.724L97.699,379.477L98.956,378.341L100.212,376.581L101.469,375.185L102.726,374.376L103.982,373.533L105.239,372.899L106.496,372.386L107.752,371.436L109.009,370.506L110.265,369.858L111.522,368.358L112.779,366.791L114.035,365.386L115.292,363.684L116.549,362.53L117.805,361.547L119.062,360.208L120.319,359.088L121.575,358.277L122.832,356.816L124.088,355.403L125.345,354.086L126.602,352.196L127.858,350.402L129.115,349.469L130.372,348.085L131.628,346.836L132.885,345.716L134.142,344.131L135.398,342.642L136.655,341.349L137.912,339.794L139.168,338.304L140.425,337.02L141.681,335.293L142.938,334.231L144.195,333.273L145.451,331.936L146.708,330.842L147.965,330.024L149.221,328.97L150.478,327.832L151.735,326.771L152.991,325.38L154.248,324.001L155.504,323.215L156.761,322.124L158.018,321.272L159.274,320.712L160.531,319.845L161.788,318.982L163.044,318.066L164.301,316.88L165.558,315.674L166.814,314.733L168.071,313.429L169.327,312.513L170.584,311.915L171.841,310.542L173.097,309.593L174.354,309.079L175.611,308.219L176.867,307.389L178.124,306.526L179.381,305.34L180.637,304.308L181.894,303.419L183.15,302.646L184.407,301.961L185.664,301.305L186.92,300.228L188.177,299.614L189.434,298.991L190.69,297.98L191.947,296.833L193.204,295.933L194.46,294.777L195.717,293.997L196.973,293.273L198.23,292.224L199.487,291.506L200.743,290.822L202,289.91L203.257,289.196L204.513,288.334L205.77,287.42L207.027,286.591L208.283,285.904L209.54,285.184L210.796,284.555L212.053,283.963L213.31,283.129L214.566,282.494L215.823,281.921L217.08,280.976L218.336,279.748L219.593,278.852L220.85,277.686L222.106,276.988L223.363,276.189L224.619,275.363L225.876,274.608L227.133,274.079L228.389,273.028L229.646,272.203L230.903,271.335L232.159,270.076L233.416,269.15L234.673,268.339L235.929,267.511L237.186,266.608L238.442,265.908L239.699,265.223L240.956,264.318L242.212,263.783L243.469,263.074L244.726,262.434L245.982,261.832L247.239,260.985L248.496,260.373L249.752,259.735L251.009,258.88L252.265,258.27L253.522,257.706L254.779,257.095L256.035,256.376L257.292,255.7L258.549,254.995L259.805,254.23L261.062,253.63L262.319,252.895L263.575,252.278L264.832,251.664L266.088,250.812L267.345,250.103L268.602,249.544L269.858,248.809L271.115,248.111L272.372,247.606L273.628,246.739L274.885,246.077L276.142,245.395L277.398,244.637L278.655,243.992L279.912,243.609L281.168,242.906L282.425,242.332L283.681,241.649L284.938,240.838L286.195,240.195L287.451,239.487L288.708,238.708L289.965,237.999L291.221,237.376L292.478,236.361L293.735,235.536L294.991,235.061L296.248,234.301L297.504,233.625L298.761,233.218L300.018,232.498L301.274,232.032L302.531,231.479L303.788,230.807L305.044,230.18L306.301,229.685L307.558,228.901L308.814,228.327L310.071,227.807L311.327,227.078L312.584,226.423L313.841,225.907L315.097,225.116L316.354,224.613L317.611,224.041L318.867,223.315L320.124,222.726L321.381,222.056L322.637,221.29L323.894,220.619L325.15,220.048L326.407,219.394L327.664,218.624L328.92,218.022L330.177,217.457L331.434,216.859L332.69,216.404L333.947,215.625L335.204,215.137L336.46,214.585L337.717,213.893L338.973,213.341L340.23,212.671L341.487,211.779L342.743,211.107L344,210.711L345.257,209.8L346.513,209.129L347.77,208.533L349.027,207.701L350.283,207.139L351.54,206.536L352.796,205.839L354.053,205.134L355.31,204.524L356.566,203.623L357.823,202.929L359.08,202.318L360.336,201.577L361.593,200.761L362.85,199.926L364.106,198.699L365.363,197.95L366.619,197.385L367.876,196.62L369.133,196.005L370.389,195.559L371.646,194.864L372.903,194.252L374.159,193.823L375.416,193.123L376.673,192.486L377.929,192.024L379.186,191.284L380.442,190.593L381.699,190.067L382.956,189.375L384.212,188.51L385.469,187.781L386.726,186.871L387.982,186.226L389.239,185.604L390.496,184.683L391.752,183.992L393.009,183.35L394.265,182.58L395.522,181.942L396.779,181.515L398.035,180.898L399.292,180.433L400.549,179.921L401.805,179.301L403.062,178.679L404.319,178.103L405.575,177.528L406.832,176.934L408.088,176.43L409.345,175.872L410.602,175.319L411.858,174.851L413.115,174.311L414.372,173.755L415.628,173.155L416.885,172.436L418.142,171.923L419.398,171.368L420.655,170.787L421.912,170.361L423.168,169.904L424.425,169.427L425.681,169.136L426.938,168.778L428.195,167.962L429.451,167.397L430.708,166.867L431.965,166.149L433.221,165.848L434.478,165.445L435.735,165.066L436.991,164.763L438.248,164.306L439.504,163.839L440.761,163.303L442.018,162.741L443.274,161.844L444.531,161.082L445.788,160.674L447.044,160.123L448.301,159.743L449.558,159.286L450.814,158.76L452.071,158.287L453.327,157.912L454.584,157.335L455.841,156.702L457.097,156.234L458.354,155.597L459.611,155.273L460.867,154.954L462.124,154.528L463.381,154.125L464.637,153.767L465.894,153.185L467.15,152.699L468.407,152.203L469.664,151.532L470.92,151.029L472.177,150.763L473.434,150.268L474.69,149.905L475.947,149.578L477.204,149.166L478.46,148.761L479.717,148.296L480.973,147.684L482.23,147.029L483.487,146.372L484.743,145.689L486,145.196L487.257,144.82L488.513,144.354L489.77,143.964L491.027,143.543L492.283,142.977L493.54,142.597L494.796,142.24L496.053,141.448L497.31,140.771L498.566,140.354L499.823,139.924L501.08,139.614L502.336,139.37L503.593,138.855L504.85,138.514L506.106,138.174L507.363,137.513L508.619,136.801L509.876,136.267L511.133,135.543L512.389,135.159L513.646,134.808L514.903,134.203L516.159,133.811L517.416,133.439L518.673,132.909L519.929,132.344L521.186,131.982L522.442,131.383L523.699,130.998L524.956,130.75L526.212,130.217L527.469,129.86L528.726,129.642L529.982,129.314L531.239,128.979L532.496,128.418L533.752,127.756L535.009,127.091L536.265,126.648L537.522,126.21L538.779,125.956L540.035,125.572L541.292,125.122L542.549,124.874L543.805,124.615L545.062,124.17L546.319,123.899L547.575,123.525L548.832,123.115L550.088,122.748L551.345,122.509L552.602,122.179L553.858,121.999L555.115,121.753L556.372,121.418L557.628,121.192L558.885,121.041L560.142,120.515L561.398,119.997L562.655,119.491L563.912,118.987L565.168,118.601L566.425,118.362L567.681,117.973L568.938,117.732L570.195,117.394L571.451,116.899L572.708,116.497L573.965,116.144L575.221,115.616L576.478,115.241L577.735,114.878L578.991,114.45L580.248,114.099L581.504,113.701L582.761,113.113L584.018,112.764L585.274,112.436L586.531,112.093L587.788,111.696L589.044,111.306L590.301,110.876L591.558,110.627L592.814,110.472L594.071,110.103L595.327,109.795L596.584,109.556L597.841,109.269L599.097,108.996L600.354,108.782L601.611,108.445L602.867,108.136L604.124,107.962L605.381,107.563L606.637,107.186L607.894,107.023L609.15,106.787L610.407,106.601L611.664,106.395L612.92,106.004L614.177,105.612L615.434,105.326L616.69,105.058L617.947,104.782L619.204,104.436L620.46,104.165L621.717,103.968L622.973,103.736L624.23,103.352L625.487,103.111L626.743,102.819L628,102.33L629.257,101.936L630.513,101.733L631.77,101.416L633.027,101.005L634.283,100.679L635.54,100.258L636.796,99.938L638.053,99.579L639.31,99.158L640.566,98.833L641.823,98.528L643.08,98.141L644.336,97.81L645.593,97.508L646.85,97.035L648.106,96.751L649.363,96.532L650.619,96.074L651.876,95.912L653.133,95.635L654.389,95.188L655.646,94.955L656.903,94.686L658.159,94.351L659.416,94.147L660.673,93.939L661.929,93.729L663.186,93.575L664.442,93.288L665.699,92.897L666.956,92.536L668.212,92.096L669.469,91.571L670.726,91.331L671.982,91.046L673.239,90.77L674.496,90.39L675.752,89.966L677.009,89.648L678.265,89.419L679.522,89.046L680.779,88.598L682.035,87.971L683.292,87.582L684.549,87.105L685.805,86.829L687.062,86.576L688.319,86.236L689.575,86.09L690.832,85.876L692.088,85.334L693.345,84.739L694.602,84.303L695.858,83.696L697.115,83.359L698.372,83.072L699.628,82.726L700.885,82.387L702.142,82.098L703.398,81.644L704.655,81.373L705.912,80.921L707.168,80.247L708.425,79.775L709.681,79.434L710.938,78.927L712.195,78.59L713.451,78.343L714.708,77.822L715.965,77.403L717.221,76.935L718.478,76.475L719.735,75.938L720.991,75.222L722.248,74.444L723.504,74.02L724.761,73.578L726.018,72.934L727.274,72.496L728.531,72.168L729.788,71.746L731.044,71.389L732.301,71.029L733.558,70.452L734.814,69.947L736.071,69.739L737.327,69.289L738.584,68.904L739.841,68.458L741.097,68.02L742.354,67.758L743.611,67.373L744.867,66.797L746.124,66.266L747.381,65.911L748.637,65.367L749.894,65.094L751.15,64.745L752.407,64.351L753.664,64.095L754.92,63.79L756.177,63.387L757.434,63.066L758.69,62.742L759.947,62.142L761.204,61.807L762.46,61.521L763.717,61.264L764.973,61.024L766.23,60.706L767.487,60.409L768.743,60.226L770,60"/></g></svg>