<?xml version="1.0"?>
<svg xmlns="http://www.w3.org/2000/svg" xmlns:xlink="http://www.w3.org/1999/xlink" class="plot-d6a7b5" fill="currentColor" font-family="system-ui, sans-serif" font-size="10" text-anchor="middle" width="830" height="470" viewBox="0 0 830 470" color="#1e90ff">
  <style>:where(.plot-d6a7b5){--plot-background: white;display:block;height:intrinsic;max-width:100%}:where(.plot-d6a7b5 text),:where(.plot-d6a7b5 tspan){white-space:pre}</style>
  <g aria-label="y-grid" stroke="currentColor" stroke-opacity=".1">
    <line x1="60" x2="770" y1="410" y2="410"/>
    <line x1="60" x2="770" y1="378.557" y2="378.557"/>
    <line x1="60" x2="770" y1="347.114" y2="347.114"/>
    <line x1="60" x2="770" y1="315.671" y2="315.671"/>
    <line x1="60" x2="770" y1="284.227" y2="284.227"/>
    <line x1="60" x2="770" y1="252.784" y2="252.784"/>
    <line x1="60" x2="770" y1="221.341" y2="221.341"/>
    <line x1="60" x2="770" y1="189.898" y2="189.898"/>
    <line x1="60" x2="770" y1="158.455" y2="158.455"/>
    <line x1="60" x2="770" y1="127.012" y2="127.012"/>
    <line x1="60" x2="770" y1="95.568" y2="95.568"/>
    <line x1="60" x2="770" y1="64.125" y2="64.125"/>
  </g>
  <g aria-label="y-axis tick" fill="none" stroke="currentColor">
    <path transform="translate(60,410)" d="M0,0L-6,0"/>
    <path transform="translate(60,378.55684921661634)" d="M0,0L-6,0"/>
    <path transform="translate(60,347.11369843323274)" d="M0,0L-6,0"/>
    <path transform="translate(60,315.6705476498491)" d="M0,0L-6,0"/>
    <path transform="translate(60,284.2273968664655)" d="M0,0L-6,0"/>
    <path transform="translate(60,252.7842460830818)" d="M0,0L-6,0"/>
    <path transform="translate(60,221.34109529969817)" d="M0,0L-6,0"/>
    <path transform="translate(60,189.8979445163145)" d="M0,0L-6,0"/>
    <path transform="translate(60,158.45479373293085)" d="M0,0L-6,0"/>
    <path transform="translate(60,127.01164294954722)" d="M0,0L-6,0"/>
    <path transform="translate(60,95.56849216616357)" d="M0,0L-6,0"/>
    <path transform="translate(60,64.12534138277994)" d="M0,0L-6,0"/>
  </g>
  <g aria-label="y-axis tick label" text-anchor="end" font-variant="tabular-nums">
    <text y=".32em" transform="translate(-9,0) translate(60,410)">0</text>
    <text y=".32em" transform="translate(-9,0) translate(60,378.55684921661634)">5,000</text>
    <text y=".32em" transform="translate(-9,0) translate(60,347.11369843323274)">10,000</text>
    <text y=".32em" transform="translate(-9,0) translate(60,315.6705476498491)">15,000</text>
    <text y=".32em" transform="translate(-9,0) translate(60,284.2273968664655)">20,000</text>
    <text y=".32em" transform="translate(-9,0) translate(60,252.7842460830818)">25,000</text>
    <text y=".32em" transform="translate(-9,0) translate(60,221.34109529969817)">30,000</text>
    <text y=".32em" transform="translate(-9,0) translate(60,189.8979445163145)">35,000</text>
    <text y=".32em" transform="translate(-9,0) translate(60,158.45479373293085)">40,000</text>
    <text y=".32em" transform="translate(-9,0) translate(60,127.01164294954722)">45,000</text>
    <text y=".32em" transform="translate(-9,0) translate(60,95.56849216616357)">50,000</text>
    <text y=".32em" transform="translate(-9,0) translate(60,64.12534138277994)">55,000</text>
  </g>
  <g aria-label="y-axis label" text-anchor="start">
    <text y=".71em" transform="translate(-57,-57) translate(60,60)">&#x2191; Visible Vestiges (30 days)</text>
  </g>
  <g aria-label="x-axis tick" fill="none" stroke="currentColor">
    <path transform="translate(88.26697892271663,410)" d="M0,0L0,6"/>
    <path transform="translate(163.92271662763466,410)" d="M0,0L0,6"/>
    <path transform="translate(240.40983606557378,410)" d="M0,0L0,6"/>
    <path transform="translate(316.89695550351286,410)" d="M0,0L0,6"/>
    <path transform="translate(392.5526932084309,410)" d="M0,0L0,6"/>
    <path transform="translate(468.20843091334893,410)" d="M0,0L0,6"/>
    <path transform="translate(544.695550351288,410)" d="M0,0L0,6"/>
    <path transform="translate(621.1826697892271,410)" d="M0,0L0,6"/>
    <path transform="translate(696.007025761124,410)" d="M0,0L0,6"/>
  </g>
  <g aria-label="x-axis tick label" font-variant="tabular-nums">
    <text transform="translate(0,9) translate(88.26697892271663,410)">
      <tspan x="0" y=".71em">Apr</tspan>
      <tspan x="0" dy="1em">2023</tspan>
    </text>
    <text y=".71em" transform="translate(0,9) translate(163.92271662763466,410)">Jul</text>
    <text y=".71em" transform="translate(0,9) translate(240.40983606557378,410)">Oct</text>
    <text transform="translate(0,9) translate(316.89695550351286,410)">
      <tspan x="0" y=".71em">Jan</tspan>
      <tspan x="0" dy="1em">2024</tspan>
    </text>
    <text y=".71em" transform="translate(0,9) translate(392.5526932084309,410)">Apr</text>
    <text y=".71em" transform="translate(0,9) translate(468.20843091334893,410)">Jul</text>
    <text y=".71em" transform="translate(0,9) translate(544.695550351288,410)">Oct</text>
    <text transform="translate(0,9) translate(621.1826697892271,410)">
      <tspan x="0" y=".71em">Jan</tspan>
      <tspan x="0" dy="1em">2025</tspan>
    </text>
    <text y=".71em" transform="translate(0,9) translate(696.007025761124,410)">Apr</text>
  </g>
  <g aria-label="line" fill="none" stroke="currentColor" stroke-width="1.5" stroke-linejoin="round" stroke-linecap="round">
    <path d="M60,410L60.554,406.843L61.109,395.297L61.663,389.071L62.217,384.657L62.771,377.375L63.326,371.639L63.88,366.263L64.434,355.383L64.988,346.774L65.543,336.555L66.097,320.727L66.651,305.804L67.205,298.056L67.76,286.843L68.314,279.228L68.868,270.499L69.422,259.085L69.977,251.401L70.531,243.867L71.085,233.642L71.639,222.303L72.194,214.273L72.748,200.57L73.302,194.08L73.856,188.024L74.411,177.101L74.965,166.643L75.519,158.593L76.073,147.374L76.628,139.344L77.182,140.702L77.736,131.137L78.29,123.025L78.845,123.05L79.399,121.226L79.953,120.912L80.507,127.194L81.062,127.276L81.616,129.156L82.17,139.168L82.724,140.639L83.279,134.325L83.833,132.936L84.387,125.282L84.941,123.66L85.496,126.257L86.05,121.93L86.604,119.415L87.158,122.364L87.713,120.597L88.267,115.956L88.821,117.837L89.375,107.379L89.93,97.342L90.484,99.895L91.038,97.933L91.593,94.776L92.147,95.952L92.701,92.921L93.255,89.752L93.81,93.94L94.364,92.519L94.918,86.406L95.472,82.45L96.027,72.653L96.581,67.722L97.135,67.653L97.689,64L98.244,60L98.798,66.113L99.352,70.716L99.906,73.112L100.461,78.866L101.015,76.734L101.569,73.181L102.123,78.143L102.678,78.407L103.232,78.042L103.786,86.123L104.34,91.016L104.895,95.097L105.449,103.825L106.003,109.278L106.557,106.831L107.112,110.806L107.666,110.315L108.22,112.145L108.774,121L109.329,122.037L109.883,125.125L110.437,134.464L110.991,140.117L111.546,144.192L112.1,151.933L112.654,150.82L113.208,150.16L113.763,154.179L114.317,157.065L114.871,158.254L115.425,161.825L115.98,162.373L116.534,166.385L117.088,173.277L117.642,176.572L118.197,173.334L118.751,175.05L119.305,172.315L119.859,170.347L120.414,171.629L120.968,169.957L121.522,171.736L122.077,176.245L122.631,178.874L123.185,180.918L123.739,184.88L124.294,184.898L124.848,182.823L125.402,188.98L125.956,191.036L126.511,190.005L127.065,192.407L127.619,192.363L128.173,194.413L128.728,199.916L129.282,200.696L129.836,197.652L130.39,196.545L130.945,192.237L131.499,191.866L132.053,194.35L132.607,192.445L133.162,191.269L133.716,195.589L134.27,196.451L134.824,197.117L135.379,199.714L135.933,195.413L136.487,193.596L137.041,195.74L137.596,194.753L138.15,192.778L138.704,194.69L139.258,194.948L139.813,194.558L140.367,197.96L140.921,199.035L141.475,199.457L142.03,200.519L142.584,198.557L143.138,198.381L143.692,200.142L144.247,198.174L144.801,197.834L145.355,201.249L145.909,206.789L146.464,208.374L147.018,212.77L147.572,212.701L148.126,213.015L148.681,215.04L149.235,215.216L149.789,214.43L150.343,218.348L150.898,218.109L151.452,219.53L152.006,225.806L152.56,227.529L153.115,228.535L153.669,231.434L154.223,231.761L154.778,232.101L155.332,232.126L155.886,233.453L156.44,232.459L156.995,235.384L157.549,234.818L158.103,235.069L158.657,236.547L159.212,234.755L159.766,234.711L160.32,236.025L160.874,234.516L161.429,233.214L161.983,233.107L162.537,230.453L163.091,229.114L163.646,231.177L164.2,231.227L164.754,230.541L165.308,233.484L165.863,232.56L166.417,233.893L166.971,236.572L167.525,236.899L168.08,236.295L168.634,238.44L169.188,237.673L169.742,237.05L170.297,240.169L170.851,239.566L171.405,239.805L171.959,241.974L172.514,240.666L173.068,239.591L173.622,240.767L174.176,239.402L174.731,240.238L175.285,241.515L175.839,240.408L176.393,240.742L176.948,242.609L177.502,243.1L178.056,241.779L178.61,245.483L179.165,247.816L179.719,246.722L180.273,249.451L180.827,248.527L181.382,247.797L181.936,249.313L182.49,247.275L183.044,247.288L183.599,247.307L184.153,244.93L184.707,243.345L185.262,246.823L185.816,243.798L186.37,242.446L186.924,243.641L187.479,242.056L188.033,241.641L188.587,243.32L189.141,241.59L189.696,240.389L190.25,241.433L190.804,238.635L191.358,238.415L191.913,239.805L192.467,239.176L193.021,236.975L193.575,235.365L194.13,231.258L194.684,229.938L195.238,229.938L195.792,228.435L196.347,227.001L196.901,229.994L197.455,228.139L198.009,227.592L198.564,229.957L199.118,228.63L199.672,228.925L200.226,232.78L200.781,232.176L201.335,229.529L201.889,232.988L202.443,232.793L202.998,230.378L203.552,231.296L204.106,228.177L204.66,227.812L205.215,228.472L205.769,226.542L206.323,225.806L206.877,228.139L207.432,227.454L207.986,227.215L208.54,230.032L209.094,231.818L209.649,235.126L210.203,241.546L210.757,242.71L211.311,242.194L211.866,243.892L212.42,244.244L212.974,242.917L213.528,244.634L214.083,245.118L214.637,244.005L215.191,246.087L215.746,246.961L216.3,246.118L216.854,247.37L217.408,247.118L217.963,247.231L218.517,248.464L219.071,251.011L219.625,253.734L220.18,257.796L220.734,259.299L221.288,262.268L221.842,267.324L222.397,266.204L222.951,266.89L223.505,269.047L224.059,268.323L224.614,269.455L225.168,271.38L225.722,272.153L226.276,274.027L226.831,275.48L227.385,276.876L227.939,277.234L228.493,277.354L229.048,274.631L229.602,272.317L230.156,273.662L230.71,273.681L231.265,274.474L231.819,275.216L232.373,275.48L232.927,276.624L233.482,279.706L234.036,279.14L234.59,278.436L235.144,279.448L235.699,277.555L236.253,278.75L236.807,280.165L237.361,278.958L237.916,278.555L238.47,282.662L239.024,282.504L239.578,282.9L240.133,284.894L240.687,281.574L241.241,280.674L241.795,281.687L242.35,279.97L242.904,280.813L243.458,282.07L244.012,283.177L244.567,284.592L245.121,288.466L245.675,289.805L246.23,287.598L246.784,286.649L247.338,283.919L247.892,283.599L248.447,284.951L249.001,285.007L249.555,284.881L250.109,286.271L250.664,286.869L251.218,287.661L251.772,290.183L252.326,285.982L252.881,282.768L253.435,282.85L253.989,282.599L254.543,283.039L255.098,286.076L255.652,285.812L256.206,287.202L256.76,290.17L257.315,288.749L257.869,284.756L258.423,284.397L258.977,281.165L259.532,280.655L260.086,281.196L260.64,279.398L261.194,280.064L261.749,282.215L262.303,283.334L262.857,284.158L263.411,287.045L263.966,286.089L264.52,286.007L265.074,287.963L265.628,286.68L266.183,287.252L266.737,290.384L267.291,290.849L267.845,291.038L268.4,293.107L268.954,293.245L269.508,291.019L270.062,290.906L270.617,289.755L271.171,289.661L271.725,290.843L272.279,289.868L272.834,290.692L273.388,294.295L273.942,296.691L274.496,299.05L275.051,302.188L275.605,301.955L276.159,301.817L276.714,305.099L277.268,305.653L277.822,307.376L278.376,309.916L278.931,311.985L279.485,313.205L280.039,317.224L280.593,315.954L281.148,313.539L281.702,313.778L282.256,312.463L282.81,310.954L283.365,311.753L283.919,311.269L284.473,314.142L285.027,317.041L285.582,318.576L286.136,318.941L286.69,319.695L287.244,317.243L287.799,317.318L288.353,318.098L288.907,316.488L289.461,315.664L290.016,316.079L290.57,313.243L291.124,313.47L291.678,314.199L292.233,314.413L292.787,313.004L293.341,312.457L293.895,310.212L294.45,310.193L295.004,311.803L295.558,310.52L296.112,309.112L296.667,311.696L297.221,313.759L297.775,315.853L298.329,318.456L298.884,318.89L299.438,318.261L299.992,320.192L300.546,318.777L301.101,318.431L301.655,321.399L302.209,322.89L302.763,324.393L303.318,327.286L303.872,327.141L304.426,326.877L304.98,328.147L305.535,328.896L306.089,329.996L306.643,332.159L307.198,332.857L307.752,334.04L308.306,335.04L308.86,335.14L309.415,336.486L309.969,337.725L310.523,335.574L311.077,333.423L311.632,334.914L312.186,334.838L312.74,333.285L313.294,332.939L313.849,331.612L314.403,330.663L314.957,330.468L315.511,329.462L316.066,328.103L316.62,328.946L317.174,328.858L317.728,327.355L318.283,326.764L318.837,324.185L319.391,323.487L319.945,325.028L320.5,324.443L321.054,325.556L321.608,325.475L322.162,323.928L322.717,324.953L323.271,324.971L323.825,323.72L324.379,323.978L324.934,325.563L325.488,325.833L326.042,327.078L326.596,328.889L327.151,328.921L327.705,327.499L328.259,326.393L328.813,325.374L329.368,326.141L329.922,327.361L330.476,327.757L331.03,327.562L331.585,327.537L332.139,327.606L332.693,328.286L333.247,328.411L333.802,327.361L334.356,324.449L334.91,325.204L335.464,323.462L336.019,322.959L336.573,324.795L337.127,323.198L337.681,324.374L338.236,326.468L338.79,323.689L339.344,320.764L339.899,319.865L340.453,316.243L341.007,315.086L341.561,314.4L342.116,312.677L342.67,312.206L343.224,313.124L343.778,312.287L344.333,313.809L344.887,314.463L345.441,310.577L345.995,308.891L346.55,308.3L347.104,307.168L347.658,307.948L348.212,308.583L348.767,305.967L349.321,305.552L349.875,305.376L350.429,306.866L350.984,305.54L351.538,303.401L352.092,298.892L352.646,297.358L353.201,296.446L353.755,291.975L354.309,289.969L354.863,291.893L355.418,293.447L355.972,294.151L356.526,296.371L357.08,294.22L357.635,292.264L358.189,293.497L358.743,292.503L359.297,291.635L359.852,291.717L360.406,290.214L360.96,291.918L361.514,294.503L362.069,293.579L362.623,291.874L363.177,293.239L363.731,291.384L364.286,291.151L364.84,292.692L365.394,292.918L365.948,294.811L366.503,296.214L367.057,297.408L367.611,300.949L368.165,305.024L368.72,303.445L369.274,304.401L369.828,307.615L370.383,309.244L370.937,310.03L371.491,310.96L372.045,311.501L372.6,313.092L373.154,316.237L373.708,316.425L374.262,315.57L374.817,317.538L375.371,316.947L375.925,318.111L376.479,320.846L377.034,320.771L377.588,320.984L378.142,323.72L378.696,325.179L379.251,324.764L379.805,326.21L380.359,323.349L380.913,322.802L381.468,323.965L382.022,325.846L382.576,328.525L383.13,332.122L383.685,334.97L384.239,337.832L384.793,343.158L385.347,346.101L385.902,348.384L386.456,350.472L387.01,352.49L387.564,355.006L388.119,357.113L388.673,358.358L389.227,359.886L389.781,363.244L390.336,364.653L390.89,363.414L391.444,365.225L391.998,365.961L392.553,365.269L393.107,365.898L393.661,367.08L394.215,366.885L394.77,367.841L395.324,368.652L395.878,369.193L396.432,371.941L396.987,372.507L397.541,372.507L398.095,371.117L398.649,368.545L399.204,365.759L399.758,364.571L400.312,362.785L400.867,360.131L401.421,358.666L401.975,357.352L402.529,355.188L403.084,353.427L403.638,351.006L404.192,349.246L404.746,348.252L405.301,346.655L405.855,345.806L406.409,345.391L406.963,347.504L407.518,348.252L408.072,349.459L408.626,349.755L409.18,349.868L409.735,349.793L410.289,349.396L410.843,349.837L411.397,351.384L411.952,351.623L412.506,352.163L413.06,353.446L413.614,353.905L414.169,353.056L414.723,353.843L415.277,354.094L415.831,353.566L416.386,354.05L416.94,354.698L417.494,353.937L418.048,353.151L418.603,353.975L419.157,353.736L419.711,354.679L420.265,354.717L420.82,352.855L421.374,352.522L421.928,351.22L422.482,351.22L423.037,350.881L423.591,350.239L424.145,349.007L424.699,348.812L425.254,348.101L425.808,347.522L426.362,348.843L426.916,347.705L427.471,346.246L428.025,346.711L428.579,345.56L429.133,345.567L429.688,346.07L430.242,347.617L430.796,347.906L431.351,348.51L431.905,348.132L432.459,345.001L433.013,344.844L433.568,343.743L434.122,344.529L434.676,344.535L435.23,344.755L435.785,343.737L436.339,345.057L436.893,346.227L437.447,346.372L438.002,347.441L438.556,346.019L439.11,343.655L439.664,343.756L440.219,342.46L440.773,342.668L441.327,342.951L441.881,341.85L442.436,340.756L442.99,341.9L443.544,341.517L444.098,340.404L444.653,341.794L445.207,339.548L445.761,339.115L446.315,338.385L446.87,337.266L447.424,336.467L447.978,336.719L448.532,338.09L449.087,337.882L449.641,338.737L450.195,336.605L450.749,334.442L451.304,333.681L451.858,333.952L452.412,331.505L452.966,331.537L453.521,331.719L454.075,331.883L454.629,332.329L455.183,333.901L455.738,333.449L456.292,334.568L456.846,333.706L457.4,333.084L457.955,336.065L458.509,337.586L459.063,337.549L459.617,339.102L460.172,338.75L460.726,338.398L461.28,340.97L461.835,340.825L462.389,338.417L462.943,339.63L463.497,340.24L464.052,339.215L464.606,340.14L465.16,341.139L465.714,341.781L466.269,344.334L466.823,346.441L467.377,347.277L467.931,347.938L468.486,347.887L469.04,347.516L469.594,347.982L470.148,346.856L470.703,347.378L471.257,347.504L471.811,348.34L472.365,348.975L472.92,350.17L473.474,350.793L474.028,349.264L474.582,349.497L475.137,350.032L475.691,350.032L476.245,352.258L476.799,352.692L477.354,352.163L477.908,351.931L478.462,353.786L479.016,353.912L479.571,354.654L480.125,355.283L480.679,355.459L481.233,355.622L481.788,355.251L482.342,354.333L482.896,354.283L483.45,354.138L484.005,353.975L484.559,355.213L485.113,354.591L485.667,352.069L486.222,352.503L486.776,351.918L487.33,352.226L487.884,352.038L488.439,351.164L488.993,350.635L489.547,351.365L490.101,352.031L490.656,351.302L491.21,350.761L491.764,350.201L492.319,348.68L492.873,348.258L493.427,346.894L493.981,345.913L494.536,345.032L495.09,343.045L495.644,341.511L496.198,340.404L496.753,338.781L497.307,338.215L497.861,338.083L498.415,335.844L498.97,335.241L499.524,335.178L500.078,334.43L500.632,334.7L501.187,336.744L501.741,335.071L502.295,332.618L502.849,330.361L503.404,326.864L503.958,324.349L504.512,323.751L505.066,320.639L505.621,316.884L506.175,315.425L506.729,314.205L507.283,312.545L507.838,311.306L508.392,310.558L508.946,308.583L509.5,309.275L510.055,310.809L510.609,311.048L511.163,312.639L511.717,313.753L512.272,314.727L512.826,316.086L513.38,315.268L513.934,314.476L514.489,315.62L515.043,315.425L515.597,314.991L516.151,315.62L516.706,315.639L517.26,315.3L517.814,320.142L518.368,324.041L518.923,327.613L519.477,331.298L520.031,334.461L520.585,335.681L521.14,339.278L521.694,342.907L522.248,344.73L522.802,346.057L523.357,348.321L523.911,349.22L524.465,351.17L525.02,353.346L525.574,354.566L526.128,354.037L526.682,354.798L527.237,354.509L527.791,354.792L528.345,355.314L528.899,356.188L529.454,357.251L530.008,359.402L530.562,361.313L531.116,362.364L531.671,363.678L532.225,363.829L532.779,364.106L533.333,364.011L533.888,363.571L534.442,363.005L534.996,362.948L535.55,362.716L536.105,362.659L536.659,362.37L537.213,360.691L537.767,359.364L538.322,356.748L538.876,356.698L539.43,356.1L539.984,356.49L540.539,356.974L541.093,356.767L541.647,356.132L542.201,356.207L542.756,355.704L543.31,352.799L543.864,352.17L544.418,352.635L544.973,350.994L545.527,350.761L546.081,350.811L546.635,350.069L547.19,349.786L547.744,349.623L548.298,349.321L548.852,348.315L549.407,347.139L549.961,344.875L550.515,345.158L551.069,345.409L551.624,345.548L552.178,345.202L552.732,346.504L553.286,348.39L553.841,349.629L554.395,352.767L554.949,352.968L555.504,353.56L556.058,354.585L556.612,354.585L557.166,355.943L557.721,356.823L558.275,357.138L558.829,358.402L559.383,362.181L559.938,362.005L560.492,361.571L561.046,362.942L561.6,362.313L562.155,362.603L562.709,363.716L563.263,363.785L563.817,364.156L564.372,365.489L564.926,366.873L565.48,368.659L566.034,371.382L566.589,370.463L567.143,370.268L567.697,371.545L568.251,372.507L568.806,372.507L569.36,372.275L569.914,372.608L570.468,371.495L571.023,371.985L571.577,371.243L572.131,369.319L572.685,368.426L573.24,365.973L573.794,364.911L574.348,365.25L574.902,365.37L575.457,365.137L576.011,365.873L576.565,366.476L577.119,367.074L577.674,367.64L578.228,366.476L578.782,365.357L579.336,365.904L579.891,364.992L580.445,365.244L580.999,365.602L581.553,364.584L582.108,364.389L582.662,365.539L583.216,365.634L583.77,364.439L584.325,363.496L584.879,362.703L585.433,363.018L585.988,362.892L586.542,363.175L587.096,362.754L587.65,363.496L588.205,364.602L588.759,365.489L589.313,367.237L589.867,367.269L590.422,366.483L590.976,366.986L591.53,367.086L592.084,367.244L592.639,367.539L593.193,367.3L593.747,368.155L594.301,369.47L594.856,370.224L595.41,370.652L595.964,372.18L596.518,372.061L597.073,371.771L597.627,372.979L598.181,373.45L598.735,373.312L599.29,372.57L599.844,372.922L600.398,372.551L600.952,373.488L601.507,373.394L602.061,373.928L602.615,374.387L603.169,374.658L603.724,375.394L604.278,376.375L604.832,376.199L605.386,376.544L605.941,377.746L606.495,378.073L607.049,377.06L607.603,377.331L608.158,376.972L608.712,376.922L609.266,376.419L609.82,376.085L610.375,375.979L610.929,376.45L611.483,375.74L612.037,374.991L612.592,374.626L613.146,373.627L613.7,373.595L614.254,372.671L614.809,372.671L615.363,373.702L615.917,374.224L616.472,375.117L617.026,375.092L617.58,375.167L618.134,374.922L618.689,374.356L619.243,374.079L619.797,371.677L620.351,370.375L620.906,370.099L621.46,369.181L622.014,368.703L622.568,369.199L623.123,368.652L623.677,367.124L624.231,367.596L624.785,366.288L625.34,366.709L625.894,367.218L626.448,366.288L627.002,365.998L627.557,366.156L628.111,366.42L628.665,365.904L629.219,367.049L629.774,366.458L630.328,366.885L630.882,366.803L631.436,366.866L631.991,366.564L632.545,366.59L633.099,366.219L633.653,365.565L634.208,365.439L634.762,365.036L635.316,365.181L635.87,366.841L636.425,367.3L636.979,367.388L637.533,367.671L638.087,367.3L638.642,367.388L639.196,369.036L639.75,369.904L640.304,369.828L640.859,370.86L641.413,370.614L641.967,369.602L642.521,368.558L643.076,366.319L643.63,365.124L644.184,364.653L644.738,364.967L645.293,364.923L645.847,364.911L646.401,364.319L646.956,364.602L647.51,364.697L648.064,363.47L648.618,362.42L649.173,362.533L649.727,362.395L650.281,362.118L650.835,362.873L651.39,362.672L651.944,362.024L652.498,361.339L653.052,361.433L653.607,361.653L654.161,362.508L654.715,362.546L655.269,362.206L655.824,363.37L656.378,362.577L656.932,362.892L657.486,362.986L658.041,362.873L658.595,363.873L659.149,364.898L659.703,365.118L660.258,364.904L660.812,364.854L661.366,363.489L661.92,363.489L662.475,363.942L663.029,362.879L663.583,362.408L664.137,363.143L664.692,362.961L665.246,362.886L665.8,363.47L666.354,363.03L666.909,363.118L667.463,362.206L668.017,362.898L668.571,363.03L669.126,362.653L669.68,362.98L670.234,362.93L670.788,362.728L671.343,360.93L671.897,358.59L672.451,358.955L673.005,357.446L673.56,357.408L674.114,357.521L674.668,356.333L675.222,356.49L675.777,356.823L676.331,356.477L676.885,356.716L677.44,357.635L677.994,357.458L678.548,357.163L679.102,357.911L679.657,357.622L680.211,357.936L680.765,358.641L681.319,357.452L681.874,356.93L682.428,357.792L682.982,358.062L683.536,359.2L684.091,359.288L684.645,360.351L685.199,361.471L685.753,361.829L686.308,361.534L686.862,362.307L687.416,364.357L687.97,365.892L688.525,366.47L689.079,367.841L689.633,367.678L690.187,368.646L690.742,370.011L691.296,371.218L691.85,371.149L692.404,372.155L692.959,371.834L693.513,372.784L694.067,373.488L694.621,373.023L695.176,373.369L695.73,373.777L696.284,374.501L696.838,375.174L697.393,375.985L697.947,376.809L698.501,377.004L699.055,377.733L699.61,378.085L700.164,378.922L700.718,379.236L701.272,379.431L701.827,378.871L702.381,378.808L702.935,378.148L703.489,378.576L704.044,379.054L704.598,379.657L705.152,380.33L705.706,381.814L706.261,381.494L706.815,382.047L707.369,381.946L707.923,383.443L708.478,383.512L709.032,384.355L709.586,383.77L710.141,384.179L710.695,385.701L711.249,386.292L711.803,386.455L712.358,385.965L712.912,386.059L713.466,386.87L714.02,387.128L714.575,387.506L715.129,387.367L715.683,388.046L716.237,388.204L716.792,388.581L717.346,388.399L717.9,389.669L718.454,390.713L719.009,391.92L719.563,392.04L720.117,392.643L720.671,393.121L721.226,393.323L721.78,393.417L722.334,394.524L722.888,395.077L723.443,395.467L723.997,395.624L724.551,396.027L725.105,396.731L725.66,397.423L726.214,397.322L726.768,397.366L727.322,397.574L727.877,397.699L728.431,398.429L728.985,398.945L729.539,399.265L730.094,399.441L730.648,399.479L731.202,399.794L731.756,399.926L732.311,399.976L732.865,400.246L733.419,400.699L733.973,400.347L734.528,400.328L735.082,400.146L735.636,399.875L736.19,399.309L736.745,398.989L737.299,398.731L737.853,398.353L738.407,398.303L738.962,398.127L739.516,398.039L740.07,397.926L740.625,397.372L741.179,396.567L741.733,396.53L742.287,396.165L742.842,396.354L743.396,396.36L743.95,397.077L744.504,396.775L745.059,395.951L745.613,396.064L746.167,395.624L746.721,395.404L747.276,395.171L747.83,394.932L748.384,394.907L748.938,394.706L749.493,394.555L750.047,394.354L750.601,394.165L751.155,393.756L751.71,393.763L752.264,394.373L752.818,394.115L753.372,394.203L753.927,394.461L754.481,394.599L755.035,394.794L755.589,395.197L756.144,395.127L756.698,395.492L757.252,396.121L757.806,396.215L758.361,396.794L758.915,396.901L759.469,396.957L760.023,396.945L760.578,397.385L761.132,397.957L761.686,397.92L762.24,398.498L762.795,398.316L763.349,398.114L763.903,398.102L764.457,397.8L765.012,397.46L765.566,397.266L766.12,397.643L766.674,397.731L767.229,397.844L767.783,397.957L768.337,397.787L768.891,398.001L769.446,397.498L770,397.611"/>
  </g>
</svg>
