<svg xmlns="http://www.w3.org/2000/svg" width="830" height="470" fill="currentColor" class="plot-d6a7b5" font-family="system-ui, sans-serif" font-size="10" style="--plot-background:white;display:block;height:intrinsic;max-width:100%;color:#1e90ff" text-anchor="middle" viewBox="0 0 830 470">
    <style>
        :where(.plot-d6a7b5 text),:where(.plot-d6a7b5 tspan){white-space:pre}
    </style>
    <path stroke="currentColor" stroke-opacity=".1" d="
M60
410
h710
M60
360.939
h710
M60
311.878
h710
M60
262.817
h710
m-710
-49.06
h710
M60
164.696
h710
M60
115.635
h710
M60
66.574
h710" aria-hidden="true" aria-label="y-grid"/>
    <path fill="none" stroke="currentColor" d="
M60
410
h-6
m6
-49.06
h-6
m6
-49.062
h-6
m6
-49.061
h-6
m6
-49.06
h-6
m6
-49.061
h-6
m6
-49.061
h-6
m6
-49.061
h-6" aria-hidden="true" aria-label="y-axis tick"/>
    <g aria-label="y-axis tick label" font-variant="tabular-nums" text-anchor="end">
        <text y=".32em" transform="translate(51 410)">0</text>
        <text y=".32em" transform="translate(51 360.94)">1,000</text>
        <text y=".32em" transform="translate(51 311.878)">2,000</text>
        <text y=".32em" transform="translate(51 262.817)">3,000</text>
        <text y=".32em" transform="translate(51 213.757)">4,000</text>
        <text y=".32em" transform="translate(51 164.696)">5,000</text>
        <text y=".32em" transform="translate(51 115.635)">6,000</text>
        <text y=".32em" transform="translate(51 66.574)">7,000</text>
    </g>
    <text y=".71em" aria-label="y-axis label" text-anchor="start" transform="translate(3 3)">↑ Visible Vestiges (4 days)</text>
    <path fill="none" stroke="currentColor" d="
M84.044
410
v6
m64.352
-6
v6
m65.06
-6
v6
m65.06
-6
v6
m64.353
-6
v6
m64.352
-6
v6
m65.059
-6
v6
m65.06
-6
v6
m63.646
-6
v6
m64.353
-6
v6
m65.059
-6
v6" aria-hidden="true" aria-label="x-axis tick"/>
    <g aria-label="x-axis tick label" font-variant="tabular-nums">
        <text transform="translate(84.044 419)"><tspan x="0" y=".71em">Apr</tspan><tspan x="0" dy="1em">2023</tspan></text>
        <text y=".71em" transform="translate(148.396 419)">Jul</text>
        <text y=".71em" transform="translate(213.456 419)">Oct</text>
        <text transform="translate(278.516 419)"><tspan x="0" y=".71em">Jan</tspan><tspan x="0" dy="1em">2024</tspan></text>
        <text y=".71em" transform="translate(342.869 419)">Apr</text>
        <text y=".71em" transform="translate(407.221 419)">Jul</text>
        <text y=".71em" transform="translate(472.28 419)">Oct</text>
        <text transform="translate(537.34 419)"><tspan x="0" y=".71em">Jan</tspan><tspan x="0" dy="1em">2025</tspan></text>
        <text y=".71em" transform="translate(600.986 419)">Apr</text>
        <text y=".71em" transform="translate(665.339 419)">Jul</text>
        <text y=".71em" transform="translate(730.398 419)">Oct</text>
    </g>
    <path fill="none" stroke="currentColor" stroke-linecap="round" stroke-linejoin="round" stroke-width="1.5" d="
m60
410
.471
-24.629
.472
-90.075
.471
-48.57
.472
-9.813
.471
33.264
.472
3.826
.471
-7.506
.472
-28.063
.471
-22.421
.471
-37.776
.472
-38.611
.471
-49.257
.472
19.281
.471
36.01
.472
57.009
.471
-7.654
.472
-1.57
.471
-.539
.472
9.321
.471
9.273
.471
-28.504
.472
-3.876
.471
-27.131
.472
37.826
.471
15.405
.472
21.685
.471
-30.957
.472
-15.553
.471
-2.306
.471
-5.691
.472
-16.68
.471
-35.668
.472
-10.449
.471
22.862
.472
64.22
.471
53.33
.472
20.752
.471
-7.555
.471
-20.655
.472
-9.517
.471
-38.415
.472
-44.645
.471
-52.937
.472
-14.179
.471
28.946
.472
29.535
.471
25.413
.471
2.355
.472
12.02
.471
-8.536
.472
-20.459
.471
-35.471
.472
-29.976
L85.458
60
l.472
26.934
.471
35.324
.472
38.12
.471
-13.05
.471
-14.031
.472
-16.779
.471
-12.167
.472
2.11
.471
-.099
.472
.687
.471
-12.02
.472
29.977
.471
22.764
.471
27.278
.472
-2.257
.471
9.812
.472
19.772
.471
-3.042
.472
-16.975
.471
-23.599
.472
-16.876
.471
19.231
.471
21.047
.472
36.894
.471
15.798
.472
15.65
.471
-.785
.472
-24.923
.471
-22.322
.472
-23.991
.471
-1.766
.471
-8.242
.472
20.311
.471
24.04
.472
-4.858
.471
-2.354
.472
5.887
.471
35.912
.472
8.39
.471
-24.482
.472
-22.813
.471
-14.178
.471
-1.767
.472
28.946
.471
24.236
.472
16.289
.471
-21.293
.472
5.053
.471
2.306
.472
4.563
.471
-37.335
.471
-19.33
.472
-10.156
.471
25.708
.472
12.265
.471
7.506
.472
4.318
.471
2.845
.472
9.567
.471
.295
.471
-12.511
.472
-.049
.471
-8.095
.472
12.265
.471
13.541
.472
14.031
.471
6.624
.472
-7.997
.471
-.442
.471
1.374
.472
-7.752
.471
-41.505
.472
-22.617
.471
-15.455
.472
37.14
.471
6.721
.472
23.794
.471
-3.974
.472
18.889
.471
-15.749
.471
-4.955
.472
-23.598
.471
-14.571
.472
-7.114
.471
3.974
.472
30.172
.471
1.619
.472
7.752
.471
10.008
.471
-.147
.472
11.579
.471
-1.718
.472
18.595
.471
-4.71
.472
-9.665
.471
1.962
.472
-2.551
.471
-.491
.471
.098
.472
5.152
.471
17.073
.472
-7.604
.471
-7.801
.472
-6.623
.471
-3.189
.472
5.298
.471
-2.06
.472
10.303
.471
-.982
.471
-8.193
.472
-6.378
.471
3.827
.472
8.193
.471
.736
.472
3.827
.471
-9.273
.472
2.552
.471
-12.413
.471
7.654
.472
1.177
.471
20.9
.472
3.827
.471
5.004
.472
-20.949
.471
-7.604
.472
-4.857
.471
-1.767
.471
2.306
.472
-4.661
.471
5.986
.472
-16.534
.471
-8.095
.472
10.303
.471
17.907
.472
10.401
.471
4.808
.471
2.698
.472
14.768
.471
-10.254
.472
3.385
.471
-11.284
.472
4.023
.471
-7.8
.472
3.679
.471
-1.668
.472
3.827
.471
-5.691
.471
.245
.472
-4.317
.471
10.646
.472
-3.925
.471
4.563
.472
-6.035
.471
-6.819
.472
-2.846
.471
-5.691
.471
6.918
.472
7.8
.471
-6.917
.472
-2.208
.471
6.28
.472
12.069
.471
10.303
.472
-15.013
.471
7.654
.471
-6.771
.472
6.084
.471
-4.465
.472
-8.291
.471
-13.933
.472
-8.439
.471
19.183
.472
-1.374
.471
.147
.471
-13.982
.472
5.544
.471
7.555
.472
-.539
.471
9.517
.472
-10.057
.471
-.393
.472
-14.374
.471
.834
.472
-.148
.471
11.235
.471
-8.536
.472
-15.602
.471
-34.048
.472
4.661
.471
18.839
.472
32.381
.471
9.419
.472
8.341
.471
4.906
.471
.147
.472
1.177
.471
-.343
.472
-1.717
.471
-2.306
.472
-2.797
.471
-3.777
.472
-4.465
.471
3.336
.471
-12.167
.472
-14.276
.471
-15.258
.472
15.454
.471
7.506
.472
-.785
.471
-3.287
.472
-1.325
.471
10.548
.471
3.729
.472
15.013
.471
10.744
.472
12.069
.471
-5.936
.472
-.197
.471
-10.989
.472
-4.465
.471
3.091
.472
2.012
.471
5.053
.471
1.177
.472
2.846
.471
2.502
.472
1.325
.471
-.197
.472
-9.272
.471
-12.56
.472
2.993
.471
3.189
.471
9.665
.472
6.083
.471
6.82
.472
7.31
.471
9.42
.472
6.966
.471
-23.745
.472
-19.134
.471
-12.069
.471
6.82
.472
18.496
.471
8.929
.472
23.745
.471
-.147
.472
-3.876
.471
-6.133
.472
-16.288
.471
-7.31
.472
-30.123
.471
-15.798
.471
10.745
.472
24.236
.471
26.738
.472
-3.385
.471
1.717
.472
-6.525
.471
5.691
.472
-3.484
.471
-11.235
.471
-6.476
.472
-4.268
.471
21.636
.472
10.45
.471
14.767
.472
-5.495
.471
-2.747
.472
-10.941
.471
-5.838
.471
-9.665
.472
-6.181
.471
-1.178
.472
16.092
.471
12.363
.472
9.714
.471
-4.219
.472
5.74
.471
-2.845
.471
-9.714
.472
-13.983
.471
-17.514
.472
-13.394
.471
-5.004
.472
11.333
.471
19.673
.472
15.209
.471
7.212
.472
-3.189
.471
-7.016
.471
.687
.472
4.563
.471
-15.798
.472
-20.801
.471
-4.269
.472
25.316
.471
25.757
.472
12.118
.471
-5.937
.471
-2.257
.472
-6.721
.471
-10.204
.472
-25.905
.471
-13.589
.472
-4.416
.471
22.961
.472
12.755
.471
8.341
.471
-.54
.472
-1.423
.471
5.25
.472
-12.167
.471
.736
.472
-4.857
.471
12.608
.472
7.948
.471
4.661
.471
1.913
.472
2.159
.471
14.326
.472
1.57
.471
-24.089
.472
-23.353
.471
-23.108
.472
8.291
.471
15.7
.472
28.75
.471
4.17
.471
-.883
.472
.441
.471
8.684
.472
.392
.471
-1.619
.472
-8.046
.471
2.453
.472
-6.721
.471
9.469
.471
5.593
.472
13.099
.471
-.54
.472
-.343
.471
-3.189
.472
6.672
.471
-13.442
.472
-20.41
.471
-24.825
.471
1.57
.472
9.224
.471
18.692
.472
8.046
.471
10.107
.472
-6.967
.471
-7.359
.472
-11.284
.471
-1.03
.471
-2.355
.472
1.913
.471
-.687
.472
7.016
.471
1.668
.472
-2.453
.471
-11.186
.472
.147
.471
4.906
.472
17.073
.471
-3.287
.471
-4.366
.472
-6.084
.471
10.303
.472
16.485
.471
4.317
.472
-4.17
.471
-5.838
.472
5.691
.471
2.502
.471
1.717
.472
-3.483
.471
-2.552
.472
2.797
.471
-4.318
.472
-4.758
.471
.735
.472
11.383
.471
13.393
.471
-2.943
.472
-10.843
.471
-14.473
.472
-5.642
.471
8.635
.472
8.193
.471
-4.219
.472
-.246
.471
5.544
.471
7.997
.472
-7.948
.471
-3.09
.472
-4.22
.471
-7.261
.472
-10.793
.471
6.28
.472
12.02
.471
-1.178
.472
-8.634
.471
-7.262
.471
6.427
.472
-2.305
.471
-.049
.472
-.393
.471
3.778
.472
2.404
.471
-.393
.472
.196
.471
-6.034
.471
3.336
.472
5.789
.471
1.08
.472
8.487
.471
-4.023
.472
.687
.471
-4.906
.472
.54
.471
7.849
.471
2.012
.472
4.268
.471
8.782
.472
3.483
.471
-5.494
.472
-12.658
.471
-14.522
.472
-10.744
.471
-9.371
.472
8.438
.471
10.892
.471
17.466
.472
-9.813
.471
-9.763
.472
-2.943
.471
10.597
.472
3.581
.471
-9.125
.472
-27.818
.471
-1.128
.471
-2.061
.472
24.58
.471
9.518
.472
9.616
.471
9.076
.472
2.698
.471
-14.129
.472
-31.448
.471
-15.504
.471
-4.562
.472
18.054
.471
10.45
.472
18.3
.471
-.147
.472
-.148
.471
-7.604
.472
4.808
.471
-11.431
.471
-15.356
.472
-14.13
.471
7.752
.472
11.676
.471
9.469
.472
6.623
.471
-.981
.472
-5.74
.471
-15.454
.472
4.219
.471
-8.242
.471
-17.368
.472
-22.224
.471
7.899
.472
19.182
.471
9.371
.472
-.981
.471
7.997
.472
15.552
.471
5.642
.471
-2.257
.472
-10.842
.471
-10.303
.472
10.597
.471
8.88
.472
8.34
.471
-16.582
.472
.834
.471
8.635
.471
4.17
.472
-9.616
.471
-18.84
.472
2.159
.471
2.208
.472
18.103
.471
.393
.472
10.499
.471
1.128
.471
3.14
.472
-.687
.471
-4.513
.472
-1.374
.471
-13.737
.472
-.981
.471
2.649
.472
24.04
.471
6.672
.472
-2.257
.471
-2.845
.471
4.023
.472
6.427
.471
-13.05
.472
-8.488
.471
-.294
.472
2.256
.471
-.834
.472
6.82
.471
12.658
.471
-3.238
.472
-9.616
.471
-6.869
.472
-2.747
.471
-7.85
.472
-15.601
.471
-.638
.472
8.291
.471
38.12
.471
28.309
.472
18.299
.471
3.042
.472
.049
.471
-.245
.472
-.246
.471
-1.864
.472
-1.226
.471
-.54
.471
-.442
.472
-2.698
.471
-2.011
.472
-1.276
.471
-3.287
.472
-7.212
.471
-21.881
.472
-9.812
.471
-6.084
.472
11.088
.471
3.434
.471
.245
.472
-5.74
.471
-4.317
.472
-5.642
.471
-2.11
.472
-1.619
.471
-2.551
.472
4.072
.471
5.838
.471
3.827
.472
-3.434
.471
4.612
.472
6.181
.471
.785
.472
-2.404
.471
1.816
.472
2.6
.471
-2.846
.471
-9.076
.472
.442
.471
3.973
.472
5.152
.471
3.827
.472
-2.699
.471
7.065
.472
2.649
.471
6.574
.472
-3.09
.471
-1.521
.471
-9.763
.472
-11.137
.471
-1.766
.472
7.015
.471
2.846
.472
-.834
.471
-4.612
.472
5.789
.471
-5.004
.471
-.049
.472
-5.053
.471
7.114
.472
3.826
.471
3.876
.472
-4.219
.471
-8.095
.472
3.974
.471
1.226
.471
4.416
.472
-5.691
.471
-8.684
.472
-4.808
.471
-6.623
.472
11.823
.471
7.016
.472
7.801
.471
-3.042
.471
-1.962
.472
-2.061
.471
-4.661
.472
.687
.471
-5.102
.472
.147
.471
-3.827
.472
-.932
.471
6.82
.472
6.083
.471
16.043
.471
2.159
.472
-4.269
.471
-7.898
.472
-22.863
.471
-2.06
.472
-9.862
.471
22.47
.472
5.25
.471
11.529
.471
-9.665
.472
4.563
.471
-1.276
.472
4.268
.471
-8.585
.472
-8.39
.471
-12.559
.472
.245
.471
-2.06
.471
18.103
.472
-.638
.471
-3.14
.472
-9.468
.471
1.619
.472
5.74
.471
-3.974
.472
.981
.471
-7.703
.471
11.383
.472
-.491
.471
10.941
.472
-7.114
.471
-.246
.472
-3.434
.471
2.551
.472
-5.151
.471
-4.857
.472
-10.008
.471
-1.08
.471
9.076
.472
2.355
.471
4.906
.472
3.582
.471
11.774
.472
-5.151
.471
-1.717
.472
-4.563
.471
3.189
.471
-.883
.472
-1.962
.471
11.382
.472
9.125
.471
6.182
.472
-5.397
.471
-18.594
.472
-1.472
.471
.246
.471
13.001
.472
-16.534
.471
.344
.472
-1.227
.471
10.548
.472
-5.691
.471
5.593
.472
7.85
.471
7.85
.471
-1.374
.472
.441
.471
-5.691
.472
-14.473
.471
-4.513
.472
2.06
.471
3.385
.472
1.816
.471
-4.367
.472
10.745
.471
4.072
.471
7.457
.472
-3.631
.471
-5.494
.472
1.619
.471
5.494
.472
6.526
.471
-3.042
.472
-2.257
.471
-3.876
.471
-6.181
.472
-5.446
.471
5.446
.472
6.377
.471
.982
.472
-5.299
.471
1.079
.472
.049
.471
-.686
.471
-3.042
.472
2.208
.471
.196
.472
-4.416
.471
-8.242
.472
-16.337
.471
-2.895
.472
2.11
.471
17.711
.472
5.887
.471
1.815
.471
.933
.472
3.532
.471
6.525
.472
.049
.471
-4.415
.472
-3.042
.471
-9.224
.472
-1.324
.471
-10.156
.471
-1.962
.472
-9.027
.471
.588
.472
2.061
.471
-.785
.472
-2.453
.471
8.635
.472
7.653
.471
-5.495
.471
-3.336
.472
2.747
.471
11.824
.472
2.404
.471
8.193
.472
-23.549
.471
-24.138
.472
-31.448
.471
3.483
.471
5.397
.472
14.767
.471
3.925
.472
-6.132
.471
-.197
.472
14.817
.471
11.922
.472
-1.325
.471
-5.544
.472
-3.778
.471
4.907
.471
15.846
.472
8.242
.471
7.605
.472
-1.227
.471
4.955
.472
-4.268
.471
-6.427
.472
-6.132
.471
-7.163
.471
1.521
.472
5.543
.471
7.801
.472
4.072
.471
8.929
.472
9.322
.471
6.132
.472
-.932
.471
-5.544
.471
-.343
.472
-3.581
.471
3.238
.472
-2.503
.471
4.514
.472
-2.895
.471
1.276
.472
-8.537
.471
-.686
.471
-4.465
.472
7.408
.471
-3.483
.472
-2.797
.471
-4.17
.472
5.103
.471
3.09
.472
4.808
.471
-.343
.472
6.574
.471
.932
.471
1.423
.472
-.981
.471
-5.937
.472
-1.962
.471
-2.061
.472
4.71
.471
-.441
.472
-.638
.471
-3.925
.471
3.631
.472
-5.397
.471
-8.046
.472
-12.412
.471
-13.639
.472
9.812
.471
6.966
.472
14.915
.471
3.483
.471
-1.423
.472
-.588
.471
-6.673
.472
-5.102
.471
-21.881
.472
-.392
.471
10.646
.472
14.669
.471
2.747
.471
3.336
.472
7.948
.471
1.031
.472
-2.65
.471
-2.502
.472
-7.604
.471
-9.96
.472
-10.597
.471
9.616
.472
10.499
.471
14.817
.471
-1.276
.472
2.797
.471
5.592
.472
-.049
.471
.687
.472
-3.336
.471
1.913
.472
-1.569
.471
1.913
.471
4.563
.472
-1.718
.471
-4.219
.472
-5.838
.471
.736
.472
-4.219
.471
-2.601
.472
-4.121
.471
-.785
.471
8.978
.472
5.937
.471
6.476
.472
-2.012
.471
-.785
.472
2.65
.471
1.079
.472
.245
.471
-8.34
.472
-4.955
.471
3.532
.471
13.394
.472
4.317
.471
-6.181
.472
-4.956
.471
-7.997
.472
2.306
.471
-6.476
.472
-7.899
.471
-8.88
.471
-8.781
.472
5.004
.471
5.396
.472
14.228
.471
7.212
.472
-1.128
.471
1.177
.472
2.355
.471
-2.11
.471
-4.808
.472
-7.457
.471
6.329
.472
-.049
.471
9.91
.472
1.178
.471
.245
.472
-3.238
.471
-2.159
.471
3.729
.472
-4.268
.471
-2.944
.472
-2.6
.471
5.593
.472
1.423
.471
.392
.472
-3.434
.471
.294
.472
-1.472
.471
1.325
.471
-.932
.472
-3.385
.471
-7.654
.472
4.514
.471
7.751
.472
6.231
.471
-.442
.472
-.294
.471
3.336
.471
3.14
.472
.295
.471
2.992
.472
1.619
.471
3.091
.472
-4.415
.471
-2.257
.472
1.373
.471
-.981
.471
-11.48
.472
-5.2
.471
-4.759
.472
10.499
.471
2.109
.472
8.488
.471
-3.336
.472
-.589
.471
1.864
.471
2.601
.472
-2.159
.471
-3.974
.472
-1.668
.471
-3.729
.472
-6.083
.471
.49
.472
.883
.471
7.065
.472
-6.329
.471
3.533
.471
2.698
.472
7.899
.471
.049
.472
-3.385
.471
-3.435
.472
-6.672
.471
3.336
.472
-2.992
.471
6.819
.471
-3.189
.472
6.084
.471
2.207
.472
2.257
.471
-1.374
.472
-.392
.471
-7.555
.472
-3.337
.471
-14.963
.471
-3.14
.472
-2.159
.471
7.605
.472
4.759
.471
2.306
.472
-3.189
.471
-7.703
.472
.687
.471
1.128
.471
8.88
.472
3.827
.471
5.642
.472
2.355
.471
-2.698
.472
5.936
.471
-5.201
.472
1.031
.471
-3.336
.472
4.366
.471
-2.747
.471
1.913
.472
.393
.471
3.041
.472
-1.128
.471
-4.121
.472
-1.57
.471
-7.801
.472
2.895
.471
-1.031
.471
3.582
.472
-2.6
.471
-3.14
.472
-1.717
.471
2.306
.472
7.457
.471
1.962
.472
-.589
.471
-3.679
.471
.196
.472
-3.483
.471
-10.548
.472
-13.198
.471
-4.121
.472
10.401
.471
14.718
.472
10.009
.471
.245
.472
-2.698
.471
-.196
.471
2.747
.472
-4.563
.471
-7.359
.472
-.981
.471
4.366
.472
4.465
.471
-2.797
.472
2.404
.471
-3.924
.471
-7.654
.472
-.294
.471
3.63
.472
10.303
.471
1.864
.472
3.091
.471
4.367
.472
-7.065
.471
1.423
.471
-8.145
.472
1.816
.471
-5.201
.472
-5.936
.471
-1.521
.472
.932
.471
6.329
.472
-2.355
.471
1.913
.471
1.227
.472
2.159
.471
-.933
.472
-2.354
.471
-.491
.472
2.11
.471
3.189
.472
2.453
.471
-1.521
.472
-9.273
.471
4.906
.471
-7.31
.472
3.876
.471
.785
.472
8.88
.471
3.238
.472
-13.492
.471
-13.491
.472
-2.65
.471
3.68
.471
9.812
.472
-.147
.471
-2.699
.472
-4.415
.471
.196
.472
7.507
.471
6.966
.472
2.208
.471
3.238
.471
-2.944
.472
.834
.471
-1.815
.472
2.404
.471
-.834
.472
-4.906
.471
-3.336
.472
3.679
.471
9.862
.471
3.679
.472
-1.128
.471
-1.129
.472
3.729
.471
2.895
.472
-1.718
.471
.54
.472
-.294
.471
.785
.472
-4.17
.471
-1.619
.471
-3.435
.472
2.895
.471
-2.748
.472
6.28
.471
-7.899
.472
4.71
.471
-4.955
.472
10.156
.471
.883
.471
-4.072
.472
-3.876
.471
-4.121
.472
11.676
.471
1.717
.472
-1.766
.471
-2.551
.472
-.049
.471
9.223
h.471
l.472
3.876
.471
-4.366
.472
2.502
.471
-7.997
.472
-4.661
.471
-6.132
.472
7.408
.471
5.004
.471
5.691
.472
.295
.471
4.415
.472
-4.317
.471
-3.68
.472
-6.083
.471
6.279
.472
.932
.471
2.404
.472
-6.083
.471
3.532
.471
1.227
.472
5.298
.471
-6.034
.472
-4.023
.471
-2.159
.472
3.287
.471
3.287
.472
2.159
.471
1.815
.471
3.287
.472
2.159
.471
-.343
.472
-4.22
.471
.687
.472
.54
.471
4.71
.472
-1.57
.471
1.57
h.471
l.472
.932
.471
.441
.472
.589
.471
-.932
.472
-3.778
.471
-1.128
.472
-.245
.471
4.857
.471
-1.914
.472
-.392
.471
-3.925
.472
1.521
.471
-4.268
.472
1.324
.471
.245
.472
4.808
.471
-1.03
.472
-1.57
.471
1.766
.471
2.944
.472
2.257
.471
-.687
.472
-1.717
.471
-2.453
.472
-1.717
.471
-.246
.472
-.932
.471
-2.698
.471
-1.079
.472
1.03
.471
1.913
.472
2.699
.471
-.295
.472
-1.521
.471
-1.619
.472
-3.189
.471
-.736
.471
-1.324
.472
1.079
.471
3.827
.472
1.864
.471
4.17
.472
-2.502
.471
-6.23
.472
.098
.471
-2.11
.472
3.14
.471
-.932
.471
4.513
.472
3.778
.471
-.441
.472
-1.031
.471
-3.827
.472
-1.619
.471
-2.256
.472
.687
.471
3.532
.471
.098
.472
1.668
.471
-.834
.472
5.789
.471
.54
.472
-.393
.471
-3.238
.472
-1.864
.471
1.03
.471
-.049
.472
2.748
.471
-.246
.472
1.57
.471
-.441
.472
.098
.471
-2.208
.472
-.098
.471
-1.03
.471
-2.748
.472
-2.207
.471
-.098
.472
2.845
.471
-1.521
.472
-2.453
.471
1.472
.472
1.717
.471
.147
.472
-1.373
.471
1.52
.471
.884
.472
-3.14
.471
1.373
.472
3.14
.471
3.435
.472
-5.544
.471
-1.717
.472
-3.68
.471
2.159
.471
-.098
.472
-2.061
.471
-1.325
.472
.54
.471
3.238
.472
4.317
.471
-1.717
.472
5.74
.471
-1.324
.471
2.306
.472
-1.227
.471
-.245
.472
-.981
.471
-3.533
.472
-1.57
.471
-5.789
.472
1.864
.471
.982
.471
7.162
.472
-1.373
.471
-.147
.472
-5.642
.471
2.894
.472
.932
.471
1.521
.472
-3.287
.471
1.374
.472
.49
.471
1.031
.471
1.226
.472
2.208
.471
.392
.472
-4.562
.471
-.736
.472
.343
.471
2.797
.472
-2.355
.471
-3.827
.471
-1.619
.472
3.434
.471
.049
.472
.589
.471
-.49
.472
5.445
.471
.638
.472
.981
.471
-4.268
.471
-.442
.472
.54
.471
4.514
.472
-1.57
.471
.785
.472
-2.65
.471
1.276
.472
-1.766
.471
3.189
.471
3.287
.472
1.374
h.471
l.472
-1.325
.471
-1.913
.472
-.491
.471
.049
.472
1.619
.471
.098
.472
-1.325
.471
-4.415
.471
.393
.472
-1.08
.471
-1.472
.472
-9.812
.471
-4.464
.472
5.102
.471
8.242
.472
5.004
.471
-.196
.471
.491
.472
-.098
.471
-2.699
.472
-4.268
.471
.245
.472
3.238
.471
5.888
.472
.539
.471
-4.415
.471
-2.306
.472
.392
.471
3.288
.472
-.099
.471
-2.747
.472
-.589
.471
-4.023
.472
4.661
.471
3.14
.472
4.955
.471
-2.159
.471
.246
.472
-4.955
.471
.245
.472
-4.906
.471
.785
.472
2.158
.471
4.808
.472
5.348
.471
-.834
.471
-1.03
.472
-.932
.471
.392
.472
-2.502
.471
-.491
.472
-1.324
.471
2.992
.472
1.668
.471
1.374
.471
.638
.472
.049
.471
.196
.472
-2.306
.471
-3.581
.472
-8.782
.471
-6.917
.472
-1.374
.471
7.604
.471
9.371
.472
1.668
.471
-2.159
.472
-2.355
.471
.393
.472
-4.268
.471
-4.023
.472
-.344
.471
1.717
.472
3.336
.471
1.57
.471
3.336
.472
1.472
.471
-2.404
.472
-2.109
.471
-.589
.472
3.581
.471
-.098
.472
-2.404
.471
-5.691
.471
3.091
.472
4.366
.471
5.937
.472
.196
.471
-2.257
.472
-.932
.471
1.03
.472
1.08
.471
1.177
.471
-1.815
.472
-1.374
.471
-4.121
.472
1.668
.471
1.178
.472
2.502
.471
-.834
.472
-2.061
.471
-1.374
.471
-2.551
.472
1.227
.471
2.355
.472
2.6
.471
.343
.472
-2.404
.471
.884
.472
.343
.471
-.54
.472
-3.385
.471
1.325
.471
1.275
.472
2.208
.471
-1.325
.472
1.472
h.471
l.472
1.57
.471
.883
.472
-.245
.471
.147
.471
-1.913
.472
-.54
h.471
l.472
.785
.471
1.325
.472
-2.257
.471
-1.472
.472
-1.864
.471
1.668
.471
1.177
.472
2.846
.471
-.393
.472
.098
.471
-4.513
.472
.638
.471
-.982
.472
2.699
.471
-.491
.471
-.245
.472
-.393
.471
-2.256
.472
-1.325
.471
-1.521
.472
.245
.471
-.686
.472
3.287
.471
1.177
.472
3.581
.471
-.343
.471
1.325
.472
1.079
.471
.785
.472
-1.226
.471
-1.374
.472
-.442
.471
.098
.472
-1.275
.471
-.295" aria-label="line"/>
</svg>
