<svg xmlns="http://www.w3.org/2000/svg" width="830" height="470" fill="currentColor" class="plot-d6a7b5" font-family="system-ui, sans-serif" font-size="10" style="--plot-background:white;display:block;height:intrinsic;max-width:100%;color:#1e90ff" text-anchor="middle" viewBox="0 0 830 470">
    <style>
        :where(.plot-d6a7b5 text),:where(.plot-d6a7b5 tspan){white-space:pre}
    </style>
    <path stroke="currentColor" stroke-opacity=".1" d="
M60
410
h710
M60
360.929
h710
M60
311.858
h710
M60
262.787
h710
M60
213.716
h710
m-710
-49.07
h710
M60
115.575
h710
M60
66.504
h710" aria-hidden="true" aria-label="y-grid"/>
    <path fill="none" stroke="currentColor" d="
M60
410
h-6
m6
-49.07
h-6
m6
-49.072
h-6
m6
-49.071
h-6
m6
-49.071
h-6
m6
-49.07
h-6
m6
-49.071
h-6
m6
-49.071
h-6" aria-hidden="true" aria-label="y-axis tick"/>
    <g aria-label="y-axis tick label" font-variant="tabular-nums" text-anchor="end">
        <text y=".32em" transform="translate(51 410)">0</text>
        <text y=".32em" transform="translate(51 360.93)">100,000</text>
        <text y=".32em" transform="translate(51 311.858)">200,000</text>
        <text y=".32em" transform="translate(51 262.787)">300,000</text>
        <text y=".32em" transform="translate(51 213.716)">400,000</text>
        <text y=".32em" transform="translate(51 164.646)">500,000</text>
        <text y=".32em" transform="translate(51 115.575)">600,000</text>
        <text y=".32em" transform="translate(51 66.504)">700,000</text>
    </g>
    <text y=".71em" aria-label="y-axis label" text-anchor="start" transform="translate(3 3)">↑ Total vestiges</text>
    <path fill="none" stroke="currentColor" d="
M80.727
410
v6
m55.475
-6
v6
m56.085
-6
v6
m56.084
-6
v6
m55.476
-6
v6
m55.475
-6
v6
m56.084
-6
v6
m56.085
-6
v6
m54.866
-6
v6
m55.475
-6
v6
m56.084
-6
v6
m56.085
-6
v6
m54.866
-6
v6" aria-hidden="true" aria-label="x-axis tick"/>
    <g aria-label="x-axis tick label" font-variant="tabular-nums">
        <text transform="translate(80.727 419)"><tspan x="0" y=".71em">Apr</tspan><tspan x="0" dy="1em">2023</tspan></text>
        <text y=".71em" transform="translate(136.202 419)">Jul</text>
        <text y=".71em" transform="translate(192.287 419)">Oct</text>
        <text transform="translate(248.371 419)"><tspan x="0" y=".71em">Jan</tspan><tspan x="0" dy="1em">2024</tspan></text>
        <text y=".71em" transform="translate(303.847 419)">Apr</text>
        <text y=".71em" transform="translate(359.322 419)">Jul</text>
        <text y=".71em" transform="translate(415.406 419)">Oct</text>
        <text transform="translate(471.491 419)"><tspan x="0" y=".71em">Jan</tspan><tspan x="0" dy="1em">2025</tspan></text>
        <text y=".71em" transform="translate(526.357 419)">Apr</text>
        <text y=".71em" transform="translate(581.832 419)">Jul</text>
        <text y=".71em" transform="translate(637.916 419)">Oct</text>
        <text transform="translate(694.001 419)"><tspan x="0" y=".71em">Jan</tspan><tspan x="0" dy="1em">2026</tspan></text>
        <text y=".71em" transform="translate(748.867 419)">Apr</text>
    </g>
    <path fill="none" stroke="currentColor" stroke-linecap="round" stroke-linejoin="round" stroke-width="1.5" d="
m60
410
.406
-.246
.407
-.901
.406
-.486
.407
-.345
.406
-.568
.406
-.447
.407
-.42
.406
-.849
.407
-.672
.406
-.797
.407
-1.235
.406
-1.165
.406
-.604
.407
-.875
.406
-.594
.407
-.681
.406
-.891
.406
-.6
.407
-.588
.406
-.797
.407
-.885
.406
-.627
.406
-1.069
.407
-.506
.406
-.473
.407
-.852
.406
-.816
.407
-.629
.406
-.875
.406
-.873
.407
-.795
.406
-1.232
.407
-.978
.406
-.566
.406
-.59
.407
-.444
.406
-.358
.407
-.666
.406
-.651
.406
-.453
.407
-1.05
.406
-1.097
.407
-.984
.406
-1.191
.406
-.808
.407
-.688
.406
-.937
.407
-.784
.406
-.568
.407
-1.023
.406
-.988
.406
-.923
.407
-1.322
.406
-1.256
.407
-.653
.406
-.969
.406
-.875
.407
-.783
.406
-1.11
.407
-1.042
.406
-.906
.406
-1.088
.407
-1.043
.406
-.899
.407
-1.208
.406
-.744
.407
-.671
.406
-.935
.406
-.766
.407
-.573
.406
-.738
.407
-.796
.406
-.743
.406
-.974
.407
-.965
.406
-.55
.407
-.764
.406
-.596
.406
-.392
.407
-.607
.406
-.604
.407
-.642
.406
-.83
.407
-.844
.406
-.659
.406
-.913
.407
-.64
.406
-.419
.407
-.961
.406
-.665
.406
-.359
.407
-.602
.406
-.581
.407
-.605
.406
-.83
.406
-.722
.407
-.622
.406
-.541
.407
-.48
.406
-.459
.407
-.754
.406
-.429
.406
-.437
.407
-.708
.406
-.803
.407
-.629
.406
-.81
.406
-.546
.407
-.506
.406
-.735
.407
-.502
.406
-.479
.406
-.639
.407
-.499
.406
-.604
.407
-.639
.406
-.581
.406
-.481
.407
-.504
.406
-.44
.407
-.415
.406
-.583
.407
-.445
.406
-.401
.406
-.661
.407
-.86
.406
-.627
.407
-.816
.406
-.489
.406
-.559
.407
-.579
.406
-.528
.407
-.371
.406
-.735
.406
-.578
.407
-.607
.406
-.881
.407
-.649
.406
-.567
.407
-.579
.406
-.633
.406
-.49
.407
-.479
.406
-.634
.407
-.374
.406
-.497
.406
-.448
.407
-.421
.406
-.593
.407
-.428
.406
-.447
.406
-.598
.407
-.427
.406
-.396
.407
-.427
.406
-.503
.407
-.473
.406
-.494
.406
-.535
.407
-.42
.406
-.515
.407
-.432
.406
-.43
.406
-.596
.407
-.496
.406
-.392
.407
-.514
.406
-.489
.406
-.353
.407
-.607
.406
-.463
.407
-.478
.406
-.53
.407
-.452
.406
-.268
.406
-.492
.407
-.402
.406
-.478
.407
-.568
.406
-.45
.406
-.496
.407
-.545
.406
-.496
.407
-.436
.406
-.711
.406
-.577
.407
-.333
.406
-.531
.407
-.474
.406
-.284
.406
-.505
.407
-.326
.406
-.387
.407
-.47
.406
-.439
.407
-.347
.406
-.549
.406
-.402
.407
-.363
.406
-.511
.407
-.458
.406
-.362
.406
-.553
.407
-.352
.406
-.401
.407
-.508
.406
-.412
.406
-.469
.407
-.536
.406
-.47
.407
-.399
.406
-.459
.407
-.539
.406
-.421
.406
-.396
.407
-.418
.406
-.318
.407
-.546
.406
-.341
.406
-.386
.407
-.485
.406
-.386
.407
-.47
.406
-.624
.406
-.47
.407
-.278
.406
-.638
.407
-.469
.406
-.417
.407
-.582
.406
-.394
.406
-.422
.407
-.488
.406
-.494
.407
-.426
.406
-.631
.406
-.486
.407
-.428
.406
-.519
.407
-.571
.406
-.584
.406
-.859
.407
-.524
.406
-.396
.407
-.535
.406
-.431
.407
-.312
.406
-.486
.406
-.429
.407
-.3
.406
-.49
.407
-.446
.406
-.323
.406
-.518
.407
-.484
.406
-.368
.407
-.484
.406
-.606
.406
-.511
.407
-.637
.406
-.451
.407
-.435
.406
-.645
.407
-.484
.406
-.449
.406
-.539
.407
-.447
.406
-.299
.407
-.431
.406
-.326
.406
-.359
.407
-.433
.406
-.436
.407
-.403
.406
-.403
.406
-.415
.407
-.353
.406
-.391
.407
-.387
.406
-.327
.406
-.378
.407
-.389
.406
-.42
.407
-.504
.406
-.359
.407
-.388
.406
-.407
.406
-.298
.407
-.32
.406
-.334
.407
-.204
.406
-.25
.406
-.572
.407
-.395
.406
-.371
.407
-.503
.406
-.211
.406
-.281
.407
-.266
.406
-.212
.407
-.32
.406
-.327
.407
-.375
.406
-.393
.406
-.628
.407
-.533
.406
-.286
.407
-.386
.406
-.266
.406
-.32
.407
-.368
.406
-.331
.407
-.263
.406
-.403
.406
-.443
.407
-.328
.406
-.446
.407
-.227
.406
-.223
.407
-.298
.406
-.282
.406
-.251
.407
-.408
.406
-.34
.407
-.347
.406
-.47
.406
-.352
.407
-.186
.406
-.346
.407
-.255
.406
-.228
.406
-.289
.407
-.283
.406
-.326
.407
-.428
.406
-.459
.407
-.459
.406
-.479
.406
-.345
.407
-.263
.406
-.326
.407
-.273
.406
-.295
.406
-.396
.407
-.266
.406
-.25
.407
-.554
.406
-.474
.406
-.292
.407
-.301
.406
-.217
.407
-.171
.406
-.36
.406
-.239
.407
-.238
.406
-.463
.407
-.498
.406
-.374
.407
-.507
.406
-.268
.406
-.247
.407
-.423
.406
-.274
.407
-.26
.406
-.371
.406
-.396
.407
-.253
.406
-.42
.407
-.269
.406
-.174
.406
-.373
.407
-.25
.406
-.152
.407
-.23
.406
-.234
.407
-.393
.406
-.464
.406
-.465
.407
-.31
.406
-.307
.407
-.178
.406
-.268
.406
-.315
.407
-.174
.406
-.182
.407
-.311
.406
-.19
.406
-.262
.407
-.286
.406
-.257
.407
-.168
.406
-.23
.407
-.126
.406
-.173
.406
-.234
.407
-.158
.406
-.106
.407
-.369
.406
-.362
.406
-.354
.407
-.353
.406
-.27
.407
-.167
.406
-.273
.406
-.168
.407
-.237
.406
-.346
.407
-.282
.406
-.247
.407
-.37
.406
-.262
.406
-.254
.407
-.3
.406
-.246
.407
-.278
.406
-.412
.406
-.244
.407
-.23
.406
-.24
.407
-.277
.406
-.274
.406
-.301
.407
-.174
.406
-.109
.407
-.258
.406
-.216
.406
-.166
.407
-.202
.406
-.191
.407
-.149
.406
-.236
.407
-.217
.406
-.121
.406
-.28
.407
-.264
.406
-.114
.407
-.165
.406
-.13
.406
-.144
.407
-.274
.406
-.275
.407
-.2
.406
-.187
.406
-.193
.407
-.243
.406
-.189
.407
-.138
.406
-.162
.407
-.27
.406
-.168
.406
-.205
.407
-.342
.406
-.276
.407
-.142
.406
-.222
.406
-.288
.407
-.228
.406
-.294
.407
-.224
.406
-.251
.406
-.295
.407
-.228
.406
-.213
.407
-.271
.406
-.232
.407
-.211
.406
-.331
.406
-.199
.407
-.153
.406
-.321
.407
-.113
.406
-.194
.406
-.313
.407
-.163
.406
-.188
.407
-.235
.406
-.143
.406
-.145
.407
-.148
.406
-.107
.407
-.201
.406
-.274
.407
-.252
.406
-.309
.406
-.367
.407
-.168
.406
-.2
.407
-.192
.406
-.267
.406
-.297
.407
-.222
.406
-.161
.407
-.261
.406
-.313
.406
-.439
.407
-.272
.406
-.334
.407
-.193
.406
-.177
.406
-.238
.407
-.102
.406
-.151
.407
-.379
.406
-.417
.407
-.305
.406
-.425
.406
-.236
.407
-.2
.406
-.242
.407
-.238
.406
-.202
.406
-.318
.407
-.189
.406
-.317
.407
-.471
.406
-.331
.406
-.239
.407
-.355
.406
-.236
.407
-.173
.406
-.364
.407
-.294
.406
-.327
.406
-.322
.407
-.376
.406
-.501
.407
-.545
.406
-.297
.406
-.309
.407
-.451
.406
-.307
.407
-.229
.406
-.295
.406
-.251
.407
-.251
.406
-.404
.407
-.353
.406
-.146
.407
-.315
.406
-.27
.406
-.312
.407
-.306
.406
-.184
.407
-.27
.406
-.403
.406
-.372
.407
-.248
.406
-.381
.407
-.191
.406
-.244
.406
-.276
.407
-.179
.406
-.213
.407
-.283
.406
-.225
.407
-.226
.406
-.421
.406
-.234
.407
-.2
.406
-.18
.407
-.168
.406
-.222
.406
-.209
.407
-.127
.406
-.159
.407
-.338
.406
-.213
.406
-.161
.407
-.316
.406
-.221
.407
-.093
.406
-.19
.406
-.253
.407
-.189
.406
-.258
.407
-.281
.406
-.268
.407
-.414
.406
-.287
.406
-.185
.407
-.033
.406
-.004
.407
-.002
.406
-.002
.406
-.004
.407
-.004
.406
-.005
.407
-.022
.406
-.017
.406
-.01
.407
-.027
.406
-.043
.407
-.031
.406
-.039
.407
-.077
.406
-.102
.406
-.258
.407
-.175
.406
-.163
.407
-.148
.406
-.14
.406
-.161
.407
-.205
.406
-.183
.407
-.217
.406
-.226
.406
-.2
.407
-.243
.406
-.185
.407
-.141
.406
-.205
.407
-.219
.406
-.095
.406
-.143
.407
-.212
.406
-.119
.407
-.124
.406
-.186
.406
-.148
.407
-.215
.406
-.181
.407
-.108
.406
-.164
.406
-.143
.407
-.135
.406
-.093
.407
-.116
.406
-.069
.407
-.125
.406
-.131
.406
-.167
.407
-.235
.406
-.15
.407
-.096
.406
-.207
.406
-.158
.407
-.143
.406
-.149
.407
-.207
.406
-.144
.406
-.199
.407
-.137
.406
-.105
.407
-.161
.406
-.178
.406
-.186
.407
-.122
.406
-.166
.407
-.142
.406
-.178
.407
-.253
.406
-.19
.406
-.244
.407
-.135
.406
-.12
.407
-.166
.406
-.166
.406
-.139
.407
-.187
.406
-.212
.407
-.133
.406
-.238
.406
-.21
.407
-.171
.406
-.247
.407
-.143
.406
-.109
.407
-.087
.406
-.121
.406
-.153
.407
-.165
.406
-.35
.407
-.173
.406
-.265
.406
-.124
.407
-.121
.406
-.149
.407
-.221
.406
-.076
.406
-.161
.407
-.179
.406
-.161
.407
-.246
.406
-.304
.407
-.159
.406
-.266
.406
-.123
.407
-.165
.406
-.298
.407
-.218
.406
-.149
.406
-.24
.407
-.258
.406
-.138
.407
-.318
.406
-.144
.406
-.144
.407
-.208
.406
-.214
.407
-.147
.406
-.242
.407
-.19
.406
-.197
.406
-.291
.407
-.29
.406
-.208
.407
-.201
.406
-.266
.406
-.159
.407
-.164
.406
-.149
.407
-.211
.406
-.181
.406
-.194
.407
-.179
.406
-.191
.407
-.213
.406
-.065
.407
-.099
.406
-.152
.406
-.119
.407
-.285
.406
-.167
.407
-.116
.406
-.156
.406
-.331
.407
-.114
.406
-.167
.407
-.226
.406
-.17
.406
-.112
.407
-.148
.406
-.091
.407
-.125
.406
-.144
.406
-.148
.407
-.27
.406
-.189
.407
-.128
.406
-.236
.407
-.17
.406
-.172
.406
-.128
.407
-.13
.406
-.097
.407
-.165
.406
-.184
.406
-.081
.407
-.11
.406
-.12
.407
-.111
.406
-.132
.406
-.159
.407
-.173
.406
-.187
.407
-.103
.406
-.11
.407
-.177
.406
-.156
.406
-.099
.407
-.177
.406
-.163
.407
-.129
.406
-.155
.406
-.161
.407
-.173
.406
-.237
.407
-.325
.406
-.202
.406
-.216
.407
-.148
.406
-.143
.407
-.198
.406
-.138
.407
-.108
.406
-.133
.406
-.138
.407
-.152
.406
-.163
.407
-.23
.406
-.165
.406
-.265
.407
-.25
.406
-.255
.407
-.259
.406
-.229
.406
-.263
.407
-.284
.406
-.142
.407
-.187
.406
-.338
.407
-.177
.406
-.159
.406
-.22
.407
-.152
.406
-.078
.407
-.455
.406
-.394
.406
-.392
.407
-.42
.406
-.34
.407
-.244
.406
-.381
.406
-.401
.407
-.247
.406
-.233
.407
-.281
.406
-.26
.406
-.288
.407
-.32
.406
-.21
.407
-.13
.406
-.238
.407
-.134
.406
-.142
.406
-.188
.407
-.177
.406
-.206
.407
-.249
.406
-.249
.406
-.191
.407
-.194
.406
-.171
.407
-.15
.406
-.104
.406
-.078
.407
-.089
.406
-.113
.407
-.133
.406
-.093
.407
-.149
.406
-.101
.406
-.118
.407
-.104
.406
-.129
.407
-.105
.406
-.19
.406
-.136
.407
-.15
.406
-.115
.407
-.171
.406
-.178
.406
-.157
.407
-.12
.406
-.147
.407
-.109
.406
-.124
.407
-.08
.406
-.1
.406
-.11
.407
-.09
.406
-.159
.407
-.129
.406
-.112
.406
-.112
.407
-.133
.406
-.118
.407
-.151
.406
-.097
.406
-.172
.407
-.232
.406
-.221
.407
-.308
.406
-.133
.407
-.152
.406
-.159
.406
-.099
.407
-.166
.406
-.164
.407
-.166
.406
-.217
.406
-.383
.407
-.17
.406
-.11
.407
-.237
.406
-.142
.406
-.077
.407
-.158
.406
-.131
.407
-.104
.406
-.182
.406
-.208
.407
-.203
.406
-.288
.407
-.112
.406
-.098
.407
-.14
.406
-.124
.406
-.071
.407
-.084
.406
-.125
.407
-.063
.406
-.118
.406
-.105
.407
-.079
.406
-.099
.407
-.06
.406
-.096
.406
-.141
.407
-.118
.406
-.089
.407
-.183
.406
-.144
.407
-.13
.406
-.191
.406
-.055
.407
-.07
.406
-.126
.407
-.075
.406
-.078
.406
-.1
.407
-.064
.406
-.076
.407
-.183
.406
-.113
.406
-.041
.407
-.049
.406
-.07
.407
-.103
.406
-.098
.407
-.151
.406
-.079
.406
-.163
.407
-.23
.406
-.168
.407
-.251
.406
-.179
.406
-.115
.407
-.109
.406
-.107
.407
-.125
.406
-.097
.406
-.084
.407
-.146
.406
-.146
.407
-.158
.406
-.083
.407
-.146
.406
-.059
.406
-.071
.407
-.144
.406
-.091
.407
-.093
.406
-.106
.406
-.134
.407
-.123
.406
-.132
.407
-.078
.406
-.108
.406
-.128
.407
-.113
.406
-.105
.407
-.143
.406
-.099
.406
-.115
.407
-.177
.406
-.175
.407
-.07
.406
-.099
.407
-.113
.406
-.075
.406
-.102
.407
-.08
.406
-.042
.407
-.099
.406
-.05
.406
-.027
.407
-.068
.406
-.094
.407
-.049
.406
-.055
.406
-.104
.407
-.164
.406
-.106
.407
-.152
.406
-.059
.407
-.085
.406
-.067
.406
-.092
.407
-.092
.406
-.048
.407
-.066
.406
-.113
.406
-.088
.407
-.082
.406
-.151
.407
-.148
.406
-.078
.406
-.142
.407
-.078
.406
-.141
.407
-.106
.406
-.051
.407
-.062
.406
-.106
.406
-.085
.407
-.096
.406
-.173
.407
-.051
.406
-.127
.406
-.104
.407
-.083
.406
-.066
.407
-.082
.406
-.061
.406
-.079
.407
-.086
.406
-.137
.407
-.112
.406
-.236
.407
-.168
.406
-.134
.406
-.16
.407
-.12
.406
-.111
.407
-.192
.406
-.197
.406
-.105
.407
-.18
.406
-.108
.407
-.066
.406
-.124
.406
-.085
.407
-.093
.406
-.064
.407
-.137
.406
-.083
.406
-.098
.407
-.093
.406
-.111
.407
-.078
.406
-.089
.407
-.08
.406
-.09
.406
-.131
.407
-.095
.406
-.168
.407
-.102
.406
-.106
.406
-.132
.407
-.127
.406
-.138
.407
-.149
.406
-.104
.406
-.063
.407
-.13
.406
-.11
.407
-.1
.406
-.127
.407
-.146
.406
-.205
.406
-.259
.407
-.187
.406
-.101
.407
-.112
.406
-.087
.406
-.098
.407
-.14
.406
-.088
.407
-.071
.406
-.185
.406
-.162
.407
-.081
.406
-.141
.407
-.118
.406
-.109
.407
-.117
.406
-.156
.406
-.186
.407
-.12
.406
-.12
.407
-.083
.406
-.101
.406
-.09
.407
-.038
.406
-.173
.407
-.075
.406
-.12
.406
-.154
.407
-.127
.406
-.18
.407
-.169
.406
-.118
.407
-.116
.406
-.193
.406
-.099
.407
-.104
.406
-.171
.407
-.108
.406
-.127
.406
-.177
.407
-.086
.406
-.096
.407
-.152
.406
-.102
.406
-.188
.407
-.103
.406
-.175
.407
-.15
.406
-.094
.407
-.087
.406
-.117
.406
-.23
.407
-.221
.406
-.144
.407
-.193
.406
-.123
.406
-.145
.407
-.22
.406
-.167
.407
-.143
.406
-.145
.406
-.098
.407
-.121
.406
-.112
.407
-.127
.406
-.113
.406
-.131
.407
-.103
.406
-.121
.407
-.18
.406
-.136
.407
-.085
.406
-.081
.406
-.099
.407
-.096
.406
-.092
.407
-.062
.406
-.067
.406
-.11
.407
-.056
.406
-.07
.407
-.102
.406
-.098
.406
-.086
.407
-.136
.406
-.07
.407
-.113
.406
-.073
.407
-.149
.406
-.066
.406
-.123
.407
-.047
.406
-.057
.407
-.164
.406
-.086
.406
-.098
.407
-.047
.406
-.069
.407
-.116
.406
-.072
.406
-.069
.407
-.024
.406
-.072
.407
-.031
.406
-.068
.407
-.047
.406
-.11
.406
-.114
.407
-.109
.406
-.036
.407
-.065
.406
-.051
.406
-.033
.407
-.021
.406
-.094
.407
-.07
.406
-.081
.406
-.032
.407
-.061
.406
-.057
.407
-.093
.406
-.025
.407
-.045
.406
-.04
.406
-.086
.407
-.084
.406
-.062
.407
-.053
.406
-.052
.406
-.04
.407
-.034
.406
-.02
.407
-.018
.406
-.038
.406
-.061
.407
-.012
.406
-.032
.407
-.015
.406
-.027
.406
-.017
.407
-.014
.406
-.018
.407
-.013
.406
-.008
.407
-.027
.406
-.05
.406
-.02
.407
-.029
.406
-.002
.407
-.039
.406
-.034
.406
-.041
.407
-.023
.406
-.076
.407
-.028
.406
-.021
.406
-.028
.407
-.039
.406
-.037
.407
-.01
.406
-.009
.407
-.014
.406
-.017
.406
-.026
.407
-.039
.406
-.034
.407
-.029
.406
-.048
.406
-.061
.407
-.039
.406
-.038
.407
-.042
.406
-.013
.406
-.04
.407
-.058
.406
-.028
.407
-.073
.406
-.065
.407
-.041
.406
-.062
.406
-.027
.407
-.023
.406
-.02
.407
-.051
.406
-.086
.406
-.019
.407
-.072
.406
-.054
.407
-.029
.406
-.027
.406
-.017
.407
-.032
.406
-.038
.407
-.055
.406
-.049
.407
-.06
.406
-.048
.406
-.013
.407
-.06
.406
-.031
.407
-.022
.406
-.001
.406
-.026
.407
-.026
.406
-.034
.407
-.044
.406
-.016
.406
-.034
.407
-.017
.406
-.018
.407
-.018
.406
-.022
.406
-.017
.407
-.04
.406
-.023
.407
-.027
.406
-.068
.407
-.044
.406
-.029
.406
-.04
.407
-.059
.406
-.053
.407
-.025
.406
-.042
.406
-.052
.407
-.038
.406
-.027
.407
-.043
.406
-.07
.406
-.014
.407
-.011
.406
-.036
.407
-.068
.406
-.029
.407
-.072
.406
-.048
.406
-.029
.407
-.093
.406
-.061
.407
-.024
.406
-.06
.406
-.018
.407
-.041
.406
-.003
.407
-.031
.406
-.018
.406
-.016
.407
-.032
.406
-.028
.407
-.051
.406
-.049
.407
-.086
.406
-.032
.406
-.039
.407
-.014
.406
-.046
.407
-.041
.406
-.07
.406
-.018
.407
-.03
.406
-.056
.407
-.05
.406
-.017
.406
-.051
.407
-.039
.406
-.005
.407
-.029
.406
-.036
.407
-.05
.406
-.036
.406
-.032
.407
-.023
.406
-.059
.407
-.071
.406
-.039
.406
-.025
.407
-.07
.406
-.033
.407
-.03
.406
-.015
.406
-.027
.407
-.02
.406
-.058
.407
-.031
.406
-.015
.406
-.013
.407
-.047
.406
-.007
.407
-.04
.406
-.033
.407
-.025
.406
-.008
.406
-.001
.407
-.011
.406
-.007
.407
-.015
.406
-.03
.406
-.012
.407
-.014
.406
-.014
.407
-.012
.406
-.027
.406
-.058
.407
-.007
.406
-.038
.407
-.073
.406
-.106
.407
-.082
.406
-.022
.406
-.023
.407
-.033
.406
-.023
.407
-.019
.406
-.033
.406
-.051
.407
-.061
.406
-.031
.407
-.018
.406
-.003
.406
-.025
.407
-.063
.406
-.025
.407
-.022
.406
-.029
.407
-.027
.406
-.049
.406
-.035
.407
-.067
.406
-.002
.407
-.004
.406
-.017
.406
-.024
.407
-.002
.406
-.067
.407
-.021
.406
-.051
.406
-.059
h.407
l.406
-.002
.407
-.005
.406
-.009
.407
-.013
.406
-.014
.406
-.005
.407
-.037
.406
-.02
.407
-.018
.406
-.008
.406
-.003
.407
-.003
.406
-.002
.407
-.002
.406
-.002
.406
-.025
.407
-.038
.406
-.09
.407
-.094
.406
-.052
.406
-.013
h.407
l.406
-.036
.407
-.035
.406
-.024
.407
-.031
.406
-.078
.406
-.064
.407
-.035
.406
-.061
.407
-.03
.406
-.019
.406
-.028
.407
-.015
.406
-.043
.407
-.049
.406
-.022
.406
-.007
.407
-.05
.406
-.045
.407
-.064
.406
-.019
.407
-.002
.406
-.005
.406
-.017
.407
-.024
.406
-.014
.407
-.007
.406
-.014
.406
-.002
.407
-.025
.406
-.027
.407
-.044
.406
-.008
.406
-.015
.407
-.019
.406
-.016
.407
-.036
.406
-.033
.407
-.042
.406
-.024
.406
-.008
.407
-.016
.406
-.021
.407
-.033
.406
-.006
.406
-.018
.407
-.038
.406
-.041
.407
-.004
.406
-.025
.406
-.019
.407
-.017
.406
-.011
.407
-.018
.406
-.002
.407
-.002
.406
-.021
h.406
l.407
-.021
.406
-.026
h.407
l.406
-.014
.406
-.013
.407
-.023
.406
-.028
.407
-.031
.406
-.006
.406
-.017
.407
-.003
.406
-.01
.407
-.015
.406
-.049
.406
-.003
.407
-.025
.406
-.022
.407
-.008
.406
-.027
.407
-.026
.406
-.031
.406
-.041
.407
-.04
.406
-.029
.407
-.047
.406
-.008
.406
-.017
.407
-.012
.406
-.011
.407
-.003
.406
-.001
.406
-.004
.407
-.016
.406
-.014
.407
-.008
.406
-.015
.407
-.027
.406
-.011
.406
-.038
.407
-.013
.406
-.013
.407
-.013
.406
-.02
.406
-.008
.407
-.012
.406
-.042
.407
-.012
.406
-.024
.406
-.026
.407
-.002
.406
-.013
.407
-.021
.406
-.022
.407
-.004
.406
-.039
.406
-.022
.407
-.011
.406
-.014
.407
-.04
.406
-.017
.406
-.022
.407
-.014
.406
-.012
.407
-.041
.406
-.002
h.406
l.407
-.034
.406
-.057
.407
-.029
.406
-.004
.407
-.002
.406
-.002
.406
-.014
.407
-.012
.406
-.016
.407
-.047
.406
-.031
.406
-.024
.407
-.013
.406
-.052
.407
-.043
.406
-.009
.406
-.027
.407
-.01
.406
-.017
.407
-.004
.406
-.021
.407
-.016
.406
-.025
.406
-.033
.407
-.097
.406
-.043
.407
-.035
.406
-.065
.406
-.053
.407
-.025
.406
-.074
.407
-.006
.406
-.039
.406
-.015
.407
-.039
.406
-.014
.407
-.045
.406
-.021
.406
-.029
.407
-.039
.406
-.031
.407
-.045
.406
-.052
.407
-.013
.406
-.012
.406
-.057
.407
-.032
.406
-.034
.407
-.042
.406
-.029
.406
-.031
.407
-.023
.406
-.052
.407
-.021
.406
-.027
.406
-.051
.407
-.039
.406
-.068
.407
-.044
.406
-.012
.407
-.025
.406
-.02
.406
-.009
.407
-.077
.406
-.03
.407
-.028
.406
-.025
.406
-.055
.407
-.02
.406
-.01
.407
-.014
.406
-.007
.406
-.044
.407
-.025
.406
-.028
.407
-.005
.406
-.008
.407
-.01
.406
-.054
.406
-.035
.407
-.047
.406
-.046
.407
-.102
.406
-.098
.406
-.093
.407
-.064
.406
-.089
.407
-.106
.406
-.038
.406
-.101
.407
-.074
.406
-.052
.407
-.083
.406
-.06
.407
-.098
.406
-.045
.406
-.109
.407
-.051
.406
-.048
.407
-.049
.406
-.017
.406
-.062
.407
-.091
.406
-.039
.407
-.043
.406
-.143
.406
-.041
.407
-.068
.406
-.069
.407
-.072
.406
-.034
.406
-.093
.407
-.07
.406
-.046
.407
-.042
.406
-.041
.407
-.034
.406
-.048
.406
-.011
.407
-.013
.406
-.04
.407
-.03
.406
-.056
.406
-.058
.407
-.018
.406
-.048
.407
-.023
.406
-.022
.406
-.036
.407
-.036
.406
-.017
.407
-.01
.406
-.045
.407
-.037
.406
-.047
.406
-.055
.407
-.071
.406
-.032
.407
-.037
.406
-.02
.406
-.061
.407
-.028
.406
-.017
.407
-.036
.406
-.032
.406
-.014
.407
-.035
.406
-.044
.407
-.026
.406
-.049
.407
-.016
.406
-.068
.406
-.009
.407
-.034
.406
-.023
.407
-.02
.406
-.017
.406
-.039
.407
-.018
.406
-.022
.407
-.016
.406
-.01
h4.877
l.406
-.001
.407
-.059
.406
-.031
.407
-.031
.406
-.03
.406
-.023
.407
-.013
.406
-.038
.407
-.033
.406
-.017
.406
-.019
.407
-.025
.406
-.015
.407
-.012
.406
-.007
.407
-.019
.406
-.012
.406
-.01
.407
-.007
.406
-.002
h.407
l.406
-.02
.406
-.02
.407
-.009
.406
-.011
.407
-.01
.406
-.011
.406
-.005
.407
-.02
.406
-.026
.407
-.067
.406
-.032
.407
-.049
.406
-.087
.406
-.045
.407
-.009
.406
-.024
.407
-.084
L770
60" aria-label="line"/>
</svg>
