<svg class="plot-d6a7b5" fill="currentColor" font-family="system-ui, sans-serif" font-size="10" text-anchor="middle" width="830" height="470" viewBox="0 0 830 470" xmlns="http://www.w3.org/2000/svg" xmlns:xlink="http://www.w3.org/1999/xlink" color="#1e90ff"><style>:where(.plot-d6a7b5){--plot-background: white;display:block;height:intrinsic;max-width:100%}:where(.plot-d6a7b5 text),:where(.plot-d6a7b5 tspan){white-space:pre}</style><g aria-label="y-grid" stroke="currentColor" stroke-opacity=".1"><line x1="60" x2="770" y1="410" y2="410"/><line x1="60" x2="770" y1="371.667" y2="371.667"/><line x1="60" x2="770" y1="333.335" y2="333.335"/><line x1="60" x2="770" y1="295.002" y2="295.002"/><line x1="60" x2="770" y1="256.669" y2="256.669"/><line x1="60" x2="770" y1="218.336" y2="218.336"/><line x1="60" x2="770" y1="180.004" y2="180.004"/><line x1="60" x2="770" y1="141.671" y2="141.671"/><line x1="60" x2="770" y1="103.338" y2="103.338"/><line x1="60" x2="770" y1="65.005" y2="65.005"/></g><g aria-label="y-axis tick" fill="none" stroke="currentColor"><path transform="translate(60,410)" d="M0,0L-6,0"/><path transform="translate(60,371.6672763395096)" d="M0,0L-6,0"/><path transform="translate(60,333.3345526790192)" d="M0,0L-6,0"/><path transform="translate(60,295.0018290185289)" d="M0,0L-6,0"/><path transform="translate(60,256.66910535803856)" d="M0,0L-6,0"/><path transform="translate(60,218.33638169754823)" d="M0,0L-6,0"/><path transform="translate(60,180.0036580370579)" d="M0,0L-6,0"/><path transform="translate(60,141.67093437656754)" d="M0,0L-6,0"/><path transform="translate(60,103.33821071607716)" d="M0,0L-6,0"/><path transform="translate(60,65.00548705558684)" d="M0,0L-6,0"/></g><g aria-label="y-axis tick label" text-anchor="end" font-variant="tabular-nums"><text y=".32em" transform="translate(-9,0) translate(60,410)">0</text><text y=".32em" transform="translate(-9,0) translate(60,371.6672763395096)">50,000</text><text y=".32em" transform="translate(-9,0) translate(60,333.3345526790192)">100,000</text><text y=".32em" transform="translate(-9,0) translate(60,295.0018290185289)">150,000</text><text y=".32em" transform="translate(-9,0) translate(60,256.66910535803856)">200,000</text><text y=".32em" transform="translate(-9,0) translate(60,218.33638169754823)">250,000</text><text y=".32em" transform="translate(-9,0) translate(60,180.0036580370579)">300,000</text><text y=".32em" transform="translate(-9,0) translate(60,141.67093437656754)">350,000</text><text y=".32em" transform="translate(-9,0) translate(60,103.33821071607716)">400,000</text><text y=".32em" transform="translate(-9,0) translate(60,65.00548705558684)">450,000</text></g><g aria-label="y-axis label" text-anchor="start"><text y=".71em" transform="translate(-57,-57) translate(60,60)">↑ Total Vestiges</text></g><g aria-label="x-axis tick" fill="none" stroke="currentColor"><path transform="translate(66.5204081632653,410)" d="M0,0L0,6"/><path transform="translate(133.89795918367346,410)" d="M0,0L0,6"/><path transform="translate(199.10204081632654,410)" d="M0,0L0,6"/><path transform="translate(266.4795918367347,410)" d="M0,0L0,6"/><path transform="translate(331.6836734693877,410)" d="M0,0L0,6"/><path transform="translate(399.0612244897959,410)" d="M0,0L0,6"/><path transform="translate(466.4387755102041,410)" d="M0,0L0,6"/><path transform="translate(531.6428571428571,410)" d="M0,0L0,6"/><path transform="translate(599.0204081632653,410)" d="M0,0L0,6"/><path transform="translate(664.2244897959184,410)" d="M0,0L0,6"/><path transform="translate(731.6020408163265,410)" d="M0,0L0,6"/></g><g aria-label="x-axis tick label" font-variant="tabular-nums"><text transform="translate(0,9) translate(66.5204081632653,410)"><tspan x="0" y=".71em">Mar</tspan><tspan x="0" dy="1em">2023</tspan></text><text y=".71em" transform="translate(0,9) translate(133.89795918367346,410)">Apr</text><text y=".71em" transform="translate(0,9) translate(199.10204081632654,410)">May</text><text y=".71em" transform="translate(0,9) translate(266.4795918367347,410)">Jun</text><text y=".71em" transform="translate(0,9) translate(331.6836734693877,410)">Jul</text><text y=".71em" transform="translate(0,9) translate(399.0612244897959,410)">Aug</text><text y=".71em" transform="translate(0,9) translate(466.4387755102041,410)">Sep</text><text y=".71em" transform="translate(0,9) translate(531.6428571428571,410)">Oct</text><text y=".71em" transform="translate(0,9) translate(599.0204081632653,410)">Nov</text><text y=".71em" transform="translate(0,9) translate(664.2244897959184,410)">Dec</text><text transform="translate(0,9) translate(731.6020408163265,410)"><tspan x="0" y=".71em">Jan</tspan><tspan x="0" dy="1em">2024</tspan></text></g><g aria-label="line" fill="none" stroke="currentColor" stroke-width="1.5" stroke-linejoin="round" stroke-linecap="round"><path d="M60,410L61.449,409.615L62.898,408.208L64.347,407.449L65.796,406.91L67.245,406.023L68.694,405.323L70.143,404.668L71.592,403.342L73.041,402.292L74.49,401.046L75.939,399.117L77.388,397.297L78.837,396.353L80.286,394.986L81.735,394.057L83.184,392.993L84.633,391.602L86.082,390.665L87.531,389.747L88.98,388.5L90.429,387.118L91.878,386.139L93.327,384.468L94.776,383.677L96.224,382.939L97.673,381.607L99.122,380.332L100.571,379.351L102.02,377.983L103.469,376.619L104.918,375.377L106.367,373.452L107.816,371.925L109.265,371.04L110.714,370.119L112.163,369.425L113.612,368.864L115.061,367.825L116.51,366.808L117.959,366.099L119.408,364.459L120.857,362.745L122.306,361.209L123.755,359.347L125.204,358.085L126.653,357.01L128.102,355.546L129.551,354.321L131,353.434L132.449,351.836L133.898,350.291L135.347,348.85L136.796,346.784L138.245,344.822L139.694,343.802L141.143,342.288L142.592,340.921L144.041,339.697L145.49,337.964L146.939,336.335L148.388,334.921L149.837,333.22L151.286,331.59L152.735,330.187L154.184,328.298L155.633,327.137L157.082,326.089L158.531,324.627L159.98,323.43L161.429,322.535L162.878,321.382L164.327,320.138L165.776,318.978L167.224,317.456L168.673,315.948L170.122,315.089L171.571,313.896L173.02,312.965L174.469,312.352L175.918,311.404L177.367,310.46L178.816,309.458L180.265,308.161L181.714,306.842L183.163,305.812L184.612,304.386L186.061,303.385L187.51,302.731L188.959,301.229L190.408,300.191L191.857,299.629L193.306,298.689L194.755,297.782L196.204,296.837L197.653,295.54L199.102,294.412L200.551,293.439L202,292.595L203.449,291.845L204.898,291.127L206.347,289.95L207.796,289.279L209.245,288.597L210.694,287.491L212.143,286.237L213.592,285.253L215.041,283.988L216.49,283.136L217.939,282.344L219.388,281.196L220.837,280.411L222.286,279.663L223.735,278.665L225.184,277.885L226.633,276.942L228.082,275.943L229.531,275.036L230.98,274.285L232.429,273.497L233.878,272.809L235.327,272.162L236.776,271.249L238.224,270.555L239.673,269.928L241.122,268.895L242.571,267.552L244.02,266.572L245.469,265.297L246.918,264.534L248.367,263.659L249.816,262.756L251.265,261.931L252.714,261.352L254.163,260.203L255.612,259.3L257.061,258.352L258.51,256.975L259.959,255.961L261.408,255.075L262.857,254.17L264.306,253.182L265.755,252.416L267.204,251.667L268.653,250.677L270.102,250.093L271.551,249.317L273,248.617L274.449,247.959L275.898,247.032L277.347,246.363L278.796,245.665L280.245,244.731L281.694,244.063L283.143,243.446L284.592,242.778L286.041,241.992L287.49,241.252L288.939,240.481L290.388,239.645L291.837,238.989L293.286,238.185L294.735,237.51L296.184,236.838L297.633,235.907L299.082,235.131L300.531,234.52L301.98,233.716L303.429,232.953L304.878,232.401L306.327,231.452L307.776,230.729L309.224,229.983L310.673,229.154L312.122,228.449L313.571,228.029L315.02,227.26L316.469,226.633L317.918,225.886L319.367,224.999L320.816,224.296L322.265,223.521L323.714,222.67L325.163,221.894L326.612,221.213L328.061,220.103L329.51,219.2L330.959,218.681L332.408,217.85L333.857,217.111L335.306,216.666L336.755,215.878L338.204,215.369L339.653,214.764L341.102,214.029L342.551,213.343L344,212.801L345.449,211.944L346.898,211.316L348.347,210.748L349.796,209.951L351.245,209.234L352.694,208.67L354.143,207.805L355.592,207.254L357.041,206.629L358.49,205.835L359.939,205.191L361.388,204.458L362.837,203.62L364.286,202.887L365.735,202.263L367.184,201.547L368.633,200.705L370.082,200.046L371.531,199.428L372.98,198.775L374.429,198.278L375.878,197.425L377.327,196.892L378.776,196.288L380.224,195.531L381.673,194.927L383.122,194.194L384.571,193.219L386.02,192.484L387.469,192.051L388.918,191.054L390.367,190.321L391.816,189.67L393.265,188.76L394.714,188.145L396.163,187.485L397.612,186.723L399.061,185.951L400.51,185.285L401.959,184.299L403.408,183.54L404.857,182.872L406.306,182.061L407.755,181.169L409.204,180.257L410.653,178.914L412.102,178.095L413.551,177.477L415,176.64L416.449,175.968L417.898,175.48L419.347,174.721L420.796,174.051L422.245,173.581L423.694,172.816L425.143,172.119L426.592,171.614L428.041,170.805L429.49,170.049L430.939,169.474L432.388,168.718L433.837,167.772L435.286,166.974L436.735,165.978L438.184,165.274L439.633,164.593L441.082,163.586L442.531,162.83L443.98,162.128L445.429,161.286L446.878,160.588L448.327,160.121L449.776,159.447L451.224,158.938L452.673,158.378L454.122,157.7L455.571,157.019L457.02,156.39L458.469,155.761L459.918,155.111L461.367,154.561L462.816,153.95L464.265,153.345L465.714,152.833L467.163,152.243L468.612,151.635L470.061,150.979L471.51,150.192L472.959,149.631L474.408,149.025L475.857,148.389L477.306,147.923L478.755,147.423L480.204,146.902L481.653,146.583L483.102,146.192L484.551,145.3L486,144.682L487.449,144.102L488.898,143.316L490.347,142.987L491.796,142.547L493.245,142.132L494.694,141.801L496.143,141.301L497.592,140.79L499.041,140.204L500.49,139.589L501.939,138.608L503.388,137.776L504.837,137.329L506.286,136.726L507.735,136.311L509.184,135.811L510.633,135.236L512.082,134.719L513.531,134.308L514.98,133.678L516.429,132.986L517.878,132.473L519.327,131.776L520.776,131.422L522.224,131.073L523.673,130.607L525.122,130.167L526.571,129.776L528.02,129.138L529.469,128.607L530.918,128.064L532.367,127.331L533.816,126.781L535.265,126.49L536.714,125.949L538.163,125.551L539.612,125.194L541.061,124.743L542.51,124.301L543.959,123.792L545.408,123.122L546.857,122.406L548.306,121.688L549.755,120.941L551.204,120.402L552.653,119.991L554.102,119.481L555.551,119.055L557,118.594L558.449,117.974L559.898,117.559L561.347,117.169L562.796,116.303L564.245,115.563L565.694,115.106L567.143,114.636L568.592,114.298L570.041,114.031L571.49,113.467L572.939,113.094L574.388,112.722L575.837,111.999L577.286,111.221L578.735,110.637L580.184,109.845L581.633,109.425L583.082,109.041L584.531,108.379L585.98,107.951L587.429,107.544L588.878,106.964L590.327,106.347L591.776,105.951L593.224,105.295L594.673,104.875L596.122,104.603L597.571,104.021L599.02,103.63L600.469,103.392L601.918,103.033L603.367,102.667L604.816,102.053L606.265,101.329L607.714,100.601L609.163,100.117L610.612,99.638L612.061,99.36L613.51,98.941L614.959,98.448L616.408,98.177L617.857,97.893L619.306,97.407L620.755,97.111L622.204,96.701L623.653,96.254L625.102,95.852L626.551,95.59L628,95.23L629.449,95.033L630.898,94.763L632.347,94.397L633.796,94.151L635.245,93.985L636.694,93.409L638.143,92.843L639.592,92.29L641.041,91.739L642.49,91.317L643.939,91.056L645.388,90.63L646.837,90.366L648.286,89.996L649.735,89.456L651.184,89.016L652.633,88.629L654.082,88.052L655.531,87.642L656.98,87.245L658.429,86.777L659.878,86.393L661.327,85.957L662.776,85.315L664.224,84.933L665.673,84.574L667.122,84.199L668.571,83.766L670.02,83.338L671.469,82.868L672.918,82.596L674.367,82.426L675.816,82.023L677.265,81.686L678.714,81.425L680.163,81.111L681.612,80.812L683.061,80.579L684.51,80.21L685.959,79.872L687.408,79.682L688.857,79.245L690.306,78.833L691.755,78.654L693.204,78.396L694.653,78.193L696.102,77.968L697.551,77.54L699,77.111L700.449,76.798L701.898,76.505L703.347,76.204L704.796,75.825L706.245,75.529L707.694,75.314L709.143,75.06L710.592,74.639L712.041,74.376L713.49,74.057L714.939,73.522L716.388,73.091L717.837,72.869L719.286,72.523L720.735,72.073L722.184,71.716L723.633,71.256L725.082,70.906L726.531,70.514L727.98,70.053L729.429,69.697L730.878,69.364L732.327,68.941L733.776,68.579L735.224,68.248L736.673,67.731L738.122,67.421L739.571,67.181L741.02,66.681L742.469,66.504L743.918,66.201L745.367,65.711L746.816,65.457L748.265,65.163L749.714,64.795L751.163,64.573L752.612,64.345L754.061,64.115L755.51,63.948L756.959,63.634L758.408,63.206L759.857,62.811L761.306,62.33L762.755,61.756L764.204,61.493L765.653,61.181L767.102,60.88L768.551,60.464L770,60"/></g></svg>