<svg xmlns="http://www.w3.org/2000/svg" width="830" height="470" fill="currentColor" class="plot-d6a7b5" font-family="system-ui, sans-serif" font-size="10" style="--plot-background:white;display:block;height:intrinsic;max-width:100%;color:#1e90ff" text-anchor="middle" viewBox="0 0 830 470">
    <style>
        :where(.plot-d6a7b5 text),:where(.plot-d6a7b5 tspan){white-space:pre}
    </style>
    <path stroke="currentColor" stroke-opacity=".1" d="
M60
410
h710
M60
378.557
h710
M60
347.114
h710
M60
315.671
h710
M60
284.227
h710
M60
252.784
h710
M60
221.341
h710
M60
189.898
h710
M60
158.455
h710
M60
127.012
h710
M60
95.568
h710
M60
64.125
h710" aria-hidden="true" aria-label="y-grid"/>
    <path fill="none" stroke="currentColor" d="
M60
410
h-6
m6
-31.443
h-6
m6
-31.443
h-6
m6
-31.444
h-6
m6
-31.443
h-6
m6
-31.443
h-6
m6
-31.443
h-6
m6
-31.443
h-6
m6
-31.443
h-6
m6
-31.443
h-6
m6
-31.444
h-6
m6
-31.443
h-6" aria-hidden="true" aria-label="y-axis tick"/>
    <g aria-label="y-axis tick label" font-variant="tabular-nums" text-anchor="end">
        <text y=".32em" transform="translate(51 410)">0</text>
        <text y=".32em" transform="translate(51 378.557)">5,000</text>
        <text y=".32em" transform="translate(51 347.114)">10,000</text>
        <text y=".32em" transform="translate(51 315.67)">15,000</text>
        <text y=".32em" transform="translate(51 284.227)">20,000</text>
        <text y=".32em" transform="translate(51 252.784)">25,000</text>
        <text y=".32em" transform="translate(51 221.341)">30,000</text>
        <text y=".32em" transform="translate(51 189.898)">35,000</text>
        <text y=".32em" transform="translate(51 158.455)">40,000</text>
        <text y=".32em" transform="translate(51 127.012)">45,000</text>
        <text y=".32em" transform="translate(51 95.568)">50,000</text>
        <text y=".32em" transform="translate(51 64.125)">55,000</text>
    </g>
    <text y=".71em" aria-label="y-axis label" text-anchor="start" transform="translate(3 3)">↑ Visible vestiges (30 days)</text>
    <path fill="none" stroke="currentColor" d="
M80.597
410
v6
m55.128
-6
v6
m55.734
-6
v6
m55.734
-6
v6
m55.127
-6
v6
m55.129
-6
v6
m55.734
-6
v6
m55.733
-6
v6
m54.523
-6
v6
m55.128
-6
v6
m55.733
-6
v6
m55.734
-6
v6
m54.522
-6
v6" aria-hidden="true" aria-label="x-axis tick"/>
    <g aria-label="x-axis tick label" font-variant="tabular-nums">
        <text transform="translate(80.597 419)"><tspan x="0" y=".71em">Apr</tspan><tspan x="0" dy="1em">2023</tspan></text>
        <text y=".71em" transform="translate(135.725 419)">Jul</text>
        <text y=".71em" transform="translate(191.459 419)">Oct</text>
        <text transform="translate(247.193 419)"><tspan x="0" y=".71em">Jan</tspan><tspan x="0" dy="1em">2024</tspan></text>
        <text y=".71em" transform="translate(302.32 419)">Apr</text>
        <text y=".71em" transform="translate(357.449 419)">Jul</text>
        <text y=".71em" transform="translate(413.183 419)">Oct</text>
        <text transform="translate(468.916 419)"><tspan x="0" y=".71em">Jan</tspan><tspan x="0" dy="1em">2025</tspan></text>
        <text y=".71em" transform="translate(523.439 419)">Apr</text>
        <text y=".71em" transform="translate(578.567 419)">Jul</text>
        <text y=".71em" transform="translate(634.3 419)">Oct</text>
        <text transform="translate(690.034 419)"><tspan x="0" y=".71em">Jan</tspan><tspan x="0" dy="1em">2026</tspan></text>
        <text y=".71em" transform="translate(744.556 419)">Apr</text>
    </g>
    <path fill="none" stroke="currentColor" stroke-linecap="round" stroke-linejoin="round" stroke-width="1.5" d="
m60
410
.404
-3.157
.404
-11.546
.404
-6.226
.403
-4.414
.404
-7.282
.404
-5.736
.404
-5.376
.404
-10.88
.404
-8.609
.404
-10.219
.404
-15.828
.403
-14.923
.404
-7.748
.404
-11.213
.404
-7.615
.404
-8.729
.404
-11.414
.404
-7.684
.403
-7.534
.404
-10.225
.404
-11.339
.404
-8.03
.404
-13.703
.404
-6.49
.404
-6.056
.404
-10.923
.403
-10.458
.404
-8.05
.404
-11.219
.404
-8.03
.404
1.358
.404
-9.565
.404
-8.112
.404
.025
.403
-1.824
.404
-.314
.404
6.282
.404
.082
.404
1.88
.404
10.012
.404
1.471
.403
-6.314
.404
-1.389
.404
-7.654
.404
-1.622
.404
2.597
.404
-4.327
.404
-2.515
.404
2.949
.403
-1.767
.404
-4.641
.404
1.881
.404
-10.458
.404
-10.037
.404
2.553
.404
-1.962
.403
-3.157
.404
1.176
.404
-3.031
.404
-3.169
.404
4.188
.404
-1.421
.404
-6.113
.404
-3.956
.403
-9.797
.404
-4.931
.404
-.069
.404
-3.653
.404
-4
.404
6.113
.404
4.603
.403
2.396
.404
5.754
.404
-2.132
.404
-3.553
.404
4.962
.404
.264
.404
-.365
.404
8.081
.403
4.893
.404
4.081
.404
8.728
.404
5.453
.404
-2.447
.404
3.975
.404
-.491
.404
1.83
.403
8.855
.404
1.037
.404
3.088
.404
9.339
.404
5.653
.404
4.075
.404
7.741
.403
-1.113
.404
-.66
.404
4.019
.404
2.886
.404
1.189
.404
3.571
.404
.548
.404
4.012
.403
6.892
.404
3.295
.404
-3.238
.404
1.716
.404
-2.735
.404
-1.968
.404
1.282
.403
-1.672
.404
1.779
.404
4.509
.404
2.629
.404
2.044
.404
3.962
.404
.018
.404
-2.075
.403
6.157
.404
2.056
.404
-1.031
.404
2.402
.404
-.044
.404
2.05
.404
5.503
.404
.78
.403
-3.044
.404
-1.107
.404
-4.308
.404
-.371
.404
2.484
.404
-1.905
.404
-1.176
.403
4.32
.404
.862
.404
.666
.404
2.597
.404
-4.301
.404
-1.817
.404
2.144
.404
-.987
.403
-1.975
.404
1.912
.404
.258
.404
-.39
.404
3.402
.404
1.075
.404
.422
.403
1.062
.404
-1.962
.404
-.176
.404
1.761
.404
-1.968
.404
-.34
.404
3.415
.404
5.54
.403
1.585
.404
4.396
.404
-.069
.404
.314
.404
2.025
.404
.176
.404
-.786
.403
3.918
.404
-.239
.404
1.421
.404
6.276
.404
1.723
.404
1.006
.404
2.899
.404
.327
.403
.34
.404
.025
.404
1.327
.404
-.994
.404
2.925
.404
-.566
.404
.251
.404
1.478
.403
-1.792
.404
-.044
.404
1.314
.404
-1.509
.404
-1.302
.404
-.107
.404
-2.654
.403
-1.339
.404
2.063
.404
.05
.404
-.686
.404
2.943
.404
-.924
.404
1.333
.404
2.679
.403
.327
.404
-.604
.404
2.145
.404
-.767
.404
-.623
.404
3.119
.404
-.603
.403
.239
.404
2.169
.404
-1.308
.404
-1.075
.404
1.176
.404
-1.365
.404
.836
.404
1.277
.403
-1.107
.404
.334
.404
1.867
.404
.491
.404
-1.321
.404
3.704
.404
2.333
.403
-1.094
.404
2.729
.404
-.924
.404
-.73
.404
1.516
.404
-2.038
.404
.013
.404
.019
.403
-2.377
.404
-1.585
.404
3.478
.404
-3.025
.404
-1.352
.404
1.195
.404
-1.585
.404
-.415
.403
1.679
.404
-1.73
.404
-1.201
.404
1.044
.404
-2.798
.404
-.22
.404
1.39
.403
-.629
.404
-2.201
.404
-1.61
.404
-4.107
.404
-1.32
h.404
l.404
-1.503
.404
-1.434
.403
2.993
.404
-1.855
.404
-.547
.404
2.365
.404
-1.327
.404
.295
.404
3.855
.403
-.604
.404
-2.647
.404
3.459
.404
-.195
.404
-2.415
.404
.918
.404
-3.119
.404
-.365
.403
.66
.404
-1.93
.404
-.736
.404
2.333
.404
-.685
.404
-.239
.404
2.817
.404
1.786
.403
3.308
.404
6.42
.404
1.164
.404
-.516
.404
1.698
.404
.352
.404
-1.327
.403
1.717
.404
.484
.404
-1.113
.404
2.082
.404
.874
.404
-.843
.404
1.252
.404
-.252
.403
.113
.404
1.233
.404
2.547
.404
2.723
.404
4.062
.404
1.503
.404
2.969
.403
5.056
.404
-1.12
.404
.686
.404
2.157
.404
-.724
.404
1.132
.404
1.925
.404
.773
.403
1.874
.404
1.453
.404
1.396
.404
.358
.404
.12
.404
-2.723
.404
-2.314
.403
1.345
.404
.019
.404
.793
.404
.742
.404
.264
.404
1.144
.404
3.082
.404
-.566
.403
-.704
.404
1.012
.404
-1.893
.404
1.195
.404
1.415
.404
-1.207
.404
-.403
.404
4.107
.403
-.158
.404
.396
.404
1.994
.404
-3.32
.404
-.9
.404
1.013
.404
-1.717
.403
.843
.404
1.257
.404
1.107
.404
1.415
.404
3.874
.404
1.339
.404
-2.207
.404
-.949
.403
-2.73
.404
-.32
.404
1.352
.404
.056
.404
-.126
.404
1.39
.404
.598
.403
.792
.404
2.522
.404
-4.201
.404
-3.214
.404
.082
.404
-.251
.404
.44
.404
3.037
.403
-.264
.404
1.39
.404
2.968
.404
-1.421
.404
-3.993
.404
-.359
.404
-3.232
.403
-.51
.404
.541
.404
-1.798
.404
.666
.404
2.151
.404
1.119
.404
.824
.404
2.887
.403
-.956
.404
-.082
.404
1.956
.404
-1.283
.404
.572
.404
3.132
.404
.465
.404
.189
.403
2.069
.404
.138
.404
-2.226
.404
-.113
.404
-1.151
.404
-.094
.404
1.182
.403
-.975
.404
.824
.404
3.603
.404
2.396
.404
2.359
.404
3.138
.404
-.233
.404
-.138
.403
3.282
.404
.554
.404
1.723
.404
2.54
.404
2.069
.404
1.22
.404
4.019
.403
-1.27
.404
-2.415
.404
.239
.404
-1.315
.404
-1.509
.404
.799
.404
-.484
.404
2.873
.403
2.899
.404
1.535
.404
.365
.404
.754
.404
-2.452
.404
.075
.404
.78
.403
-1.61
.404
-.824
.404
.415
.404
-2.836
.404
.227
.404
.729
.404
.214
.404
-1.409
.403
-.547
.404
-2.245
.404
-.019
.404
1.61
.404
-1.283
.404
-1.408
.404
2.584
.404
2.063
.403
2.094
.404
2.603
.404
.434
.404
-.629
.404
1.931
.404
-1.415
.404
-.346
.403
2.968
.404
1.491
.404
1.503
.404
2.893
.404
-.145
.404
-.264
.404
1.27
.404
.749
.403
1.1
.404
2.163
.404
.698
.404
1.183
.404
1
.404
.1
.404
1.346
.403
1.239
.404
-2.151
.404
-2.151
.404
1.491
.404
-.076
.404
-1.553
.404
-.346
.404
-1.327
.403
-.949
.404
-.195
.404
-1.006
.404
-1.359
.404
.843
.404
-.088
.404
-1.503
.404
-.591
.403
-2.579
.404
-.698
.404
1.541
.404
-.585
.404
1.113
.404
-.081
.404
-1.547
.403
1.025
.404
.018
.404
-1.251
.404
.258
.404
1.585
.404
.27
.404
1.245
.404
1.811
.403
.032
.404
-1.422
.404
-1.106
.404
-1.019
.404
.767
.404
1.22
.404
.396
.403
-.195
.404
-.025
.404
.069
.404
.68
.404
.125
.404
-1.05
.404
-2.912
.404
.755
.403
-1.742
.404
-.503
.404
1.836
.404
-1.597
.404
1.176
.404
2.094
.404
-2.779
.403
-2.925
.404
-.899
.404
-3.622
.404
-1.157
.404
-.686
.404
-1.723
.404
-.471
.404
.918
.403
-.837
.404
1.522
.404
.654
.404
-3.886
.404
-1.686
.404
-.591
.404
-1.132
.404
.78
.403
.635
.404
-2.616
.404
-.415
.404
-.176
.404
1.49
.404
-1.326
.404
-2.139
.403
-4.509
.404
-1.534
.404
-.912
.404
-4.471
.404
-2.006
.404
1.924
.404
1.554
.404
.704
.403
2.22
.404
-2.151
.404
-1.956
.404
1.233
.404
-.994
.404
-.868
.404
.082
.403
-1.503
.404
1.704
.404
2.585
.404
-.924
.404
-1.705
.404
1.365
.404
-1.855
.404
-.233
.403
1.541
.404
.226
.404
1.893
.404
1.403
.404
1.194
.404
3.541
.404
4.075
.403
-1.579
.404
.956
.404
3.214
.404
1.629
.404
.786
.404
.93
.404
.541
.404
1.591
.403
3.145
.404
.188
.404
-.855
.404
1.968
.404
-.591
.404
1.164
.404
2.735
.404
-.075
.403
.213
.404
2.736
.404
1.459
.404
-.415
.404
1.446
.404
-2.861
.404
-.547
.403
1.163
.404
1.881
.404
2.679
.404
3.597
.404
2.848
.404
2.862
.404
5.326
.404
2.943
.403
2.283
.404
2.088
.404
2.018
.404
2.516
.404
2.107
.404
1.245
.404
1.528
.403
3.358
.404
1.409
.404
-1.239
.404
1.811
.404
.736
.404
-.692
.404
.629
.404
1.182
.403
-.195
.404
.956
.404
.811
.404
.541
.404
2.748
.404
.566
h.404
l.403
-1.39
.404
-2.572
.404
-2.786
.404
-1.188
.404
-1.786
.404
-2.654
.404
-1.465
.404
-1.314
.403
-2.164
.404
-1.761
.404
-2.421
.404
-1.76
.404
-.994
.404
-1.597
.404
-.849
.404
-.415
.403
2.113
.404
.748
.404
1.207
.404
.296
.404
.113
.404
-.075
.404
-.397
.403
.441
.404
1.547
.404
.239
.404
.54
.404
1.283
.404
.459
.404
-.849
.404
.787
.403
.251
.404
-.528
.404
.484
.404
.648
.404
-.761
.404
-.786
.404
.824
.403
-.239
.404
.943
.404
.038
.404
-1.862
.404
-.333
.404
-1.302
h.404
l.404
-.339
.403
-.642
.404
-1.232
.404
-.195
.404
-.711
.404
-.579
.404
1.321
.404
-1.138
.404
-1.459
.403
.465
.404
-1.151
.404
.007
.404
.503
.404
1.547
.404
.289
.404
.604
.403
-.378
.404
-3.131
.404
-.157
.404
-1.101
.404
.786
.404
.006
.404
.22
.404
-1.018
.403
1.32
.404
1.17
.404
.145
.404
1.069
.404
-1.422
.404
-2.364
.404
.101
.403
-1.296
.404
.208
.404
.283
.404
-1.101
.404
-1.094
.404
1.144
.404
-.383
.404
-1.113
.403
1.39
.404
-2.246
.404
-.433
.404
-.73
.404
-1.119
.404
-.799
.404
.252
.403
1.371
.404
-.208
.404
.855
.404
-2.132
.404
-2.163
.404
-.761
.404
.271
.404
-2.447
.403
.032
.404
.182
.404
.164
.404
.446
.404
1.572
.404
-.452
.404
1.119
.404
-.862
.403
-.622
.404
2.981
.404
1.521
.404
-.037
.404
1.553
.404
-.352
.404
-.352
.403
2.572
.404
-.145
.404
-2.408
.404
1.213
.404
.61
.404
-1.025
.404
.925
.404
.999
.403
.642
.404
2.553
.404
2.107
.404
.836
.404
.661
.404
-.051
.404
-.371
.403
.466
.404
-1.126
.404
.522
.404
.126
.404
.836
.404
.635
.404
1.195
.404
.623
.403
-1.529
.404
.233
.404
.535
h.404
l.404
2.226
.404
.434
.404
-.529
.403
-.232
.404
1.855
.404
.126
.404
.742
.404
.629
.404
.176
.404
.163
.404
-.371
.403
-.918
.404
-.05
.404
-.145
.404
-.163
.404
1.238
.404
-.622
.404
-2.522
.404
.434
.403
-.585
.404
.308
.404
-.188
.404
-.874
.404
-.529
.404
.73
.404
.666
.403
-.729
.404
-.541
.404
-.56
.404
-1.521
.404
-.422
.404
-1.364
.404
-.981
.404
-.881
.403
-1.987
.404
-1.534
.404
-1.107
.404
-1.623
.404
-.566
.404
-.132
.404
-2.239
.403
-.603
.404
-.063
.404
-.748
.404
.27
.404
2.044
.404
-1.673
.404
-2.453
.404
-2.257
.403
-3.497
.404
-2.515
.404
-.598
.404
-3.112
.404
-3.755
.404
-1.459
.404
-1.22
.404
-1.66
.403
-1.239
.404
-.748
.404
-1.975
.404
.692
.404
1.534
.404
.239
.404
1.591
.403
1.114
.404
.974
.404
1.359
.404
-.818
.404
-.792
.404
1.144
.404
-.195
.404
-.434
.403
.629
.404
.019
.404
-.339
.404
4.842
.404
3.899
.404
3.572
.404
3.685
.403
3.163
.404
1.22
.404
3.597
.404
3.629
.404
1.823
.404
1.327
.404
2.264
.404
.899
.403
1.95
.404
2.176
.404
1.22
.404
-.529
.404
.761
.404
-.289
.404
.283
.403
.522
.404
.874
.404
1.063
.404
2.151
.404
1.911
.404
1.051
.404
1.314
.404
.151
.403
.277
.404
-.095
.404
-.44
.404
-.566
.404
-.057
.404
-.232
.404
-.057
.404
-.289
.403
-1.679
.404
-1.327
.404
-2.616
.404
-.05
.404
-.598
.404
.39
.404
.484
.403
-.207
.404
-.635
.404
.075
.404
-.503
.404
-2.905
.404
-.629
.404
.465
.404
-1.641
.403
-.233
.404
.05
.404
-.742
.404
-.283
.404
-.163
.404
-.302
.404
-1.006
.403
-1.176
.404
-2.264
.404
.283
.404
.251
.404
.139
.404
-.346
.404
1.302
.404
1.886
.403
1.239
.404
3.138
.404
.201
.404
.592
.404
1.025
h.404
l.404
1.358
.403
.88
.404
.315
.404
1.264
.404
3.779
.404
-.176
.404
-.434
.404
1.371
.404
-.629
.403
.29
.404
1.113
.404
.069
.404
.371
.404
1.333
.404
1.384
.404
1.786
.404
2.723
.403
-.919
.404
-.195
.404
1.277
.404
.962
h.404
l.404
-.232
.404
.333
.403
-1.113
.404
.49
.404
-.742
.404
-1.924
.404
-.893
.404
-2.453
.404
-1.062
.404
.339
.403
.12
.404
-.233
.404
.736
.404
.603
.404
.598
.404
.566
.404
-1.164
.403
-1.119
.404
.547
.404
-.912
.404
.252
.404
.358
.404
-1.018
.404
-.195
.404
1.15
.403
.095
.404
-1.195
.404
-.943
.404
-.793
.404
.315
.404
-.126
.404
.283
.403
-.421
.404
.742
.404
1.106
.404
.887
.404
1.748
.404
.032
.404
-.786
.404
.503
.403
.1
.404
.158
.404
.295
.404
-.239
.404
.855
.404
1.315
.404
.754
.404
.428
.403
1.528
.404
-.119
.404
-.29
.404
1.208
.404
.471
.404
-.138
.404
-.742
.403
.352
.404
-.371
.404
.937
.404
-.094
.404
.534
.404
.459
.404
.271
.404
.736
.403
.981
.404
-.176
.404
.345
.404
1.202
.404
.327
.404
-1.013
.404
.271
.403
-.359
.404
-.05
.404
-.503
.404
-.334
.404
-.106
.404
.471
.404
-.71
.404
-.749
.403
-.365
.404
-.999
.404
-.032
.404
-.924
h.404
l.404
1.031
.404
.522
.404
.893
.403
-.025
.404
.075
.404
-.245
.404
-.566
.404
-.277
.404
-2.402
.404
-1.302
.403
-.276
.404
-.918
.404
-.478
.404
.496
.404
-.547
.404
-1.528
.404
.472
.404
-1.308
.403
.421
.404
.509
.404
-.93
.404
-.29
.404
.158
.404
.264
.404
-.516
.403
1.145
.404
-.591
.404
.427
.404
-.082
.404
.063
.404
-.302
.404
.026
.404
-.371
.403
-.654
.404
-.126
.404
-.403
.404
.145
.404
1.66
.404
.459
.404
.088
.403
.283
.404
-.371
.404
.088
.404
1.648
.404
.868
.404
-.076
.404
1.032
.404
-.246
.403
-1.012
.404
-1.044
.404
-2.239
.404
-1.195
.404
-.471
.404
.314
.404
-.044
.404
-.012
.403
-.592
.404
.283
.404
.095
.404
-1.227
.404
-1.05
.404
.113
.404
-.138
.403
-.277
.404
.755
.404
-.201
.404
-.648
.404
-.685
.404
.094
.404
.22
.404
.855
.403
.038
.404
-.34
.404
1.164
.404
-.793
.404
.315
.404
.094
.404
-.113
.403
1
.404
1.025
.404
.22
.404
-.214
.404
-.05
.404
-1.365
h.404
l.404
.453
.403
-1.063
.404
-.471
.404
.735
.404
-.182
.404
-.075
.404
.584
.404
-.44
.403
.088
.404
-.912
.404
.692
.404
.132
.404
-.377
.404
.327
.404
-.05
.404
-.202
.403
-1.798
.404
-2.34
.404
.365
.404
-1.509
.404
-.038
.404
.113
.404
-1.188
.404
.157
.403
.333
.404
-.346
.404
.239
.404
.919
.404
-.177
.404
-.295
.404
.748
.403
-.289
.404
.314
.404
.705
.404
-1.189
.404
-.522
.404
.862
.404
.27
.404
1.138
.403
.088
.404
1.063
.404
1.12
.404
.358
.404
-.295
.404
.773
.404
2.05
.403
1.535
.404
.578
.404
1.371
.404
-.163
.404
.968
.404
1.365
.404
1.207
.404
-.069
.403
1.006
.404
-.321
.404
.95
.404
.704
.404
-.465
.404
.346
.404
.408
.404
.724
.403
.673
.404
.811
.404
.824
.404
.195
.404
.729
.404
.352
.404
.837
.403
.314
.404
.195
.404
-.56
.404
-.063
.404
-.66
.404
.428
.404
.478
.404
.603
.403
.673
.404
1.484
.404
-.32
.404
.553
.404
-.101
.404
1.497
.404
.069
.403
.843
.404
-.585
.404
.409
.404
1.522
.404
.591
.404
.163
.404
-.49
.404
.094
.403
.811
.404
.258
.404
.378
.404
-.139
.404
.679
.404
.158
.404
.377
.403
-.182
.404
1.27
.404
1.044
.404
1.207
.404
.12
.404
.603
.404
.478
.404
.202
.403
.094
.404
1.107
.404
.553
.404
.39
.404
.157
.404
.403
.404
.704
.404
.692
.403
-.101
.404
.044
.404
.208
.404
.125
.404
.73
.404
.516
.404
.32
.403
.176
.404
.038
.404
.315
.404
.132
.404
.05
.404
.27
.404
.453
.404
-.352
.403
-.019
.404
-.182
.404
-.271
.404
-.566
.404
-.32
.404
-.258
.404
-.378
.403
-.05
.404
-.176
.404
-.088
.404
-.113
.404
-.554
.404
-.805
.404
-.037
.404
-.365
.403
.189
.404
.006
.404
.717
.404
-.302
.404
-.824
.404
.113
.404
-.44
.403
-.22
.404
-.233
.404
-.239
.404
-.025
.404
-.201
.404
-.151
.404
-.201
.404
-.189
.403
-.409
.404
.007
.404
.61
.404
-.258
.404
.088
.404
.258
.404
.138
.404
.195
.403
.403
.404
-.07
.404
.365
.404
.629
.404
.094
.404
.579
.404
.107
.403
.056
.404
-.012
.404
.44
.404
.572
.404
-.037
.404
.578
.404
-.182
.404
-.202
.403
-.012
.404
-.302
.404
-.34
.404
-.194
.404
.377
.404
.088
.404
.113
.403
.113
.404
-.17
.404
.214
.404
-.503
.404
.113
.404
-.125
.404
-.132
.404
-.548
.403
.07
.404
-.365
.404
-.403
.404
.063
.404
-.981
.404
-.541
.404
-.069
.403
-.509
h.404
l.404
-.006
.404
.239
.404
-.038
.404
.641
.404
.365
.404
-.057
.403
.151
.404
.107
.404
.057
.404
-.78
.404
.126
.404
.163
.404
.315
.404
-.245
.403
.031
.404
-.006
.404
-.051
.404
-.251
.404
-.252
.404
.239
.404
.145
.403
.283
.404
.094
.404
.315
.404
.83
.404
.314
.404
-.339
.404
.32
.404
-.195
.403
.239
.404
-.717
.404
-.515
.404
-.264
.404
-.12
.404
-.478
.404
-.063
.403
.271
.404
.421
.404
.761
.404
.157
.404
-.251
.404
-.214
.404
.402
.404
.346
.403
.308
.404
.132
.404
-.113
.404
.277
.404
.327
.404
.119
.404
.636
.404
.371
.403
-.038
.404
.182
.404
.076
.404
.484
.404
.283
.404
.239
.404
.138
.403
.415
.404
.164
.404
.396
.404
-.164
.404
-.031
.404
-.937
.404
-.673
.404
-.075
.403
.037
.404
-.157
.404
.447
.404
.157
.404
-.239
.404
-.478
.404
-.189
.403
-.308
.404
.277
.404
.402
.404
-.012
.404
-.698
.404
-.315
.404
-.138
.404
-.277
.403
-.157
.404
-.245
.404
-.29
.404
-.679
.404
.145
.404
.101
.404
.125
.403
.434
.404
.082
.404
-.371
.404
.654
.404
.711
.404
.301
.404
.277
.404
.271
.403
.345
.404
.195
.404
.076
.404
.239
.404
.591
.404
.302
.404
.144
.404
.007
.403
-.069
.404
.289
.404
.748
.404
.308
.404
.246
.404
.352
.404
.025
.403
.138
.404
-.698
.404
-.346
.404
-.635
.404
-.126
.404
.221
.404
-.145
.404
-.434
.403
.553
.404
-.125
.404
-.353
.404
-.062
.404
-.447
.404
-.748
.404
-.321
.403
-.138
.404
-.189
.404
-.013
.404
-.496
.404
-.139
.404
-.025
.404
.132
.404
-.534
.403
-.547
.404
-.774
.404
-.22
.404
.006
.404
-.038
.404
.101
.404
.176
.403
.969
.404
1.119
.404
.491
.404
.144
.404
-.314
.404
.1
.404
-.107
.404
.202
.403
.201
.404
.761
.404
.61
.404
-.019
.404
.365
.404
-.145
.404
-.063
.404
.239
h.403
l.404
.289
.404
.202
.404
.188
.404
-.125
.404
.144
.404
.063
.403
.774
.404
-.088
.404
-.214
.404
-.157
.404
.075
.404
.075
.404
.164
.404
.057
.403
-.095
.404
.032
.404
.044
.404
.012
.404
.56
.404
-.069
.404
.031
.403
-.05
.404
-.151
.404
.057
.404
.339
.404
.327
.404
.264
.404
-.012
.404
.006
.403
-.358
.404
.377
.404
-.233
.404
-.056
.404
.383
.404
.17
.404
-.277
.403
-.069
.404
-.283
.404
-.302
.404
-.226
.404
-.371
.404
-.082
.404
-.189
.404
.12
.403
-.145
.404
.227
.404
.327
.404
-.044
.404
-.032
.404
-.019
.404
.189
.404
.17
.403
.056
.404
-.062
.404
-.283
.404
-.12
.404
-.044
.404
.038
.404
.364
.403
-.062
.404
.169
.404
-.257
.404
-.057
.404
.05
.404
-.006
.404
.365
.404
.364
.403
.252
.404
.075
.404
.566
.404
-.402
.404
-.069
.404
.012
.404
-.031
.403
-.478
.404
-.195
.404
-.239
.404
.019
.404
.031
.404
-.427
.404
.17
.404
.352
.403
-.302
.404
-.239
.404
-.208
.404
.12
.404
.126
.404
.239
.404
-.076
h.404
l.403
.327
.404
-.434
.404
-.1
.404
.025
.404
-.139
.404
-.503
.404
-.283
.403
.176
.404
-.308
.404
.378
.404
.069
.404
.082
.404
-.089
.404
.321
.404
-.113
.403
-.138
.404
-1.063
.404
-.403
.404
.082
.404
-.805
.404
-.685
.404
.119
.403
-.22
.404
.296
.404
-.453
.404
-.164
.404
-.478
h.404
l.404
-.421
.404
-.063
.403
.233
.404
-.101
.404
-.094
.404
-.409
.404
.007
.404
.377
.404
-.032
.403
-.39
.404
-.276
.404
-.227
.404
-.478
.404
-.113
.404
-.195
.404
.025
.404
-.238
.403
.974
.404
.208
.404
-.201
.404
.327
.404
-.195
.404
-.233
.404
.786
.404
-.239
.403
.245
.404
.076
.404
-.491
.404
-.201
.404
.214
.404
-.05
.404
-.34
.403
.251
.404
.271
.404
.396
.404
.572
.404
-.383
.404
-.176
.404
.383
.404
.334
.403
.333
.404
.415
.404
-.315
.404
-.056
.404
-.308
.404
.069
.404
-1.038
.403
-.899
.404
-.541
.404
-.333
.404
-.258
.404
-.799
.404
-.333
.404
-.975
.404
-.685
.403
-.547
.404
-.082
.404
-.39
.404
-.893
.404
-.251
.404
-.698
.404
-.403
.403
-.484
.404
-.44
.404
-.139
.404
-.239
.404
-.836
.404
-.145
.404
-.484
.404
-1.723
.403
-.402
.404
-.189
.404
-.428
.404
-.314
.404
.151
.404
.113
.404
.352
.404
.604
.403
.295
.404
.617
.404
.905
.404
-.119
.404
1.157
.404
.773
.404
.158
.403
.685
.404
.057
.404
.509
.404
.34
.404
.786
.404
.352
.404
.333
.404
.17
.403
-.239
.404
.579
.404
1.031
.404
-.076
.404
.07
.404
1.238
.404
-.188
.403
-.025
.404
.471
.404
.44
.404
.189
.404
.403
.404
.547
.404
.364
.404
.076
.403
.113
.404
.264
.404
.164
.404
-.434
.404
-.157
.404
-.12
.404
.182
.404
-.163
.403
.635
.404
-.201
.404
.314
.404
.051
.404
.063
.404
-.045
.404
.221
.403
-.057
.404
-.082
.404
.447
.404
.484
.404
.591
.404
.711
.404
.905
.404
.409
.403
.478
.404
.252
.404
.792
.404
.352
.404
.22
.404
.459
.404
.409
.403
.176
.404
-.308
.404
.17
.404
-.069
.404
.251
.404
-.094
.404
.704
.404
-.371
.403
.006
.404
.088
.404
.007
.404
-.101
.404
.308
.404
.076
.404
.195
.403
-.044
.404
-.019
.404
-.126
.404
-.094
.404
-.026
h.404
l.404
-.257
.404
-.246
.403
-.119
.404
-.145
.404
-.126
.404
-.144
.404
-.063
.404
-.252
.404
-.333
.404
-.094
.403
-.019
.404
-.226
.404
-.743
.404
-.27
.404
.057
.404
.163
.404
-.648
.403
-.012
.404
.207
.404
-.364
.404
.037
.404
-.358
.404
-.484
.404
.056
.404
.038
.403
-.409
.404
-.214
.404
-.025
.404
-.773" aria-label="line"/>
</svg>
