<svg class="plot-d6a7b5" fill="currentColor" font-family="system-ui, sans-serif" font-size="10" text-anchor="middle" width="830" height="470" viewBox="0 0 830 470" xmlns="http://www.w3.org/2000/svg" xmlns:xlink="http://www.w3.org/1999/xlink" color="#1e90ff"><style>:where(.plot-d6a7b5){--plot-background: white;display:block;height:intrinsic;max-width:100%}:where(.plot-d6a7b5 text),:where(.plot-d6a7b5 tspan){white-space:pre}</style><g aria-label="y-grid" stroke="currentColor" stroke-opacity=".1"><line x1="60" x2="770" y1="410" y2="410"/><line x1="60" x2="770" y1="378.557" y2="378.557"/><line x1="60" x2="770" y1="347.114" y2="347.114"/><line x1="60" x2="770" y1="315.671" y2="315.671"/><line x1="60" x2="770" y1="284.227" y2="284.227"/><line x1="60" x2="770" y1="252.784" y2="252.784"/><line x1="60" x2="770" y1="221.341" y2="221.341"/><line x1="60" x2="770" y1="189.898" y2="189.898"/><line x1="60" x2="770" y1="158.455" y2="158.455"/><line x1="60" x2="770" y1="127.012" y2="127.012"/><line x1="60" x2="770" y1="95.568" y2="95.568"/><line x1="60" x2="770" y1="64.125" y2="64.125"/></g><g aria-label="y-axis tick" fill="none" stroke="currentColor"><path transform="translate(60,410)" d="M0,0L-6,0"/><path transform="translate(60,378.55684921661634)" d="M0,0L-6,0"/><path transform="translate(60,347.11369843323274)" d="M0,0L-6,0"/><path transform="translate(60,315.6705476498491)" d="M0,0L-6,0"/><path transform="translate(60,284.2273968664655)" d="M0,0L-6,0"/><path transform="translate(60,252.7842460830818)" d="M0,0L-6,0"/><path transform="translate(60,221.34109529969817)" d="M0,0L-6,0"/><path transform="translate(60,189.8979445163145)" d="M0,0L-6,0"/><path transform="translate(60,158.45479373293085)" d="M0,0L-6,0"/><path transform="translate(60,127.01164294954722)" d="M0,0L-6,0"/><path transform="translate(60,95.56849216616357)" d="M0,0L-6,0"/><path transform="translate(60,64.12534138277994)" d="M0,0L-6,0"/></g><g aria-label="y-axis tick label" text-anchor="end" font-variant="tabular-nums"><text y=".32em" transform="translate(-9,0) translate(60,410)">0</text><text y=".32em" transform="translate(-9,0) translate(60,378.55684921661634)">5,000</text><text y=".32em" transform="translate(-9,0) translate(60,347.11369843323274)">10,000</text><text y=".32em" transform="translate(-9,0) translate(60,315.6705476498491)">15,000</text><text y=".32em" transform="translate(-9,0) translate(60,284.2273968664655)">20,000</text><text y=".32em" transform="translate(-9,0) translate(60,252.7842460830818)">25,000</text><text y=".32em" transform="translate(-9,0) translate(60,221.34109529969817)">30,000</text><text y=".32em" transform="translate(-9,0) translate(60,189.8979445163145)">35,000</text><text y=".32em" transform="translate(-9,0) translate(60,158.45479373293085)">40,000</text><text y=".32em" transform="translate(-9,0) translate(60,127.01164294954722)">45,000</text><text y=".32em" transform="translate(-9,0) translate(60,95.56849216616357)">50,000</text><text y=".32em" transform="translate(-9,0) translate(60,64.12534138277994)">55,000</text></g><g aria-label="y-axis label" text-anchor="start"><text y=".71em" transform="translate(-57,-57) translate(60,60)">↑ Visible Vestiges (30 days)</text></g><g aria-label="x-axis tick" fill="none" stroke="currentColor"><path transform="translate(90.0997506234414,410)" d="M0,0L0,6"/><path transform="translate(170.66084788029926,410)" d="M0,0L0,6"/><path transform="translate(252.10723192019952,410)" d="M0,0L0,6"/><path transform="translate(333.55361596009976,410)" d="M0,0L0,6"/><path transform="translate(414.1147132169576,410)" d="M0,0L0,6"/><path transform="translate(494.6758104738155,410)" d="M0,0L0,6"/><path transform="translate(576.1221945137157,410)" d="M0,0L0,6"/><path transform="translate(657.568578553616,410)" d="M0,0L0,6"/><path transform="translate(737.2443890274315,410)" d="M0,0L0,6"/></g><g aria-label="x-axis tick label" font-variant="tabular-nums"><text transform="translate(0,9) translate(90.0997506234414,410)"><tspan x="0" y=".71em">Apr</tspan><tspan x="0" dy="1em">2023</tspan></text><text y=".71em" transform="translate(0,9) translate(170.66084788029926,410)">Jul</text><text y=".71em" transform="translate(0,9) translate(252.10723192019952,410)">Oct</text><text transform="translate(0,9) translate(333.55361596009976,410)"><tspan x="0" y=".71em">Jan</tspan><tspan x="0" dy="1em">2024</tspan></text><text y=".71em" transform="translate(0,9) translate(414.1147132169576,410)">Apr</text><text y=".71em" transform="translate(0,9) translate(494.6758104738155,410)">Jul</text><text y=".71em" transform="translate(0,9) translate(576.1221945137157,410)">Oct</text><text transform="translate(0,9) translate(657.568578553616,410)"><tspan x="0" y=".71em">Jan</tspan><tspan x="0" dy="1em">2025</tspan></text><text y=".71em" transform="translate(0,9) translate(737.2443890274315,410)">Apr</text></g><g aria-label="line" fill="none" stroke="currentColor" stroke-width="1.5" stroke-linejoin="round" stroke-linecap="round"><path d="M60,410L60.59,406.843L61.18,395.297L61.771,389.071L62.361,384.657L62.951,377.375L63.541,371.639L64.131,366.263L64.722,355.383L65.312,346.774L65.902,336.555L66.492,320.727L67.082,305.804L67.672,298.056L68.263,286.843L68.853,279.228L69.443,270.499L70.033,259.085L70.623,251.401L71.214,243.867L71.804,233.642L72.394,222.303L72.984,214.273L73.574,200.57L74.165,194.08L74.755,188.024L75.345,177.101L75.935,166.643L76.525,158.593L77.116,147.374L77.706,139.344L78.296,140.702L78.886,131.137L79.476,123.025L80.067,123.05L80.657,121.226L81.247,120.912L81.837,127.194L82.427,127.276L83.017,129.156L83.608,139.168L84.198,140.639L84.788,134.325L85.378,132.936L85.968,125.282L86.559,123.66L87.149,126.257L87.739,121.93L88.329,119.415L88.919,122.364L89.51,120.597L90.1,115.956L90.69,117.837L91.28,107.379L91.87,97.342L92.461,99.895L93.051,97.933L93.641,94.776L94.231,95.952L94.821,92.921L95.411,89.752L96.002,93.94L96.592,92.519L97.182,86.406L97.772,82.45L98.362,72.653L98.953,67.722L99.543,67.653L100.133,64L100.723,60L101.313,66.113L101.904,70.716L102.494,73.112L103.084,78.866L103.674,76.734L104.264,73.181L104.855,78.143L105.445,78.407L106.035,78.042L106.625,86.123L107.215,91.016L107.805,95.097L108.396,103.825L108.986,109.278L109.576,106.831L110.166,110.806L110.756,110.315L111.347,112.145L111.937,121L112.527,122.037L113.117,125.125L113.707,134.464L114.298,140.117L114.888,144.192L115.478,151.933L116.068,150.82L116.658,150.16L117.249,154.179L117.839,157.065L118.429,158.254L119.019,161.825L119.609,162.373L120.2,166.385L120.79,173.277L121.38,176.572L121.97,173.334L122.56,175.05L123.15,172.315L123.741,170.347L124.331,171.629L124.921,169.957L125.511,171.736L126.101,176.245L126.692,178.874L127.282,180.918L127.872,184.88L128.462,184.898L129.052,182.823L129.643,188.98L130.233,191.036L130.823,190.005L131.413,192.407L132.003,192.363L132.594,194.413L133.184,199.916L133.774,200.696L134.364,197.652L134.954,196.545L135.544,192.237L136.135,191.866L136.725,194.35L137.315,192.445L137.905,191.269L138.495,195.589L139.086,196.451L139.676,197.117L140.266,199.714L140.856,195.413L141.446,193.596L142.037,195.74L142.627,194.753L143.217,192.778L143.807,194.69L144.397,194.948L144.988,194.558L145.578,197.96L146.168,199.035L146.758,199.457L147.348,200.519L147.938,198.557L148.529,198.381L149.119,200.142L149.709,198.174L150.299,197.834L150.889,201.249L151.48,206.789L152.07,208.374L152.66,212.77L153.25,212.701L153.84,213.015L154.431,215.04L155.021,215.216L155.611,214.43L156.201,218.348L156.791,218.109L157.382,219.53L157.972,225.806L158.562,227.529L159.152,228.535L159.742,231.434L160.333,231.761L160.923,232.101L161.513,232.126L162.103,233.453L162.693,232.459L163.283,235.384L163.874,234.818L164.464,235.069L165.054,236.547L165.644,234.755L166.234,234.711L166.825,236.025L167.415,234.516L168.005,233.214L168.595,233.107L169.185,230.453L169.776,229.114L170.366,231.177L170.956,231.227L171.546,230.541L172.136,233.484L172.727,232.56L173.317,233.893L173.907,236.572L174.497,236.899L175.087,236.295L175.677,238.44L176.268,237.673L176.858,237.05L177.448,240.169L178.038,239.566L178.628,239.805L179.219,241.974L179.809,240.666L180.399,239.591L180.989,240.767L181.579,239.402L182.17,240.238L182.76,241.515L183.35,240.408L183.94,240.742L184.53,242.609L185.121,243.1L185.711,241.779L186.301,245.483L186.891,247.816L187.481,246.722L188.071,249.451L188.662,248.527L189.252,247.797L189.842,249.313L190.432,247.275L191.022,247.288L191.613,247.307L192.203,244.93L192.793,243.345L193.383,246.823L193.973,243.798L194.564,242.446L195.154,243.641L195.744,242.056L196.334,241.641L196.924,243.32L197.515,241.59L198.105,240.389L198.695,241.433L199.285,238.635L199.875,238.415L200.466,239.805L201.056,239.176L201.646,236.975L202.236,235.365L202.826,231.258L203.416,229.938L204.007,229.938L204.597,228.435L205.187,227.001L205.777,229.994L206.367,228.139L206.958,227.592L207.548,229.957L208.138,228.63L208.728,228.925L209.318,232.78L209.909,232.176L210.499,229.529L211.089,232.988L211.679,232.793L212.269,230.378L212.86,231.296L213.45,228.177L214.04,227.812L214.63,228.472L215.22,226.542L215.81,225.806L216.401,228.139L216.991,227.454L217.581,227.215L218.171,230.032L218.761,231.818L219.352,235.126L219.942,241.546L220.532,242.71L221.122,242.194L221.712,243.892L222.303,244.244L222.893,242.917L223.483,244.634L224.073,245.118L224.663,244.005L225.254,246.087L225.844,246.961L226.434,246.118L227.024,247.37L227.614,247.118L228.204,247.231L228.795,248.464L229.385,251.011L229.975,253.734L230.565,257.796L231.155,259.299L231.746,262.268L232.336,267.324L232.926,266.204L233.516,266.89L234.106,269.047L234.697,268.323L235.287,269.455L235.877,271.38L236.467,272.153L237.057,274.027L237.648,275.48L238.238,276.876L238.828,277.234L239.418,277.354L240.008,274.631L240.599,272.317L241.189,273.662L241.779,273.681L242.369,274.474L242.959,275.216L243.549,275.48L244.14,276.624L244.73,279.706L245.32,279.14L245.91,278.436L246.5,279.448L247.091,277.555L247.681,278.75L248.271,280.165L248.861,278.958L249.451,278.555L250.042,282.662L250.632,282.504L251.222,282.9L251.812,284.894L252.402,281.574L252.993,280.674L253.583,281.687L254.173,279.97L254.763,280.813L255.353,282.07L255.943,283.177L256.534,284.592L257.124,288.466L257.714,289.805L258.304,287.598L258.894,286.649L259.485,283.919L260.075,283.599L260.665,284.951L261.255,285.007L261.845,284.881L262.436,286.271L263.026,286.869L263.616,287.661L264.206,290.183L264.796,285.982L265.387,282.768L265.977,282.85L266.567,282.599L267.157,283.039L267.747,286.076L268.337,285.812L268.928,287.202L269.518,290.17L270.108,288.749L270.698,284.756L271.288,284.397L271.879,281.165L272.469,280.655L273.059,281.196L273.649,279.398L274.239,280.064L274.83,282.215L275.42,283.334L276.01,284.158L276.6,287.045L277.19,286.089L277.781,286.007L278.371,287.963L278.961,286.68L279.551,287.252L280.141,290.384L280.732,290.849L281.322,291.038L281.912,293.107L282.502,293.245L283.092,291.019L283.682,290.906L284.273,289.755L284.863,289.661L285.453,290.843L286.043,289.868L286.633,290.692L287.224,294.295L287.814,296.691L288.404,299.05L288.994,302.188L289.584,301.955L290.175,301.817L290.765,305.099L291.355,305.653L291.945,307.376L292.535,309.916L293.126,311.985L293.716,313.205L294.306,317.224L294.896,315.954L295.486,313.539L296.076,313.778L296.667,312.463L297.257,310.954L297.847,311.753L298.437,311.269L299.027,314.142L299.618,317.041L300.208,318.576L300.798,318.941L301.388,319.695L301.978,317.243L302.569,317.318L303.159,318.098L303.749,316.488L304.339,315.664L304.929,316.079L305.52,313.243L306.11,313.47L306.7,314.199L307.29,314.413L307.88,313.004L308.47,312.457L309.061,310.212L309.651,310.193L310.241,311.803L310.831,310.52L311.421,309.112L312.012,311.696L312.602,313.759L313.192,315.853L313.782,318.456L314.372,318.89L314.963,318.261L315.553,320.192L316.143,318.777L316.733,318.431L317.323,321.399L317.914,322.89L318.504,324.393L319.094,327.286L319.684,327.141L320.274,326.877L320.865,328.147L321.455,328.896L322.045,329.996L322.635,332.159L323.225,332.857L323.815,334.04L324.406,335.04L324.996,335.14L325.586,336.486L326.176,337.725L326.766,335.574L327.357,333.423L327.947,334.914L328.537,334.838L329.127,333.285L329.717,332.939L330.308,331.612L330.898,330.663L331.488,330.468L332.078,329.462L332.668,328.103L333.259,328.946L333.849,328.858L334.439,327.355L335.029,326.764L335.619,324.185L336.209,323.487L336.8,325.028L337.39,324.443L337.98,325.556L338.57,325.475L339.16,323.928L339.751,324.953L340.341,324.971L340.931,323.72L341.521,323.978L342.111,325.563L342.702,325.833L343.292,327.078L343.882,328.889L344.472,328.921L345.062,327.499L345.653,326.393L346.243,325.374L346.833,326.141L347.423,327.361L348.013,327.757L348.603,327.562L349.194,327.537L349.784,327.606L350.374,328.286L350.964,328.411L351.554,327.361L352.145,324.449L352.735,325.204L353.325,323.462L353.915,322.959L354.505,324.795L355.096,323.198L355.686,324.374L356.276,326.468L356.866,323.689L357.456,320.764L358.047,319.865L358.637,316.243L359.227,315.086L359.817,314.4L360.407,312.677L360.998,312.206L361.588,313.124L362.178,312.287L362.768,313.809L363.358,314.463L363.948,310.577L364.539,308.891L365.129,308.3L365.719,307.168L366.309,307.948L366.899,308.583L367.49,305.967L368.08,305.552L368.67,305.376L369.26,306.866L369.85,305.54L370.441,303.401L371.031,298.892L371.621,297.358L372.211,296.446L372.801,291.975L373.392,289.969L373.982,291.893L374.572,293.447L375.162,294.151L375.752,296.371L376.342,294.22L376.933,292.264L377.523,293.497L378.113,292.503L378.703,291.635L379.293,291.717L379.884,290.214L380.474,291.918L381.064,294.503L381.654,293.579L382.244,291.874L382.835,293.239L383.425,291.384L384.015,291.151L384.605,292.692L385.195,292.918L385.786,294.811L386.376,296.214L386.966,297.408L387.556,300.949L388.146,305.024L388.736,303.445L389.327,304.401L389.917,307.615L390.507,309.244L391.097,310.03L391.687,310.96L392.278,311.501L392.868,313.092L393.458,316.237L394.048,316.425L394.638,315.57L395.229,317.538L395.819,316.947L396.409,318.111L396.999,320.846L397.589,320.771L398.18,320.984L398.77,323.72L399.36,325.179L399.95,324.764L400.54,326.21L401.131,323.349L401.721,322.802L402.311,323.965L402.901,325.846L403.491,328.525L404.081,332.122L404.672,334.97L405.262,337.832L405.852,343.158L406.442,346.101L407.032,348.384L407.623,350.472L408.213,352.49L408.803,355.006L409.393,357.113L409.983,358.358L410.574,359.886L411.164,363.244L411.754,364.653L412.344,363.414L412.934,365.225L413.525,365.961L414.115,365.269L414.705,365.898L415.295,367.08L415.885,366.885L416.475,367.841L417.066,368.652L417.656,369.193L418.246,371.941L418.836,372.507L419.426,372.507L420.017,371.117L420.607,368.545L421.197,365.759L421.787,364.571L422.377,362.785L422.968,360.131L423.558,358.666L424.148,357.352L424.738,355.188L425.328,353.427L425.919,351.006L426.509,349.246L427.099,348.252L427.689,346.655L428.279,345.806L428.869,345.391L429.46,347.504L430.05,348.252L430.64,349.459L431.23,349.755L431.82,349.868L432.411,349.793L433.001,349.396L433.591,349.837L434.181,351.384L434.771,351.623L435.362,352.163L435.952,353.446L436.542,353.905L437.132,353.056L437.722,353.843L438.313,354.094L438.903,353.566L439.493,354.05L440.083,354.698L440.673,353.937L441.264,353.151L441.854,353.975L442.444,353.736L443.034,354.679L443.624,354.717L444.214,352.855L444.805,352.522L445.395,351.22L445.985,351.22L446.575,350.881L447.165,350.239L447.756,349.007L448.346,348.812L448.936,348.101L449.526,347.522L450.116,348.843L450.707,347.705L451.297,346.246L451.887,346.711L452.477,345.56L453.067,345.567L453.658,346.07L454.248,347.617L454.838,347.906L455.428,348.51L456.018,348.132L456.608,345.001L457.199,344.844L457.789,343.743L458.379,344.529L458.969,344.535L459.559,344.755L460.15,343.737L460.74,345.057L461.33,346.227L461.92,346.372L462.51,347.441L463.101,346.019L463.691,343.655L464.281,343.756L464.871,342.46L465.461,342.668L466.052,342.951L466.642,341.85L467.232,340.756L467.822,341.9L468.412,341.517L469.002,340.404L469.593,341.794L470.183,339.548L470.773,339.115L471.363,338.385L471.953,337.266L472.544,336.467L473.134,336.719L473.724,338.09L474.314,337.882L474.904,338.737L475.495,336.605L476.085,334.442L476.675,333.681L477.265,333.952L477.855,331.505L478.446,331.537L479.036,331.719L479.626,331.883L480.216,332.329L480.806,333.901L481.397,333.449L481.987,334.568L482.577,333.706L483.167,333.084L483.757,336.065L484.347,337.586L484.938,337.549L485.528,339.102L486.118,338.75L486.708,338.398L487.298,340.97L487.889,340.825L488.479,338.417L489.069,339.63L489.659,340.24L490.249,339.215L490.84,340.14L491.43,341.139L492.02,341.781L492.61,344.334L493.2,346.441L493.791,347.277L494.381,347.938L494.971,347.887L495.561,347.516L496.151,347.982L496.741,346.856L497.332,347.378L497.922,347.504L498.512,348.34L499.102,348.975L499.692,350.17L500.283,350.793L500.873,349.264L501.463,349.497L502.053,350.032L502.643,350.032L503.234,352.258L503.824,352.692L504.414,352.163L505.004,351.931L505.594,353.786L506.185,353.912L506.775,354.654L507.365,355.283L507.955,355.459L508.545,355.622L509.135,355.251L509.726,354.333L510.316,354.283L510.906,354.138L511.496,353.975L512.086,355.213L512.677,354.591L513.267,352.069L513.857,352.503L514.447,351.918L515.037,352.226L515.628,352.038L516.218,351.164L516.808,350.635L517.398,351.365L517.988,352.031L518.579,351.302L519.169,350.761L519.759,350.201L520.349,348.68L520.939,348.258L521.53,346.894L522.12,345.913L522.71,345.032L523.3,343.045L523.89,341.511L524.48,340.404L525.071,338.781L525.661,338.215L526.251,338.083L526.841,335.844L527.431,335.241L528.022,335.178L528.612,334.43L529.202,334.7L529.792,336.744L530.382,335.071L530.973,332.618L531.563,330.361L532.153,326.864L532.743,324.349L533.333,323.751L533.924,320.639L534.514,316.884L535.104,315.425L535.694,314.205L536.284,312.545L536.874,311.306L537.465,310.558L538.055,308.583L538.645,309.275L539.235,310.809L539.825,311.048L540.416,312.639L541.006,313.753L541.596,314.727L542.186,316.086L542.776,315.268L543.367,314.476L543.957,315.62L544.547,315.425L545.137,314.991L545.727,315.62L546.318,315.639L546.908,315.3L547.498,320.142L548.088,324.041L548.678,327.613L549.268,331.298L549.859,334.461L550.449,335.681L551.039,339.278L551.629,342.907L552.219,344.73L552.81,346.057L553.4,348.321L553.99,349.22L554.58,351.17L555.17,353.346L555.761,354.566L556.351,354.037L556.941,354.798L557.531,354.509L558.121,354.792L558.712,355.314L559.302,356.188L559.892,357.251L560.482,359.402L561.072,361.313L561.663,362.364L562.253,363.678L562.843,363.829L563.433,364.106L564.023,364.011L564.613,363.571L565.204,363.005L565.794,362.948L566.384,362.716L566.974,362.659L567.564,362.37L568.155,360.691L568.745,359.364L569.335,356.748L569.925,356.698L570.515,356.1L571.106,356.49L571.696,356.974L572.286,356.767L572.876,356.132L573.466,356.207L574.057,355.704L574.647,352.799L575.237,352.17L575.827,352.635L576.417,350.994L577.007,350.761L577.598,350.811L578.188,350.069L578.778,349.786L579.368,349.623L579.958,349.321L580.549,348.315L581.139,347.139L581.729,344.875L582.319,345.158L582.909,345.409L583.5,345.548L584.09,345.202L584.68,346.504L585.27,348.39L585.86,349.629L586.451,352.767L587.041,352.968L587.631,353.56L588.221,354.585L588.811,354.585L589.401,355.943L589.992,356.823L590.582,357.138L591.172,358.402L591.762,362.181L592.352,362.005L592.943,361.571L593.533,362.942L594.123,362.313L594.713,362.603L595.303,363.716L595.894,363.785L596.484,364.156L597.074,365.489L597.664,366.873L598.254,368.659L598.845,371.382L599.435,370.463L600.025,370.268L600.615,371.545L601.205,372.507L601.796,372.507L602.386,372.275L602.976,372.608L603.566,371.495L604.156,371.985L604.746,371.243L605.337,369.319L605.927,368.426L606.517,365.973L607.107,364.911L607.697,365.25L608.288,365.37L608.878,365.137L609.468,365.873L610.058,366.476L610.648,367.074L611.239,367.64L611.829,366.476L612.419,365.357L613.009,365.904L613.599,364.992L614.19,365.244L614.78,365.602L615.37,364.584L615.96,364.389L616.55,365.539L617.14,365.634L617.731,364.439L618.321,363.496L618.911,362.703L619.501,363.018L620.091,362.892L620.682,363.175L621.272,362.754L621.862,363.496L622.452,364.602L623.042,365.489L623.633,367.237L624.223,367.269L624.813,366.483L625.403,366.986L625.993,367.086L626.584,367.244L627.174,367.539L627.764,367.3L628.354,368.155L628.944,369.47L629.534,370.224L630.125,370.652L630.715,372.18L631.305,372.061L631.895,371.771L632.485,372.979L633.076,373.45L633.666,373.312L634.256,372.57L634.846,372.922L635.436,372.551L636.027,373.488L636.617,373.394L637.207,373.928L637.797,374.387L638.387,374.658L638.978,375.394L639.568,376.375L640.158,376.199L640.748,376.544L641.338,377.746L641.929,378.073L642.519,377.06L643.109,377.331L643.699,376.972L644.289,376.922L644.879,376.419L645.47,376.085L646.06,375.979L646.65,376.45L647.24,375.74L647.83,374.991L648.421,374.626L649.011,373.627L649.601,373.595L650.191,372.671L650.781,372.671L651.372,373.702L651.962,374.224L652.552,375.117L653.142,375.092L653.732,375.167L654.323,374.922L654.913,374.356L655.503,374.079L656.093,371.677L656.683,370.375L657.273,370.099L657.864,369.181L658.454,368.703L659.044,369.199L659.634,368.652L660.224,367.124L660.815,367.596L661.405,366.288L661.995,366.709L662.585,367.218L663.175,366.288L663.766,365.998L664.356,366.156L664.946,366.42L665.536,365.904L666.126,367.049L666.717,366.458L667.307,366.885L667.897,366.803L668.487,366.866L669.077,366.564L669.667,366.59L670.258,366.219L670.848,365.565L671.438,365.439L672.028,365.036L672.618,365.181L673.209,366.841L673.799,367.3L674.389,367.388L674.979,367.671L675.569,367.3L676.16,367.388L676.75,369.036L677.34,369.904L677.93,369.828L678.52,370.86L679.111,370.614L679.701,369.602L680.291,368.558L680.881,366.319L681.471,365.124L682.062,364.653L682.652,364.967L683.242,364.923L683.832,364.911L684.422,364.319L685.012,364.602L685.603,364.697L686.193,363.47L686.783,362.42L687.373,362.533L687.963,362.395L688.554,362.118L689.144,362.873L689.734,362.672L690.324,362.024L690.914,361.339L691.505,361.433L692.095,361.653L692.685,362.508L693.275,362.546L693.865,362.206L694.456,363.37L695.046,362.577L695.636,362.892L696.226,362.986L696.816,362.873L697.406,363.873L697.997,364.898L698.587,365.118L699.177,364.904L699.767,364.854L700.357,363.489L700.948,363.489L701.538,363.942L702.128,362.879L702.718,362.408L703.308,363.143L703.899,362.961L704.489,362.886L705.079,363.47L705.669,363.03L706.259,363.118L706.85,362.206L707.44,362.898L708.03,363.03L708.62,362.653L709.21,362.98L709.8,362.93L710.391,362.728L710.981,360.93L711.571,358.59L712.161,358.955L712.751,357.446L713.342,357.408L713.932,357.521L714.522,356.333L715.112,356.49L715.702,356.823L716.293,356.477L716.883,356.716L717.473,357.635L718.063,357.458L718.653,357.163L719.244,357.911L719.834,357.622L720.424,357.936L721.014,358.641L721.604,357.452L722.195,356.93L722.785,357.792L723.375,358.062L723.965,359.2L724.555,359.288L725.145,360.351L725.736,361.471L726.326,361.829L726.916,361.534L727.506,362.307L728.096,364.357L728.687,365.892L729.277,366.47L729.867,367.841L730.457,367.678L731.047,368.646L731.638,370.011L732.228,371.218L732.818,371.149L733.408,372.155L733.998,371.834L734.589,372.784L735.179,373.488L735.769,373.023L736.359,373.369L736.949,373.777L737.539,374.501L738.13,375.174L738.72,375.985L739.31,376.809L739.9,377.004L740.49,377.733L741.081,378.085L741.671,378.922L742.261,379.236L742.851,379.431L743.441,378.871L744.032,378.808L744.622,378.148L745.212,378.576L745.802,379.054L746.392,379.657L746.983,380.33L747.573,381.814L748.163,381.494L748.753,382.047L749.343,381.946L749.933,383.443L750.524,383.512L751.114,384.355L751.704,383.77L752.294,384.179L752.884,385.701L753.475,386.292L754.065,386.455L754.655,385.965L755.245,386.059L755.835,386.87L756.426,387.128L757.016,387.506L757.606,387.367L758.196,388.046L758.786,388.204L759.377,388.581L759.967,388.399L760.557,389.669L761.147,390.713L761.737,391.92L762.328,392.04L762.918,392.643L763.508,393.121L764.098,393.323L764.688,393.417L765.278,394.524L765.869,395.077L766.459,395.467L767.049,395.624L767.639,396.027L768.229,396.731L768.82,397.423L769.41,397.322L770,397.366"/></g></svg>