<svg class="plot-d6a7b5" fill="currentColor" font-family="system-ui, sans-serif" font-size="10" text-anchor="middle" width="830" height="470" viewBox="0 0 830 470" xmlns="http://www.w3.org/2000/svg" xmlns:xlink="http://www.w3.org/1999/xlink" color="dodgerblue"><style>:where(.plot-d6a7b5){--plot-background: white;display:block;height:intrinsic;max-width:100%}:where(.plot-d6a7b5 text),:where(.plot-d6a7b5 tspan){white-space:pre}</style><g aria-label="y-grid" stroke="currentColor" stroke-opacity=".1"><line x1="60" x2="770" y1="410" y2="410"/><line x1="60" x2="770" y1="384.145" y2="384.145"/><line x1="60" x2="770" y1="358.29" y2="358.29"/><line x1="60" x2="770" y1="332.435" y2="332.435"/><line x1="60" x2="770" y1="306.58" y2="306.58"/><line x1="60" x2="770" y1="280.725" y2="280.725"/><line x1="60" x2="770" y1="254.87" y2="254.87"/><line x1="60" x2="770" y1="229.015" y2="229.015"/><line x1="60" x2="770" y1="203.16" y2="203.16"/><line x1="60" x2="770" y1="177.305" y2="177.305"/><line x1="60" x2="770" y1="151.451" y2="151.451"/><line x1="60" x2="770" y1="125.596" y2="125.596"/><line x1="60" x2="770" y1="99.741" y2="99.741"/><line x1="60" x2="770" y1="73.886" y2="73.886"/></g><g aria-label="y-axis tick" fill="none" stroke="currentColor"><path transform="translate(60,410)" d="M0,0L-6,0"/><path transform="translate(60,384.145050697862)" d="M0,0L-6,0"/><path transform="translate(60,358.29010139572404)" d="M0,0L-6,0"/><path transform="translate(60,332.43515209358605)" d="M0,0L-6,0"/><path transform="translate(60,306.580202791448)" d="M0,0L-6,0"/><path transform="translate(60,280.7252534893101)" d="M0,0L-6,0"/><path transform="translate(60,254.8703041871721)" d="M0,0L-6,0"/><path transform="translate(60,229.01535488503413)" d="M0,0L-6,0"/><path transform="translate(60,203.16040558289615)" d="M0,0L-6,0"/><path transform="translate(60,177.30545628075816)" d="M0,0L-6,0"/><path transform="translate(60,151.45050697862018)" d="M0,0L-6,0"/><path transform="translate(60,125.59555767648219)" d="M0,0L-6,0"/><path transform="translate(60,99.7406083743442)" d="M0,0L-6,0"/><path transform="translate(60,73.88565907220624)" d="M0,0L-6,0"/></g><g aria-label="y-axis tick label" text-anchor="end" font-variant="tabular-nums"><text y=".32em" transform="translate(-9,0) translate(60,410)">0</text><text y=".32em" transform="translate(-9,0) translate(60,384.145050697862)">50,000</text><text y=".32em" transform="translate(-9,0) translate(60,358.29010139572404)">100,000</text><text y=".32em" transform="translate(-9,0) translate(60,332.43515209358605)">150,000</text><text y=".32em" transform="translate(-9,0) translate(60,306.580202791448)">200,000</text><text y=".32em" transform="translate(-9,0) translate(60,280.7252534893101)">250,000</text><text y=".32em" transform="translate(-9,0) translate(60,254.8703041871721)">300,000</text><text y=".32em" transform="translate(-9,0) translate(60,229.01535488503413)">350,000</text><text y=".32em" transform="translate(-9,0) translate(60,203.16040558289615)">400,000</text><text y=".32em" transform="translate(-9,0) translate(60,177.30545628075816)">450,000</text><text y=".32em" transform="translate(-9,0) translate(60,151.45050697862018)">500,000</text><text y=".32em" transform="translate(-9,0) translate(60,125.59555767648219)">550,000</text><text y=".32em" transform="translate(-9,0) translate(60,99.7406083743442)">600,000</text><text y=".32em" transform="translate(-9,0) translate(60,73.88565907220624)">650,000</text></g><g aria-label="y-axis label" text-anchor="start"><text y=".71em" transform="translate(-57,-57) translate(60,60)">↑ Total Vestiges</text></g><g aria-label="x-axis tick" fill="none" stroke="currentColor"><path transform="translate(90.81702127659575,410)" d="M0,0L0,6"/><path transform="translate(173.29787234042553,410)" d="M0,0L0,6"/><path transform="translate(256.6851063829787,410)" d="M0,0L0,6"/><path transform="translate(340.07234042553193,410)" d="M0,0L0,6"/><path transform="translate(422.55319148936167,410)" d="M0,0L0,6"/><path transform="translate(505.0340425531915,410)" d="M0,0L0,6"/><path transform="translate(588.4212765957446,410)" d="M0,0L0,6"/><path transform="translate(671.8085106382979,410)" d="M0,0L0,6"/><path transform="translate(753.3829787234042,410)" d="M0,0L0,6"/></g><g aria-label="x-axis tick label" font-variant="tabular-nums"><text transform="translate(0,9) translate(90.81702127659575,410)"><tspan x="0" y=".71em">Apr</tspan><tspan x="0" dy="1em">2023</tspan></text><text y=".71em" transform="translate(0,9) translate(173.29787234042553,410)">Jul</text><text y=".71em" transform="translate(0,9) translate(256.6851063829787,410)">Oct</text><text transform="translate(0,9) translate(340.07234042553193,410)"><tspan x="0" y=".71em">Jan</tspan><tspan x="0" dy="1em">2024</tspan></text><text y=".71em" transform="translate(0,9) translate(422.55319148936167,410)">Apr</text><text y=".71em" transform="translate(0,9) translate(505.0340425531915,410)">Jul</text><text y=".71em" transform="translate(0,9) translate(588.4212765957446,410)">Oct</text><text transform="translate(0,9) translate(671.8085106382979,410)"><tspan x="0" y=".71em">Jan</tspan><tspan x="0" dy="1em">2025</tspan></text><text y=".71em" transform="translate(0,9) translate(753.3829787234042,410)">Apr</text></g><g aria-label="line" fill="none" stroke="currentColor" stroke-width="1.5" stroke-linejoin="round" stroke-linecap="round"><path d="M60,410L60.604,409.74L61.209,408.791L61.813,408.279L62.417,407.916L63.021,407.317L63.626,406.846L64.23,406.404L64.834,405.509L65.438,404.801L66.043,403.961L66.647,402.659L67.251,401.432L67.855,400.795L68.46,399.873L69.064,399.247L69.668,398.529L70.272,397.591L70.877,396.959L71.481,396.339L72.085,395.498L72.689,394.566L73.294,393.906L73.898,392.779L74.502,392.245L75.106,391.747L75.711,390.849L76.315,389.989L76.919,389.327L77.523,388.405L78.128,387.485L78.732,386.647L79.336,385.349L79.94,384.319L80.545,383.722L81.149,383.101L81.753,382.633L82.357,382.255L82.962,381.553L83.566,380.868L84.17,380.389L84.774,379.283L85.379,378.127L85.983,377.091L86.587,375.835L87.191,374.984L87.796,374.259L88.4,373.271L89.004,372.445L89.609,371.847L90.213,370.769L90.817,369.727L91.421,368.755L92.026,367.362L92.63,366.038L93.234,365.35L93.838,364.329L94.443,363.407L95.047,362.582L95.651,361.412L96.255,360.314L96.86,359.36L97.464,358.213L98.068,357.114L98.672,356.167L99.277,354.893L99.881,354.11L100.485,353.403L101.089,352.417L101.694,351.61L102.298,351.006L102.902,350.229L103.506,349.389L104.111,348.607L104.715,347.58L105.319,346.563L105.923,345.984L106.528,345.179L107.132,344.551L107.736,344.138L108.34,343.498L108.945,342.861L109.549,342.186L110.153,341.311L110.757,340.421L111.362,339.727L111.966,338.765L112.57,338.09L113.174,337.649L113.779,336.636L114.383,335.935L114.987,335.556L115.591,334.922L116.196,334.31L116.8,333.673L117.404,332.798L118.009,332.037L118.613,331.381L119.217,330.811L119.821,330.306L120.426,329.822L121.03,329.027L121.634,328.575L122.238,328.115L122.843,327.369L123.447,326.523L124.051,325.86L124.655,325.007L125.26,324.431L125.864,323.897L126.468,323.123L127.072,322.594L127.677,322.09L128.281,321.416L128.885,320.89L129.489,320.254L130.094,319.58L130.698,318.968L131.302,318.462L131.906,317.931L132.511,317.467L133.115,317.03L133.719,316.414L134.323,315.946L134.928,315.523L135.532,314.826L136.136,313.92L136.74,313.26L137.345,312.4L137.949,311.885L138.553,311.295L139.157,310.686L139.762,310.13L140.366,309.739L140.97,308.964L141.574,308.355L142.179,307.715L142.783,306.787L143.387,306.103L143.991,305.505L144.596,304.894L145.2,304.228L145.804,303.712L146.409,303.207L147.013,302.539L147.617,302.145L148.221,301.621L148.826,301.149L149.43,300.705L150.034,300.08L150.638,299.629L151.243,299.158L151.847,298.528L152.451,298.078L153.055,297.661L153.66,297.211L154.264,296.68L154.868,296.182L155.472,295.662L156.077,295.098L156.681,294.655L157.285,294.113L157.889,293.657L158.494,293.204L159.098,292.576L159.702,292.053L160.306,291.641L160.911,291.099L161.515,290.584L162.119,290.211L162.723,289.572L163.328,289.084L163.932,288.581L164.536,288.022L165.14,287.546L165.745,287.263L166.349,286.744L166.953,286.321L167.557,285.818L168.162,285.219L168.766,284.745L169.37,284.222L169.974,283.648L170.579,283.125L171.183,282.665L171.787,281.917L172.391,281.308L172.996,280.957L173.6,280.397L174.204,279.898L174.809,279.598L175.413,279.067L176.017,278.724L176.621,278.316L177.226,277.82L177.83,277.357L178.434,276.992L179.038,276.414L179.643,275.99L180.247,275.607L180.851,275.069L181.455,274.586L182.06,274.205L182.664,273.622L183.268,273.251L183.872,272.829L184.477,272.293L185.081,271.859L185.685,271.365L186.289,270.8L186.894,270.305L187.498,269.884L188.102,269.401L188.706,268.833L189.311,268.389L189.915,267.972L190.519,267.531L191.123,267.196L191.728,266.621L192.332,266.261L192.936,265.854L193.54,265.343L194.145,264.936L194.749,264.442L195.353,263.784L195.957,263.288L196.562,262.996L197.166,262.324L197.77,261.829L198.374,261.39L198.979,260.776L199.583,260.361L200.187,259.916L200.791,259.403L201.396,258.882L202,258.433L202.604,257.768L203.209,257.256L203.813,256.805L204.417,256.258L205.021,255.656L205.626,255.041L206.23,254.136L206.834,253.583L207.438,253.166L208.043,252.602L208.647,252.148L209.251,251.819L209.855,251.307L210.46,250.855L211.064,250.539L211.668,250.023L212.272,249.552L212.877,249.212L213.481,248.666L214.085,248.156L214.689,247.768L215.294,247.258L215.898,246.62L216.502,246.082L217.106,245.41L217.711,244.935L218.315,244.476L218.919,243.797L219.523,243.287L220.128,242.814L220.732,242.245L221.336,241.775L221.94,241.46L222.545,241.005L223.149,240.661L223.753,240.284L224.357,239.827L224.962,239.368L225.566,238.943L226.17,238.519L226.774,238.081L227.379,237.709L227.983,237.297L228.587,236.889L229.191,236.544L229.796,236.146L230.4,235.736L231.004,235.293L231.609,234.763L232.213,234.384L232.817,233.975L233.421,233.547L234.026,233.232L234.63,232.895L235.234,232.544L235.838,232.328L236.443,232.065L237.047,231.463L237.651,231.046L238.255,230.655L238.86,230.125L239.464,229.903L240.068,229.606L240.672,229.327L241.277,229.103L241.881,228.766L242.485,228.421L243.089,228.026L243.694,227.611L244.298,226.95L244.902,226.388L245.506,226.087L246.111,225.68L246.715,225.4L247.319,225.063L247.923,224.675L248.528,224.326L249.132,224.049L249.736,223.624L250.34,223.157L250.945,222.812L251.549,222.342L252.153,222.103L252.757,221.867L253.362,221.553L253.966,221.256L254.57,220.992L255.174,220.562L255.779,220.204L256.383,219.838L256.987,219.343L257.591,218.972L258.196,218.776L258.8,218.411L259.404,218.143L260.009,217.902L260.613,217.598L261.217,217.299L261.821,216.956L262.426,216.505L263.03,216.022L263.634,215.537L264.238,215.033L264.843,214.669L265.447,214.392L266.051,214.048L266.655,213.761L267.26,213.45L267.864,213.032L268.468,212.752L269.072,212.489L269.677,211.905L270.281,211.406L270.885,211.098L271.489,210.78L272.094,210.552L272.698,210.372L273.302,209.992L273.906,209.74L274.511,209.49L275.115,209.002L275.719,208.477L276.323,208.083L276.928,207.549L277.532,207.266L278.136,207.007L278.74,206.56L279.345,206.272L279.949,205.997L280.553,205.606L281.157,205.19L281.762,204.923L282.366,204.481L282.97,204.197L283.574,204.014L284.179,203.621L284.783,203.357L285.387,203.197L285.991,202.955L286.596,202.707L287.2,202.293L287.804,201.805L288.409,201.314L289.013,200.988L289.617,200.665L290.221,200.477L290.826,200.194L291.43,199.862L292.034,199.679L292.638,199.488L293.243,199.16L293.847,198.96L294.451,198.684L295.055,198.382L295.66,198.111L296.264,197.935L296.868,197.692L297.472,197.559L298.077,197.377L298.681,197.13L299.285,196.963L299.889,196.852L300.494,196.463L301.098,196.082L301.702,195.708L302.306,195.337L302.911,195.052L303.515,194.876L304.119,194.589L304.723,194.411L305.328,194.161L305.932,193.797L306.536,193.5L307.14,193.239L307.745,192.85L308.349,192.573L308.953,192.305L309.557,191.99L310.162,191.731L310.766,191.437L311.37,191.004L311.974,190.746L312.579,190.504L313.183,190.251L313.787,189.959L314.391,189.671L314.996,189.353L315.6,189.17L316.204,189.055L316.809,188.784L317.413,188.556L318.017,188.38L318.621,188.168L319.226,187.967L319.83,187.809L320.434,187.561L321.038,187.333L321.643,187.204L322.247,186.91L322.851,186.632L323.455,186.511L324.06,186.337L324.664,186.2L325.268,186.049L325.872,185.76L326.477,185.47L327.081,185.259L327.685,185.062L328.289,184.859L328.894,184.603L329.498,184.403L330.102,184.258L330.706,184.087L331.311,183.803L331.915,183.626L332.519,183.41L333.123,183.05L333.728,182.759L334.332,182.609L334.936,182.376L335.54,182.072L336.145,181.832L336.749,181.521L337.353,181.286L337.957,181.021L338.562,180.71L339.166,180.47L339.77,180.245L340.374,179.96L340.979,179.716L341.583,179.493L342.187,179.144L342.791,178.935L343.396,178.773L344,178.435L344.604,178.316L345.209,178.112L345.813,177.781L346.417,177.61L347.021,177.411L347.626,177.164L348.23,177.014L348.834,176.86L349.438,176.705L350.043,176.592L350.647,176.38L351.251,176.092L351.855,175.826L352.46,175.501L353.064,175.113L353.668,174.936L354.272,174.726L354.877,174.523L355.481,174.242L356.085,173.929L356.689,173.695L357.294,173.526L357.898,173.251L358.502,172.92L359.106,172.458L359.711,172.171L360.315,171.819L360.919,171.616L361.523,171.429L362.128,171.178L362.732,171.071L363.336,170.913L363.94,170.513L364.545,170.074L365.149,169.752L365.753,169.304L366.357,169.056L366.962,168.844L367.566,168.589L368.17,168.339L368.774,168.126L369.379,167.791L369.983,167.591L370.587,167.258L371.191,166.761L371.796,166.412L372.4,166.16L373.004,165.787L373.609,165.538L374.213,165.356L374.817,164.972L375.421,164.662L376.026,164.317L376.63,163.978L377.234,163.582L377.838,163.054L378.443,162.48L379.047,162.167L379.651,161.841L380.255,161.366L380.86,161.043L381.464,160.801L382.068,160.49L382.672,160.226L383.277,159.961L383.881,159.535L384.485,159.163L385.089,159.009L385.694,158.677L386.298,158.393L386.902,158.065L387.506,157.742L388.111,157.548L388.715,157.264L389.319,156.839L389.923,156.447L390.528,156.186L391.132,155.784L391.736,155.583L392.34,155.326L392.945,155.035L393.549,154.846L394.153,154.621L394.757,154.324L395.362,154.087L395.966,153.848L396.57,153.405L397.174,153.158L397.779,152.947L398.383,152.758L398.987,152.581L399.591,152.346L400.196,152.127L400.8,151.992L401.404,151.825L402.009,151.469L402.613,151.245L403.217,151.075L403.821,150.742L404.426,150.509L405.03,150.411L405.634,150.211L406.238,149.944L406.843,149.745L407.447,149.473L408.051,149.177L408.655,148.894L409.26,148.458L409.864,148.156L410.468,147.961L411.072,147.926L411.677,147.922L412.281,147.92L412.885,147.917L413.489,147.914L414.094,147.909L414.698,147.904L415.302,147.88L415.906,147.863L416.511,147.852L417.115,147.824L417.719,147.778L418.323,147.746L418.928,147.705L419.532,147.624L420.136,147.516L420.74,147.244L421.345,147.06L421.949,146.888L422.553,146.732L423.157,146.585L423.762,146.415L424.366,146.199L424.97,146.006L425.574,145.777L426.179,145.539L426.783,145.329L427.387,145.073L427.991,144.878L428.596,144.729L429.2,144.513L429.804,144.282L430.409,144.182L431.013,144.031L431.617,143.808L432.221,143.683L432.826,143.551L433.43,143.356L434.034,143.2L434.638,142.973L435.243,142.782L435.847,142.669L436.451,142.496L437.055,142.345L437.66,142.203L438.264,142.105L438.868,141.982L439.472,141.91L440.077,141.779L440.681,141.64L441.285,141.464L441.889,141.216L442.494,141.059L443.098,140.957L443.702,140.739L444.306,140.573L444.911,140.422L445.515,140.265L446.119,140.046L446.723,139.895L447.328,139.685L447.932,139.541L448.536,139.431L449.14,139.261L449.745,139.073L450.349,138.877L450.953,138.749L451.557,138.574L452.162,138.424L452.766,138.237L453.37,137.97L453.974,137.77L454.579,137.512L455.183,137.37L455.787,137.244L456.391,137.068L456.996,136.894L457.6,136.747L458.204,136.55L458.809,136.327L459.413,136.187L460.017,135.937L460.621,135.715L461.226,135.535L461.83,135.274L462.434,135.124L463.038,135.008L463.643,134.917L464.247,134.79L464.851,134.629L465.455,134.454L466.06,134.086L466.664,133.903L467.268,133.625L467.872,133.493L468.477,133.366L469.081,133.209L469.685,132.976L470.289,132.896L470.894,132.726L471.498,132.538L472.102,132.368L472.706,132.109L473.311,131.788L473.915,131.621L474.519,131.341L475.123,131.211L475.728,131.037L476.332,130.723L476.936,130.494L477.54,130.337L478.145,130.083L478.749,129.812L479.353,129.666L479.957,129.331L480.562,129.18L481.166,129.028L481.77,128.809L482.374,128.582L482.979,128.428L483.583,128.173L484.187,127.973L484.791,127.765L485.396,127.458L486,127.153L486.604,126.933L487.209,126.722L487.813,126.442L488.417,126.274L489.021,126.101L489.626,125.945L490.23,125.722L490.834,125.531L491.438,125.327L492.043,125.138L492.647,124.937L493.251,124.712L493.855,124.644L494.46,124.539L495.064,124.379L495.668,124.254L496.272,123.953L496.877,123.778L497.481,123.655L498.085,123.491L498.689,123.142L499.294,123.022L499.898,122.846L500.502,122.608L501.106,122.428L501.711,122.311L502.315,122.155L502.919,122.059L503.523,121.927L504.128,121.776L504.732,121.619L505.336,121.335L505.94,121.136L506.545,121.001L507.149,120.752L507.753,120.573L508.357,120.392L508.962,120.257L509.566,120.12L510.17,120.018L510.774,119.844L511.379,119.649L511.983,119.564L512.587,119.448L513.191,119.323L513.796,119.205L514.4,119.066L515.004,118.899L515.609,118.717L516.213,118.52L516.817,118.41L517.421,118.295L518.026,118.108L518.63,117.944L519.234,117.84L519.838,117.653L520.443,117.481L521.047,117.345L521.651,117.182L522.255,117.012L522.86,116.83L523.464,116.58L524.068,116.238L524.672,116.025L525.277,115.797L525.881,115.641L526.485,115.49L527.089,115.282L527.694,115.136L528.298,115.022L528.902,114.883L529.506,114.738L530.111,114.577L530.715,114.406L531.319,114.163L531.923,113.989L532.528,113.71L533.132,113.447L533.736,113.177L534.34,112.905L534.945,112.663L535.549,112.386L536.153,112.087L536.757,111.937L537.362,111.74L537.966,111.384L538.57,111.198L539.174,111.03L539.779,110.798L540.383,110.638L540.987,110.556L541.591,110.076L542.196,109.662L542.8,109.249L543.404,108.805L544.009,108.448L544.613,108.19L545.217,107.788L545.821,107.366L546.426,107.106L547.03,106.861L547.634,106.564L548.238,106.29L548.843,105.986L549.447,105.649L550.051,105.428L550.655,105.291L551.26,105.041L551.864,104.899L552.468,104.749L553.072,104.552L553.677,104.365L554.281,104.147L554.885,103.885L555.489,103.623L556.094,103.421L556.698,103.218L557.302,103.038L557.906,102.879L558.511,102.769L559.115,102.688L559.719,102.593L560.323,102.474L560.928,102.334L561.532,102.236L562.136,102.079L562.74,101.973L563.345,101.849L563.949,101.739L564.553,101.603L565.157,101.492L565.762,101.292L566.366,101.149L566.97,100.991L567.574,100.869L568.179,100.689L568.783,100.502L569.387,100.336L569.991,100.21L570.596,100.055L571.2,99.94L571.804,99.81L572.409,99.725L573.013,99.62L573.617,99.504L574.221,99.409L574.826,99.241L575.43,99.105L576.034,98.988L576.638,98.87L577.243,98.729L577.847,98.605L578.451,98.446L579.055,98.343L579.66,98.162L580.264,97.918L580.868,97.685L581.472,97.36L582.077,97.22L582.681,97.06L583.285,96.892L583.889,96.788L584.494,96.614L585.098,96.44L585.702,96.266L586.306,96.037L586.911,95.633L587.515,95.454L588.119,95.338L588.723,95.088L589.328,94.939L589.932,94.858L590.536,94.692L591.14,94.553L591.745,94.444L592.349,94.252L592.953,94.033L593.557,93.819L594.162,93.515L594.766,93.397L595.37,93.294L595.974,93.146L596.579,93.015L597.183,92.941L597.787,92.852L598.391,92.721L598.996,92.654L599.6,92.53L600.204,92.419L600.809,92.336L601.413,92.232L602.017,92.169L602.621,92.067L603.226,91.919L603.83,91.794L604.434,91.701L605.038,91.508L605.643,91.356L606.247,91.219L606.851,91.018L607.455,90.96L608.06,90.886L608.664,90.753L609.268,90.674L609.872,90.592L610.477,90.487L611.081,90.419L611.685,90.339L612.289,90.146L612.894,90.027L613.498,89.984L614.102,89.932L614.706,89.858L615.311,89.75L615.915,89.646L616.519,89.488L617.123,89.404L617.728,89.232L618.332,88.991L618.936,88.813L619.54,88.549L620.145,88.36L620.749,88.239L621.353,88.124L621.957,88.012L622.562,87.879L623.166,87.777L623.77,87.689L624.374,87.534L624.979,87.381L625.583,87.215L626.187,87.127L626.791,86.973L627.396,86.911L628,86.836L628.604,86.685L629.209,86.589L629.813,86.49L630.417,86.379L631.021,86.238L631.626,86.108L632.23,85.969L632.834,85.887L633.438,85.773L634.043,85.638L634.647,85.519L635.251,85.408L635.855,85.258L636.46,85.153L637.064,85.032L637.668,84.846L638.272,84.661L638.877,84.588L639.481,84.483L640.085,84.364L640.689,84.286L641.294,84.178L641.898,84.094L642.502,84.049L643.106,83.944L643.711,83.892L644.315,83.864L644.919,83.792L645.523,83.692L646.128,83.641L646.732,83.583L647.336,83.474L647.94,83.301L648.545,83.189L649.149,83.029L649.753,82.967L650.357,82.877L650.962,82.807L651.566,82.709L652.17,82.613L652.774,82.563L653.379,82.493L653.983,82.374L654.587,82.281L655.191,82.194L655.796,82.036L656.4,81.879L657.004,81.797L657.609,81.648L658.213,81.566L658.817,81.417L659.421,81.305L660.026,81.251L660.63,81.186L661.234,81.074L661.838,80.985L662.443,80.883L663.047,80.702L663.651,80.647L664.255,80.514L664.86,80.404L665.464,80.316L666.068,80.247L666.672,80.161L667.277,80.097L667.881,80.013L668.485,79.922L669.089,79.779L669.694,79.66L670.298,79.411L670.902,79.235L671.506,79.093L672.111,78.925L672.715,78.798L673.319,78.681L673.923,78.479L674.528,78.271L675.132,78.161L675.736,77.971L676.34,77.857L676.945,77.787L677.549,77.657L678.153,77.567L678.757,77.469L679.362,77.401L679.966,77.257L680.57,77.17L681.174,77.067L681.779,76.969L682.383,76.852L682.987,76.77L683.591,76.675L684.196,76.591L684.8,76.496L685.404,76.359L686.009,76.258L686.613,76.081L687.217,75.974L687.821,75.863L688.426,75.723L689.03,75.589L689.634,75.444L690.238,75.287L690.843,75.177L691.447,75.111L692.051,74.974L692.655,74.858L693.26,74.753L693.864,74.618L694.468,74.465L695.072,74.249L695.677,73.976L696.281,73.779L696.885,73.673L697.489,73.554L698.094,73.463L698.698,73.359L699.302,73.212L699.906,73.119L700.511,73.044L701.115,72.849L701.719,72.679L702.323,72.593L702.928,72.445L703.532,72.321L704.136,72.206L704.74,72.083L705.345,71.918L705.949,71.722L706.553,71.595L707.157,71.469L707.762,71.382L708.366,71.275L708.97,71.181L709.574,71.14L710.179,70.958L710.783,70.879L711.387,70.753L711.991,70.59L712.596,70.456L713.2,70.267L713.804,70.089L714.409,69.964L715.013,69.842L715.617,69.639L716.221,69.535L716.826,69.425L717.43,69.245L718.034,69.131L718.638,68.996L719.243,68.811L719.847,68.719L720.451,68.618L721.055,68.459L721.66,68.351L722.264,68.153L722.868,68.045L723.472,67.86L724.077,67.702L724.681,67.602L725.285,67.511L725.889,67.388L726.494,67.146L727.098,66.913L727.702,66.761L728.306,66.558L728.911,66.428L729.515,66.275L730.119,66.043L730.723,65.867L731.328,65.716L731.932,65.563L732.536,65.461L733.14,65.333L733.745,65.214L734.349,65.08L734.953,64.962L735.557,64.824L736.162,64.715L736.766,64.588L737.37,64.398L737.974,64.255L738.579,64.166L739.183,64.08L739.787,63.975L740.391,63.875L740.996,63.777L741.6,63.712L742.204,63.641L742.809,63.526L743.413,63.466L744.017,63.393L744.621,63.286L745.226,63.182L745.83,63.091L746.434,62.948L747.038,62.875L747.643,62.755L748.247,62.678L748.851,62.521L749.455,62.452L750.06,62.322L750.664,62.273L751.268,62.212L751.872,62.04L752.477,61.949L753.081,61.846L753.685,61.796L754.289,61.724L754.894,61.601L755.498,61.525L756.102,61.453L756.706,61.427L757.311,61.351L757.915,61.319L758.519,61.248L759.123,61.198L759.728,61.082L760.332,60.961L760.936,60.847L761.54,60.809L762.145,60.741L762.749,60.687L763.353,60.652L763.957,60.63L764.562,60.531L765.166,60.457L765.77,60.371L766.374,60.338L766.979,60.274L767.583,60.214L768.187,60.116L768.791,60.089L769.396,60.042L770,60"/></g></svg>