<?xml version="1.0"?>
<svg xmlns="http://www.w3.org/2000/svg" xmlns:xlink="http://www.w3.org/1999/xlink" class="plot-d6a7b5" fill="currentColor" font-family="system-ui, sans-serif" font-size="10" text-anchor="middle" width="830" height="470" viewBox="0 0 830 470" color="#1e90ff">
  <style>:where(.plot-d6a7b5){--plot-background: white;display:block;height:intrinsic;max-width:100%}:where(.plot-d6a7b5 text),:where(.plot-d6a7b5 tspan){white-space:pre}</style>
  <g aria-label="y-grid" stroke="currentColor" stroke-opacity=".1">
    <line x1="60" x2="770" y1="410" y2="410"/>
    <line x1="60" x2="770" y1="384.436" y2="384.436"/>
    <line x1="60" x2="770" y1="358.873" y2="358.873"/>
    <line x1="60" x2="770" y1="333.309" y2="333.309"/>
    <line x1="60" x2="770" y1="307.745" y2="307.745"/>
    <line x1="60" x2="770" y1="282.181" y2="282.181"/>
    <line x1="60" x2="770" y1="256.618" y2="256.618"/>
    <line x1="60" x2="770" y1="231.054" y2="231.054"/>
    <line x1="60" x2="770" y1="205.49" y2="205.49"/>
    <line x1="60" x2="770" y1="179.927" y2="179.927"/>
    <line x1="60" x2="770" y1="154.363" y2="154.363"/>
    <line x1="60" x2="770" y1="128.799" y2="128.799"/>
    <line x1="60" x2="770" y1="103.235" y2="103.235"/>
    <line x1="60" x2="770" y1="77.672" y2="77.672"/>
  </g>
  <g aria-label="y-axis tick" fill="none" stroke="currentColor">
    <path transform="translate(60,410)" d="M0,0L-6,0"/>
    <path transform="translate(60,384.43628353229207)" d="M0,0L-6,0"/>
    <path transform="translate(60,358.8725670645842)" d="M0,0L-6,0"/>
    <path transform="translate(60,333.30885059687625)" d="M0,0L-6,0"/>
    <path transform="translate(60,307.7451341291683)" d="M0,0L-6,0"/>
    <path transform="translate(60,282.18141766146044)" d="M0,0L-6,0"/>
    <path transform="translate(60,256.6177011937525)" d="M0,0L-6,0"/>
    <path transform="translate(60,231.0539847260446)" d="M0,0L-6,0"/>
    <path transform="translate(60,205.4902682583367)" d="M0,0L-6,0"/>
    <path transform="translate(60,179.92655179062876)" d="M0,0L-6,0"/>
    <path transform="translate(60,154.3628353229209)" d="M0,0L-6,0"/>
    <path transform="translate(60,128.79911885521295)" d="M0,0L-6,0"/>
    <path transform="translate(60,103.23540238750502)" d="M0,0L-6,0"/>
    <path transform="translate(60,77.67168591979713)" d="M0,0L-6,0"/>
  </g>
  <g aria-label="y-axis tick label" text-anchor="end" font-variant="tabular-nums">
    <text y=".32em" transform="translate(-9,0) translate(60,410)">0</text>
    <text y=".32em" transform="translate(-9,0) translate(60,384.43628353229207)">50,000</text>
    <text y=".32em" transform="translate(-9,0) translate(60,358.8725670645842)">100,000</text>
    <text y=".32em" transform="translate(-9,0) translate(60,333.30885059687625)">150,000</text>
    <text y=".32em" transform="translate(-9,0) translate(60,307.7451341291683)">200,000</text>
    <text y=".32em" transform="translate(-9,0) translate(60,282.18141766146044)">250,000</text>
    <text y=".32em" transform="translate(-9,0) translate(60,256.6177011937525)">300,000</text>
    <text y=".32em" transform="translate(-9,0) translate(60,231.0539847260446)">350,000</text>
    <text y=".32em" transform="translate(-9,0) translate(60,205.4902682583367)">400,000</text>
    <text y=".32em" transform="translate(-9,0) translate(60,179.92655179062876)">450,000</text>
    <text y=".32em" transform="translate(-9,0) translate(60,154.3628353229209)">500,000</text>
    <text y=".32em" transform="translate(-9,0) translate(60,128.79911885521295)">550,000</text>
    <text y=".32em" transform="translate(-9,0) translate(60,103.23540238750502)">600,000</text>
    <text y=".32em" transform="translate(-9,0) translate(60,77.67168591979713)">650,000</text>
  </g>
  <g aria-label="y-axis label" text-anchor="start">
    <text y=".71em" transform="translate(-57,-57) translate(60,60)">&#x2191; Total Vestiges</text>
  </g>
  <g aria-label="x-axis tick" fill="none" stroke="currentColor">
    <path transform="translate(88.26697892271663,410)" d="M0,0L0,6"/>
    <path transform="translate(163.92271662763466,410)" d="M0,0L0,6"/>
    <path transform="translate(240.40983606557378,410)" d="M0,0L0,6"/>
    <path transform="translate(316.89695550351286,410)" d="M0,0L0,6"/>
    <path transform="translate(392.5526932084309,410)" d="M0,0L0,6"/>
    <path transform="translate(468.20843091334893,410)" d="M0,0L0,6"/>
    <path transform="translate(544.695550351288,410)" d="M0,0L0,6"/>
    <path transform="translate(621.1826697892271,410)" d="M0,0L0,6"/>
    <path transform="translate(696.007025761124,410)" d="M0,0L0,6"/>
  </g>
  <g aria-label="x-axis tick label" font-variant="tabular-nums">
    <text transform="translate(0,9) translate(88.26697892271663,410)">
      <tspan x="0" y=".71em">Apr</tspan>
      <tspan x="0" dy="1em">2023</tspan>
    </text>
    <text y=".71em" transform="translate(0,9) translate(163.92271662763466,410)">Jul</text>
    <text y=".71em" transform="translate(0,9) translate(240.40983606557378,410)">Oct</text>
    <text transform="translate(0,9) translate(316.89695550351286,410)">
      <tspan x="0" y=".71em">Jan</tspan>
      <tspan x="0" dy="1em">2024</tspan>
    </text>
    <text y=".71em" transform="translate(0,9) translate(392.5526932084309,410)">Apr</text>
    <text y=".71em" transform="translate(0,9) translate(468.20843091334893,410)">Jul</text>
    <text y=".71em" transform="translate(0,9) translate(544.695550351288,410)">Oct</text>
    <text transform="translate(0,9) translate(621.1826697892271,410)">
      <tspan x="0" y=".71em">Jan</tspan>
      <tspan x="0" dy="1em">2025</tspan>
    </text>
    <text y=".71em" transform="translate(0,9) translate(696.007025761124,410)">Apr</text>
  </g>
  <g aria-label="line" fill="none" stroke="currentColor" stroke-width="1.5" stroke-linejoin="round" stroke-linecap="round">
    <path d="M60,410L60.554,409.743L61.109,408.805L61.663,408.298L62.217,407.94L62.771,407.348L63.326,406.881L63.88,406.444L64.434,405.56L64.988,404.86L65.543,404.029L66.097,402.742L66.651,401.529L67.205,400.899L67.76,399.987L68.314,399.368L68.868,398.658L69.422,397.73L69.977,397.106L70.531,396.493L71.085,395.662L71.639,394.74L72.194,394.087L72.748,392.973L73.302,392.445L73.856,391.953L74.411,391.065L74.965,390.215L75.519,389.56L76.073,388.648L76.628,387.739L77.182,386.91L77.736,385.627L78.29,384.608L78.845,384.018L79.399,383.404L79.953,382.941L80.507,382.567L81.062,381.874L81.616,381.196L82.17,380.723L82.724,379.629L83.279,378.486L83.833,377.461L84.387,376.22L84.941,375.379L85.496,374.662L86.05,373.685L86.604,372.868L87.158,372.277L87.713,371.211L88.267,370.181L88.821,369.22L89.375,367.842L89.93,366.534L90.484,365.853L91.038,364.843L91.593,363.932L92.147,363.116L92.701,361.96L93.255,360.874L93.81,359.93L94.364,358.796L94.918,357.709L95.472,356.773L96.027,355.514L96.581,354.739L97.135,354.041L97.689,353.066L98.244,352.267L98.798,351.671L99.352,350.902L99.906,350.072L100.461,349.298L101.015,348.284L101.569,347.278L102.123,346.705L102.678,345.909L103.232,345.288L103.786,344.879L104.34,344.247L104.895,343.618L105.449,342.949L106.003,342.084L106.557,341.205L107.112,340.518L107.666,339.567L108.22,338.9L108.774,338.464L109.329,337.462L109.883,336.77L110.437,336.395L110.991,335.768L111.546,335.163L112.1,334.533L112.654,333.668L113.208,332.915L113.763,332.267L114.317,331.703L114.871,331.203L115.425,330.725L115.98,329.94L116.534,329.492L117.088,329.038L117.642,328.3L118.197,327.463L118.751,326.807L119.305,325.964L119.859,325.395L120.414,324.867L120.968,324.102L121.522,323.578L122.077,323.08L122.631,322.414L123.185,321.894L123.739,321.265L124.294,320.599L124.848,319.994L125.402,319.493L125.956,318.968L126.511,318.509L127.065,318.077L127.619,317.469L128.173,317.005L128.728,316.588L129.282,315.898L129.836,315.003L130.39,314.349L130.945,313.499L131.499,312.99L132.053,312.407L132.607,311.805L133.162,311.255L133.716,310.868L134.27,310.102L134.824,309.5L135.379,308.867L135.933,307.949L136.487,307.273L137.041,306.682L137.596,306.078L138.15,305.419L138.704,304.909L139.258,304.41L139.813,303.749L140.367,303.359L140.921,302.842L141.475,302.375L142.03,301.937L142.584,301.318L143.138,300.872L143.692,300.407L144.247,299.784L144.801,299.338L145.355,298.927L145.909,298.481L146.464,297.957L147.018,297.464L147.572,296.95L148.126,296.392L148.681,295.954L149.235,295.418L149.789,294.968L150.343,294.52L150.898,293.899L151.452,293.382L152.006,292.974L152.56,292.438L153.115,291.929L153.669,291.561L154.223,290.928L154.778,290.446L155.332,289.948L155.886,289.395L156.44,288.925L156.995,288.645L157.549,288.133L158.103,287.714L158.657,287.216L159.212,286.624L159.766,286.156L160.32,285.639L160.874,285.071L161.429,284.554L161.983,284.1L162.537,283.359L163.091,282.758L163.646,282.411L164.2,281.857L164.754,281.364L165.308,281.067L165.863,280.542L166.417,280.202L166.971,279.799L167.525,279.309L168.08,278.851L168.634,278.49L169.188,277.918L169.742,277.5L170.297,277.121L170.851,276.589L171.405,276.111L171.959,275.735L172.514,275.158L173.068,274.791L173.622,274.374L174.176,273.845L174.731,273.415L175.285,272.926L175.839,272.368L176.393,271.878L176.948,271.462L177.502,270.985L178.056,270.423L178.61,269.984L179.165,269.572L179.719,269.136L180.273,268.804L180.827,268.236L181.382,267.88L181.936,267.478L182.49,266.973L183.044,266.57L183.599,266.081L184.153,265.431L184.707,264.941L185.262,264.652L185.816,263.987L186.37,263.498L186.924,263.064L187.479,262.457L188.033,262.047L188.587,261.607L189.141,261.099L189.696,260.584L190.25,260.14L190.804,259.482L191.358,258.976L191.913,258.53L192.467,257.99L193.021,257.395L193.575,256.786L194.13,255.891L194.684,255.345L195.238,254.933L195.792,254.375L196.347,253.926L196.901,253.601L197.455,253.095L198.009,252.648L198.564,252.335L199.118,251.825L199.672,251.36L200.226,251.023L200.781,250.483L201.335,249.979L201.889,249.596L202.443,249.091L202.998,248.46L203.552,247.928L204.106,247.264L204.66,246.795L205.215,246.341L205.769,245.669L206.323,245.165L206.877,244.697L207.432,244.135L207.986,243.67L208.54,243.358L209.094,242.908L209.649,242.569L210.203,242.196L210.757,241.744L211.311,241.29L211.866,240.87L212.42,240.45L212.974,240.017L213.528,239.65L214.083,239.243L214.637,238.839L215.191,238.498L215.746,238.104L216.3,237.699L216.854,237.261L217.408,236.737L217.963,236.363L218.517,235.958L219.071,235.534L219.625,235.223L220.18,234.89L220.734,234.542L221.288,234.33L221.842,234.069L222.397,233.474L222.951,233.062L223.505,232.675L224.059,232.151L224.614,231.932L225.168,231.638L225.722,231.362L226.276,231.141L226.831,230.807L227.385,230.467L227.939,230.076L228.493,229.666L229.048,229.011L229.602,228.456L230.156,228.158L230.71,227.756L231.265,227.48L231.819,227.146L232.373,226.762L232.927,226.418L233.482,226.144L234.036,225.723L234.59,225.262L235.144,224.92L235.699,224.455L236.253,224.219L236.807,223.987L237.361,223.676L237.916,223.382L238.47,223.121L239.024,222.696L239.578,222.342L240.133,221.98L240.687,221.491L241.241,221.124L241.795,220.93L242.35,220.569L242.904,220.304L243.458,220.066L244.012,219.765L244.567,219.47L245.121,219.131L245.675,218.684L246.23,218.207L246.784,217.728L247.338,217.229L247.892,216.87L248.447,216.596L249.001,216.256L249.555,215.971L250.109,215.664L250.664,215.251L251.218,214.974L251.772,214.714L252.326,214.136L252.881,213.643L253.435,213.338L253.989,213.024L254.543,212.799L255.098,212.621L255.652,212.245L256.206,211.996L256.76,211.748L257.315,211.266L257.869,210.747L258.423,210.358L258.977,209.829L259.532,209.55L260.086,209.293L260.64,208.852L261.194,208.567L261.749,208.295L262.303,207.909L262.857,207.497L263.411,207.233L263.966,206.796L264.52,206.515L265.074,206.334L265.628,205.945L266.183,205.685L266.737,205.526L267.291,205.287L267.845,205.042L268.4,204.633L268.954,204.15L269.508,203.665L270.062,203.342L270.617,203.023L271.171,202.837L271.725,202.558L272.279,202.229L272.834,202.048L273.388,201.859L273.942,201.535L274.496,201.337L275.051,201.064L275.605,200.766L276.159,200.498L276.714,200.323L277.268,200.083L277.822,199.952L278.376,199.772L278.931,199.528L279.485,199.363L280.039,199.253L280.593,198.869L281.148,198.491L281.702,198.122L282.256,197.755L282.81,197.473L283.365,197.299L283.919,197.015L284.473,196.84L285.027,196.593L285.582,196.232L286.136,195.939L286.69,195.681L287.244,195.296L287.799,195.022L288.353,194.758L288.907,194.446L289.461,194.19L290.016,193.899L290.57,193.471L291.124,193.216L291.678,192.977L292.233,192.726L292.787,192.437L293.341,192.153L293.895,191.839L294.45,191.657L295.004,191.544L295.558,191.275L296.112,191.05L296.667,190.877L297.221,190.667L297.775,190.468L298.329,190.312L298.884,190.066L299.438,189.841L299.992,189.714L300.546,189.423L301.101,189.148L301.655,189.029L302.209,188.856L302.763,188.721L303.318,188.571L303.872,188.286L304.426,188L304.98,187.791L305.535,187.596L306.089,187.395L306.643,187.142L307.198,186.944L307.752,186.801L308.306,186.632L308.86,186.351L309.415,186.176L309.969,185.963L310.523,185.606L311.077,185.318L311.632,185.171L312.186,184.94L312.74,184.639L313.294,184.402L313.849,184.095L314.403,183.862L314.957,183.6L315.511,183.293L316.066,183.056L316.62,182.833L317.174,182.551L317.728,182.31L318.283,182.089L318.837,181.744L319.391,181.538L319.945,181.378L320.5,181.044L321.054,180.926L321.608,180.724L322.162,180.397L322.717,180.228L323.271,180.031L323.825,179.786L324.379,179.638L324.934,179.486L325.488,179.333L326.042,179.221L326.596,179.012L327.151,178.727L327.705,178.463L328.259,178.142L328.813,177.759L329.368,177.584L329.922,177.376L330.476,177.175L331.03,176.898L331.585,176.588L332.139,176.357L332.693,176.19L333.247,175.918L333.802,175.591L334.356,175.134L334.91,174.85L335.464,174.502L336.019,174.301L336.573,174.116L337.127,173.868L337.681,173.762L338.236,173.606L338.79,173.21L339.344,172.776L339.899,172.458L340.453,172.016L341.007,171.77L341.561,171.561L342.116,171.309L342.67,171.061L343.224,170.85L343.778,170.519L344.333,170.322L344.887,169.992L345.441,169.501L345.995,169.156L346.55,168.907L347.104,168.537L347.658,168.291L348.212,168.112L348.767,167.732L349.321,167.426L349.875,167.085L350.429,166.749L350.984,166.357L351.538,165.835L352.092,165.268L352.646,164.958L353.201,164.636L353.755,164.167L354.309,163.847L354.863,163.608L355.418,163.3L355.972,163.04L356.526,162.777L357.08,162.357L357.635,161.988L358.189,161.837L358.743,161.508L359.297,161.227L359.852,160.903L360.406,160.583L360.96,160.392L361.514,160.111L362.069,159.691L362.623,159.303L363.177,159.045L363.731,158.648L364.286,158.449L364.84,158.194L365.394,157.907L365.948,157.72L366.503,157.498L367.057,157.203L367.611,156.969L368.165,156.733L368.72,156.295L369.274,156.051L369.828,155.842L370.383,155.655L370.937,155.48L371.491,155.248L372.045,155.032L372.6,154.899L373.154,154.734L373.708,154.381L374.262,154.159L374.817,153.991L375.371,153.662L375.925,153.432L376.479,153.335L377.034,153.137L377.588,152.873L378.142,152.676L378.696,152.407L379.251,152.115L379.805,151.836L380.359,151.404L380.913,151.105L381.468,150.912L382.022,150.878L382.576,150.874L383.13,150.872L383.685,150.869L384.239,150.866L384.793,150.861L385.347,150.856L385.902,150.833L386.456,150.816L387.01,150.805L387.564,150.777L388.119,150.732L388.673,150.7L389.227,150.659L389.781,150.579L390.336,150.473L390.89,150.204L391.444,150.022L391.998,149.851L392.553,149.698L393.107,149.552L393.661,149.384L394.215,149.171L394.77,148.98L395.324,148.753L395.878,148.518L396.432,148.31L396.987,148.057L397.541,147.864L398.095,147.717L398.649,147.504L399.204,147.275L399.758,147.176L400.312,147.027L400.867,146.807L401.421,146.682L401.975,146.553L402.529,146.359L403.084,146.205L403.638,145.981L404.192,145.792L404.746,145.68L405.301,145.509L405.855,145.36L406.409,145.22L406.963,145.123L407.518,145.001L408.072,144.929L408.626,144.8L409.18,144.663L409.735,144.489L410.289,144.244L410.843,144.088L411.397,143.988L411.952,143.772L412.506,143.608L413.06,143.459L413.614,143.303L414.169,143.087L414.723,142.938L415.277,142.73L415.831,142.588L416.386,142.478L416.94,142.311L417.494,142.124L418.048,141.931L418.603,141.804L419.157,141.631L419.711,141.483L420.265,141.298L420.82,141.034L421.374,140.836L421.928,140.581L422.482,140.441L423.037,140.316L423.591,140.143L424.145,139.97L424.699,139.825L425.254,139.63L425.808,139.41L426.362,139.272L426.916,139.024L427.471,138.804L428.025,138.626L428.579,138.369L429.133,138.22L429.688,138.106L430.242,138.015L430.796,137.89L431.351,137.731L431.905,137.558L432.459,137.194L433.013,137.013L433.568,136.738L434.122,136.608L434.676,136.482L435.23,136.327L435.785,136.096L436.339,136.018L436.893,135.849L437.447,135.663L438.002,135.495L438.556,135.239L439.11,134.922L439.664,134.757L440.219,134.479L440.773,134.351L441.327,134.179L441.881,133.869L442.436,133.642L442.99,133.487L443.544,133.236L444.098,132.968L444.653,132.823L445.207,132.493L445.761,132.343L446.315,132.193L446.87,131.976L447.424,131.752L447.978,131.6L448.532,131.347L449.087,131.15L449.641,130.944L450.195,130.641L450.749,130.339L451.304,130.122L451.858,129.913L452.412,129.636L452.966,129.47L453.521,129.299L454.075,129.144L454.629,128.924L455.183,128.735L455.738,128.533L456.292,128.347L456.846,128.148L457.4,127.926L457.955,127.858L458.509,127.755L459.063,127.597L459.617,127.472L460.172,127.175L460.726,127.002L461.28,126.88L461.835,126.719L462.389,126.373L462.943,126.255L463.497,126.081L464.052,125.845L464.606,125.668L465.16,125.552L465.714,125.398L466.269,125.302L466.823,125.172L467.377,125.022L467.931,124.867L468.486,124.586L469.04,124.39L469.594,124.256L470.148,124.011L470.703,123.833L471.257,123.654L471.811,123.52L472.365,123.385L472.92,123.284L473.474,123.112L474.028,122.92L474.582,122.836L475.137,122.721L475.691,122.597L476.245,122.481L476.799,122.343L477.354,122.178L477.908,121.998L478.462,121.803L479.016,121.695L479.571,121.581L480.125,121.396L480.679,121.233L481.233,121.131L481.788,120.946L482.342,120.776L482.896,120.642L483.45,120.481L484.005,120.312L484.559,120.132L485.113,119.885L485.667,119.547L486.222,119.336L486.776,119.111L487.33,118.957L487.884,118.808L488.439,118.602L488.993,118.458L489.547,118.345L490.101,118.207L490.656,118.063L491.21,117.905L491.764,117.735L492.319,117.495L492.873,117.323L493.427,117.047L493.981,116.787L494.536,116.521L495.09,116.251L495.644,116.013L496.198,115.738L496.753,115.443L497.307,115.294L497.861,115.1L498.415,114.747L498.97,114.564L499.524,114.398L500.078,114.168L500.632,114.01L501.187,113.929L501.741,113.455L502.295,113.045L502.849,112.636L503.404,112.198L503.958,111.844L504.512,111.59L505.066,111.192L505.621,110.775L506.175,110.518L506.729,110.275L507.283,109.982L507.838,109.711L508.392,109.411L508.946,109.078L509.5,108.858L510.055,108.723L510.609,108.476L511.163,108.336L511.717,108.188L512.272,107.992L512.826,107.808L513.38,107.592L513.934,107.333L514.489,107.074L515.043,106.875L515.597,106.673L516.151,106.495L516.706,106.338L517.26,106.23L517.814,106.149L518.368,106.056L518.923,105.938L519.477,105.799L520.031,105.703L520.585,105.547L521.14,105.443L521.694,105.32L522.248,105.211L522.802,105.077L523.357,104.967L523.911,104.77L524.465,104.628L525.02,104.472L525.574,104.352L526.128,104.173L526.682,103.988L527.237,103.824L527.791,103.699L528.345,103.546L528.899,103.433L529.454,103.304L530.008,103.22L530.562,103.116L531.116,103.002L531.671,102.907L532.225,102.742L532.779,102.607L533.333,102.491L533.888,102.374L534.442,102.235L534.996,102.113L535.55,101.955L536.105,101.854L536.659,101.675L537.213,101.434L537.767,101.203L538.322,100.882L538.876,100.743L539.43,100.585L539.984,100.419L540.539,100.317L541.093,100.144L541.647,99.972L542.201,99.8L542.756,99.574L543.31,99.174L543.864,98.997L544.418,98.882L544.973,98.635L545.527,98.488L546.081,98.407L546.635,98.243L547.19,98.106L547.744,97.998L548.298,97.808L548.852,97.592L549.407,97.38L549.961,97.08L550.515,96.964L551.069,96.861L551.624,96.715L552.178,96.586L552.732,96.513L553.286,96.425L553.841,96.295L554.395,96.229L554.949,96.106L555.504,95.996L556.058,95.914L556.612,95.811L557.166,95.749L557.721,95.649L558.275,95.502L558.829,95.379L559.383,95.286L559.938,95.095L560.492,94.945L561.046,94.81L561.6,94.611L562.155,94.554L562.709,94.48L563.263,94.349L563.817,94.271L564.372,94.189L564.926,94.086L565.48,94.019L566.034,93.94L566.589,93.749L567.143,93.631L567.697,93.589L568.251,93.538L568.806,93.464L569.36,93.358L569.914,93.255L570.468,93.098L571.023,93.016L571.577,92.845L572.131,92.607L572.685,92.431L573.24,92.169L573.794,91.983L574.348,91.864L574.902,91.75L575.457,91.639L576.011,91.508L576.565,91.407L577.119,91.32L577.674,91.167L578.228,91.015L578.782,90.851L579.336,90.764L579.891,90.612L580.445,90.551L580.999,90.476L581.553,90.327L582.108,90.232L582.662,90.135L583.216,90.024L583.77,89.884L584.325,89.757L584.879,89.619L585.433,89.538L585.988,89.425L586.542,89.291L587.096,89.174L587.65,89.064L588.205,88.916L588.759,88.812L589.313,88.693L589.867,88.509L590.422,88.326L590.976,88.253L591.53,88.15L592.084,88.032L592.639,87.954L593.193,87.848L593.747,87.765L594.301,87.72L594.856,87.617L595.41,87.565L595.964,87.537L596.518,87.466L597.073,87.368L597.627,87.317L598.181,87.26L598.735,87.152L599.29,86.981L599.844,86.87L600.398,86.712L600.952,86.651L601.507,86.562L602.061,86.492L602.615,86.396L603.169,86.301L603.724,86.251L604.278,86.182L604.832,86.064L605.386,85.973L605.941,85.886L606.495,85.73L607.049,85.575L607.603,85.494L608.158,85.346L608.712,85.265L609.266,85.118L609.82,85.007L610.375,84.954L610.929,84.889L611.483,84.779L612.037,84.691L612.592,84.59L613.146,84.411L613.7,84.357L614.254,84.225L614.809,84.117L615.363,84.03L615.917,83.961L616.472,83.876L617.026,83.813L617.58,83.73L618.134,83.64L618.689,83.498L619.243,83.381L619.797,83.135L620.351,82.96L620.906,82.82L621.46,82.654L622.014,82.529L622.568,82.413L623.123,82.213L623.677,82.008L624.231,81.899L624.785,81.711L625.34,81.598L625.894,81.529L626.448,81.4L627.002,81.312L627.557,81.215L628.111,81.148L628.665,81.005L629.219,80.919L629.774,80.817L630.328,80.72L630.882,80.605L631.436,80.523L631.991,80.43L632.545,80.347L633.099,80.253L633.653,80.117L634.208,80.017L634.762,79.843L635.316,79.737L635.87,79.626L636.425,79.489L636.979,79.356L637.533,79.213L638.087,79.057L638.642,78.948L639.196,78.883L639.75,78.748L640.304,78.633L640.859,78.529L641.413,78.396L641.967,78.245L642.521,78.031L643.076,77.761L643.63,77.566L644.184,77.461L644.738,77.344L645.293,77.254L645.847,77.151L646.401,77.006L646.956,76.914L647.51,76.84L648.064,76.647L648.618,76.478L649.173,76.394L649.727,76.247L650.281,76.125L650.835,76.011L651.39,75.889L651.944,75.726L652.498,75.533L653.052,75.407L653.607,75.282L654.161,75.196L654.715,75.09L655.269,74.997L655.824,74.957L656.378,74.777L656.932,74.699L657.486,74.574L658.041,74.413L658.595,74.281L659.149,74.094L659.703,73.917L660.258,73.795L660.812,73.674L661.366,73.473L661.92,73.37L662.475,73.261L663.029,73.083L663.583,72.971L664.137,72.838L664.692,72.654L665.246,72.564L665.8,72.464L666.354,72.306L666.909,72.2L667.463,72.003L668.017,71.896L668.571,71.714L669.126,71.558L669.68,71.459L670.234,71.369L670.788,71.247L671.343,71.008L671.897,70.777L672.451,70.627L673.005,70.426L673.56,70.298L674.114,70.147L674.668,69.918L675.222,69.743L675.777,69.594L676.331,69.443L676.885,69.341L677.44,69.215L677.994,69.098L678.548,68.966L679.102,68.848L679.657,68.712L680.211,68.605L680.765,68.478L681.319,68.291L681.874,68.149L682.428,68.061L682.982,67.977L683.536,67.873L684.091,67.773L684.645,67.677L685.199,67.612L685.753,67.543L686.308,67.429L686.862,67.37L687.416,67.297L687.97,67.191L688.525,67.088L689.079,66.999L689.633,66.857L690.187,66.785L690.742,66.667L691.296,66.59L691.85,66.435L692.404,66.366L692.959,66.239L693.513,66.189L694.067,66.13L694.621,65.959L695.176,65.87L695.73,65.767L696.284,65.719L696.838,65.647L697.393,65.526L697.947,65.451L698.501,65.379L699.055,65.354L699.61,65.278L700.164,65.247L700.718,65.176L701.272,65.127L701.827,65.012L702.381,64.893L702.935,64.78L703.489,64.742L704.044,64.675L704.598,64.621L705.152,64.587L705.706,64.566L706.261,64.467L706.815,64.394L707.369,64.31L707.923,64.276L708.478,64.213L709.032,64.154L709.586,64.057L710.141,64.03L710.695,63.984L711.249,63.942L711.803,63.853L712.358,63.765L712.912,63.701L713.466,63.645L714.02,63.591L714.575,63.55L715.129,63.513L715.683,63.494L716.237,63.475L716.792,63.435L717.346,63.371L717.9,63.359L718.454,63.325L719.009,63.31L719.563,63.282L720.117,63.264L720.671,63.249L721.226,63.231L721.78,63.217L722.334,63.209L722.888,63.181L723.443,63.128L723.997,63.108L724.551,63.077L725.105,63.075L725.66,63.034L726.214,63L726.768,62.957L727.322,62.932L727.877,62.853L728.431,62.824L728.985,62.802L729.539,62.773L730.094,62.733L730.648,62.694L731.202,62.684L731.756,62.674L732.311,62.66L732.865,62.642L733.419,62.615L733.973,62.574L734.528,62.538L735.082,62.509L735.636,62.459L736.19,62.395L736.745,62.354L737.299,62.315L737.853,62.271L738.407,62.258L738.962,62.215L739.516,62.156L740.07,62.126L740.625,62.05L741.179,61.983L741.733,61.939L742.287,61.875L742.842,61.847L743.396,61.823L743.95,61.802L744.504,61.749L745.059,61.66L745.613,61.64L746.167,61.564L746.721,61.508L747.276,61.478L747.83,61.449L748.384,61.433L748.938,61.398L749.493,61.359L750.047,61.302L750.601,61.251L751.155,61.188L751.71,61.139L752.264,61.124L752.818,61.062L753.372,61.03L753.927,61.007L754.481,61.006L755.035,60.979L755.589,60.952L756.144,60.917L756.698,60.871L757.252,60.854L757.806,60.819L758.361,60.801L758.915,60.782L759.469,60.763L760.023,60.741L760.578,60.723L761.132,60.681L761.686,60.657L762.24,60.629L762.795,60.558L763.349,60.512L763.903,60.482L764.457,60.441L765.012,60.379L765.566,60.324L766.12,60.298L766.674,60.254L767.229,60.2L767.783,60.16L768.337,60.131L768.891,60.087L769.446,60.014L770,60"/>
  </g>
</svg>
