<?xml version="1.0"?>
<svg xmlns="http://www.w3.org/2000/svg" xmlns:xlink="http://www.w3.org/1999/xlink" class="plot-d6a7b5" fill="currentColor" font-family="system-ui, sans-serif" font-size="10" text-anchor="middle" width="830" height="470" viewBox="0 0 830 470" color="#1e90ff">
  <style>:where(.plot-d6a7b5){--plot-background: white;display:block;height:intrinsic;max-width:100%}:where(.plot-d6a7b5 text),:where(.plot-d6a7b5 tspan){white-space:pre}</style>
  <g aria-label="y-grid" aria-hidden="true" stroke="currentColor" stroke-opacity=".1">
    <line x1="60" x2="770" y1="410" y2="410"/>
    <line x1="60" x2="770" y1="360.939" y2="360.939"/>
    <line x1="60" x2="770" y1="311.878" y2="311.878"/>
    <line x1="60" x2="770" y1="262.817" y2="262.817"/>
    <line x1="60" x2="770" y1="213.757" y2="213.757"/>
    <line x1="60" x2="770" y1="164.696" y2="164.696"/>
    <line x1="60" x2="770" y1="115.635" y2="115.635"/>
    <line x1="60" x2="770" y1="66.574" y2="66.574"/>
  </g>
  <g aria-label="y-axis tick" aria-hidden="true" fill="none" stroke="currentColor">
    <path transform="translate(60,410)" d="M0,0L-6,0"/>
    <path transform="translate(60,360.9391645640594)" d="M0,0L-6,0"/>
    <path transform="translate(60,311.8783291281189)" d="M0,0L-6,0"/>
    <path transform="translate(60,262.8174936921783)" d="M0,0L-6,0"/>
    <path transform="translate(60,213.7566582562377)" d="M0,0L-6,0"/>
    <path transform="translate(60,164.69582282029717)" d="M0,0L-6,0"/>
    <path transform="translate(60,115.6349873843566)" d="M0,0L-6,0"/>
    <path transform="translate(60,66.57415194841604)" d="M0,0L-6,0"/>
  </g>
  <g aria-label="y-axis tick label" text-anchor="end" font-variant="tabular-nums">
    <text y=".32em" transform="translate(-9,0) translate(60,410)">0</text>
    <text y=".32em" transform="translate(-9,0) translate(60,360.9391645640594)">1,000</text>
    <text y=".32em" transform="translate(-9,0) translate(60,311.8783291281189)">2,000</text>
    <text y=".32em" transform="translate(-9,0) translate(60,262.8174936921783)">3,000</text>
    <text y=".32em" transform="translate(-9,0) translate(60,213.7566582562377)">4,000</text>
    <text y=".32em" transform="translate(-9,0) translate(60,164.69582282029717)">5,000</text>
    <text y=".32em" transform="translate(-9,0) translate(60,115.6349873843566)">6,000</text>
    <text y=".32em" transform="translate(-9,0) translate(60,66.57415194841604)">7,000</text>
  </g>
  <g aria-label="y-axis label" text-anchor="start">
    <text y=".71em" transform="translate(-57,-57) translate(60,60)">&#x2191; Visible Vestiges (4 days)</text>
  </g>
  <g aria-label="x-axis tick" aria-hidden="true" fill="none" stroke="currentColor">
    <path transform="translate(85.99425699928213,410)" d="M0,0L0,6"/>
    <path transform="translate(155.56712132089018,410)" d="M0,0L0,6"/>
    <path transform="translate(225.90452261306532,410)" d="M0,0L0,6"/>
    <path transform="translate(296.24192390524047,410)" d="M0,0L0,6"/>
    <path transform="translate(365.8147882268486,410)" d="M0,0L0,6"/>
    <path transform="translate(435.3876525484565,410)" d="M0,0L0,6"/>
    <path transform="translate(505.7250538406317,410)" d="M0,0L0,6"/>
    <path transform="translate(576.0624551328069,410)" d="M0,0L0,6"/>
    <path transform="translate(644.8707824838478,410)" d="M0,0L0,6"/>
    <path transform="translate(714.4436468054558,410)" d="M0,0L0,6"/>
  </g>
  <g aria-label="x-axis tick label" font-variant="tabular-nums">
    <text transform="translate(0,9) translate(85.99425699928213,410)">
      <tspan x="0" y=".71em">Apr</tspan>
      <tspan x="0" dy="1em">2023</tspan>
    </text>
    <text y=".71em" transform="translate(0,9) translate(155.56712132089018,410)">Jul</text>
    <text y=".71em" transform="translate(0,9) translate(225.90452261306532,410)">Oct</text>
    <text transform="translate(0,9) translate(296.24192390524047,410)">
      <tspan x="0" y=".71em">Jan</tspan>
      <tspan x="0" dy="1em">2024</tspan>
    </text>
    <text y=".71em" transform="translate(0,9) translate(365.8147882268486,410)">Apr</text>
    <text y=".71em" transform="translate(0,9) translate(435.3876525484565,410)">Jul</text>
    <text y=".71em" transform="translate(0,9) translate(505.7250538406317,410)">Oct</text>
    <text transform="translate(0,9) translate(576.0624551328069,410)">
      <tspan x="0" y=".71em">Jan</tspan>
      <tspan x="0" dy="1em">2025</tspan>
    </text>
    <text y=".71em" transform="translate(0,9) translate(644.8707824838478,410)">Apr</text>
    <text y=".71em" transform="translate(0,9) translate(714.4436468054558,410)">Jul</text>
  </g>
  <g aria-label="line" fill="none" stroke="currentColor" stroke-width="1.5" stroke-linejoin="round" stroke-linecap="round">
    <path d="M60,
410.00L
60.51,
385.37L
61.02,
295.30L
61.53,
246.73L
62.04,
236.91L
62.55,
270.18L
63.06,
274.00L
63.57,
266.50L
64.08,
238.43L
64.59,
216.01L
65.10,
178.24L
65.61,
139.63L
66.12,
90.37L
66.63,
109.65L
67.14,
145.66L
67.65,
202.67L
68.16,
195.02L
68.67,
193.45L
69.17,
192.91L
69.68,
202.23L
70.19,
211.50L
70.70,
183.00L
71.21,
179.12L
71.72,
151.99L
72.23,
189.82L
72.74,
205.22L
73.25,
226.91L
73.76,
195.95L
74.27,
180.40L
74.78,
178.09L
75.29,
172.40L
75.80,
155.72L
76.31,
120.05L
76.82,
109.60L
77.33,
132.46L
77.84,
196.68L
78.35,
250.01L
78.86,
270.77L
79.37,
263.21L
79.88,
242.56L
80.39,
233.04L
80.90,
194.62L
81.41,
149.98L
81.92,
97.04L
82.43,
82.86L
82.94,
111.81L
83.45,
141.34L
83.96,
166.76L
84.47,
169.11L
84.98,
181.13L
85.49,
172.60L
85.99,
152.14L
86.50,
116.67L
87.01,
86.69L
87.52,
60.00L
88.03,
86.93L
88.54,
122.26L
89.05,
160.38L
89.56,
147.33L
90.07,
133.30L
90.58,
116.52L
91.09,
104.35L
91.60,
106.46L
92.11,
106.36L
92.62,
107.05L
93.13,
95.03L
93.64,
125.01L
94.15,
147.77L
94.66,
175.05L
95.17,
172.79L
95.68,
182.60L
96.19,
202.38L
96.70,
199.33L
97.21,
182.36L
97.72,
158.76L
98.23,
141.88L
98.74,
161.11L
99.25,
182.16L
99.76,
219.06L
100.27,
234.85L
100.78,
250.50L
101.29,
249.72L
101.80,
224.80L
102.30,
202.47L
102.81,
178.48L
103.32,
176.72L
103.83,
168.47L
104.34,
188.79L
104.85,
212.83L
105.36,
207.97L
105.87,
205.61L
106.38,
211.50L
106.89,
247.41L
107.40,
255.80L
107.91,
231.32L
108.42,
208.51L
108.93,
194.33L
109.44,
192.56L
109.95,
221.51L
110.46,
245.74L
110.97,
262.03L
111.48,
240.74L
111.99,
245.79L
112.50,
248.10L
113.01,
252.66L
113.52,
215.33L
114.03,
196.00L
114.54,
185.84L
115.05,
211.55L
115.56,
223.81L
116.07,
231.32L
116.58,
235.64L
117.09,
238.48L
117.60,
248.05L
118.11,
248.35L
118.62,
235.83L
119.12,
235.79L
119.63,
227.69L
120.14,
239.96L
120.65,
253.50L
121.16,
267.53L
121.67,
274.15L
122.18,
266.15L
122.69,
265.71L
123.20,
267.09L
123.71,
259.33L
124.22,
217.83L
124.73,
195.21L
125.24,
179.76L
125.75,
216.90L
126.26,
223.62L
126.77,
247.41L
127.28,
243.44L
127.79,
262.33L
128.30,
246.58L
128.81,
241.62L
129.32,
218.03L
129.83,
203.45L
130.34,
196.34L
130.85,
200.31L
131.36,
230.49L
131.87,
232.11L
132.38,
239.86L
132.89,
249.87L
133.40,
249.72L
133.91,
261.30L
134.42,
259.58L
134.93,
278.17L
135.43,
273.46L
135.94,
263.80L
136.45,
265.76L
136.96,
263.21L
137.47,
262.72L
137.98,
262.82L
138.49,
267.97L
139.00,
285.04L
139.51,
277.44L
140.02,
269.64L
140.53,
263.01L
141.04,
259.83L
141.55,
265.12L
142.06,
263.06L
142.57,
273.37L
143.08,
272.38L
143.59,
264.19L
144.10,
257.81L
144.61,
261.64L
145.12,
269.83L
145.63,
270.57L
146.14,
274.40L
146.65,
265.12L
147.16,
267.68L
147.67,
255.26L
148.18,
262.92L
148.69,
264.09L
149.20,
284.99L
149.71,
288.82L
150.22,
293.82L
150.73,
272.88L
151.24,
265.27L
151.74,
260.41L
152.25,
258.65L
152.76,
260.95L
153.27,
256.29L
153.78,
262.28L
154.29,
245.74L
154.80,
237.65L
155.31,
247.95L
155.82,
265.86L
156.33,
276.26L
156.84,
281.07L
157.35,
283.77L
157.86,
298.53L
158.37,
288.28L
158.88,
291.67L
159.39,
280.38L
159.90,
284.40L
160.41,
276.60L
160.92,
280.28L
161.43,
278.62L
161.94,
282.44L
162.45,
276.75L
162.96,
277.00L
163.47,
272.68L
163.98,
283.33L
164.49,
279.40L
165.00,
283.96L
165.51,
277.93L
166.02,
271.11L
166.53,
268.26L
167.04,
262.57L
167.55,
269.49L
168.06,
277.29L
168.56,
270.37L
169.07,
268.17L
169.58,
274.45L
170.09,
286.51L
170.60,
296.82L
171.11,
281.80L
171.62,
289.46L
172.13,
282.69L
172.64,
288.77L
173.15,
284.31L
173.66,
276.02L
174.17,
262.08L
174.68,
253.64L
175.19,
272.83L
175.70,
271.45L
176.21,
271.60L
176.72,
257.62L
177.23,
263.16L
177.74,
270.72L
178.25,
270.18L
178.76,
279.69L
179.27,
269.64L
179.78,
269.24L
180.29,
254.87L
180.80,
255.70L
181.31,
255.56L
181.82,
266.79L
182.33,
258.26L
182.84,
242.65L
183.35,
208.61L
183.86,
213.27L
184.37,
232.11L
184.87,
264.49L
185.38,
273.90L
185.89,
282.25L
186.40,
287.15L
186.91,
287.30L
187.42,
288.48L
187.93,
288.13L
188.44,
286.42L
188.95,
284.11L
189.46,
281.31L
189.97,
277.54L
190.48,
273.07L
190.99,
276.41L
191.50,
264.24L
192.01,
249.96L
192.52,
234.71L
193.03,
250.16L
193.54,
257.67L
194.05,
256.88L
194.56,
253.59L
195.07,
252.27L
195.58,
262.82L
196.09,
266.55L
196.60,
281.56L
197.11,
292.30L
197.62,
304.37L
198.13,
298.44L
198.64,
298.24L
199.15,
287.25L
199.66,
282.79L
200.17,
285.88L
200.68,
287.89L
201.18,
292.94L
201.69,
294.12L
202.20,
296.96L
202.71,
299.47L
203.22,
300.79L
203.73,
300.59L
204.24,
291.32L
204.75,
278.76L
205.26,
281.76L
205.77,
284.94L
206.28,
294.61L
206.79,
300.69L
207.30,
307.51L
207.81,
314.82L
208.32,
324.24L
208.83,
331.21L
209.34,
307.46L
209.85,
288.33L
210.36,
276.26L
210.87,
283.08L
211.38,
301.58L
211.89,
310.51L
212.40,
334.25L
212.91,
334.10L
213.42,
330.23L
213.93,
324.09L
214.44,
307.81L
214.95,
300.50L
215.46,
270.37L
215.97,
254.58L
216.48,
265.32L
216.99,
289.56L
217.50,
316.29L
218.00,
312.91L
218.51,
314.63L
219.02,
308.10L
219.53,
313.79L
220.04,
310.31L
220.55,
299.07L
221.06,
292.60L
221.57,
288.33L
222.08,
309.96L
222.59,
320.42L
223.10,
335.18L
223.61,
329.69L
224.12,
326.94L
224.63,
316.00L
225.14,
310.16L
225.65,
300.50L
226.16,
294.32L
226.67,
293.14L
227.18,
309.23L
227.69,
321.59L
228.20,
331.31L
228.71,
327.09L
229.22,
332.83L
229.73,
329.98L
230.24,
320.27L
230.75,
306.29L
231.26,
288.77L
231.77,
275.38L
232.28,
270.37L
232.79,
281.71L
233.30,
301.38L
233.81,
316.59L
234.31,
323.80L
234.82,
320.61L
235.33,
313.60L
235.84,
314.28L
236.35,
318.85L
236.86,
303.05L
237.37,
282.25L
237.88,
277.98L
238.39,
303.29L
238.90,
329.05L
239.41,
341.17L
239.92,
335.23L
240.43,
332.97L
240.94,
326.25L
241.45,
316.05L
241.96,
290.14L
242.47,
276.56L
242.98,
272.14L
243.49,
295.10L
244.00,
307.86L
244.51,
316.20L
245.02,
315.66L
245.53,
314.23L
246.04,
319.48L
246.55,
307.32L
247.06,
308.05L
247.57,
303.20L
248.08,
315.80L
248.59,
323.75L
249.10,
328.41L
249.61,
330.33L
250.12,
332.48L
250.63,
346.81L
251.13,
348.38L
251.64,
324.29L
252.15,
300.94L
252.66,
277.83L
253.17,
286.12L
253.68,
301.82L
254.19,
330.57L
254.70,
334.74L
255.21,
333.86L
255.72,
334.30L
256.23,
342.98L
256.74,
343.38L
257.25,
341.76L
257.76,
333.71L
258.27,
336.16L
258.78,
329.44L
259.29,
338.91L
259.80,
344.50L
260.31,
357.60L
260.82,
357.06L
261.33,
356.72L
261.84,
353.53L
262.35,
360.20L
262.86,
346.76L
263.37,
326.35L
263.88,
301.53L
264.39,
303.10L
264.90,
312.32L
265.41,
331.01L
265.92,
339.06L
266.43,
349.17L
266.94,
342.20L
267.44,
334.84L
267.95,
323.56L
268.46,
322.52L
268.97,
320.17L
269.48,
322.08L
269.99,
321.40L
270.50,
328.41L
271.01,
330.08L
271.52,
327.63L
272.03,
316.44L
272.54,
316.59L
273.05,
321.49L
273.56,
338.57L
274.07,
335.28L
274.58,
330.91L
275.09,
324.83L
275.60,
335.13L
276.11,
351.62L
276.62,
355.94L
277.13,
351.77L
277.64,
345.93L
278.15,
351.62L
278.66,
354.12L
279.17,
355.84L
279.68,
352.35L
280.19,
349.80L
280.70,
352.60L
281.21,
348.28L
281.72,
343.52L
282.23,
344.26L
282.74,
355.64L
283.25,
369.03L
283.75,
366.09L
284.26,
355.25L
284.77,
340.78L
285.28,
335.13L
285.79,
343.77L
286.30,
351.96L
286.81,
347.74L
287.32,
347.50L
287.83,
353.04L
288.34,
361.04L
288.85,
353.09L
289.36,
350.00L
289.87,
345.78L
290.38,
338.52L
290.89,
327.73L
291.40,
334.01L
291.91,
346.03L
292.42,
344.85L
292.93,
336.21L
293.44,
328.95L
293.95,
335.38L
294.46,
333.07L
294.97,
333.02L
295.48,
332.63L
295.99,
336.41L
296.50,
338.81L
297.01,
338.42L
297.52,
338.62L
298.03,
332.58L
298.54,
335.92L
299.05,
341.71L
299.56,
342.79L
300.07,
351.27L
300.57,
347.25L
301.08,
347.94L
301.59,
343.03L
302.10,
343.57L
302.61,
351.42L
303.12,
353.43L
303.63,
357.70L
304.14,
366.48L
304.65,
369.97L
305.16,
364.47L
305.67,
351.81L
306.18,
337.29L
306.69,
326.55L
307.20,
317.18L
307.71,
325.62L
308.22,
336.51L
308.73,
353.97L
309.24,
344.16L
309.75,
334.40L
310.26,
331.45L
310.77,
342.05L
311.28,
345.63L
311.79,
336.51L
312.30,
308.69L
312.81,
307.56L
313.32,
305.50L
313.83,
330.08L
314.34,
339.60L
314.85,
349.21L
315.36,
358.29L
315.87,
360.99L
316.38,
346.86L
316.88,
315.41L
317.39,
299.91L
317.90,
295.35L
318.41,
313.40L
318.92,
323.85L
319.43,
342.15L
319.94,
342.00L
320.45,
341.85L
320.96,
334.25L
321.47,
339.06L
321.98,
327.63L
322.49,
312.27L
323.00,
298.14L
323.51,
305.89L
324.02,
317.57L
324.53,
327.04L
325.04,
333.66L
325.55,
332.68L
326.06,
326.94L
326.57,
311.49L
327.08,
315.71L
327.59,
307.46L
328.10,
290.10L
328.61,
267.87L
329.12,
275.77L
329.63,
294.95L
330.14,
304.32L
330.65,
303.34L
331.16,
311.34L
331.67,
326.89L
332.18,
332.53L
332.69,
330.28L
333.20,
319.43L
333.70,
309.13L
334.21,
319.73L
334.72,
328.61L
335.23,
336.95L
335.74,
320.37L
336.25,
321.20L
336.76,
329.84L
337.27,
334.01L
337.78,
324.39L
338.29,
305.55L
338.80,
307.71L
339.31,
309.92L
339.82,
328.02L
340.33,
328.41L
340.84,
338.91L
341.35,
340.04L
341.86,
343.18L
342.37,
342.49L
342.88,
337.98L
343.39,
336.61L
343.90,
322.87L
344.41,
321.89L
344.92,
324.54L
345.43,
348.58L
345.94,
355.25L
346.45,
352.99L
346.96,
350.15L
347.47,
354.17L
347.98,
360.60L
348.49,
347.55L
349.00,
339.06L
349.51,
338.76L
350.01,
341.02L
350.52,
340.19L
351.03,
347.01L
351.54,
359.66L
352.05,
356.43L
352.56,
346.81L
353.07,
339.94L
353.58,
337.19L
354.09,
329.34L
354.60,
313.74L
355.11,
313.11L
355.62,
321.40L
356.13,
359.52L
356.64,
387.83L
357.15,
406.12L
357.66,
409.17L
358.17,
409.22L
358.68,
408.97L
359.19,
408.72L
359.70,
406.86L
360.21,
405.63L
360.72,
405.09L
361.23,
404.65L
361.74,
401.95L
362.25,
399.94L
362.76,
398.67L
363.27,
395.38L
363.78,
388.17L
364.29,
366.29L
364.80,
356.48L
365.31,
350.39L
365.82,
361.48L
366.32,
364.91L
366.83,
365.16L
367.34,
359.42L
367.85,
355.10L
368.36,
349.46L
368.87,
347.35L
369.38,
345.73L
369.89,
343.18L
370.40,
347.25L
370.91,
353.09L
371.42,
356.92L
371.93,
353.48L
372.44,
358.09L
372.95,
364.28L
373.46,
365.06L
373.97,
362.66L
374.48,
364.47L
374.99,
367.07L
375.50,
364.23L
376.01,
355.15L
376.52,
355.59L
377.03,
359.57L
377.54,
364.72L
378.05,
368.54L
378.56,
365.85L
379.07,
372.91L
379.58,
375.56L
380.09,
382.13L
380.60,
379.04L
381.11,
377.52L
381.62,
367.76L
382.13,
356.62L
382.64,
354.86L
383.14,
361.87L
383.65,
364.72L
384.16,
363.88L
384.67,
359.27L
385.18,
365.06L
385.69,
360.06L
386.20,
360.01L
386.71,
354.95L
387.22,
362.07L
387.73,
365.89L
388.24,
369.77L
388.75,
365.55L
389.26,
357.46L
389.77,
361.43L
390.28,
362.66L
390.79,
367.07L
391.30,
361.38L
391.81,
352.70L
392.32,
347.89L
392.83,
341.27L
393.34,
353.09L
393.85,
360.11L
394.36,
367.91L
394.87,
364.86L
395.38,
362.90L
395.89,
360.84L
396.40,
356.18L
396.91,
356.87L
397.42,
351.77L
397.93,
351.91L
398.44,
348.09L
398.95,
347.15L
399.45,
353.97L
399.96,
360.06L
400.47,
376.10L
400.98,
378.26L
401.49,
373.99L
402.00,
366.09L
402.51,
343.23L
403.02,
341.17L
403.53,
331.31L
404.04,
353.78L
404.55,
359.03L
405.06,
370.56L
405.57,
360.89L
406.08,
365.45L
406.59,
364.18L
407.10,
368.45L
407.61,
359.86L
408.12,
351.47L
408.63,
338.91L
409.14,
339.16L
409.65,
337.10L
410.16,
355.20L
410.67,
354.56L
411.18,
351.42L
411.69,
341.95L
412.20,
343.57L
412.71,
349.31L
413.22,
345.34L
413.73,
346.32L
414.24,
338.62L
414.75,
350.00L
415.26,
349.51L
415.77,
360.45L
416.27,
353.34L
416.78,
353.09L
417.29,
349.66L
417.80,
352.21L
418.31,
347.06L
418.82,
342.20L
419.33,
332.19L
419.84,
331.11L
420.35,
340.19L
420.86,
342.54L
421.37,
347.45L
421.88,
351.03L
422.39,
362.80L
422.90,
357.65L
423.41,
355.94L
423.92,
351.37L
424.43,
354.56L
424.94,
353.68L
425.45,
351.72L
425.96,
363.10L
426.47,
372.22L
426.98,
378.41L
427.49,
373.01L
428.00,
354.41L
428.51,
352.94L
429.02,
353.19L
429.53,
366.19L
430.04,
349.66L
430.55,
350.00L
431.06,
348.77L
431.57,
359.32L
432.08,
353.63L
432.58,
359.22L
433.09,
367.07L
433.60,
374.92L
434.11,
373.55L
434.62,
373.99L
435.13,
368.30L
435.64,
353.83L
436.15,
349.31L
436.66,
351.37L
437.17,
354.76L
437.68,
356.57L
438.19,
352.21L
438.70,
362.95L
439.21,
367.02L
439.72,
374.48L
440.23,
370.85L
440.74,
365.36L
441.25,
366.97L
441.76,
372.47L
442.27,
378.99L
442.78,
375.95L
443.29,
373.70L
443.80,
369.82L
444.31,
363.64L
444.82,
358.19L
445.33,
363.64L
445.84,
370.02L
446.35,
371.00L
446.86,
365.70L
447.37,
366.78L
447.88,
366.83L
448.39,
366.14L
448.89,
363.10L
449.40,
365.31L
449.91,
365.50L
450.42,
361.09L
450.93,
352.84L
451.44,
336.51L
451.95,
333.61L
452.46,
335.72L
452.97,
353.43L
453.48,
359.32L
453.99,
361.14L
454.50,
362.07L
455.01,
365.60L
455.52,
372.13L
456.03,
372.17L
456.54,
367.76L
457.05,
364.72L
457.56,
355.49L
458.07,
354.17L
458.58,
344.01L
459.09,
342.05L
459.60,
333.02L
460.11,
333.61L
460.62,
335.67L
461.13,
334.89L
461.64,
332.44L
462.15,
341.07L
462.66,
348.72L
463.17,
343.23L
463.68,
339.89L
464.19,
342.64L
464.70,
354.46L
465.21,
356.87L
465.71,
365.06L
466.22,
341.51L
466.73,
317.37L
467.24,
285.93L
467.75,
289.41L
468.26,
294.81L
468.77,
309.57L
469.28,
313.50L
469.79,
307.37L
470.30,
307.17L
470.81,
321.99L
471.32,
333.91L
471.83,
332.58L
472.34,
327.04L
472.85,
323.26L
473.36,
328.17L
473.87,
344.01L
474.38,
352.26L
474.89,
359.86L
475.40,
358.63L
475.91,
363.59L
476.42,
359.32L
476.93,
352.89L
477.44,
346.76L
477.95,
339.60L
478.46,
341.12L
478.97,
346.66L
479.48,
354.46L
479.99,
358.54L
480.50,
367.46L
481.01,
376.79L
481.52,
382.92L
482.02,
381.99L
482.53,
376.44L
483.04,
376.10L
483.55,
372.52L
484.06,
375.76L
484.57,
373.25L
485.08,
377.77L
485.59,
374.87L
486.10,
376.15L
486.61,
367.61L
487.12,
366.93L
487.63,
362.46L
488.14,
369.87L
488.65,
366.39L
489.16,
363.59L
489.67,
359.42L
490.18,
364.52L
490.69,
367.61L
491.20,
372.42L
491.71,
372.08L
492.22,
378.65L
492.73,
379.58L
493.24,
381.01L
493.75,
380.02L
494.26,
374.09L
494.77,
372.13L
495.28,
370.06L
495.79,
374.77L
496.30,
374.33L
496.81,
373.70L
497.32,
369.77L
497.83,
373.40L
498.34,
368.00L
498.84,
359.96L
499.35,
347.55L
499.86,
333.91L
500.37,
343.72L
500.88,
350.69L
501.39,
365.60L
501.90,
369.08L
502.41,
367.66L
502.92,
367.07L
503.43,
360.40L
503.94,
355.30L
504.45,
333.42L
504.96,
333.02L
505.47,
343.67L
505.98,
358.34L
506.49,
361.09L
507.00,
364.42L
507.51,
372.37L
508.02,
373.40L
508.53,
370.75L
509.04,
368.25L
509.55,
360.65L
510.06,
350.69L
510.57,
340.09L
511.08,
349.70L
511.59,
360.20L
512.10,
375.02L
512.61,
373.74L
513.12,
376.54L
513.63,
382.13L
514.14,
382.08L
514.65,
382.77L
515.15,
379.44L
515.66,
381.35L
516.17,
379.78L
516.68,
381.69L
517.19,
386.26L
517.70,
384.54L
518.21,
380.32L
518.72,
374.48L
519.23,
375.22L
519.74,
371.00L
520.25,
368.40L
520.76,
364.28L
521.27,
363.49L
521.78,
372.47L
522.29,
378.41L
522.80,
384.88L
523.31,
382.87L
523.82,
382.08L
524.33,
384.73L
524.84,
385.81L
525.35,
386.06L
525.86,
377.72L
526.37,
372.76L
526.88,
376.30L
527.39,
389.69L
527.90,
394.01L
528.41,
387.83L
528.92,
382.87L
529.43,
374.87L
529.93,
377.18L
530.45,
370.70L
530.96,
362.80L
531.46,
353.92L
531.97,
345.14L
532.48,
350.15L
532.99,
355.54L
533.50,
369.77L
534.01,
376.98L
534.52,
375.85L
535.03,
377.03L
535.54,
379.39L
536.05,
377.28L
536.56,
372.47L
537.07,
365.01L
537.58,
371.34L
538.09,
371.29L
538.60,
381.20L
539.11,
382.38L
539.62,
382.62L
540.13,
379.39L
540.64,
377.23L
541.15,
380.96L
541.66,
376.69L
542.17,
373.74L
542.68,
371.14L
543.19,
376.74L
543.70,
378.16L
544.21,
378.55L
544.72,
375.12L
545.23,
375.41L
545.74,
373.94L
546.25,
375.27L
546.76,
374.33L
547.27,
370.95L
547.78,
363.29L
548.28,
367.81L
548.79,
375.56L
549.30,
381.79L
549.81,
381.35L
550.32,
381.05L
550.83,
384.39L
551.34,
387.53L
551.85,
387.83L
552.36,
390.82L
552.87,
392.44L
553.38,
395.53L
553.89,
391.11L
554.40,
388.86L
554.91,
390.23L
555.42,
389.25L
555.93,
377.77L
556.44,
372.57L
556.95,
367.81L
557.46,
378.31L
557.97,
380.42L
558.48,
388.90L
558.99,
385.57L
559.50,
384.98L
560.01,
386.84L
560.52,
389.44L
561.03,
387.29L
561.54,
383.31L
562.05,
381.64L
562.56,
377.91L
563.07,
371.83L
563.58,
372.32L
564.09,
373.20L
564.59,
380.27L
565.10,
373.94L
565.61,
377.47L
566.12,
380.17L
566.63,
388.07L
567.14,
388.12L
567.65,
384.73L
568.16,
381.30L
568.67,
374.63L
569.18,
377.96L
569.69,
374.97L
570.20,
381.79L
570.71,
378.60L
571.22,
384.69L
571.73,
386.89L
572.24,
389.15L
572.75,
387.78L
573.26,
387.38L
573.77,
379.83L
574.28,
376.49L
574.79,
361.53L
575.30,
358.39L
575.81,
356.23L
576.32,
363.83L
576.83,
368.59L
577.34,
370.90L
577.85,
367.71L
578.36,
360.01L
578.87,
360.69L
579.38,
361.82L
579.89,
370.70L
580.40,
374.53L
580.91,
380.17L
581.41,
382.53L
581.92,
379.83L
582.43,
385.76L
582.94,
380.56L
583.45,
381.59L
583.96,
378.26L
584.47,
382.62L
584.98,
379.88L
585.49,
381.79L
586.00,
382.18L
586.51,
385.22L
587.02,
384.10L
587.53,
379.98L
588.04,
378.41L
588.55,
370.60L
589.06,
373.50L
589.57,
372.47L
590.08,
376.05L
590.59,
373.45L
591.10,
370.31L
591.61,
368.59L
592.12,
370.90L
592.63,
378.36L
593.14,
380.32L
593.65,
379.73L
594.16,
376.05L
594.67,
376.25L
595.18,
372.76L
595.69,
362.22L
596.20,
349.02L
596.71,
344.90L
597.22,
355.30L
597.72,
370.02L
598.23,
380.02L
598.74,
380.27L
599.25,
377.57L
599.76,
377.38L
600.27,
380.12L
600.78,
375.56L
601.29,
368.20L
601.80,
367.22L
602.31,
371.59L
602.82,
376.05L
603.33,
373.25L
603.84,
375.66L
604.35,
371.73L
604.86,
364.08L
605.37,
363.79L
605.88,
367.42L
606.39,
377.72L
606.90,
379.58L
607.41,
382.67L
607.92,
387.04L
608.43,
379.98L
608.94,
381.40L
609.45,
373.25L
609.96,
375.07L
610.47,
369.87L
610.98,
363.93L
611.49,
362.41L
612.00,
363.34L
612.51,
369.67L
613.02,
367.32L
613.53,
369.23L
614.03,
370.46L
614.54,
372.62L
615.05,
371.68L
615.56,
369.33L
616.07,
368.84L
616.58,
370.95L
617.09,
374.14L
617.60,
376.59L
618.11,
375.07L
618.62,
365.80L
619.13,
370.70L
619.64,
363.39L
620.15,
367.27L
620.66,
368.05L
621.17,
376.93L
621.68,
380.17L
622.19,
366.68L
622.70,
353.19L
623.21,
350.54L
623.72,
354.22L
624.23,
364.03L
624.74,
363.88L
625.25,
361.18L
625.76,
356.77L
626.27,
356.97L
626.78,
364.47L
627.29,
371.44L
627.80,
373.65L
628.31,
376.88L
628.82,
373.94L
629.33,
374.77L
629.84,
372.96L
630.35,
375.36L
630.85,
374.53L
631.36,
369.62L
631.87,
366.29L
632.38,
369.97L
632.89,
379.83L
633.40,
383.51L
633.91,
382.38L
634.42,
381.25L
634.93,
384.98L
635.44,
387.87L
635.95,
386.16L
636.46,
386.70L
636.97,
386.40L
637.48,
387.19L
637.99,
383.02L
638.50,
381.40L
639.01,
377.96L
639.52,
380.86L
640.03,
378.11L
640.54,
384.39L
641.05,
376.49L
641.56,
381.20L
642.07,
376.25L
642.58,
386.40L
643.09,
387.29L
643.60,
383.21L
644.11,
379.34L
644.62,
375.22L
645.13,
386.89L
645.64,
388.61L
646.15,
386.84L
646.66,
384.29L
647.16,
384.24L
647.67,
393.47L
648.18,
393.47L
648.69,
397.34L
649.20,
392.98L
649.71,
395.48L
650.22,
387.48L
650.73,
382.82L
651.24,
376.69L
651.75,
384.10L
652.26,
389.10L
652.77,
394.79L
653.28,
395.09L
653.79,
399.50L
654.30,
395.18L
654.81,
391.50L
655.32,
385.42L
655.83,
391.70L
656.34,
392.63L
656.85,
395.04L
657.36,
388.95L
657.87,
392.49L
658.38,
393.71L
658.89,
399.01L
659.40,
392.98L
659.91,
388.95L
660.42,
386.79L
660.93,
390.08L
661.44,
393.37L
661.95,
395.53L
662.46,
397.34L
662.97,
400.63L
663.48,
402.79L
663.98,
402.45L
664.49,
398.23L
665.00,
398.91L
665.51,
399.45L
666.02,
404.16L
666.53,
402.59L
667.04,
404.16L
667.55,
404.16L
668.06,
405.09L
668.57,
405.54L
669.08,
406.12L
669.59,
405.19L
670.10,
401.41L
670.61,
400.29L
671.12,
400.04L
671.63,
404.90L
672.14,
402.98L
672.65,
402.59L
673.16,
398.67L
673.67,
400.19L
674.18,
395.92L
674.69,
397.24L
675.20,
397.49L
675.71,
402.30L
676.22,
401.27L
676.73,
399.70L
677.24,
401.46L
677.75,
404.41L
678.26,
406.66L
678.77,
405.98L
679.28,
404.26L
679.79,
401.81L
680.29,
400.09L
680.80,
399.84L
681.31,
398.91L
681.82,
396.21L
682.33,
395.14L
682.84,
396.17L
683.35,
398.08L
683.86,
400.78L
684.37,
400.48L
684.88,
398.96L
685.39,
397.34L
685.90,
394.15L
686.41,
393.42L
686.92,
392.09L
687.43,
393.17L
687.94,
397.00L
688.45,
398.86L
688.96,
403.03L
689.47,
400.53L
689.98,
394.30L
690.49,
394.40L
691.00,
392.29L
691.51,
395.43L
692.02,
394.50L
692.53,
399.01L
693.04,
402.79L
693.55,
402.35L
694.06,
401.32L
694.57,
397.49L
695.08,
395.87L
695.59,
393.61L
696.10,
394.30L
696.60,
397.83L
697.11,
397.93L
697.62,
399.60L
698.13,
398.77L
698.64,
404.55L
699.15,
405.09L
699.66,
404.70L
700.17,
401.46L
700.68,
399.60L
701.19,
400.63L
701.70,
400.58L
702.21,
403.33L
702.72,
403.08L
703.23,
404.65L
703.74,
404.21L
704.25,
404.31L
704.76,
402.10L
705.27,
402.00L
705.78,
400.97L
706.29,
398.23L
706.80,
396.02L
707.31,
395.92L
707.82,
398.77L
708.33,
397.24L
708.84,
394.79L
709.35,
396.26L
709.86,
397.98L
710.37,
398.13L
710.88,
396.75L
711.39,
398.27L
711.90,
399.16L
712.41,
396.02L
712.92,
397.39L
713.42,
400.53L
713.93,
403.97L
714.44,
398.42L
714.95,
396.71L
715.46,
393.03L
715.97,
395.18L
716.48,
395.09L
716.99,
393.03L
717.50,
391.70L
718.01,
392.24L
718.52,
395.48L
719.03,
399.80L
719.54,
398.08L
720.05,
403.82L
720.56,
402.49L
721.07,
404.80L
721.58,
403.57L
722.09,
403.33L
722.60,
402.35L
723.11,
398.81L
723.62,
397.24L
724.13,
391.46L
724.64,
393.32L
725.15,
394.30L
725.66,
401.46L
726.17,
400.09L
726.68,
399.94L
727.19,
394.30L
727.70,
397.20L
728.21,
398.13L
728.72,
399.65L
729.23,
396.36L
729.73,
397.74L
730.24,
398.23L
730.75,
399.26L
731.26,
400.48L
731.77,
402.69L
732.28,
403.08L
732.79,
398.52L
733.30,
397.78L
733.81,
398.13L
734.32,
400.92L
734.83,
398.57L
735.34,
394.74L
735.85,
393.12L
736.36,
396.56L
736.87,
396.61L
737.38,
397.20L
737.89,
396.71L
738.40,
402.15L
738.91,
402.79L
739.42,
403.77L
739.93,
399.50L
740.44,
399.06L
740.95,
399.60L
741.46,
404.11L
741.97,
402.54L
742.48,
403.33L
742.99,
400.68L
743.50,
401.95L
744.01,
400.19L
744.52,
403.38L
745.03,
406.66L
745.54,
408.04L
746.05,
408.04L
746.55,
406.71L
747.06,
404.80L
747.57,
404.31L
748.08,
404.36L
748.59,
405.98L
749.10,
406.08L
749.61,
404.75L
750.12,
400.34L
750.63,
400.73L
751.14,
399.65L
751.65,
398.18L
752.16,
388.36L
752.67,
383.90L
753.18,
389.00L
753.69,
397.24L
754.20,
402.25L
754.71,
402.05L
755.22,
402.54L
755.73,
402.45L
756.24,
399.75L
756.75,
395.48L
757.26,
395.72L
757.77,
398.96L
758.28,
404.85L
758.79,
405.39L
759.30,
400.97L
759.81,
398.67L
760.32,
399.06L
760.83,
402.35L
761.34,
402.25L
761.85,
399.50L
762.36,
398.91L
762.86,
394.89L
763.37,
399.55L
763.88,
402.69L
764.39,
407.65L
764.90,
405.49L
765.41,
405.73L
765.92,
400.78L
766.43,
401.02L
766.94,
396.12L
767.45,
396.90L
767.96,
399.06L
768.47,
403.87L
768.98,
409.22L
769.49,
408.38L
770.00,
407.351"/>
  </g>
</svg>
