<svg class="plot-d6a7b5" fill="currentColor" font-family="system-ui, sans-serif" font-size="10" text-anchor="middle" width="830" height="470" viewBox="0 0 830 470" xmlns="http://www.w3.org/2000/svg" xmlns:xlink="http://www.w3.org/1999/xlink" color="#1e90ff"><style>:where(.plot-d6a7b5){--plot-background: white;display:block;height:intrinsic;max-width:100%}:where(.plot-d6a7b5 text),:where(.plot-d6a7b5 tspan){white-space:pre}</style><g aria-label="y-grid" stroke="currentColor" stroke-opacity=".1"><line x1="60" x2="770" y1="410" y2="410"/><line x1="60" x2="770" y1="378.673" y2="378.673"/><line x1="60" x2="770" y1="347.346" y2="347.346"/><line x1="60" x2="770" y1="316.019" y2="316.019"/><line x1="60" x2="770" y1="284.692" y2="284.692"/><line x1="60" x2="770" y1="253.365" y2="253.365"/><line x1="60" x2="770" y1="222.038" y2="222.038"/><line x1="60" x2="770" y1="190.711" y2="190.711"/><line x1="60" x2="770" y1="159.384" y2="159.384"/><line x1="60" x2="770" y1="128.057" y2="128.057"/><line x1="60" x2="770" y1="96.73" y2="96.73"/><line x1="60" x2="770" y1="65.403" y2="65.403"/></g><g aria-label="y-axis tick" fill="none" stroke="currentColor"><path transform="translate(60,410)" d="M0,0L-6,0"/><path transform="translate(60,378.6730251475053)" d="M0,0L-6,0"/><path transform="translate(60,347.34605029501057)" d="M0,0L-6,0"/><path transform="translate(60,316.0190754425159)" d="M0,0L-6,0"/><path transform="translate(60,284.6921005900212)" d="M0,0L-6,0"/><path transform="translate(60,253.36512573752645)" d="M0,0L-6,0"/><path transform="translate(60,222.0381508850318)" d="M0,0L-6,0"/><path transform="translate(60,190.7111760325371)" d="M0,0L-6,0"/><path transform="translate(60,159.3842011800424)" d="M0,0L-6,0"/><path transform="translate(60,128.05722632754768)" d="M0,0L-6,0"/><path transform="translate(60,96.73025147505297)" d="M0,0L-6,0"/><path transform="translate(60,65.40327662255827)" d="M0,0L-6,0"/></g><g aria-label="y-axis tick label" text-anchor="end" font-variant="tabular-nums"><text y=".32em" transform="translate(-9,0) translate(60,410)">0</text><text y=".32em" transform="translate(-9,0) translate(60,378.6730251475053)">50,000</text><text y=".32em" transform="translate(-9,0) translate(60,347.34605029501057)">100,000</text><text y=".32em" transform="translate(-9,0) translate(60,316.0190754425159)">150,000</text><text y=".32em" transform="translate(-9,0) translate(60,284.6921005900212)">200,000</text><text y=".32em" transform="translate(-9,0) translate(60,253.36512573752645)">250,000</text><text y=".32em" transform="translate(-9,0) translate(60,222.0381508850318)">300,000</text><text y=".32em" transform="translate(-9,0) translate(60,190.7111760325371)">350,000</text><text y=".32em" transform="translate(-9,0) translate(60,159.3842011800424)">400,000</text><text y=".32em" transform="translate(-9,0) translate(60,128.05722632754768)">450,000</text><text y=".32em" transform="translate(-9,0) translate(60,96.73025147505297)">500,000</text><text y=".32em" transform="translate(-9,0) translate(60,65.40327662255827)">550,000</text></g><g aria-label="y-axis label" text-anchor="start"><text y=".71em" transform="translate(-57,-57) translate(60,60)">↑ Total Vestiges</text></g><g aria-label="x-axis tick" fill="none" stroke="currentColor"><path transform="translate(109.0650406504065,410)" d="M0,0L0,6"/><path transform="translate(240.38617886178864,410)" d="M0,0L0,6"/><path transform="translate(373.1504065040651,410)" d="M0,0L0,6"/><path transform="translate(505.9146341463415,410)" d="M0,0L0,6"/><path transform="translate(637.2357723577236,410)" d="M0,0L0,6"/><path transform="translate(768.5569105691056,410)" d="M0,0L0,6"/></g><g aria-label="x-axis tick label" font-variant="tabular-nums"><text transform="translate(0,9) translate(109.0650406504065,410)"><tspan x="0" y=".71em">Apr</tspan><tspan x="0" dy="1em">2023</tspan></text><text y=".71em" transform="translate(0,9) translate(240.38617886178864,410)">Jul</text><text y=".71em" transform="translate(0,9) translate(373.1504065040651,410)">Oct</text><text transform="translate(0,9) translate(505.9146341463415,410)"><tspan x="0" y=".71em">Jan</tspan><tspan x="0" dy="1em">2024</tspan></text><text y=".71em" transform="translate(0,9) translate(637.2357723577236,410)">Apr</text><text y=".71em" transform="translate(0,9) translate(768.5569105691056,410)">Jul</text></g><g aria-label="line" fill="none" stroke="currentColor" stroke-width="1.5" stroke-linejoin="round" stroke-linecap="round"><path d="M60,410L60.962,409.685L61.924,408.535L62.886,407.915L63.848,407.475L64.81,406.75L65.772,406.178L66.734,405.642L67.696,404.559L68.659,403.701L69.621,402.683L70.583,401.106L71.545,399.619L72.507,398.847L73.469,397.73L74.431,396.971L75.393,396.101L76.355,394.964L77.317,394.199L78.279,393.448L79.241,392.429L80.203,391.3L81.165,390.5L82.127,389.134L83.089,388.488L84.051,387.884L85.014,386.796L85.976,385.754L86.938,384.952L87.9,383.834L88.862,382.72L89.824,381.705L90.786,380.132L91.748,378.884L92.71,378.161L93.672,377.407L94.634,376.84L95.596,376.382L96.558,375.533L97.52,374.702L98.482,374.122L99.444,372.782L100.407,371.381L101.369,370.126L102.331,368.605L103.293,367.573L104.255,366.695L105.217,365.498L106.179,364.497L107.141,363.772L108.103,362.466L109.065,361.204L110.027,360.026L110.989,358.337L111.951,356.734L112.913,355.9L113.875,354.663L114.837,353.546L115.799,352.546L116.762,351.129L117.724,349.798L118.686,348.642L119.648,347.253L120.61,345.921L121.572,344.773L122.534,343.23L123.496,342.281L124.458,341.425L125.42,340.23L126.382,339.252L127.344,338.521L128.306,337.578L129.268,336.561L130.23,335.613L131.192,334.37L132.154,333.137L133.117,332.435L134.079,331.46L135.041,330.699L136.003,330.198L136.965,329.423L137.927,328.652L138.889,327.833L139.851,326.773L140.813,325.695L141.775,324.854L142.737,323.689L143.699,322.87L144.661,322.336L145.623,321.108L146.585,320.26L147.547,319.801L148.509,319.032L149.472,318.291L150.434,317.519L151.396,316.459L152.358,315.537L153.32,314.742L154.282,314.052L155.244,313.439L156.206,312.853L157.168,311.89L158.13,311.342L159.092,310.785L160.054,309.881L161.016,308.856L161.978,308.052L162.94,307.018L163.902,306.321L164.864,305.674L165.827,304.736L166.789,304.095L167.751,303.484L168.713,302.668L169.675,302.03L170.637,301.26L171.599,300.443L172.561,299.702L173.523,299.088L174.485,298.445L175.447,297.883L176.409,297.353L177.371,296.608L178.333,296.04L179.295,295.528L180.257,294.684L181.22,293.586L182.182,292.785L183.144,291.743L184.106,291.12L185.068,290.405L186.03,289.667L186.992,288.993L187.954,288.519L188.916,287.58L189.878,286.842L190.84,286.067L191.802,284.942L192.764,284.114L193.726,283.39L194.688,282.65L195.65,281.842L196.612,281.217L197.575,280.605L198.537,279.795L199.499,279.318L200.461,278.684L201.423,278.112L202.385,277.574L203.347,276.816L204.309,276.27L205.271,275.699L206.233,274.936L207.195,274.39L208.157,273.886L209.119,273.34L210.081,272.697L211.043,272.093L212.005,271.463L212.967,270.779L213.93,270.243L214.892,269.586L215.854,269.034L216.816,268.485L217.778,267.724L218.74,267.091L219.702,266.591L220.664,265.934L221.626,265.31L222.588,264.859L223.55,264.084L224.512,263.493L225.474,262.883L226.436,262.206L227.398,261.629L228.36,261.286L229.322,260.658L230.285,260.146L231.247,259.535L232.209,258.81L233.171,258.235L234.133,257.602L235.095,256.906L236.057,256.272L237.019,255.716L237.981,254.809L238.943,254.071L239.905,253.646L240.867,252.968L241.829,252.363L242.791,252L243.753,251.356L244.715,250.94L245.678,250.445L246.64,249.845L247.602,249.284L248.564,248.842L249.526,248.141L250.488,247.628L251.45,247.164L252.412,246.512L253.374,245.926L254.336,245.465L255.298,244.758L256.26,244.308L257.222,243.797L258.184,243.149L259.146,242.622L260.108,242.024L261.07,241.339L262.033,240.739L262.995,240.229L263.957,239.644L264.919,238.956L265.881,238.418L266.843,237.913L267.805,237.379L268.767,236.972L269.729,236.276L270.691,235.84L271.653,235.346L272.615,234.727L273.577,234.234L274.539,233.635L275.501,232.838L276.463,232.238L277.425,231.884L278.388,231.069L279.35,230.47L280.312,229.938L281.274,229.194L282.236,228.691L283.198,228.152L284.16,227.53L285.122,226.899L286.084,226.354L287.046,225.549L288.008,224.928L288.97,224.382L289.932,223.72L290.894,222.99L291.856,222.245L292.818,221.148L293.78,220.478L294.743,219.973L295.705,219.29L296.667,218.74L297.629,218.342L298.591,217.721L299.553,217.173L300.515,216.79L301.477,216.164L302.439,215.595L303.401,215.182L304.363,214.521L305.325,213.903L306.287,213.433L307.249,212.815L308.211,212.042L309.173,211.389L310.136,210.576L311.098,210L312.06,209.444L313.022,208.621L313.984,208.003L314.946,207.43L315.908,206.741L316.87,206.171L317.832,205.789L318.794,205.238L319.756,204.822L320.718,204.365L321.68,203.811L322.642,203.254L323.604,202.74L324.566,202.226L325.528,201.695L326.491,201.245L327.453,200.746L328.415,200.251L329.377,199.834L330.339,199.351L331.301,198.854L332.263,198.318L333.225,197.675L334.187,197.217L335.149,196.721L336.111,196.202L337.073,195.821L338.035,195.412L338.997,194.986L339.959,194.725L340.921,194.406L341.883,193.677L342.846,193.172L343.808,192.698L344.77,192.056L345.732,191.787L346.694,191.427L347.656,191.088L348.618,190.818L349.58,190.409L350.542,189.991L351.504,189.513L352.466,189.01L353.428,188.208L354.39,187.528L355.352,187.162L356.314,186.67L357.276,186.331L358.238,185.923L359.201,185.452L360.163,185.03L361.125,184.694L362.087,184.179L363.049,183.613L364.011,183.195L364.973,182.625L365.935,182.336L366.897,182.051L367.859,181.67L368.821,181.31L369.783,180.99L370.745,180.469L371.707,180.035L372.669,179.591L373.631,178.992L374.593,178.543L375.556,178.304L376.518,177.863L377.48,177.538L378.442,177.246L379.404,176.877L380.366,176.516L381.328,176.1L382.29,175.553L383.252,174.967L384.214,174.38L385.176,173.77L386.138,173.329L387.1,172.993L388.062,172.577L389.024,172.228L389.986,171.852L390.949,171.345L391.911,171.006L392.873,170.688L393.835,169.98L394.797,169.374L395.759,169.002L396.721,168.617L397.683,168.341L398.645,168.123L399.607,167.662L400.569,167.357L401.531,167.053L402.493,166.462L403.455,165.826L404.417,165.349L405.379,164.702L406.341,164.359L407.304,164.044L408.266,163.504L409.228,163.154L410.19,162.821L411.152,162.348L412.114,161.843L413.076,161.519L414.038,160.984L415,160.64L415.962,160.418L416.924,159.942L417.886,159.622L418.848,159.428L419.81,159.135L420.772,158.835L421.734,158.333L422.696,157.742L423.659,157.147L424.621,156.751L425.583,156.361L426.545,156.133L427.507,155.79L428.469,155.388L429.431,155.166L430.393,154.935L431.355,154.537L432.317,154.295L433.279,153.96L434.241,153.594L435.203,153.266L436.165,153.052L437.127,152.758L438.089,152.597L439.051,152.376L440.014,152.077L440.976,151.876L441.938,151.74L442.9,151.27L443.862,150.808L444.824,150.355L445.786,149.905L446.748,149.56L447.71,149.346L448.672,148.999L449.634,148.783L450.596,148.481L451.558,148.039L452.52,147.679L453.482,147.363L454.444,146.892L455.407,146.556L456.369,146.232L457.331,145.85L458.293,145.536L459.255,145.18L460.217,144.655L461.179,144.343L462.141,144.05L463.103,143.743L464.065,143.389L465.027,143.04L465.989,142.655L466.951,142.433L467.913,142.294L468.875,141.965L469.837,141.689L470.799,141.476L471.762,141.219L472.724,140.975L473.686,140.784L474.648,140.483L475.61,140.206L476.572,140.051L477.534,139.695L478.496,139.357L479.458,139.212L480.42,139L481.382,138.834L482.344,138.651L483.306,138.301L484.268,137.95L485.23,137.695L486.192,137.455L487.154,137.209L488.117,136.9L489.079,136.657L490.041,136.482L491.003,136.274L491.965,135.93L492.927,135.715L493.889,135.454L494.851,135.017L495.813,134.665L496.775,134.484L497.737,134.2L498.699,133.833L499.661,133.541L500.623,133.165L501.585,132.88L502.547,132.559L503.509,132.182L504.472,131.892L505.434,131.619L506.396,131.273L507.358,130.978L508.32,130.707L509.282,130.285L510.244,130.031L511.206,129.835L512.168,129.426L513.13,129.281L514.092,129.034L515.054,128.634L516.016,128.426L516.978,128.186L517.94,127.886L518.902,127.704L519.864,127.518L520.827,127.33L521.789,127.193L522.751,126.936L523.713,126.587L524.675,126.264L525.637,125.871L526.599,125.401L527.561,125.186L528.523,124.932L529.485,124.686L530.447,124.346L531.409,123.967L532.371,123.683L533.333,123.478L534.295,123.145L535.257,122.744L536.22,122.184L537.182,121.836L538.144,121.41L539.106,121.163L540.068,120.937L541.03,120.633L541.992,120.503L542.954,120.311L543.916,119.827L544.878,119.295L545.84,118.905L546.802,118.363L547.764,118.061L548.726,117.805L549.688,117.496L550.65,117.193L551.612,116.935L552.575,116.529L553.537,116.287L554.499,115.883L555.461,115.281L556.423,114.859L557.385,114.553L558.347,114.1L559.309,113.799L560.271,113.579L561.233,113.113L562.195,112.738L563.157,112.32L564.119,111.909L565.081,111.429L566.043,110.789L567.005,110.094L567.967,109.715L568.93,109.32L569.892,108.744L570.854,108.353L571.816,108.06L572.778,107.683L573.74,107.363L574.702,107.042L575.664,106.526L576.626,106.075L577.588,105.889L578.55,105.487L579.512,105.142L580.474,104.744L581.436,104.353L582.398,104.118L583.36,103.774L584.322,103.259L585.285,102.785L586.247,102.467L587.209,101.981L588.171,101.738L589.133,101.426L590.095,101.073L591.057,100.844L592.019,100.572L592.981,100.211L593.943,99.924L594.905,99.635L595.867,99.099L596.829,98.799L597.791,98.543L598.753,98.314L599.715,98.1L600.678,97.815L601.64,97.55L602.602,97.387L603.564,97.184L604.526,96.752L605.488,96.481L606.45,96.275L607.412,95.871L608.374,95.589L609.336,95.47L610.298,95.228L611.26,94.905L612.222,94.663L613.184,94.334L614.146,93.975L615.108,93.633L616.07,93.104L617.033,92.738L617.995,92.502L618.957,92.46L619.919,92.455L620.881,92.452L621.843,92.449L622.805,92.445L623.767,92.439L624.729,92.433L625.691,92.405L626.653,92.383L627.615,92.37L628.577,92.336L629.539,92.281L630.501,92.242L631.463,92.192L632.425,92.094L633.388,91.963L634.35,91.633L635.312,91.41L636.274,91.202L637.236,91.014L638.198,90.835L639.16,90.629L640.122,90.368L641.084,90.133L642.046,89.856L643.008,89.568L643.97,89.313L644.932,89.003L645.894,88.766L646.856,88.586L647.818,88.325L648.78,88.045L649.743,87.923L650.705,87.741L651.667,87.471L652.629,87.318L653.591,87.159L654.553,86.922L655.515,86.734L656.477,86.459L657.439,86.228L658.401,86.09L659.363,85.88L660.325,85.698L661.287,85.526L662.249,85.407L663.211,85.258L664.173,85.17L665.136,85.011L666.098,84.844L667.06,84.631L668.022,84.33L668.984,84.139L669.946,84.016L670.908,83.751L671.87,83.55L672.832,83.368L673.794,83.178L674.756,82.913L675.718,82.73L676.68,82.475L677.642,82.3L678.604,82.166L679.566,81.961L680.528,81.733L681.491,81.495L682.453,81.341L683.415,81.128L684.377,80.947L685.339,80.72L686.301,80.396L687.263,80.154L688.225,79.842L689.187,79.67L690.149,79.517L691.111,79.304L692.073,79.093L693.035,78.915L693.997,78.677L694.959,78.406L695.921,78.237L696.883,77.933L697.846,77.664L698.808,77.446L699.77,77.13L700.732,76.949L701.694,76.808L702.656,76.697L703.618,76.543L704.58,76.348L705.542,76.137L706.504,75.69L707.466,75.469L708.428,75.132L709.39,74.972L710.352,74.818L711.314,74.628L712.276,74.345L713.238,74.249L714.201,74.043L715.163,73.815L716.125,73.609L717.087,73.295L718.049,72.907L719.011,72.704L719.973,72.364L720.935,72.207L721.897,71.996L722.859,71.616L723.821,71.338L724.783,71.148L725.745,70.841L726.707,70.512L727.669,70.335L728.631,69.929L729.593,69.746L730.556,69.562L731.518,69.297L732.48,69.022L733.442,68.835L734.404,68.526L735.366,68.284L736.328,68.032L737.29,67.66L738.252,67.29L739.214,67.024L740.176,66.769L741.138,66.429L742.1,66.225L743.062,66.015L744.024,65.826L744.986,65.557L745.949,65.325L746.911,65.077L747.873,64.849L748.835,64.606L749.797,64.333L750.759,64.25L751.721,64.123L752.683,63.93L753.645,63.777L754.607,63.413L755.569,63.201L756.531,63.052L757.493,62.854L758.455,62.43L759.417,62.286L760.379,62.072L761.341,61.783L762.304,61.566L763.266,61.423L764.228,61.235L765.19,61.118L766.152,60.958L767.114,60.775L768.076,60.585L769.038,60.241L770,60"/></g></svg>