<svg class="plot-d6a7b5" fill="currentColor" font-family="system-ui, sans-serif" font-size="10" text-anchor="middle" width="830" height="470" viewBox="0 0 830 470" xmlns="http://www.w3.org/2000/svg" xmlns:xlink="http://www.w3.org/1999/xlink" color="#1e90ff"><style>:where(.plot-d6a7b5){--plot-background: white;display:block;height:intrinsic;max-width:100%}:where(.plot-d6a7b5 text),:where(.plot-d6a7b5 tspan){white-space:pre}</style><g aria-label="y-grid" stroke="currentColor" stroke-opacity=".1"><line x1="60" x2="770" y1="410" y2="410"/><line x1="60" x2="770" y1="378.557" y2="378.557"/><line x1="60" x2="770" y1="347.114" y2="347.114"/><line x1="60" x2="770" y1="315.671" y2="315.671"/><line x1="60" x2="770" y1="284.227" y2="284.227"/><line x1="60" x2="770" y1="252.784" y2="252.784"/><line x1="60" x2="770" y1="221.341" y2="221.341"/><line x1="60" x2="770" y1="189.898" y2="189.898"/><line x1="60" x2="770" y1="158.455" y2="158.455"/><line x1="60" x2="770" y1="127.012" y2="127.012"/><line x1="60" x2="770" y1="95.568" y2="95.568"/><line x1="60" x2="770" y1="64.125" y2="64.125"/></g><g aria-label="y-axis tick" fill="none" stroke="currentColor"><path transform="translate(60,410)" d="M0,0L-6,0"/><path transform="translate(60,378.55684921661634)" d="M0,0L-6,0"/><path transform="translate(60,347.11369843323274)" d="M0,0L-6,0"/><path transform="translate(60,315.6705476498491)" d="M0,0L-6,0"/><path transform="translate(60,284.2273968664655)" d="M0,0L-6,0"/><path transform="translate(60,252.7842460830818)" d="M0,0L-6,0"/><path transform="translate(60,221.34109529969817)" d="M0,0L-6,0"/><path transform="translate(60,189.8979445163145)" d="M0,0L-6,0"/><path transform="translate(60,158.45479373293085)" d="M0,0L-6,0"/><path transform="translate(60,127.01164294954722)" d="M0,0L-6,0"/><path transform="translate(60,95.56849216616357)" d="M0,0L-6,0"/><path transform="translate(60,64.12534138277994)" d="M0,0L-6,0"/></g><g aria-label="y-axis tick label" text-anchor="end" font-variant="tabular-nums"><text y=".32em" transform="translate(-9,0) translate(60,410)">0</text><text y=".32em" transform="translate(-9,0) translate(60,378.55684921661634)">5,000</text><text y=".32em" transform="translate(-9,0) translate(60,347.11369843323274)">10,000</text><text y=".32em" transform="translate(-9,0) translate(60,315.6705476498491)">15,000</text><text y=".32em" transform="translate(-9,0) translate(60,284.2273968664655)">20,000</text><text y=".32em" transform="translate(-9,0) translate(60,252.7842460830818)">25,000</text><text y=".32em" transform="translate(-9,0) translate(60,221.34109529969817)">30,000</text><text y=".32em" transform="translate(-9,0) translate(60,189.8979445163145)">35,000</text><text y=".32em" transform="translate(-9,0) translate(60,158.45479373293085)">40,000</text><text y=".32em" transform="translate(-9,0) translate(60,127.01164294954722)">45,000</text><text y=".32em" transform="translate(-9,0) translate(60,95.56849216616357)">50,000</text><text y=".32em" transform="translate(-9,0) translate(60,64.12534138277994)">55,000</text></g><g aria-label="y-axis label" text-anchor="start"><text y=".71em" transform="translate(-57,-57) translate(60,60)">↑ Visible Vestiges (30 days)</text></g><g aria-label="x-axis tick" fill="none" stroke="currentColor"><path transform="translate(95.67487684729065,410)" d="M0,0L0,6"/><path transform="translate(191.1576354679803,410)" d="M0,0L0,6"/><path transform="translate(287.6896551724138,410)" d="M0,0L0,6"/><path transform="translate(384.2216748768473,410)" d="M0,0L0,6"/><path transform="translate(479.70443349753697,410)" d="M0,0L0,6"/><path transform="translate(575.1871921182266,410)" d="M0,0L0,6"/><path transform="translate(671.7192118226601,410)" d="M0,0L0,6"/><path transform="translate(768.2512315270935,410)" d="M0,0L0,6"/></g><g aria-label="x-axis tick label" font-variant="tabular-nums"><text transform="translate(0,9) translate(95.67487684729065,410)"><tspan x="0" y=".71em">Apr</tspan><tspan x="0" dy="1em">2023</tspan></text><text y=".71em" transform="translate(0,9) translate(191.1576354679803,410)">Jul</text><text y=".71em" transform="translate(0,9) translate(287.6896551724138,410)">Oct</text><text transform="translate(0,9) translate(384.2216748768473,410)"><tspan x="0" y=".71em">Jan</tspan><tspan x="0" dy="1em">2024</tspan></text><text y=".71em" transform="translate(0,9) translate(479.70443349753697,410)">Apr</text><text y=".71em" transform="translate(0,9) translate(575.1871921182266,410)">Jul</text><text y=".71em" transform="translate(0,9) translate(671.7192118226601,410)">Oct</text><text transform="translate(0,9) translate(768.2512315270935,410)"><tspan x="0" y=".71em">Jan</tspan><tspan x="0" dy="1em">2025</tspan></text></g><g aria-label="line" fill="none" stroke="currentColor" stroke-width="1.5" stroke-linejoin="round" stroke-linecap="round"><path d="M60,410L60.7,406.843L61.399,395.297L62.099,389.071L62.798,384.657L63.498,377.375L64.197,371.639L64.897,366.263L65.596,355.383L66.296,346.774L66.995,336.555L67.695,320.727L68.394,305.804L69.094,298.056L69.793,286.843L70.493,279.228L71.192,270.499L71.892,259.085L72.591,251.401L73.291,243.867L73.99,233.642L74.69,222.303L75.389,214.273L76.089,200.57L76.788,194.08L77.488,188.024L78.187,177.101L78.887,166.643L79.586,158.593L80.286,147.374L80.985,139.344L81.685,140.702L82.384,131.137L83.084,123.025L83.783,123.05L84.483,121.226L85.182,120.912L85.882,127.194L86.581,127.276L87.281,129.156L87.98,139.168L88.68,140.639L89.379,134.325L90.079,132.936L90.778,125.282L91.478,123.66L92.177,126.257L92.877,121.93L93.576,119.415L94.276,122.364L94.975,120.597L95.675,115.956L96.374,117.837L97.074,107.379L97.773,97.342L98.473,99.895L99.172,97.933L99.872,94.776L100.571,95.952L101.271,92.921L101.97,89.752L102.67,93.94L103.369,92.519L104.069,86.406L104.768,82.45L105.468,72.653L106.167,67.722L106.867,67.653L107.567,64L108.266,60L108.966,66.113L109.665,70.716L110.365,73.112L111.064,78.866L111.764,76.734L112.463,73.181L113.163,78.143L113.862,78.407L114.562,78.042L115.261,86.123L115.961,91.016L116.66,95.097L117.36,103.825L118.059,109.278L118.759,106.831L119.458,110.806L120.158,110.315L120.857,112.145L121.557,121L122.256,122.037L122.956,125.125L123.655,134.464L124.355,140.117L125.054,144.192L125.754,151.933L126.453,150.82L127.153,150.16L127.852,154.179L128.552,157.065L129.251,158.254L129.951,161.825L130.65,162.373L131.35,166.385L132.049,173.277L132.749,176.572L133.448,173.334L134.148,175.05L134.847,172.315L135.547,170.347L136.246,171.629L136.946,169.957L137.645,171.736L138.345,176.245L139.044,178.874L139.744,180.918L140.443,184.88L141.143,184.898L141.842,182.823L142.542,188.98L143.241,191.036L143.941,190.005L144.64,192.407L145.34,192.363L146.039,194.413L146.739,199.916L147.438,200.696L148.138,197.652L148.837,196.545L149.537,192.237L150.236,191.866L150.936,194.35L151.635,192.445L152.335,191.269L153.034,195.589L153.734,196.451L154.433,197.117L155.133,199.714L155.833,195.413L156.532,193.596L157.232,195.74L157.931,194.753L158.631,192.778L159.33,194.69L160.03,194.948L160.729,194.558L161.429,197.96L162.128,199.035L162.828,199.457L163.527,200.519L164.227,198.557L164.926,198.381L165.626,200.142L166.325,198.174L167.025,197.834L167.724,201.249L168.424,206.789L169.123,208.374L169.823,212.77L170.522,212.701L171.222,213.015L171.921,215.04L172.621,215.216L173.32,214.43L174.02,218.348L174.719,218.109L175.419,219.53L176.118,225.806L176.818,227.529L177.517,228.535L178.217,231.434L178.916,231.761L179.616,232.101L180.315,232.126L181.015,233.453L181.714,232.459L182.414,235.384L183.113,234.818L183.813,235.069L184.512,236.547L185.212,234.755L185.911,234.711L186.611,236.025L187.31,234.516L188.01,233.214L188.709,233.107L189.409,230.453L190.108,229.114L190.808,231.177L191.507,231.227L192.207,230.541L192.906,233.484L193.606,232.56L194.305,233.893L195.005,236.572L195.704,236.899L196.404,236.295L197.103,238.44L197.803,237.673L198.502,237.05L199.202,240.169L199.901,239.566L200.601,239.805L201.3,241.974L202,240.666L202.7,239.591L203.399,240.767L204.099,239.402L204.798,240.238L205.498,241.515L206.197,240.408L206.897,240.742L207.596,242.609L208.296,243.1L208.995,241.779L209.695,245.483L210.394,247.816L211.094,246.722L211.793,249.451L212.493,248.527L213.192,247.797L213.892,249.313L214.591,247.275L215.291,247.288L215.99,247.307L216.69,244.93L217.389,243.345L218.089,246.823L218.788,243.798L219.488,242.446L220.187,243.641L220.887,242.056L221.586,241.641L222.286,243.32L222.985,241.59L223.685,240.389L224.384,241.433L225.084,238.635L225.783,238.415L226.483,239.805L227.182,239.176L227.882,236.975L228.581,235.365L229.281,231.258L229.98,229.938L230.68,229.938L231.379,228.435L232.079,227.001L232.778,229.994L233.478,228.139L234.177,227.592L234.877,229.957L235.576,228.63L236.276,228.925L236.975,232.78L237.675,232.176L238.374,229.529L239.074,232.988L239.773,232.793L240.473,230.378L241.172,231.296L241.872,228.177L242.571,227.812L243.271,228.472L243.97,226.542L244.67,225.806L245.369,228.139L246.069,227.454L246.768,227.215L247.468,230.032L248.167,231.818L248.867,235.126L249.567,241.546L250.266,242.71L250.966,242.194L251.665,243.892L252.365,244.244L253.064,242.917L253.764,244.634L254.463,245.118L255.163,244.005L255.862,246.087L256.562,246.961L257.261,246.118L257.961,247.37L258.66,247.118L259.36,247.231L260.059,248.464L260.759,251.011L261.458,253.734L262.158,257.796L262.857,259.299L263.557,262.268L264.256,267.324L264.956,266.204L265.655,266.89L266.355,269.047L267.054,268.323L267.754,269.455L268.453,271.38L269.153,272.153L269.852,274.027L270.552,275.48L271.251,276.876L271.951,277.234L272.65,277.354L273.35,274.631L274.049,272.317L274.749,273.662L275.448,273.681L276.148,274.474L276.847,275.216L277.547,275.48L278.246,276.624L278.946,279.706L279.645,279.14L280.345,278.436L281.044,279.448L281.744,277.555L282.443,278.75L283.143,280.165L283.842,278.958L284.542,278.555L285.241,282.662L285.941,282.504L286.64,282.9L287.34,284.894L288.039,281.574L288.739,280.674L289.438,281.687L290.138,279.97L290.837,280.813L291.537,282.07L292.236,283.177L292.936,284.592L293.635,288.466L294.335,289.805L295.034,287.598L295.734,286.649L296.433,283.919L297.133,283.599L297.833,284.951L298.532,285.007L299.232,284.881L299.931,286.271L300.631,286.869L301.33,287.661L302.03,290.183L302.729,285.982L303.429,282.768L304.128,282.85L304.828,282.599L305.527,283.039L306.227,286.076L306.926,285.812L307.626,287.202L308.325,290.17L309.025,288.749L309.724,284.756L310.424,284.397L311.123,281.165L311.823,280.655L312.522,281.196L313.222,279.398L313.921,280.064L314.621,282.215L315.32,283.334L316.02,284.158L316.719,287.045L317.419,286.089L318.118,286.007L318.818,287.963L319.517,286.68L320.217,287.252L320.916,290.384L321.616,290.849L322.315,291.038L323.015,293.107L323.714,293.245L324.414,291.019L325.113,290.906L325.813,289.755L326.512,289.661L327.212,290.843L327.911,289.868L328.611,290.692L329.31,294.295L330.01,296.691L330.709,299.05L331.409,302.188L332.108,301.955L332.808,301.817L333.507,305.099L334.207,305.653L334.906,307.376L335.606,309.916L336.305,311.985L337.005,313.205L337.704,317.224L338.404,315.954L339.103,313.539L339.803,313.778L340.502,312.463L341.202,310.954L341.901,311.753L342.601,311.269L343.3,314.142L344,317.041L344.7,318.576L345.399,318.941L346.099,319.695L346.798,317.243L347.498,317.318L348.197,318.098L348.897,316.488L349.596,315.664L350.296,316.079L350.995,313.243L351.695,313.47L352.394,314.199L353.094,314.413L353.793,313.004L354.493,312.457L355.192,310.212L355.892,310.193L356.591,311.803L357.291,310.52L357.99,309.112L358.69,311.696L359.389,313.759L360.089,315.853L360.788,318.456L361.488,318.89L362.187,318.261L362.887,320.192L363.586,318.777L364.286,318.431L364.985,321.399L365.685,322.89L366.384,324.393L367.084,327.286L367.783,327.141L368.483,326.877L369.182,328.147L369.882,328.896L370.581,329.996L371.281,332.159L371.98,332.857L372.68,334.04L373.379,335.04L374.079,335.14L374.778,336.486L375.478,337.725L376.177,335.574L376.877,333.423L377.576,334.914L378.276,334.838L378.975,333.285L379.675,332.939L380.374,331.612L381.074,330.663L381.773,330.468L382.473,329.462L383.172,328.103L383.872,328.946L384.571,328.858L385.271,327.355L385.97,326.764L386.67,324.185L387.369,323.487L388.069,325.028L388.768,324.443L389.468,325.556L390.167,325.475L390.867,323.928L391.567,324.953L392.266,324.971L392.966,323.72L393.665,323.978L394.365,325.563L395.064,325.833L395.764,327.078L396.463,328.889L397.163,328.921L397.862,327.499L398.562,326.393L399.261,325.374L399.961,326.141L400.66,327.361L401.36,327.757L402.059,327.562L402.759,327.537L403.458,327.606L404.158,328.286L404.857,328.411L405.557,327.361L406.256,324.449L406.956,325.204L407.655,323.462L408.355,322.959L409.054,324.795L409.754,323.198L410.453,324.374L411.153,326.468L411.852,323.689L412.552,320.764L413.251,319.865L413.951,316.243L414.65,315.086L415.35,314.4L416.049,312.677L416.749,312.206L417.448,313.124L418.148,312.287L418.847,313.809L419.547,314.463L420.246,310.577L420.946,308.891L421.645,308.3L422.345,307.168L423.044,307.948L423.744,308.583L424.443,305.967L425.143,305.552L425.842,305.376L426.542,306.866L427.241,305.54L427.941,303.401L428.64,298.892L429.34,297.358L430.039,296.446L430.739,291.975L431.438,289.969L432.138,291.893L432.837,293.447L433.537,294.151L434.236,296.371L434.936,294.22L435.635,292.264L436.335,293.497L437.034,292.503L437.734,291.635L438.433,291.717L439.133,290.214L439.833,291.918L440.532,294.503L441.232,293.579L441.931,291.874L442.631,293.239L443.33,291.384L444.03,291.151L444.729,292.692L445.429,292.918L446.128,294.811L446.828,296.214L447.527,297.408L448.227,300.949L448.926,305.024L449.626,303.445L450.325,304.401L451.025,307.615L451.724,309.244L452.424,310.03L453.123,310.96L453.823,311.501L454.522,313.092L455.222,316.237L455.921,316.425L456.621,315.57L457.32,317.538L458.02,316.947L458.719,318.111L459.419,320.846L460.118,320.771L460.818,320.984L461.517,323.72L462.217,325.179L462.916,324.764L463.616,326.21L464.315,323.349L465.015,322.802L465.714,323.965L466.414,325.846L467.113,328.525L467.813,332.122L468.512,334.97L469.212,337.832L469.911,343.158L470.611,346.101L471.31,348.384L472.01,350.472L472.709,352.49L473.409,355.006L474.108,357.113L474.808,358.358L475.507,359.886L476.207,363.244L476.906,364.653L477.606,363.414L478.305,365.225L479.005,365.961L479.704,365.269L480.404,365.898L481.103,367.08L481.803,366.885L482.502,367.841L483.202,368.652L483.901,369.193L484.601,371.941L485.3,372.507L486,372.507L486.7,371.117L487.399,368.545L488.099,365.759L488.798,364.571L489.498,362.785L490.197,360.131L490.897,358.666L491.596,357.352L492.296,355.188L492.995,353.427L493.695,351.006L494.394,349.246L495.094,348.252L495.793,346.655L496.493,345.806L497.192,345.391L497.892,347.504L498.591,348.252L499.291,349.459L499.99,349.755L500.69,349.868L501.389,349.793L502.089,349.396L502.788,349.837L503.488,351.384L504.187,351.623L504.887,352.163L505.586,353.446L506.286,353.905L506.985,353.056L507.685,353.843L508.384,354.094L509.084,353.566L509.783,354.05L510.483,354.698L511.182,353.937L511.882,353.151L512.581,353.975L513.281,353.736L513.98,354.679L514.68,354.717L515.379,352.855L516.079,352.522L516.778,351.22L517.478,351.22L518.177,350.881L518.877,350.239L519.576,349.007L520.276,348.812L520.975,348.101L521.675,347.522L522.374,348.843L523.074,347.705L523.773,346.246L524.473,346.711L525.172,345.56L525.872,345.567L526.571,346.07L527.271,347.617L527.97,347.906L528.67,348.51L529.369,348.132L530.069,345.001L530.768,344.844L531.468,343.743L532.167,344.529L532.867,344.535L533.567,344.755L534.266,343.737L534.966,345.057L535.665,346.227L536.365,346.372L537.064,347.441L537.764,346.019L538.463,343.655L539.163,343.756L539.862,342.46L540.562,342.668L541.261,342.951L541.961,341.85L542.66,340.756L543.36,341.9L544.059,341.517L544.759,340.404L545.458,341.794L546.158,339.548L546.857,339.115L547.557,338.385L548.256,337.266L548.956,336.467L549.655,336.719L550.355,338.09L551.054,337.882L551.754,338.737L552.453,336.605L553.153,334.442L553.852,333.681L554.552,333.952L555.251,331.505L555.951,331.537L556.65,331.719L557.35,331.883L558.049,332.329L558.749,333.901L559.448,333.449L560.148,334.568L560.847,333.706L561.547,333.084L562.246,336.065L562.946,337.586L563.645,337.549L564.345,339.102L565.044,338.75L565.744,338.398L566.443,340.97L567.143,340.825L567.842,338.417L568.542,339.63L569.241,340.24L569.941,339.215L570.64,340.14L571.34,341.139L572.039,341.781L572.739,344.334L573.438,346.441L574.138,347.277L574.837,347.938L575.537,347.887L576.236,347.516L576.936,347.982L577.635,346.856L578.335,347.378L579.034,347.504L579.734,348.34L580.433,348.975L581.133,350.17L581.833,350.793L582.532,349.264L583.232,349.497L583.931,350.032L584.631,350.032L585.33,352.258L586.03,352.692L586.729,352.163L587.429,351.931L588.128,353.786L588.828,353.912L589.527,354.654L590.227,355.283L590.926,355.459L591.626,355.622L592.325,355.251L593.025,354.333L593.724,354.283L594.424,354.138L595.123,353.975L595.823,355.213L596.522,354.591L597.222,352.069L597.921,352.503L598.621,351.918L599.32,352.226L600.02,352.038L600.719,351.164L601.419,350.635L602.118,351.365L602.818,352.031L603.517,351.302L604.217,350.761L604.916,350.201L605.616,348.68L606.315,348.258L607.015,346.894L607.714,345.913L608.414,345.032L609.113,343.045L609.813,341.511L610.512,340.404L611.212,338.781L611.911,338.215L612.611,338.083L613.31,335.844L614.01,335.241L614.709,335.178L615.409,334.43L616.108,334.7L616.808,336.744L617.507,335.071L618.207,332.618L618.906,330.361L619.606,326.864L620.305,324.349L621.005,323.751L621.704,320.639L622.404,316.884L623.103,315.425L623.803,314.205L624.502,312.545L625.202,311.306L625.901,310.558L626.601,308.583L627.3,309.275L628,310.809L628.7,311.048L629.399,312.639L630.099,313.753L630.798,314.727L631.498,316.086L632.197,315.268L632.897,314.476L633.596,315.62L634.296,315.425L634.995,314.991L635.695,315.62L636.394,315.639L637.094,315.3L637.793,320.142L638.493,324.041L639.192,327.613L639.892,331.298L640.591,334.461L641.291,335.681L641.99,339.278L642.69,342.907L643.389,344.73L644.089,346.057L644.788,348.321L645.488,349.22L646.187,351.17L646.887,353.346L647.586,354.566L648.286,354.037L648.985,354.798L649.685,354.509L650.384,354.792L651.084,355.314L651.783,356.188L652.483,357.251L653.182,359.402L653.882,361.313L654.581,362.364L655.281,363.678L655.98,363.829L656.68,364.106L657.379,364.011L658.079,363.571L658.778,363.005L659.478,362.948L660.177,362.716L660.877,362.659L661.576,362.37L662.276,360.691L662.975,359.364L663.675,356.748L664.374,356.698L665.074,356.1L665.773,356.49L666.473,356.974L667.172,356.767L667.872,356.132L668.571,356.207L669.271,355.704L669.97,352.799L670.67,352.17L671.369,352.635L672.069,350.994L672.768,350.761L673.468,350.811L674.167,350.069L674.867,349.786L675.567,349.623L676.266,349.321L676.966,348.315L677.665,347.139L678.365,344.875L679.064,345.158L679.764,345.409L680.463,345.548L681.163,345.202L681.862,346.504L682.562,348.39L683.261,349.629L683.961,352.767L684.66,352.968L685.36,353.56L686.059,354.585L686.759,354.585L687.458,355.943L688.158,356.823L688.857,357.138L689.557,358.402L690.256,362.181L690.956,362.005L691.655,361.571L692.355,362.942L693.054,362.313L693.754,362.603L694.453,363.716L695.153,363.785L695.852,364.156L696.552,365.489L697.251,366.873L697.951,368.659L698.65,371.382L699.35,370.463L700.049,370.268L700.749,371.545L701.448,372.507L702.148,372.507L702.847,372.275L703.547,372.608L704.246,371.495L704.946,371.985L705.645,371.243L706.345,369.319L707.044,368.426L707.744,365.973L708.443,364.911L709.143,365.25L709.842,365.37L710.542,365.137L711.241,365.873L711.941,366.476L712.64,367.074L713.34,367.64L714.039,366.476L714.739,365.357L715.438,365.904L716.138,364.992L716.837,365.244L717.537,365.602L718.236,364.584L718.936,364.389L719.635,365.539L720.335,365.634L721.034,364.439L721.734,363.496L722.433,362.703L723.133,363.018L723.833,362.892L724.532,363.175L725.232,362.754L725.931,363.496L726.631,364.602L727.33,365.489L728.03,367.237L728.729,367.269L729.429,366.483L730.128,366.986L730.828,367.086L731.527,367.244L732.227,367.539L732.926,367.3L733.626,368.155L734.325,369.47L735.025,370.224L735.724,370.652L736.424,372.18L737.123,372.061L737.823,371.771L738.522,372.979L739.222,373.45L739.921,373.312L740.621,372.57L741.32,372.922L742.02,372.551L742.719,373.488L743.419,373.394L744.118,373.928L744.818,374.387L745.517,374.658L746.217,375.394L746.916,376.375L747.616,376.199L748.315,376.544L749.015,377.746L749.714,378.073L750.414,377.06L751.113,377.331L751.813,376.972L752.512,376.922L753.212,376.419L753.911,376.085L754.611,375.979L755.31,376.45L756.01,375.74L756.709,374.991L757.409,374.626L758.108,373.627L758.808,373.595L759.507,372.671L760.207,372.671L760.906,373.702L761.606,374.224L762.305,375.117L763.005,375.092L763.704,375.167L764.404,374.922L765.103,374.356L765.803,374.079L766.502,371.677L767.202,370.375L767.901,370.099L768.601,369.181L769.3,368.703L770,369.199"/></g></svg>