<?xml version="1.0"?>
<svg xmlns="http://www.w3.org/2000/svg" xmlns:xlink="http://www.w3.org/1999/xlink" class="plot-d6a7b5" fill="currentColor" font-family="system-ui, sans-serif" font-size="10" text-anchor="middle" width="830" height="470" viewBox="0 0 830 470" color="#1e90ff">
  <style>:where(.plot-d6a7b5){--plot-background: white;display:block;height:intrinsic;max-width:100%}:where(.plot-d6a7b5 text),:where(.plot-d6a7b5 tspan){white-space:pre}</style>
  <g aria-label="y-grid" aria-hidden="true" stroke="currentColor" stroke-opacity=".1">
    <line x1="60" x2="770" y1="410" y2="410"/>
    <line x1="60" x2="770" y1="384.717" y2="384.717"/>
    <line x1="60" x2="770" y1="359.433" y2="359.433"/>
    <line x1="60" x2="770" y1="334.15" y2="334.15"/>
    <line x1="60" x2="770" y1="308.867" y2="308.867"/>
    <line x1="60" x2="770" y1="283.584" y2="283.584"/>
    <line x1="60" x2="770" y1="258.3" y2="258.3"/>
    <line x1="60" x2="770" y1="233.017" y2="233.017"/>
    <line x1="60" x2="770" y1="207.734" y2="207.734"/>
    <line x1="60" x2="770" y1="182.45" y2="182.45"/>
    <line x1="60" x2="770" y1="157.167" y2="157.167"/>
    <line x1="60" x2="770" y1="131.884" y2="131.884"/>
    <line x1="60" x2="770" y1="106.601" y2="106.601"/>
    <line x1="60" x2="770" y1="81.317" y2="81.317"/>
  </g>
  <g aria-label="y-axis tick" aria-hidden="true" fill="none" stroke="currentColor">
    <path transform="translate(60,410)" d="M0,0L-6,0"/>
    <path transform="translate(60,384.7167188947016)" d="M0,0L-6,0"/>
    <path transform="translate(60,359.4334377894033)" d="M0,0L-6,0"/>
    <path transform="translate(60,334.1501566841049)" d="M0,0L-6,0"/>
    <path transform="translate(60,308.86687557880657)" d="M0,0L-6,0"/>
    <path transform="translate(60,283.58359447350813)" d="M0,0L-6,0"/>
    <path transform="translate(60,258.3003133682098)" d="M0,0L-6,0"/>
    <path transform="translate(60,233.01703226291144)" d="M0,0L-6,0"/>
    <path transform="translate(60,207.7337511576131)" d="M0,0L-6,0"/>
    <path transform="translate(60,182.4504700523147)" d="M0,0L-6,0"/>
    <path transform="translate(60,157.16718894701634)" d="M0,0L-6,0"/>
    <path transform="translate(60,131.883907841718)" d="M0,0L-6,0"/>
    <path transform="translate(60,106.60062673641963)" d="M0,0L-6,0"/>
    <path transform="translate(60,81.31734563112124)" d="M0,0L-6,0"/>
  </g>
  <g aria-label="y-axis tick label" text-anchor="end" font-variant="tabular-nums">
    <text y=".32em" transform="translate(-9,0) translate(60,410)">0</text>
    <text y=".32em" transform="translate(-9,0) translate(60,384.7167188947016)">50,000</text>
    <text y=".32em" transform="translate(-9,0) translate(60,359.4334377894033)">100,000</text>
    <text y=".32em" transform="translate(-9,0) translate(60,334.1501566841049)">150,000</text>
    <text y=".32em" transform="translate(-9,0) translate(60,308.86687557880657)">200,000</text>
    <text y=".32em" transform="translate(-9,0) translate(60,283.58359447350813)">250,000</text>
    <text y=".32em" transform="translate(-9,0) translate(60,258.3003133682098)">300,000</text>
    <text y=".32em" transform="translate(-9,0) translate(60,233.01703226291144)">350,000</text>
    <text y=".32em" transform="translate(-9,0) translate(60,207.7337511576131)">400,000</text>
    <text y=".32em" transform="translate(-9,0) translate(60,182.4504700523147)">450,000</text>
    <text y=".32em" transform="translate(-9,0) translate(60,157.16718894701634)">500,000</text>
    <text y=".32em" transform="translate(-9,0) translate(60,131.883907841718)">550,000</text>
    <text y=".32em" transform="translate(-9,0) translate(60,106.60062673641963)">600,000</text>
    <text y=".32em" transform="translate(-9,0) translate(60,81.31734563112124)">650,000</text>
  </g>
  <g aria-label="y-axis label" text-anchor="start">
    <text y=".71em" transform="translate(-57,-57) translate(60,60)">&#x2191; Total Vestiges</text>
  </g>
  <g aria-label="x-axis tick" aria-hidden="true" fill="none" stroke="currentColor">
    <path transform="translate(85.99425699928213,410)" d="M0,0L0,6"/>
    <path transform="translate(155.56712132089018,410)" d="M0,0L0,6"/>
    <path transform="translate(225.90452261306532,410)" d="M0,0L0,6"/>
    <path transform="translate(296.24192390524047,410)" d="M0,0L0,6"/>
    <path transform="translate(365.8147882268486,410)" d="M0,0L0,6"/>
    <path transform="translate(435.3876525484565,410)" d="M0,0L0,6"/>
    <path transform="translate(505.7250538406317,410)" d="M0,0L0,6"/>
    <path transform="translate(576.0624551328069,410)" d="M0,0L0,6"/>
    <path transform="translate(644.8707824838478,410)" d="M0,0L0,6"/>
    <path transform="translate(714.4436468054558,410)" d="M0,0L0,6"/>
  </g>
  <g aria-label="x-axis tick label" font-variant="tabular-nums">
    <text transform="translate(0,9) translate(85.99425699928213,410)">
      <tspan x="0" y=".71em">Apr</tspan>
      <tspan x="0" dy="1em">2023</tspan>
    </text>
    <text y=".71em" transform="translate(0,9) translate(155.56712132089018,410)">Jul</text>
    <text y=".71em" transform="translate(0,9) translate(225.90452261306532,410)">Oct</text>
    <text transform="translate(0,9) translate(296.24192390524047,410)">
      <tspan x="0" y=".71em">Jan</tspan>
      <tspan x="0" dy="1em">2024</tspan>
    </text>
    <text y=".71em" transform="translate(0,9) translate(365.8147882268486,410)">Apr</text>
    <text y=".71em" transform="translate(0,9) translate(435.3876525484565,410)">Jul</text>
    <text y=".71em" transform="translate(0,9) translate(505.7250538406317,410)">Oct</text>
    <text transform="translate(0,9) translate(576.0624551328069,410)">
      <tspan x="0" y=".71em">Jan</tspan>
      <tspan x="0" dy="1em">2025</tspan>
    </text>
    <text y=".71em" transform="translate(0,9) translate(644.8707824838478,410)">Apr</text>
    <text y=".71em" transform="translate(0,9) translate(714.4436468054558,410)">Jul</text>
  </g>
  <g aria-label="line" fill="none" stroke="currentColor" stroke-width="1.5" stroke-linejoin="round" stroke-linecap="round">
    <path d="M60,
410.00L
60.51,
409.75L
61.02,
408.82L
61.53,
408.32L
62.04,
407.96L
62.55,
407.38L
63.06,
406.92L
63.57,
406.48L
64.08,
405.61L
64.59,
404.92L
65.10,
404.09L
65.61,
402.82L
66.12,
401.62L
66.63,
401.00L
67.14,
400.10L
67.65,
399.49L
68.16,
398.78L
68.67,
397.87L
69.17,
397.25L
69.68,
396.64L
70.19,
395.82L
70.70,
394.91L
71.21,
394.26L
71.72,
393.16L
72.23,
392.64L
72.74,
392.15L
73.25,
391.27L
73.76,
390.43L
74.27,
389.78L
74.78,
388.88L
75.29,
387.98L
75.80,
387.16L
76.31,
385.89L
76.82,
384.89L
77.33,
384.30L
77.84,
383.70L
78.35,
383.24L
78.86,
382.87L
79.37,
382.18L
79.88,
381.51L
80.39,
381.04L
80.90,
379.96L
81.41,
378.83L
81.92,
377.82L
82.43,
376.59L
82.94,
375.76L
83.45,
375.05L
83.96,
374.08L
84.47,
373.28L
84.98,
372.69L
85.49,
371.64L
85.99,
370.62L
86.50,
369.67L
87.01,
368.30L
87.52,
367.01L
88.03,
366.34L
88.54,
365.34L
89.05,
364.44L
89.56,
363.63L
90.07,
362.49L
90.58,
361.41L
91.09,
360.48L
91.60,
359.36L
92.11,
358.28L
92.62,
357.36L
93.13,
356.11L
93.64,
355.35L
94.15,
354.65L
94.66,
353.69L
95.17,
352.90L
95.68,
352.31L
96.19,
351.55L
96.70,
350.73L
97.21,
349.96L
97.72,
348.96L
98.23,
347.97L
98.74,
347.40L
99.25,
346.61L
99.76,
346.00L
100.27,
345.59L
100.78,
344.97L
101.29,
344.35L
101.80,
343.69L
102.30,
342.83L
102.81,
341.96L
103.32,
341.28L
103.83,
340.34L
104.34,
339.68L
104.85,
339.25L
105.36,
338.26L
105.87,
337.57L
106.38,
337.20L
106.89,
336.58L
107.40,
335.98L
107.91,
335.36L
108.42,
334.51L
108.93,
333.76L
109.44,
333.12L
109.95,
332.56L
110.46,
332.07L
110.97,
331.60L
111.48,
330.82L
111.99,
330.38L
112.50,
329.93L
113.01,
329.20L
113.52,
328.37L
114.03,
327.72L
114.54,
326.89L
115.05,
326.32L
115.56,
325.80L
116.07,
325.04L
116.58,
324.53L
117.09,
324.03L
117.60,
323.38L
118.11,
322.86L
118.62,
322.24L
119.12,
321.58L
119.63,
320.98L
120.14,
320.49L
120.65,
319.97L
121.16,
319.51L
121.67,
319.08L
122.18,
318.48L
122.69,
318.02L
123.20,
317.61L
123.71,
316.93L
124.22,
316.05L
124.73,
315.40L
125.24,
314.56L
125.75,
314.05L
126.26,
313.48L
126.77,
312.88L
127.28,
312.34L
127.79,
311.96L
128.30,
311.20L
128.81,
310.60L
129.32,
309.98L
129.83,
309.07L
130.34,
308.40L
130.85,
307.82L
131.36,
307.22L
131.87,
306.57L
132.38,
306.06L
132.89,
305.57L
133.40,
304.92L
133.91,
304.53L
134.42,
304.02L
134.93,
303.56L
135.43,
303.12L
135.94,
302.51L
136.45,
302.07L
136.96,
301.61L
137.47,
300.99L
137.98,
300.55L
138.49,
300.15L
139.00,
299.71L
139.51,
299.19L
140.02,
298.70L
140.53,
298.19L
141.04,
297.64L
141.55,
297.21L
142.06,
296.68L
142.57,
296.23L
143.08,
295.79L
143.59,
295.17L
144.10,
294.66L
144.61,
294.26L
145.12,
293.73L
145.63,
293.22L
146.14,
292.86L
146.65,
292.24L
147.16,
291.76L
147.67,
291.27L
148.18,
290.72L
148.69,
290.25L
149.20,
289.98L
149.71,
289.47L
150.22,
289.06L
150.73,
288.56L
151.24,
287.98L
151.74,
287.51L
152.25,
287.00L
152.76,
286.44L
153.27,
285.93L
153.78,
285.48L
154.29,
284.75L
154.80,
284.15L
155.31,
283.81L
155.82,
283.26L
156.33,
282.77L
156.84,
282.48L
157.35,
281.96L
157.86,
281.63L
158.37,
281.23L
158.88,
280.74L
159.39,
280.29L
159.90,
279.93L
160.41,
279.37L
160.92,
278.95L
161.43,
278.58L
161.94,
278.05L
162.45,
277.58L
162.96,
277.21L
163.47,
276.64L
163.98,
276.27L
164.49,
275.86L
165.00,
275.34L
165.51,
274.91L
166.02,
274.43L
166.53,
273.88L
167.04,
273.39L
167.55,
272.98L
168.06,
272.51L
168.56,
271.95L
169.07,
271.52L
169.58,
271.11L
170.09,
270.68L
170.60,
270.35L
171.11,
269.79L
171.62,
269.44L
172.13,
269.04L
172.64,
268.54L
173.15,
268.14L
173.66,
267.66L
174.17,
267.02L
174.68,
266.53L
175.19,
266.25L
175.70,
265.59L
176.21,
265.11L
176.72,
264.68L
177.23,
264.08L
177.74,
263.67L
178.25,
263.24L
178.76,
262.73L
179.27,
262.22L
179.78,
261.78L
180.29,
261.13L
180.80,
260.63L
181.31,
260.19L
181.82,
259.66L
182.33,
259.07L
182.84,
258.47L
183.35,
257.58L
183.86,
257.04L
184.37,
256.63L
184.87,
256.08L
185.38,
255.64L
185.89,
255.32L
186.40,
254.82L
186.91,
254.37L
187.42,
254.06L
187.93,
253.56L
188.44,
253.10L
188.95,
252.77L
189.46,
252.23L
189.97,
251.74L
190.48,
251.36L
190.99,
250.86L
191.50,
250.23L
192.01,
249.71L
192.52,
249.05L
193.03,
248.59L
193.54,
248.14L
194.05,
247.47L
194.56,
246.97L
195.07,
246.51L
195.58,
245.95L
196.09,
245.49L
196.60,
245.19L
197.11,
244.74L
197.62,
244.41L
198.13,
244.04L
198.64,
243.59L
199.15,
243.14L
199.66,
242.73L
200.17,
242.31L
200.68,
241.88L
201.18,
241.52L
201.69,
241.12L
202.20,
240.72L
202.71,
240.38L
203.22,
239.99L
203.73,
239.59L
204.24,
239.16L
204.75,
238.64L
205.26,
238.27L
205.77,
237.87L
206.28,
237.45L
206.79,
237.14L
207.30,
236.81L
207.81,
236.47L
208.32,
236.26L
208.83,
236.00L
209.34,
235.41L
209.85,
235.00L
210.36,
234.62L
210.87,
234.10L
211.38,
233.89L
211.89,
233.60L
212.40,
233.32L
212.91,
233.10L
213.42,
232.77L
213.93,
232.44L
214.44,
232.05L
214.95,
231.64L
215.46,
231.00L
215.97,
230.45L
216.48,
230.15L
216.99,
229.76L
217.50,
229.48L
218.00,
229.15L
218.51,
228.77L
219.02,
228.43L
219.53,
228.16L
220.04,
227.75L
220.55,
227.29L
221.06,
226.95L
221.57,
226.49L
222.08,
226.26L
222.59,
226.03L
223.10,
225.72L
223.61,
225.43L
224.12,
225.17L
224.63,
224.75L
225.14,
224.40L
225.65,
224.04L
226.16,
223.56L
226.67,
223.20L
227.18,
223.00L
227.69,
222.65L
228.20,
222.39L
228.71,
222.15L
229.22,
221.85L
229.73,
221.56L
230.24,
221.22L
230.75,
220.78L
231.26,
220.31L
231.77,
219.84L
232.28,
219.34L
232.79,
218.99L
233.30,
218.72L
233.81,
218.38L
234.31,
218.10L
234.82,
217.80L
235.33,
217.39L
235.84,
217.11L
236.35,
216.86L
236.86,
216.29L
237.37,
215.80L
237.88,
215.50L
238.39,
215.19L
238.90,
214.96L
239.41,
214.79L
239.92,
214.42L
240.43,
214.17L
240.94,
213.92L
241.45,
213.45L
241.96,
212.93L
242.47,
212.55L
242.98,
212.03L
243.49,
211.75L
244.00,
211.50L
244.51,
211.06L
245.02,
210.78L
245.53,
210.51L
246.04,
210.13L
246.55,
209.72L
247.06,
209.46L
247.57,
209.03L
248.08,
208.75L
248.59,
208.57L
249.10,
208.18L
249.61,
207.93L
250.12,
207.77L
250.63,
207.53L
251.13,
207.29L
251.64,
206.89L
252.15,
206.41L
252.66,
205.93L
253.17,
205.61L
253.68,
205.29L
254.19,
205.11L
254.70,
204.83L
255.21,
204.51L
255.72,
204.33L
256.23,
204.14L
256.74,
203.82L
257.25,
203.63L
257.76,
203.36L
258.27,
203.06L
258.78,
202.80L
259.29,
202.62L
259.80,
202.39L
260.31,
202.26L
260.82,
202.08L
261.33,
201.84L
261.84,
201.67L
262.35,
201.57L
262.86,
201.19L
263.37,
200.81L
263.88,
200.45L
264.39,
200.08L
264.90,
199.81L
265.41,
199.63L
265.92,
199.35L
266.43,
199.18L
266.94,
198.93L
267.44,
198.58L
267.95,
198.29L
268.46,
198.03L
268.97,
197.65L
269.48,
197.38L
269.99,
197.12L
270.50,
196.81L
271.01,
196.56L
271.52,
196.27L
272.03,
195.85L
272.54,
195.59L
273.05,
195.36L
273.56,
195.11L
274.07,
194.82L
274.58,
194.54L
275.09,
194.23L
275.60,
194.05L
276.11,
193.94L
276.62,
193.68L
277.13,
193.45L
277.64,
193.28L
278.15,
193.07L
278.66,
192.88L
279.17,
192.72L
279.68,
192.48L
280.19,
192.26L
280.70,
192.13L
281.21,
191.84L
281.72,
191.57L
282.23,
191.45L
282.74,
191.28L
283.25,
191.15L
283.75,
191.00L
284.26,
190.72L
284.77,
190.44L
285.28,
190.23L
285.79,
190.04L
286.30,
189.84L
286.81,
189.59L
287.32,
189.39L
287.83,
189.25L
288.34,
189.08L
288.85,
188.81L
289.36,
188.63L
289.87,
188.42L
290.38,
188.07L
290.89,
187.78L
291.40,
187.64L
291.91,
187.41L
292.42,
187.11L
292.93,
186.88L
293.44,
186.57L
293.95,
186.34L
294.46,
186.08L
294.97,
185.78L
295.48,
185.55L
295.99,
185.33L
296.50,
185.05L
297.01,
184.81L
297.52,
184.59L
298.03,
184.25L
298.54,
184.04L
299.05,
183.89L
299.56,
183.56L
300.07,
183.44L
300.57,
183.24L
301.08,
182.92L
301.59,
182.75L
302.10,
182.55L
302.61,
182.31L
303.12,
182.17L
303.63,
182.02L
304.14,
181.86L
304.65,
181.75L
305.16,
181.55L
305.67,
181.26L
306.18,
181.00L
306.69,
180.69L
307.20,
180.31L
307.71,
180.13L
308.22,
179.93L
308.73,
179.73L
309.24,
179.46L
309.75,
179.15L
310.26,
178.92L
310.77,
178.76L
311.28,
178.49L
311.79,
178.16L
312.30,
177.71L
312.81,
177.43L
313.32,
177.09L
313.83,
176.89L
314.34,
176.70L
314.85,
176.46L
315.36,
176.35L
315.87,
176.20L
316.38,
175.81L
316.88,
175.38L
317.39,
175.06L
317.90,
174.63L
318.41,
174.38L
318.92,
174.18L
319.43,
173.93L
319.94,
173.68L
320.45,
173.47L
320.96,
173.15L
321.47,
172.95L
321.98,
172.63L
322.49,
172.14L
323.00,
171.80L
323.51,
171.55L
324.02,
171.19L
324.53,
170.94L
325.04,
170.77L
325.55,
170.39L
326.06,
170.09L
326.57,
169.75L
327.08,
169.42L
327.59,
169.03L
328.10,
168.51L
328.61,
167.95L
329.12,
167.65L
329.63,
167.33L
330.14,
166.86L
330.65,
166.55L
331.16,
166.31L
331.67,
166.01L
332.18,
165.75L
332.69,
165.49L
333.20,
165.07L
333.70,
164.71L
334.21,
164.56L
334.72,
164.23L
335.23,
163.96L
335.74,
163.64L
336.25,
163.32L
336.76,
163.13L
337.27,
162.85L
337.78,
162.44L
338.29,
162.05L
338.80,
161.80L
339.31,
161.41L
339.82,
161.21L
340.33,
160.96L
340.84,
160.67L
341.35,
160.49L
341.86,
160.27L
342.37,
159.98L
342.88,
159.75L
343.39,
159.51L
343.90,
159.08L
344.41,
158.84L
344.92,
158.63L
345.43,
158.45L
345.94,
158.27L
346.45,
158.04L
346.96,
157.83L
347.47,
157.70L
347.98,
157.53L
348.49,
157.19L
349.00,
156.97L
349.51,
156.80L
350.01,
156.47L
350.52,
156.25L
351.03,
156.15L
351.54,
155.96L
352.05,
155.69L
352.56,
155.50L
353.07,
155.23L
353.58,
154.94L
354.09,
154.67L
354.60,
154.24L
355.11,
153.95L
355.62,
153.75L
356.13,
153.72L
356.64,
153.72L
357.15,
153.72L
357.66,
153.71L
358.17,
153.71L
358.68,
153.70L
359.19,
153.70L
359.70,
153.68L
360.21,
153.66L
360.72,
153.65L
361.23,
153.62L
361.74,
153.58L
362.25,
153.54L
362.76,
153.50L
363.27,
153.43L
363.78,
153.32L
364.29,
153.05L
364.80,
152.87L
365.31,
152.71L
365.82,
152.55L
366.32,
152.41L
366.83,
152.24L
367.34,
152.03L
367.85,
151.84L
368.36,
151.62L
368.87,
151.39L
369.38,
151.18L
369.89,
150.93L
370.40,
150.74L
370.91,
150.59L
371.42,
150.38L
371.93,
150.16L
372.44,
150.06L
372.95,
149.91L
373.46,
149.69L
373.97,
149.57L
374.48,
149.44L
374.99,
149.25L
375.50,
149.10L
376.01,
148.88L
376.52,
148.69L
377.03,
148.58L
377.54,
148.41L
378.05,
148.26L
378.56,
148.12L
379.07,
148.03L
379.58,
147.91L
380.09,
147.84L
380.60,
147.71L
381.11,
147.57L
381.62,
147.40L
382.13,
147.16L
382.64,
147.01L
383.14,
146.91L
383.65,
146.69L
384.16,
146.53L
384.67,
146.38L
385.18,
146.23L
385.69,
146.01L
386.20,
145.87L
386.71,
145.66L
387.22,
145.52L
387.73,
145.41L
388.24,
145.25L
388.75,
145.06L
389.26,
144.87L
389.77,
144.75L
390.28,
144.57L
390.79,
144.43L
391.30,
144.25L
391.81,
143.98L
392.32,
143.79L
392.83,
143.54L
393.34,
143.40L
393.85,
143.28L
394.36,
143.10L
394.87,
142.93L
395.38,
142.79L
395.89,
142.60L
396.40,
142.38L
396.91,
142.24L
397.42,
142.00L
397.93,
141.78L
398.44,
141.60L
398.95,
141.35L
399.45,
141.20L
399.96,
141.09L
400.47,
141.00L
400.98,
140.88L
401.49,
140.72L
402.00,
140.55L
402.51,
140.19L
403.02,
140.01L
403.53,
139.74L
404.04,
139.61L
404.55,
139.48L
405.06,
139.33L
405.57,
139.10L
406.08,
139.02L
406.59,
138.86L
407.10,
138.67L
407.61,
138.51L
408.12,
138.25L
408.63,
137.94L
409.14,
137.78L
409.65,
137.50L
410.16,
137.38L
410.67,
137.21L
411.18,
136.90L
411.69,
136.67L
412.20,
136.52L
412.71,
136.27L
413.22,
136.01L
413.73,
135.86L
414.24,
135.54L
414.75,
135.39L
415.26,
135.24L
415.77,
135.03L
416.27,
134.81L
416.78,
134.65L
417.29,
134.40L
417.80,
134.21L
418.31,
134.01L
418.82,
133.71L
419.33,
133.41L
419.84,
133.19L
420.35,
132.99L
420.86,
132.71L
421.37,
132.55L
421.88,
132.38L
422.39,
132.23L
422.90,
132.01L
423.41,
131.82L
423.92,
131.62L
424.43,
131.44L
424.94,
131.24L
425.45,
131.02L
425.96,
130.95L
426.47,
130.85L
426.98,
130.70L
427.49,
130.57L
428.00,
130.28L
428.51,
130.11L
429.02,
129.99L
429.53,
129.83L
430.04,
129.49L
430.55,
129.37L
431.06,
129.20L
431.57,
128.96L
432.08,
128.79L
432.58,
128.67L
433.09,
128.52L
433.60,
128.43L
434.11,
128.30L
434.62,
128.15L
435.13,
128.00L
435.64,
127.72L
436.15,
127.52L
436.66,
127.39L
437.17,
127.15L
437.68,
126.97L
438.19,
126.80L
438.70,
126.66L
439.21,
126.53L
439.72,
126.43L
440.23,
126.26L
440.74,
126.07L
441.25,
125.99L
441.76,
125.87L
442.27,
125.75L
442.78,
125.64L
443.29,
125.50L
443.80,
125.34L
444.31,
125.16L
444.82,
124.96L
445.33,
124.86L
445.84,
124.75L
446.35,
124.56L
446.86,
124.40L
447.37,
124.30L
447.88,
124.12L
448.39,
123.95L
448.89,
123.82L
449.40,
123.66L
449.91,
123.49L
450.42,
123.31L
450.93,
123.07L
451.44,
122.73L
451.95,
122.53L
452.46,
122.30L
452.97,
122.15L
453.48,
122.00L
453.99,
121.80L
454.50,
121.66L
455.01,
121.55L
455.52,
121.41L
456.03,
121.27L
456.54,
121.11L
457.05,
120.94L
457.56,
120.70L
458.07,
120.53L
458.58,
120.26L
459.09,
120.00L
459.60,
119.74L
460.11,
119.47L
460.62,
119.24L
461.13,
118.97L
461.64,
118.67L
462.15,
118.53L
462.66,
118.34L
463.17,
117.99L
463.68,
117.81L
464.19,
117.64L
464.70,
117.41L
465.21,
117.26L
465.71,
117.18L
466.22,
116.71L
466.73,
116.30L
467.24,
115.90L
467.75,
115.47L
468.26,
115.12L
468.77,
114.86L
469.28,
114.47L
469.79,
114.06L
470.30,
113.80L
470.81,
113.56L
471.32,
113.27L
471.83,
113.01L
472.34,
112.71L
472.85,
112.38L
473.36,
112.16L
473.87,
112.03L
474.38,
111.78L
474.89,
111.65L
475.40,
111.50L
475.91,
111.31L
476.42,
111.12L
476.93,
110.91L
477.44,
110.65L
477.95,
110.40L
478.46,
110.20L
478.97,
110.00L
479.48,
109.83L
479.99,
109.67L
480.50,
109.56L
481.01,
109.48L
481.52,
109.39L
482.02,
109.27L
482.53,
109.14L
483.04,
109.04L
483.55,
108.89L
484.06,
108.78L
484.57,
108.66L
485.08,
108.56L
485.59,
108.42L
486.10,
108.31L
486.61,
108.12L
487.12,
107.98L
487.63,
107.82L
488.14,
107.70L
488.65,
107.53L
489.16,
107.35L
489.67,
107.18L
490.18,
107.06L
490.69,
106.91L
491.20,
106.80L
491.71,
106.67L
492.22,
106.59L
492.73,
106.48L
493.24,
106.37L
493.75,
106.28L
494.26,
106.11L
494.77,
105.98L
495.28,
105.86L
495.79,
105.75L
496.30,
105.61L
496.81,
105.49L
497.32,
105.33L
497.83,
105.23L
498.34,
105.06L
498.84,
104.82L
499.35,
104.59L
499.86,
104.27L
500.37,
104.14L
500.88,
103.98L
501.39,
103.82L
501.90,
103.71L
502.41,
103.54L
502.92,
103.37L
503.43,
103.20L
503.94,
102.98L
504.45,
102.58L
504.96,
102.41L
505.47,
102.30L
505.98,
102.05L
506.49,
101.91L
507.00,
101.83L
507.51,
101.66L
508.02,
101.53L
508.53,
101.42L
509.04,
101.23L
509.55,
101.02L
510.06,
100.81L
510.57,
100.51L
511.08,
100.40L
511.59,
100.30L
512.10,
100.15L
512.61,
100.02L
513.12,
99.95L
513.63,
99.87L
514.14,
99.74L
514.65,
99.67L
515.15,
99.55L
515.66,
99.44L
516.17,
99.36L
516.68,
99.26L
517.19,
99.20L
517.70,
99.10L
518.21,
98.95L
518.72,
98.83L
519.23,
98.74L
519.74,
98.55L
520.25,
98.40L
520.76,
98.27L
521.27,
98.07L
521.78,
98.01L
522.29,
97.94L
522.80,
97.81L
523.31,
97.74L
523.82,
97.65L
524.33,
97.55L
524.84,
97.49L
525.35,
97.41L
525.86,
97.22L
526.37,
97.10L
526.88,
97.06L
527.39,
97.01L
527.90,
96.94L
528.41,
96.83L
528.92,
96.73L
529.43,
96.58L
529.93,
96.49L
530.45,
96.32L
530.96,
96.09L
531.46,
95.92L
531.97,
95.66L
532.48,
95.47L
532.99,
95.35L
533.50,
95.24L
534.01,
95.13L
534.52,
95.00L
535.03,
94.90L
535.54,
94.82L
536.05,
94.66L
536.56,
94.52L
537.07,
94.35L
537.58,
94.27L
538.09,
94.12L
538.60,
94.06L
539.11,
93.98L
539.62,
93.83L
540.13,
93.74L
540.64,
93.64L
541.15,
93.53L
541.66,
93.40L
542.17,
93.27L
542.68,
93.13L
543.19,
93.05L
543.70,
92.94L
544.21,
92.81L
544.72,
92.69L
545.23,
92.59L
545.74,
92.44L
546.25,
92.34L
546.76,
92.22L
547.27,
92.04L
547.78,
91.85L
548.28,
91.78L
548.79,
91.68L
549.30,
91.56L
549.81,
91.49L
550.32,
91.38L
550.83,
91.30L
551.34,
91.26L
551.85,
91.15L
552.36,
91.10L
552.87,
91.08L
553.38,
91.00L
553.89,
90.91L
554.40,
90.86L
554.91,
90.80L
555.42,
90.69L
555.93,
90.53L
556.44,
90.42L
556.95,
90.26L
557.46,
90.20L
557.97,
90.11L
558.48,
90.04L
558.99,
89.95L
559.50,
89.85L
560.01,
89.80L
560.52,
89.73L
561.03,
89.62L
561.54,
89.53L
562.05,
89.44L
562.56,
89.29L
563.07,
89.13L
563.58,
89.05L
564.09,
88.91L
564.59,
88.83L
565.10,
88.68L
565.61,
88.57L
566.12,
88.52L
566.63,
88.46L
567.14,
88.35L
567.65,
88.26L
568.16,
88.16L
568.67,
87.98L
569.18,
87.93L
569.69,
87.80L
570.20,
87.69L
570.71,
87.61L
571.22,
87.54L
571.73,
87.45L
572.24,
87.39L
572.75,
87.31L
573.26,
87.22L
573.77,
87.08L
574.28,
86.96L
574.79,
86.72L
575.30,
86.55L
575.81,
86.41L
576.32,
86.25L
576.83,
86.12L
577.34,
86.01L
577.85,
85.81L
578.36,
85.61L
578.87,
85.50L
579.38,
85.31L
579.89,
85.20L
580.40,
85.13L
580.91,
85.01L
581.41,
84.92L
581.92,
84.82L
582.43,
84.76L
582.94,
84.61L
583.45,
84.53L
583.96,
84.43L
584.47,
84.33L
584.98,
84.22L
585.49,
84.14L
586.00,
84.05L
586.51,
83.96L
587.02,
83.87L
587.53,
83.74L
588.04,
83.64L
588.55,
83.46L
589.06,
83.36L
589.57,
83.25L
590.08,
83.11L
590.59,
82.98L
591.10,
82.84L
591.61,
82.69L
592.12,
82.58L
592.63,
82.52L
593.14,
82.38L
593.65,
82.27L
594.16,
82.17L
594.67,
82.03L
595.18,
81.88L
595.69,
81.67L
596.20,
81.41L
596.71,
81.21L
597.22,
81.11L
597.72,
80.99L
598.23,
80.90L
598.74,
80.80L
599.25,
80.66L
599.76,
80.57L
600.27,
80.50L
600.78,
80.30L
601.29,
80.14L
601.80,
80.05L
602.31,
79.91L
602.82,
79.79L
603.33,
79.68L
603.84,
79.55L
604.35,
79.39L
604.86,
79.20L
605.37,
79.08L
605.88,
78.95L
606.39,
78.87L
606.90,
78.76L
607.41,
78.67L
607.92,
78.63L
608.43,
78.46L
608.94,
78.38L
609.45,
78.25L
609.96,
78.10L
610.47,
77.96L
610.98,
77.78L
611.49,
77.60L
612.00,
77.48L
612.51,
77.36L
613.02,
77.16L
613.53,
77.06L
614.03,
76.96L
614.54,
76.78L
615.05,
76.67L
615.56,
76.54L
616.07,
76.36L
616.58,
76.27L
617.09,
76.17L
617.60,
76.01L
618.11,
75.91L
618.62,
75.71L
619.13,
75.61L
619.64,
75.43L
620.15,
75.27L
620.66,
75.17L
621.17,
75.08L
621.68,
74.96L
622.19,
74.73L
622.70,
74.50L
623.21,
74.35L
623.72,
74.15L
624.23,
74.03L
624.74,
73.88L
625.25,
73.65L
625.76,
73.48L
626.27,
73.33L
626.78,
73.18L
627.29,
73.08L
627.80,
72.95L
628.31,
72.84L
628.82,
72.71L
629.33,
72.59L
629.84,
72.46L
630.35,
72.35L
630.85,
72.22L
631.36,
72.04L
631.87,
71.90L
632.38,
71.81L
632.89,
71.73L
633.40,
71.63L
633.91,
71.53L
634.42,
71.43L
634.93,
71.37L
635.44,
71.30L
635.95,
71.19L
636.46,
71.13L
636.97,
71.06L
637.48,
70.95L
637.99,
70.85L
638.50,
70.76L
639.01,
70.62L
639.52,
70.55L
640.03,
70.43L
640.54,
70.36L
641.05,
70.20L
641.56,
70.14L
642.07,
70.01L
642.58,
69.96L
643.09,
69.90L
643.60,
69.73L
644.11,
69.65L
644.62,
69.54L
645.13,
69.50L
645.64,
69.43L
646.15,
69.31L
646.66,
69.23L
647.16,
69.16L
647.67,
69.13L
648.18,
69.06L
648.69,
69.03L
649.20,
68.96L
649.71,
68.91L
650.22,
68.80L
650.73,
68.68L
651.24,
68.57L
651.75,
68.53L
652.26,
68.46L
652.77,
68.41L
653.28,
68.38L
653.79,
68.36L
654.30,
68.26L
654.81,
68.19L
655.32,
68.10L
655.83,
68.07L
656.34,
68.01L
656.85,
67.95L
657.36,
67.85L
657.87,
67.83L
658.38,
67.78L
658.89,
67.74L
659.40,
67.65L
659.91,
67.56L
660.42,
67.50L
660.93,
67.44L
661.44,
67.39L
661.95,
67.35L
662.46,
67.31L
662.97,
67.30L
663.48,
67.28L
663.98,
67.24L
664.49,
67.17L
665.00,
67.16L
665.51,
67.13L
666.02,
67.11L
666.53,
67.08L
667.04,
67.07L
667.55,
67.05L
668.06,
67.04L
668.57,
67.02L
669.08,
67.01L
669.59,
66.99L
670.10,
66.93L
670.61,
66.91L
671.12,
66.88L
671.63,
66.88L
672.14,
66.84L
672.65,
66.81L
673.16,
66.76L
673.67,
66.74L
674.18,
66.66L
674.69,
66.63L
675.20,
66.61L
675.71,
66.58L
676.22,
66.54L
676.73,
66.50L
677.24,
66.49L
677.75,
66.49L
678.26,
66.47L
678.77,
66.45L
679.28,
66.43L
679.79,
66.39L
680.29,
66.35L
680.80,
66.32L
681.31,
66.27L
681.82,
66.21L
682.33,
66.17L
682.84,
66.13L
683.35,
66.08L
683.86,
66.07L
684.37,
66.03L
684.88,
65.97L
685.39,
65.94L
685.90,
65.87L
686.41,
65.80L
686.92,
65.76L
687.43,
65.69L
687.94,
65.67L
688.45,
65.64L
688.96,
65.62L
689.47,
65.57L
689.98,
65.48L
690.49,
65.46L
691.00,
65.39L
691.51,
65.33L
692.02,
65.30L
692.53,
65.27L
693.04,
65.26L
693.55,
65.22L
694.06,
65.18L
694.57,
65.13L
695.08,
65.08L
695.59,
65.02L
696.10,
64.97L
696.60,
64.95L
697.11,
64.89L
697.62,
64.86L
698.13,
64.84L
698.64,
64.83L
699.15,
64.81L
699.66,
64.78L
700.17,
64.75L
700.68,
64.70L
701.19,
64.68L
701.70,
64.65L
702.21,
64.63L
702.72,
64.61L
703.23,
64.59L
703.74,
64.57L
704.25,
64.56L
704.76,
64.51L
705.27,
64.49L
705.78,
64.46L
706.29,
64.39L
706.80,
64.35L
707.31,
64.32L
707.82,
64.28L
708.33,
64.21L
708.84,
64.16L
709.35,
64.13L
709.86,
64.09L
710.37,
64.04L
710.88,
64.00L
711.39,
63.97L
711.90,
63.93L
712.41,
63.85L
712.92,
63.84L
713.42,
63.83L
713.93,
63.79L
714.44,
63.72L
714.95,
63.69L
715.46,
63.62L
715.97,
63.57L
716.48,
63.54L
716.99,
63.44L
717.50,
63.38L
718.01,
63.35L
718.52,
63.29L
719.03,
63.27L
719.54,
63.23L
720.05,
63.23L
720.56,
63.20L
721.07,
63.18L
721.58,
63.16L
722.09,
63.13L
722.60,
63.10L
723.11,
63.05L
723.62,
63.00L
724.13,
62.91L
724.64,
62.87L
725.15,
62.83L
725.66,
62.82L
726.17,
62.77L
726.68,
62.73L
727.19,
62.66L
727.70,
62.64L
728.21,
62.61L
728.72,
62.55L
729.23,
62.50L
729.73,
62.48L
730.24,
62.43L
730.75,
62.39L
731.26,
62.38L
731.77,
62.35L
732.28,
62.32L
732.79,
62.27L
733.30,
62.23L
733.81,
62.20L
734.32,
62.17L
734.83,
62.11L
735.34,
62.04L
735.85,
62.00L
736.36,
61.97L
736.87,
61.90L
737.38,
61.87L
737.89,
61.84L
738.40,
61.82L
738.91,
61.79L
739.42,
61.77L
739.93,
61.71L
740.44,
61.68L
740.95,
61.66L
741.46,
61.65L
741.97,
61.60L
742.48,
61.60L
742.99,
61.55L
743.50,
61.52L
744.01,
61.49L
744.52,
61.49L
745.03,
61.49L
745.54,
61.47L
746.05,
61.47L
746.55,
61.45L
747.06,
61.42L
747.57,
61.41L
748.08,
61.39L
748.59,
61.38L
749.10,
61.37L
749.61,
61.34L
750.12,
61.28L
750.63,
61.27L
751.14,
61.23L
751.65,
61.16L
752.16,
61.05L
752.67,
60.96L
753.18,
60.94L
753.69,
60.92L
754.20,
60.88L
754.71,
60.86L
755.22,
60.84L
755.73,
60.81L
756.24,
60.75L
756.75,
60.69L
757.26,
60.66L
757.77,
60.64L
758.28,
60.64L
758.79,
60.61L
759.30,
60.55L
759.81,
60.52L
760.32,
60.50L
760.83,
60.47L
761.34,
60.44L
761.85,
60.39L
762.36,
60.35L
762.86,
60.28L
763.37,
60.28L
763.88,
60.28L
764.39,
60.26L
764.90,
60.24L
765.41,
60.23L
765.92,
60.17L
766.43,
60.14L
766.94,
60.09L
767.45,
60.03L
767.96,
60.03L
768.47,
60.03L
768.98,
60.02L
769.49,
60.01L
770.00,
60"/>
  </g>
</svg>
