<svg xmlns="http://www.w3.org/2000/svg" width="830" height="470" fill="currentColor" class="plot-d6a7b5" font-family="system-ui, sans-serif" font-size="10" style="--plot-background:white;display:block;height:intrinsic;max-width:100%;color:#1e90ff" text-anchor="middle" viewBox="0 0 830 470">
    <style>
        :where(.plot-d6a7b5 text),:where(.plot-d6a7b5 tspan){white-space:pre}
    </style>
    <path stroke="currentColor" stroke-opacity=".1" d="
M60
410
h710
M60
362.919
h710
M60
315.838
h710
M60
268.757
h710
M60
221.676
h710
M60
174.595
h710
M60
127.514
h710
M60
80.433
h710" aria-hidden="true" aria-label="y-grid"/>
    <path fill="none" stroke="currentColor" d="
M60
410
h-6
m6
-47.081
h-6
m6
-47.081
h-6
m6
-47.081
h-6
m6
-47.081
h-6
m6
-47.081
h-6
m6
-47.081
h-6
m6
-47.081
h-6" aria-hidden="true" aria-label="y-axis tick"/>
    <g aria-label="y-axis tick label" font-variant="tabular-nums" text-anchor="end">
        <text y=".32em" transform="translate(51 410)">0</text>
        <text y=".32em" transform="translate(51 362.919)">2,000</text>
        <text y=".32em" transform="translate(51 315.838)">4,000</text>
        <text y=".32em" transform="translate(51 268.757)">6,000</text>
        <text y=".32em" transform="translate(51 221.676)">8,000</text>
        <text y=".32em" transform="translate(51 174.595)">10,000</text>
        <text y=".32em" transform="translate(51 127.514)">12,000</text>
        <text y=".32em" transform="translate(51 80.433)">14,000</text>
    </g>
    <text y=".71em" aria-label="y-axis label" text-anchor="start" transform="translate(3 3)">↑ Visible vestiges (8 days)</text>
    <path fill="none" stroke="currentColor" d="
M82.16
410
v6
m59.312
-6
v6
m59.963
-6
v6
m59.963
-6
v6
m59.312
-6
v6
m59.311
-6
v6
m59.964
-6
v6
m59.963
-6
v6
m58.66
-6
v6
m59.312
-6
v6
m59.962
-6
v6
m59.964
-6
v6" aria-hidden="true" aria-label="x-axis tick"/>
    <g aria-label="x-axis tick label" font-variant="tabular-nums">
        <text transform="translate(82.16 419)"><tspan x="0" y=".71em">Apr</tspan><tspan x="0" dy="1em">2023</tspan></text>
        <text y=".71em" transform="translate(141.472 419)">Jul</text>
        <text y=".71em" transform="translate(201.435 419)">Oct</text>
        <text transform="translate(261.398 419)"><tspan x="0" y=".71em">Jan</tspan><tspan x="0" dy="1em">2024</tspan></text>
        <text y=".71em" transform="translate(320.71 419)">Apr</text>
        <text y=".71em" transform="translate(380.021 419)">Jul</text>
        <text y=".71em" transform="translate(439.985 419)">Oct</text>
        <text transform="translate(499.948 419)"><tspan x="0" y=".71em">Jan</tspan><tspan x="0" dy="1em">2025</tspan></text>
        <text y=".71em" transform="translate(558.608 419)">Apr</text>
        <text y=".71em" transform="translate(617.92 419)">Jul</text>
        <text y=".71em" transform="translate(677.882 419)">Oct</text>
        <text transform="translate(737.846 419)"><tspan x="0" y=".71em">Jan</tspan><tspan x="0" dy="1em">2026</tspan></text>
    </g>
    <path fill="none" stroke="currentColor" stroke-linecap="round" stroke-linejoin="round" stroke-width="1.5" d="
m60
410
.435
-11.817
.434
-43.221
.435
-23.305
.434
-16.525
.435
-27.26
.434
-21.469
.435
-20.127
.434
-28.908
.435
10.994
.434
-14.949
.435
-42.726
.434
-28.601
.435
-7.533
.434
-21.846
.435
12.218
.434
-.448
.435
-4.472
.434
30.485
.435
27.66
.434
-9.275
.435
-.471
.434
-1.554
.435
-18.62
.434
18.432
.435
6.097
.434
-12.688
.435
-.871
.434
12.311
.435
-11.935
.434
9.416
.435
-13.841
.435
-36.441
.434
-6.003
.435
11.982
.434
1.836
.435
20.693
.434
24.67
.435
6.215
.434
27.895
.435
25.118
.434
-23.188
.435
-24.34
.434
-25.871
.435
-39.949
.434
-6.826
.435
-1.789
.434
-23.188
.435
12.736
.434
25.4
.435
-1.883
.434
9.722
.435
-5.509
.434
-30.438
.435
-15.277
.434
6.285
.435
-19.256
.434
7.109
.435
9.84
.434
-8.969
.435
13.442
.435
16.808
.434
-20.881
.435
-3.554
.434
-1.154
L88.244
60
l.434
17.561
.435
17.82
.434
-1.459
.435
15.466
.434
22.575
.435
7.698
.434
19.774
.435
.047
.434
-14.548
.435
-1.412
.434
10.357
.435
-9.157
.434
6.803
.435
19.398
.434
6.497
.435
17.749
.434
15.537
.435
-13.441
.434
-3.861
.435
-3.013
.434
-24.977
.435
-1.624
.434
8.898
.435
-15.348
.434
7.957
.435
23.234
.435
2.731
.434
15.937
.435
1.742
.434
-19.751
.435
11.464
.434
2.025
.435
-8.687
.434
5.862
.435
5.815
.434
-7.157
.435
19.233
.434
13.724
.435
-4.12
.434
-12.57
.435
-7.18
.434
-16.808
.435
9.981
.434
-3.719
.435
-14.313
.434
9.864
.435
15.56
.434
-.447
.435
14.877
.434
-2.778
.435
-6.356
.434
7.392
.435
1.036
.434
-1.224
.435
9.534
.434
4.072
.435
.942
.435
9.345
.434
8.616
.435
-8.663
.434
-17.066
.435
-8.969
.434
-19.257
.435
4.591
.434
-5.532
.435
-8.498
.434
6.403
.435
23.446
.434
-5.202
.435
11.44
.434
-5.697
.435
-15.419
.434
-3.389
.435
-1.884
.434
-10.004
.435
4.943
.434
4.214
.435
6.12
.434
11.865
.435
13.183
.434
3.389
.435
6.309
.434
10.146
.435
-4.967
.434
2.448
.435
8.993
.435
-10.758
.434
3.319
.435
2.542
.434
-.306
.435
4.308
.434
-2.142
.435
-2.26
.434
3.013
.435
.353
.434
-5.72
.435
-.235
.434
3.531
.435
-5.909
.434
-.118
.435
6.898
.434
-4.52
.435
1.224
.434
3.79
.435
-8.498
.434
6.38
.435
.894
.434
-6.662
.435
3.013
.434
10.57
.435
-6.662
.434
9.863
.435
-.706
.434
-4.355
.435
3.861
.434
-2.119
.435
-13.277
.435
-.211
.434
-1.648
.435
-11.158
.434
-.448
.435
5.626
.434
-1.718
.435
3.437
.434
10.169
.435
-3.295
.434
18.455
.435
9.134
.434
-6.615
.435
4.449
.434
6.074
.435
-12.665
.434
4.92
.435
-1.813
.434
-5.908
.435
.565
.434
3.719
.435
-9.91
.434
9.416
.435
.07
.434
-6.92
.435
4.684
.434
-.471
.435
-8.404
.434
4.026
.435
-2.26
.435
-2.778
.434
-1.483
.435
-.424
.434
3.508
.435
5.673
.434
7.251
.435
-7.015
.434
5.602
.435
7.321
.434
-3.036
.435
.447
.434
-2.448
.435
-14.666
.434
3.602
.435
3.083
.434
-12.076
.435
.753
.434
-1.483
.435
-5.438
.434
11.064
.435
2.307
.434
-10.075
.435
6.898
.434
2.048
.435
-10.264
.434
4.637
.435
-1.647
.434
-4.614
.435
-4.026
.434
-4.308
.435
-20.762
.435
5.108
.434
4.331
.435
-5.155
.434
4.237
.435
12.43
.434
4.684
.435
20.645
.434
10.758
.435
-4.52
.434
4.285
.435
5.132
.434
-9.864
.435
.118
.434
2.919
.435
-8.828
.434
-5.555
.435
-3.108
.434
-15.042
.435
3.201
.434
2.307
.435
-13.277
.434
.024
.435
7.509
.434
-1.365
.435
9.134
.434
7.297
.435
.189
.434
15.301
.435
6.026
.434
.73
.435
4.967
.435
2.095
.434
-4.99
.435
.777
.434
-1.272
.435
-1.577
.434
2.236
.435
5.203
.434
1.2
.435
.66
.434
-.212
.435
-7.251
.434
1.53
.435
-.047
.434
-3.813
.435
3.813
.434
3.32
.435
4.143
.434
14.359
.435
5.226
.434
-8.78
.435
.541
.434
-3.484
.435
-8.78
.434
5.908
.435
-3.719
.434
-.73
.435
17.232
.434
3.601
.435
2.119
.435
6.144
.434
-8.78
.435
-16.62
.434
-12.83
.435
-3.554
.434
-3.131
.435
2.942
.434
2.637
.435
1.201
.434
14.265
.435
12.947
.434
-5.626
.435
-2.754
.434
-2.99
.435
-6.05
.434
6.804
.435
5.155
.434
-1.695
.435
5.838
.434
9.228
.435
-3.837
.434
5.085
.435
-5.791
.434
-11.818
.435
-2.566
.434
4.567
.435
-4.567
.434
7.345
.435
5.344
.434
2.825
.435
8.945
.435
1.248
.434
-11.606
.435
-5.391
.434
-9.84
.435
-11.982
.434
-2.707
.435
.965
.434
-.023
.435
7.462
.434
7.839
.435
3.037
.434
10.193
.435
4.59
.434
-13.983
.435
-7.085
.434
-.919
.435
-.306
.434
8.64
.435
4.567
.434
-5.344
.435
15.137
.434
11.322
.435
-8.192
.434
-9.439
.435
-7.557
.434
-16.125
.435
4.426
.434
-.354
.435
-8.898
.434
9.063
.435
11.394
.435
.141
.434
5.344
.435
.73
.434
-8.31
.435
7.391
.434
4.803
.435
-5.391
.434
5.791
.435
11.676
.434
1.13
.435
8.875
.434
-5.933
.435
-13.888
.434
-4.45
.435
-2.872
.434
-7.391
.435
2.472
.434
-1.625
.435
3.743
.434
13.889
.435
13.63
.434
-.047
.435
5.579
.434
-4.025
.435
-.871
.434
2.777
.435
.306
.434
-2.354
.435
8.875
.435
.824
.434
1.342
.435
6.167
.434
7.251
.435
-9.652
.434
-6.309
.435
-10.946
.434
-8.639
.435
-1.719
.434
-.447
.435
-7.98
.434
9.581
.435
6.003
.434
.4
.435
3.413
.434
1.083
.435
-9.699
.434
.471
.435
-4.096
.434
-2.99
.435
4.803
.434
.141
.435
-7.863
.434
6.003
.435
1.578
.434
.659
.435
1.059
.434
-1.318
.435
-1.083
.434
11.37
.435
6.521
.435
-1.366
.434
1.177
.435
5.297
.434
3.46
.435
5.297
.434
1.177
.435
-6.121
.434
2.001
.435
4.52
.434
-5.391
.435
-3.013
.434
3.673
.435
-.754
.434
5.085
.435
3.484
.434
-7.298
.435
.212
.434
3.061
.435
-3.508
.434
-1.318
.435
-5.391
.434
-2.213
.435
6.544
.434
5.391
.435
-3.319
.434
.918
.435
-.565
.434
-4.779
.435
-4.143
.435
-.212
.434
-2.848
.435
-.895
.434
-2.871
.435
-4.308
.434
5.673
.435
1.2
.434
-7.344
.435
-.283
.434
3.578
.435
-2.048
.434
3.014
.435
.588
.434
-3.837
.435
4.637
.434
3.555
.435
-5.132
.434
7.557
.435
1.812
.434
-4.896
.435
8.098
.434
.471
.435
-3.908
.434
8.545
.435
-1.553
.434
2.236
.435
9.887
.434
-1.836
.435
-4.096
.434
-.848
.435
-7.956
.435
-10.641
.434
-1.012
.435
-4.402
.434
.377
.435
.353
.434
-2.119
.435
4.12
.434
9.934
.435
-4.449
.434
-5.485
.435
-11.794
.434
-.283
.435
-1.789
.434
1.413
.435
-.801
.434
1.107
.435
10.146
.434
13.841
.435
-5.131
.434
-3.955
.435
-5.391
.434
-11.888
.435
.094
.434
-4.731
.435
-4.402
.434
6.803
.435
10.287
.434
-.612
.435
11.299
.434
-3.86
.435
-12.995
.435
-4.26
.434
-.071
.435
-7.321
.434
3.931
.435
.8
.434
-2.307
.435
8.546
.434
.164
.435
-4.001
.434
-1.013
.435
-12.712
.434
-17.843
.435
3.248
.434
-.753
.435
-5.932
.434
.753
.435
7.039
.434
9.863
.435
14.125
.434
2.165
.435
-4.543
.434
4.685
.435
7.721
.434
-4.12
.435
1.224
.434
-2.942
.435
-2.637
.434
10.57
.435
4.002
.435
-12.335
.434
-2.731
.435
1.036
.434
-3.32
.435
5.556
.434
-2.919
.435
-.283
.434
10.711
.435
7.628
.434
-1.648
.435
7.486
.434
-1.719
.435
-8.427
.434
1.977
.435
-.989
.434
1.601
.435
5.509
.434
.094
.435
.894
.434
14.03
.435
3.649
.434
-6.638
.435
-1.577
.434
.306
.435
-4.473
.434
-.612
.435
1.648
.434
-1.483
.435
4.096
.434
1.106
.435
-4.637
.435
1.694
.434
-2.259
.435
-15.396
.434
-4.684
.435
3.272
.434
7.509
.435
12.194
.434
13.371
.435
12.735
.434
19.704
.435
13.559
.434
8.64
.435
.517
.434
-.612
.435
-.4
.434
-1.153
.435
-1.931
.434
-1.247
.435
-1.648
.434
-2.613
.435
-4.12
.434
-11.888
.435
-7.109
.434
-5.744
.435
-5.602
.434
-4.85
.435
-4.049
.434
-4.896
.435
3.578
.434
-2.048
.435
-2.99
.435
-2.518
.434
-4.92
.435
-1.154
.434
3.037
.435
-1.012
.434
-.095
.435
6.262
.434
2.731
.435
1.507
.434
3.154
.435
.8
.434
.918
.435
3.437
.434
-5.767
.435
-1.836
.434
4.967
.435
-2.142
.434
-.871
.435
2.424
.434
2.613
.435
4.755
.434
5.368
.435
-.777
.434
1.553
.435
-1.153
.434
-4.826
.435
-2.683
.434
.941
.435
-6.615
.435
-1.6
.434
-.542
.435
.848
.434
1.341
.435
.283
.434
-4.944
.435
3.39
.434
2.519
.435
-.871
.434
-1.412
.435
1.035
.434
1.06
.435
1.6
.434
-.258
.435
-3.508
.434
-4.426
.435
-.541
.434
-2.801
.435
-.659
.434
2.236
.435
-1.177
.434
.612
.435
5.461
.434
.142
.435
1.553
.434
.118
.435
-5.673
.434
-2.119
.435
-.259
.434
-5.179
.435
2.142
.435
4.897
.434
2.189
.435
5.626
.434
2.778
.435
.235
.434
-4.896
.435
-1.483
.434
-7.415
.435
-1.813
h.434
l.435
.165
.434
-2.66
.435
13.159
.434
.541
.435
4.12
.434
-1.742
.435
-6.003
.434
-7.439
.435
3.013
.434
-9.18
.435
1.859
.434
.659
.435
-6.567
.434
1.342
.435
7.462
.434
-3.931
.435
.423
.434
-.753
.435
-7.321
.435
7.392
.434
3.554
.435
-2.848
.434
1.224
.435
5.344
.434
-4.967
.435
6.144
.434
-2.59
.435
-7.062
.434
-3.908
.435
.306
.434
-2.589
.435
-1.13
.434
1.436
.435
1.601
.434
6.85
.435
3.766
.434
1.295
.435
.306
.434
4.167
.435
-1.483
.434
-2.354
.435
3.978
.434
5.367
.435
1.436
.434
3.578
.435
-5.084
.434
1.153
.435
4.638
.434
-4.308
.435
-11.158
.435
1.836
.434
-2.307
.435
2.825
.434
-.189
.435
.259
.434
.353
.435
11.512
.434
-.565
.435
1.153
.434
3.72
.435
-4.779
.434
-3.696
.435
.942
.434
-6.921
.435
-2.166
.434
-1.365
.435
.965
.434
6.732
.435
4.379
.434
-1.766
.435
2.472
.434
4.285
.435
2.966
.434
.447
.435
.871
.434
-1.695
.435
.33
.434
.541
.435
-5.085
.434
.306
.435
.471
.435
-3.154
.434
-1.154
.435
2.849
.434
-.165
.435
1.13
.434
-1.224
.435
-2.166
.434
.753
.435
-.8
.434
-6.639
.435
-7.109
.434
-1.86
.435
-4.166
.434
.329
.435
.871
.434
-1.177
.435
4.732
.434
10.405
.435
3.343
.434
3.743
.435
-.212
.434
-.942
.435
-1.554
.434
-1.294
.435
-7.51
.434
-5.626
.435
-5.65
.434
-5.108
.435
-3.178
.435
-1.601
.434
-5.649
.435
5.838
.434
3.013
.435
-3.955
.434
3.955
.435
3.343
.434
2.095
.435
6.285
.434
3.131
.435
-12.877
.434
-2.66
.435
-10.358
.434
-12.523
.435
-5.744
.434
-4.426
.435
-14.571
.434
2.613
.435
7.062
.434
7.627
.435
6.662
.434
3.837
.435
-2.119
.434
2.967
.435
9.133
.434
5.579
.435
-.188
.434
7.062
.435
5.626
.434
4.85
.435
6.826
.435
.189
.434
-5.697
.435
-.565
.434
-2.731
.435
-2.448
.434
.8
.435
1.272
.434
4.92
.435
8.215
.434
7.651
.435
3.743
.434
2.895
.435
3.743
.434
.071
.435
.165
.434
-1.931
.435
-.706
.434
-.777
.435
1.342
.434
-4.637
.435
.612
.434
-2.354
.435
.117
.434
-3.225
.435
-2.307
.434
-2.495
.435
3.319
.434
-.494
.435
1.954
.434
-.4
.435
4.331
.435
3.743
.434
2.283
.435
1.413
.434
-.589
.435
-.965
.434
.589
.435
-1.483
.434
-1.625
.435
-.4
.434
-2.895
.435
2.966
.434
-2.048
.435
-5.768
.434
-5.249
.435
-8.381
.434
-.753
.435
-.024
.434
-2.966
.435
3.508
.434
3.154
.435
2.708
.434
6.85
.435
-4.002
.434
-11.135
.435
-.494
.434
-.565
.435
-3.413
.434
1.106
.435
4.237
.435
2.849
.434
12.099
.435
3.155
.434
-3.461
.435
1.413
.434
-2.943
.435
-10.146
.434
2.213
.435
1.601
.434
-1.766
.435
2.802
.434
6.591
.435
5.697
.434
7.862
.435
2.307
.434
-.941
.435
1.671
.434
2.166
.435
-1.366
.434
1.177
.435
1.366
.434
-3.72
.435
-.023
.434
.8
.435
-4.99
.434
-2.19
.435
-3.366
.434
-4.543
.435
4.143
.434
2.283
.435
-1.789
.435
5.203
.434
3.154
.435
1.46
.434
6.097
.435
-1.036
.434
-5.391
.435
.612
.434
1.624
.435
1.413
.434
1.412
.435
-1.859
.434
-1.083
.435
1.577
.434
1.624
.435
-5.885
.434
-8.639
.435
-4.708
.434
-7.133
.435
-3.861
.434
1.719
.435
-1.413
.434
2.707
.435
4.967
.434
3.414
.435
8.051
.434
1.553
.435
-1.483
.434
-2.354
.435
1.13
.434
-.965
.435
1.836
.435
.565
.434
.165
.435
2.589
.434
3.108
.435
-1.083
.434
.565
.435
-3.06
.434
-2.896
.435
3.131
.434
-.824
.435
-1.671
.434
-.306
.435
1.365
.434
-.965
.435
1.577
.434
-1.765
.435
-3.273
.434
-2.283
.435
2.048
.434
.306
.435
1.412
.434
1.201
.435
.612
.434
4.638
.435
6.379
.434
-1.412
.435
2.354
.434
4.166
.435
.283
.435
.376
.434
1.484
.435
-.565
.434
-.236
.435
-5.461
.434
-3.837
.435
-4.002
.434
1.695
.435
-1.742
.434
-.589
.435
.565
.434
3.484
.435
2.801
.434
4.097
.435
-2.59
.434
-.118
.435
-.776
.434
-2.778
.435
-2.754
.434
-1.436
.435
-3.602
.434
1.671
.435
-2.566
.434
-1.106
.435
4.755
.434
4.143
.435
-1.318
.434
2.707
.435
-.894
.434
-1.483
.435
2.612
.435
-3.625
.434
-2.001
.435
1.06
.434
.918
.435
.706
.434
5.344
.435
-1.342
.434
1.954
.435
-1.554
.434
-1.412
.435
-8.145
.434
-4.12
.435
-3.531
.434
-3.837
.435
-1.648
.434
1.201
.435
-3.767
.434
1.836
.435
3.037
.434
-2.189
.435
2.448
.434
2.589
.435
-.588
.434
5.108
.435
4.991
.434
1.93
.435
2.072
.434
1.224
.435
-1.507
.435
1.46
.434
-1.224
.435
.706
.434
-1.201
.435
2.731
.434
-.33
.435
-1.577
.434
-.118
.435
-2.754
.434
-1.106
.435
-.801
.434
-2.495
.435
-1.813
.434
-.329
.435
-2.566
.434
3.037
.435
1.859
.434
-1.13
.435
1.036
.434
1.342
.435
.471
.434
.188
.435
-4.826
.434
-9.439
.435
-2.731
.434
.447
.435
-.612
.434
1.978
.435
2.236
.434
3.154
.435
8.216
.435
5.532
.434
-4.025
.435
-2.378
.434
.259
.435
-2.048
.434
1.059
.435
-.989
.434
-2.212
.435
1.365
.434
-1.13
.435
-1.883
.434
1.012
.435
1.671
.434
.354
.435
1.341
.434
5.65
.435
.636
.434
2.165
h.435
l.434
-3.436
.435
-1.225
.434
-4.331
.435
-6.262
.434
2.613
.435
-1.977
.434
-3.484
.435
2.66
.434
1.106
.435
.4
.434
2.943
.435
-.471
.435
-2.872
.434
5.085
.435
.141
.434
-2.283
.435
3.319
.434
-3.861
.435
1.201
.434
.047
.435
-3.013
.434
.047
.435
3.131
.434
-.73
.435
-1.977
.434
-5.697
.435
1.506
.434
-2.071
.435
-1.365
.434
-2.825
.435
-4.92
.434
2.989
.435
3.743
.434
-.047
.435
4.567
.434
.094
.435
1.577
.434
4.45
.435
2.613
.434
.612
.435
2.001
.435
-1.13
.434
-2.802
.435
-1.153
.434
2.048
.435
1.53
.434
1.483
.435
.353
.434
1.389
.435
5.626
.434
3.343
.435
-1.201
.434
1.154
.435
1.436
.434
-.283
.435
-.306
.434
-1.13
.435
-3.319
.434
1.907
.435
-2.707
.434
-.165
.435
-2.26
.434
1.554
.435
-1.766
.434
4.261
.435
.589
.434
-2.401
.435
-.613
.434
2.402
.435
.941
.434
2.59
.435
-3.32
.435
-.706
.434
4.52
.435
2.966
.434
1.271
.435
.777
.434
.047
.435
3.319
.434
-1.836
.435
-2.165
.434
-4.049
.435
1.718
.434
-1.624
.435
.777
.434
.659
.435
4.331
.434
.942
.435
1.836
.434
-2.142
.435
1.553
.434
-.447
.435
-1.13
.434
-3.484
.435
3.319
.434
1.225
.435
1.977
.434
-2.59
.435
-1.153
.434
-.212
.435
1.907
.434
-1.271
.435
.235
.435
.236
.434
3.201
.435
3.202
.434
1.106
.435
-.4
.434
1.954
.435
.329
.434
.989
.435
-.377
.434
.047
.435
1.154
.434
2.095
.435
-.071
.434
1.177
.435
-.612
.434
-1.13
.435
-.117
.434
-.73
.435
.753
.434
-1.247
.435
-1.201
.434
-.683
.435
1.295
.434
-2.707
.435
.07
.434
-.918
.435
.518
.434
-.235
.435
.212
.435
.635
.434
3.225
.435
.66
.434
.188
.435
.094
.434
-.024
.435
.118
.434
-.871
.435
-1.883
.434
-2.26
.435
-1.059
.434
-.565
.435
-.165
.434
1.059
.435
-.588
.434
-.448
.435
1.578
.434
-1.601
.435
-1.295
.434
.024
.435
-2.378
.434
.683
.435
1.648
.434
.4
.435
1.012
.434
-.989
.435
1.083
.434
-.518
.435
-1.318
.434
-.259
.435
-.353
.435
1.695
.434
2.519
.435
-.895
.434
.871
.435
.236
.434
-1.53
.435
-.966
.434
.118
.435
-1.271
.434
.329
.435
1.554
.434
2.284
.435
1.671
.434
1.036
.435
-.965
.434
.729
.435
.73
.434
-.588
.435
-.73
.434
.353
.435
.353
.434
.612
.435
1.295
.434
-1.201
.435
.589
.434
-.518
.435
-2.401
.434
-1.224
.435
-.353
.435
-1.083
.434
-.895
.435
-1.483
.434
.118
.435
1.247
.434
-.353
.435
-.494
.434
.612
.435
.8
.434
-.824
.435
.565
.434
1.483
.435
.754
.434
-1.436
.435
-.071
.434
-1.436
.435
1.107
.434
-.777
.435
-3.931
.434
-1.177
.435
2.142
.434
-1.554
.435
2.66
.434
.283
.435
1.247
.434
3.013
.435
2.025
.434
.4
.435
1.342
.434
-.518
.435
-.471
.435
-2.166
.434
-2.66
.435
-.682
.434
-1.107
.435
.895
.434
-.871
.435
.518
.434
-1.06
.435
3.296
.434
.071
.435
-.801
.434
-1.718
.435
1.389
.434
-.495
.435
1.483
.434
.589
.435
.118
.434
.941
.435
-.023
.434
-.895
.435
.871
.434
.824
.435
-2.613
.434
-2.024
.435
-.142
.434
1.225
.435
-1.648
.434
-.024
.435
-.353
.434
2.095
.435
2.119
.435
.894
.434
-1.6
.435
1.883
.434
.871
.435
.8
.434
-1.483
.435
.942
.434
-.942
.435
1.177
.434
.306
.435
.33
.434
.588
.435
1.719
.434
-.047
.435
1.224
.434
.188
.435
.565
.434
-.282
.435
-.613
.434
-.047
.435
-.918
.434
-2.095
.435
1.06
.434
-1.201
.435
-2.825
.434
-4.425
.435
-3.39
.434
.259
.435
1.647
.435
-1.177
.434
.683
.435
2.59
.434
3.484
.435
1.53
.434
-1.907
.435
-.353
.434
.682
.435
1.013
.434
-.33
.435
-1.389
.434
1.201
.435
1.907
.434
.07
.435
-.4
.434
-2.236
.435
-.471
.434
-.212
.435
1.106
.434
.848
.435
.588
.434
.118
.435
2.284
.434
-1.507
.435
2.166
.434
-2.307
.435
-2.637
.434
.824
.435
1.036
.434
-.188
.435
2.801
.435
.424
.434
1.718
.435
2.613
.434
-1.813
.435
-.824
.434
-.588
.435
.024
.434
.47
.435
.518
.434
.141
.435
1.695
.434
.848
.435
-.33
.434
-1.459
.435
-4.167
.434
-4.308
.435
-2.424
.434
-.542
.435
.094
.434
-.518
.435
.142
.434
3.178
.435
2.989
.434
-1.247
.435
-2.402
.434
-1.671
.435
-1.224
.434
.235
.435
.212
.434
.189
.435
2.989
.435
.989
.434
-.659
.435
1.883
.434
1.106
.435
-1.459
.434
-.871
.435
-2.331
.434
1.177
.435
2.237
.434
.8
.435
-.447
.434
1.2
.435
1.507
.434
2.778
.435
.235
.434
-.023
.435
-.942
.434
-.518
.435
-.918
.434
.306
.435
-.447
.434
-.236
.435
-.659
.434
-.565
.435
-.235
.434
.094
.435
-.777
.434
.33
.435
.141
.435
-.212
.434
.165
.435
1.224
.434
1.177
.435
-.683
.434
-1.53
.435
.565
.434
-.235
.435
.683
.434
-.495
.435
.306
.434
.942
.435
1.883
.434
.094
.435
.212
.434
.895
.435
-.189
.434
-.753
.435
.895
.434
-.565
.435
-.542
.434
-.07
.435
-1.342
.434
-.518
.435
.989
.434
-.777
.435
.47
.434
.165
.435
.353
.434
-.988
.435
1.365
.435
-.918
.434
-.259
.435
-.235
.434
-.848
.435
-.494
.434
.847
.435
-1.789
.434
-.753
.435
-.33
.434
-1.883
.435
.942
.434
.423
.435
.919
.434
1.412
.435
1.789
.434
1.318
.435
2.119
.434
-.377
.435
.094
.434
.189
.435
-.165
.434
-1.154
.435
-.47
.434
-1.672
.435
.142
.434
.07
.435
-.212
.434
-.259
.435
.918
.435
-.047
.434
-.164
h.435
l.434
-.495
.435
-.659
.434
.848
.435
-.189
.434
-.447
.435
.918
.434
.447
.435
-.753
.434
.188
.435
-.4
.434
-.07
.435
-.942
.434
.306
.435
-.895
.434
1.201
.435
.471
.434
-1.46
.435
.589
.434
1.954
.435
-.871
.434
-1.672
.435
-.706
.434
.4
.435
1.86
h.434
l.435
-.683
.434
1.083
.435
1.954
.435
-.847
.434
-1.319
.435
-1.036
.434
-.564
.435
-1.79
.434
-1.506
.435
.353
.434
.918
.435
1.036
.434
.353
.435
.424
.434
1.483
.435
1.318
.434
-.777
.435
-.259
.434
-4.19
.435
-1.295
.434
-1.459
.435
-2.095
.434
-1.813
h.435
l.434
-1.977
.435
4.378
.434
.212
.435
.942
.434
1.224
.435
1.883
.434
-.942
.435
2.543
.434
-1.083
h.435
l.435
-.777
.434
-.306
.435
-1.766
.434
1.484
.435
.47
.434
-1.412
.435
.377
.434
-.142
.435
.165
.434
1.036
.435
-.824
.434
-.565
.435
.306
.434
.494
.435
.33
.434
-.424
.435
-.447
.434
-1.813
.435
-.965
.434
1.86
.435
-.165
.434
.353
.435
1.978
.434
-1.837
.435
1.86
.434
.73
.435
-.589
.434
-1.459
.435
.023
.435
-.047
.434
3.013
.435
1.13
.434
-.753
h.435
l.434
1.295
.435
.683
.434
.094
.435
.235
.434
-2.283
.435
.4
.434
-1.059
.435
-.871
.434
-4.638
.435
-4.284
.434
-4.002
.435
-.518
.434
-2.566
.435
-2.801
.434
.353
.435
.07
.434
1.154
.435
1.954
.434
-.895
.435
1.366
.434
.376
.435
-.282
.434
-.424
.435
1.083
.434
.188
.435
1.672" aria-label="line"/>
</svg>
