<svg class="plot-d6a7b5" fill="currentColor" font-family="system-ui, sans-serif" font-size="10" text-anchor="middle" width="830" height="470" viewBox="0 0 830 470" xmlns="http://www.w3.org/2000/svg" xmlns:xlink="http://www.w3.org/1999/xlink" color="#1e90ff"><style>:where(.plot-d6a7b5){--plot-background: white;display:block;height:intrinsic;max-width:100%}:where(.plot-d6a7b5 text),:where(.plot-d6a7b5 tspan){white-space:pre}</style><g aria-label="y-grid" stroke="currentColor" stroke-opacity=".1"><line x1="60" x2="770" y1="410" y2="410"/><line x1="60" x2="770" y1="378.557" y2="378.557"/><line x1="60" x2="770" y1="347.114" y2="347.114"/><line x1="60" x2="770" y1="315.671" y2="315.671"/><line x1="60" x2="770" y1="284.227" y2="284.227"/><line x1="60" x2="770" y1="252.784" y2="252.784"/><line x1="60" x2="770" y1="221.341" y2="221.341"/><line x1="60" x2="770" y1="189.898" y2="189.898"/><line x1="60" x2="770" y1="158.455" y2="158.455"/><line x1="60" x2="770" y1="127.012" y2="127.012"/><line x1="60" x2="770" y1="95.568" y2="95.568"/><line x1="60" x2="770" y1="64.125" y2="64.125"/></g><g aria-label="y-axis tick" fill="none" stroke="currentColor"><path transform="translate(60,410)" d="M0,0L-6,0"/><path transform="translate(60,378.55684921661634)" d="M0,0L-6,0"/><path transform="translate(60,347.11369843323274)" d="M0,0L-6,0"/><path transform="translate(60,315.6705476498491)" d="M0,0L-6,0"/><path transform="translate(60,284.2273968664655)" d="M0,0L-6,0"/><path transform="translate(60,252.7842460830818)" d="M0,0L-6,0"/><path transform="translate(60,221.34109529969817)" d="M0,0L-6,0"/><path transform="translate(60,189.8979445163145)" d="M0,0L-6,0"/><path transform="translate(60,158.45479373293085)" d="M0,0L-6,0"/><path transform="translate(60,127.01164294954722)" d="M0,0L-6,0"/><path transform="translate(60,95.56849216616357)" d="M0,0L-6,0"/><path transform="translate(60,64.12534138277994)" d="M0,0L-6,0"/></g><g aria-label="y-axis tick label" text-anchor="end" font-variant="tabular-nums"><text y=".32em" transform="translate(-9,0) translate(60,410)">0</text><text y=".32em" transform="translate(-9,0) translate(60,378.55684921661634)">5,000</text><text y=".32em" transform="translate(-9,0) translate(60,347.11369843323274)">10,000</text><text y=".32em" transform="translate(-9,0) translate(60,315.6705476498491)">15,000</text><text y=".32em" transform="translate(-9,0) translate(60,284.2273968664655)">20,000</text><text y=".32em" transform="translate(-9,0) translate(60,252.7842460830818)">25,000</text><text y=".32em" transform="translate(-9,0) translate(60,221.34109529969817)">30,000</text><text y=".32em" transform="translate(-9,0) translate(60,189.8979445163145)">35,000</text><text y=".32em" transform="translate(-9,0) translate(60,158.45479373293085)">40,000</text><text y=".32em" transform="translate(-9,0) translate(60,127.01164294954722)">45,000</text><text y=".32em" transform="translate(-9,0) translate(60,95.56849216616357)">50,000</text><text y=".32em" transform="translate(-9,0) translate(60,64.12534138277994)">55,000</text></g><g aria-label="y-axis label" text-anchor="start"><text y=".71em" transform="translate(-57,-57) translate(60,60)">↑ Visible Vestiges (30 days)</text></g><g aria-label="x-axis tick" fill="none" stroke="currentColor"><path transform="translate(65.35175879396985,410)" d="M0,0L0,6"/><path transform="translate(120.65326633165827,410)" d="M0,0L0,6"/><path transform="translate(174.1708542713568,410)" d="M0,0L0,6"/><path transform="translate(229.47236180904522,410)" d="M0,0L0,6"/><path transform="translate(282.98994974874375,410)" d="M0,0L0,6"/><path transform="translate(338.29145728643215,410)" d="M0,0L0,6"/><path transform="translate(393.5929648241206,410)" d="M0,0L0,6"/><path transform="translate(447.11055276381904,410)" d="M0,0L0,6"/><path transform="translate(502.41206030150755,410)" d="M0,0L0,6"/><path transform="translate(555.929648241206,410)" d="M0,0L0,6"/><path transform="translate(611.2311557788945,410)" d="M0,0L0,6"/><path transform="translate(666.5326633165829,410)" d="M0,0L0,6"/><path transform="translate(718.2663316582914,410)" d="M0,0L0,6"/></g><g aria-label="x-axis tick label" font-variant="tabular-nums"><text transform="translate(0,9) translate(65.35175879396985,410)"><tspan x="0" y=".71em">Mar</tspan><tspan x="0" dy="1em">2023</tspan></text><text y=".71em" transform="translate(0,9) translate(120.65326633165827,410)">Apr</text><text y=".71em" transform="translate(0,9) translate(174.1708542713568,410)">May</text><text y=".71em" transform="translate(0,9) translate(229.47236180904522,410)">Jun</text><text y=".71em" transform="translate(0,9) translate(282.98994974874375,410)">Jul</text><text y=".71em" transform="translate(0,9) translate(338.29145728643215,410)">Aug</text><text y=".71em" transform="translate(0,9) translate(393.5929648241206,410)">Sep</text><text y=".71em" transform="translate(0,9) translate(447.11055276381904,410)">Oct</text><text y=".71em" transform="translate(0,9) translate(502.41206030150755,410)">Nov</text><text y=".71em" transform="translate(0,9) translate(555.929648241206,410)">Dec</text><text transform="translate(0,9) translate(611.2311557788945,410)"><tspan x="0" y=".71em">Jan</tspan><tspan x="0" dy="1em">2024</tspan></text><text y=".71em" transform="translate(0,9) translate(666.5326633165829,410)">Feb</text><text y=".71em" transform="translate(0,9) translate(718.2663316582914,410)">Mar</text></g><g aria-label="line" fill="none" stroke="currentColor" stroke-width="1.5" stroke-linejoin="round" stroke-linecap="round"><path d="M60,410L61.189,406.843L62.379,395.297L63.568,389.071L64.757,384.657L65.946,377.375L67.136,371.639L68.325,366.263L69.514,355.383L70.704,346.774L71.893,336.555L73.082,320.727L74.271,305.804L75.461,298.056L76.65,286.843L77.839,279.228L79.028,270.499L80.218,259.085L81.407,251.401L82.596,243.867L83.786,233.642L84.975,222.303L86.164,214.273L87.353,200.57L88.543,194.08L89.732,188.024L90.921,177.101L92.111,166.643L93.3,158.593L94.489,147.374L95.678,139.344L96.868,140.702L98.057,131.137L99.246,123.025L100.436,123.05L101.625,121.226L102.814,120.912L104.003,127.194L105.193,127.276L106.382,129.156L107.571,139.168L108.76,140.639L109.95,134.325L111.139,132.936L112.328,125.282L113.518,123.66L114.707,126.257L115.896,121.93L117.085,119.415L118.275,122.364L119.464,120.597L120.653,115.956L121.843,117.837L123.032,107.379L124.221,97.342L125.41,99.895L126.6,97.933L127.789,94.776L128.978,95.952L130.168,92.921L131.357,89.752L132.546,93.94L133.735,92.519L134.925,86.406L136.114,82.45L137.303,72.653L138.492,67.722L139.682,67.653L140.871,64L142.06,60L143.25,66.113L144.439,70.716L145.628,73.112L146.817,78.866L148.007,76.734L149.196,73.181L150.385,78.143L151.575,78.407L152.764,78.042L153.953,86.123L155.142,91.016L156.332,95.097L157.521,103.825L158.71,109.278L159.899,106.831L161.089,110.806L162.278,110.315L163.467,112.145L164.657,121L165.846,122.037L167.035,125.125L168.224,134.464L169.414,140.117L170.603,144.192L171.792,151.933L172.982,150.82L174.171,150.16L175.36,154.179L176.549,157.065L177.739,158.254L178.928,161.825L180.117,162.373L181.307,166.385L182.496,173.277L183.685,176.572L184.874,173.334L186.064,175.05L187.253,172.315L188.442,170.347L189.631,171.629L190.821,169.957L192.01,171.736L193.199,176.245L194.389,178.874L195.578,180.918L196.767,184.88L197.956,184.898L199.146,182.823L200.335,188.98L201.524,191.036L202.714,190.005L203.903,192.407L205.092,192.363L206.281,194.413L207.471,199.916L208.66,200.696L209.849,197.652L211.039,196.545L212.228,192.237L213.417,191.866L214.606,194.35L215.796,192.445L216.985,191.269L218.174,195.589L219.363,196.451L220.553,197.117L221.742,199.714L222.931,195.413L224.121,193.596L225.31,195.74L226.499,194.753L227.688,192.778L228.878,194.69L230.067,194.948L231.256,194.558L232.446,197.96L233.635,199.035L234.824,199.457L236.013,200.519L237.203,198.557L238.392,198.381L239.581,200.142L240.771,198.174L241.96,197.834L243.149,201.249L244.338,206.789L245.528,208.374L246.717,212.77L247.906,212.701L249.095,213.015L250.285,215.04L251.474,215.216L252.663,214.43L253.853,218.348L255.042,218.109L256.231,219.53L257.42,225.806L258.61,227.529L259.799,228.535L260.988,231.434L262.178,231.761L263.367,232.101L264.556,232.126L265.745,233.453L266.935,232.459L268.124,235.384L269.313,234.818L270.503,235.069L271.692,236.547L272.881,234.755L274.07,234.711L275.26,236.025L276.449,234.516L277.638,233.214L278.827,233.107L280.017,230.453L281.206,229.114L282.395,231.177L283.585,231.227L284.774,230.541L285.963,233.484L287.152,232.56L288.342,233.893L289.531,236.572L290.72,236.899L291.91,236.295L293.099,238.44L294.288,237.673L295.477,237.05L296.667,240.169L297.856,239.566L299.045,239.805L300.235,241.974L301.424,240.666L302.613,239.591L303.802,240.767L304.992,239.402L306.181,240.238L307.37,241.515L308.559,240.408L309.749,240.742L310.938,242.609L312.127,243.1L313.317,241.779L314.506,245.483L315.695,247.816L316.884,246.722L318.074,249.451L319.263,248.527L320.452,247.797L321.642,249.313L322.831,247.275L324.02,247.288L325.209,247.307L326.399,244.93L327.588,243.345L328.777,246.823L329.966,243.798L331.156,242.446L332.345,243.641L333.534,242.056L334.724,241.641L335.913,243.32L337.102,241.59L338.291,240.389L339.481,241.433L340.67,238.635L341.859,238.415L343.049,239.805L344.238,239.176L345.427,236.975L346.616,235.365L347.806,231.258L348.995,229.938L350.184,229.938L351.374,228.435L352.563,227.001L353.752,229.994L354.941,228.139L356.131,227.592L357.32,229.957L358.509,228.63L359.698,228.925L360.888,232.78L362.077,232.176L363.266,229.529L364.456,232.988L365.645,232.793L366.834,230.378L368.023,231.296L369.213,228.177L370.402,227.812L371.591,228.472L372.781,226.542L373.97,225.806L375.159,228.139L376.348,227.454L377.538,227.215L378.727,230.032L379.916,231.818L381.106,235.126L382.295,241.546L383.484,242.71L384.673,242.194L385.863,243.892L387.052,244.244L388.241,242.917L389.43,244.634L390.62,245.118L391.809,244.005L392.998,246.087L394.188,246.961L395.377,246.118L396.566,247.37L397.755,247.118L398.945,247.231L400.134,248.464L401.323,251.011L402.513,253.734L403.702,257.796L404.891,259.299L406.08,262.268L407.27,267.324L408.459,266.204L409.648,266.89L410.838,269.047L412.027,268.323L413.216,269.455L414.405,271.38L415.595,272.153L416.784,274.027L417.973,275.48L419.162,276.876L420.352,277.234L421.541,277.354L422.73,274.631L423.92,272.317L425.109,273.662L426.298,273.681L427.487,274.474L428.677,275.216L429.866,275.48L431.055,276.624L432.245,279.706L433.434,279.14L434.623,278.436L435.812,279.448L437.002,277.555L438.191,278.75L439.38,280.165L440.57,278.958L441.759,278.555L442.948,282.662L444.137,282.504L445.327,282.9L446.516,284.894L447.705,281.574L448.894,280.674L450.084,281.687L451.273,279.97L452.462,280.813L453.652,282.07L454.841,283.177L456.03,284.592L457.219,288.466L458.409,289.805L459.598,287.598L460.787,286.649L461.977,283.919L463.166,283.599L464.355,284.951L465.544,285.007L466.734,284.881L467.923,286.271L469.112,286.869L470.302,287.661L471.491,290.183L472.68,285.982L473.869,282.768L475.059,282.85L476.248,282.599L477.437,283.039L478.626,286.076L479.816,285.812L481.005,287.202L482.194,290.17L483.384,288.749L484.573,284.756L485.762,284.397L486.951,281.165L488.141,280.655L489.33,281.196L490.519,279.398L491.709,280.064L492.898,282.215L494.087,283.334L495.276,284.158L496.466,287.045L497.655,286.089L498.844,286.007L500.034,287.963L501.223,286.68L502.412,287.252L503.601,290.384L504.791,290.849L505.98,291.038L507.169,293.107L508.358,293.245L509.548,291.019L510.737,290.906L511.926,289.755L513.116,289.661L514.305,290.843L515.494,289.868L516.683,290.692L517.873,294.295L519.062,296.691L520.251,299.05L521.441,302.188L522.63,301.955L523.819,301.817L525.008,305.099L526.198,305.653L527.387,307.376L528.576,309.916L529.765,311.985L530.955,313.205L532.144,317.224L533.333,315.954L534.523,313.539L535.712,313.778L536.901,312.463L538.09,310.954L539.28,311.753L540.469,311.269L541.658,314.142L542.848,317.041L544.037,318.576L545.226,318.941L546.415,319.695L547.605,317.243L548.794,317.318L549.983,318.098L551.173,316.488L552.362,315.664L553.551,316.079L554.74,313.243L555.93,313.47L557.119,314.199L558.308,314.413L559.497,313.004L560.687,312.457L561.876,310.212L563.065,310.193L564.255,311.803L565.444,310.52L566.633,309.112L567.822,311.696L569.012,313.759L570.201,315.853L571.39,318.456L572.58,318.89L573.769,318.261L574.958,320.192L576.147,318.777L577.337,318.431L578.526,321.399L579.715,322.89L580.905,324.393L582.094,327.286L583.283,327.141L584.472,326.877L585.662,328.147L586.851,328.896L588.04,329.996L589.229,332.159L590.419,332.857L591.608,334.04L592.797,335.04L593.987,335.14L595.176,336.486L596.365,337.725L597.554,335.574L598.744,333.423L599.933,334.914L601.122,334.838L602.312,333.285L603.501,332.939L604.69,331.612L605.879,330.663L607.069,330.468L608.258,329.462L609.447,328.103L610.637,328.946L611.826,328.858L613.015,327.355L614.204,326.764L615.394,324.185L616.583,323.487L617.772,325.028L618.961,324.443L620.151,325.556L621.34,325.475L622.529,323.928L623.719,324.953L624.908,324.971L626.097,323.72L627.286,323.978L628.476,325.563L629.665,325.833L630.854,327.078L632.044,328.889L633.233,328.921L634.422,327.499L635.611,326.393L636.801,325.374L637.99,326.141L639.179,327.361L640.369,327.757L641.558,327.562L642.747,327.537L643.936,327.606L645.126,328.286L646.315,328.411L647.504,327.361L648.693,324.449L649.883,325.204L651.072,323.462L652.261,322.959L653.451,324.795L654.64,323.198L655.829,324.374L657.018,326.468L658.208,323.689L659.397,320.764L660.586,319.865L661.776,316.243L662.965,315.086L664.154,314.4L665.343,312.677L666.533,312.206L667.722,313.124L668.911,312.287L670.101,313.809L671.29,314.463L672.479,310.577L673.668,308.891L674.858,308.3L676.047,307.168L677.236,307.948L678.425,308.583L679.615,305.967L680.804,305.552L681.993,305.376L683.183,306.866L684.372,305.54L685.561,303.401L686.75,298.892L687.94,297.358L689.129,296.446L690.318,291.975L691.508,289.969L692.697,291.893L693.886,293.447L695.075,294.151L696.265,296.371L697.454,294.22L698.643,292.264L699.832,293.497L701.022,292.503L702.211,291.635L703.4,291.717L704.59,290.214L705.779,291.918L706.968,294.503L708.157,293.579L709.347,291.874L710.536,293.239L711.725,291.384L712.915,291.151L714.104,292.692L715.293,292.918L716.482,294.811L717.672,296.214L718.861,297.408L720.05,300.949L721.24,305.024L722.429,303.445L723.618,304.401L724.807,307.615L725.997,309.244L727.186,310.03L728.375,310.96L729.564,311.501L730.754,313.092L731.943,316.237L733.132,316.425L734.322,315.57L735.511,317.538L736.7,316.947L737.889,318.111L739.079,320.846L740.268,320.771L741.457,320.984L742.647,323.72L743.836,325.179L745.025,324.764L746.214,326.21L747.404,323.349L748.593,322.802L749.782,323.965L750.972,325.846L752.161,328.525L753.35,332.122L754.539,334.97L755.729,337.832L756.918,343.158L758.107,346.101L759.296,348.384L760.486,350.472L761.675,352.49L762.864,355.006L764.054,357.113L765.243,358.358L766.432,359.886L767.621,363.244L768.811,364.653L770,363.414"/></g></svg>