<svg class="plot-d6a7b5" fill="currentColor" font-family="system-ui, sans-serif" font-size="10" text-anchor="middle" width="830" height="470" viewBox="0 0 830 470" style="color: dodgerblue;" xmlns="http://www.w3.org/2000/svg" xmlns:xlink="http://www.w3.org/1999/xlink"><style>:where(.plot-d6a7b5) {
  --plot-background: white;
  display: block;
  height: auto;
  height: intrinsic;
  max-width: 100%;
}
:where(.plot-d6a7b5 text),
:where(.plot-d6a7b5 tspan) {
  white-space: pre;
}</style><g aria-label="y-grid" stroke="currentColor" stroke-opacity="0.1"><line x1="60" x2="770" y1="410" y2="410"></line><line x1="60" x2="770" y1="360.9391645640594" y2="360.9391645640594"></line><line x1="60" x2="770" y1="311.8783291281189" y2="311.8783291281189"></line><line x1="60" x2="770" y1="262.8174936921783" y2="262.8174936921783"></line><line x1="60" x2="770" y1="213.7566582562377" y2="213.7566582562377"></line><line x1="60" x2="770" y1="164.69582282029717" y2="164.69582282029717"></line><line x1="60" x2="770" y1="115.6349873843566" y2="115.6349873843566"></line><line x1="60" x2="770" y1="66.57415194841604" y2="66.57415194841604"></line></g><g aria-label="y-axis tick" fill="none" stroke="currentColor"><path transform="translate(60,410)" d="M0,0L-6,0"></path><path transform="translate(60,360.9391645640594)" d="M0,0L-6,0"></path><path transform="translate(60,311.8783291281189)" d="M0,0L-6,0"></path><path transform="translate(60,262.8174936921783)" d="M0,0L-6,0"></path><path transform="translate(60,213.7566582562377)" d="M0,0L-6,0"></path><path transform="translate(60,164.69582282029717)" d="M0,0L-6,0"></path><path transform="translate(60,115.6349873843566)" d="M0,0L-6,0"></path><path transform="translate(60,66.57415194841604)" d="M0,0L-6,0"></path></g><g aria-label="y-axis tick label" text-anchor="end" font-variant="tabular-nums" transform="translate(-9,0)"><text y="0.32em" transform="translate(60,410)">0</text><text y="0.32em" transform="translate(60,360.9391645640594)">1,000</text><text y="0.32em" transform="translate(60,311.8783291281189)">2,000</text><text y="0.32em" transform="translate(60,262.8174936921783)">3,000</text><text y="0.32em" transform="translate(60,213.7566582562377)">4,000</text><text y="0.32em" transform="translate(60,164.69582282029717)">5,000</text><text y="0.32em" transform="translate(60,115.6349873843566)">6,000</text><text y="0.32em" transform="translate(60,66.57415194841604)">7,000</text></g><g aria-label="y-axis label" text-anchor="start" transform="translate(-57,-57)"><text y="0.71em" transform="translate(60,60)">↑ Visible Vestiges (4 days)</text></g><g aria-label="x-axis tick" fill="none" stroke="currentColor"><path transform="translate(98.1559536354057,410)" d="M0,0L0,6"></path><path transform="translate(200.2792413066386,410)" d="M0,0L0,6"></path><path transform="translate(303.52476290832453,410)" d="M0,0L0,6"></path><path transform="translate(406.7702845100105,410)" d="M0,0L0,6"></path><path transform="translate(508.8935721812435,410)" d="M0,0L0,6"></path><path transform="translate(611.0168598524763,410)" d="M0,0L0,6"></path><path transform="translate(714.2623814541622,410)" d="M0,0L0,6"></path></g><g aria-label="x-axis tick label" font-variant="tabular-nums" transform="translate(0,9)"><text transform="translate(98.1559536354057,410)"><tspan x="0" y="0.71em">Apr</tspan><tspan x="0" dy="1em">2023</tspan></text><text y="0.71em" transform="translate(200.2792413066386,410)">Jul</text><text y="0.71em" transform="translate(303.52476290832453,410)">Oct</text><text transform="translate(406.7702845100105,410)"><tspan x="0" y="0.71em">Jan</tspan><tspan x="0" dy="1em">2024</tspan></text><text y="0.71em" transform="translate(508.8935721812435,410)">Apr</text><text y="0.71em" transform="translate(611.0168598524763,410)">Jul</text><text y="0.71em" transform="translate(714.2623814541622,410)">Oct</text></g><g aria-label="line" fill="none" stroke="currentColor" stroke-width="1.5" stroke-linejoin="round" stroke-linecap="round"><path d="M60,410L60.748,385.371L61.496,295.296L62.244,246.726L62.993,236.913L63.741,270.177L64.489,274.003L65.237,266.497L65.985,238.434L66.733,216.013L67.482,178.237L68.23,139.626L68.978,90.369L69.726,109.65L70.474,145.66L71.222,202.669L71.97,195.015L72.719,193.445L73.467,192.906L74.215,202.227L74.963,211.5L75.711,182.996L76.459,179.12L77.208,151.989L77.956,189.815L78.704,205.22L79.452,226.905L80.2,195.948L80.948,180.395L81.697,178.089L82.445,172.398L83.193,155.718L83.941,120.05L84.689,109.601L85.437,132.463L86.185,196.683L86.934,250.013L87.682,270.765L88.43,263.21L89.178,242.555L89.926,233.038L90.674,194.623L91.423,149.978L92.171,97.041L92.919,82.862L93.667,111.808L94.415,141.343L95.163,166.756L95.911,169.111L96.66,181.131L97.408,172.595L98.156,152.136L98.904,116.665L99.652,86.689L100.4,60L101.149,86.934L101.897,122.258L102.645,160.378L103.393,147.328L104.141,133.297L104.889,116.518L105.638,104.351L106.386,106.461L107.134,106.362L107.882,107.049L108.63,95.029L109.378,125.006L110.126,147.77L110.875,175.048L111.623,172.791L112.371,182.603L113.119,202.375L113.867,199.333L114.615,182.358L115.364,158.759L116.112,141.883L116.86,161.114L117.608,182.161L118.356,219.055L119.104,234.853L119.852,250.503L120.601,249.718L121.349,224.795L122.097,202.473L122.845,178.482L123.593,176.716L124.341,168.474L125.09,188.785L125.838,212.825L126.586,207.967L127.334,205.613L128.082,211.5L128.83,247.412L129.579,255.802L130.327,231.32L131.075,208.507L131.823,194.329L132.571,192.562L133.319,221.508L134.067,245.744L134.816,262.033L135.564,240.74L136.312,245.793L137.06,248.099L137.808,252.662L138.556,215.327L139.305,195.997L140.053,185.841L140.801,211.549L141.549,223.814L142.297,231.32L143.045,235.638L143.793,238.483L144.542,248.05L145.29,248.345L146.038,235.834L146.786,235.785L147.534,227.69L148.282,239.955L149.031,253.496L149.779,267.527L150.527,274.151L151.275,266.154L152.023,265.712L152.771,267.086L153.519,259.334L154.268,217.829L155.016,195.212L155.764,179.757L156.512,216.897L157.26,223.618L158.008,247.412L158.757,243.438L159.505,262.327L160.253,246.578L161.001,241.623L161.749,218.025L162.497,203.454L163.246,196.34L163.994,200.314L164.742,230.486L165.49,232.105L166.238,239.857L166.986,249.865L167.734,249.718L168.483,261.297L169.231,259.579L169.979,278.174L170.727,273.464L171.475,263.799L172.223,265.761L172.972,263.21L173.72,262.719L174.468,262.817L175.216,267.969L175.964,285.042L176.712,277.438L177.46,269.637L178.209,263.014L178.957,259.825L179.705,265.123L180.453,263.063L181.201,273.366L181.949,272.384L182.698,264.191L183.446,257.813L184.194,261.64L184.942,269.833L185.69,270.569L186.438,274.396L187.187,265.123L187.935,267.675L188.683,255.262L189.431,262.916L190.179,264.093L190.927,284.993L191.675,288.82L192.424,293.824L193.172,272.875L193.92,265.271L194.668,260.414L195.416,258.647L196.164,260.953L196.913,256.292L197.661,262.278L198.409,245.744L199.157,237.649L199.905,247.952L200.653,265.859L201.401,276.26L202.15,281.068L202.898,283.766L203.646,298.534L204.394,288.28L205.142,291.665L205.89,280.381L206.639,284.404L207.387,276.604L208.135,280.283L208.883,278.615L209.631,282.442L210.379,276.751L211.128,276.996L211.876,272.679L212.624,283.325L213.372,279.4L214.12,283.963L214.868,277.928L215.616,271.109L216.365,268.263L217.113,262.572L217.861,269.49L218.609,277.29L219.357,270.373L220.105,268.165L220.854,274.445L221.602,286.514L222.35,296.817L223.098,281.804L223.846,289.458L224.594,282.687L225.342,288.771L226.091,284.306L226.839,276.015L227.587,262.082L228.335,253.643L229.083,272.826L229.831,271.452L230.58,271.599L231.328,257.617L232.076,263.161L232.824,270.716L233.572,270.177L234.32,279.694L235.068,269.637L235.817,269.244L236.565,254.87L237.313,255.704L238.061,255.556L238.809,266.791L239.557,258.255L240.306,242.653L241.054,208.605L241.802,213.266L242.55,232.105L243.298,264.486L244.046,273.905L244.795,282.246L245.543,287.152L246.291,287.299L247.039,288.476L247.787,288.133L248.535,286.416L249.283,284.11L250.032,281.313L250.78,277.536L251.528,273.071L252.276,276.407L253.024,264.24L253.772,249.964L254.521,234.706L255.269,250.16L256.017,257.666L256.765,256.881L257.513,253.594L258.261,252.269L259.009,262.817L259.758,266.546L260.506,281.559L261.254,292.303L262.002,304.372L262.75,298.436L263.498,298.239L264.247,287.25L264.995,282.785L265.743,285.876L266.491,287.888L267.239,292.941L267.987,294.118L268.736,296.964L269.484,299.466L270.232,300.791L270.98,300.594L271.728,291.322L272.476,278.762L273.224,281.755L273.973,284.944L274.721,294.609L275.469,300.692L276.217,307.512L276.965,314.822L277.713,324.242L278.462,331.208L279.21,307.463L279.958,288.329L280.706,276.26L281.454,283.08L282.202,301.576L282.95,310.505L283.699,334.25L284.447,334.103L285.195,330.227L285.943,324.094L286.691,307.806L287.439,300.496L288.188,270.373L288.936,254.575L289.684,265.32L290.432,289.556L291.18,316.294L291.928,312.909L292.677,314.626L293.425,308.101L294.173,313.792L294.921,310.308L295.669,299.073L296.417,292.597L297.165,288.329L297.914,309.965L298.662,320.415L299.41,335.182L300.158,329.687L300.906,326.94L301.654,315.999L302.403,310.161L303.151,300.496L303.899,294.315L304.647,293.137L305.395,309.229L306.143,321.592L306.891,331.306L307.64,327.087L308.388,332.827L309.136,329.982L309.884,320.268L310.632,306.285L311.38,288.771L312.129,275.377L312.877,270.373L313.625,281.706L314.373,301.379L315.121,316.588L315.869,323.8L316.617,320.611L317.366,313.595L318.114,314.282L318.862,318.845L319.61,303.047L320.358,282.246L321.106,277.977L321.855,303.293L322.603,329.05L323.351,341.168L324.099,335.231L324.847,332.974L325.595,326.253L326.344,316.049L327.092,290.144L327.84,276.555L328.588,272.139L329.336,295.1L330.084,307.855L330.832,316.196L331.581,315.656L332.329,314.233L333.077,319.483L333.825,307.316L334.573,308.052L335.321,303.195L336.07,315.803L336.818,323.751L337.566,328.412L338.314,330.325L339.062,332.484L339.81,346.81L340.558,348.38L341.307,324.291L342.055,300.938L342.803,277.83L343.551,286.121L344.299,301.821L345.047,330.571L345.796,334.741L346.544,333.858L347.292,334.299L348.04,342.983L348.788,343.375L349.536,341.756L350.285,333.71L351.033,336.163L351.781,329.442L352.529,338.911L353.277,344.504L354.025,357.603L354.773,357.063L355.522,356.72L356.27,353.531L357.018,360.203L357.766,346.761L358.514,326.351L359.262,301.526L360.011,303.096L360.759,312.32L361.507,331.012L362.255,339.058L363.003,349.165L363.751,342.198L364.499,334.839L365.248,323.555L365.996,322.525L366.744,320.17L367.492,322.083L368.24,321.396L368.988,328.412L369.737,330.08L370.485,327.627L371.233,316.441L371.981,316.588L372.729,321.494L373.477,338.567L374.226,335.28L374.974,330.914L375.722,324.83L376.47,335.133L377.218,351.618L377.966,355.935L378.714,351.765L379.463,345.927L380.211,351.618L380.959,354.12L381.707,355.837L382.455,352.354L383.203,349.802L383.952,352.599L384.7,348.281L385.448,343.523L386.196,344.258L386.944,355.641L387.692,369.034L388.44,366.091L389.189,355.248L389.937,340.775L390.685,335.133L391.433,343.768L392.181,351.961L392.929,347.742L393.678,347.496L394.426,353.04L395.174,361.037L395.922,353.089L396.67,349.999L397.418,345.779L398.166,338.518L398.915,327.725L399.663,334.005L400.411,346.025L401.159,344.847L401.907,336.213L402.655,328.951L403.404,335.378L404.152,333.073L404.9,333.024L405.648,332.631L406.396,336.409L407.144,338.813L407.893,338.42L408.641,338.616L409.389,332.582L410.137,335.918L410.885,341.707L411.633,342.787L412.381,351.274L413.13,347.251L413.878,347.938L414.626,343.032L415.374,343.572L416.122,351.421L416.87,353.433L417.619,357.701L418.367,366.483L419.115,369.966L419.863,364.472L420.611,351.814L421.359,337.292L422.107,326.548L422.856,317.177L423.604,325.615L424.352,336.507L425.1,353.973L425.848,344.16L426.596,334.397L427.345,331.454L428.093,342.051L428.841,345.632L429.589,336.507L430.337,308.689L431.085,307.561L431.834,305.5L432.582,330.08L433.33,339.598L434.078,349.214L434.826,358.29L435.574,360.988L436.322,346.859L437.071,315.411L437.819,299.907L438.567,295.345L439.315,313.399L440.063,323.849L440.811,342.149L441.56,342.002L442.308,341.854L443.056,334.25L443.804,339.058L444.552,327.627L445.3,312.271L446.048,298.141L446.797,305.893L447.545,317.569L448.293,327.038L449.041,333.661L449.789,332.68L450.537,326.94L451.286,311.486L452.034,315.705L452.782,307.463L453.53,290.095L454.278,267.871L455.026,275.77L455.774,294.952L456.523,304.323L457.271,303.342L458.019,311.339L458.767,326.891L459.515,332.533L460.263,330.276L461.012,319.434L461.76,309.131L462.508,319.728L463.256,328.608L464.004,336.948L464.752,320.366L465.501,321.2L466.249,329.835L466.997,334.005L467.745,324.389L468.493,305.549L469.241,307.708L469.989,309.916L470.738,328.019L471.486,328.412L472.234,338.911L472.982,340.039L473.73,343.179L474.478,342.492L475.227,337.979L475.975,336.605L476.723,322.868L477.471,321.887L478.219,324.536L478.967,348.576L479.715,355.248L480.464,352.991L481.212,350.146L481.96,354.169L482.708,360.596L483.456,347.546L484.204,339.058L484.953,338.764L485.701,341.02L486.449,340.186L487.197,347.006L487.945,359.664L488.693,356.426L489.442,346.81L490.19,339.941L490.938,337.194L491.686,329.344L492.434,313.743L493.182,313.105L493.93,321.396L494.679,359.516L495.427,387.825L496.175,406.124L496.923,409.166L497.671,409.215L498.419,408.97L499.168,408.724L499.916,406.86L500.664,405.634L501.412,405.094L502.16,404.652L502.908,401.954L503.656,399.943L504.405,398.667L505.153,395.38L505.901,388.168L506.649,366.287L507.397,356.475L508.145,350.391L508.894,361.479L509.642,364.913L510.39,365.158L511.138,359.418L511.886,355.101L512.634,349.459L513.383,347.349L514.131,345.73L514.879,343.179L515.627,347.251L516.375,353.089L517.123,356.916L517.871,353.482L518.62,358.094L519.368,364.275L520.116,365.06L520.864,362.656L521.612,364.472L522.36,367.072L523.109,364.226L523.857,355.15L524.605,355.592L525.353,359.565L526.101,364.717L526.849,368.544L527.597,365.845L528.346,372.91L529.094,375.559L529.842,382.133L530.59,379.043L531.338,377.522L532.086,367.759L532.835,356.622L533.583,354.856L534.331,361.871L535.079,364.717L535.827,363.883L536.575,359.271L537.323,365.06L538.072,360.056L538.82,360.007L539.568,354.954L540.316,362.068L541.064,365.894L541.812,369.77L542.561,365.551L543.309,357.456L544.057,361.43L544.805,362.656L545.553,367.072L546.301,361.381L547.05,352.697L547.798,347.889L548.546,341.266L549.294,353.089L550.042,360.105L550.79,367.906L551.538,364.864L552.287,362.902L553.035,360.841L553.783,356.18L554.531,356.867L555.279,351.765L556.027,351.912L556.776,348.085L557.524,347.153L558.272,353.973L559.02,360.056L559.768,376.099L560.516,378.258L561.264,373.989L562.013,366.091L562.761,343.228L563.509,341.168L564.257,331.306L565.005,353.776L565.753,359.026L566.502,370.555L567.25,360.89L567.998,365.453L568.746,364.177L569.494,368.445L570.242,359.86L570.991,351.47L571.739,338.911L572.487,339.156L573.235,337.096L573.983,355.199L574.731,354.561L575.479,351.421L576.228,341.953L576.976,343.572L577.724,349.312L578.472,345.338L579.22,346.319L579.968,338.616L580.717,349.999L581.465,349.508L582.213,360.449L582.961,353.335L583.709,353.089L584.457,349.655L585.205,352.206L585.954,347.055L586.702,342.198L587.45,332.19L588.198,331.11L588.946,340.186L589.694,342.541L590.443,347.447L591.191,351.029L591.939,362.803L592.687,357.652L593.435,355.935L594.183,351.372L594.932,354.561L595.68,353.678L596.428,351.716L597.176,363.098L597.924,372.223L598.672,378.405L599.42,373.008L600.169,354.414L600.917,352.942L601.665,353.188L602.413,366.189L603.161,349.655L603.909,349.999L604.658,348.772L605.406,359.32L606.154,353.629L606.902,359.222L607.65,367.072L608.398,374.922L609.146,373.548L609.895,373.989L610.643,368.298L611.391,353.825L612.139,349.312L612.887,351.372L613.635,354.757L614.384,356.573L615.132,352.206L615.88,362.951L616.628,367.023L617.376,374.48L618.124,370.849L618.872,365.355L619.621,366.974L620.369,372.468L621.117,378.994L621.865,375.952L622.613,373.695L623.361,369.819L624.11,363.638L624.858,358.192L625.606,363.638L626.354,370.015L627.102,370.997L627.85,365.698L628.599,366.777L629.347,366.826L630.095,366.14L630.843,363.098L631.591,365.306L632.339,365.502L633.087,361.086L633.836,352.844L634.584,336.507L635.332,333.612L636.08,335.722L636.828,353.433L637.576,359.32L638.325,361.135L639.073,362.068L639.821,365.6L640.569,372.125L641.317,372.174L642.065,367.759L642.813,364.717L643.562,355.493L644.31,354.169L645.058,344.013L645.806,342.051L646.554,333.024L647.302,333.612L648.051,335.673L648.799,334.888L649.547,332.435L650.295,341.07L651.043,348.723L651.791,343.228L652.54,339.892L653.288,342.639L654.036,354.463L654.784,356.867L655.532,365.06L656.28,341.511L657.028,317.373L657.777,285.925L658.525,289.408L659.273,294.805L660.021,309.572L660.769,313.497L661.517,307.365L662.266,307.168L663.014,321.985L663.762,333.907L664.51,332.582L665.258,327.038L666.006,323.26L666.754,328.167L667.503,344.013L668.251,352.255L668.999,359.86L669.747,358.633L670.495,363.588L671.243,359.32L671.992,352.893L672.74,346.761L673.488,339.598L674.236,341.119L674.984,346.662L675.732,354.463L676.481,358.535L677.229,367.464L677.977,376.786L678.725,382.918L679.473,381.986L680.221,376.442L680.969,376.099L681.718,372.518L682.466,375.756L683.214,373.253L683.962,377.767L684.71,374.872L685.458,376.148L686.207,367.611L686.955,366.925L687.703,362.46L688.451,369.868L689.199,366.385L689.947,363.588L690.695,359.418L691.444,364.521L692.192,367.611L692.94,372.419L693.688,372.076L694.436,378.65L695.184,379.582L695.933,381.005L696.681,380.024L697.429,374.087L698.177,372.125L698.925,370.064L699.673,374.774L700.421,374.333L701.17,373.695L701.918,369.77L702.666,373.401L703.414,368.004L704.162,359.958L704.91,347.546L705.659,333.907L706.407,343.719L707.155,350.685L707.903,365.6L708.651,369.083L709.399,367.66L710.148,367.072L710.896,360.399L711.644,355.297L712.392,333.416L713.14,333.024L713.888,343.67L714.636,358.339L715.385,361.086L716.133,364.422L716.881,372.37L717.629,373.401L718.377,370.751L719.125,368.249L719.874,360.645L720.622,350.685L721.37,340.088L722.118,349.704L722.866,360.203L723.614,375.02L724.362,373.744L725.111,376.541L725.859,382.133L726.607,382.084L727.355,382.771L728.103,379.435L728.851,381.348L729.6,379.779L730.348,381.692L731.096,386.255L731.844,384.537L732.592,380.318L733.34,374.48L734.089,375.216L734.837,370.997L735.585,368.396L736.333,364.275L737.081,363.49L737.829,372.468L738.577,378.405L739.326,384.881L740.074,382.869L740.822,382.084L741.57,384.734L742.318,385.813L743.066,386.058L743.815,377.718L744.563,372.763L745.311,376.295L746.059,389.689L746.807,394.006L747.555,387.825L748.303,382.869L749.052,374.872L749.8,377.178L750.548,370.702L751.296,362.803L752.044,353.923L752.792,345.142L753.541,350.146L754.289,355.542L755.037,369.77L755.785,376.982L756.533,375.854L757.281,377.031L758.03,379.386L758.778,377.276L759.526,372.468L760.274,365.011L761.022,371.34L761.77,371.291L762.518,381.201L763.267,382.379L764.015,382.624L764.763,379.386L765.511,377.227L766.259,380.956L767.007,376.688L767.756,373.744L768.504,371.144L769.252,376.737L770,378.16"></path></g></svg> 
 
