<?xml version="1.0"?>
<svg xmlns="http://www.w3.org/2000/svg" xmlns:xlink="http://www.w3.org/1999/xlink" class="plot-d6a7b5" fill="currentColor" font-family="system-ui, sans-serif" font-size="10" text-anchor="middle" width="830" height="470" viewBox="0 0 830 470" color="#1e90ff">
  <style>:where(.plot-d6a7b5){--plot-background: white;display:block;height:intrinsic;max-width:100%}:where(.plot-d6a7b5 text),:where(.plot-d6a7b5 tspan){white-space:pre}</style>
  <g aria-label="y-grid" aria-hidden="true" stroke="currentColor" stroke-opacity=".1">
    <line x1="60" x2="770" y1="410" y2="410"/>
    <line x1="60" x2="770" y1="378.557" y2="378.557"/>
    <line x1="60" x2="770" y1="347.114" y2="347.114"/>
    <line x1="60" x2="770" y1="315.671" y2="315.671"/>
    <line x1="60" x2="770" y1="284.227" y2="284.227"/>
    <line x1="60" x2="770" y1="252.784" y2="252.784"/>
    <line x1="60" x2="770" y1="221.341" y2="221.341"/>
    <line x1="60" x2="770" y1="189.898" y2="189.898"/>
    <line x1="60" x2="770" y1="158.455" y2="158.455"/>
    <line x1="60" x2="770" y1="127.012" y2="127.012"/>
    <line x1="60" x2="770" y1="95.568" y2="95.568"/>
    <line x1="60" x2="770" y1="64.125" y2="64.125"/>
  </g>
  <g aria-label="y-axis tick" aria-hidden="true" fill="none" stroke="currentColor">
    <path transform="translate(60,410)" d="M0,0L-6,0"/>
    <path transform="translate(60,378.55684921661634)" d="M0,0L-6,0"/>
    <path transform="translate(60,347.11369843323274)" d="M0,0L-6,0"/>
    <path transform="translate(60,315.6705476498491)" d="M0,0L-6,0"/>
    <path transform="translate(60,284.2273968664655)" d="M0,0L-6,0"/>
    <path transform="translate(60,252.7842460830818)" d="M0,0L-6,0"/>
    <path transform="translate(60,221.34109529969817)" d="M0,0L-6,0"/>
    <path transform="translate(60,189.8979445163145)" d="M0,0L-6,0"/>
    <path transform="translate(60,158.45479373293085)" d="M0,0L-6,0"/>
    <path transform="translate(60,127.01164294954722)" d="M0,0L-6,0"/>
    <path transform="translate(60,95.56849216616357)" d="M0,0L-6,0"/>
    <path transform="translate(60,64.12534138277994)" d="M0,0L-6,0"/>
  </g>
  <g aria-label="y-axis tick label" text-anchor="end" font-variant="tabular-nums">
    <text y=".32em" transform="translate(-9,0) translate(60,410)">0</text>
    <text y=".32em" transform="translate(-9,0) translate(60,378.55684921661634)">5,000</text>
    <text y=".32em" transform="translate(-9,0) translate(60,347.11369843323274)">10,000</text>
    <text y=".32em" transform="translate(-9,0) translate(60,315.6705476498491)">15,000</text>
    <text y=".32em" transform="translate(-9,0) translate(60,284.2273968664655)">20,000</text>
    <text y=".32em" transform="translate(-9,0) translate(60,252.7842460830818)">25,000</text>
    <text y=".32em" transform="translate(-9,0) translate(60,221.34109529969817)">30,000</text>
    <text y=".32em" transform="translate(-9,0) translate(60,189.8979445163145)">35,000</text>
    <text y=".32em" transform="translate(-9,0) translate(60,158.45479373293085)">40,000</text>
    <text y=".32em" transform="translate(-9,0) translate(60,127.01164294954722)">45,000</text>
    <text y=".32em" transform="translate(-9,0) translate(60,95.56849216616357)">50,000</text>
    <text y=".32em" transform="translate(-9,0) translate(60,64.12534138277994)">55,000</text>
  </g>
  <g aria-label="y-axis label" text-anchor="start">
    <text y=".71em" transform="translate(-57,-57) translate(60,60)">&#x2191; Visible Vestiges (30 days)</text>
  </g>
  <g aria-label="x-axis tick" aria-hidden="true" fill="none" stroke="currentColor">
    <path transform="translate(85.99425699928213,410)" d="M0,0L0,6"/>
    <path transform="translate(155.56712132089018,410)" d="M0,0L0,6"/>
    <path transform="translate(225.90452261306532,410)" d="M0,0L0,6"/>
    <path transform="translate(296.24192390524047,410)" d="M0,0L0,6"/>
    <path transform="translate(365.8147882268486,410)" d="M0,0L0,6"/>
    <path transform="translate(435.3876525484565,410)" d="M0,0L0,6"/>
    <path transform="translate(505.7250538406317,410)" d="M0,0L0,6"/>
    <path transform="translate(576.0624551328069,410)" d="M0,0L0,6"/>
    <path transform="translate(644.8707824838478,410)" d="M0,0L0,6"/>
    <path transform="translate(714.4436468054558,410)" d="M0,0L0,6"/>
  </g>
  <g aria-label="x-axis tick label" font-variant="tabular-nums">
    <text transform="translate(0,9) translate(85.99425699928213,410)">
      <tspan x="0" y=".71em">Apr</tspan>
      <tspan x="0" dy="1em">2023</tspan>
    </text>
    <text y=".71em" transform="translate(0,9) translate(155.56712132089018,410)">Jul</text>
    <text y=".71em" transform="translate(0,9) translate(225.90452261306532,410)">Oct</text>
    <text transform="translate(0,9) translate(296.24192390524047,410)">
      <tspan x="0" y=".71em">Jan</tspan>
      <tspan x="0" dy="1em">2024</tspan>
    </text>
    <text y=".71em" transform="translate(0,9) translate(365.8147882268486,410)">Apr</text>
    <text y=".71em" transform="translate(0,9) translate(435.3876525484565,410)">Jul</text>
    <text y=".71em" transform="translate(0,9) translate(505.7250538406317,410)">Oct</text>
    <text transform="translate(0,9) translate(576.0624551328069,410)">
      <tspan x="0" y=".71em">Jan</tspan>
      <tspan x="0" dy="1em">2025</tspan>
    </text>
    <text y=".71em" transform="translate(0,9) translate(644.8707824838478,410)">Apr</text>
    <text y=".71em" transform="translate(0,9) translate(714.4436468054558,410)">Jul</text>
  </g>
  <g aria-label="line" fill="none" stroke="currentColor" stroke-width="1.5" stroke-linejoin="round" stroke-linecap="round">
    <path d="M60,
410.00L
60.51,
406.84L
61.02,
395.30L
61.53,
389.07L
62.04,
384.66L
62.55,
377.38L
63.06,
371.64L
63.57,
366.26L
64.08,
355.38L
64.59,
346.77L
65.10,
336.56L
65.61,
320.73L
66.12,
305.80L
66.63,
298.06L
67.14,
286.84L
67.65,
279.23L
68.16,
270.50L
68.67,
259.08L
69.17,
251.40L
69.68,
243.87L
70.19,
233.64L
70.70,
222.30L
71.21,
214.27L
71.72,
200.57L
72.23,
194.08L
72.74,
188.02L
73.25,
177.10L
73.76,
166.64L
74.27,
158.59L
74.78,
147.37L
75.29,
139.34L
75.80,
140.70L
76.31,
131.14L
76.82,
123.03L
77.33,
123.05L
77.84,
121.23L
78.35,
120.91L
78.86,
127.19L
79.37,
127.28L
79.88,
129.16L
80.39,
139.17L
80.90,
140.64L
81.41,
134.32L
81.92,
132.94L
82.43,
125.28L
82.94,
123.66L
83.45,
126.26L
83.96,
121.93L
84.47,
119.42L
84.98,
122.36L
85.49,
120.60L
85.99,
115.96L
86.50,
117.84L
87.01,
107.38L
87.52,
97.34L
88.03,
99.90L
88.54,
97.93L
89.05,
94.78L
89.56,
95.95L
90.07,
92.92L
90.58,
89.75L
91.09,
93.94L
91.60,
92.52L
92.11,
86.41L
92.62,
82.45L
93.13,
72.65L
93.64,
67.72L
94.15,
67.65L
94.66,
64.00L
95.17,
60.00L
95.68,
66.11L
96.19,
70.72L
96.70,
73.11L
97.21,
78.87L
97.72,
76.73L
98.23,
73.18L
98.74,
78.14L
99.25,
78.41L
99.76,
78.04L
100.27,
86.12L
100.78,
91.02L
101.29,
95.10L
101.80,
103.83L
102.30,
109.28L
102.81,
106.83L
103.32,
110.81L
103.83,
110.32L
104.34,
112.15L
104.85,
121.00L
105.36,
122.04L
105.87,
125.13L
106.38,
134.46L
106.89,
140.12L
107.40,
144.19L
107.91,
151.93L
108.42,
150.82L
108.93,
150.16L
109.44,
154.18L
109.95,
157.07L
110.46,
158.25L
110.97,
161.82L
111.48,
162.37L
111.99,
166.39L
112.50,
173.28L
113.01,
176.57L
113.52,
173.33L
114.03,
175.05L
114.54,
172.32L
115.05,
170.35L
115.56,
171.63L
116.07,
169.96L
116.58,
171.74L
117.09,
176.25L
117.60,
178.87L
118.11,
180.92L
118.62,
184.88L
119.12,
184.90L
119.63,
182.82L
120.14,
188.98L
120.65,
191.04L
121.16,
190.01L
121.67,
192.41L
122.18,
192.36L
122.69,
194.41L
123.20,
199.92L
123.71,
200.70L
124.22,
197.65L
124.73,
196.55L
125.24,
192.24L
125.75,
191.87L
126.26,
194.35L
126.77,
192.45L
127.28,
191.27L
127.79,
195.59L
128.30,
196.45L
128.81,
197.12L
129.32,
199.71L
129.83,
195.41L
130.34,
193.60L
130.85,
195.74L
131.36,
194.75L
131.87,
192.78L
132.38,
194.69L
132.89,
194.95L
133.40,
194.56L
133.91,
197.96L
134.42,
199.04L
134.93,
199.46L
135.43,
200.52L
135.94,
198.56L
136.45,
198.38L
136.96,
200.14L
137.47,
198.17L
137.98,
197.83L
138.49,
201.25L
139.00,
206.79L
139.51,
208.37L
140.02,
212.77L
140.53,
212.70L
141.04,
213.02L
141.55,
215.04L
142.06,
215.22L
142.57,
214.43L
143.08,
218.35L
143.59,
218.11L
144.10,
219.53L
144.61,
225.81L
145.12,
227.53L
145.63,
228.54L
146.14,
231.43L
146.65,
231.76L
147.16,
232.10L
147.67,
232.13L
148.18,
233.45L
148.69,
232.46L
149.20,
235.38L
149.71,
234.82L
150.22,
235.07L
150.73,
236.55L
151.24,
234.76L
151.74,
234.71L
152.25,
236.03L
152.76,
234.52L
153.27,
233.21L
153.78,
233.11L
154.29,
230.45L
154.80,
229.11L
155.31,
231.18L
155.82,
231.23L
156.33,
230.54L
156.84,
233.48L
157.35,
232.56L
157.86,
233.89L
158.37,
236.57L
158.88,
236.90L
159.39,
236.30L
159.90,
238.44L
160.41,
237.67L
160.92,
237.05L
161.43,
240.17L
161.94,
239.57L
162.45,
239.81L
162.96,
241.97L
163.47,
240.67L
163.98,
239.59L
164.49,
240.77L
165.00,
239.40L
165.51,
240.24L
166.02,
241.52L
166.53,
240.41L
167.04,
240.74L
167.55,
242.61L
168.06,
243.10L
168.56,
241.78L
169.07,
245.48L
169.58,
247.82L
170.09,
246.72L
170.60,
249.45L
171.11,
248.53L
171.62,
247.80L
172.13,
249.31L
172.64,
247.28L
173.15,
247.29L
173.66,
247.31L
174.17,
244.93L
174.68,
243.35L
175.19,
246.82L
175.70,
243.80L
176.21,
242.45L
176.72,
243.64L
177.23,
242.06L
177.74,
241.64L
178.25,
243.32L
178.76,
241.59L
179.27,
240.39L
179.78,
241.43L
180.29,
238.64L
180.80,
238.42L
181.31,
239.81L
181.82,
239.18L
182.33,
236.98L
182.84,
235.37L
183.35,
231.26L
183.86,
229.94L
184.37,
229.94L
184.87,
228.44L
185.38,
227.00L
185.89,
229.99L
186.40,
228.14L
186.91,
227.59L
187.42,
229.96L
187.93,
228.63L
188.44,
228.93L
188.95,
232.78L
189.46,
232.18L
189.97,
229.53L
190.48,
232.99L
190.99,
232.79L
191.50,
230.38L
192.01,
231.30L
192.52,
228.18L
193.03,
227.81L
193.54,
228.47L
194.05,
226.54L
194.56,
225.81L
195.07,
228.14L
195.58,
227.45L
196.09,
227.22L
196.60,
230.03L
197.11,
231.82L
197.62,
235.13L
198.13,
241.55L
198.64,
242.71L
199.15,
242.19L
199.66,
243.89L
200.17,
244.24L
200.68,
242.92L
201.18,
244.63L
201.69,
245.12L
202.20,
244.01L
202.71,
246.09L
203.22,
246.96L
203.73,
246.12L
204.24,
247.37L
204.75,
247.12L
205.26,
247.23L
205.77,
248.46L
206.28,
251.01L
206.79,
253.73L
207.30,
257.80L
207.81,
259.30L
208.32,
262.27L
208.83,
267.32L
209.34,
266.20L
209.85,
266.89L
210.36,
269.05L
210.87,
268.32L
211.38,
269.46L
211.89,
271.38L
212.40,
272.15L
212.91,
274.03L
213.42,
275.48L
213.93,
276.88L
214.44,
277.23L
214.95,
277.35L
215.46,
274.63L
215.97,
272.32L
216.48,
273.66L
216.99,
273.68L
217.50,
274.47L
218.00,
275.22L
218.51,
275.48L
219.02,
276.62L
219.53,
279.71L
220.04,
279.14L
220.55,
278.44L
221.06,
279.45L
221.57,
277.56L
222.08,
278.75L
222.59,
280.17L
223.10,
278.96L
223.61,
278.56L
224.12,
282.66L
224.63,
282.50L
225.14,
282.90L
225.65,
284.89L
226.16,
281.57L
226.67,
280.67L
227.18,
281.69L
227.69,
279.97L
228.20,
280.81L
228.71,
282.07L
229.22,
283.18L
229.73,
284.59L
230.24,
288.47L
230.75,
289.81L
231.26,
287.60L
231.77,
286.65L
232.28,
283.92L
232.79,
283.60L
233.30,
284.95L
233.81,
285.01L
234.31,
284.88L
234.82,
286.27L
235.33,
286.87L
235.84,
287.66L
236.35,
290.18L
236.86,
285.98L
237.37,
282.77L
237.88,
282.85L
238.39,
282.60L
238.90,
283.04L
239.41,
286.08L
239.92,
285.81L
240.43,
287.20L
240.94,
290.17L
241.45,
288.75L
241.96,
284.76L
242.47,
284.40L
242.98,
281.17L
243.49,
280.65L
244.00,
281.20L
244.51,
279.40L
245.02,
280.06L
245.53,
282.21L
246.04,
283.33L
246.55,
284.16L
247.06,
287.05L
247.57,
286.09L
248.08,
286.01L
248.59,
287.96L
249.10,
286.68L
249.61,
287.25L
250.12,
290.38L
250.63,
290.85L
251.13,
291.04L
251.64,
293.11L
252.15,
293.25L
252.66,
291.02L
253.17,
290.91L
253.68,
289.76L
254.19,
289.66L
254.70,
290.84L
255.21,
289.87L
255.72,
290.69L
256.23,
294.30L
256.74,
296.69L
257.25,
299.05L
257.76,
302.19L
258.27,
301.96L
258.78,
301.82L
259.29,
305.10L
259.80,
305.65L
260.31,
307.38L
260.82,
309.92L
261.33,
311.99L
261.84,
313.21L
262.35,
317.22L
262.86,
315.95L
263.37,
313.54L
263.88,
313.78L
264.39,
312.46L
264.90,
310.95L
265.41,
311.75L
265.92,
311.27L
266.43,
314.14L
266.94,
317.04L
267.44,
318.58L
267.95,
318.94L
268.46,
319.70L
268.97,
317.24L
269.48,
317.32L
269.99,
318.10L
270.50,
316.49L
271.01,
315.66L
271.52,
316.08L
272.03,
313.24L
272.54,
313.47L
273.05,
314.20L
273.56,
314.41L
274.07,
313.00L
274.58,
312.46L
275.09,
310.21L
275.60,
310.19L
276.11,
311.80L
276.62,
310.52L
277.13,
309.11L
277.64,
311.70L
278.15,
313.76L
278.66,
315.85L
279.17,
318.46L
279.68,
318.89L
280.19,
318.26L
280.70,
320.19L
281.21,
318.78L
281.72,
318.43L
282.23,
321.40L
282.74,
322.89L
283.25,
324.39L
283.75,
327.29L
284.26,
327.14L
284.77,
326.88L
285.28,
328.15L
285.79,
328.90L
286.30,
330.00L
286.81,
332.16L
287.32,
332.86L
287.83,
334.04L
288.34,
335.04L
288.85,
335.14L
289.36,
336.49L
289.87,
337.73L
290.38,
335.57L
290.89,
333.42L
291.40,
334.91L
291.91,
334.84L
292.42,
333.29L
292.93,
332.94L
293.44,
331.61L
293.95,
330.66L
294.46,
330.47L
294.97,
329.46L
295.48,
328.10L
295.99,
328.95L
296.50,
328.86L
297.01,
327.36L
297.52,
326.76L
298.03,
324.19L
298.54,
323.49L
299.05,
325.03L
299.56,
324.44L
300.07,
325.56L
300.57,
325.48L
301.08,
323.93L
301.59,
324.95L
302.10,
324.97L
302.61,
323.72L
303.12,
323.98L
303.63,
325.56L
304.14,
325.83L
304.65,
327.08L
305.16,
328.89L
305.67,
328.92L
306.18,
327.50L
306.69,
326.39L
307.20,
325.37L
307.71,
326.14L
308.22,
327.36L
308.73,
327.76L
309.24,
327.56L
309.75,
327.54L
310.26,
327.61L
310.77,
328.29L
311.28,
328.41L
311.79,
327.36L
312.30,
324.45L
312.81,
325.20L
313.32,
323.46L
313.83,
322.96L
314.34,
324.80L
314.85,
323.20L
315.36,
324.37L
315.87,
326.47L
316.38,
323.69L
316.88,
320.76L
317.39,
319.87L
317.90,
316.24L
318.41,
315.09L
318.92,
314.40L
319.43,
312.68L
319.94,
312.21L
320.45,
313.12L
320.96,
312.29L
321.47,
313.81L
321.98,
314.46L
322.49,
310.58L
323.00,
308.89L
323.51,
308.30L
324.02,
307.17L
324.53,
307.95L
325.04,
308.58L
325.55,
305.97L
326.06,
305.55L
326.57,
305.38L
327.08,
306.87L
327.59,
305.54L
328.10,
303.40L
328.61,
298.89L
329.12,
297.36L
329.63,
296.45L
330.14,
291.98L
330.65,
289.97L
331.16,
291.89L
331.67,
293.45L
332.18,
294.15L
332.69,
296.37L
333.20,
294.22L
333.70,
292.26L
334.21,
293.50L
334.72,
292.50L
335.23,
291.64L
335.74,
291.72L
336.25,
290.21L
336.76,
291.92L
337.27,
294.50L
337.78,
293.58L
338.29,
291.87L
338.80,
293.24L
339.31,
291.38L
339.82,
291.15L
340.33,
292.69L
340.84,
292.92L
341.35,
294.81L
341.86,
296.21L
342.37,
297.41L
342.88,
300.95L
343.39,
305.02L
343.90,
303.45L
344.41,
304.40L
344.92,
307.62L
345.43,
309.24L
345.94,
310.03L
346.45,
310.96L
346.96,
311.50L
347.47,
313.09L
347.98,
316.24L
348.49,
316.43L
349.00,
315.57L
349.51,
317.54L
350.01,
316.95L
350.52,
318.11L
351.03,
320.85L
351.54,
320.77L
352.05,
320.98L
352.56,
323.72L
353.07,
325.18L
353.58,
324.76L
354.09,
326.21L
354.60,
323.35L
355.11,
322.80L
355.62,
323.96L
356.13,
325.85L
356.64,
328.53L
357.15,
332.12L
357.66,
334.97L
358.17,
337.83L
358.68,
343.16L
359.19,
346.10L
359.70,
348.38L
360.21,
350.47L
360.72,
352.49L
361.23,
355.01L
361.74,
357.11L
362.25,
358.36L
362.76,
359.89L
363.27,
363.24L
363.78,
364.65L
364.29,
363.41L
364.80,
365.23L
365.31,
365.96L
365.82,
365.27L
366.32,
365.90L
366.83,
367.08L
367.34,
366.89L
367.85,
367.84L
368.36,
368.65L
368.87,
369.19L
369.38,
371.94L
369.89,
372.51L
370.40,
372.51L
370.91,
371.12L
371.42,
368.55L
371.93,
365.76L
372.44,
364.57L
372.95,
362.79L
373.46,
360.13L
373.97,
358.67L
374.48,
357.35L
374.99,
355.19L
375.50,
353.43L
376.01,
351.01L
376.52,
349.25L
377.03,
348.25L
377.54,
346.66L
378.05,
345.81L
378.56,
345.39L
379.07,
347.50L
379.58,
348.25L
380.09,
349.46L
380.60,
349.76L
381.11,
349.87L
381.62,
349.79L
382.13,
349.40L
382.64,
349.84L
383.14,
351.38L
383.65,
351.62L
384.16,
352.16L
384.67,
353.45L
385.18,
353.91L
385.69,
353.06L
386.20,
353.84L
386.71,
354.09L
387.22,
353.57L
387.73,
354.05L
388.24,
354.70L
388.75,
353.94L
389.26,
353.15L
389.77,
353.98L
390.28,
353.74L
390.79,
354.68L
391.30,
354.72L
391.81,
352.86L
392.32,
352.52L
392.83,
351.22L
393.34,
351.22L
393.85,
350.88L
394.36,
350.24L
394.87,
349.01L
395.38,
348.81L
395.89,
348.10L
396.40,
347.52L
396.91,
348.84L
397.42,
347.71L
397.93,
346.25L
398.44,
346.71L
398.95,
345.56L
399.45,
345.57L
399.96,
346.07L
400.47,
347.62L
400.98,
347.91L
401.49,
348.51L
402.00,
348.13L
402.51,
345.00L
403.02,
344.84L
403.53,
343.74L
404.04,
344.53L
404.55,
344.54L
405.06,
344.76L
405.57,
343.74L
406.08,
345.06L
406.59,
346.23L
407.10,
346.37L
407.61,
347.44L
408.12,
346.02L
408.63,
343.66L
409.14,
343.76L
409.65,
342.46L
410.16,
342.67L
410.67,
342.95L
411.18,
341.85L
411.69,
340.76L
412.20,
341.90L
412.71,
341.52L
413.22,
340.40L
413.73,
341.79L
414.24,
339.55L
414.75,
339.12L
415.26,
338.39L
415.77,
337.27L
416.27,
336.47L
416.78,
336.72L
417.29,
338.09L
417.80,
337.88L
418.31,
338.74L
418.82,
336.61L
419.33,
334.44L
419.84,
333.68L
420.35,
333.95L
420.86,
331.51L
421.37,
331.54L
421.88,
331.72L
422.39,
331.88L
422.90,
332.33L
423.41,
333.90L
423.92,
333.45L
424.43,
334.57L
424.94,
333.71L
425.45,
333.08L
425.96,
336.07L
426.47,
337.59L
426.98,
337.55L
427.49,
339.10L
428.00,
338.75L
428.51,
338.40L
429.02,
340.97L
429.53,
340.83L
430.04,
338.42L
430.55,
339.63L
431.06,
340.24L
431.57,
339.22L
432.08,
340.14L
432.58,
341.14L
433.09,
341.78L
433.60,
344.33L
434.11,
346.44L
434.62,
347.28L
435.13,
347.94L
435.64,
347.89L
436.15,
347.52L
436.66,
347.98L
437.17,
346.86L
437.68,
347.38L
438.19,
347.50L
438.70,
348.34L
439.21,
348.98L
439.72,
350.17L
440.23,
350.79L
440.74,
349.26L
441.25,
349.50L
441.76,
350.03L
442.27,
350.03L
442.78,
352.26L
443.29,
352.69L
443.80,
352.16L
444.31,
351.93L
444.82,
353.79L
445.33,
353.91L
445.84,
354.65L
446.35,
355.28L
446.86,
355.46L
447.37,
355.62L
447.88,
355.25L
448.39,
354.33L
448.89,
354.28L
449.40,
354.14L
449.91,
353.98L
450.42,
355.21L
450.93,
354.59L
451.44,
352.07L
451.95,
352.50L
452.46,
351.92L
452.97,
352.23L
453.48,
352.04L
453.99,
351.16L
454.50,
350.64L
455.01,
351.37L
455.52,
352.03L
456.03,
351.30L
456.54,
350.76L
457.05,
350.20L
457.56,
348.68L
458.07,
348.26L
458.58,
346.89L
459.09,
345.91L
459.60,
345.03L
460.11,
343.05L
460.62,
341.51L
461.13,
340.40L
461.64,
338.78L
462.15,
338.22L
462.66,
338.08L
463.17,
335.84L
463.68,
335.24L
464.19,
335.18L
464.70,
334.43L
465.21,
334.70L
465.71,
336.74L
466.22,
335.07L
466.73,
332.62L
467.24,
330.36L
467.75,
326.86L
468.26,
324.35L
468.77,
323.75L
469.28,
320.64L
469.79,
316.88L
470.30,
315.43L
470.81,
314.21L
471.32,
312.55L
471.83,
311.31L
472.34,
310.56L
472.85,
308.58L
473.36,
309.27L
473.87,
310.81L
474.38,
311.05L
474.89,
312.64L
475.40,
313.75L
475.91,
314.73L
476.42,
316.09L
476.93,
315.27L
477.44,
314.48L
477.95,
315.62L
478.46,
315.43L
478.97,
314.99L
479.48,
315.62L
479.99,
315.64L
480.50,
315.30L
481.01,
320.14L
481.52,
324.04L
482.02,
327.61L
482.53,
331.30L
483.04,
334.46L
483.55,
335.68L
484.06,
339.28L
484.57,
342.91L
485.08,
344.73L
485.59,
346.06L
486.10,
348.32L
486.61,
349.22L
487.12,
351.17L
487.63,
353.35L
488.14,
354.57L
488.65,
354.04L
489.16,
354.80L
489.67,
354.51L
490.18,
354.79L
490.69,
355.31L
491.20,
356.19L
491.71,
357.25L
492.22,
359.40L
492.73,
361.31L
493.24,
362.36L
493.75,
363.68L
494.26,
363.83L
494.77,
364.11L
495.28,
364.01L
495.79,
363.57L
496.30,
363.01L
496.81,
362.95L
497.32,
362.72L
497.83,
362.66L
498.34,
362.37L
498.84,
360.69L
499.35,
359.36L
499.86,
356.75L
500.37,
356.70L
500.88,
356.10L
501.39,
356.49L
501.90,
356.97L
502.41,
356.77L
502.92,
356.13L
503.43,
356.21L
503.94,
355.70L
504.45,
352.80L
504.96,
352.17L
505.47,
352.64L
505.98,
350.99L
506.49,
350.76L
507.00,
350.81L
507.51,
350.07L
508.02,
349.79L
508.53,
349.62L
509.04,
349.32L
509.55,
348.32L
510.06,
347.14L
510.57,
344.88L
511.08,
345.16L
511.59,
345.41L
512.10,
345.55L
512.61,
345.20L
513.12,
346.50L
513.63,
348.39L
514.14,
349.63L
514.65,
352.77L
515.15,
352.97L
515.66,
353.56L
516.17,
354.59L
516.68,
354.59L
517.19,
355.94L
517.70,
356.82L
518.21,
357.14L
518.72,
358.40L
519.23,
362.18L
519.74,
362.01L
520.25,
361.57L
520.76,
362.94L
521.27,
362.31L
521.78,
362.60L
522.29,
363.72L
522.80,
363.79L
523.31,
364.16L
523.82,
365.49L
524.33,
366.87L
524.84,
368.66L
525.35,
371.38L
525.86,
370.46L
526.37,
370.27L
526.88,
371.55L
527.39,
372.51L
527.90,
372.51L
528.41,
372.28L
528.92,
372.61L
529.43,
371.50L
529.93,
371.99L
530.45,
371.24L
530.96,
369.32L
531.46,
368.43L
531.97,
365.97L
532.48,
364.91L
532.99,
365.25L
533.50,
365.37L
534.01,
365.14L
534.52,
365.87L
535.03,
366.48L
535.54,
367.07L
536.05,
367.64L
536.56,
366.48L
537.07,
365.36L
537.58,
365.90L
538.09,
364.99L
538.60,
365.24L
539.11,
365.60L
539.62,
364.58L
540.13,
364.39L
540.64,
365.54L
541.15,
365.63L
541.66,
364.44L
542.17,
363.50L
542.68,
362.70L
543.19,
363.02L
543.70,
362.89L
544.21,
363.18L
544.72,
362.75L
545.23,
363.50L
545.74,
364.60L
546.25,
365.49L
546.76,
367.24L
547.27,
367.27L
547.78,
366.48L
548.28,
366.99L
548.79,
367.09L
549.30,
367.24L
549.81,
367.54L
550.32,
367.30L
550.83,
368.16L
551.34,
369.47L
551.85,
370.22L
552.36,
370.65L
552.87,
372.18L
553.38,
372.06L
553.89,
371.77L
554.40,
372.98L
554.91,
373.45L
555.42,
373.31L
555.93,
372.57L
556.44,
372.92L
556.95,
372.55L
557.46,
373.49L
557.97,
373.39L
558.48,
373.93L
558.99,
374.39L
559.50,
374.66L
560.01,
375.39L
560.52,
376.38L
561.03,
376.20L
561.54,
376.54L
562.05,
377.75L
562.56,
378.07L
563.07,
377.06L
563.58,
377.33L
564.09,
376.97L
564.59,
376.92L
565.10,
376.42L
565.61,
376.09L
566.12,
375.98L
566.63,
376.45L
567.14,
375.74L
567.65,
374.99L
568.16,
374.63L
568.67,
373.63L
569.18,
373.60L
569.69,
372.67L
570.20,
372.67L
570.71,
373.70L
571.22,
374.22L
571.73,
375.12L
572.24,
375.09L
572.75,
375.17L
573.26,
374.92L
573.77,
374.36L
574.28,
374.08L
574.79,
371.68L
575.30,
370.38L
575.81,
370.10L
576.32,
369.18L
576.83,
368.70L
577.34,
369.20L
577.85,
368.65L
578.36,
367.12L
578.87,
367.60L
579.38,
366.29L
579.89,
366.71L
580.40,
367.22L
580.91,
366.29L
581.41,
366.00L
581.92,
366.16L
582.43,
366.42L
582.94,
365.90L
583.45,
367.05L
583.96,
366.46L
584.47,
366.89L
584.98,
366.80L
585.49,
366.87L
586.00,
366.56L
586.51,
366.59L
587.02,
366.22L
587.53,
365.57L
588.04,
365.44L
588.55,
365.04L
589.06,
365.18L
589.57,
366.84L
590.08,
367.30L
590.59,
367.39L
591.10,
367.67L
591.61,
367.30L
592.12,
367.39L
592.63,
369.04L
593.14,
369.90L
593.65,
369.83L
594.16,
370.86L
594.67,
370.61L
595.18,
369.60L
595.69,
368.56L
596.20,
366.32L
596.71,
365.12L
597.22,
364.65L
597.72,
364.97L
598.23,
364.92L
598.74,
364.91L
599.25,
364.32L
599.76,
364.60L
600.27,
364.70L
600.78,
363.47L
601.29,
362.42L
601.80,
362.53L
602.31,
362.40L
602.82,
362.12L
603.33,
362.87L
603.84,
362.67L
604.35,
362.02L
604.86,
361.34L
605.37,
361.43L
605.88,
361.65L
606.39,
362.51L
606.90,
362.55L
607.41,
362.21L
607.92,
363.37L
608.43,
362.58L
608.94,
362.89L
609.45,
362.99L
609.96,
362.87L
610.47,
363.87L
610.98,
364.90L
611.49,
365.12L
612.00,
364.90L
612.51,
364.85L
613.02,
363.49L
613.53,
363.49L
614.03,
363.94L
614.54,
362.88L
615.05,
362.41L
615.56,
363.14L
616.07,
362.96L
616.58,
362.89L
617.09,
363.47L
617.60,
363.03L
618.11,
363.12L
618.62,
362.21L
619.13,
362.90L
619.64,
363.03L
620.15,
362.65L
620.66,
362.98L
621.17,
362.93L
621.68,
362.73L
622.19,
360.93L
622.70,
358.59L
623.21,
358.96L
623.72,
357.45L
624.23,
357.41L
624.74,
357.52L
625.25,
356.33L
625.76,
356.49L
626.27,
356.82L
626.78,
356.48L
627.29,
356.72L
627.80,
357.64L
628.31,
357.46L
628.82,
357.16L
629.33,
357.91L
629.84,
357.62L
630.35,
357.94L
630.85,
358.64L
631.36,
357.45L
631.87,
356.93L
632.38,
357.79L
632.89,
358.06L
633.40,
359.20L
633.91,
359.29L
634.42,
360.35L
634.93,
361.47L
635.44,
361.83L
635.95,
361.53L
636.46,
362.31L
636.97,
364.36L
637.48,
365.89L
637.99,
366.47L
638.50,
367.84L
639.01,
367.68L
639.52,
368.65L
640.03,
370.01L
640.54,
371.22L
641.05,
371.15L
641.56,
372.16L
642.07,
371.83L
642.58,
372.78L
643.09,
373.49L
643.60,
373.02L
644.11,
373.37L
644.62,
373.78L
645.13,
374.50L
645.64,
375.17L
646.15,
375.99L
646.66,
376.81L
647.16,
377.00L
647.67,
377.73L
648.18,
378.09L
648.69,
378.92L
649.20,
379.24L
649.71,
379.43L
650.22,
378.87L
650.73,
378.81L
651.24,
378.15L
651.75,
378.58L
652.26,
379.05L
652.77,
379.66L
653.28,
380.33L
653.79,
381.81L
654.30,
381.49L
654.81,
382.05L
655.32,
381.95L
655.83,
383.44L
656.34,
383.51L
656.85,
384.36L
657.36,
383.77L
657.87,
384.18L
658.38,
385.70L
658.89,
386.29L
659.40,
386.46L
659.91,
385.97L
660.42,
386.06L
660.93,
386.87L
661.44,
387.13L
661.95,
387.51L
662.46,
387.37L
662.97,
388.05L
663.48,
388.20L
663.98,
388.58L
664.49,
388.40L
665.00,
389.67L
665.51,
390.71L
666.02,
391.92L
666.53,
392.04L
667.04,
392.64L
667.55,
393.12L
668.06,
393.32L
668.57,
393.42L
669.08,
394.52L
669.59,
395.08L
670.10,
395.47L
670.61,
395.62L
671.12,
396.03L
671.63,
396.73L
672.14,
397.42L
672.65,
397.32L
673.16,
397.37L
673.67,
397.57L
674.18,
397.70L
674.69,
398.43L
675.20,
398.95L
675.71,
399.27L
676.22,
399.44L
676.73,
399.48L
677.24,
399.79L
677.75,
399.93L
678.26,
399.98L
678.77,
400.25L
679.28,
400.70L
679.79,
400.35L
680.29,
400.33L
680.80,
400.15L
681.31,
399.88L
681.82,
399.31L
682.33,
398.99L
682.84,
398.73L
683.35,
398.35L
683.86,
398.30L
684.37,
398.13L
684.88,
398.04L
685.39,
397.93L
685.90,
397.37L
686.41,
396.57L
686.92,
396.53L
687.43,
396.17L
687.94,
396.35L
688.45,
396.36L
688.96,
397.08L
689.47,
396.78L
689.98,
395.95L
690.49,
396.06L
691.00,
395.62L
691.51,
395.40L
692.02,
395.17L
692.53,
394.93L
693.04,
394.91L
693.55,
394.71L
694.06,
394.56L
694.57,
394.35L
695.08,
394.17L
695.59,
393.76L
696.10,
393.76L
696.60,
394.37L
697.11,
394.12L
697.62,
394.20L
698.13,
394.46L
698.64,
394.60L
699.15,
394.79L
699.66,
395.20L
700.17,
395.13L
700.68,
395.49L
701.19,
396.12L
701.70,
396.22L
702.21,
396.79L
702.72,
396.90L
703.23,
396.96L
703.74,
396.95L
704.25,
397.39L
704.76,
397.96L
705.27,
397.92L
705.78,
398.50L
706.29,
398.32L
706.80,
398.11L
707.31,
398.10L
707.82,
397.80L
708.33,
397.46L
708.84,
397.27L
709.35,
397.64L
709.86,
397.73L
710.37,
397.84L
710.88,
397.96L
711.39,
397.79L
711.90,
398.00L
712.41,
397.50L
712.92,
397.61L
713.42,
397.49L
713.93,
397.35L
714.44,
396.81L
714.95,
396.88L
715.46,
396.51L
715.97,
396.11L
716.48,
396.17L
716.99,
395.19L
717.50,
394.65L
718.01,
394.58L
718.52,
394.07L
719.03,
394.07L
719.54,
394.07L
720.05,
394.30L
720.56,
394.27L
721.07,
394.91L
721.58,
395.27L
722.09,
395.22L
722.60,
395.37L
723.11,
395.47L
723.62,
395.53L
724.13,
394.75L
724.64,
394.88L
725.15,
395.04L
725.66,
395.35L
726.17,
395.11L
726.68,
395.14L
727.19,
395.13L
727.70,
395.08L
728.21,
394.83L
728.72,
394.58L
729.23,
394.82L
729.73,
394.96L
730.24,
395.25L
730.75,
395.34L
731.26,
395.66L
731.77,
396.49L
732.28,
396.80L
732.79,
396.46L
733.30,
396.78L
733.81,
396.59L
734.32,
396.83L
734.83,
396.11L
735.34,
395.59L
735.85,
395.33L
736.36,
395.21L
736.87,
394.73L
737.38,
394.67L
737.89,
394.94L
738.40,
395.36L
738.91,
396.12L
739.42,
396.28L
739.93,
396.03L
740.44,
395.81L
740.95,
396.22L
741.46,
396.56L
741.97,
396.87L
742.48,
397.00L
742.99,
396.89L
743.50,
397.17L
744.01,
397.49L
744.52,
397.61L
745.03,
398.25L
745.54,
398.62L
746.05,
398.58L
746.55,
398.76L
747.06,
398.84L
747.57,
399.32L
748.08,
399.61L
748.59,
399.84L
749.10,
399.98L
749.61,
400.40L
750.12,
400.56L
750.63,
400.96L
751.14,
400.79L
751.65,
400.76L
752.16,
399.83L
752.67,
399.15L
753.18,
399.08L
753.69,
399.11L
754.20,
398.96L
754.71,
399.40L
755.22,
399.56L
755.73,
399.32L
756.24,
398.84L
756.75,
398.66L
757.26,
398.35L
757.77,
398.62L
758.28,
399.03L
758.79,
399.01L
759.30,
398.32L
759.81,
398.00L
760.32,
397.86L
760.83,
397.59L
761.34,
397.43L
761.85,
397.18L
762.36,
396.89L
762.86,
396.22L
763.37,
396.36L
763.88,
396.46L
764.39,
396.59L
764.90,
397.02L
765.41,
397.10L
765.92,
396.73L
766.43,
397.39L
766.94,
398.10L
767.45,
398.40L
767.96,
398.67L
768.47,
398.95L
768.98,
399.29L
769.49,
399.49L
770.00,
399.561"/>
  </g>
</svg>
