<svg xmlns="http://www.w3.org/2000/svg" width="830" height="470" fill="currentColor" class="plot-d6a7b5" font-family="system-ui, sans-serif" font-size="10" style="--plot-background:white;display:block;height:intrinsic;max-width:100%;color:#1e90ff" text-anchor="middle" viewBox="0 0 830 470">
    <style>
        :where(.plot-d6a7b5 text),:where(.plot-d6a7b5 tspan){white-space:pre}
    </style>
    <path stroke="currentColor" stroke-opacity=".1" d="
M60
410
h710
M60
360.796
h710
M60
311.591
h710
M60
262.387
h710
M60
213.182
h710
M60
163.978
h710
M60
114.773
h710
M60
65.569
h710" aria-hidden="true" aria-label="y-grid"/>
    <path fill="none" stroke="currentColor" d="
M60
410
h-6
m6
-49.204
h-6
m6
-49.205
h-6
m6
-49.204
h-6
m6
-49.205
h-6
m6
-49.204
h-6
m6
-49.205
h-6
m6
-49.204
h-6" aria-hidden="true" aria-label="y-axis tick"/>
    <g aria-label="y-axis tick label" font-variant="tabular-nums" text-anchor="end">
        <text y=".32em" transform="translate(51 410)">0</text>
        <text y=".32em" transform="translate(51 360.796)">100,000</text>
        <text y=".32em" transform="translate(51 311.591)">200,000</text>
        <text y=".32em" transform="translate(51 262.387)">300,000</text>
        <text y=".32em" transform="translate(51 213.182)">400,000</text>
        <text y=".32em" transform="translate(51 163.978)">500,000</text>
        <text y=".32em" transform="translate(51 114.773)">600,000</text>
        <text y=".32em" transform="translate(51 65.569)">700,000</text>
    </g>
    <text y=".71em" aria-label="y-axis label" text-anchor="start" transform="translate(3 3)">↑ Total vestiges</text>
    <path fill="none" stroke="currentColor" d="
M81.188
410
v6
m56.708
-6
v6
m57.332
-6
v6
m57.332
-6
v6
m56.709
-6
v6
m56.708
-6
v6
m57.332
-6
v6
m57.331
-6
v6
m56.086
-6
v6
m56.709
-6
v6
m57.332
-6
v6
m57.331
-6
v6
m56.086
-6
v6" aria-hidden="true" aria-label="x-axis tick"/>
    <g aria-label="x-axis tick label" font-variant="tabular-nums">
        <text transform="translate(81.188 419)"><tspan x="0" y=".71em">Apr</tspan><tspan x="0" dy="1em">2023</tspan></text>
        <text y=".71em" transform="translate(137.896 419)">Jul</text>
        <text y=".71em" transform="translate(195.228 419)">Oct</text>
        <text transform="translate(252.56 419)"><tspan x="0" y=".71em">Jan</tspan><tspan x="0" dy="1em">2024</tspan></text>
        <text y=".71em" transform="translate(309.269 419)">Apr</text>
        <text y=".71em" transform="translate(365.977 419)">Jul</text>
        <text y=".71em" transform="translate(423.309 419)">Oct</text>
        <text transform="translate(480.64 419)"><tspan x="0" y=".71em">Jan</tspan><tspan x="0" dy="1em">2025</tspan></text>
        <text y=".71em" transform="translate(536.726 419)">Apr</text>
        <text y=".71em" transform="translate(593.435 419)">Jul</text>
        <text y=".71em" transform="translate(650.767 419)">Oct</text>
        <text transform="translate(708.098 419)"><tspan x="0" y=".71em">Jan</tspan><tspan x="0" dy="1em">2026</tspan></text>
        <text y=".71em" transform="translate(764.184 419)">Apr</text>
    </g>
    <path fill="none" stroke="currentColor" stroke-linecap="round" stroke-linejoin="round" stroke-width="1.5" d="
m60
410
.415
-.247
.416
-.903
.415
-.488
.416
-.345
.415
-.57
.416
-.448
.415
-.421
.416
-.851
.415
-.674
.415
-.8
.416
-1.238
.415
-1.168
.416
-.606
.415
-.877
.416
-.596
.415
-.683
.416
-.893
.415
-.601
.416
-.59
.415
-.8
.415
-.887
.416
-.628
.415
-1.073
.416
-.507
.415
-.474
.416
-.855
.415
-.818
.416
-.63
.415
-.878
.415
-.875
.416
-.797
.415
-1.236
.416
-.98
.415
-.568
.416
-.591
.415
-.445
.416
-.36
.415
-.667
.415
-.653
.416
-.455
.415
-1.052
.416
-1.101
.415
-.986
.416
-1.194
.415
-.81
.416
-.69
.415
-.94
.415
-.786
.416
-.57
.415
-1.025
.416
-.991
.415
-.925
.416
-1.327
.415
-1.259
.416
-.655
.415
-.971
.416
-.877
.415
-.786
.415
-1.112
.416
-1.046
.415
-.907
.416
-1.092
.415
-1.046
.416
-.901
.415
-1.212
.416
-.745
.415
-.673
.415
-.938
.416
-.768
.415
-.574
.416
-.74
.415
-.799
.416
-.744
.415
-.977
.416
-.968
.415
-.552
.415
-.765
.416
-.598
.415
-.393
.416
-.609
.415
-.606
.416
-.643
.415
-.832
.416
-.847
.415
-.66
.415
-.916
.416
-.642
.415
-.42
.416
-.964
.415
-.666
.416
-.361
.415
-.603
.416
-.582
.415
-.607
.416
-.832
.415
-.725
.415
-.623
.416
-.543
.415
-.481
.416
-.46
.415
-.756
.416
-.431
.415
-.437
.416
-.71
.415
-.805
.415
-.631
.416
-.812
.415
-.548
.416
-.508
.415
-.736
.416
-.504
.415
-.48
.416
-.641
.415
-.501
.415
-.605
.416
-.641
.415
-.582
.416
-.482
.415
-.505
.416
-.442
.415
-.416
.416
-.585
.415
-.446
.416
-.402
.415
-.663
.415
-.862
.416
-.629
.415
-.818
.416
-.49
.415
-.561
.416
-.58
.415
-.529
.416
-.372
.415
-.738
.415
-.579
.416
-.609
.415
-.884
.416
-.65
.415
-.569
.416
-.581
.415
-.634
.416
-.491
.415
-.481
.415
-.636
.416
-.375
.415
-.498
.416
-.449
.415
-.422
.416
-.595
.415
-.429
.416
-.448
.415
-.6
.415
-.429
.416
-.396
.415
-.428
.416
-.505
.415
-.474
.416
-.495
.415
-.537
.416
-.421
.415
-.516
.416
-.434
.415
-.431
.415
-.597
.416
-.498
.415
-.393
.416
-.515
.415
-.49
.416
-.355
.415
-.608
.416
-.465
.415
-.478
.415
-.532
.416
-.453
.415
-.269
.416
-.494
.415
-.402
.416
-.479
.415
-.57
.416
-.451
.415
-.497
.415
-.547
.416
-.498
.415
-.437
.416
-.712
.415
-.58
.416
-.333
.415
-.533
.416
-.475
.415
-.285
.415
-.506
.416
-.327
.415
-.388
.416
-.472
.415
-.44
.416
-.348
.415
-.55
.416
-.403
.415
-.364
.416
-.512
.415
-.46
.415
-.362
.416
-.555
.415
-.354
.416
-.401
.415
-.509
.416
-.414
.415
-.47
.416
-.538
.415
-.471
.415
-.4
.416
-.46
.415
-.54
.416
-.423
.415
-.396
.416
-.42
.415
-.319
.416
-.547
.415
-.343
.415
-.387
.416
-.486
.415
-.387
.416
-.471
.415
-.625
.416
-.472
.415
-.278
.416
-.64
.415
-.47
.416
-.419
.415
-.584
.415
-.394
.416
-.424
.415
-.489
.416
-.495
.415
-.428
.416
-.632
.415
-.488
.416
-.429
.415
-.52
.415
-.572
.416
-.586
.415
-.861
.416
-.526
.415
-.397
.416
-.537
.415
-.431
.416
-.313
.415
-.488
.415
-.43
.416
-.301
.415
-.491
.416
-.447
.415
-.325
.416
-.519
.415
-.485
.416
-.369
.415
-.486
.415
-.607
.416
-.512
.415
-.639
.416
-.452
.415
-.437
.416
-.646
.415
-.486
.416
-.45
.415
-.541
.416
-.447
.415
-.3
.415
-.433
.416
-.327
.415
-.359
.416
-.435
.415
-.437
.416
-.404
.415
-.404
.416
-.416
.415
-.354
.415
-.392
.416
-.388
.415
-.328
.416
-.379
.415
-.39
.416
-.422
.415
-.504
.416
-.361
.415
-.389
.415
-.408
.416
-.299
.415
-.321
.416
-.334
.415
-.205
.416
-.251
.415
-.573
.416
-.396
.415
-.372
.415
-.505
.416
-.211
.415
-.282
.416
-.266
.415
-.213
.416
-.321
.415
-.328
.416
-.376
.415
-.394
.416
-.63
.415
-.535
.415
-.286
.416
-.387
.415
-.266
.416
-.321
.415
-.37
.416
-.331
.415
-.264
.416
-.405
.415
-.444
.415
-.329
.416
-.447
.415
-.227
.416
-.224
.415
-.299
.416
-.283
.415
-.251
.416
-.409
.415
-.341
.415
-.348
.416
-.471
.415
-.353
.416
-.187
.415
-.347
.416
-.255
.415
-.23
.416
-.289
.415
-.284
.416
-.326
.415
-.43
.415
-.46
.416
-.461
.415
-.479
.416
-.346
.415
-.264
.416
-.327
.415
-.274
.416
-.296
.415
-.397
.415
-.267
.416
-.25
.415
-.556
.416
-.475
.415
-.293
.416
-.302
.415
-.217
.416
-.171
.415
-.362
.415
-.239
.416
-.239
.415
-.464
.416
-.5
.415
-.374
.416
-.509
.415
-.269
.416
-.247
.415
-.425
.415
-.274
.416
-.261
.415
-.372
.416
-.397
.415
-.254
.416
-.421
.415
-.27
.416
-.174
.415
-.374
.416
-.251
.415
-.152
.415
-.231
.416
-.235
.415
-.394
.416
-.464
.415
-.467
.416
-.311
.415
-.307
.416
-.179
.415
-.269
.415
-.316
.416
-.174
.415
-.182
.416
-.312
.415
-.191
.416
-.262
.415
-.288
.416
-.258
.415
-.167
.415
-.232
.416
-.126
.415
-.173
.416
-.235
.415
-.158
.416
-.107
.415
-.369
.416
-.363
.415
-.356
.415
-.353
.416
-.271
.415
-.168
.416
-.273
.415
-.169
.416
-.238
.415
-.347
.416
-.282
.415
-.248
.416
-.371
.415
-.263
.415
-.255
.416
-.3
.415
-.246
.416
-.28
.415
-.412
.416
-.245
.415
-.231
.416
-.241
.415
-.278
.415
-.274
.416
-.302
.415
-.174
.416
-.109
.415
-.259
.416
-.217
.415
-.167
.416
-.202
.415
-.191
.415
-.15
.416
-.237
.415
-.217
.416
-.122
.415
-.28
.416
-.264
.415
-.115
.416
-.166
.415
-.13
.416
-.144
.415
-.275
.415
-.276
.416
-.2
.415
-.188
.416
-.194
.415
-.243
.416
-.19
.415
-.138
.416
-.163
.415
-.27
.415
-.169
.416
-.205
.415
-.343
.416
-.277
.415
-.142
.416
-.222
.415
-.289
.416
-.229
.415
-.295
.415
-.225
.416
-.252
.415
-.295
.416
-.229
.415
-.214
.416
-.271
.415
-.233
.416
-.212
.415
-.332
.415
-.199
.416
-.154
.415
-.321
.416
-.114
.415
-.194
.416
-.314
.415
-.163
.416
-.189
.415
-.236
.416
-.142
.415
-.147
.415
-.147
.416
-.108
.415
-.201
.416
-.275
.415
-.253
.416
-.309
.415
-.369
.416
-.169
.415
-.199
.415
-.194
.416
-.267
.415
-.298
.416
-.222
.415
-.161
.416
-.262
.415
-.314
.416
-.44
.415
-.273
.415
-.336
.416
-.193
.415
-.178
.416
-.238
.415
-.103
.416
-.15
.415
-.38
.416
-.418
.415
-.306
.416
-.426
.415
-.237
.415
-.201
.416
-.243
.415
-.238
.416
-.203
.415
-.319
.416
-.19
.415
-.317
.416
-.473
.415
-.331
.415
-.24
.416
-.356
.415
-.236
.416
-.174
.415
-.365
.416
-.294
.415
-.329
.416
-.323
.415
-.377
.415
-.502
.416
-.546
.415
-.298
.416
-.31
.415
-.452
.416
-.308
.415
-.23
.416
-.296
.415
-.251
.415
-.252
.416
-.405
.415
-.354
.416
-.146
.415
-.316
.416
-.271
.415
-.312
.416
-.308
.415
-.184
.416
-.271
.415
-.404
.415
-.373
.416
-.249
.415
-.381
.416
-.192
.415
-.245
.416
-.276
.415
-.18
.416
-.214
.415
-.283
.415
-.226
.416
-.227
.415
-.421
.416
-.235
.415
-.201
.416
-.18
.415
-.169
.416
-.223
.415
-.209
.415
-.128
.416
-.158
.415
-.34
.416
-.213
.415
-.162
.416
-.317
.415
-.221
.416
-.094
.415
-.19
.415
-.253
.416
-.19
.415
-.259
.416
-.282
.415
-.268
.416
-.416
.415
-.287
.416
-.186
.415
-.033
.416
-.004
.415
-.002
.415
-.002
.416
-.004
.415
-.004
.416
-.005
.415
-.022
.416
-.017
.415
-.01
.416
-.027
.415
-.044
.415
-.03
.416
-.04
.415
-.076
.416
-.103
.415
-.259
.416
-.175
.415
-.164
.416
-.148
.415
-.14
.415
-.162
.416
-.205
.415
-.184
.416
-.218
.415
-.226
.416
-.2
.415
-.244
.416
-.186
.415
-.141
.416
-.205
.415
-.22
.415
-.096
.416
-.143
.415
-.212
.416
-.12
.415
-.125
.416
-.186
.415
-.148
.416
-.216
.415
-.181
.415
-.109
.416
-.164
.415
-.143
.416
-.135
.415
-.094
.416
-.117
.415
-.069
.416
-.124
.415
-.132
.415
-.168
.416
-.236
.415
-.149
.416
-.097
.415
-.208
.416
-.158
.415
-.143
.416
-.15
.415
-.208
.415
-.143
.416
-.201
.415
-.136
.416
-.106
.415
-.161
.416
-.179
.415
-.187
.416
-.121
.415
-.167
.416
-.142
.415
-.179
.415
-.254
.416
-.19
.415
-.245
.416
-.136
.415
-.12
.416
-.166
.415
-.166
.416
-.14
.415
-.187
.415
-.213
.416
-.133
.415
-.238
.416
-.212
.415
-.171
.416
-.248
.415
-.142
.416
-.111
.415
-.087
.415
-.121
.416
-.153
.415
-.166
.416
-.351
.415
-.173
.416
-.265
.415
-.125
.416
-.121
.415
-.15
.415
-.222
.416
-.075
.415
-.163
.416
-.179
.415
-.161
.416
-.247
.415
-.305
.416
-.159
.415
-.267
.416
-.123
.415
-.166
.415
-.298
.416
-.219
.415
-.149
.416
-.241
.415
-.258
.416
-.14
.415
-.318
.416
-.144
.415
-.144
.415
-.209
.416
-.215
.415
-.147
.416
-.243
.415
-.19
.416
-.198
.415
-.292
.416
-.29
.415
-.209
.415
-.201
.416
-.267
.415
-.16
.416
-.165
.415
-.148
.416
-.212
.415
-.182
.416
-.194
.415
-.18
.416
-.191
.415
-.214
.415
-.065
.416
-.1
.415
-.152
.416
-.119
.415
-.286
.416
-.167
.415
-.117
.416
-.156
.415
-.332
.415
-.114
.416
-.168
.415
-.226
.416
-.171
.415
-.112
.416
-.148
.415
-.092
.416
-.125
.415
-.144
.415
-.149
.416
-.271
.415
-.189
.416
-.128
.415
-.237
.416
-.171
.415
-.172
.416
-.129
.415
-.13
.415
-.097
.416
-.165
.415
-.185
.416
-.082
.415
-.11
.416
-.119
.415
-.112
.416
-.133
.415
-.158
.416
-.174
.415
-.188
.415
-.103
.416
-.11
.415
-.178
.416
-.157
.415
-.099
.416
-.177
.415
-.164
.416
-.129
.415
-.155
.415
-.162
.416
-.174
.415
-.237
.416
-.326
.415
-.203
.416
-.216
.415
-.148
.416
-.144
.415
-.198
.415
-.139
.416
-.108
.415
-.133
.416
-.138
.415
-.153
.416
-.163
.415
-.231
.416
-.166
.415
-.265
.415
-.25
.416
-.257
.415
-.259
.416
-.23
.415
-.264
.416
-.284
.415
-.143
.416
-.188
.415
-.339
.416
-.176
.415
-.16
.415
-.221
.416
-.152
.415
-.078
.416
-.457
.415
-.394
.416
-.393
.415
-.422
.416
-.341
.415
-.245
.415
-.382
.416
-.402
.415
-.247
.416
-.234
.415
-.282
.416
-.26
.415
-.29
.416
-.32
.415
-.211
.415
-.13
.416
-.238
.415
-.135
.416
-.143
.415
-.188
.416
-.177
.415
-.207
.416
-.25
.415
-.249
.416
-.192
.415
-.194
.415
-.171
.416
-.151
.415
-.105
.416
-.077
.415
-.09
.416
-.114
.415
-.133
.416
-.093
.415
-.15
.415
-.1
.416
-.119
.415
-.104
.416
-.13
.415
-.105
.416
-.19
.415
-.137
.416
-.15
.415
-.115
.415
-.172
.416
-.178
.415
-.158
.416
-.12
.415
-.147
.416
-.11
.415
-.124
.416
-.081
.415
-.1
.415
-.109
.416
-.091
.415
-.16
.416
-.129
.415
-.112
.416
-.112
.415
-.134
.416
-.118
.415
-.152
.416
-.097
.415
-.172
.415
-.233
.416
-.221
.415
-.309
.416
-.134
.415
-.152
.416
-.16
.415
-.099
.416
-.166
.415
-.165
.415
-.166
.416
-.218
.415
-.384
.416
-.17
.415
-.111
.416
-.238
.415
-.142
.416
-.077
.415
-.158
.415
-.132
.416
-.104
.415
-.183
.416
-.208
.415
-.203
.416
-.29
.415
-.112
.416
-.098
.415
-.141
.415
-.124
.416
-.07
.415
-.085
.416
-.125
.415
-.064
.416
-.118
.415
-.105
.416
-.08
.415
-.099
.416
-.06
.415
-.096
.415
-.141
.416
-.119
.415
-.089
.416
-.183
.415
-.145
.416
-.13
.415
-.192
.416
-.055
.415
-.07
.415
-.127
.416
-.075
.415
-.078
.416
-.1
.415
-.064
.416
-.076
.415
-.184
.416
-.114
.415
-.041
.415
-.049
.416
-.07
.415
-.103
.416
-.099
.415
-.15
.416
-.08
.415
-.164
.416
-.23
.415
-.168
.416
-.252
.415
-.18
.415
-.115
.416
-.109
.415
-.107
.416
-.126
.415
-.098
.416
-.083
.415
-.147
.416
-.146
.415
-.158
.415
-.084
.416
-.146
.415
-.059
.416
-.072
.415
-.144
.416
-.091
.415
-.094
.416
-.106
.415
-.134
.415
-.123
.416
-.133
.415
-.078
.416
-.109
.415
-.128
.416
-.113
.415
-.106
.416
-.143
.415
-.099
.415
-.115
.416
-.177
.415
-.177
.416
-.069
.415
-.1
.416
-.114
.415
-.074
.416
-.102
.415
-.08
.416
-.043
.415
-.1
.415
-.05
.416
-.026
.415
-.069
.416
-.094
.415
-.049
.416
-.055
.415
-.104
.416
-.165
.415
-.106
.415
-.152
.416
-.06
.415
-.085
.416
-.067
.415
-.093
.416
-.091
.415
-.048
.416
-.067
.415
-.113
.415
-.088
.416
-.083
.415
-.151
.416
-.149
.415
-.078
.416
-.142
.415
-.078
.416
-.142
.415
-.106
.415
-.051
.416
-.063
.415
-.105
.416
-.086
.415
-.096
.416
-.173
.415
-.052
.416
-.127
.415
-.104
.416
-.084
.415
-.066
.415
-.082
.416
-.061
.415
-.08
.416
-.086
.415
-.136
.416
-.114
.415
-.236
.416
-.168
.415
-.135
.415
-.16
.416
-.12
.415
-.112
.416
-.192
.415
-.198
.416
-.105
.415
-.18
.416
-.109
.415
-.066
.415
-.124
.416
-.085
.415
-.094
.416
-.064
.415
-.138
.416
-.083
.415
-.098
.416
-.093
.415
-.111
.416
-.079
.415
-.089
.415
-.08
.416
-.09
.415
-.131
.416
-.096
.415
-.169
.416
-.101
.415
-.107
.416
-.132
.415
-.128
.415
-.138
.416
-.149
.415
-.105
.416
-.063
.415
-.13
.416
-.111
.415
-.1
.416
-.128
.415
-.145
.415
-.206
.416
-.26
.415
-.187
.416
-.102
.415
-.112
.416
-.087
.415
-.099
.416
-.139
.415
-.089
.415
-.071
.416
-.186
.415
-.162
.416
-.081
.415
-.142
.416
-.118
.415
-.109
.416
-.118
.415
-.157
.416
-.186
.415
-.12
.415
-.121
.416
-.082
.415
-.102
.416
-.09
.415
-.039
.416
-.172
.415
-.076
.416
-.12
.415
-.155
.415
-.127
.416
-.18
.415
-.17
.416
-.118
.415
-.117
.416
-.193
.415
-.099
.416
-.104
.415
-.172
.415
-.108
.416
-.128
.415
-.177
.416
-.087
.415
-.096
.416
-.152
.415
-.102
.416
-.189
.415
-.103
.415
-.176
.416
-.15
.415
-.095
.416
-.086
.415
-.118
.416
-.23
.415
-.222
.416
-.144
.415
-.194
.416
-.123
.415
-.146
.415
-.22
.416
-.168
.415
-.144
.416
-.145
.415
-.098
.416
-.121
.415
-.113
.416
-.127
.415
-.114
.415
-.13
.416
-.104
.415
-.121
.416
-.18
.415
-.137
.416
-.085
.415
-.081
.416
-.1
.415
-.096
.415
-.092
.416
-.063
.415
-.067
.416
-.109
.415
-.058
.416
-.069
.415
-.102
.416
-.099
.415
-.086
.416
-.137
.415
-.069
.415
-.114
.416
-.073
.415
-.149
.416
-.067
.415
-.123
.416
-.047
.415
-.058
.416
-.164
.415
-.086
.415
-.099
.416
-.046
.415
-.069
.416
-.117
.415
-.072
.416
-.07
.415
-.024
.416
-.072
.415
-.03
.415
-.068
.416
-.048
.415
-.11
.416
-.115
.415
-.109
.416
-.036
.415
-.065
.416
-.051
.415
-.034
.415
-.02
.416
-.095
.415
-.07
.416
-.081
.415
-.032
.416
-.061
.415
-.057
.416
-.093
.415
-.026
.416
-.045
.415
-.04
.415
-.086
.416
-.085
.415
-.061
.416
-.054
.415
-.052
.416
-.04
.415
-.035
.416
-.019
.415
-.018
.415
-.038
.416
-.062
.415
-.011
.416
-.033
.415
-.014
.416
-.027
.415
-.018
.416
-.014
.415
-.018
.415
-.012
.416
-.009
.415
-.027
.416
-.051
.415
-.019
.416
-.03
.415
-.002
.416
-.039
.415
-.033
.415
-.041
.416
-.024
.415
-.076
.416
-.028
.415
-.021
.416
-.028
.415
-.039
.416
-.037
.415
-.01
.416
-.009
.415
-.014
.415
-.017
.416
-.027
.415
-.038
.416
-.035
.415
-.028
.416
-.049
.415
-.061
.416
-.039
.415
-.038
.415
-.043
.416
-.012
.415
-.041
.416
-.057
.415
-.029
.416
-.073
.415
-.065
.416
-.042
.415
-.062
.415
-.026
.416
-.023
.415
-.02
.416
-.052
.415
-.086
.416
-.019
.415
-.073
.416
-.054
.415
-.028
.416
-.028
.415
-.016
.415
-.033
.416
-.038
.415
-.055
.416
-.049
.415
-.06
.416
-.048
.415
-.014
.416
-.059
.415
-.031
.415
-.023
.416
-.001
.415
-.026
.416
-.026
.415
-.034
.416
-.044
.415
-.016
.416
-.034
.415
-.017
.415
-.018
.416
-.019
.415
-.021
.416
-.017
.415
-.041
.416
-.022
.415
-.028
.416
-.068
.415
-.044
.415
-.029
.416
-.04
.415
-.059
.416
-.053
.415
-.025
.416
-.043
.415
-.051
.416
-.039
.415
-.027
.416
-.043
.415
-.071
.415
-.013
.416
-.011
.415
-.036
.416
-.069
.415
-.029
.416
-.072
.415
-.048
.416
-.029
.415
-.094
.415
-.06
.416
-.024
.415
-.061
.416
-.017
.415
-.042
.416
-.003
.415
-.031
.416
-.018
.415
-.016
.415
-.033
.416
-.028
.415
-.051
.416
-.049
.415
-.086
.416
-.032
.415
-.039
.416
-.014
.415
-.047
.416
-.04
.415
-.071
.415
-.017
.416
-.031
.415
-.056
.416
-.05
.415
-.017
.416
-.051
.415
-.04
.416
-.004
.415
-.029
.415
-.036
.416
-.051
.415
-.035
.416
-.033
.415
-.023
.416
-.059
.415
-.071
.416
-.039
.415
-.025
.415
-.07
.416
-.033
.415
-.03
.416
-.016
.415
-.027
.416
-.02
.415
-.058
.416
-.031
.415
-.015
.415
-.013
.416
-.047
.415
-.007
.416
-.04
.415
-.034
.416
-.024
.415
-.008
.416
-.001
.415
-.011
.416
-.008
.415
-.014
.415
-.03
.416
-.013
.415
-.014
.416
-.014
.415
-.011
.416
-.027
.415
-.059
.416
-.007
.415
-.038
.415
-.073
.416
-.106
.415
-.083
.416
-.022
.415
-.023
.416
-.033
.415
-.023
.416
-.019
.415
-.034
.415
-.05
.416
-.062
.415
-.031
.416
-.018
.415
-.002
.416
-.026
.415
-.063
.416
-.025
.415
-.022
.415
-.029
.416
-.027
.415
-.049
.416
-.035
.415
-.067
.416
-.003
.415
-.004
.416
-.017
.415
-.024
.416
-.002
.415
-.067
.415
-.021
.416
-.051
.415
-.059
h.416
l.415
-.002
.416
-.006
.415
-.008
.416
-.013
.415
-.015
.415
-.004
.416
-.038
.415
-.02
.416
-.017
.415
-.008
.416
-.003
.415
-.004
.416
-.002
.415
-.002
.415
-.002
.416
-.025
.415
-.038
.416
-.09
.415
-.094
.416
-.052
.415
-.014
h.416
l.415
-.035
.416
-.036
.415
-.023
.415
-.032
.416
-.078
.415
-.064
.416
-.035
.415
-.061
.416
-.031
.415
-.019
.416
-.027
.415
-.016
.415
-.043
.416
-.049
.415
-.022
.416
-.007
.415
-.05
.416
-.046
.415
-.064
.416
-.019
.415
-.002
.415
-.005
.416
-.016
.415
-.025
.416
-.014
.415
-.007
.416
-.013
.415
-.003
.416
-.025
.415
-.027
.415
-.044
.416
-.008
.415
-.015
.416
-.019
.415
-.016
.416
-.037
.415
-.032
.416
-.042
.415
-.024
.416
-.009
.415
-.016
.415
-.02
.416
-.033
.415
-.007
.416
-.018
.415
-.038
.416
-.041
.415
-.004
.416
-.025
.415
-.019
.415
-.017
.416
-.011
.415
-.019
.416
-.001
.415
-.002
.416
-.021
h.415
l.416
-.022
.415
-.026
h.415
l.416
-.013
.415
-.014
.416
-.022
.415
-.028
.416
-.032
.415
-.006
.416
-.016
.415
-.004
.415
-.01
.416
-.015
.415
-.049
.416
-.003
.415
-.025
.416
-.022
.415
-.008
.416
-.028
.415
-.025
.416
-.031
.415
-.041
.415
-.041
.416
-.029
.415
-.047
.416
-.008
.415
-.017
.416
-.012
.415
-.011
.416
-.004
.415
-.001
.415
-.003
.416
-.016
.415
-.014
.416
-.008
.415
-.015
.416
-.028
.415
-.01
.416
-.039
.415
-.013
.415
-.013
.416
-.012
.415
-.02
.416
-.009
.415
-.012
.416
-.041
.415
-.013
.416
-.024
.415
-.026
.416
-.002
.415
-.013
.415
-.021
.416
-.022
.415
-.004
.416
-.039
.415
-.022
.416
-.011
.415
-.014
.416
-.041
.415
-.016
.415
-.022
.416
-.014
.415
-.013
.416
-.041
.415
-.002
h.416
l.415
-.034
.416
-.057
.415
-.029
.415
-.004
.416
-.003
.415
-.001
.416
-.014
.415
-.012
.416
-.016
.415
-.047
.416
-.032
.415
-.024
.415
-.013
.416
-.052
.415
-.043
.416
-.009
.415
-.027
.416
-.01
.415
-.017
.416
-.004
.415
-.021
.416
-.016
.415
-.025
.415
-.033
.416
-.097
.415
-.044
.416
-.035
.415
-.064
.416
-.054
.415
-.025
.416
-.074
.415
-.006
.415
-.04
.416
-.015
.415
-.039
.416
-.014
.415
-.045
.416
-.021
.415
-.029
.416
-.039
.415
-.031
.415
-.046
.416
-.051
.415
-.014
.416
-.011
.415
-.058
.416
-.032
.415
-.034
.416
-.042
.415
-.029
.415
-.031
.416
-.023
.415
-.052
.416
-.021
.415
-.028
.416
-.05
.415
-.039
.416
-.069
.415
-.044
.416
-.012
.415
-.025
.415
-.02
.416
-.009
.415
-.078
.416
-.03
.415
-.028
.416
-.025
.415
-.055
.416
-.02
.415
-.01
.415
-.014
.416
-.007
.415
-.043
.416
-.026
.415
-.028
.416
-.005
.415
-.008
.416
-.01
.415
-.054
.415
-.035
.416
-.048
.415
-.046
.416
-.102
.415
-.098
.416
-.093
.415
-.065
.416
-.089
.415
-.106
.416
-.039
.415
-.101
.415
-.073
.416
-.053
.415
-.083
.416
-.061
.415
-.098
.416
-.044
.415
-.11
.416
-.051
.415
-.049
.415
-.048
.416
-.017
.415
-.063
.416
-.09
.415
-.04
.416
-.043
.415
-.143
.416
-.041
.415
-.069
.415
-.069
.416
-.072
.415
-.034
.416
-.094
.415
-.07
.416
-.046
.415
-.042
.416
-.04
.415
-.035
.415
-.049
.416
-.01
.415
-.013
.416
-.04
.415
-.03
.416
-.056
.415
-.058
.416
-.018
.415
-.049
.416
-.023
.415
-.022
.415
-.036
.416
-.036
.415
-.017
.416
-.01
.415
-.045
.416
-.038
.415
-.046
.416
-.056
.415
-.071
.415
-.032
.416
-.037
.415
-.02
.416
-.062
.415
-.027
.416
-.018
.415
-.035
.416
-.032
.415
-.015
.415
-.035
.416
-.044
.415
-.026
.416
-.049
.415
-.016
.416
-.069
.415
-.008
.416
-.034
.415
-.024
.415
-.019
.416
-.018
.415
-.039
.416
-.018
.415
-.022
.416
-.016
.415
-.011
H770" aria-label="line"/>
</svg>
