<svg xmlns="http://www.w3.org/2000/svg" width="830" height="470" fill="currentColor" class="plot-d6a7b5" font-family="system-ui, sans-serif" font-size="10" style="--plot-background:white;display:block;height:intrinsic;max-width:100%;color:#1e90ff" text-anchor="middle" viewBox="0 0 830 470">
    <style>
        :where(.plot-d6a7b5 text),:where(.plot-d6a7b5 tspan){white-space:pre}
    </style>
    <path stroke="currentColor" stroke-opacity=".1" d="
M60
410
h710
M60
385.224
h710
M60
360.448
h710
M60
335.672
h710
M60
310.895
h710
M60
286.119
h710
M60
261.343
h710
M60
236.567
h710
M60
211.791
h710
M60
187.015
h710
M60
162.239
h710
M60
137.463
h710
M60
112.686
h710
M60
87.91
h710
M60
63.134
h710" aria-hidden="true" aria-label="y-grid"/>
    <path fill="none" stroke="currentColor" d="
M60
410
h-6
m6
-24.776
h-6
m6
-24.776
h-6
m6
-24.776
h-6
m6
-24.777
h-6
m6
-24.775
h-6
m6
-24.777
h-6
m6
-24.776
h-6
m6
-24.776
h-6
m6
-24.776
h-6
m6
-24.776
h-6
m6
-24.776
h-6
m6
-24.777
h-6
m6
-24.776
h-6
m6
-24.776
h-6" aria-hidden="true" aria-label="y-axis tick"/>
    <g aria-label="y-axis tick label" font-variant="tabular-nums" text-anchor="end">
        <text y=".32em" transform="translate(51 410)">0</text>
        <text y=".32em" transform="translate(51 385.224)">50,000</text>
        <text y=".32em" transform="translate(51 360.448)">100,000</text>
        <text y=".32em" transform="translate(51 335.672)">150,000</text>
        <text y=".32em" transform="translate(51 310.895)">200,000</text>
        <text y=".32em" transform="translate(51 286.12)">250,000</text>
        <text y=".32em" transform="translate(51 261.343)">300,000</text>
        <text y=".32em" transform="translate(51 236.567)">350,000</text>
        <text y=".32em" transform="translate(51 211.791)">400,000</text>
        <text y=".32em" transform="translate(51 187.015)">450,000</text>
        <text y=".32em" transform="translate(51 162.239)">500,000</text>
        <text y=".32em" transform="translate(51 137.463)">550,000</text>
        <text y=".32em" transform="translate(51 112.686)">600,000</text>
        <text y=".32em" transform="translate(51 87.91)">650,000</text>
        <text y=".32em" transform="translate(51 63.134)">700,000</text>
    </g>
    <text y=".71em" aria-label="y-axis label" text-anchor="start" transform="translate(3 3)">↑ Total vestiges</text>
    <path fill="none" stroke="currentColor" d="
M82.16
410
v6
m59.312
-6
v6
m59.963
-6
v6
m59.963
-6
v6
m59.312
-6
v6
m59.311
-6
v6
m59.964
-6
v6
m59.963
-6
v6
m58.66
-6
v6
m59.312
-6
v6
m59.962
-6
v6
m59.964
-6
v6" aria-hidden="true" aria-label="x-axis tick"/>
    <g aria-label="x-axis tick label" font-variant="tabular-nums">
        <text transform="translate(82.16 419)"><tspan x="0" y=".71em">Apr</tspan><tspan x="0" dy="1em">2023</tspan></text>
        <text y=".71em" transform="translate(141.472 419)">Jul</text>
        <text y=".71em" transform="translate(201.435 419)">Oct</text>
        <text transform="translate(261.398 419)"><tspan x="0" y=".71em">Jan</tspan><tspan x="0" dy="1em">2024</tspan></text>
        <text y=".71em" transform="translate(320.71 419)">Apr</text>
        <text y=".71em" transform="translate(380.021 419)">Jul</text>
        <text y=".71em" transform="translate(439.985 419)">Oct</text>
        <text transform="translate(499.948 419)"><tspan x="0" y=".71em">Jan</tspan><tspan x="0" dy="1em">2025</tspan></text>
        <text y=".71em" transform="translate(558.608 419)">Apr</text>
        <text y=".71em" transform="translate(617.92 419)">Jul</text>
        <text y=".71em" transform="translate(677.882 419)">Oct</text>
        <text transform="translate(737.846 419)"><tspan x="0" y=".71em">Jan</tspan><tspan x="0" dy="1em">2026</tspan></text>
    </g>
    <path fill="none" stroke="currentColor" stroke-linecap="round" stroke-linejoin="round" stroke-width="1.5" d="
m60
410
.435
-.249
.434
-.91
.435
-.49
.434
-.348
.435
-.574
.434
-.452
.435
-.423
.434
-.858
.435
-.678
.434
-.805
.435
-1.247
.434
-1.176
.435
-.611
.434
-.883
.435
-.6
.434
-.688
.435
-.9
.434
-.605
.435
-.594
.434
-.805
.435
-.894
.434
-.633
.435
-1.079
.434
-.512
.435
-.477
.434
-.861
.435
-.824
.434
-.634
.435
-.884
.434
-.882
.435
-.802
.435
-1.245
.434
-.987
.435
-.571
.434
-.596
.435
-.449
.434
-.362
.435
-.672
.434
-.657
.435
-.458
.434
-1.06
.435
-1.108
.434
-.993
.435
-1.203
.434
-.816
.435
-.695
.434
-.946
.435
-.792
.434
-.573
.435
-1.033
.434
-.998
.435
-.932
.434
-1.335
.435
-1.268
.434
-.66
.435
-.979
.434
-.883
.435
-.791
.434
-1.12
.435
-1.053
.435
-.914
.434
-1.099
.435
-1.054
.434
-.907
.435
-1.22
.434
-.751
.435
-.677
.434
-.945
.435
-.774
.434
-.578
.435
-.745
.434
-.805
.435
-.749
.434
-.984
.435
-.975
.434
-.555
.435
-.771
.434
-.602
.435
-.396
.434
-.613
.435
-.61
.434
-.648
.435
-.838
.434
-.853
.435
-.665
.434
-.922
.435
-.647
.434
-.423
.435
-.97
.434
-.671
.435
-.363
.435
-.608
.434
-.587
.435
-.61
.434
-.839
.435
-.729
.434
-.628
.435
-.546
.434
-.485
.435
-.464
.434
-.761
.435
-.433
.434
-.441
.435
-.715
.434
-.811
.435
-.635
.434
-.818
.435
-.551
.434
-.512
.435
-.742
.434
-.507
.435
-.483
.434
-.645
.435
-.505
.434
-.609
.435
-.646
.434
-.586
.435
-.486
.434
-.509
.435
-.444
.434
-.419
.435
-.59
.435
-.449
.434
-.404
.435
-.668
.434
-.869
.435
-.633
.434
-.824
.435
-.493
.434
-.565
.435
-.584
.434
-.533
.435
-.375
.434
-.743
.435
-.583
.434
-.613
.435
-.89
.434
-.655
.435
-.573
.434
-.585
.435
-.639
.434
-.494
.435
-.484
.434
-.641
.435
-.377
.434
-.502
.435
-.452
.434
-.425
.435
-.599
.434
-.433
.435
-.451
.435
-.604
.434
-.431
.435
-.399
.434
-.432
.435
-.508
.434
-.478
.435
-.498
.434
-.541
.435
-.424
.434
-.52
.435
-.436
.434
-.434
.435
-.602
.434
-.501
.435
-.396
.434
-.519
.435
-.494
.434
-.356
.435
-.613
.434
-.468
.435
-.482
.434
-.536
.435
-.456
.434
-.271
.435
-.497
.434
-.405
.435
-.483
.434
-.574
.435
-.454
.434
-.5
.435
-.551
.435
-.501
.434
-.44
.435
-.718
.434
-.583
.435
-.336
.434
-.537
.435
-.478
.434
-.287
.435
-.51
.434
-.329
.435
-.391
.434
-.475
.435
-.443
.434
-.35
.435
-.554
.434
-.406
.435
-.367
.434
-.516
.435
-.463
.434
-.365
.435
-.559
.434
-.355
.435
-.405
.434
-.513
.435
-.416
.434
-.474
.435
-.541
.434
-.474
.435
-.404
.435
-.463
.434
-.544
.435
-.425
.434
-.4
.435
-.422
.434
-.322
.435
-.551
.434
-.344
.435
-.39
.434
-.49
.435
-.39
.434
-.474
.435
-.63
.434
-.475
.435
-.28
.434
-.644
.435
-.474
.434
-.421
.435
-.588
.434
-.398
.435
-.426
.434
-.493
.435
-.499
.434
-.43
.435
-.637
.434
-.491
.435
-.432
.434
-.524
.435
-.577
.434
-.589
.435
-.868
.435
-.53
.434
-.399
.435
-.541
.434
-.434
.435
-.315
.434
-.491
.435
-.434
.434
-.303
.435
-.494
.434
-.451
.435
-.326
.434
-.523
.435
-.489
.434
-.371
.435
-.489
.434
-.612
.435
-.516
.434
-.643
.435
-.455
.434
-.44
.435
-.651
.434
-.489
.435
-.453
.434
-.545
.435
-.451
.434
-.302
.435
-.436
.434
-.329
.435
-.361
.434
-.439
.435
-.44
.435
-.406
.434
-.407
.435
-.42
.434
-.356
.435
-.395
.434
-.391
.435
-.33
.434
-.382
.435
-.393
.434
-.424
.435
-.508
.434
-.363
.435
-.392
.434
-.411
.435
-.301
.434
-.323
.435
-.337
.434
-.206
.435
-.253
.434
-.577
.435
-.399
.434
-.375
.435
-.508
.434
-.212
.435
-.285
.434
-.268
.435
-.214
.434
-.323
.435
-.33
.435
-.379
.434
-.397
.435
-.635
.434
-.538
.435
-.289
.434
-.389
.435
-.268
.434
-.323
.435
-.372
.434
-.334
.435
-.266
.434
-.407
.435
-.448
.434
-.331
.435
-.45
.434
-.229
.435
-.226
.434
-.301
.435
-.284
.434
-.253
.435
-.412
.434
-.344
.435
-.35
.434
-.475
.435
-.355
.434
-.188
.435
-.35
.434
-.257
.435
-.231
.434
-.291
.435
-.286
.435
-.329
.434
-.433
.435
-.462
.434
-.465
.435
-.483
.434
-.348
.435
-.266
.434
-.329
.435
-.276
.434
-.298
.435
-.4
.434
-.269
.435
-.251
.434
-.56
.435
-.479
.434
-.295
.435
-.304
.434
-.219
.435
-.172
.434
-.364
.435
-.242
.434
-.24
.435
-.467
.434
-.503
.435
-.378
.434
-.512
.435
-.271
.434
-.248
.435
-.428
.434
-.276
.435
-.264
.435
-.374
.434
-.4
.435
-.255
.434
-.424
.435
-.272
.434
-.175
.435
-.377
.434
-.253
.435
-.153
.434
-.232
.435
-.237
.434
-.397
.435
-.468
.434
-.47
.435
-.313
.434
-.309
.435
-.18
.434
-.271
.435
-.318
.434
-.176
.435
-.183
.434
-.314
.435
-.192
.434
-.265
.435
-.289
.434
-.26
.435
-.169
.434
-.233
.435
-.127
.435
-.174
.434
-.237
.435
-.159
.434
-.107
.435
-.373
.434
-.365
.435
-.358
.434
-.356
.435
-.273
.434
-.169
.435
-.275
.434
-.17
.435
-.24
.434
-.349
.435
-.284
.434
-.25
.435
-.373
.434
-.265
.435
-.257
.434
-.302
.435
-.249
.434
-.281
.435
-.415
.434
-.247
.435
-.232
.434
-.243
.435
-.28
.434
-.276
.435
-.304
.434
-.176
.435
-.109
.435
-.261
.434
-.218
.435
-.169
.434
-.203
.435
-.192
.434
-.152
.435
-.238
.434
-.218
.435
-.123
.434
-.282
.435
-.267
.434
-.115
.435
-.167
.434
-.132
.435
-.145
.434
-.276
.435
-.278
.434
-.202
.435
-.189
.434
-.195
.435
-.245
.434
-.192
.435
-.138
.434
-.164
.435
-.272
.434
-.17
.435
-.207
.434
-.345
.435
-.279
.435
-.144
.434
-.224
.435
-.29
.434
-.231
.435
-.297
.434
-.226
.435
-.254
.434
-.298
.435
-.23
.434
-.215
.435
-.274
.434
-.234
.435
-.213
.434
-.335
.435
-.2
.434
-.155
.435
-.323
.434
-.115
.435
-.196
.434
-.316
.435
-.164
.434
-.191
.435
-.237
.434
-.144
.435
-.147
.434
-.148
.435
-.109
.434
-.203
.435
-.276
.434
-.255
.435
-.312
.435
-.371
.434
-.17
.435
-.201
.434
-.195
.435
-.269
.434
-.299
.435
-.225
.434
-.162
.435
-.264
.434
-.316
.435
-.443
.434
-.275
.435
-.338
.434
-.194
.435
-.179
.434
-.241
.435
-.103
.434
-.151
.435
-.383
.434
-.421
.435
-.308
.434
-.429
.435
-.239
.434
-.202
.435
-.245
.434
-.24
.435
-.204
.434
-.321
.435
-.191
.434
-.32
.435
-.476
.435
-.334
.434
-.241
.435
-.358
.434
-.239
.435
-.174
.434
-.368
.435
-.297
.434
-.33
.435
-.326
.434
-.379
.435
-.506
.434
-.55
.435
-.3
.434
-.312
.435
-.456
.434
-.309
.435
-.232
.434
-.298
.435
-.253
.434
-.254
.435
-.408
.434
-.357
.435
-.147
.434
-.318
.435
-.272
.434
-.315
.435
-.31
.434
-.185
.435
-.273
.435
-.406
.434
-.376
.435
-.251
.434
-.384
.435
-.193
.434
-.247
.435
-.278
.434
-.182
.435
-.215
.434
-.285
.435
-.227
.434
-.229
.435
-.424
.434
-.237
.435
-.202
.434
-.182
.435
-.169
.434
-.225
.435
-.21
.434
-.129
.435
-.16
.434
-.342
.435
-.215
.434
-.163
.435
-.319
.434
-.223
.435
-.094
.434
-.191
.435
-.256
.434
-.191
.435
-.261
.435
-.283
.434
-.271
.435
-.418
.434
-.29
.435
-.187
.434
-.033
.435
-.004
.434
-.002
.435
-.002
.434
-.004
.435
-.004
.434
-.005
.435
-.022
.434
-.017
.435
-.011
.434
-.026
.435
-.045
.434
-.03
.435
-.04
.434
-.077
.435
-.104
.434
-.26
.435
-.177
.434
-.165
.435
-.148
.434
-.142
.435
-.163
.434
-.206
.435
-.186
.434
-.219
.435
-.228
.435
-.202
.434
-.245
.435
-.187
.434
-.143
.435
-.206
.434
-.222
.435
-.096
.434
-.144
.435
-.214
.434
-.12
.435
-.126
.434
-.187
.435
-.149
.434
-.218
.435
-.183
.434
-.109
.435
-.165
.434
-.144
.435
-.137
.434
-.094
.435
-.117
.434
-.07
.435
-.126
.434
-.132
.435
-.169
.434
-.238
.435
-.15
.434
-.098
.435
-.209
.435
-.159
.434
-.144
.435
-.151
.434
-.21
.435
-.144
.434
-.202
.435
-.138
.434
-.106
.435
-.162
.434
-.181
.435
-.187
.434
-.123
.435
-.168
.434
-.143
.435
-.18
.434
-.256
.435
-.191
.434
-.247
.435
-.136
.434
-.121
.435
-.168
.434
-.167
.435
-.141
.434
-.189
.435
-.214
.434
-.134
.435
-.24
.434
-.213
.435
-.172
.434
-.25
.435
-.143
.435
-.111
.434
-.088
.435
-.122
.434
-.154
.435
-.168
.434
-.352
.435
-.175
.434
-.267
.435
-.126
.434
-.122
.435
-.151
.434
-.223
.435
-.076
.434
-.164
.435
-.18
.434
-.163
.435
-.248
.434
-.307
.435
-.16
.434
-.269
.435
-.125
.434
-.166
.435
-.301
.434
-.22
.435
-.15
.434
-.243
.435
-.26
.434
-.14
.435
-.321
.435
-.145
.434
-.145
.435
-.21
.434
-.217
.435
-.148
.434
-.245
.435
-.191
.434
-.2
.435
-.294
.434
-.292
.435
-.211
.434
-.202
.435
-.268
.434
-.161
.435
-.166
.434
-.15
.435
-.213
.434
-.183
.435
-.196
.434
-.181
.435
-.192
.434
-.216
.435
-.066
.434
-.1
.435
-.153
.434
-.12
.435
-.288
.434
-.168
.435
-.118
.434
-.157
.435
-.335
.435
-.114
.434
-.169
.435
-.229
.434
-.172
.435
-.112
.434
-.149
.435
-.093
.434
-.126
.435
-.145
.434
-.15
.435
-.273
.434
-.19
.435
-.129
.434
-.238
.435
-.172
.434
-.174
.435
-.13
.434
-.131
.435
-.098
.434
-.166
.435
-.186
.434
-.082
.435
-.111
.434
-.121
.435
-.112
.434
-.134
.435
-.159
.434
-.175
.435
-.189
.434
-.105
.435
-.11
.435
-.179
.434
-.158
.435
-.1
.434
-.178
.435
-.165
.434
-.13
.435
-.157
.434
-.163
.435
-.175
.434
-.239
.435
-.328
.434
-.204
.435
-.218
.434
-.149
.435
-.145
.434
-.2
.435
-.139
.434
-.109
.435
-.134
.434
-.139
.435
-.154
.434
-.165
.435
-.232
.434
-.167
.435
-.267
.434
-.252
.435
-.258
.434
-.262
.435
-.231
.435
-.266
.434
-.286
.435
-.144
.434
-.189
.435
-.341
.434
-.178
.435
-.161
.434
-.222
.435
-.154
.434
-.078
.435
-.46
.434
-.397
.435
-.396
.434
-.425
.435
-.343
.434
-.247
.435
-.385
.434
-.405
.435
-.248
.434
-.236
.435
-.284
.434
-.262
.435
-.292
.434
-.322
.435
-.213
.434
-.131
.435
-.239
.434
-.136
.435
-.144
.434
-.189
.435
-.179
.435
-.209
.434
-.251
.435
-.251
.434
-.193
.435
-.196
.434
-.172
.435
-.152
.434
-.105
.435
-.079
.434
-.09
.435
-.114
.434
-.135
.435
-.093
.434
-.151
.435
-.101
.434
-.119
.435
-.105
.434
-.131
.435
-.106
.434
-.191
.435
-.138
.434
-.151
.435
-.117
.434
-.173
.435
-.179
.434
-.159
.435
-.121
.434
-.148
.435
-.11
.434
-.125
.435
-.082
.435
-.101
.434
-.11
.435
-.092
.434
-.16
.435
-.131
.434
-.112
.435
-.113
.434
-.135
.435
-.119
.434
-.152
.435
-.098
.434
-.174
.435
-.234
.434
-.223
.435
-.311
.434
-.135
.435
-.153
.434
-.161
.435
-.099
.434
-.168
.435
-.166
.434
-.167
.435
-.219
.434
-.388
.435
-.171
.434
-.111
.435
-.24
.434
-.143
.435
-.078
.435
-.159
.434
-.133
.435
-.104
.434
-.185
.435
-.209
.434
-.205
.435
-.292
.434
-.112
.435
-.099
.434
-.142
.435
-.125
.434
-.071
.435
-.085
.434
-.126
.435
-.064
.434
-.119
.435
-.107
.434
-.079
.435
-.1
.434
-.06
.435
-.098
.434
-.142
.435
-.119
.434
-.09
.435
-.185
.434
-.145
.435
-.132
.434
-.193
.435
-.055
.434
-.071
.435
-.127
.435
-.076
.434
-.079
.435
-.1
.434
-.065
.435
-.077
.434
-.184
.435
-.115
.434
-.041
.435
-.05
.434
-.07
.435
-.104
.434
-.1
.435
-.151
.434
-.081
.435
-.165
.434
-.231
.435
-.17
.434
-.254
.435
-.181
.434
-.115
.435
-.11
.434
-.108
.435
-.127
.434
-.098
.435
-.084
.434
-.148
.435
-.147
.434
-.16
.435
-.084
.434
-.147
.435
-.059
.435
-.073
.434
-.145
.435
-.092
.434
-.094
.435
-.107
.434
-.135
.435
-.124
.434
-.133
.435
-.079
.434
-.11
.435
-.129
.434
-.113
.435
-.107
.434
-.144
.435
-.1
.434
-.116
.435
-.179
.434
-.177
.435
-.07
.434
-.1
.435
-.115
.434
-.075
.435
-.103
.434
-.081
.435
-.043
.434
-.1
.435
-.05
.434
-.027
.435
-.069
.435
-.095
.434
-.05
.435
-.055
.434
-.105
.435
-.165
.434
-.108
.435
-.153
.434
-.059
.435
-.087
.434
-.067
.435
-.093
.434
-.092
.435
-.049
.434
-.067
.435
-.114
.434
-.088
.435
-.084
.434
-.152
.435
-.15
.434
-.079
.435
-.142
.434
-.079
.435
-.143
.434
-.107
.435
-.051
.434
-.063
.435
-.107
.434
-.086
.435
-.097
.434
-.174
.435
-.052
.435
-.128
.434
-.105
.435
-.084
.434
-.067
.435
-.083
.434
-.061
.435
-.08
.434
-.087
.435
-.138
.434
-.114
.435
-.238
.434
-.169
.435
-.136
.434
-.161
.435
-.121
.434
-.113
.435
-.193
.434
-.199
.435
-.106
.434
-.182
.435
-.109
.434
-.067
.435
-.125
.434
-.086
.435
-.094
.434
-.065
.435
-.138
.434
-.084
.435
-.098
.435
-.094
.434
-.112
.435
-.079
.434
-.09
.435
-.081
.434
-.091
.435
-.132
.434
-.096
.435
-.17
.434
-.102
.435
-.107
.434
-.134
.435
-.128
.434
-.139
.435
-.151
.434
-.105
.435
-.064
.434
-.131
.435
-.111
.434
-.101
.435
-.129
.434
-.146
.435
-.207
.434
-.262
.435
-.189
.434
-.102
.435
-.113
.434
-.088
.435
-.099
.434
-.141
.435
-.089
.435
-.072
.434
-.187
.435
-.163
.434
-.082
.435
-.143
.434
-.118
.435
-.11
.434
-.119
.435
-.158
.434
-.187
.435
-.121
.434
-.122
.435
-.083
.434
-.103
.435
-.09
.434
-.039
.435
-.174
.434
-.076
.435
-.121
.434
-.156
.435
-.128
.434
-.181
.435
-.171
.434
-.119
.435
-.118
.434
-.194
.435
-.1
.434
-.105
.435
-.173
.434
-.109
.435
-.129
.435
-.178
.434
-.087
.435
-.097
.434
-.153
.435
-.103
.434
-.191
.435
-.103
.434
-.177
.435
-.151
.434
-.096
.435
-.087
.434
-.118
.435
-.232
.434
-.224
.435
-.145
.434
-.195
.435
-.124
.434
-.147
.435
-.222
.434
-.169
.435
-.144
.434
-.147
.435
-.098
.434
-.123
.435
-.113
.434
-.128
.435
-.114
.434
-.132
.435
-.104
.435
-.123
.434
-.181
.435
-.138
.434
-.085
.435
-.082
.434
-.1
.435
-.097
.434
-.093
.435
-.063
.434
-.067
.435
-.111
.434
-.057
.435
-.071
.434
-.102
.435
-.1
.434
-.087
.435
-.137
.434
-.07
.435
-.115
.434
-.074
.435
-.15
.434
-.067
.435
-.124
.434
-.047
.435
-.058
.434
-.165
.435
-.087
.434
-.099
.435
-.048
.434
-.069
.435
-.117
.435
-.073
.434
-.07
.435
-.024
.434
-.073
.435
-.031
.434
-.068
.435
-.048
.434
-.111
.435
-.116
.434
-.109
.435
-.037
.434
-.065
.435
-.052
.434
-.034
.435
-.02
.434
-.096
.435
-.07
.434
-.082
.435
-.032
.434
-.062
.435
-.057
.434
-.094
.435
-.026
.434
-.045
.435
-.04
.434
-.087
.435
-.085
.434
-.062
.435
-.054
.434
-.052
.435
-.041
.435
-.035
.434
-.019
.435
-.018
.434
-.039
.435
-.062
.434
-.011
.435
-.034
.434
-.014
.435
-.027
.434
-.018
.435
-.014
.434
-.018
.435
-.013
.434
-.008
.435
-.027
.434
-.051
.435
-.02
.434
-.03
.435
-.002
.434
-.039
.435
-.034
.434
-.041
.435
-.024
.434
-.077
.435
-.028
.434
-.021
.435
-.029
.434
-.038
.435
-.038
.435
-.01
.434
-.009
.435
-.014
.434
-.018
.435
-.026
.434
-.039
.435
-.035
.434
-.028
.435
-.049
.434
-.062
.435
-.04
.434
-.038
.435
-.042
.434
-.013
.435
-.041
.434
-.058
.435
-.029
.434
-.073
.435
-.065
.434
-.042
.435
-.063
.434
-.027
.435
-.023
.434
-.02
.435
-.052
.434
-.086
.435
-.02
.434
-.073
.435
-.055
.434
-.028
.435
-.028
.435
-.016
.434
-.034
.435
-.038
.434
-.055
.435
-.049
.434
-.061
.435
-.048
.434
-.014
.435
-.06
.434
-.031
.435
-.023
.434
-.001
.435
-.026
.434
-.026
.435
-.034
.434
-.045
.435
-.016
.434
-.035
.435
-.016
.434
-.019
.435
-.019
.434
-.021
.435
-.017
.434
-.041
.435
-.023
.434
-.027
.435
-.069
.434
-.045
.435
-.029
.435
-.04
.434
-.06
.435
-.053
.434
-.026
.435
-.042
.434
-.052
.435
-.039
.434
-.028
.435
-.043
.434
-.071
.435
-.013
.434
-.011
.435
-.037
.434
-.069
.435
-.029
.434
-.073
.435
-.048
.434
-.029
.435
-.094
.434
-.061
.435
-.025
.434
-.061
.435
-.017
.434
-.042
.435
-.004
.434
-.03
.435
-.019
.434
-.015
.435
-.034
.434
-.028
.435
-.051
.435
-.049
.434
-.087
.435
-.033
.434
-.039
.435
-.014
.434
-.047
.435
-.041
.434
-.071
.435
-.017
.434
-.032
.435
-.056
.434
-.05
.435
-.017
.434
-.051
.435
-.041
.434
-.005
.435
-.028
.434
-.036
.435
-.051
.434
-.037
.435
-.032
.434
-.023
.435
-.06
.434
-.071
.435
-.04
.434
-.025
.435
-.071
.434
-.033
.435
-.03
.434
-.016
.435
-.027
.435
-.02
.434
-.059
.435
-.031
.434
-.015
.435
-.014
.434
-.047
.435
-.007
.434
-.04
.435
-.034
.434
-.025
.435
-.008
.434
-.001
.435
-.01
.434
-.008
.435
-.015
.434
-.03
.435
-.013
.434
-.014
.435
-.014
.434
-.012
.435
-.027
.434
-.058
.435
-.008
.434
-.038
.435
-.074
.434
-.107
.435
-.083
.434
-.022
.435
-.024
.435
-.032
.434
-.024
.435
-.019
.434
-.034
.435
-.051
.434
-.062
.435
-.031
.434
-.018
.435
-.003
.434
-.025
.435
-.063
.434
-.026
.435
-.022
.434
-.03
.435
-.026
.434
-.05
.435
-.036
.434
-.067
.435
-.002
.434
-.004
.435
-.018
.434
-.024
.435
-.002
.434
-.067
.435
-.022
.434
-.051
.435
-.059
h.434
l.435
-.003
.434
-.005
.435
-.009
.435
-.012
.434
-.015
.435
-.005
.434
-.038
.435
-.02
.434
-.018
.435
-.008
.434
-.002
.435
-.004
.434
-.002
.435
-.002
.434
-.002
.435
-.025
.434
-.039
.435
-.09
.434
-.095
.435
-.053
.434
-.014
h.435
l.434
-.035
.435
-.036
.434
-.024
.435
-.031
.434
-.079
.435
-.065
.434
-.035
.435
-.061
.434
-.031
.435
-.019
.434
-.028
.435
-.016
.435
-.043
.434
-.05
.435
-.021
.434
-.008
.435
-.05
.434
-.046
.435
-.065
.434
-.019
.435
-.002
.434
-.005
.435
-.016
.434
-.025
.435
-.015
.434
-.006
.435
-.014
.434
-.002
.435
-.025
.434
-.028
.435
-.044
.434
-.008
.435
-.016
.434
-.019
.435
-.016
.434
-.037
.435
-.032
.434
-.042
.435
-.025
.434
-.009
.435
-.016
.435
-.02
.434
-.034
.435
-.006
.434
-.018
.435
-.038
.434
-.042
.435
-.004
.434
-.025
.435
-.019
.434
-.017
.435
-.011
.434
-.019
.435
-.002
.434
-.002
.435
-.021
h.434
l.435
-.021
.434
-.027
h.435
l.434
-.013
.435
-.014
.434
-.023
.435
-.028
.434
-.032
.435
-.006
.434
-.016
.435
-.004
.434
-.01
.435
-.015
.434
-.049
.435
-.004
.435
-.025
.434
-.022
.435
-.008
.434
-.028
.435
-.026
.434
-.031
.435
-.041
.434
-.041
.435
-.029
.434
-.048
.435
-.008
.434
-.017
.435
-.012
.434
-.011
.435
-.003
.434
-.001
.435
-.004
.434
-.016
.435
-.015
.434
-.008
.435
-.014
.434
-.028
.435
-.011
.434
-.039
.435
-.013
.434
-.013
.435
-.012
.434
-.021
.435
-.008
.435
-.012
.434
-.042
.435
-.013
.434
-.024
.435
-.026
.434
-.003
.435
-.012
.434
-.021
.435
-.023
.434
-.004
.435
-.039
.434
-.022
.435
-.011
.434
-.014
.435
-.041
.434
-.017
.435
-.022
.434
-.014
.435
-.013
.434
-.041
.435
-.002
h.434
l.435
-.035
.434
-.057
.435
-.029
.434
-.004
.435
-.003
.434
-.001
.435
-.015
.434
-.011
.435
-.017
.435
-.047
.434
-.032
.435
-.024
.434
-.013
.435
-.052
.434
-.044
.435
-.009
.434
-.028
.435
-.009
.434
-.017
.435
-.005
.434
-.021
.435
-.015
.434
-.026
.435
-.033
.434
-.098
.435
-.044
.434
-.035
.435
-.065
.434
-.054
.435
-.026
.434
-.074
.435
-.006
.434
-.04
.435
-.015
.434
-.039
.435
-.015
.434
-.045
.435
-.021
.434
-.029
.435
-.04
.435
-.031
.434
-.046
.435
-.051
.434
-.014
.435
-.012
.434
-.058
.435
-.032
.434
-.035
.435
-.042
.434
-.029
.435
-.032
.434
-.023
.435
-.052
.434
-.021
.435
-.028
.434
-.051
.435
-.039
.434
-.07
.435
-.043
.434
-.013
.435
-.025
.434
-.02
.435
-.01
.434
-.077
.435
-.031
.434
-.028
.435
-.025
.434
-.056
.435
-.019
.435
-.011
.434
-.014
.435
-.007
.434
-.044
.435
-.025
.434
-.028
.435
-.006
.434
-.008
.435
-.01
.434
-.054
.435
-.036
.434
-.047
.435
-.047
.434
-.103
.435
-.099
.434
-.093
.435
-.066
.434
-.089
.435
-.107
.434
-.039
.435
-.102
.434
-.074
.435
-.052
.434
-.085
.435
-.061
.434
-.098
.435
-.045
.434
-.111
.435
-.051
.434
-.049
L770
60" aria-label="line"/>
</svg>
