<svg class="plot-d6a7b5" fill="currentColor" font-family="system-ui, sans-serif" font-size="10" text-anchor="middle" width="830" height="470" viewBox="0 0 830 470" xmlns="http://www.w3.org/2000/svg" xmlns:xlink="http://www.w3.org/1999/xlink" color="#1e90ff"><style>:where(.plot-d6a7b5){--plot-background: white;display:block;height:intrinsic;max-width:100%}:where(.plot-d6a7b5 text),:where(.plot-d6a7b5 tspan){white-space:pre}</style><g aria-label="y-grid" stroke="currentColor" stroke-opacity=".1"><line x1="60" x2="770" y1="410" y2="410"/><line x1="60" x2="770" y1="382.687" y2="382.687"/><line x1="60" x2="770" y1="355.375" y2="355.375"/><line x1="60" x2="770" y1="328.062" y2="328.062"/><line x1="60" x2="770" y1="300.749" y2="300.749"/><line x1="60" x2="770" y1="273.436" y2="273.436"/><line x1="60" x2="770" y1="246.124" y2="246.124"/><line x1="60" x2="770" y1="218.811" y2="218.811"/><line x1="60" x2="770" y1="191.498" y2="191.498"/><line x1="60" x2="770" y1="164.185" y2="164.185"/><line x1="60" x2="770" y1="136.873" y2="136.873"/><line x1="60" x2="770" y1="109.56" y2="109.56"/><line x1="60" x2="770" y1="82.247" y2="82.247"/></g><g aria-label="y-axis tick" fill="none" stroke="currentColor"><path transform="translate(60,410)" d="M0,0L-6,0"/><path transform="translate(60,382.6872755479323)" d="M0,0L-6,0"/><path transform="translate(60,355.37455109586455)" d="M0,0L-6,0"/><path transform="translate(60,328.0618266437968)" d="M0,0L-6,0"/><path transform="translate(60,300.74910219172904)" d="M0,0L-6,0"/><path transform="translate(60,273.43637773966134)" d="M0,0L-6,0"/><path transform="translate(60,246.12365328759364)" d="M0,0L-6,0"/><path transform="translate(60,218.8109288355259)" d="M0,0L-6,0"/><path transform="translate(60,191.49820438345813)" d="M0,0L-6,0"/><path transform="translate(60,164.18547993139043)" d="M0,0L-6,0"/><path transform="translate(60,136.8727554793227)" d="M0,0L-6,0"/><path transform="translate(60,109.56003102725498)" d="M0,0L-6,0"/><path transform="translate(60,82.24730657518727)" d="M0,0L-6,0"/></g><g aria-label="y-axis tick label" text-anchor="end" font-variant="tabular-nums"><text y=".32em" transform="translate(-9,0) translate(60,410)">0</text><text y=".32em" transform="translate(-9,0) translate(60,382.6872755479323)">50,000</text><text y=".32em" transform="translate(-9,0) translate(60,355.37455109586455)">100,000</text><text y=".32em" transform="translate(-9,0) translate(60,328.0618266437968)">150,000</text><text y=".32em" transform="translate(-9,0) translate(60,300.74910219172904)">200,000</text><text y=".32em" transform="translate(-9,0) translate(60,273.43637773966134)">250,000</text><text y=".32em" transform="translate(-9,0) translate(60,246.12365328759364)">300,000</text><text y=".32em" transform="translate(-9,0) translate(60,218.8109288355259)">350,000</text><text y=".32em" transform="translate(-9,0) translate(60,191.49820438345813)">400,000</text><text y=".32em" transform="translate(-9,0) translate(60,164.18547993139043)">450,000</text><text y=".32em" transform="translate(-9,0) translate(60,136.8727554793227)">500,000</text><text y=".32em" transform="translate(-9,0) translate(60,109.56003102725498)">550,000</text><text y=".32em" transform="translate(-9,0) translate(60,82.24730657518727)">600,000</text></g><g aria-label="y-axis label" text-anchor="start"><text y=".71em" transform="translate(-57,-57) translate(60,60)">↑ Total Vestiges</text></g><g aria-label="x-axis tick" fill="none" stroke="currentColor"><path transform="translate(95.67487684729065,410)" d="M0,0L0,6"/><path transform="translate(191.1576354679803,410)" d="M0,0L0,6"/><path transform="translate(287.6896551724138,410)" d="M0,0L0,6"/><path transform="translate(384.2216748768473,410)" d="M0,0L0,6"/><path transform="translate(479.70443349753697,410)" d="M0,0L0,6"/><path transform="translate(575.1871921182266,410)" d="M0,0L0,6"/><path transform="translate(671.7192118226601,410)" d="M0,0L0,6"/><path transform="translate(768.2512315270935,410)" d="M0,0L0,6"/></g><g aria-label="x-axis tick label" font-variant="tabular-nums"><text transform="translate(0,9) translate(95.67487684729065,410)"><tspan x="0" y=".71em">Apr</tspan><tspan x="0" dy="1em">2023</tspan></text><text y=".71em" transform="translate(0,9) translate(191.1576354679803,410)">Jul</text><text y=".71em" transform="translate(0,9) translate(287.6896551724138,410)">Oct</text><text transform="translate(0,9) translate(384.2216748768473,410)"><tspan x="0" y=".71em">Jan</tspan><tspan x="0" dy="1em">2024</tspan></text><text y=".71em" transform="translate(0,9) translate(479.70443349753697,410)">Apr</text><text y=".71em" transform="translate(0,9) translate(575.1871921182266,410)">Jul</text><text y=".71em" transform="translate(0,9) translate(671.7192118226601,410)">Oct</text><text transform="translate(0,9) translate(768.2512315270935,410)"><tspan x="0" y=".71em">Jan</tspan><tspan x="0" dy="1em">2025</tspan></text></g><g aria-label="line" fill="none" stroke="currentColor" stroke-width="1.5" stroke-linejoin="round" stroke-linecap="round"><path d="M60,410L60.7,409.726L61.399,408.723L62.099,408.182L62.798,407.799L63.498,407.166L64.197,406.668L64.897,406.201L65.596,405.256L66.296,404.508L66.995,403.62L67.695,402.245L68.394,400.949L69.094,400.276L69.793,399.302L70.493,398.641L71.192,397.882L71.892,396.891L72.591,396.223L73.291,395.569L73.99,394.681L74.69,393.696L75.389,392.998L76.089,391.808L76.788,391.244L77.488,390.718L78.187,389.769L78.887,388.861L79.586,388.162L80.286,387.187L80.985,386.216L81.685,385.331L82.384,383.959L83.084,382.871L83.783,382.24L84.483,381.584L85.182,381.089L85.882,380.69L86.581,379.949L87.281,379.225L87.98,378.72L88.68,377.551L89.379,376.33L90.079,375.235L90.778,373.909L91.478,373.01L92.177,372.244L92.877,371.201L93.576,370.328L94.276,369.696L94.975,368.557L95.675,367.457L96.374,366.43L97.074,364.957L97.773,363.56L98.473,362.833L99.172,361.754L99.872,360.78L100.571,359.908L101.271,358.673L101.97,357.513L102.67,356.505L103.369,355.293L104.069,354.132L104.768,353.132L105.468,351.786L106.167,350.959L106.867,350.212L107.567,349.17L108.266,348.317L108.966,347.68L109.665,346.858L110.365,345.972L111.064,345.145L111.764,344.061L112.463,342.987L113.163,342.374L113.862,341.524L114.562,340.861L115.261,340.424L115.961,339.748L116.66,339.076L117.36,338.362L118.059,337.438L118.759,336.498L119.458,335.765L120.158,334.749L120.857,334.035L121.557,333.569L122.256,332.499L122.956,331.759L123.655,331.359L124.355,330.689L125.054,330.043L125.754,329.37L126.453,328.445L127.153,327.641L127.852,326.949L128.552,326.347L129.251,325.812L129.951,325.301L130.65,324.462L131.35,323.984L132.049,323.498L132.749,322.71L133.448,321.816L134.148,321.116L134.847,320.214L135.547,319.607L136.246,319.043L136.946,318.225L137.645,317.666L138.345,317.133L139.044,316.422L139.744,315.866L140.443,315.194L141.143,314.482L141.842,313.836L142.542,313.3L143.241,312.739L143.941,312.249L144.64,311.788L145.34,311.138L146.039,310.643L146.739,310.197L147.438,309.46L148.138,308.503L148.837,307.805L149.537,306.897L150.236,306.353L150.936,305.73L151.635,305.086L152.335,304.499L153.034,304.086L153.734,303.267L154.433,302.624L155.133,301.948L155.833,300.967L156.532,300.245L157.232,299.613L157.931,298.968L158.631,298.264L159.33,297.719L160.03,297.185L160.729,296.48L161.429,296.063L162.128,295.511L162.828,295.012L163.527,294.543L164.227,293.883L164.926,293.406L165.626,292.909L166.325,292.243L167.025,291.767L167.724,291.327L168.424,290.852L169.123,290.291L169.823,289.764L170.522,289.215L171.222,288.619L171.921,288.151L172.621,287.579L173.32,287.098L174.02,286.619L174.719,285.955L175.419,285.403L176.118,284.967L176.818,284.395L177.517,283.851L178.217,283.457L178.916,282.782L179.616,282.266L180.315,281.735L181.015,281.144L181.714,280.641L182.414,280.343L183.113,279.795L183.813,279.348L184.512,278.816L185.212,278.183L185.911,277.682L186.611,277.131L187.31,276.524L188.01,275.971L188.709,275.486L189.409,274.695L190.108,274.052L190.808,273.682L191.507,273.09L192.207,272.563L192.906,272.246L193.606,271.685L194.305,271.322L195.005,270.891L195.704,270.367L196.404,269.879L197.103,269.492L197.803,268.882L198.502,268.434L199.202,268.03L199.901,267.461L200.601,266.951L201.3,266.549L202,265.932L202.7,265.54L203.399,265.095L204.099,264.529L204.798,264.07L205.498,263.548L206.197,262.951L206.897,262.428L207.596,261.984L208.296,261.473L208.995,260.874L209.695,260.404L210.394,259.964L211.094,259.499L211.793,259.144L212.493,258.537L213.192,258.157L213.892,257.727L214.591,257.187L215.291,256.757L215.99,256.235L216.69,255.54L217.389,255.016L218.089,254.707L218.788,253.997L219.488,253.475L220.187,253.011L220.887,252.362L221.586,251.924L222.286,251.454L222.985,250.912L223.685,250.361L224.384,249.887L225.084,249.184L225.783,248.644L226.483,248.167L227.182,247.59L227.882,246.954L228.581,246.304L229.281,245.347L229.98,244.763L230.68,244.323L231.379,243.727L232.079,243.248L232.778,242.901L233.478,242.359L234.177,241.882L234.877,241.548L235.576,241.003L236.276,240.506L236.975,240.146L237.675,239.57L238.374,239.031L239.074,238.621L239.773,238.082L240.473,237.408L241.172,236.84L241.872,236.13L242.571,235.628L243.271,235.143L243.97,234.426L244.67,233.887L245.369,233.387L246.069,232.787L246.768,232.29L247.468,231.957L248.167,231.476L248.867,231.114L249.567,230.715L250.266,230.232L250.966,229.747L251.665,229.298L252.365,228.85L253.064,228.387L253.764,227.995L254.463,227.56L255.163,227.129L255.862,226.764L256.562,226.344L257.261,225.911L257.961,225.443L258.66,224.883L259.36,224.483L260.059,224.051L260.759,223.598L261.458,223.266L262.158,222.909L262.857,222.538L263.557,222.311L264.256,222.032L264.956,221.396L265.655,220.956L266.355,220.543L267.054,219.983L267.754,219.749L268.453,219.435L269.153,219.14L269.852,218.904L270.552,218.547L271.251,218.183L271.951,217.766L272.65,217.328L273.35,216.629L274.049,216.035L274.749,215.717L275.448,215.288L276.148,214.992L276.847,214.636L277.547,214.226L278.246,213.857L278.946,213.565L279.645,213.116L280.345,212.622L281.044,212.258L281.744,211.761L282.443,211.509L283.143,211.26L283.842,210.928L284.542,210.614L285.241,210.335L285.941,209.881L286.64,209.503L287.34,209.116L288.039,208.593L288.739,208.202L289.438,207.994L290.138,207.609L290.837,207.325L291.537,207.071L292.236,206.75L292.936,206.434L293.635,206.072L294.335,205.595L295.034,205.085L295.734,204.573L296.433,204.04L297.133,203.656L297.833,203.363L298.532,203L299.232,202.696L299.931,202.368L300.631,201.927L301.33,201.631L302.03,201.353L302.729,200.736L303.429,200.208L304.128,199.883L304.828,199.548L305.527,199.307L306.227,199.117L306.926,198.715L307.626,198.449L308.325,198.184L309.025,197.669L309.724,197.115L310.424,196.699L311.123,196.134L311.823,195.835L312.522,195.561L313.222,195.09L313.921,194.785L314.621,194.495L315.32,194.082L316.02,193.642L316.719,193.36L317.419,192.893L318.118,192.593L318.818,192.4L319.517,191.984L320.217,191.706L320.916,191.536L321.616,191.281L322.315,191.02L323.015,190.582L323.714,190.066L324.414,189.548L325.113,189.203L325.813,188.862L326.512,188.664L327.212,188.365L327.911,188.014L328.611,187.821L329.31,187.619L330.01,187.272L330.709,187.061L331.409,186.769L332.108,186.45L332.808,186.164L333.507,185.978L334.207,185.721L334.906,185.581L335.606,185.388L336.305,185.128L337.005,184.952L337.704,184.834L338.404,184.424L339.103,184.021L339.803,183.626L340.502,183.233L341.202,182.933L341.901,182.747L342.601,182.443L343.3,182.256L344,181.992L344.7,181.607L345.399,181.293L346.099,181.018L346.798,180.606L347.498,180.314L348.197,180.031L348.897,179.698L349.596,179.424L350.296,179.114L350.995,178.656L351.695,178.384L352.394,178.129L353.094,177.861L353.793,177.552L354.493,177.248L355.192,176.913L355.892,176.719L356.591,176.598L357.291,176.311L357.99,176.07L358.69,175.885L359.389,175.661L360.089,175.448L360.788,175.282L361.488,175.019L362.187,174.778L362.887,174.642L363.586,174.332L364.286,174.038L364.985,173.91L365.685,173.726L366.384,173.582L367.084,173.422L367.783,173.117L368.483,172.811L369.182,172.588L369.882,172.379L370.581,172.165L371.281,171.895L371.98,171.683L372.68,171.53L373.379,171.35L374.079,171.05L374.778,170.862L375.478,170.635L376.177,170.254L376.877,169.946L377.576,169.788L378.276,169.542L378.975,169.221L379.675,168.967L380.374,168.639L381.074,168.39L381.773,168.11L382.473,167.782L383.172,167.529L383.872,167.291L384.571,166.989L385.271,166.732L385.97,166.496L386.67,166.127L387.369,165.907L388.069,165.736L388.768,165.379L389.468,165.253L390.167,165.037L390.867,164.688L391.567,164.507L392.266,164.297L392.966,164.036L393.665,163.877L394.365,163.715L395.064,163.551L395.764,163.432L396.463,163.208L397.163,162.903L397.862,162.622L398.562,162.279L399.261,161.87L399.961,161.683L400.66,161.461L401.36,161.246L402.059,160.949L402.759,160.619L403.458,160.372L404.158,160.193L404.857,159.902L405.557,159.553L406.256,159.065L406.956,158.762L407.655,158.39L408.355,158.175L409.054,157.978L409.754,157.713L410.453,157.599L411.153,157.432L411.852,157.01L412.552,156.546L413.251,156.206L413.951,155.733L414.65,155.471L415.35,155.247L416.049,154.978L416.749,154.713L417.448,154.488L418.148,154.134L418.847,153.924L419.547,153.571L420.246,153.046L420.946,152.678L421.645,152.412L422.345,152.017L423.044,151.754L423.744,151.562L424.443,151.156L425.143,150.83L425.842,150.465L426.542,150.106L427.241,149.688L427.941,149.13L428.64,148.524L429.34,148.193L430.039,147.849L430.739,147.347L431.438,147.006L432.138,146.751L432.837,146.422L433.537,146.143L434.236,145.863L434.936,145.413L435.635,145.02L436.335,144.858L437.034,144.507L437.734,144.207L438.433,143.86L439.133,143.518L439.833,143.314L440.532,143.014L441.232,142.565L441.931,142.151L442.631,141.875L443.33,141.451L444.03,141.238L444.729,140.966L445.429,140.659L446.128,140.459L446.828,140.222L447.527,139.908L448.227,139.658L448.926,139.405L449.626,138.938L450.325,138.676L451.025,138.454L451.724,138.254L452.424,138.067L453.123,137.819L453.823,137.587L454.522,137.445L455.222,137.269L455.921,136.892L456.621,136.655L457.32,136.476L458.02,136.124L458.719,135.878L459.419,135.774L460.118,135.563L460.818,135.282L461.517,135.071L462.217,134.783L462.916,134.471L463.616,134.173L464.315,133.712L465.015,133.392L465.714,133.186L466.414,133.149L467.113,133.145L467.813,133.143L468.512,133.14L469.212,133.136L469.911,133.131L470.611,133.126L471.31,133.101L472.01,133.083L472.709,133.071L473.409,133.042L474.108,132.993L474.808,132.959L475.507,132.916L476.207,132.83L476.906,132.716L477.606,132.429L478.305,132.235L479.005,132.053L479.704,131.889L480.404,131.733L481.103,131.553L481.803,131.326L482.502,131.121L483.202,130.879L483.901,130.628L484.601,130.406L485.3,130.135L486,129.929L486.7,129.772L487.399,129.544L488.099,129.3L488.798,129.194L489.498,129.035L490.197,128.8L490.897,128.667L491.596,128.528L492.296,128.322L492.995,128.157L493.695,127.917L494.394,127.716L495.094,127.596L495.793,127.413L496.493,127.254L497.192,127.104L497.892,127L498.591,126.871L499.291,126.794L499.99,126.656L500.69,126.509L501.389,126.323L502.089,126.061L502.788,125.895L503.488,125.788L504.187,125.557L504.887,125.382L505.586,125.223L506.286,125.057L506.985,124.826L507.685,124.666L508.384,124.444L509.084,124.292L509.783,124.175L510.483,123.996L511.182,123.797L511.882,123.59L512.581,123.455L513.281,123.27L513.98,123.112L514.68,122.914L515.379,122.632L516.079,122.421L516.778,122.148L517.478,121.998L518.177,121.865L518.877,121.68L519.576,121.496L520.276,121.341L520.975,121.132L521.675,120.896L522.374,120.749L523.074,120.484L523.773,120.25L524.473,120.06L525.172,119.784L525.872,119.626L526.571,119.504L527.271,119.407L527.97,119.272L528.67,119.103L529.369,118.918L530.069,118.529L530.768,118.336L531.468,118.042L532.167,117.903L532.867,117.769L533.567,117.603L534.266,117.356L534.966,117.273L535.665,117.092L536.365,116.893L537.064,116.714L537.764,116.441L538.463,116.102L539.163,115.926L539.862,115.629L540.562,115.492L541.261,115.308L541.961,114.977L542.66,114.734L543.36,114.569L544.059,114.301L544.759,114.014L545.458,113.86L546.158,113.506L546.857,113.346L547.557,113.186L548.256,112.954L548.956,112.715L549.655,112.552L550.355,112.283L551.054,112.072L551.754,111.852L552.453,111.528L553.153,111.205L553.852,110.973L554.552,110.75L555.251,110.454L555.951,110.277L556.65,110.094L557.35,109.929L558.049,109.694L558.749,109.492L559.448,109.276L560.148,109.077L560.847,108.865L561.547,108.627L562.246,108.554L562.946,108.444L563.645,108.275L564.345,108.143L565.044,107.825L565.744,107.64L566.443,107.51L567.143,107.337L567.842,106.968L568.542,106.842L569.241,106.656L569.941,106.404L570.64,106.214L571.34,106.09L572.039,105.926L572.739,105.824L573.438,105.684L574.138,105.525L574.837,105.359L575.537,105.059L576.236,104.849L576.936,104.707L577.635,104.444L578.335,104.254L579.034,104.063L579.734,103.92L580.433,103.776L581.133,103.668L581.833,103.484L582.532,103.279L583.232,103.189L583.931,103.066L584.631,102.933L585.33,102.809L586.03,102.662L586.729,102.486L587.429,102.293L588.128,102.085L588.828,101.97L589.527,101.848L590.227,101.651L590.926,101.477L591.626,101.367L592.325,101.17L593.025,100.988L593.724,100.845L594.424,100.672L595.123,100.493L595.823,100.3L596.522,100.036L597.222,99.674L597.921,99.449L598.621,99.209L599.32,99.045L600.02,98.885L600.719,98.665L601.419,98.511L602.118,98.391L602.818,98.243L603.517,98.09L604.217,97.92L604.916,97.739L605.616,97.483L606.315,97.299L607.015,97.004L607.714,96.726L608.414,96.442L609.113,96.154L609.813,95.899L610.512,95.605L611.212,95.29L611.911,95.131L612.611,94.923L613.31,94.547L614.01,94.351L614.709,94.173L615.409,93.928L616.108,93.759L616.808,93.673L617.507,93.166L618.207,92.728L618.906,92.291L619.606,91.823L620.305,91.445L621.005,91.173L621.704,90.749L622.404,90.302L623.103,90.028L623.803,89.769L624.502,89.455L625.202,89.166L625.901,88.845L626.601,88.489L627.3,88.255L628,88.11L628.7,87.846L629.399,87.697L630.099,87.538L630.798,87.33L631.498,87.132L632.197,86.902L632.897,86.626L633.596,86.349L634.296,86.136L634.995,85.92L635.695,85.73L636.394,85.563L637.094,85.447L637.793,85.36L638.493,85.261L639.192,85.135L639.892,84.987L640.591,84.884L641.291,84.717L641.99,84.605L642.69,84.474L643.389,84.359L644.089,84.214L644.788,84.097L645.488,83.887L646.187,83.735L646.887,83.568L647.586,83.44L648.286,83.249L648.985,83.051L649.685,82.877L650.384,82.743L651.084,82.579L651.783,82.458L652.483,82.321L653.182,82.23L653.882,82.119L654.581,81.998L655.281,81.897L655.98,81.72L656.68,81.576L657.379,81.452L658.079,81.327L658.778,81.179L659.478,81.048L660.177,80.879L660.877,80.771L661.576,80.58L662.276,80.322L662.975,80.076L663.675,79.733L664.374,79.584L665.074,79.416L665.773,79.239L666.473,79.129L667.172,78.944L667.872,78.761L668.571,78.576L669.271,78.335L669.97,77.908L670.67,77.719L671.369,77.596L672.069,77.333L672.768,77.175L673.468,77.089L674.167,76.914L674.867,76.767L675.567,76.652L676.266,76.449L676.966,76.218L677.665,75.992L678.365,75.67L679.064,75.546L679.764,75.437L680.463,75.281L681.163,75.143L681.862,75.065L682.562,74.971L683.261,74.832L683.961,74.761L684.66,74.63L685.36,74.513L686.059,74.425L686.759,74.315L687.458,74.249L688.158,74.141L688.857,73.985L689.557,73.853L690.256,73.754L690.956,73.55L691.655,73.39L692.355,73.245L693.054,73.033L693.754,72.972L694.453,72.893L695.153,72.753L695.852,72.67L696.552,72.582L697.251,72.472L697.951,72.401L698.65,72.316L699.35,72.112L700.049,71.986L700.749,71.941L701.448,71.886L702.148,71.808L702.847,71.694L703.547,71.584L704.246,71.417L704.946,71.328L705.645,71.146L706.345,70.891L707.044,70.704L707.744,70.424L708.443,70.225L709.143,70.098L709.842,69.976L710.542,69.857L711.241,69.717L711.941,69.609L712.64,69.516L713.34,69.353L714.039,69.191L714.739,69.015L715.438,68.923L716.138,68.76L716.837,68.695L717.537,68.615L718.236,68.455L718.936,68.354L719.635,68.25L720.335,68.132L721.034,67.983L721.734,67.846L722.433,67.699L723.133,67.613L723.833,67.492L724.532,67.349L725.232,67.224L725.931,67.107L726.631,66.948L727.33,66.837L728.03,66.71L728.729,66.513L729.429,66.317L730.128,66.24L730.828,66.13L731.527,66.003L732.227,65.921L732.926,65.807L733.626,65.718L734.325,65.671L735.025,65.56L735.724,65.505L736.424,65.475L737.123,65.399L737.823,65.294L738.522,65.24L739.222,65.179L739.921,65.063L740.621,64.881L741.32,64.762L742.02,64.593L742.719,64.528L743.419,64.433L744.118,64.359L744.818,64.256L745.517,64.154L746.217,64.101L746.916,64.027L747.616,63.901L748.315,63.804L749.015,63.711L749.714,63.544L750.414,63.379L751.113,63.292L751.813,63.134L752.512,63.048L753.212,62.89L753.911,62.772L754.611,62.715L755.31,62.646L756.01,62.529L756.709,62.434L757.409,62.326L758.108,62.135L758.808,62.077L759.507,61.936L760.207,61.821L760.906,61.728L761.606,61.655L762.305,61.563L763.005,61.496L763.704,61.407L764.404,61.312L765.103,61.16L765.803,61.034L766.502,60.772L767.202,60.585L767.901,60.435L768.601,60.258L769.3,60.124L770,60"/></g></svg>