<svg class="plot-d6a7b5" fill="currentColor" font-family="system-ui, sans-serif" font-size="10" text-anchor="middle" width="830" height="470" viewBox="0 0 830 470" xmlns="http://www.w3.org/2000/svg" xmlns:xlink="http://www.w3.org/1999/xlink" color="#1e90ff"><style>:where(.plot-d6a7b5){--plot-background: white;display:block;height:intrinsic;max-width:100%}:where(.plot-d6a7b5 text),:where(.plot-d6a7b5 tspan){white-space:pre}</style><g aria-label="y-grid" stroke="currentColor" stroke-opacity=".1"><line x1="60" x2="770" y1="410" y2="410"/><line x1="60" x2="770" y1="383.085" y2="383.085"/><line x1="60" x2="770" y1="356.171" y2="356.171"/><line x1="60" x2="770" y1="329.256" y2="329.256"/><line x1="60" x2="770" y1="302.342" y2="302.342"/><line x1="60" x2="770" y1="275.427" y2="275.427"/><line x1="60" x2="770" y1="248.513" y2="248.513"/><line x1="60" x2="770" y1="221.598" y2="221.598"/><line x1="60" x2="770" y1="194.684" y2="194.684"/><line x1="60" x2="770" y1="167.769" y2="167.769"/><line x1="60" x2="770" y1="140.855" y2="140.855"/><line x1="60" x2="770" y1="113.94" y2="113.94"/><line x1="60" x2="770" y1="87.025" y2="87.025"/><line x1="60" x2="770" y1="60.111" y2="60.111"/></g><g aria-label="y-axis tick" fill="none" stroke="currentColor"><path transform="translate(60,410)" d="M0,0L-6,0"/><path transform="translate(60,383.08545291799834)" d="M0,0L-6,0"/><path transform="translate(60,356.17090583599656)" d="M0,0L-6,0"/><path transform="translate(60,329.2563587539949)" d="M0,0L-6,0"/><path transform="translate(60,302.3418116719932)" d="M0,0L-6,0"/><path transform="translate(60,275.42726458999147)" d="M0,0L-6,0"/><path transform="translate(60,248.5127175079898)" d="M0,0L-6,0"/><path transform="translate(60,221.5981704259881)" d="M0,0L-6,0"/><path transform="translate(60,194.68362334398637)" d="M0,0L-6,0"/><path transform="translate(60,167.76907626198465)" d="M0,0L-6,0"/><path transform="translate(60,140.85452917998296)" d="M0,0L-6,0"/><path transform="translate(60,113.93998209798127)" d="M0,0L-6,0"/><path transform="translate(60,87.02543501597957)" d="M0,0L-6,0"/><path transform="translate(60,60.11088793397787)" d="M0,0L-6,0"/></g><g aria-label="y-axis tick label" text-anchor="end" font-variant="tabular-nums"><text y=".32em" transform="translate(-9,0) translate(60,410)">0</text><text y=".32em" transform="translate(-9,0) translate(60,383.08545291799834)">50,000</text><text y=".32em" transform="translate(-9,0) translate(60,356.17090583599656)">100,000</text><text y=".32em" transform="translate(-9,0) translate(60,329.2563587539949)">150,000</text><text y=".32em" transform="translate(-9,0) translate(60,302.3418116719932)">200,000</text><text y=".32em" transform="translate(-9,0) translate(60,275.42726458999147)">250,000</text><text y=".32em" transform="translate(-9,0) translate(60,248.5127175079898)">300,000</text><text y=".32em" transform="translate(-9,0) translate(60,221.5981704259881)">350,000</text><text y=".32em" transform="translate(-9,0) translate(60,194.68362334398637)">400,000</text><text y=".32em" transform="translate(-9,0) translate(60,167.76907626198465)">450,000</text><text y=".32em" transform="translate(-9,0) translate(60,140.85452917998296)">500,000</text><text y=".32em" transform="translate(-9,0) translate(60,113.93998209798127)">550,000</text><text y=".32em" transform="translate(-9,0) translate(60,87.02543501597957)">600,000</text><text y=".32em" transform="translate(-9,0) translate(60,60.11088793397787)">650,000</text></g><g aria-label="y-axis label" text-anchor="start"><text y=".71em" transform="translate(-57,-57) translate(60,60)">↑ Total Vestiges</text></g><g aria-label="x-axis tick" fill="none" stroke="currentColor"><path transform="translate(94.38746438746439,410)" d="M0,0L0,6"/><path transform="translate(186.42450142450141,410)" d="M0,0L0,6"/><path transform="translate(279.47293447293447,410)" d="M0,0L0,6"/><path transform="translate(372.5213675213675,410)" d="M0,0L0,6"/><path transform="translate(464.55840455840456,410)" d="M0,0L0,6"/><path transform="translate(556.5954415954416,410)" d="M0,0L0,6"/><path transform="translate(649.6438746438746,410)" d="M0,0L0,6"/><path transform="translate(742.6923076923076,410)" d="M0,0L0,6"/></g><g aria-label="x-axis tick label" font-variant="tabular-nums"><text transform="translate(0,9) translate(94.38746438746439,410)"><tspan x="0" y=".71em">Apr</tspan><tspan x="0" dy="1em">2023</tspan></text><text y=".71em" transform="translate(0,9) translate(186.42450142450141,410)">Jul</text><text y=".71em" transform="translate(0,9) translate(279.47293447293447,410)">Oct</text><text transform="translate(0,9) translate(372.5213675213675,410)"><tspan x="0" y=".71em">Jan</tspan><tspan x="0" dy="1em">2024</tspan></text><text y=".71em" transform="translate(0,9) translate(464.55840455840456,410)">Apr</text><text y=".71em" transform="translate(0,9) translate(556.5954415954416,410)">Jul</text><text y=".71em" transform="translate(0,9) translate(649.6438746438746,410)">Oct</text><text transform="translate(0,9) translate(742.6923076923076,410)"><tspan x="0" y=".71em">Jan</tspan><tspan x="0" dy="1em">2025</tspan></text></g><g aria-label="line" fill="none" stroke="currentColor" stroke-width="1.5" stroke-linejoin="round" stroke-linecap="round"><path d="M60,410L60.674,409.73L61.349,408.741L62.023,408.209L62.697,407.831L63.371,407.207L64.046,406.716L64.72,406.256L65.394,405.325L66.068,404.588L66.743,403.713L67.417,402.358L68.091,401.081L68.765,400.418L69.44,399.458L70.114,398.806L70.788,398.059L71.462,397.082L72.137,396.424L72.811,395.779L73.485,394.904L74.16,393.934L74.834,393.246L75.508,392.073L76.182,391.518L76.857,390.999L77.531,390.064L78.205,389.169L78.879,388.48L79.554,387.52L80.228,386.562L80.902,385.69L81.576,384.339L82.251,383.266L82.925,382.645L83.599,381.998L84.274,381.511L84.948,381.117L85.622,380.388L86.296,379.674L86.971,379.176L87.645,378.024L88.319,376.821L88.993,375.742L89.668,374.435L90.342,373.549L91.016,372.794L91.69,371.766L92.365,370.906L93.039,370.283L93.713,369.161L94.387,368.077L95.062,367.065L95.736,365.614L96.41,364.237L97.085,363.52L97.759,362.457L98.433,361.498L99.107,360.638L99.782,359.421L100.456,358.278L101.13,357.285L101.804,356.091L102.479,354.946L103.153,353.961L103.827,352.635L104.501,351.819L105.176,351.084L105.85,350.057L106.524,349.217L107.198,348.589L107.873,347.779L108.547,346.905L109.221,346.091L109.896,345.022L110.57,343.964L111.244,343.36L111.918,342.523L112.593,341.869L113.267,341.438L113.941,340.773L114.615,340.11L115.29,339.406L115.964,338.496L116.638,337.57L117.312,336.847L117.987,335.846L118.661,335.143L119.335,334.683L120.009,333.629L120.684,332.9L121.358,332.505L122.032,331.845L122.707,331.208L123.381,330.545L124.055,329.634L124.729,328.842L125.404,328.159L126.078,327.566L126.752,327.04L127.426,326.536L128.101,325.709L128.775,325.238L129.449,324.759L130.123,323.983L130.798,323.102L131.472,322.411L132.146,321.523L132.821,320.925L133.495,320.369L134.169,319.563L134.843,319.012L135.518,318.487L136.192,317.786L136.866,317.238L137.54,316.576L138.215,315.874L138.889,315.238L139.563,314.71L140.237,314.157L140.912,313.674L141.586,313.22L142.26,312.579L142.934,312.091L143.609,311.652L144.283,310.926L144.957,309.983L145.632,309.295L146.306,308.4L146.98,307.864L147.654,307.25L148.329,306.616L149.003,306.037L149.677,305.63L150.351,304.823L151.026,304.189L151.7,303.523L152.374,302.557L153.048,301.845L153.723,301.223L154.397,300.587L155.071,299.893L155.745,299.356L156.42,298.83L157.094,298.135L157.768,297.724L158.443,297.18L159.117,296.688L159.791,296.226L160.465,295.575L161.14,295.106L161.814,294.616L162.488,293.96L163.162,293.491L163.837,293.057L164.511,292.589L165.185,292.036L165.859,291.517L166.534,290.976L167.208,290.389L167.882,289.928L168.557,289.364L169.231,288.889L169.905,288.418L170.579,287.764L171.254,287.22L171.928,286.79L172.602,286.226L173.276,285.69L173.951,285.302L174.625,284.636L175.299,284.128L175.973,283.604L176.648,283.023L177.322,282.527L177.996,282.233L178.67,281.693L179.345,281.253L180.019,280.728L180.693,280.105L181.368,279.611L182.042,279.068L182.716,278.47L183.39,277.925L184.065,277.447L184.739,276.667L185.413,276.034L186.087,275.669L186.762,275.086L187.436,274.567L188.11,274.254L188.784,273.701L189.459,273.344L190.133,272.919L190.807,272.403L191.481,271.921L192.156,271.541L192.83,270.939L193.504,270.498L194.179,270.099L194.853,269.539L195.527,269.036L196.201,268.64L196.876,268.033L197.55,267.646L198.224,267.207L198.898,266.65L199.573,266.197L200.247,265.683L200.921,265.095L201.595,264.58L202.27,264.141L202.944,263.639L203.618,263.048L204.292,262.585L204.967,262.151L205.641,261.693L206.315,261.343L206.99,260.745L207.664,260.37L208.338,259.947L209.012,259.415L209.687,258.991L210.361,258.476L211.035,257.792L211.709,257.276L212.384,256.971L213.058,256.272L213.732,255.757L214.406,255.299L215.081,254.661L215.755,254.229L216.429,253.765L217.104,253.231L217.778,252.689L218.452,252.221L219.126,251.529L219.801,250.996L220.475,250.526L221.149,249.957L221.823,249.331L222.498,248.69L223.172,247.748L223.846,247.172L224.52,246.739L225.195,246.151L225.869,245.679L226.543,245.337L227.217,244.803L227.892,244.333L228.566,244.003L229.24,243.466L229.915,242.977L230.589,242.622L231.263,242.054L231.937,241.524L232.612,241.12L233.286,240.589L233.96,239.924L234.634,239.364L235.309,238.665L235.983,238.171L236.657,237.693L237.331,236.985L238.006,236.454L238.68,235.962L239.354,235.37L240.028,234.88L240.703,234.553L241.377,234.079L242.051,233.722L242.726,233.329L243.4,232.853L244.074,232.375L244.748,231.933L245.423,231.491L246.097,231.035L246.771,230.648L247.445,230.219L248.12,229.795L248.794,229.436L249.468,229.021L250.142,228.594L250.817,228.134L251.491,227.581L252.165,227.187L252.84,226.761L253.514,226.315L254.188,225.988L254.862,225.637L255.537,225.271L256.211,225.047L256.885,224.772L257.559,224.146L258.234,223.712L258.908,223.305L259.582,222.753L260.256,222.522L260.931,222.213L261.605,221.922L262.279,221.69L262.953,221.338L263.628,220.98L264.302,220.568L264.976,220.137L265.651,219.448L266.325,218.863L266.999,218.549L267.673,218.126L268.348,217.835L269.022,217.484L269.696,217.08L270.37,216.717L271.045,216.428L271.719,215.986L272.393,215.5L273.067,215.14L273.742,214.651L274.416,214.402L275.09,214.157L275.764,213.83L276.439,213.521L277.113,213.246L277.787,212.799L278.462,212.426L279.136,212.045L279.81,211.529L280.484,211.143L281.159,210.939L281.833,210.559L282.507,210.28L283.181,210.029L283.856,209.713L284.53,209.402L285.204,209.045L285.878,208.575L286.553,208.072L287.227,207.568L287.901,207.043L288.575,206.664L289.25,206.376L289.924,206.018L290.598,205.719L291.273,205.395L291.947,204.96L292.621,204.668L293.295,204.395L293.97,203.787L294.644,203.267L295.318,202.946L295.992,202.616L296.667,202.378L297.341,202.191L298.015,201.796L298.689,201.533L299.364,201.272L300.038,200.765L300.712,200.218L301.387,199.808L302.061,199.252L302.735,198.958L303.409,198.687L304.084,198.223L304.758,197.923L305.432,197.637L306.106,197.23L306.781,196.796L307.455,196.518L308.129,196.058L308.803,195.762L309.478,195.572L310.152,195.163L310.826,194.888L311.5,194.721L312.175,194.469L312.849,194.212L313.523,193.781L314.198,193.273L314.872,192.762L315.546,192.422L316.22,192.086L316.895,191.89L317.569,191.596L318.243,191.25L318.917,191.06L319.592,190.861L320.266,190.519L320.94,190.311L321.614,190.024L322.289,189.709L322.963,189.427L323.637,189.244L324.311,188.991L324.986,188.852L325.66,188.663L326.334,188.406L327.009,188.233L327.683,188.116L328.357,187.712L329.031,187.315L329.706,186.926L330.38,186.539L331.054,186.243L331.728,186.06L332.403,185.761L333.077,185.576L333.751,185.316L334.425,184.936L335.1,184.627L335.774,184.356L336.448,183.951L337.123,183.663L337.797,183.384L338.471,183.055L339.145,182.786L339.82,182.48L340.494,182.029L341.168,181.761L341.842,181.509L342.517,181.245L343.191,180.941L343.865,180.641L344.539,180.311L345.214,180.12L345.888,180.001L346.562,179.718L347.236,179.481L347.911,179.298L348.585,179.077L349.259,178.868L349.934,178.703L350.608,178.444L351.282,178.207L351.956,178.074L352.631,177.767L353.305,177.478L353.979,177.352L354.653,177.171L355.328,177.028L356.002,176.87L356.676,176.57L357.35,176.269L358.025,176.049L358.699,175.843L359.373,175.632L360.047,175.366L360.722,175.158L361.396,175.007L362.07,174.829L362.745,174.533L363.419,174.349L364.093,174.124L364.767,173.749L365.442,173.446L366.116,173.29L366.79,173.047L367.464,172.731L368.139,172.481L368.813,172.158L369.487,171.912L370.161,171.637L370.836,171.313L371.51,171.063L372.184,170.829L372.858,170.532L373.533,170.278L374.207,170.046L374.881,169.683L375.556,169.465L376.23,169.297L376.904,168.945L377.578,168.821L378.253,168.608L378.927,168.264L379.601,168.086L380.275,167.879L380.95,167.622L381.624,167.465L382.298,167.306L382.972,167.144L383.647,167.026L384.321,166.806L384.995,166.506L385.67,166.228L386.344,165.89L387.018,165.487L387.692,165.303L388.367,165.084L389.041,164.873L389.715,164.58L390.389,164.255L391.064,164.011L391.738,163.835L392.412,163.548L393.086,163.204L393.761,162.723L394.435,162.424L395.109,162.058L395.783,161.846L396.458,161.652L397.132,161.391L397.806,161.279L398.481,161.114L399.155,160.698L399.829,160.241L400.503,159.906L401.178,159.44L401.852,159.181L402.526,158.961L403.2,158.696L403.875,158.435L404.549,158.213L405.223,157.865L405.897,157.657L406.572,157.31L407.246,156.792L407.92,156.429L408.594,156.167L409.269,155.778L409.943,155.519L410.617,155.33L411.292,154.93L411.966,154.608L412.64,154.249L413.314,153.895L413.989,153.483L414.663,152.933L415.337,152.336L416.011,152.01L416.686,151.671L417.36,151.176L418.034,150.84L418.708,150.588L419.383,150.264L420.057,149.99L420.731,149.714L421.406,149.271L422.08,148.883L422.754,148.723L423.428,148.378L424.103,148.082L424.777,147.74L425.451,147.403L426.125,147.202L426.8,146.906L427.474,146.464L428.148,146.056L428.822,145.784L429.497,145.366L430.171,145.157L430.845,144.888L431.519,144.586L432.194,144.389L432.868,144.155L433.542,143.845L434.217,143.599L434.891,143.35L435.565,142.889L436.239,142.632L436.914,142.412L437.588,142.215L438.262,142.031L438.936,141.787L439.611,141.559L440.285,141.419L440.959,141.245L441.633,140.873L442.308,140.64L442.982,140.463L443.656,140.117L444.33,139.874L445.005,139.772L445.679,139.564L446.353,139.286L447.028,139.079L447.702,138.796L448.376,138.488L449.05,138.194L449.725,137.739L450.399,137.425L451.073,137.222L451.747,137.186L452.422,137.181L453.096,137.179L453.77,137.176L454.444,137.173L455.119,137.168L455.793,137.162L456.467,137.138L457.142,137.12L457.816,137.109L458.49,137.079L459.164,137.032L459.839,136.998L460.513,136.955L461.187,136.871L461.861,136.759L462.536,136.476L463.21,136.284L463.884,136.105L464.558,135.943L465.233,135.789L465.907,135.613L466.581,135.388L467.255,135.187L467.93,134.948L468.604,134.701L469.278,134.482L469.953,134.215L470.627,134.012L471.301,133.857L471.975,133.633L472.65,133.392L473.324,133.288L473.998,133.131L474.672,132.899L475.347,132.768L476.021,132.632L476.695,132.428L477.369,132.266L478.044,132.03L478.718,131.831L479.392,131.713L480.066,131.533L480.741,131.376L481.415,131.228L482.089,131.126L482.764,130.998L483.438,130.923L484.112,130.786L484.786,130.642L485.461,130.459L486.135,130.201L486.809,130.037L487.483,129.931L488.158,129.704L488.832,129.531L489.506,129.374L490.18,129.211L490.855,128.983L491.529,128.826L492.203,128.607L492.877,128.457L493.552,128.342L494.226,128.165L494.9,127.969L495.575,127.765L496.249,127.632L496.923,127.45L497.597,127.294L498.272,127.099L498.946,126.821L499.62,126.613L500.294,126.345L500.969,126.197L501.643,126.066L502.317,125.883L502.991,125.702L503.666,125.549L504.34,125.344L505.014,125.111L505.689,124.966L506.363,124.705L507.037,124.474L507.711,124.286L508.386,124.015L509.06,123.859L509.734,123.738L510.408,123.643L511.083,123.511L511.757,123.343L512.431,123.161L513.105,122.778L513.78,122.588L514.454,122.298L515.128,122.161L515.802,122.029L516.477,121.865L517.151,121.622L517.825,121.54L518.5,121.362L519.174,121.167L519.848,120.99L520.522,120.72L521.197,120.387L521.871,120.213L522.545,119.92L523.219,119.785L523.894,119.604L524.568,119.278L525.242,119.039L525.916,118.876L526.591,118.612L527.265,118.329L527.939,118.177L528.613,117.829L529.288,117.671L529.962,117.513L530.636,117.285L531.311,117.049L531.985,116.889L532.659,116.623L533.333,116.415L534.008,116.198L534.682,115.879L535.356,115.561L536.03,115.333L536.705,115.113L537.379,114.821L538.053,114.646L538.727,114.466L539.402,114.303L540.076,114.072L540.75,113.873L541.425,113.66L542.099,113.464L542.773,113.255L543.447,113.021L544.122,112.949L544.796,112.84L545.47,112.674L546.144,112.543L546.819,112.23L547.493,112.048L548.167,111.92L548.841,111.75L549.516,111.386L550.19,111.261L550.864,111.078L551.538,110.83L552.213,110.643L552.887,110.521L553.561,110.359L554.236,110.258L554.91,110.121L555.584,109.964L556.258,109.801L556.933,109.504L557.607,109.298L558.281,109.157L558.955,108.898L559.63,108.712L560.304,108.523L560.978,108.382L561.652,108.24L562.327,108.133L563.001,107.953L563.675,107.75L564.349,107.661L565.024,107.541L565.698,107.41L566.372,107.288L567.047,107.142L567.721,106.969L568.395,106.779L569.069,106.574L569.744,106.46L570.418,106.34L571.092,106.146L571.766,105.974L572.441,105.866L573.115,105.672L573.789,105.493L574.463,105.352L575.138,105.182L575.812,105.005L576.486,104.815L577.16,104.555L577.835,104.199L578.509,103.977L579.183,103.74L579.858,103.578L580.532,103.421L581.206,103.204L581.88,103.052L582.555,102.934L583.229,102.788L583.903,102.637L584.577,102.47L585.252,102.291L585.926,102.039L586.6,101.858L587.274,101.567L587.949,101.293L588.623,101.013L589.297,100.729L589.972,100.478L590.646,100.189L591.32,99.878L591.994,99.722L592.669,99.516L593.343,99.146L594.017,98.952L594.691,98.777L595.366,98.536L596.04,98.369L596.714,98.284L597.388,97.785L598.063,97.353L598.737,96.923L599.411,96.462L600.085,96.089L600.76,95.821L601.434,95.403L602.108,94.963L602.783,94.693L603.457,94.437L604.131,94.128L604.805,93.843L605.48,93.527L606.154,93.176L606.828,92.946L607.502,92.803L608.177,92.543L608.851,92.395L609.525,92.239L610.199,92.034L610.874,91.839L611.548,91.613L612.222,91.34L612.896,91.067L613.571,90.857L614.245,90.645L614.919,90.458L615.594,90.292L616.268,90.178L616.942,90.093L617.616,89.995L618.291,89.871L618.965,89.725L619.639,89.623L620.313,89.46L620.988,89.349L621.662,89.22L622.336,89.106L623.01,88.964L623.685,88.849L624.359,88.641L625.033,88.491L625.708,88.327L626.382,88.201L627.056,88.013L627.73,87.818L628.405,87.646L629.079,87.514L629.753,87.353L630.427,87.233L631.102,87.098L631.776,87.009L632.45,86.899L633.124,86.779L633.799,86.68L634.473,86.505L635.147,86.364L635.821,86.242L636.496,86.119L637.17,85.973L637.844,85.843L638.519,85.678L639.193,85.571L639.867,85.383L640.541,85.128L641.216,84.886L641.89,84.548L642.564,84.401L643.238,84.235L643.913,84.061L644.587,83.952L645.261,83.77L645.935,83.59L646.61,83.408L647.284,83.17L647.958,82.749L648.632,82.564L649.307,82.442L649.981,82.182L650.655,82.027L651.33,81.942L652.004,81.77L652.678,81.625L653.352,81.512L654.027,81.311L654.701,81.084L655.375,80.861L656.049,80.544L656.724,80.422L657.398,80.315L658.072,80.161L658.746,80.024L659.421,79.947L660.095,79.855L660.769,79.718L661.443,79.649L662.118,79.52L662.792,79.404L663.466,79.317L664.141,79.209L664.815,79.143L665.489,79.038L666.163,78.883L666.838,78.754L667.512,78.656L668.186,78.455L668.86,78.297L669.535,78.154L670.209,77.945L670.883,77.885L671.557,77.808L672.232,77.669L672.906,77.588L673.58,77.501L674.255,77.392L674.929,77.322L675.603,77.239L676.277,77.038L676.952,76.914L677.626,76.869L678.3,76.815L678.974,76.738L679.649,76.626L680.323,76.517L680.997,76.353L681.671,76.266L682.346,76.086L683.02,75.835L683.694,75.65L684.368,75.375L685.043,75.178L685.717,75.053L686.391,74.933L687.066,74.816L687.74,74.678L688.414,74.572L689.088,74.48L689.763,74.319L690.437,74.16L691.111,73.986L691.785,73.895L692.46,73.735L693.134,73.67L693.808,73.592L694.482,73.435L695.157,73.335L695.831,73.232L696.505,73.116L697.179,72.969L697.854,72.834L698.528,72.69L699.202,72.604L699.877,72.485L700.551,72.345L701.225,72.221L701.899,72.106L702.574,71.949L703.248,71.84L703.922,71.714L704.596,71.521L705.271,71.328L705.945,71.251L706.619,71.143L707.293,71.018L707.968,70.937L708.642,70.825L709.316,70.737L709.991,70.69L710.665,70.582L711.339,70.527L712.013,70.498L712.688,70.423L713.362,70.32L714.036,70.266L714.71,70.206L715.385,70.092L716.059,69.912L716.733,69.795L717.407,69.629L718.082,69.564L718.756,69.471L719.43,69.397L720.104,69.296L720.779,69.196L721.453,69.143L722.127,69.071L722.802,68.947L723.476,68.851L724.15,68.76L724.824,68.595L725.499,68.432L726.173,68.346L726.847,68.191L727.521,68.106L728.196,67.951L728.87,67.834L729.544,67.778L730.218,67.71L730.893,67.594L731.567,67.501L732.241,67.395L732.915,67.206L733.59,67.15L734.264,67.011L734.938,66.897L735.613,66.805L736.287,66.733L736.961,66.643L737.635,66.576L738.31,66.489L738.984,66.395L739.658,66.245L740.332,66.121L741.007,65.863L741.681,65.679L742.355,65.531L743.029,65.357L743.704,65.225L744.378,65.102L745.052,64.893L745.726,64.676L746.401,64.561L747.075,64.364L747.749,64.245L748.424,64.172L749.098,64.037L749.772,63.944L750.446,63.841L751.121,63.771L751.795,63.621L752.469,63.53L753.143,63.422L753.818,63.32L754.492,63.199L755.166,63.113L755.84,63.015L756.515,62.927L757.189,62.829L757.863,62.686L758.538,62.581L759.212,62.396L759.886,62.285L760.56,62.169L761.235,62.024L761.909,61.884L762.583,61.733L763.257,61.57L763.932,61.455L764.606,61.386L765.28,61.244L765.954,61.123L766.629,61.014L767.303,60.874L767.977,60.714L768.651,60.489L769.326,60.205L770,60"/></g></svg>