<svg class="plot-d6a7b5" fill="currentColor" font-family="system-ui, sans-serif" font-size="10" text-anchor="middle" width="830" height="564" viewBox="0 0 830 564" xmlns="http://www.w3.org/2000/svg" xmlns:xlink="http://www.w3.org/1999/xlink" color="#1e90ff"><style>:where(.plot-d6a7b5){--plot-background: white;display:block;height:intrinsic;max-width:100%}:where(.plot-d6a7b5 text),:where(.plot-d6a7b5 tspan){white-space:pre}</style><g aria-label="y-grid" stroke="currentColor" stroke-opacity=".1"><line x1="60" x2="770" y1="410" y2="410"/><line x1="60" x2="770" y1="375" y2="375"/><line x1="60" x2="770" y1="340" y2="340"/><line x1="60" x2="770" y1="305" y2="305"/><line x1="60" x2="770" y1="270" y2="270"/><line x1="60" x2="770" y1="235" y2="235"/><line x1="60" x2="770" y1="200" y2="200"/><line x1="60" x2="770" y1="165" y2="165"/><line x1="60" x2="770" y1="130" y2="130"/><line x1="60" x2="770" y1="95" y2="95"/><line x1="60" x2="770" y1="60" y2="60"/></g><g aria-label="y-axis tick" fill="none" stroke="currentColor"><path transform="translate(60,410)" d="M0,0L-6,0"/><path transform="translate(60,375)" d="M0,0L-6,0"/><path transform="translate(60,340)" d="M0,0L-6,0"/><path transform="translate(60,305)" d="M0,0L-6,0"/><path transform="translate(60,270)" d="M0,0L-6,0"/><path transform="translate(60,235)" d="M0,0L-6,0"/><path transform="translate(60,200)" d="M0,0L-6,0"/><path transform="translate(60,165)" d="M0,0L-6,0"/><path transform="translate(60,130)" d="M0,0L-6,0"/><path transform="translate(60,95)" d="M0,0L-6,0"/><path transform="translate(60,60)" d="M0,0L-6,0"/></g><g aria-label="y-axis tick label" text-anchor="end" font-variant="tabular-nums"><text y=".32em" transform="translate(-9,0) translate(60,410)">0%</text><text y=".32em" transform="translate(-9,0) translate(60,375)">10%</text><text y=".32em" transform="translate(-9,0) translate(60,340)">20%</text><text y=".32em" transform="translate(-9,0) translate(60,305)">30%</text><text y=".32em" transform="translate(-9,0) translate(60,270)">40%</text><text y=".32em" transform="translate(-9,0) translate(60,235)">50%</text><text y=".32em" transform="translate(-9,0) translate(60,200)">60%</text><text y=".32em" transform="translate(-9,0) translate(60,165)">70%</text><text y=".32em" transform="translate(-9,0) translate(60,130)">80%</text><text y=".32em" transform="translate(-9,0) translate(60,95)">90%</text><text y=".32em" transform="translate(-9,0) translate(60,60)">100%</text></g><g aria-label="y-axis label" text-anchor="start"><text y=".71em" transform="translate(-57,-57) translate(60,60)">↑ Frequency</text></g><g aria-label="x-axis tick" fill="none" stroke="currentColor"><path transform="translate(111.6711590296496,410)" d="M0,0L0,6"/><path transform="translate(169.08355795148248,410)" d="M0,0L0,6"/><path transform="translate(228.4097035040431,410)" d="M0,0L0,6"/><path transform="translate(285.822102425876,410)" d="M0,0L0,6"/><path transform="translate(345.1482479784367,410)" d="M0,0L0,6"/><path transform="translate(404.4743935309973,410)" d="M0,0L0,6"/><path transform="translate(461.8867924528302,410)" d="M0,0L0,6"/><path transform="translate(521.2129380053908,410)" d="M0,0L0,6"/><path transform="translate(578.6253369272237,410)" d="M0,0L0,6"/><path transform="translate(637.9514824797843,410)" d="M0,0L0,6"/><path transform="translate(697.2776280323451,410)" d="M0,0L0,6"/><path transform="translate(752.7762803234501,410)" d="M0,0L0,6"/></g><g aria-label="x-axis tick label" font-variant="tabular-nums"><text transform="translate(0,9) translate(111.6711590296496,410)"><tspan x="0" y=".71em">Apr</tspan><tspan x="0" dy="1em">2023</tspan></text><text y=".71em" transform="translate(0,9) translate(169.08355795148248,410)">May</text><text y=".71em" transform="translate(0,9) translate(228.4097035040431,410)">Jun</text><text y=".71em" transform="translate(0,9) translate(285.822102425876,410)">Jul</text><text y=".71em" transform="translate(0,9) translate(345.1482479784367,410)">Aug</text><text y=".71em" transform="translate(0,9) translate(404.4743935309973,410)">Sep</text><text y=".71em" transform="translate(0,9) translate(461.8867924528302,410)">Oct</text><text y=".71em" transform="translate(0,9) translate(521.2129380053908,410)">Nov</text><text y=".71em" transform="translate(0,9) translate(578.6253369272237,410)">Dec</text><text transform="translate(0,9) translate(637.9514824797843,410)"><tspan x="0" y=".71em">Jan</tspan><tspan x="0" dy="1em">2024</tspan></text><text y=".71em" transform="translate(0,9) translate(697.2776280323451,410)">Feb</text><text y=".71em" transform="translate(0,9) translate(752.7762803234501,410)">Mar</text></g><g aria-label="x-axis label" text-anchor="end"><text transform="translate(57,57) translate(770,410)">timestamp →</text></g><g aria-label="rect"><rect x="60.5" y="137.239" width="12.396" height="40.504" fill="#70223b"/><rect x="73.896" y="134.52" width="12.396" height="45.868" fill="#70223b"/><rect x="87.292" y="130.214" width="12.396" height="40.991" fill="#70223b"/><rect x="100.689" y="118.596" width="12.396" height="37.039" fill="#70223b"/><rect x="114.085" y="113.796" width="12.396" height="35.64" fill="#70223b"/><rect x="127.481" y="126.003" width="12.396" height="44.941" fill="#70223b"/><rect x="140.877" y="127.625" width="12.396" height="38.209" fill="#70223b"/><rect x="154.274" y="129.258" width="12.396" height="46.106" fill="#70223b"/><rect x="167.67" y="134.774" width="12.396" height="44.001" fill="#70223b"/><rect x="181.066" y="131.203" width="12.396" height="35.927" fill="#70223b"/><rect x="194.462" y="125.148" width="12.396" height="33.338" fill="#70223b"/><rect x="207.858" y="129.81" width="12.396" height="35.8" fill="#70223b"/><rect x="221.255" y="129.211" width="12.396" height="27.393" fill="#70223b"/><rect x="234.651" y="126.036" width="12.396" height="31.552" fill="#70223b"/><rect x="248.047" y="115.575" width="12.396" height="33.861" fill="#70223b"/><rect x="261.443" y="113.282" width="12.396" height="34.474" fill="#70223b"/><rect x="274.84" y="132.541" width="12.396" height="35.635" fill="#70223b"/><rect x="288.236" y="130.438" width="12.396" height="48.045" fill="#70223b"/><rect x="301.632" y="124.129" width="12.396" height="49.523" fill="#70223b"/><rect x="315.028" y="117.801" width="12.396" height="46.089" fill="#70223b"/><rect x="328.425" y="101.476" width="12.396" height="45.526" fill="#70223b"/><rect x="341.821" y="115.878" width="12.396" height="29.462" fill="#70223b"/><rect x="355.217" y="127.379" width="12.396" height="36.557" fill="#70223b"/><rect x="368.613" y="104.581" width="12.396" height="39.843" fill="#70223b"/><rect x="382.009" y="110.85" width="12.396" height="41.074" fill="#70223b"/><rect x="395.406" y="115.081" width="12.396" height="30.466" fill="#70223b"/><rect x="408.802" y="112.196" width="12.396" height="41.086" fill="#70223b"/><rect x="422.198" y="112.446" width="12.396" height="35.894" fill="#70223b"/><rect x="435.594" y="118.37" width="12.396" height="26.467" fill="#70223b"/><rect x="448.991" y="119.244" width="12.396" height="34.627" fill="#70223b"/><rect x="462.387" y="126.06" width="12.396" height="33.71" fill="#70223b"/><rect x="475.783" y="121.558" width="12.396" height="31.294" fill="#70223b"/><rect x="489.179" y="135.565" width="12.396" height="36.775" fill="#70223b"/><rect x="502.575" y="142.736" width="12.396" height="33.598" fill="#70223b"/><rect x="515.972" y="138.125" width="12.396" height="35.07" fill="#70223b"/><rect x="529.368" y="139.818" width="12.396" height="31.18" fill="#70223b"/><rect x="542.764" y="116.615" width="12.396" height="34.059" fill="#70223b"/><rect x="556.16" y="106.619" width="12.396" height="37.93" fill="#70223b"/><rect x="569.557" y="114.133" width="12.396" height="25.375" fill="#70223b"/><rect x="582.953" y="123.022" width="12.396" height="27.975" fill="#70223b"/><rect x="596.349" y="116.815" width="12.396" height="18.469" fill="#70223b"/><rect x="609.745" y="103.681" width="12.396" height="40.272" fill="#70223b"/><rect x="623.142" y="118.478" width="12.396" height="34.234" fill="#70223b"/><rect x="636.538" y="138.765" width="12.396" height="26.353" fill="#70223b"/><rect x="649.934" y="148.206" width="12.396" height="38.289" fill="#70223b"/><rect x="663.33" y="126.367" width="12.396" height="30.631" fill="#70223b"/><rect x="676.726" y="140.074" width="12.396" height="37.192" fill="#70223b"/><rect x="690.123" y="123.534" width="12.396" height="30.792" fill="#70223b"/><rect x="703.519" y="124.428" width="12.396" height="41.844" fill="#70223b"/><rect x="716.915" y="127.373" width="12.396" height="27.916" fill="#70223b"/><rect x="730.311" y="133.181" width="12.396" height="33.746" fill="#70223b"/><rect x="743.708" y="121.409" width="12.396" height="34.3" fill="#70223b"/><rect x="757.104" y="100.929" width="12.396" height="18.898" fill="#70223b"/><rect x="60.5" y="256.21" width="12.396" height="153.79" fill="#00000f"/><rect x="73.896" y="259.144" width="12.396" height="150.856" fill="#00000f"/><rect x="87.292" y="255.496" width="12.396" height="154.504" fill="#00000f"/><rect x="100.689" y="235.292" width="12.396" height="174.708" fill="#00000f"/><rect x="114.085" y="232.418" width="12.396" height="177.582" fill="#00000f"/><rect x="127.481" y="241.125" width="12.396" height="168.875" fill="#00000f"/><rect x="140.877" y="263.467" width="12.396" height="146.533" fill="#00000f"/><rect x="154.274" y="254.046" width="12.396" height="155.954" fill="#00000f"/><rect x="167.67" y="257.289" width="12.396" height="152.711" fill="#00000f"/><rect x="181.066" y="269.409" width="12.396" height="140.591" fill="#00000f"/><rect x="194.462" y="262.899" width="12.396" height="147.101" fill="#00000f"/><rect x="207.858" y="248.845" width="12.396" height="161.155" fill="#00000f"/><rect x="221.255" y="250.596" width="12.396" height="159.404" fill="#00000f"/><rect x="234.651" y="257.427" width="12.396" height="152.573" fill="#00000f"/><rect x="248.047" y="251.604" width="12.396" height="158.396" fill="#00000f"/><rect x="261.443" y="232.548" width="12.396" height="177.452" fill="#00000f"/><rect x="274.84" y="271.27" width="12.396" height="138.73" fill="#00000f"/><rect x="288.236" y="280.58" width="12.396" height="129.42" fill="#00000f"/><rect x="301.632" y="279.194" width="12.396" height="130.806" fill="#00000f"/><rect x="315.028" y="257.246" width="12.396" height="152.754" fill="#00000f"/><rect x="328.425" y="240.603" width="12.396" height="169.397" fill="#00000f"/><rect x="341.821" y="229.375" width="12.396" height="180.625" fill="#00000f"/><rect x="355.217" y="256.328" width="12.396" height="153.672" fill="#00000f"/><rect x="368.613" y="244.706" width="12.396" height="165.294" fill="#00000f"/><rect x="382.009" y="252.427" width="12.396" height="157.573" fill="#00000f"/><rect x="395.406" y="261.558" width="12.396" height="148.442" fill="#00000f"/><rect x="408.802" y="236.088" width="12.396" height="173.912" fill="#00000f"/><rect x="422.198" y="242.354" width="12.396" height="167.646" fill="#00000f"/><rect x="435.594" y="238.943" width="12.396" height="171.057" fill="#00000f"/><rect x="448.991" y="240.797" width="12.396" height="169.203" fill="#00000f"/><rect x="462.387" y="247.396" width="12.396" height="162.604" fill="#00000f"/><rect x="475.783" y="265.24" width="12.396" height="144.76" fill="#00000f"/><rect x="489.179" y="278.584" width="12.396" height="131.416" fill="#00000f"/><rect x="502.575" y="259.117" width="12.396" height="150.883" fill="#00000f"/><rect x="515.972" y="263.083" width="12.396" height="146.917" fill="#00000f"/><rect x="529.368" y="258.546" width="12.396" height="151.454" fill="#00000f"/><rect x="542.764" y="241.498" width="12.396" height="168.502" fill="#00000f"/><rect x="556.16" y="243.119" width="12.396" height="166.881" fill="#00000f"/><rect x="569.557" y="233.075" width="12.396" height="176.925" fill="#00000f"/><rect x="582.953" y="253.152" width="12.396" height="156.848" fill="#00000f"/><rect x="596.349" y="251.067" width="12.396" height="158.933" fill="#00000f"/><rect x="609.745" y="238.369" width="12.396" height="171.631" fill="#00000f"/><rect x="623.142" y="261.142" width="12.396" height="148.858" fill="#00000f"/><rect x="636.538" y="285.577" width="12.396" height="124.423" fill="#00000f"/><rect x="649.934" y="289.402" width="12.396" height="120.598" fill="#00000f"/><rect x="663.33" y="272.493" width="12.396" height="137.507" fill="#00000f"/><rect x="676.726" y="278.9" width="12.396" height="131.1" fill="#00000f"/><rect x="690.123" y="237.955" width="12.396" height="172.045" fill="#00000f"/><rect x="703.519" y="274.654" width="12.396" height="135.346" fill="#00000f"/><rect x="716.915" y="248.747" width="12.396" height="161.253" fill="#00000f"/><rect x="730.311" y="263.416" width="12.396" height="146.584" fill="#00000f"/><rect x="743.708" y="253.645" width="12.396" height="156.355" fill="#00000f"/><rect x="757.104" y="240.346" width="12.396" height="169.654" fill="#00000f"/><rect x="60.5" y="177.743" width="12.396" height="23.386" fill="#f0c097"/><rect x="73.896" y="180.388" width="12.396" height="17.049" fill="#f0c097"/><rect x="87.292" y="171.206" width="12.396" height="18.293" fill="#f0c097"/><rect x="100.689" y="155.635" width="12.396" height="16.863" fill="#f0c097"/><rect x="114.085" y="149.436" width="12.396" height="21.324" fill="#f0c097"/><rect x="127.481" y="170.945" width="12.396" height="16.406" fill="#f0c097"/><rect x="140.877" y="165.834" width="12.396" height="21.594" fill="#f0c097"/><rect x="154.274" y="175.364" width="12.396" height="15.929" fill="#f0c097"/><rect x="167.67" y="178.775" width="12.396" height="20.928" fill="#f0c097"/><rect x="181.066" y="167.13" width="12.396" height="16.798" fill="#f0c097"/><rect x="194.462" y="158.485" width="12.396" height="26.89" fill="#f0c097"/><rect x="207.858" y="165.61" width="12.396" height="16.707" fill="#f0c097"/><rect x="221.255" y="156.604" width="12.396" height="14.186" fill="#f0c097"/><rect x="234.651" y="157.588" width="12.396" height="18.215" fill="#f0c097"/><rect x="248.047" y="149.436" width="12.396" height="13.111" fill="#f0c097"/><rect x="261.443" y="147.756" width="12.396" height="11.468" fill="#f0c097"/><rect x="274.84" y="168.176" width="12.396" height="23.388" fill="#f0c097"/><rect x="288.236" y="178.483" width="12.396" height="13.761" fill="#f0c097"/><rect x="301.632" y="173.652" width="12.396" height="19.809" fill="#f0c097"/><rect x="315.028" y="163.89" width="12.396" height="15.211" fill="#f0c097"/><rect x="328.425" y="147.002" width="12.396" height="18.993" fill="#f0c097"/><rect x="341.821" y="145.34" width="12.396" height="17.994" fill="#f0c097"/><rect x="355.217" y="163.936" width="12.396" height="15.429" fill="#f0c097"/><rect x="368.613" y="144.424" width="12.396" height="18.03" fill="#f0c097"/><rect x="382.009" y="151.924" width="12.396" height="18.624" fill="#f0c097"/><rect x="395.406" y="145.546" width="12.396" height="35.439" fill="#f0c097"/><rect x="408.802" y="153.282" width="12.396" height="13.514" fill="#f0c097"/><rect x="422.198" y="148.339" width="12.396" height="23.598" fill="#f0c097"/><rect x="435.594" y="144.838" width="12.396" height="25.13" fill="#f0c097"/><rect x="448.991" y="153.871" width="12.396" height="16.599" fill="#f0c097"/><rect x="462.387" y="159.77" width="12.396" height="12.748" fill="#f0c097"/><rect x="475.783" y="152.852" width="12.396" height="20.566" fill="#f0c097"/><rect x="489.179" y="172.34" width="12.396" height="26.647" fill="#f0c097"/><rect x="502.575" y="176.334" width="12.396" height="17.203" fill="#f0c097"/><rect x="515.972" y="173.196" width="12.396" height="11.007" fill="#f0c097"/><rect x="529.368" y="170.998" width="12.396" height="6.378" fill="#f0c097"/><rect x="542.764" y="150.674" width="12.396" height="20.54" fill="#f0c097"/><rect x="556.16" y="144.549" width="12.396" height="14.92" fill="#f0c097"/><rect x="569.557" y="139.508" width="12.396" height="6.3" fill="#f0c097"/><rect x="582.953" y="150.997" width="12.396" height="6.365" fill="#f0c097"/><rect x="596.349" y="135.284" width="12.396" height="15.902" fill="#f0c097"/><rect x="609.745" y="143.952" width="12.396" height="9.275" fill="#f0c097"/><rect x="623.142" y="152.712" width="12.396" height="17.45" fill="#f0c097"/><rect x="636.538" y="165.117" width="12.396" height="14.975" fill="#f0c097"/><rect x="649.934" y="186.495" width="12.396" height="13.787" fill="#f0c097"/><rect x="663.33" y="156.998" width="12.396" height="10.807" fill="#f0c097"/><rect x="676.726" y="177.266" width="12.396" height="21.501" fill="#f0c097"/><rect x="690.123" y="154.326" width="12.396" height="18.026" fill="#f0c097"/><rect x="703.519" y="166.272" width="12.396" height="25.381" fill="#f0c097"/><rect x="716.915" y="155.288" width="12.396" height="12.339" fill="#f0c097"/><rect x="730.311" y="166.928" width="12.396" height="9.279" fill="#f0c097"/><rect x="743.708" y="155.709" width="12.396" height="10.309" fill="#f0c097"/><rect x="757.104" y="119.827" width="12.396" height="9.503" fill="#f0c097"/><rect x="60.5" y="201.129" width="12.396" height="21.429" fill="#ff7373"/><rect x="73.896" y="197.437" width="12.396" height="28.443" fill="#ff7373"/><rect x="87.292" y="189.499" width="12.396" height="28.827" fill="#ff7373"/><rect x="100.689" y="172.498" width="12.396" height="18.085" fill="#ff7373"/><rect x="114.085" y="170.76" width="12.396" height="22.665" fill="#ff7373"/><rect x="127.481" y="187.351" width="12.396" height="16.266" fill="#ff7373"/><rect x="140.877" y="187.428" width="12.396" height="19.437" fill="#ff7373"/><rect x="154.274" y="191.293" width="12.396" height="18.081" fill="#ff7373"/><rect x="167.67" y="199.703" width="12.396" height="19.443" fill="#ff7373"/><rect x="181.066" y="183.928" width="12.396" height="23.138" fill="#ff7373"/><rect x="194.462" y="185.375" width="12.396" height="20.443" fill="#ff7373"/><rect x="207.858" y="182.317" width="12.396" height="15.378" fill="#ff7373"/><rect x="221.255" y="170.79" width="12.396" height="20.449" fill="#ff7373"/><rect x="234.651" y="175.803" width="12.396" height="24.423" fill="#ff7373"/><rect x="248.047" y="162.546" width="12.396" height="29.147" fill="#ff7373"/><rect x="261.443" y="159.224" width="12.396" height="21.771" fill="#ff7373"/><rect x="274.84" y="191.564" width="12.396" height="24.756" fill="#ff7373"/><rect x="288.236" y="192.244" width="12.396" height="27.364" fill="#ff7373"/><rect x="301.632" y="193.461" width="12.396" height="24.977" fill="#ff7373"/><rect x="315.028" y="179.1" width="12.396" height="22.36" fill="#ff7373"/><rect x="328.425" y="165.995" width="12.396" height="13.546" fill="#ff7373"/><rect x="341.821" y="163.334" width="12.396" height="17.435" fill="#ff7373"/><rect x="355.217" y="179.365" width="12.396" height="22.508" fill="#ff7373"/><rect x="368.613" y="162.453" width="12.396" height="26.058" fill="#ff7373"/><rect x="382.009" y="170.549" width="12.396" height="35.433" fill="#ff7373"/><rect x="395.406" y="180.985" width="12.396" height="22.275" fill="#ff7373"/><rect x="408.802" y="166.796" width="12.396" height="18.502" fill="#ff7373"/><rect x="422.198" y="171.938" width="12.396" height="15.511" fill="#ff7373"/><rect x="435.594" y="169.968" width="12.396" height="20.942" fill="#ff7373"/><rect x="448.991" y="170.47" width="12.396" height="21.246" fill="#ff7373"/><rect x="462.387" y="172.518" width="12.396" height="22.876" fill="#ff7373"/><rect x="475.783" y="173.419" width="12.396" height="26.047" fill="#ff7373"/><rect x="489.179" y="198.987" width="12.396" height="20.993" fill="#ff7373"/><rect x="502.575" y="193.537" width="12.396" height="21.005" fill="#ff7373"/><rect x="515.972" y="184.202" width="12.396" height="28.758" fill="#ff7373"/><rect x="529.368" y="177.375" width="12.396" height="18.747" fill="#ff7373"/><rect x="542.764" y="171.214" width="12.396" height="22.258" fill="#ff7373"/><rect x="556.16" y="159.469" width="12.396" height="15.28" fill="#ff7373"/><rect x="569.557" y="145.808" width="12.396" height="15.225" fill="#ff7373"/><rect x="582.953" y="157.362" width="12.396" height="19.488" fill="#ff7373"/><rect x="596.349" y="151.186" width="12.396" height="12.672" fill="#ff7373"/><rect x="609.745" y="153.228" width="12.396" height="17.282" fill="#ff7373"/><rect x="623.142" y="170.162" width="12.396" height="29.239" fill="#ff7373"/><rect x="636.538" y="180.092" width="12.396" height="20.04" fill="#ff7373"/><rect x="649.934" y="200.282" width="12.396" height="16.777" fill="#ff7373"/><rect x="663.33" y="167.805" width="12.396" height="23.073" fill="#ff7373"/><rect x="676.726" y="198.766" width="12.396" height="20.003" fill="#ff7373"/><rect x="690.123" y="172.352" width="12.396" height="17.021" fill="#ff7373"/><rect x="703.519" y="191.652" width="12.396" height="26.753" fill="#ff7373"/><rect x="716.915" y="167.627" width="12.396" height="27.399" fill="#ff7373"/><rect x="730.311" y="176.206" width="12.396" height="20.436" fill="#ff7373"/><rect x="743.708" y="166.018" width="12.396" height="22.273" fill="#ff7373"/><rect x="757.104" y="129.33" width="12.396" height="21.814" fill="#ff7373"/><rect x="60.5" y="60" width="12.396" height="8.351" fill="#16234f"/><rect x="73.896" y="60" width="12.396" height="8.201" fill="#16234f"/><rect x="87.292" y="60" width="12.396" height="5.966" fill="#16234f"/><rect x="100.689" y="60" width="12.396" height="3.525" fill="#16234f"/><rect x="114.085" y="60" width="12.396" height="1.157" fill="#16234f"/><rect x="127.481" y="60" width="12.396" height="4.616" fill="#16234f"/><rect x="140.877" y="60" width="12.396" height="5.807" fill="#16234f"/><rect x="154.274" y="60" width="12.396" height="2.919" fill="#16234f"/><rect x="167.67" y="60" width="12.396" height="4.565" fill="#16234f"/><rect x="181.066" y="60" width="12.396" height="3.874" fill="#16234f"/><rect x="194.462" y="60" width="12.396" height="5.164" fill="#16234f"/><rect x="207.858" y="60" width="12.396" height="1.031" fill="#16234f"/><rect x="221.255" y="60" width="12.396" height="4.007" fill="#16234f"/><rect x="234.651" y="60" width="12.396" height="4.434" fill="#16234f"/><rect x="248.047" y="60" width="12.396" height="4.474" fill="#16234f"/><rect x="261.443" y="60" width="12.396" height=".529" fill="#16234f"/><rect x="274.84" y="60" width="12.396" height="5.668" fill="#16234f"/><rect x="288.236" y="60" width="12.396" height="5.886" fill="#16234f"/><rect x="301.632" y="60" width="12.396" height="5.455" fill="#16234f"/><rect x="315.028" y="60" width="12.396" height="6.731" fill="#16234f"/><rect x="328.425" y="60" width="12.396" height="1.92" fill="#16234f"/><rect x="341.821" y="60" width="12.396" height="4.102" fill="#16234f"/><rect x="355.217" y="60" width="12.396" height=".508" fill="#16234f"/><rect x="368.613" y="60" width="12.396" height="1.152" fill="#16234f"/><rect x="382.009" y="60" width="12.396" height="3.207" fill="#16234f"/><rect x="395.406" y="60" width="12.396" height="4.597" fill="#16234f"/><rect x="408.802" y="60" width="12.396" height="2.403" fill="#16234f"/><rect x="422.198" y="60" width="12.396" height="2.27" fill="#16234f"/><rect x="435.594" y="60" width="12.396" height="7.708" fill="#16234f"/><rect x="448.991" y="60" width="12.396" height="5.618" fill="#16234f"/><rect x="462.387" y="60" width="12.396" height="1.411" fill="#16234f"/><rect x="475.783" y="60" width="12.396" height="2.389" fill="#16234f"/><rect x="489.179" y="60" width="12.396" height="2.507" fill="#16234f"/><rect x="502.575" y="60" width="12.396" height="2.614" fill="#16234f"/><rect x="515.972" y="60" width="12.396" height="1.888" fill="#16234f"/><rect x="529.368" y="60" width="12.396" height=".451" fill="#16234f"/><rect x="542.764" y="60" width="12.396" height="4.407" fill="#16234f"/><rect x="556.16" y="60" width="12.396" height="2.517" fill="#16234f"/><rect x="569.557" y="60" width="12.396" height="4.783" fill="#16234f"/><rect x="582.953" y="60" width="12.396" height="4.401" fill="#16234f"/><rect x="596.349" y="60" width="12.396" height="8.945" fill="#16234f"/><rect x="609.745" y="60" width="12.396" height="4.757" fill="#16234f"/><rect x="623.142" y="60" width="12.396" height="3.796" fill="#16234f"/><rect x="636.538" y="60" width="12.396" height="5.285" fill="#16234f"/><rect x="649.934" y="60" width="12.396" height="10.216" fill="#16234f"/><rect x="663.33" y="60" width="12.396" height="1.591" fill="#16234f"/><rect x="676.726" y="60" width="12.396" height="8.984" fill="#16234f"/><rect x="690.123" y="60" width="12.396" height=".946" fill="#16234f"/><rect x="703.519" y="60" width="12.396" height="5.382" fill="#16234f"/><rect x="716.915" y="60" width="12.396" height="2.393" fill="#16234f"/><rect x="730.311" y="60" width="12.396" height="6.186" fill="#16234f"/><rect x="743.708" y="60" width="12.396" height="7.891" fill="#16234f"/><rect x="757.104" y="60" width="12.396" height=".432" fill="#16234f"/><rect x="60.5" y="222.557" width="12.396" height="7.351" fill="#ffff73"/><rect x="73.896" y="225.881" width="12.396" height="8.806" fill="#ffff73"/><rect x="87.292" y="218.326" width="12.396" height="4.358" fill="#ffff73"/><rect x="100.689" y="190.584" width="12.396" height="5.509" fill="#ffff73"/><rect x="114.085" y="193.425" width="12.396" height="6.471" fill="#ffff73"/><rect x="127.481" y="203.617" width="12.396" height="3.877" fill="#ffff73"/><rect x="140.877" y="206.864" width="12.396" height="5.499" fill="#ffff73"/><rect x="154.274" y="209.375" width="12.396" height="9.523" fill="#ffff73"/><rect x="167.67" y="219.146" width="12.396" height="5.885" fill="#ffff73"/><rect x="181.066" y="207.066" width="12.396" height="6.448" fill="#ffff73"/><rect x="194.462" y="205.818" width="12.396" height="8.067" fill="#ffff73"/><rect x="207.858" y="197.695" width="12.396" height="6.238" fill="#ffff73"/><rect x="221.255" y="191.239" width="12.396" height="4.956" fill="#ffff73"/><rect x="234.651" y="200.225" width="12.396" height="5.389" fill="#ffff73"/><rect x="248.047" y="191.693" width="12.396" height="5.299" fill="#ffff73"/><rect x="261.443" y="180.995" width="12.396" height="5.61" fill="#ffff73"/><rect x="274.84" y="216.319" width="12.396" height="4.658" fill="#ffff73"/><rect x="288.236" y="219.608" width="12.396" height="11.335" fill="#ffff73"/><rect x="301.632" y="218.438" width="12.396" height="6.065" fill="#ffff73"/><rect x="315.028" y="201.46" width="12.396" height="4.183" fill="#ffff73"/><rect x="328.425" y="179.541" width="12.396" height="5.167" fill="#ffff73"/><rect x="341.821" y="180.769" width="12.396" height="5.625" fill="#ffff73"/><rect x="355.217" y="201.873" width="12.396" height="6.716" fill="#ffff73"/><rect x="368.613" y="188.511" width="12.396" height="9.344" fill="#ffff73"/><rect x="382.009" y="205.981" width="12.396" height="8.81" fill="#ffff73"/><rect x="395.406" y="203.26" width="12.396" height="7.355" fill="#ffff73"/><rect x="408.802" y="185.298" width="12.396" height="6.712" fill="#ffff73"/><rect x="422.198" y="187.449" width="12.396" height="5.58" fill="#ffff73"/><rect x="435.594" y="190.91" width="12.396" height="6.461" fill="#ffff73"/><rect x="448.991" y="191.716" width="12.396" height="9.142" fill="#ffff73"/><rect x="462.387" y="195.394" width="12.396" height="8.516" fill="#ffff73"/><rect x="475.783" y="199.466" width="12.396" height="6.278" fill="#ffff73"/><rect x="489.179" y="219.98" width="12.396" height="7.473" fill="#ffff73"/><rect x="502.575" y="214.542" width="12.396" height="5.227" fill="#ffff73"/><rect x="515.972" y="212.96" width="12.396" height="3.993" fill="#ffff73"/><rect x="529.368" y="196.122" width="12.396" height="11.016" fill="#ffff73"/><rect x="542.764" y="193.472" width="12.396" height="5.901" fill="#ffff73"/><rect x="556.16" y="174.749" width="12.396" height="8.389" fill="#ffff73"/><rect x="569.557" y="161.033" width="12.396" height="14.817" fill="#ffff73"/><rect x="582.953" y="176.85" width="12.396" height="5.501" fill="#ffff73"/><rect x="596.349" y="163.857" width="12.396" height="8.779" fill="#ffff73"/><rect x="609.745" y="170.51" width="12.396" height="15.934" fill="#ffff73"/><rect x="623.142" y="199.401" width="12.396" height="17.05" fill="#ffff73"/><rect x="636.538" y="200.132" width="12.396" height="10.497" fill="#ffff73"/><rect x="649.934" y="217.06" width="12.396" height="6.728" fill="#ffff73"/><rect x="663.33" y="190.877" width="12.396" height="13.127" fill="#ffff73"/><rect x="676.726" y="218.77" width="12.396" height="11.619" fill="#ffff73"/><rect x="690.123" y="189.374" width="12.396" height="15.78" fill="#ffff73"/><rect x="703.519" y="218.405" width="12.396" height="11.767" fill="#ffff73"/><rect x="716.915" y="195.027" width="12.396" height="9.899" fill="#ffff73"/><rect x="730.311" y="196.642" width="12.396" height="12.317" fill="#ffff73"/><rect x="743.708" y="188.291" width="12.396" height="4.2" fill="#ffff73"/><rect x="757.104" y="151.145" width="12.396" height="3.24" fill="#ffff73"/><rect x="60.5" y="121.808" width="12.396" height="15.431" fill="#91ccf0"/><rect x="73.896" y="117.951" width="12.396" height="16.569" fill="#91ccf0"/><rect x="87.292" y="108.845" width="12.396" height="21.37" fill="#91ccf0"/><rect x="100.689" y="103.699" width="12.396" height="14.897" fill="#91ccf0"/><rect x="114.085" y="98.725" width="12.396" height="15.071" fill="#91ccf0"/><rect x="127.481" y="112.915" width="12.396" height="13.089" fill="#91ccf0"/><rect x="140.877" y="113.403" width="12.396" height="14.222" fill="#91ccf0"/><rect x="154.274" y="115.431" width="12.396" height="13.827" fill="#91ccf0"/><rect x="167.67" y="117.449" width="12.396" height="17.325" fill="#91ccf0"/><rect x="181.066" y="118.035" width="12.396" height="13.168" fill="#91ccf0"/><rect x="194.462" y="107.241" width="12.396" height="17.906" fill="#91ccf0"/><rect x="207.858" y="108.547" width="12.396" height="21.263" fill="#91ccf0"/><rect x="221.255" y="112.739" width="12.396" height="16.472" fill="#91ccf0"/><rect x="234.651" y="111.13" width="12.396" height="14.906" fill="#91ccf0"/><rect x="248.047" y="100.571" width="12.396" height="15.003" fill="#91ccf0"/><rect x="261.443" y="95.709" width="12.396" height="17.572" fill="#91ccf0"/><rect x="274.84" y="111.14" width="12.396" height="21.401" fill="#91ccf0"/><rect x="288.236" y="115.801" width="12.396" height="14.636" fill="#91ccf0"/><rect x="301.632" y="108.303" width="12.396" height="15.826" fill="#91ccf0"/><rect x="315.028" y="100.879" width="12.396" height="16.922" fill="#91ccf0"/><rect x="328.425" y="92.155" width="12.396" height="9.322" fill="#91ccf0"/><rect x="341.821" y="98.537" width="12.396" height="17.342" fill="#91ccf0"/><rect x="355.217" y="113.184" width="12.396" height="14.195" fill="#91ccf0"/><rect x="368.613" y="87.242" width="12.396" height="17.339" fill="#91ccf0"/><rect x="382.009" y="94.274" width="12.396" height="16.577" fill="#91ccf0"/><rect x="395.406" y="100.454" width="12.396" height="14.627" fill="#91ccf0"/><rect x="408.802" y="94.601" width="12.396" height="17.595" fill="#91ccf0"/><rect x="422.198" y="106.109" width="12.396" height="6.337" fill="#91ccf0"/><rect x="435.594" y="111.865" width="12.396" height="6.505" fill="#91ccf0"/><rect x="448.991" y="98.304" width="12.396" height="20.94" fill="#91ccf0"/><rect x="462.387" y="105.501" width="12.396" height="20.559" fill="#91ccf0"/><rect x="475.783" y="100.43" width="12.396" height="21.128" fill="#91ccf0"/><rect x="489.179" y="125.143" width="12.396" height="10.423" fill="#91ccf0"/><rect x="502.575" y="125.153" width="12.396" height="17.583" fill="#91ccf0"/><rect x="515.972" y="125.177" width="12.396" height="12.949" fill="#91ccf0"/><rect x="529.368" y="128.866" width="12.396" height="10.952" fill="#91ccf0"/><rect x="542.764" y="101.976" width="12.396" height="14.639" fill="#91ccf0"/><rect x="556.16" y="94.515" width="12.396" height="12.104" fill="#91ccf0"/><rect x="569.557" y="102.233" width="12.396" height="11.9" fill="#91ccf0"/><rect x="582.953" y="105.577" width="12.396" height="17.445" fill="#91ccf0"/><rect x="596.349" y="102.487" width="12.396" height="14.328" fill="#91ccf0"/><rect x="609.745" y="93.216" width="12.396" height="10.464" fill="#91ccf0"/><rect x="623.142" y="96.499" width="12.396" height="21.979" fill="#91ccf0"/><rect x="636.538" y="127.68" width="12.396" height="11.084" fill="#91ccf0"/><rect x="649.934" y="133.09" width="12.396" height="15.116" fill="#91ccf0"/><rect x="663.33" y="109.991" width="12.396" height="16.376" fill="#91ccf0"/><rect x="676.726" y="124.502" width="12.396" height="15.572" fill="#91ccf0"/><rect x="690.123" y="111.359" width="12.396" height="12.175" fill="#91ccf0"/><rect x="703.519" y="107.965" width="12.396" height="16.463" fill="#91ccf0"/><rect x="716.915" y="109.31" width="12.396" height="18.063" fill="#91ccf0"/><rect x="730.311" y="118.821" width="12.396" height="14.36" fill="#91ccf0"/><rect x="743.708" y="111.673" width="12.396" height="9.736" fill="#91ccf0"/><rect x="757.104" y="92.397" width="12.396" height="8.531" fill="#91ccf0"/><rect x="60.5" y="68.351" width="12.396" height="15.681" fill="#aaf155"/><rect x="73.896" y="68.201" width="12.396" height="11.206" fill="#aaf155"/><rect x="87.292" y="65.966" width="12.396" height="9.741" fill="#aaf155"/><rect x="100.689" y="63.525" width="12.396" height="11.248" fill="#aaf155"/><rect x="114.085" y="61.157" width="12.396" height="10.964" fill="#aaf155"/><rect x="127.481" y="64.616" width="12.396" height="11.071" fill="#aaf155"/><rect x="140.877" y="65.807" width="12.396" height="11.852" fill="#aaf155"/><rect x="154.274" y="62.919" width="12.396" height="14.742" fill="#aaf155"/><rect x="167.67" y="64.565" width="12.396" height="14.713" fill="#aaf155"/><rect x="181.066" y="63.874" width="12.396" height="14.224" fill="#aaf155"/><rect x="194.462" y="65.164" width="12.396" height="11.123" fill="#aaf155"/><rect x="207.858" y="61.031" width="12.396" height="11.038" fill="#aaf155"/><rect x="221.255" y="64.007" width="12.396" height="13.593" fill="#aaf155"/><rect x="234.651" y="64.434" width="12.396" height="10.574" fill="#aaf155"/><rect x="248.047" y="64.474" width="12.396" height="12.147" fill="#aaf155"/><rect x="261.443" y="60.529" width="12.396" height="12.703" fill="#aaf155"/><rect x="274.84" y="65.668" width="12.396" height="11.14" fill="#aaf155"/><rect x="288.236" y="65.886" width="12.396" height="18.176" fill="#aaf155"/><rect x="301.632" y="65.455" width="12.396" height="10.371" fill="#aaf155"/><rect x="315.028" y="66.731" width="12.396" height="7.91" fill="#aaf155"/><rect x="328.425" y="61.92" width="12.396" height="6.843" fill="#aaf155"/><rect x="341.821" y="64.102" width="12.396" height="12.058" fill="#aaf155"/><rect x="355.217" y="60.508" width="12.396" height="8.676" fill="#aaf155"/><rect x="368.613" y="61.152" width="12.396" height="10.923" fill="#aaf155"/><rect x="382.009" y="63.207" width="12.396" height="9.389" fill="#aaf155"/><rect x="395.406" y="64.597" width="12.396" height="12.621" fill="#aaf155"/><rect x="408.802" y="62.403" width="12.396" height="8.027" fill="#aaf155"/><rect x="422.198" y="62.27" width="12.396" height="9.647" fill="#aaf155"/><rect x="435.594" y="67.708" width="12.396" height="11.941" fill="#aaf155"/><rect x="448.991" y="65.618" width="12.396" height="12.257" fill="#aaf155"/><rect x="462.387" y="61.411" width="12.396" height="10.481" fill="#aaf155"/><rect x="475.783" y="62.389" width="12.396" height="8.62" fill="#aaf155"/><rect x="489.179" y="62.507" width="12.396" height="18.092" fill="#aaf155"/><rect x="502.575" y="62.614" width="12.396" height="31.84" fill="#aaf155"/><rect x="515.972" y="61.888" width="12.396" height="13.165" fill="#aaf155"/><rect x="529.368" y="60.451" width="12.396" height="17.716" fill="#aaf155"/><rect x="542.764" y="64.407" width="12.396" height="7.693" fill="#aaf155"/><rect x="556.16" y="62.517" width="12.396" height="10.247" fill="#aaf155"/><rect x="569.557" y="64.783" width="12.396" height="8.225" fill="#aaf155"/><rect x="582.953" y="64.401" width="12.396" height="16.816" fill="#aaf155"/><rect x="596.349" y="68.945" width="12.396" height="11.761" fill="#aaf155"/><rect x="609.745" y="64.757" width="12.396" height="6.501" fill="#aaf155"/><rect x="623.142" y="63.796" width="12.396" height="6.527" fill="#aaf155"/><rect x="636.538" y="65.285" width="12.396" height="9.836" fill="#aaf155"/><rect x="649.934" y="70.216" width="12.396" height="16.196" fill="#aaf155"/><rect x="663.33" y="61.591" width="12.396" height="14.52" fill="#aaf155"/><rect x="676.726" y="68.984" width="12.396" height="18.806" fill="#aaf155"/><rect x="690.123" y="60.946" width="12.396" height="13.652" fill="#aaf155"/><rect x="703.519" y="65.382" width="12.396" height="14.247" fill="#aaf155"/><rect x="716.915" y="62.393" width="12.396" height="10.885" fill="#aaf155"/><rect x="730.311" y="66.186" width="12.396" height="12.372" fill="#aaf155"/><rect x="743.708" y="67.891" width="12.396" height="18.455" fill="#aaf155"/><rect x="757.104" y="60.432" width="12.396" height="6.695" fill="#aaf155"/><rect x="60.5" y="84.032" width="12.396" height="37.776" fill="#4f2d68"/><rect x="73.896" y="79.407" width="12.396" height="38.543" fill="#4f2d68"/><rect x="87.292" y="75.707" width="12.396" height="33.138" fill="#4f2d68"/><rect x="100.689" y="74.773" width="12.396" height="28.926" fill="#4f2d68"/><rect x="114.085" y="72.12" width="12.396" height="26.605" fill="#4f2d68"/><rect x="127.481" y="75.687" width="12.396" height="37.228" fill="#4f2d68"/><rect x="140.877" y="77.659" width="12.396" height="35.744" fill="#4f2d68"/><rect x="154.274" y="77.661" width="12.396" height="37.77" fill="#4f2d68"/><rect x="167.67" y="79.278" width="12.396" height="38.171" fill="#4f2d68"/><rect x="181.066" y="78.099" width="12.396" height="39.937" fill="#4f2d68"/><rect x="194.462" y="76.287" width="12.396" height="30.954" fill="#4f2d68"/><rect x="207.858" y="72.069" width="12.396" height="36.478" fill="#4f2d68"/><rect x="221.255" y="77.599" width="12.396" height="35.139" fill="#4f2d68"/><rect x="234.651" y="75.008" width="12.396" height="36.122" fill="#4f2d68"/><rect x="248.047" y="76.621" width="12.396" height="23.95" fill="#4f2d68"/><rect x="261.443" y="73.232" width="12.396" height="22.477" fill="#4f2d68"/><rect x="274.84" y="76.808" width="12.396" height="34.332" fill="#4f2d68"/><rect x="288.236" y="84.062" width="12.396" height="31.739" fill="#4f2d68"/><rect x="301.632" y="75.826" width="12.396" height="32.477" fill="#4f2d68"/><rect x="315.028" y="74.64" width="12.396" height="26.239" fill="#4f2d68"/><rect x="328.425" y="68.763" width="12.396" height="23.392" fill="#4f2d68"/><rect x="341.821" y="76.161" width="12.396" height="22.376" fill="#4f2d68"/><rect x="355.217" y="69.185" width="12.396" height="44" fill="#4f2d68"/><rect x="368.613" y="72.075" width="12.396" height="15.167" fill="#4f2d68"/><rect x="382.009" y="72.597" width="12.396" height="21.677" fill="#4f2d68"/><rect x="395.406" y="77.218" width="12.396" height="23.236" fill="#4f2d68"/><rect x="408.802" y="70.43" width="12.396" height="24.171" fill="#4f2d68"/><rect x="422.198" y="71.917" width="12.396" height="34.191" fill="#4f2d68"/><rect x="435.594" y="79.65" width="12.396" height="32.215" fill="#4f2d68"/><rect x="448.991" y="77.875" width="12.396" height="20.429" fill="#4f2d68"/><rect x="462.387" y="71.892" width="12.396" height="33.609" fill="#4f2d68"/><rect x="475.783" y="71.009" width="12.396" height="29.42" fill="#4f2d68"/><rect x="489.179" y="80.6" width="12.396" height="44.543" fill="#4f2d68"/><rect x="502.575" y="94.453" width="12.396" height="30.699" fill="#4f2d68"/><rect x="515.972" y="75.053" width="12.396" height="50.123" fill="#4f2d68"/><rect x="529.368" y="78.167" width="12.396" height="50.699" fill="#4f2d68"/><rect x="542.764" y="72.1" width="12.396" height="29.876" fill="#4f2d68"/><rect x="556.16" y="72.763" width="12.396" height="21.751" fill="#4f2d68"/><rect x="569.557" y="73.008" width="12.396" height="29.225" fill="#4f2d68"/><rect x="582.953" y="81.217" width="12.396" height="24.36" fill="#4f2d68"/><rect x="596.349" y="80.705" width="12.396" height="21.782" fill="#4f2d68"/><rect x="609.745" y="71.257" width="12.396" height="21.959" fill="#4f2d68"/><rect x="623.142" y="70.324" width="12.396" height="26.175" fill="#4f2d68"/><rect x="636.538" y="75.122" width="12.396" height="52.559" fill="#4f2d68"/><rect x="649.934" y="86.412" width="12.396" height="46.678" fill="#4f2d68"/><rect x="663.33" y="76.111" width="12.396" height="33.88" fill="#4f2d68"/><rect x="676.726" y="87.789" width="12.396" height="36.713" fill="#4f2d68"/><rect x="690.123" y="74.598" width="12.396" height="36.761" fill="#4f2d68"/><rect x="703.519" y="79.629" width="12.396" height="28.336" fill="#4f2d68"/><rect x="716.915" y="73.277" width="12.396" height="36.032" fill="#4f2d68"/><rect x="730.311" y="78.558" width="12.396" height="40.264" fill="#4f2d68"/><rect x="743.708" y="86.345" width="12.396" height="25.327" fill="#4f2d68"/><rect x="757.104" y="67.127" width="12.396" height="25.27" fill="#4f2d68"/><rect x="60.5" y="229.908" width="12.396" height="26.302" fill="#fff"/><rect x="73.896" y="234.687" width="12.396" height="24.457" fill="#fff"/><rect x="87.292" y="222.684" width="12.396" height="32.812" fill="#fff"/><rect x="100.689" y="196.092" width="12.396" height="39.2" fill="#fff"/><rect x="114.085" y="199.896" width="12.396" height="32.522" fill="#fff"/><rect x="127.481" y="207.494" width="12.396" height="33.631" fill="#fff"/><rect x="140.877" y="212.364" width="12.396" height="51.104" fill="#fff"/><rect x="154.274" y="218.898" width="12.396" height="35.148" fill="#fff"/><rect x="167.67" y="225.031" width="12.396" height="32.258" fill="#fff"/><rect x="181.066" y="213.514" width="12.396" height="55.895" fill="#fff"/><rect x="194.462" y="213.885" width="12.396" height="49.013" fill="#fff"/><rect x="207.858" y="203.933" width="12.396" height="44.913" fill="#fff"/><rect x="221.255" y="196.195" width="12.396" height="54.401" fill="#fff"/><rect x="234.651" y="205.614" width="12.396" height="51.813" fill="#fff"/><rect x="248.047" y="196.992" width="12.396" height="54.611" fill="#fff"/><rect x="261.443" y="186.606" width="12.396" height="45.942" fill="#fff"/><rect x="274.84" y="220.977" width="12.396" height="50.293" fill="#fff"/><rect x="288.236" y="230.943" width="12.396" height="49.636" fill="#fff"/><rect x="301.632" y="224.503" width="12.396" height="54.691" fill="#fff"/><rect x="315.028" y="205.643" width="12.396" height="51.603" fill="#fff"/><rect x="328.425" y="184.708" width="12.396" height="55.895" fill="#fff"/><rect x="341.821" y="186.394" width="12.396" height="42.981" fill="#fff"/><rect x="355.217" y="208.589" width="12.396" height="47.739" fill="#fff"/><rect x="368.613" y="197.855" width="12.396" height="46.851" fill="#fff"/><rect x="382.009" y="214.791" width="12.396" height="37.635" fill="#fff"/><rect x="395.406" y="210.615" width="12.396" height="50.943" fill="#fff"/><rect x="408.802" y="192.01" width="12.396" height="44.079" fill="#fff"/><rect x="422.198" y="193.029" width="12.396" height="49.324" fill="#fff"/><rect x="435.594" y="197.371" width="12.396" height="41.572" fill="#fff"/><rect x="448.991" y="200.858" width="12.396" height="39.939" fill="#fff"/><rect x="462.387" y="203.91" width="12.396" height="43.485" fill="#fff"/><rect x="475.783" y="205.744" width="12.396" height="59.497" fill="#fff"/><rect x="489.179" y="227.453" width="12.396" height="51.131" fill="#fff"/><rect x="502.575" y="219.769" width="12.396" height="39.348" fill="#fff"/><rect x="515.972" y="216.952" width="12.396" height="46.131" fill="#fff"/><rect x="529.368" y="207.138" width="12.396" height="51.408" fill="#fff"/><rect x="542.764" y="199.373" width="12.396" height="42.125" fill="#fff"/><rect x="556.16" y="183.138" width="12.396" height="59.981" fill="#fff"/><rect x="569.557" y="175.85" width="12.396" height="57.225" fill="#fff"/><rect x="582.953" y="182.351" width="12.396" height="70.802" fill="#fff"/><rect x="596.349" y="172.636" width="12.396" height="78.431" fill="#fff"/><rect x="609.745" y="186.444" width="12.396" height="51.925" fill="#fff"/><rect x="623.142" y="216.451" width="12.396" height="44.691" fill="#fff"/><rect x="636.538" y="210.629" width="12.396" height="74.948" fill="#fff"/><rect x="649.934" y="223.787" width="12.396" height="65.615" fill="#fff"/><rect x="663.33" y="204.005" width="12.396" height="68.488" fill="#fff"/><rect x="676.726" y="230.388" width="12.396" height="48.511" fill="#fff"/><rect x="690.123" y="205.154" width="12.396" height="32.801" fill="#fff"/><rect x="703.519" y="230.172" width="12.396" height="44.482" fill="#fff"/><rect x="716.915" y="204.926" width="12.396" height="43.82" fill="#fff"/><rect x="730.311" y="208.958" width="12.396" height="54.458" fill="#fff"/><rect x="743.708" y="192.491" width="12.396" height="61.155" fill="#fff"/><rect x="757.104" y="154.384" width="12.396" height="85.961" fill="#fff"/></g><g aria-label="rule" stroke="currentColor"><line x1="60" x2="770" y1="410" y2="410"/></g><svg version="1.1" viewBox="0 0 830 564" xmlns="http://www.w3.org/2000/svg"><g color="#1e90ff"><g style="shape-padding:2.00159" aria-label="■ Custom Colour/Modded Campaigns ■ Survivor ■ Monk ■ Hunter ■ Gourmand ■ Artificer ■ Rivulet ■ Spearmaster ■ Saint ■ ⏿" white-space="pre"><path d="m55.011719 483.99902v-7.74414h7.750488v7.74414z" fill="#00000f"/><path d="m77.437988 483.16748q-0.488769 0.26025-1.002929 0.38721-0.514161 0.1333-1.091797 0.1333-1.821778 0-2.831055-1.28858-1.00293-1.28857-1.00293-3.62451 0-2.32324 1.009278-3.61816 1.015625-1.30127 2.824707-1.30127 0.577636 0 1.091797 0.1333 0.51416 0.12695 1.002929 0.38721v1.31396q-0.469726-0.38721-1.009277-0.59033-0.539551-0.20313-1.085449-0.20313-1.250489 0-1.872559 0.96485-0.62207 0.96484-0.62207 2.91357 0 1.94239 0.62207 2.90723t1.872559 0.96484q0.558593 0 1.091797-0.20312 0.53955-0.20313 1.002929-0.59033zm2.253418-2.35498v-4.40527h1.167969v4.40527q0 0.9585 0.336426 1.40918 0.342773 0.45068 1.053711 0.45068 0.825195 0 1.263183-0.57763 0.437989-0.58399 0.437989-1.66944v-4.01806h1.174316v7.09668h-1.174316v-1.06641q-0.311036 0.61572-0.850586 0.93311-0.533203 0.31738-1.250489 0.31738-1.091797 0-1.625-0.71094-0.533203-0.71728-0.533203-2.16455zm12.765137-4.17041v1.14258q-0.501465-0.29199-1.009277-0.43799-0.507813-0.146-1.034668-0.146-0.793457 0-1.187012 0.26026-0.387207 0.2539-0.387207 0.78076 0 0.47607 0.291992 0.71094 0.291992 0.23486 1.453613 0.45703l0.469727 0.0889q0.869629 0.16503 1.313965 0.66015 0.450683 0.49512 0.450683 1.28858 0 1.05371-0.749023 1.65039-0.749024 0.59033-2.082031 0.59033-0.526856 0-1.104493-0.11426-0.577636-0.10791-1.250488-0.33008v-1.20605q0.653809 0.33642 1.250488 0.50781 0.59668 0.16504 1.129883 0.16504 0.774414 0 1.199707-0.31104 0.425293-0.31738 0.425293-0.88232 0-0.8125-1.555175-1.12354l-0.05078-0.0127-0.437988-0.0889q-1.009277-0.19678-1.472656-0.66015-0.463379-0.46973-0.463379-1.27588 0-1.02198 0.691894-1.57422 0.691895-0.5586 1.974121-0.5586 0.57129 0 1.098145 0.10791 0.526855 0.10157 1.034668 0.31104zm5.547852-2.26611v2.01855h2.653315v0.90772h-2.653315v3.85937q0 0.78711 0.298339 1.09815 0.29834 0.31103 1.041016 0.31103h1.31396v0.93311h-1.428218q-1.313965 0-1.853515-0.52686-0.539551-0.52685-0.539551-1.81543v-3.85937h-1.897949v-0.90772h1.897949v-2.01855zm7.839355 2.8374q-0.88867 0-1.3457 0.69189-0.45703 0.6919-0.45703 2.0503 0 1.35205 0.45703 2.05029 0.45703 0.69189 1.3457 0.69189 0.89502 0 1.35205-0.69189 0.45703-0.69824 0.45703-2.05029 0-1.3584-0.45703-2.0503-0.45703-0.69189-1.35205-0.69189zm0-0.99024q1.479 0 2.25977 0.9585 0.78711 0.9585 0.78711 2.77393 0 1.82177-0.78077 2.78027-0.78076 0.95215-2.26611 0.95215-1.479 0-2.25977-0.95215-0.78076-0.9585-0.78076-2.78027 0-1.81543 0.78076-2.77393 0.78077-0.9585 2.25977-0.9585zm8.20752 0.89502q0.21582-0.45703 0.5459-0.67285 0.33642-0.22217 0.80615-0.22217 0.85693 0 1.20606 0.66651 0.35546 0.66015 0.35546 2.49463v4.11963h-1.0664v-4.06885q0-1.5044-0.17139-1.86621-0.16504-0.36817-0.60937-0.36817-0.50782 0-0.69825 0.39356-0.18408 0.38721-0.18408 1.84082v4.06885h-1.0664v-4.06885q0-1.52344-0.18409-1.87891-0.17773-0.35547-0.64746-0.35547-0.46338 0-0.64746 0.39356-0.17773 0.38721-0.17773 1.84082v4.06885h-1.06006v-7.10938h1.06006v0.60938q0.20947-0.38086 0.5205-0.57764 0.31739-0.20313 0.71729-0.20313 0.48242 0 0.7998 0.22217 0.32374 0.22217 0.50147 0.67285zm18.17334 6.04932q-0.48877 0.26025-1.00293 0.38721-0.51416 0.1333-1.0918 0.1333-1.82177 0-2.83105-1.28858-1.00293-1.28857-1.00293-3.62451 0-2.32324 1.00928-3.61816 1.01562-1.30127 2.8247-1.30127 0.57764 0 1.0918 0.1333 0.51416 0.12695 1.00293 0.38721v1.31396q-0.46973-0.38721-1.00928-0.59033-0.53955-0.20313-1.08545-0.20313-1.25049 0-1.87256 0.96485-0.62207 0.96484-0.62207 2.91357 0 1.94239 0.62207 2.90723t1.87256 0.96484q0.5586 0 1.0918-0.20312 0.53955-0.20313 1.00293-0.59033zm4.92578-5.9541q-0.88867 0-1.3457 0.69189-0.45703 0.6919-0.45703 2.0503 0 1.35205 0.45703 2.05029 0.45703 0.69189 1.3457 0.69189 0.89502 0 1.35205-0.69189 0.45703-0.69824 0.45703-2.05029 0-1.3584-0.45703-2.0503-0.45703-0.69189-1.35205-0.69189zm0-0.99024q1.479 0 2.25977 0.9585 0.78711 0.9585 0.78711 2.77393 0 1.82177-0.78077 2.78027-0.78076 0.95215-2.26611 0.95215-1.479 0-2.25977-0.95215-0.78076-0.9585-0.78076-2.78027 0-1.81543 0.78076-2.77393 0.78077-0.9585 2.25977-0.9585zm7.97266 4.70362q0 0.78711 0.28564 1.18701 0.29199 0.3999 0.85693 0.3999h1.36475v0.99024h-1.479q-1.04737 0-1.625-0.67286-0.57129-0.67285-0.57129-1.90429v-6.45557h-1.87256v-0.91406h3.04053zm7.68066-3.71338q-0.88867 0-1.3457 0.69189-0.45703 0.6919-0.45703 2.0503 0 1.35205 0.45703 2.05029 0.45703 0.69189 1.3457 0.69189 0.89502 0 1.35205-0.69189 0.45703-0.69824 0.45703-2.05029 0-1.3584-0.45703-2.0503-0.45703-0.69189-1.35205-0.69189zm0-0.99024q1.479 0 2.25977 0.9585 0.78711 0.9585 0.78711 2.77393 0 1.82177-0.78077 2.78027-0.78076 0.95215-2.26611 0.95215-1.479 0-2.25976-0.95215-0.78077-0.9585-0.78077-2.78027 0-1.81543 0.78077-2.77393 0.78076-0.9585 2.25976-0.9585zm5.1543 4.58936v-4.40527h1.16797v4.40527q0 0.9585 0.33642 1.40918 0.34278 0.45068 1.05371 0.45068 0.8252 0 1.26319-0.57763 0.43799-0.58399 0.43799-1.66944v-4.01806h1.17431v7.09668h-1.17431v-1.06641q-0.31104 0.61572-0.85059 0.93311-0.5332 0.31738-1.25049 0.31738-1.0918 0-1.625-0.71094-0.5332-0.71728-0.5332-2.16455zm13.92041-2.95166q-0.37451-0.29199-0.76172-0.42529t-0.85059-0.1333q-1.09179 0-1.66943 0.68554-0.57764 0.68555-0.57764 1.98047v3.53565h-1.17431v-7.10938h1.17431v1.39014q0.292-0.75537 0.89502-1.15528 0.60938-0.40625 1.44092-0.40625 0.43164 0 0.80615 0.10791t0.71729 0.33643zm6.13818-3.83398h1.20606l-4.98926 10.6831h-1.2124zm2.72949 0h1.71387l1.6377 4.82421 1.65039-4.82421h1.72021v9.47705h-1.18701v-8.37256l-1.68848 4.9956h-0.97119l-1.69482-4.9956v8.37256h-1.18067zm11.19092 3.18652q-0.88867 0-1.3457 0.69189-0.45703 0.6919-0.45703 2.0503 0 1.35205 0.45703 2.05029 0.45703 0.69189 1.3457 0.69189 0.89502 0 1.35205-0.69189 0.45703-0.69824 0.45703-2.05029 0-1.3584-0.45703-2.0503-0.45703-0.69189-1.35205-0.69189zm0-0.99024q1.47901 0 2.25977 0.9585 0.78711 0.9585 0.78711 2.77393 0 1.82177-0.78077 2.78027-0.78076 0.95215-2.26611 0.95215-1.479 0-2.25976-0.95215-0.78077-0.9585-0.78077-2.78027 0-1.81543 0.78077-2.77393 0.78076-0.9585 2.25976-0.9585zm9.36279 1.07911v-3.6753h1.16797v9.87696h-1.16797v-0.89502q-0.29199 0.52685-0.78076 0.80615-0.48242 0.27295-1.11718 0.27295-1.28858 0-2.03125-0.99658-0.73633-1.00293-0.73633-2.76123 0-1.73291 0.74267-2.7168 0.74268-0.99024 2.02491-0.99024 0.64111 0 1.12988 0.2793 0.48877 0.27295 0.76806 0.79981zm-3.43408 2.65332q0 1.35839 0.43164 2.05029 0.43164 0.69189 1.27588 0.69189t1.28223-0.69824q0.44433-0.69824 0.44433-2.04394 0-1.35205-0.44433-2.04395-0.43799-0.69824-1.28223-0.69824t-1.27588 0.69189q-0.43164 0.6919-0.43164 2.0503zm11.26074-2.65332v-3.6753h1.16797v9.87696h-1.16797v-0.89502q-0.29199 0.52685-0.78076 0.80615-0.48242 0.27295-1.11718 0.27295-1.28858 0-2.03125-0.99658-0.73633-1.00293-0.73633-2.76123 0-1.73291 0.74267-2.7168 0.74268-0.99024 2.02491-0.99024 0.64111 0 1.12988 0.2793 0.48877 0.27295 0.76806 0.79981zm-3.43408 2.65332q0 1.35839 0.43164 2.05029 0.43164 0.69189 1.27588 0.69189t1.28223-0.69824q0.44433-0.69824 0.44433-2.04394 0-1.35205-0.44433-2.04395-0.43799-0.69824-1.28223-0.69824t-1.27588 0.69189q-0.43164 0.6919-0.43164 2.0503zm12.87305-0.29834v0.57129h-5.05908v0.0381q0 1.16162 0.60302 1.79639 0.60938 0.63476 1.71387 0.63476 0.5586 0 1.16797-0.17773 0.60938-0.17773 1.30127-0.53955v1.16162q-0.6665 0.27295-1.28857 0.40625-0.61573 0.13965-1.19336 0.13965-1.65674 0-2.58985-0.99024-0.9331-0.99658-0.9331-2.74218 0-1.70118 0.91406-2.7168 0.91406-1.01563 2.4375-1.01563 1.3584 0 2.13916 0.92041 0.78711 0.92041 0.78711 2.51368zm-1.16797-0.34278q-0.0254-1.02832-0.48877-1.56152-0.45703-0.53955-1.32031-0.53955-0.84424 0-1.39014 0.55859-0.5459 0.5586-0.64746 1.54883zm7.38233-2.0122v-3.6753h1.16796v9.87696h-1.16796v-0.89502q-0.292 0.52685-0.78077 0.80615-0.48242 0.27295-1.11718 0.27295-1.28858 0-2.03125-0.99658-0.73633-1.00293-0.73633-2.76123 0-1.73291 0.74267-2.7168 0.74268-0.99024 2.02491-0.99024 0.64111 0 1.12988 0.2793 0.48877 0.27295 0.76807 0.79981zm-3.43409 2.65332q0 1.35839 0.43164 2.05029 0.43164 0.69189 1.27588 0.69189t1.28223-0.69824q0.44434-0.69824 0.44434-2.04394 0-1.35205-0.44434-2.04395-0.43799-0.69824-1.28223-0.69824t-1.27588 0.69189q-0.43164 0.6919-0.43164 2.0503zm20.45215 3.21191q-0.48877 0.26025-1.00293 0.38721-0.51416 0.1333-1.0918 0.1333-1.82177 0-2.83105-1.28858-1.00293-1.28857-1.00293-3.62451 0-2.32324 1.00928-3.61816 1.01562-1.30127 2.8247-1.30127 0.57764 0 1.0918 0.1333 0.51416 0.12695 1.00293 0.38721v1.31396q-0.46973-0.38721-1.00928-0.59033-0.53955-0.20313-1.08545-0.20313-1.25048 0-1.87255 0.96485-0.62207 0.96484-0.62207 2.91357 0 1.94239 0.62207 2.90723t1.87255 0.96484q0.5586 0 1.0918-0.20312 0.53955-0.20313 1.00293-0.59033zm5.47168-3.2373h-0.38721q-1.02197 0-1.54248 0.36181-0.51416 0.35547-0.51416 1.06641 0 0.64111 0.38721 0.99658t1.07275 0.35547q0.96485 0 1.51709-0.6665 0.55225-0.67286 0.5586-1.85352v-0.26025zm2.26611-0.48243v4.05616h-1.17431v-1.05371q-0.37451 0.63476-0.9458 0.93945-0.56494 0.29834-1.37744 0.29834-1.08545 0-1.73291-0.60938-0.64747-0.61572-0.64747-1.64404 0-1.18701 0.79346-1.80273 0.79981-0.61573 2.34229-0.61573h1.56787v-0.18408q-6e-3 -0.85058-0.43164-1.23144-0.4253-0.38721-1.3584-0.38721-0.59668 0-1.20606 0.17139-0.60937 0.17138-1.18701 0.50146v-1.16797q0.64746-0.24756 1.2378-0.36816 0.59668-0.12696 1.15527-0.12696 0.88232 0 1.50439 0.26026 0.62842 0.26025 1.01563 0.78076 0.24121 0.31738 0.34277 0.78711 0.10156 0.46338 0.10156 1.39648zm5.39551-2.32959q0.21582-0.45703 0.5459-0.67285 0.33643-0.22217 0.80615-0.22217 0.85694 0 1.20606 0.66651 0.35547 0.66015 0.35547 2.49463v4.11963h-1.06641v-4.06885q0-1.5044-0.17139-1.86621-0.16504-0.36817-0.60937-0.36817-0.50781 0-0.69824 0.39356-0.18409 0.38721-0.18409 1.84082v4.06885h-1.0664v-4.06885q0-1.52344-0.18408-1.87891-0.17774-0.35547-0.64746-0.35547-0.46338 0-0.64747 0.39356-0.17773 0.38721-0.17773 1.84082v4.06885h-1.06006v-7.10938h1.06006v0.60938q0.20947-0.38086 0.52051-0.57764 0.31738-0.20313 0.71728-0.20313 0.48242 0 0.79981 0.22217 0.32373 0.22217 0.50146 0.67285zm5.91602 5.49073v3.59912h-1.17432v-9.81348h1.17432v0.90772q0.29199-0.52686 0.77441-0.79981 0.48877-0.2793 1.12354-0.2793 1.28857 0 2.01855 0.99659 0.73633 0.99658 0.73633 2.76123 0 1.73291-0.73633 2.72314-0.73633 0.98389-2.01855 0.98389-0.64746 0-1.13623-0.27295-0.48243-0.2793-0.76172-0.80615zm3.42773-2.65332q0-1.3584-0.43164-2.0503-0.42529-0.69189-1.26953-0.69189-0.85059 0-1.28857 0.69824-0.43799 0.6919-0.43799 2.04395 0 1.3457 0.43799 2.04394 0.43798 0.69824 1.28857 0.69824 0.84424 0 1.26953-0.69189 0.43164-0.6919 0.43164-2.05029zm6.47461-0.0254h-0.38721q-1.02197 0-1.54248 0.36181-0.51416 0.35547-0.51416 1.06641 0 0.64111 0.38721 0.99658t1.07275 0.35547q0.96485 0 1.51709-0.6665 0.55225-0.67286 0.5586-1.85352v-0.26025zm2.26611-0.48243v4.05616h-1.17431v-1.05371q-0.37451 0.63476-0.9458 0.93945-0.56494 0.29834-1.37744 0.29834-1.08545 0-1.73291-0.60938-0.64746-0.61572-0.64746-1.64404 0-1.18701 0.79345-1.80273 0.79981-0.61573 2.34229-0.61573h1.56787v-0.18408q-6e-3 -0.85058-0.43164-1.23144-0.4253-0.38721-1.3584-0.38721-0.59668 0-1.20606 0.17139-0.60937 0.17138-1.18701 0.50146v-1.16797q0.64746-0.24756 1.2378-0.36816 0.59668-0.12696 1.15527-0.12696 0.88232 0 1.50439 0.26026 0.62842 0.26025 1.01563 0.78076 0.24121 0.31738 0.34277 0.78711 0.10156 0.46338 0.10156 1.39648zm2.7295-3.05322h2.98974v6.20166h2.3169v0.90772h-5.80176v-0.90772h2.31689v-5.29394h-1.82177zm1.82177-2.76758h1.16797v1.47901h-1.16797zm9.82618 6.26514q0-1.31397-0.43164-1.99316-0.4253-0.68555-1.24414-0.68555-0.85694 0-1.30762 0.68555-0.45069 0.67919-0.45069 1.99316 0 1.31396 0.45069 2.00586 0.45703 0.68555 1.32031 0.68555 0.80615 0 1.23145-0.6919 0.43164-0.69189 0.43164-1.99951zm1.16797 3.15478q0 1.59961-0.75538 2.42481-0.75537 0.82519-2.22168 0.82519-0.48242 0-1.00927-0.0889-0.52686-0.0889-1.05371-0.26026v-1.15527q0.62207 0.29199 1.12988 0.43164t0.9331 0.13965q0.94581 0 1.37745-0.51416t0.43164-1.63135v-0.84426q-0.2793 0.59668-0.76172 0.88868-0.48242 0.29199-1.17432 0.29199-1.24414 0-1.98682-0.99658-0.74267-0.99659-0.74267-2.66602 0-1.67578 0.74267-2.67236 0.74268-0.99659 1.98682-0.99659 0.68555 0 1.16162 0.27295 0.47608 0.27295 0.77442 0.84424v-0.92041h1.16797zm7.88378-3.94824v4.40528h-1.17431v-4.40528q0-0.95849-0.33643-1.40918-0.33642-0.45068-1.05371-0.45068-0.81885 0-1.26318 0.58398-0.43799 0.57764-0.43799 1.66309v4.01807h-1.16797v-7.10938h1.16797v1.06641q0.31103-0.60938 0.84424-0.92041 0.5332-0.31739 1.26318-0.31739 1.08545 0 1.61865 0.71729 0.53955 0.71094 0.53955 2.1582zm7.33155-2.45654v1.14258q-0.50147-0.29199-1.00928-0.43799t-1.03467-0.146q-0.79346 0-1.18701 0.26026-0.38721 0.2539-0.38721 0.78076 0 0.47607 0.292 0.71094 0.29199 0.23486 1.45361 0.45703l0.46973 0.0889q0.86962 0.16503 1.31396 0.66015 0.45068 0.49512 0.45068 1.28858 0 1.05371-0.74902 1.65039-0.74902 0.59033-2.08203 0.59033-0.52686 0-1.10449-0.11426-0.57764-0.10791-1.25049-0.33008v-1.20605q0.65381 0.33642 1.25049 0.50781 0.59668 0.16504 1.12988 0.16504 0.77441 0 1.19971-0.31104 0.42529-0.31738 0.42529-0.88232 0-0.8125-1.55518-1.12354l-0.0508-0.0127-0.43799-0.0889q-1.00927-0.19678-1.47265-0.66015-0.46338-0.46973-0.46338-1.27588 0-1.02198 0.69189-1.57422 0.6919-0.5586 1.97412-0.5586 0.57129 0 1.09815 0.10791 0.52685 0.10157 1.03467 0.31104z" fill="#1e90ff"/><path d="m313.2915 483.99902v-7.74414h7.75049v7.74414z" fill="#fff"/><path d="m335.33057 474.35059v1.30127q-0.58399-0.37452-1.17432-0.56495-0.58398-0.19043-1.18066-0.19043-0.90772 0-1.43457 0.4253-0.52686 0.41894-0.52686 1.13623 0 0.62842 0.34277 0.95849 0.34912 0.33008 1.29493 0.55225l0.67285 0.15234q1.333 0.31104 1.94238 0.97754 0.60937 0.66651 0.60937 1.81543 0 1.35205-0.83789 2.06299t-2.4375 0.71094q-0.6665 0-1.33935-0.146-0.67285-0.13965-1.35205-0.42529v-1.36475q0.72998 0.46338 1.37744 0.6792 0.65381 0.21582 1.31396 0.21582 0.9712 0 1.51075-0.43164 0.53955-0.43799 0.53955-1.21875 0-0.71094-0.37451-1.08545-0.36817-0.37451-1.28858-0.57763l-0.68555-0.1587q-1.32031-0.29834-1.91699-0.90136-0.59668-0.60303-0.59668-1.61865 0-1.26954 0.85059-2.03125 0.85693-0.76807 2.27246-0.76807 0.5459 0 1.14893 0.12695 0.60302 0.12061 1.26953 0.36817zm2.64062 6.46191v-4.40527h1.16797v4.40527q0 0.9585 0.33643 1.40918 0.34277 0.45068 1.05371 0.45068 0.82519 0 1.26318-0.57763 0.43799-0.58399 0.43799-1.66944v-4.01806h1.17432v7.09668h-1.17432v-1.06641q-0.31104 0.61572-0.85059 0.93311-0.5332 0.31738-1.25049 0.31738-1.09179 0-1.625-0.71094-0.5332-0.71728-0.5332-2.16455zm13.92041-2.95166q-0.37451-0.29199-0.76172-0.42529-0.3872-0.1333-0.85058-0.1333-1.0918 0-1.66944 0.68554-0.57763 0.68555-0.57763 1.98047v3.53565h-1.17432v-7.10938h1.17432v1.39014q0.29199-0.75537 0.89502-1.15528 0.60937-0.40625 1.44091-0.40625 0.43164 0 0.80616 0.10791 0.37451 0.10791 0.71728 0.33643zm1.12988-1.46631h1.21241l2.06298 5.9668 2.06934-5.9668h1.2124l-2.52636 7.10938h-1.5044zm8.8169 0h2.98974v6.20166h2.3169v0.90772h-5.80176v-0.90772h2.3169v-5.29394h-1.82178zm1.82178-2.76758h1.16796v1.47901h-1.16796zm5.01464 2.76758h1.21241l2.06299 5.9668 2.06933-5.9668h1.2124l-2.52636 7.10938h-1.5044zm11.10206 0.81885q-0.88868 0-1.34571 0.69189-0.45703 0.6919-0.45703 2.0503 0 1.35205 0.45703 2.05029 0.45703 0.69189 1.34571 0.69189 0.89501 0 1.35205-0.69189 0.45703-0.69824 0.45703-2.05029 0-1.3584-0.45703-2.0503-0.45704-0.69189-1.35205-0.69189zm0-0.99024q1.479 0 2.25976 0.9585 0.78711 0.9585 0.78711 2.77393 0 1.82177-0.78076 2.78027-0.78076 0.95215-2.26611 0.95215-1.47901 0-2.25977-0.95215-0.78076-0.9585-0.78076-2.78027 0-1.81543 0.78076-2.77393t2.25977-0.9585zm11.24804 1.6377q-0.37451-0.29199-0.76172-0.42529-0.3872-0.1333-0.85058-0.1333-1.0918 0-1.66944 0.68554-0.57763 0.68555-0.57763 1.98047v3.53565h-1.17432v-7.10938h1.17432v1.39014q0.29199-0.75537 0.89502-1.15528 0.60937-0.40625 1.44091-0.40625 0.43165 0 0.80616 0.10791t0.71728 0.33643z" fill="#1e90ff"/><path d="m399.38477 483.99902v-7.74414h7.75048v7.74414z" fill="#ffff73"/><path d="m415.5459 474.02686h1.71387l1.63769 4.82421 1.65039-4.82421h1.72022v9.47705h-1.18702v-8.37256l-1.68847 4.9956h-0.97119l-1.69483-4.9956v8.37256h-1.18066zm11.19092 3.18652q-0.88868 0-1.34571 0.69189-0.45703 0.6919-0.45703 2.0503 0 1.35205 0.45703 2.05029 0.45703 0.69189 1.34571 0.69189 0.89502 0 1.35205-0.69189 0.45703-0.69824 0.45703-2.05029 0-1.3584-0.45703-2.0503-0.45703-0.69189-1.35205-0.69189zm0-0.99024q1.479 0 2.25976 0.9585 0.78711 0.9585 0.78711 2.77393 0 1.82177-0.78076 2.78027-0.78076 0.95215-2.26611 0.95215-1.47901 0-2.25977-0.95215-0.78076-0.9585-0.78076-2.78027 0-1.81543 0.78076-2.77393t2.25977-0.9585zm10.58789 2.87549v4.40528h-1.17432v-4.40528q0-0.95849-0.33643-1.40918-0.33642-0.45068-1.05371-0.45068-0.81884 0-1.26318 0.58398-0.43799 0.57764-0.43799 1.66309v4.01807h-1.16797v-7.10938h1.16797v1.06641q0.31104-0.60938 0.84424-0.92041 0.5332-0.31739 1.26318-0.31739 1.08545 0 1.61866 0.71729 0.53955 0.71094 0.53955 2.1582zm2.65332-5.47168h1.20605v5.71924l3.06592-2.95166h1.42187l-2.79931 2.67871 3.2373 4.43067h-1.42822l-2.62793-3.66895-0.86963 0.81885v2.8501h-1.20605z" fill="#1e90ff"/><path d="m454.17139 483.99902v-7.74414h7.75048v7.74414z" fill="#ff7373"/><path d="m470.65625 474.02686h1.28857v3.88476h3.51026v-3.88476h1.28857v9.47705h-1.28857v-4.51319h-3.51026v4.51319h-1.28857zm8.19482 6.78564v-4.40527h1.16797v4.40527q0 0.9585 0.33643 1.40918 0.34277 0.45068 1.05371 0.45068 0.82519 0 1.26318-0.57763 0.43799-0.58399 0.43799-1.66944v-4.01806h1.17432v7.09668h-1.17432v-1.06641q-0.31103 0.61572-0.85058 0.93311-0.53321 0.31738-1.25049 0.31738-1.0918 0-1.625-0.71094-0.53321-0.71728-0.53321-2.16455zm13.26026-1.71387v4.40528h-1.17432v-4.40528q0-0.95849-0.33642-1.40918-0.33643-0.45068-1.05372-0.45068-0.81884 0-1.26318 0.58398-0.43799 0.57764-0.43799 1.66309v4.01807h-1.16797v-7.10938h1.16797v1.06641q0.31104-0.60938 0.84424-0.92041 0.5332-0.31739 1.26318-0.31739 1.08545 0 1.61866 0.71729 0.53955 0.71094 0.53955 2.1582zm5.05273-4.72265v2.01855h2.65332v0.90772h-2.65332v3.85937q0 0.78711 0.29834 1.09815 0.29834 0.31103 1.04102 0.31103h1.31396v0.93311h-1.42822q-1.31396 0-1.85352-0.52686-0.53955-0.52685-0.53955-1.81543v-3.85937h-1.89795v-0.90772h1.89795v-2.01855zm10.9878 5.28125v0.57129h-5.05909v0.0381q0 1.16162 0.60303 1.79639 0.60938 0.63476 1.71387 0.63476 0.55859 0 1.16797-0.17773 0.60937-0.17773 1.30127-0.53955v1.16162q-0.66651 0.27295-1.28858 0.40625-0.61572 0.13965-1.19336 0.13965-1.65674 0-2.58984-0.99024-0.93311-0.99658-0.93311-2.74218 0-1.70118 0.91407-2.7168 0.91406-1.01563 2.4375-1.01563 1.35839 0 2.13916 0.92041 0.78711 0.92041 0.78711 2.51368zm-1.16797-0.34278q-0.0254-1.02832-0.48877-1.56152-0.45703-0.53955-1.32032-0.53955-0.84423 0-1.39013 0.55859-0.5459 0.5586-0.64746 1.54883zm9.26757-1.45361q-0.37451-0.29199-0.76171-0.42529-0.38721-0.1333-0.85059-0.1333-1.0918 0-1.66943 0.68554-0.57764 0.68555-0.57764 1.98047v3.53565h-1.17432v-7.10938h1.17432v1.39014q0.29199-0.75537 0.89502-1.15528 0.60937-0.40625 1.44092-0.40625 0.43164 0 0.80615 0.10791t0.71728 0.33643z" fill="#1e90ff"/><path d="m524.61133 483.99902v-7.74414h7.75049v7.74414z" fill="#f0c097"/><path d="m547.23437 482.72314q-0.51416 0.47608-1.16162 0.72364-0.64111 0.24121-1.39013 0.24121-1.80274 0-2.80567-1.28858-1.00293-1.29492-1.00293-3.62451 0-2.32324 1.01563-3.61816 1.01562-1.30127 2.82471-1.30127 0.59668 0 1.14257 0.17139 0.5459 0.16503 1.05371 0.50781v1.31396q-0.51416-0.48877-1.05371-0.71728-0.53955-0.23487-1.14257-0.23487-1.25049 0-1.87891 0.9712-0.62207 0.96484-0.62207 2.90722 0 1.97412 0.60303 2.92627 0.60937 0.9458 1.86621 0.9458 0.42529 0 0.74267-0.0952 0.32373-0.10156 0.58399-0.31104v-2.54541h-1.37744v-1.05371h2.60253zm4.72901-5.50976q-0.88867 0-1.3457 0.69189-0.45704 0.6919-0.45704 2.0503 0 1.35205 0.45704 2.05029 0.45703 0.69189 1.3457 0.69189 0.89502 0 1.35205-0.69189 0.45703-0.69824 0.45703-2.05029 0-1.3584-0.45703-2.0503-0.45703-0.69189-1.35205-0.69189zm0-0.99024q1.479 0 2.25976 0.9585 0.78711 0.9585 0.78711 2.77393 0 1.82177-0.78076 2.78027-0.78076 0.95215-2.26611 0.95215-1.47901 0-2.25977-0.95215-0.78076-0.9585-0.78076-2.78027 0-1.81543 0.78076-2.77393t2.25977-0.9585zm5.1543 4.58936v-4.40527h1.16796v4.40527q0 0.9585 0.33643 1.40918 0.34277 0.45068 1.05371 0.45068 0.8252 0 1.26318-0.57763 0.43799-0.58399 0.43799-1.66944v-4.01806h1.17432v7.09668h-1.17432v-1.06641q-0.31103 0.61572-0.85058 0.93311-0.53321 0.31738-1.25049 0.31738-1.0918 0-1.625-0.71094-0.5332-0.71728-0.5332-2.16455zm13.92041-2.95166q-0.37452-0.29199-0.76172-0.42529-0.38721-0.1333-0.85059-0.1333-1.0918 0-1.66943 0.68554-0.57764 0.68555-0.57764 1.98047v3.53565h-1.17432v-7.10938h1.17432v1.39014q0.29199-0.75537 0.89502-1.15528 0.60938-0.40625 1.44092-0.40625 0.43164 0 0.80615 0.10791t0.71729 0.33643zm4.78613-0.74268q0.21582-0.45703 0.5459-0.67285 0.33642-0.22217 0.80615-0.22217 0.85693 0 1.20605 0.66651 0.35547 0.66015 0.35547 2.49463v4.11963h-1.0664v-4.06885q0-1.5044-0.17139-1.86621-0.16504-0.36817-0.60938-0.36817-0.50781 0-0.69824 0.39356-0.18408 0.38721-0.18408 1.84082v4.06885h-1.06641v-4.06885q0-1.52344-0.18408-1.87891-0.17773-0.35547-0.64746-0.35547-0.46338 0-0.64746 0.39356-0.17773 0.38721-0.17773 1.84082v4.06885h-1.06006v-7.10938h1.06006v0.60938q0.20947-0.38086 0.5205-0.57764 0.31739-0.20313 0.71729-0.20313 0.48242 0 0.7998 0.22217 0.32373 0.22217 0.50147 0.67285zm7.9917 2.81202h-0.38721q-1.02197 0-1.54248 0.36181-0.51416 0.35547-0.51416 1.06641 0 0.64111 0.38721 0.99658 0.3872 0.35547 1.07275 0.35547 0.96484 0 1.51709-0.6665 0.55225-0.67286 0.55859-1.85352v-0.26025zm2.26611-0.48243v4.05616h-1.17432v-1.05371q-0.37451 0.63476-0.9458 0.93945-0.56494 0.29834-1.37744 0.29834-1.08545 0-1.73291-0.60938-0.64746-0.61572-0.64746-1.64404 0-1.18701 0.79346-1.80273 0.7998-0.61573 2.34228-0.61573h1.56787v-0.18408q-6e-3 -0.85058-0.43164-1.23144-0.42529-0.38721-1.35839-0.38721-0.59668 0-1.20606 0.17139-0.60937 0.17138-1.18701 0.50146v-1.16797q0.64746-0.24756 1.23779-0.36816 0.59668-0.12696 1.15528-0.12696 0.88232 0 1.50439 0.26026 0.62842 0.26025 1.01563 0.78076 0.24121 0.31738 0.34277 0.78711 0.10156 0.46338 0.10156 1.39648zm7.77588-0.34912v4.40528h-1.17432v-4.40528q0-0.95849-0.33642-1.40918-0.33643-0.45068-1.05371-0.45068-0.81885 0-1.26319 0.58398-0.43798 0.57764-0.43798 1.66309v4.01807h-1.16797v-7.10938h1.16797v1.06641q0.31103-0.60938 0.84423-0.92041 0.53321-0.31739 1.26319-0.31739 1.08545 0 1.61865 0.71729 0.53955 0.71094 0.53955 2.1582zm6.60156-1.79638v-3.6753h1.16797v9.87696h-1.16797v-0.89502q-0.29199 0.52685-0.78076 0.80615-0.48242 0.27295-1.11719 0.27295-1.28857 0-2.03125-0.99658-0.73632-1.00293-0.73632-2.76123 0-1.73291 0.74267-2.7168 0.74268-0.99024 2.0249-0.99024 0.64112 0 1.12989 0.2793 0.48877 0.27295 0.76806 0.79981zm-3.43408 2.65332q0 1.35839 0.43164 2.05029 0.43164 0.69189 1.27588 0.69189t1.28223-0.69824q0.44433-0.69824 0.44433-2.04394 0-1.35205-0.44433-2.04395-0.43799-0.69824-1.28223-0.69824t-1.27588 0.69189q-0.43164 0.6919-0.43164 2.0503z" fill="#1e90ff"/><path d="m610.70459 483.99902v-7.74414h7.75049v7.74414z" fill="#70223b"/><path d="m630.22998 475.15674-1.35205 4.84961h2.7041zm-0.77441-1.12988h1.55517l2.90088 9.47705h-1.32666l-0.69824-2.46924h-3.31983l-0.68554 2.46924h-1.32666zm12.02246 3.83398q-0.37451-0.29199-0.76172-0.42529t-0.85059-0.1333q-1.09179 0-1.66943 0.68554-0.57764 0.68555-0.57764 1.98047v3.53565h-1.17431v-7.10938h1.17431v1.39014q0.29199-0.75537 0.89502-1.15528 0.60938-0.40625 1.44092-0.40625 0.43164 0 0.80615 0.10791t0.71729 0.33643zm4.39258-3.48486v2.01855h2.65332v0.90772h-2.65332v3.85937q0 0.78711 0.29834 1.09815 0.29834 0.31103 1.04101 0.31103h1.31397v0.93311h-1.42823q-1.31396 0-1.85351-0.52686-0.53955-0.52685-0.53955-1.81543v-3.85937h-1.89795v-0.90772h1.89795v-2.01855zm5.55419 2.01855h2.98975v6.20166h2.3169v0.90772h-5.80176v-0.90772h2.31689v-5.29394h-1.82178zm1.82178-2.76758h1.16797v1.47901h-1.16797zm11.12744 0v0.97119h-1.32666q-0.62841 0-0.87597 0.26026-0.24121 0.2539-0.24121 0.90771v0.62842h2.44384v0.90772h-2.44384v6.20166h-1.16797v-6.20166h-1.89795v-0.90772h1.89795v-0.49512q0-1.16796 0.5332-1.72021 0.53955-0.55225 1.67578-0.55225zm2.7041 2.76758h2.98975v6.20166h2.3169v0.90772h-5.80176v-0.90772h2.31689v-5.29394h-1.82178zm1.82178-2.76758h1.16797v1.47901h-1.16797zm11.11475 9.51514q-0.46973 0.27295-0.97119 0.40625-0.49512 0.13965-1.01563 0.13965-1.65039 0-2.58349-0.99024-0.92676-0.99023-0.92676-2.74218 0-1.75196 0.92676-2.74219 0.9331-0.99024 2.58349-0.99024 0.51416 0 1.00293 0.13331 0.48877 0.1333 0.98389 0.41259v1.2251q-0.46338-0.4126-0.93311-0.59668-0.46338-0.18408-1.05371-0.18408-1.09814 0-1.68847 0.71094-0.59034 0.71093-0.59034 2.03125 0 1.31396 0.59034 2.03125 0.59668 0.71093 1.68847 0.71093 0.60938 0 1.0918-0.18408 0.48242-0.19043 0.89502-0.58398zm8.15039-3.48486v0.57129h-5.05908v0.0381q0 1.16162 0.60302 1.79639 0.60938 0.63476 1.71387 0.63476 0.5586 0 1.16797-0.17773 0.60938-0.17773 1.30127-0.53955v1.16162q-0.6665 0.27295-1.28857 0.40625-0.61573 0.13965-1.19336 0.13965-1.65674 0-2.58985-0.99024-0.9331-0.99658-0.9331-2.74218 0-1.70118 0.91406-2.7168 0.91406-1.01563 2.4375-1.01563 1.3584 0 2.13916 0.92041 0.78711 0.92041 0.78711 2.51368zm-1.16797-0.34278q-0.0254-1.02832-0.48877-1.56152-0.45703-0.53955-1.32031-0.53955-0.84424 0-1.39014 0.55859-0.5459 0.5586-0.64746 1.54883zm9.26758-1.45361q-0.37451-0.29199-0.76172-0.42529t-0.85059-0.1333q-1.09179 0-1.66943 0.68554-0.57764 0.68555-0.57764 1.98047v3.53565h-1.17431v-7.10938h1.17431v1.39014q0.292-0.75537 0.89502-1.15528 0.60938-0.40625 1.44092-0.40625 0.43164 0 0.80615 0.10791t0.71729 0.33643z" fill="#1e90ff"/><path d="m704.62451 483.99902v-7.74414h7.75049v7.74414z" fill="#91ccf0"/><path d="m725.06396 479.02881q0.49512 0.12695 0.84424 0.48242 0.34912 0.34912 0.86963 1.40283l1.28858 2.58985h-1.37745l-1.12988-2.39307q-0.48877-1.02197-0.88232-1.31397-0.38721-0.29833-1.01563-0.29833h-1.22509v4.00537h-1.28858v-9.47705h2.64063q1.56152 0 2.39306 0.70459 0.83155 0.70459 0.83155 2.03759 0 0.93946-0.51416 1.53614-0.50782 0.59033-1.43458 0.72363zm-2.62792-3.94824v3.36425h1.40283q0.92041 0 1.37109-0.41259 0.45068-0.4126 0.45068-1.26319 0-0.81884-0.48242-1.25049-0.47607-0.43798-1.39013-0.43798zm7.25537 1.31396h2.98974v6.20166h2.3169v0.90772h-5.80176v-0.90772h2.31689v-5.29394h-1.82177zm1.82177-2.76758h1.16797v1.47901h-1.16797zm5.01465 2.76758h1.2124l2.06299 5.9668 2.06934-5.9668h1.2124l-2.52637 7.10938h-1.50439zm8.42969 4.41797v-4.40527h1.16797v4.40527q0 0.9585 0.33642 1.40918 0.34278 0.45068 1.05371 0.45068 0.8252 0 1.26319-0.57763 0.43799-0.58399 0.43799-1.66944v-4.01806h1.17431v7.09668h-1.17431v-1.06641q-0.31104 0.61572-0.85059 0.93311-0.5332 0.31738-1.25049 0.31738-1.09179 0-1.625-0.71094-0.5332-0.71728-0.5332-2.16455zm10.64502 0.11426q0 0.78711 0.28564 1.18701 0.292 0.3999 0.85694 0.3999h1.36474v0.99024h-1.479q-1.04736 0-1.625-0.67286-0.57129-0.67285-0.57129-1.90429v-6.45557h-1.87256v-0.91406h3.04053zm10.8291-1.26953v0.57129h-5.05908v0.0381q0 1.16162 0.60303 1.79639 0.60937 0.63476 1.71386 0.63476 0.5586 0 1.16797-0.17773 0.60938-0.17773 1.30127-0.53955v1.16162q-0.6665 0.27295-1.28857 0.40625-0.61573 0.13965-1.19336 0.13965-1.65674 0-2.58985-0.99024-0.9331-0.99658-0.9331-2.74218 0-1.70118 0.91406-2.7168 0.91406-1.01563 2.4375-1.01563 1.3584 0 2.13916 0.92041 0.78711 0.92041 0.78711 2.51368zm-1.16797-0.34278q-0.0254-1.02832-0.48877-1.56152-0.45703-0.53955-1.32031-0.53955-0.84424 0-1.39014 0.55859-0.5459 0.5586-0.64746 1.54883zm5.8335-4.93847v2.01855h2.65332v0.90772h-2.65332v3.85937q0 0.78711 0.29834 1.09815 0.29834 0.31103 1.04101 0.31103h1.31397v0.93311h-1.42822q-1.31397 0-1.85352-0.52686-0.53955-0.52685-0.53955-1.81543v-3.85937h-1.89795v-0.90772h1.89795v-2.01855z" fill="#1e90ff"/><path d="m314.61816 500.24902v-7.74414h7.75049v7.74414z" fill="#4f2d68"/><path d="m336.65723 490.60059v1.30127q-0.58399-0.37452-1.17432-0.56495-0.58398-0.19043-1.18066-0.19043-0.90772 0-1.43457 0.4253-0.52686 0.41894-0.52686 1.13623 0 0.62842 0.34277 0.95849 0.34912 0.33008 1.29493 0.55225l0.67285 0.15234q1.333 0.31104 1.94238 0.97754 0.60937 0.66651 0.60937 1.81543 0 1.35205-0.83789 2.06299t-2.4375 0.71094q-0.6665 0-1.33935-0.146-0.67285-0.13965-1.35205-0.42529v-1.36475q0.72998 0.46338 1.37744 0.6792 0.65381 0.21582 1.31396 0.21582 0.9712 0 1.51075-0.43164 0.53955-0.43799 0.53955-1.21875 0-0.71094-0.37451-1.08545-0.36817-0.37451-1.28858-0.57763l-0.68555-0.1587q-1.32031-0.29834-1.91699-0.90136-0.59668-0.60303-0.59668-1.61865 0-1.26954 0.85059-2.03125 0.85693-0.76807 2.27246-0.76807 0.5459 0 1.14893 0.12695 0.60302 0.12061 1.26953 0.36817zm3.7832 8.2583v3.59912h-1.17432v-9.81348h1.17432v0.90772q0.29199-0.52686 0.77441-0.79981 0.48877-0.2793 1.12354-0.2793 1.28857 0 2.01855 0.99659 0.73633 0.99658 0.73633 2.76123 0 1.73291-0.73633 2.72314-0.73632 0.98389-2.01855 0.98389-0.64746 0-1.13623-0.27295-0.48242-0.2793-0.76172-0.80615zm3.42773-2.65332q0-1.3584-0.43164-2.0503-0.42529-0.69189-1.26953-0.69189-0.85058 0-1.28857 0.69824-0.43799 0.6919-0.43799 2.04395 0 1.3457 0.43799 2.04394t1.28857 0.69824q0.84424 0 1.26953-0.69189 0.43164-0.6919 0.43164-2.05029zm9.07715-0.29834v0.57129h-5.05908v0.0381q0 1.16162 0.60303 1.79639 0.60937 0.63476 1.71386 0.63476 0.5586 0 1.16797-0.17773 0.60938-0.17773 1.30127-0.53955v1.16162q-0.6665 0.27295-1.28857 0.40625-0.61572 0.13965-1.19336 0.13965-1.65674 0-2.58984-0.99024-0.93311-0.99658-0.93311-2.74218 0-1.70118 0.91406-2.7168 0.91407-1.01563 2.4375-1.01563 1.3584 0 2.13916 0.92041 0.78711 0.92041 0.78711 2.51368zm-1.16797-0.34278q-0.0254-1.02832-0.48877-1.56152-0.45703-0.53955-1.32031-0.53955-0.84424 0-1.39014 0.55859-0.54589 0.5586-0.64746 1.54883zm6.39209 0.61573h-0.3872q-1.02198 0-1.54248 0.36181-0.51416 0.35547-0.51416 1.06641 0 0.64111 0.3872 0.99658 0.38721 0.35547 1.07276 0.35547 0.96484 0 1.51709-0.6665 0.55224-0.67286 0.55859-1.85352v-0.26025zm2.26612-0.48243v4.05616h-1.17432v-1.05371q-0.37451 0.63476-0.9458 0.93945-0.56494 0.29834-1.37744 0.29834-1.08545 0-1.73291-0.60938-0.64746-0.61572-0.64746-1.64404 0-1.18701 0.79345-1.80273 0.79981-0.61573 2.34229-0.61573h1.56787v-0.18408q-6e-3 -0.85058-0.43164-1.23144-0.42529-0.38721-1.3584-0.38721-0.59668 0-1.20605 0.17139-0.60938 0.17138-1.18702 0.50146v-1.16797q0.64747-0.24756 1.2378-0.36816 0.59668-0.12696 1.15527-0.12696 0.88233 0 1.5044 0.26026 0.62841 0.26025 1.01562 0.78076 0.24121 0.31738 0.34277 0.78711 0.10157 0.46338 0.10157 1.39648zm8.43603-1.58691q-0.37451-0.29199-0.76172-0.42529-0.3872-0.1333-0.85058-0.1333-1.0918 0-1.66944 0.68554-0.57763 0.68555-0.57763 1.98047v3.53565h-1.17432v-7.10938h1.17432v1.39014q0.29199-0.75537 0.89502-1.15528 0.60937-0.40625 1.44091-0.40625 0.43165 0 0.80616 0.10791t0.71728 0.33643zm4.78613-0.74268q0.21583-0.45703 0.5459-0.67285 0.33643-0.22217 0.80616-0.22217 0.85693 0 1.20605 0.66651 0.35547 0.66015 0.35547 2.49463v4.11963h-1.06641v-4.06885q0-1.5044-0.17138-1.86621-0.16504-0.36817-0.60938-0.36817-0.50781 0-0.69824 0.39356-0.18408 0.38721-0.18408 1.84082v4.06885h-1.06641v-4.06885q0-1.52344-0.18408-1.87891-0.17774-0.35547-0.64746-0.35547-0.46338 0-0.64746 0.39356-0.17774 0.38721-0.17774 1.84082v4.06885h-1.06006v-7.10938h1.06006v0.60938q0.20947-0.38086 0.52051-0.57764 0.31738-0.20313 0.71729-0.20313 0.48242 0 0.7998 0.22217 0.32373 0.22217 0.50146 0.67285zm7.9917 2.81202h-0.3872q-1.02198 0-1.54248 0.36181-0.51416 0.35547-0.51416 1.06641 0 0.64111 0.3872 0.99658 0.38721 0.35547 1.07276 0.35547 0.96484 0 1.51709-0.6665 0.55224-0.67286 0.55859-1.85352v-0.26025zm2.26612-0.48243v4.05616h-1.17432v-1.05371q-0.37451 0.63476-0.9458 0.93945-0.56494 0.29834-1.37744 0.29834-1.08545 0-1.73291-0.60938-0.64746-0.61572-0.64746-1.64404 0-1.18701 0.79345-1.80273 0.79981-0.61573 2.34229-0.61573h1.56787v-0.18408q-6e-3 -0.85058-0.43164-1.23144-0.42529-0.38721-1.3584-0.38721-0.59668 0-1.20605 0.17139-0.60938 0.17138-1.18701 0.50146v-1.16797q0.64746-0.24756 1.23779-0.36816 0.59668-0.12696 1.15527-0.12696 0.88233 0 1.5044 0.26026 0.62841 0.26025 1.01562 0.78076 0.24121 0.31738 0.34277 0.78711 0.10157 0.46338 0.10157 1.39648zm7.28076-2.80566v1.14258q-0.50147-0.29199-1.00928-0.43799t-1.03467-0.146q-0.79345 0-1.18701 0.26026-0.38721 0.2539-0.38721 0.78076 0 0.47607 0.292 0.71094 0.29199 0.23486 1.45361 0.45703l0.46973 0.0889q0.86963 0.16503 1.31396 0.66015 0.45069 0.49512 0.45069 1.28858 0 1.05371-0.74903 1.65039-0.74902 0.59033-2.08203 0.59033-0.52685 0-1.10449-0.11426-0.57764-0.10791-1.25049-0.33008v-1.20605q0.65381 0.33642 1.25049 0.50781 0.59668 0.16504 1.12988 0.16504 0.77442 0 1.19971-0.31104 0.42529-0.31738 0.42529-0.88232 0-0.8125-1.55517-1.12354l-0.0508-0.0127-0.43798-0.0889q-1.00928-0.19678-1.47266-0.66015-0.46338-0.46973-0.46338-1.27588 0-1.02198 0.6919-1.57422 0.69189-0.5586 1.97412-0.5586 0.57129 0 1.09814 0.10791 0.52686 0.10157 1.03467 0.31104zm5.54785-2.26611v2.01855h2.65332v0.90772h-2.65332v3.85937q0 0.78711 0.29834 1.09815 0.29834 0.31103 1.04102 0.31103h1.31396v0.93311h-1.42822q-1.31397 0-1.85352-0.52686-0.53955-0.52685-0.53955-1.81543v-3.85937h-1.89795v-0.90772h1.89795v-2.01855zm10.98779 5.28125v0.57129h-5.05908v0.0381q0 1.16162 0.60303 1.79639 0.60937 0.63476 1.71387 0.63476 0.55859 0 1.16796-0.17773 0.60938-0.17773 1.30127-0.53955v1.16162q-0.6665 0.27295-1.28857 0.40625-0.61572 0.13965-1.19336 0.13965-1.65674 0-2.58984-0.99024-0.93311-0.99658-0.93311-2.74218 0-1.70118 0.91406-2.7168 0.91407-1.01563 2.4375-1.01563 1.3584 0 2.13916 0.92041 0.78711 0.92041 0.78711 2.51368zm-1.16797-0.34278q-0.0254-1.02832-0.48876-1.56152-0.45704-0.53955-1.32032-0.53955-0.84424 0-1.39013 0.55859-0.5459 0.5586-0.64746 1.54883zm9.26758-1.45361q-0.37451-0.29199-0.76172-0.42529-0.3872-0.1333-0.85058-0.1333-1.0918 0-1.66944 0.68554-0.57763 0.68555-0.57763 1.98047v3.53565h-1.17432v-7.10938h1.17432v1.39014q0.29199-0.75537 0.89502-1.15528 0.60937-0.40625 1.44092-0.40625 0.43164 0 0.80615 0.10791t0.71728 0.33643z" fill="#1e90ff"/><path d="m424.19141 500.24902v-7.74414h7.75048v7.74414z" fill="#aaf155"/><path d="m446.23047 490.60059v1.30127q-0.58399-0.37452-1.17432-0.56495-0.58398-0.19043-1.18066-0.19043-0.90772 0-1.43457 0.4253-0.52686 0.41894-0.52686 1.13623 0 0.62842 0.34278 0.95849 0.34912 0.33008 1.29492 0.55225l0.67285 0.15234q1.33301 0.31104 1.94238 0.97754 0.60938 0.66651 0.60938 1.81543 0 1.35205-0.83789 2.06299t-2.4375 0.71094q-0.66651 0-1.33936-0.146-0.67285-0.13965-1.35205-0.42529v-1.36475q0.72998 0.46338 1.37744 0.6792 0.65381 0.21582 1.31397 0.21582 0.97119 0 1.51074-0.43164 0.53955-0.43799 0.53955-1.21875 0-0.71094-0.37451-1.08545-0.36817-0.37451-1.28858-0.57763l-0.68554-0.1587q-1.32032-0.29834-1.917-0.90136-0.59668-0.60303-0.59668-1.61865 0-1.26954 0.85059-2.03125 0.85693-0.76807 2.27246-0.76807 0.5459 0 1.14893 0.12695 0.60302 0.12061 1.26953 0.36817zm5.85889 5.57959h-0.38721q-1.02197 0-1.54248 0.36181-0.51416 0.35547-0.51416 1.06641 0 0.64111 0.3872 0.99658 0.38721 0.35547 1.07276 0.35547 0.96484 0 1.51709-0.6665 0.55224-0.67286 0.55859-1.85352v-0.26025zm2.26611-0.48243v4.05616h-1.17432v-1.05371q-0.37451 0.63476-0.9458 0.93945-0.56494 0.29834-1.37744 0.29834-1.08545 0-1.73291-0.60938-0.64746-0.61572-0.64746-1.64404 0-1.18701 0.79346-1.80273 0.7998-0.61573 2.34228-0.61573h1.56787v-0.18408q-6e-3 -0.85058-0.43164-1.23144-0.42529-0.38721-1.3584-0.38721-0.59668 0-1.20605 0.17139-0.60938 0.17138-1.18701 0.50146v-1.16797q0.64746-0.24756 1.23779-0.36816 0.59668-0.12696 1.15527-0.12696 0.88233 0 1.5044 0.26026 0.62842 0.26025 1.01562 0.78076 0.24121 0.31738 0.34278 0.78711 0.10156 0.46338 0.10156 1.39648zm2.72949-3.05322h2.98975v6.20166h2.31689v0.90772h-5.80176v-0.90772h2.3169v-5.29394h-1.82178zm1.82178-2.76758h1.16797v1.47901h-1.16797zm11.05127 5.47168v4.40528h-1.17432v-4.40528q0-0.95849-0.33642-1.40918-0.33643-0.45068-1.05372-0.45068-0.81884 0-1.26318 0.58398-0.43799 0.57764-0.43799 1.66309v4.01807h-1.16797v-7.10938h1.16797v1.06641q0.31104-0.60938 0.84424-0.92041 0.5332-0.31739 1.26318-0.31739 1.08545 0 1.61866 0.71729 0.53955 0.71094 0.53955 2.1582zm5.05273-4.72265v2.01855h2.65332v0.90772h-2.65332v3.85937q0 0.78711 0.29834 1.09815 0.29834 0.31103 1.04102 0.31103h1.31396v0.93311h-1.42822q-1.31397 0-1.85352-0.52686-0.53955-0.52685-0.53955-1.81543v-3.85937h-1.89795v-0.90772h1.89795v-2.01855z" fill="#1e90ff"/><path d="m486.80469 500.24902v-7.74414h7.75049v7.74414z" fill="#16234f"/><path d="m515.28662 492.90479q-0.24756-0.0127-0.4126-0.0127-1.11084 0-3.1167 0.38721 0.20313 0.5205 0.20313 0.97754 0 0.61572-0.29834 1.08545-0.34912 0.5332-0.93311 0.5332-0.35546 0-0.55224-0.40625-0.15869-0.32373-0.15869-0.72363 0-0.52686 0.2666-0.87598 0.20947 0.45068 0.55224 0.60303 0.4253-0.39991 0.57764-1.12989-1.15527 0.23487-2.48193 0.59668-0.12061 0.4253-0.12061 0.85059 0 0.91406 0.48877 1.47266 0.51416 0.58398 1.41553 0.58398 0.56494 0 1.02832-0.29834 0.29834-0.19043 0.80615-0.71729 0.12695-0.1333 0.43164-0.37451-6e-3 0.97754-0.86963 1.69483-0.81884 0.6792-1.82177 0.6792-0.92041 0-1.57422-0.53321-0.69825-0.57763-0.69825-1.479 0-1.05371 0.46338-1.75195-2.36132 0.67285-4.20214 1.42822 0.45703 0.79346 1.96142 1.63769 1.2251 0.68555 2.41211 1.05372 1.0918 0.33642 1.92334 0.33642 0.26025 0 0.77441-0.0635 0.51416-0.0698 0.76807-0.0698 0.12061 0 0.22852 0.0571-0.19678 0.34277-0.93311 0.55225-0.59033 0.17138-1.11719 0.17138-2.10742 0-4.37988-1.07275-2.48193-1.17432-3.36426-2.88819 3.37696-1.78369 8.88037-2.64697 1.29493-0.20312 2.1836-0.20312 1.38379 0 1.66943 0.5459z" fill="#1e90ff"/></g></g></svg></svg>