<svg class="plot-d6a7b5" fill="currentColor" font-family="system-ui, sans-serif" font-size="10" text-anchor="middle" width="830" height="470" viewBox="0 0 830 470" xmlns="http://www.w3.org/2000/svg" xmlns:xlink="http://www.w3.org/1999/xlink" color="#1e90ff"><style>:where(.plot-d6a7b5){--plot-background: white;display:block;height:intrinsic;max-width:100%}:where(.plot-d6a7b5 text),:where(.plot-d6a7b5 tspan){white-space:pre}</style><g aria-label="y-grid" stroke="currentColor" stroke-opacity=".1"><line x1="60" x2="770" y1="410" y2="410"/><line x1="60" x2="770" y1="383.463" y2="383.463"/><line x1="60" x2="770" y1="356.926" y2="356.926"/><line x1="60" x2="770" y1="330.389" y2="330.389"/><line x1="60" x2="770" y1="303.852" y2="303.852"/><line x1="60" x2="770" y1="277.315" y2="277.315"/><line x1="60" x2="770" y1="250.778" y2="250.778"/><line x1="60" x2="770" y1="224.241" y2="224.241"/><line x1="60" x2="770" y1="197.703" y2="197.703"/><line x1="60" x2="770" y1="171.166" y2="171.166"/><line x1="60" x2="770" y1="144.629" y2="144.629"/><line x1="60" x2="770" y1="118.092" y2="118.092"/><line x1="60" x2="770" y1="91.555" y2="91.555"/><line x1="60" x2="770" y1="65.018" y2="65.018"/></g><g aria-label="y-axis tick" fill="none" stroke="currentColor"><path transform="translate(60,410)" d="M0,0L-6,0"/><path transform="translate(60,383.4629353026363)" d="M0,0L-6,0"/><path transform="translate(60,356.9258706052725)" d="M0,0L-6,0"/><path transform="translate(60,330.3888059079088)" d="M0,0L-6,0"/><path transform="translate(60,303.8517412105451)" d="M0,0L-6,0"/><path transform="translate(60,277.3146765131813)" d="M0,0L-6,0"/><path transform="translate(60,250.77761181581764)" d="M0,0L-6,0"/><path transform="translate(60,224.24054711845386)" d="M0,0L-6,0"/><path transform="translate(60,197.70348242109014)" d="M0,0L-6,0"/><path transform="translate(60,171.1664177237264)" d="M0,0L-6,0"/><path transform="translate(60,144.62935302636268)" d="M0,0L-6,0"/><path transform="translate(60,118.09228832899893)" d="M0,0L-6,0"/><path transform="translate(60,91.55522363163522)" d="M0,0L-6,0"/><path transform="translate(60,65.0181589342715)" d="M0,0L-6,0"/></g><g aria-label="y-axis tick label" text-anchor="end" font-variant="tabular-nums"><text y=".32em" transform="translate(-9,0) translate(60,410)">0</text><text y=".32em" transform="translate(-9,0) translate(60,383.4629353026363)">50,000</text><text y=".32em" transform="translate(-9,0) translate(60,356.9258706052725)">100,000</text><text y=".32em" transform="translate(-9,0) translate(60,330.3888059079088)">150,000</text><text y=".32em" transform="translate(-9,0) translate(60,303.8517412105451)">200,000</text><text y=".32em" transform="translate(-9,0) translate(60,277.3146765131813)">250,000</text><text y=".32em" transform="translate(-9,0) translate(60,250.77761181581764)">300,000</text><text y=".32em" transform="translate(-9,0) translate(60,224.24054711845386)">350,000</text><text y=".32em" transform="translate(-9,0) translate(60,197.70348242109014)">400,000</text><text y=".32em" transform="translate(-9,0) translate(60,171.1664177237264)">450,000</text><text y=".32em" transform="translate(-9,0) translate(60,144.62935302636268)">500,000</text><text y=".32em" transform="translate(-9,0) translate(60,118.09228832899893)">550,000</text><text y=".32em" transform="translate(-9,0) translate(60,91.55522363163522)">600,000</text><text y=".32em" transform="translate(-9,0) translate(60,65.0181589342715)">650,000</text></g><g aria-label="y-axis label" text-anchor="start"><text y=".71em" transform="translate(-57,-57) translate(60,60)">↑ Total Vestiges</text></g><g aria-label="x-axis tick" fill="none" stroke="currentColor"><path transform="translate(93.22018348623854,410)" d="M0,0L0,6"/><path transform="translate(182.13302752293578,410)" d="M0,0L0,6"/><path transform="translate(272.0229357798165,410)" d="M0,0L0,6"/><path transform="translate(361.91284403669727,410)" d="M0,0L0,6"/><path transform="translate(450.82568807339453,410)" d="M0,0L0,6"/><path transform="translate(539.7385321100918,410)" d="M0,0L0,6"/><path transform="translate(629.6284403669724,410)" d="M0,0L0,6"/><path transform="translate(719.5183486238533,410)" d="M0,0L0,6"/></g><g aria-label="x-axis tick label" font-variant="tabular-nums"><text transform="translate(0,9) translate(93.22018348623854,410)"><tspan x="0" y=".71em">Apr</tspan><tspan x="0" dy="1em">2023</tspan></text><text y=".71em" transform="translate(0,9) translate(182.13302752293578,410)">Jul</text><text y=".71em" transform="translate(0,9) translate(272.0229357798165,410)">Oct</text><text transform="translate(0,9) translate(361.91284403669727,410)"><tspan x="0" y=".71em">Jan</tspan><tspan x="0" dy="1em">2024</tspan></text><text y=".71em" transform="translate(0,9) translate(450.82568807339453,410)">Apr</text><text y=".71em" transform="translate(0,9) translate(539.7385321100918,410)">Jul</text><text y=".71em" transform="translate(0,9) translate(629.6284403669724,410)">Oct</text><text transform="translate(0,9) translate(719.5183486238533,410)"><tspan x="0" y=".71em">Jan</tspan><tspan x="0" dy="1em">2025</tspan></text></g><g aria-label="line" fill="none" stroke="currentColor" stroke-width="1.5" stroke-linejoin="round" stroke-linecap="round"><path d="M60,410L60.651,409.734L61.303,408.759L61.954,408.234L62.606,407.861L63.257,407.247L63.908,406.762L64.56,406.309L65.211,405.391L65.862,404.664L66.514,403.801L67.165,402.466L67.817,401.206L68.468,400.552L69.119,399.606L69.771,398.963L70.422,398.227L71.073,397.263L71.725,396.615L72.376,395.979L73.028,395.116L73.679,394.159L74.33,393.481L74.982,392.325L75.633,391.777L76.284,391.266L76.936,390.344L77.587,389.461L78.239,388.782L78.89,387.835L79.541,386.891L80.193,386.031L80.844,384.699L81.495,383.641L82.147,383.029L82.798,382.391L83.45,381.911L84.101,381.523L84.752,380.803L85.404,380.099L86.055,379.608L86.706,378.473L87.358,377.286L88.009,376.223L88.661,374.934L89.312,374.06L89.963,373.316L90.615,372.303L91.266,371.454L91.917,370.84L92.569,369.734L93.22,368.665L93.872,367.667L94.523,366.237L95.174,364.878L95.826,364.172L96.477,363.124L97.128,362.178L97.78,361.33L98.431,360.13L99.083,359.003L99.734,358.024L100.385,356.847L101.037,355.718L101.688,354.747L102.339,353.439L102.991,352.635L103.642,351.91L104.294,350.898L104.945,350.069L105.596,349.45L106.248,348.652L106.899,347.79L107.55,346.987L108.202,345.934L108.853,344.89L109.505,344.295L110.156,343.469L110.807,342.824L111.459,342.4L112.11,341.743L112.761,341.09L113.413,340.396L114.064,339.498L114.716,338.586L115.367,337.873L116.018,336.886L116.67,336.192L117.321,335.74L117.972,334.7L118.624,333.981L119.275,333.592L119.927,332.941L120.578,332.313L121.229,331.659L121.881,330.761L122.532,329.98L123.183,329.307L123.835,328.722L124.486,328.203L125.138,327.706L125.789,326.891L126.44,326.427L127.092,325.955L127.743,325.189L128.394,324.321L129.046,323.64L129.697,322.764L130.349,322.174L131,321.626L131.651,320.831L132.303,320.288L132.954,319.77L133.606,319.079L134.257,318.539L134.908,317.886L135.56,317.195L136.211,316.567L136.862,316.047L137.514,315.502L138.165,315.025L138.817,314.577L139.468,313.945L140.119,313.465L140.771,313.031L141.422,312.315L142.073,311.386L142.725,310.707L143.376,309.825L144.028,309.297L144.679,308.691L145.33,308.066L145.982,307.495L146.633,307.094L147.284,306.298L147.936,305.673L148.587,305.017L149.239,304.064L149.89,303.362L150.541,302.748L151.193,302.122L151.844,301.437L152.495,300.908L153.147,300.389L153.798,299.703L154.45,299.299L155.101,298.762L155.752,298.277L156.404,297.822L157.055,297.18L157.706,296.717L158.358,296.234L159.009,295.587L159.661,295.125L160.312,294.698L160.963,294.235L161.615,293.691L162.266,293.179L162.917,292.645L163.569,292.066L164.22,291.612L164.872,291.056L165.523,290.588L166.174,290.123L166.826,289.478L167.477,288.942L168.128,288.518L168.78,287.962L169.431,287.433L170.083,287.051L170.734,286.395L171.385,285.894L172.037,285.377L172.688,284.803L173.339,284.315L173.991,284.025L174.642,283.493L175.294,283.058L175.945,282.541L176.596,281.927L177.248,281.44L177.899,280.904L178.55,280.314L179.202,279.777L179.853,279.306L180.505,278.538L181.156,277.913L181.807,277.553L182.459,276.978L183.11,276.466L183.761,276.158L184.413,275.613L185.064,275.26L185.716,274.841L186.367,274.332L187.018,273.858L187.67,273.483L188.321,272.889L188.972,272.455L189.624,272.061L190.275,271.509L190.927,271.013L191.578,270.623L192.229,270.024L192.881,269.643L193.532,269.21L194.183,268.66L194.835,268.214L195.486,267.707L196.138,267.127L196.789,266.619L197.44,266.187L198.092,265.691L198.743,265.109L199.394,264.653L200.046,264.225L200.697,263.773L201.349,263.428L202,262.838L202.651,262.469L203.303,262.051L203.954,261.527L204.606,261.109L205.257,260.602L205.908,259.927L206.56,259.418L207.211,259.118L207.862,258.428L208.514,257.92L209.165,257.469L209.817,256.839L210.468,256.414L211.119,255.957L211.771,255.43L212.422,254.895L213.073,254.434L213.725,253.751L214.376,253.226L215.028,252.763L215.679,252.202L216.33,251.584L216.982,250.953L217.633,250.023L218.284,249.456L218.936,249.028L219.587,248.449L220.239,247.984L220.89,247.646L221.541,247.12L222.193,246.656L222.844,246.332L223.495,245.802L224.147,245.319L224.798,244.97L225.45,244.41L226.101,243.886L226.752,243.488L227.404,242.965L228.055,242.31L228.706,241.757L229.358,241.068L230.009,240.58L230.661,240.109L231.312,239.412L231.963,238.888L232.615,238.403L233.266,237.82L233.917,237.337L234.569,237.013L235.22,236.546L235.872,236.194L236.523,235.806L237.174,235.337L237.826,234.866L238.477,234.43L239.128,233.995L239.78,233.545L240.431,233.164L241.083,232.741L241.734,232.322L242.385,231.968L243.037,231.559L243.688,231.139L244.339,230.684L244.991,230.14L245.642,229.751L246.294,229.331L246.945,228.891L247.596,228.569L248.248,228.223L248.899,227.862L249.55,227.641L250.202,227.37L250.853,226.753L251.505,226.325L252.156,225.924L252.807,225.38L253.459,225.152L254.11,224.847L254.761,224.56L255.413,224.331L256.064,223.984L256.716,223.631L257.367,223.225L258.018,222.8L258.67,222.12L259.321,221.544L259.972,221.234L260.624,220.817L261.275,220.53L261.927,220.184L262.578,219.786L263.229,219.428L263.881,219.143L264.532,218.707L265.183,218.228L265.835,217.873L266.486,217.391L267.138,217.146L267.789,216.904L268.44,216.581L269.092,216.277L269.743,216.006L270.394,215.565L271.046,215.197L271.697,214.821L272.349,214.313L273,213.932L273.651,213.731L274.303,213.357L274.954,213.081L275.606,212.834L276.257,212.522L276.908,212.216L277.56,211.863L278.211,211.4L278.862,210.904L279.514,210.407L280.165,209.889L280.817,209.516L281.468,209.232L282.119,208.879L282.771,208.584L283.422,208.265L284.073,207.836L284.725,207.548L285.376,207.279L286.028,206.679L286.679,206.166L287.33,205.85L287.982,205.524L288.633,205.29L289.284,205.106L289.936,204.716L290.587,204.457L291.239,204.2L291.89,203.699L292.541,203.161L293.193,202.756L293.844,202.208L294.495,201.918L295.147,201.651L295.798,201.193L296.45,200.897L297.101,200.615L297.752,200.214L298.404,199.786L299.055,199.512L299.706,199.058L300.358,198.767L301.009,198.579L301.661,198.176L302.312,197.905L302.963,197.741L303.615,197.492L304.266,197.239L304.917,196.813L305.569,196.312L306.22,195.809L306.872,195.473L307.523,195.142L308.174,194.949L308.826,194.659L309.477,194.318L310.128,194.131L310.78,193.934L311.431,193.598L312.083,193.392L312.734,193.109L313.385,192.799L314.037,192.521L314.688,192.34L315.339,192.09L315.991,191.954L316.642,191.767L317.294,191.514L317.945,191.343L318.596,191.228L319.248,190.83L319.899,190.438L320.55,190.055L321.202,189.673L321.853,189.381L322.505,189.2L323.156,188.906L323.807,188.723L324.459,188.467L325.11,188.093L325.761,187.788L326.413,187.521L327.064,187.121L327.716,186.837L328.367,186.562L329.018,186.238L329.67,185.973L330.321,185.671L330.972,185.226L331.624,184.962L332.275,184.714L332.927,184.454L333.578,184.154L334.229,183.858L334.881,183.532L335.532,183.344L336.183,183.226L336.835,182.947L337.486,182.714L338.138,182.533L338.789,182.316L339.44,182.109L340.092,181.947L340.743,181.692L341.394,181.458L342.046,181.326L342.697,181.024L343.349,180.739L344,180.615L344.651,180.436L345.303,180.296L345.954,180.14L346.606,179.844L347.257,179.547L347.908,179.33L348.56,179.128L349.211,178.919L349.862,178.657L350.514,178.451L351.165,178.303L351.817,178.127L352.468,177.836L353.119,177.654L353.771,177.432L354.422,177.062L355.073,176.764L355.725,176.61L356.376,176.37L357.028,176.059L357.679,175.812L358.33,175.494L358.982,175.252L359.633,174.98L360.284,174.661L360.936,174.415L361.587,174.184L362.239,173.891L362.89,173.64L363.541,173.411L364.193,173.053L364.844,172.839L365.495,172.673L366.147,172.326L366.798,172.203L367.45,171.994L368.101,171.655L368.752,171.479L369.404,171.275L370.055,171.021L370.706,170.867L371.358,170.709L372.009,170.55L372.661,170.434L373.312,170.217L373.963,169.921L374.615,169.647L375.266,169.314L375.917,168.917L376.569,168.735L377.22,168.519L377.872,168.31L378.523,168.022L379.174,167.701L379.826,167.461L380.477,167.287L381.128,167.005L381.78,166.666L382.431,166.191L383.083,165.897L383.734,165.535L384.385,165.327L385.037,165.135L385.688,164.878L386.339,164.767L386.991,164.605L387.642,164.195L388.294,163.744L388.945,163.414L389.596,162.954L390.248,162.699L390.899,162.482L391.55,162.22L392.202,161.963L392.853,161.745L393.505,161.401L394.156,161.196L394.807,160.854L395.459,160.344L396.11,159.986L396.761,159.727L397.413,159.344L398.064,159.088L398.716,158.902L399.367,158.507L400.018,158.19L400.67,157.836L401.321,157.487L401.972,157.081L402.624,156.539L403.275,155.95L403.927,155.628L404.578,155.294L405.229,154.806L405.881,154.475L406.532,154.227L407.183,153.907L407.835,153.637L408.486,153.364L409.138,152.927L409.789,152.545L410.44,152.388L411.092,152.047L411.743,151.755L412.394,151.418L413.046,151.086L413.697,150.888L414.349,150.596L415,150.16L415.651,149.758L416.303,149.489L416.954,149.077L417.606,148.871L418.257,148.607L418.908,148.308L419.56,148.114L420.211,147.884L420.862,147.578L421.514,147.335L422.165,147.09L422.817,146.636L423.468,146.382L424.119,146.165L424.771,145.971L425.422,145.79L426.073,145.549L426.725,145.324L427.376,145.186L428.028,145.014L428.679,144.648L429.33,144.418L429.982,144.244L430.633,143.902L431.284,143.663L431.936,143.562L432.587,143.357L433.239,143.083L433.89,142.878L434.541,142.599L435.193,142.296L435.844,142.006L436.495,141.558L437.147,141.247L437.798,141.047L438.45,141.012L439.101,141.008L439.752,141.005L440.404,141.003L441.055,140.999L441.706,140.994L442.358,140.989L443.009,140.965L443.661,140.947L444.312,140.936L444.963,140.907L445.615,140.86L446.266,140.827L446.917,140.785L447.569,140.702L448.22,140.591L448.872,140.312L449.523,140.123L450.174,139.946L450.826,139.787L451.477,139.635L452.128,139.461L452.78,139.24L453.431,139.041L454.083,138.806L454.734,138.562L455.385,138.346L456.037,138.083L456.688,137.883L457.339,137.73L457.991,137.509L458.642,137.272L459.294,137.169L459.945,137.014L460.596,136.786L461.248,136.657L461.899,136.522L462.55,136.321L463.202,136.161L463.853,135.928L464.505,135.733L465.156,135.616L465.807,135.439L466.459,135.284L467.11,135.138L467.761,135.037L468.413,134.911L469.064,134.837L469.716,134.702L470.367,134.56L471.018,134.38L471.67,134.125L472.321,133.964L472.972,133.859L473.624,133.635L474.275,133.465L474.927,133.31L475.578,133.149L476.229,132.924L476.881,132.769L477.532,132.553L478.183,132.406L478.835,132.292L479.486,132.118L480.138,131.925L480.789,131.724L481.44,131.593L482.092,131.413L482.743,131.259L483.394,131.067L484.046,130.793L484.697,130.588L485.349,130.323L486,130.177L486.651,130.048L487.303,129.868L487.954,129.689L488.606,129.538L489.257,129.336L489.908,129.107L490.56,128.963L491.211,128.706L491.862,128.478L492.514,128.294L493.165,128.026L493.817,127.872L494.468,127.753L495.119,127.659L495.771,127.529L496.422,127.364L497.073,127.184L497.725,126.807L498.376,126.619L499.028,126.333L499.679,126.198L500.33,126.068L500.982,125.906L501.633,125.667L502.284,125.586L502.936,125.411L503.587,125.217L504.239,125.043L504.89,124.778L505.541,124.448L506.193,124.277L506.844,123.989L507.495,123.856L508.147,123.677L508.798,123.355L509.45,123.119L510.101,122.959L510.752,122.699L511.404,122.42L512.055,122.27L512.706,121.926L513.358,121.771L514.009,121.615L514.661,121.39L515.312,121.158L515.963,121L516.615,120.738L517.266,120.533L517.917,120.319L518.569,120.004L519.22,119.691L519.872,119.465L520.523,119.249L521.174,118.961L521.826,118.789L522.477,118.611L523.128,118.451L523.78,118.222L524.431,118.026L525.083,117.816L525.734,117.623L526.385,117.417L527.037,117.186L527.688,117.115L528.339,117.008L528.991,116.844L529.642,116.715L530.294,116.407L530.945,116.227L531.596,116.1L532.248,115.933L532.899,115.574L533.55,115.451L534.202,115.27L534.853,115.026L535.505,114.841L536.156,114.721L536.807,114.561L537.459,114.462L538.11,114.327L538.761,114.172L539.413,114.011L540.064,113.719L540.716,113.515L541.367,113.377L542.018,113.121L542.67,112.937L543.321,112.751L543.972,112.612L544.624,112.472L545.275,112.367L545.927,112.189L546.578,111.989L547.229,111.902L547.881,111.783L548.532,111.654L549.183,111.533L549.835,111.39L550.486,111.219L551.138,111.032L551.789,110.83L552.44,110.718L553.092,110.599L553.743,110.408L554.394,110.238L555.046,110.132L555.697,109.941L556.349,109.764L557,109.624L557.651,109.457L558.303,109.283L558.954,109.095L559.606,108.839L560.257,108.487L560.908,108.269L561.56,108.035L562.211,107.876L562.862,107.721L563.514,107.507L564.165,107.357L564.817,107.24L565.468,107.097L566.119,106.948L566.771,106.783L567.422,106.607L568.073,106.358L568.725,106.179L569.376,105.893L570.028,105.623L570.679,105.347L571.33,105.067L571.982,104.819L572.633,104.534L573.284,104.228L573.936,104.073L574.587,103.871L575.239,103.505L575.89,103.315L576.541,103.142L577.193,102.905L577.844,102.74L578.495,102.656L579.147,102.164L579.798,101.738L580.45,101.314L581.101,100.859L581.752,100.492L582.404,100.228L583.055,99.815L583.706,99.382L584.358,99.115L585.009,98.863L585.661,98.558L586.312,98.278L586.963,97.966L587.615,97.62L588.266,97.392L588.917,97.252L589.569,96.995L590.22,96.85L590.872,96.696L591.523,96.493L592.174,96.302L592.826,96.078L593.477,95.809L594.128,95.54L594.78,95.333L595.431,95.124L596.083,94.939L596.734,94.776L597.385,94.664L598.037,94.58L598.688,94.483L599.339,94.361L599.991,94.217L600.642,94.117L601.294,93.955L601.945,93.846L602.596,93.719L603.248,93.607L603.899,93.466L604.55,93.353L605.202,93.148L605.853,93L606.505,92.839L607.156,92.714L607.807,92.529L608.459,92.336L609.11,92.167L609.761,92.037L610.413,91.878L611.064,91.76L611.716,91.626L612.367,91.539L613.018,91.431L613.67,91.313L614.321,91.214L614.972,91.043L615.624,90.903L616.275,90.782L616.927,90.661L617.578,90.517L618.229,90.39L618.881,90.226L619.532,90.121L620.183,89.935L620.835,89.685L621.486,89.446L622.138,89.112L622.789,88.968L623.44,88.804L624.092,88.632L624.743,88.525L625.394,88.346L626.046,88.168L626.697,87.989L627.349,87.754L628,87.339L628.651,87.156L629.303,87.036L629.954,86.78L630.606,86.627L631.257,86.543L631.908,86.373L632.56,86.231L633.211,86.119L633.862,85.921L634.514,85.697L635.165,85.477L635.817,85.165L636.468,85.045L637.119,84.938L637.771,84.787L638.422,84.652L639.073,84.577L639.725,84.485L640.376,84.35L641.028,84.282L641.679,84.155L642.33,84.04L642.982,83.955L643.633,83.848L644.284,83.784L644.936,83.68L645.587,83.527L646.239,83.399L646.89,83.303L647.541,83.105L648.193,82.949L648.844,82.809L649.495,82.602L650.147,82.543L650.798,82.467L651.45,82.33L652.101,82.25L652.752,82.165L653.404,82.057L654.055,81.988L654.706,81.906L655.358,81.708L656.009,81.585L656.661,81.541L657.312,81.488L657.963,81.412L658.615,81.301L659.266,81.195L659.917,81.032L660.569,80.946L661.22,80.769L661.872,80.522L662.523,80.34L663.174,80.068L663.826,79.874L664.477,79.75L665.128,79.633L665.78,79.517L666.431,79.381L667.083,79.276L667.734,79.186L668.385,79.027L669.037,78.87L669.688,78.699L670.339,78.609L670.991,78.451L671.642,78.388L672.294,78.31L672.945,78.155L673.596,78.056L674.248,77.956L674.899,77.841L675.55,77.696L676.202,77.563L676.853,77.421L677.505,77.336L678.156,77.219L678.807,77.08L679.459,76.959L680.11,76.845L680.761,76.69L681.413,76.583L682.064,76.459L682.716,76.268L683.367,76.078L684.018,76.002L684.67,75.895L685.321,75.773L685.972,75.692L686.624,75.582L687.275,75.496L687.927,75.449L688.578,75.342L689.229,75.288L689.881,75.259L690.532,75.186L691.183,75.084L691.835,75.031L692.486,74.972L693.138,74.859L693.789,74.682L694.44,74.567L695.092,74.403L695.743,74.339L696.394,74.247L697.046,74.175L697.697,74.075L698.349,73.976L699,73.924L699.651,73.852L700.303,73.73L700.954,73.635L701.606,73.546L702.257,73.383L702.908,73.222L703.56,73.138L704.211,72.985L704.862,72.901L705.514,72.748L706.165,72.633L706.817,72.578L707.468,72.511L708.119,72.397L708.771,72.305L709.422,72.2L710.073,72.014L710.725,71.958L711.376,71.821L712.028,71.709L712.679,71.618L713.33,71.547L713.982,71.459L714.633,71.393L715.284,71.307L715.936,71.214L716.587,71.066L717.239,70.944L717.89,70.69L718.541,70.508L719.193,70.363L719.844,70.19L720.495,70.06L721.147,69.94L721.798,69.733L722.45,69.519L723.101,69.406L723.752,69.212L724.404,69.094L725.055,69.023L725.706,68.889L726.358,68.797L727.009,68.696L727.661,68.627L728.312,68.479L728.963,68.389L729.615,68.283L730.266,68.182L730.917,68.063L731.569,67.978L732.22,67.882L732.872,67.795L733.523,67.698L734.174,67.557L734.826,67.453L735.477,67.272L736.128,67.162L736.78,67.047L737.431,66.904L738.083,66.766L738.734,66.618L739.385,66.456L740.037,66.343L740.688,66.275L741.339,66.135L741.991,66.016L742.642,65.908L743.294,65.77L743.945,65.613L744.596,65.391L745.248,65.111L745.899,64.909L746.55,64.799L747.202,64.678L747.853,64.585L748.505,64.478L749.156,64.327L749.807,64.232L750.459,64.155L751.11,63.955L751.761,63.779L752.413,63.692L753.064,63.539L753.716,63.412L754.367,63.294L755.018,63.167L755.67,62.998L756.321,62.798L756.972,62.668L757.624,62.537L758.275,62.448L758.927,62.338L759.578,62.242L760.229,62.2L760.881,62.014L761.532,61.932L762.183,61.802L762.835,61.636L763.486,61.498L764.138,61.304L764.789,61.121L765.44,60.994L766.092,60.868L766.743,60.659L767.394,60.553L768.046,60.44L768.697,60.255L769.349,60.138L770,60"/></g></svg>