<svg class="plot-d6a7b5" fill="currentColor" font-family="system-ui, sans-serif" font-size="10" text-anchor="middle" width="830" height="470" viewBox="0 0 830 470" style="color: dodgerblue;" xmlns="http://www.w3.org/2000/svg" xmlns:xlink="http://www.w3.org/1999/xlink"><style>:where(.plot-d6a7b5) {
  --plot-background: white;
  display: block;
  height: auto;
  height: intrinsic;
  max-width: 100%;
}
:where(.plot-d6a7b5 text),
:where(.plot-d6a7b5 tspan) {
  white-space: pre;
}</style><g aria-label="y-grid" stroke="currentColor" stroke-opacity="0.1"><line x1="60" x2="770" y1="410" y2="410"></line><line x1="60" x2="770" y1="378.55684921661634" y2="378.55684921661634"></line><line x1="60" x2="770" y1="347.11369843323274" y2="347.11369843323274"></line><line x1="60" x2="770" y1="315.6705476498491" y2="315.6705476498491"></line><line x1="60" x2="770" y1="284.2273968664655" y2="284.2273968664655"></line><line x1="60" x2="770" y1="252.7842460830818" y2="252.7842460830818"></line><line x1="60" x2="770" y1="221.34109529969817" y2="221.34109529969817"></line><line x1="60" x2="770" y1="189.8979445163145" y2="189.8979445163145"></line><line x1="60" x2="770" y1="158.45479373293085" y2="158.45479373293085"></line><line x1="60" x2="770" y1="127.01164294954722" y2="127.01164294954722"></line><line x1="60" x2="770" y1="95.56849216616357" y2="95.56849216616357"></line><line x1="60" x2="770" y1="64.12534138277994" y2="64.12534138277994"></line></g><g aria-label="y-axis tick" fill="none" stroke="currentColor"><path transform="translate(60,410)" d="M0,0L-6,0"></path><path transform="translate(60,378.55684921661634)" d="M0,0L-6,0"></path><path transform="translate(60,347.11369843323274)" d="M0,0L-6,0"></path><path transform="translate(60,315.6705476498491)" d="M0,0L-6,0"></path><path transform="translate(60,284.2273968664655)" d="M0,0L-6,0"></path><path transform="translate(60,252.7842460830818)" d="M0,0L-6,0"></path><path transform="translate(60,221.34109529969817)" d="M0,0L-6,0"></path><path transform="translate(60,189.8979445163145)" d="M0,0L-6,0"></path><path transform="translate(60,158.45479373293085)" d="M0,0L-6,0"></path><path transform="translate(60,127.01164294954722)" d="M0,0L-6,0"></path><path transform="translate(60,95.56849216616357)" d="M0,0L-6,0"></path><path transform="translate(60,64.12534138277994)" d="M0,0L-6,0"></path></g><g aria-label="y-axis tick label" text-anchor="end" font-variant="tabular-nums" transform="translate(-9,0)"><text y="0.32em" transform="translate(60,410)">0</text><text y="0.32em" transform="translate(60,378.55684921661634)">5,000</text><text y="0.32em" transform="translate(60,347.11369843323274)">10,000</text><text y="0.32em" transform="translate(60,315.6705476498491)">15,000</text><text y="0.32em" transform="translate(60,284.2273968664655)">20,000</text><text y="0.32em" transform="translate(60,252.7842460830818)">25,000</text><text y="0.32em" transform="translate(60,221.34109529969817)">30,000</text><text y="0.32em" transform="translate(60,189.8979445163145)">35,000</text><text y="0.32em" transform="translate(60,158.45479373293085)">40,000</text><text y="0.32em" transform="translate(60,127.01164294954722)">45,000</text><text y="0.32em" transform="translate(60,95.56849216616357)">50,000</text><text y="0.32em" transform="translate(60,64.12534138277994)">55,000</text></g><g aria-label="y-axis label" text-anchor="start" transform="translate(-57,-57)"><text y="0.71em" transform="translate(60,60)">↑ Visible Vestiges (30 days)</text></g><g aria-label="x-axis tick" fill="none" stroke="currentColor"><path transform="translate(98.52127659574468,410)" d="M0,0L0,6"></path><path transform="translate(201.62234042553192,410)" d="M0,0L0,6"></path><path transform="translate(305.8563829787234,410)" d="M0,0L0,6"></path><path transform="translate(410.0904255319149,410)" d="M0,0L0,6"></path><path transform="translate(513.1914893617021,410)" d="M0,0L0,6"></path><path transform="translate(616.2925531914894,410)" d="M0,0L0,6"></path><path transform="translate(720.5265957446808,410)" d="M0,0L0,6"></path></g><g aria-label="x-axis tick label" font-variant="tabular-nums" transform="translate(0,9)"><text transform="translate(98.52127659574468,410)"><tspan x="0" y="0.71em">Apr</tspan><tspan x="0" dy="1em">2023</tspan></text><text y="0.71em" transform="translate(201.62234042553192,410)">Jul</text><text y="0.71em" transform="translate(305.8563829787234,410)">Oct</text><text transform="translate(410.0904255319149,410)"><tspan x="0" y="0.71em">Jan</tspan><tspan x="0" dy="1em">2024</tspan></text><text y="0.71em" transform="translate(513.1914893617021,410)">Apr</text><text y="0.71em" transform="translate(616.2925531914894,410)">Jul</text><text y="0.71em" transform="translate(720.5265957446808,410)">Oct</text></g><g aria-label="line" fill="none" stroke="currentColor" stroke-width="1.5" stroke-linejoin="round" stroke-linecap="round"><path d="M60,410L60.755,406.843L61.511,395.297L62.266,389.071L63.021,384.657L63.777,377.375L64.532,371.639L65.287,366.263L66.043,355.383L66.798,346.774L67.553,336.555L68.309,320.727L69.064,305.804L69.819,298.056L70.574,286.843L71.33,279.228L72.085,270.499L72.84,259.085L73.596,251.401L74.351,243.867L75.106,233.642L75.862,222.303L76.617,214.273L77.372,200.57L78.128,194.08L78.883,188.024L79.638,177.101L80.394,166.643L81.149,158.593L81.904,147.374L82.66,139.344L83.415,140.702L84.17,131.137L84.926,123.025L85.681,123.05L86.436,121.226L87.191,120.912L87.947,127.194L88.702,127.276L89.457,129.156L90.213,139.168L90.968,140.639L91.723,134.325L92.479,132.936L93.234,125.282L93.989,123.66L94.745,126.257L95.5,121.93L96.255,119.415L97.011,122.364L97.766,120.597L98.521,115.956L99.277,117.837L100.032,107.379L100.787,97.342L101.543,99.895L102.298,97.933L103.053,94.776L103.809,95.952L104.564,92.921L105.319,89.752L106.074,93.94L106.83,92.519L107.585,86.406L108.34,82.45L109.096,72.653L109.851,67.722L110.606,67.653L111.362,64L112.117,60L112.872,66.113L113.628,70.716L114.383,73.112L115.138,78.866L115.894,76.734L116.649,73.181L117.404,78.143L118.16,78.407L118.915,78.042L119.67,86.123L120.426,91.016L121.181,95.097L121.936,103.825L122.691,109.278L123.447,106.831L124.202,110.806L124.957,110.315L125.713,112.145L126.468,121L127.223,122.037L127.979,125.125L128.734,134.464L129.489,140.117L130.245,144.192L131,151.933L131.755,150.82L132.511,150.16L133.266,154.179L134.021,157.065L134.777,158.254L135.532,161.825L136.287,162.373L137.043,166.385L137.798,173.277L138.553,176.572L139.309,173.334L140.064,175.05L140.819,172.315L141.574,170.347L142.33,171.629L143.085,169.957L143.84,171.736L144.596,176.245L145.351,178.874L146.106,180.918L146.862,184.88L147.617,184.898L148.372,182.823L149.128,188.98L149.883,191.036L150.638,190.005L151.394,192.407L152.149,192.363L152.904,194.413L153.66,199.916L154.415,200.696L155.17,197.652L155.926,196.545L156.681,192.237L157.436,191.866L158.191,194.35L158.947,192.445L159.702,191.269L160.457,195.589L161.213,196.451L161.968,197.117L162.723,199.714L163.479,195.413L164.234,193.596L164.989,195.74L165.745,194.753L166.5,192.778L167.255,194.69L168.011,194.948L168.766,194.558L169.521,197.96L170.277,199.035L171.032,199.457L171.787,200.519L172.543,198.557L173.298,198.381L174.053,200.142L174.809,198.174L175.564,197.834L176.319,201.249L177.074,206.789L177.83,208.374L178.585,212.77L179.34,212.701L180.096,213.015L180.851,215.04L181.606,215.216L182.362,214.43L183.117,218.348L183.872,218.109L184.628,219.53L185.383,225.806L186.138,227.529L186.894,228.535L187.649,231.434L188.404,231.761L189.16,232.101L189.915,232.126L190.67,233.453L191.426,232.459L192.181,235.384L192.936,234.818L193.691,235.069L194.447,236.547L195.202,234.755L195.957,234.711L196.713,236.025L197.468,234.516L198.223,233.214L198.979,233.107L199.734,230.453L200.489,229.114L201.245,231.177L202,231.227L202.755,230.541L203.511,233.484L204.266,232.56L205.021,233.893L205.777,236.572L206.532,236.899L207.287,236.295L208.043,238.44L208.798,237.673L209.553,237.05L210.309,240.169L211.064,239.566L211.819,239.805L212.574,241.974L213.33,240.666L214.085,239.591L214.84,240.767L215.596,239.402L216.351,240.238L217.106,241.515L217.862,240.408L218.617,240.742L219.372,242.609L220.128,243.1L220.883,241.779L221.638,245.483L222.394,247.816L223.149,246.722L223.904,249.451L224.66,248.527L225.415,247.797L226.17,249.313L226.926,247.275L227.681,247.288L228.436,247.307L229.191,244.93L229.947,243.345L230.702,246.823L231.457,243.798L232.213,242.446L232.968,243.641L233.723,242.056L234.479,241.641L235.234,243.32L235.989,241.59L236.745,240.389L237.5,241.433L238.255,238.635L239.011,238.415L239.766,239.805L240.521,239.176L241.277,236.975L242.032,235.365L242.787,231.258L243.543,229.938L244.298,229.938L245.053,228.435L245.809,227.001L246.564,229.994L247.319,228.139L248.074,227.592L248.83,229.957L249.585,228.63L250.34,228.925L251.096,232.78L251.851,232.176L252.606,229.529L253.362,232.988L254.117,232.793L254.872,230.378L255.628,231.296L256.383,228.177L257.138,227.812L257.894,228.472L258.649,226.542L259.404,225.806L260.16,228.139L260.915,227.454L261.67,227.215L262.426,230.032L263.181,231.818L263.936,235.126L264.691,241.546L265.447,242.71L266.202,242.194L266.957,243.892L267.713,244.244L268.468,242.917L269.223,244.634L269.979,245.118L270.734,244.005L271.489,246.087L272.245,246.961L273,246.118L273.755,247.37L274.511,247.118L275.266,247.231L276.021,248.464L276.777,251.011L277.532,253.734L278.287,257.796L279.043,259.299L279.798,262.268L280.553,267.324L281.309,266.204L282.064,266.89L282.819,269.047L283.574,268.323L284.33,269.455L285.085,271.38L285.84,272.153L286.596,274.027L287.351,275.48L288.106,276.876L288.862,277.234L289.617,277.354L290.372,274.631L291.128,272.317L291.883,273.662L292.638,273.681L293.394,274.474L294.149,275.216L294.904,275.48L295.66,276.624L296.415,279.706L297.17,279.14L297.926,278.436L298.681,279.448L299.436,277.555L300.191,278.75L300.947,280.165L301.702,278.958L302.457,278.555L303.213,282.662L303.968,282.504L304.723,282.9L305.479,284.894L306.234,281.574L306.989,280.674L307.745,281.687L308.5,279.97L309.255,280.813L310.011,282.07L310.766,283.177L311.521,284.592L312.277,288.466L313.032,289.805L313.787,287.598L314.543,286.649L315.298,283.919L316.053,283.599L316.809,284.951L317.564,285.007L318.319,284.881L319.074,286.271L319.83,286.869L320.585,287.661L321.34,290.183L322.096,285.982L322.851,282.768L323.606,282.85L324.362,282.599L325.117,283.039L325.872,286.076L326.628,285.812L327.383,287.202L328.138,290.17L328.894,288.749L329.649,284.756L330.404,284.397L331.16,281.165L331.915,280.655L332.67,281.196L333.426,279.398L334.181,280.064L334.936,282.215L335.691,283.334L336.447,284.158L337.202,287.045L337.957,286.089L338.713,286.007L339.468,287.963L340.223,286.68L340.979,287.252L341.734,290.384L342.489,290.849L343.245,291.038L344,293.107L344.755,293.245L345.511,291.019L346.266,290.906L347.021,289.755L347.777,289.661L348.532,290.843L349.287,289.868L350.043,290.692L350.798,294.295L351.553,296.691L352.309,299.05L353.064,302.188L353.819,301.955L354.574,301.817L355.33,305.099L356.085,305.653L356.84,307.376L357.596,309.916L358.351,311.985L359.106,313.205L359.862,317.224L360.617,315.954L361.372,313.539L362.128,313.778L362.883,312.463L363.638,310.954L364.394,311.753L365.149,311.269L365.904,314.142L366.66,317.041L367.415,318.576L368.17,318.941L368.926,319.695L369.681,317.243L370.436,317.318L371.191,318.098L371.947,316.488L372.702,315.664L373.457,316.079L374.213,313.243L374.968,313.47L375.723,314.199L376.479,314.413L377.234,313.004L377.989,312.457L378.745,310.212L379.5,310.193L380.255,311.803L381.011,310.52L381.766,309.112L382.521,311.696L383.277,313.759L384.032,315.853L384.787,318.456L385.543,318.89L386.298,318.261L387.053,320.192L387.809,318.777L388.564,318.431L389.319,321.399L390.074,322.89L390.83,324.393L391.585,327.286L392.34,327.141L393.096,326.877L393.851,328.147L394.606,328.896L395.362,329.996L396.117,332.159L396.872,332.857L397.628,334.04L398.383,335.04L399.138,335.14L399.894,336.486L400.649,337.725L401.404,335.574L402.16,333.423L402.915,334.914L403.67,334.838L404.426,333.285L405.181,332.939L405.936,331.612L406.691,330.663L407.447,330.468L408.202,329.462L408.957,328.103L409.713,328.946L410.468,328.858L411.223,327.355L411.979,326.764L412.734,324.185L413.489,323.487L414.245,325.028L415,324.443L415.755,325.556L416.511,325.475L417.266,323.928L418.021,324.953L418.777,324.971L419.532,323.72L420.287,323.978L421.043,325.563L421.798,325.833L422.553,327.078L423.309,328.889L424.064,328.921L424.819,327.499L425.574,326.393L426.33,325.374L427.085,326.141L427.84,327.361L428.596,327.757L429.351,327.562L430.106,327.537L430.862,327.606L431.617,328.286L432.372,328.411L433.128,327.361L433.883,324.449L434.638,325.204L435.394,323.462L436.149,322.959L436.904,324.795L437.66,323.198L438.415,324.374L439.17,326.468L439.926,323.689L440.681,320.764L441.436,319.865L442.191,316.243L442.947,315.086L443.702,314.4L444.457,312.677L445.213,312.206L445.968,313.124L446.723,312.287L447.479,313.809L448.234,314.463L448.989,310.577L449.745,308.891L450.5,308.3L451.255,307.168L452.011,307.948L452.766,308.583L453.521,305.967L454.277,305.552L455.032,305.376L455.787,306.866L456.543,305.54L457.298,303.401L458.053,298.892L458.809,297.358L459.564,296.446L460.319,291.975L461.074,289.969L461.83,291.893L462.585,293.447L463.34,294.151L464.096,296.371L464.851,294.22L465.606,292.264L466.362,293.497L467.117,292.503L467.872,291.635L468.628,291.717L469.383,290.214L470.138,291.918L470.894,294.503L471.649,293.579L472.404,291.874L473.16,293.239L473.915,291.384L474.67,291.151L475.426,292.692L476.181,292.918L476.936,294.811L477.691,296.214L478.447,297.408L479.202,300.949L479.957,305.024L480.713,303.445L481.468,304.401L482.223,307.615L482.979,309.244L483.734,310.03L484.489,310.96L485.245,311.501L486,313.092L486.755,316.237L487.511,316.425L488.266,315.57L489.021,317.538L489.777,316.947L490.532,318.111L491.287,320.846L492.043,320.771L492.798,320.984L493.553,323.72L494.309,325.179L495.064,324.764L495.819,326.21L496.574,323.349L497.33,322.802L498.085,323.965L498.84,325.846L499.596,328.525L500.351,332.122L501.106,334.97L501.862,337.832L502.617,343.158L503.372,346.101L504.128,348.384L504.883,350.472L505.638,352.49L506.394,355.006L507.149,357.113L507.904,358.358L508.66,359.886L509.415,363.244L510.17,364.653L510.926,363.414L511.681,365.225L512.436,365.961L513.191,365.269L513.947,365.898L514.702,367.08L515.457,366.885L516.213,367.841L516.968,368.652L517.723,369.193L518.479,371.941L519.234,372.507L519.989,372.507L520.745,371.117L521.5,368.545L522.255,365.759L523.011,364.571L523.766,362.785L524.521,360.131L525.277,358.666L526.032,357.352L526.787,355.188L527.543,353.427L528.298,351.006L529.053,349.246L529.809,348.252L530.564,346.655L531.319,345.806L532.074,345.391L532.83,347.504L533.585,348.252L534.34,349.459L535.096,349.755L535.851,349.868L536.606,349.793L537.362,349.396L538.117,349.837L538.872,351.384L539.628,351.623L540.383,352.163L541.138,353.446L541.894,353.905L542.649,353.056L543.404,353.843L544.16,354.094L544.915,353.566L545.67,354.05L546.426,354.698L547.181,353.937L547.936,353.151L548.691,353.975L549.447,353.736L550.202,354.679L550.957,354.717L551.713,352.855L552.468,352.522L553.223,351.22L553.979,351.22L554.734,350.881L555.489,350.239L556.245,349.007L557,348.812L557.755,348.101L558.511,347.522L559.266,348.843L560.021,347.705L560.777,346.246L561.532,346.711L562.287,345.56L563.043,345.567L563.798,346.07L564.553,347.617L565.309,347.906L566.064,348.51L566.819,348.132L567.574,345.001L568.33,344.844L569.085,343.743L569.84,344.529L570.596,344.535L571.351,344.755L572.106,343.737L572.862,345.057L573.617,346.227L574.372,346.372L575.128,347.441L575.883,346.019L576.638,343.655L577.394,343.756L578.149,342.46L578.904,342.668L579.66,342.951L580.415,341.85L581.17,340.756L581.926,341.9L582.681,341.517L583.436,340.404L584.191,341.794L584.947,339.548L585.702,339.115L586.457,338.385L587.213,337.266L587.968,336.467L588.723,336.719L589.479,338.09L590.234,337.882L590.989,338.737L591.745,336.605L592.5,334.442L593.255,333.681L594.011,333.952L594.766,331.505L595.521,331.537L596.277,331.719L597.032,331.883L597.787,332.329L598.543,333.901L599.298,333.449L600.053,334.568L600.809,333.706L601.564,333.084L602.319,336.065L603.074,337.586L603.83,337.549L604.585,339.102L605.34,338.75L606.096,338.398L606.851,340.97L607.606,340.825L608.362,338.417L609.117,339.63L609.872,340.24L610.628,339.215L611.383,340.14L612.138,341.139L612.894,341.781L613.649,344.334L614.404,346.441L615.16,347.277L615.915,347.938L616.67,347.887L617.426,347.516L618.181,347.982L618.936,346.856L619.691,347.378L620.447,347.504L621.202,348.34L621.957,348.975L622.713,350.17L623.468,350.793L624.223,349.264L624.979,349.497L625.734,350.032L626.489,350.032L627.245,352.258L628,352.692L628.755,352.163L629.511,351.931L630.266,353.786L631.021,353.912L631.777,354.654L632.532,355.283L633.287,355.459L634.043,355.622L634.798,355.251L635.553,354.333L636.309,354.283L637.064,354.138L637.819,353.975L638.574,355.213L639.33,354.591L640.085,352.069L640.84,352.503L641.596,351.918L642.351,352.226L643.106,352.038L643.862,351.164L644.617,350.635L645.372,351.365L646.128,352.031L646.883,351.302L647.638,350.761L648.394,350.201L649.149,348.68L649.904,348.258L650.66,346.894L651.415,345.913L652.17,345.032L652.926,343.045L653.681,341.511L654.436,340.404L655.191,338.781L655.947,338.215L656.702,338.083L657.457,335.844L658.213,335.241L658.968,335.178L659.723,334.43L660.479,334.7L661.234,336.744L661.989,335.071L662.745,332.618L663.5,330.361L664.255,326.864L665.011,324.349L665.766,323.751L666.521,320.639L667.277,316.884L668.032,315.425L668.787,314.205L669.543,312.545L670.298,311.306L671.053,310.558L671.809,308.583L672.564,309.275L673.319,310.809L674.074,311.048L674.83,312.639L675.585,313.753L676.34,314.727L677.096,316.086L677.851,315.268L678.606,314.476L679.362,315.62L680.117,315.425L680.872,314.991L681.628,315.62L682.383,315.639L683.138,315.3L683.894,320.142L684.649,324.041L685.404,327.613L686.16,331.298L686.915,334.461L687.67,335.681L688.426,339.278L689.181,342.907L689.936,344.73L690.691,346.057L691.447,348.321L692.202,349.22L692.957,351.17L693.713,353.346L694.468,354.566L695.223,354.037L695.979,354.798L696.734,354.509L697.489,354.792L698.245,355.314L699,356.188L699.755,357.251L700.511,359.402L701.266,361.313L702.021,362.364L702.777,363.678L703.532,363.829L704.287,364.106L705.043,364.011L705.798,363.571L706.553,363.005L707.309,362.948L708.064,362.716L708.819,362.659L709.574,362.37L710.33,360.691L711.085,359.364L711.84,356.748L712.596,356.698L713.351,356.1L714.106,356.49L714.862,356.974L715.617,356.767L716.372,356.132L717.128,356.207L717.883,355.704L718.638,352.799L719.394,352.17L720.149,352.635L720.904,350.994L721.66,350.761L722.415,350.811L723.17,350.069L723.926,349.786L724.681,349.623L725.436,349.321L726.191,348.315L726.947,347.139L727.702,344.875L728.457,345.158L729.213,345.409L729.968,345.548L730.723,345.202L731.479,346.504L732.234,348.39L732.989,349.629L733.745,352.767L734.5,352.968L735.255,353.56L736.011,354.585L736.766,354.585L737.521,355.943L738.277,356.823L739.032,357.138L739.787,358.402L740.543,362.181L741.298,362.005L742.053,361.571L742.809,362.942L743.564,362.313L744.319,362.603L745.074,363.716L745.83,363.785L746.585,364.156L747.34,365.489L748.096,366.873L748.851,368.659L749.606,371.382L750.362,370.463L751.117,370.268L751.872,371.545L752.628,372.507L753.383,372.507L754.138,372.275L754.894,372.608L755.649,371.495L756.404,371.985L757.16,371.243L757.915,369.319L758.67,368.426L759.426,365.973L760.181,364.911L760.936,365.25L761.691,365.37L762.447,365.137L763.202,365.873L763.957,366.476L764.713,367.074L765.468,367.64L766.223,366.476L766.979,365.357L767.734,365.904L768.489,364.992L769.245,365.244L770,365.602"></path></g></svg> 
 
