<svg class="plot-d6a7b5" fill="currentColor" font-family="system-ui, sans-serif" font-size="10" text-anchor="middle" width="830" height="564" xmlns="http://www.w3.org/2000/svg" xmlns:xlink="http://www.w3.org/1999/xlink" color="#1e90ff"><style>:where(.plot-d6a7b5){--plot-background: white;display:block;height:intrinsic;max-width:100%}:where(.plot-d6a7b5 text),:where(.plot-d6a7b5 tspan){white-space:pre}</style><path d="M60 410h710M60 376.472h710M60 342.944h710M60 309.416h710M60 275.888h710M60 242.359h710M60 208.831h710M60 175.303h710M60 141.775h710M60 108.247h710M60 74.719h710" aria-label="y-grid" stroke="currentColor" stroke-opacity=".1"/><path d="M60 410h-6m6-33.528h-6m6-33.528h-6m6-33.528h-6m6-33.528h-6m6-33.528h-6m6-33.529h-6m6-33.528h-6m6-33.528h-6m6-33.528h-6m6-33.528h-6" aria-label="y-axis tick" fill="none" stroke="currentColor"/><g aria-label="y-axis tick label" text-anchor="end" font-variant="tabular-nums"><text y=".32em" transform="translate(51 410)">0</text><text y=".32em" transform="translate(51 376.472)">2,000</text><text y=".32em" transform="translate(51 342.944)">4,000</text><text y=".32em" transform="translate(51 309.416)">6,000</text><text y=".32em" transform="translate(51 275.888)">8,000</text><text y=".32em" transform="translate(51 242.36)">10,000</text><text y=".32em" transform="translate(51 208.831)">12,000</text><text y=".32em" transform="translate(51 175.303)">14,000</text><text y=".32em" transform="translate(51 141.775)">16,000</text><text y=".32em" transform="translate(51 108.247)">18,000</text><text y=".32em" transform="translate(51 74.719)">20,000</text></g><text y=".71em" transform="translate(3 3)" aria-label="y-axis label" text-anchor="start">↑ Frequency</text><path d="M108.045 410v6m53.384-6v6m55.162-6v6m53.384-6v6m55.163-6v6m55.162-6v6m53.384-6v6m55.163-6v6m53.383-6v6m55.163-6v6m55.163-6v6m51.604-6v6m55.163-6v6" aria-label="x-axis tick" fill="none" stroke="currentColor"/><g aria-label="x-axis tick label" font-variant="tabular-nums"><text transform="translate(108.045 419)"><tspan x="0" y=".71em">Apr</tspan><tspan x="0" dy="1em">2023</tspan></text><text y=".71em" transform="translate(161.429 419)">May</text><text y=".71em" transform="translate(216.591 419)">Jun</text><text y=".71em" transform="translate(269.975 419)">Jul</text><text y=".71em" transform="translate(325.138 419)">Aug</text><text y=".71em" transform="translate(380.3 419)">Sep</text><text y=".71em" transform="translate(433.684 419)">Oct</text><text y=".71em" transform="translate(488.847 419)">Nov</text><text y=".71em" transform="translate(542.23 419)">Dec</text><text transform="translate(597.393 419)"><tspan x="0" y=".71em">Jan</tspan><tspan x="0" dy="1em">2024</tspan></text><text y=".71em" transform="translate(652.556 419)">Feb</text><text y=".71em" transform="translate(704.16 419)">Mar</text><text y=".71em" transform="translate(759.323 419)">Apr</text></g><text transform="translate(827 467)" aria-label="x-axis label" text-anchor="end">timestamp →</text><g aria-label="rect"><path fill="#70223b" d="M60.5 190.424h11.456v32.606H60.5zm12.456-1.726h11.456v36.847H72.956zm12.456 20.033h11.456v29.488H85.412zm12.456-74.517h11.456v35.054H97.868zm12.457-20.418h11.456v35.64h-11.456zm12.456 57.953h11.456v37.702h-11.456zm12.456 38.541h11.456v27.024h-11.456zm12.456 9.438h11.456v31.248h-11.456zm12.456 22.497h11.456v26.822h-11.456zm12.456-4.727h11.456v22.229h-11.456zm12.456 16.227h11.456v18.29h-11.456zm12.457-16.914h11.456v22.129h-11.456zm12.456 14.584h11.456v15.473h-11.456zm12.456 19.044h11.456v15.507H222.43zm12.456-3.872h11.456v16.496h-11.456zm12.456 2.464h11.456v16.378h-11.456zm12.456-1.827h11.456v18.34h-11.456zm12.456 24.961h11.456v20.251h-11.456zm12.457-15.707h11.456v23.134h-11.456zm12.456 4.727h11.456v20.318h-11.456zm12.456-19.329h11.456v21.86h-11.456zm12.456-10.511h11.456v15.892h-11.456zm12.456 28.147h11.456v16.881h-11.456zm12.456-25.113h11.456v20.301h-11.456zm12.456 25.834h11.456v17.82h-11.456zm12.457 11.483h11.456v12.221h-11.456zm12.456 8.214h11.456v15.188H384.36zm12.456 4.611h11.456v12.724h-11.456zm12.456-4.242h11.456v9.958h-11.456zm12.456 14.283h11.456v11.366h-11.456zm12.456.973h11.456v11.215h-11.456zm12.456-8.751h11.456v11.198H446.64zm12.456 9.639h11.456v12.54h-11.456zm12.457-.704h11.456v11.852h-11.456zm12.456 9.807h11.456v10.897h-11.456zm12.456 14.166h11.456v8.114h-11.456zm12.456 4.459h11.456v7.644h-11.456zm12.456-19.027h11.456v10.612h-11.456zm12.456-.151h11.456v7.292h-11.456zm12.456 23.805h11.456v5.968h-11.456zm12.457 1.877h11.456v3.738h-11.456zm12.456-5.431h11.456v8.516h-11.456zm12.456-8.6h11.456v8.617h-11.456zm12.456 11.433h11.456v6.018h-11.456zm12.456 9.103h11.456v7.728H608.57zm12.456-18.877h11.456v7.745h-11.456zm12.456-3.839h11.456v10.41h-11.456zm12.457-5.699h11.456v8.734h-11.456zm12.456-9.472h11.456v13.294h-11.456zm12.456-10.26h11.456v9.975h-11.456zm12.456 16.966h11.456v10.243h-11.456zm12.456 7.996h11.456v9.036h-11.456zm12.456 9.891h11.456v3.956h-11.456zm12.456-.973h11.456v3.437h-11.456zm12.457 46.588h11.456v1.224h-11.456zm12.456-2.833h11.456v1.375h-11.456zm12.456 2.095H769.5v1.844h-11.456z"/><path fill="#00000f" d="M60.5 286.197h11.456V410H60.5zm12.456 2.616h11.456V410H72.956zm12.456 10.041h11.456V410H85.412zm12.456-54.198h11.456V410H97.868zm12.457-12.238h11.456V410h-11.456zm12.456 35.909h11.456V410h-11.456zm12.456 38.038h11.456V410h-11.456zm12.456-2.062h11.456V410h-11.456zm12.456 12.606h11.456V410h-11.456zm12.456 6.102h11.456V410h-11.456zm12.456 6.287h11.456V410h-11.456zm12.457-18.91h11.456V410h-11.456zm12.456 9.572h11.456V410h-11.456zm12.456 15.054h11.456V410H222.43zm12.456-2.179h11.456V410h-11.456zm12.456-7.141h11.456V410h-11.456zm12.456 12.908h11.456V410h-11.456zm12.456 16.848h11.456V410h-11.456zm12.457-6.555h11.456V410h-11.456zm12.456-6.236h11.456V410h-11.456zm12.456-13.998h11.456V410h-11.456zm12.456-16.094h11.456V410h-11.456zm12.456 26.471h11.456V410h-11.456zm12.456-13.261h11.456V410h-11.456zm12.456 15.859h11.456V410h-11.456zm12.457 8.818h11.456V410h-11.456zm12.456-4.744h11.456V410H384.36zm12.456 4.861h11.456V410h-11.456zm12.456-4.928h11.456V410h-11.456zm12.456 8.818h11.456V410h-11.456zm12.456 1.441h11.456V410h-11.456zm12.456 2.297h11.456V410H446.64zm12.456 6.991h11.456V410h-11.456zm12.457-8.416h11.456V410h-11.456zm12.456 7.577h11.456V410h-11.456zm12.456 6.237h11.456V410h-11.456zm12.456 1.592h11.456V410h-11.456zm12.456-8.868h11.456V410h-11.456zm12.456-4.157h11.456V410h-11.456zm12.456 17.384h11.456V410h-11.456zm12.457 1.291h11.456V410h-11.456zm12.456-4.124h11.456V410h-11.456zm12.456-1.174h11.456V410h-11.456zm12.456 9.053h11.456V410h-11.456zm12.456 4.074h11.456V410H608.57zm12.456-10.428h11.456V410h-11.456zm12.456-1.928h11.456V410h-11.456zm12.457-12.103h11.456V410h-11.456zm12.456 5.8h11.456v43h-11.456zm12.456-14.618h11.456V410h-11.456zm12.456 13.126h11.456V410h-11.456zm12.456 3.303h11.456V410h-11.456zm12.456 5.666h11.456V410h-11.456zm12.456-8.566h11.456V410h-11.456zm12.457 32.539h11.456V410h-11.456zm12.456 1.827h11.456V410h-11.456zm12.456-2.649H769.5V410h-11.456z"/><path fill="#f0c097" d="M60.5 223.03h11.456v18.826H60.5zm12.456 2.515h11.456v13.696H72.956zm12.456 12.674h11.456v13.16H85.412zm12.456-68.951h11.456v15.959H97.868zm12.457-19.832h11.456v21.324h-11.456zm12.456 60.016h11.456v13.763h-11.456zm12.456 27.861h11.456v15.272h-11.456zm12.456 13.663h11.456v10.796h-11.456zm12.456 18.072h11.456v12.757h-11.456zm12.456-9.321h11.456v10.394h-11.456zm12.456 12.288h11.456v14.752h-11.456zm12.457-13.076h11.456v10.327h-11.456zm12.456 7.929h11.456v8.013h-11.456zm12.456 19.078h11.456v8.952H222.43zm12.456-2.883h11.456v6.387h-11.456zm12.456 2.347h11.456v5.448h-11.456zm12.456.134h11.456v12.037h-11.456zm12.456 26.872h11.456v5.8h-11.456zm12.457-12.824h11.456v9.254h-11.456zm12.456 1.911h11.456v6.706h-11.456zm12.456-17.787h11.456v9.12h-11.456zm12.456-16.479h11.456v9.706h-11.456zm12.456 29.136h11.456v7.125h-11.456zm12.456-21.692h11.456v9.187h-11.456zm12.456 23.352h11.456v8.08h-11.456zm12.457 5.884h11.456v14.216h-11.456zm12.456 11.182h11.456v4.996H384.36zm12.456 2.145h11.456v8.365h-11.456zm12.456-7.007h11.456v9.455h-11.456zm12.456 15.691h11.456v5.448h-11.456zm12.456.822h11.456v4.241h-11.456zm12.456-8.768h11.456v7.359H446.64zm12.456 10.981h11.456v9.086h-11.456zm12.457-1.392h11.456v6.069h-11.456zm12.456 8.852h11.456v3.42h-11.456zm12.456 11.382h11.456v1.66h-11.456zm12.456 3.99h11.456v4.61h-11.456zm12.456-16.06h11.456v4.174h-11.456zm12.456-3.47h11.456v1.811h-11.456zm12.456 22.481h11.456v1.358h-11.456zm12.457-.352h11.456v3.219h-11.456zm12.456-.654h11.456v1.961h-11.456zm12.456-8.5h11.456v4.392h-11.456zm12.456 8.835h11.456v3.42h-11.456zm12.456 10.813h11.456v2.783H608.57zm12.456-18.86h11.456v2.733h-11.456zm12.456-1.173h11.456v6.018h-11.456zm12.457-7.376h11.456v5.113h-11.456zm12.456-4.912h11.456v8.064h-11.456zm12.456-13.579h11.456v4.409h-11.456zm12.456 17.233h11.456v2.816h-11.456zm12.456 6.79h11.456v2.716h-11.456zm12.456 4.811h11.456v1.827h-11.456zm12.456-1.492h11.456v1.509h-11.456zm12.457 44.375h11.456v1.157h-11.456zm12.456-2.683h11.456v1.308h-11.456zm12.456 2.565H769.5v.972h-11.456z"/><path fill="#ff7373" d="M60.5 241.856h11.456v17.25H60.5zm12.456-2.615h11.456v22.849H72.956zm12.456 12.137h11.456v20.737H85.412zm12.456-66.15h11.456v17.116H97.868zm12.457-14.468h11.456v22.665h-11.456zm12.456 52.455h11.456v13.646h-11.456zm12.456 29.37h11.456v13.747h-11.456zm12.456 9.187h11.456v12.255h-11.456zm12.456 20.033h11.456v11.852h-11.456zm12.456-11.684h11.456v14.317h-11.456zm12.456 16.646h11.456v11.215h-11.456zm12.457-17.501h11.456v9.505h-11.456zm12.456 5.616h11.456v11.55h-11.456zm12.456 20.016h11.456v12.003H222.43zm12.456-5.448h11.456v14.199h-11.456zm12.456 1.408h11.456v10.343h-11.456zm12.456 6.722h11.456v12.741h-11.456zm12.456 20.637h11.456v11.534h-11.456zm12.457-9.371h11.456v11.668h-11.456zm12.456-.637h11.456v9.857h-11.456zm12.456-15.373h11.456v6.504h-11.456zm12.456-15.892h11.456v9.405h-11.456zm12.456 26.554h11.456v10.394h-11.456zm12.456-19.631h11.456v13.277h-11.456zm12.456 22.246h11.456v15.373h-11.456zm12.457 12.02h11.456v8.935h-11.456zm12.456 1.961h11.456v6.84H384.36zm12.456 5.516h11.456v5.499h-11.456zm12.456-5.918h11.456v7.879h-11.456zm12.456 11.685h11.456v6.974h-11.456zm12.456-.386h11.456v7.611h-11.456zm12.456-5.649h11.456v9.321H446.64zm12.456 12.707h11.456v7.158h-11.456zm12.457-4.409h11.456v7.41h-11.456zm12.456 6.202h11.456v8.935h-11.456zm12.456 9.623h11.456v4.878h-11.456zm12.456 6.94h11.456v4.996h-11.456zm12.456-16.496h11.456v4.275h-11.456zm12.456-5.833h11.456v4.375h-11.456zm12.456 22.028h11.456v4.157h-11.456zm12.457 1.508h11.456v2.565h-11.456zm12.456-1.911h11.456v3.655h-11.456zm12.456-6.068h11.456v7.359h-11.456zm12.456 7.862h11.456v4.577h-11.456zm12.456 10.176h11.456v3.386H608.57zm12.456-18.91h11.456v5.834h-11.456zm12.456 2.112h11.456v5.599h-11.456zm12.457-8.281h11.456v4.828h-11.456zm12.456-1.962h11.456v8.499h-11.456zm12.456-17.233h11.456v9.79h-11.456zm12.456 15.641h11.456v6.203h-11.456zm12.456 6.689h11.456v5.867h-11.456zm12.456 3.922h11.456v6.789h-11.456zm12.456-1.81h11.456v6.722h-11.456zm12.457 44.022h11.456v2.263h-11.456zm12.456-2.531h11.456v4.174h-11.456zm12.456 2.23H769.5v2.397h-11.456z"/><path fill="#16234f" d="M60.5 128.246h11.456v6.722H60.5zm12.456.587h11.456v6.588H72.956zm12.456 29.388h11.456v4.292H85.412zm12.456-79.462h11.456v3.336H97.868zM110.325 60h11.456v1.157h-11.456zm12.456 56.378h11.456v3.872h-11.456zm12.456 46.084h11.456v4.107h-11.456zm12.456 10.327h11.456v1.978h-11.456zm12.456 23.855h11.456v2.783h-11.456zm12.456-3.202h11.456v2.397h-11.456zm12.456 24.542h11.456v2.833h-11.456zm12.457-24.324h11.456v.637h-11.456zm12.456 18.641h11.456v2.263h-11.456zm12.456 25.683h11.456v2.179H222.43zm12.456 1.509h11.456v2.179h-11.456zm12.456 4.224h11.456v.251h-11.456zm12.456-13.847h11.456v2.917h-11.456zm12.456 32.606h11.456v2.481h-11.456zm12.457-15.976h11.456v2.548h-11.456zm12.456 9.204h11.456v2.967h-11.456zm12.456-13.764h11.456v.922h-11.456zm12.456-20.737h11.456v2.213h-11.456zm12.456 27.175h11.456v.235h-11.456zm12.456-16.714h11.456v.587h-11.456zm12.456 26.487h11.456v1.391h-11.456zm12.457 11.45h11.456v1.844h-11.456zm12.456 11.014h11.456v.888H384.36zm12.456 5.314h11.456v.805h-11.456zm12.456-7.611h11.456v2.9h-11.456zm12.456 16.798h11.456v1.844h-11.456zm12.456-1.559h11.456v.469h-11.456zm12.456-8.801h11.456v.855H446.64zm12.456 5.901h11.456v.855h-11.456zm12.457-4.124h11.456v.922h-11.456zm12.456 14.719h11.456v.587h-11.456zm12.456 17.669h11.456v.117h-11.456zm12.456 12.523h11.456v.989h-11.456zm12.456-19.363h11.456v.704h-11.456zm12.456-2.665h11.456v1.375h-11.456zm12.456 25.917h11.456v.939h-11.456zm12.457 3.822h11.456v1.811h-11.456zm12.456-3.168h11.456v1.006h-11.456zm12.456-14.082h11.456v.956h-11.456zm12.456 8.164h11.456v1.207h-11.456zm12.456 9.287h11.456v2.062H608.57zm12.456-17.853h11.456v.402h-11.456zm12.456-9.472h11.456v2.515h-11.456zm12.457-1.308h11.456v.268h-11.456zm12.456-11.919h11.456v1.71h-11.456zm12.456-13.864h11.456v.855h-11.456zm12.456 18.826h11.456v1.878h-11.456zm12.456 14.032h11.456v2.079h-11.456zm12.456 15.741h11.456v.302h-11.456zm12.456-7.695h11.456v9.002h-11.456zm12.457 59.245h11.456v2.38h-11.456zm12.456-4.845h11.456v.302h-11.456z"/><path fill="#ffff73" d="M60.5 259.107h11.456v5.918H60.5zm12.456 2.984h11.456v7.074H72.956zm12.456 10.025h11.456v3.135H85.412zm12.456-69.772h11.456v5.214H97.868zm12.457-8.919h11.456v6.471h-11.456zm12.456 43.436h11.456v3.252h-11.456zm12.456 29.471h11.456v3.889h-11.456zm12.456 7.695h11.456v6.454h-11.456zm12.456 19.63h11.456v3.588h-11.456zm12.456-9.22h11.456v3.99h-11.456zm12.456 13.546h11.456v4.426h-11.456zm12.457-19.212h11.456v3.856h-11.456zm12.456 7.661h11.456v2.8h-11.456zm12.456 20.469h11.456v2.649H222.43zm12.456-3.252h11.456v2.582h-11.456zm12.456-2.448h11.456v2.665h-11.456zm12.456 9.12h11.456v2.397h-11.456zm12.456 19.429h11.456v4.778h-11.456zm12.457-9.237h11.456v2.833h-11.456zm12.456-2.447h11.456v1.844h-11.456zm12.456-18.726h11.456v2.481h-11.456zm12.456-12.992h11.456v3.034h-11.456zm12.456 27.544h11.456v3.101h-11.456zm12.456-16.748h11.456v4.761h-11.456zm12.456 24.342h11.456v3.822h-11.456zm12.457 5.582h11.456v2.95h-11.456zm12.456-.134h11.456v2.481H384.36zm12.456 4.174h11.456v1.978h-11.456zm12.456-3.537h11.456v2.431h-11.456zm12.456 10.779h11.456v3.001h-11.456zm12.456.252h11.456v2.833h-11.456zm12.456-3.94h11.456v2.246H446.64zm12.456 10.545h11.456v2.548h-11.456zm12.457-4.158h11.456v1.844h-11.456zm12.456 7.729h11.456v1.241h-11.456zm12.456 5.565h11.456v2.867h-11.456zm12.456 7.058h11.456v1.324h-11.456zm12.456-17.217h11.456v2.347h-11.456zm12.456-5.733h11.456v4.258h-11.456zm12.456 21.81h11.456v1.173h-11.456zm12.457-.084h11.456v1.777h-11.456zm12.456-.821h11.456v3.37h-11.456zm12.456-2.364h11.456v4.292h-11.456zm12.456 5.08h11.456v2.397h-11.456zm12.456 8.985h11.456v1.358H608.57zm12.456-16.462h11.456v3.319h-11.456zm12.456 1.877h11.456v3.252h-11.456zm12.457-9.052h11.456v4.476h-11.456zm12.456 1.71h11.456v3.738h-11.456zm12.456-15.943h11.456v3.537h-11.456zm12.456 12.053h11.456v3.738h-11.456zm12.456 6.354h11.456v1.106h-11.456zm12.456 4.845h11.456v.939h-11.456zm12.456-1.878h11.456v2.649h-11.456zm12.457 39.563h11.456v.436h-11.456zm12.456-.62h11.456v.469h-11.456z"/><path fill="#91ccf0" d="M60.5 178.002h11.456v12.422H60.5zm12.456-2.615h11.456v13.311H72.956zm12.456 17.971h11.456v15.373H85.412zm12.456-73.242h11.456v14.099H97.868zm12.457-21.391h11.456v15.071h-11.456zm12.456 62.044h11.456v10.98h-11.456zm12.456 39.462h11.456v10.058h-11.456zm12.456 10.126h11.456v9.371h-11.456zm12.456 21.307h11.456v10.561h-11.456zm12.456-2.313h11.456v8.147h-11.456zm12.456 14.551h11.456v9.824h-11.456zm12.457-20.235h11.456v13.143h-11.456zm12.456 18.424h11.456v9.304h-11.456zm12.456 21.022h11.456v7.326H222.43zm12.456-3.855h11.456v7.309h-11.456zm12.456 1.425h11.456v8.349h-11.456zm12.456-4.493h11.456v11.014h-11.456zm12.456 29.806h11.456v6.169h-11.456zm12.457-16.931h11.456v7.393h-11.456zm12.456 4.66h11.456v7.46h-11.456zm12.456-16.345h11.456v4.476h-11.456zm12.456-15.389h11.456v9.354h-11.456zm12.456 30.946h11.456v6.555h-11.456zm12.456-27.392h11.456v8.835h-11.456zm12.456 27.476h11.456v7.192h-11.456zm12.457 12.808h11.456v5.867h-11.456zm12.456 7.577h11.456v6.504H384.36zm12.456 8.868h11.456v2.246h-11.456zm12.456-4.442h11.456v2.448h-11.456zm12.456 9.857h11.456v6.873h-11.456zm12.456 1.006h11.456v6.84h-11.456zm12.456-9.472h11.456v7.561H446.64zm12.456 13.646h11.456v3.554h-11.456zm12.457-3.353h11.456v6.203h-11.456zm12.456 11.987h11.456v4.023h-11.456zm12.456 15.339h11.456v2.85h-11.456zm12.456 4.023h11.456v3.286h-11.456zm12.456-19.128h11.456v3.386h-11.456zm12.456-.184h11.456v3.42h-11.456zm12.456 23.503h11.456v3.722h-11.456zm12.457 2.699h11.456v2.9h-11.456zm12.456-4.744h11.456v2.213h-11.456zm12.456-11.919h11.456v5.532h-11.456zm12.456 14.433h11.456v2.531h-11.456zm12.456 8.584h11.456v3.051H608.57zm12.456-19.966h11.456v4.141h-11.456zm12.456-4.057h11.456v4.359h-11.456zm12.457-4.795h11.456v3.453h-11.456zm12.456-11.248h11.456v5.23h-11.456zm12.456-11.484h11.456v6.454h-11.456zm12.456 19.061h11.456v4.359h-11.456zm12.456 9.79h11.456v2.565h-11.456zm12.456 9.941h11.456v2.515h-11.456zm12.456-1.576h11.456v3.118h-11.456zm12.457 49.438h11.456v.268h-11.456zm12.456-3.806h11.456v1.241h-11.456zm12.456 2.364H769.5v.972h-11.456z"/><path fill="#aaf155" d="M60.5 134.969h11.456v12.623H60.5zm12.456.452h11.456v9.002H72.956zm12.456 27.091h11.456v7.007H85.412zm12.456-80.417h11.456V92.74H97.868zm12.457-20.938h11.456v10.964h-11.456zm12.456 59.093h11.456v9.287h-11.456zm12.456 46.319h11.456v8.382h-11.456zm12.456 8.198h11.456v9.991h-11.456zm12.456 24.66h11.456v8.969h-11.456zm12.456-3.588h11.456v8.801h-11.456zm12.456 24.979h11.456v6.102h-11.456zm12.457-26.521h11.456v6.823h-11.456zm12.456 20.268h11.456v7.678h-11.456zm12.456 25.598h11.456v5.197H222.43zm12.456 1.509h11.456v5.918h-11.456zm12.456 2.297h11.456v6.035h-11.456zm12.456-11.182h11.456v5.733h-11.456zm12.456 32.17h11.456v7.661h-11.456zm12.457-15.909h11.456v4.845h-11.456zm12.456 9.623h11.456v3.487h-11.456zm12.456-15.809h11.456v3.286h-11.456zm12.456-19.446h11.456v6.504h-11.456zm12.456 25.196h11.456v4.007h-11.456zm12.456-16.361h11.456v5.566h-11.456zm12.456 27.292h11.456v4.074h-11.456zm12.457 11.902h11.456v5.063h-11.456zm12.456 10.058h11.456v2.967H384.36zm12.456 5.231h11.456v3.42h-11.456zm12.456-5.515h11.456v4.493h-11.456zm12.456 15.741h11.456v4.023h-11.456zm12.456-2.934h11.456v3.487h-11.456zm12.456-8.415h11.456v3.085H446.64zm12.456 5.901h11.456v6.169h-11.456zm12.457-4.057h11.456v11.232h-11.456zm12.456 14.383h11.456v4.09h-11.456zm12.456 17.2h11.456v4.61h-11.456zm12.456 13.395h11.456v1.727h-11.456zm12.456-19.648h11.456v2.867h-11.456zm12.456-1.995h11.456v2.364h-11.456zm12.456 25.482h11.456v3.588h-11.456zm12.457 4.694h11.456v2.38h-11.456zm12.456-3.973h11.456v1.375h-11.456zm12.456-14.133h11.456v1.643h-11.456zm12.456 8.416h11.456v2.246h-11.456zm12.456 10.142h11.456v3.269H608.57zm12.456-19.513h11.456v3.671h-11.456zm12.456-7.36h11.456v5.264h-11.456zm12.457-3.554h11.456v3.872h-11.456zm12.456-10.477h11.456v4.526h-11.456zm12.456-14.719h11.456v3.889h-11.456zm12.456 19.849h11.456v3.755h-11.456zm12.456 14.232h11.456v4.862h-11.456zm12.456 13.965h11.456v2.565h-11.456zm12.456 1.006h11.456v2.096h-11.456zm12.457 52.622h11.456v.268h-11.456zm12.456-6.923h11.456v1.894h-11.456zm12.456 3.118H769.5v.654h-11.456z"/><path fill="#4f2d68" d="M60.5 147.592h11.456v30.41H60.5zm12.456-3.168h11.456v30.963H72.956zm12.456 25.096h11.456v23.838H85.412zm12.456-76.78h11.456v27.376H97.868zm12.457-20.62h11.456v26.605h-11.456zm12.456 57.417h11.456v31.231h-11.456zm12.456 45.414h11.456v25.28h-11.456zm12.456 9.807h11.456v25.599h-11.456zm12.456 23.637h11.456v23.269h-11.456zm12.456-3.755h11.456v24.71h-11.456zm12.456 22.28h11.456v16.982h-11.456zm12.457-25.8h11.456v22.548h-11.456zm12.456 21.123h11.456v19.849h-11.456zm12.456 23.117h11.456v17.753H222.43zm12.456 2.23h11.456v11.668h-11.456zm12.456 2.414h11.456v10.679h-11.456zm12.456-11.484h11.456v17.669h-11.456zm12.456 34.099h11.456v13.378h-11.456zm12.457-18.726h11.456v15.171h-11.456zm12.456 8.265h11.456v11.567h-11.456zm12.456-16.01h11.456v11.232h-11.456zm12.456-16.228h11.456v12.07h-11.456zm12.456 22.699h11.456v20.318h-11.456zm12.456-14.803h11.456v7.728h-11.456zm12.456 25.8h11.456v9.405h-11.456zm12.457 12.892h11.456v9.321h-11.456zm12.456 7.963h11.456v8.935H384.36zm12.456 5.683h11.456v12.12h-11.456zm12.456-4.443h11.456v12.12h-11.456zm12.456 15.272h11.456v6.706h-11.456zm12.456-3.47h11.456v11.182h-11.456zm12.456-8.818h11.456v10.528H446.64zm12.456 8.986h11.456v15.188h-11.456zm12.457 1.006h11.456v10.83h-11.456zm12.456 7.242h11.456v15.574h-11.456zm12.456 17.719h11.456v13.193h-11.456zm12.456 10.511h11.456v6.706h-11.456zm12.456-18.507h11.456v6.085h-11.456zm12.456-2.498h11.456v8.399h-11.456zm12.456 26.705h11.456v5.197h-11.456zm12.457 3.487h11.456v4.409h-11.456zm12.456-4.979h11.456v4.644h-11.456zm12.456-13.864h11.456v6.588h-11.456zm12.456 9.019h11.456v12.003h-11.456zm12.456 11.165h11.456v9.421H608.57zm12.456-19.111h11.456v8.566h-11.456zm12.456-5.767h11.456v10.276h-11.456zm12.457-4.945h11.456v10.427h-11.456zm12.456-9.824h11.456v9.002h-11.456zm12.456-15.356h11.456v12.875h-11.456zm12.456 19.715h11.456v12.221h-11.456zm12.456 15.339h11.456v6.672h-11.456zm12.456 11.668h11.456v4.945h-11.456zm12.456.536h11.456v2.833h-11.456zm12.457 50.795h11.456v1.475h-11.456zm12.456-5.297h11.456v2.967h-11.456zm12.456 1.877H769.5v3.453h-11.456z"/><path fill="#fff" d="M60.5 265.024h11.456v21.173H60.5zm12.456 4.141h11.456v19.647H72.956zm12.456 6.086h11.456v23.604H85.412zm12.456-67.694h11.456v37.099H97.868zm12.457-7.661h11.456v32.522h-11.456zm12.456 40.217h11.456v28.214h-11.456zm12.456 30.108h11.456v36.143h-11.456zm12.456 10.26h11.456v23.822h-11.456zm12.456 16.764h11.456v19.664h-11.456zm12.456-8.818h11.456v34.584h-11.456zm12.456 13.981h11.456v26.89h-11.456zm12.457-19.781h11.456v27.761h-11.456zm12.456 6.605h11.456v30.729h-11.456zm12.456 20.318h11.456v25.465H222.43zm12.456-3.32h11.456v26.605h-11.456zm12.456-2.363h11.456v21.827h-11.456zm12.456 8.851h11.456v25.884h-11.456zm12.456 21.81h11.456v20.922h-11.456zm12.457-11.181h11.456v25.548h-11.456zm12.456-3.437h11.456v22.749h-11.456zm12.456-18.088h11.456v26.839h-11.456zm12.456-12.439h11.456v23.185h-11.456zm12.456 27.61h11.456v22.045h-11.456zm12.456-15.088h11.456v23.872h-11.456zm12.456 23.403h11.456v16.328h-11.456zm12.457 4.711h11.456v20.435h-11.456zm12.456-.604h11.456v16.295H384.36zm12.456 3.672h11.456v17.485h-11.456zm12.456-3.085h11.456v15.641h-11.456zm12.456 11.349h11.456v13.109h-11.456zm12.456.084h11.456v14.467h-11.456zm12.456-4.526h11.456v21.29H446.64zm12.456 10.846h11.456v17.435h-11.456zm12.457-4.862h11.456v13.881h-11.456zm12.456 7.125h11.456v14.333h-11.456zm12.456 7.192h11.456v13.378h-11.456zm12.456 5.515h11.456v9.455h-11.456zm12.456-16.194h11.456v16.781h-11.456zm12.456-3.822h11.456v16.446h-11.456zm12.456 18.726h11.456v15.104h-11.456zm12.457.519h11.456v15.876h-11.456zm12.456.771h11.456v10.98h-11.456zm12.456-1.441h11.456v11.249h-11.456zm12.456 3.185h11.456v17.116h-11.456zm12.456 7.946h11.456v13.244H608.57zm12.456-14.501h11.456v17.317h-11.456zm12.456 1.811h11.456v13.579h-11.456zm12.457-7.829h11.456v9.304h-11.456zm12.456.972h11.456V367h-11.456zm12.456-16.144h11.456v15.658h-11.456zm12.456 12.255h11.456v16.529h-11.456zm12.456 3.721h11.456v16.11h-11.456zm12.456 4.678h11.456v17.099h-11.456zm12.456-.168h11.456v8.701h-11.456zm12.457 37.35h11.456v3.889h-11.456zm12.456-.586h11.456v6.303h-11.456zm12.456-.017H769.5v3.671h-11.456z"/></g><path aria-label="rule" stroke="currentColor" d="M60 410h710"/><svg viewBox="0 0 830 564" xmlns="http://www.w3.org/2000/svg"><g style="shape-padding:2.00159" aria-label="■ Custom Colour/Modded Campaigns ■ Survivor ■ Monk ■ Hunter ■ Gourmand ■ Artificer ■ Rivulet ■ Spearmaster ■ Saint ■ ⏿" white-space="pre"><path d="M55.012 483.999v-7.744h7.75v7.744z" fill="#00000f"/><path d="M77.438 483.167q-.489.26-1.003.388-.514.133-1.092.133-1.822 0-2.83-1.289-1.004-1.288-1.004-3.624 0-2.323 1.01-3.618 1.015-1.302 2.824-1.302.578 0 1.092.134.514.127 1.003.387v1.314q-.47-.387-1.01-.59-.539-.204-1.085-.204-1.25 0-1.872.965-.622.965-.622 2.914 0 1.942.622 2.907t1.872.965q.559 0 1.092-.203.54-.203 1.003-.59zm2.253-2.354v-4.406h1.168v4.406q0 .958.337 1.409.343.45 1.054.45.825 0 1.263-.577.438-.584.438-1.67v-4.018h1.174v7.097h-1.174v-1.067q-.311.616-.85.934-.534.317-1.251.317-1.092 0-1.625-.711-.534-.717-.534-2.165zm12.766-4.17v1.142q-.502-.292-1.01-.438-.508-.146-1.034-.146-.794 0-1.187.26-.388.254-.388.78 0 .477.292.712.292.234 1.454.457l.47.089q.87.165 1.314.66.45.495.45 1.288 0 1.054-.749 1.65-.749.591-2.082.591-.527 0-1.104-.114-.578-.108-1.25-.33v-1.206q.653.336 1.25.507.596.165 1.13.165.774 0 1.2-.31.425-.318.425-.883 0-.812-1.555-1.123l-.051-.013-.438-.089q-1.01-.197-1.473-.66-.463-.47-.463-1.276 0-1.022.692-1.574.692-.559 1.974-.559.571 0 1.098.108.527.102 1.035.311zm5.547-2.267v2.019h2.654v.907h-2.654v3.86q0 .787.299 1.098.298.31 1.04.31h1.315v.934h-1.429q-1.313 0-1.853-.527t-.54-1.815v-3.86h-1.898v-.907h1.898v-2.019zm7.84 2.837q-.889 0-1.346.692-.457.692-.457 2.05 0 1.353.457 2.05.457.693 1.346.693.895 0 1.352-.692.457-.698.457-2.05 0-1.359-.457-2.05-.457-.693-1.352-.693zm0-.99q1.479 0 2.26.959.787.958.787 2.774 0 1.821-.781 2.78-.78.952-2.266.952-1.48 0-2.26-.952-.78-.959-.78-2.78 0-1.816.78-2.774.78-.959 2.26-.959zm8.207.895q.216-.457.546-.673.337-.222.806-.222.857 0 1.206.667.356.66.356 2.494v4.12h-1.067v-4.069q0-1.504-.171-1.866-.165-.368-.61-.368-.507 0-.698.393-.184.387-.184 1.841v4.069h-1.066v-4.069q0-1.523-.184-1.879-.178-.355-.648-.355-.463 0-.647.393-.178.387-.178 1.841v4.069h-1.06v-7.11h1.06v.61q.21-.381.52-.578.318-.203.718-.203.482 0 .8.222.324.222.501.673zm18.174 6.05q-.49.26-1.003.387-.514.133-1.092.133-1.822 0-2.831-1.289-1.003-1.288-1.003-3.624 0-2.323 1.01-3.618 1.015-1.302 2.824-1.302.578 0 1.092.134.514.127 1.003.387v1.314q-.47-.387-1.01-.59-.54-.204-1.085-.204-1.25 0-1.873.965-.622.965-.622 2.914 0 1.942.622 2.907t1.873.965q.558 0 1.092-.203.54-.203 1.003-.59zm4.925-5.955q-.888 0-1.345.692-.457.692-.457 2.05 0 1.353.457 2.05.457.693 1.345.693.895 0 1.352-.692.457-.698.457-2.05 0-1.359-.457-2.05-.457-.693-1.352-.693zm0-.99q1.48 0 2.26.959.787.958.787 2.774 0 1.821-.78 2.78-.781.952-2.267.952-1.479 0-2.26-.952-.78-.959-.78-2.78 0-1.816.78-2.774.781-.959 2.26-.959zm7.973 4.704q0 .787.286 1.187.292.4.857.4h1.364v.99h-1.479q-1.047 0-1.625-.673-.57-.673-.57-1.904v-6.456h-1.873v-.914h3.04zm7.68-3.714q-.888 0-1.345.692-.457.692-.457 2.05 0 1.353.457 2.05.457.693 1.346.693.895 0 1.352-.692.457-.698.457-2.05 0-1.359-.457-2.05-.457-.693-1.352-.693zm0-.99q1.48 0 2.26.959.788.958.788 2.774 0 1.821-.781 2.78-.78.952-2.266.952-1.48 0-2.26-.952-.78-.959-.78-2.78 0-1.816.78-2.774.78-.959 2.26-.959zm5.155 4.59v-4.406h1.168v4.405q0 .959.336 1.41.343.45 1.054.45.825 0 1.263-.577.438-.584.438-1.67v-4.018h1.175v7.097h-1.175v-1.067q-.31.616-.85.934-.533.317-1.25.317-1.093 0-1.626-.711-.533-.717-.533-2.165zm13.92-2.952q-.374-.292-.761-.425t-.85-.134q-1.093 0-1.67.686-.578.685-.578 1.98v3.536h-1.174v-7.11h1.174v1.39q.292-.755.895-1.155.61-.406 1.441-.406.432 0 .806.108t.717.336zm6.139-3.834h1.206l-4.99 10.683h-1.212zm2.73 0h1.713l1.638 4.824 1.65-4.824h1.72v9.477h-1.187v-8.373l-1.688 4.996h-.971l-1.695-4.996v8.373h-1.18zm11.19 3.186q-.889 0-1.346.692-.457.692-.457 2.05 0 1.353.457 2.05.457.693 1.346.693.895 0 1.352-.692.457-.698.457-2.05 0-1.359-.457-2.05-.457-.693-1.352-.693zm0-.99q1.479 0 2.26.959.787.958.787 2.774 0 1.821-.78 2.78-.782.952-2.267.952-1.479 0-2.26-.952-.78-.959-.78-2.78 0-1.816.78-2.774.781-.959 2.26-.959zm9.363 1.08v-3.676h1.168v9.877H201.3v-.895q-.292.527-.781.806-.482.273-1.117.273-1.289 0-2.031-.997-.737-1.003-.737-2.76 0-1.734.743-2.718.743-.99 2.025-.99.641 0 1.13.28.489.272.768.8zm-3.434 2.653q0 1.358.431 2.05.432.692 1.276.692t1.282-.698q.445-.699.445-2.044 0-1.352-.445-2.044-.438-.699-1.282-.699t-1.276.692q-.431.692-.431 2.05zm11.26-2.654v-3.675h1.168v9.877h-1.168v-.895q-.292.527-.78.806-.483.273-1.117.273-1.29 0-2.032-.997-.736-1.003-.736-2.76 0-1.734.743-2.718.742-.99 2.025-.99.64 0 1.13.28.488.272.767.8zm-3.434 2.654q0 1.358.432 2.05.432.692 1.276.692t1.282-.698q.444-.699.444-2.044 0-1.352-.444-2.044-.438-.699-1.282-.699t-1.276.692q-.432.692-.432 2.05zm12.873-.299v.572h-5.059v.038q0 1.161.603 1.796.61.635 1.714.635.559 0 1.168-.178.61-.178 1.301-.54v1.162q-.666.273-1.288.406-.616.14-1.193.14-1.657 0-2.59-.99-.933-.997-.933-2.742 0-1.702.914-2.717.914-1.016 2.437-1.016 1.359 0 2.14.92.786.921.786 2.514zm-1.168-.343q-.025-1.028-.488-1.561-.457-.54-1.32-.54-.845 0-1.39.559-.547.559-.648 1.549zm7.383-2.012v-3.675h1.168v9.877h-1.168v-.895q-.292.527-.781.806-.482.273-1.117.273-1.289 0-2.031-.997-.737-1.003-.737-2.76 0-1.734.743-2.718.743-.99 2.025-.99.641 0 1.13.28.488.272.768.8zm-3.434 2.654q0 1.358.431 2.05.432.692 1.276.692t1.282-.698q.445-.699.445-2.044 0-1.352-.445-2.044-.438-.699-1.282-.699t-1.276.692q-.431.692-.431 2.05zm20.452 3.211q-.489.26-1.003.388-.514.133-1.092.133-1.822 0-2.83-1.289-1.004-1.288-1.004-3.624 0-2.323 1.01-3.618 1.015-1.302 2.824-1.302.578 0 1.092.134.514.127 1.003.387v1.314q-.47-.387-1.01-.59-.539-.204-1.085-.204-1.25 0-1.872.965-.622.965-.622 2.914 0 1.942.622 2.907t1.872.965q.559 0 1.092-.203.54-.203 1.003-.59zm5.472-3.237h-.388q-1.022 0-1.542.362-.514.355-.514 1.066 0 .642.387.997t1.073.355q.964 0 1.517-.666.552-.673.558-1.854v-.26zm2.266-.482v4.056h-1.175v-1.054q-.374.635-.945.94-.565.298-1.378.298-1.085 0-1.733-.61-.647-.615-.647-1.643 0-1.187.793-1.803.8-.616 2.342-.616h1.568v-.184q-.006-.85-.431-1.231-.426-.388-1.359-.388-.596 0-1.206.172-.61.171-1.187.501v-1.168q.648-.247 1.238-.368.597-.127 1.155-.127.883 0 1.505.26.628.26 1.015.781.242.318.343.787.102.464.102 1.397zm5.395-2.33q.216-.457.546-.673.336-.222.806-.222.857 0 1.206.667.356.66.356 2.494v4.12h-1.067v-4.069q0-1.504-.171-1.866-.165-.368-.61-.368-.507 0-.698.393-.184.387-.184 1.841v4.069h-1.066v-4.069q0-1.523-.184-1.879-.178-.355-.648-.355-.463 0-.647.393-.178.387-.178 1.841v4.069h-1.06v-7.11h1.06v.61q.21-.381.52-.578.318-.203.718-.203.482 0 .8.222.323.222.501.673zm5.916 5.49v3.6h-1.174v-9.813h1.174v.907q.292-.527.775-.8.488-.279 1.123-.279 1.289 0 2.019.997.736.996.736 2.761 0 1.733-.736 2.723-.737.984-2.019.984-.647 0-1.136-.273-.483-.28-.762-.806zm3.428-2.652q0-1.359-.432-2.05-.425-.693-1.27-.693-.85 0-1.288.699-.438.692-.438 2.044 0 1.345.438 2.044.438.698 1.289.698.844 0 1.27-.692.43-.692.43-2.05zm6.475-.026h-.388q-1.022 0-1.542.362-.514.355-.514 1.066 0 .641.387.997t1.073.355q.964 0 1.517-.666.552-.673.558-1.854v-.26zm2.266-.482v4.056h-1.175v-1.054q-.374.635-.945.94-.565.298-1.378.298-1.085 0-1.733-.61-.647-.615-.647-1.643 0-1.187.793-1.803.8-.616 2.342-.616h1.568v-.184q-.006-.85-.431-1.231-.426-.388-1.359-.388-.596 0-1.206.172-.61.171-1.187.501v-1.168q.648-.247 1.238-.368.597-.127 1.155-.127.883 0 1.505.26.628.26 1.015.781.241.318.343.787.102.464.102 1.397zm2.73-3.053h2.989v6.201h2.317v.908h-5.802v-.908h2.317v-5.294h-1.822zm1.82-2.768h1.169v1.479h-1.168zm9.827 6.265q0-1.314-.432-1.993-.425-.686-1.244-.686-.857 0-1.307.686-.451.68-.451 1.993 0 1.314.45 2.006.458.685 1.321.685.806 0 1.231-.691.432-.692.432-2zm1.168 3.155q0 1.6-.755 2.425-.756.825-2.222.825-.482 0-1.01-.089-.526-.089-1.053-.26v-1.156q.622.292 1.13.432t.933.14q.946 0 1.377-.514t.432-1.632v-.844q-.28.597-.762.889-.482.292-1.174.292-1.244 0-1.987-.997-.742-.997-.742-2.666 0-1.676.742-2.672.743-.997 1.987-.997.686 0 1.162.273.476.273.774.844v-.92h1.168zm7.884-3.948v4.405h-1.174v-4.405q0-.959-.337-1.41-.336-.45-1.054-.45-.818 0-1.263.584-.438.577-.438 1.663v4.018h-1.168v-7.11h1.168v1.067q.311-.61.844-.92.534-.318 1.264-.318 1.085 0 1.618.717.54.711.54 2.159zm7.331-2.457v1.143q-.501-.292-1.009-.438t-1.035-.146q-.793 0-1.187.26-.387.254-.387.78 0 .477.292.712.292.234 1.454.457l.47.089q.87.165 1.314.66.45.495.45 1.288 0 1.054-.749 1.65-.749.591-2.082.591-.527 0-1.104-.114-.578-.108-1.25-.33v-1.206q.653.336 1.25.507.596.165 1.13.165.774 0 1.2-.31.425-.318.425-.883 0-.812-1.556-1.123l-.05-.013-.438-.089q-1.01-.197-1.473-.66-.463-.47-.463-1.276 0-1.022.691-1.574.692-.559 1.975-.559.57 0 1.098.108.527.102 1.034.311z" fill="#1e90ff"/><path d="M313.291 483.999v-7.744h7.751v7.744z" fill="#fff"/><path d="M335.33 474.35v1.302q-.583-.375-1.174-.565-.584-.19-1.18-.19-.908 0-1.435.425-.527.419-.527 1.136 0 .628.343.958.349.33 1.295.553l.673.152q1.333.311 1.942.978.61.666.61 1.815 0 1.352-.838 2.063t-2.438.711q-.666 0-1.34-.146-.672-.14-1.351-.425v-1.365q.73.463 1.377.68.654.215 1.314.215.971 0 1.51-.432.54-.438.54-1.218 0-.711-.374-1.086-.368-.374-1.289-.578l-.685-.158q-1.32-.299-1.917-.902t-.597-1.618q0-1.27.85-2.031.858-.769 2.273-.769.546 0 1.149.127.603.121 1.27.369zm2.641 6.462v-4.405h1.168v4.406q0 .958.337 1.409.342.45 1.053.45.825 0 1.263-.577.438-.584.438-1.67v-4.018h1.175v7.097h-1.175v-1.067q-.31.616-.85.934-.533.317-1.25.317-1.092 0-1.626-.711-.533-.717-.533-2.165zm13.92-2.951q-.374-.292-.761-.425-.387-.134-.85-.134-1.092 0-1.67.686-.578.685-.578 1.98v3.536h-1.174v-7.11h1.174v1.39q.292-.755.895-1.155.61-.406 1.441-.406.432 0 .806.108.375.108.718.336zm1.13-1.466h1.213l2.063 5.966 2.07-5.966h1.212l-2.527 7.109h-1.504zm8.817 0h2.99v6.201h2.317v.908h-5.802v-.908h2.317v-5.294h-1.822zm1.822-2.768h1.168v1.479h-1.168zm5.015 2.768h1.212l2.063 5.966 2.07-5.966h1.212l-2.526 7.109H371.2zm11.102.818q-.889 0-1.346.692-.457.692-.457 2.05 0 1.353.457 2.05.457.693 1.346.693.895 0 1.352-.692.457-.698.457-2.05 0-1.359-.457-2.05-.457-.693-1.352-.693zm0-.99q1.479 0 2.26.959.787.958.787 2.774 0 1.821-.781 2.78-.78.952-2.266.952-1.48 0-2.26-.952-.78-.959-.78-2.78 0-1.816.78-2.774t2.26-.959zm11.248 1.638q-.375-.292-.762-.425-.387-.134-.85-.134-1.092 0-1.67.686-.577.685-.577 1.98v3.536h-1.175v-7.11h1.175v1.39q.292-.755.895-1.155.609-.406 1.44-.406.432 0 .807.108t.717.336z" fill="#1e90ff"/><path d="M399.385 483.999v-7.744h7.75v7.744z" fill="#ffff73"/><path d="M415.546 474.027h1.714l1.637 4.824 1.65-4.824h1.721v9.477h-1.187v-8.373l-1.688 4.996h-.972l-1.694-4.996v8.373h-1.181zm11.19 3.186q-.888 0-1.345.692-.457.692-.457 2.05 0 1.353.457 2.05.457.693 1.346.693.895 0 1.352-.692.457-.698.457-2.05 0-1.359-.457-2.05-.457-.693-1.352-.693zm0-.99q1.48 0 2.26.959.788.958.788 2.774 0 1.821-.781 2.78-.78.952-2.266.952-1.48 0-2.26-.952-.78-.959-.78-2.78 0-1.816.78-2.774t2.26-.959zm10.589 2.876v4.405h-1.175v-4.405q0-.959-.336-1.41-.336-.45-1.054-.45-.819 0-1.263.584-.438.577-.438 1.663v4.018h-1.168v-7.11h1.168v1.067q.311-.61.844-.92.534-.318 1.263-.318 1.086 0 1.62.717.539.711.539 2.159zm2.653-5.472h1.206v5.72l3.066-2.952h1.422l-2.8 2.678 3.238 4.43h-1.428l-2.628-3.668-.87.819v2.85h-1.206z" fill="#1e90ff"/><path d="M454.171 483.999v-7.744h7.75v7.744z" fill="#ff7373"/><path d="M470.656 474.027h1.289v3.885h3.51v-3.885h1.289v9.477h-1.289v-4.513h-3.51v4.513h-1.289zm8.195 6.786v-4.406h1.168v4.406q0 .958.336 1.409.343.45 1.054.45.825 0 1.263-.577.438-.584.438-1.67v-4.018h1.175v7.097h-1.175v-1.067q-.31.616-.85.934-.533.317-1.25.317-1.093 0-1.626-.711-.533-.717-.533-2.165zm13.26-1.714v4.405h-1.174v-4.405q0-.959-.336-1.41-.337-.45-1.054-.45-.819 0-1.263.584-.438.577-.438 1.663v4.018h-1.168v-7.11h1.168v1.067q.31-.61.844-.92.533-.318 1.263-.318 1.086 0 1.619.717.54.711.54 2.159zm5.053-4.723v2.019h2.653v.907h-2.653v3.86q0 .787.298 1.098.299.31 1.041.31h1.314v.934h-1.428q-1.314 0-1.853-.527-.54-.527-.54-1.815v-3.86h-1.898v-.907h1.898v-2.019zm10.988 5.281v.572h-5.06v.038q0 1.161.604 1.796.61.635 1.714.635.558 0 1.168-.178.609-.178 1.3-.54v1.162q-.666.273-1.288.406-.615.14-1.193.14-1.657 0-2.59-.99-.933-.997-.933-2.742 0-1.702.914-2.717.914-1.016 2.438-1.016 1.358 0 2.139.92.787.921.787 2.514zm-1.168-.343q-.026-1.028-.489-1.561-.457-.54-1.32-.54-.844 0-1.39.559-.546.559-.648 1.549zm9.267-1.453q-.374-.292-.761-.425-.387-.134-.85-.134-1.093 0-1.67.686-.578.685-.578 1.98v3.536h-1.174v-7.11h1.174v1.39q.292-.755.895-1.155.61-.406 1.441-.406.432 0 .806.108t.717.336z" fill="#1e90ff"/><path d="M524.611 483.999v-7.744h7.75v7.744z" fill="#f0c097"/><path d="M547.234 482.723q-.514.476-1.161.724-.641.241-1.39.241-1.803 0-2.806-1.289-1.003-1.295-1.003-3.624 0-2.323 1.016-3.618 1.015-1.302 2.824-1.302.597 0 1.143.172.546.165 1.054.508v1.314q-.515-.49-1.054-.718-.54-.235-1.143-.235-1.25 0-1.879.972-.622.965-.622 2.907 0 1.974.603 2.926.61.946 1.867.946.425 0 .742-.095.324-.102.584-.311v-2.546h-1.377v-1.053h2.602zm4.73-5.51q-.89 0-1.346.692-.457.692-.457 2.05 0 1.353.457 2.05.457.693 1.345.693.895 0 1.352-.692.457-.698.457-2.05 0-1.359-.457-2.05-.457-.693-1.352-.693zm0-.99q1.478 0 2.26.959.786.958.786 2.774 0 1.821-.78 2.78-.781.952-2.267.952-1.479 0-2.26-.952-.78-.959-.78-2.78 0-1.816.78-2.774t2.26-.959zm5.154 4.59v-4.406h1.168v4.406q0 .958.336 1.409.343.45 1.054.45.825 0 1.263-.577.438-.584.438-1.67v-4.018h1.174v7.097h-1.174v-1.067q-.311.616-.85.934-.534.317-1.251.317-1.092 0-1.625-.71-.533-.718-.533-2.165zm13.92-2.952q-.374-.292-.762-.425-.387-.134-.85-.134-1.092 0-1.67.686-.577.685-.577 1.98v3.536h-1.175v-7.11h1.175v1.39q.292-.755.895-1.155.61-.406 1.44-.406.432 0 .807.108t.717.336zm4.786-.743q.216-.457.546-.673.337-.222.806-.222.857 0 1.206.667.356.66.356 2.494v4.12h-1.067v-4.069q0-1.504-.171-1.866-.165-.368-.61-.368-.507 0-.698.393-.184.387-.184 1.841v4.069h-1.066v-4.069q0-1.523-.184-1.879-.178-.355-.648-.355-.463 0-.647.393-.178.387-.178 1.841v4.069h-1.06v-7.11h1.06v.61q.21-.381.52-.578.318-.203.718-.203.482 0 .8.222.323.222.501.673zm7.992 2.812h-.387q-1.022 0-1.543.362-.514.355-.514 1.066 0 .642.387.997t1.073.355q.965 0 1.517-.666.552-.673.559-1.854v-.26zm2.266-.482v4.056h-1.174v-1.054q-.375.635-.946.94-.565.298-1.378.298-1.085 0-1.732-.61-.648-.615-.648-1.643 0-1.187.794-1.803.8-.616 2.342-.616h1.568v-.184q-.006-.85-.432-1.231-.425-.388-1.358-.388-.597 0-1.206.172-.61.171-1.187.501v-1.168q.647-.247 1.237-.368.597-.127 1.156-.127.882 0 1.504.26.628.26 1.016.781.24.318.342.787.102.464.102 1.397zm7.776-.35v4.406h-1.174v-4.405q0-.959-.337-1.41-.336-.45-1.054-.45-.818 0-1.263.584-.438.577-.438 1.663v4.018h-1.168v-7.11h1.168v1.067q.311-.61.845-.92.533-.318 1.263-.318 1.085 0 1.618.717.54.711.54 2.159zm6.601-1.796v-3.675h1.168v9.877h-1.168v-.895q-.292.527-.78.806-.483.273-1.117.273-1.29 0-2.032-.997-.736-1.003-.736-2.76 0-1.734.743-2.718.742-.99 2.025-.99.64 0 1.13.28.488.272.767.8zm-3.434 2.654q0 1.358.432 2.05.432.692 1.276.692t1.282-.698q.444-.699.444-2.044 0-1.352-.444-2.044-.438-.699-1.282-.699t-1.276.692q-.432.692-.432 2.05z" fill="#1e90ff"/><path d="M610.705 483.999v-7.744h7.75v7.744z" fill="#70223b"/><path d="M630.23 475.157l-1.352 4.85h2.704zm-.774-1.13h1.555l2.9 9.477h-1.326l-.698-2.47h-3.32l-.686 2.47h-1.326zm12.022 3.834q-.374-.292-.762-.425t-.85-.134q-1.092 0-1.67.686-.577.685-.577 1.98v3.536h-1.175v-7.11h1.175v1.39q.292-.755.895-1.155.61-.406 1.44-.406.432 0 .807.108t.717.336zm4.393-3.485v2.019h2.653v.907h-2.653v3.86q0 .787.298 1.098.298.31 1.041.31h1.314v.934h-1.428q-1.314 0-1.854-.527t-.54-1.815v-3.86h-1.897v-.907h1.898v-2.019zm5.554 2.019h2.99v6.201h2.316v.908h-5.801v-.908h2.317v-5.294h-1.822zm1.822-2.768h1.168v1.479h-1.168zm11.127 0v.971h-1.327q-.628 0-.876.26-.24.254-.24.908v.629h2.443v.907h-2.444v6.202h-1.168v-6.202h-1.898v-.907h1.898v-.496q0-1.168.533-1.72.54-.552 1.676-.552zm2.704 2.768h2.99v6.201h2.317v.908h-5.802v-.908h2.317v-5.294h-1.822zm1.822-2.768h1.168v1.479H668.9zm11.115 9.515q-.47.273-.972.406-.495.14-1.015.14-1.65 0-2.584-.99-.926-.99-.926-2.742t.926-2.743q.933-.99 2.584-.99.514 0 1.003.133.489.134.984.413v1.225q-.464-.412-.933-.597-.464-.184-1.054-.184-1.098 0-1.689.711-.59.711-.59 2.032 0 1.314.59 2.03.597.712 1.689.712.61 0 1.092-.184.482-.19.895-.584zm8.15-3.485v.572h-5.059v.038q0 1.161.603 1.796.61.635 1.714.635.558 0 1.168-.178.61-.178 1.301-.54v1.162q-.666.273-1.288.406-.616.14-1.194.14-1.657 0-2.59-.99-.933-.997-.933-2.742 0-1.702.914-2.717.914-1.016 2.438-1.016 1.358 0 2.139.92.787.921.787 2.514zm-1.168-.343q-.025-1.028-.489-1.561-.457-.54-1.32-.54-.844 0-1.39.559-.546.559-.648 1.549zm9.268-1.453q-.375-.292-.762-.425t-.85-.134q-1.092 0-1.67.686-.578.685-.578 1.98v3.536h-1.174v-7.11h1.174v1.39q.292-.755.895-1.155.61-.406 1.441-.406.432 0 .806.108t.718.336z" fill="#1e90ff"/><path d="M704.625 483.999v-7.744h7.75v7.744z" fill="#91ccf0"/><path d="M725.064 479.029q.495.127.844.482.35.35.87 1.403l1.288 2.59h-1.377l-1.13-2.393q-.489-1.022-.882-1.314-.387-.298-1.016-.298h-1.225v4.005h-1.289v-9.477h2.641q1.562 0 2.393.704.832.705.832 2.038 0 .94-.514 1.536-.508.59-1.435.724zm-2.628-3.948v3.364h1.403q.92 0 1.371-.413.45-.412.45-1.263 0-.819-.482-1.25-.476-.438-1.39-.438zm7.255 1.314h2.99v6.201h2.317v.908h-5.802v-.908h2.317v-5.294h-1.822zm1.822-2.768h1.168v1.479h-1.168zm5.015 2.768h1.212l2.063 5.966 2.07-5.966h1.212l-2.526 7.109h-1.505zm8.43 4.418v-4.406h1.167v4.406q0 .958.337 1.409.343.45 1.054.45.825 0 1.263-.577.438-.584.438-1.67v-4.018h1.174v7.097h-1.174v-1.067q-.311.616-.85.934-.534.317-1.251.317-1.092 0-1.625-.71-.533-.718-.533-2.165zm10.645.114q0 .787.285 1.187.292.4.857.4h1.365v.99h-1.48q-1.047 0-1.624-.673-.571-.673-.571-1.904v-6.456h-1.873v-.914h3.04zm10.829-1.27v.572h-5.06v.038q0 1.161.604 1.796.609.635 1.713.635.56 0 1.168-.178.61-.178 1.302-.54v1.162q-.667.273-1.289.406-.616.14-1.193.14-1.657 0-2.59-.99-.933-.997-.933-2.742 0-1.702.914-2.717.914-1.016 2.437-1.016 1.359 0 2.14.92.787.921.787 2.514zm-1.168-.343q-.026-1.028-.49-1.561-.456-.54-1.32-.54-.844 0-1.39.559-.545.559-.647 1.549zm5.833-4.938v2.019h2.653v.907h-2.653v3.86q0 .787.299 1.098.298.31 1.04.31h1.314v.934h-1.428q-1.314 0-1.853-.527-.54-.527-.54-1.815v-3.86h-1.898v-.907h1.898v-2.019z" fill="#1e90ff"/><path d="M314.618 500.249v-7.744h7.75v7.744z" fill="#4f2d68"/><path d="M336.657 490.6v1.302q-.584-.375-1.174-.565-.584-.19-1.18-.19-.908 0-1.435.425-.527.419-.527 1.136 0 .628.343.958.349.33 1.295.553l.672.152q1.333.311 1.943.978.61.666.61 1.815 0 1.352-.839 2.063t-2.437.711q-.667 0-1.34-.146-.672-.14-1.352-.425v-1.365q.73.463 1.378.68.654.215 1.314.215.97 0 1.51-.432.54-.438.54-1.218 0-.711-.374-1.086-.369-.374-1.29-.578l-.685-.158q-1.32-.299-1.917-.902-.596-.603-.596-1.618 0-1.27.85-2.031.857-.769 2.273-.769.546 0 1.149.127.603.121 1.27.369zm3.783 8.259v3.599h-1.174v-9.813h1.174v.907q.292-.527.775-.8.489-.279 1.123-.279 1.289 0 2.019.997.736.996.736 2.761 0 1.733-.736 2.723-.736.984-2.019.984-.647 0-1.136-.273-.482-.28-.762-.806zm3.428-2.653q0-1.359-.431-2.05-.426-.693-1.27-.693-.85 0-1.289.699-.438.692-.438 2.044 0 1.345.438 2.044t1.289.698q.844 0 1.27-.692.431-.692.431-2.05zm9.077-.299v.572h-5.059v.038q0 1.161.603 1.796.61.635 1.714.635.559 0 1.168-.178.61-.178 1.301-.54v1.162q-.666.273-1.288.406-.616.14-1.194.14-1.656 0-2.59-.99-.933-.997-.933-2.742 0-1.702.915-2.717.914-1.016 2.437-1.016 1.358 0 2.14.92.786.921.786 2.514zm-1.168-.343q-.025-1.028-.488-1.561-.457-.54-1.32-.54-.845 0-1.39.559-.547.559-.648 1.549zm6.392.616h-.387q-1.022 0-1.542.362-.514.355-.514 1.066 0 .642.387.997t1.073.355q.964 0 1.517-.666.552-.673.558-1.854v-.26zm2.267-.482v4.056h-1.175V498.7q-.374.635-.946.94-.565.298-1.377.298-1.085 0-1.733-.61-.647-.615-.647-1.643 0-1.187.793-1.803.8-.616 2.342-.616h1.568v-.184q-.006-.85-.431-1.231-.426-.388-1.359-.388-.596 0-1.206.172-.61.171-1.187.501v-1.168q.648-.247 1.238-.368.597-.127 1.155-.127.883 0 1.505.26.628.26 1.015.781.241.318.343.787.102.464.102 1.397zm8.436-1.587q-.375-.292-.762-.425-.387-.134-.85-.134-1.093 0-1.67.686-.578.685-.578 1.98v3.536h-1.174v-7.11h1.174v1.39q.292-.755.895-1.155.61-.406 1.441-.406.432 0 .806.108t.718.336zm4.786-.743q.216-.457.546-.673.336-.222.806-.222.857 0 1.206.667.355.66.355 2.494v4.12h-1.066v-4.069q0-1.504-.171-1.866-.166-.368-.61-.368-.508 0-.698.393-.184.387-.184 1.841v4.069h-1.067v-4.069q0-1.523-.184-1.879-.177-.355-.647-.355-.464 0-.648.393-.177.387-.177 1.841v4.069h-1.06v-7.11h1.06v.61q.21-.381.52-.578.318-.203.717-.203.483 0 .8.222.324.222.502.673zm7.991 2.812h-.387q-1.022 0-1.542.362-.514.355-.514 1.066 0 .642.387.997t1.073.355q.964 0 1.517-.666.552-.673.558-1.854v-.26zm2.267-.482v4.056h-1.175V498.7q-.374.635-.946.94-.565.298-1.377.298-1.085 0-1.733-.61-.647-.615-.647-1.643 0-1.187.793-1.803.8-.616 2.342-.616h1.568v-.184q-.006-.85-.431-1.231-.426-.388-1.359-.388-.597 0-1.206.172-.61.171-1.187.501v-1.168q.648-.247 1.238-.368.597-.127 1.155-.127.882 0 1.505.26.628.26 1.015.781.241.318.343.787.102.464.102 1.397zm7.28-2.806v1.143q-.501-.292-1.009-.438t-1.035-.146q-.793 0-1.187.26-.387.254-.387.78 0 .477.292.712.292.234 1.454.457l.47.089q.87.165 1.313.66.451.495.451 1.288 0 1.054-.749 1.65-.749.591-2.082.591-.527 0-1.104-.114-.578-.108-1.25-.33v-1.206q.653.336 1.25.507.596.165 1.13.165.774 0 1.2-.31.424-.318.424-.883 0-.812-1.555-1.123l-.05-.013-.439-.089q-1.009-.197-1.472-.66-.464-.47-.464-1.276 0-1.022.692-1.574.692-.559 1.974-.559.572 0 1.099.108.526.102 1.034.311zm5.548-2.266v2.019h2.653v.907h-2.653v3.86q0 .787.298 1.098.299.31 1.042.31h1.313v.934h-1.428q-1.314 0-1.853-.527-.54-.527-.54-1.815v-3.86h-1.898v-.907h1.898v-2.019zm10.988 5.281v.572h-5.06v.038q0 1.161.604 1.796.61.635 1.714.635.558 0 1.168-.178.61-.178 1.301-.54v1.162q-.667.273-1.289.406-.615.14-1.193.14-1.657 0-2.59-.99-.933-.997-.933-2.742 0-1.702.914-2.717.914-1.016 2.438-1.016 1.358 0 2.139.92.787.921.787 2.514zm-1.168-.343q-.025-1.028-.489-1.561-.457-.54-1.32-.54-.844 0-1.39.559-.546.559-.648 1.549zm9.268-1.453q-.375-.292-.762-.425-.387-.134-.85-.134-1.093 0-1.67.686-.578.685-.578 1.98v3.536h-1.174v-7.11h1.174v1.39q.292-.755.895-1.155.61-.406 1.441-.406.432 0 .806.108t.718.336z" fill="#1e90ff"/><path d="M424.191 500.249v-7.744h7.75v7.744z" fill="#aaf155"/><path d="M446.23 490.6v1.302q-.584-.375-1.174-.565-.584-.19-1.18-.19-.908 0-1.435.425-.527.419-.527 1.136 0 .628.343.958.349.33 1.295.553l.673.152q1.333.311 1.942.978.61.666.61 1.815 0 1.352-.839 2.063t-2.437.711q-.667 0-1.34-.146-.672-.14-1.351-.425v-1.365q.73.463 1.377.68.654.215 1.314.215.971 0 1.51-.432.54-.438.54-1.218 0-.711-.374-1.086-.368-.374-1.289-.578l-.685-.158q-1.32-.299-1.917-.902t-.597-1.618q0-1.27.85-2.031.857-.769 2.273-.769.546 0 1.149.127.603.121 1.27.369zm5.86 5.58h-.388q-1.022 0-1.542.362-.514.355-.514 1.066 0 .642.387.997t1.072.355q.965 0 1.518-.666.552-.673.558-1.854v-.26zm2.265-.482v4.056h-1.174V498.7q-.374.635-.946.94-.565.298-1.377.298-1.086 0-1.733-.61-.647-.615-.647-1.643 0-1.187.793-1.803.8-.616 2.342-.616h1.568v-.184q-.006-.85-.431-1.231-.426-.388-1.359-.388-.597 0-1.206.172-.61.171-1.187.501v-1.168q.648-.247 1.238-.368.597-.127 1.155-.127.882 0 1.505.26.628.26 1.015.781.241.318.343.787.101.464.101 1.397zm2.73-3.053h2.99v6.201h2.317v.908h-5.802v-.908h2.317v-5.294h-1.822zm1.822-2.768h1.168v1.479h-1.168zm11.051 5.472v4.405h-1.174v-4.405q0-.959-.337-1.41-.336-.45-1.053-.45-.82 0-1.264.584-.438.577-.438 1.663v4.018h-1.168v-7.11h1.168v1.067q.311-.61.845-.92.533-.318 1.263-.318 1.085 0 1.618.717.54.711.54 2.159zm5.053-4.723v2.019h2.653v.907h-2.653v3.86q0 .787.298 1.098.298.31 1.041.31h1.314v.934h-1.428q-1.314 0-1.854-.527t-.54-1.815v-3.86h-1.897v-.907h1.898v-2.019z" fill="#1e90ff"/><path d="M486.805 500.249v-7.744h7.75v7.744z" fill="#16234f"/><path d="M515.287 492.905q-.248-.013-.413-.013-1.11 0-3.117.387.203.52.203.978 0 .616-.298 1.085-.349.533-.933.533-.355 0-.552-.406-.159-.323-.159-.723 0-.527.267-.876.21.45.552.603.425-.4.578-1.13-1.156.235-2.482.596-.121.426-.121.851 0 .914.489 1.473.514.584 1.415.584.565 0 1.029-.299.298-.19.806-.717.127-.133.431-.374-.006.977-.87 1.694-.818.68-1.821.68-.92 0-1.574-.534-.698-.577-.698-1.479 0-1.053.463-1.752-2.361.673-4.202 1.429.457.793 1.961 1.637 1.225.686 2.412 1.054 1.092.336 1.924.336.26 0 .774-.063.514-.07.768-.07.12 0 .229.057-.197.343-.933.553-.59.17-1.118.17-2.107 0-4.38-1.072-2.481-1.174-3.364-2.888 3.377-1.784 8.88-2.647 1.296-.203 2.184-.203 1.384 0 1.67.546z" fill="#1e90ff"/></g></svg></svg>