<svg xmlns="http://www.w3.org/2000/svg" width="830" height="470" fill="currentColor" class="plot-d6a7b5" font-family="system-ui, sans-serif" font-size="10" style="--plot-background:white;display:block;height:intrinsic;max-width:100%;color:#1e90ff" text-anchor="middle" viewBox="0 0 830 470">
    <style>
        :where(.plot-d6a7b5 text),:where(.plot-d6a7b5 tspan){white-space:pre}
    </style>
    <path stroke="currentColor" stroke-opacity=".1" d="
M60
410
h710
M60
360.939
h710
M60
311.878
h710
M60
262.817
h710
m-710
-49.06
h710
M60
164.696
h710
M60
115.635
h710
M60
66.574
h710" aria-hidden="true" aria-label="y-grid"/>
    <path fill="none" stroke="currentColor" d="
M60
410
h-6
m6
-49.06
h-6
m6
-49.062
h-6
m6
-49.061
h-6
m6
-49.06
h-6
m6
-49.061
h-6
m6
-49.061
h-6
m6
-49.061
h-6" aria-hidden="true" aria-label="y-axis tick"/>
    <g aria-label="y-axis tick label" font-variant="tabular-nums" text-anchor="end">
        <text y=".32em" transform="translate(51 410)">0</text>
        <text y=".32em" transform="translate(51 360.94)">1,000</text>
        <text y=".32em" transform="translate(51 311.878)">2,000</text>
        <text y=".32em" transform="translate(51 262.817)">3,000</text>
        <text y=".32em" transform="translate(51 213.757)">4,000</text>
        <text y=".32em" transform="translate(51 164.696)">5,000</text>
        <text y=".32em" transform="translate(51 115.635)">6,000</text>
        <text y=".32em" transform="translate(51 66.574)">7,000</text>
    </g>
    <text y=".71em" aria-label="y-axis label" text-anchor="start" transform="translate(3 3)">↑ Visible Vestiges (4 days)</text>
    <path fill="none" stroke="currentColor" d="
M83.407
410
v6
m62.647
-6
v6
m63.336
-6
v6
m63.335
-6
v6
m62.647
-6
v6
m62.647
-6
v6
m63.335
-6
v6
m63.336
-6
v6
m61.958
-6
v6
m62.647
-6
v6
m63.335
-6
v6" aria-hidden="true" aria-label="x-axis tick"/>
    <g aria-label="x-axis tick label" font-variant="tabular-nums">
        <text transform="translate(83.407 419)"><tspan x="0" y=".71em">Apr</tspan><tspan x="0" dy="1em">2023</tspan></text>
        <text y=".71em" transform="translate(146.054 419)">Jul</text>
        <text y=".71em" transform="translate(209.39 419)">Oct</text>
        <text transform="translate(272.725 419)"><tspan x="0" y=".71em">Jan</tspan><tspan x="0" dy="1em">2024</tspan></text>
        <text y=".71em" transform="translate(335.372 419)">Apr</text>
        <text y=".71em" transform="translate(398.019 419)">Jul</text>
        <text y=".71em" transform="translate(461.354 419)">Oct</text>
        <text transform="translate(524.69 419)"><tspan x="0" y=".71em">Jan</tspan><tspan x="0" dy="1em">2025</tspan></text>
        <text y=".71em" transform="translate(586.648 419)">Apr</text>
        <text y=".71em" transform="translate(649.295 419)">Jul</text>
        <text y=".71em" transform="translate(712.63 419)">Oct</text>
    </g>
    <path fill="none" stroke="currentColor" stroke-linecap="round" stroke-linejoin="round" stroke-width="1.5" d="
m60
410
.459
-24.629
.459
-90.075
.459
-48.57
.459
-9.813
.459
33.264
.459
3.826
.459
-7.506
.459
-28.063
.459
-22.421
.459
-37.776
.458
-38.611
.459
-49.257
.459
19.281
.459
36.01
.459
57.009
.459
-7.654
.459
-1.57
.459
-.539
.459
9.321
.459
9.273
.459
-28.504
.459
-3.876
.459
-27.131
.459
37.826
.459
15.405
.459
21.685
.459
-30.957
.459
-15.553
.459
-2.306
.459
-5.691
.459
-16.68
.458
-35.668
.459
-10.449
.459
22.862
.459
64.22
.459
53.33
.459
20.752
.459
-7.555
.459
-20.655
.459
-9.517
.459
-38.415
.459
-44.645
.459
-52.937
.459
-14.179
.459
28.946
.459
29.535
.459
25.413
.459
2.355
.459
12.02
.459
-8.536
.459
-20.459
.459
-35.471
.458
-29.976
L84.783
60
l.459
26.934
.459
35.324
.459
38.12
.459
-13.05
.459
-14.031
.459
-16.779
.459
-12.167
.459
2.11
.459
-.099
.459
.687
.459
-12.02
.459
29.977
.459
22.764
.459
27.278
.459
-2.257
.459
9.812
.459
19.772
.459
-3.042
.459
-16.975
.459
-23.599
.458
-16.876
.459
19.231
.459
21.047
.459
36.894
.459
15.798
.459
15.65
.459
-.785
.459
-24.923
.459
-22.322
.459
-23.991
.459
-1.766
.459
-8.242
.459
20.311
.459
24.04
.459
-4.858
.459
-2.354
.459
5.887
.459
35.912
.459
8.39
.459
-24.482
.459
-22.813
.458
-14.178
.459
-1.767
.459
28.946
.459
24.236
.459
16.289
.459
-21.293
.459
5.053
.459
2.306
.459
4.563
.459
-37.335
.459
-19.33
.459
-10.156
.459
25.708
.459
12.265
.459
7.506
.459
4.318
.459
2.845
.459
9.567
.459
.295
.459
-12.511
.459
-.049
.458
-8.095
.459
12.265
.459
13.541
.459
14.031
.459
6.624
.459
-7.997
.459
-.442
.459
1.374
.459
-7.752
.459
-41.505
.459
-22.617
.459
-15.455
.459
37.14
.459
6.721
.459
23.794
.459
-3.974
.459
18.889
.459
-15.749
.459
-4.955
.459
-23.598
.459
-14.571
.458
-7.114
.459
3.974
.459
30.172
.459
1.619
.459
7.752
.459
10.008
.459
-.147
.459
11.579
.459
-1.718
.459
18.595
.459
-4.71
.459
-9.665
.459
1.962
.459
-2.551
.459
-.491
.459
.098
.459
5.152
.459
17.073
.459
-7.604
.459
-7.801
.459
-6.623
.458
-3.189
.459
5.298
.459
-2.06
.459
10.303
.459
-.982
.459
-8.193
.459
-6.378
.459
3.827
.459
8.193
.459
.736
.459
3.827
.459
-9.273
.459
2.552
.459
-12.413
.459
7.654
.459
1.177
.459
20.9
.459
3.827
.459
5.004
.459
-20.949
.459
-7.604
.459
-4.857
.458
-1.767
.459
2.306
.459
-4.661
.459
5.986
.459
-16.534
.459
-8.095
.459
10.303
.459
17.907
.459
10.401
.459
4.808
.459
2.698
.459
14.768
.459
-10.254
.459
3.385
.459
-11.284
.459
4.023
.459
-7.8
.459
3.679
.459
-1.668
.459
3.827
.459
-5.691
.458
.245
.459
-4.317
.459
10.646
.459
-3.925
.459
4.563
.459
-6.035
.459
-6.819
.459
-2.846
.459
-5.691
.459
6.918
.459
7.8
.459
-6.917
.459
-2.208
.459
6.28
.459
12.069
.459
10.303
.459
-15.013
.459
7.654
.459
-6.771
.459
6.084
.459
-4.465
.458
-8.291
.459
-13.933
.459
-8.439
.459
19.183
.459
-1.374
.459
.147
.459
-13.982
.459
5.544
.459
7.555
.459
-.539
.459
9.517
.459
-10.057
.459
-.393
.459
-14.374
.459
.834
.459
-.148
.459
11.235
.459
-8.536
.459
-15.602
.459
-34.048
.459
4.661
.458
18.839
.459
32.381
.459
9.419
.459
8.341
.459
4.906
.459
.147
.459
1.177
.459
-.343
.459
-1.717
.459
-2.306
.459
-2.797
.459
-3.777
.459
-4.465
.459
3.336
.459
-12.167
.459
-14.276
.459
-15.258
.459
15.454
.459
7.506
.459
-.785
.459
-3.287
.458
-1.325
.459
10.548
.459
3.729
.459
15.013
.459
10.744
.459
12.069
.459
-5.936
.459
-.197
.459
-10.989
.459
-4.465
.459
3.091
.459
2.012
.459
5.053
.459
1.177
.459
2.846
.459
2.502
.459
1.325
.459
-.197
.459
-9.272
.459
-12.56
.459
2.993
.459
3.189
.458
9.665
.459
6.083
.459
6.82
.459
7.31
.459
9.42
.459
6.966
.459
-23.745
.459
-19.134
.459
-12.069
.459
6.82
.459
18.496
.459
8.929
.459
23.745
.459
-.147
.459
-3.876
.459
-6.133
.459
-16.288
.459
-7.31
.459
-30.123
.459
-15.798
.459
10.745
.458
24.236
.459
26.738
.459
-3.385
.459
1.717
.459
-6.525
.459
5.691
.459
-3.484
.459
-11.235
.459
-6.476
.459
-4.268
.459
21.636
.459
10.45
.459
14.767
.459
-5.495
.459
-2.747
.459
-10.941
.459
-5.838
.459
-9.665
.459
-6.181
.459
-1.178
.459
16.092
.458
12.363
.459
9.714
.459
-4.219
.459
5.74
.459
-2.845
.459
-9.714
.459
-13.983
.459
-17.514
.459
-13.394
.459
-5.004
.459
11.333
.459
19.673
.459
15.209
.459
7.212
.459
-3.189
.459
-7.016
.459
.687
.459
4.563
.459
-15.798
.459
-20.801
.459
-4.269
.458
25.316
.459
25.757
.459
12.118
.459
-5.937
.459
-2.257
.459
-6.721
.459
-10.204
.459
-25.905
.459
-13.589
.459
-4.416
.459
22.961
.459
12.755
.459
8.341
.459
-.54
.459
-1.423
.459
5.25
.459
-12.167
.459
.736
.459
-4.857
.459
12.608
.459
7.948
.458
4.661
.459
1.913
.459
2.159
.459
14.326
.459
1.57
.459
-24.089
.459
-23.353
.459
-23.108
.459
8.291
.459
15.7
.459
28.75
.459
4.17
.459
-.883
.459
.441
.459
8.684
.459
.392
.459
-1.619
.459
-8.046
.459
2.453
.459
-6.721
.459
9.469
.459
5.593
.458
13.099
.459
-.54
.459
-.343
.459
-3.189
.459
6.672
.459
-13.442
.459
-20.41
.459
-24.825
.459
1.57
.459
9.224
.459
18.692
.459
8.046
.459
10.107
.459
-6.967
.459
-7.359
.459
-11.284
.459
-1.03
.459
-2.355
.459
1.913
.459
-.687
.459
7.016
.458
1.668
.459
-2.453
.459
-11.186
.459
.147
.459
4.906
.459
17.073
.459
-3.287
.459
-4.366
.459
-6.084
.459
10.303
.459
16.485
.459
4.317
.459
-4.17
.459
-5.838
.459
5.691
.459
2.502
.459
1.717
.459
-3.483
.459
-2.552
.459
2.797
.459
-4.318
.458
-4.758
.459
.735
.459
11.383
.459
13.393
.459
-2.943
.459
-10.843
.459
-14.473
.459
-5.642
.459
8.635
.459
8.193
.459
-4.219
.459
-.246
.459
5.544
.459
7.997
.459
-7.948
.459
-3.09
.459
-4.22
.459
-7.261
.459
-10.793
.459
6.28
.459
12.02
.458
-1.178
.459
-8.634
.459
-7.262
.459
6.427
.459
-2.305
.459
-.049
.459
-.393
.459
3.778
.459
2.404
.459
-.393
.459
.196
.459
-6.034
.459
3.336
.459
5.789
.459
1.08
.459
8.487
.459
-4.023
.459
.687
.459
-4.906
.459
.54
.459
7.849
.458
2.012
.459
4.268
.459
8.782
.459
3.483
.459
-5.494
.459
-12.658
.459
-14.522
.459
-10.744
.459
-9.371
.459
8.438
.459
10.892
.459
17.466
.459
-9.813
.459
-9.763
.459
-2.943
.459
10.597
.459
3.581
.459
-9.125
.459
-27.818
.459
-1.128
.459
-2.061
.459
24.58
.458
9.518
.459
9.616
.459
9.076
.459
2.698
.459
-14.129
.459
-31.448
.459
-15.504
.459
-4.562
.459
18.054
.459
10.45
.459
18.3
.459
-.147
.459
-.148
.459
-7.604
.459
4.808
.459
-11.431
.459
-15.356
.459
-14.13
.459
7.752
.459
11.676
.459
9.469
.458
6.623
.459
-.981
.459
-5.74
.459
-15.454
.459
4.219
.459
-8.242
.459
-17.368
.459
-22.224
.459
7.899
.459
19.182
.459
9.371
.459
-.981
.459
7.997
.459
15.552
.459
5.642
.459
-2.257
.459
-10.842
.459
-10.303
.459
10.597
.459
8.88
.459
8.34
.458
-16.582
.459
.834
.459
8.635
.459
4.17
.459
-9.616
.459
-18.84
.459
2.159
.459
2.208
.459
18.103
.459
.393
.459
10.499
.459
1.128
.459
3.14
.459
-.687
.459
-4.513
.459
-1.374
.459
-13.737
.459
-.981
.459
2.649
.459
24.04
.459
6.672
.458
-2.257
.459
-2.845
.459
4.023
.459
6.427
.459
-13.05
.459
-8.488
.459
-.294
.459
2.256
.459
-.834
.459
6.82
.459
12.658
.459
-3.238
.459
-9.616
.459
-6.869
.459
-2.747
.459
-7.85
.459
-15.601
.459
-.638
.459
8.291
.459
38.12
.459
28.309
.458
18.299
.459
3.042
.459
.049
.459
-.245
.459
-.246
.459
-1.864
.459
-1.226
.459
-.54
.459
-.442
.459
-2.698
.459
-2.011
.459
-1.276
.459
-3.287
.459
-7.212
.459
-21.881
.459
-9.812
.459
-6.084
.459
11.088
.459
3.434
.459
.245
.459
-5.74
.458
-4.317
.459
-5.642
.459
-2.11
.459
-1.619
.459
-2.551
.459
4.072
.459
5.838
.459
3.827
.459
-3.434
.459
4.612
.459
6.181
.459
.785
.459
-2.404
.459
1.816
.459
2.6
.459
-2.846
.459
-9.076
.459
.442
.459
3.973
.459
5.152
.459
3.827
.459
-2.699
.458
7.065
.459
2.649
.459
6.574
.459
-3.09
.459
-1.521
.459
-9.763
.459
-11.137
.459
-1.766
.459
7.015
.459
2.846
.459
-.834
.459
-4.612
.459
5.789
.459
-5.004
.459
-.049
.459
-5.053
.459
7.114
.459
3.826
.459
3.876
.459
-4.219
.459
-8.095
.458
3.974
.459
1.226
.459
4.416
.459
-5.691
.459
-8.684
.459
-4.808
.459
-6.623
.459
11.823
.459
7.016
.459
7.801
.459
-3.042
.459
-1.962
.459
-2.061
.459
-4.661
.459
.687
.459
-5.102
.459
.147
.459
-3.827
.459
-.932
.459
6.82
.459
6.083
.458
16.043
.459
2.159
.459
-4.269
.459
-7.898
.459
-22.863
.459
-2.06
.459
-9.862
.459
22.47
.459
5.25
.459
11.529
.459
-9.665
.459
4.563
.459
-1.276
.459
4.268
.459
-8.585
.459
-8.39
.459
-12.559
.459
.245
.459
-2.06
.459
18.103
.459
-.638
.458
-3.14
.459
-9.468
.459
1.619
.459
5.74
.459
-3.974
.459
.981
.459
-7.703
.459
11.383
.459
-.491
.459
10.941
.459
-7.114
.459
-.246
.459
-3.434
.459
2.551
.459
-5.151
.459
-4.857
.459
-10.008
.459
-1.08
.459
9.076
.459
2.355
.459
4.906
.458
3.582
.459
11.774
.459
-5.151
.459
-1.717
.459
-4.563
.459
3.189
.459
-.883
.459
-1.962
.459
11.382
.459
9.125
.459
6.182
.459
-5.397
.459
-18.594
.459
-1.472
.459
.246
.459
13.001
.459
-16.534
.459
.344
.459
-1.227
.459
10.548
.459
-5.691
.459
5.593
.458
7.85
.459
7.85
.459
-1.374
.459
.441
.459
-5.691
.459
-14.473
.459
-4.513
.459
2.06
.459
3.385
.459
1.816
.459
-4.367
.459
10.745
.459
4.072
.459
7.457
.459
-3.631
.459
-5.494
.459
1.619
.459
5.494
.459
6.526
.459
-3.042
.459
-2.257
.458
-3.876
.459
-6.181
.459
-5.446
.459
5.446
.459
6.377
.459
.982
.459
-5.299
.459
1.079
.459
.049
.459
-.686
.459
-3.042
.459
2.208
.459
.196
.459
-4.416
.459
-8.242
.459
-16.337
.459
-2.895
.459
2.11
.459
17.711
.459
5.887
.459
1.815
.458
.933
.459
3.532
.459
6.525
.459
.049
.459
-4.415
.459
-3.042
.459
-9.224
.459
-1.324
.459
-10.156
.459
-1.962
.459
-9.027
.459
.588
.459
2.061
.459
-.785
.459
-2.453
.459
8.635
.459
7.653
.459
-5.495
.459
-3.336
.459
2.747
.459
11.824
.458
2.404
.459
8.193
.459
-23.549
.459
-24.138
.459
-31.448
.459
3.483
.459
5.397
.459
14.767
.459
3.925
.459
-6.132
.459
-.197
.459
14.817
.459
11.922
.459
-1.325
.459
-5.544
.459
-3.778
.459
4.907
.459
15.846
.459
8.242
.459
7.605
.459
-1.227
.458
4.955
.459
-4.268
.459
-6.427
.459
-6.132
.459
-7.163
.459
1.521
.459
5.543
.459
7.801
.459
4.072
.459
8.929
.459
9.322
.459
6.132
.459
-.932
.459
-5.544
.459
-.343
.459
-3.581
.459
3.238
.459
-2.503
.459
4.514
.459
-2.895
.459
1.276
.459
-8.537
.458
-.686
.459
-4.465
.459
7.408
.459
-3.483
.459
-2.797
.459
-4.17
.459
5.103
.459
3.09
.459
4.808
.459
-.343
.459
6.574
.459
.932
.459
1.423
.459
-.981
.459
-5.937
.459
-1.962
.459
-2.061
.459
4.71
.459
-.441
.459
-.638
.459
-3.925
.458
3.631
.459
-5.397
.459
-8.046
.459
-12.412
.459
-13.639
.459
9.812
.459
6.966
.459
14.915
.459
3.483
.459
-1.423
.459
-.588
.459
-6.673
.459
-5.102
.459
-21.881
.459
-.392
.459
10.646
.459
14.669
.459
2.747
.459
3.336
.459
7.948
.459
1.031
.458
-2.65
.459
-2.502
.459
-7.604
.459
-9.96
.459
-10.597
.459
9.616
.459
10.499
.459
14.817
.459
-1.276
.459
2.797
.459
5.592
.459
-.049
.459
.687
.459
-3.336
.459
1.913
.459
-1.569
.459
1.913
.459
4.563
.459
-1.718
.459
-4.219
.459
-5.838
.458
.736
.459
-4.219
.459
-2.601
.459
-4.121
.459
-.785
.459
8.978
.459
5.937
.459
6.476
.459
-2.012
.459
-.785
.459
2.65
.459
1.079
.459
.245
.459
-8.34
.459
-4.955
.459
3.532
.459
13.394
.459
4.317
.459
-6.181
.459
-4.956
.459
-7.997
.458
2.306
.459
-6.476
.459
-7.899
.459
-8.88
.459
-8.781
.459
5.004
.459
5.396
.459
14.228
.459
7.212
.459
-1.128
.459
1.177
.459
2.355
.459
-2.11
.459
-4.808
.459
-7.457
.459
6.329
.459
-.049
.459
9.91
.459
1.178
.459
.245
.459
-3.238
.459
-2.159
.458
3.729
.459
-4.268
.459
-2.944
.459
-2.6
.459
5.593
.459
1.423
.459
.392
.459
-3.434
.459
.294
.459
-1.472
.459
1.325
.459
-.932
.459
-3.385
.459
-7.654
.459
4.514
.459
7.751
.459
6.231
.459
-.442
.459
-.294
.459
3.336
.459
3.14
.458
.295
.459
2.992
.459
1.619
.459
3.091
.459
-4.415
.459
-2.257
.459
1.373
.459
-.981
.459
-11.48
.459
-5.2
.459
-4.759
.459
10.499
.459
2.109
.459
8.488
.459
-3.336
.459
-.589
.459
1.864
.459
2.601
.459
-2.159
.459
-3.974
.459
-1.668
.458
-3.729
.459
-6.083
.459
.49
.459
.883
.459
7.065
.459
-6.329
.459
3.533
.459
2.698
.459
7.899
.459
.049
.459
-3.385
.459
-3.435
.459
-6.672
.459
3.336
.459
-2.992
.459
6.819
.459
-3.189
.459
6.084
.459
2.207
.459
2.257
.459
-1.374
.458
-.392
.459
-7.555
.459
-3.337
.459
-14.963
.459
-3.14
.459
-2.159
.459
7.605
.459
4.759
.459
2.306
.459
-3.189
.459
-7.703
.459
.687
.459
1.128
.459
8.88
.459
3.827
.459
5.642
.459
2.355
.459
-2.698
.459
5.936
.459
-5.201
.459
1.031
.458
-3.336
.459
4.366
.459
-2.747
.459
1.913
.459
.393
.459
3.041
.459
-1.128
.459
-4.121
.459
-1.57
.459
-7.801
.459
2.895
.459
-1.031
.459
3.582
.459
-2.6
.459
-3.14
.459
-1.717
.459
2.306
.459
7.457
.459
1.962
.459
-.589
.459
-3.679
.458
.196
.459
-3.483
.459
-10.548
.459
-13.198
.459
-4.121
.459
10.401
.459
14.718
.459
10.009
.459
.245
.459
-2.698
.459
-.196
.459
2.747
.459
-4.563
.459
-7.359
.459
-.981
.459
4.366
.459
4.465
.459
-2.797
.459
2.404
.459
-3.924
.459
-7.654
.459
-.294
.458
3.63
.459
10.303
.459
1.864
.459
3.091
.459
4.367
.459
-7.065
.459
1.423
.459
-8.145
.459
1.816
.459
-5.201
.459
-5.936
.459
-1.521
.459
.932
.459
6.329
.459
-2.355
.459
1.913
.459
1.227
.459
2.159
.459
-.933
.459
-2.354
.459
-.491
.458
2.11
.459
3.189
.459
2.453
.459
-1.521
.459
-9.273
.459
4.906
.459
-7.31
.459
3.876
.459
.785
.459
8.88
.459
3.238
.459
-13.492
.459
-13.491
.459
-2.65
.459
3.68
.459
9.812
.459
-.147
.459
-2.699
.459
-4.415
.459
.196
.459
7.507
.458
6.966
.459
2.208
.459
3.238
.459
-2.944
.459
.834
.459
-1.815
.459
2.404
.459
-.834
.459
-4.906
.459
-3.336
.459
3.679
.459
9.862
.459
3.679
.459
-1.128
.459
-1.129
.459
3.729
.459
2.895
.459
-1.718
.459
.54
.459
-.294
.459
.785
.458
-4.17
.459
-1.619
.459
-3.435
.459
2.895
.459
-2.748
.459
6.28
.459
-7.899
.459
4.71
.459
-4.955
.459
10.156
.459
.883
.459
-4.072
.459
-3.876
.459
-4.121
.459
11.676
.459
1.717
.459
-1.766
.459
-2.551
.459
-.049
.459
9.223
h.459
l.458
3.876
.459
-4.366
.459
2.502
.459
-7.997
.459
-4.661
.459
-6.132
.459
7.408
.459
5.004
.459
5.691
.459
.295
.459
4.415
.459
-4.317
.459
-3.68
.459
-6.083
.459
6.279
.459
.932
.459
2.404
.459
-6.083
.459
3.532
.459
1.227
.459
5.298
.459
-6.034
.458
-4.023
.459
-2.159
.459
3.287
.459
3.287
.459
2.159
.459
1.815
.459
3.287
.459
2.159
.459
-.343
.459
-4.22
.459
.687
.459
.54
.459
4.71
.459
-1.57
.459
1.57
h.459
l.459
.932
.459
.441
.459
.589
.459
-.932
.459
-3.778
.458
-1.128
.459
-.245
.459
4.857
.459
-1.914
.459
-.392
.459
-3.925
.459
1.521
.459
-4.268
.459
1.324
.459
.245
.459
4.808
.459
-1.03
.459
-1.57
.459
1.766
.459
2.944
.459
2.257
.459
-.687
.459
-1.717
.459
-2.453
.459
-1.717
.459
-.246
.458
-.932
.459
-2.698
.459
-1.079
.459
1.03
.459
1.913
.459
2.699
.459
-.295
.459
-1.521
.459
-1.619
.459
-3.189
.459
-.736
.459
-1.324
.459
1.079
.459
3.827
.459
1.864
.459
4.17
.459
-2.502
.459
-6.23
.459
.098
.459
-2.11
.459
3.14
.458
-.932
.459
4.513
.459
3.778
.459
-.441
.459
-1.031
.459
-3.827
.459
-1.619
.459
-2.256
.459
.687
.459
3.532
.459
.098
.459
1.668
.459
-.834
.459
5.789
.459
.54
.459
-.393
.459
-3.238
.459
-1.864
.459
1.03
.459
-.049
.459
2.748
.458
-.246
.459
1.57
.459
-.441
.459
.098
.459
-2.208
.459
-.098
.459
-1.03
.459
-2.748
.459
-2.207
.459
-.098
.459
2.845
.459
-1.521
.459
-2.453
.459
1.472
.459
1.717
.459
.147
.459
-1.373
.459
1.52
.459
.884
.459
-3.14
.459
1.373
.459
3.14
.458
3.435
.459
-5.544
.459
-1.717
.459
-3.68
.459
2.159
.459
-.098
.459
-2.061
.459
-1.325
.459
.54
.459
3.238
.459
4.317
.459
-1.717
.459
5.74
.459
-1.324
.459
2.306
.459
-1.227
.459
-.245
.459
-.981
.459
-3.533
.459
-1.57
.459
-5.789
.458
1.864
.459
.982
.459
7.162
.459
-1.373
.459
-.147
.459
-5.642
.459
2.894
.459
.932
.459
1.521
.459
-3.287
.459
1.374
.459
.49
.459
1.031
.459
1.226
.459
2.208
.459
.392
.459
-4.562
.459
-.736
.459
.343
.459
2.797
.459
-2.355
.458
-3.827
.459
-1.619
.459
3.434
.459
.049
.459
.589
.459
-.49
.459
5.445
.459
.638
.459
.981
.459
-4.268
.459
-.442
.459
.54
.459
4.514
.459
-1.57
.459
.785
.459
-2.65
.459
1.276
.459
-1.766
.459
3.189
.459
3.287
.459
1.374
h.458
l.459
-1.325
.459
-1.913
.459
-.491
.459
.049
.459
1.619
.459
.098
.459
-1.325
.459
-4.415
.459
.393
.459
-1.08
.459
-1.472
.459
-9.812
.459
-4.464
.459
5.102
.459
8.242
.459
5.004
.459
-.196
.459
.491
.459
-.098
.459
-2.699
.458
-4.268
.459
.245
.459
3.238
.459
5.888
.459
.539
.459
-4.415
.459
-2.306
.459
.392
.459
3.288
.459
-.099
.459
-2.747
.459
-.589
.459
-4.023
.459
4.661
.459
3.14
.459
4.955
.459
-2.159
.459
.246
.459
-4.955
.459
.245
.459
-4.906
.459
.785
.458
2.158
.459
4.808
.459
5.348
.459
-.834
.459
-1.03
.459
-.932
.459
.392
.459
-2.502
.459
-.491
.459
-1.324
.459
2.992
.459
1.668
.459
1.374
.459
.638
.459
.049
.459
.196
.459
-2.306
.459
-3.581
.459
-8.782
.459
-6.917
.459
-1.374
.458
7.604
.459
9.371
.459
1.668
.459
-2.159
.459
-2.355
.459
.393
.459
-4.268
.459
-4.023
.459
-.344
.459
1.717
.459
3.336
.459
1.57
.459
3.336
.459
1.472
.459
-2.404
.459
-2.109
.459
-.589
.459
3.581
.459
-.098
.459
-2.404
.459
-5.691
.458
3.091
.459
4.366
.459
5.937
.459
.196
.459
-2.257
.459
-.932
.459
1.03
.459
1.08
.459
1.177
.459
-1.815
.459
-1.374
.459
-4.121
.459
1.668
.459
1.178
.459
2.502
.459
-.834
.459
-2.061
.459
-1.374
.459
-2.551
.459
1.227
.459
2.355
.458
2.6
.459
.343
.459
-2.404
.459
.884
.459
.343
.459
-.54
.459
-3.385
.459
1.325
.459
1.275
.459
2.208
.459
-1.325
.459
1.472
h.459
l.459
1.57
.459
.883
.459
-.245
.459
.147
.459
-1.913
.459
-.54
h.459
l.459
.785
.458
1.325
.459
-2.257
.459
-1.472
.459
-1.864
.459
1.668
.459
1.177
.459
2.846
.459
-.393
.459
.098
.459
-4.513
.459
.638
.459
-.982
.459
2.699
.459
-.491
.459
-.245
.459
-.393
.459
-2.256
.459
-1.325
.459
-1.521
.459
.245
.459
-.686
.459
3.287
.458
1.177
.459
3.581
.459
-.343
.459
1.325
.459
1.079
.459
.785
.459
-1.226
.459
-1.374
.459
-.442
.459
.098
.459
-1.275
.459
-.295
.459
-2.354
.459
1.471
.459
-.245
.459
2.6
.459
-.736
.459
.491
.459
.049
.459
-2.159
.459
-.441
.458
-1.178
.459
1.57
.459
1.031
.459
1.128
.459
.491
.459
-2.012
.459
.883
.459
-1.815
.459
.049
.459
-.736
.459
2.551
.459
-1.864
.459
-.54
.459
-.834
.459
2.649
.459
.393
.459
-1.913
.459
1.275
.459
1.227
.459
.687
.459
-5.544
.458
-2.895
.459
3.042
.459
5.446
.459
2.747
.459
-1.03
.459
-.932
.459
-1.472
.459
-3.238
.459
-1.963
.459
-.785
.459
3.336" aria-label="line"/>
</svg>
