<svg class="plot-d6a7b5" fill="currentColor" font-family="system-ui, sans-serif" font-size="10" text-anchor="middle" width="830" height="470" viewBox="0 0 830 470" xmlns="http://www.w3.org/2000/svg" xmlns:xlink="http://www.w3.org/1999/xlink" color="#1e90ff"><style>:where(.plot-d6a7b5){--plot-background: white;display:block;height:intrinsic;max-width:100%}:where(.plot-d6a7b5 text),:where(.plot-d6a7b5 tspan){white-space:pre}</style><g aria-label="y-grid" stroke="currentColor" stroke-opacity=".1"><line x1="60" x2="770" y1="410" y2="410"/><line x1="60" x2="770" y1="360.939" y2="360.939"/><line x1="60" x2="770" y1="311.878" y2="311.878"/><line x1="60" x2="770" y1="262.817" y2="262.817"/><line x1="60" x2="770" y1="213.757" y2="213.757"/><line x1="60" x2="770" y1="164.696" y2="164.696"/><line x1="60" x2="770" y1="115.635" y2="115.635"/><line x1="60" x2="770" y1="66.574" y2="66.574"/></g><g aria-label="y-axis tick" fill="none" stroke="currentColor"><path transform="translate(60,410)" d="M0,0L-6,0"/><path transform="translate(60,360.9391645640594)" d="M0,0L-6,0"/><path transform="translate(60,311.8783291281189)" d="M0,0L-6,0"/><path transform="translate(60,262.8174936921783)" d="M0,0L-6,0"/><path transform="translate(60,213.7566582562377)" d="M0,0L-6,0"/><path transform="translate(60,164.69582282029717)" d="M0,0L-6,0"/><path transform="translate(60,115.6349873843566)" d="M0,0L-6,0"/><path transform="translate(60,66.57415194841604)" d="M0,0L-6,0"/></g><g aria-label="y-axis tick label" text-anchor="end" font-variant="tabular-nums"><text y=".32em" transform="translate(-9,0) translate(60,410)">0</text><text y=".32em" transform="translate(-9,0) translate(60,360.9391645640594)">1,000</text><text y=".32em" transform="translate(-9,0) translate(60,311.8783291281189)">2,000</text><text y=".32em" transform="translate(-9,0) translate(60,262.8174936921783)">3,000</text><text y=".32em" transform="translate(-9,0) translate(60,213.7566582562377)">4,000</text><text y=".32em" transform="translate(-9,0) translate(60,164.69582282029717)">5,000</text><text y=".32em" transform="translate(-9,0) translate(60,115.6349873843566)">6,000</text><text y=".32em" transform="translate(-9,0) translate(60,66.57415194841604)">7,000</text></g><g aria-label="y-axis label" text-anchor="start"><text y=".71em" transform="translate(-57,-57) translate(60,60)">↑ Visible Vestiges (4 days)</text></g><g aria-label="x-axis tick" fill="none" stroke="currentColor"><path transform="translate(66.05113636363636,410)" d="M0,0L0,6"/><path transform="translate(128.57954545454544,410)" d="M0,0L0,6"/><path transform="translate(189.0909090909091,410)" d="M0,0L0,6"/><path transform="translate(251.6193181818182,410)" d="M0,0L0,6"/><path transform="translate(312.1306818181818,410)" d="M0,0L0,6"/><path transform="translate(374.65909090909093,410)" d="M0,0L0,6"/><path transform="translate(437.1875,410)" d="M0,0L0,6"/><path transform="translate(497.6988636363636,410)" d="M0,0L0,6"/><path transform="translate(560.2272727272727,410)" d="M0,0L0,6"/><path transform="translate(620.7386363636364,410)" d="M0,0L0,6"/><path transform="translate(683.2670454545455,410)" d="M0,0L0,6"/><path transform="translate(745.7954545454545,410)" d="M0,0L0,6"/></g><g aria-label="x-axis tick label" font-variant="tabular-nums"><text transform="translate(0,9) translate(66.05113636363636,410)"><tspan x="0" y=".71em">Mar</tspan><tspan x="0" dy="1em">2023</tspan></text><text y=".71em" transform="translate(0,9) translate(128.57954545454544,410)">Apr</text><text y=".71em" transform="translate(0,9) translate(189.0909090909091,410)">May</text><text y=".71em" transform="translate(0,9) translate(251.6193181818182,410)">Jun</text><text y=".71em" transform="translate(0,9) translate(312.1306818181818,410)">Jul</text><text y=".71em" transform="translate(0,9) translate(374.65909090909093,410)">Aug</text><text y=".71em" transform="translate(0,9) translate(437.1875,410)">Sep</text><text y=".71em" transform="translate(0,9) translate(497.6988636363636,410)">Oct</text><text y=".71em" transform="translate(0,9) translate(560.2272727272727,410)">Nov</text><text y=".71em" transform="translate(0,9) translate(620.7386363636364,410)">Dec</text><text transform="translate(0,9) translate(683.2670454545455,410)"><tspan x="0" y=".71em">Jan</tspan><tspan x="0" dy="1em">2024</tspan></text><text y=".71em" transform="translate(0,9) translate(745.7954545454545,410)">Feb</text></g><g aria-label="line" fill="none" stroke="currentColor" stroke-width="1.5" stroke-linejoin="round" stroke-linecap="round"><path d="M60,410L61.345,385.371L62.689,295.296L64.034,246.726L65.379,236.913L66.723,270.177L68.068,274.003L69.413,266.497L70.758,238.434L72.102,216.013L73.447,178.237L74.792,139.626L76.136,90.369L77.481,109.65L78.826,145.66L80.17,202.669L81.515,195.015L82.86,193.445L84.205,192.906L85.549,202.227L86.894,211.5L88.239,182.996L89.583,179.12L90.928,151.989L92.273,189.815L93.617,205.22L94.962,226.905L96.307,195.948L97.652,180.395L98.996,178.089L100.341,172.398L101.686,155.718L103.03,120.05L104.375,109.601L105.72,132.463L107.064,196.683L108.409,250.013L109.754,270.765L111.098,263.21L112.443,242.555L113.788,233.038L115.133,194.623L116.477,149.978L117.822,97.041L119.167,82.862L120.511,111.808L121.856,141.343L123.201,166.756L124.545,169.111L125.89,181.131L127.235,172.595L128.58,152.136L129.924,116.665L131.269,86.689L132.614,60L133.958,86.934L135.303,122.258L136.648,160.378L137.992,147.328L139.337,133.297L140.682,116.518L142.027,104.351L143.371,106.461L144.716,106.362L146.061,107.049L147.405,95.029L148.75,125.006L150.095,147.77L151.439,175.048L152.784,172.791L154.129,182.603L155.473,202.375L156.818,199.333L158.163,182.358L159.508,158.759L160.852,141.883L162.197,161.114L163.542,182.161L164.886,219.055L166.231,234.853L167.576,250.503L168.92,249.718L170.265,224.795L171.61,202.473L172.955,178.482L174.299,176.716L175.644,168.474L176.989,188.785L178.333,212.825L179.678,207.967L181.023,205.613L182.367,211.5L183.712,247.412L185.057,255.802L186.402,231.32L187.746,208.507L189.091,194.329L190.436,192.562L191.78,221.508L193.125,245.744L194.47,262.033L195.814,240.74L197.159,245.793L198.504,248.099L199.848,252.662L201.193,215.327L202.538,195.997L203.883,185.841L205.227,211.549L206.572,223.814L207.917,231.32L209.261,235.638L210.606,238.483L211.951,248.05L213.295,248.345L214.64,235.834L215.985,235.785L217.33,227.69L218.674,239.955L220.019,253.496L221.364,267.527L222.708,274.151L224.053,266.154L225.398,265.712L226.742,267.086L228.087,259.334L229.432,217.829L230.777,195.212L232.121,179.757L233.466,216.897L234.811,223.618L236.155,247.412L237.5,243.438L238.845,262.327L240.189,246.578L241.534,241.623L242.879,218.025L244.223,203.454L245.568,196.34L246.913,200.314L248.258,230.486L249.602,232.105L250.947,239.857L252.292,249.865L253.636,249.718L254.981,261.297L256.326,259.579L257.67,278.174L259.015,273.464L260.36,263.799L261.705,265.761L263.049,263.21L264.394,262.719L265.739,262.817L267.083,267.969L268.428,285.042L269.773,277.438L271.117,269.637L272.462,263.014L273.807,259.825L275.152,265.123L276.496,263.063L277.841,273.366L279.186,272.384L280.53,264.191L281.875,257.813L283.22,261.64L284.564,269.833L285.909,270.569L287.254,274.396L288.598,265.123L289.943,267.675L291.288,255.262L292.633,262.916L293.977,264.093L295.322,284.993L296.667,288.82L298.011,293.824L299.356,272.875L300.701,265.271L302.045,260.414L303.39,258.647L304.735,260.953L306.08,256.292L307.424,262.278L308.769,245.744L310.114,237.649L311.458,247.952L312.803,265.859L314.148,276.26L315.492,281.068L316.837,283.766L318.182,298.534L319.527,288.28L320.871,291.665L322.216,280.381L323.561,284.404L324.905,276.604L326.25,280.283L327.595,278.615L328.939,282.442L330.284,276.751L331.629,276.996L332.973,272.679L334.318,283.325L335.663,279.4L337.008,283.963L338.352,277.928L339.697,271.109L341.042,268.263L342.386,262.572L343.731,269.49L345.076,277.29L346.42,270.373L347.765,268.165L349.11,274.445L350.455,286.514L351.799,296.817L353.144,281.804L354.489,289.458L355.833,282.687L357.178,288.771L358.523,284.306L359.867,276.015L361.212,262.082L362.557,253.643L363.902,272.826L365.246,271.452L366.591,271.599L367.936,257.617L369.28,263.161L370.625,270.716L371.97,270.177L373.314,279.694L374.659,269.637L376.004,269.244L377.348,254.87L378.693,255.704L380.038,255.556L381.383,266.791L382.727,258.255L384.072,242.653L385.417,208.605L386.761,213.266L388.106,232.105L389.451,264.486L390.795,273.905L392.14,282.246L393.485,287.152L394.83,287.299L396.174,288.476L397.519,288.133L398.864,286.416L400.208,284.11L401.553,281.313L402.898,277.536L404.242,273.071L405.587,276.407L406.932,264.24L408.277,249.964L409.621,234.706L410.966,250.16L412.311,257.666L413.655,256.881L415,253.594L416.345,252.269L417.689,262.817L419.034,266.546L420.379,281.559L421.723,292.303L423.068,304.372L424.413,298.436L425.758,298.239L427.102,287.25L428.447,282.785L429.792,285.876L431.136,287.888L432.481,292.941L433.826,294.118L435.17,296.964L436.515,299.466L437.86,300.791L439.205,300.594L440.549,291.322L441.894,278.762L443.239,281.755L444.583,284.944L445.928,294.609L447.273,300.692L448.617,307.512L449.962,314.822L451.307,324.242L452.652,331.208L453.996,307.463L455.341,288.329L456.686,276.26L458.03,283.08L459.375,301.576L460.72,310.505L462.064,334.25L463.409,334.103L464.754,330.227L466.098,324.094L467.443,307.806L468.788,300.496L470.133,270.373L471.477,254.575L472.822,265.32L474.167,289.556L475.511,316.294L476.856,312.909L478.201,314.626L479.545,308.101L480.89,313.792L482.235,310.308L483.58,299.073L484.924,292.597L486.269,288.329L487.614,309.965L488.958,320.415L490.303,335.182L491.648,329.687L492.992,326.94L494.337,315.999L495.682,310.161L497.027,300.496L498.371,294.315L499.716,293.137L501.061,309.229L502.405,321.592L503.75,331.306L505.095,327.087L506.439,332.827L507.784,329.982L509.129,320.268L510.473,306.285L511.818,288.771L513.163,275.377L514.508,270.373L515.852,281.706L517.197,301.379L518.542,316.588L519.886,323.8L521.231,320.611L522.576,313.595L523.92,314.282L525.265,318.845L526.61,303.047L527.955,282.246L529.299,277.977L530.644,303.293L531.989,329.05L533.333,341.168L534.678,335.231L536.023,332.974L537.367,326.253L538.712,316.049L540.057,290.144L541.402,276.555L542.746,272.139L544.091,295.1L545.436,307.855L546.78,316.196L548.125,315.656L549.47,314.233L550.814,319.483L552.159,307.316L553.504,308.052L554.848,303.195L556.193,315.803L557.538,323.751L558.883,328.412L560.227,330.325L561.572,332.484L562.917,346.81L564.261,348.38L565.606,324.291L566.951,300.938L568.295,277.83L569.64,286.121L570.985,301.821L572.33,330.571L573.674,334.741L575.019,333.858L576.364,334.299L577.708,342.983L579.053,343.375L580.398,341.756L581.742,333.71L583.087,336.163L584.432,329.442L585.777,338.911L587.121,344.504L588.466,357.603L589.811,357.063L591.155,356.72L592.5,353.531L593.845,360.203L595.189,346.761L596.534,326.351L597.879,301.526L599.223,303.096L600.568,312.32L601.913,331.012L603.258,339.058L604.602,349.165L605.947,342.198L607.292,334.839L608.636,323.555L609.981,322.525L611.326,320.17L612.67,322.083L614.015,321.396L615.36,328.412L616.705,330.08L618.049,327.627L619.394,316.441L620.739,316.588L622.083,321.494L623.428,338.567L624.773,335.28L626.117,330.914L627.462,324.83L628.807,335.133L630.152,351.618L631.496,355.935L632.841,351.765L634.186,345.927L635.53,351.618L636.875,354.12L638.22,355.837L639.564,352.354L640.909,349.802L642.254,352.599L643.598,348.281L644.943,343.523L646.288,344.258L647.633,355.641L648.977,369.034L650.322,366.091L651.667,355.248L653.011,340.775L654.356,335.133L655.701,343.768L657.045,351.961L658.39,347.742L659.735,347.496L661.08,353.04L662.424,361.037L663.769,353.089L665.114,349.999L666.458,345.779L667.803,338.518L669.148,327.725L670.492,334.005L671.837,346.025L673.182,344.847L674.527,336.213L675.871,328.951L677.216,335.378L678.561,333.073L679.905,333.024L681.25,332.631L682.595,336.409L683.939,338.813L685.284,338.42L686.629,338.616L687.973,332.582L689.318,335.918L690.663,341.707L692.008,342.787L693.352,351.274L694.697,347.251L696.042,347.938L697.386,343.032L698.731,343.572L700.076,351.421L701.42,353.433L702.765,357.701L704.11,366.483L705.455,369.966L706.799,364.472L708.144,351.814L709.489,337.292L710.833,326.548L712.178,317.177L713.523,325.615L714.867,336.507L716.212,353.973L717.557,344.16L718.902,334.397L720.246,331.454L721.591,342.051L722.936,345.632L724.28,336.507L725.625,308.689L726.97,307.561L728.314,305.5L729.659,330.08L731.004,339.598L732.348,349.214L733.693,358.29L735.038,360.988L736.383,346.859L737.727,315.411L739.072,299.907L740.417,295.345L741.761,313.399L743.106,323.849L744.451,342.149L745.795,342.002L747.14,341.854L748.485,334.25L749.83,339.058L751.174,327.627L752.519,312.271L753.864,298.141L755.208,305.893L756.553,317.569L757.898,327.038L759.242,333.661L760.587,332.68L761.932,326.94L763.277,311.486L764.621,315.705L765.966,307.463L767.311,290.095L768.655,267.871L770,275.77"/></g></svg>