<svg class="plot-d6a7b5" fill="currentColor" font-family="system-ui, sans-serif" font-size="10" text-anchor="middle" width="830" height="470" viewBox="0 0 830 470" xmlns="http://www.w3.org/2000/svg" xmlns:xlink="http://www.w3.org/1999/xlink" color="#1e90ff"><style>:where(.plot-d6a7b5){--plot-background: white;display:block;height:intrinsic;max-width:100%}:where(.plot-d6a7b5 text),:where(.plot-d6a7b5 tspan){white-space:pre}</style><g aria-label="y-grid" stroke="currentColor" stroke-opacity=".1"><line x1="60" x2="770" y1="410" y2="410"/><line x1="60" x2="770" y1="360.939" y2="360.939"/><line x1="60" x2="770" y1="311.878" y2="311.878"/><line x1="60" x2="770" y1="262.817" y2="262.817"/><line x1="60" x2="770" y1="213.757" y2="213.757"/><line x1="60" x2="770" y1="164.696" y2="164.696"/><line x1="60" x2="770" y1="115.635" y2="115.635"/><line x1="60" x2="770" y1="66.574" y2="66.574"/></g><g aria-label="y-axis tick" fill="none" stroke="currentColor"><path transform="translate(60,410)" d="M0,0L-6,0"/><path transform="translate(60,360.9391645640594)" d="M0,0L-6,0"/><path transform="translate(60,311.8783291281189)" d="M0,0L-6,0"/><path transform="translate(60,262.8174936921783)" d="M0,0L-6,0"/><path transform="translate(60,213.7566582562377)" d="M0,0L-6,0"/><path transform="translate(60,164.69582282029717)" d="M0,0L-6,0"/><path transform="translate(60,115.6349873843566)" d="M0,0L-6,0"/><path transform="translate(60,66.57415194841604)" d="M0,0L-6,0"/></g><g aria-label="y-axis tick label" text-anchor="end" font-variant="tabular-nums"><text y=".32em" transform="translate(-9,0) translate(60,410)">0</text><text y=".32em" transform="translate(-9,0) translate(60,360.9391645640594)">1,000</text><text y=".32em" transform="translate(-9,0) translate(60,311.8783291281189)">2,000</text><text y=".32em" transform="translate(-9,0) translate(60,262.8174936921783)">3,000</text><text y=".32em" transform="translate(-9,0) translate(60,213.7566582562377)">4,000</text><text y=".32em" transform="translate(-9,0) translate(60,164.69582282029717)">5,000</text><text y=".32em" transform="translate(-9,0) translate(60,115.6349873843566)">6,000</text><text y=".32em" transform="translate(-9,0) translate(60,66.57415194841604)">7,000</text></g><g aria-label="y-axis label" text-anchor="start"><text y=".71em" transform="translate(-57,-57) translate(60,60)">↑ Visible Vestiges (4 days)</text></g><g aria-label="x-axis tick" fill="none" stroke="currentColor"><path transform="translate(101.76470588235294,410)" d="M0,0L0,6"/><path transform="translate(213.54671280276818,410)" d="M0,0L0,6"/><path transform="translate(326.5570934256055,410)" d="M0,0L0,6"/><path transform="translate(439.5674740484429,410)" d="M0,0L0,6"/><path transform="translate(551.3494809688581,410)" d="M0,0L0,6"/><path transform="translate(663.1314878892734,410)" d="M0,0L0,6"/></g><g aria-label="x-axis tick label" font-variant="tabular-nums"><text transform="translate(0,9) translate(101.76470588235294,410)"><tspan x="0" y=".71em">Apr</tspan><tspan x="0" dy="1em">2023</tspan></text><text y=".71em" transform="translate(0,9) translate(213.54671280276818,410)">Jul</text><text y=".71em" transform="translate(0,9) translate(326.5570934256055,410)">Oct</text><text transform="translate(0,9) translate(439.5674740484429,410)"><tspan x="0" y=".71em">Jan</tspan><tspan x="0" dy="1em">2024</tspan></text><text y=".71em" transform="translate(0,9) translate(551.3494809688581,410)">Apr</text><text y=".71em" transform="translate(0,9) translate(663.1314878892734,410)">Jul</text></g><g aria-label="line" fill="none" stroke="currentColor" stroke-width="1.5" stroke-linejoin="round" stroke-linecap="round"><path d="M60,410L60.819,385.371L61.638,295.296L62.457,246.726L63.276,236.913L64.095,270.177L64.913,274.003L65.732,266.497L66.551,238.434L67.37,216.013L68.189,178.237L69.008,139.626L69.827,90.369L70.646,109.65L71.465,145.66L72.284,202.669L73.103,195.015L73.922,193.445L74.74,192.906L75.559,202.227L76.378,211.5L77.197,182.996L78.016,179.12L78.835,151.989L79.654,189.815L80.473,205.22L81.292,226.905L82.111,195.948L82.93,180.395L83.749,178.089L84.567,172.398L85.386,155.718L86.205,120.05L87.024,109.601L87.843,132.463L88.662,196.683L89.481,250.013L90.3,270.765L91.119,263.21L91.938,242.555L92.757,233.038L93.576,194.623L94.394,149.978L95.213,97.041L96.032,82.862L96.851,111.808L97.67,141.343L98.489,166.756L99.308,169.111L100.127,181.131L100.946,172.595L101.765,152.136L102.584,116.665L103.403,86.689L104.221,60L105.04,86.934L105.859,122.258L106.678,160.378L107.497,147.328L108.316,133.297L109.135,116.518L109.954,104.351L110.773,106.461L111.592,106.362L112.411,107.049L113.23,95.029L114.048,125.006L114.867,147.77L115.686,175.048L116.505,172.791L117.324,182.603L118.143,202.375L118.962,199.333L119.781,182.358L120.6,158.759L121.419,141.883L122.238,161.114L123.057,182.161L123.875,219.055L124.694,234.853L125.513,250.503L126.332,249.718L127.151,224.795L127.97,202.473L128.789,178.482L129.608,176.716L130.427,168.474L131.246,188.785L132.065,212.825L132.884,207.967L133.702,205.613L134.521,211.5L135.34,247.412L136.159,255.802L136.978,231.32L137.797,208.507L138.616,194.329L139.435,192.562L140.254,221.508L141.073,245.744L141.892,262.033L142.71,240.74L143.529,245.793L144.348,248.099L145.167,252.662L145.986,215.327L146.805,195.997L147.624,185.841L148.443,211.549L149.262,223.814L150.081,231.32L150.9,235.638L151.719,238.483L152.537,248.05L153.356,248.345L154.175,235.834L154.994,235.785L155.813,227.69L156.632,239.955L157.451,253.496L158.27,267.527L159.089,274.151L159.908,266.154L160.727,265.712L161.546,267.086L162.364,259.334L163.183,217.829L164.002,195.212L164.821,179.757L165.64,216.897L166.459,223.618L167.278,247.412L168.097,243.438L168.916,262.327L169.735,246.578L170.554,241.623L171.373,218.025L172.191,203.454L173.01,196.34L173.829,200.314L174.648,230.486L175.467,232.105L176.286,239.857L177.105,249.865L177.924,249.718L178.743,261.297L179.562,259.579L180.381,278.174L181.2,273.464L182.018,263.799L182.837,265.761L183.656,263.21L184.475,262.719L185.294,262.817L186.113,267.969L186.932,285.042L187.751,277.438L188.57,269.637L189.389,263.014L190.208,259.825L191.027,265.123L191.845,263.063L192.664,273.366L193.483,272.384L194.302,264.191L195.121,257.813L195.94,261.64L196.759,269.833L197.578,270.569L198.397,274.396L199.216,265.123L200.035,267.675L200.854,255.262L201.672,262.916L202.491,264.093L203.31,284.993L204.129,288.82L204.948,293.824L205.767,272.875L206.586,265.271L207.405,260.414L208.224,258.647L209.043,260.953L209.862,256.292L210.681,262.278L211.499,245.744L212.318,237.649L213.137,247.952L213.956,265.859L214.775,276.26L215.594,281.068L216.413,283.766L217.232,298.534L218.051,288.28L218.87,291.665L219.689,280.381L220.507,284.404L221.326,276.604L222.145,280.283L222.964,278.615L223.783,282.442L224.602,276.751L225.421,276.996L226.24,272.679L227.059,283.325L227.878,279.4L228.697,283.963L229.516,277.928L230.334,271.109L231.153,268.263L231.972,262.572L232.791,269.49L233.61,277.29L234.429,270.373L235.248,268.165L236.067,274.445L236.886,286.514L237.705,296.817L238.524,281.804L239.343,289.458L240.161,282.687L240.98,288.771L241.799,284.306L242.618,276.015L243.437,262.082L244.256,253.643L245.075,272.826L245.894,271.452L246.713,271.599L247.532,257.617L248.351,263.161L249.17,270.716L249.988,270.177L250.807,279.694L251.626,269.637L252.445,269.244L253.264,254.87L254.083,255.704L254.902,255.556L255.721,266.791L256.54,258.255L257.359,242.653L258.178,208.605L258.997,213.266L259.815,232.105L260.634,264.486L261.453,273.905L262.272,282.246L263.091,287.152L263.91,287.299L264.729,288.476L265.548,288.133L266.367,286.416L267.186,284.11L268.005,281.313L268.824,277.536L269.642,273.071L270.461,276.407L271.28,264.24L272.099,249.964L272.918,234.706L273.737,250.16L274.556,257.666L275.375,256.881L276.194,253.594L277.013,252.269L277.832,262.817L278.651,266.546L279.469,281.559L280.288,292.303L281.107,304.372L281.926,298.436L282.745,298.239L283.564,287.25L284.383,282.785L285.202,285.876L286.021,287.888L286.84,292.941L287.659,294.118L288.478,296.964L289.296,299.466L290.115,300.791L290.934,300.594L291.753,291.322L292.572,278.762L293.391,281.755L294.21,284.944L295.029,294.609L295.848,300.692L296.667,307.512L297.486,314.822L298.304,324.242L299.123,331.208L299.942,307.463L300.761,288.329L301.58,276.26L302.399,283.08L303.218,301.576L304.037,310.505L304.856,334.25L305.675,334.103L306.494,330.227L307.313,324.094L308.131,307.806L308.95,300.496L309.769,270.373L310.588,254.575L311.407,265.32L312.226,289.556L313.045,316.294L313.864,312.909L314.683,314.626L315.502,308.101L316.321,313.792L317.14,310.308L317.958,299.073L318.777,292.597L319.596,288.329L320.415,309.965L321.234,320.415L322.053,335.182L322.872,329.687L323.691,326.94L324.51,315.999L325.329,310.161L326.148,300.496L326.967,294.315L327.785,293.137L328.604,309.229L329.423,321.592L330.242,331.306L331.061,327.087L331.88,332.827L332.699,329.982L333.518,320.268L334.337,306.285L335.156,288.771L335.975,275.377L336.794,270.373L337.612,281.706L338.431,301.379L339.25,316.588L340.069,323.8L340.888,320.611L341.707,313.595L342.526,314.282L343.345,318.845L344.164,303.047L344.983,282.246L345.802,277.977L346.621,303.293L347.439,329.05L348.258,341.168L349.077,335.231L349.896,332.974L350.715,326.253L351.534,316.049L352.353,290.144L353.172,276.555L353.991,272.139L354.81,295.1L355.629,307.855L356.448,316.196L357.266,315.656L358.085,314.233L358.904,319.483L359.723,307.316L360.542,308.052L361.361,303.195L362.18,315.803L362.999,323.751L363.818,328.412L364.637,330.325L365.456,332.484L366.275,346.81L367.093,348.38L367.912,324.291L368.731,300.938L369.55,277.83L370.369,286.121L371.188,301.821L372.007,330.571L372.826,334.741L373.645,333.858L374.464,334.299L375.283,342.983L376.101,343.375L376.92,341.756L377.739,333.71L378.558,336.163L379.377,329.442L380.196,338.911L381.015,344.504L381.834,357.603L382.653,357.063L383.472,356.72L384.291,353.531L385.11,360.203L385.928,346.761L386.747,326.351L387.566,301.526L388.385,303.096L389.204,312.32L390.023,331.012L390.842,339.058L391.661,349.165L392.48,342.198L393.299,334.839L394.118,323.555L394.937,322.525L395.755,320.17L396.574,322.083L397.393,321.396L398.212,328.412L399.031,330.08L399.85,327.627L400.669,316.441L401.488,316.588L402.307,321.494L403.126,338.567L403.945,335.28L404.764,330.914L405.582,324.83L406.401,335.133L407.22,351.618L408.039,355.935L408.858,351.765L409.677,345.927L410.496,351.618L411.315,354.12L412.134,355.837L412.953,352.354L413.772,349.802L414.591,352.599L415.409,348.281L416.228,343.523L417.047,344.258L417.866,355.641L418.685,369.034L419.504,366.091L420.323,355.248L421.142,340.775L421.961,335.133L422.78,343.768L423.599,351.961L424.418,347.742L425.236,347.496L426.055,353.04L426.874,361.037L427.693,353.089L428.512,349.999L429.331,345.779L430.15,338.518L430.969,327.725L431.788,334.005L432.607,346.025L433.426,344.847L434.245,336.213L435.063,328.951L435.882,335.378L436.701,333.073L437.52,333.024L438.339,332.631L439.158,336.409L439.977,338.813L440.796,338.42L441.615,338.616L442.434,332.582L443.253,335.918L444.072,341.707L444.89,342.787L445.709,351.274L446.528,347.251L447.347,347.938L448.166,343.032L448.985,343.572L449.804,351.421L450.623,353.433L451.442,357.701L452.261,366.483L453.08,369.966L453.899,364.472L454.717,351.814L455.536,337.292L456.355,326.548L457.174,317.177L457.993,325.615L458.812,336.507L459.631,353.973L460.45,344.16L461.269,334.397L462.088,331.454L462.907,342.051L463.725,345.632L464.544,336.507L465.363,308.689L466.182,307.561L467.001,305.5L467.82,330.08L468.639,339.598L469.458,349.214L470.277,358.29L471.096,360.988L471.915,346.859L472.734,315.411L473.552,299.907L474.371,295.345L475.19,313.399L476.009,323.849L476.828,342.149L477.647,342.002L478.466,341.854L479.285,334.25L480.104,339.058L480.923,327.627L481.742,312.271L482.561,298.141L483.379,305.893L484.198,317.569L485.017,327.038L485.836,333.661L486.655,332.68L487.474,326.94L488.293,311.486L489.112,315.705L489.931,307.463L490.75,290.095L491.569,267.871L492.388,275.77L493.206,294.952L494.025,304.323L494.844,303.342L495.663,311.339L496.482,326.891L497.301,332.533L498.12,330.276L498.939,319.434L499.758,309.131L500.577,319.728L501.396,328.608L502.215,336.948L503.033,320.366L503.852,321.2L504.671,329.835L505.49,334.005L506.309,324.389L507.128,305.549L507.947,307.708L508.766,309.916L509.585,328.019L510.404,328.412L511.223,338.911L512.042,340.039L512.86,343.179L513.679,342.492L514.498,337.979L515.317,336.605L516.136,322.868L516.955,321.887L517.774,324.536L518.593,348.576L519.412,355.248L520.231,352.991L521.05,350.146L521.869,354.169L522.687,360.596L523.506,347.546L524.325,339.058L525.144,338.764L525.963,341.02L526.782,340.186L527.601,347.006L528.42,359.664L529.239,356.426L530.058,346.81L530.877,339.941L531.696,337.194L532.514,329.344L533.333,313.743L534.152,313.105L534.971,321.396L535.79,359.516L536.609,387.825L537.428,406.124L538.247,409.166L539.066,409.215L539.885,408.97L540.704,408.724L541.522,406.86L542.341,405.634L543.16,405.094L543.979,404.652L544.798,401.954L545.617,399.943L546.436,398.667L547.255,395.38L548.074,388.168L548.893,366.287L549.712,356.475L550.531,350.391L551.349,361.479L552.168,364.913L552.987,365.158L553.806,359.418L554.625,355.101L555.444,349.459L556.263,347.349L557.082,345.73L557.901,343.179L558.72,347.251L559.539,353.089L560.358,356.916L561.176,353.482L561.995,358.094L562.814,364.275L563.633,365.06L564.452,362.656L565.271,364.472L566.09,367.072L566.909,364.226L567.728,355.15L568.547,355.592L569.366,359.565L570.185,364.717L571.003,368.544L571.822,365.845L572.641,372.91L573.46,375.559L574.279,382.133L575.098,379.043L575.917,377.522L576.736,367.759L577.555,356.622L578.374,354.856L579.193,361.871L580.012,364.717L580.83,363.883L581.649,359.271L582.468,365.06L583.287,360.056L584.106,360.007L584.925,354.954L585.744,362.068L586.563,365.894L587.382,369.77L588.201,365.551L589.02,357.456L589.839,361.43L590.657,362.656L591.476,367.072L592.295,361.381L593.114,352.697L593.933,347.889L594.752,341.266L595.571,353.089L596.39,360.105L597.209,367.906L598.028,364.864L598.847,362.902L599.666,360.841L600.484,356.18L601.303,356.867L602.122,351.765L602.941,351.912L603.76,348.085L604.579,347.153L605.398,353.973L606.217,360.056L607.036,376.099L607.855,378.258L608.674,373.989L609.493,366.091L610.311,343.228L611.13,341.168L611.949,331.306L612.768,353.776L613.587,359.026L614.406,370.555L615.225,360.89L616.044,365.453L616.863,364.177L617.682,368.445L618.501,359.86L619.319,351.47L620.138,338.911L620.957,339.156L621.776,337.096L622.595,355.199L623.414,354.561L624.233,351.421L625.052,341.953L625.871,343.572L626.69,349.312L627.509,345.338L628.328,346.319L629.146,338.616L629.965,349.999L630.784,349.508L631.603,360.449L632.422,353.335L633.241,353.089L634.06,349.655L634.879,352.206L635.698,347.055L636.517,342.198L637.336,332.19L638.155,331.11L638.973,340.186L639.792,342.541L640.611,347.447L641.43,351.029L642.249,362.803L643.068,357.652L643.887,355.935L644.706,351.372L645.525,354.561L646.344,353.678L647.163,351.716L647.982,363.098L648.8,372.223L649.619,378.405L650.438,373.008L651.257,354.414L652.076,352.942L652.895,353.188L653.714,366.189L654.533,349.655L655.352,349.999L656.171,348.772L656.99,359.32L657.809,353.629L658.627,359.222L659.446,367.072L660.265,374.922L661.084,373.548L661.903,373.989L662.722,368.298L663.541,353.825L664.36,349.312L665.179,351.372L665.998,354.757L666.817,356.573L667.636,352.206L668.454,362.951L669.273,367.023L670.092,374.48L670.911,370.849L671.73,365.355L672.549,366.974L673.368,372.468L674.187,378.994L675.006,375.952L675.825,373.695L676.644,369.819L677.463,363.638L678.281,358.192L679.1,363.638L679.919,370.015L680.738,370.997L681.557,365.698L682.376,366.777L683.195,366.826L684.014,366.14L684.833,363.098L685.652,365.306L686.471,365.502L687.29,361.086L688.108,352.844L688.927,336.507L689.746,333.612L690.565,335.722L691.384,353.433L692.203,359.32L693.022,361.135L693.841,362.068L694.66,365.6L695.479,372.125L696.298,372.174L697.116,367.759L697.935,364.717L698.754,355.493L699.573,354.169L700.392,344.013L701.211,342.051L702.03,333.024L702.849,333.612L703.668,335.673L704.487,334.888L705.306,332.435L706.125,341.07L706.943,348.723L707.762,343.228L708.581,356.327L709.4,375.02L710.219,408.823L711.038,410L711.857,410L712.676,410L713.495,410L714.314,410L715.133,410L715.952,410L716.77,410L717.589,410L718.408,410L719.227,410L720.046,410L720.865,410L721.684,410L722.503,410L723.322,410L724.141,410L724.96,410L725.779,410L726.597,410L727.416,410L728.235,410L729.054,410L729.873,410L730.692,410L731.511,410L732.33,410L733.149,410L733.968,398.52L734.787,383.458L735.606,373.057L736.424,376.786L737.243,382.918L738.062,381.986L738.881,376.442L739.7,376.099L740.519,372.518L741.338,375.756L742.157,373.253L742.976,377.767L743.795,374.872L744.614,376.148L745.433,367.611L746.251,366.925L747.07,362.46L747.889,369.868L748.708,366.385L749.527,363.588L750.346,359.418L751.165,364.521L751.984,367.611L752.803,372.419L753.622,372.076L754.441,378.65L755.26,379.582L756.078,381.005L756.897,380.024L757.716,374.087L758.535,372.125L759.354,370.064L760.173,374.774L760.992,374.333L761.811,373.695L762.63,369.77L763.449,373.401L764.268,368.004L765.087,359.958L765.905,347.546L766.724,333.907L767.543,343.719L768.362,350.685L769.181,365.6L770,369.083"/></g></svg>