<?xml version="1.0"?>
<svg xmlns="http://www.w3.org/2000/svg" xmlns:xlink="http://www.w3.org/1999/xlink" class="plot-d6a7b5" fill="currentColor" font-family="system-ui, sans-serif" font-size="10" text-anchor="middle" width="830" height="470" viewBox="0 0 830 470" color="#1e90ff">
  <style>:where(.plot-d6a7b5){--plot-background: white;display:block;height:intrinsic;max-width:100%}:where(.plot-d6a7b5 text),:where(.plot-d6a7b5 tspan){white-space:pre}</style>
  <g aria-label="y-grid" aria-hidden="true" stroke="currentColor" stroke-opacity=".1">
    <line x1="60" x2="770" y1="410" y2="410"/>
    <line x1="60" x2="770" y1="378.557" y2="378.557"/>
    <line x1="60" x2="770" y1="347.114" y2="347.114"/>
    <line x1="60" x2="770" y1="315.671" y2="315.671"/>
    <line x1="60" x2="770" y1="284.227" y2="284.227"/>
    <line x1="60" x2="770" y1="252.784" y2="252.784"/>
    <line x1="60" x2="770" y1="221.341" y2="221.341"/>
    <line x1="60" x2="770" y1="189.898" y2="189.898"/>
    <line x1="60" x2="770" y1="158.455" y2="158.455"/>
    <line x1="60" x2="770" y1="127.012" y2="127.012"/>
    <line x1="60" x2="770" y1="95.568" y2="95.568"/>
    <line x1="60" x2="770" y1="64.125" y2="64.125"/>
  </g>
  <g aria-label="y-axis tick" aria-hidden="true" fill="none" stroke="currentColor">
    <path transform="translate(60,410)" d="M0,0L-6,0"/>
    <path transform="translate(60,378.55684921661634)" d="M0,0L-6,0"/>
    <path transform="translate(60,347.11369843323274)" d="M0,0L-6,0"/>
    <path transform="translate(60,315.6705476498491)" d="M0,0L-6,0"/>
    <path transform="translate(60,284.2273968664655)" d="M0,0L-6,0"/>
    <path transform="translate(60,252.7842460830818)" d="M0,0L-6,0"/>
    <path transform="translate(60,221.34109529969817)" d="M0,0L-6,0"/>
    <path transform="translate(60,189.8979445163145)" d="M0,0L-6,0"/>
    <path transform="translate(60,158.45479373293085)" d="M0,0L-6,0"/>
    <path transform="translate(60,127.01164294954722)" d="M0,0L-6,0"/>
    <path transform="translate(60,95.56849216616357)" d="M0,0L-6,0"/>
    <path transform="translate(60,64.12534138277994)" d="M0,0L-6,0"/>
  </g>
  <g aria-label="y-axis tick label" text-anchor="end" font-variant="tabular-nums">
    <text y=".32em" transform="translate(-9,0) translate(60,410)">0</text>
    <text y=".32em" transform="translate(-9,0) translate(60,378.55684921661634)">5,000</text>
    <text y=".32em" transform="translate(-9,0) translate(60,347.11369843323274)">10,000</text>
    <text y=".32em" transform="translate(-9,0) translate(60,315.6705476498491)">15,000</text>
    <text y=".32em" transform="translate(-9,0) translate(60,284.2273968664655)">20,000</text>
    <text y=".32em" transform="translate(-9,0) translate(60,252.7842460830818)">25,000</text>
    <text y=".32em" transform="translate(-9,0) translate(60,221.34109529969817)">30,000</text>
    <text y=".32em" transform="translate(-9,0) translate(60,189.8979445163145)">35,000</text>
    <text y=".32em" transform="translate(-9,0) translate(60,158.45479373293085)">40,000</text>
    <text y=".32em" transform="translate(-9,0) translate(60,127.01164294954722)">45,000</text>
    <text y=".32em" transform="translate(-9,0) translate(60,95.56849216616357)">50,000</text>
    <text y=".32em" transform="translate(-9,0) translate(60,64.12534138277994)">55,000</text>
  </g>
  <g aria-label="y-axis label" text-anchor="start">
    <text y=".71em" transform="translate(-57,-57) translate(60,60)">&#x2191; Visible Vestiges (30 days)</text>
  </g>
  <g aria-label="x-axis tick" aria-hidden="true" fill="none" stroke="currentColor">
    <path transform="translate(84.46621621621621,410)" d="M0,0L0,6"/>
    <path transform="translate(149.94932432432432,410)" d="M0,0L0,6"/>
    <path transform="translate(216.15202702702703,410)" d="M0,0L0,6"/>
    <path transform="translate(282.35472972972974,410)" d="M0,0L0,6"/>
    <path transform="translate(347.83783783783787,410)" d="M0,0L0,6"/>
    <path transform="translate(413.32094594594594,410)" d="M0,0L0,6"/>
    <path transform="translate(479.5236486486487,410)" d="M0,0L0,6"/>
    <path transform="translate(545.7263513513514,410)" d="M0,0L0,6"/>
    <path transform="translate(610.4898648648648,410)" d="M0,0L0,6"/>
    <path transform="translate(675.972972972973,410)" d="M0,0L0,6"/>
    <path transform="translate(742.1756756756756,410)" d="M0,0L0,6"/>
  </g>
  <g aria-label="x-axis tick label" font-variant="tabular-nums">
    <text transform="translate(0,9) translate(84.46621621621621,410)">
      <tspan x="0" y=".71em">Apr</tspan>
      <tspan x="0" dy="1em">2023</tspan>
    </text>
    <text y=".71em" transform="translate(0,9) translate(149.94932432432432,410)">Jul</text>
    <text y=".71em" transform="translate(0,9) translate(216.15202702702703,410)">Oct</text>
    <text transform="translate(0,9) translate(282.35472972972974,410)">
      <tspan x="0" y=".71em">Jan</tspan>
      <tspan x="0" dy="1em">2024</tspan>
    </text>
    <text y=".71em" transform="translate(0,9) translate(347.83783783783787,410)">Apr</text>
    <text y=".71em" transform="translate(0,9) translate(413.32094594594594,410)">Jul</text>
    <text y=".71em" transform="translate(0,9) translate(479.5236486486487,410)">Oct</text>
    <text transform="translate(0,9) translate(545.7263513513514,410)">
      <tspan x="0" y=".71em">Jan</tspan>
      <tspan x="0" dy="1em">2025</tspan>
    </text>
    <text y=".71em" transform="translate(0,9) translate(610.4898648648648,410)">Apr</text>
    <text y=".71em" transform="translate(0,9) translate(675.972972972973,410)">Jul</text>
    <text y=".71em" transform="translate(0,9) translate(742.1756756756756,410)">Oct</text>
  </g>
  <g aria-label="line" fill="none" stroke="currentColor" stroke-width="1.5" stroke-linejoin="round" stroke-linecap="round">
    <path d="M60,
410.00L
60.48,
406.84L
60.96,
395.30L
61.44,
389.07L
61.92,
384.66L
62.40,
377.38L
62.88,
371.64L
63.36,
366.26L
63.84,
355.38L
64.32,
346.77L
64.80,
336.56L
65.28,
320.73L
65.76,
305.80L
66.24,
298.06L
66.72,
286.84L
67.20,
279.23L
67.68,
270.50L
68.16,
259.08L
68.64,
251.40L
69.11,
243.87L
69.60,
233.64L
70.07,
222.30L
70.55,
214.27L
71.03,
200.57L
71.51,
194.08L
71.99,
188.02L
72.47,
177.10L
72.95,
166.64L
73.43,
158.59L
73.91,
147.37L
74.39,
139.34L
74.87,
140.70L
75.35,
131.14L
75.83,
123.03L
76.31,
123.05L
76.79,
121.23L
77.27,
120.91L
77.75,
127.19L
78.23,
127.28L
78.71,
129.16L
79.19,
139.17L
79.67,
140.64L
80.15,
134.32L
80.63,
132.94L
81.11,
125.28L
81.59,
123.66L
82.07,
126.26L
82.55,
121.93L
83.03,
119.42L
83.51,
122.36L
83.99,
120.60L
84.47,
115.96L
84.95,
117.84L
85.43,
107.38L
85.91,
97.34L
86.39,
99.90L
86.87,
97.93L
87.35,
94.78L
87.82,
95.95L
88.30,
92.92L
88.78,
89.75L
89.26,
93.94L
89.74,
92.52L
90.22,
86.41L
90.70,
82.45L
91.18,
72.65L
91.66,
67.72L
92.14,
67.65L
92.62,
64.00L
93.10,
60.00L
93.58,
66.11L
94.06,
70.72L
94.54,
73.11L
95.02,
78.87L
95.50,
76.73L
95.98,
73.18L
96.46,
78.14L
96.94,
78.41L
97.42,
78.04L
97.90,
86.12L
98.38,
91.02L
98.86,
95.10L
99.34,
103.83L
99.82,
109.28L
100.30,
106.83L
100.78,
110.81L
101.26,
110.32L
101.74,
112.15L
102.22,
121.00L
102.70,
122.04L
103.18,
125.13L
103.66,
134.46L
104.14,
140.12L
104.62,
144.19L
105.10,
151.93L
105.57,
150.82L
106.05,
150.16L
106.53,
154.18L
107.01,
157.07L
107.49,
158.25L
107.97,
161.82L
108.45,
162.37L
108.93,
166.39L
109.41,
173.28L
109.89,
176.57L
110.37,
173.33L
110.85,
175.05L
111.33,
172.32L
111.81,
170.35L
112.29,
171.63L
112.77,
169.96L
113.25,
171.74L
113.73,
176.25L
114.21,
178.87L
114.69,
180.92L
115.17,
184.88L
115.65,
184.90L
116.13,
182.82L
116.61,
188.98L
117.09,
191.04L
117.57,
190.01L
118.05,
192.41L
118.53,
192.36L
119.01,
194.41L
119.49,
199.92L
119.97,
200.70L
120.45,
197.65L
120.93,
196.55L
121.41,
192.24L
121.89,
191.87L
122.37,
194.35L
122.85,
192.45L
123.32,
191.27L
123.80,
195.59L
124.28,
196.45L
124.76,
197.12L
125.24,
199.71L
125.72,
195.41L
126.20,
193.60L
126.68,
195.74L
127.16,
194.75L
127.64,
192.78L
128.12,
194.69L
128.60,
194.95L
129.08,
194.56L
129.56,
197.96L
130.04,
199.04L
130.52,
199.46L
131.00,
200.52L
131.48,
198.56L
131.96,
198.38L
132.44,
200.14L
132.92,
198.17L
133.40,
197.83L
133.88,
201.25L
134.36,
206.79L
134.84,
208.37L
135.32,
212.77L
135.80,
212.70L
136.28,
213.02L
136.76,
215.04L
137.24,
215.22L
137.72,
214.43L
138.20,
218.35L
138.68,
218.11L
139.16,
219.53L
139.64,
225.81L
140.12,
227.53L
140.60,
228.54L
141.07,
231.43L
141.55,
231.76L
142.03,
232.10L
142.51,
232.13L
142.99,
233.45L
143.47,
232.46L
143.95,
235.38L
144.43,
234.82L
144.91,
235.07L
145.39,
236.55L
145.87,
234.76L
146.35,
234.71L
146.83,
236.03L
147.31,
234.52L
147.79,
233.21L
148.27,
233.11L
148.75,
230.45L
149.23,
229.11L
149.71,
231.18L
150.19,
231.23L
150.67,
230.54L
151.15,
233.48L
151.63,
232.56L
152.11,
233.89L
152.59,
236.57L
153.07,
236.90L
153.55,
236.30L
154.03,
238.44L
154.51,
237.67L
154.99,
237.05L
155.47,
240.17L
155.95,
239.57L
156.43,
239.81L
156.91,
241.97L
157.39,
240.67L
157.87,
239.59L
158.35,
240.77L
158.82,
239.40L
159.30,
240.24L
159.78,
241.52L
160.26,
240.41L
160.74,
240.74L
161.22,
242.61L
161.70,
243.10L
162.18,
241.78L
162.66,
245.48L
163.14,
247.82L
163.62,
246.72L
164.10,
249.45L
164.58,
248.53L
165.06,
247.80L
165.54,
249.31L
166.02,
247.28L
166.50,
247.29L
166.98,
247.31L
167.46,
244.93L
167.94,
243.35L
168.42,
246.82L
168.90,
243.80L
169.38,
242.45L
169.86,
243.64L
170.34,
242.06L
170.82,
241.64L
171.30,
243.32L
171.78,
241.59L
172.26,
240.39L
172.74,
241.43L
173.22,
238.64L
173.70,
238.42L
174.18,
239.81L
174.66,
239.18L
175.14,
236.98L
175.62,
235.37L
176.10,
231.26L
176.57,
229.94L
177.05,
229.94L
177.53,
228.44L
178.01,
227.00L
178.49,
229.99L
178.97,
228.14L
179.45,
227.59L
179.93,
229.96L
180.41,
228.63L
180.89,
228.93L
181.37,
232.78L
181.85,
232.18L
182.33,
229.53L
182.81,
232.99L
183.29,
232.79L
183.77,
230.38L
184.25,
231.30L
184.73,
228.18L
185.21,
227.81L
185.69,
228.47L
186.17,
226.54L
186.65,
225.81L
187.13,
228.14L
187.61,
227.45L
188.09,
227.22L
188.57,
230.03L
189.05,
231.82L
189.53,
235.13L
190.01,
241.55L
190.49,
242.71L
190.97,
242.19L
191.45,
243.89L
191.93,
244.24L
192.41,
242.92L
192.89,
244.63L
193.37,
245.12L
193.85,
244.01L
194.32,
246.09L
194.80,
246.96L
195.28,
246.12L
195.76,
247.37L
196.24,
247.12L
196.72,
247.23L
197.20,
248.46L
197.68,
251.01L
198.16,
253.73L
198.64,
257.80L
199.12,
259.30L
199.60,
262.27L
200.08,
267.32L
200.56,
266.20L
201.04,
266.89L
201.52,
269.05L
202.00,
268.32L
202.48,
269.46L
202.96,
271.38L
203.44,
272.15L
203.92,
274.03L
204.40,
275.48L
204.88,
276.88L
205.36,
277.23L
205.84,
277.35L
206.32,
274.63L
206.80,
272.32L
207.28,
273.66L
207.76,
273.68L
208.24,
274.47L
208.72,
275.22L
209.20,
275.48L
209.68,
276.62L
210.16,
279.71L
210.64,
279.14L
211.12,
278.44L
211.60,
279.45L
212.07,
277.56L
212.55,
278.75L
213.03,
280.17L
213.51,
278.96L
213.99,
278.56L
214.47,
282.66L
214.95,
282.50L
215.43,
282.90L
215.91,
284.89L
216.39,
281.57L
216.87,
280.67L
217.35,
281.69L
217.83,
279.97L
218.31,
280.81L
218.79,
282.07L
219.27,
283.18L
219.75,
284.59L
220.23,
288.47L
220.71,
289.81L
221.19,
287.60L
221.67,
286.65L
222.15,
283.92L
222.63,
283.60L
223.11,
284.95L
223.59,
285.01L
224.07,
284.88L
224.55,
286.27L
225.03,
286.87L
225.51,
287.66L
225.99,
290.18L
226.47,
285.98L
226.95,
282.77L
227.43,
282.85L
227.91,
282.60L
228.39,
283.04L
228.87,
286.08L
229.35,
285.81L
229.82,
287.20L
230.30,
290.17L
230.78,
288.75L
231.26,
284.76L
231.74,
284.40L
232.22,
281.17L
232.70,
280.65L
233.18,
281.20L
233.66,
279.40L
234.14,
280.06L
234.62,
282.21L
235.10,
283.33L
235.58,
284.16L
236.06,
287.05L
236.54,
286.09L
237.02,
286.01L
237.50,
287.96L
237.98,
286.68L
238.46,
287.25L
238.94,
290.38L
239.42,
290.85L
239.90,
291.04L
240.38,
293.11L
240.86,
293.25L
241.34,
291.02L
241.82,
290.91L
242.30,
289.76L
242.78,
289.66L
243.26,
290.84L
243.74,
289.87L
244.22,
290.69L
244.70,
294.30L
245.18,
296.69L
245.66,
299.05L
246.14,
302.19L
246.62,
301.96L
247.10,
301.82L
247.57,
305.10L
248.05,
305.65L
248.53,
307.38L
249.01,
309.92L
249.49,
311.99L
249.97,
313.21L
250.45,
317.22L
250.93,
315.95L
251.41,
313.54L
251.89,
313.78L
252.37,
312.46L
252.85,
310.95L
253.33,
311.75L
253.81,
311.27L
254.29,
314.14L
254.77,
317.04L
255.25,
318.58L
255.73,
318.94L
256.21,
319.70L
256.69,
317.24L
257.17,
317.32L
257.65,
318.10L
258.13,
316.49L
258.61,
315.66L
259.09,
316.08L
259.57,
313.24L
260.05,
313.47L
260.53,
314.20L
261.01,
314.41L
261.49,
313.00L
261.97,
312.46L
262.45,
310.21L
262.93,
310.19L
263.40,
311.80L
263.89,
310.52L
264.37,
309.11L
264.85,
311.70L
265.32,
313.76L
265.80,
315.85L
266.28,
318.46L
266.76,
318.89L
267.24,
318.26L
267.72,
320.19L
268.20,
318.78L
268.68,
318.43L
269.16,
321.40L
269.64,
322.89L
270.12,
324.39L
270.60,
327.29L
271.08,
327.14L
271.56,
326.88L
272.04,
328.15L
272.52,
328.90L
273.00,
330.00L
273.48,
332.16L
273.96,
332.86L
274.44,
334.04L
274.92,
335.04L
275.40,
335.14L
275.88,
336.49L
276.36,
337.73L
276.84,
335.57L
277.32,
333.42L
277.80,
334.91L
278.28,
334.84L
278.76,
333.29L
279.24,
332.94L
279.72,
331.61L
280.20,
330.66L
280.68,
330.47L
281.15,
329.46L
281.64,
328.10L
282.12,
328.95L
282.60,
328.86L
283.07,
327.36L
283.55,
326.76L
284.03,
324.19L
284.51,
323.49L
284.99,
325.03L
285.47,
324.44L
285.95,
325.56L
286.43,
325.48L
286.91,
323.93L
287.39,
324.95L
287.87,
324.97L
288.35,
323.72L
288.83,
323.98L
289.31,
325.56L
289.79,
325.83L
290.27,
327.08L
290.75,
328.89L
291.23,
328.92L
291.71,
327.50L
292.19,
326.39L
292.67,
325.37L
293.15,
326.14L
293.63,
327.36L
294.11,
327.76L
294.59,
327.56L
295.07,
327.54L
295.55,
327.61L
296.03,
328.29L
296.51,
328.41L
296.99,
327.36L
297.47,
324.45L
297.95,
325.20L
298.43,
323.46L
298.90,
322.96L
299.39,
324.80L
299.87,
323.20L
300.35,
324.37L
300.82,
326.47L
301.30,
323.69L
301.78,
320.76L
302.26,
319.87L
302.74,
316.24L
303.22,
315.09L
303.70,
314.40L
304.18,
312.68L
304.66,
312.21L
305.14,
313.12L
305.62,
312.29L
306.10,
313.81L
306.58,
314.46L
307.06,
310.58L
307.54,
308.89L
308.02,
308.30L
308.50,
307.17L
308.98,
307.95L
309.46,
308.58L
309.94,
305.97L
310.42,
305.55L
310.90,
305.38L
311.38,
306.87L
311.86,
305.54L
312.34,
303.40L
312.82,
298.89L
313.30,
297.36L
313.78,
296.45L
314.26,
291.98L
314.74,
289.97L
315.22,
291.89L
315.70,
293.45L
316.18,
294.15L
316.65,
296.37L
317.14,
294.22L
317.62,
292.26L
318.10,
293.50L
318.57,
292.50L
319.05,
291.64L
319.53,
291.72L
320.01,
290.21L
320.49,
291.92L
320.97,
294.50L
321.45,
293.58L
321.93,
291.87L
322.41,
293.24L
322.89,
291.38L
323.37,
291.15L
323.85,
292.69L
324.33,
292.92L
324.81,
294.81L
325.29,
296.21L
325.77,
297.41L
326.25,
300.95L
326.73,
305.02L
327.21,
303.45L
327.69,
304.40L
328.17,
307.62L
328.65,
309.24L
329.13,
310.03L
329.61,
310.96L
330.09,
311.50L
330.57,
313.09L
331.05,
316.24L
331.53,
316.43L
332.01,
315.57L
332.49,
317.54L
332.97,
316.95L
333.45,
318.11L
333.93,
320.85L
334.41,
320.77L
334.89,
320.98L
335.37,
323.72L
335.85,
325.18L
336.32,
324.76L
336.80,
326.21L
337.28,
323.35L
337.76,
322.80L
338.24,
323.96L
338.72,
325.85L
339.20,
328.53L
339.68,
332.12L
340.16,
334.97L
340.64,
337.83L
341.12,
343.16L
341.60,
346.10L
342.08,
348.38L
342.56,
350.47L
343.04,
352.49L
343.52,
355.01L
344.00,
357.11L
344.48,
358.36L
344.96,
359.89L
345.44,
363.24L
345.92,
364.65L
346.40,
363.41L
346.88,
365.23L
347.36,
365.96L
347.84,
365.27L
348.32,
365.90L
348.80,
367.08L
349.28,
366.89L
349.76,
367.84L
350.24,
368.65L
350.72,
369.19L
351.20,
371.94L
351.68,
372.51L
352.16,
372.51L
352.64,
371.12L
353.12,
368.55L
353.60,
365.76L
354.07,
364.57L
354.55,
362.79L
355.03,
360.13L
355.51,
358.67L
355.99,
357.35L
356.47,
355.19L
356.95,
353.43L
357.43,
351.01L
357.91,
349.25L
358.39,
348.25L
358.87,
346.66L
359.35,
345.81L
359.83,
345.39L
360.31,
347.50L
360.79,
348.25L
361.27,
349.46L
361.75,
349.76L
362.23,
349.87L
362.71,
349.79L
363.19,
349.40L
363.67,
349.84L
364.15,
351.38L
364.63,
351.62L
365.11,
352.16L
365.59,
353.45L
366.07,
353.91L
366.55,
353.06L
367.03,
353.84L
367.51,
354.09L
367.99,
353.57L
368.47,
354.05L
368.95,
354.70L
369.43,
353.94L
369.91,
353.15L
370.39,
353.98L
370.87,
353.74L
371.35,
354.68L
371.82,
354.72L
372.30,
352.86L
372.78,
352.52L
373.26,
351.22L
373.74,
351.22L
374.22,
350.88L
374.70,
350.24L
375.18,
349.01L
375.66,
348.81L
376.14,
348.10L
376.62,
347.52L
377.10,
348.84L
377.58,
347.71L
378.06,
346.25L
378.54,
346.71L
379.02,
345.56L
379.50,
345.57L
379.98,
346.07L
380.46,
347.62L
380.94,
347.91L
381.42,
348.51L
381.90,
348.13L
382.38,
345.00L
382.86,
344.84L
383.34,
343.74L
383.82,
344.53L
384.30,
344.54L
384.78,
344.76L
385.26,
343.74L
385.74,
345.06L
386.22,
346.23L
386.70,
346.37L
387.18,
347.44L
387.66,
346.02L
388.14,
343.66L
388.62,
343.76L
389.10,
342.46L
389.57,
342.67L
390.05,
342.95L
390.53,
341.85L
391.01,
340.76L
391.49,
341.90L
391.97,
341.52L
392.45,
340.40L
392.93,
341.79L
393.41,
339.55L
393.89,
339.12L
394.37,
338.39L
394.85,
337.27L
395.33,
336.47L
395.81,
336.72L
396.29,
338.09L
396.77,
337.88L
397.25,
338.74L
397.73,
336.61L
398.21,
334.44L
398.69,
333.68L
399.17,
333.95L
399.65,
331.51L
400.13,
331.54L
400.61,
331.72L
401.09,
331.88L
401.57,
332.33L
402.05,
333.90L
402.53,
333.45L
403.01,
334.57L
403.49,
333.71L
403.97,
333.08L
404.45,
336.07L
404.93,
337.59L
405.41,
337.55L
405.89,
339.10L
406.37,
338.75L
406.85,
338.40L
407.32,
340.97L
407.80,
340.83L
408.28,
338.42L
408.76,
339.63L
409.24,
340.24L
409.72,
339.22L
410.20,
340.14L
410.68,
341.14L
411.16,
341.78L
411.64,
344.33L
412.12,
346.44L
412.60,
347.28L
413.08,
347.94L
413.56,
347.89L
414.04,
347.52L
414.52,
347.98L
415.00,
346.86L
415.48,
347.38L
415.96,
347.50L
416.44,
348.34L
416.92,
348.98L
417.40,
350.17L
417.88,
350.79L
418.36,
349.26L
418.84,
349.50L
419.32,
350.03L
419.80,
350.03L
420.28,
352.26L
420.76,
352.69L
421.24,
352.16L
421.72,
351.93L
422.20,
353.79L
422.68,
353.91L
423.16,
354.65L
423.64,
355.28L
424.12,
355.46L
424.60,
355.62L
425.07,
355.25L
425.55,
354.33L
426.03,
354.28L
426.51,
354.14L
426.99,
353.98L
427.47,
355.21L
427.95,
354.59L
428.43,
352.07L
428.91,
352.50L
429.39,
351.92L
429.87,
352.23L
430.35,
352.04L
430.83,
351.16L
431.31,
350.64L
431.79,
351.37L
432.27,
352.03L
432.75,
351.30L
433.23,
350.76L
433.71,
350.20L
434.19,
348.68L
434.67,
348.26L
435.15,
346.89L
435.63,
345.91L
436.11,
345.03L
436.59,
343.05L
437.07,
341.51L
437.55,
340.40L
438.03,
338.78L
438.51,
338.22L
438.99,
338.08L
439.47,
335.84L
439.95,
335.24L
440.43,
335.18L
440.91,
334.43L
441.39,
334.70L
441.87,
336.74L
442.35,
335.07L
442.82,
332.62L
443.30,
330.36L
443.78,
326.86L
444.26,
324.35L
444.74,
323.75L
445.22,
320.64L
445.70,
316.88L
446.18,
315.43L
446.66,
314.21L
447.14,
312.55L
447.62,
311.31L
448.10,
310.56L
448.58,
308.58L
449.06,
309.27L
449.54,
310.81L
450.02,
311.05L
450.50,
312.64L
450.98,
313.75L
451.46,
314.73L
451.94,
316.09L
452.42,
315.27L
452.90,
314.48L
453.38,
315.62L
453.86,
315.43L
454.34,
314.99L
454.82,
315.62L
455.30,
315.64L
455.78,
315.30L
456.26,
320.14L
456.74,
324.04L
457.22,
327.61L
457.70,
331.30L
458.18,
334.46L
458.66,
335.68L
459.14,
339.28L
459.62,
342.91L
460.10,
344.73L
460.57,
346.06L
461.05,
348.32L
461.53,
349.22L
462.01,
351.17L
462.49,
353.35L
462.97,
354.57L
463.45,
354.04L
463.93,
354.80L
464.41,
354.51L
464.89,
354.79L
465.37,
355.31L
465.85,
356.19L
466.33,
357.25L
466.81,
359.40L
467.29,
361.31L
467.77,
362.36L
468.25,
363.68L
468.73,
363.83L
469.21,
364.11L
469.69,
364.01L
470.17,
363.57L
470.65,
363.01L
471.13,
362.95L
471.61,
362.72L
472.09,
362.66L
472.57,
362.37L
473.05,
360.69L
473.53,
359.36L
474.01,
356.75L
474.49,
356.70L
474.97,
356.10L
475.45,
356.49L
475.93,
356.97L
476.41,
356.77L
476.89,
356.13L
477.37,
356.21L
477.85,
355.70L
478.32,
352.80L
478.80,
352.17L
479.28,
352.64L
479.76,
350.99L
480.24,
350.76L
480.72,
350.81L
481.20,
350.07L
481.68,
349.79L
482.16,
349.62L
482.64,
349.32L
483.12,
348.32L
483.60,
347.14L
484.08,
344.88L
484.56,
345.16L
485.04,
345.41L
485.52,
345.55L
486.00,
345.20L
486.48,
346.50L
486.96,
348.39L
487.44,
349.63L
487.92,
352.77L
488.40,
352.97L
488.88,
353.56L
489.36,
354.59L
489.84,
354.59L
490.32,
355.94L
490.80,
356.82L
491.28,
357.14L
491.76,
358.40L
492.24,
362.18L
492.72,
362.01L
493.20,
361.57L
493.68,
362.94L
494.16,
362.31L
494.64,
362.60L
495.12,
363.72L
495.60,
363.79L
496.07,
364.16L
496.55,
365.49L
497.03,
366.87L
497.51,
368.66L
497.99,
371.38L
498.47,
370.46L
498.95,
370.27L
499.43,
371.55L
499.91,
372.51L
500.39,
372.51L
500.87,
372.28L
501.35,
372.61L
501.83,
371.50L
502.31,
371.99L
502.79,
371.24L
503.27,
369.32L
503.75,
368.43L
504.23,
365.97L
504.71,
364.91L
505.19,
365.25L
505.67,
365.37L
506.15,
365.14L
506.63,
365.87L
507.11,
366.48L
507.59,
367.07L
508.07,
367.64L
508.55,
366.48L
509.03,
365.36L
509.51,
365.90L
509.99,
364.99L
510.47,
365.24L
510.95,
365.60L
511.43,
364.58L
511.91,
364.39L
512.39,
365.54L
512.87,
365.63L
513.35,
364.44L
513.82,
363.50L
514.30,
362.70L
514.78,
363.02L
515.26,
362.89L
515.74,
363.18L
516.22,
362.75L
516.70,
363.50L
517.18,
364.60L
517.66,
365.49L
518.14,
367.24L
518.62,
367.27L
519.10,
366.48L
519.58,
366.99L
520.06,
367.09L
520.54,
367.24L
521.02,
367.54L
521.50,
367.30L
521.98,
368.16L
522.46,
369.47L
522.94,
370.22L
523.42,
370.65L
523.90,
372.18L
524.38,
372.06L
524.86,
371.77L
525.34,
372.98L
525.82,
373.45L
526.30,
373.31L
526.78,
372.57L
527.26,
372.92L
527.74,
372.55L
528.22,
373.49L
528.70,
373.39L
529.18,
373.93L
529.66,
374.39L
530.14,
374.66L
530.62,
375.39L
531.10,
376.38L
531.57,
376.20L
532.05,
376.54L
532.53,
377.75L
533.01,
378.07L
533.49,
377.06L
533.97,
377.33L
534.45,
376.97L
534.93,
376.92L
535.41,
376.42L
535.89,
376.09L
536.37,
375.98L
536.85,
376.45L
537.33,
375.74L
537.81,
374.99L
538.29,
374.63L
538.77,
373.63L
539.25,
373.60L
539.73,
372.67L
540.21,
372.67L
540.69,
373.70L
541.17,
374.22L
541.65,
375.12L
542.13,
375.09L
542.61,
375.17L
543.09,
374.92L
543.57,
374.36L
544.05,
374.08L
544.53,
371.68L
545.01,
370.38L
545.49,
370.10L
545.97,
369.18L
546.45,
368.70L
546.93,
369.20L
547.41,
368.65L
547.89,
367.12L
548.37,
367.60L
548.85,
366.29L
549.32,
366.71L
549.80,
367.22L
550.28,
366.29L
550.76,
366.00L
551.24,
366.16L
551.72,
366.42L
552.20,
365.90L
552.68,
367.05L
553.16,
366.46L
553.64,
366.89L
554.12,
366.80L
554.60,
366.87L
555.08,
366.56L
555.56,
366.59L
556.04,
366.22L
556.52,
365.57L
557.00,
365.44L
557.48,
365.04L
557.96,
365.18L
558.44,
366.84L
558.92,
367.30L
559.40,
367.39L
559.88,
367.67L
560.36,
367.30L
560.84,
367.39L
561.32,
369.04L
561.80,
369.90L
562.28,
369.83L
562.76,
370.86L
563.24,
370.61L
563.72,
369.60L
564.20,
368.56L
564.68,
366.32L
565.16,
365.12L
565.64,
364.65L
566.12,
364.97L
566.60,
364.92L
567.07,
364.91L
567.55,
364.32L
568.03,
364.60L
568.51,
364.70L
568.99,
363.47L
569.47,
362.42L
569.95,
362.53L
570.43,
362.40L
570.91,
362.12L
571.39,
362.87L
571.87,
362.67L
572.35,
362.02L
572.83,
361.34L
573.31,
361.43L
573.79,
361.65L
574.27,
362.51L
574.75,
362.55L
575.23,
362.21L
575.71,
363.37L
576.19,
362.58L
576.67,
362.89L
577.15,
362.99L
577.63,
362.87L
578.11,
363.87L
578.59,
364.90L
579.07,
365.12L
579.55,
364.90L
580.03,
364.85L
580.51,
363.49L
580.99,
363.49L
581.47,
363.94L
581.95,
362.88L
582.43,
362.41L
582.91,
363.14L
583.39,
362.96L
583.87,
362.89L
584.35,
363.47L
584.82,
363.03L
585.30,
363.12L
585.78,
362.21L
586.26,
362.90L
586.74,
363.03L
587.22,
362.65L
587.70,
362.98L
588.18,
362.93L
588.66,
362.73L
589.14,
360.93L
589.62,
358.59L
590.10,
358.96L
590.58,
357.45L
591.06,
357.41L
591.54,
357.52L
592.02,
356.33L
592.50,
356.49L
592.98,
356.82L
593.46,
356.48L
593.94,
356.72L
594.42,
357.64L
594.90,
357.46L
595.38,
357.16L
595.86,
357.91L
596.34,
357.62L
596.82,
357.94L
597.30,
358.64L
597.78,
357.45L
598.26,
356.93L
598.74,
357.79L
599.22,
358.06L
599.70,
359.20L
600.18,
359.29L
600.66,
360.35L
601.14,
361.47L
601.62,
361.83L
602.10,
361.53L
602.57,
362.31L
603.05,
364.36L
603.53,
365.89L
604.01,
366.47L
604.49,
367.84L
604.97,
367.68L
605.45,
368.65L
605.93,
370.01L
606.41,
371.22L
606.89,
371.15L
607.37,
372.16L
607.85,
371.83L
608.33,
372.78L
608.81,
373.49L
609.29,
373.02L
609.77,
373.37L
610.25,
373.78L
610.73,
374.50L
611.21,
375.17L
611.69,
375.99L
612.17,
376.81L
612.65,
377.00L
613.13,
377.73L
613.61,
378.09L
614.09,
378.92L
614.57,
379.24L
615.05,
379.43L
615.53,
378.87L
616.01,
378.81L
616.49,
378.15L
616.97,
378.58L
617.45,
379.05L
617.93,
379.66L
618.41,
380.33L
618.89,
381.81L
619.37,
381.49L
619.85,
382.05L
620.32,
381.95L
620.80,
383.44L
621.28,
383.51L
621.76,
384.36L
622.24,
383.77L
622.72,
384.18L
623.20,
385.70L
623.68,
386.29L
624.16,
386.46L
624.64,
385.97L
625.12,
386.06L
625.60,
386.87L
626.08,
387.13L
626.56,
387.51L
627.04,
387.37L
627.52,
388.05L
628.00,
388.20L
628.48,
388.58L
628.96,
388.40L
629.44,
389.67L
629.92,
390.71L
630.40,
391.92L
630.88,
392.04L
631.36,
392.64L
631.84,
393.12L
632.32,
393.32L
632.80,
393.42L
633.28,
394.52L
633.76,
395.08L
634.24,
395.47L
634.72,
395.62L
635.20,
396.03L
635.68,
396.73L
636.16,
397.42L
636.64,
397.32L
637.12,
397.37L
637.60,
397.57L
638.07,
397.70L
638.55,
398.43L
639.03,
398.95L
639.51,
399.27L
639.99,
399.44L
640.47,
399.48L
640.95,
399.79L
641.43,
399.93L
641.91,
399.98L
642.39,
400.25L
642.87,
400.70L
643.35,
400.35L
643.83,
400.33L
644.31,
400.15L
644.79,
399.88L
645.27,
399.31L
645.75,
398.99L
646.23,
398.73L
646.71,
398.35L
647.19,
398.30L
647.67,
398.13L
648.15,
398.04L
648.63,
397.93L
649.11,
397.37L
649.59,
396.57L
650.07,
396.53L
650.55,
396.17L
651.03,
396.35L
651.51,
396.36L
651.99,
397.08L
652.47,
396.78L
652.95,
395.95L
653.43,
396.06L
653.91,
395.62L
654.39,
395.40L
654.87,
395.17L
655.35,
394.93L
655.82,
394.91L
656.30,
394.71L
656.78,
394.56L
657.26,
394.35L
657.74,
394.17L
658.22,
393.76L
658.70,
393.76L
659.18,
394.37L
659.66,
394.12L
660.14,
394.20L
660.62,
394.46L
661.10,
394.60L
661.58,
394.79L
662.06,
395.20L
662.54,
395.13L
663.02,
395.49L
663.50,
396.12L
663.98,
396.22L
664.46,
396.79L
664.94,
396.90L
665.42,
396.96L
665.90,
396.95L
666.38,
397.39L
666.86,
397.96L
667.34,
397.92L
667.82,
398.50L
668.30,
398.32L
668.78,
398.11L
669.26,
398.10L
669.74,
397.80L
670.22,
397.46L
670.70,
397.27L
671.18,
397.64L
671.66,
397.73L
672.14,
397.84L
672.62,
397.96L
673.10,
397.79L
673.57,
398.00L
674.05,
397.50L
674.53,
397.61L
675.01,
397.49L
675.49,
397.35L
675.97,
396.81L
676.45,
396.88L
676.93,
396.51L
677.41,
396.11L
677.89,
396.17L
678.37,
395.19L
678.85,
394.65L
679.33,
394.58L
679.81,
394.07L
680.29,
394.07L
680.77,
394.07L
681.25,
394.30L
681.73,
394.27L
682.21,
394.91L
682.69,
395.27L
683.17,
395.22L
683.65,
395.37L
684.13,
395.47L
684.61,
395.53L
685.09,
394.75L
685.57,
394.88L
686.05,
395.04L
686.53,
395.35L
687.01,
395.11L
687.49,
395.14L
687.97,
395.13L
688.45,
395.08L
688.93,
394.83L
689.41,
394.58L
689.89,
394.82L
690.37,
394.96L
690.85,
395.25L
691.32,
395.34L
691.80,
395.66L
692.28,
396.49L
692.76,
396.80L
693.24,
396.46L
693.72,
396.78L
694.20,
396.59L
694.68,
396.83L
695.16,
396.11L
695.64,
395.59L
696.12,
395.33L
696.60,
395.21L
697.08,
394.73L
697.56,
394.67L
698.04,
394.94L
698.52,
395.36L
699.00,
396.12L
699.48,
396.28L
699.96,
396.03L
700.44,
395.81L
700.92,
396.22L
701.40,
396.56L
701.88,
396.87L
702.36,
397.00L
702.84,
396.89L
703.32,
397.17L
703.80,
397.49L
704.28,
397.61L
704.76,
398.25L
705.24,
398.62L
705.72,
398.58L
706.20,
398.76L
706.68,
398.84L
707.16,
399.32L
707.64,
399.61L
708.12,
399.84L
708.60,
399.98L
709.07,
400.40L
709.55,
400.56L
710.03,
400.96L
710.51,
400.79L
710.99,
400.76L
711.47,
399.83L
711.95,
399.15L
712.43,
399.08L
712.91,
399.11L
713.39,
398.96L
713.87,
399.40L
714.35,
399.56L
714.83,
399.32L
715.31,
398.84L
715.79,
398.66L
716.27,
398.35L
716.75,
398.62L
717.23,
399.03L
717.71,
399.01L
718.19,
398.32L
718.67,
398.00L
719.15,
397.86L
719.63,
397.59L
720.11,
397.43L
720.59,
397.18L
721.07,
396.89L
721.55,
396.22L
722.03,
396.36L
722.51,
396.46L
722.99,
396.59L
723.47,
397.02L
723.95,
397.10L
724.43,
396.73L
724.91,
397.39L
725.39,
398.10L
725.87,
398.40L
726.35,
398.67L
726.82,
398.95L
727.30,
399.29L
727.78,
399.49L
728.26,
399.56L
728.74,
399.80L
729.22,
400.39L
729.70,
400.69L
730.18,
400.84L
730.66,
400.84L
731.14,
400.78L
731.62,
401.06L
732.10,
401.81L
732.58,
402.12L
733.06,
402.37L
733.54,
402.72L
734.02,
402.74L
734.50,
402.88L
734.98,
402.18L
735.46,
401.84L
735.94,
401.20L
736.42,
401.08L
736.90,
401.30L
737.38,
401.15L
737.86,
400.72L
738.34,
401.27L
738.82,
401.15L
739.30,
400.79L
739.78,
400.73L
740.26,
400.28L
740.74,
399.54L
741.22,
399.22L
741.70,
399.08L
742.18,
398.89L
742.66,
398.88L
743.14,
398.38L
743.62,
398.24L
744.10,
398.22L
744.57,
398.35L
745.05,
397.81L
745.53,
397.27L
746.01,
396.49L
746.49,
396.27L
746.97,
396.28L
747.45,
396.24L
747.93,
396.34L
748.41,
396.52L
748.89,
397.49L
749.37,
398.61L
749.85,
399.10L
750.33,
399.24L
750.81,
398.93L
751.29,
399.03L
751.77,
398.92L
752.25,
399.12L
752.73,
399.32L
753.21,
400.08L
753.69,
400.69L
754.17,
400.67L
754.65,
401.04L
755.13,
400.89L
755.61,
400.83L
756.09,
401.07L
756.57,
401.07L
757.05,
401.36L
757.53,
401.56L
758.01,
401.75L
758.49,
401.62L
758.97,
401.77L
759.45,
401.83L
759.93,
402.61L
760.41,
402.52L
760.89,
402.30L
761.37,
402.15L
761.85,
402.22L
762.32,
402.30L
762.80,
402.46L
763.28,
402.52L
763.76,
402.42L
764.24,
402.45L
764.72,
402.50L
765.20,
402.51L
765.68,
403.07L
766.16,
403.00L
766.64,
403.03L
767.12,
402.98L
767.60,
402.83L
768.08,
402.89L
768.56,
403.23L
769.04,
403.55L
769.52,
403.82L
770.00,
403.806"/>
  </g>
</svg>
