<svg class="plot-d6a7b5" fill="currentColor" font-family="system-ui, sans-serif" font-size="10" text-anchor="middle" width="830" height="470" viewBox="0 0 830 470" xmlns="http://www.w3.org/2000/svg" xmlns:xlink="http://www.w3.org/1999/xlink" color="#1e90ff"><style>:where(.plot-d6a7b5){--plot-background: white;display:block;height:intrinsic;max-width:100%}:where(.plot-d6a7b5 text),:where(.plot-d6a7b5 tspan){white-space:pre}</style><g aria-label="y-grid" stroke="currentColor" stroke-opacity=".1"><line x1="60" x2="770" y1="410" y2="410"/><line x1="60" x2="770" y1="383.746" y2="383.746"/><line x1="60" x2="770" y1="357.492" y2="357.492"/><line x1="60" x2="770" y1="331.238" y2="331.238"/><line x1="60" x2="770" y1="304.983" y2="304.983"/><line x1="60" x2="770" y1="278.729" y2="278.729"/><line x1="60" x2="770" y1="252.475" y2="252.475"/><line x1="60" x2="770" y1="226.221" y2="226.221"/><line x1="60" x2="770" y1="199.967" y2="199.967"/><line x1="60" x2="770" y1="173.713" y2="173.713"/><line x1="60" x2="770" y1="147.458" y2="147.458"/><line x1="60" x2="770" y1="121.204" y2="121.204"/><line x1="60" x2="770" y1="94.95" y2="94.95"/><line x1="60" x2="770" y1="68.696" y2="68.696"/></g><g aria-label="y-axis tick" fill="none" stroke="currentColor"><path transform="translate(60,410)" d="M0,0L-6,0"/><path transform="translate(60,383.7458387154364)" d="M0,0L-6,0"/><path transform="translate(60,357.4916774308728)" d="M0,0L-6,0"/><path transform="translate(60,331.23751614630925)" d="M0,0L-6,0"/><path transform="translate(60,304.98335486174557)" d="M0,0L-6,0"/><path transform="translate(60,278.72919357718195)" d="M0,0L-6,0"/><path transform="translate(60,252.47503229261838)" d="M0,0L-6,0"/><path transform="translate(60,226.22087100805476)" d="M0,0L-6,0"/><path transform="translate(60,199.96670972349116)" d="M0,0L-6,0"/><path transform="translate(60,173.71254843892754)" d="M0,0L-6,0"/><path transform="translate(60,147.45838715436398)" d="M0,0L-6,0"/><path transform="translate(60,121.20422586980038)" d="M0,0L-6,0"/><path transform="translate(60,94.95006458523676)" d="M0,0L-6,0"/><path transform="translate(60,68.69590330067315)" d="M0,0L-6,0"/></g><g aria-label="y-axis tick label" text-anchor="end" font-variant="tabular-nums"><text y=".32em" transform="translate(-9,0) translate(60,410)">0</text><text y=".32em" transform="translate(-9,0) translate(60,383.7458387154364)">50,000</text><text y=".32em" transform="translate(-9,0) translate(60,357.4916774308728)">100,000</text><text y=".32em" transform="translate(-9,0) translate(60,331.23751614630925)">150,000</text><text y=".32em" transform="translate(-9,0) translate(60,304.98335486174557)">200,000</text><text y=".32em" transform="translate(-9,0) translate(60,278.72919357718195)">250,000</text><text y=".32em" transform="translate(-9,0) translate(60,252.47503229261838)">300,000</text><text y=".32em" transform="translate(-9,0) translate(60,226.22087100805476)">350,000</text><text y=".32em" transform="translate(-9,0) translate(60,199.96670972349116)">400,000</text><text y=".32em" transform="translate(-9,0) translate(60,173.71254843892754)">450,000</text><text y=".32em" transform="translate(-9,0) translate(60,147.45838715436398)">500,000</text><text y=".32em" transform="translate(-9,0) translate(60,121.20422586980038)">550,000</text><text y=".32em" transform="translate(-9,0) translate(60,94.95006458523676)">600,000</text><text y=".32em" transform="translate(-9,0) translate(60,68.69590330067315)">650,000</text></g><g aria-label="y-axis label" text-anchor="start"><text y=".71em" transform="translate(-57,-57) translate(60,60)">↑ Total Vestiges</text></g><g aria-label="x-axis tick" fill="none" stroke="currentColor"><path transform="translate(90.81702127659575,410)" d="M0,0L0,6"/><path transform="translate(173.29787234042553,410)" d="M0,0L0,6"/><path transform="translate(256.6851063829787,410)" d="M0,0L0,6"/><path transform="translate(340.07234042553193,410)" d="M0,0L0,6"/><path transform="translate(422.55319148936167,410)" d="M0,0L0,6"/><path transform="translate(505.0340425531915,410)" d="M0,0L0,6"/><path transform="translate(588.4212765957446,410)" d="M0,0L0,6"/><path transform="translate(671.8085106382979,410)" d="M0,0L0,6"/><path transform="translate(753.3829787234042,410)" d="M0,0L0,6"/></g><g aria-label="x-axis tick label" font-variant="tabular-nums"><text transform="translate(0,9) translate(90.81702127659575,410)"><tspan x="0" y=".71em">Apr</tspan><tspan x="0" dy="1em">2023</tspan></text><text y=".71em" transform="translate(0,9) translate(173.29787234042553,410)">Jul</text><text y=".71em" transform="translate(0,9) translate(256.6851063829787,410)">Oct</text><text transform="translate(0,9) translate(340.07234042553193,410)"><tspan x="0" y=".71em">Jan</tspan><tspan x="0" dy="1em">2024</tspan></text><text y=".71em" transform="translate(0,9) translate(422.55319148936167,410)">Apr</text><text y=".71em" transform="translate(0,9) translate(505.0340425531915,410)">Jul</text><text y=".71em" transform="translate(0,9) translate(588.4212765957446,410)">Oct</text><text transform="translate(0,9) translate(671.8085106382979,410)"><tspan x="0" y=".71em">Jan</tspan><tspan x="0" dy="1em">2025</tspan></text><text y=".71em" transform="translate(0,9) translate(753.3829787234042,410)">Apr</text></g><g aria-label="line" fill="none" stroke="currentColor" stroke-width="1.5" stroke-linejoin="round" stroke-linecap="round"><path d="M60,410L60.604,409.736L61.209,408.772L61.813,408.253L62.417,407.884L63.021,407.276L63.626,406.797L64.23,406.348L64.834,405.44L65.438,404.721L66.043,403.868L66.647,402.546L67.251,401.3L67.855,400.653L68.46,399.717L69.064,399.081L69.668,398.352L70.272,397.399L70.877,396.757L71.481,396.128L72.085,395.275L72.689,394.328L73.294,393.657L73.898,392.513L74.502,391.971L75.106,391.466L75.711,390.554L76.315,389.68L76.919,389.008L77.523,388.071L78.128,387.137L78.732,386.287L79.336,384.968L79.94,383.922L80.545,383.316L81.149,382.685L81.753,382.21L82.357,381.826L82.962,381.114L83.566,380.418L84.17,379.932L84.774,378.809L85.379,377.635L85.983,376.583L86.587,375.308L87.191,374.443L87.796,373.707L88.4,372.704L89.004,371.865L89.609,371.258L90.213,370.164L90.817,369.105L91.421,368.118L92.026,366.703L92.63,365.36L93.234,364.661L93.838,363.624L94.443,362.688L95.047,361.849L95.651,360.662L96.255,359.547L96.86,358.578L97.464,357.413L98.068,356.297L98.672,355.336L99.277,354.042L99.881,353.247L100.485,352.529L101.089,351.528L101.694,350.708L102.298,350.095L102.902,349.306L103.506,348.453L104.111,347.659L104.715,346.617L105.319,345.584L105.923,344.995L106.528,344.178L107.132,343.54L107.736,343.121L108.34,342.471L108.945,341.825L109.549,341.138L110.153,340.25L110.757,339.347L111.362,338.642L111.966,337.665L112.57,336.979L113.174,336.531L113.779,335.503L114.383,334.792L114.987,334.407L115.591,333.763L116.196,333.141L116.8,332.495L117.404,331.606L118.009,330.833L118.613,330.167L119.217,329.589L119.821,329.075L120.426,328.584L121.03,327.777L121.634,327.318L122.238,326.851L122.843,326.093L123.447,325.234L124.051,324.561L124.655,323.694L125.26,323.11L125.864,322.568L126.468,321.782L127.072,321.244L127.677,320.732L128.281,320.049L128.885,319.514L129.489,318.868L130.094,318.184L130.698,317.563L131.302,317.048L131.906,316.509L132.511,316.038L133.115,315.594L133.719,314.969L134.323,314.494L134.928,314.065L135.532,313.357L136.136,312.437L136.74,311.766L137.345,310.893L137.949,310.37L138.553,309.771L139.157,309.153L139.762,308.588L140.366,308.191L140.97,307.403L141.574,306.785L142.179,306.136L142.783,305.193L143.387,304.499L143.991,303.892L144.596,303.272L145.2,302.595L145.804,302.071L146.409,301.558L147.013,300.879L147.617,300.479L148.221,299.948L148.826,299.468L149.43,299.018L150.034,298.383L150.638,297.925L151.243,297.447L151.847,296.807L152.451,296.349L153.055,295.927L153.66,295.469L154.264,294.931L154.868,294.424L155.472,293.896L156.077,293.323L156.681,292.874L157.285,292.324L157.889,291.861L158.494,291.401L159.098,290.763L159.702,290.232L160.306,289.813L160.911,289.263L161.515,288.74L162.119,288.362L162.723,287.712L163.328,287.217L163.932,286.706L164.536,286.138L165.14,285.655L165.745,285.368L166.349,284.841L166.953,284.412L167.557,283.9L168.162,283.292L168.766,282.811L169.37,282.28L169.974,281.697L170.579,281.166L171.183,280.699L171.787,279.939L172.391,279.321L172.996,278.965L173.6,278.396L174.204,277.89L174.809,277.585L175.413,277.045L176.017,276.697L176.621,276.282L177.226,275.779L177.83,275.309L178.434,274.938L179.038,274.351L179.643,273.921L180.247,273.532L180.851,272.986L181.455,272.495L182.06,272.108L182.664,271.516L183.268,271.139L183.872,270.711L184.477,270.167L185.081,269.726L185.685,269.224L186.289,268.65L186.894,268.148L187.498,267.72L188.102,267.23L188.706,266.653L189.311,266.202L189.915,265.779L190.519,265.332L191.123,264.991L191.728,264.407L192.332,264.042L192.936,263.628L193.54,263.11L194.145,262.696L194.749,262.194L195.353,261.526L195.957,261.023L196.562,260.726L197.166,260.044L197.77,259.542L198.374,259.095L198.979,258.472L199.583,258.051L200.187,257.599L200.791,257.077L201.396,256.549L202,256.092L202.604,255.417L203.209,254.897L203.813,254.439L204.417,253.884L205.021,253.273L205.626,252.648L206.23,251.729L206.834,251.168L207.438,250.744L208.043,250.171L208.647,249.711L209.251,249.377L209.855,248.857L210.46,248.398L211.064,248.076L211.668,247.552L212.272,247.075L212.877,246.729L213.481,246.175L214.085,245.657L214.689,245.264L215.294,244.745L215.898,244.097L216.502,243.551L217.106,242.869L217.711,242.387L218.315,241.92L218.919,241.23L219.523,240.713L220.128,240.232L220.732,239.655L221.336,239.177L221.94,238.858L222.545,238.395L223.149,238.047L223.753,237.663L224.357,237.199L224.962,236.733L225.566,236.302L226.17,235.871L226.774,235.426L227.379,235.049L227.983,234.631L228.587,234.216L229.191,233.866L229.796,233.462L230.4,233.045L231.004,232.596L231.609,232.057L232.213,231.673L232.817,231.257L233.421,230.822L234.026,230.503L234.63,230.161L235.234,229.804L235.838,229.585L236.443,229.317L237.047,228.706L237.651,228.283L238.255,227.886L238.86,227.348L239.464,227.122L240.068,226.821L240.672,226.537L241.277,226.31L241.881,225.967L242.485,225.618L243.089,225.216L243.694,224.795L244.298,224.123L244.902,223.553L245.506,223.247L246.111,222.834L246.715,222.55L247.319,222.208L247.923,221.813L248.528,221.459L249.132,221.178L249.736,220.746L250.34,220.272L250.945,219.921L251.549,219.444L252.153,219.202L252.757,218.963L253.362,218.643L253.966,218.342L254.57,218.074L255.174,217.637L255.779,217.273L256.383,216.902L256.987,216.399L257.591,216.023L258.196,215.823L258.8,215.453L259.404,215.18L260.009,214.936L260.613,214.627L261.217,214.324L261.821,213.975L262.426,213.517L263.03,213.027L263.634,212.535L264.238,212.023L264.843,211.653L265.447,211.372L266.051,211.023L266.655,210.731L267.26,210.415L267.864,209.991L268.468,209.706L269.072,209.44L269.677,208.846L270.281,208.339L270.885,208.027L271.489,207.704L272.094,207.473L272.698,207.29L273.302,206.904L273.906,206.648L274.511,206.394L275.115,205.899L275.719,205.366L276.323,204.966L276.928,204.423L277.532,204.136L278.136,203.872L278.74,203.419L279.345,203.126L279.949,202.847L280.553,202.45L281.157,202.027L281.762,201.756L282.366,201.307L282.97,201.019L283.574,200.833L284.179,200.434L284.783,200.166L285.387,200.003L285.991,199.758L286.596,199.507L287.2,199.086L287.804,198.59L288.409,198.092L289.013,197.76L289.617,197.433L290.221,197.242L290.826,196.955L291.43,196.618L292.034,196.432L292.638,196.238L293.243,195.905L293.847,195.701L294.451,195.421L295.055,195.114L295.66,194.839L296.264,194.66L296.868,194.413L297.472,194.278L298.077,194.094L298.681,193.843L299.285,193.674L299.889,193.561L300.494,193.166L301.098,192.779L301.702,192.4L302.306,192.022L302.911,191.733L303.515,191.554L304.119,191.263L304.723,191.082L305.328,190.829L305.932,190.459L306.536,190.157L307.14,189.892L307.745,189.497L308.349,189.216L308.953,188.944L309.557,188.624L310.162,188.361L310.766,188.063L311.37,187.623L311.974,187.361L312.579,187.115L313.183,186.858L313.787,186.561L314.391,186.269L314.996,185.946L315.6,185.76L316.204,185.644L316.809,185.368L317.413,185.137L318.017,184.958L318.621,184.743L319.226,184.539L319.83,184.379L320.434,184.126L321.038,183.894L321.643,183.764L322.247,183.465L322.851,183.183L323.455,183.061L324.06,182.884L324.664,182.745L325.268,182.591L325.872,182.298L326.477,182.004L327.081,181.789L327.685,181.589L328.289,181.382L328.894,181.123L329.498,180.92L330.102,180.773L330.706,180.599L331.311,180.311L331.915,180.131L332.519,179.912L333.123,179.546L333.728,179.25L334.332,179.098L334.936,178.861L335.54,178.553L336.145,178.309L336.749,177.994L337.353,177.754L337.957,177.485L338.562,177.17L339.166,176.926L339.77,176.698L340.374,176.408L340.979,176.16L341.583,175.934L342.187,175.579L342.791,175.367L343.396,175.203L344,174.86L344.604,174.739L345.209,174.531L345.813,174.196L346.417,174.022L347.021,173.82L347.626,173.569L348.23,173.416L348.834,173.26L349.438,173.103L350.043,172.988L350.647,172.773L351.251,172.48L351.855,172.21L352.46,171.88L353.064,171.487L353.668,171.307L354.272,171.093L354.877,170.887L355.481,170.602L356.085,170.284L356.689,170.046L357.294,169.875L357.898,169.595L358.502,169.26L359.106,168.79L359.711,168.499L360.315,168.141L360.919,167.935L361.523,167.746L362.128,167.491L362.732,167.382L363.336,167.221L363.94,166.815L364.545,166.369L365.149,166.043L365.753,165.588L366.357,165.335L366.962,165.121L367.566,164.862L368.17,164.608L368.774,164.391L369.379,164.051L369.983,163.848L370.587,163.51L371.191,163.005L371.796,162.651L372.4,162.395L373.004,162.016L373.609,161.763L374.213,161.578L374.817,161.188L375.421,160.874L376.026,160.524L376.63,160.179L377.234,159.777L377.838,159.241L378.443,158.658L379.047,158.34L379.651,158.009L380.255,157.527L380.86,157.199L381.464,156.953L382.068,156.637L382.672,156.37L383.277,156.1L383.881,155.668L384.485,155.29L385.089,155.134L385.694,154.797L386.298,154.508L386.902,154.175L387.506,153.847L388.111,153.65L388.715,153.361L389.319,152.93L389.923,152.532L390.528,152.267L391.132,151.859L391.736,151.655L392.34,151.393L392.945,151.098L393.549,150.906L394.153,150.678L394.757,150.376L395.362,150.135L395.966,149.893L396.57,149.443L397.174,149.192L397.779,148.978L398.383,148.786L398.987,148.606L399.591,148.368L400.196,148.145L400.8,148.009L401.404,147.839L402.009,147.477L402.613,147.249L403.217,147.077L403.821,146.738L404.426,146.502L405.03,146.402L405.634,146.2L406.238,145.929L406.843,145.726L407.447,145.45L408.051,145.15L408.655,144.863L409.26,144.42L409.864,144.113L410.468,143.915L411.072,143.879L411.677,143.875L412.281,143.873L412.885,143.87L413.489,143.867L414.094,143.862L414.698,143.857L415.302,143.833L415.906,143.815L416.511,143.804L417.115,143.776L417.719,143.729L418.323,143.697L418.928,143.655L419.532,143.573L420.136,143.463L420.74,143.187L421.345,143L421.949,142.825L422.553,142.668L423.157,142.517L423.762,142.345L424.366,142.126L424.97,141.93L425.574,141.697L426.179,141.456L426.783,141.242L427.387,140.982L427.991,140.784L428.596,140.633L429.2,140.414L429.804,140.179L430.409,140.077L431.013,139.924L431.617,139.698L432.221,139.571L432.826,139.437L433.43,139.239L434.034,139.081L434.638,138.85L435.243,138.656L435.847,138.541L436.451,138.366L437.055,138.213L437.66,138.068L438.264,137.969L438.868,137.844L439.472,137.77L440.077,137.637L440.681,137.497L441.285,137.318L441.889,137.066L442.494,136.906L443.098,136.803L443.702,136.581L444.306,136.413L444.911,136.26L445.515,136.1L446.119,135.878L446.723,135.725L447.328,135.511L447.932,135.365L448.536,135.253L449.14,135.081L449.745,134.889L450.349,134.69L450.953,134.561L451.557,134.383L452.162,134.231L452.766,134.04L453.37,133.769L453.974,133.566L454.579,133.305L455.183,133.16L455.787,133.032L456.391,132.854L456.996,132.677L457.6,132.528L458.204,132.328L458.809,132.101L459.413,131.96L460.017,131.705L460.621,131.48L461.226,131.297L461.83,131.032L462.434,130.88L463.038,130.762L463.643,130.669L464.247,130.54L464.851,130.377L465.455,130.199L466.06,129.826L466.664,129.64L467.268,129.357L467.872,129.224L468.477,129.095L469.081,128.935L469.685,128.698L470.289,128.618L470.894,128.445L471.498,128.253L472.102,128.081L472.706,127.818L473.311,127.493L473.915,127.323L474.519,127.038L475.123,126.906L475.728,126.73L476.332,126.411L476.936,126.178L477.54,126.019L478.145,125.761L478.749,125.486L479.353,125.337L479.957,124.997L480.562,124.844L481.166,124.69L481.77,124.467L482.374,124.237L482.979,124.081L483.583,123.821L484.187,123.619L484.791,123.407L485.396,123.096L486,122.786L486.604,122.563L487.209,122.348L487.813,122.064L488.417,121.893L489.021,121.717L489.626,121.559L490.23,121.333L490.834,121.139L491.438,120.931L492.043,120.74L492.647,120.536L493.251,120.307L493.855,120.238L494.46,120.131L495.064,119.969L495.668,119.842L496.272,119.537L496.877,119.359L497.481,119.234L498.085,119.068L498.689,118.713L499.294,118.591L499.898,118.412L500.502,118.17L501.106,117.988L501.711,117.869L502.315,117.711L502.919,117.613L503.523,117.479L504.128,117.325L504.732,117.166L505.336,116.878L505.94,116.676L506.545,116.539L507.149,116.286L507.753,116.104L508.357,115.92L508.962,115.783L509.566,115.644L510.17,115.54L510.774,115.364L511.379,115.166L511.983,115.08L512.587,114.962L513.191,114.834L513.796,114.715L514.4,114.573L515.004,114.404L515.609,114.219L516.213,114.019L516.817,113.908L517.421,113.791L518.026,113.602L518.63,113.434L519.234,113.329L519.838,113.139L520.443,112.965L521.047,112.827L521.651,112.661L522.255,112.488L522.86,112.303L523.464,112.049L524.068,111.702L524.672,111.485L525.277,111.254L525.881,111.096L526.485,110.943L527.089,110.731L527.694,110.583L528.298,110.468L528.902,110.326L529.506,110.179L530.111,110.016L530.715,109.841L531.319,109.595L531.923,109.418L532.528,109.135L533.132,108.868L533.736,108.594L534.34,108.318L534.945,108.072L535.549,107.79L536.153,107.487L536.757,107.335L537.362,107.135L537.966,106.773L538.57,106.584L539.174,106.414L539.779,106.178L540.383,106.016L540.987,105.933L541.591,105.445L542.196,105.024L542.8,104.605L543.404,104.155L544.009,103.791L544.613,103.53L545.217,103.122L545.821,102.693L546.426,102.429L547.03,102.18L547.634,101.879L548.238,101.601L548.843,101.292L549.447,100.95L550.051,100.725L550.655,100.586L551.26,100.332L551.864,100.188L552.468,100.036L553.072,99.835L553.677,99.646L554.281,99.425L554.885,99.159L555.489,98.892L556.094,98.688L556.698,98.481L557.302,98.298L557.906,98.137L558.511,98.025L559.115,97.943L559.719,97.847L560.323,97.726L560.928,97.583L561.532,97.484L562.136,97.324L562.74,97.217L563.345,97.091L563.949,96.98L564.553,96.841L565.157,96.729L565.762,96.526L566.366,96.38L566.97,96.22L567.574,96.096L568.179,95.913L568.783,95.723L569.387,95.555L569.991,95.426L570.596,95.269L571.2,95.153L571.804,95.02L572.409,94.934L573.013,94.827L573.617,94.71L574.221,94.613L574.826,94.443L575.43,94.305L576.034,94.186L576.638,94.066L577.243,93.923L577.847,93.797L578.451,93.635L579.055,93.531L579.66,93.348L580.264,93.1L580.868,92.863L581.472,92.533L582.077,92.39L582.681,92.228L583.285,92.058L583.889,91.952L584.494,91.775L585.098,91.598L585.702,91.422L586.306,91.189L586.911,90.779L587.515,90.598L588.119,90.48L588.723,90.226L589.328,90.074L589.932,89.992L590.536,89.823L591.14,89.682L591.745,89.572L592.349,89.376L592.953,89.154L593.557,88.937L594.162,88.628L594.766,88.509L595.37,88.404L595.974,88.254L596.579,88.121L597.183,88.046L597.787,87.955L598.391,87.822L598.996,87.754L599.6,87.628L600.204,87.515L600.809,87.431L601.413,87.325L602.017,87.261L602.621,87.158L603.226,87.008L603.83,86.881L604.434,86.786L605.038,86.59L605.643,86.436L606.247,86.297L606.851,86.092L607.455,86.034L608.06,85.959L608.664,85.824L609.268,85.744L609.872,85.66L610.477,85.553L611.081,85.485L611.685,85.404L612.289,85.208L612.894,85.086L613.498,85.043L614.102,84.99L614.706,84.915L615.311,84.805L615.915,84.7L616.519,84.539L617.123,84.454L617.728,84.279L618.332,84.034L618.936,83.854L619.54,83.585L620.145,83.394L620.749,83.271L621.353,83.155L621.957,83.04L622.562,82.906L623.166,82.802L623.77,82.712L624.374,82.555L624.979,82.4L625.583,82.231L626.187,82.142L626.791,81.986L627.396,81.923L628,81.846L628.604,81.693L629.209,81.595L629.813,81.495L630.417,81.382L631.021,81.239L631.626,81.107L632.23,80.966L632.834,80.883L633.438,80.767L634.043,80.629L634.647,80.509L635.251,80.396L635.855,80.244L636.46,80.137L637.064,80.015L637.668,79.826L638.272,79.638L638.877,79.563L639.481,79.457L640.085,79.336L640.689,79.256L641.294,79.147L641.898,79.062L642.502,79.016L643.106,78.91L643.711,78.856L644.315,78.828L644.919,78.755L645.523,78.654L646.128,78.602L646.732,78.543L647.336,78.432L647.94,78.257L648.545,78.143L649.149,77.98L649.753,77.917L650.357,77.826L650.962,77.755L651.566,77.656L652.17,77.558L652.774,77.507L653.379,77.436L653.983,77.315L654.587,77.221L655.191,77.132L655.796,76.972L656.4,76.813L657.004,76.729L657.609,76.578L658.213,76.494L658.817,76.343L659.421,76.23L660.026,76.175L660.63,76.109L661.234,75.996L661.838,75.905L662.443,75.801L663.047,75.617L663.651,75.562L664.255,75.426L664.86,75.315L665.464,75.226L666.068,75.155L666.672,75.068L667.277,75.003L667.881,74.918L668.485,74.826L669.089,74.68L669.694,74.559L670.298,74.307L670.902,74.127L671.506,73.983L672.111,73.813L672.715,73.684L673.319,73.565L673.923,73.36L674.528,73.149L675.132,73.037L675.736,72.845L676.34,72.729L676.945,72.658L677.549,72.525L678.153,72.434L678.757,72.335L679.362,72.266L679.966,72.119L680.57,72.031L681.174,71.926L681.779,71.826L682.383,71.708L682.987,71.624L683.591,71.529L684.196,71.443L684.8,71.347L685.404,71.207L686.009,71.105L686.613,70.925L687.217,70.817L687.821,70.703L688.426,70.562L689.03,70.426L689.634,70.279L690.238,70.119L690.843,70.007L691.447,69.94L692.051,69.801L692.655,69.683L693.26,69.576L693.864,69.44L694.468,69.285L695.072,69.065L695.677,68.787L696.281,68.588L696.885,68.48L697.489,68.359L698.094,68.267L698.698,68.161L699.302,68.012L699.906,67.918L700.511,67.842L701.115,67.644L701.719,67.47L702.323,67.384L702.928,67.232L703.532,67.107L704.136,66.99L704.74,66.865L705.345,66.697L705.949,66.499L706.553,66.37L707.157,66.242L707.762,66.153L708.366,66.045L708.97,65.949L709.574,65.908L710.179,65.723L710.783,65.643L711.387,65.514L711.991,65.35L712.596,65.214L713.2,65.021L713.804,64.84L714.409,64.714L715.013,64.59L715.617,64.383L716.221,64.278L716.826,64.167L717.43,63.983L718.034,63.868L718.638,63.731L719.243,63.578L719.847,63.578L720.451,63.578L721.055,63.578L721.66,63.578L722.264,63.578L722.868,63.578L723.472,63.578L724.077,63.578L724.681,63.578L725.285,63.578L725.889,63.578L726.494,63.578L727.098,63.578L727.702,63.578L728.306,63.578L728.911,63.578L729.515,63.578L730.119,63.578L730.723,63.578L731.328,63.578L731.932,63.578L732.536,63.578L733.14,63.578L733.745,63.578L734.349,63.578L734.953,63.578L735.557,63.578L736.162,63.578L736.766,63.578L737.37,63.578L737.974,63.578L738.579,63.578L739.183,63.578L739.787,63.578L740.391,63.578L740.996,63.578L741.6,63.578L742.204,63.578L742.809,63.578L743.413,63.52L744.017,63.445L744.621,63.336L745.226,63.231L745.83,63.139L746.434,62.993L747.038,62.919L747.643,62.798L748.247,62.719L748.851,62.56L749.455,62.489L750.06,62.358L750.664,62.308L751.268,62.246L751.872,62.071L752.477,61.98L753.081,61.874L753.685,61.824L754.289,61.751L754.894,61.626L755.498,61.549L756.102,61.475L756.706,61.449L757.311,61.372L757.915,61.339L758.519,61.267L759.123,61.217L759.728,61.098L760.332,60.976L760.936,60.86L761.54,60.821L762.145,60.752L762.749,60.697L763.353,60.662L763.957,60.64L764.562,60.539L765.166,60.464L765.77,60.377L766.374,60.343L766.979,60.278L767.583,60.217L768.187,60.118L768.791,60.09L769.396,60.043L770,60"/></g></svg>