<svg xmlns="http://www.w3.org/2000/svg" width="830" height="470" fill="currentColor" class="plot-d6a7b5" font-family="system-ui, sans-serif" font-size="10" style="--plot-background:white;display:block;height:intrinsic;max-width:100%;color:#1e90ff" text-anchor="middle" viewBox="0 0 830 470">
    <style>
        :where(.plot-d6a7b5 text),:where(.plot-d6a7b5 tspan){white-space:pre}
    </style>
    <path stroke="currentColor" stroke-opacity=".1" d="
M60
410
h710
M60
385.062
h710
M60
360.125
h710
M60
335.187
h710
M60
310.25
h710
M60
285.312
h710
M60
260.374
h710
M60
235.437
h710
M60
210.499
h710
M60
185.562
h710
M60
160.624
h710
M60
135.687
h710
M60
110.749
h710
M60
85.811
h710
M60
60.874
h710" aria-hidden="true" aria-label="y-grid"/>
    <path fill="none" stroke="currentColor" d="
M60
410
h-6
m6
-24.938
h-6
m6
-24.937
h-6
m6
-24.938
h-6
m6
-24.937
h-6
m6
-24.938
h-6
m6
-24.938
h-6
m6
-24.937
h-6
m6
-24.937
h-6
m6
-24.938
h-6
m6
-24.938
h-6
m6
-24.937
h-6
m6
-24.938
h-6
m6
-24.938
h-6
m6
-24.937
h-6" aria-hidden="true" aria-label="y-axis tick"/>
    <g aria-label="y-axis tick label" font-variant="tabular-nums" text-anchor="end">
        <text y=".32em" transform="translate(51 410)">0</text>
        <text y=".32em" transform="translate(51 385.062)">50,000</text>
        <text y=".32em" transform="translate(51 360.125)">100,000</text>
        <text y=".32em" transform="translate(51 335.187)">150,000</text>
        <text y=".32em" transform="translate(51 310.25)">200,000</text>
        <text y=".32em" transform="translate(51 285.312)">250,000</text>
        <text y=".32em" transform="translate(51 260.374)">300,000</text>
        <text y=".32em" transform="translate(51 235.437)">350,000</text>
        <text y=".32em" transform="translate(51 210.5)">400,000</text>
        <text y=".32em" transform="translate(51 185.562)">450,000</text>
        <text y=".32em" transform="translate(51 160.624)">500,000</text>
        <text y=".32em" transform="translate(51 135.687)">550,000</text>
        <text y=".32em" transform="translate(51 110.749)">600,000</text>
        <text y=".32em" transform="translate(51 85.811)">650,000</text>
        <text y=".32em" transform="translate(51 60.874)">700,000</text>
    </g>
    <text y=".71em" aria-label="y-axis label" text-anchor="start" transform="translate(3 3)">↑ Total Vestiges</text>
    <path fill="none" stroke="currentColor" d="
M82.817
410
v6
m61.068
-6
v6
m61.739
-6
v6
m61.739
-6
v6
m61.068
-6
v6
m61.069
-6
v6
m61.738
-6
v6
m61.739
-6
v6
m60.397
-6
v6
m61.068
-6
v6
m61.739
-6
v6
m61.739
-6
v6" aria-hidden="true" aria-label="x-axis tick"/>
    <g aria-label="x-axis tick label" font-variant="tabular-nums">
        <text transform="translate(82.817 419)"><tspan x="0" y=".71em">Apr</tspan><tspan x="0" dy="1em">2023</tspan></text>
        <text y=".71em" transform="translate(143.885 419)">Jul</text>
        <text y=".71em" transform="translate(205.624 419)">Oct</text>
        <text transform="translate(267.363 419)"><tspan x="0" y=".71em">Jan</tspan><tspan x="0" dy="1em">2024</tspan></text>
        <text y=".71em" transform="translate(328.431 419)">Apr</text>
        <text y=".71em" transform="translate(389.5 419)">Jul</text>
        <text y=".71em" transform="translate(451.238 419)">Oct</text>
        <text transform="translate(512.977 419)"><tspan x="0" y=".71em">Jan</tspan><tspan x="0" dy="1em">2025</tspan></text>
        <text y=".71em" transform="translate(573.374 419)">Apr</text>
        <text y=".71em" transform="translate(634.442 419)">Jul</text>
        <text y=".71em" transform="translate(696.181 419)">Oct</text>
        <text transform="translate(757.92 419)"><tspan x="0" y=".71em">Jan</tspan><tspan x="0" dy="1em">2026</tspan></text>
    </g>
    <path fill="none" stroke="currentColor" stroke-linecap="round" stroke-linejoin="round" stroke-width="1.5" d="
m60
410
.447
-.25
.448
-.916
.447
-.494
.448
-.35
.447
-.578
.447
-.454
.448
-.427
.447
-.863
.447
-.682
.448
-.811
.447
-1.255
.448
-1.184
.447
-.614
.447
-.89
.448
-.604
.447
-.692
.448
-.905
.447
-.61
.447
-.597
.448
-.811
.447
-.899
.447
-.637
.448
-1.087
.447
-.515
.448
-.48
.447
-.866
.447
-.83
.448
-.638
.447
-.89
.448
-.887
.447
-.808
.447
-1.252
.448
-.994
.447
-.576
.447
-.599
.448
-.451
.447
-.365
.448
-.676
.447
-.662
.447
-.461
.448
-1.067
.447
-1.115
.448
-1
.447
-1.211
.447
-.82
.448
-.7
.447
-.952
.447
-.797
.448
-.577
.447
-1.04
.448
-1.005
.447
-.937
.447
-1.345
.448
-1.276
.447
-.664
.448
-.985
.447
-.889
.447
-.796
.448
-1.128
.447
-1.059
.447
-.92
.448
-1.106
.447
-1.061
.448
-.913
.447
-1.228
.447
-.756
.448
-.682
.447
-.951
.448
-.779
.447
-.582
.447
-.75
.448
-.809
.447
-.755
.447
-.99
.448
-.981
.447
-.559
.448
-.776
.447
-.606
.447
-.399
.448
-.616
.447
-.614
.448
-.652
.447
-.844
.447
-.858
.448
-.67
.447
-.928
.447
-.651
.448
-.425
.447
-.977
.448
-.676
.447
-.365
.447
-.612
.448
-.59
.447
-.615
.448
-.844
.447
-.734
.447
-.632
.448
-.55
.447
-.488
.448
-.466
.447
-.767
.447
-.436
.448
-.443
.447
-.72
.447
-.816
.448
-.64
.447
-.823
.448
-.554
.447
-.516
.447
-.746
.448
-.511
.447
-.486
.448
-.65
.447
-.507
.447
-.614
.448
-.65
.447
-.59
.447
-.489
.448
-.512
.447
-.447
.448
-.422
.447
-.593
.447
-.452
.448
-.407
.447
-.673
.448
-.874
.447
-.637
.447
-.829
.448
-.497
.447
-.569
.447
-.587
.448
-.537
.447
-.377
.448
-.748
.447
-.587
.447
-.617
.448
-.895
.447
-.66
.448
-.576
.447
-.589
.447
-.643
.448
-.498
.447
-.487
.447
-.645
.448
-.38
.447
-.504
.448
-.456
.447
-.428
.447
-.603
.448
-.435
.447
-.454
.448
-.608
.447
-.434
.447
-.402
.448
-.434
.447
-.512
.447
-.481
.448
-.501
.447
-.545
.448
-.427
.447
-.522
.447
-.44
.448
-.437
.447
-.606
.448
-.504
.447
-.398
.447
-.522
.448
-.497
.447
-.359
.447
-.617
.448
-.471
.447
-.485
.448
-.54
.447
-.458
.447
-.273
.448
-.5
.447
-.408
.448
-.486
.447
-.578
.447
-.457
.448
-.504
.447
-.554
.447
-.505
.448
-.443
.447
-.722
.448
-.587
.447
-.338
.447
-.54
.448
-.481
.447
-.29
.448
-.512
.447
-.332
.447
-.393
.448
-.478
.447
-.446
.447
-.353
.448
-.558
.447
-.408
.448
-.37
.447
-.518
.447
-.467
.448
-.367
.447
-.562
.448
-.358
.447
-.407
.447
-.517
.448
-.419
.447
-.476
.447
-.545
.448
-.478
.447
-.406
.448
-.466
.447
-.547
.447
-.429
.448
-.402
.447
-.425
.448
-.323
.447
-.555
.447
-.347
.448
-.393
.447
-.492
.447
-.393
.448
-.477
.447
-.634
.448
-.478
.447
-.282
.447
-.649
.448
-.476
.447
-.424
.448
-.592
.447
-.4
.447
-.43
.448
-.495
.447
-.502
.447
-.434
.448
-.641
.447
-.494
.448
-.435
.447
-.527
.447
-.58
.448
-.594
.447
-.873
.448
-.533
.447
-.402
.447
-.545
.448
-.437
.447
-.317
.447
-.494
.448
-.436
.447
-.306
.448
-.497
.447
-.454
.447
-.328
.448
-.527
.447
-.491
.448
-.374
.447
-.493
.447
-.615
.448
-.519
.447
-.648
.447
-.458
.448
-.443
.447
-.655
.448
-.492
.447
-.456
.447
-.549
.448
-.453
.447
-.304
.448
-.439
.447
-.331
.447
-.364
.448
-.441
.447
-.443
.447
-.41
.448
-.409
.447
-.422
.448
-.359
.447
-.397
.447
-.394
.448
-.332
.447
-.384
.448
-.396
.447
-.427
.447
-.511
.448
-.366
.447
-.394
.447
-.414
.448
-.303
.447
-.325
.448
-.339
.447
-.208
.447
-.254
.448
-.581
.447
-.401
.448
-.378
.447
-.511
.447
-.214
.448
-.286
.447
-.27
.448
-.215
.447
-.326
.447
-.332
.448
-.381
.447
-.4
.447
-.639
.448
-.541
.447
-.291
.448
-.392
.447
-.27
.447
-.325
.448
-.375
.447
-.336
.448
-.267
.447
-.41
.447
-.45
.448
-.334
.447
-.453
.447
-.23
.448
-.227
.447
-.304
.448
-.286
.447
-.255
.447
-.414
.448
-.346
.447
-.353
.448
-.477
.447
-.358
.447
-.189
.448
-.352
.447
-.259
.447
-.232
.448
-.294
.447
-.287
.448
-.331
.447
-.436
.447
-.466
.448
-.467
.447
-.486
.448
-.351
.447
-.267
.447
-.332
.448
-.277
.447
-.3
.447
-.403
.448
-.27
.447
-.254
.448
-.563
.447
-.482
.447
-.297
.448
-.306
.447
-.22
.448
-.174
.447
-.366
.447
-.243
.448
-.242
.447
-.47
.447
-.507
.448
-.38
.447
-.515
.448
-.273
.447
-.25
.447
-.43
.448
-.279
.447
-.265
.448
-.377
.447
-.402
.447
-.257
.448
-.426
.447
-.274
.447
-.177
.448
-.379
.447
-.254
.448
-.155
.447
-.233
.447
-.239
.448
-.399
.447
-.471
.448
-.473
.447
-.315
.447
-.312
.448
-.181
.447
-.273
.447
-.32
.448
-.176
.447
-.185
.448
-.316
.447
-.193
.447
-.266
.448
-.292
.447
-.261
.448
-.17
.447
-.234
.447
-.129
.448
-.175
.447
-.238
.447
-.161
.448
-.107
.447
-.375
.448
-.368
.447
-.36
.447
-.359
.448
-.274
.447
-.17
.448
-.277
.447
-.172
.447
-.24
.448
-.352
.447
-.286
.447
-.252
.448
-.375
.447
-.267
.448
-.258
.447
-.305
.447
-.25
.448
-.283
.447
-.418
.448
-.248
.447
-.234
.447
-.244
.448
-.282
.447
-.278
.447
-.306
.448
-.177
.447
-.11
.448
-.262
.447
-.22
.447
-.169
.448
-.205
.447
-.194
.448
-.152
.447
-.24
.447
-.22
.448
-.124
.447
-.283
.447
-.269
.448
-.116
.447
-.168
.448
-.132
.447
-.146
.447
-.279
.448
-.279
.447
-.203
.448
-.191
.447
-.196
.447
-.246
.448
-.193
.447
-.14
.447
-.165
.448
-.274
.447
-.171
.448
-.208
.447
-.348
.447
-.28
.448
-.145
.447
-.225
.448
-.293
.447
-.232
.447
-.299
.448
-.227
.447
-.256
.447
-.299
.448
-.232
.447
-.217
.448
-.275
.447
-.236
.447
-.215
.448
-.336
.447
-.202
.448
-.156
.447
-.325
.447
-.116
.448
-.197
.447
-.318
.447
-.165
.448
-.192
.447
-.239
.448
-.145
.447
-.148
.447
-.149
.448
-.11
.447
-.204
.448
-.278
.447
-.257
.447
-.313
.448
-.373
.447
-.172
.447
-.202
.448
-.196
.447
-.271
.448
-.302
.447
-.226
.447
-.163
.448
-.265
.447
-.319
.448
-.446
.447
-.276
.447
-.34
.448
-.196
.447
-.18
.448
-.242
.447
-.104
.447
-.152
.448
-.386
.447
-.423
.447
-.311
.448
-.431
.447
-.24
.448
-.204
.447
-.246
.447
-.242
.448
-.205
.447
-.323
.448
-.193
.447
-.322
.447
-.479
.448
-.336
.447
-.243
.447
-.36
.448
-.24
.447
-.176
.448
-.37
.447
-.299
.447
-.332
.448
-.328
.447
-.382
.448
-.509
.447
-.554
.447
-.302
.448
-.314
.447
-.458
.447
-.312
.448
-.233
.447
-.3
.448
-.255
.447
-.255
.447
-.411
.448
-.359
.447
-.148
.448
-.32
.447
-.275
.447
-.316
.448
-.312
.447
-.187
.447
-.274
.448
-.409
.447
-.378
.448
-.253
.447
-.387
.447
-.194
.448
-.248
.447
-.281
.448
-.182
.447
-.217
.447
-.287
.448
-.228
.447
-.231
.447
-.427
.448
-.238
.447
-.203
.448
-.183
.447
-.171
.447
-.226
.448
-.211
.447
-.13
.448
-.161
.447
-.344
.447
-.216
.448
-.164
.447
-.322
.447
-.224
.448
-.095
.447
-.192
.448
-.258
.447
-.192
.447
-.263
.448
-.285
.447
-.272
.448
-.421
.447
-.292
.447
-.188
.448
-.033
.447
-.004
.447
-.002
.448
-.003
.447
-.003
.448
-.005
.447
-.005
.447
-.022
.448
-.017
.447
-.011
.448
-.027
.447
-.044
.447
-.031
.448
-.04
.447
-.078
.447
-.104
.448
-.262
.447
-.178
.448
-.166
.447
-.149
.447
-.143
.448
-.164
.447
-.208
.448
-.186
.447
-.221
.447
-.23
.448
-.203
.447
-.246
.447
-.188
.448
-.144
.447
-.208
.448
-.223
.447
-.097
.447
-.145
.448
-.215
.447
-.121
.448
-.127
.447
-.188
.447
-.15
.448
-.219
.447
-.184
.447
-.11
.448
-.167
.447
-.145
.448
-.137
.447
-.095
.447
-.118
.448
-.07
.447
-.126
.448
-.134
.447
-.17
.447
-.239
.448
-.152
.447
-.098
.447
-.21
.448
-.161
.447
-.145
.448
-.151
.447
-.211
.447
-.146
.448
-.203
.447
-.139
.448
-.106
.447
-.164
.447
-.181
.448
-.189
.447
-.124
.447
-.169
.448
-.144
.447
-.181
.448
-.257
.447
-.193
.447
-.249
.448
-.137
.447
-.122
.448
-.169
.447
-.168
.447
-.141
.448
-.19
.447
-.216
.447
-.135
.448
-.241
.447
-.214
.448
-.174
.447
-.251
.447
-.145
.448
-.112
.447
-.088
.448
-.123
.447
-.155
.447
-.168
.448
-.355
.447
-.176
.447
-.269
.448
-.127
.447
-.123
.448
-.151
.447
-.225
.447
-.077
.448
-.164
.447
-.182
.448
-.163
.447
-.25
.447
-.309
.448
-.161
.447
-.271
.447
-.125
.448
-.168
.447
-.303
.448
-.221
.447
-.151
.447
-.245
.448
-.262
.447
-.141
.448
-.322
.447
-.147
.447
-.146
.448
-.211
.447
-.219
.448
-.148
.447
-.247
.447
-.192
.448
-.201
.447
-.296
.447
-.294
.448
-.212
.447
-.204
.448
-.27
.447
-.162
.447
-.167
.448
-.151
.447
-.214
.448
-.185
.447
-.197
.447
-.182
.448
-.193
.447
-.217
.447
-.067
.448
-.1
.447
-.154
.448
-.122
.447
-.289
.447
-.17
.448
-.118
.447
-.158
.448
-.337
.447
-.115
.447
-.17
.448
-.23
.447
-.173
.447
-.114
.448
-.15
.447
-.093
.448
-.127
.447
-.146
.447
-.151
.448
-.274
.447
-.192
.448
-.13
.447
-.24
.447
-.173
.448
-.174
.447
-.131
.447
-.132
.448
-.098
.447
-.168
.448
-.188
.447
-.082
.447
-.112
.448
-.121
.447
-.113
.448
-.135
.447
-.16
.447
-.176
.448
-.19
.447
-.106
.447
-.111
.448
-.18
.447
-.159
.448
-.1
.447
-.18
.447
-.166
.448
-.131
.447
-.157
.448
-.164
.447
-.176
.447
-.241
.448
-.33
.447
-.206
.447
-.219
.448
-.15
.447
-.146
.448
-.201
.447
-.141
.447
-.109
.448
-.135
.447
-.14
.448
-.155
.447
-.165
.447
-.234
.448
-.168
.447
-.269
.447
-.254
.448
-.26
.447
-.263
.448
-.233
.447
-.268
.447
-.287
.448
-.145
.447
-.19
.448
-.344
.447
-.179
.447
-.162
.448
-.224
.447
-.154
.447
-.079
.448
-.463
.447
-.4
.448
-.398
.447
-.428
.447
-.345
.448
-.248
.447
-.388
.448
-.407
.447
-.251
.447
-.237
.448
-.286
.447
-.264
.447
-.293
.448
-.325
.447
-.214
.448
-.132
.447
-.241
.447
-.136
.448
-.145
.447
-.191
.448
-.18
.447
-.21
.447
-.253
.448
-.252
.447
-.195
.447
-.196
.448
-.174
.447
-.153
.448
-.106
.447
-.079
.447
-.09
.448
-.116
.447
-.135
.448
-.094
.447
-.152
.447
-.102
.448
-.12
.447
-.105
.447
-.132
.448
-.107
.447
-.192
.448
-.139
.447
-.152
.447
-.117
.448
-.174
.447
-.181
.448
-.159
.447
-.123
.447
-.149
.448
-.11
.447
-.126
.447
-.082
.448
-.102
.447
-.111
.448
-.092
.447
-.162
.447
-.131
.448
-.113
.447
-.114
.448
-.136
.447
-.119
.447
-.154
.448
-.099
.447
-.174
.447
-.236
.448
-.225
.447
-.313
.448
-.135
.447
-.155
.447
-.161
.448
-.1
.447
-.169
.448
-.168
.447
-.168
.447
-.22
.448
-.39
.447
-.172
.447
-.112
.448
-.241
.447
-.144
.448
-.079
.447
-.16
.447
-.133
.448
-.106
.447
-.185
.448
-.211
.447
-.207
.447
-.293
.448
-.113
.447
-.1
.447
-.143
.448
-.126
.447
-.071
.448
-.086
.447
-.127
.447
-.064
.448
-.12
.447
-.107
.448
-.08
.447
-.1
.447
-.061
.448
-.098
.447
-.143
.448
-.12
.447
-.091
.447
-.186
.448
-.146
.447
-.132
.447
-.194
.448
-.056
.447
-.072
.448
-.128
.447
-.076
.447
-.079
.448
-.102
.447
-.065
.448
-.077
.447
-.186
.447
-.115
.448
-.041
.447
-.05
.447
-.072
.448
-.104
.447
-.1
.448
-.153
.447
-.081
.447
-.166
.448
-.233
.447
-.171
.448
-.255
.447
-.182
.447
-.116
.448
-.111
.447
-.109
.447
-.127
.448
-.099
.447
-.085
.448
-.149
.447
-.148
.447
-.16
.448
-.085
.447
-.148
.448
-.06
.447
-.073
.447
-.146
.448
-.092
.447
-.095
.447
-.108
.448
-.136
.447
-.125
.448
-.134
.447
-.079
.447
-.11
.448
-.13
.447
-.115
.448
-.107
.447
-.145
.447
-.101
.448
-.117
.447
-.179
.447
-.179
.448
-.07
.447
-.101
.448
-.115
.447
-.076
.447
-.103
.448
-.082
.447
-.043
.448
-.101
.447
-.051
.447
-.027
.448
-.069
.447
-.096
.447
-.05
.448
-.055
.447
-.106
.448
-.166
.447
-.109
.447
-.154
.448
-.06
.447
-.086
.448
-.068
.447
-.094
.447
-.093
.448
-.049
.447
-.067
.447
-.115
.448
-.089
.447
-.084
.448
-.153
.447
-.151
.447
-.079
.448
-.144
.447
-.079
.448
-.144
.447
-.108
.447
-.051
.448
-.064
.447
-.107
.447
-.086
.448
-.098
.447
-.176
.448
-.052
.447
-.129
.447
-.105
.448
-.085
.447
-.067
.448
-.083
.447
-.062
.447
-.081
.448
-.087
.447
-.139
.447
-.115
.448
-.239
.447
-.171
.448
-.136
.447
-.162
.447
-.122
.448
-.114
.447
-.194
.448
-.201
.447
-.106
.447
-.183
.448
-.11
.447
-.068
.447
-.125
.448
-.086
.447
-.095
.448
-.066
.447
-.139
.447
-.084
.448
-.099
.447
-.095
.448
-.112
.447
-.08
.447
-.091
.448
-.081
.447
-.091
.447
-.133
.448
-.097
.447
-.171
.448
-.103
.447
-.108
.447
-.134
.448
-.13
.447
-.139
.448
-.152
.447
-.106
.447
-.064
.448
-.132
.447
-.112
.447
-.101
.448
-.13
.447
-.148
.448
-.208
.447
-.264
.447
-.189
.448
-.103
.447
-.114
.448
-.088
.447
-.1
.447
-.142
.448
-.09
.447
-.072
.447
-.188
.448
-.165
.447
-.082
.448
-.144
.447
-.119
.447
-.111
.448
-.119
.447
-.159
.448
-.188
.447
-.123
.447
-.122
.448
-.084
.447
-.103
.447
-.091
.448
-.039
.447
-.175
.448
-.076
.447
-.123
.447
-.156
.448
-.129
.447
-.183
.448
-.172
.447
-.12
.447
-.118
.448
-.196
.447
-.1
.447
-.106
.448
-.174
.447
-.11
.448
-.129
.447
-.179
.447
-.089
.448
-.097
.447
-.154
.448
-.104
.447
-.191
.447
-.105
.448
-.178
.447
-.152
.448
-.096
.447
-.088
.447
-.119
.448
-.233
.447
-.225
.447
-.146
.448
-.196
.447
-.126
.448
-.147
.447
-.224
.447
-.17
.448
-.145
.447
-.148
.448
-.099
.447
-.123
.447
-.114
.448
-.129
.447
-.115
.447
-.133
.448
-.104
.447
-.124
.448
-.182
.447
-.139
.447
-.086
.448
-.082
.447
-.101
.448
-.097
.447
-.094
.447
-.064
.448
-.067
.447
-.112
.447
-.057
.448
-.071
.447
-.104
.448
-.1
.447
-.087
.447
-.138
.448
-.071
.447
-.115
.448
-.075
.447
-.151
.447
-.067
.448
-.125
.447
-.048
.447
-.058
.448
-.166
.447
-.087
.448
-.101
.447
-.047
.447
-.07
.448
-.118
.447
-.073
.448
-.071
.447
-.024
.447
-.073
.448
-.031
.447
-.069
.447
-.048
.448
-.112
.447
-.116
.448
-.111
.447
-.037
.447
-.065
.448
-.052
.447
-.034
.448
-.021
.447
-.096
.447
-.071
.448
-.082
.447
-.033
.447
-.062
.448
-.058
.447
-.094
.448
-.026
.447
-.045
.447
-.041
.448
-.087
.447
-.086
.448
-.062
.447
-.054
.447
-.053
.448
-.041
.447
-.035
.447
-.019
.448
-.019
.447
-.039
.448
-.062
.447
-.012
.447
-.033
.448
-.015
.447
-.027
.448
-.017
.447
-.015
.447
-.018
.448
-.013
.447
-.008
.447
-.028
.448
-.051
.447
-.02
.448
-.03
.447
-.002
.447
-.039
.448
-.034
.447
-.042
.448
-.024
.447
-.077
.447
-.029
.448
-.021
.447
-.029
.447
-.039
.448
-.037
.447
-.011
.448
-.008
.447
-.015
.447
-.017
.448
-.027
.447
-.039
.448
-.035
.447
-.029
.447
-.049
.448
-.062
.447
-.04
.447
-.039
.448
-.042
.447
-.013
.448
-.041
.447
-.059
.447
-.029
.448
-.073
.447
-.066
.448
-.043
.447
-.063
.447
-.026
.448
-.024
.447
-.02
.447
-.053
.448
-.087
.447
-.019
.448
-.074
.447
-.055
.447
-.029
.448
-.027
.447
-.017
.448
-.033
.447
-.039
.447
-.055
.448
-.05
.447
-.061
.447
-.049
.448
-.014
.447
-.06
.448
-.031
.447
-.023
.447
-.001
.448
-.026
.447
-.027
.448
-.034
.447
-.045
.447
-.016
.448
-.035
.447
-.017
.447
-.018
.448
-.019
.447
-.022
.448
-.017
.447
-.042
.447
-.022
.448
-.028
.447
-.069
.448
-.045
.447
-.029
.447
-.041
.448
-.06
.447
-.054
.447
-.025
.448
-.043
.447
-.052
.448
-.04
.447
-.027
.447
-.044
.448
-.071
.447
-.013
.448
-.012
.447
-.036
.447
-.07
.448
-.029
.447
-.074
.447
-.048
.448
-.03
.447
-.094
.448
-.062
.447
-.024
.447
-.062
.448
-.018
.447
-.041
.448
-.004
.447
-.031
.447
-.018
.448
-.016
.447
-.034
.448
-.028
.447
-.052
.447
-.049
.448
-.088
.447
-.033
.447
-.039
.448
-.014
.447
-.047
.448
-.041
.447
-.072
.447
-.017
.448
-.032
.447
-.056
.448
-.051
.447
-.018
.447
-.051
.448
-.04
.447
-.005
.447
-.029
.448
-.037
.447
-.051
.448
-.036
.447
-.033
.447
-.023
.448
-.061
.447
-.072
.448
-.039
.447
-.025
.447
-.072
.448
-.033
.447
-.031
.447
-.015
.448
-.027
.447
-.021
.448
-.059
.447
-.032
.447
-.015
.448
-.013
.447
-.047
.448
-.007
.447
-.041
.447
-.034
.448
-.025
.447
-.008
.447
-.001
.448
-.011
.447
-.008
.448
-.015
.447
-.03
.447
-.013
.448
-.014
.447
-.014
.448
-.012
.447
-.027
.447
-.059
.448
-.008
.447
-.039
.447
-.073
.448
-.108
.447
-.084
.448
-.022
.447
-.024
.447
-.033
.448
-.024
.447
-.019
.448
-.033
.447
-.052
.447
-.062
.448
-.032
.447
-.018
.447
-.003
.448
-.025
.447
-.064
.448
-.026
.447
-.022
.447
-.03
.448
-.027
.447
-.049
.448
-.036
.447
-.068
.447
-.003
.448
-.004
.447
-.017
.447
-.025
.448
-.001
.447
-.068
.448
-.022
.447
-.051
.447
-.06
h.448
l.447
-.003
.448
-.005
.447
-.009
.447
-.012
.448
-.015
.447
-.005
.447
-.038
.448
-.02
.447
-.018
.448
-.008
.447
-.003
.447
-.004
.448
-.002
.447
-.002
.448
-.002
.447
-.025
.447
-.039
.448
-.091
.447
-.096
.447
-.052
.448
-.014
h.447
l.448
-.036
.447
-.036
.447
-.024
.448
-.032
.447
-.079
.448
-.065
.447
-.036
.447
-.061
.448
-.031
.447
-.02
.447
-.028
.448
-.016
.447
-.044
.448
-.049
.447
-.022
.447
-.007
.448
-.051
.447
-.046
.448
-.066
.447
-.018
.447
-.002
.448
-.005
.447
-.017
.447
-.025
.448
-.015
.447
-.006
.448
-.014
.447
-.003
.447
-.025
.448
-.028
.447
-.044
.448
-.008
.447
-.016
.447
-.019
.448
-.016
.447
-.037
.447
-.033
.448
-.043
.447
-.024
.448
-.009
.447
-.016
.447
-.021
.448
-.033
.447
-.007
.448
-.018
.447
-.039
.447
-.041
.448
-.004
.447
-.026
.447
-.019
.448
-.017
.447
-.011
.448
-.019
.447
-.002
.447
-.002
.448
-.021
h.447
l.448
-.022
.447
-.027
h.447
l.448
-.013
.447
-.014
.447
-.023
.448
-.028
.447
-.032
.448
-.006
.447
-.017
.447
-.003
.448
-.01
.447
-.016
.448
-.049
.447
-.004
.447
-.025
.448
-.022
.447
-.008
.447
-.028
.448
-.026
.447
-.032
.448
-.041
.447
-.042
.447
-.028
.448
-.049
.447
-.008
.448
-.017
.447
-.012
.447
-.011
.448
-.004
.447
-.001
.448
-.003
.447
-.016
.447
-.015
.448
-.008
.447
-.015
.447
-.028
.448
-.011
.447
-.039
.448
-.013
.447
-.013
.447
-.013
.448
-.02
.447
-.009
.448
-.012
.447
-.042
.447
-.013
.448
-.024
.447
-.026
.447
-.003
.448
-.012
.447
-.022
.448
-.023
.447
-.003
.447
-.04
.448
-.023
.447
-.011
.448
-.014
.447
-.041
.447
-.016
.448
-.023
.447
-.014
.447
-.013
.448
-.042
.447
-.001
h.448
l.447
-.035
.447
-.058
.448
-.029
.447
-.004
.448
-.003
.447
-.001
.447
-.015
.448
-.012
.447
-.016
.447
-.048
.448
-.032
.447
-.024
.448
-.013
.447
-.053
.447
-.044
.448
-.009
.447
-.028
.448
-.01
.447
-.017
.447
-.004
.448
-.021
.447
-.016
.447
-.025
.448
-.034
.447
-.099
.448
-.044
.447
-.035
.447
-.066
.448
-.054
.447
-.025
.448
-.076
.447
-.006
.447
-.04
.448
-.015
.447
-.04
.447
-.014
.448
-.045
.447
-.022
.448
-.029
.447
-.04
.447
-.032
.448
-.045
.447
-.052
.448
-.014
.447
-.012
.447
-.059
.448
-.032
.447
-.034
.447
-.043
.448
-.03
.447
-.031
.448
-.024
L770
60" aria-label="line"/>
</svg>
