<svg xmlns="http://www.w3.org/2000/svg" width="830" height="470" fill="currentColor" class="plot-d6a7b5" font-family="system-ui, sans-serif" font-size="10" style="--plot-background:white;display:block;height:intrinsic;max-width:100%;color:#1e90ff" text-anchor="middle" viewBox="0 0 830 470">
    <style>
        :where(.plot-d6a7b5 text),:where(.plot-d6a7b5 tspan){white-space:pre}
    </style>
    <path stroke="currentColor" stroke-opacity=".1" d="
M60
410
h710
M60
362.919
h710
M60
315.838
h710
M60
268.757
h710
M60
221.676
h710
M60
174.595
h710
M60
127.514
h710
M60
80.433
h710" aria-hidden="true" aria-label="y-grid"/>
    <path fill="none" stroke="currentColor" d="
M60
410
h-6
m6
-47.081
h-6
m6
-47.081
h-6
m6
-47.081
h-6
m6
-47.081
h-6
m6
-47.081
h-6
m6
-47.081
h-6
m6
-47.081
h-6" aria-hidden="true" aria-label="y-axis tick"/>
    <g aria-label="y-axis tick label" font-variant="tabular-nums" text-anchor="end">
        <text y=".32em" transform="translate(51 410)">0</text>
        <text y=".32em" transform="translate(51 362.919)">2,000</text>
        <text y=".32em" transform="translate(51 315.838)">4,000</text>
        <text y=".32em" transform="translate(51 268.757)">6,000</text>
        <text y=".32em" transform="translate(51 221.676)">8,000</text>
        <text y=".32em" transform="translate(51 174.595)">10,000</text>
        <text y=".32em" transform="translate(51 127.514)">12,000</text>
        <text y=".32em" transform="translate(51 80.433)">14,000</text>
    </g>
    <text y=".71em" aria-label="y-axis label" text-anchor="start" transform="translate(3 3)">↑ Visible vestiges (8 days)</text>
    <path fill="none" stroke="currentColor" d="
M81.813
410
v6
m58.383
-6
v6
m59.024
-6
v6
m59.024
-6
v6
m58.383
-6
v6
m58.382
-6
v6
m59.024
-6
v6
m59.024
-6
v6
m57.741
-6
v6
m58.382
-6
v6
m59.025
-6
v6
m59.024
-6
v6" aria-hidden="true" aria-label="x-axis tick"/>
    <g aria-label="x-axis tick label" font-variant="tabular-nums">
        <text transform="translate(81.813 419)"><tspan x="0" y=".71em">Apr</tspan><tspan x="0" dy="1em">2023</tspan></text>
        <text y=".71em" transform="translate(140.196 419)">Jul</text>
        <text y=".71em" transform="translate(199.22 419)">Oct</text>
        <text transform="translate(258.244 419)"><tspan x="0" y=".71em">Jan</tspan><tspan x="0" dy="1em">2024</tspan></text>
        <text y=".71em" transform="translate(316.627 419)">Apr</text>
        <text y=".71em" transform="translate(375.009 419)">Jul</text>
        <text y=".71em" transform="translate(434.033 419)">Oct</text>
        <text transform="translate(493.057 419)"><tspan x="0" y=".71em">Jan</tspan><tspan x="0" dy="1em">2025</tspan></text>
        <text y=".71em" transform="translate(550.798 419)">Apr</text>
        <text y=".71em" transform="translate(609.18 419)">Jul</text>
        <text y=".71em" transform="translate(668.205 419)">Oct</text>
        <text transform="translate(727.229 419)"><tspan x="0" y=".71em">Jan</tspan><tspan x="0" dy="1em">2026</tspan></text>
    </g>
    <path fill="none" stroke="currentColor" stroke-linecap="round" stroke-linejoin="round" stroke-width="1.5" d="
m60
410
.428
-11.817
.427
-43.221
.428
-23.305
.428
-16.525
.428
-27.26
.427
-21.469
.428
-20.127
.428
-28.908
.427
10.994
.428
-14.949
.428
-42.726
.428
-28.601
.427
-7.533
.428
-21.846
.428
12.218
.427
-.448
.428
-4.472
.428
30.485
.428
27.66
.427
-9.275
.428
-.471
.428
-1.554
.427
-18.62
.428
18.432
.428
6.097
.427
-12.688
.428
-.871
.428
12.311
.428
-11.935
.427
9.416
.428
-13.841
.428
-36.441
.427
-6.003
.428
11.982
.428
1.836
.428
20.693
.427
24.67
.428
6.215
.428
27.895
.427
25.118
.428
-23.188
.428
-24.34
.428
-25.871
.427
-39.949
.428
-6.826
.428
-1.789
.427
-23.188
.428
12.736
.428
25.4
.428
-1.883
.427
9.722
.428
-5.509
.428
-30.438
.427
-15.277
.428
6.285
.428
-19.256
.428
7.109
.427
9.84
.428
-8.969
.428
13.442
.427
16.808
.428
-20.881
.428
-3.554
.427
-1.154
L87.801
60
l.428
17.561
.428
17.82
.427
-1.459
.428
15.466
.428
22.575
.427
7.698
.428
19.774
.428
.047
.428
-14.548
.427
-1.412
.428
10.357
.428
-9.157
.427
6.803
.428
19.398
.428
6.497
.428
17.749
.427
15.537
.428
-13.441
.428
-3.861
.427
-3.013
.428
-24.977
.428
-1.624
.428
8.898
.427
-15.348
.428
7.957
.428
23.234
.427
2.731
.428
15.937
.428
1.742
.428
-19.751
.427
11.464
.428
2.025
.428
-8.687
.427
5.862
.428
5.815
.428
-7.157
.428
19.233
.427
13.724
.428
-4.12
.428
-12.57
.427
-7.18
.428
-16.808
.428
9.981
.427
-3.719
.428
-14.313
.428
9.864
.428
15.56
.427
-.447
.428
14.877
.428
-2.778
.427
-6.356
.428
7.392
.428
1.036
.428
-1.224
.427
9.534
.428
4.072
.428
.942
.427
9.345
.428
8.616
.428
-8.663
.428
-17.066
.427
-8.969
.428
-19.257
.428
4.591
.427
-5.532
.428
-8.498
.428
6.403
.428
23.446
.427
-5.202
.428
11.44
.428
-5.697
.427
-15.419
.428
-3.389
.428
-1.884
.428
-10.004
.427
4.943
.428
4.214
.428
6.12
.427
11.865
.428
13.183
.428
3.389
.427
6.309
.428
10.146
.428
-4.967
.428
2.448
.427
8.993
.428
-10.758
.428
3.319
.427
2.542
.428
-.306
.428
4.308
.428
-2.142
.427
-2.26
.428
3.013
.428
.353
.427
-5.72
.428
-.235
.428
3.531
.428
-5.909
.427
-.118
.428
6.898
.428
-4.52
.427
1.224
.428
3.79
.428
-8.498
.428
6.38
.427
.894
.428
-6.662
.428
3.013
.427
10.57
.428
-6.662
.428
9.863
.428
-.706
.427
-4.355
.428
3.861
.428
-2.119
.427
-13.277
.428
-.211
.428
-1.648
.428
-11.158
.427
-.448
.428
5.626
.428
-1.718
.427
3.437
.428
10.169
.428
-3.295
.427
18.455
.428
9.134
.428
-6.615
.428
4.449
.427
6.074
.428
-12.665
.428
4.92
.427
-1.813
.428
-5.908
.428
.565
.428
3.719
.427
-9.91
.428
9.416
.428
.07
.427
-6.92
.428
4.684
.428
-.471
.428
-8.404
.427
4.026
.428
-2.26
.428
-2.778
.427
-1.483
.428
-.424
.428
3.508
.428
5.673
.427
7.251
.428
-7.015
.428
5.602
.427
7.321
.428
-3.036
.428
.447
.428
-2.448
.427
-14.666
.428
3.602
.428
3.083
.427
-12.076
.428
.753
.428
-1.483
.427
-5.438
.428
11.064
.428
2.307
.428
-10.075
.427
6.898
.428
2.048
.428
-10.264
.427
4.637
.428
-1.647
.428
-4.614
.428
-4.026
.427
-4.308
.428
-20.762
.428
5.108
.427
4.331
.428
-5.155
.428
4.237
.428
12.43
.427
4.684
.428
20.645
.428
10.758
.427
-4.52
.428
4.285
.428
5.132
.428
-9.864
.427
.118
.428
2.919
.428
-8.828
.427
-5.555
.428
-3.108
.428
-15.042
.428
3.201
.427
2.307
.428
-13.277
.428
.024
.427
7.509
.428
-1.365
.428
9.134
.428
7.297
.427
.189
.428
15.301
.428
6.026
.427
.73
.428
4.967
.428
2.095
.427
-4.99
.428
.777
.428
-1.272
.428
-1.577
.427
2.236
.428
5.203
.428
1.2
.427
.66
.428
-.212
.428
-7.251
.428
1.53
.427
-.047
.428
-3.813
.428
3.813
.427
3.32
.428
4.143
.428
14.359
.428
5.226
.427
-8.78
.428
.541
.428
-3.484
.427
-8.78
.428
5.908
.428
-3.719
.428
-.73
.427
17.232
.428
3.601
.428
2.119
.427
6.144
.428
-8.78
.428
-16.62
.428
-12.83
.427
-3.554
.428
-3.131
.428
2.942
.427
2.637
.428
1.201
.428
14.265
.427
12.947
.428
-5.626
.428
-2.754
.428
-2.99
.427
-6.05
.428
6.804
.428
5.155
.427
-1.695
.428
5.838
.428
9.228
.428
-3.837
.427
5.085
.428
-5.791
.428
-11.818
.427
-2.566
.428
4.567
.428
-4.567
.428
7.345
.427
5.344
.428
2.825
.428
8.945
.427
1.248
.428
-11.606
.428
-5.391
.428
-9.84
.427
-11.982
.428
-2.707
.428
.965
.427
-.023
.428
7.462
.428
7.839
.428
3.037
.427
10.193
.428
4.59
.428
-13.983
.427
-7.085
.428
-.919
.428
-.306
.428
8.64
.427
4.567
.428
-5.344
.428
15.137
.427
11.322
.428
-8.192
.428
-9.439
.427
-7.557
.428
-16.125
.428
4.426
.428
-.354
.427
-8.898
.428
9.063
.428
11.394
.427
.141
.428
5.344
.428
.73
.428
-8.31
.427
7.391
.428
4.803
.428
-5.391
.427
5.791
.428
11.676
.428
1.13
.428
8.875
.427
-5.933
.428
-13.888
.428
-4.45
.427
-2.872
.428
-7.391
.428
2.472
.428
-1.625
.427
3.743
.428
13.889
.428
13.63
.427
-.047
.428
5.579
.428
-4.025
.428
-.871
.427
2.777
.428
.306
.428
-2.354
.427
8.875
.428
.824
.428
1.342
.427
6.167
.428
7.251
.428
-9.652
.428
-6.309
.427
-10.946
.428
-8.639
.428
-1.719
.427
-.447
.428
-7.98
.428
9.581
.428
6.003
.427
.4
.428
3.413
.428
1.083
.427
-9.699
.428
.471
.428
-4.096
.428
-2.99
.427
4.803
.428
.141
.428
-7.863
.427
6.003
.428
1.578
.428
.659
.428
1.059
.427
-1.318
.428
-1.083
.428
11.37
.427
6.521
.428
-1.366
.428
1.177
.428
5.297
.427
3.46
.428
5.297
.428
1.177
.427
-6.121
.428
2.001
.428
4.52
.428
-5.391
.427
-3.013
.428
3.673
.428
-.754
.427
5.085
.428
3.484
.428
-7.298
.427
.212
.428
3.061
.428
-3.508
.428
-1.318
.427
-5.391
.428
-2.213
.428
6.544
.427
5.391
.428
-3.319
.428
.918
.428
-.565
.427
-4.779
.428
-4.143
.428
-.212
.427
-2.848
.428
-.895
.428
-2.871
.428
-4.308
.427
5.673
.428
1.2
.428
-7.344
.427
-.283
.428
3.578
.428
-2.048
.428
3.014
.427
.588
.428
-3.837
.428
4.637
.427
3.555
.428
-5.132
.428
7.557
.428
1.812
.427
-4.896
.428
8.098
.428
.471
.427
-3.908
.428
8.545
.428
-1.553
.427
2.236
.428
9.887
.428
-1.836
.428
-4.096
.427
-.848
.428
-7.956
.428
-10.641
.427
-1.012
.428
-4.402
.428
.377
.428
.353
.427
-2.119
.428
4.12
.428
9.934
.427
-4.449
.428
-5.485
.428
-11.794
.428
-.283
.427
-1.789
.428
1.413
.428
-.801
.427
1.107
.428
10.146
.428
13.841
.428
-5.131
.427
-3.955
.428
-5.391
.428
-11.888
.427
.094
.428
-4.731
.428
-4.402
.428
6.803
.427
10.287
.428
-.612
.428
11.299
.427
-3.86
.428
-12.995
.428
-4.26
.428
-.071
.427
-7.321
.428
3.931
.428
.8
.427
-2.307
.428
8.546
.428
.164
.427
-4.001
.428
-1.013
.428
-12.712
.428
-17.843
.427
3.248
.428
-.753
.428
-5.932
.427
.753
.428
7.039
.428
9.863
.428
14.125
.427
2.165
.428
-4.543
.428
4.685
.427
7.721
.428
-4.12
.428
1.224
.428
-2.942
.427
-2.637
.428
10.57
.428
4.002
.427
-12.335
.428
-2.731
.428
1.036
.428
-3.32
.427
5.556
.428
-2.919
.428
-.283
.427
10.711
.428
7.628
.428
-1.648
.428
7.486
.427
-1.719
.428
-8.427
.428
1.977
.427
-.989
.428
1.601
.428
5.509
.427
.094
.428
.894
.428
14.03
.428
3.649
.427
-6.638
.428
-1.577
.428
.306
.427
-4.473
.428
-.612
.428
1.648
.428
-1.483
.427
4.096
.428
1.106
.428
-4.637
.427
1.694
.428
-2.259
.428
-15.396
.428
-4.684
.427
3.272
.428
7.509
.428
12.194
.427
13.371
.428
12.735
.428
19.704
.428
13.559
.427
8.64
.428
.517
.428
-.612
.427
-.4
.428
-1.153
.428
-1.931
.428
-1.247
.427
-1.648
.428
-2.613
.428
-4.12
.427
-11.888
.428
-7.109
.428
-5.744
.428
-5.602
.427
-4.85
.428
-4.049
.428
-4.896
.427
3.578
.428
-2.048
.428
-2.99
.427
-2.518
.428
-4.92
.428
-1.154
.428
3.037
.427
-1.012
.428
-.095
.428
6.262
.427
2.731
.428
1.507
.428
3.154
.428
.8
.427
.918
.428
3.437
.428
-5.767
.427
-1.836
.428
4.967
.428
-2.142
.428
-.871
.427
2.424
.428
2.613
.428
4.755
.427
5.368
.428
-.777
.428
1.553
.428
-1.153
.427
-4.826
.428
-2.683
.428
.941
.427
-6.615
.428
-1.6
.428
-.542
.428
.848
.427
1.341
.428
.283
.428
-4.944
.427
3.39
.428
2.519
.428
-.871
.427
-1.412
.428
1.035
.428
1.06
.428
1.6
.427
-.258
.428
-3.508
.428
-4.426
.427
-.541
.428
-2.801
.428
-.659
.428
2.236
.427
-1.177
.428
.612
.428
5.461
.427
.142
.428
1.553
.428
.118
.428
-5.673
.427
-2.119
.428
-.259
.428
-5.179
.427
2.142
.428
4.897
.428
2.189
.428
5.626
.427
2.778
.428
.235
.428
-4.896
.427
-1.483
.428
-7.415
.428
-1.813
h.428
l.427
.165
.428
-2.66
.428
13.159
.427
.541
.428
4.12
.428
-1.742
.428
-6.003
.427
-7.439
.428
3.013
.428
-9.18
.427
1.859
.428
.659
.428
-6.567
.427
1.342
.428
7.462
.428
-3.931
.428
.423
.427
-.753
.428
-7.321
.428
7.392
.427
3.554
.428
-2.848
.428
1.224
.428
5.344
.427
-4.967
.428
6.144
.428
-2.59
.427
-7.062
.428
-3.908
.428
.306
.428
-2.589
.427
-1.13
.428
1.436
.428
1.601
.427
6.85
.428
3.766
.428
1.295
.428
.306
.427
4.167
.428
-1.483
.428
-2.354
.427
3.978
.428
5.367
.428
1.436
.428
3.578
.427
-5.084
.428
1.153
.428
4.638
.427
-4.308
.428
-11.158
.428
1.836
.427
-2.307
.428
2.825
.428
-.189
.428
.259
.427
.353
.428
11.512
.428
-.565
.427
1.153
.428
3.72
.428
-4.779
.428
-3.696
.427
.942
.428
-6.921
.428
-2.166
.427
-1.365
.428
.965
.428
6.732
.428
4.379
.427
-1.766
.428
2.472
.428
4.285
.427
2.966
.428
.447
.428
.871
.428
-1.695
.427
.33
.428
.541
.428
-5.085
.427
.306
.428
.471
.428
-3.154
.428
-1.154
.427
2.849
.428
-.165
.428
1.13
.427
-1.224
.428
-2.166
.428
.753
.428
-.8
.427
-6.639
.428
-7.109
.428
-1.86
.427
-4.166
.428
.329
.428
.871
.427
-1.177
.428
4.732
.428
10.405
.428
3.343
.427
3.743
.428
-.212
.428
-.942
.427
-1.554
.428
-1.294
.428
-7.51
.428
-5.626
.427
-5.65
.428
-5.108
.428
-3.178
.427
-1.601
.428
-5.649
.428
5.838
.428
3.013
.427
-3.955
.428
3.955
.428
3.343
.427
2.095
.428
6.285
.428
3.131
.428
-12.877
.427
-2.66
.428
-10.358
.428
-12.523
.427
-5.744
.428
-4.426
.428
-14.571
.428
2.613
.427
7.062
.428
7.627
.428
6.662
.427
3.837
.428
-2.119
.428
2.967
.427
9.133
.428
5.579
.428
-.188
.428
7.062
.427
5.626
.428
4.85
.428
6.826
.427
.189
.428
-5.697
.428
-.565
.428
-2.731
.427
-2.448
.428
.8
.428
1.272
.427
4.92
.428
8.215
.428
7.651
.428
3.743
.427
2.895
.428
3.743
.428
.071
.427
.165
.428
-1.931
.428
-.706
.428
-.777
.427
1.342
.428
-4.637
.428
.612
.427
-2.354
.428
.117
.428
-3.225
.428
-2.307
.427
-2.495
.428
3.319
.428
-.494
.427
1.954
.428
-.4
.428
4.331
.428
3.743
.427
2.283
.428
1.413
.428
-.589
.427
-.965
.428
.589
.428
-1.483
.427
-1.625
.428
-.4
.428
-2.895
.428
2.966
.427
-2.048
.428
-5.768
.428
-5.249
.427
-8.381
.428
-.753
.428
-.024
.428
-2.966
.427
3.508
.428
3.154
.428
2.708
.427
6.85
.428
-4.002
.428
-11.135
.428
-.494
.427
-.565
.428
-3.413
.428
1.106
.427
4.237
.428
2.849
.428
12.099
.428
3.155
.427
-3.461
.428
1.413
.428
-2.943
.427
-10.146
.428
2.213
.428
1.601
.428
-1.766
.427
2.802
.428
6.591
.428
5.697
.427
7.862
.428
2.307
.428
-.941
.427
1.671
.428
2.166
.428
-1.366
.428
1.177
.427
1.366
.428
-3.72
.428
-.023
.427
.8
.428
-4.99
.428
-2.19
.428
-3.366
.427
-4.543
.428
4.143
.428
2.283
.427
-1.789
.428
5.203
.428
3.154
.428
1.46
.427
6.097
.428
-1.036
.428
-5.391
.427
.612
.428
1.624
.428
1.413
.428
1.412
.427
-1.859
.428
-1.083
.428
1.577
.427
1.624
.428
-5.885
.428
-8.639
.428
-4.708
.427
-7.133
.428
-3.861
.428
1.719
.427
-1.413
.428
2.707
.428
4.967
.428
3.414
.427
8.051
.428
1.553
.428
-1.483
.427
-2.354
.428
1.13
.428
-.965
.427
1.836
.428
.565
.428
.165
.428
2.589
.427
3.108
.428
-1.083
.428
.565
.427
-3.06
.428
-2.896
.428
3.131
.428
-.824
.427
-1.671
.428
-.306
.428
1.365
.427
-.965
.428
1.577
.428
-1.765
.428
-3.273
.427
-2.283
.428
2.048
.428
.306
.427
1.412
.428
1.201
.428
.612
.428
4.638
.427
6.379
.428
-1.412
.428
2.354
.427
4.166
.428
.283
.428
.376
.428
1.484
.427
-.565
.428
-.236
.428
-5.461
.427
-3.837
.428
-4.002
.428
1.695
.427
-1.742
.428
-.589
.428
.565
.428
3.484
.427
2.801
.428
4.097
.428
-2.59
.427
-.118
.428
-.776
.428
-2.778
.428
-2.754
.427
-1.436
.428
-3.602
.428
1.671
.427
-2.566
.428
-1.106
.428
4.755
.428
4.143
.427
-1.318
.428
2.707
.428
-.894
.427
-1.483
.428
2.612
.428
-3.625
.428
-2.001
.427
1.06
.428
.918
.428
.706
.427
5.344
.428
-1.342
.428
1.954
.428
-1.554
.427
-1.412
.428
-8.145
.428
-4.12
.427
-3.531
.428
-3.837
.428
-1.648
.428
1.201
.427
-3.767
.428
1.836
.428
3.037
.427
-2.189
.428
2.448
.428
2.589
.427
-.588
.428
5.108
.428
4.991
.428
1.93
.427
2.072
.428
1.224
.428
-1.507
.427
1.46
.428
-1.224
.428
.706
.428
-1.201
.427
2.731
.428
-.33
.428
-1.577
.427
-.118
.428
-2.754
.428
-1.106
.428
-.801
.427
-2.495
.428
-1.813
.428
-.329
.427
-2.566
.428
3.037
.428
1.859
.428
-1.13
.427
1.036
.428
1.342
.428
.471
.427
.188
.428
-4.826
.428
-9.439
.428
-2.731
.427
.447
.428
-.612
.428
1.978
.427
2.236
.428
3.154
.428
8.216
.427
5.532
.428
-4.025
.428
-2.378
.428
.259
.427
-2.048
.428
1.059
.428
-.989
.427
-2.212
.428
1.365
.428
-1.13
.428
-1.883
.427
1.012
.428
1.671
.428
.354
.427
1.341
.428
5.65
.428
.636
.428
2.165
h.427
l.428
-3.436
.428
-1.225
.427
-4.331
.428
-6.262
.428
2.613
.428
-1.977
.427
-3.484
.428
2.66
.428
1.106
.427
.4
.428
2.943
.428
-.471
.428
-2.872
.427
5.085
.428
.141
.428
-2.283
.427
3.319
.428
-3.861
.428
1.201
.428
.047
.427
-3.013
.428
.047
.428
3.131
.427
-.73
.428
-1.977
.428
-5.697
.427
1.506
.428
-2.071
.428
-1.365
.428
-2.825
.427
-4.92
.428
2.989
.428
3.743
.427
-.047
.428
4.567
.428
.094
.428
1.577
.427
4.45
.428
2.613
.428
.612
.427
2.001
.428
-1.13
.428
-2.802
.428
-1.153
.427
2.048
.428
1.53
.428
1.483
.427
.353
.428
1.389
.428
5.626
.428
3.343
.427
-1.201
.428
1.154
.428
1.436
.427
-.283
.428
-.306
.428
-1.13
.428
-3.319
.427
1.907
.428
-2.707
.428
-.165
.427
-2.26
.428
1.554
.428
-1.766
.427
4.261
.428
.589
.428
-2.401
.428
-.613
.427
2.402
.428
.941
.428
2.59
.427
-3.32
.428
-.706
.428
4.52
.428
2.966
.427
1.271
.428
.777
.428
.047
.427
3.319
.428
-1.836
.428
-2.165
.428
-4.049
.427
1.718
.428
-1.624
.428
.777
.427
.659
.428
4.331
.428
.942
.428
1.836
.427
-2.142
.428
1.553
.428
-.447
.427
-1.13
.428
-3.484
.428
3.319
.428
1.225
.427
1.977
.428
-2.59
.428
-1.153
.427
-.212
.428
1.907
.428
-1.271
.428
.235
.427
.236
.428
3.201
.428
3.202
.427
1.106
.428
-.4
.428
1.954
.427
.329
.428
.989
.428
-.377
.428
.047
.427
1.154
.428
2.095
.428
-.071
.427
1.177
.428
-.612
.428
-1.13
.428
-.117
.427
-.73
.428
.753
.428
-1.247
.427
-1.201
.428
-.683
.428
1.295
.428
-2.707
.427
.07
.428
-.918
.428
.518
.427
-.235
.428
.212
.428
.635
.428
3.225
.427
.66
.428
.188
.428
.094
.427
-.024
.428
.118
.428
-.871
.428
-1.883
.427
-2.26
.428
-1.059
.428
-.565
.427
-.165
.428
1.059
.428
-.588
.427
-.448
.428
1.578
.428
-1.601
.428
-1.295
.427
.024
.428
-2.378
.428
.683
.427
1.648
.428
.4
.428
1.012
.428
-.989
.427
1.083
.428
-.518
.428
-1.318
.427
-.259
.428
-.353
.428
1.695
.428
2.519
.427
-.895
.428
.871
.428
.236
.427
-1.53
.428
-.966
.428
.118
.428
-1.271
.427
.329
.428
1.554
.428
2.284
.427
1.671
.428
1.036
.428
-.965
.428
.729
.427
.73
.428
-.588
.428
-.73
.427
.353
.428
.353
.428
.612
.428
1.295
.427
-1.201
.428
.589
.428
-.518
.427
-2.401
.428
-1.224
.428
-.353
.427
-1.083
.428
-.895
.428
-1.483
.428
.118
.427
1.247
.428
-.353
.428
-.494
.427
.612
.428
.8
.428
-.824
.428
.565
.427
1.483
.428
.754
.428
-1.436
.427
-.071
.428
-1.436
.428
1.107
.428
-.777
.427
-3.931
.428
-1.177
.428
2.142
.427
-1.554
.428
2.66
.428
.283
.428
1.247
.427
3.013
.428
2.025
.428
.4
.427
1.342
.428
-.518
.428
-.471
.428
-2.166
.427
-2.66
.428
-.682
.428
-1.107
.427
.895
.428
-.871
.428
.518
.427
-1.06
.428
3.296
.428
.071
.428
-.801
.427
-1.718
.428
1.389
.428
-.495
.427
1.483
.428
.589
.428
.118
.428
.941
.427
-.023
.428
-.895
.428
.871
.427
.824
.428
-2.613
.428
-2.024
.428
-.142
.427
1.225
.428
-1.648
.428
-.024
.427
-.353
.428
2.095
.428
2.119
.428
.894
.427
-1.6
.428
1.883
.428
.871
.427
.8
.428
-1.483
.428
.942
.428
-.942
.427
1.177
.428
.306
.428
.33
.427
.588
.428
1.719
.428
-.047
.428
1.224
.427
.188
.428
.565
.428
-.282
.427
-.613
.428
-.047
.428
-.918
.427
-2.095
.428
1.06
.428
-1.201
.428
-2.825
.427
-4.425
.428
-3.39
.428
.259
.427
1.647
.428
-1.177
.428
.683
.428
2.59
.427
3.484
.428
1.53
.428
-1.907
.427
-.353
.428
.682
.428
1.013
.428
-.33
.427
-1.389
.428
1.201
.428
1.907
.427
.07
.428
-.4
.428
-2.236
.428
-.471
.427
-.212
.428
1.106
.428
.848
.427
.588
.428
.118
.428
2.284
.428
-1.507
.427
2.166
.428
-2.307
.428
-2.637
.427
.824
.428
1.036
.428
-.188
.427
2.801
.428
.424
.428
1.718
.428
2.613
.427
-1.813
.428
-.824
.428
-.588
.427
.024
.428
.47
.428
.518
.428
.141
.427
1.695
.428
.848
.428
-.33
.427
-1.459
.428
-4.167
.428
-4.308
.428
-2.424
.427
-.542
.428
.094
.428
-.518
.427
.142
.428
3.178
.428
2.989
.428
-1.247
.427
-2.402
.428
-1.671
.428
-1.224
.427
.235
.428
.212
.428
.189
.428
2.989
.427
.989
.428
-.659
.428
1.883
.427
1.106
.428
-1.459
.428
-.871
.428
-2.331
.427
1.177
.428
2.237
.428
.8
.427
-.447
.428
1.2
.428
1.507
.427
2.778
.428
.235
.428
-.023
.428
-.942
.427
-.518
.428
-.918
.428
.306
.427
-.447
.428
-.236
.428
-.659
.428
-.565
.427
-.235
.428
.094
.428
-.777
.427
.33
.428
.141
.428
-.212
.428
.165
.427
1.224
.428
1.177
.428
-.683
.427
-1.53
.428
.565
.428
-.235
.428
.683
.427
-.495
.428
.306
.428
.942
.427
1.883
.428
.094
.428
.212
.428
.895
.427
-.189
.428
-.753
.428
.895
.427
-.565
.428
-.542
.428
-.07
.427
-1.342
.428
-.518
.428
.989
.428
-.777
.427
.47
.428
.165
.428
.353
.427
-.988
.428
1.365
.428
-.918
.428
-.259
.427
-.235
.428
-.848
.428
-.494
.427
.847
.428
-1.789
.428
-.753
.428
-.33
.427
-1.883
.428
.942
.428
.423
.427
.919
.428
1.412
.428
1.789
.428
1.318
.427
2.119
.428
-.377
.428
.094
.427
.189
.428
-.165
.428
-1.154
.428
-.47
.427
-1.672
.428
.142
.428
.07
.427
-.212
.428
-.259
.428
.918
.428
-.047
.427
-.164
h.428
l.428
-.495
.427
-.659
.428
.848
.428
-.189
.427
-.447
.428
.918
.428
.447
.428
-.753
.427
.188
.428
-.4
.428
-.07
.427
-.942
.428
.306
.428
-.895
.428
1.201
.427
.471
.428
-1.46
.428
.589
.427
1.954
.428
-.871
.428
-1.672
.428
-.706
.427
.4
.428
1.86
h.428
l.427
-.683
.428
1.083
.428
1.954
.428
-.847
.427
-1.319
.428
-1.036
.428
-.564
.427
-1.79
.428
-1.506
.428
.353
.428
.918
.427
1.036
.428
.353
.428
.424
.427
1.483
.428
1.318
.428
-.777
.427
-.259
.428
-4.19
.428
-1.295
.428
-1.459
.427
-2.095
.428
-1.813
h.428
l.427
-1.977
.428
4.378
.428
.212
.428
.942
.427
1.224
.428
1.883
.428
-.942
.427
2.543
.428
-1.083
h.428
l.428
-.777
.427
-.306
.428
-1.766
.428
1.484
.427
.47
.428
-1.412
.428
.377
.428
-.142
.427
.165
.428
1.036
.428
-.824
.427
-.565
.428
.306
.428
.494
.428
.33
.427
-.424
.428
-.447
.428
-1.813
.427
-.965
.428
1.86
.428
-.165
.428
.353
.427
1.978
.428
-1.837
.428
1.86
.427
.73
.428
-.589
.428
-1.459
.427
.023
.428
-.047
.428
3.013
.428
1.13
.427
-.753
h.428
l.428
1.295
.427
.683
.428
.094
.428
.235
.428
-2.283
.427
.4
.428
-1.059
.428
-.871
.427
-4.638
.428
-4.284
.428
-4.002
.428
-.518
.427
-2.566
.428
-2.801
.428
.353
.427
.07
.428
1.154
.428
1.954
.428
-.895
.427
1.366
.428
.376
.428
-.282
.427
-.424
.428
1.083
.428
.188
.428
1.672
.427
2.071
.428
1.695
.428
-2.189
.427
3.366
.428
.377
.428
-4.544
.427
.377
.428
-2.472
.428
-.306
.428
.895
.427
.235
.428
-2.401
.428
3.484
.427
-.235
.428
1.294
.428
1.342
.428
1.766
.427
-.659
.428
3.978
.428
2.731
.427
.282
.428
.565
.428
-.73
.428
-1.106
.427
1.436
.428
-1.813" aria-label="line"/>
</svg>
