<svg class="plot-d6a7b5" fill="currentColor" font-family="system-ui, sans-serif" font-size="10" text-anchor="middle" width="830" height="470" viewBox="0 0 830 470" xmlns="http://www.w3.org/2000/svg" xmlns:xlink="http://www.w3.org/1999/xlink" color="#1e90ff"><style>:where(.plot-d6a7b5){--plot-background: white;display:block;height:intrinsic;max-width:100%}:where(.plot-d6a7b5 text),:where(.plot-d6a7b5 tspan){white-space:pre}</style><g aria-label="y-grid" stroke="currentColor" stroke-opacity=".1"><line x1="60" x2="770" y1="410" y2="410"/><line x1="60" x2="770" y1="360.939" y2="360.939"/><line x1="60" x2="770" y1="311.878" y2="311.878"/><line x1="60" x2="770" y1="262.817" y2="262.817"/><line x1="60" x2="770" y1="213.757" y2="213.757"/><line x1="60" x2="770" y1="164.696" y2="164.696"/><line x1="60" x2="770" y1="115.635" y2="115.635"/><line x1="60" x2="770" y1="66.574" y2="66.574"/></g><g aria-label="y-axis tick" fill="none" stroke="currentColor"><path transform="translate(60,410)" d="M0,0L-6,0"/><path transform="translate(60,360.9391645640594)" d="M0,0L-6,0"/><path transform="translate(60,311.8783291281189)" d="M0,0L-6,0"/><path transform="translate(60,262.8174936921783)" d="M0,0L-6,0"/><path transform="translate(60,213.7566582562377)" d="M0,0L-6,0"/><path transform="translate(60,164.69582282029717)" d="M0,0L-6,0"/><path transform="translate(60,115.6349873843566)" d="M0,0L-6,0"/><path transform="translate(60,66.57415194841604)" d="M0,0L-6,0"/></g><g aria-label="y-axis tick label" text-anchor="end" font-variant="tabular-nums"><text y=".32em" transform="translate(-9,0) translate(60,410)">0</text><text y=".32em" transform="translate(-9,0) translate(60,360.9391645640594)">1,000</text><text y=".32em" transform="translate(-9,0) translate(60,311.8783291281189)">2,000</text><text y=".32em" transform="translate(-9,0) translate(60,262.8174936921783)">3,000</text><text y=".32em" transform="translate(-9,0) translate(60,213.7566582562377)">4,000</text><text y=".32em" transform="translate(-9,0) translate(60,164.69582282029717)">5,000</text><text y=".32em" transform="translate(-9,0) translate(60,115.6349873843566)">6,000</text><text y=".32em" transform="translate(-9,0) translate(60,66.57415194841604)">7,000</text></g><g aria-label="y-axis label" text-anchor="start"><text y=".71em" transform="translate(-57,-57) translate(60,60)">↑ Visible Vestiges (4 days)</text></g><g aria-label="x-axis tick" fill="none" stroke="currentColor"><path transform="translate(105.77749683944374,410)" d="M0,0L0,6"/><path transform="translate(228.29962073324907,410)" d="M0,0L0,6"/><path transform="translate(352.16814159292034,410)" d="M0,0L0,6"/><path transform="translate(476.0366624525917,410)" d="M0,0L0,6"/><path transform="translate(598.558786346397,410)" d="M0,0L0,6"/><path transform="translate(721.0809102402022,410)" d="M0,0L0,6"/></g><g aria-label="x-axis tick label" font-variant="tabular-nums"><text transform="translate(0,9) translate(105.77749683944374,410)"><tspan x="0" y=".71em">Apr</tspan><tspan x="0" dy="1em">2023</tspan></text><text y=".71em" transform="translate(0,9) translate(228.29962073324907,410)">Jul</text><text y=".71em" transform="translate(0,9) translate(352.16814159292034,410)">Oct</text><text transform="translate(0,9) translate(476.0366624525917,410)"><tspan x="0" y=".71em">Jan</tspan><tspan x="0" dy="1em">2024</tspan></text><text y=".71em" transform="translate(0,9) translate(598.558786346397,410)">Apr</text><text y=".71em" transform="translate(0,9) translate(721.0809102402022,410)">Jul</text></g><g aria-label="line" fill="none" stroke="currentColor" stroke-width="1.5" stroke-linejoin="round" stroke-linecap="round"><path d="M60,410L60.898,385.371L61.795,295.296L62.693,246.726L63.59,236.913L64.488,270.177L65.386,274.003L66.283,266.497L67.181,238.434L68.078,216.013L68.976,178.237L69.874,139.626L70.771,90.369L71.669,109.65L72.566,145.66L73.464,202.669L74.362,195.015L75.259,193.445L76.157,192.906L77.054,202.227L77.952,211.5L78.85,182.996L79.747,179.12L80.645,151.989L81.542,189.815L82.44,205.22L83.338,226.905L84.235,195.948L85.133,180.395L86.03,178.089L86.928,172.398L87.826,155.718L88.723,120.05L89.621,109.601L90.518,132.463L91.416,196.683L92.314,250.013L93.211,270.765L94.109,263.21L95.006,242.555L95.904,233.038L96.802,194.623L97.699,149.978L98.597,97.041L99.494,82.862L100.392,111.808L101.29,141.343L102.187,166.756L103.085,169.111L103.982,181.131L104.88,172.595L105.777,152.136L106.675,116.665L107.573,86.689L108.47,60L109.368,86.934L110.265,122.258L111.163,160.378L112.061,147.328L112.958,133.297L113.856,116.518L114.753,104.351L115.651,106.461L116.549,106.362L117.446,107.049L118.344,95.029L119.241,125.006L120.139,147.77L121.037,175.048L121.934,172.791L122.832,182.603L123.729,202.375L124.627,199.333L125.525,182.358L126.422,158.759L127.32,141.883L128.217,161.114L129.115,182.161L130.013,219.055L130.91,234.853L131.808,250.503L132.705,249.718L133.603,224.795L134.501,202.473L135.398,178.482L136.296,176.716L137.193,168.474L138.091,188.785L138.989,212.825L139.886,207.967L140.784,205.613L141.681,211.5L142.579,247.412L143.477,255.802L144.374,231.32L145.272,208.507L146.169,194.329L147.067,192.562L147.965,221.508L148.862,245.744L149.76,262.033L150.657,240.74L151.555,245.793L152.453,248.099L153.35,252.662L154.248,215.327L155.145,195.997L156.043,185.841L156.941,211.549L157.838,223.814L158.736,231.32L159.633,235.638L160.531,238.483L161.429,248.05L162.326,248.345L163.224,235.834L164.121,235.785L165.019,227.69L165.917,239.955L166.814,253.496L167.712,267.527L168.609,274.151L169.507,266.154L170.405,265.712L171.302,267.086L172.2,259.334L173.097,217.829L173.995,195.212L174.893,179.757L175.79,216.897L176.688,223.618L177.585,247.412L178.483,243.438L179.381,262.327L180.278,246.578L181.176,241.623L182.073,218.025L182.971,203.454L183.869,196.34L184.766,200.314L185.664,230.486L186.561,232.105L187.459,239.857L188.357,249.865L189.254,249.718L190.152,261.297L191.049,259.579L191.947,278.174L192.845,273.464L193.742,263.799L194.64,265.761L195.537,263.21L196.435,262.719L197.332,262.817L198.23,267.969L199.128,285.042L200.025,277.438L200.923,269.637L201.82,263.014L202.718,259.825L203.616,265.123L204.513,263.063L205.411,273.366L206.308,272.384L207.206,264.191L208.104,257.813L209.001,261.64L209.899,269.833L210.796,270.569L211.694,274.396L212.592,265.123L213.489,267.675L214.387,255.262L215.284,262.916L216.182,264.093L217.08,284.993L217.977,288.82L218.875,293.824L219.772,272.875L220.67,265.271L221.568,260.414L222.465,258.647L223.363,260.953L224.26,256.292L225.158,262.278L226.056,245.744L226.953,237.649L227.851,247.952L228.748,265.859L229.646,276.26L230.544,281.068L231.441,283.766L232.339,298.534L233.236,288.28L234.134,291.665L235.032,280.381L235.929,284.404L236.827,276.604L237.724,280.283L238.622,278.615L239.52,282.442L240.417,276.751L241.315,276.996L242.212,272.679L243.11,283.325L244.008,279.4L244.905,283.963L245.803,277.928L246.7,271.109L247.598,268.263L248.496,262.572L249.393,269.49L250.291,277.29L251.188,270.373L252.086,268.165L252.984,274.445L253.881,286.514L254.779,296.817L255.676,281.804L256.574,289.458L257.472,282.687L258.369,288.771L259.267,284.306L260.164,276.015L261.062,262.082L261.96,253.643L262.857,272.826L263.755,271.452L264.652,271.599L265.55,257.617L266.448,263.161L267.345,270.716L268.243,270.177L269.14,279.694L270.038,269.637L270.936,269.244L271.833,254.87L272.731,255.704L273.628,255.556L274.526,266.791L275.424,258.255L276.321,242.653L277.219,208.605L278.116,213.266L279.014,232.105L279.912,264.486L280.809,273.905L281.707,282.246L282.604,287.152L283.502,287.299L284.399,288.476L285.297,288.133L286.195,286.416L287.092,284.11L287.99,281.313L288.887,277.536L289.785,273.071L290.683,276.407L291.58,264.24L292.478,249.964L293.375,234.706L294.273,250.16L295.171,257.666L296.068,256.881L296.966,253.594L297.863,252.269L298.761,262.817L299.659,266.546L300.556,281.559L301.454,292.303L302.351,304.372L303.249,298.436L304.147,298.239L305.044,287.25L305.942,282.785L306.839,285.876L307.737,287.888L308.635,292.941L309.532,294.118L310.43,296.964L311.327,299.466L312.225,300.791L313.123,300.594L314.02,291.322L314.918,278.762L315.815,281.755L316.713,284.944L317.611,294.609L318.508,300.692L319.406,307.512L320.303,314.822L321.201,324.242L322.099,331.208L322.996,307.463L323.894,288.329L324.791,276.26L325.689,283.08L326.587,301.576L327.484,310.505L328.382,334.25L329.279,334.103L330.177,330.227L331.075,324.094L331.972,307.806L332.87,300.496L333.767,270.373L334.665,254.575L335.563,265.32L336.46,289.556L337.358,316.294L338.255,312.909L339.153,314.626L340.051,308.101L340.948,313.792L341.846,310.308L342.743,299.073L343.641,292.597L344.539,288.329L345.436,309.965L346.334,320.415L347.231,335.182L348.129,329.687L349.027,326.94L349.924,315.999L350.822,310.161L351.719,300.496L352.617,294.315L353.515,293.137L354.412,309.229L355.31,321.592L356.207,331.306L357.105,327.087L358.003,332.827L358.9,329.982L359.798,320.268L360.695,306.285L361.593,288.771L362.491,275.377L363.388,270.373L364.286,281.706L365.183,301.379L366.081,316.588L366.979,323.8L367.876,320.611L368.774,313.595L369.671,314.282L370.569,318.845L371.466,303.047L372.364,282.246L373.262,277.977L374.159,303.293L375.057,329.05L375.954,341.168L376.852,335.231L377.75,332.974L378.647,326.253L379.545,316.049L380.442,290.144L381.34,276.555L382.238,272.139L383.135,295.1L384.033,307.855L384.93,316.196L385.828,315.656L386.726,314.233L387.623,319.483L388.521,307.316L389.418,308.052L390.316,303.195L391.214,315.803L392.111,323.751L393.009,328.412L393.906,330.325L394.804,332.484L395.702,346.81L396.599,348.38L397.497,324.291L398.394,300.938L399.292,277.83L400.19,286.121L401.087,301.821L401.985,330.571L402.882,334.741L403.78,333.858L404.678,334.299L405.575,342.983L406.473,343.375L407.37,341.756L408.268,333.71L409.166,336.163L410.063,329.442L410.961,338.911L411.858,344.504L412.756,357.603L413.654,357.063L414.551,356.72L415.449,353.531L416.346,360.203L417.244,346.761L418.142,326.351L419.039,301.526L419.937,303.096L420.834,312.32L421.732,331.012L422.63,339.058L423.527,349.165L424.425,342.198L425.322,334.839L426.22,323.555L427.118,322.525L428.015,320.17L428.913,322.083L429.81,321.396L430.708,328.412L431.606,330.08L432.503,327.627L433.401,316.441L434.298,316.588L435.196,321.494L436.094,338.567L436.991,335.28L437.889,330.914L438.786,324.83L439.684,335.133L440.582,351.618L441.479,355.935L442.377,351.765L443.274,345.927L444.172,351.618L445.07,354.12L445.967,355.837L446.865,352.354L447.762,349.802L448.66,352.599L449.558,348.281L450.455,343.523L451.353,344.258L452.25,355.641L453.148,369.034L454.046,366.091L454.943,355.248L455.841,340.775L456.738,335.133L457.636,343.768L458.534,351.961L459.431,347.742L460.329,347.496L461.226,353.04L462.124,361.037L463.021,353.089L463.919,349.999L464.817,345.779L465.714,338.518L466.612,327.725L467.509,334.005L468.407,346.025L469.305,344.847L470.202,336.213L471.1,328.951L471.997,335.378L472.895,333.073L473.793,333.024L474.69,332.631L475.588,336.409L476.485,338.813L477.383,338.42L478.281,338.616L479.178,332.582L480.076,335.918L480.973,341.707L481.871,342.787L482.769,351.274L483.666,347.251L484.564,347.938L485.461,343.032L486.359,343.572L487.257,351.421L488.154,353.433L489.052,357.701L489.949,366.483L490.847,369.966L491.745,364.472L492.642,351.814L493.54,337.292L494.437,326.548L495.335,317.177L496.233,325.615L497.13,336.507L498.028,353.973L498.925,344.16L499.823,334.397L500.721,331.454L501.618,342.051L502.516,345.632L503.413,336.507L504.311,308.689L505.209,307.561L506.106,305.5L507.004,330.08L507.901,339.598L508.799,349.214L509.697,358.29L510.594,360.988L511.492,346.859L512.389,315.411L513.287,299.907L514.185,295.345L515.082,313.399L515.98,323.849L516.877,342.149L517.775,342.002L518.673,341.854L519.57,334.25L520.468,339.058L521.365,327.627L522.263,312.271L523.161,298.141L524.058,305.893L524.956,317.569L525.853,327.038L526.751,333.661L527.649,332.68L528.546,326.94L529.444,311.486L530.341,315.705L531.239,307.463L532.137,290.095L533.034,267.871L533.932,275.77L534.829,294.952L535.727,304.323L536.625,303.342L537.522,311.339L538.42,326.891L539.317,332.533L540.215,330.276L541.113,319.434L542.01,309.131L542.908,319.728L543.805,328.608L544.703,336.948L545.601,320.366L546.498,321.2L547.396,329.835L548.293,334.005L549.191,324.389L550.088,305.549L550.986,307.708L551.884,309.916L552.781,328.019L553.679,328.412L554.576,338.911L555.474,340.039L556.372,343.179L557.269,342.492L558.167,337.979L559.064,336.605L559.962,322.868L560.86,321.887L561.757,324.536L562.655,348.576L563.552,355.248L564.45,352.991L565.348,350.146L566.245,354.169L567.143,360.596L568.04,347.546L568.938,339.058L569.836,338.764L570.733,341.02L571.631,340.186L572.528,347.006L573.426,359.664L574.324,356.426L575.221,346.81L576.119,339.941L577.016,337.194L577.914,329.344L578.812,313.743L579.709,313.105L580.607,321.396L581.504,359.516L582.402,387.825L583.3,406.124L584.197,409.166L585.095,409.215L585.992,408.97L586.89,408.724L587.788,406.86L588.685,405.634L589.583,405.094L590.48,404.652L591.378,401.954L592.276,399.943L593.173,398.667L594.071,395.38L594.968,388.168L595.866,366.287L596.764,356.475L597.661,350.391L598.559,361.479L599.456,364.913L600.354,365.158L601.252,359.418L602.149,355.101L603.047,349.459L603.944,347.349L604.842,345.73L605.74,343.179L606.637,347.251L607.535,353.089L608.432,356.916L609.33,353.482L610.228,358.094L611.125,364.275L612.023,365.06L612.92,362.656L613.818,364.472L614.716,367.072L615.613,364.226L616.511,355.15L617.408,355.592L618.306,359.565L619.204,364.717L620.101,368.544L620.999,365.845L621.896,372.91L622.794,375.559L623.692,382.133L624.589,379.043L625.487,377.522L626.384,367.759L627.282,356.622L628.18,354.856L629.077,361.871L629.975,364.717L630.872,363.883L631.77,359.271L632.668,365.06L633.565,360.056L634.463,360.007L635.36,354.954L636.258,362.068L637.155,365.894L638.053,369.77L638.951,365.551L639.848,357.456L640.746,361.43L641.643,362.656L642.541,367.072L643.439,361.381L644.336,352.697L645.234,347.889L646.131,341.266L647.029,353.089L647.927,360.105L648.824,367.906L649.722,364.864L650.619,362.902L651.517,360.841L652.415,356.18L653.312,356.867L654.21,351.765L655.107,351.912L656.005,348.085L656.903,347.153L657.8,353.973L658.698,360.056L659.595,376.099L660.493,378.258L661.391,373.989L662.288,366.091L663.186,343.228L664.083,341.168L664.981,331.306L665.879,353.776L666.776,359.026L667.674,370.555L668.571,360.89L669.469,365.453L670.367,364.177L671.264,368.445L672.162,359.86L673.059,351.47L673.957,338.911L674.855,339.156L675.752,337.096L676.65,355.199L677.547,354.561L678.445,351.421L679.343,341.953L680.24,343.572L681.138,349.312L682.035,345.338L682.933,346.319L683.831,338.616L684.728,349.999L685.626,349.508L686.523,360.449L687.421,353.335L688.319,353.089L689.216,349.655L690.114,352.206L691.011,347.055L691.909,342.198L692.807,332.19L693.704,331.11L694.602,340.186L695.499,342.541L696.397,347.447L697.295,351.029L698.192,362.803L699.09,357.652L699.987,355.935L700.885,351.372L701.783,354.561L702.68,353.678L703.578,351.716L704.475,363.098L705.373,372.223L706.271,378.405L707.168,373.008L708.066,354.414L708.963,352.942L709.861,353.188L710.759,366.189L711.656,349.655L712.554,349.999L713.451,348.772L714.349,359.32L715.247,353.629L716.144,359.222L717.042,367.072L717.939,374.922L718.837,373.548L719.735,373.989L720.632,368.298L721.53,353.825L722.427,349.312L723.325,351.372L724.223,354.757L725.12,356.573L726.018,352.206L726.915,362.951L727.813,367.023L728.71,374.48L729.608,370.849L730.506,365.355L731.403,366.974L732.301,372.468L733.198,378.994L734.096,375.952L734.994,373.695L735.891,369.819L736.789,363.638L737.686,358.192L738.584,363.638L739.482,370.015L740.379,370.997L741.277,365.698L742.174,366.777L743.072,366.826L743.97,366.14L744.867,363.098L745.765,365.306L746.662,365.502L747.56,361.086L748.458,352.844L749.355,336.507L750.253,333.612L751.15,335.722L752.048,353.433L752.946,359.32L753.843,361.135L754.741,362.068L755.638,365.6L756.536,372.125L757.434,372.174L758.331,367.759L759.229,364.717L760.126,355.493L761.024,354.169L761.922,344.013L762.819,342.051L763.717,333.024L764.614,333.612L765.512,335.673L766.41,334.888L767.307,332.435L768.205,341.07L769.102,348.723L770,343.228"/></g></svg>