<svg xmlns="http://www.w3.org/2000/svg" width="830" height="470" fill="currentColor" class="plot-d6a7b5" font-family="system-ui, sans-serif" font-size="10" style="--plot-background:white;display:block;height:intrinsic;max-width:100%;color:#1e90ff" text-anchor="middle" viewBox="0 0 830 470">
    <style>
        :where(.plot-d6a7b5 text),:where(.plot-d6a7b5 tspan){white-space:pre}
    </style>
    <path stroke="currentColor" stroke-opacity=".1" d="
M60
410
h710
M60
360.669
h710
M60
311.338
h710
M60
262.007
h710
M60
212.675
h710
M60
163.344
h710
M60
114.013
h710
M60
64.682
h710" aria-hidden="true" aria-label="y-grid"/>
    <path fill="none" stroke="currentColor" d="
M60
410
h-6
m6
-49.331
h-6
m6
-49.331
h-6
m6
-49.331
h-6
m6
-49.332
h-6
m6
-49.331
h-6
m6
-49.331
h-6
m6
-49.331
h-6" aria-hidden="true" aria-label="y-axis tick"/>
    <g aria-label="y-axis tick label" font-variant="tabular-nums" text-anchor="end">
        <text y=".32em" transform="translate(51 410)">0</text>
        <text y=".32em" transform="translate(51 360.669)">100,000</text>
        <text y=".32em" transform="translate(51 311.338)">200,000</text>
        <text y=".32em" transform="translate(51 262.007)">300,000</text>
        <text y=".32em" transform="translate(51 212.675)">400,000</text>
        <text y=".32em" transform="translate(51 163.344)">500,000</text>
        <text y=".32em" transform="translate(51 114.013)">600,000</text>
        <text y=".32em" transform="translate(51 64.682)">700,000</text>
    </g>
    <text y=".71em" aria-label="y-axis label" text-anchor="start" transform="translate(3 3)">↑ Total vestiges</text>
    <path fill="none" stroke="currentColor" d="
M81.709
410
v6
m58.102
-6
v6
m58.741
-6
v6
m58.741
-6
v6
m58.103
-6
v6
m58.102
-6
v6
m58.742
-6
v6
m58.74
-6
v6
m57.464
-6
v6
m58.103
-6
v6
m58.741
-6
v6
m58.741
-6
v6" aria-hidden="true" aria-label="x-axis tick"/>
    <g aria-label="x-axis tick label" font-variant="tabular-nums">
        <text transform="translate(81.709 419)"><tspan x="0" y=".71em">Apr</tspan><tspan x="0" dy="1em">2023</tspan></text>
        <text y=".71em" transform="translate(139.811 419)">Jul</text>
        <text y=".71em" transform="translate(198.552 419)">Oct</text>
        <text transform="translate(257.293 419)"><tspan x="0" y=".71em">Jan</tspan><tspan x="0" dy="1em">2024</tspan></text>
        <text y=".71em" transform="translate(315.396 419)">Apr</text>
        <text y=".71em" transform="translate(373.498 419)">Jul</text>
        <text y=".71em" transform="translate(432.24 419)">Oct</text>
        <text transform="translate(490.98 419)"><tspan x="0" y=".71em">Jan</tspan><tspan x="0" dy="1em">2025</tspan></text>
        <text y=".71em" transform="translate(548.444 419)">Apr</text>
        <text y=".71em" transform="translate(606.547 419)">Jul</text>
        <text y=".71em" transform="translate(665.288 419)">Oct</text>
        <text transform="translate(724.029 419)"><tspan x="0" y=".71em">Jan</tspan><tspan x="0" dy="1em">2026</tspan></text>
    </g>
    <path fill="none" stroke="currentColor" stroke-linecap="round" stroke-linejoin="round" stroke-width="1.5" d="
m60
410
.426
-.248
.425
-.905
.426
-.489
.426
-.346
.425
-.571
.426
-.45
.426
-.422
.425
-.853
.426
-.676
.426
-.801
.425
-1.242
.426
-1.171
.426
-.607
.425
-.88
.426
-.597
.426
-.685
.425
-.895
.426
-.603
.426
-.591
.425
-.802
.426
-.89
.426
-.63
.425
-1.075
.426
-.509
.425
-.475
.426
-.857
.426
-.82
.425
-.632
.426
-.88
.426
-.877
.425
-.799
.426
-1.239
.426
-.983
.425
-.569
.426
-.593
.426
-.447
.425
-.36
.426
-.669
.426
-.654
.425
-.456
.426
-1.056
.426
-1.103
.425
-.988
.426
-1.198
.426
-.812
.425
-.692
.426
-.942
.426
-.788
.425
-.571
.426
-1.028
.426
-.994
.425
-.928
.426
-1.329
.426
-1.262
.425
-.657
.426
-.974
.426
-.879
.425
-.788
.426
-1.116
.426
-1.047
.425
-.91
.426
-1.095
.426
-1.048
.425
-.904
.426
-1.215
.426
-.747
.425
-.674
.426
-.941
.426
-.77
.425
-.576
.426
-.742
.425
-.801
.426
-.746
.426
-.979
.425
-.97
.426
-.553
.426
-.768
.425
-.599
.426
-.395
.426
-.61
.425
-.607
.426
-.645
.426
-.835
.425
-.848
.426
-.663
.426
-.917
.425
-.644
.426
-.421
.426
-.967
.425
-.667
.426
-.362
.426
-.605
.425
-.584
.426
-.608
.426
-.834
.425
-.727
.426
-.625
.426
-.544
.425
-.482
.426
-.462
.426
-.758
.425
-.431
.426
-.439
.426
-.712
.425
-.807
.426
-.633
.426
-.814
.425
-.548
.426
-.51
.426
-.738
.425
-.505
.426
-.481
.426
-.643
.425
-.502
.426
-.607
.425
-.642
.426
-.584
.426
-.483
.425
-.507
.426
-.443
.426
-.416
.425
-.587
.426
-.447
.426
-.403
.425
-.665
.426
-.865
.426
-.63
.425
-.821
.426
-.49
.426
-.563
.425
-.581
.426
-.531
.426
-.373
.425
-.74
.426
-.58
.426
-.61
.425
-.886
.426
-.653
.426
-.57
.425
-.582
.426
-.636
.426
-.493
.425
-.482
.426
-.637
.426
-.376
.425
-.499
.426
-.451
.426
-.423
.425
-.596
.426
-.431
.426
-.449
.425
-.601
.426
-.43
.426
-.397
.425
-.43
.426
-.506
.426
-.475
.425
-.497
.426
-.538
.426
-.422
.425
-.517
.426
-.435
.425
-.432
.426
-.599
.426
-.499
.425
-.394
.426
-.517
.426
-.491
.425
-.355
.426
-.61
.426
-.466
.425
-.48
.426
-.533
.426
-.454
.425
-.27
.426
-.495
.426
-.403
.425
-.481
.426
-.571
.426
-.452
.425
-.499
.426
-.548
.426
-.499
.425
-.438
.426
-.714
.426
-.581
.425
-.334
.426
-.535
.426
-.476
.425
-.286
.426
-.507
.426
-.327
.425
-.39
.426
-.473
.426
-.441
.425
-.349
.426
-.551
.426
-.404
.425
-.366
.426
-.513
.426
-.461
.425
-.363
.426
-.556
.426
-.355
.425
-.402
.426
-.511
.426
-.415
.425
-.471
.426
-.539
.425
-.472
.426
-.402
.426
-.46
.425
-.542
.426
-.424
.426
-.397
.425
-.421
.426
-.32
.426
-.548
.425
-.344
.426
-.388
.426
-.487
.425
-.389
.426
-.471
.426
-.628
.425
-.473
.426
-.279
.426
-.641
.425
-.471
.426
-.42
.426
-.585
.425
-.396
.426
-.425
.426
-.49
.425
-.496
.426
-.429
.426
-.634
.425
-.489
.426
-.43
.426
-.521
.425
-.575
.426
-.587
.426
-.863
.425
-.528
.426
-.397
.426
-.539
.425
-.432
.426
-.314
.426
-.489
.425
-.431
.426
-.302
.426
-.492
.425
-.449
.426
-.325
.426
-.52
.425
-.487
.426
-.37
.425
-.486
.426
-.609
.426
-.514
.425
-.64
.426
-.453
.426
-.438
.425
-.649
.426
-.486
.426
-.451
.425
-.543
.426
-.449
.426
-.3
.425
-.434
.426
-.328
.426
-.36
.425
-.436
.426
-.438
.426
-.405
.425
-.405
.426
-.418
.426
-.354
.425
-.393
.426
-.389
.426
-.329
.425
-.38
.426
-.391
.426
-.423
.425
-.506
.426
-.361
.426
-.39
.425
-.409
.426
-.3
.426
-.322
.425
-.335
.426
-.205
.426
-.252
.425
-.574
.426
-.398
.426
-.373
.425
-.505
.426
-.212
.426
-.283
.425
-.267
.426
-.213
.426
-.322
.425
-.329
.426
-.377
.425
-.395
.426
-.632
.426
-.536
.425
-.287
.426
-.388
.426
-.267
.425
-.321
.426
-.371
.426
-.332
.425
-.265
.426
-.405
.426
-.446
.425
-.329
.426
-.449
.426
-.228
.425
-.224
.426
-.3
.426
-.283
.425
-.252
.426
-.41
.426
-.342
.425
-.349
.426
-.472
.426
-.354
.425
-.188
.426
-.347
.426
-.256
.425
-.23
.426
-.29
.426
-.285
.425
-.328
.426
-.43
.426
-.461
.425
-.462
.426
-.481
.426
-.347
.425
-.264
.426
-.328
.426
-.275
.425
-.296
.426
-.399
.426
-.267
.425
-.251
.426
-.557
.425
-.477
.426
-.293
.426
-.303
.425
-.218
.426
-.171
.426
-.363
.425
-.24
.426
-.239
.426
-.466
.425
-.5
.426
-.376
.426
-.51
.425
-.27
.426
-.247
.426
-.426
.425
-.275
.426
-.262
.426
-.373
.425
-.398
.426
-.254
.426
-.422
.425
-.271
.426
-.175
.426
-.375
.425
-.251
.426
-.153
.426
-.231
.425
-.236
.426
-.395
.426
-.466
.425
-.468
.426
-.311
.426
-.308
.425
-.179
.426
-.27
.426
-.317
.425
-.175
.426
-.182
.426
-.313
.425
-.191
.426
-.263
.426
-.288
.425
-.259
.426
-.168
.426
-.232
.425
-.127
.426
-.173
.425
-.236
.426
-.158
.426
-.107
.425
-.37
.426
-.365
.426
-.356
.425
-.354
.426
-.272
.426
-.168
.425
-.274
.426
-.169
.426
-.239
.425
-.347
.426
-.284
.426
-.248
.425
-.372
.426
-.264
.426
-.255
.425
-.301
.426
-.247
.426
-.28
.425
-.414
.426
-.245
.426
-.231
.425
-.242
.426
-.279
.426
-.275
.425
-.302
.426
-.176
.426
-.109
.425
-.259
.426
-.217
.426
-.168
.425
-.202
.426
-.192
.426
-.15
.425
-.238
.426
-.217
.426
-.123
.425
-.28
.426
-.266
.426
-.115
.425
-.166
.426
-.131
.426
-.144
.425
-.275
.426
-.277
.425
-.201
.426
-.188
.426
-.194
.425
-.244
.426
-.191
.426
-.138
.425
-.163
.426
-.271
.426
-.169
.425
-.206
.426
-.344
.426
-.278
.425
-.142
.426
-.223
.426
-.29
.425
-.229
.426
-.296
.426
-.225
.425
-.253
.426
-.296
.426
-.229
.425
-.215
.426
-.272
.426
-.233
.425
-.212
.426
-.333
.426
-.2
.425
-.154
.426
-.322
.426
-.114
.425
-.195
.426
-.315
.426
-.164
.425
-.189
.426
-.236
.426
-.143
.425
-.147
.426
-.148
.426
-.108
.425
-.202
.426
-.275
.426
-.254
.425
-.31
.426
-.369
.426
-.169
.425
-.201
.426
-.194
.425
-.268
.426
-.298
.426
-.223
.425
-.162
.426
-.262
.426
-.315
.425
-.441
.426
-.274
.426
-.336
.425
-.194
.426
-.178
.426
-.239
.425
-.103
.426
-.151
.426
-.381
.425
-.419
.426
-.307
.426
-.427
.425
-.237
.426
-.202
.426
-.243
.425
-.239
.426
-.203
.426
-.32
.425
-.19
.426
-.319
.426
-.474
.425
-.332
.426
-.24
.426
-.357
.425
-.237
.426
-.174
.426
-.367
.425
-.295
.426
-.329
.426
-.324
.425
-.378
.426
-.503
.426
-.548
.425
-.298
.426
-.311
.426
-.453
.425
-.309
.426
-.23
.425
-.297
.426
-.252
.426
-.253
.425
-.406
.426
-.355
.426
-.146
.425
-.317
.426
-.272
.426
-.313
.425
-.308
.426
-.185
.426
-.271
.425
-.405
.426
-.374
.426
-.249
.425
-.383
.426
-.192
.426
-.246
.425
-.277
.426
-.181
.426
-.214
.425
-.284
.426
-.226
.426
-.228
.425
-.422
.426
-.236
.426
-.201
.425
-.181
.426
-.168
.426
-.224
.425
-.209
.426
-.129
.426
-.159
.425
-.34
.426
-.214
.426
-.162
.425
-.318
.426
-.222
.426
-.094
.425
-.19
.426
-.255
.426
-.19
.425
-.26
.426
-.282
.426
-.269
.425
-.416
.426
-.289
.425
-.186
.426
-.033
.426
-.004
.425
-.002
.426
-.002
.426
-.004
.425
-.004
.426
-.005
.426
-.023
.425
-.016
.426
-.011
.426
-.026
.425
-.044
.426
-.031
.426
-.039
.425
-.077
.426
-.103
.426
-.26
.425
-.175
.426
-.165
.426
-.148
.425
-.141
.426
-.162
.426
-.205
.425
-.185
.426
-.218
.426
-.227
.425
-.201
.426
-.244
.426
-.186
.425
-.142
.426
-.206
.426
-.22
.425
-.096
.426
-.144
.426
-.212
.425
-.12
.426
-.126
.426
-.186
.425
-.148
.426
-.217
.426
-.182
.425
-.109
.426
-.164
.426
-.144
.425
-.136
.426
-.093
.425
-.117
.426
-.07
.426
-.125
.425
-.132
.426
-.168
.426
-.236
.425
-.15
.426
-.097
.426
-.209
.425
-.158
.426
-.144
.426
-.15
.425
-.208
.426
-.144
.426
-.201
.425
-.137
.426
-.106
.426
-.162
.425
-.179
.426
-.187
.426
-.122
.425
-.167
.426
-.143
.426
-.179
.425
-.254
.426
-.191
.426
-.246
.425
-.136
.426
-.12
.426
-.167
.425
-.166
.426
-.141
.426
-.187
.425
-.214
.426
-.133
.426
-.239
.425
-.212
.426
-.171
.426
-.249
.425
-.143
.426
-.111
.426
-.087
.425
-.121
.426
-.154
.426
-.166
.425
-.352
.426
-.174
.425
-.266
.426
-.125
.426
-.121
.425
-.15
.426
-.223
.426
-.075
.425
-.163
.426
-.18
.426
-.161
.425
-.248
.426
-.305
.426
-.16
.425
-.268
.426
-.123
.426
-.166
.425
-.3
.426
-.219
.426
-.149
.425
-.242
.426
-.259
.426
-.139
.425
-.32
.426
-.144
.426
-.145
.425
-.209
.426
-.216
.426
-.147
.425
-.244
.426
-.19
.426
-.199
.425
-.292
.426
-.291
.426
-.21
.425
-.201
.426
-.268
.426
-.16
.425
-.165
.426
-.149
.426
-.212
.425
-.183
.426
-.195
.426
-.18
.425
-.191
.426
-.215
.426
-.065
.425
-.1
.426
-.153
.425
-.119
.426
-.287
.426
-.167
.425
-.118
.426
-.156
.426
-.333
.425
-.114
.426
-.168
.426
-.228
.425
-.171
.426
-.112
.426
-.148
.425
-.093
.426
-.125
.426
-.144
.425
-.15
.426
-.271
.426
-.19
.425
-.128
.426
-.238
.426
-.171
.425
-.172
.426
-.13
.426
-.13
.425
-.098
.426
-.165
.426
-.186
.425
-.081
.426
-.111
.426
-.12
.425
-.112
.426
-.133
.426
-.159
.425
-.174
.426
-.188
.426
-.104
.425
-.11
.426
-.178
.426
-.157
.425
-.099
.426
-.178
.426
-.164
.425
-.13
.426
-.155
.425
-.163
.426
-.174
.426
-.238
.425
-.327
.426
-.203
.426
-.217
.425
-.149
.426
-.144
.426
-.198
.425
-.139
.426
-.109
.426
-.133
.425
-.139
.426
-.153
.426
-.164
.425
-.231
.426
-.166
.426
-.266
.425
-.251
.426
-.257
.426
-.26
.425
-.23
.426
-.265
.426
-.285
.425
-.144
.426
-.188
.426
-.339
.425
-.178
.426
-.16
.426
-.221
.425
-.153
.426
-.078
.426
-.458
.425
-.395
.426
-.394
.426
-.423
.425
-.341
.426
-.246
.426
-.383
.425
-.403
.426
-.248
.426
-.234
.425
-.284
.426
-.261
.426
-.29
.425
-.321
.426
-.211
.425
-.131
.426
-.238
.426
-.136
.425
-.143
.426
-.188
.426
-.178
.425
-.208
.426
-.25
.426
-.25
.425
-.192
.426
-.195
.426
-.171
.425
-.152
.426
-.105
.426
-.077
.425
-.09
.426
-.114
.426
-.134
.425
-.093
.426
-.15
.426
-.101
.425
-.119
.426
-.104
.426
-.13
.425
-.106
.426
-.19
.426
-.138
.425
-.15
.426
-.116
.426
-.172
.425
-.179
.426
-.158
.426
-.12
.425
-.148
.426
-.109
.426
-.125
.425
-.081
.426
-.1
.426
-.11
.425
-.092
.426
-.159
.426
-.13
.425
-.112
.426
-.113
.426
-.134
.425
-.118
.426
-.152
.425
-.098
.426
-.172
.426
-.233
.425
-.223
.426
-.31
.426
-.134
.425
-.152
.426
-.16
.426
-.099
.425
-.167
.426
-.166
.426
-.166
.425
-.218
.426
-.386
.426
-.17
.425
-.111
.426
-.238
.426
-.143
.425
-.077
.426
-.159
.426
-.132
.425
-.104
.426
-.183
.426
-.209
.425
-.204
.426
-.29
.426
-.112
.425
-.099
.426
-.141
.426
-.125
.425
-.07
.426
-.085
.426
-.126
.425
-.063
.426
-.119
.426
-.106
.425
-.079
.426
-.099
.426
-.06
.425
-.097
.426
-.142
.426
-.119
.425
-.089
.426
-.184
.426
-.145
.425
-.131
.426
-.192
.425
-.054
.426
-.071
.426
-.127
.425
-.075
.426
-.079
.426
-.1
.425
-.064
.426
-.077
.426
-.184
.425
-.114
.426
-.041
.426
-.049
.425
-.071
.426
-.103
.426
-.099
.425
-.151
.426
-.08
.426
-.164
.425
-.23
.426
-.169
.426
-.253
.425
-.18
.426
-.115
.426
-.11
.425
-.107
.426
-.126
.426
-.098
.425
-.084
.426
-.147
.426
-.146
.425
-.159
.426
-.084
.426
-.147
.425
-.059
.426
-.072
.426
-.144
.425
-.092
.426
-.093
.426
-.107
.425
-.135
.426
-.123
.426
-.133
.425
-.078
.426
-.109
.425
-.129
.426
-.113
.426
-.106
.425
-.144
.426
-.099
.426
-.116
.425
-.177
.426
-.177
.426
-.07
.425
-.099
.426
-.114
.426
-.075
.425
-.103
.426
-.08
.426
-.043
.425
-.1
.426
-.05
.426
-.026
.425
-.069
.426
-.095
.426
-.049
.425
-.055
.426
-.104
.426
-.165
.425
-.107
.426
-.153
.426
-.059
.425
-.086
.426
-.067
.426
-.093
.425
-.091
.426
-.049
.426
-.066
.425
-.114
.426
-.088
.426
-.083
.425
-.151
.426
-.15
.426
-.078
.425
-.142
.426
-.079
.426
-.142
.425
-.106
.426
-.052
.426
-.062
.425
-.106
.426
-.086
.425
-.097
.426
-.173
.426
-.052
.425
-.127
.426
-.105
.426
-.084
.425
-.066
.426
-.082
.426
-.061
.425
-.08
.426
-.086
.426
-.138
.425
-.113
.426
-.237
.426
-.169
.425
-.135
.426
-.16
.426
-.121
.425
-.112
.426
-.192
.426
-.199
.425
-.105
.426
-.181
.426
-.109
.425
-.066
.426
-.125
.426
-.085
.425
-.094
.426
-.064
.426
-.138
.425
-.083
.426
-.099
.426
-.093
.425
-.111
.426
-.079
.426
-.09
.425
-.08
.426
-.091
.426
-.131
.425
-.096
.426
-.169
.426
-.102
.425
-.106
.426
-.133
.426
-.128
.425
-.139
.426
-.15
.425
-.105
.426
-.063
.426
-.13
.425
-.111
.426
-.1
.426
-.128
.425
-.146
.426
-.207
.426
-.261
.425
-.187
.426
-.102
.426
-.113
.425
-.086
.426
-.1
.426
-.14
.425
-.088
.426
-.072
.426
-.186
.425
-.163
.426
-.081
.426
-.142
.425
-.118
.426
-.11
.426
-.118
.425
-.157
.426
-.186
.426
-.121
.425
-.121
.426
-.083
.426
-.102
.425
-.09
.426
-.039
.426
-.173
.425
-.076
.426
-.12
.426
-.155
.425
-.128
.426
-.181
.426
-.17
.425
-.118
.426
-.117
.426
-.194
.425
-.099
.426
-.105
.426
-.172
.425
-.108
.426
-.129
.425
-.177
.426
-.087
.426
-.096
.425
-.153
.426
-.102
.426
-.19
.425
-.103
.426
-.176
.426
-.15
.425
-.096
.426
-.086
.426
-.118
.425
-.231
.426
-.223
.426
-.144
.425
-.194
.426
-.124
.426
-.146
.425
-.221
.426
-.168
.426
-.144
.425
-.146
.426
-.098
.426
-.122
.425
-.113
.426
-.128
.426
-.113
.425
-.131
.426
-.104
.426
-.122
.425
-.18
.426
-.137
.426
-.085
.425
-.082
.426
-.1
.426
-.096
.425
-.093
.426
-.062
.426
-.067
.425
-.11
.426
-.058
.426
-.07
.425
-.102
.426
-.099
.426
-.086
.425
-.137
.426
-.07
.425
-.114
.426
-.073
.426
-.15
.425
-.067
.426
-.123
.426
-.047
.425
-.058
.426
-.164
.426
-.087
.425
-.099
.426
-.047
.426
-.069
.425
-.117
.426
-.072
.426
-.07
.425
-.024
.426
-.072
.426
-.031
.425
-.068
.426
-.047
.426
-.111
.425
-.115
.426
-.109
.426
-.037
.425
-.064
.426
-.052
.426
-.034
.425
-.02
.426
-.095
.426
-.071
.425
-.081
.426
-.032
.426
-.061
.425
-.058
.426
-.093
.426
-.025
.425
-.045
.426
-.04
.426
-.087
.425
-.085
.426
-.062
.426
-.053
.425
-.052
.426
-.04
.425
-.035
.426
-.019
.426
-.019
.425
-.038
.426
-.062
.426
-.011
.425
-.033
.426
-.015
.426
-.027
.425
-.017
.426
-.014
.426
-.018
.425
-.013
.426
-.008
.426
-.027
.425
-.051
.426
-.02
.426
-.029
.425
-.002
.426
-.039
.426
-.034
.425
-.041
.426
-.024
.426
-.077
.425
-.028
.426
-.021
.426
-.028
.425
-.038
.426
-.037
.426
-.011
.425
-.009
.426
-.014
.426
-.017
.425
-.026
.426
-.039
.426
-.035
.425
-.029
.426
-.048
.426
-.062
.425
-.039
.426
-.038
.426
-.042
.425
-.013
.426
-.041
.426
-.057
.425
-.029
.426
-.073
.425
-.065
.426
-.042
.426
-.062
.425
-.027
.426
-.023
.426
-.02
.425
-.052
.426
-.086
.426
-.019
.425
-.073
.426
-.054
.426
-.029
.425
-.028
.426
-.016
.426
-.033
.425
-.038
.426
-.055
.426
-.049
.425
-.061
.426
-.048
.426
-.013
.425
-.06
.426
-.031
.426
-.022
.425
-.002
.426
-.026
.426
-.026
.425
-.034
.426
-.044
.426
-.016
.425
-.034
.426
-.017
.426
-.018
.425
-.019
.426
-.021
.426
-.018
.425
-.041
.426
-.022
.426
-.027
.425
-.069
.426
-.044
.426
-.029
.425
-.04
.426
-.06
.426
-.053
.425
-.025
.426
-.043
.425
-.051
.426
-.039
.426
-.027
.425
-.043
.426
-.071
.426
-.013
.425
-.012
.426
-.036
.426
-.069
.425
-.028
.426
-.073
.426
-.048
.425
-.029
.426
-.094
.426
-.061
.425
-.024
.426
-.061
.426
-.017
.425
-.042
.426
-.003
.426
-.031
.425
-.018
.426
-.016
.426
-.033
.425
-.028
.426
-.051
.426
-.049
.425
-.086
.426
-.033
.426
-.039
.425
-.014
.426
-.047
.426
-.04
.425
-.071
.426
-.017
.426
-.031
.425
-.056
.426
-.051
.426
-.017
.425
-.051
.426
-.04
.426
-.004
.425
-.029
.426
-.036
.426
-.051
.425
-.036
.426
-.032
.425
-.023
.426
-.06
.426
-.071
.425
-.039
.426
-.025
.426
-.071
.425
-.033
.426
-.03
.426
-.015
.425
-.027
.426
-.02
.426
-.059
.425
-.031
.426
-.015
.426
-.013
.425
-.047
.426
-.007
.426
-.04
.425
-.034
.426
-.025
.426
-.008
.425
-.001
.426
-.01
.426
-.008
.425
-.015
.426
-.03
.426
-.013
.425
-.013
.426
-.014
.426
-.012
.425
-.027
.426
-.058
.426
-.008
.425
-.038
.426
-.073
.426
-.107
.425
-.083
.426
-.021
.426
-.024
.425
-.033
.426
-.023
.426
-.019
.425
-.034
.426
-.05
.425
-.062
.426
-.031
.426
-.018
.425
-.003
.426
-.026
.426
-.062
.425
-.026
.426
-.022
.426
-.029
.425
-.027
.426
-.049
.426
-.036
.425
-.067
.426
-.002
.426
-.004
.425
-.017
.426
-.025
.426
-.001
.425
-.067
.426
-.022
.426
-.051
.425
-.059
h.426
l.426
-.002
.425
-.006
.426
-.008
.426
-.013
.425
-.015
.426
-.004
.426
-.038
.425
-.02
.426
-.018
.426
-.008
.425
-.003
.426
-.003
.426
-.002
.425
-.002
.426
-.002
.426
-.025
.425
-.039
.426
-.09
.426
-.094
.425
-.052
.426
-.014
h.426
l.425
-.036
.426
-.035
.425
-.024
.426
-.031
.426
-.079
.425
-.064
.426
-.035
.426
-.061
.425
-.031
.426
-.019
.426
-.028
.425
-.015
.426
-.044
.426
-.049
.425
-.021
.426
-.008
.426
-.05
.425
-.045
.426
-.065
.426
-.019
.425
-.002
.426
-.005
.426
-.017
.425
-.024
.426
-.014
.426
-.007
.425
-.014
.426
-.002
.426
-.025
.425
-.027
.426
-.044
.426
-.008
.425
-.016
.426
-.019
.426
-.016
.425
-.037
.426
-.032
.426
-.042
.425
-.024
.426
-.009
.426
-.016
.425
-.021
.426
-.033
.426
-.007
.425
-.017
.426
-.038
.426
-.041
.425
-.004
.426
-.026
.425
-.019
.426
-.017
.426
-.011
.425
-.018
.426
-.002
.426
-.002
.425
-.021
h.426
l.426
-.021
.425
-.027
h.426
l.426
-.013
.425
-.014
.426
-.022
.426
-.028
.425
-.033
.426
-.005
.426
-.017
.425
-.003
.426
-.01
.426
-.015
.425
-.049
.426
-.004
.426
-.025
.425
-.021
.426
-.009
.426
-.027
.425
-.026
.426
-.031
.426
-.041
.425
-.041
.426
-.029
.426
-.048
.425
-.007
.426
-.017
.426
-.012
.425
-.011
.426
-.004
.426
-.001
.425
-.003
.426
-.016
.426
-.015
.425
-.008
.426
-.015
.426
-.027
.425
-.011
.426
-.039
.425
-.012
.426
-.014
.426
-.012
.425
-.02
.426
-.009
.426
-.011
.425
-.042
.426
-.013
.426
-.024
.425
-.026
.426
-.003
.426
-.012
.425
-.021
.426
-.023
.426
-.003
.425
-.04
.426
-.022
.426
-.011
.425
-.014
.426
-.041
.426
-.016
.425
-.022
.426
-.014
.426
-.013
.425
-.041
.426
-.002
h.426
l.425
-.034
.426
-.057
.426
-.029
.425
-.004
.426
-.003
.426
-.001
.425
-.015
.426
-.011
.426
-.017
.425
-.047
.426
-.031
.426
-.024
.425
-.014
.426
-.051
.426
-.044
.425
-.009
.426
-.027
.426
-.01
.425
-.017
.426
-.004
.425
-.021
.426
-.016
.426
-.025
.425
-.033
.426
-.098
.426
-.044
.425
-.035
.426
-.064
.426
-.054
.425
-.025
.426
-.075
.426
-.006
.425
-.039
.426
-.015
.426
-.039
.425
-.015
.426
-.045
.426
-.021
.425
-.028
.426
-.04
.426
-.032
.425
-.045
.426
-.051
.426
-.014
.425
-.011
.426
-.059
.426
-.031
.425
-.035
.426
-.042
.426
-.029
.425
-.031
.426
-.023
.426
-.052
.425
-.021
.426
-.028
.426
-.051
.425
-.039
.426
-.069
.426
-.043
.425
-.013
.426
-.025
.426
-.02
.425
-.009
.426
-.078
.425
-.03
.426
-.028
.426
-.025
.425
-.056
.426
-.019
.426
-.011
.425
-.014
.426
-.006
.426
-.044
.425
-.025
.426
-.029
.426
-.005
.425
-.008
.426
-.01
.426
-.054
.425
-.035
.426
-.048
.426
-.046
.425
-.103
.426
-.098
.426
-.093
.425
-.065
.426
-.09
.426
-.106
.425
-.039
.426
-.101
.426
-.074
.425
-.052
.426
-.084
.426
-.061
.425
-.098
.426
-.045
.426
-.11
.425
-.051
.426
-.048
.426
-.049
.425
-.017
.426
-.063
.426
-.091
.425
-.039
.426
-.044
.426
-.143
.425
-.041
.426
-.069
.426
-.069
.425
-.072
.426
-.035
.425
-.094
.426
-.07
.426
-.046
.425
-.042
.426
-.041
.426
-.035
.425
-.048
.426
-.011
.426
-.013
.425
-.04
.426
-.03
.426
-.056
.425
-.058
.426
-.019
.426
-.048
.425
-.024
.426
-.022
.426
-.035
.425
-.036
.426
-.018
.426
-.01
.425
-.045
L770
60" aria-label="line"/>
</svg>
