<?xml version="1.0"?>
<svg xmlns="http://www.w3.org/2000/svg" xmlns:xlink="http://www.w3.org/1999/xlink" class="plot-d6a7b5" fill="currentColor" font-family="system-ui, sans-serif" font-size="10" text-anchor="middle" width="830" height="470" viewBox="0 0 830 470" color="#1e90ff">
  <style>:where(.plot-d6a7b5){--plot-background: white;display:block;height:intrinsic;max-width:100%}:where(.plot-d6a7b5 text),:where(.plot-d6a7b5 tspan){white-space:pre}</style>
  <g aria-label="y-grid" stroke="currentColor" stroke-opacity=".1">
    <line x1="60" x2="770" y1="410" y2="410"/>
    <line x1="60" x2="770" y1="360.939" y2="360.939"/>
    <line x1="60" x2="770" y1="311.878" y2="311.878"/>
    <line x1="60" x2="770" y1="262.817" y2="262.817"/>
    <line x1="60" x2="770" y1="213.757" y2="213.757"/>
    <line x1="60" x2="770" y1="164.696" y2="164.696"/>
    <line x1="60" x2="770" y1="115.635" y2="115.635"/>
    <line x1="60" x2="770" y1="66.574" y2="66.574"/>
  </g>
  <g aria-label="y-axis tick" fill="none" stroke="currentColor">
    <path transform="translate(60,410)" d="M0,0L-6,0"/>
    <path transform="translate(60,360.9391645640594)" d="M0,0L-6,0"/>
    <path transform="translate(60,311.8783291281189)" d="M0,0L-6,0"/>
    <path transform="translate(60,262.8174936921783)" d="M0,0L-6,0"/>
    <path transform="translate(60,213.7566582562377)" d="M0,0L-6,0"/>
    <path transform="translate(60,164.69582282029717)" d="M0,0L-6,0"/>
    <path transform="translate(60,115.6349873843566)" d="M0,0L-6,0"/>
    <path transform="translate(60,66.57415194841604)" d="M0,0L-6,0"/>
  </g>
  <g aria-label="y-axis tick label" text-anchor="end" font-variant="tabular-nums">
    <text y=".32em" transform="translate(-9,0) translate(60,410)">0</text>
    <text y=".32em" transform="translate(-9,0) translate(60,360.9391645640594)">1,000</text>
    <text y=".32em" transform="translate(-9,0) translate(60,311.8783291281189)">2,000</text>
    <text y=".32em" transform="translate(-9,0) translate(60,262.8174936921783)">3,000</text>
    <text y=".32em" transform="translate(-9,0) translate(60,213.7566582562377)">4,000</text>
    <text y=".32em" transform="translate(-9,0) translate(60,164.69582282029717)">5,000</text>
    <text y=".32em" transform="translate(-9,0) translate(60,115.6349873843566)">6,000</text>
    <text y=".32em" transform="translate(-9,0) translate(60,66.57415194841604)">7,000</text>
  </g>
  <g aria-label="y-axis label" text-anchor="start">
    <text y=".71em" transform="translate(-57,-57) translate(60,60)">&#x2191; Visible Vestiges (4 days)</text>
  </g>
  <g aria-label="x-axis tick" fill="none" stroke="currentColor">
    <path transform="translate(86.72324723247232,410)" d="M0,0L0,6"/>
    <path transform="translate(158.24723247232475,410)" d="M0,0L0,6"/>
    <path transform="translate(230.55719557195573,410)" d="M0,0L0,6"/>
    <path transform="translate(302.8671586715867,410)" d="M0,0L0,6"/>
    <path transform="translate(374.3911439114391,410)" d="M0,0L0,6"/>
    <path transform="translate(445.91512915129147,410)" d="M0,0L0,6"/>
    <path transform="translate(518.2250922509226,410)" d="M0,0L0,6"/>
    <path transform="translate(590.5350553505534,410)" d="M0,0L0,6"/>
    <path transform="translate(661.2730627306272,410)" d="M0,0L0,6"/>
    <path transform="translate(732.7970479704798,410)" d="M0,0L0,6"/>
  </g>
  <g aria-label="x-axis tick label" font-variant="tabular-nums">
    <text transform="translate(0,9) translate(86.72324723247232,410)">
      <tspan x="0" y=".71em">Apr</tspan>
      <tspan x="0" dy="1em">2023</tspan>
    </text>
    <text y=".71em" transform="translate(0,9) translate(158.24723247232475,410)">Jul</text>
    <text y=".71em" transform="translate(0,9) translate(230.55719557195573,410)">Oct</text>
    <text transform="translate(0,9) translate(302.8671586715867,410)">
      <tspan x="0" y=".71em">Jan</tspan>
      <tspan x="0" dy="1em">2024</tspan>
    </text>
    <text y=".71em" transform="translate(0,9) translate(374.3911439114391,410)">Apr</text>
    <text y=".71em" transform="translate(0,9) translate(445.91512915129147,410)">Jul</text>
    <text y=".71em" transform="translate(0,9) translate(518.2250922509226,410)">Oct</text>
    <text transform="translate(0,9) translate(590.5350553505534,410)">
      <tspan x="0" y=".71em">Jan</tspan>
      <tspan x="0" dy="1em">2025</tspan>
    </text>
    <text y=".71em" transform="translate(0,9) translate(661.2730627306272,410)">Apr</text>
    <text y=".71em" transform="translate(0,9) translate(732.7970479704798,410)">Jul</text>
  </g>
  <g aria-label="line" fill="none" stroke="currentColor" stroke-width="1.5" stroke-linejoin="round" stroke-linecap="round">
    <path d="M60,410L60.524,385.371L61.048,295.296L61.572,246.726L62.096,236.913L62.62,270.177L63.144,274.003L63.668,266.497L64.192,238.434L64.716,216.013L65.24,178.237L65.764,139.626L66.288,90.369L66.812,109.65L67.336,145.66L67.86,202.669L68.384,195.015L68.908,193.445L69.432,192.906L69.956,202.227L70.48,211.5L71.004,182.996L71.528,179.12L72.052,151.989L72.576,189.815L73.1,205.22L73.624,226.905L74.148,195.948L74.672,180.395L75.196,178.089L75.72,172.398L76.244,155.718L76.768,120.05L77.292,109.601L77.815,132.463L78.339,196.683L78.863,250.013L79.387,270.765L79.911,263.21L80.435,242.555L80.959,233.038L81.483,194.623L82.007,149.978L82.531,97.041L83.055,82.862L83.579,111.808L84.103,141.343L84.627,166.756L85.151,169.111L85.675,181.131L86.199,172.595L86.723,152.136L87.247,116.665L87.771,86.689L88.295,60L88.819,86.934L89.343,122.258L89.867,160.378L90.391,147.328L90.915,133.297L91.439,116.518L91.963,104.351L92.487,106.461L93.011,106.362L93.535,107.049L94.059,95.029L94.583,125.006L95.107,147.77L95.631,175.048L96.155,172.791L96.679,182.603L97.203,202.375L97.727,199.333L98.251,182.358L98.775,158.759L99.299,141.883L99.823,161.114L100.347,182.161L100.871,219.055L101.395,234.853L101.919,250.503L102.443,249.718L102.967,224.795L103.491,202.473L104.015,178.482L104.539,176.716L105.063,168.474L105.587,188.785L106.111,212.825L106.635,207.967L107.159,205.613L107.683,211.5L108.207,247.412L108.731,255.802L109.255,231.32L109.779,208.507L110.303,194.329L110.827,192.562L111.351,221.508L111.875,245.744L112.399,262.033L112.923,240.74L113.446,245.793L113.97,248.099L114.494,252.662L115.018,215.327L115.542,195.997L116.066,185.841L116.59,211.549L117.114,223.814L117.638,231.32L118.162,235.638L118.686,238.483L119.21,248.05L119.734,248.345L120.258,235.834L120.782,235.785L121.306,227.69L121.83,239.955L122.354,253.496L122.878,267.527L123.402,274.151L123.926,266.154L124.45,265.712L124.974,267.086L125.498,259.334L126.022,217.829L126.546,195.212L127.07,179.757L127.594,216.897L128.118,223.618L128.642,247.412L129.166,243.438L129.69,262.327L130.214,246.578L130.738,241.623L131.262,218.025L131.786,203.454L132.31,196.34L132.834,200.314L133.358,230.486L133.882,232.105L134.406,239.857L134.93,249.865L135.454,249.718L135.978,261.297L136.502,259.579L137.026,278.174L137.55,273.464L138.074,263.799L138.598,265.761L139.122,263.21L139.646,262.719L140.17,262.817L140.694,267.969L141.218,285.042L141.742,277.438L142.266,269.637L142.79,263.014L143.314,259.825L143.838,265.123L144.362,263.063L144.886,273.366L145.41,272.384L145.934,264.191L146.458,257.813L146.982,261.64L147.506,269.833L148.03,270.569L148.554,274.396L149.077,265.123L149.601,267.675L150.125,255.262L150.649,262.916L151.173,264.093L151.697,284.993L152.221,288.82L152.745,293.824L153.269,272.875L153.793,265.271L154.317,260.414L154.841,258.647L155.365,260.953L155.889,256.292L156.413,262.278L156.937,245.744L157.461,237.649L157.985,247.952L158.509,265.859L159.033,276.26L159.557,281.068L160.081,283.766L160.605,298.534L161.129,288.28L161.653,291.665L162.177,280.381L162.701,284.404L163.225,276.604L163.749,280.283L164.273,278.615L164.797,282.442L165.321,276.751L165.845,276.996L166.369,272.679L166.893,283.325L167.417,279.4L167.941,283.963L168.465,277.928L168.989,271.109L169.513,268.263L170.037,262.572L170.561,269.49L171.085,277.29L171.609,270.373L172.133,268.165L172.657,274.445L173.181,286.514L173.705,296.817L174.229,281.804L174.753,289.458L175.277,282.687L175.801,288.771L176.325,284.306L176.849,276.015L177.373,262.082L177.897,253.643L178.421,272.826L178.945,271.452L179.469,271.599L179.993,257.617L180.517,263.161L181.041,270.716L181.565,270.177L182.089,279.694L182.613,269.637L183.137,269.244L183.661,254.87L184.185,255.704L184.708,255.556L185.232,266.791L185.756,258.255L186.28,242.653L186.804,208.605L187.328,213.266L187.852,232.105L188.376,264.486L188.9,273.905L189.424,282.246L189.948,287.152L190.472,287.299L190.996,288.476L191.52,288.133L192.044,286.416L192.568,284.11L193.092,281.313L193.616,277.536L194.14,273.071L194.664,276.407L195.188,264.24L195.712,249.964L196.236,234.706L196.76,250.16L197.284,257.666L197.808,256.881L198.332,253.594L198.856,252.269L199.38,262.817L199.904,266.546L200.428,281.559L200.952,292.303L201.476,304.372L202,298.436L202.524,298.239L203.048,287.25L203.572,282.785L204.096,285.876L204.62,287.888L205.144,292.941L205.668,294.118L206.192,296.964L206.716,299.466L207.24,300.791L207.764,300.594L208.288,291.322L208.812,278.762L209.336,281.755L209.86,284.944L210.384,294.609L210.908,300.692L211.432,307.512L211.956,314.822L212.48,324.242L213.004,331.208L213.528,307.463L214.052,288.329L214.576,276.26L215.1,283.08L215.624,301.576L216.148,310.505L216.672,334.25L217.196,334.103L217.72,330.227L218.244,324.094L218.768,307.806L219.292,300.496L219.815,270.373L220.339,254.575L220.863,265.32L221.387,289.556L221.911,316.294L222.435,312.909L222.959,314.626L223.483,308.101L224.007,313.792L224.531,310.308L225.055,299.073L225.579,292.597L226.103,288.329L226.627,309.965L227.151,320.415L227.675,335.182L228.199,329.687L228.723,326.94L229.247,315.999L229.771,310.161L230.295,300.496L230.819,294.315L231.343,293.137L231.867,309.229L232.391,321.592L232.915,331.306L233.439,327.087L233.963,332.827L234.487,329.982L235.011,320.268L235.535,306.285L236.059,288.771L236.583,275.377L237.107,270.373L237.631,281.706L238.155,301.379L238.679,316.588L239.203,323.8L239.727,320.611L240.251,313.595L240.775,314.282L241.299,318.845L241.823,303.047L242.347,282.246L242.871,277.977L243.395,303.293L243.919,329.05L244.443,341.168L244.967,335.231L245.491,332.974L246.015,326.253L246.539,316.049L247.063,290.144L247.587,276.555L248.111,272.139L248.635,295.1L249.159,307.855L249.683,316.196L250.207,315.656L250.731,314.233L251.255,319.483L251.779,307.316L252.303,308.052L252.827,303.195L253.351,315.803L253.875,323.751L254.399,328.412L254.923,330.325L255.446,332.484L255.97,346.81L256.494,348.38L257.018,324.291L257.542,300.938L258.066,277.83L258.59,286.121L259.114,301.821L259.638,330.571L260.162,334.741L260.686,333.858L261.21,334.299L261.734,342.983L262.258,343.375L262.782,341.756L263.306,333.71L263.83,336.163L264.354,329.442L264.878,338.911L265.402,344.504L265.926,357.603L266.45,357.063L266.974,356.72L267.498,353.531L268.022,360.203L268.546,346.761L269.07,326.351L269.594,301.526L270.118,303.096L270.642,312.32L271.166,331.012L271.69,339.058L272.214,349.165L272.738,342.198L273.262,334.839L273.786,323.555L274.31,322.525L274.834,320.17L275.358,322.083L275.882,321.396L276.406,328.412L276.93,330.08L277.454,327.627L277.978,316.441L278.502,316.588L279.026,321.494L279.55,338.567L280.074,335.28L280.598,330.914L281.122,324.83L281.646,335.133L282.17,351.618L282.694,355.935L283.218,351.765L283.742,345.927L284.266,351.618L284.79,354.12L285.314,355.837L285.838,352.354L286.362,349.802L286.886,352.599L287.41,348.281L287.934,343.523L288.458,344.258L288.982,355.641L289.506,369.034L290.03,366.091L290.554,355.248L291.077,340.775L291.601,335.133L292.125,343.768L292.649,351.961L293.173,347.742L293.697,347.496L294.221,353.04L294.745,361.037L295.269,353.089L295.793,349.999L296.317,345.779L296.841,338.518L297.365,327.725L297.889,334.005L298.413,346.025L298.937,344.847L299.461,336.213L299.985,328.951L300.509,335.378L301.033,333.073L301.557,333.024L302.081,332.631L302.605,336.409L303.129,338.813L303.653,338.42L304.177,338.616L304.701,332.582L305.225,335.918L305.749,341.707L306.273,342.787L306.797,351.274L307.321,347.251L307.845,347.938L308.369,343.032L308.893,343.572L309.417,351.421L309.941,353.433L310.465,357.701L310.989,366.483L311.513,369.966L312.037,364.472L312.561,351.814L313.085,337.292L313.609,326.548L314.133,317.177L314.657,325.615L315.181,336.507L315.705,353.973L316.229,344.16L316.753,334.397L317.277,331.454L317.801,342.051L318.325,345.632L318.849,336.507L319.373,308.689L319.897,307.561L320.421,305.5L320.945,330.08L321.469,339.598L321.993,349.214L322.517,358.29L323.041,360.988L323.565,346.859L324.089,315.411L324.613,299.907L325.137,295.345L325.661,313.399L326.185,323.849L326.708,342.149L327.232,342.002L327.756,341.854L328.28,334.25L328.804,339.058L329.328,327.627L329.852,312.271L330.376,298.141L330.9,305.893L331.424,317.569L331.948,327.038L332.472,333.661L332.996,332.68L333.52,326.94L334.044,311.486L334.568,315.705L335.092,307.463L335.616,290.095L336.14,267.871L336.664,275.77L337.188,294.952L337.712,304.323L338.236,303.342L338.76,311.339L339.284,326.891L339.808,332.533L340.332,330.276L340.856,319.434L341.38,309.131L341.904,319.728L342.428,328.608L342.952,336.948L343.476,320.366L344,321.2L344.524,329.835L345.048,334.005L345.572,324.389L346.096,305.549L346.62,307.708L347.144,309.916L347.668,328.019L348.192,328.412L348.716,338.911L349.24,340.039L349.764,343.179L350.288,342.492L350.812,337.979L351.336,336.605L351.86,322.868L352.384,321.887L352.908,324.536L353.432,348.576L353.956,355.248L354.48,352.991L355.004,350.146L355.528,354.169L356.052,360.596L356.576,347.546L357.1,339.058L357.624,338.764L358.148,341.02L358.672,340.186L359.196,347.006L359.72,359.664L360.244,356.426L360.768,346.81L361.292,339.941L361.815,337.194L362.339,329.344L362.863,313.743L363.387,313.105L363.911,321.396L364.435,359.516L364.959,387.825L365.483,406.124L366.007,409.166L366.531,409.215L367.055,408.97L367.579,408.724L368.103,406.86L368.627,405.634L369.151,405.094L369.675,404.652L370.199,401.954L370.723,399.943L371.247,398.667L371.771,395.38L372.295,388.168L372.819,366.287L373.343,356.475L373.867,350.391L374.391,361.479L374.915,364.913L375.439,365.158L375.963,359.418L376.487,355.101L377.011,349.459L377.535,347.349L378.059,345.73L378.583,343.179L379.107,347.251L379.631,353.089L380.155,356.916L380.679,353.482L381.203,358.094L381.727,364.275L382.251,365.06L382.775,362.656L383.299,364.472L383.823,367.072L384.347,364.226L384.871,355.15L385.395,355.592L385.919,359.565L386.443,364.717L386.967,368.544L387.491,365.845L388.015,372.91L388.539,375.559L389.063,382.133L389.587,379.043L390.111,377.522L390.635,367.759L391.159,356.622L391.683,354.856L392.207,361.871L392.731,364.717L393.255,363.883L393.779,359.271L394.303,365.06L394.827,360.056L395.351,360.007L395.875,354.954L396.399,362.068L396.923,365.894L397.446,369.77L397.97,365.551L398.494,357.456L399.018,361.43L399.542,362.656L400.066,367.072L400.59,361.381L401.114,352.697L401.638,347.889L402.162,341.266L402.686,353.089L403.21,360.105L403.734,367.906L404.258,364.864L404.782,362.902L405.306,360.841L405.83,356.18L406.354,356.867L406.878,351.765L407.402,351.912L407.926,348.085L408.45,347.153L408.974,353.973L409.498,360.056L410.022,376.099L410.546,378.258L411.07,373.989L411.594,366.091L412.118,343.228L412.642,341.168L413.166,331.306L413.69,353.776L414.214,359.026L414.738,370.555L415.262,360.89L415.786,365.453L416.31,364.177L416.834,368.445L417.358,359.86L417.882,351.47L418.406,338.911L418.93,339.156L419.454,337.096L419.978,355.199L420.502,354.561L421.026,351.421L421.55,341.953L422.074,343.572L422.598,349.312L423.122,345.338L423.646,346.319L424.17,338.616L424.694,349.999L425.218,349.508L425.742,360.449L426.266,353.335L426.79,353.089L427.314,349.655L427.838,352.206L428.362,347.055L428.886,342.198L429.41,332.19L429.934,331.11L430.458,340.186L430.982,342.541L431.506,347.447L432.03,351.029L432.554,362.803L433.077,357.652L433.601,355.935L434.125,351.372L434.649,354.561L435.173,353.678L435.697,351.716L436.221,363.098L436.745,372.223L437.269,378.405L437.793,373.008L438.317,354.414L438.841,352.942L439.365,353.188L439.889,366.189L440.413,349.655L440.937,349.999L441.461,348.772L441.985,359.32L442.509,353.629L443.033,359.222L443.557,367.072L444.081,374.922L444.605,373.548L445.129,373.989L445.653,368.298L446.177,353.825L446.701,349.312L447.225,351.372L447.749,354.757L448.273,356.573L448.797,352.206L449.321,362.951L449.845,367.023L450.369,374.48L450.893,370.849L451.417,365.355L451.941,366.974L452.465,372.468L452.989,378.994L453.513,375.952L454.037,373.695L454.561,369.819L455.085,363.638L455.609,358.192L456.133,363.638L456.657,370.015L457.181,370.997L457.705,365.698L458.229,366.777L458.753,366.826L459.277,366.14L459.801,363.098L460.325,365.306L460.849,365.502L461.373,361.086L461.897,352.844L462.421,336.507L462.945,333.612L463.469,335.722L463.993,353.433L464.517,359.32L465.041,361.135L465.565,362.068L466.089,365.6L466.613,372.125L467.137,372.174L467.661,367.759L468.185,364.717L468.708,355.493L469.232,354.169L469.756,344.013L470.28,342.051L470.804,333.024L471.328,333.612L471.852,335.673L472.376,334.888L472.9,332.435L473.424,341.07L473.948,348.723L474.472,343.228L474.996,339.892L475.52,342.639L476.044,354.463L476.568,356.867L477.092,365.06L477.616,341.511L478.14,317.373L478.664,285.925L479.188,289.408L479.712,294.805L480.236,309.572L480.76,313.497L481.284,307.365L481.808,307.168L482.332,321.985L482.856,333.907L483.38,332.582L483.904,327.038L484.428,323.26L484.952,328.167L485.476,344.013L486,352.255L486.524,359.86L487.048,358.633L487.572,363.588L488.096,359.32L488.62,352.893L489.144,346.761L489.668,339.598L490.192,341.119L490.716,346.662L491.24,354.463L491.764,358.535L492.288,367.464L492.812,376.786L493.336,382.918L493.86,381.986L494.384,376.442L494.908,376.099L495.432,372.518L495.956,375.756L496.48,373.253L497.004,377.767L497.528,374.872L498.052,376.148L498.576,367.611L499.1,366.925L499.624,362.46L500.148,369.868L500.672,366.385L501.196,363.588L501.72,359.418L502.244,364.521L502.768,367.611L503.292,372.419L503.815,372.076L504.339,378.65L504.863,379.582L505.387,381.005L505.911,380.024L506.435,374.087L506.959,372.125L507.483,370.064L508.007,374.774L508.531,374.333L509.055,373.695L509.579,369.77L510.103,373.401L510.627,368.004L511.151,359.958L511.675,347.546L512.199,333.907L512.723,343.719L513.247,350.685L513.771,365.6L514.295,369.083L514.819,367.66L515.343,367.072L515.867,360.399L516.391,355.297L516.915,333.416L517.439,333.024L517.963,343.67L518.487,358.339L519.011,361.086L519.535,364.422L520.059,372.37L520.583,373.401L521.107,370.751L521.631,368.249L522.155,360.645L522.679,350.685L523.203,340.088L523.727,349.704L524.251,360.203L524.775,375.02L525.299,373.744L525.823,376.541L526.347,382.133L526.871,382.084L527.395,382.771L527.919,379.435L528.443,381.348L528.967,379.779L529.491,381.692L530.015,386.255L530.539,384.537L531.063,380.318L531.587,374.48L532.111,375.216L532.635,370.997L533.159,368.396L533.683,364.275L534.207,363.49L534.731,372.468L535.255,378.405L535.779,384.881L536.303,382.869L536.827,382.084L537.351,384.734L537.875,385.813L538.399,386.058L538.923,377.718L539.446,372.763L539.97,376.295L540.494,389.689L541.018,394.006L541.542,387.825L542.066,382.869L542.59,374.872L543.114,377.178L543.638,370.702L544.162,362.803L544.686,353.923L545.21,345.142L545.734,350.146L546.258,355.542L546.782,369.77L547.306,376.982L547.83,375.854L548.354,377.031L548.878,379.386L549.402,377.276L549.926,372.468L550.45,365.011L550.974,371.34L551.498,371.291L552.022,381.201L552.546,382.379L553.07,382.624L553.594,379.386L554.118,377.227L554.642,380.956L555.166,376.688L555.69,373.744L556.214,371.144L556.738,376.737L557.262,378.16L557.786,378.552L558.31,375.118L558.834,375.412L559.358,373.94L559.882,375.265L560.406,374.333L560.93,370.948L561.454,363.294L561.978,367.808L562.502,375.559L563.026,381.79L563.55,381.348L564.074,381.054L564.598,384.39L565.122,387.53L565.646,387.825L566.17,390.817L566.694,392.436L567.218,395.527L567.742,391.112L568.266,388.855L568.79,390.228L569.314,389.247L569.838,377.767L570.362,372.567L570.886,367.808L571.41,378.307L571.934,380.416L572.458,388.904L572.982,385.568L573.506,384.979L574.03,386.843L574.554,389.444L575.077,387.285L575.601,383.311L576.125,381.643L576.649,377.914L577.173,371.831L577.697,372.321L578.221,373.204L578.745,380.269L579.269,373.94L579.793,377.473L580.317,380.171L580.841,388.07L581.365,388.119L581.889,384.734L582.413,381.299L582.937,374.627L583.461,377.963L583.985,374.971L584.509,381.79L585.033,378.601L585.557,384.685L586.081,386.892L586.605,389.149L587.129,387.775L587.653,387.383L588.177,379.828L588.701,376.491L589.225,361.528L589.749,358.388L590.273,356.229L590.797,363.834L591.321,368.593L591.845,370.899L592.369,367.71L592.893,360.007L593.417,360.694L593.941,361.822L594.465,370.702L594.989,374.529L595.513,380.171L596.037,382.526L596.561,379.828L597.085,385.764L597.609,380.563L598.133,381.594L598.657,378.258L599.181,382.624L599.705,379.877L600.229,381.79L600.753,382.183L601.277,385.224L601.801,384.096L602.325,379.975L602.849,378.405L603.373,370.604L603.897,373.499L604.421,372.468L604.945,376.05L605.469,373.45L605.993,370.31L606.517,368.593L607.041,370.899L607.565,378.356L608.089,380.318L608.613,379.729L609.137,376.05L609.661,376.246L610.185,372.763L610.708,362.215L611.232,349.017L611.756,344.896L612.28,355.297L612.804,370.015L613.328,380.024L613.852,380.269L614.376,377.571L614.9,377.375L615.424,380.122L615.948,375.559L616.472,368.2L616.996,367.219L617.52,371.585L618.044,376.05L618.568,373.253L619.092,375.657L619.616,371.733L620.14,364.079L620.664,363.785L621.188,367.415L621.712,377.718L622.236,379.582L622.76,382.673L623.284,387.04L623.808,379.975L624.332,381.398L624.856,373.253L625.38,375.069L625.904,369.868L626.428,363.932L626.952,362.411L627.476,363.343L628,369.672L628.524,367.317L629.048,369.23L629.572,370.457L630.096,372.616L630.62,371.683L631.144,369.329L631.668,368.838L632.192,370.948L632.716,374.137L633.24,376.59L633.764,375.069L634.288,365.796L634.812,370.702L635.336,363.392L635.86,367.268L636.384,368.053L636.908,376.933L637.432,380.171L637.956,366.679L638.48,353.188L639.004,350.538L639.528,354.218L640.052,364.03L640.576,363.883L641.1,361.184L641.624,356.769L642.148,356.965L642.672,364.472L643.196,371.438L643.72,373.646L644.244,376.884L644.768,373.94L645.292,374.774L645.815,372.959L646.339,375.363L646.863,374.529L647.387,369.623L647.911,366.287L648.435,369.966L648.959,379.828L649.483,383.507L650.007,382.379L650.531,381.25L651.055,384.979L651.579,387.874L652.103,386.156L652.627,386.696L653.151,386.402L653.675,387.187L654.199,383.017L654.723,381.398L655.247,377.963L655.771,380.858L656.295,378.11L656.819,384.39L657.343,376.491L657.867,381.201L658.391,376.246L658.915,386.402L659.439,387.285L659.963,383.213L660.487,379.337L661.011,375.216L661.535,386.892L662.059,388.609L662.583,386.843L663.107,384.292L663.631,384.243L664.155,393.466L664.679,393.466L665.203,397.342L665.727,392.976L666.251,395.478L666.775,387.481L667.299,382.82L667.823,376.688L668.347,384.096L668.871,389.1L669.395,394.791L669.919,395.086L670.443,399.501L670.967,395.184L671.491,391.504L672.015,385.421L672.539,391.7L673.063,392.632L673.587,395.036L674.111,388.953L674.635,392.485L675.159,393.712L675.683,399.01L676.207,392.976L676.731,388.953L677.255,386.794L677.779,390.081L678.303,393.368L678.827,395.527L679.351,397.342L679.875,400.629L680.399,402.788L680.923,402.445L681.446,398.225L681.97,398.912L682.494,399.452L683.018,404.162L683.542,402.592L684.066,404.162L684.59,404.162L685.114,405.094L685.638,405.535L686.162,406.124L686.686,405.192L687.21,401.414L687.734,400.286L688.258,400.041L688.782,404.898L689.306,402.984L689.83,402.592L690.354,398.667L690.878,400.188L691.402,395.92L691.926,397.244L692.45,397.489L692.974,402.297L693.498,401.267L694.022,399.697L694.546,401.463L695.07,404.407L695.594,406.664L696.118,405.977L696.642,404.26L697.166,401.807L697.69,400.09L698.214,399.844L698.738,398.912L699.262,396.214L699.786,395.135L700.31,396.165L700.834,398.078L701.358,400.777L701.882,400.482L702.406,398.961L702.93,397.342L703.454,394.153L703.978,393.417L704.502,392.093L705.026,393.172L705.55,396.999L706.074,398.863L706.598,403.033L707.122,400.531L707.646,394.301L708.17,394.399L708.694,392.289L709.218,395.429L709.742,394.497L710.266,399.01L710.79,402.788L711.314,402.347L711.838,401.316L712.362,397.489L712.886,395.87L713.41,393.614L713.934,394.301L714.458,397.833L714.982,397.931L715.506,399.599L716.03,398.765L716.554,404.554L717.077,405.094L717.601,404.701L718.125,401.463L718.649,399.599L719.173,400.629L719.697,400.58L720.221,403.328L720.745,403.082L721.269,404.652L721.793,404.211L722.317,404.309L722.841,402.101L723.365,402.003L723.889,400.973L724.413,398.225L724.937,396.018L725.461,395.92L725.985,398.765L726.509,397.244L727.033,394.791L727.557,396.263L728.081,397.98L728.605,398.127L729.129,396.754L729.653,398.274L730.177,399.158L730.701,396.018L731.225,397.391L731.749,400.531L732.273,403.966L732.797,398.422L733.321,396.705L733.845,393.025L734.369,395.184L734.893,395.086L735.417,393.025L735.941,391.7L736.465,392.24L736.989,395.478L737.513,399.795L738.037,398.078L738.561,403.818L739.085,402.494L739.609,404.8L740.133,403.573L740.657,403.328L741.181,402.347L741.705,398.814L742.229,397.244L742.753,391.455L743.277,393.319L743.801,394.301L744.325,401.463L744.849,400.09L745.373,399.943L745.897,394.301L746.421,397.195L746.945,398.127L747.469,399.648L747.993,396.361L748.517,397.735L749.041,398.225L749.565,399.256L750.089,400.482L750.613,402.69L751.137,403.082L751.661,398.52L752.185,397.784L752.708,398.127L753.232,400.924L753.756,398.569L754.28,394.742L754.804,393.123L755.328,396.557L755.852,396.606L756.376,397.195L756.9,396.705L757.424,402.15L757.948,402.788L758.472,403.769L758.996,399.501L759.52,399.059L760.044,399.599L760.568,404.113L761.092,402.543L761.616,403.328L762.14,400.678L762.664,401.954L763.188,400.188L763.712,403.377L764.236,406.664L764.76,408.038L765.284,408.038L765.808,406.713L766.332,404.8L766.856,404.309L767.38,404.358L767.904,405.977L768.428,406.075L768.952,404.75L769.476,400.335L770,400.728"/>
  </g>
</svg>
