<svg class="plot-d6a7b5" fill="currentColor" font-family="system-ui, sans-serif" font-size="10" text-anchor="middle" width="830" height="470" viewBox="0 0 830 470" xmlns="http://www.w3.org/2000/svg" xmlns:xlink="http://www.w3.org/1999/xlink" color="#1e90ff"><style>:where(.plot-d6a7b5){--plot-background: white;display:block;height:intrinsic;max-width:100%}:where(.plot-d6a7b5 text),:where(.plot-d6a7b5 tspan){white-space:pre}</style><g aria-label="y-grid" stroke="currentColor" stroke-opacity=".1"><line x1="60" x2="770" y1="410" y2="410"/><line x1="60" x2="770" y1="378.212" y2="378.212"/><line x1="60" x2="770" y1="346.424" y2="346.424"/><line x1="60" x2="770" y1="314.636" y2="314.636"/><line x1="60" x2="770" y1="282.847" y2="282.847"/><line x1="60" x2="770" y1="251.059" y2="251.059"/><line x1="60" x2="770" y1="219.271" y2="219.271"/><line x1="60" x2="770" y1="187.483" y2="187.483"/><line x1="60" x2="770" y1="155.695" y2="155.695"/><line x1="60" x2="770" y1="123.907" y2="123.907"/><line x1="60" x2="770" y1="92.119" y2="92.119"/><line x1="60" x2="770" y1="60.331" y2="60.331"/></g><g aria-label="y-axis tick" fill="none" stroke="currentColor"><path transform="translate(60,410)" d="M0,0L-6,0"/><path transform="translate(60,378.2118724115382)" d="M0,0L-6,0"/><path transform="translate(60,346.42374482307633)" d="M0,0L-6,0"/><path transform="translate(60,314.6356172346146)" d="M0,0L-6,0"/><path transform="translate(60,282.8474896461527)" d="M0,0L-6,0"/><path transform="translate(60,251.05936205769092)" d="M0,0L-6,0"/><path transform="translate(60,219.2712344692291)" d="M0,0L-6,0"/><path transform="translate(60,187.48310688076728)" d="M0,0L-6,0"/><path transform="translate(60,155.69497929230545)" d="M0,0L-6,0"/><path transform="translate(60,123.90685170384361)" d="M0,0L-6,0"/><path transform="translate(60,92.11872411538184)" d="M0,0L-6,0"/><path transform="translate(60,60.330596526920004)" d="M0,0L-6,0"/></g><g aria-label="y-axis tick label" text-anchor="end" font-variant="tabular-nums"><text y=".32em" transform="translate(-9,0) translate(60,410)">0</text><text y=".32em" transform="translate(-9,0) translate(60,378.2118724115382)">50,000</text><text y=".32em" transform="translate(-9,0) translate(60,346.42374482307633)">100,000</text><text y=".32em" transform="translate(-9,0) translate(60,314.6356172346146)">150,000</text><text y=".32em" transform="translate(-9,0) translate(60,282.8474896461527)">200,000</text><text y=".32em" transform="translate(-9,0) translate(60,251.05936205769092)">250,000</text><text y=".32em" transform="translate(-9,0) translate(60,219.2712344692291)">300,000</text><text y=".32em" transform="translate(-9,0) translate(60,187.48310688076728)">350,000</text><text y=".32em" transform="translate(-9,0) translate(60,155.69497929230545)">400,000</text><text y=".32em" transform="translate(-9,0) translate(60,123.90685170384361)">450,000</text><text y=".32em" transform="translate(-9,0) translate(60,92.11872411538184)">500,000</text><text y=".32em" transform="translate(-9,0) translate(60,60.330596526920004)">550,000</text></g><g aria-label="y-axis label" text-anchor="start"><text y=".71em" transform="translate(-57,-57) translate(60,60)">↑ Total Vestiges</text></g><g aria-label="x-axis tick" fill="none" stroke="currentColor"><path transform="translate(110.71428571428572,410)" d="M0,0L0,6"/><path transform="translate(246.4495798319328,410)" d="M0,0L0,6"/><path transform="translate(383.67647058823525,410)" d="M0,0L0,6"/><path transform="translate(520.9033613445379,410)" d="M0,0L0,6"/><path transform="translate(656.6386554621849,410)" d="M0,0L0,6"/></g><g aria-label="x-axis tick label" font-variant="tabular-nums"><text transform="translate(0,9) translate(110.71428571428572,410)"><tspan x="0" y=".71em">Apr</tspan><tspan x="0" dy="1em">2023</tspan></text><text y=".71em" transform="translate(0,9) translate(246.4495798319328,410)">Jul</text><text y=".71em" transform="translate(0,9) translate(383.67647058823525,410)">Oct</text><text transform="translate(0,9) translate(520.9033613445379,410)"><tspan x="0" y=".71em">Jan</tspan><tspan x="0" dy="1em">2024</tspan></text><text y=".71em" transform="translate(0,9) translate(656.6386554621849,410)">Apr</text></g><g aria-label="line" fill="none" stroke="currentColor" stroke-width="1.5" stroke-linejoin="round" stroke-linecap="round"><path d="M60,410L60.994,409.681L61.989,408.514L62.983,407.884L63.978,407.438L64.972,406.702L65.966,406.122L66.961,405.578L67.955,404.478L68.95,403.608L69.944,402.575L70.938,400.975L71.933,399.466L72.927,398.683L73.922,397.549L74.916,396.779L75.91,395.897L76.905,394.743L77.899,393.966L78.894,393.204L79.888,392.171L80.882,391.024L81.877,390.213L82.871,388.827L83.866,388.171L84.86,387.559L85.854,386.455L86.849,385.397L87.843,384.583L88.838,383.449L89.832,382.318L90.826,381.288L91.821,379.692L92.815,378.425L93.81,377.692L94.804,376.928L95.798,376.352L96.793,375.888L97.787,375.025L98.782,374.182L99.776,373.594L100.77,372.234L101.765,370.813L102.759,369.539L103.754,367.995L104.748,366.949L105.742,366.057L106.737,364.843L107.731,363.827L108.725,363.092L109.72,361.767L110.714,360.486L111.709,359.29L112.703,357.577L113.697,355.95L114.692,355.104L115.686,353.848L116.681,352.715L117.675,351.7L118.669,350.262L119.664,348.912L120.658,347.739L121.653,346.329L122.647,344.977L123.641,343.813L124.636,342.247L125.63,341.284L126.625,340.415L127.619,339.203L128.613,338.21L129.608,337.468L130.602,336.512L131.597,335.48L132.591,334.518L133.585,333.256L134.58,332.006L135.574,331.293L136.569,330.304L137.563,329.532L138.557,329.024L139.552,328.237L140.546,327.454L141.541,326.624L142.535,325.548L143.529,324.454L144.524,323.601L145.518,322.418L146.513,321.588L147.507,321.045L148.501,319.8L149.496,318.939L150.49,318.473L151.485,317.693L152.479,316.941L153.473,316.158L154.468,315.082L155.462,314.146L156.457,313.34L157.451,312.639L158.445,312.018L159.44,311.422L160.434,310.446L161.429,309.89L162.423,309.324L163.417,308.407L164.412,307.367L165.406,306.551L166.401,305.502L167.395,304.795L168.389,304.139L169.384,303.187L170.378,302.536L171.373,301.916L172.367,301.088L173.361,300.441L174.356,299.659L175.35,298.831L176.345,298.078L177.339,297.455L178.333,296.802L179.328,296.232L180.322,295.695L181.317,294.938L182.311,294.362L183.305,293.843L184.3,292.986L185.294,291.872L186.289,291.06L187.283,290.002L188.277,289.37L189.272,288.644L190.266,287.895L191.261,287.211L192.255,286.731L193.249,285.778L194.244,285.029L195.238,284.243L196.232,283.101L197.227,282.261L198.221,281.526L199.216,280.775L200.21,279.955L201.204,279.321L202.199,278.7L203.193,277.878L204.188,277.394L205.182,276.751L206.176,276.17L207.171,275.625L208.165,274.856L209.16,274.301L210.154,273.722L211.148,272.947L212.143,272.394L213.137,271.882L214.132,271.328L215.126,270.676L216.12,270.063L217.115,269.423L218.109,268.73L219.104,268.186L220.098,267.519L221.092,266.959L222.087,266.402L223.081,265.63L224.076,264.987L225.07,264.48L226.064,263.813L227.059,263.18L228.053,262.722L229.048,261.936L230.042,261.336L231.036,260.717L232.031,260.03L233.025,259.445L234.02,259.097L235.014,258.46L236.008,257.94L237.003,257.32L237.997,256.584L238.992,256.001L239.986,255.359L240.98,254.653L241.975,254.009L242.969,253.445L243.964,252.524L244.958,251.776L245.952,251.345L246.947,250.656L247.941,250.043L248.936,249.674L249.93,249.02L250.924,248.598L251.919,248.097L252.913,247.487L253.908,246.919L254.902,246.469L255.896,245.758L256.891,245.238L257.885,244.767L258.88,244.105L259.874,243.511L260.868,243.043L261.863,242.326L262.857,241.869L263.852,241.351L264.846,240.693L265.84,240.158L266.835,239.551L267.829,238.856L268.824,238.247L269.818,237.73L270.812,237.136L271.807,236.438L272.801,235.892L273.796,235.38L274.79,234.838L275.784,234.425L276.779,233.718L277.773,233.276L278.768,232.775L279.762,232.147L280.756,231.647L281.751,231.039L282.745,230.231L283.739,229.621L284.734,229.262L285.728,228.435L286.723,227.827L287.717,227.287L288.711,226.532L289.706,226.022L290.7,225.475L291.695,224.844L292.689,224.203L293.683,223.651L294.678,222.833L295.672,222.204L296.667,221.65L297.661,220.978L298.655,220.238L299.65,219.481L300.644,218.368L301.639,217.688L302.633,217.176L303.627,216.482L304.622,215.925L305.616,215.52L306.611,214.89L307.605,214.335L308.599,213.945L309.594,213.311L310.588,212.733L311.583,212.314L312.577,211.643L313.571,211.016L314.566,210.54L315.56,209.912L316.555,209.128L317.549,208.466L318.543,207.641L319.538,207.056L320.532,206.492L321.527,205.656L322.521,205.03L323.515,204.448L324.51,203.749L325.504,203.171L326.499,202.783L327.493,202.224L328.487,201.802L329.482,201.338L330.476,200.776L331.471,200.211L332.465,199.689L333.459,199.167L334.454,198.629L335.448,198.172L336.443,197.665L337.437,197.164L338.431,196.74L339.426,196.25L340.42,195.746L341.415,195.202L342.409,194.55L343.403,194.084L344.398,193.581L345.392,193.054L346.387,192.668L347.381,192.253L348.375,191.821L349.37,191.556L350.364,191.232L351.359,190.492L352.353,189.98L353.347,189.499L354.342,188.847L355.336,188.575L356.331,188.21L357.325,187.866L358.319,187.591L359.314,187.176L360.308,186.753L361.303,186.267L362.297,185.757L363.291,184.943L364.286,184.253L365.28,183.882L366.275,183.382L367.269,183.038L368.263,182.624L369.258,182.147L370.252,181.718L371.246,181.377L372.241,180.855L373.235,180.281L374.23,179.856L375.224,179.278L376.218,178.984L377.213,178.695L378.207,178.308L379.202,177.943L380.196,177.619L381.19,177.09L382.185,176.65L383.179,176.2L384.174,175.591L385.168,175.135L386.162,174.894L387.157,174.446L388.151,174.116L389.146,173.819L390.14,173.445L391.134,173.079L392.129,172.656L393.123,172.101L394.118,171.508L395.112,170.912L396.106,170.292L397.101,169.845L398.095,169.504L399.09,169.082L400.084,168.728L401.078,168.346L402.073,167.832L403.067,167.488L404.062,167.165L405.056,166.446L406.05,165.832L407.045,165.454L408.039,165.064L409.034,164.783L410.028,164.562L411.022,164.095L412.017,163.785L413.011,163.477L414.006,162.877L415,162.232L415.994,161.747L416.989,161.091L417.983,160.743L418.978,160.424L419.972,159.875L420.966,159.52L421.961,159.183L422.955,158.702L423.95,158.19L424.944,157.862L425.938,157.318L426.933,156.969L427.927,156.744L428.922,156.261L429.916,155.937L430.91,155.739L431.905,155.442L432.899,155.138L433.894,154.629L434.888,154.029L435.882,153.425L436.877,153.024L437.871,152.627L438.866,152.396L439.86,152.048L440.854,151.64L441.849,151.415L442.843,151.18L443.838,150.777L444.832,150.531L445.826,150.191L446.821,149.82L447.815,149.487L448.81,149.27L449.804,148.971L450.798,148.808L451.793,148.584L452.787,148.281L453.782,148.076L454.776,147.939L455.77,147.461L456.765,146.992L457.759,146.533L458.754,146.076L459.748,145.726L460.742,145.509L461.737,145.157L462.731,144.938L463.725,144.631L464.72,144.183L465.714,143.818L466.709,143.497L467.703,143.019L468.697,142.678L469.692,142.349L470.686,141.961L471.681,141.643L472.675,141.282L473.669,140.749L474.664,140.432L475.658,140.135L476.653,139.823L477.647,139.464L478.641,139.11L479.636,138.719L480.63,138.494L481.625,138.353L482.619,138.019L483.613,137.739L484.608,137.523L485.602,137.262L486.597,137.015L487.591,136.821L488.585,136.515L489.58,136.235L490.574,136.077L491.569,135.716L492.563,135.373L493.557,135.225L494.552,135.011L495.546,134.843L496.541,134.656L497.535,134.302L498.529,133.946L499.524,133.686L500.518,133.443L501.513,133.193L502.507,132.879L503.501,132.633L504.496,132.455L505.49,132.245L506.485,131.896L507.479,131.678L508.473,131.413L509.468,130.97L510.462,130.612L511.457,130.428L512.451,130.141L513.445,129.767L514.44,129.472L515.434,129.09L516.429,128.8L517.423,128.475L518.417,128.093L519.412,127.798L520.406,127.521L521.401,127.17L522.395,126.87L523.389,126.596L524.384,126.167L525.378,125.91L526.373,125.711L527.367,125.296L528.361,125.149L529.356,124.898L530.35,124.492L531.345,124.281L532.339,124.037L533.333,123.733L534.328,123.548L535.322,123.359L536.317,123.169L537.311,123.029L538.305,122.769L539.3,122.415L540.294,122.087L541.289,121.688L542.283,121.212L543.277,120.994L544.272,120.736L545.266,120.486L546.261,120.141L547.255,119.756L548.249,119.468L549.244,119.26L550.238,118.922L551.232,118.516L552.227,117.947L553.221,117.594L554.216,117.161L555.21,116.912L556.204,116.682L557.199,116.374L558.193,116.241L559.188,116.047L560.182,115.555L561.176,115.016L562.171,114.62L563.165,114.07L564.16,113.764L565.154,113.504L566.148,113.19L567.143,112.883L568.137,112.621L569.132,112.209L570.126,111.963L571.12,111.553L572.115,110.942L573.109,110.514L574.104,110.204L575.098,109.745L576.092,109.439L577.087,109.215L578.081,108.743L579.076,108.362L580.07,107.938L581.064,107.521L582.059,107.034L583.053,106.385L584.048,105.679L585.042,105.294L586.036,104.894L587.031,104.309L588.025,103.912L589.02,103.615L590.014,103.232L591.008,102.908L592.003,102.582L592.997,102.059L593.992,101.601L594.986,101.412L595.98,101.004L596.975,100.654L597.969,100.251L598.964,99.853L599.958,99.616L600.952,99.266L601.947,98.744L602.941,98.262L603.936,97.94L604.93,97.447L605.924,97.2L606.919,96.883L607.913,96.526L608.908,96.293L609.902,96.017L610.896,95.651L611.891,95.36L612.885,95.066L613.88,94.522L614.874,94.218L615.868,93.959L616.863,93.726L617.857,93.509L618.852,93.22L619.846,92.95L620.84,92.785L621.835,92.58L622.829,92.141L623.824,91.866L624.818,91.657L625.812,91.247L626.807,90.961L627.801,90.84L628.796,90.595L629.79,90.267L630.784,90.021L631.779,89.687L632.773,89.323L633.768,88.976L634.762,88.44L635.756,88.068L636.751,87.828L637.745,87.785L638.739,87.78L639.734,87.778L640.728,87.775L641.723,87.77L642.717,87.764L643.711,87.758L644.706,87.729L645.7,87.708L646.695,87.694L647.689,87.66L648.683,87.604L649.678,87.564L650.672,87.513L651.667,87.414L652.661,87.281L653.655,86.947L654.65,86.72L655.644,86.509L656.639,86.318L657.633,86.136L658.627,85.928L659.622,85.663L660.616,85.425L661.611,85.143L662.605,84.851L663.599,84.592L664.594,84.277L665.588,84.038L666.583,83.854L667.577,83.589L668.571,83.305L669.566,83.182L670.56,82.997L671.555,82.723L672.549,82.568L673.543,82.407L674.538,82.166L675.532,81.975L676.527,81.696L677.521,81.461L678.515,81.322L679.51,81.109L680.504,80.924L681.499,80.749L682.493,80.629L683.487,80.478L684.482,80.388L685.476,80.227L686.471,80.057L687.465,79.841L688.459,79.536L689.454,79.342L690.448,79.217L691.443,78.949L692.437,78.745L693.431,78.56L694.426,78.367L695.42,78.098L696.415,77.912L697.409,77.653L698.403,77.476L699.398,77.34L700.392,77.132L701.387,76.9L702.381,76.66L703.375,76.502L704.37,76.287L705.364,76.103L706.359,75.872L707.353,75.544L708.347,75.298L709.342,74.982L710.336,74.807L711.331,74.652L712.325,74.436L713.319,74.222L714.314,74.041L715.308,73.799L716.303,73.525L717.297,73.353L718.291,73.045L719.286,72.772L720.28,72.551L721.275,72.23L722.269,72.046L723.263,71.903L724.258,71.791L725.252,71.634L726.246,71.437L727.241,71.222L728.235,70.769L729.23,70.545L730.224,70.202L731.218,70.041L732.213,69.884L733.207,69.691L734.202,69.404L735.196,69.307L736.19,69.097L737.185,68.866L738.179,68.657L739.174,68.339L740.168,67.944L741.162,67.739L742.157,67.394L743.151,67.234L744.146,67.021L745.14,66.635L746.134,66.353L747.129,66.16L748.123,65.848L749.118,65.515L750.112,65.335L751.106,64.923L752.101,64.737L753.095,64.551L754.09,64.281L755.084,64.003L756.078,63.813L757.073,63.499L758.067,63.254L759.062,62.998L760.056,62.621L761.05,62.246L762.045,61.975L763.039,61.716L764.034,61.371L765.028,61.165L766.022,60.952L767.017,60.76L768.011,60.486L769.006,60.251L770,60"/></g></svg>