<svg class="plot-d6a7b5" fill="currentColor" font-family="system-ui, sans-serif" font-size="10" text-anchor="middle" width="830" height="470" viewBox="0 0 830 470" xmlns="http://www.w3.org/2000/svg" xmlns:xlink="http://www.w3.org/1999/xlink" color="#1e90ff"><style>:where(.plot-d6a7b5){--plot-background: white;display:block;height:intrinsic;max-width:100%}:where(.plot-d6a7b5 text),:where(.plot-d6a7b5 tspan){white-space:pre}</style><g aria-label="y-grid" stroke="currentColor" stroke-opacity=".1"><line x1="60" x2="770" y1="410" y2="410"/><line x1="60" x2="770" y1="360.939" y2="360.939"/><line x1="60" x2="770" y1="311.878" y2="311.878"/><line x1="60" x2="770" y1="262.817" y2="262.817"/><line x1="60" x2="770" y1="213.757" y2="213.757"/><line x1="60" x2="770" y1="164.696" y2="164.696"/><line x1="60" x2="770" y1="115.635" y2="115.635"/><line x1="60" x2="770" y1="66.574" y2="66.574"/></g><g aria-label="y-axis tick" fill="none" stroke="currentColor"><path transform="translate(60,410)" d="M0,0L-6,0"/><path transform="translate(60,360.9391645640594)" d="M0,0L-6,0"/><path transform="translate(60,311.8783291281189)" d="M0,0L-6,0"/><path transform="translate(60,262.8174936921783)" d="M0,0L-6,0"/><path transform="translate(60,213.7566582562377)" d="M0,0L-6,0"/><path transform="translate(60,164.69582282029717)" d="M0,0L-6,0"/><path transform="translate(60,115.6349873843566)" d="M0,0L-6,0"/><path transform="translate(60,66.57415194841604)" d="M0,0L-6,0"/></g><g aria-label="y-axis tick label" text-anchor="end" font-variant="tabular-nums"><text y=".32em" transform="translate(-9,0) translate(60,410)">0</text><text y=".32em" transform="translate(-9,0) translate(60,360.9391645640594)">1,000</text><text y=".32em" transform="translate(-9,0) translate(60,311.8783291281189)">2,000</text><text y=".32em" transform="translate(-9,0) translate(60,262.8174936921783)">3,000</text><text y=".32em" transform="translate(-9,0) translate(60,213.7566582562377)">4,000</text><text y=".32em" transform="translate(-9,0) translate(60,164.69582282029717)">5,000</text><text y=".32em" transform="translate(-9,0) translate(60,115.6349873843566)">6,000</text><text y=".32em" transform="translate(-9,0) translate(60,66.57415194841604)">7,000</text></g><g aria-label="y-axis label" text-anchor="start"><text y=".71em" transform="translate(-57,-57) translate(60,60)">↑ Visible Vestiges (4 days)</text></g><g aria-label="x-axis tick" fill="none" stroke="currentColor"><path transform="translate(95.67487684729065,410)" d="M0,0L0,6"/><path transform="translate(191.1576354679803,410)" d="M0,0L0,6"/><path transform="translate(287.6896551724138,410)" d="M0,0L0,6"/><path transform="translate(384.2216748768473,410)" d="M0,0L0,6"/><path transform="translate(479.70443349753697,410)" d="M0,0L0,6"/><path transform="translate(575.1871921182266,410)" d="M0,0L0,6"/><path transform="translate(671.7192118226601,410)" d="M0,0L0,6"/><path transform="translate(768.2512315270935,410)" d="M0,0L0,6"/></g><g aria-label="x-axis tick label" font-variant="tabular-nums"><text transform="translate(0,9) translate(95.67487684729065,410)"><tspan x="0" y=".71em">Apr</tspan><tspan x="0" dy="1em">2023</tspan></text><text y=".71em" transform="translate(0,9) translate(191.1576354679803,410)">Jul</text><text y=".71em" transform="translate(0,9) translate(287.6896551724138,410)">Oct</text><text transform="translate(0,9) translate(384.2216748768473,410)"><tspan x="0" y=".71em">Jan</tspan><tspan x="0" dy="1em">2024</tspan></text><text y=".71em" transform="translate(0,9) translate(479.70443349753697,410)">Apr</text><text y=".71em" transform="translate(0,9) translate(575.1871921182266,410)">Jul</text><text y=".71em" transform="translate(0,9) translate(671.7192118226601,410)">Oct</text><text transform="translate(0,9) translate(768.2512315270935,410)"><tspan x="0" y=".71em">Jan</tspan><tspan x="0" dy="1em">2025</tspan></text></g><g aria-label="line" fill="none" stroke="currentColor" stroke-width="1.5" stroke-linejoin="round" stroke-linecap="round"><path d="M60,410L60.7,385.371L61.399,295.296L62.099,246.726L62.798,236.913L63.498,270.177L64.197,274.003L64.897,266.497L65.596,238.434L66.296,216.013L66.995,178.237L67.695,139.626L68.394,90.369L69.094,109.65L69.793,145.66L70.493,202.669L71.192,195.015L71.892,193.445L72.591,192.906L73.291,202.227L73.99,211.5L74.69,182.996L75.389,179.12L76.089,151.989L76.788,189.815L77.488,205.22L78.187,226.905L78.887,195.948L79.586,180.395L80.286,178.089L80.985,172.398L81.685,155.718L82.384,120.05L83.084,109.601L83.783,132.463L84.483,196.683L85.182,250.013L85.882,270.765L86.581,263.21L87.281,242.555L87.98,233.038L88.68,194.623L89.379,149.978L90.079,97.041L90.778,82.862L91.478,111.808L92.177,141.343L92.877,166.756L93.576,169.111L94.276,181.131L94.975,172.595L95.675,152.136L96.374,116.665L97.074,86.689L97.773,60L98.473,86.934L99.172,122.258L99.872,160.378L100.571,147.328L101.271,133.297L101.97,116.518L102.67,104.351L103.369,106.461L104.069,106.362L104.768,107.049L105.468,95.029L106.167,125.006L106.867,147.77L107.567,175.048L108.266,172.791L108.966,182.603L109.665,202.375L110.365,199.333L111.064,182.358L111.764,158.759L112.463,141.883L113.163,161.114L113.862,182.161L114.562,219.055L115.261,234.853L115.961,250.503L116.66,249.718L117.36,224.795L118.059,202.473L118.759,178.482L119.458,176.716L120.158,168.474L120.857,188.785L121.557,212.825L122.256,207.967L122.956,205.613L123.655,211.5L124.355,247.412L125.054,255.802L125.754,231.32L126.453,208.507L127.153,194.329L127.852,192.562L128.552,221.508L129.251,245.744L129.951,262.033L130.65,240.74L131.35,245.793L132.049,248.099L132.749,252.662L133.448,215.327L134.148,195.997L134.847,185.841L135.547,211.549L136.246,223.814L136.946,231.32L137.645,235.638L138.345,238.483L139.044,248.05L139.744,248.345L140.443,235.834L141.143,235.785L141.842,227.69L142.542,239.955L143.241,253.496L143.941,267.527L144.64,274.151L145.34,266.154L146.039,265.712L146.739,267.086L147.438,259.334L148.138,217.829L148.837,195.212L149.537,179.757L150.236,216.897L150.936,223.618L151.635,247.412L152.335,243.438L153.034,262.327L153.734,246.578L154.433,241.623L155.133,218.025L155.833,203.454L156.532,196.34L157.232,200.314L157.931,230.486L158.631,232.105L159.33,239.857L160.03,249.865L160.729,249.718L161.429,261.297L162.128,259.579L162.828,278.174L163.527,273.464L164.227,263.799L164.926,265.761L165.626,263.21L166.325,262.719L167.025,262.817L167.724,267.969L168.424,285.042L169.123,277.438L169.823,269.637L170.522,263.014L171.222,259.825L171.921,265.123L172.621,263.063L173.32,273.366L174.02,272.384L174.719,264.191L175.419,257.813L176.118,261.64L176.818,269.833L177.517,270.569L178.217,274.396L178.916,265.123L179.616,267.675L180.315,255.262L181.015,262.916L181.714,264.093L182.414,284.993L183.113,288.82L183.813,293.824L184.512,272.875L185.212,265.271L185.911,260.414L186.611,258.647L187.31,260.953L188.01,256.292L188.709,262.278L189.409,245.744L190.108,237.649L190.808,247.952L191.507,265.859L192.207,276.26L192.906,281.068L193.606,283.766L194.305,298.534L195.005,288.28L195.704,291.665L196.404,280.381L197.103,284.404L197.803,276.604L198.502,280.283L199.202,278.615L199.901,282.442L200.601,276.751L201.3,276.996L202,272.679L202.7,283.325L203.399,279.4L204.099,283.963L204.798,277.928L205.498,271.109L206.197,268.263L206.897,262.572L207.596,269.49L208.296,277.29L208.995,270.373L209.695,268.165L210.394,274.445L211.094,286.514L211.793,296.817L212.493,281.804L213.192,289.458L213.892,282.687L214.591,288.771L215.291,284.306L215.99,276.015L216.69,262.082L217.389,253.643L218.089,272.826L218.788,271.452L219.488,271.599L220.187,257.617L220.887,263.161L221.586,270.716L222.286,270.177L222.985,279.694L223.685,269.637L224.384,269.244L225.084,254.87L225.783,255.704L226.483,255.556L227.182,266.791L227.882,258.255L228.581,242.653L229.281,208.605L229.98,213.266L230.68,232.105L231.379,264.486L232.079,273.905L232.778,282.246L233.478,287.152L234.177,287.299L234.877,288.476L235.576,288.133L236.276,286.416L236.975,284.11L237.675,281.313L238.374,277.536L239.074,273.071L239.773,276.407L240.473,264.24L241.172,249.964L241.872,234.706L242.571,250.16L243.271,257.666L243.97,256.881L244.67,253.594L245.369,252.269L246.069,262.817L246.768,266.546L247.468,281.559L248.167,292.303L248.867,304.372L249.567,298.436L250.266,298.239L250.966,287.25L251.665,282.785L252.365,285.876L253.064,287.888L253.764,292.941L254.463,294.118L255.163,296.964L255.862,299.466L256.562,300.791L257.261,300.594L257.961,291.322L258.66,278.762L259.36,281.755L260.059,284.944L260.759,294.609L261.458,300.692L262.158,307.512L262.857,314.822L263.557,324.242L264.256,331.208L264.956,307.463L265.655,288.329L266.355,276.26L267.054,283.08L267.754,301.576L268.453,310.505L269.153,334.25L269.852,334.103L270.552,330.227L271.251,324.094L271.951,307.806L272.65,300.496L273.35,270.373L274.049,254.575L274.749,265.32L275.448,289.556L276.148,316.294L276.847,312.909L277.547,314.626L278.246,308.101L278.946,313.792L279.645,310.308L280.345,299.073L281.044,292.597L281.744,288.329L282.443,309.965L283.143,320.415L283.842,335.182L284.542,329.687L285.241,326.94L285.941,315.999L286.64,310.161L287.34,300.496L288.039,294.315L288.739,293.137L289.438,309.229L290.138,321.592L290.837,331.306L291.537,327.087L292.236,332.827L292.936,329.982L293.635,320.268L294.335,306.285L295.034,288.771L295.734,275.377L296.433,270.373L297.133,281.706L297.833,301.379L298.532,316.588L299.232,323.8L299.931,320.611L300.631,313.595L301.33,314.282L302.03,318.845L302.729,303.047L303.429,282.246L304.128,277.977L304.828,303.293L305.527,329.05L306.227,341.168L306.926,335.231L307.626,332.974L308.325,326.253L309.025,316.049L309.724,290.144L310.424,276.555L311.123,272.139L311.823,295.1L312.522,307.855L313.222,316.196L313.921,315.656L314.621,314.233L315.32,319.483L316.02,307.316L316.719,308.052L317.419,303.195L318.118,315.803L318.818,323.751L319.517,328.412L320.217,330.325L320.916,332.484L321.616,346.81L322.315,348.38L323.015,324.291L323.714,300.938L324.414,277.83L325.113,286.121L325.813,301.821L326.512,330.571L327.212,334.741L327.911,333.858L328.611,334.299L329.31,342.983L330.01,343.375L330.709,341.756L331.409,333.71L332.108,336.163L332.808,329.442L333.507,338.911L334.207,344.504L334.906,357.603L335.606,357.063L336.305,356.72L337.005,353.531L337.704,360.203L338.404,346.761L339.103,326.351L339.803,301.526L340.502,303.096L341.202,312.32L341.901,331.012L342.601,339.058L343.3,349.165L344,342.198L344.7,334.839L345.399,323.555L346.099,322.525L346.798,320.17L347.498,322.083L348.197,321.396L348.897,328.412L349.596,330.08L350.296,327.627L350.995,316.441L351.695,316.588L352.394,321.494L353.094,338.567L353.793,335.28L354.493,330.914L355.192,324.83L355.892,335.133L356.591,351.618L357.291,355.935L357.99,351.765L358.69,345.927L359.389,351.618L360.089,354.12L360.788,355.837L361.488,352.354L362.187,349.802L362.887,352.599L363.586,348.281L364.286,343.523L364.985,344.258L365.685,355.641L366.384,369.034L367.084,366.091L367.783,355.248L368.483,340.775L369.182,335.133L369.882,343.768L370.581,351.961L371.281,347.742L371.98,347.496L372.68,353.04L373.379,361.037L374.079,353.089L374.778,349.999L375.478,345.779L376.177,338.518L376.877,327.725L377.576,334.005L378.276,346.025L378.975,344.847L379.675,336.213L380.374,328.951L381.074,335.378L381.773,333.073L382.473,333.024L383.172,332.631L383.872,336.409L384.571,338.813L385.271,338.42L385.97,338.616L386.67,332.582L387.369,335.918L388.069,341.707L388.768,342.787L389.468,351.274L390.167,347.251L390.867,347.938L391.567,343.032L392.266,343.572L392.966,351.421L393.665,353.433L394.365,357.701L395.064,366.483L395.764,369.966L396.463,364.472L397.163,351.814L397.862,337.292L398.562,326.548L399.261,317.177L399.961,325.615L400.66,336.507L401.36,353.973L402.059,344.16L402.759,334.397L403.458,331.454L404.158,342.051L404.857,345.632L405.557,336.507L406.256,308.689L406.956,307.561L407.655,305.5L408.355,330.08L409.054,339.598L409.754,349.214L410.453,358.29L411.153,360.988L411.852,346.859L412.552,315.411L413.251,299.907L413.951,295.345L414.65,313.399L415.35,323.849L416.049,342.149L416.749,342.002L417.448,341.854L418.148,334.25L418.847,339.058L419.547,327.627L420.246,312.271L420.946,298.141L421.645,305.893L422.345,317.569L423.044,327.038L423.744,333.661L424.443,332.68L425.143,326.94L425.842,311.486L426.542,315.705L427.241,307.463L427.941,290.095L428.64,267.871L429.34,275.77L430.039,294.952L430.739,304.323L431.438,303.342L432.138,311.339L432.837,326.891L433.537,332.533L434.236,330.276L434.936,319.434L435.635,309.131L436.335,319.728L437.034,328.608L437.734,336.948L438.433,320.366L439.133,321.2L439.833,329.835L440.532,334.005L441.232,324.389L441.931,305.549L442.631,307.708L443.33,309.916L444.03,328.019L444.729,328.412L445.429,338.911L446.128,340.039L446.828,343.179L447.527,342.492L448.227,337.979L448.926,336.605L449.626,322.868L450.325,321.887L451.025,324.536L451.724,348.576L452.424,355.248L453.123,352.991L453.823,350.146L454.522,354.169L455.222,360.596L455.921,347.546L456.621,339.058L457.32,338.764L458.02,341.02L458.719,340.186L459.419,347.006L460.118,359.664L460.818,356.426L461.517,346.81L462.217,339.941L462.916,337.194L463.616,329.344L464.315,313.743L465.015,313.105L465.714,321.396L466.414,359.516L467.113,387.825L467.813,406.124L468.512,409.166L469.212,409.215L469.911,408.97L470.611,408.724L471.31,406.86L472.01,405.634L472.709,405.094L473.409,404.652L474.108,401.954L474.808,399.943L475.507,398.667L476.207,395.38L476.906,388.168L477.606,366.287L478.305,356.475L479.005,350.391L479.704,361.479L480.404,364.913L481.103,365.158L481.803,359.418L482.502,355.101L483.202,349.459L483.901,347.349L484.601,345.73L485.3,343.179L486,347.251L486.7,353.089L487.399,356.916L488.099,353.482L488.798,358.094L489.498,364.275L490.197,365.06L490.897,362.656L491.596,364.472L492.296,367.072L492.995,364.226L493.695,355.15L494.394,355.592L495.094,359.565L495.793,364.717L496.493,368.544L497.192,365.845L497.892,372.91L498.591,375.559L499.291,382.133L499.99,379.043L500.69,377.522L501.389,367.759L502.089,356.622L502.788,354.856L503.488,361.871L504.187,364.717L504.887,363.883L505.586,359.271L506.286,365.06L506.985,360.056L507.685,360.007L508.384,354.954L509.084,362.068L509.783,365.894L510.483,369.77L511.182,365.551L511.882,357.456L512.581,361.43L513.281,362.656L513.98,367.072L514.68,361.381L515.379,352.697L516.079,347.889L516.778,341.266L517.478,353.089L518.177,360.105L518.877,367.906L519.576,364.864L520.276,362.902L520.975,360.841L521.675,356.18L522.374,356.867L523.074,351.765L523.773,351.912L524.473,348.085L525.172,347.153L525.872,353.973L526.571,360.056L527.271,376.099L527.97,378.258L528.67,373.989L529.369,366.091L530.069,343.228L530.768,341.168L531.468,331.306L532.167,353.776L532.867,359.026L533.567,370.555L534.266,360.89L534.966,365.453L535.665,364.177L536.365,368.445L537.064,359.86L537.764,351.47L538.463,338.911L539.163,339.156L539.862,337.096L540.562,355.199L541.261,354.561L541.961,351.421L542.66,341.953L543.36,343.572L544.059,349.312L544.759,345.338L545.458,346.319L546.158,338.616L546.857,349.999L547.557,349.508L548.256,360.449L548.956,353.335L549.655,353.089L550.355,349.655L551.054,352.206L551.754,347.055L552.453,342.198L553.153,332.19L553.852,331.11L554.552,340.186L555.251,342.541L555.951,347.447L556.65,351.029L557.35,362.803L558.049,357.652L558.749,355.935L559.448,351.372L560.148,354.561L560.847,353.678L561.547,351.716L562.246,363.098L562.946,372.223L563.645,378.405L564.345,373.008L565.044,354.414L565.744,352.942L566.443,353.188L567.143,366.189L567.842,349.655L568.542,349.999L569.241,348.772L569.941,359.32L570.64,353.629L571.34,359.222L572.039,367.072L572.739,374.922L573.438,373.548L574.138,373.989L574.837,368.298L575.537,353.825L576.236,349.312L576.936,351.372L577.635,354.757L578.335,356.573L579.034,352.206L579.734,362.951L580.433,367.023L581.133,374.48L581.833,370.849L582.532,365.355L583.232,366.974L583.931,372.468L584.631,378.994L585.33,375.952L586.03,373.695L586.729,369.819L587.429,363.638L588.128,358.192L588.828,363.638L589.527,370.015L590.227,370.997L590.926,365.698L591.626,366.777L592.325,366.826L593.025,366.14L593.724,363.098L594.424,365.306L595.123,365.502L595.823,361.086L596.522,352.844L597.222,336.507L597.921,333.612L598.621,335.722L599.32,353.433L600.02,359.32L600.719,361.135L601.419,362.068L602.118,365.6L602.818,372.125L603.517,372.174L604.217,367.759L604.916,364.717L605.616,355.493L606.315,354.169L607.015,344.013L607.714,342.051L608.414,333.024L609.113,333.612L609.813,335.673L610.512,334.888L611.212,332.435L611.911,341.07L612.611,348.723L613.31,343.228L614.01,339.892L614.709,342.639L615.409,354.463L616.108,356.867L616.808,365.06L617.507,341.511L618.207,317.373L618.906,285.925L619.606,289.408L620.305,294.805L621.005,309.572L621.704,313.497L622.404,307.365L623.103,307.168L623.803,321.985L624.502,333.907L625.202,332.582L625.901,327.038L626.601,323.26L627.3,328.167L628,344.013L628.7,352.255L629.399,359.86L630.099,358.633L630.798,363.588L631.498,359.32L632.197,352.893L632.897,346.761L633.596,339.598L634.296,341.119L634.995,346.662L635.695,354.463L636.394,358.535L637.094,367.464L637.793,376.786L638.493,382.918L639.192,381.986L639.892,376.442L640.591,376.099L641.291,372.518L641.99,375.756L642.69,373.253L643.389,377.767L644.089,374.872L644.788,376.148L645.488,367.611L646.187,366.925L646.887,362.46L647.586,369.868L648.286,366.385L648.985,363.588L649.685,359.418L650.384,364.521L651.084,367.611L651.783,372.419L652.483,372.076L653.182,378.65L653.882,379.582L654.581,381.005L655.281,380.024L655.98,374.087L656.68,372.125L657.379,370.064L658.079,374.774L658.778,374.333L659.478,373.695L660.177,369.77L660.877,373.401L661.576,368.004L662.276,359.958L662.975,347.546L663.675,333.907L664.374,343.719L665.074,350.685L665.773,365.6L666.473,369.083L667.172,367.66L667.872,367.072L668.571,360.399L669.271,355.297L669.97,333.416L670.67,333.024L671.369,343.67L672.069,358.339L672.768,361.086L673.468,364.422L674.167,372.37L674.867,373.401L675.567,370.751L676.266,368.249L676.966,360.645L677.665,350.685L678.365,340.088L679.064,349.704L679.764,360.203L680.463,375.02L681.163,373.744L681.862,376.541L682.562,382.133L683.261,382.084L683.961,382.771L684.66,379.435L685.36,381.348L686.059,379.779L686.759,381.692L687.458,386.255L688.158,384.537L688.857,380.318L689.557,374.48L690.256,375.216L690.956,370.997L691.655,368.396L692.355,364.275L693.054,363.49L693.754,372.468L694.453,378.405L695.153,384.881L695.852,382.869L696.552,382.084L697.251,384.734L697.951,385.813L698.65,386.058L699.35,377.718L700.049,372.763L700.749,376.295L701.448,389.689L702.148,394.006L702.847,387.825L703.547,382.869L704.246,374.872L704.946,377.178L705.645,370.702L706.345,362.803L707.044,353.923L707.744,345.142L708.443,350.146L709.143,355.542L709.842,369.77L710.542,376.982L711.241,375.854L711.941,377.031L712.64,379.386L713.34,377.276L714.039,372.468L714.739,365.011L715.438,371.34L716.138,371.291L716.837,381.201L717.537,382.379L718.236,382.624L718.936,379.386L719.635,377.227L720.335,380.956L721.034,376.688L721.734,373.744L722.433,371.144L723.133,376.737L723.833,378.16L724.532,378.552L725.232,375.118L725.931,375.412L726.631,373.94L727.33,375.265L728.03,374.333L728.729,370.948L729.429,363.294L730.128,367.808L730.828,375.559L731.527,381.79L732.227,381.348L732.926,381.054L733.626,384.39L734.325,387.53L735.025,387.825L735.724,390.817L736.424,392.436L737.123,395.527L737.823,391.112L738.522,388.855L739.222,390.228L739.921,389.247L740.621,377.767L741.32,372.567L742.02,367.808L742.719,378.307L743.419,380.416L744.118,388.904L744.818,385.568L745.517,384.979L746.217,386.843L746.916,389.444L747.616,387.285L748.315,383.311L749.015,381.643L749.714,377.914L750.414,371.831L751.113,372.321L751.813,373.204L752.512,380.269L753.212,373.94L753.911,377.473L754.611,380.171L755.31,388.07L756.01,388.119L756.709,384.734L757.409,381.299L758.108,374.627L758.808,377.963L759.507,374.971L760.207,381.79L760.906,378.601L761.606,384.685L762.305,386.892L763.005,389.149L763.704,387.775L764.404,387.383L765.103,379.828L765.803,376.491L766.502,361.528L767.202,358.388L767.901,356.229L768.601,363.834L769.3,368.593L770,370.899"/></g></svg>