<svg class="plot-d6a7b5" fill="currentColor" font-family="system-ui, sans-serif" font-size="10" text-anchor="middle" width="830" height="470" viewBox="0 0 830 470" xmlns="http://www.w3.org/2000/svg" xmlns:xlink="http://www.w3.org/1999/xlink" color="dodgerblue"><style>:where(.plot-d6a7b5){--plot-background: white;display:block;height:intrinsic;max-width:100%}:where(.plot-d6a7b5 text),:where(.plot-d6a7b5 tspan){white-space:pre}</style><g aria-label="y-grid" stroke="currentColor" stroke-opacity=".1"><line x1="60" x2="770" y1="410" y2="410"/><line x1="60" x2="770" y1="360.939" y2="360.939"/><line x1="60" x2="770" y1="311.878" y2="311.878"/><line x1="60" x2="770" y1="262.817" y2="262.817"/><line x1="60" x2="770" y1="213.757" y2="213.757"/><line x1="60" x2="770" y1="164.696" y2="164.696"/><line x1="60" x2="770" y1="115.635" y2="115.635"/><line x1="60" x2="770" y1="66.574" y2="66.574"/></g><g aria-label="y-axis tick" fill="none" stroke="currentColor"><path transform="translate(60,410)" d="M0,0L-6,0"/><path transform="translate(60,360.9391645640594)" d="M0,0L-6,0"/><path transform="translate(60,311.8783291281189)" d="M0,0L-6,0"/><path transform="translate(60,262.8174936921783)" d="M0,0L-6,0"/><path transform="translate(60,213.7566582562377)" d="M0,0L-6,0"/><path transform="translate(60,164.69582282029717)" d="M0,0L-6,0"/><path transform="translate(60,115.6349873843566)" d="M0,0L-6,0"/><path transform="translate(60,66.57415194841604)" d="M0,0L-6,0"/></g><g aria-label="y-axis tick label" text-anchor="end" font-variant="tabular-nums"><text y=".32em" transform="translate(-9,0) translate(60,410)">0</text><text y=".32em" transform="translate(-9,0) translate(60,360.9391645640594)">1,000</text><text y=".32em" transform="translate(-9,0) translate(60,311.8783291281189)">2,000</text><text y=".32em" transform="translate(-9,0) translate(60,262.8174936921783)">3,000</text><text y=".32em" transform="translate(-9,0) translate(60,213.7566582562377)">4,000</text><text y=".32em" transform="translate(-9,0) translate(60,164.69582282029717)">5,000</text><text y=".32em" transform="translate(-9,0) translate(60,115.6349873843566)">6,000</text><text y=".32em" transform="translate(-9,0) translate(60,66.57415194841604)">7,000</text></g><g aria-label="y-axis label" text-anchor="start"><text y=".71em" transform="translate(-57,-57) translate(60,60)">↑ Visible Vestiges (Default settings)</text></g><g aria-label="x-axis tick" fill="none" stroke="currentColor"><path transform="translate(67.05298013245033,410)" d="M0,0L0,6"/><path transform="translate(139.9337748344371,410)" d="M0,0L0,6"/><path transform="translate(210.46357615894038,410)" d="M0,0L0,6"/><path transform="translate(283.34437086092714,410)" d="M0,0L0,6"/><path transform="translate(353.8741721854305,410)" d="M0,0L0,6"/><path transform="translate(426.75496688741725,410)" d="M0,0L0,6"/><path transform="translate(499.635761589404,410)" d="M0,0L0,6"/><path transform="translate(570.1655629139074,410)" d="M0,0L0,6"/><path transform="translate(643.0463576158941,410)" d="M0,0L0,6"/><path transform="translate(713.5761589403974,410)" d="M0,0L0,6"/></g><g aria-label="x-axis tick label" font-variant="tabular-nums"><text transform="translate(0,9) translate(67.05298013245033,410)"><tspan x="0" y=".71em">Mar</tspan><tspan x="0" dy="1em">2023</tspan></text><text y=".71em" transform="translate(0,9) translate(139.9337748344371,410)">Apr</text><text y=".71em" transform="translate(0,9) translate(210.46357615894038,410)">May</text><text y=".71em" transform="translate(0,9) translate(283.34437086092714,410)">Jun</text><text y=".71em" transform="translate(0,9) translate(353.8741721854305,410)">Jul</text><text y=".71em" transform="translate(0,9) translate(426.75496688741725,410)">Aug</text><text y=".71em" transform="translate(0,9) translate(499.635761589404,410)">Sep</text><text y=".71em" transform="translate(0,9) translate(570.1655629139074,410)">Oct</text><text y=".71em" transform="translate(0,9) translate(643.0463576158941,410)">Nov</text><text y=".71em" transform="translate(0,9) translate(713.5761589403974,410)">Dec</text></g><g aria-label="line" fill="none" stroke="currentColor" stroke-width="1.5" stroke-linejoin="round" stroke-linecap="round"><path d="M60,410L61.567,385.371L63.135,295.296L64.702,246.726L66.269,236.913L67.837,270.177L69.404,274.003L70.971,266.497L72.539,238.434L74.106,216.013L75.673,178.237L77.241,139.626L78.808,90.369L80.375,109.65L81.943,145.66L83.51,202.669L85.077,195.015L86.645,193.445L88.212,192.906L89.779,202.227L91.347,211.5L92.914,182.996L94.481,179.12L96.049,151.989L97.616,189.815L99.183,205.22L100.751,226.905L102.318,195.948L103.885,180.395L105.453,178.089L107.02,172.398L108.587,155.718L110.155,120.05L111.722,109.601L113.289,132.463L114.857,196.683L116.424,250.013L117.991,270.765L119.558,263.21L121.126,242.555L122.693,233.038L124.26,194.623L125.828,149.978L127.395,97.041L128.962,82.862L130.53,111.808L132.097,141.343L133.664,166.756L135.232,169.111L136.799,181.131L138.366,172.595L139.934,152.136L141.501,116.665L143.068,86.689L144.636,60L146.203,86.934L147.77,122.258L149.338,160.378L150.905,147.328L152.472,133.297L154.04,116.518L155.607,104.351L157.174,106.461L158.742,106.362L160.309,107.049L161.876,95.029L163.444,125.006L165.011,147.77L166.578,175.048L168.146,172.791L169.713,182.603L171.28,202.375L172.848,199.333L174.415,182.358L175.982,158.759L177.55,141.883L179.117,161.114L180.684,182.161L182.252,219.055L183.819,234.853L185.386,250.503L186.954,249.718L188.521,224.795L190.088,202.473L191.656,178.482L193.223,176.716L194.79,168.474L196.358,188.785L197.925,212.825L199.492,207.967L201.06,205.613L202.627,211.5L204.194,247.412L205.762,255.802L207.329,231.32L208.896,208.507L210.464,194.329L212.031,192.562L213.598,221.508L215.166,245.744L216.733,262.033L218.3,240.74L219.868,245.793L221.435,248.099L223.002,252.662L224.57,215.327L226.137,195.997L227.704,185.841L229.272,211.549L230.839,223.814L232.406,231.32L233.974,235.638L235.541,238.483L237.108,248.05L238.675,248.345L240.243,235.834L241.81,235.785L243.377,227.69L244.945,239.955L246.512,253.496L248.079,267.527L249.647,274.151L251.214,266.154L252.781,265.712L254.349,267.086L255.916,259.334L257.483,217.829L259.051,195.212L260.618,179.757L262.185,216.897L263.753,223.618L265.32,247.412L266.887,243.438L268.455,262.327L270.022,246.578L271.589,241.623L273.157,218.025L274.724,203.454L276.291,196.34L277.859,200.314L279.426,230.486L280.993,232.105L282.561,239.857L284.128,249.865L285.695,249.718L287.263,261.297L288.83,259.579L290.397,278.174L291.965,273.464L293.532,263.799L295.099,265.761L296.667,263.21L298.234,262.719L299.801,262.817L301.369,267.969L302.936,285.042L304.503,277.438L306.071,269.637L307.638,263.014L309.205,259.825L310.773,265.123L312.34,263.063L313.907,273.366L315.475,272.384L317.042,264.191L318.609,257.813L320.177,261.64L321.744,269.833L323.311,270.569L324.879,274.396L326.446,265.123L328.013,267.675L329.581,255.262L331.148,262.916L332.715,264.093L334.283,284.993L335.85,288.82L337.417,293.824L338.985,272.875L340.552,265.271L342.119,260.414L343.687,258.647L345.254,260.953L346.821,256.292L348.389,262.278L349.956,245.744L351.523,237.649L353.091,247.952L354.658,265.859L356.225,276.26L357.792,281.068L359.36,283.766L360.927,298.534L362.494,288.28L364.062,291.665L365.629,280.381L367.196,284.404L368.764,276.604L370.331,280.283L371.898,278.615L373.466,282.442L375.033,276.751L376.6,276.996L378.168,272.679L379.735,283.325L381.302,279.4L382.87,283.963L384.437,277.928L386.004,271.109L387.572,268.263L389.139,262.572L390.706,269.49L392.274,277.29L393.841,270.373L395.408,268.165L396.976,274.445L398.543,286.514L400.11,296.817L401.678,281.804L403.245,289.458L404.812,282.687L406.38,288.771L407.947,284.306L409.514,276.015L411.082,262.082L412.649,253.643L414.216,272.826L415.784,271.452L417.351,271.599L418.918,257.617L420.486,263.161L422.053,270.716L423.62,270.177L425.188,279.694L426.755,269.637L428.322,269.244L429.89,254.87L431.457,255.704L433.024,255.556L434.592,266.791L436.159,258.255L437.726,242.653L439.294,208.605L440.861,213.266L442.428,232.105L443.996,264.486L445.563,273.905L447.13,282.246L448.698,287.152L450.265,287.299L451.832,288.476L453.4,288.133L454.967,286.416L456.534,284.11L458.102,281.313L459.669,277.536L461.236,273.071L462.804,276.407L464.371,264.24L465.938,249.964L467.506,234.706L469.073,250.16L470.64,257.666L472.208,256.881L473.775,253.594L475.342,252.269L476.909,262.817L478.477,266.546L480.044,281.559L481.611,292.303L483.179,304.372L484.746,298.436L486.313,298.239L487.881,287.25L489.448,282.785L491.015,285.876L492.583,287.888L494.15,292.941L495.717,294.118L497.285,296.964L498.852,299.466L500.419,300.791L501.987,300.594L503.554,291.322L505.121,278.762L506.689,281.755L508.256,284.944L509.823,294.609L511.391,300.692L512.958,307.512L514.525,314.822L516.093,324.242L517.66,331.208L519.227,307.463L520.795,288.329L522.362,276.26L523.929,283.08L525.497,301.576L527.064,310.505L528.631,334.25L530.199,334.103L531.766,330.227L533.333,324.094L534.901,307.806L536.468,300.496L538.035,270.373L539.603,254.575L541.17,265.32L542.737,289.556L544.305,316.294L545.872,312.909L547.439,314.626L549.007,308.101L550.574,313.792L552.141,310.308L553.709,299.073L555.276,292.597L556.843,288.329L558.411,309.965L559.978,320.415L561.545,335.182L563.113,329.687L564.68,326.94L566.247,315.999L567.815,310.161L569.382,300.496L570.949,294.315L572.517,293.137L574.084,309.229L575.651,321.592L577.219,331.306L578.786,327.087L580.353,332.827L581.921,329.982L583.488,320.268L585.055,306.285L586.623,288.771L588.19,275.377L589.757,270.373L591.325,281.706L592.892,301.379L594.459,316.588L596.026,323.8L597.594,320.611L599.161,313.595L600.728,314.282L602.296,318.845L603.863,303.047L605.43,282.246L606.998,277.977L608.565,303.293L610.132,329.05L611.7,341.168L613.267,335.231L614.834,332.974L616.402,326.253L617.969,316.049L619.536,290.144L621.104,276.555L622.671,272.139L624.238,295.1L625.806,307.855L627.373,316.196L628.94,315.656L630.508,314.233L632.075,319.483L633.642,307.316L635.21,308.052L636.777,303.195L638.344,315.803L639.912,323.751L641.479,328.412L643.046,330.325L644.614,332.484L646.181,346.81L647.748,348.38L649.316,324.291L650.883,300.938L652.45,277.83L654.018,286.121L655.585,301.821L657.152,330.571L658.72,334.741L660.287,333.858L661.854,334.299L663.422,342.983L664.989,343.375L666.556,341.756L668.124,333.71L669.691,336.163L671.258,329.442L672.826,338.911L674.393,344.504L675.96,357.603L677.528,357.063L679.095,356.72L680.662,353.531L682.23,360.203L683.797,346.761L685.364,326.351L686.932,301.526L688.499,303.096L690.066,312.32L691.634,331.012L693.201,339.058L694.768,349.165L696.336,342.198L697.903,334.839L699.47,323.555L701.038,322.525L702.605,320.17L704.172,322.083L705.74,321.396L707.307,328.412L708.874,330.08L710.442,327.627L712.009,316.441L713.576,316.588L715.143,321.494L716.711,338.567L718.278,335.28L719.845,330.914L721.413,324.83L722.98,335.133L724.547,351.618L726.115,355.935L727.682,351.765L729.249,345.927L730.817,351.618L732.384,354.12L733.951,355.837L735.519,352.354L737.086,349.802L738.653,352.599L740.221,348.281L741.788,343.523L743.355,344.258L744.923,355.641L746.49,369.034L748.057,366.091L749.625,355.248L751.192,340.775L752.759,335.133L754.327,343.768L755.894,351.961L757.461,347.742L759.029,347.496L760.596,353.04L762.163,361.037L763.731,353.089L765.298,349.999L766.865,345.779L768.433,338.518L770,327.725"/></g></svg>