<svg xmlns="http://www.w3.org/2000/svg" width="830" height="470" fill="currentColor" class="plot-d6a7b5" font-family="system-ui, sans-serif" font-size="10" style="--plot-background:white;display:block;height:intrinsic;max-width:100%;color:#1e90ff" text-anchor="middle" viewBox="0 0 830 470">
    <style>
        :where(.plot-d6a7b5 text),:where(.plot-d6a7b5 tspan){white-space:pre}
    </style>
    <path stroke="currentColor" stroke-opacity=".1" d="
M60
410
h710
M60
378.557
h710
M60
347.114
h710
M60
315.671
h710
M60
284.227
h710
M60
252.784
h710
M60
221.341
h710
M60
189.898
h710
M60
158.455
h710
M60
127.012
h710
M60
95.568
h710
M60
64.125
h710" aria-hidden="true" aria-label="y-grid"/>
    <path fill="none" stroke="currentColor" d="
M60
410
h-6
m6
-31.443
h-6
m6
-31.443
h-6
m6
-31.444
h-6
m6
-31.443
h-6
m6
-31.443
h-6
m6
-31.443
h-6
m6
-31.443
h-6
m6
-31.443
h-6
m6
-31.443
h-6
m6
-31.444
h-6
m6
-31.443
h-6" aria-hidden="true" aria-label="y-axis tick"/>
    <g aria-label="y-axis tick label" font-variant="tabular-nums" text-anchor="end">
        <text y=".32em" transform="translate(51 410)">0</text>
        <text y=".32em" transform="translate(51 378.557)">5,000</text>
        <text y=".32em" transform="translate(51 347.114)">10,000</text>
        <text y=".32em" transform="translate(51 315.67)">15,000</text>
        <text y=".32em" transform="translate(51 284.227)">20,000</text>
        <text y=".32em" transform="translate(51 252.784)">25,000</text>
        <text y=".32em" transform="translate(51 221.341)">30,000</text>
        <text y=".32em" transform="translate(51 189.898)">35,000</text>
        <text y=".32em" transform="translate(51 158.455)">40,000</text>
        <text y=".32em" transform="translate(51 127.012)">45,000</text>
        <text y=".32em" transform="translate(51 95.568)">50,000</text>
        <text y=".32em" transform="translate(51 64.125)">55,000</text>
    </g>
    <text y=".71em" aria-label="y-axis label" text-anchor="start" transform="translate(3 3)">↑ Visible vestiges (30 days)</text>
    <path fill="none" stroke="currentColor" d="
M80.727
410
v6
m55.475
-6
v6
m56.085
-6
v6
m56.084
-6
v6
m55.476
-6
v6
m55.475
-6
v6
m56.084
-6
v6
m56.085
-6
v6
m54.866
-6
v6
m55.475
-6
v6
m56.084
-6
v6
m56.085
-6
v6
m54.866
-6
v6" aria-hidden="true" aria-label="x-axis tick"/>
    <g aria-label="x-axis tick label" font-variant="tabular-nums">
        <text transform="translate(80.727 419)"><tspan x="0" y=".71em">Apr</tspan><tspan x="0" dy="1em">2023</tspan></text>
        <text y=".71em" transform="translate(136.202 419)">Jul</text>
        <text y=".71em" transform="translate(192.287 419)">Oct</text>
        <text transform="translate(248.371 419)"><tspan x="0" y=".71em">Jan</tspan><tspan x="0" dy="1em">2024</tspan></text>
        <text y=".71em" transform="translate(303.847 419)">Apr</text>
        <text y=".71em" transform="translate(359.322 419)">Jul</text>
        <text y=".71em" transform="translate(415.406 419)">Oct</text>
        <text transform="translate(471.491 419)"><tspan x="0" y=".71em">Jan</tspan><tspan x="0" dy="1em">2025</tspan></text>
        <text y=".71em" transform="translate(526.357 419)">Apr</text>
        <text y=".71em" transform="translate(581.832 419)">Jul</text>
        <text y=".71em" transform="translate(637.916 419)">Oct</text>
        <text transform="translate(694.001 419)"><tspan x="0" y=".71em">Jan</tspan><tspan x="0" dy="1em">2026</tspan></text>
        <text y=".71em" transform="translate(748.867 419)">Apr</text>
    </g>
    <path fill="none" stroke="currentColor" stroke-linecap="round" stroke-linejoin="round" stroke-width="1.5" d="
m60
410
.406
-3.157
.407
-11.546
.406
-6.226
.407
-4.414
.406
-7.282
.406
-5.736
.407
-5.376
.406
-10.88
.407
-8.609
.406
-10.219
.407
-15.828
.406
-14.923
.406
-7.748
.407
-11.213
.406
-7.615
.407
-8.729
.406
-11.414
.406
-7.684
.407
-7.534
.406
-10.225
.407
-11.339
.406
-8.03
.406
-13.703
.407
-6.49
.406
-6.056
.407
-10.923
.406
-10.458
.407
-8.05
.406
-11.219
.406
-8.03
.407
1.358
.406
-9.565
.407
-8.112
.406
.025
.406
-1.824
.407
-.314
.406
6.282
.407
.082
.406
1.88
.406
10.012
.407
1.471
.406
-6.314
.407
-1.389
.406
-7.654
.406
-1.622
.407
2.597
.406
-4.327
.407
-2.515
.406
2.949
.407
-1.767
.406
-4.641
.406
1.881
.407
-10.458
.406
-10.037
.407
2.553
.406
-1.962
.406
-3.157
.407
1.176
.406
-3.031
.407
-3.169
.406
4.188
.406
-1.421
.407
-6.113
.406
-3.956
.407
-9.797
.406
-4.931
.407
-.069
.406
-3.653
.406
-4
.407
6.113
.406
4.603
.407
2.396
.406
5.754
.406
-2.132
.407
-3.553
.406
4.962
.407
.264
.406
-.365
.406
8.081
.407
4.893
.406
4.081
.407
8.728
.406
5.453
.407
-2.447
.406
3.975
.406
-.491
.407
1.83
.406
8.855
.407
1.037
.406
3.088
.406
9.339
.407
5.653
.406
4.075
.407
7.741
.406
-1.113
.406
-.66
.407
4.019
.406
2.886
.407
1.189
.406
3.571
.407
.548
.406
4.012
.406
6.892
.407
3.295
.406
-3.238
.407
1.716
.406
-2.735
.406
-1.968
.407
1.282
.406
-1.672
.407
1.779
.406
4.509
.406
2.629
.407
2.044
.406
3.962
.407
.018
.406
-2.075
.406
6.157
.407
2.056
.406
-1.031
.407
2.402
.406
-.044
.407
2.05
.406
5.503
.406
.78
.407
-3.044
.406
-1.107
.407
-4.308
.406
-.371
.406
2.484
.407
-1.905
.406
-1.176
.407
4.32
.406
.862
.406
.666
.407
2.597
.406
-4.301
.407
-1.817
.406
2.144
.407
-.987
.406
-1.975
.406
1.912
.407
.258
.406
-.39
.407
3.402
.406
1.075
.406
.422
.407
1.062
.406
-1.962
.407
-.176
.406
1.761
.406
-1.968
.407
-.34
.406
3.415
.407
5.54
.406
1.585
.407
4.396
.406
-.069
.406
.314
.407
2.025
.406
.176
.407
-.786
.406
3.918
.406
-.239
.407
1.421
.406
6.276
.407
1.723
.406
1.006
.406
2.899
.407
.327
.406
.34
.407
.025
.406
1.327
.407
-.994
.406
2.925
.406
-.566
.407
.251
.406
1.478
.407
-1.792
.406
-.044
.406
1.314
.407
-1.509
.406
-1.302
.407
-.107
.406
-2.654
.406
-1.339
.407
2.063
.406
.05
.407
-.686
.406
2.943
.406
-.924
.407
1.333
.406
2.679
.407
.327
.406
-.604
.407
2.145
.406
-.767
.406
-.623
.407
3.119
.406
-.603
.407
.239
.406
2.169
.406
-1.308
.407
-1.075
.406
1.176
.407
-1.365
.406
.836
.406
1.277
.407
-1.107
.406
.334
.407
1.867
.406
.491
.407
-1.321
.406
3.704
.406
2.333
.407
-1.094
.406
2.729
.407
-.924
.406
-.73
.406
1.516
.407
-2.038
.406
.013
.407
.019
.406
-2.377
.406
-1.585
.407
3.478
.406
-3.025
.407
-1.352
.406
1.195
.407
-1.585
.406
-.415
.406
1.679
.407
-1.73
.406
-1.201
.407
1.044
.406
-2.798
.406
-.22
.407
1.39
.406
-.629
.407
-2.201
.406
-1.61
.406
-4.107
.407
-1.32
h.406
l.407
-1.503
.406
-1.434
.407
2.993
.406
-1.855
.406
-.547
.407
2.365
.406
-1.327
.407
.295
.406
3.855
.406
-.604
.407
-2.647
.406
3.459
.407
-.195
.406
-2.415
.406
.918
.407
-3.119
.406
-.365
.407
.66
.406
-1.93
.407
-.736
.406
2.333
.406
-.685
.407
-.239
.406
2.817
.407
1.786
.406
3.308
.406
6.42
.407
1.164
.406
-.516
.407
1.698
.406
.352
.406
-1.327
.407
1.717
.406
.484
.407
-1.113
.406
2.082
.406
.874
.407
-.843
.406
1.252
.407
-.252
.406
.113
.407
1.233
.406
2.547
.406
2.723
.407
4.062
.406
1.503
.407
2.969
.406
5.056
.406
-1.12
.407
.686
.406
2.157
.407
-.724
.406
1.132
.406
1.925
.407
.773
.406
1.874
.407
1.453
.406
1.396
.407
.358
.406
.12
.406
-2.723
.407
-2.314
.406
1.345
.407
.019
.406
.793
.406
.742
.407
.264
.406
1.144
.407
3.082
.406
-.566
.406
-.704
.407
1.012
.406
-1.893
.407
1.195
.406
1.415
.407
-1.207
.406
-.403
.406
4.107
.407
-.158
.406
.396
.407
1.994
.406
-3.32
.406
-.9
.407
1.013
.406
-1.717
.407
.843
.406
1.257
.406
1.107
.407
1.415
.406
3.874
.407
1.339
.406
-2.207
.407
-.949
.406
-2.73
.406
-.32
.407
1.352
.406
.056
.407
-.126
.406
1.39
.406
.598
.407
.792
.406
2.522
.407
-4.201
.406
-3.214
.406
.082
.407
-.251
.406
.44
.407
3.037
.406
-.264
.406
1.39
.407
2.968
.406
-1.421
.407
-3.993
.406
-.359
.407
-3.232
.406
-.51
.406
.541
.407
-1.798
.406
.666
.407
2.151
.406
1.119
.406
.824
.407
2.887
.406
-.956
.407
-.082
.406
1.956
.406
-1.283
.407
.572
.406
3.132
.407
.465
.406
.189
.407
2.069
.406
.138
.406
-2.226
.407
-.113
.406
-1.151
.407
-.094
.406
1.182
.406
-.975
.407
.824
.406
3.603
.407
2.396
.406
2.359
.406
3.138
.407
-.233
.406
-.138
.407
3.282
.406
.554
.407
1.723
.406
2.54
.406
2.069
.407
1.22
.406
4.019
.407
-1.27
.406
-2.415
.406
.239
.407
-1.315
.406
-1.509
.407
.799
.406
-.484
.406
2.873
.407
2.899
.406
1.535
.407
.365
.406
.754
.407
-2.452
.406
.075
.406
.78
.407
-1.61
.406
-.824
.407
.415
.406
-2.836
.406
.227
.407
.729
.406
.214
.407
-1.409
.406
-.547
.406
-2.245
.407
-.019
.406
1.61
.407
-1.283
.406
-1.408
.406
2.584
.407
2.063
.406
2.094
.407
2.603
.406
.434
.407
-.629
.406
1.931
.406
-1.415
.407
-.346
.406
2.968
.407
1.491
.406
1.503
.406
2.893
.407
-.145
.406
-.264
.407
1.27
.406
.749
.406
1.1
.407
2.163
.406
.698
.407
1.183
.406
1
.407
.1
.406
1.346
.406
1.239
.407
-2.151
.406
-2.151
.407
1.491
.406
-.076
.406
-1.553
.407
-.346
.406
-1.327
.407
-.949
.406
-.195
.406
-1.006
.407
-1.359
.406
.843
.407
-.088
.406
-1.503
.407
-.591
.406
-2.579
.406
-.698
.407
1.541
.406
-.585
.407
1.113
.406
-.081
.406
-1.547
.407
1.025
.406
.018
.407
-1.251
.406
.258
.406
1.585
.407
.27
.406
1.245
.407
1.811
.406
.032
.407
-1.422
.406
-1.106
.406
-1.019
.407
.767
.406
1.22
.407
.396
.406
-.195
.406
-.025
.407
.069
.406
.68
.407
.125
.406
-1.05
.406
-2.912
.407
.755
.406
-1.742
.407
-.503
.406
1.836
.406
-1.597
.407
1.176
.406
2.094
.407
-2.779
.406
-2.925
.407
-.899
.406
-3.622
.406
-1.157
.407
-.686
.406
-1.723
.407
-.471
.406
.918
.406
-.837
.407
1.522
.406
.654
.407
-3.886
.406
-1.686
.406
-.591
.407
-1.132
.406
.78
.407
.635
.406
-2.616
.407
-.415
.406
-.176
.406
1.49
.407
-1.326
.406
-2.139
.407
-4.509
.406
-1.534
.406
-.912
.407
-4.471
.406
-2.006
.407
1.924
.406
1.554
.406
.704
.407
2.22
.406
-2.151
.407
-1.956
.406
1.233
.407
-.994
.406
-.868
.406
.082
.407
-1.503
.406
1.704
.407
2.585
.406
-.924
.406
-1.705
.407
1.365
.406
-1.855
.407
-.233
.406
1.541
.406
.226
.407
1.893
.406
1.403
.407
1.194
.406
3.541
.407
4.075
.406
-1.579
.406
.956
.407
3.214
.406
1.629
.407
.786
.406
.93
.406
.541
.407
1.591
.406
3.145
.407
.188
.406
-.855
.406
1.968
.407
-.591
.406
1.164
.407
2.735
.406
-.075
.406
.213
.407
2.736
.406
1.459
.407
-.415
.406
1.446
.407
-2.861
.406
-.547
.406
1.163
.407
1.881
.406
2.679
.407
3.597
.406
2.848
.406
2.862
.407
5.326
.406
2.943
.407
2.283
.406
2.088
.406
2.018
.407
2.516
.406
2.107
.407
1.245
.406
1.528
.407
3.358
.406
1.409
.406
-1.239
.407
1.811
.406
.736
.407
-.692
.406
.629
.406
1.182
.407
-.195
.406
.956
.407
.811
.406
.541
.406
2.748
.407
.566
h.406
l.407
-1.39
.406
-2.572
.407
-2.786
.406
-1.188
.406
-1.786
.407
-2.654
.406
-1.465
.407
-1.314
.406
-2.164
.406
-1.761
.407
-2.421
.406
-1.76
.407
-.994
.406
-1.597
.406
-.849
.407
-.415
.406
2.113
.407
.748
.406
1.207
.407
.296
.406
.113
.406
-.075
.407
-.397
.406
.441
.407
1.547
.406
.239
.406
.54
.407
1.283
.406
.459
.407
-.849
.406
.787
.406
.251
.407
-.528
.406
.484
.407
.648
.406
-.761
.406
-.786
.407
.824
.406
-.239
.407
.943
.406
.038
.407
-1.862
.406
-.333
.406
-1.302
h.407
l.406
-.339
.407
-.642
.406
-1.232
.406
-.195
.407
-.711
.406
-.579
.407
1.321
.406
-1.138
.406
-1.459
.407
.465
.406
-1.151
.407
.007
.406
.503
.407
1.547
.406
.289
.406
.604
.407
-.378
.406
-3.131
.407
-.157
.406
-1.101
.406
.786
.407
.006
.406
.22
.407
-1.018
.406
1.32
.406
1.17
.407
.145
.406
1.069
.407
-1.422
.406
-2.364
.407
.101
.406
-1.296
.406
.208
.407
.283
.406
-1.101
.407
-1.094
.406
1.144
.406
-.383
.407
-1.113
.406
1.39
.407
-2.246
.406
-.433
.406
-.73
.407
-1.119
.406
-.799
.407
.252
.406
1.371
.407
-.208
.406
.855
.406
-2.132
.407
-2.163
.406
-.761
.407
.271
.406
-2.447
.406
.032
.407
.182
.406
.164
.407
.446
.406
1.572
.406
-.452
.407
1.119
.406
-.862
.407
-.622
.406
2.981
.407
1.521
.406
-.037
.406
1.553
.407
-.352
.406
-.352
.407
2.572
.406
-.145
.406
-2.408
.407
1.213
.406
.61
.407
-1.025
.406
.925
.406
.999
.407
.642
.406
2.553
.407
2.107
.406
.836
.406
.661
.407
-.051
.406
-.371
.407
.466
.406
-1.126
.407
.522
.406
.126
.406
.836
.407
.635
.406
1.195
.407
.623
.406
-1.529
.406
.233
.407
.535
h.406
l.407
2.226
.406
.434
.406
-.529
.407
-.232
.406
1.855
.407
.126
.406
.742
.407
.629
.406
.176
.406
.163
.407
-.371
.406
-.918
.407
-.05
.406
-.145
.406
-.163
.407
1.238
.406
-.622
.407
-2.522
.406
.434
.406
-.585
.407
.308
.406
-.188
.407
-.874
.406
-.529
.407
.73
.406
.666
.406
-.729
.407
-.541
.406
-.56
.407
-1.521
.406
-.422
.406
-1.364
.407
-.981
.406
-.881
.407
-1.987
.406
-1.534
.406
-1.107
.407
-1.623
.406
-.566
.407
-.132
.406
-2.239
.407
-.603
.406
-.063
.406
-.748
.407
.27
.406
2.044
.407
-1.673
.406
-2.453
.406
-2.257
.407
-3.497
.406
-2.515
.407
-.598
.406
-3.112
.406
-3.755
.407
-1.459
.406
-1.22
.407
-1.66
.406
-1.239
.406
-.748
.407
-1.975
.406
.692
.407
1.534
.406
.239
.407
1.591
.406
1.114
.406
.974
.407
1.359
.406
-.818
.407
-.792
.406
1.144
.406
-.195
.407
-.434
.406
.629
.407
.019
.406
-.339
.406
4.842
.407
3.899
.406
3.572
.407
3.685
.406
3.163
.407
1.22
.406
3.597
.406
3.629
.407
1.823
.406
1.327
.407
2.264
.406
.899
.406
1.95
.407
2.176
.406
1.22
.407
-.529
.406
.761
.406
-.289
.407
.283
.406
.522
.407
.874
.406
1.063
.407
2.151
.406
1.911
.406
1.051
.407
1.314
.406
.151
.407
.277
.406
-.095
.406
-.44
.407
-.566
.406
-.057
.407
-.232
.406
-.057
.406
-.289
.407
-1.679
.406
-1.327
.407
-2.616
.406
-.05
.407
-.598
.406
.39
.406
.484
.407
-.207
.406
-.635
.407
.075
.406
-.503
.406
-2.905
.407
-.629
.406
.465
.407
-1.641
.406
-.233
.406
.05
.407
-.742
.406
-.283
.407
-.163
.406
-.302
.406
-1.006
.407
-1.176
.406
-2.264
.407
.283
.406
.251
.407
.139
.406
-.346
.406
1.302
.407
1.886
.406
1.239
.407
3.138
.406
.201
.406
.592
.407
1.025
h.406
l.407
1.358
.406
.88
.406
.315
.407
1.264
.406
3.779
.407
-.176
.406
-.434
.407
1.371
.406
-.629
.406
.29
.407
1.113
.406
.069
.407
.371
.406
1.333
.406
1.384
.407
1.786
.406
2.723
.407
-.919
.406
-.195
.406
1.277
.407
.962
h.406
l.407
-.232
.406
.333
.407
-1.113
.406
.49
.406
-.742
.407
-1.924
.406
-.893
.407
-2.453
.406
-1.062
.406
.339
.407
.12
.406
-.233
.407
.736
.406
.603
.406
.598
.407
.566
.406
-1.164
.407
-1.119
.406
.547
.407
-.912
.406
.252
.406
.358
.407
-1.018
.406
-.195
.407
1.15
.406
.095
.406
-1.195
.407
-.943
.406
-.793
.407
.315
.406
-.126
.406
.283
.407
-.421
.406
.742
.407
1.106
.406
.887
.406
1.748
.407
.032
.406
-.786
.407
.503
.406
.1
.407
.158
.406
.295
.406
-.239
.407
.855
.406
1.315
.407
.754
.406
.428
.406
1.528
.407
-.119
.406
-.29
.407
1.208
.406
.471
.406
-.138
.407
-.742
.406
.352
.407
-.371
.406
.937
.407
-.094
.406
.534
.406
.459
.407
.271
.406
.736
.407
.981
.406
-.176
.406
.345
.407
1.202
.406
.327
.407
-1.013
.406
.271
.406
-.359
.407
-.05
.406
-.503
.407
-.334
.406
-.106
.407
.471
.406
-.71
.406
-.749
.407
-.365
.406
-.999
.407
-.032
.406
-.924
h.406
l.407
1.031
.406
.522
.407
.893
.406
-.025
.406
.075
.407
-.245
.406
-.566
.407
-.277
.406
-2.402
.407
-1.302
.406
-.276
.406
-.918
.407
-.478
.406
.496
.407
-.547
.406
-1.528
.406
.472
.407
-1.308
.406
.421
.407
.509
.406
-.93
.406
-.29
.407
.158
.406
.264
.407
-.516
.406
1.145
.406
-.591
.407
.427
.406
-.082
.407
.063
.406
-.302
.407
.026
.406
-.371
.406
-.654
.407
-.126
.406
-.403
.407
.145
.406
1.66
.406
.459
.407
.088
.406
.283
.407
-.371
.406
.088
.406
1.648
.407
.868
.406
-.076
.407
1.032
.406
-.246
.407
-1.012
.406
-1.044
.406
-2.239
.407
-1.195
.406
-.471
.407
.314
.406
-.044
.406
-.012
.407
-.592
.406
.283
.407
.095
.406
-1.227
.406
-1.05
.407
.113
.406
-.138
.407
-.277
.406
.755
.407
-.201
.406
-.648
.406
-.685
.407
.094
.406
.22
.407
.855
.406
.038
.406
-.34
.407
1.164
.406
-.793
.407
.315
.406
.094
.406
-.113
.407
1
.406
1.025
.407
.22
.406
-.214
.407
-.05
.406
-1.365
h.406
l.407
.453
.406
-1.063
.407
-.471
.406
.735
.406
-.182
.407
-.075
.406
.584
.407
-.44
.406
.088
.406
-.912
.407
.692
.406
.132
.407
-.377
.406
.327
.407
-.05
.406
-.202
.406
-1.798
.407
-2.34
.406
.365
.407
-1.509
.406
-.038
.406
.113
.407
-1.188
.406
.157
.407
.333
.406
-.346
.406
.239
.407
.919
.406
-.177
.407
-.295
.406
.748
.406
-.289
.407
.314
.406
.705
.407
-1.189
.406
-.522
.407
.862
.406
.27
.406
1.138
.407
.088
.406
1.063
.407
1.12
.406
.358
.406
-.295
.407
.773
.406
2.05
.407
1.535
.406
.578
.406
1.371
.407
-.163
.406
.968
.407
1.365
.406
1.207
.407
-.069
.406
1.006
.406
-.321
.407
.95
.406
.704
.407
-.465
.406
.346
.406
.408
.407
.724
.406
.673
.407
.811
.406
.824
.406
.195
.407
.729
.406
.352
.407
.837
.406
.314
.407
.195
.406
-.56
.406
-.063
.407
-.66
.406
.428
.407
.478
.406
.603
.406
.673
.407
1.484
.406
-.32
.407
.553
.406
-.101
.406
1.497
.407
.069
.406
.843
.407
-.585
.406
.409
.407
1.522
.406
.591
.406
.163
.407
-.49
.406
.094
.407
.811
.406
.258
.406
.378
.407
-.139
.406
.679
.407
.158
.406
.377
.406
-.182
.407
1.27
.406
1.044
.407
1.207
.406
.12
.406
.603
.407
.478
.406
.202
.407
.094
.406
1.107
.407
.553
.406
.39
.406
.157
.407
.403
.406
.704
.407
.692
.406
-.101
.406
.044
.407
.208
.406
.125
.407
.73
.406
.516
.406
.32
.407
.176
.406
.038
.407
.315
.406
.132
.407
.05
.406
.27
.406
.453
.407
-.352
.406
-.019
.407
-.182
.406
-.271
.406
-.566
.407
-.32
.406
-.258
.407
-.378
.406
-.05
.406
-.176
.407
-.088
.406
-.113
.407
-.554
.406
-.805
.407
-.037
.406
-.365
.406
.189
.407
.006
.406
.717
.407
-.302
.406
-.824
.406
.113
.407
-.44
.406
-.22
.407
-.233
.406
-.239
.406
-.025
.407
-.201
.406
-.151
.407
-.201
.406
-.189
.407
-.409
.406
.007
.406
.61
.407
-.258
.406
.088
.407
.258
.406
.138
.406
.195
.407
.403
.406
-.07
.407
.365
.406
.629
.406
.094
.407
.579
.406
.107
.407
.056
.406
-.012
.406
.44
.407
.572
.406
-.037
.407
.578
.406
-.182
.407
-.202
.406
-.012
.406
-.302
.407
-.34
.406
-.194
.407
.377
.406
.088
.406
.113
.407
.113
.406
-.17
.407
.214
.406
-.503
.406
.113
.407
-.125
.406
-.132
.407
-.548
.406
.07
.407
-.365
.406
-.403
.406
.063
.407
-.981
.406
-.541
.407
-.069
.406
-.509
h.406
l.407
-.006
.406
.239
.407
-.038
.406
.641
.406
.365
.407
-.057
.406
.151
.407
.107
.406
.057
.407
-.78
.406
.126
.406
.163
.407
.315
.406
-.245
.407
.031
.406
-.006
.406
-.051
.407
-.251
.406
-.252
.407
.239
.406
.145
.406
.283
.407
.094
.406
.315
.407
.83
.406
.314
.407
-.339
.406
.32
.406
-.195
.407
.239
.406
-.717
.407
-.515
.406
-.264
.406
-.12
.407
-.478
.406
-.063
.407
.271
.406
.421
.406
.761
.407
.157
.406
-.251
.407
-.214
.406
.402
.406
.346
.407
.308
.406
.132
.407
-.113
.406
.277
.407
.327
.406
.119
.406
.636
.407
.371
.406
-.038
.407
.182
.406
.076
.406
.484
.407
.283
.406
.239
.407
.138
.406
.415
.406
.164
.407
.396
.406
-.164
.407
-.031
.406
-.937
.407
-.673
.406
-.075
.406
.037
.407
-.157
.406
.447
.407
.157
.406
-.239
.406
-.478
.407
-.189
.406
-.308
.407
.277
.406
.402
.406
-.012
.407
-.698
.406
-.315
.407
-.138
.406
-.277
.407
-.157
.406
-.245
.406
-.29
.407
-.679
.406
.145
.407
.101
.406
.125
.406
.434
.407
.082
.406
-.371
.407
.654
.406
.711
.406
.301
.407
.277
.406
.271
.407
.345
.406
.195
.407
.076
.406
.239
.406
.591
.407
.302
.406
.144
.407
.007
.406
-.069
.406
.289
.407
.748
.406
.308
.407
.246
.406
.352
.406
.025
.407
.138
.406
-.698
.407
-.346
.406
-.635
.406
-.126
.407
.221
.406
-.145
.407
-.434
.406
.553
.407
-.125
.406
-.353
.406
-.062
.407
-.447
.406
-.748
.407
-.321
.406
-.138
.406
-.189
.407
-.013
.406
-.496
.407
-.139
.406
-.025
.406
.132
.407
-.534
.406
-.547
.407
-.774
.406
-.22
.407
.006
.406
-.038
.406
.101
.407
.176
.406
.969
.407
1.119
.406
.491
.406
.144
.407
-.314
.406
.1
.407
-.107
.406
.202
.406
.201
.407
.761
.406
.61
.407
-.019
.406
.365
.407
-.145
.406
-.063
.406
.239
h.407
l.406
.289
.407
.202
.406
.188
.406
-.125
.407
.144
.406
.063
.407
.774
.406
-.088
.406
-.214
.407
-.157
.406
.075
.407
.075
.406
.164
.407
.057
.406
-.095
.406
.032
.407
.044
.406
.012
.407
.56
.406
-.069
.406
.031
.407
-.05
.406
-.151
.407
.057
.406
.339
.406
.327
.407
.264
.406
-.012
.407
.006
.406
-.358
.406
.377
.407
-.233
.406
-.056
.407
.383
.406
.17
.407
-.277
.406
-.069
.406
-.283
.407
-.302
.406
-.226
.407
-.371
.406
-.082
.406
-.189
.407
.12
.406
-.145
.407
.227
.406
.327
.406
-.044
.407
-.032
.406
-.019
.407
.189
.406
.17
.407
.056
.406
-.062
.406
-.283
.407
-.12
.406
-.044
.407
.038
.406
.364
.406
-.062
.407
.169
.406
-.257
.407
-.057
.406
.05
.406
-.006
.407
.365
.406
.364
.407
.252
.406
.075
.407
.566
.406
-.402
.406
-.069
.407
.012
.406
-.031
.407
-.478
.406
-.195
.406
-.239
.407
.019
.406
.031
.407
-.427
.406
.17
.406
.352
.407
-.302
.406
-.239
.407
-.208
.406
.12
.407
.126
.406
.239
.406
-.076
h.407
l.406
.327
.407
-.434
.406
-.1
.406
.025
.407
-.139
.406
-.503
.407
-.283
.406
.176
.406
-.308
.407
.378
.406
.069
.407
.082
.406
-.089
.407
.321
.406
-.113
.406
-.138
.407
-1.063
.406
-.403
.407
.082
.406
-.805
.406
-.685
.407
.119
.406
-.22
.407
.296
.406
-.453
.406
-.164
.407
-.478
h.406
l.407
-.421
.406
-.063
.406
.233
.407
-.101
.406
-.094
.407
-.409
.406
.007
.407
.377
.406
-.032
.406
-.39
.407
-.276
.406
-.227
.407
-.478
.406
-.113
.406
-.195
.407
.025
.406
-.238
.407
.974
.406
.208
.406
-.201
.407
.327
.406
-.195
.407
-.233
.406
.786
.407
-.239
.406
.245
.406
.076
.407
-.491
.406
-.201
.407
.214
.406
-.05
.406
-.34
.407
.251
.406
.271
.407
.396
.406
.572
.406
-.383
.407
-.176
.406
.383
.407
.334
.406
.333
.407
.415
.406
-.315
.406
-.056
.407
-.308
.406
.069
.407
-1.038
.406
-.899
.406
-.541
.407
-.333
.406
-.258
.407
-.799
.406
-.333
.406
-.975
.407
-.685
.406
-.547
.407
-.082
.406
-.39
.407
-.893
.406
-.251
.406
-.698
.407
-.403
.406
-.484
.407
-.44
.406
-.139
.406
-.239
.407
-.836
.406
-.145
.407
-.484
.406
-1.723
.406
-.402
.407
-.189
.406
-.428
.407
-.314
.406
.151
.406
.113
.407
.352
.406
.604
.407
.295
.406
.617
.407
.905
.406
-.119
.406
1.157
.407
.773
.406
.158
.407
.685
.406
.057
.406
.509
.407
.34
.406
.786
.407
.352
.406
.333
.406
.17
.407
-.239
.406
.579
.407
1.031
.406
-.076
.407
.07
.406
1.238
.406
-.188
.407
-.025
.406
.471
.407
.44
.406
.189
.406
.403
.407
.547
.406
.364
.407
.076
.406
.113
.406
.264
.407
.164
.406
-.434
.407
-.157
.406
-.12
.407
.182
.406
-.163
.406
.635
.407
-.201
.406
.314
.407
.051
.406
.063
.406
-.045
.407
.221
.406
-.057
.407
-.082
.406
.447
.406
.484
.407
.591
.406
.711
.407
.905
.406
.409
.407
.478
.406
.252
.406
.792
.407
.352
.406
.22
.407
.459
.406
.409
.406
.176
.407
-.308
.406
.17
.407
-.069
.406
.251
.406
-.094
.407
.704
.406
-.371
.407
.006
.406
.088
.406
.007
.407
-.101
.406
.308
.407
.076
.406
.195
.407
-.044
.406
-.019
.406
-.126
.407
-.094
.406
-.026
h.407
l.406
-.257
.406
-.246
.407
-.119
.406
-.145
.407
-.126
.406
-.144
.406
-.063
.407
-.252
.406
-.333
.407
-.094
.406
-.019
.407
-.226
.406
-.743
.406
-.27
.407
.057
.406
.163
.407
-.648
.406
-.012" aria-label="line"/>
</svg>
