<svg class="plot-d6a7b5" fill="currentColor" font-family="system-ui, sans-serif" font-size="10" text-anchor="middle" width="830" height="470" viewBox="0 0 830 470" style="color: dodgerblue;" xmlns="http://www.w3.org/2000/svg" xmlns:xlink="http://www.w3.org/1999/xlink"><style>:where(.plot-d6a7b5) {
  --plot-background: white;
  display: block;
  height: auto;
  height: intrinsic;
  max-width: 100%;
}
:where(.plot-d6a7b5 text),
:where(.plot-d6a7b5 tspan) {
  white-space: pre;
}</style><g aria-label="y-grid" stroke="currentColor" stroke-opacity="0.1"><line x1="60" x2="770" y1="410" y2="410"></line><line x1="60" x2="770" y1="378.55684921661634" y2="378.55684921661634"></line><line x1="60" x2="770" y1="347.11369843323274" y2="347.11369843323274"></line><line x1="60" x2="770" y1="315.6705476498491" y2="315.6705476498491"></line><line x1="60" x2="770" y1="284.2273968664655" y2="284.2273968664655"></line><line x1="60" x2="770" y1="252.7842460830818" y2="252.7842460830818"></line><line x1="60" x2="770" y1="221.34109529969817" y2="221.34109529969817"></line><line x1="60" x2="770" y1="189.8979445163145" y2="189.8979445163145"></line><line x1="60" x2="770" y1="158.45479373293085" y2="158.45479373293085"></line><line x1="60" x2="770" y1="127.01164294954722" y2="127.01164294954722"></line><line x1="60" x2="770" y1="95.56849216616357" y2="95.56849216616357"></line><line x1="60" x2="770" y1="64.12534138277994" y2="64.12534138277994"></line></g><g aria-label="y-axis tick" fill="none" stroke="currentColor"><path transform="translate(60,410)" d="M0,0L-6,0"></path><path transform="translate(60,378.55684921661634)" d="M0,0L-6,0"></path><path transform="translate(60,347.11369843323274)" d="M0,0L-6,0"></path><path transform="translate(60,315.6705476498491)" d="M0,0L-6,0"></path><path transform="translate(60,284.2273968664655)" d="M0,0L-6,0"></path><path transform="translate(60,252.7842460830818)" d="M0,0L-6,0"></path><path transform="translate(60,221.34109529969817)" d="M0,0L-6,0"></path><path transform="translate(60,189.8979445163145)" d="M0,0L-6,0"></path><path transform="translate(60,158.45479373293085)" d="M0,0L-6,0"></path><path transform="translate(60,127.01164294954722)" d="M0,0L-6,0"></path><path transform="translate(60,95.56849216616357)" d="M0,0L-6,0"></path><path transform="translate(60,64.12534138277994)" d="M0,0L-6,0"></path></g><g aria-label="y-axis tick label" text-anchor="end" font-variant="tabular-nums" transform="translate(-9,0)"><text y="0.32em" transform="translate(60,410)">0</text><text y="0.32em" transform="translate(60,378.55684921661634)">5,000</text><text y="0.32em" transform="translate(60,347.11369843323274)">10,000</text><text y="0.32em" transform="translate(60,315.6705476498491)">15,000</text><text y="0.32em" transform="translate(60,284.2273968664655)">20,000</text><text y="0.32em" transform="translate(60,252.7842460830818)">25,000</text><text y="0.32em" transform="translate(60,221.34109529969817)">30,000</text><text y="0.32em" transform="translate(60,189.8979445163145)">35,000</text><text y="0.32em" transform="translate(60,158.45479373293085)">40,000</text><text y="0.32em" transform="translate(60,127.01164294954722)">45,000</text><text y="0.32em" transform="translate(60,95.56849216616357)">50,000</text><text y="0.32em" transform="translate(60,64.12534138277994)">55,000</text></g><g aria-label="y-axis label" text-anchor="start" transform="translate(-57,-57)"><text y="0.71em" transform="translate(60,60)">↑ Visible Vestiges (30 days)</text></g><g aria-label="x-axis tick" fill="none" stroke="currentColor"><path transform="translate(99.87885462555064,410)" d="M0,0L0,6"></path><path transform="translate(206.613436123348,410)" d="M0,0L0,6"></path><path transform="translate(314.5209251101321,410)" d="M0,0L0,6"></path><path transform="translate(422.4284140969163,410)" d="M0,0L0,6"></path><path transform="translate(529.1629955947137,410)" d="M0,0L0,6"></path><path transform="translate(635.897577092511,410)" d="M0,0L0,6"></path><path transform="translate(743.8050660792952,410)" d="M0,0L0,6"></path></g><g aria-label="x-axis tick label" font-variant="tabular-nums" transform="translate(0,9)"><text transform="translate(99.87885462555064,410)"><tspan x="0" y="0.71em">Apr</tspan><tspan x="0" dy="1em">2023</tspan></text><text y="0.71em" transform="translate(206.613436123348,410)">Jul</text><text y="0.71em" transform="translate(314.5209251101321,410)">Oct</text><text transform="translate(422.4284140969163,410)"><tspan x="0" y="0.71em">Jan</tspan><tspan x="0" dy="1em">2024</tspan></text><text y="0.71em" transform="translate(529.1629955947137,410)">Apr</text><text y="0.71em" transform="translate(635.897577092511,410)">Jul</text><text y="0.71em" transform="translate(743.8050660792952,410)">Oct</text></g><g aria-label="line" fill="none" stroke="currentColor" stroke-width="1.5" stroke-linejoin="round" stroke-linecap="round"><path d="M60,410L60.782,406.843L61.564,395.297L62.346,389.071L63.128,384.657L63.91,377.375L64.692,371.639L65.474,366.263L66.256,355.383L67.037,346.774L67.819,336.555L68.601,320.727L69.383,305.804L70.165,298.056L70.947,286.843L71.729,279.228L72.511,270.499L73.293,259.085L74.075,251.401L74.857,243.867L75.639,233.642L76.421,222.303L77.203,214.273L77.985,200.57L78.767,194.08L79.548,188.024L80.33,177.101L81.112,166.643L81.894,158.593L82.676,147.374L83.458,139.344L84.24,140.702L85.022,131.137L85.804,123.025L86.586,123.05L87.368,121.226L88.15,120.912L88.932,127.194L89.714,127.276L90.496,129.156L91.278,139.168L92.059,140.639L92.841,134.325L93.623,132.936L94.405,125.282L95.187,123.66L95.969,126.257L96.751,121.93L97.533,119.415L98.315,122.364L99.097,120.597L99.879,115.956L100.661,117.837L101.443,107.379L102.225,97.342L103.007,99.895L103.789,97.933L104.57,94.776L105.352,95.952L106.134,92.921L106.916,89.752L107.698,93.94L108.48,92.519L109.262,86.406L110.044,82.45L110.826,72.653L111.608,67.722L112.39,67.653L113.172,64L113.954,60L114.736,66.113L115.518,70.716L116.3,73.112L117.081,78.866L117.863,76.734L118.645,73.181L119.427,78.143L120.209,78.407L120.991,78.042L121.773,86.123L122.555,91.016L123.337,95.097L124.119,103.825L124.901,109.278L125.683,106.831L126.465,110.806L127.247,110.315L128.029,112.145L128.811,121L129.593,122.037L130.374,125.125L131.156,134.464L131.938,140.117L132.72,144.192L133.502,151.933L134.284,150.82L135.066,150.16L135.848,154.179L136.63,157.065L137.412,158.254L138.194,161.825L138.976,162.373L139.758,166.385L140.54,173.277L141.322,176.572L142.104,173.334L142.885,175.05L143.667,172.315L144.449,170.347L145.231,171.629L146.013,169.957L146.795,171.736L147.577,176.245L148.359,178.874L149.141,180.918L149.923,184.88L150.705,184.898L151.487,182.823L152.269,188.98L153.051,191.036L153.833,190.005L154.615,192.407L155.396,192.363L156.178,194.413L156.96,199.916L157.742,200.696L158.524,197.652L159.306,196.545L160.088,192.237L160.87,191.866L161.652,194.35L162.434,192.445L163.216,191.269L163.998,195.589L164.78,196.451L165.562,197.117L166.344,199.714L167.126,195.413L167.907,193.596L168.689,195.74L169.471,194.753L170.253,192.778L171.035,194.69L171.817,194.948L172.599,194.558L173.381,197.96L174.163,199.035L174.945,199.457L175.727,200.519L176.509,198.557L177.291,198.381L178.073,200.142L178.855,198.174L179.637,197.834L180.419,201.249L181.2,206.789L181.982,208.374L182.764,212.77L183.546,212.701L184.328,213.015L185.11,215.04L185.892,215.216L186.674,214.43L187.456,218.348L188.238,218.109L189.02,219.53L189.802,225.806L190.584,227.529L191.366,228.535L192.148,231.434L192.93,231.761L193.711,232.101L194.493,232.126L195.275,233.453L196.057,232.459L196.839,235.384L197.621,234.818L198.403,235.069L199.185,236.547L199.967,234.755L200.749,234.711L201.531,236.025L202.313,234.516L203.095,233.214L203.877,233.107L204.659,230.453L205.441,229.114L206.222,231.177L207.004,231.227L207.786,230.541L208.568,233.484L209.35,232.56L210.132,233.893L210.914,236.572L211.696,236.899L212.478,236.295L213.26,238.44L214.042,237.673L214.824,237.05L215.606,240.169L216.388,239.566L217.17,239.805L217.952,241.974L218.733,240.666L219.515,239.591L220.297,240.767L221.079,239.402L221.861,240.238L222.643,241.515L223.425,240.408L224.207,240.742L224.989,242.609L225.771,243.1L226.553,241.779L227.335,245.483L228.117,247.816L228.899,246.722L229.681,249.451L230.463,248.527L231.244,247.797L232.026,249.313L232.808,247.275L233.59,247.288L234.372,247.307L235.154,244.93L235.936,243.345L236.718,246.823L237.5,243.798L238.282,242.446L239.064,243.641L239.846,242.056L240.628,241.641L241.41,243.32L242.192,241.59L242.974,240.389L243.756,241.433L244.537,238.635L245.319,238.415L246.101,239.805L246.883,239.176L247.665,236.975L248.447,235.365L249.229,231.258L250.011,229.938L250.793,229.938L251.575,228.435L252.357,227.001L253.139,229.994L253.921,228.139L254.703,227.592L255.485,229.957L256.267,228.63L257.048,228.925L257.83,232.78L258.612,232.176L259.394,229.529L260.176,232.988L260.958,232.793L261.74,230.378L262.522,231.296L263.304,228.177L264.086,227.812L264.868,228.472L265.65,226.542L266.432,225.806L267.214,228.139L267.996,227.454L268.778,227.215L269.559,230.032L270.341,231.818L271.123,235.126L271.905,241.546L272.687,242.71L273.469,242.194L274.251,243.892L275.033,244.244L275.815,242.917L276.597,244.634L277.379,245.118L278.161,244.005L278.943,246.087L279.725,246.961L280.507,246.118L281.289,247.37L282.07,247.118L282.852,247.231L283.634,248.464L284.416,251.011L285.198,253.734L285.98,257.796L286.762,259.299L287.544,262.268L288.326,267.324L289.108,266.204L289.89,266.89L290.672,269.047L291.454,268.323L292.236,269.455L293.018,271.38L293.8,272.153L294.581,274.027L295.363,275.48L296.145,276.876L296.927,277.234L297.709,277.354L298.491,274.631L299.273,272.317L300.055,273.662L300.837,273.681L301.619,274.474L302.401,275.216L303.183,275.48L303.965,276.624L304.747,279.706L305.529,279.14L306.311,278.436L307.093,279.448L307.874,277.555L308.656,278.75L309.438,280.165L310.22,278.958L311.002,278.555L311.784,282.662L312.566,282.504L313.348,282.9L314.13,284.894L314.912,281.574L315.694,280.674L316.476,281.687L317.258,279.97L318.04,280.813L318.822,282.07L319.604,283.177L320.385,284.592L321.167,288.466L321.949,289.805L322.731,287.598L323.513,286.649L324.295,283.919L325.077,283.599L325.859,284.951L326.641,285.007L327.423,284.881L328.205,286.271L328.987,286.869L329.769,287.661L330.551,290.183L331.333,285.982L332.115,282.768L332.896,282.85L333.678,282.599L334.46,283.039L335.242,286.076L336.024,285.812L336.806,287.202L337.588,290.17L338.37,288.749L339.152,284.756L339.934,284.397L340.716,281.165L341.498,280.655L342.28,281.196L343.062,279.398L343.844,280.064L344.626,282.215L345.407,283.334L346.189,284.158L346.971,287.045L347.753,286.089L348.535,286.007L349.317,287.963L350.099,286.68L350.881,287.252L351.663,290.384L352.445,290.849L353.227,291.038L354.009,293.107L354.791,293.245L355.573,291.019L356.355,290.906L357.137,289.755L357.919,289.661L358.7,290.843L359.482,289.868L360.264,290.692L361.046,294.295L361.828,296.691L362.61,299.05L363.392,302.188L364.174,301.955L364.956,301.817L365.738,305.099L366.52,305.653L367.302,307.376L368.084,309.916L368.866,311.985L369.648,313.205L370.43,317.224L371.211,315.954L371.993,313.539L372.775,313.778L373.557,312.463L374.339,310.954L375.121,311.753L375.903,311.269L376.685,314.142L377.467,317.041L378.249,318.576L379.031,318.941L379.813,319.695L380.595,317.243L381.377,317.318L382.159,318.098L382.941,316.488L383.722,315.664L384.504,316.079L385.286,313.243L386.068,313.47L386.85,314.199L387.632,314.413L388.414,313.004L389.196,312.457L389.978,310.212L390.76,310.193L391.542,311.803L392.324,310.52L393.106,309.112L393.888,311.696L394.67,313.759L395.452,315.853L396.233,318.456L397.015,318.89L397.797,318.261L398.579,320.192L399.361,318.777L400.143,318.431L400.925,321.399L401.707,322.89L402.489,324.393L403.271,327.286L404.053,327.141L404.835,326.877L405.617,328.147L406.399,328.896L407.181,329.996L407.963,332.159L408.744,332.857L409.526,334.04L410.308,335.04L411.09,335.14L411.872,336.486L412.654,337.725L413.436,335.574L414.218,333.423L415,334.914L415.782,334.838L416.564,333.285L417.346,332.939L418.128,331.612L418.91,330.663L419.692,330.468L420.474,329.462L421.256,328.103L422.037,328.946L422.819,328.858L423.601,327.355L424.383,326.764L425.165,324.185L425.947,323.487L426.729,325.028L427.511,324.443L428.293,325.556L429.075,325.475L429.857,323.928L430.639,324.953L431.421,324.971L432.203,323.72L432.985,323.978L433.767,325.563L434.548,325.833L435.33,327.078L436.112,328.889L436.894,328.921L437.676,327.499L438.458,326.393L439.24,325.374L440.022,326.141L440.804,327.361L441.586,327.757L442.368,327.562L443.15,327.537L443.932,327.606L444.714,328.286L445.496,328.411L446.278,327.361L447.059,324.449L447.841,325.204L448.623,323.462L449.405,322.959L450.187,324.795L450.969,323.198L451.751,324.374L452.533,326.468L453.315,323.689L454.097,320.764L454.879,319.865L455.661,316.243L456.443,315.086L457.225,314.4L458.007,312.677L458.789,312.206L459.57,313.124L460.352,312.287L461.134,313.809L461.916,314.463L462.698,310.577L463.48,308.891L464.262,308.3L465.044,307.168L465.826,307.948L466.608,308.583L467.39,305.967L468.172,305.552L468.954,305.376L469.736,306.866L470.518,305.54L471.3,303.401L472.081,298.892L472.863,297.358L473.645,296.446L474.427,291.975L475.209,289.969L475.991,291.893L476.773,293.447L477.555,294.151L478.337,296.371L479.119,294.22L479.901,292.264L480.683,293.497L481.465,292.503L482.247,291.635L483.029,291.717L483.811,290.214L484.593,291.918L485.374,294.503L486.156,293.579L486.938,291.874L487.72,293.239L488.502,291.384L489.284,291.151L490.066,292.692L490.848,292.918L491.63,294.811L492.412,296.214L493.194,297.408L493.976,300.949L494.758,305.024L495.54,303.445L496.322,304.401L497.104,307.615L497.885,309.244L498.667,310.03L499.449,310.96L500.231,311.501L501.013,313.092L501.795,316.237L502.577,316.425L503.359,315.57L504.141,317.538L504.923,316.947L505.705,318.111L506.487,320.846L507.269,320.771L508.051,320.984L508.833,323.72L509.615,325.179L510.396,324.764L511.178,326.21L511.96,323.349L512.742,322.802L513.524,323.965L514.306,325.846L515.088,328.525L515.87,332.122L516.652,334.97L517.434,337.832L518.216,343.158L518.998,346.101L519.78,348.384L520.562,350.472L521.344,352.49L522.126,355.006L522.907,357.113L523.689,358.358L524.471,359.886L525.253,363.244L526.035,364.653L526.817,363.414L527.599,365.225L528.381,365.961L529.163,365.269L529.945,365.898L530.727,367.08L531.509,366.885L532.291,367.841L533.073,368.652L533.855,369.193L534.637,371.941L535.419,372.507L536.2,372.507L536.982,371.117L537.764,368.545L538.546,365.759L539.328,364.571L540.11,362.785L540.892,360.131L541.674,358.666L542.456,357.352L543.238,355.188L544.02,353.427L544.802,351.006L545.584,349.246L546.366,348.252L547.148,346.655L547.93,345.806L548.711,345.391L549.493,347.504L550.275,348.252L551.057,349.459L551.839,349.755L552.621,349.868L553.403,349.793L554.185,349.396L554.967,349.837L555.749,351.384L556.531,351.623L557.313,352.163L558.095,353.446L558.877,353.905L559.659,353.056L560.441,353.843L561.222,354.094L562.004,353.566L562.786,354.05L563.568,354.698L564.35,353.937L565.132,353.151L565.914,353.975L566.696,353.736L567.478,354.679L568.26,354.717L569.042,352.855L569.824,352.522L570.606,351.22L571.388,351.22L572.17,350.881L572.952,350.239L573.733,349.007L574.515,348.812L575.297,348.101L576.079,347.522L576.861,348.843L577.643,347.705L578.425,346.246L579.207,346.711L579.989,345.56L580.771,345.567L581.553,346.07L582.335,347.617L583.117,347.906L583.899,348.51L584.681,348.132L585.463,345.001L586.244,344.844L587.026,343.743L587.808,344.529L588.59,344.535L589.372,344.755L590.154,343.737L590.936,345.057L591.718,346.227L592.5,346.372L593.282,347.441L594.064,346.019L594.846,343.655L595.628,343.756L596.41,342.46L597.192,342.668L597.974,342.951L598.756,341.85L599.537,340.756L600.319,341.9L601.101,341.517L601.883,340.404L602.665,341.794L603.447,339.548L604.229,339.115L605.011,338.385L605.793,337.266L606.575,336.467L607.357,336.719L608.139,338.09L608.921,337.882L609.703,338.737L610.485,336.605L611.267,334.442L612.048,333.681L612.83,333.952L613.612,331.505L614.394,331.537L615.176,331.719L615.958,331.883L616.74,332.329L617.522,333.901L618.304,333.449L619.086,334.568L619.868,333.706L620.65,333.084L621.432,336.065L622.214,337.586L622.996,337.549L623.778,339.102L624.559,338.75L625.341,338.398L626.123,340.97L626.905,340.825L627.687,338.417L628.469,339.63L629.251,340.24L630.033,339.215L630.815,340.14L631.597,341.139L632.379,341.781L633.161,344.334L633.943,346.441L634.725,347.277L635.507,347.938L636.289,347.887L637.07,347.516L637.852,347.982L638.634,346.856L639.416,347.378L640.198,347.504L640.98,348.34L641.762,348.975L642.544,350.17L643.326,350.793L644.108,349.264L644.89,349.497L645.672,350.032L646.454,350.032L647.236,352.258L648.018,352.692L648.8,352.163L649.581,351.931L650.363,353.786L651.145,353.912L651.927,354.654L652.709,355.283L653.491,355.459L654.273,355.622L655.055,355.251L655.837,354.333L656.619,354.283L657.401,354.138L658.183,353.975L658.965,355.213L659.747,354.591L660.529,352.069L661.311,352.503L662.093,351.918L662.874,352.226L663.656,352.038L664.438,351.164L665.22,350.635L666.002,351.365L666.784,352.031L667.566,351.302L668.348,350.761L669.13,350.201L669.912,348.68L670.694,348.258L671.476,346.894L672.258,345.913L673.04,345.032L673.822,343.045L674.604,341.511L675.385,340.404L676.167,338.781L676.949,338.215L677.731,338.083L678.513,335.844L679.295,335.241L680.077,335.178L680.859,334.43L681.641,334.7L682.423,336.744L683.205,335.071L683.987,332.618L684.769,330.361L685.551,326.864L686.333,324.349L687.115,323.751L687.896,320.639L688.678,316.884L689.46,315.425L690.242,314.205L691.024,312.545L691.806,311.306L692.588,310.558L693.37,308.583L694.152,309.275L694.934,310.809L695.716,311.048L696.498,312.639L697.28,313.753L698.062,314.727L698.844,316.086L699.626,315.268L700.407,314.476L701.189,315.62L701.971,315.425L702.753,314.991L703.535,315.62L704.317,315.639L705.099,315.3L705.881,320.142L706.663,324.041L707.445,327.613L708.227,331.298L709.009,334.461L709.791,335.681L710.573,339.278L711.355,342.907L712.137,344.73L712.919,346.057L713.7,348.321L714.482,349.22L715.264,351.17L716.046,353.346L716.828,354.566L717.61,354.037L718.392,354.798L719.174,354.509L719.956,354.792L720.738,355.314L721.52,356.188L722.302,357.251L723.084,359.402L723.866,361.313L724.648,362.364L725.43,363.678L726.211,363.829L726.993,364.106L727.775,364.011L728.557,363.571L729.339,363.005L730.121,362.948L730.903,362.716L731.685,362.659L732.467,362.37L733.249,360.691L734.031,359.364L734.813,356.748L735.595,356.698L736.377,356.1L737.159,356.49L737.941,356.974L738.722,356.767L739.504,356.132L740.286,356.207L741.068,355.704L741.85,352.799L742.632,352.17L743.414,352.635L744.196,350.994L744.978,350.761L745.76,350.811L746.542,350.069L747.324,349.786L748.106,349.623L748.888,349.321L749.67,348.315L750.452,347.139L751.233,344.875L752.015,345.158L752.797,345.409L753.579,345.548L754.361,345.202L755.143,346.504L755.925,348.39L756.707,349.629L757.489,352.767L758.271,352.968L759.053,353.56L759.835,354.585L760.617,354.585L761.399,355.943L762.181,356.823L762.963,357.138L763.744,358.402L764.526,362.181L765.308,362.005L766.09,361.571L766.872,362.942L767.654,362.313L768.436,362.603L769.218,363.716L770,363.785"></path></g></svg> 
 
