<svg class="plot-d6a7b5" fill="currentColor" font-family="system-ui, sans-serif" font-size="10" text-anchor="middle" width="830" height="470" viewBox="0 0 830 470" style="color: dodgerblue;" xmlns="http://www.w3.org/2000/svg" xmlns:xlink="http://www.w3.org/1999/xlink"><style>:where(.plot-d6a7b5) {
  --plot-background: white;
  display: block;
  height: auto;
  height: intrinsic;
  max-width: 100%;
}
:where(.plot-d6a7b5 text),
:where(.plot-d6a7b5 tspan) {
  white-space: pre;
}</style><g aria-label="y-grid" stroke="currentColor" stroke-opacity="0.1"><line x1="60" x2="770" y1="410" y2="410"></line><line x1="60" x2="770" y1="360.9391645640594" y2="360.9391645640594"></line><line x1="60" x2="770" y1="311.8783291281189" y2="311.8783291281189"></line><line x1="60" x2="770" y1="262.8174936921783" y2="262.8174936921783"></line><line x1="60" x2="770" y1="213.7566582562377" y2="213.7566582562377"></line><line x1="60" x2="770" y1="164.69582282029717" y2="164.69582282029717"></line><line x1="60" x2="770" y1="115.6349873843566" y2="115.6349873843566"></line><line x1="60" x2="770" y1="66.57415194841604" y2="66.57415194841604"></line></g><g aria-label="y-axis tick" fill="none" stroke="currentColor"><path transform="translate(60,410)" d="M0,0L-6,0"></path><path transform="translate(60,360.9391645640594)" d="M0,0L-6,0"></path><path transform="translate(60,311.8783291281189)" d="M0,0L-6,0"></path><path transform="translate(60,262.8174936921783)" d="M0,0L-6,0"></path><path transform="translate(60,213.7566582562377)" d="M0,0L-6,0"></path><path transform="translate(60,164.69582282029717)" d="M0,0L-6,0"></path><path transform="translate(60,115.6349873843566)" d="M0,0L-6,0"></path><path transform="translate(60,66.57415194841604)" d="M0,0L-6,0"></path></g><g aria-label="y-axis tick label" text-anchor="end" font-variant="tabular-nums" transform="translate(-9,0)"><text y="0.32em" transform="translate(60,410)">0</text><text y="0.32em" transform="translate(60,360.9391645640594)">1,000</text><text y="0.32em" transform="translate(60,311.8783291281189)">2,000</text><text y="0.32em" transform="translate(60,262.8174936921783)">3,000</text><text y="0.32em" transform="translate(60,213.7566582562377)">4,000</text><text y="0.32em" transform="translate(60,164.69582282029717)">5,000</text><text y="0.32em" transform="translate(60,115.6349873843566)">6,000</text><text y="0.32em" transform="translate(60,66.57415194841604)">7,000</text></g><g aria-label="y-axis label" text-anchor="start" transform="translate(-57,-57)"><text y="0.71em" transform="translate(60,60)">↑ Visible Vestiges (4 days)</text></g><g aria-label="x-axis tick" fill="none" stroke="currentColor"><path transform="translate(98.52127659574468,410)" d="M0,0L0,6"></path><path transform="translate(201.62234042553192,410)" d="M0,0L0,6"></path><path transform="translate(305.8563829787234,410)" d="M0,0L0,6"></path><path transform="translate(410.0904255319149,410)" d="M0,0L0,6"></path><path transform="translate(513.1914893617021,410)" d="M0,0L0,6"></path><path transform="translate(616.2925531914894,410)" d="M0,0L0,6"></path><path transform="translate(720.5265957446808,410)" d="M0,0L0,6"></path></g><g aria-label="x-axis tick label" font-variant="tabular-nums" transform="translate(0,9)"><text transform="translate(98.52127659574468,410)"><tspan x="0" y="0.71em">Apr</tspan><tspan x="0" dy="1em">2023</tspan></text><text y="0.71em" transform="translate(201.62234042553192,410)">Jul</text><text y="0.71em" transform="translate(305.8563829787234,410)">Oct</text><text transform="translate(410.0904255319149,410)"><tspan x="0" y="0.71em">Jan</tspan><tspan x="0" dy="1em">2024</tspan></text><text y="0.71em" transform="translate(513.1914893617021,410)">Apr</text><text y="0.71em" transform="translate(616.2925531914894,410)">Jul</text><text y="0.71em" transform="translate(720.5265957446808,410)">Oct</text></g><g aria-label="line" fill="none" stroke="currentColor" stroke-width="1.5" stroke-linejoin="round" stroke-linecap="round"><path d="M60,410L60.755,385.371L61.511,295.296L62.266,246.726L63.021,236.913L63.777,270.177L64.532,274.003L65.287,266.497L66.043,238.434L66.798,216.013L67.553,178.237L68.309,139.626L69.064,90.369L69.819,109.65L70.574,145.66L71.33,202.669L72.085,195.015L72.84,193.445L73.596,192.906L74.351,202.227L75.106,211.5L75.862,182.996L76.617,179.12L77.372,151.989L78.128,189.815L78.883,205.22L79.638,226.905L80.394,195.948L81.149,180.395L81.904,178.089L82.66,172.398L83.415,155.718L84.17,120.05L84.926,109.601L85.681,132.463L86.436,196.683L87.191,250.013L87.947,270.765L88.702,263.21L89.457,242.555L90.213,233.038L90.968,194.623L91.723,149.978L92.479,97.041L93.234,82.862L93.989,111.808L94.745,141.343L95.5,166.756L96.255,169.111L97.011,181.131L97.766,172.595L98.521,152.136L99.277,116.665L100.032,86.689L100.787,60L101.543,86.934L102.298,122.258L103.053,160.378L103.809,147.328L104.564,133.297L105.319,116.518L106.074,104.351L106.83,106.461L107.585,106.362L108.34,107.049L109.096,95.029L109.851,125.006L110.606,147.77L111.362,175.048L112.117,172.791L112.872,182.603L113.628,202.375L114.383,199.333L115.138,182.358L115.894,158.759L116.649,141.883L117.404,161.114L118.16,182.161L118.915,219.055L119.67,234.853L120.426,250.503L121.181,249.718L121.936,224.795L122.691,202.473L123.447,178.482L124.202,176.716L124.957,168.474L125.713,188.785L126.468,212.825L127.223,207.967L127.979,205.613L128.734,211.5L129.489,247.412L130.245,255.802L131,231.32L131.755,208.507L132.511,194.329L133.266,192.562L134.021,221.508L134.777,245.744L135.532,262.033L136.287,240.74L137.043,245.793L137.798,248.099L138.553,252.662L139.309,215.327L140.064,195.997L140.819,185.841L141.574,211.549L142.33,223.814L143.085,231.32L143.84,235.638L144.596,238.483L145.351,248.05L146.106,248.345L146.862,235.834L147.617,235.785L148.372,227.69L149.128,239.955L149.883,253.496L150.638,267.527L151.394,274.151L152.149,266.154L152.904,265.712L153.66,267.086L154.415,259.334L155.17,217.829L155.926,195.212L156.681,179.757L157.436,216.897L158.191,223.618L158.947,247.412L159.702,243.438L160.457,262.327L161.213,246.578L161.968,241.623L162.723,218.025L163.479,203.454L164.234,196.34L164.989,200.314L165.745,230.486L166.5,232.105L167.255,239.857L168.011,249.865L168.766,249.718L169.521,261.297L170.277,259.579L171.032,278.174L171.787,273.464L172.543,263.799L173.298,265.761L174.053,263.21L174.809,262.719L175.564,262.817L176.319,267.969L177.074,285.042L177.83,277.438L178.585,269.637L179.34,263.014L180.096,259.825L180.851,265.123L181.606,263.063L182.362,273.366L183.117,272.384L183.872,264.191L184.628,257.813L185.383,261.64L186.138,269.833L186.894,270.569L187.649,274.396L188.404,265.123L189.16,267.675L189.915,255.262L190.67,262.916L191.426,264.093L192.181,284.993L192.936,288.82L193.691,293.824L194.447,272.875L195.202,265.271L195.957,260.414L196.713,258.647L197.468,260.953L198.223,256.292L198.979,262.278L199.734,245.744L200.489,237.649L201.245,247.952L202,265.859L202.755,276.26L203.511,281.068L204.266,283.766L205.021,298.534L205.777,288.28L206.532,291.665L207.287,280.381L208.043,284.404L208.798,276.604L209.553,280.283L210.309,278.615L211.064,282.442L211.819,276.751L212.574,276.996L213.33,272.679L214.085,283.325L214.84,279.4L215.596,283.963L216.351,277.928L217.106,271.109L217.862,268.263L218.617,262.572L219.372,269.49L220.128,277.29L220.883,270.373L221.638,268.165L222.394,274.445L223.149,286.514L223.904,296.817L224.66,281.804L225.415,289.458L226.17,282.687L226.926,288.771L227.681,284.306L228.436,276.015L229.191,262.082L229.947,253.643L230.702,272.826L231.457,271.452L232.213,271.599L232.968,257.617L233.723,263.161L234.479,270.716L235.234,270.177L235.989,279.694L236.745,269.637L237.5,269.244L238.255,254.87L239.011,255.704L239.766,255.556L240.521,266.791L241.277,258.255L242.032,242.653L242.787,208.605L243.543,213.266L244.298,232.105L245.053,264.486L245.809,273.905L246.564,282.246L247.319,287.152L248.074,287.299L248.83,288.476L249.585,288.133L250.34,286.416L251.096,284.11L251.851,281.313L252.606,277.536L253.362,273.071L254.117,276.407L254.872,264.24L255.628,249.964L256.383,234.706L257.138,250.16L257.894,257.666L258.649,256.881L259.404,253.594L260.16,252.269L260.915,262.817L261.67,266.546L262.426,281.559L263.181,292.303L263.936,304.372L264.691,298.436L265.447,298.239L266.202,287.25L266.957,282.785L267.713,285.876L268.468,287.888L269.223,292.941L269.979,294.118L270.734,296.964L271.489,299.466L272.245,300.791L273,300.594L273.755,291.322L274.511,278.762L275.266,281.755L276.021,284.944L276.777,294.609L277.532,300.692L278.287,307.512L279.043,314.822L279.798,324.242L280.553,331.208L281.309,307.463L282.064,288.329L282.819,276.26L283.574,283.08L284.33,301.576L285.085,310.505L285.84,334.25L286.596,334.103L287.351,330.227L288.106,324.094L288.862,307.806L289.617,300.496L290.372,270.373L291.128,254.575L291.883,265.32L292.638,289.556L293.394,316.294L294.149,312.909L294.904,314.626L295.66,308.101L296.415,313.792L297.17,310.308L297.926,299.073L298.681,292.597L299.436,288.329L300.191,309.965L300.947,320.415L301.702,335.182L302.457,329.687L303.213,326.94L303.968,315.999L304.723,310.161L305.479,300.496L306.234,294.315L306.989,293.137L307.745,309.229L308.5,321.592L309.255,331.306L310.011,327.087L310.766,332.827L311.521,329.982L312.277,320.268L313.032,306.285L313.787,288.771L314.543,275.377L315.298,270.373L316.053,281.706L316.809,301.379L317.564,316.588L318.319,323.8L319.074,320.611L319.83,313.595L320.585,314.282L321.34,318.845L322.096,303.047L322.851,282.246L323.606,277.977L324.362,303.293L325.117,329.05L325.872,341.168L326.628,335.231L327.383,332.974L328.138,326.253L328.894,316.049L329.649,290.144L330.404,276.555L331.16,272.139L331.915,295.1L332.67,307.855L333.426,316.196L334.181,315.656L334.936,314.233L335.691,319.483L336.447,307.316L337.202,308.052L337.957,303.195L338.713,315.803L339.468,323.751L340.223,328.412L340.979,330.325L341.734,332.484L342.489,346.81L343.245,348.38L344,324.291L344.755,300.938L345.511,277.83L346.266,286.121L347.021,301.821L347.777,330.571L348.532,334.741L349.287,333.858L350.043,334.299L350.798,342.983L351.553,343.375L352.309,341.756L353.064,333.71L353.819,336.163L354.574,329.442L355.33,338.911L356.085,344.504L356.84,357.603L357.596,357.063L358.351,356.72L359.106,353.531L359.862,360.203L360.617,346.761L361.372,326.351L362.128,301.526L362.883,303.096L363.638,312.32L364.394,331.012L365.149,339.058L365.904,349.165L366.66,342.198L367.415,334.839L368.17,323.555L368.926,322.525L369.681,320.17L370.436,322.083L371.191,321.396L371.947,328.412L372.702,330.08L373.457,327.627L374.213,316.441L374.968,316.588L375.723,321.494L376.479,338.567L377.234,335.28L377.989,330.914L378.745,324.83L379.5,335.133L380.255,351.618L381.011,355.935L381.766,351.765L382.521,345.927L383.277,351.618L384.032,354.12L384.787,355.837L385.543,352.354L386.298,349.802L387.053,352.599L387.809,348.281L388.564,343.523L389.319,344.258L390.074,355.641L390.83,369.034L391.585,366.091L392.34,355.248L393.096,340.775L393.851,335.133L394.606,343.768L395.362,351.961L396.117,347.742L396.872,347.496L397.628,353.04L398.383,361.037L399.138,353.089L399.894,349.999L400.649,345.779L401.404,338.518L402.16,327.725L402.915,334.005L403.67,346.025L404.426,344.847L405.181,336.213L405.936,328.951L406.691,335.378L407.447,333.073L408.202,333.024L408.957,332.631L409.713,336.409L410.468,338.813L411.223,338.42L411.979,338.616L412.734,332.582L413.489,335.918L414.245,341.707L415,342.787L415.755,351.274L416.511,347.251L417.266,347.938L418.021,343.032L418.777,343.572L419.532,351.421L420.287,353.433L421.043,357.701L421.798,366.483L422.553,369.966L423.309,364.472L424.064,351.814L424.819,337.292L425.574,326.548L426.33,317.177L427.085,325.615L427.84,336.507L428.596,353.973L429.351,344.16L430.106,334.397L430.862,331.454L431.617,342.051L432.372,345.632L433.128,336.507L433.883,308.689L434.638,307.561L435.394,305.5L436.149,330.08L436.904,339.598L437.66,349.214L438.415,358.29L439.17,360.988L439.926,346.859L440.681,315.411L441.436,299.907L442.191,295.345L442.947,313.399L443.702,323.849L444.457,342.149L445.213,342.002L445.968,341.854L446.723,334.25L447.479,339.058L448.234,327.627L448.989,312.271L449.745,298.141L450.5,305.893L451.255,317.569L452.011,327.038L452.766,333.661L453.521,332.68L454.277,326.94L455.032,311.486L455.787,315.705L456.543,307.463L457.298,290.095L458.053,267.871L458.809,275.77L459.564,294.952L460.319,304.323L461.074,303.342L461.83,311.339L462.585,326.891L463.34,332.533L464.096,330.276L464.851,319.434L465.606,309.131L466.362,319.728L467.117,328.608L467.872,336.948L468.628,320.366L469.383,321.2L470.138,329.835L470.894,334.005L471.649,324.389L472.404,305.549L473.16,307.708L473.915,309.916L474.67,328.019L475.426,328.412L476.181,338.911L476.936,340.039L477.691,343.179L478.447,342.492L479.202,337.979L479.957,336.605L480.713,322.868L481.468,321.887L482.223,324.536L482.979,348.576L483.734,355.248L484.489,352.991L485.245,350.146L486,354.169L486.755,360.596L487.511,347.546L488.266,339.058L489.021,338.764L489.777,341.02L490.532,340.186L491.287,347.006L492.043,359.664L492.798,356.426L493.553,346.81L494.309,339.941L495.064,337.194L495.819,329.344L496.574,313.743L497.33,313.105L498.085,321.396L498.84,359.516L499.596,387.825L500.351,406.124L501.106,409.166L501.862,409.215L502.617,408.97L503.372,408.724L504.128,406.86L504.883,405.634L505.638,405.094L506.394,404.652L507.149,401.954L507.904,399.943L508.66,398.667L509.415,395.38L510.17,388.168L510.926,366.287L511.681,356.475L512.436,350.391L513.191,361.479L513.947,364.913L514.702,365.158L515.457,359.418L516.213,355.101L516.968,349.459L517.723,347.349L518.479,345.73L519.234,343.179L519.989,347.251L520.745,353.089L521.5,356.916L522.255,353.482L523.011,358.094L523.766,364.275L524.521,365.06L525.277,362.656L526.032,364.472L526.787,367.072L527.543,364.226L528.298,355.15L529.053,355.592L529.809,359.565L530.564,364.717L531.319,368.544L532.074,365.845L532.83,372.91L533.585,375.559L534.34,382.133L535.096,379.043L535.851,377.522L536.606,367.759L537.362,356.622L538.117,354.856L538.872,361.871L539.628,364.717L540.383,363.883L541.138,359.271L541.894,365.06L542.649,360.056L543.404,360.007L544.16,354.954L544.915,362.068L545.67,365.894L546.426,369.77L547.181,365.551L547.936,357.456L548.691,361.43L549.447,362.656L550.202,367.072L550.957,361.381L551.713,352.697L552.468,347.889L553.223,341.266L553.979,353.089L554.734,360.105L555.489,367.906L556.245,364.864L557,362.902L557.755,360.841L558.511,356.18L559.266,356.867L560.021,351.765L560.777,351.912L561.532,348.085L562.287,347.153L563.043,353.973L563.798,360.056L564.553,376.099L565.309,378.258L566.064,373.989L566.819,366.091L567.574,343.228L568.33,341.168L569.085,331.306L569.84,353.776L570.596,359.026L571.351,370.555L572.106,360.89L572.862,365.453L573.617,364.177L574.372,368.445L575.128,359.86L575.883,351.47L576.638,338.911L577.394,339.156L578.149,337.096L578.904,355.199L579.66,354.561L580.415,351.421L581.17,341.953L581.926,343.572L582.681,349.312L583.436,345.338L584.191,346.319L584.947,338.616L585.702,349.999L586.457,349.508L587.213,360.449L587.968,353.335L588.723,353.089L589.479,349.655L590.234,352.206L590.989,347.055L591.745,342.198L592.5,332.19L593.255,331.11L594.011,340.186L594.766,342.541L595.521,347.447L596.277,351.029L597.032,362.803L597.787,357.652L598.543,355.935L599.298,351.372L600.053,354.561L600.809,353.678L601.564,351.716L602.319,363.098L603.074,372.223L603.83,378.405L604.585,373.008L605.34,354.414L606.096,352.942L606.851,353.188L607.606,366.189L608.362,349.655L609.117,349.999L609.872,348.772L610.628,359.32L611.383,353.629L612.138,359.222L612.894,367.072L613.649,374.922L614.404,373.548L615.16,373.989L615.915,368.298L616.67,353.825L617.426,349.312L618.181,351.372L618.936,354.757L619.691,356.573L620.447,352.206L621.202,362.951L621.957,367.023L622.713,374.48L623.468,370.849L624.223,365.355L624.979,366.974L625.734,372.468L626.489,378.994L627.245,375.952L628,373.695L628.755,369.819L629.511,363.638L630.266,358.192L631.021,363.638L631.777,370.015L632.532,370.997L633.287,365.698L634.043,366.777L634.798,366.826L635.553,366.14L636.309,363.098L637.064,365.306L637.819,365.502L638.574,361.086L639.33,352.844L640.085,336.507L640.84,333.612L641.596,335.722L642.351,353.433L643.106,359.32L643.862,361.135L644.617,362.068L645.372,365.6L646.128,372.125L646.883,372.174L647.638,367.759L648.394,364.717L649.149,355.493L649.904,354.169L650.66,344.013L651.415,342.051L652.17,333.024L652.926,333.612L653.681,335.673L654.436,334.888L655.191,332.435L655.947,341.07L656.702,348.723L657.457,343.228L658.213,339.892L658.968,342.639L659.723,354.463L660.479,356.867L661.234,365.06L661.989,341.511L662.745,317.373L663.5,285.925L664.255,289.408L665.011,294.805L665.766,309.572L666.521,313.497L667.277,307.365L668.032,307.168L668.787,321.985L669.543,333.907L670.298,332.582L671.053,327.038L671.809,323.26L672.564,328.167L673.319,344.013L674.074,352.255L674.83,359.86L675.585,358.633L676.34,363.588L677.096,359.32L677.851,352.893L678.606,346.761L679.362,339.598L680.117,341.119L680.872,346.662L681.628,354.463L682.383,358.535L683.138,367.464L683.894,376.786L684.649,382.918L685.404,381.986L686.16,376.442L686.915,376.099L687.67,372.518L688.426,375.756L689.181,373.253L689.936,377.767L690.691,374.872L691.447,376.148L692.202,367.611L692.957,366.925L693.713,362.46L694.468,369.868L695.223,366.385L695.979,363.588L696.734,359.418L697.489,364.521L698.245,367.611L699,372.419L699.755,372.076L700.511,378.65L701.266,379.582L702.021,381.005L702.777,380.024L703.532,374.087L704.287,372.125L705.043,370.064L705.798,374.774L706.553,374.333L707.309,373.695L708.064,369.77L708.819,373.401L709.574,368.004L710.33,359.958L711.085,347.546L711.84,333.907L712.596,343.719L713.351,350.685L714.106,365.6L714.862,369.083L715.617,367.66L716.372,367.072L717.128,360.399L717.883,355.297L718.638,333.416L719.394,333.024L720.149,343.67L720.904,358.339L721.66,361.086L722.415,364.422L723.17,372.37L723.926,373.401L724.681,370.751L725.436,368.249L726.191,360.645L726.947,350.685L727.702,340.088L728.457,349.704L729.213,360.203L729.968,375.02L730.723,373.744L731.479,376.541L732.234,382.133L732.989,382.084L733.745,382.771L734.5,379.435L735.255,381.348L736.011,379.779L736.766,381.692L737.521,386.255L738.277,384.537L739.032,380.318L739.787,374.48L740.543,375.216L741.298,370.997L742.053,368.396L742.809,364.275L743.564,363.49L744.319,372.468L745.074,378.405L745.83,384.881L746.585,382.869L747.34,382.084L748.096,384.734L748.851,385.813L749.606,386.058L750.362,377.718L751.117,372.763L751.872,376.295L752.628,389.689L753.383,394.006L754.138,387.825L754.894,382.869L755.649,374.872L756.404,377.178L757.16,370.702L757.915,362.803L758.67,353.923L759.426,345.142L760.181,350.146L760.936,355.542L761.691,369.77L762.447,376.982L763.202,375.854L763.957,377.031L764.713,379.386L765.468,377.276L766.223,372.468L766.979,365.011L767.734,371.34L768.489,371.291L769.245,381.201L770,382.379"></path></g></svg> 
 
