<svg class="plot-d6a7b5" fill="currentColor" font-family="system-ui, sans-serif" font-size="10" text-anchor="middle" width="830" height="470" viewBox="0 0 830 470" xmlns="http://www.w3.org/2000/svg" xmlns:xlink="http://www.w3.org/1999/xlink" color="#1e90ff"><style>:where(.plot-d6a7b5){--plot-background: white;display:block;height:intrinsic;max-width:100%}:where(.plot-d6a7b5 text),:where(.plot-d6a7b5 tspan){white-space:pre}</style><g aria-label="y-grid" stroke="currentColor" stroke-opacity=".1"><line x1="60" x2="770" y1="410" y2="410"/><line x1="60" x2="770" y1="378.557" y2="378.557"/><line x1="60" x2="770" y1="347.114" y2="347.114"/><line x1="60" x2="770" y1="315.671" y2="315.671"/><line x1="60" x2="770" y1="284.227" y2="284.227"/><line x1="60" x2="770" y1="252.784" y2="252.784"/><line x1="60" x2="770" y1="221.341" y2="221.341"/><line x1="60" x2="770" y1="189.898" y2="189.898"/><line x1="60" x2="770" y1="158.455" y2="158.455"/><line x1="60" x2="770" y1="127.012" y2="127.012"/><line x1="60" x2="770" y1="95.568" y2="95.568"/><line x1="60" x2="770" y1="64.125" y2="64.125"/></g><g aria-label="y-axis tick" fill="none" stroke="currentColor"><path transform="translate(60,410)" d="M0,0L-6,0"/><path transform="translate(60,378.55684921661634)" d="M0,0L-6,0"/><path transform="translate(60,347.11369843323274)" d="M0,0L-6,0"/><path transform="translate(60,315.6705476498491)" d="M0,0L-6,0"/><path transform="translate(60,284.2273968664655)" d="M0,0L-6,0"/><path transform="translate(60,252.7842460830818)" d="M0,0L-6,0"/><path transform="translate(60,221.34109529969817)" d="M0,0L-6,0"/><path transform="translate(60,189.8979445163145)" d="M0,0L-6,0"/><path transform="translate(60,158.45479373293085)" d="M0,0L-6,0"/><path transform="translate(60,127.01164294954722)" d="M0,0L-6,0"/><path transform="translate(60,95.56849216616357)" d="M0,0L-6,0"/><path transform="translate(60,64.12534138277994)" d="M0,0L-6,0"/></g><g aria-label="y-axis tick label" text-anchor="end" font-variant="tabular-nums"><text y=".32em" transform="translate(-9,0) translate(60,410)">0</text><text y=".32em" transform="translate(-9,0) translate(60,378.55684921661634)">5,000</text><text y=".32em" transform="translate(-9,0) translate(60,347.11369843323274)">10,000</text><text y=".32em" transform="translate(-9,0) translate(60,315.6705476498491)">15,000</text><text y=".32em" transform="translate(-9,0) translate(60,284.2273968664655)">20,000</text><text y=".32em" transform="translate(-9,0) translate(60,252.7842460830818)">25,000</text><text y=".32em" transform="translate(-9,0) translate(60,221.34109529969817)">30,000</text><text y=".32em" transform="translate(-9,0) translate(60,189.8979445163145)">35,000</text><text y=".32em" transform="translate(-9,0) translate(60,158.45479373293085)">40,000</text><text y=".32em" transform="translate(-9,0) translate(60,127.01164294954722)">45,000</text><text y=".32em" transform="translate(-9,0) translate(60,95.56849216616357)">50,000</text><text y=".32em" transform="translate(-9,0) translate(60,64.12534138277994)">55,000</text></g><g aria-label="y-axis label" text-anchor="start"><text y=".71em" transform="translate(-57,-57) translate(60,60)">↑ Visible Vestiges (30 days)</text></g><g aria-label="x-axis tick" fill="none" stroke="currentColor"><path transform="translate(64.9921875,410)" d="M0,0L0,6"/><path transform="translate(116.578125,410)" d="M0,0L0,6"/><path transform="translate(166.5,410)" d="M0,0L0,6"/><path transform="translate(218.0859375,410)" d="M0,0L0,6"/><path transform="translate(268.0078125,410)" d="M0,0L0,6"/><path transform="translate(319.59375,410)" d="M0,0L0,6"/><path transform="translate(371.1796875,410)" d="M0,0L0,6"/><path transform="translate(421.10156249999994,410)" d="M0,0L0,6"/><path transform="translate(472.68750000000006,410)" d="M0,0L0,6"/><path transform="translate(522.609375,410)" d="M0,0L0,6"/><path transform="translate(574.1953125,410)" d="M0,0L0,6"/><path transform="translate(625.78125,410)" d="M0,0L0,6"/><path transform="translate(674.0390625,410)" d="M0,0L0,6"/><path transform="translate(725.625,410)" d="M0,0L0,6"/></g><g aria-label="x-axis tick label" font-variant="tabular-nums"><text transform="translate(0,9) translate(64.9921875,410)"><tspan x="0" y=".71em">Mar</tspan><tspan x="0" dy="1em">2023</tspan></text><text y=".71em" transform="translate(0,9) translate(116.578125,410)">Apr</text><text y=".71em" transform="translate(0,9) translate(166.5,410)">May</text><text y=".71em" transform="translate(0,9) translate(218.0859375,410)">Jun</text><text y=".71em" transform="translate(0,9) translate(268.0078125,410)">Jul</text><text y=".71em" transform="translate(0,9) translate(319.59375,410)">Aug</text><text y=".71em" transform="translate(0,9) translate(371.1796875,410)">Sep</text><text y=".71em" transform="translate(0,9) translate(421.10156249999994,410)">Oct</text><text y=".71em" transform="translate(0,9) translate(472.68750000000006,410)">Nov</text><text y=".71em" transform="translate(0,9) translate(522.609375,410)">Dec</text><text transform="translate(0,9) translate(574.1953125,410)"><tspan x="0" y=".71em">Jan</tspan><tspan x="0" dy="1em">2024</tspan></text><text y=".71em" transform="translate(0,9) translate(625.78125,410)">Feb</text><text y=".71em" transform="translate(0,9) translate(674.0390625,410)">Mar</text><text y=".71em" transform="translate(0,9) translate(725.625,410)">Apr</text></g><g aria-label="line" fill="none" stroke="currentColor" stroke-width="1.5" stroke-linejoin="round" stroke-linecap="round"><path d="M60,410L61.109,406.843L62.219,395.297L63.328,389.071L64.438,384.657L65.547,377.375L66.656,371.639L67.766,366.263L68.875,355.383L69.984,346.774L71.094,336.555L72.203,320.727L73.313,305.804L74.422,298.056L75.531,286.843L76.641,279.228L77.75,270.499L78.859,259.085L79.969,251.401L81.078,243.867L82.188,233.642L83.297,222.303L84.406,214.273L85.516,200.57L86.625,194.08L87.734,188.024L88.844,177.101L89.953,166.643L91.063,158.593L92.172,147.374L93.281,139.344L94.391,140.702L95.5,131.137L96.609,123.025L97.719,123.05L98.828,121.226L99.938,120.912L101.047,127.194L102.156,127.276L103.266,129.156L104.375,139.168L105.484,140.639L106.594,134.325L107.703,132.936L108.813,125.282L109.922,123.66L111.031,126.257L112.141,121.93L113.25,119.415L114.359,122.364L115.469,120.597L116.578,115.956L117.688,117.837L118.797,107.379L119.906,97.342L121.016,99.895L122.125,97.933L123.234,94.776L124.344,95.952L125.453,92.921L126.563,89.752L127.672,93.94L128.781,92.519L129.891,86.406L131,82.45L132.109,72.653L133.219,67.722L134.328,67.653L135.438,64L136.547,60L137.656,66.113L138.766,70.716L139.875,73.112L140.984,78.866L142.094,76.734L143.203,73.181L144.313,78.143L145.422,78.407L146.531,78.042L147.641,86.123L148.75,91.016L149.859,95.097L150.969,103.825L152.078,109.278L153.188,106.831L154.297,110.806L155.406,110.315L156.516,112.145L157.625,121L158.734,122.037L159.844,125.125L160.953,134.464L162.063,140.117L163.172,144.192L164.281,151.933L165.391,150.82L166.5,150.16L167.609,154.179L168.719,157.065L169.828,158.254L170.938,161.825L172.047,162.373L173.156,166.385L174.266,173.277L175.375,176.572L176.484,173.334L177.594,175.05L178.703,172.315L179.813,170.347L180.922,171.629L182.031,169.957L183.141,171.736L184.25,176.245L185.359,178.874L186.469,180.918L187.578,184.88L188.688,184.898L189.797,182.823L190.906,188.98L192.016,191.036L193.125,190.005L194.234,192.407L195.344,192.363L196.453,194.413L197.563,199.916L198.672,200.696L199.781,197.652L200.891,196.545L202,192.237L203.109,191.866L204.219,194.35L205.328,192.445L206.438,191.269L207.547,195.589L208.656,196.451L209.766,197.117L210.875,199.714L211.984,195.413L213.094,193.596L214.203,195.74L215.313,194.753L216.422,192.778L217.531,194.69L218.641,194.948L219.75,194.558L220.859,197.96L221.969,199.035L223.078,199.457L224.188,200.519L225.297,198.557L226.406,198.381L227.516,200.142L228.625,198.174L229.734,197.834L230.844,201.249L231.953,206.789L233.063,208.374L234.172,212.77L235.281,212.701L236.391,213.015L237.5,215.04L238.609,215.216L239.719,214.43L240.828,218.348L241.937,218.109L243.047,219.53L244.156,225.806L245.266,227.529L246.375,228.535L247.484,231.434L248.594,231.761L249.703,232.101L250.813,232.126L251.922,233.453L253.031,232.459L254.141,235.384L255.25,234.818L256.359,235.069L257.469,236.547L258.578,234.755L259.688,234.711L260.797,236.025L261.906,234.516L263.016,233.214L264.125,233.107L265.234,230.453L266.344,229.114L267.453,231.177L268.563,231.227L269.672,230.541L270.781,233.484L271.891,232.56L273,233.893L274.109,236.572L275.219,236.899L276.328,236.295L277.438,238.44L278.547,237.673L279.656,237.05L280.766,240.169L281.875,239.566L282.984,239.805L284.094,241.974L285.203,240.666L286.313,239.591L287.422,240.767L288.531,239.402L289.641,240.238L290.75,241.515L291.859,240.408L292.969,240.742L294.078,242.609L295.188,243.1L296.297,241.779L297.406,245.483L298.516,247.816L299.625,246.722L300.734,249.451L301.844,248.527L302.953,247.797L304.063,249.313L305.172,247.275L306.281,247.288L307.391,247.307L308.5,244.93L309.609,243.345L310.719,246.823L311.828,243.798L312.938,242.446L314.047,243.641L315.156,242.056L316.266,241.641L317.375,243.32L318.484,241.59L319.594,240.389L320.703,241.433L321.813,238.635L322.922,238.415L324.031,239.805L325.141,239.176L326.25,236.975L327.359,235.365L328.469,231.258L329.578,229.938L330.688,229.938L331.797,228.435L332.906,227.001L334.016,229.994L335.125,228.139L336.234,227.592L337.344,229.957L338.453,228.63L339.563,228.925L340.672,232.78L341.781,232.176L342.891,229.529L344,232.988L345.109,232.793L346.219,230.378L347.328,231.296L348.438,228.177L349.547,227.812L350.656,228.472L351.766,226.542L352.875,225.806L353.984,228.139L355.094,227.454L356.203,227.215L357.313,230.032L358.422,231.818L359.531,235.126L360.641,241.546L361.75,242.71L362.859,242.194L363.969,243.892L365.078,244.244L366.188,242.917L367.297,244.634L368.406,245.118L369.516,244.005L370.625,246.087L371.734,246.961L372.844,246.118L373.953,247.37L375.063,247.118L376.172,247.231L377.281,248.464L378.391,251.011L379.5,253.734L380.609,257.796L381.719,259.299L382.828,262.268L383.938,267.324L385.047,266.204L386.156,266.89L387.266,269.047L388.375,268.323L389.484,269.455L390.594,271.38L391.703,272.153L392.813,274.027L393.922,275.48L395.031,276.876L396.141,277.234L397.25,277.354L398.359,274.631L399.469,272.317L400.578,273.662L401.688,273.681L402.797,274.474L403.906,275.216L405.016,275.48L406.125,276.624L407.234,279.706L408.344,279.14L409.453,278.436L410.563,279.448L411.672,277.555L412.781,278.75L413.891,280.165L415,278.958L416.109,278.555L417.219,282.662L418.328,282.504L419.438,282.9L420.547,284.894L421.656,281.574L422.766,280.674L423.875,281.687L424.984,279.97L426.094,280.813L427.203,282.07L428.313,283.177L429.422,284.592L430.531,288.466L431.641,289.805L432.75,287.598L433.859,286.649L434.969,283.919L436.078,283.599L437.188,284.951L438.297,285.007L439.406,284.881L440.516,286.271L441.625,286.869L442.734,287.661L443.844,290.183L444.953,285.982L446.062,282.768L447.172,282.85L448.281,282.599L449.391,283.039L450.5,286.076L451.609,285.812L452.719,287.202L453.828,290.17L454.938,288.749L456.047,284.756L457.156,284.397L458.266,281.165L459.375,280.655L460.484,281.196L461.594,279.398L462.703,280.064L463.813,282.215L464.922,283.334L466.031,284.158L467.141,287.045L468.25,286.089L469.359,286.007L470.469,287.963L471.578,286.68L472.688,287.252L473.797,290.384L474.906,290.849L476.016,291.038L477.125,293.107L478.234,293.245L479.344,291.019L480.453,290.906L481.563,289.755L482.672,289.661L483.781,290.843L484.891,289.868L486,290.692L487.109,294.295L488.219,296.691L489.328,299.05L490.437,302.188L491.547,301.955L492.656,301.817L493.766,305.099L494.875,305.653L495.984,307.376L497.094,309.916L498.203,311.985L499.313,313.205L500.422,317.224L501.531,315.954L502.641,313.539L503.75,313.778L504.859,312.463L505.969,310.954L507.078,311.753L508.188,311.269L509.297,314.142L510.406,317.041L511.516,318.576L512.625,318.941L513.734,319.695L514.844,317.243L515.953,317.318L517.063,318.098L518.172,316.488L519.281,315.664L520.391,316.079L521.5,313.243L522.609,313.47L523.719,314.199L524.828,314.413L525.938,313.004L527.047,312.457L528.156,310.212L529.266,310.193L530.375,311.803L531.484,310.52L532.594,309.112L533.703,311.696L534.813,313.759L535.922,315.853L537.031,318.456L538.141,318.89L539.25,318.261L540.359,320.192L541.469,318.777L542.578,318.431L543.688,321.399L544.797,322.89L545.906,324.393L547.016,327.286L548.125,327.141L549.234,326.877L550.344,328.147L551.453,328.896L552.563,329.996L553.672,332.159L554.781,332.857L555.891,334.04L557,335.04L558.109,335.14L559.219,336.486L560.328,337.725L561.438,335.574L562.547,333.423L563.656,334.914L564.766,334.838L565.875,333.285L566.984,332.939L568.094,331.612L569.203,330.663L570.313,330.468L571.422,329.462L572.531,328.103L573.641,328.946L574.75,328.858L575.859,327.355L576.969,326.764L578.078,324.185L579.188,323.487L580.297,325.028L581.406,324.443L582.516,325.556L583.625,325.475L584.734,323.928L585.844,324.953L586.953,324.971L588.063,323.72L589.172,323.978L590.281,325.563L591.391,325.833L592.5,327.078L593.609,328.889L594.719,328.921L595.828,327.499L596.938,326.393L598.047,325.374L599.156,326.141L600.266,327.361L601.375,327.757L602.484,327.562L603.594,327.537L604.703,327.606L605.813,328.286L606.922,328.411L608.031,327.361L609.141,324.449L610.25,325.204L611.359,323.462L612.469,322.959L613.578,324.795L614.688,323.198L615.797,324.374L616.906,326.468L618.016,323.689L619.125,320.764L620.234,319.865L621.344,316.243L622.453,315.086L623.563,314.4L624.672,312.677L625.781,312.206L626.891,313.124L628,312.287L629.109,313.809L630.219,314.463L631.328,310.577L632.438,308.891L633.547,308.3L634.656,307.168L635.766,307.948L636.875,308.583L637.984,305.967L639.094,305.552L640.203,305.376L641.313,306.866L642.422,305.54L643.531,303.401L644.641,298.892L645.75,297.358L646.859,296.446L647.969,291.975L649.078,289.969L650.188,291.893L651.297,293.447L652.406,294.151L653.516,296.371L654.625,294.22L655.734,292.264L656.844,293.497L657.953,292.503L659.063,291.635L660.172,291.717L661.281,290.214L662.391,291.918L663.5,294.503L664.609,293.579L665.719,291.874L666.828,293.239L667.938,291.384L669.047,291.151L670.156,292.692L671.266,292.918L672.375,294.811L673.484,296.214L674.594,297.408L675.703,300.949L676.813,305.024L677.922,303.445L679.031,304.401L680.141,307.615L681.25,309.244L682.359,310.03L683.469,310.96L684.578,311.501L685.688,313.092L686.797,316.237L687.906,316.425L689.016,315.57L690.125,317.538L691.234,316.947L692.344,318.111L693.453,320.846L694.563,320.771L695.672,320.984L696.781,323.72L697.891,325.179L699,324.764L700.109,326.21L701.219,323.349L702.328,322.802L703.438,323.965L704.547,325.846L705.656,328.525L706.766,332.122L707.875,334.97L708.984,337.832L710.094,343.158L711.203,346.101L712.313,348.384L713.422,350.472L714.531,352.49L715.641,355.006L716.75,357.113L717.859,358.358L718.969,359.886L720.078,363.244L721.188,364.653L722.297,363.414L723.406,365.225L724.516,365.961L725.625,365.269L726.734,365.898L727.844,367.08L728.953,366.885L730.063,367.841L731.172,368.652L732.281,369.193L733.391,371.941L734.5,372.507L735.609,372.507L736.719,371.117L737.828,368.545L738.938,365.759L740.047,364.571L741.156,362.785L742.266,360.131L743.375,358.666L744.484,357.352L745.594,355.188L746.703,353.427L747.813,351.006L748.922,349.246L750.031,348.252L751.141,346.655L752.25,345.806L753.359,345.391L754.469,347.504L755.578,348.252L756.688,349.459L757.797,349.755L758.906,349.868L760.016,349.793L761.125,349.396L762.234,349.837L763.344,351.384L764.453,351.623L765.563,352.163L766.672,353.446L767.781,353.905L768.891,353.056L770,353.843"/></g></svg>