<?xml version="1.0"?>
<svg xmlns="http://www.w3.org/2000/svg" xmlns:xlink="http://www.w3.org/1999/xlink" class="plot-d6a7b5" fill="currentColor" font-family="system-ui, sans-serif" font-size="10" text-anchor="middle" width="830" height="470" viewBox="0 0 830 470" color="#1e90ff">
  <style>:where(.plot-d6a7b5){--plot-background: white;display:block;height:intrinsic;max-width:100%}:where(.plot-d6a7b5 text),:where(.plot-d6a7b5 tspan){white-space:pre}</style>
  <g aria-label="y-grid" stroke="currentColor" stroke-opacity=".1">
    <line x1="60" x2="770" y1="410" y2="410"/>
    <line x1="60" x2="770" y1="360.939" y2="360.939"/>
    <line x1="60" x2="770" y1="311.878" y2="311.878"/>
    <line x1="60" x2="770" y1="262.817" y2="262.817"/>
    <line x1="60" x2="770" y1="213.757" y2="213.757"/>
    <line x1="60" x2="770" y1="164.696" y2="164.696"/>
    <line x1="60" x2="770" y1="115.635" y2="115.635"/>
    <line x1="60" x2="770" y1="66.574" y2="66.574"/>
  </g>
  <g aria-label="y-axis tick" fill="none" stroke="currentColor">
    <path transform="translate(60,410)" d="M0,0L-6,0"/>
    <path transform="translate(60,360.9391645640594)" d="M0,0L-6,0"/>
    <path transform="translate(60,311.8783291281189)" d="M0,0L-6,0"/>
    <path transform="translate(60,262.8174936921783)" d="M0,0L-6,0"/>
    <path transform="translate(60,213.7566582562377)" d="M0,0L-6,0"/>
    <path transform="translate(60,164.69582282029717)" d="M0,0L-6,0"/>
    <path transform="translate(60,115.6349873843566)" d="M0,0L-6,0"/>
    <path transform="translate(60,66.57415194841604)" d="M0,0L-6,0"/>
  </g>
  <g aria-label="y-axis tick label" text-anchor="end" font-variant="tabular-nums">
    <text y=".32em" transform="translate(-9,0) translate(60,410)">0</text>
    <text y=".32em" transform="translate(-9,0) translate(60,360.9391645640594)">1,000</text>
    <text y=".32em" transform="translate(-9,0) translate(60,311.8783291281189)">2,000</text>
    <text y=".32em" transform="translate(-9,0) translate(60,262.8174936921783)">3,000</text>
    <text y=".32em" transform="translate(-9,0) translate(60,213.7566582562377)">4,000</text>
    <text y=".32em" transform="translate(-9,0) translate(60,164.69582282029717)">5,000</text>
    <text y=".32em" transform="translate(-9,0) translate(60,115.6349873843566)">6,000</text>
    <text y=".32em" transform="translate(-9,0) translate(60,66.57415194841604)">7,000</text>
  </g>
  <g aria-label="y-axis label" text-anchor="start">
    <text y=".71em" transform="translate(-57,-57) translate(60,60)">&#x2191; Visible Vestiges (4 days)</text>
  </g>
  <g aria-label="x-axis tick" fill="none" stroke="currentColor">
    <path transform="translate(87.5361216730038,410)" d="M0,0L0,6"/>
    <path transform="translate(161.2357414448669,410)" d="M0,0L0,6"/>
    <path transform="translate(235.745247148289,410)" d="M0,0L0,6"/>
    <path transform="translate(310.25475285171103,410)" d="M0,0L0,6"/>
    <path transform="translate(383.95437262357416,410)" d="M0,0L0,6"/>
    <path transform="translate(457.6539923954373,410)" d="M0,0L0,6"/>
    <path transform="translate(532.1634980988593,410)" d="M0,0L0,6"/>
    <path transform="translate(606.6730038022813,410)" d="M0,0L0,6"/>
    <path transform="translate(679.5627376425856,410)" d="M0,0L0,6"/>
    <path transform="translate(753.2623574144486,410)" d="M0,0L0,6"/>
  </g>
  <g aria-label="x-axis tick label" font-variant="tabular-nums">
    <text transform="translate(0,9) translate(87.5361216730038,410)">
      <tspan x="0" y=".71em">Apr</tspan>
      <tspan x="0" dy="1em">2023</tspan>
    </text>
    <text y=".71em" transform="translate(0,9) translate(161.2357414448669,410)">Jul</text>
    <text y=".71em" transform="translate(0,9) translate(235.745247148289,410)">Oct</text>
    <text transform="translate(0,9) translate(310.25475285171103,410)">
      <tspan x="0" y=".71em">Jan</tspan>
      <tspan x="0" dy="1em">2024</tspan>
    </text>
    <text y=".71em" transform="translate(0,9) translate(383.95437262357416,410)">Apr</text>
    <text y=".71em" transform="translate(0,9) translate(457.6539923954373,410)">Jul</text>
    <text y=".71em" transform="translate(0,9) translate(532.1634980988593,410)">Oct</text>
    <text transform="translate(0,9) translate(606.6730038022813,410)">
      <tspan x="0" y=".71em">Jan</tspan>
      <tspan x="0" dy="1em">2025</tspan>
    </text>
    <text y=".71em" transform="translate(0,9) translate(679.5627376425856,410)">Apr</text>
    <text y=".71em" transform="translate(0,9) translate(753.2623574144486,410)">Jul</text>
  </g>
  <g aria-label="line" fill="none" stroke="currentColor" stroke-width="1.5" stroke-linejoin="round" stroke-linecap="round">
    <path d="M60,410L60.54,385.371L61.08,295.296L61.62,246.726L62.16,236.913L62.7,270.177L63.24,274.003L63.779,266.497L64.319,238.434L64.859,216.013L65.399,178.237L65.939,139.626L66.479,90.369L67.019,109.65L67.559,145.66L68.099,202.669L68.639,195.015L69.179,193.445L69.719,192.906L70.259,202.227L70.798,211.5L71.338,182.996L71.878,179.12L72.418,151.989L72.958,189.815L73.498,205.22L74.038,226.905L74.578,195.948L75.118,180.395L75.658,178.089L76.198,172.398L76.738,155.718L77.278,120.05L77.817,109.601L78.357,132.463L78.897,196.683L79.437,250.013L79.977,270.765L80.517,263.21L81.057,242.555L81.597,233.038L82.137,194.623L82.677,149.978L83.217,97.041L83.757,82.862L84.297,111.808L84.837,141.343L85.376,166.756L85.916,169.111L86.456,181.131L86.996,172.595L87.536,152.136L88.076,116.665L88.616,86.689L89.156,60L89.696,86.934L90.236,122.258L90.776,160.378L91.316,147.328L91.856,133.297L92.395,116.518L92.935,104.351L93.475,106.461L94.015,106.362L94.555,107.049L95.095,95.029L95.635,125.006L96.175,147.77L96.715,175.048L97.255,172.791L97.795,182.603L98.335,202.375L98.875,199.333L99.414,182.358L99.954,158.759L100.494,141.883L101.034,161.114L101.574,182.161L102.114,219.055L102.654,234.853L103.194,250.503L103.734,249.718L104.274,224.795L104.814,202.473L105.354,178.482L105.894,176.716L106.433,168.474L106.973,188.785L107.513,212.825L108.053,207.967L108.593,205.613L109.133,211.5L109.673,247.412L110.213,255.802L110.753,231.32L111.293,208.507L111.833,194.329L112.373,192.562L112.913,221.508L113.452,245.744L113.992,262.033L114.532,240.74L115.072,245.793L115.612,248.099L116.152,252.662L116.692,215.327L117.232,195.997L117.772,185.841L118.312,211.549L118.852,223.814L119.392,231.32L119.932,235.638L120.471,238.483L121.011,248.05L121.551,248.345L122.091,235.834L122.631,235.785L123.171,227.69L123.711,239.955L124.251,253.496L124.791,267.527L125.331,274.151L125.871,266.154L126.411,265.712L126.951,267.086L127.49,259.334L128.03,217.829L128.57,195.212L129.11,179.757L129.65,216.897L130.19,223.618L130.73,247.412L131.27,243.438L131.81,262.327L132.35,246.578L132.89,241.623L133.43,218.025L133.97,203.454L134.51,196.34L135.049,200.314L135.589,230.486L136.129,232.105L136.669,239.857L137.209,249.865L137.749,249.718L138.289,261.297L138.829,259.579L139.369,278.174L139.909,273.464L140.449,263.799L140.989,265.761L141.529,263.21L142.068,262.719L142.608,262.817L143.148,267.969L143.688,285.042L144.228,277.438L144.768,269.637L145.308,263.014L145.848,259.825L146.388,265.123L146.928,263.063L147.468,273.366L148.008,272.384L148.548,264.191L149.087,257.813L149.627,261.64L150.167,269.833L150.707,270.569L151.247,274.396L151.787,265.123L152.327,267.675L152.867,255.262L153.407,262.916L153.947,264.093L154.487,284.993L155.027,288.82L155.567,293.824L156.106,272.875L156.646,265.271L157.186,260.414L157.726,258.647L158.266,260.953L158.806,256.292L159.346,262.278L159.886,245.744L160.426,237.649L160.966,247.952L161.506,265.859L162.046,276.26L162.586,281.068L163.125,283.766L163.665,298.534L164.205,288.28L164.745,291.665L165.285,280.381L165.825,284.404L166.365,276.604L166.905,280.283L167.445,278.615L167.985,282.442L168.525,276.751L169.065,276.996L169.605,272.679L170.144,283.325L170.684,279.4L171.224,283.963L171.764,277.928L172.304,271.109L172.844,268.263L173.384,262.572L173.924,269.49L174.464,277.29L175.004,270.373L175.544,268.165L176.084,274.445L176.624,286.514L177.163,296.817L177.703,281.804L178.243,289.458L178.783,282.687L179.323,288.771L179.863,284.306L180.403,276.015L180.943,262.082L181.483,253.643L182.023,272.826L182.563,271.452L183.103,271.599L183.643,257.617L184.183,263.161L184.722,270.716L185.262,270.177L185.802,279.694L186.342,269.637L186.882,269.244L187.422,254.87L187.962,255.704L188.502,255.556L189.042,266.791L189.582,258.255L190.122,242.653L190.662,208.605L191.202,213.266L191.741,232.105L192.281,264.486L192.821,273.905L193.361,282.246L193.901,287.152L194.441,287.299L194.981,288.476L195.521,288.133L196.061,286.416L196.601,284.11L197.141,281.313L197.681,277.536L198.221,273.071L198.76,276.407L199.3,264.24L199.84,249.964L200.38,234.706L200.92,250.16L201.46,257.666L202,256.881L202.54,253.594L203.08,252.269L203.62,262.817L204.16,266.546L204.7,281.559L205.24,292.303L205.779,304.372L206.319,298.436L206.859,298.239L207.399,287.25L207.939,282.785L208.479,285.876L209.019,287.888L209.559,292.941L210.099,294.118L210.639,296.964L211.179,299.466L211.719,300.791L212.259,300.594L212.798,291.322L213.338,278.762L213.878,281.755L214.418,284.944L214.958,294.609L215.498,300.692L216.038,307.512L216.578,314.822L217.118,324.242L217.658,331.208L218.198,307.463L218.738,288.329L219.278,276.26L219.817,283.08L220.357,301.576L220.897,310.505L221.437,334.25L221.977,334.103L222.517,330.227L223.057,324.094L223.597,307.806L224.137,300.496L224.677,270.373L225.217,254.575L225.757,265.32L226.297,289.556L226.837,316.294L227.376,312.909L227.916,314.626L228.456,308.101L228.996,313.792L229.536,310.308L230.076,299.073L230.616,292.597L231.156,288.329L231.696,309.965L232.236,320.415L232.776,335.182L233.316,329.687L233.856,326.94L234.395,315.999L234.935,310.161L235.475,300.496L236.015,294.315L236.555,293.137L237.095,309.229L237.635,321.592L238.175,331.306L238.715,327.087L239.255,332.827L239.795,329.982L240.335,320.268L240.875,306.285L241.414,288.771L241.954,275.377L242.494,270.373L243.034,281.706L243.574,301.379L244.114,316.588L244.654,323.8L245.194,320.611L245.734,313.595L246.274,314.282L246.814,318.845L247.354,303.047L247.894,282.246L248.433,277.977L248.973,303.293L249.513,329.05L250.053,341.168L250.593,335.231L251.133,332.974L251.673,326.253L252.213,316.049L252.753,290.144L253.293,276.555L253.833,272.139L254.373,295.1L254.913,307.855L255.452,316.196L255.992,315.656L256.532,314.233L257.072,319.483L257.612,307.316L258.152,308.052L258.692,303.195L259.232,315.803L259.772,323.751L260.312,328.412L260.852,330.325L261.392,332.484L261.932,346.81L262.471,348.38L263.011,324.291L263.551,300.938L264.091,277.83L264.631,286.121L265.171,301.821L265.711,330.571L266.251,334.741L266.791,333.858L267.331,334.299L267.871,342.983L268.411,343.375L268.951,341.756L269.49,333.71L270.03,336.163L270.57,329.442L271.11,338.911L271.65,344.504L272.19,357.603L272.73,357.063L273.27,356.72L273.81,353.531L274.35,360.203L274.89,346.761L275.43,326.351L275.97,301.526L276.51,303.096L277.049,312.32L277.589,331.012L278.129,339.058L278.669,349.165L279.209,342.198L279.749,334.839L280.289,323.555L280.829,322.525L281.369,320.17L281.909,322.083L282.449,321.396L282.989,328.412L283.529,330.08L284.068,327.627L284.608,316.441L285.148,316.588L285.688,321.494L286.228,338.567L286.768,335.28L287.308,330.914L287.848,324.83L288.388,335.133L288.928,351.618L289.468,355.935L290.008,351.765L290.548,345.927L291.087,351.618L291.627,354.12L292.167,355.837L292.707,352.354L293.247,349.802L293.787,352.599L294.327,348.281L294.867,343.523L295.407,344.258L295.947,355.641L296.487,369.034L297.027,366.091L297.567,355.248L298.106,340.775L298.646,335.133L299.186,343.768L299.726,351.961L300.266,347.742L300.806,347.496L301.346,353.04L301.886,361.037L302.426,353.089L302.966,349.999L303.506,345.779L304.046,338.518L304.586,327.725L305.125,334.005L305.665,346.025L306.205,344.847L306.745,336.213L307.285,328.951L307.825,335.378L308.365,333.073L308.905,333.024L309.445,332.631L309.985,336.409L310.525,338.813L311.065,338.42L311.605,338.616L312.144,332.582L312.684,335.918L313.224,341.707L313.764,342.787L314.304,351.274L314.844,347.251L315.384,347.938L315.924,343.032L316.464,343.572L317.004,351.421L317.544,353.433L318.084,357.701L318.624,366.483L319.163,369.966L319.703,364.472L320.243,351.814L320.783,337.292L321.323,326.548L321.863,317.177L322.403,325.615L322.943,336.507L323.483,353.973L324.023,344.16L324.563,334.397L325.103,331.454L325.643,342.051L326.183,345.632L326.722,336.507L327.262,308.689L327.802,307.561L328.342,305.5L328.882,330.08L329.422,339.598L329.962,349.214L330.502,358.29L331.042,360.988L331.582,346.859L332.122,315.411L332.662,299.907L333.202,295.345L333.741,313.399L334.281,323.849L334.821,342.149L335.361,342.002L335.901,341.854L336.441,334.25L336.981,339.058L337.521,327.627L338.061,312.271L338.601,298.141L339.141,305.893L339.681,317.569L340.221,327.038L340.76,333.661L341.3,332.68L341.84,326.94L342.38,311.486L342.92,315.705L343.46,307.463L344,290.095L344.54,267.871L345.08,275.77L345.62,294.952L346.16,304.323L346.7,303.342L347.24,311.339L347.779,326.891L348.319,332.533L348.859,330.276L349.399,319.434L349.939,309.131L350.479,319.728L351.019,328.608L351.559,336.948L352.099,320.366L352.639,321.2L353.179,329.835L353.719,334.005L354.259,324.389L354.798,305.549L355.338,307.708L355.878,309.916L356.418,328.019L356.958,328.412L357.498,338.911L358.038,340.039L358.578,343.179L359.118,342.492L359.658,337.979L360.198,336.605L360.738,322.868L361.278,321.887L361.817,324.536L362.357,348.576L362.897,355.248L363.437,352.991L363.977,350.146L364.517,354.169L365.057,360.596L365.597,347.546L366.137,339.058L366.677,338.764L367.217,341.02L367.757,340.186L368.297,347.006L368.837,359.664L369.376,356.426L369.916,346.81L370.456,339.941L370.996,337.194L371.536,329.344L372.076,313.743L372.616,313.105L373.156,321.396L373.696,359.516L374.236,387.825L374.776,406.124L375.316,409.166L375.856,409.215L376.395,408.97L376.935,408.724L377.475,406.86L378.015,405.634L378.555,405.094L379.095,404.652L379.635,401.954L380.175,399.943L380.715,398.667L381.255,395.38L381.795,388.168L382.335,366.287L382.875,356.475L383.414,350.391L383.954,361.479L384.494,364.913L385.034,365.158L385.574,359.418L386.114,355.101L386.654,349.459L387.194,347.349L387.734,345.73L388.274,343.179L388.814,347.251L389.354,353.089L389.894,356.916L390.433,353.482L390.973,358.094L391.513,364.275L392.053,365.06L392.593,362.656L393.133,364.472L393.673,367.072L394.213,364.226L394.753,355.15L395.293,355.592L395.833,359.565L396.373,364.717L396.913,368.544L397.452,365.845L397.992,372.91L398.532,375.559L399.072,382.133L399.612,379.043L400.152,377.522L400.692,367.759L401.232,356.622L401.772,354.856L402.312,361.871L402.852,364.717L403.392,363.883L403.932,359.271L404.471,365.06L405.011,360.056L405.551,360.007L406.091,354.954L406.631,362.068L407.171,365.894L407.711,369.77L408.251,365.551L408.791,357.456L409.331,361.43L409.871,362.656L410.411,367.072L410.951,361.381L411.49,352.697L412.03,347.889L412.57,341.266L413.11,353.089L413.65,360.105L414.19,367.906L414.73,364.864L415.27,362.902L415.81,360.841L416.35,356.18L416.89,356.867L417.43,351.765L417.97,351.912L418.51,348.085L419.049,347.153L419.589,353.973L420.129,360.056L420.669,376.099L421.209,378.258L421.749,373.989L422.289,366.091L422.829,343.228L423.369,341.168L423.909,331.306L424.449,353.776L424.989,359.026L425.529,370.555L426.068,360.89L426.608,365.453L427.148,364.177L427.688,368.445L428.228,359.86L428.768,351.47L429.308,338.911L429.848,339.156L430.388,337.096L430.928,355.199L431.468,354.561L432.008,351.421L432.548,341.953L433.087,343.572L433.627,349.312L434.167,345.338L434.707,346.319L435.247,338.616L435.787,349.999L436.327,349.508L436.867,360.449L437.407,353.335L437.947,353.089L438.487,349.655L439.027,352.206L439.567,347.055L440.106,342.198L440.646,332.19L441.186,331.11L441.726,340.186L442.266,342.541L442.806,347.447L443.346,351.029L443.886,362.803L444.426,357.652L444.966,355.935L445.506,351.372L446.046,354.561L446.586,353.678L447.125,351.716L447.665,363.098L448.205,372.223L448.745,378.405L449.285,373.008L449.825,354.414L450.365,352.942L450.905,353.188L451.445,366.189L451.985,349.655L452.525,349.999L453.065,348.772L453.605,359.32L454.144,353.629L454.684,359.222L455.224,367.072L455.764,374.922L456.304,373.548L456.844,373.989L457.384,368.298L457.924,353.825L458.464,349.312L459.004,351.372L459.544,354.757L460.084,356.573L460.624,352.206L461.163,362.951L461.703,367.023L462.243,374.48L462.783,370.849L463.323,365.355L463.863,366.974L464.403,372.468L464.943,378.994L465.483,375.952L466.023,373.695L466.563,369.819L467.103,363.638L467.643,358.192L468.183,363.638L468.722,370.015L469.262,370.997L469.802,365.698L470.342,366.777L470.882,366.826L471.422,366.14L471.962,363.098L472.502,365.306L473.042,365.502L473.582,361.086L474.122,352.844L474.662,336.507L475.202,333.612L475.741,335.722L476.281,353.433L476.821,359.32L477.361,361.135L477.901,362.068L478.441,365.6L478.981,372.125L479.521,372.174L480.061,367.759L480.601,364.717L481.141,355.493L481.681,354.169L482.221,344.013L482.76,342.051L483.3,333.024L483.84,333.612L484.38,335.673L484.92,334.888L485.46,332.435L486,341.07L486.54,348.723L487.08,343.228L487.62,339.892L488.16,342.639L488.7,354.463L489.24,356.867L489.779,365.06L490.319,341.511L490.859,317.373L491.399,285.925L491.939,289.408L492.479,294.805L493.019,309.572L493.559,313.497L494.099,307.365L494.639,307.168L495.179,321.985L495.719,333.907L496.259,332.582L496.798,327.038L497.338,323.26L497.878,328.167L498.418,344.013L498.958,352.255L499.498,359.86L500.038,358.633L500.578,363.588L501.118,359.32L501.658,352.893L502.198,346.761L502.738,339.598L503.278,341.119L503.817,346.662L504.357,354.463L504.897,358.535L505.437,367.464L505.977,376.786L506.517,382.918L507.057,381.986L507.597,376.442L508.137,376.099L508.677,372.518L509.217,375.756L509.757,373.253L510.297,377.767L510.837,374.872L511.376,376.148L511.916,367.611L512.456,366.925L512.996,362.46L513.536,369.868L514.076,366.385L514.616,363.588L515.156,359.418L515.696,364.521L516.236,367.611L516.776,372.419L517.316,372.076L517.856,378.65L518.395,379.582L518.935,381.005L519.475,380.024L520.015,374.087L520.555,372.125L521.095,370.064L521.635,374.774L522.175,374.333L522.715,373.695L523.255,369.77L523.795,373.401L524.335,368.004L524.875,359.958L525.414,347.546L525.954,333.907L526.494,343.719L527.034,350.685L527.574,365.6L528.114,369.083L528.654,367.66L529.194,367.072L529.734,360.399L530.274,355.297L530.814,333.416L531.354,333.024L531.894,343.67L532.433,358.339L532.973,361.086L533.513,364.422L534.053,372.37L534.593,373.401L535.133,370.751L535.673,368.249L536.213,360.645L536.753,350.685L537.293,340.088L537.833,349.704L538.373,360.203L538.913,375.02L539.452,373.744L539.992,376.541L540.532,382.133L541.072,382.084L541.612,382.771L542.152,379.435L542.692,381.348L543.232,379.779L543.772,381.692L544.312,386.255L544.852,384.537L545.392,380.318L545.932,374.48L546.471,375.216L547.011,370.997L547.551,368.396L548.091,364.275L548.631,363.49L549.171,372.468L549.711,378.405L550.251,384.881L550.791,382.869L551.331,382.084L551.871,384.734L552.411,385.813L552.951,386.058L553.49,377.718L554.03,372.763L554.57,376.295L555.11,389.689L555.65,394.006L556.19,387.825L556.73,382.869L557.27,374.872L557.81,377.178L558.35,370.702L558.89,362.803L559.43,353.923L559.97,345.142L560.51,350.146L561.049,355.542L561.589,369.77L562.129,376.982L562.669,375.854L563.209,377.031L563.749,379.386L564.289,377.276L564.829,372.468L565.369,365.011L565.909,371.34L566.449,371.291L566.989,381.201L567.529,382.379L568.068,382.624L568.608,379.386L569.148,377.227L569.688,380.956L570.228,376.688L570.768,373.744L571.308,371.144L571.848,376.737L572.388,378.16L572.928,378.552L573.468,375.118L574.008,375.412L574.548,373.94L575.087,375.265L575.627,374.333L576.167,370.948L576.707,363.294L577.247,367.808L577.787,375.559L578.327,381.79L578.867,381.348L579.407,381.054L579.947,384.39L580.487,387.53L581.027,387.825L581.567,390.817L582.106,392.436L582.646,395.527L583.186,391.112L583.726,388.855L584.266,390.228L584.806,389.247L585.346,377.767L585.886,372.567L586.426,367.808L586.966,378.307L587.506,380.416L588.046,388.904L588.586,385.568L589.125,384.979L589.665,386.843L590.205,389.444L590.745,387.285L591.285,383.311L591.825,381.643L592.365,377.914L592.905,371.831L593.445,372.321L593.985,373.204L594.525,380.269L595.065,373.94L595.605,377.473L596.144,380.171L596.684,388.07L597.224,388.119L597.764,384.734L598.304,381.299L598.844,374.627L599.384,377.963L599.924,374.971L600.464,381.79L601.004,378.601L601.544,384.685L602.084,386.892L602.624,389.149L603.163,387.775L603.703,387.383L604.243,379.828L604.783,376.491L605.323,361.528L605.863,358.388L606.403,356.229L606.943,363.834L607.483,368.593L608.023,370.899L608.563,367.71L609.103,360.007L609.643,360.694L610.183,361.822L610.722,370.702L611.262,374.529L611.802,380.171L612.342,382.526L612.882,379.828L613.422,385.764L613.962,380.563L614.502,381.594L615.042,378.258L615.582,382.624L616.122,379.877L616.662,381.79L617.202,382.183L617.741,385.224L618.281,384.096L618.821,379.975L619.361,378.405L619.901,370.604L620.441,373.499L620.981,372.468L621.521,376.05L622.061,373.45L622.601,370.31L623.141,368.593L623.681,370.899L624.221,378.356L624.76,380.318L625.3,379.729L625.84,376.05L626.38,376.246L626.92,372.763L627.46,362.215L628,349.017L628.54,344.896L629.08,355.297L629.62,370.015L630.16,380.024L630.7,380.269L631.24,377.571L631.779,377.375L632.319,380.122L632.859,375.559L633.399,368.2L633.939,367.219L634.479,371.585L635.019,376.05L635.559,373.253L636.099,375.657L636.639,371.733L637.179,364.079L637.719,363.785L638.259,367.415L638.798,377.718L639.338,379.582L639.878,382.673L640.418,387.04L640.958,379.975L641.498,381.398L642.038,373.253L642.578,375.069L643.118,369.868L643.658,363.932L644.198,362.411L644.738,363.343L645.278,369.672L645.817,367.317L646.357,369.23L646.897,370.457L647.437,372.616L647.977,371.683L648.517,369.329L649.057,368.838L649.597,370.948L650.137,374.137L650.677,376.59L651.217,375.069L651.757,365.796L652.297,370.702L652.837,363.392L653.376,367.268L653.916,368.053L654.456,376.933L654.996,380.171L655.536,366.679L656.076,353.188L656.616,350.538L657.156,354.218L657.696,364.03L658.236,363.883L658.776,361.184L659.316,356.769L659.856,356.965L660.395,364.472L660.935,371.438L661.475,373.646L662.015,376.884L662.555,373.94L663.095,374.774L663.635,372.959L664.175,375.363L664.715,374.529L665.255,369.623L665.795,366.287L666.335,369.966L666.875,379.828L667.414,383.507L667.954,382.379L668.494,381.25L669.034,384.979L669.574,387.874L670.114,386.156L670.654,386.696L671.194,386.402L671.734,387.187L672.274,383.017L672.814,381.398L673.354,377.963L673.894,380.858L674.433,378.11L674.973,384.39L675.513,376.491L676.053,381.201L676.593,376.246L677.133,386.402L677.673,387.285L678.213,383.213L678.753,379.337L679.293,375.216L679.833,386.892L680.373,388.609L680.913,386.843L681.452,384.292L681.992,384.243L682.532,393.466L683.072,393.466L683.612,397.342L684.152,392.976L684.692,395.478L685.232,387.481L685.772,382.82L686.312,376.688L686.852,384.096L687.392,389.1L687.932,394.791L688.471,395.086L689.011,399.501L689.551,395.184L690.091,391.504L690.631,385.421L691.171,391.7L691.711,392.632L692.251,395.036L692.791,388.953L693.331,392.485L693.871,393.712L694.411,399.01L694.951,392.976L695.49,388.953L696.03,386.794L696.57,390.081L697.11,393.368L697.65,395.527L698.19,397.342L698.73,400.629L699.27,402.788L699.81,402.445L700.35,398.225L700.89,398.912L701.43,399.452L701.97,404.162L702.51,402.592L703.049,404.162L703.589,404.162L704.129,405.094L704.669,405.535L705.209,406.124L705.749,405.192L706.289,401.414L706.829,400.286L707.369,400.041L707.909,404.898L708.449,402.984L708.989,402.592L709.529,398.667L710.068,400.188L710.608,395.92L711.148,397.244L711.688,397.489L712.228,402.297L712.768,401.267L713.308,399.697L713.848,401.463L714.388,404.407L714.928,406.664L715.468,405.977L716.008,404.26L716.548,401.807L717.087,400.09L717.627,399.844L718.167,398.912L718.707,396.214L719.247,395.135L719.787,396.165L720.327,398.078L720.867,400.777L721.407,400.482L721.947,398.961L722.487,397.342L723.027,394.153L723.567,393.417L724.106,392.093L724.646,393.172L725.186,396.999L725.726,398.863L726.266,403.033L726.806,400.531L727.346,394.301L727.886,394.399L728.426,392.289L728.966,395.429L729.506,394.497L730.046,399.01L730.586,402.788L731.125,402.347L731.665,401.316L732.205,397.489L732.745,395.87L733.285,393.614L733.825,394.301L734.365,397.833L734.905,397.931L735.445,399.599L735.985,398.765L736.525,404.554L737.065,405.094L737.605,404.701L738.144,401.463L738.684,399.599L739.224,400.629L739.764,400.58L740.304,403.328L740.844,403.082L741.384,404.652L741.924,404.211L742.464,404.309L743.004,402.101L743.544,402.003L744.084,400.973L744.624,398.225L745.163,396.018L745.703,395.92L746.243,398.765L746.783,397.244L747.323,394.791L747.863,396.263L748.403,397.98L748.943,398.127L749.483,396.754L750.023,398.274L750.563,399.158L751.103,396.018L751.643,397.391L752.183,400.531L752.722,403.966L753.262,398.422L753.802,396.705L754.342,393.025L754.882,395.184L755.422,395.086L755.962,393.025L756.502,391.7L757.042,392.24L757.582,395.478L758.122,399.795L758.662,398.078L759.202,403.818L759.741,402.494L760.281,404.8L760.821,403.573L761.361,403.328L761.901,402.347L762.441,398.814L762.981,397.244L763.521,391.455L764.061,393.319L764.601,394.301L765.141,401.463L765.681,400.09L766.221,399.943L766.76,394.301L767.3,397.195L767.84,398.127L768.38,399.648L768.92,396.361L769.46,397.735L770,398.225"/>
  </g>
</svg>
