<svg class="plot-d6a7b5" fill="currentColor" font-family="system-ui, sans-serif" font-size="10" text-anchor="middle" width="830" height="470" viewBox="0 0 830 470" xmlns="http://www.w3.org/2000/svg" xmlns:xlink="http://www.w3.org/1999/xlink" color="#1e90ff"><style>:where(.plot-d6a7b5){--plot-background: white;display:block;height:intrinsic;max-width:100%}:where(.plot-d6a7b5 text),:where(.plot-d6a7b5 tspan){white-space:pre}</style><g aria-label="y-grid" stroke="currentColor" stroke-opacity=".1"><line x1="60" x2="770" y1="410" y2="410"/><line x1="60" x2="770" y1="378.557" y2="378.557"/><line x1="60" x2="770" y1="347.114" y2="347.114"/><line x1="60" x2="770" y1="315.671" y2="315.671"/><line x1="60" x2="770" y1="284.227" y2="284.227"/><line x1="60" x2="770" y1="252.784" y2="252.784"/><line x1="60" x2="770" y1="221.341" y2="221.341"/><line x1="60" x2="770" y1="189.898" y2="189.898"/><line x1="60" x2="770" y1="158.455" y2="158.455"/><line x1="60" x2="770" y1="127.012" y2="127.012"/><line x1="60" x2="770" y1="95.568" y2="95.568"/><line x1="60" x2="770" y1="64.125" y2="64.125"/></g><g aria-label="y-axis tick" fill="none" stroke="currentColor"><path transform="translate(60,410)" d="M0,0L-6,0"/><path transform="translate(60,378.55684921661634)" d="M0,0L-6,0"/><path transform="translate(60,347.11369843323274)" d="M0,0L-6,0"/><path transform="translate(60,315.6705476498491)" d="M0,0L-6,0"/><path transform="translate(60,284.2273968664655)" d="M0,0L-6,0"/><path transform="translate(60,252.7842460830818)" d="M0,0L-6,0"/><path transform="translate(60,221.34109529969817)" d="M0,0L-6,0"/><path transform="translate(60,189.8979445163145)" d="M0,0L-6,0"/><path transform="translate(60,158.45479373293085)" d="M0,0L-6,0"/><path transform="translate(60,127.01164294954722)" d="M0,0L-6,0"/><path transform="translate(60,95.56849216616357)" d="M0,0L-6,0"/><path transform="translate(60,64.12534138277994)" d="M0,0L-6,0"/></g><g aria-label="y-axis tick label" text-anchor="end" font-variant="tabular-nums"><text y=".32em" transform="translate(-9,0) translate(60,410)">0</text><text y=".32em" transform="translate(-9,0) translate(60,378.55684921661634)">5,000</text><text y=".32em" transform="translate(-9,0) translate(60,347.11369843323274)">10,000</text><text y=".32em" transform="translate(-9,0) translate(60,315.6705476498491)">15,000</text><text y=".32em" transform="translate(-9,0) translate(60,284.2273968664655)">20,000</text><text y=".32em" transform="translate(-9,0) translate(60,252.7842460830818)">25,000</text><text y=".32em" transform="translate(-9,0) translate(60,221.34109529969817)">30,000</text><text y=".32em" transform="translate(-9,0) translate(60,189.8979445163145)">35,000</text><text y=".32em" transform="translate(-9,0) translate(60,158.45479373293085)">40,000</text><text y=".32em" transform="translate(-9,0) translate(60,127.01164294954722)">45,000</text><text y=".32em" transform="translate(-9,0) translate(60,95.56849216616357)">50,000</text><text y=".32em" transform="translate(-9,0) translate(60,64.12534138277994)">55,000</text></g><g aria-label="y-axis label" text-anchor="start"><text y=".71em" transform="translate(-57,-57) translate(60,60)">↑ Visible Vestiges (30 days)</text></g><g aria-label="x-axis tick" fill="none" stroke="currentColor"><path transform="translate(93.25068870523415,410)" d="M0,0L0,6"/><path transform="translate(182.24517906336087,410)" d="M0,0L0,6"/><path transform="translate(272.2176308539945,410)" d="M0,0L0,6"/><path transform="translate(362.1900826446281,410)" d="M0,0L0,6"/><path transform="translate(451.1845730027548,410)" d="M0,0L0,6"/><path transform="translate(540.1790633608815,410)" d="M0,0L0,6"/><path transform="translate(630.1515151515151,410)" d="M0,0L0,6"/><path transform="translate(720.1239669421487,410)" d="M0,0L0,6"/></g><g aria-label="x-axis tick label" font-variant="tabular-nums"><text transform="translate(0,9) translate(93.25068870523415,410)"><tspan x="0" y=".71em">Apr</tspan><tspan x="0" dy="1em">2023</tspan></text><text y=".71em" transform="translate(0,9) translate(182.24517906336087,410)">Jul</text><text y=".71em" transform="translate(0,9) translate(272.2176308539945,410)">Oct</text><text transform="translate(0,9) translate(362.1900826446281,410)"><tspan x="0" y=".71em">Jan</tspan><tspan x="0" dy="1em">2024</tspan></text><text y=".71em" transform="translate(0,9) translate(451.1845730027548,410)">Apr</text><text y=".71em" transform="translate(0,9) translate(540.1790633608815,410)">Jul</text><text y=".71em" transform="translate(0,9) translate(630.1515151515151,410)">Oct</text><text transform="translate(0,9) translate(720.1239669421487,410)"><tspan x="0" y=".71em">Jan</tspan><tspan x="0" dy="1em">2025</tspan></text></g><g aria-label="line" fill="none" stroke="currentColor" stroke-width="1.5" stroke-linejoin="round" stroke-linecap="round"><path d="M60,410L60.652,406.843L61.304,395.297L61.956,389.071L62.608,384.657L63.26,377.375L63.912,371.639L64.564,366.263L65.216,355.383L65.868,346.774L66.52,336.555L67.172,320.727L67.824,305.804L68.476,298.056L69.128,286.843L69.78,279.228L70.432,270.499L71.084,259.085L71.736,251.401L72.388,243.867L73.039,233.642L73.691,222.303L74.343,214.273L74.995,200.57L75.647,194.08L76.299,188.024L76.951,177.101L77.603,166.643L78.255,158.593L78.907,147.374L79.559,139.344L80.211,140.702L80.863,131.137L81.515,123.025L82.167,123.05L82.819,121.226L83.471,120.912L84.123,127.194L84.775,127.276L85.427,129.156L86.079,139.168L86.731,140.639L87.383,134.325L88.035,132.936L88.687,125.282L89.339,123.66L89.991,126.257L90.643,121.93L91.295,119.415L91.947,122.364L92.599,120.597L93.251,115.956L93.903,117.837L94.555,107.379L95.207,97.342L95.859,99.895L96.511,97.933L97.163,94.776L97.815,95.952L98.466,92.921L99.118,89.752L99.77,93.94L100.422,92.519L101.074,86.406L101.726,82.45L102.378,72.653L103.03,67.722L103.682,67.653L104.334,64L104.986,60L105.638,66.113L106.29,70.716L106.942,73.112L107.594,78.866L108.246,76.734L108.898,73.181L109.55,78.143L110.202,78.407L110.854,78.042L111.506,86.123L112.158,91.016L112.81,95.097L113.462,103.825L114.114,109.278L114.766,106.831L115.418,110.806L116.07,110.315L116.722,112.145L117.374,121L118.026,122.037L118.678,125.125L119.33,134.464L119.982,140.117L120.634,144.192L121.286,151.933L121.938,150.82L122.59,150.16L123.242,154.179L123.893,157.065L124.545,158.254L125.197,161.825L125.849,162.373L126.501,166.385L127.153,173.277L127.805,176.572L128.457,173.334L129.109,175.05L129.761,172.315L130.413,170.347L131.065,171.629L131.717,169.957L132.369,171.736L133.021,176.245L133.673,178.874L134.325,180.918L134.977,184.88L135.629,184.898L136.281,182.823L136.933,188.98L137.585,191.036L138.237,190.005L138.889,192.407L139.541,192.363L140.193,194.413L140.845,199.916L141.497,200.696L142.149,197.652L142.801,196.545L143.453,192.237L144.105,191.866L144.757,194.35L145.409,192.445L146.061,191.269L146.713,195.589L147.365,196.451L148.017,197.117L148.669,199.714L149.32,195.413L149.972,193.596L150.624,195.74L151.276,194.753L151.928,192.778L152.58,194.69L153.232,194.948L153.884,194.558L154.536,197.96L155.188,199.035L155.84,199.457L156.492,200.519L157.144,198.557L157.796,198.381L158.448,200.142L159.1,198.174L159.752,197.834L160.404,201.249L161.056,206.789L161.708,208.374L162.36,212.77L163.012,212.701L163.664,213.015L164.316,215.04L164.968,215.216L165.62,214.43L166.272,218.348L166.924,218.109L167.576,219.53L168.228,225.806L168.88,227.529L169.532,228.535L170.184,231.434L170.836,231.761L171.488,232.101L172.14,232.126L172.792,233.453L173.444,232.459L174.096,235.384L174.747,234.818L175.399,235.069L176.051,236.547L176.703,234.755L177.355,234.711L178.007,236.025L178.659,234.516L179.311,233.214L179.963,233.107L180.615,230.453L181.267,229.114L181.919,231.177L182.571,231.227L183.223,230.541L183.875,233.484L184.527,232.56L185.179,233.893L185.831,236.572L186.483,236.899L187.135,236.295L187.787,238.44L188.439,237.673L189.091,237.05L189.743,240.169L190.395,239.566L191.047,239.805L191.699,241.974L192.351,240.666L193.003,239.591L193.655,240.767L194.307,239.402L194.959,240.238L195.611,241.515L196.263,240.408L196.915,240.742L197.567,242.609L198.219,243.1L198.871,241.779L199.522,245.483L200.174,247.816L200.826,246.722L201.478,249.451L202.13,248.527L202.782,247.797L203.434,249.313L204.086,247.275L204.738,247.288L205.39,247.307L206.042,244.93L206.694,243.345L207.346,246.823L207.998,243.798L208.65,242.446L209.302,243.641L209.954,242.056L210.606,241.641L211.258,243.32L211.91,241.59L212.562,240.389L213.214,241.433L213.866,238.635L214.518,238.415L215.17,239.805L215.822,239.176L216.474,236.975L217.126,235.365L217.778,231.258L218.43,229.938L219.082,229.938L219.734,228.435L220.386,227.001L221.038,229.994L221.69,228.139L222.342,227.592L222.994,229.957L223.646,228.63L224.298,228.925L224.949,232.78L225.601,232.176L226.253,229.529L226.905,232.988L227.557,232.793L228.209,230.378L228.861,231.296L229.513,228.177L230.165,227.812L230.817,228.472L231.469,226.542L232.121,225.806L232.773,228.139L233.425,227.454L234.077,227.215L234.729,230.032L235.381,231.818L236.033,235.126L236.685,241.546L237.337,242.71L237.989,242.194L238.641,243.892L239.293,244.244L239.945,242.917L240.597,244.634L241.249,245.118L241.901,244.005L242.553,246.087L243.205,246.961L243.857,246.118L244.509,247.37L245.161,247.118L245.813,247.231L246.465,248.464L247.117,251.011L247.769,253.734L248.421,257.796L249.073,259.299L249.725,262.268L250.376,267.324L251.028,266.204L251.68,266.89L252.332,269.047L252.984,268.323L253.636,269.455L254.288,271.38L254.94,272.153L255.592,274.027L256.244,275.48L256.896,276.876L257.548,277.234L258.2,277.354L258.852,274.631L259.504,272.317L260.156,273.662L260.808,273.681L261.46,274.474L262.112,275.216L262.764,275.48L263.416,276.624L264.068,279.706L264.72,279.14L265.372,278.436L266.024,279.448L266.676,277.555L267.328,278.75L267.98,280.165L268.632,278.958L269.284,278.555L269.936,282.662L270.588,282.504L271.24,282.9L271.892,284.894L272.544,281.574L273.196,280.674L273.848,281.687L274.5,279.97L275.152,280.813L275.803,282.07L276.455,283.177L277.107,284.592L277.759,288.466L278.411,289.805L279.063,287.598L279.715,286.649L280.367,283.919L281.019,283.599L281.671,284.951L282.323,285.007L282.975,284.881L283.627,286.271L284.279,286.869L284.931,287.661L285.583,290.183L286.235,285.982L286.887,282.768L287.539,282.85L288.191,282.599L288.843,283.039L289.495,286.076L290.147,285.812L290.799,287.202L291.451,290.17L292.103,288.749L292.755,284.756L293.407,284.397L294.059,281.165L294.711,280.655L295.363,281.196L296.015,279.398L296.667,280.064L297.319,282.215L297.971,283.334L298.623,284.158L299.275,287.045L299.927,286.089L300.579,286.007L301.23,287.963L301.882,286.68L302.534,287.252L303.186,290.384L303.838,290.849L304.49,291.038L305.142,293.107L305.794,293.245L306.446,291.019L307.098,290.906L307.75,289.755L308.402,289.661L309.054,290.843L309.706,289.868L310.358,290.692L311.01,294.295L311.662,296.691L312.314,299.05L312.966,302.188L313.618,301.955L314.27,301.817L314.922,305.099L315.574,305.653L316.226,307.376L316.878,309.916L317.53,311.985L318.182,313.205L318.834,317.224L319.486,315.954L320.138,313.539L320.79,313.778L321.442,312.463L322.094,310.954L322.746,311.753L323.398,311.269L324.05,314.142L324.702,317.041L325.354,318.576L326.006,318.941L326.657,319.695L327.309,317.243L327.961,317.318L328.613,318.098L329.265,316.488L329.917,315.664L330.569,316.079L331.221,313.243L331.873,313.47L332.525,314.199L333.177,314.413L333.829,313.004L334.481,312.457L335.133,310.212L335.785,310.193L336.437,311.803L337.089,310.52L337.741,309.112L338.393,311.696L339.045,313.759L339.697,315.853L340.349,318.456L341.001,318.89L341.653,318.261L342.305,320.192L342.957,318.777L343.609,318.431L344.261,321.399L344.913,322.89L345.565,324.393L346.217,327.286L346.869,327.141L347.521,326.877L348.173,328.147L348.825,328.896L349.477,329.996L350.129,332.159L350.781,332.857L351.433,334.04L352.084,335.04L352.736,335.14L353.388,336.486L354.04,337.725L354.692,335.574L355.344,333.423L355.996,334.914L356.648,334.838L357.3,333.285L357.952,332.939L358.604,331.612L359.256,330.663L359.908,330.468L360.56,329.462L361.212,328.103L361.864,328.946L362.516,328.858L363.168,327.355L363.82,326.764L364.472,324.185L365.124,323.487L365.776,325.028L366.428,324.443L367.08,325.556L367.732,325.475L368.384,323.928L369.036,324.953L369.688,324.971L370.34,323.72L370.992,323.978L371.644,325.563L372.296,325.833L372.948,327.078L373.6,328.889L374.252,328.921L374.904,327.499L375.556,326.393L376.208,325.374L376.86,326.141L377.511,327.361L378.163,327.757L378.815,327.562L379.467,327.537L380.119,327.606L380.771,328.286L381.423,328.411L382.075,327.361L382.727,324.449L383.379,325.204L384.031,323.462L384.683,322.959L385.335,324.795L385.987,323.198L386.639,324.374L387.291,326.468L387.943,323.689L388.595,320.764L389.247,319.865L389.899,316.243L390.551,315.086L391.203,314.4L391.855,312.677L392.507,312.206L393.159,313.124L393.811,312.287L394.463,313.809L395.115,314.463L395.767,310.577L396.419,308.891L397.071,308.3L397.723,307.168L398.375,307.948L399.027,308.583L399.679,305.967L400.331,305.552L400.983,305.376L401.635,306.866L402.287,305.54L402.938,303.401L403.59,298.892L404.242,297.358L404.894,296.446L405.546,291.975L406.198,289.969L406.85,291.893L407.502,293.447L408.154,294.151L408.806,296.371L409.458,294.22L410.11,292.264L410.762,293.497L411.414,292.503L412.066,291.635L412.718,291.717L413.37,290.214L414.022,291.918L414.674,294.503L415.326,293.579L415.978,291.874L416.63,293.239L417.282,291.384L417.934,291.151L418.586,292.692L419.238,292.918L419.89,294.811L420.542,296.214L421.194,297.408L421.846,300.949L422.498,305.024L423.15,303.445L423.802,304.401L424.454,307.615L425.106,309.244L425.758,310.03L426.41,310.96L427.062,311.501L427.713,313.092L428.365,316.237L429.017,316.425L429.669,315.57L430.321,317.538L430.973,316.947L431.625,318.111L432.277,320.846L432.929,320.771L433.581,320.984L434.233,323.72L434.885,325.179L435.537,324.764L436.189,326.21L436.841,323.349L437.493,322.802L438.145,323.965L438.797,325.846L439.449,328.525L440.101,332.122L440.753,334.97L441.405,337.832L442.057,343.158L442.709,346.101L443.361,348.384L444.013,350.472L444.665,352.49L445.317,355.006L445.969,357.113L446.621,358.358L447.273,359.886L447.925,363.244L448.577,364.653L449.229,363.414L449.881,365.225L450.533,365.961L451.185,365.269L451.837,365.898L452.489,367.08L453.14,366.885L453.792,367.841L454.444,368.652L455.096,369.193L455.748,371.941L456.4,372.507L457.052,372.507L457.704,371.117L458.356,368.545L459.008,365.759L459.66,364.571L460.312,362.785L460.964,360.131L461.616,358.666L462.268,357.352L462.92,355.188L463.572,353.427L464.224,351.006L464.876,349.246L465.528,348.252L466.18,346.655L466.832,345.806L467.484,345.391L468.136,347.504L468.788,348.252L469.44,349.459L470.092,349.755L470.744,349.868L471.396,349.793L472.048,349.396L472.7,349.837L473.352,351.384L474.004,351.623L474.656,352.163L475.308,353.446L475.96,353.905L476.612,353.056L477.264,353.843L477.916,354.094L478.567,353.566L479.219,354.05L479.871,354.698L480.523,353.937L481.175,353.151L481.827,353.975L482.479,353.736L483.131,354.679L483.783,354.717L484.435,352.855L485.087,352.522L485.739,351.22L486.391,351.22L487.043,350.881L487.695,350.239L488.347,349.007L488.999,348.812L489.651,348.101L490.303,347.522L490.955,348.843L491.607,347.705L492.259,346.246L492.911,346.711L493.563,345.56L494.215,345.567L494.867,346.07L495.519,347.617L496.171,347.906L496.823,348.51L497.475,348.132L498.127,345.001L498.779,344.844L499.431,343.743L500.083,344.529L500.735,344.535L501.387,344.755L502.039,343.737L502.691,345.057L503.343,346.227L503.994,346.372L504.646,347.441L505.298,346.019L505.95,343.655L506.602,343.756L507.254,342.46L507.906,342.668L508.558,342.951L509.21,341.85L509.862,340.756L510.514,341.9L511.166,341.517L511.818,340.404L512.47,341.794L513.122,339.548L513.774,339.115L514.426,338.385L515.078,337.266L515.73,336.467L516.382,336.719L517.034,338.09L517.686,337.882L518.338,338.737L518.99,336.605L519.642,334.442L520.294,333.681L520.946,333.952L521.598,331.505L522.25,331.537L522.902,331.719L523.554,331.883L524.206,332.329L524.858,333.901L525.51,333.449L526.162,334.568L526.814,333.706L527.466,333.084L528.118,336.065L528.77,337.586L529.421,337.549L530.073,339.102L530.725,338.75L531.377,338.398L532.029,340.97L532.681,340.825L533.333,338.417L533.985,339.63L534.637,340.24L535.289,339.215L535.941,340.14L536.593,341.139L537.245,341.781L537.897,344.334L538.549,346.441L539.201,347.277L539.853,347.938L540.505,347.887L541.157,347.516L541.809,347.982L542.461,346.856L543.113,347.378L543.765,347.504L544.417,348.34L545.069,348.975L545.721,350.17L546.373,350.793L547.025,349.264L547.677,349.497L548.329,350.032L548.981,350.032L549.633,352.258L550.285,352.692L550.937,352.163L551.589,351.931L552.241,353.786L552.893,353.912L553.545,354.654L554.197,355.283L554.848,355.459L555.5,355.622L556.152,355.251L556.804,354.333L557.456,354.283L558.108,354.138L558.76,353.975L559.412,355.213L560.064,354.591L560.716,352.069L561.368,352.503L562.02,351.918L562.672,352.226L563.324,352.038L563.976,351.164L564.628,350.635L565.28,351.365L565.932,352.031L566.584,351.302L567.236,350.761L567.888,350.201L568.54,348.68L569.192,348.258L569.844,346.894L570.496,345.913L571.148,345.032L571.8,343.045L572.452,341.511L573.104,340.404L573.756,338.781L574.408,338.215L575.06,338.083L575.712,335.844L576.364,335.241L577.016,335.178L577.668,334.43L578.32,334.7L578.972,336.744L579.624,335.071L580.275,332.618L580.927,330.361L581.579,326.864L582.231,324.349L582.883,323.751L583.535,320.639L584.187,316.884L584.839,315.425L585.491,314.205L586.143,312.545L586.795,311.306L587.447,310.558L588.099,308.583L588.751,309.275L589.403,310.809L590.055,311.048L590.707,312.639L591.359,313.753L592.011,314.727L592.663,316.086L593.315,315.268L593.967,314.476L594.619,315.62L595.271,315.425L595.923,314.991L596.575,315.62L597.227,315.639L597.879,315.3L598.531,320.142L599.183,324.041L599.835,327.613L600.487,331.298L601.139,334.461L601.791,335.681L602.443,339.278L603.095,342.907L603.747,344.73L604.399,346.057L605.051,348.321L605.702,349.22L606.354,351.17L607.006,353.346L607.658,354.566L608.31,354.037L608.962,354.798L609.614,354.509L610.266,354.792L610.918,355.314L611.57,356.188L612.222,357.251L612.874,359.402L613.526,361.313L614.178,362.364L614.83,363.678L615.482,363.829L616.134,364.106L616.786,364.011L617.438,363.571L618.09,363.005L618.742,362.948L619.394,362.716L620.046,362.659L620.698,362.37L621.35,360.691L622.002,359.364L622.654,356.748L623.306,356.698L623.958,356.1L624.61,356.49L625.262,356.974L625.914,356.767L626.566,356.132L627.218,356.207L627.87,355.704L628.522,352.799L629.174,352.17L629.826,352.635L630.478,350.994L631.129,350.761L631.781,350.811L632.433,350.069L633.085,349.786L633.737,349.623L634.389,349.321L635.041,348.315L635.693,347.139L636.345,344.875L636.997,345.158L637.649,345.409L638.301,345.548L638.953,345.202L639.605,346.504L640.257,348.39L640.909,349.629L641.561,352.767L642.213,352.968L642.865,353.56L643.517,354.585L644.169,354.585L644.821,355.943L645.473,356.823L646.125,357.138L646.777,358.402L647.429,362.181L648.081,362.005L648.733,361.571L649.385,362.942L650.037,362.313L650.689,362.603L651.341,363.716L651.993,363.785L652.645,364.156L653.297,365.489L653.949,366.873L654.601,368.659L655.253,371.382L655.904,370.463L656.556,370.268L657.208,371.545L657.86,372.507L658.512,372.507L659.164,372.275L659.816,372.608L660.468,371.495L661.12,371.985L661.772,371.243L662.424,369.319L663.076,368.426L663.728,365.973L664.38,364.911L665.032,365.25L665.684,365.37L666.336,365.137L666.988,365.873L667.64,366.476L668.292,367.074L668.944,367.64L669.596,366.476L670.248,365.357L670.9,365.904L671.552,364.992L672.204,365.244L672.856,365.602L673.508,364.584L674.16,364.389L674.812,365.539L675.464,365.634L676.116,364.439L676.768,363.496L677.42,362.703L678.072,363.018L678.724,362.892L679.376,363.175L680.028,362.754L680.68,363.496L681.331,364.602L681.983,365.489L682.635,367.237L683.287,367.269L683.939,366.483L684.591,366.986L685.243,367.086L685.895,367.244L686.547,367.539L687.199,367.3L687.851,368.155L688.503,369.47L689.155,370.224L689.807,370.652L690.459,372.18L691.111,372.061L691.763,371.771L692.415,372.979L693.067,373.45L693.719,373.312L694.371,372.57L695.023,372.922L695.675,372.551L696.327,373.488L696.979,373.394L697.631,373.928L698.283,374.387L698.935,374.658L699.587,375.394L700.239,376.375L700.891,376.199L701.543,376.544L702.195,377.746L702.847,378.073L703.499,377.06L704.151,377.331L704.803,376.972L705.455,376.922L706.107,376.419L706.758,376.085L707.41,375.979L708.062,376.45L708.714,375.74L709.366,374.991L710.018,374.626L710.67,373.627L711.322,373.595L711.974,372.671L712.626,372.671L713.278,373.702L713.93,374.224L714.582,375.117L715.234,375.092L715.886,375.167L716.538,374.922L717.19,374.356L717.842,374.079L718.494,371.677L719.146,370.375L719.798,370.099L720.45,369.181L721.102,368.703L721.754,369.199L722.406,368.652L723.058,367.124L723.71,367.596L724.362,366.288L725.014,366.709L725.666,367.218L726.318,366.288L726.97,365.998L727.622,366.156L728.274,366.42L728.926,365.904L729.578,367.049L730.23,366.458L730.882,366.885L731.534,366.803L732.185,366.866L732.837,366.564L733.489,366.59L734.141,366.219L734.793,365.565L735.445,365.439L736.097,365.036L736.749,365.181L737.401,366.841L738.053,367.3L738.705,367.388L739.357,367.671L740.009,367.3L740.661,367.388L741.313,369.036L741.965,369.904L742.617,369.828L743.269,370.86L743.921,370.614L744.573,369.602L745.225,368.558L745.877,366.319L746.529,365.124L747.181,364.653L747.833,364.967L748.485,364.923L749.137,364.911L749.789,364.319L750.441,364.602L751.093,364.697L751.745,363.47L752.397,362.42L753.049,362.533L753.701,362.395L754.353,362.118L755.005,362.873L755.657,362.672L756.309,362.024L756.961,361.339L757.612,361.433L758.264,361.653L758.916,362.508L759.568,362.546L760.22,362.206L760.872,363.37L761.524,362.577L762.176,362.892L762.828,362.986L763.48,362.873L764.132,363.873L764.784,364.898L765.436,365.118L766.088,364.904L766.74,364.854L767.392,363.489L768.044,363.489L768.696,363.942L769.348,362.879L770,362.408"/></g></svg>