<svg class="plot-d6a7b5" fill="currentColor" font-family="system-ui, sans-serif" font-size="10" text-anchor="middle" width="830" height="470" viewBox="0 0 830 470" xmlns="http://www.w3.org/2000/svg" xmlns:xlink="http://www.w3.org/1999/xlink" color="#1e90ff"><style>:where(.plot-d6a7b5){--plot-background: white;display:block;height:intrinsic;max-width:100%}:where(.plot-d6a7b5 text),:where(.plot-d6a7b5 tspan){white-space:pre}</style><g aria-label="y-grid" stroke="currentColor" stroke-opacity=".1"><line x1="60" x2="770" y1="410" y2="410"/><line x1="60" x2="770" y1="378.557" y2="378.557"/><line x1="60" x2="770" y1="347.114" y2="347.114"/><line x1="60" x2="770" y1="315.671" y2="315.671"/><line x1="60" x2="770" y1="284.227" y2="284.227"/><line x1="60" x2="770" y1="252.784" y2="252.784"/><line x1="60" x2="770" y1="221.341" y2="221.341"/><line x1="60" x2="770" y1="189.898" y2="189.898"/><line x1="60" x2="770" y1="158.455" y2="158.455"/><line x1="60" x2="770" y1="127.012" y2="127.012"/><line x1="60" x2="770" y1="95.568" y2="95.568"/><line x1="60" x2="770" y1="64.125" y2="64.125"/></g><g aria-label="y-axis tick" fill="none" stroke="currentColor"><path transform="translate(60,410)" d="M0,0L-6,0"/><path transform="translate(60,378.55684921661634)" d="M0,0L-6,0"/><path transform="translate(60,347.11369843323274)" d="M0,0L-6,0"/><path transform="translate(60,315.6705476498491)" d="M0,0L-6,0"/><path transform="translate(60,284.2273968664655)" d="M0,0L-6,0"/><path transform="translate(60,252.7842460830818)" d="M0,0L-6,0"/><path transform="translate(60,221.34109529969817)" d="M0,0L-6,0"/><path transform="translate(60,189.8979445163145)" d="M0,0L-6,0"/><path transform="translate(60,158.45479373293085)" d="M0,0L-6,0"/><path transform="translate(60,127.01164294954722)" d="M0,0L-6,0"/><path transform="translate(60,95.56849216616357)" d="M0,0L-6,0"/><path transform="translate(60,64.12534138277994)" d="M0,0L-6,0"/></g><g aria-label="y-axis tick label" text-anchor="end" font-variant="tabular-nums"><text y=".32em" transform="translate(-9,0) translate(60,410)">0</text><text y=".32em" transform="translate(-9,0) translate(60,378.55684921661634)">5,000</text><text y=".32em" transform="translate(-9,0) translate(60,347.11369843323274)">10,000</text><text y=".32em" transform="translate(-9,0) translate(60,315.6705476498491)">15,000</text><text y=".32em" transform="translate(-9,0) translate(60,284.2273968664655)">20,000</text><text y=".32em" transform="translate(-9,0) translate(60,252.7842460830818)">25,000</text><text y=".32em" transform="translate(-9,0) translate(60,221.34109529969817)">30,000</text><text y=".32em" transform="translate(-9,0) translate(60,189.8979445163145)">35,000</text><text y=".32em" transform="translate(-9,0) translate(60,158.45479373293085)">40,000</text><text y=".32em" transform="translate(-9,0) translate(60,127.01164294954722)">45,000</text><text y=".32em" transform="translate(-9,0) translate(60,95.56849216616357)">50,000</text><text y=".32em" transform="translate(-9,0) translate(60,64.12534138277994)">55,000</text></g><g aria-label="y-axis label" text-anchor="start"><text y=".71em" transform="translate(-57,-57) translate(60,60)">↑ Visible Vestiges (30 days)</text></g><g aria-label="x-axis tick" fill="none" stroke="currentColor"><path transform="translate(65.36974789915966,410)" d="M0,0L0,6"/><path transform="translate(120.85714285714286,410)" d="M0,0L0,6"/><path transform="translate(174.55462184873952,410)" d="M0,0L0,6"/><path transform="translate(230.0420168067227,410)" d="M0,0L0,6"/><path transform="translate(283.7394957983193,410)" d="M0,0L0,6"/><path transform="translate(339.2268907563025,410)" d="M0,0L0,6"/><path transform="translate(394.7142857142857,410)" d="M0,0L0,6"/><path transform="translate(448.41176470588243,410)" d="M0,0L0,6"/><path transform="translate(503.8991596638656,410)" d="M0,0L0,6"/><path transform="translate(557.5966386554621,410)" d="M0,0L0,6"/><path transform="translate(613.0840336134454,410)" d="M0,0L0,6"/><path transform="translate(668.5714285714286,410)" d="M0,0L0,6"/><path transform="translate(720.4789915966387,410)" d="M0,0L0,6"/></g><g aria-label="x-axis tick label" font-variant="tabular-nums"><text transform="translate(0,9) translate(65.36974789915966,410)"><tspan x="0" y=".71em">Mar</tspan><tspan x="0" dy="1em">2023</tspan></text><text y=".71em" transform="translate(0,9) translate(120.85714285714286,410)">Apr</text><text y=".71em" transform="translate(0,9) translate(174.55462184873952,410)">May</text><text y=".71em" transform="translate(0,9) translate(230.0420168067227,410)">Jun</text><text y=".71em" transform="translate(0,9) translate(283.7394957983193,410)">Jul</text><text y=".71em" transform="translate(0,9) translate(339.2268907563025,410)">Aug</text><text y=".71em" transform="translate(0,9) translate(394.7142857142857,410)">Sep</text><text y=".71em" transform="translate(0,9) translate(448.41176470588243,410)">Oct</text><text y=".71em" transform="translate(0,9) translate(503.8991596638656,410)">Nov</text><text y=".71em" transform="translate(0,9) translate(557.5966386554621,410)">Dec</text><text transform="translate(0,9) translate(613.0840336134454,410)"><tspan x="0" y=".71em">Jan</tspan><tspan x="0" dy="1em">2024</tspan></text><text y=".71em" transform="translate(0,9) translate(668.5714285714286,410)">Feb</text><text y=".71em" transform="translate(0,9) translate(720.4789915966387,410)">Mar</text></g><g aria-label="line" fill="none" stroke="currentColor" stroke-width="1.5" stroke-linejoin="round" stroke-linecap="round"><path d="M60,410L61.193,406.843L62.387,395.297L63.58,389.071L64.773,384.657L65.966,377.375L67.16,371.639L68.353,366.263L69.546,355.383L70.739,346.774L71.933,336.555L73.126,320.727L74.319,305.804L75.513,298.056L76.706,286.843L77.899,279.228L79.092,270.499L80.286,259.085L81.479,251.401L82.672,243.867L83.866,233.642L85.059,222.303L86.252,214.273L87.445,200.57L88.639,194.08L89.832,188.024L91.025,177.101L92.218,166.643L93.412,158.593L94.605,147.374L95.798,139.344L96.992,140.702L98.185,131.137L99.378,123.025L100.571,123.05L101.765,121.226L102.958,120.912L104.151,127.194L105.345,127.276L106.538,129.156L107.731,139.168L108.924,140.639L110.118,134.325L111.311,132.936L112.504,125.282L113.697,123.66L114.891,126.257L116.084,121.93L117.277,119.415L118.471,122.364L119.664,120.597L120.857,115.956L122.05,117.837L123.244,107.379L124.437,97.342L125.63,99.895L126.824,97.933L128.017,94.776L129.21,95.952L130.403,92.921L131.597,89.752L132.79,93.94L133.983,92.519L135.176,86.406L136.37,82.45L137.563,72.653L138.756,67.722L139.95,67.653L141.143,64L142.336,60L143.529,66.113L144.723,70.716L145.916,73.112L147.109,78.866L148.303,76.734L149.496,73.181L150.689,78.143L151.882,78.407L153.076,78.042L154.269,86.123L155.462,91.016L156.655,95.097L157.849,103.825L159.042,109.278L160.235,106.831L161.429,110.806L162.622,110.315L163.815,112.145L165.008,121L166.202,122.037L167.395,125.125L168.588,134.464L169.782,140.117L170.975,144.192L172.168,151.933L173.361,150.82L174.555,150.16L175.748,154.179L176.941,157.065L178.134,158.254L179.328,161.825L180.521,162.373L181.714,166.385L182.908,173.277L184.101,176.572L185.294,173.334L186.487,175.05L187.681,172.315L188.874,170.347L190.067,171.629L191.261,169.957L192.454,171.736L193.647,176.245L194.84,178.874L196.034,180.918L197.227,184.88L198.42,184.898L199.613,182.823L200.807,188.98L202,191.036L203.193,190.005L204.387,192.407L205.58,192.363L206.773,194.413L207.966,199.916L209.16,200.696L210.353,197.652L211.546,196.545L212.739,192.237L213.933,191.866L215.126,194.35L216.319,192.445L217.513,191.269L218.706,195.589L219.899,196.451L221.092,197.117L222.286,199.714L223.479,195.413L224.672,193.596L225.866,195.74L227.059,194.753L228.252,192.778L229.445,194.69L230.639,194.948L231.832,194.558L233.025,197.96L234.218,199.035L235.412,199.457L236.605,200.519L237.798,198.557L238.992,198.381L240.185,200.142L241.378,198.174L242.571,197.834L243.765,201.249L244.958,206.789L246.151,208.374L247.345,212.77L248.538,212.701L249.731,213.015L250.924,215.04L252.118,215.216L253.311,214.43L254.504,218.348L255.697,218.109L256.891,219.53L258.084,225.806L259.277,227.529L260.471,228.535L261.664,231.434L262.857,231.761L264.05,232.101L265.244,232.126L266.437,233.453L267.63,232.459L268.824,235.384L270.017,234.818L271.21,235.069L272.403,236.547L273.597,234.755L274.79,234.711L275.983,236.025L277.176,234.516L278.37,233.214L279.563,233.107L280.756,230.453L281.95,229.114L283.143,231.177L284.336,231.227L285.529,230.541L286.723,233.484L287.916,232.56L289.109,233.893L290.303,236.572L291.496,236.899L292.689,236.295L293.882,238.44L295.076,237.673L296.269,237.05L297.462,240.169L298.655,239.566L299.849,239.805L301.042,241.974L302.235,240.666L303.429,239.591L304.622,240.767L305.815,239.402L307.008,240.238L308.202,241.515L309.395,240.408L310.588,240.742L311.782,242.609L312.975,243.1L314.168,241.779L315.361,245.483L316.555,247.816L317.748,246.722L318.941,249.451L320.134,248.527L321.328,247.797L322.521,249.313L323.714,247.275L324.908,247.288L326.101,247.307L327.294,244.93L328.487,243.345L329.681,246.823L330.874,243.798L332.067,242.446L333.261,243.641L334.454,242.056L335.647,241.641L336.84,243.32L338.034,241.59L339.227,240.389L340.42,241.433L341.613,238.635L342.807,238.415L344,239.805L345.193,239.176L346.387,236.975L347.58,235.365L348.773,231.258L349.966,229.938L351.16,229.938L352.353,228.435L353.546,227.001L354.739,229.994L355.933,228.139L357.126,227.592L358.319,229.957L359.513,228.63L360.706,228.925L361.899,232.78L363.092,232.176L364.286,229.529L365.479,232.988L366.672,232.793L367.866,230.378L369.059,231.296L370.252,228.177L371.445,227.812L372.639,228.472L373.832,226.542L375.025,225.806L376.218,228.139L377.412,227.454L378.605,227.215L379.798,230.032L380.992,231.818L382.185,235.126L383.378,241.546L384.571,242.71L385.765,242.194L386.958,243.892L388.151,244.244L389.345,242.917L390.538,244.634L391.731,245.118L392.924,244.005L394.118,246.087L395.311,246.961L396.504,246.118L397.697,247.37L398.891,247.118L400.084,247.231L401.277,248.464L402.471,251.011L403.664,253.734L404.857,257.796L406.05,259.299L407.244,262.268L408.437,267.324L409.63,266.204L410.824,266.89L412.017,269.047L413.21,268.323L414.403,269.455L415.597,271.38L416.79,272.153L417.983,274.027L419.176,275.48L420.37,276.876L421.563,277.234L422.756,277.354L423.95,274.631L425.143,272.317L426.336,273.662L427.529,273.681L428.723,274.474L429.916,275.216L431.109,275.48L432.303,276.624L433.496,279.706L434.689,279.14L435.882,278.436L437.076,279.448L438.269,277.555L439.462,278.75L440.655,280.165L441.849,278.958L443.042,278.555L444.235,282.662L445.429,282.504L446.622,282.9L447.815,284.894L449.008,281.574L450.202,280.674L451.395,281.687L452.588,279.97L453.782,280.813L454.975,282.07L456.168,283.177L457.361,284.592L458.555,288.466L459.748,289.805L460.941,287.598L462.134,286.649L463.328,283.919L464.521,283.599L465.714,284.951L466.908,285.007L468.101,284.881L469.294,286.271L470.487,286.869L471.681,287.661L472.874,290.183L474.067,285.982L475.261,282.768L476.454,282.85L477.647,282.599L478.84,283.039L480.034,286.076L481.227,285.812L482.42,287.202L483.613,290.17L484.807,288.749L486,284.756L487.193,284.397L488.387,281.165L489.58,280.655L490.773,281.196L491.966,279.398L493.16,280.064L494.353,282.215L495.546,283.334L496.739,284.158L497.933,287.045L499.126,286.089L500.319,286.007L501.513,287.963L502.706,286.68L503.899,287.252L505.092,290.384L506.286,290.849L507.479,291.038L508.672,293.107L509.866,293.245L511.059,291.019L512.252,290.906L513.445,289.755L514.639,289.661L515.832,290.843L517.025,289.868L518.218,290.692L519.412,294.295L520.605,296.691L521.798,299.05L522.992,302.188L524.185,301.955L525.378,301.817L526.571,305.099L527.765,305.653L528.958,307.376L530.151,309.916L531.345,311.985L532.538,313.205L533.731,317.224L534.924,315.954L536.118,313.539L537.311,313.778L538.504,312.463L539.697,310.954L540.891,311.753L542.084,311.269L543.277,314.142L544.471,317.041L545.664,318.576L546.857,318.941L548.05,319.695L549.244,317.243L550.437,317.318L551.63,318.098L552.824,316.488L554.017,315.664L555.21,316.079L556.403,313.243L557.597,313.47L558.79,314.199L559.983,314.413L561.176,313.004L562.37,312.457L563.563,310.212L564.756,310.193L565.95,311.803L567.143,310.52L568.336,309.112L569.529,311.696L570.723,313.759L571.916,315.853L573.109,318.456L574.303,318.89L575.496,318.261L576.689,320.192L577.882,318.777L579.076,318.431L580.269,321.399L581.462,322.89L582.655,324.393L583.849,327.286L585.042,327.141L586.235,326.877L587.429,328.147L588.622,328.896L589.815,329.996L591.008,332.159L592.202,332.857L593.395,334.04L594.588,335.04L595.782,335.14L596.975,336.486L598.168,337.725L599.361,335.574L600.555,333.423L601.748,334.914L602.941,334.838L604.134,333.285L605.328,332.939L606.521,331.612L607.714,330.663L608.908,330.468L610.101,329.462L611.294,328.103L612.487,328.946L613.681,328.858L614.874,327.355L616.067,326.764L617.261,324.185L618.454,323.487L619.647,325.028L620.84,324.443L622.034,325.556L623.227,325.475L624.42,323.928L625.613,324.953L626.807,324.971L628,323.72L629.193,323.978L630.387,325.563L631.58,325.833L632.773,327.078L633.966,328.889L635.16,328.921L636.353,327.499L637.546,326.393L638.739,325.374L639.933,326.141L641.126,327.361L642.319,327.757L643.513,327.562L644.706,327.537L645.899,327.606L647.092,328.286L648.286,328.411L649.479,327.361L650.672,324.449L651.866,325.204L653.059,323.462L654.252,322.959L655.445,324.795L656.639,323.198L657.832,324.374L659.025,326.468L660.218,323.689L661.412,320.764L662.605,319.865L663.798,316.243L664.992,315.086L666.185,314.4L667.378,312.677L668.571,312.206L669.765,313.124L670.958,312.287L672.151,313.809L673.345,314.463L674.538,310.577L675.731,308.891L676.924,308.3L678.118,307.168L679.311,307.948L680.504,308.583L681.697,305.967L682.891,305.552L684.084,305.376L685.277,306.866L686.471,305.54L687.664,303.401L688.857,298.892L690.05,297.358L691.244,296.446L692.437,291.975L693.63,289.969L694.824,291.893L696.017,293.447L697.21,294.151L698.403,296.371L699.597,294.22L700.79,292.264L701.983,293.497L703.176,292.503L704.37,291.635L705.563,291.717L706.756,290.214L707.95,291.918L709.143,294.503L710.336,293.579L711.529,291.874L712.723,293.239L713.916,291.384L715.109,291.151L716.303,292.692L717.496,292.918L718.689,294.811L719.882,296.214L721.076,297.408L722.269,300.949L723.462,305.024L724.655,303.445L725.849,304.401L727.042,307.615L728.235,309.244L729.429,310.03L730.622,310.96L731.815,311.501L733.008,313.092L734.202,316.237L735.395,316.425L736.588,315.57L737.782,317.538L738.975,316.947L740.168,318.111L741.361,320.846L742.555,320.771L743.748,320.984L744.941,323.72L746.134,325.179L747.328,324.764L748.521,326.21L749.714,323.349L750.908,322.802L752.101,323.965L753.294,325.846L754.487,328.525L755.681,332.122L756.874,334.97L758.067,337.832L759.261,343.158L760.454,346.101L761.647,348.384L762.84,350.472L764.034,352.49L765.227,355.006L766.42,357.113L767.613,358.358L768.807,359.886L770,363.244"/></g></svg>