<svg class="plot-d6a7b5" fill="currentColor" font-family="system-ui, sans-serif" font-size="10" text-anchor="middle" width="830" height="470" viewBox="0 0 830 470" xmlns="http://www.w3.org/2000/svg" xmlns:xlink="http://www.w3.org/1999/xlink" color="#1e90ff"><style>:where(.plot-d6a7b5){--plot-background: white;display:block;height:intrinsic;max-width:100%}:where(.plot-d6a7b5 text),:where(.plot-d6a7b5 tspan){white-space:pre}</style><g aria-label="y-grid" stroke="currentColor" stroke-opacity=".1"><line x1="60" x2="770" y1="410" y2="410"/><line x1="60" x2="770" y1="384.218" y2="384.218"/><line x1="60" x2="770" y1="358.437" y2="358.437"/><line x1="60" x2="770" y1="332.655" y2="332.655"/><line x1="60" x2="770" y1="306.874" y2="306.874"/><line x1="60" x2="770" y1="281.092" y2="281.092"/><line x1="60" x2="770" y1="255.311" y2="255.311"/><line x1="60" x2="770" y1="229.529" y2="229.529"/><line x1="60" x2="770" y1="203.748" y2="203.748"/><line x1="60" x2="770" y1="177.966" y2="177.966"/><line x1="60" x2="770" y1="152.185" y2="152.185"/><line x1="60" x2="770" y1="126.403" y2="126.403"/><line x1="60" x2="770" y1="100.622" y2="100.622"/><line x1="60" x2="770" y1="74.84" y2="74.84"/></g><g aria-label="y-axis tick" fill="none" stroke="currentColor"><path transform="translate(60,410)" d="M0,0L-6,0"/><path transform="translate(60,384.2184887320064)" d="M0,0L-6,0"/><path transform="translate(60,358.4369774640127)" d="M0,0L-6,0"/><path transform="translate(60,332.65546619601906)" d="M0,0L-6,0"/><path transform="translate(60,306.87395492802534)" d="M0,0L-6,0"/><path transform="translate(60,281.09244366003173)" d="M0,0L-6,0"/><path transform="translate(60,255.3109323920381)" d="M0,0L-6,0"/><path transform="translate(60,229.52942112404443)" d="M0,0L-6,0"/><path transform="translate(60,203.74790985605074)" d="M0,0L-6,0"/><path transform="translate(60,177.96639858805713)" d="M0,0L-6,0"/><path transform="translate(60,152.18488732006347)" d="M0,0L-6,0"/><path transform="translate(60,126.40337605206982)" d="M0,0L-6,0"/><path transform="translate(60,100.62186478407618)" d="M0,0L-6,0"/><path transform="translate(60,74.8403535160825)" d="M0,0L-6,0"/></g><g aria-label="y-axis tick label" text-anchor="end" font-variant="tabular-nums"><text y=".32em" transform="translate(-9,0) translate(60,410)">0</text><text y=".32em" transform="translate(-9,0) translate(60,384.2184887320064)">50,000</text><text y=".32em" transform="translate(-9,0) translate(60,358.4369774640127)">100,000</text><text y=".32em" transform="translate(-9,0) translate(60,332.65546619601906)">150,000</text><text y=".32em" transform="translate(-9,0) translate(60,306.87395492802534)">200,000</text><text y=".32em" transform="translate(-9,0) translate(60,281.09244366003173)">250,000</text><text y=".32em" transform="translate(-9,0) translate(60,255.3109323920381)">300,000</text><text y=".32em" transform="translate(-9,0) translate(60,229.52942112404443)">350,000</text><text y=".32em" transform="translate(-9,0) translate(60,203.74790985605074)">400,000</text><text y=".32em" transform="translate(-9,0) translate(60,177.96639858805713)">450,000</text><text y=".32em" transform="translate(-9,0) translate(60,152.18488732006347)">500,000</text><text y=".32em" transform="translate(-9,0) translate(60,126.40337605206982)">550,000</text><text y=".32em" transform="translate(-9,0) translate(60,100.62186478407618)">600,000</text><text y=".32em" transform="translate(-9,0) translate(60,74.8403535160825)">650,000</text></g><g aria-label="y-axis label" text-anchor="start"><text y=".71em" transform="translate(-57,-57) translate(60,60)">↑ Total Vestiges</text></g><g aria-label="x-axis tick" fill="none" stroke="currentColor"><path transform="translate(90.0997506234414,410)" d="M0,0L0,6"/><path transform="translate(170.66084788029926,410)" d="M0,0L0,6"/><path transform="translate(252.10723192019952,410)" d="M0,0L0,6"/><path transform="translate(333.55361596009976,410)" d="M0,0L0,6"/><path transform="translate(414.1147132169576,410)" d="M0,0L0,6"/><path transform="translate(494.6758104738155,410)" d="M0,0L0,6"/><path transform="translate(576.1221945137157,410)" d="M0,0L0,6"/><path transform="translate(657.568578553616,410)" d="M0,0L0,6"/><path transform="translate(737.2443890274315,410)" d="M0,0L0,6"/></g><g aria-label="x-axis tick label" font-variant="tabular-nums"><text transform="translate(0,9) translate(90.0997506234414,410)"><tspan x="0" y=".71em">Apr</tspan><tspan x="0" dy="1em">2023</tspan></text><text y=".71em" transform="translate(0,9) translate(170.66084788029926,410)">Jul</text><text y=".71em" transform="translate(0,9) translate(252.10723192019952,410)">Oct</text><text transform="translate(0,9) translate(333.55361596009976,410)"><tspan x="0" y=".71em">Jan</tspan><tspan x="0" dy="1em">2024</tspan></text><text y=".71em" transform="translate(0,9) translate(414.1147132169576,410)">Apr</text><text y=".71em" transform="translate(0,9) translate(494.6758104738155,410)">Jul</text><text y=".71em" transform="translate(0,9) translate(576.1221945137157,410)">Oct</text><text transform="translate(0,9) translate(657.568578553616,410)"><tspan x="0" y=".71em">Jan</tspan><tspan x="0" dy="1em">2025</tspan></text><text y=".71em" transform="translate(0,9) translate(737.2443890274315,410)">Apr</text></g><g aria-label="line" fill="none" stroke="currentColor" stroke-width="1.5" stroke-linejoin="round" stroke-linecap="round"><path d="M60,410L60.59,409.741L61.18,408.794L61.771,408.284L62.361,407.922L62.951,407.325L63.541,406.855L64.131,406.414L64.722,405.522L65.312,404.816L65.902,403.978L66.492,402.68L67.082,401.457L67.672,400.821L68.263,399.902L68.853,399.277L69.443,398.562L70.033,397.626L70.623,396.996L71.214,396.378L71.804,395.54L72.394,394.61L72.984,393.952L73.574,392.828L74.165,392.296L74.755,391.799L75.345,390.904L75.935,390.046L76.525,389.386L77.116,388.466L77.706,387.549L78.296,386.714L78.886,385.419L79.476,384.392L80.067,383.797L80.657,383.177L81.247,382.71L81.837,382.333L82.427,381.634L83.017,380.95L83.608,380.473L84.198,379.371L84.788,378.218L85.378,377.184L85.968,375.932L86.559,375.084L87.149,374.361L87.739,373.376L88.329,372.552L88.919,371.955L89.51,370.881L90.1,369.842L90.69,368.872L91.28,367.483L91.87,366.163L92.461,365.477L93.051,364.459L93.641,363.54L94.231,362.716L94.821,361.55L95.411,360.455L96.002,359.504L96.592,358.36L97.182,357.264L97.772,356.32L98.362,355.05L98.953,354.269L99.543,353.564L100.133,352.58L100.723,351.776L101.313,351.174L101.904,350.398L102.494,349.561L103.084,348.781L103.674,347.758L104.264,346.744L104.855,346.165L105.445,345.363L106.035,344.737L106.625,344.325L107.215,343.687L107.805,343.052L108.396,342.378L108.986,341.506L109.576,340.619L110.166,339.926L110.756,338.967L111.347,338.294L111.937,337.854L112.527,336.844L113.117,336.146L113.707,335.768L114.298,335.135L114.888,334.525L115.478,333.89L116.068,333.017L116.658,332.258L117.249,331.605L117.839,331.036L118.429,330.532L119.019,330.049L119.609,329.257L120.2,328.806L120.79,328.348L121.38,327.604L121.97,326.76L122.56,326.099L123.15,325.248L123.741,324.675L124.331,324.142L124.921,323.37L125.511,322.842L126.101,322.339L126.692,321.668L127.282,321.143L127.872,320.509L128.462,319.837L129.052,319.227L129.643,318.722L130.233,318.192L130.823,317.73L131.413,317.294L132.003,316.68L132.594,316.213L133.184,315.792L133.774,315.097L134.364,314.193L134.954,313.534L135.544,312.677L136.135,312.164L136.725,311.575L137.315,310.968L137.905,310.413L138.495,310.023L139.086,309.25L139.676,308.644L140.266,308.006L140.856,307.08L141.446,306.398L142.037,305.802L142.627,305.193L143.217,304.528L143.807,304.014L144.397,303.51L144.988,302.844L145.578,302.451L146.168,301.929L146.758,301.458L147.348,301.016L147.938,300.392L148.529,299.942L149.119,299.473L149.709,298.845L150.299,298.395L150.889,297.98L151.48,297.531L152.07,297.002L152.66,296.505L153.25,295.986L153.84,295.424L154.431,294.982L155.021,294.442L155.611,293.988L156.201,293.536L156.791,292.91L157.382,292.388L157.972,291.977L158.562,291.437L159.152,290.923L159.742,290.552L160.333,289.914L160.923,289.427L161.513,288.925L162.103,288.368L162.693,287.894L163.283,287.612L163.874,287.094L164.464,286.673L165.054,286.17L165.644,285.573L166.234,285.1L166.825,284.58L167.415,284.007L168.005,283.485L168.595,283.027L169.185,282.28L169.776,281.674L170.366,281.324L170.956,280.766L171.546,280.268L172.136,279.969L172.727,279.439L173.317,279.096L173.907,278.69L174.497,278.195L175.087,277.734L175.677,277.37L176.268,276.793L176.858,276.371L177.448,275.989L178.038,275.452L178.628,274.97L179.219,274.591L179.809,274.009L180.399,273.639L180.989,273.218L181.579,272.685L182.17,272.251L182.76,271.759L183.35,271.195L183.94,270.701L184.53,270.282L185.121,269.8L185.711,269.234L186.301,268.791L186.891,268.375L187.481,267.936L188.071,267.601L188.662,267.028L189.252,266.669L189.842,266.263L190.432,265.754L191.022,265.348L191.613,264.855L192.203,264.199L192.793,263.705L193.383,263.414L193.973,262.743L194.564,262.25L195.154,261.812L195.744,261.2L196.334,260.786L196.924,260.342L197.515,259.83L198.105,259.311L198.695,258.863L199.285,258.2L199.875,257.69L200.466,257.24L201.056,256.695L201.646,256.095L202.236,255.481L202.826,254.578L203.416,254.027L204.007,253.611L204.597,253.049L205.187,252.597L205.777,252.269L206.367,251.758L206.958,251.307L207.548,250.991L208.138,250.477L208.728,250.008L209.318,249.668L209.909,249.124L210.499,248.616L211.089,248.229L211.679,247.72L212.269,247.084L212.86,246.547L213.45,245.878L214.04,245.404L214.63,244.946L215.22,244.269L215.81,243.76L216.401,243.288L216.991,242.722L217.581,242.253L218.171,241.939L218.761,241.485L219.352,241.142L219.942,240.766L220.532,240.31L221.122,239.852L221.712,239.429L222.303,239.006L222.893,238.569L223.483,238.199L224.073,237.788L224.663,237.381L225.254,237.037L225.844,236.64L226.434,236.231L227.024,235.79L227.614,235.261L228.204,234.883L228.795,234.475L229.385,234.048L229.975,233.734L230.565,233.398L231.155,233.048L231.746,232.833L232.336,232.57L232.926,231.97L233.516,231.554L234.106,231.164L234.697,230.636L235.287,230.415L235.877,230.119L236.467,229.84L237.057,229.617L237.648,229.28L238.238,228.937L238.828,228.543L239.418,228.129L240.008,227.469L240.599,226.91L241.189,226.609L241.779,226.204L242.369,225.925L242.959,225.588L243.549,225.201L244.14,224.854L244.73,224.577L245.32,224.153L245.91,223.688L246.5,223.343L247.091,222.875L247.681,222.636L248.271,222.402L248.861,222.088L249.451,221.792L250.042,221.529L250.632,221.1L251.222,220.743L251.812,220.378L252.402,219.885L252.993,219.515L253.583,219.319L254.173,218.955L254.763,218.688L255.353,218.447L255.943,218.144L256.534,217.847L257.124,217.504L257.714,217.054L258.304,216.573L258.894,216.09L259.485,215.587L260.075,215.224L260.665,214.948L261.255,214.605L261.845,214.318L262.436,214.008L263.026,213.592L263.616,213.312L264.206,213.05L264.796,212.468L265.387,211.97L265.977,211.663L266.567,211.346L267.157,211.119L267.747,210.939L268.337,210.56L268.928,210.309L269.518,210.059L270.108,209.573L270.698,209.05L271.288,208.657L271.879,208.124L272.469,207.842L273.059,207.583L273.649,207.138L274.239,206.85L274.83,206.577L275.42,206.187L276.01,205.771L276.6,205.505L277.19,205.064L277.781,204.781L278.371,204.599L278.961,204.207L279.551,203.944L280.141,203.784L280.732,203.543L281.322,203.296L281.912,202.883L282.502,202.396L283.092,201.907L283.682,201.581L284.273,201.259L284.863,201.072L285.453,200.79L286.043,200.459L286.633,200.277L287.224,200.086L287.814,199.759L288.404,199.559L288.994,199.284L289.584,198.983L290.175,198.713L290.765,198.537L291.355,198.295L291.945,198.162L292.535,197.981L293.126,197.735L293.716,197.569L294.306,197.457L294.896,197.07L295.486,196.689L296.076,196.317L296.667,195.946L297.257,195.663L297.847,195.487L298.437,195.201L299.027,195.023L299.618,194.774L300.208,194.411L300.798,194.115L301.388,193.855L301.978,193.467L302.569,193.191L303.159,192.924L303.749,192.609L304.339,192.351L304.929,192.058L305.52,191.626L306.11,191.369L306.7,191.128L307.29,190.875L307.88,190.584L308.47,190.297L309.061,189.98L309.651,189.797L310.241,189.683L310.831,189.412L311.421,189.185L312.012,189.01L312.602,188.798L313.192,188.598L313.782,188.44L314.372,188.192L314.963,187.965L315.553,187.837L316.143,187.544L316.733,187.266L317.323,187.146L317.914,186.972L318.504,186.836L319.094,186.685L319.684,186.397L320.274,186.108L320.865,185.898L321.455,185.701L322.045,185.498L322.635,185.243L323.225,185.044L323.815,184.9L324.406,184.729L324.996,184.446L325.586,184.269L326.176,184.054L326.766,183.695L327.357,183.404L327.947,183.255L328.537,183.022L329.127,182.719L329.717,182.48L330.308,182.17L330.898,181.935L331.488,181.671L332.078,181.361L332.668,181.122L333.259,180.898L333.849,180.613L334.439,180.37L335.029,180.148L335.619,179.799L336.209,179.591L336.8,179.43L337.39,179.093L337.98,178.974L338.57,178.77L339.16,178.441L339.751,178.27L340.341,178.072L340.931,177.825L341.521,177.676L342.111,177.522L342.702,177.368L343.292,177.255L343.882,177.044L344.472,176.756L345.062,176.491L345.653,176.167L346.243,175.781L346.833,175.604L347.423,175.394L348.013,175.192L348.603,174.912L349.194,174.6L349.784,174.366L350.374,174.198L350.964,173.923L351.554,173.594L352.145,173.133L352.735,172.847L353.325,172.496L353.915,172.293L354.505,172.107L355.096,171.857L355.686,171.749L356.276,171.592L356.866,171.193L357.456,170.755L358.047,170.435L358.637,169.988L359.227,169.74L359.817,169.529L360.407,169.275L360.998,169.025L361.588,168.813L362.178,168.479L362.768,168.28L363.358,167.947L363.948,167.452L364.539,167.104L365.129,166.853L365.719,166.48L366.309,166.232L366.899,166.051L367.49,165.668L368.08,165.359L368.67,165.015L369.26,164.677L369.85,164.282L370.441,163.755L371.031,163.183L371.621,162.871L372.211,162.546L372.801,162.072L373.392,161.75L373.982,161.509L374.572,161.199L375.162,160.936L375.752,160.671L376.342,160.247L376.933,159.876L377.523,159.722L378.113,159.391L378.703,159.108L379.293,158.78L379.884,158.458L380.474,158.265L381.064,157.982L381.654,157.558L382.244,157.167L382.835,156.907L383.425,156.506L384.015,156.306L384.605,156.049L385.195,155.759L385.786,155.571L386.376,155.347L386.966,155.05L387.556,154.814L388.146,154.575L388.736,154.134L389.327,153.887L389.917,153.677L390.507,153.488L391.097,153.312L391.687,153.078L392.278,152.859L392.868,152.725L393.458,152.559L394.048,152.203L394.638,151.98L395.229,151.81L395.819,151.478L396.409,151.246L396.999,151.148L397.589,150.949L398.18,150.683L398.77,150.484L399.36,150.213L399.95,149.918L400.54,149.636L401.131,149.201L401.721,148.899L402.311,148.705L402.901,148.67L403.491,148.666L404.081,148.664L404.672,148.662L405.262,148.658L405.852,148.653L406.442,148.648L407.032,148.625L407.623,148.607L408.213,148.597L408.803,148.569L409.393,148.523L409.983,148.491L410.574,148.45L411.164,148.369L411.754,148.261L412.344,147.99L412.934,147.807L413.525,147.635L414.115,147.48L414.705,147.333L415.295,147.164L415.885,146.949L416.475,146.756L417.066,146.527L417.656,146.29L418.246,146.08L418.836,145.825L419.426,145.631L420.017,145.482L420.607,145.267L421.197,145.037L421.787,144.937L422.377,144.787L422.968,144.564L423.558,144.439L424.148,144.308L424.738,144.113L425.328,143.958L425.919,143.732L426.509,143.541L427.099,143.428L427.689,143.256L428.279,143.106L428.869,142.964L429.46,142.866L430.05,142.744L430.64,142.671L431.23,142.541L431.82,142.402L432.411,142.227L433.001,141.98L433.591,141.823L434.181,141.721L434.771,141.504L435.362,141.338L435.952,141.188L436.542,141.031L437.132,140.813L437.722,140.663L438.313,140.453L438.903,140.309L439.493,140.199L440.083,140.03L440.673,139.842L441.264,139.647L441.854,139.519L442.444,139.345L443.034,139.196L443.624,139.008L444.214,138.742L444.805,138.543L445.395,138.286L445.985,138.144L446.575,138.018L447.165,137.844L447.756,137.67L448.346,137.523L448.936,137.327L449.526,137.104L450.116,136.965L450.707,136.715L451.297,136.494L451.887,136.314L452.477,136.054L453.067,135.905L453.658,135.789L454.248,135.698L454.838,135.571L455.428,135.411L456.018,135.237L456.608,134.87L457.199,134.687L457.789,134.41L458.379,134.279L458.969,134.152L459.559,133.995L460.15,133.762L460.74,133.684L461.33,133.513L461.92,133.326L462.51,133.157L463.101,132.898L463.691,132.579L464.281,132.412L464.871,132.132L465.461,132.003L466.052,131.829L466.642,131.516L467.232,131.287L467.822,131.131L468.412,130.879L469.002,130.608L469.593,130.462L470.183,130.128L470.773,129.977L471.363,129.826L471.953,129.608L472.544,129.382L473.134,129.228L473.724,128.973L474.314,128.774L474.904,128.566L475.495,128.261L476.085,127.956L476.675,127.737L477.265,127.527L477.855,127.247L478.446,127.08L479.036,126.907L479.626,126.751L480.216,126.53L480.806,126.339L481.397,126.135L481.987,125.947L482.577,125.747L483.167,125.523L483.757,125.454L484.347,125.35L484.938,125.191L485.528,125.065L486.118,124.766L486.708,124.591L487.298,124.468L487.889,124.305L488.479,123.957L489.069,123.838L489.659,123.662L490.249,123.424L490.84,123.245L491.43,123.128L492.02,122.973L492.61,122.876L493.2,122.745L493.791,122.594L494.381,122.438L494.971,122.155L495.561,121.957L496.151,121.822L496.741,121.574L497.332,121.395L497.922,121.215L498.512,121.079L499.102,120.943L499.692,120.841L500.283,120.668L500.873,120.474L501.463,120.389L502.053,120.274L502.643,120.148L503.234,120.031L503.824,119.892L504.414,119.726L505.004,119.544L505.594,119.347L506.185,119.239L506.775,119.124L507.365,118.938L507.955,118.773L508.545,118.669L509.135,118.484L509.726,118.312L510.316,118.176L510.906,118.014L511.496,117.844L512.086,117.662L512.677,117.413L513.267,117.072L513.857,116.86L514.447,116.633L515.037,116.477L515.628,116.327L516.218,116.119L516.808,115.974L517.398,115.86L517.988,115.721L518.579,115.576L519.169,115.416L519.759,115.245L520.349,115.003L520.939,114.83L521.53,114.552L522.12,114.289L522.71,114.021L523.3,113.749L523.89,113.508L524.48,113.231L525.071,112.934L525.661,112.784L526.251,112.587L526.841,112.232L527.431,112.047L528.022,111.879L528.612,111.648L529.202,111.488L529.792,111.407L530.382,110.928L530.973,110.515L531.563,110.103L532.153,109.661L532.743,109.304L533.333,109.047L533.924,108.647L534.514,108.225L535.104,107.967L535.694,107.722L536.284,107.426L536.874,107.153L537.465,106.85L538.055,106.514L538.645,106.293L539.235,106.156L539.825,105.907L540.416,105.766L541.006,105.616L541.596,105.419L542.186,105.233L542.776,105.016L543.367,104.755L543.957,104.493L544.547,104.292L545.137,104.089L545.727,103.91L546.318,103.751L546.908,103.642L547.498,103.56L548.088,103.467L548.678,103.347L549.268,103.208L549.859,103.11L550.449,102.954L551.039,102.848L551.629,102.724L552.219,102.615L552.81,102.479L553.4,102.368L553.99,102.169L554.58,102.026L555.17,101.869L555.761,101.747L556.351,101.568L556.941,101.381L557.531,101.216L558.121,101.09L558.712,100.935L559.302,100.821L559.892,100.691L560.482,100.606L561.072,100.501L561.663,100.386L562.253,100.291L562.843,100.124L563.433,99.988L564.023,99.871L564.613,99.754L565.204,99.613L565.794,99.49L566.384,99.331L566.974,99.229L567.564,99.048L568.155,98.805L568.745,98.572L569.335,98.248L569.925,98.108L570.515,97.949L571.106,97.782L571.696,97.678L572.286,97.504L572.876,97.331L573.466,97.157L574.057,96.929L574.647,96.526L575.237,96.348L575.827,96.232L576.417,95.983L577.007,95.834L577.598,95.753L578.188,95.587L578.778,95.449L579.368,95.34L579.958,95.148L580.549,94.93L581.139,94.717L581.729,94.414L582.319,94.297L582.909,94.194L583.5,94.046L584.09,93.916L584.68,93.842L585.27,93.753L585.86,93.622L586.451,93.556L587.041,93.432L587.631,93.321L588.221,93.238L588.811,93.134L589.401,93.071L589.992,92.97L590.582,92.822L591.172,92.698L591.762,92.605L592.352,92.413L592.943,92.261L593.533,92.124L594.123,91.924L594.713,91.866L595.303,91.792L595.894,91.66L596.484,91.581L597.074,91.499L597.664,91.394L598.254,91.327L598.845,91.247L599.435,91.055L600.025,90.936L600.615,90.893L601.205,90.841L601.796,90.768L602.386,90.66L602.976,90.556L603.566,90.398L604.156,90.315L604.746,90.143L605.337,89.902L605.927,89.726L606.517,89.462L607.107,89.273L607.697,89.153L608.288,89.039L608.878,88.926L609.468,88.794L610.058,88.692L610.648,88.605L611.239,88.45L611.829,88.298L612.419,88.132L613.009,88.044L613.599,87.891L614.19,87.829L614.78,87.754L615.37,87.603L615.96,87.507L616.55,87.409L617.14,87.298L617.731,87.157L618.321,87.028L618.911,86.89L619.501,86.808L620.091,86.694L620.682,86.559L621.272,86.441L621.862,86.33L622.452,86.18L623.042,86.076L623.633,85.955L624.223,85.77L624.813,85.585L625.403,85.512L625.993,85.408L626.584,85.289L627.174,85.211L627.764,85.103L628.354,85.019L628.944,84.975L629.534,84.87L630.125,84.818L630.715,84.79L631.305,84.718L631.895,84.619L632.485,84.568L633.076,84.51L633.666,84.401L634.256,84.229L634.846,84.117L635.436,83.958L636.027,83.896L636.617,83.806L637.207,83.736L637.797,83.639L638.387,83.543L638.978,83.493L639.568,83.423L640.158,83.304L640.748,83.212L641.338,83.125L641.929,82.967L642.519,82.811L643.109,82.729L643.699,82.58L644.289,82.498L644.879,82.35L645.47,82.239L646.06,82.185L646.65,82.12L647.24,82.009L647.83,81.919L648.421,81.818L649.011,81.637L649.601,81.583L650.191,81.45L650.781,81.34L651.372,81.253L651.962,81.184L652.552,81.098L653.142,81.034L653.732,80.95L654.323,80.86L654.913,80.716L655.503,80.598L656.093,80.35L656.683,80.174L657.273,80.033L657.864,79.865L658.454,79.739L659.044,79.622L659.634,79.421L660.224,79.213L660.815,79.104L661.405,78.914L661.995,78.8L662.585,78.731L663.175,78.601L663.766,78.512L664.356,78.414L664.946,78.346L665.536,78.202L666.126,78.115L666.717,78.013L667.307,77.915L667.897,77.799L668.487,77.716L669.077,77.622L669.667,77.538L670.258,77.444L670.848,77.307L671.438,77.206L672.028,77.03L672.618,76.923L673.209,76.812L673.799,76.673L674.389,76.539L674.979,76.394L675.569,76.238L676.16,76.128L676.75,76.062L677.34,75.926L677.93,75.81L678.52,75.705L679.111,75.571L679.701,75.418L680.291,75.203L680.881,74.93L681.471,74.734L682.062,74.628L682.652,74.51L683.242,74.419L683.832,74.315L684.422,74.169L685.012,74.076L685.603,74.001L686.193,73.807L686.783,73.637L687.373,73.552L687.963,73.403L688.554,73.28L689.144,73.166L689.734,73.042L690.324,72.878L690.914,72.683L691.505,72.557L692.095,72.43L692.685,72.344L693.275,72.237L693.865,72.143L694.456,72.102L695.046,71.921L695.636,71.842L696.226,71.716L696.816,71.554L697.406,71.421L697.997,71.232L698.587,71.054L699.177,70.93L699.767,70.808L700.357,70.605L700.948,70.502L701.538,70.393L702.128,70.213L702.718,70.099L703.308,69.965L703.899,69.78L704.489,69.689L705.079,69.588L705.669,69.429L706.259,69.322L706.85,69.124L707.44,69.016L708.03,68.832L708.62,68.674L709.21,68.575L709.8,68.484L710.391,68.361L710.981,68.12L711.571,67.887L712.161,67.736L712.751,67.533L713.342,67.404L713.932,67.251L714.522,67.02L715.112,66.844L715.702,66.694L716.293,66.542L716.883,66.439L717.473,66.312L718.063,66.194L718.653,66.06L719.244,65.942L719.834,65.804L720.424,65.696L721.014,65.569L721.604,65.38L722.195,65.237L722.785,65.148L723.375,65.063L723.965,64.958L724.555,64.858L725.145,64.761L725.736,64.695L726.326,64.625L726.916,64.51L727.506,64.45L728.096,64.377L728.687,64.27L729.277,64.167L729.867,64.077L730.457,63.934L731.047,63.861L731.638,63.741L732.228,63.665L732.818,63.508L733.408,63.439L733.998,63.31L734.589,63.26L735.179,63.2L735.769,63.028L736.359,62.938L736.949,62.834L737.539,62.785L738.13,62.713L738.72,62.591L739.31,62.515L739.9,62.443L740.49,62.417L741.081,62.341L741.671,62.31L742.261,62.238L742.851,62.189L743.441,62.073L744.032,61.953L744.622,61.839L745.212,61.801L745.802,61.733L746.392,61.679L746.983,61.644L747.573,61.623L748.163,61.523L748.753,61.449L749.343,61.364L749.933,61.331L750.524,61.267L751.114,61.207L751.704,61.11L752.294,61.083L752.884,61.036L753.475,60.994L754.065,60.904L754.655,60.815L755.245,60.75L755.835,60.695L756.426,60.64L757.016,60.598L757.606,60.562L758.196,60.541L758.786,60.522L759.377,60.482L759.967,60.418L760.557,60.406L761.147,60.371L761.737,60.356L762.328,60.328L762.918,60.31L763.508,60.295L764.098,60.276L764.688,60.263L765.278,60.254L765.869,60.226L766.459,60.173L767.049,60.152L767.639,60.121L768.229,60.119L768.82,60.078L769.41,60.043L770,60"/></g></svg>