<svg xmlns="http://www.w3.org/2000/svg" width="830" height="470" fill="currentColor" class="plot-d6a7b5" font-family="system-ui, sans-serif" font-size="10" style="--plot-background:white;display:block;height:intrinsic;max-width:100%;color:#1e90ff" text-anchor="middle" viewBox="0 0 830 470">
    <style>
        :where(.plot-d6a7b5 text),:where(.plot-d6a7b5 tspan){white-space:pre}
    </style>
    <path stroke="currentColor" stroke-opacity=".1" d="
M60
410
h710
M60
378.557
h710
M60
347.114
h710
M60
315.671
h710
M60
284.227
h710
M60
252.784
h710
M60
221.341
h710
M60
189.898
h710
M60
158.455
h710
M60
127.012
h710
M60
95.568
h710
M60
64.125
h710" aria-hidden="true" aria-label="y-grid"/>
    <path fill="none" stroke="currentColor" d="
M60
410
h-6
m6
-31.443
h-6
m6
-31.443
h-6
m6
-31.444
h-6
m6
-31.443
h-6
m6
-31.443
h-6
m6
-31.443
h-6
m6
-31.443
h-6
m6
-31.443
h-6
m6
-31.443
h-6
m6
-31.444
h-6
m6
-31.443
h-6" aria-hidden="true" aria-label="y-axis tick"/>
    <g aria-label="y-axis tick label" font-variant="tabular-nums" text-anchor="end">
        <text y=".32em" transform="translate(51 410)">0</text>
        <text y=".32em" transform="translate(51 378.557)">5,000</text>
        <text y=".32em" transform="translate(51 347.114)">10,000</text>
        <text y=".32em" transform="translate(51 315.67)">15,000</text>
        <text y=".32em" transform="translate(51 284.227)">20,000</text>
        <text y=".32em" transform="translate(51 252.784)">25,000</text>
        <text y=".32em" transform="translate(51 221.341)">30,000</text>
        <text y=".32em" transform="translate(51 189.898)">35,000</text>
        <text y=".32em" transform="translate(51 158.455)">40,000</text>
        <text y=".32em" transform="translate(51 127.012)">45,000</text>
        <text y=".32em" transform="translate(51 95.568)">50,000</text>
        <text y=".32em" transform="translate(51 64.125)">55,000</text>
    </g>
    <text y=".71em" aria-label="y-axis label" text-anchor="start" transform="translate(3 3)">↑ Visible vestiges (30 days)</text>
    <path fill="none" stroke="currentColor" d="
M81.709
410
v6
m58.102
-6
v6
m58.741
-6
v6
m58.741
-6
v6
m58.103
-6
v6
m58.102
-6
v6
m58.742
-6
v6
m58.74
-6
v6
m57.464
-6
v6
m58.103
-6
v6
m58.741
-6
v6
m58.741
-6
v6" aria-hidden="true" aria-label="x-axis tick"/>
    <g aria-label="x-axis tick label" font-variant="tabular-nums">
        <text transform="translate(81.709 419)"><tspan x="0" y=".71em">Apr</tspan><tspan x="0" dy="1em">2023</tspan></text>
        <text y=".71em" transform="translate(139.811 419)">Jul</text>
        <text y=".71em" transform="translate(198.552 419)">Oct</text>
        <text transform="translate(257.293 419)"><tspan x="0" y=".71em">Jan</tspan><tspan x="0" dy="1em">2024</tspan></text>
        <text y=".71em" transform="translate(315.396 419)">Apr</text>
        <text y=".71em" transform="translate(373.498 419)">Jul</text>
        <text y=".71em" transform="translate(432.24 419)">Oct</text>
        <text transform="translate(490.98 419)"><tspan x="0" y=".71em">Jan</tspan><tspan x="0" dy="1em">2025</tspan></text>
        <text y=".71em" transform="translate(548.444 419)">Apr</text>
        <text y=".71em" transform="translate(606.547 419)">Jul</text>
        <text y=".71em" transform="translate(665.288 419)">Oct</text>
        <text transform="translate(724.029 419)"><tspan x="0" y=".71em">Jan</tspan><tspan x="0" dy="1em">2026</tspan></text>
    </g>
    <path fill="none" stroke="currentColor" stroke-linecap="round" stroke-linejoin="round" stroke-width="1.5" d="
m60
410
.426
-3.157
.425
-11.546
.426
-6.226
.426
-4.414
.425
-7.282
.426
-5.736
.426
-5.376
.425
-10.88
.426
-8.609
.426
-10.219
.425
-15.828
.426
-14.923
.426
-7.748
.425
-11.213
.426
-7.615
.426
-8.729
.425
-11.414
.426
-7.684
.426
-7.534
.425
-10.225
.426
-11.339
.426
-8.03
.425
-13.703
.426
-6.49
.425
-6.056
.426
-10.923
.426
-10.458
.425
-8.05
.426
-11.219
.426
-8.03
.425
1.358
.426
-9.565
.426
-8.112
.425
.025
.426
-1.824
.426
-.314
.425
6.282
.426
.082
.426
1.88
.425
10.012
.426
1.471
.426
-6.314
.425
-1.389
.426
-7.654
.426
-1.622
.425
2.597
.426
-4.327
.426
-2.515
.425
2.949
.426
-1.767
.426
-4.641
.425
1.881
.426
-10.458
.426
-10.037
.425
2.553
.426
-1.962
.426
-3.157
.425
1.176
.426
-3.031
.426
-3.169
.425
4.188
.426
-1.421
.426
-6.113
.425
-3.956
.426
-9.797
.426
-4.931
.425
-.069
.426
-3.653
.426
-4
.425
6.113
.426
4.603
.425
2.396
.426
5.754
.426
-2.132
.425
-3.553
.426
4.962
.426
.264
.425
-.365
.426
8.081
.426
4.893
.425
4.081
.426
8.728
.426
5.453
.425
-2.447
.426
3.975
.426
-.491
.425
1.83
.426
8.855
.426
1.037
.425
3.088
.426
9.339
.426
5.653
.425
4.075
.426
7.741
.426
-1.113
.425
-.66
.426
4.019
.426
2.886
.425
1.189
.426
3.571
.426
.548
.425
4.012
.426
6.892
.426
3.295
.425
-3.238
.426
1.716
.426
-2.735
.425
-1.968
.426
1.282
.426
-1.672
.425
1.779
.426
4.509
.426
2.629
.425
2.044
.426
3.962
.425
.018
.426
-2.075
.426
6.157
.425
2.056
.426
-1.031
.426
2.402
.425
-.044
.426
2.05
.426
5.503
.425
.78
.426
-3.044
.426
-1.107
.425
-4.308
.426
-.371
.426
2.484
.425
-1.905
.426
-1.176
.426
4.32
.425
.862
.426
.666
.426
2.597
.425
-4.301
.426
-1.817
.426
2.144
.425
-.987
.426
-1.975
.426
1.912
.425
.258
.426
-.39
.426
3.402
.425
1.075
.426
.422
.426
1.062
.425
-1.962
.426
-.176
.426
1.761
.425
-1.968
.426
-.34
.426
3.415
.425
5.54
.426
1.585
.426
4.396
.425
-.069
.426
.314
.426
2.025
.425
.176
.426
-.786
.425
3.918
.426
-.239
.426
1.421
.425
6.276
.426
1.723
.426
1.006
.425
2.899
.426
.327
.426
.34
.425
.025
.426
1.327
.426
-.994
.425
2.925
.426
-.566
.426
.251
.425
1.478
.426
-1.792
.426
-.044
.425
1.314
.426
-1.509
.426
-1.302
.425
-.107
.426
-2.654
.426
-1.339
.425
2.063
.426
.05
.426
-.686
.425
2.943
.426
-.924
.426
1.333
.425
2.679
.426
.327
.426
-.604
.425
2.145
.426
-.767
.426
-.623
.425
3.119
.426
-.603
.426
.239
.425
2.169
.426
-1.308
.426
-1.075
.425
1.176
.426
-1.365
.426
.836
.425
1.277
.426
-1.107
.425
.334
.426
1.867
.426
.491
.425
-1.321
.426
3.704
.426
2.333
.425
-1.094
.426
2.729
.426
-.924
.425
-.73
.426
1.516
.426
-2.038
.425
.013
.426
.019
.426
-2.377
.425
-1.585
.426
3.478
.426
-3.025
.425
-1.352
.426
1.195
.426
-1.585
.425
-.415
.426
1.679
.426
-1.73
.425
-1.201
.426
1.044
.426
-2.798
.425
-.22
.426
1.39
.426
-.629
.425
-2.201
.426
-1.61
.426
-4.107
.425
-1.32
h.426
l.426
-1.503
.425
-1.434
.426
2.993
.426
-1.855
.425
-.547
.426
2.365
.426
-1.327
.425
.295
.426
3.855
.426
-.604
.425
-2.647
.426
3.459
.425
-.195
.426
-2.415
.426
.918
.425
-3.119
.426
-.365
.426
.66
.425
-1.93
.426
-.736
.426
2.333
.425
-.685
.426
-.239
.426
2.817
.425
1.786
.426
3.308
.426
6.42
.425
1.164
.426
-.516
.426
1.698
.425
.352
.426
-1.327
.426
1.717
.425
.484
.426
-1.113
.426
2.082
.425
.874
.426
-.843
.426
1.252
.425
-.252
.426
.113
.426
1.233
.425
2.547
.426
2.723
.426
4.062
.425
1.503
.426
2.969
.426
5.056
.425
-1.12
.426
.686
.426
2.157
.425
-.724
.426
1.132
.426
1.925
.425
.773
.426
1.874
.426
1.453
.425
1.396
.426
.358
.425
.12
.426
-2.723
.426
-2.314
.425
1.345
.426
.019
.426
.793
.425
.742
.426
.264
.426
1.144
.425
3.082
.426
-.566
.426
-.704
.425
1.012
.426
-1.893
.426
1.195
.425
1.415
.426
-1.207
.426
-.403
.425
4.107
.426
-.158
.426
.396
.425
1.994
.426
-3.32
.426
-.9
.425
1.013
.426
-1.717
.426
.843
.425
1.257
.426
1.107
.426
1.415
.425
3.874
.426
1.339
.426
-2.207
.425
-.949
.426
-2.73
.426
-.32
.425
1.352
.426
.056
.426
-.126
.425
1.39
.426
.598
.426
.792
.425
2.522
.426
-4.201
.425
-3.214
.426
.082
.426
-.251
.425
.44
.426
3.037
.426
-.264
.425
1.39
.426
2.968
.426
-1.421
.425
-3.993
.426
-.359
.426
-3.232
.425
-.51
.426
.541
.426
-1.798
.425
.666
.426
2.151
.426
1.119
.425
.824
.426
2.887
.426
-.956
.425
-.082
.426
1.956
.426
-1.283
.425
.572
.426
3.132
.426
.465
.425
.189
.426
2.069
.426
.138
.425
-2.226
.426
-.113
.426
-1.151
.425
-.094
.426
1.182
.426
-.975
.425
.824
.426
3.603
.426
2.396
.425
2.359
.426
3.138
.426
-.233
.425
-.138
.426
3.282
.426
.554
.425
1.723
.426
2.54
.425
2.069
.426
1.22
.426
4.019
.425
-1.27
.426
-2.415
.426
.239
.425
-1.315
.426
-1.509
.426
.799
.425
-.484
.426
2.873
.426
2.899
.425
1.535
.426
.365
.426
.754
.425
-2.452
.426
.075
.426
.78
.425
-1.61
.426
-.824
.426
.415
.425
-2.836
.426
.227
.426
.729
.425
.214
.426
-1.409
.426
-.547
.425
-2.245
.426
-.019
.426
1.61
.425
-1.283
.426
-1.408
.426
2.584
.425
2.063
.426
2.094
.426
2.603
.425
.434
.426
-.629
.426
1.931
.425
-1.415
.426
-.346
.426
2.968
.425
1.491
.426
1.503
.426
2.893
.425
-.145
.426
-.264
.425
1.27
.426
.749
.426
1.1
.425
2.163
.426
.698
.426
1.183
.425
1
.426
.1
.426
1.346
.425
1.239
.426
-2.151
.426
-2.151
.425
1.491
.426
-.076
.426
-1.553
.425
-.346
.426
-1.327
.426
-.949
.425
-.195
.426
-1.006
.426
-1.359
.425
.843
.426
-.088
.426
-1.503
.425
-.591
.426
-2.579
.426
-.698
.425
1.541
.426
-.585
.426
1.113
.425
-.081
.426
-1.547
.426
1.025
.425
.018
.426
-1.251
.426
.258
.425
1.585
.426
.27
.426
1.245
.425
1.811
.426
.032
.426
-1.422
.425
-1.106
.426
-1.019
.426
.767
.425
1.22
.426
.396
.425
-.195
.426
-.025
.426
.069
.425
.68
.426
.125
.426
-1.05
.425
-2.912
.426
.755
.426
-1.742
.425
-.503
.426
1.836
.426
-1.597
.425
1.176
.426
2.094
.426
-2.779
.425
-2.925
.426
-.899
.426
-3.622
.425
-1.157
.426
-.686
.426
-1.723
.425
-.471
.426
.918
.426
-.837
.425
1.522
.426
.654
.426
-3.886
.425
-1.686
.426
-.591
.426
-1.132
.425
.78
.426
.635
.426
-2.616
.425
-.415
.426
-.176
.426
1.49
.425
-1.326
.426
-2.139
.426
-4.509
.425
-1.534
.426
-.912
.426
-4.471
.425
-2.006
.426
1.924
.425
1.554
.426
.704
.426
2.22
.425
-2.151
.426
-1.956
.426
1.233
.425
-.994
.426
-.868
.426
.082
.425
-1.503
.426
1.704
.426
2.585
.425
-.924
.426
-1.705
.426
1.365
.425
-1.855
.426
-.233
.426
1.541
.425
.226
.426
1.893
.426
1.403
.425
1.194
.426
3.541
.426
4.075
.425
-1.579
.426
.956
.426
3.214
.425
1.629
.426
.786
.426
.93
.425
.541
.426
1.591
.426
3.145
.425
.188
.426
-.855
.426
1.968
.425
-.591
.426
1.164
.426
2.735
.425
-.075
.426
.213
.426
2.736
.425
1.459
.426
-.415
.426
1.446
.425
-2.861
.426
-.547
.425
1.163
.426
1.881
.426
2.679
.425
3.597
.426
2.848
.426
2.862
.425
5.326
.426
2.943
.426
2.283
.425
2.088
.426
2.018
.426
2.516
.425
2.107
.426
1.245
.426
1.528
.425
3.358
.426
1.409
.426
-1.239
.425
1.811
.426
.736
.426
-.692
.425
.629
.426
1.182
.426
-.195
.425
.956
.426
.811
.426
.541
.425
2.748
.426
.566
h.426
l.425
-1.39
.426
-2.572
.426
-2.786
.425
-1.188
.426
-1.786
.426
-2.654
.425
-1.465
.426
-1.314
.426
-2.164
.425
-1.761
.426
-2.421
.426
-1.76
.425
-.994
.426
-1.597
.426
-.849
.425
-.415
.426
2.113
.425
.748
.426
1.207
.426
.296
.425
.113
.426
-.075
.426
-.397
.425
.441
.426
1.547
.426
.239
.425
.54
.426
1.283
.426
.459
.425
-.849
.426
.787
.426
.251
.425
-.528
.426
.484
.426
.648
.425
-.761
.426
-.786
.426
.824
.425
-.239
.426
.943
.426
.038
.425
-1.862
.426
-.333
.426
-1.302
h.425
l.426
-.339
.426
-.642
.425
-1.232
.426
-.195
.426
-.711
.425
-.579
.426
1.321
.426
-1.138
.425
-1.459
.426
.465
.426
-1.151
.425
.007
.426
.503
.426
1.547
.425
.289
.426
.604
.426
-.378
.425
-3.131
.426
-.157
.425
-1.101
.426
.786
.426
.006
.425
.22
.426
-1.018
.426
1.32
.425
1.17
.426
.145
.426
1.069
.425
-1.422
.426
-2.364
.426
.101
.425
-1.296
.426
.208
.426
.283
.425
-1.101
.426
-1.094
.426
1.144
.425
-.383
.426
-1.113
.426
1.39
.425
-2.246
.426
-.433
.426
-.73
.425
-1.119
.426
-.799
.426
.252
.425
1.371
.426
-.208
.426
.855
.425
-2.132
.426
-2.163
.426
-.761
.425
.271
.426
-2.447
.426
.032
.425
.182
.426
.164
.426
.446
.425
1.572
.426
-.452
.426
1.119
.425
-.862
.426
-.622
.426
2.981
.425
1.521
.426
-.037
.425
1.553
.426
-.352
.426
-.352
.425
2.572
.426
-.145
.426
-2.408
.425
1.213
.426
.61
.426
-1.025
.425
.925
.426
.999
.426
.642
.425
2.553
.426
2.107
.426
.836
.425
.661
.426
-.051
.426
-.371
.425
.466
.426
-1.126
.426
.522
.425
.126
.426
.836
.426
.635
.425
1.195
.426
.623
.426
-1.529
.425
.233
.426
.535
h.426
l.425
2.226
.426
.434
.426
-.529
.425
-.232
.426
1.855
.426
.126
.425
.742
.426
.629
.426
.176
.425
.163
.426
-.371
.426
-.918
.425
-.05
.426
-.145
.425
-.163
.426
1.238
.426
-.622
.425
-2.522
.426
.434
.426
-.585
.425
.308
.426
-.188
.426
-.874
.425
-.529
.426
.73
.426
.666
.425
-.729
.426
-.541
.426
-.56
.425
-1.521
.426
-.422
.426
-1.364
.425
-.981
.426
-.881
.426
-1.987
.425
-1.534
.426
-1.107
.426
-1.623
.425
-.566
.426
-.132
.426
-2.239
.425
-.603
.426
-.063
.426
-.748
.425
.27
.426
2.044
.426
-1.673
.425
-2.453
.426
-2.257
.426
-3.497
.425
-2.515
.426
-.598
.426
-3.112
.425
-3.755
.426
-1.459
.426
-1.22
.425
-1.66
.426
-1.239
.426
-.748
.425
-1.975
.426
.692
.425
1.534
.426
.239
.426
1.591
.425
1.114
.426
.974
.426
1.359
.425
-.818
.426
-.792
.426
1.144
.425
-.195
.426
-.434
.426
.629
.425
.019
.426
-.339
.426
4.842
.425
3.899
.426
3.572
.426
3.685
.425
3.163
.426
1.22
.426
3.597
.425
3.629
.426
1.823
.426
1.327
.425
2.264
.426
.899
.426
1.95
.425
2.176
.426
1.22
.426
-.529
.425
.761
.426
-.289
.426
.283
.425
.522
.426
.874
.426
1.063
.425
2.151
.426
1.911
.426
1.051
.425
1.314
.426
.151
.426
.277
.425
-.095
.426
-.44
.426
-.566
.425
-.057
.426
-.232
.425
-.057
.426
-.289
.426
-1.679
.425
-1.327
.426
-2.616
.426
-.05
.425
-.598
.426
.39
.426
.484
.425
-.207
.426
-.635
.426
.075
.425
-.503
.426
-2.905
.426
-.629
.425
.465
.426
-1.641
.426
-.233
.425
.05
.426
-.742
.426
-.283
.425
-.163
.426
-.302
.426
-1.006
.425
-1.176
.426
-2.264
.426
.283
.425
.251
.426
.139
.426
-.346
.425
1.302
.426
1.886
.426
1.239
.425
3.138
.426
.201
.426
.592
.425
1.025
h.426
l.426
1.358
.425
.88
.426
.315
.426
1.264
.425
3.779
.426
-.176
.426
-.434
.425
1.371
.426
-.629
.425
.29
.426
1.113
.426
.069
.425
.371
.426
1.333
.426
1.384
.425
1.786
.426
2.723
.426
-.919
.425
-.195
.426
1.277
.426
.962
h.425
l.426
-.232
.426
.333
.425
-1.113
.426
.49
.426
-.742
.425
-1.924
.426
-.893
.426
-2.453
.425
-1.062
.426
.339
.426
.12
.425
-.233
.426
.736
.426
.603
.425
.598
.426
.566
.426
-1.164
.425
-1.119
.426
.547
.426
-.912
.425
.252
.426
.358
.426
-1.018
.425
-.195
.426
1.15
.426
.095
.425
-1.195
.426
-.943
.426
-.793
.425
.315
.426
-.126
.425
.283
.426
-.421
.426
.742
.425
1.106
.426
.887
.426
1.748
.425
.032
.426
-.786
.426
.503
.425
.1
.426
.158
.426
.295
.425
-.239
.426
.855
.426
1.315
.425
.754
.426
.428
.426
1.528
.425
-.119
.426
-.29
.426
1.208
.425
.471
.426
-.138
.426
-.742
.425
.352
.426
-.371
.426
.937
.425
-.094
.426
.534
.426
.459
.425
.271
.426
.736
.426
.981
.425
-.176
.426
.345
.426
1.202
.425
.327
.426
-1.013
.426
.271
.425
-.359
.426
-.05
.426
-.503
.425
-.334
.426
-.106
.426
.471
.425
-.71
.426
-.749
.425
-.365
.426
-.999
.426
-.032
.425
-.924
h.426
l.426
1.031
.425
.522
.426
.893
.426
-.025
.425
.075
.426
-.245
.426
-.566
.425
-.277
.426
-2.402
.426
-1.302
.425
-.276
.426
-.918
.426
-.478
.425
.496
.426
-.547
.426
-1.528
.425
.472
.426
-1.308
.426
.421
.425
.509
.426
-.93
.426
-.29
.425
.158
.426
.264
.426
-.516
.425
1.145
.426
-.591
.426
.427
.425
-.082
.426
.063
.426
-.302
.425
.026
.426
-.371
.426
-.654
.425
-.126
.426
-.403
.426
.145
.425
1.66
.426
.459
.426
.088
.425
.283
.426
-.371
.425
.088
.426
1.648
.426
.868
.425
-.076
.426
1.032
.426
-.246
.425
-1.012
.426
-1.044
.426
-2.239
.425
-1.195
.426
-.471
.426
.314
.425
-.044
.426
-.012
.426
-.592
.425
.283
.426
.095
.426
-1.227
.425
-1.05
.426
.113
.426
-.138
.425
-.277
.426
.755
.426
-.201
.425
-.648
.426
-.685
.426
.094
.425
.22
.426
.855
.426
.038
.425
-.34
.426
1.164
.426
-.793
.425
.315
.426
.094
.426
-.113
.425
1
.426
1.025
.426
.22
.425
-.214
.426
-.05
.426
-1.365
h.425
l.426
.453
.426
-1.063
.425
-.471
.426
.735
.425
-.182
.426
-.075
.426
.584
.425
-.44
.426
.088
.426
-.912
.425
.692
.426
.132
.426
-.377
.425
.327
.426
-.05
.426
-.202
.425
-1.798
.426
-2.34
.426
.365
.425
-1.509
.426
-.038
.426
.113
.425
-1.188
.426
.157
.426
.333
.425
-.346
.426
.239
.426
.919
.425
-.177
.426
-.295
.426
.748
.425
-.289
.426
.314
.426
.705
.425
-1.189
.426
-.522
.426
.862
.425
.27
.426
1.138
.426
.088
.425
1.063
.426
1.12
.426
.358
.425
-.295
.426
.773
.426
2.05
.425
1.535
.426
.578
.426
1.371
.425
-.163
.426
.968
.425
1.365
.426
1.207
.426
-.069
.425
1.006
.426
-.321
.426
.95
.425
.704
.426
-.465
.426
.346
.425
.408
.426
.724
.426
.673
.425
.811
.426
.824
.426
.195
.425
.729
.426
.352
.426
.837
.425
.314
.426
.195
.426
-.56
.425
-.063
.426
-.66
.426
.428
.425
.478
.426
.603
.426
.673
.425
1.484
.426
-.32
.426
.553
.425
-.101
.426
1.497
.426
.069
.425
.843
.426
-.585
.426
.409
.425
1.522
.426
.591
.426
.163
.425
-.49
.426
.094
.426
.811
.425
.258
.426
.378
.425
-.139
.426
.679
.426
.158
.425
.377
.426
-.182
.426
1.27
.425
1.044
.426
1.207
.426
.12
.425
.603
.426
.478
.426
.202
.425
.094
.426
1.107
.426
.553
.425
.39
.426
.157
.426
.403
.425
.704
.426
.692
.426
-.101
.425
.044
.426
.208
.426
.125
.425
.73
.426
.516
.426
.32
.425
.176
.426
.038
.426
.315
.425
.132
.426
.05
.426
.27
.425
.453
.426
-.352
.426
-.019
.425
-.182
.426
-.271
.426
-.566
.425
-.32
.426
-.258
.426
-.378
.425
-.05
.426
-.176
.426
-.088
.425
-.113
.426
-.554
.425
-.805
.426
-.037
.426
-.365
.425
.189
.426
.006
.426
.717
.425
-.302
.426
-.824
.426
.113
.425
-.44
.426
-.22
.426
-.233
.425
-.239
.426
-.025
.426
-.201
.425
-.151
.426
-.201
.426
-.189
.425
-.409
.426
.007
.426
.61
.425
-.258
.426
.088
.426
.258
.425
.138
.426
.195
.426
.403
.425
-.07
.426
.365
.426
.629
.425
.094
.426
.579
.426
.107
.425
.056
.426
-.012
.426
.44
.425
.572
.426
-.037
.426
.578
.425
-.182
.426
-.202
.426
-.012
.425
-.302
.426
-.34
.426
-.194
.425
.377
.426
.088
.425
.113
.426
.113
.426
-.17
.425
.214
.426
-.503
.426
.113
.425
-.125
.426
-.132
.426
-.548
.425
.07
.426
-.365
.426
-.403
.425
.063
.426
-.981
.426
-.541
.425
-.069
.426
-.509
h.426
l.425
-.006
.426
.239
.426
-.038
.425
.641
.426
.365
.426
-.057
.425
.151
.426
.107
.426
.057
.425
-.78
.426
.126
.426
.163
.425
.315
.426
-.245
.426
.031
.425
-.006
.426
-.051
.426
-.251
.425
-.252
.426
.239
.426
.145
.425
.283
.426
.094
.426
.315
.425
.83
.426
.314
.426
-.339
.425
.32
.426
-.195
.425
.239
.426
-.717
.426
-.515
.425
-.264
.426
-.12
.426
-.478
.425
-.063
.426
.271
.426
.421
.425
.761
.426
.157
.426
-.251
.425
-.214
.426
.402
.426
.346
.425
.308
.426
.132
.426
-.113
.425
.277
.426
.327
.426
.119
.425
.636
.426
.371
.426
-.038
.425
.182
.426
.076
.426
.484
.425
.283
.426
.239
.426
.138
.425
.415
.426
.164
.426
.396
.425
-.164
.426
-.031
.426
-.937
.425
-.673
.426
-.075
.426
.037
.425
-.157
.426
.447
.426
.157
.425
-.239
.426
-.478
.425
-.189
.426
-.308
.426
.277
.425
.402
.426
-.012
.426
-.698
.425
-.315
.426
-.138
.426
-.277
.425
-.157
.426
-.245
.426
-.29
.425
-.679
.426
.145
.426
.101
.425
.125
.426
.434
.426
.082
.425
-.371
.426
.654
.426
.711
.425
.301
.426
.277
.426
.271
.425
.345
.426
.195
.426
.076
.425
.239
.426
.591
.426
.302
.425
.144
.426
.007
.426
-.069
.425
.289
.426
.748
.426
.308
.425
.246
.426
.352
.426
.025
.425
.138
.426
-.698
.426
-.346
.425
-.635
.426
-.126
.426
.221
.425
-.145
.426
-.434
.425
.553
.426
-.125
.426
-.353
.425
-.062
.426
-.447
.426
-.748
.425
-.321
.426
-.138
.426
-.189
.425
-.013
.426
-.496
.426
-.139
.425
-.025
.426
.132
.426
-.534
.425
-.547
.426
-.774
.426
-.22
.425
.006
.426
-.038
.426
.101
.425
.176
.426
.969
.426
1.119
.425
.491
.426
.144
.426
-.314
.425
.1
.426
-.107
.426
.202
.425
.201
.426
.761
.426
.61
.425
-.019
.426
.365
.426
-.145
.425
-.063
.426
.239
h.426
l.425
.289
.426
.202
.426
.188
.425
-.125
.426
.144
.426
.063
.425
.774
.426
-.088
.425
-.214
.426
-.157
.426
.075
.425
.075
.426
.164
.426
.057
.425
-.095
.426
.032
.426
.044
.425
.012
.426
.56
.426
-.069
.425
.031
.426
-.05
.426
-.151
.425
.057
.426
.339
.426
.327
.425
.264
.426
-.012
.426
.006
.425
-.358
.426
.377
.426
-.233
.425
-.056
.426
.383
.426
.17
.425
-.277
.426
-.069
.426
-.283
.425
-.302
.426
-.226
.426
-.371
.425
-.082
.426
-.189
.426
.12
.425
-.145
.426
.227
.426
.327
.425
-.044
.426
-.032
.426
-.019
.425
.189
.426
.17
.426
.056
.425
-.062
.426
-.283
.425
-.12
.426
-.044
.426
.038
.425
.364
.426
-.062
.426
.169
.425
-.257
.426
-.057
.426
.05
.425
-.006
.426
.365
.426
.364
.425
.252
.426
.075
.426
.566
.425
-.402
.426
-.069
.426
.012
.425
-.031
.426
-.478
.426
-.195
.425
-.239
.426
.019
.426
.031
.425
-.427
.426
.17
.426
.352
.425
-.302
.426
-.239
.426
-.208
.425
.12
.426
.126
.426
.239
.425
-.076
h.426
l.426
.327
.425
-.434
.426
-.1
.426
.025
.425
-.139
.426
-.503
.426
-.283
.425
.176
.426
-.308
.426
.378
.425
.069
.426
.082
.425
-.089
.426
.321
.426
-.113
.425
-.138
.426
-1.063
.426
-.403
.425
.082
.426
-.805
.426
-.685
.425
.119
.426
-.22
.426
.296
.425
-.453
.426
-.164
.426
-.478
h.425
l.426
-.421
.426
-.063
.425
.233
.426
-.101
.426
-.094
.425
-.409
.426
.007
.426
.377
.425
-.032
.426
-.39
.426
-.276
.425
-.227
.426
-.478
.426
-.113
.425
-.195
.426
.025
.426
-.238
.425
.974
.426
.208
.426
-.201
.425
.327
.426
-.195
.426
-.233
.425
.786
.426
-.239
.426
.245
.425
.076
.426
-.491
.425
-.201
.426
.214
.426
-.05
.425
-.34
.426
.251
.426
.271
.425
.396
.426
.572
.426
-.383
.425
-.176
.426
.383
.426
.334
.425
.333
.426
.415
.426
-.315
.425
-.056
.426
-.308
.426
.069
.425
-1.038
.426
-.899
.426
-.541
.425
-.333
.426
-.258
.426
-.799
.425
-.333
.426
-.975
.426
-.685
.425
-.547
.426
-.082
.426
-.39
.425
-.893
.426
-.251
.426
-.698
.425
-.403
.426
-.484
.426
-.44
.425
-.139
.426
-.239
.426
-.836
.425
-.145
.426
-.484
.426
-1.723
.425
-.402
.426
-.189
.426
-.428
.425
-.314
.426
.151
.425
.113
.426
.352
.426
.604
.425
.295
.426
.617
.426
.905
.425
-.119
.426
1.157
.426
.773
.425
.158
.426
.685
.426
.057
.425
.509
.426
.34
.426
.786
.425
.352
.426
.333
.426
.17
.425
-.239
.426
.579
.426
1.031
.425
-.076
.426
.07" aria-label="line"/>
</svg>
