<svg xmlns="http://www.w3.org/2000/svg" width="830" height="470" fill="currentColor" class="plot-d6a7b5" font-family="system-ui, sans-serif" font-size="10" style="--plot-background:white;display:block;height:intrinsic;max-width:100%;color:#1e90ff" text-anchor="middle" viewBox="0 0 830 470">
    <style>
        :where(.plot-d6a7b5 text),:where(.plot-d6a7b5 tspan){white-space:pre}
    </style>
    <path stroke="currentColor" stroke-opacity=".1" d="
M60
410
h710
M60
378.557
h710
M60
347.114
h710
M60
315.671
h710
M60
284.227
h710
M60
252.784
h710
M60
221.341
h710
M60
189.898
h710
M60
158.455
h710
M60
127.012
h710
M60
95.568
h710
M60
64.125
h710" aria-hidden="true" aria-label="y-grid"/>
    <path fill="none" stroke="currentColor" d="
M60
410
h-6
m6
-31.443
h-6
m6
-31.443
h-6
m6
-31.444
h-6
m6
-31.443
h-6
m6
-31.443
h-6
m6
-31.443
h-6
m6
-31.443
h-6
m6
-31.443
h-6
m6
-31.443
h-6
m6
-31.444
h-6
m6
-31.443
h-6" aria-hidden="true" aria-label="y-axis tick"/>
    <g aria-label="y-axis tick label" font-variant="tabular-nums" text-anchor="end">
        <text y=".32em" transform="translate(51 410)">0</text>
        <text y=".32em" transform="translate(51 378.557)">5,000</text>
        <text y=".32em" transform="translate(51 347.114)">10,000</text>
        <text y=".32em" transform="translate(51 315.67)">15,000</text>
        <text y=".32em" transform="translate(51 284.227)">20,000</text>
        <text y=".32em" transform="translate(51 252.784)">25,000</text>
        <text y=".32em" transform="translate(51 221.341)">30,000</text>
        <text y=".32em" transform="translate(51 189.898)">35,000</text>
        <text y=".32em" transform="translate(51 158.455)">40,000</text>
        <text y=".32em" transform="translate(51 127.012)">45,000</text>
        <text y=".32em" transform="translate(51 95.568)">50,000</text>
        <text y=".32em" transform="translate(51 64.125)">55,000</text>
    </g>
    <text y=".71em" aria-label="y-axis label" text-anchor="start" transform="translate(3 3)">↑ Visible vestiges (30 days)</text>
    <path fill="none" stroke="currentColor" d="
M81.813
410
v6
m58.383
-6
v6
m59.024
-6
v6
m59.024
-6
v6
m58.383
-6
v6
m58.382
-6
v6
m59.024
-6
v6
m59.024
-6
v6
m57.741
-6
v6
m58.382
-6
v6
m59.025
-6
v6
m59.024
-6
v6" aria-hidden="true" aria-label="x-axis tick"/>
    <g aria-label="x-axis tick label" font-variant="tabular-nums">
        <text transform="translate(81.813 419)"><tspan x="0" y=".71em">Apr</tspan><tspan x="0" dy="1em">2023</tspan></text>
        <text y=".71em" transform="translate(140.196 419)">Jul</text>
        <text y=".71em" transform="translate(199.22 419)">Oct</text>
        <text transform="translate(258.244 419)"><tspan x="0" y=".71em">Jan</tspan><tspan x="0" dy="1em">2024</tspan></text>
        <text y=".71em" transform="translate(316.627 419)">Apr</text>
        <text y=".71em" transform="translate(375.009 419)">Jul</text>
        <text y=".71em" transform="translate(434.033 419)">Oct</text>
        <text transform="translate(493.057 419)"><tspan x="0" y=".71em">Jan</tspan><tspan x="0" dy="1em">2025</tspan></text>
        <text y=".71em" transform="translate(550.798 419)">Apr</text>
        <text y=".71em" transform="translate(609.18 419)">Jul</text>
        <text y=".71em" transform="translate(668.205 419)">Oct</text>
        <text transform="translate(727.229 419)"><tspan x="0" y=".71em">Jan</tspan><tspan x="0" dy="1em">2026</tspan></text>
    </g>
    <path fill="none" stroke="currentColor" stroke-linecap="round" stroke-linejoin="round" stroke-width="1.5" d="
m60
410
.428
-3.157
.427
-11.546
.428
-6.226
.428
-4.414
.428
-7.282
.427
-5.736
.428
-5.376
.428
-10.88
.427
-8.609
.428
-10.219
.428
-15.828
.428
-14.923
.427
-7.748
.428
-11.213
.428
-7.615
.427
-8.729
.428
-11.414
.428
-7.684
.428
-7.534
.427
-10.225
.428
-11.339
.428
-8.03
.427
-13.703
.428
-6.49
.428
-6.056
.427
-10.923
.428
-10.458
.428
-8.05
.428
-11.219
.427
-8.03
.428
1.358
.428
-9.565
.427
-8.112
.428
.025
.428
-1.824
.428
-.314
.427
6.282
.428
.082
.428
1.88
.427
10.012
.428
1.471
.428
-6.314
.428
-1.389
.427
-7.654
.428
-1.622
.428
2.597
.427
-4.327
.428
-2.515
.428
2.949
.428
-1.767
.427
-4.641
.428
1.881
.428
-10.458
.427
-10.037
.428
2.553
.428
-1.962
.428
-3.157
.427
1.176
.428
-3.031
.428
-3.169
.427
4.188
.428
-1.421
.428
-6.113
.427
-3.956
.428
-9.797
.428
-4.931
.428
-.069
.427
-3.653
.428
-4
.428
6.113
.427
4.603
.428
2.396
.428
5.754
.428
-2.132
.427
-3.553
.428
4.962
.428
.264
.427
-.365
.428
8.081
.428
4.893
.428
4.081
.427
8.728
.428
5.453
.428
-2.447
.427
3.975
.428
-.491
.428
1.83
.428
8.855
.427
1.037
.428
3.088
.428
9.339
.427
5.653
.428
4.075
.428
7.741
.428
-1.113
.427
-.66
.428
4.019
.428
2.886
.427
1.189
.428
3.571
.428
.548
.428
4.012
.427
6.892
.428
3.295
.428
-3.238
.427
1.716
.428
-2.735
.428
-1.968
.427
1.282
.428
-1.672
.428
1.779
.428
4.509
.427
2.629
.428
2.044
.428
3.962
.427
.018
.428
-2.075
.428
6.157
.428
2.056
.427
-1.031
.428
2.402
.428
-.044
.427
2.05
.428
5.503
.428
.78
.428
-3.044
.427
-1.107
.428
-4.308
.428
-.371
.427
2.484
.428
-1.905
.428
-1.176
.428
4.32
.427
.862
.428
.666
.428
2.597
.427
-4.301
.428
-1.817
.428
2.144
.428
-.987
.427
-1.975
.428
1.912
.428
.258
.427
-.39
.428
3.402
.428
1.075
.427
.422
.428
1.062
.428
-1.962
.428
-.176
.427
1.761
.428
-1.968
.428
-.34
.427
3.415
.428
5.54
.428
1.585
.428
4.396
.427
-.069
.428
.314
.428
2.025
.427
.176
.428
-.786
.428
3.918
.428
-.239
.427
1.421
.428
6.276
.428
1.723
.427
1.006
.428
2.899
.428
.327
.428
.34
.427
.025
.428
1.327
.428
-.994
.427
2.925
.428
-.566
.428
.251
.428
1.478
.427
-1.792
.428
-.044
.428
1.314
.427
-1.509
.428
-1.302
.428
-.107
.428
-2.654
.427
-1.339
.428
2.063
.428
.05
.427
-.686
.428
2.943
.428
-.924
.427
1.333
.428
2.679
.428
.327
.428
-.604
.427
2.145
.428
-.767
.428
-.623
.427
3.119
.428
-.603
.428
.239
.428
2.169
.427
-1.308
.428
-1.075
.428
1.176
.427
-1.365
.428
.836
.428
1.277
.428
-1.107
.427
.334
.428
1.867
.428
.491
.427
-1.321
.428
3.704
.428
2.333
.428
-1.094
.427
2.729
.428
-.924
.428
-.73
.427
1.516
.428
-2.038
.428
.013
.428
.019
.427
-2.377
.428
-1.585
.428
3.478
.427
-3.025
.428
-1.352
.428
1.195
.427
-1.585
.428
-.415
.428
1.679
.428
-1.73
.427
-1.201
.428
1.044
.428
-2.798
.427
-.22
.428
1.39
.428
-.629
.428
-2.201
.427
-1.61
.428
-4.107
.428
-1.32
h.427
l.428
-1.503
.428
-1.434
.428
2.993
.427
-1.855
.428
-.547
.428
2.365
.427
-1.327
.428
.295
.428
3.855
.428
-.604
.427
-2.647
.428
3.459
.428
-.195
.427
-2.415
.428
.918
.428
-3.119
.428
-.365
.427
.66
.428
-1.93
.428
-.736
.427
2.333
.428
-.685
.428
-.239
.428
2.817
.427
1.786
.428
3.308
.428
6.42
.427
1.164
.428
-.516
.428
1.698
.427
.352
.428
-1.327
.428
1.717
.428
.484
.427
-1.113
.428
2.082
.428
.874
.427
-.843
.428
1.252
.428
-.252
.428
.113
.427
1.233
.428
2.547
.428
2.723
.427
4.062
.428
1.503
.428
2.969
.428
5.056
.427
-1.12
.428
.686
.428
2.157
.427
-.724
.428
1.132
.428
1.925
.428
.773
.427
1.874
.428
1.453
.428
1.396
.427
.358
.428
.12
.428
-2.723
.428
-2.314
.427
1.345
.428
.019
.428
.793
.427
.742
.428
.264
.428
1.144
.427
3.082
.428
-.566
.428
-.704
.428
1.012
.427
-1.893
.428
1.195
.428
1.415
.427
-1.207
.428
-.403
.428
4.107
.428
-.158
.427
.396
.428
1.994
.428
-3.32
.427
-.9
.428
1.013
.428
-1.717
.428
.843
.427
1.257
.428
1.107
.428
1.415
.427
3.874
.428
1.339
.428
-2.207
.428
-.949
.427
-2.73
.428
-.32
.428
1.352
.427
.056
.428
-.126
.428
1.39
.428
.598
.427
.792
.428
2.522
.428
-4.201
.427
-3.214
.428
.082
.428
-.251
.428
.44
.427
3.037
.428
-.264
.428
1.39
.427
2.968
.428
-1.421
.428
-3.993
.427
-.359
.428
-3.232
.428
-.51
.428
.541
.427
-1.798
.428
.666
.428
2.151
.427
1.119
.428
.824
.428
2.887
.428
-.956
.427
-.082
.428
1.956
.428
-1.283
.427
.572
.428
3.132
.428
.465
.428
.189
.427
2.069
.428
.138
.428
-2.226
.427
-.113
.428
-1.151
.428
-.094
.428
1.182
.427
-.975
.428
.824
.428
3.603
.427
2.396
.428
2.359
.428
3.138
.428
-.233
.427
-.138
.428
3.282
.428
.554
.427
1.723
.428
2.54
.428
2.069
.427
1.22
.428
4.019
.428
-1.27
.428
-2.415
.427
.239
.428
-1.315
.428
-1.509
.427
.799
.428
-.484
.428
2.873
.428
2.899
.427
1.535
.428
.365
.428
.754
.427
-2.452
.428
.075
.428
.78
.428
-1.61
.427
-.824
.428
.415
.428
-2.836
.427
.227
.428
.729
.428
.214
.428
-1.409
.427
-.547
.428
-2.245
.428
-.019
.427
1.61
.428
-1.283
.428
-1.408
.428
2.584
.427
2.063
.428
2.094
.428
2.603
.427
.434
.428
-.629
.428
1.931
.428
-1.415
.427
-.346
.428
2.968
.428
1.491
.427
1.503
.428
2.893
.428
-.145
.427
-.264
.428
1.27
.428
.749
.428
1.1
.427
2.163
.428
.698
.428
1.183
.427
1
.428
.1
.428
1.346
.428
1.239
.427
-2.151
.428
-2.151
.428
1.491
.427
-.076
.428
-1.553
.428
-.346
.428
-1.327
.427
-.949
.428
-.195
.428
-1.006
.427
-1.359
.428
.843
.428
-.088
.428
-1.503
.427
-.591
.428
-2.579
.428
-.698
.427
1.541
.428
-.585
.428
1.113
.428
-.081
.427
-1.547
.428
1.025
.428
.018
.427
-1.251
.428
.258
.428
1.585
.427
.27
.428
1.245
.428
1.811
.428
.032
.427
-1.422
.428
-1.106
.428
-1.019
.427
.767
.428
1.22
.428
.396
.428
-.195
.427
-.025
.428
.069
.428
.68
.427
.125
.428
-1.05
.428
-2.912
.428
.755
.427
-1.742
.428
-.503
.428
1.836
.427
-1.597
.428
1.176
.428
2.094
.428
-2.779
.427
-2.925
.428
-.899
.428
-3.622
.427
-1.157
.428
-.686
.428
-1.723
.428
-.471
.427
.918
.428
-.837
.428
1.522
.427
.654
.428
-3.886
.428
-1.686
.428
-.591
.427
-1.132
.428
.78
.428
.635
.427
-2.616
.428
-.415
.428
-.176
.427
1.49
.428
-1.326
.428
-2.139
.428
-4.509
.427
-1.534
.428
-.912
.428
-4.471
.427
-2.006
.428
1.924
.428
1.554
.428
.704
.427
2.22
.428
-2.151
.428
-1.956
.427
1.233
.428
-.994
.428
-.868
.428
.082
.427
-1.503
.428
1.704
.428
2.585
.427
-.924
.428
-1.705
.428
1.365
.428
-1.855
.427
-.233
.428
1.541
.428
.226
.427
1.893
.428
1.403
.428
1.194
.428
3.541
.427
4.075
.428
-1.579
.428
.956
.427
3.214
.428
1.629
.428
.786
.427
.93
.428
.541
.428
1.591
.428
3.145
.427
.188
.428
-.855
.428
1.968
.427
-.591
.428
1.164
.428
2.735
.428
-.075
.427
.213
.428
2.736
.428
1.459
.427
-.415
.428
1.446
.428
-2.861
.428
-.547
.427
1.163
.428
1.881
.428
2.679
.427
3.597
.428
2.848
.428
2.862
.428
5.326
.427
2.943
.428
2.283
.428
2.088
.427
2.018
.428
2.516
.428
2.107
.428
1.245
.427
1.528
.428
3.358
.428
1.409
.427
-1.239
.428
1.811
.428
.736
.428
-.692
.427
.629
.428
1.182
.428
-.195
.427
.956
.428
.811
.428
.541
.427
2.748
.428
.566
h.428
l.428
-1.39
.427
-2.572
.428
-2.786
.428
-1.188
.427
-1.786
.428
-2.654
.428
-1.465
.428
-1.314
.427
-2.164
.428
-1.761
.428
-2.421
.427
-1.76
.428
-.994
.428
-1.597
.428
-.849
.427
-.415
.428
2.113
.428
.748
.427
1.207
.428
.296
.428
.113
.428
-.075
.427
-.397
.428
.441
.428
1.547
.427
.239
.428
.54
.428
1.283
.428
.459
.427
-.849
.428
.787
.428
.251
.427
-.528
.428
.484
.428
.648
.427
-.761
.428
-.786
.428
.824
.428
-.239
.427
.943
.428
.038
.428
-1.862
.427
-.333
.428
-1.302
h.428
l.428
-.339
.427
-.642
.428
-1.232
.428
-.195
.427
-.711
.428
-.579
.428
1.321
.428
-1.138
.427
-1.459
.428
.465
.428
-1.151
.427
.007
.428
.503
.428
1.547
.428
.289
.427
.604
.428
-.378
.428
-3.131
.427
-.157
.428
-1.101
.428
.786
.428
.006
.427
.22
.428
-1.018
.428
1.32
.427
1.17
.428
.145
.428
1.069
.428
-1.422
.427
-2.364
.428
.101
.428
-1.296
.427
.208
.428
.283
.428
-1.101
.427
-1.094
.428
1.144
.428
-.383
.428
-1.113
.427
1.39
.428
-2.246
.428
-.433
.427
-.73
.428
-1.119
.428
-.799
.428
.252
.427
1.371
.428
-.208
.428
.855
.427
-2.132
.428
-2.163
.428
-.761
.428
.271
.427
-2.447
.428
.032
.428
.182
.427
.164
.428
.446
.428
1.572
.428
-.452
.427
1.119
.428
-.862
.428
-.622
.427
2.981
.428
1.521
.428
-.037
.428
1.553
.427
-.352
.428
-.352
.428
2.572
.427
-.145
.428
-2.408
.428
1.213
.427
.61
.428
-1.025
.428
.925
.428
.999
.427
.642
.428
2.553
.428
2.107
.427
.836
.428
.661
.428
-.051
.428
-.371
.427
.466
.428
-1.126
.428
.522
.427
.126
.428
.836
.428
.635
.428
1.195
.427
.623
.428
-1.529
.428
.233
.427
.535
h.428
l.428
2.226
.428
.434
.427
-.529
.428
-.232
.428
1.855
.427
.126
.428
.742
.428
.629
.428
.176
.427
.163
.428
-.371
.428
-.918
.427
-.05
.428
-.145
.428
-.163
.428
1.238
.427
-.622
.428
-2.522
.428
.434
.427
-.585
.428
.308
.428
-.188
.427
-.874
.428
-.529
.428
.73
.428
.666
.427
-.729
.428
-.541
.428
-.56
.427
-1.521
.428
-.422
.428
-1.364
.428
-.981
.427
-.881
.428
-1.987
.428
-1.534
.427
-1.107
.428
-1.623
.428
-.566
.428
-.132
.427
-2.239
.428
-.603
.428
-.063
.427
-.748
.428
.27
.428
2.044
.428
-1.673
.427
-2.453
.428
-2.257
.428
-3.497
.427
-2.515
.428
-.598
.428
-3.112
.428
-3.755
.427
-1.459
.428
-1.22
.428
-1.66
.427
-1.239
.428
-.748
.428
-1.975
.427
.692
.428
1.534
.428
.239
.428
1.591
.427
1.114
.428
.974
.428
1.359
.427
-.818
.428
-.792
.428
1.144
.428
-.195
.427
-.434
.428
.629
.428
.019
.427
-.339
.428
4.842
.428
3.899
.428
3.572
.427
3.685
.428
3.163
.428
1.22
.427
3.597
.428
3.629
.428
1.823
.428
1.327
.427
2.264
.428
.899
.428
1.95
.427
2.176
.428
1.22
.428
-.529
.428
.761
.427
-.289
.428
.283
.428
.522
.427
.874
.428
1.063
.428
2.151
.428
1.911
.427
1.051
.428
1.314
.428
.151
.427
.277
.428
-.095
.428
-.44
.427
-.566
.428
-.057
.428
-.232
.428
-.057
.427
-.289
.428
-1.679
.428
-1.327
.427
-2.616
.428
-.05
.428
-.598
.428
.39
.427
.484
.428
-.207
.428
-.635
.427
.075
.428
-.503
.428
-2.905
.428
-.629
.427
.465
.428
-1.641
.428
-.233
.427
.05
.428
-.742
.428
-.283
.428
-.163
.427
-.302
.428
-1.006
.428
-1.176
.427
-2.264
.428
.283
.428
.251
.428
.139
.427
-.346
.428
1.302
.428
1.886
.427
1.239
.428
3.138
.428
.201
.427
.592
.428
1.025
h.428
l.428
1.358
.427
.88
.428
.315
.428
1.264
.427
3.779
.428
-.176
.428
-.434
.428
1.371
.427
-.629
.428
.29
.428
1.113
.427
.069
.428
.371
.428
1.333
.428
1.384
.427
1.786
.428
2.723
.428
-.919
.427
-.195
.428
1.277
.428
.962
h.428
l.427
-.232
.428
.333
.428
-1.113
.427
.49
.428
-.742
.428
-1.924
.428
-.893
.427
-2.453
.428
-1.062
.428
.339
.427
.12
.428
-.233
.428
.736
.428
.603
.427
.598
.428
.566
.428
-1.164
.427
-1.119
.428
.547
.428
-.912
.427
.252
.428
.358
.428
-1.018
.428
-.195
.427
1.15
.428
.095
.428
-1.195
.427
-.943
.428
-.793
.428
.315
.428
-.126
.427
.283
.428
-.421
.428
.742
.427
1.106
.428
.887
.428
1.748
.428
.032
.427
-.786
.428
.503
.428
.1
.427
.158
.428
.295
.428
-.239
.428
.855
.427
1.315
.428
.754
.428
.428
.427
1.528
.428
-.119
.428
-.29
.428
1.208
.427
.471
.428
-.138
.428
-.742
.427
.352
.428
-.371
.428
.937
.427
-.094
.428
.534
.428
.459
.428
.271
.427
.736
.428
.981
.428
-.176
.427
.345
.428
1.202
.428
.327
.428
-1.013
.427
.271
.428
-.359
.428
-.05
.427
-.503
.428
-.334
.428
-.106
.428
.471
.427
-.71
.428
-.749
.428
-.365
.427
-.999
.428
-.032
.428
-.924
h.428
l.427
1.031
.428
.522
.428
.893
.427
-.025
.428
.075
.428
-.245
.428
-.566
.427
-.277
.428
-2.402
.428
-1.302
.427
-.276
.428
-.918
.428
-.478
.428
.496
.427
-.547
.428
-1.528
.428
.472
.427
-1.308
.428
.421
.428
.509
.427
-.93
.428
-.29
.428
.158
.428
.264
.427
-.516
.428
1.145
.428
-.591
.427
.427
.428
-.082
.428
.063
.428
-.302
.427
.026
.428
-.371
.428
-.654
.427
-.126
.428
-.403
.428
.145
.428
1.66
.427
.459
.428
.088
.428
.283
.427
-.371
.428
.088
.428
1.648
.428
.868
.427
-.076
.428
1.032
.428
-.246
.427
-1.012
.428
-1.044
.428
-2.239
.428
-1.195
.427
-.471
.428
.314
.428
-.044
.427
-.012
.428
-.592
.428
.283
.427
.095
.428
-1.227
.428
-1.05
.428
.113
.427
-.138
.428
-.277
.428
.755
.427
-.201
.428
-.648
.428
-.685
.428
.094
.427
.22
.428
.855
.428
.038
.427
-.34
.428
1.164
.428
-.793
.428
.315
.427
.094
.428
-.113
.428
1
.427
1.025
.428
.22
.428
-.214
.428
-.05
.427
-1.365
h.428
l.428
.453
.427
-1.063
.428
-.471
.428
.735
.428
-.182
.427
-.075
.428
.584
.428
-.44
.427
.088
.428
-.912
.428
.692
.428
.132
.427
-.377
.428
.327
.428
-.05
.427
-.202
.428
-1.798
.428
-2.34
.427
.365
.428
-1.509
.428
-.038
.428
.113
.427
-1.188
.428
.157
.428
.333
.427
-.346
.428
.239
.428
.919
.428
-.177
.427
-.295
.428
.748
.428
-.289
.427
.314
.428
.705
.428
-1.189
.428
-.522
.427
.862
.428
.27
.428
1.138
.427
.088
.428
1.063
.428
1.12
.428
.358
.427
-.295
.428
.773
.428
2.05
.427
1.535
.428
.578
.428
1.371
.428
-.163
.427
.968
.428
1.365
.428
1.207
.427
-.069
.428
1.006
.428
-.321
.427
.95
.428
.704
.428
-.465
.428
.346
.427
.408
.428
.724
.428
.673
.427
.811
.428
.824
.428
.195
.428
.729
.427
.352
.428
.837
.428
.314
.427
.195
.428
-.56
.428
-.063
.428
-.66
.427
.428
.428
.478
.428
.603
.427
.673
.428
1.484
.428
-.32
.428
.553
.427
-.101
.428
1.497
.428
.069
.427
.843
.428
-.585
.428
.409
.428
1.522
.427
.591
.428
.163
.428
-.49
.427
.094
.428
.811
.428
.258
.428
.378
.427
-.139
.428
.679
.428
.158
.427
.377
.428
-.182
.428
1.27
.427
1.044
.428
1.207
.428
.12
.428
.603
.427
.478
.428
.202
.428
.094
.427
1.107
.428
.553
.428
.39
.428
.157
.427
.403
.428
.704
.428
.692
.427
-.101
.428
.044
.428
.208
.428
.125
.427
.73
.428
.516
.428
.32
.427
.176
.428
.038
.428
.315
.428
.132
.427
.05
.428
.27
.428
.453
.427
-.352
.428
-.019
.428
-.182
.428
-.271
.427
-.566
.428
-.32
.428
-.258
.427
-.378
.428
-.05
.428
-.176
.427
-.088
.428
-.113
.428
-.554
.428
-.805
.427
-.037
.428
-.365
.428
.189
.427
.006
.428
.717
.428
-.302
.428
-.824
.427
.113
.428
-.44
.428
-.22
.427
-.233
.428
-.239
.428
-.025
.428
-.201
.427
-.151
.428
-.201
.428
-.189
.427
-.409
.428
.007
.428
.61
.428
-.258
.427
.088
.428
.258
.428
.138
.427
.195
.428
.403
.428
-.07
.428
.365
.427
.629
.428
.094
.428
.579
.427
.107
.428
.056
.428
-.012
.428
.44
.427
.572
.428
-.037
.428
.578
.427
-.182
.428
-.202
.428
-.012
.427
-.302
.428
-.34
.428
-.194
.428
.377
.427
.088
.428
.113
.428
.113
.427
-.17
.428
.214
.428
-.503
.428
.113
.427
-.125
.428
-.132
.428
-.548
.427
.07
.428
-.365
.428
-.403
.428
.063
.427
-.981
.428
-.541
.428
-.069
.427
-.509
h.428
l.428
-.006
.428
.239
.427
-.038
.428
.641
.428
.365
.427
-.057
.428
.151
.428
.107
.428
.057
.427
-.78
.428
.126
.428
.163
.427
.315
.428
-.245
.428
.031
.427
-.006
.428
-.051
.428
-.251
.428
-.252
.427
.239
.428
.145
.428
.283
.427
.094
.428
.315
.428
.83
.428
.314
.427
-.339
.428
.32
.428
-.195
.427
.239
.428
-.717
.428
-.515
.428
-.264
.427
-.12
.428
-.478
.428
-.063
.427
.271
.428
.421
.428
.761
.428
.157
.427
-.251
.428
-.214
.428
.402
.427
.346
.428
.308
.428
.132
.428
-.113
.427
.277
.428
.327
.428
.119
.427
.636
.428
.371
.428
-.038
.428
.182
.427
.076
.428
.484
.428
.283
.427
.239
.428
.138
.428
.415
.427
.164
.428
.396
.428
-.164
.428
-.031
.427
-.937
.428
-.673
.428
-.075
.427
.037
.428
-.157
.428
.447
.428
.157
.427
-.239
.428
-.478
.428
-.189
.427
-.308
.428
.277
.428
.402
.428
-.012
.427
-.698
.428
-.315
.428
-.138
.427
-.277
.428
-.157
.428
-.245
.428
-.29
.427
-.679
.428
.145
.428
.101
.427
.125
.428
.434
.428
.082
.428
-.371
.427
.654
.428
.711
.428
.301
.427
.277
.428
.271
.428
.345
.427
.195
.428
.076
.428
.239
.428
.591
.427
.302
.428
.144
.428
.007
.427
-.069
.428
.289
.428
.748
.428
.308
.427
.246
.428
.352
.428
.025
.427
.138
.428
-.698
.428
-.346
.428
-.635
.427
-.126
.428
.221
.428
-.145
.427
-.434
.428
.553
.428
-.125
.428
-.353
.427
-.062
.428
-.447
.428
-.748
.427
-.321
.428
-.138
.428
-.189
.428
-.013
.427
-.496
.428
-.139
.428
-.025
.427
.132
.428
-.534
.428
-.547
.428
-.774
.427
-.22
.428
.006
.428
-.038
.427
.101
.428
.176
.428
.969
.427
1.119
.428
.491
.428
.144
.428
-.314
.427
.1
.428
-.107
.428
.202
.427
.201
.428
.761
.428
.61
.428
-.019
.427
.365
.428
-.145
.428
-.063
.427
.239
h.428
l.428
.289
.428
.202
.427
.188
.428
-.125
.428
.144
.427
.063
.428
.774
.428
-.088
.428
-.214
.427
-.157
.428
.075
.428
.075
.427
.164
.428
.057
.428
-.095
.428
.032
.427
.044
.428
.012
.428
.56
.427
-.069
.428
.031
.428
-.05
.427
-.151
.428
.057
.428
.339
.428
.327
.427
.264
.428
-.012
.428
.006
.427
-.358
.428
.377
.428
-.233
.428
-.056
.427
.383
.428
.17
.428
-.277
.427
-.069
.428
-.283
.428
-.302
.428
-.226
.427
-.371
.428
-.082
.428
-.189
.427
.12
.428
-.145
.428
.227
.428
.327
.427
-.044
.428
-.032
.428
-.019
.427
.189
.428
.17
.428
.056
.428
-.062
.427
-.283
.428
-.12
.428
-.044
.427
.038
.428
.364
.428
-.062
.428
.169
.427
-.257
.428
-.057
.428
.05
.427
-.006
.428
.365
.428
.364
.427
.252
.428
.075
.428
.566
.428
-.402
.427
-.069
.428
.012
.428
-.031
.427
-.478
.428
-.195
.428
-.239
.428
.019
.427
.031
.428
-.427
.428
.17
.427
.352
.428
-.302
.428
-.239
.428
-.208
.427
.12
.428
.126
.428
.239
.427
-.076
h.428
l.428
.327
.428
-.434
.427
-.1
.428
.025
.428
-.139
.427
-.503
.428
-.283
.428
.176
.428
-.308
.427
.378
.428
.069
.428
.082
.427
-.089
.428
.321
.428
-.113
.427
-.138
.428
-1.063
.428
-.403
.428
.082
.427
-.805
.428
-.685
.428
.119
.427
-.22
.428
.296
.428
-.453
.428
-.164
.427
-.478
h.428
l.428
-.421
.427
-.063
.428
.233
.428
-.101
.428
-.094
.427
-.409
.428
.007
.428
.377
.427
-.032
.428
-.39
.428
-.276
.428
-.227
.427
-.478
.428
-.113
.428
-.195
.427
.025
.428
-.238
.428
.974
.428
.208
.427
-.201
.428
.327
.428
-.195
.427
-.233
.428
.786
.428
-.239
.428
.245
.427
.076
.428
-.491
.428
-.201
.427
.214
.428
-.05
.428
-.34
.427
.251
.428
.271
.428
.396
.428
.572
.427
-.383
.428
-.176
.428
.383
.427
.334
.428
.333
.428
.415
.428
-.315
.427
-.056
.428
-.308
.428
.069
.427
-1.038
.428
-.899
.428
-.541
.428
-.333
.427
-.258
.428
-.799
.428
-.333
.427
-.975
.428
-.685
.428
-.547
.428
-.082
.427
-.39
.428
-.893
.428
-.251
.427
-.698
.428
-.403
.428
-.484
.428
-.44
.427
-.139
.428
-.239
.428
-.836
.427
-.145
.428
-.484
.428
-1.723
.427
-.402
.428
-.189
.428
-.428
.428
-.314
.427
.151
.428
.113
.428
.352
.427
.604
.428
.295
.428
.617
.428
.905
.427
-.119
.428
1.157
.428
.773
.427
.158
.428
.685
.428
.057
.428
.509
.427
.34
.428
.786" aria-label="line"/>
</svg>
