<?xml version="1.0"?>
<svg xmlns="http://www.w3.org/2000/svg" xmlns:xlink="http://www.w3.org/1999/xlink" class="plot-d6a7b5" fill="currentColor" font-family="system-ui, sans-serif" font-size="10" text-anchor="middle" width="830" height="470" viewBox="0 0 830 470" color="#1e90ff">
  <style>:where(.plot-d6a7b5){--plot-background: white;display:block;height:intrinsic;max-width:100%}:where(.plot-d6a7b5 text),:where(.plot-d6a7b5 tspan){white-space:pre}</style>
  <g aria-label="y-grid" stroke="currentColor" stroke-opacity=".1">
    <line x1="60" x2="770" y1="410" y2="410"/>
    <line x1="60" x2="770" y1="360.939" y2="360.939"/>
    <line x1="60" x2="770" y1="311.878" y2="311.878"/>
    <line x1="60" x2="770" y1="262.817" y2="262.817"/>
    <line x1="60" x2="770" y1="213.757" y2="213.757"/>
    <line x1="60" x2="770" y1="164.696" y2="164.696"/>
    <line x1="60" x2="770" y1="115.635" y2="115.635"/>
    <line x1="60" x2="770" y1="66.574" y2="66.574"/>
  </g>
  <g aria-label="y-axis tick" fill="none" stroke="currentColor">
    <path transform="translate(60,410)" d="M0,0L-6,0"/>
    <path transform="translate(60,360.9391645640594)" d="M0,0L-6,0"/>
    <path transform="translate(60,311.8783291281189)" d="M0,0L-6,0"/>
    <path transform="translate(60,262.8174936921783)" d="M0,0L-6,0"/>
    <path transform="translate(60,213.7566582562377)" d="M0,0L-6,0"/>
    <path transform="translate(60,164.69582282029717)" d="M0,0L-6,0"/>
    <path transform="translate(60,115.6349873843566)" d="M0,0L-6,0"/>
    <path transform="translate(60,66.57415194841604)" d="M0,0L-6,0"/>
  </g>
  <g aria-label="y-axis tick label" text-anchor="end" font-variant="tabular-nums">
    <text y=".32em" transform="translate(-9,0) translate(60,410)">0</text>
    <text y=".32em" transform="translate(-9,0) translate(60,360.9391645640594)">1,000</text>
    <text y=".32em" transform="translate(-9,0) translate(60,311.8783291281189)">2,000</text>
    <text y=".32em" transform="translate(-9,0) translate(60,262.8174936921783)">3,000</text>
    <text y=".32em" transform="translate(-9,0) translate(60,213.7566582562377)">4,000</text>
    <text y=".32em" transform="translate(-9,0) translate(60,164.69582282029717)">5,000</text>
    <text y=".32em" transform="translate(-9,0) translate(60,115.6349873843566)">6,000</text>
    <text y=".32em" transform="translate(-9,0) translate(60,66.57415194841604)">7,000</text>
  </g>
  <g aria-label="y-axis label" text-anchor="start">
    <text y=".71em" transform="translate(-57,-57) translate(60,60)">&#x2191; Visible Vestiges (4 days)</text>
  </g>
  <g aria-label="x-axis tick" fill="none" stroke="currentColor">
    <path transform="translate(88.26697892271663,410)" d="M0,0L0,6"/>
    <path transform="translate(163.92271662763466,410)" d="M0,0L0,6"/>
    <path transform="translate(240.40983606557378,410)" d="M0,0L0,6"/>
    <path transform="translate(316.89695550351286,410)" d="M0,0L0,6"/>
    <path transform="translate(392.5526932084309,410)" d="M0,0L0,6"/>
    <path transform="translate(468.20843091334893,410)" d="M0,0L0,6"/>
    <path transform="translate(544.695550351288,410)" d="M0,0L0,6"/>
    <path transform="translate(621.1826697892271,410)" d="M0,0L0,6"/>
    <path transform="translate(696.007025761124,410)" d="M0,0L0,6"/>
  </g>
  <g aria-label="x-axis tick label" font-variant="tabular-nums">
    <text transform="translate(0,9) translate(88.26697892271663,410)">
      <tspan x="0" y=".71em">Apr</tspan>
      <tspan x="0" dy="1em">2023</tspan>
    </text>
    <text y=".71em" transform="translate(0,9) translate(163.92271662763466,410)">Jul</text>
    <text y=".71em" transform="translate(0,9) translate(240.40983606557378,410)">Oct</text>
    <text transform="translate(0,9) translate(316.89695550351286,410)">
      <tspan x="0" y=".71em">Jan</tspan>
      <tspan x="0" dy="1em">2024</tspan>
    </text>
    <text y=".71em" transform="translate(0,9) translate(392.5526932084309,410)">Apr</text>
    <text y=".71em" transform="translate(0,9) translate(468.20843091334893,410)">Jul</text>
    <text y=".71em" transform="translate(0,9) translate(544.695550351288,410)">Oct</text>
    <text transform="translate(0,9) translate(621.1826697892271,410)">
      <tspan x="0" y=".71em">Jan</tspan>
      <tspan x="0" dy="1em">2025</tspan>
    </text>
    <text y=".71em" transform="translate(0,9) translate(696.007025761124,410)">Apr</text>
  </g>
  <g aria-label="line" fill="none" stroke="currentColor" stroke-width="1.5" stroke-linejoin="round" stroke-linecap="round">
    <path d="M60,410L60.554,385.371L61.109,295.296L61.663,246.726L62.217,236.913L62.771,270.177L63.326,274.003L63.88,266.497L64.434,238.434L64.988,216.013L65.543,178.237L66.097,139.626L66.651,90.369L67.205,109.65L67.76,145.66L68.314,202.669L68.868,195.015L69.422,193.445L69.977,192.906L70.531,202.227L71.085,211.5L71.639,182.996L72.194,179.12L72.748,151.989L73.302,189.815L73.856,205.22L74.411,226.905L74.965,195.948L75.519,180.395L76.073,178.089L76.628,172.398L77.182,155.718L77.736,120.05L78.29,109.601L78.845,132.463L79.399,196.683L79.953,250.013L80.507,270.765L81.062,263.21L81.616,242.555L82.17,233.038L82.724,194.623L83.279,149.978L83.833,97.041L84.387,82.862L84.941,111.808L85.496,141.343L86.05,166.756L86.604,169.111L87.158,181.131L87.713,172.595L88.267,152.136L88.821,116.665L89.375,86.689L89.93,60L90.484,86.934L91.038,122.258L91.593,160.378L92.147,147.328L92.701,133.297L93.255,116.518L93.81,104.351L94.364,106.461L94.918,106.362L95.472,107.049L96.027,95.029L96.581,125.006L97.135,147.77L97.689,175.048L98.244,172.791L98.798,182.603L99.352,202.375L99.906,199.333L100.461,182.358L101.015,158.759L101.569,141.883L102.123,161.114L102.678,182.161L103.232,219.055L103.786,234.853L104.34,250.503L104.895,249.718L105.449,224.795L106.003,202.473L106.557,178.482L107.112,176.716L107.666,168.474L108.22,188.785L108.774,212.825L109.329,207.967L109.883,205.613L110.437,211.5L110.991,247.412L111.546,255.802L112.1,231.32L112.654,208.507L113.208,194.329L113.763,192.562L114.317,221.508L114.871,245.744L115.425,262.033L115.98,240.74L116.534,245.793L117.088,248.099L117.642,252.662L118.197,215.327L118.751,195.997L119.305,185.841L119.859,211.549L120.414,223.814L120.968,231.32L121.522,235.638L122.077,238.483L122.631,248.05L123.185,248.345L123.739,235.834L124.294,235.785L124.848,227.69L125.402,239.955L125.956,253.496L126.511,267.527L127.065,274.151L127.619,266.154L128.173,265.712L128.728,267.086L129.282,259.334L129.836,217.829L130.39,195.212L130.945,179.757L131.499,216.897L132.053,223.618L132.607,247.412L133.162,243.438L133.716,262.327L134.27,246.578L134.824,241.623L135.379,218.025L135.933,203.454L136.487,196.34L137.041,200.314L137.596,230.486L138.15,232.105L138.704,239.857L139.258,249.865L139.813,249.718L140.367,261.297L140.921,259.579L141.475,278.174L142.03,273.464L142.584,263.799L143.138,265.761L143.692,263.21L144.247,262.719L144.801,262.817L145.355,267.969L145.909,285.042L146.464,277.438L147.018,269.637L147.572,263.014L148.126,259.825L148.681,265.123L149.235,263.063L149.789,273.366L150.343,272.384L150.898,264.191L151.452,257.813L152.006,261.64L152.56,269.833L153.115,270.569L153.669,274.396L154.223,265.123L154.778,267.675L155.332,255.262L155.886,262.916L156.44,264.093L156.995,284.993L157.549,288.82L158.103,293.824L158.657,272.875L159.212,265.271L159.766,260.414L160.32,258.647L160.874,260.953L161.429,256.292L161.983,262.278L162.537,245.744L163.091,237.649L163.646,247.952L164.2,265.859L164.754,276.26L165.308,281.068L165.863,283.766L166.417,298.534L166.971,288.28L167.525,291.665L168.08,280.381L168.634,284.404L169.188,276.604L169.742,280.283L170.297,278.615L170.851,282.442L171.405,276.751L171.959,276.996L172.514,272.679L173.068,283.325L173.622,279.4L174.176,283.963L174.731,277.928L175.285,271.109L175.839,268.263L176.393,262.572L176.948,269.49L177.502,277.29L178.056,270.373L178.61,268.165L179.165,274.445L179.719,286.514L180.273,296.817L180.827,281.804L181.382,289.458L181.936,282.687L182.49,288.771L183.044,284.306L183.599,276.015L184.153,262.082L184.707,253.643L185.262,272.826L185.816,271.452L186.37,271.599L186.924,257.617L187.479,263.161L188.033,270.716L188.587,270.177L189.141,279.694L189.696,269.637L190.25,269.244L190.804,254.87L191.358,255.704L191.913,255.556L192.467,266.791L193.021,258.255L193.575,242.653L194.13,208.605L194.684,213.266L195.238,232.105L195.792,264.486L196.347,273.905L196.901,282.246L197.455,287.152L198.009,287.299L198.564,288.476L199.118,288.133L199.672,286.416L200.226,284.11L200.781,281.313L201.335,277.536L201.889,273.071L202.443,276.407L202.998,264.24L203.552,249.964L204.106,234.706L204.66,250.16L205.215,257.666L205.769,256.881L206.323,253.594L206.877,252.269L207.432,262.817L207.986,266.546L208.54,281.559L209.094,292.303L209.649,304.372L210.203,298.436L210.757,298.239L211.311,287.25L211.866,282.785L212.42,285.876L212.974,287.888L213.528,292.941L214.083,294.118L214.637,296.964L215.191,299.466L215.746,300.791L216.3,300.594L216.854,291.322L217.408,278.762L217.963,281.755L218.517,284.944L219.071,294.609L219.625,300.692L220.18,307.512L220.734,314.822L221.288,324.242L221.842,331.208L222.397,307.463L222.951,288.329L223.505,276.26L224.059,283.08L224.614,301.576L225.168,310.505L225.722,334.25L226.276,334.103L226.831,330.227L227.385,324.094L227.939,307.806L228.493,300.496L229.048,270.373L229.602,254.575L230.156,265.32L230.71,289.556L231.265,316.294L231.819,312.909L232.373,314.626L232.927,308.101L233.482,313.792L234.036,310.308L234.59,299.073L235.144,292.597L235.699,288.329L236.253,309.965L236.807,320.415L237.361,335.182L237.916,329.687L238.47,326.94L239.024,315.999L239.578,310.161L240.133,300.496L240.687,294.315L241.241,293.137L241.795,309.229L242.35,321.592L242.904,331.306L243.458,327.087L244.012,332.827L244.567,329.982L245.121,320.268L245.675,306.285L246.23,288.771L246.784,275.377L247.338,270.373L247.892,281.706L248.447,301.379L249.001,316.588L249.555,323.8L250.109,320.611L250.664,313.595L251.218,314.282L251.772,318.845L252.326,303.047L252.881,282.246L253.435,277.977L253.989,303.293L254.543,329.05L255.098,341.168L255.652,335.231L256.206,332.974L256.76,326.253L257.315,316.049L257.869,290.144L258.423,276.555L258.977,272.139L259.532,295.1L260.086,307.855L260.64,316.196L261.194,315.656L261.749,314.233L262.303,319.483L262.857,307.316L263.411,308.052L263.966,303.195L264.52,315.803L265.074,323.751L265.628,328.412L266.183,330.325L266.737,332.484L267.291,346.81L267.845,348.38L268.4,324.291L268.954,300.938L269.508,277.83L270.062,286.121L270.617,301.821L271.171,330.571L271.725,334.741L272.279,333.858L272.834,334.299L273.388,342.983L273.942,343.375L274.496,341.756L275.051,333.71L275.605,336.163L276.159,329.442L276.714,338.911L277.268,344.504L277.822,357.603L278.376,357.063L278.931,356.72L279.485,353.531L280.039,360.203L280.593,346.761L281.148,326.351L281.702,301.526L282.256,303.096L282.81,312.32L283.365,331.012L283.919,339.058L284.473,349.165L285.027,342.198L285.582,334.839L286.136,323.555L286.69,322.525L287.244,320.17L287.799,322.083L288.353,321.396L288.907,328.412L289.461,330.08L290.016,327.627L290.57,316.441L291.124,316.588L291.678,321.494L292.233,338.567L292.787,335.28L293.341,330.914L293.895,324.83L294.45,335.133L295.004,351.618L295.558,355.935L296.112,351.765L296.667,345.927L297.221,351.618L297.775,354.12L298.329,355.837L298.884,352.354L299.438,349.802L299.992,352.599L300.546,348.281L301.101,343.523L301.655,344.258L302.209,355.641L302.763,369.034L303.318,366.091L303.872,355.248L304.426,340.775L304.98,335.133L305.535,343.768L306.089,351.961L306.643,347.742L307.198,347.496L307.752,353.04L308.306,361.037L308.86,353.089L309.415,349.999L309.969,345.779L310.523,338.518L311.077,327.725L311.632,334.005L312.186,346.025L312.74,344.847L313.294,336.213L313.849,328.951L314.403,335.378L314.957,333.073L315.511,333.024L316.066,332.631L316.62,336.409L317.174,338.813L317.728,338.42L318.283,338.616L318.837,332.582L319.391,335.918L319.945,341.707L320.5,342.787L321.054,351.274L321.608,347.251L322.162,347.938L322.717,343.032L323.271,343.572L323.825,351.421L324.379,353.433L324.934,357.701L325.488,366.483L326.042,369.966L326.596,364.472L327.151,351.814L327.705,337.292L328.259,326.548L328.813,317.177L329.368,325.615L329.922,336.507L330.476,353.973L331.03,344.16L331.585,334.397L332.139,331.454L332.693,342.051L333.247,345.632L333.802,336.507L334.356,308.689L334.91,307.561L335.464,305.5L336.019,330.08L336.573,339.598L337.127,349.214L337.681,358.29L338.236,360.988L338.79,346.859L339.344,315.411L339.899,299.907L340.453,295.345L341.007,313.399L341.561,323.849L342.116,342.149L342.67,342.002L343.224,341.854L343.778,334.25L344.333,339.058L344.887,327.627L345.441,312.271L345.995,298.141L346.55,305.893L347.104,317.569L347.658,327.038L348.212,333.661L348.767,332.68L349.321,326.94L349.875,311.486L350.429,315.705L350.984,307.463L351.538,290.095L352.092,267.871L352.646,275.77L353.201,294.952L353.755,304.323L354.309,303.342L354.863,311.339L355.418,326.891L355.972,332.533L356.526,330.276L357.08,319.434L357.635,309.131L358.189,319.728L358.743,328.608L359.297,336.948L359.852,320.366L360.406,321.2L360.96,329.835L361.514,334.005L362.069,324.389L362.623,305.549L363.177,307.708L363.731,309.916L364.286,328.019L364.84,328.412L365.394,338.911L365.948,340.039L366.503,343.179L367.057,342.492L367.611,337.979L368.165,336.605L368.72,322.868L369.274,321.887L369.828,324.536L370.383,348.576L370.937,355.248L371.491,352.991L372.045,350.146L372.6,354.169L373.154,360.596L373.708,347.546L374.262,339.058L374.817,338.764L375.371,341.02L375.925,340.186L376.479,347.006L377.034,359.664L377.588,356.426L378.142,346.81L378.696,339.941L379.251,337.194L379.805,329.344L380.359,313.743L380.913,313.105L381.468,321.396L382.022,359.516L382.576,387.825L383.13,406.124L383.685,409.166L384.239,409.215L384.793,408.97L385.347,408.724L385.902,406.86L386.456,405.634L387.01,405.094L387.564,404.652L388.119,401.954L388.673,399.943L389.227,398.667L389.781,395.38L390.336,388.168L390.89,366.287L391.444,356.475L391.998,350.391L392.553,361.479L393.107,364.913L393.661,365.158L394.215,359.418L394.77,355.101L395.324,349.459L395.878,347.349L396.432,345.73L396.987,343.179L397.541,347.251L398.095,353.089L398.649,356.916L399.204,353.482L399.758,358.094L400.312,364.275L400.867,365.06L401.421,362.656L401.975,364.472L402.529,367.072L403.084,364.226L403.638,355.15L404.192,355.592L404.746,359.565L405.301,364.717L405.855,368.544L406.409,365.845L406.963,372.91L407.518,375.559L408.072,382.133L408.626,379.043L409.18,377.522L409.735,367.759L410.289,356.622L410.843,354.856L411.397,361.871L411.952,364.717L412.506,363.883L413.06,359.271L413.614,365.06L414.169,360.056L414.723,360.007L415.277,354.954L415.831,362.068L416.386,365.894L416.94,369.77L417.494,365.551L418.048,357.456L418.603,361.43L419.157,362.656L419.711,367.072L420.265,361.381L420.82,352.697L421.374,347.889L421.928,341.266L422.482,353.089L423.037,360.105L423.591,367.906L424.145,364.864L424.699,362.902L425.254,360.841L425.808,356.18L426.362,356.867L426.916,351.765L427.471,351.912L428.025,348.085L428.579,347.153L429.133,353.973L429.688,360.056L430.242,376.099L430.796,378.258L431.351,373.989L431.905,366.091L432.459,343.228L433.013,341.168L433.568,331.306L434.122,353.776L434.676,359.026L435.23,370.555L435.785,360.89L436.339,365.453L436.893,364.177L437.447,368.445L438.002,359.86L438.556,351.47L439.11,338.911L439.664,339.156L440.219,337.096L440.773,355.199L441.327,354.561L441.881,351.421L442.436,341.953L442.99,343.572L443.544,349.312L444.098,345.338L444.653,346.319L445.207,338.616L445.761,349.999L446.315,349.508L446.87,360.449L447.424,353.335L447.978,353.089L448.532,349.655L449.087,352.206L449.641,347.055L450.195,342.198L450.749,332.19L451.304,331.11L451.858,340.186L452.412,342.541L452.966,347.447L453.521,351.029L454.075,362.803L454.629,357.652L455.183,355.935L455.738,351.372L456.292,354.561L456.846,353.678L457.4,351.716L457.955,363.098L458.509,372.223L459.063,378.405L459.617,373.008L460.172,354.414L460.726,352.942L461.28,353.188L461.835,366.189L462.389,349.655L462.943,349.999L463.497,348.772L464.052,359.32L464.606,353.629L465.16,359.222L465.714,367.072L466.269,374.922L466.823,373.548L467.377,373.989L467.931,368.298L468.486,353.825L469.04,349.312L469.594,351.372L470.148,354.757L470.703,356.573L471.257,352.206L471.811,362.951L472.365,367.023L472.92,374.48L473.474,370.849L474.028,365.355L474.582,366.974L475.137,372.468L475.691,378.994L476.245,375.952L476.799,373.695L477.354,369.819L477.908,363.638L478.462,358.192L479.016,363.638L479.571,370.015L480.125,370.997L480.679,365.698L481.233,366.777L481.788,366.826L482.342,366.14L482.896,363.098L483.45,365.306L484.005,365.502L484.559,361.086L485.113,352.844L485.667,336.507L486.222,333.612L486.776,335.722L487.33,353.433L487.884,359.32L488.439,361.135L488.993,362.068L489.547,365.6L490.101,372.125L490.656,372.174L491.21,367.759L491.764,364.717L492.319,355.493L492.873,354.169L493.427,344.013L493.981,342.051L494.536,333.024L495.09,333.612L495.644,335.673L496.198,334.888L496.753,332.435L497.307,341.07L497.861,348.723L498.415,343.228L498.97,339.892L499.524,342.639L500.078,354.463L500.632,356.867L501.187,365.06L501.741,341.511L502.295,317.373L502.849,285.925L503.404,289.408L503.958,294.805L504.512,309.572L505.066,313.497L505.621,307.365L506.175,307.168L506.729,321.985L507.283,333.907L507.838,332.582L508.392,327.038L508.946,323.26L509.5,328.167L510.055,344.013L510.609,352.255L511.163,359.86L511.717,358.633L512.272,363.588L512.826,359.32L513.38,352.893L513.934,346.761L514.489,339.598L515.043,341.119L515.597,346.662L516.151,354.463L516.706,358.535L517.26,367.464L517.814,376.786L518.368,382.918L518.923,381.986L519.477,376.442L520.031,376.099L520.585,372.518L521.14,375.756L521.694,373.253L522.248,377.767L522.802,374.872L523.357,376.148L523.911,367.611L524.465,366.925L525.02,362.46L525.574,369.868L526.128,366.385L526.682,363.588L527.237,359.418L527.791,364.521L528.345,367.611L528.899,372.419L529.454,372.076L530.008,378.65L530.562,379.582L531.116,381.005L531.671,380.024L532.225,374.087L532.779,372.125L533.333,370.064L533.888,374.774L534.442,374.333L534.996,373.695L535.55,369.77L536.105,373.401L536.659,368.004L537.213,359.958L537.767,347.546L538.322,333.907L538.876,343.719L539.43,350.685L539.984,365.6L540.539,369.083L541.093,367.66L541.647,367.072L542.201,360.399L542.756,355.297L543.31,333.416L543.864,333.024L544.418,343.67L544.973,358.339L545.527,361.086L546.081,364.422L546.635,372.37L547.19,373.401L547.744,370.751L548.298,368.249L548.852,360.645L549.407,350.685L549.961,340.088L550.515,349.704L551.069,360.203L551.624,375.02L552.178,373.744L552.732,376.541L553.286,382.133L553.841,382.084L554.395,382.771L554.949,379.435L555.504,381.348L556.058,379.779L556.612,381.692L557.166,386.255L557.721,384.537L558.275,380.318L558.829,374.48L559.383,375.216L559.938,370.997L560.492,368.396L561.046,364.275L561.6,363.49L562.155,372.468L562.709,378.405L563.263,384.881L563.817,382.869L564.372,382.084L564.926,384.734L565.48,385.813L566.034,386.058L566.589,377.718L567.143,372.763L567.697,376.295L568.251,389.689L568.806,394.006L569.36,387.825L569.914,382.869L570.468,374.872L571.023,377.178L571.577,370.702L572.131,362.803L572.685,353.923L573.24,345.142L573.794,350.146L574.348,355.542L574.902,369.77L575.457,376.982L576.011,375.854L576.565,377.031L577.119,379.386L577.674,377.276L578.228,372.468L578.782,365.011L579.336,371.34L579.891,371.291L580.445,381.201L580.999,382.379L581.553,382.624L582.108,379.386L582.662,377.227L583.216,380.956L583.77,376.688L584.325,373.744L584.879,371.144L585.433,376.737L585.988,378.16L586.542,378.552L587.096,375.118L587.65,375.412L588.205,373.94L588.759,375.265L589.313,374.333L589.867,370.948L590.422,363.294L590.976,367.808L591.53,375.559L592.084,381.79L592.639,381.348L593.193,381.054L593.747,384.39L594.301,387.53L594.856,387.825L595.41,390.817L595.964,392.436L596.518,395.527L597.073,391.112L597.627,388.855L598.181,390.228L598.735,389.247L599.29,377.767L599.844,372.567L600.398,367.808L600.952,378.307L601.507,380.416L602.061,388.904L602.615,385.568L603.169,384.979L603.724,386.843L604.278,389.444L604.832,387.285L605.386,383.311L605.941,381.643L606.495,377.914L607.049,371.831L607.603,372.321L608.158,373.204L608.712,380.269L609.266,373.94L609.82,377.473L610.375,380.171L610.929,388.07L611.483,388.119L612.037,384.734L612.592,381.299L613.146,374.627L613.7,377.963L614.254,374.971L614.809,381.79L615.363,378.601L615.917,384.685L616.472,386.892L617.026,389.149L617.58,387.775L618.134,387.383L618.689,379.828L619.243,376.491L619.797,361.528L620.351,358.388L620.906,356.229L621.46,363.834L622.014,368.593L622.568,370.899L623.123,367.71L623.677,360.007L624.231,360.694L624.785,361.822L625.34,370.702L625.894,374.529L626.448,380.171L627.002,382.526L627.557,379.828L628.111,385.764L628.665,380.563L629.219,381.594L629.774,378.258L630.328,382.624L630.882,379.877L631.436,381.79L631.991,382.183L632.545,385.224L633.099,384.096L633.653,379.975L634.208,378.405L634.762,370.604L635.316,373.499L635.87,372.468L636.425,376.05L636.979,373.45L637.533,370.31L638.087,368.593L638.642,370.899L639.196,378.356L639.75,380.318L640.304,379.729L640.859,376.05L641.413,376.246L641.967,372.763L642.521,362.215L643.076,349.017L643.63,344.896L644.184,355.297L644.738,370.015L645.293,380.024L645.847,380.269L646.401,377.571L646.956,377.375L647.51,380.122L648.064,375.559L648.618,368.2L649.173,367.219L649.727,371.585L650.281,376.05L650.835,373.253L651.39,375.657L651.944,371.733L652.498,364.079L653.052,363.785L653.607,367.415L654.161,377.718L654.715,379.582L655.269,382.673L655.824,387.04L656.378,379.975L656.932,381.398L657.486,373.253L658.041,375.069L658.595,369.868L659.149,363.932L659.703,362.411L660.258,363.343L660.812,369.672L661.366,367.317L661.92,369.23L662.475,370.457L663.029,372.616L663.583,371.683L664.137,369.329L664.692,368.838L665.246,370.948L665.8,374.137L666.354,376.59L666.909,375.069L667.463,365.796L668.017,370.702L668.571,363.392L669.126,367.268L669.68,368.053L670.234,376.933L670.788,380.171L671.343,366.679L671.897,353.188L672.451,350.538L673.005,354.218L673.56,364.03L674.114,363.883L674.668,361.184L675.222,356.769L675.777,356.965L676.331,364.472L676.885,371.438L677.44,373.646L677.994,376.884L678.548,373.94L679.102,374.774L679.657,372.959L680.211,375.363L680.765,374.529L681.319,369.623L681.874,366.287L682.428,369.966L682.982,379.828L683.536,383.507L684.091,382.379L684.645,381.25L685.199,384.979L685.753,387.874L686.308,386.156L686.862,386.696L687.416,386.402L687.97,387.187L688.525,383.017L689.079,381.398L689.633,377.963L690.187,380.858L690.742,378.11L691.296,384.39L691.85,376.491L692.404,381.201L692.959,376.246L693.513,386.402L694.067,387.285L694.621,383.213L695.176,379.337L695.73,375.216L696.284,386.892L696.838,388.609L697.393,386.843L697.947,384.292L698.501,384.243L699.055,393.466L699.61,393.466L700.164,397.342L700.718,392.976L701.272,395.478L701.827,387.481L702.381,382.82L702.935,376.688L703.489,384.096L704.044,389.1L704.598,394.791L705.152,395.086L705.706,399.501L706.261,395.184L706.815,391.504L707.369,385.421L707.923,391.7L708.478,392.632L709.032,395.036L709.586,388.953L710.141,392.485L710.695,393.712L711.249,399.01L711.803,392.976L712.358,388.953L712.912,386.794L713.466,390.081L714.02,393.368L714.575,395.527L715.129,397.342L715.683,400.629L716.237,402.788L716.792,402.445L717.346,398.225L717.9,398.912L718.454,399.452L719.009,404.162L719.563,402.592L720.117,404.162L720.671,404.162L721.226,405.094L721.78,405.535L722.334,406.124L722.888,405.192L723.443,401.414L723.997,400.286L724.551,400.041L725.105,404.898L725.66,402.984L726.214,402.592L726.768,398.667L727.322,400.188L727.877,395.92L728.431,397.244L728.985,397.489L729.539,402.297L730.094,401.267L730.648,399.697L731.202,401.463L731.756,404.407L732.311,406.664L732.865,405.977L733.419,404.26L733.973,401.807L734.528,400.09L735.082,399.844L735.636,398.912L736.19,396.214L736.745,395.135L737.299,396.165L737.853,398.078L738.407,400.777L738.962,400.482L739.516,398.961L740.07,397.342L740.625,394.153L741.179,393.417L741.733,392.093L742.287,393.172L742.842,396.999L743.396,398.863L743.95,403.033L744.504,400.531L745.059,394.301L745.613,394.399L746.167,392.289L746.721,395.429L747.276,394.497L747.83,399.01L748.384,402.788L748.938,402.347L749.493,401.316L750.047,397.489L750.601,395.87L751.155,393.614L751.71,394.301L752.264,397.833L752.818,397.931L753.372,399.599L753.927,398.765L754.481,404.554L755.035,405.094L755.589,404.701L756.144,401.463L756.698,399.599L757.252,400.629L757.806,400.58L758.361,403.328L758.915,403.082L759.469,404.652L760.023,404.211L760.578,404.309L761.132,402.101L761.686,402.003L762.24,400.973L762.795,398.225L763.349,396.018L763.903,395.92L764.457,398.765L765.012,397.244L765.566,394.791L766.12,396.263L766.674,397.98L767.229,398.127L767.783,396.754L768.337,398.274L768.891,399.158L769.446,396.018L770,397.391"/>
  </g>
</svg>
