<svg class="plot-d6a7b5" fill="currentColor" font-family="system-ui, sans-serif" font-size="10" text-anchor="middle" width="830" height="470" viewBox="0 0 830 470" xmlns="http://www.w3.org/2000/svg" xmlns:xlink="http://www.w3.org/1999/xlink" color="#1e90ff"><style>:where(.plot-d6a7b5){--plot-background: white;display:block;height:intrinsic;max-width:100%}:where(.plot-d6a7b5 text),:where(.plot-d6a7b5 tspan){white-space:pre}</style><g aria-label="y-grid" stroke="currentColor" stroke-opacity=".1"><line x1="60" x2="770" y1="410" y2="410"/><line x1="60" x2="770" y1="374.926" y2="374.926"/><line x1="60" x2="770" y1="339.853" y2="339.853"/><line x1="60" x2="770" y1="304.779" y2="304.779"/><line x1="60" x2="770" y1="269.706" y2="269.706"/><line x1="60" x2="770" y1="234.632" y2="234.632"/><line x1="60" x2="770" y1="199.559" y2="199.559"/><line x1="60" x2="770" y1="164.485" y2="164.485"/><line x1="60" x2="770" y1="129.412" y2="129.412"/><line x1="60" x2="770" y1="94.338" y2="94.338"/></g><g aria-label="y-axis tick" fill="none" stroke="currentColor"><path transform="translate(60,410)" d="M0,0L-6,0"/><path transform="translate(60,374.9264859144767)" d="M0,0L-6,0"/><path transform="translate(60,339.8529718289535)" d="M0,0L-6,0"/><path transform="translate(60,304.7794577434302)" d="M0,0L-6,0"/><path transform="translate(60,269.70594365790697)" d="M0,0L-6,0"/><path transform="translate(60,234.63242957238373)" d="M0,0L-6,0"/><path transform="translate(60,199.55891548686046)" d="M0,0L-6,0"/><path transform="translate(60,164.4854014013372)" d="M0,0L-6,0"/><path transform="translate(60,129.41188731581394)" d="M0,0L-6,0"/><path transform="translate(60,94.3383732302907)" d="M0,0L-6,0"/></g><g aria-label="y-axis tick label" text-anchor="end" font-variant="tabular-nums"><text y=".32em" transform="translate(-9,0) translate(60,410)">0</text><text y=".32em" transform="translate(-9,0) translate(60,374.9264859144767)">50,000</text><text y=".32em" transform="translate(-9,0) translate(60,339.8529718289535)">100,000</text><text y=".32em" transform="translate(-9,0) translate(60,304.7794577434302)">150,000</text><text y=".32em" transform="translate(-9,0) translate(60,269.70594365790697)">200,000</text><text y=".32em" transform="translate(-9,0) translate(60,234.63242957238373)">250,000</text><text y=".32em" transform="translate(-9,0) translate(60,199.55891548686046)">300,000</text><text y=".32em" transform="translate(-9,0) translate(60,164.4854014013372)">350,000</text><text y=".32em" transform="translate(-9,0) translate(60,129.41188731581394)">400,000</text><text y=".32em" transform="translate(-9,0) translate(60,94.3383732302907)">450,000</text></g><g aria-label="y-axis label" text-anchor="start"><text y=".71em" transform="translate(-57,-57) translate(60,60)">↑ Total Vestiges</text></g><g aria-label="x-axis tick" fill="none" stroke="currentColor"><path transform="translate(65.66489361702128,410)" d="M0,0L0,6"/><path transform="translate(124.20212765957447,410)" d="M0,0L0,6"/><path transform="translate(180.85106382978722,410)" d="M0,0L0,6"/><path transform="translate(239.38829787234044,410)" d="M0,0L0,6"/><path transform="translate(296.03723404255317,410)" d="M0,0L0,6"/><path transform="translate(354.57446808510633,410)" d="M0,0L0,6"/><path transform="translate(413.11170212765956,410)" d="M0,0L0,6"/><path transform="translate(469.76063829787233,410)" d="M0,0L0,6"/><path transform="translate(528.2978723404256,410)" d="M0,0L0,6"/><path transform="translate(584.9468085106383,410)" d="M0,0L0,6"/><path transform="translate(643.4840425531914,410)" d="M0,0L0,6"/><path transform="translate(702.0212765957447,410)" d="M0,0L0,6"/><path transform="translate(756.7819148936171,410)" d="M0,0L0,6"/></g><g aria-label="x-axis tick label" font-variant="tabular-nums"><text transform="translate(0,9) translate(65.66489361702128,410)"><tspan x="0" y=".71em">Mar</tspan><tspan x="0" dy="1em">2023</tspan></text><text y=".71em" transform="translate(0,9) translate(124.20212765957447,410)">Apr</text><text y=".71em" transform="translate(0,9) translate(180.85106382978722,410)">May</text><text y=".71em" transform="translate(0,9) translate(239.38829787234044,410)">Jun</text><text y=".71em" transform="translate(0,9) translate(296.03723404255317,410)">Jul</text><text y=".71em" transform="translate(0,9) translate(354.57446808510633,410)">Aug</text><text y=".71em" transform="translate(0,9) translate(413.11170212765956,410)">Sep</text><text y=".71em" transform="translate(0,9) translate(469.76063829787233,410)">Oct</text><text y=".71em" transform="translate(0,9) translate(528.2978723404256,410)">Nov</text><text y=".71em" transform="translate(0,9) translate(584.9468085106383,410)">Dec</text><text transform="translate(0,9) translate(643.4840425531914,410)"><tspan x="0" y=".71em">Jan</tspan><tspan x="0" dy="1em">2024</tspan></text><text y=".71em" transform="translate(0,9) translate(702.0212765957447,410)">Feb</text><text y=".71em" transform="translate(0,9) translate(756.7819148936171,410)">Mar</text></g><g aria-label="line" fill="none" stroke="currentColor" stroke-width="1.5" stroke-linejoin="round" stroke-linecap="round"><path d="M60,410L61.259,409.648L62.518,408.36L63.777,407.666L65.035,407.173L66.294,406.361L67.553,405.721L68.812,405.121L70.071,403.908L71.33,402.947L72.589,401.808L73.848,400.042L75.106,398.377L76.365,397.513L77.624,396.262L78.883,395.413L80.142,394.439L81.401,393.166L82.66,392.309L83.918,391.469L85.177,390.328L86.436,389.063L87.695,388.167L88.954,386.639L90.213,385.915L91.472,385.24L92.73,384.021L93.989,382.855L95.248,381.957L96.507,380.705L97.766,379.457L99.025,378.321L100.284,376.56L101.543,375.162L102.801,374.353L104.06,373.51L105.319,372.875L106.578,372.362L107.837,371.411L109.096,370.481L110.355,369.832L111.613,368.331L112.872,366.763L114.131,365.357L115.39,363.654L116.649,362.499L117.908,361.516L119.167,360.176L120.426,359.055L121.684,358.243L122.943,356.782L124.202,355.368L125.461,354.049L126.72,352.159L127.979,350.364L129.238,349.43L130.496,348.045L131.755,346.795L133.014,345.674L134.273,344.088L135.532,342.599L136.791,341.304L138.05,339.748L139.309,338.257L140.567,336.973L141.826,335.245L143.085,334.182L144.344,333.223L145.603,331.886L146.862,330.791L148.121,329.972L149.379,328.917L150.638,327.779L151.897,326.717L153.156,325.325L154.415,323.945L155.674,323.159L156.933,322.067L158.191,321.215L159.45,320.654L160.709,319.787L161.968,318.923L163.227,318.006L164.486,316.819L165.745,315.613L167.004,314.671L168.262,313.366L169.521,312.45L170.78,311.852L172.039,310.478L173.298,309.528L174.557,309.014L175.816,308.153L177.074,307.323L178.333,306.459L179.592,305.272L180.851,304.239L182.11,303.35L183.369,302.577L184.628,301.891L185.887,301.234L187.145,300.157L188.404,299.543L189.663,298.919L190.922,297.907L192.181,296.76L193.44,295.86L194.699,294.702L195.957,293.922L197.216,293.197L198.475,292.147L199.734,291.429L200.993,290.745L202.252,289.832L203.511,289.118L204.77,288.255L206.028,287.341L207.287,286.511L208.546,285.824L209.805,285.103L211.064,284.474L212.323,283.881L213.582,283.047L214.84,282.411L216.099,281.838L217.358,280.892L218.617,279.663L219.876,278.767L221.135,277.6L222.394,276.902L223.652,276.102L224.911,275.276L226.17,274.521L227.429,273.991L228.688,272.939L229.947,272.113L231.206,271.246L232.465,269.986L233.723,269.058L234.982,268.248L236.241,267.419L237.5,266.515L238.759,265.815L240.018,265.13L241.277,264.223L242.535,263.689L243.794,262.979L245.053,262.338L246.312,261.737L247.571,260.888L248.83,260.276L250.089,259.638L251.348,258.783L252.606,258.172L253.865,257.607L255.124,256.996L256.383,256.276L257.642,255.6L258.901,254.894L260.16,254.129L261.418,253.529L262.677,252.793L263.936,252.175L265.195,251.561L266.454,250.709L267.713,250L268.972,249.44L270.23,248.705L271.489,248.006L272.748,247.501L274.007,246.633L275.266,245.971L276.525,245.288L277.784,244.53L279.043,243.885L280.301,243.501L281.56,242.798L282.819,242.224L284.078,241.541L285.337,240.728L286.596,240.085L287.855,239.376L289.113,238.597L290.372,237.887L291.631,237.264L292.89,236.249L294.149,235.423L295.408,234.947L296.667,234.188L297.926,233.511L299.184,233.104L300.443,232.383L301.702,231.917L302.961,231.364L304.22,230.691L305.479,230.064L306.738,229.568L307.996,228.784L309.255,228.209L310.514,227.689L311.773,226.96L313.032,226.304L314.291,225.788L315.55,224.996L316.809,224.493L318.067,223.92L319.326,223.194L320.585,222.604L321.844,221.934L323.103,221.168L324.362,220.496L325.621,219.925L326.879,219.27L328.138,218.5L329.397,217.897L330.656,217.332L331.915,216.734L333.174,216.279L334.433,215.499L335.691,215.011L336.95,214.459L338.209,213.766L339.468,213.214L340.727,212.543L341.986,211.651L343.245,210.978L344.504,210.582L345.762,209.67L347.021,208.999L348.28,208.403L349.539,207.57L350.798,207.008L352.057,206.404L353.316,205.707L354.574,205.001L355.833,204.391L357.092,203.489L358.351,202.795L359.61,202.183L360.869,201.442L362.128,200.625L363.387,199.79L364.645,198.562L365.904,197.812L367.163,197.247L368.422,196.482L369.681,195.866L370.94,195.42L372.199,194.725L373.457,194.112L374.716,193.683L375.975,192.983L377.234,192.345L378.493,191.883L379.752,191.143L381.011,190.451L382.27,189.925L383.528,189.233L384.787,188.367L386.046,187.637L387.305,186.726L388.564,186.082L389.823,185.459L391.082,184.537L392.34,183.845L393.599,183.203L394.858,182.433L396.117,181.794L397.376,181.367L398.635,180.75L399.894,180.284L401.152,179.772L402.411,179.152L403.67,178.529L404.929,177.953L406.188,177.377L407.447,176.783L408.706,176.279L409.965,175.72L411.223,175.167L412.482,174.699L413.741,174.159L415,173.602L416.259,173.002L417.518,172.282L418.777,171.769L420.035,171.214L421.294,170.632L422.553,170.206L423.812,169.749L425.071,169.272L426.33,168.98L427.589,168.622L428.848,167.805L430.106,167.24L431.365,166.71L432.624,165.991L433.883,165.69L435.142,165.287L436.401,164.908L437.66,164.605L438.918,164.147L440.177,163.679L441.436,163.143L442.695,162.581L443.954,161.683L445.213,160.921L446.472,160.512L447.73,159.961L448.989,159.581L450.248,159.124L451.507,158.597L452.766,158.124L454.025,157.748L455.284,157.172L456.543,156.538L457.801,156.07L459.06,155.432L460.319,155.108L461.578,154.789L462.837,154.362L464.096,153.96L465.355,153.601L466.613,153.018L467.872,152.532L469.131,152.036L470.39,151.364L471.649,150.861L472.908,150.595L474.167,150.1L475.426,149.736L476.684,149.409L477.943,148.997L479.202,148.592L480.461,148.126L481.72,147.514L482.979,146.859L484.238,146.202L485.496,145.518L486.755,145.025L488.014,144.649L489.273,144.182L490.532,143.792L491.791,143.37L493.05,142.804L494.309,142.423L495.567,142.067L496.826,141.274L498.085,140.597L499.344,140.179L500.603,139.749L501.862,139.439L503.121,139.195L504.379,138.68L505.638,138.338L506.897,137.998L508.156,137.336L509.415,136.624L510.674,136.09L511.933,135.365L513.191,134.982L514.45,134.629L515.709,134.024L516.968,133.633L518.227,133.26L519.486,132.73L520.745,132.164L522.004,131.802L523.262,131.203L524.521,130.818L525.78,130.569L527.039,130.036L528.298,129.678L529.557,129.461L530.816,129.133L532.074,128.797L533.333,128.236L534.592,127.573L535.851,126.908L537.11,126.464L538.369,126.027L539.628,125.772L540.887,125.388L542.145,124.938L543.404,124.69L544.663,124.43L545.922,123.985L547.181,123.714L548.44,123.339L549.699,122.93L550.957,122.562L552.216,122.323L553.475,121.993L554.734,121.813L555.993,121.566L557.252,121.231L558.511,121.005L559.77,120.854L561.028,120.327L562.287,119.809L563.546,119.303L564.805,118.799L566.064,118.413L567.323,118.174L568.582,117.784L569.84,117.543L571.099,117.204L572.358,116.71L573.617,116.307L574.876,115.953L576.135,115.425L577.394,115.05L578.652,114.687L579.911,114.259L581.17,113.907L582.429,113.509L583.688,112.921L584.947,112.572L586.206,112.243L587.465,111.9L588.723,111.503L589.982,111.113L591.241,110.682L592.5,110.433L593.759,110.278L595.018,109.909L596.277,109.6L597.535,109.362L598.794,109.074L600.053,108.801L601.312,108.587L602.571,108.25L603.83,107.941L605.089,107.767L606.348,107.367L607.606,106.99L608.865,106.827L610.124,106.59L611.383,106.404L612.642,106.199L613.901,105.807L615.16,105.415L616.418,105.128L617.677,104.86L618.936,104.585L620.195,104.238L621.454,103.967L622.713,103.77L623.972,103.538L625.23,103.153L626.489,102.912L627.748,102.62L629.007,102.131L630.266,101.736L631.525,101.533L632.784,101.216L634.043,100.805L635.301,100.478L636.56,100.057L637.819,99.738L639.078,99.378L640.337,98.957L641.596,98.631L642.855,98.326L644.113,97.939L645.372,97.608L646.631,97.306L647.89,96.832L649.149,96.549L650.408,96.329L651.667,95.871L652.926,95.709L654.184,95.432L655.443,94.984L656.702,94.752L657.961,94.482L659.22,94.146L660.479,93.943L661.738,93.734L662.996,93.524L664.255,93.37L665.514,93.083L666.773,92.692L668.032,92.331L669.291,91.89L670.55,91.365L671.809,91.124L673.067,90.839L674.326,90.564L675.585,90.183L676.844,89.758L678.103,89.441L679.362,89.211L680.621,88.838L681.879,88.39L683.138,87.763L684.397,87.373L685.656,86.896L686.915,86.62L688.174,86.367L689.433,86.027L690.691,85.881L691.95,85.666L693.209,85.124L694.468,84.528L695.727,84.092L696.986,83.485L698.245,83.147L699.504,82.86L700.762,82.514L702.021,82.175L703.28,81.886L704.539,81.431L705.798,81.161L707.057,80.708L708.316,80.034L709.574,79.561L710.833,79.22L712.092,78.712L713.351,78.375L714.61,78.128L715.869,77.607L717.128,77.187L718.387,76.72L719.645,76.259L720.904,75.721L722.163,75.005L723.422,74.227L724.681,73.802L725.94,73.36L727.199,72.716L728.457,72.277L729.716,71.95L730.975,71.527L732.234,71.17L733.493,70.81L734.752,70.232L736.011,69.727L737.27,69.519L738.528,69.069L739.787,68.683L741.046,68.237L742.305,67.799L743.564,67.537L744.823,67.151L746.082,66.575L747.34,66.043L748.599,65.688L749.858,65.144L751.117,64.871L752.376,64.522L753.635,64.127L754.894,63.871L756.152,63.566L757.411,63.162L758.67,62.841L759.929,62.517L761.188,61.916L762.447,61.581L763.706,61.295L764.965,61.038L766.223,60.798L767.482,60.48L768.741,60.182L770,60"/></g></svg>