<svg class="plot-d6a7b5" fill="currentColor" font-family="system-ui, sans-serif" font-size="10" text-anchor="middle" width="830" height="470" viewBox="0 0 830 470" xmlns="http://www.w3.org/2000/svg" xmlns:xlink="http://www.w3.org/1999/xlink" color="dodgerblue"><style>:where(.plot-d6a7b5){--plot-background: white;display:block;height:intrinsic;max-width:100%}:where(.plot-d6a7b5 text),:where(.plot-d6a7b5 tspan){white-space:pre}</style><g aria-label="y-grid" stroke="currentColor" stroke-opacity=".1"><line x1="60" x2="770" y1="410" y2="410"/><line x1="60" x2="770" y1="370.178" y2="370.178"/><line x1="60" x2="770" y1="330.356" y2="330.356"/><line x1="60" x2="770" y1="290.534" y2="290.534"/><line x1="60" x2="770" y1="250.711" y2="250.711"/><line x1="60" x2="770" y1="210.889" y2="210.889"/><line x1="60" x2="770" y1="171.067" y2="171.067"/><line x1="60" x2="770" y1="131.245" y2="131.245"/><line x1="60" x2="770" y1="91.423" y2="91.423"/></g><g aria-label="y-axis tick" fill="none" stroke="currentColor"><path transform="translate(60,410)" d="M0,0L-6,0"/><path transform="translate(60,370.17785706808905)" d="M0,0L-6,0"/><path transform="translate(60,330.35571413617805)" d="M0,0L-6,0"/><path transform="translate(60,290.5335712042671)" d="M0,0L-6,0"/><path transform="translate(60,250.71142827235613)" d="M0,0L-6,0"/><path transform="translate(60,210.88928534044516)" d="M0,0L-6,0"/><path transform="translate(60,171.0671424085342)" d="M0,0L-6,0"/><path transform="translate(60,131.24499947662326)" d="M0,0L-6,0"/><path transform="translate(60,91.42285654471229)" d="M0,0L-6,0"/></g><g aria-label="y-axis tick label" text-anchor="end" font-variant="tabular-nums"><text y=".32em" transform="translate(-9,0) translate(60,410)">0</text><text y=".32em" transform="translate(-9,0) translate(60,370.17785706808905)">50,000</text><text y=".32em" transform="translate(-9,0) translate(60,330.35571413617805)">100,000</text><text y=".32em" transform="translate(-9,0) translate(60,290.5335712042671)">150,000</text><text y=".32em" transform="translate(-9,0) translate(60,250.71142827235613)">200,000</text><text y=".32em" transform="translate(-9,0) translate(60,210.88928534044516)">250,000</text><text y=".32em" transform="translate(-9,0) translate(60,171.0671424085342)">300,000</text><text y=".32em" transform="translate(-9,0) translate(60,131.24499947662326)">350,000</text><text y=".32em" transform="translate(-9,0) translate(60,91.42285654471229)">400,000</text></g><g aria-label="y-axis label" text-anchor="start"><text y=".71em" transform="translate(-57,-57) translate(60,60)">↑ Total Vestiges (∞ Lifespan)</text></g><g aria-label="x-axis tick" fill="none" stroke="currentColor"><path transform="translate(67.05298013245033,410)" d="M0,0L0,6"/><path transform="translate(139.9337748344371,410)" d="M0,0L0,6"/><path transform="translate(210.46357615894038,410)" d="M0,0L0,6"/><path transform="translate(283.34437086092714,410)" d="M0,0L0,6"/><path transform="translate(353.8741721854305,410)" d="M0,0L0,6"/><path transform="translate(426.75496688741725,410)" d="M0,0L0,6"/><path transform="translate(499.635761589404,410)" d="M0,0L0,6"/><path transform="translate(570.1655629139074,410)" d="M0,0L0,6"/><path transform="translate(643.0463576158941,410)" d="M0,0L0,6"/><path transform="translate(713.5761589403974,410)" d="M0,0L0,6"/></g><g aria-label="x-axis tick label" font-variant="tabular-nums"><text transform="translate(0,9) translate(67.05298013245033,410)"><tspan x="0" y=".71em">Mar</tspan><tspan x="0" dy="1em">2023</tspan></text><text y=".71em" transform="translate(0,9) translate(139.9337748344371,410)">Apr</text><text y=".71em" transform="translate(0,9) translate(210.46357615894038,410)">May</text><text y=".71em" transform="translate(0,9) translate(283.34437086092714,410)">Jun</text><text y=".71em" transform="translate(0,9) translate(353.8741721854305,410)">Jul</text><text y=".71em" transform="translate(0,9) translate(426.75496688741725,410)">Aug</text><text y=".71em" transform="translate(0,9) translate(499.635761589404,410)">Sep</text><text y=".71em" transform="translate(0,9) translate(570.1655629139074,410)">Oct</text><text y=".71em" transform="translate(0,9) translate(643.0463576158941,410)">Nov</text><text y=".71em" transform="translate(0,9) translate(713.5761589403974,410)">Dec</text></g><g aria-label="line" fill="none" stroke="currentColor" stroke-width="1.5" stroke-linejoin="round" stroke-linecap="round"><path d="M60,410L61.567,409.6L63.135,408.138L64.702,407.349L66.269,406.79L67.837,405.868L69.404,405.142L70.971,404.461L72.539,403.083L74.106,401.993L75.673,400.698L77.241,398.694L78.808,396.804L80.375,395.823L81.943,394.402L83.51,393.438L85.077,392.333L86.645,390.887L88.212,389.914L89.779,388.96L91.347,387.665L92.914,386.229L94.481,385.212L96.049,383.476L97.616,382.654L99.183,381.887L100.751,380.504L102.318,379.179L103.885,378.16L105.453,376.739L107.02,375.322L108.587,374.032L110.155,372.032L111.722,370.445L113.289,369.526L114.857,368.569L116.424,367.848L117.991,367.266L119.558,366.186L121.126,365.13L122.693,364.393L124.26,362.69L125.828,360.909L127.395,359.313L128.962,357.379L130.53,356.068L132.097,354.951L133.664,353.43L135.232,352.158L136.799,351.236L138.366,349.576L139.934,347.971L141.501,346.474L143.068,344.328L144.636,342.29L146.203,341.23L147.77,339.657L149.338,338.237L150.905,336.965L152.472,335.165L154.04,333.473L155.607,332.004L157.174,330.237L158.742,328.544L160.309,327.086L161.876,325.124L163.444,323.917L165.011,322.829L166.578,321.31L168.146,320.066L169.713,319.137L171.28,317.939L172.848,316.647L174.415,315.442L175.982,313.861L177.55,312.294L179.117,311.401L180.684,310.162L182.252,309.194L183.819,308.558L185.386,307.573L186.954,306.592L188.521,305.551L190.088,304.204L191.656,302.834L193.223,301.764L194.79,300.283L196.358,299.243L197.925,298.563L199.492,297.003L201.06,295.925L202.627,295.341L204.194,294.364L205.762,293.421L207.329,292.44L208.896,291.093L210.464,289.92L212.031,288.91L213.598,288.033L215.166,287.254L216.733,286.508L218.3,285.285L219.868,284.588L221.435,283.88L223.002,282.731L224.57,281.428L226.137,280.406L227.704,279.092L229.272,278.206L230.839,277.384L232.406,276.191L233.974,275.376L235.541,274.599L237.108,273.562L238.675,272.751L240.243,271.772L241.81,270.734L243.377,269.792L244.945,269.011L246.512,268.193L248.079,267.479L249.647,266.806L251.214,265.858L252.781,265.137L254.349,264.486L255.916,263.412L257.483,262.017L259.051,260.999L260.618,259.675L262.185,258.882L263.753,257.973L265.32,257.035L266.887,256.178L268.455,255.576L270.022,254.382L271.589,253.445L273.157,252.46L274.724,251.029L276.291,249.976L277.859,249.056L279.426,248.115L280.993,247.088L282.561,246.294L284.128,245.515L285.695,244.486L287.263,243.88L288.83,243.074L290.397,242.346L291.965,241.663L293.532,240.7L295.099,240.005L296.667,239.28L298.234,238.309L299.801,237.616L301.369,236.974L302.936,236.281L304.503,235.464L306.071,234.696L307.638,233.895L309.205,233.026L310.773,232.344L312.34,231.509L313.907,230.808L315.475,230.11L317.042,229.142L318.609,228.337L320.177,227.701L321.744,226.867L323.311,226.073L324.879,225.5L326.446,224.515L328.013,223.763L329.581,222.988L331.148,222.127L332.715,221.394L334.283,220.959L335.85,220.16L337.417,219.508L338.985,218.733L340.552,217.81L342.119,217.08L343.687,216.276L345.254,215.391L346.821,214.585L348.389,213.878L349.956,212.724L351.523,211.787L353.091,211.247L354.658,210.384L356.225,209.616L357.792,209.154L359.36,208.335L360.927,207.806L362.494,207.178L364.062,206.414L365.629,205.702L367.196,205.139L368.764,204.249L370.331,203.596L371.898,203.006L373.466,202.178L375.033,201.433L376.6,200.847L378.168,199.949L379.735,199.377L381.302,198.727L382.87,197.902L384.437,197.233L386.004,196.472L387.572,195.602L389.139,194.839L390.706,194.191L392.274,193.447L393.841,192.573L395.408,191.889L396.976,191.247L398.543,190.568L400.11,190.051L401.678,189.166L403.245,188.611L404.812,187.984L406.38,187.197L407.947,186.571L409.514,185.809L411.082,184.796L412.649,184.032L414.216,183.582L415.784,182.547L417.351,181.786L418.918,181.109L420.486,180.163L422.053,179.525L423.62,178.839L425.188,178.048L426.755,177.246L428.322,176.554L429.89,175.53L431.457,174.741L433.024,174.047L434.592,173.205L436.159,172.278L437.726,171.33L439.294,169.935L440.861,169.084L442.428,168.442L443.996,167.573L445.563,166.875L447.13,166.368L448.698,165.579L450.265,164.883L451.832,164.395L453.4,163.6L454.967,162.877L456.534,162.352L458.102,161.511L459.669,160.726L461.236,160.129L462.804,159.343L464.371,158.36L465.938,157.531L467.506,156.497L469.073,155.765L470.64,155.058L472.208,154.011L473.775,153.226L475.342,152.497L476.909,151.622L478.477,150.897L480.044,150.412L481.611,149.711L483.179,149.182L484.746,148.601L486.313,147.897L487.881,147.19L489.448,146.536L491.015,145.882L492.583,145.207L494.15,144.636L495.717,144.001L497.285,143.372L498.852,142.841L500.419,142.228L501.987,141.596L503.554,140.915L505.121,140.097L506.689,139.514L508.256,138.884L509.823,138.224L511.391,137.74L512.958,137.221L514.525,136.679L516.093,136.348L517.66,135.942L519.227,135.015L520.795,134.373L522.362,133.771L523.929,132.954L525.497,132.612L527.064,132.155L528.631,131.724L530.199,131.38L531.766,130.86L533.333,130.33L534.901,129.721L536.468,129.083L538.035,128.063L539.603,127.198L541.17,126.734L542.737,126.108L544.305,125.677L545.872,125.158L547.439,124.56L549.007,124.023L550.574,123.596L552.141,122.941L553.709,122.222L555.276,121.69L556.843,120.966L558.411,120.598L559.978,120.236L561.545,119.752L563.113,119.294L564.68,118.887L566.247,118.226L567.815,117.674L569.382,117.11L570.949,116.348L572.517,115.776L574.084,115.474L575.651,114.912L577.219,114.499L578.786,114.128L580.353,113.66L581.921,113.2L583.488,112.671L585.055,111.976L586.623,111.232L588.19,110.486L589.757,109.709L591.325,109.149L592.892,108.722L594.459,108.193L596.026,107.75L597.594,107.271L599.161,106.628L600.728,106.196L602.296,105.791L603.863,104.892L605.43,104.122L606.998,103.648L608.565,103.159L610.132,102.808L611.7,102.531L613.267,101.945L614.834,101.558L616.402,101.171L617.969,100.42L619.536,99.612L621.104,99.005L622.671,98.182L624.238,97.747L625.806,97.347L627.373,96.659L628.94,96.215L630.508,95.792L632.075,95.19L633.642,94.548L635.21,94.137L636.777,93.456L638.344,93.019L639.912,92.737L641.479,92.132L643.046,91.726L644.614,91.479L646.181,91.106L647.748,90.725L649.316,90.087L650.883,89.335L652.45,88.58L654.018,88.076L655.585,87.579L657.152,87.29L658.72,86.854L660.287,86.343L661.854,86.061L663.422,85.767L664.989,85.262L666.556,84.953L668.124,84.528L669.691,84.063L671.258,83.646L672.826,83.374L674.393,83L675.96,82.795L677.528,82.515L679.095,82.135L680.662,81.878L682.23,81.706L683.797,81.108L685.364,80.52L686.932,79.945L688.499,79.373L690.066,78.935L691.634,78.663L693.201,78.221L694.768,77.947L696.336,77.562L697.903,77.001L699.47,76.544L701.038,76.142L702.605,75.543L704.172,75.116L705.74,74.704L707.307,74.218L708.874,73.819L710.442,73.367L712.009,72.699L713.576,72.303L715.143,71.93L716.711,71.54L718.278,71.09L719.845,70.646L721.413,70.157L722.98,69.874L724.547,69.698L726.115,69.279L727.682,68.929L729.249,68.658L730.817,68.332L732.384,68.022L733.951,67.779L735.519,67.396L737.086,67.045L738.653,66.847L740.221,66.394L741.788,65.965L743.355,65.78L744.923,65.511L746.49,65.3L748.057,65.067L749.625,64.623L751.192,64.177L752.759,63.852L754.327,63.547L755.894,63.234L757.461,62.841L759.029,62.533L760.596,62.31L762.163,62.046L763.731,61.609L765.298,61.336L766.865,61.004L768.433,60.448L770,60"/></g></svg>