<svg class="plot-d6a7b5" fill="currentColor" font-family="system-ui, sans-serif" font-size="10" text-anchor="middle" width="830" height="470" viewBox="0 0 830 470" xmlns="http://www.w3.org/2000/svg" xmlns:xlink="http://www.w3.org/1999/xlink" color="#1e90ff"><style>:where(.plot-d6a7b5){--plot-background: white;display:block;height:intrinsic;max-width:100%}:where(.plot-d6a7b5 text),:where(.plot-d6a7b5 tspan){white-space:pre}</style><g aria-label="y-grid" stroke="currentColor" stroke-opacity=".1"><line x1="60" x2="770" y1="410" y2="410"/><line x1="60" x2="770" y1="378.557" y2="378.557"/><line x1="60" x2="770" y1="347.114" y2="347.114"/><line x1="60" x2="770" y1="315.671" y2="315.671"/><line x1="60" x2="770" y1="284.227" y2="284.227"/><line x1="60" x2="770" y1="252.784" y2="252.784"/><line x1="60" x2="770" y1="221.341" y2="221.341"/><line x1="60" x2="770" y1="189.898" y2="189.898"/><line x1="60" x2="770" y1="158.455" y2="158.455"/><line x1="60" x2="770" y1="127.012" y2="127.012"/><line x1="60" x2="770" y1="95.568" y2="95.568"/><line x1="60" x2="770" y1="64.125" y2="64.125"/></g><g aria-label="y-axis tick" fill="none" stroke="currentColor"><path transform="translate(60,410)" d="M0,0L-6,0"/><path transform="translate(60,378.55684921661634)" d="M0,0L-6,0"/><path transform="translate(60,347.11369843323274)" d="M0,0L-6,0"/><path transform="translate(60,315.6705476498491)" d="M0,0L-6,0"/><path transform="translate(60,284.2273968664655)" d="M0,0L-6,0"/><path transform="translate(60,252.7842460830818)" d="M0,0L-6,0"/><path transform="translate(60,221.34109529969817)" d="M0,0L-6,0"/><path transform="translate(60,189.8979445163145)" d="M0,0L-6,0"/><path transform="translate(60,158.45479373293085)" d="M0,0L-6,0"/><path transform="translate(60,127.01164294954722)" d="M0,0L-6,0"/><path transform="translate(60,95.56849216616357)" d="M0,0L-6,0"/><path transform="translate(60,64.12534138277994)" d="M0,0L-6,0"/></g><g aria-label="y-axis tick label" text-anchor="end" font-variant="tabular-nums"><text y=".32em" transform="translate(-9,0) translate(60,410)">0</text><text y=".32em" transform="translate(-9,0) translate(60,378.55684921661634)">5,000</text><text y=".32em" transform="translate(-9,0) translate(60,347.11369843323274)">10,000</text><text y=".32em" transform="translate(-9,0) translate(60,315.6705476498491)">15,000</text><text y=".32em" transform="translate(-9,0) translate(60,284.2273968664655)">20,000</text><text y=".32em" transform="translate(-9,0) translate(60,252.7842460830818)">25,000</text><text y=".32em" transform="translate(-9,0) translate(60,221.34109529969817)">30,000</text><text y=".32em" transform="translate(-9,0) translate(60,189.8979445163145)">35,000</text><text y=".32em" transform="translate(-9,0) translate(60,158.45479373293085)">40,000</text><text y=".32em" transform="translate(-9,0) translate(60,127.01164294954722)">45,000</text><text y=".32em" transform="translate(-9,0) translate(60,95.56849216616357)">50,000</text><text y=".32em" transform="translate(-9,0) translate(60,64.12534138277994)">55,000</text></g><g aria-label="y-axis label" text-anchor="start"><text y=".71em" transform="translate(-57,-57) translate(60,60)">↑ Visible Vestiges (30 days)</text></g><g aria-label="x-axis tick" fill="none" stroke="currentColor"><path transform="translate(64.71238938053098,410)" d="M0,0L0,6"/><path transform="translate(113.4070796460177,410)" d="M0,0L0,6"/><path transform="translate(160.53097345132744,410)" d="M0,0L0,6"/><path transform="translate(209.22566371681415,410)" d="M0,0L0,6"/><path transform="translate(256.34955752212386,410)" d="M0,0L0,6"/><path transform="translate(305.04424778761063,410)" d="M0,0L0,6"/><path transform="translate(353.7389380530973,410)" d="M0,0L0,6"/><path transform="translate(400.8628318584071,410)" d="M0,0L0,6"/><path transform="translate(449.5575221238938,410)" d="M0,0L0,6"/><path transform="translate(496.6814159292035,410)" d="M0,0L0,6"/><path transform="translate(545.3761061946902,410)" d="M0,0L0,6"/><path transform="translate(594.0707964601769,410)" d="M0,0L0,6"/><path transform="translate(639.6238938053098,410)" d="M0,0L0,6"/><path transform="translate(688.3185840707964,410)" d="M0,0L0,6"/><path transform="translate(735.4424778761062,410)" d="M0,0L0,6"/></g><g aria-label="x-axis tick label" font-variant="tabular-nums"><text transform="translate(0,9) translate(64.71238938053098,410)"><tspan x="0" y=".71em">Mar</tspan><tspan x="0" dy="1em">2023</tspan></text><text y=".71em" transform="translate(0,9) translate(113.4070796460177,410)">Apr</text><text y=".71em" transform="translate(0,9) translate(160.53097345132744,410)">May</text><text y=".71em" transform="translate(0,9) translate(209.22566371681415,410)">Jun</text><text y=".71em" transform="translate(0,9) translate(256.34955752212386,410)">Jul</text><text y=".71em" transform="translate(0,9) translate(305.04424778761063,410)">Aug</text><text y=".71em" transform="translate(0,9) translate(353.7389380530973,410)">Sep</text><text y=".71em" transform="translate(0,9) translate(400.8628318584071,410)">Oct</text><text y=".71em" transform="translate(0,9) translate(449.5575221238938,410)">Nov</text><text y=".71em" transform="translate(0,9) translate(496.6814159292035,410)">Dec</text><text transform="translate(0,9) translate(545.3761061946902,410)"><tspan x="0" y=".71em">Jan</tspan><tspan x="0" dy="1em">2024</tspan></text><text y=".71em" transform="translate(0,9) translate(594.0707964601769,410)">Feb</text><text y=".71em" transform="translate(0,9) translate(639.6238938053098,410)">Mar</text><text y=".71em" transform="translate(0,9) translate(688.3185840707964,410)">Apr</text><text y=".71em" transform="translate(0,9) translate(735.4424778761062,410)">May</text></g><g aria-label="line" fill="none" stroke="currentColor" stroke-width="1.5" stroke-linejoin="round" stroke-linecap="round"><path d="M60,410L61.047,406.843L62.094,395.297L63.142,389.071L64.189,384.657L65.236,377.375L66.283,371.639L67.33,366.263L68.378,355.383L69.425,346.774L70.472,336.555L71.519,320.727L72.566,305.804L73.614,298.056L74.661,286.843L75.708,279.228L76.755,270.499L77.802,259.085L78.85,251.401L79.897,243.867L80.944,233.642L81.991,222.303L83.038,214.273L84.086,200.57L85.133,194.08L86.18,188.024L87.227,177.101L88.274,166.643L89.322,158.593L90.369,147.374L91.416,139.344L92.463,140.702L93.51,131.137L94.558,123.025L95.605,123.05L96.652,121.226L97.699,120.912L98.746,127.194L99.794,127.276L100.841,129.156L101.888,139.168L102.935,140.639L103.982,134.325L105.029,132.936L106.077,125.282L107.124,123.66L108.171,126.257L109.218,121.93L110.265,119.415L111.313,122.364L112.36,120.597L113.407,115.956L114.454,117.837L115.501,107.379L116.549,97.342L117.596,99.895L118.643,97.933L119.69,94.776L120.737,95.952L121.785,92.921L122.832,89.752L123.879,93.94L124.926,92.519L125.973,86.406L127.021,82.45L128.068,72.653L129.115,67.722L130.162,67.653L131.209,64L132.257,60L133.304,66.113L134.351,70.716L135.398,73.112L136.445,78.866L137.493,76.734L138.54,73.181L139.587,78.143L140.634,78.407L141.681,78.042L142.729,86.123L143.776,91.016L144.823,95.097L145.87,103.825L146.917,109.278L147.965,106.831L149.012,110.806L150.059,110.315L151.106,112.145L152.153,121L153.201,122.037L154.248,125.125L155.295,134.464L156.342,140.117L157.389,144.192L158.437,151.933L159.484,150.82L160.531,150.16L161.578,154.179L162.625,157.065L163.673,158.254L164.72,161.825L165.767,162.373L166.814,166.385L167.861,173.277L168.909,176.572L169.956,173.334L171.003,175.05L172.05,172.315L173.097,170.347L174.145,171.629L175.192,169.957L176.239,171.736L177.286,176.245L178.333,178.874L179.381,180.918L180.428,184.88L181.475,184.898L182.522,182.823L183.569,188.98L184.617,191.036L185.664,190.005L186.711,192.407L187.758,192.363L188.805,194.413L189.853,199.916L190.9,200.696L191.947,197.652L192.994,196.545L194.041,192.237L195.088,191.866L196.136,194.35L197.183,192.445L198.23,191.269L199.277,195.589L200.324,196.451L201.372,197.117L202.419,199.714L203.466,195.413L204.513,193.596L205.56,195.74L206.608,194.753L207.655,192.778L208.702,194.69L209.749,194.948L210.796,194.558L211.844,197.96L212.891,199.035L213.938,199.457L214.985,200.519L216.032,198.557L217.08,198.381L218.127,200.142L219.174,198.174L220.221,197.834L221.268,201.249L222.316,206.789L223.363,208.374L224.41,212.77L225.457,212.701L226.504,213.015L227.552,215.04L228.599,215.216L229.646,214.43L230.693,218.348L231.74,218.109L232.788,219.53L233.835,225.806L234.882,227.529L235.929,228.535L236.976,231.434L238.024,231.761L239.071,232.101L240.118,232.126L241.165,233.453L242.212,232.459L243.26,235.384L244.307,234.818L245.354,235.069L246.401,236.547L247.448,234.755L248.496,234.711L249.543,236.025L250.59,234.516L251.637,233.214L252.684,233.107L253.732,230.453L254.779,229.114L255.826,231.177L256.873,231.227L257.92,230.541L258.968,233.484L260.015,232.56L261.062,233.893L262.109,236.572L263.156,236.899L264.204,236.295L265.251,238.44L266.298,237.673L267.345,237.05L268.392,240.169L269.44,239.566L270.487,239.805L271.534,241.974L272.581,240.666L273.628,239.591L274.676,240.767L275.723,239.402L276.77,240.238L277.817,241.515L278.864,240.408L279.912,240.742L280.959,242.609L282.006,243.1L283.053,241.779L284.1,245.483L285.147,247.816L286.195,246.722L287.242,249.451L288.289,248.527L289.336,247.797L290.383,249.313L291.431,247.275L292.478,247.288L293.525,247.307L294.572,244.93L295.619,243.345L296.667,246.823L297.714,243.798L298.761,242.446L299.808,243.641L300.855,242.056L301.903,241.641L302.95,243.32L303.997,241.59L305.044,240.389L306.091,241.433L307.139,238.635L308.186,238.415L309.233,239.805L310.28,239.176L311.327,236.975L312.375,235.365L313.422,231.258L314.469,229.938L315.516,229.938L316.563,228.435L317.611,227.001L318.658,229.994L319.705,228.139L320.752,227.592L321.799,229.957L322.847,228.63L323.894,228.925L324.941,232.78L325.988,232.176L327.035,229.529L328.083,232.988L329.13,232.793L330.177,230.378L331.224,231.296L332.271,228.177L333.319,227.812L334.366,228.472L335.413,226.542L336.46,225.806L337.507,228.139L338.555,227.454L339.602,227.215L340.649,230.032L341.696,231.818L342.743,235.126L343.791,241.546L344.838,242.71L345.885,242.194L346.932,243.892L347.979,244.244L349.027,242.917L350.074,244.634L351.121,245.118L352.168,244.005L353.215,246.087L354.263,246.961L355.31,246.118L356.357,247.37L357.404,247.118L358.451,247.231L359.499,248.464L360.546,251.011L361.593,253.734L362.64,257.796L363.687,259.299L364.735,262.268L365.782,267.324L366.829,266.204L367.876,266.89L368.923,269.047L369.971,268.323L371.018,269.455L372.065,271.38L373.112,272.153L374.159,274.027L375.206,275.48L376.254,276.876L377.301,277.234L378.348,277.354L379.395,274.631L380.442,272.317L381.49,273.662L382.537,273.681L383.584,274.474L384.631,275.216L385.678,275.48L386.726,276.624L387.773,279.706L388.82,279.14L389.867,278.436L390.914,279.448L391.962,277.555L393.009,278.75L394.056,280.165L395.103,278.958L396.15,278.555L397.198,282.662L398.245,282.504L399.292,282.9L400.339,284.894L401.386,281.574L402.434,280.674L403.481,281.687L404.528,279.97L405.575,280.813L406.622,282.07L407.67,283.177L408.717,284.592L409.764,288.466L410.811,289.805L411.858,287.598L412.906,286.649L413.953,283.919L415,283.599L416.047,284.951L417.094,285.007L418.142,284.881L419.189,286.271L420.236,286.869L421.283,287.661L422.33,290.183L423.378,285.982L424.425,282.768L425.472,282.85L426.519,282.599L427.566,283.039L428.614,286.076L429.661,285.812L430.708,287.202L431.755,290.17L432.802,288.749L433.85,284.756L434.897,284.397L435.944,281.165L436.991,280.655L438.038,281.196L439.086,279.398L440.133,280.064L441.18,282.215L442.227,283.334L443.274,284.158L444.322,287.045L445.369,286.089L446.416,286.007L447.463,287.963L448.51,286.68L449.558,287.252L450.605,290.384L451.652,290.849L452.699,291.038L453.746,293.107L454.794,293.245L455.841,291.019L456.888,290.906L457.935,289.755L458.982,289.661L460.029,290.843L461.077,289.868L462.124,290.692L463.171,294.295L464.218,296.691L465.265,299.05L466.313,302.188L467.36,301.955L468.407,301.817L469.454,305.099L470.501,305.653L471.549,307.376L472.596,309.916L473.643,311.985L474.69,313.205L475.737,317.224L476.785,315.954L477.832,313.539L478.879,313.778L479.926,312.463L480.973,310.954L482.021,311.753L483.068,311.269L484.115,314.142L485.162,317.041L486.209,318.576L487.257,318.941L488.304,319.695L489.351,317.243L490.398,317.318L491.445,318.098L492.493,316.488L493.54,315.664L494.587,316.079L495.634,313.243L496.681,313.47L497.729,314.199L498.776,314.413L499.823,313.004L500.87,312.457L501.917,310.212L502.965,310.193L504.012,311.803L505.059,310.52L506.106,309.112L507.153,311.696L508.201,313.759L509.248,315.853L510.295,318.456L511.342,318.89L512.389,318.261L513.437,320.192L514.484,318.777L515.531,318.431L516.578,321.399L517.625,322.89L518.673,324.393L519.72,327.286L520.767,327.141L521.814,326.877L522.861,328.147L523.909,328.896L524.956,329.996L526.003,332.159L527.05,332.857L528.097,334.04L529.145,335.04L530.192,335.14L531.239,336.486L532.286,337.725L533.333,335.574L534.381,333.423L535.428,334.914L536.475,334.838L537.522,333.285L538.569,332.939L539.617,331.612L540.664,330.663L541.711,330.468L542.758,329.462L543.805,328.103L544.853,328.946L545.9,328.858L546.947,327.355L547.994,326.764L549.041,324.185L550.088,323.487L551.136,325.028L552.183,324.443L553.23,325.556L554.277,325.475L555.324,323.928L556.372,324.953L557.419,324.971L558.466,323.72L559.513,323.978L560.56,325.563L561.608,325.833L562.655,327.078L563.702,328.889L564.749,328.921L565.796,327.499L566.844,326.393L567.891,325.374L568.938,326.141L569.985,327.361L571.032,327.757L572.08,327.562L573.127,327.537L574.174,327.606L575.221,328.286L576.268,328.411L577.316,327.361L578.363,324.449L579.41,325.204L580.457,323.462L581.504,322.959L582.552,324.795L583.599,323.198L584.646,324.374L585.693,326.468L586.74,323.689L587.788,320.764L588.835,319.865L589.882,316.243L590.929,315.086L591.976,314.4L593.024,312.677L594.071,312.206L595.118,313.124L596.165,312.287L597.212,313.809L598.26,314.463L599.307,310.577L600.354,308.891L601.401,308.3L602.448,307.168L603.496,307.948L604.543,308.583L605.59,305.967L606.637,305.552L607.684,305.376L608.732,306.866L609.779,305.54L610.826,303.401L611.873,298.892L612.92,297.358L613.968,296.446L615.015,291.975L616.062,289.969L617.109,291.893L618.156,293.447L619.204,294.151L620.251,296.371L621.298,294.22L622.345,292.264L623.392,293.497L624.44,292.503L625.487,291.635L626.534,291.717L627.581,290.214L628.628,291.918L629.676,294.503L630.723,293.579L631.77,291.874L632.817,293.239L633.864,291.384L634.912,291.151L635.959,292.692L637.006,292.918L638.053,294.811L639.1,296.214L640.147,297.408L641.195,300.949L642.242,305.024L643.289,303.445L644.336,304.401L645.383,307.615L646.431,309.244L647.478,310.03L648.525,310.96L649.572,311.501L650.619,313.092L651.667,316.237L652.714,316.425L653.761,315.57L654.808,317.538L655.855,316.947L656.903,318.111L657.95,320.846L658.997,320.771L660.044,320.984L661.091,323.72L662.139,325.179L663.186,324.764L664.233,326.21L665.28,323.349L666.327,322.802L667.375,323.965L668.422,325.846L669.469,328.525L670.516,332.122L671.563,334.97L672.611,337.832L673.658,343.158L674.705,346.101L675.752,348.384L676.799,350.472L677.847,352.49L678.894,355.006L679.941,357.113L680.988,358.358L682.035,359.886L683.083,363.244L684.13,364.653L685.177,363.414L686.224,365.225L687.271,365.961L688.319,365.269L689.366,365.898L690.413,367.08L691.46,366.885L692.507,367.841L693.555,368.652L694.602,369.193L695.649,371.941L696.696,372.507L697.743,372.507L698.791,371.117L699.838,368.545L700.885,365.759L701.932,364.571L702.979,362.785L704.027,360.131L705.074,358.666L706.121,357.352L707.168,355.188L708.215,353.427L709.263,351.006L710.31,349.246L711.357,348.252L712.404,346.655L713.451,345.806L714.499,345.391L715.546,347.504L716.593,348.252L717.64,349.459L718.687,349.755L719.735,349.868L720.782,349.793L721.829,349.396L722.876,349.837L723.923,351.384L724.971,351.623L726.018,352.163L727.065,353.446L728.112,353.905L729.159,353.056L730.206,353.843L731.254,354.094L732.301,353.566L733.348,354.05L734.395,354.698L735.442,353.937L736.49,353.151L737.537,353.975L738.584,353.736L739.631,354.679L740.678,354.717L741.726,352.855L742.773,352.522L743.82,351.22L744.867,351.22L745.914,350.881L746.962,350.239L748.009,349.007L749.056,348.812L750.103,348.101L751.15,347.522L752.198,348.843L753.245,347.705L754.292,346.246L755.339,346.711L756.386,345.56L757.434,345.567L758.481,346.07L759.528,347.617L760.575,347.906L761.622,348.51L762.67,348.132L763.717,345.001L764.764,344.844L765.811,343.743L766.858,344.529L767.906,344.535L768.953,344.755L770,343.737"/></g></svg>