<?xml version="1.0"?>
<svg xmlns="http://www.w3.org/2000/svg" xmlns:xlink="http://www.w3.org/1999/xlink" class="plot-d6a7b5" fill="currentColor" font-family="system-ui, sans-serif" font-size="10" text-anchor="middle" width="830" height="470" viewBox="0 0 830 470" color="#1e90ff">
  <style>:where(.plot-d6a7b5){--plot-background: white;display:block;height:intrinsic;max-width:100%}:where(.plot-d6a7b5 text),:where(.plot-d6a7b5 tspan){white-space:pre}</style>
  <g aria-label="y-grid" stroke="currentColor" stroke-opacity=".1">
    <line x1="60" x2="770" y1="410" y2="410"/>
    <line x1="60" x2="770" y1="378.557" y2="378.557"/>
    <line x1="60" x2="770" y1="347.114" y2="347.114"/>
    <line x1="60" x2="770" y1="315.671" y2="315.671"/>
    <line x1="60" x2="770" y1="284.227" y2="284.227"/>
    <line x1="60" x2="770" y1="252.784" y2="252.784"/>
    <line x1="60" x2="770" y1="221.341" y2="221.341"/>
    <line x1="60" x2="770" y1="189.898" y2="189.898"/>
    <line x1="60" x2="770" y1="158.455" y2="158.455"/>
    <line x1="60" x2="770" y1="127.012" y2="127.012"/>
    <line x1="60" x2="770" y1="95.568" y2="95.568"/>
    <line x1="60" x2="770" y1="64.125" y2="64.125"/>
  </g>
  <g aria-label="y-axis tick" fill="none" stroke="currentColor">
    <path transform="translate(60,410)" d="M0,0L-6,0"/>
    <path transform="translate(60,378.55684921661634)" d="M0,0L-6,0"/>
    <path transform="translate(60,347.11369843323274)" d="M0,0L-6,0"/>
    <path transform="translate(60,315.6705476498491)" d="M0,0L-6,0"/>
    <path transform="translate(60,284.2273968664655)" d="M0,0L-6,0"/>
    <path transform="translate(60,252.7842460830818)" d="M0,0L-6,0"/>
    <path transform="translate(60,221.34109529969817)" d="M0,0L-6,0"/>
    <path transform="translate(60,189.8979445163145)" d="M0,0L-6,0"/>
    <path transform="translate(60,158.45479373293085)" d="M0,0L-6,0"/>
    <path transform="translate(60,127.01164294954722)" d="M0,0L-6,0"/>
    <path transform="translate(60,95.56849216616357)" d="M0,0L-6,0"/>
    <path transform="translate(60,64.12534138277994)" d="M0,0L-6,0"/>
  </g>
  <g aria-label="y-axis tick label" text-anchor="end" font-variant="tabular-nums">
    <text y=".32em" transform="translate(-9,0) translate(60,410)">0</text>
    <text y=".32em" transform="translate(-9,0) translate(60,378.55684921661634)">5,000</text>
    <text y=".32em" transform="translate(-9,0) translate(60,347.11369843323274)">10,000</text>
    <text y=".32em" transform="translate(-9,0) translate(60,315.6705476498491)">15,000</text>
    <text y=".32em" transform="translate(-9,0) translate(60,284.2273968664655)">20,000</text>
    <text y=".32em" transform="translate(-9,0) translate(60,252.7842460830818)">25,000</text>
    <text y=".32em" transform="translate(-9,0) translate(60,221.34109529969817)">30,000</text>
    <text y=".32em" transform="translate(-9,0) translate(60,189.8979445163145)">35,000</text>
    <text y=".32em" transform="translate(-9,0) translate(60,158.45479373293085)">40,000</text>
    <text y=".32em" transform="translate(-9,0) translate(60,127.01164294954722)">45,000</text>
    <text y=".32em" transform="translate(-9,0) translate(60,95.56849216616357)">50,000</text>
    <text y=".32em" transform="translate(-9,0) translate(60,64.12534138277994)">55,000</text>
  </g>
  <g aria-label="y-axis label" text-anchor="start">
    <text y=".71em" transform="translate(-57,-57) translate(60,60)">&#x2191; Visible Vestiges (30 days)</text>
  </g>
  <g aria-label="x-axis tick" fill="none" stroke="currentColor">
    <path transform="translate(86.76274944567628,410)" d="M0,0L0,6"/>
    <path transform="translate(158.39246119733923,410)" d="M0,0L0,6"/>
    <path transform="translate(230.80931263858093,410)" d="M0,0L0,6"/>
    <path transform="translate(303.22616407982264,410)" d="M0,0L0,6"/>
    <path transform="translate(374.8558758314856,410)" d="M0,0L0,6"/>
    <path transform="translate(446.4855875831485,410)" d="M0,0L0,6"/>
    <path transform="translate(518.9024390243902,410)" d="M0,0L0,6"/>
    <path transform="translate(591.3192904656319,410)" d="M0,0L0,6"/>
    <path transform="translate(662.1618625277163,410)" d="M0,0L0,6"/>
    <path transform="translate(733.7915742793791,410)" d="M0,0L0,6"/>
  </g>
  <g aria-label="x-axis tick label" font-variant="tabular-nums">
    <text transform="translate(0,9) translate(86.76274944567628,410)">
      <tspan x="0" y=".71em">Apr</tspan>
      <tspan x="0" dy="1em">2023</tspan>
    </text>
    <text y=".71em" transform="translate(0,9) translate(158.39246119733923,410)">Jul</text>
    <text y=".71em" transform="translate(0,9) translate(230.80931263858093,410)">Oct</text>
    <text transform="translate(0,9) translate(303.22616407982264,410)">
      <tspan x="0" y=".71em">Jan</tspan>
      <tspan x="0" dy="1em">2024</tspan>
    </text>
    <text y=".71em" transform="translate(0,9) translate(374.8558758314856,410)">Apr</text>
    <text y=".71em" transform="translate(0,9) translate(446.4855875831485,410)">Jul</text>
    <text y=".71em" transform="translate(0,9) translate(518.9024390243902,410)">Oct</text>
    <text transform="translate(0,9) translate(591.3192904656319,410)">
      <tspan x="0" y=".71em">Jan</tspan>
      <tspan x="0" dy="1em">2025</tspan>
    </text>
    <text y=".71em" transform="translate(0,9) translate(662.1618625277163,410)">Apr</text>
    <text y=".71em" transform="translate(0,9) translate(733.7915742793791,410)">Jul</text>
  </g>
  <g aria-label="line" fill="none" stroke="currentColor" stroke-width="1.5" stroke-linejoin="round" stroke-linecap="round">
    <path d="M60,410L60.525,406.843L61.05,395.297L61.574,389.071L62.099,384.657L62.624,377.375L63.149,371.639L63.673,366.263L64.198,355.383L64.723,346.774L65.248,336.555L65.772,320.727L66.297,305.804L66.822,298.056L67.347,286.843L67.871,279.228L68.396,270.499L68.921,259.085L69.446,251.401L69.97,243.867L70.495,233.642L71.02,222.303L71.545,214.273L72.069,200.57L72.594,194.08L73.119,188.024L73.644,177.101L74.169,166.643L74.693,158.593L75.218,147.374L75.743,139.344L76.268,140.702L76.792,131.137L77.317,123.025L77.842,123.05L78.367,121.226L78.891,120.912L79.416,127.194L79.941,127.276L80.466,129.156L80.99,139.168L81.515,140.639L82.04,134.325L82.565,132.936L83.089,125.282L83.614,123.66L84.139,126.257L84.664,121.93L85.188,119.415L85.713,122.364L86.238,120.597L86.763,115.956L87.288,117.837L87.812,107.379L88.337,97.342L88.862,99.895L89.387,97.933L89.911,94.776L90.436,95.952L90.961,92.921L91.486,89.752L92.01,93.94L92.535,92.519L93.06,86.406L93.585,82.45L94.109,72.653L94.634,67.722L95.159,67.653L95.684,64L96.208,60L96.733,66.113L97.258,70.716L97.783,73.112L98.307,78.866L98.832,76.734L99.357,73.181L99.882,78.143L100.407,78.407L100.931,78.042L101.456,86.123L101.981,91.016L102.506,95.097L103.03,103.825L103.555,109.278L104.08,106.831L104.605,110.806L105.129,110.315L105.654,112.145L106.179,121L106.704,122.037L107.228,125.125L107.753,134.464L108.278,140.117L108.803,144.192L109.327,151.933L109.852,150.82L110.377,150.16L110.902,154.179L111.426,157.065L111.951,158.254L112.476,161.825L113.001,162.373L113.525,166.385L114.05,173.277L114.575,176.572L115.1,173.334L115.625,175.05L116.149,172.315L116.674,170.347L117.199,171.629L117.724,169.957L118.248,171.736L118.773,176.245L119.298,178.874L119.823,180.918L120.347,184.88L120.872,184.898L121.397,182.823L121.922,188.98L122.446,191.036L122.971,190.005L123.496,192.407L124.021,192.363L124.545,194.413L125.07,199.916L125.595,200.696L126.12,197.652L126.644,196.545L127.169,192.237L127.694,191.866L128.219,194.35L128.744,192.445L129.268,191.269L129.793,195.589L130.318,196.451L130.843,197.117L131.367,199.714L131.892,195.413L132.417,193.596L132.942,195.74L133.466,194.753L133.991,192.778L134.516,194.69L135.041,194.948L135.565,194.558L136.09,197.96L136.615,199.035L137.14,199.457L137.664,200.519L138.189,198.557L138.714,198.381L139.239,200.142L139.763,198.174L140.288,197.834L140.813,201.249L141.338,206.789L141.863,208.374L142.387,212.77L142.912,212.701L143.437,213.015L143.962,215.04L144.486,215.216L145.011,214.43L145.536,218.348L146.061,218.109L146.585,219.53L147.11,225.806L147.635,227.529L148.16,228.535L148.684,231.434L149.209,231.761L149.734,232.101L150.259,232.126L150.783,233.453L151.308,232.459L151.833,235.384L152.358,234.818L152.882,235.069L153.407,236.547L153.932,234.755L154.457,234.711L154.982,236.025L155.506,234.516L156.031,233.214L156.556,233.107L157.081,230.453L157.605,229.114L158.13,231.177L158.655,231.227L159.18,230.541L159.704,233.484L160.229,232.56L160.754,233.893L161.279,236.572L161.803,236.899L162.328,236.295L162.853,238.44L163.378,237.673L163.902,237.05L164.427,240.169L164.952,239.566L165.477,239.805L166.001,241.974L166.526,240.666L167.051,239.591L167.576,240.767L168.101,239.402L168.625,240.238L169.15,241.515L169.675,240.408L170.2,240.742L170.724,242.609L171.249,243.1L171.774,241.779L172.299,245.483L172.823,247.816L173.348,246.722L173.873,249.451L174.398,248.527L174.922,247.797L175.447,249.313L175.972,247.275L176.497,247.288L177.021,247.307L177.546,244.93L178.071,243.345L178.596,246.823L179.12,243.798L179.645,242.446L180.17,243.641L180.695,242.056L181.22,241.641L181.744,243.32L182.269,241.59L182.794,240.389L183.319,241.433L183.843,238.635L184.368,238.415L184.893,239.805L185.418,239.176L185.942,236.975L186.467,235.365L186.992,231.258L187.517,229.938L188.041,229.938L188.566,228.435L189.091,227.001L189.616,229.994L190.14,228.139L190.665,227.592L191.19,229.957L191.715,228.63L192.239,228.925L192.764,232.78L193.289,232.176L193.814,229.529L194.339,232.988L194.863,232.793L195.388,230.378L195.913,231.296L196.438,228.177L196.962,227.812L197.487,228.472L198.012,226.542L198.537,225.806L199.061,228.139L199.586,227.454L200.111,227.215L200.636,230.032L201.16,231.818L201.685,235.126L202.21,241.546L202.735,242.71L203.259,242.194L203.784,243.892L204.309,244.244L204.834,242.917L205.358,244.634L205.883,245.118L206.408,244.005L206.933,246.087L207.458,246.961L207.982,246.118L208.507,247.37L209.032,247.118L209.557,247.231L210.081,248.464L210.606,251.011L211.131,253.734L211.656,257.796L212.18,259.299L212.705,262.268L213.23,267.324L213.755,266.204L214.279,266.89L214.804,269.047L215.329,268.323L215.854,269.455L216.378,271.38L216.903,272.153L217.428,274.027L217.953,275.48L218.477,276.876L219.002,277.234L219.527,277.354L220.052,274.631L220.576,272.317L221.101,273.662L221.626,273.681L222.151,274.474L222.676,275.216L223.2,275.48L223.725,276.624L224.25,279.706L224.775,279.14L225.299,278.436L225.824,279.448L226.349,277.555L226.874,278.75L227.398,280.165L227.923,278.958L228.448,278.555L228.973,282.662L229.497,282.504L230.022,282.9L230.547,284.894L231.072,281.574L231.596,280.674L232.121,281.687L232.646,279.97L233.171,280.813L233.695,282.07L234.22,283.177L234.745,284.592L235.27,288.466L235.795,289.805L236.319,287.598L236.844,286.649L237.369,283.919L237.894,283.599L238.418,284.951L238.943,285.007L239.468,284.881L239.993,286.271L240.517,286.869L241.042,287.661L241.567,290.183L242.092,285.982L242.616,282.768L243.141,282.85L243.666,282.599L244.191,283.039L244.715,286.076L245.24,285.812L245.765,287.202L246.29,290.17L246.814,288.749L247.339,284.756L247.864,284.397L248.389,281.165L248.914,280.655L249.438,281.196L249.963,279.398L250.488,280.064L251.013,282.215L251.537,283.334L252.062,284.158L252.587,287.045L253.112,286.089L253.636,286.007L254.161,287.963L254.686,286.68L255.211,287.252L255.735,290.384L256.26,290.849L256.785,291.038L257.31,293.107L257.834,293.245L258.359,291.019L258.884,290.906L259.409,289.755L259.933,289.661L260.458,290.843L260.983,289.868L261.508,290.692L262.033,294.295L262.557,296.691L263.082,299.05L263.607,302.188L264.132,301.955L264.656,301.817L265.181,305.099L265.706,305.653L266.231,307.376L266.755,309.916L267.28,311.985L267.805,313.205L268.33,317.224L268.854,315.954L269.379,313.539L269.904,313.778L270.429,312.463L270.953,310.954L271.478,311.753L272.003,311.269L272.528,314.142L273.052,317.041L273.577,318.576L274.102,318.941L274.627,319.695L275.152,317.243L275.676,317.318L276.201,318.098L276.726,316.488L277.251,315.664L277.775,316.079L278.3,313.243L278.825,313.47L279.35,314.199L279.874,314.413L280.399,313.004L280.924,312.457L281.449,310.212L281.973,310.193L282.498,311.803L283.023,310.52L283.548,309.112L284.072,311.696L284.597,313.759L285.122,315.853L285.647,318.456L286.171,318.89L286.696,318.261L287.221,320.192L287.746,318.777L288.271,318.431L288.795,321.399L289.32,322.89L289.845,324.393L290.37,327.286L290.894,327.141L291.419,326.877L291.944,328.147L292.469,328.896L292.993,329.996L293.518,332.159L294.043,332.857L294.568,334.04L295.092,335.04L295.617,335.14L296.142,336.486L296.667,337.725L297.191,335.574L297.716,333.423L298.241,334.914L298.766,334.838L299.29,333.285L299.815,332.939L300.34,331.612L300.865,330.663L301.39,330.468L301.914,329.462L302.439,328.103L302.964,328.946L303.489,328.858L304.013,327.355L304.538,326.764L305.063,324.185L305.588,323.487L306.112,325.028L306.637,324.443L307.162,325.556L307.687,325.475L308.211,323.928L308.736,324.953L309.261,324.971L309.786,323.72L310.31,323.978L310.835,325.563L311.36,325.833L311.885,327.078L312.409,328.889L312.934,328.921L313.459,327.499L313.984,326.393L314.508,325.374L315.033,326.141L315.558,327.361L316.083,327.757L316.608,327.562L317.132,327.537L317.657,327.606L318.182,328.286L318.707,328.411L319.231,327.361L319.756,324.449L320.281,325.204L320.806,323.462L321.33,322.959L321.855,324.795L322.38,323.198L322.905,324.374L323.429,326.468L323.954,323.689L324.479,320.764L325.004,319.865L325.528,316.243L326.053,315.086L326.578,314.4L327.103,312.677L327.627,312.206L328.152,313.124L328.677,312.287L329.202,313.809L329.727,314.463L330.251,310.577L330.776,308.891L331.301,308.3L331.826,307.168L332.35,307.948L332.875,308.583L333.4,305.967L333.925,305.552L334.449,305.376L334.974,306.866L335.499,305.54L336.024,303.401L336.548,298.892L337.073,297.358L337.598,296.446L338.123,291.975L338.647,289.969L339.172,291.893L339.697,293.447L340.222,294.151L340.746,296.371L341.271,294.22L341.796,292.264L342.321,293.497L342.846,292.503L343.37,291.635L343.895,291.717L344.42,290.214L344.945,291.918L345.469,294.503L345.994,293.579L346.519,291.874L347.044,293.239L347.568,291.384L348.093,291.151L348.618,292.692L349.143,292.918L349.667,294.811L350.192,296.214L350.717,297.408L351.242,300.949L351.766,305.024L352.291,303.445L352.816,304.401L353.341,307.615L353.865,309.244L354.39,310.03L354.915,310.96L355.44,311.501L355.965,313.092L356.489,316.237L357.014,316.425L357.539,315.57L358.064,317.538L358.588,316.947L359.113,318.111L359.638,320.846L360.163,320.771L360.687,320.984L361.212,323.72L361.737,325.179L362.262,324.764L362.786,326.21L363.311,323.349L363.836,322.802L364.361,323.965L364.885,325.846L365.41,328.525L365.935,332.122L366.46,334.97L366.984,337.832L367.509,343.158L368.034,346.101L368.559,348.384L369.084,350.472L369.608,352.49L370.133,355.006L370.658,357.113L371.183,358.358L371.707,359.886L372.232,363.244L372.757,364.653L373.282,363.414L373.806,365.225L374.331,365.961L374.856,365.269L375.381,365.898L375.905,367.08L376.43,366.885L376.955,367.841L377.48,368.652L378.004,369.193L378.529,371.941L379.054,372.507L379.579,372.507L380.103,371.117L380.628,368.545L381.153,365.759L381.678,364.571L382.203,362.785L382.727,360.131L383.252,358.666L383.777,357.352L384.302,355.188L384.826,353.427L385.351,351.006L385.876,349.246L386.401,348.252L386.925,346.655L387.45,345.806L387.975,345.391L388.5,347.504L389.024,348.252L389.549,349.459L390.074,349.755L390.599,349.868L391.123,349.793L391.648,349.396L392.173,349.837L392.698,351.384L393.222,351.623L393.747,352.163L394.272,353.446L394.797,353.905L395.322,353.056L395.846,353.843L396.371,354.094L396.896,353.566L397.421,354.05L397.945,354.698L398.47,353.937L398.995,353.151L399.52,353.975L400.044,353.736L400.569,354.679L401.094,354.717L401.619,352.855L402.143,352.522L402.668,351.22L403.193,351.22L403.718,350.881L404.242,350.239L404.767,349.007L405.292,348.812L405.817,348.101L406.341,347.522L406.866,348.843L407.391,347.705L407.916,346.246L408.441,346.711L408.965,345.56L409.49,345.567L410.015,346.07L410.54,347.617L411.064,347.906L411.589,348.51L412.114,348.132L412.639,345.001L413.163,344.844L413.688,343.743L414.213,344.529L414.738,344.535L415.262,344.755L415.787,343.737L416.312,345.057L416.837,346.227L417.361,346.372L417.886,347.441L418.411,346.019L418.936,343.655L419.46,343.756L419.985,342.46L420.51,342.668L421.035,342.951L421.559,341.85L422.084,340.756L422.609,341.9L423.134,341.517L423.659,340.404L424.183,341.794L424.708,339.548L425.233,339.115L425.758,338.385L426.282,337.266L426.807,336.467L427.332,336.719L427.857,338.09L428.381,337.882L428.906,338.737L429.431,336.605L429.956,334.442L430.48,333.681L431.005,333.952L431.53,331.505L432.055,331.537L432.579,331.719L433.104,331.883L433.629,332.329L434.154,333.901L434.678,333.449L435.203,334.568L435.728,333.706L436.253,333.084L436.778,336.065L437.302,337.586L437.827,337.549L438.352,339.102L438.877,338.75L439.401,338.398L439.926,340.97L440.451,340.825L440.976,338.417L441.5,339.63L442.025,340.24L442.55,339.215L443.075,340.14L443.599,341.139L444.124,341.781L444.649,344.334L445.174,346.441L445.698,347.277L446.223,347.938L446.748,347.887L447.273,347.516L447.797,347.982L448.322,346.856L448.847,347.378L449.372,347.504L449.897,348.34L450.421,348.975L450.946,350.17L451.471,350.793L451.996,349.264L452.52,349.497L453.045,350.032L453.57,350.032L454.095,352.258L454.619,352.692L455.144,352.163L455.669,351.931L456.194,353.786L456.718,353.912L457.243,354.654L457.768,355.283L458.293,355.459L458.817,355.622L459.342,355.251L459.867,354.333L460.392,354.283L460.916,354.138L461.441,353.975L461.966,355.213L462.491,354.591L463.016,352.069L463.54,352.503L464.065,351.918L464.59,352.226L465.115,352.038L465.639,351.164L466.164,350.635L466.689,351.365L467.214,352.031L467.738,351.302L468.263,350.761L468.788,350.201L469.313,348.68L469.837,348.258L470.362,346.894L470.887,345.913L471.412,345.032L471.936,343.045L472.461,341.511L472.986,340.404L473.511,338.781L474.035,338.215L474.56,338.083L475.085,335.844L475.61,335.241L476.135,335.178L476.659,334.43L477.184,334.7L477.709,336.744L478.234,335.071L478.758,332.618L479.283,330.361L479.808,326.864L480.333,324.349L480.857,323.751L481.382,320.639L481.907,316.884L482.432,315.425L482.956,314.205L483.481,312.545L484.006,311.306L484.531,310.558L485.055,308.583L485.58,309.275L486.105,310.809L486.63,311.048L487.154,312.639L487.679,313.753L488.204,314.727L488.729,316.086L489.254,315.268L489.778,314.476L490.303,315.62L490.828,315.425L491.353,314.991L491.877,315.62L492.402,315.639L492.927,315.3L493.452,320.142L493.976,324.041L494.501,327.613L495.026,331.298L495.551,334.461L496.075,335.681L496.6,339.278L497.125,342.907L497.65,344.73L498.174,346.057L498.699,348.321L499.224,349.22L499.749,351.17L500.273,353.346L500.798,354.566L501.323,354.037L501.848,354.798L502.373,354.509L502.897,354.792L503.422,355.314L503.947,356.188L504.472,357.251L504.996,359.402L505.521,361.313L506.046,362.364L506.571,363.678L507.095,363.829L507.62,364.106L508.145,364.011L508.67,363.571L509.194,363.005L509.719,362.948L510.244,362.716L510.769,362.659L511.293,362.37L511.818,360.691L512.343,359.364L512.868,356.748L513.392,356.698L513.917,356.1L514.442,356.49L514.967,356.974L515.492,356.767L516.016,356.132L516.541,356.207L517.066,355.704L517.591,352.799L518.115,352.17L518.64,352.635L519.165,350.994L519.69,350.761L520.214,350.811L520.739,350.069L521.264,349.786L521.789,349.623L522.313,349.321L522.838,348.315L523.363,347.139L523.888,344.875L524.412,345.158L524.937,345.409L525.462,345.548L525.987,345.202L526.511,346.504L527.036,348.39L527.561,349.629L528.086,352.767L528.61,352.968L529.135,353.56L529.66,354.585L530.185,354.585L530.71,355.943L531.234,356.823L531.759,357.138L532.284,358.402L532.809,362.181L533.333,362.005L533.858,361.571L534.383,362.942L534.908,362.313L535.432,362.603L535.957,363.716L536.482,363.785L537.007,364.156L537.531,365.489L538.056,366.873L538.581,368.659L539.106,371.382L539.63,370.463L540.155,370.268L540.68,371.545L541.205,372.507L541.729,372.507L542.254,372.275L542.779,372.608L543.304,371.495L543.829,371.985L544.353,371.243L544.878,369.319L545.403,368.426L545.928,365.973L546.452,364.911L546.977,365.25L547.502,365.37L548.027,365.137L548.551,365.873L549.076,366.476L549.601,367.074L550.126,367.64L550.65,366.476L551.175,365.357L551.7,365.904L552.225,364.992L552.749,365.244L553.274,365.602L553.799,364.584L554.324,364.389L554.848,365.539L555.373,365.634L555.898,364.439L556.423,363.496L556.948,362.703L557.472,363.018L557.997,362.892L558.522,363.175L559.047,362.754L559.571,363.496L560.096,364.602L560.621,365.489L561.146,367.237L561.67,367.269L562.195,366.483L562.72,366.986L563.245,367.086L563.769,367.244L564.294,367.539L564.819,367.3L565.344,368.155L565.868,369.47L566.393,370.224L566.918,370.652L567.443,372.18L567.967,372.061L568.492,371.771L569.017,372.979L569.542,373.45L570.067,373.312L570.591,372.57L571.116,372.922L571.641,372.551L572.166,373.488L572.69,373.394L573.215,373.928L573.74,374.387L574.265,374.658L574.789,375.394L575.314,376.375L575.839,376.199L576.364,376.544L576.888,377.746L577.413,378.073L577.938,377.06L578.463,377.331L578.987,376.972L579.512,376.922L580.037,376.419L580.562,376.085L581.086,375.979L581.611,376.45L582.136,375.74L582.661,374.991L583.186,374.626L583.71,373.627L584.235,373.595L584.76,372.671L585.285,372.671L585.809,373.702L586.334,374.224L586.859,375.117L587.384,375.092L587.908,375.167L588.433,374.922L588.958,374.356L589.483,374.079L590.007,371.677L590.532,370.375L591.057,370.099L591.582,369.181L592.106,368.703L592.631,369.199L593.156,368.652L593.681,367.124L594.205,367.596L594.73,366.288L595.255,366.709L595.78,367.218L596.305,366.288L596.829,365.998L597.354,366.156L597.879,366.42L598.404,365.904L598.928,367.049L599.453,366.458L599.978,366.885L600.503,366.803L601.027,366.866L601.552,366.564L602.077,366.59L602.602,366.219L603.126,365.565L603.651,365.439L604.176,365.036L604.701,365.181L605.225,366.841L605.75,367.3L606.275,367.388L606.8,367.671L607.324,367.3L607.849,367.388L608.374,369.036L608.899,369.904L609.424,369.828L609.948,370.86L610.473,370.614L610.998,369.602L611.523,368.558L612.047,366.319L612.572,365.124L613.097,364.653L613.622,364.967L614.146,364.923L614.671,364.911L615.196,364.319L615.721,364.602L616.245,364.697L616.77,363.47L617.295,362.42L617.82,362.533L618.344,362.395L618.869,362.118L619.394,362.873L619.919,362.672L620.443,362.024L620.968,361.339L621.493,361.433L622.018,361.653L622.542,362.508L623.067,362.546L623.592,362.206L624.117,363.37L624.642,362.577L625.166,362.892L625.691,362.986L626.216,362.873L626.741,363.873L627.265,364.898L627.79,365.118L628.315,364.904L628.84,364.854L629.364,363.489L629.889,363.489L630.414,363.942L630.939,362.879L631.463,362.408L631.988,363.143L632.513,362.961L633.038,362.886L633.562,363.47L634.087,363.03L634.612,363.118L635.137,362.206L635.661,362.898L636.186,363.03L636.711,362.653L637.236,362.98L637.761,362.93L638.285,362.728L638.81,360.93L639.335,358.59L639.86,358.955L640.384,357.446L640.909,357.408L641.434,357.521L641.959,356.333L642.483,356.49L643.008,356.823L643.533,356.477L644.058,356.716L644.582,357.635L645.107,357.458L645.632,357.163L646.157,357.911L646.681,357.622L647.206,357.936L647.731,358.641L648.256,357.452L648.78,356.93L649.305,357.792L649.83,358.062L650.355,359.2L650.88,359.288L651.404,360.351L651.929,361.471L652.454,361.829L652.979,361.534L653.503,362.307L654.028,364.357L654.553,365.892L655.078,366.47L655.602,367.841L656.127,367.678L656.652,368.646L657.177,370.011L657.701,371.218L658.226,371.149L658.751,372.155L659.276,371.834L659.8,372.784L660.325,373.488L660.85,373.023L661.375,373.369L661.899,373.777L662.424,374.501L662.949,375.174L663.474,375.985L663.999,376.809L664.523,377.004L665.048,377.733L665.573,378.085L666.098,378.922L666.622,379.236L667.147,379.431L667.672,378.871L668.197,378.808L668.721,378.148L669.246,378.576L669.771,379.054L670.296,379.657L670.82,380.33L671.345,381.814L671.87,381.494L672.395,382.047L672.919,381.946L673.444,383.443L673.969,383.512L674.494,384.355L675.018,383.77L675.543,384.179L676.068,385.701L676.593,386.292L677.118,386.455L677.642,385.965L678.167,386.059L678.692,386.87L679.217,387.128L679.741,387.506L680.266,387.367L680.791,388.046L681.316,388.204L681.84,388.581L682.365,388.399L682.89,389.669L683.415,390.713L683.939,391.92L684.464,392.04L684.989,392.643L685.514,393.121L686.038,393.323L686.563,393.417L687.088,394.524L687.613,395.077L688.137,395.467L688.662,395.624L689.187,396.027L689.712,396.731L690.237,397.423L690.761,397.322L691.286,397.366L691.811,397.574L692.336,397.699L692.86,398.429L693.385,398.945L693.91,399.265L694.435,399.441L694.959,399.479L695.484,399.794L696.009,399.926L696.534,399.976L697.058,400.246L697.583,400.699L698.108,400.347L698.633,400.328L699.157,400.146L699.682,399.875L700.207,399.309L700.732,398.989L701.256,398.731L701.781,398.353L702.306,398.303L702.831,398.127L703.356,398.039L703.88,397.926L704.405,397.372L704.93,396.567L705.455,396.53L705.979,396.165L706.504,396.354L707.029,396.36L707.554,397.077L708.078,396.775L708.603,395.951L709.128,396.064L709.653,395.624L710.177,395.404L710.702,395.171L711.227,394.932L711.752,394.907L712.276,394.706L712.801,394.555L713.326,394.354L713.851,394.165L714.375,393.756L714.9,393.763L715.425,394.373L715.95,394.115L716.475,394.203L716.999,394.461L717.524,394.599L718.049,394.794L718.574,395.197L719.098,395.127L719.623,395.492L720.148,396.121L720.673,396.215L721.197,396.794L721.722,396.901L722.247,396.957L722.772,396.945L723.296,397.385L723.821,397.957L724.346,397.92L724.871,398.498L725.395,398.316L725.92,398.114L726.445,398.102L726.97,397.8L727.494,397.46L728.019,397.266L728.544,397.643L729.069,397.731L729.593,397.844L730.118,397.957L730.643,397.787L731.168,398.001L731.693,397.498L732.217,397.611L732.742,397.486L733.267,397.354L733.792,396.806L734.316,396.876L734.841,396.511L735.366,396.108L735.891,396.171L736.415,395.19L736.94,394.649L737.465,394.58L737.99,394.071L738.514,394.071L739.039,394.065L739.564,394.304L740.089,394.266L740.613,394.907L741.138,395.272L741.663,395.215L742.188,395.366L742.712,395.473L743.237,395.53L743.762,394.75L744.287,394.876L744.812,395.039L745.336,395.354L745.861,395.109L746.386,395.14L746.911,395.134L747.435,395.083L747.96,394.832L748.485,394.58L749.01,394.819L749.534,394.964L750.059,395.247L750.584,395.341L751.109,395.656L751.633,396.486L752.158,396.8L752.683,396.461L753.208,396.781L753.732,396.586L754.257,396.825L754.782,396.108L755.307,395.593L755.831,395.329L756.356,395.209L756.881,394.731L757.406,394.668L757.931,394.939L758.455,395.36L758.98,396.121L759.505,396.278L760.03,396.027L760.554,395.813L761.079,396.215L761.604,396.561L762.129,396.869L762.653,397.001L763.178,396.888L763.703,397.165L764.228,397.492L764.752,397.611L765.277,398.247L765.802,398.618L766.327,398.58L766.851,398.762L767.376,398.838L767.901,399.322L768.426,399.605L768.95,399.844L769.475,399.982L770,400.397"/>
  </g>
</svg>
