<?xml version="1.0"?>
<svg xmlns="http://www.w3.org/2000/svg" xmlns:xlink="http://www.w3.org/1999/xlink" class="plot-d6a7b5" fill="currentColor" font-family="system-ui, sans-serif" font-size="10" text-anchor="middle" width="830" height="470" viewBox="0 0 830 470" color="#1e90ff">
  <style>:where(.plot-d6a7b5){--plot-background: white;display:block;height:intrinsic;max-width:100%}:where(.plot-d6a7b5 text),:where(.plot-d6a7b5 tspan){white-space:pre}</style>
  <g aria-label="y-grid" aria-hidden="true" stroke="currentColor" stroke-opacity=".1">
    <line x1="60" x2="770" y1="410" y2="410"/>
    <line x1="60" x2="770" y1="384.716" y2="384.716"/>
    <line x1="60" x2="770" y1="359.432" y2="359.432"/>
    <line x1="60" x2="770" y1="334.147" y2="334.147"/>
    <line x1="60" x2="770" y1="308.863" y2="308.863"/>
    <line x1="60" x2="770" y1="283.579" y2="283.579"/>
    <line x1="60" x2="770" y1="258.295" y2="258.295"/>
    <line x1="60" x2="770" y1="233.01" y2="233.01"/>
    <line x1="60" x2="770" y1="207.726" y2="207.726"/>
    <line x1="60" x2="770" y1="182.442" y2="182.442"/>
    <line x1="60" x2="770" y1="157.158" y2="157.158"/>
    <line x1="60" x2="770" y1="131.873" y2="131.873"/>
    <line x1="60" x2="770" y1="106.589" y2="106.589"/>
    <line x1="60" x2="770" y1="81.305" y2="81.305"/>
  </g>
  <g aria-label="y-axis tick" aria-hidden="true" fill="none" stroke="currentColor">
    <path transform="translate(60,410)" d="M0,0L-6,0"/>
    <path transform="translate(60,384.715769124631)" d="M0,0L-6,0"/>
    <path transform="translate(60,359.4315382492621)" d="M0,0L-6,0"/>
    <path transform="translate(60,334.14730737389306)" d="M0,0L-6,0"/>
    <path transform="translate(60,308.86307649852415)" d="M0,0L-6,0"/>
    <path transform="translate(60,283.57884562315513)" d="M0,0L-6,0"/>
    <path transform="translate(60,258.29461474778617)" d="M0,0L-6,0"/>
    <path transform="translate(60,233.0103838724172)" d="M0,0L-6,0"/>
    <path transform="translate(60,207.72615299704825)" d="M0,0L-6,0"/>
    <path transform="translate(60,182.44192212167928)" d="M0,0L-6,0"/>
    <path transform="translate(60,157.15769124631032)" d="M0,0L-6,0"/>
    <path transform="translate(60,131.87346037094133)" d="M0,0L-6,0"/>
    <path transform="translate(60,106.58922949557235)" d="M0,0L-6,0"/>
    <path transform="translate(60,81.30499862020342)" d="M0,0L-6,0"/>
  </g>
  <g aria-label="y-axis tick label" text-anchor="end" font-variant="tabular-nums">
    <text y=".32em" transform="translate(-9,0) translate(60,410)">0</text>
    <text y=".32em" transform="translate(-9,0) translate(60,384.715769124631)">50,000</text>
    <text y=".32em" transform="translate(-9,0) translate(60,359.4315382492621)">100,000</text>
    <text y=".32em" transform="translate(-9,0) translate(60,334.14730737389306)">150,000</text>
    <text y=".32em" transform="translate(-9,0) translate(60,308.86307649852415)">200,000</text>
    <text y=".32em" transform="translate(-9,0) translate(60,283.57884562315513)">250,000</text>
    <text y=".32em" transform="translate(-9,0) translate(60,258.29461474778617)">300,000</text>
    <text y=".32em" transform="translate(-9,0) translate(60,233.0103838724172)">350,000</text>
    <text y=".32em" transform="translate(-9,0) translate(60,207.72615299704825)">400,000</text>
    <text y=".32em" transform="translate(-9,0) translate(60,182.44192212167928)">450,000</text>
    <text y=".32em" transform="translate(-9,0) translate(60,157.15769124631032)">500,000</text>
    <text y=".32em" transform="translate(-9,0) translate(60,131.87346037094133)">550,000</text>
    <text y=".32em" transform="translate(-9,0) translate(60,106.58922949557235)">600,000</text>
    <text y=".32em" transform="translate(-9,0) translate(60,81.30499862020342)">650,000</text>
  </g>
  <g aria-label="y-axis label" text-anchor="start">
    <text y=".71em" transform="translate(-57,-57) translate(60,60)">&#x2191; Total Vestiges</text>
  </g>
  <g aria-label="x-axis tick" aria-hidden="true" fill="none" stroke="currentColor">
    <path transform="translate(86.01293103448276,410)" d="M0,0L0,6"/>
    <path transform="translate(155.63577586206898,410)" d="M0,0L0,6"/>
    <path transform="translate(226.02370689655172,410)" d="M0,0L0,6"/>
    <path transform="translate(296.4116379310345,410)" d="M0,0L0,6"/>
    <path transform="translate(366.0344827586207,410)" d="M0,0L0,6"/>
    <path transform="translate(435.65732758620686,410)" d="M0,0L0,6"/>
    <path transform="translate(506.0452586206896,410)" d="M0,0L0,6"/>
    <path transform="translate(576.4331896551723,410)" d="M0,0L0,6"/>
    <path transform="translate(645.2909482758621,410)" d="M0,0L0,6"/>
    <path transform="translate(714.9137931034484,410)" d="M0,0L0,6"/>
  </g>
  <g aria-label="x-axis tick label" font-variant="tabular-nums">
    <text transform="translate(0,9) translate(86.01293103448276,410)">
      <tspan x="0" y=".71em">Apr</tspan>
      <tspan x="0" dy="1em">2023</tspan>
    </text>
    <text y=".71em" transform="translate(0,9) translate(155.63577586206898,410)">Jul</text>
    <text y=".71em" transform="translate(0,9) translate(226.02370689655172,410)">Oct</text>
    <text transform="translate(0,9) translate(296.4116379310345,410)">
      <tspan x="0" y=".71em">Jan</tspan>
      <tspan x="0" dy="1em">2024</tspan>
    </text>
    <text y=".71em" transform="translate(0,9) translate(366.0344827586207,410)">Apr</text>
    <text y=".71em" transform="translate(0,9) translate(435.65732758620686,410)">Jul</text>
    <text y=".71em" transform="translate(0,9) translate(506.0452586206896,410)">Oct</text>
    <text transform="translate(0,9) translate(576.4331896551723,410)">
      <tspan x="0" y=".71em">Jan</tspan>
      <tspan x="0" dy="1em">2025</tspan>
    </text>
    <text y=".71em" transform="translate(0,9) translate(645.2909482758621,410)">Apr</text>
    <text y=".71em" transform="translate(0,9) translate(714.9137931034484,410)">Jul</text>
  </g>
  <g aria-label="line" fill="none" stroke="currentColor" stroke-width="1.5" stroke-linejoin="round" stroke-linecap="round">
    <path d="M60,
410.00L
60.51,
409.75L
61.02,
408.82L
61.53,
408.32L
62.04,
407.96L
62.55,
407.38L
63.06,
406.92L
63.57,
406.48L
64.08,
405.61L
64.59,
404.92L
65.10,
404.09L
65.61,
402.82L
66.12,
401.62L
66.63,
401.00L
67.14,
400.10L
67.65,
399.48L
68.16,
398.78L
68.67,
397.87L
69.18,
397.25L
69.69,
396.64L
70.20,
395.82L
70.71,
394.91L
71.22,
394.26L
71.73,
393.16L
72.24,
392.64L
72.75,
392.15L
73.26,
391.27L
73.77,
390.43L
74.28,
389.78L
74.79,
388.88L
75.30,
387.98L
75.81,
387.16L
76.32,
385.89L
76.83,
384.89L
77.34,
384.30L
77.85,
383.69L
78.36,
383.24L
78.87,
382.87L
79.38,
382.18L
79.89,
381.51L
80.40,
381.04L
80.91,
379.96L
81.42,
378.83L
81.93,
377.82L
82.44,
376.59L
82.95,
375.76L
83.46,
375.05L
83.97,
374.08L
84.48,
373.27L
84.99,
372.69L
85.50,
371.64L
86.01,
370.62L
86.52,
369.67L
87.03,
368.30L
87.54,
367.01L
88.05,
366.34L
88.56,
365.34L
89.07,
364.44L
89.58,
363.63L
90.09,
362.49L
90.60,
361.41L
91.11,
360.48L
91.62,
359.36L
92.13,
358.28L
92.64,
357.36L
93.15,
356.11L
93.66,
355.34L
94.17,
354.65L
94.68,
353.69L
95.19,
352.90L
95.70,
352.31L
96.21,
351.55L
96.72,
350.73L
97.23,
349.96L
97.74,
348.96L
98.25,
347.96L
98.76,
347.40L
99.27,
346.61L
99.78,
346.00L
100.30,
345.59L
100.81,
344.97L
101.32,
344.34L
101.83,
343.68L
102.34,
342.83L
102.85,
341.96L
103.36,
341.28L
103.87,
340.34L
104.38,
339.68L
104.89,
339.25L
105.40,
338.26L
105.91,
337.57L
106.42,
337.20L
106.93,
336.58L
107.44,
335.98L
107.95,
335.36L
108.46,
334.50L
108.97,
333.76L
109.48,
333.12L
109.99,
332.56L
110.50,
332.07L
111.01,
331.59L
111.52,
330.82L
112.03,
330.37L
112.54,
329.92L
113.05,
329.19L
113.56,
328.37L
114.07,
327.72L
114.58,
326.88L
115.09,
326.32L
115.60,
325.80L
116.11,
325.04L
116.62,
324.52L
117.13,
324.03L
117.64,
323.37L
118.15,
322.86L
118.66,
322.24L
119.17,
321.58L
119.68,
320.98L
120.19,
320.48L
120.70,
319.96L
121.21,
319.51L
121.72,
319.08L
122.23,
318.48L
122.74,
318.02L
123.25,
317.61L
123.76,
316.93L
124.27,
316.04L
124.78,
315.40L
125.29,
314.55L
125.80,
314.05L
126.31,
313.47L
126.82,
312.88L
127.33,
312.33L
127.84,
311.95L
128.35,
311.19L
128.86,
310.60L
129.37,
309.97L
129.88,
309.07L
130.39,
308.40L
130.90,
307.81L
131.41,
307.21L
131.92,
306.56L
132.43,
306.06L
132.94,
305.56L
133.45,
304.91L
133.96,
304.52L
134.47,
304.01L
134.98,
303.55L
135.49,
303.12L
136.00,
302.51L
136.51,
302.07L
137.02,
301.61L
137.53,
300.99L
138.04,
300.55L
138.55,
300.14L
139.06,
299.70L
139.57,
299.18L
140.08,
298.69L
140.59,
298.19L
141.10,
297.63L
141.61,
297.20L
142.12,
296.67L
142.63,
296.23L
143.14,
295.78L
143.65,
295.17L
144.16,
294.66L
144.67,
294.25L
145.18,
293.72L
145.69,
293.22L
146.20,
292.86L
146.71,
292.23L
147.22,
291.75L
147.73,
291.26L
148.24,
290.71L
148.75,
290.25L
149.26,
289.97L
149.77,
289.46L
150.28,
289.05L
150.79,
288.56L
151.30,
287.97L
151.81,
287.51L
152.32,
287.00L
152.83,
286.44L
153.34,
285.93L
153.85,
285.48L
154.36,
284.74L
154.87,
284.15L
155.38,
283.81L
155.89,
283.26L
156.40,
282.77L
156.91,
282.48L
157.42,
281.96L
157.93,
281.62L
158.44,
281.22L
158.95,
280.74L
159.46,
280.29L
159.97,
279.93L
160.48,
279.36L
160.99,
278.95L
161.50,
278.57L
162.01,
278.05L
162.52,
277.58L
163.03,
277.20L
163.54,
276.63L
164.05,
276.27L
164.56,
275.86L
165.07,
275.33L
165.58,
274.91L
166.09,
274.43L
166.60,
273.87L
167.11,
273.39L
167.62,
272.98L
168.13,
272.50L
168.64,
271.95L
169.15,
271.52L
169.66,
271.11L
170.17,
270.68L
170.68,
270.35L
171.19,
269.79L
171.70,
269.43L
172.21,
269.04L
172.72,
268.54L
173.23,
268.14L
173.74,
267.65L
174.25,
267.01L
174.76,
266.53L
175.27,
266.24L
175.78,
265.58L
176.29,
265.10L
176.80,
264.67L
177.31,
264.07L
177.82,
263.66L
178.33,
263.23L
178.84,
262.73L
179.35,
262.22L
179.86,
261.78L
180.37,
261.13L
180.88,
260.63L
181.39,
260.19L
181.90,
259.65L
182.41,
259.06L
182.92,
258.46L
183.43,
257.58L
183.94,
257.04L
184.45,
256.63L
184.96,
256.08L
185.47,
255.63L
185.98,
255.31L
186.49,
254.81L
187.00,
254.37L
187.51,
254.06L
188.02,
253.55L
188.53,
253.09L
189.05,
252.76L
189.56,
252.23L
190.07,
251.73L
190.58,
251.35L
191.09,
250.85L
191.60,
250.23L
192.11,
249.70L
192.62,
249.04L
193.13,
248.58L
193.64,
248.13L
194.15,
247.47L
194.66,
246.97L
195.17,
246.50L
195.68,
245.95L
196.19,
245.49L
196.70,
245.18L
197.21,
244.74L
197.72,
244.40L
198.23,
244.03L
198.74,
243.58L
199.25,
243.13L
199.76,
242.72L
200.27,
242.30L
200.78,
241.88L
201.29,
241.51L
201.80,
241.11L
202.31,
240.71L
202.82,
240.37L
203.33,
239.98L
203.84,
239.58L
204.35,
239.15L
204.86,
238.63L
205.37,
238.26L
205.88,
237.86L
206.39,
237.44L
206.90,
237.13L
207.41,
236.81L
207.92,
236.46L
208.43,
236.25L
208.94,
235.99L
209.45,
235.40L
209.96,
235.00L
210.47,
234.61L
210.98,
234.10L
211.49,
233.88L
212.00,
233.59L
212.51,
233.32L
213.02,
233.10L
213.53,
232.77L
214.04,
232.43L
214.55,
232.04L
215.06,
231.64L
215.57,
230.99L
216.08,
230.44L
216.59,
230.15L
217.10,
229.75L
217.61,
229.48L
218.12,
229.15L
218.63,
228.77L
219.14,
228.43L
219.65,
228.15L
220.16,
227.74L
220.67,
227.28L
221.18,
226.94L
221.69,
226.48L
222.20,
226.25L
222.71,
226.02L
223.22,
225.71L
223.73,
225.42L
224.24,
225.16L
224.75,
224.74L
225.26,
224.39L
225.77,
224.04L
226.28,
223.55L
226.79,
223.19L
227.30,
223.00L
227.81,
222.64L
228.32,
222.38L
228.83,
222.14L
229.34,
221.85L
229.85,
221.55L
230.36,
221.22L
230.87,
220.78L
231.38,
220.30L
231.89,
219.83L
232.40,
219.34L
232.91,
218.98L
233.42,
218.71L
233.93,
218.37L
234.44,
218.09L
234.95,
217.79L
235.46,
217.38L
235.97,
217.11L
236.48,
216.85L
236.99,
216.28L
237.50,
215.79L
238.01,
215.49L
238.52,
215.18L
239.03,
214.96L
239.54,
214.78L
240.05,
214.41L
240.56,
214.16L
241.07,
213.92L
241.58,
213.44L
242.09,
212.93L
242.60,
212.54L
243.11,
212.02L
243.62,
211.74L
244.13,
211.49L
244.64,
211.05L
245.15,
210.77L
245.66,
210.50L
246.17,
210.12L
246.68,
209.71L
247.19,
209.45L
247.70,
209.02L
248.21,
208.74L
248.72,
208.56L
249.23,
208.18L
249.74,
207.92L
250.25,
207.76L
250.76,
207.53L
251.27,
207.28L
251.78,
206.88L
252.29,
206.40L
252.80,
205.92L
253.31,
205.60L
253.82,
205.29L
254.33,
205.10L
254.84,
204.83L
255.35,
204.50L
255.86,
204.32L
256.37,
204.14L
256.88,
203.81L
257.39,
203.62L
257.90,
203.35L
258.41,
203.05L
258.92,
202.79L
259.43,
202.62L
259.94,
202.38L
260.45,
202.25L
260.96,
202.07L
261.47,
201.83L
261.98,
201.67L
262.49,
201.56L
263.00,
201.18L
263.51,
200.80L
264.02,
200.44L
264.53,
200.08L
265.04,
199.80L
265.55,
199.63L
266.06,
199.34L
266.57,
199.17L
267.08,
198.93L
267.59,
198.57L
268.10,
198.28L
268.61,
198.02L
269.12,
197.64L
269.63,
197.37L
270.14,
197.11L
270.65,
196.80L
271.16,
196.55L
271.67,
196.26L
272.18,
195.84L
272.69,
195.59L
273.20,
195.35L
273.71,
195.10L
274.22,
194.82L
274.73,
194.53L
275.24,
194.22L
275.75,
194.04L
276.26,
193.93L
276.77,
193.67L
277.28,
193.44L
277.80,
193.27L
278.31,
193.07L
278.82,
192.87L
279.33,
192.71L
279.83,
192.47L
280.35,
192.25L
280.86,
192.12L
281.37,
191.84L
281.88,
191.56L
282.39,
191.45L
282.90,
191.27L
283.40,
191.14L
283.92,
190.99L
284.43,
190.71L
284.94,
190.43L
285.45,
190.22L
285.96,
190.03L
286.47,
189.83L
286.98,
189.58L
287.49,
189.38L
288.00,
189.24L
288.51,
189.07L
289.02,
188.80L
289.53,
188.62L
290.04,
188.41L
290.55,
188.06L
291.06,
187.78L
291.57,
187.63L
292.08,
187.40L
292.59,
187.10L
293.10,
186.87L
293.61,
186.57L
294.12,
186.33L
294.63,
186.08L
295.14,
185.77L
295.65,
185.54L
296.16,
185.32L
296.67,
185.04L
297.18,
184.80L
297.69,
184.58L
298.20,
184.24L
298.71,
184.04L
299.22,
183.88L
299.73,
183.55L
300.24,
183.43L
300.75,
183.23L
301.26,
182.91L
301.77,
182.74L
302.28,
182.55L
302.79,
182.30L
303.30,
182.16L
303.81,
182.01L
304.32,
181.86L
304.83,
181.74L
305.34,
181.54L
305.85,
181.26L
306.36,
181.00L
306.87,
180.68L
307.38,
180.30L
307.89,
180.13L
308.40,
179.92L
308.91,
179.72L
309.42,
179.45L
309.93,
179.14L
310.44,
178.91L
310.95,
178.75L
311.46,
178.48L
311.97,
178.15L
312.48,
177.70L
312.99,
177.42L
313.50,
177.08L
314.01,
176.88L
314.52,
176.70L
315.03,
176.45L
315.54,
176.35L
316.05,
176.19L
316.56,
175.80L
317.07,
175.37L
317.58,
175.06L
318.09,
174.62L
318.60,
174.37L
319.11,
174.17L
319.62,
173.92L
320.13,
173.67L
320.64,
173.47L
321.15,
173.14L
321.66,
172.94L
322.17,
172.62L
322.68,
172.13L
323.19,
171.79L
323.70,
171.54L
324.21,
171.18L
324.72,
170.93L
325.23,
170.76L
325.74,
170.38L
326.25,
170.08L
326.76,
169.74L
327.27,
169.41L
327.78,
169.02L
328.29,
168.51L
328.80,
167.94L
329.31,
167.64L
329.82,
167.32L
330.33,
166.85L
330.84,
166.54L
331.35,
166.30L
331.86,
166.00L
332.37,
165.74L
332.88,
165.48L
333.39,
165.06L
333.90,
164.70L
334.41,
164.55L
334.92,
164.23L
335.43,
163.95L
335.94,
163.63L
336.45,
163.31L
336.96,
163.12L
337.47,
162.84L
337.98,
162.43L
338.49,
162.04L
339.00,
161.79L
339.51,
161.40L
340.02,
161.20L
340.53,
160.95L
341.04,
160.66L
341.55,
160.48L
342.06,
160.26L
342.57,
159.97L
343.08,
159.74L
343.59,
159.50L
344.10,
159.07L
344.61,
158.83L
345.12,
158.62L
345.63,
158.44L
346.14,
158.26L
346.65,
158.03L
347.16,
157.82L
347.67,
157.69L
348.18,
157.52L
348.69,
157.18L
349.20,
156.96L
349.71,
156.79L
350.22,
156.46L
350.73,
156.24L
351.24,
156.14L
351.75,
155.95L
352.26,
155.69L
352.77,
155.49L
353.28,
155.22L
353.79,
154.93L
354.30,
154.66L
354.81,
154.23L
355.32,
153.94L
355.83,
153.75L
356.34,
153.71L
356.85,
153.71L
357.36,
153.71L
357.87,
153.70L
358.38,
153.70L
358.89,
153.69L
359.40,
153.69L
359.91,
153.67L
360.42,
153.65L
360.93,
153.64L
361.44,
153.61L
361.95,
153.57L
362.46,
153.54L
362.97,
153.50L
363.48,
153.42L
363.99,
153.31L
364.50,
153.04L
365.01,
152.86L
365.52,
152.70L
366.03,
152.54L
366.55,
152.40L
367.06,
152.23L
367.57,
152.02L
368.08,
151.83L
368.59,
151.61L
369.10,
151.38L
369.61,
151.17L
370.12,
150.92L
370.63,
150.73L
371.14,
150.58L
371.65,
150.37L
372.16,
150.15L
372.67,
150.05L
373.18,
149.90L
373.69,
149.68L
374.20,
149.56L
374.71,
149.43L
375.22,
149.24L
375.73,
149.09L
376.24,
148.87L
376.75,
148.68L
377.26,
148.57L
377.77,
148.40L
378.28,
148.25L
378.79,
148.12L
379.30,
148.02L
379.81,
147.90L
380.32,
147.83L
380.83,
147.70L
381.34,
147.56L
381.85,
147.39L
382.36,
147.15L
382.87,
147.00L
383.38,
146.90L
383.89,
146.68L
384.40,
146.52L
384.91,
146.37L
385.42,
146.22L
385.93,
146.01L
386.44,
145.86L
386.95,
145.65L
387.46,
145.51L
387.97,
145.40L
388.48,
145.24L
388.99,
145.05L
389.50,
144.86L
390.01,
144.74L
390.52,
144.57L
391.03,
144.42L
391.54,
144.24L
392.05,
143.97L
392.56,
143.78L
393.07,
143.53L
393.58,
143.39L
394.09,
143.26L
394.60,
143.09L
395.11,
142.92L
395.62,
142.78L
396.13,
142.59L
396.64,
142.37L
397.15,
142.23L
397.66,
141.99L
398.17,
141.77L
398.68,
141.59L
399.19,
141.34L
399.70,
141.19L
400.21,
141.08L
400.72,
140.99L
401.23,
140.87L
401.74,
140.71L
402.25,
140.54L
402.76,
140.18L
403.27,
140.00L
403.78,
139.73L
404.29,
139.60L
404.80,
139.47L
405.31,
139.32L
405.82,
139.09L
406.33,
139.01L
406.84,
138.85L
407.35,
138.66L
407.86,
138.50L
408.37,
138.24L
408.88,
137.93L
409.39,
137.77L
409.90,
137.49L
410.41,
137.37L
410.92,
137.20L
411.43,
136.89L
411.94,
136.66L
412.45,
136.51L
412.96,
136.26L
413.47,
136.00L
413.98,
135.85L
414.49,
135.53L
415.00,
135.38L
415.51,
135.23L
416.02,
135.02L
416.53,
134.79L
417.04,
134.64L
417.55,
134.39L
418.06,
134.20L
418.57,
134.00L
419.08,
133.70L
419.59,
133.40L
420.10,
133.18L
420.61,
132.98L
421.12,
132.70L
421.63,
132.54L
422.14,
132.37L
422.65,
132.22L
423.16,
132.00L
423.67,
131.81L
424.18,
131.61L
424.69,
131.43L
425.20,
131.23L
425.71,
131.01L
426.22,
130.94L
426.73,
130.84L
427.24,
130.68L
427.75,
130.56L
428.26,
130.27L
428.77,
130.10L
429.28,
129.98L
429.79,
129.82L
430.30,
129.47L
430.81,
129.36L
431.32,
129.19L
431.83,
128.95L
432.34,
128.78L
432.85,
128.66L
433.36,
128.51L
433.87,
128.42L
434.38,
128.29L
434.89,
128.14L
435.40,
127.99L
435.91,
127.71L
436.42,
127.51L
436.93,
127.38L
437.44,
127.14L
437.95,
126.96L
438.46,
126.79L
438.97,
126.65L
439.48,
126.52L
439.99,
126.42L
440.50,
126.25L
441.01,
126.06L
441.52,
125.98L
442.03,
125.86L
442.54,
125.74L
443.05,
125.62L
443.56,
125.49L
444.07,
125.33L
444.58,
125.15L
445.09,
124.95L
445.60,
124.85L
446.11,
124.73L
446.62,
124.55L
447.13,
124.39L
447.64,
124.29L
448.15,
124.11L
448.66,
123.94L
449.17,
123.81L
449.68,
123.65L
450.19,
123.48L
450.70,
123.30L
451.21,
123.06L
451.72,
122.72L
452.23,
122.51L
452.74,
122.29L
453.25,
122.14L
453.76,
121.99L
454.27,
121.79L
454.78,
121.65L
455.30,
121.53L
455.81,
121.40L
456.32,
121.26L
456.83,
121.10L
457.34,
120.93L
457.85,
120.69L
458.36,
120.52L
458.87,
120.25L
459.38,
119.99L
459.89,
119.73L
460.40,
119.46L
460.91,
119.23L
461.42,
118.96L
461.93,
118.66L
462.44,
118.52L
462.95,
118.32L
463.46,
117.98L
463.97,
117.79L
464.48,
117.63L
464.99,
117.40L
465.50,
117.25L
466.01,
117.17L
466.52,
116.70L
467.03,
116.29L
467.54,
115.89L
468.05,
115.45L
468.56,
115.10L
469.07,
114.85L
469.58,
114.46L
470.09,
114.05L
470.60,
113.79L
471.11,
113.55L
471.62,
113.26L
472.13,
112.99L
472.64,
112.70L
473.15,
112.37L
473.66,
112.15L
474.17,
112.02L
474.68,
111.77L
475.19,
111.63L
475.70,
111.49L
476.21,
111.29L
476.72,
111.11L
477.23,
110.90L
477.74,
110.64L
478.25,
110.39L
478.76,
110.19L
479.27,
109.99L
479.78,
109.81L
480.29,
109.66L
480.80,
109.55L
481.31,
109.47L
481.82,
109.38L
482.33,
109.26L
482.84,
109.13L
483.35,
109.03L
483.86,
108.88L
484.37,
108.77L
484.88,
108.65L
485.39,
108.54L
485.90,
108.41L
486.41,
108.30L
486.92,
108.11L
487.43,
107.97L
487.94,
107.81L
488.45,
107.69L
488.96,
107.52L
489.47,
107.33L
489.98,
107.17L
490.49,
107.05L
491.00,
106.90L
491.51,
106.78L
492.02,
106.66L
492.53,
106.57L
493.04,
106.47L
493.55,
106.36L
494.06,
106.27L
494.57,
106.10L
495.08,
105.97L
495.59,
105.85L
496.10,
105.74L
496.61,
105.60L
497.12,
105.48L
497.63,
105.32L
498.14,
105.22L
498.65,
105.05L
499.16,
104.81L
499.67,
104.58L
500.18,
104.26L
500.69,
104.12L
501.20,
103.97L
501.71,
103.80L
502.22,
103.70L
502.73,
103.53L
503.24,
103.36L
503.75,
103.19L
504.26,
102.97L
504.77,
102.57L
505.28,
102.40L
505.79,
102.28L
506.30,
102.04L
506.81,
101.89L
507.32,
101.81L
507.83,
101.65L
508.34,
101.52L
508.85,
101.41L
509.36,
101.22L
509.87,
101.01L
510.38,
100.80L
510.89,
100.50L
511.40,
100.39L
511.91,
100.29L
512.42,
100.14L
512.93,
100.01L
513.44,
99.94L
513.95,
99.85L
514.46,
99.73L
514.97,
99.66L
515.48,
99.54L
515.99,
99.43L
516.50,
99.35L
517.01,
99.25L
517.52,
99.18L
518.03,
99.09L
518.54,
98.94L
519.05,
98.82L
519.56,
98.73L
520.07,
98.54L
520.58,
98.39L
521.09,
98.26L
521.60,
98.06L
522.11,
98.00L
522.62,
97.93L
523.13,
97.80L
523.64,
97.72L
524.15,
97.64L
524.66,
97.54L
525.17,
97.47L
525.68,
97.40L
526.19,
97.21L
526.70,
97.09L
527.21,
97.05L
527.72,
97.00L
528.23,
96.93L
528.74,
96.82L
529.25,
96.72L
529.76,
96.56L
530.27,
96.48L
530.78,
96.31L
531.29,
96.08L
531.80,
95.90L
532.31,
95.64L
532.82,
95.46L
533.33,
95.34L
533.84,
95.23L
534.35,
95.12L
534.86,
94.99L
535.37,
94.89L
535.88,
94.80L
536.39,
94.65L
536.90,
94.50L
537.41,
94.34L
537.92,
94.25L
538.43,
94.10L
538.94,
94.04L
539.45,
93.97L
539.96,
93.82L
540.47,
93.73L
540.98,
93.63L
541.49,
93.52L
542.00,
93.38L
542.51,
93.26L
543.02,
93.12L
543.53,
93.04L
544.04,
92.93L
544.55,
92.80L
545.07,
92.68L
545.58,
92.57L
546.09,
92.43L
546.60,
92.32L
547.11,
92.21L
547.62,
92.02L
548.13,
91.84L
548.64,
91.77L
549.15,
91.67L
549.66,
91.55L
550.17,
91.48L
550.67,
91.37L
551.18,
91.29L
551.70,
91.24L
552.21,
91.14L
552.72,
91.09L
553.23,
91.06L
553.74,
90.99L
554.25,
90.90L
554.76,
90.85L
555.27,
90.79L
555.78,
90.68L
556.29,
90.51L
556.80,
90.40L
557.31,
90.25L
557.82,
90.19L
558.33,
90.10L
558.84,
90.03L
559.35,
89.93L
559.86,
89.84L
560.37,
89.79L
560.88,
89.72L
561.39,
89.61L
561.90,
89.52L
562.41,
89.43L
562.92,
89.28L
563.43,
89.12L
563.94,
89.04L
564.45,
88.90L
564.96,
88.82L
565.47,
88.67L
565.98,
88.56L
566.49,
88.51L
567.00,
88.44L
567.51,
88.34L
568.02,
88.25L
568.53,
88.15L
569.04,
87.97L
569.55,
87.92L
570.06,
87.79L
570.57,
87.68L
571.08,
87.59L
571.59,
87.53L
572.10,
87.44L
572.61,
87.38L
573.12,
87.30L
573.63,
87.21L
574.14,
87.07L
574.65,
86.95L
575.16,
86.71L
575.67,
86.54L
576.18,
86.40L
576.69,
86.23L
577.20,
86.11L
577.71,
85.99L
578.22,
85.80L
578.73,
85.59L
579.24,
85.49L
579.75,
85.30L
580.26,
85.19L
580.77,
85.12L
581.28,
84.99L
581.79,
84.91L
582.30,
84.81L
582.81,
84.74L
583.32,
84.60L
583.83,
84.52L
584.34,
84.42L
584.85,
84.32L
585.36,
84.21L
585.87,
84.13L
586.38,
84.03L
586.89,
83.95L
587.40,
83.86L
587.91,
83.72L
588.42,
83.63L
588.93,
83.45L
589.44,
83.35L
589.95,
83.24L
590.46,
83.10L
590.97,
82.97L
591.48,
82.83L
591.99,
82.68L
592.50,
82.57L
593.01,
82.50L
593.52,
82.37L
594.03,
82.26L
594.54,
82.15L
595.05,
82.02L
595.56,
81.87L
596.07,
81.66L
596.58,
81.39L
597.09,
81.20L
597.60,
81.10L
598.11,
80.98L
598.62,
80.89L
599.13,
80.79L
599.64,
80.65L
600.15,
80.56L
600.66,
80.48L
601.17,
80.29L
601.68,
80.13L
602.19,
80.04L
602.70,
79.90L
603.21,
79.78L
603.72,
79.66L
604.23,
79.54L
604.74,
79.38L
605.25,
79.19L
605.76,
79.07L
606.27,
78.94L
606.78,
78.86L
607.29,
78.75L
607.80,
78.66L
608.31,
78.62L
608.82,
78.44L
609.33,
78.36L
609.84,
78.24L
610.35,
78.08L
610.86,
77.95L
611.37,
77.77L
611.88,
77.59L
612.39,
77.47L
612.90,
77.35L
613.41,
77.15L
613.92,
77.05L
614.43,
76.94L
614.94,
76.77L
615.45,
76.66L
615.96,
76.52L
616.47,
76.34L
616.98,
76.25L
617.49,
76.15L
618.00,
76.00L
618.51,
75.89L
619.02,
75.70L
619.53,
75.59L
620.04,
75.41L
620.55,
75.26L
621.06,
75.16L
621.57,
75.07L
622.08,
74.95L
622.59,
74.71L
623.10,
74.49L
623.61,
74.34L
624.12,
74.14L
624.63,
74.01L
625.14,
73.86L
625.65,
73.64L
626.16,
73.46L
626.67,
73.32L
627.18,
73.17L
627.69,
73.07L
628.20,
72.94L
628.71,
72.83L
629.22,
72.69L
629.73,
72.58L
630.24,
72.44L
630.75,
72.34L
631.26,
72.21L
631.77,
72.03L
632.28,
71.89L
632.79,
71.80L
633.30,
71.72L
633.82,
71.61L
634.33,
71.52L
634.84,
71.42L
635.35,
71.36L
635.86,
71.29L
636.37,
71.17L
636.88,
71.11L
637.39,
71.04L
637.90,
70.94L
638.41,
70.84L
638.92,
70.75L
639.42,
70.61L
639.93,
70.54L
640.45,
70.42L
640.96,
70.35L
641.47,
70.19L
641.98,
70.12L
642.49,
70.00L
643.00,
69.95L
643.51,
69.89L
644.02,
69.72L
644.53,
69.63L
645.04,
69.53L
645.55,
69.48L
646.06,
69.41L
646.57,
69.29L
647.08,
69.22L
647.59,
69.15L
648.10,
69.12L
648.61,
69.05L
649.12,
69.02L
649.63,
68.95L
650.14,
68.90L
650.65,
68.78L
651.16,
68.67L
651.67,
68.55L
652.18,
68.52L
652.69,
68.45L
653.20,
68.40L
653.71,
68.36L
654.22,
68.34L
654.73,
68.25L
655.24,
68.17L
655.75,
68.09L
656.26,
68.06L
656.77,
67.99L
657.28,
67.94L
657.79,
67.84L
658.30,
67.81L
658.81,
67.77L
659.32,
67.73L
659.83,
67.64L
660.34,
67.55L
660.85,
67.49L
661.36,
67.43L
661.87,
67.38L
662.38,
67.34L
662.89,
67.30L
663.40,
67.28L
663.91,
67.26L
664.42,
67.22L
664.93,
67.16L
665.44,
67.15L
665.95,
67.11L
666.46,
67.10L
666.97,
67.07L
667.48,
67.06L
667.99,
67.04L
668.50,
67.02L
669.01,
67.01L
669.52,
67.00L
670.03,
66.97L
670.54,
66.92L
671.05,
66.90L
671.56,
66.87L
672.07,
66.87L
672.58,
66.83L
673.09,
66.79L
673.60,
66.75L
674.11,
66.73L
674.62,
66.65L
675.13,
66.62L
675.64,
66.60L
676.15,
66.57L
676.66,
66.53L
677.17,
66.49L
677.68,
66.48L
678.19,
66.47L
678.70,
66.46L
679.21,
66.44L
679.72,
66.41L
680.23,
66.37L
680.74,
66.34L
681.25,
66.31L
681.76,
66.26L
682.27,
66.19L
682.78,
66.16L
683.29,
66.12L
683.80,
66.07L
684.31,
66.06L
684.82,
66.02L
685.33,
65.96L
685.84,
65.93L
686.35,
65.85L
686.86,
65.79L
687.37,
65.75L
687.88,
65.68L
688.39,
65.65L
688.90,
65.63L
689.41,
65.61L
689.92,
65.56L
690.43,
65.47L
690.94,
65.45L
691.45,
65.37L
691.96,
65.32L
692.47,
65.29L
692.98,
65.26L
693.49,
65.24L
694.00,
65.21L
694.51,
65.17L
695.02,
65.11L
695.53,
65.06L
696.04,
65.00L
696.55,
64.95L
697.06,
64.94L
697.57,
64.88L
698.08,
64.85L
698.59,
64.82L
699.10,
64.82L
699.61,
64.80L
700.12,
64.77L
700.63,
64.73L
701.14,
64.69L
701.65,
64.67L
702.16,
64.64L
702.67,
64.62L
703.18,
64.60L
703.69,
64.58L
704.20,
64.56L
704.71,
64.54L
705.22,
64.50L
705.73,
64.48L
706.24,
64.45L
706.75,
64.38L
707.26,
64.33L
707.77,
64.30L
708.28,
64.26L
708.79,
64.20L
709.30,
64.15L
709.81,
64.12L
710.32,
64.08L
710.83,
64.02L
711.34,
63.98L
711.85,
63.96L
712.36,
63.91L
712.87,
63.84L
713.38,
63.83L
713.89,
63.82L
714.40,
63.78L
714.91,
63.71L
715.42,
63.68L
715.93,
63.60L
716.44,
63.55L
716.95,
63.52L
717.46,
63.43L
717.97,
63.37L
718.48,
63.34L
718.99,
63.28L
719.50,
63.26L
720.01,
63.22L
720.52,
63.22L
721.03,
63.18L
721.55,
63.17L
722.06,
63.15L
722.57,
63.12L
723.08,
63.09L
723.59,
63.03L
724.10,
62.98L
724.61,
62.90L
725.12,
62.86L
725.63,
62.82L
726.14,
62.81L
726.65,
62.76L
727.16,
62.72L
727.67,
62.65L
728.18,
62.63L
728.69,
62.60L
729.20,
62.54L
729.71,
62.49L
730.22,
62.47L
730.73,
62.42L
731.24,
62.38L
731.75,
62.37L
732.26,
62.34L
732.77,
62.30L
733.28,
62.25L
733.79,
62.22L
734.30,
62.18L
734.81,
62.16L
735.32,
62.10L
735.83,
62.03L
736.34,
61.99L
736.85,
61.96L
737.36,
61.89L
737.87,
61.85L
738.38,
61.82L
738.89,
61.81L
739.40,
61.78L
739.91,
61.76L
740.42,
61.70L
740.93,
61.67L
741.44,
61.65L
741.95,
61.64L
742.46,
61.59L
742.97,
61.58L
743.48,
61.54L
743.99,
61.51L
744.50,
61.48L
745.01,
61.47L
745.52,
61.47L
746.03,
61.46L
746.54,
61.45L
747.05,
61.44L
747.56,
61.41L
748.07,
61.39L
748.58,
61.38L
749.09,
61.37L
749.60,
61.35L
750.11,
61.33L
750.62,
61.27L
751.13,
61.26L
751.64,
61.22L
752.15,
61.14L
752.66,
61.04L
753.17,
60.95L
753.68,
60.93L
754.19,
60.90L
754.70,
60.87L
755.21,
60.85L
755.72,
60.83L
756.23,
60.79L
756.74,
60.74L
757.25,
60.68L
757.76,
60.65L
758.27,
60.63L
758.78,
60.62L
759.29,
60.60L
759.80,
60.53L
760.31,
60.51L
760.82,
60.48L
761.33,
60.45L
761.84,
60.43L
762.35,
60.38L
762.86,
60.34L
763.37,
60.27L
763.88,
60.27L
764.39,
60.26L
764.90,
60.25L
765.41,
60.22L
765.92,
60.22L
766.43,
60.15L
766.94,
60.13L
767.45,
60.08L
767.96,
60.02L
768.47,
60.02L
768.98,
60.01L
769.49,
60.01L
770.00,
60"/>
  </g>
</svg>
