<svg xmlns="http://www.w3.org/2000/svg" width="830" height="470" fill="currentColor" class="plot-d6a7b5" font-family="system-ui, sans-serif" font-size="10" style="--plot-background:white;display:block;height:intrinsic;max-width:100%;color:#1e90ff" text-anchor="middle" viewBox="0 0 830 470">
    <style>
        :where(.plot-d6a7b5 text),:where(.plot-d6a7b5 tspan){white-space:pre}
    </style>
    <path stroke="currentColor" stroke-opacity=".1" d="
M60
410
h710
M60
360.93
h710
M60
311.859
h710
m-710
-49.07
h710
M60
213.718
h710
m-710
-49.07
h710
M60
115.577
h710
M60
66.507
h710" aria-hidden="true" aria-label="y-grid"/>
    <path fill="none" stroke="currentColor" d="
M60
410
h-6
m6
-49.07
h-6
m6
-49.07
h-6
m6
-49.071
h-6
m6
-49.071
h-6
m6
-49.07
h-6
m6
-49.071
h-6
m6
-49.07
h-6" aria-hidden="true" aria-label="y-axis tick"/>
    <g aria-label="y-axis tick label" font-variant="tabular-nums" text-anchor="end">
        <text y=".32em" transform="translate(51 410)">0</text>
        <text y=".32em" transform="translate(51 360.93)">100,000</text>
        <text y=".32em" transform="translate(51 311.86)">200,000</text>
        <text y=".32em" transform="translate(51 262.789)">300,000</text>
        <text y=".32em" transform="translate(51 213.718)">400,000</text>
        <text y=".32em" transform="translate(51 164.648)">500,000</text>
        <text y=".32em" transform="translate(51 115.577)">600,000</text>
        <text y=".32em" transform="translate(51 66.507)">700,000</text>
    </g>
    <text y=".71em" aria-label="y-axis label" text-anchor="start" transform="translate(3 3)">↑ Total vestiges</text>
    <path fill="none" stroke="currentColor" d="
M80.715
410
v6
m55.443
-6
v6
m56.053
-6
v6
m56.053
-6
v6
m55.443
-6
v6
m55.443
-6
v6
m56.053
-6
v6
m56.053
-6
v6
m54.834
-6
v6
m55.443
-6
v6
m56.053
-6
v6
m56.052
-6
v6
m54.835
-6
v6" aria-hidden="true" aria-label="x-axis tick"/>
    <g aria-label="x-axis tick label" font-variant="tabular-nums">
        <text transform="translate(80.715 419)"><tspan x="0" y=".71em">Apr</tspan><tspan x="0" dy="1em">2023</tspan></text>
        <text y=".71em" transform="translate(136.158 419)">Jul</text>
        <text y=".71em" transform="translate(192.211 419)">Oct</text>
        <text transform="translate(248.264 419)"><tspan x="0" y=".71em">Jan</tspan><tspan x="0" dy="1em">2024</tspan></text>
        <text y=".71em" transform="translate(303.707 419)">Apr</text>
        <text y=".71em" transform="translate(359.15 419)">Jul</text>
        <text y=".71em" transform="translate(415.203 419)">Oct</text>
        <text transform="translate(471.256 419)"><tspan x="0" y=".71em">Jan</tspan><tspan x="0" dy="1em">2025</tspan></text>
        <text y=".71em" transform="translate(526.09 419)">Apr</text>
        <text y=".71em" transform="translate(581.533 419)">Jul</text>
        <text y=".71em" transform="translate(637.586 419)">Oct</text>
        <text transform="translate(693.638 419)"><tspan x="0" y=".71em">Jan</tspan><tspan x="0" dy="1em">2026</tspan></text>
        <text y=".71em" transform="translate(748.473 419)">Apr</text>
    </g>
    <path fill="none" stroke="currentColor" stroke-linecap="round" stroke-linejoin="round" stroke-width="1.5" d="
m60
410
.406
-.246
.406
-.901
.407
-.486
.406
-.345
.406
-.568
.406
-.447
.406
-.42
.406
-.849
.407
-.672
.406
-.797
.406
-1.235
.406
-1.164
.406
-.605
.406
-.875
.407
-.594
.406
-.681
.406
-.891
.406
-.6
.406
-.587
.407
-.798
.406
-.885
.406
-.627
.406
-1.069
.406
-.506
.406
-.473
.407
-.852
.406
-.816
.406
-.628
.406
-.876
.406
-.873
.407
-.795
.406
-1.232
.406
-.977
.406
-.567
.406
-.589
.406
-.445
.407
-.358
.406
-.666
.406
-.65
.406
-.454
.406
-1.05
.406
-1.097
.407
-.983
.406
-1.192
.406
-.808
.406
-.688
.406
-.937
.407
-.784
.406
-.568
.406
-1.022
.406
-.989
.406
-.923
.406
-1.322
.407
-1.256
.406
-.653
.406
-.969
.406
-.874
.406
-.784
.407
-1.11
.406
-1.042
.406
-.905
.406
-1.089
.406
-1.043
.406
-.898
.407
-1.209
.406
-.743
.406
-.671
.406
-.936
.406
-.766
.406
-.573
.407
-.738
.406
-.796
.406
-.742
.406
-.974
.406
-.966
.407
-.55
.406
-.763
.406
-.596
.406
-.393
.406
-.607
.406
-.604
.407
-.641
.406
-.83
.406
-.844
.406
-.659
.406
-.913
.407
-.641
.406
-.418
.406
-.962
.406
-.664
.406
-.36
.406
-.602
.407
-.58
.406
-.605
.406
-.83
.406
-.723
.406
-.622
.406
-.541
.407
-.479
.406
-.46
.406
-.753
.406
-.43
.406
-.436
.407
-.708
.406
-.803
.406
-.629
.406
-.81
.406
-.546
.406
-.507
.407
-.734
.406
-.503
.406
-.478
.406
-.639
.406
-.5
.407
-.603
.406
-.64
.406
-.58
.406
-.481
.406
-.504
.406
-.44
.407
-.415
.406
-.584
.406
-.444
.406
-.401
.406
-.662
.406
-.859
.407
-.627
.406
-.817
.406
-.488
.406
-.56
.406
-.578
.407
-.528
.406
-.371
.406
-.735
.406
-.578
.406
-.607
.406
-.881
.407
-.649
.406
-.567
.406
-.58
.406
-.632
.406
-.49
.407
-.479
.406
-.634
.406
-.374
.406
-.497
.406
-.448
.406
-.421
.407
-.593
.406
-.428
.406
-.447
.406
-.598
.406
-.428
.406
-.395
.407
-.427
.406
-.503
.406
-.474
.406
-.493
.406
-.536
.407
-.42
.406
-.514
.406
-.432
.406
-.43
.406
-.596
.406
-.496
.407
-.392
.406
-.514
.406
-.489
.406
-.353
.406
-.607
.407
-.463
.406
-.478
.406
-.53
.406
-.452
.406
-.268
.406
-.492
.407
-.402
.406
-.478
.406
-.568
.406
-.45
.406
-.496
.406
-.545
.407
-.496
.406
-.436
.406
-.711
.406
-.577
.406
-.333
.407
-.531
.406
-.474
.406
-.284
.406
-.505
.406
-.326
.406
-.387
.407
-.47
.406
-.439
.406
-.347
.406
-.549
.406
-.402
.407
-.363
.406
-.51
.406
-.459
.406
-.361
.406
-.554
.406
-.352
.407
-.401
.406
-.508
.406
-.412
.406
-.469
.406
-.536
.406
-.47
.407
-.399
.406
-.459
.406
-.538
.406
-.422
.406
-.395
.407
-.418
.406
-.319
.406
-.546
.406
-.341
.406
-.386
.406
-.485
.407
-.386
.406
-.469
.406
-.625
.406
-.47
.406
-.277
.407
-.638
.406
-.469
.406
-.418
.406
-.582
.406
-.394
.406
-.422
.407
-.487
.406
-.495
.406
-.426
.406
-.631
.406
-.486
.406
-.428
.407
-.518
.406
-.572
.406
-.583
.406
-.86
.406
-.524
.407
-.396
.406
-.535
.406
-.43
.406
-.313
.406
-.486
.406
-.429
.407
-.3
.406
-.49
.406
-.446
.406
-.323
.406
-.518
.407
-.484
.406
-.368
.406
-.484
.406
-.606
.406
-.51
.406
-.637
.407
-.451
.406
-.436
.406
-.645
.406
-.484
.406
-.449
.406
-.539
.407
-.446
.406
-.299
.406
-.432
.406
-.326
.406
-.358
.407
-.434
.406
-.436
.406
-.403
.406
-.402
.406
-.416
.406
-.352
.407
-.392
.406
-.387
.406
-.327
.406
-.378
.406
-.389
.407
-.42
.406
-.503
.406
-.36
.406
-.388
.406
-.407
.406
-.298
.407
-.32
.406
-.334
.406
-.204
.406
-.25
.406
-.571
.406
-.396
.407
-.371
.406
-.503
.406
-.21
.406
-.282
.406
-.265
.407
-.212
.406
-.321
.406
-.326
.406
-.375
.406
-.394
.406
-.628
.407
-.533
.406
-.286
.406
-.386
.406
-.265
.406
-.32
.407
-.369
.406
-.33
.406
-.263
.406
-.404
.406
-.443
.406
-.328
.407
-.446
.406
-.226
.406
-.224
.406
-.298
.406
-.282
.406
-.25
.407
-.408
.406
-.34
.406
-.348
.406
-.469
.406
-.352
.407
-.187
.406
-.346
.406
-.254
.406
-.229
.406
-.288
.406
-.284
.407
-.325
.406
-.429
.406
-.458
.406
-.46
.406
-.478
.407
-.345
.406
-.263
.406
-.327
.406
-.272
.406
-.295
.406
-.397
.407
-.266
.406
-.249
.406
-.555
.406
-.474
.406
-.292
.406
-.301
.407
-.216
.406
-.171
.406
-.361
.406
-.239
.406
-.238
.407
-.462
.406
-.498
.406
-.374
.406
-.507
.406
-.269
.406
-.246
.407
-.423
.406
-.274
.406
-.261
.406
-.371
.406
-.395
.407
-.254
.406
-.419
.406
-.269
.406
-.174
.406
-.373
.406
-.25
.407
-.153
.406
-.229
.406
-.235
.406
-.393
.406
-.463
.406
-.466
.407
-.31
.406
-.306
.406
-.178
.406
-.269
.406
-.315
.407
-.173
.406
-.182
.406
-.311
.406
-.19
.406
-.262
.406
-.286
.407
-.258
.406
-.167
.406
-.231
.406
-.126
.406
-.172
.407
-.234
.406
-.158
.406
-.106
.406
-.369
.406
-.362
.406
-.354
.407
-.353
.406
-.27
.406
-.167
.406
-.273
.406
-.169
.406
-.237
.407
-.346
.406
-.281
.406
-.248
.406
-.369
.406
-.263
.407
-.254
.406
-.299
.406
-.246
.406
-.279
.406
-.411
.406
-.244
.407
-.23
.406
-.24
.406
-.278
.406
-.273
.406
-.301
.407
-.174
.406
-.109
.406
-.258
.406
-.216
.406
-.167
.406
-.201
.407
-.191
.406
-.149
.406
-.236
.406
-.217
.406
-.122
.406
-.279
.407
-.264
.406
-.114
.406
-.165
.406
-.13
.406
-.144
.407
-.274
.406
-.275
.406
-.2
.406
-.188
.406
-.192
.406
-.243
.407
-.19
.406
-.137
.406
-.163
.406
-.269
.406
-.168
.406
-.205
.407
-.342
.406
-.276
.406
-.142
.406
-.222
.406
-.288
.407
-.228
.406
-.294
.406
-.224
.406
-.251
.406
-.295
.406
-.228
.407
-.213
.406
-.271
.406
-.232
.406
-.211
.406
-.332
.407
-.198
.406
-.153
.406
-.321
.406
-.113
.406
-.194
.406
-.314
.407
-.162
.406
-.188
.406
-.236
.406
-.142
.406
-.146
.406
-.147
.407
-.107
.406
-.201
.406
-.274
.406
-.252
.406
-.309
.407
-.367
.406
-.169
.406
-.199
.406
-.193
.406
-.266
.406
-.297
.407
-.222
.406
-.161
.406
-.261
.406
-.313
.406
-.439
.407
-.272
.406
-.334
.406
-.193
.406
-.177
.406
-.238
.406
-.103
.407
-.15
.406
-.379
.406
-.417
.406
-.305
.406
-.425
.406
-.236
.407
-.2
.406
-.242
.406
-.238
.406
-.202
.406
-.318
.407
-.189
.406
-.317
.406
-.472
.406
-.33
.406
-.239
.406
-.355
.407
-.236
.406
-.173
.406
-.364
.406
-.294
.406
-.327
.407
-.323
.406
-.375
.406
-.501
.406
-.545
.406
-.297
.406
-.309
.407
-.451
.406
-.307
.406
-.229
.406
-.295
.406
-.251
.406
-.251
.407
-.404
.406
-.353
.406
-.146
.406
-.315
.406
-.27
.407
-.312
.406
-.306
.406
-.184
.406
-.27
.406
-.403
.406
-.372
.407
-.248
.406
-.381
.406
-.191
.406
-.244
.406
-.276
.407
-.179
.406
-.213
.406
-.283
.406
-.225
.406
-.226
.406
-.42
.407
-.235
.406
-.2
.406
-.18
.406
-.168
.406
-.222
.406
-.208
.407
-.128
.406
-.159
.406
-.338
.406
-.213
.406
-.161
.407
-.316
.406
-.221
.406
-.093
.406
-.19
.406
-.253
.406
-.189
.407
-.258
.406
-.281
.406
-.268
.406
-.414
.406
-.287
.407
-.185
.406
-.033
.406
-.004
.406
-.002
.406
-.002
.406
-.004
.407
-.004
.406
-.005
.406
-.022
.406
-.017
.406
-.01
.406
-.027
.407
-.043
.406
-.031
.406
-.039
.406
-.077
.406
-.102
.407
-.258
.406
-.175
.406
-.163
.406
-.148
.406
-.14
.406
-.161
.407
-.204
.406
-.184
.406
-.217
.406
-.226
.406
-.2
.407
-.243
.406
-.185
.406
-.141
.406
-.205
.406
-.219
.406
-.095
.407
-.143
.406
-.211
.406
-.12
.406
-.124
.406
-.186
.406
-.148
.407
-.215
.406
-.181
.406
-.108
.406
-.164
.406
-.143
.407
-.135
.406
-.093
.406
-.116
.406
-.069
.406
-.124
.406
-.132
.407
-.167
.406
-.235
.406
-.15
.406
-.096
.406
-.207
.407
-.158
.406
-.143
.406
-.149
.406
-.207
.406
-.144
.406
-.199
.407
-.137
.406
-.105
.406
-.161
.406
-.178
.406
-.186
.406
-.122
.407
-.166
.406
-.142
.406
-.178
.406
-.253
.406
-.19
.407
-.244
.406
-.135
.406
-.12
.406
-.166
.406
-.166
.406
-.139
.407
-.187
.406
-.212
.406
-.132
.406
-.238
.406
-.211
.407
-.171
.406
-.247
.406
-.142
.406
-.11
.406
-.087
.406
-.121
.407
-.152
.406
-.166
.406
-.35
.406
-.173
.406
-.264
.406
-.125
.407
-.121
.406
-.149
.406
-.221
.406
-.075
.406
-.162
.407
-.179
.406
-.161
.406
-.246
.406
-.304
.406
-.158
.406
-.267
.407
-.123
.406
-.165
.406
-.298
.406
-.218
.406
-.148
.407
-.241
.406
-.257
.406
-.139
.406
-.318
.406
-.143
.406
-.144
.407
-.208
.406
-.215
.406
-.146
.406
-.243
.406
-.189
.406
-.198
.407
-.291
.406
-.29
.406
-.208
.406
-.2
.406
-.266
.407
-.16
.406
-.164
.406
-.148
.406
-.211
.406
-.182
.406
-.194
.407
-.179
.406
-.19
.406
-.214
.406
-.065
.406
-.099
.407
-.152
.406
-.119
.406
-.285
.406
-.166
.406
-.117
.406
-.155
.407
-.332
.406
-.113
.406
-.168
.406
-.226
.406
-.17
.406
-.112
.407
-.147
.406
-.092
.406
-.125
.406
-.143
.406
-.149
.407
-.27
.406
-.188
.406
-.128
.406
-.236
.406
-.171
.406
-.172
.407
-.128
.406
-.13
.406
-.097
.406
-.165
.406
-.184
.407
-.081
.406
-.11
.406
-.119
.406
-.112
.406
-.132
.406
-.158
.407
-.173
.406
-.187
.406
-.104
.406
-.109
.406
-.177
.406
-.157
.407
-.099
.406
-.176
.406
-.164
.406
-.129
.406
-.154
.407
-.162
.406
-.173
.406
-.237
.406
-.325
.406
-.202
.406
-.216
.407
-.148
.406
-.143
.406
-.198
.406
-.138
.406
-.108
.407
-.132
.406
-.138
.406
-.152
.406
-.163
.406
-.231
.406
-.165
.407
-.264
.406
-.25
.406
-.256
.406
-.258
.406
-.23
.406
-.263
.407
-.283
.406
-.143
.406
-.187
.406
-.338
.406
-.176
.407
-.16
.406
-.22
.406
-.152
.406
-.077
.406
-.456
.406
-.393
.407
-.392
.406
-.421
.406
-.339
.406
-.245
.406
-.381
.407
-.401
.406
-.246
.406
-.233
.406
-.282
.406
-.26
.406
-.288
.407
-.32
.406
-.21
.406
-.13
.406
-.237
.406
-.135
.406
-.142
.407
-.187
.406
-.177
.406
-.207
.406
-.249
.406
-.249
.407
-.191
.406
-.193
.406
-.171
.406
-.151
.406
-.104
.406
-.077
.407
-.09
.406
-.113
.406
-.133
.406
-.093
.406
-.149
.407
-.1
.406
-.118
.406
-.104
.406
-.13
.406
-.105
.406
-.189
.407
-.137
.406
-.149
.406
-.116
.406
-.171
.406
-.177
.406
-.157
.407
-.121
.406
-.146
.406
-.109
.406
-.124
.406
-.081
.407
-.1
.406
-.109
.406
-.091
.406
-.159
.406
-.129
.406
-.111
.407
-.112
.406
-.134
.406
-.117
.406
-.152
.406
-.097
.407
-.171
.406
-.232
.406
-.221
.406
-.309
.406
-.133
.406
-.152
.407
-.159
.406
-.098
.406
-.166
.406
-.165
.406
-.165
.406
-.217
.407
-.384
.406
-.169
.406
-.111
.406
-.237
.406
-.141
.407
-.078
.406
-.157
.406
-.132
.406
-.103
.406
-.183
.406
-.207
.407
-.203
.406
-.289
.406
-.111
.406
-.098
.406
-.141
.406
-.124
.407
-.07
.406
-.084
.406
-.125
.406
-.063
.406
-.118
.407
-.106
.406
-.079
.406
-.098
.406
-.06
.406
-.096
.406
-.141
.407
-.118
.406
-.089
.406
-.183
.406
-.145
.406
-.13
.407
-.19
.406
-.055
.406
-.071
.406
-.126
.406
-.074
.406
-.079
.407
-.099
.406
-.064
.406
-.076
.406
-.183
.406
-.114
.406
-.04
.407
-.049
.406
-.071
.406
-.102
.406
-.099
.406
-.15
.407
-.079
.406
-.164
.406
-.229
.406
-.168
.406
-.252
.406
-.179
.407
-.114
.406
-.109
.406
-.107
.406
-.126
.406
-.097
.407
-.083
.406
-.147
.406
-.145
.406
-.158
.406
-.084
.406
-.145
.407
-.059
.406
-.072
.406
-.143
.406
-.091
.406
-.094
.406
-.106
.407
-.134
.406
-.122
.406
-.132
.406
-.078
.406
-.109
.407
-.128
.406
-.112
.406
-.106
.406
-.142
.406
-.1
.406
-.114
.407
-.177
.406
-.176
.406
-.069
.406
-.1
.406
-.113
.407
-.074
.406
-.102
.406
-.08
.406
-.043
.406
-.099
.406
-.05
.407
-.026
.406
-.069
.406
-.094
.406
-.049
.406
-.054
.406
-.104
.407
-.164
.406
-.107
.406
-.151
.406
-.059
.406
-.086
.407
-.066
.406
-.093
.406
-.091
.406
-.048
.406
-.066
.406
-.113
.407
-.088
.406
-.083
.406
-.15
.406
-.149
.406
-.078
.407
-.141
.406
-.078
.406
-.141
.406
-.106
.406
-.051
.406
-.063
.407
-.105
.406
-.085
.406
-.097
.406
-.172
.406
-.052
.406
-.126
.407
-.104
.406
-.084
.406
-.065
.406
-.082
.406
-.061
.407
-.08
.406
-.086
.406
-.136
.406
-.113
.406
-.235
.406
-.168
.407
-.135
.406
-.159
.406
-.12
.406
-.112
.406
-.191
.407
-.197
.406
-.105
.406
-.18
.406
-.108
.406
-.067
.406
-.123
.407
-.085
.406
-.093
.406
-.065
.406
-.137
.406
-.083
.406
-.097
.407
-.093
.406
-.111
.406
-.078
.406
-.09
.406
-.08
.407
-.089
.406
-.131
.406
-.096
.406
-.167
.406
-.102
.406
-.106
.407
-.132
.406
-.128
.406
-.137
.406
-.149
.406
-.105
.407
-.063
.406
-.129
.406
-.11
.406
-.1
.406
-.128
.406
-.145
.407
-.205
.406
-.26
.406
-.186
.406
-.101
.406
-.113
.406
-.086
.407
-.099
.406
-.139
.406
-.088
.406
-.071
.406
-.185
.407
-.162
.406
-.081
.406
-.142
.406
-.117
.406
-.109
.406
-.117
.407
-.157
.406
-.185
.406
-.12
.406
-.121
.406
-.082
.407
-.102
.406
-.089
.406
-.039
.406
-.172
.406
-.075
.406
-.12
.407
-.154
.406
-.127
.406
-.18
.406
-.169
.406
-.118
.406
-.116
.407
-.193
.406
-.099
.406
-.104
.406
-.171
.406
-.108
.407
-.128
.406
-.176
.406
-.087
.406
-.095
.406
-.152
.406
-.102
.407
-.188
.406
-.103
.406
-.175
.406
-.15
.406
-.095
.407
-.086
.406
-.117
.406
-.23
.406
-.221
.406
-.144
.406
-.193
.407
-.123
.406
-.145
.406
-.22
.406
-.167
.406
-.144
.406
-.144
.407
-.098
.406
-.121
.406
-.113
.406
-.127
.406
-.113
.407
-.13
.406
-.103
.406
-.121
.406
-.18
.406
-.136
.406
-.085
.407
-.081
.406
-.099
.406
-.096
.406
-.092
.406
-.063
.407
-.066
.406
-.11
.406
-.057
.406
-.069
.406
-.102
.406
-.099
.407
-.085
.406
-.136
.406
-.07
.406
-.113
.406
-.074
.406
-.148
.407
-.066
.406
-.123
.406
-.047
.406
-.058
.406
-.163
.407
-.086
.406
-.099
.406
-.046
.406
-.069
.406
-.116
.406
-.072
.407
-.07
.406
-.024
.406
-.072
.406
-.03
.406
-.068
.407
-.047
.406
-.11
.406
-.115
.406
-.108
.406
-.036
.406
-.065
.407
-.051
.406
-.034
.406
-.02
.406
-.094
.406
-.071
.406
-.081
.407
-.031
.406
-.061
.406
-.057
.406
-.093
.406
-.026
.407
-.044
.406
-.04
.406
-.086
.406
-.085
.406
-.061
.406
-.053
.407
-.052
.406
-.04
.406
-.035
.406
-.019
.406
-.018
.407
-.038
.406
-.062
.406
-.011
.406
-.033
.406
-.014
.406
-.027
.407
-.017
.406
-.014
.406
-.018
.406
-.013
.406
-.008
.406
-.027
.407
-.051
.406
-.019
.406
-.03
.406
-.002
.406
-.038
.407
-.034
.406
-.041
.406
-.024
.406
-.076
.406
-.028
.406
-.021
.407
-.028
.406
-.038
.406
-.037
.406
-.01
.406
-.009
.407
-.014
.406
-.017
.406
-.026
.406
-.039
.406
-.034
.406
-.029
.407
-.048
.406
-.061
.406
-.04
.406
-.037
.406
-.043
.406
-.012
.407
-.041
.406
-.057
.406
-.028
.406
-.073
.406
-.065
.407
-.041
.406
-.062
.406
-.027
.406
-.023
.406
-.02
.406
-.052
.407
-.085
.406
-.019
.406
-.073
.406
-.054
.406
-.028
.407
-.028
.406
-.016
.406
-.033
.406
-.037
.406
-.055
.406
-.049
.407
-.06
.406
-.048
.406
-.014
.406
-.059
.406
-.031
.406
-.022
.407
-.002
.406
-.025
.406
-.026
.406
-.034
.406
-.044
.407
-.016
.406
-.034
.406
-.017
.406
-.018
.406
-.019
.406
-.021
.407
-.017
.406
-.041
.406
-.022
.406
-.027
.406
-.068
.407
-.045
.406
-.028
.406
-.04
.406
-.059
.406
-.053
.406
-.025
.407
-.042
.406
-.052
.406
-.039
.406
-.027
.406
-.042
.406
-.07
.407
-.014
.406
-.011
.406
-.036
.406
-.069
.406
-.028
.407
-.073
.406
-.047
.406
-.029
.406
-.093
.406
-.061
.406
-.024
.407
-.061
.406
-.017
.406
-.041
.406
-.003
.406
-.031
.407
-.018
.406
-.016
.406
-.033
.406
-.028
.406
-.051
.406
-.048
.407
-.086
.406
-.032
.406
-.039
.406
-.014
.406
-.047
.406
-.04
.407
-.071
.406
-.017
.406
-.031
.406
-.055
.406
-.05
.407
-.017
.406
-.051
.406
-.04
.406
-.004
.406
-.029
.406
-.036
.407
-.05
.406
-.036
.406
-.033
.406
-.022
.406
-.059
.406
-.071
.407
-.039
.406
-.025
.406
-.07
.406
-.033
.406
-.03
.407
-.016
.406
-.026
.406
-.02
.406
-.059
.406
-.031
.406
-.014
.407
-.013
.406
-.047
.406
-.007
.406
-.04
.406
-.034
.407
-.024
.406
-.008
.406
-.001
.406
-.011
.406
-.008
.406
-.014
.407
-.03
.406
-.013
.406
-.013
.406
-.014
.406
-.012
.406
-.027
.407
-.058
.406
-.008
.406
-.037
.406
-.073
.406
-.106
.407
-.082
.406
-.022
.406
-.024
.406
-.032
.406
-.023
.406
-.019
.407
-.033
.406
-.051
.406
-.061
.406
-.031
.406
-.018
.407
-.003
.406
-.025
.406
-.063
.406
-.025
.406
-.022
.406
-.029
.407
-.027
.406
-.049
.406
-.035
.406
-.067
.406
-.002
.406
-.004
.407
-.017
.406
-.024
.406
-.002
.406
-.067
.406
-.021
.407
-.051
.406
-.059
h.406
l.406
-.002
.406
-.006
.406
-.008
.407
-.013
.406
-.014
.406
-.005
.406
-.038
.406
-.019
.407
-.018
.406
-.008
.406
-.003
.406
-.004
.406
-.001
.406
-.003
.407
-.001
.406
-.025
.406
-.038
.406
-.09
.406
-.094
.406
-.052
.407
-.014
h.406
l.406
-.035
.406
-.035
.406
-.024
.407
-.031
.406
-.078
.406
-.064
.406
-.035
.406
-.061
.406
-.03
.407
-.019
.406
-.028
.406
-.015
.406
-.044
.406
-.048
.407
-.022
.406
-.007
.406
-.05
.406
-.045
.406
-.065
.406
-.018
.407
-.002
.406
-.005
.406
-.017
.406
-.024
.406
-.015
.406
-.006
.407
-.014
.406
-.002
.406
-.025
.406
-.027
.406
-.044
.407
-.008
.406
-.015
.406
-.019
.406
-.016
.406
-.037
.406
-.032
.407
-.042
.406
-.024
.406
-.009
.406
-.015
.406
-.021
.407
-.033
.406
-.007
.406
-.017
.406
-.038
.406
-.041
.406
-.004
.407
-.025
.406
-.019
.406
-.017
.406
-.011
.406
-.018
.406
-.002
.407
-.002
.406
-.021
h.406
l.406
-.021
.406
-.027
h.407
l.406
-.013
.406
-.013
.406
-.023
.406
-.028
.406
-.032
.407
-.005
.406
-.017
.406
-.003
.406
-.01
.406
-.015
.407
-.049
.406
-.003
.406
-.025
.406
-.022
.406
-.008
.406
-.028
.407
-.025
.406
-.031
.406
-.041
.406
-.04
.406
-.029
.406
-.047
.407
-.008
.406
-.017
.406
-.012
.406
-.011
.406
-.004
.407
-.001
.406
-.003
.406
-.016
.406
-.014
.406
-.008
.406
-.015
.407
-.027
.406
-.011
.406
-.038
.406
-.013
.406
-.013
.407
-.013
.406
-.02
.406
-.008
.406
-.012
.406
-.042
.406
-.012
.407
-.024
.406
-.026
.406
-.002
.406
-.013
.406
-.021
.406
-.022
.407
-.004
.406
-.039
.406
-.022
.406
-.011
.406
-.014
.407
-.04
.406
-.017
.406
-.022
.406
-.014
.406
-.012
.406
-.041
.407
-.002
h.406
l.406
-.034
.406
-.057
.406
-.029
.407
-.004
.406
-.003
.406
-.001
.406
-.014
.406
-.012
.406
-.016
.407
-.047
.406
-.031
.406
-.024
.406
-.014
.406
-.051
.406
-.043
.407
-.009
.406
-.028
.406
-.009
.406
-.017
.406
-.004
.407
-.021
.406
-.016
.406
-.025
.406
-.033
.406
-.097
.406
-.043
.407
-.035
.406
-.065
.406
-.053
.406
-.025
.406
-.074
.407
-.006
.406
-.039
.406
-.016
.406
-.038
.406
-.015
.406
-.044
.407
-.021
.406
-.029
.406
-.039
.406
-.031
.406
-.046
.406
-.051
.407
-.013
.406
-.012
.406
-.058
.406
-.031
.406
-.034
.407
-.042
.406
-.029
.406
-.031
.406
-.023
.406
-.052
.406
-.021
.407
-.028
.406
-.05
.406
-.039
.406
-.069
.406
-.043
.407
-.012
.406
-.025
.406
-.02
.406
-.009
.406
-.078
.406
-.029
.407
-.028
.406
-.025
.406
-.055
.406
-.02
.406
-.01
.406
-.015
.407
-.006
.406
-.044
.406
-.025
.406
-.028
.406
-.005
.407
-.008
.406
-.01
.406
-.054
.406
-.035
.406
-.047
.406
-.046
.407
-.102
.406
-.098
.406
-.093
.406
-.064
.406
-.089
.407
-.106
.406
-.039
.406
-.1
.406
-.074
.406
-.052
.406
-.083
.407
-.061
.406
-.097
.406
-.045
.406
-.109
.406
-.051
.406
-.048
.407
-.049
.406
-.017
.406
-.062
.406
-.091
.406
-.039
.407
-.043
.406
-.143
.406
-.041
.406
-.068
.406
-.069
.406
-.072
.407
-.034
.406
-.093
.406
-.071
.406
-.045
.406
-.042
.407
-.041
.406
-.034
.406
-.049
.406
-.01
.406
-.013
.406
-.04
.407
-.03
.406
-.056
.406
-.058
.406
-.018
.406
-.048
.406
-.023
.407
-.022
.406
-.036
.406
-.036
.406
-.017
.406
-.01
.407
-.045
.406
-.038
.406
-.046
.406
-.055
.406
-.071
.406
-.032
.407
-.037
.406
-.02
.406
-.061
.406
-.028
.406
-.017
.407
-.036
.406
-.032
.406
-.014
.406
-.035
.406
-.045
.406
-.025
.407
-.049
.406
-.016
.406
-.069
.406
-.008
.406
-.034
.406
-.023
.407
-.02
.406
-.017
.406
-.039
.406
-.018
.406
-.022
.407
-.016
.406
-.011
h5.28
l.406
-.059
.406
-.031
.407
-.031
.406
-.03
.406
-.023
.406
-.014
.406
-.037
.406
-.033
.407
-.017
.406
-.019
.406
-.025
.406
-.015
.406
-.012
.407
-.007
.406
-.019
.406
-.012
.406
-.01
.406
-.007
.406
-.002
h.407
l.406
-.021
.406
-.019
.406
-.009
.406
-.011
.407
-.01
.406
-.011
.406
-.005
.406
-.02
.406
-.026
.406
-.067
.407
-.033
.406
-.048
.406
-.087
.406
-.045
.406
-.009
.406
-.024
.407
-.084
.406
-.018
L770
60" aria-label="line"/>
</svg>
