<svg class="plot-d6a7b5" fill="currentColor" font-family="system-ui, sans-serif" font-size="10" text-anchor="middle" width="830" height="470" viewBox="0 0 830 470" xmlns="http://www.w3.org/2000/svg" xmlns:xlink="http://www.w3.org/1999/xlink" color="#1e90ff"><style>:where(.plot-d6a7b5){--plot-background: white;display:block;height:intrinsic;max-width:100%}:where(.plot-d6a7b5 text),:where(.plot-d6a7b5 tspan){white-space:pre}</style><g aria-label="y-grid" stroke="currentColor" stroke-opacity=".1"><line x1="60" x2="770" y1="410" y2="410"/><line x1="60" x2="770" y1="378.557" y2="378.557"/><line x1="60" x2="770" y1="347.114" y2="347.114"/><line x1="60" x2="770" y1="315.671" y2="315.671"/><line x1="60" x2="770" y1="284.227" y2="284.227"/><line x1="60" x2="770" y1="252.784" y2="252.784"/><line x1="60" x2="770" y1="221.341" y2="221.341"/><line x1="60" x2="770" y1="189.898" y2="189.898"/><line x1="60" x2="770" y1="158.455" y2="158.455"/><line x1="60" x2="770" y1="127.012" y2="127.012"/><line x1="60" x2="770" y1="95.568" y2="95.568"/><line x1="60" x2="770" y1="64.125" y2="64.125"/></g><g aria-label="y-axis tick" fill="none" stroke="currentColor"><path transform="translate(60,410)" d="M0,0L-6,0"/><path transform="translate(60,378.55684921661634)" d="M0,0L-6,0"/><path transform="translate(60,347.11369843323274)" d="M0,0L-6,0"/><path transform="translate(60,315.6705476498491)" d="M0,0L-6,0"/><path transform="translate(60,284.2273968664655)" d="M0,0L-6,0"/><path transform="translate(60,252.7842460830818)" d="M0,0L-6,0"/><path transform="translate(60,221.34109529969817)" d="M0,0L-6,0"/><path transform="translate(60,189.8979445163145)" d="M0,0L-6,0"/><path transform="translate(60,158.45479373293085)" d="M0,0L-6,0"/><path transform="translate(60,127.01164294954722)" d="M0,0L-6,0"/><path transform="translate(60,95.56849216616357)" d="M0,0L-6,0"/><path transform="translate(60,64.12534138277994)" d="M0,0L-6,0"/></g><g aria-label="y-axis tick label" text-anchor="end" font-variant="tabular-nums"><text y=".32em" transform="translate(-9,0) translate(60,410)">0</text><text y=".32em" transform="translate(-9,0) translate(60,378.55684921661634)">5,000</text><text y=".32em" transform="translate(-9,0) translate(60,347.11369843323274)">10,000</text><text y=".32em" transform="translate(-9,0) translate(60,315.6705476498491)">15,000</text><text y=".32em" transform="translate(-9,0) translate(60,284.2273968664655)">20,000</text><text y=".32em" transform="translate(-9,0) translate(60,252.7842460830818)">25,000</text><text y=".32em" transform="translate(-9,0) translate(60,221.34109529969817)">30,000</text><text y=".32em" transform="translate(-9,0) translate(60,189.8979445163145)">35,000</text><text y=".32em" transform="translate(-9,0) translate(60,158.45479373293085)">40,000</text><text y=".32em" transform="translate(-9,0) translate(60,127.01164294954722)">45,000</text><text y=".32em" transform="translate(-9,0) translate(60,95.56849216616357)">50,000</text><text y=".32em" transform="translate(-9,0) translate(60,64.12534138277994)">55,000</text></g><g aria-label="y-axis label" text-anchor="start"><text y=".71em" transform="translate(-57,-57) translate(60,60)">↑ Visible Vestiges (30 days)</text></g><g aria-label="x-axis tick" fill="none" stroke="currentColor"><path transform="translate(66.05113636363636,410)" d="M0,0L0,6"/><path transform="translate(128.57954545454544,410)" d="M0,0L0,6"/><path transform="translate(189.0909090909091,410)" d="M0,0L0,6"/><path transform="translate(251.6193181818182,410)" d="M0,0L0,6"/><path transform="translate(312.1306818181818,410)" d="M0,0L0,6"/><path transform="translate(374.65909090909093,410)" d="M0,0L0,6"/><path transform="translate(437.1875,410)" d="M0,0L0,6"/><path transform="translate(497.6988636363636,410)" d="M0,0L0,6"/><path transform="translate(560.2272727272727,410)" d="M0,0L0,6"/><path transform="translate(620.7386363636364,410)" d="M0,0L0,6"/><path transform="translate(683.2670454545455,410)" d="M0,0L0,6"/><path transform="translate(745.7954545454545,410)" d="M0,0L0,6"/></g><g aria-label="x-axis tick label" font-variant="tabular-nums"><text transform="translate(0,9) translate(66.05113636363636,410)"><tspan x="0" y=".71em">Mar</tspan><tspan x="0" dy="1em">2023</tspan></text><text y=".71em" transform="translate(0,9) translate(128.57954545454544,410)">Apr</text><text y=".71em" transform="translate(0,9) translate(189.0909090909091,410)">May</text><text y=".71em" transform="translate(0,9) translate(251.6193181818182,410)">Jun</text><text y=".71em" transform="translate(0,9) translate(312.1306818181818,410)">Jul</text><text y=".71em" transform="translate(0,9) translate(374.65909090909093,410)">Aug</text><text y=".71em" transform="translate(0,9) translate(437.1875,410)">Sep</text><text y=".71em" transform="translate(0,9) translate(497.6988636363636,410)">Oct</text><text y=".71em" transform="translate(0,9) translate(560.2272727272727,410)">Nov</text><text y=".71em" transform="translate(0,9) translate(620.7386363636364,410)">Dec</text><text transform="translate(0,9) translate(683.2670454545455,410)"><tspan x="0" y=".71em">Jan</tspan><tspan x="0" dy="1em">2024</tspan></text><text y=".71em" transform="translate(0,9) translate(745.7954545454545,410)">Feb</text></g><g aria-label="line" fill="none" stroke="currentColor" stroke-width="1.5" stroke-linejoin="round" stroke-linecap="round"><path d="M60,410L61.345,406.843L62.689,395.297L64.034,389.071L65.379,384.657L66.723,377.375L68.068,371.639L69.413,366.263L70.758,355.383L72.102,346.774L73.447,336.555L74.792,320.727L76.136,305.804L77.481,298.056L78.826,286.843L80.17,279.228L81.515,270.499L82.86,259.085L84.205,251.401L85.549,243.867L86.894,233.642L88.239,222.303L89.583,214.273L90.928,200.57L92.273,194.08L93.617,188.024L94.962,177.101L96.307,166.643L97.652,158.593L98.996,147.374L100.341,139.344L101.686,140.702L103.03,131.137L104.375,123.025L105.72,123.05L107.064,121.226L108.409,120.912L109.754,127.194L111.098,127.276L112.443,129.156L113.788,139.168L115.133,140.639L116.477,134.325L117.822,132.936L119.167,125.282L120.511,123.66L121.856,126.257L123.201,121.93L124.545,119.415L125.89,122.364L127.235,120.597L128.58,115.956L129.924,117.837L131.269,107.379L132.614,97.342L133.958,99.895L135.303,97.933L136.648,94.776L137.992,95.952L139.337,92.921L140.682,89.752L142.027,93.94L143.371,92.519L144.716,86.406L146.061,82.45L147.405,72.653L148.75,67.722L150.095,67.653L151.439,64L152.784,60L154.129,66.113L155.473,70.716L156.818,73.112L158.163,78.866L159.508,76.734L160.852,73.181L162.197,78.143L163.542,78.407L164.886,78.042L166.231,86.123L167.576,91.016L168.92,95.097L170.265,103.825L171.61,109.278L172.955,106.831L174.299,110.806L175.644,110.315L176.989,112.145L178.333,121L179.678,122.037L181.023,125.125L182.367,134.464L183.712,140.117L185.057,144.192L186.402,151.933L187.746,150.82L189.091,150.16L190.436,154.179L191.78,157.065L193.125,158.254L194.47,161.825L195.814,162.373L197.159,166.385L198.504,173.277L199.848,176.572L201.193,173.334L202.538,175.05L203.883,172.315L205.227,170.347L206.572,171.629L207.917,169.957L209.261,171.736L210.606,176.245L211.951,178.874L213.295,180.918L214.64,184.88L215.985,184.898L217.33,182.823L218.674,188.98L220.019,191.036L221.364,190.005L222.708,192.407L224.053,192.363L225.398,194.413L226.742,199.916L228.087,200.696L229.432,197.652L230.777,196.545L232.121,192.237L233.466,191.866L234.811,194.35L236.155,192.445L237.5,191.269L238.845,195.589L240.189,196.451L241.534,197.117L242.879,199.714L244.223,195.413L245.568,193.596L246.913,195.74L248.258,194.753L249.602,192.778L250.947,194.69L252.292,194.948L253.636,194.558L254.981,197.96L256.326,199.035L257.67,199.457L259.015,200.519L260.36,198.557L261.705,198.381L263.049,200.142L264.394,198.174L265.739,197.834L267.083,201.249L268.428,206.789L269.773,208.374L271.117,212.77L272.462,212.701L273.807,213.015L275.152,215.04L276.496,215.216L277.841,214.43L279.186,218.348L280.53,218.109L281.875,219.53L283.22,225.806L284.564,227.529L285.909,228.535L287.254,231.434L288.598,231.761L289.943,232.101L291.288,232.126L292.633,233.453L293.977,232.459L295.322,235.384L296.667,234.818L298.011,235.069L299.356,236.547L300.701,234.755L302.045,234.711L303.39,236.025L304.735,234.516L306.08,233.214L307.424,233.107L308.769,230.453L310.114,229.114L311.458,231.177L312.803,231.227L314.148,230.541L315.492,233.484L316.837,232.56L318.182,233.893L319.527,236.572L320.871,236.899L322.216,236.295L323.561,238.44L324.905,237.673L326.25,237.05L327.595,240.169L328.939,239.566L330.284,239.805L331.629,241.974L332.973,240.666L334.318,239.591L335.663,240.767L337.008,239.402L338.352,240.238L339.697,241.515L341.042,240.408L342.386,240.742L343.731,242.609L345.076,243.1L346.42,241.779L347.765,245.483L349.11,247.816L350.455,246.722L351.799,249.451L353.144,248.527L354.489,247.797L355.833,249.313L357.178,247.275L358.523,247.288L359.867,247.307L361.212,244.93L362.557,243.345L363.902,246.823L365.246,243.798L366.591,242.446L367.936,243.641L369.28,242.056L370.625,241.641L371.97,243.32L373.314,241.59L374.659,240.389L376.004,241.433L377.348,238.635L378.693,238.415L380.038,239.805L381.383,239.176L382.727,236.975L384.072,235.365L385.417,231.258L386.761,229.938L388.106,229.938L389.451,228.435L390.795,227.001L392.14,229.994L393.485,228.139L394.83,227.592L396.174,229.957L397.519,228.63L398.864,228.925L400.208,232.78L401.553,232.176L402.898,229.529L404.242,232.988L405.587,232.793L406.932,230.378L408.277,231.296L409.621,228.177L410.966,227.812L412.311,228.472L413.655,226.542L415,225.806L416.345,228.139L417.689,227.454L419.034,227.215L420.379,230.032L421.723,231.818L423.068,235.126L424.413,241.546L425.758,242.71L427.102,242.194L428.447,243.892L429.792,244.244L431.136,242.917L432.481,244.634L433.826,245.118L435.17,244.005L436.515,246.087L437.86,246.961L439.205,246.118L440.549,247.37L441.894,247.118L443.239,247.231L444.583,248.464L445.928,251.011L447.273,253.734L448.617,257.796L449.962,259.299L451.307,262.268L452.652,267.324L453.996,266.204L455.341,266.89L456.686,269.047L458.03,268.323L459.375,269.455L460.72,271.38L462.064,272.153L463.409,274.027L464.754,275.48L466.098,276.876L467.443,277.234L468.788,277.354L470.133,274.631L471.477,272.317L472.822,273.662L474.167,273.681L475.511,274.474L476.856,275.216L478.201,275.48L479.545,276.624L480.89,279.706L482.235,279.14L483.58,278.436L484.924,279.448L486.269,277.555L487.614,278.75L488.958,280.165L490.303,278.958L491.648,278.555L492.992,282.662L494.337,282.504L495.682,282.9L497.027,284.894L498.371,281.574L499.716,280.674L501.061,281.687L502.405,279.97L503.75,280.813L505.095,282.07L506.439,283.177L507.784,284.592L509.129,288.466L510.473,289.805L511.818,287.598L513.163,286.649L514.508,283.919L515.852,283.599L517.197,284.951L518.542,285.007L519.886,284.881L521.231,286.271L522.576,286.869L523.92,287.661L525.265,290.183L526.61,285.982L527.955,282.768L529.299,282.85L530.644,282.599L531.989,283.039L533.333,286.076L534.678,285.812L536.023,287.202L537.367,290.17L538.712,288.749L540.057,284.756L541.402,284.397L542.746,281.165L544.091,280.655L545.436,281.196L546.78,279.398L548.125,280.064L549.47,282.215L550.814,283.334L552.159,284.158L553.504,287.045L554.848,286.089L556.193,286.007L557.538,287.963L558.883,286.68L560.227,287.252L561.572,290.384L562.917,290.849L564.261,291.038L565.606,293.107L566.951,293.245L568.295,291.019L569.64,290.906L570.985,289.755L572.33,289.661L573.674,290.843L575.019,289.868L576.364,290.692L577.708,294.295L579.053,296.691L580.398,299.05L581.742,302.188L583.087,301.955L584.432,301.817L585.777,305.099L587.121,305.653L588.466,307.376L589.811,309.916L591.155,311.985L592.5,313.205L593.845,317.224L595.189,315.954L596.534,313.539L597.879,313.778L599.223,312.463L600.568,310.954L601.913,311.753L603.258,311.269L604.602,314.142L605.947,317.041L607.292,318.576L608.636,318.941L609.981,319.695L611.326,317.243L612.67,317.318L614.015,318.098L615.36,316.488L616.705,315.664L618.049,316.079L619.394,313.243L620.739,313.47L622.083,314.199L623.428,314.413L624.773,313.004L626.117,312.457L627.462,310.212L628.807,310.193L630.152,311.803L631.496,310.52L632.841,309.112L634.186,311.696L635.53,313.759L636.875,315.853L638.22,318.456L639.564,318.89L640.909,318.261L642.254,320.192L643.598,318.777L644.943,318.431L646.288,321.399L647.633,322.89L648.977,324.393L650.322,327.286L651.667,327.141L653.011,326.877L654.356,328.147L655.701,328.896L657.045,329.996L658.39,332.159L659.735,332.857L661.08,334.04L662.424,335.04L663.769,335.14L665.114,336.486L666.458,337.725L667.803,335.574L669.148,333.423L670.492,334.914L671.837,334.838L673.182,333.285L674.527,332.939L675.871,331.612L677.216,330.663L678.561,330.468L679.905,329.462L681.25,328.103L682.595,328.946L683.939,328.858L685.284,327.355L686.629,326.764L687.973,324.185L689.318,323.487L690.663,325.028L692.008,324.443L693.352,325.556L694.697,325.475L696.042,323.928L697.386,324.953L698.731,324.971L700.076,323.72L701.42,323.978L702.765,325.563L704.11,325.833L705.455,327.078L706.799,328.889L708.144,328.921L709.489,327.499L710.833,326.393L712.178,325.374L713.523,326.141L714.867,327.361L716.212,327.757L717.557,327.562L718.902,327.537L720.246,327.606L721.591,328.286L722.936,328.411L724.28,327.361L725.625,324.449L726.97,325.204L728.314,323.462L729.659,322.959L731.004,324.795L732.348,323.198L733.693,324.374L735.038,326.468L736.383,323.689L737.727,320.764L739.072,319.865L740.417,316.243L741.761,315.086L743.106,314.4L744.451,312.677L745.795,312.206L747.14,313.124L748.485,312.287L749.83,313.809L751.174,314.463L752.519,310.577L753.864,308.891L755.208,308.3L756.553,307.168L757.898,307.948L759.242,308.583L760.587,305.967L761.932,305.552L763.277,305.376L764.621,306.866L765.966,305.54L767.311,303.401L768.655,298.892L770,297.358"/></g></svg>