<svg class="plot-d6a7b5" fill="currentColor" font-family="system-ui, sans-serif" font-size="10" text-anchor="middle" width="830" height="470" viewBox="0 0 830 470" xmlns="http://www.w3.org/2000/svg" xmlns:xlink="http://www.w3.org/1999/xlink" color="#1e90ff"><style>:where(.plot-d6a7b5){--plot-background: white;display:block;height:intrinsic;max-width:100%}:where(.plot-d6a7b5 text),:where(.plot-d6a7b5 tspan){white-space:pre}</style><g aria-label="y-grid" stroke="currentColor" stroke-opacity=".1"><line x1="60" x2="770" y1="410" y2="410"/><line x1="60" x2="770" y1="384.21" y2="384.21"/><line x1="60" x2="770" y1="358.419" y2="358.419"/><line x1="60" x2="770" y1="332.629" y2="332.629"/><line x1="60" x2="770" y1="306.839" y2="306.839"/><line x1="60" x2="770" y1="281.049" y2="281.049"/><line x1="60" x2="770" y1="255.258" y2="255.258"/><line x1="60" x2="770" y1="229.468" y2="229.468"/><line x1="60" x2="770" y1="203.678" y2="203.678"/><line x1="60" x2="770" y1="177.887" y2="177.887"/><line x1="60" x2="770" y1="152.097" y2="152.097"/><line x1="60" x2="770" y1="126.307" y2="126.307"/><line x1="60" x2="770" y1="100.517" y2="100.517"/><line x1="60" x2="770" y1="74.726" y2="74.726"/></g><g aria-label="y-axis tick" fill="none" stroke="currentColor"><path transform="translate(60,410)" d="M0,0L-6,0"/><path transform="translate(60,384.2097118856385)" d="M0,0L-6,0"/><path transform="translate(60,358.41942377127697)" d="M0,0L-6,0"/><path transform="translate(60,332.6291356569155)" d="M0,0L-6,0"/><path transform="translate(60,306.838847542554)" d="M0,0L-6,0"/><path transform="translate(60,281.0485594281925)" d="M0,0L-6,0"/><path transform="translate(60,255.258271313831)" d="M0,0L-6,0"/><path transform="translate(60,229.46798319946947)" d="M0,0L-6,0"/><path transform="translate(60,203.67769508510793)" d="M0,0L-6,0"/><path transform="translate(60,177.8874069707464)" d="M0,0L-6,0"/><path transform="translate(60,152.09711885638492)" d="M0,0L-6,0"/><path transform="translate(60,126.30683074202342)" d="M0,0L-6,0"/><path transform="translate(60,100.51654262766192)" d="M0,0L-6,0"/><path transform="translate(60,74.7262545133004)" d="M0,0L-6,0"/></g><g aria-label="y-axis tick label" text-anchor="end" font-variant="tabular-nums"><text y=".32em" transform="translate(-9,0) translate(60,410)">0</text><text y=".32em" transform="translate(-9,0) translate(60,384.2097118856385)">50,000</text><text y=".32em" transform="translate(-9,0) translate(60,358.41942377127697)">100,000</text><text y=".32em" transform="translate(-9,0) translate(60,332.6291356569155)">150,000</text><text y=".32em" transform="translate(-9,0) translate(60,306.838847542554)">200,000</text><text y=".32em" transform="translate(-9,0) translate(60,281.0485594281925)">250,000</text><text y=".32em" transform="translate(-9,0) translate(60,255.258271313831)">300,000</text><text y=".32em" transform="translate(-9,0) translate(60,229.46798319946947)">350,000</text><text y=".32em" transform="translate(-9,0) translate(60,203.67769508510793)">400,000</text><text y=".32em" transform="translate(-9,0) translate(60,177.8874069707464)">450,000</text><text y=".32em" transform="translate(-9,0) translate(60,152.09711885638492)">500,000</text><text y=".32em" transform="translate(-9,0) translate(60,126.30683074202342)">550,000</text><text y=".32em" transform="translate(-9,0) translate(60,100.51654262766192)">600,000</text><text y=".32em" transform="translate(-9,0) translate(60,74.7262545133004)">650,000</text></g><g aria-label="y-axis label" text-anchor="start"><text y=".71em" transform="translate(-57,-57) translate(60,60)">↑ Total Vestiges</text></g><g aria-label="x-axis tick" fill="none" stroke="currentColor"><path transform="translate(90.17500000000001,410)" d="M0,0L0,6"/><path transform="translate(170.9375,410)" d="M0,0L0,6"/><path transform="translate(252.58749999999998,410)" d="M0,0L0,6"/><path transform="translate(334.23749999999995,410)" d="M0,0L0,6"/><path transform="translate(415,410)" d="M0,0L0,6"/><path transform="translate(495.76250000000005,410)" d="M0,0L0,6"/><path transform="translate(577.4125,410)" d="M0,0L0,6"/><path transform="translate(659.0625,410)" d="M0,0L0,6"/><path transform="translate(738.9375,410)" d="M0,0L0,6"/></g><g aria-label="x-axis tick label" font-variant="tabular-nums"><text transform="translate(0,9) translate(90.17500000000001,410)"><tspan x="0" y=".71em">Apr</tspan><tspan x="0" dy="1em">2023</tspan></text><text y=".71em" transform="translate(0,9) translate(170.9375,410)">Jul</text><text y=".71em" transform="translate(0,9) translate(252.58749999999998,410)">Oct</text><text transform="translate(0,9) translate(334.23749999999995,410)"><tspan x="0" y=".71em">Jan</tspan><tspan x="0" dy="1em">2024</tspan></text><text y=".71em" transform="translate(0,9) translate(415,410)">Apr</text><text y=".71em" transform="translate(0,9) translate(495.76250000000005,410)">Jul</text><text y=".71em" transform="translate(0,9) translate(577.4125,410)">Oct</text><text transform="translate(0,9) translate(659.0625,410)"><tspan x="0" y=".71em">Jan</tspan><tspan x="0" dy="1em">2025</tspan></text><text y=".71em" transform="translate(0,9) translate(738.9375,410)">Apr</text></g><g aria-label="line" fill="none" stroke="currentColor" stroke-width="1.5" stroke-linejoin="round" stroke-linecap="round"><path d="M60,410L60.592,409.741L61.183,408.794L61.775,408.283L62.367,407.921L62.958,407.324L63.55,406.854L64.142,406.413L64.733,405.52L65.325,404.814L65.917,403.976L66.508,402.678L67.1,401.454L67.692,400.818L68.283,399.898L68.875,399.274L69.467,398.558L70.058,397.622L70.65,396.991L71.242,396.373L71.833,395.535L72.425,394.605L73.017,393.946L73.608,392.822L74.2,392.29L74.792,391.793L75.383,390.897L75.975,390.039L76.567,389.379L77.158,388.459L77.75,387.541L78.342,386.706L78.933,385.411L79.525,384.383L80.117,383.788L80.708,383.168L81.3,382.701L81.892,382.324L82.483,381.624L83.075,380.941L83.667,380.463L84.258,379.36L84.85,378.207L85.442,377.173L86.033,375.921L86.625,375.072L87.217,374.349L87.808,373.363L88.4,372.539L88.992,371.942L89.583,370.867L90.175,369.828L90.767,368.858L91.358,367.468L91.95,366.148L92.542,365.462L93.133,364.443L93.725,363.524L94.317,362.7L94.908,361.534L95.5,360.438L96.092,359.487L96.683,358.343L97.275,357.246L97.867,356.302L98.458,355.031L99.05,354.25L99.642,353.545L100.233,352.561L100.825,351.756L101.417,351.154L102.008,350.378L102.6,349.541L103.192,348.76L103.783,347.737L104.375,346.722L104.967,346.144L105.558,345.341L106.15,344.714L106.742,344.302L107.333,343.664L107.925,343.029L108.517,342.355L109.108,341.482L109.7,340.595L110.292,339.903L110.883,338.943L111.475,338.269L112.067,337.829L112.658,336.819L113.25,336.121L113.842,335.743L114.433,335.11L115.025,334.499L115.617,333.864L116.208,332.991L116.8,332.232L117.392,331.578L117.983,331.01L118.575,330.505L119.167,330.022L119.758,329.23L120.35,328.779L120.942,328.32L121.533,327.576L122.125,326.732L122.717,326.07L123.308,325.219L123.9,324.645L124.492,324.113L125.083,323.341L125.675,322.812L126.267,322.309L126.858,321.638L127.45,321.113L128.042,320.478L128.633,319.806L129.225,319.196L129.817,318.691L130.408,318.161L131,317.698L131.592,317.262L132.183,316.648L132.775,316.181L133.367,315.76L133.958,315.064L134.55,314.161L135.142,313.502L135.733,312.644L136.325,312.13L136.917,311.542L137.508,310.934L138.1,310.379L138.692,309.989L139.283,309.216L139.875,308.609L140.467,307.971L141.058,307.045L141.65,306.363L142.242,305.766L142.833,305.157L143.425,304.492L144.017,303.978L144.608,303.474L145.2,302.807L145.792,302.414L146.383,301.892L146.975,301.421L147.567,300.979L148.158,300.355L148.75,299.905L149.342,299.435L149.933,298.807L150.525,298.357L151.117,297.942L151.708,297.493L152.3,296.964L152.892,296.467L153.483,295.948L154.075,295.385L154.667,294.943L155.258,294.403L155.85,293.948L156.442,293.496L157.033,292.87L157.625,292.348L158.217,291.937L158.808,291.396L159.4,290.882L159.992,290.511L160.583,289.873L161.175,289.386L161.767,288.884L162.358,288.327L162.95,287.852L163.542,287.57L164.133,287.053L164.725,286.631L165.317,286.128L165.908,285.531L166.5,285.058L167.092,284.537L167.683,283.964L168.275,283.442L168.867,282.984L169.458,282.237L170.05,281.63L170.642,281.28L171.233,280.722L171.825,280.224L172.417,279.925L173.008,279.394L173.6,279.052L174.192,278.645L174.783,278.15L175.375,277.689L175.967,277.324L176.558,276.748L177.15,276.325L177.742,275.943L178.333,275.407L178.925,274.924L179.517,274.545L180.108,273.963L180.7,273.593L181.292,273.172L181.883,272.638L182.475,272.204L183.067,271.711L183.658,271.148L184.25,270.654L184.842,270.234L185.433,269.752L186.025,269.186L186.617,268.743L187.208,268.327L187.8,267.888L188.392,267.553L188.983,266.979L189.575,266.62L190.167,266.215L190.758,265.705L191.35,265.299L191.942,264.806L192.533,264.15L193.125,263.655L193.717,263.364L194.308,262.693L194.9,262.2L195.492,261.762L196.083,261.149L196.675,260.736L197.267,260.292L197.858,259.779L198.45,259.26L199.042,258.812L199.633,258.148L200.225,257.638L200.817,257.188L201.408,256.643L202,256.042L202.592,255.428L203.183,254.525L203.775,253.974L204.367,253.558L204.958,252.995L205.55,252.543L206.142,252.215L206.733,251.704L207.325,251.253L207.917,250.937L208.508,250.423L209.1,249.954L209.692,249.614L210.283,249.07L210.875,248.561L211.467,248.174L212.058,247.665L212.65,247.029L213.242,246.492L213.833,245.822L214.425,245.348L215.017,244.89L215.608,244.212L216.2,243.704L216.792,243.232L217.383,242.665L217.975,242.195L218.567,241.881L219.158,241.427L219.75,241.085L220.342,240.708L220.933,240.252L221.525,239.794L222.117,239.371L222.708,238.947L223.3,238.511L223.892,238.14L224.483,237.729L225.075,237.322L225.667,236.978L226.258,236.581L226.85,236.172L227.442,235.73L228.033,235.201L228.625,234.824L229.217,234.416L229.808,233.988L230.4,233.674L230.992,233.338L231.583,232.987L232.175,232.773L232.767,232.51L233.358,231.909L233.95,231.494L234.542,231.104L235.133,230.575L235.725,230.354L236.317,230.058L236.908,229.778L237.5,229.556L238.092,229.219L238.683,228.875L239.275,228.481L239.867,228.068L240.458,227.407L241.05,226.847L241.642,226.546L242.233,226.141L242.825,225.862L243.417,225.526L244.008,225.138L244.6,224.791L245.192,224.514L245.783,224.09L246.375,223.624L246.967,223.28L247.558,222.811L248.15,222.573L248.742,222.338L249.333,222.024L249.925,221.728L250.517,221.465L251.108,221.036L251.7,220.679L252.292,220.313L252.883,219.82L253.475,219.45L254.067,219.254L254.658,218.89L255.25,218.623L255.842,218.382L256.433,218.079L257.025,217.781L257.617,217.439L258.208,216.989L258.8,216.507L259.392,216.024L259.983,215.521L260.575,215.158L261.167,214.882L261.758,214.539L262.35,214.252L262.942,213.942L263.533,213.525L264.125,213.245L264.717,212.983L265.308,212.4L265.9,211.902L266.492,211.595L267.083,211.279L267.675,211.051L268.267,210.872L268.858,210.493L269.45,210.241L270.042,209.991L270.633,209.505L271.225,208.981L271.817,208.588L272.408,208.055L273,207.773L273.592,207.514L274.183,207.069L274.775,206.781L275.367,206.507L275.958,206.117L276.55,205.702L277.142,205.436L277.733,204.995L278.325,204.711L278.917,204.529L279.508,204.137L280.1,203.874L280.692,203.714L281.283,203.472L281.875,203.226L282.467,202.813L283.058,202.326L283.65,201.836L284.242,201.51L284.833,201.188L285.425,201.001L286.017,200.719L286.608,200.388L287.2,200.205L287.792,200.014L288.383,199.687L288.975,199.488L289.567,199.212L290.158,198.911L290.75,198.641L291.342,198.465L291.933,198.223L292.525,198.09L293.117,197.908L293.708,197.662L294.3,197.496L294.892,197.385L295.483,196.997L296.075,196.617L296.667,196.244L297.258,195.874L297.85,195.59L298.442,195.414L299.033,195.128L299.625,194.95L300.217,194.701L300.808,194.337L301.4,194.041L301.992,193.781L302.583,193.393L303.175,193.117L303.767,192.85L304.358,192.535L304.95,192.277L305.542,191.984L306.133,191.552L306.725,191.295L307.317,191.053L307.908,190.801L308.5,190.509L309.092,190.222L309.683,189.905L310.275,189.722L310.867,189.608L311.458,189.337L312.05,189.11L312.642,188.934L313.233,188.723L313.825,188.522L314.417,188.365L315.008,188.117L315.6,187.889L316.192,187.761L316.783,187.468L317.375,187.19L317.967,187.07L318.558,186.896L319.15,186.76L319.742,186.609L320.333,186.321L320.925,186.032L321.517,185.822L322.108,185.624L322.7,185.422L323.292,185.167L323.883,184.967L324.475,184.823L325.067,184.652L325.658,184.369L326.25,184.192L326.842,183.977L327.433,183.617L328.025,183.327L328.617,183.178L329.208,182.945L329.8,182.642L330.392,182.402L330.983,182.093L331.575,181.858L332.167,181.593L332.758,181.283L333.35,181.044L333.942,180.82L334.533,180.535L335.125,180.292L335.717,180.069L336.308,179.721L336.9,179.513L337.492,179.351L338.083,179.014L338.675,178.895L339.267,178.692L339.858,178.362L340.45,178.191L341.042,177.993L341.633,177.746L342.225,177.596L342.817,177.443L343.408,177.289L344,177.176L344.592,176.965L345.183,176.677L345.775,176.411L346.367,176.087L346.958,175.701L347.55,175.524L348.142,175.315L348.733,175.112L349.325,174.832L349.917,174.52L350.508,174.286L351.1,174.117L351.692,173.843L352.283,173.513L352.875,173.052L353.467,172.766L354.058,172.415L354.65,172.212L355.242,172.026L355.833,171.776L356.425,171.668L357.017,171.511L357.608,171.112L358.2,170.674L358.792,170.353L359.383,169.906L359.975,169.658L360.567,169.447L361.158,169.193L361.75,168.943L362.342,168.731L362.933,168.397L363.525,168.197L364.117,167.865L364.708,167.369L365.3,167.021L365.892,166.77L366.483,166.397L367.075,166.149L367.667,165.968L368.258,165.584L368.85,165.276L369.442,164.932L370.033,164.593L370.625,164.198L371.217,163.671L371.808,163.099L372.4,162.787L372.992,162.462L373.583,161.988L374.175,161.665L374.767,161.424L375.358,161.114L375.95,160.851L376.542,160.586L377.133,160.162L377.725,159.79L378.317,159.637L378.908,159.306L379.5,159.022L380.092,158.695L380.683,158.372L381.275,158.18L381.867,157.896L382.458,157.472L383.05,157.081L383.642,156.82L384.233,156.42L384.825,156.219L385.417,155.963L386.008,155.673L386.6,155.484L387.192,155.26L387.783,154.963L388.375,154.727L388.967,154.488L389.558,154.047L390.15,153.8L390.742,153.59L391.333,153.401L391.925,153.225L392.517,152.99L393.108,152.772L393.7,152.638L394.292,152.471L394.883,152.115L395.475,151.892L396.067,151.722L396.658,151.39L397.25,151.158L397.842,151.06L398.433,150.861L399.025,150.595L399.617,150.395L400.208,150.124L400.8,149.829L401.392,149.547L401.983,149.112L402.575,148.81L403.167,148.616L403.758,148.581L404.35,148.577L404.942,148.575L405.533,148.573L406.125,148.569L406.717,148.564L407.308,148.559L407.9,148.536L408.492,148.518L409.083,148.508L409.675,148.48L410.267,148.434L410.858,148.402L411.45,148.361L412.042,148.28L412.633,148.172L413.225,147.901L413.817,147.717L414.408,147.546L415,147.391L415.592,147.243L416.183,147.074L416.775,146.859L417.367,146.666L417.958,146.438L418.55,146.2L419.142,145.99L419.733,145.735L420.325,145.541L420.917,145.392L421.508,145.177L422.1,144.947L422.692,144.846L423.283,144.696L423.875,144.474L424.467,144.349L425.058,144.218L425.65,144.023L426.242,143.867L426.833,143.641L427.425,143.451L428.017,143.337L428.608,143.165L429.2,143.015L429.792,142.873L430.383,142.775L430.975,142.653L431.567,142.58L432.158,142.449L432.75,142.311L433.342,142.136L433.933,141.888L434.525,141.731L435.117,141.63L435.708,141.412L436.3,141.247L436.892,141.097L437.483,140.94L438.075,140.722L438.667,140.571L439.258,140.361L439.85,140.218L440.442,140.107L441.033,139.938L441.625,139.75L442.217,139.555L442.808,139.427L443.4,139.253L443.992,139.103L444.583,138.916L445.175,138.65L445.767,138.45L446.358,138.194L446.95,138.052L447.542,137.926L448.133,137.751L448.725,137.577L449.317,137.431L449.908,137.234L450.5,137.011L451.092,136.872L451.683,136.622L452.275,136.401L452.867,136.221L453.458,135.961L454.05,135.812L454.642,135.696L455.233,135.605L455.825,135.478L456.417,135.317L457.008,135.143L457.6,134.776L458.192,134.594L458.783,134.316L459.375,134.185L459.967,134.058L460.558,133.901L461.15,133.668L461.742,133.589L462.333,133.419L462.925,133.232L463.517,133.062L464.108,132.804L464.7,132.484L465.292,132.318L465.883,132.037L466.475,131.908L467.067,131.735L467.658,131.422L468.25,131.193L468.842,131.036L469.433,130.784L470.025,130.513L470.617,130.367L471.208,130.033L471.8,129.882L472.392,129.731L472.983,129.512L473.575,129.286L474.167,129.132L474.758,128.878L475.35,128.679L475.942,128.471L476.533,128.165L477.125,127.86L477.717,127.641L478.308,127.431L478.9,127.151L479.492,126.984L480.083,126.811L480.675,126.655L481.267,126.433L481.858,126.242L482.45,126.039L483.042,125.85L483.633,125.65L484.225,125.426L484.817,125.357L485.408,125.253L486,125.094L486.592,124.968L487.183,124.669L487.775,124.494L488.367,124.371L488.958,124.208L489.55,123.859L490.142,123.74L490.733,123.564L491.325,123.327L491.917,123.148L492.508,123.03L493.1,122.875L493.692,122.779L494.283,122.647L494.875,122.497L495.467,122.34L496.058,122.057L496.65,121.859L497.242,121.724L497.833,121.476L498.425,121.297L499.017,121.116L499.608,120.981L500.2,120.845L500.792,120.743L501.383,120.57L501.975,120.376L502.567,120.29L503.158,120.175L503.75,120.05L504.342,119.933L504.933,119.793L505.525,119.627L506.117,119.445L506.708,119.249L507.3,119.14L507.892,119.025L508.483,118.838L509.075,118.674L509.667,118.57L510.258,118.385L510.85,118.213L511.442,118.077L512.033,117.915L512.625,117.745L513.217,117.563L513.808,117.314L514.4,116.972L514.992,116.76L515.583,116.533L516.175,116.378L516.767,116.227L517.358,116.019L517.95,115.874L518.542,115.76L519.133,115.621L519.725,115.476L520.317,115.316L520.908,115.145L521.5,114.903L522.092,114.729L522.683,114.451L523.275,114.188L523.867,113.92L524.458,113.648L525.05,113.407L525.642,113.13L526.233,112.832L526.825,112.682L527.417,112.486L528.008,112.13L528.6,111.945L529.192,111.778L529.783,111.547L530.375,111.387L530.967,111.305L531.558,110.826L532.15,110.413L532.742,110.001L533.333,109.559L533.925,109.202L534.517,108.945L535.108,108.544L535.7,108.123L536.292,107.864L536.883,107.619L537.475,107.323L538.067,107.05L538.658,106.746L539.25,106.411L539.842,106.189L540.433,106.053L541.025,105.804L541.617,105.662L542.208,105.513L542.8,105.316L543.392,105.129L543.983,104.912L544.575,104.651L545.167,104.389L545.758,104.188L546.35,103.985L546.942,103.805L547.533,103.647L548.125,103.538L548.717,103.456L549.308,103.362L549.9,103.243L550.492,103.103L551.083,103.006L551.675,102.849L552.267,102.743L552.858,102.619L553.45,102.51L554.042,102.374L554.633,102.264L555.225,102.064L555.817,101.921L556.408,101.764L557,101.643L557.592,101.463L558.183,101.276L558.775,101.111L559.367,100.984L559.958,100.83L560.55,100.716L561.142,100.586L561.733,100.501L562.325,100.396L562.917,100.281L563.508,100.185L564.1,100.018L564.692,99.883L565.283,99.766L565.875,99.648L566.467,99.508L567.058,99.384L567.65,99.225L568.242,99.123L568.833,98.942L569.425,98.699L570.017,98.466L570.608,98.142L571.2,98.002L571.792,97.843L572.383,97.675L572.975,97.572L573.567,97.397L574.158,97.224L574.75,97.05L575.342,96.822L575.933,96.419L576.525,96.241L577.117,96.125L577.708,95.876L578.3,95.727L578.892,95.646L579.483,95.48L580.075,95.342L580.667,95.233L581.258,95.041L581.85,94.823L582.442,94.61L583.033,94.306L583.625,94.189L584.217,94.086L584.808,93.938L585.4,93.808L585.992,93.734L586.583,93.645L587.175,93.514L587.767,93.448L588.358,93.324L588.95,93.213L589.542,93.13L590.133,93.027L590.725,92.964L591.317,92.863L591.908,92.714L592.5,92.59L593.092,92.497L593.683,92.304L594.275,92.153L594.867,92.016L595.458,91.815L596.05,91.758L596.642,91.684L597.233,91.551L597.825,91.473L598.417,91.39L599.008,91.286L599.6,91.219L600.192,91.139L600.783,90.946L601.375,90.827L601.967,90.784L602.558,90.733L603.15,90.659L603.742,90.551L604.333,90.447L604.925,90.29L605.517,90.206L606.108,90.034L606.7,89.793L607.292,89.617L607.883,89.352L608.475,89.164L609.067,89.044L609.658,88.929L610.25,88.817L610.842,88.685L611.433,88.583L612.025,88.495L612.617,88.341L613.208,88.188L613.8,88.022L614.392,87.934L614.983,87.781L615.575,87.719L616.167,87.644L616.758,87.493L617.35,87.398L617.942,87.3L618.533,87.188L619.125,87.047L619.717,86.918L620.308,86.78L620.9,86.698L621.492,86.584L622.083,86.449L622.675,86.331L623.267,86.22L623.858,86.07L624.45,85.966L625.042,85.845L625.633,85.659L626.225,85.475L626.817,85.401L627.408,85.297L628,85.178L628.592,85.1L629.183,84.993L629.775,84.909L630.367,84.864L630.958,84.76L631.55,84.707L632.142,84.679L632.733,84.608L633.325,84.509L633.917,84.457L634.508,84.4L635.1,84.29L635.692,84.118L636.283,84.006L636.875,83.847L637.467,83.785L638.058,83.695L638.65,83.625L639.242,83.528L639.833,83.432L640.425,83.381L641.017,83.312L641.608,83.193L642.2,83.101L642.792,83.014L643.383,82.856L643.975,82.7L644.567,82.618L645.158,82.469L645.75,82.387L646.342,82.238L646.933,82.127L647.525,82.073L648.117,82.008L648.708,81.897L649.3,81.808L649.892,81.706L650.483,81.525L651.075,81.471L651.667,81.338L652.258,81.229L652.85,81.141L653.442,81.072L654.033,80.986L654.625,80.922L655.217,80.838L655.808,80.748L656.4,80.604L656.992,80.486L657.583,80.238L658.175,80.062L658.767,79.92L659.358,79.753L659.95,79.626L660.542,79.509L661.133,79.308L661.725,79.101L662.317,78.991L662.908,78.802L663.5,78.688L664.092,78.618L664.683,78.488L665.275,78.399L665.867,78.301L666.458,78.233L667.05,78.089L667.642,78.002L668.233,77.899L668.825,77.801L669.417,77.685L670.008,77.603L670.6,77.509L671.192,77.425L671.783,77.331L672.375,77.193L672.967,77.093L673.558,76.916L674.15,76.81L674.742,76.698L675.333,76.559L675.925,76.425L676.517,76.281L677.108,76.124L677.7,76.014L678.292,75.948L678.883,75.812L679.475,75.696L680.067,75.591L680.658,75.457L681.25,75.304L681.842,75.089L682.433,74.816L683.025,74.62L683.617,74.514L684.208,74.396L684.8,74.305L685.392,74.201L685.983,74.055L686.575,73.962L687.167,73.887L687.758,73.693L688.35,73.522L688.942,73.437L689.533,73.289L690.125,73.165L690.717,73.051L691.308,72.928L691.9,72.763L692.492,72.568L693.083,72.442L693.675,72.315L694.267,72.229L694.858,72.122L695.45,72.028L696.042,71.987L696.633,71.806L697.225,71.727L697.817,71.601L698.408,71.439L699,71.305L699.592,71.117L700.183,70.939L700.775,70.815L701.367,70.693L701.958,70.49L702.55,70.386L703.142,70.277L703.733,70.097L704.325,69.983L704.917,69.849L705.508,69.664L706.1,69.573L706.692,69.472L707.283,69.313L707.875,69.206L708.467,69.008L709.058,68.9L709.65,68.716L710.242,68.558L710.833,68.459L711.425,68.368L712.017,68.245L712.608,68.003L713.2,67.771L713.792,67.619L714.383,67.417L714.975,67.287L715.567,67.135L716.158,66.904L716.75,66.728L717.342,66.577L717.933,66.425L718.525,66.322L719.117,66.195L719.708,66.077L720.3,65.943L720.892,65.824L721.483,65.687L722.075,65.579L722.667,65.452L723.258,65.263L723.85,65.119L724.442,65.031L725.033,64.946L725.625,64.841L726.217,64.74L726.808,64.643L727.4,64.578L727.992,64.508L728.583,64.393L729.175,64.333L729.767,64.26L730.358,64.153L730.95,64.049L731.542,63.959L732.133,63.816L732.725,63.743L733.317,63.624L733.908,63.547L734.5,63.39L735.092,63.321L735.683,63.192L736.275,63.142L736.867,63.082L737.458,62.91L738.05,62.82L738.642,62.716L739.233,62.667L739.825,62.595L740.417,62.473L741.008,62.397L741.6,62.324L742.192,62.299L742.783,62.223L743.375,62.191L743.967,62.12L744.558,62.07L745.15,61.954L745.742,61.834L746.333,61.72L746.925,61.682L747.517,61.614L748.108,61.56L748.7,61.525L749.292,61.504L749.883,61.405L750.475,61.331L751.067,61.246L751.658,61.212L752.25,61.148L752.842,61.088L753.433,60.991L754.025,60.964L754.617,60.917L755.208,60.875L755.8,60.785L756.392,60.696L756.983,60.631L757.575,60.576L758.167,60.521L758.758,60.479L759.35,60.443L759.942,60.422L760.533,60.403L761.125,60.363L761.717,60.299L762.308,60.287L762.9,60.252L763.492,60.237L764.083,60.209L764.675,60.191L765.267,60.176L765.858,60.157L766.45,60.144L767.042,60.135L767.633,60.107L768.225,60.054L768.817,60.033L769.408,60.002L770,60"/></g></svg>