<svg class="plot-d6a7b5" fill="currentColor" font-family="system-ui, sans-serif" font-size="10" text-anchor="middle" width="830" height="470" viewBox="0 0 830 470" xmlns="http://www.w3.org/2000/svg" xmlns:xlink="http://www.w3.org/1999/xlink" color="#1e90ff"><style>:where(.plot-d6a7b5){--plot-background: white;display:block;height:intrinsic;max-width:100%}:where(.plot-d6a7b5 text),:where(.plot-d6a7b5 tspan){white-space:pre}</style><g aria-label="y-grid" stroke="currentColor" stroke-opacity=".1"><line x1="60" x2="770" y1="410" y2="410"/><line x1="60" x2="770" y1="360.939" y2="360.939"/><line x1="60" x2="770" y1="311.878" y2="311.878"/><line x1="60" x2="770" y1="262.817" y2="262.817"/><line x1="60" x2="770" y1="213.757" y2="213.757"/><line x1="60" x2="770" y1="164.696" y2="164.696"/><line x1="60" x2="770" y1="115.635" y2="115.635"/><line x1="60" x2="770" y1="66.574" y2="66.574"/></g><g aria-label="y-axis tick" fill="none" stroke="currentColor"><path transform="translate(60,410)" d="M0,0L-6,0"/><path transform="translate(60,360.9391645640594)" d="M0,0L-6,0"/><path transform="translate(60,311.8783291281189)" d="M0,0L-6,0"/><path transform="translate(60,262.8174936921783)" d="M0,0L-6,0"/><path transform="translate(60,213.7566582562377)" d="M0,0L-6,0"/><path transform="translate(60,164.69582282029717)" d="M0,0L-6,0"/><path transform="translate(60,115.6349873843566)" d="M0,0L-6,0"/><path transform="translate(60,66.57415194841604)" d="M0,0L-6,0"/></g><g aria-label="y-axis tick label" text-anchor="end" font-variant="tabular-nums"><text y=".32em" transform="translate(-9,0) translate(60,410)">0</text><text y=".32em" transform="translate(-9,0) translate(60,360.9391645640594)">1,000</text><text y=".32em" transform="translate(-9,0) translate(60,311.8783291281189)">2,000</text><text y=".32em" transform="translate(-9,0) translate(60,262.8174936921783)">3,000</text><text y=".32em" transform="translate(-9,0) translate(60,213.7566582562377)">4,000</text><text y=".32em" transform="translate(-9,0) translate(60,164.69582282029717)">5,000</text><text y=".32em" transform="translate(-9,0) translate(60,115.6349873843566)">6,000</text><text y=".32em" transform="translate(-9,0) translate(60,66.57415194841604)">7,000</text></g><g aria-label="y-axis label" text-anchor="start"><text y=".71em" transform="translate(-57,-57) translate(60,60)">↑ Visible Vestiges (4 days)</text></g><g aria-label="x-axis tick" fill="none" stroke="currentColor"><path transform="translate(66.5204081632653,410)" d="M0,0L0,6"/><path transform="translate(133.89795918367346,410)" d="M0,0L0,6"/><path transform="translate(199.10204081632654,410)" d="M0,0L0,6"/><path transform="translate(266.4795918367347,410)" d="M0,0L0,6"/><path transform="translate(331.6836734693877,410)" d="M0,0L0,6"/><path transform="translate(399.0612244897959,410)" d="M0,0L0,6"/><path transform="translate(466.4387755102041,410)" d="M0,0L0,6"/><path transform="translate(531.6428571428571,410)" d="M0,0L0,6"/><path transform="translate(599.0204081632653,410)" d="M0,0L0,6"/><path transform="translate(664.2244897959184,410)" d="M0,0L0,6"/><path transform="translate(731.6020408163265,410)" d="M0,0L0,6"/></g><g aria-label="x-axis tick label" font-variant="tabular-nums"><text transform="translate(0,9) translate(66.5204081632653,410)"><tspan x="0" y=".71em">Mar</tspan><tspan x="0" dy="1em">2023</tspan></text><text y=".71em" transform="translate(0,9) translate(133.89795918367346,410)">Apr</text><text y=".71em" transform="translate(0,9) translate(199.10204081632654,410)">May</text><text y=".71em" transform="translate(0,9) translate(266.4795918367347,410)">Jun</text><text y=".71em" transform="translate(0,9) translate(331.6836734693877,410)">Jul</text><text y=".71em" transform="translate(0,9) translate(399.0612244897959,410)">Aug</text><text y=".71em" transform="translate(0,9) translate(466.4387755102041,410)">Sep</text><text y=".71em" transform="translate(0,9) translate(531.6428571428571,410)">Oct</text><text y=".71em" transform="translate(0,9) translate(599.0204081632653,410)">Nov</text><text y=".71em" transform="translate(0,9) translate(664.2244897959184,410)">Dec</text><text transform="translate(0,9) translate(731.6020408163265,410)"><tspan x="0" y=".71em">Jan</tspan><tspan x="0" dy="1em">2024</tspan></text></g><g aria-label="line" fill="none" stroke="currentColor" stroke-width="1.5" stroke-linejoin="round" stroke-linecap="round"><path d="M60,410L61.449,385.371L62.898,295.296L64.347,246.726L65.796,236.913L67.245,270.177L68.694,274.003L70.143,266.497L71.592,238.434L73.041,216.013L74.49,178.237L75.939,139.626L77.388,90.369L78.837,109.65L80.286,145.66L81.735,202.669L83.184,195.015L84.633,193.445L86.082,192.906L87.531,202.227L88.98,211.5L90.429,182.996L91.878,179.12L93.327,151.989L94.776,189.815L96.224,205.22L97.673,226.905L99.122,195.948L100.571,180.395L102.02,178.089L103.469,172.398L104.918,155.718L106.367,120.05L107.816,109.601L109.265,132.463L110.714,196.683L112.163,250.013L113.612,270.765L115.061,263.21L116.51,242.555L117.959,233.038L119.408,194.623L120.857,149.978L122.306,97.041L123.755,82.862L125.204,111.808L126.653,141.343L128.102,166.756L129.551,169.111L131,181.131L132.449,172.595L133.898,152.136L135.347,116.665L136.796,86.689L138.245,60L139.694,86.934L141.143,122.258L142.592,160.378L144.041,147.328L145.49,133.297L146.939,116.518L148.388,104.351L149.837,106.461L151.286,106.362L152.735,107.049L154.184,95.029L155.633,125.006L157.082,147.77L158.531,175.048L159.98,172.791L161.429,182.603L162.878,202.375L164.327,199.333L165.776,182.358L167.224,158.759L168.673,141.883L170.122,161.114L171.571,182.161L173.02,219.055L174.469,234.853L175.918,250.503L177.367,249.718L178.816,224.795L180.265,202.473L181.714,178.482L183.163,176.716L184.612,168.474L186.061,188.785L187.51,212.825L188.959,207.967L190.408,205.613L191.857,211.5L193.306,247.412L194.755,255.802L196.204,231.32L197.653,208.507L199.102,194.329L200.551,192.562L202,221.508L203.449,245.744L204.898,262.033L206.347,240.74L207.796,245.793L209.245,248.099L210.694,252.662L212.143,215.327L213.592,195.997L215.041,185.841L216.49,211.549L217.939,223.814L219.388,231.32L220.837,235.638L222.286,238.483L223.735,248.05L225.184,248.345L226.633,235.834L228.082,235.785L229.531,227.69L230.98,239.955L232.429,253.496L233.878,267.527L235.327,274.151L236.776,266.154L238.224,265.712L239.673,267.086L241.122,259.334L242.571,217.829L244.02,195.212L245.469,179.757L246.918,216.897L248.367,223.618L249.816,247.412L251.265,243.438L252.714,262.327L254.163,246.578L255.612,241.623L257.061,218.025L258.51,203.454L259.959,196.34L261.408,200.314L262.857,230.486L264.306,232.105L265.755,239.857L267.204,249.865L268.653,249.718L270.102,261.297L271.551,259.579L273,278.174L274.449,273.464L275.898,263.799L277.347,265.761L278.796,263.21L280.245,262.719L281.694,262.817L283.143,267.969L284.592,285.042L286.041,277.438L287.49,269.637L288.939,263.014L290.388,259.825L291.837,265.123L293.286,263.063L294.735,273.366L296.184,272.384L297.633,264.191L299.082,257.813L300.531,261.64L301.98,269.833L303.429,270.569L304.878,274.396L306.327,265.123L307.776,267.675L309.224,255.262L310.673,262.916L312.122,264.093L313.571,284.993L315.02,288.82L316.469,293.824L317.918,272.875L319.367,265.271L320.816,260.414L322.265,258.647L323.714,260.953L325.163,256.292L326.612,262.278L328.061,245.744L329.51,237.649L330.959,247.952L332.408,265.859L333.857,276.26L335.306,281.068L336.755,283.766L338.204,298.534L339.653,288.28L341.102,291.665L342.551,280.381L344,284.404L345.449,276.604L346.898,280.283L348.347,278.615L349.796,282.442L351.245,276.751L352.694,276.996L354.143,272.679L355.592,283.325L357.041,279.4L358.49,283.963L359.939,277.928L361.388,271.109L362.837,268.263L364.286,262.572L365.735,269.49L367.184,277.29L368.633,270.373L370.082,268.165L371.531,274.445L372.98,286.514L374.429,296.817L375.878,281.804L377.327,289.458L378.776,282.687L380.224,288.771L381.673,284.306L383.122,276.015L384.571,262.082L386.02,253.643L387.469,272.826L388.918,271.452L390.367,271.599L391.816,257.617L393.265,263.161L394.714,270.716L396.163,270.177L397.612,279.694L399.061,269.637L400.51,269.244L401.959,254.87L403.408,255.704L404.857,255.556L406.306,266.791L407.755,258.255L409.204,242.653L410.653,208.605L412.102,213.266L413.551,232.105L415,264.486L416.449,273.905L417.898,282.246L419.347,287.152L420.796,287.299L422.245,288.476L423.694,288.133L425.143,286.416L426.592,284.11L428.041,281.313L429.49,277.536L430.939,273.071L432.388,276.407L433.837,264.24L435.286,249.964L436.735,234.706L438.184,250.16L439.633,257.666L441.082,256.881L442.531,253.594L443.98,252.269L445.429,262.817L446.878,266.546L448.327,281.559L449.776,292.303L451.224,304.372L452.673,298.436L454.122,298.239L455.571,287.25L457.02,282.785L458.469,285.876L459.918,287.888L461.367,292.941L462.816,294.118L464.265,296.964L465.714,299.466L467.163,300.791L468.612,300.594L470.061,291.322L471.51,278.762L472.959,281.755L474.408,284.944L475.857,294.609L477.306,300.692L478.755,307.512L480.204,314.822L481.653,324.242L483.102,331.208L484.551,307.463L486,288.329L487.449,276.26L488.898,283.08L490.347,301.576L491.796,310.505L493.245,334.25L494.694,334.103L496.143,330.227L497.592,324.094L499.041,307.806L500.49,300.496L501.939,270.373L503.388,254.575L504.837,265.32L506.286,289.556L507.735,316.294L509.184,312.909L510.633,314.626L512.082,308.101L513.531,313.792L514.98,310.308L516.429,299.073L517.878,292.597L519.327,288.329L520.776,309.965L522.224,320.415L523.673,335.182L525.122,329.687L526.571,326.94L528.02,315.999L529.469,310.161L530.918,300.496L532.367,294.315L533.816,293.137L535.265,309.229L536.714,321.592L538.163,331.306L539.612,327.087L541.061,332.827L542.51,329.982L543.959,320.268L545.408,306.285L546.857,288.771L548.306,275.377L549.755,270.373L551.204,281.706L552.653,301.379L554.102,316.588L555.551,323.8L557,320.611L558.449,313.595L559.898,314.282L561.347,318.845L562.796,303.047L564.245,282.246L565.694,277.977L567.143,303.293L568.592,329.05L570.041,341.168L571.49,335.231L572.939,332.974L574.388,326.253L575.837,316.049L577.286,290.144L578.735,276.555L580.184,272.139L581.633,295.1L583.082,307.855L584.531,316.196L585.98,315.656L587.429,314.233L588.878,319.483L590.327,307.316L591.776,308.052L593.224,303.195L594.673,315.803L596.122,323.751L597.571,328.412L599.02,330.325L600.469,332.484L601.918,346.81L603.367,348.38L604.816,324.291L606.265,300.938L607.714,277.83L609.163,286.121L610.612,301.821L612.061,330.571L613.51,334.741L614.959,333.858L616.408,334.299L617.857,342.983L619.306,343.375L620.755,341.756L622.204,333.71L623.653,336.163L625.102,329.442L626.551,338.911L628,344.504L629.449,357.603L630.898,357.063L632.347,356.72L633.796,353.531L635.245,360.203L636.694,346.761L638.143,326.351L639.592,301.526L641.041,303.096L642.49,312.32L643.939,331.012L645.388,339.058L646.837,349.165L648.286,342.198L649.735,334.839L651.184,323.555L652.633,322.525L654.082,320.17L655.531,322.083L656.98,321.396L658.429,328.412L659.878,330.08L661.327,327.627L662.776,316.441L664.224,316.588L665.673,321.494L667.122,338.567L668.571,335.28L670.02,330.914L671.469,324.83L672.918,335.133L674.367,351.618L675.816,355.935L677.265,351.765L678.714,345.927L680.163,351.618L681.612,354.12L683.061,355.837L684.51,352.354L685.959,349.802L687.408,352.599L688.857,348.281L690.306,343.523L691.755,344.258L693.204,355.641L694.653,369.034L696.102,366.091L697.551,355.248L699,340.775L700.449,335.133L701.898,343.768L703.347,351.961L704.796,347.742L706.245,347.496L707.694,353.04L709.143,361.037L710.592,353.089L712.041,349.999L713.49,345.779L714.939,338.518L716.388,327.725L717.837,334.005L719.286,346.025L720.735,344.847L722.184,336.213L723.633,328.951L725.082,335.378L726.531,333.073L727.98,333.024L729.429,332.631L730.878,336.409L732.327,338.813L733.776,338.42L735.224,338.616L736.673,332.582L738.122,335.918L739.571,341.707L741.02,342.787L742.469,351.274L743.918,347.251L745.367,347.938L746.816,343.032L748.265,343.572L749.714,351.421L751.163,353.433L752.612,357.701L754.061,366.483L755.51,369.966L756.959,364.472L758.408,351.814L759.857,337.292L761.306,326.548L762.755,317.177L764.204,325.615L765.653,336.507L767.102,353.973L768.551,344.16L770,334.397"/></g></svg>