<svg class="plot-d6a7b5" fill="currentColor" font-family="system-ui, sans-serif" font-size="10" text-anchor="middle" width="830" height="470" viewBox="0 0 830 470" xmlns="http://www.w3.org/2000/svg" xmlns:xlink="http://www.w3.org/1999/xlink" color="#1e90ff"><style>:where(.plot-d6a7b5){--plot-background: white;display:block;height:intrinsic;max-width:100%}:where(.plot-d6a7b5 text),:where(.plot-d6a7b5 tspan){white-space:pre}</style><g aria-label="y-grid" stroke="currentColor" stroke-opacity=".1"><line x1="60" x2="770" y1="410" y2="410"/><line x1="60" x2="770" y1="360.939" y2="360.939"/><line x1="60" x2="770" y1="311.878" y2="311.878"/><line x1="60" x2="770" y1="262.817" y2="262.817"/><line x1="60" x2="770" y1="213.757" y2="213.757"/><line x1="60" x2="770" y1="164.696" y2="164.696"/><line x1="60" x2="770" y1="115.635" y2="115.635"/><line x1="60" x2="770" y1="66.574" y2="66.574"/></g><g aria-label="y-axis tick" fill="none" stroke="currentColor"><path transform="translate(60,410)" d="M0,0L-6,0"/><path transform="translate(60,360.9391645640594)" d="M0,0L-6,0"/><path transform="translate(60,311.8783291281189)" d="M0,0L-6,0"/><path transform="translate(60,262.8174936921783)" d="M0,0L-6,0"/><path transform="translate(60,213.7566582562377)" d="M0,0L-6,0"/><path transform="translate(60,164.69582282029717)" d="M0,0L-6,0"/><path transform="translate(60,115.6349873843566)" d="M0,0L-6,0"/><path transform="translate(60,66.57415194841604)" d="M0,0L-6,0"/></g><g aria-label="y-axis tick label" text-anchor="end" font-variant="tabular-nums"><text y=".32em" transform="translate(-9,0) translate(60,410)">0</text><text y=".32em" transform="translate(-9,0) translate(60,360.9391645640594)">1,000</text><text y=".32em" transform="translate(-9,0) translate(60,311.8783291281189)">2,000</text><text y=".32em" transform="translate(-9,0) translate(60,262.8174936921783)">3,000</text><text y=".32em" transform="translate(-9,0) translate(60,213.7566582562377)">4,000</text><text y=".32em" transform="translate(-9,0) translate(60,164.69582282029717)">5,000</text><text y=".32em" transform="translate(-9,0) translate(60,115.6349873843566)">6,000</text><text y=".32em" transform="translate(-9,0) translate(60,66.57415194841604)">7,000</text></g><g aria-label="y-axis label" text-anchor="start"><text y=".71em" transform="translate(-57,-57) translate(60,60)">↑ Visible Vestiges (4 days)</text></g><g aria-label="x-axis tick" fill="none" stroke="currentColor"><path transform="translate(65.91666666666667,410)" d="M0,0L0,6"/><path transform="translate(127.05555555555554,410)" d="M0,0L0,6"/><path transform="translate(186.22222222222223,410)" d="M0,0L0,6"/><path transform="translate(247.36111111111114,410)" d="M0,0L0,6"/><path transform="translate(306.52777777777777,410)" d="M0,0L0,6"/><path transform="translate(367.6666666666667,410)" d="M0,0L0,6"/><path transform="translate(428.80555555555554,410)" d="M0,0L0,6"/><path transform="translate(487.9722222222222,410)" d="M0,0L0,6"/><path transform="translate(549.1111111111111,410)" d="M0,0L0,6"/><path transform="translate(608.2777777777777,410)" d="M0,0L0,6"/><path transform="translate(669.4166666666666,410)" d="M0,0L0,6"/><path transform="translate(730.5555555555555,410)" d="M0,0L0,6"/></g><g aria-label="x-axis tick label" font-variant="tabular-nums"><text transform="translate(0,9) translate(65.91666666666667,410)"><tspan x="0" y=".71em">Mar</tspan><tspan x="0" dy="1em">2023</tspan></text><text y=".71em" transform="translate(0,9) translate(127.05555555555554,410)">Apr</text><text y=".71em" transform="translate(0,9) translate(186.22222222222223,410)">May</text><text y=".71em" transform="translate(0,9) translate(247.36111111111114,410)">Jun</text><text y=".71em" transform="translate(0,9) translate(306.52777777777777,410)">Jul</text><text y=".71em" transform="translate(0,9) translate(367.6666666666667,410)">Aug</text><text y=".71em" transform="translate(0,9) translate(428.80555555555554,410)">Sep</text><text y=".71em" transform="translate(0,9) translate(487.9722222222222,410)">Oct</text><text y=".71em" transform="translate(0,9) translate(549.1111111111111,410)">Nov</text><text y=".71em" transform="translate(0,9) translate(608.2777777777777,410)">Dec</text><text transform="translate(0,9) translate(669.4166666666666,410)"><tspan x="0" y=".71em">Jan</tspan><tspan x="0" dy="1em">2024</tspan></text><text y=".71em" transform="translate(0,9) translate(730.5555555555555,410)">Feb</text></g><g aria-label="line" fill="none" stroke="currentColor" stroke-width="1.5" stroke-linejoin="round" stroke-linecap="round"><path d="M60,410L61.315,385.371L62.63,295.296L63.944,246.726L65.259,236.913L66.574,270.177L67.889,274.003L69.204,266.497L70.519,238.434L71.833,216.013L73.148,178.237L74.463,139.626L75.778,90.369L77.093,109.65L78.407,145.66L79.722,202.669L81.037,195.015L82.352,193.445L83.667,192.906L84.981,202.227L86.296,211.5L87.611,182.996L88.926,179.12L90.241,151.989L91.556,189.815L92.87,205.22L94.185,226.905L95.5,195.948L96.815,180.395L98.13,178.089L99.444,172.398L100.759,155.718L102.074,120.05L103.389,109.601L104.704,132.463L106.019,196.683L107.333,250.013L108.648,270.765L109.963,263.21L111.278,242.555L112.593,233.038L113.907,194.623L115.222,149.978L116.537,97.041L117.852,82.862L119.167,111.808L120.481,141.343L121.796,166.756L123.111,169.111L124.426,181.131L125.741,172.595L127.056,152.136L128.37,116.665L129.685,86.689L131,60L132.315,86.934L133.63,122.258L134.944,160.378L136.259,147.328L137.574,133.297L138.889,116.518L140.204,104.351L141.519,106.461L142.833,106.362L144.148,107.049L145.463,95.029L146.778,125.006L148.093,147.77L149.407,175.048L150.722,172.791L152.037,182.603L153.352,202.375L154.667,199.333L155.981,182.358L157.296,158.759L158.611,141.883L159.926,161.114L161.241,182.161L162.556,219.055L163.87,234.853L165.185,250.503L166.5,249.718L167.815,224.795L169.13,202.473L170.444,178.482L171.759,176.716L173.074,168.474L174.389,188.785L175.704,212.825L177.019,207.967L178.333,205.613L179.648,211.5L180.963,247.412L182.278,255.802L183.593,231.32L184.907,208.507L186.222,194.329L187.537,192.562L188.852,221.508L190.167,245.744L191.481,262.033L192.796,240.74L194.111,245.793L195.426,248.099L196.741,252.662L198.056,215.327L199.37,195.997L200.685,185.841L202,211.549L203.315,223.814L204.63,231.32L205.944,235.638L207.259,238.483L208.574,248.05L209.889,248.345L211.204,235.834L212.519,235.785L213.833,227.69L215.148,239.955L216.463,253.496L217.778,267.527L219.093,274.151L220.407,266.154L221.722,265.712L223.037,267.086L224.352,259.334L225.667,217.829L226.981,195.212L228.296,179.757L229.611,216.897L230.926,223.618L232.241,247.412L233.556,243.438L234.87,262.327L236.185,246.578L237.5,241.623L238.815,218.025L240.13,203.454L241.444,196.34L242.759,200.314L244.074,230.486L245.389,232.105L246.704,239.857L248.019,249.865L249.333,249.718L250.648,261.297L251.963,259.579L253.278,278.174L254.593,273.464L255.907,263.799L257.222,265.761L258.537,263.21L259.852,262.719L261.167,262.817L262.481,267.969L263.796,285.042L265.111,277.438L266.426,269.637L267.741,263.014L269.056,259.825L270.37,265.123L271.685,263.063L273,273.366L274.315,272.384L275.63,264.191L276.944,257.813L278.259,261.64L279.574,269.833L280.889,270.569L282.204,274.396L283.519,265.123L284.833,267.675L286.148,255.262L287.463,262.916L288.778,264.093L290.093,284.993L291.407,288.82L292.722,293.824L294.037,272.875L295.352,265.271L296.667,260.414L297.981,258.647L299.296,260.953L300.611,256.292L301.926,262.278L303.241,245.744L304.556,237.649L305.87,247.952L307.185,265.859L308.5,276.26L309.815,281.068L311.13,283.766L312.444,298.534L313.759,288.28L315.074,291.665L316.389,280.381L317.704,284.404L319.019,276.604L320.333,280.283L321.648,278.615L322.963,282.442L324.278,276.751L325.593,276.996L326.907,272.679L328.222,283.325L329.537,279.4L330.852,283.963L332.167,277.928L333.481,271.109L334.796,268.263L336.111,262.572L337.426,269.49L338.741,277.29L340.056,270.373L341.37,268.165L342.685,274.445L344,286.514L345.315,296.817L346.63,281.804L347.944,289.458L349.259,282.687L350.574,288.771L351.889,284.306L353.204,276.015L354.519,262.082L355.833,253.643L357.148,272.826L358.463,271.452L359.778,271.599L361.093,257.617L362.407,263.161L363.722,270.716L365.037,270.177L366.352,279.694L367.667,269.637L368.981,269.244L370.296,254.87L371.611,255.704L372.926,255.556L374.241,266.791L375.556,258.255L376.87,242.653L378.185,208.605L379.5,213.266L380.815,232.105L382.13,264.486L383.444,273.905L384.759,282.246L386.074,287.152L387.389,287.299L388.704,288.476L390.019,288.133L391.333,286.416L392.648,284.11L393.963,281.313L395.278,277.536L396.593,273.071L397.907,276.407L399.222,264.24L400.537,249.964L401.852,234.706L403.167,250.16L404.481,257.666L405.796,256.881L407.111,253.594L408.426,252.269L409.741,262.817L411.056,266.546L412.37,281.559L413.685,292.303L415,304.372L416.315,298.436L417.63,298.239L418.944,287.25L420.259,282.785L421.574,285.876L422.889,287.888L424.204,292.941L425.519,294.118L426.833,296.964L428.148,299.466L429.463,300.791L430.778,300.594L432.093,291.322L433.407,278.762L434.722,281.755L436.037,284.944L437.352,294.609L438.667,300.692L439.981,307.512L441.296,314.822L442.611,324.242L443.926,331.208L445.241,307.463L446.556,288.329L447.87,276.26L449.185,283.08L450.5,301.576L451.815,310.505L453.13,334.25L454.444,334.103L455.759,330.227L457.074,324.094L458.389,307.806L459.704,300.496L461.019,270.373L462.333,254.575L463.648,265.32L464.963,289.556L466.278,316.294L467.593,312.909L468.907,314.626L470.222,308.101L471.537,313.792L472.852,310.308L474.167,299.073L475.481,292.597L476.796,288.329L478.111,309.965L479.426,320.415L480.741,335.182L482.056,329.687L483.37,326.94L484.685,315.999L486,310.161L487.315,300.496L488.63,294.315L489.944,293.137L491.259,309.229L492.574,321.592L493.889,331.306L495.204,327.087L496.519,332.827L497.833,329.982L499.148,320.268L500.463,306.285L501.778,288.771L503.093,275.377L504.407,270.373L505.722,281.706L507.037,301.379L508.352,316.588L509.667,323.8L510.981,320.611L512.296,313.595L513.611,314.282L514.926,318.845L516.241,303.047L517.556,282.246L518.87,277.977L520.185,303.293L521.5,329.05L522.815,341.168L524.13,335.231L525.444,332.974L526.759,326.253L528.074,316.049L529.389,290.144L530.704,276.555L532.019,272.139L533.333,295.1L534.648,307.855L535.963,316.196L537.278,315.656L538.593,314.233L539.907,319.483L541.222,307.316L542.537,308.052L543.852,303.195L545.167,315.803L546.481,323.751L547.796,328.412L549.111,330.325L550.426,332.484L551.741,346.81L553.056,348.38L554.37,324.291L555.685,300.938L557,277.83L558.315,286.121L559.63,301.821L560.944,330.571L562.259,334.741L563.574,333.858L564.889,334.299L566.204,342.983L567.519,343.375L568.833,341.756L570.148,333.71L571.463,336.163L572.778,329.442L574.093,338.911L575.407,344.504L576.722,357.603L578.037,357.063L579.352,356.72L580.667,353.531L581.981,360.203L583.296,346.761L584.611,326.351L585.926,301.526L587.241,303.096L588.556,312.32L589.87,331.012L591.185,339.058L592.5,349.165L593.815,342.198L595.13,334.839L596.444,323.555L597.759,322.525L599.074,320.17L600.389,322.083L601.704,321.396L603.019,328.412L604.333,330.08L605.648,327.627L606.963,316.441L608.278,316.588L609.593,321.494L610.907,338.567L612.222,335.28L613.537,330.914L614.852,324.83L616.167,335.133L617.481,351.618L618.796,355.935L620.111,351.765L621.426,345.927L622.741,351.618L624.056,354.12L625.37,355.837L626.685,352.354L628,349.802L629.315,352.599L630.63,348.281L631.944,343.523L633.259,344.258L634.574,355.641L635.889,369.034L637.204,366.091L638.519,355.248L639.833,340.775L641.148,335.133L642.463,343.768L643.778,351.961L645.093,347.742L646.407,347.496L647.722,353.04L649.037,361.037L650.352,353.089L651.667,349.999L652.981,345.779L654.296,338.518L655.611,327.725L656.926,334.005L658.241,346.025L659.556,344.847L660.87,336.213L662.185,328.951L663.5,335.378L664.815,333.073L666.13,333.024L667.444,332.631L668.759,336.409L670.074,338.813L671.389,338.42L672.704,338.616L674.019,332.582L675.333,335.918L676.648,341.707L677.963,342.787L679.278,351.274L680.593,347.251L681.907,347.938L683.222,343.032L684.537,343.572L685.852,351.421L687.167,353.433L688.481,357.701L689.796,366.483L691.111,369.966L692.426,364.472L693.741,351.814L695.056,337.292L696.37,326.548L697.685,317.177L699,325.615L700.315,336.507L701.63,353.973L702.944,344.16L704.259,334.397L705.574,331.454L706.889,342.051L708.204,345.632L709.519,336.507L710.833,308.689L712.148,307.561L713.463,305.5L714.778,330.08L716.093,339.598L717.407,349.214L718.722,358.29L720.037,360.988L721.352,346.859L722.667,315.411L723.981,299.907L725.296,295.345L726.611,313.399L727.926,323.849L729.241,342.149L730.556,342.002L731.87,341.854L733.185,334.25L734.5,339.058L735.815,327.627L737.13,312.271L738.444,298.141L739.759,305.893L741.074,317.569L742.389,327.038L743.704,333.661L745.019,332.68L746.333,326.94L747.648,311.486L748.963,315.705L750.278,307.463L751.593,290.095L752.907,267.871L754.222,275.77L755.537,294.952L756.852,304.323L758.167,303.342L759.481,311.339L760.796,326.891L762.111,332.533L763.426,330.276L764.741,319.434L766.056,309.131L767.37,319.728L768.685,328.608L770,336.948"/></g></svg>