<svg xmlns="http://www.w3.org/2000/svg" width="830" height="470" fill="currentColor" class="plot-d6a7b5" font-family="system-ui, sans-serif" font-size="10" style="--plot-background:white;display:block;height:intrinsic;max-width:100%;color:#1e90ff" text-anchor="middle" viewBox="0 0 830 470">
    <style>
        :where(.plot-d6a7b5 text),:where(.plot-d6a7b5 tspan){white-space:pre}
    </style>
    <path stroke="currentColor" stroke-opacity=".1" d="
M60
410
h710
M60
378.557
h710
M60
347.114
h710
M60
315.671
h710
M60
284.227
h710
M60
252.784
h710
M60
221.341
h710
M60
189.898
h710
M60
158.455
h710
M60
127.012
h710
M60
95.568
h710
M60
64.125
h710" aria-hidden="true" aria-label="y-grid"/>
    <path fill="none" stroke="currentColor" d="
M60
410
h-6
m6
-31.443
h-6
m6
-31.443
h-6
m6
-31.444
h-6
m6
-31.443
h-6
m6
-31.443
h-6
m6
-31.443
h-6
m6
-31.443
h-6
m6
-31.443
h-6
m6
-31.443
h-6
m6
-31.444
h-6
m6
-31.443
h-6" aria-hidden="true" aria-label="y-axis tick"/>
    <g aria-label="y-axis tick label" font-variant="tabular-nums" text-anchor="end">
        <text y=".32em" transform="translate(51 410)">0</text>
        <text y=".32em" transform="translate(51 378.557)">5,000</text>
        <text y=".32em" transform="translate(51 347.114)">10,000</text>
        <text y=".32em" transform="translate(51 315.67)">15,000</text>
        <text y=".32em" transform="translate(51 284.227)">20,000</text>
        <text y=".32em" transform="translate(51 252.784)">25,000</text>
        <text y=".32em" transform="translate(51 221.341)">30,000</text>
        <text y=".32em" transform="translate(51 189.898)">35,000</text>
        <text y=".32em" transform="translate(51 158.455)">40,000</text>
        <text y=".32em" transform="translate(51 127.012)">45,000</text>
        <text y=".32em" transform="translate(51 95.568)">50,000</text>
        <text y=".32em" transform="translate(51 64.125)">55,000</text>
    </g>
    <text y=".71em" aria-label="y-axis label" text-anchor="start" transform="translate(3 3)">↑ Visible vestiges (30 days)</text>
    <path fill="none" stroke="currentColor" d="
M82.256
410
v6
m59.566
-6
v6
m60.222
-6
v6
m60.221
-6
v6
m59.567
-6
v6
m59.566
-6
v6
m60.222
-6
v6
m60.22
-6
v6
m58.913
-6
v6
m59.567
-6
v6
m60.22
-6
v6
m60.222
-6
v6" aria-hidden="true" aria-label="x-axis tick"/>
    <g aria-label="x-axis tick label" font-variant="tabular-nums">
        <text transform="translate(82.256 419)"><tspan x="0" y=".71em">Apr</tspan><tspan x="0" dy="1em">2023</tspan></text>
        <text y=".71em" transform="translate(141.822 419)">Jul</text>
        <text y=".71em" transform="translate(202.044 419)">Oct</text>
        <text transform="translate(262.265 419)"><tspan x="0" y=".71em">Jan</tspan><tspan x="0" dy="1em">2024</tspan></text>
        <text y=".71em" transform="translate(321.832 419)">Apr</text>
        <text y=".71em" transform="translate(381.398 419)">Jul</text>
        <text y=".71em" transform="translate(441.62 419)">Oct</text>
        <text transform="translate(501.84 419)"><tspan x="0" y=".71em">Jan</tspan><tspan x="0" dy="1em">2025</tspan></text>
        <text y=".71em" transform="translate(560.753 419)">Apr</text>
        <text y=".71em" transform="translate(620.32 419)">Jul</text>
        <text y=".71em" transform="translate(680.54 419)">Oct</text>
        <text transform="translate(740.762 419)"><tspan x="0" y=".71em">Jan</tspan><tspan x="0" dy="1em">2026</tspan></text>
    </g>
    <path fill="none" stroke="currentColor" stroke-linecap="round" stroke-linejoin="round" stroke-width="1.5" d="
m60
410
.436
-3.157
.437
-11.546
.436
-6.226
.437
-4.414
.436
-7.282
.436
-5.736
.437
-5.376
.436
-10.88
.436
-8.609
.437
-10.219
.436
-15.828
.437
-14.923
.436
-7.748
.436
-11.213
.437
-7.615
.436
-8.729
.437
-11.414
.436
-7.684
.436
-7.534
.437
-10.225
.436
-11.339
.436
-8.03
.437
-13.703
.436
-6.49
.437
-6.056
.436
-10.923
.436
-10.458
.437
-8.05
.436
-11.219
.437
-8.03
.436
1.358
.436
-9.565
.437
-8.112
.436
.025
.437
-1.824
.436
-.314
.436
6.282
.437
.082
.436
1.88
.436
10.012
.437
1.471
.436
-6.314
.437
-1.389
.436
-7.654
.436
-1.622
.437
2.597
.436
-4.327
.437
-2.515
.436
2.949
.436
-1.767
.437
-4.641
.436
1.881
.436
-10.458
.437
-10.037
.436
2.553
.437
-1.962
.436
-3.157
.436
1.176
.437
-3.031
.436
-3.169
.437
4.188
.436
-1.421
.436
-6.113
.437
-3.956
.436
-9.797
.436
-4.931
.437
-.069
.436
-3.653
.437
-4
.436
6.113
.436
4.603
.437
2.396
.436
5.754
.437
-2.132
.436
-3.553
.436
4.962
.437
.264
.436
-.365
.436
8.081
.437
4.893
.436
4.081
.437
8.728
.436
5.453
.436
-2.447
.437
3.975
.436
-.491
.437
1.83
.436
8.855
.436
1.037
.437
3.088
.436
9.339
.437
5.653
.436
4.075
.436
7.741
.437
-1.113
.436
-.66
.436
4.019
.437
2.886
.436
1.189
.437
3.571
.436
.548
.436
4.012
.437
6.892
.436
3.295
.437
-3.238
.436
1.716
.436
-2.735
.437
-1.968
.436
1.282
.436
-1.672
.437
1.779
.436
4.509
.437
2.629
.436
2.044
.436
3.962
.437
.018
.436
-2.075
.437
6.157
.436
2.056
.436
-1.031
.437
2.402
.436
-.044
.436
2.05
.437
5.503
.436
.78
.437
-3.044
.436
-1.107
.436
-4.308
.437
-.371
.436
2.484
.437
-1.905
.436
-1.176
.436
4.32
.437
.862
.436
.666
.436
2.597
.437
-4.301
.436
-1.817
.437
2.144
.436
-.987
.436
-1.975
.437
1.912
.436
.258
.437
-.39
.436
3.402
.436
1.075
.437
.422
.436
1.062
.437
-1.962
.436
-.176
.436
1.761
.437
-1.968
.436
-.34
.436
3.415
.437
5.54
.436
1.585
.437
4.396
.436
-.069
.436
.314
.437
2.025
.436
.176
.437
-.786
.436
3.918
.436
-.239
.437
1.421
.436
6.276
.436
1.723
.437
1.006
.436
2.899
.437
.327
.436
.34
.436
.025
.437
1.327
.436
-.994
.437
2.925
.436
-.566
.436
.251
.437
1.478
.436
-1.792
.436
-.044
.437
1.314
.436
-1.509
.437
-1.302
.436
-.107
.436
-2.654
.437
-1.339
.436
2.063
.437
.05
.436
-.686
.436
2.943
.437
-.924
.436
1.333
.436
2.679
.437
.327
.436
-.604
.437
2.145
.436
-.767
.436
-.623
.437
3.119
.436
-.603
.437
.239
.436
2.169
.436
-1.308
.437
-1.075
.436
1.176
.437
-1.365
.436
.836
.436
1.277
.437
-1.107
.436
.334
.436
1.867
.437
.491
.436
-1.321
.437
3.704
.436
2.333
.436
-1.094
.437
2.729
.436
-.924
.437
-.73
.436
1.516
.436
-2.038
.437
.013
.436
.019
.436
-2.377
.437
-1.585
.436
3.478
.437
-3.025
.436
-1.352
.436
1.195
.437
-1.585
.436
-.415
.437
1.679
.436
-1.73
.436
-1.201
.437
1.044
.436
-2.798
.436
-.22
.437
1.39
.436
-.629
.437
-2.201
.436
-1.61
.436
-4.107
.437
-1.32
h.436
l.437
-1.503
.436
-1.434
.436
2.993
.437
-1.855
.436
-.547
.436
2.365
.437
-1.327
.436
.295
.437
3.855
.436
-.604
.436
-2.647
.437
3.459
.436
-.195
.437
-2.415
.436
.918
.436
-3.119
.437
-.365
.436
.66
.437
-1.93
.436
-.736
.436
2.333
.437
-.685
.436
-.239
.436
2.817
.437
1.786
.436
3.308
.437
6.42
.436
1.164
.436
-.516
.437
1.698
.436
.352
.437
-1.327
.436
1.717
.436
.484
.437
-1.113
.436
2.082
.436
.874
.437
-.843
.436
1.252
.437
-.252
.436
.113
.436
1.233
.437
2.547
.436
2.723
.437
4.062
.436
1.503
.436
2.969
.437
5.056
.436
-1.12
.436
.686
.437
2.157
.436
-.724
.437
1.132
.436
1.925
.436
.773
.437
1.874
.436
1.453
.437
1.396
.436
.358
.436
.12
.437
-2.723
.436
-2.314
.436
1.345
.437
.019
.436
.793
.437
.742
.436
.264
.436
1.144
.437
3.082
.436
-.566
.437
-.704
.436
1.012
.436
-1.893
.437
1.195
.436
1.415
.437
-1.207
.436
-.403
.436
4.107
.437
-.158
.436
.396
.436
1.994
.437
-3.32
.436
-.9
.437
1.013
.436
-1.717
.436
.843
.437
1.257
.436
1.107
.437
1.415
.436
3.874
.436
1.339
.437
-2.207
.436
-.949
.436
-2.73
.437
-.32
.436
1.352
.437
.056
.436
-.126
.436
1.39
.437
.598
.436
.792
.437
2.522
.436
-4.201
.436
-3.214
.437
.082
.436
-.251
.436
.44
.437
3.037
.436
-.264
.437
1.39
.436
2.968
.436
-1.421
.437
-3.993
.436
-.359
.437
-3.232
.436
-.51
.436
.541
.437
-1.798
.436
.666
.436
2.151
.437
1.119
.436
.824
.437
2.887
.436
-.956
.436
-.082
.437
1.956
.436
-1.283
.437
.572
.436
3.132
.436
.465
.437
.189
.436
2.069
.437
.138
.436
-2.226
.436
-.113
.437
-1.151
.436
-.094
.436
1.182
.437
-.975
.436
.824
.437
3.603
.436
2.396
.436
2.359
.437
3.138
.436
-.233
.437
-.138
.436
3.282
.436
.554
.437
1.723
.436
2.54
.436
2.069
.437
1.22
.436
4.019
.437
-1.27
.436
-2.415
.436
.239
.437
-1.315
.436
-1.509
.437
.799
.436
-.484
.436
2.873
.437
2.899
.436
1.535
.436
.365
.437
.754
.436
-2.452
.437
.075
.436
.78
.436
-1.61
.437
-.824
.436
.415
.437
-2.836
.436
.227
.436
.729
.437
.214
.436
-1.409
.437
-.547
.436
-2.245
.436
-.019
.437
1.61
.436
-1.283
.436
-1.408
.437
2.584
.436
2.063
.437
2.094
.436
2.603
.436
.434
.437
-.629
.436
1.931
.437
-1.415
.436
-.346
.436
2.968
.437
1.491
.436
1.503
.436
2.893
.437
-.145
.436
-.264
.437
1.27
.436
.749
.436
1.1
.437
2.163
.436
.698
.437
1.183
.436
1
.436
.1
.437
1.346
.436
1.239
.436
-2.151
.437
-2.151
.436
1.491
.437
-.076
.436
-1.553
.436
-.346
.437
-1.327
.436
-.949
.437
-.195
.436
-1.006
.436
-1.359
.437
.843
.436
-.088
.436
-1.503
.437
-.591
.436
-2.579
.437
-.698
.436
1.541
.436
-.585
.437
1.113
.436
-.081
.437
-1.547
.436
1.025
.436
.018
.437
-1.251
.436
.258
.437
1.585
.436
.27
.436
1.245
.437
1.811
.436
.032
.436
-1.422
.437
-1.106
.436
-1.019
.437
.767
.436
1.22
.436
.396
.437
-.195
.436
-.025
.437
.069
.436
.68
.436
.125
.437
-1.05
.436
-2.912
.436
.755
.437
-1.742
.436
-.503
.437
1.836
.436
-1.597
.436
1.176
.437
2.094
.436
-2.779
.437
-2.925
.436
-.899
.436
-3.622
.437
-1.157
.436
-.686
.436
-1.723
.437
-.471
.436
.918
.437
-.837
.436
1.522
.436
.654
.437
-3.886
.436
-1.686
.437
-.591
.436
-1.132
.436
.78
.437
.635
.436
-2.616
.436
-.415
.437
-.176
.436
1.49
.437
-1.326
.436
-2.139
.436
-4.509
.437
-1.534
.436
-.912
.437
-4.471
.436
-2.006
.436
1.924
.437
1.554
.436
.704
.437
2.22
.436
-2.151
.436
-1.956
.437
1.233
.436
-.994
.436
-.868
.437
.082
.436
-1.503
.437
1.704
.436
2.585
.436
-.924
.437
-1.705
.436
1.365
.437
-1.855
.436
-.233
.436
1.541
.437
.226
.436
1.893
.436
1.403
.437
1.194
.436
3.541
.437
4.075
.436
-1.579
.436
.956
.437
3.214
.436
1.629
.437
.786
.436
.93
.436
.541
.437
1.591
.436
3.145
.436
.188
.437
-.855
.436
1.968
.437
-.591
.436
1.164
.436
2.735
.437
-.075
.436
.213
.437
2.736
.436
1.459
.436
-.415
.437
1.446
.436
-2.861
.436
-.547
.437
1.163
.436
1.881
.437
2.679
.436
3.597
.436
2.848
.437
2.862
.436
5.326
.437
2.943
.436
2.283
.436
2.088
.437
2.018
.436
2.516
.437
2.107
.436
1.245
.436
1.528
.437
3.358
.436
1.409
.436
-1.239
.437
1.811
.436
.736
.437
-.692
.436
.629
.436
1.182
.437
-.195
.436
.956
.437
.811
.436
.541
.436
2.748
.437
.566
h.436
l.436
-1.39
.437
-2.572
.436
-2.786
.437
-1.188
.436
-1.786
.436
-2.654
.437
-1.465
.436
-1.314
.437
-2.164
.436
-1.761
.436
-2.421
.437
-1.76
.436
-.994
.436
-1.597
.437
-.849
.436
-.415
.437
2.113
.436
.748
.436
1.207
.437
.296
.436
.113
.437
-.075
.436
-.397
.436
.441
.437
1.547
.436
.239
.436
.54
.437
1.283
.436
.459
.437
-.849
.436
.787
.436
.251
.437
-.528
.436
.484
.437
.648
.436
-.761
.436
-.786
.437
.824
.436
-.239
.437
.943
.436
.038
.436
-1.862
.437
-.333
.436
-1.302
h.436
l.437
-.339
.436
-.642
.437
-1.232
.436
-.195
.436
-.711
.437
-.579
.436
1.321
.437
-1.138
.436
-1.459
.436
.465
.437
-1.151
.436
.007
.436
.503
.437
1.547
.436
.289
.437
.604
.436
-.378
.436
-3.131
.437
-.157
.436
-1.101
.437
.786
.436
.006
.436
.22
.437
-1.018
.436
1.32
.436
1.17
.437
.145
.436
1.069
.437
-1.422
.436
-2.364
.436
.101
.437
-1.296
.436
.208
.437
.283
.436
-1.101
.436
-1.094
.437
1.144
.436
-.383
.436
-1.113
.437
1.39
.436
-2.246
.437
-.433
.436
-.73
.436
-1.119
.437
-.799
.436
.252
.437
1.371
.436
-.208
.436
.855
.437
-2.132
.436
-2.163
.437
-.761
.436
.271
.436
-2.447
.437
.032
.436
.182
.436
.164
.437
.446
.436
1.572
.437
-.452
.436
1.119
.436
-.862
.437
-.622
.436
2.981
.437
1.521
.436
-.037
.436
1.553
.437
-.352
.436
-.352
.436
2.572
.437
-.145
.436
-2.408
.437
1.213
.436
.61
.436
-1.025
.437
.925
.436
.999
.437
.642
.436
2.553
.436
2.107
.437
.836
.436
.661
.436
-.051
.437
-.371
.436
.466
.437
-1.126
.436
.522
.436
.126
.437
.836
.436
.635
.437
1.195
.436
.623
.436
-1.529
.437
.233
.436
.535
h.436
l.437
2.226
.436
.434
.437
-.529
.436
-.232
.436
1.855
.437
.126
.436
.742
.437
.629
.436
.176
.436
.163
.437
-.371
.436
-.918
.437
-.05
.436
-.145
.436
-.163
.437
1.238
.436
-.622
.436
-2.522
.437
.434
.436
-.585
.437
.308
.436
-.188
.436
-.874
.437
-.529
.436
.73
.437
.666
.436
-.729
.436
-.541
.437
-.56
.436
-1.521
.436
-.422
.437
-1.364
.436
-.981
.437
-.881
.436
-1.987
.436
-1.534
.437
-1.107
.436
-1.623
.437
-.566
.436
-.132
.436
-2.239
.437
-.603
.436
-.063
.436
-.748
.437
.27
.436
2.044
.437
-1.673
.436
-2.453
.436
-2.257
.437
-3.497
.436
-2.515
.437
-.598
.436
-3.112
.436
-3.755
.437
-1.459
.436
-1.22
.436
-1.66
.437
-1.239
.436
-.748
.437
-1.975
.436
.692
.436
1.534
.437
.239
.436
1.591
.437
1.114
.436
.974
.436
1.359
.437
-.818
.436
-.792
.437
1.144
.436
-.195
.436
-.434
.437
.629
.436
.019
.436
-.339
.437
4.842
.436
3.899
.437
3.572
.436
3.685
.436
3.163
.437
1.22
.436
3.597
.437
3.629
.436
1.823
.436
1.327
.437
2.264
.436
.899
.436
1.95
.437
2.176
.436
1.22
.437
-.529
.436
.761
.436
-.289
.437
.283
.436
.522
.437
.874
.436
1.063
.436
2.151
.437
1.911
.436
1.051
.436
1.314
.437
.151
.436
.277
.437
-.095
.436
-.44
.436
-.566
.437
-.057
.436
-.232
.437
-.057
.436
-.289
.436
-1.679
.437
-1.327
.436
-2.616
.436
-.05
.437
-.598
.436
.39
.437
.484
.436
-.207
.436
-.635
.437
.075
.436
-.503
.437
-2.905
.436
-.629
.436
.465
.437
-1.641
.436
-.233
.437
.05
.436
-.742
.436
-.283
.437
-.163
.436
-.302
.436
-1.006
.437
-1.176
.436
-2.264
.437
.283
.436
.251
.436
.139
.437
-.346
.436
1.302
.437
1.886
.436
1.239
.436
3.138
.437
.201
.436
.592
.436
1.025
h.437
l.436
1.358
.437
.88
.436
.315
.436
1.264
.437
3.779
.436
-.176
.437
-.434
.436
1.371
.436
-.629
.437
.29
.436
1.113
.436
.069
.437
.371
.436
1.333
.437
1.384
.436
1.786
.436
2.723
.437
-.919
.436
-.195
.437
1.277
.436
.962
h.436
l.437
-.232
.436
.333
.436
-1.113
.437
.49
.436
-.742
.437
-1.924
.436
-.893
.436
-2.453
.437
-1.062
.436
.339
.437
.12
.436
-.233
.436
.736
.437
.603
.436
.598
.437
.566
.436
-1.164
.436
-1.119
.437
.547
.436
-.912
.436
.252
.437
.358
.436
-1.018
.437
-.195
.436
1.15
.436
.095
.437
-1.195
.436
-.943
.437
-.793
.436
.315
.436
-.126
.437
.283
.436
-.421
.436
.742
.437
1.106
.436
.887
.437
1.748
.436
.032
.436
-.786
.437
.503
.436
.1
.437
.158
.436
.295
.436
-.239
.437
.855
.436
1.315
.436
.754
.437
.428
.436
1.528
.437
-.119
.436
-.29
.436
1.208
.437
.471
.436
-.138
.437
-.742
.436
.352
.436
-.371
.437
.937
.436
-.094
.436
.534
.437
.459
.436
.271
.437
.736
.436
.981
.436
-.176
.437
.345
.436
1.202
.437
.327
.436
-1.013
.436
.271
.437
-.359
.436
-.05
.437
-.503
.436
-.334
.436
-.106
.437
.471
.436
-.71
.436
-.749
.437
-.365
.436
-.999
.437
-.032
.436
-.924
h.436
l.437
1.031
.436
.522
.437
.893
.436
-.025
.436
.075
.437
-.245
.436
-.566
.436
-.277
.437
-2.402
.436
-1.302
.437
-.276
.436
-.918
.436
-.478
.437
.496
.436
-.547
.437
-1.528
.436
.472
.436
-1.308
.437
.421
.436
.509
.436
-.93
.437
-.29
.436
.158
.437
.264
.436
-.516
.436
1.145
.437
-.591
.436
.427
.437
-.082
.436
.063
.436
-.302
.437
.026
.436
-.371
.436
-.654
.437
-.126
.436
-.403
.437
.145
.436
1.66
.436
.459
.437
.088
.436
.283
.437
-.371
.436
.088
.436
1.648
.437
.868
.436
-.076
.437
1.032
.436
-.246
.436
-1.012
.437
-1.044
.436
-2.239
.436
-1.195
.437
-.471
.436
.314
.437
-.044
.436
-.012
.436
-.592
.437
.283
.436
.095
.437
-1.227
.436
-1.05
.436
.113
.437
-.138
.436
-.277
.436
.755
.437
-.201
.436
-.648
.437
-.685
.436
.094
.436
.22
.437
.855
.436
.038
.437
-.34
.436
1.164
.436
-.793
.437
.315
.436
.094
.436
-.113
.437
1
.436
1.025
.437
.22
.436
-.214
.436
-.05
.437
-1.365
h.436
l.437
.453
.436
-1.063
.436
-.471
.437
.735
.436
-.182
.436
-.075
.437
.584
.436
-.44
.437
.088
.436
-.912
.436
.692
.437
.132
.436
-.377
.437
.327
.436
-.05
.436
-.202
.437
-1.798
.436
-2.34
.437
.365
.436
-1.509
.436
-.038
.437
.113
.436
-1.188
.436
.157
.437
.333
.436
-.346
.437
.239
.436
.919
.436
-.177
.437
-.295
.436
.748
.437
-.289
.436
.314
.436
.705
.437
-1.189
.436
-.522
.436
.862
.437
.27
.436
1.138
.437
.088
.436
1.063
.436
1.12
.437
.358
.436
-.295
.437
.773
.436
2.05
.436
1.535
.437
.578
.436
1.371
.436
-.163
.437
.968
.436
1.365
.437
1.207
.436
-.069
.436
1.006
.437
-.321
.436
.95
.437
.704
.436
-.465
.436
.346
.437
.408
.436
.724
.436
.673
.437
.811
.436
.824
.437
.195
.436
.729
.436
.352
.437
.837
.436
.314
.437
.195
.436
-.56
.436
-.063
.437
-.66
.436
.428
.437
.478
.436
.603
.436
.673
.437
1.484
.436
-.32
.436
.553
.437
-.101
.436
1.497
.437
.069
.436
.843
.436
-.585
.437
.409
.436
1.522
.437
.591
.436
.163
.436
-.49
.437
.094
.436
.811
.436
.258
.437
.378
.436
-.139
.437
.679
.436
.158
.436
.377
.437
-.182
.436
1.27
.437
1.044
.436
1.207
.436
.12
.437
.603
.436
.478
.436
.202
.437
.094
.436
1.107
.437
.553
.436
.39
.436
.157
.437
.403
.436
.704
.437
.692
.436
-.101
.436
.044
.437
.208
.436
.125
.436
.73
.437
.516
.436
.32
.437
.176
.436
.038
.436
.315
.437
.132
.436
.05
.437
.27
.436
.453
.436
-.352
.437
-.019
.436
-.182
.437
-.271
.436
-.566
.436
-.32
.437
-.258
.436
-.378
.436
-.05
.437
-.176
.436
-.088
.437
-.113
.436
-.554
.436
-.805
.437
-.037
.436
-.365
.437
.189
.436
.006
.436
.717
.437
-.302
.436
-.824
.436
.113
.437
-.44
.436
-.22
.437
-.233
.436
-.239
.436
-.025
.437
-.201
.436
-.151
.437
-.201
.436
-.189
.436
-.409
.437
.007
.436
.61
.436
-.258
.437
.088
.436
.258
.437
.138
.436
.195
.436
.403
.437
-.07
.436
.365
.437
.629
.436
.094
.436
.579
.437
.107
.436
.056
.437
-.012
.436
.44
.436
.572
.437
-.037
.436
.578
.436
-.182
.437
-.202
.436
-.012
.437
-.302
.436
-.34
.436
-.194
.437
.377
.436
.088
.437
.113
.436
.113
.436
-.17
.437
.214
.436
-.503
.436
.113
.437
-.125
.436
-.132
.437
-.548
.436
.07
.436
-.365
.437
-.403
.436
.063
.437
-.981
.436
-.541
.436
-.069
.437
-.509
h.436
l.436
-.006
.437
.239
.436
-.038
.437
.641
.436
.365
.436
-.057
.437
.151
.436
.107
.437
.057
.436
-.78
.436
.126
.437
.163
.436
.315
.436
-.245
.437
.031
.436
-.006
.437
-.051
.436
-.251
.436
-.252
.437
.239
.436
.145
.437
.283
.436
.094
.436
.315
.437
.83
.436
.314
.437
-.339
.436
.32
.436
-.195
.437
.239
.436
-.717
.436
-.515
.437
-.264
.436
-.12
.437
-.478
.436
-.063
.436
.271
.437
.421
.436
.761
.437
.157
.436
-.251
.436
-.214
.437
.402
.436
.346
.436
.308
.437
.132
.436
-.113
.437
.277
.436
.327
.436
.119
.437
.636
.436
.371
.437
-.038
.436
.182
.436
.076
.437
.484
.436
.283
.436
.239
.437
.138
.436
.415
.437
.164
.436
.396
.436
-.164
.437
-.031
.436
-.937
.437
-.673
.436
-.075
.436
.037
.437
-.157
.436
.447
.436
.157
.437
-.239
.436
-.478
.437
-.189
.436
-.308
.436
.277
.437
.402
.436
-.012
.437
-.698
.436
-.315
.436
-.138
.437
-.277
.436
-.157
.437
-.245
.436
-.29
.436
-.679
.437
.145
.436
.101
.436
.125
.437
.434
.436
.082
.437
-.371
.436
.654
.436
.711
.437
.301
.436
.277
.437
.271
.436
.345
.436
.195
.437
.076
.436
.239
.436
.591
.437
.302
.436
.144
.437
.007
.436
-.069
.436
.289
.437
.748
.436
.308
.437
.246
.436
.352
.436
.025
.437
.138
.436
-.698
.436
-.346
.437
-.635
.436
-.126
.437
.221
.436
-.145
.436
-.434
.437
.553
.436
-.125
.437
-.353
.436
-.062
.436
-.447
.437
-.748
.436
-.321
.436
-.138
.437
-.189
.436
-.013
.437
-.496
.436
-.139
.436
-.025
.437
.132
.436
-.534
.437
-.547
.436
-.774
.436
-.22
.437
.006
.436
-.038
.437
.101
.436
.176
.436
.969
.437
1.119
.436
.491
.436
.144
.437
-.314
.436
.1
.437
-.107
.436
.202
.436
.201
.437
.761
.436
.61
.437
-.019
.436
.365
.436
-.145
.437
-.063
.436
.239
h.436
l.437
.289
.436
.202
.437
.188
.436
-.125
.436
.144
.437
.063
.436
.774
.437
-.088
.436
-.214
.436
-.157
.437
.075
.436
.075
.436
.164
.437
.057
.436
-.095
.437
.032
.436
.044
.436
.012
.437
.56
.436
-.069
.437
.031
.436
-.05
.436
-.151
.437
.057
.436
.339
.436
.327
.437
.264
.436
-.012
.437
.006
.436
-.358
.436
.377
.437
-.233
.436
-.056
.437
.383
.436
.17
.436
-.277
.437
-.069
.436
-.283
.437
-.302
.436
-.226
.436
-.371
.437
-.082
.436
-.189
.436
.12
.437
-.145
.436
.227
.437
.327
.436
-.044
.436
-.032
.437
-.019
.436
.189
.437
.17
.436
.056
.436
-.062
.437
-.283
.436
-.12
.436
-.044
.437
.038
.436
.364
.437
-.062
.436
.169
.436
-.257
.437
-.057
.436
.05
.437
-.006
.436
.365
.436
.364
.437
.252
.436
.075
.436
.566
.437
-.402
.436
-.069
.437
.012
.436
-.031
.436
-.478
.437
-.195
.436
-.239
.437
.019
.436
.031
.436
-.427
.437
.17
.436
.352
.436
-.302
.437
-.239
.436
-.208
.437
.12
.436
.126
.436
.239
.437
-.076
h.436
l.437
.327
.436
-.434
.436
-.1
.437
.025
.436
-.139
.437
-.503
.436
-.283
.436
.176
.437
-.308
.436
.378
.436
.069
.437
.082
.436
-.089
.437
.321
.436
-.113
.436
-.138
.437
-1.063
.436
-.403
.437
.082
.436
-.805
.436
-.685
.437
.119
.436
-.22
.436
.296
.437
-.453
.436
-.164
.437
-.478
h.436
l.436
-.421
.437
-.063
.436
.233
.437
-.101
.436
-.094
.436
-.409
.437
.007
.436
.377
.436
-.032
.437
-.39
.436
-.276
.437
-.227
.436
-.478
.436
-.113
.437
-.195
.436
.025
.437
-.238
.436
.974
.436
.208
.437
-.201
.436
.327
.436
-.195
.437
-.233
.436
.786
.437
-.239
.436
.245
.436
.076
.437
-.491
.436
-.201
.437
.214
.436
-.05
.436
-.34
.437
.251
.436
.271
.437
.396
.436
.572
.436
-.383
.437
-.176
.436
.383
.436
.334
.437
.333
.436
.415
.437
-.315
.436
-.056
.436
-.308
.437
.069
.436
-1.038
.437
-.899
.436
-.541
.436
-.333
.437
-.258
.436
-.799
.436
-.333
.437
-.975
.436
-.685
.437
-.547
.436
-.082" aria-label="line"/>
</svg>
