<svg class="plot-d6a7b5" fill="currentColor" font-family="system-ui, sans-serif" font-size="10" text-anchor="middle" width="830" height="470" viewBox="0 0 830 470" xmlns="http://www.w3.org/2000/svg" xmlns:xlink="http://www.w3.org/1999/xlink" color="#1e90ff"><style>:where(.plot-d6a7b5){--plot-background: white;display:block;height:intrinsic;max-width:100%}:where(.plot-d6a7b5 text),:where(.plot-d6a7b5 tspan){white-space:pre}</style><g aria-label="y-grid" stroke="currentColor" stroke-opacity=".1"><line x1="60" x2="770" y1="410" y2="410"/><line x1="60" x2="770" y1="360.939" y2="360.939"/><line x1="60" x2="770" y1="311.878" y2="311.878"/><line x1="60" x2="770" y1="262.817" y2="262.817"/><line x1="60" x2="770" y1="213.757" y2="213.757"/><line x1="60" x2="770" y1="164.696" y2="164.696"/><line x1="60" x2="770" y1="115.635" y2="115.635"/><line x1="60" x2="770" y1="66.574" y2="66.574"/></g><g aria-label="y-axis tick" fill="none" stroke="currentColor"><path transform="translate(60,410)" d="M0,0L-6,0"/><path transform="translate(60,360.9391645640594)" d="M0,0L-6,0"/><path transform="translate(60,311.8783291281189)" d="M0,0L-6,0"/><path transform="translate(60,262.8174936921783)" d="M0,0L-6,0"/><path transform="translate(60,213.7566582562377)" d="M0,0L-6,0"/><path transform="translate(60,164.69582282029717)" d="M0,0L-6,0"/><path transform="translate(60,115.6349873843566)" d="M0,0L-6,0"/><path transform="translate(60,66.57415194841604)" d="M0,0L-6,0"/></g><g aria-label="y-axis tick label" text-anchor="end" font-variant="tabular-nums"><text y=".32em" transform="translate(-9,0) translate(60,410)">0</text><text y=".32em" transform="translate(-9,0) translate(60,360.9391645640594)">1,000</text><text y=".32em" transform="translate(-9,0) translate(60,311.8783291281189)">2,000</text><text y=".32em" transform="translate(-9,0) translate(60,262.8174936921783)">3,000</text><text y=".32em" transform="translate(-9,0) translate(60,213.7566582562377)">4,000</text><text y=".32em" transform="translate(-9,0) translate(60,164.69582282029717)">5,000</text><text y=".32em" transform="translate(-9,0) translate(60,115.6349873843566)">6,000</text><text y=".32em" transform="translate(-9,0) translate(60,66.57415194841604)">7,000</text></g><g aria-label="y-axis label" text-anchor="start"><text y=".71em" transform="translate(-57,-57) translate(60,60)">↑ Visible Vestiges (4 days)</text></g><g aria-label="x-axis tick" fill="none" stroke="currentColor"><path transform="translate(109.0650406504065,410)" d="M0,0L0,6"/><path transform="translate(240.38617886178864,410)" d="M0,0L0,6"/><path transform="translate(373.1504065040651,410)" d="M0,0L0,6"/><path transform="translate(505.9146341463415,410)" d="M0,0L0,6"/><path transform="translate(637.2357723577236,410)" d="M0,0L0,6"/><path transform="translate(768.5569105691056,410)" d="M0,0L0,6"/></g><g aria-label="x-axis tick label" font-variant="tabular-nums"><text transform="translate(0,9) translate(109.0650406504065,410)"><tspan x="0" y=".71em">Apr</tspan><tspan x="0" dy="1em">2023</tspan></text><text y=".71em" transform="translate(0,9) translate(240.38617886178864,410)">Jul</text><text y=".71em" transform="translate(0,9) translate(373.1504065040651,410)">Oct</text><text transform="translate(0,9) translate(505.9146341463415,410)"><tspan x="0" y=".71em">Jan</tspan><tspan x="0" dy="1em">2024</tspan></text><text y=".71em" transform="translate(0,9) translate(637.2357723577236,410)">Apr</text><text y=".71em" transform="translate(0,9) translate(768.5569105691056,410)">Jul</text></g><g aria-label="line" fill="none" stroke="currentColor" stroke-width="1.5" stroke-linejoin="round" stroke-linecap="round"><path d="M60,410L60.962,385.371L61.924,295.296L62.886,246.726L63.848,236.913L64.81,270.177L65.772,274.003L66.734,266.497L67.696,238.434L68.659,216.013L69.621,178.237L70.583,139.626L71.545,90.369L72.507,109.65L73.469,145.66L74.431,202.669L75.393,195.015L76.355,193.445L77.317,192.906L78.279,202.227L79.241,211.5L80.203,182.996L81.165,179.12L82.127,151.989L83.089,189.815L84.051,205.22L85.014,226.905L85.976,195.948L86.938,180.395L87.9,178.089L88.862,172.398L89.824,155.718L90.786,120.05L91.748,109.601L92.71,132.463L93.672,196.683L94.634,250.013L95.596,270.765L96.558,263.21L97.52,242.555L98.482,233.038L99.444,194.623L100.407,149.978L101.369,97.041L102.331,82.862L103.293,111.808L104.255,141.343L105.217,166.756L106.179,169.111L107.141,181.131L108.103,172.595L109.065,152.136L110.027,116.665L110.989,86.689L111.951,60L112.913,86.934L113.875,122.258L114.837,160.378L115.799,147.328L116.762,133.297L117.724,116.518L118.686,104.351L119.648,106.461L120.61,106.362L121.572,107.049L122.534,95.029L123.496,125.006L124.458,147.77L125.42,175.048L126.382,172.791L127.344,182.603L128.306,202.375L129.268,199.333L130.23,182.358L131.192,158.759L132.154,141.883L133.117,161.114L134.079,182.161L135.041,219.055L136.003,234.853L136.965,250.503L137.927,249.718L138.889,224.795L139.851,202.473L140.813,178.482L141.775,176.716L142.737,168.474L143.699,188.785L144.661,212.825L145.623,207.967L146.585,205.613L147.547,211.5L148.509,247.412L149.472,255.802L150.434,231.32L151.396,208.507L152.358,194.329L153.32,192.562L154.282,221.508L155.244,245.744L156.206,262.033L157.168,240.74L158.13,245.793L159.092,248.099L160.054,252.662L161.016,215.327L161.978,195.997L162.94,185.841L163.902,211.549L164.864,223.814L165.827,231.32L166.789,235.638L167.751,238.483L168.713,248.05L169.675,248.345L170.637,235.834L171.599,235.785L172.561,227.69L173.523,239.955L174.485,253.496L175.447,267.527L176.409,274.151L177.371,266.154L178.333,265.712L179.295,267.086L180.257,259.334L181.22,217.829L182.182,195.212L183.144,179.757L184.106,216.897L185.068,223.618L186.03,247.412L186.992,243.438L187.954,262.327L188.916,246.578L189.878,241.623L190.84,218.025L191.802,203.454L192.764,196.34L193.726,200.314L194.688,230.486L195.65,232.105L196.612,239.857L197.575,249.865L198.537,249.718L199.499,261.297L200.461,259.579L201.423,278.174L202.385,273.464L203.347,263.799L204.309,265.761L205.271,263.21L206.233,262.719L207.195,262.817L208.157,267.969L209.119,285.042L210.081,277.438L211.043,269.637L212.005,263.014L212.967,259.825L213.93,265.123L214.892,263.063L215.854,273.366L216.816,272.384L217.778,264.191L218.74,257.813L219.702,261.64L220.664,269.833L221.626,270.569L222.588,274.396L223.55,265.123L224.512,267.675L225.474,255.262L226.436,262.916L227.398,264.093L228.36,284.993L229.322,288.82L230.285,293.824L231.247,272.875L232.209,265.271L233.171,260.414L234.133,258.647L235.095,260.953L236.057,256.292L237.019,262.278L237.981,245.744L238.943,237.649L239.905,247.952L240.867,265.859L241.829,276.26L242.791,281.068L243.753,283.766L244.715,298.534L245.678,288.28L246.64,291.665L247.602,280.381L248.564,284.404L249.526,276.604L250.488,280.283L251.45,278.615L252.412,282.442L253.374,276.751L254.336,276.996L255.298,272.679L256.26,283.325L257.222,279.4L258.184,283.963L259.146,277.928L260.108,271.109L261.07,268.263L262.033,262.572L262.995,269.49L263.957,277.29L264.919,270.373L265.881,268.165L266.843,274.445L267.805,286.514L268.767,296.817L269.729,281.804L270.691,289.458L271.653,282.687L272.615,288.771L273.577,284.306L274.539,276.015L275.501,262.082L276.463,253.643L277.425,272.826L278.388,271.452L279.35,271.599L280.312,257.617L281.274,263.161L282.236,270.716L283.198,270.177L284.16,279.694L285.122,269.637L286.084,269.244L287.046,254.87L288.008,255.704L288.97,255.556L289.932,266.791L290.894,258.255L291.856,242.653L292.818,208.605L293.78,213.266L294.743,232.105L295.705,264.486L296.667,273.905L297.629,282.246L298.591,287.152L299.553,287.299L300.515,288.476L301.477,288.133L302.439,286.416L303.401,284.11L304.363,281.313L305.325,277.536L306.287,273.071L307.249,276.407L308.211,264.24L309.173,249.964L310.136,234.706L311.098,250.16L312.06,257.666L313.022,256.881L313.984,253.594L314.946,252.269L315.908,262.817L316.87,266.546L317.832,281.559L318.794,292.303L319.756,304.372L320.718,298.436L321.68,298.239L322.642,287.25L323.604,282.785L324.566,285.876L325.528,287.888L326.491,292.941L327.453,294.118L328.415,296.964L329.377,299.466L330.339,300.791L331.301,300.594L332.263,291.322L333.225,278.762L334.187,281.755L335.149,284.944L336.111,294.609L337.073,300.692L338.035,307.512L338.997,314.822L339.959,324.242L340.921,331.208L341.883,307.463L342.846,288.329L343.808,276.26L344.77,283.08L345.732,301.576L346.694,310.505L347.656,334.25L348.618,334.103L349.58,330.227L350.542,324.094L351.504,307.806L352.466,300.496L353.428,270.373L354.39,254.575L355.352,265.32L356.314,289.556L357.276,316.294L358.238,312.909L359.201,314.626L360.163,308.101L361.125,313.792L362.087,310.308L363.049,299.073L364.011,292.597L364.973,288.329L365.935,309.965L366.897,320.415L367.859,335.182L368.821,329.687L369.783,326.94L370.745,315.999L371.707,310.161L372.669,300.496L373.631,294.315L374.593,293.137L375.556,309.229L376.518,321.592L377.48,331.306L378.442,327.087L379.404,332.827L380.366,329.982L381.328,320.268L382.29,306.285L383.252,288.771L384.214,275.377L385.176,270.373L386.138,281.706L387.1,301.379L388.062,316.588L389.024,323.8L389.986,320.611L390.949,313.595L391.911,314.282L392.873,318.845L393.835,303.047L394.797,282.246L395.759,277.977L396.721,303.293L397.683,329.05L398.645,341.168L399.607,335.231L400.569,332.974L401.531,326.253L402.493,316.049L403.455,290.144L404.417,276.555L405.379,272.139L406.341,295.1L407.304,307.855L408.266,316.196L409.228,315.656L410.19,314.233L411.152,319.483L412.114,307.316L413.076,308.052L414.038,303.195L415,315.803L415.962,323.751L416.924,328.412L417.886,330.325L418.848,332.484L419.81,346.81L420.772,348.38L421.734,324.291L422.696,300.938L423.659,277.83L424.621,286.121L425.583,301.821L426.545,330.571L427.507,334.741L428.469,333.858L429.431,334.299L430.393,342.983L431.355,343.375L432.317,341.756L433.279,333.71L434.241,336.163L435.203,329.442L436.165,338.911L437.127,344.504L438.089,357.603L439.051,357.063L440.014,356.72L440.976,353.531L441.938,360.203L442.9,346.761L443.862,326.351L444.824,301.526L445.786,303.096L446.748,312.32L447.71,331.012L448.672,339.058L449.634,349.165L450.596,342.198L451.558,334.839L452.52,323.555L453.482,322.525L454.444,320.17L455.407,322.083L456.369,321.396L457.331,328.412L458.293,330.08L459.255,327.627L460.217,316.441L461.179,316.588L462.141,321.494L463.103,338.567L464.065,335.28L465.027,330.914L465.989,324.83L466.951,335.133L467.913,351.618L468.875,355.935L469.837,351.765L470.799,345.927L471.762,351.618L472.724,354.12L473.686,355.837L474.648,352.354L475.61,349.802L476.572,352.599L477.534,348.281L478.496,343.523L479.458,344.258L480.42,355.641L481.382,369.034L482.344,366.091L483.306,355.248L484.268,340.775L485.23,335.133L486.192,343.768L487.154,351.961L488.117,347.742L489.079,347.496L490.041,353.04L491.003,361.037L491.965,353.089L492.927,349.999L493.889,345.779L494.851,338.518L495.813,327.725L496.775,334.005L497.737,346.025L498.699,344.847L499.661,336.213L500.623,328.951L501.585,335.378L502.547,333.073L503.509,333.024L504.472,332.631L505.434,336.409L506.396,338.813L507.358,338.42L508.32,338.616L509.282,332.582L510.244,335.918L511.206,341.707L512.168,342.787L513.13,351.274L514.092,347.251L515.054,347.938L516.016,343.032L516.978,343.572L517.94,351.421L518.902,353.433L519.864,357.701L520.827,366.483L521.789,369.966L522.751,364.472L523.713,351.814L524.675,337.292L525.637,326.548L526.599,317.177L527.561,325.615L528.523,336.507L529.485,353.973L530.447,344.16L531.409,334.397L532.371,331.454L533.333,342.051L534.295,345.632L535.257,336.507L536.22,308.689L537.182,307.561L538.144,305.5L539.106,330.08L540.068,339.598L541.03,349.214L541.992,358.29L542.954,360.988L543.916,346.859L544.878,315.411L545.84,299.907L546.802,295.345L547.764,313.399L548.726,323.849L549.688,342.149L550.65,342.002L551.612,341.854L552.575,334.25L553.537,339.058L554.499,327.627L555.461,312.271L556.423,298.141L557.385,305.893L558.347,317.569L559.309,327.038L560.271,333.661L561.233,332.68L562.195,326.94L563.157,311.486L564.119,315.705L565.081,307.463L566.043,290.095L567.005,267.871L567.967,275.77L568.93,294.952L569.892,304.323L570.854,303.342L571.816,311.339L572.778,326.891L573.74,332.533L574.702,330.276L575.664,319.434L576.626,309.131L577.588,319.728L578.55,328.608L579.512,336.948L580.474,320.366L581.436,321.2L582.398,329.835L583.36,334.005L584.322,324.389L585.285,305.549L586.247,307.708L587.209,309.916L588.171,328.019L589.133,328.412L590.095,338.911L591.057,340.039L592.019,343.179L592.981,342.492L593.943,337.979L594.905,336.605L595.867,322.868L596.829,321.887L597.791,324.536L598.753,348.576L599.715,355.248L600.678,352.991L601.64,350.146L602.602,354.169L603.564,360.596L604.526,347.546L605.488,339.058L606.45,338.764L607.412,341.02L608.374,340.186L609.336,347.006L610.298,359.664L611.26,356.426L612.222,346.81L613.184,339.941L614.146,337.194L615.108,329.344L616.07,313.743L617.033,313.105L617.995,321.396L618.957,359.516L619.919,387.825L620.881,406.124L621.843,409.166L622.805,409.215L623.767,408.97L624.729,408.724L625.691,406.86L626.653,405.634L627.615,405.094L628.577,404.652L629.539,401.954L630.501,399.943L631.463,398.667L632.425,395.38L633.388,388.168L634.35,366.287L635.312,356.475L636.274,350.391L637.236,361.479L638.198,364.913L639.16,365.158L640.122,359.418L641.084,355.101L642.046,349.459L643.008,347.349L643.97,345.73L644.932,343.179L645.894,347.251L646.856,353.089L647.818,356.916L648.78,353.482L649.743,358.094L650.705,364.275L651.667,365.06L652.629,362.656L653.591,364.472L654.553,367.072L655.515,364.226L656.477,355.15L657.439,355.592L658.401,359.565L659.363,364.717L660.325,368.544L661.287,365.845L662.249,372.91L663.211,375.559L664.173,382.133L665.136,379.043L666.098,377.522L667.06,367.759L668.022,356.622L668.984,354.856L669.946,361.871L670.908,364.717L671.87,363.883L672.832,359.271L673.794,365.06L674.756,360.056L675.718,360.007L676.68,354.954L677.642,362.068L678.604,365.894L679.566,369.77L680.528,365.551L681.491,357.456L682.453,361.43L683.415,362.656L684.377,367.072L685.339,361.381L686.301,352.697L687.263,347.889L688.225,341.266L689.187,353.089L690.149,360.105L691.111,367.906L692.073,364.864L693.035,362.902L693.997,360.841L694.959,356.18L695.921,356.867L696.883,351.765L697.846,351.912L698.808,348.085L699.77,347.153L700.732,353.973L701.694,360.056L702.656,376.099L703.618,378.258L704.58,373.989L705.542,366.091L706.504,343.228L707.466,341.168L708.428,331.306L709.39,353.776L710.352,359.026L711.314,370.555L712.276,360.89L713.238,365.453L714.201,364.177L715.163,368.445L716.125,359.86L717.087,351.47L718.049,338.911L719.011,339.156L719.973,337.096L720.935,355.199L721.897,354.561L722.859,351.421L723.821,341.953L724.783,343.572L725.745,349.312L726.707,345.338L727.669,346.319L728.631,338.616L729.593,349.999L730.556,349.508L731.518,360.449L732.48,353.335L733.442,353.089L734.404,349.655L735.366,352.206L736.328,347.055L737.29,342.198L738.252,332.19L739.214,331.11L740.176,340.186L741.138,342.541L742.1,347.447L743.062,351.029L744.024,362.803L744.986,357.652L745.949,355.935L746.911,351.372L747.873,354.561L748.835,353.678L749.797,351.716L750.759,363.098L751.721,372.223L752.683,378.405L753.645,373.008L754.607,354.414L755.569,352.942L756.531,353.188L757.493,366.189L758.455,349.655L759.417,349.999L760.379,348.772L761.341,359.32L762.304,353.629L763.266,359.222L764.228,367.072L765.19,374.922L766.152,373.548L767.114,373.989L768.076,368.298L769.038,353.825L770,349.312"/></g></svg>