<svg xmlns="http://www.w3.org/2000/svg" width="830" height="470" fill="currentColor" class="plot-d6a7b5" font-family="system-ui, sans-serif" font-size="10" style="--plot-background:white;display:block;height:intrinsic;max-width:100%;color:#1e90ff" text-anchor="middle" viewBox="0 0 830 470">
    <style>
        :where(.plot-d6a7b5 text),:where(.plot-d6a7b5 tspan){white-space:pre}
    </style>
    <path stroke="currentColor" stroke-opacity=".1" d="
M60
410
h710
M60
384.964
h710
M60
359.929
h710
M60
334.893
h710
M60
309.858
h710
M60
284.822
h710
M60
259.786
h710
M60
234.751
h710
M60
209.715
h710
M60
184.679
h710
M60
159.644
h710
M60
134.608
h710
M60
109.573
h710
M60
84.537
h710" aria-hidden="true" aria-label="y-grid"/>
    <path fill="none" stroke="currentColor" d="
M60
410
h-6
m6
-25.036
h-6
m6
-25.035
h-6
m6
-25.036
h-6
m6
-25.035
h-6
m6
-25.036
h-6
m6
-25.036
h-6
m6
-25.036
h-6
m6
-25.035
h-6
m6
-25.035
h-6
m6
-25.036
h-6
m6
-25.036
h-6
m6
-25.035
h-6
m6
-25.036
h-6" aria-hidden="true" aria-label="y-axis tick"/>
    <g aria-label="y-axis tick label" font-variant="tabular-nums" text-anchor="end">
        <text y=".32em" transform="translate(51 410)">0</text>
        <text y=".32em" transform="translate(51 384.964)">50,000</text>
        <text y=".32em" transform="translate(51 359.929)">100,000</text>
        <text y=".32em" transform="translate(51 334.893)">150,000</text>
        <text y=".32em" transform="translate(51 309.858)">200,000</text>
        <text y=".32em" transform="translate(51 284.822)">250,000</text>
        <text y=".32em" transform="translate(51 259.786)">300,000</text>
        <text y=".32em" transform="translate(51 234.75)">350,000</text>
        <text y=".32em" transform="translate(51 209.715)">400,000</text>
        <text y=".32em" transform="translate(51 184.68)">450,000</text>
        <text y=".32em" transform="translate(51 159.644)">500,000</text>
        <text y=".32em" transform="translate(51 134.608)">550,000</text>
        <text y=".32em" transform="translate(51 109.573)">600,000</text>
        <text y=".32em" transform="translate(51 84.537)">650,000</text>
    </g>
    <text y=".71em" aria-label="y-axis label" text-anchor="start" transform="translate(3 3)">↑ Total Vestiges</text>
    <path fill="none" stroke="currentColor" d="
M83.407
410
v6
m62.647
-6
v6
m63.336
-6
v6
m63.335
-6
v6
m62.647
-6
v6
m62.647
-6
v6
m63.335
-6
v6
m63.336
-6
v6
m61.958
-6
v6
m62.647
-6
v6
m63.335
-6
v6" aria-hidden="true" aria-label="x-axis tick"/>
    <g aria-label="x-axis tick label" font-variant="tabular-nums">
        <text transform="translate(83.407 419)"><tspan x="0" y=".71em">Apr</tspan><tspan x="0" dy="1em">2023</tspan></text>
        <text y=".71em" transform="translate(146.054 419)">Jul</text>
        <text y=".71em" transform="translate(209.39 419)">Oct</text>
        <text transform="translate(272.725 419)"><tspan x="0" y=".71em">Jan</tspan><tspan x="0" dy="1em">2024</tspan></text>
        <text y=".71em" transform="translate(335.372 419)">Apr</text>
        <text y=".71em" transform="translate(398.019 419)">Jul</text>
        <text y=".71em" transform="translate(461.354 419)">Oct</text>
        <text transform="translate(524.69 419)"><tspan x="0" y=".71em">Jan</tspan><tspan x="0" dy="1em">2025</tspan></text>
        <text y=".71em" transform="translate(586.648 419)">Apr</text>
        <text y=".71em" transform="translate(649.295 419)">Jul</text>
        <text y=".71em" transform="translate(712.63 419)">Oct</text>
    </g>
    <path fill="none" stroke="currentColor" stroke-linecap="round" stroke-linejoin="round" stroke-width="1.5" d="
m60
410
.459
-.251
.459
-.92
.459
-.495
.459
-.352
.459
-.58
.459
-.456
.459
-.428
.459
-.867
.459
-.685
.459
-.814
.458
-1.26
.459
-1.188
.459
-.617
.459
-.893
.459
-.606
.459
-.695
.459
-.909
.459
-.612
.459
-.6
.459
-.814
.459
-.903
.459
-.639
.459
-1.091
.459
-.517
.459
-.482
.459
-.87
.459
-.833
.459
-.64
.459
-.894
.459
-.891
.459
-.811
.458
-1.257
.459
-.997
.459
-.578
.459
-.602
.459
-.453
.459
-.366
.459
-.679
.459
-.664
.459
-.463
.459
-1.071
.459
-1.12
.459
-1.003
.459
-1.216
.459
-.824
.459
-.702
.459
-.957
.459
-.8
.459
-.579
.459
-1.044
.459
-1.008
.459
-.942
.458
-1.349
.459
-1.282
.459
-.666
.459
-.989
.459
-.892
.459
-.8
.459
-1.132
.459
-1.063
.459
-.924
.459
-1.111
.459
-1.064
.459
-.917
.459
-1.233
.459
-.759
.459
-.684
.459
-.955
.459
-.782
.459
-.584
.459
-.753
.459
-.813
.459
-.758
.459
-.993
.458
-.985
.459
-.562
.459
-.779
.459
-.608
.459
-.4
.459
-.62
.459
-.616
.459
-.654
.459
-.848
.459
-.861
.459
-.672
.459
-.932
.459
-.654
.459
-.427
.459
-.981
.459
-.678
.459
-.367
.459
-.614
.459
-.592
.459
-.617
.459
-.847
.458
-.737
.459
-.635
.459
-.552
.459
-.49
.459
-.468
.459
-.77
.459
-.438
.459
-.445
.459
-.722
.459
-.82
.459
-.642
.459
-.826
.459
-.557
.459
-.517
.459
-.75
.459
-.512
.459
-.489
.459
-.652
.459
-.509
.459
-.616
.459
-.653
.458
-.592
.459
-.491
.459
-.514
.459
-.449
.459
-.423
.459
-.596
.459
-.454
.459
-.409
.459
-.675
.459
-.877
.459
-.64
.459
-.832
.459
-.499
.459
-.571
.459
-.59
.459
-.539
.459
-.378
.459
-.751
.459
-.589
.459
-.619
.459
-.9
.458
-.662
.459
-.578
.459
-.592
.459
-.645
.459
-.5
.459
-.489
.459
-.647
.459
-.382
.459
-.506
.459
-.457
.459
-.43
.459
-.605
.459
-.438
.459
-.455
.459
-.611
.459
-.436
.459
-.403
.459
-.436
.459
-.514
.459
-.482
.459
-.504
.458
-.546
.459
-.429
.459
-.525
.459
-.441
.459
-.438
.459
-.609
.459
-.506
.459
-.4
.459
-.524
.459
-.499
.459
-.361
.459
-.619
.459
-.473
.459
-.487
.459
-.541
.459
-.461
.459
-.274
.459
-.502
.459
-.409
.459
-.488
.459
-.58
.459
-.459
.458
-.506
.459
-.556
.459
-.507
.459
-.444
.459
-.725
.459
-.59
.459
-.339
.459
-.543
.459
-.483
.459
-.29
.459
-.515
.459
-.332
.459
-.395
.459
-.481
.459
-.447
.459
-.354
.459
-.56
.459
-.41
.459
-.371
.459
-.521
.459
-.468
.458
-.369
.459
-.564
.459
-.36
.459
-.408
.459
-.519
.459
-.421
.459
-.478
.459
-.547
.459
-.479
.459
-.408
.459
-.468
.459
-.549
.459
-.431
.459
-.403
.459
-.427
.459
-.325
.459
-.557
.459
-.348
.459
-.394
.459
-.495
.459
-.394
.458
-.479
.459
-.636
.459
-.481
.459
-.283
.459
-.65
.459
-.479
.459
-.426
.459
-.594
.459
-.402
.459
-.431
.459
-.497
.459
-.504
.459
-.435
.459
-.644
.459
-.496
.459
-.437
.459
-.529
.459
-.583
.459
-.595
.459
-.877
.459
-.536
.458
-.403
.459
-.546
.459
-.439
.459
-.319
.459
-.496
.459
-.438
.459
-.306
.459
-.5
.459
-.455
.459
-.33
.459
-.528
.459
-.494
.459
-.376
.459
-.494
.459
-.618
.459
-.521
.459
-.65
.459
-.46
.459
-.445
.459
-.657
.459
-.494
.458
-.458
.459
-.551
.459
-.455
.459
-.305
.459
-.441
.459
-.332
.459
-.366
.459
-.442
.459
-.445
.459
-.411
.459
-.411
.459
-.424
.459
-.36
.459
-.399
.459
-.395
.459
-.334
.459
-.386
.459
-.397
.459
-.428
.459
-.514
.459
-.366
.459
-.397
.458
-.415
.459
-.304
.459
-.327
.459
-.34
.459
-.208
.459
-.256
.459
-.582
.459
-.404
.459
-.379
.459
-.513
.459
-.215
.459
-.287
.459
-.271
.459
-.216
.459
-.327
.459
-.334
.459
-.382
.459
-.402
.459
-.641
.459
-.543
.459
-.292
.458
-.394
.459
-.271
.459
-.326
.459
-.376
.459
-.338
.459
-.268
.459
-.412
.459
-.452
.459
-.334
.459
-.456
.459
-.231
.459
-.228
.459
-.304
.459
-.288
.459
-.255
.459
-.417
.459
-.346
.459
-.355
.459
-.479
.459
-.359
.459
-.19
.458
-.353
.459
-.26
.459
-.234
.459
-.294
.459
-.289
.459
-.332
.459
-.438
.459
-.467
.459
-.469
.459
-.489
.459
-.352
.459
-.268
.459
-.333
.459
-.278
.459
-.301
.459
-.405
.459
-.271
.459
-.255
.459
-.565
.459
-.484
.459
-.298
.458
-.307
.459
-.221
.459
-.175
.459
-.368
.459
-.243
.459
-.243
.459
-.472
.459
-.509
.459
-.381
.459
-.517
.459
-.274
.459
-.252
.459
-.432
.459
-.279
.459
-.266
.459
-.379
.459
-.403
.459
-.259
.459
-.428
.459
-.275
.459
-.177
.458
-.38
.459
-.256
.459
-.155
.459
-.234
.459
-.24
.459
-.401
.459
-.472
.459
-.476
.459
-.316
.459
-.312
.459
-.182
.459
-.274
.459
-.322
.459
-.177
.459
-.185
.459
-.317
.459
-.194
.459
-.268
.459
-.292
.459
-.262
.459
-.171
.459
-.236
.458
-.128
.459
-.176
.459
-.239
.459
-.162
.459
-.108
.459
-.376
.459
-.369
.459
-.362
.459
-.36
.459
-.275
.459
-.171
.459
-.278
.459
-.172
.459
-.242
.459
-.353
.459
-.287
.459
-.253
.459
-.377
.459
-.268
.459
-.259
.459
-.305
.458
-.251
.459
-.285
.459
-.419
.459
-.25
.459
-.234
.459
-.245
.459
-.283
.459
-.279
.459
-.307
.459
-.178
.459
-.111
.459
-.263
.459
-.221
.459
-.17
.459
-.205
.459
-.195
.459
-.153
.459
-.24
.459
-.221
.459
-.124
.459
-.285
.458
-.27
.459
-.116
.459
-.169
.459
-.133
.459
-.147
.459
-.279
.459
-.28
.459
-.205
.459
-.191
.459
-.197
.459
-.247
.459
-.194
.459
-.14
.459
-.166
.459
-.275
.459
-.171
.459
-.209
.459
-.349
.459
-.282
.459
-.145
.459
-.226
.458
-.294
.459
-.233
.459
-.3
.459
-.229
.459
-.256
.459
-.301
.459
-.232
.459
-.218
.459
-.276
.459
-.237
.459
-.216
.459
-.338
.459
-.202
.459
-.157
.459
-.327
.459
-.115
.459
-.198
.459
-.32
.459
-.166
.459
-.192
.459
-.24
.458
-.145
.459
-.149
.459
-.15
.459
-.11
.459
-.204
.459
-.28
.459
-.258
.459
-.314
.459
-.375
.459
-.172
.459
-.203
.459
-.197
.459
-.272
.459
-.303
.459
-.227
.459
-.163
.459
-.267
.459
-.32
.459
-.447
.459
-.278
.459
-.341
.459
-.197
.458
-.181
.459
-.243
.459
-.104
.459
-.153
.459
-.387
.459
-.425
.459
-.312
.459
-.433
.459
-.241
.459
-.205
.459
-.247
.459
-.242
.459
-.206
.459
-.325
.459
-.193
.459
-.323
.459
-.481
.459
-.338
.459
-.243
.459
-.362
.459
-.241
.458
-.177
.459
-.372
.459
-.299
.459
-.334
.459
-.329
.459
-.384
.459
-.511
.459
-.556
.459
-.302
.459
-.316
.459
-.46
.459
-.313
.459
-.234
.459
-.301
.459
-.256
.459
-.256
.459
-.413
.459
-.36
.459
-.149
.459
-.321
.459
-.276
.458
-.318
.459
-.313
.459
-.187
.459
-.275
.459
-.411
.459
-.38
.459
-.253
.459
-.389
.459
-.195
.459
-.249
.459
-.281
.459
-.184
.459
-.217
.459
-.288
.459
-.23
.459
-.231
.459
-.429
.459
-.239
.459
-.204
.459
-.183
.459
-.172
.458
-.227
.459
-.212
.459
-.13
.459
-.162
.459
-.346
.459
-.217
.459
-.164
.459
-.323
.459
-.225
.459
-.095
.459
-.193
.459
-.259
.459
-.193
.459
-.263
.459
-.287
.459
-.273
.459
-.423
.459
-.293
.459
-.189
.459
-.033
.459
-.004
.458
-.002
.459
-.003
.459
-.003
.459
-.005
.459
-.005
.459
-.022
.459
-.017
.459
-.011
.459
-.027
.459
-.044
.459
-.031
.459
-.04
.459
-.078
.459
-.105
.459
-.264
.459
-.178
.459
-.167
.459
-.15
.459
-.143
.459
-.164
.459
-.209
.458
-.187
.459
-.222
.459
-.23
.459
-.204
.459
-.248
.459
-.189
.459
-.144
.459
-.209
.459
-.224
.459
-.097
.459
-.145
.459
-.216
.459
-.122
.459
-.127
.459
-.189
.459
-.151
.459
-.22
.459
-.185
.459
-.11
.459
-.167
.459
-.146
.459
-.137
.458
-.096
.459
-.118
.459
-.071
.459
-.127
.459
-.134
.459
-.17
.459
-.24
.459
-.153
.459
-.098
.459
-.211
.459
-.161
.459
-.146
.459
-.152
.459
-.212
.459
-.146
.459
-.204
.459
-.139
.459
-.107
.459
-.165
.459
-.182
.459
-.19
.458
-.123
.459
-.17
.459
-.145
.459
-.181
.459
-.259
.459
-.194
.459
-.249
.459
-.138
.459
-.122
.459
-.17
.459
-.168
.459
-.142
.459
-.191
.459
-.217
.459
-.135
.459
-.243
.459
-.214
.459
-.175
.459
-.252
.459
-.145
.459
-.112
.458
-.089
.459
-.123
.459
-.156
.459
-.169
.459
-.357
.459
-.176
.459
-.27
.459
-.127
.459
-.124
.459
-.152
.459
-.226
.459
-.076
.459
-.166
.459
-.182
.459
-.164
.459
-.251
.459
-.31
.459
-.162
.459
-.272
.459
-.126
.459
-.168
.458
-.304
.459
-.222
.459
-.152
.459
-.245
.459
-.263
.459
-.142
.459
-.324
.459
-.146
.459
-.147
.459
-.212
.459
-.22
.459
-.149
.459
-.247
.459
-.194
.459
-.201
.459
-.297
.459
-.296
.459
-.213
.459
-.204
.459
-.271
.459
-.163
.458
-.168
.459
-.151
.459
-.215
.459
-.185
.459
-.198
.459
-.183
.459
-.194
.459
-.218
.459
-.067
.459
-.101
.459
-.155
.459
-.121
.459
-.291
.459
-.17
.459
-.119
.459
-.158
.459
-.339
.459
-.115
.459
-.171
.459
-.231
.459
-.174
.459
-.113
.458
-.151
.459
-.094
.459
-.127
.459
-.147
.459
-.151
.459
-.276
.459
-.192
.459
-.131
.459
-.241
.459
-.173
.459
-.176
.459
-.131
.459
-.132
.459
-.099
.459
-.168
.459
-.189
.459
-.082
.459
-.112
.459
-.122
.459
-.114
.459
-.135
.458
-.161
.459
-.177
.459
-.191
.459
-.105
.459
-.112
.459
-.181
.459
-.159
.459
-.101
.459
-.18
.459
-.167
.459
-.132
.459
-.157
.459
-.165
.459
-.177
.459
-.242
.459
-.331
.459
-.207
.459
-.22
.459
-.151
.459
-.146
.459
-.202
.458
-.141
.459
-.11
.459
-.135
.459
-.141
.459
-.155
.459
-.166
.459
-.235
.459
-.169
.459
-.27
.459
-.255
.459
-.26
.459
-.264
.459
-.234
.459
-.269
.459
-.289
.459
-.146
.459
-.19
.459
-.345
.459
-.18
.459
-.163
.459
-.224
.458
-.155
.459
-.08
.459
-.464
.459
-.402
.459
-.4
.459
-.429
.459
-.346
.459
-.25
.459
-.389
.459
-.409
.459
-.251
.459
-.238
.459
-.288
.459
-.264
.459
-.295
.459
-.326
.459
-.215
.459
-.132
.459
-.242
.459
-.137
.459
-.146
.458
-.191
.459
-.181
.459
-.21
.459
-.254
.459
-.254
.459
-.195
.459
-.198
.459
-.174
.459
-.154
.459
-.106
.459
-.079
.459
-.091
.459
-.116
.459
-.135
.459
-.095
.459
-.152
.459
-.103
.459
-.12
.459
-.106
.459
-.132
.459
-.108
.459
-.193
.458
-.139
.459
-.153
.459
-.117
.459
-.175
.459
-.181
.459
-.161
.459
-.122
.459
-.15
.459
-.111
.459
-.126
.459
-.083
.459
-.102
.459
-.111
.459
-.093
.459
-.162
.459
-.132
.459
-.114
.459
-.114
.459
-.136
.459
-.12
.459
-.154
.458
-.099
.459
-.176
.459
-.236
.459
-.226
.459
-.314
.459
-.136
.459
-.155
.459
-.162
.459
-.101
.459
-.169
.459
-.169
.459
-.168
.459
-.222
.459
-.391
.459
-.173
.459
-.113
.459
-.241
.459
-.145
.459
-.079
.459
-.16
.459
-.135
.458
-.105
.459
-.187
.459
-.211
.459
-.208
.459
-.294
.459
-.114
.459
-.1
.459
-.143
.459
-.127
.459
-.071
.459
-.086
.459
-.128
.459
-.064
.459
-.12
.459
-.108
.459
-.081
.459
-.1
.459
-.061
.459
-.099
.459
-.143
.459
-.121
.458
-.091
.459
-.186
.459
-.148
.459
-.132
.459
-.195
.459
-.056
.459
-.072
.459
-.128
.459
-.076
.459
-.081
.459
-.101
.459
-.065
.459
-.078
.459
-.187
.459
-.115
.459
-.042
.459
-.05
.459
-.072
.459
-.104
.459
-.101
.459
-.153
.458
-.081
.459
-.167
.459
-.234
.459
-.172
.459
-.256
.459
-.183
.459
-.116
.459
-.111
.459
-.11
.459
-.128
.459
-.099
.459
-.085
.459
-.15
.459
-.148
.459
-.161
.459
-.085
.459
-.149
.459
-.06
.459
-.073
.459
-.146
.459
-.094
.459
-.095
.458
-.108
.459
-.137
.459
-.125
.459
-.134
.459
-.08
.459
-.111
.459
-.13
.459
-.115
.459
-.108
.459
-.145
.459
-.102
.459
-.117
.459
-.18
.459
-.179
.459
-.071
.459
-.101
.459
-.116
.459
-.076
.459
-.104
.459
-.082
.459
-.043
.458
-.101
.459
-.051
.459
-.027
.459
-.07
.459
-.096
.459
-.05
.459
-.056
.459
-.106
.459
-.167
.459
-.109
.459
-.154
.459
-.061
.459
-.087
.459
-.068
.459
-.094
.459
-.093
.459
-.049
.459
-.068
.459
-.115
.459
-.09
.459
-.084
.458
-.153
.459
-.152
.459
-.08
.459
-.144
.459
-.08
.459
-.144
.459
-.108
.459
-.052
.459
-.064
.459
-.107
.459
-.087
.459
-.098
.459
-.176
.459
-.053
.459
-.129
.459
-.106
.459
-.085
.459
-.067
.459
-.084
.459
-.062
.459
-.081
.458
-.088
.459
-.139
.459
-.115
.459
-.24
.459
-.172
.459
-.137
.459
-.163
.459
-.122
.459
-.114
.459
-.195
.459
-.202
.459
-.106
.459
-.184
.459
-.111
.459
-.067
.459
-.126
.459
-.087
.459
-.095
.459
-.066
.459
-.139
.459
-.085
.458
-.1
.459
-.095
.459
-.113
.459
-.08
.459
-.091
.459
-.081
.459
-.092
.459
-.133
.459
-.098
.459
-.171
.459
-.104
.459
-.108
.459
-.135
.459
-.13
.459
-.14
.459
-.152
.459
-.107
.459
-.064
.459
-.132
.459
-.113
.459
-.101
.458
-.131
.459
-.148
.459
-.209
.459
-.265
.459
-.19
.459
-.103
.459
-.115
.459
-.088
.459
-.101
.459
-.142
.459
-.09
.459
-.073
.459
-.189
.459
-.165
.459
-.082
.459
-.145
.459
-.119
.459
-.111
.459
-.12
.459
-.16
.459
-.189
.459
-.123
.458
-.122
.459
-.085
.459
-.103
.459
-.091
.459
-.04
.459
-.176
.459
-.076
.459
-.123
.459
-.157
.459
-.13
.459
-.183
.459
-.173
.459
-.12
.459
-.119
.459
-.196
.459
-.101
.459
-.106
.459
-.175
.459
-.11
.459
-.13
.459
-.18
.458
-.089
.459
-.097
.459
-.155
.459
-.104
.459
-.192
.459
-.105
.459
-.179
.459
-.153
.459
-.096
.459
-.088
.459
-.12
.459
-.234
.459
-.226
.459
-.147
.459
-.197
.459
-.125
.459
-.149
.459
-.224
.459
-.171
.459
-.146
.459
-.148
.458
-.099
.459
-.124
.459
-.115
.459
-.129
.459
-.115
.459
-.134
.459
-.105
.459
-.123
.459
-.184
.459
-.139
.459
-.086
.459
-.083
.459
-.101
.459
-.098
.459
-.094
.459
-.064
.459
-.068
.459
-.111
.459
-.058
.459
-.072
.459
-.103
.458
-.101
.459
-.087
.459
-.139
.459
-.071
.459
-.116
.459
-.075
.459
-.151
.459
-.068
.459
-.125
.459
-.048
.459
-.059
.459
-.166
.459
-.088
.459
-.101
.459
-.047
.459
-.07
.459
-.119
.459
-.074
.459
-.07
.459
-.025
.459
-.073
.458
-.031
.459
-.069
.459
-.049
.459
-.112
.459
-.117
.459
-.111
.459
-.037
.459
-.065
.459
-.053
.459
-.034
.459
-.02
.459
-.097
.459
-.072
.459
-.082
.459
-.033
.459
-.062
.459
-.058
.459
-.095
.459
-.026
.459
-.045
.459
-.041
.459
-.087
.458
-.087
.459
-.063
.459
-.054
.459
-.053
.459
-.04
.459
-.036
.459
-.019
.459
-.019
.459
-.039
.459
-.063
.459
-.011
.459
-.034
.459
-.014
.459
-.028
.459
-.017
.459
-.015
.459
-.018
.459
-.013
.459
-.008
.459
-.028
.459
-.051
.458
-.02
.459
-.03
.459
-.002
.459
-.04
.459
-.034
.459
-.042
.459
-.024
.459
-.078
.459
-.028
.459
-.022
.459
-.028
.459
-.039
.459
-.038
.459
-.01
.459
-.009
.459
-.015
.459
-.018
.459
-.026
.459
-.04
.459
-.035
.459
-.029
.458
-.049
.459
-.062
.459
-.04
.459
-.039
.459
-.043
.459
-.013
.459
-.041
.459
-.059
.459
-.029
.459
-.074
.459
-.066
.459
-.043
.459
-.063
.459
-.027
.459
-.023
.459
-.021
.459
-.052
.459
-.087
.459
-.02
.459
-.074
.459
-.055
.458
-.029
.459
-.028
.459
-.017
.459
-.033
.459
-.039
.459
-.055
.459
-.05
.459
-.062
.459
-.049
.459
-.014
.459
-.06
.459
-.032
.459
-.022
.459
-.002
.459
-.026
.459
-.026
.459
-.035
.459
-.045
.459
-.016
.459
-.035
.459
-.017
.458
-.019
.459
-.019
.459
-.021
.459
-.018
.459
-.041
.459
-.023
.459
-.028
.459
-.069
.459
-.045
.459
-.03
.459
-.04
.459
-.061
.459
-.054
.459
-.025
.459
-.043
.459
-.053
.459
-.039
.459
-.028
.459
-.044
.459
-.071
.459
-.014
.459
-.011
.458
-.037
.459
-.07
.459
-.029
.459
-.074
.459
-.048
.459
-.03
.459
-.095
.459
-.062
.459
-.024
.459
-.062
.459
-.018
.459
-.042
.459
-.004
.459
-.031
.459
-.018
.459
-.016
.459
-.034
.459
-.028
.459
-.052
.459
-.05
.459
-.088
.458
-.033
.459
-.039
.459
-.015
.459
-.047
.459
-.041
.459
-.072
.459
-.017
.459
-.032
.459
-.057
.459
-.051
.459
-.017
.459
-.052
.459
-.04
.459
-.005
.459
-.029
.459
-.037
.459
-.051
.459
-.037
.459
-.033
.459
-.023
.459
-.061
.458
-.072
.459
-.039
.459
-.026
.459
-.071
.459
-.034
.459
-.031
.459
-.016
.459
-.027
.459
-.02
.459
-.06
.459
-.031
.459
-.015
.459
-.014
.459
-.047
.459
-.007
.459
-.041
.459
-.034
.459
-.026
.459
-.008
.459
-.001
.459
-.011
.458
-.008
.459
-.014
.459
-.031
.459
-.013
.459
-.014
.459
-.014
.459
-.012
.459
-.027
.459
-.059
.459
-.008
.459
-.039
.459
-.074
.459
-.108
.459
-.084
.459
-.022
.459
-.024
.459
-.033
.459
-.024
.459
-.019
.459
-.034
.459
-.052
.458
-.063
.459
-.031
.459
-.019
.459
-.002
.459
-.026
.459
-.064
.459
-.026
.459
-.022
.459
-.03
.459
-.027
.459
-.05
.459
-.036
.459
-.068
.459
-.003
.459
-.004
.459
-.017
.459
-.025
.459
-.001
.459
-.068
.459
-.022
.459
-.052
.459
-.06
h.458
l.459
-.003
.459
-.005
.459
-.009
.459
-.013
.459
-.015
.459
-.004
.459
-.039
.459
-.02
.459
-.018
.459
-.008
.459
-.003
.459
-.004
.459
-.001
.459
-.003
.459
-.002
.459
-.025
.459
-.039
.459
-.092
.459
-.095
.459
-.053
.458
-.014
h.459
l.459
-.036
.459
-.036
.459
-.024
.459
-.032
.459
-.08
.459
-.065
.459
-.036
.459
-.062
.459
-.031
.459
-.019
.459
-.028
.459
-.016
.459
-.044
.459
-.05
.459
-.022
.459
-.008
.459
-.05
.459
-.047
.459
-.065
.458
-.019
.459
-.002
.459
-.005
.459
-.017
.459
-.025
.459
-.015
.459
-.006
.459
-.014
.459
-.003
.459
-.025
.459
-.028
.459
-.045
.459
-.008
.459
-.016
.459
-.019
.459
-.016
.459
-.037
.459
-.033
.459
-.043
.459
-.024
.459
-.009
.458
-.016
.459
-.021
.459
-.034
.459
-.007
.459
-.018
.459
-.039
.459
-.041
.459
-.004
.459
-.026
.459
-.019
.459
-.018
.459
-.011
.459
-.019
.459
-.001
.459
-.002
.459
-.022
h.459
l.459
-.021
.459
-.027
h.459
l.459
-.014
.458
-.013
.459
-.023
.459
-.029
.459
-.033
.459
-.006
.459
-.016
.459
-.004
.459
-.01
.459
-.015
.459
-.05
.459
-.003
.459
-.026
.459
-.022
.459
-.008
.459
-.028
.459
-.026
.459
-.032
.459
-.041
.459
-.042
.459
-.029
.459
-.049
.459
-.008
.458
-.017
.459
-.012
.459
-.011
.459
-.004
.459
-.001
.459
-.003
.459
-.016
.459
-.015
.459
-.008
.459
-.015
.459
-.028
.459
-.011
.459
-.039
.459
-.013
.459
-.014
.459
-.012
.459
-.021
.459
-.008
.459
-.013
.459
-.042
.459
-.013
.458
-.024
.459
-.027
.459
-.002
.459
-.013
.459
-.021
.459
-.023
.459
-.004
.459
-.04
.459
-.022
.459
-.011
.459
-.014
.459
-.042
.459
-.016
.459
-.023
.459
-.015
.459
-.012
.459
-.042
.459
-.002
h.459
l.459
-.035
.459
-.058
.458
-.029
.459
-.004
.459
-.003
.459
-.001
.459
-.015
.459
-.012
.459
-.016
.459
-.048
.459
-.032
.459
-.024
L770
60" aria-label="line"/>
</svg>
