<svg class="plot-d6a7b5" fill="currentColor" font-family="system-ui, sans-serif" font-size="10" text-anchor="middle" width="830" height="470" viewBox="0 0 830 470" xmlns="http://www.w3.org/2000/svg" xmlns:xlink="http://www.w3.org/1999/xlink" color="#1e90ff"><style>:where(.plot-d6a7b5){--plot-background: white;display:block;height:intrinsic;max-width:100%}:where(.plot-d6a7b5 text),:where(.plot-d6a7b5 tspan){white-space:pre}</style><g aria-label="y-grid" stroke="currentColor" stroke-opacity=".1"><line x1="60" x2="770" y1="410" y2="410"/><line x1="60" x2="770" y1="360.939" y2="360.939"/><line x1="60" x2="770" y1="311.878" y2="311.878"/><line x1="60" x2="770" y1="262.817" y2="262.817"/><line x1="60" x2="770" y1="213.757" y2="213.757"/><line x1="60" x2="770" y1="164.696" y2="164.696"/><line x1="60" x2="770" y1="115.635" y2="115.635"/><line x1="60" x2="770" y1="66.574" y2="66.574"/></g><g aria-label="y-axis tick" fill="none" stroke="currentColor"><path transform="translate(60,410)" d="M0,0L-6,0"/><path transform="translate(60,360.9391645640594)" d="M0,0L-6,0"/><path transform="translate(60,311.8783291281189)" d="M0,0L-6,0"/><path transform="translate(60,262.8174936921783)" d="M0,0L-6,0"/><path transform="translate(60,213.7566582562377)" d="M0,0L-6,0"/><path transform="translate(60,164.69582282029717)" d="M0,0L-6,0"/><path transform="translate(60,115.6349873843566)" d="M0,0L-6,0"/><path transform="translate(60,66.57415194841604)" d="M0,0L-6,0"/></g><g aria-label="y-axis tick label" text-anchor="end" font-variant="tabular-nums"><text y=".32em" transform="translate(-9,0) translate(60,410)">0</text><text y=".32em" transform="translate(-9,0) translate(60,360.9391645640594)">1,000</text><text y=".32em" transform="translate(-9,0) translate(60,311.8783291281189)">2,000</text><text y=".32em" transform="translate(-9,0) translate(60,262.8174936921783)">3,000</text><text y=".32em" transform="translate(-9,0) translate(60,213.7566582562377)">4,000</text><text y=".32em" transform="translate(-9,0) translate(60,164.69582282029717)">5,000</text><text y=".32em" transform="translate(-9,0) translate(60,115.6349873843566)">6,000</text><text y=".32em" transform="translate(-9,0) translate(60,66.57415194841604)">7,000</text></g><g aria-label="y-axis label" text-anchor="start"><text y=".71em" transform="translate(-57,-57) translate(60,60)">↑ Visible Vestiges (4 days)</text></g><g aria-label="x-axis tick" fill="none" stroke="currentColor"><path transform="translate(66.08571428571429,410)" d="M0,0L0,6"/><path transform="translate(128.97142857142856,410)" d="M0,0L0,6"/><path transform="translate(189.82857142857145,410)" d="M0,0L0,6"/><path transform="translate(252.7142857142857,410)" d="M0,0L0,6"/><path transform="translate(313.57142857142856,410)" d="M0,0L0,6"/><path transform="translate(376.45714285714286,410)" d="M0,0L0,6"/><path transform="translate(439.3428571428571,410)" d="M0,0L0,6"/><path transform="translate(500.2,410)" d="M0,0L0,6"/><path transform="translate(563.0857142857142,410)" d="M0,0L0,6"/><path transform="translate(623.9428571428572,410)" d="M0,0L0,6"/><path transform="translate(686.8285714285715,410)" d="M0,0L0,6"/><path transform="translate(749.7142857142857,410)" d="M0,0L0,6"/></g><g aria-label="x-axis tick label" font-variant="tabular-nums"><text transform="translate(0,9) translate(66.08571428571429,410)"><tspan x="0" y=".71em">Mar</tspan><tspan x="0" dy="1em">2023</tspan></text><text y=".71em" transform="translate(0,9) translate(128.97142857142856,410)">Apr</text><text y=".71em" transform="translate(0,9) translate(189.82857142857145,410)">May</text><text y=".71em" transform="translate(0,9) translate(252.7142857142857,410)">Jun</text><text y=".71em" transform="translate(0,9) translate(313.57142857142856,410)">Jul</text><text y=".71em" transform="translate(0,9) translate(376.45714285714286,410)">Aug</text><text y=".71em" transform="translate(0,9) translate(439.3428571428571,410)">Sep</text><text y=".71em" transform="translate(0,9) translate(500.2,410)">Oct</text><text y=".71em" transform="translate(0,9) translate(563.0857142857142,410)">Nov</text><text y=".71em" transform="translate(0,9) translate(623.9428571428572,410)">Dec</text><text transform="translate(0,9) translate(686.8285714285715,410)"><tspan x="0" y=".71em">Jan</tspan><tspan x="0" dy="1em">2024</tspan></text><text y=".71em" transform="translate(0,9) translate(749.7142857142857,410)">Feb</text></g><g aria-label="line" fill="none" stroke="currentColor" stroke-width="1.5" stroke-linejoin="round" stroke-linecap="round"><path d="M60,410L61.352,385.371L62.705,295.296L64.057,246.726L65.41,236.913L66.762,270.177L68.114,274.003L69.467,266.497L70.819,238.434L72.171,216.013L73.524,178.237L74.876,139.626L76.229,90.369L77.581,109.65L78.933,145.66L80.286,202.669L81.638,195.015L82.99,193.445L84.343,192.906L85.695,202.227L87.048,211.5L88.4,182.996L89.752,179.12L91.105,151.989L92.457,189.815L93.81,205.22L95.162,226.905L96.514,195.948L97.867,180.395L99.219,178.089L100.571,172.398L101.924,155.718L103.276,120.05L104.629,109.601L105.981,132.463L107.333,196.683L108.686,250.013L110.038,270.765L111.39,263.21L112.743,242.555L114.095,233.038L115.448,194.623L116.8,149.978L118.152,97.041L119.505,82.862L120.857,111.808L122.21,141.343L123.562,166.756L124.914,169.111L126.267,181.131L127.619,172.595L128.971,152.136L130.324,116.665L131.676,86.689L133.029,60L134.381,86.934L135.733,122.258L137.086,160.378L138.438,147.328L139.79,133.297L141.143,116.518L142.495,104.351L143.848,106.461L145.2,106.362L146.552,107.049L147.905,95.029L149.257,125.006L150.61,147.77L151.962,175.048L153.314,172.791L154.667,182.603L156.019,202.375L157.371,199.333L158.724,182.358L160.076,158.759L161.429,141.883L162.781,161.114L164.133,182.161L165.486,219.055L166.838,234.853L168.19,250.503L169.543,249.718L170.895,224.795L172.248,202.473L173.6,178.482L174.952,176.716L176.305,168.474L177.657,188.785L179.01,212.825L180.362,207.967L181.714,205.613L183.067,211.5L184.419,247.412L185.771,255.802L187.124,231.32L188.476,208.507L189.829,194.329L191.181,192.562L192.533,221.508L193.886,245.744L195.238,262.033L196.59,240.74L197.943,245.793L199.295,248.099L200.648,252.662L202,215.327L203.352,195.997L204.705,185.841L206.057,211.549L207.41,223.814L208.762,231.32L210.114,235.638L211.467,238.483L212.819,248.05L214.171,248.345L215.524,235.834L216.876,235.785L218.229,227.69L219.581,239.955L220.933,253.496L222.286,267.527L223.638,274.151L224.99,266.154L226.343,265.712L227.695,267.086L229.048,259.334L230.4,217.829L231.752,195.212L233.105,179.757L234.457,216.897L235.81,223.618L237.162,247.412L238.514,243.438L239.867,262.327L241.219,246.578L242.571,241.623L243.924,218.025L245.276,203.454L246.629,196.34L247.981,200.314L249.333,230.486L250.686,232.105L252.038,239.857L253.39,249.865L254.743,249.718L256.095,261.297L257.448,259.579L258.8,278.174L260.152,273.464L261.505,263.799L262.857,265.761L264.21,263.21L265.562,262.719L266.914,262.817L268.267,267.969L269.619,285.042L270.971,277.438L272.324,269.637L273.676,263.014L275.029,259.825L276.381,265.123L277.733,263.063L279.086,273.366L280.438,272.384L281.79,264.191L283.143,257.813L284.495,261.64L285.848,269.833L287.2,270.569L288.552,274.396L289.905,265.123L291.257,267.675L292.61,255.262L293.962,262.916L295.314,264.093L296.667,284.993L298.019,288.82L299.371,293.824L300.724,272.875L302.076,265.271L303.429,260.414L304.781,258.647L306.133,260.953L307.486,256.292L308.838,262.278L310.19,245.744L311.543,237.649L312.895,247.952L314.248,265.859L315.6,276.26L316.952,281.068L318.305,283.766L319.657,298.534L321.01,288.28L322.362,291.665L323.714,280.381L325.067,284.404L326.419,276.604L327.771,280.283L329.124,278.615L330.476,282.442L331.829,276.751L333.181,276.996L334.533,272.679L335.886,283.325L337.238,279.4L338.59,283.963L339.943,277.928L341.295,271.109L342.648,268.263L344,262.572L345.352,269.49L346.705,277.29L348.057,270.373L349.41,268.165L350.762,274.445L352.114,286.514L353.467,296.817L354.819,281.804L356.171,289.458L357.524,282.687L358.876,288.771L360.229,284.306L361.581,276.015L362.933,262.082L364.286,253.643L365.638,272.826L366.99,271.452L368.343,271.599L369.695,257.617L371.048,263.161L372.4,270.716L373.752,270.177L375.105,279.694L376.457,269.637L377.81,269.244L379.162,254.87L380.514,255.704L381.867,255.556L383.219,266.791L384.571,258.255L385.924,242.653L387.276,208.605L388.629,213.266L389.981,232.105L391.333,264.486L392.686,273.905L394.038,282.246L395.39,287.152L396.743,287.299L398.095,288.476L399.448,288.133L400.8,286.416L402.152,284.11L403.505,281.313L404.857,277.536L406.21,273.071L407.562,276.407L408.914,264.24L410.267,249.964L411.619,234.706L412.971,250.16L414.324,257.666L415.676,256.881L417.029,253.594L418.381,252.269L419.733,262.817L421.086,266.546L422.438,281.559L423.79,292.303L425.143,304.372L426.495,298.436L427.848,298.239L429.2,287.25L430.552,282.785L431.905,285.876L433.257,287.888L434.61,292.941L435.962,294.118L437.314,296.964L438.667,299.466L440.019,300.791L441.371,300.594L442.724,291.322L444.076,278.762L445.429,281.755L446.781,284.944L448.133,294.609L449.486,300.692L450.838,307.512L452.19,314.822L453.543,324.242L454.895,331.208L456.248,307.463L457.6,288.329L458.952,276.26L460.305,283.08L461.657,301.576L463.01,310.505L464.362,334.25L465.714,334.103L467.067,330.227L468.419,324.094L469.771,307.806L471.124,300.496L472.476,270.373L473.829,254.575L475.181,265.32L476.533,289.556L477.886,316.294L479.238,312.909L480.59,314.626L481.943,308.101L483.295,313.792L484.648,310.308L486,299.073L487.352,292.597L488.705,288.329L490.057,309.965L491.41,320.415L492.762,335.182L494.114,329.687L495.467,326.94L496.819,315.999L498.171,310.161L499.524,300.496L500.876,294.315L502.229,293.137L503.581,309.229L504.933,321.592L506.286,331.306L507.638,327.087L508.99,332.827L510.343,329.982L511.695,320.268L513.048,306.285L514.4,288.771L515.752,275.377L517.105,270.373L518.457,281.706L519.81,301.379L521.162,316.588L522.514,323.8L523.867,320.611L525.219,313.595L526.571,314.282L527.924,318.845L529.276,303.047L530.629,282.246L531.981,277.977L533.333,303.293L534.686,329.05L536.038,341.168L537.39,335.231L538.743,332.974L540.095,326.253L541.448,316.049L542.8,290.144L544.152,276.555L545.505,272.139L546.857,295.1L548.21,307.855L549.562,316.196L550.914,315.656L552.267,314.233L553.619,319.483L554.971,307.316L556.324,308.052L557.676,303.195L559.029,315.803L560.381,323.751L561.733,328.412L563.086,330.325L564.438,332.484L565.79,346.81L567.143,348.38L568.495,324.291L569.848,300.938L571.2,277.83L572.552,286.121L573.905,301.821L575.257,330.571L576.61,334.741L577.962,333.858L579.314,334.299L580.667,342.983L582.019,343.375L583.371,341.756L584.724,333.71L586.076,336.163L587.429,329.442L588.781,338.911L590.133,344.504L591.486,357.603L592.838,357.063L594.19,356.72L595.543,353.531L596.895,360.203L598.248,346.761L599.6,326.351L600.952,301.526L602.305,303.096L603.657,312.32L605.01,331.012L606.362,339.058L607.714,349.165L609.067,342.198L610.419,334.839L611.771,323.555L613.124,322.525L614.476,320.17L615.829,322.083L617.181,321.396L618.533,328.412L619.886,330.08L621.238,327.627L622.59,316.441L623.943,316.588L625.295,321.494L626.648,338.567L628,335.28L629.352,330.914L630.705,324.83L632.057,335.133L633.41,351.618L634.762,355.935L636.114,351.765L637.467,345.927L638.819,351.618L640.171,354.12L641.524,355.837L642.876,352.354L644.229,349.802L645.581,352.599L646.933,348.281L648.286,343.523L649.638,344.258L650.99,355.641L652.343,369.034L653.695,366.091L655.048,355.248L656.4,340.775L657.752,335.133L659.105,343.768L660.457,351.961L661.81,347.742L663.162,347.496L664.514,353.04L665.867,361.037L667.219,353.089L668.571,349.999L669.924,345.779L671.276,338.518L672.629,327.725L673.981,334.005L675.333,346.025L676.686,344.847L678.038,336.213L679.39,328.951L680.743,335.378L682.095,333.073L683.448,333.024L684.8,332.631L686.152,336.409L687.505,338.813L688.857,338.42L690.21,338.616L691.562,332.582L692.914,335.918L694.267,341.707L695.619,342.787L696.971,351.274L698.324,347.251L699.676,347.938L701.029,343.032L702.381,343.572L703.733,351.421L705.086,353.433L706.438,357.701L707.79,366.483L709.143,369.966L710.495,364.472L711.848,351.814L713.2,337.292L714.552,326.548L715.905,317.177L717.257,325.615L718.61,336.507L719.962,353.973L721.314,344.16L722.667,334.397L724.019,331.454L725.371,342.051L726.724,345.632L728.076,336.507L729.429,308.689L730.781,307.561L732.133,305.5L733.486,330.08L734.838,339.598L736.19,349.214L737.543,358.29L738.895,360.988L740.248,346.859L741.6,315.411L742.952,299.907L744.305,295.345L745.657,313.399L747.01,323.849L748.362,342.149L749.714,342.002L751.067,341.854L752.419,334.25L753.771,339.058L755.124,327.627L756.476,312.271L757.829,298.141L759.181,305.893L760.533,317.569L761.886,327.038L763.238,333.661L764.59,332.68L765.943,326.94L767.295,311.486L768.648,315.705L770,307.463"/></g></svg>