<svg xmlns="http://www.w3.org/2000/svg" width="830" height="564" fill="currentColor" class="plot-d6a7b5" font-family="system-ui, sans-serif" font-size="10" style="--plot-background:white;display:block;height:intrinsic;max-width:100%;color:#1e90ff" text-anchor="middle" viewBox="0 0 830 564">
    <style>
        :where(.plot-d6a7b5 text),:where(.plot-d6a7b5 tspan){white-space:pre}
    </style>
    <path stroke="currentColor" stroke-opacity=".1" d="
M60
410
h710
M60
375
h710
M60
340
h710
M60
305
h710
M60
270
h710
M60
235
h710
M60
200
h710
M60
165
h710
M60
130
h710
M60
95
h710
M60
60
h710" aria-hidden="true" aria-label="y-grid"/>
    <path fill="none" stroke="currentColor" d="
M60
410
h-6
m6
-35
h-6
m6
-35
h-6
m6
-35
h-6
m6
-35
h-6
m6
-35
h-6
m6
-35
h-6
m6
-35
h-6
m6
-35
h-6
m6
-35
h-6
m6
-35
h-6" aria-hidden="true" aria-label="y-axis tick"/>
    <g aria-label="y-axis tick label" font-variant="tabular-nums" text-anchor="end">
        <text y=".32em" transform="translate(51 410)">0%</text>
        <text y=".32em" transform="translate(51 375)">10%</text>
        <text y=".32em" transform="translate(51 340)">20%</text>
        <text y=".32em" transform="translate(51 305)">30%</text>
        <text y=".32em" transform="translate(51 270)">40%</text>
        <text y=".32em" transform="translate(51 235)">50%</text>
        <text y=".32em" transform="translate(51 200)">60%</text>
        <text y=".32em" transform="translate(51 165)">70%</text>
        <text y=".32em" transform="translate(51 130)">80%</text>
        <text y=".32em" transform="translate(51 95)">90%</text>
        <text y=".32em" transform="translate(51 60)">100%</text>
    </g>
    <text y=".71em" aria-label="y-axis label" text-anchor="start" transform="translate(3 3)">↑ Frequency</text>
    <path fill="none" stroke="currentColor" d="
M78.63
410
v6
m62.789
-6
v6
m63.479
-6
v6
m63.479
-6
v6
m62.789
-6
v6
m62.789
-6
v6
m63.479
-6
v6
m63.48
-6
v6
m62.099
-6
v6
m62.789
-6
v6
m63.478
-6
v6" aria-hidden="true" aria-label="x-axis tick"/>
    <g aria-label="x-axis tick label" font-variant="tabular-nums">
        <text transform="translate(78.63 419)"><tspan x="0" y=".71em">Apr</tspan><tspan x="0" dy="1em">2023</tspan></text>
        <text y=".71em" transform="translate(141.419 419)">Jul</text>
        <text y=".71em" transform="translate(204.898 419)">Oct</text>
        <text transform="translate(268.377 419)"><tspan x="0" y=".71em">Jan</tspan><tspan x="0" dy="1em">2024</tspan></text>
        <text y=".71em" transform="translate(331.166 419)">Apr</text>
        <text y=".71em" transform="translate(393.955 419)">Jul</text>
        <text y=".71em" transform="translate(457.434 419)">Oct</text>
        <text transform="translate(520.914 419)"><tspan x="0" y=".71em">Jan</tspan><tspan x="0" dy="1em">2025</tspan></text>
        <text y=".71em" transform="translate(583.013 419)">Apr</text>
        <text y=".71em" transform="translate(645.802 419)">Jul</text>
        <text y=".71em" transform="translate(709.28 419)">Oct</text>
    </g>
    <text aria-label="x-axis label" text-anchor="end" transform="translate(827 467)">timestamp →</text>
    <g aria-label="rect">
        <path fill="#00000f" d="
M60.5
256.21
h3.83
V410
H60.5z
m4.83
2.934
h3.83
V410
h-3.83z
m4.83
-3.648
h3.83
V410
h-3.83z
m4.83
-20.204
h3.83
V410
h-3.83z
m4.83
-2.874
h3.83
V410
h-3.83z
m4.83
8.707
h3.83
V410
h-3.83z
m4.83
22.342
h3.83
V410
h-3.83z
m4.83
-9.421
h3.83
V410
h-3.83z
m4.829
3.243
h3.83
V410
h-3.83z
m4.83
12.12
h3.83
V410
h-3.83z
m4.83
-6.51
h3.83
V410
h-3.83z
m4.83
-14.054
h3.83
V410
h-3.83z
m4.83
1.751
h3.83
V410
h-3.83z
m4.83
6.831
h3.83
V410
h-3.83z
m4.83
-5.823
h3.83
V410
h-3.83z
m4.83
-19.056
h3.83
V410
h-3.83z
m4.83
38.722
h3.83
V410
h-3.83z
m4.83
9.31
h3.83
V410
h-3.83z
m4.83
-1.386
h3.83
V410
h-3.83z
m4.83
-21.948
h3.83
V410
h-3.83z
m4.83
-16.643
h3.83
V410
h-3.83z
m4.83
-10.917
h3.83
V410
h-3.83z
m4.83
27.586
h3.83
V410
h-3.83z
m4.829
-11.415
h3.83
V410
h-3.83z
m4.83
7.574
h3.83
V410
h-3.83z
m4.83
8.796
h3.83
V410
h-3.83z
m4.83
-25.594
h3.83
V410
h-3.83z
m4.83
5.815
h3.83
V410
h-3.83z
m4.83
-3.282
h3.83
V410
h-3.83z
m4.83
1.988
h3.83
V410
h-3.83z
m4.83
7.401
h3.83
V410
h-3.83z
m4.83
16.685
h3.83
V410
h-3.83z
m4.83
13.393
h3.83
V410
h-3.83z
m4.83
-18.28
h3.83
V410
h-3.83z
m4.83
3.162
h3.83
V410
h-3.83z
m4.83
-4.583
h3.83
V410
h-3.83z
m4.83
-14.073
h3.83
V410
h-3.83z
m4.829
3.054
h3.83
V410
h-3.83z
m4.83
-14.196
h3.83
V410
h-3.83z
m4.83
19.435
h3.83
V410
h-3.83z
m4.83
-1.754
h3.83
V410
h-3.83z
m4.83
-13.029
h3.83
V410
h-3.83z
m4.83
23.039
h3.83
V410
h-3.83z
m4.83
24.169
h3.83
V410
h-3.83z
m4.83
4.323
h3.83
V410
h-3.83z
m4.83
-17.275
h3.83
V410
h-3.83z
m4.83
7.293
h3.83
V410
h-3.83z
m4.83
-41.904
h3.83
V410
h-3.83z
m4.83
36.798
h3.83
V410
h-3.83z
m4.83
-25.925
h3.83
V410
h-3.83z
m4.83
14.529
h3.83
V410
h-3.83z
m4.83
-9.58
h3.83
V410
h-3.83z
m4.829
-5.292
h3.83
V410
h-3.83z
m4.83
-21.911
h3.83
V410
h-3.83z
m4.83
21.086
h3.83
V410
h-3.83z
m4.83
48.506
h3.83
V410
h-3.83z
m4.83
-41.52
h3.83
V410
h-3.83z
m4.83
35.636
h3.83
V410
h-3.83z
m4.83
-36.183
h3.83
V410
h-3.83z
m4.83
23.162
h3.83
V410
h-3.83z
m4.83
-45.475
h3.83
V410
h-3.83z
m4.83
23.484
h3.83
V410
h-3.83z
m4.83
20.467
h3.83
V410
h-3.83z
m4.83
-11.384
h3.83
V410
h-3.83z
m4.83
-14.288
h3.83
V410
h-3.83z
m4.83
34.946
h3.83
V410
h-3.83z
m4.83
-2.706
h3.83
V410
h-3.83z
m4.829
-7.45
h3.83
V410
h-3.83z
m4.83
-8.93
h3.83
V410
h-3.83z
m4.83
-43.308
h3.83
V410
h-3.83z
m4.83
32.439
h3.83
V410
h-3.83z
m4.83
4.623
h3.83
V410
h-3.83z
m4.83
3.672
h3.83
V410
h-3.83z
m4.83
15.079
h3.83
V410
h-3.83z
m4.83
2.355
h3.83
V410
h-3.83z
m4.83
28.768
h3.83
V410
h-3.83z
m4.83
-56.846
h3.83
V410
h-3.83z
m4.83
-10.537
h3.83
V410
h-3.83z
m4.83
-13.883
h3.83
V410
h-3.83z
m4.83
13.793
h3.83
V410
h-3.83z
m4.83
15.483
h3.83
V410
h-3.83z
m4.829
-3.987
h3.83
V410
h-3.83z
m4.83
19.59
h3.83
V410
h-3.83z
m4.83
18.506
h3.83
V410
h-3.83z
m4.83
-.963
h3.83
V410
h-3.83z
m4.83
-5.253
h3.83
V410
h-3.83z
m4.83
-33.302
h3.83
V410
h-3.83z
m4.83
41.393
h3.83
V410
h-3.83z
m4.83
-17.332
h3.83
V410
h-3.83z
m4.83
-6.947
h3.83
V410
h-3.83z
m4.83
-9.18
h3.83
V410
h-3.83z
m4.83
-60.184
h3.83
V410
h-3.83z
m4.83
64.512
h3.83
V410
h-3.83z
m4.83
11.574
h3.83
V410
h-3.83z
m4.83
-41.65
h3.83
V410
h-3.83z
m4.83
-29.067
h3.83
V410
h-3.83z
m4.829
4.692
h3.83
V410
h-3.83z
m4.83
-4.078
h3.83
V410
h-3.83z
m4.83
-7.201
h3.83
V410
h-3.83z
m4.83
23.704
h3.83
V410
h-3.83z
m4.83
10.517
h3.83
V410
h-3.83z
m4.83
30.681
h3.83
V410
h-3.83z
m4.83
-18.88
h3.83
V410
h-3.83z
m4.83
-28.073
h3.83
V410
h-3.83z
m4.83
16.556
h3.83
V410
h-3.83z
m4.83
16.789
h3.83
V410
h-3.83z
m4.83
43.8
h3.83
V410
h-3.83z
m4.83
-26.005
h3.83
V410
h-3.83z
m4.83
17.818
h3.83
V410
h-3.83z
m4.83
33.882
h3.83
V410
h-3.83z
m4.83
35.695
h3.83
V410
h-3.83z
m4.829
-63.12
h3.83
V410
h-3.83z
m4.83
47.891
h3.83
v70
h-3.83z
m4.83
-90.178
h3.83
V410
h-3.83z
m4.83
15.754
h3.83
V410
h-3.83z
m4.83
50.737
h3.83
V410
h-3.83z
m4.83
-82.398
h3.83
V410
h-3.83z
m4.83
97.324
h3.83
V410
h-3.83z
m4.83
-30.495
h3.83
V410
h-3.83z
m4.83
-87.912
h3.83
V410
h-3.83z
m4.83
12.793
h3.83
V410
h-3.83z
m4.83
-.655
h3.83
V410
h-3.83z
m4.83
-7.043
h3.83
V410
h-3.83z
m4.83
-4.642
h3.83
V410
h-3.83z
m4.83
-9.842
h3.83
V410
h-3.83z
m4.829
48.214
h3.83
V410
h-3.83z
m4.83
-18.91
h3.83
V410
h-3.83z
m4.83
102.437
h3.83
V410
h-3.83z
m4.83
-35.003
h3.83
V410
h-3.83z
m4.83
8.123
h3.83
V410
h-3.83z
m4.83
-13.494
h3.83
V410
h-3.83z
m4.83
-6.221
h3.83
V410
h-3.83z
m4.83
-95.093
h3.83
V410
h-3.83z
m4.83
54.996
h3.83
V410
h-3.83z
m4.83
75.743
h3.83
V410
h-3.83z
m4.83
29.733
h3.83
V410
h-3.83z
m4.83
-54.834
h3.83
V410
h-3.83z
m4.83
-82.701
h3.83
V410
h-3.83z
m4.83
116.9
h3.83
V410
h-3.83z
m4.83
-48.974
h3.83
V410
h-3.83z
m4.829
-13.62
h3.83
V410
h-3.83z
m4.83
112.846
h3.83
V410
h-3.83z
M746.35
329
h3.83
v81
h-3.83z
m4.83
-27.182
h3.83
V410
h-3.83z
m4.83
-2.831
h3.83
V410
h-3.83z
m4.83
3.944
h3.83
V410
h-3.83z
m4.83
-6.647
h3.83
V410
h-3.83z"/>
        <path fill="#fff" d="
M60.5
229.908
h3.83
v26.302
H60.5z
m4.83
4.779
h3.83
v24.457
h-3.83z
m4.83
-12.003
h3.83
v32.812
h-3.83z
m4.83
-26.592
h3.83
v39.2
h-3.83z
m4.83
3.804
h3.83
v32.522
h-3.83z
m4.83
7.598
h3.83
v33.631
h-3.83z
m4.83
4.87
h3.83
v51.104
h-3.83z
m4.83
6.534
h3.83
v35.148
h-3.83z
m4.829
6.133
h3.83
v32.258
h-3.83z
m4.83
-11.517
h3.83
v55.895
h-3.83z
m4.83
.371
h3.83
v49.013
h-3.83z
m4.83
-9.952
h3.83
v44.913
h-3.83z
m4.83
-7.738
h3.83
v54.401
h-3.83z
m4.83
9.419
h3.83
v51.813
h-3.83z
m4.83
-8.622
h3.83
v54.611
h-3.83z
m4.83
-10.386
h3.83
v45.942
h-3.83z
m4.83
34.371
h3.83
v50.293
h-3.83z
m4.83
9.966
h3.83
v49.636
h-3.83z
m4.83
-6.44
h3.83
v54.691
h-3.83z
m4.83
-18.86
h3.83
v51.603
h-3.83z
m4.83
-20.935
h3.83
v55.895
h-3.83z
m4.83
1.997
h3.83
v42.981
h-3.83z
m4.83
22.828
h3.83
v47.739
h-3.83z
m4.829
-10.527
h3.83
v46.851
h-3.83z
m4.83
16.79
h3.83
v37.635
h-3.83z
m4.83
-4.512
h3.83
v50.943
h-3.83z
m4.83
-18.73
h3.83
v44.079
h-3.83z
m4.83
.57
h3.83
v49.324
h-3.83z
m4.83
4.47
h3.83
v41.572
h-3.83z
m4.83
3.622
h3.83
v39.939
h-3.83z
m4.83
3.853
h3.83
v43.485
h-3.83z
m4.83
.675
h3.83
v59.497
h-3.83z
m4.83
21.758
h3.83
v51.131
h-3.83z
m4.83
-6.497
h3.83
v39.348
h-3.83z
m4.83
-3.621
h3.83
v46.131
h-3.83z
m4.83
-9.86
h3.83
v51.408
h-3.83z
m4.83
-4.79
h3.83
v42.125
h-3.83z
m4.829
-14.802
h3.83
v59.981
h-3.83z
m4.83
-11.44
h3.83
v57.225
h-3.83z
m4.83
5.859
h3.83
v70.802
h-3.83z
m4.83
-9.384
h3.83
v78.431
h-3.83z
m4.83
13.477
h3.83
v51.925
h-3.83z
m4.83
30.273
h3.83
v44.691
h-3.83z
m4.83
-6.088
h3.83
v74.948
h-3.83z
m4.83
13.657
h3.83
v65.615
h-3.83z
m4.83
-20.149
h3.83
v68.488
h-3.83z
m4.83
27.27
h3.83
v48.511
h-3.83z
m4.83
-26.194
h3.83
v32.801
h-3.83z
m4.83
25.117
h3.83
v44.482
h-3.83z
m4.83
-25.263
h3.83
v43.82
h-3.83z
m4.83
3.891
h3.83
v54.458
h-3.83z
m4.83
-16.276
h3.83
v61.155
h-3.83z
m4.829
-22.41
h3.83
v78.272
h-3.83z
m4.83
20.176
h3.83
v36.185
h-3.83z
m4.83
2.627
h3.83
v54.643
h-3.83z
m4.83
29.01
h3.83
v74.141
h-3.83z
m4.83
-17.727
h3.83
v50.347
h-3.83z
m4.83
24.526
h3.83
v61.457
h-3.83z
m4.83
-44.262
h3.83
v69.536
h-3.83z
m4.83
41.598
h3.83
v51.099
h-3.83z
m4.83
-36.178
h3.83
v41.803
h-3.83z
m4.83
-15.845
h3.83
v81.133
h-3.83z
m4.83
40.171
h3.83
v61.428
h-3.83z
m4.83
-13.342
h3.83
v63.386
h-3.83z
m4.83
-6.511
h3.83
v55.609
h-3.83z
m4.83
15.287
h3.83
v75.268
h-3.83z
m4.83
20.246
h3.83
v52.316
h-3.83z
m4.829
-32.515
h3.83
v77.381
h-3.83z
m4.83
20.65
h3.83
v47.801
h-3.83z
m4.83
-31.887
h3.83
v36.38
h-3.83z
m4.83
37.227
h3.83
v31.592
h-3.83z
m4.83
4.417
h3.83
v31.799
h-3.83z
m4.83
-19.172
h3.83
v54.642
h-3.83z
m4.83
-10.207
h3.83
v79.928
h-3.83z
m4.83
6.289
h3.83
v75.995
h-3.83z
m4.83
25.466
h3.83
v79.296
h-3.83z
m4.83
-19.866
h3.83
v42.317
h-3.83z
m4.83
-23.024
h3.83
v54.803
h-3.83z
m4.83
-8.046
h3.83
v48.966
h-3.83z
m4.83
3.589
h3.83
v59.169
h-3.83z
m4.83
14.874
h3.83
v59.779
h-3.83z
m4.829
7.383
h3.83
v48.409
h-3.83z
m4.83
17.066
h3.83
v50.933
h-3.83z
m4.83
18.21
h3.83
v51.229
h-3.83z
m4.83
-60.689
h3.83
v110.954
h-3.83z
m4.83
44.198
h3.83
v61.504
h-3.83z
m4.83
-48.253
h3.83
v76.455
h-3.83z
m4.83
34.793
h3.83
v83.055
h-3.83z
m4.83
2.386
h3.83
v63.336
h-3.83z
m4.83
-23.053
h3.83
v79.444
h-3.83z
m4.83
16.879
h3.83
v53.384
h-3.83z
m4.83
-42.112
h3.83
v35.313
h-3.83z
m4.83
53.368
h3.83
v46.456
h-3.83z
m4.83
9.29
h3.83
v48.741
h-3.83z
m4.83
-74.869
h3.83
v81.959
h-3.83z
m4.83
-17.336
h3.83
v70.228
h-3.83z
m4.829
7.469
h3.83
v67.451
h-3.83z
m4.83
26.136
h3.83
v37.237
h-3.83z
m4.83
-7.613
h3.83
v37.649
h-3.83z
m4.83
27.253
h3.83
v34.1
h-3.83z
m4.83
-4.573
h3.83
v49.19
h-3.83z
m4.83
36.617
h3.83
v43.254
h-3.83z
m4.83
-31.278
h3.83
v55.651
h-3.83z
m4.83
-23.028
h3.83
v50.607
h-3.83z
m4.83
31.874
h3.83
v35.29
h-3.83z
m4.83
12.977
h3.83
v39.102
h-3.83z
m4.83
22.072
h3.83
v60.828
h-3.83z
m4.83
-18.827
h3.83
v53.651
h-3.83z
m4.83
1.195
h3.83
v70.274
h-3.83z
m4.83
59.17
h3.83
v44.986
h-3.83z
m4.83
-30.197
h3.83
v110.878
h-3.83z
m4.829
24.621
h3.83
v23.137
h-3.83z
m4.83
-59.187
h3.83
V340
h-3.83z
m4.83
-28.091
h3.83
v68.128
h-3.83z
m4.83
42.247
h3.83
v41.636
h-3.83z
m4.83
4.695
h3.83
v87.677
h-3.83z
m4.83
-61.973
h3.83
v67.252
h-3.83z
m4.83
96.345
h3.83
v68.231
h-3.83z
m4.83
14.233
h3.83
v23.503
h-3.83z
m4.83
-102.487
h3.83
v38.077
h-3.83z
m4.83
6.73
h3.83
v44.141
h-3.83z
m4.83
19.623
h3.83
v23.864
h-3.83z
m4.83
-14.125
h3.83
v30.945
h-3.83z
m4.83
-30.267
h3.83
v56.569
h-3.83z
m4.83
9.172
h3.83
v37.556
h-3.83z
m4.829
-3.199
h3.83
v88.97
h-3.83z
m4.83
27.999
h3.83
v42.06
h-3.83z
m4.83
80.861
h3.83
v63.636
h-3.83z
m4.83
-11.335
h3.83
v39.968
h-3.83z
m4.83
7.825
h3.83
v40.265
h-3.83z
m4.83
-48.544
h3.83
v75.316
h-3.83z
m4.83
38.951
h3.83
v30.144
h-3.83z
m4.83
-119.716
h3.83
v54.768
h-3.83z
m4.83
75.349
h3.83
v34.413
h-3.83z
m4.83
101.234
h3.83
v8.924
h-3.83z
m4.83
8.609
h3.83
v30.046
h-3.83z
m4.83
-99.556
h3.83
v74.77
h-3.83z
m4.83
-42.695
h3.83
v34.763
h-3.83z
m4.83
123.886
h3.83
v27.778
h-3.83z
m4.83
-70.556
h3.83
v49.359
h-3.83z
m4.829
24.648
h3.83
v11.092
h-3.83z
m4.83
84.314
h3.83
v39.623
h-3.83z
M746.35
312
h3.83
v17
h-3.83z
m4.83
-33.818
h3.83
v23.636
h-3.83z
m4.83
-55.517
h3.83
v76.322
h-3.83z
m4.83
45.176
h3.83
v35.09
h-3.83z
m4.83
-124.086
h3.83
v152.529
h-3.83z"/>
        <path fill="#ff7373" d="
M60.5
201.129
h3.83
v21.429
H60.5z
m4.83
-3.692
h3.83
v28.443
h-3.83z
m4.83
-7.938
h3.83
v28.827
h-3.83z
m4.83
-17.001
h3.83
v18.085
h-3.83z
m4.83
-1.738
h3.83
v22.665
h-3.83z
m4.83
16.591
h3.83
v16.266
h-3.83z
m4.83
.077
h3.83
v19.437
h-3.83z
m4.83
3.865
h3.83
v18.081
h-3.83z
m4.829
8.41
h3.83
v19.443
h-3.83z
m4.83
-15.775
h3.83
v23.138
h-3.83z
m4.83
1.447
h3.83
v20.443
h-3.83z
m4.83
-3.058
h3.83
v15.378
h-3.83z
m4.83
-11.527
h3.83
v20.449
h-3.83z
m4.83
5.013
h3.83
v24.423
h-3.83z
m4.83
-13.257
h3.83
v29.147
h-3.83z
m4.83
-3.322
h3.83
v21.771
h-3.83z
m4.83
32.34
h3.83
v24.756
h-3.83z
m4.83
.68
h3.83
v27.364
h-3.83z
m4.83
1.217
h3.83
v24.977
h-3.83z
m4.83
-14.361
h3.83
v22.36
h-3.83z
m4.83
-13.105
h3.83
v13.546
h-3.83z
m4.83
-2.35
h3.83
v17.435
h-3.83z
m4.83
16.664
h3.83
v22.508
h-3.83z
m4.829
-16.704
h3.83
v26.058
h-3.83z
m4.83
7.948
h3.83
v35.433
h-3.83z
m4.83
10.101
h3.83
v22.275
h-3.83z
m4.83
-14.314
h3.83
v18.502
h-3.83z
m4.83
4.692
h3.83
v15.511
h-3.83z
m4.83
-1.841
h3.83
v20.942
h-3.83z
m4.83
.636
h3.83
v21.246
h-3.83z
m4.83
2.85
h3.83
v22.876
h-3.83z
m4.83
-.258
h3.83
v26.047
h-3.83z
m4.83
25.617
h3.83
v20.993
h-3.83z
m4.83
-4.263
h3.83
v21.005
h-3.83z
m4.83
-10.139
h3.83
v28.758
h-3.83z
m4.83
-6.872
h3.83
v18.747
h-3.83z
m4.83
-3.187
h3.83
v22.258
h-3.83z
m4.829
-10.312
h3.83
v15.28
h-3.83z
m4.83
-17.813
h3.83
v15.225
h-3.83z
m4.83
10.912
h3.83
v19.488
h-3.83z
m4.83
-5.845
h3.83
v12.672
h-3.83z
m4.83
1.711
h3.83
v17.282
h-3.83z
m4.83
17.2
h3.83
v29.239
h-3.83z
m4.83
9.664
h3.83
v20.04
h-3.83z
m4.83
20.689
h3.83
v16.777
h-3.83z
m4.83
-32.844
h3.83
v23.073
h-3.83z
m4.83
31.847
h3.83
v20.003
h-3.83z
m4.83
-27.373
h3.83
v17.021
h-3.83z
m4.83
19.4
h3.83
v26.753
h-3.83z
m4.83
-24.043
h3.83
v27.399
h-3.83z
m4.83
8.438
h3.83
v20.436
h-3.83z
m4.83
-9.997
h3.83
v22.273
h-3.83z
m4.829
-31.313
h3.83
v31.079
h-3.83z
m4.83
16.578
h3.83
v27.958
h-3.83z
m4.83
3.681
h3.83
v31.797
h-3.83z
m4.83
12.31
h3.83
v49.099
h-3.83z
m4.83
-12.587
h3.83
v46.962
h-3.83z
m4.83
29.812
h3.83
v37.289
h-3.83z
m4.83
-31.675
h3.83
v26.834
h-3.83z
m4.83
28.124
h3.83
v38.176
h-3.83z
m4.83
-29.054
h3.83
v24.056
h-3.83z
m4.83
-7.248
h3.83
v24.358
h-3.83z
m4.83
23.108
h3.83
v40.514
h-3.83z
m4.83
.391
h3.83
v30.22
h-3.83z
m4.83
-15.985
h3.83
v36.36
h-3.83z
m4.83
20.836
h3.83
v29.683
h-3.83z
m4.83
11.334
h3.83
v28.435
h-3.83z
m4.829
-16.554
h3.83
v19.473
h-3.83z
m4.83
-10.122
h3.83
v47.394
h-3.83z
m4.83
5.479
h3.83
v18.141
h-3.83z
m4.83
36.534
h3.83
v17.63
h-3.83z
m4.83
-12.664
h3.83
v34.062
h-3.83z
m4.83
-7.381
h3.83
v24.416
h-3.83z
m4.83
-13.41
h3.83
v28.849
h-3.83z
m4.83
-.788
h3.83
v32.377
h-3.83z
m4.83
26.87
h3.83
v26.364
h-3.83z
m4.83
-8.604
h3.83
v18.736
h-3.83z
m4.83
-21.223
h3.83
v17.819
h-3.83z
m4.83
-9.635
h3.83
v17.959
h-3.83z
m4.83
15.797
h3.83
v7.075
h-3.83z
m4.83
9.917
h3.83
v17.23
h-3.83z
m4.829
1.471
h3.83
v16.793
h-3.83z
m4.83
15.036
h3.83
v20.108
h-3.83z
m4.83
16.418
h3.83
v23.401
h-3.83z
m4.83
-46.372
h3.83
v10.602
h-3.83z
m4.83
25.591
h3.83
v28.046
h-3.83z
m4.83
-51.27
h3.83
v30.41
h-3.83z
m4.83
32.922
h3.83
v33.573
h-3.83z
m4.83
.181
h3.83
v34.069
h-3.83z
m4.83
-17.438
h3.83
v27.042
h-3.83z
m4.83
23.851
h3.83
v21.113
h-3.83z
m4.83
-39.306
h3.83
v13.61
h-3.83z
m4.83
19.777
h3.83
v45.576
h-3.83z
m4.83
16.204
h3.83
v44.247
h-3.83z
m4.83
-42.091
h3.83
v15.292
h-3.83z
m4.83
-10.64
h3.83
v7.158
h-3.83z
m4.829
-10.231
h3.83
v13.762
h-3.83z
m4.83
35.899
h3.83
v15.916
h-3.83z
m4.83
-10.372
h3.83
v19.382
h-3.83z
m4.83
38.023
h3.83
v11.248
h-3.83z
m4.83
-17.764
h3.83
v21.944
h-3.83z
m4.83
33.688
h3.83
v21.84
h-3.83z
m4.83
-27.523
h3.83
v19.042
h-3.83z
m4.83
-42.563
h3.83
v9.622
h-3.83z
m4.83
45.441
h3.83
v18.995
h-3.83z
m4.83
15.241
h3.83
v21.055
h-3.83z
m4.83
1.968
h3.83
v44.532
h-3.83z
m4.83
-6.406
h3.83
v31.141
h-3.83z
m9.66
88.661
h3.83
v6.921
h-3.83z
m4.83
-39.614
h3.83
v14.16
h-3.83z
m4.829
13.174
h3.83
v26.443
h-3.83z
m4.83
-48.22
h3.83
v16.559
h-3.83z
m4.83
-22.74
h3.83
v11.961
h-3.83z
m4.83
38.594
h3.83
v.651
h-3.83z
m4.83
-30.6
h3.83
v39.596
h-3.83z
m4.83
-20.465
h3.83
v8.678
h-3.83z
m4.83
83.424
h3.83
v10.951
h-3.83z
m4.83
3.525
h3.83
v33.031
h-3.83z
m4.83
-91.886
h3.83
v21.386
h-3.83z
m4.83
15.488
h3.83
v1.172
h-3.83z
m4.83
24.993
h3.83
v7.263
h-3.83z
m4.83
-56.51
h3.83
v41.616
h-3.83z
m4.83
17.865
h3.83
v1.825
h-3.83z
m4.83
-6.009
h3.83
v12.519
h-3.83z
m9.659
18.5
h3.83
v12.017
h-3.83z
m4.83
92.857
h3.83
v11.179
h-3.83z
m4.83
-17.225
h3.83
v5.977
h-3.83z
m4.83
-5.735
h3.83
v21.681
h-3.83z
m4.83
-66.897
h3.83
v48.734
h-3.83z
m4.83
84.606
h3.83
v4.187
h-3.83z
m4.83
-122.375
h3.83
v5.99
h-3.83z
m4.83
68.899
h3.83
v12.905
h-3.83z
m9.66
74.415
h3.83
v31.671
h-3.83z
m9.66
-104.588
h3.83
v5.53
h-3.83z
m4.83
9.391
h3.83
v100
h-3.83z
m4.83
39.295
h3.83
v2.244
h-3.83z
m4.829
5.23
h3.83
v35.123
h-3.83z
m4.83
93.022
h3.83
v11.006
h-3.83z
M746.35
285
h3.83
v15
h-3.83z
m4.83
-16.818
h3.83
v5.455
h-3.83z
m4.83
-54.768
h3.83
v9.251
h-3.83z
m4.83
41.83
h3.83
v11.697
h-3.83z
m4.83
-121.022
h3.83
v1.362
h-3.83z"/>
        <path fill="#4f2d68" d="
M60.5
84.032
h3.83
v37.776
H60.5z
m4.83
-4.625
h3.83
v38.543
h-3.83z
m4.83
-3.7
h3.83
v33.138
h-3.83z
m4.83
-.934
h3.83
v28.926
h-3.83z
m4.83
-2.653
h3.83
v26.605
h-3.83z
m4.83
3.567
h3.83
v37.228
h-3.83z
m4.83
1.972
h3.83
v35.744
h-3.83z
m4.83
.002
h3.83
v37.77
h-3.83z
m4.829
1.617
h3.83
v38.171
h-3.83z
m4.83
-1.179
h3.83
v39.937
h-3.83z
m4.83
-1.812
h3.83
v30.954
h-3.83z
m4.83
-4.218
h3.83
v36.478
h-3.83z
m4.83
5.53
h3.83
v35.139
h-3.83z
m4.83
-2.591
h3.83
v36.122
h-3.83z
m4.83
1.613
h3.83
v23.95
h-3.83z
m4.83
-3.389
h3.83
v22.477
h-3.83z
m4.83
3.576
h3.83
v34.332
h-3.83z
m4.83
7.254
h3.83
v31.739
h-3.83z
m4.83
-8.236
h3.83
v32.477
h-3.83z
m4.83
-1.186
h3.83
v26.239
h-3.83z
m4.83
-5.877
h3.83
v23.392
h-3.83z
m4.83
7.398
h3.83
v22.376
h-3.83z
m4.83
-6.976
h3.83
v44
h-3.83z
m4.829
2.89
h3.83
v15.167
h-3.83z
m4.83
.522
h3.83
v21.677
h-3.83z
m4.83
4.621
h3.83
v23.236
h-3.83z
m4.83
-6.788
h3.83
v24.171
h-3.83z
m4.83
1.487
h3.83
v34.191
h-3.83z
m4.83
7.733
h3.83
v32.215
h-3.83z
m4.83
-1.775
h3.83
v20.429
h-3.83z
m4.83
-5.983
h3.83
v33.609
h-3.83z
m4.83
-.883
h3.83
v29.42
h-3.83z
m4.83
9.591
h3.83
v44.543
h-3.83z
m4.83
13.853
h3.83
v30.699
h-3.83z
m4.83
-19.4
h3.83
v50.123
h-3.83z
m4.83
3.114
h3.83
v50.699
h-3.83z
m4.83
-6.067
h3.83
v29.876
h-3.83z
m4.829
.663
h3.83
v21.751
h-3.83z
m4.83
.245
h3.83
v29.225
h-3.83z
m4.83
8.209
h3.83
v24.36
h-3.83z
m4.83
-.512
h3.83
v21.782
h-3.83z
m4.83
-9.448
h3.83
v21.959
h-3.83z
m4.83
-.933
h3.83
v26.175
h-3.83z
m4.83
4.798
h3.83
v52.559
h-3.83z
m4.83
11.29
h3.83
v46.678
h-3.83z
m4.83
-10.301
h3.83
v33.88
h-3.83z
m4.83
11.678
h3.83
v36.713
h-3.83z
m4.83
-13.191
h3.83
v36.761
h-3.83z
m4.83
5.031
h3.83
v28.336
h-3.83z
m4.83
-6.352
h3.83
v36.032
h-3.83z
m4.83
5.281
h3.83
v40.264
h-3.83z
m4.83
7.787
h3.83
v25.327
h-3.83z
m4.829
-13.223
h3.83
V95.76
h-3.83z
m4.83
33.033
h3.83
v11.783
h-3.83z
m4.83
-8.941
h3.83
v20.727
h-3.83z
m4.83
-11.383
h3.83
v34.901
h-3.83z
m4.83
-1.959
h3.83
v26.649
h-3.83z
m4.83
-11.936
h3.83
v27.72
h-3.83z
m4.83
-.067
h3.83
v23.738
h-3.83z
m4.83
.856
h3.83
v39.952
h-3.83z
m4.83
-7.894
h3.83
v34.014
h-3.83z
m4.83
12.859
h3.83
v20.005
h-3.83z
m4.83
-3.154
h3.83
v17.538
h-3.83z
m4.83
-6.363
h3.83
v27.559
h-3.83z
m4.83
1.986
h3.83
v38.498
h-3.83z
m4.83
3.215
h3.83
v27.074
h-3.83z
m4.83
-6.345
h3.83
v32.348
h-3.83z
m4.829
5.205
h3.83
v16.72
h-3.83z
m4.83
-1.125
h3.83
v12.842
h-3.83z
m4.83
1.412
h3.83
v17.944
h-3.83z
m4.83
13.392
h3.83
v26.149
h-3.83z
m4.83
-19.769
h3.83
v27.81
h-3.83z
m4.83
12.736
h3.83
v31.769
h-3.83z
m4.83
2.343
h3.83
v21.727
h-3.83z
m4.83
-16.062
h3.83
v21.208
h-3.83z
m4.83
5.333
h3.83
v30.254
h-3.83z
m4.83
3.638
h3.83
v23.662
h-3.83z
m4.83
-6.175
h3.83
v51.441
h-3.83z
m4.83
1.604
h3.83
v19.897
h-3.83z
m4.83
10.505
h3.83
v22.51
h-3.83z
m4.83
-9.282
h3.83
v28.952
h-3.83z
m4.829
5.666
h3.83
v22.191
h-3.83z
m4.83
8.761
h3.83
v45.626
h-3.83z
m4.83
-17.369
h3.83
v37.568
h-3.83z
m4.83
7.407
h3.83
v29.191
h-3.83z
m4.83
3.448
h3.83
v33.95
h-3.83z
m4.83
-6.791
h3.83
v15.061
h-3.83z
m4.83
6.46
h3.83
v36.965
h-3.83z
m4.83
-12.813
h3.83
v51.329
h-3.83z
m4.83
3.694
h3.83
V97.55
h-3.83z
m4.83
1.91
h3.83
v42.398
h-3.83z
m4.83
-9.686
h3.83
V90.53
h-3.83z
m4.83
3.104
h3.83
v34.49
h-3.83z
m4.83
13.573
h3.83
v30.593
h-3.83z
m4.83
-.794
h3.83
v20.275
h-3.83z
m4.83
-8.018
h3.83
v8.714
h-3.83z
m4.829
-5.428
h3.83
v21.408
h-3.83z
m4.83
-.154
h3.83
v33.183
h-3.83z
m4.83
5.031
h3.83
v31.235
h-3.83z
m4.83
-3.22
h3.83
v30.074
h-3.83z
m4.83
2.448
h3.83
v21.451
h-3.83z
m4.83
7.161
h3.83
v31.199
h-3.83z
m4.83
2.885
h3.83
v34.275
h-3.83z
m4.83
-10.312
h3.83
V86.49
h-3.83z
m4.83
-2.249
h3.83
v17.895
h-3.83z
m4.83
13.916
h3.83
v35
h-3.83z
m4.83
-.275
h3.83
v24.824
h-3.83z
m4.83
-11.015
h3.83
v42.481
h-3.83z
m9.66
-3.428
h3.83
v4.696
h-3.83z
m4.83
3.052
h3.83
v18.435
h-3.83z
m4.829
3.27
h3.83
v40.766
h-3.83z
m4.83
-10.265
h3.83
v1.505
h-3.83z
m4.83
-.753
h3.83
v3.64
h-3.83z
m4.83
2.602
h3.83
v19.517
h-3.83z
M615.942
95
h3.83
v6.717
h-3.83z
m4.83
-34.277
h3.83
v35.795
h-3.83z
m4.83
.541
h3.83
v12.214
h-3.83z
m4.83
-.629
h3.83
v97.187
h-3.83z
m4.83
-.635
h3.83
v4.173
h-3.83z
m4.83
.391
h3.83
v23.047
h-3.83z
m4.83
10.33
h3.83
V76.6
h-3.83z
m4.83
-5.386
h3.83
v4.268
h-3.83z
m4.83
-1.32
h3.83
v4.745
h-3.83z
m4.83
-1.407
h3.83
v5.216
h-3.83z
m4.829
4.447
h3.83
v27.044
h-3.83z
m4.83
-2.549
h3.83
v27.79
h-3.83z
m4.83
1.514
h3.83
v12.039
h-3.83z
m4.83
23.489
h3.83
v33.618
h-3.83z
m4.83
15.403
h3.83
v41.814
h-3.83z
m4.83
-12.792
h3.83
v13.845
h-3.83z
m4.83
-28.771
h3.83
v21.77
h-3.83z
m4.83
-1.638
h3.83
v5.134
h-3.83z
m4.83
-.929
h3.83
v1.173
h-3.83z
m9.66
.03
h3.83
v36.543
h-3.83z
m4.83
9.501
h3.83
v14.825
h-3.83z
M722.201
60
h3.83
v17.381
h-3.83z
m4.83
0
h3.83
v20
h-3.83z
m4.83
2.244
h3.83
v41.506
h-3.83z
m4.829
32.879
h3.83
v10.475
h-3.83z
m4.83
-14.211
h3.83
v4.403
h-3.83z
M746.35
92
h3.83
v12
h-3.83z
m4.83
-7.455
h3.83
v27.273
h-3.83z
M760.84
60
h3.83
v21.594
h-3.83z
m4.83
3.405
h3.83
v14.3
h-3.83z"/>
        <path fill="#ffff73" d="
M60.5
222.557
h3.83
v7.351
H60.5z
m4.83
3.324
h3.83
v8.806
h-3.83z
m4.83
-7.555
h3.83
v4.358
h-3.83z
m4.83
-27.742
h3.83
v5.509
h-3.83z
m4.83
2.841
h3.83
v6.471
h-3.83z
m4.83
10.192
h3.83
v3.877
h-3.83z
m4.83
3.247
h3.83
v5.499
h-3.83z
m4.83
2.511
h3.83
v9.523
h-3.83z
m4.829
9.771
h3.83
v5.885
h-3.83z
m4.83
-12.08
h3.83
v6.448
h-3.83z
m4.83
-1.248
h3.83
v8.067
h-3.83z
m4.83
-8.123
h3.83
v6.238
h-3.83z
m4.83
-6.456
h3.83
v4.956
h-3.83z
m4.83
8.986
h3.83
v5.389
h-3.83z
m4.83
-8.532
h3.83
v5.299
h-3.83z
m4.83
-10.698
h3.83
v5.61
h-3.83z
m4.83
35.324
h3.83
v4.658
h-3.83z
m4.83
3.289
h3.83
v11.335
h-3.83z
m4.83
-1.17
h3.83
v6.065
h-3.83z
m4.83
-16.978
h3.83
v4.183
h-3.83z
m4.83
-21.919
h3.83
v5.167
h-3.83z
m4.83
1.539
h3.83
v5.625
h-3.83z
m4.83
21.737
h3.83
v6.716
h-3.83z
m4.829
-13.154
h3.83
v9.344
h-3.83z
m4.83
17.323
h3.83
v8.81
h-3.83z
m4.83
-3.058
h3.83
v7.355
h-3.83z
m4.83
-18.086
h3.83
v6.712
h-3.83z
m4.83
1.702
h3.83
v5.58
h-3.83z
m4.83
3.589
h3.83
v6.461
h-3.83z
m4.83
.941
h3.83
v9.142
h-3.83z
m4.83
4.479
h3.83
v8.516
h-3.83z
m4.83
2.913
h3.83
v6.278
h-3.83z
m4.83
20.563
h3.83
v7.473
h-3.83z
m4.83
-4.252
h3.83
v5.227
h-3.83z
m4.83
-2.386
h3.83
v3.993
h-3.83z
m4.83
-16.883
h3.83
v11.016
h-3.83z
m4.83
.325
h3.83
v5.901
h-3.83z
m4.829
-17.29
h3.83
v8.389
h-3.83z
m4.83
-17.868
h3.83
v14.817
h-3.83z
m4.83
15.175
h3.83
v5.501
h-3.83z
m4.83
-12.662
h3.83
v8.779
h-3.83z
m4.83
6.322
h3.83
v15.934
h-3.83z
m4.83
29.157
h3.83
v17.05
h-3.83z
m4.83
.465
h3.83
v10.497
h-3.83z
m4.83
17.426
h3.83
v6.728
h-3.83z
m4.83
-26.548
h3.83
v13.127
h-3.83z
m4.83
28.778
h3.83
v11.619
h-3.83z
m4.83
-30.355
h3.83
v15.78
h-3.83z
m4.83
29.13
h3.83
v11.767
h-3.83z
m4.83
-23.395
h3.83
v9.899
h-3.83z
m4.83
1.474
h3.83
v12.317
h-3.83z
m4.83
-8.16
h3.83
v4.2
h-3.83z
m4.829
-22.507
h3.83
v4.297
h-3.83z
m4.83
13.457
h3.83
v11.016
h-3.83z
m4.83
7.52
h3.83
v6.124
h-3.83z
m4.83
29.611
h3.83
v5.521
h-3.83z
m4.83
-14.723
h3.83
v2.517
h-3.83z
m4.83
20.139
h3.83
v6.905
h-3.83z
m4.83
-42.13
h3.83
v4.773
h-3.83z
m4.83
39.466
h3.83
v6.905
h-3.83z
m4.83
-43.174
h3.83
v13.901
h-3.83z
m4.83
-6.945
h3.83
v5.001
h-3.83z
m4.83
39.263
h3.83
v5.908
h-3.83z
m4.83
-9.903
h3.83
v2.471
h-3.83z
m4.83
-9.846
h3.83
v5.805
h-3.83z
m4.83
14.16
h3.83
v6.932
h-3.83z
m4.83
10.085
h3.83
v17.093
h-3.83z
m4.829
-25.515
h3.83
v10.093
h-3.83z
m4.83
17.799
h3.83
v12.944
h-3.83z
m4.83
-23.774
h3.83
v4.831
h-3.83z
m4.83
36.023
h3.83
v6.034
h-3.83z
m4.83
3.769
h3.83
v6.683
h-3.83z
m4.83
-17.027
h3.83
v4.538
h-3.83z
m4.83
-8.978
h3.83
v3.309
h-3.83z
m4.83
2.74
h3.83
v6.857
h-3.83z
m4.83
20.857
h3.83
v11.467
h-3.83z
m4.83
-16.232
h3.83
v7.833
h-3.83z
m4.83
-22.14
h3.83
v6.948
h-3.83z
m4.83
-9.495
h3.83
v8.398
h-3.83z
m4.83
4.913
h3.83
v7.075
h-3.83z
m4.83
20.073
h3.83
v1.875
h-3.83z
m4.829
1.033
h3.83
v8.225
h-3.83z
m4.83
18.35
h3.83
v6.941
h-3.83z
m4.83
19.712
h3.83
v5.439
h-3.83z
m4.83
-59.171
h3.83
v3.921
h-3.83z
m4.83
43.035
h3.83
v5.084
h-3.83z
m4.83
-48.907
h3.83
v5.738
h-3.83z
m4.83
36.086
h3.83
v4.445
h-3.83z
m4.83
.678
h3.83
v6.154
h-3.83z
m4.83
-24.466
h3.83
v7.566
h-3.83z
m4.83
17.922
h3.83
v6.523
h-3.83z
m4.83
-46.809
h3.83
v11.219
h-3.83z
m4.83
51.742
h3.83
v12.846
h-3.83z
m4.83
14.876
h3.83
v7.259
h-3.83z
m4.83
-71.046
h3.83
v3.436
h-3.83z
m4.83
-18.775
h3.83
v4.876
h-3.83z
m4.829
-3.626
h3.83
v15.971
h-3.83z
m4.83
38.053
h3.83
v4.054
h-3.83z
m4.83
-6.906
h3.83
v3.347
h-3.83z
m4.83
29.89
h3.83
v.71
h-3.83z
m4.83
-7.068
h3.83
v3.205
h-3.83z
m4.83
33.582
h3.83
v6.24
h-3.83z
m4.83
-30.32
h3.83
v5.283
h-3.83z
m4.83
-51.984
h3.83
v34.238
h-3.83z
m4.83
54.815
h3.83
v11.297
h-3.83z
m4.83
17.301
h3.83
v6.973
h-3.83z
m4.83
25.445
h3.83
v3.6
h-3.83z
m4.83
-19.797
h3.83
v4.57
h-3.83z
m4.83
4.624
h3.83
v1.141
h-3.83z
m4.83
59.817
h3.83
v.494
h-3.83z
m4.83
-32.375
h3.83
v2.672
h-3.83z
m4.829
25.456
h3.83
v1.836
h-3.83z
m4.83
-58.103
h3.83
v.753
h-3.83z
m9.66
-.054
h3.83
v14.963
h-3.83z
m4.83
8.345
h3.83
v11.313
h-3.83z
m4.83
-51.383
h3.83
v.723
h-3.83z
m4.83
85.697
h3.83
v11.372
h-3.83z
m9.66
-77.926
h3.83
v1.043
h-3.83z
m4.83
-4.727
h3.83
v12.5
h-3.83z
m4.83
31.085
h3.83
v1.038
h-3.83z
m4.83
-22.157
h3.83
v9.07
h-3.83z
m4.83
-21.927
h3.83
v.73
h-3.83z
m4.83
4.686
h3.83
v5.216
h-3.83z
m4.829
-4.646
h3.83
v6.663
h-3.83z
m4.83
22.645
h3.83
v12.017
h-3.83z
m4.83
92.018
h3.83
v.86
h-3.83z
m4.83
-22.428
h3.83
v11.953
h-3.83z
m4.83
9.97
h3.83
v9.808
h-3.83z
m4.83
-39.844
h3.83
v1.108
h-3.83z
m9.66
-80.513
h3.83
v.856
h-3.83z
m4.83
75.814
h3.83
v.391
h-3.83z
m9.66
93.181
h3.83
v17.053
h-3.83z
m4.83
-130.201
h3.83
v47.698
h-3.83z
m4.83
-.527
h3.83
v5.53
h-3.83z
m4.83
103.86
h3.83
v25.556
h-3.83z
m4.83
-58.462
h3.83
V235
h-3.83z
m9.659
107.015
h3.83
v15.409
h-3.83z
M746.35
300
h3.83
v12
h-3.83z
m4.83
-26.364
h3.83
v4.545
h-3.83z
m9.66
-6.695
h3.83
v.9
h-3.83z
m4.83
-131.357
h3.83
v8.171
h-3.83z"/>
        <path fill="#70223b" d="
M60.5
137.239
h3.83
v40.504
H60.5z
m4.83
-2.719
h3.83
v45.868
h-3.83z
m4.83
-4.306
h3.83
v40.991
h-3.83z
m4.83
-11.618
h3.83
v37.039
h-3.83z
m4.83
-4.8
h3.83
v35.64
h-3.83z
m4.83
12.207
h3.83
v44.941
h-3.83z
m4.83
1.622
h3.83
v38.209
h-3.83z
m4.83
1.633
h3.83
v46.106
h-3.83z
m4.829
5.516
h3.83
v44.001
h-3.83z
m4.83
-3.571
h3.83
v35.927
h-3.83z
m4.83
-6.055
h3.83
v33.338
h-3.83z
m4.83
4.662
h3.83
v35.8
h-3.83z
m4.83
-.599
h3.83
v27.393
h-3.83z
m4.83
-3.175
h3.83
v31.552
h-3.83z
m4.83
-10.461
h3.83
v33.861
h-3.83z
m4.83
-2.293
h3.83
v34.474
h-3.83z
m4.83
19.259
h3.83
v35.635
h-3.83z
m4.83
-2.103
h3.83
v48.045
h-3.83z
m4.83
-6.309
h3.83
v49.523
h-3.83z
m4.83
-6.328
h3.83
v46.089
h-3.83z
m4.83
-16.325
h3.83
v45.526
h-3.83z
m4.83
14.402
h3.83
v29.462
h-3.83z
m4.83
11.501
h3.83
v36.557
h-3.83z
m4.829
-22.798
h3.83
v39.843
h-3.83z
m4.83
6.269
h3.83
v41.074
h-3.83z
m4.83
4.231
h3.83
v30.466
h-3.83z
m4.83
-2.885
h3.83
v41.086
h-3.83z
m4.83
.25
h3.83
v35.894
h-3.83z
m4.83
5.924
h3.83
v26.467
h-3.83z
m4.83
.874
h3.83
v34.627
h-3.83z
m4.83
6.816
h3.83
v33.71
h-3.83z
m4.83
-4.502
h3.83
v31.294
h-3.83z
m4.83
14.007
h3.83
v36.775
h-3.83z
m4.83
7.171
h3.83
v33.598
h-3.83z
m4.83
-4.611
h3.83
v35.07
h-3.83z
m4.83
1.693
h3.83
v31.18
h-3.83z
m4.83
-23.203
h3.83
v34.059
h-3.83z
m4.829
-9.996
h3.83
v37.93
h-3.83z
m4.83
7.514
h3.83
v25.375
h-3.83z
m4.83
8.889
h3.83
v27.975
h-3.83z
m4.83
-6.207
h3.83
v18.469
h-3.83z
m4.83
-13.134
h3.83
v40.272
h-3.83z
m4.83
14.797
h3.83
v34.234
h-3.83z
m4.83
20.287
h3.83
v26.353
h-3.83z
m4.83
9.441
h3.83
v38.289
h-3.83z
m4.83
-21.839
h3.83
v30.631
h-3.83z
m4.83
13.707
h3.83
v37.192
h-3.83z
m4.83
-16.54
h3.83
v30.792
h-3.83z
m4.83
.894
h3.83
v41.844
h-3.83z
m4.83
2.945
h3.83
v27.916
h-3.83z
m4.83
5.808
h3.83
v33.746
h-3.83z
m4.83
-11.772
h3.83
v34.3
h-3.83z
m4.829
-14.139
h3.83
v18.11
h-3.83z
m4.83
23.636
h3.83
v14.293
h-3.83z
m4.83
-9.197
h3.83
v17.194
h-3.83z
m4.83
13.615
h3.83
v16.169
h-3.83z
m4.83
-12.824
h3.83
v23.177
h-3.83z
m4.83
-14.459
h3.83
v54.157
h-3.83z
m4.83
9.497
h3.83
v21.931
h-3.83z
m4.83
15.855
h3.83
v32.159
h-3.83z
m4.83
-22.717
h3.83
v21
h-3.83z
m4.83
-.107
h3.83
v17.134
h-3.83z
m4.83
.449
h3.83
v45.766
h-3.83z
m4.83
-4.168
h3.83
v48.466
h-3.83z
m4.83
11.509
h3.83
v23.909
h-3.83z
m4.83
.926
h3.83
v33.516
h-3.83z
m4.83
13.399
h3.83
v33.626
h-3.83z
m4.829
-18.242
h3.83
v27.629
h-3.83z
m4.83
-10.106
h3.83
v26.194
h-3.83z
m4.83
12.058
h3.83
v35.592
h-3.83z
m4.83
24.539
h3.83
v38.81
h-3.83z
m4.83
-20.785
h3.83
v48.722
h-3.83z
m4.83
15.098
h3.83
v35.127
h-3.83z
m4.83
-21.361
h3.83
v35.827
h-3.83z
m4.83
-5.885
h3.83
v49.485
h-3.83z
m4.83
13.123
h3.83
v44.537
h-3.83z
m4.83
-4.189
h3.83
v56.045
h-3.83z
m4.83
8.964
h3.83
v19.052
h-3.83z
m4.83
-23.908
h3.83
v39.276
h-3.83z
m4.83
17.179
h3.83
v29.199
h-3.83z
m4.83
5.416
h3.83
v48.761
h-3.83z
m4.829
-20.889
h3.83
v64.431
h-3.83z
m4.83
45.82
h3.83
v32.561
h-3.83z
m4.83
-22.349
h3.83
v51.861
h-3.83z
m4.83
-2.395
h3.83
v20.332
h-3.83z
m4.83
5.261
h3.83
v44.775
h-3.83z
m4.83
-30.873
h3.83
v29.98
h-3.83z
m4.83
24.593
h3.83
v34.041
h-3.83z
m4.83
6.787
h3.83
v32.419
h-3.83z
m4.83
-15.056
h3.83
v21.017
h-3.83z
m4.83
-.04
h3.83
v38.794
h-3.83z
m4.83
-12.039
h3.83
v22.07
h-3.83z
m4.83
9.209
h3.83
v24.635
h-3.83z
m4.83
12.374
h3.83
v34.741
h-3.83z
m4.83
-22.72
h3.83
v22.337
h-3.83z
m4.83
-12.807
h3.83
v28.942
h-3.83z
m4.829
7.578
h3.83
v9.005
h-3.83z
m4.83
12.21
h3.83
v24.625
h-3.83z
m4.83
-2.257
h3.83
v18.127
h-3.83z
m4.83
-3.183
h3.83
v62.399
h-3.83z
m4.83
7.6
h3.83
v39.697
h-3.83z
m4.83
20.208
h3.83
v46.657
h-3.83z
m4.83
-9.086
h3.83
v28.624
h-3.83z
m4.83
-26.294
h3.83
v22.492
h-3.83z
m4.83
-3.946
h3.83
v51.985
h-3.83z
m4.83
35.521
h3.83
v43.203
h-3.83z
m4.83
-13.237
h3.83
v52.68
h-3.83z
m4.83
6.692
h3.83
v23.356
h-3.83z
m4.83
-57.845
h3.83
v1.369
h-3.83z
m4.83
16.599
h3.83
v33.863
h-3.83z
m4.83
8.834
h3.83
v18.435
h-3.83z
m4.829
26.601
h3.83
v50.315
h-3.83z
m4.83
-39.65
h3.83
v43.656
h-3.83z
m4.83
5.516
h3.83
v18.202
h-3.83z
m4.83
5.351
h3.83
v59.851
h-3.83z
m4.83
15.044
h3.83
v43.131
h-3.83z
m4.83
-1.221
h3.83
v19.163
h-3.83z
m4.83
-6.802
h3.83
v84.657
h-3.83z
m4.83
73.656
h3.83
v60.345
h-3.83z
m4.83
-101.091
h3.83
v4.173
h-3.83z
m4.83
46.085
h3.83
v23.438
h-3.83z
m4.83
-25.714
h3.83
v52.569
h-3.83z
m4.83
-17.026
h3.83
v22.409
h-3.83z
m4.83
15.214
h3.83
v51.095
h-3.83z
m4.83
26.821
h3.83
v10.432
h-3.83z
m4.829
-11.661
h3.83
v16.461
h-3.83z
m4.83
29.121
h3.83
v18.777
h-3.83z
m4.83
-36.421
h3.83
v13.759
h-3.83z
m4.83
110.011
h3.83
v1.121
h-3.83z
m4.83
-19.311
h3.83
v19.617
h-3.83z
m4.83
-74.644
h3.83
v12.737
h-3.83z
m4.83
-1.007
h3.83
v63.636
h-3.83z
m4.83
-36.602
h3.83
v54.768
h-3.83z
m4.83
-9.17
h3.83
v48.883
h-3.83z
m9.66
88.184
h3.83
v7.309
h-3.83z
m4.83
-60.489
h3.83
v44.475
h-3.83z
m4.83
-12.269
h3.83
v3.95
h-3.83z
m14.489
68.27
h3.83
v23.415
h-3.83z
m4.83
-53.733
h3.83
v3.302
h-3.83z
M746.35
109
h3.83
v4
h-3.83z
m4.83
7.364
h3.83
V150
h-3.83z
M756.01
60
h3.83
v6.938
h-3.83z
m4.83
21.594
h3.83
V95.09
h-3.83z"/>
        <path fill="#91ccf0" d="
M60.5
121.808
h3.83
v15.431
H60.5z
m4.83
-3.857
h3.83
v16.569
h-3.83z
m4.83
-9.106
h3.83
v21.37
h-3.83z
m4.83
-5.146
h3.83
v14.897
h-3.83z
m4.83
-4.974
h3.83
v15.071
h-3.83z
m4.83
14.19
h3.83
v13.089
h-3.83z
m4.83
.488
h3.83
v14.222
h-3.83z
m4.83
2.028
h3.83
v13.827
h-3.83z
m4.829
2.018
h3.83
v17.325
h-3.83z
m4.83
.586
h3.83
v13.168
h-3.83z
m4.83
-10.794
h3.83
v17.906
h-3.83z
m4.83
1.306
h3.83
v21.263
h-3.83z
m4.83
4.192
h3.83
v16.472
h-3.83z
m4.83
-1.609
h3.83
v14.906
h-3.83z
m4.83
-10.559
h3.83
v15.003
h-3.83z
m4.83
-4.862
h3.83
v17.572
h-3.83z
m4.83
15.431
h3.83
v21.401
h-3.83z
m4.83
4.661
h3.83
v14.636
h-3.83z
m4.83
-7.498
h3.83
v15.826
h-3.83z
m4.83
-7.424
h3.83
v16.922
h-3.83z
m4.83
-8.724
h3.83
v9.322
h-3.83z
m4.83
6.382
h3.83
v17.342
h-3.83z
m4.83
14.647
h3.83
v14.195
h-3.83z
m4.829
-25.942
h3.83
v17.339
h-3.83z
m4.83
7.032
h3.83
v16.577
h-3.83z
m4.83
6.18
h3.83
v14.627
h-3.83z
m4.83
-5.853
h3.83
v17.595
h-3.83z
m4.83
11.508
h3.83
v6.337
h-3.83z
m4.83
5.756
h3.83
v6.505
h-3.83z
m4.83
-13.561
h3.83
v20.94
h-3.83z
m4.83
7.197
h3.83
v20.559
h-3.83z
m4.83
-5.071
h3.83
v21.128
h-3.83z
m4.83
24.713
h3.83
v10.423
h-3.83z
m4.83
.01
h3.83
v17.583
h-3.83z
m4.83
.024
h3.83
v12.949
h-3.83z
m4.83
3.689
h3.83
v10.952
h-3.83z
m4.83
-26.89
h3.83
v14.639
h-3.83z
m4.829
-7.461
h3.83
v12.104
h-3.83z
m4.83
7.718
h3.83
v11.9
h-3.83z
m4.83
3.344
h3.83
v17.445
h-3.83z
m4.83
-3.09
h3.83
v14.328
h-3.83z
m4.83
-9.271
h3.83
v10.464
h-3.83z
m4.83
3.283
h3.83
v21.979
h-3.83z
m4.83
31.181
h3.83
v11.084
h-3.83z
m4.83
5.41
h3.83
v15.116
h-3.83z
m4.83
-23.099
h3.83
v16.376
h-3.83z
m4.83
14.511
h3.83
v15.572
h-3.83z
m4.83
-13.143
h3.83
v12.175
h-3.83z
m4.83
-3.394
h3.83
v16.463
h-3.83z
m4.83
1.345
h3.83
v18.063
h-3.83z
m4.83
9.511
h3.83
v14.36
h-3.83z
m4.83
-7.148
h3.83
v9.736
h-3.83z
m4.829
-15.913
h3.83
v11.511
h-3.83z
m4.83
22.178
h3.83
v12.968
h-3.83z
m4.83
.003
h3.83
v3.769
h-3.83z
m4.83
2.791
h3.83
v14.592
h-3.83z
m4.83
-10.211
h3.83
V122.5
h-3.83z
m4.83
-10.865
h3.83
v8.385
h-3.83z
m4.83
-4.05
h3.83
v21.931
h-3.83z
m4.83
17.072
h3.83
v20.716
h-3.83z
m4.83
-13.833
h3.83
v11.831
h-3.83z
m4.83
-1.15
h3.83
v12.874
h-3.83z
m4.83
-5.621
h3.83
v18.944
h-3.83z
m4.83
3.658
h3.83
v11.119
h-3.83z
m4.83
12.926
h3.83
v9.701
h-3.83z
m4.83
-8.211
h3.83
v18.837
h-3.83z
m4.83
-1.07
h3.83
v33.307
h-3.83z
m4.829
-10.423
h3.83
v25.488
h-3.83z
m4.83
-5.002
h3.83
v20.384
h-3.83z
m4.83
6.513
h3.83
v25.93
h-3.83z
m4.83
21.597
h3.83
v28.871
h-3.83z
m4.83
-18.108
h3.83
v26.193
h-3.83z
m4.83
16.694
h3.83
v24.598
h-3.83z
m4.83
-7.698
h3.83
v10.935
h-3.83z
m4.83
-16.582
h3.83
V108
h-3.83z
m4.83
14.381
h3.83
v20.374
h-3.83z
m4.83
-2.955
h3.83
v19.139
h-3.83z
m4.83
21.604
h3.83
v6.5
h-3.83z
m4.83
-29.941
h3.83
v12.532
h-3.83z
m4.83
13.119
h3.83
v16.593
h-3.83z
m4.83
-2.841
h3.83
v24.849
h-3.83z
m4.829
-1.094
h3.83
v5.055
h-3.83z
m4.83
32.196
h3.83
v18.679
h-3.83z
m4.83
-25.427
h3.83
v21.756
h-3.83z
m4.83
-.97
h3.83
v20.332
h-3.83z
m4.83
8.208
h3.83
v17.385
h-3.83z
m4.83
-25.681
h3.83
V99.16
h-3.83z
m4.83
28.364
h3.83
v8.422
h-3.83z
m4.83
1.552
h3.83
v13.658
h-3.83z
m4.83
-19.333
h3.83
v17.934
h-3.83z
m4.83
16.006
h3.83
v1.888
h-3.83z
m4.83
-23.025
h3.83
v12.874
h-3.83z
m4.83
8.534
h3.83
v13.55
h-3.83z
m4.83
9.676
h3.83
v16.247
h-3.83z
m4.83
-11.112
h3.83
v4.639
h-3.83z
m4.83
-19.579
h3.83
v11.411
h-3.83z
m4.829
7.266
h3.83
v11.723
h-3.83z
m4.83
11.621
h3.83
v12.312
h-3.83z
m4.83
3.083
h3.83
v6.972
h-3.83z
m4.83
-4.381
h3.83
v8.17
h-3.83z
m4.83
-6.174
h3.83
v21.944
h-3.83z
m4.83
16.909
h3.83
v25.243
h-3.83z
m4.83
5.96
h3.83
v10.197
h-3.83z
m4.83
-25.843
h3.83
v9.747
h-3.83z
m4.83
-3.098
h3.83
v8.897
h-3.83z
m4.83
31.021
h3.83
v13.398
h-3.83z
m4.83
-10.451
h3.83
v10.612
h-3.83z
m4.83
6.641
h3.83
v10.662
h-3.83z
m4.83
-48.551
h3.83
v1.369
h-3.83z
m4.83
7.34
h3.83
v10.629
h-3.83z
m4.83
16.79
h3.83
v2.672
h-3.83z
m4.829
25.601
h3.83
v3.673
h-3.83z
m4.83
-49.526
h3.83
v13.548
h-3.83z
m4.83
1.382
h3.83
v17.682
h-3.83z
m4.83
18.479
h3.83
v4.554
h-3.83z
m9.66
14.4
h3.83
v3.977
h-3.83z
m4.83
-23.041
h3.83
v20.217
h-3.83z
m4.83
84.344
h3.83
v9.528
h-3.83z
m4.83
-93.649
h3.83
v2.086
h-3.83z
m4.83
19.265
h3.83
v28.906
h-3.83z
m4.83
-6.837
h3.83
v10.03
h-3.83z
m9.66
-7.842
h3.83
v16.058
h-3.83z
m4.83
-.935
h3.83
v43.815
h-3.83z
m4.829
26.275
h3.83
v5.879
h-3.83z
m4.83
-1.803
h3.83
v36.803
h-3.83z
m4.83
-14.237
h3.83
v14.619
h-3.83z
m4.83
45.068
h3.83
v79.562
h-3.83z
m4.83
23.599
h3.83
v36.652
h-3.83z
m4.83
-40.761
h3.83
v2.769
h-3.83z
m4.83
-20.845
h3.83
v22.608
h-3.83z
m4.83
-18.274
h3.83
v4.279
h-3.83z
m14.49
30.509
h3.83
v52.784
h-3.83z
m4.83
-12.217
h3.83
v4.512
h-3.83z
m9.66
-5.138
h3.83
v10
h-3.83z
m4.83
23.75
h3.83
v1.122
h-3.83z
m4.829
1.849
h3.83
v40.053
h-3.83z
m4.83
-20.285
h3.83
v6.604
h-3.83z
M746.35
104
h3.83
v5
h-3.83z
m4.83
7.818
h3.83
v4.545
h-3.83z
m14.49
-34.114
h3.83
v28.599
h-3.83z"/>
        <path fill="#aaf155" d="
M60.5
68.351
h3.83
v15.681
H60.5z
m4.83
-.15
h3.83
v11.206
h-3.83z
m4.83
-2.235
h3.83
v9.741
h-3.83z
m4.83
-2.441
h3.83
v11.248
h-3.83z
m4.83
-2.368
h3.83
v10.964
h-3.83z
m4.83
3.459
h3.83
v11.071
h-3.83z
m4.83
1.191
h3.83
v11.852
h-3.83z
m4.83
-2.888
h3.83
v14.742
h-3.83z
m4.829
1.646
h3.83
v14.713
h-3.83z
m4.83
-.691
h3.83
v14.224
h-3.83z
m4.83
1.29
h3.83
v11.123
h-3.83z
m4.83
-4.133
h3.83
v11.038
h-3.83z
m4.83
2.976
h3.83
V77.6
h-3.83z
m4.83
.427
h3.83
v10.574
h-3.83z
m4.83
.04
h3.83
v12.147
h-3.83z
m4.83
-3.945
h3.83
v12.703
h-3.83z
m4.83
5.139
h3.83
v11.14
h-3.83z
m4.83
.218
h3.83
v18.176
h-3.83z
m4.83
-.431
h3.83
v10.371
h-3.83z
m4.83
1.276
h3.83
v7.91
h-3.83z
m4.83
-4.811
h3.83
v6.843
h-3.83z
m4.83
2.182
h3.83
V76.16
h-3.83z
m4.83
-3.594
h3.83
v8.676
h-3.83z
m4.829
.644
h3.83
v10.923
h-3.83z
m4.83
2.055
h3.83
v9.389
h-3.83z
m4.83
1.39
h3.83
v12.621
h-3.83z
m4.83
-2.194
h3.83
v8.027
h-3.83z
m4.83
-.133
h3.83
v9.647
h-3.83z
m4.83
5.438
h3.83
v11.941
h-3.83z
m4.83
-2.09
h3.83
v12.257
h-3.83z
m4.83
-4.207
h3.83
v10.481
h-3.83z
m4.83
.978
h3.83
v8.62
h-3.83z
m4.83
.118
h3.83
v18.092
h-3.83z
m4.83
.107
h3.83
v31.84
h-3.83z
m4.83
-.726
h3.83
v13.165
h-3.83z
m4.83
-1.437
h3.83
v17.716
h-3.83z
m4.83
3.956
h3.83
V72.1
h-3.83z
m4.829
-1.89
h3.83
v10.247
h-3.83z
m4.83
2.266
h3.83
v8.225
h-3.83z
m4.83
-.382
h3.83
v16.816
h-3.83z
m4.83
4.544
h3.83
v11.761
h-3.83z
m4.83
-4.188
h3.83
v6.501
h-3.83z
m4.83
-.961
h3.83
v6.527
h-3.83z
m4.83
1.489
h3.83
v9.836
h-3.83z
m4.83
4.931
h3.83
v16.196
h-3.83z
m4.83
-8.625
h3.83
v14.52
h-3.83z
m4.83
7.393
h3.83
V87.79
h-3.83z
m4.83
-8.038
h3.83
v13.652
h-3.83z
m4.83
4.436
h3.83
v14.247
h-3.83z
m4.83
-2.989
h3.83
v10.885
h-3.83z
m4.83
3.793
h3.83
v12.372
h-3.83z
m4.83
1.705
h3.83
v18.455
h-3.83z
m4.829
-6.51
h3.83
v11.741
h-3.83z
m4.83
36.059
h3.83
v8.715
h-3.83z
m4.83
-3.995
h3.83
v3.769
h-3.83z
m4.83
-29.896
h3.83
v22.282
h-3.83z
m4.83
10.514
h3.83
v9.809
h-3.83z
m4.83
-4.593
h3.83
v2.466
h-3.83z
m4.83
-8.051
h3.83
v10.45
h-3.83z
m4.83
3.316
h3.83
v7.99
h-3.83z
m4.83
-4.636
h3.83
v4.732
h-3.83z
m4.83
13.238
h3.83
v4.353
h-3.83z
m4.83
-6.397
h3.83
v7.596
h-3.83z
m4.83
-2.093
h3.83
v3.326
h-3.83z
m4.83
-2.479
h3.83
v7.791
h-3.83z
m4.83
-.982
h3.83
v11.987
h-3.83z
m4.83
-1.306
h3.83
v6.949
h-3.83z
m4.829
.634
h3.83
v11.521
h-3.83z
m4.83
2.242
h3.83
v8.154
h-3.83z
m4.83
.396
h3.83
v9.169
h-3.83z
m4.83
1.144
h3.83
v21.416
h-3.83z
m4.83
-3.634
h3.83
v5.282
h-3.83z
m4.83
.136
h3.83
v17.881
h-3.83z
m4.83
9.074
h3.83
v11.151
h-3.83z
m4.83
-9.436
h3.83
v4.524
h-3.83z
m4.83
.746
h3.83
v9.112
h-3.83z
m4.83
3.14
h3.83
v9.61
h-3.83z
m4.83
-.712
h3.83
v4.147
h-3.83z
m4.83
1.229
h3.83
v4.522
h-3.83z
m4.83
8.081
h3.83
v6.946
h-3.83z
m4.83
-7.728
h3.83
v5.392
h-3.83z
m4.829
-.508
h3.83
v11.567
h-3.83z
m4.83
5.425
h3.83
v14.902
h-3.83z
m4.83
-8.285
h3.83
v5.819
h-3.83z
m4.83
.009
h3.83
v13.216
h-3.83z
m4.83
1.411
h3.83
v15.253
h-3.83z
m4.83
2.581
h3.83
v5.881
h-3.83z
m4.83
-.41
h3.83
v12.751
h-3.83z
m4.83
-4.264
h3.83
v4.202
h-3.83z
m4.83
-.23
h3.83
v8.127
h-3.83z
m4.83
-.434
h3.83
v10.471
h-3.83z
m4.83
-.503
h3.83
v1.287
h-3.83z
m4.83
1.752
h3.83
v2.64
h-3.83z
m4.83
3.595
h3.83
v12.617
h-3.83z
m4.83
-2.266
h3.83
v14.089
h-3.83z
m4.83
-1.502
h3.83
v7.573
h-3.83z
m4.829
-.744
h3.83
v2.888
h-3.83z
m4.83
.182
h3.83
v2.553
h-3.83z
m4.83
-.783
h3.83
v8.367
h-3.83z
m4.83
1.832
h3.83
v3.315
h-3.83z
m4.83
-.894
h3.83
v6.657
h-3.83z
m4.83
.062
h3.83
v13.756
h-3.83z
m4.83
.425
h3.83
v16.216
h-3.83z
m4.83
-1.218
h3.83
v7.122
h-3.83z
m4.83
.475
h3.83
v4.399
h-3.83z
m4.83
3.138
h3.83
v15.176
h-3.83z
m4.83
-2.533
h3.83
v17.434
h-3.83z
m4.83
3.542
h3.83
v2.877
h-3.83z
m4.83
-5.247
h3.83
v2.053
h-3.83z
m4.83
.247
h3.83
v4.449
h-3.83z
m4.83
3.761
h3.83
v3.74
h-3.83z
m4.829
6.643
h3.83
v.367
h-3.83z
M601.452
60
h3.83
v.753
h-3.83z
m9.66
1.952
h3.83
v.651
h-3.83z
m4.83
25.624
h3.83
V95
h-3.83z
m4.83
-27.214
h3.83
v.362
h-3.83z
m4.83
-.362
h3.83
v1.264
h-3.83z
m4.83
0
h3.83
v.635
h-3.83z
m14.49
0
h3.83
v10.721
h-3.83z
m4.83
0
h3.83
v5.335
h-3.83z
m4.83
2.555
h3.83
v1.46
h-3.83z
m4.83
-2.033
h3.83
v2.086
h-3.83z
m4.829
-.522
h3.83
v7.055
h-3.83z
m4.83
0
h3.83
v4.506
h-3.83z
m4.83
0
h3.83
v6.02
h-3.83z
m4.83
26.147
h3.83
v3.362
h-3.83z
m4.83
-3.433
h3.83
v22.198
h-3.83z
m4.83
-.562
h3.83
v9.968
h-3.83z
m4.83
-19.64
h3.83
v.837
h-3.83z
m4.83
-2.512
h3.83
v1.711
h-3.83z
m4.83
0
h3.83
v.782
h-3.83z
m14.49
0
h3.83
v10.313
h-3.83z
m14.49
0
h3.83
v2.244
h-3.83z
m4.829
0
h3.83
v35.123
h-3.83z
m4.83
15.409
h3.83
v5.503
h-3.83z
M746.35
60
h3.83
v32
h-3.83z
m4.83
3.636
h3.83
v20.909
h-3.83z
m14.49
-1.593
h3.83
v1.362
h-3.83z"/>
        <path fill="#f0c097" d="
M60.5
177.743
h3.83
v23.386
H60.5z
m4.83
2.645
h3.83
v17.049
h-3.83z
m4.83
-9.182
h3.83
v18.293
h-3.83z
m4.83
-15.571
h3.83
v16.863
h-3.83z
m4.83
-6.199
h3.83
v21.324
h-3.83z
m4.83
21.509
h3.83
v16.406
h-3.83z
m4.83
-5.111
h3.83
v21.594
h-3.83z
m4.83
9.53
h3.83
v15.929
h-3.83z
m4.829
3.411
h3.83
v20.928
h-3.83z
m4.83
-11.645
h3.83
v16.798
h-3.83z
m4.83
-8.645
h3.83
v26.89
h-3.83z
m4.83
7.125
h3.83
v16.707
h-3.83z
m4.83
-9.006
h3.83
v14.186
h-3.83z
m4.83
.984
h3.83
v18.215
h-3.83z
m4.83
-8.152
h3.83
v13.111
h-3.83z
m4.83
-1.68
h3.83
v11.468
h-3.83z
m4.83
20.42
h3.83
v23.388
h-3.83z
m4.83
10.307
h3.83
v13.761
h-3.83z
m4.83
-4.831
h3.83
v19.809
h-3.83z
m4.83
-9.762
h3.83
v15.211
h-3.83z
m4.83
-16.888
h3.83
v18.993
h-3.83z
m4.83
-1.662
h3.83
v17.994
h-3.83z
m4.83
18.596
h3.83
v15.429
h-3.83z
m4.829
-19.512
h3.83
v18.03
h-3.83z
m4.83
7.5
h3.83
v18.624
h-3.83z
m4.83
-6.378
h3.83
v35.439
h-3.83z
m4.83
7.736
h3.83
v13.514
h-3.83z
m4.83
-4.943
h3.83
v23.598
h-3.83z
m4.83
-3.501
h3.83
v25.13
h-3.83z
m4.83
9.033
h3.83
v16.599
h-3.83z
m4.83
5.899
h3.83
v12.748
h-3.83z
m4.83
-6.918
h3.83
v20.566
h-3.83z
m4.83
19.488
h3.83
v26.647
h-3.83z
m4.83
3.994
h3.83
v17.203
h-3.83z
m4.83
-3.138
h3.83
v11.007
h-3.83z
m4.83
-2.198
h3.83
v6.378
h-3.83z
m4.83
-20.324
h3.83
v20.54
h-3.83z
m4.829
-6.125
h3.83
v14.92
h-3.83z
m4.83
-5.041
h3.83
v6.3
h-3.83z
m4.83
11.489
h3.83
v6.365
h-3.83z
m4.83
-15.713
h3.83
v15.902
h-3.83z
m4.83
8.668
h3.83
v9.275
h-3.83z
m4.83
8.76
h3.83
v17.45
h-3.83z
m4.83
12.405
h3.83
v14.975
h-3.83z
m4.83
21.378
h3.83
v13.787
h-3.83z
m4.83
-29.497
h3.83
v10.807
h-3.83z
m4.83
20.268
h3.83
v21.501
h-3.83z
m4.83
-22.94
h3.83
v18.026
h-3.83z
m4.83
11.946
h3.83
v25.381
h-3.83z
m4.83
-10.984
h3.83
v12.339
h-3.83z
m4.83
11.64
h3.83
v9.279
h-3.83z
m4.83
-11.219
h3.83
v10.309
h-3.83z
m4.829
-30.329
h3.83
v8.364
h-3.83z
m4.83
19.819
h3.83
v6.275
h-3.83z
m4.83
-6.296
h3.83
v16.252
h-3.83z
m4.83
12.59
h3.83
v15.38
h-3.83z
m4.83
-5.816
h3.83
v9.201
h-3.83z
m4.83
16.521
h3.83
v22.393
h-3.83z
m4.83
-22.729
h3.83
v13.546
h-3.83z
m4.83
26.083
h3.83
v15.29
h-3.83z
m4.83
-33.876
h3.83
v20.408
h-3.83z
m4.83
-3.973
h3.83
v16.949
h-3.83z
m4.83
29.082
h3.83
v11.16
h-3.83z
m4.83
-1.469
h3.83
v12.829
h-3.83z
m4.83
-13.048
h3.83
v10.007
h-3.83z
m4.83
10.533
h3.83
v20.387
h-3.83z
m4.83
13.509
h3.83
v17.572
h-3.83z
m4.829
-24.239
h3.83
v25.896
h-3.83z
m4.83
-11.541
h3.83
v27.315
h-3.83z
m4.83
21.456
h3.83
v11.141
h-3.83z
m4.83
27.757
h3.83
v18.813
h-3.83z
m4.83
-10.873
h3.83
v18.325
h-3.83z
m4.83
1.503
h3.83
v9.168
h-3.83z
m4.83
-20.661
h3.83
v16.619
h-3.83z
m4.83
7.773
h3.83
v7.564
h-3.83z
m4.83
8.175
h3.83
v26.825
h-3.83z
m4.83
7.319
h3.83
v10.741
h-3.83z
m4.83
-28.029
h3.83
v17.707
h-3.83z
m4.83
-3.684
h3.83
v11.499
h-3.83z
m4.83
7.102
h3.83
v20.452
h-3.83z
m4.83
24.978
h3.83
v4.454
h-3.83z
m4.829
-5.219
h3.83
v12.081
h-3.83z
m4.83
13.949
h3.83
v12.963
h-3.83z
m4.83
-3.048
h3.83
v32.635
h-3.83z
m4.83
-33.924
h3.83
v19.461
h-3.83z
m4.83
29.704
h3.83
v16.073
h-3.83z
m4.83
-45.669
h3.83
v10.471
h-3.83z
m4.83
28.655
h3.83
v14.739
h-3.83z
m4.83
5.165
h3.83
v9.756
h-3.83z
m4.83
-26.458
h3.83
v18.775
h-3.83z
m4.83
17.736
h3.83
v24.89
h-3.83z
m4.83
-28.761
h3.83
v13.794
h-3.83z
m4.83
11.774
h3.83
v22.348
h-3.83z
m4.83
22.478
h3.83
v16.074
h-3.83z
m4.83
-35.123
h3.83
v9.107
h-3.83z
m4.83
-6.203
h3.83
v4.668
h-3.83z
m4.829
-12.358
h3.83
v6.796
h-3.83z
m4.83
27.83
h3.83
v14.865
h-3.83z
m4.83
-8.754
h3.83
v13.247
h-3.83z
m4.83
41.088
h3.83
v10.183
h-3.83z
m4.83
-15.102
h3.83
v7.52
h-3.83z
m4.83
27.168
h3.83
v13.614
h-3.83z
m4.83
-27.119
h3.83
v13.636
h-3.83z
m4.83
-32.426
h3.83
v2.249
h-3.83z
m4.83
25.547
h3.83
v23.193
h-3.83z
m4.83
26.74
h3.83
v9.98
h-3.83z
m4.83
-3.761
h3.83
v17.623
h-3.83z
m4.83
-22.632
h3.83
v6.093
h-3.83z
m9.66
-30.739
h3.83
v9.145
h-3.83z
m4.83
-6.594
h3.83
v8.55
h-3.83z
m14.489
-7.765
h3.83
v16.122
h-3.83z
m4.83
46.999
h3.83
v7.807
h-3.83z
m4.83
-1.676
h3.83
v31.465
h-3.83z
m4.83
-25.189
h3.83
v19.163
h-3.83z
m4.83
58.692
h3.83
v11.793
h-3.83z
m4.83
49.344
h3.83
v1.906
h-3.83z
m4.83
-157.263
h3.83
v41.207
h-3.83z
m4.83
65.349
h3.83
v21.094
h-3.83z
m4.83
3.419
h3.83
v1.729
h-3.83z
m4.83
-47.188
h3.83
v16.54
h-3.83z
m4.83
43.9
h3.83
v2.19
h-3.83z
m4.83
-13.84
h3.83
v.522
h-3.83z
m4.829
-5.633
h3.83
v5.095
h-3.83z
m4.83
31.437
h3.83
v3.004
h-3.83z
m4.83
-41.439
h3.83
v85.995
h-3.83z
m14.49
15.035
h3.83
v29.905
h-3.83z
m4.83
49.892
h3.83
v.837
h-3.83z
m9.66
-60.526
h3.83
v6.257
h-3.83z
M707.711
60
h3.83
v8.924
h-3.83z
m4.83
97.448
h3.83
v12.993
h-3.83z
m9.66
-76.116
h3.83
v72.686
h-3.83z
m4.83
8.668
h3.83
v38.889
h-3.83z
m9.659
79.067
h3.83
v11.708
h-3.83z
m4.83
-73.847
h3.83
v11.006
h-3.83z
m4.83
17.78
h3.83
v49
h-3.83z
m4.83
37
h3.83
v5.455
h-3.83z
m4.83
-83.062
h3.83
v12.335
h-3.83z
m4.83
28.152
h3.83
v2.699
h-3.83z
m4.83
11.214
h3.83
v3.405
h-3.83z"/>
        <path fill="#16234f" d="
M60.5
60
h3.83
v8.351
H60.5z
m4.83
0
h3.83
v8.201
h-3.83z
m4.83
0
h3.83
v5.966
h-3.83z
m4.83
0
h3.83
v3.525
h-3.83z
m4.83
0
h3.83
v1.157
h-3.83z
m4.83
0
h3.83
v4.616
h-3.83z
m4.83
0
h3.83
v5.807
h-3.83z
m4.83
0
h3.83
v2.919
h-3.83z
m4.829
0
h3.83
v4.565
h-3.83z
m4.83
0
h3.83
v3.874
h-3.83z
m4.83
0
h3.83
v5.164
h-3.83z
m4.83
0
h3.83
v1.031
h-3.83z
m4.83
0
h3.83
v4.007
h-3.83z
m4.83
0
h3.83
v4.434
h-3.83z
m4.83
0
h3.83
v4.474
h-3.83z
m4.83
0
h3.83
v.529
h-3.83z
m4.83
0
h3.83
v5.668
h-3.83z
m4.83
0
h3.83
v5.886
h-3.83z
m4.83
0
h3.83
v5.455
h-3.83z
m4.83
0
h3.83
v6.731
h-3.83z
m4.83
0
h3.83
v1.92
h-3.83z
m4.83
0
h3.83
v4.102
h-3.83z
m4.83
0
h3.83
v.508
h-3.83z
m4.829
0
h3.83
v1.152
h-3.83z
m4.83
0
h3.83
v3.207
h-3.83z
m4.83
0
h3.83
v4.597
h-3.83z
m4.83
0
h3.83
v2.403
h-3.83z
m4.83
0
h3.83
v2.27
h-3.83z
m4.83
0
h3.83
v7.708
h-3.83z
m4.83
0
h3.83
v5.618
h-3.83z
m4.83
0
h3.83
v1.411
h-3.83z
m4.83
0
h3.83
v2.389
h-3.83z
m4.83
0
h3.83
v2.507
h-3.83z
m4.83
0
h3.83
v2.614
h-3.83z
m4.83
0
h3.83
v1.888
h-3.83z
m4.83
0
h3.83
v.451
h-3.83z
m4.83
0
h3.83
v4.407
h-3.83z
m4.829
0
h3.83
v2.517
h-3.83z
m4.83
0
h3.83
v4.783
h-3.83z
m4.83
0
h3.83
v4.401
h-3.83z
m4.83
0
h3.83
v8.945
h-3.83z
m4.83
0
h3.83
v4.757
h-3.83z
m4.83
0
h3.83
v3.796
h-3.83z
m4.83
0
h3.83
v5.285
h-3.83z
m4.83
0
h3.83
v10.216
h-3.83z
m4.83
0
h3.83
v1.591
h-3.83z
m4.83
0
h3.83
v8.984
h-3.83z
m4.83
0
h3.83
v.946
h-3.83z
m4.83
0
h3.83
v5.382
h-3.83z
m4.83
0
h3.83
v2.393
h-3.83z
m4.83
0
h3.83
v6.186
h-3.83z
m4.83
0
h3.83
v7.891
h-3.83z
m4.829
0
h3.83
v1.381
h-3.83z
m4.83
0
h3.83
v37.44
h-3.83z
m4.83
0
h3.83
v33.445
h-3.83z
m4.83
0
h3.83
v3.549
h-3.83z
m4.83
0
h3.83
v14.063
h-3.83z
m4.83
0
h3.83
v9.47
h-3.83z
m4.83
0
h3.83
v1.419
h-3.83z
m4.83
0
h3.83
v4.735
h-3.83z
m4.83
0
h3.83
v.099
h-3.83z
m4.83
0
h3.83
v13.337
h-3.83z
m4.83
0
h3.83
v6.94
h-3.83z
m4.83
0
h3.83
v4.847
h-3.83z
m4.83
0
h3.83
v2.368
h-3.83z
m4.83
0
h3.83
v1.386
h-3.83z
m4.83
0
h3.83
v.08
h-3.83z
m4.829
0
h3.83
v.714
h-3.83z
m4.83
0
h3.83
v2.956
h-3.83z
m4.83
0
h3.83
v3.352
h-3.83z
m4.83
0
h3.83
v4.496
h-3.83z
m4.83
0
h3.83
v.862
h-3.83z
m4.83
0
h3.83
v.998
h-3.83z
m4.83
0
h3.83
v10.072
h-3.83z
m4.83
0
h3.83
v.636
h-3.83z
m4.83
0
h3.83
v1.382
h-3.83z
m4.83
0
h3.83
v4.522
h-3.83z
m4.83
0
h3.83
v3.81
h-3.83z
m4.83
0
h3.83
v5.039
h-3.83z
m4.83
0
h3.83
v13.12
h-3.83z
m4.83
0
h3.83
v5.392
h-3.83z
m4.829
0
h3.83
v4.884
h-3.83z
m4.83
0
h3.83
v10.309
h-3.83z
m4.83
0
h3.83
v2.024
h-3.83z
m4.83
0
h3.83
v2.033
h-3.83z
m4.83
0
h3.83
v3.444
h-3.83z
m4.83
0
h3.83
v6.025
h-3.83z
m4.83
0
h3.83
v5.615
h-3.83z
m4.83
0
h3.83
v1.351
h-3.83z
m4.83
0
h3.83
v1.121
h-3.83z
m4.83
0
h3.83
v.687
h-3.83z
m4.83
0
h3.83
v.184
h-3.83z
m4.83
0
h3.83
v1.936
h-3.83z
m4.83
0
h3.83
v5.531
h-3.83z
m4.83
0
h3.83
v3.265
h-3.83z
m4.83
0
h3.83
v1.763
h-3.83z
m4.829
0
h3.83
v1.019
h-3.83z
m4.83
0
h3.83
v1.201
h-3.83z
m4.83
0
h3.83
v.418
h-3.83z
m4.83
0
h3.83
v2.25
h-3.83z
m4.83
0
h3.83
v1.356
h-3.83z
m4.83
0
h3.83
v1.418
h-3.83z
m4.83
0
h3.83
v1.843
h-3.83z
m4.83
0
h3.83
v.625
h-3.83z
m4.83
0
h3.83
v1.1
h-3.83z
m4.83
0
h3.83
v4.238
h-3.83z
m4.83
0
h3.83
v1.705
h-3.83z
m4.83
0
h3.83
v5.247
h-3.83z
m9.66
0
h3.83
v.247
h-3.83z
m4.83
0
h3.83
v4.008
h-3.83z
m4.829
0
h3.83
v10.651
h-3.83z
m14.49
0
h3.83
v1.952
h-3.83z
m4.83
0
h3.83
v27.576
h-3.83z
m4.83
0
h3.83
v.362
h-3.83z
m19.32
0
h3.83
v.391
h-3.83z
m14.49
0
h3.83
v2.555
h-3.83z
m4.83
0
h3.83
v.522
h-3.83z
m19.319
0
h3.83
v26.147
h-3.83z
m4.83
0
h3.83
v22.714
h-3.83z
m4.83
0
h3.83
v22.152
h-3.83z
m4.83
0
h3.83
v2.512
h-3.83z
m19.32
0
h3.83
v.812
h-3.83z
m28.979
0
h3.83
v15.409
h-3.83z
m9.66
0
h3.83
v3.636
h-3.83z
m14.49
0
h3.83
v2.043
h-3.83z"/>
        <path fill="#17234f" d="
M161.929
163.334
h3.83
v.311
h-3.83z
m4.83
16.031
h3.83
v.944
h-3.83z
m4.829
-16.912
h3.83
v1.152
h-3.83z
m4.83
8.096
h3.83
v1.005
h-3.83z
m4.83
10.436
h3.83
v.669
h-3.83z
m4.83
-14.189
h3.83
v.544
h-3.83z
m4.83
5.142
h3.83
v.095
h-3.83z
m4.83
-1.97
h3.83
v.223
h-3.83z
m4.83
.502
h3.83
v.358
h-3.83z
m4.83
2.048
h3.83
v1.159
h-3.83z
m9.66
26.469
h3.83
v.049
h-3.83z
m4.83
-5.45
h3.83
v1.236
h-3.83z
m4.83
-9.335
h3.83
v.432
h-3.83z
m4.83
-6.827
h3.83
v.387
h-3.83z
m4.83
-6.161
h3.83
v3.361
h-3.83z
m4.829
-11.745
h3.83
v4.794
h-3.83z
m4.83
-13.661
h3.83
v.642
h-3.83z
m9.66
5.378
h3.83
v.331
h-3.83z
m9.66
18.976
h3.83
v.266
h-3.83z
m9.66
30.12
h3.83
v.498
h-3.83z
m4.83
-32.477
h3.83
v.133
h-3.83z
m4.83
30.961
h3.83
v1.018
h-3.83z
m4.83
-26.414
h3.83
v.059
h-3.83z
m4.83
19.3
h3.83
v.158
h-3.83z
m4.83
-24.025
h3.83
v.141
h-3.83z
m9.66
-1.609
h3.83
v.191
h-3.83z
m4.829
-32.273
h3.83
v1.151
h-3.83z
m14.49
33.128
h3.83
v.592
h-3.83z
m9.66
17.718
h3.83
v.099
h-3.83z
m9.66
-3.748
h3.83
v.296
h-3.83z
m9.66
-36.191
h3.83
v.185
h-3.83z
m9.66
23.494
h3.83
v.19
h-3.83z
m4.83
-15.872
h3.83
v.076
h-3.83z
m9.66
31.608
h3.83
v.639
h-3.83z
m14.489
-20.755
h3.83
v.197
h-3.83z
m4.83
35.429
h3.83
v1.302
h-3.83z
m9.66
-19.015
h3.83
v.272
h-3.83z
m4.83
-13.21
h3.83
v.072
h-3.83z
m4.83
-1.282
h3.83
v.566
h-3.83z
m9.66
18.67
h3.83
v.162
h-3.83z
m9.66
-30.954
h3.83
v.258
h-3.83z
m9.66
25.035
h3.83
v.938
h-3.83z
m9.659
17.239
h3.83
v.204
h-3.83z
m9.66
-30.475
h3.83
v.726
h-3.83z
m33.81
-25.294
h3.83
v.552
h-3.83z
m48.299
52.618
h3.83
v.425
h-3.83z
m9.66
-70.91
h3.83
v1.25
h-3.83z
m4.83
46.491
h3.83
v.2
h-3.83z
m4.83
13.527
h3.83
v1.914
h-3.83z
m9.66
-30.28
h3.83
v27.756
h-3.83z
m4.83
-85.925
h3.83
v149.446
h-3.83z
m4.83
58.239
h3.83
v144.103
h-3.83z
m4.83
-7.19
h3.83
v111.679
h-3.83z
m4.829
49.931
h3.83
v74.921
h-3.83z
m4.83
-46.309
h3.83
v73.011
h-3.83z
m4.83
-3.816
h3.83
v54.086
h-3.83z
m4.83
38.685
h3.83
v53.996
h-3.83z
m4.83
21.982
h3.83
v1.414
h-3.83z
m4.83
-37.491
h3.83
v18.44
h-3.83z
m4.83
51.322
h3.83
v50.542
h-3.83z
m4.83
39.457
h3.83
v14.61
h-3.83z
m4.83
-117.962
h3.83
v40.686
h-3.83z
m4.83
45.236
h3.83
v10.938
h-3.83z
m4.83
-15.946
h3.83
v51.877
h-3.83z
m4.83
-32.377
h3.83
v27.744
h-3.83z
m4.83
29.55
h3.83
v16.058
h-3.83z
m4.83
-15.509
h3.83
v25.559
h-3.83z
m4.829
-1.059
h3.83
v34.49
h-3.83z
m4.83
29.346
h3.83
v15.773
h-3.83z
m4.83
41.552
h3.83
v67.076
h-3.83z
m4.83
11.378
h3.83
v38.474
h-3.83z
m4.83
-.816
h3.83
v33.555
h-3.83z
m4.83
-51.617
h3.83
v18.275
h-3.83z
m4.83
20.824
h3.83
v82.057
h-3.83z
m4.83
-46.309
h3.83
v5.99
h-3.83z
m4.83
-8.797
h3.83
v83.687
h-3.83z
m4.83
-48.171
h3.83
v246.388
h-3.83z
m4.83
101.517
h3.83
v104.756
h-3.83z
m4.83
-36.316
h3.83
v42.541
h-3.83z
m4.83
19.893
h3.83
v16.591
h-3.83z
m4.83
-25.129
h3.83
V180
h-3.83z
m4.83
-24.017
h3.83
v114.423
h-3.83z
m4.829
75.903
h3.83
v43.75
h-3.83z
m4.83
-74.549
h3.83
v211.321
h-3.83z
M746.35
162
h3.83
v123
h-3.83z
m4.83
-6.545
h3.83
v112.727
h-3.83z
m4.83
-76.182
h3.83
v134.141
h-3.83z
m4.83
18.516
h3.83
v157.455
h-3.83z
m4.83
11.919
h3.83
v24.514
h-3.83z"/>
    </g>
    <path stroke="currentColor" d="
M60
410
h710" aria-label="rule"/>
    <svg xmlns="http://www.w3.org/2000/svg" viewBox="0 0 830 564">
        <g aria-label="■ Custom Colour/Modded Campaigns ■ Survivor ■ Monk ■ Hunter ■ Gourmand ■ Artificer ■ Rivulet ■ Spearmaster ■ Saint ■ ⏿" style="shape-padding:2.00159">
            <path fill="#00000f" d="
M55.012
483.999
v-7.744
h7.75
v7.744z"/>
            <path fill="#1e90ff" d="
M77.438
483.167
q-.489
.26
-1.003
.388
-.514
.133
-1.092
.133
-1.822
0
-2.83
-1.289
-1.004
-1.288
-1.004
-3.624
0
-2.323
1.01
-3.618
1.015
-1.302
2.824
-1.302
.578
0
1.092
.134
.514
.127
1.003
.387
v1.314
q-.47
-.387
-1.01
-.59
-.539
-.204
-1.085
-.204
-1.25
0
-1.872
.965
t-.622
2.914
q0
1.942
.622
2.907
t1.872
.965
q.559
0
1.092
-.203
.54
-.203
1.003
-.59z
m2.253
-2.354
v-4.406
h1.168
v4.406
q0
.958
.337
1.409
.343
.45
1.054
.45
.825
0
1.263
-.577
.438
-.584
.438
-1.67
v-4.018
h1.174
v7.097
h-1.174
v-1.067
q-.311
.616
-.85
.934
-.534
.317
-1.251
.317
-1.092
0
-1.625
-.711
-.534
-.717
-.534
-2.165
m12.766
-4.17
v1.142
q-.502
-.292
-1.01
-.438
t-1.034
-.146
q-.794
0
-1.187
.26
-.388
.254
-.388
.78
0
.477
.292
.712
t1.454
.457
l.47
.089
q.87
.165
1.314
.66
.45
.495
.45
1.288
0
1.054
-.749
1.65
-.749
.591
-2.082
.591
-.527
0
-1.104
-.114
-.578
-.108
-1.25
-.33
v-1.206
q.653
.336
1.25
.507
.596
.165
1.13
.165
.774
0
1.2
-.31
.425
-.318
.425
-.883
0
-.812
-1.555
-1.123
l-.051
-.013
-.438
-.089
q-1.01
-.197
-1.473
-.66
-.463
-.47
-.463
-1.276
0
-1.022
.692
-1.574
.692
-.559
1.974
-.559
.571
0
1.098
.108
.527
.102
1.035
.311
m5.547
-2.267
v2.019
h2.654
v.907
h-2.654
v3.86
q0
.787
.299
1.098
.298
.31
1.04
.31
h1.315
v.934
h-1.429
q-1.313
0
-1.853
-.527
t-.54
-1.815
v-3.86
h-1.898
v-.907
h1.898
v-2.019z
m7.84
2.837
q-.889
0
-1.346
.692
t-.457
2.05
q0
1.353
.457
2.05
.457
.693
1.346
.693
.895
0
1.352
-.692
.457
-.698
.457
-2.05
0
-1.359
-.457
-2.05
-.457
-.693
-1.352
-.693
m0
-.99
q1.479
0
2.26
.959
.787
.958
.787
2.774
0
1.821
-.781
2.78
-.78
.952
-2.266
.952
-1.48
0
-2.26
-.952
-.78
-.959
-.78
-2.78
0
-1.816
.78
-2.774
.78
-.959
2.26
-.959
m8.207
.895
q.216
-.457
.546
-.673
.337
-.222
.806
-.222
.857
0
1.206
.667
.356
.66
.356
2.494
v4.12
h-1.067
v-4.069
q0
-1.504
-.171
-1.866
-.165
-.368
-.61
-.368
-.507
0
-.698
.393
-.184
.387
-.184
1.841
v4.069
h-1.066
v-4.069
q0
-1.523
-.184
-1.879
-.178
-.355
-.648
-.355
-.463
0
-.647
.393
-.178
.387
-.178
1.841
v4.069
h-1.06
v-7.11
h1.06
v.61
q.21
-.381
.52
-.578
.318
-.203
.718
-.203
.482
0
.8
.222
.324
.222
.501
.673
m18.174
6.05
q-.49
.26
-1.003
.387
-.514
.133
-1.092
.133
-1.822
0
-2.831
-1.289
-1.003
-1.288
-1.003
-3.624
0
-2.323
1.01
-3.618
1.015
-1.302
2.824
-1.302
.578
0
1.092
.134
.514
.127
1.003
.387
v1.314
q-.47
-.387
-1.01
-.59
-.54
-.204
-1.085
-.204
-1.25
0
-1.873
.965
-.622
.965
-.622
2.914
0
1.942
.622
2.907
t1.873
.965
q.558
0
1.092
-.203
.54
-.203
1.003
-.59z
m4.925
-5.955
q-.888
0
-1.345
.692
t-.457
2.05
q0
1.353
.457
2.05
.457
.693
1.345
.693
.895
0
1.352
-.692
.457
-.698
.457
-2.05
0
-1.359
-.457
-2.05
-.457
-.693
-1.352
-.693
m0
-.99
q1.48
0
2.26
.959
.787
.958
.787
2.774
0
1.821
-.78
2.78
-.781
.952
-2.267
.952
-1.479
0
-2.26
-.952
-.78
-.959
-.78
-2.78
0
-1.816
.78
-2.774
.781
-.959
2.26
-.959
m7.973
4.704
q0
.787
.286
1.187
.292
.4
.857
.4
h1.364
v.99
h-1.479
q-1.047
0
-1.625
-.673
-.57
-.673
-.57
-1.904
v-6.456
h-1.873
v-.914
h3.04z
m7.68
-3.714
q-.888
0
-1.345
.692
t-.457
2.05
q0
1.353
.457
2.05
.457
.693
1.346
.693
.895
0
1.352
-.692
.457
-.698
.457
-2.05
0
-1.359
-.457
-2.05
-.457
-.693
-1.352
-.693
m0
-.99
q1.48
0
2.26
.959
.788
.958
.788
2.774
0
1.821
-.781
2.78
-.78
.952
-2.266
.952
-1.48
0
-2.26
-.952
-.78
-.959
-.78
-2.78
0
-1.816
.78
-2.774
.78
-.959
2.26
-.959
m5.155
4.59
v-4.406
h1.168
v4.405
q0
.959
.336
1.41
.343
.45
1.054
.45
.825
0
1.263
-.577
.438
-.584
.438
-1.67
v-4.018
h1.175
v7.097
h-1.175
v-1.067
q-.31
.616
-.85
.934
-.533
.317
-1.25
.317
-1.093
0
-1.626
-.711
-.533
-.717
-.533
-2.165
m13.92
-2.952
q-.374
-.292
-.761
-.425
t-.85
-.134
q-1.093
0
-1.67
.686
-.578
.685
-.578
1.98
v3.536
h-1.174
v-7.11
h1.174
v1.39
q.292
-.755
.895
-1.155
.61
-.406
1.441
-.406
.432
0
.806
.108
t.717
.336z
m6.139
-3.834
h1.206
l-4.99
10.683
h-1.212z
m2.73
0
h1.713
l1.638
4.824
1.65
-4.824
h1.72
v9.477
h-1.187
v-8.373
l-1.688
4.996
h-.971
l-1.695
-4.996
v8.373
h-1.18z
m11.19
3.186
q-.889
0
-1.346
.692
t-.457
2.05
q0
1.353
.457
2.05
.457
.693
1.346
.693
.895
0
1.352
-.692
.457
-.698
.457
-2.05
0
-1.359
-.457
-2.05
-.457
-.693
-1.352
-.693
m0
-.99
q1.479
0
2.26
.959
.787
.958
.787
2.774
0
1.821
-.78
2.78
-.782
.952
-2.267
.952
-1.479
0
-2.26
-.952
-.78
-.959
-.78
-2.78
0
-1.816
.78
-2.774
.781
-.959
2.26
-.959
m9.363
1.08
v-3.676
h1.168
v9.877
h-1.17
v-.895
q-.292
.527
-.781
.806
-.482
.273
-1.117
.273
-1.289
0
-2.031
-.997
-.737
-1.003
-.737
-2.76
0
-1.734
.743
-2.718
.743
-.99
2.025
-.99
.641
0
1.13
.28
.489
.272
.768
.8
m-3.434
2.653
q0
1.358
.431
2.05
.432
.692
1.276
.692
t1.282
-.698
q.445
-.699
.445
-2.044
0
-1.352
-.445
-2.044
-.438
-.699
-1.282
-.699
t-1.276
.692
-.431
2.05
m11.26
-2.654
v-3.675
h1.168
v9.877
h-1.168
v-.895
q-.292
.527
-.78
.806
-.483
.273
-1.117
.273
-1.29
0
-2.032
-.997
-.736
-1.003
-.736
-2.76
0
-1.734
.743
-2.718
.742
-.99
2.025
-.99
.64
0
1.13
.28
.488
.272
.767
.8
m-3.434
2.654
q0
1.358
.432
2.05
t1.276
.692
1.282
-.698
q.444
-.699
.444
-2.044
0
-1.352
-.444
-2.044
-.438
-.699
-1.282
-.699
t-1.276
.692
-.432
2.05
m12.873
-.299
v.572
h-5.059
v.038
q0
1.161
.603
1.796
.61
.635
1.714
.635
.559
0
1.168
-.178
.61
-.178
1.301
-.54
v1.162
q-.666
.273
-1.288
.406
-.616
.14
-1.193
.14
-1.657
0
-2.59
-.99
-.933
-.997
-.933
-2.742
0
-1.702
.914
-2.717
t2.437
-1.016
q1.359
0
2.14
.92
.786
.921
.786
2.514
m-1.168
-.343
q-.025
-1.028
-.488
-1.561
-.457
-.54
-1.32
-.54
-.845
0
-1.39
.559
-.547
.559
-.648
1.549z
m7.383
-2.012
v-3.675
h1.168
v9.877
h-1.168
v-.895
q-.292
.527
-.781
.806
-.482
.273
-1.117
.273
-1.289
0
-2.031
-.997
-.737
-1.003
-.737
-2.76
0
-1.734
.743
-2.718
.743
-.99
2.025
-.99
.641
0
1.13
.28
.488
.272
.768
.8
m-3.434
2.654
q0
1.358
.431
2.05
.432
.692
1.276
.692
t1.282
-.698
q.445
-.699
.445
-2.044
0
-1.352
-.445
-2.044
-.438
-.699
-1.282
-.699
t-1.276
.692
-.431
2.05
m20.452
3.211
q-.489
.26
-1.003
.388
-.514
.133
-1.092
.133
-1.822
0
-2.83
-1.289
-1.004
-1.288
-1.004
-3.624
0
-2.323
1.01
-3.618
1.015
-1.302
2.824
-1.302
.578
0
1.092
.134
.514
.127
1.003
.387
v1.314
q-.47
-.387
-1.01
-.59
-.539
-.204
-1.085
-.204
-1.25
0
-1.872
.965
t-.622
2.914
q0
1.942
.622
2.907
t1.872
.965
q.559
0
1.092
-.203
.54
-.203
1.003
-.59z
m5.472
-3.237
h-.388
q-1.022
0
-1.542
.362
-.514
.355
-.514
1.066
0
.642
.387
.997
t1.073
.355
q.964
0
1.517
-.666
.552
-.673
.558
-1.854
v-.26z
m2.266
-.482
v4.056
h-1.175
v-1.054
q-.374
.635
-.945
.94
-.565
.298
-1.378
.298
-1.085
0
-1.733
-.61
-.647
-.615
-.647
-1.643
0
-1.187
.793
-1.803
.8
-.616
2.342
-.616
h1.568
v-.184
q-.006
-.85
-.431
-1.231
-.426
-.388
-1.359
-.388
-.596
0
-1.206
.172
t-1.187
.501
v-1.168
q.648
-.247
1.238
-.368
.597
-.127
1.155
-.127
.883
0
1.505
.26
.628
.26
1.015
.781
.242
.318
.343
.787
.102
.464
.102
1.397
m5.395
-2.33
q.216
-.457
.546
-.673
.336
-.222
.806
-.222
.857
0
1.206
.667
.356
.66
.356
2.494
v4.12
h-1.067
v-4.069
q0
-1.504
-.171
-1.866
-.165
-.368
-.61
-.368
-.507
0
-.698
.393
-.184
.387
-.184
1.841
v4.069
h-1.066
v-4.069
q0
-1.523
-.184
-1.879
-.178
-.355
-.648
-.355
-.463
0
-.647
.393
-.178
.387
-.178
1.841
v4.069
h-1.06
v-7.11
h1.06
v.61
q.21
-.381
.52
-.578
.318
-.203
.718
-.203
.482
0
.8
.222
.323
.222
.501
.673
m5.916
5.49
v3.6
h-1.174
v-9.813
h1.174
v.907
q.292
-.527
.775
-.8
.488
-.279
1.123
-.279
1.289
0
2.019
.997
.736
.996
.736
2.761
0
1.733
-.736
2.723
-.737
.984
-2.019
.984
-.647
0
-1.136
-.273
-.483
-.28
-.762
-.806
m3.428
-2.652
q0
-1.359
-.432
-2.05
-.425
-.693
-1.27
-.693
-.85
0
-1.288
.699
-.438
.692
-.438
2.044
0
1.345
.438
2.044
.438
.698
1.289
.698
.844
0
1.27
-.692
.43
-.692
.43
-2.05
m6.475
-.026
h-.388
q-1.022
0
-1.542
.362
-.514
.355
-.514
1.066
0
.641
.387
.997
t1.073
.355
q.964
0
1.517
-.666
.552
-.673
.558
-1.854
v-.26z
m2.266
-.482
v4.056
h-1.175
v-1.054
q-.374
.635
-.945
.94
-.565
.298
-1.378
.298
-1.085
0
-1.733
-.61
-.647
-.615
-.647
-1.643
0
-1.187
.793
-1.803
.8
-.616
2.342
-.616
h1.568
v-.184
q-.006
-.85
-.431
-1.231
-.426
-.388
-1.359
-.388
-.596
0
-1.206
.172
t-1.187
.501
v-1.168
q.648
-.247
1.238
-.368
.597
-.127
1.155
-.127
.883
0
1.505
.26
.628
.26
1.015
.781
.241
.318
.343
.787
.102
.464
.102
1.397
m2.73
-3.053
h2.989
v6.201
h2.317
v.908
h-5.802
v-.908
h2.317
v-5.294
h-1.822z
m1.82
-2.768
h1.169
v1.479
h-1.168z
m9.827
6.265
q0
-1.314
-.432
-1.993
-.425
-.686
-1.244
-.686
-.857
0
-1.307
.686
-.451
.68
-.451
1.993
t.45
2.006
q.458
.685
1.321
.685
.806
0
1.231
-.691
.432
-.692
.432
-2
m1.168
3.155
q0
1.6
-.755
2.425
-.756
.825
-2.222
.825
-.482
0
-1.01
-.089
-.526
-.089
-1.053
-.26
v-1.156
q.622
.292
1.13
.432
t.933
.14
q.946
0
1.377
-.514
t.432
-1.632
v-.844
q-.28
.597
-.762
.889
t-1.174
.292
q-1.244
0
-1.987
-.997
-.742
-.997
-.742
-2.666
0
-1.676
.742
-2.672
.743
-.997
1.987
-.997
.686
0
1.162
.273
t.774
.844
v-.92
h1.168z
m7.884
-3.948
v4.405
h-1.174
v-4.405
q0
-.959
-.337
-1.41
-.336
-.45
-1.054
-.45
-.818
0
-1.263
.584
-.438
.577
-.438
1.663
v4.018
h-1.168
v-7.11
h1.168
v1.067
q.311
-.61
.844
-.92
.534
-.318
1.264
-.318
1.085
0
1.618
.717
.54
.711
.54
2.159
m7.331
-2.457
v1.143
q-.501
-.292
-1.009
-.438
t-1.035
-.146
q-.793
0
-1.187
.26
-.387
.254
-.387
.78
0
.477
.292
.712
t1.454
.457
l.47
.089
q.87
.165
1.314
.66
.45
.495
.45
1.288
0
1.054
-.749
1.65
-.749
.591
-2.082
.591
-.527
0
-1.104
-.114
-.578
-.108
-1.25
-.33
v-1.206
q.653
.336
1.25
.507
.596
.165
1.13
.165
.774
0
1.2
-.31
.425
-.318
.425
-.883
0
-.812
-1.556
-1.123
l-.05
-.013
-.438
-.089
q-1.01
-.197
-1.473
-.66
-.463
-.47
-.463
-1.276
0
-1.022
.691
-1.574
.692
-.559
1.975
-.559
.57
0
1.098
.108
.527
.102
1.034
.311"/>
            <path fill="#fff" d="
M313.292
483.999
v-7.744
h7.75
v7.744z"/>
            <path fill="#1e90ff" d="
M335.33
474.35
v1.302
q-.583
-.375
-1.174
-.565
-.584
-.19
-1.18
-.19
-.908
0
-1.435
.425
-.527
.419
-.527
1.136
0
.628
.343
.958
.349
.33
1.295
.553
l.673
.152
q1.333
.311
1.942
.978
.61
.666
.61
1.815
0
1.352
-.838
2.063
t-2.438
.711
q-.666
0
-1.34
-.146
-.672
-.14
-1.351
-.425
v-1.365
q.73
.463
1.377
.68
.654
.215
1.314
.215
.971
0
1.51
-.432
.54
-.438
.54
-1.218
0
-.711
-.374
-1.086
-.368
-.374
-1.289
-.578
l-.685
-.158
q-1.32
-.299
-1.917
-.902
t-.597
-1.618
q0
-1.27
.85
-2.031
.858
-.769
2.273
-.769
.546
0
1.149
.127
.603
.121
1.27
.369
m2.641
6.462
v-4.405
h1.168
v4.406
q0
.958
.337
1.409
.342
.45
1.053
.45
.825
0
1.263
-.577
.438
-.584
.438
-1.67
v-4.018
h1.175
v7.097
h-1.175
v-1.067
q-.31
.616
-.85
.934
-.533
.317
-1.25
.317
-1.092
0
-1.626
-.711
-.533
-.717
-.533
-2.165
m13.92
-2.951
q-.374
-.292
-.761
-.425
-.387
-.134
-.85
-.134
-1.092
0
-1.67
.686
-.578
.685
-.578
1.98
v3.536
h-1.174
v-7.11
h1.174
v1.39
q.292
-.755
.895
-1.155
.61
-.406
1.441
-.406
.432
0
.806
.108
t.718
.336z
m1.13
-1.466
h1.213
l2.063
5.966
2.07
-5.966
h1.212
l-2.527
7.109
h-1.504z
m8.817
0
h2.99
v6.201
h2.317
v.908
h-5.802
v-.908
h2.317
v-5.294
h-1.822z
m1.822
-2.768
h1.168
v1.479
h-1.168z
m5.015
2.768
h1.212
l2.063
5.966
2.07
-5.966
h1.212
l-2.526
7.109
H371.2z
m11.102
.818
q-.889
0
-1.346
.692
t-.457
2.05
q0
1.353
.457
2.05
.457
.693
1.346
.693
.895
0
1.352
-.692
.457
-.698
.457
-2.05
0
-1.359
-.457
-2.05
-.457
-.693
-1.352
-.693
m0
-.99
q1.479
0
2.26
.959
.787
.958
.787
2.774
0
1.821
-.781
2.78
-.78
.952
-2.266
.952
-1.48
0
-2.26
-.952
-.78
-.959
-.78
-2.78
0
-1.816
.78
-2.774
t2.26
-.959
m11.248
1.638
q-.375
-.292
-.762
-.425
-.387
-.134
-.85
-.134
-1.092
0
-1.67
.686
-.577
.685
-.577
1.98
v3.536
h-1.175
v-7.11
h1.175
v1.39
q.292
-.755
.895
-1.155
.609
-.406
1.44
-.406
.432
0
.807
.108
t.717
.336z"/>
            <path fill="#ffff73" d="
M399.385
483.999
v-7.744
h7.75
v7.744z"/>
            <path fill="#1e90ff" d="
M415.546
474.027
h1.714
l1.637
4.824
1.65
-4.824
h1.721
v9.477
h-1.187
v-8.373
l-1.688
4.996
h-.972
l-1.694
-4.996
v8.373
h-1.181z
m11.19
3.186
q-.888
0
-1.345
.692
t-.457
2.05
q0
1.353
.457
2.05
.457
.693
1.346
.693
.895
0
1.352
-.692
.457
-.698
.457
-2.05
0
-1.359
-.457
-2.05
-.457
-.693
-1.352
-.693
m0
-.99
q1.48
0
2.26
.959
.788
.958
.788
2.774
0
1.821
-.781
2.78
-.78
.952
-2.266
.952
-1.48
0
-2.26
-.952
-.78
-.959
-.78
-2.78
0
-1.816
.78
-2.774
t2.26
-.959
m10.589
2.876
v4.405
h-1.175
v-4.405
q0
-.959
-.336
-1.41
t-1.054
-.45
q-.819
0
-1.263
.584
-.438
.577
-.438
1.663
v4.018
h-1.168
v-7.11
h1.168
v1.067
q.311
-.61
.844
-.92
.534
-.318
1.263
-.318
1.086
0
1.62
.717
.539
.711
.539
2.159
m2.653
-5.472
h1.206
v5.72
l3.066
-2.952
h1.422
l-2.8
2.678
3.238
4.43
h-1.428
l-2.628
-3.668
-.87
.819
v2.85
h-1.206z"/>
            <path fill="#ff7373" d="
M454.171
483.999
v-7.744
h7.75
v7.744z"/>
            <path fill="#1e90ff" d="
M470.656
474.027
h1.289
v3.885
h3.51
v-3.885
h1.289
v9.477
h-1.289
v-4.513
h-3.51
v4.513
h-1.289z
m8.195
6.786
v-4.406
h1.168
v4.406
q0
.958
.336
1.409
.343
.45
1.054
.45
.825
0
1.263
-.577
.438
-.584
.438
-1.67
v-4.018
h1.175
v7.097
h-1.175
v-1.067
q-.31
.616
-.85
.934
-.533
.317
-1.25
.317
-1.093
0
-1.626
-.711
-.533
-.717
-.533
-2.165
m13.26
-1.714
v4.405
h-1.174
v-4.405
q0
-.959
-.336
-1.41
-.337
-.45
-1.054
-.45
-.819
0
-1.263
.584
-.438
.577
-.438
1.663
v4.018
h-1.168
v-7.11
h1.168
v1.067
q.31
-.61
.844
-.92
.533
-.318
1.263
-.318
1.086
0
1.619
.717
.54
.711
.54
2.159
m5.053
-4.723
v2.019
h2.653
v.907
h-2.653
v3.86
q0
.787
.298
1.098
.299
.31
1.041
.31
h1.314
v.934
h-1.428
q-1.314
0
-1.853
-.527
-.54
-.527
-.54
-1.815
v-3.86
h-1.898
v-.907
h1.898
v-2.019z
m10.988
5.281
v.572
h-5.06
v.038
q0
1.161
.604
1.796
.61
.635
1.714
.635
.558
0
1.168
-.178
t1.3
-.54
v1.162
q-.666
.273
-1.288
.406
-.615
.14
-1.193
.14
-1.657
0
-2.59
-.99
-.933
-.997
-.933
-2.742
0
-1.702
.914
-2.717
t2.438
-1.016
q1.358
0
2.139
.92
.787
.921
.787
2.514
m-1.168
-.343
q-.026
-1.028
-.489
-1.561
-.457
-.54
-1.32
-.54
-.844
0
-1.39
.559
t-.648
1.549z
m9.267
-1.453
q-.374
-.292
-.761
-.425
-.387
-.134
-.85
-.134
-1.093
0
-1.67
.686
-.578
.685
-.578
1.98
v3.536
h-1.174
v-7.11
h1.174
v1.39
q.292
-.755
.895
-1.155
.61
-.406
1.441
-.406
.432
0
.806
.108
t.717
.336z"/>
            <path fill="#17234f" d="
M524.611
483.999
v-7.744
h7.75
v7.744z"/>
            <path fill="#1e90ff" d="
M626.505
482.723
q-.514
.476
-1.161
.724
-.641
.241
-1.39
.241
-1.803
0
-2.806
-1.289
-1.003
-1.295
-1.003
-3.624
0
-2.323
1.016
-3.618
1.015
-1.302
2.824
-1.302
.597
0
1.143
.172
.546
.165
1.054
.508
v1.314
q-.515
-.49
-1.054
-.718
-.54
-.235
-1.143
-.235
-1.25
0
-1.879
.972
-.622
.965
-.622
2.907
0
1.974
.603
2.926
.61
.946
1.867
.946
.425
0
.742
-.095
.324
-.102
.584
-.311
v-2.546
h-1.377
v-1.053
h2.602z
m4.73
-5.51
q-.89
0
-1.346
.692
t-.457
2.05
q0
1.353
.457
2.05
.457
.693
1.345
.693
.895
0
1.352
-.692
.457
-.698
.457
-2.05
0
-1.359
-.457
-2.05
-.457
-.693
-1.352
-.693
m0
-.99
q1.478
0
2.26
.959
.786
.958
.786
2.774
0
1.821
-.78
2.78
-.781
.952
-2.267
.952
-1.479
0
-2.26
-.952
-.78
-.959
-.78
-2.78
0
-1.816
.78
-2.774
t2.26
-.959
m5.154
4.59
v-4.406
h1.168
v4.406
q0
.958
.336
1.409
.343
.45
1.054
.45
.825
0
1.263
-.577
.438
-.584
.438
-1.67
v-4.018
h1.174
v7.097
h-1.174
v-1.067
q-.311
.616
-.85
.934
-.534
.317
-1.251
.317
-1.092
0
-1.625
-.71
-.533
-.718
-.533
-2.165
m13.92
-2.952
q-.374
-.292
-.762
-.425
-.387
-.134
-.85
-.134
-1.092
0
-1.67
.686
-.577
.685
-.577
1.98
v3.536
h-1.175
v-7.11
h1.175
v1.39
q.292
-.755
.895
-1.155
.61
-.406
1.44
-.406
.432
0
.807
.108
t.717
.336z
m4.786
-.743
q.216
-.457
.546
-.673
.337
-.222
.806
-.222
.857
0
1.206
.667
.356
.66
.356
2.494
v4.12
h-1.067
v-4.069
q0
-1.504
-.171
-1.866
-.165
-.368
-.61
-.368
-.507
0
-.698
.393
-.184
.387
-.184
1.841
v4.069
h-1.066
v-4.069
q0
-1.523
-.184
-1.879
-.178
-.355
-.648
-.355
-.463
0
-.647
.393
-.178
.387
-.178
1.841
v4.069
h-1.06
v-7.11
h1.06
v.61
q.21
-.381
.52
-.578
.318
-.203
.718
-.203
.482
0
.8
.222
.323
.222
.501
.673
m7.992
2.812
h-.387
q-1.022
0
-1.543
.362
-.514
.355
-.514
1.066
0
.642
.387
.997
t1.073
.355
q.965
0
1.517
-.666
.552
-.673
.559
-1.854
v-.26z
m2.266
-.482
v4.056
h-1.174
v-1.054
q-.375
.635
-.946
.94
-.565
.298
-1.378
.298
-1.085
0
-1.732
-.61
-.648
-.615
-.648
-1.643
0
-1.187
.794
-1.803
.8
-.616
2.342
-.616
h1.568
v-.184
q-.006
-.85
-.432
-1.231
-.425
-.388
-1.358
-.388
-.597
0
-1.206
.172
-.61
.171
-1.187
.501
v-1.168
q.647
-.247
1.237
-.368
.597
-.127
1.156
-.127
.882
0
1.504
.26
.628
.26
1.016
.781
.24
.318
.342
.787
.102
.464
.102
1.397
m7.776
-.35
v4.406
h-1.174
v-4.405
q0
-.959
-.337
-1.41
-.336
-.45
-1.054
-.45
-.818
0
-1.263
.584
-.438
.577
-.438
1.663
v4.018
h-1.168
v-7.11
h1.168
v1.067
q.311
-.61
.845
-.92
.533
-.318
1.263
-.318
1.085
0
1.618
.717
.54
.711
.54
2.159
m6.601
-1.796
v-3.675
h1.168
v9.877
h-1.168
v-.895
q-.292
.527
-.78
.806
-.483
.273
-1.118
.273
-1.288
0
-2.03
-.997
-.737
-1.003
-.737
-2.76
0
-1.734
.743
-2.718
.742
-.99
2.024
-.99
.642
0
1.13
.28
.49
.272
.768
.8
m-3.434
2.654
q0
1.358
.432
2.05
t1.276
.692
1.282
-.698
q.444
-.699
.444
-2.044
0
-1.352
-.444
-2.044
-.438
-.699
-1.282
-.699
t-1.276
.692
-.432
2.05"/>
            <path fill="#70223b" d="
M689.976
483.999
v-7.744
h7.75
v7.744z"/>
            <path fill="#1e90ff" d="
m709.501
475.157
-1.352
4.85
h2.704z
m-.774
-1.13
h1.555
l2.9
9.477
h-1.326
l-.698
-2.47
h-3.32
l-.685
2.47
h-1.327z
m12.022
3.834
q-.374
-.292
-.761
-.425
t-.851
-.134
q-1.092
0
-1.67
.686
-.577
.685
-.577
1.98
v3.536
h-1.174
v-7.11
h1.174
v1.39
q.292
-.755
.895
-1.155
.61
-.406
1.44
-.406
.433
0
.807
.108
t.717
.336z
m4.393
-3.485
v2.019
h2.653
v.907
h-2.653
v3.86
q0
.787
.298
1.098
.299
.31
1.041
.31
h1.314
v.934
h-1.428
q-1.314
0
-1.853
-.527
-.54
-.527
-.54
-1.815
v-3.86
h-1.898
v-.907
h1.898
v-2.019z
m5.554
2.019
h2.99
v6.201
h2.317
v.908
H730.2
v-.908
h2.317
v-5.294
h-1.822z
m1.822
-2.768
h1.168
v1.479
h-1.168z
m11.127
0
v.971
h-1.326
q-.629
0
-.876
.26
-.242
.254
-.242
.908
v.629
h2.444
v.907
h-2.444
v6.202
h-1.167
v-6.202
h-1.898
v-.907
h1.898
v-.496
q0
-1.168
.533
-1.72
.54
-.552
1.675
-.552z
m2.704
2.768
h2.99
v6.201
h2.317
v.908
h-5.802
v-.908
h2.317
v-5.294
h-1.822z
m1.822
-2.768
h1.168
v1.479
h-1.168z
m11.115
9.515
q-.47
.273
-.971
.406
-.495
.14
-1.016
.14
-1.65
0
-2.583
-.99
-.927
-.99
-.927
-2.742
t.927
-2.743
q.933
-.99
2.583
-.99
.514
0
1.003
.133
.489
.134
.984
.413
v1.225
q-.463
-.412
-.933
-.597
-.464
-.184
-1.054
-.184
-1.098
0
-1.688
.711
t-.59
2.032
q0
1.314
.59
2.03
.596
.712
1.688
.712
.61
0
1.092
-.184
.482
-.19
.895
-.584z
m8.15
-3.485
v.572
h-5.059
v.038
q0
1.161
.603
1.796
.61
.635
1.714
.635
.559
0
1.168
-.178
.61
-.178
1.301
-.54
v1.162
q-.666
.273
-1.288
.406
-.616
.14
-1.194
.14
-1.656
0
-2.59
-.99
-.932
-.997
-.932
-2.742
0
-1.702
.914
-2.717
t2.437
-1.016
q1.358
0
2.14
.92
.786
.921
.786
2.514
m-1.168
-.343
q-.025
-1.028
-.488
-1.561
-.457
-.54
-1.32
-.54
-.845
0
-1.39
.559
-.547
.559
-.648
1.549z
m9.268
-1.453
q-.375
-.292
-.762
-.425
t-.85
-.134
q-1.092
0
-1.67
.686
-.577
.685
-.577
1.98
v3.536
h-1.175
v-7.11
h1.175
v1.39
q.292
-.755
.895
-1.155
.609
-.406
1.44
-.406
.432
0
.807
.108
t.717
.336z"/>
            <path fill="#91ccf0" d="
M235.871
500.25
v-7.745
h7.75
v7.744z"/>
            <path fill="#1e90ff" d="
M256.627
495.577
q.495
.127
.844
.482
.349
.35
.87
1.403
l1.288
2.59
h-1.377
l-1.13
-2.393
q-.49
-1.022
-.883
-1.314
-.387
-.299
-1.015
-.299
h-1.225
v4.006
h-1.289
v-9.477
h2.64
q1.562
0
2.394
.704
.831
.705
.831
2.038
0
.94
-.514
1.536
-.508
.59
-1.434
.724
m-2.628
-3.949
v3.365
h1.402
q.92
0
1.372
-.413
.45
-.412
.45
-1.263
0
-.819
-.482
-1.25
-.476
-.439
-1.39
-.439z
m7.255
1.314
h2.99
v6.202
h2.317
v.908
h-5.802
v-.908
h2.317
v-5.294
h-1.822z
m1.822
-2.767
h1.168
v1.479
h-1.168z
m5.014
2.767
h1.213
l2.063
5.967
2.07
-5.967
h1.212
l-2.527
7.11
h-1.504z
m8.43
4.418
v-4.405
h1.168
v4.405
q0
.959
.337
1.41
.342
.45
1.053
.45
.825
0
1.263
-.577
.438
-.584
.438
-1.67
v-4.018
h1.175
v7.097
h-1.175
v-1.067
q-.31
.616
-.85
.933
-.533
.318
-1.25
.318
-1.092
0
-1.626
-.711
-.533
-.717
-.533
-2.165
m10.645
.115
q0
.787
.286
1.187
.292
.4
.857
.4
h1.364
v.99
h-1.479
q-1.047
0
-1.625
-.673
-.57
-.673
-.57
-1.904
v-6.456
h-1.873
v-.914
h3.04z
m10.83
-1.27
v.571
h-5.06
v.038
q0
1.162
.603
1.797
.61
.635
1.714
.635
.559
0
1.168
-.178
.61
-.178
1.301
-.54
v1.162
q-.666
.273
-1.288
.406
-.616
.14
-1.194
.14
-1.656
0
-2.59
-.99
-.933
-.997
-.933
-2.743
0
-1.7
.914
-2.716
.915
-1.016
2.438
-1.016
1.358
0
2.14
.92
.786
.92
.786
2.514
m-1.169
-.343
q-.025
-1.028
-.488
-1.561
-.458
-.54
-1.32
-.54
-.845
0
-1.39
.559
-.547
.558
-.648
1.549z
m5.834
-4.938
v2.018
h2.653
v.908
h-2.653
v3.86
q0
.787
.298
1.098
.298
.31
1.041
.31
h1.314
v.934
h-1.428
q-1.314
0
-1.854
-.527
t-.54
-1.816
v-3.859
h-1.897
v-.908
h1.898
v-2.018z"/>
            <path fill="#4f2d68" d="
M314.618
500.249
v-7.744
h7.75
v7.744z"/>
            <path fill="#1e90ff" d="
M336.657
490.6
v1.302
q-.584
-.375
-1.174
-.565
-.584
-.19
-1.18
-.19
-.908
0
-1.435
.425
-.527
.419
-.527
1.136
0
.628
.343
.958
.349
.33
1.295
.553
l.672
.152
q1.333
.311
1.943
.978
.61
.666
.61
1.815
0
1.352
-.839
2.063
t-2.437
.711
q-.667
0
-1.34
-.146
-.672
-.14
-1.352
-.425
v-1.365
q.73
.463
1.378
.68
.654
.215
1.314
.215
.97
0
1.51
-.432
.54
-.438
.54
-1.218
0
-.711
-.374
-1.086
-.369
-.374
-1.29
-.578
l-.685
-.158
q-1.32
-.299
-1.917
-.902
-.596
-.603
-.596
-1.618
0
-1.27
.85
-2.031
.857
-.769
2.273
-.769
.546
0
1.149
.127
.603
.121
1.27
.369
m3.783
8.259
v3.599
h-1.174
v-9.813
h1.174
v.907
q.292
-.527
.775
-.8
.489
-.279
1.123
-.279
1.289
0
2.019
.997
.736
.996
.736
2.761
0
1.733
-.736
2.723
-.736
.984
-2.019
.984
-.647
0
-1.136
-.273
-.482
-.28
-.762
-.806
m3.428
-2.653
q0
-1.359
-.431
-2.05
-.426
-.693
-1.27
-.693
-.85
0
-1.289
.699
-.438
.692
-.438
2.044
0
1.345
.438
2.044
t1.289
.698
q.844
0
1.27
-.692
.431
-.692
.431
-2.05
m9.077
-.299
v.572
h-5.059
v.038
q0
1.161
.603
1.796
.61
.635
1.714
.635
.559
0
1.168
-.178
.61
-.178
1.301
-.54
v1.162
q-.666
.273
-1.288
.406
-.616
.14
-1.194
.14
-1.656
0
-2.59
-.99
-.933
-.997
-.933
-2.742
0
-1.702
.915
-2.717
.914
-1.016
2.437
-1.016
1.358
0
2.14
.92
.786
.921
.786
2.514
m-1.168
-.343
q-.025
-1.028
-.488
-1.561
-.457
-.54
-1.32
-.54
-.845
0
-1.39
.559
-.547
.559
-.648
1.549z
m6.392
.616
h-.387
q-1.022
0
-1.542
.362
-.514
.355
-.514
1.066
0
.642
.387
.997
t1.073
.355
q.964
0
1.517
-.666
.552
-.673
.558
-1.854
v-.26z
m2.267
-.482
v4.056
h-1.175
V498.7
q-.374
.635
-.946
.94
-.565
.298
-1.377
.298
-1.085
0
-1.733
-.61
-.647
-.615
-.647
-1.643
0
-1.187
.793
-1.803
.8
-.616
2.342
-.616
h1.568
v-.184
q-.006
-.85
-.431
-1.231
-.426
-.388
-1.359
-.388
-.596
0
-1.206
.172
t-1.187
.501
v-1.168
q.648
-.247
1.238
-.368
.597
-.127
1.155
-.127
.883
0
1.505
.26
.628
.26
1.015
.781
.241
.318
.343
.787
.102
.464
.102
1.397
m8.436
-1.587
q-.375
-.292
-.762
-.425
-.387
-.134
-.85
-.134
-1.093
0
-1.67
.686
-.578
.685
-.578
1.98
v3.536
h-1.174
v-7.11
h1.174
v1.39
q.292
-.755
.895
-1.155
.61
-.406
1.441
-.406
.432
0
.806
.108
t.718
.336z
m4.786
-.743
q.216
-.457
.546
-.673
.336
-.222
.806
-.222
.857
0
1.206
.667
.355
.66
.355
2.494
v4.12
h-1.066
v-4.069
q0
-1.504
-.171
-1.866
-.166
-.368
-.61
-.368
-.508
0
-.698
.393
-.184
.387
-.184
1.841
v4.069
h-1.067
v-4.069
q0
-1.523
-.184
-1.879
-.177
-.355
-.647
-.355
-.464
0
-.648
.393
-.177
.387
-.177
1.841
v4.069
h-1.06
v-7.11
h1.06
v.61
q.21
-.381
.52
-.578
.318
-.203
.717
-.203
.483
0
.8
.222
.324
.222
.502
.673
m7.991
2.812
h-.387
q-1.022
0
-1.542
.362
-.514
.355
-.514
1.066
0
.642
.387
.997
t1.073
.355
q.964
0
1.517
-.666
.552
-.673
.558
-1.854
v-.26z
m2.267
-.482
v4.056
h-1.175
V498.7
q-.374
.635
-.946
.94
-.565
.298
-1.377
.298
-1.085
0
-1.733
-.61
-.647
-.615
-.647
-1.643
0
-1.187
.793
-1.803
.8
-.616
2.342
-.616
h1.568
v-.184
q-.006
-.85
-.431
-1.231
-.426
-.388
-1.359
-.388
-.597
0
-1.206
.172
-.61
.171
-1.187
.501
v-1.168
q.648
-.247
1.238
-.368
.597
-.127
1.155
-.127
.882
0
1.505
.26
.628
.26
1.015
.781
.241
.318
.343
.787
.102
.464
.102
1.397
m7.28
-2.806
v1.143
q-.501
-.292
-1.009
-.438
t-1.035
-.146
q-.793
0
-1.187
.26
-.387
.254
-.387
.78
0
.477
.292
.712
t1.454
.457
l.47
.089
q.87
.165
1.313
.66
.451
.495
.451
1.288
0
1.054
-.749
1.65
-.749
.591
-2.082
.591
-.527
0
-1.104
-.114
-.578
-.108
-1.25
-.33
v-1.206
q.653
.336
1.25
.507
.596
.165
1.13
.165
.774
0
1.2
-.31
.424
-.318
.424
-.883
0
-.812
-1.555
-1.123
l-.05
-.013
-.439
-.089
q-1.009
-.197
-1.472
-.66
-.464
-.47
-.464
-1.276
0
-1.022
.692
-1.574
.692
-.559
1.974
-.559
.572
0
1.099
.108
.526
.102
1.034
.311
m5.548
-2.266
v2.019
h2.653
v.907
h-2.653
v3.86
q0
.787
.298
1.098
.299
.31
1.042
.31
h1.313
v.934
h-1.428
q-1.314
0
-1.853
-.527
-.54
-.527
-.54
-1.815
v-3.86
h-1.898
v-.907
h1.898
v-2.019z
m10.988
5.281
v.572
h-5.06
v.038
q0
1.161
.604
1.796
.61
.635
1.714
.635
.558
0
1.168
-.178
t1.301
-.54
v1.162
q-.667
.273
-1.289
.406
-.615
.14
-1.193
.14
-1.657
0
-2.59
-.99
-.933
-.997
-.933
-2.742
0
-1.702
.914
-2.717
t2.438
-1.016
q1.358
0
2.139
.92
.787
.921
.787
2.514
m-1.168
-.343
q-.025
-1.028
-.489
-1.561
-.457
-.54
-1.32
-.54
-.844
0
-1.39
.559
t-.648
1.549z
m9.268
-1.453
q-.375
-.292
-.762
-.425
-.387
-.134
-.85
-.134
-1.093
0
-1.67
.686
-.578
.685
-.578
1.98
v3.536
h-1.174
v-7.11
h1.174
v1.39
q.292
-.755
.895
-1.155
.61
-.406
1.441
-.406
.432
0
.806
.108
t.718
.336z"/>
            <path fill="#aaf155" d="
M424.191
500.249
v-7.744
h7.75
v7.744z"/>
            <path fill="#1e90ff" d="
M446.23
490.6
v1.302
q-.584
-.375
-1.174
-.565
-.584
-.19
-1.18
-.19
-.908
0
-1.435
.425
-.527
.419
-.527
1.136
0
.628
.343
.958
.349
.33
1.295
.553
l.673
.152
q1.333
.311
1.942
.978
.61
.666
.61
1.815
0
1.352
-.839
2.063
t-2.437
.711
q-.667
0
-1.34
-.146
-.672
-.14
-1.351
-.425
v-1.365
q.73
.463
1.377
.68
.654
.215
1.314
.215
.971
0
1.51
-.432
.54
-.438
.54
-1.218
0
-.711
-.374
-1.086
-.368
-.374
-1.289
-.578
l-.685
-.158
q-1.32
-.299
-1.917
-.902
t-.597
-1.618
q0
-1.27
.85
-2.031
.857
-.769
2.273
-.769
.546
0
1.149
.127
.603
.121
1.27
.369
m5.86
5.58
h-.388
q-1.022
0
-1.542
.362
-.514
.355
-.514
1.066
0
.642
.387
.997
t1.072
.355
q.965
0
1.518
-.666
.552
-.673
.558
-1.854
v-.26z
m2.265
-.482
v4.056
h-1.174
V498.7
q-.374
.635
-.946
.94
-.565
.298
-1.377
.298
-1.086
0
-1.733
-.61
-.647
-.615
-.647
-1.643
0
-1.187
.793
-1.803
.8
-.616
2.342
-.616
h1.568
v-.184
q-.006
-.85
-.431
-1.231
-.426
-.388
-1.359
-.388
-.597
0
-1.206
.172
-.61
.171
-1.187
.501
v-1.168
q.648
-.247
1.238
-.368
.597
-.127
1.155
-.127
.882
0
1.505
.26
.628
.26
1.015
.781
.241
.318
.343
.787
.101
.464
.101
1.397
m2.73
-3.053
h2.99
v6.201
h2.317
v.908
h-5.802
v-.908
h2.317
v-5.294
h-1.822z
m1.822
-2.768
h1.168
v1.479
h-1.168z
m11.051
5.472
v4.405
h-1.174
v-4.405
q0
-.959
-.337
-1.41
-.336
-.45
-1.053
-.45
-.82
0
-1.264
.584
-.438
.577
-.438
1.663
v4.018
h-1.168
v-7.11
h1.168
v1.067
q.311
-.61
.845
-.92
.533
-.318
1.263
-.318
1.085
0
1.618
.717
.54
.711
.54
2.159
m5.053
-4.723
v2.019
h2.653
v.907
h-2.653
v3.86
q0
.787
.298
1.098
.298
.31
1.041
.31
h1.314
v.934
h-1.428
q-1.314
0
-1.854
-.527
t-.54
-1.815
v-3.86
h-1.897
v-.907
h1.898
v-2.019z"/>
            <path fill="#16234f" d="
M486.805
500.249
v-7.744
h7.75
v7.744z"/>
            <path fill="#1e90ff" d="
M515.287
492.905
q-.248
-.013
-.413
-.013
-1.11
0
-3.117
.387
.203
.52
.203
.978
0
.616
-.298
1.085
-.349
.533
-.933
.533
-.355
0
-.552
-.406
-.159
-.323
-.159
-.723
0
-.527
.267
-.876
.21
.45
.552
.603
.425
-.4
.578
-1.13
-1.156
.235
-2.482
.596
-.121
.426
-.121
.851
0
.914
.489
1.473
.514
.584
1.415
.584
.565
0
1.029
-.299
.298
-.19
.806
-.717
.127
-.133
.431
-.374
-.006
.977
-.87
1.694
-.818
.68
-1.821
.68
-.92
0
-1.574
-.534
-.698
-.577
-.698
-1.479
0
-1.053
.463
-1.752
-2.361
.673
-4.202
1.429
.457
.793
1.961
1.637
1.225
.686
2.412
1.054
1.092
.336
1.924
.336
.26
0
.774
-.063
.514
-.07
.768
-.07
.12
0
.229
.057
-.197
.343
-.933
.553
-.59
.17
-1.118
.17
-2.107
0
-4.38
-1.072
-2.481
-1.174
-3.364
-2.888
3.377
-1.784
8.88
-2.647
1.296
-.203
2.184
-.203
1.384
0
1.67
.546"/>
            <path fill="#1e90ff" d="
M541.228
474.029
h1.25
l.908
7.693
1.079
-5.09
h1.34
l1.091
5.103
.908
-7.706
h1.25
l-1.415
9.477
h-1.213
l-1.288
-5.63
-1.283
5.63
h-1.212z
m12.282
5.903
h-.387
q-1.022
0
-1.542
.362
-.515
.356
-.515
1.067
0
.64
.388
.996
t1.072
.356
q.965
0
1.518
-.667
.552
-.673
.558
-1.853
v-.26z
m2.266
-.482
v4.056
h-1.174
v-1.054
q-.374
.635
-.946
.94
-.565
.298
-1.377
.298
-1.086
0
-1.733
-.61
-.648
-.615
-.648
-1.643
0
-1.187
.794
-1.803
.8
-.616
2.342
-.616
h1.568
v-.184
q-.006
-.85
-.431
-1.231
-.426
-.387
-1.359
-.387
-.597
0
-1.206
.171
-.61
.171
-1.187
.501
v-1.168
q.647
-.247
1.238
-.368
.596
-.127
1.155
-.127
.882
0
1.505
.26
.628
.26
1.015
.781
.241
.318
.343
.787
.101
.464
.101
1.397
m5.002
-5.072
v2.019
h2.654
v.907
h-2.654
v3.86
q0
.787
.299
1.098
.298
.311
1.04
.311
h1.315
v.933
h-1.428
q-1.314
0
-1.854
-.527
t-.54
-1.815
v-3.86
h-1.897
v-.907
h1.897
v-2.019z
m10.665
8.766
q-.47
.273
-.972
.407
-.495
.14
-1.015
.14
-1.65
0
-2.584
-.991
-.926
-.99
-.926
-2.742
t.926
-2.742
q.933
-.99
2.584
-.99
.514
0
1.003
.133
t.984
.412
v1.225
q-.464
-.412
-.934
-.596
-.463
-.184
-1.053
-.184
-1.098
0
-1.689
.71
-.59
.711
-.59
2.032
0
1.314
.59
2.031
.597
.711
1.689
.711
.61
0
1.092
-.184
.482
-.19
.895
-.584z
m7.763
-4.043
v4.405
h-1.174
v-4.405
q0
-.959
-.337
-1.41
-.336
-.45
-1.054
-.45
-.818
0
-1.263
.584
-.438
.578
-.438
1.663
v4.018
h-1.168
v-9.877
h1.168
v3.834
q.311
-.61
.844
-.92
.534
-.318
1.264
-.318
1.085
0
1.618
.718
.54
.71
.54
2.158
m8.214
.558
v.572
h-5.06
v.038
q0
1.161
.604
1.796
.61
.635
1.714
.635
.558
0
1.168
-.178
t1.3
-.54
v1.162
q-.666
.273
-1.288
.407
-.615
.14
-1.193
.14
-1.657
0
-2.59
-.991
-.933
-.997
-.933
-2.742
0
-1.701
.914
-2.717
t2.437
-1.016
q1.359
0
2.14
.92
.787
.921
.787
2.514
m-1.168
-.342
q-.026
-1.029
-.489
-1.562
-.457
-.54
-1.32
-.54
-.845
0
-1.39
.56
-.546
.558
-.648
1.548z
m9.267
-1.454
q-.374
-.292
-.761
-.425
t-.85
-.134
q-1.093
0
-1.67
.686
-.578
.686
-.578
1.98
v3.536
h-1.174
v-7.11
h1.174
v1.39
q.292
-.754
.895
-1.154
.61
-.407
1.441
-.407
.432
0
.806
.108
t.717
.337z" aria-label="Watcher"/>
            <path fill="#f0c097" d="
M603.882
483.999
v-7.744
h7.75
v7.744z"/>
        </g>
    </svg>
</svg>
