<svg xmlns="http://www.w3.org/2000/svg" width="830" height="470" fill="currentColor" class="plot-d6a7b5" font-family="system-ui, sans-serif" font-size="10" style="--plot-background:white;display:block;height:intrinsic;max-width:100%;color:#1e90ff" text-anchor="middle" viewBox="0 0 830 470">
    <style>
        :where(.plot-d6a7b5 text),:where(.plot-d6a7b5 tspan){white-space:pre}
    </style>
    <path stroke="currentColor" stroke-opacity=".1" d="
M60
410
h710
M60
378.557
h710
M60
347.114
h710
M60
315.671
h710
M60
284.227
h710
M60
252.784
h710
M60
221.341
h710
M60
189.898
h710
M60
158.455
h710
M60
127.012
h710
M60
95.568
h710
M60
64.125
h710" aria-hidden="true" aria-label="y-grid"/>
    <path fill="none" stroke="currentColor" d="
M60
410
h-6
m6
-31.443
h-6
m6
-31.443
h-6
m6
-31.444
h-6
m6
-31.443
h-6
m6
-31.443
h-6
m6
-31.443
h-6
m6
-31.443
h-6
m6
-31.443
h-6
m6
-31.443
h-6
m6
-31.444
h-6
m6
-31.443
h-6" aria-hidden="true" aria-label="y-axis tick"/>
    <g aria-label="y-axis tick label" font-variant="tabular-nums" text-anchor="end">
        <text y=".32em" transform="translate(51 410)">0</text>
        <text y=".32em" transform="translate(51 378.557)">5,000</text>
        <text y=".32em" transform="translate(51 347.114)">10,000</text>
        <text y=".32em" transform="translate(51 315.67)">15,000</text>
        <text y=".32em" transform="translate(51 284.227)">20,000</text>
        <text y=".32em" transform="translate(51 252.784)">25,000</text>
        <text y=".32em" transform="translate(51 221.341)">30,000</text>
        <text y=".32em" transform="translate(51 189.898)">35,000</text>
        <text y=".32em" transform="translate(51 158.455)">40,000</text>
        <text y=".32em" transform="translate(51 127.012)">45,000</text>
        <text y=".32em" transform="translate(51 95.568)">50,000</text>
        <text y=".32em" transform="translate(51 64.125)">55,000</text>
    </g>
    <text y=".71em" aria-label="y-axis label" text-anchor="start" transform="translate(3 3)">↑ Visible Vestiges (30 days)</text>
    <path fill="none" stroke="currentColor" d="
M82.817
410
v6
m61.068
-6
v6
m61.739
-6
v6
m61.739
-6
v6
m61.068
-6
v6
m61.069
-6
v6
m61.738
-6
v6
m61.739
-6
v6
m60.397
-6
v6
m61.068
-6
v6
m61.739
-6
v6
m61.739
-6
v6" aria-hidden="true" aria-label="x-axis tick"/>
    <g aria-label="x-axis tick label" font-variant="tabular-nums">
        <text transform="translate(82.817 419)"><tspan x="0" y=".71em">Apr</tspan><tspan x="0" dy="1em">2023</tspan></text>
        <text y=".71em" transform="translate(143.885 419)">Jul</text>
        <text y=".71em" transform="translate(205.624 419)">Oct</text>
        <text transform="translate(267.363 419)"><tspan x="0" y=".71em">Jan</tspan><tspan x="0" dy="1em">2024</tspan></text>
        <text y=".71em" transform="translate(328.431 419)">Apr</text>
        <text y=".71em" transform="translate(389.5 419)">Jul</text>
        <text y=".71em" transform="translate(451.238 419)">Oct</text>
        <text transform="translate(512.977 419)"><tspan x="0" y=".71em">Jan</tspan><tspan x="0" dy="1em">2025</tspan></text>
        <text y=".71em" transform="translate(573.374 419)">Apr</text>
        <text y=".71em" transform="translate(634.442 419)">Jul</text>
        <text y=".71em" transform="translate(696.181 419)">Oct</text>
        <text transform="translate(757.92 419)"><tspan x="0" y=".71em">Jan</tspan><tspan x="0" dy="1em">2026</tspan></text>
    </g>
    <path fill="none" stroke="currentColor" stroke-linecap="round" stroke-linejoin="round" stroke-width="1.5" d="
m60
410
.447
-3.157
.448
-11.546
.447
-6.226
.448
-4.414
.447
-7.282
.447
-5.736
.448
-5.376
.447
-10.88
.447
-8.609
.448
-10.219
.447
-15.828
.448
-14.923
.447
-7.748
.447
-11.213
.448
-7.615
.447
-8.729
.448
-11.414
.447
-7.684
.447
-7.534
.448
-10.225
.447
-11.339
.447
-8.03
.448
-13.703
.447
-6.49
.448
-6.056
.447
-10.923
.447
-10.458
.448
-8.05
.447
-11.219
.448
-8.03
.447
1.358
.447
-9.565
.448
-8.112
.447
.025
.447
-1.824
.448
-.314
.447
6.282
.448
.082
.447
1.88
.447
10.012
.448
1.471
.447
-6.314
.448
-1.389
.447
-7.654
.447
-1.622
.448
2.597
.447
-4.327
.447
-2.515
.448
2.949
.447
-1.767
.448
-4.641
.447
1.881
.447
-10.458
.448
-10.037
.447
2.553
.448
-1.962
.447
-3.157
.447
1.176
.448
-3.031
.447
-3.169
.447
4.188
.448
-1.421
.447
-6.113
.448
-3.956
.447
-9.797
.447
-4.931
.448
-.069
.447
-3.653
.448
-4
.447
6.113
.447
4.603
.448
2.396
.447
5.754
.447
-2.132
.448
-3.553
.447
4.962
.448
.264
.447
-.365
.447
8.081
.448
4.893
.447
4.081
.448
8.728
.447
5.453
.447
-2.447
.448
3.975
.447
-.491
.447
1.83
.448
8.855
.447
1.037
.448
3.088
.447
9.339
.447
5.653
.448
4.075
.447
7.741
.448
-1.113
.447
-.66
.447
4.019
.448
2.886
.447
1.189
.448
3.571
.447
.548
.447
4.012
.448
6.892
.447
3.295
.447
-3.238
.448
1.716
.447
-2.735
.448
-1.968
.447
1.282
.447
-1.672
.448
1.779
.447
4.509
.448
2.629
.447
2.044
.447
3.962
.448
.018
.447
-2.075
.447
6.157
.448
2.056
.447
-1.031
.448
2.402
.447
-.044
.447
2.05
.448
5.503
.447
.78
.448
-3.044
.447
-1.107
.447
-4.308
.448
-.371
.447
2.484
.447
-1.905
.448
-1.176
.447
4.32
.448
.862
.447
.666
.447
2.597
.448
-4.301
.447
-1.817
.448
2.144
.447
-.987
.447
-1.975
.448
1.912
.447
.258
.447
-.39
.448
3.402
.447
1.075
.448
.422
.447
1.062
.447
-1.962
.448
-.176
.447
1.761
.448
-1.968
.447
-.34
.447
3.415
.448
5.54
.447
1.585
.447
4.396
.448
-.069
.447
.314
.448
2.025
.447
.176
.447
-.786
.448
3.918
.447
-.239
.448
1.421
.447
6.276
.447
1.723
.448
1.006
.447
2.899
.447
.327
.448
.34
.447
.025
.448
1.327
.447
-.994
.447
2.925
.448
-.566
.447
.251
.448
1.478
.447
-1.792
.447
-.044
.448
1.314
.447
-1.509
.447
-1.302
.448
-.107
.447
-2.654
.448
-1.339
.447
2.063
.447
.05
.448
-.686
.447
2.943
.448
-.924
.447
1.333
.447
2.679
.448
.327
.447
-.604
.447
2.145
.448
-.767
.447
-.623
.448
3.119
.447
-.603
.447
.239
.448
2.169
.447
-1.308
.448
-1.075
.447
1.176
.447
-1.365
.448
.836
.447
1.277
.447
-1.107
.448
.334
.447
1.867
.448
.491
.447
-1.321
.447
3.704
.448
2.333
.447
-1.094
.448
2.729
.447
-.924
.447
-.73
.448
1.516
.447
-2.038
.447
.013
.448
.019
.447
-2.377
.448
-1.585
.447
3.478
.447
-3.025
.448
-1.352
.447
1.195
.448
-1.585
.447
-.415
.447
1.679
.448
-1.73
.447
-1.201
.447
1.044
.448
-2.798
.447
-.22
.448
1.39
.447
-.629
.447
-2.201
.448
-1.61
.447
-4.107
.448
-1.32
h.447
l.447
-1.503
.448
-1.434
.447
2.993
.447
-1.855
.448
-.547
.447
2.365
.448
-1.327
.447
.295
.447
3.855
.448
-.604
.447
-2.647
.448
3.459
.447
-.195
.447
-2.415
.448
.918
.447
-3.119
.447
-.365
.448
.66
.447
-1.93
.448
-.736
.447
2.333
.447
-.685
.448
-.239
.447
2.817
.448
1.786
.447
3.308
.447
6.42
.448
1.164
.447
-.516
.447
1.698
.448
.352
.447
-1.327
.448
1.717
.447
.484
.447
-1.113
.448
2.082
.447
.874
.448
-.843
.447
1.252
.447
-.252
.448
.113
.447
1.233
.447
2.547
.448
2.723
.447
4.062
.448
1.503
.447
2.969
.447
5.056
.448
-1.12
.447
.686
.448
2.157
.447
-.724
.447
1.132
.448
1.925
.447
.773
.448
1.874
.447
1.453
.447
1.396
.448
.358
.447
.12
.447
-2.723
.448
-2.314
.447
1.345
.448
.019
.447
.793
.447
.742
.448
.264
.447
1.144
.448
3.082
.447
-.566
.447
-.704
.448
1.012
.447
-1.893
.447
1.195
.448
1.415
.447
-1.207
.448
-.403
.447
4.107
.447
-.158
.448
.396
.447
1.994
.448
-3.32
.447
-.9
.447
1.013
.448
-1.717
.447
.843
.447
1.257
.448
1.107
.447
1.415
.448
3.874
.447
1.339
.447
-2.207
.448
-.949
.447
-2.73
.448
-.32
.447
1.352
.447
.056
.448
-.126
.447
1.39
.447
.598
.448
.792
.447
2.522
.448
-4.201
.447
-3.214
.447
.082
.448
-.251
.447
.44
.448
3.037
.447
-.264
.447
1.39
.448
2.968
.447
-1.421
.447
-3.993
.448
-.359
.447
-3.232
.448
-.51
.447
.541
.447
-1.798
.448
.666
.447
2.151
.448
1.119
.447
.824
.447
2.887
.448
-.956
.447
-.082
.447
1.956
.448
-1.283
.447
.572
.448
3.132
.447
.465
.447
.189
.448
2.069
.447
.138
.448
-2.226
.447
-.113
.447
-1.151
.448
-.094
.447
1.182
.447
-.975
.448
.824
.447
3.603
.448
2.396
.447
2.359
.447
3.138
.448
-.233
.447
-.138
.448
3.282
.447
.554
.447
1.723
.448
2.54
.447
2.069
.447
1.22
.448
4.019
.447
-1.27
.448
-2.415
.447
.239
.447
-1.315
.448
-1.509
.447
.799
.448
-.484
.447
2.873
.447
2.899
.448
1.535
.447
.365
.447
.754
.448
-2.452
.447
.075
.448
.78
.447
-1.61
.447
-.824
.448
.415
.447
-2.836
.448
.227
.447
.729
.447
.214
.448
-1.409
.447
-.547
.447
-2.245
.448
-.019
.447
1.61
.448
-1.283
.447
-1.408
.447
2.584
.448
2.063
.447
2.094
.448
2.603
.447
.434
.447
-.629
.448
1.931
.447
-1.415
.447
-.346
.448
2.968
.447
1.491
.448
1.503
.447
2.893
.447
-.145
.448
-.264
.447
1.27
.448
.749
.447
1.1
.447
2.163
.448
.698
.447
1.183
.447
1
.448
.1
.447
1.346
.448
1.239
.447
-2.151
.447
-2.151
.448
1.491
.447
-.076
.448
-1.553
.447
-.346
.447
-1.327
.448
-.949
.447
-.195
.447
-1.006
.448
-1.359
.447
.843
.448
-.088
.447
-1.503
.447
-.591
.448
-2.579
.447
-.698
.448
1.541
.447
-.585
.447
1.113
.448
-.081
.447
-1.547
.447
1.025
.448
.018
.447
-1.251
.448
.258
.447
1.585
.447
.27
.448
1.245
.447
1.811
.448
.032
.447
-1.422
.447
-1.106
.448
-1.019
.447
.767
.447
1.22
.448
.396
.447
-.195
.448
-.025
.447
.069
.447
.68
.448
.125
.447
-1.05
.448
-2.912
.447
.755
.447
-1.742
.448
-.503
.447
1.836
.448
-1.597
.447
1.176
.447
2.094
.448
-2.779
.447
-2.925
.447
-.899
.448
-3.622
.447
-1.157
.448
-.686
.447
-1.723
.447
-.471
.448
.918
.447
-.837
.448
1.522
.447
.654
.447
-3.886
.448
-1.686
.447
-.591
.447
-1.132
.448
.78
.447
.635
.448
-2.616
.447
-.415
.447
-.176
.448
1.49
.447
-1.326
.448
-2.139
.447
-4.509
.447
-1.534
.448
-.912
.447
-4.471
.447
-2.006
.448
1.924
.447
1.554
.448
.704
.447
2.22
.447
-2.151
.448
-1.956
.447
1.233
.448
-.994
.447
-.868
.447
.082
.448
-1.503
.447
1.704
.447
2.585
.448
-.924
.447
-1.705
.448
1.365
.447
-1.855
.447
-.233
.448
1.541
.447
.226
.448
1.893
.447
1.403
.447
1.194
.448
3.541
.447
4.075
.447
-1.579
.448
.956
.447
3.214
.448
1.629
.447
.786
.447
.93
.448
.541
.447
1.591
.448
3.145
.447
.188
.447
-.855
.448
1.968
.447
-.591
.447
1.164
.448
2.735
.447
-.075
.448
.213
.447
2.736
.447
1.459
.448
-.415
.447
1.446
.448
-2.861
.447
-.547
.447
1.163
.448
1.881
.447
2.679
.447
3.597
.448
2.848
.447
2.862
.448
5.326
.447
2.943
.447
2.283
.448
2.088
.447
2.018
.448
2.516
.447
2.107
.447
1.245
.448
1.528
.447
3.358
.447
1.409
.448
-1.239
.447
1.811
.448
.736
.447
-.692
.447
.629
.448
1.182
.447
-.195
.448
.956
.447
.811
.447
.541
.448
2.748
.447
.566
h.447
l.448
-1.39
.447
-2.572
.448
-2.786
.447
-1.188
.447
-1.786
.448
-2.654
.447
-1.465
.448
-1.314
.447
-2.164
.447
-1.761
.448
-2.421
.447
-1.76
.447
-.994
.448
-1.597
.447
-.849
.448
-.415
.447
2.113
.447
.748
.448
1.207
.447
.296
.448
.113
.447
-.075
.447
-.397
.448
.441
.447
1.547
.447
.239
.448
.54
.447
1.283
.448
.459
.447
-.849
.447
.787
.448
.251
.447
-.528
.448
.484
.447
.648
.447
-.761
.448
-.786
.447
.824
.447
-.239
.448
.943
.447
.038
.448
-1.862
.447
-.333
.447
-1.302
h.448
l.447
-.339
.448
-.642
.447
-1.232
.447
-.195
.448
-.711
.447
-.579
.447
1.321
.448
-1.138
.447
-1.459
.448
.465
.447
-1.151
.447
.007
.448
.503
.447
1.547
.448
.289
.447
.604
.447
-.378
.448
-3.131
.447
-.157
.447
-1.101
.448
.786
.447
.006
.448
.22
.447
-1.018
.447
1.32
.448
1.17
.447
.145
.448
1.069
.447
-1.422
.447
-2.364
.448
.101
.447
-1.296
.447
.208
.448
.283
.447
-1.101
.448
-1.094
.447
1.144
.447
-.383
.448
-1.113
.447
1.39
.448
-2.246
.447
-.433
.447
-.73
.448
-1.119
.447
-.799
.448
.252
.447
1.371
.447
-.208
.448
.855
.447
-2.132
.447
-2.163
.448
-.761
.447
.271
.448
-2.447
.447
.032
.447
.182
.448
.164
.447
.446
.448
1.572
.447
-.452
.447
1.119
.448
-.862
.447
-.622
.447
2.981
.448
1.521
.447
-.037
.448
1.553
.447
-.352
.447
-.352
.448
2.572
.447
-.145
.448
-2.408
.447
1.213
.447
.61
.448
-1.025
.447
.925
.447
.999
.448
.642
.447
2.553
.448
2.107
.447
.836
.447
.661
.448
-.051
.447
-.371
.448
.466
.447
-1.126
.447
.522
.448
.126
.447
.836
.447
.635
.448
1.195
.447
.623
.448
-1.529
.447
.233
.447
.535
h.448
l.447
2.226
.448
.434
.447
-.529
.447
-.232
.448
1.855
.447
.126
.447
.742
.448
.629
.447
.176
.448
.163
.447
-.371
.447
-.918
.448
-.05
.447
-.145
.448
-.163
.447
1.238
.447
-.622
.448
-2.522
.447
.434
.447
-.585
.448
.308
.447
-.188
.448
-.874
.447
-.529
.447
.73
.448
.666
.447
-.729
.448
-.541
.447
-.56
.447
-1.521
.448
-.422
.447
-1.364
.447
-.981
.448
-.881
.447
-1.987
.448
-1.534
.447
-1.107
.447
-1.623
.448
-.566
.447
-.132
.448
-2.239
.447
-.603
.447
-.063
.448
-.748
.447
.27
.447
2.044
.448
-1.673
.447
-2.453
.448
-2.257
.447
-3.497
.447
-2.515
.448
-.598
.447
-3.112
.448
-3.755
.447
-1.459
.447
-1.22
.448
-1.66
.447
-1.239
.447
-.748
.448
-1.975
.447
.692
.448
1.534
.447
.239
.447
1.591
.448
1.114
.447
.974
.448
1.359
.447
-.818
.447
-.792
.448
1.144
.447
-.195
.447
-.434
.448
.629
.447
.019
.448
-.339
.447
4.842
.447
3.899
.448
3.572
.447
3.685
.448
3.163
.447
1.22
.447
3.597
.448
3.629
.447
1.823
.447
1.327
.448
2.264
.447
.899
.448
1.95
.447
2.176
.447
1.22
.448
-.529
.447
.761
.448
-.289
.447
.283
.447
.522
.448
.874
.447
1.063
.447
2.151
.448
1.911
.447
1.051
.448
1.314
.447
.151
.447
.277
.448
-.095
.447
-.44
.448
-.566
.447
-.057
.447
-.232
.448
-.057
.447
-.289
.447
-1.679
.448
-1.327
.447
-2.616
.448
-.05
.447
-.598
.447
.39
.448
.484
.447
-.207
.448
-.635
.447
.075
.447
-.503
.448
-2.905
.447
-.629
.447
.465
.448
-1.641
.447
-.233
.448
.05
.447
-.742
.447
-.283
.448
-.163
.447
-.302
.448
-1.006
.447
-1.176
.447
-2.264
.448
.283
.447
.251
.447
.139
.448
-.346
.447
1.302
.448
1.886
.447
1.239
.447
3.138
.448
.201
.447
.592
.448
1.025
h.447
l.447
1.358
.448
.88
.447
.315
.448
1.264
.447
3.779
.447
-.176
.448
-.434
.447
1.371
.447
-.629
.448
.29
.447
1.113
.448
.069
.447
.371
.447
1.333
.448
1.384
.447
1.786
.448
2.723
.447
-.919
.447
-.195
.448
1.277
.447
.962
h.447
l.448
-.232
.447
.333
.448
-1.113
.447
.49
.447
-.742
.448
-1.924
.447
-.893
.448
-2.453
.447
-1.062
.447
.339
.448
.12
.447
-.233
.447
.736
.448
.603
.447
.598
.448
.566
.447
-1.164
.447
-1.119
.448
.547
.447
-.912
.448
.252
.447
.358
.447
-1.018
.448
-.195
.447
1.15
.447
.095
.448
-1.195
.447
-.943
.448
-.793
.447
.315
.447
-.126
.448
.283
.447
-.421
.448
.742
.447
1.106
.447
.887
.448
1.748
.447
.032
.447
-.786
.448
.503
.447
.1
.448
.158
.447
.295
.447
-.239
.448
.855
.447
1.315
.448
.754
.447
.428
.447
1.528
.448
-.119
.447
-.29
.447
1.208
.448
.471
.447
-.138
.448
-.742
.447
.352
.447
-.371
.448
.937
.447
-.094
.448
.534
.447
.459
.447
.271
.448
.736
.447
.981
.447
-.176
.448
.345
.447
1.202
.448
.327
.447
-1.013
.447
.271
.448
-.359
.447
-.05
.448
-.503
.447
-.334
.447
-.106
.448
.471
.447
-.71
.447
-.749
.448
-.365
.447
-.999
.448
-.032
.447
-.924
h.447
l.448
1.031
.447
.522
.448
.893
.447
-.025
.447
.075
.448
-.245
.447
-.566
.447
-.277
.448
-2.402
.447
-1.302
.448
-.276
.447
-.918
.447
-.478
.448
.496
.447
-.547
.448
-1.528
.447
.472
.447
-1.308
.448
.421
.447
.509
.447
-.93
.448
-.29
.447
.158
.448
.264
.447
-.516
.447
1.145
.448
-.591
.447
.427
.448
-.082
.447
.063
.447
-.302
.448
.026
.447
-.371
.447
-.654
.448
-.126
.447
-.403
.448
.145
.447
1.66
.447
.459
.448
.088
.447
.283
.448
-.371
.447
.088
.447
1.648
.448
.868
.447
-.076
.447
1.032
.448
-.246
.447
-1.012
.448
-1.044
.447
-2.239
.447
-1.195
.448
-.471
.447
.314
.448
-.044
.447
-.012
.447
-.592
.448
.283
.447
.095
.447
-1.227
.448
-1.05
.447
.113
.448
-.138
.447
-.277
.447
.755
.448
-.201
.447
-.648
.448
-.685
.447
.094
.447
.22
.448
.855
.447
.038
.447
-.34
.448
1.164
.447
-.793
.448
.315
.447
.094
.447
-.113
.448
1
.447
1.025
.448
.22
.447
-.214
.447
-.05
.448
-1.365
h.447
l.447
.453
.448
-1.063
.447
-.471
.448
.735
.447
-.182
.447
-.075
.448
.584
.447
-.44
.448
.088
.447
-.912
.447
.692
.448
.132
.447
-.377
.448
.327
.447
-.05
.447
-.202
.448
-1.798
.447
-2.34
.447
.365
.448
-1.509
.447
-.038
.448
.113
.447
-1.188
.447
.157
.448
.333
.447
-.346
.448
.239
.447
.919
.447
-.177
.448
-.295
.447
.748
.447
-.289
.448
.314
.447
.705
.448
-1.189
.447
-.522
.447
.862
.448
.27
.447
1.138
.448
.088
.447
1.063
.447
1.12
.448
.358
.447
-.295
.447
.773
.448
2.05
.447
1.535
.448
.578
.447
1.371
.447
-.163
.448
.968
.447
1.365
.448
1.207
.447
-.069
.447
1.006
.448
-.321
.447
.95
.447
.704
.448
-.465
.447
.346
.448
.408
.447
.724
.447
.673
.448
.811
.447
.824
.448
.195
.447
.729
.447
.352
.448
.837
.447
.314
.447
.195
.448
-.56
.447
-.063
.448
-.66
.447
.428
.447
.478
.448
.603
.447
.673
.448
1.484
.447
-.32
.447
.553
.448
-.101
.447
1.497
.447
.069
.448
.843
.447
-.585
.448
.409
.447
1.522
.447
.591
.448
.163
.447
-.49
.448
.094
.447
.811
.447
.258
.448
.378
.447
-.139
.447
.679
.448
.158
.447
.377
.448
-.182
.447
1.27
.447
1.044
.448
1.207
.447
.12
.448
.603
.447
.478
.447
.202
.448
.094
.447
1.107
.447
.553
.448
.39
.447
.157
.448
.403
.447
.704
.447
.692
.448
-.101
.447
.044
.448
.208
.447
.125
.447
.73
.448
.516
.447
.32
.447
.176
.448
.038
.447
.315
.448
.132
.447
.05
.447
.27
.448
.453
.447
-.352
.448
-.019
.447
-.182
.447
-.271
.448
-.566
.447
-.32
.447
-.258
.448
-.378
.447
-.05
.448
-.176
.447
-.088
.447
-.113
.448
-.554
.447
-.805
.448
-.037
.447
-.365
.447
.189
.448
.006
.447
.717
.447
-.302
.448
-.824
.447
.113
.448
-.44
.447
-.22
.447
-.233
.448
-.239
.447
-.025
.448
-.201
.447
-.151
.447
-.201
.448
-.189
.447
-.409
.447
.007
.448
.61
.447
-.258
.448
.088
.447
.258
.447
.138
.448
.195
.447
.403
.448
-.07
.447
.365
.447
.629
.448
.094
.447
.579
.447
.107
.448
.056
.447
-.012
.448
.44
.447
.572
.447
-.037
.448
.578
.447
-.182
.448
-.202
.447
-.012
.447
-.302
.448
-.34
.447
-.194
.447
.377
.448
.088
.447
.113
.448
.113
.447
-.17
.447
.214
.448
-.503
.447
.113
.448
-.125
.447
-.132
.447
-.548
.448
.07
.447
-.365
.447
-.403
.448
.063
.447
-.981
.448
-.541
.447
-.069
.447
-.509
h.448
l.447
-.006
.448
.239
.447
-.038
.447
.641
.448
.365
.447
-.057
.448
.151
.447
.107
.447
.057
.448
-.78
.447
.126
.447
.163
.448
.315
.447
-.245
.448
.031
.447
-.006
.447
-.051
.448
-.251
.447
-.252
.448
.239
.447
.145
.447
.283
.448
.094
.447
.315
.447
.83
.448
.314
.447
-.339
.448
.32
.447
-.195
.447
.239
.448
-.717
.447
-.515
.448
-.264
.447
-.12
.447
-.478
.448
-.063
.447
.271
.447
.421
.448
.761
.447
.157
.448
-.251
.447
-.214
.447
.402
.448
.346
.447
.308
.448
.132
.447
-.113
.447
.277
.448
.327
.447
.119
.447
.636
.448
.371
.447
-.038
.448
.182
.447
.076
.447
.484
.448
.283
.447
.239
.448
.138
.447
.415
.447
.164
.448
.396
.447
-.164
.447
-.031
.448
-.937
.447
-.673
.448
-.075
.447
.037
.447
-.157
.448
.447
.447
.157
.448
-.239
.447
-.478
.447
-.189
.448
-.308
.447
.277
.447
.402
.448
-.012
.447
-.698
.448
-.315
.447
-.138
.447
-.277
.448
-.157
.447
-.245
.448
-.29
.447
-.679
.447
.145
.448
.101
.447
.125
.447
.434
.448
.082
.447
-.371
.448
.654
.447
.711
.447
.301
.448
.277
.447
.271
.448
.345
.447
.195
.447
.076
.448
.239
.447
.591
.447
.302
.448
.144
.447
.007
.448
-.069
.447
.289
.447
.748
.448
.308
.447
.246
.448
.352
.447
.025
.447
.138
.448
-.698
.447
-.346
.447
-.635
.448
-.126
.447
.221
.448
-.145
.447
-.434
.447
.553
.448
-.125
.447
-.353
.448
-.062
.447
-.447
.447
-.748
.448
-.321
.447
-.138
.447
-.189
.448
-.013
.447
-.496
.448
-.139
.447
-.025
.447
.132
.448
-.534
.447
-.547
.448
-.774
.447
-.22
.447
.006
.448
-.038
.447
.101
.447
.176
.448
.969
.447
1.119
.448
.491
.447
.144
.447
-.314
.448
.1
.447
-.107
.448
.202
.447
.201
.447
.761
.448
.61
.447
-.019
.447
.365
.448
-.145
.447
-.063
.448
.239
h.447
l.447
.289
.448
.202
.447
.188
.448
-.125
.447
.144
.447
.063
.448
.774
.447
-.088
.447
-.214
.448
-.157
.447
.075
.448
.075
.447
.164
.447
.057
.448
-.095
.447
.032
.448
.044
.447
.012
.447
.56
.448
-.069
.447
.031
.447
-.05
.448
-.151
.447
.057
.448
.339
.447
.327
.447
.264
.448
-.012
.447
.006
.448
-.358
.447
.377
.447
-.233
.448
-.056
.447
.383
.447
.17
.448
-.277
.447
-.069
.448
-.283
.447
-.302
.447
-.226
.448
-.371
.447
-.082
.448
-.189
.447
.12
.447
-.145
.448
.227
.447
.327
.448
-.044
.447
-.032
.447
-.019
.448
.189
.447
.17
.447
.056
.448
-.062
.447
-.283
.448
-.12
.447
-.044
.447
.038
.448
.364
.447
-.062
.448
.169
.447
-.257
.447
-.057
.448
.05
.447
-.006
.447
.365
.448
.364
.447
.252
.448
.075
.447
.566
.447
-.402
.448
-.069
.447
.012
.448
-.031
.447
-.478
.447
-.195
.448
-.239
.447
.019
.447
.031
.448
-.427
.447
.17
.448
.352
.447
-.302
.447
-.239
.448
-.208
.447
.12
.448
.126
.447
.239
.447
-.076
h.448
l.447
.327
.447
-.434
.448
-.1
.447
.025
.448
-.139
.447
-.503
.447
-.283
.448
.176
.447
-.308
.448
.378
.447
.069
.447
.082
.448
-.089
.447
.321
.447
-.113
.448
-.138
.447
-1.063
.448
-.403
.447
.082
.447
-.805
.448
-.685
.447
.119
.448
-.22
.447
.296
.447
-.453
.448
-.164
.447
-.478
h.447
l.448
-.421
.447
-.063
.448
.233
.447
-.101
.447
-.094
.448
-.409
.447
.007
.448
.377
.447
-.032
.447
-.39
.448
-.276
.447
-.227
.447
-.478
.448
-.113
.447
-.195
.448
.025
.447
-.238" aria-label="line"/>
</svg>
