<svg class="plot-d6a7b5" fill="currentColor" font-family="system-ui, sans-serif" font-size="10" text-anchor="middle" width="830" height="470" viewBox="0 0 830 470" xmlns="http://www.w3.org/2000/svg" xmlns:xlink="http://www.w3.org/1999/xlink" color="#1e90ff"><style>:where(.plot-d6a7b5){--plot-background: white;display:block;height:intrinsic;max-width:100%}:where(.plot-d6a7b5 text),:where(.plot-d6a7b5 tspan){white-space:pre}</style><g aria-label="y-grid" stroke="currentColor" stroke-opacity=".1"><line x1="60" x2="770" y1="410" y2="410"/><line x1="60" x2="770" y1="378.914" y2="378.914"/><line x1="60" x2="770" y1="347.828" y2="347.828"/><line x1="60" x2="770" y1="316.741" y2="316.741"/><line x1="60" x2="770" y1="285.655" y2="285.655"/><line x1="60" x2="770" y1="254.569" y2="254.569"/><line x1="60" x2="770" y1="223.483" y2="223.483"/><line x1="60" x2="770" y1="192.396" y2="192.396"/><line x1="60" x2="770" y1="161.31" y2="161.31"/><line x1="60" x2="770" y1="130.224" y2="130.224"/><line x1="60" x2="770" y1="99.138" y2="99.138"/><line x1="60" x2="770" y1="68.051" y2="68.051"/></g><g aria-label="y-axis tick" fill="none" stroke="currentColor"><path transform="translate(60,410)" d="M0,0L-6,0"/><path transform="translate(60,378.91375788258284)" d="M0,0L-6,0"/><path transform="translate(60,347.8275157651657)" d="M0,0L-6,0"/><path transform="translate(60,316.74127364774847)" d="M0,0L-6,0"/><path transform="translate(60,285.6550315303313)" d="M0,0L-6,0"/><path transform="translate(60,254.5687894129141)" d="M0,0L-6,0"/><path transform="translate(60,223.48254729549694)" d="M0,0L-6,0"/><path transform="translate(60,192.39630517807976)" d="M0,0L-6,0"/><path transform="translate(60,161.3100630606626)" d="M0,0L-6,0"/><path transform="translate(60,130.2238209432454)" d="M0,0L-6,0"/><path transform="translate(60,99.13757882582821)" d="M0,0L-6,0"/><path transform="translate(60,68.05133670841107)" d="M0,0L-6,0"/></g><g aria-label="y-axis tick label" text-anchor="end" font-variant="tabular-nums"><text y=".32em" transform="translate(-9,0) translate(60,410)">0</text><text y=".32em" transform="translate(-9,0) translate(60,378.91375788258284)">50,000</text><text y=".32em" transform="translate(-9,0) translate(60,347.8275157651657)">100,000</text><text y=".32em" transform="translate(-9,0) translate(60,316.74127364774847)">150,000</text><text y=".32em" transform="translate(-9,0) translate(60,285.6550315303313)">200,000</text><text y=".32em" transform="translate(-9,0) translate(60,254.5687894129141)">250,000</text><text y=".32em" transform="translate(-9,0) translate(60,223.48254729549694)">300,000</text><text y=".32em" transform="translate(-9,0) translate(60,192.39630517807976)">350,000</text><text y=".32em" transform="translate(-9,0) translate(60,161.3100630606626)">400,000</text><text y=".32em" transform="translate(-9,0) translate(60,130.2238209432454)">450,000</text><text y=".32em" transform="translate(-9,0) translate(60,99.13757882582821)">500,000</text><text y=".32em" transform="translate(-9,0) translate(60,68.05133670841107)">550,000</text></g><g aria-label="y-axis label" text-anchor="start"><text y=".71em" transform="translate(-57,-57) translate(60,60)">↑ Total Vestiges</text></g><g aria-label="x-axis tick" fill="none" stroke="currentColor"><path transform="translate(108.08764940239044,410)" d="M0,0L0,6"/><path transform="translate(236.79282868525897,410)" d="M0,0L0,6"/><path transform="translate(366.91235059760953,410)" d="M0,0L0,6"/><path transform="translate(497.0318725099601,410)" d="M0,0L0,6"/><path transform="translate(625.7370517928287,410)" d="M0,0L0,6"/><path transform="translate(754.4422310756972,410)" d="M0,0L0,6"/></g><g aria-label="x-axis tick label" font-variant="tabular-nums"><text transform="translate(0,9) translate(108.08764940239044,410)"><tspan x="0" y=".71em">Apr</tspan><tspan x="0" dy="1em">2023</tspan></text><text y=".71em" transform="translate(0,9) translate(236.79282868525897,410)">Jul</text><text y=".71em" transform="translate(0,9) translate(366.91235059760953,410)">Oct</text><text transform="translate(0,9) translate(497.0318725099601,410)"><tspan x="0" y=".71em">Jan</tspan><tspan x="0" dy="1em">2024</tspan></text><text y=".71em" transform="translate(0,9) translate(625.7370517928287,410)">Apr</text><text y=".71em" transform="translate(0,9) translate(754.4422310756972,410)">Jul</text></g><g aria-label="line" fill="none" stroke="currentColor" stroke-width="1.5" stroke-linejoin="round" stroke-linecap="round"><path d="M60,410L60.943,409.688L61.886,408.546L62.829,407.931L63.772,407.494L64.714,406.774L65.657,406.207L66.6,405.676L67.543,404.6L68.486,403.749L69.429,402.739L70.372,401.174L71.315,399.699L72.258,398.933L73.201,397.824L74.143,397.071L75.086,396.208L76.029,395.08L76.972,394.32L77.915,393.575L78.858,392.564L79.801,391.443L80.744,390.649L81.687,389.295L82.629,388.653L83.572,388.054L84.515,386.974L85.458,385.94L86.401,385.145L87.344,384.036L88.287,382.929L89.23,381.922L90.173,380.361L91.116,379.123L92.058,378.405L93.001,377.658L93.944,377.095L94.887,376.641L95.83,375.798L96.773,374.973L97.716,374.398L98.659,373.068L99.602,371.678L100.544,370.432L101.487,368.923L102.43,367.899L103.373,367.028L104.316,365.84L105.259,364.847L106.202,364.127L107.145,362.832L108.088,361.579L109.031,360.41L109.973,358.734L110.916,357.143L111.859,356.316L112.802,355.088L113.745,353.98L114.688,352.987L115.631,351.581L116.574,350.261L117.517,349.114L118.459,347.735L119.402,346.413L120.345,345.275L121.288,343.743L122.231,342.801L123.174,341.952L124.117,340.766L125.06,339.795L126.003,339.07L126.946,338.135L127.888,337.126L128.831,336.185L129.774,334.951L130.717,333.728L131.66,333.031L132.603,332.064L133.546,331.308L134.489,330.812L135.432,330.042L136.375,329.277L137.317,328.465L138.26,327.413L139.203,326.343L140.146,325.508L141.089,324.352L142.032,323.54L142.975,323.01L143.918,321.792L144.861,320.95L145.803,320.494L146.746,319.731L147.689,318.996L148.632,318.23L149.575,317.178L150.518,316.263L151.461,315.474L152.404,314.789L153.347,314.181L154.29,313.599L155.232,312.644L156.175,312.1L157.118,311.547L158.061,310.65L159.004,309.633L159.947,308.835L160.89,307.81L161.833,307.118L162.776,306.476L163.718,305.545L164.661,304.909L165.604,304.302L166.547,303.493L167.49,302.86L168.433,302.095L169.376,301.285L170.319,300.55L171.262,299.94L172.205,299.302L173.147,298.744L174.09,298.219L175.033,297.479L175.976,296.916L176.919,296.408L177.862,295.57L178.805,294.48L179.748,293.686L180.691,292.652L181.633,292.033L182.576,291.324L183.519,290.592L184.462,289.923L185.405,289.453L186.348,288.521L187.291,287.789L188.234,287.02L189.177,285.903L190.12,285.081L191.062,284.362L192.005,283.628L192.948,282.827L193.891,282.206L194.834,281.599L195.777,280.796L196.72,280.322L197.663,279.693L198.606,279.125L199.548,278.592L200.491,277.84L201.434,277.297L202.377,276.731L203.32,275.974L204.263,275.432L205.206,274.932L206.149,274.39L207.092,273.752L208.035,273.153L208.977,272.527L209.92,271.849L210.863,271.317L211.806,270.665L212.749,270.118L213.692,269.573L214.635,268.817L215.578,268.189L216.521,267.693L217.463,267.041L218.406,266.422L219.349,265.974L220.292,265.205L221.235,264.618L222.178,264.013L223.121,263.341L224.064,262.769L225.007,262.429L225.95,261.806L226.892,261.297L227.835,260.692L228.778,259.972L229.721,259.401L230.664,258.774L231.607,258.083L232.55,257.454L233.493,256.902L234.436,256.001L235.378,255.269L236.321,254.848L237.264,254.175L238.207,253.575L239.15,253.214L240.093,252.575L241.036,252.162L241.979,251.672L242.922,251.075L243.865,250.519L244.807,250.08L245.75,249.385L246.693,248.876L247.636,248.415L248.579,247.768L249.522,247.187L250.465,246.729L251.408,246.028L252.351,245.582L253.293,245.074L254.236,244.431L255.179,243.908L256.122,243.314L257.065,242.635L258.008,242.04L258.951,241.534L259.894,240.953L260.837,240.27L261.78,239.736L262.722,239.235L263.665,238.705L264.608,238.302L265.551,237.611L266.494,237.178L267.437,236.689L268.38,236.074L269.323,235.585L270.266,234.991L271.208,234.2L272.151,233.604L273.094,233.252L274.037,232.444L274.98,231.85L275.923,231.321L276.866,230.583L277.809,230.085L278.752,229.549L279.695,228.932L280.637,228.306L281.58,227.766L282.523,226.966L283.466,226.351L284.409,225.808L285.352,225.151L286.295,224.428L287.238,223.688L288.181,222.599L289.124,221.934L290.066,221.433L291.009,220.755L291.952,220.21L292.895,219.814L293.838,219.198L294.781,218.655L295.724,218.274L296.667,217.654L297.61,217.089L298.552,216.679L299.495,216.023L300.438,215.41L301.381,214.944L302.324,214.33L303.267,213.563L304.21,212.916L305.153,212.109L306.096,211.537L307.039,210.985L307.981,210.168L308.924,209.555L309.867,208.986L310.81,208.303L311.753,207.737L312.696,207.359L313.639,206.812L314.582,206.399L315.525,205.945L316.467,205.395L317.41,204.843L318.353,204.333L319.296,203.822L320.239,203.296L321.182,202.849L322.125,202.354L323.068,201.863L324.011,201.449L324.954,200.97L325.896,200.477L326.839,199.945L327.782,199.307L328.725,198.852L329.668,198.36L330.611,197.844L331.554,197.466L332.497,197.061L333.44,196.638L334.382,196.38L335.325,196.063L336.268,195.339L337.211,194.838L338.154,194.368L339.097,193.731L340.04,193.464L340.983,193.107L341.926,192.771L342.869,192.502L343.811,192.096L344.754,191.682L345.697,191.207L346.64,190.708L347.583,189.913L348.526,189.237L349.469,188.875L350.412,188.386L351.355,188.05L352.297,187.644L353.24,187.178L354.183,186.759L355.126,186.425L356.069,185.914L357.012,185.353L357.955,184.937L358.898,184.372L359.841,184.085L360.784,183.802L361.726,183.424L362.669,183.067L363.612,182.75L364.555,182.233L365.498,181.802L366.441,181.362L367.384,180.767L368.327,180.321L369.27,180.085L370.212,179.647L371.155,179.324L372.098,179.034L373.041,178.669L373.984,178.31L374.927,177.897L375.87,177.354L376.813,176.774L377.756,176.191L378.699,175.585L379.641,175.148L380.584,174.815L381.527,174.401L382.47,174.055L383.413,173.682L384.356,173.179L385.299,172.842L386.242,172.527L387.185,171.824L388.127,171.223L389.07,170.854L390.013,170.472L390.956,170.198L391.899,169.981L392.842,169.524L393.785,169.222L394.728,168.92L395.671,168.334L396.614,167.703L397.556,167.229L398.499,166.587L399.442,166.247L400.385,165.934L401.328,165.398L402.271,165.051L403.214,164.721L404.157,164.251L405.1,163.75L406.042,163.429L406.985,162.897L407.928,162.556L408.871,162.336L409.814,161.863L410.757,161.546L411.7,161.354L412.643,161.063L413.586,160.765L414.529,160.267L415.471,159.681L416.414,159.091L417.357,158.698L418.3,158.31L419.243,158.084L420.186,157.744L421.129,157.345L422.072,157.125L423.015,156.895L423.958,156.5L424.9,156.26L425.843,155.928L426.786,155.565L427.729,155.239L428.672,155.027L429.615,154.735L430.558,154.575L431.501,154.356L432.444,154.06L433.386,153.859L434.329,153.725L435.272,153.258L436.215,152.799L437.158,152.35L438.101,151.903L439.044,151.561L439.987,151.349L440.93,151.004L441.873,150.79L442.815,150.49L443.758,150.052L444.701,149.695L445.644,149.382L446.587,148.913L447.53,148.581L448.473,148.259L449.416,147.88L450.359,147.568L451.301,147.215L452.244,146.694L453.187,146.384L454.13,146.093L455.073,145.789L456.016,145.437L456.959,145.091L457.902,144.709L458.845,144.489L459.788,144.351L460.73,144.024L461.673,143.751L462.616,143.539L463.559,143.284L464.502,143.043L465.445,142.853L466.388,142.554L467.331,142.28L468.274,142.125L469.216,141.772L470.159,141.437L471.102,141.292L472.045,141.083L472.988,140.918L473.931,140.736L474.874,140.389L475.817,140.041L476.76,139.787L477.703,139.55L478.645,139.305L479.588,138.998L480.531,138.758L481.474,138.584L482.417,138.378L483.36,138.036L484.303,137.823L485.246,137.564L486.189,137.131L487.131,136.781L488.074,136.601L489.017,136.32L489.96,135.955L490.903,135.666L491.846,135.293L492.789,135.009L493.732,134.691L494.675,134.317L495.618,134.029L496.56,133.758L497.503,133.415L498.446,133.122L499.389,132.854L500.332,132.434L501.275,132.183L502.218,131.988L503.161,131.582L504.104,131.439L505.046,131.193L505.989,130.796L506.932,130.59L507.875,130.351L508.818,130.053L509.761,129.873L510.704,129.689L511.647,129.502L512.59,129.366L513.533,129.112L514.475,128.765L515.418,128.444L516.361,128.054L517.304,127.588L518.247,127.375L519.19,127.123L520.133,126.878L521.076,126.541L522.019,126.165L522.961,125.883L523.904,125.68L524.847,125.349L525.79,124.952L526.733,124.396L527.676,124.051L528.619,123.627L529.562,123.383L530.505,123.159L531.448,122.857L532.39,122.728L533.333,122.537L534.276,122.057L535.219,121.529L536.162,121.142L537.105,120.604L538.048,120.305L538.991,120.051L539.934,119.744L540.876,119.443L541.819,119.187L542.762,118.784L543.705,118.544L544.648,118.143L545.591,117.546L546.534,117.127L547.477,116.824L548.42,116.374L549.363,116.075L550.305,115.856L551.248,115.394L552.191,115.023L553.134,114.608L554.077,114.199L555.02,113.723L555.963,113.088L556.906,112.398L557.849,112.022L558.792,111.631L559.734,111.059L560.677,110.671L561.62,110.38L562.563,110.006L563.506,109.689L564.449,109.37L565.392,108.858L566.335,108.411L567.278,108.226L568.22,107.827L569.163,107.485L570.106,107.09L571.049,106.701L571.992,106.469L572.935,106.127L573.878,105.617L574.821,105.145L575.764,104.831L576.707,104.348L577.649,104.106L578.592,103.797L579.535,103.447L580.478,103.22L581.421,102.95L582.364,102.592L583.307,102.307L584.25,102.02L585.193,101.488L586.135,101.191L587.078,100.937L588.021,100.709L588.964,100.497L589.907,100.214L590.85,99.951L591.793,99.789L592.736,99.588L593.679,99.159L594.622,98.89L595.564,98.686L596.507,98.285L597.45,98.005L598.393,97.887L599.336,97.647L600.279,97.326L601.222,97.087L602.165,96.759L603.108,96.404L604.05,96.064L604.993,95.54L605.936,95.176L606.879,94.942L607.822,94.9L608.765,94.895L609.708,94.892L610.651,94.889L611.594,94.885L612.537,94.879L613.479,94.873L614.422,94.845L615.365,94.824L616.308,94.811L617.251,94.777L618.194,94.722L619.137,94.684L620.08,94.634L621.023,94.537L621.965,94.407L622.908,94.08L623.851,93.859L624.794,93.651L625.737,93.465L626.68,93.287L627.623,93.083L628.566,92.824L629.509,92.591L630.452,92.316L631.394,92.03L632.337,91.777L633.28,91.469L634.223,91.235L635.166,91.056L636.109,90.797L637.052,90.519L637.995,90.398L638.938,90.217L639.88,89.949L640.823,89.798L641.766,89.64L642.709,89.405L643.652,89.218L644.595,88.945L645.538,88.716L646.481,88.579L647.424,88.371L648.367,88.19L649.309,88.019L650.252,87.901L651.195,87.754L652.138,87.666L653.081,87.509L654.024,87.342L654.967,87.131L655.91,86.832L656.853,86.643L657.795,86.521L658.738,86.259L659.681,86.059L660.624,85.878L661.567,85.689L662.51,85.426L663.453,85.245L664.396,84.991L665.339,84.819L666.282,84.686L667.224,84.482L668.167,84.255L669.11,84.02L670.053,83.866L670.996,83.655L671.939,83.476L672.882,83.25L673.825,82.929L674.768,82.689L675.71,82.379L676.653,82.208L677.596,82.056L678.539,81.846L679.482,81.636L680.425,81.459L681.368,81.223L682.311,80.954L683.254,80.786L684.197,80.485L685.139,80.218L686.082,80.002L687.025,79.688L687.968,79.508L688.911,79.369L689.854,79.259L690.797,79.106L691.74,78.912L692.683,78.702L693.625,78.259L694.568,78.04L695.511,77.705L696.454,77.547L697.397,77.394L698.34,77.205L699.283,76.925L700.226,76.829L701.169,76.624L702.112,76.398L703.054,76.194L703.997,75.883L704.94,75.497L705.883,75.296L706.826,74.959L707.769,74.803L708.712,74.594L709.655,74.216L710.598,73.94L711.541,73.752L712.483,73.447L713.426,73.121L714.369,72.945L715.312,72.543L716.255,72.361L717.198,72.178L718.141,71.915L719.084,71.642L720.027,71.457L720.969,71.15L721.912,70.91L722.855,70.659L723.798,70.291L724.741,69.924L725.684,69.66L726.627,69.406L727.57,69.069L728.513,68.867L729.456,68.659L730.398,68.471L731.341,68.204L732.284,67.974L733.227,67.728L734.17,67.501L735.113,67.26L736.056,66.989L736.999,66.907L737.942,66.781L738.884,66.589L739.827,66.438L740.77,66.077L741.713,65.866L742.656,65.718L743.599,65.522L744.542,65.101L745.485,64.958L746.428,64.746L747.371,64.459L748.313,64.243L749.256,64.102L750.199,63.915L751.142,63.799L752.085,63.64L753.028,63.459L753.971,63.27L754.914,62.928L755.857,62.69L756.799,62.527L757.742,62.228L758.685,62.013L759.628,61.795L760.571,61.632L761.514,61.468L762.457,61.345L763.4,61.136L764.343,60.902L765.286,60.8L766.228,60.66L767.171,60.509L768.114,60.368L769.057,60.2L770,60"/></g></svg>