<svg class="plot-d6a7b5" fill="currentColor" font-family="system-ui, sans-serif" font-size="10" text-anchor="middle" width="830" height="470" viewBox="0 0 830 470" xmlns="http://www.w3.org/2000/svg" xmlns:xlink="http://www.w3.org/1999/xlink" color="#1e90ff"><style>:where(.plot-d6a7b5){--plot-background: white;display:block;height:intrinsic;max-width:100%}:where(.plot-d6a7b5 text),:where(.plot-d6a7b5 tspan){white-space:pre}</style><g aria-label="y-grid" stroke="currentColor" stroke-opacity=".1"><line x1="60" x2="770" y1="410" y2="410"/><line x1="60" x2="770" y1="383.452" y2="383.452"/><line x1="60" x2="770" y1="356.905" y2="356.905"/><line x1="60" x2="770" y1="330.357" y2="330.357"/><line x1="60" x2="770" y1="303.81" y2="303.81"/><line x1="60" x2="770" y1="277.262" y2="277.262"/><line x1="60" x2="770" y1="250.715" y2="250.715"/><line x1="60" x2="770" y1="224.167" y2="224.167"/><line x1="60" x2="770" y1="197.62" y2="197.62"/><line x1="60" x2="770" y1="171.072" y2="171.072"/><line x1="60" x2="770" y1="144.525" y2="144.525"/><line x1="60" x2="770" y1="117.977" y2="117.977"/><line x1="60" x2="770" y1="91.43" y2="91.43"/><line x1="60" x2="770" y1="64.882" y2="64.882"/></g><g aria-label="y-axis tick" fill="none" stroke="currentColor"><path transform="translate(60,410)" d="M0,0L-6,0"/><path transform="translate(60,383.4524685411752)" d="M0,0L-6,0"/><path transform="translate(60,356.90493708235044)" d="M0,0L-6,0"/><path transform="translate(60,330.35740562352566)" d="M0,0L-6,0"/><path transform="translate(60,303.80987416470083)" d="M0,0L-6,0"/><path transform="translate(60,277.2623427058761)" d="M0,0L-6,0"/><path transform="translate(60,250.71481124705133)" d="M0,0L-6,0"/><path transform="translate(60,224.16727978822655)" d="M0,0L-6,0"/><path transform="translate(60,197.61974832940174)" d="M0,0L-6,0"/><path transform="translate(60,171.07221687057702)" d="M0,0L-6,0"/><path transform="translate(60,144.52468541175222)" d="M0,0L-6,0"/><path transform="translate(60,117.97715395292744)" d="M0,0L-6,0"/><path transform="translate(60,91.42962249410266)" d="M0,0L-6,0"/><path transform="translate(60,64.88209103527787)" d="M0,0L-6,0"/></g><g aria-label="y-axis tick label" text-anchor="end" font-variant="tabular-nums"><text y=".32em" transform="translate(-9,0) translate(60,410)">0</text><text y=".32em" transform="translate(-9,0) translate(60,383.4524685411752)">50,000</text><text y=".32em" transform="translate(-9,0) translate(60,356.90493708235044)">100,000</text><text y=".32em" transform="translate(-9,0) translate(60,330.35740562352566)">150,000</text><text y=".32em" transform="translate(-9,0) translate(60,303.80987416470083)">200,000</text><text y=".32em" transform="translate(-9,0) translate(60,277.2623427058761)">250,000</text><text y=".32em" transform="translate(-9,0) translate(60,250.71481124705133)">300,000</text><text y=".32em" transform="translate(-9,0) translate(60,224.16727978822655)">350,000</text><text y=".32em" transform="translate(-9,0) translate(60,197.61974832940174)">400,000</text><text y=".32em" transform="translate(-9,0) translate(60,171.07221687057702)">450,000</text><text y=".32em" transform="translate(-9,0) translate(60,144.52468541175222)">500,000</text><text y=".32em" transform="translate(-9,0) translate(60,117.97715395292744)">550,000</text><text y=".32em" transform="translate(-9,0) translate(60,91.42962249410266)">600,000</text><text y=".32em" transform="translate(-9,0) translate(60,64.88209103527787)">650,000</text></g><g aria-label="y-axis label" text-anchor="start"><text y=".71em" transform="translate(-57,-57) translate(60,60)">↑ Total Vestiges</text></g><g aria-label="x-axis tick" fill="none" stroke="currentColor"><path transform="translate(93.25068870523415,410)" d="M0,0L0,6"/><path transform="translate(182.24517906336087,410)" d="M0,0L0,6"/><path transform="translate(272.2176308539945,410)" d="M0,0L0,6"/><path transform="translate(362.1900826446281,410)" d="M0,0L0,6"/><path transform="translate(451.1845730027548,410)" d="M0,0L0,6"/><path transform="translate(540.1790633608815,410)" d="M0,0L0,6"/><path transform="translate(630.1515151515151,410)" d="M0,0L0,6"/><path transform="translate(720.1239669421487,410)" d="M0,0L0,6"/></g><g aria-label="x-axis tick label" font-variant="tabular-nums"><text transform="translate(0,9) translate(93.25068870523415,410)"><tspan x="0" y=".71em">Apr</tspan><tspan x="0" dy="1em">2023</tspan></text><text y=".71em" transform="translate(0,9) translate(182.24517906336087,410)">Jul</text><text y=".71em" transform="translate(0,9) translate(272.2176308539945,410)">Oct</text><text transform="translate(0,9) translate(362.1900826446281,410)"><tspan x="0" y=".71em">Jan</tspan><tspan x="0" dy="1em">2024</tspan></text><text y=".71em" transform="translate(0,9) translate(451.1845730027548,410)">Apr</text><text y=".71em" transform="translate(0,9) translate(540.1790633608815,410)">Jul</text><text y=".71em" transform="translate(0,9) translate(630.1515151515151,410)">Oct</text><text transform="translate(0,9) translate(720.1239669421487,410)"><tspan x="0" y=".71em">Jan</tspan><tspan x="0" dy="1em">2025</tspan></text></g><g aria-label="line" fill="none" stroke="currentColor" stroke-width="1.5" stroke-linejoin="round" stroke-linecap="round"><path d="M60,410L60.652,409.733L61.304,408.759L61.956,408.233L62.608,407.86L63.26,407.245L63.912,406.761L64.564,406.307L65.216,405.389L65.868,404.662L66.52,403.799L67.172,402.463L67.824,401.203L68.476,400.549L69.128,399.602L69.78,398.959L70.432,398.222L71.084,397.258L71.736,396.609L72.388,395.973L73.039,395.11L73.691,394.153L74.343,393.475L74.995,392.318L75.647,391.77L76.299,391.259L76.951,390.336L77.603,389.453L78.255,388.774L78.907,387.826L79.559,386.882L80.211,386.022L80.863,384.689L81.515,383.631L82.167,383.018L82.819,382.38L83.471,381.899L84.123,381.511L84.775,380.791L85.427,380.087L86.079,379.596L86.731,378.46L87.383,377.273L88.035,376.209L88.687,374.92L89.339,374.046L89.991,373.302L90.643,372.288L91.295,371.439L91.947,370.825L92.599,369.718L93.251,368.649L93.903,367.65L94.555,366.219L95.207,364.861L95.859,364.154L96.511,363.105L97.163,362.159L97.815,361.311L98.466,360.111L99.118,358.983L99.77,358.003L100.422,356.826L101.074,355.697L101.726,354.725L102.378,353.417L103.03,352.613L103.682,351.887L104.334,350.874L104.986,350.046L105.638,349.426L106.29,348.627L106.942,347.766L107.594,346.962L108.246,345.908L108.898,344.864L109.55,344.269L110.202,343.443L110.854,342.798L111.506,342.373L112.158,341.717L112.81,341.063L113.462,340.369L114.114,339.471L114.766,338.557L115.418,337.844L116.07,336.857L116.722,336.163L117.374,335.71L118.026,334.67L118.678,333.951L119.33,333.562L119.982,332.911L120.634,332.283L121.286,331.629L121.938,330.73L122.59,329.949L123.242,329.275L123.893,328.69L124.545,328.171L125.197,327.674L125.849,326.858L126.501,326.394L127.153,325.922L127.805,325.156L128.457,324.287L129.109,323.606L129.761,322.73L130.413,322.139L131.065,321.591L131.717,320.796L132.369,320.252L133.021,319.735L133.673,319.043L134.325,318.503L134.977,317.85L135.629,317.158L136.281,316.53L136.933,316.01L137.585,315.464L138.237,314.988L138.889,314.539L139.541,313.907L140.193,313.426L140.845,312.993L141.497,312.277L142.149,311.347L142.801,310.668L143.453,309.785L144.105,309.257L144.757,308.651L145.409,308.026L146.061,307.454L146.713,307.053L147.365,306.257L148.017,305.632L148.669,304.975L149.32,304.022L149.972,303.32L150.624,302.706L151.276,302.079L151.928,301.395L152.58,300.865L153.232,300.346L153.884,299.66L154.536,299.255L155.188,298.718L155.84,298.233L156.492,297.778L157.144,297.136L157.796,296.672L158.448,296.189L159.1,295.542L159.752,295.079L160.404,294.652L161.056,294.19L161.708,293.645L162.36,293.133L163.012,292.599L163.664,292.02L164.316,291.565L164.968,291.009L165.62,290.541L166.272,290.076L166.924,289.431L167.576,288.894L168.228,288.47L168.88,287.914L169.532,287.385L170.184,287.003L170.836,286.346L171.488,285.845L172.14,285.328L172.792,284.754L173.444,284.266L174.096,283.975L174.747,283.443L175.399,283.008L176.051,282.491L176.703,281.876L177.355,281.389L178.007,280.853L178.659,280.263L179.311,279.726L179.963,279.254L180.615,278.486L181.267,277.861L181.919,277.501L182.571,276.926L183.223,276.413L183.875,276.105L184.527,275.56L185.179,275.207L185.831,274.788L186.483,274.279L187.135,273.804L187.787,273.429L188.439,272.835L189.091,272.4L189.743,272.007L190.395,271.455L191.047,270.958L191.699,270.568L192.351,269.969L193.003,269.587L193.655,269.154L194.307,268.605L194.959,268.158L195.611,267.651L196.263,267.071L196.915,266.563L197.567,266.13L198.219,265.635L198.871,265.052L199.522,264.595L200.174,264.168L200.826,263.715L201.478,263.371L202.13,262.78L202.782,262.411L203.434,261.993L204.086,261.468L204.738,261.05L205.39,260.543L206.042,259.867L206.694,259.358L207.346,259.058L207.998,258.368L208.65,257.86L209.302,257.409L209.954,256.779L210.606,256.353L211.258,255.896L211.91,255.369L212.562,254.834L213.214,254.373L213.866,253.69L214.518,253.164L215.17,252.701L215.822,252.14L216.474,251.522L217.126,250.89L217.778,249.96L218.43,249.393L219.082,248.965L219.734,248.386L220.386,247.92L221.038,247.582L221.69,247.056L222.342,246.592L222.994,246.267L223.646,245.737L224.298,245.255L224.949,244.905L225.601,244.344L226.253,243.821L226.905,243.423L227.557,242.899L228.209,242.243L228.861,241.691L229.513,241.002L230.165,240.514L230.817,240.042L231.469,239.345L232.121,238.821L232.773,238.335L233.425,237.752L234.077,237.268L234.729,236.945L235.381,236.478L236.033,236.125L236.685,235.738L237.337,235.268L237.989,234.797L238.641,234.361L239.293,233.925L239.945,233.475L240.597,233.094L241.249,232.671L241.901,232.252L242.553,231.898L243.205,231.489L243.857,231.068L244.509,230.614L245.161,230.069L245.813,229.68L246.465,229.26L247.117,228.82L247.769,228.497L248.421,228.151L249.073,227.79L249.725,227.569L250.376,227.298L251.028,226.68L251.68,226.252L252.332,225.851L252.984,225.307L253.636,225.079L254.288,224.774L254.94,224.487L255.592,224.258L256.244,223.911L256.896,223.557L257.548,223.152L258.2,222.726L258.852,222.046L259.504,221.47L260.156,221.16L260.808,220.743L261.46,220.455L262.112,220.109L262.764,219.71L263.416,219.353L264.068,219.068L264.72,218.632L265.372,218.152L266.024,217.797L266.676,217.315L267.328,217.07L267.98,216.828L268.632,216.505L269.284,216.2L269.936,215.929L270.588,215.488L271.24,215.12L271.892,214.744L272.544,214.236L273.196,213.855L273.848,213.653L274.5,213.279L275.152,213.004L275.803,212.756L276.455,212.444L277.107,212.138L277.759,211.785L278.411,211.321L279.063,210.826L279.715,210.328L280.367,209.81L281.019,209.437L281.671,209.153L282.323,208.799L282.975,208.504L283.627,208.185L284.279,207.756L284.931,207.468L285.583,207.199L286.235,206.599L286.887,206.086L287.539,205.77L288.191,205.444L288.843,205.21L289.495,205.025L290.147,204.635L290.799,204.376L291.451,204.119L292.103,203.618L292.755,203.079L293.407,202.674L294.059,202.126L294.711,201.835L295.363,201.569L296.015,201.111L296.667,200.814L297.319,200.533L297.971,200.131L298.623,199.703L299.275,199.429L299.927,198.975L300.579,198.684L301.23,198.496L301.882,198.092L302.534,197.822L303.186,197.657L303.838,197.408L304.49,197.155L305.142,196.729L305.794,196.228L306.446,195.724L307.098,195.389L307.75,195.057L308.402,194.865L309.054,194.574L309.706,194.233L310.358,194.045L311.01,193.849L311.662,193.512L312.314,193.307L312.966,193.023L313.618,192.713L314.27,192.435L314.922,192.254L315.574,192.004L316.226,191.868L316.878,191.681L317.53,191.428L318.182,191.257L318.834,191.142L319.486,190.743L320.138,190.352L320.79,189.968L321.442,189.586L322.094,189.294L322.746,189.113L323.398,188.819L324.05,188.636L324.702,188.38L325.354,188.005L326.006,187.701L326.657,187.433L327.309,187.033L327.961,186.749L328.613,186.474L329.265,186.15L329.917,185.884L330.569,185.583L331.221,185.138L331.873,184.873L332.525,184.625L333.177,184.365L333.829,184.065L334.481,183.769L335.133,183.443L335.785,183.254L336.437,183.137L337.089,182.858L337.741,182.624L338.393,182.444L339.045,182.226L339.697,182.019L340.349,181.857L341.001,181.602L341.653,181.368L342.305,181.236L342.957,180.934L343.609,180.648L344.261,180.525L344.913,180.346L345.565,180.205L346.217,180.05L346.869,179.753L347.521,179.456L348.173,179.239L348.825,179.036L349.477,178.828L350.129,178.566L350.781,178.36L351.433,178.211L352.084,178.036L352.736,177.744L353.388,177.562L354.04,177.341L354.692,176.971L355.344,176.672L355.996,176.518L356.648,176.278L357.3,175.967L357.952,175.72L358.604,175.401L359.256,175.159L359.908,174.887L360.56,174.568L361.212,174.322L361.864,174.091L362.516,173.798L363.168,173.547L363.82,173.318L364.472,172.96L365.124,172.745L365.776,172.579L366.428,172.232L367.08,172.11L367.732,171.9L368.384,171.561L369.036,171.385L369.688,171.181L370.34,170.927L370.992,170.773L371.644,170.615L372.296,170.456L372.948,170.34L373.6,170.122L374.252,169.826L374.904,169.553L375.556,169.219L376.208,168.822L376.86,168.639L377.511,168.424L378.163,168.215L378.815,167.927L379.467,167.606L380.119,167.365L380.771,167.191L381.423,166.909L382.075,166.57L382.727,166.095L383.379,165.8L384.031,165.439L384.683,165.23L385.335,165.038L385.987,164.781L386.639,164.671L387.291,164.508L387.943,164.098L388.595,163.647L389.247,163.317L389.899,162.857L390.551,162.601L391.203,162.384L391.855,162.123L392.507,161.866L393.159,161.647L393.811,161.303L394.463,161.098L395.115,160.755L395.767,160.245L396.419,159.887L397.071,159.629L397.723,159.245L398.375,158.989L399.027,158.802L399.679,158.408L400.331,158.09L400.983,157.736L401.635,157.387L402.287,156.981L402.938,156.439L403.59,155.849L404.242,155.528L404.894,155.194L405.546,154.706L406.198,154.374L406.85,154.126L407.502,153.806L408.154,153.535L408.806,153.263L409.458,152.826L410.11,152.444L410.762,152.286L411.414,151.945L412.066,151.653L412.718,151.316L413.37,150.984L414.022,150.786L414.674,150.494L415.326,150.058L415.978,149.655L416.63,149.387L417.282,148.975L417.934,148.768L418.586,148.504L419.238,148.205L419.89,148.011L420.542,147.78L421.194,147.475L421.846,147.231L422.498,146.986L423.15,146.532L423.802,146.278L424.454,146.061L425.106,145.867L425.758,145.685L426.41,145.444L427.062,145.219L427.713,145.081L428.365,144.91L429.017,144.543L429.669,144.313L430.321,144.139L430.973,143.797L431.625,143.558L432.277,143.457L432.929,143.252L433.581,142.978L434.233,142.773L434.885,142.494L435.537,142.19L436.189,141.9L436.841,141.452L437.493,141.141L438.145,140.941L438.797,140.906L439.449,140.901L440.101,140.899L440.753,140.897L441.405,140.893L442.057,140.888L442.709,140.883L443.361,140.859L444.013,140.841L444.665,140.83L445.317,140.801L445.969,140.754L446.621,140.721L447.273,140.678L447.925,140.596L448.577,140.485L449.229,140.205L449.881,140.016L450.533,139.84L451.185,139.68L451.837,139.528L452.489,139.354L453.14,139.133L453.792,138.934L454.444,138.699L455.096,138.455L455.748,138.239L456.4,137.976L457.052,137.776L457.704,137.623L458.356,137.401L459.008,137.164L459.66,137.061L460.312,136.907L460.964,136.678L461.616,136.549L462.268,136.414L462.92,136.213L463.572,136.053L464.224,135.82L464.876,135.624L465.528,135.508L466.18,135.33L466.832,135.176L467.484,135.03L468.136,134.929L468.788,134.803L469.44,134.728L470.092,134.594L470.744,134.451L471.396,134.271L472.048,134.016L472.7,133.855L473.352,133.75L474.004,133.526L474.656,133.356L475.308,133.201L475.96,133.04L476.612,132.815L477.264,132.66L477.916,132.444L478.567,132.296L479.219,132.183L479.871,132.009L480.523,131.815L481.175,131.614L481.827,131.483L482.479,131.303L483.131,131.15L483.783,130.957L484.435,130.683L485.087,130.477L485.739,130.213L486.391,130.067L487.043,129.937L487.695,129.757L488.347,129.578L488.999,129.428L489.651,129.225L490.303,128.996L490.955,128.853L491.607,128.595L492.259,128.367L492.911,128.183L493.563,127.915L494.215,127.761L494.867,127.642L495.519,127.548L496.171,127.417L496.823,127.252L497.475,127.073L498.127,126.695L498.779,126.507L499.431,126.221L500.083,126.086L500.735,125.956L501.387,125.794L502.039,125.555L502.691,125.474L503.343,125.298L503.994,125.105L504.646,124.931L505.298,124.665L505.95,124.336L506.602,124.164L507.254,123.876L507.906,123.743L508.558,123.564L509.21,123.242L509.862,123.006L510.514,122.845L511.166,122.585L511.818,122.307L512.47,122.156L513.122,121.813L513.774,121.657L514.426,121.502L515.078,121.276L515.73,121.044L516.382,120.886L517.034,120.623L517.686,120.418L518.338,120.204L518.99,119.89L519.642,119.576L520.294,119.351L520.946,119.134L521.598,118.846L522.25,118.674L522.902,118.496L523.554,118.336L524.206,118.107L524.858,117.911L525.51,117.701L526.162,117.507L526.814,117.301L527.466,117.07L528.118,117L528.77,116.892L529.421,116.728L530.073,116.599L530.725,116.291L531.377,116.111L532.029,115.984L532.681,115.817L533.333,115.458L533.985,115.335L534.637,115.154L535.289,114.909L535.941,114.725L536.593,114.605L537.245,114.445L537.897,114.345L538.549,114.21L539.201,114.055L539.853,113.894L540.505,113.602L541.157,113.398L541.809,113.26L542.461,113.004L543.113,112.82L543.765,112.634L544.417,112.495L545.069,112.355L545.721,112.25L546.373,112.071L547.025,111.872L547.677,111.784L548.329,111.665L548.981,111.536L549.633,111.416L550.285,111.272L550.937,111.101L551.589,110.914L552.241,110.712L552.893,110.6L553.545,110.481L554.197,110.29L554.848,110.12L555.5,110.013L556.152,109.822L556.804,109.645L557.456,109.506L558.108,109.339L558.76,109.164L559.412,108.976L560.064,108.72L560.716,108.369L561.368,108.15L562.02,107.916L562.672,107.756L563.324,107.601L563.976,107.387L564.628,107.238L565.28,107.121L565.932,106.977L566.584,106.828L567.236,106.664L567.888,106.487L568.54,106.238L569.192,106.059L569.844,105.773L570.496,105.503L571.148,105.226L571.8,104.947L572.452,104.699L573.104,104.413L573.756,104.107L574.408,103.953L575.06,103.75L575.712,103.385L576.364,103.194L577.016,103.021L577.668,102.783L578.32,102.619L578.972,102.535L579.624,102.042L580.275,101.616L580.927,101.192L581.579,100.737L582.231,100.37L582.883,100.105L583.535,99.693L584.187,99.259L584.839,98.992L585.491,98.74L586.143,98.436L586.795,98.155L587.447,97.842L588.099,97.497L588.751,97.269L589.403,97.128L590.055,96.872L590.707,96.726L591.359,96.572L592.011,96.37L592.663,96.178L593.315,95.954L593.967,95.685L594.619,95.416L595.271,95.209L595.923,95L596.575,94.815L597.227,94.652L597.879,94.539L598.531,94.456L599.183,94.359L599.835,94.236L600.487,94.092L601.139,93.992L601.791,93.831L602.443,93.722L603.095,93.594L603.747,93.482L604.399,93.342L605.051,93.228L605.702,93.023L606.354,92.875L607.006,92.713L607.658,92.589L608.31,92.403L608.962,92.211L609.614,92.041L610.266,91.911L610.918,91.752L611.57,91.635L612.222,91.501L612.874,91.413L613.526,91.305L614.178,91.187L614.83,91.089L615.482,90.917L616.134,90.777L616.786,90.657L617.438,90.536L618.09,90.391L618.742,90.264L619.394,90.1L620.046,89.995L620.698,89.809L621.35,89.559L622.002,89.319L622.654,88.986L623.306,88.841L623.958,88.677L624.61,88.505L625.262,88.398L625.914,88.219L626.566,88.041L627.218,87.862L627.87,87.627L628.522,87.212L629.174,87.029L629.826,86.909L630.478,86.653L631.129,86.499L631.781,86.416L632.433,86.245L633.085,86.103L633.737,85.991L634.389,85.794L635.041,85.569L635.693,85.349L636.345,85.037L636.997,84.916L637.649,84.81L638.301,84.658L638.953,84.524L639.605,84.448L640.257,84.357L640.909,84.222L641.561,84.153L642.213,84.026L642.865,83.912L643.517,83.826L644.169,83.72L644.821,83.655L645.473,83.551L646.125,83.398L646.777,83.271L647.429,83.174L648.081,82.976L648.733,82.82L649.385,82.68L650.037,82.473L650.689,82.414L651.341,82.338L651.993,82.201L652.645,82.12L653.297,82.036L653.949,81.928L654.601,81.859L655.253,81.776L655.904,81.578L656.556,81.456L657.208,81.412L657.86,81.359L658.512,81.283L659.164,81.172L659.816,81.065L660.468,80.902L661.12,80.816L661.772,80.64L662.424,80.392L663.076,80.21L663.728,79.938L664.38,79.744L665.032,79.62L665.684,79.502L666.336,79.387L666.988,79.251L667.64,79.146L668.292,79.055L668.944,78.897L669.596,78.739L670.248,78.568L670.9,78.478L671.552,78.32L672.204,78.257L672.856,78.179L673.508,78.024L674.16,77.925L674.812,77.825L675.464,77.71L676.116,77.565L676.768,77.432L677.42,77.289L678.072,77.205L678.724,77.088L679.376,76.949L680.028,76.827L680.68,76.713L681.331,76.559L681.983,76.452L682.635,76.327L683.287,76.136L683.939,75.946L684.591,75.871L685.243,75.763L685.895,75.641L686.547,75.561L687.199,75.45L687.851,75.364L688.503,75.317L689.155,75.21L689.807,75.156L690.459,75.127L691.111,75.054L691.763,74.952L692.415,74.898L693.067,74.84L693.719,74.727L694.371,74.55L695.023,74.434L695.675,74.27L696.327,74.207L696.979,74.114L697.631,74.042L698.283,73.942L698.935,73.843L699.587,73.791L700.239,73.72L700.891,73.598L701.543,73.503L702.195,73.413L702.847,73.25L703.499,73.09L704.151,73.005L704.803,72.852L705.455,72.768L706.107,72.615L706.758,72.5L707.41,72.445L708.062,72.378L708.714,72.263L709.366,72.172L710.018,72.067L710.67,71.881L711.322,71.825L711.974,71.688L712.626,71.575L713.278,71.485L713.93,71.414L714.582,71.325L715.234,71.259L715.886,71.173L716.538,71.08L717.19,70.933L717.842,70.811L718.494,70.556L719.146,70.374L719.798,70.229L720.45,70.056L721.102,69.926L721.754,69.806L722.406,69.599L723.058,69.385L723.71,69.272L724.362,69.077L725.014,68.96L725.666,68.888L726.318,68.754L726.97,68.662L727.622,68.562L728.274,68.492L728.926,68.344L729.578,68.254L730.23,68.148L730.882,68.048L731.534,67.928L732.185,67.843L732.837,67.747L733.489,67.66L734.141,67.563L734.793,67.422L735.445,67.318L736.097,67.137L736.749,67.027L737.401,66.912L738.053,66.769L738.705,66.631L739.357,66.482L740.009,66.321L740.661,66.208L741.313,66.14L741.965,66L742.617,65.88L743.269,65.772L743.921,65.634L744.573,65.477L745.225,65.255L745.877,64.974L746.529,64.773L747.181,64.663L747.833,64.542L748.485,64.448L749.137,64.342L749.789,64.191L750.441,64.095L751.093,64.018L751.745,63.818L752.397,63.643L753.049,63.555L753.701,63.402L754.353,63.275L755.005,63.158L755.657,63.031L756.309,62.861L756.961,62.661L757.612,62.531L758.264,62.4L758.916,62.311L759.568,62.201L760.22,62.105L760.872,62.063L761.524,61.876L762.176,61.795L762.828,61.665L763.48,61.498L764.132,61.361L764.784,61.166L765.436,60.983L766.088,60.856L766.74,60.73L767.392,60.521L768.044,60.415L768.696,60.302L769.348,60.117L770,60"/></g></svg>