<svg xmlns="http://www.w3.org/2000/svg" width="830" height="470" fill="currentColor" class="plot-d6a7b5" font-family="system-ui, sans-serif" font-size="10" style="--plot-background:white;display:block;height:intrinsic;max-width:100%;color:#1e90ff" text-anchor="middle" viewBox="0 0 830 470">
    <style>
        :where(.plot-d6a7b5 text),:where(.plot-d6a7b5 tspan){white-space:pre}
    </style>
    <path stroke="currentColor" stroke-opacity=".1" d="
M60
410
h710
M60
378.557
h710
M60
347.114
h710
M60
315.671
h710
M60
284.227
h710
M60
252.784
h710
M60
221.341
h710
M60
189.898
h710
M60
158.455
h710
M60
127.012
h710
M60
95.568
h710
M60
64.125
h710" aria-hidden="true" aria-label="y-grid"/>
    <path fill="none" stroke="currentColor" d="
M60
410
h-6
m6
-31.443
h-6
m6
-31.443
h-6
m6
-31.444
h-6
m6
-31.443
h-6
m6
-31.443
h-6
m6
-31.443
h-6
m6
-31.443
h-6
m6
-31.443
h-6
m6
-31.443
h-6
m6
-31.444
h-6
m6
-31.443
h-6" aria-hidden="true" aria-label="y-axis tick"/>
    <g aria-label="y-axis tick label" font-variant="tabular-nums" text-anchor="end">
        <text y=".32em" transform="translate(51 410)">0</text>
        <text y=".32em" transform="translate(51 378.557)">5,000</text>
        <text y=".32em" transform="translate(51 347.114)">10,000</text>
        <text y=".32em" transform="translate(51 315.67)">15,000</text>
        <text y=".32em" transform="translate(51 284.227)">20,000</text>
        <text y=".32em" transform="translate(51 252.784)">25,000</text>
        <text y=".32em" transform="translate(51 221.341)">30,000</text>
        <text y=".32em" transform="translate(51 189.898)">35,000</text>
        <text y=".32em" transform="translate(51 158.455)">40,000</text>
        <text y=".32em" transform="translate(51 127.012)">45,000</text>
        <text y=".32em" transform="translate(51 95.568)">50,000</text>
        <text y=".32em" transform="translate(51 64.125)">55,000</text>
    </g>
    <text y=".71em" aria-label="y-axis label" text-anchor="start" transform="translate(3 3)">↑ Visible vestiges (30 days)</text>
    <path fill="none" stroke="currentColor" d="
M79.637
410
v6
m52.557
-6
v6
m53.134
-6
v6
m53.135
-6
v6
m52.557
-6
v6
m52.556
-6
v6
m53.135
-6
v6
m53.134
-6
v6
m51.98
-6
v6
m52.557
-6
v6
m53.134
-6
v6
m53.134
-6
v6
m51.98
-6
v6
m52.557
-6
v6" aria-hidden="true" aria-label="x-axis tick"/>
    <g aria-label="x-axis tick label" font-variant="tabular-nums">
        <text transform="translate(79.637 419)"><tspan x="0" y=".71em">Apr</tspan><tspan x="0" dy="1em">2023</tspan></text>
        <text y=".71em" transform="translate(132.194 419)">Jul</text>
        <text y=".71em" transform="translate(185.328 419)">Oct</text>
        <text transform="translate(238.463 419)"><tspan x="0" y=".71em">Jan</tspan><tspan x="0" dy="1em">2024</tspan></text>
        <text y=".71em" transform="translate(291.02 419)">Apr</text>
        <text y=".71em" transform="translate(343.576 419)">Jul</text>
        <text y=".71em" transform="translate(396.711 419)">Oct</text>
        <text transform="translate(449.845 419)"><tspan x="0" y=".71em">Jan</tspan><tspan x="0" dy="1em">2025</tspan></text>
        <text y=".71em" transform="translate(501.825 419)">Apr</text>
        <text y=".71em" transform="translate(554.382 419)">Jul</text>
        <text y=".71em" transform="translate(607.516 419)">Oct</text>
        <text transform="translate(660.65 419)"><tspan x="0" y=".71em">Jan</tspan><tspan x="0" dy="1em">2026</tspan></text>
        <text y=".71em" transform="translate(712.63 419)">Apr</text>
        <text y=".71em" transform="translate(765.187 419)">Jul</text>
    </g>
    <path fill="none" stroke="currentColor" stroke-linecap="round" stroke-linejoin="round" stroke-width="1.5" d="
m60
410
.385
-3.157
.385
-11.546
.385
-6.226
.385
-4.414
.385
-7.282
.385
-5.736
.385
-5.376
.385
-10.88
.385
-8.609
.385
-10.219
.385
-15.828
.385
-14.923
.385
-7.748
.385
-11.213
.385
-7.615
.386
-8.729
.385
-11.414
.385
-7.684
.385
-7.534
.385
-10.225
.385
-11.339
.385
-8.03
.385
-13.703
.385
-6.49
.385
-6.056
.385
-10.923
.385
-10.458
.385
-8.05
.385
-11.219
.385
-8.03
.385
1.358
.385
-9.565
.385
-8.112
.385
.025
.385
-1.824
.385
-.314
.385
6.282
.385
.082
.385
1.88
.385
10.012
.385
1.471
.385
-6.314
.385
-1.389
.385
-7.654
.385
-1.622
.385
2.597
.386
-4.327
.385
-2.515
.385
2.949
.385
-1.767
.385
-4.641
.385
1.881
.385
-10.458
.385
-10.037
.385
2.553
.385
-1.962
.385
-3.157
.385
1.176
.385
-3.031
.385
-3.169
.385
4.188
.385
-1.421
.385
-6.113
.385
-3.956
.385
-9.797
.385
-4.931
.385
-.069
.385
-3.653
.385
-4
.385
6.113
.385
4.603
.385
2.396
.385
5.754
.385
-2.132
.385
-3.553
.385
4.962
.386
.264
.385
-.365
.385
8.081
.385
4.893
.385
4.081
.385
8.728
.385
5.453
.385
-2.447
.385
3.975
.385
-.491
.385
1.83
.385
8.855
.385
1.037
.385
3.088
.385
9.339
.385
5.653
.385
4.075
.385
7.741
.385
-1.113
.385
-.66
.385
4.019
.385
2.886
.385
1.189
.385
3.571
.385
.548
.385
4.012
.385
6.892
.385
3.295
.385
-3.238
.385
1.716
.385
-2.735
.386
-1.968
.385
1.282
.385
-1.672
.385
1.779
.385
4.509
.385
2.629
.385
2.044
.385
3.962
.385
.018
.385
-2.075
.385
6.157
.385
2.056
.385
-1.031
.385
2.402
.385
-.044
.385
2.05
.385
5.503
.385
.78
.385
-3.044
.385
-1.107
.385
-4.308
.385
-.371
.385
2.484
.385
-1.905
.385
-1.176
.385
4.32
.385
.862
.385
.666
.385
2.597
.385
-4.301
.385
-1.817
.386
2.144
.385
-.987
.385
-1.975
.385
1.912
.385
.258
.385
-.39
.385
3.402
.385
1.075
.385
.422
.385
1.062
.385
-1.962
.385
-.176
.385
1.761
.385
-1.968
.385
-.34
.385
3.415
.385
5.54
.385
1.585
.385
4.396
.385
-.069
.385
.314
.385
2.025
.385
.176
.385
-.786
.385
3.918
.385
-.239
.385
1.421
.385
6.276
.385
1.723
.385
1.006
.385
2.899
.386
.327
.385
.34
.385
.025
.385
1.327
.385
-.994
.385
2.925
.385
-.566
.385
.251
.385
1.478
.385
-1.792
.385
-.044
.385
1.314
.385
-1.509
.385
-1.302
.385
-.107
.385
-2.654
.385
-1.339
.385
2.063
.385
.05
.385
-.686
.385
2.943
.385
-.924
.385
1.333
.385
2.679
.385
.327
.385
-.604
.385
2.145
.385
-.767
.385
-.623
.385
3.119
.386
-.603
.385
.239
.385
2.169
.385
-1.308
.385
-1.075
.385
1.176
.385
-1.365
.385
.836
.385
1.277
.385
-1.107
.385
.334
.385
1.867
.385
.491
.385
-1.321
.385
3.704
.385
2.333
.385
-1.094
.385
2.729
.385
-.924
.385
-.73
.385
1.516
.385
-2.038
.385
.013
.385
.019
.385
-2.377
.385
-1.585
.385
3.478
.385
-3.025
.385
-1.352
.385
1.195
.385
-1.585
.386
-.415
.385
1.679
.385
-1.73
.385
-1.201
.385
1.044
.385
-2.798
.385
-.22
.385
1.39
.385
-.629
.385
-2.201
.385
-1.61
.385
-4.107
.385
-1.32
h.385
l.385
-1.503
.385
-1.434
.385
2.993
.385
-1.855
.385
-.547
.385
2.365
.385
-1.327
.385
.295
.385
3.855
.385
-.604
.385
-2.647
.385
3.459
.385
-.195
.385
-2.415
.385
.918
.385
-3.119
.385
-.365
.386
.66
.385
-1.93
.385
-.736
.385
2.333
.385
-.685
.385
-.239
.385
2.817
.385
1.786
.385
3.308
.385
6.42
.385
1.164
.385
-.516
.385
1.698
.385
.352
.385
-1.327
.385
1.717
.385
.484
.385
-1.113
.385
2.082
.385
.874
.385
-.843
.385
1.252
.385
-.252
.385
.113
.385
1.233
.385
2.547
.385
2.723
.385
4.062
.385
1.503
.385
2.969
.386
5.056
.385
-1.12
.385
.686
.385
2.157
.385
-.724
.385
1.132
.385
1.925
.385
.773
.385
1.874
.385
1.453
.385
1.396
.385
.358
.385
.12
.385
-2.723
.385
-2.314
.385
1.345
.385
.019
.385
.793
.385
.742
.385
.264
.385
1.144
.385
3.082
.385
-.566
.385
-.704
.385
1.012
.385
-1.893
.385
1.195
.385
1.415
.385
-1.207
.385
-.403
.385
4.107
.386
-.158
.385
.396
.385
1.994
.385
-3.32
.385
-.9
.385
1.013
.385
-1.717
.385
.843
.385
1.257
.385
1.107
.385
1.415
.385
3.874
.385
1.339
.385
-2.207
.385
-.949
.385
-2.73
.385
-.32
.385
1.352
.385
.056
.385
-.126
.385
1.39
.385
.598
.385
.792
.385
2.522
.385
-4.201
.385
-3.214
.385
.082
.385
-.251
.385
.44
.385
3.037
.385
-.264
.386
1.39
.385
2.968
.385
-1.421
.385
-3.993
.385
-.359
.385
-3.232
.385
-.51
.385
.541
.385
-1.798
.385
.666
.385
2.151
.385
1.119
.385
.824
.385
2.887
.385
-.956
.385
-.082
.385
1.956
.385
-1.283
.385
.572
.385
3.132
.385
.465
.385
.189
.385
2.069
.385
.138
.385
-2.226
.385
-.113
.385
-1.151
.385
-.094
.385
1.182
.385
-.975
.385
.824
.386
3.603
.385
2.396
.385
2.359
.385
3.138
.385
-.233
.385
-.138
.385
3.282
.385
.554
.385
1.723
.385
2.54
.385
2.069
.385
1.22
.385
4.019
.385
-1.27
.385
-2.415
.385
.239
.385
-1.315
.385
-1.509
.385
.799
.385
-.484
.385
2.873
.385
2.899
.385
1.535
.385
.365
.385
.754
.385
-2.452
.385
.075
.385
.78
.385
-1.61
.385
-.824
.386
.415
.385
-2.836
.385
.227
.385
.729
.385
.214
.385
-1.409
.385
-.547
.385
-2.245
.385
-.019
.385
1.61
.385
-1.283
.385
-1.408
.385
2.584
.385
2.063
.385
2.094
.385
2.603
.385
.434
.385
-.629
.385
1.931
.385
-1.415
.385
-.346
.385
2.968
.385
1.491
.385
1.503
.385
2.893
.385
-.145
.385
-.264
.385
1.27
.385
.749
.385
1.1
.385
2.163
.386
.698
.385
1.183
.385
1
.385
.1
.385
1.346
.385
1.239
.385
-2.151
.385
-2.151
.385
1.491
.385
-.076
.385
-1.553
.385
-.346
.385
-1.327
.385
-.949
.385
-.195
.385
-1.006
.385
-1.359
.385
.843
.385
-.088
.385
-1.503
.385
-.591
.385
-2.579
.385
-.698
.385
1.541
.385
-.585
.385
1.113
.385
-.081
.385
-1.547
.385
1.025
.385
.018
.385
-1.251
.386
.258
.385
1.585
.385
.27
.385
1.245
.385
1.811
.385
.032
.385
-1.422
.385
-1.106
.385
-1.019
.385
.767
.385
1.22
.385
.396
.385
-.195
.385
-.025
.385
.069
.385
.68
.385
.125
.385
-1.05
.385
-2.912
.385
.755
.385
-1.742
.385
-.503
.385
1.836
.385
-1.597
.385
1.176
.385
2.094
.385
-2.779
.385
-2.925
.385
-.899
.385
-3.622
.385
-1.157
.386
-.686
.385
-1.723
.385
-.471
.385
.918
.385
-.837
.385
1.522
.385
.654
.385
-3.886
.385
-1.686
.385
-.591
.385
-1.132
.385
.78
.385
.635
.385
-2.616
.385
-.415
.385
-.176
.385
1.49
.385
-1.326
.385
-2.139
.385
-4.509
.385
-1.534
.385
-.912
.385
-4.471
.385
-2.006
.385
1.924
.385
1.554
.385
.704
.385
2.22
.385
-2.151
.385
-1.956
.386
1.233
.385
-.994
.385
-.868
.385
.082
.385
-1.503
.385
1.704
.385
2.585
.385
-.924
.385
-1.705
.385
1.365
.385
-1.855
.385
-.233
.385
1.541
.385
.226
.385
1.893
.385
1.403
.385
1.194
.385
3.541
.385
4.075
.385
-1.579
.385
.956
.385
3.214
.385
1.629
.385
.786
.385
.93
.385
.541
.385
1.591
.385
3.145
.385
.188
.385
-.855
.385
1.968
.386
-.591
.385
1.164
.385
2.735
.385
-.075
.385
.213
.385
2.736
.385
1.459
.385
-.415
.385
1.446
.385
-2.861
.385
-.547
.385
1.163
.385
1.881
.385
2.679
.385
3.597
.385
2.848
.385
2.862
.385
5.326
.385
2.943
.385
2.283
.385
2.088
.385
2.018
.385
2.516
.385
2.107
.385
1.245
.385
1.528
.385
3.358
.385
1.409
.385
-1.239
.385
1.811
.385
.736
.386
-.692
.385
.629
.385
1.182
.385
-.195
.385
.956
.385
.811
.385
.541
.385
2.748
.385
.566
h.385
l.385
-1.39
.385
-2.572
.385
-2.786
.385
-1.188
.385
-1.786
.385
-2.654
.385
-1.465
.385
-1.314
.385
-2.164
.385
-1.761
.385
-2.421
.385
-1.76
.385
-.994
.385
-1.597
.385
-.849
.385
-.415
.385
2.113
.385
.748
.385
1.207
.385
.296
.385
.113
.386
-.075
.385
-.397
.385
.441
.385
1.547
.385
.239
.385
.54
.385
1.283
.385
.459
.385
-.849
.385
.787
.385
.251
.385
-.528
.385
.484
.385
.648
.385
-.761
.385
-.786
.385
.824
.385
-.239
.385
.943
.385
.038
.385
-1.862
.385
-.333
.385
-1.302
h.385
l.385
-.339
.385
-.642
.385
-1.232
.385
-.195
.385
-.711
.385
-.579
.386
1.321
.385
-1.138
.385
-1.459
.385
.465
.385
-1.151
.385
.007
.385
.503
.385
1.547
.385
.289
.385
.604
.385
-.378
.385
-3.131
.385
-.157
.385
-1.101
.385
.786
.385
.006
.385
.22
.385
-1.018
.385
1.32
.385
1.17
.385
.145
.385
1.069
.385
-1.422
.385
-2.364
.385
.101
.385
-1.296
.385
.208
.385
.283
.385
-1.101
.385
-1.094
.385
1.144
.386
-.383
.385
-1.113
.385
1.39
.385
-2.246
.385
-.433
.385
-.73
.385
-1.119
.385
-.799
.385
.252
.385
1.371
.385
-.208
.385
.855
.385
-2.132
.385
-2.163
.385
-.761
.385
.271
.385
-2.447
.385
.032
.385
.182
.385
.164
.385
.446
.385
1.572
.385
-.452
.385
1.119
.385
-.862
.385
-.622
.385
2.981
.385
1.521
.385
-.037
.385
1.553
.385
-.352
.386
-.352
.385
2.572
.385
-.145
.385
-2.408
.385
1.213
.385
.61
.385
-1.025
.385
.925
.385
.999
.385
.642
.385
2.553
.385
2.107
.385
.836
.385
.661
.385
-.051
.385
-.371
.385
.466
.385
-1.126
.385
.522
.385
.126
.385
.836
.385
.635
.385
1.195
.385
.623
.385
-1.529
.385
.233
.385
.535
h.385
l.385
2.226
.385
.434
.386
-.529
.385
-.232
.385
1.855
.385
.126
.385
.742
.385
.629
.385
.176
.385
.163
.385
-.371
.385
-.918
.385
-.05
.385
-.145
.385
-.163
.385
1.238
.385
-.622
.385
-2.522
.385
.434
.385
-.585
.385
.308
.385
-.188
.385
-.874
.385
-.529
.385
.73
.385
.666
.385
-.729
.385
-.541
.385
-.56
.385
-1.521
.385
-.422
.385
-1.364
.385
-.981
.386
-.881
.385
-1.987
.385
-1.534
.385
-1.107
.385
-1.623
.385
-.566
.385
-.132
.385
-2.239
.385
-.603
.385
-.063
.385
-.748
.385
.27
.385
2.044
.385
-1.673
.385
-2.453
.385
-2.257
.385
-3.497
.385
-2.515
.385
-.598
.385
-3.112
.385
-3.755
.385
-1.459
.385
-1.22
.385
-1.66
.385
-1.239
.385
-.748
.385
-1.975
.385
.692
.385
1.534
.385
.239
.385
1.591
.386
1.114
.385
.974
.385
1.359
.385
-.818
.385
-.792
.385
1.144
.385
-.195
.385
-.434
.385
.629
.385
.019
.385
-.339
.385
4.842
.385
3.899
.385
3.572
.385
3.685
.385
3.163
.385
1.22
.385
3.597
.385
3.629
.385
1.823
.385
1.327
.385
2.264
.385
.899
.385
1.95
.385
2.176
.385
1.22
.385
-.529
.385
.761
.385
-.289
.385
.283
.385
.522
.386
.874
.385
1.063
.385
2.151
.385
1.911
.385
1.051
.385
1.314
.385
.151
.385
.277
.385
-.095
.385
-.44
.385
-.566
.385
-.057
.385
-.232
.385
-.057
.385
-.289
.385
-1.679
.385
-1.327
.385
-2.616
.385
-.05
.385
-.598
.385
.39
.385
.484
.385
-.207
.385
-.635
.385
.075
.385
-.503
.385
-2.905
.385
-.629
.385
.465
.385
-1.641
.386
-.233
.385
.05
.385
-.742
.385
-.283
.385
-.163
.385
-.302
.385
-1.006
.385
-1.176
.385
-2.264
.385
.283
.385
.251
.385
.139
.385
-.346
.385
1.302
.385
1.886
.385
1.239
.385
3.138
.385
.201
.385
.592
.385
1.025
h.385
l.385
1.358
.385
.88
.385
.315
.385
1.264
.385
3.779
.385
-.176
.385
-.434
.385
1.371
.385
-.629
.385
.29
.386
1.113
.385
.069
.385
.371
.385
1.333
.385
1.384
.385
1.786
.385
2.723
.385
-.919
.385
-.195
.385
1.277
.385
.962
h.385
l.385
-.232
.385
.333
.385
-1.113
.385
.49
.385
-.742
.385
-1.924
.385
-.893
.385
-2.453
.385
-1.062
.385
.339
.385
.12
.385
-.233
.385
.736
.385
.603
.385
.598
.385
.566
.385
-1.164
.385
-1.119
.385
.547
.386
-.912
.385
.252
.385
.358
.385
-1.018
.385
-.195
.385
1.15
.385
.095
.385
-1.195
.385
-.943
.385
-.793
.385
.315
.385
-.126
.385
.283
.385
-.421
.385
.742
.385
1.106
.385
.887
.385
1.748
.385
.032
.385
-.786
.385
.503
.385
.1
.385
.158
.385
.295
.385
-.239
.385
.855
.385
1.315
.385
.754
.385
.428
.385
1.528
.385
-.119
.386
-.29
.385
1.208
.385
.471
.385
-.138
.385
-.742
.385
.352
.385
-.371
.385
.937
.385
-.094
.385
.534
.385
.459
.385
.271
.385
.736
.385
.981
.385
-.176
.385
.345
.385
1.202
.385
.327
.385
-1.013
.385
.271
.385
-.359
.385
-.05
.385
-.503
.385
-.334
.385
-.106
.385
.471
.385
-.71
.385
-.749
.385
-.365
.385
-.999
.386
-.032
.385
-.924
h.385
l.385
1.031
.385
.522
.385
.893
.385
-.025
.385
.075
.385
-.245
.385
-.566
.385
-.277
.385
-2.402
.385
-1.302
.385
-.276
.385
-.918
.385
-.478
.385
.496
.385
-.547
.385
-1.528
.385
.472
.385
-1.308
.385
.421
.385
.509
.385
-.93
.385
-.29
.385
.158
.385
.264
.385
-.516
.385
1.145
.385
-.591
.385
.427
.386
-.082
.385
.063
.385
-.302
.385
.026
.385
-.371
.385
-.654
.385
-.126
.385
-.403
.385
.145
.385
1.66
.385
.459
.385
.088
.385
.283
.385
-.371
.385
.088
.385
1.648
.385
.868
.385
-.076
.385
1.032
.385
-.246
.385
-1.012
.385
-1.044
.385
-2.239
.385
-1.195
.385
-.471
.385
.314
.385
-.044
.385
-.012
.385
-.592
.385
.283
.385
.095
.386
-1.227
.385
-1.05
.385
.113
.385
-.138
.385
-.277
.385
.755
.385
-.201
.385
-.648
.385
-.685
.385
.094
.385
.22
.385
.855
.385
.038
.385
-.34
.385
1.164
.385
-.793
.385
.315
.385
.094
.385
-.113
.385
1
.385
1.025
.385
.22
.385
-.214
.385
-.05
.385
-1.365
h.385
l.385
.453
.385
-1.063
.385
-.471
.385
.735
.385
-.182
.386
-.075
.385
.584
.385
-.44
.385
.088
.385
-.912
.385
.692
.385
.132
.385
-.377
.385
.327
.385
-.05
.385
-.202
.385
-1.798
.385
-2.34
.385
.365
.385
-1.509
.385
-.038
.385
.113
.385
-1.188
.385
.157
.385
.333
.385
-.346
.385
.239
.385
.919
.385
-.177
.385
-.295
.385
.748
.385
-.289
.385
.314
.385
.705
.385
-1.189
.386
-.522
.385
.862
.385
.27
.385
1.138
.385
.088
.385
1.063
.385
1.12
.385
.358
.385
-.295
.385
.773
.385
2.05
.385
1.535
.385
.578
.385
1.371
.385
-.163
.385
.968
.385
1.365
.385
1.207
.385
-.069
.385
1.006
.385
-.321
.385
.95
.385
.704
.385
-.465
.385
.346
.385
.408
.385
.724
.385
.673
.385
.811
.385
.824
.385
.195
.386
.729
.385
.352
.385
.837
.385
.314
.385
.195
.385
-.56
.385
-.063
.385
-.66
.385
.428
.385
.478
.385
.603
.385
.673
.385
1.484
.385
-.32
.385
.553
.385
-.101
.385
1.497
.385
.069
.385
.843
.385
-.585
.385
.409
.385
1.522
.385
.591
.385
.163
.385
-.49
.385
.094
.385
.811
.385
.258
.385
.378
.385
-.139
.385
.679
.386
.158
.385
.377
.385
-.182
.385
1.27
.385
1.044
.385
1.207
.385
.12
.385
.603
.385
.478
.385
.202
.385
.094
.385
1.107
.385
.553
.385
.39
.385
.157
.385
.403
.385
.704
.385
.692
.385
-.101
.385
.044
.385
.208
.385
.125
.385
.73
.385
.516
.385
.32
.385
.176
.385
.038
.385
.315
.385
.132
.385
.05
.386
.27
.385
.453
.385
-.352
.385
-.019
.385
-.182
.385
-.271
.385
-.566
.385
-.32
.385
-.258
.385
-.378
.385
-.05
.385
-.176
.385
-.088
.385
-.113
.385
-.554
.385
-.805
.385
-.037
.385
-.365
.385
.189
.385
.006
.385
.717
.385
-.302
.385
-.824
.385
.113
.385
-.44
.385
-.22
.385
-.233
.385
-.239
.385
-.025
.385
-.201
.385
-.151
.386
-.201
.385
-.189
.385
-.409
.385
.007
.385
.61
.385
-.258
.385
.088
.385
.258
.385
.138
.385
.195
.385
.403
.385
-.07
.385
.365
.385
.629
.385
.094
.385
.579
.385
.107
.385
.056
.385
-.012
.385
.44
.385
.572
.385
-.037
.385
.578
.385
-.182
.385
-.202
.385
-.012
.385
-.302
.385
-.34
.385
-.194
.385
.377
.385
.088
.386
.113
.385
.113
.385
-.17
.385
.214
.385
-.503
.385
.113
.385
-.125
.385
-.132
.385
-.548
.385
.07
.385
-.365
.385
-.403
.385
.063
.385
-.981
.385
-.541
.385
-.069
.385
-.509
h.385
l.385
-.006
.385
.239
.385
-.038
.385
.641
.385
.365
.385
-.057
.385
.151
.385
.107
.385
.057
.385
-.78
.385
.126
.385
.163
.385
.315
.386
-.245
.385
.031
.385
-.006
.385
-.051
.385
-.251
.385
-.252
.385
.239
.385
.145
.385
.283
.385
.094
.385
.315
.385
.83
.385
.314
.385
-.339
.385
.32
.385
-.195
.385
.239
.385
-.717
.385
-.515
.385
-.264
.385
-.12
.385
-.478
.385
-.063
.385
.271
.385
.421
.385
.761
.385
.157
.385
-.251
.385
-.214
.385
.402
.386
.346
.385
.308
.385
.132
.385
-.113
.385
.277
.385
.327
.385
.119
.385
.636
.385
.371
.385
-.038
.385
.182
.385
.076
.385
.484
.385
.283
.385
.239
.385
.138
.385
.415
.385
.164
.385
.396
.385
-.164
.385
-.031
.385
-.937
.385
-.673
.385
-.075
.385
.037
.385
-.157
.385
.447
.385
.157
.385
-.239
.385
-.478
.385
-.189
.386
-.308
.385
.277
.385
.402
.385
-.012
.385
-.698
.385
-.315
.385
-.138
.385
-.277
.385
-.157
.385
-.245
.385
-.29
.385
-.679
.385
.145
.385
.101
.385
.125
.385
.434
.385
.082
.385
-.371
.385
.654
.385
.711
.385
.301
.385
.277
.385
.271
.385
.345
.385
.195
.385
.076
.385
.239
.385
.591
.385
.302
.385
.144
.385
.007
.386
-.069
.385
.289
.385
.748
.385
.308
.385
.246
.385
.352
.385
.025
.385
.138
.385
-.698
.385
-.346
.385
-.635
.385
-.126
.385
.221
.385
-.145
.385
-.434
.385
.553
.385
-.125
.385
-.353
.385
-.062
.385
-.447
.385
-.748
.385
-.321
.385
-.138
.385
-.189
.385
-.013
.385
-.496
.385
-.139
.385
-.025
.385
.132
.385
-.534
.385
-.547
.386
-.774
.385
-.22
.385
.006
.385
-.038
.385
.101
.385
.176
.385
.969
.385
1.119
.385
.491
.385
.144
.385
-.314
.385
.1
.385
-.107
.385
.202
.385
.201
.385
.761
.385
.61
.385
-.019
.385
.365
.385
-.145
.385
-.063
.385
.239
h.385
l.385
.289
.385
.202
.385
.188
.385
-.125
.385
.144
.385
.063
.385
.774
.386
-.088
.385
-.214
.385
-.157
.385
.075
.385
.075
.385
.164
.385
.057
.385
-.095
.385
.032
.385
.044
.385
.012
.385
.56
.385
-.069
.385
.031
.385
-.05
.385
-.151
.385
.057
.385
.339
.385
.327
.385
.264
.385
-.012
.385
.006
.385
-.358
.385
.377
.385
-.233
.385
-.056
.385
.383
.385
.17
.385
-.277
.385
-.069
.385
-.283
.386
-.302
.385
-.226
.385
-.371
.385
-.082
.385
-.189
.385
.12
.385
-.145
.385
.227
.385
.327
.385
-.044
.385
-.032
.385
-.019
.385
.189
.385
.17
.385
.056
.385
-.062
.385
-.283
.385
-.12
.385
-.044
.385
.038
.385
.364
.385
-.062
.385
.169
.385
-.257
.385
-.057
.385
.05
.385
-.006
.385
.365
.385
.364
.385
.252
.385
.075
.386
.566
.385
-.402
.385
-.069
.385
.012
.385
-.031
.385
-.478
.385
-.195
.385
-.239
.385
.019
.385
.031
.385
-.427
.385
.17
.385
.352
.385
-.302
.385
-.239
.385
-.208
.385
.12
.385
.126
.385
.239
.385
-.076
h.385
l.385
.327
.385
-.434
.385
-.1
.385
.025
.385
-.139
.385
-.503
.385
-.283
.385
.176
.385
-.308
.385
.378
.386
.069
.385
.082
.385
-.089
.385
.321
.385
-.113
.385
-.138
.385
-1.063
.385
-.403
.385
.082
.385
-.805
.385
-.685
.385
.119
.385
-.22
.385
.296
.385
-.453
.385
-.164
.385
-.478
h.385
l.385
-.421
.385
-.063
.385
.233
.385
-.101
.385
-.094
.385
-.409
.385
.007
.385
.377
.385
-.032
.385
-.39
.385
-.276
.385
-.227
.386
-.478
.385
-.113
.385
-.195
.385
.025
.385
-.238
.385
.974
.385
.208
.385
-.201
.385
.327
.385
-.195
.385
-.233
.385
.786
.385
-.239
.385
.245
.385
.076
.385
-.491
.385
-.201
.385
.214
.385
-.05
.385
-.34
.385
.251
.385
.271
.385
.396
.385
.572
.385
-.383
.385
-.176
.385
.383
.385
.334
.385
.333
.385
.415
.385
-.315
.386
-.056
.385
-.308
.385
.069
.385
-1.038
.385
-.899
.385
-.541
.385
-.333
.385
-.258
.385
-.799
.385
-.333
.385
-.975
.385
-.685
.385
-.547
.385
-.082
.385
-.39
.385
-.893
.385
-.251
.385
-.698
.385
-.403
.385
-.484
.385
-.44
.385
-.139
.385
-.239
.385
-.836
.385
-.145
.385
-.484
.385
-1.723
.385
-.402
.385
-.189
.385
-.428
.385
-.314
.386
.151
.385
.113
.385
.352
.385
.604
.385
.295
.385
.617
.385
.905
.385
-.119
.385
1.157
.385
.773
.385
.158
.385
.685
.385
.057
.385
.509
.385
.34
.385
.786
.385
.352
.385
.333
.385
.17
.385
-.239
.385
.579
.385
1.031
.385
-.076
.385
.07
.385
1.238
.385
-.188
.385
-.025
.385
.471
.385
.44
.385
.189
.386
.403
.385
.547
.385
.364
.385
.076
.385
.113
.385
.264
.385
.164
.385
-.434
.385
-.157
.385
-.12
.385
.182
.385
-.163
.385
.635
.385
-.201
.385
.314
.385
.051
.385
.063
.385
-.045
.385
.221
.385
-.057
.385
-.082
.385
.447
.385
.484
.385
.591
.385
.711
.385
.905
.385
.409
.385
.478
.385
.252
.385
.792
.385
.352
.386
.22
.385
.459
.385
.409
.385
.176
.385
-.308
.385
.17
.385
-.069
.385
.251
.385
-.094
.385
.704
.385
-.371
.385
.006
.385
.088
.385
.007
.385
-.101
.385
.308
.385
.076
.385
.195
.385
-.044
.385
-.019
.385
-.126
.385
-.094
.385
-.026
h.385
l.385
-.257
.385
-.246
.385
-.119
.385
-.145
.385
-.126
.385
-.144
.385
-.063
.386
-.252
.385
-.333
.385
-.094
.385
-.019
.385
-.226
.385
-.743
.385
-.27
.385
.057
.385
.163
.385
-.648
.385
-.012
.385
.207
.385
-.364
.385
.037
.385
-.358
.385
-.484
.385
.056
.385
.038
.385
-.409
.385
-.214
.385
-.025
.385
-.773
.385
.176
.385
-.138
.385
.106
.385
.126
.385
-.012
.385
-.346
.385
-.038
.385
.239
.385
-.075
.386
.842
.385
.371
.385
.585
.385
1.119
.385
.39
.385
-.346
.385
.302
.385
.736
.385
-.145
.385
-.163
.385
.063
.385
.082
.385
.496
.385
.114
.385
-.032
.385
.113
.385
.491
.385
.17
.385
-.353
.385
.466
.385
.063
.385
.283
.385
-.132
.385
-.038
.385
-.057
.385
.321
.385
-.075
.385
-.736
.385
.352
.385
-.12
.386
-.138
.385
-.597
.385
-.113
.385
.176
.385
.295
.385
-.069
.385
.283
.385
-.006
.385
.201
.385
.302
.385
-.019
.385
-.069
.385
.371
.385
.214
.385
-.177
.385
.045
.385
.132
.385
.176
.385
.069
.385
.006
.385
-.824
h.385
l.385
-.245
.385
.132
.385
.107
.385
.094
.385
.642
.385
.038
.385
.069
.385
.138
.385
.44
.386
-.056
.385
-.202
.385
-.257
.385
.056
.385
-.05
.385
.27
.385
-.195
.385
.132
.385
-.012
.385
.044
.385
-.497
.385
-.044
.385
.025
.385
-.05
.385
-.094
.385
-.233" aria-label="line"/>
</svg>
