<?xml version="1.0"?>
<svg xmlns="http://www.w3.org/2000/svg" xmlns:xlink="http://www.w3.org/1999/xlink" class="plot-d6a7b5" fill="currentColor" font-family="system-ui, sans-serif" font-size="10" text-anchor="middle" width="830" height="470" viewBox="0 0 830 470" color="#1e90ff">
  <style>:where(.plot-d6a7b5){--plot-background: white;display:block;height:intrinsic;max-width:100%}:where(.plot-d6a7b5 text),:where(.plot-d6a7b5 tspan){white-space:pre}</style>
  <g aria-label="y-grid" stroke="currentColor" stroke-opacity=".1">
    <line x1="60" x2="770" y1="410" y2="410"/>
    <line x1="60" x2="770" y1="384.62" y2="384.62"/>
    <line x1="60" x2="770" y1="359.239" y2="359.239"/>
    <line x1="60" x2="770" y1="333.859" y2="333.859"/>
    <line x1="60" x2="770" y1="308.479" y2="308.479"/>
    <line x1="60" x2="770" y1="283.098" y2="283.098"/>
    <line x1="60" x2="770" y1="257.718" y2="257.718"/>
    <line x1="60" x2="770" y1="232.338" y2="232.338"/>
    <line x1="60" x2="770" y1="206.957" y2="206.957"/>
    <line x1="60" x2="770" y1="181.577" y2="181.577"/>
    <line x1="60" x2="770" y1="156.197" y2="156.197"/>
    <line x1="60" x2="770" y1="130.816" y2="130.816"/>
    <line x1="60" x2="770" y1="105.436" y2="105.436"/>
    <line x1="60" x2="770" y1="80.056" y2="80.056"/>
  </g>
  <g aria-label="y-axis tick" fill="none" stroke="currentColor">
    <path transform="translate(60,410)" d="M0,0L-6,0"/>
    <path transform="translate(60,384.6196574378907)" d="M0,0L-6,0"/>
    <path transform="translate(60,359.2393148757814)" d="M0,0L-6,0"/>
    <path transform="translate(60,333.858972313672)" d="M0,0L-6,0"/>
    <path transform="translate(60,308.47862975156266)" d="M0,0L-6,0"/>
    <path transform="translate(60,283.0982871894534)" d="M0,0L-6,0"/>
    <path transform="translate(60,257.717944627344)" d="M0,0L-6,0"/>
    <path transform="translate(60,232.3376020652347)" d="M0,0L-6,0"/>
    <path transform="translate(60,206.9572595031254)" d="M0,0L-6,0"/>
    <path transform="translate(60,181.57691694101607)" d="M0,0L-6,0"/>
    <path transform="translate(60,156.19657437890677)" d="M0,0L-6,0"/>
    <path transform="translate(60,130.81623181679743)" d="M0,0L-6,0"/>
    <path transform="translate(60,105.4358892546881)" d="M0,0L-6,0"/>
    <path transform="translate(60,80.05554669257879)" d="M0,0L-6,0"/>
  </g>
  <g aria-label="y-axis tick label" text-anchor="end" font-variant="tabular-nums">
    <text y=".32em" transform="translate(-9,0) translate(60,410)">0</text>
    <text y=".32em" transform="translate(-9,0) translate(60,384.6196574378907)">50,000</text>
    <text y=".32em" transform="translate(-9,0) translate(60,359.2393148757814)">100,000</text>
    <text y=".32em" transform="translate(-9,0) translate(60,333.858972313672)">150,000</text>
    <text y=".32em" transform="translate(-9,0) translate(60,308.47862975156266)">200,000</text>
    <text y=".32em" transform="translate(-9,0) translate(60,283.0982871894534)">250,000</text>
    <text y=".32em" transform="translate(-9,0) translate(60,257.717944627344)">300,000</text>
    <text y=".32em" transform="translate(-9,0) translate(60,232.3376020652347)">350,000</text>
    <text y=".32em" transform="translate(-9,0) translate(60,206.9572595031254)">400,000</text>
    <text y=".32em" transform="translate(-9,0) translate(60,181.57691694101607)">450,000</text>
    <text y=".32em" transform="translate(-9,0) translate(60,156.19657437890677)">500,000</text>
    <text y=".32em" transform="translate(-9,0) translate(60,130.81623181679743)">550,000</text>
    <text y=".32em" transform="translate(-9,0) translate(60,105.4358892546881)">600,000</text>
    <text y=".32em" transform="translate(-9,0) translate(60,80.05554669257879)">650,000</text>
  </g>
  <g aria-label="y-axis label" text-anchor="start">
    <text y=".71em" transform="translate(-57,-57) translate(60,60)">&#x2191; Total Vestiges</text>
  </g>
  <g aria-label="x-axis tick" fill="none" stroke="currentColor">
    <path transform="translate(86.76274944567628,410)" d="M0,0L0,6"/>
    <path transform="translate(158.39246119733923,410)" d="M0,0L0,6"/>
    <path transform="translate(230.80931263858093,410)" d="M0,0L0,6"/>
    <path transform="translate(303.22616407982264,410)" d="M0,0L0,6"/>
    <path transform="translate(374.8558758314856,410)" d="M0,0L0,6"/>
    <path transform="translate(446.4855875831485,410)" d="M0,0L0,6"/>
    <path transform="translate(518.9024390243902,410)" d="M0,0L0,6"/>
    <path transform="translate(591.3192904656319,410)" d="M0,0L0,6"/>
    <path transform="translate(662.1618625277163,410)" d="M0,0L0,6"/>
    <path transform="translate(733.7915742793791,410)" d="M0,0L0,6"/>
  </g>
  <g aria-label="x-axis tick label" font-variant="tabular-nums">
    <text transform="translate(0,9) translate(86.76274944567628,410)">
      <tspan x="0" y=".71em">Apr</tspan>
      <tspan x="0" dy="1em">2023</tspan>
    </text>
    <text y=".71em" transform="translate(0,9) translate(158.39246119733923,410)">Jul</text>
    <text y=".71em" transform="translate(0,9) translate(230.80931263858093,410)">Oct</text>
    <text transform="translate(0,9) translate(303.22616407982264,410)">
      <tspan x="0" y=".71em">Jan</tspan>
      <tspan x="0" dy="1em">2024</tspan>
    </text>
    <text y=".71em" transform="translate(0,9) translate(374.8558758314856,410)">Apr</text>
    <text y=".71em" transform="translate(0,9) translate(446.4855875831485,410)">Jul</text>
    <text y=".71em" transform="translate(0,9) translate(518.9024390243902,410)">Oct</text>
    <text transform="translate(0,9) translate(591.3192904656319,410)">
      <tspan x="0" y=".71em">Jan</tspan>
      <tspan x="0" dy="1em">2025</tspan>
    </text>
    <text y=".71em" transform="translate(0,9) translate(662.1618625277163,410)">Apr</text>
    <text y=".71em" transform="translate(0,9) translate(733.7915742793791,410)">Jul</text>
  </g>
  <g aria-label="line" fill="none" stroke="currentColor" stroke-width="1.5" stroke-linejoin="round" stroke-linecap="round">
    <path d="M60,410L60.525,409.745L61.05,408.813L61.574,408.311L62.099,407.954L62.624,407.367L63.149,406.904L63.673,406.47L64.198,405.591L64.723,404.897L65.248,404.072L65.772,402.794L66.297,401.589L66.822,400.964L67.347,400.059L67.871,399.444L68.396,398.74L68.921,397.818L69.446,397.198L69.97,396.59L70.495,395.765L71.02,394.849L71.545,394.201L72.069,393.095L72.594,392.571L73.119,392.082L73.644,391.201L74.169,390.357L74.693,389.707L75.218,388.801L75.743,387.898L76.268,387.076L76.792,385.801L77.317,384.79L77.842,384.204L78.367,383.594L78.891,383.135L79.416,382.764L79.941,382.076L80.466,381.402L80.99,380.933L81.515,379.847L82.04,378.712L82.565,377.695L83.089,376.462L83.614,375.627L84.139,374.915L84.664,373.946L85.188,373.135L85.713,372.547L86.238,371.489L86.763,370.467L87.288,369.512L87.812,368.144L88.337,366.845L88.862,366.17L89.387,365.167L89.911,364.263L90.436,363.452L90.961,362.304L91.486,361.226L92.01,360.29L92.535,359.164L93.06,358.085L93.585,357.155L94.109,355.905L94.634,355.136L95.159,354.442L95.684,353.474L96.208,352.682L96.733,352.089L97.258,351.326L97.783,350.502L98.307,349.734L98.832,348.726L99.357,347.728L99.882,347.159L100.407,346.369L100.931,345.752L101.456,345.347L101.981,344.719L102.506,344.094L103.03,343.43L103.555,342.572L104.08,341.698L104.605,341.017L105.129,340.073L105.654,339.41L106.179,338.977L106.704,337.982L107.228,337.295L107.753,336.923L108.278,336.3L108.803,335.7L109.327,335.074L109.852,334.215L110.377,333.468L110.902,332.824L111.426,332.265L111.951,331.769L112.476,331.294L113.001,330.514L113.525,330.07L114.05,329.618L114.575,328.886L115.1,328.056L115.625,327.404L116.149,326.567L116.674,326.002L117.199,325.478L117.724,324.718L118.248,324.198L118.773,323.703L119.298,323.042L119.823,322.526L120.347,321.901L120.872,321.24L121.397,320.639L121.922,320.142L122.446,319.621L122.971,319.165L123.496,318.736L124.021,318.132L124.545,317.672L125.07,317.258L125.595,316.573L126.12,315.684L126.644,315.035L127.169,314.191L127.694,313.686L128.219,313.107L128.744,312.509L129.268,311.963L129.793,311.579L130.318,310.818L130.843,310.221L131.367,309.593L131.892,308.681L132.417,308.01L132.942,307.423L133.466,306.824L133.991,306.17L134.516,305.663L135.041,305.167L135.565,304.511L136.09,304.124L136.615,303.611L137.14,303.147L137.664,302.712L138.189,302.098L138.714,301.655L139.239,301.193L139.763,300.574L140.288,300.132L140.813,299.723L141.338,299.281L141.863,298.76L142.387,298.271L142.912,297.761L143.437,297.207L143.962,296.772L144.486,296.24L145.011,295.793L145.536,295.348L146.061,294.732L146.585,294.218L147.11,293.813L147.635,293.281L148.16,292.776L148.684,292.41L149.209,291.782L149.734,291.303L150.259,290.809L150.783,290.261L151.308,289.794L151.833,289.516L152.358,289.007L152.882,288.592L153.407,288.097L153.932,287.509L154.457,287.044L154.982,286.531L155.506,285.967L156.031,285.454L156.556,285.003L157.081,284.268L157.605,283.67L158.13,283.326L158.655,282.776L159.18,282.287L159.704,281.992L160.229,281.47L160.754,281.133L161.279,280.733L161.803,280.246L162.328,279.792L162.853,279.433L163.378,278.866L163.902,278.45L164.427,278.074L164.952,277.546L165.477,277.071L166.001,276.698L166.526,276.125L167.051,275.761L167.576,275.347L168.101,274.821L168.625,274.394L169.15,273.91L169.675,273.355L170.2,272.869L170.724,272.456L171.249,271.982L171.774,271.424L172.299,270.988L172.823,270.579L173.348,270.147L173.873,269.817L174.398,269.253L174.922,268.9L175.447,268.5L175.972,267.999L176.497,267.599L177.021,267.114L177.546,266.468L178.071,265.981L178.596,265.694L179.12,265.035L179.645,264.549L180.17,264.118L180.695,263.515L181.22,263.108L181.744,262.671L182.269,262.167L182.794,261.656L183.319,261.215L183.843,260.562L184.368,260.06L184.893,259.617L185.418,259.08L185.942,258.49L186.467,257.885L186.992,256.997L187.517,256.454L188.041,256.045L188.566,255.491L189.091,255.046L189.616,254.723L190.14,254.22L190.665,253.776L191.19,253.466L191.715,252.959L192.239,252.498L192.764,252.163L193.289,251.628L193.814,251.127L194.339,250.746L194.863,250.245L195.388,249.619L195.913,249.091L196.438,248.432L196.962,247.965L197.487,247.515L198.012,246.848L198.537,246.347L199.061,245.883L199.586,245.325L200.111,244.863L200.636,244.554L201.16,244.107L201.685,243.77L202.21,243.399L202.735,242.951L203.259,242.5L203.784,242.083L204.309,241.666L204.834,241.236L205.358,240.872L205.883,240.467L206.408,240.067L206.933,239.728L207.458,239.338L207.982,238.935L208.507,238.5L209.032,237.98L209.557,237.608L210.081,237.207L210.606,236.786L211.131,236.477L211.656,236.146L212.18,235.801L212.705,235.59L213.23,235.331L213.755,234.74L214.279,234.331L214.804,233.947L215.329,233.427L215.854,233.209L216.378,232.918L216.903,232.643L217.428,232.424L217.953,232.092L218.477,231.754L219.002,231.367L219.527,230.959L220.052,230.31L220.576,229.758L221.101,229.463L221.626,229.064L222.151,228.789L222.676,228.458L223.2,228.077L223.725,227.735L224.25,227.463L224.775,227.045L225.299,226.587L225.824,226.248L226.349,225.786L226.874,225.552L227.398,225.321L227.923,225.012L228.448,224.721L228.973,224.462L229.497,224.04L230.022,223.688L230.547,223.329L231.072,222.843L231.596,222.479L232.121,222.286L232.646,221.928L233.171,221.665L233.695,221.428L234.22,221.13L234.745,220.837L235.27,220.5L235.795,220.057L236.319,219.582L236.844,219.107L237.369,218.612L237.894,218.255L238.418,217.983L238.943,217.645L239.468,217.363L239.993,217.058L240.517,216.648L241.042,216.373L241.567,216.115L242.092,215.541L242.616,215.051L243.141,214.749L243.666,214.437L244.191,214.213L244.715,214.037L245.24,213.664L245.765,213.417L246.29,213.17L246.814,212.692L247.339,212.176L247.864,211.79L248.389,211.265L248.914,210.988L249.438,210.733L249.963,210.295L250.488,210.012L251.013,209.742L251.537,209.358L252.062,208.949L252.587,208.687L253.112,208.253L253.636,207.975L254.161,207.795L254.686,207.409L255.211,207.15L255.735,206.993L256.26,206.755L256.785,206.513L257.31,206.106L257.834,205.627L258.359,205.145L258.884,204.824L259.409,204.508L259.933,204.323L260.458,204.046L260.983,203.72L261.508,203.54L262.033,203.352L262.557,203.03L263.082,202.834L263.607,202.563L264.132,202.266L264.656,202L265.181,201.827L265.706,201.589L266.231,201.458L266.755,201.28L267.28,201.038L267.805,200.874L268.33,200.764L268.854,200.383L269.379,200.009L269.904,199.642L270.429,199.277L270.953,198.998L271.478,198.825L272.003,198.543L272.528,198.369L273.052,198.123L273.577,197.766L274.102,197.474L274.627,197.218L275.152,196.836L275.676,196.565L276.201,196.302L276.726,195.992L277.251,195.738L277.775,195.449L278.3,195.024L278.825,194.771L279.35,194.534L279.874,194.285L280.399,193.998L280.924,193.715L281.449,193.404L281.973,193.223L282.498,193.111L283.023,192.844L283.548,192.621L284.072,192.448L284.597,192.24L285.122,192.043L285.647,191.888L286.171,191.644L286.696,191.42L287.221,191.294L287.746,191.005L288.271,190.732L288.795,190.614L289.32,190.443L289.845,190.308L290.37,190.16L290.894,189.876L291.419,189.592L291.944,189.385L292.469,189.191L292.993,188.992L293.518,188.741L294.043,188.544L294.568,188.402L295.092,188.234L295.617,187.956L296.142,187.781L296.667,187.57L297.191,187.216L297.716,186.93L298.241,186.783L298.766,186.554L299.29,186.256L299.815,186.02L300.34,185.715L300.865,185.484L301.39,185.224L301.914,184.919L302.439,184.683L302.964,184.463L303.489,184.182L304.013,183.943L304.538,183.724L305.063,183.381L305.588,183.176L306.112,183.018L306.637,182.686L307.162,182.569L307.687,182.368L308.211,182.044L308.736,181.876L309.261,181.681L309.786,181.438L310.31,181.291L310.835,181.14L311.36,180.988L311.885,180.876L312.409,180.669L312.934,180.386L313.459,180.124L313.984,179.805L314.508,179.425L315.033,179.251L315.558,179.045L316.083,178.845L316.608,178.57L317.132,178.263L317.657,178.033L318.182,177.867L318.707,177.597L319.231,177.272L319.756,176.819L320.281,176.537L320.806,176.191L321.33,175.992L321.855,175.808L322.38,175.562L322.905,175.457L323.429,175.301L323.954,174.909L324.479,174.478L325.004,174.162L325.528,173.723L326.053,173.479L326.578,173.271L327.103,173.021L327.627,172.775L328.152,172.566L328.677,172.237L329.202,172.041L329.727,171.714L330.251,171.226L330.776,170.884L331.301,170.636L331.826,170.269L332.35,170.025L332.875,169.847L333.4,169.469L333.925,169.166L334.449,168.827L334.974,168.494L335.499,168.105L336.024,167.587L336.548,167.023L337.073,166.716L337.598,166.396L338.123,165.93L338.647,165.613L339.172,165.376L339.697,165.07L340.222,164.811L340.746,164.551L341.271,164.133L341.796,163.768L342.321,163.617L342.846,163.291L343.37,163.012L343.895,162.689L344.42,162.372L344.945,162.182L345.469,161.903L345.994,161.486L346.519,161.102L347.044,160.845L347.568,160.451L348.093,160.253L348.618,160.001L349.143,159.715L349.667,159.53L350.192,159.309L350.717,159.017L351.242,158.784L351.766,158.55L352.291,158.115L352.816,157.873L353.341,157.666L353.865,157.48L354.39,157.306L354.915,157.076L355.44,156.861L355.965,156.729L356.489,156.565L357.014,156.214L357.539,155.995L358.064,155.828L358.588,155.501L359.113,155.272L359.638,155.176L360.163,154.98L360.687,154.718L361.212,154.522L361.737,154.255L362.262,153.965L362.786,153.687L363.311,153.259L363.836,152.962L364.361,152.771L364.885,152.737L365.41,152.733L365.935,152.731L366.46,152.728L366.984,152.725L367.509,152.72L368.034,152.715L368.559,152.692L369.084,152.675L369.608,152.664L370.133,152.637L370.658,152.592L371.183,152.56L371.707,152.519L372.232,152.44L372.757,152.334L373.282,152.067L373.806,151.886L374.331,151.717L374.856,151.565L375.381,151.42L375.905,151.253L376.43,151.042L376.955,150.852L377.48,150.627L378.004,150.394L378.529,150.187L379.054,149.936L379.579,149.744L380.103,149.598L380.628,149.387L381.153,149.16L381.678,149.061L382.203,148.913L382.727,148.695L383.252,148.571L383.777,148.442L384.302,148.25L384.826,148.098L385.351,147.875L385.876,147.688L386.401,147.576L386.925,147.406L387.45,147.259L387.975,147.119L388.5,147.023L389.024,146.902L389.549,146.831L390.074,146.702L390.599,146.566L391.123,146.394L391.648,146.15L392.173,145.996L392.698,145.896L393.222,145.681L393.747,145.519L394.272,145.371L394.797,145.217L395.322,145.002L395.846,144.854L396.371,144.647L396.896,144.506L397.421,144.397L397.945,144.231L398.47,144.046L398.995,143.854L399.52,143.728L400.044,143.556L400.569,143.409L401.094,143.225L401.619,142.963L402.143,142.767L402.668,142.514L403.193,142.374L403.718,142.251L404.242,142.079L404.767,141.907L405.292,141.763L405.817,141.57L406.341,141.351L406.866,141.214L407.391,140.967L407.916,140.75L408.441,140.573L408.965,140.317L409.49,140.17L410.015,140.056L410.54,139.966L411.064,139.841L411.589,139.684L412.114,139.512L412.639,139.151L413.163,138.971L413.688,138.698L414.213,138.569L414.738,138.444L415.262,138.29L415.787,138.061L416.312,137.983L416.837,137.816L417.361,137.631L417.886,137.464L418.411,137.21L418.936,136.895L419.46,136.731L419.985,136.456L420.51,136.328L421.035,136.158L421.559,135.85L422.084,135.624L422.609,135.47L423.134,135.222L423.659,134.955L424.183,134.812L424.708,134.483L425.233,134.334L425.758,134.186L426.282,133.971L426.807,133.748L427.332,133.597L427.857,133.346L428.381,133.15L428.906,132.946L429.431,132.645L429.956,132.345L430.48,132.129L431.005,131.922L431.53,131.647L432.055,131.482L432.579,131.312L433.104,131.159L433.629,130.941L434.154,130.753L434.678,130.552L435.203,130.367L435.728,130.17L436.253,129.949L436.778,129.882L437.302,129.779L437.827,129.622L438.352,129.499L438.877,129.204L439.401,129.032L439.926,128.911L440.451,128.751L440.976,128.408L441.5,128.29L442.025,128.117L442.55,127.883L443.075,127.707L443.599,127.592L444.124,127.439L444.649,127.344L445.174,127.215L445.698,127.067L446.223,126.913L446.748,126.634L447.273,126.439L447.797,126.306L448.322,126.062L448.847,125.886L449.372,125.708L449.897,125.575L450.421,125.441L450.946,125.341L451.471,125.17L451.996,124.979L452.52,124.896L453.045,124.782L453.57,124.658L454.095,124.543L454.619,124.406L455.144,124.243L455.669,124.064L456.194,123.87L456.718,123.763L457.243,123.65L457.768,123.467L458.293,123.305L458.817,123.203L459.342,123.02L459.867,122.851L460.392,122.717L460.916,122.557L461.441,122.39L461.966,122.211L462.491,121.966L463.016,121.63L463.54,121.421L464.065,121.198L464.59,121.045L465.115,120.897L465.639,120.692L466.164,120.549L466.689,120.437L467.214,120.3L467.738,120.158L468.263,120L468.788,119.832L469.313,119.594L469.837,119.422L470.362,119.149L470.887,118.891L471.412,118.626L471.936,118.359L472.461,118.121L472.986,117.849L473.511,117.556L474.035,117.408L474.56,117.215L475.085,116.865L475.61,116.683L476.135,116.518L476.659,116.291L477.184,116.133L477.709,116.053L478.234,115.582L478.758,115.175L479.283,114.769L479.808,114.334L480.333,113.983L480.857,113.73L481.382,113.336L481.907,112.921L482.432,112.666L482.956,112.425L483.481,112.134L484.006,111.865L484.531,111.567L485.055,111.236L485.58,111.019L486.105,110.884L486.63,110.639L487.154,110.5L487.679,110.353L488.204,110.159L488.729,109.975L489.254,109.762L489.778,109.504L490.303,109.247L490.828,109.049L491.353,108.849L491.877,108.672L492.402,108.517L492.927,108.409L493.452,108.329L493.976,108.236L494.501,108.119L495.026,107.982L495.551,107.886L496.075,107.731L496.6,107.627L497.125,107.505L497.65,107.398L498.174,107.264L498.699,107.155L499.224,106.959L499.749,106.818L500.273,106.663L500.798,106.544L501.323,106.367L501.848,106.183L502.373,106.021L502.897,105.896L503.422,105.745L503.947,105.632L504.472,105.504L504.996,105.42L505.521,105.317L506.046,105.204L506.571,105.11L507.095,104.946L507.62,104.812L508.145,104.697L508.67,104.581L509.194,104.443L509.719,104.321L510.244,104.165L510.769,104.064L511.293,103.887L511.818,103.647L512.343,103.418L512.868,103.099L513.392,102.961L513.917,102.804L514.442,102.64L514.967,102.538L515.492,102.366L516.016,102.196L516.541,102.025L517.066,101.8L517.591,101.403L518.115,101.228L518.64,101.114L519.165,100.869L519.69,100.722L520.214,100.643L520.739,100.48L521.264,100.344L521.789,100.236L522.313,100.048L522.838,99.833L523.363,99.623L523.888,99.324L524.412,99.209L524.937,99.108L525.462,98.962L525.987,98.834L526.511,98.761L527.036,98.674L527.561,98.545L528.086,98.48L528.61,98.358L529.135,98.249L529.66,98.167L530.185,98.065L530.71,98.003L531.234,97.904L531.759,97.758L532.284,97.635L532.809,97.544L533.333,97.354L533.858,97.205L534.383,97.071L534.908,96.873L535.432,96.817L535.957,96.744L536.482,96.613L537.007,96.536L537.531,96.455L538.056,96.352L538.581,96.286L539.106,96.207L539.63,96.018L540.155,95.9L540.68,95.858L541.205,95.808L541.729,95.735L542.254,95.629L542.779,95.527L543.304,95.372L543.829,95.289L544.353,95.12L544.878,94.883L545.403,94.709L545.928,94.449L546.452,94.264L546.977,94.146L547.502,94.033L548.027,93.922L548.551,93.792L549.076,93.692L549.601,93.606L550.126,93.454L550.65,93.304L551.175,93.14L551.7,93.054L552.225,92.903L552.749,92.842L553.274,92.768L553.799,92.62L554.324,92.525L554.848,92.429L555.373,92.319L555.898,92.181L556.423,92.054L556.948,91.917L557.472,91.837L557.997,91.724L558.522,91.592L559.047,91.476L559.571,91.367L560.096,91.219L560.621,91.116L561.146,90.998L561.67,90.815L562.195,90.633L562.72,90.561L563.245,90.458L563.769,90.341L564.294,90.265L564.819,90.159L565.344,90.076L565.868,90.032L566.393,89.93L566.918,89.878L567.443,89.85L567.967,89.78L568.492,89.682L569.017,89.632L569.542,89.575L570.067,89.468L570.591,89.298L571.116,89.188L571.641,89.031L572.166,88.97L572.69,88.882L573.215,88.813L573.74,88.717L574.265,88.623L574.789,88.573L575.314,88.505L575.839,88.388L576.364,88.297L576.888,88.211L577.413,88.056L577.938,87.902L578.463,87.821L578.987,87.675L579.512,87.595L580.037,87.448L580.562,87.339L581.086,87.286L581.611,87.221L582.136,87.112L582.661,87.024L583.186,86.924L583.71,86.746L584.235,86.693L584.76,86.562L585.285,86.454L585.809,86.368L586.334,86.3L586.859,86.215L587.384,86.152L587.908,86.07L588.433,85.981L588.958,85.84L589.483,85.723L590.007,85.48L590.532,85.306L591.057,85.167L591.582,85.002L592.106,84.878L592.631,84.763L593.156,84.565L593.681,84.361L594.205,84.252L594.73,84.066L595.255,83.954L595.78,83.885L596.305,83.758L596.829,83.67L597.354,83.573L597.879,83.507L598.404,83.365L598.928,83.279L599.453,83.178L599.978,83.082L600.503,82.968L601.027,82.886L601.552,82.794L602.077,82.711L602.602,82.618L603.126,82.483L603.651,82.384L604.176,82.211L604.701,82.106L605.225,81.996L605.75,81.86L606.275,81.728L606.8,81.585L607.324,81.431L607.849,81.323L608.374,81.258L608.899,81.124L609.424,81.01L609.948,80.907L610.473,80.775L610.998,80.625L611.523,80.412L612.047,80.144L612.572,79.951L613.097,79.846L613.622,79.73L614.146,79.641L614.671,79.539L615.196,79.395L615.721,79.303L616.245,79.23L616.77,79.038L617.295,78.871L617.82,78.787L618.344,78.641L618.869,78.52L619.394,78.407L619.919,78.286L620.443,78.124L620.968,77.932L621.493,77.807L622.018,77.683L622.542,77.598L623.067,77.493L623.592,77.4L624.117,77.36L624.642,77.182L625.166,77.104L625.691,76.98L626.216,76.821L626.741,76.689L627.265,76.503L627.79,76.328L628.315,76.206L628.84,76.086L629.364,75.887L629.889,75.785L630.414,75.677L630.939,75.5L631.463,75.388L631.988,75.256L632.513,75.074L633.038,74.984L633.562,74.885L634.087,74.728L634.612,74.623L635.137,74.428L635.661,74.322L636.186,74.14L636.711,73.986L637.236,73.888L637.761,73.798L638.285,73.677L638.81,73.439L639.335,73.21L639.86,73.062L640.384,72.862L640.909,72.735L641.434,72.585L641.959,72.357L642.483,72.184L643.008,72.036L643.533,71.886L644.058,71.785L644.582,71.66L645.107,71.543L645.632,71.412L646.157,71.295L646.681,71.16L647.206,71.054L647.731,70.928L648.256,70.742L648.78,70.601L649.305,70.514L649.83,70.43L650.355,70.327L650.88,70.228L651.404,70.133L651.929,70.068L652.454,69.999L652.979,69.886L653.503,69.827L654.028,69.755L654.553,69.65L655.078,69.548L655.602,69.459L656.127,69.319L656.652,69.247L657.177,69.129L657.701,69.054L658.226,68.9L658.751,68.831L659.276,68.704L659.8,68.656L660.325,68.596L660.85,68.427L661.375,68.338L661.899,68.236L662.424,68.188L662.949,68.117L663.474,67.997L663.999,67.922L664.523,67.851L665.048,67.826L665.573,67.751L666.098,67.72L666.622,67.65L667.147,67.601L667.672,67.487L668.197,67.368L668.721,67.256L669.246,67.219L669.771,67.152L670.296,67.099L670.82,67.064L671.345,67.044L671.87,66.946L672.395,66.873L672.919,66.789L673.444,66.756L673.969,66.693L674.494,66.634L675.018,66.538L675.543,66.512L676.068,66.466L676.593,66.425L677.118,66.336L677.642,66.248L678.167,66.185L678.692,66.13L679.217,66.076L679.741,66.035L680.266,65.999L680.791,65.979L681.316,65.96L681.84,65.921L682.365,65.857L682.89,65.846L683.415,65.812L683.939,65.797L684.464,65.769L684.989,65.751L685.514,65.736L686.038,65.718L686.563,65.705L687.088,65.696L687.613,65.668L688.137,65.616L688.662,65.596L689.187,65.565L689.712,65.563L690.237,65.523L690.761,65.489L691.286,65.446L691.811,65.422L692.336,65.343L692.86,65.314L693.385,65.292L693.91,65.263L694.435,65.224L694.959,65.186L695.484,65.175L696.009,65.166L696.534,65.151L697.058,65.133L697.583,65.107L698.108,65.066L698.633,65.031L699.157,65.001L699.682,64.952L700.207,64.888L700.732,64.848L701.256,64.809L701.781,64.765L702.306,64.752L702.831,64.71L703.356,64.651L703.88,64.621L704.405,64.546L704.93,64.479L705.455,64.436L705.979,64.372L706.504,64.345L707.029,64.321L707.554,64.3L708.078,64.247L708.603,64.158L709.128,64.139L709.653,64.063L710.177,64.008L710.702,63.978L711.227,63.95L711.752,63.933L712.276,63.899L712.801,63.86L713.326,63.803L713.851,63.753L714.375,63.69L714.9,63.641L715.425,63.627L715.95,63.565L716.475,63.533L716.999,63.511L717.524,63.509L718.049,63.483L718.574,63.456L719.098,63.421L719.623,63.375L720.148,63.359L720.673,63.323L721.197,63.306L721.722,63.287L722.247,63.268L722.772,63.246L723.296,63.228L723.821,63.186L724.346,63.163L724.871,63.135L725.395,63.064L725.92,63.019L726.445,62.989L726.97,62.948L727.494,62.887L728.019,62.832L728.544,62.806L729.069,62.762L729.593,62.709L730.118,62.669L730.643,62.641L731.168,62.597L731.693,62.524L732.217,62.511L732.742,62.499L733.267,62.462L733.792,62.391L734.316,62.361L734.841,62.286L735.366,62.238L735.891,62.207L736.415,62.111L736.94,62.048L737.465,62.023L737.99,61.96L738.514,61.943L739.039,61.9L739.564,61.896L740.089,61.865L740.613,61.846L741.138,61.83L741.663,61.796L742.188,61.767L742.712,61.714L743.237,61.664L743.762,61.575L744.287,61.542L744.812,61.502L745.336,61.487L745.861,61.439L746.386,61.397L746.911,61.324L747.435,61.307L747.96,61.275L748.485,61.217L749.01,61.165L749.534,61.148L750.059,61.095L750.584,61.054L751.109,61.049L751.633,61.02L752.158,60.983L752.683,60.93L753.208,60.893L753.732,60.86L754.257,60.837L754.782,60.775L755.307,60.702L755.831,60.662L756.356,60.636L756.881,60.563L757.406,60.529L757.931,60.498L758.455,60.482L758.98,60.455L759.505,60.434L760.03,60.374L760.554,60.342L761.079,60.326L761.604,60.313L762.129,60.264L762.653,60.257L763.178,60.216L763.703,60.181L764.228,60.156L764.752,60.148L765.277,60.147L765.802,60.136L766.327,60.127L766.851,60.113L767.376,60.082L767.901,60.069L768.426,60.054L768.95,60.04L769.475,60.028L770,60"/>
  </g>
</svg>
