<?xml version="1.0"?>
<svg xmlns="http://www.w3.org/2000/svg" xmlns:xlink="http://www.w3.org/1999/xlink" class="plot-d6a7b5" fill="currentColor" font-family="system-ui, sans-serif" font-size="10" text-anchor="middle" width="830" height="470" viewBox="0 0 830 470" color="#1e90ff">
  <style>:where(.plot-d6a7b5){--plot-background: white;display:block;height:intrinsic;max-width:100%}:where(.plot-d6a7b5 text),:where(.plot-d6a7b5 tspan){white-space:pre}</style>
  <g aria-label="y-grid" aria-hidden="true" stroke="currentColor" stroke-opacity=".1">
    <line x1="60" x2="770" y1="410" y2="410"/>
    <line x1="60" x2="770" y1="378.557" y2="378.557"/>
    <line x1="60" x2="770" y1="347.114" y2="347.114"/>
    <line x1="60" x2="770" y1="315.671" y2="315.671"/>
    <line x1="60" x2="770" y1="284.227" y2="284.227"/>
    <line x1="60" x2="770" y1="252.784" y2="252.784"/>
    <line x1="60" x2="770" y1="221.341" y2="221.341"/>
    <line x1="60" x2="770" y1="189.898" y2="189.898"/>
    <line x1="60" x2="770" y1="158.455" y2="158.455"/>
    <line x1="60" x2="770" y1="127.012" y2="127.012"/>
    <line x1="60" x2="770" y1="95.568" y2="95.568"/>
    <line x1="60" x2="770" y1="64.125" y2="64.125"/>
  </g>
  <g aria-label="y-axis tick" aria-hidden="true" fill="none" stroke="currentColor">
    <path transform="translate(60,410)" d="M0,0L-6,0"/>
    <path transform="translate(60,378.55684921661634)" d="M0,0L-6,0"/>
    <path transform="translate(60,347.11369843323274)" d="M0,0L-6,0"/>
    <path transform="translate(60,315.6705476498491)" d="M0,0L-6,0"/>
    <path transform="translate(60,284.2273968664655)" d="M0,0L-6,0"/>
    <path transform="translate(60,252.7842460830818)" d="M0,0L-6,0"/>
    <path transform="translate(60,221.34109529969817)" d="M0,0L-6,0"/>
    <path transform="translate(60,189.8979445163145)" d="M0,0L-6,0"/>
    <path transform="translate(60,158.45479373293085)" d="M0,0L-6,0"/>
    <path transform="translate(60,127.01164294954722)" d="M0,0L-6,0"/>
    <path transform="translate(60,95.56849216616357)" d="M0,0L-6,0"/>
    <path transform="translate(60,64.12534138277994)" d="M0,0L-6,0"/>
  </g>
  <g aria-label="y-axis tick label" text-anchor="end" font-variant="tabular-nums">
    <text y=".32em" transform="translate(-9,0) translate(60,410)">0</text>
    <text y=".32em" transform="translate(-9,0) translate(60,378.55684921661634)">5,000</text>
    <text y=".32em" transform="translate(-9,0) translate(60,347.11369843323274)">10,000</text>
    <text y=".32em" transform="translate(-9,0) translate(60,315.6705476498491)">15,000</text>
    <text y=".32em" transform="translate(-9,0) translate(60,284.2273968664655)">20,000</text>
    <text y=".32em" transform="translate(-9,0) translate(60,252.7842460830818)">25,000</text>
    <text y=".32em" transform="translate(-9,0) translate(60,221.34109529969817)">30,000</text>
    <text y=".32em" transform="translate(-9,0) translate(60,189.8979445163145)">35,000</text>
    <text y=".32em" transform="translate(-9,0) translate(60,158.45479373293085)">40,000</text>
    <text y=".32em" transform="translate(-9,0) translate(60,127.01164294954722)">45,000</text>
    <text y=".32em" transform="translate(-9,0) translate(60,95.56849216616357)">50,000</text>
    <text y=".32em" transform="translate(-9,0) translate(60,64.12534138277994)">55,000</text>
  </g>
  <g aria-label="y-axis label" text-anchor="start">
    <text y=".71em" transform="translate(-57,-57) translate(60,60)">&#x2191; Visible Vestiges (30 days)</text>
  </g>
  <g aria-label="x-axis tick" aria-hidden="true" fill="none" stroke="currentColor">
    <path transform="translate(86.01293103448276,410)" d="M0,0L0,6"/>
    <path transform="translate(155.63577586206898,410)" d="M0,0L0,6"/>
    <path transform="translate(226.02370689655172,410)" d="M0,0L0,6"/>
    <path transform="translate(296.4116379310345,410)" d="M0,0L0,6"/>
    <path transform="translate(366.0344827586207,410)" d="M0,0L0,6"/>
    <path transform="translate(435.65732758620686,410)" d="M0,0L0,6"/>
    <path transform="translate(506.0452586206896,410)" d="M0,0L0,6"/>
    <path transform="translate(576.4331896551723,410)" d="M0,0L0,6"/>
    <path transform="translate(645.2909482758621,410)" d="M0,0L0,6"/>
    <path transform="translate(714.9137931034484,410)" d="M0,0L0,6"/>
  </g>
  <g aria-label="x-axis tick label" font-variant="tabular-nums">
    <text transform="translate(0,9) translate(86.01293103448276,410)">
      <tspan x="0" y=".71em">Apr</tspan>
      <tspan x="0" dy="1em">2023</tspan>
    </text>
    <text y=".71em" transform="translate(0,9) translate(155.63577586206898,410)">Jul</text>
    <text y=".71em" transform="translate(0,9) translate(226.02370689655172,410)">Oct</text>
    <text transform="translate(0,9) translate(296.4116379310345,410)">
      <tspan x="0" y=".71em">Jan</tspan>
      <tspan x="0" dy="1em">2024</tspan>
    </text>
    <text y=".71em" transform="translate(0,9) translate(366.0344827586207,410)">Apr</text>
    <text y=".71em" transform="translate(0,9) translate(435.65732758620686,410)">Jul</text>
    <text y=".71em" transform="translate(0,9) translate(506.0452586206896,410)">Oct</text>
    <text transform="translate(0,9) translate(576.4331896551723,410)">
      <tspan x="0" y=".71em">Jan</tspan>
      <tspan x="0" dy="1em">2025</tspan>
    </text>
    <text y=".71em" transform="translate(0,9) translate(645.2909482758621,410)">Apr</text>
    <text y=".71em" transform="translate(0,9) translate(714.9137931034484,410)">Jul</text>
  </g>
  <g aria-label="line" fill="none" stroke="currentColor" stroke-width="1.5" stroke-linejoin="round" stroke-linecap="round">
    <path d="M60,
410.00L
60.51,
406.84L
61.02,
395.30L
61.53,
389.07L
62.04,
384.66L
62.55,
377.38L
63.06,
371.64L
63.57,
366.26L
64.08,
355.38L
64.59,
346.77L
65.10,
336.56L
65.61,
320.73L
66.12,
305.80L
66.63,
298.06L
67.14,
286.84L
67.65,
279.23L
68.16,
270.50L
68.67,
259.08L
69.18,
251.40L
69.69,
243.87L
70.20,
233.64L
70.71,
222.30L
71.22,
214.27L
71.73,
200.57L
72.24,
194.08L
72.75,
188.02L
73.26,
177.10L
73.77,
166.64L
74.28,
158.59L
74.79,
147.37L
75.30,
139.34L
75.81,
140.70L
76.32,
131.14L
76.83,
123.03L
77.34,
123.05L
77.85,
121.23L
78.36,
120.91L
78.87,
127.19L
79.38,
127.28L
79.89,
129.16L
80.40,
139.17L
80.91,
140.64L
81.42,
134.32L
81.93,
132.94L
82.44,
125.28L
82.95,
123.66L
83.46,
126.26L
83.97,
121.93L
84.48,
119.42L
84.99,
122.36L
85.50,
120.60L
86.01,
115.96L
86.52,
117.84L
87.03,
107.38L
87.54,
97.34L
88.05,
99.90L
88.56,
97.93L
89.07,
94.78L
89.58,
95.95L
90.09,
92.92L
90.60,
89.75L
91.11,
93.94L
91.62,
92.52L
92.13,
86.41L
92.64,
82.45L
93.15,
72.65L
93.66,
67.72L
94.17,
67.65L
94.68,
64.00L
95.19,
60.00L
95.70,
66.11L
96.21,
70.72L
96.72,
73.11L
97.23,
78.87L
97.74,
76.73L
98.25,
73.18L
98.76,
78.14L
99.27,
78.41L
99.78,
78.04L
100.30,
86.12L
100.81,
91.02L
101.32,
95.10L
101.83,
103.83L
102.34,
109.28L
102.85,
106.83L
103.36,
110.81L
103.87,
110.32L
104.38,
112.15L
104.89,
121.00L
105.40,
122.04L
105.91,
125.13L
106.42,
134.46L
106.93,
140.12L
107.44,
144.19L
107.95,
151.93L
108.46,
150.82L
108.97,
150.16L
109.48,
154.18L
109.99,
157.07L
110.50,
158.25L
111.01,
161.82L
111.52,
162.37L
112.03,
166.39L
112.54,
173.28L
113.05,
176.57L
113.56,
173.33L
114.07,
175.05L
114.58,
172.32L
115.09,
170.35L
115.60,
171.63L
116.11,
169.96L
116.62,
171.74L
117.13,
176.25L
117.64,
178.87L
118.15,
180.92L
118.66,
184.88L
119.17,
184.90L
119.68,
182.82L
120.19,
188.98L
120.70,
191.04L
121.21,
190.01L
121.72,
192.41L
122.23,
192.36L
122.74,
194.41L
123.25,
199.92L
123.76,
200.70L
124.27,
197.65L
124.78,
196.55L
125.29,
192.24L
125.80,
191.87L
126.31,
194.35L
126.82,
192.45L
127.33,
191.27L
127.84,
195.59L
128.35,
196.45L
128.86,
197.12L
129.37,
199.71L
129.88,
195.41L
130.39,
193.60L
130.90,
195.74L
131.41,
194.75L
131.92,
192.78L
132.43,
194.69L
132.94,
194.95L
133.45,
194.56L
133.96,
197.96L
134.47,
199.04L
134.98,
199.46L
135.49,
200.52L
136.00,
198.56L
136.51,
198.38L
137.02,
200.14L
137.53,
198.17L
138.04,
197.83L
138.55,
201.25L
139.06,
206.79L
139.57,
208.37L
140.08,
212.77L
140.59,
212.70L
141.10,
213.02L
141.61,
215.04L
142.12,
215.22L
142.63,
214.43L
143.14,
218.35L
143.65,
218.11L
144.16,
219.53L
144.67,
225.81L
145.18,
227.53L
145.69,
228.54L
146.20,
231.43L
146.71,
231.76L
147.22,
232.10L
147.73,
232.13L
148.24,
233.45L
148.75,
232.46L
149.26,
235.38L
149.77,
234.82L
150.28,
235.07L
150.79,
236.55L
151.30,
234.76L
151.81,
234.71L
152.32,
236.03L
152.83,
234.52L
153.34,
233.21L
153.85,
233.11L
154.36,
230.45L
154.87,
229.11L
155.38,
231.18L
155.89,
231.23L
156.40,
230.54L
156.91,
233.48L
157.42,
232.56L
157.93,
233.89L
158.44,
236.57L
158.95,
236.90L
159.46,
236.30L
159.97,
238.44L
160.48,
237.67L
160.99,
237.05L
161.50,
240.17L
162.01,
239.57L
162.52,
239.81L
163.03,
241.97L
163.54,
240.67L
164.05,
239.59L
164.56,
240.77L
165.07,
239.40L
165.58,
240.24L
166.09,
241.52L
166.60,
240.41L
167.11,
240.74L
167.62,
242.61L
168.13,
243.10L
168.64,
241.78L
169.15,
245.48L
169.66,
247.82L
170.17,
246.72L
170.68,
249.45L
171.19,
248.53L
171.70,
247.80L
172.21,
249.31L
172.72,
247.28L
173.23,
247.29L
173.74,
247.31L
174.25,
244.93L
174.76,
243.35L
175.27,
246.82L
175.78,
243.80L
176.29,
242.45L
176.80,
243.64L
177.31,
242.06L
177.82,
241.64L
178.33,
243.32L
178.84,
241.59L
179.35,
240.39L
179.86,
241.43L
180.37,
238.64L
180.88,
238.42L
181.39,
239.81L
181.90,
239.18L
182.41,
236.98L
182.92,
235.37L
183.43,
231.26L
183.94,
229.94L
184.45,
229.94L
184.96,
228.44L
185.47,
227.00L
185.98,
229.99L
186.49,
228.14L
187.00,
227.59L
187.51,
229.96L
188.02,
228.63L
188.53,
228.93L
189.05,
232.78L
189.56,
232.18L
190.07,
229.53L
190.58,
232.99L
191.09,
232.79L
191.60,
230.38L
192.11,
231.30L
192.62,
228.18L
193.13,
227.81L
193.64,
228.47L
194.15,
226.54L
194.66,
225.81L
195.17,
228.14L
195.68,
227.45L
196.19,
227.22L
196.70,
230.03L
197.21,
231.82L
197.72,
235.13L
198.23,
241.55L
198.74,
242.71L
199.25,
242.19L
199.76,
243.89L
200.27,
244.24L
200.78,
242.92L
201.29,
244.63L
201.80,
245.12L
202.31,
244.01L
202.82,
246.09L
203.33,
246.96L
203.84,
246.12L
204.35,
247.37L
204.86,
247.12L
205.37,
247.23L
205.88,
248.46L
206.39,
251.01L
206.90,
253.73L
207.41,
257.80L
207.92,
259.30L
208.43,
262.27L
208.94,
267.32L
209.45,
266.20L
209.96,
266.89L
210.47,
269.05L
210.98,
268.32L
211.49,
269.46L
212.00,
271.38L
212.51,
272.15L
213.02,
274.03L
213.53,
275.48L
214.04,
276.88L
214.55,
277.23L
215.06,
277.35L
215.57,
274.63L
216.08,
272.32L
216.59,
273.66L
217.10,
273.68L
217.61,
274.47L
218.12,
275.22L
218.63,
275.48L
219.14,
276.62L
219.65,
279.71L
220.16,
279.14L
220.67,
278.44L
221.18,
279.45L
221.69,
277.56L
222.20,
278.75L
222.71,
280.17L
223.22,
278.96L
223.73,
278.56L
224.24,
282.66L
224.75,
282.50L
225.26,
282.90L
225.77,
284.89L
226.28,
281.57L
226.79,
280.67L
227.30,
281.69L
227.81,
279.97L
228.32,
280.81L
228.83,
282.07L
229.34,
283.18L
229.85,
284.59L
230.36,
288.47L
230.87,
289.81L
231.38,
287.60L
231.89,
286.65L
232.40,
283.92L
232.91,
283.60L
233.42,
284.95L
233.93,
285.01L
234.44,
284.88L
234.95,
286.27L
235.46,
286.87L
235.97,
287.66L
236.48,
290.18L
236.99,
285.98L
237.50,
282.77L
238.01,
282.85L
238.52,
282.60L
239.03,
283.04L
239.54,
286.08L
240.05,
285.81L
240.56,
287.20L
241.07,
290.17L
241.58,
288.75L
242.09,
284.76L
242.60,
284.40L
243.11,
281.17L
243.62,
280.65L
244.13,
281.20L
244.64,
279.40L
245.15,
280.06L
245.66,
282.21L
246.17,
283.33L
246.68,
284.16L
247.19,
287.05L
247.70,
286.09L
248.21,
286.01L
248.72,
287.96L
249.23,
286.68L
249.74,
287.25L
250.25,
290.38L
250.76,
290.85L
251.27,
291.04L
251.78,
293.11L
252.29,
293.25L
252.80,
291.02L
253.31,
290.91L
253.82,
289.76L
254.33,
289.66L
254.84,
290.84L
255.35,
289.87L
255.86,
290.69L
256.37,
294.30L
256.88,
296.69L
257.39,
299.05L
257.90,
302.19L
258.41,
301.96L
258.92,
301.82L
259.43,
305.10L
259.94,
305.65L
260.45,
307.38L
260.96,
309.92L
261.47,
311.99L
261.98,
313.21L
262.49,
317.22L
263.00,
315.95L
263.51,
313.54L
264.02,
313.78L
264.53,
312.46L
265.04,
310.95L
265.55,
311.75L
266.06,
311.27L
266.57,
314.14L
267.08,
317.04L
267.59,
318.58L
268.10,
318.94L
268.61,
319.70L
269.12,
317.24L
269.63,
317.32L
270.14,
318.10L
270.65,
316.49L
271.16,
315.66L
271.67,
316.08L
272.18,
313.24L
272.69,
313.47L
273.20,
314.20L
273.71,
314.41L
274.22,
313.00L
274.73,
312.46L
275.24,
310.21L
275.75,
310.19L
276.26,
311.80L
276.77,
310.52L
277.28,
309.11L
277.80,
311.70L
278.31,
313.76L
278.82,
315.85L
279.33,
318.46L
279.83,
318.89L
280.35,
318.26L
280.86,
320.19L
281.37,
318.78L
281.88,
318.43L
282.39,
321.40L
282.90,
322.89L
283.40,
324.39L
283.92,
327.29L
284.43,
327.14L
284.94,
326.88L
285.45,
328.15L
285.96,
328.90L
286.47,
330.00L
286.98,
332.16L
287.49,
332.86L
288.00,
334.04L
288.51,
335.04L
289.02,
335.14L
289.53,
336.49L
290.04,
337.73L
290.55,
335.57L
291.06,
333.42L
291.57,
334.91L
292.08,
334.84L
292.59,
333.29L
293.10,
332.94L
293.61,
331.61L
294.12,
330.66L
294.63,
330.47L
295.14,
329.46L
295.65,
328.10L
296.16,
328.95L
296.67,
328.86L
297.18,
327.36L
297.69,
326.76L
298.20,
324.19L
298.71,
323.49L
299.22,
325.03L
299.73,
324.44L
300.24,
325.56L
300.75,
325.48L
301.26,
323.93L
301.77,
324.95L
302.28,
324.97L
302.79,
323.72L
303.30,
323.98L
303.81,
325.56L
304.32,
325.83L
304.83,
327.08L
305.34,
328.89L
305.85,
328.92L
306.36,
327.50L
306.87,
326.39L
307.38,
325.37L
307.89,
326.14L
308.40,
327.36L
308.91,
327.76L
309.42,
327.56L
309.93,
327.54L
310.44,
327.61L
310.95,
328.29L
311.46,
328.41L
311.97,
327.36L
312.48,
324.45L
312.99,
325.20L
313.50,
323.46L
314.01,
322.96L
314.52,
324.80L
315.03,
323.20L
315.54,
324.37L
316.05,
326.47L
316.56,
323.69L
317.07,
320.76L
317.58,
319.87L
318.09,
316.24L
318.60,
315.09L
319.11,
314.40L
319.62,
312.68L
320.13,
312.21L
320.64,
313.12L
321.15,
312.29L
321.66,
313.81L
322.17,
314.46L
322.68,
310.58L
323.19,
308.89L
323.70,
308.30L
324.21,
307.17L
324.72,
307.95L
325.23,
308.58L
325.74,
305.97L
326.25,
305.55L
326.76,
305.38L
327.27,
306.87L
327.78,
305.54L
328.29,
303.40L
328.80,
298.89L
329.31,
297.36L
329.82,
296.45L
330.33,
291.98L
330.84,
289.97L
331.35,
291.89L
331.86,
293.45L
332.37,
294.15L
332.88,
296.37L
333.39,
294.22L
333.90,
292.26L
334.41,
293.50L
334.92,
292.50L
335.43,
291.64L
335.94,
291.72L
336.45,
290.21L
336.96,
291.92L
337.47,
294.50L
337.98,
293.58L
338.49,
291.87L
339.00,
293.24L
339.51,
291.38L
340.02,
291.15L
340.53,
292.69L
341.04,
292.92L
341.55,
294.81L
342.06,
296.21L
342.57,
297.41L
343.08,
300.95L
343.59,
305.02L
344.10,
303.45L
344.61,
304.40L
345.12,
307.62L
345.63,
309.24L
346.14,
310.03L
346.65,
310.96L
347.16,
311.50L
347.67,
313.09L
348.18,
316.24L
348.69,
316.43L
349.20,
315.57L
349.71,
317.54L
350.22,
316.95L
350.73,
318.11L
351.24,
320.85L
351.75,
320.77L
352.26,
320.98L
352.77,
323.72L
353.28,
325.18L
353.79,
324.76L
354.30,
326.21L
354.81,
323.35L
355.32,
322.80L
355.83,
323.96L
356.34,
325.85L
356.85,
328.53L
357.36,
332.12L
357.87,
334.97L
358.38,
337.83L
358.89,
343.16L
359.40,
346.10L
359.91,
348.38L
360.42,
350.47L
360.93,
352.49L
361.44,
355.01L
361.95,
357.11L
362.46,
358.36L
362.97,
359.89L
363.48,
363.24L
363.99,
364.65L
364.50,
363.41L
365.01,
365.23L
365.52,
365.96L
366.03,
365.27L
366.55,
365.90L
367.06,
367.08L
367.57,
366.89L
368.08,
367.84L
368.59,
368.65L
369.10,
369.19L
369.61,
371.94L
370.12,
372.51L
370.63,
372.51L
371.14,
371.12L
371.65,
368.55L
372.16,
365.76L
372.67,
364.57L
373.18,
362.79L
373.69,
360.13L
374.20,
358.67L
374.71,
357.35L
375.22,
355.19L
375.73,
353.43L
376.24,
351.01L
376.75,
349.25L
377.26,
348.25L
377.77,
346.66L
378.28,
345.81L
378.79,
345.39L
379.30,
347.50L
379.81,
348.25L
380.32,
349.46L
380.83,
349.76L
381.34,
349.87L
381.85,
349.79L
382.36,
349.40L
382.87,
349.84L
383.38,
351.38L
383.89,
351.62L
384.40,
352.16L
384.91,
353.45L
385.42,
353.91L
385.93,
353.06L
386.44,
353.84L
386.95,
354.09L
387.46,
353.57L
387.97,
354.05L
388.48,
354.70L
388.99,
353.94L
389.50,
353.15L
390.01,
353.98L
390.52,
353.74L
391.03,
354.68L
391.54,
354.72L
392.05,
352.86L
392.56,
352.52L
393.07,
351.22L
393.58,
351.22L
394.09,
350.88L
394.60,
350.24L
395.11,
349.01L
395.62,
348.81L
396.13,
348.10L
396.64,
347.52L
397.15,
348.84L
397.66,
347.71L
398.17,
346.25L
398.68,
346.71L
399.19,
345.56L
399.70,
345.57L
400.21,
346.07L
400.72,
347.62L
401.23,
347.91L
401.74,
348.51L
402.25,
348.13L
402.76,
345.00L
403.27,
344.84L
403.78,
343.74L
404.29,
344.53L
404.80,
344.54L
405.31,
344.76L
405.82,
343.74L
406.33,
345.06L
406.84,
346.23L
407.35,
346.37L
407.86,
347.44L
408.37,
346.02L
408.88,
343.66L
409.39,
343.76L
409.90,
342.46L
410.41,
342.67L
410.92,
342.95L
411.43,
341.85L
411.94,
340.76L
412.45,
341.90L
412.96,
341.52L
413.47,
340.40L
413.98,
341.79L
414.49,
339.55L
415.00,
339.12L
415.51,
338.39L
416.02,
337.27L
416.53,
336.47L
417.04,
336.72L
417.55,
338.09L
418.06,
337.88L
418.57,
338.74L
419.08,
336.61L
419.59,
334.44L
420.10,
333.68L
420.61,
333.95L
421.12,
331.51L
421.63,
331.54L
422.14,
331.72L
422.65,
331.88L
423.16,
332.33L
423.67,
333.90L
424.18,
333.45L
424.69,
334.57L
425.20,
333.71L
425.71,
333.08L
426.22,
336.07L
426.73,
337.59L
427.24,
337.55L
427.75,
339.10L
428.26,
338.75L
428.77,
338.40L
429.28,
340.97L
429.79,
340.83L
430.30,
338.42L
430.81,
339.63L
431.32,
340.24L
431.83,
339.22L
432.34,
340.14L
432.85,
341.14L
433.36,
341.78L
433.87,
344.33L
434.38,
346.44L
434.89,
347.28L
435.40,
347.94L
435.91,
347.89L
436.42,
347.52L
436.93,
347.98L
437.44,
346.86L
437.95,
347.38L
438.46,
347.50L
438.97,
348.34L
439.48,
348.98L
439.99,
350.17L
440.50,
350.79L
441.01,
349.26L
441.52,
349.50L
442.03,
350.03L
442.54,
350.03L
443.05,
352.26L
443.56,
352.69L
444.07,
352.16L
444.58,
351.93L
445.09,
353.79L
445.60,
353.91L
446.11,
354.65L
446.62,
355.28L
447.13,
355.46L
447.64,
355.62L
448.15,
355.25L
448.66,
354.33L
449.17,
354.28L
449.68,
354.14L
450.19,
353.98L
450.70,
355.21L
451.21,
354.59L
451.72,
352.07L
452.23,
352.50L
452.74,
351.92L
453.25,
352.23L
453.76,
352.04L
454.27,
351.16L
454.78,
350.64L
455.30,
351.37L
455.81,
352.03L
456.32,
351.30L
456.83,
350.76L
457.34,
350.20L
457.85,
348.68L
458.36,
348.26L
458.87,
346.89L
459.38,
345.91L
459.89,
345.03L
460.40,
343.05L
460.91,
341.51L
461.42,
340.40L
461.93,
338.78L
462.44,
338.22L
462.95,
338.08L
463.46,
335.84L
463.97,
335.24L
464.48,
335.18L
464.99,
334.43L
465.50,
334.70L
466.01,
336.74L
466.52,
335.07L
467.03,
332.62L
467.54,
330.36L
468.05,
326.86L
468.56,
324.35L
469.07,
323.75L
469.58,
320.64L
470.09,
316.88L
470.60,
315.43L
471.11,
314.21L
471.62,
312.55L
472.13,
311.31L
472.64,
310.56L
473.15,
308.58L
473.66,
309.27L
474.17,
310.81L
474.68,
311.05L
475.19,
312.64L
475.70,
313.75L
476.21,
314.73L
476.72,
316.09L
477.23,
315.27L
477.74,
314.48L
478.25,
315.62L
478.76,
315.43L
479.27,
314.99L
479.78,
315.62L
480.29,
315.64L
480.80,
315.30L
481.31,
320.14L
481.82,
324.04L
482.33,
327.61L
482.84,
331.30L
483.35,
334.46L
483.86,
335.68L
484.37,
339.28L
484.88,
342.91L
485.39,
344.73L
485.90,
346.06L
486.41,
348.32L
486.92,
349.22L
487.43,
351.17L
487.94,
353.35L
488.45,
354.57L
488.96,
354.04L
489.47,
354.80L
489.98,
354.51L
490.49,
354.79L
491.00,
355.31L
491.51,
356.19L
492.02,
357.25L
492.53,
359.40L
493.04,
361.31L
493.55,
362.36L
494.06,
363.68L
494.57,
363.83L
495.08,
364.11L
495.59,
364.01L
496.10,
363.57L
496.61,
363.01L
497.12,
362.95L
497.63,
362.72L
498.14,
362.66L
498.65,
362.37L
499.16,
360.69L
499.67,
359.36L
500.18,
356.75L
500.69,
356.70L
501.20,
356.10L
501.71,
356.49L
502.22,
356.97L
502.73,
356.77L
503.24,
356.13L
503.75,
356.21L
504.26,
355.70L
504.77,
352.80L
505.28,
352.17L
505.79,
352.64L
506.30,
350.99L
506.81,
350.76L
507.32,
350.81L
507.83,
350.07L
508.34,
349.79L
508.85,
349.62L
509.36,
349.32L
509.87,
348.32L
510.38,
347.14L
510.89,
344.88L
511.40,
345.16L
511.91,
345.41L
512.42,
345.55L
512.93,
345.20L
513.44,
346.50L
513.95,
348.39L
514.46,
349.63L
514.97,
352.77L
515.48,
352.97L
515.99,
353.56L
516.50,
354.59L
517.01,
354.59L
517.52,
355.94L
518.03,
356.82L
518.54,
357.14L
519.05,
358.40L
519.56,
362.18L
520.07,
362.01L
520.58,
361.57L
521.09,
362.94L
521.60,
362.31L
522.11,
362.60L
522.62,
363.72L
523.13,
363.79L
523.64,
364.16L
524.15,
365.49L
524.66,
366.87L
525.17,
368.66L
525.68,
371.38L
526.19,
370.46L
526.70,
370.27L
527.21,
371.55L
527.72,
372.51L
528.23,
372.51L
528.74,
372.28L
529.25,
372.61L
529.76,
371.50L
530.27,
371.99L
530.78,
371.24L
531.29,
369.32L
531.80,
368.43L
532.31,
365.97L
532.82,
364.91L
533.33,
365.25L
533.84,
365.37L
534.35,
365.14L
534.86,
365.87L
535.37,
366.48L
535.88,
367.07L
536.39,
367.64L
536.90,
366.48L
537.41,
365.36L
537.92,
365.90L
538.43,
364.99L
538.94,
365.24L
539.45,
365.60L
539.96,
364.58L
540.47,
364.39L
540.98,
365.54L
541.49,
365.63L
542.00,
364.44L
542.51,
363.50L
543.02,
362.70L
543.53,
363.02L
544.04,
362.89L
544.55,
363.18L
545.07,
362.75L
545.58,
363.50L
546.09,
364.60L
546.60,
365.49L
547.11,
367.24L
547.62,
367.27L
548.13,
366.48L
548.64,
366.99L
549.15,
367.09L
549.66,
367.24L
550.17,
367.54L
550.67,
367.30L
551.18,
368.16L
551.70,
369.47L
552.21,
370.22L
552.72,
370.65L
553.23,
372.18L
553.74,
372.06L
554.25,
371.77L
554.76,
372.98L
555.27,
373.45L
555.78,
373.31L
556.29,
372.57L
556.80,
372.92L
557.31,
372.55L
557.82,
373.49L
558.33,
373.39L
558.84,
373.93L
559.35,
374.39L
559.86,
374.66L
560.37,
375.39L
560.88,
376.38L
561.39,
376.20L
561.90,
376.54L
562.41,
377.75L
562.92,
378.07L
563.43,
377.06L
563.94,
377.33L
564.45,
376.97L
564.96,
376.92L
565.47,
376.42L
565.98,
376.09L
566.49,
375.98L
567.00,
376.45L
567.51,
375.74L
568.02,
374.99L
568.53,
374.63L
569.04,
373.63L
569.55,
373.60L
570.06,
372.67L
570.57,
372.67L
571.08,
373.70L
571.59,
374.22L
572.10,
375.12L
572.61,
375.09L
573.12,
375.17L
573.63,
374.92L
574.14,
374.36L
574.65,
374.08L
575.16,
371.68L
575.67,
370.38L
576.18,
370.10L
576.69,
369.18L
577.20,
368.70L
577.71,
369.20L
578.22,
368.65L
578.73,
367.12L
579.24,
367.60L
579.75,
366.29L
580.26,
366.71L
580.77,
367.22L
581.28,
366.29L
581.79,
366.00L
582.30,
366.16L
582.81,
366.42L
583.32,
365.90L
583.83,
367.05L
584.34,
366.46L
584.85,
366.89L
585.36,
366.80L
585.87,
366.87L
586.38,
366.56L
586.89,
366.59L
587.40,
366.22L
587.91,
365.57L
588.42,
365.44L
588.93,
365.04L
589.44,
365.18L
589.95,
366.84L
590.46,
367.30L
590.97,
367.39L
591.48,
367.67L
591.99,
367.30L
592.50,
367.39L
593.01,
369.04L
593.52,
369.90L
594.03,
369.83L
594.54,
370.86L
595.05,
370.61L
595.56,
369.60L
596.07,
368.56L
596.58,
366.32L
597.09,
365.12L
597.60,
364.65L
598.11,
364.97L
598.62,
364.92L
599.13,
364.91L
599.64,
364.32L
600.15,
364.60L
600.66,
364.70L
601.17,
363.47L
601.68,
362.42L
602.19,
362.53L
602.70,
362.40L
603.21,
362.12L
603.72,
362.87L
604.23,
362.67L
604.74,
362.02L
605.25,
361.34L
605.76,
361.43L
606.27,
361.65L
606.78,
362.51L
607.29,
362.55L
607.80,
362.21L
608.31,
363.37L
608.82,
362.58L
609.33,
362.89L
609.84,
362.99L
610.35,
362.87L
610.86,
363.87L
611.37,
364.90L
611.88,
365.12L
612.39,
364.90L
612.90,
364.85L
613.41,
363.49L
613.92,
363.49L
614.43,
363.94L
614.94,
362.88L
615.45,
362.41L
615.96,
363.14L
616.47,
362.96L
616.98,
362.89L
617.49,
363.47L
618.00,
363.03L
618.51,
363.12L
619.02,
362.21L
619.53,
362.90L
620.04,
363.03L
620.55,
362.65L
621.06,
362.98L
621.57,
362.93L
622.08,
362.73L
622.59,
360.93L
623.10,
358.59L
623.61,
358.96L
624.12,
357.45L
624.63,
357.41L
625.14,
357.52L
625.65,
356.33L
626.16,
356.49L
626.67,
356.82L
627.18,
356.48L
627.69,
356.72L
628.20,
357.64L
628.71,
357.46L
629.22,
357.16L
629.73,
357.91L
630.24,
357.62L
630.75,
357.94L
631.26,
358.64L
631.77,
357.45L
632.28,
356.93L
632.79,
357.79L
633.30,
358.06L
633.82,
359.20L
634.33,
359.29L
634.84,
360.35L
635.35,
361.47L
635.86,
361.83L
636.37,
361.53L
636.88,
362.31L
637.39,
364.36L
637.90,
365.89L
638.41,
366.47L
638.92,
367.84L
639.42,
367.68L
639.93,
368.65L
640.45,
370.01L
640.96,
371.22L
641.47,
371.15L
641.98,
372.16L
642.49,
371.83L
643.00,
372.78L
643.51,
373.49L
644.02,
373.02L
644.53,
373.37L
645.04,
373.78L
645.55,
374.50L
646.06,
375.17L
646.57,
375.99L
647.08,
376.81L
647.59,
377.00L
648.10,
377.73L
648.61,
378.09L
649.12,
378.92L
649.63,
379.24L
650.14,
379.43L
650.65,
378.87L
651.16,
378.81L
651.67,
378.15L
652.18,
378.58L
652.69,
379.05L
653.20,
379.66L
653.71,
380.33L
654.22,
381.81L
654.73,
381.49L
655.24,
382.05L
655.75,
381.95L
656.26,
383.44L
656.77,
383.51L
657.28,
384.36L
657.79,
383.77L
658.30,
384.18L
658.81,
385.70L
659.32,
386.29L
659.83,
386.46L
660.34,
385.97L
660.85,
386.06L
661.36,
386.87L
661.87,
387.13L
662.38,
387.51L
662.89,
387.37L
663.40,
388.05L
663.91,
388.20L
664.42,
388.58L
664.93,
388.40L
665.44,
389.67L
665.95,
390.71L
666.46,
391.92L
666.97,
392.04L
667.48,
392.64L
667.99,
393.12L
668.50,
393.32L
669.01,
393.42L
669.52,
394.52L
670.03,
395.08L
670.54,
395.47L
671.05,
395.62L
671.56,
396.03L
672.07,
396.73L
672.58,
397.42L
673.09,
397.32L
673.60,
397.37L
674.11,
397.57L
674.62,
397.70L
675.13,
398.43L
675.64,
398.95L
676.15,
399.27L
676.66,
399.44L
677.17,
399.48L
677.68,
399.79L
678.19,
399.93L
678.70,
399.98L
679.21,
400.25L
679.72,
400.70L
680.23,
400.35L
680.74,
400.33L
681.25,
400.15L
681.76,
399.88L
682.27,
399.31L
682.78,
398.99L
683.29,
398.73L
683.80,
398.35L
684.31,
398.30L
684.82,
398.13L
685.33,
398.04L
685.84,
397.93L
686.35,
397.37L
686.86,
396.57L
687.37,
396.53L
687.88,
396.17L
688.39,
396.35L
688.90,
396.36L
689.41,
397.08L
689.92,
396.78L
690.43,
395.95L
690.94,
396.06L
691.45,
395.62L
691.96,
395.40L
692.47,
395.17L
692.98,
394.93L
693.49,
394.91L
694.00,
394.71L
694.51,
394.56L
695.02,
394.35L
695.53,
394.17L
696.04,
393.76L
696.55,
393.76L
697.06,
394.37L
697.57,
394.12L
698.08,
394.20L
698.59,
394.46L
699.10,
394.60L
699.61,
394.79L
700.12,
395.20L
700.63,
395.13L
701.14,
395.49L
701.65,
396.12L
702.16,
396.22L
702.67,
396.79L
703.18,
396.90L
703.69,
396.96L
704.20,
396.95L
704.71,
397.39L
705.22,
397.96L
705.73,
397.92L
706.24,
398.50L
706.75,
398.32L
707.26,
398.11L
707.77,
398.10L
708.28,
397.80L
708.79,
397.46L
709.30,
397.27L
709.81,
397.64L
710.32,
397.73L
710.83,
397.84L
711.34,
397.96L
711.85,
397.79L
712.36,
398.00L
712.87,
397.50L
713.38,
397.61L
713.89,
397.49L
714.40,
397.35L
714.91,
396.81L
715.42,
396.88L
715.93,
396.51L
716.44,
396.11L
716.95,
396.17L
717.46,
395.19L
717.97,
394.65L
718.48,
394.58L
718.99,
394.07L
719.50,
394.07L
720.01,
394.07L
720.52,
394.30L
721.03,
394.27L
721.55,
394.91L
722.06,
395.27L
722.57,
395.22L
723.08,
395.37L
723.59,
395.47L
724.10,
395.53L
724.61,
394.75L
725.12,
394.88L
725.63,
395.04L
726.14,
395.35L
726.65,
395.11L
727.16,
395.14L
727.67,
395.13L
728.18,
395.08L
728.69,
394.83L
729.20,
394.58L
729.71,
394.82L
730.22,
394.96L
730.73,
395.25L
731.24,
395.34L
731.75,
395.66L
732.26,
396.49L
732.77,
396.80L
733.28,
396.46L
733.79,
396.78L
734.30,
396.59L
734.81,
396.83L
735.32,
396.11L
735.83,
395.59L
736.34,
395.33L
736.85,
395.21L
737.36,
394.73L
737.87,
394.67L
738.38,
394.94L
738.89,
395.36L
739.40,
396.12L
739.91,
396.28L
740.42,
396.03L
740.93,
395.81L
741.44,
396.22L
741.95,
396.56L
742.46,
396.87L
742.97,
397.00L
743.48,
396.89L
743.99,
397.17L
744.50,
397.49L
745.01,
397.61L
745.52,
398.25L
746.03,
398.62L
746.54,
398.58L
747.05,
398.76L
747.56,
398.84L
748.07,
399.32L
748.58,
399.61L
749.09,
399.84L
749.60,
399.98L
750.11,
400.40L
750.62,
400.56L
751.13,
400.96L
751.64,
400.79L
752.15,
400.76L
752.66,
399.83L
753.17,
399.15L
753.68,
399.08L
754.19,
399.11L
754.70,
398.96L
755.21,
399.40L
755.72,
399.56L
756.23,
399.32L
756.74,
398.84L
757.25,
398.66L
757.76,
398.35L
758.27,
398.62L
758.78,
399.03L
759.29,
399.01L
759.80,
398.32L
760.31,
398.00L
760.82,
397.86L
761.33,
397.59L
761.84,
397.43L
762.35,
397.18L
762.86,
396.89L
763.37,
396.22L
763.88,
396.36L
764.39,
396.46L
764.90,
396.59L
765.41,
397.02L
765.92,
397.10L
766.43,
396.73L
766.94,
397.39L
767.45,
398.10L
767.96,
398.40L
768.47,
398.67L
768.98,
398.95L
769.49,
399.29L
770.00,
399.485"/>
  </g>
</svg>
