<svg class="plot-d6a7b5" fill="currentColor" font-family="system-ui, sans-serif" font-size="10" text-anchor="middle" width="830" height="470" viewBox="0 0 830 470" xmlns="http://www.w3.org/2000/svg" xmlns:xlink="http://www.w3.org/1999/xlink" color="#1e90ff"><style>:where(.plot-d6a7b5){--plot-background: white;display:block;height:intrinsic;max-width:100%}:where(.plot-d6a7b5 text),:where(.plot-d6a7b5 tspan){white-space:pre}</style><g aria-label="y-grid" stroke="currentColor" stroke-opacity=".1"><line x1="60" x2="770" y1="410" y2="410"/><line x1="60" x2="770" y1="360.939" y2="360.939"/><line x1="60" x2="770" y1="311.878" y2="311.878"/><line x1="60" x2="770" y1="262.817" y2="262.817"/><line x1="60" x2="770" y1="213.757" y2="213.757"/><line x1="60" x2="770" y1="164.696" y2="164.696"/><line x1="60" x2="770" y1="115.635" y2="115.635"/><line x1="60" x2="770" y1="66.574" y2="66.574"/></g><g aria-label="y-axis tick" fill="none" stroke="currentColor"><path transform="translate(60,410)" d="M0,0L-6,0"/><path transform="translate(60,360.9391645640594)" d="M0,0L-6,0"/><path transform="translate(60,311.8783291281189)" d="M0,0L-6,0"/><path transform="translate(60,262.8174936921783)" d="M0,0L-6,0"/><path transform="translate(60,213.7566582562377)" d="M0,0L-6,0"/><path transform="translate(60,164.69582282029717)" d="M0,0L-6,0"/><path transform="translate(60,115.6349873843566)" d="M0,0L-6,0"/><path transform="translate(60,66.57415194841604)" d="M0,0L-6,0"/></g><g aria-label="y-axis tick label" text-anchor="end" font-variant="tabular-nums"><text y=".32em" transform="translate(-9,0) translate(60,410)">0</text><text y=".32em" transform="translate(-9,0) translate(60,360.9391645640594)">1,000</text><text y=".32em" transform="translate(-9,0) translate(60,311.8783291281189)">2,000</text><text y=".32em" transform="translate(-9,0) translate(60,262.8174936921783)">3,000</text><text y=".32em" transform="translate(-9,0) translate(60,213.7566582562377)">4,000</text><text y=".32em" transform="translate(-9,0) translate(60,164.69582282029717)">5,000</text><text y=".32em" transform="translate(-9,0) translate(60,115.6349873843566)">6,000</text><text y=".32em" transform="translate(-9,0) translate(60,66.57415194841604)">7,000</text></g><g aria-label="y-axis label" text-anchor="start"><text y=".71em" transform="translate(-57,-57) translate(60,60)">↑ Visible Vestiges (4 days)</text></g><g aria-label="x-axis tick" fill="none" stroke="currentColor"><path transform="translate(97.02453987730061,410)" d="M0,0L0,6"/><path transform="translate(196.11963190184048,410)" d="M0,0L0,6"/><path transform="translate(296.3036809815951,410)" d="M0,0L0,6"/><path transform="translate(396.4877300613497,410)" d="M0,0L0,6"/><path transform="translate(495.5828220858896,410)" d="M0,0L0,6"/><path transform="translate(594.6779141104295,410)" d="M0,0L0,6"/><path transform="translate(694.861963190184,410)" d="M0,0L0,6"/></g><g aria-label="x-axis tick label" font-variant="tabular-nums"><text transform="translate(0,9) translate(97.02453987730061,410)"><tspan x="0" y=".71em">Apr</tspan><tspan x="0" dy="1em">2023</tspan></text><text y=".71em" transform="translate(0,9) translate(196.11963190184048,410)">Jul</text><text y=".71em" transform="translate(0,9) translate(296.3036809815951,410)">Oct</text><text transform="translate(0,9) translate(396.4877300613497,410)"><tspan x="0" y=".71em">Jan</tspan><tspan x="0" dy="1em">2024</tspan></text><text y=".71em" transform="translate(0,9) translate(495.5828220858896,410)">Apr</text><text y=".71em" transform="translate(0,9) translate(594.6779141104295,410)">Jul</text><text y=".71em" transform="translate(0,9) translate(694.861963190184,410)">Oct</text></g><g aria-label="line" fill="none" stroke="currentColor" stroke-width="1.5" stroke-linejoin="round" stroke-linecap="round"><path d="M60,410L60.726,385.371L61.452,295.296L62.178,246.726L62.904,236.913L63.63,270.177L64.356,274.003L65.082,266.497L65.808,238.434L66.534,216.013L67.26,178.237L67.986,139.626L68.712,90.369L69.438,109.65L70.164,145.66L70.89,202.669L71.616,195.015L72.342,193.445L73.067,192.906L73.793,202.227L74.519,211.5L75.245,182.996L75.971,179.12L76.697,151.989L77.423,189.815L78.149,205.22L78.875,226.905L79.601,195.948L80.327,180.395L81.053,178.089L81.779,172.398L82.505,155.718L83.231,120.05L83.957,109.601L84.683,132.463L85.409,196.683L86.135,250.013L86.861,270.765L87.587,263.21L88.313,242.555L89.039,233.038L89.765,194.623L90.491,149.978L91.217,97.041L91.943,82.862L92.669,111.808L93.395,141.343L94.121,166.756L94.847,169.111L95.573,181.131L96.299,172.595L97.025,152.136L97.751,116.665L98.476,86.689L99.202,60L99.928,86.934L100.654,122.258L101.38,160.378L102.106,147.328L102.832,133.297L103.558,116.518L104.284,104.351L105.01,106.461L105.736,106.362L106.462,107.049L107.188,95.029L107.914,125.006L108.64,147.77L109.366,175.048L110.092,172.791L110.818,182.603L111.544,202.375L112.27,199.333L112.996,182.358L113.722,158.759L114.448,141.883L115.174,161.114L115.9,182.161L116.626,219.055L117.352,234.853L118.078,250.503L118.804,249.718L119.53,224.795L120.256,202.473L120.982,178.482L121.708,176.716L122.434,168.474L123.16,188.785L123.885,212.825L124.611,207.967L125.337,205.613L126.063,211.5L126.789,247.412L127.515,255.802L128.241,231.32L128.967,208.507L129.693,194.329L130.419,192.562L131.145,221.508L131.871,245.744L132.597,262.033L133.323,240.74L134.049,245.793L134.775,248.099L135.501,252.662L136.227,215.327L136.953,195.997L137.679,185.841L138.405,211.549L139.131,223.814L139.857,231.32L140.583,235.638L141.309,238.483L142.035,248.05L142.761,248.345L143.487,235.834L144.213,235.785L144.939,227.69L145.665,239.955L146.391,253.496L147.117,267.527L147.843,274.151L148.569,266.154L149.294,265.712L150.02,267.086L150.746,259.334L151.472,217.829L152.198,195.212L152.924,179.757L153.65,216.897L154.376,223.618L155.102,247.412L155.828,243.438L156.554,262.327L157.28,246.578L158.006,241.623L158.732,218.025L159.458,203.454L160.184,196.34L160.91,200.314L161.636,230.486L162.362,232.105L163.088,239.857L163.814,249.865L164.54,249.718L165.266,261.297L165.992,259.579L166.718,278.174L167.444,273.464L168.17,263.799L168.896,265.761L169.622,263.21L170.348,262.719L171.074,262.817L171.8,267.969L172.526,285.042L173.252,277.438L173.978,269.637L174.703,263.014L175.429,259.825L176.155,265.123L176.881,263.063L177.607,273.366L178.333,272.384L179.059,264.191L179.785,257.813L180.511,261.64L181.237,269.833L181.963,270.569L182.689,274.396L183.415,265.123L184.141,267.675L184.867,255.262L185.593,262.916L186.319,264.093L187.045,284.993L187.771,288.82L188.497,293.824L189.223,272.875L189.949,265.271L190.675,260.414L191.401,258.647L192.127,260.953L192.853,256.292L193.579,262.278L194.305,245.744L195.031,237.649L195.757,247.952L196.483,265.859L197.209,276.26L197.935,281.068L198.661,283.766L199.387,298.534L200.112,288.28L200.838,291.665L201.564,280.381L202.29,284.404L203.016,276.604L203.742,280.283L204.468,278.615L205.194,282.442L205.92,276.751L206.646,276.996L207.372,272.679L208.098,283.325L208.824,279.4L209.55,283.963L210.276,277.928L211.002,271.109L211.728,268.263L212.454,262.572L213.18,269.49L213.906,277.29L214.632,270.373L215.358,268.165L216.084,274.445L216.81,286.514L217.536,296.817L218.262,281.804L218.988,289.458L219.714,282.687L220.44,288.771L221.166,284.306L221.892,276.015L222.618,262.082L223.344,253.643L224.07,272.826L224.796,271.452L225.521,271.599L226.247,257.617L226.973,263.161L227.699,270.716L228.425,270.177L229.151,279.694L229.877,269.637L230.603,269.244L231.329,254.87L232.055,255.704L232.781,255.556L233.507,266.791L234.233,258.255L234.959,242.653L235.685,208.605L236.411,213.266L237.137,232.105L237.863,264.486L238.589,273.905L239.315,282.246L240.041,287.152L240.767,287.299L241.493,288.476L242.219,288.133L242.945,286.416L243.671,284.11L244.397,281.313L245.123,277.536L245.849,273.071L246.575,276.407L247.301,264.24L248.027,249.964L248.753,234.706L249.479,250.16L250.204,257.666L250.93,256.881L251.656,253.594L252.382,252.269L253.108,262.817L253.834,266.546L254.56,281.559L255.286,292.303L256.012,304.372L256.738,298.436L257.464,298.239L258.19,287.25L258.916,282.785L259.642,285.876L260.368,287.888L261.094,292.941L261.82,294.118L262.546,296.964L263.272,299.466L263.998,300.791L264.724,300.594L265.45,291.322L266.176,278.762L266.902,281.755L267.628,284.944L268.354,294.609L269.08,300.692L269.806,307.512L270.532,314.822L271.258,324.242L271.984,331.208L272.71,307.463L273.436,288.329L274.162,276.26L274.888,283.08L275.613,301.576L276.339,310.505L277.065,334.25L277.791,334.103L278.517,330.227L279.243,324.094L279.969,307.806L280.695,300.496L281.421,270.373L282.147,254.575L282.873,265.32L283.599,289.556L284.325,316.294L285.051,312.909L285.777,314.626L286.503,308.101L287.229,313.792L287.955,310.308L288.681,299.073L289.407,292.597L290.133,288.329L290.859,309.965L291.585,320.415L292.311,335.182L293.037,329.687L293.763,326.94L294.489,315.999L295.215,310.161L295.941,300.496L296.667,294.315L297.393,293.137L298.119,309.229L298.845,321.592L299.571,331.306L300.297,327.087L301.022,332.827L301.748,329.982L302.474,320.268L303.2,306.285L303.926,288.771L304.652,275.377L305.378,270.373L306.104,281.706L306.83,301.379L307.556,316.588L308.282,323.8L309.008,320.611L309.734,313.595L310.46,314.282L311.186,318.845L311.912,303.047L312.638,282.246L313.364,277.977L314.09,303.293L314.816,329.05L315.542,341.168L316.268,335.231L316.994,332.974L317.72,326.253L318.446,316.049L319.172,290.144L319.898,276.555L320.624,272.139L321.35,295.1L322.076,307.855L322.802,316.196L323.528,315.656L324.254,314.233L324.98,319.483L325.706,307.316L326.431,308.052L327.157,303.195L327.883,315.803L328.609,323.751L329.335,328.412L330.061,330.325L330.787,332.484L331.513,346.81L332.239,348.38L332.965,324.291L333.691,300.938L334.417,277.83L335.143,286.121L335.869,301.821L336.595,330.571L337.321,334.741L338.047,333.858L338.773,334.299L339.499,342.983L340.225,343.375L340.951,341.756L341.677,333.71L342.403,336.163L343.129,329.442L343.855,338.911L344.581,344.504L345.307,357.603L346.033,357.063L346.759,356.72L347.485,353.531L348.211,360.203L348.937,346.761L349.663,326.351L350.389,301.526L351.115,303.096L351.84,312.32L352.566,331.012L353.292,339.058L354.018,349.165L354.744,342.198L355.47,334.839L356.196,323.555L356.922,322.525L357.648,320.17L358.374,322.083L359.1,321.396L359.826,328.412L360.552,330.08L361.278,327.627L362.004,316.441L362.73,316.588L363.456,321.494L364.182,338.567L364.908,335.28L365.634,330.914L366.36,324.83L367.086,335.133L367.812,351.618L368.538,355.935L369.264,351.765L369.99,345.927L370.716,351.618L371.442,354.12L372.168,355.837L372.894,352.354L373.62,349.802L374.346,352.599L375.072,348.281L375.798,343.523L376.524,344.258L377.249,355.641L377.975,369.034L378.701,366.091L379.427,355.248L380.153,340.775L380.879,335.133L381.605,343.768L382.331,351.961L383.057,347.742L383.783,347.496L384.509,353.04L385.235,361.037L385.961,353.089L386.687,349.999L387.413,345.779L388.139,338.518L388.865,327.725L389.591,334.005L390.317,346.025L391.043,344.847L391.769,336.213L392.495,328.951L393.221,335.378L393.947,333.073L394.673,333.024L395.399,332.631L396.125,336.409L396.851,338.813L397.577,338.42L398.303,338.616L399.029,332.582L399.755,335.918L400.481,341.707L401.207,342.787L401.933,351.274L402.658,347.251L403.384,347.938L404.11,343.032L404.836,343.572L405.562,351.421L406.288,353.433L407.014,357.701L407.74,366.483L408.466,369.966L409.192,364.472L409.918,351.814L410.644,337.292L411.37,326.548L412.096,317.177L412.822,325.615L413.548,336.507L414.274,353.973L415,344.16L415.726,334.397L416.452,331.454L417.178,342.051L417.904,345.632L418.63,336.507L419.356,308.689L420.082,307.561L420.808,305.5L421.534,330.08L422.26,339.598L422.986,349.214L423.712,358.29L424.438,360.988L425.164,346.859L425.89,315.411L426.616,299.907L427.342,295.345L428.067,313.399L428.793,323.849L429.519,342.149L430.245,342.002L430.971,341.854L431.697,334.25L432.423,339.058L433.149,327.627L433.875,312.271L434.601,298.141L435.327,305.893L436.053,317.569L436.779,327.038L437.505,333.661L438.231,332.68L438.957,326.94L439.683,311.486L440.409,315.705L441.135,307.463L441.861,290.095L442.587,267.871L443.313,275.77L444.039,294.952L444.765,304.323L445.491,303.342L446.217,311.339L446.943,326.891L447.669,332.533L448.395,330.276L449.121,319.434L449.847,309.131L450.573,319.728L451.299,328.608L452.025,336.948L452.751,320.366L453.476,321.2L454.202,329.835L454.928,334.005L455.654,324.389L456.38,305.549L457.106,307.708L457.832,309.916L458.558,328.019L459.284,328.412L460.01,338.911L460.736,340.039L461.462,343.179L462.188,342.492L462.914,337.979L463.64,336.605L464.366,322.868L465.092,321.887L465.818,324.536L466.544,348.576L467.27,355.248L467.996,352.991L468.722,350.146L469.448,354.169L470.174,360.596L470.9,347.546L471.626,339.058L472.352,338.764L473.078,341.02L473.804,340.186L474.53,347.006L475.256,359.664L475.982,356.426L476.708,346.81L477.434,339.941L478.16,337.194L478.885,329.344L479.611,313.743L480.337,313.105L481.063,321.396L481.789,359.516L482.515,387.825L483.241,406.124L483.967,409.166L484.693,409.215L485.419,408.97L486.145,408.724L486.871,406.86L487.597,405.634L488.323,405.094L489.049,404.652L489.775,401.954L490.501,399.943L491.227,398.667L491.953,395.38L492.679,388.168L493.405,366.287L494.131,356.475L494.857,350.391L495.583,361.479L496.309,364.913L497.035,365.158L497.761,359.418L498.487,355.101L499.213,349.459L499.939,347.349L500.665,345.73L501.391,343.179L502.117,347.251L502.843,353.089L503.569,356.916L504.294,353.482L505.02,358.094L505.746,364.275L506.472,365.06L507.198,362.656L507.924,364.472L508.65,367.072L509.376,364.226L510.102,355.15L510.828,355.592L511.554,359.565L512.28,364.717L513.006,368.544L513.732,365.845L514.458,372.91L515.184,375.559L515.91,382.133L516.636,379.043L517.362,377.522L518.088,367.759L518.814,356.622L519.54,354.856L520.266,361.871L520.992,364.717L521.718,363.883L522.444,359.271L523.17,365.06L523.896,360.056L524.622,360.007L525.348,354.954L526.074,362.068L526.8,365.894L527.526,369.77L528.252,365.551L528.978,357.456L529.703,361.43L530.429,362.656L531.155,367.072L531.881,361.381L532.607,352.697L533.333,347.889L534.059,341.266L534.785,353.089L535.511,360.105L536.237,367.906L536.963,364.864L537.689,362.902L538.415,360.841L539.141,356.18L539.867,356.867L540.593,351.765L541.319,351.912L542.045,348.085L542.771,347.153L543.497,353.973L544.223,360.056L544.949,376.099L545.675,378.258L546.401,373.989L547.127,366.091L547.853,343.228L548.579,341.168L549.305,331.306L550.031,353.776L550.757,359.026L551.483,370.555L552.209,360.89L552.935,365.453L553.661,364.177L554.387,368.445L555.112,359.86L555.838,351.47L556.564,338.911L557.29,339.156L558.016,337.096L558.742,355.199L559.468,354.561L560.194,351.421L560.92,341.953L561.646,343.572L562.372,349.312L563.098,345.338L563.824,346.319L564.55,338.616L565.276,349.999L566.002,349.508L566.728,360.449L567.454,353.335L568.18,353.089L568.906,349.655L569.632,352.206L570.358,347.055L571.084,342.198L571.81,332.19L572.536,331.11L573.262,340.186L573.988,342.541L574.714,347.447L575.44,351.029L576.166,362.803L576.892,357.652L577.618,355.935L578.344,351.372L579.07,354.561L579.796,353.678L580.521,351.716L581.247,363.098L581.973,372.223L582.699,378.405L583.425,373.008L584.151,354.414L584.877,352.942L585.603,353.188L586.329,366.189L587.055,349.655L587.781,349.999L588.507,348.772L589.233,359.32L589.959,353.629L590.685,359.222L591.411,367.072L592.137,374.922L592.863,373.548L593.589,373.989L594.315,368.298L595.041,353.825L595.767,349.312L596.493,351.372L597.219,354.757L597.945,356.573L598.671,352.206L599.397,362.951L600.123,367.023L600.849,374.48L601.575,370.849L602.301,365.355L603.027,366.974L603.753,372.468L604.479,378.994L605.204,375.952L605.93,373.695L606.656,369.819L607.382,363.638L608.108,358.192L608.834,363.638L609.56,370.015L610.286,370.997L611.012,365.698L611.738,366.777L612.464,366.826L613.19,366.14L613.916,363.098L614.642,365.306L615.368,365.502L616.094,361.086L616.82,352.844L617.546,336.507L618.272,333.612L618.998,335.722L619.724,353.433L620.45,359.32L621.176,361.135L621.902,362.068L622.628,365.6L623.354,372.125L624.08,372.174L624.806,367.759L625.532,364.717L626.258,355.493L626.984,354.169L627.71,344.013L628.436,342.051L629.162,333.024L629.888,333.612L630.613,335.673L631.339,334.888L632.065,332.435L632.791,341.07L633.517,348.723L634.243,343.228L634.969,339.892L635.695,342.639L636.421,354.463L637.147,356.867L637.873,365.06L638.599,341.511L639.325,317.373L640.051,285.925L640.777,289.408L641.503,294.805L642.229,309.572L642.955,313.497L643.681,307.365L644.407,307.168L645.133,321.985L645.859,333.907L646.585,332.582L647.311,327.038L648.037,323.26L648.763,328.167L649.489,344.013L650.215,352.255L650.941,359.86L651.667,358.633L652.393,363.588L653.119,359.32L653.845,352.893L654.571,346.761L655.297,339.598L656.022,341.119L656.748,346.662L657.474,354.463L658.2,358.535L658.926,367.464L659.652,376.786L660.378,382.918L661.104,381.986L661.83,376.442L662.556,376.099L663.282,372.518L664.008,375.756L664.734,373.253L665.46,377.767L666.186,374.872L666.912,376.148L667.638,367.611L668.364,366.925L669.09,362.46L669.816,369.868L670.542,366.385L671.268,363.588L671.994,359.418L672.72,364.521L673.446,367.611L674.172,372.419L674.898,372.076L675.624,378.65L676.35,379.582L677.076,381.005L677.802,380.024L678.528,374.087L679.254,372.125L679.98,370.064L680.706,374.774L681.431,374.333L682.157,373.695L682.883,369.77L683.609,373.401L684.335,368.004L685.061,359.958L685.787,347.546L686.513,333.907L687.239,343.719L687.965,350.685L688.691,365.6L689.417,369.083L690.143,367.66L690.869,367.072L691.595,360.399L692.321,355.297L693.047,333.416L693.773,333.024L694.499,343.67L695.225,358.339L695.951,361.086L696.677,364.422L697.403,372.37L698.129,373.401L698.855,370.751L699.581,368.249L700.307,360.645L701.033,350.685L701.759,340.088L702.485,349.704L703.211,360.203L703.937,375.02L704.663,373.744L705.389,376.541L706.115,382.133L706.84,382.084L707.566,382.771L708.292,379.435L709.018,381.348L709.744,379.779L710.47,381.692L711.196,386.255L711.922,384.537L712.648,380.318L713.374,374.48L714.1,375.216L714.826,370.997L715.552,368.396L716.278,364.275L717.004,363.49L717.73,372.468L718.456,378.405L719.182,384.881L719.908,382.869L720.634,382.084L721.36,384.734L722.086,385.813L722.812,386.058L723.538,377.718L724.264,372.763L724.99,376.295L725.716,389.689L726.442,394.006L727.168,387.825L727.894,382.869L728.62,374.872L729.346,377.178L730.072,370.702L730.798,362.803L731.524,353.923L732.249,345.142L732.975,350.146L733.701,355.542L734.427,369.77L735.153,376.982L735.879,375.854L736.605,377.031L737.331,379.386L738.057,377.276L738.783,372.468L739.509,365.011L740.235,371.34L740.961,371.291L741.687,381.201L742.413,382.379L743.139,382.624L743.865,379.386L744.591,377.227L745.317,380.956L746.043,376.688L746.769,373.744L747.495,371.144L748.221,376.737L748.947,378.16L749.673,378.552L750.399,375.118L751.125,375.412L751.851,373.94L752.577,375.265L753.303,374.333L754.029,370.948L754.755,363.294L755.481,367.808L756.207,375.559L756.933,381.79L757.658,381.348L758.384,381.054L759.11,384.39L759.836,387.53L760.562,387.825L761.288,390.817L762.014,392.436L762.74,395.527L763.466,391.112L764.192,388.855L764.918,390.228L765.644,389.247L766.37,377.767L767.096,372.567L767.822,367.808L768.548,378.307L769.274,380.416L770,388.904"/></g></svg>