<svg class="plot-d6a7b5" fill="currentColor" font-family="system-ui, sans-serif" font-size="10" text-anchor="middle" width="830" height="830" viewBox="0 0 830 830" style="background-color:#000" xmlns="http://www.w3.org/2000/svg" xmlns:xlink="http://www.w3.org/1999/xlink" color="#1e90ff"><style>:where(.plot-d6a7b5){--plot-background: white;display:block;height:intrinsic;max-width:100%}:where(.plot-d6a7b5 text),:where(.plot-d6a7b5 tspan){white-space:pre}</style><g aria-label="y-grid" stroke="currentColor" stroke-opacity=".1"><line x1="40" x2="810" y1="800" y2="800"/><line x1="40" x2="810" y1="774" y2="774"/><line x1="40" x2="810" y1="748" y2="748"/><line x1="40" x2="810" y1="722" y2="722"/><line x1="40" x2="810" y1="696" y2="696"/><line x1="40" x2="810" y1="670" y2="670"/><line x1="40" x2="810" y1="644" y2="644"/><line x1="40" x2="810" y1="618" y2="618"/><line x1="40" x2="810" y1="592" y2="592"/><line x1="40" x2="810" y1="566" y2="566"/><line x1="40" x2="810" y1="540" y2="540"/><line x1="40" x2="810" y1="514" y2="514"/><line x1="40" x2="810" y1="488" y2="488"/><line x1="40" x2="810" y1="462" y2="462"/><line x1="40" x2="810" y1="436" y2="436"/><line x1="40" x2="810" y1="410" y2="410"/><line x1="40" x2="810" y1="384" y2="384"/><line x1="40" x2="810" y1="358" y2="358"/><line x1="40" x2="810" y1="332" y2="332"/><line x1="40" x2="810" y1="306" y2="306"/><line x1="40" x2="810" y1="280" y2="280"/><line x1="40" x2="810" y1="254" y2="254"/><line x1="40" x2="810" y1="228" y2="228"/><line x1="40" x2="810" y1="202" y2="202"/><line x1="40" x2="810" y1="176" y2="176"/><line x1="40" x2="810" y1="150" y2="150"/><line x1="40" x2="810" y1="124" y2="124"/><line x1="40" x2="810" y1="98" y2="98"/><line x1="40" x2="810" y1="72" y2="72"/><line x1="40" x2="810" y1="46" y2="46"/><line x1="40" x2="810" y1="20" y2="20"/></g><g aria-label="y-axis tick" fill="none" stroke="currentColor"><path transform="translate(40,800)" d="M0,0L-6,0"/><path transform="translate(40,774)" d="M0,0L-6,0"/><path transform="translate(40,748)" d="M0,0L-6,0"/><path transform="translate(40,722)" d="M0,0L-6,0"/><path transform="translate(40,696)" d="M0,0L-6,0"/><path transform="translate(40,670)" d="M0,0L-6,0"/><path transform="translate(40,644)" d="M0,0L-6,0"/><path transform="translate(40,618)" d="M0,0L-6,0"/><path transform="translate(40,592)" d="M0,0L-6,0"/><path transform="translate(40,566)" d="M0,0L-6,0"/><path transform="translate(40,540)" d="M0,0L-6,0"/><path transform="translate(40,514)" d="M0,0L-6,0"/><path transform="translate(40,488)" d="M0,0L-6,0"/><path transform="translate(40,462)" d="M0,0L-6,0"/><path transform="translate(40,436)" d="M0,0L-6,0"/><path transform="translate(40,410)" d="M0,0L-6,0"/><path transform="translate(40,384)" d="M0,0L-6,0"/><path transform="translate(40,358)" d="M0,0L-6,0"/><path transform="translate(40,332)" d="M0,0L-6,0"/><path transform="translate(40,306)" d="M0,0L-6,0"/><path transform="translate(40,280)" d="M0,0L-6,0"/><path transform="translate(40,254)" d="M0,0L-6,0"/><path transform="translate(40,228)" d="M0,0L-6,0"/><path transform="translate(40,202)" d="M0,0L-6,0"/><path transform="translate(40,176)" d="M0,0L-6,0"/><path transform="translate(40,150)" d="M0,0L-6,0"/><path transform="translate(40,124)" d="M0,0L-6,0"/><path transform="translate(40,98)" d="M0,0L-6,0"/><path transform="translate(40,72)" d="M0,0L-6,0"/><path transform="translate(40,46)" d="M0,0L-6,0"/><path transform="translate(40,20)" d="M0,0L-6,0"/></g><g aria-label="y-axis tick label" text-anchor="end" font-variant="tabular-nums"><text y=".32em" transform="translate(-9,0) translate(40,800)">160</text><text y=".32em" transform="translate(-9,0) translate(40,774)">150</text><text y=".32em" transform="translate(-9,0) translate(40,748)">140</text><text y=".32em" transform="translate(-9,0) translate(40,722)">130</text><text y=".32em" transform="translate(-9,0) translate(40,696)">120</text><text y=".32em" transform="translate(-9,0) translate(40,670)">110</text><text y=".32em" transform="translate(-9,0) translate(40,644)">100</text><text y=".32em" transform="translate(-9,0) translate(40,618)">90</text><text y=".32em" transform="translate(-9,0) translate(40,592)">80</text><text y=".32em" transform="translate(-9,0) translate(40,566)">70</text><text y=".32em" transform="translate(-9,0) translate(40,540)">60</text><text y=".32em" transform="translate(-9,0) translate(40,514)">50</text><text y=".32em" transform="translate(-9,0) translate(40,488)">40</text><text y=".32em" transform="translate(-9,0) translate(40,462)">30</text><text y=".32em" transform="translate(-9,0) translate(40,436)">20</text><text y=".32em" transform="translate(-9,0) translate(40,410)">10</text><text y=".32em" transform="translate(-9,0) translate(40,384)">0</text><text y=".32em" transform="translate(-9,0) translate(40,358)">−10</text><text y=".32em" transform="translate(-9,0) translate(40,332)">−20</text><text y=".32em" transform="translate(-9,0) translate(40,306)">−30</text><text y=".32em" transform="translate(-9,0) translate(40,280)">−40</text><text y=".32em" transform="translate(-9,0) translate(40,254)">−50</text><text y=".32em" transform="translate(-9,0) translate(40,228)">−60</text><text y=".32em" transform="translate(-9,0) translate(40,202)">−70</text><text y=".32em" transform="translate(-9,0) translate(40,176)">−80</text><text y=".32em" transform="translate(-9,0) translate(40,150)">−90</text><text y=".32em" transform="translate(-9,0) translate(40,124)">−100</text><text y=".32em" transform="translate(-9,0) translate(40,98)">−110</text><text y=".32em" transform="translate(-9,0) translate(40,72)">−120</text><text y=".32em" transform="translate(-9,0) translate(40,46)">−130</text><text y=".32em" transform="translate(-9,0) translate(40,20)">−140</text></g><g aria-label="y-axis label" text-anchor="start"><text y=".71em" transform="translate(-37,-17) translate(40,20)">↓ travelDistY</text></g><g aria-label="x-grid" stroke="currentColor" stroke-opacity=".1"><line x1="66" x2="66" y1="20" y2="800"/><line x1="117" x2="117" y1="20" y2="800"/><line x1="168" x2="168" y1="20" y2="800"/><line x1="220" x2="220" y1="20" y2="800"/><line x1="271" x2="271" y1="20" y2="800"/><line x1="322" x2="322" y1="20" y2="800"/><line x1="374" x2="374" y1="20" y2="800"/><line x1="425" x2="425" y1="20" y2="800"/><line x1="476" x2="476" y1="20" y2="800"/><line x1="528" x2="528" y1="20" y2="800"/><line x1="579" x2="579" y1="20" y2="800"/><line x1="630" x2="630" y1="20" y2="800"/><line x1="682" x2="682" y1="20" y2="800"/><line x1="733" x2="733" y1="20" y2="800"/><line x1="784" x2="784" y1="20" y2="800"/></g><g aria-label="x-axis tick" fill="none" stroke="currentColor"><path transform="translate(66,800)" d="M0,0L0,6"/><path transform="translate(117,800)" d="M0,0L0,6"/><path transform="translate(168,800)" d="M0,0L0,6"/><path transform="translate(220,800)" d="M0,0L0,6"/><path transform="translate(271,800)" d="M0,0L0,6"/><path transform="translate(322,800)" d="M0,0L0,6"/><path transform="translate(374,800)" d="M0,0L0,6"/><path transform="translate(425,800)" d="M0,0L0,6"/><path transform="translate(476,800)" d="M0,0L0,6"/><path transform="translate(528,800)" d="M0,0L0,6"/><path transform="translate(579,800)" d="M0,0L0,6"/><path transform="translate(630,800)" d="M0,0L0,6"/><path transform="translate(682,800)" d="M0,0L0,6"/><path transform="translate(733,800)" d="M0,0L0,6"/><path transform="translate(784,800)" d="M0,0L0,6"/></g><g aria-label="x-axis tick label" font-variant="tabular-nums"><text y=".71em" transform="translate(0,9) translate(66,800)">140</text><text y=".71em" transform="translate(0,9) translate(117,800)">120</text><text y=".71em" transform="translate(0,9) translate(168,800)">100</text><text y=".71em" transform="translate(0,9) translate(220,800)">80</text><text y=".71em" transform="translate(0,9) translate(271,800)">60</text><text y=".71em" transform="translate(0,9) translate(322,800)">40</text><text y=".71em" transform="translate(0,9) translate(374,800)">20</text><text y=".71em" transform="translate(0,9) translate(425,800)">0</text><text y=".71em" transform="translate(0,9) translate(476,800)">−20</text><text y=".71em" transform="translate(0,9) translate(528,800)">−40</text><text y=".71em" transform="translate(0,9) translate(579,800)">−60</text><text y=".71em" transform="translate(0,9) translate(630,800)">−80</text><text y=".71em" transform="translate(0,9) translate(682,800)">−100</text><text y=".71em" transform="translate(0,9) translate(733,800)">−120</text><text y=".71em" transform="translate(0,9) translate(784,800)">−140</text></g><g aria-label="x-axis label" text-anchor="end"><text transform="translate(17,27) translate(810,800)">← travelDistX</text></g><g aria-label="rect" mask="url(#Mask)"><rect x="5510633758" y="-5583499616" width="1283334" height="1300000" fill="#000004"/><rect x="425" y="-1299616" width="1283333" height="1300000" fill="#fac62d"/><rect x="425" y="384" width="1283333" height="1300000" fill="#f6d543"/><rect x="-1282908" y="-1299616" width="1283333" height="1300000" fill="#f6d746"/><rect x="-1282908" y="384" width="1283333" height="1300000" fill="#fcffa4"/></g><mask xmlns="http://www.w3.org/2000/svg" id="Mask"><rect x="45" y="15" width="950" height="780" fill="#fff"/></mask></svg>