<svg class="plot-d6a7b5" fill="currentColor" font-family="system-ui, sans-serif" font-size="10" text-anchor="middle" width="830" height="470" viewBox="0 0 830 470" xmlns="http://www.w3.org/2000/svg" xmlns:xlink="http://www.w3.org/1999/xlink" color="#1e90ff"><style>:where(.plot-d6a7b5){--plot-background: white;display:block;height:intrinsic;max-width:100%}:where(.plot-d6a7b5 text),:where(.plot-d6a7b5 tspan){white-space:pre}</style><g aria-label="y-grid" stroke="currentColor" stroke-opacity=".1"><line x1="60" x2="770" y1="410" y2="410"/><line x1="60" x2="770" y1="378.557" y2="378.557"/><line x1="60" x2="770" y1="347.114" y2="347.114"/><line x1="60" x2="770" y1="315.671" y2="315.671"/><line x1="60" x2="770" y1="284.227" y2="284.227"/><line x1="60" x2="770" y1="252.784" y2="252.784"/><line x1="60" x2="770" y1="221.341" y2="221.341"/><line x1="60" x2="770" y1="189.898" y2="189.898"/><line x1="60" x2="770" y1="158.455" y2="158.455"/><line x1="60" x2="770" y1="127.012" y2="127.012"/><line x1="60" x2="770" y1="95.568" y2="95.568"/><line x1="60" x2="770" y1="64.125" y2="64.125"/></g><g aria-label="y-axis tick" fill="none" stroke="currentColor"><path transform="translate(60,410)" d="M0,0L-6,0"/><path transform="translate(60,378.55684921661634)" d="M0,0L-6,0"/><path transform="translate(60,347.11369843323274)" d="M0,0L-6,0"/><path transform="translate(60,315.6705476498491)" d="M0,0L-6,0"/><path transform="translate(60,284.2273968664655)" d="M0,0L-6,0"/><path transform="translate(60,252.7842460830818)" d="M0,0L-6,0"/><path transform="translate(60,221.34109529969817)" d="M0,0L-6,0"/><path transform="translate(60,189.8979445163145)" d="M0,0L-6,0"/><path transform="translate(60,158.45479373293085)" d="M0,0L-6,0"/><path transform="translate(60,127.01164294954722)" d="M0,0L-6,0"/><path transform="translate(60,95.56849216616357)" d="M0,0L-6,0"/><path transform="translate(60,64.12534138277994)" d="M0,0L-6,0"/></g><g aria-label="y-axis tick label" text-anchor="end" font-variant="tabular-nums"><text y=".32em" transform="translate(-9,0) translate(60,410)">0</text><text y=".32em" transform="translate(-9,0) translate(60,378.55684921661634)">5,000</text><text y=".32em" transform="translate(-9,0) translate(60,347.11369843323274)">10,000</text><text y=".32em" transform="translate(-9,0) translate(60,315.6705476498491)">15,000</text><text y=".32em" transform="translate(-9,0) translate(60,284.2273968664655)">20,000</text><text y=".32em" transform="translate(-9,0) translate(60,252.7842460830818)">25,000</text><text y=".32em" transform="translate(-9,0) translate(60,221.34109529969817)">30,000</text><text y=".32em" transform="translate(-9,0) translate(60,189.8979445163145)">35,000</text><text y=".32em" transform="translate(-9,0) translate(60,158.45479373293085)">40,000</text><text y=".32em" transform="translate(-9,0) translate(60,127.01164294954722)">45,000</text><text y=".32em" transform="translate(-9,0) translate(60,95.56849216616357)">50,000</text><text y=".32em" transform="translate(-9,0) translate(60,64.12534138277994)">55,000</text></g><g aria-label="y-axis label" text-anchor="start"><text y=".71em" transform="translate(-57,-57) translate(60,60)">↑ Visible Vestiges (30 days)</text></g><g aria-label="x-axis tick" fill="none" stroke="currentColor"><path transform="translate(65.65486725663716,410)" d="M0,0L0,6"/><path transform="translate(124.08849557522123,410)" d="M0,0L0,6"/><path transform="translate(180.6371681415929,410)" d="M0,0L0,6"/><path transform="translate(239.07079646017698,410)" d="M0,0L0,6"/><path transform="translate(295.6194690265487,410)" d="M0,0L0,6"/><path transform="translate(354.05309734513276,410)" d="M0,0L0,6"/><path transform="translate(412.4867256637168,410)" d="M0,0L0,6"/><path transform="translate(469.03539823008845,410)" d="M0,0L0,6"/><path transform="translate(527.4690265486727,410)" d="M0,0L0,6"/><path transform="translate(584.0176991150443,410)" d="M0,0L0,6"/><path transform="translate(642.4513274336283,410)" d="M0,0L0,6"/><path transform="translate(700.8849557522124,410)" d="M0,0L0,6"/><path transform="translate(755.5486725663718,410)" d="M0,0L0,6"/></g><g aria-label="x-axis tick label" font-variant="tabular-nums"><text transform="translate(0,9) translate(65.65486725663716,410)"><tspan x="0" y=".71em">Mar</tspan><tspan x="0" dy="1em">2023</tspan></text><text y=".71em" transform="translate(0,9) translate(124.08849557522123,410)">Apr</text><text y=".71em" transform="translate(0,9) translate(180.6371681415929,410)">May</text><text y=".71em" transform="translate(0,9) translate(239.07079646017698,410)">Jun</text><text y=".71em" transform="translate(0,9) translate(295.6194690265487,410)">Jul</text><text y=".71em" transform="translate(0,9) translate(354.05309734513276,410)">Aug</text><text y=".71em" transform="translate(0,9) translate(412.4867256637168,410)">Sep</text><text y=".71em" transform="translate(0,9) translate(469.03539823008845,410)">Oct</text><text y=".71em" transform="translate(0,9) translate(527.4690265486727,410)">Nov</text><text y=".71em" transform="translate(0,9) translate(584.0176991150443,410)">Dec</text><text transform="translate(0,9) translate(642.4513274336283,410)"><tspan x="0" y=".71em">Jan</tspan><tspan x="0" dy="1em">2024</tspan></text><text y=".71em" transform="translate(0,9) translate(700.8849557522124,410)">Feb</text><text y=".71em" transform="translate(0,9) translate(755.5486725663718,410)">Mar</text></g><g aria-label="line" fill="none" stroke="currentColor" stroke-width="1.5" stroke-linejoin="round" stroke-linecap="round"><path d="M60,410L61.257,406.843L62.513,395.297L63.77,389.071L65.027,384.657L66.283,377.375L67.54,371.639L68.796,366.263L70.053,355.383L71.31,346.774L72.566,336.555L73.823,320.727L75.08,305.804L76.336,298.056L77.593,286.843L78.85,279.228L80.106,270.499L81.363,259.085L82.619,251.401L83.876,243.867L85.133,233.642L86.389,222.303L87.646,214.273L88.903,200.57L90.159,194.08L91.416,188.024L92.673,177.101L93.929,166.643L95.186,158.593L96.442,147.374L97.699,139.344L98.956,140.702L100.212,131.137L101.469,123.025L102.726,123.05L103.982,121.226L105.239,120.912L106.496,127.194L107.752,127.276L109.009,129.156L110.265,139.168L111.522,140.639L112.779,134.325L114.035,132.936L115.292,125.282L116.549,123.66L117.805,126.257L119.062,121.93L120.319,119.415L121.575,122.364L122.832,120.597L124.088,115.956L125.345,117.837L126.602,107.379L127.858,97.342L129.115,99.895L130.372,97.933L131.628,94.776L132.885,95.952L134.142,92.921L135.398,89.752L136.655,93.94L137.912,92.519L139.168,86.406L140.425,82.45L141.681,72.653L142.938,67.722L144.195,67.653L145.451,64L146.708,60L147.965,66.113L149.221,70.716L150.478,73.112L151.735,78.866L152.991,76.734L154.248,73.181L155.504,78.143L156.761,78.407L158.018,78.042L159.274,86.123L160.531,91.016L161.788,95.097L163.044,103.825L164.301,109.278L165.558,106.831L166.814,110.806L168.071,110.315L169.327,112.145L170.584,121L171.841,122.037L173.097,125.125L174.354,134.464L175.611,140.117L176.867,144.192L178.124,151.933L179.381,150.82L180.637,150.16L181.894,154.179L183.15,157.065L184.407,158.254L185.664,161.825L186.92,162.373L188.177,166.385L189.434,173.277L190.69,176.572L191.947,173.334L193.204,175.05L194.46,172.315L195.717,170.347L196.973,171.629L198.23,169.957L199.487,171.736L200.743,176.245L202,178.874L203.257,180.918L204.513,184.88L205.77,184.898L207.027,182.823L208.283,188.98L209.54,191.036L210.796,190.005L212.053,192.407L213.31,192.363L214.566,194.413L215.823,199.916L217.08,200.696L218.336,197.652L219.593,196.545L220.85,192.237L222.106,191.866L223.363,194.35L224.619,192.445L225.876,191.269L227.133,195.589L228.389,196.451L229.646,197.117L230.903,199.714L232.159,195.413L233.416,193.596L234.673,195.74L235.929,194.753L237.186,192.778L238.442,194.69L239.699,194.948L240.956,194.558L242.212,197.96L243.469,199.035L244.726,199.457L245.982,200.519L247.239,198.557L248.496,198.381L249.752,200.142L251.009,198.174L252.265,197.834L253.522,201.249L254.779,206.789L256.035,208.374L257.292,212.77L258.549,212.701L259.805,213.015L261.062,215.04L262.319,215.216L263.575,214.43L264.832,218.348L266.088,218.109L267.345,219.53L268.602,225.806L269.858,227.529L271.115,228.535L272.372,231.434L273.628,231.761L274.885,232.101L276.142,232.126L277.398,233.453L278.655,232.459L279.912,235.384L281.168,234.818L282.425,235.069L283.681,236.547L284.938,234.755L286.195,234.711L287.451,236.025L288.708,234.516L289.965,233.214L291.221,233.107L292.478,230.453L293.735,229.114L294.991,231.177L296.248,231.227L297.504,230.541L298.761,233.484L300.018,232.56L301.274,233.893L302.531,236.572L303.788,236.899L305.044,236.295L306.301,238.44L307.558,237.673L308.814,237.05L310.071,240.169L311.327,239.566L312.584,239.805L313.841,241.974L315.097,240.666L316.354,239.591L317.611,240.767L318.867,239.402L320.124,240.238L321.381,241.515L322.637,240.408L323.894,240.742L325.15,242.609L326.407,243.1L327.664,241.779L328.92,245.483L330.177,247.816L331.434,246.722L332.69,249.451L333.947,248.527L335.204,247.797L336.46,249.313L337.717,247.275L338.973,247.288L340.23,247.307L341.487,244.93L342.743,243.345L344,246.823L345.257,243.798L346.513,242.446L347.77,243.641L349.027,242.056L350.283,241.641L351.54,243.32L352.796,241.59L354.053,240.389L355.31,241.433L356.566,238.635L357.823,238.415L359.08,239.805L360.336,239.176L361.593,236.975L362.85,235.365L364.106,231.258L365.363,229.938L366.619,229.938L367.876,228.435L369.133,227.001L370.389,229.994L371.646,228.139L372.903,227.592L374.159,229.957L375.416,228.63L376.673,228.925L377.929,232.78L379.186,232.176L380.442,229.529L381.699,232.988L382.956,232.793L384.212,230.378L385.469,231.296L386.726,228.177L387.982,227.812L389.239,228.472L390.496,226.542L391.752,225.806L393.009,228.139L394.265,227.454L395.522,227.215L396.779,230.032L398.035,231.818L399.292,235.126L400.549,241.546L401.805,242.71L403.062,242.194L404.319,243.892L405.575,244.244L406.832,242.917L408.088,244.634L409.345,245.118L410.602,244.005L411.858,246.087L413.115,246.961L414.372,246.118L415.628,247.37L416.885,247.118L418.142,247.231L419.398,248.464L420.655,251.011L421.912,253.734L423.168,257.796L424.425,259.299L425.681,262.268L426.938,267.324L428.195,266.204L429.451,266.89L430.708,269.047L431.965,268.323L433.221,269.455L434.478,271.38L435.735,272.153L436.991,274.027L438.248,275.48L439.504,276.876L440.761,277.234L442.018,277.354L443.274,274.631L444.531,272.317L445.788,273.662L447.044,273.681L448.301,274.474L449.558,275.216L450.814,275.48L452.071,276.624L453.327,279.706L454.584,279.14L455.841,278.436L457.097,279.448L458.354,277.555L459.611,278.75L460.867,280.165L462.124,278.958L463.381,278.555L464.637,282.662L465.894,282.504L467.15,282.9L468.407,284.894L469.664,281.574L470.92,280.674L472.177,281.687L473.434,279.97L474.69,280.813L475.947,282.07L477.204,283.177L478.46,284.592L479.717,288.466L480.973,289.805L482.23,287.598L483.487,286.649L484.743,283.919L486,283.599L487.257,284.951L488.513,285.007L489.77,284.881L491.027,286.271L492.283,286.869L493.54,287.661L494.796,290.183L496.053,285.982L497.31,282.768L498.566,282.85L499.823,282.599L501.08,283.039L502.336,286.076L503.593,285.812L504.85,287.202L506.106,290.17L507.363,288.749L508.619,284.756L509.876,284.397L511.133,281.165L512.389,280.655L513.646,281.196L514.903,279.398L516.159,280.064L517.416,282.215L518.673,283.334L519.929,284.158L521.186,287.045L522.442,286.089L523.699,286.007L524.956,287.963L526.212,286.68L527.469,287.252L528.726,290.384L529.982,290.849L531.239,291.038L532.496,293.107L533.752,293.245L535.009,291.019L536.265,290.906L537.522,289.755L538.779,289.661L540.035,290.843L541.292,289.868L542.549,290.692L543.805,294.295L545.062,296.691L546.319,299.05L547.575,302.188L548.832,301.955L550.088,301.817L551.345,305.099L552.602,305.653L553.858,307.376L555.115,309.916L556.372,311.985L557.628,313.205L558.885,317.224L560.142,315.954L561.398,313.539L562.655,313.778L563.912,312.463L565.168,310.954L566.425,311.753L567.681,311.269L568.938,314.142L570.195,317.041L571.451,318.576L572.708,318.941L573.965,319.695L575.221,317.243L576.478,317.318L577.735,318.098L578.991,316.488L580.248,315.664L581.504,316.079L582.761,313.243L584.018,313.47L585.274,314.199L586.531,314.413L587.788,313.004L589.044,312.457L590.301,310.212L591.558,310.193L592.814,311.803L594.071,310.52L595.327,309.112L596.584,311.696L597.841,313.759L599.097,315.853L600.354,318.456L601.611,318.89L602.867,318.261L604.124,320.192L605.381,318.777L606.637,318.431L607.894,321.399L609.15,322.89L610.407,324.393L611.664,327.286L612.92,327.141L614.177,326.877L615.434,328.147L616.69,328.896L617.947,329.996L619.204,332.159L620.46,332.857L621.717,334.04L622.973,335.04L624.23,335.14L625.487,336.486L626.743,337.725L628,335.574L629.257,333.423L630.513,334.914L631.77,334.838L633.027,333.285L634.283,332.939L635.54,331.612L636.796,330.663L638.053,330.468L639.31,329.462L640.566,328.103L641.823,328.946L643.08,328.858L644.336,327.355L645.593,326.764L646.85,324.185L648.106,323.487L649.363,325.028L650.619,324.443L651.876,325.556L653.133,325.475L654.389,323.928L655.646,324.953L656.903,324.971L658.159,323.72L659.416,323.978L660.673,325.563L661.929,325.833L663.186,327.078L664.442,328.889L665.699,328.921L666.956,327.499L668.212,326.393L669.469,325.374L670.726,326.141L671.982,327.361L673.239,327.757L674.496,327.562L675.752,327.537L677.009,327.606L678.265,328.286L679.522,328.411L680.779,327.361L682.035,324.449L683.292,325.204L684.549,323.462L685.805,322.959L687.062,324.795L688.319,323.198L689.575,324.374L690.832,326.468L692.088,323.689L693.345,320.764L694.602,319.865L695.858,316.243L697.115,315.086L698.372,314.4L699.628,312.677L700.885,312.206L702.142,313.124L703.398,312.287L704.655,313.809L705.912,314.463L707.168,310.577L708.425,308.891L709.681,308.3L710.938,307.168L712.195,307.948L713.451,308.583L714.708,305.967L715.965,305.552L717.221,305.376L718.478,306.866L719.735,305.54L720.991,303.401L722.248,298.892L723.504,297.358L724.761,296.446L726.018,291.975L727.274,289.969L728.531,291.893L729.788,293.447L731.044,294.151L732.301,296.371L733.558,294.22L734.814,292.264L736.071,293.497L737.327,292.503L738.584,291.635L739.841,291.717L741.097,290.214L742.354,291.918L743.611,294.503L744.867,293.579L746.124,291.874L747.381,293.239L748.637,291.384L749.894,291.151L751.15,292.692L752.407,292.918L753.664,294.811L754.92,296.214L756.177,297.408L757.434,300.949L758.69,305.024L759.947,303.445L761.204,304.401L762.46,307.615L763.717,309.244L764.973,310.03L766.23,310.96L767.487,311.501L768.743,313.092L770,316.237"/></g></svg>