<svg class="plot-d6a7b5" fill="currentColor" font-family="system-ui, sans-serif" font-size="10" text-anchor="middle" width="830" height="470" viewBox="0 0 830 470" xmlns="http://www.w3.org/2000/svg" xmlns:xlink="http://www.w3.org/1999/xlink" color="#1e90ff"><style>:where(.plot-d6a7b5){--plot-background: white;display:block;height:intrinsic;max-width:100%}:where(.plot-d6a7b5 text),:where(.plot-d6a7b5 tspan){white-space:pre}</style><g aria-label="y-grid" stroke="currentColor" stroke-opacity=".1"><line x1="60" x2="770" y1="410" y2="410"/><line x1="60" x2="770" y1="378.557" y2="378.557"/><line x1="60" x2="770" y1="347.114" y2="347.114"/><line x1="60" x2="770" y1="315.671" y2="315.671"/><line x1="60" x2="770" y1="284.227" y2="284.227"/><line x1="60" x2="770" y1="252.784" y2="252.784"/><line x1="60" x2="770" y1="221.341" y2="221.341"/><line x1="60" x2="770" y1="189.898" y2="189.898"/><line x1="60" x2="770" y1="158.455" y2="158.455"/><line x1="60" x2="770" y1="127.012" y2="127.012"/><line x1="60" x2="770" y1="95.568" y2="95.568"/><line x1="60" x2="770" y1="64.125" y2="64.125"/></g><g aria-label="y-axis tick" fill="none" stroke="currentColor"><path transform="translate(60,410)" d="M0,0L-6,0"/><path transform="translate(60,378.55684921661634)" d="M0,0L-6,0"/><path transform="translate(60,347.11369843323274)" d="M0,0L-6,0"/><path transform="translate(60,315.6705476498491)" d="M0,0L-6,0"/><path transform="translate(60,284.2273968664655)" d="M0,0L-6,0"/><path transform="translate(60,252.7842460830818)" d="M0,0L-6,0"/><path transform="translate(60,221.34109529969817)" d="M0,0L-6,0"/><path transform="translate(60,189.8979445163145)" d="M0,0L-6,0"/><path transform="translate(60,158.45479373293085)" d="M0,0L-6,0"/><path transform="translate(60,127.01164294954722)" d="M0,0L-6,0"/><path transform="translate(60,95.56849216616357)" d="M0,0L-6,0"/><path transform="translate(60,64.12534138277994)" d="M0,0L-6,0"/></g><g aria-label="y-axis tick label" text-anchor="end" font-variant="tabular-nums"><text y=".32em" transform="translate(-9,0) translate(60,410)">0</text><text y=".32em" transform="translate(-9,0) translate(60,378.55684921661634)">5,000</text><text y=".32em" transform="translate(-9,0) translate(60,347.11369843323274)">10,000</text><text y=".32em" transform="translate(-9,0) translate(60,315.6705476498491)">15,000</text><text y=".32em" transform="translate(-9,0) translate(60,284.2273968664655)">20,000</text><text y=".32em" transform="translate(-9,0) translate(60,252.7842460830818)">25,000</text><text y=".32em" transform="translate(-9,0) translate(60,221.34109529969817)">30,000</text><text y=".32em" transform="translate(-9,0) translate(60,189.8979445163145)">35,000</text><text y=".32em" transform="translate(-9,0) translate(60,158.45479373293085)">40,000</text><text y=".32em" transform="translate(-9,0) translate(60,127.01164294954722)">45,000</text><text y=".32em" transform="translate(-9,0) translate(60,95.56849216616357)">50,000</text><text y=".32em" transform="translate(-9,0) translate(60,64.12534138277994)">55,000</text></g><g aria-label="y-axis label" text-anchor="start"><text y=".71em" transform="translate(-57,-57) translate(60,60)">↑ Visible Vestiges (30 days)</text></g><g aria-label="x-axis tick" fill="none" stroke="currentColor"><path transform="translate(66.99124726477024,410)" d="M0,0L0,6"/><path transform="translate(139.23413566739606,410)" d="M0,0L0,6"/><path transform="translate(209.1466083150985,410)" d="M0,0L0,6"/><path transform="translate(281.3894967177243,410)" d="M0,0L0,6"/><path transform="translate(351.30196936542666,410)" d="M0,0L0,6"/><path transform="translate(423.5448577680525,410)" d="M0,0L0,6"/><path transform="translate(495.7877461706783,410)" d="M0,0L0,6"/><path transform="translate(565.7002188183808,410)" d="M0,0L0,6"/><path transform="translate(637.9431072210066,410)" d="M0,0L0,6"/><path transform="translate(707.855579868709,410)" d="M0,0L0,6"/></g><g aria-label="x-axis tick label" font-variant="tabular-nums"><text transform="translate(0,9) translate(66.99124726477024,410)"><tspan x="0" y=".71em">Mar</tspan><tspan x="0" dy="1em">2023</tspan></text><text y=".71em" transform="translate(0,9) translate(139.23413566739606,410)">Apr</text><text y=".71em" transform="translate(0,9) translate(209.1466083150985,410)">May</text><text y=".71em" transform="translate(0,9) translate(281.3894967177243,410)">Jun</text><text y=".71em" transform="translate(0,9) translate(351.30196936542666,410)">Jul</text><text y=".71em" transform="translate(0,9) translate(423.5448577680525,410)">Aug</text><text y=".71em" transform="translate(0,9) translate(495.7877461706783,410)">Sep</text><text y=".71em" transform="translate(0,9) translate(565.7002188183808,410)">Oct</text><text y=".71em" transform="translate(0,9) translate(637.9431072210066,410)">Nov</text><text y=".71em" transform="translate(0,9) translate(707.855579868709,410)">Dec</text></g><g aria-label="line" fill="none" stroke="currentColor" stroke-width="1.5" stroke-linejoin="round" stroke-linecap="round"><path d="M60,410L61.554,406.843L63.107,395.297L64.661,389.071L66.214,384.657L67.768,377.375L69.322,371.639L70.875,366.263L72.429,355.383L73.982,346.774L75.536,336.555L77.09,320.727L78.643,305.804L80.197,298.056L81.751,286.843L83.304,279.228L84.858,270.499L86.411,259.085L87.965,251.401L89.519,243.867L91.072,233.642L92.626,222.303L94.179,214.273L95.733,200.57L97.287,194.08L98.84,188.024L100.394,177.101L101.947,166.643L103.501,158.593L105.055,147.374L106.608,139.344L108.162,140.702L109.716,131.137L111.269,123.025L112.823,123.05L114.376,121.226L115.93,120.912L117.484,127.194L119.037,127.276L120.591,129.156L122.144,139.168L123.698,140.639L125.252,134.325L126.805,132.936L128.359,125.282L129.912,123.66L131.466,126.257L133.02,121.93L134.573,119.415L136.127,122.364L137.681,120.597L139.234,115.956L140.788,117.837L142.341,107.379L143.895,97.342L145.449,99.895L147.002,97.933L148.556,94.776L150.109,95.952L151.663,92.921L153.217,89.752L154.77,93.94L156.324,92.519L157.877,86.406L159.431,82.45L160.985,72.653L162.538,67.722L164.092,67.653L165.646,64L167.199,60L168.753,66.113L170.306,70.716L171.86,73.112L173.414,78.866L174.967,76.734L176.521,73.181L178.074,78.143L179.628,78.407L181.182,78.042L182.735,86.123L184.289,91.016L185.842,95.097L187.396,103.825L188.95,109.278L190.503,106.831L192.057,110.806L193.611,110.315L195.164,112.145L196.718,121L198.271,122.037L199.825,125.125L201.379,134.464L202.932,140.117L204.486,144.192L206.039,151.933L207.593,150.82L209.147,150.16L210.7,154.179L212.254,157.065L213.807,158.254L215.361,161.825L216.915,162.373L218.468,166.385L220.022,173.277L221.575,176.572L223.129,173.334L224.683,175.05L226.236,172.315L227.79,170.347L229.344,171.629L230.897,169.957L232.451,171.736L234.004,176.245L235.558,178.874L237.112,180.918L238.665,184.88L240.219,184.898L241.772,182.823L243.326,188.98L244.88,191.036L246.433,190.005L247.987,192.407L249.54,192.363L251.094,194.413L252.648,199.916L254.201,200.696L255.755,197.652L257.309,196.545L258.862,192.237L260.416,191.866L261.969,194.35L263.523,192.445L265.077,191.269L266.63,195.589L268.184,196.451L269.737,197.117L271.291,199.714L272.845,195.413L274.398,193.596L275.952,195.74L277.505,194.753L279.059,192.778L280.613,194.69L282.166,194.948L283.72,194.558L285.274,197.96L286.827,199.035L288.381,199.457L289.934,200.519L291.488,198.557L293.042,198.381L294.595,200.142L296.149,198.174L297.702,197.834L299.256,201.249L300.81,206.789L302.363,208.374L303.917,212.77L305.47,212.701L307.024,213.015L308.578,215.04L310.131,215.216L311.685,214.43L313.239,218.348L314.792,218.109L316.346,219.53L317.899,225.806L319.453,227.529L321.007,228.535L322.56,231.434L324.114,231.761L325.667,232.101L327.221,232.126L328.775,233.453L330.328,232.459L331.882,235.384L333.435,234.818L334.989,235.069L336.543,236.547L338.096,234.755L339.65,234.711L341.204,236.025L342.757,234.516L344.311,233.214L345.864,233.107L347.418,230.453L348.972,229.114L350.525,231.177L352.079,231.227L353.632,230.541L355.186,233.484L356.74,232.56L358.293,233.893L359.847,236.572L361.4,236.899L362.954,236.295L364.508,238.44L366.061,237.673L367.615,237.05L369.168,240.169L370.722,239.566L372.276,239.805L373.829,241.974L375.383,240.666L376.937,239.591L378.49,240.767L380.044,239.402L381.597,240.238L383.151,241.515L384.705,240.408L386.258,240.742L387.812,242.609L389.365,243.1L390.919,241.779L392.473,245.483L394.026,247.816L395.58,246.722L397.133,249.451L398.687,248.527L400.241,247.797L401.794,249.313L403.348,247.275L404.902,247.288L406.455,247.307L408.009,244.93L409.562,243.345L411.116,246.823L412.67,243.798L414.223,242.446L415.777,243.641L417.33,242.056L418.884,241.641L420.438,243.32L421.991,241.59L423.545,240.389L425.098,241.433L426.652,238.635L428.206,238.415L429.759,239.805L431.313,239.176L432.867,236.975L434.42,235.365L435.974,231.258L437.527,229.938L439.081,229.938L440.635,228.435L442.188,227.001L443.742,229.994L445.295,228.139L446.849,227.592L448.403,229.957L449.956,228.63L451.51,228.925L453.063,232.78L454.617,232.176L456.171,229.529L457.724,232.988L459.278,232.793L460.832,230.378L462.385,231.296L463.939,228.177L465.492,227.812L467.046,228.472L468.6,226.542L470.153,225.806L471.707,228.139L473.26,227.454L474.814,227.215L476.368,230.032L477.921,231.818L479.475,235.126L481.028,241.546L482.582,242.71L484.136,242.194L485.689,243.892L487.243,244.244L488.796,242.917L490.35,244.634L491.904,245.118L493.457,244.005L495.011,246.087L496.565,246.961L498.118,246.118L499.672,247.37L501.225,247.118L502.779,247.231L504.333,248.464L505.886,251.011L507.44,253.734L508.993,257.796L510.547,259.299L512.101,262.268L513.654,267.324L515.208,266.204L516.761,266.89L518.315,269.047L519.869,268.323L521.422,269.455L522.976,271.38L524.53,272.153L526.083,274.027L527.637,275.48L529.19,276.876L530.744,277.234L532.298,277.354L533.851,274.631L535.405,272.317L536.958,273.662L538.512,273.681L540.066,274.474L541.619,275.216L543.173,275.48L544.726,276.624L546.28,279.706L547.834,279.14L549.387,278.436L550.941,279.448L552.495,277.555L554.048,278.75L555.602,280.165L557.155,278.958L558.709,278.555L560.263,282.662L561.816,282.504L563.37,282.9L564.923,284.894L566.477,281.574L568.031,280.674L569.584,281.687L571.138,279.97L572.691,280.813L574.245,282.07L575.799,283.177L577.352,284.592L578.906,288.466L580.46,289.805L582.013,287.598L583.567,286.649L585.12,283.919L586.674,283.599L588.228,284.951L589.781,285.007L591.335,284.881L592.888,286.271L594.442,286.869L595.996,287.661L597.549,290.183L599.103,285.982L600.656,282.768L602.21,282.85L603.764,282.599L605.317,283.039L606.871,286.076L608.425,285.812L609.978,287.202L611.532,290.17L613.085,288.749L614.639,284.756L616.193,284.397L617.746,281.165L619.3,280.655L620.853,281.196L622.407,279.398L623.961,280.064L625.514,282.215L627.068,283.334L628.621,284.158L630.175,287.045L631.729,286.089L633.282,286.007L634.836,287.963L636.389,286.68L637.943,287.252L639.497,290.384L641.05,290.849L642.604,291.038L644.158,293.107L645.711,293.245L647.265,291.019L648.818,290.906L650.372,289.755L651.926,289.661L653.479,290.843L655.033,289.868L656.586,290.692L658.14,294.295L659.694,296.691L661.247,299.05L662.801,302.188L664.354,301.955L665.908,301.817L667.462,305.099L669.015,305.653L670.569,307.376L672.123,309.916L673.676,311.985L675.23,313.205L676.783,317.224L678.337,315.954L679.891,313.539L681.444,313.778L682.998,312.463L684.551,310.954L686.105,311.753L687.659,311.269L689.212,314.142L690.766,317.041L692.319,318.576L693.873,318.941L695.427,319.695L696.98,317.243L698.534,317.318L700.088,318.098L701.641,316.488L703.195,315.664L704.748,316.079L706.302,313.243L707.856,313.47L709.409,314.199L710.963,314.413L712.516,313.004L714.07,312.457L715.624,310.212L717.177,310.193L718.731,311.803L720.284,310.52L721.838,309.112L723.392,311.696L724.945,313.759L726.499,315.853L728.053,318.456L729.606,318.89L731.16,318.261L732.713,320.192L734.267,318.777L735.821,318.431L737.374,321.399L738.928,322.89L740.481,324.393L742.035,327.286L743.589,327.141L745.142,326.877L746.696,328.147L748.249,328.896L749.803,329.996L751.357,332.159L752.91,332.857L754.464,334.04L756.018,335.04L757.571,335.14L759.125,336.486L760.678,337.725L762.232,335.574L763.786,333.423L765.339,334.914L766.893,334.838L768.446,333.285L770,332.939"/></g></svg>