<?xml version="1.0"?>
<svg xmlns="http://www.w3.org/2000/svg" xmlns:xlink="http://www.w3.org/1999/xlink" class="plot-d6a7b5" fill="currentColor" font-family="system-ui, sans-serif" font-size="10" text-anchor="middle" width="830" height="470" viewBox="0 0 830 470" color="#1e90ff">
  <style>:where(.plot-d6a7b5){--plot-background: white;display:block;height:intrinsic;max-width:100%}:where(.plot-d6a7b5 text),:where(.plot-d6a7b5 tspan){white-space:pre}</style>
  <g aria-label="y-grid" stroke="currentColor" stroke-opacity=".1">
    <line x1="60" x2="770" y1="410" y2="410"/>
    <line x1="60" x2="770" y1="378.557" y2="378.557"/>
    <line x1="60" x2="770" y1="347.114" y2="347.114"/>
    <line x1="60" x2="770" y1="315.671" y2="315.671"/>
    <line x1="60" x2="770" y1="284.227" y2="284.227"/>
    <line x1="60" x2="770" y1="252.784" y2="252.784"/>
    <line x1="60" x2="770" y1="221.341" y2="221.341"/>
    <line x1="60" x2="770" y1="189.898" y2="189.898"/>
    <line x1="60" x2="770" y1="158.455" y2="158.455"/>
    <line x1="60" x2="770" y1="127.012" y2="127.012"/>
    <line x1="60" x2="770" y1="95.568" y2="95.568"/>
    <line x1="60" x2="770" y1="64.125" y2="64.125"/>
  </g>
  <g aria-label="y-axis tick" fill="none" stroke="currentColor">
    <path transform="translate(60,410)" d="M0,0L-6,0"/>
    <path transform="translate(60,378.55684921661634)" d="M0,0L-6,0"/>
    <path transform="translate(60,347.11369843323274)" d="M0,0L-6,0"/>
    <path transform="translate(60,315.6705476498491)" d="M0,0L-6,0"/>
    <path transform="translate(60,284.2273968664655)" d="M0,0L-6,0"/>
    <path transform="translate(60,252.7842460830818)" d="M0,0L-6,0"/>
    <path transform="translate(60,221.34109529969817)" d="M0,0L-6,0"/>
    <path transform="translate(60,189.8979445163145)" d="M0,0L-6,0"/>
    <path transform="translate(60,158.45479373293085)" d="M0,0L-6,0"/>
    <path transform="translate(60,127.01164294954722)" d="M0,0L-6,0"/>
    <path transform="translate(60,95.56849216616357)" d="M0,0L-6,0"/>
    <path transform="translate(60,64.12534138277994)" d="M0,0L-6,0"/>
  </g>
  <g aria-label="y-axis tick label" text-anchor="end" font-variant="tabular-nums">
    <text y=".32em" transform="translate(-9,0) translate(60,410)">0</text>
    <text y=".32em" transform="translate(-9,0) translate(60,378.55684921661634)">5,000</text>
    <text y=".32em" transform="translate(-9,0) translate(60,347.11369843323274)">10,000</text>
    <text y=".32em" transform="translate(-9,0) translate(60,315.6705476498491)">15,000</text>
    <text y=".32em" transform="translate(-9,0) translate(60,284.2273968664655)">20,000</text>
    <text y=".32em" transform="translate(-9,0) translate(60,252.7842460830818)">25,000</text>
    <text y=".32em" transform="translate(-9,0) translate(60,221.34109529969817)">30,000</text>
    <text y=".32em" transform="translate(-9,0) translate(60,189.8979445163145)">35,000</text>
    <text y=".32em" transform="translate(-9,0) translate(60,158.45479373293085)">40,000</text>
    <text y=".32em" transform="translate(-9,0) translate(60,127.01164294954722)">45,000</text>
    <text y=".32em" transform="translate(-9,0) translate(60,95.56849216616357)">50,000</text>
    <text y=".32em" transform="translate(-9,0) translate(60,64.12534138277994)">55,000</text>
  </g>
  <g aria-label="y-axis label" text-anchor="start">
    <text y=".71em" transform="translate(-57,-57) translate(60,60)">&#x2191; Visible Vestiges (30 days)</text>
  </g>
  <g aria-label="x-axis tick" fill="none" stroke="currentColor">
    <path transform="translate(87.5361216730038,410)" d="M0,0L0,6"/>
    <path transform="translate(161.2357414448669,410)" d="M0,0L0,6"/>
    <path transform="translate(235.745247148289,410)" d="M0,0L0,6"/>
    <path transform="translate(310.25475285171103,410)" d="M0,0L0,6"/>
    <path transform="translate(383.95437262357416,410)" d="M0,0L0,6"/>
    <path transform="translate(457.6539923954373,410)" d="M0,0L0,6"/>
    <path transform="translate(532.1634980988593,410)" d="M0,0L0,6"/>
    <path transform="translate(606.6730038022813,410)" d="M0,0L0,6"/>
    <path transform="translate(679.5627376425856,410)" d="M0,0L0,6"/>
    <path transform="translate(753.2623574144486,410)" d="M0,0L0,6"/>
  </g>
  <g aria-label="x-axis tick label" font-variant="tabular-nums">
    <text transform="translate(0,9) translate(87.5361216730038,410)">
      <tspan x="0" y=".71em">Apr</tspan>
      <tspan x="0" dy="1em">2023</tspan>
    </text>
    <text y=".71em" transform="translate(0,9) translate(161.2357414448669,410)">Jul</text>
    <text y=".71em" transform="translate(0,9) translate(235.745247148289,410)">Oct</text>
    <text transform="translate(0,9) translate(310.25475285171103,410)">
      <tspan x="0" y=".71em">Jan</tspan>
      <tspan x="0" dy="1em">2024</tspan>
    </text>
    <text y=".71em" transform="translate(0,9) translate(383.95437262357416,410)">Apr</text>
    <text y=".71em" transform="translate(0,9) translate(457.6539923954373,410)">Jul</text>
    <text y=".71em" transform="translate(0,9) translate(532.1634980988593,410)">Oct</text>
    <text transform="translate(0,9) translate(606.6730038022813,410)">
      <tspan x="0" y=".71em">Jan</tspan>
      <tspan x="0" dy="1em">2025</tspan>
    </text>
    <text y=".71em" transform="translate(0,9) translate(679.5627376425856,410)">Apr</text>
    <text y=".71em" transform="translate(0,9) translate(753.2623574144486,410)">Jul</text>
  </g>
  <g aria-label="line" fill="none" stroke="currentColor" stroke-width="1.5" stroke-linejoin="round" stroke-linecap="round">
    <path d="M60,410L60.54,406.843L61.08,395.297L61.62,389.071L62.16,384.657L62.7,377.375L63.24,371.639L63.779,366.263L64.319,355.383L64.859,346.774L65.399,336.555L65.939,320.727L66.479,305.804L67.019,298.056L67.559,286.843L68.099,279.228L68.639,270.499L69.179,259.085L69.719,251.401L70.259,243.867L70.798,233.642L71.338,222.303L71.878,214.273L72.418,200.57L72.958,194.08L73.498,188.024L74.038,177.101L74.578,166.643L75.118,158.593L75.658,147.374L76.198,139.344L76.738,140.702L77.278,131.137L77.817,123.025L78.357,123.05L78.897,121.226L79.437,120.912L79.977,127.194L80.517,127.276L81.057,129.156L81.597,139.168L82.137,140.639L82.677,134.325L83.217,132.936L83.757,125.282L84.297,123.66L84.837,126.257L85.376,121.93L85.916,119.415L86.456,122.364L86.996,120.597L87.536,115.956L88.076,117.837L88.616,107.379L89.156,97.342L89.696,99.895L90.236,97.933L90.776,94.776L91.316,95.952L91.856,92.921L92.395,89.752L92.935,93.94L93.475,92.519L94.015,86.406L94.555,82.45L95.095,72.653L95.635,67.722L96.175,67.653L96.715,64L97.255,60L97.795,66.113L98.335,70.716L98.875,73.112L99.414,78.866L99.954,76.734L100.494,73.181L101.034,78.143L101.574,78.407L102.114,78.042L102.654,86.123L103.194,91.016L103.734,95.097L104.274,103.825L104.814,109.278L105.354,106.831L105.894,110.806L106.433,110.315L106.973,112.145L107.513,121L108.053,122.037L108.593,125.125L109.133,134.464L109.673,140.117L110.213,144.192L110.753,151.933L111.293,150.82L111.833,150.16L112.373,154.179L112.913,157.065L113.452,158.254L113.992,161.825L114.532,162.373L115.072,166.385L115.612,173.277L116.152,176.572L116.692,173.334L117.232,175.05L117.772,172.315L118.312,170.347L118.852,171.629L119.392,169.957L119.932,171.736L120.471,176.245L121.011,178.874L121.551,180.918L122.091,184.88L122.631,184.898L123.171,182.823L123.711,188.98L124.251,191.036L124.791,190.005L125.331,192.407L125.871,192.363L126.411,194.413L126.951,199.916L127.49,200.696L128.03,197.652L128.57,196.545L129.11,192.237L129.65,191.866L130.19,194.35L130.73,192.445L131.27,191.269L131.81,195.589L132.35,196.451L132.89,197.117L133.43,199.714L133.97,195.413L134.51,193.596L135.049,195.74L135.589,194.753L136.129,192.778L136.669,194.69L137.209,194.948L137.749,194.558L138.289,197.96L138.829,199.035L139.369,199.457L139.909,200.519L140.449,198.557L140.989,198.381L141.529,200.142L142.068,198.174L142.608,197.834L143.148,201.249L143.688,206.789L144.228,208.374L144.768,212.77L145.308,212.701L145.848,213.015L146.388,215.04L146.928,215.216L147.468,214.43L148.008,218.348L148.548,218.109L149.087,219.53L149.627,225.806L150.167,227.529L150.707,228.535L151.247,231.434L151.787,231.761L152.327,232.101L152.867,232.126L153.407,233.453L153.947,232.459L154.487,235.384L155.027,234.818L155.567,235.069L156.106,236.547L156.646,234.755L157.186,234.711L157.726,236.025L158.266,234.516L158.806,233.214L159.346,233.107L159.886,230.453L160.426,229.114L160.966,231.177L161.506,231.227L162.046,230.541L162.586,233.484L163.125,232.56L163.665,233.893L164.205,236.572L164.745,236.899L165.285,236.295L165.825,238.44L166.365,237.673L166.905,237.05L167.445,240.169L167.985,239.566L168.525,239.805L169.065,241.974L169.605,240.666L170.144,239.591L170.684,240.767L171.224,239.402L171.764,240.238L172.304,241.515L172.844,240.408L173.384,240.742L173.924,242.609L174.464,243.1L175.004,241.779L175.544,245.483L176.084,247.816L176.624,246.722L177.163,249.451L177.703,248.527L178.243,247.797L178.783,249.313L179.323,247.275L179.863,247.288L180.403,247.307L180.943,244.93L181.483,243.345L182.023,246.823L182.563,243.798L183.103,242.446L183.643,243.641L184.183,242.056L184.722,241.641L185.262,243.32L185.802,241.59L186.342,240.389L186.882,241.433L187.422,238.635L187.962,238.415L188.502,239.805L189.042,239.176L189.582,236.975L190.122,235.365L190.662,231.258L191.202,229.938L191.741,229.938L192.281,228.435L192.821,227.001L193.361,229.994L193.901,228.139L194.441,227.592L194.981,229.957L195.521,228.63L196.061,228.925L196.601,232.78L197.141,232.176L197.681,229.529L198.221,232.988L198.76,232.793L199.3,230.378L199.84,231.296L200.38,228.177L200.92,227.812L201.46,228.472L202,226.542L202.54,225.806L203.08,228.139L203.62,227.454L204.16,227.215L204.7,230.032L205.24,231.818L205.779,235.126L206.319,241.546L206.859,242.71L207.399,242.194L207.939,243.892L208.479,244.244L209.019,242.917L209.559,244.634L210.099,245.118L210.639,244.005L211.179,246.087L211.719,246.961L212.259,246.118L212.798,247.37L213.338,247.118L213.878,247.231L214.418,248.464L214.958,251.011L215.498,253.734L216.038,257.796L216.578,259.299L217.118,262.268L217.658,267.324L218.198,266.204L218.738,266.89L219.278,269.047L219.817,268.323L220.357,269.455L220.897,271.38L221.437,272.153L221.977,274.027L222.517,275.48L223.057,276.876L223.597,277.234L224.137,277.354L224.677,274.631L225.217,272.317L225.757,273.662L226.297,273.681L226.837,274.474L227.376,275.216L227.916,275.48L228.456,276.624L228.996,279.706L229.536,279.14L230.076,278.436L230.616,279.448L231.156,277.555L231.696,278.75L232.236,280.165L232.776,278.958L233.316,278.555L233.856,282.662L234.395,282.504L234.935,282.9L235.475,284.894L236.015,281.574L236.555,280.674L237.095,281.687L237.635,279.97L238.175,280.813L238.715,282.07L239.255,283.177L239.795,284.592L240.335,288.466L240.875,289.805L241.414,287.598L241.954,286.649L242.494,283.919L243.034,283.599L243.574,284.951L244.114,285.007L244.654,284.881L245.194,286.271L245.734,286.869L246.274,287.661L246.814,290.183L247.354,285.982L247.894,282.768L248.433,282.85L248.973,282.599L249.513,283.039L250.053,286.076L250.593,285.812L251.133,287.202L251.673,290.17L252.213,288.749L252.753,284.756L253.293,284.397L253.833,281.165L254.373,280.655L254.913,281.196L255.452,279.398L255.992,280.064L256.532,282.215L257.072,283.334L257.612,284.158L258.152,287.045L258.692,286.089L259.232,286.007L259.772,287.963L260.312,286.68L260.852,287.252L261.392,290.384L261.932,290.849L262.471,291.038L263.011,293.107L263.551,293.245L264.091,291.019L264.631,290.906L265.171,289.755L265.711,289.661L266.251,290.843L266.791,289.868L267.331,290.692L267.871,294.295L268.411,296.691L268.951,299.05L269.49,302.188L270.03,301.955L270.57,301.817L271.11,305.099L271.65,305.653L272.19,307.376L272.73,309.916L273.27,311.985L273.81,313.205L274.35,317.224L274.89,315.954L275.43,313.539L275.97,313.778L276.51,312.463L277.049,310.954L277.589,311.753L278.129,311.269L278.669,314.142L279.209,317.041L279.749,318.576L280.289,318.941L280.829,319.695L281.369,317.243L281.909,317.318L282.449,318.098L282.989,316.488L283.529,315.664L284.068,316.079L284.608,313.243L285.148,313.47L285.688,314.199L286.228,314.413L286.768,313.004L287.308,312.457L287.848,310.212L288.388,310.193L288.928,311.803L289.468,310.52L290.008,309.112L290.548,311.696L291.087,313.759L291.627,315.853L292.167,318.456L292.707,318.89L293.247,318.261L293.787,320.192L294.327,318.777L294.867,318.431L295.407,321.399L295.947,322.89L296.487,324.393L297.027,327.286L297.567,327.141L298.106,326.877L298.646,328.147L299.186,328.896L299.726,329.996L300.266,332.159L300.806,332.857L301.346,334.04L301.886,335.04L302.426,335.14L302.966,336.486L303.506,337.725L304.046,335.574L304.586,333.423L305.125,334.914L305.665,334.838L306.205,333.285L306.745,332.939L307.285,331.612L307.825,330.663L308.365,330.468L308.905,329.462L309.445,328.103L309.985,328.946L310.525,328.858L311.065,327.355L311.605,326.764L312.144,324.185L312.684,323.487L313.224,325.028L313.764,324.443L314.304,325.556L314.844,325.475L315.384,323.928L315.924,324.953L316.464,324.971L317.004,323.72L317.544,323.978L318.084,325.563L318.624,325.833L319.163,327.078L319.703,328.889L320.243,328.921L320.783,327.499L321.323,326.393L321.863,325.374L322.403,326.141L322.943,327.361L323.483,327.757L324.023,327.562L324.563,327.537L325.103,327.606L325.643,328.286L326.183,328.411L326.722,327.361L327.262,324.449L327.802,325.204L328.342,323.462L328.882,322.959L329.422,324.795L329.962,323.198L330.502,324.374L331.042,326.468L331.582,323.689L332.122,320.764L332.662,319.865L333.202,316.243L333.741,315.086L334.281,314.4L334.821,312.677L335.361,312.206L335.901,313.124L336.441,312.287L336.981,313.809L337.521,314.463L338.061,310.577L338.601,308.891L339.141,308.3L339.681,307.168L340.221,307.948L340.76,308.583L341.3,305.967L341.84,305.552L342.38,305.376L342.92,306.866L343.46,305.54L344,303.401L344.54,298.892L345.08,297.358L345.62,296.446L346.16,291.975L346.7,289.969L347.24,291.893L347.779,293.447L348.319,294.151L348.859,296.371L349.399,294.22L349.939,292.264L350.479,293.497L351.019,292.503L351.559,291.635L352.099,291.717L352.639,290.214L353.179,291.918L353.719,294.503L354.259,293.579L354.798,291.874L355.338,293.239L355.878,291.384L356.418,291.151L356.958,292.692L357.498,292.918L358.038,294.811L358.578,296.214L359.118,297.408L359.658,300.949L360.198,305.024L360.738,303.445L361.278,304.401L361.817,307.615L362.357,309.244L362.897,310.03L363.437,310.96L363.977,311.501L364.517,313.092L365.057,316.237L365.597,316.425L366.137,315.57L366.677,317.538L367.217,316.947L367.757,318.111L368.297,320.846L368.837,320.771L369.376,320.984L369.916,323.72L370.456,325.179L370.996,324.764L371.536,326.21L372.076,323.349L372.616,322.802L373.156,323.965L373.696,325.846L374.236,328.525L374.776,332.122L375.316,334.97L375.856,337.832L376.395,343.158L376.935,346.101L377.475,348.384L378.015,350.472L378.555,352.49L379.095,355.006L379.635,357.113L380.175,358.358L380.715,359.886L381.255,363.244L381.795,364.653L382.335,363.414L382.875,365.225L383.414,365.961L383.954,365.269L384.494,365.898L385.034,367.08L385.574,366.885L386.114,367.841L386.654,368.652L387.194,369.193L387.734,371.941L388.274,372.507L388.814,372.507L389.354,371.117L389.894,368.545L390.433,365.759L390.973,364.571L391.513,362.785L392.053,360.131L392.593,358.666L393.133,357.352L393.673,355.188L394.213,353.427L394.753,351.006L395.293,349.246L395.833,348.252L396.373,346.655L396.913,345.806L397.452,345.391L397.992,347.504L398.532,348.252L399.072,349.459L399.612,349.755L400.152,349.868L400.692,349.793L401.232,349.396L401.772,349.837L402.312,351.384L402.852,351.623L403.392,352.163L403.932,353.446L404.471,353.905L405.011,353.056L405.551,353.843L406.091,354.094L406.631,353.566L407.171,354.05L407.711,354.698L408.251,353.937L408.791,353.151L409.331,353.975L409.871,353.736L410.411,354.679L410.951,354.717L411.49,352.855L412.03,352.522L412.57,351.22L413.11,351.22L413.65,350.881L414.19,350.239L414.73,349.007L415.27,348.812L415.81,348.101L416.35,347.522L416.89,348.843L417.43,347.705L417.97,346.246L418.51,346.711L419.049,345.56L419.589,345.567L420.129,346.07L420.669,347.617L421.209,347.906L421.749,348.51L422.289,348.132L422.829,345.001L423.369,344.844L423.909,343.743L424.449,344.529L424.989,344.535L425.529,344.755L426.068,343.737L426.608,345.057L427.148,346.227L427.688,346.372L428.228,347.441L428.768,346.019L429.308,343.655L429.848,343.756L430.388,342.46L430.928,342.668L431.468,342.951L432.008,341.85L432.548,340.756L433.087,341.9L433.627,341.517L434.167,340.404L434.707,341.794L435.247,339.548L435.787,339.115L436.327,338.385L436.867,337.266L437.407,336.467L437.947,336.719L438.487,338.09L439.027,337.882L439.567,338.737L440.106,336.605L440.646,334.442L441.186,333.681L441.726,333.952L442.266,331.505L442.806,331.537L443.346,331.719L443.886,331.883L444.426,332.329L444.966,333.901L445.506,333.449L446.046,334.568L446.586,333.706L447.125,333.084L447.665,336.065L448.205,337.586L448.745,337.549L449.285,339.102L449.825,338.75L450.365,338.398L450.905,340.97L451.445,340.825L451.985,338.417L452.525,339.63L453.065,340.24L453.605,339.215L454.144,340.14L454.684,341.139L455.224,341.781L455.764,344.334L456.304,346.441L456.844,347.277L457.384,347.938L457.924,347.887L458.464,347.516L459.004,347.982L459.544,346.856L460.084,347.378L460.624,347.504L461.163,348.34L461.703,348.975L462.243,350.17L462.783,350.793L463.323,349.264L463.863,349.497L464.403,350.032L464.943,350.032L465.483,352.258L466.023,352.692L466.563,352.163L467.103,351.931L467.643,353.786L468.183,353.912L468.722,354.654L469.262,355.283L469.802,355.459L470.342,355.622L470.882,355.251L471.422,354.333L471.962,354.283L472.502,354.138L473.042,353.975L473.582,355.213L474.122,354.591L474.662,352.069L475.202,352.503L475.741,351.918L476.281,352.226L476.821,352.038L477.361,351.164L477.901,350.635L478.441,351.365L478.981,352.031L479.521,351.302L480.061,350.761L480.601,350.201L481.141,348.68L481.681,348.258L482.221,346.894L482.76,345.913L483.3,345.032L483.84,343.045L484.38,341.511L484.92,340.404L485.46,338.781L486,338.215L486.54,338.083L487.08,335.844L487.62,335.241L488.16,335.178L488.7,334.43L489.24,334.7L489.779,336.744L490.319,335.071L490.859,332.618L491.399,330.361L491.939,326.864L492.479,324.349L493.019,323.751L493.559,320.639L494.099,316.884L494.639,315.425L495.179,314.205L495.719,312.545L496.259,311.306L496.798,310.558L497.338,308.583L497.878,309.275L498.418,310.809L498.958,311.048L499.498,312.639L500.038,313.753L500.578,314.727L501.118,316.086L501.658,315.268L502.198,314.476L502.738,315.62L503.278,315.425L503.817,314.991L504.357,315.62L504.897,315.639L505.437,315.3L505.977,320.142L506.517,324.041L507.057,327.613L507.597,331.298L508.137,334.461L508.677,335.681L509.217,339.278L509.757,342.907L510.297,344.73L510.837,346.057L511.376,348.321L511.916,349.22L512.456,351.17L512.996,353.346L513.536,354.566L514.076,354.037L514.616,354.798L515.156,354.509L515.696,354.792L516.236,355.314L516.776,356.188L517.316,357.251L517.856,359.402L518.395,361.313L518.935,362.364L519.475,363.678L520.015,363.829L520.555,364.106L521.095,364.011L521.635,363.571L522.175,363.005L522.715,362.948L523.255,362.716L523.795,362.659L524.335,362.37L524.875,360.691L525.414,359.364L525.954,356.748L526.494,356.698L527.034,356.1L527.574,356.49L528.114,356.974L528.654,356.767L529.194,356.132L529.734,356.207L530.274,355.704L530.814,352.799L531.354,352.17L531.894,352.635L532.433,350.994L532.973,350.761L533.513,350.811L534.053,350.069L534.593,349.786L535.133,349.623L535.673,349.321L536.213,348.315L536.753,347.139L537.293,344.875L537.833,345.158L538.373,345.409L538.913,345.548L539.452,345.202L539.992,346.504L540.532,348.39L541.072,349.629L541.612,352.767L542.152,352.968L542.692,353.56L543.232,354.585L543.772,354.585L544.312,355.943L544.852,356.823L545.392,357.138L545.932,358.402L546.471,362.181L547.011,362.005L547.551,361.571L548.091,362.942L548.631,362.313L549.171,362.603L549.711,363.716L550.251,363.785L550.791,364.156L551.331,365.489L551.871,366.873L552.411,368.659L552.951,371.382L553.49,370.463L554.03,370.268L554.57,371.545L555.11,372.507L555.65,372.507L556.19,372.275L556.73,372.608L557.27,371.495L557.81,371.985L558.35,371.243L558.89,369.319L559.43,368.426L559.97,365.973L560.51,364.911L561.049,365.25L561.589,365.37L562.129,365.137L562.669,365.873L563.209,366.476L563.749,367.074L564.289,367.64L564.829,366.476L565.369,365.357L565.909,365.904L566.449,364.992L566.989,365.244L567.529,365.602L568.068,364.584L568.608,364.389L569.148,365.539L569.688,365.634L570.228,364.439L570.768,363.496L571.308,362.703L571.848,363.018L572.388,362.892L572.928,363.175L573.468,362.754L574.008,363.496L574.548,364.602L575.087,365.489L575.627,367.237L576.167,367.269L576.707,366.483L577.247,366.986L577.787,367.086L578.327,367.244L578.867,367.539L579.407,367.3L579.947,368.155L580.487,369.47L581.027,370.224L581.567,370.652L582.106,372.18L582.646,372.061L583.186,371.771L583.726,372.979L584.266,373.45L584.806,373.312L585.346,372.57L585.886,372.922L586.426,372.551L586.966,373.488L587.506,373.394L588.046,373.928L588.586,374.387L589.125,374.658L589.665,375.394L590.205,376.375L590.745,376.199L591.285,376.544L591.825,377.746L592.365,378.073L592.905,377.06L593.445,377.331L593.985,376.972L594.525,376.922L595.065,376.419L595.605,376.085L596.144,375.979L596.684,376.45L597.224,375.74L597.764,374.991L598.304,374.626L598.844,373.627L599.384,373.595L599.924,372.671L600.464,372.671L601.004,373.702L601.544,374.224L602.084,375.117L602.624,375.092L603.163,375.167L603.703,374.922L604.243,374.356L604.783,374.079L605.323,371.677L605.863,370.375L606.403,370.099L606.943,369.181L607.483,368.703L608.023,369.199L608.563,368.652L609.103,367.124L609.643,367.596L610.183,366.288L610.722,366.709L611.262,367.218L611.802,366.288L612.342,365.998L612.882,366.156L613.422,366.42L613.962,365.904L614.502,367.049L615.042,366.458L615.582,366.885L616.122,366.803L616.662,366.866L617.202,366.564L617.741,366.59L618.281,366.219L618.821,365.565L619.361,365.439L619.901,365.036L620.441,365.181L620.981,366.841L621.521,367.3L622.061,367.388L622.601,367.671L623.141,367.3L623.681,367.388L624.221,369.036L624.76,369.904L625.3,369.828L625.84,370.86L626.38,370.614L626.92,369.602L627.46,368.558L628,366.319L628.54,365.124L629.08,364.653L629.62,364.967L630.16,364.923L630.7,364.911L631.24,364.319L631.779,364.602L632.319,364.697L632.859,363.47L633.399,362.42L633.939,362.533L634.479,362.395L635.019,362.118L635.559,362.873L636.099,362.672L636.639,362.024L637.179,361.339L637.719,361.433L638.259,361.653L638.798,362.508L639.338,362.546L639.878,362.206L640.418,363.37L640.958,362.577L641.498,362.892L642.038,362.986L642.578,362.873L643.118,363.873L643.658,364.898L644.198,365.118L644.738,364.904L645.278,364.854L645.817,363.489L646.357,363.489L646.897,363.942L647.437,362.879L647.977,362.408L648.517,363.143L649.057,362.961L649.597,362.886L650.137,363.47L650.677,363.03L651.217,363.118L651.757,362.206L652.297,362.898L652.837,363.03L653.376,362.653L653.916,362.98L654.456,362.93L654.996,362.728L655.536,360.93L656.076,358.59L656.616,358.955L657.156,357.446L657.696,357.408L658.236,357.521L658.776,356.333L659.316,356.49L659.856,356.823L660.395,356.477L660.935,356.716L661.475,357.635L662.015,357.458L662.555,357.163L663.095,357.911L663.635,357.622L664.175,357.936L664.715,358.641L665.255,357.452L665.795,356.93L666.335,357.792L666.875,358.062L667.414,359.2L667.954,359.288L668.494,360.351L669.034,361.471L669.574,361.829L670.114,361.534L670.654,362.307L671.194,364.357L671.734,365.892L672.274,366.47L672.814,367.841L673.354,367.678L673.894,368.646L674.433,370.011L674.973,371.218L675.513,371.149L676.053,372.155L676.593,371.834L677.133,372.784L677.673,373.488L678.213,373.023L678.753,373.369L679.293,373.777L679.833,374.501L680.373,375.174L680.913,375.985L681.452,376.809L681.992,377.004L682.532,377.733L683.072,378.085L683.612,378.922L684.152,379.236L684.692,379.431L685.232,378.871L685.772,378.808L686.312,378.148L686.852,378.576L687.392,379.054L687.932,379.657L688.471,380.33L689.011,381.814L689.551,381.494L690.091,382.047L690.631,381.946L691.171,383.443L691.711,383.512L692.251,384.355L692.791,383.77L693.331,384.179L693.871,385.701L694.411,386.292L694.951,386.455L695.49,385.965L696.03,386.059L696.57,386.87L697.11,387.128L697.65,387.506L698.19,387.367L698.73,388.046L699.27,388.204L699.81,388.581L700.35,388.399L700.89,389.669L701.43,390.713L701.97,391.92L702.51,392.04L703.049,392.643L703.589,393.121L704.129,393.323L704.669,393.417L705.209,394.524L705.749,395.077L706.289,395.467L706.829,395.624L707.369,396.027L707.909,396.731L708.449,397.423L708.989,397.322L709.529,397.366L710.068,397.574L710.608,397.699L711.148,398.429L711.688,398.945L712.228,399.265L712.768,399.441L713.308,399.479L713.848,399.794L714.388,399.926L714.928,399.976L715.468,400.246L716.008,400.699L716.548,400.347L717.087,400.328L717.627,400.146L718.167,399.875L718.707,399.309L719.247,398.989L719.787,398.731L720.327,398.353L720.867,398.303L721.407,398.127L721.947,398.039L722.487,397.926L723.027,397.372L723.567,396.567L724.106,396.53L724.646,396.165L725.186,396.354L725.726,396.36L726.266,397.077L726.806,396.775L727.346,395.951L727.886,396.064L728.426,395.624L728.966,395.404L729.506,395.171L730.046,394.932L730.586,394.907L731.125,394.706L731.665,394.555L732.205,394.354L732.745,394.165L733.285,393.756L733.825,393.763L734.365,394.373L734.905,394.115L735.445,394.203L735.985,394.461L736.525,394.599L737.065,394.794L737.605,395.197L738.144,395.127L738.684,395.492L739.224,396.121L739.764,396.215L740.304,396.794L740.844,396.901L741.384,396.957L741.924,396.945L742.464,397.385L743.004,397.957L743.544,397.92L744.084,398.498L744.624,398.316L745.163,398.114L745.703,398.102L746.243,397.8L746.783,397.46L747.323,397.266L747.863,397.643L748.403,397.731L748.943,397.844L749.483,397.957L750.023,397.787L750.563,398.001L751.103,397.498L751.643,397.611L752.183,397.486L752.722,397.354L753.262,396.806L753.802,396.876L754.342,396.511L754.882,396.108L755.422,396.171L755.962,395.19L756.502,394.649L757.042,394.58L757.582,394.071L758.122,394.071L758.662,394.065L759.202,394.304L759.741,394.266L760.281,394.907L760.821,395.272L761.361,395.215L761.901,395.366L762.441,395.473L762.981,395.53L763.521,394.75L764.061,394.876L764.601,395.039L765.141,395.354L765.681,395.109L766.221,395.14L766.76,395.134L767.3,395.083L767.84,394.832L768.38,394.58L768.92,394.819L769.46,394.964L770,395.247"/>
  </g>
</svg>
