<svg class="plot-d6a7b5" fill="currentColor" font-family="system-ui, sans-serif" font-size="10" text-anchor="middle" width="830" height="470" viewBox="0 0 830 470" xmlns="http://www.w3.org/2000/svg" xmlns:xlink="http://www.w3.org/1999/xlink" color="#1e90ff"><style>:where(.plot-d6a7b5){--plot-background: white;display:block;height:intrinsic;max-width:100%}:where(.plot-d6a7b5 text),:where(.plot-d6a7b5 tspan){white-space:pre}</style><g aria-label="y-grid" stroke="currentColor" stroke-opacity=".1"><line x1="60" x2="770" y1="410" y2="410"/><line x1="60" x2="770" y1="374.034" y2="374.034"/><line x1="60" x2="770" y1="338.068" y2="338.068"/><line x1="60" x2="770" y1="302.103" y2="302.103"/><line x1="60" x2="770" y1="266.137" y2="266.137"/><line x1="60" x2="770" y1="230.171" y2="230.171"/><line x1="60" x2="770" y1="194.205" y2="194.205"/><line x1="60" x2="770" y1="158.24" y2="158.24"/><line x1="60" x2="770" y1="122.274" y2="122.274"/><line x1="60" x2="770" y1="86.308" y2="86.308"/></g><g aria-label="y-axis tick" fill="none" stroke="currentColor"><path transform="translate(60,410)" d="M0,0L-6,0"/><path transform="translate(60,374.034247617012)" d="M0,0L-6,0"/><path transform="translate(60,338.068495234024)" d="M0,0L-6,0"/><path transform="translate(60,302.10274285103606)" d="M0,0L-6,0"/><path transform="translate(60,266.136990468048)" d="M0,0L-6,0"/><path transform="translate(60,230.17123808506005)" d="M0,0L-6,0"/><path transform="translate(60,194.20548570207202)" d="M0,0L-6,0"/><path transform="translate(60,158.23973331908405)" d="M0,0L-6,0"/><path transform="translate(60,122.27398093609605)" d="M0,0L-6,0"/><path transform="translate(60,86.30822855310807)" d="M0,0L-6,0"/></g><g aria-label="y-axis tick label" text-anchor="end" font-variant="tabular-nums"><text y=".32em" transform="translate(-9,0) translate(60,410)">0</text><text y=".32em" transform="translate(-9,0) translate(60,374.034247617012)">50,000</text><text y=".32em" transform="translate(-9,0) translate(60,338.068495234024)">100,000</text><text y=".32em" transform="translate(-9,0) translate(60,302.10274285103606)">150,000</text><text y=".32em" transform="translate(-9,0) translate(60,266.136990468048)">200,000</text><text y=".32em" transform="translate(-9,0) translate(60,230.17123808506005)">250,000</text><text y=".32em" transform="translate(-9,0) translate(60,194.20548570207202)">300,000</text><text y=".32em" transform="translate(-9,0) translate(60,158.23973331908405)">350,000</text><text y=".32em" transform="translate(-9,0) translate(60,122.27398093609605)">400,000</text><text y=".32em" transform="translate(-9,0) translate(60,86.30822855310807)">450,000</text></g><g aria-label="y-axis label" text-anchor="start"><text y=".71em" transform="translate(-57,-57) translate(60,60)">↑ Total Vestiges</text></g><g aria-label="x-axis tick" fill="none" stroke="currentColor"><path transform="translate(65.91666666666667,410)" d="M0,0L0,6"/><path transform="translate(127.05555555555554,410)" d="M0,0L0,6"/><path transform="translate(186.22222222222223,410)" d="M0,0L0,6"/><path transform="translate(247.36111111111114,410)" d="M0,0L0,6"/><path transform="translate(306.52777777777777,410)" d="M0,0L0,6"/><path transform="translate(367.6666666666667,410)" d="M0,0L0,6"/><path transform="translate(428.80555555555554,410)" d="M0,0L0,6"/><path transform="translate(487.9722222222222,410)" d="M0,0L0,6"/><path transform="translate(549.1111111111111,410)" d="M0,0L0,6"/><path transform="translate(608.2777777777777,410)" d="M0,0L0,6"/><path transform="translate(669.4166666666666,410)" d="M0,0L0,6"/><path transform="translate(730.5555555555555,410)" d="M0,0L0,6"/></g><g aria-label="x-axis tick label" font-variant="tabular-nums"><text transform="translate(0,9) translate(65.91666666666667,410)"><tspan x="0" y=".71em">Mar</tspan><tspan x="0" dy="1em">2023</tspan></text><text y=".71em" transform="translate(0,9) translate(127.05555555555554,410)">Apr</text><text y=".71em" transform="translate(0,9) translate(186.22222222222223,410)">May</text><text y=".71em" transform="translate(0,9) translate(247.36111111111114,410)">Jun</text><text y=".71em" transform="translate(0,9) translate(306.52777777777777,410)">Jul</text><text y=".71em" transform="translate(0,9) translate(367.6666666666667,410)">Aug</text><text y=".71em" transform="translate(0,9) translate(428.80555555555554,410)">Sep</text><text y=".71em" transform="translate(0,9) translate(487.9722222222222,410)">Oct</text><text y=".71em" transform="translate(0,9) translate(549.1111111111111,410)">Nov</text><text y=".71em" transform="translate(0,9) translate(608.2777777777777,410)">Dec</text><text transform="translate(0,9) translate(669.4166666666666,410)"><tspan x="0" y=".71em">Jan</tspan><tspan x="0" dy="1em">2024</tspan></text><text y=".71em" transform="translate(0,9) translate(730.5555555555555,410)">Feb</text></g><g aria-label="line" fill="none" stroke="currentColor" stroke-width="1.5" stroke-linejoin="round" stroke-linecap="round"><path d="M60,410L61.315,409.639L62.63,408.318L63.944,407.606L65.259,407.101L66.574,406.268L67.889,405.612L69.204,404.997L70.519,403.753L71.833,402.768L73.148,401.599L74.463,399.789L75.778,398.082L77.093,397.195L78.407,395.913L79.722,395.042L81.037,394.043L82.352,392.738L83.667,391.859L84.981,390.997L86.296,389.828L87.611,388.531L88.926,387.612L90.241,386.045L91.556,385.302L92.87,384.61L94.185,383.36L95.5,382.164L96.815,381.243L98.13,379.96L99.444,378.68L100.759,377.515L102.074,375.709L103.389,374.276L104.704,373.446L106.019,372.581L107.333,371.93L108.648,371.404L109.963,370.429L111.278,369.475L112.593,368.81L113.907,367.271L115.222,365.663L116.537,364.221L117.852,362.475L119.167,361.291L120.481,360.282L121.796,358.908L123.111,357.759L124.426,356.927L125.741,355.428L127.056,353.978L128.37,352.626L129.685,350.687L131,348.847L132.315,347.889L133.63,346.469L134.944,345.187L136.259,344.038L137.574,342.412L138.889,340.884L140.204,339.557L141.519,337.961L142.833,336.432L144.148,335.115L145.463,333.343L146.778,332.254L148.093,331.27L149.407,329.899L150.722,328.776L152.037,327.936L153.352,326.854L154.667,325.687L155.981,324.599L157.296,323.171L158.611,321.756L159.926,320.95L161.241,319.83L162.556,318.956L163.87,318.382L165.185,317.492L166.5,316.606L167.815,315.666L169.13,314.449L170.444,313.212L171.759,312.246L173.074,310.908L174.389,309.968L175.704,309.355L177.019,307.946L178.333,306.972L179.648,306.445L180.963,305.562L182.278,304.711L183.593,303.825L184.907,302.608L186.222,301.549L187.537,300.637L188.852,299.844L190.167,299.141L191.481,298.467L192.796,297.362L194.111,296.733L195.426,296.094L196.741,295.056L198.056,293.879L199.37,292.956L200.685,291.769L202,290.969L203.315,290.226L204.63,289.149L205.944,288.413L207.259,287.711L208.574,286.775L209.889,286.043L211.204,285.158L212.519,284.221L213.833,283.37L215.148,282.665L216.463,281.926L217.778,281.281L219.093,280.673L220.407,279.817L221.722,279.165L223.037,278.578L224.352,277.608L225.667,276.348L226.981,275.428L228.296,274.232L229.611,273.516L230.926,272.696L232.241,271.848L233.556,271.074L234.87,270.531L236.185,269.452L237.5,268.606L238.815,267.716L240.13,266.424L241.444,265.473L242.759,264.642L244.074,263.792L245.389,262.865L246.704,262.147L248.019,261.444L249.333,260.515L250.648,259.967L251.963,259.239L253.278,258.582L254.593,257.965L255.907,257.095L257.222,256.467L258.537,255.813L259.852,254.936L261.167,254.309L262.481,253.73L263.796,253.104L265.111,252.366L266.426,251.672L267.741,250.949L269.056,250.164L270.37,249.548L271.685,248.794L273,248.161L274.315,247.53L275.63,246.657L276.944,245.929L278.259,245.355L279.574,244.601L280.889,243.885L282.204,243.367L283.519,242.477L284.833,241.798L286.148,241.098L287.463,240.321L288.778,239.659L290.093,239.266L291.407,238.544L292.722,237.956L294.037,237.255L295.352,236.422L296.667,235.762L297.981,235.036L299.296,234.237L300.611,233.509L301.926,232.87L303.241,231.829L304.556,230.982L305.87,230.494L307.185,229.715L308.5,229.021L309.815,228.604L311.13,227.864L312.444,227.387L313.759,226.819L315.074,226.129L316.389,225.486L317.704,224.978L319.019,224.174L320.333,223.584L321.648,223.051L322.963,222.303L324.278,221.631L325.593,221.101L326.907,220.29L328.222,219.774L329.537,219.187L330.852,218.442L332.167,217.837L333.481,217.15L334.796,216.364L336.111,215.676L337.426,215.09L338.741,214.418L340.056,213.628L341.37,213.011L342.685,212.431L344,211.818L345.315,211.351L346.63,210.551L347.944,210.051L349.259,209.484L350.574,208.774L351.889,208.208L353.204,207.52L354.519,206.605L355.833,205.915L357.148,205.509L358.463,204.574L359.778,203.886L361.093,203.275L362.407,202.421L363.722,201.844L365.037,201.225L366.352,200.51L367.667,199.786L368.981,199.161L370.296,198.236L371.611,197.524L372.926,196.896L374.241,196.136L375.556,195.299L376.87,194.443L378.185,193.183L379.5,192.414L380.815,191.835L382.13,191.05L383.444,190.419L384.759,189.962L386.074,189.249L387.389,188.62L388.704,188.18L390.019,187.462L391.333,186.808L392.648,186.334L393.963,185.575L395.278,184.866L396.593,184.326L397.907,183.616L399.222,182.729L400.537,181.98L401.852,181.046L403.167,180.385L404.481,179.747L405.796,178.801L407.111,178.092L408.426,177.434L409.741,176.643L411.056,175.989L412.37,175.551L413.685,174.918L415,174.44L416.315,173.915L417.63,173.279L418.944,172.64L420.259,172.05L421.574,171.459L422.889,170.85L424.204,170.334L425.519,169.76L426.833,169.193L428.148,168.713L429.463,168.159L430.778,167.589L432.093,166.973L433.407,166.235L434.722,165.708L436.037,165.139L437.352,164.543L438.667,164.106L439.981,163.637L441.296,163.148L442.611,162.848L443.926,162.482L445.241,161.644L446.556,161.064L447.87,160.521L449.185,159.783L450.5,159.475L451.815,159.062L453.13,158.673L454.444,158.362L455.759,157.892L457.074,157.413L458.389,156.864L459.704,156.287L461.019,155.366L462.333,154.585L463.648,154.166L464.963,153.6L466.278,153.211L467.593,152.742L468.907,152.202L470.222,151.717L471.537,151.331L472.852,150.74L474.167,150.091L475.481,149.61L476.796,148.956L478.111,148.624L479.426,148.297L480.741,147.859L482.056,147.446L483.37,147.079L484.685,146.481L486,145.983L487.315,145.473L488.63,144.785L489.944,144.269L491.259,143.996L492.574,143.489L493.889,143.115L495.204,142.78L496.519,142.357L497.833,141.942L499.148,141.465L500.463,140.837L501.778,140.165L503.093,139.491L504.407,138.789L505.722,138.284L507.037,137.898L508.352,137.42L509.667,137.02L510.981,136.588L512.296,136.006L513.611,135.617L514.926,135.251L516.241,134.438L517.556,133.743L518.87,133.315L520.185,132.874L521.5,132.557L522.815,132.306L524.13,131.778L525.444,131.427L526.759,131.078L528.074,130.4L529.389,129.67L530.704,129.122L532.019,128.379L533.333,127.985L534.648,127.624L535.963,127.003L537.278,126.602L538.593,126.22L539.907,125.676L541.222,125.097L542.537,124.725L543.852,124.11L545.167,123.715L546.481,123.461L547.796,122.914L549.111,122.547L550.426,122.324L551.741,121.988L553.056,121.644L554.37,121.068L555.685,120.389L557,119.706L558.315,119.251L559.63,118.803L560.944,118.541L562.259,118.148L563.574,117.686L564.889,117.432L566.204,117.165L567.519,116.709L568.833,116.431L570.148,116.047L571.463,115.627L572.778,115.25L574.093,115.005L575.407,114.667L576.722,114.482L578.037,114.228L579.352,113.885L580.667,113.654L581.981,113.498L583.296,112.958L584.611,112.427L585.926,111.908L587.241,111.391L588.556,110.995L589.87,110.75L591.185,110.351L592.5,110.103L593.815,109.756L595.13,109.249L596.444,108.836L597.759,108.473L599.074,107.932L600.389,107.547L601.704,107.174L603.019,106.735L604.333,106.375L605.648,105.966L606.963,105.364L608.278,105.005L609.593,104.669L610.907,104.316L612.222,103.91L613.537,103.509L614.852,103.068L616.167,102.812L617.481,102.653L618.796,102.275L620.111,101.958L621.426,101.714L622.741,101.419L624.056,101.139L625.37,100.92L626.685,100.574L628,100.256L629.315,100.078L630.63,99.669L631.944,99.282L633.259,99.114L634.574,98.872L635.889,98.681L637.204,98.47L638.519,98.069L639.833,97.666L641.148,97.373L642.463,97.098L643.778,96.815L645.093,96.46L646.407,96.182L647.722,95.98L649.037,95.742L650.352,95.347L651.667,95.1L652.981,94.8L654.296,94.299L655.611,93.894L656.926,93.686L658.241,93.361L659.556,92.939L660.87,92.604L662.185,92.173L663.5,91.845L664.815,91.477L666.13,91.044L667.444,90.71L668.759,90.398L670.074,90L671.389,89.661L672.704,89.351L674.019,88.865L675.333,88.575L676.648,88.35L677.963,87.88L679.278,87.714L680.593,87.43L681.907,86.97L683.222,86.732L684.537,86.456L685.852,86.111L687.167,85.903L688.481,85.689L689.796,85.473L691.111,85.316L692.426,85.021L693.741,84.62L695.056,84.25L696.37,83.798L697.685,83.259L699,83.012L700.315,82.72L701.63,82.438L702.944,82.047L704.259,81.612L705.574,81.286L706.889,81.051L708.204,80.668L709.519,80.208L710.833,79.565L712.148,79.166L713.463,78.676L714.778,78.394L716.093,78.134L717.407,77.785L718.722,77.635L720.037,77.415L721.352,76.859L722.667,76.249L723.981,75.801L725.296,75.178L726.611,74.832L727.926,74.538L729.241,74.183L730.556,73.835L731.87,73.539L733.185,73.073L734.5,72.795L735.815,72.331L737.13,71.64L738.444,71.155L739.759,70.805L741.074,70.285L742.389,69.939L743.704,69.686L745.019,69.151L746.333,68.721L747.648,68.241L748.963,67.769L750.278,67.218L751.593,66.483L752.907,65.685L754.222,65.25L755.537,64.796L756.852,64.135L758.167,63.686L759.481,63.35L760.796,62.917L762.111,62.55L763.426,62.181L764.741,61.589L766.056,61.071L767.37,60.857L768.685,60.396L770,60"/></g></svg>