<svg xmlns="http://www.w3.org/2000/svg" width="830" height="470" fill="currentColor" class="plot-d6a7b5" font-family="system-ui, sans-serif" font-size="10" style="--plot-background:white;display:block;height:intrinsic;max-width:100%;color:#1e90ff" text-anchor="middle" viewBox="0 0 830 470">
    <style>
        :where(.plot-d6a7b5 text),:where(.plot-d6a7b5 tspan){white-space:pre}
    </style>
    <path stroke="currentColor" stroke-opacity=".1" d="
M60
410
h710
M60
362.919
h710
M60
315.838
h710
M60
268.757
h710
M60
221.676
h710
M60
174.595
h710
M60
127.514
h710
M60
80.433
h710" aria-hidden="true" aria-label="y-grid"/>
    <path fill="none" stroke="currentColor" d="
M60
410
h-6
m6
-47.081
h-6
m6
-47.081
h-6
m6
-47.081
h-6
m6
-47.081
h-6
m6
-47.081
h-6
m6
-47.081
h-6
m6
-47.081
h-6" aria-hidden="true" aria-label="y-axis tick"/>
    <g aria-label="y-axis tick label" font-variant="tabular-nums" text-anchor="end">
        <text y=".32em" transform="translate(51 410)">0</text>
        <text y=".32em" transform="translate(51 362.919)">2,000</text>
        <text y=".32em" transform="translate(51 315.838)">4,000</text>
        <text y=".32em" transform="translate(51 268.757)">6,000</text>
        <text y=".32em" transform="translate(51 221.676)">8,000</text>
        <text y=".32em" transform="translate(51 174.595)">10,000</text>
        <text y=".32em" transform="translate(51 127.514)">12,000</text>
        <text y=".32em" transform="translate(51 80.433)">14,000</text>
    </g>
    <text y=".71em" aria-label="y-axis label" text-anchor="start" transform="translate(3 3)">↑ Visible vestiges (8 days)</text>
    <path fill="none" stroke="currentColor" d="
M82.352
410
v6
m59.824
-6
v6
m60.481
-6
v6
m60.482
-6
v6
m59.824
-6
v6
m59.824
-6
v6
m60.482
-6
v6
m60.481
-6
v6
m59.167
-6
v6
m59.823
-6
v6
m60.482
-6
v6
m60.482
-6
v6" aria-hidden="true" aria-label="x-axis tick"/>
    <g aria-label="x-axis tick label" font-variant="tabular-nums">
        <text transform="translate(82.352 419)"><tspan x="0" y=".71em">Apr</tspan><tspan x="0" dy="1em">2023</tspan></text>
        <text y=".71em" transform="translate(142.176 419)">Jul</text>
        <text y=".71em" transform="translate(202.657 419)">Oct</text>
        <text transform="translate(263.139 419)"><tspan x="0" y=".71em">Jan</tspan><tspan x="0" dy="1em">2024</tspan></text>
        <text y=".71em" transform="translate(322.963 419)">Apr</text>
        <text y=".71em" transform="translate(382.787 419)">Jul</text>
        <text y=".71em" transform="translate(443.269 419)">Oct</text>
        <text transform="translate(503.75 419)"><tspan x="0" y=".71em">Jan</tspan><tspan x="0" dy="1em">2025</tspan></text>
        <text y=".71em" transform="translate(562.917 419)">Apr</text>
        <text y=".71em" transform="translate(622.74 419)">Jul</text>
        <text y=".71em" transform="translate(683.222 419)">Oct</text>
        <text transform="translate(743.704 419)"><tspan x="0" y=".71em">Jan</tspan><tspan x="0" dy="1em">2026</tspan></text>
    </g>
    <path fill="none" stroke="currentColor" stroke-linecap="round" stroke-linejoin="round" stroke-width="1.5" d="
m60
410
.438
-11.817
.439
-43.221
.438
-23.305
.438
-16.525
.438
-27.26
.439
-21.469
.438
-20.127
.438
-28.908
.438
10.994
.439
-14.949
.438
-42.726
.438
-28.601
.439
-7.533
.438
-21.846
.438
12.218
.438
-.448
.439
-4.472
.438
30.485
.438
27.66
.438
-9.275
.439
-.471
.438
-1.554
.438
-18.62
.439
18.432
.438
6.097
.438
-12.688
.438
-.871
.439
12.311
.438
-11.935
.438
9.416
.438
-13.841
.439
-36.441
.438
-6.003
.438
11.982
.439
1.836
.438
20.693
.438
24.67
.438
6.215
.439
27.895
.438
25.118
.438
-23.188
.438
-24.34
.439
-25.871
.438
-39.949
.438
-6.826
.438
-1.789
.439
-23.188
.438
12.736
.438
25.4
.439
-1.883
.438
9.722
.438
-5.509
.438
-30.438
.439
-15.277
.438
6.285
.438
-19.256
.438
7.109
.439
9.84
.438
-8.969
.438
13.442
.439
16.808
.438
-20.881
.438
-3.554
.438
-1.154
L88.488
60
l.438
17.561
.438
17.82
.438
-1.459
.439
15.466
.438
22.575
.438
7.698
.439
19.774
.438
.047
.438
-14.548
.438
-1.412
.439
10.357
.438
-9.157
.438
6.803
.438
19.398
.439
6.497
.438
17.749
.438
15.537
.439
-13.441
.438
-3.861
.438
-3.013
.438
-24.977
.439
-1.624
.438
8.898
.438
-15.348
.438
7.957
.439
23.234
.438
2.731
.438
15.937
.439
1.742
.438
-19.751
.438
11.464
.438
2.025
.439
-8.687
.438
5.862
.438
5.815
.438
-7.157
.439
19.233
.438
13.724
.438
-4.12
.439
-12.57
.438
-7.18
.438
-16.808
.438
9.981
.439
-3.719
.438
-14.313
.438
9.864
.438
15.56
.439
-.447
.438
14.877
.438
-2.778
.439
-6.356
.438
7.392
.438
1.036
.438
-1.224
.439
9.534
.438
4.072
.438
.942
.438
9.345
.439
8.616
.438
-8.663
.438
-17.066
.438
-8.969
.439
-19.257
.438
4.591
.438
-5.532
.439
-8.498
.438
6.403
.438
23.446
.438
-5.202
.439
11.44
.438
-5.697
.438
-15.419
.438
-3.389
.439
-1.884
.438
-10.004
.438
4.943
.439
4.214
.438
6.12
.438
11.865
.438
13.183
.439
3.389
.438
6.309
.438
10.146
.438
-4.967
.439
2.448
.438
8.993
.438
-10.758
.439
3.319
.438
2.542
.438
-.306
.438
4.308
.439
-2.142
.438
-2.26
.438
3.013
.438
.353
.439
-5.72
.438
-.235
.438
3.531
.439
-5.909
.438
-.118
.438
6.898
.438
-4.52
.439
1.224
.438
3.79
.438
-8.498
.438
6.38
.439
.894
.438
-6.662
.438
3.013
.439
10.57
.438
-6.662
.438
9.863
.438
-.706
.439
-4.355
.438
3.861
.438
-2.119
.438
-13.277
.439
-.211
.438
-1.648
.438
-11.158
.439
-.448
.438
5.626
.438
-1.718
.438
3.437
.439
10.169
.438
-3.295
.438
18.455
.438
9.134
.439
-6.615
.438
4.449
.438
6.074
.439
-12.665
.438
4.92
.438
-1.813
.438
-5.908
.439
.565
.438
3.719
.438
-9.91
.438
9.416
.439
.07
.438
-6.92
.438
4.684
.438
-.471
.439
-8.404
.438
4.026
.438
-2.26
.439
-2.778
.438
-1.483
.438
-.424
.438
3.508
.439
5.673
.438
7.251
.438
-7.015
.438
5.602
.439
7.321
.438
-3.036
.438
.447
.439
-2.448
.438
-14.666
.438
3.602
.438
3.083
.439
-12.076
.438
.753
.438
-1.483
.438
-5.438
.439
11.064
.438
2.307
.438
-10.075
.439
6.898
.438
2.048
.438
-10.264
.438
4.637
.439
-1.647
.438
-4.614
.438
-4.026
.438
-4.308
.439
-20.762
.438
5.108
.438
4.331
.439
-5.155
.438
4.237
.438
12.43
.438
4.684
.439
20.645
.438
10.758
.438
-4.52
.438
4.285
.439
5.132
.438
-9.864
.438
.118
.439
2.919
.438
-8.828
.438
-5.555
.438
-3.108
.439
-15.042
.438
3.201
.438
2.307
.438
-13.277
.439
.024
.438
7.509
.438
-1.365
.439
9.134
.438
7.297
.438
.189
.438
15.301
.439
6.026
.438
.73
.438
4.967
.438
2.095
.439
-4.99
.438
.777
.438
-1.272
.439
-1.577
.438
2.236
.438
5.203
.438
1.2
.439
.66
.438
-.212
.438
-7.251
.438
1.53
.439
-.047
.438
-3.813
.438
3.813
.438
3.32
.439
4.143
.438
14.359
.438
5.226
.439
-8.78
.438
.541
.438
-3.484
.438
-8.78
.439
5.908
.438
-3.719
.438
-.73
.438
17.232
.439
3.601
.438
2.119
.438
6.144
.439
-8.78
.438
-16.62
.438
-12.83
.438
-3.554
.439
-3.131
.438
2.942
.438
2.637
.438
1.201
.439
14.265
.438
12.947
.438
-5.626
.439
-2.754
.438
-2.99
.438
-6.05
.438
6.804
.439
5.155
.438
-1.695
.438
5.838
.438
9.228
.439
-3.837
.438
5.085
.438
-5.791
.439
-11.818
.438
-2.566
.438
4.567
.438
-4.567
.439
7.345
.438
5.344
.438
2.825
.438
8.945
.439
1.248
.438
-11.606
.438
-5.391
.439
-9.84
.438
-11.982
.438
-2.707
.438
.965
.439
-.023
.438
7.462
.438
7.839
.438
3.037
.439
10.193
.438
4.59
.438
-13.983
.439
-7.085
.438
-.919
.438
-.306
.438
8.64
.439
4.567
.438
-5.344
.438
15.137
.438
11.322
.439
-8.192
.438
-9.439
.438
-7.557
.439
-16.125
.438
4.426
.438
-.354
.438
-8.898
.439
9.063
.438
11.394
.438
.141
.438
5.344
.439
.73
.438
-8.31
.438
7.391
.438
4.803
.439
-5.391
.438
5.791
.438
11.676
.439
1.13
.438
8.875
.438
-5.933
.438
-13.888
.439
-4.45
.438
-2.872
.438
-7.391
.438
2.472
.439
-1.625
.438
3.743
.438
13.889
.439
13.63
.438
-.047
.438
5.579
.438
-4.025
.439
-.871
.438
2.777
.438
.306
.438
-2.354
.439
8.875
.438
.824
.438
1.342
.439
6.167
.438
7.251
.438
-9.652
.438
-6.309
.439
-10.946
.438
-8.639
.438
-1.719
.438
-.447
.439
-7.98
.438
9.581
.438
6.003
.439
.4
.438
3.413
.438
1.083
.438
-9.699
.439
.471
.438
-4.096
.438
-2.99
.438
4.803
.439
.141
.438
-7.863
.438
6.003
.439
1.578
.438
.659
.438
1.059
.438
-1.318
.439
-1.083
.438
11.37
.438
6.521
.438
-1.366
.439
1.177
.438
5.297
.438
3.46
.439
5.297
.438
1.177
.438
-6.121
.438
2.001
.439
4.52
.438
-5.391
.438
-3.013
.438
3.673
.439
-.754
.438
5.085
.438
3.484
.439
-7.298
.438
.212
.438
3.061
.438
-3.508
.439
-1.318
.438
-5.391
.438
-2.213
.438
6.544
.439
5.391
.438
-3.319
.438
.918
.438
-.565
.439
-4.779
.438
-4.143
.438
-.212
.439
-2.848
.438
-.895
.438
-2.871
.438
-4.308
.439
5.673
.438
1.2
.438
-7.344
.438
-.283
.439
3.578
.438
-2.048
.438
3.014
.439
.588
.438
-3.837
.438
4.637
.438
3.555
.439
-5.132
.438
7.557
.438
1.812
.438
-4.896
.439
8.098
.438
.471
.438
-3.908
.439
8.545
.438
-1.553
.438
2.236
.438
9.887
.439
-1.836
.438
-4.096
.438
-.848
.438
-7.956
.439
-10.641
.438
-1.012
.438
-4.402
.439
.377
.438
.353
.438
-2.119
.438
4.12
.439
9.934
.438
-4.449
.438
-5.485
.438
-11.794
.439
-.283
.438
-1.789
.438
1.413
.439
-.801
.438
1.107
.438
10.146
.438
13.841
.439
-5.131
.438
-3.955
.438
-5.391
.438
-11.888
.439
.094
.438
-4.731
.438
-4.402
.439
6.803
.438
10.287
.438
-.612
.438
11.299
.439
-3.86
.438
-12.995
.438
-4.26
.438
-.071
.439
-7.321
.438
3.931
.438
.8
.439
-2.307
.438
8.546
.438
.164
.438
-4.001
.439
-1.013
.438
-12.712
.438
-17.843
.438
3.248
.439
-.753
.438
-5.932
.438
.753
.438
7.039
.439
9.863
.438
14.125
.438
2.165
.439
-4.543
.438
4.685
.438
7.721
.438
-4.12
.439
1.224
.438
-2.942
.438
-2.637
.438
10.57
.439
4.002
.438
-12.335
.438
-2.731
.439
1.036
.438
-3.32
.438
5.556
.438
-2.919
.439
-.283
.438
10.711
.438
7.628
.438
-1.648
.439
7.486
.438
-1.719
.438
-8.427
.439
1.977
.438
-.989
.438
1.601
.438
5.509
.439
.094
.438
.894
.438
14.03
.438
3.649
.439
-6.638
.438
-1.577
.438
.306
.439
-4.473
.438
-.612
.438
1.648
.438
-1.483
.439
4.096
.438
1.106
.438
-4.637
.438
1.694
.439
-2.259
.438
-15.396
.438
-4.684
.439
3.272
.438
7.509
.438
12.194
.438
13.371
.439
12.735
.438
19.704
.438
13.559
.438
8.64
.439
.517
.438
-.612
.438
-.4
.439
-1.153
.438
-1.931
.438
-1.247
.438
-1.648
.439
-2.613
.438
-4.12
.438
-11.888
.438
-7.109
.439
-5.744
.438
-5.602
.438
-4.85
.439
-4.049
.438
-4.896
.438
3.578
.438
-2.048
.439
-2.99
.438
-2.518
.438
-4.92
.438
-1.154
.439
3.037
.438
-1.012
.438
-.095
.438
6.262
.439
2.731
.438
1.507
.438
3.154
.439
.8
.438
.918
.438
3.437
.438
-5.767
.439
-1.836
.438
4.967
.438
-2.142
.438
-.871
.439
2.424
.438
2.613
.438
4.755
.439
5.368
.438
-.777
.438
1.553
.438
-1.153
.439
-4.826
.438
-2.683
.438
.941
.438
-6.615
.439
-1.6
.438
-.542
.438
.848
.439
1.341
.438
.283
.438
-4.944
.438
3.39
.439
2.519
.438
-.871
.438
-1.412
.438
1.035
.439
1.06
.438
1.6
.438
-.258
.439
-3.508
.438
-4.426
.438
-.541
.438
-2.801
.439
-.659
.438
2.236
.438
-1.177
.438
.612
.439
5.461
.438
.142
.438
1.553
.439
.118
.438
-5.673
.438
-2.119
.438
-.259
.439
-5.179
.438
2.142
.438
4.897
.438
2.189
.439
5.626
.438
2.778
.438
.235
.439
-4.896
.438
-1.483
.438
-7.415
.438
-1.813
h.439
l.438
.165
.438
-2.66
.438
13.159
.439
.541
.438
4.12
.438
-1.742
.439
-6.003
.438
-7.439
.438
3.013
.438
-9.18
.439
1.859
.438
.659
.438
-6.567
.438
1.342
.439
7.462
.438
-3.931
.438
.423
.438
-.753
.439
-7.321
.438
7.392
.438
3.554
.439
-2.848
.438
1.224
.438
5.344
.438
-4.967
.439
6.144
.438
-2.59
.438
-7.062
.438
-3.908
.439
.306
.438
-2.589
.438
-1.13
.439
1.436
.438
1.601
.438
6.85
.438
3.766
.439
1.295
.438
.306
.438
4.167
.438
-1.483
.439
-2.354
.438
3.978
.438
5.367
.439
1.436
.438
3.578
.438
-5.084
.438
1.153
.439
4.638
.438
-4.308
.438
-11.158
.438
1.836
.439
-2.307
.438
2.825
.438
-.189
.439
.259
.438
.353
.438
11.512
.438
-.565
.439
1.153
.438
3.72
.438
-4.779
.438
-3.696
.439
.942
.438
-6.921
.438
-2.166
.439
-1.365
.438
.965
.438
6.732
.438
4.379
.439
-1.766
.438
2.472
.438
4.285
.438
2.966
.439
.447
.438
.871
.438
-1.695
.439
.33
.438
.541
.438
-5.085
.438
.306
.439
.471
.438
-3.154
.438
-1.154
.438
2.849
.439
-.165
.438
1.13
.438
-1.224
.439
-2.166
.438
.753
.438
-.8
.438
-6.639
.439
-7.109
.438
-1.86
.438
-4.166
.438
.329
.439
.871
.438
-1.177
.438
4.732
.438
10.405
.439
3.343
.438
3.743
.438
-.212
.439
-.942
.438
-1.554
.438
-1.294
.438
-7.51
.439
-5.626
.438
-5.65
.438
-5.108
.438
-3.178
.439
-1.601
.438
-5.649
.438
5.838
.439
3.013
.438
-3.955
.438
3.955
.438
3.343
.439
2.095
.438
6.285
.438
3.131
.438
-12.877
.439
-2.66
.438
-10.358
.438
-12.523
.439
-5.744
.438
-4.426
.438
-14.571
.438
2.613
.439
7.062
.438
7.627
.438
6.662
.438
3.837
.439
-2.119
.438
2.967
.438
9.133
.439
5.579
.438
-.188
.438
7.062
.438
5.626
.439
4.85
.438
6.826
.438
.189
.438
-5.697
.439
-.565
.438
-2.731
.438
-2.448
.439
.8
.438
1.272
.438
4.92
.438
8.215
.439
7.651
.438
3.743
.438
2.895
.438
3.743
.439
.071
.438
.165
.438
-1.931
.439
-.706
.438
-.777
.438
1.342
.438
-4.637
.439
.612
.438
-2.354
.438
.117
.438
-3.225
.439
-2.307
.438
-2.495
.438
3.319
.439
-.494
.438
1.954
.438
-.4
.438
4.331
.439
3.743
.438
2.283
.438
1.413
.438
-.589
.439
-.965
.438
.589
.438
-1.483
.438
-1.625
.439
-.4
.438
-2.895
.438
2.966
.439
-2.048
.438
-5.768
.438
-5.249
.438
-8.381
.439
-.753
.438
-.024
.438
-2.966
.438
3.508
.439
3.154
.438
2.708
.438
6.85
.439
-4.002
.438
-11.135
.438
-.494
.438
-.565
.439
-3.413
.438
1.106
.438
4.237
.438
2.849
.439
12.099
.438
3.155
.438
-3.461
.439
1.413
.438
-2.943
.438
-10.146
.438
2.213
.439
1.601
.438
-1.766
.438
2.802
.438
6.591
.439
5.697
.438
7.862
.438
2.307
.439
-.941
.438
1.671
.438
2.166
.438
-1.366
.439
1.177
.438
1.366
.438
-3.72
.438
-.023
.439
.8
.438
-4.99
.438
-2.19
.439
-3.366
.438
-4.543
.438
4.143
.438
2.283
.439
-1.789
.438
5.203
.438
3.154
.438
1.46
.439
6.097
.438
-1.036
.438
-5.391
.439
.612
.438
1.624
.438
1.413
.438
1.412
.439
-1.859
.438
-1.083
.438
1.577
.438
1.624
.439
-5.885
.438
-8.639
.438
-4.708
.439
-7.133
.438
-3.861
.438
1.719
.438
-1.413
.439
2.707
.438
4.967
.438
3.414
.438
8.051
.439
1.553
.438
-1.483
.438
-2.354
.438
1.13
.439
-.965
.438
1.836
.438
.565
.439
.165
.438
2.589
.438
3.108
.438
-1.083
.439
.565
.438
-3.06
.438
-2.896
.438
3.131
.439
-.824
.438
-1.671
.438
-.306
.439
1.365
.438
-.965
.438
1.577
.438
-1.765
.439
-3.273
.438
-2.283
.438
2.048
.438
.306
.439
1.412
.438
1.201
.438
.612
.439
4.638
.438
6.379
.438
-1.412
.438
2.354
.439
4.166
.438
.283
.438
.376
.438
1.484
.439
-.565
.438
-.236
.438
-5.461
.439
-3.837
.438
-4.002
.438
1.695
.438
-1.742
.439
-.589
.438
.565
.438
3.484
.438
2.801
.439
4.097
.438
-2.59
.438
-.118
.439
-.776
.438
-2.778
.438
-2.754
.438
-1.436
.439
-3.602
.438
1.671
.438
-2.566
.438
-1.106
.439
4.755
.438
4.143
.438
-1.318
.439
2.707
.438
-.894
.438
-1.483
.438
2.612
.439
-3.625
.438
-2.001
.438
1.06
.438
.918
.439
.706
.438
5.344
.438
-1.342
.439
1.954
.438
-1.554
.438
-1.412
.438
-8.145
.439
-4.12
.438
-3.531
.438
-3.837
.438
-1.648
.439
1.201
.438
-3.767
.438
1.836
.438
3.037
.439
-2.189
.438
2.448
.438
2.589
.439
-.588
.438
5.108
.438
4.991
.438
1.93
.439
2.072
.438
1.224
.438
-1.507
.438
1.46
.439
-1.224
.438
.706
.438
-1.201
.439
2.731
.438
-.33
.438
-1.577
.438
-.118
.439
-2.754
.438
-1.106
.438
-.801
.438
-2.495
.439
-1.813
.438
-.329
.438
-2.566
.439
3.037
.438
1.859
.438
-1.13
.438
1.036
.439
1.342
.438
.471
.438
.188
.438
-4.826
.439
-9.439
.438
-2.731
.438
.447
.439
-.612
.438
1.978
.438
2.236
.438
3.154
.439
8.216
.438
5.532
.438
-4.025
.438
-2.378
.439
.259
.438
-2.048
.438
1.059
.439
-.989
.438
-2.212
.438
1.365
.438
-1.13
.439
-1.883
.438
1.012
.438
1.671
.438
.354
.439
1.341
.438
5.65
.438
.636
.439
2.165
h.438
l.438
-3.436
.438
-1.225
.439
-4.331
.438
-6.262
.438
2.613
.438
-1.977
.439
-3.484
.438
2.66
.438
1.106
.439
.4
.438
2.943
.438
-.471
.438
-2.872
.439
5.085
.438
.141
.438
-2.283
.438
3.319
.439
-3.861
.438
1.201
.438
.047
.438
-3.013
.439
.047
.438
3.131
.438
-.73
.439
-1.977
.438
-5.697
.438
1.506
.438
-2.071
.439
-1.365
.438
-2.825
.438
-4.92
.438
2.989
.439
3.743
.438
-.047
.438
4.567
.439
.094
.438
1.577
.438
4.45
.438
2.613
.439
.612
.438
2.001
.438
-1.13
.438
-2.802
.439
-1.153
.438
2.048
.438
1.53
.439
1.483
.438
.353
.438
1.389
.438
5.626
.439
3.343
.438
-1.201
.438
1.154
.438
1.436
.439
-.283
.438
-.306
.438
-1.13
.439
-3.319
.438
1.907
.438
-2.707
.438
-.165
.439
-2.26
.438
1.554
.438
-1.766
.438
4.261
.439
.589
.438
-2.401
.438
-.613
.439
2.402
.438
.941
.438
2.59
.438
-3.32
.439
-.706
.438
4.52
.438
2.966
.438
1.271
.439
.777
.438
.047
.438
3.319
.439
-1.836
.438
-2.165
.438
-4.049
.438
1.718
.439
-1.624
.438
.777
.438
.659
.438
4.331
.439
.942
.438
1.836
.438
-2.142
.439
1.553
.438
-.447
.438
-1.13
.438
-3.484
.439
3.319
.438
1.225
.438
1.977
.438
-2.59
.439
-1.153
.438
-.212
.438
1.907
.438
-1.271
.439
.235
.438
.236
.438
3.201
.439
3.202
.438
1.106
.438
-.4
.438
1.954
.439
.329
.438
.989
.438
-.377
.438
.047
.439
1.154
.438
2.095
.438
-.071
.439
1.177
.438
-.612
.438
-1.13
.438
-.117
.439
-.73
.438
.753
.438
-1.247
.438
-1.201
.439
-.683
.438
1.295
.438
-2.707
.439
.07
.438
-.918
.438
.518
.438
-.235
.439
.212
.438
.635
.438
3.225
.438
.66
.439
.188
.438
.094
.438
-.024
.439
.118
.438
-.871
.438
-1.883
.438
-2.26
.439
-1.059
.438
-.565
.438
-.165
.438
1.059
.439
-.588
.438
-.448
.438
1.578
.439
-1.601
.438
-1.295
.438
.024
.438
-2.378
.439
.683
.438
1.648
.438
.4
.438
1.012
.439
-.989
.438
1.083
.438
-.518
.439
-1.318
.438
-.259
.438
-.353
.438
1.695
.439
2.519
.438
-.895
.438
.871
.438
.236
.439
-1.53
.438
-.966
.438
.118
.439
-1.271
.438
.329
.438
1.554
.438
2.284
.439
1.671
.438
1.036
.438
-.965
.438
.729
.439
.73
.438
-.588
.438
-.73
.438
.353
.439
.353
.438
.612
.438
1.295
.439
-1.201
.438
.589
.438
-.518
.438
-2.401
.439
-1.224
.438
-.353
.438
-1.083
.438
-.895
.439
-1.483
.438
.118
.438
1.247
.439
-.353
.438
-.494
.438
.612
.438
.8
.439
-.824
.438
.565
.438
1.483
.438
.754
.439
-1.436
.438
-.071
.438
-1.436
.439
1.107
.438
-.777
.438
-3.931
.438
-1.177
.439
2.142
.438
-1.554
.438
2.66
.438
.283
.439
1.247
.438
3.013
.438
2.025
.439
.4
.438
1.342
.438
-.518
.438
-.471
.439
-2.166
.438
-2.66
.438
-.682
.438
-1.107
.439
.895
.438
-.871
.438
.518
.439
-1.06
.438
3.296
.438
.071
.438
-.801
.439
-1.718
.438
1.389
.438
-.495
.438
1.483
.439
.589
.438
.118
.438
.941
.439
-.023
.438
-.895
.438
.871
.438
.824
.439
-2.613
.438
-2.024
.438
-.142
.438
1.225
.439
-1.648
.438
-.024
.438
-.353
.439
2.095
.438
2.119
.438
.894
.438
-1.6
.439
1.883
.438
.871
.438
.8
.438
-1.483
.439
.942
.438
-.942
.438
1.177
.438
.306
.439
.33
.438
.588
.438
1.719
.439
-.047
.438
1.224
.438
.188
.438
.565
.439
-.282
.438
-.613
.438
-.047
.438
-.918
.439
-2.095
.438
1.06
.438
-1.201
.439
-2.825
.438
-4.425
.438
-3.39
.438
.259
.439
1.647
.438
-1.177
.438
.683
.438
2.59
.439
3.484
.438
1.53
.438
-1.907
.439
-.353
.438
.682
.438
1.013
.438
-.33
.439
-1.389
.438
1.201
.438
1.907
.438
.07
.439
-.4
.438
-2.236
.438
-.471
.439
-.212
.438
1.106
.438
.848
.438
.588
.439
.118
.438
2.284
.438
-1.507
.438
2.166
.439
-2.307
.438
-2.637
.438
.824
.439
1.036
.438
-.188
.438
2.801
.438
.424
.439
1.718
.438
2.613
.438
-1.813
.438
-.824
.439
-.588
.438
.024
.438
.47
.439
.518
.438
.141
.438
1.695
.438
.848
.439
-.33
.438
-1.459
.438
-4.167
.438
-4.308
.439
-2.424
.438
-.542
.438
.094
.439
-.518
.438
.142
.438
3.178
.438
2.989
.439
-1.247
.438
-2.402
.438
-1.671
.438
-1.224
.439
.235
.438
.212
.438
.189
.438
2.989
.439
.989
.438
-.659
.438
1.883
.439
1.106
.438
-1.459
.438
-.871
.438
-2.331
.439
1.177
.438
2.237
.438
.8
.438
-.447
.439
1.2
.438
1.507
.438
2.778
.439
.235
.438
-.023
.438
-.942
.438
-.518
.439
-.918
.438
.306
.438
-.447
.438
-.236
.439
-.659
.438
-.565
.438
-.235
.439
.094
.438
-.777
.438
.33
.438
.141
.439
-.212
.438
.165
.438
1.224
.438
1.177
.439
-.683
.438
-1.53
.438
.565
.439
-.235
.438
.683
.438
-.495
.438
.306
.439
.942
.438
1.883
.438
.094
.438
.212
.439
.895
.438
-.189
.438
-.753
.439
.895
.438
-.565
.438
-.542
.438
-.07
.439
-1.342
.438
-.518
.438
.989
.438
-.777
.439
.47
.438
.165
.438
.353
.439
-.988
.438
1.365
.438
-.918
.438
-.259
.439
-.235
.438
-.848
.438
-.494
.438
.847
.439
-1.789
.438
-.753
.438
-.33
.439
-1.883
.438
.942
.438
.423
.438
.919
.439
1.412
.438
1.789
.438
1.318
.438
2.119
.439
-.377
.438
.094
.438
.189
.438
-.165
.439
-1.154
.438
-.47
.438
-1.672
.439
.142
.438
.07
.438
-.212
.438
-.259
.439
.918
.438
-.047
.438
-.164
h.438
l.439
-.495
.438
-.659
.438
.848
.439
-.189
.438
-.447
.438
.918
.438
.447
.439
-.753
.438
.188
.438
-.4
.438
-.07
.439
-.942
.438
.306
.438
-.895
.439
1.201
.438
.471
.438
-1.46
.438
.589
.439
1.954
.438
-.871
.438
-1.672
.438
-.706
.439
.4
.438
1.86
h.438
l.439
-.683
.438
1.083
.438
1.954
.438
-.847
.439
-1.319
.438
-1.036
.438
-.564
.438
-1.79
.439
-1.506
.438
.353
.438
.918
.439
1.036
.438
.353
.438
.424
.438
1.483
.439
1.318
.438
-.777
.438
-.259
.438
-4.19
.439
-1.295
.438
-1.459
.438
-2.095
.439
-1.813
h.438
l.438
-1.977
.438
4.378
.439
.212
.438
.942
.438
1.224
.438
1.883
.439
-.942
.438
2.543
.438
-1.083
h.439
l.438
-.777
.438
-.306
.438
-1.766
.439
1.484
.438
.47
.438
-1.412
.438
.377
.439
-.142
.438
.165
.438
1.036
.438
-.824
.439
-.565
.438
.306
.438
.494
.439
.33
.438
-.424
.438
-.447
.438
-1.813
.439
-.965
.438
1.86
.438
-.165
.438
.353
.439
1.978
.438
-1.837
.438
1.86
.439
.73
.438
-.589
.438
-1.459
.438
.023
.439
-.047
.438
3.013
.438
1.13
.438
-.753
h.439
l.438
1.295
.438
.683
.439
.094
.438
.235
.438
-2.283
.438
.4
.439
-1.059
.438
-.871
.438
-4.638
.438
-4.284
.439
-4.002
.438
-.518" aria-label="line"/>
</svg>
