<svg class="plot-d6a7b5" fill="currentColor" font-family="system-ui, sans-serif" font-size="10" text-anchor="middle" width="830" height="470" viewBox="0 0 830 470" xmlns="http://www.w3.org/2000/svg" xmlns:xlink="http://www.w3.org/1999/xlink" color="#1e90ff"><style>:where(.plot-d6a7b5){--plot-background: white;display:block;height:intrinsic;max-width:100%}:where(.plot-d6a7b5 text),:where(.plot-d6a7b5 tspan){white-space:pre}</style><g aria-label="y-grid" stroke="currentColor" stroke-opacity=".1"><line x1="60" x2="770" y1="410" y2="410"/><line x1="60" x2="770" y1="378.364" y2="378.364"/><line x1="60" x2="770" y1="346.729" y2="346.729"/><line x1="60" x2="770" y1="315.093" y2="315.093"/><line x1="60" x2="770" y1="283.458" y2="283.458"/><line x1="60" x2="770" y1="251.822" y2="251.822"/><line x1="60" x2="770" y1="220.187" y2="220.187"/><line x1="60" x2="770" y1="188.551" y2="188.551"/><line x1="60" x2="770" y1="156.916" y2="156.916"/><line x1="60" x2="770" y1="125.28" y2="125.28"/><line x1="60" x2="770" y1="93.645" y2="93.645"/><line x1="60" x2="770" y1="62.009" y2="62.009"/></g><g aria-label="y-axis tick" fill="none" stroke="currentColor"><path transform="translate(60,410)" d="M0,0L-6,0"/><path transform="translate(60,378.3644988213516)" d="M0,0L-6,0"/><path transform="translate(60,346.72899764270323)" d="M0,0L-6,0"/><path transform="translate(60,315.09349646405485)" d="M0,0L-6,0"/><path transform="translate(60,283.45799528540647)" d="M0,0L-6,0"/><path transform="translate(60,251.82249410675809)" d="M0,0L-6,0"/><path transform="translate(60,220.1869929281097)" d="M0,0L-6,0"/><path transform="translate(60,188.55149174946132)" d="M0,0L-6,0"/><path transform="translate(60,156.91599057081288)" d="M0,0L-6,0"/><path transform="translate(60,125.2804893921645)" d="M0,0L-6,0"/><path transform="translate(60,93.64498821351611)" d="M0,0L-6,0"/><path transform="translate(60,62.00948703486773)" d="M0,0L-6,0"/></g><g aria-label="y-axis tick label" text-anchor="end" font-variant="tabular-nums"><text y=".32em" transform="translate(-9,0) translate(60,410)">0</text><text y=".32em" transform="translate(-9,0) translate(60,378.3644988213516)">50,000</text><text y=".32em" transform="translate(-9,0) translate(60,346.72899764270323)">100,000</text><text y=".32em" transform="translate(-9,0) translate(60,315.09349646405485)">150,000</text><text y=".32em" transform="translate(-9,0) translate(60,283.45799528540647)">200,000</text><text y=".32em" transform="translate(-9,0) translate(60,251.82249410675809)">250,000</text><text y=".32em" transform="translate(-9,0) translate(60,220.1869929281097)">300,000</text><text y=".32em" transform="translate(-9,0) translate(60,188.55149174946132)">350,000</text><text y=".32em" transform="translate(-9,0) translate(60,156.91599057081288)">400,000</text><text y=".32em" transform="translate(-9,0) translate(60,125.2804893921645)">450,000</text><text y=".32em" transform="translate(-9,0) translate(60,93.64498821351611)">500,000</text><text y=".32em" transform="translate(-9,0) translate(60,62.00948703486773)">550,000</text></g><g aria-label="y-axis label" text-anchor="start"><text y=".71em" transform="translate(-57,-57) translate(60,60)">↑ Total Vestiges</text></g><g aria-label="x-axis tick" fill="none" stroke="currentColor"><path transform="translate(110.15235457063713,410)" d="M0,0L0,6"/><path transform="translate(244.3836565096953,410)" d="M0,0L0,6"/><path transform="translate(380.09002770083106,410)" d="M0,0L0,6"/><path transform="translate(515.7963988919668,410)" d="M0,0L0,6"/><path transform="translate(650.027700831025,410)" d="M0,0L0,6"/></g><g aria-label="x-axis tick label" font-variant="tabular-nums"><text transform="translate(0,9) translate(110.15235457063713,410)"><tspan x="0" y=".71em">Apr</tspan><tspan x="0" dy="1em">2023</tspan></text><text y=".71em" transform="translate(0,9) translate(244.3836565096953,410)">Jul</text><text y=".71em" transform="translate(0,9) translate(380.09002770083106,410)">Oct</text><text transform="translate(0,9) translate(515.7963988919668,410)"><tspan x="0" y=".71em">Jan</tspan><tspan x="0" dy="1em">2024</tspan></text><text y=".71em" transform="translate(0,9) translate(650.027700831025,410)">Apr</text></g><g aria-label="line" fill="none" stroke="currentColor" stroke-width="1.5" stroke-linejoin="round" stroke-linecap="round"><path d="M60,410L60.983,409.682L61.967,408.521L62.95,407.894L63.934,407.45L64.917,406.718L65.9,406.14L66.884,405.6L67.867,404.505L68.85,403.639L69.834,402.611L70.817,401.018L71.801,399.517L72.784,398.737L73.767,397.609L74.751,396.843L75.734,395.965L76.717,394.816L77.701,394.043L78.684,393.285L79.668,392.256L80.651,391.116L81.634,390.308L82.618,388.929L83.601,388.276L84.584,387.667L85.568,386.568L86.551,385.515L87.535,384.706L88.518,383.577L89.501,382.451L90.485,381.426L91.468,379.837L92.452,378.577L93.435,377.847L94.418,377.086L95.402,376.514L96.385,376.051L97.368,375.193L98.352,374.354L99.335,373.769L100.319,372.416L101.302,371.001L102.285,369.733L103.269,368.197L104.252,367.155L105.235,366.268L106.219,365.06L107.202,364.049L108.186,363.317L109.169,361.998L110.152,360.723L111.136,359.534L112.119,357.829L113.102,356.21L114.086,355.367L115.069,354.118L116.053,352.99L117.036,351.98L118.019,350.549L119.003,349.205L119.986,348.038L120.97,346.635L121.953,345.29L122.936,344.131L123.92,342.573L124.903,341.614L125.886,340.749L126.87,339.543L127.853,338.555L128.837,337.817L129.82,336.865L130.803,335.838L131.787,334.881L132.77,333.625L133.753,332.38L134.737,331.671L135.72,330.687L136.704,329.918L137.687,329.412L138.67,328.63L139.654,327.851L140.637,327.024L141.62,325.953L142.604,324.865L143.587,324.015L144.571,322.838L145.554,322.012L146.537,321.472L147.521,320.233L148.504,319.376L149.488,318.913L150.471,318.136L151.454,317.388L152.438,316.608L153.421,315.538L154.404,314.606L155.388,313.804L156.371,313.107L157.355,312.488L158.338,311.896L159.321,310.924L160.305,310.37L161.288,309.808L162.271,308.895L163.255,307.86L164.238,307.048L165.222,306.004L166.205,305.3L167.188,304.647L168.172,303.7L169.155,303.052L170.139,302.435L171.122,301.611L172.105,300.967L173.089,300.189L174.072,299.364L175.055,298.616L176.039,297.996L177.022,297.346L178.006,296.778L178.989,296.244L179.972,295.491L180.956,294.918L181.939,294.401L182.922,293.548L183.906,292.439L184.889,291.631L185.873,290.579L186.856,289.949L187.839,289.227L188.823,288.482L189.806,287.801L190.789,287.323L191.773,286.374L192.756,285.629L193.74,284.847L194.723,283.71L195.706,282.874L196.69,282.143L197.673,281.395L198.657,280.58L199.64,279.948L200.623,279.33L201.607,278.513L202.59,278.031L203.573,277.39L204.557,276.813L205.54,276.27L206.524,275.505L207.507,274.952L208.49,274.377L209.474,273.605L210.457,273.054L211.44,272.545L212.424,271.994L213.407,271.345L214.391,270.735L215.374,270.098L216.357,269.408L217.341,268.866L218.324,268.203L219.307,267.646L220.291,267.092L221.274,266.323L222.258,265.683L223.241,265.178L224.224,264.515L225.208,263.885L226.191,263.43L227.175,262.647L228.158,262.05L229.141,261.434L230.125,260.75L231.108,260.168L232.091,259.822L233.075,259.187L234.058,258.67L235.042,258.053L236.025,257.321L237.008,256.741L237.992,256.102L238.975,255.399L239.958,254.758L240.942,254.196L241.925,253.28L242.909,252.536L243.892,252.107L244.875,251.421L245.859,250.811L246.842,250.444L247.825,249.793L248.809,249.373L249.792,248.874L250.776,248.267L251.759,247.702L252.742,247.254L253.726,246.547L254.709,246.029L255.693,245.56L256.676,244.902L257.659,244.31L258.643,243.845L259.626,243.131L260.609,242.677L261.593,242.16L262.576,241.506L263.56,240.973L264.543,240.369L265.526,239.678L266.51,239.072L267.493,238.557L268.476,237.966L269.46,237.271L270.443,236.728L271.427,236.218L272.41,235.679L273.393,235.268L274.377,234.565L275.36,234.124L276.343,233.626L277.327,233.001L278.31,232.503L279.294,231.898L280.277,231.094L281.26,230.487L282.244,230.129L283.227,229.307L284.211,228.702L285.194,228.164L286.177,227.413L287.161,226.906L288.144,226.361L289.127,225.733L290.111,225.096L291.094,224.546L292.078,223.732L293.061,223.106L294.044,222.554L295.028,221.885L296.011,221.149L296.994,220.396L297.978,219.288L298.961,218.612L299.945,218.102L300.928,217.411L301.911,216.856L302.895,216.454L303.878,215.827L304.861,215.274L305.845,214.887L306.828,214.255L307.812,213.68L308.795,213.263L309.778,212.596L310.762,211.972L311.745,211.497L312.729,210.873L313.712,210.092L314.695,209.433L315.679,208.612L316.662,208.031L317.645,207.469L318.629,206.638L319.612,206.014L320.596,205.435L321.579,204.739L322.562,204.164L323.546,203.778L324.529,203.222L325.512,202.801L326.496,202.34L327.479,201.78L328.463,201.218L329.446,200.699L330.429,200.179L331.413,199.644L332.396,199.189L333.38,198.685L334.363,198.186L335.346,197.764L336.33,197.277L337.313,196.775L338.296,196.233L339.28,195.584L340.263,195.121L341.247,194.62L342.23,194.096L343.213,193.711L344.197,193.299L345.18,192.868L346.163,192.605L347.147,192.283L348.13,191.546L349.114,191.036L350.097,190.558L351.08,189.909L352.064,189.638L353.047,189.275L354.03,188.932L355.014,188.659L355.997,188.246L356.981,187.825L357.964,187.341L358.947,186.834L359.931,186.024L360.914,185.337L361.898,184.968L362.881,184.471L363.864,184.128L364.848,183.716L365.831,183.241L366.814,182.814L367.798,182.475L368.781,181.955L369.765,181.384L370.748,180.961L371.731,180.386L372.715,180.093L373.698,179.806L374.681,179.421L375.665,179.058L376.648,178.734L377.632,178.209L378.615,177.77L379.598,177.322L380.582,176.717L381.565,176.263L382.548,176.023L383.532,175.577L384.515,175.248L385.499,174.953L386.482,174.581L387.465,174.216L388.449,173.796L389.432,173.244L390.416,172.653L391.399,172.06L392.382,171.443L393.366,170.998L394.349,170.659L395.332,170.238L396.316,169.887L397.299,169.506L398.283,168.995L399.266,168.652L400.249,168.331L401.233,167.616L402.216,167.005L403.199,166.628L404.183,166.24L405.166,165.961L406.15,165.74L407.133,165.275L408.116,164.967L409.1,164.66L410.083,164.064L411.066,163.422L412.05,162.939L413.033,162.286L414.017,161.94L415,161.622L415.983,161.076L416.967,160.723L417.95,160.387L418.934,159.909L419.917,159.399L420.9,159.072L421.884,158.531L422.867,158.184L423.85,157.96L424.834,157.479L425.817,157.156L426.801,156.96L427.784,156.664L428.767,156.362L429.751,155.855L430.734,155.258L431.717,154.657L432.701,154.257L433.684,153.863L434.668,153.633L435.651,153.287L436.634,152.881L437.618,152.657L438.601,152.422L439.584,152.021L440.568,151.776L441.551,151.439L442.535,151.069L443.518,150.738L444.501,150.522L445.485,150.224L446.468,150.062L447.452,149.839L448.435,149.537L449.418,149.334L450.402,149.197L451.385,148.722L452.368,148.255L453.352,147.798L454.335,147.343L455.319,146.995L456.302,146.779L457.285,146.428L458.269,146.211L459.252,145.905L460.235,145.459L461.219,145.096L462.202,144.777L463.186,144.3L464.169,143.962L465.152,143.634L466.136,143.248L467.119,142.931L468.102,142.572L469.086,142.042L470.069,141.727L471.053,141.43L472.036,141.12L473.019,140.763L474.003,140.41L474.986,140.022L475.97,139.797L476.953,139.658L477.936,139.325L478.92,139.046L479.903,138.831L480.886,138.572L481.87,138.326L482.853,138.133L483.837,137.828L484.82,137.549L485.803,137.392L486.787,137.032L487.77,136.692L488.753,136.545L489.737,136.331L490.72,136.164L491.704,135.978L492.687,135.625L493.67,135.271L494.654,135.013L495.637,134.771L496.62,134.522L497.604,134.21L498.587,133.965L499.571,133.788L500.554,133.578L501.537,133.231L502.521,133.014L503.504,132.75L504.488,132.309L505.471,131.953L506.454,131.77L507.438,131.484L508.421,131.113L509.404,130.819L510.388,130.439L511.371,130.15L512.355,129.827L513.338,129.446L514.321,129.153L515.305,128.877L516.288,128.528L517.271,128.23L518.255,127.957L519.238,127.53L520.222,127.274L521.205,127.076L522.188,126.663L523.172,126.517L524.155,126.267L525.139,125.863L526.122,125.653L527.105,125.41L528.089,125.107L529.072,124.924L530.055,124.736L531.039,124.546L532.022,124.407L533.006,124.149L533.989,123.796L534.972,123.47L535.956,123.072L536.939,122.598L537.922,122.381L538.906,122.125L539.889,121.876L540.873,121.532L541.856,121.15L542.839,120.863L543.823,120.656L544.806,120.319L545.789,119.915L546.773,119.349L547.756,118.998L548.74,118.567L549.723,118.319L550.706,118.09L551.69,117.784L552.673,117.652L553.657,117.458L554.64,116.969L555.623,116.432L556.607,116.038L557.59,115.491L558.573,115.186L559.557,114.927L560.54,114.616L561.524,114.309L562.507,114.049L563.49,113.639L564.474,113.394L565.457,112.986L566.44,112.378L567.424,111.952L568.407,111.644L569.391,111.186L570.374,110.882L571.357,110.659L572.341,110.189L573.324,109.811L574.307,109.389L575.291,108.973L576.274,108.488L577.258,107.842L578.241,107.14L579.224,106.757L580.208,106.359L581.191,105.777L582.175,105.382L583.158,105.086L584.141,104.705L585.125,104.383L586.108,104.058L587.091,103.537L588.075,103.082L589.058,102.894L590.042,102.488L591.025,102.14L592.008,101.738L592.992,101.343L593.975,101.106L594.958,100.758L595.942,100.238L596.925,99.759L597.909,99.439L598.892,98.948L599.875,98.702L600.859,98.387L601.842,98.031L602.825,97.799L603.809,97.525L604.792,97.16L605.776,96.871L606.759,96.578L607.742,96.037L608.726,95.734L609.709,95.476L610.693,95.244L611.676,95.028L612.659,94.741L613.643,94.473L614.626,94.308L615.609,94.104L616.593,93.667L617.576,93.393L618.56,93.185L619.543,92.778L620.526,92.493L621.51,92.373L622.493,92.128L623.476,91.802L624.46,91.558L625.443,91.225L626.427,90.863L627.41,90.518L628.393,89.983L629.377,89.613L630.36,89.375L631.343,89.332L632.327,89.327L633.31,89.325L634.294,89.322L635.277,89.317L636.26,89.312L637.244,89.305L638.227,89.277L639.211,89.255L640.194,89.242L641.177,89.208L642.161,89.151L643.144,89.112L644.127,89.062L645.111,88.963L646.094,88.831L647.078,88.498L648.061,88.273L649.044,88.062L650.028,87.872L651.011,87.691L651.994,87.484L652.978,87.22L653.961,86.983L654.945,86.703L655.928,86.412L656.911,86.154L657.895,85.841L658.878,85.603L659.861,85.42L660.845,85.157L661.828,84.874L662.812,84.751L663.795,84.567L664.778,84.294L665.762,84.14L666.745,83.98L667.729,83.741L668.712,83.55L669.695,83.272L670.679,83.039L671.662,82.9L672.645,82.688L673.629,82.504L674.612,82.33L675.596,82.21L676.579,82.06L677.562,81.971L678.546,81.811L679.529,81.641L680.512,81.426L681.496,81.122L682.479,80.93L683.463,80.805L684.446,80.538L685.429,80.335L686.413,80.151L687.396,79.959L688.38,79.691L689.363,79.506L690.346,79.249L691.33,79.073L692.313,78.938L693.296,78.73L694.28,78.5L695.263,78.26L696.247,78.104L697.23,77.889L698.213,77.706L699.197,77.477L700.18,77.15L701.163,76.905L702.147,76.59L703.13,76.416L704.114,76.262L705.097,76.047L706.08,75.834L707.064,75.655L708.047,75.413L709.03,75.14L710.014,74.969L710.997,74.662L711.981,74.391L712.964,74.171L713.947,73.852L714.931,73.668L715.914,73.527L716.898,73.415L717.881,73.259L718.864,73.062L719.848,72.848L720.831,72.398L721.814,72.175L722.798,71.834L723.781,71.673L724.765,71.517L725.748,71.325L726.731,71.04L727.715,70.943L728.698,70.734L729.681,70.504L730.665,70.296L731.648,69.979L732.632,69.587L733.615,69.382L734.598,69.039L735.582,68.88L736.565,68.667L737.548,68.283L738.532,68.003L739.515,67.811L740.499,67.501L741.482,67.169L742.465,66.99L743.449,66.58L744.432,66.395L745.416,66.209L746.399,65.941L747.382,65.664L748.366,65.475L749.349,65.163L750.332,64.919L751.316,64.664L752.299,64.289L753.283,63.915L754.266,63.646L755.249,63.388L756.233,63.045L757.216,62.84L758.199,62.628L759.183,62.437L760.166,62.165L761.15,61.93L762.133,61.68L763.116,61.45L764.1,61.204L765.083,60.929L766.066,60.845L767.05,60.717L768.033,60.521L769.017,60.368L770,60"/></g></svg>