<svg xmlns="http://www.w3.org/2000/svg" width="830" height="470" fill="currentColor" class="plot-d6a7b5" font-family="system-ui, sans-serif" font-size="10" style="--plot-background:white;display:block;height:intrinsic;max-width:100%;color:#1e90ff" text-anchor="middle" viewBox="0 0 830 470">
    <style>
        :where(.plot-d6a7b5 text),:where(.plot-d6a7b5 tspan){white-space:pre}
    </style>
    <path stroke="currentColor" stroke-opacity=".1" d="
M60
410
h710
M60
385.152
h710
M60
360.304
h710
M60
335.456
h710
M60
310.608
h710
M60
285.76
h710
M60
260.912
h710
M60
236.064
h710
M60
211.216
h710
M60
186.368
h710
M60
161.52
h710
M60
136.672
h710
M60
111.824
h710
M60
86.976
h710
M60
62.128
h710" aria-hidden="true" aria-label="y-grid"/>
    <path fill="none" stroke="currentColor" d="
M60
410
h-6
m6
-24.848
h-6
m6
-24.848
h-6
m6
-24.848
h-6
m6
-24.848
h-6
m6
-24.848
h-6
m6
-24.848
h-6
m6
-24.848
h-6
m6
-24.848
h-6
m6
-24.848
h-6
m6
-24.848
h-6
m6
-24.848
h-6
m6
-24.848
h-6
m6
-24.848
h-6
m6
-24.848
h-6" aria-hidden="true" aria-label="y-axis tick"/>
    <g aria-label="y-axis tick label" font-variant="tabular-nums" text-anchor="end">
        <text y=".32em" transform="translate(51 410)">0</text>
        <text y=".32em" transform="translate(51 385.152)">50,000</text>
        <text y=".32em" transform="translate(51 360.304)">100,000</text>
        <text y=".32em" transform="translate(51 335.456)">150,000</text>
        <text y=".32em" transform="translate(51 310.608)">200,000</text>
        <text y=".32em" transform="translate(51 285.76)">250,000</text>
        <text y=".32em" transform="translate(51 260.912)">300,000</text>
        <text y=".32em" transform="translate(51 236.064)">350,000</text>
        <text y=".32em" transform="translate(51 211.216)">400,000</text>
        <text y=".32em" transform="translate(51 186.368)">450,000</text>
        <text y=".32em" transform="translate(51 161.52)">500,000</text>
        <text y=".32em" transform="translate(51 136.672)">550,000</text>
        <text y=".32em" transform="translate(51 111.824)">600,000</text>
        <text y=".32em" transform="translate(51 86.976)">650,000</text>
        <text y=".32em" transform="translate(51 62.128)">700,000</text>
    </g>
    <text y=".71em" aria-label="y-axis label" text-anchor="start" transform="translate(3 3)">↑ Total vestiges</text>
    <path fill="none" stroke="currentColor" d="
M82.352
410
v6
m59.824
-6
v6
m60.481
-6
v6
m60.482
-6
v6
m59.824
-6
v6
m59.824
-6
v6
m60.482
-6
v6
m60.481
-6
v6
m59.167
-6
v6
m59.823
-6
v6
m60.482
-6
v6
m60.482
-6
v6" aria-hidden="true" aria-label="x-axis tick"/>
    <g aria-label="x-axis tick label" font-variant="tabular-nums">
        <text transform="translate(82.352 419)"><tspan x="0" y=".71em">Apr</tspan><tspan x="0" dy="1em">2023</tspan></text>
        <text y=".71em" transform="translate(142.176 419)">Jul</text>
        <text y=".71em" transform="translate(202.657 419)">Oct</text>
        <text transform="translate(263.139 419)"><tspan x="0" y=".71em">Jan</tspan><tspan x="0" dy="1em">2024</tspan></text>
        <text y=".71em" transform="translate(322.963 419)">Apr</text>
        <text y=".71em" transform="translate(382.787 419)">Jul</text>
        <text y=".71em" transform="translate(443.269 419)">Oct</text>
        <text transform="translate(503.75 419)"><tspan x="0" y=".71em">Jan</tspan><tspan x="0" dy="1em">2025</tspan></text>
        <text y=".71em" transform="translate(562.917 419)">Apr</text>
        <text y=".71em" transform="translate(622.74 419)">Jul</text>
        <text y=".71em" transform="translate(683.222 419)">Oct</text>
        <text transform="translate(743.704 419)"><tspan x="0" y=".71em">Jan</tspan><tspan x="0" dy="1em">2026</tspan></text>
    </g>
    <path fill="none" stroke="currentColor" stroke-linecap="round" stroke-linejoin="round" stroke-width="1.5" d="
m60
410
.438
-.249
.439
-.913
.438
-.492
.438
-.349
.438
-.575
.439
-.453
.438
-.425
.438
-.86
.438
-.68
.439
-.808
.438
-1.251
.438
-1.179
.439
-.612
.438
-.886
.438
-.602
.438
-.69
.439
-.902
.438
-.607
.438
-.596
.438
-.808
.439
-.896
.438
-.634
.438
-1.083
.439
-.513
.438
-.479
.438
-.863
.438
-.826
.439
-.636
.438
-.887
.438
-.884
.438
-.805
.439
-1.248
.438
-.99
.438
-.574
.439
-.597
.438
-.45
.438
-.363
.438
-.674
.439
-.659
.438
-.459
.438
-1.063
.438
-1.112
.439
-.996
.438
-1.206
.438
-.818
.438
-.697
.439
-.949
.438
-.794
.438
-.575
.439
-1.036
.438
-1.001
.438
-.935
.438
-1.339
.439
-1.272
.438
-.661
.438
-.982
.438
-.885
.439
-.794
.438
-1.123
.438
-1.056
.439
-.917
.438
-1.102
.438
-1.057
.438
-.91
.439
-1.224
.438
-.752
.438
-.68
.438
-.947
.439
-.776
.438
-.58
.438
-.748
.439
-.806
.438
-.752
.438
-.987
.438
-.977
.439
-.557
.438
-.773
.438
-.604
.438
-.397
.439
-.615
.438
-.612
.438
-.649
.439
-.841
.438
-.855
.438
-.667
.438
-.925
.439
-.649
.438
-.424
.438
-.973
.438
-.673
.439
-.364
.438
-.61
.438
-.588
.439
-.612
.438
-.841
.438
-.732
.438
-.63
.439
-.547
.438
-.486
.438
-.466
.438
-.763
.439
-.435
.438
-.442
.438
-.717
.439
-.813
.438
-.637
.438
-.82
.438
-.553
.439
-.513
.438
-.744
.438
-.509
.438
-.485
.439
-.647
.438
-.506
.438
-.611
.439
-.647
.438
-.588
.438
-.487
.438
-.511
.439
-.446
.438
-.419
.438
-.592
.438
-.45
.439
-.406
.438
-.67
.438
-.871
.438
-.635
.439
-.826
.438
-.495
.438
-.567
.439
-.585
.438
-.535
.438
-.376
.438
-.745
.439
-.584
.438
-.615
.438
-.893
.438
-.657
.439
-.574
.438
-.587
.438
-.641
.439
-.496
.438
-.485
.438
-.642
.438
-.379
.439
-.503
.438
-.454
.438
-.426
.438
-.601
.439
-.434
.438
-.452
.438
-.606
.439
-.433
.438
-.4
.438
-.432
.438
-.51
.439
-.479
.438
-.5
.438
-.542
.438
-.426
.439
-.521
.438
-.438
.438
-.435
.439
-.604
.438
-.502
.438
-.397
.438
-.52
.439
-.495
.438
-.358
.438
-.615
.438
-.469
.439
-.484
.438
-.537
.438
-.457
.439
-.272
.438
-.498
.438
-.407
.438
-.484
.439
-.575
.438
-.456
.438
-.502
.438
-.552
.439
-.503
.438
-.441
.438
-.72
.439
-.585
.438
-.337
.438
-.538
.438
-.48
.439
-.288
.438
-.511
.438
-.33
.438
-.392
.439
-.476
.438
-.445
.438
-.351
.439
-.556
.438
-.407
.438
-.368
.438
-.517
.439
-.464
.438
-.366
.438
-.561
.438
-.357
.439
-.405
.438
-.514
.438
-.418
.438
-.475
.439
-.543
.438
-.476
.438
-.404
.439
-.464
.438
-.546
.438
-.427
.438
-.401
.439
-.423
.438
-.322
.438
-.553
.438
-.346
.439
-.391
.438
-.491
.438
-.391
.439
-.475
.438
-.632
.438
-.477
.438
-.281
.439
-.646
.438
-.475
.438
-.422
.438
-.59
.439
-.399
.438
-.428
.438
-.493
.439
-.501
.438
-.431
.438
-.64
.438
-.492
.439
-.433
.438
-.525
.438
-.579
.438
-.591
.439
-.87
.438
-.531
.438
-.401
.439
-.542
.438
-.436
.438
-.316
.438
-.493
.439
-.434
.438
-.304
.438
-.496
.438
-.452
.439
-.327
.438
-.525
.438
-.49
.439
-.372
.438
-.491
.438
-.613
.438
-.517
.439
-.645
.438
-.457
.438
-.441
.438
-.653
.439
-.49
.438
-.455
.438
-.546
.439
-.453
.438
-.302
.438
-.437
.438
-.33
.439
-.363
.438
-.44
.438
-.441
.438
-.408
.439
-.408
.438
-.421
.438
-.357
.439
-.396
.438
-.392
.438
-.331
.438
-.383
.439
-.394
.438
-.425
.438
-.51
.438
-.364
.439
-.393
.438
-.412
.438
-.302
.438
-.324
.439
-.338
.438
-.207
.438
-.253
.439
-.579
.438
-.4
.438
-.376
.438
-.51
.439
-.213
.438
-.285
.438
-.269
.438
-.215
.439
-.324
.438
-.331
.438
-.38
.439
-.398
.438
-.636
.438
-.54
.438
-.29
.439
-.39
.438
-.269
.438
-.324
.438
-.373
.439
-.335
.438
-.267
.438
-.408
.439
-.449
.438
-.332
.438
-.452
.438
-.229
.439
-.226
.438
-.303
.438
-.285
.438
-.254
.439
-.413
.438
-.344
.438
-.352
.439
-.476
.438
-.356
.438
-.189
.438
-.35
.439
-.258
.438
-.232
.438
-.292
.438
-.287
.439
-.33
.438
-.433
.438
-.465
.439
-.465
.438
-.485
.438
-.349
.438
-.267
.439
-.33
.438
-.276
.438
-.299
.438
-.402
.439
-.269
.438
-.252
.438
-.562
.439
-.48
.438
-.296
.438
-.305
.438
-.219
.439
-.173
.438
-.365
.438
-.242
.438
-.241
.439
-.469
.438
-.504
.438
-.379
.439
-.513
.438
-.272
.438
-.25
.438
-.428
.439
-.278
.438
-.264
.438
-.375
.438
-.401
.439
-.256
.438
-.425
.438
-.273
.438
-.176
.439
-.378
.438
-.253
.438
-.154
.439
-.233
.438
-.237
.438
-.398
.438
-.47
.439
-.471
.438
-.314
.438
-.31
.438
-.181
.439
-.272
.438
-.319
.438
-.176
.439
-.183
.438
-.315
.438
-.193
.438
-.265
.439
-.29
.438
-.261
.438
-.169
.438
-.234
.439
-.128
.438
-.175
.438
-.237
.439
-.16
.438
-.107
.438
-.373
.438
-.367
.439
-.359
.438
-.357
.438
-.273
.438
-.17
.439
-.276
.438
-.171
.438
-.24
.439
-.35
.438
-.285
.438
-.251
.438
-.374
.439
-.266
.438
-.257
.438
-.303
.438
-.249
.439
-.283
.438
-.416
.438
-.248
.439
-.232
.438
-.244
.438
-.28
.438
-.277
.439
-.305
.438
-.177
.438
-.11
.438
-.261
.439
-.219
.438
-.169
.438
-.203
.439
-.194
.438
-.151
.438
-.239
.438
-.219
.439
-.124
.438
-.282
.438
-.268
.438
-.116
.439
-.167
.438
-.132
.438
-.145
.439
-.278
.438
-.278
.438
-.203
.438
-.19
.439
-.195
.438
-.245
.438
-.193
.438
-.139
.439
-.164
.438
-.273
.438
-.171
.438
-.207
.439
-.346
.438
-.28
.438
-.144
.439
-.224
.438
-.292
.438
-.231
.438
-.298
.439
-.227
.438
-.254
.438
-.299
.438
-.231
.439
-.216
.438
-.274
.438
-.235
.439
-.214
.438
-.335
.438
-.201
.438
-.156
.439
-.324
.438
-.115
.438
-.196
.438
-.318
.439
-.164
.438
-.191
.438
-.238
.439
-.144
.438
-.148
.438
-.149
.438
-.109
.439
-.203
.438
-.277
.438
-.256
.438
-.312
.439
-.373
.438
-.17
.438
-.202
.439
-.195
.438
-.27
.438
-.301
.438
-.225
.439
-.162
.438
-.265
.438
-.317
.438
-.445
.439
-.275
.438
-.339
.438
-.195
.439
-.179
.438
-.241
.438
-.104
.438
-.152
.439
-.384
.438
-.422
.438
-.309
.438
-.43
.439
-.24
.438
-.203
.438
-.245
.439
-.24
.438
-.205
.438
-.322
.438
-.192
.439
-.32
.438
-.478
.438
-.335
.438
-.242
.439
-.359
.438
-.239
.438
-.175
.439
-.37
.438
-.297
.438
-.331
.438
-.327
.439
-.38
.438
-.508
.438
-.551
.438
-.301
.439
-.313
.438
-.457
.438
-.31
.438
-.232
.439
-.3
.438
-.253
.438
-.255
.439
-.409
.438
-.358
.438
-.147
.438
-.319
.439
-.274
.438
-.315
.438
-.311
.438
-.186
.439
-.273
.438
-.408
.438
-.377
.439
-.251
.438
-.386
.438
-.193
.438
-.248
.439
-.279
.438
-.182
.438
-.216
.438
-.286
.439
-.228
.438
-.229
.438
-.426
.439
-.237
.438
-.203
.438
-.182
.438
-.17
.439
-.225
.438
-.211
.438
-.129
.438
-.161
.439
-.343
.438
-.215
.438
-.163
.439
-.32
.438
-.224
.438
-.094
.438
-.192
.439
-.257
.438
-.191
.438
-.262
.438
-.284
.439
-.271
.438
-.42
.438
-.291
.439
-.187
.438
-.033
.438
-.004
.438
-.002
.439
-.003
.438
-.003
.438
-.005
.438
-.005
.439
-.022
.438
-.017
.438
-.01
.439
-.027
.438
-.044
.438
-.031
.438
-.04
.439
-.078
.438
-.103
.438
-.262
.438
-.177
.439
-.165
.438
-.149
.438
-.142
.439
-.163
.438
-.208
.438
-.186
.438
-.22
.439
-.228
.438
-.203
.438
-.246
.438
-.187
.439
-.143
.438
-.207
.438
-.222
.438
-.097
.439
-.144
.438
-.215
.438
-.12
.439
-.127
.438
-.187
.438
-.15
.438
-.218
.439
-.184
.438
-.109
.438
-.166
.438
-.144
.439
-.137
.438
-.095
.438
-.117
.439
-.07
.438
-.126
.438
-.133
.438
-.169
.439
-.239
.438
-.151
.438
-.098
.438
-.21
.439
-.159
.438
-.145
.438
-.151
.439
-.21
.438
-.145
.438
-.202
.438
-.138
.439
-.107
.438
-.163
.438
-.181
.438
-.188
.439
-.123
.438
-.168
.438
-.144
.439
-.18
.438
-.257
.438
-.192
.438
-.248
.439
-.136
.438
-.121
.438
-.169
.438
-.167
.439
-.142
.438
-.189
.438
-.215
.439
-.134
.438
-.241
.438
-.213
.438
-.173
.439
-.25
.438
-.145
.438
-.111
.438
-.088
.439
-.122
.438
-.155
.438
-.168
.439
-.353
.438
-.176
.438
-.268
.438
-.126
.439
-.122
.438
-.151
.438
-.224
.438
-.076
.439
-.164
.438
-.181
.438
-.163
.439
-.249
.438
-.308
.438
-.161
.438
-.27
.439
-.125
.438
-.167
.438
-.301
.438
-.221
.439
-.15
.438
-.244
.438
-.261
.438
-.14
.439
-.322
.438
-.146
.438
-.145
.439
-.211
.438
-.218
.438
-.148
.438
-.245
.439
-.192
.438
-.2
.438
-.295
.438
-.293
.439
-.211
.438
-.203
.438
-.269
.439
-.162
.438
-.166
.438
-.151
.438
-.213
.439
-.184
.438
-.196
.438
-.182
.438
-.193
.439
-.216
.438
-.066
.438
-.1
.439
-.154
.438
-.121
.438
-.288
.438
-.169
.439
-.118
.438
-.157
.438
-.336
.438
-.115
.439
-.169
.438
-.229
.438
-.173
.439
-.113
.438
-.149
.438
-.093
.438
-.127
.439
-.145
.438
-.151
.438
-.273
.438
-.191
.439
-.13
.438
-.239
.438
-.172
.439
-.174
.438
-.13
.438
-.131
.438
-.099
.439
-.167
.438
-.187
.438
-.082
.438
-.111
.439
-.121
.438
-.112
.438
-.135
.439
-.16
.438
-.175
.438
-.189
.438
-.105
.439
-.111
.438
-.179
.438
-.159
.438
-.1
.439
-.179
.438
-.165
.438
-.131
.439
-.157
.438
-.163
.438
-.175
.438
-.241
.439
-.328
.438
-.205
.438
-.219
.438
-.149
.439
-.146
.438
-.2
.438
-.14
.438
-.109
.439
-.135
.438
-.139
.438
-.154
.439
-.165
.438
-.233
.438
-.168
.438
-.268
.439
-.253
.438
-.259
.438
-.261
.438
-.232
.439
-.267
.438
-.287
.438
-.145
.439
-.189
.438
-.342
.438
-.179
.438
-.161
.439
-.223
.438
-.154
.438
-.079
.438
-.461
.439
-.398
.438
-.397
.438
-.426
.439
-.344
.438
-.248
.438
-.386
.438
-.406
.439
-.249
.438
-.236
.438
-.286
.438
-.263
.439
-.292
.438
-.323
.438
-.213
.439
-.132
.438
-.24
.438
-.136
.438
-.144
.439
-.19
.438
-.18
.438
-.209
.438
-.252
.439
-.252
.438
-.194
.438
-.195
.439
-.173
.438
-.153
.438
-.105
.438
-.079
.439
-.09
.438
-.115
.438
-.135
.438
-.094
.439
-.151
.438
-.102
.438
-.119
.439
-.105
.438
-.131
.438
-.107
.438
-.192
.439
-.138
.438
-.151
.438
-.117
.438
-.174
.439
-.179
.438
-.16
.438
-.121
.439
-.149
.438
-.11
.438
-.125
.438
-.082
.439
-.101
.438
-.111
.438
-.092
.438
-.161
.439
-.131
.438
-.113
.438
-.113
.438
-.135
.439
-.119
.438
-.153
.438
-.099
.439
-.174
.438
-.234
.438
-.224
.438
-.313
.439
-.135
.438
-.153
.438
-.161
.438
-.1
.439
-.168
.438
-.167
.438
-.168
.439
-.219
.438
-.389
.438
-.171
.438
-.112
.439
-.24
.438
-.144
.438
-.078
.438
-.159
.439
-.134
.438
-.104
.438
-.185
.439
-.21
.438
-.206
.438
-.292
.438
-.113
.439
-.1
.438
-.142
.438
-.125
.438
-.072
.439
-.085
.438
-.126
.438
-.064
.439
-.12
.438
-.106
.438
-.08
.438
-.1
.439
-.061
.438
-.097
.438
-.143
.438
-.12
.439
-.09
.438
-.185
.438
-.146
.439
-.132
.438
-.193
.438
-.055
.438
-.072
.439
-.128
.438
-.075
.438
-.08
.438
-.101
.439
-.064
.438
-.077
.438
-.186
.439
-.114
.438
-.042
.438
-.049
.438
-.071
.439
-.104
.438
-.1
.438
-.152
.438
-.081
.439
-.165
.438
-.232
.438
-.171
.439
-.254
.438
-.182
.438
-.115
.438
-.111
.439
-.108
.438
-.127
.438
-.099
.438
-.084
.439
-.149
.438
-.147
.438
-.16
.438
-.084
.439
-.148
.438
-.06
.438
-.072
.439
-.145
.438
-.093
.438
-.094
.438
-.107
.439
-.136
.438
-.124
.438
-.134
.438
-.079
.439
-.11
.438
-.13
.438
-.113
.439
-.107
.438
-.145
.438
-.1
.438
-.117
.439
-.178
.438
-.178
.438
-.071
.438
-.1
.439
-.115
.438
-.075
.438
-.104
.439
-.081
.438
-.043
.438
-.1
.438
-.051
.439
-.027
.438
-.069
.438
-.095
.438
-.05
.439
-.055
.438
-.105
.438
-.166
.439
-.108
.438
-.154
.438
-.059
.438
-.087
.439
-.067
.438
-.094
.438
-.092
.438
-.049
.439
-.067
.438
-.114
.438
-.089
.439
-.084
.438
-.152
.438
-.151
.438
-.079
.439
-.143
.438
-.079
.438
-.143
.438
-.108
.439
-.051
.438
-.063
.438
-.107
.439
-.086
.438
-.098
.438
-.175
.438
-.052
.439
-.128
.438
-.105
.438
-.085
.438
-.066
.439
-.083
.438
-.062
.438
-.081
.439
-.087
.438
-.138
.438
-.114
.438
-.239
.439
-.169
.438
-.137
.438
-.161
.438
-.122
.439
-.113
.438
-.194
.438
-.199
.438
-.106
.439
-.183
.438
-.109
.438
-.067
.439
-.126
.438
-.086
.438
-.094
.438
-.065
.439
-.139
.438
-.084
.438
-.099
.438
-.094
.439
-.112
.438
-.079
.438
-.091
.439
-.081
.438
-.091
.438
-.132
.438
-.097
.439
-.17
.438
-.103
.438
-.107
.438
-.134
.439
-.129
.438
-.139
.438
-.151
.439
-.106
.438
-.064
.438
-.131
.438
-.112
.439
-.101
.438
-.129
.438
-.147
.438
-.208
.439
-.263
.438
-.188
.438
-.103
.439
-.114
.438
-.087
.438
-.1
.438
-.141
.439
-.09
.438
-.072
.438
-.187
.438
-.164
.439
-.082
.438
-.143
.438
-.119
.439
-.11
.438
-.119
.438
-.158
.438
-.188
.439
-.122
.438
-.122
.438
-.083
.438
-.103
.439
-.091
.438
-.039
.438
-.174
.439
-.076
.438
-.122
.438
-.156
.438
-.129
.439
-.182
.438
-.171
.438
-.119
.438
-.118
.439
-.196
.438
-.099
.438
-.106
.439
-.173
.438
-.11
.438
-.129
.438
-.178
.439
-.088
.438
-.097
.438
-.154
.438
-.103
.439
-.191
.438
-.104
.438
-.177
.438
-.152
.439
-.096
.438
-.087
.438
-.119
.439
-.232
.438
-.225
.438
-.145
.438
-.195
.439
-.125
.438
-.147
.438
-.223
.438
-.169
.439
-.145
.438
-.147
.438
-.099
.439
-.123
.438
-.114
.438
-.128
.438
-.115
.439
-.132
.438
-.104
.438
-.123
.438
-.182
.439
-.138
.438
-.085
.438
-.082
.439
-.101
.438
-.097
.438
-.094
.438
-.063
.439
-.067
.438
-.111
.438
-.058
.438
-.07
.439
-.103
.438
-.1
.438
-.087
.439
-.138
.438
-.07
.438
-.115
.438
-.074
.439
-.151
.438
-.067
.438
-.124
.438
-.048
.439
-.058
.438
-.165
.438
-.087
.439
-.1
.438
-.047
.438
-.07
.438
-.118
.439
-.073
.438
-.07
.438
-.024
.438
-.073
.439
-.031
.438
-.069
.438
-.047
.439
-.112
.438
-.116
.438
-.11
.438
-.037
.439
-.065
.438
-.052
.438
-.034
.438
-.02
.439
-.096
.438
-.071
.438
-.082
.439
-.032
.438
-.062
.438
-.058
.438
-.094
.439
-.025
.438
-.046
.438
-.04
.438
-.087
.439
-.086
.438
-.062
.438
-.054
.438
-.052
.439
-.041
.438
-.035
.438
-.019
.439
-.019
.438
-.038
.438
-.062
.438
-.012
.439
-.033
.438
-.015
.438
-.027
.438
-.017
.439
-.015
.438
-.018
.438
-.013
.439
-.008
.438
-.027
.438
-.052
.438
-.019
.439
-.03
.438
-.002
.438
-.039
.438
-.034
.439
-.042
.438
-.024
.438
-.077
.439
-.028
.438
-.022
.438
-.028
.438
-.039
.439
-.037
.438
-.01
.438
-.009
.438
-.015
.439
-.017
.438
-.026
.438
-.04
.439
-.035
.438
-.028
.438
-.049
.438
-.062
.439
-.04
.438
-.038
.438
-.043
.438
-.012
.439
-.042
.438
-.058
.438
-.029
.439
-.073
.438
-.066
.438
-.042
.438
-.063
.439
-.026
.438
-.024
.438
-.02
.438
-.052
.439
-.087
.438
-.019
.438
-.074
.439
-.054
.438
-.029
.438
-.028
.438
-.016
.439
-.034
.438
-.038
.438
-.055
.438
-.05
.439
-.061
.438
-.048
.438
-.014
.439
-.06
.438
-.032
.438
-.022
.438
-.001
.439
-.026
.438
-.027
.438
-.034
.438
-.045
.439
-.016
.438
-.034
.438
-.017
.438
-.019
.439
-.018
.438
-.022
.438
-.017
.439
-.041
.438
-.023
.438
-.028
.438
-.069
.439
-.044
.438
-.029
.438
-.041
.438
-.06
.439
-.053
.438
-.026
.438
-.042
.439
-.053
.438
-.039
.438
-.027
.438
-.043
.439
-.072
.438
-.013
.438
-.011
.438
-.037
.439
-.069
.438
-.029
.438
-.074
.439
-.047
.438
-.03
.438
-.095
.438
-.061
.439
-.024
.438
-.062
.438
-.017
.438
-.042
.439
-.003
.438
-.031
.438
-.018
.439
-.016
.438
-.034
.438
-.028
.438
-.052
.439
-.049
.438
-.087
.438
-.033
.438
-.039
.439
-.014
.438
-.047
.438
-.041
.439
-.071
.438
-.018
.438
-.031
.438
-.056
.439
-.051
.438
-.017
.438
-.051
.438
-.041
.439
-.005
.438
-.029
.438
-.036
.439
-.051
.438
-.036
.438
-.033
.438
-.023
.439
-.06
.438
-.072
.438
-.039
.438
-.025
.439
-.071
.438
-.034
.438
-.03
.439
-.016
.438
-.027
.438
-.02
.438
-.059
.439
-.031
.438
-.015
.438
-.014
.438
-.047
.439
-.007
.438
-.04
.438
-.034
.438
-.025
.439
-.008
.438
-.001
.438
-.011
.439
-.008
.438
-.015
.438
-.03
.438
-.013
.439
-.014
.438
-.014
.438
-.012
.438
-.027
.439
-.059
.438
-.007
.438
-.039
.439
-.073
.438
-.108
.438
-.083
.438
-.022
.439
-.024
.438
-.033
.438
-.024
.438
-.018
.439
-.034
.438
-.051
.438
-.063
.439
-.031
.438
-.018
.438
-.003
.438
-.026
.439
-.063
.438
-.025
.438
-.022
.438
-.03
.439
-.027
.438
-.05
.438
-.035
.439
-.068
.438
-.003
.438
-.004
.438
-.017
.439
-.024
.438
-.002
.438
-.067
.438
-.022
.439
-.051
.438
-.06
h.438
l.439
-.003
.438
-.005
.438
-.008
.438
-.013
.439
-.015
.438
-.005
.438
-.038
.438
-.02
.439
-.018
.438
-.008
.438
-.003
.439
-.004
.438
-.001
.438
-.003
.438
-.002
.439
-.024
.438
-.039
.438
-.091
.438
-.095
.439
-.053
.438
-.014
h.438
l.439
-.035
.438
-.036
.438
-.024
.438
-.032
.439
-.079
.438
-.065
.438
-.035
.438
-.061
.439
-.031
.438
-.02
.438
-.027
.438
-.016
.439
-.044
.438
-.049
.438
-.022
.439
-.008
.438
-.05
.438
-.046
.438
-.065
.439
-.019
.438
-.002
.438
-.005
.438
-.017
.439
-.025
.438
-.014
.438
-.007
.439
-.014
.438
-.002
.438
-.025
.438
-.028
.439
-.044
.438
-.008
.438
-.016
.438
-.019
.439
-.016
.438
-.037
.438
-.033
.439
-.042
.438
-.024
.438
-.009
.438
-.016
.439
-.021
.438
-.033
.438
-.007
.438
-.018
.439
-.038
.438
-.042
.438
-.004
.439
-.025
.438
-.019
.438
-.018
.438
-.011
.439
-.019
.438
-.001
.438
-.002
.438
-.021
h.439
l.438
-.022
.438
-.027
h.439
l.438
-.013
.438
-.013
.438
-.023
.439
-.029
.438
-.032
.438
-.006
.438
-.016
.439
-.004
.438
-.01
.438
-.015
.439
-.049
.438
-.004
.438
-.025
.438
-.022
.439
-.008
.438
-.028
.438
-.026
.438
-.031
.439
-.042
.438
-.041
.438
-.029
.439
-.048
.438
-.008
.438
-.017
.438
-.012
.439
-.011
.438
-.004
.438
-.001
.438
-.003
.439
-.016
.438
-.015
.438
-.008
.438
-.015
.439
-.028
.438
-.011
.438
-.038
.439
-.013
.438
-.014
.438
-.012
.438
-.02
.439
-.009
.438
-.012
.438
-.042
.438
-.013
.439
-.024
.438
-.026
.438
-.003
.439
-.012
.438
-.021
.438
-.023
.438
-.004
.439
-.04
.438
-.022
.438
-.011
.438
-.014
.439
-.041
.438
-.016
.438
-.023
.439
-.014
.438
-.013
.438
-.041
.438
-.002
h.439
l.438
-.035
.438
-.057
.438
-.03
.439
-.004
.438
-.002
.438
-.002
.439
-.014
.438
-.012
.438
-.016
.438
-.047
.439
-.032
.438
-.025
.438
-.013
.438
-.052
.439
-.044
.438
-.009
.438
-.028
.439
-.01
.438
-.017
.438
-.004
.438
-.021
.439
-.016
.438
-.025
.438
-.033
.438
-.099
.439
-.044
.438
-.035
.438
-.065
.439
-.055
.438
-.025
.438
-.075
.438
-.006
.439
-.04
.438
-.015
.438
-.039
.438
-.015
.439
-.045
.438
-.021
.438
-.029
.439
-.04
.438
-.032
.438
-.046
.438
-.051
.439
-.014
.438
-.012
.438
-.058
.438
-.032
.439
-.035
.438
-.042
.438
-.03
.438
-.031
.439
-.024
.438
-.052
.438
-.021
.439
-.028
.438
-.051
.438
-.039
.438
-.07
.439
-.044
.438
-.013
.438
-.024
.438
-.021
.439
-.009
.438
-.078
.438
-.031
.439
-.028
.438
-.025
.438
-.056
.438
-.02
.439
-.01
.438
-.015
.438
-.006
.438
-.044
.439
-.026
.438
-.028
.438
-.005
.439
-.009
.438
-.009
.438
-.055
.438
-.036
.439
-.047
.438
-.047
.438
-.104
.438
-.098
.439
-.094
L770
60" aria-label="line"/>
</svg>
