<svg class="plot-d6a7b5" fill="currentColor" font-family="system-ui, sans-serif" font-size="10" text-anchor="middle" width="830" height="470" viewBox="0 0 830 470" xmlns="http://www.w3.org/2000/svg" xmlns:xlink="http://www.w3.org/1999/xlink" color="#1e90ff"><style>:where(.plot-d6a7b5){--plot-background: white;display:block;height:intrinsic;max-width:100%}:where(.plot-d6a7b5 text),:where(.plot-d6a7b5 tspan){white-space:pre}</style><g aria-label="y-grid" stroke="currentColor" stroke-opacity=".1"><line x1="60" x2="770" y1="410" y2="410"/><line x1="60" x2="770" y1="378.557" y2="378.557"/><line x1="60" x2="770" y1="347.114" y2="347.114"/><line x1="60" x2="770" y1="315.671" y2="315.671"/><line x1="60" x2="770" y1="284.227" y2="284.227"/><line x1="60" x2="770" y1="252.784" y2="252.784"/><line x1="60" x2="770" y1="221.341" y2="221.341"/><line x1="60" x2="770" y1="189.898" y2="189.898"/><line x1="60" x2="770" y1="158.455" y2="158.455"/><line x1="60" x2="770" y1="127.012" y2="127.012"/><line x1="60" x2="770" y1="95.568" y2="95.568"/><line x1="60" x2="770" y1="64.125" y2="64.125"/></g><g aria-label="y-axis tick" fill="none" stroke="currentColor"><path transform="translate(60,410)" d="M0,0L-6,0"/><path transform="translate(60,378.55684921661634)" d="M0,0L-6,0"/><path transform="translate(60,347.11369843323274)" d="M0,0L-6,0"/><path transform="translate(60,315.6705476498491)" d="M0,0L-6,0"/><path transform="translate(60,284.2273968664655)" d="M0,0L-6,0"/><path transform="translate(60,252.7842460830818)" d="M0,0L-6,0"/><path transform="translate(60,221.34109529969817)" d="M0,0L-6,0"/><path transform="translate(60,189.8979445163145)" d="M0,0L-6,0"/><path transform="translate(60,158.45479373293085)" d="M0,0L-6,0"/><path transform="translate(60,127.01164294954722)" d="M0,0L-6,0"/><path transform="translate(60,95.56849216616357)" d="M0,0L-6,0"/><path transform="translate(60,64.12534138277994)" d="M0,0L-6,0"/></g><g aria-label="y-axis tick label" text-anchor="end" font-variant="tabular-nums"><text y=".32em" transform="translate(-9,0) translate(60,410)">0</text><text y=".32em" transform="translate(-9,0) translate(60,378.55684921661634)">5,000</text><text y=".32em" transform="translate(-9,0) translate(60,347.11369843323274)">10,000</text><text y=".32em" transform="translate(-9,0) translate(60,315.6705476498491)">15,000</text><text y=".32em" transform="translate(-9,0) translate(60,284.2273968664655)">20,000</text><text y=".32em" transform="translate(-9,0) translate(60,252.7842460830818)">25,000</text><text y=".32em" transform="translate(-9,0) translate(60,221.34109529969817)">30,000</text><text y=".32em" transform="translate(-9,0) translate(60,189.8979445163145)">35,000</text><text y=".32em" transform="translate(-9,0) translate(60,158.45479373293085)">40,000</text><text y=".32em" transform="translate(-9,0) translate(60,127.01164294954722)">45,000</text><text y=".32em" transform="translate(-9,0) translate(60,95.56849216616357)">50,000</text><text y=".32em" transform="translate(-9,0) translate(60,64.12534138277994)">55,000</text></g><g aria-label="y-axis label" text-anchor="start"><text y=".71em" transform="translate(-57,-57) translate(60,60)">↑ Visible Vestiges (30 days)</text></g><g aria-label="x-axis tick" fill="none" stroke="currentColor"><path transform="translate(109.0650406504065,410)" d="M0,0L0,6"/><path transform="translate(240.38617886178864,410)" d="M0,0L0,6"/><path transform="translate(373.1504065040651,410)" d="M0,0L0,6"/><path transform="translate(505.9146341463415,410)" d="M0,0L0,6"/><path transform="translate(637.2357723577236,410)" d="M0,0L0,6"/><path transform="translate(768.5569105691056,410)" d="M0,0L0,6"/></g><g aria-label="x-axis tick label" font-variant="tabular-nums"><text transform="translate(0,9) translate(109.0650406504065,410)"><tspan x="0" y=".71em">Apr</tspan><tspan x="0" dy="1em">2023</tspan></text><text y=".71em" transform="translate(0,9) translate(240.38617886178864,410)">Jul</text><text y=".71em" transform="translate(0,9) translate(373.1504065040651,410)">Oct</text><text transform="translate(0,9) translate(505.9146341463415,410)"><tspan x="0" y=".71em">Jan</tspan><tspan x="0" dy="1em">2024</tspan></text><text y=".71em" transform="translate(0,9) translate(637.2357723577236,410)">Apr</text><text y=".71em" transform="translate(0,9) translate(768.5569105691056,410)">Jul</text></g><g aria-label="line" fill="none" stroke="currentColor" stroke-width="1.5" stroke-linejoin="round" stroke-linecap="round"><path d="M60,410L60.962,406.843L61.924,395.297L62.886,389.071L63.848,384.657L64.81,377.375L65.772,371.639L66.734,366.263L67.696,355.383L68.659,346.774L69.621,336.555L70.583,320.727L71.545,305.804L72.507,298.056L73.469,286.843L74.431,279.228L75.393,270.499L76.355,259.085L77.317,251.401L78.279,243.867L79.241,233.642L80.203,222.303L81.165,214.273L82.127,200.57L83.089,194.08L84.051,188.024L85.014,177.101L85.976,166.643L86.938,158.593L87.9,147.374L88.862,139.344L89.824,140.702L90.786,131.137L91.748,123.025L92.71,123.05L93.672,121.226L94.634,120.912L95.596,127.194L96.558,127.276L97.52,129.156L98.482,139.168L99.444,140.639L100.407,134.325L101.369,132.936L102.331,125.282L103.293,123.66L104.255,126.257L105.217,121.93L106.179,119.415L107.141,122.364L108.103,120.597L109.065,115.956L110.027,117.837L110.989,107.379L111.951,97.342L112.913,99.895L113.875,97.933L114.837,94.776L115.799,95.952L116.762,92.921L117.724,89.752L118.686,93.94L119.648,92.519L120.61,86.406L121.572,82.45L122.534,72.653L123.496,67.722L124.458,67.653L125.42,64L126.382,60L127.344,66.113L128.306,70.716L129.268,73.112L130.23,78.866L131.192,76.734L132.154,73.181L133.117,78.143L134.079,78.407L135.041,78.042L136.003,86.123L136.965,91.016L137.927,95.097L138.889,103.825L139.851,109.278L140.813,106.831L141.775,110.806L142.737,110.315L143.699,112.145L144.661,121L145.623,122.037L146.585,125.125L147.547,134.464L148.509,140.117L149.472,144.192L150.434,151.933L151.396,150.82L152.358,150.16L153.32,154.179L154.282,157.065L155.244,158.254L156.206,161.825L157.168,162.373L158.13,166.385L159.092,173.277L160.054,176.572L161.016,173.334L161.978,175.05L162.94,172.315L163.902,170.347L164.864,171.629L165.827,169.957L166.789,171.736L167.751,176.245L168.713,178.874L169.675,180.918L170.637,184.88L171.599,184.898L172.561,182.823L173.523,188.98L174.485,191.036L175.447,190.005L176.409,192.407L177.371,192.363L178.333,194.413L179.295,199.916L180.257,200.696L181.22,197.652L182.182,196.545L183.144,192.237L184.106,191.866L185.068,194.35L186.03,192.445L186.992,191.269L187.954,195.589L188.916,196.451L189.878,197.117L190.84,199.714L191.802,195.413L192.764,193.596L193.726,195.74L194.688,194.753L195.65,192.778L196.612,194.69L197.575,194.948L198.537,194.558L199.499,197.96L200.461,199.035L201.423,199.457L202.385,200.519L203.347,198.557L204.309,198.381L205.271,200.142L206.233,198.174L207.195,197.834L208.157,201.249L209.119,206.789L210.081,208.374L211.043,212.77L212.005,212.701L212.967,213.015L213.93,215.04L214.892,215.216L215.854,214.43L216.816,218.348L217.778,218.109L218.74,219.53L219.702,225.806L220.664,227.529L221.626,228.535L222.588,231.434L223.55,231.761L224.512,232.101L225.474,232.126L226.436,233.453L227.398,232.459L228.36,235.384L229.322,234.818L230.285,235.069L231.247,236.547L232.209,234.755L233.171,234.711L234.133,236.025L235.095,234.516L236.057,233.214L237.019,233.107L237.981,230.453L238.943,229.114L239.905,231.177L240.867,231.227L241.829,230.541L242.791,233.484L243.753,232.56L244.715,233.893L245.678,236.572L246.64,236.899L247.602,236.295L248.564,238.44L249.526,237.673L250.488,237.05L251.45,240.169L252.412,239.566L253.374,239.805L254.336,241.974L255.298,240.666L256.26,239.591L257.222,240.767L258.184,239.402L259.146,240.238L260.108,241.515L261.07,240.408L262.033,240.742L262.995,242.609L263.957,243.1L264.919,241.779L265.881,245.483L266.843,247.816L267.805,246.722L268.767,249.451L269.729,248.527L270.691,247.797L271.653,249.313L272.615,247.275L273.577,247.288L274.539,247.307L275.501,244.93L276.463,243.345L277.425,246.823L278.388,243.798L279.35,242.446L280.312,243.641L281.274,242.056L282.236,241.641L283.198,243.32L284.16,241.59L285.122,240.389L286.084,241.433L287.046,238.635L288.008,238.415L288.97,239.805L289.932,239.176L290.894,236.975L291.856,235.365L292.818,231.258L293.78,229.938L294.743,229.938L295.705,228.435L296.667,227.001L297.629,229.994L298.591,228.139L299.553,227.592L300.515,229.957L301.477,228.63L302.439,228.925L303.401,232.78L304.363,232.176L305.325,229.529L306.287,232.988L307.249,232.793L308.211,230.378L309.173,231.296L310.136,228.177L311.098,227.812L312.06,228.472L313.022,226.542L313.984,225.806L314.946,228.139L315.908,227.454L316.87,227.215L317.832,230.032L318.794,231.818L319.756,235.126L320.718,241.546L321.68,242.71L322.642,242.194L323.604,243.892L324.566,244.244L325.528,242.917L326.491,244.634L327.453,245.118L328.415,244.005L329.377,246.087L330.339,246.961L331.301,246.118L332.263,247.37L333.225,247.118L334.187,247.231L335.149,248.464L336.111,251.011L337.073,253.734L338.035,257.796L338.997,259.299L339.959,262.268L340.921,267.324L341.883,266.204L342.846,266.89L343.808,269.047L344.77,268.323L345.732,269.455L346.694,271.38L347.656,272.153L348.618,274.027L349.58,275.48L350.542,276.876L351.504,277.234L352.466,277.354L353.428,274.631L354.39,272.317L355.352,273.662L356.314,273.681L357.276,274.474L358.238,275.216L359.201,275.48L360.163,276.624L361.125,279.706L362.087,279.14L363.049,278.436L364.011,279.448L364.973,277.555L365.935,278.75L366.897,280.165L367.859,278.958L368.821,278.555L369.783,282.662L370.745,282.504L371.707,282.9L372.669,284.894L373.631,281.574L374.593,280.674L375.556,281.687L376.518,279.97L377.48,280.813L378.442,282.07L379.404,283.177L380.366,284.592L381.328,288.466L382.29,289.805L383.252,287.598L384.214,286.649L385.176,283.919L386.138,283.599L387.1,284.951L388.062,285.007L389.024,284.881L389.986,286.271L390.949,286.869L391.911,287.661L392.873,290.183L393.835,285.982L394.797,282.768L395.759,282.85L396.721,282.599L397.683,283.039L398.645,286.076L399.607,285.812L400.569,287.202L401.531,290.17L402.493,288.749L403.455,284.756L404.417,284.397L405.379,281.165L406.341,280.655L407.304,281.196L408.266,279.398L409.228,280.064L410.19,282.215L411.152,283.334L412.114,284.158L413.076,287.045L414.038,286.089L415,286.007L415.962,287.963L416.924,286.68L417.886,287.252L418.848,290.384L419.81,290.849L420.772,291.038L421.734,293.107L422.696,293.245L423.659,291.019L424.621,290.906L425.583,289.755L426.545,289.661L427.507,290.843L428.469,289.868L429.431,290.692L430.393,294.295L431.355,296.691L432.317,299.05L433.279,302.188L434.241,301.955L435.203,301.817L436.165,305.099L437.127,305.653L438.089,307.376L439.051,309.916L440.014,311.985L440.976,313.205L441.938,317.224L442.9,315.954L443.862,313.539L444.824,313.778L445.786,312.463L446.748,310.954L447.71,311.753L448.672,311.269L449.634,314.142L450.596,317.041L451.558,318.576L452.52,318.941L453.482,319.695L454.444,317.243L455.407,317.318L456.369,318.098L457.331,316.488L458.293,315.664L459.255,316.079L460.217,313.243L461.179,313.47L462.141,314.199L463.103,314.413L464.065,313.004L465.027,312.457L465.989,310.212L466.951,310.193L467.913,311.803L468.875,310.52L469.837,309.112L470.799,311.696L471.762,313.759L472.724,315.853L473.686,318.456L474.648,318.89L475.61,318.261L476.572,320.192L477.534,318.777L478.496,318.431L479.458,321.399L480.42,322.89L481.382,324.393L482.344,327.286L483.306,327.141L484.268,326.877L485.23,328.147L486.192,328.896L487.154,329.996L488.117,332.159L489.079,332.857L490.041,334.04L491.003,335.04L491.965,335.14L492.927,336.486L493.889,337.725L494.851,335.574L495.813,333.423L496.775,334.914L497.737,334.838L498.699,333.285L499.661,332.939L500.623,331.612L501.585,330.663L502.547,330.468L503.509,329.462L504.472,328.103L505.434,328.946L506.396,328.858L507.358,327.355L508.32,326.764L509.282,324.185L510.244,323.487L511.206,325.028L512.168,324.443L513.13,325.556L514.092,325.475L515.054,323.928L516.016,324.953L516.978,324.971L517.94,323.72L518.902,323.978L519.864,325.563L520.827,325.833L521.789,327.078L522.751,328.889L523.713,328.921L524.675,327.499L525.637,326.393L526.599,325.374L527.561,326.141L528.523,327.361L529.485,327.757L530.447,327.562L531.409,327.537L532.371,327.606L533.333,328.286L534.295,328.411L535.257,327.361L536.22,324.449L537.182,325.204L538.144,323.462L539.106,322.959L540.068,324.795L541.03,323.198L541.992,324.374L542.954,326.468L543.916,323.689L544.878,320.764L545.84,319.865L546.802,316.243L547.764,315.086L548.726,314.4L549.688,312.677L550.65,312.206L551.612,313.124L552.575,312.287L553.537,313.809L554.499,314.463L555.461,310.577L556.423,308.891L557.385,308.3L558.347,307.168L559.309,307.948L560.271,308.583L561.233,305.967L562.195,305.552L563.157,305.376L564.119,306.866L565.081,305.54L566.043,303.401L567.005,298.892L567.967,297.358L568.93,296.446L569.892,291.975L570.854,289.969L571.816,291.893L572.778,293.447L573.74,294.151L574.702,296.371L575.664,294.22L576.626,292.264L577.588,293.497L578.55,292.503L579.512,291.635L580.474,291.717L581.436,290.214L582.398,291.918L583.36,294.503L584.322,293.579L585.285,291.874L586.247,293.239L587.209,291.384L588.171,291.151L589.133,292.692L590.095,292.918L591.057,294.811L592.019,296.214L592.981,297.408L593.943,300.949L594.905,305.024L595.867,303.445L596.829,304.401L597.791,307.615L598.753,309.244L599.715,310.03L600.678,310.96L601.64,311.501L602.602,313.092L603.564,316.237L604.526,316.425L605.488,315.57L606.45,317.538L607.412,316.947L608.374,318.111L609.336,320.846L610.298,320.771L611.26,320.984L612.222,323.72L613.184,325.179L614.146,324.764L615.108,326.21L616.07,323.349L617.033,322.802L617.995,323.965L618.957,325.846L619.919,328.525L620.881,332.122L621.843,334.97L622.805,337.832L623.767,343.158L624.729,346.101L625.691,348.384L626.653,350.472L627.615,352.49L628.577,355.006L629.539,357.113L630.501,358.358L631.463,359.886L632.425,363.244L633.388,364.653L634.35,363.414L635.312,365.225L636.274,365.961L637.236,365.269L638.198,365.898L639.16,367.08L640.122,366.885L641.084,367.841L642.046,368.652L643.008,369.193L643.97,371.941L644.932,372.507L645.894,372.507L646.856,371.117L647.818,368.545L648.78,365.759L649.743,364.571L650.705,362.785L651.667,360.131L652.629,358.666L653.591,357.352L654.553,355.188L655.515,353.427L656.477,351.006L657.439,349.246L658.401,348.252L659.363,346.655L660.325,345.806L661.287,345.391L662.249,347.504L663.211,348.252L664.173,349.459L665.136,349.755L666.098,349.868L667.06,349.793L668.022,349.396L668.984,349.837L669.946,351.384L670.908,351.623L671.87,352.163L672.832,353.446L673.794,353.905L674.756,353.056L675.718,353.843L676.68,354.094L677.642,353.566L678.604,354.05L679.566,354.698L680.528,353.937L681.491,353.151L682.453,353.975L683.415,353.736L684.377,354.679L685.339,354.717L686.301,352.855L687.263,352.522L688.225,351.22L689.187,351.22L690.149,350.881L691.111,350.239L692.073,349.007L693.035,348.812L693.997,348.101L694.959,347.522L695.921,348.843L696.883,347.705L697.846,346.246L698.808,346.711L699.77,345.56L700.732,345.567L701.694,346.07L702.656,347.617L703.618,347.906L704.58,348.51L705.542,348.132L706.504,345.001L707.466,344.844L708.428,343.743L709.39,344.529L710.352,344.535L711.314,344.755L712.276,343.737L713.238,345.057L714.201,346.227L715.163,346.372L716.125,347.441L717.087,346.019L718.049,343.655L719.011,343.756L719.973,342.46L720.935,342.668L721.897,342.951L722.859,341.85L723.821,340.756L724.783,341.9L725.745,341.517L726.707,340.404L727.669,341.794L728.631,339.548L729.593,339.115L730.556,338.385L731.518,337.266L732.48,336.467L733.442,336.719L734.404,338.09L735.366,337.882L736.328,338.737L737.29,336.605L738.252,334.442L739.214,333.681L740.176,333.952L741.138,331.505L742.1,331.537L743.062,331.719L744.024,331.883L744.986,332.329L745.949,333.901L746.911,333.449L747.873,334.568L748.835,333.706L749.797,333.084L750.759,336.065L751.721,337.586L752.683,337.549L753.645,339.102L754.607,338.75L755.569,338.398L756.531,340.97L757.493,340.825L758.455,338.417L759.417,339.63L760.379,340.24L761.341,339.215L762.304,340.14L763.266,341.139L764.228,341.781L765.19,344.334L766.152,346.441L767.114,347.277L768.076,347.938L769.038,347.887L770,347.516"/></g></svg>