<svg xmlns="http://www.w3.org/2000/svg" width="830" height="470" fill="currentColor" class="plot-d6a7b5" font-family="system-ui, sans-serif" font-size="10" style="--plot-background:white;display:block;height:intrinsic;max-width:100%;color:#1e90ff" text-anchor="middle" viewBox="0 0 830 470">
    <style>
        :where(.plot-d6a7b5 text),:where(.plot-d6a7b5 tspan){white-space:pre}
    </style>
    <path stroke="currentColor" stroke-opacity=".1" d="
M60
410
h710
M60
362.919
h710
M60
315.838
h710
M60
268.757
h710
M60
221.676
h710
M60
174.595
h710
M60
127.514
h710
M60
80.433
h710" aria-hidden="true" aria-label="y-grid"/>
    <path fill="none" stroke="currentColor" d="
M60
410
h-6
m6
-47.081
h-6
m6
-47.081
h-6
m6
-47.081
h-6
m6
-47.081
h-6
m6
-47.081
h-6
m6
-47.081
h-6
m6
-47.081
h-6" aria-hidden="true" aria-label="y-axis tick"/>
    <g aria-label="y-axis tick label" font-variant="tabular-nums" text-anchor="end">
        <text y=".32em" transform="translate(51 410)">0</text>
        <text y=".32em" transform="translate(51 362.919)">2,000</text>
        <text y=".32em" transform="translate(51 315.838)">4,000</text>
        <text y=".32em" transform="translate(51 268.757)">6,000</text>
        <text y=".32em" transform="translate(51 221.676)">8,000</text>
        <text y=".32em" transform="translate(51 174.595)">10,000</text>
        <text y=".32em" transform="translate(51 127.514)">12,000</text>
        <text y=".32em" transform="translate(51 80.433)">14,000</text>
    </g>
    <text y=".71em" aria-label="y-axis label" text-anchor="start" transform="translate(3 3)">↑ Visible vestiges (8 days)</text>
    <path fill="none" stroke="currentColor" d="
M80.727
410
v6
m55.475
-6
v6
m56.085
-6
v6
m56.084
-6
v6
m55.476
-6
v6
m55.475
-6
v6
m56.084
-6
v6
m56.085
-6
v6
m54.866
-6
v6
m55.475
-6
v6
m56.084
-6
v6
m56.085
-6
v6
m54.866
-6
v6" aria-hidden="true" aria-label="x-axis tick"/>
    <g aria-label="x-axis tick label" font-variant="tabular-nums">
        <text transform="translate(80.727 419)"><tspan x="0" y=".71em">Apr</tspan><tspan x="0" dy="1em">2023</tspan></text>
        <text y=".71em" transform="translate(136.202 419)">Jul</text>
        <text y=".71em" transform="translate(192.287 419)">Oct</text>
        <text transform="translate(248.371 419)"><tspan x="0" y=".71em">Jan</tspan><tspan x="0" dy="1em">2024</tspan></text>
        <text y=".71em" transform="translate(303.847 419)">Apr</text>
        <text y=".71em" transform="translate(359.322 419)">Jul</text>
        <text y=".71em" transform="translate(415.406 419)">Oct</text>
        <text transform="translate(471.491 419)"><tspan x="0" y=".71em">Jan</tspan><tspan x="0" dy="1em">2025</tspan></text>
        <text y=".71em" transform="translate(526.357 419)">Apr</text>
        <text y=".71em" transform="translate(581.832 419)">Jul</text>
        <text y=".71em" transform="translate(637.916 419)">Oct</text>
        <text transform="translate(694.001 419)"><tspan x="0" y=".71em">Jan</tspan><tspan x="0" dy="1em">2026</tspan></text>
        <text y=".71em" transform="translate(748.867 419)">Apr</text>
    </g>
    <path fill="none" stroke="currentColor" stroke-linecap="round" stroke-linejoin="round" stroke-width="1.5" d="
m60
410
.406
-11.817
.407
-43.221
.406
-23.305
.407
-16.525
.406
-27.26
.406
-21.469
.407
-20.127
.406
-28.908
.407
10.994
.406
-14.949
.407
-42.726
.406
-28.601
.406
-7.533
.407
-21.846
.406
12.218
.407
-.448
.406
-4.472
.406
30.485
.407
27.66
.406
-9.275
.407
-.471
.406
-1.554
.406
-18.62
.407
18.432
.406
6.097
.407
-12.688
.406
-.871
.407
12.311
.406
-11.935
.406
9.416
.407
-13.841
.406
-36.441
.407
-6.003
.406
11.982
.406
1.836
.407
20.693
.406
24.67
.407
6.215
.406
27.895
.406
25.118
.407
-23.188
.406
-24.34
.407
-25.871
.406
-39.949
.406
-6.826
.407
-1.789
.406
-23.188
.407
12.736
.406
25.4
.407
-1.883
.406
9.722
.406
-5.509
.407
-30.438
.406
-15.277
.407
6.285
.406
-19.256
.406
7.109
.407
9.84
.406
-8.969
.407
13.442
.406
16.808
.406
-20.881
.407
-3.554
.406
-1.154
L86.417
60
l.406
17.561
.407
17.82
.406
-1.459
.406
15.466
.407
22.575
.406
7.698
.407
19.774
.406
.047
.406
-14.548
.407
-1.412
.406
10.357
.407
-9.157
.406
6.803
.406
19.398
.407
6.497
.406
17.749
.407
15.537
.406
-13.441
.407
-3.861
.406
-3.013
.406
-24.977
.407
-1.624
.406
8.898
.407
-15.348
.406
7.957
.406
23.234
.407
2.731
.406
15.937
.407
1.742
.406
-19.751
.406
11.464
.407
2.025
.406
-8.687
.407
5.862
.406
5.815
.407
-7.157
.406
19.233
.406
13.724
.407
-4.12
.406
-12.57
.407
-7.18
.406
-16.808
.406
9.981
.407
-3.719
.406
-14.313
.407
9.864
.406
15.56
.406
-.447
.407
14.877
.406
-2.778
.407
-6.356
.406
7.392
.406
1.036
.407
-1.224
.406
9.534
.407
4.072
.406
.942
.407
9.345
.406
8.616
.406
-8.663
.407
-17.066
.406
-8.969
.407
-19.257
.406
4.591
.406
-5.532
.407
-8.498
.406
6.403
.407
23.446
.406
-5.202
.406
11.44
.407
-5.697
.406
-15.419
.407
-3.389
.406
-1.884
.407
-10.004
.406
4.943
.406
4.214
.407
6.12
.406
11.865
.407
13.183
.406
3.389
.406
6.309
.407
10.146
.406
-4.967
.407
2.448
.406
8.993
.406
-10.758
.407
3.319
.406
2.542
.407
-.306
.406
4.308
.407
-2.142
.406
-2.26
.406
3.013
.407
.353
.406
-5.72
.407
-.235
.406
3.531
.406
-5.909
.407
-.118
.406
6.898
.407
-4.52
.406
1.224
.406
3.79
.407
-8.498
.406
6.38
.407
.894
.406
-6.662
.407
3.013
.406
10.57
.406
-6.662
.407
9.863
.406
-.706
.407
-4.355
.406
3.861
.406
-2.119
.407
-13.277
.406
-.211
.407
-1.648
.406
-11.158
.406
-.448
.407
5.626
.406
-1.718
.407
3.437
.406
10.169
.406
-3.295
.407
18.455
.406
9.134
.407
-6.615
.406
4.449
.407
6.074
.406
-12.665
.406
4.92
.407
-1.813
.406
-5.908
.407
.565
.406
3.719
.406
-9.91
.407
9.416
.406
.07
.407
-6.92
.406
4.684
.406
-.471
.407
-8.404
.406
4.026
.407
-2.26
.406
-2.778
.407
-1.483
.406
-.424
.406
3.508
.407
5.673
.406
7.251
.407
-7.015
.406
5.602
.406
7.321
.407
-3.036
.406
.447
.407
-2.448
.406
-14.666
.406
3.602
.407
3.083
.406
-12.076
.407
.753
.406
-1.483
.407
-5.438
.406
11.064
.406
2.307
.407
-10.075
.406
6.898
.407
2.048
.406
-10.264
.406
4.637
.407
-1.647
.406
-4.614
.407
-4.026
.406
-4.308
.406
-20.762
.407
5.108
.406
4.331
.407
-5.155
.406
4.237
.407
12.43
.406
4.684
.406
20.645
.407
10.758
.406
-4.52
.407
4.285
.406
5.132
.406
-9.864
.407
.118
.406
2.919
.407
-8.828
.406
-5.555
.406
-3.108
.407
-15.042
.406
3.201
.407
2.307
.406
-13.277
.407
.024
.406
7.509
.406
-1.365
.407
9.134
.406
7.297
.407
.189
.406
15.301
.406
6.026
.407
.73
.406
4.967
.407
2.095
.406
-4.99
.406
.777
.407
-1.272
.406
-1.577
.407
2.236
.406
5.203
.406
1.2
.407
.66
.406
-.212
.407
-7.251
.406
1.53
.407
-.047
.406
-3.813
.406
3.813
.407
3.32
.406
4.143
.407
14.359
.406
5.226
.406
-8.78
.407
.541
.406
-3.484
.407
-8.78
.406
5.908
.406
-3.719
.407
-.73
.406
17.232
.407
3.601
.406
2.119
.407
6.144
.406
-8.78
.406
-16.62
.407
-12.83
.406
-3.554
.407
-3.131
.406
2.942
.406
2.637
.407
1.201
.406
14.265
.407
12.947
.406
-5.626
.406
-2.754
.407
-2.99
.406
-6.05
.407
6.804
.406
5.155
.407
-1.695
.406
5.838
.406
9.228
.407
-3.837
.406
5.085
.407
-5.791
.406
-11.818
.406
-2.566
.407
4.567
.406
-4.567
.407
7.345
.406
5.344
.406
2.825
.407
8.945
.406
1.248
.407
-11.606
.406
-5.391
.407
-9.84
.406
-11.982
.406
-2.707
.407
.965
.406
-.023
.407
7.462
.406
7.839
.406
3.037
.407
10.193
.406
4.59
.407
-13.983
.406
-7.085
.406
-.919
.407
-.306
.406
8.64
.407
4.567
.406
-5.344
.406
15.137
.407
11.322
.406
-8.192
.407
-9.439
.406
-7.557
.407
-16.125
.406
4.426
.406
-.354
.407
-8.898
.406
9.063
.407
11.394
.406
.141
.406
5.344
.407
.73
.406
-8.31
.407
7.391
.406
4.803
.406
-5.391
.407
5.791
.406
11.676
.407
1.13
.406
8.875
.407
-5.933
.406
-13.888
.406
-4.45
.407
-2.872
.406
-7.391
.407
2.472
.406
-1.625
.406
3.743
.407
13.889
.406
13.63
.407
-.047
.406
5.579
.406
-4.025
.407
-.871
.406
2.777
.407
.306
.406
-2.354
.407
8.875
.406
.824
.406
1.342
.407
6.167
.406
7.251
.407
-9.652
.406
-6.309
.406
-10.946
.407
-8.639
.406
-1.719
.407
-.447
.406
-7.98
.406
9.581
.407
6.003
.406
.4
.407
3.413
.406
1.083
.407
-9.699
.406
.471
.406
-4.096
.407
-2.99
.406
4.803
.407
.141
.406
-7.863
.406
6.003
.407
1.578
.406
.659
.407
1.059
.406
-1.318
.406
-1.083
.407
11.37
.406
6.521
.407
-1.366
.406
1.177
.406
5.297
.407
3.46
.406
5.297
.407
1.177
.406
-6.121
.407
2.001
.406
4.52
.406
-5.391
.407
-3.013
.406
3.673
.407
-.754
.406
5.085
.406
3.484
.407
-7.298
.406
.212
.407
3.061
.406
-3.508
.406
-1.318
.407
-5.391
.406
-2.213
.407
6.544
.406
5.391
.407
-3.319
.406
.918
.406
-.565
.407
-4.779
.406
-4.143
.407
-.212
.406
-2.848
.406
-.895
.407
-2.871
.406
-4.308
.407
5.673
.406
1.2
.406
-7.344
.407
-.283
.406
3.578
.407
-2.048
.406
3.014
.407
.588
.406
-3.837
.406
4.637
.407
3.555
.406
-5.132
.407
7.557
.406
1.812
.406
-4.896
.407
8.098
.406
.471
.407
-3.908
.406
8.545
.406
-1.553
.407
2.236
.406
9.887
.407
-1.836
.406
-4.096
.407
-.848
.406
-7.956
.406
-10.641
.407
-1.012
.406
-4.402
.407
.377
.406
.353
.406
-2.119
.407
4.12
.406
9.934
.407
-4.449
.406
-5.485
.406
-11.794
.407
-.283
.406
-1.789
.407
1.413
.406
-.801
.406
1.107
.407
10.146
.406
13.841
.407
-5.131
.406
-3.955
.407
-5.391
.406
-11.888
.406
.094
.407
-4.731
.406
-4.402
.407
6.803
.406
10.287
.406
-.612
.407
11.299
.406
-3.86
.407
-12.995
.406
-4.26
.406
-.071
.407
-7.321
.406
3.931
.407
.8
.406
-2.307
.407
8.546
.406
.164
.406
-4.001
.407
-1.013
.406
-12.712
.407
-17.843
.406
3.248
.406
-.753
.407
-5.932
.406
.753
.407
7.039
.406
9.863
.406
14.125
.407
2.165
.406
-4.543
.407
4.685
.406
7.721
.407
-4.12
.406
1.224
.406
-2.942
.407
-2.637
.406
10.57
.407
4.002
.406
-12.335
.406
-2.731
.407
1.036
.406
-3.32
.407
5.556
.406
-2.919
.406
-.283
.407
10.711
.406
7.628
.407
-1.648
.406
7.486
.407
-1.719
.406
-8.427
.406
1.977
.407
-.989
.406
1.601
.407
5.509
.406
.094
.406
.894
.407
14.03
.406
3.649
.407
-6.638
.406
-1.577
.406
.306
.407
-4.473
.406
-.612
.407
1.648
.406
-1.483
.406
4.096
.407
1.106
.406
-4.637
.407
1.694
.406
-2.259
.407
-15.396
.406
-4.684
.406
3.272
.407
7.509
.406
12.194
.407
13.371
.406
12.735
.406
19.704
.407
13.559
.406
8.64
.407
.517
.406
-.612
.406
-.4
.407
-1.153
.406
-1.931
.407
-1.247
.406
-1.648
.407
-2.613
.406
-4.12
.406
-11.888
.407
-7.109
.406
-5.744
.407
-5.602
.406
-4.85
.406
-4.049
.407
-4.896
.406
3.578
.407
-2.048
.406
-2.99
.406
-2.518
.407
-4.92
.406
-1.154
.407
3.037
.406
-1.012
.407
-.095
.406
6.262
.406
2.731
.407
1.507
.406
3.154
.407
.8
.406
.918
.406
3.437
.407
-5.767
.406
-1.836
.407
4.967
.406
-2.142
.406
-.871
.407
2.424
.406
2.613
.407
4.755
.406
5.368
.407
-.777
.406
1.553
.406
-1.153
.407
-4.826
.406
-2.683
.407
.941
.406
-6.615
.406
-1.6
.407
-.542
.406
.848
.407
1.341
.406
.283
.406
-4.944
.407
3.39
.406
2.519
.407
-.871
.406
-1.412
.406
1.035
.407
1.06
.406
1.6
.407
-.258
.406
-3.508
.407
-4.426
.406
-.541
.406
-2.801
.407
-.659
.406
2.236
.407
-1.177
.406
.612
.406
5.461
.407
.142
.406
1.553
.407
.118
.406
-5.673
.406
-2.119
.407
-.259
.406
-5.179
.407
2.142
.406
4.897
.407
2.189
.406
5.626
.406
2.778
.407
.235
.406
-4.896
.407
-1.483
.406
-7.415
.406
-1.813
h.407
l.406
.165
.407
-2.66
.406
13.159
.406
.541
.407
4.12
.406
-1.742
.407
-6.003
.406
-7.439
.407
3.013
.406
-9.18
.406
1.859
.407
.659
.406
-6.567
.407
1.342
.406
7.462
.406
-3.931
.407
.423
.406
-.753
.407
-7.321
.406
7.392
.406
3.554
.407
-2.848
.406
1.224
.407
5.344
.406
-4.967
.407
6.144
.406
-2.59
.406
-7.062
.407
-3.908
.406
.306
.407
-2.589
.406
-1.13
.406
1.436
.407
1.601
.406
6.85
.407
3.766
.406
1.295
.406
.306
.407
4.167
.406
-1.483
.407
-2.354
.406
3.978
.407
5.367
.406
1.436
.406
3.578
.407
-5.084
.406
1.153
.407
4.638
.406
-4.308
.406
-11.158
.407
1.836
.406
-2.307
.407
2.825
.406
-.189
.406
.259
.407
.353
.406
11.512
.407
-.565
.406
1.153
.406
3.72
.407
-4.779
.406
-3.696
.407
.942
.406
-6.921
.407
-2.166
.406
-1.365
.406
.965
.407
6.732
.406
4.379
.407
-1.766
.406
2.472
.406
4.285
.407
2.966
.406
.447
.407
.871
.406
-1.695
.406
.33
.407
.541
.406
-5.085
.407
.306
.406
.471
.407
-3.154
.406
-1.154
.406
2.849
.407
-.165
.406
1.13
.407
-1.224
.406
-2.166
.406
.753
.407
-.8
.406
-6.639
.407
-7.109
.406
-1.86
.406
-4.166
.407
.329
.406
.871
.407
-1.177
.406
4.732
.407
10.405
.406
3.343
.406
3.743
.407
-.212
.406
-.942
.407
-1.554
.406
-1.294
.406
-7.51
.407
-5.626
.406
-5.65
.407
-5.108
.406
-3.178
.406
-1.601
.407
-5.649
.406
5.838
.407
3.013
.406
-3.955
.407
3.955
.406
3.343
.406
2.095
.407
6.285
.406
3.131
.407
-12.877
.406
-2.66
.406
-10.358
.407
-12.523
.406
-5.744
.407
-4.426
.406
-14.571
.406
2.613
.407
7.062
.406
7.627
.407
6.662
.406
3.837
.406
-2.119
.407
2.967
.406
9.133
.407
5.579
.406
-.188
.407
7.062
.406
5.626
.406
4.85
.407
6.826
.406
.189
.407
-5.697
.406
-.565
.406
-2.731
.407
-2.448
.406
.8
.407
1.272
.406
4.92
.406
8.215
.407
7.651
.406
3.743
.407
2.895
.406
3.743
.407
.071
.406
.165
.406
-1.931
.407
-.706
.406
-.777
.407
1.342
.406
-4.637
.406
.612
.407
-2.354
.406
.117
.407
-3.225
.406
-2.307
.406
-2.495
.407
3.319
.406
-.494
.407
1.954
.406
-.4
.407
4.331
.406
3.743
.406
2.283
.407
1.413
.406
-.589
.407
-.965
.406
.589
.406
-1.483
.407
-1.625
.406
-.4
.407
-2.895
.406
2.966
.406
-2.048
.407
-5.768
.406
-5.249
.407
-8.381
.406
-.753
.407
-.024
.406
-2.966
.406
3.508
.407
3.154
.406
2.708
.407
6.85
.406
-4.002
.406
-11.135
.407
-.494
.406
-.565
.407
-3.413
.406
1.106
.406
4.237
.407
2.849
.406
12.099
.407
3.155
.406
-3.461
.406
1.413
.407
-2.943
.406
-10.146
.407
2.213
.406
1.601
.407
-1.766
.406
2.802
.406
6.591
.407
5.697
.406
7.862
.407
2.307
.406
-.941
.406
1.671
.407
2.166
.406
-1.366
.407
1.177
.406
1.366
.406
-3.72
.407
-.023
.406
.8
.407
-4.99
.406
-2.19
.407
-3.366
.406
-4.543
.406
4.143
.407
2.283
.406
-1.789
.407
5.203
.406
3.154
.406
1.46
.407
6.097
.406
-1.036
.407
-5.391
.406
.612
.406
1.624
.407
1.413
.406
1.412
.407
-1.859
.406
-1.083
.407
1.577
.406
1.624
.406
-5.885
.407
-8.639
.406
-4.708
.407
-7.133
.406
-3.861
.406
1.719
.407
-1.413
.406
2.707
.407
4.967
.406
3.414
.406
8.051
.407
1.553
.406
-1.483
.407
-2.354
.406
1.13
.407
-.965
.406
1.836
.406
.565
.407
.165
.406
2.589
.407
3.108
.406
-1.083
.406
.565
.407
-3.06
.406
-2.896
.407
3.131
.406
-.824
.406
-1.671
.407
-.306
.406
1.365
.407
-.965
.406
1.577
.406
-1.765
.407
-3.273
.406
-2.283
.407
2.048
.406
.306
.407
1.412
.406
1.201
.406
.612
.407
4.638
.406
6.379
.407
-1.412
.406
2.354
.406
4.166
.407
.283
.406
.376
.407
1.484
.406
-.565
.406
-.236
.407
-5.461
.406
-3.837
.407
-4.002
.406
1.695
.407
-1.742
.406
-.589
.406
.565
.407
3.484
.406
2.801
.407
4.097
.406
-2.59
.406
-.118
.407
-.776
.406
-2.778
.407
-2.754
.406
-1.436
.406
-3.602
.407
1.671
.406
-2.566
.407
-1.106
.406
4.755
.407
4.143
.406
-1.318
.406
2.707
.407
-.894
.406
-1.483
.407
2.612
.406
-3.625
.406
-2.001
.407
1.06
.406
.918
.407
.706
.406
5.344
.406
-1.342
.407
1.954
.406
-1.554
.407
-1.412
.406
-8.145
.407
-4.12
.406
-3.531
.406
-3.837
.407
-1.648
.406
1.201
.407
-3.767
.406
1.836
.406
3.037
.407
-2.189
.406
2.448
.407
2.589
.406
-.588
.406
5.108
.407
4.991
.406
1.93
.407
2.072
.406
1.224
.406
-1.507
.407
1.46
.406
-1.224
.407
.706
.406
-1.201
.407
2.731
.406
-.33
.406
-1.577
.407
-.118
.406
-2.754
.407
-1.106
.406
-.801
.406
-2.495
.407
-1.813
.406
-.329
.407
-2.566
.406
3.037
.406
1.859
.407
-1.13
.406
1.036
.407
1.342
.406
.471
.407
.188
.406
-4.826
.406
-9.439
.407
-2.731
.406
.447
.407
-.612
.406
1.978
.406
2.236
.407
3.154
.406
8.216
.407
5.532
.406
-4.025
.406
-2.378
.407
.259
.406
-2.048
.407
1.059
.406
-.989
.407
-2.212
.406
1.365
.406
-1.13
.407
-1.883
.406
1.012
.407
1.671
.406
.354
.406
1.341
.407
5.65
.406
.636
.407
2.165
h.406
l.406
-3.436
.407
-1.225
.406
-4.331
.407
-6.262
.406
2.613
.407
-1.977
.406
-3.484
.406
2.66
.407
1.106
.406
.4
.407
2.943
.406
-.471
.406
-2.872
.407
5.085
.406
.141
.407
-2.283
.406
3.319
.406
-3.861
.407
1.201
.406
.047
.407
-3.013
.406
.047
.407
3.131
.406
-.73
.406
-1.977
.407
-5.697
.406
1.506
.407
-2.071
.406
-1.365
.406
-2.825
.407
-4.92
.406
2.989
.407
3.743
.406
-.047
.406
4.567
.407
.094
.406
1.577
.407
4.45
.406
2.613
.406
.612
.407
2.001
.406
-1.13
.407
-2.802
.406
-1.153
.407
2.048
.406
1.53
.406
1.483
.407
.353
.406
1.389
.407
5.626
.406
3.343
.406
-1.201
.407
1.154
.406
1.436
.407
-.283
.406
-.306
.406
-1.13
.407
-3.319
.406
1.907
.407
-2.707
.406
-.165
.407
-2.26
.406
1.554
.406
-1.766
.407
4.261
.406
.589
.407
-2.401
.406
-.613
.406
2.402
.407
.941
.406
2.59
.407
-3.32
.406
-.706
.406
4.52
.407
2.966
.406
1.271
.407
.777
.406
.047
.407
3.319
.406
-1.836
.406
-2.165
.407
-4.049
.406
1.718
.407
-1.624
.406
.777
.406
.659
.407
4.331
.406
.942
.407
1.836
.406
-2.142
.406
1.553
.407
-.447
.406
-1.13
.407
-3.484
.406
3.319
.407
1.225
.406
1.977
.406
-2.59
.407
-1.153
.406
-.212
.407
1.907
.406
-1.271
.406
.235
.407
.236
.406
3.201
.407
3.202
.406
1.106
.406
-.4
.407
1.954
.406
.329
.407
.989
.406
-.377
.406
.047
.407
1.154
.406
2.095
.407
-.071
.406
1.177
.407
-.612
.406
-1.13
.406
-.117
.407
-.73
.406
.753
.407
-1.247
.406
-1.201
.406
-.683
.407
1.295
.406
-2.707
.407
.07
.406
-.918
.406
.518
.407
-.235
.406
.212
.407
.635
.406
3.225
.407
.66
.406
.188
.406
.094
.407
-.024
.406
.118
.407
-.871
.406
-1.883
.406
-2.26
.407
-1.059
.406
-.565
.407
-.165
.406
1.059
.406
-.588
.407
-.448
.406
1.578
.407
-1.601
.406
-1.295
.407
.024
.406
-2.378
.406
.683
.407
1.648
.406
.4
.407
1.012
.406
-.989
.406
1.083
.407
-.518
.406
-1.318
.407
-.259
.406
-.353
.406
1.695
.407
2.519
.406
-.895
.407
.871
.406
.236
.407
-1.53
.406
-.966
.406
.118
.407
-1.271
.406
.329
.407
1.554
.406
2.284
.406
1.671
.407
1.036
.406
-.965
.407
.729
.406
.73
.406
-.588
.407
-.73
.406
.353
.407
.353
.406
.612
.406
1.295
.407
-1.201
.406
.589
.407
-.518
.406
-2.401
.407
-1.224
.406
-.353
.406
-1.083
.407
-.895
.406
-1.483
.407
.118
.406
1.247
.406
-.353
.407
-.494
.406
.612
.407
.8
.406
-.824
.406
.565
.407
1.483
.406
.754
.407
-1.436
.406
-.071
.407
-1.436
.406
1.107
.406
-.777
.407
-3.931
.406
-1.177
.407
2.142
.406
-1.554
.406
2.66
.407
.283
.406
1.247
.407
3.013
.406
2.025
.406
.4
.407
1.342
.406
-.518
.407
-.471
.406
-2.166
.407
-2.66
.406
-.682
.406
-1.107
.407
.895
.406
-.871
.407
.518
.406
-1.06
.406
3.296
.407
.071
.406
-.801
.407
-1.718
.406
1.389
.406
-.495
.407
1.483
.406
.589
.407
.118
.406
.941
.407
-.023
.406
-.895
.406
.871
.407
.824
.406
-2.613
.407
-2.024
.406
-.142
.406
1.225
.407
-1.648
.406
-.024
.407
-.353
.406
2.095
.406
2.119
.407
.894
.406
-1.6
.407
1.883
.406
.871
.406
.8
.407
-1.483
.406
.942
.407
-.942
.406
1.177
.407
.306
.406
.33
.406
.588
.407
1.719
.406
-.047
.407
1.224
.406
.188
.406
.565
.407
-.282
.406
-.613
.407
-.047
.406
-.918
.406
-2.095
.407
1.06
.406
-1.201
.407
-2.825
.406
-4.425
.407
-3.39
.406
.259
.406
1.647
.407
-1.177
.406
.683
.407
2.59
.406
3.484
.406
1.53
.407
-1.907
.406
-.353
.407
.682
.406
1.013
.406
-.33
.407
-1.389
.406
1.201
.407
1.907
.406
.07
.407
-.4
.406
-2.236
.406
-.471
.407
-.212
.406
1.106
.407
.848
.406
.588
.406
.118
.407
2.284
.406
-1.507
.407
2.166
.406
-2.307
.406
-2.637
.407
.824
.406
1.036
.407
-.188
.406
2.801
.407
.424
.406
1.718
.406
2.613
.407
-1.813
.406
-.824
.407
-.588
.406
.024
.406
.47
.407
.518
.406
.141
.407
1.695
.406
.848
.406
-.33
.407
-1.459
.406
-4.167
.407
-4.308
.406
-2.424
.406
-.542
.407
.094
.406
-.518
.407
.142
.406
3.178
.407
2.989
.406
-1.247
.406
-2.402
.407
-1.671
.406
-1.224
.407
.235
.406
.212
.406
.189
.407
2.989
.406
.989
.407
-.659
.406
1.883
.406
1.106
.407
-1.459
.406
-.871
.407
-2.331
.406
1.177
.407
2.237
.406
.8
.406
-.447
.407
1.2
.406
1.507
.407
2.778
.406
.235
.406
-.023
.407
-.942
.406
-.518
.407
-.918
.406
.306
.406
-.447
.407
-.236
.406
-.659
.407
-.565
.406
-.235
.407
.094
.406
-.777
.406
.33
.407
.141
.406
-.212
.407
.165
.406
1.224
.406
1.177
.407
-.683
.406
-1.53
.407
.565
.406
-.235
.406
.683
.407
-.495
.406
.306
.407
.942
.406
1.883
.407
.094
.406
.212
.406
.895
.407
-.189
.406
-.753
.407
.895
.406
-.565
.406
-.542
.407
-.07
.406
-1.342
.407
-.518
.406
.989
.406
-.777
.407
.47
.406
.165
.407
.353
.406
-.988
.406
1.365
.407
-.918
.406
-.259
.407
-.235
.406
-.848
.407
-.494
.406
.847
.406
-1.789
.407
-.753
.406
-.33
.407
-1.883
.406
.942
.406
.423
.407
.919
.406
1.412
.407
1.789
.406
1.318
.406
2.119
.407
-.377
.406
.094
.407
.189
.406
-.165
.407
-1.154
.406
-.47
.406
-1.672
.407
.142
.406
.07
.407
-.212
.406
-.259
.406
.918
.407
-.047
.406
-.164
h.407
l.406
-.495
.406
-.659
.407
.848
.406
-.189
.407
-.447
.406
.918
.407
.447
.406
-.753
.406
.188
.407
-.4
.406
-.07
.407
-.942
.406
.306
.406
-.895
.407
1.201
.406
.471
.407
-1.46
.406
.589
.406
1.954
.407
-.871
.406
-1.672
.407
-.706
.406
.4
.407
1.86
h.406
l.406
-.683
.407
1.083
.406
1.954
.407
-.847
.406
-1.319
.406
-1.036
.407
-.564
.406
-1.79
.407
-1.506
.406
.353
.406
.918
.407
1.036
.406
.353
.407
.424
.406
1.483
.407
1.318
.406
-.777
.406
-.259
.407
-4.19
.406
-1.295
.407
-1.459
.406
-2.095
.406
-1.813
h.407
l.406
-1.977
.407
4.378
.406
.212
.406
.942
.407
1.224
.406
1.883
.407
-.942
.406
2.543
.406
-1.083
h.407
l.406
-.777
.407
-.306
.406
-1.766
.407
1.484
.406
.47
.406
-1.412
.407
.377
.406
-.142
.407
.165
.406
1.036
.406
-.824
.407
-.565
.406
.306
.407
.494
.406
.33
.406
-.424
.407
-.447
.406
-1.813
.407
-.965
.406
1.86
.407
-.165
.406
.353
.406
1.978
.407
-1.837
.406
1.86
.407
.73
.406
-.589
.406
-1.459
.407
.023
.406
-.047
.407
3.013
.406
1.13
.406
-.753
h.407
l.406
1.295
.407
.683
.406
.094
.407
.235
.406
-2.283
.406
.4
.407
-1.059
.406
-.871
.407
-4.638
.406
-4.284
.406
-4.002
.407
-.518
.406
-2.566
.407
-2.801
.406
.353
.406
.07
.407
1.154
.406
1.954
.407
-.895
.406
1.366
.407
.376
.406
-.282
.406
-.424
.407
1.083
.406
.188
.407
1.672
.406
2.071
.406
1.695
.407
-2.189
.406
3.366
.407
.377
.406
-4.544
.406
.377
.407
-2.472
.406
-.306
.407
.895
.406
.235
.406
-2.401
.407
3.484
.406
-.235
.407
1.294
.406
1.342
.407
1.766
.406
-.659
.406
3.978
.407
2.731
.406
.282
.407
.565
.406
-.73
.406
-1.106
.407
1.436
.406
-1.813
.407
-.494
.406
.847
.406
-.259
.407
.966
.406
1.953
.407
.401
.406
.141
.407
-.683
.406
-1.153
.406
-.965
.407
-1.672
.406
-.706
.407
-1.318
.406
1.224
.406
-1.154
.407
.895
.406
1.836
.407
1.671
h.406
l.406
1.107
.407
-.753
.406
.847
.407
.094
.406
-1.53
.407
.965
.406
-1.765
.406
.282
.407
.071
.406
.988
.407
.283
.406
1.53
.406
-1.106
.407
2.401
.406
-.636
.407
.848
.406
.635
.406
.942
.407
.824
.406
1.859
.407
.895
.406
1.036
.407
.777
.406
.494
h2.032
l.406
-.024
.407
-2.848
.406
-1.483
.407
-1.483
.406
-1.412
.406
-1.107
.407
-.659
.406
-1.766
.407
1.248
.406
.683
.406
.565
.407
.212
.406
.4
.407
.047
.406
1.483
.407
.659
.406
.235
.406
.448
.407
.847
.406
.612
.407
.612
.406
-.659
.406
.024
.407
.117
.406
-.07
.407
-.118
.406
-.447
.406
-.236
.407
.024
.406
-.353
.407
-2.754
.406
-1.013
.407
-1.859
.406
-3.649
.406
-1.883
.407
.494
.406
.094
.407
-.824
.406
.706" aria-label="line"/>
</svg>
