<svg xmlns="http://www.w3.org/2000/svg" width="830" height="470" fill="currentColor" class="plot-d6a7b5" font-family="system-ui, sans-serif" font-size="10" style="--plot-background:white;display:block;height:intrinsic;max-width:100%;color:#1e90ff" text-anchor="middle" viewBox="0 0 830 470">
    <style>
        :where(.plot-d6a7b5 text),:where(.plot-d6a7b5 tspan){white-space:pre}
    </style>
    <path stroke="currentColor" stroke-opacity=".1" d="
M60
410
h710
M60
380.833
h710
M60
351.667
h710
M60
322.5
h710
M60
293.333
h710
M60
264.167
h710
M60
235
h710
M60
205.833
h710
M60
176.667
h710
M60
147.5
h710
M60
118.333
h710
M60
89.167
h710
M60
60
h710" aria-hidden="true" aria-label="y-grid"/>
    <path fill="none" stroke="currentColor" d="
M60
410
h-6
m6
-29.167
h-6
m6
-29.166
h-6
m6
-29.167
h-6
m6
-29.167
h-6
m6
-29.166
h-6
M60
235
h-6
m6
-29.167
h-6
m6
-29.166
h-6
m6
-29.167
h-6
m6
-29.167
h-6
m6
-29.166
h-6
M60
60
h-6" aria-hidden="true" aria-label="y-axis tick"/>
    <g aria-label="y-axis tick label" font-variant="tabular-nums" text-anchor="end">
        <text y=".32em" transform="translate(51 410)">0.0</text>
        <text y=".32em" transform="translate(51 380.833)">0.5</text>
        <text y=".32em" transform="translate(51 351.667)">1.0</text>
        <text y=".32em" transform="translate(51 322.5)">1.5</text>
        <text y=".32em" transform="translate(51 293.333)">2.0</text>
        <text y=".32em" transform="translate(51 264.167)">2.5</text>
        <text y=".32em" transform="translate(51 235)">3.0</text>
        <text y=".32em" transform="translate(51 205.833)">3.5</text>
        <text y=".32em" transform="translate(51 176.667)">4.0</text>
        <text y=".32em" transform="translate(51 147.5)">4.5</text>
        <text y=".32em" transform="translate(51 118.333)">5.0</text>
        <text y=".32em" transform="translate(51 89.167)">5.5</text>
        <text y=".32em" transform="translate(51 60)">6.0</text>
    </g>
    <text y=".71em" aria-label="y-axis label" text-anchor="start" transform="translate(3 3)">↑ Karma vestiges (30 days)</text>
    <path fill="none" stroke="currentColor" d="
M129.608
410
v6
m73.088
-6
v6
m73.088
-6
v6
m73.089
-6
v6
m73.087
-6
v6
m73.089
-6
v6
m73.088
-6
v6
m73.088
-6
v6
m73.089
-6
v6" aria-hidden="true" aria-label="x-axis tick"/>
    <g aria-label="x-axis tick label" font-variant="tabular-nums">
        <text transform="translate(129.608 419)"><tspan x="0" y=".71em">8</tspan><tspan x="0" dy="1em">Feb</tspan></text>
        <text y=".71em" transform="translate(202.696 419)">15</text>
        <text y=".71em" transform="translate(275.784 419)">22</text>
        <text transform="translate(348.873 419)"><tspan x="0" y=".71em">1</tspan><tspan x="0" dy="1em">Mar</tspan></text>
        <text y=".71em" transform="translate(421.96 419)">8</text>
        <text y=".71em" transform="translate(495.049 419)">15</text>
        <text y=".71em" transform="translate(568.137 419)">22</text>
        <text y=".71em" transform="translate(641.225 419)">29</text>
        <text transform="translate(714.314 419)"><tspan x="0" y=".71em">5</tspan><tspan x="0" dy="1em">Apr</tspan></text>
    </g>
    <path fill="none" stroke="currentColor" stroke-linecap="round" stroke-linejoin="round" stroke-width="1.5" d="
M60
410
h20.882
l6.961
-116.667
h41.765
L136.569
235
h41.764
l6.961
-58.333
h97.451
l6.961
116.666
h41.765
l6.96
58.334
h20.883
l6.961
-58.334
h13.921
l6.961
58.334
h69.608
L463.725
235
h6.961
l6.961
-116.667
h20.882
L505.49
60
h55.686
l6.961
58.333
h48.726
L623.824
60
h34.803
l6.961
116.667
h6.961
l6.961
116.666
h20.882
l6.961
58.334
H770" aria-label="line"/>
</svg>
