<svg class="plot-d6a7b5" fill="currentColor" font-family="system-ui, sans-serif" font-size="10" text-anchor="middle" width="830" height="470" viewBox="0 0 830 470" xmlns="http://www.w3.org/2000/svg" xmlns:xlink="http://www.w3.org/1999/xlink" color="#1e90ff"><style>:where(.plot-d6a7b5){--plot-background: white;display:block;height:intrinsic;max-width:100%}:where(.plot-d6a7b5 text),:where(.plot-d6a7b5 tspan){white-space:pre}</style><g aria-label="y-grid" stroke="currentColor" stroke-opacity=".1"><line x1="60" x2="770" y1="410" y2="410"/><line x1="60" x2="770" y1="378.557" y2="378.557"/><line x1="60" x2="770" y1="347.114" y2="347.114"/><line x1="60" x2="770" y1="315.671" y2="315.671"/><line x1="60" x2="770" y1="284.227" y2="284.227"/><line x1="60" x2="770" y1="252.784" y2="252.784"/><line x1="60" x2="770" y1="221.341" y2="221.341"/><line x1="60" x2="770" y1="189.898" y2="189.898"/><line x1="60" x2="770" y1="158.455" y2="158.455"/><line x1="60" x2="770" y1="127.012" y2="127.012"/><line x1="60" x2="770" y1="95.568" y2="95.568"/><line x1="60" x2="770" y1="64.125" y2="64.125"/></g><g aria-label="y-axis tick" fill="none" stroke="currentColor"><path transform="translate(60,410)" d="M0,0L-6,0"/><path transform="translate(60,378.55684921661634)" d="M0,0L-6,0"/><path transform="translate(60,347.11369843323274)" d="M0,0L-6,0"/><path transform="translate(60,315.6705476498491)" d="M0,0L-6,0"/><path transform="translate(60,284.2273968664655)" d="M0,0L-6,0"/><path transform="translate(60,252.7842460830818)" d="M0,0L-6,0"/><path transform="translate(60,221.34109529969817)" d="M0,0L-6,0"/><path transform="translate(60,189.8979445163145)" d="M0,0L-6,0"/><path transform="translate(60,158.45479373293085)" d="M0,0L-6,0"/><path transform="translate(60,127.01164294954722)" d="M0,0L-6,0"/><path transform="translate(60,95.56849216616357)" d="M0,0L-6,0"/><path transform="translate(60,64.12534138277994)" d="M0,0L-6,0"/></g><g aria-label="y-axis tick label" text-anchor="end" font-variant="tabular-nums"><text y=".32em" transform="translate(-9,0) translate(60,410)">0</text><text y=".32em" transform="translate(-9,0) translate(60,378.55684921661634)">5,000</text><text y=".32em" transform="translate(-9,0) translate(60,347.11369843323274)">10,000</text><text y=".32em" transform="translate(-9,0) translate(60,315.6705476498491)">15,000</text><text y=".32em" transform="translate(-9,0) translate(60,284.2273968664655)">20,000</text><text y=".32em" transform="translate(-9,0) translate(60,252.7842460830818)">25,000</text><text y=".32em" transform="translate(-9,0) translate(60,221.34109529969817)">30,000</text><text y=".32em" transform="translate(-9,0) translate(60,189.8979445163145)">35,000</text><text y=".32em" transform="translate(-9,0) translate(60,158.45479373293085)">40,000</text><text y=".32em" transform="translate(-9,0) translate(60,127.01164294954722)">45,000</text><text y=".32em" transform="translate(-9,0) translate(60,95.56849216616357)">50,000</text><text y=".32em" transform="translate(-9,0) translate(60,64.12534138277994)">55,000</text></g><g aria-label="y-axis label" text-anchor="start"><text y=".71em" transform="translate(-57,-57) translate(60,60)">↑ Visible Vestiges (30 days)</text></g><g aria-label="x-axis tick" fill="none" stroke="currentColor"><path transform="translate(89.20161290322581,410)" d="M0,0L0,6"/><path transform="translate(167.35887096774195,410)" d="M0,0L0,6"/><path transform="translate(246.375,410)" d="M0,0L0,6"/><path transform="translate(325.39112903225805,410)" d="M0,0L0,6"/><path transform="translate(403.54838709677415,410)" d="M0,0L0,6"/><path transform="translate(481.70564516129036,410)" d="M0,0L0,6"/><path transform="translate(560.7217741935483,410)" d="M0,0L0,6"/><path transform="translate(639.7379032258065,410)" d="M0,0L0,6"/><path transform="translate(717.0362903225807,410)" d="M0,0L0,6"/></g><g aria-label="x-axis tick label" font-variant="tabular-nums"><text transform="translate(0,9) translate(89.20161290322581,410)"><tspan x="0" y=".71em">Apr</tspan><tspan x="0" dy="1em">2023</tspan></text><text y=".71em" transform="translate(0,9) translate(167.35887096774195,410)">Jul</text><text y=".71em" transform="translate(0,9) translate(246.375,410)">Oct</text><text transform="translate(0,9) translate(325.39112903225805,410)"><tspan x="0" y=".71em">Jan</tspan><tspan x="0" dy="1em">2024</tspan></text><text y=".71em" transform="translate(0,9) translate(403.54838709677415,410)">Apr</text><text y=".71em" transform="translate(0,9) translate(481.70564516129036,410)">Jul</text><text y=".71em" transform="translate(0,9) translate(560.7217741935483,410)">Oct</text><text transform="translate(0,9) translate(639.7379032258065,410)"><tspan x="0" y=".71em">Jan</tspan><tspan x="0" dy="1em">2025</tspan></text><text y=".71em" transform="translate(0,9) translate(717.0362903225807,410)">Apr</text></g><g aria-label="line" fill="none" stroke="currentColor" stroke-width="1.5" stroke-linejoin="round" stroke-linecap="round"><path d="M60,410L60.573,406.843L61.145,395.297L61.718,389.071L62.29,384.657L62.863,377.375L63.435,371.639L64.008,366.263L64.581,355.383L65.153,346.774L65.726,336.555L66.298,320.727L66.871,305.804L67.444,298.056L68.016,286.843L68.589,279.228L69.161,270.499L69.734,259.085L70.306,251.401L70.879,243.867L71.452,233.642L72.024,222.303L72.597,214.273L73.169,200.57L73.742,194.08L74.315,188.024L74.887,177.101L75.46,166.643L76.032,158.593L76.605,147.374L77.177,139.344L77.75,140.702L78.323,131.137L78.895,123.025L79.468,123.05L80.04,121.226L80.613,120.912L81.185,127.194L81.758,127.276L82.331,129.156L82.903,139.168L83.476,140.639L84.048,134.325L84.621,132.936L85.194,125.282L85.766,123.66L86.339,126.257L86.911,121.93L87.484,119.415L88.056,122.364L88.629,120.597L89.202,115.956L89.774,117.837L90.347,107.379L90.919,97.342L91.492,99.895L92.065,97.933L92.637,94.776L93.21,95.952L93.782,92.921L94.355,89.752L94.927,93.94L95.5,92.519L96.073,86.406L96.645,82.45L97.218,72.653L97.79,67.722L98.363,67.653L98.935,64L99.508,60L100.081,66.113L100.653,70.716L101.226,73.112L101.798,78.866L102.371,76.734L102.944,73.181L103.516,78.143L104.089,78.407L104.661,78.042L105.234,86.123L105.806,91.016L106.379,95.097L106.952,103.825L107.524,109.278L108.097,106.831L108.669,110.806L109.242,110.315L109.815,112.145L110.387,121L110.96,122.037L111.532,125.125L112.105,134.464L112.677,140.117L113.25,144.192L113.823,151.933L114.395,150.82L114.968,150.16L115.54,154.179L116.113,157.065L116.685,158.254L117.258,161.825L117.831,162.373L118.403,166.385L118.976,173.277L119.548,176.572L120.121,173.334L120.694,175.05L121.266,172.315L121.839,170.347L122.411,171.629L122.984,169.957L123.556,171.736L124.129,176.245L124.702,178.874L125.274,180.918L125.847,184.88L126.419,184.898L126.992,182.823L127.565,188.98L128.137,191.036L128.71,190.005L129.282,192.407L129.855,192.363L130.427,194.413L131,199.916L131.573,200.696L132.145,197.652L132.718,196.545L133.29,192.237L133.863,191.866L134.435,194.35L135.008,192.445L135.581,191.269L136.153,195.589L136.726,196.451L137.298,197.117L137.871,199.714L138.444,195.413L139.016,193.596L139.589,195.74L140.161,194.753L140.734,192.778L141.306,194.69L141.879,194.948L142.452,194.558L143.024,197.96L143.597,199.035L144.169,199.457L144.742,200.519L145.315,198.557L145.887,198.381L146.46,200.142L147.032,198.174L147.605,197.834L148.177,201.249L148.75,206.789L149.323,208.374L149.895,212.77L150.468,212.701L151.04,213.015L151.613,215.04L152.185,215.216L152.758,214.43L153.331,218.348L153.903,218.109L154.476,219.53L155.048,225.806L155.621,227.529L156.194,228.535L156.766,231.434L157.339,231.761L157.911,232.101L158.484,232.126L159.056,233.453L159.629,232.459L160.202,235.384L160.774,234.818L161.347,235.069L161.919,236.547L162.492,234.755L163.065,234.711L163.637,236.025L164.21,234.516L164.782,233.214L165.355,233.107L165.927,230.453L166.5,229.114L167.073,231.177L167.645,231.227L168.218,230.541L168.79,233.484L169.363,232.56L169.935,233.893L170.508,236.572L171.081,236.899L171.653,236.295L172.226,238.44L172.798,237.673L173.371,237.05L173.944,240.169L174.516,239.566L175.089,239.805L175.661,241.974L176.234,240.666L176.806,239.591L177.379,240.767L177.952,239.402L178.524,240.238L179.097,241.515L179.669,240.408L180.242,240.742L180.815,242.609L181.387,243.1L181.96,241.779L182.532,245.483L183.105,247.816L183.677,246.722L184.25,249.451L184.823,248.527L185.395,247.797L185.968,249.313L186.54,247.275L187.113,247.288L187.685,247.307L188.258,244.93L188.831,243.345L189.403,246.823L189.976,243.798L190.548,242.446L191.121,243.641L191.694,242.056L192.266,241.641L192.839,243.32L193.411,241.59L193.984,240.389L194.556,241.433L195.129,238.635L195.702,238.415L196.274,239.805L196.847,239.176L197.419,236.975L197.992,235.365L198.565,231.258L199.137,229.938L199.71,229.938L200.282,228.435L200.855,227.001L201.427,229.994L202,228.139L202.573,227.592L203.145,229.957L203.718,228.63L204.29,228.925L204.863,232.78L205.435,232.176L206.008,229.529L206.581,232.988L207.153,232.793L207.726,230.378L208.298,231.296L208.871,228.177L209.444,227.812L210.016,228.472L210.589,226.542L211.161,225.806L211.734,228.139L212.306,227.454L212.879,227.215L213.452,230.032L214.024,231.818L214.597,235.126L215.169,241.546L215.742,242.71L216.315,242.194L216.887,243.892L217.46,244.244L218.032,242.917L218.605,244.634L219.177,245.118L219.75,244.005L220.323,246.087L220.895,246.961L221.468,246.118L222.04,247.37L222.613,247.118L223.185,247.231L223.758,248.464L224.331,251.011L224.903,253.734L225.476,257.796L226.048,259.299L226.621,262.268L227.194,267.324L227.766,266.204L228.339,266.89L228.911,269.047L229.484,268.323L230.056,269.455L230.629,271.38L231.202,272.153L231.774,274.027L232.347,275.48L232.919,276.876L233.492,277.234L234.065,277.354L234.637,274.631L235.21,272.317L235.782,273.662L236.355,273.681L236.927,274.474L237.5,275.216L238.073,275.48L238.645,276.624L239.218,279.706L239.79,279.14L240.363,278.436L240.935,279.448L241.508,277.555L242.081,278.75L242.653,280.165L243.226,278.958L243.798,278.555L244.371,282.662L244.944,282.504L245.516,282.9L246.089,284.894L246.661,281.574L247.234,280.674L247.806,281.687L248.379,279.97L248.952,280.813L249.524,282.07L250.097,283.177L250.669,284.592L251.242,288.466L251.815,289.805L252.387,287.598L252.96,286.649L253.532,283.919L254.105,283.599L254.677,284.951L255.25,285.007L255.823,284.881L256.395,286.271L256.968,286.869L257.54,287.661L258.113,290.183L258.685,285.982L259.258,282.768L259.831,282.85L260.403,282.599L260.976,283.039L261.548,286.076L262.121,285.812L262.694,287.202L263.266,290.17L263.839,288.749L264.411,284.756L264.984,284.397L265.556,281.165L266.129,280.655L266.702,281.196L267.274,279.398L267.847,280.064L268.419,282.215L268.992,283.334L269.565,284.158L270.137,287.045L270.71,286.089L271.282,286.007L271.855,287.963L272.427,286.68L273,287.252L273.573,290.384L274.145,290.849L274.718,291.038L275.29,293.107L275.863,293.245L276.435,291.019L277.008,290.906L277.581,289.755L278.153,289.661L278.726,290.843L279.298,289.868L279.871,290.692L280.444,294.295L281.016,296.691L281.589,299.05L282.161,302.188L282.734,301.955L283.306,301.817L283.879,305.099L284.452,305.653L285.024,307.376L285.597,309.916L286.169,311.985L286.742,313.205L287.315,317.224L287.887,315.954L288.46,313.539L289.032,313.778L289.605,312.463L290.177,310.954L290.75,311.753L291.323,311.269L291.895,314.142L292.468,317.041L293.04,318.576L293.613,318.941L294.185,319.695L294.758,317.243L295.331,317.318L295.903,318.098L296.476,316.488L297.048,315.664L297.621,316.079L298.194,313.243L298.766,313.47L299.339,314.199L299.911,314.413L300.484,313.004L301.056,312.457L301.629,310.212L302.202,310.193L302.774,311.803L303.347,310.52L303.919,309.112L304.492,311.696L305.065,313.759L305.637,315.853L306.21,318.456L306.782,318.89L307.355,318.261L307.927,320.192L308.5,318.777L309.073,318.431L309.645,321.399L310.218,322.89L310.79,324.393L311.363,327.286L311.935,327.141L312.508,326.877L313.081,328.147L313.653,328.896L314.226,329.996L314.798,332.159L315.371,332.857L315.944,334.04L316.516,335.04L317.089,335.14L317.661,336.486L318.234,337.725L318.806,335.574L319.379,333.423L319.952,334.914L320.524,334.838L321.097,333.285L321.669,332.939L322.242,331.612L322.815,330.663L323.387,330.468L323.96,329.462L324.532,328.103L325.105,328.946L325.677,328.858L326.25,327.355L326.823,326.764L327.395,324.185L327.968,323.487L328.54,325.028L329.113,324.443L329.685,325.556L330.258,325.475L330.831,323.928L331.403,324.953L331.976,324.971L332.548,323.72L333.121,323.978L333.694,325.563L334.266,325.833L334.839,327.078L335.411,328.889L335.984,328.921L336.556,327.499L337.129,326.393L337.702,325.374L338.274,326.141L338.847,327.361L339.419,327.757L339.992,327.562L340.565,327.537L341.137,327.606L341.71,328.286L342.282,328.411L342.855,327.361L343.427,324.449L344,325.204L344.573,323.462L345.145,322.959L345.718,324.795L346.29,323.198L346.863,324.374L347.435,326.468L348.008,323.689L348.581,320.764L349.153,319.865L349.726,316.243L350.298,315.086L350.871,314.4L351.444,312.677L352.016,312.206L352.589,313.124L353.161,312.287L353.734,313.809L354.306,314.463L354.879,310.577L355.452,308.891L356.024,308.3L356.597,307.168L357.169,307.948L357.742,308.583L358.315,305.967L358.887,305.552L359.46,305.376L360.032,306.866L360.605,305.54L361.177,303.401L361.75,298.892L362.323,297.358L362.895,296.446L363.468,291.975L364.04,289.969L364.613,291.893L365.185,293.447L365.758,294.151L366.331,296.371L366.903,294.22L367.476,292.264L368.048,293.497L368.621,292.503L369.194,291.635L369.766,291.717L370.339,290.214L370.911,291.918L371.484,294.503L372.056,293.579L372.629,291.874L373.202,293.239L373.774,291.384L374.347,291.151L374.919,292.692L375.492,292.918L376.065,294.811L376.637,296.214L377.21,297.408L377.782,300.949L378.355,305.024L378.927,303.445L379.5,304.401L380.073,307.615L380.645,309.244L381.218,310.03L381.79,310.96L382.363,311.501L382.935,313.092L383.508,316.237L384.081,316.425L384.653,315.57L385.226,317.538L385.798,316.947L386.371,318.111L386.944,320.846L387.516,320.771L388.089,320.984L388.661,323.72L389.234,325.179L389.806,324.764L390.379,326.21L390.952,323.349L391.524,322.802L392.097,323.965L392.669,325.846L393.242,328.525L393.815,332.122L394.387,334.97L394.96,337.832L395.532,343.158L396.105,346.101L396.677,348.384L397.25,350.472L397.823,352.49L398.395,355.006L398.968,357.113L399.54,358.358L400.113,359.886L400.685,363.244L401.258,364.653L401.831,363.414L402.403,365.225L402.976,365.961L403.548,365.269L404.121,365.898L404.694,367.08L405.266,366.885L405.839,367.841L406.411,368.652L406.984,369.193L407.556,371.941L408.129,372.507L408.702,372.507L409.274,371.117L409.847,368.545L410.419,365.759L410.992,364.571L411.565,362.785L412.137,360.131L412.71,358.666L413.282,357.352L413.855,355.188L414.427,353.427L415,351.006L415.573,349.246L416.145,348.252L416.718,346.655L417.29,345.806L417.863,345.391L418.435,347.504L419.008,348.252L419.581,349.459L420.153,349.755L420.726,349.868L421.298,349.793L421.871,349.396L422.444,349.837L423.016,351.384L423.589,351.623L424.161,352.163L424.734,353.446L425.306,353.905L425.879,353.056L426.452,353.843L427.024,354.094L427.597,353.566L428.169,354.05L428.742,354.698L429.315,353.937L429.887,353.151L430.46,353.975L431.032,353.736L431.605,354.679L432.177,354.717L432.75,352.855L433.323,352.522L433.895,351.22L434.468,351.22L435.04,350.881L435.613,350.239L436.185,349.007L436.758,348.812L437.331,348.101L437.903,347.522L438.476,348.843L439.048,347.705L439.621,346.246L440.194,346.711L440.766,345.56L441.339,345.567L441.911,346.07L442.484,347.617L443.056,347.906L443.629,348.51L444.202,348.132L444.774,345.001L445.347,344.844L445.919,343.743L446.492,344.529L447.065,344.535L447.637,344.755L448.21,343.737L448.782,345.057L449.355,346.227L449.927,346.372L450.5,347.441L451.073,346.019L451.645,343.655L452.218,343.756L452.79,342.46L453.363,342.668L453.935,342.951L454.508,341.85L455.081,340.756L455.653,341.9L456.226,341.517L456.798,340.404L457.371,341.794L457.944,339.548L458.516,339.115L459.089,338.385L459.661,337.266L460.234,336.467L460.806,336.719L461.379,338.09L461.952,337.882L462.524,338.737L463.097,336.605L463.669,334.442L464.242,333.681L464.815,333.952L465.387,331.505L465.96,331.537L466.532,331.719L467.105,331.883L467.677,332.329L468.25,333.901L468.823,333.449L469.395,334.568L469.968,333.706L470.54,333.084L471.113,336.065L471.685,337.586L472.258,337.549L472.831,339.102L473.403,338.75L473.976,338.398L474.548,340.97L475.121,340.825L475.694,338.417L476.266,339.63L476.839,340.24L477.411,339.215L477.984,340.14L478.556,341.139L479.129,341.781L479.702,344.334L480.274,346.441L480.847,347.277L481.419,347.938L481.992,347.887L482.565,347.516L483.137,347.982L483.71,346.856L484.282,347.378L484.855,347.504L485.427,348.34L486,348.975L486.573,350.17L487.145,350.793L487.718,349.264L488.29,349.497L488.863,350.032L489.435,350.032L490.008,352.258L490.581,352.692L491.153,352.163L491.726,351.931L492.298,353.786L492.871,353.912L493.444,354.654L494.016,355.283L494.589,355.459L495.161,355.622L495.734,355.251L496.306,354.333L496.879,354.283L497.452,354.138L498.024,353.975L498.597,355.213L499.169,354.591L499.742,352.069L500.315,352.503L500.887,351.918L501.46,352.226L502.032,352.038L502.605,351.164L503.177,350.635L503.75,351.365L504.323,352.031L504.895,351.302L505.468,350.761L506.04,350.201L506.613,348.68L507.185,348.258L507.758,346.894L508.331,345.913L508.903,345.032L509.476,343.045L510.048,341.511L510.621,340.404L511.194,338.781L511.766,338.215L512.339,338.083L512.911,335.844L513.484,335.241L514.056,335.178L514.629,334.43L515.202,334.7L515.774,336.744L516.347,335.071L516.919,332.618L517.492,330.361L518.065,326.864L518.637,324.349L519.21,323.751L519.782,320.639L520.355,316.884L520.927,315.425L521.5,314.205L522.073,312.545L522.645,311.306L523.218,310.558L523.79,308.583L524.363,309.275L524.935,310.809L525.508,311.048L526.081,312.639L526.653,313.753L527.226,314.727L527.798,316.086L528.371,315.268L528.944,314.476L529.516,315.62L530.089,315.425L530.661,314.991L531.234,315.62L531.806,315.639L532.379,315.3L532.952,320.142L533.524,324.041L534.097,327.613L534.669,331.298L535.242,334.461L535.815,335.681L536.387,339.278L536.96,342.907L537.532,344.73L538.105,346.057L538.677,348.321L539.25,349.22L539.823,351.17L540.395,353.346L540.968,354.566L541.54,354.037L542.113,354.798L542.685,354.509L543.258,354.792L543.831,355.314L544.403,356.188L544.976,357.251L545.548,359.402L546.121,361.313L546.694,362.364L547.266,363.678L547.839,363.829L548.411,364.106L548.984,364.011L549.556,363.571L550.129,363.005L550.702,362.948L551.274,362.716L551.847,362.659L552.419,362.37L552.992,360.691L553.565,359.364L554.137,356.748L554.71,356.698L555.282,356.1L555.855,356.49L556.427,356.974L557,356.767L557.573,356.132L558.145,356.207L558.718,355.704L559.29,352.799L559.863,352.17L560.435,352.635L561.008,350.994L561.581,350.761L562.153,350.811L562.726,350.069L563.298,349.786L563.871,349.623L564.444,349.321L565.016,348.315L565.589,347.139L566.161,344.875L566.734,345.158L567.306,345.409L567.879,345.548L568.452,345.202L569.024,346.504L569.597,348.39L570.169,349.629L570.742,352.767L571.315,352.968L571.887,353.56L572.46,354.585L573.032,354.585L573.605,355.943L574.177,356.823L574.75,357.138L575.323,358.402L575.895,362.181L576.468,362.005L577.04,361.571L577.613,362.942L578.185,362.313L578.758,362.603L579.331,363.716L579.903,363.785L580.476,364.156L581.048,365.489L581.621,366.873L582.194,368.659L582.766,371.382L583.339,370.463L583.911,370.268L584.484,371.545L585.056,372.507L585.629,372.507L586.202,372.275L586.774,372.608L587.347,371.495L587.919,371.985L588.492,371.243L589.065,369.319L589.637,368.426L590.21,365.973L590.782,364.911L591.355,365.25L591.927,365.37L592.5,365.137L593.073,365.873L593.645,366.476L594.218,367.074L594.79,367.64L595.363,366.476L595.935,365.357L596.508,365.904L597.081,364.992L597.653,365.244L598.226,365.602L598.798,364.584L599.371,364.389L599.944,365.539L600.516,365.634L601.089,364.439L601.661,363.496L602.234,362.703L602.806,363.018L603.379,362.892L603.952,363.175L604.524,362.754L605.097,363.496L605.669,364.602L606.242,365.489L606.815,367.237L607.387,367.269L607.96,366.483L608.532,366.986L609.105,367.086L609.677,367.244L610.25,367.539L610.823,367.3L611.395,368.155L611.968,369.47L612.54,370.224L613.113,370.652L613.685,372.18L614.258,372.061L614.831,371.771L615.403,372.979L615.976,373.45L616.548,373.312L617.121,372.57L617.694,372.922L618.266,372.551L618.839,373.488L619.411,373.394L619.984,373.928L620.556,374.387L621.129,374.658L621.702,375.394L622.274,376.375L622.847,376.199L623.419,376.544L623.992,377.746L624.565,378.073L625.137,377.06L625.71,377.331L626.282,376.972L626.855,376.922L627.427,376.419L628,376.085L628.573,375.979L629.145,376.45L629.718,375.74L630.29,374.991L630.863,374.626L631.435,373.627L632.008,373.595L632.581,372.671L633.153,372.671L633.726,373.702L634.298,374.224L634.871,375.117L635.444,375.092L636.016,375.167L636.589,374.922L637.161,374.356L637.734,374.079L638.306,371.677L638.879,370.375L639.452,370.099L640.024,369.181L640.597,368.703L641.169,369.199L641.742,368.652L642.315,367.124L642.887,367.596L643.46,366.288L644.032,366.709L644.605,367.218L645.177,366.288L645.75,365.998L646.323,366.156L646.895,366.42L647.468,365.904L648.04,367.049L648.613,366.458L649.185,366.885L649.758,366.803L650.331,366.866L650.903,366.564L651.476,366.59L652.048,366.219L652.621,365.565L653.194,365.439L653.766,365.036L654.339,365.181L654.911,366.841L655.484,367.3L656.056,367.388L656.629,367.671L657.202,367.3L657.774,367.388L658.347,369.036L658.919,369.904L659.492,369.828L660.065,370.86L660.637,370.614L661.21,369.602L661.782,368.558L662.355,366.319L662.927,365.124L663.5,364.653L664.073,364.967L664.645,364.923L665.218,364.911L665.79,364.319L666.363,364.602L666.935,364.697L667.508,363.47L668.081,362.42L668.653,362.533L669.226,362.395L669.798,362.118L670.371,362.873L670.944,362.672L671.516,362.024L672.089,361.339L672.661,361.433L673.234,361.653L673.806,362.508L674.379,362.546L674.952,362.206L675.524,363.37L676.097,362.577L676.669,362.892L677.242,362.986L677.815,362.873L678.387,363.873L678.96,364.898L679.532,365.118L680.105,364.904L680.677,364.854L681.25,363.489L681.823,363.489L682.395,363.942L682.968,362.879L683.54,362.408L684.113,363.143L684.685,362.961L685.258,362.886L685.831,363.47L686.403,363.03L686.976,363.118L687.548,362.206L688.121,362.898L688.694,363.03L689.266,362.653L689.839,362.98L690.411,362.93L690.984,362.728L691.556,360.93L692.129,358.59L692.702,358.955L693.274,357.446L693.847,357.408L694.419,357.521L694.992,356.333L695.565,356.49L696.137,356.823L696.71,356.477L697.282,356.716L697.855,357.635L698.427,357.458L699,357.163L699.573,357.911L700.145,357.622L700.718,357.936L701.29,358.641L701.863,357.452L702.435,356.93L703.008,357.792L703.581,358.062L704.153,359.2L704.726,359.288L705.298,360.351L705.871,361.471L706.444,361.829L707.016,361.534L707.589,362.307L708.161,364.357L708.734,365.892L709.306,366.47L709.879,367.841L710.452,367.678L711.024,368.646L711.597,370.011L712.169,371.218L712.742,371.149L713.315,372.155L713.887,371.834L714.46,372.784L715.032,373.488L715.605,373.023L716.177,373.369L716.75,373.777L717.323,374.501L717.895,375.174L718.468,375.985L719.04,376.809L719.613,377.004L720.185,377.733L720.758,378.085L721.331,378.922L721.903,379.236L722.476,379.431L723.048,378.871L723.621,378.808L724.194,378.148L724.766,378.576L725.339,379.054L725.911,379.657L726.484,380.33L727.056,381.814L727.629,381.494L728.202,382.047L728.774,381.946L729.347,383.443L729.919,383.512L730.492,384.355L731.065,383.77L731.637,384.179L732.21,385.701L732.782,386.292L733.355,386.455L733.927,385.965L734.5,386.059L735.073,386.87L735.645,387.128L736.218,387.506L736.79,387.367L737.363,388.046L737.935,388.204L738.508,388.581L739.081,388.399L739.653,389.669L740.226,390.713L740.798,391.92L741.371,392.04L741.944,392.643L742.516,393.121L743.089,393.323L743.661,393.417L744.234,394.524L744.806,395.077L745.379,395.467L745.952,395.624L746.524,396.027L747.097,396.731L747.669,397.423L748.242,397.322L748.815,397.366L749.387,397.574L749.96,397.699L750.532,398.429L751.105,398.945L751.677,399.265L752.25,399.441L752.823,399.479L753.395,399.794L753.968,399.926L754.54,399.976L755.113,400.246L755.685,400.699L756.258,400.347L756.831,400.328L757.403,400.146L757.976,399.875L758.548,399.309L759.121,398.989L759.694,398.731L760.266,398.353L760.839,398.303L761.411,398.127L761.984,398.039L762.556,397.926L763.129,397.372L763.702,396.567L764.274,396.53L764.847,396.165L765.419,396.354L765.992,396.36L766.565,397.077L767.137,396.775L767.71,395.951L768.282,396.064L768.855,395.624L769.427,395.404L770,395.171"/></g></svg>