<?xml version="1.0"?>
<svg xmlns="http://www.w3.org/2000/svg" xmlns:xlink="http://www.w3.org/1999/xlink" class="plot-d6a7b5" fill="currentColor" font-family="system-ui, sans-serif" font-size="10" text-anchor="middle" width="830" height="470" viewBox="0 0 830 470" color="#1e90ff">
  <style>:where(.plot-d6a7b5){--plot-background: white;display:block;height:intrinsic;max-width:100%}:where(.plot-d6a7b5 text),:where(.plot-d6a7b5 tspan){white-space:pre}</style>
  <g aria-label="y-grid" stroke="currentColor" stroke-opacity=".1">
    <line x1="60" x2="770" y1="410" y2="410"/>
    <line x1="60" x2="770" y1="384.328" y2="384.328"/>
    <line x1="60" x2="770" y1="358.656" y2="358.656"/>
    <line x1="60" x2="770" y1="332.984" y2="332.984"/>
    <line x1="60" x2="770" y1="307.311" y2="307.311"/>
    <line x1="60" x2="770" y1="281.639" y2="281.639"/>
    <line x1="60" x2="770" y1="255.967" y2="255.967"/>
    <line x1="60" x2="770" y1="230.295" y2="230.295"/>
    <line x1="60" x2="770" y1="204.623" y2="204.623"/>
    <line x1="60" x2="770" y1="178.951" y2="178.951"/>
    <line x1="60" x2="770" y1="153.279" y2="153.279"/>
    <line x1="60" x2="770" y1="127.607" y2="127.607"/>
    <line x1="60" x2="770" y1="101.934" y2="101.934"/>
    <line x1="60" x2="770" y1="76.262" y2="76.262"/>
  </g>
  <g aria-label="y-axis tick" fill="none" stroke="currentColor">
    <path transform="translate(60,410)" d="M0,0L-6,0"/>
    <path transform="translate(60,384.32786688045445)" d="M0,0L-6,0"/>
    <path transform="translate(60,358.65573376090884)" d="M0,0L-6,0"/>
    <path transform="translate(60,332.98360064136324)" d="M0,0L-6,0"/>
    <path transform="translate(60,307.3114675218177)" d="M0,0L-6,0"/>
    <path transform="translate(60,281.639334402272)" d="M0,0L-6,0"/>
    <path transform="translate(60,255.96720128272648)" d="M0,0L-6,0"/>
    <path transform="translate(60,230.29506816318087)" d="M0,0L-6,0"/>
    <path transform="translate(60,204.62293504363532)" d="M0,0L-6,0"/>
    <path transform="translate(60,178.9508019240897)" d="M0,0L-6,0"/>
    <path transform="translate(60,153.2786688045441)" d="M0,0L-6,0"/>
    <path transform="translate(60,127.60653568499852)" d="M0,0L-6,0"/>
    <path transform="translate(60,101.93440256545294)" d="M0,0L-6,0"/>
    <path transform="translate(60,76.26226944590735)" d="M0,0L-6,0"/>
  </g>
  <g aria-label="y-axis tick label" text-anchor="end" font-variant="tabular-nums">
    <text y=".32em" transform="translate(-9,0) translate(60,410)">0</text>
    <text y=".32em" transform="translate(-9,0) translate(60,384.32786688045445)">50,000</text>
    <text y=".32em" transform="translate(-9,0) translate(60,358.65573376090884)">100,000</text>
    <text y=".32em" transform="translate(-9,0) translate(60,332.98360064136324)">150,000</text>
    <text y=".32em" transform="translate(-9,0) translate(60,307.3114675218177)">200,000</text>
    <text y=".32em" transform="translate(-9,0) translate(60,281.639334402272)">250,000</text>
    <text y=".32em" transform="translate(-9,0) translate(60,255.96720128272648)">300,000</text>
    <text y=".32em" transform="translate(-9,0) translate(60,230.29506816318087)">350,000</text>
    <text y=".32em" transform="translate(-9,0) translate(60,204.62293504363532)">400,000</text>
    <text y=".32em" transform="translate(-9,0) translate(60,178.9508019240897)">450,000</text>
    <text y=".32em" transform="translate(-9,0) translate(60,153.2786688045441)">500,000</text>
    <text y=".32em" transform="translate(-9,0) translate(60,127.60653568499852)">550,000</text>
    <text y=".32em" transform="translate(-9,0) translate(60,101.93440256545294)">600,000</text>
    <text y=".32em" transform="translate(-9,0) translate(60,76.26226944590735)">650,000</text>
  </g>
  <g aria-label="y-axis label" text-anchor="start">
    <text y=".71em" transform="translate(-57,-57) translate(60,60)">&#x2191; Total Vestiges</text>
  </g>
  <g aria-label="x-axis tick" fill="none" stroke="currentColor">
    <path transform="translate(89.20161290322581,410)" d="M0,0L0,6"/>
    <path transform="translate(167.35887096774195,410)" d="M0,0L0,6"/>
    <path transform="translate(246.375,410)" d="M0,0L0,6"/>
    <path transform="translate(325.39112903225805,410)" d="M0,0L0,6"/>
    <path transform="translate(403.54838709677415,410)" d="M0,0L0,6"/>
    <path transform="translate(481.70564516129036,410)" d="M0,0L0,6"/>
    <path transform="translate(560.7217741935483,410)" d="M0,0L0,6"/>
    <path transform="translate(639.7379032258065,410)" d="M0,0L0,6"/>
    <path transform="translate(717.0362903225807,410)" d="M0,0L0,6"/>
  </g>
  <g aria-label="x-axis tick label" font-variant="tabular-nums">
    <text transform="translate(0,9) translate(89.20161290322581,410)">
      <tspan x="0" y=".71em">Apr</tspan>
      <tspan x="0" dy="1em">2023</tspan>
    </text>
    <text y=".71em" transform="translate(0,9) translate(167.35887096774195,410)">Jul</text>
    <text y=".71em" transform="translate(0,9) translate(246.375,410)">Oct</text>
    <text transform="translate(0,9) translate(325.39112903225805,410)">
      <tspan x="0" y=".71em">Jan</tspan>
      <tspan x="0" dy="1em">2024</tspan>
    </text>
    <text y=".71em" transform="translate(0,9) translate(403.54838709677415,410)">Apr</text>
    <text y=".71em" transform="translate(0,9) translate(481.70564516129036,410)">Jul</text>
    <text y=".71em" transform="translate(0,9) translate(560.7217741935483,410)">Oct</text>
    <text transform="translate(0,9) translate(639.7379032258065,410)">
      <tspan x="0" y=".71em">Jan</tspan>
      <tspan x="0" dy="1em">2025</tspan>
    </text>
    <text y=".71em" transform="translate(0,9) translate(717.0362903225807,410)">Apr</text>
  </g>
  <g aria-label="line" fill="none" stroke="currentColor" stroke-width="1.5" stroke-linejoin="round" stroke-linecap="round">
    <path d="M60,410L60.573,409.742L61.145,408.8L61.718,408.291L62.29,407.931L62.863,407.336L63.435,406.868L64.008,406.429L64.581,405.541L65.153,404.838L65.726,404.004L66.298,402.711L66.871,401.493L67.444,400.86L68.016,399.945L68.589,399.323L69.161,398.61L69.734,397.678L70.306,397.051L70.879,396.436L71.452,395.601L72.024,394.675L72.597,394.02L73.169,392.901L73.742,392.371L74.315,391.877L74.887,390.985L75.46,390.131L76.032,389.474L76.605,388.558L77.177,387.644L77.75,386.812L78.323,385.523L78.895,384.5L79.468,383.908L80.04,383.291L80.613,382.826L81.185,382.451L81.758,381.754L82.331,381.074L82.903,380.599L83.476,379.5L84.048,378.352L84.621,377.323L85.194,376.077L85.766,375.232L86.339,374.512L86.911,373.531L87.484,372.711L88.056,372.117L88.629,371.047L89.202,370.012L89.774,369.047L90.347,367.663L90.919,366.349L91.492,365.666L92.065,364.652L92.637,363.737L93.21,362.917L93.782,361.756L94.355,360.665L94.927,359.718L95.5,358.579L96.073,357.488L96.645,356.548L97.218,355.283L97.79,354.505L98.363,353.803L98.935,352.824L99.508,352.023L100.081,351.423L100.653,350.651L101.226,349.818L101.798,349.041L102.371,348.022L102.944,347.012L103.516,346.436L104.089,345.637L104.661,345.014L105.234,344.603L105.806,343.968L106.379,343.336L106.952,342.665L107.524,341.796L108.097,340.913L108.669,340.224L109.242,339.269L109.815,338.598L110.387,338.16L110.96,337.154L111.532,336.459L112.105,336.083L112.677,335.453L113.25,334.845L113.823,334.213L114.395,333.344L114.968,332.588L115.54,331.937L116.113,331.371L116.685,330.869L117.258,330.389L117.831,329.6L118.403,329.151L118.976,328.694L119.548,327.953L120.121,327.113L120.694,326.455L121.266,325.607L121.839,325.037L122.411,324.506L122.984,323.738L123.556,323.212L124.129,322.711L124.702,322.043L125.274,321.52L125.847,320.888L126.419,320.219L126.992,319.612L127.565,319.109L128.137,318.582L128.71,318.121L129.282,317.687L129.855,317.076L130.427,316.611L131,316.191L131.573,315.499L132.145,314.6L132.718,313.944L133.29,313.09L133.863,312.579L134.435,311.993L135.008,311.388L135.581,310.836L136.153,310.448L136.726,309.678L137.298,309.074L137.871,308.438L138.444,307.516L139.016,306.838L139.589,306.244L140.161,305.638L140.734,304.976L141.306,304.463L141.879,303.962L142.452,303.298L143.024,302.907L143.597,302.388L144.169,301.919L144.742,301.478L145.315,300.857L145.887,300.409L146.46,299.942L147.032,299.316L147.605,298.869L148.177,298.456L148.75,298.008L149.323,297.482L149.895,296.987L150.468,296.47L151.04,295.91L151.613,295.47L152.185,294.932L152.758,294.48L153.331,294.03L153.903,293.406L154.476,292.887L155.048,292.478L155.621,291.94L156.194,291.428L156.766,291.058L157.339,290.423L157.911,289.939L158.484,289.439L159.056,288.884L159.629,288.412L160.202,288.131L160.774,287.616L161.347,287.196L161.919,286.696L162.492,286.101L163.065,285.63L163.637,285.112L164.21,284.541L164.782,284.022L165.355,283.566L165.927,282.822L166.5,282.218L167.073,281.87L167.645,281.314L168.218,280.818L168.79,280.521L169.363,279.993L169.935,279.652L170.508,279.247L171.081,278.754L171.653,278.295L172.226,277.932L172.798,277.358L173.371,276.938L173.944,276.557L174.516,276.023L175.089,275.543L175.661,275.165L176.234,274.586L176.806,274.218L177.379,273.799L177.952,273.267L178.524,272.835L179.097,272.345L179.669,271.784L180.242,271.292L180.815,270.874L181.387,270.395L181.96,269.831L182.532,269.39L183.105,268.976L183.677,268.539L184.25,268.206L184.823,267.635L185.395,267.277L185.968,266.873L186.54,266.366L187.113,265.962L187.685,265.471L188.258,264.818L188.831,264.326L189.403,264.035L189.976,263.368L190.548,262.877L191.121,262.441L191.694,261.831L192.266,261.419L192.839,260.977L193.411,260.468L193.984,259.95L194.556,259.504L195.129,258.844L195.702,258.336L196.274,257.888L196.847,257.345L197.419,256.748L197.992,256.137L198.565,255.238L199.137,254.689L199.71,254.275L200.282,253.715L200.855,253.264L201.427,252.938L202,252.429L202.573,251.98L203.145,251.666L203.718,251.154L204.29,250.687L204.863,250.349L205.435,249.807L206.008,249.301L206.581,248.916L207.153,248.409L207.726,247.775L208.298,247.241L208.871,246.574L209.444,246.102L210.016,245.646L210.589,244.972L211.161,244.466L211.734,243.996L212.306,243.431L212.879,242.964L213.452,242.652L214.024,242.2L214.597,241.859L215.169,241.484L215.742,241.03L216.315,240.574L216.887,240.153L217.46,239.731L218.032,239.296L218.605,238.928L219.177,238.518L219.75,238.113L220.323,237.771L220.895,237.375L221.468,236.968L222.04,236.529L222.613,236.002L223.185,235.626L223.758,235.22L224.331,234.794L224.903,234.482L225.476,234.147L226.048,233.798L226.621,233.585L227.194,233.323L227.766,232.725L228.339,232.311L228.911,231.923L229.484,231.397L230.056,231.177L230.629,230.882L231.202,230.604L231.774,230.382L232.347,230.047L232.919,229.705L233.492,229.313L234.065,228.901L234.637,228.244L235.21,227.686L235.782,227.387L236.355,226.983L236.927,226.706L237.5,226.371L238.073,225.985L238.645,225.639L239.218,225.364L239.79,224.942L240.363,224.478L240.935,224.135L241.508,223.669L242.081,223.431L242.653,223.198L243.226,222.886L243.798,222.591L244.371,222.328L244.944,221.902L245.516,221.546L246.089,221.182L246.661,220.691L247.234,220.323L247.806,220.128L248.379,219.766L248.952,219.499L249.524,219.26L250.097,218.958L250.669,218.662L251.242,218.321L251.815,217.873L252.387,217.393L252.96,216.912L253.532,216.412L254.105,216.051L254.677,215.775L255.25,215.434L255.823,215.149L256.395,214.84L256.968,214.425L257.54,214.147L258.113,213.886L258.685,213.306L259.258,212.81L259.831,212.504L260.403,212.189L260.976,211.963L261.548,211.784L262.121,211.407L262.694,211.156L263.266,210.907L263.839,210.423L264.411,209.902L264.984,209.511L265.556,208.981L266.129,208.7L266.702,208.442L267.274,207.999L267.847,207.712L268.419,207.44L268.992,207.052L269.565,206.638L270.137,206.373L270.71,205.934L271.282,205.652L271.855,205.47L272.427,205.08L273,204.818L273.573,204.659L274.145,204.419L274.718,204.173L275.29,203.762L275.863,203.277L276.435,202.79L277.008,202.465L277.581,202.145L278.153,201.959L278.726,201.678L279.298,201.348L279.871,201.166L280.444,200.976L281.016,200.651L281.589,200.452L282.161,200.178L282.734,199.878L283.306,199.609L283.879,199.434L284.452,199.193L285.024,199.061L285.597,198.88L286.169,198.635L286.742,198.47L287.315,198.359L287.887,197.973L288.46,197.594L289.032,197.224L289.605,196.855L290.177,196.572L290.75,196.397L291.323,196.112L291.895,195.935L292.468,195.687L293.04,195.326L293.613,195.031L294.185,194.772L294.758,194.385L295.331,194.111L295.903,193.845L296.476,193.532L297.048,193.274L297.621,192.983L298.194,192.552L298.766,192.297L299.339,192.056L299.911,191.805L300.484,191.515L301.056,191.229L301.629,190.914L302.202,190.731L302.774,190.618L303.347,190.348L303.919,190.122L304.492,189.947L305.065,189.737L305.637,189.537L306.21,189.38L306.782,189.133L307.355,188.907L307.927,188.78L308.5,188.487L309.073,188.211L309.645,188.092L310.218,187.919L310.79,187.783L311.363,187.632L311.935,187.346L312.508,187.058L313.081,186.849L313.653,186.652L314.226,186.451L314.798,186.197L315.371,185.998L315.944,185.855L316.516,185.685L317.089,185.403L317.661,185.227L318.234,185.013L318.806,184.655L319.379,184.366L319.952,184.217L320.524,183.985L321.097,183.684L321.669,183.445L322.242,183.137L322.815,182.903L323.387,182.64L323.96,182.331L324.532,182.093L325.105,181.87L325.677,181.586L326.25,181.344L326.823,181.123L327.395,180.776L327.968,180.569L328.54,180.408L329.113,180.073L329.685,179.954L330.258,179.751L330.831,179.423L331.403,179.253L331.976,179.056L332.548,178.81L333.121,178.661L333.694,178.509L334.266,178.355L334.839,178.242L335.411,178.032L335.984,177.746L336.556,177.481L337.129,177.159L337.702,176.774L338.274,176.598L338.847,176.39L339.419,176.188L339.992,175.909L340.565,175.599L341.137,175.366L341.71,175.198L342.282,174.925L342.855,174.597L343.427,174.138L344,173.853L344.573,173.503L345.145,173.301L345.718,173.116L346.29,172.867L346.863,172.76L347.435,172.603L348.008,172.206L348.581,171.77L349.153,171.451L349.726,171.006L350.298,170.759L350.871,170.549L351.444,170.296L352.016,170.048L352.589,169.836L353.161,169.503L353.734,169.305L354.306,168.974L354.879,168.481L355.452,168.135L356.024,167.885L356.597,167.513L357.169,167.266L357.742,167.086L358.315,166.704L358.887,166.397L359.46,166.055L360.032,165.717L360.605,165.324L361.177,164.8L361.75,164.23L362.323,163.919L362.895,163.596L363.468,163.124L364.04,162.803L364.613,162.563L365.185,162.254L365.758,161.992L366.331,161.729L366.903,161.306L367.476,160.937L368.048,160.784L368.621,160.455L369.194,160.172L369.766,159.846L370.339,159.525L370.911,159.333L371.484,159.051L372.056,158.629L372.629,158.24L373.202,157.98L373.774,157.582L374.347,157.382L374.919,157.126L375.492,156.838L376.065,156.65L376.637,156.427L377.21,156.131L377.782,155.896L378.355,155.659L378.927,155.219L379.5,154.974L380.073,154.765L380.645,154.577L381.218,154.401L381.79,154.168L382.363,153.95L382.935,153.817L383.508,153.651L384.081,153.297L384.653,153.074L385.226,152.905L385.798,152.575L386.371,152.344L386.944,152.246L387.516,152.048L388.089,151.783L388.661,151.585L389.234,151.315L389.806,151.021L390.379,150.741L390.952,150.307L391.524,150.007L392.097,149.813L392.669,149.779L393.242,149.775L393.815,149.773L394.387,149.77L394.96,149.767L395.532,149.762L396.105,149.757L396.677,149.734L397.25,149.716L397.823,149.706L398.395,149.678L398.968,149.632L399.54,149.6L400.113,149.559L400.685,149.479L401.258,149.372L401.831,149.102L402.403,148.919L402.976,148.748L403.548,148.594L404.121,148.447L404.694,148.279L405.266,148.065L405.839,147.873L406.411,147.645L406.984,147.409L407.556,147.2L408.129,146.946L408.702,146.752L409.274,146.604L409.847,146.39L410.419,146.161L410.992,146.061L411.565,145.912L412.137,145.69L412.71,145.566L413.282,145.435L413.855,145.241L414.427,145.087L415,144.861L415.573,144.672L416.145,144.559L416.718,144.387L417.29,144.238L417.863,144.097L418.435,143.999L419.008,143.878L419.581,143.805L420.153,143.675L420.726,143.538L421.298,143.363L421.871,143.117L422.444,142.961L423.016,142.859L423.589,142.643L424.161,142.478L424.734,142.328L425.306,142.172L425.879,141.955L426.452,141.805L427.024,141.596L427.597,141.454L428.169,141.344L428.742,141.175L429.315,140.988L429.887,140.794L430.46,140.667L431.032,140.493L431.605,140.345L432.177,140.158L432.75,139.893L433.323,139.695L433.895,139.439L434.468,139.298L435.04,139.172L435.613,138.998L436.185,138.825L436.758,138.679L437.331,138.484L437.903,138.262L438.476,138.123L439.048,137.874L439.621,137.654L440.194,137.475L440.766,137.217L441.339,137.068L441.911,136.953L442.484,136.862L443.056,136.736L443.629,136.576L444.202,136.402L444.774,136.037L445.347,135.856L445.919,135.579L446.492,135.448L447.065,135.322L447.637,135.166L448.21,134.934L448.782,134.856L449.355,134.686L449.927,134.5L450.5,134.331L451.073,134.074L451.645,133.756L452.218,133.59L452.79,133.311L453.363,133.182L453.935,133.009L454.508,132.698L455.081,132.47L455.653,132.314L456.226,132.063L456.798,131.793L457.371,131.648L457.944,131.316L458.516,131.165L459.089,131.015L459.661,130.797L460.234,130.572L460.806,130.419L461.379,130.166L461.952,129.967L462.524,129.76L463.097,129.456L463.669,129.153L464.242,128.935L464.815,128.725L465.387,128.447L465.96,128.28L466.532,128.108L467.105,127.953L467.677,127.732L468.25,127.542L468.823,127.34L469.395,127.152L469.968,126.953L470.54,126.73L471.113,126.661L471.685,126.558L472.258,126.399L472.831,126.274L473.403,125.976L473.976,125.802L474.548,125.68L475.121,125.517L475.694,125.17L476.266,125.052L476.839,124.877L477.411,124.64L477.984,124.462L478.556,124.345L479.129,124.191L479.702,124.095L480.274,123.964L480.847,123.814L481.419,123.658L481.992,123.376L482.565,123.179L483.137,123.045L483.71,122.798L484.282,122.619L484.855,122.44L485.427,122.305L486,122.17L486.573,122.068L487.145,121.896L487.718,121.702L488.29,121.618L488.863,121.503L489.435,121.378L490.008,121.261L490.581,121.123L491.153,120.957L491.726,120.776L492.298,120.581L492.871,120.472L493.444,120.358L494.016,120.172L494.589,120.009L495.161,119.905L495.734,119.721L496.306,119.55L496.879,119.415L497.452,119.253L498.024,119.084L498.597,118.903L499.169,118.655L499.742,118.315L500.315,118.103L500.887,117.877L501.46,117.723L502.032,117.573L502.605,117.366L503.177,117.221L503.75,117.108L504.323,116.97L504.895,116.825L505.468,116.666L506.04,116.496L506.613,116.255L507.185,116.082L507.758,115.805L508.331,115.544L508.903,115.276L509.476,115.006L510.048,114.766L510.621,114.49L511.194,114.194L511.766,114.044L512.339,113.849L512.911,113.495L513.484,113.311L514.056,113.144L514.629,112.914L515.202,112.755L515.774,112.674L516.347,112.197L516.919,111.785L517.492,111.375L518.065,110.935L518.637,110.58L519.21,110.324L519.782,109.925L520.355,109.506L520.927,109.248L521.5,109.004L522.073,108.709L522.645,108.438L523.218,108.136L523.79,107.802L524.363,107.581L524.935,107.445L525.508,107.197L526.081,107.057L526.653,106.908L527.226,106.711L527.798,106.526L528.371,106.31L528.944,106.05L529.516,105.789L530.089,105.589L530.661,105.387L531.234,105.208L531.806,105.05L532.379,104.942L532.952,104.861L533.524,104.767L534.097,104.648L534.669,104.509L535.242,104.412L535.815,104.256L536.387,104.151L536.96,104.028L537.532,103.919L538.105,103.783L538.677,103.673L539.25,103.475L539.823,103.333L540.395,103.176L540.968,103.055L541.54,102.876L542.113,102.69L542.685,102.526L543.258,102.4L543.831,102.247L544.403,102.133L544.976,102.003L545.548,101.918L546.121,101.814L546.694,101.7L547.266,101.605L547.839,101.438L548.411,101.303L548.984,101.187L549.556,101.07L550.129,100.93L550.702,100.807L551.274,100.649L551.847,100.547L552.419,100.367L552.992,100.125L553.565,99.893L554.137,99.571L554.71,99.431L555.282,99.273L555.855,99.106L556.427,99.003L557,98.83L557.573,98.657L558.145,98.484L558.718,98.257L559.29,97.856L559.863,97.678L560.435,97.563L561.008,97.315L561.581,97.167L562.153,97.086L562.726,96.921L563.298,96.784L563.871,96.675L564.444,96.484L565.016,96.267L565.589,96.054L566.161,95.753L566.734,95.636L567.306,95.533L567.879,95.386L568.452,95.257L569.024,95.183L569.597,95.095L570.169,94.964L570.742,94.898L571.315,94.775L571.887,94.665L572.46,94.582L573.032,94.479L573.605,94.416L574.177,94.315L574.75,94.168L575.323,94.044L575.895,93.951L576.468,93.76L577.04,93.609L577.613,93.473L578.185,93.273L578.758,93.216L579.331,93.142L579.903,93.01L580.476,92.932L581.048,92.85L581.621,92.746L582.194,92.679L582.766,92.6L583.339,92.408L583.911,92.289L584.484,92.247L585.056,92.195L585.629,92.122L586.202,92.015L586.774,91.911L587.347,91.754L587.919,91.671L588.492,91.5L589.065,91.26L589.637,91.084L590.21,90.821L590.782,90.634L591.355,90.514L591.927,90.4L592.5,90.288L593.073,90.157L593.645,90.055L594.218,89.968L594.79,89.815L595.363,89.663L595.935,89.497L596.508,89.41L597.081,89.258L597.653,89.196L598.226,89.121L598.798,88.971L599.371,88.876L599.944,88.778L600.516,88.667L601.089,88.527L601.661,88.399L602.234,88.26L602.806,88.179L603.379,88.065L603.952,87.931L604.524,87.814L605.097,87.703L605.669,87.554L606.242,87.45L606.815,87.33L607.387,87.145L607.96,86.961L608.532,86.888L609.105,86.785L609.677,86.666L610.25,86.589L610.823,86.482L611.395,86.398L611.968,86.353L612.54,86.25L613.113,86.197L613.685,86.17L614.258,86.098L614.831,86L615.403,85.948L615.976,85.891L616.548,85.783L617.121,85.611L617.694,85.5L618.266,85.341L618.839,85.279L619.411,85.19L619.984,85.12L620.556,85.024L621.129,84.928L621.702,84.878L622.274,84.809L622.847,84.69L623.419,84.599L623.992,84.512L624.565,84.355L625.137,84.199L625.71,84.117L626.282,83.97L626.855,83.888L627.427,83.74L628,83.629L628.573,83.576L629.145,83.511L629.718,83.4L630.29,83.311L630.863,83.21L631.435,83.03L632.008,82.976L632.581,82.844L633.153,82.735L633.726,82.647L634.298,82.579L634.871,82.493L635.444,82.429L636.016,82.346L636.589,82.256L637.161,82.113L637.734,81.995L638.306,81.749L638.879,81.573L639.452,81.433L640.024,81.266L640.597,81.14L641.169,81.023L641.742,80.823L642.315,80.617L642.887,80.507L643.46,80.319L644.032,80.206L644.605,80.136L645.177,80.007L645.75,79.918L646.323,79.82L646.895,79.753L647.468,79.61L648.04,79.523L648.613,79.421L649.185,79.323L649.758,79.208L650.331,79.126L650.903,79.032L651.476,78.949L652.048,78.855L652.621,78.718L653.194,78.618L653.766,78.442L654.339,78.336L654.911,78.225L655.484,78.087L656.056,77.954L656.629,77.81L657.202,77.654L657.774,77.544L658.347,77.479L658.919,77.343L659.492,77.228L660.065,77.123L660.637,76.99L661.21,76.838L661.782,76.623L662.355,76.352L662.927,76.157L663.5,76.051L664.073,75.933L664.645,75.843L665.218,75.74L665.79,75.594L666.363,75.501L666.935,75.427L667.508,75.233L668.081,75.064L668.653,74.979L669.226,74.831L669.798,74.709L670.371,74.595L670.944,74.472L671.516,74.308L672.089,74.114L672.661,73.988L673.234,73.862L673.806,73.776L674.379,73.67L674.952,73.576L675.524,73.536L676.097,73.356L676.669,73.277L677.242,73.151L677.815,72.99L678.387,72.857L678.96,72.669L679.532,72.492L680.105,72.369L680.677,72.247L681.25,72.045L681.823,71.942L682.395,71.833L682.968,71.654L683.54,71.541L684.113,71.408L684.685,71.223L685.258,71.132L685.831,71.032L686.403,70.874L686.976,70.767L687.548,70.57L688.121,70.462L688.694,70.279L689.266,70.123L689.839,70.023L690.411,69.933L690.984,69.81L691.556,69.57L692.129,69.338L692.702,69.188L693.274,68.986L693.847,68.857L694.419,68.705L694.992,68.475L695.565,68.3L696.137,68.15L696.71,67.999L697.282,67.897L697.855,67.77L698.427,67.652L699,67.519L699.573,67.401L700.145,67.265L700.718,67.157L701.29,67.03L701.863,66.842L702.435,66.699L703.008,66.611L703.581,66.526L704.153,66.422L704.726,66.322L705.298,66.225L705.871,66.16L706.444,66.09L707.016,65.976L707.589,65.916L708.161,65.843L708.734,65.737L709.306,65.634L709.879,65.544L710.452,65.402L711.024,65.329L711.597,65.21L712.169,65.134L712.742,64.978L713.315,64.909L713.887,64.781L714.46,64.731L715.032,64.671L715.605,64.5L716.177,64.41L716.75,64.307L717.323,64.258L717.895,64.187L718.468,64.065L719.04,63.989L719.613,63.917L720.185,63.892L720.758,63.816L721.331,63.785L721.903,63.714L722.476,63.664L723.048,63.549L723.621,63.429L724.194,63.316L724.766,63.278L725.339,63.211L725.911,63.157L726.484,63.122L727.056,63.101L727.629,63.002L728.202,62.928L728.774,62.843L729.347,62.81L729.919,62.746L730.492,62.687L731.065,62.59L731.637,62.563L732.21,62.516L732.782,62.475L733.355,62.385L733.927,62.296L734.5,62.232L735.073,62.176L735.645,62.122L736.218,62.08L736.79,62.044L737.363,62.024L737.935,62.005L738.508,61.965L739.081,61.901L739.653,61.889L740.226,61.855L740.798,61.84L741.371,61.811L741.944,61.793L742.516,61.779L743.089,61.76L743.661,61.747L744.234,61.738L744.806,61.71L745.379,61.657L745.952,61.636L746.524,61.606L747.097,61.603L747.669,61.563L748.242,61.528L748.815,61.485L749.387,61.46L749.96,61.381L750.532,61.351L751.105,61.329L751.677,61.3L752.25,61.26L752.823,61.221L753.395,61.211L753.968,61.201L754.54,61.187L755.113,61.169L755.685,61.141L756.258,61.101L756.831,61.065L757.403,61.035L757.976,60.985L758.548,60.921L759.121,60.88L759.694,60.84L760.266,60.796L760.839,60.783L761.411,60.74L761.984,60.68L762.556,60.651L763.129,60.575L763.702,60.507L764.274,60.463L764.847,60.398L765.419,60.371L765.992,60.347L766.565,60.326L767.137,60.272L767.71,60.182L768.282,60.162L768.855,60.086L769.427,60.03L770,60"/>
  </g>
</svg>
