<svg class="plot-d6a7b5" fill="currentColor" font-family="system-ui, sans-serif" font-size="10" text-anchor="middle" width="830" height="470" viewBox="0 0 830 470" xmlns="http://www.w3.org/2000/svg" xmlns:xlink="http://www.w3.org/1999/xlink" color="dodgerblue"><style>:where(.plot-d6a7b5){--plot-background: white;display:block;height:intrinsic;max-width:100%}:where(.plot-d6a7b5 text),:where(.plot-d6a7b5 tspan){white-space:pre}</style><g aria-label="y-grid" stroke="currentColor" stroke-opacity=".1"><line x1="60" x2="770" y1="410" y2="410"/><line x1="60" x2="770" y1="378.557" y2="378.557"/><line x1="60" x2="770" y1="347.114" y2="347.114"/><line x1="60" x2="770" y1="315.671" y2="315.671"/><line x1="60" x2="770" y1="284.227" y2="284.227"/><line x1="60" x2="770" y1="252.784" y2="252.784"/><line x1="60" x2="770" y1="221.341" y2="221.341"/><line x1="60" x2="770" y1="189.898" y2="189.898"/><line x1="60" x2="770" y1="158.455" y2="158.455"/><line x1="60" x2="770" y1="127.012" y2="127.012"/><line x1="60" x2="770" y1="95.568" y2="95.568"/><line x1="60" x2="770" y1="64.125" y2="64.125"/></g><g aria-label="y-axis tick" fill="none" stroke="currentColor"><path transform="translate(60,410)" d="M0,0L-6,0"/><path transform="translate(60,378.55684921661634)" d="M0,0L-6,0"/><path transform="translate(60,347.11369843323274)" d="M0,0L-6,0"/><path transform="translate(60,315.6705476498491)" d="M0,0L-6,0"/><path transform="translate(60,284.2273968664655)" d="M0,0L-6,0"/><path transform="translate(60,252.7842460830818)" d="M0,0L-6,0"/><path transform="translate(60,221.34109529969817)" d="M0,0L-6,0"/><path transform="translate(60,189.8979445163145)" d="M0,0L-6,0"/><path transform="translate(60,158.45479373293085)" d="M0,0L-6,0"/><path transform="translate(60,127.01164294954722)" d="M0,0L-6,0"/><path transform="translate(60,95.56849216616357)" d="M0,0L-6,0"/><path transform="translate(60,64.12534138277994)" d="M0,0L-6,0"/></g><g aria-label="y-axis tick label" text-anchor="end" font-variant="tabular-nums"><text y=".32em" transform="translate(-9,0) translate(60,410)">0</text><text y=".32em" transform="translate(-9,0) translate(60,378.55684921661634)">5,000</text><text y=".32em" transform="translate(-9,0) translate(60,347.11369843323274)">10,000</text><text y=".32em" transform="translate(-9,0) translate(60,315.6705476498491)">15,000</text><text y=".32em" transform="translate(-9,0) translate(60,284.2273968664655)">20,000</text><text y=".32em" transform="translate(-9,0) translate(60,252.7842460830818)">25,000</text><text y=".32em" transform="translate(-9,0) translate(60,221.34109529969817)">30,000</text><text y=".32em" transform="translate(-9,0) translate(60,189.8979445163145)">35,000</text><text y=".32em" transform="translate(-9,0) translate(60,158.45479373293085)">40,000</text><text y=".32em" transform="translate(-9,0) translate(60,127.01164294954722)">45,000</text><text y=".32em" transform="translate(-9,0) translate(60,95.56849216616357)">50,000</text><text y=".32em" transform="translate(-9,0) translate(60,64.12534138277994)">55,000</text></g><g aria-label="y-axis label" text-anchor="start"><text y=".71em" transform="translate(-57,-57) translate(60,60)">↑ Visible Vestiges (30 days)</text></g><g aria-label="x-axis tick" fill="none" stroke="currentColor"><path transform="translate(67.05298013245033,410)" d="M0,0L0,6"/><path transform="translate(139.9337748344371,410)" d="M0,0L0,6"/><path transform="translate(210.46357615894038,410)" d="M0,0L0,6"/><path transform="translate(283.34437086092714,410)" d="M0,0L0,6"/><path transform="translate(353.8741721854305,410)" d="M0,0L0,6"/><path transform="translate(426.75496688741725,410)" d="M0,0L0,6"/><path transform="translate(499.635761589404,410)" d="M0,0L0,6"/><path transform="translate(570.1655629139074,410)" d="M0,0L0,6"/><path transform="translate(643.0463576158941,410)" d="M0,0L0,6"/><path transform="translate(713.5761589403974,410)" d="M0,0L0,6"/></g><g aria-label="x-axis tick label" font-variant="tabular-nums"><text transform="translate(0,9) translate(67.05298013245033,410)"><tspan x="0" y=".71em">Mar</tspan><tspan x="0" dy="1em">2023</tspan></text><text y=".71em" transform="translate(0,9) translate(139.9337748344371,410)">Apr</text><text y=".71em" transform="translate(0,9) translate(210.46357615894038,410)">May</text><text y=".71em" transform="translate(0,9) translate(283.34437086092714,410)">Jun</text><text y=".71em" transform="translate(0,9) translate(353.8741721854305,410)">Jul</text><text y=".71em" transform="translate(0,9) translate(426.75496688741725,410)">Aug</text><text y=".71em" transform="translate(0,9) translate(499.635761589404,410)">Sep</text><text y=".71em" transform="translate(0,9) translate(570.1655629139074,410)">Oct</text><text y=".71em" transform="translate(0,9) translate(643.0463576158941,410)">Nov</text><text y=".71em" transform="translate(0,9) translate(713.5761589403974,410)">Dec</text></g><g aria-label="line" fill="none" stroke="currentColor" stroke-width="1.5" stroke-linejoin="round" stroke-linecap="round"><path d="M60,410L61.567,406.843L63.135,395.297L64.702,389.071L66.269,384.657L67.837,377.375L69.404,371.639L70.971,366.263L72.539,355.383L74.106,346.774L75.673,336.555L77.241,320.727L78.808,305.804L80.375,298.056L81.943,286.843L83.51,279.228L85.077,270.499L86.645,259.085L88.212,251.401L89.779,243.867L91.347,233.642L92.914,222.303L94.481,214.273L96.049,200.57L97.616,194.08L99.183,188.024L100.751,177.101L102.318,166.643L103.885,158.593L105.453,147.374L107.02,139.344L108.587,140.702L110.155,131.137L111.722,123.025L113.289,123.05L114.857,121.226L116.424,120.912L117.991,127.194L119.558,127.276L121.126,129.156L122.693,139.168L124.26,140.639L125.828,134.325L127.395,132.936L128.962,125.282L130.53,123.66L132.097,126.257L133.664,121.93L135.232,119.415L136.799,122.364L138.366,120.597L139.934,115.956L141.501,117.837L143.068,107.379L144.636,97.342L146.203,99.895L147.77,97.933L149.338,94.776L150.905,95.952L152.472,92.921L154.04,89.752L155.607,93.94L157.174,92.519L158.742,86.406L160.309,82.45L161.876,72.653L163.444,67.722L165.011,67.653L166.578,64L168.146,60L169.713,66.113L171.28,70.716L172.848,73.112L174.415,78.866L175.982,76.734L177.55,73.181L179.117,78.143L180.684,78.407L182.252,78.042L183.819,86.123L185.386,91.016L186.954,95.097L188.521,103.825L190.088,109.278L191.656,106.831L193.223,110.806L194.79,110.315L196.358,112.145L197.925,121L199.492,122.037L201.06,125.125L202.627,134.464L204.194,140.117L205.762,144.192L207.329,151.933L208.896,150.82L210.464,150.16L212.031,154.179L213.598,157.065L215.166,158.254L216.733,161.825L218.3,162.373L219.868,166.385L221.435,173.277L223.002,176.572L224.57,173.334L226.137,175.05L227.704,172.315L229.272,170.347L230.839,171.629L232.406,169.957L233.974,171.736L235.541,176.245L237.108,178.874L238.675,180.918L240.243,184.88L241.81,184.898L243.377,182.823L244.945,188.98L246.512,191.036L248.079,190.005L249.647,192.407L251.214,192.363L252.781,194.413L254.349,199.916L255.916,200.696L257.483,197.652L259.051,196.545L260.618,192.237L262.185,191.866L263.753,194.35L265.32,192.445L266.887,191.269L268.455,195.589L270.022,196.451L271.589,197.117L273.157,199.714L274.724,195.413L276.291,193.596L277.859,195.74L279.426,194.753L280.993,192.778L282.561,194.69L284.128,194.948L285.695,194.558L287.263,197.96L288.83,199.035L290.397,199.457L291.965,200.519L293.532,198.557L295.099,198.381L296.667,200.142L298.234,198.174L299.801,197.834L301.369,201.249L302.936,206.789L304.503,208.374L306.071,212.77L307.638,212.701L309.205,213.015L310.773,215.04L312.34,215.216L313.907,214.43L315.475,218.348L317.042,218.109L318.609,219.53L320.177,225.806L321.744,227.529L323.311,228.535L324.879,231.434L326.446,231.761L328.013,232.101L329.581,232.126L331.148,233.453L332.715,232.459L334.283,235.384L335.85,234.818L337.417,235.069L338.985,236.547L340.552,234.755L342.119,234.711L343.687,236.025L345.254,234.516L346.821,233.214L348.389,233.107L349.956,230.453L351.523,229.114L353.091,231.177L354.658,231.227L356.225,230.541L357.792,233.484L359.36,232.56L360.927,233.893L362.494,236.572L364.062,236.899L365.629,236.295L367.196,238.44L368.764,237.673L370.331,237.05L371.898,240.169L373.466,239.566L375.033,239.805L376.6,241.974L378.168,240.666L379.735,239.591L381.302,240.767L382.87,239.402L384.437,240.238L386.004,241.515L387.572,240.408L389.139,240.742L390.706,242.609L392.274,243.1L393.841,241.779L395.408,245.483L396.976,247.816L398.543,246.722L400.11,249.451L401.678,248.527L403.245,247.797L404.812,249.313L406.38,247.275L407.947,247.288L409.514,247.307L411.082,244.93L412.649,243.345L414.216,246.823L415.784,243.798L417.351,242.446L418.918,243.641L420.486,242.056L422.053,241.641L423.62,243.32L425.188,241.59L426.755,240.389L428.322,241.433L429.89,238.635L431.457,238.415L433.024,239.805L434.592,239.176L436.159,236.975L437.726,235.365L439.294,231.258L440.861,229.938L442.428,229.938L443.996,228.435L445.563,227.001L447.13,229.994L448.698,228.139L450.265,227.592L451.832,229.957L453.4,228.63L454.967,228.925L456.534,232.78L458.102,232.176L459.669,229.529L461.236,232.988L462.804,232.793L464.371,230.378L465.938,231.296L467.506,228.177L469.073,227.812L470.64,228.472L472.208,226.542L473.775,225.806L475.342,228.139L476.909,227.454L478.477,227.215L480.044,230.032L481.611,231.818L483.179,235.126L484.746,241.546L486.313,242.71L487.881,242.194L489.448,243.892L491.015,244.244L492.583,242.917L494.15,244.634L495.717,245.118L497.285,244.005L498.852,246.087L500.419,246.961L501.987,246.118L503.554,247.37L505.121,247.118L506.689,247.231L508.256,248.464L509.823,251.011L511.391,253.734L512.958,257.796L514.525,259.299L516.093,262.268L517.66,267.324L519.227,266.204L520.795,266.89L522.362,269.047L523.929,268.323L525.497,269.455L527.064,271.38L528.631,272.153L530.199,274.027L531.766,275.48L533.333,276.876L534.901,277.234L536.468,277.354L538.035,274.631L539.603,272.317L541.17,273.662L542.737,273.681L544.305,274.474L545.872,275.216L547.439,275.48L549.007,276.624L550.574,279.706L552.141,279.14L553.709,278.436L555.276,279.448L556.843,277.555L558.411,278.75L559.978,280.165L561.545,278.958L563.113,278.555L564.68,282.662L566.247,282.504L567.815,282.9L569.382,284.894L570.949,281.574L572.517,280.674L574.084,281.687L575.651,279.97L577.219,280.813L578.786,282.07L580.353,283.177L581.921,284.592L583.488,288.466L585.055,289.805L586.623,287.598L588.19,286.649L589.757,283.919L591.325,283.599L592.892,284.951L594.459,285.007L596.026,284.881L597.594,286.271L599.161,286.869L600.728,287.661L602.296,290.183L603.863,285.982L605.43,282.768L606.998,282.85L608.565,282.599L610.132,283.039L611.7,286.076L613.267,285.812L614.834,287.202L616.402,290.17L617.969,288.749L619.536,284.756L621.104,284.397L622.671,281.165L624.238,280.655L625.806,281.196L627.373,279.398L628.94,280.064L630.508,282.215L632.075,283.334L633.642,284.158L635.21,287.045L636.777,286.089L638.344,286.007L639.912,287.963L641.479,286.68L643.046,287.252L644.614,290.384L646.181,290.849L647.748,291.038L649.316,293.107L650.883,293.245L652.45,291.019L654.018,290.906L655.585,289.755L657.152,289.661L658.72,290.843L660.287,289.868L661.854,290.692L663.422,294.295L664.989,296.691L666.556,299.05L668.124,302.188L669.691,301.955L671.258,301.817L672.826,305.099L674.393,305.653L675.96,307.376L677.528,309.916L679.095,311.985L680.662,313.205L682.23,317.224L683.797,315.954L685.364,313.539L686.932,313.778L688.499,312.463L690.066,310.954L691.634,311.753L693.201,311.269L694.768,314.142L696.336,317.041L697.903,318.576L699.47,318.941L701.038,319.695L702.605,317.243L704.172,317.318L705.74,318.098L707.307,316.488L708.874,315.664L710.442,316.079L712.009,313.243L713.576,313.47L715.143,314.199L716.711,314.413L718.278,313.004L719.845,312.457L721.413,310.212L722.98,310.193L724.547,311.803L726.115,310.52L727.682,309.112L729.249,311.696L730.817,313.759L732.384,315.853L733.951,318.456L735.519,318.89L737.086,318.261L738.653,320.192L740.221,318.777L741.788,318.431L743.355,321.399L744.923,322.89L746.49,324.393L748.057,327.286L749.625,327.141L751.192,326.877L752.759,328.147L754.327,328.896L755.894,329.996L757.461,332.159L759.029,332.857L760.596,334.04L762.163,335.04L763.731,335.14L765.298,336.486L766.865,337.725L768.433,335.574L770,333.423"/></g></svg>