<svg xmlns="http://www.w3.org/2000/svg" width="830" height="470" fill="currentColor" class="plot-d6a7b5" font-family="system-ui, sans-serif" font-size="10" style="--plot-background:white;display:block;height:intrinsic;max-width:100%;color:#1e90ff" text-anchor="middle" viewBox="0 0 830 470">
    <style>
        :where(.plot-d6a7b5 text),:where(.plot-d6a7b5 tspan){white-space:pre}
    </style>
    <path stroke="currentColor" stroke-opacity=".1" d="
M60
410
h710
M60
360.939
h710
M60
311.878
h710
M60
262.817
h710
m-710
-49.06
h710
M60
164.696
h710
M60
115.635
h710
M60
66.574
h710" aria-hidden="true" aria-label="y-grid"/>
    <path fill="none" stroke="currentColor" d="
M60
410
h-6
m6
-49.06
h-6
m6
-49.062
h-6
m6
-49.061
h-6
m6
-49.06
h-6
m6
-49.061
h-6
m6
-49.061
h-6
m6
-49.061
h-6" aria-hidden="true" aria-label="y-axis tick"/>
    <g aria-label="y-axis tick label" font-variant="tabular-nums" text-anchor="end">
        <text y=".32em" transform="translate(51 410)">0</text>
        <text y=".32em" transform="translate(51 360.94)">1,000</text>
        <text y=".32em" transform="translate(51 311.878)">2,000</text>
        <text y=".32em" transform="translate(51 262.817)">3,000</text>
        <text y=".32em" transform="translate(51 213.757)">4,000</text>
        <text y=".32em" transform="translate(51 164.696)">5,000</text>
        <text y=".32em" transform="translate(51 115.635)">6,000</text>
        <text y=".32em" transform="translate(51 66.574)">7,000</text>
    </g>
    <text y=".71em" aria-label="y-axis label" text-anchor="start" transform="translate(3 3)">↑ Visible Vestiges (4 days)</text>
    <path fill="none" stroke="currentColor" d="
M82.817
410
v6
m61.068
-6
v6
m61.739
-6
v6
m61.739
-6
v6
m61.068
-6
v6
m61.069
-6
v6
m61.738
-6
v6
m61.739
-6
v6
m60.397
-6
v6
m61.068
-6
v6
m61.739
-6
v6
m61.739
-6
v6" aria-hidden="true" aria-label="x-axis tick"/>
    <g aria-label="x-axis tick label" font-variant="tabular-nums">
        <text transform="translate(82.817 419)"><tspan x="0" y=".71em">Apr</tspan><tspan x="0" dy="1em">2023</tspan></text>
        <text y=".71em" transform="translate(143.885 419)">Jul</text>
        <text y=".71em" transform="translate(205.624 419)">Oct</text>
        <text transform="translate(267.363 419)"><tspan x="0" y=".71em">Jan</tspan><tspan x="0" dy="1em">2024</tspan></text>
        <text y=".71em" transform="translate(328.431 419)">Apr</text>
        <text y=".71em" transform="translate(389.5 419)">Jul</text>
        <text y=".71em" transform="translate(451.238 419)">Oct</text>
        <text transform="translate(512.977 419)"><tspan x="0" y=".71em">Jan</tspan><tspan x="0" dy="1em">2025</tspan></text>
        <text y=".71em" transform="translate(573.374 419)">Apr</text>
        <text y=".71em" transform="translate(634.442 419)">Jul</text>
        <text y=".71em" transform="translate(696.181 419)">Oct</text>
        <text transform="translate(757.92 419)"><tspan x="0" y=".71em">Jan</tspan><tspan x="0" dy="1em">2026</tspan></text>
    </g>
    <path fill="none" stroke="currentColor" stroke-linecap="round" stroke-linejoin="round" stroke-width="1.5" d="
m60
410
.447
-24.629
.448
-90.075
.447
-48.57
.448
-9.813
.447
33.264
.447
3.826
.448
-7.506
.447
-28.063
.447
-22.421
.448
-37.776
.447
-38.611
.448
-49.257
.447
19.281
.447
36.01
.448
57.009
.447
-7.654
.448
-1.57
.447
-.539
.447
9.321
.448
9.273
.447
-28.504
.447
-3.876
.448
-27.131
.447
37.826
.448
15.405
.447
21.685
.447
-30.957
.448
-15.553
.447
-2.306
.448
-5.691
.447
-16.68
.447
-35.668
.448
-10.449
.447
22.862
.447
64.22
.448
53.33
.447
20.752
.448
-7.555
.447
-20.655
.447
-9.517
.448
-38.415
.447
-44.645
.448
-52.937
.447
-14.179
.447
28.946
.448
29.535
.447
25.413
.447
2.355
.448
12.02
.447
-8.536
.448
-20.459
.447
-35.471
.447
-29.976
L84.159
60
l.447
26.934
.448
35.324
.447
38.12
.447
-13.05
.448
-14.031
.447
-16.779
.447
-12.167
.448
2.11
.447
-.099
.448
.687
.447
-12.02
.447
29.977
.448
22.764
.447
27.278
.448
-2.257
.447
9.812
.447
19.772
.448
-3.042
.447
-16.975
.447
-23.599
.448
-16.876
.447
19.231
.448
21.047
.447
36.894
.447
15.798
.448
15.65
.447
-.785
.448
-24.923
.447
-22.322
.447
-23.991
.448
-1.766
.447
-8.242
.447
20.311
.448
24.04
.447
-4.858
.448
-2.354
.447
5.887
.447
35.912
.448
8.39
.447
-24.482
.448
-22.813
.447
-14.178
.447
-1.767
.448
28.946
.447
24.236
.448
16.289
.447
-21.293
.447
5.053
.448
2.306
.447
4.563
.447
-37.335
.448
-19.33
.447
-10.156
.448
25.708
.447
12.265
.447
7.506
.448
4.318
.447
2.845
.448
9.567
.447
.295
.447
-12.511
.448
-.049
.447
-8.095
.447
12.265
.448
13.541
.447
14.031
.448
6.624
.447
-7.997
.447
-.442
.448
1.374
.447
-7.752
.448
-41.505
.447
-22.617
.447
-15.455
.448
37.14
.447
6.721
.447
23.794
.448
-3.974
.447
18.889
.448
-15.749
.447
-4.955
.447
-23.598
.448
-14.571
.447
-7.114
.448
3.974
.447
30.172
.447
1.619
.448
7.752
.447
10.008
.447
-.147
.448
11.579
.447
-1.718
.448
18.595
.447
-4.71
.447
-9.665
.448
1.962
.447
-2.551
.448
-.491
.447
.098
.447
5.152
.448
17.073
.447
-7.604
.447
-7.801
.448
-6.623
.447
-3.189
.448
5.298
.447
-2.06
.447
10.303
.448
-.982
.447
-8.193
.448
-6.378
.447
3.827
.447
8.193
.448
.736
.447
3.827
.447
-9.273
.448
2.552
.447
-12.413
.448
7.654
.447
1.177
.447
20.9
.448
3.827
.447
5.004
.448
-20.949
.447
-7.604
.447
-4.857
.448
-1.767
.447
2.306
.447
-4.661
.448
5.986
.447
-16.534
.448
-8.095
.447
10.303
.447
17.907
.448
10.401
.447
4.808
.448
2.698
.447
14.768
.447
-10.254
.448
3.385
.447
-11.284
.447
4.023
.448
-7.8
.447
3.679
.448
-1.668
.447
3.827
.447
-5.691
.448
.245
.447
-4.317
.448
10.646
.447
-3.925
.447
4.563
.448
-6.035
.447
-6.819
.447
-2.846
.448
-5.691
.447
6.918
.448
7.8
.447
-6.917
.447
-2.208
.448
6.28
.447
12.069
.448
10.303
.447
-15.013
.447
7.654
.448
-6.771
.447
6.084
.447
-4.465
.448
-8.291
.447
-13.933
.448
-8.439
.447
19.183
.447
-1.374
.448
.147
.447
-13.982
.448
5.544
.447
7.555
.447
-.539
.448
9.517
.447
-10.057
.447
-.393
.448
-14.374
.447
.834
.448
-.148
.447
11.235
.447
-8.536
.448
-15.602
.447
-34.048
.448
4.661
.447
18.839
.447
32.381
.448
9.419
.447
8.341
.447
4.906
.448
.147
.447
1.177
.448
-.343
.447
-1.717
.447
-2.306
.448
-2.797
.447
-3.777
.448
-4.465
.447
3.336
.447
-12.167
.448
-14.276
.447
-15.258
.447
15.454
.448
7.506
.447
-.785
.448
-3.287
.447
-1.325
.447
10.548
.448
3.729
.447
15.013
.448
10.744
.447
12.069
.447
-5.936
.448
-.197
.447
-10.989
.447
-4.465
.448
3.091
.447
2.012
.448
5.053
.447
1.177
.447
2.846
.448
2.502
.447
1.325
.448
-.197
.447
-9.272
.447
-12.56
.448
2.993
.447
3.189
.447
9.665
.448
6.083
.447
6.82
.448
7.31
.447
9.42
.447
6.966
.448
-23.745
.447
-19.134
.448
-12.069
.447
6.82
.447
18.496
.448
8.929
.447
23.745
.448
-.147
.447
-3.876
.447
-6.133
.448
-16.288
.447
-7.31
.447
-30.123
.448
-15.798
.447
10.745
.448
24.236
.447
26.738
.447
-3.385
.448
1.717
.447
-6.525
.448
5.691
.447
-3.484
.447
-11.235
.448
-6.476
.447
-4.268
.447
21.636
.448
10.45
.447
14.767
.448
-5.495
.447
-2.747
.447
-10.941
.448
-5.838
.447
-9.665
.448
-6.181
.447
-1.178
.447
16.092
.448
12.363
.447
9.714
.447
-4.219
.448
5.74
.447
-2.845
.448
-9.714
.447
-13.983
.447
-17.514
.448
-13.394
.447
-5.004
.448
11.333
.447
19.673
.447
15.209
.448
7.212
.447
-3.189
.447
-7.016
.448
.687
.447
4.563
.448
-15.798
.447
-20.801
.447
-4.269
.448
25.316
.447
25.757
.448
12.118
.447
-5.937
.447
-2.257
.448
-6.721
.447
-10.204
.447
-25.905
.448
-13.589
.447
-4.416
.448
22.961
.447
12.755
.447
8.341
.448
-.54
.447
-1.423
.448
5.25
.447
-12.167
.447
.736
.448
-4.857
.447
12.608
.447
7.948
.448
4.661
.447
1.913
.448
2.159
.447
14.326
.447
1.57
.448
-24.089
.447
-23.353
.448
-23.108
.447
8.291
.447
15.7
.448
28.75
.447
4.17
.447
-.883
.448
.441
.447
8.684
.448
.392
.447
-1.619
.447
-8.046
.448
2.453
.447
-6.721
.448
9.469
.447
5.593
.447
13.099
.448
-.54
.447
-.343
.447
-3.189
.448
6.672
.447
-13.442
.448
-20.41
.447
-24.825
.447
1.57
.448
9.224
.447
18.692
.448
8.046
.447
10.107
.447
-6.967
.448
-7.359
.447
-11.284
.447
-1.03
.448
-2.355
.447
1.913
.448
-.687
.447
7.016
.447
1.668
.448
-2.453
.447
-11.186
.448
.147
.447
4.906
.447
17.073
.448
-3.287
.447
-4.366
.447
-6.084
.448
10.303
.447
16.485
.448
4.317
.447
-4.17
.447
-5.838
.448
5.691
.447
2.502
.448
1.717
.447
-3.483
.447
-2.552
.448
2.797
.447
-4.318
.447
-4.758
.448
.735
.447
11.383
.448
13.393
.447
-2.943
.447
-10.843
.448
-14.473
.447
-5.642
.448
8.635
.447
8.193
.447
-4.219
.448
-.246
.447
5.544
.447
7.997
.448
-7.948
.447
-3.09
.448
-4.22
.447
-7.261
.447
-10.793
.448
6.28
.447
12.02
.448
-1.178
.447
-8.634
.447
-7.262
.448
6.427
.447
-2.305
.447
-.049
.448
-.393
.447
3.778
.448
2.404
.447
-.393
.447
.196
.448
-6.034
.447
3.336
.448
5.789
.447
1.08
.447
8.487
.448
-4.023
.447
.687
.447
-4.906
.448
.54
.447
7.849
.448
2.012
.447
4.268
.447
8.782
.448
3.483
.447
-5.494
.448
-12.658
.447
-14.522
.447
-10.744
.448
-9.371
.447
8.438
.447
10.892
.448
17.466
.447
-9.813
.448
-9.763
.447
-2.943
.447
10.597
.448
3.581
.447
-9.125
.448
-27.818
.447
-1.128
.447
-2.061
.448
24.58
.447
9.518
.448
9.616
.447
9.076
.447
2.698
.448
-14.129
.447
-31.448
.447
-15.504
.448
-4.562
.447
18.054
.448
10.45
.447
18.3
.447
-.147
.448
-.148
.447
-7.604
.448
4.808
.447
-11.431
.447
-15.356
.448
-14.13
.447
7.752
.447
11.676
.448
9.469
.447
6.623
.448
-.981
.447
-5.74
.447
-15.454
.448
4.219
.447
-8.242
.448
-17.368
.447
-22.224
.447
7.899
.448
19.182
.447
9.371
.447
-.981
.448
7.997
.447
15.552
.448
5.642
.447
-2.257
.447
-10.842
.448
-10.303
.447
10.597
.448
8.88
.447
8.34
.447
-16.582
.448
.834
.447
8.635
.447
4.17
.448
-9.616
.447
-18.84
.448
2.159
.447
2.208
.447
18.103
.448
.393
.447
10.499
.448
1.128
.447
3.14
.447
-.687
.448
-4.513
.447
-1.374
.447
-13.737
.448
-.981
.447
2.649
.448
24.04
.447
6.672
.447
-2.257
.448
-2.845
.447
4.023
.448
6.427
.447
-13.05
.447
-8.488
.448
-.294
.447
2.256
.447
-.834
.448
6.82
.447
12.658
.448
-3.238
.447
-9.616
.447
-6.869
.448
-2.747
.447
-7.85
.448
-15.601
.447
-.638
.447
8.291
.448
38.12
.447
28.309
.447
18.299
.448
3.042
.447
.049
.448
-.245
.447
-.246
.447
-1.864
.448
-1.226
.447
-.54
.448
-.442
.447
-2.698
.447
-2.011
.448
-1.276
.447
-3.287
.447
-7.212
.448
-21.881
.447
-9.812
.448
-6.084
.447
11.088
.447
3.434
.448
.245
.447
-5.74
.448
-4.317
.447
-5.642
.447
-2.11
.448
-1.619
.447
-2.551
.447
4.072
.448
5.838
.447
3.827
.448
-3.434
.447
4.612
.447
6.181
.448
.785
.447
-2.404
.448
1.816
.447
2.6
.447
-2.846
.448
-9.076
.447
.442
.447
3.973
.448
5.152
.447
3.827
.448
-2.699
.447
7.065
.447
2.649
.448
6.574
.447
-3.09
.448
-1.521
.447
-9.763
.447
-11.137
.448
-1.766
.447
7.015
.447
2.846
.448
-.834
.447
-4.612
.448
5.789
.447
-5.004
.447
-.049
.448
-5.053
.447
7.114
.448
3.826
.447
3.876
.447
-4.219
.448
-8.095
.447
3.974
.447
1.226
.448
4.416
.447
-5.691
.448
-8.684
.447
-4.808
.447
-6.623
.448
11.823
.447
7.016
.448
7.801
.447
-3.042
.447
-1.962
.448
-2.061
.447
-4.661
.447
.687
.448
-5.102
.447
.147
.448
-3.827
.447
-.932
.447
6.82
.448
6.083
.447
16.043
.448
2.159
.447
-4.269
.447
-7.898
.448
-22.863
.447
-2.06
.447
-9.862
.448
22.47
.447
5.25
.448
11.529
.447
-9.665
.447
4.563
.448
-1.276
.447
4.268
.448
-8.585
.447
-8.39
.447
-12.559
.448
.245
.447
-2.06
.447
18.103
.448
-.638
.447
-3.14
.448
-9.468
.447
1.619
.447
5.74
.448
-3.974
.447
.981
.448
-7.703
.447
11.383
.447
-.491
.448
10.941
.447
-7.114
.448
-.246
.447
-3.434
.447
2.551
.448
-5.151
.447
-4.857
.447
-10.008
.448
-1.08
.447
9.076
.448
2.355
.447
4.906
.447
3.582
.448
11.774
.447
-5.151
.448
-1.717
.447
-4.563
.447
3.189
.448
-.883
.447
-1.962
.447
11.382
.448
9.125
.447
6.182
.448
-5.397
.447
-18.594
.447
-1.472
.448
.246
.447
13.001
.448
-16.534
.447
.344
.447
-1.227
.448
10.548
.447
-5.691
.447
5.593
.448
7.85
.447
7.85
.448
-1.374
.447
.441
.447
-5.691
.448
-14.473
.447
-4.513
.448
2.06
.447
3.385
.447
1.816
.448
-4.367
.447
10.745
.447
4.072
.448
7.457
.447
-3.631
.448
-5.494
.447
1.619
.447
5.494
.448
6.526
.447
-3.042
.448
-2.257
.447
-3.876
.447
-6.181
.448
-5.446
.447
5.446
.447
6.377
.448
.982
.447
-5.299
.448
1.079
.447
.049
.447
-.686
.448
-3.042
.447
2.208
.448
.196
.447
-4.416
.447
-8.242
.448
-16.337
.447
-2.895
.447
2.11
.448
17.711
.447
5.887
.448
1.815
.447
.933
.447
3.532
.448
6.525
.447
.049
.448
-4.415
.447
-3.042
.447
-9.224
.448
-1.324
.447
-10.156
.447
-1.962
.448
-9.027
.447
.588
.448
2.061
.447
-.785
.447
-2.453
.448
8.635
.447
7.653
.448
-5.495
.447
-3.336
.447
2.747
.448
11.824
.447
2.404
.447
8.193
.448
-23.549
.447
-24.138
.448
-31.448
.447
3.483
.447
5.397
.448
14.767
.447
3.925
.448
-6.132
.447
-.197
.447
14.817
.448
11.922
.447
-1.325
.447
-5.544
.448
-3.778
.447
4.907
.448
15.846
.447
8.242
.447
7.605
.448
-1.227
.447
4.955
.448
-4.268
.447
-6.427
.447
-6.132
.448
-7.163
.447
1.521
.447
5.543
.448
7.801
.447
4.072
.448
8.929
.447
9.322
.447
6.132
.448
-.932
.447
-5.544
.448
-.343
.447
-3.581
.447
3.238
.448
-2.503
.447
4.514
.447
-2.895
.448
1.276
.447
-8.537
.448
-.686
.447
-4.465
.447
7.408
.448
-3.483
.447
-2.797
.448
-4.17
.447
5.103
.447
3.09
.448
4.808
.447
-.343
.447
6.574
.448
.932
.447
1.423
.448
-.981
.447
-5.937
.447
-1.962
.448
-2.061
.447
4.71
.448
-.441
.447
-.638
.447
-3.925
.448
3.631
.447
-5.397
.447
-8.046
.448
-12.412
.447
-13.639
.448
9.812
.447
6.966
.447
14.915
.448
3.483
.447
-1.423
.448
-.588
.447
-6.673
.447
-5.102
.448
-21.881
.447
-.392
.447
10.646
.448
14.669
.447
2.747
.448
3.336
.447
7.948
.447
1.031
.448
-2.65
.447
-2.502
.448
-7.604
.447
-9.96
.447
-10.597
.448
9.616
.447
10.499
.447
14.817
.448
-1.276
.447
2.797
.448
5.592
.447
-.049
.447
.687
.448
-3.336
.447
1.913
.448
-1.569
.447
1.913
.447
4.563
.448
-1.718
.447
-4.219
.448
-5.838
.447
.736
.447
-4.219
.448
-2.601
.447
-4.121
.447
-.785
.448
8.978
.447
5.937
.448
6.476
.447
-2.012
.447
-.785
.448
2.65
.447
1.079
.448
.245
.447
-8.34
.447
-4.955
.448
3.532
.447
13.394
.447
4.317
.448
-6.181
.447
-4.956
.448
-7.997
.447
2.306
.447
-6.476
.448
-7.899
.447
-8.88
.448
-8.781
.447
5.004
.447
5.396
.448
14.228
.447
7.212
.447
-1.128
.448
1.177
.447
2.355
.448
-2.11
.447
-4.808
.447
-7.457
.448
6.329
.447
-.049
.448
9.91
.447
1.178
.447
.245
.448
-3.238
.447
-2.159
.447
3.729
.448
-4.268
.447
-2.944
.448
-2.6
.447
5.593
.447
1.423
.448
.392
.447
-3.434
.448
.294
.447
-1.472
.447
1.325
.448
-.932
.447
-3.385
.447
-7.654
.448
4.514
.447
7.751
.448
6.231
.447
-.442
.447
-.294
.448
3.336
.447
3.14
.448
.295
.447
2.992
.447
1.619
.448
3.091
.447
-4.415
.447
-2.257
.448
1.373
.447
-.981
.448
-11.48
.447
-5.2
.447
-4.759
.448
10.499
.447
2.109
.448
8.488
.447
-3.336
.447
-.589
.448
1.864
.447
2.601
.447
-2.159
.448
-3.974
.447
-1.668
.448
-3.729
.447
-6.083
.447
.49
.448
.883
.447
7.065
.448
-6.329
.447
3.533
.447
2.698
.448
7.899
.447
.049
.447
-3.385
.448
-3.435
.447
-6.672
.448
3.336
.447
-2.992
.447
6.819
.448
-3.189
.447
6.084
.448
2.207
.447
2.257
.447
-1.374
.448
-.392
.447
-7.555
.447
-3.337
.448
-14.963
.447
-3.14
.448
-2.159
.447
7.605
.447
4.759
.448
2.306
.447
-3.189
.448
-7.703
.447
.687
.447
1.128
.448
8.88
.447
3.827
.447
5.642
.448
2.355
.447
-2.698
.448
5.936
.447
-5.201
.447
1.031
.448
-3.336
.447
4.366
.448
-2.747
.447
1.913
.447
.393
.448
3.041
.447
-1.128
.447
-4.121
.448
-1.57
.447
-7.801
.448
2.895
.447
-1.031
.447
3.582
.448
-2.6
.447
-3.14
.448
-1.717
.447
2.306
.447
7.457
.448
1.962
.447
-.589
.447
-3.679
.448
.196
.447
-3.483
.448
-10.548
.447
-13.198
.447
-4.121
.448
10.401
.447
14.718
.448
10.009
.447
.245
.447
-2.698
.448
-.196
.447
2.747
.447
-4.563
.448
-7.359
.447
-.981
.448
4.366
.447
4.465
.447
-2.797
.448
2.404
.447
-3.924
.448
-7.654
.447
-.294
.447
3.63
.448
10.303
.447
1.864
.447
3.091
.448
4.367
.447
-7.065
.448
1.423
.447
-8.145
.447
1.816
.448
-5.201
.447
-5.936
.448
-1.521
.447
.932
.447
6.329
.448
-2.355
.447
1.913
.447
1.227
.448
2.159
.447
-.933
.448
-2.354
.447
-.491
.447
2.11
.448
3.189
.447
2.453
.448
-1.521
.447
-9.273
.447
4.906
.448
-7.31
.447
3.876
.448
.785
.447
8.88
.447
3.238
.448
-13.492
.447
-13.491
.447
-2.65
.448
3.68
.447
9.812
.448
-.147
.447
-2.699
.447
-4.415
.448
.196
.447
7.507
.448
6.966
.447
2.208
.447
3.238
.448
-2.944
.447
.834
.447
-1.815
.448
2.404
.447
-.834
.448
-4.906
.447
-3.336
.447
3.679
.448
9.862
.447
3.679
.448
-1.128
.447
-1.129
.447
3.729
.448
2.895
.447
-1.718
.447
.54
.448
-.294
.447
.785
.448
-4.17
.447
-1.619
.447
-3.435
.448
2.895
.447
-2.748
.448
6.28
.447
-7.899
.447
4.71
.448
-4.955
.447
10.156
.447
.883
.448
-4.072
.447
-3.876
.448
-4.121
.447
11.676
.447
1.717
.448
-1.766
.447
-2.551
.448
-.049
.447
9.223
h.447
l.448
3.876
.447
-4.366
.447
2.502
.448
-7.997
.447
-4.661
.448
-6.132
.447
7.408
.447
5.004
.448
5.691
.447
.295
.448
4.415
.447
-4.317
.447
-3.68
.448
-6.083
.447
6.279
.447
.932
.448
2.404
.447
-6.083
.448
3.532
.447
1.227
.447
5.298
.448
-6.034
.447
-4.023
.448
-2.159
.447
3.287
.447
3.287
.448
2.159
.447
1.815
.447
3.287
.448
2.159
.447
-.343
.448
-4.22
.447
.687
.447
.54
.448
4.71
.447
-1.57
.448
1.57
h.447
l.447
.932
.448
.441
.447
.589
.447
-.932
.448
-3.778
.447
-1.128
.448
-.245
.447
4.857
.447
-1.914
.448
-.392
.447
-3.925
.448
1.521
.447
-4.268
.447
1.324
.448
.245
.447
4.808
.447
-1.03
.448
-1.57
.447
1.766
.448
2.944
.447
2.257
.447
-.687
.448
-1.717
.447
-2.453
.448
-1.717
.447
-.246
.447
-.932
.448
-2.698
.447
-1.079
.447
1.03
.448
1.913
.447
2.699
.448
-.295
.447
-1.521
.447
-1.619
.448
-3.189
.447
-.736
.448
-1.324
.447
1.079
.447
3.827
.448
1.864
.447
4.17
.447
-2.502
.448
-6.23
.447
.098
.448
-2.11
.447
3.14
.447
-.932
.448
4.513
.447
3.778
.448
-.441
.447
-1.031
.447
-3.827
.448
-1.619
.447
-2.256
.447
.687
.448
3.532
.447
.098
.448
1.668
.447
-.834
.447
5.789
.448
.54
.447
-.393
.448
-3.238
.447
-1.864
.447
1.03
.448
-.049
.447
2.748
.447
-.246
.448
1.57
.447
-.441
.448
.098
.447
-2.208
.447
-.098
.448
-1.03
.447
-2.748
.448
-2.207
.447
-.098
.447
2.845
.448
-1.521
.447
-2.453
.447
1.472
.448
1.717
.447
.147
.448
-1.373
.447
1.52
.447
.884
.448
-3.14
.447
1.373
.448
3.14
.447
3.435
.447
-5.544
.448
-1.717
.447
-3.68
.447
2.159
.448
-.098
.447
-2.061
.448
-1.325
.447
.54
.447
3.238
.448
4.317
.447
-1.717
.448
5.74
.447
-1.324
.447
2.306
.448
-1.227
.447
-.245
.448
-.981
.447
-3.533
.447
-1.57
.448
-5.789
.447
1.864
.447
.982
.448
7.162
.447
-1.373
.448
-.147
.447
-5.642
.447
2.894
.448
.932
.447
1.521
.448
-3.287
.447
1.374
.447
.49
.448
1.031
.447
1.226
.447
2.208
.448
.392
.447
-4.562
.448
-.736
.447
.343
.447
2.797
.448
-2.355
.447
-3.827
.448
-1.619
.447
3.434
.447
.049
.448
.589
.447
-.49
.447
5.445
.448
.638
.447
.981
.448
-4.268
.447
-.442
.447
.54
.448
4.514
.447
-1.57
.448
.785
.447
-2.65
.447
1.276
.448
-1.766
.447
3.189
.447
3.287
.448
1.374
h.447
l.448
-1.325
.447
-1.913
.447
-.491
.448
.049
.447
1.619
.448
.098
.447
-1.325
.447
-4.415
.448
.393
.447
-1.08
.447
-1.472
.448
-9.812
.447
-4.464
.448
5.102
.447
8.242
.447
5.004
.448
-.196
.447
.491
.448
-.098
.447
-2.699
.447
-4.268
.448
.245
.447
3.238
.447
5.888
.448
.539
.447
-4.415
.448
-2.306
.447
.392
.447
3.288
.448
-.099
.447
-2.747
.448
-.589
.447
-4.023
.447
4.661
.448
3.14
.447
4.955
.447
-2.159
.448
.246
.447
-4.955
.448
.245
.447
-4.906
.447
.785
.448
2.158
.447
4.808
.448
5.348
.447
-.834
.447
-1.03
.448
-.932
.447
.392
.447
-2.502
.448
-.491
.447
-1.324
.448
2.992
.447
1.668
.447
1.374
.448
.638
.447
.049
.448
.196
.447
-2.306
.447
-3.581
.448
-8.782
.447
-6.917
.447
-1.374
.448
7.604
.447
9.371
.448
1.668
.447
-2.159
.447
-2.355
.448
.393
.447
-4.268
.448
-4.023
.447
-.344
.447
1.717
.448
3.336
.447
1.57
.447
3.336
.448
1.472
.447
-2.404
.448
-2.109
.447
-.589
.447
3.581
.448
-.098
.447
-2.404
.448
-5.691
.447
3.091
.447
4.366
.448
5.937
.447
.196
.447
-2.257
.448
-.932
.447
1.03
.448
1.08
.447
1.177
.447
-1.815
.448
-1.374
.447
-4.121
.448
1.668
.447
1.178
.447
2.502
.448
-.834
.447
-2.061
.447
-1.374
.448
-2.551
.447
1.227
.448
2.355
.447
2.6
.447
.343
.448
-2.404
.447
.884
.448
.343
.447
-.54
.447
-3.385
.448
1.325
.447
1.275
.447
2.208
.448
-1.325
.447
1.472
h.448
l.447
1.57
.447
.883
.448
-.245
.447
.147
.448
-1.913
.447
-.54
h.447
l.448
.785
.447
1.325
.447
-2.257
.448
-1.472
.447
-1.864
.448
1.668
.447
1.177
.447
2.846
.448
-.393
.447
.098
.448
-4.513
.447
.638
.447
-.982
.448
2.699
.447
-.491
.447
-.245
.448
-.393
.447
-2.256
.448
-1.325
.447
-1.521
.447
.245
.448
-.686
.447
3.287
.448
1.177
.447
3.581
.447
-.343
.448
1.325
.447
1.079
.448
.785
.447
-1.226
.447
-1.374
.448
-.442
.447
.098
.447
-1.275
.448
-.295
.447
-2.354
.448
1.471
.447
-.245
.447
2.6
.448
-.736
.447
.491
.448
.049
.447
-2.159
.447
-.441
.448
-1.178
.447
1.57
.447
1.031
.448
1.128
.447
.491
.448
-2.012
.447
.883
.447
-1.815
.448
.049
.447
-.736
.448
2.551
.447
-1.864
.447
-.54
.448
-.834
.447
2.649
.447
.393
.448
-1.913
.447
1.275
.448
1.227
.447
.687
.447
-5.544
.448
-2.895
.447
3.042
.448
5.446
.447
2.747
.447
-1.03
.448
-.932
.447
-1.472
.447
-3.238
.448
-1.963
.447
-.785
.448
3.336
.447
-2.011
.447
-1.913
.448
.441
.447
2.404
.448
3.336
.447
-.785
.447
2.306
.448
-1.079
.447
.098
.447
-2.061
.448
-1.226
.447
-8.144
.448
-1.865
.447
-.196
.447
3.287
.448
-.981
.447
.981
.448
-.981
.447
4.759
.447
-1.423
.448
5.888
.447
-3.288
.447
2.503
.448
-2.944
.447
1.766
.448
-1.423
.447
.54
.447
-1.03
.448
-1.668
.447
-1.178
.448
1.766
.447
3.386
.447
-.687
.448
-1.766
.447
-2.306
.447
1.619
.448
.196
.447
.343
.448
1.865
.447
-2.208" aria-label="line"/>
</svg>
