<svg class="plot-d6a7b5" fill="currentColor" font-family="system-ui, sans-serif" font-size="10" text-anchor="middle" width="830" height="470" viewBox="0 0 830 470" xmlns="http://www.w3.org/2000/svg" xmlns:xlink="http://www.w3.org/1999/xlink" color="#1e90ff"><style>:where(.plot-d6a7b5){--plot-background: white;display:block;height:intrinsic;max-width:100%}:where(.plot-d6a7b5 text),:where(.plot-d6a7b5 tspan){white-space:pre}</style><g aria-label="y-grid" stroke="currentColor" stroke-opacity=".1"><line x1="60" x2="770" y1="410" y2="410"/><line x1="60" x2="770" y1="378.557" y2="378.557"/><line x1="60" x2="770" y1="347.114" y2="347.114"/><line x1="60" x2="770" y1="315.671" y2="315.671"/><line x1="60" x2="770" y1="284.227" y2="284.227"/><line x1="60" x2="770" y1="252.784" y2="252.784"/><line x1="60" x2="770" y1="221.341" y2="221.341"/><line x1="60" x2="770" y1="189.898" y2="189.898"/><line x1="60" x2="770" y1="158.455" y2="158.455"/><line x1="60" x2="770" y1="127.012" y2="127.012"/><line x1="60" x2="770" y1="95.568" y2="95.568"/><line x1="60" x2="770" y1="64.125" y2="64.125"/></g><g aria-label="y-axis tick" fill="none" stroke="currentColor"><path transform="translate(60,410)" d="M0,0L-6,0"/><path transform="translate(60,378.55684921661634)" d="M0,0L-6,0"/><path transform="translate(60,347.11369843323274)" d="M0,0L-6,0"/><path transform="translate(60,315.6705476498491)" d="M0,0L-6,0"/><path transform="translate(60,284.2273968664655)" d="M0,0L-6,0"/><path transform="translate(60,252.7842460830818)" d="M0,0L-6,0"/><path transform="translate(60,221.34109529969817)" d="M0,0L-6,0"/><path transform="translate(60,189.8979445163145)" d="M0,0L-6,0"/><path transform="translate(60,158.45479373293085)" d="M0,0L-6,0"/><path transform="translate(60,127.01164294954722)" d="M0,0L-6,0"/><path transform="translate(60,95.56849216616357)" d="M0,0L-6,0"/><path transform="translate(60,64.12534138277994)" d="M0,0L-6,0"/></g><g aria-label="y-axis tick label" text-anchor="end" font-variant="tabular-nums"><text y=".32em" transform="translate(-9,0) translate(60,410)">0</text><text y=".32em" transform="translate(-9,0) translate(60,378.55684921661634)">5,000</text><text y=".32em" transform="translate(-9,0) translate(60,347.11369843323274)">10,000</text><text y=".32em" transform="translate(-9,0) translate(60,315.6705476498491)">15,000</text><text y=".32em" transform="translate(-9,0) translate(60,284.2273968664655)">20,000</text><text y=".32em" transform="translate(-9,0) translate(60,252.7842460830818)">25,000</text><text y=".32em" transform="translate(-9,0) translate(60,221.34109529969817)">30,000</text><text y=".32em" transform="translate(-9,0) translate(60,189.8979445163145)">35,000</text><text y=".32em" transform="translate(-9,0) translate(60,158.45479373293085)">40,000</text><text y=".32em" transform="translate(-9,0) translate(60,127.01164294954722)">45,000</text><text y=".32em" transform="translate(-9,0) translate(60,95.56849216616357)">50,000</text><text y=".32em" transform="translate(-9,0) translate(60,64.12534138277994)">55,000</text></g><g aria-label="y-axis label" text-anchor="start"><text y=".71em" transform="translate(-57,-57) translate(60,60)">↑ Visible Vestiges (30 days)</text></g><g aria-label="x-axis tick" fill="none" stroke="currentColor"><path transform="translate(66.08571428571429,410)" d="M0,0L0,6"/><path transform="translate(128.97142857142856,410)" d="M0,0L0,6"/><path transform="translate(189.82857142857145,410)" d="M0,0L0,6"/><path transform="translate(252.7142857142857,410)" d="M0,0L0,6"/><path transform="translate(313.57142857142856,410)" d="M0,0L0,6"/><path transform="translate(376.45714285714286,410)" d="M0,0L0,6"/><path transform="translate(439.3428571428571,410)" d="M0,0L0,6"/><path transform="translate(500.2,410)" d="M0,0L0,6"/><path transform="translate(563.0857142857142,410)" d="M0,0L0,6"/><path transform="translate(623.9428571428572,410)" d="M0,0L0,6"/><path transform="translate(686.8285714285715,410)" d="M0,0L0,6"/><path transform="translate(749.7142857142857,410)" d="M0,0L0,6"/></g><g aria-label="x-axis tick label" font-variant="tabular-nums"><text transform="translate(0,9) translate(66.08571428571429,410)"><tspan x="0" y=".71em">Mar</tspan><tspan x="0" dy="1em">2023</tspan></text><text y=".71em" transform="translate(0,9) translate(128.97142857142856,410)">Apr</text><text y=".71em" transform="translate(0,9) translate(189.82857142857145,410)">May</text><text y=".71em" transform="translate(0,9) translate(252.7142857142857,410)">Jun</text><text y=".71em" transform="translate(0,9) translate(313.57142857142856,410)">Jul</text><text y=".71em" transform="translate(0,9) translate(376.45714285714286,410)">Aug</text><text y=".71em" transform="translate(0,9) translate(439.3428571428571,410)">Sep</text><text y=".71em" transform="translate(0,9) translate(500.2,410)">Oct</text><text y=".71em" transform="translate(0,9) translate(563.0857142857142,410)">Nov</text><text y=".71em" transform="translate(0,9) translate(623.9428571428572,410)">Dec</text><text transform="translate(0,9) translate(686.8285714285715,410)"><tspan x="0" y=".71em">Jan</tspan><tspan x="0" dy="1em">2024</tspan></text><text y=".71em" transform="translate(0,9) translate(749.7142857142857,410)">Feb</text></g><g aria-label="line" fill="none" stroke="currentColor" stroke-width="1.5" stroke-linejoin="round" stroke-linecap="round"><path d="M60,410L61.352,406.843L62.705,395.297L64.057,389.071L65.41,384.657L66.762,377.375L68.114,371.639L69.467,366.263L70.819,355.383L72.171,346.774L73.524,336.555L74.876,320.727L76.229,305.804L77.581,298.056L78.933,286.843L80.286,279.228L81.638,270.499L82.99,259.085L84.343,251.401L85.695,243.867L87.048,233.642L88.4,222.303L89.752,214.273L91.105,200.57L92.457,194.08L93.81,188.024L95.162,177.101L96.514,166.643L97.867,158.593L99.219,147.374L100.571,139.344L101.924,140.702L103.276,131.137L104.629,123.025L105.981,123.05L107.333,121.226L108.686,120.912L110.038,127.194L111.39,127.276L112.743,129.156L114.095,139.168L115.448,140.639L116.8,134.325L118.152,132.936L119.505,125.282L120.857,123.66L122.21,126.257L123.562,121.93L124.914,119.415L126.267,122.364L127.619,120.597L128.971,115.956L130.324,117.837L131.676,107.379L133.029,97.342L134.381,99.895L135.733,97.933L137.086,94.776L138.438,95.952L139.79,92.921L141.143,89.752L142.495,93.94L143.848,92.519L145.2,86.406L146.552,82.45L147.905,72.653L149.257,67.722L150.61,67.653L151.962,64L153.314,60L154.667,66.113L156.019,70.716L157.371,73.112L158.724,78.866L160.076,76.734L161.429,73.181L162.781,78.143L164.133,78.407L165.486,78.042L166.838,86.123L168.19,91.016L169.543,95.097L170.895,103.825L172.248,109.278L173.6,106.831L174.952,110.806L176.305,110.315L177.657,112.145L179.01,121L180.362,122.037L181.714,125.125L183.067,134.464L184.419,140.117L185.771,144.192L187.124,151.933L188.476,150.82L189.829,150.16L191.181,154.179L192.533,157.065L193.886,158.254L195.238,161.825L196.59,162.373L197.943,166.385L199.295,173.277L200.648,176.572L202,173.334L203.352,175.05L204.705,172.315L206.057,170.347L207.41,171.629L208.762,169.957L210.114,171.736L211.467,176.245L212.819,178.874L214.171,180.918L215.524,184.88L216.876,184.898L218.229,182.823L219.581,188.98L220.933,191.036L222.286,190.005L223.638,192.407L224.99,192.363L226.343,194.413L227.695,199.916L229.048,200.696L230.4,197.652L231.752,196.545L233.105,192.237L234.457,191.866L235.81,194.35L237.162,192.445L238.514,191.269L239.867,195.589L241.219,196.451L242.571,197.117L243.924,199.714L245.276,195.413L246.629,193.596L247.981,195.74L249.333,194.753L250.686,192.778L252.038,194.69L253.39,194.948L254.743,194.558L256.095,197.96L257.448,199.035L258.8,199.457L260.152,200.519L261.505,198.557L262.857,198.381L264.21,200.142L265.562,198.174L266.914,197.834L268.267,201.249L269.619,206.789L270.971,208.374L272.324,212.77L273.676,212.701L275.029,213.015L276.381,215.04L277.733,215.216L279.086,214.43L280.438,218.348L281.79,218.109L283.143,219.53L284.495,225.806L285.848,227.529L287.2,228.535L288.552,231.434L289.905,231.761L291.257,232.101L292.61,232.126L293.962,233.453L295.314,232.459L296.667,235.384L298.019,234.818L299.371,235.069L300.724,236.547L302.076,234.755L303.429,234.711L304.781,236.025L306.133,234.516L307.486,233.214L308.838,233.107L310.19,230.453L311.543,229.114L312.895,231.177L314.248,231.227L315.6,230.541L316.952,233.484L318.305,232.56L319.657,233.893L321.01,236.572L322.362,236.899L323.714,236.295L325.067,238.44L326.419,237.673L327.771,237.05L329.124,240.169L330.476,239.566L331.829,239.805L333.181,241.974L334.533,240.666L335.886,239.591L337.238,240.767L338.59,239.402L339.943,240.238L341.295,241.515L342.648,240.408L344,240.742L345.352,242.609L346.705,243.1L348.057,241.779L349.41,245.483L350.762,247.816L352.114,246.722L353.467,249.451L354.819,248.527L356.171,247.797L357.524,249.313L358.876,247.275L360.229,247.288L361.581,247.307L362.933,244.93L364.286,243.345L365.638,246.823L366.99,243.798L368.343,242.446L369.695,243.641L371.048,242.056L372.4,241.641L373.752,243.32L375.105,241.59L376.457,240.389L377.81,241.433L379.162,238.635L380.514,238.415L381.867,239.805L383.219,239.176L384.571,236.975L385.924,235.365L387.276,231.258L388.629,229.938L389.981,229.938L391.333,228.435L392.686,227.001L394.038,229.994L395.39,228.139L396.743,227.592L398.095,229.957L399.448,228.63L400.8,228.925L402.152,232.78L403.505,232.176L404.857,229.529L406.21,232.988L407.562,232.793L408.914,230.378L410.267,231.296L411.619,228.177L412.971,227.812L414.324,228.472L415.676,226.542L417.029,225.806L418.381,228.139L419.733,227.454L421.086,227.215L422.438,230.032L423.79,231.818L425.143,235.126L426.495,241.546L427.848,242.71L429.2,242.194L430.552,243.892L431.905,244.244L433.257,242.917L434.61,244.634L435.962,245.118L437.314,244.005L438.667,246.087L440.019,246.961L441.371,246.118L442.724,247.37L444.076,247.118L445.429,247.231L446.781,248.464L448.133,251.011L449.486,253.734L450.838,257.796L452.19,259.299L453.543,262.268L454.895,267.324L456.248,266.204L457.6,266.89L458.952,269.047L460.305,268.323L461.657,269.455L463.01,271.38L464.362,272.153L465.714,274.027L467.067,275.48L468.419,276.876L469.771,277.234L471.124,277.354L472.476,274.631L473.829,272.317L475.181,273.662L476.533,273.681L477.886,274.474L479.238,275.216L480.59,275.48L481.943,276.624L483.295,279.706L484.648,279.14L486,278.436L487.352,279.448L488.705,277.555L490.057,278.75L491.41,280.165L492.762,278.958L494.114,278.555L495.467,282.662L496.819,282.504L498.171,282.9L499.524,284.894L500.876,281.574L502.229,280.674L503.581,281.687L504.933,279.97L506.286,280.813L507.638,282.07L508.99,283.177L510.343,284.592L511.695,288.466L513.048,289.805L514.4,287.598L515.752,286.649L517.105,283.919L518.457,283.599L519.81,284.951L521.162,285.007L522.514,284.881L523.867,286.271L525.219,286.869L526.571,287.661L527.924,290.183L529.276,285.982L530.629,282.768L531.981,282.85L533.333,282.599L534.686,283.039L536.038,286.076L537.39,285.812L538.743,287.202L540.095,290.17L541.448,288.749L542.8,284.756L544.152,284.397L545.505,281.165L546.857,280.655L548.21,281.196L549.562,279.398L550.914,280.064L552.267,282.215L553.619,283.334L554.971,284.158L556.324,287.045L557.676,286.089L559.029,286.007L560.381,287.963L561.733,286.68L563.086,287.252L564.438,290.384L565.79,290.849L567.143,291.038L568.495,293.107L569.848,293.245L571.2,291.019L572.552,290.906L573.905,289.755L575.257,289.661L576.61,290.843L577.962,289.868L579.314,290.692L580.667,294.295L582.019,296.691L583.371,299.05L584.724,302.188L586.076,301.955L587.429,301.817L588.781,305.099L590.133,305.653L591.486,307.376L592.838,309.916L594.19,311.985L595.543,313.205L596.895,317.224L598.248,315.954L599.6,313.539L600.952,313.778L602.305,312.463L603.657,310.954L605.01,311.753L606.362,311.269L607.714,314.142L609.067,317.041L610.419,318.576L611.771,318.941L613.124,319.695L614.476,317.243L615.829,317.318L617.181,318.098L618.533,316.488L619.886,315.664L621.238,316.079L622.59,313.243L623.943,313.47L625.295,314.199L626.648,314.413L628,313.004L629.352,312.457L630.705,310.212L632.057,310.193L633.41,311.803L634.762,310.52L636.114,309.112L637.467,311.696L638.819,313.759L640.171,315.853L641.524,318.456L642.876,318.89L644.229,318.261L645.581,320.192L646.933,318.777L648.286,318.431L649.638,321.399L650.99,322.89L652.343,324.393L653.695,327.286L655.048,327.141L656.4,326.877L657.752,328.147L659.105,328.896L660.457,329.996L661.81,332.159L663.162,332.857L664.514,334.04L665.867,335.04L667.219,335.14L668.571,336.486L669.924,337.725L671.276,335.574L672.629,333.423L673.981,334.914L675.333,334.838L676.686,333.285L678.038,332.939L679.39,331.612L680.743,330.663L682.095,330.468L683.448,329.462L684.8,328.103L686.152,328.946L687.505,328.858L688.857,327.355L690.21,326.764L691.562,324.185L692.914,323.487L694.267,325.028L695.619,324.443L696.971,325.556L698.324,325.475L699.676,323.928L701.029,324.953L702.381,324.971L703.733,323.72L705.086,323.978L706.438,325.563L707.79,325.833L709.143,327.078L710.495,328.889L711.848,328.921L713.2,327.499L714.552,326.393L715.905,325.374L717.257,326.141L718.61,327.361L719.962,327.757L721.314,327.562L722.667,327.537L724.019,327.606L725.371,328.286L726.724,328.411L728.076,327.361L729.429,324.449L730.781,325.204L732.133,323.462L733.486,322.959L734.838,324.795L736.19,323.198L737.543,324.374L738.895,326.468L740.248,323.689L741.6,320.764L742.952,319.865L744.305,316.243L745.657,315.086L747.01,314.4L748.362,312.677L749.714,312.206L751.067,313.124L752.419,312.287L753.771,313.809L755.124,314.463L756.476,310.577L757.829,308.891L759.181,308.3L760.533,307.168L761.886,307.948L763.238,308.583L764.59,305.967L765.943,305.552L767.295,305.376L768.648,306.866L770,305.54"/></g></svg>