<svg class="plot-d6a7b5" fill="currentColor" font-family="system-ui, sans-serif" font-size="10" text-anchor="middle" width="830" height="470" xmlns="http://www.w3.org/2000/svg" color="#1e90ff"><style>:where(.plot-d6a7b5){--plot-background: white;display:block;height:intrinsic;max-width:100%}:where(.plot-d6a7b5 text),:where(.plot-d6a7b5 tspan){white-space:pre}</style><path d="M60 410h710M60 375.697h710M60 341.393h710M60 307.09h710M60 272.787h710M60 238.484h710M60 204.18h710M60 169.877h710M60 135.574h710M60 101.27h710M60 66.967h710" aria-label="y-grid" stroke="currentColor" stroke-opacity=".1"/><path d="M60 410h-6m6-34.303h-6m6-34.304h-6m6-34.303h-6m6-34.303h-6m6-34.303h-6m6-34.304h-6m6-34.303h-6m6-34.303h-6m6-34.304h-6m6-34.303h-6" aria-label="y-axis tick" fill="none" stroke="currentColor"/><g aria-label="y-axis tick label" text-anchor="end" font-variant="tabular-nums"><text y=".32em" transform="translate(51 410)">0</text><text y=".32em" transform="translate(51 375.697)">50,000</text><text y=".32em" transform="translate(51 341.393)">100,000</text><text y=".32em" transform="translate(51 307.09)">150,000</text><text y=".32em" transform="translate(51 272.787)">200,000</text><text y=".32em" transform="translate(51 238.484)">250,000</text><text y=".32em" transform="translate(51 204.18)">300,000</text><text y=".32em" transform="translate(51 169.877)">350,000</text><text y=".32em" transform="translate(51 135.574)">400,000</text><text y=".32em" transform="translate(51 101.27)">450,000</text><text y=".32em" transform="translate(51 66.967)">500,000</text></g><text y=".71em" transform="translate(3 3)" aria-label="y-axis label" text-anchor="start">↑ Total Vestiges</text><path d="M65.299 410v6m54.751-6v6m52.985-6v6m54.751-6v6m52.985-6v6m54.751-6v6m54.752-6v6m52.985-6v6m54.751-6v6m52.985-6v6m54.751-6v6m54.752-6v6m51.218-6v6m54.752-6v6" aria-label="x-axis tick" fill="none" stroke="currentColor"/><g aria-label="x-axis tick label" font-variant="tabular-nums"><text transform="translate(65.299 419)"><tspan x="0" y=".71em">Mar</tspan><tspan x="0" dy="1em">2023</tspan></text><text y=".71em" transform="translate(120.05 419)">Apr</text><text y=".71em" transform="translate(173.035 419)">May</text><text y=".71em" transform="translate(227.786 419)">Jun</text><text y=".71em" transform="translate(280.771 419)">Jul</text><text y=".71em" transform="translate(335.522 419)">Aug</text><text y=".71em" transform="translate(390.274 419)">Sep</text><text y=".71em" transform="translate(443.259 419)">Oct</text><text y=".71em" transform="translate(498.01 419)">Nov</text><text y=".71em" transform="translate(550.995 419)">Dec</text><text transform="translate(605.746 419)"><tspan x="0" y=".71em">Jan</tspan><tspan x="0" dy="1em">2024</tspan></text><text y=".71em" transform="translate(660.498 419)">Feb</text><text y=".71em" transform="translate(711.716 419)">Mar</text><text y=".71em" transform="translate(766.468 419)">Apr</text></g><path d="M60 410l1.177-.344 1.178-1.26 1.177-.679 1.178-.482 1.177-.794 1.178-.626 1.177-.587 1.178-1.186 1.177-.94 1.177-1.115 1.178-1.726 1.177-1.628 1.178-.846 1.177-1.223 1.178-.831 1.177-.952 1.178-1.245 1.177-.839 1.177-.821 1.178-1.116 1.177-1.237 1.178-.876 1.177-1.495 1.178-.708 1.177-.661 1.178-1.191 1.177-1.141 1.177-.879 1.178-1.223 1.177-1.221 1.178-1.111 1.177-1.723 1.178-1.367 1.177-.792 1.178-.824 1.177-.621 1.178-.502 1.177-.93 1.177-.91 1.178-.634 1.177-1.468 1.178-1.534 1.177-1.375 1.178-1.665 1.177-1.13 1.178-.962 1.177-1.31 1.177-1.096 1.178-.794 1.177-1.43 1.178-1.382 1.177-1.29 1.178-1.849 1.177-1.756 1.178-.913 1.177-1.355 1.177-1.222 1.178-1.096 1.177-1.551 1.178-1.457 1.177-1.266 1.178-1.522 1.177-1.458 1.178-1.257 1.177-1.689 1.177-1.04 1.178-.938 1.177-1.308 1.178-1.071 1.177-.801 1.178-1.031 1.177-1.114 1.178-1.038 1.177-1.362 1.177-1.349 1.178-.769 1.177-1.068 1.178-.833 1.177-.549 1.178-.848 1.177-.845 1.178-.896 1.177-1.161 1.177-1.18 1.178-.922 1.177-1.276 1.178-.896 1.177-.585 1.178-1.344 1.177-.929 1.178-.503 1.177-.842 1.177-.811 1.178-.845 1.177-1.161 1.178-1.01 1.177-.87 1.178-.756 1.177-.671 1.178-.642 1.177-1.054 1.178-.6 1.177-.61 1.177-.99 1.178-1.123 1.177-.88 1.178-1.132 1.177-.763 1.178-.709 1.177-1.027 1.178-.702 1.177-.669 1.177-.893 1.178-.699 1.177-.844 1.178-.894 1.177-.811 1.178-.672 1.177-.705 1.178-.615 1.177-.58 1.177-.817 1.178-.621 1.177-.561 1.178-.925 1.177-1.201 1.178-.877 1.177-1.141 1.178-.683 1.177-.783 1.177-.808 1.178-.738 1.177-.519 1.178-1.028 1.177-.808 1.178-.848 1.177-1.232 1.178-.907 1.177-.794 1.177-.81 1.178-.884 1.177-.685 1.178-.67 1.177-.886 1.178-.523 1.177-.695 1.178-.626 1.177-.589 1.177-.829 1.178-.599 1.177-.624 1.178-.837 1.177-.597 1.178-.552 1.177-.598 1.178-.704 1.177-.661 1.177-.69 1.178-.749 1.177-.587 1.178-.719 1.177-.605 1.178-.601 1.177-.833 1.178-.694 1.177-.547 1.177-.719 1.178-.684 1.177-.494 1.178-.848 1.177-.648 1.178-.667 1.177-.742 1.178-.631 1.177-.376 1.178-.688 1.177-.561 1.177-.668 1.178-.795 1.177-.629 1.178-.693 1.177-.762 1.178-.694 1.177-.609 1.178-.994 1.177-.807 1.177-.465 1.178-.743 1.177-.663 1.178-.397 1.177-.706 1.178-.455 1.177-.542 1.178-.658 1.177-.613 1.177-.485 1.178-.767 1.177-.562 1.178-.508 1.177-.714 1.178-.641 1.177-.505 1.178-.774 1.177-.493 1.177-.559 1.178-.71 1.177-.577 1.178-.656 1.177-.75 1.178-.656 1.177-.559 1.178-.64 1.177-.754 1.177-.589 1.178-.553 1.177-.584 1.178-.446 1.177-.763 1.178-.477 1.177-.54 1.178-.678 1.177-.54 1.177-.656 1.178-.872 1.177-.658 1.178-.388 1.177-.892 1.178-.656 1.177-.583 1.178-.814 1.177-.55 1.177-.591 1.178-.681 1.177-.691 1.178-.596 1.177-.883 1.178-.679 1.177-.598 1.178-.725 1.177-.799 1.178-.816 1.177-1.202 1.177-.733 1.178-.553 1.177-.749 1.178-.601 1.177-.437 1.178-.679 1.177-.6 1.178-.42 1.177-.685 1.177-.623 1.178-.452 1.177-.724 1.178-.677 1.177-.514 1.178-.677 1.177-.847 1.178-.714 1.177-.891 1.177-.63 1.178-.609 1.177-.902 1.178-.676 1.177-.628 1.178-.754 1.177-.624 1.178-.418 1.177-.604 1.177-.456 1.178-.5 1.177-.607 1.178-.609 1.177-.563 1.178-.564 1.177-.581 1.178-.492 1.177-.547 1.177-.541 1.178-.458 1.177-.528 1.178-.544 1.177-.588 1.178-.703 1.177-.503 1.178-.542 1.177-.569 1.177-.417 1.178-.448 1.177-.466 1.178-.285 1.177-.35 1.178-.799 1.177-.553 1.178-.519 1.177-.703 1.177-.294 1.178-.394 1.177-.371 1.178-.296 1.177-.448 1.178-.457 1.177-.525 1.178-.55 1.177-.878 1.178-.745 1.177-.4 1.177-.539 1.178-.371 1.177-.448 1.178-.515 1.177-.462 1.178-.368 1.177-.564 1.178-.62 1.177-.458 1.177-.623 1.178-.317 1.177-.313 1.178-.417 1.177-.394 1.178-.35 1.177-.57 1.178-.476 1.177-.485 1.177-.657 1.178-.492 1.177-.261 1.178-.483 1.177-.356 1.178-.32 1.177-.403 1.178-.396 1.177-.456 1.177-.599 1.178-.641 1.177-.642 1.178-.669 1.177-.483 1.178-.367 1.177-.457 1.178-.381 1.177-.412 1.177-.555 1.178-.372 1.177-.348 1.178-.775 1.177-.663 1.178-.408 1.177-.422 1.178-.302 1.177-.239 1.177-.504 1.178-.334 1.177-.333 1.178-.647 1.177-.696 1.178-.523 1.177-.709 1.178-.375 1.177-.344 1.177-.593 1.178-.382 1.177-.365 1.178-.518 1.177-.553 1.178-.354 1.177-.587 1.178-.377 1.177-.242 1.178-.522 1.177-.35 1.177-.212 1.178-.321 1.177-.328 1.178-.55 1.177-.648 1.178-.651 1.177-.433 1.178-.428 1.177-.249 1.177-.376 1.178-.44 1.177-.243 1.178-.254 1.177-.435 1.178-.265 1.177-.367 1.178-.4 1.177-.36 1.177-.234 1.178-.322 1.177-.177 1.178-.241 1.177-.327 1.178-.221 1.177-.148 1.178-.516 1.177-.506 1.177-.495 1.178-.494 1.177-.377 1.178-.234 1.177-.381 1.178-.236 1.177-.331 1.178-.484 1.177-.393 1.177-.346 1.178-.517 1.177-.367 1.178-.355 1.177-.419 1.178-.344 1.177-.389 1.178-.575 1.177-.342 1.177-.321 1.178-.336 1.177-.388 1.178-.382 1.177-.421 1.178-.244 1.177-.151 1.178-.361 1.177-.302 1.177-.233 1.178-.282 1.177-.266 1.178-.21 1.177-.33 1.178-.302 1.177-.17 1.178-.391 1.177-.369 1.178-.16 1.177-.231 1.177-.182 1.178-.201 1.177-.383 1.178-.384 1.177-.28 1.178-.262 1.177-.269 1.178-.339 1.177-.266 1.177-.192 1.178-.227 1.177-.377 1.178-.235 1.177-.286 1.178-.478 1.177-.386 1.178-.199 1.177-.31 1.177-.403 1.178-.319 1.177-.411 1.178-.313 1.177-.351 1.178-.413 1.177-.318 1.178-.298 1.177-.379 1.177-.324 1.178-.296 1.177-.463 1.178-.277 1.177-.215 1.178-.448 1.177-.158 1.178-.271 1.177-.439 1.177-.227 1.178-.263 1.177-.329 1.178-.199 1.177-.203 1.178-.206 1.177-.15 1.178-.281 1.177-.383 1.177-.353 1.178-.431 1.177-.514 1.178-.235 1.177-.279 1.178-.269 1.177-.373 1.178-.415 1.177-.311 1.177-.224 1.178-.365 1.177-.439 1.178-.613 1.177-.381 1.178-.467 1.177-.269 1.178-.248 1.177-.333 1.177-.143 1.178-.21 1.177-.53 1.178-.582 1.177-.427 1.178-.594 1.177-.33 1.178-.281 1.177-.338 1.178-.332 1.177-.283 1.177-.444 1.178-.265 1.177-.443 1.178-.659 1.177-.462 1.178-.334 1.177-.497 1.178-.33 1.177-.241 1.177-.51 1.178-.41 1.177-.458 1.178-.45 1.177-.526 1.178-.7 1.177-.762 1.178-.415 1.177-.432 1.177-.631 1.178-.428 1.177-.321 1.178-.413 1.177-.35 1.178-.352 1.177-.564 1.178-.494 1.177-.204 1.177-.441 1.178-.377 1.177-.436 1.178-.428 1.177-.257 1.178-.377 1.177-.564 1.178-.52 1.177-.347 1.177-.532 1.178-.267 1.177-.342 1.178-.385 1.177-.251 1.178-.298 1.177-.395 1.178-.314 1.177-.317 1.177-.588 1.178-.328 1.177-.28 1.178-.251 1.177-.234 1.178-.312 1.177-.291 1.178-.178 1.177-.222 1.177-.473 1.178-.297 1.177-.226 1.178-.442 1.177-.308 1.178-.131 1.177-.264 1.178-.355 1.177-.264 1.178-.361 1.177-.393 1.177-.374 1.178-.579 1.177-.402 1.178-.258 1.177-.046 1.178-.006 1.177-.002 1.178-.004 1.177-.005 1.177-.006 1.178-.007 1.177-.031 1.178-.023 1.177-.014 1.178-.037 1.177-.061 1.178-.043 1.177-.055 1.177-.107 1.178-.143 1.177-.361 1.178-.244 1.177-.229 1.178-.206 1.177-.196 1.178-.225L770 60" aria-label="line" fill="none" stroke="currentColor" stroke-width="1.5" stroke-linejoin="round" stroke-linecap="round"/></svg>