<svg class="plot-d6a7b5" fill="currentColor" font-family="system-ui, sans-serif" font-size="10" text-anchor="middle" width="830" height="470" xmlns="http://www.w3.org/2000/svg" color="#1e90ff"><style>:where(.plot-d6a7b5){--plot-background: white;display:block;height:intrinsic;max-width:100%}:where(.plot-d6a7b5 text),:where(.plot-d6a7b5 tspan){white-space:pre}</style><path d="M60 410h710M60 378.557h710M60 347.114h710M60 315.671h710M60 284.227h710M60 252.784h710M60 221.341h710M60 189.898h710M60 158.455h710M60 127.012h710M60 95.568h710M60 64.125h710" aria-label="y-grid" stroke="currentColor" stroke-opacity=".1"/><path d="M60 410h-6m6-31.443h-6m6-31.443h-6m6-31.444h-6m6-31.443h-6m6-31.443h-6m6-31.443h-6m6-31.443h-6m6-31.443h-6m6-31.443h-6m6-31.444h-6m6-31.443h-6" aria-label="y-axis tick" fill="none" stroke="currentColor"/><g aria-label="y-axis tick label" text-anchor="end" font-variant="tabular-nums"><text y=".32em" transform="translate(51 410)">0</text><text y=".32em" transform="translate(51 378.557)">5,000</text><text y=".32em" transform="translate(51 347.114)">10,000</text><text y=".32em" transform="translate(51 315.67)">15,000</text><text y=".32em" transform="translate(51 284.227)">20,000</text><text y=".32em" transform="translate(51 252.784)">25,000</text><text y=".32em" transform="translate(51 221.341)">30,000</text><text y=".32em" transform="translate(51 189.898)">35,000</text><text y=".32em" transform="translate(51 158.455)">40,000</text><text y=".32em" transform="translate(51 127.012)">45,000</text><text y=".32em" transform="translate(51 95.568)">50,000</text><text y=".32em" transform="translate(51 64.125)">55,000</text></g><text y=".71em" transform="translate(3 3)" aria-label="y-axis label" text-anchor="start">↑ Visible Vestiges (30 days)</text><path d="M65.299 410v6m54.751-6v6m52.985-6v6m54.751-6v6m52.985-6v6m54.751-6v6m54.752-6v6m52.985-6v6m54.751-6v6m52.985-6v6m54.751-6v6m54.752-6v6m51.218-6v6m54.752-6v6" aria-label="x-axis tick" fill="none" stroke="currentColor"/><g aria-label="x-axis tick label" font-variant="tabular-nums"><text transform="translate(65.299 419)"><tspan x="0" y=".71em">Mar</tspan><tspan x="0" dy="1em">2023</tspan></text><text y=".71em" transform="translate(120.05 419)">Apr</text><text y=".71em" transform="translate(173.035 419)">May</text><text y=".71em" transform="translate(227.786 419)">Jun</text><text y=".71em" transform="translate(280.771 419)">Jul</text><text y=".71em" transform="translate(335.522 419)">Aug</text><text y=".71em" transform="translate(390.274 419)">Sep</text><text y=".71em" transform="translate(443.259 419)">Oct</text><text y=".71em" transform="translate(498.01 419)">Nov</text><text y=".71em" transform="translate(550.995 419)">Dec</text><text transform="translate(605.746 419)"><tspan x="0" y=".71em">Jan</tspan><tspan x="0" dy="1em">2024</tspan></text><text y=".71em" transform="translate(660.498 419)">Feb</text><text y=".71em" transform="translate(711.716 419)">Mar</text><text y=".71em" transform="translate(766.468 419)">Apr</text></g><path d="M60 410l1.177-3.157 1.178-11.546 1.177-6.226 1.178-4.414 1.177-7.282 1.178-5.736 1.177-5.376 1.178-10.88 1.177-8.609 1.177-10.219 1.178-15.828 1.177-14.923 1.178-7.748 1.177-11.213 1.178-7.615 1.177-8.729 1.178-11.414 1.177-7.684 1.177-7.534 1.178-10.225 1.177-11.339 1.178-8.03 1.177-13.703 1.178-6.49 1.177-6.056 1.178-10.923 1.177-10.458 1.177-8.05 1.178-11.219 1.177-8.03 1.178 1.358 1.177-9.565 1.178-8.112 1.177.025 1.178-1.824 1.177-.314 1.178 6.282 1.177.082 1.177 1.88 1.178 10.012 1.177 1.471 1.178-6.314 1.177-1.389 1.178-7.654 1.177-1.622 1.178 2.597 1.177-4.327 1.177-2.515 1.178 2.949 1.177-1.767 1.178-4.641 1.177 1.881 1.178-10.458 1.177-10.037 1.178 2.553 1.177-1.962 1.177-3.157 1.178 1.176 1.177-3.031 1.178-3.169 1.177 4.188 1.178-1.421 1.177-6.113 1.178-3.956 1.177-9.797 1.177-4.931 1.178-.069L140.066 64l1.178-4 1.177 6.113 1.178 4.603 1.177 2.396 1.178 5.754 1.177-2.132 1.177-3.553 1.178 4.962 1.177.264 1.178-.365 1.177 8.081 1.178 4.893 1.177 4.081 1.178 8.728 1.177 5.453 1.177-2.447 1.178 3.975 1.177-.491 1.178 1.83 1.177 8.855 1.178 1.037 1.177 3.088 1.178 9.339 1.177 5.653 1.177 4.075 1.178 7.741 1.177-1.113 1.178-.66 1.177 4.019 1.178 2.886 1.177 1.189 1.178 3.571 1.177.548 1.178 4.012 1.177 6.892 1.177 3.295 1.178-3.238 1.177 1.716 1.178-2.735 1.177-1.968 1.178 1.282 1.177-1.672 1.178 1.779 1.177 4.509 1.177 2.629 1.178 2.044 1.177 3.962 1.178.018 1.177-2.075 1.178 6.157 1.177 2.056 1.178-1.031 1.177 2.402 1.177-.044 1.178 2.05 1.177 5.503 1.178.78 1.177-3.044 1.178-1.107 1.177-4.308 1.178-.371 1.177 2.484 1.177-1.905 1.178-1.176 1.177 4.32 1.178.862 1.177.666 1.178 2.597 1.177-4.301 1.178-1.817 1.177 2.144 1.177-.987 1.178-1.975 1.177 1.912 1.178.258 1.177-.39 1.178 3.402 1.177 1.075 1.178.422 1.177 1.062 1.177-1.962 1.178-.176 1.177 1.761 1.178-1.968 1.177-.34 1.178 3.415 1.177 5.54 1.178 1.585 1.177 4.396 1.177-.069 1.178.314 1.177 2.025 1.178.176 1.177-.786 1.178 3.918 1.177-.239 1.178 1.421 1.177 6.276 1.177 1.723 1.178 1.006 1.177 2.899 1.178.327 1.177.34 1.178.025 1.177 1.327 1.178-.994 1.177 2.925 1.178-.566 1.177.251 1.177 1.478 1.178-1.792 1.177-.044 1.178 1.314 1.177-1.509 1.178-1.302 1.177-.107 1.178-2.654 1.177-1.339 1.177 2.063 1.178.05 1.177-.686 1.178 2.943 1.177-.924 1.178 1.333 1.177 2.679 1.178.327 1.177-.604 1.177 2.145 1.178-.767 1.177-.623 1.178 3.119 1.177-.603 1.178.239 1.177 2.169 1.178-1.308 1.177-1.075 1.177 1.176 1.178-1.365 1.177.836 1.178 1.277 1.177-1.107 1.178.334 1.177 1.867 1.178.491 1.177-1.321 1.177 3.704 1.178 2.333 1.177-1.094 1.178 2.729 1.177-.924 1.178-.73 1.177 1.516 1.178-2.038 1.177.013 1.177.019 1.178-2.377 1.177-1.585 1.178 3.478 1.177-3.025 1.178-1.352 1.177 1.195 1.178-1.585 1.177-.415 1.177 1.679 1.178-1.73 1.177-1.201 1.178 1.044 1.177-2.798 1.178-.22 1.177 1.39 1.178-.629 1.177-2.201 1.178-1.61 1.177-4.107 1.177-1.32h1.178l1.177-1.503 1.178-1.434 1.177 2.993 1.178-1.855 1.177-.547 1.178 2.365 1.177-1.327 1.177.295 1.178 3.855 1.177-.604 1.178-2.647 1.177 3.459 1.178-.195 1.177-2.415 1.178.918 1.177-3.119 1.177-.365 1.178.66 1.177-1.93 1.178-.736 1.177 2.333 1.178-.685 1.177-.239 1.178 2.817 1.177 1.786 1.177 3.308 1.178 6.42 1.177 1.164 1.178-.516 1.177 1.698 1.178.352 1.177-1.327 1.178 1.717 1.177.484 1.177-1.113 1.178 2.082 1.177.874 1.178-.843 1.177 1.252 1.178-.252 1.177.113 1.178 1.233 1.177 2.547 1.177 2.723 1.178 4.062 1.177 1.503 1.178 2.969 1.177 5.056 1.178-1.12 1.177.686 1.178 2.157 1.177-.724 1.177 1.132 1.178 1.925 1.177.773 1.178 1.874 1.177 1.453 1.178 1.396 1.177.358 1.178.12 1.177-2.723 1.178-2.314 1.177 1.345 1.177.019 1.178.793 1.177.742 1.178.264 1.177 1.144 1.178 3.082 1.177-.566 1.178-.704 1.177 1.012 1.177-1.893 1.178 1.195 1.177 1.415 1.178-1.207 1.177-.403 1.178 4.107 1.177-.158 1.178.396 1.177 1.994 1.177-3.32 1.178-.9 1.177 1.013 1.178-1.717 1.177.843 1.178 1.257 1.177 1.107 1.178 1.415 1.177 3.874 1.177 1.339 1.178-2.207 1.177-.949 1.178-2.73 1.177-.32 1.178 1.352 1.177.056 1.178-.126 1.177 1.39 1.177.598 1.178.792 1.177 2.522 1.178-4.201 1.177-3.214 1.178.082 1.177-.251 1.178.44 1.177 3.037 1.177-.264 1.178 1.39 1.177 2.968 1.178-1.421 1.177-3.993 1.178-.359 1.177-3.232 1.178-.51 1.177.541 1.177-1.798 1.178.666 1.177 2.151 1.178 1.119 1.177.824 1.178 2.887 1.177-.956 1.178-.082 1.177 1.956 1.178-1.283 1.177.572 1.177 3.132 1.178.465 1.177.189 1.178 2.069 1.177.138 1.178-2.226 1.177-.113 1.178-1.151 1.177-.094 1.177 1.182 1.178-.975 1.177.824 1.178 3.603 1.177 2.396 1.178 2.359 1.177 3.138 1.178-.233 1.177-.138 1.177 3.282 1.178.554 1.177 1.723 1.178 2.54 1.177 2.069 1.178 1.22 1.177 4.019 1.178-1.27 1.177-2.415 1.177.239 1.178-1.315 1.177-1.509 1.178.799 1.177-.484 1.178 2.873 1.177 2.899 1.178 1.535 1.177.365 1.177.754 1.178-2.452 1.177.075 1.178.78 1.177-1.61 1.178-.824 1.177.415 1.178-2.836 1.177.227 1.177.729 1.178.214 1.177-1.409 1.178-.547 1.177-2.245 1.178-.019 1.177 1.61 1.178-1.283 1.177-1.408 1.177 2.584 1.178 2.063 1.177 2.094 1.178 2.603 1.177.434 1.178-.629 1.177 1.931 1.178-1.415 1.177-.346 1.178 2.968 1.177 1.491 1.177 1.503 1.178 2.893 1.177-.145 1.178-.264 1.177 1.27 1.178.749 1.177 1.1 1.178 2.163 1.177.698 1.177 1.183 1.178 1 1.177.1 1.178 1.346 1.177 1.239 1.178-2.151 1.177-2.151 1.178 1.491 1.177-.076 1.177-1.553 1.178-.346 1.177-1.327 1.178-.949 1.177-.195 1.178-1.006 1.177-1.359 1.178.843 1.177-.088 1.177-1.503 1.178-.591 1.177-2.579 1.178-.698 1.177 1.541 1.178-.585 1.177 1.113 1.178-.081 1.177-1.547 1.177 1.025 1.178.018 1.177-1.251 1.178.258 1.177 1.585 1.178.27 1.177 1.245 1.178 1.811 1.177.032 1.177-1.422 1.178-1.106 1.177-1.019 1.178.767 1.177 1.22 1.178.396 1.177-.195 1.178-.025 1.177.069 1.177.68 1.178.125 1.177-1.05 1.178-2.912 1.177.755 1.178-1.742 1.177-.503 1.178 1.836 1.177-1.597 1.177 1.176 1.178 2.094 1.177-2.779 1.178-2.925 1.177-.899 1.178-3.622 1.177-1.157 1.178-.686 1.177-1.723 1.178-.471 1.177.918 1.177-.837 1.178 1.522 1.177.654 1.178-3.886 1.177-1.686 1.178-.591 1.177-1.132 1.178.78 1.177.635 1.177-2.616 1.178-.415 1.177-.176 1.178 1.49 1.177-1.326 1.178-2.139 1.177-4.509 1.178-1.534 1.177-.912 1.177-4.471 1.178-2.006 1.177 1.924 1.178 1.554 1.177.704 1.178 2.22 1.177-2.151 1.178-1.956 1.177 1.233 1.177-.994 1.178-.868 1.177.082 1.178-1.503 1.177 1.704 1.178 2.585 1.177-.924 1.178-1.705 1.177 1.365 1.177-1.855 1.178-.233 1.177 1.541 1.178.226 1.177 1.893 1.178 1.403 1.177 1.194 1.178 3.541 1.177 4.075 1.177-1.579 1.178.956 1.177 3.214 1.178 1.629 1.177.786 1.178.93 1.177.541 1.178 1.591 1.177 3.145 1.177.188 1.178-.855 1.177 1.968 1.178-.591 1.177 1.164 1.178 2.735 1.177-.075 1.178.213 1.177 2.736 1.178 1.459 1.177-.415 1.177 1.446 1.178-2.861 1.177-.547 1.178 1.163 1.177 1.881 1.178 2.679 1.177 3.597 1.178 2.848 1.177 2.862 1.177 5.326 1.178 2.943 1.177 2.283 1.178 2.088 1.177 2.018 1.178 2.516 1.177 2.107 1.178 1.245 1.177 1.528 1.177 3.358 1.178 1.409 1.177-1.239 1.178 1.811 1.177.736 1.178-.692 1.177.629 1.178 1.182 1.177-.195" aria-label="line" fill="none" stroke="currentColor" stroke-width="1.5" stroke-linejoin="round" stroke-linecap="round"/></svg>