<svg xmlns="http://www.w3.org/2000/svg" width="830" height="470" fill="currentColor" class="plot-d6a7b5" font-family="system-ui, sans-serif" font-size="10" style="--plot-background:white;display:block;height:intrinsic;max-width:100%;color:#1e90ff" text-anchor="middle" viewBox="0 0 830 470">
    <style>
        :where(.plot-d6a7b5 text),:where(.plot-d6a7b5 tspan){white-space:pre}
    </style>
    <path stroke="currentColor" stroke-opacity=".1" d="
M60
410
h710
M60
362.919
h710
M60
315.838
h710
M60
268.757
h710
M60
221.676
h710
M60
174.595
h710
M60
127.514
h710
M60
80.433
h710" aria-hidden="true" aria-label="y-grid"/>
    <path fill="none" stroke="currentColor" d="
M60
410
h-6
m6
-47.081
h-6
m6
-47.081
h-6
m6
-47.081
h-6
m6
-47.081
h-6
m6
-47.081
h-6
m6
-47.081
h-6
m6
-47.081
h-6" aria-hidden="true" aria-label="y-axis tick"/>
    <g aria-label="y-axis tick label" font-variant="tabular-nums" text-anchor="end">
        <text y=".32em" transform="translate(51 410)">0</text>
        <text y=".32em" transform="translate(51 362.919)">2,000</text>
        <text y=".32em" transform="translate(51 315.838)">4,000</text>
        <text y=".32em" transform="translate(51 268.757)">6,000</text>
        <text y=".32em" transform="translate(51 221.676)">8,000</text>
        <text y=".32em" transform="translate(51 174.595)">10,000</text>
        <text y=".32em" transform="translate(51 127.514)">12,000</text>
        <text y=".32em" transform="translate(51 80.433)">14,000</text>
    </g>
    <text y=".71em" aria-label="y-axis label" text-anchor="start" transform="translate(3 3)">↑ Visible vestiges (8 days)</text>
    <path fill="none" stroke="currentColor" d="
M82.256
410
v6
m59.566
-6
v6
m60.222
-6
v6
m60.221
-6
v6
m59.567
-6
v6
m59.566
-6
v6
m60.222
-6
v6
m60.22
-6
v6
m58.913
-6
v6
m59.567
-6
v6
m60.22
-6
v6
m60.222
-6
v6" aria-hidden="true" aria-label="x-axis tick"/>
    <g aria-label="x-axis tick label" font-variant="tabular-nums">
        <text transform="translate(82.256 419)"><tspan x="0" y=".71em">Apr</tspan><tspan x="0" dy="1em">2023</tspan></text>
        <text y=".71em" transform="translate(141.822 419)">Jul</text>
        <text y=".71em" transform="translate(202.044 419)">Oct</text>
        <text transform="translate(262.265 419)"><tspan x="0" y=".71em">Jan</tspan><tspan x="0" dy="1em">2024</tspan></text>
        <text y=".71em" transform="translate(321.832 419)">Apr</text>
        <text y=".71em" transform="translate(381.398 419)">Jul</text>
        <text y=".71em" transform="translate(441.62 419)">Oct</text>
        <text transform="translate(501.84 419)"><tspan x="0" y=".71em">Jan</tspan><tspan x="0" dy="1em">2025</tspan></text>
        <text y=".71em" transform="translate(560.753 419)">Apr</text>
        <text y=".71em" transform="translate(620.32 419)">Jul</text>
        <text y=".71em" transform="translate(680.54 419)">Oct</text>
        <text transform="translate(740.762 419)"><tspan x="0" y=".71em">Jan</tspan><tspan x="0" dy="1em">2026</tspan></text>
    </g>
    <path fill="none" stroke="currentColor" stroke-linecap="round" stroke-linejoin="round" stroke-width="1.5" d="
m60
410
.436
-11.817
.437
-43.221
.436
-23.305
.437
-16.525
.436
-27.26
.436
-21.469
.437
-20.127
.436
-28.908
.436
10.994
.437
-14.949
.436
-42.726
.437
-28.601
.436
-7.533
.436
-21.846
.437
12.218
.436
-.448
.437
-4.472
.436
30.485
.436
27.66
.437
-9.275
.436
-.471
.436
-1.554
.437
-18.62
.436
18.432
.437
6.097
.436
-12.688
.436
-.871
.437
12.311
.436
-11.935
.437
9.416
.436
-13.841
.436
-36.441
.437
-6.003
.436
11.982
.437
1.836
.436
20.693
.436
24.67
.437
6.215
.436
27.895
.436
25.118
.437
-23.188
.436
-24.34
.437
-25.871
.436
-39.949
.436
-6.826
.437
-1.789
.436
-23.188
.437
12.736
.436
25.4
.436
-1.883
.437
9.722
.436
-5.509
.436
-30.438
.437
-15.277
.436
6.285
.437
-19.256
.436
7.109
.436
9.84
.437
-8.969
.436
13.442
.437
16.808
.436
-20.881
.436
-3.554
.437
-1.154
L88.365
60
l.436
17.561
.437
17.82
.436
-1.459
.437
15.466
.436
22.575
.436
7.698
.437
19.774
.436
.047
.437
-14.548
.436
-1.412
.436
10.357
.437
-9.157
.436
6.803
.436
19.398
.437
6.497
.436
17.749
.437
15.537
.436
-13.441
.436
-3.861
.437
-3.013
.436
-24.977
.437
-1.624
.436
8.898
.436
-15.348
.437
7.957
.436
23.234
.437
2.731
.436
15.937
.436
1.742
.437
-19.751
.436
11.464
.436
2.025
.437
-8.687
.436
5.862
.437
5.815
.436
-7.157
.436
19.233
.437
13.724
.436
-4.12
.437
-12.57
.436
-7.18
.436
-16.808
.437
9.981
.436
-3.719
.436
-14.313
.437
9.864
.436
15.56
.437
-.447
.436
14.877
.436
-2.778
.437
-6.356
.436
7.392
.437
1.036
.436
-1.224
.436
9.534
.437
4.072
.436
.942
.436
9.345
.437
8.616
.436
-8.663
.437
-17.066
.436
-8.969
.436
-19.257
.437
4.591
.436
-5.532
.437
-8.498
.436
6.403
.436
23.446
.437
-5.202
.436
11.44
.436
-5.697
.437
-15.419
.436
-3.389
.437
-1.884
.436
-10.004
.436
4.943
.437
4.214
.436
6.12
.437
11.865
.436
13.183
.436
3.389
.437
6.309
.436
10.146
.437
-4.967
.436
2.448
.436
8.993
.437
-10.758
.436
3.319
.436
2.542
.437
-.306
.436
4.308
.437
-2.142
.436
-2.26
.436
3.013
.437
.353
.436
-5.72
.437
-.235
.436
3.531
.436
-5.909
.437
-.118
.436
6.898
.436
-4.52
.437
1.224
.436
3.79
.437
-8.498
.436
6.38
.436
.894
.437
-6.662
.436
3.013
.437
10.57
.436
-6.662
.436
9.863
.437
-.706
.436
-4.355
.436
3.861
.437
-2.119
.436
-13.277
.437
-.211
.436
-1.648
.436
-11.158
.437
-.448
.436
5.626
.437
-1.718
.436
3.437
.436
10.169
.437
-3.295
.436
18.455
.436
9.134
.437
-6.615
.436
4.449
.437
6.074
.436
-12.665
.436
4.92
.437
-1.813
.436
-5.908
.437
.565
.436
3.719
.436
-9.91
.437
9.416
.436
.07
.437
-6.92
.436
4.684
.436
-.471
.437
-8.404
.436
4.026
.436
-2.26
.437
-2.778
.436
-1.483
.437
-.424
.436
3.508
.436
5.673
.437
7.251
.436
-7.015
.437
5.602
.436
7.321
.436
-3.036
.437
.447
.436
-2.448
.436
-14.666
.437
3.602
.436
3.083
.437
-12.076
.436
.753
.436
-1.483
.437
-5.438
.436
11.064
.437
2.307
.436
-10.075
.436
6.898
.437
2.048
.436
-10.264
.436
4.637
.437
-1.647
.436
-4.614
.437
-4.026
.436
-4.308
.436
-20.762
.437
5.108
.436
4.331
.437
-5.155
.436
4.237
.436
12.43
.437
4.684
.436
20.645
.436
10.758
.437
-4.52
.436
4.285
.437
5.132
.436
-9.864
.436
.118
.437
2.919
.436
-8.828
.437
-5.555
.436
-3.108
.436
-15.042
.437
3.201
.436
2.307
.437
-13.277
.436
.024
.436
7.509
.437
-1.365
.436
9.134
.436
7.297
.437
.189
.436
15.301
.437
6.026
.436
.73
.436
4.967
.437
2.095
.436
-4.99
.437
.777
.436
-1.272
.436
-1.577
.437
2.236
.436
5.203
.436
1.2
.437
.66
.436
-.212
.437
-7.251
.436
1.53
.436
-.047
.437
-3.813
.436
3.813
.437
3.32
.436
4.143
.436
14.359
.437
5.226
.436
-8.78
.436
.541
.437
-3.484
.436
-8.78
.437
5.908
.436
-3.719
.436
-.73
.437
17.232
.436
3.601
.437
2.119
.436
6.144
.436
-8.78
.437
-16.62
.436
-12.83
.436
-3.554
.437
-3.131
.436
2.942
.437
2.637
.436
1.201
.436
14.265
.437
12.947
.436
-5.626
.437
-2.754
.436
-2.99
.436
-6.05
.437
6.804
.436
5.155
.437
-1.695
.436
5.838
.436
9.228
.437
-3.837
.436
5.085
.436
-5.791
.437
-11.818
.436
-2.566
.437
4.567
.436
-4.567
.436
7.345
.437
5.344
.436
2.825
.437
8.945
.436
1.248
.436
-11.606
.437
-5.391
.436
-9.84
.436
-11.982
.437
-2.707
.436
.965
.437
-.023
.436
7.462
.436
7.839
.437
3.037
.436
10.193
.437
4.59
.436
-13.983
.436
-7.085
.437
-.919
.436
-.306
.436
8.64
.437
4.567
.436
-5.344
.437
15.137
.436
11.322
.436
-8.192
.437
-9.439
.436
-7.557
.437
-16.125
.436
4.426
.436
-.354
.437
-8.898
.436
9.063
.436
11.394
.437
.141
.436
5.344
.437
.73
.436
-8.31
.436
7.391
.437
4.803
.436
-5.391
.437
5.791
.436
11.676
.436
1.13
.437
8.875
.436
-5.933
.437
-13.888
.436
-4.45
.436
-2.872
.437
-7.391
.436
2.472
.436
-1.625
.437
3.743
.436
13.889
.437
13.63
.436
-.047
.436
5.579
.437
-4.025
.436
-.871
.437
2.777
.436
.306
.436
-2.354
.437
8.875
.436
.824
.436
1.342
.437
6.167
.436
7.251
.437
-9.652
.436
-6.309
.436
-10.946
.437
-8.639
.436
-1.719
.437
-.447
.436
-7.98
.436
9.581
.437
6.003
.436
.4
.436
3.413
.437
1.083
.436
-9.699
.437
.471
.436
-4.096
.436
-2.99
.437
4.803
.436
.141
.437
-7.863
.436
6.003
.436
1.578
.437
.659
.436
1.059
.437
-1.318
.436
-1.083
.436
11.37
.437
6.521
.436
-1.366
.436
1.177
.437
5.297
.436
3.46
.437
5.297
.436
1.177
.436
-6.121
.437
2.001
.436
4.52
.437
-5.391
.436
-3.013
.436
3.673
.437
-.754
.436
5.085
.436
3.484
.437
-7.298
.436
.212
.437
3.061
.436
-3.508
.436
-1.318
.437
-5.391
.436
-2.213
.437
6.544
.436
5.391
.436
-3.319
.437
.918
.436
-.565
.436
-4.779
.437
-4.143
.436
-.212
.437
-2.848
.436
-.895
.436
-2.871
.437
-4.308
.436
5.673
.437
1.2
.436
-7.344
.436
-.283
.437
3.578
.436
-2.048
.436
3.014
.437
.588
.436
-3.837
.437
4.637
.436
3.555
.436
-5.132
.437
7.557
.436
1.812
.437
-4.896
.436
8.098
.436
.471
.437
-3.908
.436
8.545
.437
-1.553
.436
2.236
.436
9.887
.437
-1.836
.436
-4.096
.436
-.848
.437
-7.956
.436
-10.641
.437
-1.012
.436
-4.402
.436
.377
.437
.353
.436
-2.119
.437
4.12
.436
9.934
.436
-4.449
.437
-5.485
.436
-11.794
.436
-.283
.437
-1.789
.436
1.413
.437
-.801
.436
1.107
.436
10.146
.437
13.841
.436
-5.131
.437
-3.955
.436
-5.391
.436
-11.888
.437
.094
.436
-4.731
.436
-4.402
.437
6.803
.436
10.287
.437
-.612
.436
11.299
.436
-3.86
.437
-12.995
.436
-4.26
.437
-.071
.436
-7.321
.436
3.931
.437
.8
.436
-2.307
.436
8.546
.437
.164
.436
-4.001
.437
-1.013
.436
-12.712
.436
-17.843
.437
3.248
.436
-.753
.437
-5.932
.436
.753
.436
7.039
.437
9.863
.436
14.125
.437
2.165
.436
-4.543
.436
4.685
.437
7.721
.436
-4.12
.436
1.224
.437
-2.942
.436
-2.637
.437
10.57
.436
4.002
.436
-12.335
.437
-2.731
.436
1.036
.437
-3.32
.436
5.556
.436
-2.919
.437
-.283
.436
10.711
.436
7.628
.437
-1.648
.436
7.486
.437
-1.719
.436
-8.427
.436
1.977
.437
-.989
.436
1.601
.437
5.509
.436
.094
.436
.894
.437
14.03
.436
3.649
.436
-6.638
.437
-1.577
.436
.306
.437
-4.473
.436
-.612
.436
1.648
.437
-1.483
.436
4.096
.437
1.106
.436
-4.637
.436
1.694
.437
-2.259
.436
-15.396
.436
-4.684
.437
3.272
.436
7.509
.437
12.194
.436
13.371
.436
12.735
.437
19.704
.436
13.559
.437
8.64
.436
.517
.436
-.612
.437
-.4
.436
-1.153
.437
-1.931
.436
-1.247
.436
-1.648
.437
-2.613
.436
-4.12
.436
-11.888
.437
-7.109
.436
-5.744
.437
-5.602
.436
-4.85
.436
-4.049
.437
-4.896
.436
3.578
.437
-2.048
.436
-2.99
.436
-2.518
.437
-4.92
.436
-1.154
.436
3.037
.437
-1.012
.436
-.095
.437
6.262
.436
2.731
.436
1.507
.437
3.154
.436
.8
.437
.918
.436
3.437
.436
-5.767
.437
-1.836
.436
4.967
.436
-2.142
.437
-.871
.436
2.424
.437
2.613
.436
4.755
.436
5.368
.437
-.777
.436
1.553
.437
-1.153
.436
-4.826
.436
-2.683
.437
.941
.436
-6.615
.436
-1.6
.437
-.542
.436
.848
.437
1.341
.436
.283
.436
-4.944
.437
3.39
.436
2.519
.437
-.871
.436
-1.412
.436
1.035
.437
1.06
.436
1.6
.437
-.258
.436
-3.508
.436
-4.426
.437
-.541
.436
-2.801
.436
-.659
.437
2.236
.436
-1.177
.437
.612
.436
5.461
.436
.142
.437
1.553
.436
.118
.437
-5.673
.436
-2.119
.436
-.259
.437
-5.179
.436
2.142
.436
4.897
.437
2.189
.436
5.626
.437
2.778
.436
.235
.436
-4.896
.437
-1.483
.436
-7.415
.437
-1.813
h.436
l.436
.165
.437
-2.66
.436
13.159
.436
.541
.437
4.12
.436
-1.742
.437
-6.003
.436
-7.439
.436
3.013
.437
-9.18
.436
1.859
.437
.659
.436
-6.567
.436
1.342
.437
7.462
.436
-3.931
.436
.423
.437
-.753
.436
-7.321
.437
7.392
.436
3.554
.436
-2.848
.437
1.224
.436
5.344
.437
-4.967
.436
6.144
.436
-2.59
.437
-7.062
.436
-3.908
.437
.306
.436
-2.589
.436
-1.13
.437
1.436
.436
1.601
.436
6.85
.437
3.766
.436
1.295
.437
.306
.436
4.167
.436
-1.483
.437
-2.354
.436
3.978
.437
5.367
.436
1.436
.436
3.578
.437
-5.084
.436
1.153
.436
4.638
.437
-4.308
.436
-11.158
.437
1.836
.436
-2.307
.436
2.825
.437
-.189
.436
.259
.437
.353
.436
11.512
.436
-.565
.437
1.153
.436
3.72
.436
-4.779
.437
-3.696
.436
.942
.437
-6.921
.436
-2.166
.436
-1.365
.437
.965
.436
6.732
.437
4.379
.436
-1.766
.436
2.472
.437
4.285
.436
2.966
.436
.447
.437
.871
.436
-1.695
.437
.33
.436
.541
.436
-5.085
.437
.306
.436
.471
.437
-3.154
.436
-1.154
.436
2.849
.437
-.165
.436
1.13
.437
-1.224
.436
-2.166
.436
.753
.437
-.8
.436
-6.639
.436
-7.109
.437
-1.86
.436
-4.166
.437
.329
.436
.871
.436
-1.177
.437
4.732
.436
10.405
.437
3.343
.436
3.743
.436
-.212
.437
-.942
.436
-1.554
.436
-1.294
.437
-7.51
.436
-5.626
.437
-5.65
.436
-5.108
.436
-3.178
.437
-1.601
.436
-5.649
.437
5.838
.436
3.013
.436
-3.955
.437
3.955
.436
3.343
.436
2.095
.437
6.285
.436
3.131
.437
-12.877
.436
-2.66
.436
-10.358
.437
-12.523
.436
-5.744
.437
-4.426
.436
-14.571
.436
2.613
.437
7.062
.436
7.627
.436
6.662
.437
3.837
.436
-2.119
.437
2.967
.436
9.133
.436
5.579
.437
-.188
.436
7.062
.437
5.626
.436
4.85
.436
6.826
.437
.189
.436
-5.697
.437
-.565
.436
-2.731
.436
-2.448
.437
.8
.436
1.272
.436
4.92
.437
8.215
.436
7.651
.437
3.743
.436
2.895
.436
3.743
.437
.071
.436
.165
.437
-1.931
.436
-.706
.436
-.777
.437
1.342
.436
-4.637
.436
.612
.437
-2.354
.436
.117
.437
-3.225
.436
-2.307
.436
-2.495
.437
3.319
.436
-.494
.437
1.954
.436
-.4
.436
4.331
.437
3.743
.436
2.283
.436
1.413
.437
-.589
.436
-.965
.437
.589
.436
-1.483
.436
-1.625
.437
-.4
.436
-2.895
.437
2.966
.436
-2.048
.436
-5.768
.437
-5.249
.436
-8.381
.436
-.753
.437
-.024
.436
-2.966
.437
3.508
.436
3.154
.436
2.708
.437
6.85
.436
-4.002
.437
-11.135
.436
-.494
.436
-.565
.437
-3.413
.436
1.106
.437
4.237
.436
2.849
.436
12.099
.437
3.155
.436
-3.461
.436
1.413
.437
-2.943
.436
-10.146
.437
2.213
.436
1.601
.436
-1.766
.437
2.802
.436
6.591
.437
5.697
.436
7.862
.436
2.307
.437
-.941
.436
1.671
.436
2.166
.437
-1.366
.436
1.177
.437
1.366
.436
-3.72
.436
-.023
.437
.8
.436
-4.99
.437
-2.19
.436
-3.366
.436
-4.543
.437
4.143
.436
2.283
.436
-1.789
.437
5.203
.436
3.154
.437
1.46
.436
6.097
.436
-1.036
.437
-5.391
.436
.612
.437
1.624
.436
1.413
.436
1.412
.437
-1.859
.436
-1.083
.436
1.577
.437
1.624
.436
-5.885
.437
-8.639
.436
-4.708
.436
-7.133
.437
-3.861
.436
1.719
.437
-1.413
.436
2.707
.436
4.967
.437
3.414
.436
8.051
.437
1.553
.436
-1.483
.436
-2.354
.437
1.13
.436
-.965
.436
1.836
.437
.565
.436
.165
.437
2.589
.436
3.108
.436
-1.083
.437
.565
.436
-3.06
.437
-2.896
.436
3.131
.436
-.824
.437
-1.671
.436
-.306
.436
1.365
.437
-.965
.436
1.577
.437
-1.765
.436
-3.273
.436
-2.283
.437
2.048
.436
.306
.437
1.412
.436
1.201
.436
.612
.437
4.638
.436
6.379
.436
-1.412
.437
2.354
.436
4.166
.437
.283
.436
.376
.436
1.484
.437
-.565
.436
-.236
.437
-5.461
.436
-3.837
.436
-4.002
.437
1.695
.436
-1.742
.436
-.589
.437
.565
.436
3.484
.437
2.801
.436
4.097
.436
-2.59
.437
-.118
.436
-.776
.437
-2.778
.436
-2.754
.436
-1.436
.437
-3.602
.436
1.671
.437
-2.566
.436
-1.106
.436
4.755
.437
4.143
.436
-1.318
.436
2.707
.437
-.894
.436
-1.483
.437
2.612
.436
-3.625
.436
-2.001
.437
1.06
.436
.918
.437
.706
.436
5.344
.436
-1.342
.437
1.954
.436
-1.554
.436
-1.412
.437
-8.145
.436
-4.12
.437
-3.531
.436
-3.837
.436
-1.648
.437
1.201
.436
-3.767
.437
1.836
.436
3.037
.436
-2.189
.437
2.448
.436
2.589
.436
-.588
.437
5.108
.436
4.991
.437
1.93
.436
2.072
.436
1.224
.437
-1.507
.436
1.46
.437
-1.224
.436
.706
.436
-1.201
.437
2.731
.436
-.33
.436
-1.577
.437
-.118
.436
-2.754
.437
-1.106
.436
-.801
.436
-2.495
.437
-1.813
.436
-.329
.437
-2.566
.436
3.037
.436
1.859
.437
-1.13
.436
1.036
.437
1.342
.436
.471
.436
.188
.437
-4.826
.436
-9.439
.436
-2.731
.437
.447
.436
-.612
.437
1.978
.436
2.236
.436
3.154
.437
8.216
.436
5.532
.437
-4.025
.436
-2.378
.436
.259
.437
-2.048
.436
1.059
.436
-.989
.437
-2.212
.436
1.365
.437
-1.13
.436
-1.883
.436
1.012
.437
1.671
.436
.354
.437
1.341
.436
5.65
.436
.636
.437
2.165
h.436
l.436
-3.436
.437
-1.225
.436
-4.331
.437
-6.262
.436
2.613
.436
-1.977
.437
-3.484
.436
2.66
.437
1.106
.436
.4
.436
2.943
.437
-.471
.436
-2.872
.436
5.085
.437
.141
.436
-2.283
.437
3.319
.436
-3.861
.436
1.201
.437
.047
.436
-3.013
.437
.047
.436
3.131
.436
-.73
.437
-1.977
.436
-5.697
.437
1.506
.436
-2.071
.436
-1.365
.437
-2.825
.436
-4.92
.436
2.989
.437
3.743
.436
-.047
.437
4.567
.436
.094
.436
1.577
.437
4.45
.436
2.613
.437
.612
.436
2.001
.436
-1.13
.437
-2.802
.436
-1.153
.436
2.048
.437
1.53
.436
1.483
.437
.353
.436
1.389
.436
5.626
.437
3.343
.436
-1.201
.437
1.154
.436
1.436
.436
-.283
.437
-.306
.436
-1.13
.436
-3.319
.437
1.907
.436
-2.707
.437
-.165
.436
-2.26
.436
1.554
.437
-1.766
.436
4.261
.437
.589
.436
-2.401
.436
-.613
.437
2.402
.436
.941
.436
2.59
.437
-3.32
.436
-.706
.437
4.52
.436
2.966
.436
1.271
.437
.777
.436
.047
.437
3.319
.436
-1.836
.436
-2.165
.437
-4.049
.436
1.718
.437
-1.624
.436
.777
.436
.659
.437
4.331
.436
.942
.436
1.836
.437
-2.142
.436
1.553
.437
-.447
.436
-1.13
.436
-3.484
.437
3.319
.436
1.225
.437
1.977
.436
-2.59
.436
-1.153
.437
-.212
.436
1.907
.436
-1.271
.437
.235
.436
.236
.437
3.201
.436
3.202
.436
1.106
.437
-.4
.436
1.954
.437
.329
.436
.989
.436
-.377
.437
.047
.436
1.154
.436
2.095
.437
-.071
.436
1.177
.437
-.612
.436
-1.13
.436
-.117
.437
-.73
.436
.753
.437
-1.247
.436
-1.201
.436
-.683
.437
1.295
.436
-2.707
.436
.07
.437
-.918
.436
.518
.437
-.235
.436
.212
.436
.635
.437
3.225
.436
.66
.437
.188
.436
.094
.436
-.024
.437
.118
.436
-.871
.437
-1.883
.436
-2.26
.436
-1.059
.437
-.565
.436
-.165
.436
1.059
.437
-.588
.436
-.448
.437
1.578
.436
-1.601
.436
-1.295
.437
.024
.436
-2.378
.437
.683
.436
1.648
.436
.4
.437
1.012
.436
-.989
.436
1.083
.437
-.518
.436
-1.318
.437
-.259
.436
-.353
.436
1.695
.437
2.519
.436
-.895
.437
.871
.436
.236
.436
-1.53
.437
-.966
.436
.118
.436
-1.271
.437
.329
.436
1.554
.437
2.284
.436
1.671
.436
1.036
.437
-.965
.436
.729
.437
.73
.436
-.588
.436
-.73
.437
.353
.436
.353
.437
.612
.436
1.295
.436
-1.201
.437
.589
.436
-.518
.436
-2.401
.437
-1.224
.436
-.353
.437
-1.083
.436
-.895
.436
-1.483
.437
.118
.436
1.247
.437
-.353
.436
-.494
.436
.612
.437
.8
.436
-.824
.436
.565
.437
1.483
.436
.754
.437
-1.436
.436
-.071
.436
-1.436
.437
1.107
.436
-.777
.437
-3.931
.436
-1.177
.436
2.142
.437
-1.554
.436
2.66
.436
.283
.437
1.247
.436
3.013
.437
2.025
.436
.4
.436
1.342
.437
-.518
.436
-.471
.437
-2.166
.436
-2.66
.436
-.682
.437
-1.107
.436
.895
.436
-.871
.437
.518
.436
-1.06
.437
3.296
.436
.071
.436
-.801
.437
-1.718
.436
1.389
.437
-.495
.436
1.483
.436
.589
.437
.118
.436
.941
.437
-.023
.436
-.895
.436
.871
.437
.824
.436
-2.613
.436
-2.024
.437
-.142
.436
1.225
.437
-1.648
.436
-.024
.436
-.353
.437
2.095
.436
2.119
.437
.894
.436
-1.6
.436
1.883
.437
.871
.436
.8
.436
-1.483
.437
.942
.436
-.942
.437
1.177
.436
.306
.436
.33
.437
.588
.436
1.719
.437
-.047
.436
1.224
.436
.188
.437
.565
.436
-.282
.436
-.613
.437
-.047
.436
-.918
.437
-2.095
.436
1.06
.436
-1.201
.437
-2.825
.436
-4.425
.437
-3.39
.436
.259
.436
1.647
.437
-1.177
.436
.683
.436
2.59
.437
3.484
.436
1.53
.437
-1.907
.436
-.353
.436
.682
.437
1.013
.436
-.33
.437
-1.389
.436
1.201
.436
1.907
.437
.07
.436
-.4
.437
-2.236
.436
-.471
.436
-.212
.437
1.106
.436
.848
.436
.588
.437
.118
.436
2.284
.437
-1.507
.436
2.166
.436
-2.307
.437
-2.637
.436
.824
.437
1.036
.436
-.188
.436
2.801
.437
.424
.436
1.718
.436
2.613
.437
-1.813
.436
-.824
.437
-.588
.436
.024
.436
.47
.437
.518
.436
.141
.437
1.695
.436
.848
.436
-.33
.437
-1.459
.436
-4.167
.436
-4.308
.437
-2.424
.436
-.542
.437
.094
.436
-.518
.436
.142
.437
3.178
.436
2.989
.437
-1.247
.436
-2.402
.436
-1.671
.437
-1.224
.436
.235
.436
.212
.437
.189
.436
2.989
.437
.989
.436
-.659
.436
1.883
.437
1.106
.436
-1.459
.437
-.871
.436
-2.331
.436
1.177
.437
2.237
.436
.8
.437
-.447
.436
1.2
.436
1.507
.437
2.778
.436
.235
.436
-.023
.437
-.942
.436
-.518
.437
-.918
.436
.306
.436
-.447
.437
-.236
.436
-.659
.437
-.565
.436
-.235
.436
.094
.437
-.777
.436
.33
.436
.141
.437
-.212
.436
.165
.437
1.224
.436
1.177
.436
-.683
.437
-1.53
.436
.565
.437
-.235
.436
.683
.436
-.495
.437
.306
.436
.942
.436
1.883
.437
.094
.436
.212
.437
.895
.436
-.189
.436
-.753
.437
.895
.436
-.565
.437
-.542
.436
-.07
.436
-1.342
.437
-.518
.436
.989
.436
-.777
.437
.47
.436
.165
.437
.353
.436
-.988
.436
1.365
.437
-.918
.436
-.259
.437
-.235
.436
-.848
.436
-.494
.437
.847
.436
-1.789
.437
-.753
.436
-.33
.436
-1.883
.437
.942
.436
.423
.436
.919
.437
1.412
.436
1.789
.437
1.318
.436
2.119
.436
-.377
.437
.094
.436
.189
.437
-.165
.436
-1.154
.436
-.47
.437
-1.672
.436
.142
.436
.07
.437
-.212
.436
-.259
.437
.918
.436
-.047
.436
-.164
h.437
l.436
-.495
.437
-.659
.436
.848
.436
-.189
.437
-.447
.436
.918
.436
.447
.437
-.753
.436
.188
.437
-.4
.436
-.07
.436
-.942
.437
.306
.436
-.895
.437
1.201
.436
.471
.436
-1.46
.437
.589
.436
1.954
.436
-.871
.437
-1.672
.436
-.706
.437
.4
.436
1.86
h.436
l.437
-.683
.436
1.083
.437
1.954
.436
-.847
.436
-1.319
.437
-1.036
.436
-.564
.437
-1.79
.436
-1.506
.436
.353
.437
.918
.436
1.036
.436
.353
.437
.424
.436
1.483
.437
1.318
.436
-.777
.436
-.259
.437
-4.19
.436
-1.295
.437
-1.459
.436
-2.095
.436
-1.813
h.437
l.436
-1.977
.436
4.378
.437
.212
.436
.942
.437
1.224
.436
1.883
.436
-.942
.437
2.543
.436
-1.083
h.437
l.436
-.777
.436
-.306
.437
-1.766
.436
1.484
.436
.47
.437
-1.412
.436
.377
.437
-.142
.436
.165
.436
1.036
.437
-.824
.436
-.565
.437
.306
.436
.494
.436
.33
.437
-.424
.436
-.447
.436
-1.813
.437
-.965
.436
1.86
.437
-.165
.436
.353
.436
1.978
.437
-1.837
.436
1.86
.437
.73
.436
-.589
.436
-1.459
.437
.023
.436
-.047
.437
3.013
.436
1.13
.436
-.753
h.437
l.436
1.295
.436
.683
.437
.094
.436
.235
.437
-2.283
.436
.4
.436
-1.059
.437
-.871
.436
-4.638
.437
-4.284
.436
-4.002
.436
-.518
.437
-2.566
.436
-2.801
.436
.353
.437
.07
.436
1.154
.437
1.954
.436
-.895" aria-label="line"/>
</svg>
