<svg class="plot-d6a7b5" fill="currentColor" font-family="system-ui, sans-serif" font-size="10" text-anchor="middle" width="830" height="470" viewBox="0 0 830 470" xmlns="http://www.w3.org/2000/svg" xmlns:xlink="http://www.w3.org/1999/xlink" color="#1e90ff"><style>:where(.plot-d6a7b5){--plot-background: white;display:block;height:intrinsic;max-width:100%}:where(.plot-d6a7b5 text),:where(.plot-d6a7b5 tspan){white-space:pre}</style><g aria-label="y-grid" stroke="currentColor" stroke-opacity=".1"><line x1="60" x2="770" y1="410" y2="410"/><line x1="60" x2="770" y1="380.33" y2="380.33"/><line x1="60" x2="770" y1="350.661" y2="350.661"/><line x1="60" x2="770" y1="320.991" y2="320.991"/><line x1="60" x2="770" y1="291.321" y2="291.321"/><line x1="60" x2="770" y1="261.651" y2="261.651"/><line x1="60" x2="770" y1="231.982" y2="231.982"/><line x1="60" x2="770" y1="202.312" y2="202.312"/><line x1="60" x2="770" y1="172.642" y2="172.642"/><line x1="60" x2="770" y1="142.973" y2="142.973"/><line x1="60" x2="770" y1="113.303" y2="113.303"/><line x1="60" x2="770" y1="83.633" y2="83.633"/></g><g aria-label="y-axis tick" fill="none" stroke="currentColor"><path transform="translate(60,410)" d="M0,0L-6,0"/><path transform="translate(60,380.3302832864552)" d="M0,0L-6,0"/><path transform="translate(60,350.6605665729104)" d="M0,0L-6,0"/><path transform="translate(60,320.99084985936554)" d="M0,0L-6,0"/><path transform="translate(60,291.32113314582074)" d="M0,0L-6,0"/><path transform="translate(60,261.65141643227594)" d="M0,0L-6,0"/><path transform="translate(60,231.98169971873105)" d="M0,0L-6,0"/><path transform="translate(60,202.31198300518625)" d="M0,0L-6,0"/><path transform="translate(60,172.64226629164145)" d="M0,0L-6,0"/><path transform="translate(60,142.97254957809662)" d="M0,0L-6,0"/><path transform="translate(60,113.3028328645518)" d="M0,0L-6,0"/><path transform="translate(60,83.63311615100699)" d="M0,0L-6,0"/></g><g aria-label="y-axis tick label" text-anchor="end" font-variant="tabular-nums"><text y=".32em" transform="translate(-9,0) translate(60,410)">0</text><text y=".32em" transform="translate(-9,0) translate(60,380.3302832864552)">50,000</text><text y=".32em" transform="translate(-9,0) translate(60,350.6605665729104)">100,000</text><text y=".32em" transform="translate(-9,0) translate(60,320.99084985936554)">150,000</text><text y=".32em" transform="translate(-9,0) translate(60,291.32113314582074)">200,000</text><text y=".32em" transform="translate(-9,0) translate(60,261.65141643227594)">250,000</text><text y=".32em" transform="translate(-9,0) translate(60,231.98169971873105)">300,000</text><text y=".32em" transform="translate(-9,0) translate(60,202.31198300518625)">350,000</text><text y=".32em" transform="translate(-9,0) translate(60,172.64226629164145)">400,000</text><text y=".32em" transform="translate(-9,0) translate(60,142.97254957809662)">450,000</text><text y=".32em" transform="translate(-9,0) translate(60,113.3028328645518)">500,000</text><text y=".32em" transform="translate(-9,0) translate(60,83.63311615100699)">550,000</text></g><g aria-label="y-axis label" text-anchor="start"><text y=".71em" transform="translate(-57,-57) translate(60,60)">↑ Total Vestiges</text></g><g aria-label="x-axis tick" fill="none" stroke="currentColor"><path transform="translate(101.76470588235294,410)" d="M0,0L0,6"/><path transform="translate(213.54671280276818,410)" d="M0,0L0,6"/><path transform="translate(326.5570934256055,410)" d="M0,0L0,6"/><path transform="translate(439.5674740484429,410)" d="M0,0L0,6"/><path transform="translate(551.3494809688581,410)" d="M0,0L0,6"/><path transform="translate(663.1314878892734,410)" d="M0,0L0,6"/></g><g aria-label="x-axis tick label" font-variant="tabular-nums"><text transform="translate(0,9) translate(101.76470588235294,410)"><tspan x="0" y=".71em">Apr</tspan><tspan x="0" dy="1em">2023</tspan></text><text y=".71em" transform="translate(0,9) translate(213.54671280276818,410)">Jul</text><text y=".71em" transform="translate(0,9) translate(326.5570934256055,410)">Oct</text><text transform="translate(0,9) translate(439.5674740484429,410)"><tspan x="0" y=".71em">Jan</tspan><tspan x="0" dy="1em">2024</tspan></text><text y=".71em" transform="translate(0,9) translate(551.3494809688581,410)">Apr</text><text y=".71em" transform="translate(0,9) translate(663.1314878892734,410)">Jul</text></g><g aria-label="line" fill="none" stroke="currentColor" stroke-width="1.5" stroke-linejoin="round" stroke-linecap="round"><path d="M60,410L60.819,409.702L61.638,408.613L62.457,408.025L63.276,407.609L64.095,406.921L64.913,406.38L65.732,405.873L66.551,404.846L67.37,404.034L68.189,403.07L69.008,401.576L69.827,400.168L70.646,399.437L71.465,398.379L72.284,397.66L73.103,396.837L73.922,395.76L74.74,395.035L75.559,394.324L76.378,393.359L77.197,392.289L78.016,391.531L78.835,390.238L79.654,389.626L80.473,389.054L81.292,388.024L82.111,387.037L82.93,386.277L83.749,385.219L84.567,384.163L85.386,383.202L86.205,381.712L87.024,380.53L87.843,379.845L88.662,379.132L89.481,378.595L90.3,378.161L91.119,377.356L91.938,376.569L92.757,376.02L93.576,374.751L94.394,373.424L95.213,372.235L96.032,370.794L96.851,369.818L97.67,368.986L98.489,367.852L99.308,366.904L100.127,366.218L100.946,364.981L101.765,363.785L102.584,362.67L103.403,361.07L104.221,359.552L105.04,358.762L105.859,357.59L106.678,356.533L107.497,355.585L108.316,354.243L109.135,352.983L109.954,351.888L110.773,350.572L111.592,349.311L112.411,348.224L113.23,346.763L114.048,345.864L114.867,345.052L115.686,343.921L116.505,342.995L117.324,342.302L118.143,341.41L118.962,340.446L119.781,339.549L120.6,338.371L121.419,337.204L122.238,336.538L123.057,335.615L123.875,334.894L124.694,334.42L125.513,333.686L126.332,332.955L127.151,332.18L127.97,331.176L128.789,330.155L129.608,329.358L130.427,328.255L131.246,327.48L132.065,326.973L132.884,325.811L133.702,325.008L134.521,324.573L135.34,323.844L136.159,323.142L136.978,322.411L137.797,321.407L138.616,320.534L139.435,319.782L140.254,319.128L141.073,318.547L141.892,317.992L142.71,317.08L143.529,316.561L144.348,316.034L145.167,315.177L145.986,314.207L146.805,313.445L147.624,312.466L148.443,311.806L149.262,311.193L150.081,310.305L150.9,309.697L151.719,309.119L152.537,308.346L153.356,307.742L154.175,307.012L154.994,306.239L155.813,305.537L156.632,304.956L157.451,304.346L158.27,303.814L159.089,303.312L159.908,302.606L160.727,302.069L161.546,301.584L162.364,300.784L163.183,299.744L164.002,298.986L164.821,297.999L165.64,297.409L166.459,296.732L167.278,296.033L168.097,295.394L168.916,294.946L169.735,294.056L170.554,293.358L171.373,292.624L172.191,291.558L173.01,290.773L173.829,290.087L174.648,289.387L175.467,288.622L176.286,288.03L177.105,287.45L177.924,286.683L178.743,286.231L179.562,285.63L180.381,285.089L181.2,284.58L182.018,283.862L182.837,283.344L183.656,282.804L184.475,282.081L185.294,281.564L186.113,281.086L186.932,280.569L187.751,279.961L188.57,279.389L189.389,278.792L190.208,278.144L191.027,277.636L191.845,277.014L192.664,276.492L193.483,275.972L194.302,275.251L195.121,274.651L195.94,274.177L196.759,273.556L197.578,272.964L198.397,272.537L199.216,271.803L200.035,271.243L200.854,270.666L201.672,270.024L202.491,269.478L203.31,269.154L204.129,268.559L204.948,268.073L205.767,267.495L206.586,266.808L207.405,266.264L208.224,265.665L209.043,265.005L209.862,264.405L210.681,263.878L211.499,263.019L212.318,262.32L213.137,261.918L213.956,261.275L214.775,260.703L215.594,260.358L216.413,259.748L217.232,259.354L218.051,258.886L218.87,258.317L219.689,257.787L220.507,257.367L221.326,256.704L222.145,256.218L222.964,255.778L223.783,255.161L224.602,254.606L225.421,254.169L226.24,253.5L227.059,253.074L227.878,252.59L228.697,251.976L229.516,251.476L230.334,250.91L231.153,250.261L231.972,249.693L232.791,249.21L233.61,248.656L234.429,248.005L235.248,247.495L236.067,247.017L236.886,246.511L237.705,246.126L238.524,245.466L239.343,245.053L240.161,244.586L240.98,244L241.799,243.533L242.618,242.965L243.437,242.211L244.256,241.642L245.075,241.306L245.894,240.535L246.713,239.968L247.532,239.463L248.351,238.759L249.17,238.283L249.988,237.772L250.807,237.183L251.626,236.585L252.445,236.07L253.264,235.306L254.083,234.719L254.902,234.202L255.721,233.574L256.54,232.884L257.359,232.178L258.178,231.138L258.997,230.504L259.815,230.026L260.634,229.378L261.453,228.858L262.272,228.481L263.091,227.893L263.91,227.374L264.729,227.011L265.548,226.419L266.367,225.879L267.186,225.488L268.005,224.862L268.824,224.277L269.642,223.832L270.461,223.246L271.28,222.514L272.099,221.896L272.918,221.126L273.737,220.581L274.556,220.054L275.375,219.274L276.194,218.689L277.013,218.146L277.832,217.494L278.651,216.954L279.469,216.593L280.288,216.07L281.107,215.676L281.926,215.243L282.745,214.719L283.564,214.192L284.383,213.705L285.202,213.217L286.021,212.715L286.84,212.289L287.659,211.816L288.478,211.348L289.296,210.952L290.115,210.495L290.934,210.024L291.753,209.516L292.572,208.908L293.391,208.473L294.21,208.004L295.029,207.512L295.848,207.151L296.667,206.764L297.486,206.361L298.304,206.114L299.123,205.811L299.942,205.121L300.761,204.642L301.58,204.194L302.399,203.585L303.218,203.331L304.037,202.99L304.856,202.669L305.675,202.413L306.494,202.025L307.313,201.63L308.131,201.177L308.95,200.701L309.769,199.941L310.588,199.297L311.407,198.951L312.226,198.485L313.045,198.164L313.864,197.777L314.683,197.331L315.502,196.931L316.321,196.613L317.14,196.125L317.958,195.589L318.777,195.193L319.596,194.654L320.415,194.379L321.234,194.109L322.053,193.749L322.872,193.408L323.691,193.105L324.51,192.612L325.329,192.201L326.148,191.78L326.967,191.213L327.785,190.787L328.604,190.562L329.423,190.143L330.242,189.835L331.061,189.559L331.88,189.21L332.699,188.867L333.518,188.473L334.337,187.955L335.156,187.401L335.975,186.845L336.794,186.267L337.612,185.849L338.431,185.531L339.25,185.137L340.069,184.807L340.888,184.45L341.707,183.971L342.526,183.649L343.345,183.348L344.164,182.677L344.983,182.104L345.802,181.751L346.621,181.387L347.439,181.125L348.258,180.918L349.077,180.482L349.896,180.193L350.715,179.905L351.534,179.346L352.353,178.744L353.172,178.291L353.991,177.678L354.81,177.354L355.629,177.056L356.448,176.544L357.266,176.213L358.085,175.898L358.904,175.449L359.723,174.971L360.542,174.665L361.361,174.157L362.18,173.831L362.999,173.621L363.818,173.17L364.637,172.868L365.456,172.684L366.275,172.406L367.093,172.122L367.912,171.647L368.731,171.087L369.55,170.524L370.369,170.149L371.188,169.779L372.007,169.563L372.826,169.239L373.645,168.858L374.464,168.648L375.283,168.428L376.101,168.052L376.92,167.822L377.739,167.505L378.558,167.159L379.377,166.848L380.196,166.645L381.015,166.367L381.834,166.214L382.653,166.005L383.472,165.722L384.291,165.531L385.11,165.403L385.928,164.957L386.747,164.519L387.566,164.091L388.385,163.664L389.204,163.338L390.023,163.135L390.842,162.806L391.661,162.602L392.48,162.315L393.299,161.897L394.118,161.556L394.937,161.257L395.755,160.811L396.574,160.493L397.393,160.186L398.212,159.824L399.031,159.526L399.85,159.189L400.669,158.692L401.488,158.397L402.307,158.119L403.126,157.828L403.945,157.493L404.764,157.162L405.582,156.798L406.401,156.587L407.22,156.456L408.039,156.144L408.858,155.883L409.677,155.681L410.496,155.438L411.315,155.207L412.134,155.026L412.953,154.741L413.772,154.479L414.591,154.332L415.409,153.994L416.228,153.675L417.047,153.537L417.866,153.337L418.685,153.18L419.504,153.006L420.323,152.675L421.142,152.342L421.961,152.1L422.78,151.873L423.599,151.64L424.418,151.347L425.236,151.117L426.055,150.951L426.874,150.755L427.693,150.429L428.512,150.226L429.331,149.978L430.15,149.565L430.969,149.23L431.788,149.059L432.607,148.791L433.426,148.442L434.245,148.167L435.063,147.81L435.882,147.54L436.701,147.236L437.52,146.879L438.339,146.604L439.158,146.346L439.977,146.018L440.796,145.738L441.615,145.483L442.434,145.082L443.253,144.842L444.072,144.657L444.89,144.269L445.709,144.132L446.528,143.898L447.347,143.518L448.166,143.322L448.985,143.094L449.804,142.81L450.623,142.638L451.442,142.462L452.261,142.284L453.08,142.154L453.899,141.911L454.717,141.58L455.536,141.274L456.355,140.902L457.174,140.457L457.993,140.254L458.812,140.013L459.631,139.779L460.45,139.457L461.269,139.098L462.088,138.829L462.907,138.635L463.725,138.32L464.544,137.941L465.363,137.41L466.182,137.081L467.001,136.677L467.82,136.443L468.639,136.229L469.458,135.941L470.277,135.818L471.096,135.636L471.915,135.178L472.734,134.674L473.552,134.305L474.371,133.791L475.19,133.506L476.009,133.263L476.828,132.97L477.647,132.683L478.466,132.439L479.285,132.054L480.104,131.825L480.923,131.442L481.742,130.872L482.561,130.472L483.379,130.183L484.198,129.754L485.017,129.469L485.836,129.26L486.655,128.819L487.474,128.464L488.293,128.068L489.112,127.678L489.931,127.224L490.75,126.618L491.569,125.959L492.388,125.6L493.206,125.226L494.025,124.681L494.844,124.31L495.663,124.033L496.482,123.676L497.301,123.373L498.12,123.069L498.939,122.581L499.758,122.153L500.577,121.977L501.396,121.596L502.215,121.27L503.033,120.893L503.852,120.522L504.671,120.3L505.49,119.974L506.309,119.487L507.128,119.037L507.947,118.737L508.766,118.276L509.585,118.045L510.404,117.75L511.223,117.416L512.042,117.199L512.86,116.942L513.679,116.6L514.498,116.328L515.317,116.054L516.136,115.546L516.955,115.262L517.774,115.02L518.593,114.803L519.412,114.6L520.231,114.331L521.05,114.079L521.869,113.925L522.687,113.733L523.506,113.324L524.325,113.067L525.144,112.871L525.963,112.489L526.782,112.222L527.601,112.11L528.42,111.88L529.239,111.574L530.058,111.345L530.877,111.033L531.696,110.694L532.514,110.37L533.333,109.869L534.152,109.522L534.971,109.298L535.79,109.258L536.609,109.254L537.428,109.251L538.247,109.248L539.066,109.244L539.885,109.239L540.704,109.233L541.522,109.206L542.341,109.186L543.16,109.173L543.979,109.141L544.798,109.089L545.617,109.052L546.436,109.004L547.255,108.912L548.074,108.788L548.893,108.476L549.712,108.264L550.531,108.067L551.349,107.889L552.168,107.719L552.987,107.524L553.806,107.277L554.625,107.055L555.444,106.792L556.263,106.519L557.082,106.278L557.901,105.984L558.72,105.76L559.539,105.589L560.358,105.342L561.176,105.077L561.995,104.961L562.814,104.789L563.633,104.533L564.452,104.389L565.271,104.238L566.09,104.014L566.909,103.835L567.728,103.575L568.547,103.356L569.366,103.225L570.185,103.027L571.003,102.854L571.822,102.691L572.641,102.578L573.46,102.438L574.279,102.354L575.098,102.204L575.917,102.045L576.736,101.843L577.555,101.558L578.374,101.378L579.193,101.261L580.012,101.011L580.83,100.82L581.649,100.648L582.468,100.467L583.287,100.216L584.106,100.043L584.925,99.801L585.744,99.636L586.563,99.509L587.382,99.315L588.201,99.099L589.02,98.874L589.839,98.727L590.657,98.526L591.476,98.355L592.295,98.139L593.114,97.833L593.933,97.603L594.752,97.308L595.571,97.145L596.39,97L597.209,96.799L598.028,96.599L598.847,96.43L599.666,96.204L600.484,95.948L601.303,95.788L602.122,95.5L602.941,95.245L603.76,95.039L604.579,94.74L605.398,94.568L606.217,94.435L607.036,94.33L607.855,94.184L608.674,93.999L609.493,93.799L610.311,93.376L611.13,93.167L611.949,92.847L612.768,92.696L613.587,92.55L614.406,92.37L615.225,92.102L616.044,92.011L616.863,91.815L617.682,91.599L618.501,91.405L619.319,91.108L620.138,90.74L620.957,90.548L621.776,90.226L622.595,90.077L623.414,89.877L624.233,89.517L625.052,89.254L625.871,89.074L626.69,88.783L627.509,88.472L628.328,88.304L629.146,87.92L629.965,87.746L630.784,87.572L631.603,87.32L632.422,87.061L633.241,86.884L634.06,86.591L634.879,86.362L635.698,86.122L636.517,85.771L637.336,85.42L638.155,85.168L638.973,84.926L639.792,84.605L640.611,84.412L641.43,84.213L642.249,84.034L643.068,83.778L643.887,83.559L644.706,83.325L645.525,83.108L646.344,82.878L647.163,82.62L647.982,82.541L648.8,82.421L649.619,82.237L650.438,82.093L651.257,81.748L652.076,81.547L652.895,81.406L653.714,81.219L654.533,80.817L655.352,80.68L656.171,80.478L656.99,80.204L657.809,79.999L658.627,79.864L659.446,79.685L660.265,79.574L661.084,79.423L661.903,79.25L662.722,79.07L663.541,78.744L664.36,78.516L665.179,78.361L665.998,78.075L666.817,77.869L667.636,77.662L668.454,77.506L669.273,77.35L670.092,77.232L670.911,77.033L671.73,76.81L672.549,76.712L673.368,76.579L674.187,76.435L675.006,76.3L675.825,76.14L676.644,75.949L677.463,75.739L678.281,75.513L679.1,75.388L679.919,75.256L680.738,75.041L681.557,74.852L682.376,74.733L683.195,74.519L684.014,74.322L684.833,74.166L685.652,73.979L686.471,73.783L687.29,73.574L688.108,73.287L688.927,72.894L689.746,72.65L690.565,72.389L691.384,72.21L692.203,72.037L693.022,71.798L693.841,71.631L694.66,71.5L695.479,71.34L696.298,71.173L697.116,70.989L697.935,70.792L698.754,70.514L699.573,70.314L700.392,69.994L701.211,69.692L702.03,69.383L702.849,69.07L703.668,68.793L704.487,68.474L705.306,68.132L706.125,67.959L706.943,67.733L707.762,67.324L708.581,67.31L709.4,67.31L710.219,67.31L711.038,67.31L711.857,67.31L712.676,67.31L713.495,67.31L714.314,67.31L715.133,67.31L715.952,67.31L716.77,67.31L717.589,67.31L718.408,67.31L719.227,67.31L720.046,67.31L720.865,67.31L721.684,67.31L722.503,67.31L723.322,67.31L724.141,67.31L724.96,67.31L725.779,67.31L726.597,67.31L727.416,67.31L728.235,67.31L729.054,67.31L729.873,67.31L730.692,67.31L731.511,67.31L732.33,67.31L733.149,67.31L733.968,67.171L734.787,66.989L735.606,66.863L736.424,66.769L737.243,66.661L738.062,66.524L738.881,66.364L739.7,66.251L740.519,66.071L741.338,65.949L742.157,65.807L742.976,65.681L743.795,65.525L744.614,65.398L745.433,65.168L746.251,65.004L747.07,64.823L747.889,64.683L748.708,64.476L749.527,64.261L750.346,64.071L751.165,63.926L751.984,63.748L752.803,63.617L753.622,63.467L754.441,63.369L755.26,63.249L756.078,63.117L756.897,63.007L757.716,62.814L758.535,62.658L759.354,62.524L760.173,62.388L760.992,62.227L761.811,62.085L762.63,61.902L763.449,61.784L764.268,61.577L765.087,61.297L765.905,61.029L766.724,60.656L767.543,60.495L768.362,60.312L769.181,60.119L770,60"/></g></svg>