<svg class="plot-d6a7b5" fill="currentColor" font-family="system-ui, sans-serif" font-size="10" text-anchor="middle" width="830" height="470" viewBox="0 0 830 470" xmlns="http://www.w3.org/2000/svg" xmlns:xlink="http://www.w3.org/1999/xlink" color="dodgerblue"><style>:where(.plot-d6a7b5){--plot-background: white;display:block;height:intrinsic;max-width:100%}:where(.plot-d6a7b5 text),:where(.plot-d6a7b5 tspan){white-space:pre}</style><g aria-label="y-grid" stroke="currentColor" stroke-opacity=".1"><line x1="60" x2="770" y1="410" y2="410"/><line x1="60" x2="770" y1="370.298" y2="370.298"/><line x1="60" x2="770" y1="330.596" y2="330.596"/><line x1="60" x2="770" y1="290.894" y2="290.894"/><line x1="60" x2="770" y1="251.191" y2="251.191"/><line x1="60" x2="770" y1="211.489" y2="211.489"/><line x1="60" x2="770" y1="171.787" y2="171.787"/><line x1="60" x2="770" y1="132.085" y2="132.085"/><line x1="60" x2="770" y1="92.383" y2="92.383"/></g><g aria-label="y-axis tick" fill="none" stroke="currentColor"><path transform="translate(60,410)" d="M0,0L-6,0"/><path transform="translate(60,370.2978343035786)" d="M0,0L-6,0"/><path transform="translate(60,330.5956686071573)" d="M0,0L-6,0"/><path transform="translate(60,290.89350291073595)" d="M0,0L-6,0"/><path transform="translate(60,251.19133721431456)" d="M0,0L-6,0"/><path transform="translate(60,211.4891715178932)" d="M0,0L-6,0"/><path transform="translate(60,171.78700582147184)" d="M0,0L-6,0"/><path transform="translate(60,132.08484012505048)" d="M0,0L-6,0"/><path transform="translate(60,92.38267442862912)" d="M0,0L-6,0"/></g><g aria-label="y-axis tick label" text-anchor="end" font-variant="tabular-nums"><text y=".32em" transform="translate(-9,0) translate(60,410)">0</text><text y=".32em" transform="translate(-9,0) translate(60,370.2978343035786)">50,000</text><text y=".32em" transform="translate(-9,0) translate(60,330.5956686071573)">100,000</text><text y=".32em" transform="translate(-9,0) translate(60,290.89350291073595)">150,000</text><text y=".32em" transform="translate(-9,0) translate(60,251.19133721431456)">200,000</text><text y=".32em" transform="translate(-9,0) translate(60,211.4891715178932)">250,000</text><text y=".32em" transform="translate(-9,0) translate(60,171.78700582147184)">300,000</text><text y=".32em" transform="translate(-9,0) translate(60,132.08484012505048)">350,000</text><text y=".32em" transform="translate(-9,0) translate(60,92.38267442862912)">400,000</text></g><g aria-label="y-axis label" text-anchor="start"><text y=".71em" transform="translate(-57,-57) translate(60,60)">↑ Total Vestiges (∞ Lifespan)</text></g><g aria-label="x-axis tick" fill="none" stroke="currentColor"><path transform="translate(67.00657894736842,410)" d="M0,0L0,6"/><path transform="translate(139.4078947368421,410)" d="M0,0L0,6"/><path transform="translate(209.47368421052633,410)" d="M0,0L0,6"/><path transform="translate(281.875,410)" d="M0,0L0,6"/><path transform="translate(351.94078947368416,410)" d="M0,0L0,6"/><path transform="translate(424.3421052631579,410)" d="M0,0L0,6"/><path transform="translate(496.74342105263156,410)" d="M0,0L0,6"/><path transform="translate(566.8092105263157,410)" d="M0,0L0,6"/><path transform="translate(639.2105263157895,410)" d="M0,0L0,6"/><path transform="translate(709.2763157894738,410)" d="M0,0L0,6"/></g><g aria-label="x-axis tick label" font-variant="tabular-nums"><text transform="translate(0,9) translate(67.00657894736842,410)"><tspan x="0" y=".71em">Mar</tspan><tspan x="0" dy="1em">2023</tspan></text><text y=".71em" transform="translate(0,9) translate(139.4078947368421,410)">Apr</text><text y=".71em" transform="translate(0,9) translate(209.47368421052633,410)">May</text><text y=".71em" transform="translate(0,9) translate(281.875,410)">Jun</text><text y=".71em" transform="translate(0,9) translate(351.94078947368416,410)">Jul</text><text y=".71em" transform="translate(0,9) translate(424.3421052631579,410)">Aug</text><text y=".71em" transform="translate(0,9) translate(496.74342105263156,410)">Sep</text><text y=".71em" transform="translate(0,9) translate(566.8092105263157,410)">Oct</text><text y=".71em" transform="translate(0,9) translate(639.2105263157895,410)">Nov</text><text y=".71em" transform="translate(0,9) translate(709.2763157894738,410)">Dec</text></g><g aria-label="line" fill="none" stroke="currentColor" stroke-width="1.5" stroke-linejoin="round" stroke-linecap="round"><path d="M60,410L61.557,409.601L63.114,408.144L64.671,407.357L66.228,406.8L67.785,405.881L69.342,405.156L70.899,404.477L72.456,403.104L74.013,402.017L75.57,400.726L77.127,398.728L78.684,396.843L80.241,395.865L81.798,394.449L83.355,393.488L84.912,392.386L86.469,390.945L88.026,389.974L89.583,389.023L91.14,387.732L92.697,386.3L94.254,385.286L95.811,383.556L97.368,382.737L98.925,381.972L100.482,380.593L102.039,379.272L103.596,378.256L105.154,376.839L106.711,375.427L108.268,374.14L109.825,372.146L111.382,370.565L112.939,369.648L114.496,368.694L116.053,367.975L117.61,367.395L119.167,366.318L120.724,365.265L122.281,364.531L123.838,362.832L125.395,361.057L126.952,359.465L128.509,357.538L130.066,356.231L131.623,355.117L133.18,353.601L134.737,352.332L136.294,351.413L137.851,349.758L139.408,348.158L140.965,346.666L142.522,344.526L144.079,342.494L145.636,341.437L147.193,339.869L148.75,338.454L150.307,337.185L151.864,335.39L153.421,333.704L154.978,332.239L156.535,330.477L158.092,328.789L159.649,327.335L161.206,325.38L162.763,324.177L164.32,323.091L165.877,321.577L167.434,320.337L168.991,319.411L170.548,318.217L172.105,316.928L173.662,315.726L175.219,314.15L176.776,312.588L178.333,311.698L179.89,310.463L181.447,309.498L183.004,308.863L184.561,307.881L186.118,306.904L187.675,305.866L189.232,304.522L190.789,303.157L192.346,302.09L193.904,300.613L195.461,299.576L197.018,298.899L198.575,297.344L200.132,296.268L201.689,295.686L203.246,294.712L204.803,293.773L206.36,292.794L207.917,291.451L209.474,290.282L211.031,289.275L212.588,288.4L214.145,287.624L215.702,286.88L217.259,285.661L218.816,284.966L220.373,284.26L221.93,283.114L223.487,281.815L225.044,280.796L226.601,279.486L228.158,278.603L229.715,277.783L231.272,276.594L232.829,275.781L234.386,275.007L235.943,273.973L237.5,273.165L239.057,272.188L240.614,271.154L242.171,270.214L243.728,269.436L245.285,268.621L246.842,267.908L248.399,267.237L249.956,266.292L251.513,265.573L253.07,264.924L254.627,263.854L256.184,262.463L257.741,261.448L259.298,260.128L260.855,259.337L262.412,258.431L263.969,257.496L265.526,256.642L267.083,256.041L268.64,254.851L270.197,253.916L271.754,252.934L273.311,251.508L274.868,250.458L276.425,249.541L277.982,248.603L279.539,247.579L281.096,246.787L282.654,246.011L284.211,244.985L285.768,244.38L287.325,243.576L288.882,242.852L290.439,242.17L291.996,241.21L293.553,240.517L295.11,239.794L296.667,238.826L298.224,238.135L299.781,237.496L301.338,236.804L302.895,235.989L304.452,235.224L306.009,234.425L307.566,233.559L309.123,232.879L310.68,232.047L312.237,231.347L313.794,230.652L315.351,229.687L316.908,228.884L318.465,228.251L320.022,227.418L321.579,226.628L323.136,226.056L324.693,225.074L326.25,224.324L327.807,223.551L329.364,222.693L330.921,221.963L332.478,221.528L334.035,220.732L335.592,220.082L337.149,219.309L338.706,218.389L340.263,217.661L341.82,216.859L343.377,215.977L344.934,215.174L346.491,214.468L348.048,213.319L349.605,212.384L351.162,211.846L352.719,210.986L354.276,210.219L355.833,209.759L357.39,208.943L358.947,208.415L360.504,207.789L362.061,207.027L363.618,206.318L365.175,205.756L366.732,204.868L368.289,204.218L369.846,203.63L371.404,202.804L372.961,202.061L374.518,201.477L376.075,200.581L377.632,200.011L379.189,199.363L380.746,198.542L382.303,197.874L383.86,197.115L385.417,196.248L386.974,195.488L388.531,194.841L390.088,194.1L391.645,193.228L393.202,192.546L394.759,191.906L396.316,191.229L397.873,190.714L399.43,189.831L400.987,189.278L402.544,188.653L404.101,187.869L405.658,187.244L407.215,186.485L408.772,185.475L410.329,184.713L411.886,184.265L413.443,183.232L415,182.473L416.557,181.798L418.114,180.856L419.671,180.219L421.228,179.535L422.785,178.747L424.342,177.947L425.899,177.257L427.456,176.236L429.013,175.45L430.57,174.758L432.127,173.918L433.684,172.994L435.241,172.049L436.798,170.659L438.355,169.81L439.912,169.17L441.469,168.304L443.026,167.607L444.583,167.102L446.14,166.315L447.697,165.621L449.254,165.135L450.811,164.343L452.368,163.621L453.925,163.098L455.482,162.26L457.039,161.477L458.596,160.882L460.154,160.098L461.711,159.118L463.268,158.291L464.825,157.261L466.382,156.531L467.939,155.826L469.496,154.783L471.053,154L472.61,153.273L474.167,152.4L475.724,151.678L477.281,151.194L478.838,150.496L480.395,149.968L481.952,149.389L483.509,148.687L485.066,147.982L486.623,147.33L488.18,146.678L489.737,146.005L491.294,145.435L492.851,144.802L494.408,144.176L495.965,143.646L497.522,143.035L499.079,142.405L500.636,141.725L502.193,140.911L503.75,140.329L505.307,139.701L506.864,139.043L508.421,138.56L509.978,138.043L511.535,137.503L513.092,137.172L514.649,136.767L516.206,135.843L517.763,135.203L519.32,134.603L520.877,133.789L522.434,133.448L523.991,132.992L525.548,132.563L527.105,132.22L528.662,131.701L530.219,131.172L531.776,130.566L533.333,129.929L534.89,128.913L536.447,128.05L538.004,127.587L539.561,126.963L541.118,126.534L542.675,126.016L544.232,125.42L545.789,124.884L547.346,124.459L548.904,123.806L550.461,123.089L552.018,122.559L553.575,121.837L555.132,121.47L556.689,121.109L558.246,120.626L559.803,120.17L561.36,119.764L562.917,119.105L564.474,118.554L566.031,117.992L567.588,117.232L569.145,116.663L570.702,116.361L572.259,115.801L573.816,115.389L575.373,115.019L576.93,114.552L578.487,114.094L580.044,113.567L581.601,112.874L583.158,112.132L584.715,111.388L586.272,110.614L587.829,110.056L589.386,109.63L590.943,109.102L592.5,108.661L594.057,108.183L595.614,107.542L597.171,107.111L598.728,106.708L600.285,105.811L601.842,105.044L603.399,104.571L604.956,104.084L606.513,103.734L608.07,103.457L609.627,102.874L611.184,102.487L612.741,102.102L614.298,101.353L615.855,100.547L617.412,99.942L618.969,99.122L620.526,98.687L622.083,98.289L623.64,97.604L625.197,97.16L626.754,96.739L628.311,96.138L629.868,95.499L631.425,95.089L632.982,94.41L634.539,93.974L636.096,93.693L637.654,93.089L639.211,92.684L640.768,92.438L642.325,92.067L643.882,91.687L645.439,91.051L646.996,90.301L648.553,89.548L650.11,89.046L651.667,88.551L653.224,88.262L654.781,87.828L656.338,87.318L657.895,87.037L659.452,86.743L661.009,86.24L662.566,85.933L664.123,85.509L665.68,85.045L667.237,84.629L668.794,84.358L670.351,83.985L671.908,83.781L673.465,83.501L675.022,83.123L676.579,82.867L678.136,82.695L679.693,82.099L681.25,81.513L682.807,80.94L684.364,80.369L685.921,79.932L687.478,79.661L689.035,79.221L690.592,78.947L692.149,78.564L693.706,78.004L695.263,77.548L696.82,77.148L698.377,76.55L699.934,76.125L701.491,75.714L703.048,75.23L704.605,74.832L706.162,74.381L707.719,73.716L709.276,73.32L710.833,72.948L712.39,72.559L713.947,72.111L715.504,71.668L717.061,71.181L718.618,70.899L720.175,70.724L721.732,70.306L723.289,69.957L724.846,69.687L726.404,69.361L727.961,69.052L729.518,68.81L731.075,68.428L732.632,68.078L734.189,67.881L735.746,67.429L737.303,67.002L738.86,66.817L740.417,66.549L741.974,66.339L743.531,66.106L745.088,65.663L746.645,65.218L748.202,64.894L749.759,64.591L751.316,64.279L752.873,63.887L754.43,63.58L755.987,63.357L757.544,63.094L759.101,62.658L760.658,62.386L762.215,62.055L763.772,61.502L765.329,61.054L766.886,60.825L768.443,60.466L770,60"/></g></svg>