<svg class="plot-d6a7b5" fill="currentColor" font-family="system-ui, sans-serif" font-size="10" text-anchor="middle" width="830" height="400" viewBox="0 0 830 400" xmlns="http://www.w3.org/2000/svg" xmlns:xlink="http://www.w3.org/1999/xlink" color="#1e90ff"><style>:where(.plot-d6a7b5){--plot-background: white;display:block;height:intrinsic;max-width:100%}:where(.plot-d6a7b5 text),:where(.plot-d6a7b5 tspan){white-space:pre}</style><g aria-label="y-grid" stroke="currentColor" stroke-opacity=".1"><line x1="40" x2="810" y1="370" y2="370"/><line x1="40" x2="810" y1="344" y2="344"/><line x1="40" x2="810" y1="318" y2="318"/><line x1="40" x2="810" y1="292" y2="292"/><line x1="40" x2="810" y1="266" y2="266"/><line x1="40" x2="810" y1="240" y2="240"/><line x1="40" x2="810" y1="214" y2="214"/><line x1="40" x2="810" y1="189" y2="189"/><line x1="40" x2="810" y1="163" y2="163"/><line x1="40" x2="810" y1="137" y2="137"/><line x1="40" x2="810" y1="111" y2="111"/><line x1="40" x2="810" y1="85" y2="85"/><line x1="40" x2="810" y1="59" y2="59"/><line x1="40" x2="810" y1="33" y2="33"/></g><g aria-label="y-axis tick" fill="none" stroke="currentColor"><path transform="translate(40,370)" d="M0,0L-6,0"/><path transform="translate(40,344)" d="M0,0L-6,0"/><path transform="translate(40,318)" d="M0,0L-6,0"/><path transform="translate(40,292)" d="M0,0L-6,0"/><path transform="translate(40,266)" d="M0,0L-6,0"/><path transform="translate(40,240)" d="M0,0L-6,0"/><path transform="translate(40,214)" d="M0,0L-6,0"/><path transform="translate(40,189)" d="M0,0L-6,0"/><path transform="translate(40,163)" d="M0,0L-6,0"/><path transform="translate(40,137)" d="M0,0L-6,0"/><path transform="translate(40,111)" d="M0,0L-6,0"/><path transform="translate(40,85)" d="M0,0L-6,0"/><path transform="translate(40,59)" d="M0,0L-6,0"/><path transform="translate(40,33)" d="M0,0L-6,0"/></g><g aria-label="y-axis tick label" text-anchor="end" font-variant="tabular-nums"><text y=".32em" transform="translate(-9,0) translate(40,370)">−40</text><text y=".32em" transform="translate(-9,0) translate(40,344)">−20</text><text y=".32em" transform="translate(-9,0) translate(40,318)">0</text><text y=".32em" transform="translate(-9,0) translate(40,292)">20</text><text y=".32em" transform="translate(-9,0) translate(40,266)">40</text><text y=".32em" transform="translate(-9,0) translate(40,240)">60</text><text y=".32em" transform="translate(-9,0) translate(40,214)">80</text><text y=".32em" transform="translate(-9,0) translate(40,189)">100</text><text y=".32em" transform="translate(-9,0) translate(40,163)">120</text><text y=".32em" transform="translate(-9,0) translate(40,137)">140</text><text y=".32em" transform="translate(-9,0) translate(40,111)">160</text><text y=".32em" transform="translate(-9,0) translate(40,85)">180</text><text y=".32em" transform="translate(-9,0) translate(40,59)">200</text><text y=".32em" transform="translate(-9,0) translate(40,33)">220</text></g><g aria-label="y-axis label" text-anchor="start"><text y=".71em" transform="translate(-37,-17) translate(40,20)">↑ targetPosY</text></g><g aria-label="x-grid" stroke="currentColor" stroke-opacity=".1"><line x1="40" x2="40" y1="20" y2="370"/><line x1="150" x2="150" y1="20" y2="370"/><line x1="260" x2="260" y1="20" y2="370"/><line x1="370" x2="370" y1="20" y2="370"/><line x1="480" x2="480" y1="20" y2="370"/><line x1="590" x2="590" y1="20" y2="370"/><line x1="700" x2="700" y1="20" y2="370"/><line x1="810" x2="810" y1="20" y2="370"/></g><g aria-label="x-axis tick" fill="none" stroke="currentColor"><path transform="translate(40,370)" d="M0,0L0,6"/><path transform="translate(150,370)" d="M0,0L0,6"/><path transform="translate(260,370)" d="M0,0L0,6"/><path transform="translate(370,370)" d="M0,0L0,6"/><path transform="translate(480,370)" d="M0,0L0,6"/><path transform="translate(590,370)" d="M0,0L0,6"/><path transform="translate(700,370)" d="M0,0L0,6"/><path transform="translate(810,370)" d="M0,0L0,6"/></g><g aria-label="x-axis tick label" font-variant="tabular-nums"><text y=".71em" transform="translate(0,9) translate(40,370)">−50</text><text y=".71em" transform="translate(0,9) translate(150,370)">0</text><text y=".71em" transform="translate(0,9) translate(260,370)">50</text><text y=".71em" transform="translate(0,9) translate(370,370)">100</text><text y=".71em" transform="translate(0,9) translate(480,370)">150</text><text y=".71em" transform="translate(0,9) translate(590,370)">200</text><text y=".71em" transform="translate(0,9) translate(700,370)">250</text><text y=".71em" transform="translate(0,9) translate(810,370)">300</text></g><g aria-label="x-axis label" text-anchor="end"><text transform="translate(17,27) translate(810,370)">targetPosX →</text></g><g aria-label="rect" mask="url(#Mask)"><rect x="-3898" y="2963" width="44" height="26" fill="#23171B"/><rect x="18" y="370" width="44" height="26" fill="#23171B"/><rect x="18" y="344" width="44" height="26" fill="#23171B"/><rect x="62" y="370" width="44" height="26" fill="#23171B"/><rect x="62" y="344" width="44" height="26" fill="#23171B"/><rect x="62" y="318" width="44" height="26" fill="#23171B"/><rect x="62" y="292" width="44" height="26" fill="#23171B"/><rect x="62" y="266" width="44" height="26" fill="#23171B"/><rect x="62" y="240" width="44" height="26" fill="#23171B"/><rect x="62" y="214" width="44" height="26" fill="#23171B"/><rect x="62" y="189" width="44" height="25" fill="#23171B"/><rect x="62" y="163" width="44" height="26" fill="#23171B"/><rect x="106" y="370" width="44" height="26" fill="#23171C"/><rect x="106" y="344" width="44" height="26" fill="#251822"/><rect x="106" y="318" width="44" height="26" fill="#24181F"/><rect x="106" y="292" width="44" height="26" fill="#23181D"/><rect x="106" y="266" width="44" height="26" fill="#23171C"/><rect x="106" y="240" width="44" height="26" fill="#23171B"/><rect x="106" y="214" width="44" height="26" fill="#23171B"/><rect x="106" y="189" width="44" height="25" fill="#23171B"/><rect x="106" y="163" width="44" height="26" fill="#23171B"/><rect x="106" y="137" width="44" height="26" fill="#23171B"/><rect x="106" y="85" width="44" height="26" fill="#23171B"/><rect x="106" y="59" width="44" height="26" fill="#23171B"/><rect x="106" y="33" width="44" height="26" fill="#23171B"/><rect x="106" y="7" width="44" height="26" fill="#23171B"/><rect x="150" y="370" width="44" height="26" fill="#23171C"/><rect x="150" y="344" width="44" height="26" fill="#2A1B31"/><rect x="150" y="318" width="44" height="26" fill="#23181D"/><rect x="150" y="292" width="44" height="26" fill="#FCBD28"/><rect x="150" y="266" width="44" height="26" fill="#2CA4F2"/><rect x="150" y="240" width="44" height="26" fill="#4665EA"/><rect x="150" y="214" width="44" height="26" fill="#493CAA"/><rect x="150" y="189" width="44" height="25" fill="#3D296E"/><rect x="150" y="163" width="44" height="26" fill="#3D296E"/><rect x="150" y="137" width="44" height="26" fill="#2C1C36"/><rect x="150" y="111" width="44" height="26" fill="#2A1B30"/><rect x="150" y="85" width="44" height="26" fill="#271A28"/><rect x="150" y="59" width="44" height="26" fill="#23181D"/><rect x="150" y="33" width="44" height="26" fill="#23171C"/><rect x="150" y="7" width="44" height="26" fill="#23171B"/><rect x="150" y="-19" width="44" height="26" fill="#23181C"/><rect x="150" y="-45" width="44" height="26" fill="#23171C"/><rect x="150" y="-71" width="44" height="26" fill="#23171B"/><rect x="150" y="-123" width="44" height="26" fill="#23171B"/><rect x="150" y="-200" width="44" height="26" fill="#23171B"/><rect x="194" y="448" width="44" height="26" fill="#23171B"/><rect x="194" y="370" width="44" height="26" fill="#23171C"/><rect x="194" y="344" width="44" height="26" fill="#2D1D38"/><rect x="194" y="318" width="44" height="26" fill="#23181D"/><rect x="194" y="292" width="44" height="26" fill="#900C00"/><rect x="194" y="266" width="44" height="26" fill="#26D5C6"/><rect x="194" y="240" width="44" height="26" fill="#3A85F9"/><rect x="194" y="214" width="44" height="26" fill="#4B4BC9"/><rect x="194" y="189" width="44" height="25" fill="#47379B"/><rect x="194" y="163" width="44" height="26" fill="#453392"/><rect x="194" y="137" width="44" height="26" fill="#37245A"/><rect x="194" y="111" width="44" height="26" fill="#311F45"/><rect x="194" y="85" width="44" height="26" fill="#271A29"/><rect x="194" y="59" width="44" height="26" fill="#281A2B"/><rect x="194" y="33" width="44" height="26" fill="#251821"/><rect x="194" y="7" width="44" height="26" fill="#23171C"/><rect x="194" y="-19" width="44" height="26" fill="#23171C"/><rect x="194" y="-45" width="44" height="26" fill="#23181C"/><rect x="194" y="-71" width="44" height="26" fill="#23171C"/><rect x="194" y="-97" width="44" height="26" fill="#23171B"/><rect x="194" y="-149" width="44" height="26" fill="#23171B"/><rect x="194" y="-174" width="44" height="25" fill="#23171B"/><rect x="194" y="-200" width="44" height="26" fill="#23171B"/><rect x="194" y="-563" width="44" height="26" fill="#23171B"/><rect x="194" y="-641" width="44" height="26" fill="#23171B"/><rect x="238" y="370" width="44" height="26" fill="#23171C"/><rect x="238" y="344" width="44" height="26" fill="#281A2C"/><rect x="238" y="318" width="44" height="26" fill="#23171C"/><rect x="238" y="292" width="44" height="26" fill="#87FD58"/><rect x="238" y="266" width="44" height="26" fill="#3F78F6"/><rect x="238" y="240" width="44" height="26" fill="#4B4BC9"/><rect x="238" y="214" width="44" height="26" fill="#402C7A"/><rect x="238" y="189" width="44" height="25" fill="#38245B"/><rect x="238" y="163" width="44" height="26" fill="#433087"/><rect x="238" y="137" width="44" height="26" fill="#2F1E3E"/><rect x="238" y="111" width="44" height="26" fill="#2C1C36"/><rect x="238" y="85" width="44" height="26" fill="#251923"/><rect x="238" y="59" width="44" height="26" fill="#2E1D3B"/><rect x="238" y="33" width="44" height="26" fill="#261923"/><rect x="238" y="7" width="44" height="26" fill="#23171B"/><rect x="238" y="-19" width="44" height="26" fill="#23171B"/><rect x="238" y="-45" width="44" height="26" fill="#23171B"/><rect x="238" y="-71" width="44" height="26" fill="#23171B"/><rect x="282" y="370" width="44" height="26" fill="#23171C"/><rect x="282" y="344" width="44" height="26" fill="#281A2B"/><rect x="282" y="318" width="44" height="26" fill="#23171C"/><rect x="282" y="292" width="44" height="26" fill="#29DCBD"/><rect x="282" y="266" width="44" height="26" fill="#4A42B7"/><rect x="282" y="240" width="44" height="26" fill="#3D296F"/><rect x="282" y="214" width="44" height="26" fill="#311F44"/><rect x="282" y="189" width="44" height="25" fill="#271A28"/><rect x="282" y="163" width="44" height="26" fill="#2F1E3E"/><rect x="282" y="137" width="44" height="26" fill="#24181F"/><rect x="282" y="111" width="44" height="26" fill="#261924"/><rect x="282" y="85" width="44" height="26" fill="#241820"/><rect x="282" y="59" width="44" height="26" fill="#23171C"/><rect x="282" y="7" width="44" height="26" fill="#23171B"/><rect x="282" y="-19" width="44" height="26" fill="#23171B"/><rect x="326" y="448" width="44" height="26" fill="#23171B"/><rect x="326" y="370" width="44" height="26" fill="#23171C"/><rect x="326" y="344" width="44" height="26" fill="#281A2B"/><rect x="326" y="318" width="44" height="26" fill="#23171C"/><rect x="326" y="292" width="44" height="26" fill="#28D8C2"/><rect x="326" y="266" width="44" height="26" fill="#4B4AC7"/><rect x="326" y="240" width="44" height="26" fill="#392560"/><rect x="326" y="214" width="44" height="26" fill="#352252"/><rect x="326" y="189" width="44" height="25" fill="#2B1C34"/><rect x="326" y="163" width="44" height="26" fill="#281A29"/><rect x="326" y="137" width="44" height="26" fill="#251821"/><rect x="326" y="111" width="44" height="26" fill="#281A2A"/><rect x="326" y="85" width="44" height="26" fill="#271927"/><rect x="326" y="59" width="44" height="26" fill="#281A2A"/><rect x="326" y="33" width="44" height="26" fill="#23171B"/><rect x="326" y="7" width="44" height="26" fill="#23171B"/><rect x="326" y="-45" width="44" height="26" fill="#23171B"/><rect x="326" y="-71" width="44" height="26" fill="#23171B"/><rect x="370" y="370" width="44" height="26" fill="#23171C"/><rect x="370" y="344" width="44" height="26" fill="#251923"/><rect x="370" y="318" width="44" height="26" fill="#23171C"/><rect x="370" y="292" width="44" height="26" fill="#3A84F9"/><rect x="370" y="266" width="44" height="26" fill="#412E7F"/><rect x="370" y="240" width="44" height="26" fill="#311F44"/><rect x="370" y="214" width="44" height="26" fill="#2E1D3C"/><rect x="370" y="189" width="44" height="25" fill="#281A2A"/><rect x="370" y="163" width="44" height="26" fill="#241820"/><rect x="370" y="137" width="44" height="26" fill="#24181F"/><rect x="370" y="111" width="44" height="26" fill="#261925"/><rect x="370" y="85" width="44" height="26" fill="#251922"/><rect x="370" y="59" width="44" height="26" fill="#261924"/><rect x="370" y="7" width="44" height="26" fill="#23171B"/><rect x="370" y="-45" width="44" height="26" fill="#23171B"/><rect x="414" y="370" width="44" height="26" fill="#23171B"/><rect x="414" y="344" width="44" height="26" fill="#251821"/><rect x="414" y="318" width="44" height="26" fill="#23171B"/><rect x="414" y="292" width="44" height="26" fill="#3C7FF8"/><rect x="414" y="266" width="44" height="26" fill="#402D7C"/><rect x="414" y="240" width="44" height="26" fill="#2E1E3D"/><rect x="414" y="214" width="44" height="26" fill="#281A29"/><rect x="414" y="189" width="44" height="25" fill="#24181F"/><rect x="414" y="163" width="44" height="26" fill="#23171C"/><rect x="414" y="137" width="44" height="26" fill="#23171B"/><rect x="414" y="111" width="44" height="26" fill="#23171B"/><rect x="414" y="59" width="44" height="26" fill="#23171B"/><rect x="414" y="33" width="44" height="26" fill="#23171B"/><rect x="414" y="7" width="44" height="26" fill="#23171B"/><rect x="458" y="370" width="44" height="26" fill="#23171B"/><rect x="458" y="344" width="44" height="26" fill="#241820"/><rect x="458" y="318" width="44" height="26" fill="#23171B"/><rect x="458" y="292" width="44" height="26" fill="#4A52D5"/><rect x="458" y="266" width="44" height="26" fill="#3B2766"/><rect x="458" y="240" width="44" height="26" fill="#281A2B"/><rect x="458" y="214" width="44" height="26" fill="#271A28"/><rect x="458" y="189" width="44" height="25" fill="#23181D"/><rect x="458" y="163" width="44" height="26" fill="#23181D"/><rect x="458" y="137" width="44" height="26" fill="#23171B"/><rect x="458" y="111" width="44" height="26" fill="#23171B"/><rect x="458" y="59" width="44" height="26" fill="#23171B"/><rect x="458" y="33" width="44" height="26" fill="#23171C"/><rect x="502" y="370" width="44" height="26" fill="#23171B"/><rect x="502" y="344" width="44" height="26" fill="#23181D"/><rect x="502" y="318" width="44" height="26" fill="#23171B"/><rect x="502" y="292" width="44" height="26" fill="#483BA7"/><rect x="502" y="266" width="44" height="26" fill="#34214D"/><rect x="502" y="240" width="44" height="26" fill="#271A29"/><rect x="502" y="214" width="44" height="26" fill="#24181E"/><rect x="502" y="189" width="44" height="25" fill="#23171B"/><rect x="502" y="137" width="44" height="26" fill="#23171B"/><rect x="546" y="344" width="44" height="26" fill="#23181D"/><rect x="546" y="318" width="44" height="26" fill="#23171B"/><rect x="546" y="292" width="44" height="26" fill="#46369B"/><rect x="546" y="266" width="44" height="26" fill="#2C1C37"/><rect x="546" y="240" width="44" height="26" fill="#2B1C32"/><rect x="546" y="214" width="44" height="26" fill="#261923"/><rect x="546" y="137" width="44" height="26" fill="#23171B"/><rect x="590" y="370" width="44" height="26" fill="#23171B"/><rect x="590" y="344" width="44" height="26" fill="#241820"/><rect x="590" y="292" width="44" height="26" fill="#37245B"/><rect x="590" y="266" width="44" height="26" fill="#291A2C"/><rect x="590" y="240" width="44" height="26" fill="#261924"/><rect x="590" y="214" width="44" height="26" fill="#23171C"/><rect x="590" y="137" width="44" height="26" fill="#23171B"/><rect x="634" y="370" width="44" height="26" fill="#23171B"/><rect x="634" y="344" width="44" height="26" fill="#241820"/><rect x="634" y="292" width="44" height="26" fill="#392560"/><rect x="634" y="266" width="44" height="26" fill="#271926"/><rect x="634" y="240" width="44" height="26" fill="#241820"/><rect x="634" y="214" width="44" height="26" fill="#23171C"/><rect x="634" y="189" width="44" height="25" fill="#23171B"/><rect x="678" y="344" width="44" height="26" fill="#23181C"/><rect x="678" y="292" width="44" height="26" fill="#311F44"/><rect x="678" y="266" width="44" height="26" fill="#281A2A"/><rect x="678" y="240" width="44" height="26" fill="#24181E"/><rect x="678" y="214" width="44" height="26" fill="#23181E"/><rect x="678" y="137" width="44" height="26" fill="#23171B"/><rect x="722" y="344" width="44" height="26" fill="#23171B"/><rect x="722" y="318" width="44" height="26" fill="#23171B"/><rect x="722" y="292" width="44" height="26" fill="#281A29"/><rect x="722" y="266" width="44" height="26" fill="#23181D"/><rect x="722" y="240" width="44" height="26" fill="#23171B"/><rect x="722" y="214" width="44" height="26" fill="#23171B"/><rect x="722" y="137" width="44" height="26" fill="#23171B"/><rect x="722" y="111" width="44" height="26" fill="#23171B"/><rect x="766" y="344" width="44" height="26" fill="#23171C"/><rect x="766" y="318" width="44" height="26" fill="#23171B"/><rect x="766" y="292" width="44" height="26" fill="#281A2B"/><rect x="766" y="266" width="44" height="26" fill="#23181D"/><rect x="766" y="240" width="44" height="26" fill="#23171B"/><rect x="810" y="292" width="44" height="26" fill="#2A1B30"/><rect x="810" y="266" width="44" height="26" fill="#23171C"/><rect x="810" y="240" width="44" height="26" fill="#23171C"/><rect x="810" y="214" width="44" height="26" fill="#23171B"/><rect x="854" y="318" width="44" height="26" fill="#23171B"/><rect x="854" y="292" width="44" height="26" fill="#2B1C33"/><rect x="854" y="266" width="44" height="26" fill="#24181F"/><rect x="854" y="240" width="44" height="26" fill="#23171B"/><rect x="898" y="344" width="44" height="26" fill="#23171B"/><rect x="898" y="318" width="44" height="26" fill="#23171B"/><rect x="898" y="292" width="44" height="26" fill="#2A1B2F"/><rect x="898" y="266" width="44" height="26" fill="#23171B"/><rect x="898" y="240" width="44" height="26" fill="#23171B"/><rect x="942" y="292" width="44" height="26" fill="#261926"/><rect x="942" y="266" width="44" height="26" fill="#23171B"/><rect x="942" y="240" width="44" height="26" fill="#23171B"/><rect x="942" y="214" width="44" height="26" fill="#23171B"/><rect x="986" y="292" width="44" height="26" fill="#271926"/><rect x="986" y="266" width="44" height="26" fill="#23171B"/><rect x="986" y="137" width="44" height="26" fill="#23171B"/><rect x="1030" y="292" width="44" height="26" fill="#261924"/><rect x="1030" y="266" width="44" height="26" fill="#271A29"/><rect x="1030" y="189" width="44" height="25" fill="#23171B"/><rect x="1074" y="344" width="44" height="26" fill="#23171B"/><rect x="1074" y="292" width="44" height="26" fill="#23181D"/><rect x="1074" y="266" width="44" height="26" fill="#23171C"/><rect x="1118" y="292" width="44" height="26" fill="#23171C"/><rect x="1118" y="266" width="44" height="26" fill="#23171C"/><rect x="1162" y="292" width="44" height="26" fill="#23171C"/><rect x="1162" y="266" width="44" height="26" fill="#23171C"/><rect x="1206" y="292" width="44" height="26" fill="#23171C"/><rect x="1206" y="266" width="44" height="26" fill="#23171C"/><rect x="1250" y="292" width="44" height="26" fill="#23171B"/><rect x="1250" y="266" width="44" height="26" fill="#23171C"/><rect x="1426" y="240" width="44" height="26" fill="#23171B"/><rect x="1470" y="292" width="44" height="26" fill="#23171B"/><rect x="1690" y="292" width="44" height="26" fill="#23171B"/></g><mask xmlns="http://www.w3.org/2000/svg" id="Mask"><rect x="45" y="15" width="950" height="350" fill="#fff"/></mask></svg>