<svg xmlns="http://www.w3.org/2000/svg" width="830" height="470" fill="currentColor" class="plot-d6a7b5" font-family="system-ui, sans-serif" font-size="10" style="--plot-background:white;display:block;height:intrinsic;max-width:100%;color:#1e90ff" text-anchor="middle" viewBox="0 0 830 470">
    <style>
        :where(.plot-d6a7b5 text),:where(.plot-d6a7b5 tspan){white-space:pre}
    </style>
    <path stroke="currentColor" stroke-opacity=".1" d="
M60
410
h710
M60
362.919
h710
M60
315.838
h710
M60
268.757
h710
M60
221.676
h710
M60
174.595
h710
M60
127.514
h710
M60
80.433
h710" aria-hidden="true" aria-label="y-grid"/>
    <path fill="none" stroke="currentColor" d="
M60
410
h-6
m6
-47.081
h-6
m6
-47.081
h-6
m6
-47.081
h-6
m6
-47.081
h-6
m6
-47.081
h-6
m6
-47.081
h-6
m6
-47.081
h-6" aria-hidden="true" aria-label="y-axis tick"/>
    <g aria-label="y-axis tick label" font-variant="tabular-nums" text-anchor="end">
        <text y=".32em" transform="translate(51 410)">0</text>
        <text y=".32em" transform="translate(51 362.919)">2,000</text>
        <text y=".32em" transform="translate(51 315.838)">4,000</text>
        <text y=".32em" transform="translate(51 268.757)">6,000</text>
        <text y=".32em" transform="translate(51 221.676)">8,000</text>
        <text y=".32em" transform="translate(51 174.595)">10,000</text>
        <text y=".32em" transform="translate(51 127.514)">12,000</text>
        <text y=".32em" transform="translate(51 80.433)">14,000</text>
    </g>
    <text y=".71em" aria-label="y-axis label" text-anchor="start" transform="translate(3 3)">↑ Visible Vestiges (8 days)</text>
    <path fill="none" stroke="currentColor" d="
M82.449
410
v6
m60.084
-6
v6
m60.744
-6
v6
m60.743
-6
v6
m60.084
-6
v6
m60.084
-6
v6
m60.744
-6
v6
m60.744
-6
v6
m59.424
-6
v6
m60.083
-6
v6
m60.744
-6
v6
m60.743
-6
v6" aria-hidden="true" aria-label="x-axis tick"/>
    <g aria-label="x-axis tick label" font-variant="tabular-nums">
        <text transform="translate(82.449 419)"><tspan x="0" y=".71em">Apr</tspan><tspan x="0" dy="1em">2023</tspan></text>
        <text y=".71em" transform="translate(142.533 419)">Jul</text>
        <text y=".71em" transform="translate(203.277 419)">Oct</text>
        <text transform="translate(264.02 419)"><tspan x="0" y=".71em">Jan</tspan><tspan x="0" dy="1em">2024</tspan></text>
        <text y=".71em" transform="translate(324.104 419)">Apr</text>
        <text y=".71em" transform="translate(384.188 419)">Jul</text>
        <text y=".71em" transform="translate(444.932 419)">Oct</text>
        <text transform="translate(505.676 419)"><tspan x="0" y=".71em">Jan</tspan><tspan x="0" dy="1em">2025</tspan></text>
        <text y=".71em" transform="translate(565.1 419)">Apr</text>
        <text y=".71em" transform="translate(625.183 419)">Jul</text>
        <text y=".71em" transform="translate(685.927 419)">Oct</text>
        <text transform="translate(746.67 419)"><tspan x="0" y=".71em">Jan</tspan><tspan x="0" dy="1em">2026</tspan></text>
    </g>
    <path fill="none" stroke="currentColor" stroke-linecap="round" stroke-linejoin="round" stroke-width="1.5" d="
m60
410
.44
-11.817
.44
-43.221
.441
-23.305
.44
-16.525
.44
-27.26
.44
-21.469
.44
-20.127
.44
-28.908
.441
10.994
.44
-14.949
.44
-42.726
.44
-28.601
.44
-7.533
.44
-21.846
.441
12.218
.44
-.448
.44
-4.472
.44
30.485
.44
27.66
.44
-9.275
.441
-.471
.44
-1.554
.44
-18.62
.44
18.432
.44
6.097
.441
-12.688
.44
-.871
.44
12.311
.44
-11.935
.44
9.416
.44
-13.841
.441
-36.441
.44
-6.003
.44
11.982
.44
1.836
.44
20.693
.44
24.67
.441
6.215
.44
27.895
.44
25.118
.44
-23.188
.44
-24.34
.44
-25.871
.441
-39.949
.44
-6.826
.44
-1.789
.44
-23.188
.44
12.736
.441
25.4
.44
-1.883
.44
9.722
.44
-5.509
.44
-30.438
.44
-15.277
.441
6.285
.44
-19.256
.44
7.109
.44
9.84
.44
-8.969
.44
13.442
.441
16.808
.44
-20.881
.44
-3.554
.44
-1.154
.44
-20.386
.44
17.561
.441
17.82
.44
-1.459
.44
15.466
.44
22.575
.44
7.698
.44
19.774
.441
.047
.44
-14.548
.44
-1.412
.44
10.357
.44
-9.157
.441
6.803
.44
19.398
.44
6.497
.44
17.749
.44
15.537
.44
-13.441
.441
-3.861
.44
-3.013
.44
-24.977
.44
-1.624
.44
8.898
.44
-15.348
.441
7.957
.44
23.234
.44
2.731
.44
15.937
.44
1.742
.44
-19.751
.441
11.464
.44
2.025
.44
-8.687
.44
5.862
.44
5.815
.441
-7.157
.44
19.233
.44
13.724
.44
-4.12
.44
-12.57
.44
-7.18
.441
-16.808
.44
9.981
.44
-3.719
.44
-14.313
.44
9.864
.44
15.56
.441
-.447
.44
14.877
.44
-2.778
.44
-6.356
.44
7.392
.44
1.036
.441
-1.224
.44
9.534
.44
4.072
.44
.942
.44
9.345
.441
8.616
.44
-8.663
.44
-17.066
.44
-8.969
.44
-19.257
.44
4.591
.441
-5.532
.44
-8.498
.44
6.403
.44
23.446
.44
-5.202
.44
11.44
.441
-5.697
.44
-15.419
.44
-3.389
.44
-1.884
.44
-10.004
.44
4.943
.441
4.214
.44
6.12
.44
11.865
.44
13.183
.44
3.389
.441
6.309
.44
10.146
.44
-4.967
.44
2.448
.44
8.993
.44
-10.758
.441
3.319
.44
2.542
.44
-.306
.44
4.308
.44
-2.142
.44
-2.26
.441
3.013
.44
.353
.44
-5.72
.44
-.235
.44
3.531
.44
-5.909
.441
-.118
.44
6.898
.44
-4.52
.44
1.224
.44
3.79
.441
-8.498
.44
6.38
.44
.894
.44
-6.662
.44
3.013
.44
10.57
.441
-6.662
.44
9.863
.44
-.706
.44
-4.355
.44
3.861
.44
-2.119
.441
-13.277
.44
-.211
.44
-1.648
.44
-11.158
.44
-.448
.44
5.626
.441
-1.718
.44
3.437
.44
10.169
.44
-3.295
.44
18.455
.441
9.134
.44
-6.615
.44
4.449
.44
6.074
.44
-12.665
.44
4.92
.441
-1.813
.44
-5.908
.44
.565
.44
3.719
.44
-9.91
.44
9.416
.441
.07
.44
-6.92
.44
4.684
.44
-.471
.44
-8.404
.44
4.026
.441
-2.26
.44
-2.778
.44
-1.483
.44
-.424
.44
3.508
.44
5.673
.441
7.251
.44
-7.015
.44
5.602
.44
7.321
.44
-3.036
.441
.447
.44
-2.448
.44
-14.666
.44
3.602
.44
3.083
.44
-12.076
.441
.753
.44
-1.483
.44
-5.438
.44
11.064
.44
2.307
.44
-10.075
.441
6.898
.44
2.048
.44
-10.264
.44
4.637
.44
-1.647
.44
-4.614
.441
-4.026
.44
-4.308
.44
-20.762
.44
5.108
.44
4.331
.441
-5.155
.44
4.237
.44
12.43
.44
4.684
.44
20.645
.44
10.758
.441
-4.52
.44
4.285
.44
5.132
.44
-9.864
.44
.118
.44
2.919
.441
-8.828
.44
-5.555
.44
-3.108
.44
-15.042
.44
3.201
.44
2.307
.441
-13.277
.44
.024
.44
7.509
.44
-1.365
.44
9.134
.441
7.297
.44
.189
.44
15.301
.44
6.026
.44
.73
.44
4.967
.441
2.095
.44
-4.99
.44
.777
.44
-1.272
.44
-1.577
.44
2.236
.441
5.203
.44
1.2
.44
.66
.44
-.212
.44
-7.251
.44
1.53
.441
-.047
.44
-3.813
.44
3.813
.44
3.32
.44
4.143
.441
14.359
.44
5.226
.44
-8.78
.44
.541
.44
-3.484
.44
-8.78
.441
5.908
.44
-3.719
.44
-.73
.44
17.232
.44
3.601
.44
2.119
.441
6.144
.44
-8.78
.44
-16.62
.44
-12.83
.44
-3.554
.44
-3.131
.441
2.942
.44
2.637
.44
1.201
.44
14.265
.44
12.947
.441
-5.626
.44
-2.754
.44
-2.99
.44
-6.05
.44
6.804
.44
5.155
.441
-1.695
.44
5.838
.44
9.228
.44
-3.837
.44
5.085
.44
-5.791
.441
-11.818
.44
-2.566
.44
4.567
.44
-4.567
.44
7.345
.44
5.344
.441
2.825
.44
8.945
.44
1.248
.44
-11.606
.44
-5.391
.44
-9.84
.441
-11.982
.44
-2.707
.44
.965
.44
-.023
.44
7.462
.441
7.839
.44
3.037
.44
10.193
.44
4.59
.44
-13.983
.44
-7.085
.441
-.919
.44
-.306
.44
8.64
.44
4.567
.44
-5.344
.44
15.137
.441
11.322
.44
-8.192
.44
-9.439
.44
-7.557
.44
-16.125
.44
4.426
.441
-.354
.44
-8.898
.44
9.063
.44
11.394
.44
.141
.441
5.344
.44
.73
.44
-8.31
.44
7.391
.44
4.803
.44
-5.391
.441
5.791
.44
11.676
.44
1.13
.44
8.875
.44
-5.933
.44
-13.888
.441
-4.45
.44
-2.872
.44
-7.391
.44
2.472
.44
-1.625
.44
3.743
.441
13.889
.44
13.63
.44
-.047
.44
5.579
.44
-4.025
.441
-.871
.44
2.777
.44
.306
.44
-2.354
.44
8.875
.44
.824
.441
1.342
.44
6.167
.44
7.251
.44
-9.652
.44
-6.309
.44
-10.946
.441
-8.639
.44
-1.719
.44
-.447
.44
-7.98
.44
9.581
.44
6.003
.441
.4
.44
3.413
.44
1.083
.44
-9.699
.44
.471
.441
-4.096
.44
-2.99
.44
4.803
.44
.141
.44
-7.863
.44
6.003
.441
1.578
.44
.659
.44
1.059
.44
-1.318
.44
-1.083
.44
11.37
.441
6.521
.44
-1.366
.44
1.177
.44
5.297
.44
3.46
.44
5.297
.441
1.177
.44
-6.121
.44
2.001
.44
4.52
.44
-5.391
.441
-3.013
.44
3.673
.44
-.754
.44
5.085
.44
3.484
.44
-7.298
.441
.212
.44
3.061
.44
-3.508
.44
-1.318
.44
-5.391
.44
-2.213
.441
6.544
.44
5.391
.44
-3.319
.44
.918
.44
-.565
.44
-4.779
.441
-4.143
.44
-.212
.44
-2.848
.44
-.895
.44
-2.871
.441
-4.308
.44
5.673
.44
1.2
.44
-7.344
.44
-.283
.44
3.578
.441
-2.048
.44
3.014
.44
.588
.44
-3.837
.44
4.637
.44
3.555
.441
-5.132
.44
7.557
.44
1.812
.44
-4.896
.44
8.098
.44
.471
.441
-3.908
.44
8.545
.44
-1.553
.44
2.236
.44
9.887
.44
-1.836
.441
-4.096
.44
-.848
.44
-7.956
.44
-10.641
.44
-1.012
.441
-4.402
.44
.377
.44
.353
.44
-2.119
.44
4.12
.44
9.934
.441
-4.449
.44
-5.485
.44
-11.794
.44
-.283
.44
-1.789
.44
1.413
.441
-.801
.44
1.107
.44
10.146
.44
13.841
.44
-5.131
.44
-3.955
.441
-5.391
.44
-11.888
.44
.094
.44
-4.731
.44
-4.402
.441
6.803
.44
10.287
.44
-.612
.44
11.299
.44
-3.86
.44
-12.995
.441
-4.26
.44
-.071
.44
-7.321
.44
3.931
.44
.8
.44
-2.307
.441
8.546
.44
.164
.44
-4.001
.44
-1.013
.44
-12.712
.44
-17.843
.441
3.248
.44
-.753
.44
-5.932
.44
.753
.44
7.039
.441
9.863
.44
14.125
.44
2.165
.44
-4.543
.44
4.685
.44
7.721
.441
-4.12
.44
1.224
.44
-2.942
.44
-2.637
.44
10.57
.44
4.002
.441
-12.335
.44
-2.731
.44
1.036
.44
-3.32
.44
5.556
.44
-2.919
.441
-.283
.44
10.711
.44
7.628
.44
-1.648
.44
7.486
.441
-1.719
.44
-8.427
.44
1.977
.44
-.989
.44
1.601
.44
5.509
.441
.094
.44
.894
.44
14.03
.44
3.649
.44
-6.638
.44
-1.577
.441
.306
.44
-4.473
.44
-.612
.44
1.648
.44
-1.483
.44
4.096
.441
1.106
.44
-4.637
.44
1.694
.44
-2.259
.44
-15.396
.441
-4.684
.44
3.272
.44
7.509
.44
12.194
.44
13.371
.44
12.735
.441
19.704
.44
13.559
.44
8.64
.44
.517
.44
-.612
.44
-.4
.441
-1.153
.44
-1.931
.44
-1.247
.44
-1.648
.44
-2.613
.44
-4.12
.441
-11.888
.44
-7.109
.44
-5.744
.44
-5.602
.44
-4.85
.441
-4.049
.44
-4.896
.44
3.578
.44
-2.048
.44
-2.99
.44
-2.518
.441
-4.92
.44
-1.154
.44
3.037
.44
-1.012
.44
-.095
.44
6.262
.441
2.731
.44
1.507
.44
3.154
.44
.8
.44
.918
.44
3.437
.441
-5.767
.44
-1.836
.44
4.967
.44
-2.142
.44
-.871
.44
2.424
.441
2.613
.44
4.755
.44
5.368
.44
-.777
.44
1.553
.441
-1.153
.44
-4.826
.44
-2.683
.44
.941
.44
-6.615
.44
-1.6
.441
-.542
.44
.848
.44
1.341
.44
.283
.44
-4.944
.44
3.39
.441
2.519
.44
-.871
.44
-1.412
.44
1.035
.44
1.06
.44
1.6
.441
-.258
.44
-3.508
.44
-4.426
.44
-.541
.44
-2.801
.441
-.659
.44
2.236
.44
-1.177
.44
.612
.44
5.461
.44
.142
.441
1.553
.44
.118
.44
-5.673
.44
-2.119
.44
-.259
.44
-5.179
.441
2.142
.44
4.897
.44
2.189
.44
5.626
.44
2.778
.44
.235
.441
-4.896
.44
-1.483
.44
-7.415
.44
-1.813
h.44
l.441
.165
.44
-2.66
.44
13.159
.44
.541
.44
4.12
.44
-1.742
.441
-6.003
.44
-7.439
.44
3.013
.44
-9.18
.44
1.859
.44
.659
.441
-6.567
.44
1.342
.44
7.462
.44
-3.931
.44
.423
.44
-.753
.441
-7.321
.44
7.392
.44
3.554
.44
-2.848
.44
1.224
.441
5.344
.44
-4.967
.44
6.144
.44
-2.59
.44
-7.062
.44
-3.908
.441
.306
.44
-2.589
.44
-1.13
.44
1.436
.44
1.601
.44
6.85
.441
3.766
.44
1.295
.44
.306
.44
4.167
.44
-1.483
.44
-2.354
.441
3.978
.44
5.367
.44
1.436
.44
3.578
.44
-5.084
.441
1.153
.44
4.638
.44
-4.308
.44
-11.158
.44
1.836
.44
-2.307
.441
2.825
.44
-.189
.44
.259
.44
.353
.44
11.512
.44
-.565
.441
1.153
.44
3.72
.44
-4.779
.44
-3.696
.44
.942
.44
-6.921
.441
-2.166
.44
-1.365
.44
.965
.44
6.732
.44
4.379
.44
-1.766
.441
2.472
.44
4.285
.44
2.966
.44
.447
.44
.871
.441
-1.695
.44
.33
.44
.541
.44
-5.085
.44
.306
.44
.471
.441
-3.154
.44
-1.154
.44
2.849
.44
-.165
.44
1.13
.44
-1.224
.441
-2.166
.44
.753
.44
-.8
.44
-6.639
.44
-7.109
.44
-1.86
.441
-4.166
.44
.329
.44
.871
.44
-1.177
.44
4.732
.441
10.405
.44
3.343
.44
3.743
.44
-.212
.44
-.942
.44
-1.554
.441
-1.294
.44
-7.51
.44
-5.626
.44
-5.65
.44
-5.108
.44
-3.178
.441
-1.601
.44
-5.649
.44
5.838
.44
3.013
.44
-3.955
.44
3.955
.441
3.343
.44
2.095
.44
6.285
.44
3.131
.44
-12.877
.441
-2.66
.44
-10.358
.44
-12.523
.44
-5.744
.44
-4.426
.44
-14.571
.441
2.613
.44
7.062
.44
7.627
.44
6.662
.44
3.837
.44
-2.119
.441
2.967
.44
9.133
.44
5.579
.44
-.188
.44
7.062
.44
5.626
.441
4.85
.44
6.826
.44
.189
.44
-5.697
.44
-.565
.441
-2.731
.44
-2.448
.44
.8
.44
1.272
.44
4.92
.44
8.215
.441
7.651
.44
3.743
.44
2.895
.44
3.743
.44
.071
.44
.165
.441
-1.931
.44
-.706
.44
-.777
.44
1.342
.44
-4.637
.44
.612
.441
-2.354
.44
.117
.44
-3.225
.44
-2.307
.44
-2.495
.441
3.319
.44
-.494
.44
1.954
.44
-.4
.44
4.331
.44
3.743
.441
2.283
.44
1.413
.44
-.589
.44
-.965
.44
.589
.44
-1.483
.441
-1.625
.44
-.4
.44
-2.895
.44
2.966
.44
-2.048
.44
-5.768
.441
-5.249
.44
-8.381
.44
-.753
.44
-.024
.44
-2.966
.441
3.508
.44
3.154
.44
2.708
.44
6.85
.44
-4.002
.44
-11.135
.441
-.494
.44
-.565
.44
-3.413
.44
1.106
.44
4.237
.44
2.849
.441
12.099
.44
3.155
.44
-3.461
.44
1.413
.44
-2.943
.44
-10.146
.441
2.213
.44
1.601
.44
-1.766
.44
2.802
.44
6.591
.44
5.697
.441
7.862
.44
2.307
.44
-.941
.44
1.671
.44
2.166
.441
-1.366
.44
1.177
.44
1.366
.44
-3.72
.44
-.023
.44
.8
.441
-4.99
.44
-2.19
.44
-3.366
.44
-4.543
.44
4.143
.44
2.283
.441
-1.789
.44
5.203
.44
3.154
.44
1.46
.44
6.097
.44
-1.036
.441
-5.391
.44
.612
.44
1.624
.44
1.413
.44
1.412
.441
-1.859
.44
-1.083
.44
1.577
.44
1.624
.44
-5.885
.44
-8.639
.441
-4.708
.44
-7.133
.44
-3.861
.44
1.719
.44
-1.413
.44
2.707
.441
4.967
.44
3.414
.44
8.051
.44
1.553
.44
-1.483
.44
-2.354
.441
1.13
.44
-.965
.44
1.836
.44
.565
.44
.165
.441
2.589
.44
3.108
.44
-1.083
.44
.565
.44
-3.06
.44
-2.896
.441
3.131
.44
-.824
.44
-1.671
.44
-.306
.44
1.365
.44
-.965
.441
1.577
.44
-1.765
.44
-3.273
.44
-2.283
.44
2.048
.44
.306
.441
1.412
.44
1.201
.44
.612
.44
4.638
.44
6.379
.441
-1.412
.44
2.354
.44
4.166
.44
.283
.44
.376
.44
1.484
.441
-.565
.44
-.236
.44
-5.461
.44
-3.837
.44
-4.002
.44
1.695
.441
-1.742
.44
-.589
.44
.565
.44
3.484
.44
2.801
.44
4.097
.441
-2.59
.44
-.118
.44
-.776
.44
-2.778
.44
-2.754
.441
-1.436
.44
-3.602
.44
1.671
.44
-2.566
.44
-1.106
.44
4.755
.441
4.143
.44
-1.318
.44
2.707
.44
-.894
.44
-1.483
.44
2.612
.441
-3.625
.44
-2.001
.44
1.06
.44
.918
.44
.706
.44
5.344
.441
-1.342
.44
1.954
.44
-1.554
.44
-1.412
.44
-8.145
.44
-4.12
.441
-3.531
.44
-3.837
.44
-1.648
.44
1.201
.44
-3.767
.441
1.836
.44
3.037
.44
-2.189
.44
2.448
.44
2.589
.44
-.588
.441
5.108
.44
4.991
.44
1.93
.44
2.072
.44
1.224
.44
-1.507
.441
1.46
.44
-1.224
.44
.706
.44
-1.201
.44
2.731
.44
-.33
.441
-1.577
.44
-.118
.44
-2.754
.44
-1.106
.44
-.801
.441
-2.495
.44
-1.813
.44
-.329
.44
-2.566
.44
3.037
.44
1.859
.441
-1.13
.44
1.036
.44
1.342
.44
.471
.44
.188
.44
-4.826
.441
-9.439
.44
-2.731
.44
.447
.44
-.612
.44
1.978
.44
2.236
.441
3.154
.44
8.216
.44
5.532
.44
-4.025
.44
-2.378
.441
.259
.44
-2.048
.44
1.059
.44
-.989
.44
-2.212
.44
1.365
.441
-1.13
.44
-1.883
.44
1.012
.44
1.671
.44
.354
.44
1.341
.441
5.65
.44
.636
.44
2.165
h.44
l.44
-3.436
.44
-1.225
.441
-4.331
.44
-6.262
.44
2.613
.44
-1.977
.44
-3.484
.441
2.66
.44
1.106
.44
.4
.44
2.943
.44
-.471
.44
-2.872
.441
5.085
.44
.141
.44
-2.283
.44
3.319
.44
-3.861
.44
1.201
.441
.047
.44
-3.013
.44
.047
.44
3.131
.44
-.73
.44
-1.977
.441
-5.697
.44
1.506
.44
-2.071
.44
-1.365
.44
-2.825
.441
-4.92
.44
2.989
.44
3.743
.44
-.047
.44
4.567
.44
.094
.441
1.577
.44
4.45
.44
2.613
.44
.612
.44
2.001
.44
-1.13
.441
-2.802
.44
-1.153
.44
2.048
.44
1.53
.44
1.483
.44
.353
.441
1.389
.44
5.626
.44
3.343
.44
-1.201
.44
1.154
.441
1.436
.44
-.283
.44
-.306
.44
-1.13
.44
-3.319
.44
1.907
.441
-2.707
.44
-.165
.44
-2.26
.44
1.554
.44
-1.766
.44
4.261
.441
.589
.44
-2.401
.44
-.613
.44
2.402
.44
.941
.44
2.59
.441
-3.32
.44
-.706
.44
4.52
.44
2.966
.44
1.271
.44
.777
.441
.047
.44
3.319
.44
-1.836
.44
-2.165
.44
-4.049
.441
1.718
.44
-1.624
.44
.777
.44
.659
.44
4.331
.44
.942
.441
1.836
.44
-2.142
.44
1.553
.44
-.447
.44
-1.13
.44
-3.484
.441
3.319
.44
1.225
.44
1.977
.44
-2.59
.44
-1.153
.44
-.212
.441
1.907
.44
-1.271
.44
.235
.44
.236
.44
3.201
.441
3.202
.44
1.106
.44
-.4
.44
1.954
.44
.329
.44
.989
.441
-.377
.44
.047
.44
1.154
.44
2.095
.44
-.071
.44
1.177
.441
-.612
.44
-1.13
.44
-.117
.44
-.73
.44
.753
.44
-1.247
.441
-1.201
.44
-.683
.44
1.295
.44
-2.707
.44
.07
.441
-.918
.44
.518
.44
-.235
.44
.212
.44
.635
.44
3.225
.441
.66
.44
.188
.44
.094
.44
-.024
.44
.118
.44
-.871
.441
-1.883
.44
-2.26
.44
-1.059
.44
-.565
.44
-.165
.44
1.059
.441
-.588
.44
-.448
.44
1.578
.44
-1.601
.44
-1.295
.441
.024
.44
-2.378
.44
.683
.44
1.648
.44
.4
.44
1.012
.441
-.989
.44
1.083
.44
-.518
.44
-1.318
.44
-.259
.44
-.353
.441
1.695
.44
2.519
.44
-.895
.44
.871
.44
.236
.44
-1.53
.441
-.966
.44
.118
.44
-1.271
.44
.329
.44
1.554
.441
2.284
.44
1.671
.44
1.036
.44
-.965
.44
.729
.44
.73
.441
-.588
.44
-.73
.44
.353
.44
.353
.44
.612
.44
1.295
.441
-1.201
.44
.589
.44
-.518
.44
-2.401
.44
-1.224
.44
-.353
.441
-1.083
.44
-.895
.44
-1.483
.44
.118
.44
1.247
.441
-.353
.44
-.494
.44
.612
.44
.8
.44
-.824
.44
.565
.441
1.483
.44
.754
.44
-1.436
.44
-.071
.44
-1.436
.44
1.107
.441
-.777
.44
-3.931
.44
-1.177
.44
2.142
.44
-1.554
.44
2.66
.441
.283
.44
1.247
.44
3.013
.44
2.025
.44
.4
.44
1.342
.441
-.518
.44
-.471
.44
-2.166
.44
-2.66
.44
-.682
.441
-1.107
.44
.895
.44
-.871
.44
.518
.44
-1.06
.44
3.296
.441
.071
.44
-.801
.44
-1.718
.44
1.389
.44
-.495
.44
1.483
.441
.589
.44
.118
.44
.941
.44
-.023
.44
-.895
.44
.871
.441
.824
.44
-2.613
.44
-2.024
.44
-.142
.44
1.225
.441
-1.648
.44
-.024
.44
-.353
.44
2.095
.44
2.119
.44
.894
.441
-1.6
.44
1.883
.44
.871
.44
.8
.44
-1.483
.44
.942
.441
-.942
.44
1.177
.44
.306
.44
.33
.44
.588
.44
1.719
.441
-.047
.44
1.224
.44
.188
.44
.565
.44
-.282
.441
-.613
.44
-.047
.44
-.918
.44
-2.095
.44
1.06
.44
-1.201
.441
-2.825
.44
-4.425
.44
-3.39
.44
.259
.44
1.647
.44
-1.177
.441
.683
.44
2.59
.44
3.484
.44
1.53
.44
-1.907
.44
-.353
.441
.682
.44
1.013
.44
-.33
.44
-1.389
.44
1.201
.441
1.907
.44
.07
.44
-.4
.44
-2.236
.44
-.471
.44
-.212
.441
1.106
.44
.848
.44
.588
.44
.118
.44
2.284
.44
-1.507
.441
2.166
.44
-2.307
.44
-2.637
.44
.824
.44
1.036
.44
-.188
.441
2.801
.44
.424
.44
1.718
.44
2.613
.44
-1.813
.441
-.824
.44
-.588
.44
.024
.44
.47
.44
.518
.44
.141
.441
1.695
.44
.848
.44
-.33
.44
-1.459
.44
-4.167
.44
-4.308
.441
-2.424
.44
-.542
.44
.094
.44
-.518
.44
.142
.44
3.178
.441
2.989
.44
-1.247
.44
-2.402
.44
-1.671
.44
-1.224
.44
.235
.441
.212
.44
.189
.44
2.989
.44
.989
.44
-.659
.441
1.883
.44
1.106
.44
-1.459
.44
-.871
.44
-2.331
.44
1.177
.441
2.237
.44
.8
.44
-.447
.44
1.2
.44
1.507
.44
2.778
.441
.235
.44
-.023
.44
-.942
.44
-.518
.44
-.918
.44
.306
.441
-.447
.44
-.236
.44
-.659
.44
-.565
.44
-.235
.441
.094
.44
-.777
.44
.33
.44
.141
.44
-.212
.44
.165
.441
1.224
.44
1.177
.44
-.683
.44
-1.53
.44
.565
.44
-.235
.441
.683
.44
-.495
.44
.306
.44
.942
.44
1.883
.44
.094
.441
.212
.44
.895
.44
-.189
.44
-.753
.44
.895
.441
-.565
.44
-.542
.44
-.07
.44
-1.342
.44
-.518
.44
.989
.441
-.777
.44
.47
.44
.165
.44
.353
.44
-.988
.44
1.365
.441
-.918
.44
-.259
.44
-.235
.44
-.848
.44
-.494
.44
.847
.441
-1.789
.44
-.753
.44
-.33
.44
-1.883
.44
.942
.441
.423
.44
.919
.44
1.412
.44
1.789
.44
1.318
.44
2.119
.441
-.377
.44
.094
.44
.189
.44
-.165
.44
-1.154
.44
-.47
.441
-1.672
.44
.142
.44
.07
.44
-.212
.44
-.259
.44
.918
.441
-.047
.44
-.164
h.44
l.44
-.495
.44
-.659
.441
.848
.44
-.189
.44
-.447
.44
.918
.44
.447
.44
-.753
.441
.188
.44
-.4
.44
-.07
.44
-.942
.44
.306
.44
-.895
.441
1.201
.44
.471
.44
-1.46
.44
.589
.44
1.954
.44
-.871
.441
-1.672
.44
-.706
.44
.4
.44
1.86
h.44
l.441
-.683
.44
1.083
.44
1.954
.44
-.847
.44
-1.319
.44
-1.036
.441
-.564
.44
-1.79
.44
-1.506
.44
.353
.44
.918
.44
1.036
.441
.353
.44
.424
.44
1.483
.44
1.318
.44
-.777
.44
-.259
.441
-4.19
.44
-1.295
.44
-1.459
.44
-2.095
.44
-1.813
h.44
l.441
-1.977
.44
4.378
.44
.212
.44
.942
.44
1.224
.441
1.883
.44
-.942
.44
2.543
.44
-1.083
h.44
l.44
-.777
.441
-.306
.44
-1.766
.44
1.484
.44
.47
.44
-1.412
.44
.377
.441
-.142
.44
.165
.44
1.036
.44
-.824
.44
-.565
.44
.306
.441
.494
.44
.33
.44
-.424
.44
-.447
.44
-1.813
.441
-.965
.44
1.86
.44
-.165
.44
.353
.44
1.978
.44
-1.837
.441
1.86
.44
.73
.44
-.589
.44
-1.459
.44
.023
.44
-.047
.441
3.013
.44
1.13
.44
-.753
h.44
l.44
1.295
.44
.683
.441
.094
.44
.235
.44
-2.283" aria-label="line"/>
</svg>
