<svg class="plot-d6a7b5" fill="currentColor" font-family="system-ui, sans-serif" font-size="10" text-anchor="middle" width="830" height="470" viewBox="0 0 830 470" xmlns="http://www.w3.org/2000/svg" xmlns:xlink="http://www.w3.org/1999/xlink" color="#1e90ff"><style>:where(.plot-d6a7b5){--plot-background: white;display:block;height:intrinsic;max-width:100%}:where(.plot-d6a7b5 text),:where(.plot-d6a7b5 tspan){white-space:pre}</style><g aria-label="y-grid" stroke="currentColor" stroke-opacity=".1"><line x1="60" x2="770" y1="410" y2="410"/><line x1="60" x2="770" y1="375.56" y2="375.56"/><line x1="60" x2="770" y1="341.121" y2="341.121"/><line x1="60" x2="770" y1="306.681" y2="306.681"/><line x1="60" x2="770" y1="272.241" y2="272.241"/><line x1="60" x2="770" y1="237.802" y2="237.802"/><line x1="60" x2="770" y1="203.362" y2="203.362"/><line x1="60" x2="770" y1="168.922" y2="168.922"/><line x1="60" x2="770" y1="134.483" y2="134.483"/><line x1="60" x2="770" y1="100.043" y2="100.043"/><line x1="60" x2="770" y1="65.603" y2="65.603"/></g><g aria-label="y-axis tick" fill="none" stroke="currentColor"><path transform="translate(60,410)" d="M0,0L-6,0"/><path transform="translate(60,375.56033337597285)" d="M0,0L-6,0"/><path transform="translate(60,341.12066675194586)" d="M0,0L-6,0"/><path transform="translate(60,306.68100012791876)" d="M0,0L-6,0"/><path transform="translate(60,272.24133350389167)" d="M0,0L-6,0"/><path transform="translate(60,237.8016668798646)" d="M0,0L-6,0"/><path transform="translate(60,203.36200025583753)" d="M0,0L-6,0"/><path transform="translate(60,168.92233363181043)" d="M0,0L-6,0"/><path transform="translate(60,134.48266700778336)" d="M0,0L-6,0"/><path transform="translate(60,100.04300038375627)" d="M0,0L-6,0"/><path transform="translate(60,65.60333375972921)" d="M0,0L-6,0"/></g><g aria-label="y-axis tick label" text-anchor="end" font-variant="tabular-nums"><text y=".32em" transform="translate(-9,0) translate(60,410)">0</text><text y=".32em" transform="translate(-9,0) translate(60,375.56033337597285)">50,000</text><text y=".32em" transform="translate(-9,0) translate(60,341.12066675194586)">100,000</text><text y=".32em" transform="translate(-9,0) translate(60,306.68100012791876)">150,000</text><text y=".32em" transform="translate(-9,0) translate(60,272.24133350389167)">200,000</text><text y=".32em" transform="translate(-9,0) translate(60,237.8016668798646)">250,000</text><text y=".32em" transform="translate(-9,0) translate(60,203.36200025583753)">300,000</text><text y=".32em" transform="translate(-9,0) translate(60,168.92233363181043)">350,000</text><text y=".32em" transform="translate(-9,0) translate(60,134.48266700778336)">400,000</text><text y=".32em" transform="translate(-9,0) translate(60,100.04300038375627)">450,000</text><text y=".32em" transform="translate(-9,0) translate(60,65.60333375972921)">500,000</text></g><g aria-label="y-axis label" text-anchor="start"><text y=".71em" transform="translate(-57,-57) translate(60,60)">↑ Total Vestiges</text></g><g aria-label="x-axis tick" fill="none" stroke="currentColor"><path transform="translate(65.35175879396985,410)" d="M0,0L0,6"/><path transform="translate(120.65326633165827,410)" d="M0,0L0,6"/><path transform="translate(174.1708542713568,410)" d="M0,0L0,6"/><path transform="translate(229.47236180904522,410)" d="M0,0L0,6"/><path transform="translate(282.98994974874375,410)" d="M0,0L0,6"/><path transform="translate(338.29145728643215,410)" d="M0,0L0,6"/><path transform="translate(393.5929648241206,410)" d="M0,0L0,6"/><path transform="translate(447.11055276381904,410)" d="M0,0L0,6"/><path transform="translate(502.41206030150755,410)" d="M0,0L0,6"/><path transform="translate(555.929648241206,410)" d="M0,0L0,6"/><path transform="translate(611.2311557788945,410)" d="M0,0L0,6"/><path transform="translate(666.5326633165829,410)" d="M0,0L0,6"/><path transform="translate(718.2663316582914,410)" d="M0,0L0,6"/></g><g aria-label="x-axis tick label" font-variant="tabular-nums"><text transform="translate(0,9) translate(65.35175879396985,410)"><tspan x="0" y=".71em">Mar</tspan><tspan x="0" dy="1em">2023</tspan></text><text y=".71em" transform="translate(0,9) translate(120.65326633165827,410)">Apr</text><text y=".71em" transform="translate(0,9) translate(174.1708542713568,410)">May</text><text y=".71em" transform="translate(0,9) translate(229.47236180904522,410)">Jun</text><text y=".71em" transform="translate(0,9) translate(282.98994974874375,410)">Jul</text><text y=".71em" transform="translate(0,9) translate(338.29145728643215,410)">Aug</text><text y=".71em" transform="translate(0,9) translate(393.5929648241206,410)">Sep</text><text y=".71em" transform="translate(0,9) translate(447.11055276381904,410)">Oct</text><text y=".71em" transform="translate(0,9) translate(502.41206030150755,410)">Nov</text><text y=".71em" transform="translate(0,9) translate(555.929648241206,410)">Dec</text><text transform="translate(0,9) translate(611.2311557788945,410)"><tspan x="0" y=".71em">Jan</tspan><tspan x="0" dy="1em">2024</tspan></text><text y=".71em" transform="translate(0,9) translate(666.5326633165829,410)">Feb</text><text y=".71em" transform="translate(0,9) translate(718.2663316582914,410)">Mar</text></g><g aria-label="line" fill="none" stroke="currentColor" stroke-width="1.5" stroke-linejoin="round" stroke-linecap="round"><path d="M60,410L61.189,409.654L62.379,408.39L63.568,407.708L64.757,407.224L65.946,406.427L67.136,405.798L68.325,405.209L69.514,404.018L70.704,403.075L71.893,401.956L73.082,400.222L74.271,398.587L75.461,397.739L76.65,396.511L77.839,395.677L79.028,394.72L80.218,393.47L81.407,392.629L82.596,391.803L83.786,390.683L84.975,389.442L86.164,388.562L87.353,387.061L88.543,386.35L89.732,385.687L90.921,384.491L92.111,383.345L93.3,382.463L94.489,381.235L95.678,380.009L96.868,378.893L98.057,377.164L99.246,375.792L100.436,374.997L101.625,374.169L102.814,373.546L104.003,373.042L105.193,372.108L106.382,371.195L107.571,370.558L108.76,369.084L109.95,367.544L111.139,366.164L112.328,364.491L113.518,363.358L114.707,362.392L115.896,361.076L117.085,359.976L118.275,359.179L119.464,357.743L120.653,356.355L121.843,355.06L123.032,353.204L124.221,351.442L125.41,350.525L126.6,349.164L127.789,347.937L128.978,346.837L130.168,345.28L131.357,343.817L132.546,342.546L133.735,341.018L134.925,339.554L136.114,338.292L137.303,336.596L138.492,335.552L139.682,334.611L140.871,333.297L142.06,332.222L143.25,331.418L144.439,330.382L145.628,329.264L146.817,328.222L148.007,326.855L149.196,325.5L150.385,324.728L151.575,323.656L152.764,322.819L153.953,322.269L155.142,321.417L156.332,320.569L157.521,319.669L158.71,318.503L159.899,317.319L161.089,316.394L162.278,315.113L163.467,314.213L164.657,313.625L165.846,312.276L167.035,311.343L168.224,310.839L169.414,309.993L170.603,309.179L171.792,308.33L172.982,307.165L174.171,306.151L175.36,305.277L176.549,304.518L177.739,303.845L178.928,303.2L180.117,302.142L181.307,301.539L182.496,300.927L183.685,299.933L184.874,298.806L186.064,297.922L187.253,296.786L188.442,296.02L189.631,295.308L190.821,294.277L192.01,293.572L193.199,292.9L194.389,292.004L195.578,291.302L196.767,290.455L197.956,289.558L199.146,288.743L200.335,288.068L201.524,287.36L202.714,286.742L203.903,286.16L205.092,285.341L206.281,284.717L207.471,284.154L208.66,283.226L209.849,282.019L211.039,281.138L212.228,279.993L213.417,279.308L214.606,278.522L215.796,277.71L216.985,276.969L218.174,276.448L219.363,275.416L220.553,274.605L221.742,273.753L222.931,272.516L224.121,271.606L225.31,270.809L226.499,269.996L227.688,269.108L228.878,268.421L230.067,267.748L231.256,266.858L232.446,266.333L233.635,265.636L234.824,265.007L236.013,264.416L237.203,263.583L238.392,262.982L239.581,262.355L240.771,261.515L241.96,260.916L243.149,260.361L244.338,259.761L245.528,259.054L246.717,258.39L247.906,257.697L249.095,256.946L250.285,256.356L251.474,255.635L252.663,255.028L253.853,254.424L255.042,253.587L256.231,252.891L257.42,252.341L258.61,251.62L259.799,250.934L260.988,250.438L262.178,249.586L263.367,248.935L264.556,248.265L265.745,247.521L266.935,246.887L268.124,246.51L269.313,245.819L270.503,245.256L271.692,244.585L272.881,243.787L274.07,243.156L275.26,242.46L276.449,241.695L277.638,240.998L278.827,240.386L280.017,239.389L281.206,238.578L282.395,238.111L283.585,237.365L284.774,236.7L285.963,236.301L287.152,235.593L288.342,235.135L289.531,234.592L290.72,233.931L291.91,233.316L293.099,232.829L294.288,232.059L295.477,231.494L296.667,230.984L297.856,230.268L299.045,229.624L300.235,229.117L301.424,228.34L302.613,227.845L303.802,227.283L304.992,226.57L306.181,225.991L307.37,225.333L308.559,224.58L309.749,223.921L310.938,223.36L312.127,222.717L313.317,221.961L314.506,221.369L315.695,220.814L316.884,220.227L318.074,219.78L319.263,219.014L320.452,218.535L321.642,217.993L322.831,217.312L324.02,216.77L325.209,216.112L326.399,215.235L327.588,214.575L328.777,214.186L329.966,213.29L331.156,212.632L332.345,212.046L333.534,211.229L334.724,210.676L335.913,210.083L337.102,209.399L338.291,208.706L339.481,208.107L340.67,207.221L341.859,206.539L343.049,205.939L344.238,205.211L345.427,204.409L346.616,203.589L347.806,202.383L348.995,201.647L350.184,201.092L351.374,200.34L352.563,199.736L353.752,199.298L354.941,198.616L356.131,198.014L357.32,197.592L358.509,196.905L359.698,196.278L360.888,195.825L362.077,195.098L363.266,194.419L364.456,193.902L365.645,193.222L366.834,192.372L368.023,191.655L369.213,190.761L370.402,190.128L371.591,189.517L372.781,188.611L373.97,187.932L375.159,187.302L376.348,186.545L377.538,185.918L378.727,185.499L379.916,184.893L381.106,184.435L382.295,183.933L383.484,183.324L384.673,182.712L385.863,182.146L387.052,181.581L388.241,180.998L389.43,180.503L390.62,179.954L391.809,179.411L392.998,178.951L394.188,178.421L395.377,177.875L396.566,177.285L397.755,176.578L398.945,176.074L400.134,175.529L401.323,174.958L402.513,174.539L403.702,174.09L404.891,173.622L406.08,173.335L407.27,172.984L408.459,172.182L409.648,171.627L410.838,171.106L412.027,170.4L413.216,170.105L414.405,169.71L415.595,169.337L416.784,169.039L417.973,168.59L419.162,168.131L420.352,167.605L421.541,167.052L422.73,166.171L423.92,165.423L425.109,165.021L426.298,164.48L427.487,164.107L428.677,163.658L429.866,163.141L431.055,162.676L432.245,162.307L433.434,161.741L434.623,161.119L435.812,160.659L437.002,160.033L438.191,159.715L439.38,159.401L440.57,158.982L441.759,158.587L442.948,158.235L444.137,157.663L445.327,157.185L446.516,156.698L447.705,156.038L448.894,155.545L450.084,155.283L451.273,154.797L452.462,154.44L453.652,154.119L454.841,153.714L456.03,153.316L457.219,152.859L458.409,152.258L459.598,151.614L460.787,150.969L461.977,150.297L463.166,149.813L464.355,149.444L465.544,148.986L466.734,148.603L467.923,148.189L469.112,147.632L470.302,147.259L471.491,146.909L472.68,146.131L473.869,145.465L475.059,145.056L476.248,144.633L477.437,144.329L478.626,144.089L479.816,143.583L481.005,143.248L482.194,142.913L483.384,142.264L484.573,141.565L485.762,141.04L486.951,140.328L488.141,139.952L489.33,139.606L490.519,139.011L491.709,138.627L492.898,138.261L494.087,137.741L495.276,137.185L496.466,136.83L497.655,136.241L498.844,135.863L500.034,135.619L501.223,135.096L502.412,134.744L503.601,134.531L504.791,134.209L505.98,133.879L507.169,133.328L508.358,132.677L509.548,132.024L510.737,131.588L511.926,131.159L513.116,130.909L514.305,130.532L515.494,130.09L516.683,129.846L517.873,129.591L519.062,129.154L520.251,128.888L521.441,128.52L522.63,128.118L523.819,127.757L525.008,127.522L526.198,127.198L527.387,127.021L528.576,126.779L529.765,126.45L530.955,126.228L532.144,126.079L533.333,125.562L534.523,125.054L535.712,124.556L536.901,124.061L538.09,123.682L539.28,123.448L540.469,123.065L541.658,122.828L542.848,122.496L544.037,122.01L545.226,121.615L546.415,121.267L547.605,120.749L548.794,120.38L549.983,120.024L551.173,119.603L552.362,119.258L553.551,118.867L554.74,118.29L555.93,117.947L557.119,117.624L558.308,117.287L559.497,116.898L560.687,116.514L561.876,116.091L563.065,115.847L564.255,115.694L565.444,115.332L566.633,115.029L567.822,114.795L569.012,114.512L570.201,114.245L571.39,114.034L572.58,113.703L573.769,113.399L574.958,113.229L576.147,112.837L577.337,112.466L578.526,112.306L579.715,112.073L580.905,111.891L582.094,111.689L583.283,111.305L584.472,110.919L585.662,110.638L586.851,110.375L588.04,110.104L589.229,109.764L590.419,109.497L591.608,109.305L592.797,109.077L593.987,108.698L595.176,108.462L596.365,108.175L597.554,107.695L598.744,107.307L599.933,107.108L601.122,106.797L602.312,106.392L603.501,106.072L604.69,105.659L605.879,105.345L607.069,104.992L608.258,104.578L609.447,104.258L610.637,103.959L611.826,103.579L613.015,103.253L614.204,102.957L615.394,102.492L616.583,102.213L617.772,101.998L618.961,101.548L620.151,101.389L621.34,101.117L622.529,100.677L623.719,100.449L624.908,100.184L626.097,99.854L627.286,99.655L628.476,99.45L629.665,99.243L630.854,99.092L632.044,98.811L633.233,98.426L634.422,98.072L635.611,97.639L636.801,97.123L637.99,96.887L639.179,96.607L640.369,96.337L641.558,95.963L642.747,95.546L643.936,95.234L645.126,95.009L646.315,94.642L647.504,94.202L648.693,93.586L649.883,93.204L651.072,92.735L652.261,92.464L653.451,92.216L654.64,91.881L655.829,91.738L657.018,91.527L658.208,90.995L659.397,90.41L660.586,89.982L661.776,89.385L662.965,89.054L664.154,88.772L665.343,88.433L666.533,88.099L667.722,87.816L668.911,87.369L670.101,87.103L671.29,86.659L672.479,85.997L673.668,85.533L674.858,85.197L676.047,84.699L677.236,84.368L678.425,84.126L679.615,83.614L680.804,83.202L681.993,82.743L683.183,82.29L684.372,81.762L685.561,81.059L686.75,80.295L687.94,79.878L689.129,79.444L690.318,78.811L691.508,78.38L692.697,78.059L693.886,77.644L695.075,77.293L696.265,76.939L697.454,76.373L698.643,75.877L699.832,75.672L701.022,75.23L702.211,74.851L703.4,74.414L704.59,73.983L705.779,73.726L706.968,73.347L708.157,72.781L709.347,72.259L710.536,71.911L711.725,71.376L712.915,71.108L714.104,70.765L715.293,70.378L716.482,70.126L717.672,69.827L718.861,69.43L720.05,69.115L721.24,68.797L722.429,68.207L723.618,67.878L724.807,67.597L725.997,67.345L727.186,67.109L728.375,66.796L729.564,66.504L730.754,66.325L731.943,66.103L733.132,65.627L734.322,65.329L735.511,65.103L736.7,64.659L737.889,64.349L739.079,64.218L740.268,63.952L741.457,63.597L742.647,63.331L743.836,62.969L745.025,62.575L746.214,62.199L747.404,61.617L748.593,61.214L749.782,60.955L750.972,60.909L752.161,60.903L753.35,60.9L754.539,60.897L755.729,60.892L756.918,60.886L758.107,60.879L759.296,60.848L760.486,60.824L761.675,60.81L762.864,60.773L764.054,60.712L765.243,60.669L766.432,60.614L767.621,60.506L768.811,60.362L770,60"/></g></svg>