<svg class="plot-d6a7b5" fill="currentColor" font-family="system-ui, sans-serif" font-size="10" text-anchor="middle" width="830" height="470" viewBox="0 0 830 470" xmlns="http://www.w3.org/2000/svg" xmlns:xlink="http://www.w3.org/1999/xlink" color="#1e90ff"><style>:where(.plot-d6a7b5){--plot-background: white;display:block;height:intrinsic;max-width:100%}:where(.plot-d6a7b5 text),:where(.plot-d6a7b5 tspan){white-space:pre}</style><g aria-label="y-grid" stroke="currentColor" stroke-opacity=".1"><line x1="60" x2="770" y1="410" y2="410"/><line x1="60" x2="770" y1="378.557" y2="378.557"/><line x1="60" x2="770" y1="347.114" y2="347.114"/><line x1="60" x2="770" y1="315.671" y2="315.671"/><line x1="60" x2="770" y1="284.227" y2="284.227"/><line x1="60" x2="770" y1="252.784" y2="252.784"/><line x1="60" x2="770" y1="221.341" y2="221.341"/><line x1="60" x2="770" y1="189.898" y2="189.898"/><line x1="60" x2="770" y1="158.455" y2="158.455"/><line x1="60" x2="770" y1="127.012" y2="127.012"/><line x1="60" x2="770" y1="95.568" y2="95.568"/><line x1="60" x2="770" y1="64.125" y2="64.125"/></g><g aria-label="y-axis tick" fill="none" stroke="currentColor"><path transform="translate(60,410)" d="M0,0L-6,0"/><path transform="translate(60,378.55684921661634)" d="M0,0L-6,0"/><path transform="translate(60,347.11369843323274)" d="M0,0L-6,0"/><path transform="translate(60,315.6705476498491)" d="M0,0L-6,0"/><path transform="translate(60,284.2273968664655)" d="M0,0L-6,0"/><path transform="translate(60,252.7842460830818)" d="M0,0L-6,0"/><path transform="translate(60,221.34109529969817)" d="M0,0L-6,0"/><path transform="translate(60,189.8979445163145)" d="M0,0L-6,0"/><path transform="translate(60,158.45479373293085)" d="M0,0L-6,0"/><path transform="translate(60,127.01164294954722)" d="M0,0L-6,0"/><path transform="translate(60,95.56849216616357)" d="M0,0L-6,0"/><path transform="translate(60,64.12534138277994)" d="M0,0L-6,0"/></g><g aria-label="y-axis tick label" text-anchor="end" font-variant="tabular-nums"><text y=".32em" transform="translate(-9,0) translate(60,410)">0</text><text y=".32em" transform="translate(-9,0) translate(60,378.55684921661634)">5,000</text><text y=".32em" transform="translate(-9,0) translate(60,347.11369843323274)">10,000</text><text y=".32em" transform="translate(-9,0) translate(60,315.6705476498491)">15,000</text><text y=".32em" transform="translate(-9,0) translate(60,284.2273968664655)">20,000</text><text y=".32em" transform="translate(-9,0) translate(60,252.7842460830818)">25,000</text><text y=".32em" transform="translate(-9,0) translate(60,221.34109529969817)">30,000</text><text y=".32em" transform="translate(-9,0) translate(60,189.8979445163145)">35,000</text><text y=".32em" transform="translate(-9,0) translate(60,158.45479373293085)">40,000</text><text y=".32em" transform="translate(-9,0) translate(60,127.01164294954722)">45,000</text><text y=".32em" transform="translate(-9,0) translate(60,95.56849216616357)">50,000</text><text y=".32em" transform="translate(-9,0) translate(60,64.12534138277994)">55,000</text></g><g aria-label="y-axis label" text-anchor="start"><text y=".71em" transform="translate(-57,-57) translate(60,60)">↑ Visible Vestiges (30 days)</text></g><g aria-label="x-axis tick" fill="none" stroke="currentColor"><path transform="translate(110.71428571428572,410)" d="M0,0L0,6"/><path transform="translate(246.4495798319328,410)" d="M0,0L0,6"/><path transform="translate(383.67647058823525,410)" d="M0,0L0,6"/><path transform="translate(520.9033613445379,410)" d="M0,0L0,6"/><path transform="translate(656.6386554621849,410)" d="M0,0L0,6"/></g><g aria-label="x-axis tick label" font-variant="tabular-nums"><text transform="translate(0,9) translate(110.71428571428572,410)"><tspan x="0" y=".71em">Apr</tspan><tspan x="0" dy="1em">2023</tspan></text><text y=".71em" transform="translate(0,9) translate(246.4495798319328,410)">Jul</text><text y=".71em" transform="translate(0,9) translate(383.67647058823525,410)">Oct</text><text transform="translate(0,9) translate(520.9033613445379,410)"><tspan x="0" y=".71em">Jan</tspan><tspan x="0" dy="1em">2024</tspan></text><text y=".71em" transform="translate(0,9) translate(656.6386554621849,410)">Apr</text></g><g aria-label="line" fill="none" stroke="currentColor" stroke-width="1.5" stroke-linejoin="round" stroke-linecap="round"><path d="M60,410L60.994,406.843L61.989,395.297L62.983,389.071L63.978,384.657L64.972,377.375L65.966,371.639L66.961,366.263L67.955,355.383L68.95,346.774L69.944,336.555L70.938,320.727L71.933,305.804L72.927,298.056L73.922,286.843L74.916,279.228L75.91,270.499L76.905,259.085L77.899,251.401L78.894,243.867L79.888,233.642L80.882,222.303L81.877,214.273L82.871,200.57L83.866,194.08L84.86,188.024L85.854,177.101L86.849,166.643L87.843,158.593L88.838,147.374L89.832,139.344L90.826,140.702L91.821,131.137L92.815,123.025L93.81,123.05L94.804,121.226L95.798,120.912L96.793,127.194L97.787,127.276L98.782,129.156L99.776,139.168L100.77,140.639L101.765,134.325L102.759,132.936L103.754,125.282L104.748,123.66L105.742,126.257L106.737,121.93L107.731,119.415L108.725,122.364L109.72,120.597L110.714,115.956L111.709,117.837L112.703,107.379L113.697,97.342L114.692,99.895L115.686,97.933L116.681,94.776L117.675,95.952L118.669,92.921L119.664,89.752L120.658,93.94L121.653,92.519L122.647,86.406L123.641,82.45L124.636,72.653L125.63,67.722L126.625,67.653L127.619,64L128.613,60L129.608,66.113L130.602,70.716L131.597,73.112L132.591,78.866L133.585,76.734L134.58,73.181L135.574,78.143L136.569,78.407L137.563,78.042L138.557,86.123L139.552,91.016L140.546,95.097L141.541,103.825L142.535,109.278L143.529,106.831L144.524,110.806L145.518,110.315L146.513,112.145L147.507,121L148.501,122.037L149.496,125.125L150.49,134.464L151.485,140.117L152.479,144.192L153.473,151.933L154.468,150.82L155.462,150.16L156.457,154.179L157.451,157.065L158.445,158.254L159.44,161.825L160.434,162.373L161.429,166.385L162.423,173.277L163.417,176.572L164.412,173.334L165.406,175.05L166.401,172.315L167.395,170.347L168.389,171.629L169.384,169.957L170.378,171.736L171.373,176.245L172.367,178.874L173.361,180.918L174.356,184.88L175.35,184.898L176.345,182.823L177.339,188.98L178.333,191.036L179.328,190.005L180.322,192.407L181.317,192.363L182.311,194.413L183.305,199.916L184.3,200.696L185.294,197.652L186.289,196.545L187.283,192.237L188.277,191.866L189.272,194.35L190.266,192.445L191.261,191.269L192.255,195.589L193.249,196.451L194.244,197.117L195.238,199.714L196.232,195.413L197.227,193.596L198.221,195.74L199.216,194.753L200.21,192.778L201.204,194.69L202.199,194.948L203.193,194.558L204.188,197.96L205.182,199.035L206.176,199.457L207.171,200.519L208.165,198.557L209.16,198.381L210.154,200.142L211.148,198.174L212.143,197.834L213.137,201.249L214.132,206.789L215.126,208.374L216.12,212.77L217.115,212.701L218.109,213.015L219.104,215.04L220.098,215.216L221.092,214.43L222.087,218.348L223.081,218.109L224.076,219.53L225.07,225.806L226.064,227.529L227.059,228.535L228.053,231.434L229.048,231.761L230.042,232.101L231.036,232.126L232.031,233.453L233.025,232.459L234.02,235.384L235.014,234.818L236.008,235.069L237.003,236.547L237.997,234.755L238.992,234.711L239.986,236.025L240.98,234.516L241.975,233.214L242.969,233.107L243.964,230.453L244.958,229.114L245.952,231.177L246.947,231.227L247.941,230.541L248.936,233.484L249.93,232.56L250.924,233.893L251.919,236.572L252.913,236.899L253.908,236.295L254.902,238.44L255.896,237.673L256.891,237.05L257.885,240.169L258.88,239.566L259.874,239.805L260.868,241.974L261.863,240.666L262.857,239.591L263.852,240.767L264.846,239.402L265.84,240.238L266.835,241.515L267.829,240.408L268.824,240.742L269.818,242.609L270.812,243.1L271.807,241.779L272.801,245.483L273.796,247.816L274.79,246.722L275.784,249.451L276.779,248.527L277.773,247.797L278.768,249.313L279.762,247.275L280.756,247.288L281.751,247.307L282.745,244.93L283.739,243.345L284.734,246.823L285.728,243.798L286.723,242.446L287.717,243.641L288.711,242.056L289.706,241.641L290.7,243.32L291.695,241.59L292.689,240.389L293.683,241.433L294.678,238.635L295.672,238.415L296.667,239.805L297.661,239.176L298.655,236.975L299.65,235.365L300.644,231.258L301.639,229.938L302.633,229.938L303.627,228.435L304.622,227.001L305.616,229.994L306.611,228.139L307.605,227.592L308.599,229.957L309.594,228.63L310.588,228.925L311.583,232.78L312.577,232.176L313.571,229.529L314.566,232.988L315.56,232.793L316.555,230.378L317.549,231.296L318.543,228.177L319.538,227.812L320.532,228.472L321.527,226.542L322.521,225.806L323.515,228.139L324.51,227.454L325.504,227.215L326.499,230.032L327.493,231.818L328.487,235.126L329.482,241.546L330.476,242.71L331.471,242.194L332.465,243.892L333.459,244.244L334.454,242.917L335.448,244.634L336.443,245.118L337.437,244.005L338.431,246.087L339.426,246.961L340.42,246.118L341.415,247.37L342.409,247.118L343.403,247.231L344.398,248.464L345.392,251.011L346.387,253.734L347.381,257.796L348.375,259.299L349.37,262.268L350.364,267.324L351.359,266.204L352.353,266.89L353.347,269.047L354.342,268.323L355.336,269.455L356.331,271.38L357.325,272.153L358.319,274.027L359.314,275.48L360.308,276.876L361.303,277.234L362.297,277.354L363.291,274.631L364.286,272.317L365.28,273.662L366.275,273.681L367.269,274.474L368.263,275.216L369.258,275.48L370.252,276.624L371.246,279.706L372.241,279.14L373.235,278.436L374.23,279.448L375.224,277.555L376.218,278.75L377.213,280.165L378.207,278.958L379.202,278.555L380.196,282.662L381.19,282.504L382.185,282.9L383.179,284.894L384.174,281.574L385.168,280.674L386.162,281.687L387.157,279.97L388.151,280.813L389.146,282.07L390.14,283.177L391.134,284.592L392.129,288.466L393.123,289.805L394.118,287.598L395.112,286.649L396.106,283.919L397.101,283.599L398.095,284.951L399.09,285.007L400.084,284.881L401.078,286.271L402.073,286.869L403.067,287.661L404.062,290.183L405.056,285.982L406.05,282.768L407.045,282.85L408.039,282.599L409.034,283.039L410.028,286.076L411.022,285.812L412.017,287.202L413.011,290.17L414.006,288.749L415,284.756L415.994,284.397L416.989,281.165L417.983,280.655L418.978,281.196L419.972,279.398L420.966,280.064L421.961,282.215L422.955,283.334L423.95,284.158L424.944,287.045L425.938,286.089L426.933,286.007L427.927,287.963L428.922,286.68L429.916,287.252L430.91,290.384L431.905,290.849L432.899,291.038L433.894,293.107L434.888,293.245L435.882,291.019L436.877,290.906L437.871,289.755L438.866,289.661L439.86,290.843L440.854,289.868L441.849,290.692L442.843,294.295L443.838,296.691L444.832,299.05L445.826,302.188L446.821,301.955L447.815,301.817L448.81,305.099L449.804,305.653L450.798,307.376L451.793,309.916L452.787,311.985L453.782,313.205L454.776,317.224L455.77,315.954L456.765,313.539L457.759,313.778L458.754,312.463L459.748,310.954L460.742,311.753L461.737,311.269L462.731,314.142L463.725,317.041L464.72,318.576L465.714,318.941L466.709,319.695L467.703,317.243L468.697,317.318L469.692,318.098L470.686,316.488L471.681,315.664L472.675,316.079L473.669,313.243L474.664,313.47L475.658,314.199L476.653,314.413L477.647,313.004L478.641,312.457L479.636,310.212L480.63,310.193L481.625,311.803L482.619,310.52L483.613,309.112L484.608,311.696L485.602,313.759L486.597,315.853L487.591,318.456L488.585,318.89L489.58,318.261L490.574,320.192L491.569,318.777L492.563,318.431L493.557,321.399L494.552,322.89L495.546,324.393L496.541,327.286L497.535,327.141L498.529,326.877L499.524,328.147L500.518,328.896L501.513,329.996L502.507,332.159L503.501,332.857L504.496,334.04L505.49,335.04L506.485,335.14L507.479,336.486L508.473,337.725L509.468,335.574L510.462,333.423L511.457,334.914L512.451,334.838L513.445,333.285L514.44,332.939L515.434,331.612L516.429,330.663L517.423,330.468L518.417,329.462L519.412,328.103L520.406,328.946L521.401,328.858L522.395,327.355L523.389,326.764L524.384,324.185L525.378,323.487L526.373,325.028L527.367,324.443L528.361,325.556L529.356,325.475L530.35,323.928L531.345,324.953L532.339,324.971L533.333,323.72L534.328,323.978L535.322,325.563L536.317,325.833L537.311,327.078L538.305,328.889L539.3,328.921L540.294,327.499L541.289,326.393L542.283,325.374L543.277,326.141L544.272,327.361L545.266,327.757L546.261,327.562L547.255,327.537L548.249,327.606L549.244,328.286L550.238,328.411L551.232,327.361L552.227,324.449L553.221,325.204L554.216,323.462L555.21,322.959L556.204,324.795L557.199,323.198L558.193,324.374L559.188,326.468L560.182,323.689L561.176,320.764L562.171,319.865L563.165,316.243L564.16,315.086L565.154,314.4L566.148,312.677L567.143,312.206L568.137,313.124L569.132,312.287L570.126,313.809L571.12,314.463L572.115,310.577L573.109,308.891L574.104,308.3L575.098,307.168L576.092,307.948L577.087,308.583L578.081,305.967L579.076,305.552L580.07,305.376L581.064,306.866L582.059,305.54L583.053,303.401L584.048,298.892L585.042,297.358L586.036,296.446L587.031,291.975L588.025,289.969L589.02,291.893L590.014,293.447L591.008,294.151L592.003,296.371L592.997,294.22L593.992,292.264L594.986,293.497L595.98,292.503L596.975,291.635L597.969,291.717L598.964,290.214L599.958,291.918L600.952,294.503L601.947,293.579L602.941,291.874L603.936,293.239L604.93,291.384L605.924,291.151L606.919,292.692L607.913,292.918L608.908,294.811L609.902,296.214L610.896,297.408L611.891,300.949L612.885,305.024L613.88,303.445L614.874,304.401L615.868,307.615L616.863,309.244L617.857,310.03L618.852,310.96L619.846,311.501L620.84,313.092L621.835,316.237L622.829,316.425L623.824,315.57L624.818,317.538L625.812,316.947L626.807,318.111L627.801,320.846L628.796,320.771L629.79,320.984L630.784,323.72L631.779,325.179L632.773,324.764L633.768,326.21L634.762,323.349L635.756,322.802L636.751,323.965L637.745,325.846L638.739,328.525L639.734,332.122L640.728,334.97L641.723,337.832L642.717,343.158L643.711,346.101L644.706,348.384L645.7,350.472L646.695,352.49L647.689,355.006L648.683,357.113L649.678,358.358L650.672,359.886L651.667,363.244L652.661,364.653L653.655,363.414L654.65,365.225L655.644,365.961L656.639,365.269L657.633,365.898L658.627,367.08L659.622,366.885L660.616,367.841L661.611,368.652L662.605,369.193L663.599,371.941L664.594,372.507L665.588,372.507L666.583,371.117L667.577,368.545L668.571,365.759L669.566,364.571L670.56,362.785L671.555,360.131L672.549,358.666L673.543,357.352L674.538,355.188L675.532,353.427L676.527,351.006L677.521,349.246L678.515,348.252L679.51,346.655L680.504,345.806L681.499,345.391L682.493,347.504L683.487,348.252L684.482,349.459L685.476,349.755L686.471,349.868L687.465,349.793L688.459,349.396L689.454,349.837L690.448,351.384L691.443,351.623L692.437,352.163L693.431,353.446L694.426,353.905L695.42,353.056L696.415,353.843L697.409,354.094L698.403,353.566L699.398,354.05L700.392,354.698L701.387,353.937L702.381,353.151L703.375,353.975L704.37,353.736L705.364,354.679L706.359,354.717L707.353,352.855L708.347,352.522L709.342,351.22L710.336,351.22L711.331,350.881L712.325,350.239L713.319,349.007L714.314,348.812L715.308,348.101L716.303,347.522L717.297,348.843L718.291,347.705L719.286,346.246L720.28,346.711L721.275,345.56L722.269,345.567L723.263,346.07L724.258,347.617L725.252,347.906L726.246,348.51L727.241,348.132L728.235,345.001L729.23,344.844L730.224,343.743L731.218,344.529L732.213,344.535L733.207,344.755L734.202,343.737L735.196,345.057L736.19,346.227L737.185,346.372L738.179,347.441L739.174,346.019L740.168,343.655L741.162,343.756L742.157,342.46L743.151,342.668L744.146,342.951L745.14,341.85L746.134,340.756L747.129,341.9L748.123,341.517L749.118,340.404L750.112,341.794L751.106,339.548L752.101,339.115L753.095,338.385L754.09,337.266L755.084,336.467L756.078,336.719L757.073,338.09L758.067,337.882L759.062,338.737L760.056,336.605L761.05,334.442L762.045,333.681L763.039,333.952L764.034,331.505L765.028,331.537L766.022,331.719L767.017,331.883L768.011,332.329L769.006,333.901L770,333.449"/></g></svg>