<svg class="plot-d6a7b5" fill="currentColor" font-family="system-ui, sans-serif" font-size="10" text-anchor="middle" width="830" height="470" viewBox="0 0 830 470" xmlns="http://www.w3.org/2000/svg" xmlns:xlink="http://www.w3.org/1999/xlink" color="#1e90ff"><style>:where(.plot-d6a7b5){--plot-background: white;display:block;height:intrinsic;max-width:100%}:where(.plot-d6a7b5 text),:where(.plot-d6a7b5 tspan){white-space:pre}</style><g aria-label="y-grid" stroke="currentColor" stroke-opacity=".1"><line x1="60" x2="770" y1="410" y2="410"/><line x1="60" x2="770" y1="360.939" y2="360.939"/><line x1="60" x2="770" y1="311.878" y2="311.878"/><line x1="60" x2="770" y1="262.817" y2="262.817"/><line x1="60" x2="770" y1="213.757" y2="213.757"/><line x1="60" x2="770" y1="164.696" y2="164.696"/><line x1="60" x2="770" y1="115.635" y2="115.635"/><line x1="60" x2="770" y1="66.574" y2="66.574"/></g><g aria-label="y-axis tick" fill="none" stroke="currentColor"><path transform="translate(60,410)" d="M0,0L-6,0"/><path transform="translate(60,360.9391645640594)" d="M0,0L-6,0"/><path transform="translate(60,311.8783291281189)" d="M0,0L-6,0"/><path transform="translate(60,262.8174936921783)" d="M0,0L-6,0"/><path transform="translate(60,213.7566582562377)" d="M0,0L-6,0"/><path transform="translate(60,164.69582282029717)" d="M0,0L-6,0"/><path transform="translate(60,115.6349873843566)" d="M0,0L-6,0"/><path transform="translate(60,66.57415194841604)" d="M0,0L-6,0"/></g><g aria-label="y-axis tick label" text-anchor="end" font-variant="tabular-nums"><text y=".32em" transform="translate(-9,0) translate(60,410)">0</text><text y=".32em" transform="translate(-9,0) translate(60,360.9391645640594)">1,000</text><text y=".32em" transform="translate(-9,0) translate(60,311.8783291281189)">2,000</text><text y=".32em" transform="translate(-9,0) translate(60,262.8174936921783)">3,000</text><text y=".32em" transform="translate(-9,0) translate(60,213.7566582562377)">4,000</text><text y=".32em" transform="translate(-9,0) translate(60,164.69582282029717)">5,000</text><text y=".32em" transform="translate(-9,0) translate(60,115.6349873843566)">6,000</text><text y=".32em" transform="translate(-9,0) translate(60,66.57415194841604)">7,000</text></g><g aria-label="y-axis label" text-anchor="start"><text y=".71em" transform="translate(-57,-57) translate(60,60)">↑ Visible Vestiges (4 days)</text></g><g aria-label="x-axis tick" fill="none" stroke="currentColor"><path transform="translate(110.15235457063713,410)" d="M0,0L0,6"/><path transform="translate(244.3836565096953,410)" d="M0,0L0,6"/><path transform="translate(380.09002770083106,410)" d="M0,0L0,6"/><path transform="translate(515.7963988919668,410)" d="M0,0L0,6"/><path transform="translate(650.027700831025,410)" d="M0,0L0,6"/></g><g aria-label="x-axis tick label" font-variant="tabular-nums"><text transform="translate(0,9) translate(110.15235457063713,410)"><tspan x="0" y=".71em">Apr</tspan><tspan x="0" dy="1em">2023</tspan></text><text y=".71em" transform="translate(0,9) translate(244.3836565096953,410)">Jul</text><text y=".71em" transform="translate(0,9) translate(380.09002770083106,410)">Oct</text><text transform="translate(0,9) translate(515.7963988919668,410)"><tspan x="0" y=".71em">Jan</tspan><tspan x="0" dy="1em">2024</tspan></text><text y=".71em" transform="translate(0,9) translate(650.027700831025,410)">Apr</text></g><g aria-label="line" fill="none" stroke="currentColor" stroke-width="1.5" stroke-linejoin="round" stroke-linecap="round"><path d="M60,410L60.983,385.371L61.967,295.296L62.95,246.726L63.934,236.913L64.917,270.177L65.9,274.003L66.884,266.497L67.867,238.434L68.85,216.013L69.834,178.237L70.817,139.626L71.801,90.369L72.784,109.65L73.767,145.66L74.751,202.669L75.734,195.015L76.717,193.445L77.701,192.906L78.684,202.227L79.668,211.5L80.651,182.996L81.634,179.12L82.618,151.989L83.601,189.815L84.584,205.22L85.568,226.905L86.551,195.948L87.535,180.395L88.518,178.089L89.501,172.398L90.485,155.718L91.468,120.05L92.452,109.601L93.435,132.463L94.418,196.683L95.402,250.013L96.385,270.765L97.368,263.21L98.352,242.555L99.335,233.038L100.319,194.623L101.302,149.978L102.285,97.041L103.269,82.862L104.252,111.808L105.235,141.343L106.219,166.756L107.202,169.111L108.186,181.131L109.169,172.595L110.152,152.136L111.136,116.665L112.119,86.689L113.102,60L114.086,86.934L115.069,122.258L116.053,160.378L117.036,147.328L118.019,133.297L119.003,116.518L119.986,104.351L120.97,106.461L121.953,106.362L122.936,107.049L123.92,95.029L124.903,125.006L125.886,147.77L126.87,175.048L127.853,172.791L128.837,182.603L129.82,202.375L130.803,199.333L131.787,182.358L132.77,158.759L133.753,141.883L134.737,161.114L135.72,182.161L136.704,219.055L137.687,234.853L138.67,250.503L139.654,249.718L140.637,224.795L141.62,202.473L142.604,178.482L143.587,176.716L144.571,168.474L145.554,188.785L146.537,212.825L147.521,207.967L148.504,205.613L149.488,211.5L150.471,247.412L151.454,255.802L152.438,231.32L153.421,208.507L154.404,194.329L155.388,192.562L156.371,221.508L157.355,245.744L158.338,262.033L159.321,240.74L160.305,245.793L161.288,248.099L162.271,252.662L163.255,215.327L164.238,195.997L165.222,185.841L166.205,211.549L167.188,223.814L168.172,231.32L169.155,235.638L170.139,238.483L171.122,248.05L172.105,248.345L173.089,235.834L174.072,235.785L175.055,227.69L176.039,239.955L177.022,253.496L178.006,267.527L178.989,274.151L179.972,266.154L180.956,265.712L181.939,267.086L182.922,259.334L183.906,217.829L184.889,195.212L185.873,179.757L186.856,216.897L187.839,223.618L188.823,247.412L189.806,243.438L190.789,262.327L191.773,246.578L192.756,241.623L193.74,218.025L194.723,203.454L195.706,196.34L196.69,200.314L197.673,230.486L198.657,232.105L199.64,239.857L200.623,249.865L201.607,249.718L202.59,261.297L203.573,259.579L204.557,278.174L205.54,273.464L206.524,263.799L207.507,265.761L208.49,263.21L209.474,262.719L210.457,262.817L211.44,267.969L212.424,285.042L213.407,277.438L214.391,269.637L215.374,263.014L216.357,259.825L217.341,265.123L218.324,263.063L219.307,273.366L220.291,272.384L221.274,264.191L222.258,257.813L223.241,261.64L224.224,269.833L225.208,270.569L226.191,274.396L227.175,265.123L228.158,267.675L229.141,255.262L230.125,262.916L231.108,264.093L232.091,284.993L233.075,288.82L234.058,293.824L235.042,272.875L236.025,265.271L237.008,260.414L237.992,258.647L238.975,260.953L239.958,256.292L240.942,262.278L241.925,245.744L242.909,237.649L243.892,247.952L244.875,265.859L245.859,276.26L246.842,281.068L247.825,283.766L248.809,298.534L249.792,288.28L250.776,291.665L251.759,280.381L252.742,284.404L253.726,276.604L254.709,280.283L255.693,278.615L256.676,282.442L257.659,276.751L258.643,276.996L259.626,272.679L260.609,283.325L261.593,279.4L262.576,283.963L263.56,277.928L264.543,271.109L265.526,268.263L266.51,262.572L267.493,269.49L268.476,277.29L269.46,270.373L270.443,268.165L271.427,274.445L272.41,286.514L273.393,296.817L274.377,281.804L275.36,289.458L276.343,282.687L277.327,288.771L278.31,284.306L279.294,276.015L280.277,262.082L281.26,253.643L282.244,272.826L283.227,271.452L284.211,271.599L285.194,257.617L286.177,263.161L287.161,270.716L288.144,270.177L289.127,279.694L290.111,269.637L291.094,269.244L292.078,254.87L293.061,255.704L294.044,255.556L295.028,266.791L296.011,258.255L296.994,242.653L297.978,208.605L298.961,213.266L299.945,232.105L300.928,264.486L301.911,273.905L302.895,282.246L303.878,287.152L304.861,287.299L305.845,288.476L306.828,288.133L307.812,286.416L308.795,284.11L309.778,281.313L310.762,277.536L311.745,273.071L312.729,276.407L313.712,264.24L314.695,249.964L315.679,234.706L316.662,250.16L317.645,257.666L318.629,256.881L319.612,253.594L320.596,252.269L321.579,262.817L322.562,266.546L323.546,281.559L324.529,292.303L325.512,304.372L326.496,298.436L327.479,298.239L328.463,287.25L329.446,282.785L330.429,285.876L331.413,287.888L332.396,292.941L333.38,294.118L334.363,296.964L335.346,299.466L336.33,300.791L337.313,300.594L338.296,291.322L339.28,278.762L340.263,281.755L341.247,284.944L342.23,294.609L343.213,300.692L344.197,307.512L345.18,314.822L346.163,324.242L347.147,331.208L348.13,307.463L349.114,288.329L350.097,276.26L351.08,283.08L352.064,301.576L353.047,310.505L354.03,334.25L355.014,334.103L355.997,330.227L356.981,324.094L357.964,307.806L358.947,300.496L359.931,270.373L360.914,254.575L361.898,265.32L362.881,289.556L363.864,316.294L364.848,312.909L365.831,314.626L366.814,308.101L367.798,313.792L368.781,310.308L369.765,299.073L370.748,292.597L371.731,288.329L372.715,309.965L373.698,320.415L374.681,335.182L375.665,329.687L376.648,326.94L377.632,315.999L378.615,310.161L379.598,300.496L380.582,294.315L381.565,293.137L382.548,309.229L383.532,321.592L384.515,331.306L385.499,327.087L386.482,332.827L387.465,329.982L388.449,320.268L389.432,306.285L390.416,288.771L391.399,275.377L392.382,270.373L393.366,281.706L394.349,301.379L395.332,316.588L396.316,323.8L397.299,320.611L398.283,313.595L399.266,314.282L400.249,318.845L401.233,303.047L402.216,282.246L403.199,277.977L404.183,303.293L405.166,329.05L406.15,341.168L407.133,335.231L408.116,332.974L409.1,326.253L410.083,316.049L411.066,290.144L412.05,276.555L413.033,272.139L414.017,295.1L415,307.855L415.983,316.196L416.967,315.656L417.95,314.233L418.934,319.483L419.917,307.316L420.9,308.052L421.884,303.195L422.867,315.803L423.85,323.751L424.834,328.412L425.817,330.325L426.801,332.484L427.784,346.81L428.767,348.38L429.751,324.291L430.734,300.938L431.717,277.83L432.701,286.121L433.684,301.821L434.668,330.571L435.651,334.741L436.634,333.858L437.618,334.299L438.601,342.983L439.584,343.375L440.568,341.756L441.551,333.71L442.535,336.163L443.518,329.442L444.501,338.911L445.485,344.504L446.468,357.603L447.452,357.063L448.435,356.72L449.418,353.531L450.402,360.203L451.385,346.761L452.368,326.351L453.352,301.526L454.335,303.096L455.319,312.32L456.302,331.012L457.285,339.058L458.269,349.165L459.252,342.198L460.235,334.839L461.219,323.555L462.202,322.525L463.186,320.17L464.169,322.083L465.152,321.396L466.136,328.412L467.119,330.08L468.102,327.627L469.086,316.441L470.069,316.588L471.053,321.494L472.036,338.567L473.019,335.28L474.003,330.914L474.986,324.83L475.97,335.133L476.953,351.618L477.936,355.935L478.92,351.765L479.903,345.927L480.886,351.618L481.87,354.12L482.853,355.837L483.837,352.354L484.82,349.802L485.803,352.599L486.787,348.281L487.77,343.523L488.753,344.258L489.737,355.641L490.72,369.034L491.704,366.091L492.687,355.248L493.67,340.775L494.654,335.133L495.637,343.768L496.62,351.961L497.604,347.742L498.587,347.496L499.571,353.04L500.554,361.037L501.537,353.089L502.521,349.999L503.504,345.779L504.488,338.518L505.471,327.725L506.454,334.005L507.438,346.025L508.421,344.847L509.404,336.213L510.388,328.951L511.371,335.378L512.355,333.073L513.338,333.024L514.321,332.631L515.305,336.409L516.288,338.813L517.271,338.42L518.255,338.616L519.238,332.582L520.222,335.918L521.205,341.707L522.188,342.787L523.172,351.274L524.155,347.251L525.139,347.938L526.122,343.032L527.105,343.572L528.089,351.421L529.072,353.433L530.055,357.701L531.039,366.483L532.022,369.966L533.006,364.472L533.989,351.814L534.972,337.292L535.956,326.548L536.939,317.177L537.922,325.615L538.906,336.507L539.889,353.973L540.873,344.16L541.856,334.397L542.839,331.454L543.823,342.051L544.806,345.632L545.789,336.507L546.773,308.689L547.756,307.561L548.74,305.5L549.723,330.08L550.706,339.598L551.69,349.214L552.673,358.29L553.657,360.988L554.64,346.859L555.623,315.411L556.607,299.907L557.59,295.345L558.573,313.399L559.557,323.849L560.54,342.149L561.524,342.002L562.507,341.854L563.49,334.25L564.474,339.058L565.457,327.627L566.44,312.271L567.424,298.141L568.407,305.893L569.391,317.569L570.374,327.038L571.357,333.661L572.341,332.68L573.324,326.94L574.307,311.486L575.291,315.705L576.274,307.463L577.258,290.095L578.241,267.871L579.224,275.77L580.208,294.952L581.191,304.323L582.175,303.342L583.158,311.339L584.141,326.891L585.125,332.533L586.108,330.276L587.091,319.434L588.075,309.131L589.058,319.728L590.042,328.608L591.025,336.948L592.008,320.366L592.992,321.2L593.975,329.835L594.958,334.005L595.942,324.389L596.925,305.549L597.909,307.708L598.892,309.916L599.875,328.019L600.859,328.412L601.842,338.911L602.825,340.039L603.809,343.179L604.792,342.492L605.776,337.979L606.759,336.605L607.742,322.868L608.726,321.887L609.709,324.536L610.693,348.576L611.676,355.248L612.659,352.991L613.643,350.146L614.626,354.169L615.609,360.596L616.593,347.546L617.576,339.058L618.56,338.764L619.543,341.02L620.526,340.186L621.51,347.006L622.493,359.664L623.476,356.426L624.46,346.81L625.443,339.941L626.427,337.194L627.41,329.344L628.393,313.743L629.377,313.105L630.36,321.396L631.343,359.516L632.327,387.825L633.31,406.124L634.294,409.166L635.277,409.215L636.26,408.97L637.244,408.724L638.227,406.86L639.211,405.634L640.194,405.094L641.177,404.652L642.161,401.954L643.144,399.943L644.127,398.667L645.111,395.38L646.094,388.168L647.078,366.287L648.061,356.475L649.044,350.391L650.028,361.479L651.011,364.913L651.994,365.158L652.978,359.418L653.961,355.101L654.945,349.459L655.928,347.349L656.911,345.73L657.895,343.179L658.878,347.251L659.861,353.089L660.845,356.916L661.828,353.482L662.812,358.094L663.795,364.275L664.778,365.06L665.762,362.656L666.745,364.472L667.729,367.072L668.712,364.226L669.695,355.15L670.679,355.592L671.662,359.565L672.645,364.717L673.629,368.544L674.612,365.845L675.596,372.91L676.579,375.559L677.562,382.133L678.546,379.043L679.529,377.522L680.512,367.759L681.496,356.622L682.479,354.856L683.463,361.871L684.446,364.717L685.429,363.883L686.413,359.271L687.396,365.06L688.38,360.056L689.363,360.007L690.346,354.954L691.33,362.068L692.313,365.894L693.296,369.77L694.28,365.551L695.263,357.456L696.247,361.43L697.23,362.656L698.213,367.072L699.197,361.381L700.18,352.697L701.163,347.889L702.147,341.266L703.13,353.089L704.114,360.105L705.097,367.906L706.08,364.864L707.064,362.902L708.047,360.841L709.03,356.18L710.014,356.867L710.997,351.765L711.981,351.912L712.964,348.085L713.947,347.153L714.931,353.973L715.914,360.056L716.898,376.099L717.881,378.258L718.864,373.989L719.848,366.091L720.831,343.228L721.814,341.168L722.798,331.306L723.781,353.776L724.765,359.026L725.748,370.555L726.731,360.89L727.715,365.453L728.698,364.177L729.681,368.445L730.665,359.86L731.648,351.47L732.632,338.911L733.615,339.156L734.598,337.096L735.582,355.199L736.565,354.561L737.548,351.421L738.532,341.953L739.515,343.572L740.499,349.312L741.482,345.338L742.465,346.319L743.449,338.616L744.432,349.999L745.416,349.508L746.399,360.449L747.382,353.335L748.366,353.089L749.349,349.655L750.332,352.206L751.316,347.055L752.299,342.198L753.283,332.19L754.266,331.11L755.249,340.186L756.233,342.541L757.216,347.447L758.199,351.029L759.183,362.803L760.166,357.652L761.15,355.935L762.133,351.372L763.116,354.561L764.1,353.678L765.083,351.716L766.066,363.098L767.05,372.223L768.033,378.405L769.017,373.008L770,354.414"/></g></svg>