<svg class="plot-d6a7b5" fill="currentColor" font-family="system-ui, sans-serif" font-size="10" text-anchor="middle" width="830" height="470" viewBox="0 0 830 470" xmlns="http://www.w3.org/2000/svg" xmlns:xlink="http://www.w3.org/1999/xlink" color="#1e90ff"><style>:where(.plot-d6a7b5){--plot-background: white;display:block;height:intrinsic;max-width:100%}:where(.plot-d6a7b5 text),:where(.plot-d6a7b5 tspan){white-space:pre}</style><g aria-label="y-grid" stroke="currentColor" stroke-opacity=".1"><line x1="60" x2="770" y1="410" y2="410"/><line x1="60" x2="770" y1="378.557" y2="378.557"/><line x1="60" x2="770" y1="347.114" y2="347.114"/><line x1="60" x2="770" y1="315.671" y2="315.671"/><line x1="60" x2="770" y1="284.227" y2="284.227"/><line x1="60" x2="770" y1="252.784" y2="252.784"/><line x1="60" x2="770" y1="221.341" y2="221.341"/><line x1="60" x2="770" y1="189.898" y2="189.898"/><line x1="60" x2="770" y1="158.455" y2="158.455"/><line x1="60" x2="770" y1="127.012" y2="127.012"/><line x1="60" x2="770" y1="95.568" y2="95.568"/><line x1="60" x2="770" y1="64.125" y2="64.125"/></g><g aria-label="y-axis tick" fill="none" stroke="currentColor"><path transform="translate(60,410)" d="M0,0L-6,0"/><path transform="translate(60,378.55684921661634)" d="M0,0L-6,0"/><path transform="translate(60,347.11369843323274)" d="M0,0L-6,0"/><path transform="translate(60,315.6705476498491)" d="M0,0L-6,0"/><path transform="translate(60,284.2273968664655)" d="M0,0L-6,0"/><path transform="translate(60,252.7842460830818)" d="M0,0L-6,0"/><path transform="translate(60,221.34109529969817)" d="M0,0L-6,0"/><path transform="translate(60,189.8979445163145)" d="M0,0L-6,0"/><path transform="translate(60,158.45479373293085)" d="M0,0L-6,0"/><path transform="translate(60,127.01164294954722)" d="M0,0L-6,0"/><path transform="translate(60,95.56849216616357)" d="M0,0L-6,0"/><path transform="translate(60,64.12534138277994)" d="M0,0L-6,0"/></g><g aria-label="y-axis tick label" text-anchor="end" font-variant="tabular-nums"><text y=".32em" transform="translate(-9,0) translate(60,410)">0</text><text y=".32em" transform="translate(-9,0) translate(60,378.55684921661634)">5,000</text><text y=".32em" transform="translate(-9,0) translate(60,347.11369843323274)">10,000</text><text y=".32em" transform="translate(-9,0) translate(60,315.6705476498491)">15,000</text><text y=".32em" transform="translate(-9,0) translate(60,284.2273968664655)">20,000</text><text y=".32em" transform="translate(-9,0) translate(60,252.7842460830818)">25,000</text><text y=".32em" transform="translate(-9,0) translate(60,221.34109529969817)">30,000</text><text y=".32em" transform="translate(-9,0) translate(60,189.8979445163145)">35,000</text><text y=".32em" transform="translate(-9,0) translate(60,158.45479373293085)">40,000</text><text y=".32em" transform="translate(-9,0) translate(60,127.01164294954722)">45,000</text><text y=".32em" transform="translate(-9,0) translate(60,95.56849216616357)">50,000</text><text y=".32em" transform="translate(-9,0) translate(60,64.12534138277994)">55,000</text></g><g aria-label="y-axis label" text-anchor="start"><text y=".71em" transform="translate(-57,-57) translate(60,60)">↑ Visible Vestiges (30 days)</text></g><g aria-label="x-axis tick" fill="none" stroke="currentColor"><path transform="translate(110.15235457063713,410)" d="M0,0L0,6"/><path transform="translate(244.3836565096953,410)" d="M0,0L0,6"/><path transform="translate(380.09002770083106,410)" d="M0,0L0,6"/><path transform="translate(515.7963988919668,410)" d="M0,0L0,6"/><path transform="translate(650.027700831025,410)" d="M0,0L0,6"/></g><g aria-label="x-axis tick label" font-variant="tabular-nums"><text transform="translate(0,9) translate(110.15235457063713,410)"><tspan x="0" y=".71em">Apr</tspan><tspan x="0" dy="1em">2023</tspan></text><text y=".71em" transform="translate(0,9) translate(244.3836565096953,410)">Jul</text><text y=".71em" transform="translate(0,9) translate(380.09002770083106,410)">Oct</text><text transform="translate(0,9) translate(515.7963988919668,410)"><tspan x="0" y=".71em">Jan</tspan><tspan x="0" dy="1em">2024</tspan></text><text y=".71em" transform="translate(0,9) translate(650.027700831025,410)">Apr</text></g><g aria-label="line" fill="none" stroke="currentColor" stroke-width="1.5" stroke-linejoin="round" stroke-linecap="round"><path d="M60,410L60.983,406.843L61.967,395.297L62.95,389.071L63.934,384.657L64.917,377.375L65.9,371.639L66.884,366.263L67.867,355.383L68.85,346.774L69.834,336.555L70.817,320.727L71.801,305.804L72.784,298.056L73.767,286.843L74.751,279.228L75.734,270.499L76.717,259.085L77.701,251.401L78.684,243.867L79.668,233.642L80.651,222.303L81.634,214.273L82.618,200.57L83.601,194.08L84.584,188.024L85.568,177.101L86.551,166.643L87.535,158.593L88.518,147.374L89.501,139.344L90.485,140.702L91.468,131.137L92.452,123.025L93.435,123.05L94.418,121.226L95.402,120.912L96.385,127.194L97.368,127.276L98.352,129.156L99.335,139.168L100.319,140.639L101.302,134.325L102.285,132.936L103.269,125.282L104.252,123.66L105.235,126.257L106.219,121.93L107.202,119.415L108.186,122.364L109.169,120.597L110.152,115.956L111.136,117.837L112.119,107.379L113.102,97.342L114.086,99.895L115.069,97.933L116.053,94.776L117.036,95.952L118.019,92.921L119.003,89.752L119.986,93.94L120.97,92.519L121.953,86.406L122.936,82.45L123.92,72.653L124.903,67.722L125.886,67.653L126.87,64L127.853,60L128.837,66.113L129.82,70.716L130.803,73.112L131.787,78.866L132.77,76.734L133.753,73.181L134.737,78.143L135.72,78.407L136.704,78.042L137.687,86.123L138.67,91.016L139.654,95.097L140.637,103.825L141.62,109.278L142.604,106.831L143.587,110.806L144.571,110.315L145.554,112.145L146.537,121L147.521,122.037L148.504,125.125L149.488,134.464L150.471,140.117L151.454,144.192L152.438,151.933L153.421,150.82L154.404,150.16L155.388,154.179L156.371,157.065L157.355,158.254L158.338,161.825L159.321,162.373L160.305,166.385L161.288,173.277L162.271,176.572L163.255,173.334L164.238,175.05L165.222,172.315L166.205,170.347L167.188,171.629L168.172,169.957L169.155,171.736L170.139,176.245L171.122,178.874L172.105,180.918L173.089,184.88L174.072,184.898L175.055,182.823L176.039,188.98L177.022,191.036L178.006,190.005L178.989,192.407L179.972,192.363L180.956,194.413L181.939,199.916L182.922,200.696L183.906,197.652L184.889,196.545L185.873,192.237L186.856,191.866L187.839,194.35L188.823,192.445L189.806,191.269L190.789,195.589L191.773,196.451L192.756,197.117L193.74,199.714L194.723,195.413L195.706,193.596L196.69,195.74L197.673,194.753L198.657,192.778L199.64,194.69L200.623,194.948L201.607,194.558L202.59,197.96L203.573,199.035L204.557,199.457L205.54,200.519L206.524,198.557L207.507,198.381L208.49,200.142L209.474,198.174L210.457,197.834L211.44,201.249L212.424,206.789L213.407,208.374L214.391,212.77L215.374,212.701L216.357,213.015L217.341,215.04L218.324,215.216L219.307,214.43L220.291,218.348L221.274,218.109L222.258,219.53L223.241,225.806L224.224,227.529L225.208,228.535L226.191,231.434L227.175,231.761L228.158,232.101L229.141,232.126L230.125,233.453L231.108,232.459L232.091,235.384L233.075,234.818L234.058,235.069L235.042,236.547L236.025,234.755L237.008,234.711L237.992,236.025L238.975,234.516L239.958,233.214L240.942,233.107L241.925,230.453L242.909,229.114L243.892,231.177L244.875,231.227L245.859,230.541L246.842,233.484L247.825,232.56L248.809,233.893L249.792,236.572L250.776,236.899L251.759,236.295L252.742,238.44L253.726,237.673L254.709,237.05L255.693,240.169L256.676,239.566L257.659,239.805L258.643,241.974L259.626,240.666L260.609,239.591L261.593,240.767L262.576,239.402L263.56,240.238L264.543,241.515L265.526,240.408L266.51,240.742L267.493,242.609L268.476,243.1L269.46,241.779L270.443,245.483L271.427,247.816L272.41,246.722L273.393,249.451L274.377,248.527L275.36,247.797L276.343,249.313L277.327,247.275L278.31,247.288L279.294,247.307L280.277,244.93L281.26,243.345L282.244,246.823L283.227,243.798L284.211,242.446L285.194,243.641L286.177,242.056L287.161,241.641L288.144,243.32L289.127,241.59L290.111,240.389L291.094,241.433L292.078,238.635L293.061,238.415L294.044,239.805L295.028,239.176L296.011,236.975L296.994,235.365L297.978,231.258L298.961,229.938L299.945,229.938L300.928,228.435L301.911,227.001L302.895,229.994L303.878,228.139L304.861,227.592L305.845,229.957L306.828,228.63L307.812,228.925L308.795,232.78L309.778,232.176L310.762,229.529L311.745,232.988L312.729,232.793L313.712,230.378L314.695,231.296L315.679,228.177L316.662,227.812L317.645,228.472L318.629,226.542L319.612,225.806L320.596,228.139L321.579,227.454L322.562,227.215L323.546,230.032L324.529,231.818L325.512,235.126L326.496,241.546L327.479,242.71L328.463,242.194L329.446,243.892L330.429,244.244L331.413,242.917L332.396,244.634L333.38,245.118L334.363,244.005L335.346,246.087L336.33,246.961L337.313,246.118L338.296,247.37L339.28,247.118L340.263,247.231L341.247,248.464L342.23,251.011L343.213,253.734L344.197,257.796L345.18,259.299L346.163,262.268L347.147,267.324L348.13,266.204L349.114,266.89L350.097,269.047L351.08,268.323L352.064,269.455L353.047,271.38L354.03,272.153L355.014,274.027L355.997,275.48L356.981,276.876L357.964,277.234L358.947,277.354L359.931,274.631L360.914,272.317L361.898,273.662L362.881,273.681L363.864,274.474L364.848,275.216L365.831,275.48L366.814,276.624L367.798,279.706L368.781,279.14L369.765,278.436L370.748,279.448L371.731,277.555L372.715,278.75L373.698,280.165L374.681,278.958L375.665,278.555L376.648,282.662L377.632,282.504L378.615,282.9L379.598,284.894L380.582,281.574L381.565,280.674L382.548,281.687L383.532,279.97L384.515,280.813L385.499,282.07L386.482,283.177L387.465,284.592L388.449,288.466L389.432,289.805L390.416,287.598L391.399,286.649L392.382,283.919L393.366,283.599L394.349,284.951L395.332,285.007L396.316,284.881L397.299,286.271L398.283,286.869L399.266,287.661L400.249,290.183L401.233,285.982L402.216,282.768L403.199,282.85L404.183,282.599L405.166,283.039L406.15,286.076L407.133,285.812L408.116,287.202L409.1,290.17L410.083,288.749L411.066,284.756L412.05,284.397L413.033,281.165L414.017,280.655L415,281.196L415.983,279.398L416.967,280.064L417.95,282.215L418.934,283.334L419.917,284.158L420.9,287.045L421.884,286.089L422.867,286.007L423.85,287.963L424.834,286.68L425.817,287.252L426.801,290.384L427.784,290.849L428.767,291.038L429.751,293.107L430.734,293.245L431.717,291.019L432.701,290.906L433.684,289.755L434.668,289.661L435.651,290.843L436.634,289.868L437.618,290.692L438.601,294.295L439.584,296.691L440.568,299.05L441.551,302.188L442.535,301.955L443.518,301.817L444.501,305.099L445.485,305.653L446.468,307.376L447.452,309.916L448.435,311.985L449.418,313.205L450.402,317.224L451.385,315.954L452.368,313.539L453.352,313.778L454.335,312.463L455.319,310.954L456.302,311.753L457.285,311.269L458.269,314.142L459.252,317.041L460.235,318.576L461.219,318.941L462.202,319.695L463.186,317.243L464.169,317.318L465.152,318.098L466.136,316.488L467.119,315.664L468.102,316.079L469.086,313.243L470.069,313.47L471.053,314.199L472.036,314.413L473.019,313.004L474.003,312.457L474.986,310.212L475.97,310.193L476.953,311.803L477.936,310.52L478.92,309.112L479.903,311.696L480.886,313.759L481.87,315.853L482.853,318.456L483.837,318.89L484.82,318.261L485.803,320.192L486.787,318.777L487.77,318.431L488.753,321.399L489.737,322.89L490.72,324.393L491.704,327.286L492.687,327.141L493.67,326.877L494.654,328.147L495.637,328.896L496.62,329.996L497.604,332.159L498.587,332.857L499.571,334.04L500.554,335.04L501.537,335.14L502.521,336.486L503.504,337.725L504.488,335.574L505.471,333.423L506.454,334.914L507.438,334.838L508.421,333.285L509.404,332.939L510.388,331.612L511.371,330.663L512.355,330.468L513.338,329.462L514.321,328.103L515.305,328.946L516.288,328.858L517.271,327.355L518.255,326.764L519.238,324.185L520.222,323.487L521.205,325.028L522.188,324.443L523.172,325.556L524.155,325.475L525.139,323.928L526.122,324.953L527.105,324.971L528.089,323.72L529.072,323.978L530.055,325.563L531.039,325.833L532.022,327.078L533.006,328.889L533.989,328.921L534.972,327.499L535.956,326.393L536.939,325.374L537.922,326.141L538.906,327.361L539.889,327.757L540.873,327.562L541.856,327.537L542.839,327.606L543.823,328.286L544.806,328.411L545.789,327.361L546.773,324.449L547.756,325.204L548.74,323.462L549.723,322.959L550.706,324.795L551.69,323.198L552.673,324.374L553.657,326.468L554.64,323.689L555.623,320.764L556.607,319.865L557.59,316.243L558.573,315.086L559.557,314.4L560.54,312.677L561.524,312.206L562.507,313.124L563.49,312.287L564.474,313.809L565.457,314.463L566.44,310.577L567.424,308.891L568.407,308.3L569.391,307.168L570.374,307.948L571.357,308.583L572.341,305.967L573.324,305.552L574.307,305.376L575.291,306.866L576.274,305.54L577.258,303.401L578.241,298.892L579.224,297.358L580.208,296.446L581.191,291.975L582.175,289.969L583.158,291.893L584.141,293.447L585.125,294.151L586.108,296.371L587.091,294.22L588.075,292.264L589.058,293.497L590.042,292.503L591.025,291.635L592.008,291.717L592.992,290.214L593.975,291.918L594.958,294.503L595.942,293.579L596.925,291.874L597.909,293.239L598.892,291.384L599.875,291.151L600.859,292.692L601.842,292.918L602.825,294.811L603.809,296.214L604.792,297.408L605.776,300.949L606.759,305.024L607.742,303.445L608.726,304.401L609.709,307.615L610.693,309.244L611.676,310.03L612.659,310.96L613.643,311.501L614.626,313.092L615.609,316.237L616.593,316.425L617.576,315.57L618.56,317.538L619.543,316.947L620.526,318.111L621.51,320.846L622.493,320.771L623.476,320.984L624.46,323.72L625.443,325.179L626.427,324.764L627.41,326.21L628.393,323.349L629.377,322.802L630.36,323.965L631.343,325.846L632.327,328.525L633.31,332.122L634.294,334.97L635.277,337.832L636.26,343.158L637.244,346.101L638.227,348.384L639.211,350.472L640.194,352.49L641.177,355.006L642.161,357.113L643.144,358.358L644.127,359.886L645.111,363.244L646.094,364.653L647.078,363.414L648.061,365.225L649.044,365.961L650.028,365.269L651.011,365.898L651.994,367.08L652.978,366.885L653.961,367.841L654.945,368.652L655.928,369.193L656.911,371.941L657.895,372.507L658.878,372.507L659.861,371.117L660.845,368.545L661.828,365.759L662.812,364.571L663.795,362.785L664.778,360.131L665.762,358.666L666.745,357.352L667.729,355.188L668.712,353.427L669.695,351.006L670.679,349.246L671.662,348.252L672.645,346.655L673.629,345.806L674.612,345.391L675.596,347.504L676.579,348.252L677.562,349.459L678.546,349.755L679.529,349.868L680.512,349.793L681.496,349.396L682.479,349.837L683.463,351.384L684.446,351.623L685.429,352.163L686.413,353.446L687.396,353.905L688.38,353.056L689.363,353.843L690.346,354.094L691.33,353.566L692.313,354.05L693.296,354.698L694.28,353.937L695.263,353.151L696.247,353.975L697.23,353.736L698.213,354.679L699.197,354.717L700.18,352.855L701.163,352.522L702.147,351.22L703.13,351.22L704.114,350.881L705.097,350.239L706.08,349.007L707.064,348.812L708.047,348.101L709.03,347.522L710.014,348.843L710.997,347.705L711.981,346.246L712.964,346.711L713.947,345.56L714.931,345.567L715.914,346.07L716.898,347.617L717.881,347.906L718.864,348.51L719.848,348.132L720.831,345.001L721.814,344.844L722.798,343.743L723.781,344.529L724.765,344.535L725.748,344.755L726.731,343.737L727.715,345.057L728.698,346.227L729.681,346.372L730.665,347.441L731.648,346.019L732.632,343.655L733.615,343.756L734.598,342.46L735.582,342.668L736.565,342.951L737.548,341.85L738.532,340.756L739.515,341.9L740.499,341.517L741.482,340.404L742.465,341.794L743.449,339.548L744.432,339.115L745.416,338.385L746.399,337.266L747.382,336.467L748.366,336.719L749.349,338.09L750.332,337.882L751.316,338.737L752.299,336.605L753.283,334.442L754.266,333.681L755.249,333.952L756.233,331.505L757.216,331.537L758.199,331.719L759.183,331.883L760.166,332.329L761.15,333.901L762.133,333.449L763.116,334.568L764.1,333.706L765.083,333.084L766.066,336.065L767.05,337.586L768.033,337.549L769.017,339.102L770,338.75"/></g></svg>