<svg xmlns="http://www.w3.org/2000/svg" width="830" height="470" fill="currentColor" class="plot-d6a7b5" font-family="system-ui, sans-serif" font-size="10" style="--plot-background:white;display:block;height:intrinsic;max-width:100%;color:#1e90ff" text-anchor="middle" viewBox="0 0 830 470">
    <style>
        :where(.plot-d6a7b5 text),:where(.plot-d6a7b5 tspan){white-space:pre}
    </style>
    <path stroke="currentColor" stroke-opacity=".1" d="
M60
410
h710
M60
375
h710
M60
340
h710
M60
305
h710
M60
270
h710
M60
235
h710
M60
200
h710
M60
165
h710
M60
130
h710
M60
95
h710
M60
60
h710" aria-hidden="true" aria-label="y-grid"/>
    <path fill="none" stroke="currentColor" d="
M60
410
h-6
m6
-35
h-6
m6
-35
h-6
m6
-35
h-6
m6
-35
h-6
m6
-35
h-6
m6
-35
h-6
m6
-35
h-6
m6
-35
h-6
m6
-35
h-6
m6
-35
h-6" aria-hidden="true" aria-label="y-axis tick"/>
    <g aria-label="y-axis tick label" font-variant="tabular-nums" text-anchor="end">
        <text y=".32em" transform="translate(51 410)">0.0</text>
        <text y=".32em" transform="translate(51 375)">0.5</text>
        <text y=".32em" transform="translate(51 340)">1.0</text>
        <text y=".32em" transform="translate(51 305)">1.5</text>
        <text y=".32em" transform="translate(51 270)">2.0</text>
        <text y=".32em" transform="translate(51 235)">2.5</text>
        <text y=".32em" transform="translate(51 200)">3.0</text>
        <text y=".32em" transform="translate(51 165)">3.5</text>
        <text y=".32em" transform="translate(51 130)">4.0</text>
        <text y=".32em" transform="translate(51 95)">4.5</text>
        <text y=".32em" transform="translate(51 60)">5.0</text>
    </g>
    <text y=".71em" aria-label="y-axis label" text-anchor="start" transform="translate(3 3)">↑ Karma vestiges (30 days)</text>
    <path fill="none" stroke="currentColor" d="
M176.393
410
v6
m122.214
-6
v6
m122.213
-6
v6
m122.213
-6
v6
m122.213
-6
v6" aria-hidden="true" aria-label="x-axis tick"/>
    <g aria-label="x-axis tick label" font-variant="tabular-nums">
        <text transform="translate(176.393 419)"><tspan x="0" y=".71em">8</tspan><tspan x="0" dy="1em">Feb</tspan></text>
        <text y=".71em" transform="translate(298.607 419)">15</text>
        <text y=".71em" transform="translate(420.82 419)">22</text>
        <text transform="translate(543.033 419)"><tspan x="0" y=".71em">1</tspan><tspan x="0" dy="1em">Mar</tspan></text>
        <text y=".71em" transform="translate(665.246 419)">8</text>
    </g>
    <path fill="none" stroke="currentColor" stroke-linecap="round" stroke-linejoin="round" stroke-width="1.5" d="
M60
410
h34.918
l11.639
-140
h69.836
l11.64
-70
h69.836
l11.639
-70
h162.951
l11.639
140
h69.836
l11.64
70
h34.918
l11.639
-70
h23.279
l11.639
70
h116.394
l11.639
-140
h11.639
l11.64
-140
H770" aria-label="line"/>
</svg>
