<?xml version="1.0"?>
<svg xmlns="http://www.w3.org/2000/svg" xmlns:xlink="http://www.w3.org/1999/xlink" class="plot-d6a7b5" fill="currentColor" font-family="system-ui, sans-serif" font-size="10" text-anchor="middle" width="830" height="470" viewBox="0 0 830 470" color="#1e90ff">
  <style>:where(.plot-d6a7b5){--plot-background: white;display:block;height:intrinsic;max-width:100%}:where(.plot-d6a7b5 text),:where(.plot-d6a7b5 tspan){white-space:pre}</style>
  <g aria-label="y-grid" stroke="currentColor" stroke-opacity=".1">
    <line x1="60" x2="770" y1="410" y2="410"/>
    <line x1="60" x2="770" y1="360.939" y2="360.939"/>
    <line x1="60" x2="770" y1="311.878" y2="311.878"/>
    <line x1="60" x2="770" y1="262.817" y2="262.817"/>
    <line x1="60" x2="770" y1="213.757" y2="213.757"/>
    <line x1="60" x2="770" y1="164.696" y2="164.696"/>
    <line x1="60" x2="770" y1="115.635" y2="115.635"/>
    <line x1="60" x2="770" y1="66.574" y2="66.574"/>
  </g>
  <g aria-label="y-axis tick" fill="none" stroke="currentColor">
    <path transform="translate(60,410)" d="M0,0L-6,0"/>
    <path transform="translate(60,360.9391645640594)" d="M0,0L-6,0"/>
    <path transform="translate(60,311.8783291281189)" d="M0,0L-6,0"/>
    <path transform="translate(60,262.8174936921783)" d="M0,0L-6,0"/>
    <path transform="translate(60,213.7566582562377)" d="M0,0L-6,0"/>
    <path transform="translate(60,164.69582282029717)" d="M0,0L-6,0"/>
    <path transform="translate(60,115.6349873843566)" d="M0,0L-6,0"/>
    <path transform="translate(60,66.57415194841604)" d="M0,0L-6,0"/>
  </g>
  <g aria-label="y-axis tick label" text-anchor="end" font-variant="tabular-nums">
    <text y=".32em" transform="translate(-9,0) translate(60,410)">0</text>
    <text y=".32em" transform="translate(-9,0) translate(60,360.9391645640594)">1,000</text>
    <text y=".32em" transform="translate(-9,0) translate(60,311.8783291281189)">2,000</text>
    <text y=".32em" transform="translate(-9,0) translate(60,262.8174936921783)">3,000</text>
    <text y=".32em" transform="translate(-9,0) translate(60,213.7566582562377)">4,000</text>
    <text y=".32em" transform="translate(-9,0) translate(60,164.69582282029717)">5,000</text>
    <text y=".32em" transform="translate(-9,0) translate(60,115.6349873843566)">6,000</text>
    <text y=".32em" transform="translate(-9,0) translate(60,66.57415194841604)">7,000</text>
  </g>
  <g aria-label="y-axis label" text-anchor="start">
    <text y=".71em" transform="translate(-57,-57) translate(60,60)">&#x2191; Visible Vestiges (4 days)</text>
  </g>
  <g aria-label="x-axis tick" fill="none" stroke="currentColor">
    <path transform="translate(86.06911447084234,410)" d="M0,0L0,6"/>
    <path transform="translate(155.8423326133909,410)" d="M0,0L0,6"/>
    <path transform="translate(226.38228941684662,410)" d="M0,0L0,6"/>
    <path transform="translate(296.9222462203024,410)" d="M0,0L0,6"/>
    <path transform="translate(366.695464362851,410)" d="M0,0L0,6"/>
    <path transform="translate(436.4686825053995,410)" d="M0,0L0,6"/>
    <path transform="translate(507.00863930885527,410)" d="M0,0L0,6"/>
    <path transform="translate(577.548596112311,410)" d="M0,0L0,6"/>
    <path transform="translate(646.5550755939524,410)" d="M0,0L0,6"/>
    <path transform="translate(716.328293736501,410)" d="M0,0L0,6"/>
  </g>
  <g aria-label="x-axis tick label" font-variant="tabular-nums">
    <text transform="translate(0,9) translate(86.06911447084234,410)">
      <tspan x="0" y=".71em">Apr</tspan>
      <tspan x="0" dy="1em">2023</tspan>
    </text>
    <text y=".71em" transform="translate(0,9) translate(155.8423326133909,410)">Jul</text>
    <text y=".71em" transform="translate(0,9) translate(226.38228941684662,410)">Oct</text>
    <text transform="translate(0,9) translate(296.9222462203024,410)">
      <tspan x="0" y=".71em">Jan</tspan>
      <tspan x="0" dy="1em">2024</tspan>
    </text>
    <text y=".71em" transform="translate(0,9) translate(366.695464362851,410)">Apr</text>
    <text y=".71em" transform="translate(0,9) translate(436.4686825053995,410)">Jul</text>
    <text y=".71em" transform="translate(0,9) translate(507.00863930885527,410)">Oct</text>
    <text transform="translate(0,9) translate(577.548596112311,410)">
      <tspan x="0" y=".71em">Jan</tspan>
      <tspan x="0" dy="1em">2025</tspan>
    </text>
    <text y=".71em" transform="translate(0,9) translate(646.5550755939524,410)">Apr</text>
    <text y=".71em" transform="translate(0,9) translate(716.328293736501,410)">Jul</text>
  </g>
  <g aria-label="line" fill="none" stroke="currentColor" stroke-width="1.5" stroke-linejoin="round" stroke-linecap="round">
    <path d="M60,410L60.511,385.371L61.022,295.296L61.533,246.726L62.045,236.913L62.556,270.177L63.067,274.003L63.578,266.497L64.089,238.434L64.6,216.013L65.112,178.237L65.623,139.626L66.134,90.369L66.645,109.65L67.156,145.66L67.667,202.669L68.179,195.015L68.69,193.445L69.201,192.906L69.712,202.227L70.223,211.5L70.734,182.996L71.246,179.12L71.757,151.989L72.268,189.815L72.779,205.22L73.29,226.905L73.801,195.948L74.312,180.395L74.824,178.089L75.335,172.398L75.846,155.718L76.357,120.05L76.868,109.601L77.379,132.463L77.891,196.683L78.402,250.013L78.913,270.765L79.424,263.21L79.935,242.555L80.446,233.038L80.958,194.623L81.469,149.978L81.98,97.041L82.491,82.862L83.002,111.808L83.513,141.343L84.024,166.756L84.536,169.111L85.047,181.131L85.558,172.595L86.069,152.136L86.58,116.665L87.091,86.689L87.603,60L88.114,86.934L88.625,122.258L89.136,160.378L89.647,147.328L90.158,133.297L90.67,116.518L91.181,104.351L91.692,106.461L92.203,106.362L92.714,107.049L93.225,95.029L93.737,125.006L94.248,147.77L94.759,175.048L95.27,172.791L95.781,182.603L96.292,202.375L96.803,199.333L97.315,182.358L97.826,158.759L98.337,141.883L98.848,161.114L99.359,182.161L99.87,219.055L100.382,234.853L100.893,250.503L101.404,249.718L101.915,224.795L102.426,202.473L102.937,178.482L103.449,176.716L103.96,168.474L104.471,188.785L104.982,212.825L105.493,207.967L106.004,205.613L106.515,211.5L107.027,247.412L107.538,255.802L108.049,231.32L108.56,208.507L109.071,194.329L109.582,192.562L110.094,221.508L110.605,245.744L111.116,262.033L111.627,240.74L112.138,245.793L112.649,248.099L113.161,252.662L113.672,215.327L114.183,195.997L114.694,185.841L115.205,211.549L115.716,223.814L116.228,231.32L116.739,235.638L117.25,238.483L117.761,248.05L118.272,248.345L118.783,235.834L119.294,235.785L119.806,227.69L120.317,239.955L120.828,253.496L121.339,267.527L121.85,274.151L122.361,266.154L122.873,265.712L123.384,267.086L123.895,259.334L124.406,217.829L124.917,195.212L125.428,179.757L125.94,216.897L126.451,223.618L126.962,247.412L127.473,243.438L127.984,262.327L128.495,246.578L129.006,241.623L129.518,218.025L130.029,203.454L130.54,196.34L131.051,200.314L131.562,230.486L132.073,232.105L132.585,239.857L133.096,249.865L133.607,249.718L134.118,261.297L134.629,259.579L135.14,278.174L135.652,273.464L136.163,263.799L136.674,265.761L137.185,263.21L137.696,262.719L138.207,262.817L138.719,267.969L139.23,285.042L139.741,277.438L140.252,269.637L140.763,263.014L141.274,259.825L141.785,265.123L142.297,263.063L142.808,273.366L143.319,272.384L143.83,264.191L144.341,257.813L144.852,261.64L145.364,269.833L145.875,270.569L146.386,274.396L146.897,265.123L147.408,267.675L147.919,255.262L148.431,262.916L148.942,264.093L149.453,284.993L149.964,288.82L150.475,293.824L150.986,272.875L151.497,265.271L152.009,260.414L152.52,258.647L153.031,260.953L153.542,256.292L154.053,262.278L154.564,245.744L155.076,237.649L155.587,247.952L156.098,265.859L156.609,276.26L157.12,281.068L157.631,283.766L158.143,298.534L158.654,288.28L159.165,291.665L159.676,280.381L160.187,284.404L160.698,276.604L161.21,280.283L161.721,278.615L162.232,282.442L162.743,276.751L163.254,276.996L163.765,272.679L164.276,283.325L164.788,279.4L165.299,283.963L165.81,277.928L166.321,271.109L166.832,268.263L167.343,262.572L167.855,269.49L168.366,277.29L168.877,270.373L169.388,268.165L169.899,274.445L170.41,286.514L170.922,296.817L171.433,281.804L171.944,289.458L172.455,282.687L172.966,288.771L173.477,284.306L173.988,276.015L174.5,262.082L175.011,253.643L175.522,272.826L176.033,271.452L176.544,271.599L177.055,257.617L177.567,263.161L178.078,270.716L178.589,270.177L179.1,279.694L179.611,269.637L180.122,269.244L180.634,254.87L181.145,255.704L181.656,255.556L182.167,266.791L182.678,258.255L183.189,242.653L183.701,208.605L184.212,213.266L184.723,232.105L185.234,264.486L185.745,273.905L186.256,282.246L186.767,287.152L187.279,287.299L187.79,288.476L188.301,288.133L188.812,286.416L189.323,284.11L189.834,281.313L190.346,277.536L190.857,273.071L191.368,276.407L191.879,264.24L192.39,249.964L192.901,234.706L193.413,250.16L193.924,257.666L194.435,256.881L194.946,253.594L195.457,252.269L195.968,262.817L196.479,266.546L196.991,281.559L197.502,292.303L198.013,304.372L198.524,298.436L199.035,298.239L199.546,287.25L200.058,282.785L200.569,285.876L201.08,287.888L201.591,292.941L202.102,294.118L202.613,296.964L203.125,299.466L203.636,300.791L204.147,300.594L204.658,291.322L205.169,278.762L205.68,281.755L206.192,284.944L206.703,294.609L207.214,300.692L207.725,307.512L208.236,314.822L208.747,324.242L209.258,331.208L209.77,307.463L210.281,288.329L210.792,276.26L211.303,283.08L211.814,301.576L212.325,310.505L212.837,334.25L213.348,334.103L213.859,330.227L214.37,324.094L214.881,307.806L215.392,300.496L215.904,270.373L216.415,254.575L216.926,265.32L217.437,289.556L217.948,316.294L218.459,312.909L218.97,314.626L219.482,308.101L219.993,313.792L220.504,310.308L221.015,299.073L221.526,292.597L222.037,288.329L222.549,309.965L223.06,320.415L223.571,335.182L224.082,329.687L224.593,326.94L225.104,315.999L225.616,310.161L226.127,300.496L226.638,294.315L227.149,293.137L227.66,309.229L228.171,321.592L228.683,331.306L229.194,327.087L229.705,332.827L230.216,329.982L230.727,320.268L231.238,306.285L231.749,288.771L232.261,275.377L232.772,270.373L233.283,281.706L233.794,301.379L234.305,316.588L234.816,323.8L235.328,320.611L235.839,313.595L236.35,314.282L236.861,318.845L237.372,303.047L237.883,282.246L238.395,277.977L238.906,303.293L239.417,329.05L239.928,341.168L240.439,335.231L240.95,332.974L241.461,326.253L241.973,316.049L242.484,290.144L242.995,276.555L243.506,272.139L244.017,295.1L244.528,307.855L245.04,316.196L245.551,315.656L246.062,314.233L246.573,319.483L247.084,307.316L247.595,308.052L248.107,303.195L248.618,315.803L249.129,323.751L249.64,328.412L250.151,330.325L250.662,332.484L251.174,346.81L251.685,348.38L252.196,324.291L252.707,300.938L253.218,277.83L253.729,286.121L254.24,301.821L254.752,330.571L255.263,334.741L255.774,333.858L256.285,334.299L256.796,342.983L257.307,343.375L257.819,341.756L258.33,333.71L258.841,336.163L259.352,329.442L259.863,338.911L260.374,344.504L260.886,357.603L261.397,357.063L261.908,356.72L262.419,353.531L262.93,360.203L263.441,346.761L263.952,326.351L264.464,301.526L264.975,303.096L265.486,312.32L265.997,331.012L266.508,339.058L267.019,349.165L267.531,342.198L268.042,334.839L268.553,323.555L269.064,322.525L269.575,320.17L270.086,322.083L270.598,321.396L271.109,328.412L271.62,330.08L272.131,327.627L272.642,316.441L273.153,316.588L273.665,321.494L274.176,338.567L274.687,335.28L275.198,330.914L275.709,324.83L276.22,335.133L276.731,351.618L277.243,355.935L277.754,351.765L278.265,345.927L278.776,351.618L279.287,354.12L279.798,355.837L280.31,352.354L280.821,349.802L281.332,352.599L281.843,348.281L282.354,343.523L282.865,344.258L283.377,355.641L283.888,369.034L284.399,366.091L284.91,355.248L285.421,340.775L285.932,335.133L286.443,343.768L286.955,351.961L287.466,347.742L287.977,347.496L288.488,353.04L288.999,361.037L289.51,353.089L290.022,349.999L290.533,345.779L291.044,338.518L291.555,327.725L292.066,334.005L292.577,346.025L293.089,344.847L293.6,336.213L294.111,328.951L294.622,335.378L295.133,333.073L295.644,333.024L296.156,332.631L296.667,336.409L297.178,338.813L297.689,338.42L298.2,338.616L298.711,332.582L299.222,335.918L299.734,341.707L300.245,342.787L300.756,351.274L301.267,347.251L301.778,347.938L302.289,343.032L302.801,343.572L303.312,351.421L303.823,353.433L304.334,357.701L304.845,366.483L305.356,369.966L305.868,364.472L306.379,351.814L306.89,337.292L307.401,326.548L307.912,317.177L308.423,325.615L308.934,336.507L309.446,353.973L309.957,344.16L310.468,334.397L310.979,331.454L311.49,342.051L312.001,345.632L312.513,336.507L313.024,308.689L313.535,307.561L314.046,305.5L314.557,330.08L315.068,339.598L315.58,349.214L316.091,358.29L316.602,360.988L317.113,346.859L317.624,315.411L318.135,299.907L318.647,295.345L319.158,313.399L319.669,323.849L320.18,342.149L320.691,342.002L321.202,341.854L321.713,334.25L322.225,339.058L322.736,327.627L323.247,312.271L323.758,298.141L324.269,305.893L324.78,317.569L325.292,327.038L325.803,333.661L326.314,332.68L326.825,326.94L327.336,311.486L327.847,315.705L328.359,307.463L328.87,290.095L329.381,267.871L329.892,275.77L330.403,294.952L330.914,304.323L331.425,303.342L331.937,311.339L332.448,326.891L332.959,332.533L333.47,330.276L333.981,319.434L334.492,309.131L335.004,319.728L335.515,328.608L336.026,336.948L336.537,320.366L337.048,321.2L337.559,329.835L338.071,334.005L338.582,324.389L339.093,305.549L339.604,307.708L340.115,309.916L340.626,328.019L341.138,328.412L341.649,338.911L342.16,340.039L342.671,343.179L343.182,342.492L343.693,337.979L344.204,336.605L344.716,322.868L345.227,321.887L345.738,324.536L346.249,348.576L346.76,355.248L347.271,352.991L347.783,350.146L348.294,354.169L348.805,360.596L349.316,347.546L349.827,339.058L350.338,338.764L350.85,341.02L351.361,340.186L351.872,347.006L352.383,359.664L352.894,356.426L353.405,346.81L353.916,339.941L354.428,337.194L354.939,329.344L355.45,313.743L355.961,313.105L356.472,321.396L356.983,359.516L357.495,387.825L358.006,406.124L358.517,409.166L359.028,409.215L359.539,408.97L360.05,408.724L360.562,406.86L361.073,405.634L361.584,405.094L362.095,404.652L362.606,401.954L363.117,399.943L363.629,398.667L364.14,395.38L364.651,388.168L365.162,366.287L365.673,356.475L366.184,350.391L366.695,361.479L367.207,364.913L367.718,365.158L368.229,359.418L368.74,355.101L369.251,349.459L369.762,347.349L370.274,345.73L370.785,343.179L371.296,347.251L371.807,353.089L372.318,356.916L372.829,353.482L373.341,358.094L373.852,364.275L374.363,365.06L374.874,362.656L375.385,364.472L375.896,367.072L376.407,364.226L376.919,355.15L377.43,355.592L377.941,359.565L378.452,364.717L378.963,368.544L379.474,365.845L379.986,372.91L380.497,375.559L381.008,382.133L381.519,379.043L382.03,377.522L382.541,367.759L383.053,356.622L383.564,354.856L384.075,361.871L384.586,364.717L385.097,363.883L385.608,359.271L386.12,365.06L386.631,360.056L387.142,360.007L387.653,354.954L388.164,362.068L388.675,365.894L389.186,369.77L389.698,365.551L390.209,357.456L390.72,361.43L391.231,362.656L391.742,367.072L392.253,361.381L392.765,352.697L393.276,347.889L393.787,341.266L394.298,353.089L394.809,360.105L395.32,367.906L395.832,364.864L396.343,362.902L396.854,360.841L397.365,356.18L397.876,356.867L398.387,351.765L398.898,351.912L399.41,348.085L399.921,347.153L400.432,353.973L400.943,360.056L401.454,376.099L401.965,378.258L402.477,373.989L402.988,366.091L403.499,343.228L404.01,341.168L404.521,331.306L405.032,353.776L405.544,359.026L406.055,370.555L406.566,360.89L407.077,365.453L407.588,364.177L408.099,368.445L408.611,359.86L409.122,351.47L409.633,338.911L410.144,339.156L410.655,337.096L411.166,355.199L411.677,354.561L412.189,351.421L412.7,341.953L413.211,343.572L413.722,349.312L414.233,345.338L414.744,346.319L415.256,338.616L415.767,349.999L416.278,349.508L416.789,360.449L417.3,353.335L417.811,353.089L418.323,349.655L418.834,352.206L419.345,347.055L419.856,342.198L420.367,332.19L420.878,331.11L421.389,340.186L421.901,342.541L422.412,347.447L422.923,351.029L423.434,362.803L423.945,357.652L424.456,355.935L424.968,351.372L425.479,354.561L425.99,353.678L426.501,351.716L427.012,363.098L427.523,372.223L428.035,378.405L428.546,373.008L429.057,354.414L429.568,352.942L430.079,353.188L430.59,366.189L431.102,349.655L431.613,349.999L432.124,348.772L432.635,359.32L433.146,353.629L433.657,359.222L434.168,367.072L434.68,374.922L435.191,373.548L435.702,373.989L436.213,368.298L436.724,353.825L437.235,349.312L437.747,351.372L438.258,354.757L438.769,356.573L439.28,352.206L439.791,362.951L440.302,367.023L440.814,374.48L441.325,370.849L441.836,365.355L442.347,366.974L442.858,372.468L443.369,378.994L443.88,375.952L444.392,373.695L444.903,369.819L445.414,363.638L445.925,358.192L446.436,363.638L446.947,370.015L447.459,370.997L447.97,365.698L448.481,366.777L448.992,366.826L449.503,366.14L450.014,363.098L450.526,365.306L451.037,365.502L451.548,361.086L452.059,352.844L452.57,336.507L453.081,333.612L453.593,335.722L454.104,353.433L454.615,359.32L455.126,361.135L455.637,362.068L456.148,365.6L456.659,372.125L457.171,372.174L457.682,367.759L458.193,364.717L458.704,355.493L459.215,354.169L459.726,344.013L460.238,342.051L460.749,333.024L461.26,333.612L461.771,335.673L462.282,334.888L462.793,332.435L463.305,341.07L463.816,348.723L464.327,343.228L464.838,339.892L465.349,342.639L465.86,354.463L466.371,356.867L466.883,365.06L467.394,341.511L467.905,317.373L468.416,285.925L468.927,289.408L469.438,294.805L469.95,309.572L470.461,313.497L470.972,307.365L471.483,307.168L471.994,321.985L472.505,333.907L473.017,332.582L473.528,327.038L474.039,323.26L474.55,328.167L475.061,344.013L475.572,352.255L476.084,359.86L476.595,358.633L477.106,363.588L477.617,359.32L478.128,352.893L478.639,346.761L479.15,339.598L479.662,341.119L480.173,346.662L480.684,354.463L481.195,358.535L481.706,367.464L482.217,376.786L482.729,382.918L483.24,381.986L483.751,376.442L484.262,376.099L484.773,372.518L485.284,375.756L485.796,373.253L486.307,377.767L486.818,374.872L487.329,376.148L487.84,367.611L488.351,366.925L488.862,362.46L489.374,369.868L489.885,366.385L490.396,363.588L490.907,359.418L491.418,364.521L491.929,367.611L492.441,372.419L492.952,372.076L493.463,378.65L493.974,379.582L494.485,381.005L494.996,380.024L495.508,374.087L496.019,372.125L496.53,370.064L497.041,374.774L497.552,374.333L498.063,373.695L498.575,369.77L499.086,373.401L499.597,368.004L500.108,359.958L500.619,347.546L501.13,333.907L501.641,343.719L502.153,350.685L502.664,365.6L503.175,369.083L503.686,367.66L504.197,367.072L504.708,360.399L505.22,355.297L505.731,333.416L506.242,333.024L506.753,343.67L507.264,358.339L507.775,361.086L508.287,364.422L508.798,372.37L509.309,373.401L509.82,370.751L510.331,368.249L510.842,360.645L511.353,350.685L511.865,340.088L512.376,349.704L512.887,360.203L513.398,375.02L513.909,373.744L514.42,376.541L514.932,382.133L515.443,382.084L515.954,382.771L516.465,379.435L516.976,381.348L517.487,379.779L517.999,381.692L518.51,386.255L519.021,384.537L519.532,380.318L520.043,374.48L520.554,375.216L521.066,370.997L521.577,368.396L522.088,364.275L522.599,363.49L523.11,372.468L523.621,378.405L524.132,384.881L524.644,382.869L525.155,382.084L525.666,384.734L526.177,385.813L526.688,386.058L527.199,377.718L527.711,372.763L528.222,376.295L528.733,389.689L529.244,394.006L529.755,387.825L530.266,382.869L530.778,374.872L531.289,377.178L531.8,370.702L532.311,362.803L532.822,353.923L533.333,345.142L533.844,350.146L534.356,355.542L534.867,369.77L535.378,376.982L535.889,375.854L536.4,377.031L536.911,379.386L537.423,377.276L537.934,372.468L538.445,365.011L538.956,371.34L539.467,371.291L539.978,381.201L540.49,382.379L541.001,382.624L541.512,379.386L542.023,377.227L542.534,380.956L543.045,376.688L543.557,373.744L544.068,371.144L544.579,376.737L545.09,378.16L545.601,378.552L546.112,375.118L546.623,375.412L547.135,373.94L547.646,375.265L548.157,374.333L548.668,370.948L549.179,363.294L549.69,367.808L550.202,375.559L550.713,381.79L551.224,381.348L551.735,381.054L552.246,384.39L552.757,387.53L553.269,387.825L553.78,390.817L554.291,392.436L554.802,395.527L555.313,391.112L555.824,388.855L556.335,390.228L556.847,389.247L557.358,377.767L557.869,372.567L558.38,367.808L558.891,378.307L559.402,380.416L559.914,388.904L560.425,385.568L560.936,384.979L561.447,386.843L561.958,389.444L562.469,387.285L562.981,383.311L563.492,381.643L564.003,377.914L564.514,371.831L565.025,372.321L565.536,373.204L566.048,380.269L566.559,373.94L567.07,377.473L567.581,380.171L568.092,388.07L568.603,388.119L569.114,384.734L569.626,381.299L570.137,374.627L570.648,377.963L571.159,374.971L571.67,381.79L572.181,378.601L572.693,384.685L573.204,386.892L573.715,389.149L574.226,387.775L574.737,387.383L575.248,379.828L575.76,376.491L576.271,361.528L576.782,358.388L577.293,356.229L577.804,363.834L578.315,368.593L578.826,370.899L579.338,367.71L579.849,360.007L580.36,360.694L580.871,361.822L581.382,370.702L581.893,374.529L582.405,380.171L582.916,382.526L583.427,379.828L583.938,385.764L584.449,380.563L584.96,381.594L585.472,378.258L585.983,382.624L586.494,379.877L587.005,381.79L587.516,382.183L588.027,385.224L588.539,384.096L589.05,379.975L589.561,378.405L590.072,370.604L590.583,373.499L591.094,372.468L591.605,376.05L592.117,373.45L592.628,370.31L593.139,368.593L593.65,370.899L594.161,378.356L594.672,380.318L595.184,379.729L595.695,376.05L596.206,376.246L596.717,372.763L597.228,362.215L597.739,349.017L598.251,344.896L598.762,355.297L599.273,370.015L599.784,380.024L600.295,380.269L600.806,377.571L601.317,377.375L601.829,380.122L602.34,375.559L602.851,368.2L603.362,367.219L603.873,371.585L604.384,376.05L604.896,373.253L605.407,375.657L605.918,371.733L606.429,364.079L606.94,363.785L607.451,367.415L607.963,377.718L608.474,379.582L608.985,382.673L609.496,387.04L610.007,379.975L610.518,381.398L611.03,373.253L611.541,375.069L612.052,369.868L612.563,363.932L613.074,362.411L613.585,363.343L614.096,369.672L614.608,367.317L615.119,369.23L615.63,370.457L616.141,372.616L616.652,371.683L617.163,369.329L617.675,368.838L618.186,370.948L618.697,374.137L619.208,376.59L619.719,375.069L620.23,365.796L620.742,370.702L621.253,363.392L621.764,367.268L622.275,368.053L622.786,376.933L623.297,380.171L623.808,366.679L624.32,353.188L624.831,350.538L625.342,354.218L625.853,364.03L626.364,363.883L626.875,361.184L627.387,356.769L627.898,356.965L628.409,364.472L628.92,371.438L629.431,373.646L629.942,376.884L630.454,373.94L630.965,374.774L631.476,372.959L631.987,375.363L632.498,374.529L633.009,369.623L633.521,366.287L634.032,369.966L634.543,379.828L635.054,383.507L635.565,382.379L636.076,381.25L636.587,384.979L637.099,387.874L637.61,386.156L638.121,386.696L638.632,386.402L639.143,387.187L639.654,383.017L640.166,381.398L640.677,377.963L641.188,380.858L641.699,378.11L642.21,384.39L642.721,376.491L643.233,381.201L643.744,376.246L644.255,386.402L644.766,387.285L645.277,383.213L645.788,379.337L646.299,375.216L646.811,386.892L647.322,388.609L647.833,386.843L648.344,384.292L648.855,384.243L649.366,393.466L649.878,393.466L650.389,397.342L650.9,392.976L651.411,395.478L651.922,387.481L652.433,382.82L652.945,376.688L653.456,384.096L653.967,389.1L654.478,394.791L654.989,395.086L655.5,399.501L656.012,395.184L656.523,391.504L657.034,385.421L657.545,391.7L658.056,392.632L658.567,395.036L659.078,388.953L659.59,392.485L660.101,393.712L660.612,399.01L661.123,392.976L661.634,388.953L662.145,386.794L662.657,390.081L663.168,393.368L663.679,395.527L664.19,397.342L664.701,400.629L665.212,402.788L665.724,402.445L666.235,398.225L666.746,398.912L667.257,399.452L667.768,404.162L668.279,402.592L668.79,404.162L669.302,404.162L669.813,405.094L670.324,405.535L670.835,406.124L671.346,405.192L671.857,401.414L672.369,400.286L672.88,400.041L673.391,404.898L673.902,402.984L674.413,402.592L674.924,398.667L675.436,400.188L675.947,395.92L676.458,397.244L676.969,397.489L677.48,402.297L677.991,401.267L678.503,399.697L679.014,401.463L679.525,404.407L680.036,406.664L680.547,405.977L681.058,404.26L681.569,401.807L682.081,400.09L682.592,399.844L683.103,398.912L683.614,396.214L684.125,395.135L684.636,396.165L685.148,398.078L685.659,400.777L686.17,400.482L686.681,398.961L687.192,397.342L687.703,394.153L688.215,393.417L688.726,392.093L689.237,393.172L689.748,396.999L690.259,398.863L690.77,403.033L691.281,400.531L691.793,394.301L692.304,394.399L692.815,392.289L693.326,395.429L693.837,394.497L694.348,399.01L694.86,402.788L695.371,402.347L695.882,401.316L696.393,397.489L696.904,395.87L697.415,393.614L697.927,394.301L698.438,397.833L698.949,397.931L699.46,399.599L699.971,398.765L700.482,404.554L700.994,405.094L701.505,404.701L702.016,401.463L702.527,399.599L703.038,400.629L703.549,400.58L704.06,403.328L704.572,403.082L705.083,404.652L705.594,404.211L706.105,404.309L706.616,402.101L707.127,402.003L707.639,400.973L708.15,398.225L708.661,396.018L709.172,395.92L709.683,398.765L710.194,397.244L710.706,394.791L711.217,396.263L711.728,397.98L712.239,398.127L712.75,396.754L713.261,398.274L713.772,399.158L714.284,396.018L714.795,397.391L715.306,400.531L715.817,403.966L716.328,398.422L716.839,396.705L717.351,393.025L717.862,395.184L718.373,395.086L718.884,393.025L719.395,391.7L719.906,392.24L720.418,395.478L720.929,399.795L721.44,398.078L721.951,403.818L722.462,402.494L722.973,404.8L723.485,403.573L723.996,403.328L724.507,402.347L725.018,398.814L725.529,397.244L726.04,391.455L726.551,393.319L727.063,394.301L727.574,401.463L728.085,400.09L728.596,399.943L729.107,394.301L729.618,397.195L730.13,398.127L730.641,399.648L731.152,396.361L731.663,397.735L732.174,398.225L732.685,399.256L733.197,400.482L733.708,402.69L734.219,403.082L734.73,398.52L735.241,397.784L735.752,398.127L736.263,400.924L736.775,398.569L737.286,394.742L737.797,393.123L738.308,396.557L738.819,396.606L739.33,397.195L739.842,396.705L740.353,402.15L740.864,402.788L741.375,403.769L741.886,399.501L742.397,399.059L742.909,399.599L743.42,404.113L743.931,402.543L744.442,403.328L744.953,400.678L745.464,401.954L745.976,400.188L746.487,403.377L746.998,406.664L747.509,408.038L748.02,408.038L748.531,406.713L749.042,404.8L749.554,404.309L750.065,404.358L750.576,405.977L751.087,406.075L751.598,404.75L752.109,400.335L752.621,400.728L753.132,399.648L753.643,398.176L754.154,388.364L754.665,383.9L755.176,389.002L755.688,397.244L756.199,402.248L756.71,402.052L757.221,402.543L757.732,402.445L758.243,399.746L758.754,395.478L759.266,395.723L759.777,398.961L760.288,404.849L760.799,405.388L761.31,400.973L761.821,398.667L762.333,399.059L762.844,402.347L763.355,402.248L763.866,399.501L764.377,398.912L764.888,394.889L765.4,399.55L765.911,402.69L766.422,407.645L766.933,405.486L767.444,405.732L767.955,400.777L768.467,401.022L768.978,396.116L769.489,396.901L770,399.059"/>
  </g>
</svg>
