<svg class="plot-d6a7b5" fill="currentColor" font-family="system-ui, sans-serif" font-size="10" text-anchor="middle" width="830" height="470" viewBox="0 0 830 470" xmlns="http://www.w3.org/2000/svg" xmlns:xlink="http://www.w3.org/1999/xlink" color="#1e90ff"><style>:where(.plot-d6a7b5){--plot-background: white;display:block;height:intrinsic;max-width:100%}:where(.plot-d6a7b5 text),:where(.plot-d6a7b5 tspan){white-space:pre}</style><g aria-label="y-grid" stroke="currentColor" stroke-opacity=".1"><line x1="60" x2="770" y1="410" y2="410"/><line x1="60" x2="770" y1="360.939" y2="360.939"/><line x1="60" x2="770" y1="311.878" y2="311.878"/><line x1="60" x2="770" y1="262.817" y2="262.817"/><line x1="60" x2="770" y1="213.757" y2="213.757"/><line x1="60" x2="770" y1="164.696" y2="164.696"/><line x1="60" x2="770" y1="115.635" y2="115.635"/><line x1="60" x2="770" y1="66.574" y2="66.574"/></g><g aria-label="y-axis tick" fill="none" stroke="currentColor"><path transform="translate(60,410)" d="M0,0L-6,0"/><path transform="translate(60,360.9391645640594)" d="M0,0L-6,0"/><path transform="translate(60,311.8783291281189)" d="M0,0L-6,0"/><path transform="translate(60,262.8174936921783)" d="M0,0L-6,0"/><path transform="translate(60,213.7566582562377)" d="M0,0L-6,0"/><path transform="translate(60,164.69582282029717)" d="M0,0L-6,0"/><path transform="translate(60,115.6349873843566)" d="M0,0L-6,0"/><path transform="translate(60,66.57415194841604)" d="M0,0L-6,0"/></g><g aria-label="y-axis tick label" text-anchor="end" font-variant="tabular-nums"><text y=".32em" transform="translate(-9,0) translate(60,410)">0</text><text y=".32em" transform="translate(-9,0) translate(60,360.9391645640594)">1,000</text><text y=".32em" transform="translate(-9,0) translate(60,311.8783291281189)">2,000</text><text y=".32em" transform="translate(-9,0) translate(60,262.8174936921783)">3,000</text><text y=".32em" transform="translate(-9,0) translate(60,213.7566582562377)">4,000</text><text y=".32em" transform="translate(-9,0) translate(60,164.69582282029717)">5,000</text><text y=".32em" transform="translate(-9,0) translate(60,115.6349873843566)">6,000</text><text y=".32em" transform="translate(-9,0) translate(60,66.57415194841604)">7,000</text></g><g aria-label="y-axis label" text-anchor="start"><text y=".71em" transform="translate(-57,-57) translate(60,60)">↑ Visible Vestiges (4 days)</text></g><g aria-label="x-axis tick" fill="none" stroke="currentColor"><path transform="translate(97.8765690376569,410)" d="M0,0L0,6"/><path transform="translate(199.2520920502092,410)" d="M0,0L0,6"/><path transform="translate(301.74163179916314,410)" d="M0,0L0,6"/><path transform="translate(404.2311715481171,410)" d="M0,0L0,6"/><path transform="translate(505.60669456066944,410)" d="M0,0L0,6"/><path transform="translate(606.9822175732218,410)" d="M0,0L0,6"/><path transform="translate(709.4717573221757,410)" d="M0,0L0,6"/></g><g aria-label="x-axis tick label" font-variant="tabular-nums"><text transform="translate(0,9) translate(97.8765690376569,410)"><tspan x="0" y=".71em">Apr</tspan><tspan x="0" dy="1em">2023</tspan></text><text y=".71em" transform="translate(0,9) translate(199.2520920502092,410)">Jul</text><text y=".71em" transform="translate(0,9) translate(301.74163179916314,410)">Oct</text><text transform="translate(0,9) translate(404.2311715481171,410)"><tspan x="0" y=".71em">Jan</tspan><tspan x="0" dy="1em">2024</tspan></text><text y=".71em" transform="translate(0,9) translate(505.60669456066944,410)">Apr</text><text y=".71em" transform="translate(0,9) translate(606.9822175732218,410)">Jul</text><text y=".71em" transform="translate(0,9) translate(709.4717573221757,410)">Oct</text></g><g aria-label="line" fill="none" stroke="currentColor" stroke-width="1.5" stroke-linejoin="round" stroke-linecap="round"><path d="M60,410L60.743,385.371L61.485,295.296L62.228,246.726L62.971,236.913L63.713,270.177L64.456,274.003L65.199,266.497L65.941,238.434L66.684,216.013L67.427,178.237L68.169,139.626L68.912,90.369L69.655,109.65L70.397,145.66L71.14,202.669L71.883,195.015L72.626,193.445L73.368,192.906L74.111,202.227L74.854,211.5L75.596,182.996L76.339,179.12L77.082,151.989L77.824,189.815L78.567,205.22L79.31,226.905L80.052,195.948L80.795,180.395L81.538,178.089L82.28,172.398L83.023,155.718L83.766,120.05L84.508,109.601L85.251,132.463L85.994,196.683L86.736,250.013L87.479,270.765L88.222,263.21L88.964,242.555L89.707,233.038L90.45,194.623L91.192,149.978L91.935,97.041L92.678,82.862L93.421,111.808L94.163,141.343L94.906,166.756L95.649,169.111L96.391,181.131L97.134,172.595L97.877,152.136L98.619,116.665L99.362,86.689L100.105,60L100.847,86.934L101.59,122.258L102.333,160.378L103.075,147.328L103.818,133.297L104.561,116.518L105.303,104.351L106.046,106.461L106.789,106.362L107.531,107.049L108.274,95.029L109.017,125.006L109.759,147.77L110.502,175.048L111.245,172.791L111.987,182.603L112.73,202.375L113.473,199.333L114.215,182.358L114.958,158.759L115.701,141.883L116.444,161.114L117.186,182.161L117.929,219.055L118.672,234.853L119.414,250.503L120.157,249.718L120.9,224.795L121.642,202.473L122.385,178.482L123.128,176.716L123.87,168.474L124.613,188.785L125.356,212.825L126.098,207.967L126.841,205.613L127.584,211.5L128.326,247.412L129.069,255.802L129.812,231.32L130.554,208.507L131.297,194.329L132.04,192.562L132.782,221.508L133.525,245.744L134.268,262.033L135.01,240.74L135.753,245.793L136.496,248.099L137.238,252.662L137.981,215.327L138.724,195.997L139.467,185.841L140.209,211.549L140.952,223.814L141.695,231.32L142.437,235.638L143.18,238.483L143.923,248.05L144.665,248.345L145.408,235.834L146.151,235.785L146.893,227.69L147.636,239.955L148.379,253.496L149.121,267.527L149.864,274.151L150.607,266.154L151.349,265.712L152.092,267.086L152.835,259.334L153.577,217.829L154.32,195.212L155.063,179.757L155.805,216.897L156.548,223.618L157.291,247.412L158.033,243.438L158.776,262.327L159.519,246.578L160.262,241.623L161.004,218.025L161.747,203.454L162.49,196.34L163.232,200.314L163.975,230.486L164.718,232.105L165.46,239.857L166.203,249.865L166.946,249.718L167.688,261.297L168.431,259.579L169.174,278.174L169.916,273.464L170.659,263.799L171.402,265.761L172.144,263.21L172.887,262.719L173.63,262.817L174.372,267.969L175.115,285.042L175.858,277.438L176.6,269.637L177.343,263.014L178.086,259.825L178.828,265.123L179.571,263.063L180.314,273.366L181.056,272.384L181.799,264.191L182.542,257.813L183.285,261.64L184.027,269.833L184.77,270.569L185.513,274.396L186.255,265.123L186.998,267.675L187.741,255.262L188.483,262.916L189.226,264.093L189.969,284.993L190.711,288.82L191.454,293.824L192.197,272.875L192.939,265.271L193.682,260.414L194.425,258.647L195.167,260.953L195.91,256.292L196.653,262.278L197.395,245.744L198.138,237.649L198.881,247.952L199.623,265.859L200.366,276.26L201.109,281.068L201.851,283.766L202.594,298.534L203.337,288.28L204.079,291.665L204.822,280.381L205.565,284.404L206.308,276.604L207.05,280.283L207.793,278.615L208.536,282.442L209.278,276.751L210.021,276.996L210.764,272.679L211.506,283.325L212.249,279.4L212.992,283.963L213.734,277.928L214.477,271.109L215.22,268.263L215.962,262.572L216.705,269.49L217.448,277.29L218.19,270.373L218.933,268.165L219.676,274.445L220.418,286.514L221.161,296.817L221.904,281.804L222.646,289.458L223.389,282.687L224.132,288.771L224.874,284.306L225.617,276.015L226.36,262.082L227.103,253.643L227.845,272.826L228.588,271.452L229.331,271.599L230.073,257.617L230.816,263.161L231.559,270.716L232.301,270.177L233.044,279.694L233.787,269.637L234.529,269.244L235.272,254.87L236.015,255.704L236.757,255.556L237.5,266.791L238.243,258.255L238.985,242.653L239.728,208.605L240.471,213.266L241.213,232.105L241.956,264.486L242.699,273.905L243.441,282.246L244.184,287.152L244.927,287.299L245.669,288.476L246.412,288.133L247.155,286.416L247.897,284.11L248.64,281.313L249.383,277.536L250.126,273.071L250.868,276.407L251.611,264.24L252.354,249.964L253.096,234.706L253.839,250.16L254.582,257.666L255.324,256.881L256.067,253.594L256.81,252.269L257.552,262.817L258.295,266.546L259.038,281.559L259.78,292.303L260.523,304.372L261.266,298.436L262.008,298.239L262.751,287.25L263.494,282.785L264.236,285.876L264.979,287.888L265.722,292.941L266.464,294.118L267.207,296.964L267.95,299.466L268.692,300.791L269.435,300.594L270.178,291.322L270.921,278.762L271.663,281.755L272.406,284.944L273.149,294.609L273.891,300.692L274.634,307.512L275.377,314.822L276.119,324.242L276.862,331.208L277.605,307.463L278.347,288.329L279.09,276.26L279.833,283.08L280.575,301.576L281.318,310.505L282.061,334.25L282.803,334.103L283.546,330.227L284.289,324.094L285.031,307.806L285.774,300.496L286.517,270.373L287.259,254.575L288.002,265.32L288.745,289.556L289.487,316.294L290.23,312.909L290.973,314.626L291.715,308.101L292.458,313.792L293.201,310.308L293.944,299.073L294.686,292.597L295.429,288.329L296.172,309.965L296.914,320.415L297.657,335.182L298.4,329.687L299.142,326.94L299.885,315.999L300.628,310.161L301.37,300.496L302.113,294.315L302.856,293.137L303.598,309.229L304.341,321.592L305.084,331.306L305.826,327.087L306.569,332.827L307.312,329.982L308.054,320.268L308.797,306.285L309.54,288.771L310.282,275.377L311.025,270.373L311.768,281.706L312.51,301.379L313.253,316.588L313.996,323.8L314.738,320.611L315.481,313.595L316.224,314.282L316.967,318.845L317.709,303.047L318.452,282.246L319.195,277.977L319.937,303.293L320.68,329.05L321.423,341.168L322.165,335.231L322.908,332.974L323.651,326.253L324.393,316.049L325.136,290.144L325.879,276.555L326.621,272.139L327.364,295.1L328.107,307.855L328.849,316.196L329.592,315.656L330.335,314.233L331.077,319.483L331.82,307.316L332.563,308.052L333.305,303.195L334.048,315.803L334.791,323.751L335.533,328.412L336.276,330.325L337.019,332.484L337.762,346.81L338.504,348.38L339.247,324.291L339.99,300.938L340.732,277.83L341.475,286.121L342.218,301.821L342.96,330.571L343.703,334.741L344.446,333.858L345.188,334.299L345.931,342.983L346.674,343.375L347.416,341.756L348.159,333.71L348.902,336.163L349.644,329.442L350.387,338.911L351.13,344.504L351.872,357.603L352.615,357.063L353.358,356.72L354.1,353.531L354.843,360.203L355.586,346.761L356.328,326.351L357.071,301.526L357.814,303.096L358.556,312.32L359.299,331.012L360.042,339.058L360.785,349.165L361.527,342.198L362.27,334.839L363.013,323.555L363.755,322.525L364.498,320.17L365.241,322.083L365.983,321.396L366.726,328.412L367.469,330.08L368.211,327.627L368.954,316.441L369.697,316.588L370.439,321.494L371.182,338.567L371.925,335.28L372.667,330.914L373.41,324.83L374.153,335.133L374.895,351.618L375.638,355.935L376.381,351.765L377.123,345.927L377.866,351.618L378.609,354.12L379.351,355.837L380.094,352.354L380.837,349.802L381.579,352.599L382.322,348.281L383.065,343.523L383.808,344.258L384.55,355.641L385.293,369.034L386.036,366.091L386.778,355.248L387.521,340.775L388.264,335.133L389.006,343.768L389.749,351.961L390.492,347.742L391.234,347.496L391.977,353.04L392.72,361.037L393.462,353.089L394.205,349.999L394.948,345.779L395.69,338.518L396.433,327.725L397.176,334.005L397.918,346.025L398.661,344.847L399.404,336.213L400.146,328.951L400.889,335.378L401.632,333.073L402.374,333.024L403.117,332.631L403.86,336.409L404.603,338.813L405.345,338.42L406.088,338.616L406.831,332.582L407.573,335.918L408.316,341.707L409.059,342.787L409.801,351.274L410.544,347.251L411.287,347.938L412.029,343.032L412.772,343.572L413.515,351.421L414.257,353.433L415,357.701L415.743,366.483L416.485,369.966L417.228,364.472L417.971,351.814L418.713,337.292L419.456,326.548L420.199,317.177L420.941,325.615L421.684,336.507L422.427,353.973L423.169,344.16L423.912,334.397L424.655,331.454L425.397,342.051L426.14,345.632L426.883,336.507L427.626,308.689L428.368,307.561L429.111,305.5L429.854,330.08L430.596,339.598L431.339,349.214L432.082,358.29L432.824,360.988L433.567,346.859L434.31,315.411L435.052,299.907L435.795,295.345L436.538,313.399L437.28,323.849L438.023,342.149L438.766,342.002L439.508,341.854L440.251,334.25L440.994,339.058L441.736,327.627L442.479,312.271L443.222,298.141L443.964,305.893L444.707,317.569L445.45,327.038L446.192,333.661L446.935,332.68L447.678,326.94L448.421,311.486L449.163,315.705L449.906,307.463L450.649,290.095L451.391,267.871L452.134,275.77L452.877,294.952L453.619,304.323L454.362,303.342L455.105,311.339L455.847,326.891L456.59,332.533L457.333,330.276L458.075,319.434L458.818,309.131L459.561,319.728L460.303,328.608L461.046,336.948L461.789,320.366L462.531,321.2L463.274,329.835L464.017,334.005L464.759,324.389L465.502,305.549L466.245,307.708L466.987,309.916L467.73,328.019L468.473,328.412L469.215,338.911L469.958,340.039L470.701,343.179L471.444,342.492L472.186,337.979L472.929,336.605L473.672,322.868L474.414,321.887L475.157,324.536L475.9,348.576L476.642,355.248L477.385,352.991L478.128,350.146L478.87,354.169L479.613,360.596L480.356,347.546L481.098,339.058L481.841,338.764L482.584,341.02L483.326,340.186L484.069,347.006L484.812,359.664L485.554,356.426L486.297,346.81L487.04,339.941L487.782,337.194L488.525,329.344L489.268,313.743L490.01,313.105L490.753,321.396L491.496,359.516L492.238,387.825L492.981,406.124L493.724,409.166L494.467,409.215L495.209,408.97L495.952,408.724L496.695,406.86L497.437,405.634L498.18,405.094L498.923,404.652L499.665,401.954L500.408,399.943L501.151,398.667L501.893,395.38L502.636,388.168L503.379,366.287L504.121,356.475L504.864,350.391L505.607,361.479L506.349,364.913L507.092,365.158L507.835,359.418L508.577,355.101L509.32,349.459L510.063,347.349L510.805,345.73L511.548,343.179L512.291,347.251L513.033,353.089L513.776,356.916L514.519,353.482L515.262,358.094L516.004,364.275L516.747,365.06L517.49,362.656L518.232,364.472L518.975,367.072L519.718,364.226L520.46,355.15L521.203,355.592L521.946,359.565L522.688,364.717L523.431,368.544L524.174,365.845L524.916,372.91L525.659,375.559L526.402,382.133L527.144,379.043L527.887,377.522L528.63,367.759L529.372,356.622L530.115,354.856L530.858,361.871L531.6,364.717L532.343,363.883L533.086,359.271L533.828,365.06L534.571,360.056L535.314,360.007L536.056,354.954L536.799,362.068L537.542,365.894L538.285,369.77L539.027,365.551L539.77,357.456L540.513,361.43L541.255,362.656L541.998,367.072L542.741,361.381L543.483,352.697L544.226,347.889L544.969,341.266L545.711,353.089L546.454,360.105L547.197,367.906L547.939,364.864L548.682,362.902L549.425,360.841L550.167,356.18L550.91,356.867L551.653,351.765L552.395,351.912L553.138,348.085L553.881,347.153L554.623,353.973L555.366,360.056L556.109,376.099L556.851,378.258L557.594,373.989L558.337,366.091L559.079,343.228L559.822,341.168L560.565,331.306L561.308,353.776L562.05,359.026L562.793,370.555L563.536,360.89L564.278,365.453L565.021,364.177L565.764,368.445L566.506,359.86L567.249,351.47L567.992,338.911L568.734,339.156L569.477,337.096L570.22,355.199L570.962,354.561L571.705,351.421L572.448,341.953L573.19,343.572L573.933,349.312L574.676,345.338L575.418,346.319L576.161,338.616L576.904,349.999L577.646,349.508L578.389,360.449L579.132,353.335L579.874,353.089L580.617,349.655L581.36,352.206L582.103,347.055L582.845,342.198L583.588,332.19L584.331,331.11L585.073,340.186L585.816,342.541L586.559,347.447L587.301,351.029L588.044,362.803L588.787,357.652L589.529,355.935L590.272,351.372L591.015,354.561L591.757,353.678L592.5,351.716L593.243,363.098L593.985,372.223L594.728,378.405L595.471,373.008L596.213,354.414L596.956,352.942L597.699,353.188L598.441,366.189L599.184,349.655L599.927,349.999L600.669,348.772L601.412,359.32L602.155,353.629L602.897,359.222L603.64,367.072L604.383,374.922L605.126,373.548L605.868,373.989L606.611,368.298L607.354,353.825L608.096,349.312L608.839,351.372L609.582,354.757L610.324,356.573L611.067,352.206L611.81,362.951L612.552,367.023L613.295,374.48L614.038,370.849L614.78,365.355L615.523,366.974L616.266,372.468L617.008,378.994L617.751,375.952L618.494,373.695L619.236,369.819L619.979,363.638L620.722,358.192L621.464,363.638L622.207,370.015L622.95,370.997L623.692,365.698L624.435,366.777L625.178,366.826L625.921,366.14L626.663,363.098L627.406,365.306L628.149,365.502L628.891,361.086L629.634,352.844L630.377,336.507L631.119,333.612L631.862,335.722L632.605,353.433L633.347,359.32L634.09,361.135L634.833,362.068L635.575,365.6L636.318,372.125L637.061,372.174L637.803,367.759L638.546,364.717L639.289,355.493L640.031,354.169L640.774,344.013L641.517,342.051L642.259,333.024L643.002,333.612L643.745,335.673L644.487,334.888L645.23,332.435L645.973,341.07L646.715,348.723L647.458,343.228L648.201,339.892L648.944,342.639L649.686,354.463L650.429,356.867L651.172,365.06L651.914,341.511L652.657,317.373L653.4,285.925L654.142,289.408L654.885,294.805L655.628,309.572L656.37,313.497L657.113,307.365L657.856,307.168L658.598,321.985L659.341,333.907L660.084,332.582L660.826,327.038L661.569,323.26L662.312,328.167L663.054,344.013L663.797,352.255L664.54,359.86L665.282,358.633L666.025,363.588L666.768,359.32L667.51,352.893L668.253,346.761L668.996,339.598L669.738,341.119L670.481,346.662L671.224,354.463L671.967,358.535L672.709,367.464L673.452,376.786L674.195,382.918L674.937,381.986L675.68,376.442L676.423,376.099L677.165,372.518L677.908,375.756L678.651,373.253L679.393,377.767L680.136,374.872L680.879,376.148L681.621,367.611L682.364,366.925L683.107,362.46L683.849,369.868L684.592,366.385L685.335,363.588L686.077,359.418L686.82,364.521L687.563,367.611L688.305,372.419L689.048,372.076L689.791,378.65L690.533,379.582L691.276,381.005L692.019,380.024L692.762,374.087L693.504,372.125L694.247,370.064L694.99,374.774L695.732,374.333L696.475,373.695L697.218,369.77L697.96,373.401L698.703,368.004L699.446,359.958L700.188,347.546L700.931,333.907L701.674,343.719L702.416,350.685L703.159,365.6L703.902,369.083L704.644,367.66L705.387,367.072L706.13,360.399L706.872,355.297L707.615,333.416L708.358,333.024L709.1,343.67L709.843,358.339L710.586,361.086L711.328,364.422L712.071,372.37L712.814,373.401L713.556,370.751L714.299,368.249L715.042,360.645L715.785,350.685L716.527,340.088L717.27,349.704L718.013,360.203L718.755,375.02L719.498,373.744L720.241,376.541L720.983,382.133L721.726,382.084L722.469,382.771L723.211,379.435L723.954,381.348L724.697,379.779L725.439,381.692L726.182,386.255L726.925,384.537L727.667,380.318L728.41,374.48L729.153,375.216L729.895,370.997L730.638,368.396L731.381,364.275L732.123,363.49L732.866,372.468L733.609,378.405L734.351,384.881L735.094,382.869L735.837,382.084L736.579,384.734L737.322,385.813L738.065,386.058L738.808,377.718L739.55,372.763L740.293,376.295L741.036,389.689L741.778,394.006L742.521,387.825L743.264,382.869L744.006,374.872L744.749,377.178L745.492,370.702L746.234,362.803L746.977,353.923L747.72,345.142L748.462,350.146L749.205,355.542L749.948,369.77L750.69,376.982L751.433,375.854L752.176,377.031L752.918,379.386L753.661,377.276L754.404,372.468L755.146,365.011L755.889,371.34L756.632,371.291L757.374,381.201L758.117,382.379L758.86,382.624L759.603,379.386L760.345,377.227L761.088,380.956L761.831,376.688L762.573,373.744L763.316,371.144L764.059,376.737L764.801,378.16L765.544,378.552L766.287,375.118L767.029,375.412L767.772,373.94L768.515,375.265L769.257,374.333L770,370.948"/></g></svg>