<svg xmlns="http://www.w3.org/2000/svg" width="830" height="470" fill="currentColor" class="plot-d6a7b5" font-family="system-ui, sans-serif" font-size="10" style="--plot-background:white;display:block;height:intrinsic;max-width:100%;color:#1e90ff" text-anchor="middle" viewBox="0 0 830 470">
    <style>
        :where(.plot-d6a7b5 text),:where(.plot-d6a7b5 tspan){white-space:pre}
    </style>
    <path stroke="currentColor" stroke-opacity=".1" d="
M60
410
h710
M60
378.557
h710
M60
347.114
h710
M60
315.671
h710
M60
284.227
h710
M60
252.784
h710
M60
221.341
h710
M60
189.898
h710
M60
158.455
h710
M60
127.012
h710
M60
95.568
h710
M60
64.125
h710" aria-hidden="true" aria-label="y-grid"/>
    <path fill="none" stroke="currentColor" d="
M60
410
h-6
m6
-31.443
h-6
m6
-31.443
h-6
m6
-31.444
h-6
m6
-31.443
h-6
m6
-31.443
h-6
m6
-31.443
h-6
m6
-31.443
h-6
m6
-31.443
h-6
m6
-31.443
h-6
m6
-31.444
h-6
m6
-31.443
h-6" aria-hidden="true" aria-label="y-axis tick"/>
    <g aria-label="y-axis tick label" font-variant="tabular-nums" text-anchor="end">
        <text y=".32em" transform="translate(51 410)">0</text>
        <text y=".32em" transform="translate(51 378.557)">5,000</text>
        <text y=".32em" transform="translate(51 347.114)">10,000</text>
        <text y=".32em" transform="translate(51 315.67)">15,000</text>
        <text y=".32em" transform="translate(51 284.227)">20,000</text>
        <text y=".32em" transform="translate(51 252.784)">25,000</text>
        <text y=".32em" transform="translate(51 221.341)">30,000</text>
        <text y=".32em" transform="translate(51 189.898)">35,000</text>
        <text y=".32em" transform="translate(51 158.455)">40,000</text>
        <text y=".32em" transform="translate(51 127.012)">45,000</text>
        <text y=".32em" transform="translate(51 95.568)">50,000</text>
        <text y=".32em" transform="translate(51 64.125)">55,000</text>
    </g>
    <text y=".71em" aria-label="y-axis label" text-anchor="start" transform="translate(3 3)">↑ Visible Vestiges (30 days)</text>
    <path fill="none" stroke="currentColor" d="
M82.449
410
v6
m60.084
-6
v6
m60.744
-6
v6
m60.743
-6
v6
m60.084
-6
v6
m60.084
-6
v6
m60.744
-6
v6
m60.744
-6
v6
m59.424
-6
v6
m60.083
-6
v6
m60.744
-6
v6
m60.743
-6
v6" aria-hidden="true" aria-label="x-axis tick"/>
    <g aria-label="x-axis tick label" font-variant="tabular-nums">
        <text transform="translate(82.449 419)"><tspan x="0" y=".71em">Apr</tspan><tspan x="0" dy="1em">2023</tspan></text>
        <text y=".71em" transform="translate(142.533 419)">Jul</text>
        <text y=".71em" transform="translate(203.277 419)">Oct</text>
        <text transform="translate(264.02 419)"><tspan x="0" y=".71em">Jan</tspan><tspan x="0" dy="1em">2024</tspan></text>
        <text y=".71em" transform="translate(324.104 419)">Apr</text>
        <text y=".71em" transform="translate(384.188 419)">Jul</text>
        <text y=".71em" transform="translate(444.932 419)">Oct</text>
        <text transform="translate(505.676 419)"><tspan x="0" y=".71em">Jan</tspan><tspan x="0" dy="1em">2025</tspan></text>
        <text y=".71em" transform="translate(565.1 419)">Apr</text>
        <text y=".71em" transform="translate(625.183 419)">Jul</text>
        <text y=".71em" transform="translate(685.927 419)">Oct</text>
        <text transform="translate(746.67 419)"><tspan x="0" y=".71em">Jan</tspan><tspan x="0" dy="1em">2026</tspan></text>
    </g>
    <path fill="none" stroke="currentColor" stroke-linecap="round" stroke-linejoin="round" stroke-width="1.5" d="
m60
410
.44
-3.157
.44
-11.546
.441
-6.226
.44
-4.414
.44
-7.282
.44
-5.736
.44
-5.376
.44
-10.88
.441
-8.609
.44
-10.219
.44
-15.828
.44
-14.923
.44
-7.748
.44
-11.213
.441
-7.615
.44
-8.729
.44
-11.414
.44
-7.684
.44
-7.534
.44
-10.225
.441
-11.339
.44
-8.03
.44
-13.703
.44
-6.49
.44
-6.056
.441
-10.923
.44
-10.458
.44
-8.05
.44
-11.219
.44
-8.03
.44
1.358
.441
-9.565
.44
-8.112
.44
.025
.44
-1.824
.44
-.314
.44
6.282
.441
.082
.44
1.88
.44
10.012
.44
1.471
.44
-6.314
.44
-1.389
.441
-7.654
.44
-1.622
.44
2.597
.44
-4.327
.44
-2.515
.441
2.949
.44
-1.767
.44
-4.641
.44
1.881
.44
-10.458
.44
-10.037
.441
2.553
.44
-1.962
.44
-3.157
.44
1.176
.44
-3.031
.44
-3.169
.441
4.188
.44
-1.421
.44
-6.113
.44
-3.956
.44
-9.797
.44
-4.931
.441
-.069
.44
-3.653
.44
-4
.44
6.113
.44
4.603
.44
2.396
.441
5.754
.44
-2.132
.44
-3.553
.44
4.962
.44
.264
.441
-.365
.44
8.081
.44
4.893
.44
4.081
.44
8.728
.44
5.453
.441
-2.447
.44
3.975
.44
-.491
.44
1.83
.44
8.855
.44
1.037
.441
3.088
.44
9.339
.44
5.653
.44
4.075
.44
7.741
.44
-1.113
.441
-.66
.44
4.019
.44
2.886
.44
1.189
.44
3.571
.441
.548
.44
4.012
.44
6.892
.44
3.295
.44
-3.238
.44
1.716
.441
-2.735
.44
-1.968
.44
1.282
.44
-1.672
.44
1.779
.44
4.509
.441
2.629
.44
2.044
.44
3.962
.44
.018
.44
-2.075
.44
6.157
.441
2.056
.44
-1.031
.44
2.402
.44
-.044
.44
2.05
.441
5.503
.44
.78
.44
-3.044
.44
-1.107
.44
-4.308
.44
-.371
.441
2.484
.44
-1.905
.44
-1.176
.44
4.32
.44
.862
.44
.666
.441
2.597
.44
-4.301
.44
-1.817
.44
2.144
.44
-.987
.44
-1.975
.441
1.912
.44
.258
.44
-.39
.44
3.402
.44
1.075
.441
.422
.44
1.062
.44
-1.962
.44
-.176
.44
1.761
.44
-1.968
.441
-.34
.44
3.415
.44
5.54
.44
1.585
.44
4.396
.44
-.069
.441
.314
.44
2.025
.44
.176
.44
-.786
.44
3.918
.44
-.239
.441
1.421
.44
6.276
.44
1.723
.44
1.006
.44
2.899
.441
.327
.44
.34
.44
.025
.44
1.327
.44
-.994
.44
2.925
.441
-.566
.44
.251
.44
1.478
.44
-1.792
.44
-.044
.44
1.314
.441
-1.509
.44
-1.302
.44
-.107
.44
-2.654
.44
-1.339
.44
2.063
.441
.05
.44
-.686
.44
2.943
.44
-.924
.44
1.333
.441
2.679
.44
.327
.44
-.604
.44
2.145
.44
-.767
.44
-.623
.441
3.119
.44
-.603
.44
.239
.44
2.169
.44
-1.308
.44
-1.075
.441
1.176
.44
-1.365
.44
.836
.44
1.277
.44
-1.107
.44
.334
.441
1.867
.44
.491
.44
-1.321
.44
3.704
.44
2.333
.44
-1.094
.441
2.729
.44
-.924
.44
-.73
.44
1.516
.44
-2.038
.441
.013
.44
.019
.44
-2.377
.44
-1.585
.44
3.478
.44
-3.025
.441
-1.352
.44
1.195
.44
-1.585
.44
-.415
.44
1.679
.44
-1.73
.441
-1.201
.44
1.044
.44
-2.798
.44
-.22
.44
1.39
.44
-.629
.441
-2.201
.44
-1.61
.44
-4.107
.44
-1.32
h.44
l.441
-1.503
.44
-1.434
.44
2.993
.44
-1.855
.44
-.547
.44
2.365
.441
-1.327
.44
.295
.44
3.855
.44
-.604
.44
-2.647
.44
3.459
.441
-.195
.44
-2.415
.44
.918
.44
-3.119
.44
-.365
.44
.66
.441
-1.93
.44
-.736
.44
2.333
.44
-.685
.44
-.239
.441
2.817
.44
1.786
.44
3.308
.44
6.42
.44
1.164
.44
-.516
.441
1.698
.44
.352
.44
-1.327
.44
1.717
.44
.484
.44
-1.113
.441
2.082
.44
.874
.44
-.843
.44
1.252
.44
-.252
.44
.113
.441
1.233
.44
2.547
.44
2.723
.44
4.062
.44
1.503
.441
2.969
.44
5.056
.44
-1.12
.44
.686
.44
2.157
.44
-.724
.441
1.132
.44
1.925
.44
.773
.44
1.874
.44
1.453
.44
1.396
.441
.358
.44
.12
.44
-2.723
.44
-2.314
.44
1.345
.44
.019
.441
.793
.44
.742
.44
.264
.44
1.144
.44
3.082
.441
-.566
.44
-.704
.44
1.012
.44
-1.893
.44
1.195
.44
1.415
.441
-1.207
.44
-.403
.44
4.107
.44
-.158
.44
.396
.44
1.994
.441
-3.32
.44
-.9
.44
1.013
.44
-1.717
.44
.843
.44
1.257
.441
1.107
.44
1.415
.44
3.874
.44
1.339
.44
-2.207
.44
-.949
.441
-2.73
.44
-.32
.44
1.352
.44
.056
.44
-.126
.441
1.39
.44
.598
.44
.792
.44
2.522
.44
-4.201
.44
-3.214
.441
.082
.44
-.251
.44
.44
.44
3.037
.44
-.264
.44
1.39
.441
2.968
.44
-1.421
.44
-3.993
.44
-.359
.44
-3.232
.44
-.51
.441
.541
.44
-1.798
.44
.666
.44
2.151
.44
1.119
.441
.824
.44
2.887
.44
-.956
.44
-.082
.44
1.956
.44
-1.283
.441
.572
.44
3.132
.44
.465
.44
.189
.44
2.069
.44
.138
.441
-2.226
.44
-.113
.44
-1.151
.44
-.094
.44
1.182
.44
-.975
.441
.824
.44
3.603
.44
2.396
.44
2.359
.44
3.138
.441
-.233
.44
-.138
.44
3.282
.44
.554
.44
1.723
.44
2.54
.441
2.069
.44
1.22
.44
4.019
.44
-1.27
.44
-2.415
.44
.239
.441
-1.315
.44
-1.509
.44
.799
.44
-.484
.44
2.873
.44
2.899
.441
1.535
.44
.365
.44
.754
.44
-2.452
.44
.075
.441
.78
.44
-1.61
.44
-.824
.44
.415
.44
-2.836
.44
.227
.441
.729
.44
.214
.44
-1.409
.44
-.547
.44
-2.245
.44
-.019
.441
1.61
.44
-1.283
.44
-1.408
.44
2.584
.44
2.063
.44
2.094
.441
2.603
.44
.434
.44
-.629
.44
1.931
.44
-1.415
.441
-.346
.44
2.968
.44
1.491
.44
1.503
.44
2.893
.44
-.145
.441
-.264
.44
1.27
.44
.749
.44
1.1
.44
2.163
.44
.698
.441
1.183
.44
1
.44
.1
.44
1.346
.44
1.239
.44
-2.151
.441
-2.151
.44
1.491
.44
-.076
.44
-1.553
.44
-.346
.441
-1.327
.44
-.949
.44
-.195
.44
-1.006
.44
-1.359
.44
.843
.441
-.088
.44
-1.503
.44
-.591
.44
-2.579
.44
-.698
.44
1.541
.441
-.585
.44
1.113
.44
-.081
.44
-1.547
.44
1.025
.44
.018
.441
-1.251
.44
.258
.44
1.585
.44
.27
.44
1.245
.44
1.811
.441
.032
.44
-1.422
.44
-1.106
.44
-1.019
.44
.767
.441
1.22
.44
.396
.44
-.195
.44
-.025
.44
.069
.44
.68
.441
.125
.44
-1.05
.44
-2.912
.44
.755
.44
-1.742
.44
-.503
.441
1.836
.44
-1.597
.44
1.176
.44
2.094
.44
-2.779
.44
-2.925
.441
-.899
.44
-3.622
.44
-1.157
.44
-.686
.44
-1.723
.441
-.471
.44
.918
.44
-.837
.44
1.522
.44
.654
.44
-3.886
.441
-1.686
.44
-.591
.44
-1.132
.44
.78
.44
.635
.44
-2.616
.441
-.415
.44
-.176
.44
1.49
.44
-1.326
.44
-2.139
.44
-4.509
.441
-1.534
.44
-.912
.44
-4.471
.44
-2.006
.44
1.924
.441
1.554
.44
.704
.44
2.22
.44
-2.151
.44
-1.956
.44
1.233
.441
-.994
.44
-.868
.44
.082
.44
-1.503
.44
1.704
.44
2.585
.441
-.924
.44
-1.705
.44
1.365
.44
-1.855
.44
-.233
.44
1.541
.441
.226
.44
1.893
.44
1.403
.44
1.194
.44
3.541
.441
4.075
.44
-1.579
.44
.956
.44
3.214
.44
1.629
.44
.786
.441
.93
.44
.541
.44
1.591
.44
3.145
.44
.188
.44
-.855
.441
1.968
.44
-.591
.44
1.164
.44
2.735
.44
-.075
.44
.213
.441
2.736
.44
1.459
.44
-.415
.44
1.446
.44
-2.861
.441
-.547
.44
1.163
.44
1.881
.44
2.679
.44
3.597
.44
2.848
.441
2.862
.44
5.326
.44
2.943
.44
2.283
.44
2.088
.44
2.018
.441
2.516
.44
2.107
.44
1.245
.44
1.528
.44
3.358
.44
1.409
.441
-1.239
.44
1.811
.44
.736
.44
-.692
.44
.629
.441
1.182
.44
-.195
.44
.956
.44
.811
.44
.541
.44
2.748
.441
.566
h.44
l.44
-1.39
.44
-2.572
.44
-2.786
.44
-1.188
.441
-1.786
.44
-2.654
.44
-1.465
.44
-1.314
.44
-2.164
.44
-1.761
.441
-2.421
.44
-1.76
.44
-.994
.44
-1.597
.44
-.849
.44
-.415
.441
2.113
.44
.748
.44
1.207
.44
.296
.44
.113
.441
-.075
.44
-.397
.44
.441
.44
1.547
.44
.239
.44
.54
.441
1.283
.44
.459
.44
-.849
.44
.787
.44
.251
.44
-.528
.441
.484
.44
.648
.44
-.761
.44
-.786
.44
.824
.44
-.239
.441
.943
.44
.038
.44
-1.862
.44
-.333
.44
-1.302
h.441
l.44
-.339
.44
-.642
.44
-1.232
.44
-.195
.44
-.711
.441
-.579
.44
1.321
.44
-1.138
.44
-1.459
.44
.465
.44
-1.151
.441
.007
.44
.503
.44
1.547
.44
.289
.44
.604
.44
-.378
.441
-3.131
.44
-.157
.44
-1.101
.44
.786
.44
.006
.441
.22
.44
-1.018
.44
1.32
.44
1.17
.44
.145
.44
1.069
.441
-1.422
.44
-2.364
.44
.101
.44
-1.296
.44
.208
.44
.283
.441
-1.101
.44
-1.094
.44
1.144
.44
-.383
.44
-1.113
.44
1.39
.441
-2.246
.44
-.433
.44
-.73
.44
-1.119
.44
-.799
.441
.252
.44
1.371
.44
-.208
.44
.855
.44
-2.132
.44
-2.163
.441
-.761
.44
.271
.44
-2.447
.44
.032
.44
.182
.44
.164
.441
.446
.44
1.572
.44
-.452
.44
1.119
.44
-.862
.44
-.622
.441
2.981
.44
1.521
.44
-.037
.44
1.553
.44
-.352
.441
-.352
.44
2.572
.44
-.145
.44
-2.408
.44
1.213
.44
.61
.441
-1.025
.44
.925
.44
.999
.44
.642
.44
2.553
.44
2.107
.441
.836
.44
.661
.44
-.051
.44
-.371
.44
.466
.44
-1.126
.441
.522
.44
.126
.44
.836
.44
.635
.44
1.195
.44
.623
.441
-1.529
.44
.233
.44
.535
h.44
l.44
2.226
.441
.434
.44
-.529
.44
-.232
.44
1.855
.44
.126
.44
.742
.441
.629
.44
.176
.44
.163
.44
-.371
.44
-.918
.44
-.05
.441
-.145
.44
-.163
.44
1.238
.44
-.622
.44
-2.522
.44
.434
.441
-.585
.44
.308
.44
-.188
.44
-.874
.44
-.529
.441
.73
.44
.666
.44
-.729
.44
-.541
.44
-.56
.44
-1.521
.441
-.422
.44
-1.364
.44
-.981
.44
-.881
.44
-1.987
.44
-1.534
.441
-1.107
.44
-1.623
.44
-.566
.44
-.132
.44
-2.239
.44
-.603
.441
-.063
.44
-.748
.44
.27
.44
2.044
.44
-1.673
.441
-2.453
.44
-2.257
.44
-3.497
.44
-2.515
.44
-.598
.44
-3.112
.441
-3.755
.44
-1.459
.44
-1.22
.44
-1.66
.44
-1.239
.44
-.748
.441
-1.975
.44
.692
.44
1.534
.44
.239
.44
1.591
.44
1.114
.441
.974
.44
1.359
.44
-.818
.44
-.792
.44
1.144
.441
-.195
.44
-.434
.44
.629
.44
.019
.44
-.339
.44
4.842
.441
3.899
.44
3.572
.44
3.685
.44
3.163
.44
1.22
.44
3.597
.441
3.629
.44
1.823
.44
1.327
.44
2.264
.44
.899
.44
1.95
.441
2.176
.44
1.22
.44
-.529
.44
.761
.44
-.289
.441
.283
.44
.522
.44
.874
.44
1.063
.44
2.151
.44
1.911
.441
1.051
.44
1.314
.44
.151
.44
.277
.44
-.095
.44
-.44
.441
-.566
.44
-.057
.44
-.232
.44
-.057
.44
-.289
.44
-1.679
.441
-1.327
.44
-2.616
.44
-.05
.44
-.598
.44
.39
.441
.484
.44
-.207
.44
-.635
.44
.075
.44
-.503
.44
-2.905
.441
-.629
.44
.465
.44
-1.641
.44
-.233
.44
.05
.44
-.742
.441
-.283
.44
-.163
.44
-.302
.44
-1.006
.44
-1.176
.44
-2.264
.441
.283
.44
.251
.44
.139
.44
-.346
.44
1.302
.44
1.886
.441
1.239
.44
3.138
.44
.201
.44
.592
.44
1.025
h.441
l.44
1.358
.44
.88
.44
.315
.44
1.264
.44
3.779
.441
-.176
.44
-.434
.44
1.371
.44
-.629
.44
.29
.44
1.113
.441
.069
.44
.371
.44
1.333
.44
1.384
.44
1.786
.44
2.723
.441
-.919
.44
-.195
.44
1.277
.44
.962
h.44
l.441
-.232
.44
.333
.44
-1.113
.44
.49
.44
-.742
.44
-1.924
.441
-.893
.44
-2.453
.44
-1.062
.44
.339
.44
.12
.44
-.233
.441
.736
.44
.603
.44
.598
.44
.566
.44
-1.164
.44
-1.119
.441
.547
.44
-.912
.44
.252
.44
.358
.44
-1.018
.441
-.195
.44
1.15
.44
.095
.44
-1.195
.44
-.943
.44
-.793
.441
.315
.44
-.126
.44
.283
.44
-.421
.44
.742
.44
1.106
.441
.887
.44
1.748
.44
.032
.44
-.786
.44
.503
.44
.1
.441
.158
.44
.295
.44
-.239
.44
.855
.44
1.315
.441
.754
.44
.428
.44
1.528
.44
-.119
.44
-.29
.44
1.208
.441
.471
.44
-.138
.44
-.742
.44
.352
.44
-.371
.44
.937
.441
-.094
.44
.534
.44
.459
.44
.271
.44
.736
.44
.981
.441
-.176
.44
.345
.44
1.202
.44
.327
.44
-1.013
.441
.271
.44
-.359
.44
-.05
.44
-.503
.44
-.334
.44
-.106
.441
.471
.44
-.71
.44
-.749
.44
-.365
.44
-.999
.44
-.032
.441
-.924
h.44
l.44
1.031
.44
.522
.44
.893
.44
-.025
.441
.075
.44
-.245
.44
-.566
.44
-.277
.44
-2.402
.44
-1.302
.441
-.276
.44
-.918
.44
-.478
.44
.496
.44
-.547
.441
-1.528
.44
.472
.44
-1.308
.44
.421
.44
.509
.44
-.93
.441
-.29
.44
.158
.44
.264
.44
-.516
.44
1.145
.44
-.591
.441
.427
.44
-.082
.44
.063
.44
-.302
.44
.026
.44
-.371
.441
-.654
.44
-.126
.44
-.403
.44
.145
.44
1.66
.441
.459
.44
.088
.44
.283
.44
-.371
.44
.088
.44
1.648
.441
.868
.44
-.076
.44
1.032
.44
-.246
.44
-1.012
.44
-1.044
.441
-2.239
.44
-1.195
.44
-.471
.44
.314
.44
-.044
.44
-.012
.441
-.592
.44
.283
.44
.095
.44
-1.227
.44
-1.05
.441
.113
.44
-.138
.44
-.277
.44
.755
.44
-.201
.44
-.648
.441
-.685
.44
.094
.44
.22
.44
.855
.44
.038
.44
-.34
.441
1.164
.44
-.793
.44
.315
.44
.094
.44
-.113
.44
1
.441
1.025
.44
.22
.44
-.214
.44
-.05
.44
-1.365
h.441
l.44
.453
.44
-1.063
.44
-.471
.44
.735
.44
-.182
.441
-.075
.44
.584
.44
-.44
.44
.088
.44
-.912
.44
.692
.441
.132
.44
-.377
.44
.327
.44
-.05
.44
-.202
.44
-1.798
.441
-2.34
.44
.365
.44
-1.509
.44
-.038
.44
.113
.441
-1.188
.44
.157
.44
.333
.44
-.346
.44
.239
.44
.919
.441
-.177
.44
-.295
.44
.748
.44
-.289
.44
.314
.44
.705
.441
-1.189
.44
-.522
.44
.862
.44
.27
.44
1.138
.44
.088
.441
1.063
.44
1.12
.44
.358
.44
-.295
.44
.773
.441
2.05
.44
1.535
.44
.578
.44
1.371
.44
-.163
.44
.968
.441
1.365
.44
1.207
.44
-.069
.44
1.006
.44
-.321
.44
.95
.441
.704
.44
-.465
.44
.346
.44
.408
.44
.724
.44
.673
.441
.811
.44
.824
.44
.195
.44
.729
.44
.352
.44
.837
.441
.314
.44
.195
.44
-.56
.44
-.063
.44
-.66
.441
.428
.44
.478
.44
.603
.44
.673
.44
1.484
.44
-.32
.441
.553
.44
-.101
.44
1.497
.44
.069
.44
.843
.44
-.585
.441
.409
.44
1.522
.44
.591
.44
.163
.44
-.49
.44
.094
.441
.811
.44
.258
.44
.378
.44
-.139
.44
.679
.441
.158
.44
.377
.44
-.182
.44
1.27
.44
1.044
.44
1.207
.441
.12
.44
.603
.44
.478
.44
.202
.44
.094
.44
1.107
.441
.553
.44
.39
.44
.157
.44
.403
.44
.704
.44
.692
.441
-.101
.44
.044
.44
.208
.44
.125
.44
.73
.441
.516
.44
.32
.44
.176
.44
.038
.44
.315
.44
.132
.441
.05
.44
.27
.44
.453
.44
-.352
.44
-.019
.44
-.182
.441
-.271
.44
-.566
.44
-.32
.44
-.258
.44
-.378
.44
-.05
.441
-.176
.44
-.088
.44
-.113
.44
-.554
.44
-.805
.441
-.037
.44
-.365
.44
.189
.44
.006
.44
.717
.44
-.302
.441
-.824
.44
.113
.44
-.44
.44
-.22
.44
-.233
.44
-.239
.441
-.025
.44
-.201
.44
-.151
.44
-.201
.44
-.189
.44
-.409
.441
.007
.44
.61
.44
-.258
.44
.088
.44
.258
.441
.138
.44
.195
.44
.403
.44
-.07
.44
.365
.44
.629
.441
.094
.44
.579
.44
.107
.44
.056
.44
-.012
.44
.44
.441
.572
.44
-.037
.44
.578
.44
-.182
.44
-.202
.44
-.012
.441
-.302
.44
-.34
.44
-.194
.44
.377
.44
.088
.441
.113
.44
.113
.44
-.17
.44
.214
.44
-.503
.44
.113
.441
-.125
.44
-.132
.44
-.548
.44
.07
.44
-.365
.44
-.403
.441
.063
.44
-.981
.44
-.541
.44
-.069
.44
-.509
h.44
l.441
-.006
.44
.239
.44
-.038
.44
.641
.44
.365
.44
-.057
.441
.151
.44
.107
.44
.057
.44
-.78
.44
.126
.441
.163
.44
.315
.44
-.245
.44
.031
.44
-.006
.44
-.051
.441
-.251
.44
-.252
.44
.239
.44
.145
.44
.283
.44
.094
.441
.315
.44
.83
.44
.314
.44
-.339
.44
.32
.44
-.195
.441
.239
.44
-.717
.44
-.515
.44
-.264
.44
-.12
.441
-.478
.44
-.063
.44
.271
.44
.421
.44
.761
.44
.157
.441
-.251
.44
-.214
.44
.402
.44
.346
.44
.308
.44
.132
.441
-.113
.44
.277
.44
.327
.44
.119
.44
.636
.44
.371
.441
-.038
.44
.182
.44
.076
.44
.484
.44
.283
.441
.239
.44
.138
.44
.415
.44
.164
.44
.396
.44
-.164
.441
-.031
.44
-.937
.44
-.673
.44
-.075
.44
.037
.44
-.157
.441
.447
.44
.157
.44
-.239
.44
-.478
.44
-.189
.44
-.308
.441
.277
.44
.402
.44
-.012
.44
-.698
.44
-.315
.441
-.138
.44
-.277
.44
-.157
.44
-.245
.44
-.29
.44
-.679
.441
.145
.44
.101
.44
.125
.44
.434
.44
.082
.44
-.371
.441
.654
.44
.711
.44
.301
.44
.277
.44
.271
.44
.345
.441
.195
.44
.076
.44
.239
.44
.591
.44
.302
.441
.144
.44
.007
.44
-.069
.44
.289
.44
.748
.44
.308
.441
.246
.44
.352
.44
.025
.44
.138
.44
-.698
.44
-.346
.441
-.635
.44
-.126
.44
.221
.44
-.145
.44
-.434
.44
.553
.441
-.125
.44
-.353
.44
-.062
.44
-.447
.44
-.748
.44
-.321
.441
-.138
.44
-.189
.44
-.013
.44
-.496
.44
-.139
.441
-.025
.44
.132
.44
-.534
.44
-.547
.44
-.774
.44
-.22
.441
.006
.44
-.038
.44
.101
.44
.176
.44
.969
.44
1.119
.441
.491
.44
.144
.44
-.314
.44
.1
.44
-.107
.44
.202
.441
.201
.44
.761
.44
.61
.44
-.019
.44
.365
.441
-.145
.44
-.063
.44
.239
h.44
l.44
.289
.44
.202
.441
.188
.44
-.125
.44
.144
.44
.063
.44
.774
.44
-.088
.441
-.214
.44
-.157
.44
.075
.44
.075
.44
.164
.44
.057
.441
-.095
.44
.032
.44
.044
.44
.012
.44
.56
.441
-.069
.44
.031
.44
-.05
.44
-.151
.44
.057
.44
.339
.441
.327
.44
.264
.44
-.012
.44
.006
.44
-.358
.44
.377
.441
-.233
.44
-.056
.44
.383
.44
.17
.44
-.277
.44
-.069
.441
-.283
.44
-.302
.44
-.226
.44
-.371
.44
-.082
.441
-.189
.44
.12
.44
-.145
.44
.227
.44
.327
.44
-.044
.441
-.032
.44
-.019
.44
.189
.44
.17
.44
.056
.44
-.062
.441
-.283
.44
-.12
.44
-.044
.44
.038
.44
.364
.44
-.062
.441
.169
.44
-.257
.44
-.057
.44
.05
.44
-.006
.441
.365
.44
.364
.44
.252
.44
.075
.44
.566
.44
-.402
.441
-.069
.44
.012
.44
-.031
.44
-.478
.44
-.195
.44
-.239
.441
.019
.44
.031
.44
-.427
.44
.17
.44
.352
.44
-.302
.441
-.239
.44
-.208
.44
.12
.44
.126
.44
.239
.441
-.076
h.44
l.44
.327
.44
-.434
.44
-.1
.44
.025
.441
-.139
.44
-.503
.44
-.283
.44
.176
.44
-.308
.44
.378
.441
.069
.44
.082
.44
-.089
.44
.321
.44
-.113
.44
-.138
.441
-1.063
.44
-.403
.44
.082
.44
-.805
.44
-.685
.44
.119
.441
-.22
.44
.296
.44
-.453
.44
-.164
.44
-.478
h.441
l.44
-.421
.44
-.063
.44
.233
.44
-.101
.44
-.094
.441
-.409
.44
.007
.44
.377
.44
-.032
.44
-.39
.44
-.276
.441
-.227
.44
-.478
.44
-.113
.44
-.195
.44
.025
.44
-.238
.441
.974
.44
.208
.44
-.201
.44
.327
.44
-.195
.441
-.233
.44
.786
.44
-.239
.44
.245
.44
.076
.44
-.491
.441
-.201
.44
.214
.44
-.05
.44
-.34
.44
.251
.44
.271
.441
.396
.44
.572
.44
-.383
.44
-.176
.44
.383
.44
.334
.441
.333
.44
.415
.44
-.315" aria-label="line"/>
</svg>
