<svg xmlns="http://www.w3.org/2000/svg" width="830" height="470" fill="currentColor" class="plot-d6a7b5" font-family="system-ui, sans-serif" font-size="10" style="--plot-background:white;display:block;height:intrinsic;max-width:100%;color:#1e90ff" text-anchor="middle" viewBox="0 0 830 470">
    <style>
        :where(.plot-d6a7b5 text),:where(.plot-d6a7b5 tspan){white-space:pre}
    </style>
    <path stroke="currentColor" stroke-opacity=".1" d="
M60
410
h710
M60
378.557
h710
M60
347.114
h710
M60
315.671
h710
M60
284.227
h710
M60
252.784
h710
M60
221.341
h710
M60
189.898
h710
M60
158.455
h710
M60
127.012
h710
M60
95.568
h710
M60
64.125
h710" aria-hidden="true" aria-label="y-grid"/>
    <path fill="none" stroke="currentColor" d="
M60
410
h-6
m6
-31.443
h-6
m6
-31.443
h-6
m6
-31.444
h-6
m6
-31.443
h-6
m6
-31.443
h-6
m6
-31.443
h-6
m6
-31.443
h-6
m6
-31.443
h-6
m6
-31.443
h-6
m6
-31.444
h-6
m6
-31.443
h-6" aria-hidden="true" aria-label="y-axis tick"/>
    <g aria-label="y-axis tick label" font-variant="tabular-nums" text-anchor="end">
        <text y=".32em" transform="translate(51 410)">0</text>
        <text y=".32em" transform="translate(51 378.557)">5,000</text>
        <text y=".32em" transform="translate(51 347.114)">10,000</text>
        <text y=".32em" transform="translate(51 315.67)">15,000</text>
        <text y=".32em" transform="translate(51 284.227)">20,000</text>
        <text y=".32em" transform="translate(51 252.784)">25,000</text>
        <text y=".32em" transform="translate(51 221.341)">30,000</text>
        <text y=".32em" transform="translate(51 189.898)">35,000</text>
        <text y=".32em" transform="translate(51 158.455)">40,000</text>
        <text y=".32em" transform="translate(51 127.012)">45,000</text>
        <text y=".32em" transform="translate(51 95.568)">50,000</text>
        <text y=".32em" transform="translate(51 64.125)">55,000</text>
    </g>
    <text y=".71em" aria-label="y-axis label" text-anchor="start" transform="translate(3 3)">↑ Visible vestiges (30 days)</text>
    <path fill="none" stroke="currentColor" d="
M82.16
410
v6
m59.312
-6
v6
m59.963
-6
v6
m59.963
-6
v6
m59.312
-6
v6
m59.311
-6
v6
m59.964
-6
v6
m59.963
-6
v6
m58.66
-6
v6
m59.312
-6
v6
m59.962
-6
v6
m59.964
-6
v6" aria-hidden="true" aria-label="x-axis tick"/>
    <g aria-label="x-axis tick label" font-variant="tabular-nums">
        <text transform="translate(82.16 419)"><tspan x="0" y=".71em">Apr</tspan><tspan x="0" dy="1em">2023</tspan></text>
        <text y=".71em" transform="translate(141.472 419)">Jul</text>
        <text y=".71em" transform="translate(201.435 419)">Oct</text>
        <text transform="translate(261.398 419)"><tspan x="0" y=".71em">Jan</tspan><tspan x="0" dy="1em">2024</tspan></text>
        <text y=".71em" transform="translate(320.71 419)">Apr</text>
        <text y=".71em" transform="translate(380.021 419)">Jul</text>
        <text y=".71em" transform="translate(439.985 419)">Oct</text>
        <text transform="translate(499.948 419)"><tspan x="0" y=".71em">Jan</tspan><tspan x="0" dy="1em">2025</tspan></text>
        <text y=".71em" transform="translate(558.608 419)">Apr</text>
        <text y=".71em" transform="translate(617.92 419)">Jul</text>
        <text y=".71em" transform="translate(677.882 419)">Oct</text>
        <text transform="translate(737.846 419)"><tspan x="0" y=".71em">Jan</tspan><tspan x="0" dy="1em">2026</tspan></text>
    </g>
    <path fill="none" stroke="currentColor" stroke-linecap="round" stroke-linejoin="round" stroke-width="1.5" d="
m60
410
.435
-3.157
.434
-11.546
.435
-6.226
.434
-4.414
.435
-7.282
.434
-5.736
.435
-5.376
.434
-10.88
.435
-8.609
.434
-10.219
.435
-15.828
.434
-14.923
.435
-7.748
.434
-11.213
.435
-7.615
.434
-8.729
.435
-11.414
.434
-7.684
.435
-7.534
.434
-10.225
.435
-11.339
.434
-8.03
.435
-13.703
.434
-6.49
.435
-6.056
.434
-10.923
.435
-10.458
.434
-8.05
.435
-11.219
.434
-8.03
.435
1.358
.435
-9.565
.434
-8.112
.435
.025
.434
-1.824
.435
-.314
.434
6.282
.435
.082
.434
1.88
.435
10.012
.434
1.471
.435
-6.314
.434
-1.389
.435
-7.654
.434
-1.622
.435
2.597
.434
-4.327
.435
-2.515
.434
2.949
.435
-1.767
.434
-4.641
.435
1.881
.434
-10.458
.435
-10.037
.434
2.553
.435
-1.962
.434
-3.157
.435
1.176
.434
-3.031
.435
-3.169
.435
4.188
.434
-1.421
.435
-6.113
.434
-3.956
.435
-9.797
.434
-4.931
.435
-.069
.434
-3.653
.435
-4
.434
6.113
.435
4.603
.434
2.396
.435
5.754
.434
-2.132
.435
-3.553
.434
4.962
.435
.264
.434
-.365
.435
8.081
.434
4.893
.435
4.081
.434
8.728
.435
5.453
.434
-2.447
.435
3.975
.434
-.491
.435
1.83
.434
8.855
.435
1.037
.434
3.088
.435
9.339
.435
5.653
.434
4.075
.435
7.741
.434
-1.113
.435
-.66
.434
4.019
.435
2.886
.434
1.189
.435
3.571
.434
.548
.435
4.012
.434
6.892
.435
3.295
.434
-3.238
.435
1.716
.434
-2.735
.435
-1.968
.434
1.282
.435
-1.672
.434
1.779
.435
4.509
.434
2.629
.435
2.044
.434
3.962
.435
.018
.434
-2.075
.435
6.157
.434
2.056
.435
-1.031
.434
2.402
.435
-.044
.435
2.05
.434
5.503
.435
.78
.434
-3.044
.435
-1.107
.434
-4.308
.435
-.371
.434
2.484
.435
-1.905
.434
-1.176
.435
4.32
.434
.862
.435
.666
.434
2.597
.435
-4.301
.434
-1.817
.435
2.144
.434
-.987
.435
-1.975
.434
1.912
.435
.258
.434
-.39
.435
3.402
.434
1.075
.435
.422
.434
1.062
.435
-1.962
.434
-.176
.435
1.761
.435
-1.968
.434
-.34
.435
3.415
.434
5.54
.435
1.585
.434
4.396
.435
-.069
.434
.314
.435
2.025
.434
.176
.435
-.786
.434
3.918
.435
-.239
.434
1.421
.435
6.276
.434
1.723
.435
1.006
.434
2.899
.435
.327
.434
.34
.435
.025
.434
1.327
.435
-.994
.434
2.925
.435
-.566
.434
.251
.435
1.478
.434
-1.792
.435
-.044
.434
1.314
.435
-1.509
.435
-1.302
.434
-.107
.435
-2.654
.434
-1.339
.435
2.063
.434
.05
.435
-.686
.434
2.943
.435
-.924
.434
1.333
.435
2.679
.434
.327
.435
-.604
.434
2.145
.435
-.767
.434
-.623
.435
3.119
.434
-.603
.435
.239
.434
2.169
.435
-1.308
.434
-1.075
.435
1.176
.434
-1.365
.435
.836
.434
1.277
.435
-1.107
.434
.334
.435
1.867
.435
.491
.434
-1.321
.435
3.704
.434
2.333
.435
-1.094
.434
2.729
.435
-.924
.434
-.73
.435
1.516
.434
-2.038
.435
.013
.434
.019
.435
-2.377
.434
-1.585
.435
3.478
.434
-3.025
.435
-1.352
.434
1.195
.435
-1.585
.434
-.415
.435
1.679
.434
-1.73
.435
-1.201
.434
1.044
.435
-2.798
.434
-.22
.435
1.39
.434
-.629
.435
-2.201
.434
-1.61
.435
-4.107
.435
-1.32
h.434
l.435
-1.503
.434
-1.434
.435
2.993
.434
-1.855
.435
-.547
.434
2.365
.435
-1.327
.434
.295
.435
3.855
.434
-.604
.435
-2.647
.434
3.459
.435
-.195
.434
-2.415
.435
.918
.434
-3.119
.435
-.365
.434
.66
.435
-1.93
.434
-.736
.435
2.333
.434
-.685
.435
-.239
.434
2.817
.435
1.786
.434
3.308
.435
6.42
.434
1.164
.435
-.516
.435
1.698
.434
.352
.435
-1.327
.434
1.717
.435
.484
.434
-1.113
.435
2.082
.434
.874
.435
-.843
.434
1.252
.435
-.252
.434
.113
.435
1.233
.434
2.547
.435
2.723
.434
4.062
.435
1.503
.434
2.969
.435
5.056
.434
-1.12
.435
.686
.434
2.157
.435
-.724
.434
1.132
.435
1.925
.434
.773
.435
1.874
.434
1.453
.435
1.396
.435
.358
.434
.12
.435
-2.723
.434
-2.314
.435
1.345
.434
.019
.435
.793
.434
.742
.435
.264
.434
1.144
.435
3.082
.434
-.566
.435
-.704
.434
1.012
.435
-1.893
.434
1.195
.435
1.415
.434
-1.207
.435
-.403
.434
4.107
.435
-.158
.434
.396
.435
1.994
.434
-3.32
.435
-.9
.434
1.013
.435
-1.717
.434
.843
.435
1.257
.434
1.107
.435
1.415
.435
3.874
.434
1.339
.435
-2.207
.434
-.949
.435
-2.73
.434
-.32
.435
1.352
.434
.056
.435
-.126
.434
1.39
.435
.598
.434
.792
.435
2.522
.434
-4.201
.435
-3.214
.434
.082
.435
-.251
.434
.44
.435
3.037
.434
-.264
.435
1.39
.434
2.968
.435
-1.421
.434
-3.993
.435
-.359
.434
-3.232
.435
-.51
.434
.541
.435
-1.798
.434
.666
.435
2.151
.435
1.119
.434
.824
.435
2.887
.434
-.956
.435
-.082
.434
1.956
.435
-1.283
.434
.572
.435
3.132
.434
.465
.435
.189
.434
2.069
.435
.138
.434
-2.226
.435
-.113
.434
-1.151
.435
-.094
.434
1.182
.435
-.975
.434
.824
.435
3.603
.434
2.396
.435
2.359
.434
3.138
.435
-.233
.434
-.138
.435
3.282
.434
.554
.435
1.723
.435
2.54
.434
2.069
.435
1.22
.434
4.019
.435
-1.27
.434
-2.415
.435
.239
.434
-1.315
.435
-1.509
.434
.799
.435
-.484
.434
2.873
.435
2.899
.434
1.535
.435
.365
.434
.754
.435
-2.452
.434
.075
.435
.78
.434
-1.61
.435
-.824
.434
.415
.435
-2.836
.434
.227
.435
.729
.434
.214
.435
-1.409
.434
-.547
.435
-2.245
.434
-.019
.435
1.61
.435
-1.283
.434
-1.408
.435
2.584
.434
2.063
.435
2.094
.434
2.603
.435
.434
.434
-.629
.435
1.931
.434
-1.415
.435
-.346
.434
2.968
.435
1.491
.434
1.503
.435
2.893
.434
-.145
.435
-.264
.434
1.27
.435
.749
.434
1.1
.435
2.163
.434
.698
.435
1.183
.434
1
.435
.1
.434
1.346
.435
1.239
.434
-2.151
.435
-2.151
.435
1.491
.434
-.076
.435
-1.553
.434
-.346
.435
-1.327
.434
-.949
.435
-.195
.434
-1.006
.435
-1.359
.434
.843
.435
-.088
.434
-1.503
.435
-.591
.434
-2.579
.435
-.698
.434
1.541
.435
-.585
.434
1.113
.435
-.081
.434
-1.547
.435
1.025
.434
.018
.435
-1.251
.434
.258
.435
1.585
.434
.27
.435
1.245
.434
1.811
.435
.032
.434
-1.422
.435
-1.106
.435
-1.019
.434
.767
.435
1.22
.434
.396
.435
-.195
.434
-.025
.435
.069
.434
.68
.435
.125
.434
-1.05
.435
-2.912
.434
.755
.435
-1.742
.434
-.503
.435
1.836
.434
-1.597
.435
1.176
.434
2.094
.435
-2.779
.434
-2.925
.435
-.899
.434
-3.622
.435
-1.157
.434
-.686
.435
-1.723
.434
-.471
.435
.918
.434
-.837
.435
1.522
.434
.654
.435
-3.886
.435
-1.686
.434
-.591
.435
-1.132
.434
.78
.435
.635
.434
-2.616
.435
-.415
.434
-.176
.435
1.49
.434
-1.326
.435
-2.139
.434
-4.509
.435
-1.534
.434
-.912
.435
-4.471
.434
-2.006
.435
1.924
.434
1.554
.435
.704
.434
2.22
.435
-2.151
.434
-1.956
.435
1.233
.434
-.994
.435
-.868
.434
.082
.435
-1.503
.434
1.704
.435
2.585
.435
-.924
.434
-1.705
.435
1.365
.434
-1.855
.435
-.233
.434
1.541
.435
.226
.434
1.893
.435
1.403
.434
1.194
.435
3.541
.434
4.075
.435
-1.579
.434
.956
.435
3.214
.434
1.629
.435
.786
.434
.93
.435
.541
.434
1.591
.435
3.145
.434
.188
.435
-.855
.434
1.968
.435
-.591
.434
1.164
.435
2.735
.434
-.075
.435
.213
.434
2.736
.435
1.459
.435
-.415
.434
1.446
.435
-2.861
.434
-.547
.435
1.163
.434
1.881
.435
2.679
.434
3.597
.435
2.848
.434
2.862
.435
5.326
.434
2.943
.435
2.283
.434
2.088
.435
2.018
.434
2.516
.435
2.107
.434
1.245
.435
1.528
.434
3.358
.435
1.409
.434
-1.239
.435
1.811
.434
.736
.435
-.692
.434
.629
.435
1.182
.434
-.195
.435
.956
.434
.811
.435
.541
.435
2.748
.434
.566
h.435
l.434
-1.39
.435
-2.572
.434
-2.786
.435
-1.188
.434
-1.786
.435
-2.654
.434
-1.465
.435
-1.314
.434
-2.164
.435
-1.761
.434
-2.421
.435
-1.76
.434
-.994
.435
-1.597
.434
-.849
.435
-.415
.434
2.113
.435
.748
.434
1.207
.435
.296
.434
.113
.435
-.075
.434
-.397
.435
.441
.434
1.547
.435
.239
.435
.54
.434
1.283
.435
.459
.434
-.849
.435
.787
.434
.251
.435
-.528
.434
.484
.435
.648
.434
-.761
.435
-.786
.434
.824
.435
-.239
.434
.943
.435
.038
.434
-1.862
.435
-.333
.434
-1.302
h.435
l.434
-.339
.435
-.642
.434
-1.232
.435
-.195
.434
-.711
.435
-.579
.434
1.321
.435
-1.138
.434
-1.459
.435
.465
.434
-1.151
.435
.007
.435
.503
.434
1.547
.435
.289
.434
.604
.435
-.378
.434
-3.131
.435
-.157
.434
-1.101
.435
.786
.434
.006
.435
.22
.434
-1.018
.435
1.32
.434
1.17
.435
.145
.434
1.069
.435
-1.422
.434
-2.364
.435
.101
.434
-1.296
.435
.208
.434
.283
.435
-1.101
.434
-1.094
.435
1.144
.434
-.383
.435
-1.113
.434
1.39
.435
-2.246
.435
-.433
.434
-.73
.435
-1.119
.434
-.799
.435
.252
.434
1.371
.435
-.208
.434
.855
.435
-2.132
.434
-2.163
.435
-.761
.434
.271
.435
-2.447
.434
.032
.435
.182
.434
.164
.435
.446
.434
1.572
.435
-.452
.434
1.119
.435
-.862
.434
-.622
.435
2.981
.434
1.521
.435
-.037
.434
1.553
.435
-.352
.434
-.352
.435
2.572
.434
-.145
.435
-2.408
.435
1.213
.434
.61
.435
-1.025
.434
.925
.435
.999
.434
.642
.435
2.553
.434
2.107
.435
.836
.434
.661
.435
-.051
.434
-.371
.435
.466
.434
-1.126
.435
.522
.434
.126
.435
.836
.434
.635
.435
1.195
.434
.623
.435
-1.529
.434
.233
.435
.535
h.434
l.435
2.226
.434
.434
.435
-.529
.434
-.232
.435
1.855
.434
.126
.435
.742
.435
.629
.434
.176
.435
.163
.434
-.371
.435
-.918
.434
-.05
.435
-.145
.434
-.163
.435
1.238
.434
-.622
.435
-2.522
.434
.434
.435
-.585
.434
.308
.435
-.188
.434
-.874
.435
-.529
.434
.73
.435
.666
.434
-.729
.435
-.541
.434
-.56
.435
-1.521
.434
-.422
.435
-1.364
.434
-.981
.435
-.881
.434
-1.987
.435
-1.534
.435
-1.107
.434
-1.623
.435
-.566
.434
-.132
.435
-2.239
.434
-.603
.435
-.063
.434
-.748
.435
.27
.434
2.044
.435
-1.673
.434
-2.453
.435
-2.257
.434
-3.497
.435
-2.515
.434
-.598
.435
-3.112
.434
-3.755
.435
-1.459
.434
-1.22
.435
-1.66
.434
-1.239
.435
-.748
.434
-1.975
.435
.692
.434
1.534
.435
.239
.434
1.591
.435
1.114
.434
.974
.435
1.359
.435
-.818
.434
-.792
.435
1.144
.434
-.195
.435
-.434
.434
.629
.435
.019
.434
-.339
.435
4.842
.434
3.899
.435
3.572
.434
3.685
.435
3.163
.434
1.22
.435
3.597
.434
3.629
.435
1.823
.434
1.327
.435
2.264
.434
.899
.435
1.95
.434
2.176
.435
1.22
.434
-.529
.435
.761
.434
-.289
.435
.283
.434
.522
.435
.874
.434
1.063
.435
2.151
.435
1.911
.434
1.051
.435
1.314
.434
.151
.435
.277
.434
-.095
.435
-.44
.434
-.566
.435
-.057
.434
-.232
.435
-.057
.434
-.289
.435
-1.679
.434
-1.327
.435
-2.616
.434
-.05
.435
-.598
.434
.39
.435
.484
.434
-.207
.435
-.635
.434
.075
.435
-.503
.434
-2.905
.435
-.629
.434
.465
.435
-1.641
.434
-.233
.435
.05
.435
-.742
.434
-.283
.435
-.163
.434
-.302
.435
-1.006
.434
-1.176
.435
-2.264
.434
.283
.435
.251
.434
.139
.435
-.346
.434
1.302
.435
1.886
.434
1.239
.435
3.138
.434
.201
.435
.592
.434
1.025
h.435
l.434
1.358
.435
.88
.434
.315
.435
1.264
.434
3.779
.435
-.176
.434
-.434
.435
1.371
.434
-.629
.435
.29
.434
1.113
.435
.069
.435
.371
.434
1.333
.435
1.384
.434
1.786
.435
2.723
.434
-.919
.435
-.195
.434
1.277
.435
.962
h.434
l.435
-.232
.434
.333
.435
-1.113
.434
.49
.435
-.742
.434
-1.924
.435
-.893
.434
-2.453
.435
-1.062
.434
.339
.435
.12
.434
-.233
.435
.736
.434
.603
.435
.598
.434
.566
.435
-1.164
.434
-1.119
.435
.547
.434
-.912
.435
.252
.435
.358
.434
-1.018
.435
-.195
.434
1.15
.435
.095
.434
-1.195
.435
-.943
.434
-.793
.435
.315
.434
-.126
.435
.283
.434
-.421
.435
.742
.434
1.106
.435
.887
.434
1.748
.435
.032
.434
-.786
.435
.503
.434
.1
.435
.158
.434
.295
.435
-.239
.434
.855
.435
1.315
.434
.754
.435
.428
.434
1.528
.435
-.119
.435
-.29
.434
1.208
.435
.471
.434
-.138
.435
-.742
.434
.352
.435
-.371
.434
.937
.435
-.094
.434
.534
.435
.459
.434
.271
.435
.736
.434
.981
.435
-.176
.434
.345
.435
1.202
.434
.327
.435
-1.013
.434
.271
.435
-.359
.434
-.05
.435
-.503
.434
-.334
.435
-.106
.434
.471
.435
-.71
.434
-.749
.435
-.365
.434
-.999
.435
-.032
.435
-.924
h.434
l.435
1.031
.434
.522
.435
.893
.434
-.025
.435
.075
.434
-.245
.435
-.566
.434
-.277
.435
-2.402
.434
-1.302
.435
-.276
.434
-.918
.435
-.478
.434
.496
.435
-.547
.434
-1.528
.435
.472
.434
-1.308
.435
.421
.434
.509
.435
-.93
.434
-.29
.435
.158
.434
.264
.435
-.516
.434
1.145
.435
-.591
.435
.427
.434
-.082
.435
.063
.434
-.302
.435
.026
.434
-.371
.435
-.654
.434
-.126
.435
-.403
.434
.145
.435
1.66
.434
.459
.435
.088
.434
.283
.435
-.371
.434
.088
.435
1.648
.434
.868
.435
-.076
.434
1.032
.435
-.246
.434
-1.012
.435
-1.044
.434
-2.239
.435
-1.195
.434
-.471
.435
.314
.434
-.044
.435
-.012
.434
-.592
.435
.283
.435
.095
.434
-1.227
.435
-1.05
.434
.113
.435
-.138
.434
-.277
.435
.755
.434
-.201
.435
-.648
.434
-.685
.435
.094
.434
.22
.435
.855
.434
.038
.435
-.34
.434
1.164
.435
-.793
.434
.315
.435
.094
.434
-.113
.435
1
.434
1.025
.435
.22
.434
-.214
.435
-.05
.434
-1.365
h.435
l.434
.453
.435
-1.063
.434
-.471
.435
.735
.435
-.182
.434
-.075
.435
.584
.434
-.44
.435
.088
.434
-.912
.435
.692
.434
.132
.435
-.377
.434
.327
.435
-.05
.434
-.202
.435
-1.798
.434
-2.34
.435
.365
.434
-1.509
.435
-.038
.434
.113
.435
-1.188
.434
.157
.435
.333
.434
-.346
.435
.239
.434
.919
.435
-.177
.434
-.295
.435
.748
.434
-.289
.435
.314
.435
.705
.434
-1.189
.435
-.522
.434
.862
.435
.27
.434
1.138
.435
.088
.434
1.063
.435
1.12
.434
.358
.435
-.295
.434
.773
.435
2.05
.434
1.535
.435
.578
.434
1.371
.435
-.163
.434
.968
.435
1.365
.434
1.207
.435
-.069
.434
1.006
.435
-.321
.434
.95
.435
.704
.434
-.465
.435
.346
.434
.408
.435
.724
.434
.673
.435
.811
.435
.824
.434
.195
.435
.729
.434
.352
.435
.837
.434
.314
.435
.195
.434
-.56
.435
-.063
.434
-.66
.435
.428
.434
.478
.435
.603
.434
.673
.435
1.484
.434
-.32
.435
.553
.434
-.101
.435
1.497
.434
.069
.435
.843
.434
-.585
.435
.409
.434
1.522
.435
.591
.434
.163
.435
-.49
.434
.094
.435
.811
.434
.258
.435
.378
.435
-.139
.434
.679
.435
.158
.434
.377
.435
-.182
.434
1.27
.435
1.044
.434
1.207
.435
.12
.434
.603
.435
.478
.434
.202
.435
.094
.434
1.107
.435
.553
.434
.39
.435
.157
.434
.403
.435
.704
.434
.692
.435
-.101
.434
.044
.435
.208
.434
.125
.435
.73
.434
.516
.435
.32
.434
.176
.435
.038
.435
.315
.434
.132
.435
.05
.434
.27
.435
.453
.434
-.352
.435
-.019
.434
-.182
.435
-.271
.434
-.566
.435
-.32
.434
-.258
.435
-.378
.434
-.05
.435
-.176
.434
-.088
.435
-.113
.434
-.554
.435
-.805
.434
-.037
.435
-.365
.434
.189
.435
.006
.434
.717
.435
-.302
.434
-.824
.435
.113
.434
-.44
.435
-.22
.434
-.233
.435
-.239
.435
-.025
.434
-.201
.435
-.151
.434
-.201
.435
-.189
.434
-.409
.435
.007
.434
.61
.435
-.258
.434
.088
.435
.258
.434
.138
.435
.195
.434
.403
.435
-.07
.434
.365
.435
.629
.434
.094
.435
.579
.434
.107
.435
.056
.434
-.012
.435
.44
.434
.572
.435
-.037
.434
.578
.435
-.182
.434
-.202
.435
-.012
.435
-.302
.434
-.34
.435
-.194
.434
.377
.435
.088
.434
.113
.435
.113
.434
-.17
.435
.214
.434
-.503
.435
.113
.434
-.125
.435
-.132
.434
-.548
.435
.07
.434
-.365
.435
-.403
.434
.063
.435
-.981
.434
-.541
.435
-.069
.434
-.509
h.435
l.434
-.006
.435
.239
.434
-.038
.435
.641
.434
.365
.435
-.057
.434
.151
.435
.107
.435
.057
.434
-.78
.435
.126
.434
.163
.435
.315
.434
-.245
.435
.031
.434
-.006
.435
-.051
.434
-.251
.435
-.252
.434
.239
.435
.145
.434
.283
.435
.094
.434
.315
.435
.83
.434
.314
.435
-.339
.434
.32
.435
-.195
.434
.239
.435
-.717
.434
-.515
.435
-.264
.434
-.12
.435
-.478
.434
-.063
.435
.271
.434
.421
.435
.761
.435
.157
.434
-.251
.435
-.214
.434
.402
.435
.346
.434
.308
.435
.132
.434
-.113
.435
.277
.434
.327
.435
.119
.434
.636
.435
.371
.434
-.038
.435
.182
.434
.076
.435
.484
.434
.283
.435
.239
.434
.138
.435
.415
.434
.164
.435
.396
.434
-.164
.435
-.031
.434
-.937
.435
-.673
.434
-.075
.435
.037
.435
-.157
.434
.447
.435
.157
.434
-.239
.435
-.478
.434
-.189
.435
-.308
.434
.277
.435
.402
.434
-.012
.435
-.698
.434
-.315
.435
-.138
.434
-.277
.435
-.157
.434
-.245
.435
-.29
.434
-.679
.435
.145
.434
.101
.435
.125
.434
.434
.435
.082
.434
-.371
.435
.654
.434
.711
.435
.301
.434
.277
.435
.271
.434
.345
.435
.195
.435
.076
.434
.239
.435
.591
.434
.302
.435
.144
.434
.007
.435
-.069
.434
.289
.435
.748
.434
.308
.435
.246
.434
.352
.435
.025
.434
.138
.435
-.698
.434
-.346
.435
-.635
.434
-.126
.435
.221
.434
-.145
.435
-.434
.434
.553
.435
-.125
.434
-.353
.435
-.062
.434
-.447
.435
-.748
.434
-.321
.435
-.138
.434
-.189
.435
-.013
.435
-.496
.434
-.139
.435
-.025
.434
.132
.435
-.534
.434
-.547
.435
-.774
.434
-.22
.435
.006
.434
-.038
.435
.101
.434
.176
.435
.969
.434
1.119
.435
.491
.434
.144
.435
-.314
.434
.1
.435
-.107
.434
.202
.435
.201
.434
.761
.435
.61
.434
-.019
.435
.365
.434
-.145
.435
-.063
.434
.239
h.435
l.435
.289
.434
.202
.435
.188
.434
-.125
.435
.144
.434
.063
.435
.774
.434
-.088
.435
-.214
.434
-.157
.435
.075
.434
.075
.435
.164
.434
.057
.435
-.095
.434
.032
.435
.044
.434
.012
.435
.56
.434
-.069
.435
.031
.434
-.05
.435
-.151
.434
.057
.435
.339
.434
.327
.435
.264
.434
-.012
.435
.006
.434
-.358
.435
.377
.435
-.233
.434
-.056
.435
.383
.434
.17
.435
-.277
.434
-.069
.435
-.283
.434
-.302
.435
-.226
.434
-.371
.435
-.082
.434
-.189
.435
.12
.434
-.145
.435
.227
.434
.327
.435
-.044
.434
-.032
.435
-.019
.434
.189
.435
.17
.434
.056
.435
-.062
.434
-.283
.435
-.12
.434
-.044
.435
.038
.434
.364
.435
-.062
.435
.169
.434
-.257
.435
-.057
.434
.05
.435
-.006
.434
.365
.435
.364
.434
.252
.435
.075
.434
.566
.435
-.402
.434
-.069
.435
.012
.434
-.031
.435
-.478
.434
-.195
.435
-.239
.434
.019
.435
.031
.434
-.427
.435
.17
.434
.352
.435
-.302
.434
-.239
.435
-.208
.434
.12
.435
.126
.434
.239
.435
-.076
h.434
l.435
.327
.435
-.434
.434
-.1
.435
.025
.434
-.139
.435
-.503
.434
-.283
.435
.176
.434
-.308
.435
.378
.434
.069
.435
.082
.434
-.089
.435
.321
.434
-.113
.435
-.138
.434
-1.063
.435
-.403
.434
.082
.435
-.805
.434
-.685
.435
.119
.434
-.22
.435
.296
.434
-.453
.435
-.164
.434
-.478
h.435
l.434
-.421
.435
-.063
.434
.233
.435
-.101
.435
-.094
.434
-.409
.435
.007
.434
.377
.435
-.032
.434
-.39
.435
-.276
.434
-.227
.435
-.478
.434
-.113
.435
-.195
.434
.025
.435
-.238
.434
.974
.435
.208
.434
-.201
.435
.327
.434
-.195
.435
-.233
.434
.786
.435
-.239
.434
.245
.435
.076
.434
-.491
.435
-.201
.434
.214
.435
-.05
.434
-.34
.435
.251
.435
.271
.434
.396
.435
.572
.434
-.383
.435
-.176
.434
.383
.435
.334
.434
.333
.435
.415
.434
-.315
.435
-.056
.434
-.308
.435
.069
.434
-1.038
.435
-.899
.434
-.541
.435
-.333
.434
-.258
.435
-.799
.434
-.333
.435
-.975
.434
-.685
.435
-.547
.434
-.082
.435
-.39
.434
-.893
.435
-.251
.434
-.698
.435
-.403
.434
-.484
.435
-.44" aria-label="line"/>
</svg>
