<svg class="plot-d6a7b5" fill="currentColor" font-family="system-ui, sans-serif" font-size="10" text-anchor="middle" width="830" height="470" viewBox="0 0 830 470" xmlns="http://www.w3.org/2000/svg" xmlns:xlink="http://www.w3.org/1999/xlink" color="#1e90ff"><style>:where(.plot-d6a7b5){--plot-background: white;display:block;height:intrinsic;max-width:100%}:where(.plot-d6a7b5 text),:where(.plot-d6a7b5 tspan){white-space:pre}</style><g aria-label="y-grid" stroke="currentColor" stroke-opacity=".1"><line x1="60" x2="770" y1="410" y2="410"/><line x1="60" x2="770" y1="378.557" y2="378.557"/><line x1="60" x2="770" y1="347.114" y2="347.114"/><line x1="60" x2="770" y1="315.671" y2="315.671"/><line x1="60" x2="770" y1="284.227" y2="284.227"/><line x1="60" x2="770" y1="252.784" y2="252.784"/><line x1="60" x2="770" y1="221.341" y2="221.341"/><line x1="60" x2="770" y1="189.898" y2="189.898"/><line x1="60" x2="770" y1="158.455" y2="158.455"/><line x1="60" x2="770" y1="127.012" y2="127.012"/><line x1="60" x2="770" y1="95.568" y2="95.568"/><line x1="60" x2="770" y1="64.125" y2="64.125"/></g><g aria-label="y-axis tick" fill="none" stroke="currentColor"><path transform="translate(60,410)" d="M0,0L-6,0"/><path transform="translate(60,378.55684921661634)" d="M0,0L-6,0"/><path transform="translate(60,347.11369843323274)" d="M0,0L-6,0"/><path transform="translate(60,315.6705476498491)" d="M0,0L-6,0"/><path transform="translate(60,284.2273968664655)" d="M0,0L-6,0"/><path transform="translate(60,252.7842460830818)" d="M0,0L-6,0"/><path transform="translate(60,221.34109529969817)" d="M0,0L-6,0"/><path transform="translate(60,189.8979445163145)" d="M0,0L-6,0"/><path transform="translate(60,158.45479373293085)" d="M0,0L-6,0"/><path transform="translate(60,127.01164294954722)" d="M0,0L-6,0"/><path transform="translate(60,95.56849216616357)" d="M0,0L-6,0"/><path transform="translate(60,64.12534138277994)" d="M0,0L-6,0"/></g><g aria-label="y-axis tick label" text-anchor="end" font-variant="tabular-nums"><text y=".32em" transform="translate(-9,0) translate(60,410)">0</text><text y=".32em" transform="translate(-9,0) translate(60,378.55684921661634)">5,000</text><text y=".32em" transform="translate(-9,0) translate(60,347.11369843323274)">10,000</text><text y=".32em" transform="translate(-9,0) translate(60,315.6705476498491)">15,000</text><text y=".32em" transform="translate(-9,0) translate(60,284.2273968664655)">20,000</text><text y=".32em" transform="translate(-9,0) translate(60,252.7842460830818)">25,000</text><text y=".32em" transform="translate(-9,0) translate(60,221.34109529969817)">30,000</text><text y=".32em" transform="translate(-9,0) translate(60,189.8979445163145)">35,000</text><text y=".32em" transform="translate(-9,0) translate(60,158.45479373293085)">40,000</text><text y=".32em" transform="translate(-9,0) translate(60,127.01164294954722)">45,000</text><text y=".32em" transform="translate(-9,0) translate(60,95.56849216616357)">50,000</text><text y=".32em" transform="translate(-9,0) translate(60,64.12534138277994)">55,000</text></g><g aria-label="y-axis label" text-anchor="start"><text y=".71em" transform="translate(-57,-57) translate(60,60)">↑ Visible Vestiges (30 days)</text></g><g aria-label="x-axis tick" fill="none" stroke="currentColor"><path transform="translate(90.81702127659575,410)" d="M0,0L0,6"/><path transform="translate(173.29787234042553,410)" d="M0,0L0,6"/><path transform="translate(256.6851063829787,410)" d="M0,0L0,6"/><path transform="translate(340.07234042553193,410)" d="M0,0L0,6"/><path transform="translate(422.55319148936167,410)" d="M0,0L0,6"/><path transform="translate(505.0340425531915,410)" d="M0,0L0,6"/><path transform="translate(588.4212765957446,410)" d="M0,0L0,6"/><path transform="translate(671.8085106382979,410)" d="M0,0L0,6"/><path transform="translate(753.3829787234042,410)" d="M0,0L0,6"/></g><g aria-label="x-axis tick label" font-variant="tabular-nums"><text transform="translate(0,9) translate(90.81702127659575,410)"><tspan x="0" y=".71em">Apr</tspan><tspan x="0" dy="1em">2023</tspan></text><text y=".71em" transform="translate(0,9) translate(173.29787234042553,410)">Jul</text><text y=".71em" transform="translate(0,9) translate(256.6851063829787,410)">Oct</text><text transform="translate(0,9) translate(340.07234042553193,410)"><tspan x="0" y=".71em">Jan</tspan><tspan x="0" dy="1em">2024</tspan></text><text y=".71em" transform="translate(0,9) translate(422.55319148936167,410)">Apr</text><text y=".71em" transform="translate(0,9) translate(505.0340425531915,410)">Jul</text><text y=".71em" transform="translate(0,9) translate(588.4212765957446,410)">Oct</text><text transform="translate(0,9) translate(671.8085106382979,410)"><tspan x="0" y=".71em">Jan</tspan><tspan x="0" dy="1em">2025</tspan></text><text y=".71em" transform="translate(0,9) translate(753.3829787234042,410)">Apr</text></g><g aria-label="line" fill="none" stroke="currentColor" stroke-width="1.5" stroke-linejoin="round" stroke-linecap="round"><path d="M60,410L60.604,406.843L61.209,395.297L61.813,389.071L62.417,384.657L63.021,377.375L63.626,371.639L64.23,366.263L64.834,355.383L65.438,346.774L66.043,336.555L66.647,320.727L67.251,305.804L67.855,298.056L68.46,286.843L69.064,279.228L69.668,270.499L70.272,259.085L70.877,251.401L71.481,243.867L72.085,233.642L72.689,222.303L73.294,214.273L73.898,200.57L74.502,194.08L75.106,188.024L75.711,177.101L76.315,166.643L76.919,158.593L77.523,147.374L78.128,139.344L78.732,140.702L79.336,131.137L79.94,123.025L80.545,123.05L81.149,121.226L81.753,120.912L82.357,127.194L82.962,127.276L83.566,129.156L84.17,139.168L84.774,140.639L85.379,134.325L85.983,132.936L86.587,125.282L87.191,123.66L87.796,126.257L88.4,121.93L89.004,119.415L89.609,122.364L90.213,120.597L90.817,115.956L91.421,117.837L92.026,107.379L92.63,97.342L93.234,99.895L93.838,97.933L94.443,94.776L95.047,95.952L95.651,92.921L96.255,89.752L96.86,93.94L97.464,92.519L98.068,86.406L98.672,82.45L99.277,72.653L99.881,67.722L100.485,67.653L101.089,64L101.694,60L102.298,66.113L102.902,70.716L103.506,73.112L104.111,78.866L104.715,76.734L105.319,73.181L105.923,78.143L106.528,78.407L107.132,78.042L107.736,86.123L108.34,91.016L108.945,95.097L109.549,103.825L110.153,109.278L110.757,106.831L111.362,110.806L111.966,110.315L112.57,112.145L113.174,121L113.779,122.037L114.383,125.125L114.987,134.464L115.591,140.117L116.196,144.192L116.8,151.933L117.404,150.82L118.009,150.16L118.613,154.179L119.217,157.065L119.821,158.254L120.426,161.825L121.03,162.373L121.634,166.385L122.238,173.277L122.843,176.572L123.447,173.334L124.051,175.05L124.655,172.315L125.26,170.347L125.864,171.629L126.468,169.957L127.072,171.736L127.677,176.245L128.281,178.874L128.885,180.918L129.489,184.88L130.094,184.898L130.698,182.823L131.302,188.98L131.906,191.036L132.511,190.005L133.115,192.407L133.719,192.363L134.323,194.413L134.928,199.916L135.532,200.696L136.136,197.652L136.74,196.545L137.345,192.237L137.949,191.866L138.553,194.35L139.157,192.445L139.762,191.269L140.366,195.589L140.97,196.451L141.574,197.117L142.179,199.714L142.783,195.413L143.387,193.596L143.991,195.74L144.596,194.753L145.2,192.778L145.804,194.69L146.409,194.948L147.013,194.558L147.617,197.96L148.221,199.035L148.826,199.457L149.43,200.519L150.034,198.557L150.638,198.381L151.243,200.142L151.847,198.174L152.451,197.834L153.055,201.249L153.66,206.789L154.264,208.374L154.868,212.77L155.472,212.701L156.077,213.015L156.681,215.04L157.285,215.216L157.889,214.43L158.494,218.348L159.098,218.109L159.702,219.53L160.306,225.806L160.911,227.529L161.515,228.535L162.119,231.434L162.723,231.761L163.328,232.101L163.932,232.126L164.536,233.453L165.14,232.459L165.745,235.384L166.349,234.818L166.953,235.069L167.557,236.547L168.162,234.755L168.766,234.711L169.37,236.025L169.974,234.516L170.579,233.214L171.183,233.107L171.787,230.453L172.391,229.114L172.996,231.177L173.6,231.227L174.204,230.541L174.809,233.484L175.413,232.56L176.017,233.893L176.621,236.572L177.226,236.899L177.83,236.295L178.434,238.44L179.038,237.673L179.643,237.05L180.247,240.169L180.851,239.566L181.455,239.805L182.06,241.974L182.664,240.666L183.268,239.591L183.872,240.767L184.477,239.402L185.081,240.238L185.685,241.515L186.289,240.408L186.894,240.742L187.498,242.609L188.102,243.1L188.706,241.779L189.311,245.483L189.915,247.816L190.519,246.722L191.123,249.451L191.728,248.527L192.332,247.797L192.936,249.313L193.54,247.275L194.145,247.288L194.749,247.307L195.353,244.93L195.957,243.345L196.562,246.823L197.166,243.798L197.77,242.446L198.374,243.641L198.979,242.056L199.583,241.641L200.187,243.32L200.791,241.59L201.396,240.389L202,241.433L202.604,238.635L203.209,238.415L203.813,239.805L204.417,239.176L205.021,236.975L205.626,235.365L206.23,231.258L206.834,229.938L207.438,229.938L208.043,228.435L208.647,227.001L209.251,229.994L209.855,228.139L210.46,227.592L211.064,229.957L211.668,228.63L212.272,228.925L212.877,232.78L213.481,232.176L214.085,229.529L214.689,232.988L215.294,232.793L215.898,230.378L216.502,231.296L217.106,228.177L217.711,227.812L218.315,228.472L218.919,226.542L219.523,225.806L220.128,228.139L220.732,227.454L221.336,227.215L221.94,230.032L222.545,231.818L223.149,235.126L223.753,241.546L224.357,242.71L224.962,242.194L225.566,243.892L226.17,244.244L226.774,242.917L227.379,244.634L227.983,245.118L228.587,244.005L229.191,246.087L229.796,246.961L230.4,246.118L231.004,247.37L231.609,247.118L232.213,247.231L232.817,248.464L233.421,251.011L234.026,253.734L234.63,257.796L235.234,259.299L235.838,262.268L236.443,267.324L237.047,266.204L237.651,266.89L238.255,269.047L238.86,268.323L239.464,269.455L240.068,271.38L240.672,272.153L241.277,274.027L241.881,275.48L242.485,276.876L243.089,277.234L243.694,277.354L244.298,274.631L244.902,272.317L245.506,273.662L246.111,273.681L246.715,274.474L247.319,275.216L247.923,275.48L248.528,276.624L249.132,279.706L249.736,279.14L250.34,278.436L250.945,279.448L251.549,277.555L252.153,278.75L252.757,280.165L253.362,278.958L253.966,278.555L254.57,282.662L255.174,282.504L255.779,282.9L256.383,284.894L256.987,281.574L257.591,280.674L258.196,281.687L258.8,279.97L259.404,280.813L260.009,282.07L260.613,283.177L261.217,284.592L261.821,288.466L262.426,289.805L263.03,287.598L263.634,286.649L264.238,283.919L264.843,283.599L265.447,284.951L266.051,285.007L266.655,284.881L267.26,286.271L267.864,286.869L268.468,287.661L269.072,290.183L269.677,285.982L270.281,282.768L270.885,282.85L271.489,282.599L272.094,283.039L272.698,286.076L273.302,285.812L273.906,287.202L274.511,290.17L275.115,288.749L275.719,284.756L276.323,284.397L276.928,281.165L277.532,280.655L278.136,281.196L278.74,279.398L279.345,280.064L279.949,282.215L280.553,283.334L281.157,284.158L281.762,287.045L282.366,286.089L282.97,286.007L283.574,287.963L284.179,286.68L284.783,287.252L285.387,290.384L285.991,290.849L286.596,291.038L287.2,293.107L287.804,293.245L288.409,291.019L289.013,290.906L289.617,289.755L290.221,289.661L290.826,290.843L291.43,289.868L292.034,290.692L292.638,294.295L293.243,296.691L293.847,299.05L294.451,302.188L295.055,301.955L295.66,301.817L296.264,305.099L296.868,305.653L297.472,307.376L298.077,309.916L298.681,311.985L299.285,313.205L299.889,317.224L300.494,315.954L301.098,313.539L301.702,313.778L302.306,312.463L302.911,310.954L303.515,311.753L304.119,311.269L304.723,314.142L305.328,317.041L305.932,318.576L306.536,318.941L307.14,319.695L307.745,317.243L308.349,317.318L308.953,318.098L309.557,316.488L310.162,315.664L310.766,316.079L311.37,313.243L311.974,313.47L312.579,314.199L313.183,314.413L313.787,313.004L314.391,312.457L314.996,310.212L315.6,310.193L316.204,311.803L316.809,310.52L317.413,309.112L318.017,311.696L318.621,313.759L319.226,315.853L319.83,318.456L320.434,318.89L321.038,318.261L321.643,320.192L322.247,318.777L322.851,318.431L323.455,321.399L324.06,322.89L324.664,324.393L325.268,327.286L325.872,327.141L326.477,326.877L327.081,328.147L327.685,328.896L328.289,329.996L328.894,332.159L329.498,332.857L330.102,334.04L330.706,335.04L331.311,335.14L331.915,336.486L332.519,337.725L333.123,335.574L333.728,333.423L334.332,334.914L334.936,334.838L335.54,333.285L336.145,332.939L336.749,331.612L337.353,330.663L337.957,330.468L338.562,329.462L339.166,328.103L339.77,328.946L340.374,328.858L340.979,327.355L341.583,326.764L342.187,324.185L342.791,323.487L343.396,325.028L344,324.443L344.604,325.556L345.209,325.475L345.813,323.928L346.417,324.953L347.021,324.971L347.626,323.72L348.23,323.978L348.834,325.563L349.438,325.833L350.043,327.078L350.647,328.889L351.251,328.921L351.855,327.499L352.46,326.393L353.064,325.374L353.668,326.141L354.272,327.361L354.877,327.757L355.481,327.562L356.085,327.537L356.689,327.606L357.294,328.286L357.898,328.411L358.502,327.361L359.106,324.449L359.711,325.204L360.315,323.462L360.919,322.959L361.523,324.795L362.128,323.198L362.732,324.374L363.336,326.468L363.94,323.689L364.545,320.764L365.149,319.865L365.753,316.243L366.357,315.086L366.962,314.4L367.566,312.677L368.17,312.206L368.774,313.124L369.379,312.287L369.983,313.809L370.587,314.463L371.191,310.577L371.796,308.891L372.4,308.3L373.004,307.168L373.609,307.948L374.213,308.583L374.817,305.967L375.421,305.552L376.026,305.376L376.63,306.866L377.234,305.54L377.838,303.401L378.443,298.892L379.047,297.358L379.651,296.446L380.255,291.975L380.86,289.969L381.464,291.893L382.068,293.447L382.672,294.151L383.277,296.371L383.881,294.22L384.485,292.264L385.089,293.497L385.694,292.503L386.298,291.635L386.902,291.717L387.506,290.214L388.111,291.918L388.715,294.503L389.319,293.579L389.923,291.874L390.528,293.239L391.132,291.384L391.736,291.151L392.34,292.692L392.945,292.918L393.549,294.811L394.153,296.214L394.757,297.408L395.362,300.949L395.966,305.024L396.57,303.445L397.174,304.401L397.779,307.615L398.383,309.244L398.987,310.03L399.591,310.96L400.196,311.501L400.8,313.092L401.404,316.237L402.009,316.425L402.613,315.57L403.217,317.538L403.821,316.947L404.426,318.111L405.03,320.846L405.634,320.771L406.238,320.984L406.843,323.72L407.447,325.179L408.051,324.764L408.655,326.21L409.26,323.349L409.864,322.802L410.468,323.965L411.072,325.846L411.677,328.525L412.281,332.122L412.885,334.97L413.489,337.832L414.094,343.158L414.698,346.101L415.302,348.384L415.906,350.472L416.511,352.49L417.115,355.006L417.719,357.113L418.323,358.358L418.928,359.886L419.532,363.244L420.136,364.653L420.74,363.414L421.345,365.225L421.949,365.961L422.553,365.269L423.157,365.898L423.762,367.08L424.366,366.885L424.97,367.841L425.574,368.652L426.179,369.193L426.783,371.941L427.387,372.507L427.991,372.507L428.596,371.117L429.2,368.545L429.804,365.759L430.409,364.571L431.013,362.785L431.617,360.131L432.221,358.666L432.826,357.352L433.43,355.188L434.034,353.427L434.638,351.006L435.243,349.246L435.847,348.252L436.451,346.655L437.055,345.806L437.66,345.391L438.264,347.504L438.868,348.252L439.472,349.459L440.077,349.755L440.681,349.868L441.285,349.793L441.889,349.396L442.494,349.837L443.098,351.384L443.702,351.623L444.306,352.163L444.911,353.446L445.515,353.905L446.119,353.056L446.723,353.843L447.328,354.094L447.932,353.566L448.536,354.05L449.14,354.698L449.745,353.937L450.349,353.151L450.953,353.975L451.557,353.736L452.162,354.679L452.766,354.717L453.37,352.855L453.974,352.522L454.579,351.22L455.183,351.22L455.787,350.881L456.391,350.239L456.996,349.007L457.6,348.812L458.204,348.101L458.809,347.522L459.413,348.843L460.017,347.705L460.621,346.246L461.226,346.711L461.83,345.56L462.434,345.567L463.038,346.07L463.643,347.617L464.247,347.906L464.851,348.51L465.455,348.132L466.06,345.001L466.664,344.844L467.268,343.743L467.872,344.529L468.477,344.535L469.081,344.755L469.685,343.737L470.289,345.057L470.894,346.227L471.498,346.372L472.102,347.441L472.706,346.019L473.311,343.655L473.915,343.756L474.519,342.46L475.123,342.668L475.728,342.951L476.332,341.85L476.936,340.756L477.54,341.9L478.145,341.517L478.749,340.404L479.353,341.794L479.957,339.548L480.562,339.115L481.166,338.385L481.77,337.266L482.374,336.467L482.979,336.719L483.583,338.09L484.187,337.882L484.791,338.737L485.396,336.605L486,334.442L486.604,333.681L487.209,333.952L487.813,331.505L488.417,331.537L489.021,331.719L489.626,331.883L490.23,332.329L490.834,333.901L491.438,333.449L492.043,334.568L492.647,333.706L493.251,333.084L493.855,336.065L494.46,337.586L495.064,337.549L495.668,339.102L496.272,338.75L496.877,338.398L497.481,340.97L498.085,340.825L498.689,338.417L499.294,339.63L499.898,340.24L500.502,339.215L501.106,340.14L501.711,341.139L502.315,341.781L502.919,344.334L503.523,346.441L504.128,347.277L504.732,347.938L505.336,347.887L505.94,347.516L506.545,347.982L507.149,346.856L507.753,347.378L508.357,347.504L508.962,348.34L509.566,348.975L510.17,350.17L510.774,350.793L511.379,349.264L511.983,349.497L512.587,350.032L513.191,350.032L513.796,352.258L514.4,352.692L515.004,352.163L515.609,351.931L516.213,353.786L516.817,353.912L517.421,354.654L518.026,355.283L518.63,355.459L519.234,355.622L519.838,355.251L520.443,354.333L521.047,354.283L521.651,354.138L522.255,353.975L522.86,355.213L523.464,354.591L524.068,352.069L524.672,352.503L525.277,351.918L525.881,352.226L526.485,352.038L527.089,351.164L527.694,350.635L528.298,351.365L528.902,352.031L529.506,351.302L530.111,350.761L530.715,350.201L531.319,348.68L531.923,348.258L532.528,346.894L533.132,345.913L533.736,345.032L534.34,343.045L534.945,341.511L535.549,340.404L536.153,338.781L536.757,338.215L537.362,338.083L537.966,335.844L538.57,335.241L539.174,335.178L539.779,334.43L540.383,334.7L540.987,336.744L541.591,335.071L542.196,332.618L542.8,330.361L543.404,326.864L544.009,324.349L544.613,323.751L545.217,320.639L545.821,316.884L546.426,315.425L547.03,314.205L547.634,312.545L548.238,311.306L548.843,310.558L549.447,308.583L550.051,309.275L550.655,310.809L551.26,311.048L551.864,312.639L552.468,313.753L553.072,314.727L553.677,316.086L554.281,315.268L554.885,314.476L555.489,315.62L556.094,315.425L556.698,314.991L557.302,315.62L557.906,315.639L558.511,315.3L559.115,320.142L559.719,324.041L560.323,327.613L560.928,331.298L561.532,334.461L562.136,335.681L562.74,339.278L563.345,342.907L563.949,344.73L564.553,346.057L565.157,348.321L565.762,349.22L566.366,351.17L566.97,353.346L567.574,354.566L568.179,354.037L568.783,354.798L569.387,354.509L569.991,354.792L570.596,355.314L571.2,356.188L571.804,357.251L572.409,359.402L573.013,361.313L573.617,362.364L574.221,363.678L574.826,363.829L575.43,364.106L576.034,364.011L576.638,363.571L577.243,363.005L577.847,362.948L578.451,362.716L579.055,362.659L579.66,362.37L580.264,360.691L580.868,359.364L581.472,356.748L582.077,356.698L582.681,356.1L583.285,356.49L583.889,356.974L584.494,356.767L585.098,356.132L585.702,356.207L586.306,355.704L586.911,352.799L587.515,352.17L588.119,352.635L588.723,350.994L589.328,350.761L589.932,350.811L590.536,350.069L591.14,349.786L591.745,349.623L592.349,349.321L592.953,348.315L593.557,347.139L594.162,344.875L594.766,345.158L595.37,345.409L595.974,345.548L596.579,345.202L597.183,346.504L597.787,348.39L598.391,349.629L598.996,352.767L599.6,352.968L600.204,353.56L600.809,354.585L601.413,354.585L602.017,355.943L602.621,356.823L603.226,357.138L603.83,358.402L604.434,362.181L605.038,362.005L605.643,361.571L606.247,362.942L606.851,362.313L607.455,362.603L608.06,363.716L608.664,363.785L609.268,364.156L609.872,365.489L610.477,366.873L611.081,368.659L611.685,371.382L612.289,370.463L612.894,370.268L613.498,371.545L614.102,372.507L614.706,372.507L615.311,372.275L615.915,372.608L616.519,371.495L617.123,371.985L617.728,371.243L618.332,369.319L618.936,368.426L619.54,365.973L620.145,364.911L620.749,365.25L621.353,365.37L621.957,365.137L622.562,365.873L623.166,366.476L623.77,367.074L624.374,367.64L624.979,366.476L625.583,365.357L626.187,365.904L626.791,364.992L627.396,365.244L628,365.602L628.604,364.584L629.209,364.389L629.813,365.539L630.417,365.634L631.021,364.439L631.626,363.496L632.23,362.703L632.834,363.018L633.438,362.892L634.043,363.175L634.647,362.754L635.251,363.496L635.855,364.602L636.46,365.489L637.064,367.237L637.668,367.269L638.272,366.483L638.877,366.986L639.481,367.086L640.085,367.244L640.689,367.539L641.294,367.3L641.898,368.155L642.502,369.47L643.106,370.224L643.711,370.652L644.315,372.18L644.919,372.061L645.523,371.771L646.128,372.979L646.732,373.45L647.336,373.312L647.94,372.57L648.545,372.922L649.149,372.551L649.753,373.488L650.357,373.394L650.962,373.928L651.566,374.387L652.17,374.658L652.774,375.394L653.379,376.375L653.983,376.199L654.587,376.544L655.191,377.746L655.796,378.073L656.4,377.06L657.004,377.331L657.609,376.972L658.213,376.922L658.817,376.419L659.421,376.085L660.026,375.979L660.63,376.45L661.234,375.74L661.838,374.991L662.443,374.626L663.047,373.627L663.651,373.595L664.255,372.671L664.86,372.671L665.464,373.702L666.068,374.224L666.672,375.117L667.277,375.092L667.881,375.167L668.485,374.922L669.089,374.356L669.694,374.079L670.298,371.677L670.902,370.375L671.506,370.099L672.111,369.181L672.715,368.703L673.319,369.199L673.923,368.652L674.528,367.124L675.132,367.596L675.736,366.288L676.34,366.709L676.945,367.218L677.549,366.288L678.153,365.998L678.757,366.156L679.362,366.42L679.966,365.904L680.57,367.049L681.174,366.458L681.779,366.885L682.383,366.803L682.987,366.866L683.591,366.564L684.196,366.59L684.8,366.219L685.404,365.565L686.009,365.439L686.613,365.036L687.217,365.181L687.821,366.841L688.426,367.3L689.03,367.388L689.634,367.671L690.238,367.3L690.843,367.388L691.447,369.036L692.051,369.904L692.655,369.828L693.26,370.86L693.864,370.614L694.468,369.602L695.072,368.558L695.677,366.319L696.281,365.124L696.885,364.653L697.489,364.967L698.094,364.923L698.698,364.911L699.302,364.319L699.906,364.602L700.511,364.697L701.115,363.47L701.719,362.42L702.323,362.533L702.928,362.395L703.532,362.118L704.136,362.873L704.74,362.672L705.345,362.024L705.949,361.339L706.553,361.433L707.157,361.653L707.762,362.508L708.366,362.546L708.97,362.206L709.574,363.37L710.179,362.577L710.783,362.892L711.387,362.986L711.991,362.873L712.596,363.873L713.2,364.898L713.804,365.118L714.409,364.904L715.013,364.854L715.617,363.489L716.221,363.489L716.826,363.942L717.43,362.879L718.034,362.408L718.638,363.143L719.243,363.389L719.847,364.426L720.451,366.237L721.055,367.74L721.66,369.136L722.264,370.639L722.868,372.646L723.472,375.023L724.077,376.563L724.681,378.104L725.285,379.161L725.889,380.462L726.494,381.607L727.098,382.104L727.702,384.311L728.306,385.273L728.911,386.814L729.515,388.788L730.119,390.417L730.723,392.719L731.328,394.888L731.932,396.398L732.536,397.888L733.14,400.36L733.745,401.624L734.349,402.957L734.953,405.151L735.557,406.535L736.162,408.17L736.766,410L737.37,410L737.974,410L738.579,410L739.183,410L739.787,410L740.391,410L740.996,410L741.6,410L742.204,410L742.809,410L743.413,409.296L744.017,408.403L744.621,407.101L745.226,405.837L745.83,404.736L746.434,402.994L747.038,402.101L747.643,400.649L748.247,399.712L748.851,397.806L749.455,396.957L750.06,395.385L750.664,394.782L751.268,394.046L751.872,391.952L752.477,390.851L753.081,389.587L753.685,388.99L754.289,388.109L754.894,386.619L755.498,385.694L756.102,384.808L756.706,384.5L757.311,383.575L757.915,383.185L758.519,382.317L759.123,381.714L759.728,380.299L760.332,378.834L760.936,378.148L761.54,378.576L762.145,379.054L762.749,379.657L763.353,380.33L763.957,381.814L764.562,381.494L765.166,382.047L765.77,381.946L766.374,383.443L766.979,383.512L767.583,384.355L768.187,383.77L768.791,384.179L769.396,385.701L770,386.292"/></g></svg>