<svg class="plot-d6a7b5" fill="currentColor" font-family="system-ui, sans-serif" font-size="10" text-anchor="middle" width="830" height="470" viewBox="0 0 830 470" xmlns="http://www.w3.org/2000/svg" xmlns:xlink="http://www.w3.org/1999/xlink" color="#1e90ff"><style>:where(.plot-d6a7b5){--plot-background: white;display:block;height:intrinsic;max-width:100%}:where(.plot-d6a7b5 text),:where(.plot-d6a7b5 tspan){white-space:pre}</style><g aria-label="y-grid" stroke="currentColor" stroke-opacity=".1"><line x1="60" x2="770" y1="410" y2="410"/><line x1="60" x2="770" y1="360.939" y2="360.939"/><line x1="60" x2="770" y1="311.878" y2="311.878"/><line x1="60" x2="770" y1="262.817" y2="262.817"/><line x1="60" x2="770" y1="213.757" y2="213.757"/><line x1="60" x2="770" y1="164.696" y2="164.696"/><line x1="60" x2="770" y1="115.635" y2="115.635"/><line x1="60" x2="770" y1="66.574" y2="66.574"/></g><g aria-label="y-axis tick" fill="none" stroke="currentColor"><path transform="translate(60,410)" d="M0,0L-6,0"/><path transform="translate(60,360.9391645640594)" d="M0,0L-6,0"/><path transform="translate(60,311.8783291281189)" d="M0,0L-6,0"/><path transform="translate(60,262.8174936921783)" d="M0,0L-6,0"/><path transform="translate(60,213.7566582562377)" d="M0,0L-6,0"/><path transform="translate(60,164.69582282029717)" d="M0,0L-6,0"/><path transform="translate(60,115.6349873843566)" d="M0,0L-6,0"/><path transform="translate(60,66.57415194841604)" d="M0,0L-6,0"/></g><g aria-label="y-axis tick label" text-anchor="end" font-variant="tabular-nums"><text y=".32em" transform="translate(-9,0) translate(60,410)">0</text><text y=".32em" transform="translate(-9,0) translate(60,360.9391645640594)">1,000</text><text y=".32em" transform="translate(-9,0) translate(60,311.8783291281189)">2,000</text><text y=".32em" transform="translate(-9,0) translate(60,262.8174936921783)">3,000</text><text y=".32em" transform="translate(-9,0) translate(60,213.7566582562377)">4,000</text><text y=".32em" transform="translate(-9,0) translate(60,164.69582282029717)">5,000</text><text y=".32em" transform="translate(-9,0) translate(60,115.6349873843566)">6,000</text><text y=".32em" transform="translate(-9,0) translate(60,66.57415194841604)">7,000</text></g><g aria-label="y-axis label" text-anchor="start"><text y=".71em" transform="translate(-57,-57) translate(60,60)">↑ Visible Vestiges (4 days)</text></g><g aria-label="x-axis tick" fill="none" stroke="currentColor"><path transform="translate(93.25068870523415,410)" d="M0,0L0,6"/><path transform="translate(182.24517906336087,410)" d="M0,0L0,6"/><path transform="translate(272.2176308539945,410)" d="M0,0L0,6"/><path transform="translate(362.1900826446281,410)" d="M0,0L0,6"/><path transform="translate(451.1845730027548,410)" d="M0,0L0,6"/><path transform="translate(540.1790633608815,410)" d="M0,0L0,6"/><path transform="translate(630.1515151515151,410)" d="M0,0L0,6"/><path transform="translate(720.1239669421487,410)" d="M0,0L0,6"/></g><g aria-label="x-axis tick label" font-variant="tabular-nums"><text transform="translate(0,9) translate(93.25068870523415,410)"><tspan x="0" y=".71em">Apr</tspan><tspan x="0" dy="1em">2023</tspan></text><text y=".71em" transform="translate(0,9) translate(182.24517906336087,410)">Jul</text><text y=".71em" transform="translate(0,9) translate(272.2176308539945,410)">Oct</text><text transform="translate(0,9) translate(362.1900826446281,410)"><tspan x="0" y=".71em">Jan</tspan><tspan x="0" dy="1em">2024</tspan></text><text y=".71em" transform="translate(0,9) translate(451.1845730027548,410)">Apr</text><text y=".71em" transform="translate(0,9) translate(540.1790633608815,410)">Jul</text><text y=".71em" transform="translate(0,9) translate(630.1515151515151,410)">Oct</text><text transform="translate(0,9) translate(720.1239669421487,410)"><tspan x="0" y=".71em">Jan</tspan><tspan x="0" dy="1em">2025</tspan></text></g><g aria-label="line" fill="none" stroke="currentColor" stroke-width="1.5" stroke-linejoin="round" stroke-linecap="round"><path d="M60,410L60.652,385.371L61.304,295.296L61.956,246.726L62.608,236.913L63.26,270.177L63.912,274.003L64.564,266.497L65.216,238.434L65.868,216.013L66.52,178.237L67.172,139.626L67.824,90.369L68.476,109.65L69.128,145.66L69.78,202.669L70.432,195.015L71.084,193.445L71.736,192.906L72.388,202.227L73.039,211.5L73.691,182.996L74.343,179.12L74.995,151.989L75.647,189.815L76.299,205.22L76.951,226.905L77.603,195.948L78.255,180.395L78.907,178.089L79.559,172.398L80.211,155.718L80.863,120.05L81.515,109.601L82.167,132.463L82.819,196.683L83.471,250.013L84.123,270.765L84.775,263.21L85.427,242.555L86.079,233.038L86.731,194.623L87.383,149.978L88.035,97.041L88.687,82.862L89.339,111.808L89.991,141.343L90.643,166.756L91.295,169.111L91.947,181.131L92.599,172.595L93.251,152.136L93.903,116.665L94.555,86.689L95.207,60L95.859,86.934L96.511,122.258L97.163,160.378L97.815,147.328L98.466,133.297L99.118,116.518L99.77,104.351L100.422,106.461L101.074,106.362L101.726,107.049L102.378,95.029L103.03,125.006L103.682,147.77L104.334,175.048L104.986,172.791L105.638,182.603L106.29,202.375L106.942,199.333L107.594,182.358L108.246,158.759L108.898,141.883L109.55,161.114L110.202,182.161L110.854,219.055L111.506,234.853L112.158,250.503L112.81,249.718L113.462,224.795L114.114,202.473L114.766,178.482L115.418,176.716L116.07,168.474L116.722,188.785L117.374,212.825L118.026,207.967L118.678,205.613L119.33,211.5L119.982,247.412L120.634,255.802L121.286,231.32L121.938,208.507L122.59,194.329L123.242,192.562L123.893,221.508L124.545,245.744L125.197,262.033L125.849,240.74L126.501,245.793L127.153,248.099L127.805,252.662L128.457,215.327L129.109,195.997L129.761,185.841L130.413,211.549L131.065,223.814L131.717,231.32L132.369,235.638L133.021,238.483L133.673,248.05L134.325,248.345L134.977,235.834L135.629,235.785L136.281,227.69L136.933,239.955L137.585,253.496L138.237,267.527L138.889,274.151L139.541,266.154L140.193,265.712L140.845,267.086L141.497,259.334L142.149,217.829L142.801,195.212L143.453,179.757L144.105,216.897L144.757,223.618L145.409,247.412L146.061,243.438L146.713,262.327L147.365,246.578L148.017,241.623L148.669,218.025L149.32,203.454L149.972,196.34L150.624,200.314L151.276,230.486L151.928,232.105L152.58,239.857L153.232,249.865L153.884,249.718L154.536,261.297L155.188,259.579L155.84,278.174L156.492,273.464L157.144,263.799L157.796,265.761L158.448,263.21L159.1,262.719L159.752,262.817L160.404,267.969L161.056,285.042L161.708,277.438L162.36,269.637L163.012,263.014L163.664,259.825L164.316,265.123L164.968,263.063L165.62,273.366L166.272,272.384L166.924,264.191L167.576,257.813L168.228,261.64L168.88,269.833L169.532,270.569L170.184,274.396L170.836,265.123L171.488,267.675L172.14,255.262L172.792,262.916L173.444,264.093L174.096,284.993L174.747,288.82L175.399,293.824L176.051,272.875L176.703,265.271L177.355,260.414L178.007,258.647L178.659,260.953L179.311,256.292L179.963,262.278L180.615,245.744L181.267,237.649L181.919,247.952L182.571,265.859L183.223,276.26L183.875,281.068L184.527,283.766L185.179,298.534L185.831,288.28L186.483,291.665L187.135,280.381L187.787,284.404L188.439,276.604L189.091,280.283L189.743,278.615L190.395,282.442L191.047,276.751L191.699,276.996L192.351,272.679L193.003,283.325L193.655,279.4L194.307,283.963L194.959,277.928L195.611,271.109L196.263,268.263L196.915,262.572L197.567,269.49L198.219,277.29L198.871,270.373L199.522,268.165L200.174,274.445L200.826,286.514L201.478,296.817L202.13,281.804L202.782,289.458L203.434,282.687L204.086,288.771L204.738,284.306L205.39,276.015L206.042,262.082L206.694,253.643L207.346,272.826L207.998,271.452L208.65,271.599L209.302,257.617L209.954,263.161L210.606,270.716L211.258,270.177L211.91,279.694L212.562,269.637L213.214,269.244L213.866,254.87L214.518,255.704L215.17,255.556L215.822,266.791L216.474,258.255L217.126,242.653L217.778,208.605L218.43,213.266L219.082,232.105L219.734,264.486L220.386,273.905L221.038,282.246L221.69,287.152L222.342,287.299L222.994,288.476L223.646,288.133L224.298,286.416L224.949,284.11L225.601,281.313L226.253,277.536L226.905,273.071L227.557,276.407L228.209,264.24L228.861,249.964L229.513,234.706L230.165,250.16L230.817,257.666L231.469,256.881L232.121,253.594L232.773,252.269L233.425,262.817L234.077,266.546L234.729,281.559L235.381,292.303L236.033,304.372L236.685,298.436L237.337,298.239L237.989,287.25L238.641,282.785L239.293,285.876L239.945,287.888L240.597,292.941L241.249,294.118L241.901,296.964L242.553,299.466L243.205,300.791L243.857,300.594L244.509,291.322L245.161,278.762L245.813,281.755L246.465,284.944L247.117,294.609L247.769,300.692L248.421,307.512L249.073,314.822L249.725,324.242L250.376,331.208L251.028,307.463L251.68,288.329L252.332,276.26L252.984,283.08L253.636,301.576L254.288,310.505L254.94,334.25L255.592,334.103L256.244,330.227L256.896,324.094L257.548,307.806L258.2,300.496L258.852,270.373L259.504,254.575L260.156,265.32L260.808,289.556L261.46,316.294L262.112,312.909L262.764,314.626L263.416,308.101L264.068,313.792L264.72,310.308L265.372,299.073L266.024,292.597L266.676,288.329L267.328,309.965L267.98,320.415L268.632,335.182L269.284,329.687L269.936,326.94L270.588,315.999L271.24,310.161L271.892,300.496L272.544,294.315L273.196,293.137L273.848,309.229L274.5,321.592L275.152,331.306L275.803,327.087L276.455,332.827L277.107,329.982L277.759,320.268L278.411,306.285L279.063,288.771L279.715,275.377L280.367,270.373L281.019,281.706L281.671,301.379L282.323,316.588L282.975,323.8L283.627,320.611L284.279,313.595L284.931,314.282L285.583,318.845L286.235,303.047L286.887,282.246L287.539,277.977L288.191,303.293L288.843,329.05L289.495,341.168L290.147,335.231L290.799,332.974L291.451,326.253L292.103,316.049L292.755,290.144L293.407,276.555L294.059,272.139L294.711,295.1L295.363,307.855L296.015,316.196L296.667,315.656L297.319,314.233L297.971,319.483L298.623,307.316L299.275,308.052L299.927,303.195L300.579,315.803L301.23,323.751L301.882,328.412L302.534,330.325L303.186,332.484L303.838,346.81L304.49,348.38L305.142,324.291L305.794,300.938L306.446,277.83L307.098,286.121L307.75,301.821L308.402,330.571L309.054,334.741L309.706,333.858L310.358,334.299L311.01,342.983L311.662,343.375L312.314,341.756L312.966,333.71L313.618,336.163L314.27,329.442L314.922,338.911L315.574,344.504L316.226,357.603L316.878,357.063L317.53,356.72L318.182,353.531L318.834,360.203L319.486,346.761L320.138,326.351L320.79,301.526L321.442,303.096L322.094,312.32L322.746,331.012L323.398,339.058L324.05,349.165L324.702,342.198L325.354,334.839L326.006,323.555L326.657,322.525L327.309,320.17L327.961,322.083L328.613,321.396L329.265,328.412L329.917,330.08L330.569,327.627L331.221,316.441L331.873,316.588L332.525,321.494L333.177,338.567L333.829,335.28L334.481,330.914L335.133,324.83L335.785,335.133L336.437,351.618L337.089,355.935L337.741,351.765L338.393,345.927L339.045,351.618L339.697,354.12L340.349,355.837L341.001,352.354L341.653,349.802L342.305,352.599L342.957,348.281L343.609,343.523L344.261,344.258L344.913,355.641L345.565,369.034L346.217,366.091L346.869,355.248L347.521,340.775L348.173,335.133L348.825,343.768L349.477,351.961L350.129,347.742L350.781,347.496L351.433,353.04L352.084,361.037L352.736,353.089L353.388,349.999L354.04,345.779L354.692,338.518L355.344,327.725L355.996,334.005L356.648,346.025L357.3,344.847L357.952,336.213L358.604,328.951L359.256,335.378L359.908,333.073L360.56,333.024L361.212,332.631L361.864,336.409L362.516,338.813L363.168,338.42L363.82,338.616L364.472,332.582L365.124,335.918L365.776,341.707L366.428,342.787L367.08,351.274L367.732,347.251L368.384,347.938L369.036,343.032L369.688,343.572L370.34,351.421L370.992,353.433L371.644,357.701L372.296,366.483L372.948,369.966L373.6,364.472L374.252,351.814L374.904,337.292L375.556,326.548L376.208,317.177L376.86,325.615L377.511,336.507L378.163,353.973L378.815,344.16L379.467,334.397L380.119,331.454L380.771,342.051L381.423,345.632L382.075,336.507L382.727,308.689L383.379,307.561L384.031,305.5L384.683,330.08L385.335,339.598L385.987,349.214L386.639,358.29L387.291,360.988L387.943,346.859L388.595,315.411L389.247,299.907L389.899,295.345L390.551,313.399L391.203,323.849L391.855,342.149L392.507,342.002L393.159,341.854L393.811,334.25L394.463,339.058L395.115,327.627L395.767,312.271L396.419,298.141L397.071,305.893L397.723,317.569L398.375,327.038L399.027,333.661L399.679,332.68L400.331,326.94L400.983,311.486L401.635,315.705L402.287,307.463L402.938,290.095L403.59,267.871L404.242,275.77L404.894,294.952L405.546,304.323L406.198,303.342L406.85,311.339L407.502,326.891L408.154,332.533L408.806,330.276L409.458,319.434L410.11,309.131L410.762,319.728L411.414,328.608L412.066,336.948L412.718,320.366L413.37,321.2L414.022,329.835L414.674,334.005L415.326,324.389L415.978,305.549L416.63,307.708L417.282,309.916L417.934,328.019L418.586,328.412L419.238,338.911L419.89,340.039L420.542,343.179L421.194,342.492L421.846,337.979L422.498,336.605L423.15,322.868L423.802,321.887L424.454,324.536L425.106,348.576L425.758,355.248L426.41,352.991L427.062,350.146L427.713,354.169L428.365,360.596L429.017,347.546L429.669,339.058L430.321,338.764L430.973,341.02L431.625,340.186L432.277,347.006L432.929,359.664L433.581,356.426L434.233,346.81L434.885,339.941L435.537,337.194L436.189,329.344L436.841,313.743L437.493,313.105L438.145,321.396L438.797,359.516L439.449,387.825L440.101,406.124L440.753,409.166L441.405,409.215L442.057,408.97L442.709,408.724L443.361,406.86L444.013,405.634L444.665,405.094L445.317,404.652L445.969,401.954L446.621,399.943L447.273,398.667L447.925,395.38L448.577,388.168L449.229,366.287L449.881,356.475L450.533,350.391L451.185,361.479L451.837,364.913L452.489,365.158L453.14,359.418L453.792,355.101L454.444,349.459L455.096,347.349L455.748,345.73L456.4,343.179L457.052,347.251L457.704,353.089L458.356,356.916L459.008,353.482L459.66,358.094L460.312,364.275L460.964,365.06L461.616,362.656L462.268,364.472L462.92,367.072L463.572,364.226L464.224,355.15L464.876,355.592L465.528,359.565L466.18,364.717L466.832,368.544L467.484,365.845L468.136,372.91L468.788,375.559L469.44,382.133L470.092,379.043L470.744,377.522L471.396,367.759L472.048,356.622L472.7,354.856L473.352,361.871L474.004,364.717L474.656,363.883L475.308,359.271L475.96,365.06L476.612,360.056L477.264,360.007L477.916,354.954L478.567,362.068L479.219,365.894L479.871,369.77L480.523,365.551L481.175,357.456L481.827,361.43L482.479,362.656L483.131,367.072L483.783,361.381L484.435,352.697L485.087,347.889L485.739,341.266L486.391,353.089L487.043,360.105L487.695,367.906L488.347,364.864L488.999,362.902L489.651,360.841L490.303,356.18L490.955,356.867L491.607,351.765L492.259,351.912L492.911,348.085L493.563,347.153L494.215,353.973L494.867,360.056L495.519,376.099L496.171,378.258L496.823,373.989L497.475,366.091L498.127,343.228L498.779,341.168L499.431,331.306L500.083,353.776L500.735,359.026L501.387,370.555L502.039,360.89L502.691,365.453L503.343,364.177L503.994,368.445L504.646,359.86L505.298,351.47L505.95,338.911L506.602,339.156L507.254,337.096L507.906,355.199L508.558,354.561L509.21,351.421L509.862,341.953L510.514,343.572L511.166,349.312L511.818,345.338L512.47,346.319L513.122,338.616L513.774,349.999L514.426,349.508L515.078,360.449L515.73,353.335L516.382,353.089L517.034,349.655L517.686,352.206L518.338,347.055L518.99,342.198L519.642,332.19L520.294,331.11L520.946,340.186L521.598,342.541L522.25,347.447L522.902,351.029L523.554,362.803L524.206,357.652L524.858,355.935L525.51,351.372L526.162,354.561L526.814,353.678L527.466,351.716L528.118,363.098L528.77,372.223L529.421,378.405L530.073,373.008L530.725,354.414L531.377,352.942L532.029,353.188L532.681,366.189L533.333,349.655L533.985,349.999L534.637,348.772L535.289,359.32L535.941,353.629L536.593,359.222L537.245,367.072L537.897,374.922L538.549,373.548L539.201,373.989L539.853,368.298L540.505,353.825L541.157,349.312L541.809,351.372L542.461,354.757L543.113,356.573L543.765,352.206L544.417,362.951L545.069,367.023L545.721,374.48L546.373,370.849L547.025,365.355L547.677,366.974L548.329,372.468L548.981,378.994L549.633,375.952L550.285,373.695L550.937,369.819L551.589,363.638L552.241,358.192L552.893,363.638L553.545,370.015L554.197,370.997L554.848,365.698L555.5,366.777L556.152,366.826L556.804,366.14L557.456,363.098L558.108,365.306L558.76,365.502L559.412,361.086L560.064,352.844L560.716,336.507L561.368,333.612L562.02,335.722L562.672,353.433L563.324,359.32L563.976,361.135L564.628,362.068L565.28,365.6L565.932,372.125L566.584,372.174L567.236,367.759L567.888,364.717L568.54,355.493L569.192,354.169L569.844,344.013L570.496,342.051L571.148,333.024L571.8,333.612L572.452,335.673L573.104,334.888L573.756,332.435L574.408,341.07L575.06,348.723L575.712,343.228L576.364,339.892L577.016,342.639L577.668,354.463L578.32,356.867L578.972,365.06L579.624,341.511L580.275,317.373L580.927,285.925L581.579,289.408L582.231,294.805L582.883,309.572L583.535,313.497L584.187,307.365L584.839,307.168L585.491,321.985L586.143,333.907L586.795,332.582L587.447,327.038L588.099,323.26L588.751,328.167L589.403,344.013L590.055,352.255L590.707,359.86L591.359,358.633L592.011,363.588L592.663,359.32L593.315,352.893L593.967,346.761L594.619,339.598L595.271,341.119L595.923,346.662L596.575,354.463L597.227,358.535L597.879,367.464L598.531,376.786L599.183,382.918L599.835,381.986L600.487,376.442L601.139,376.099L601.791,372.518L602.443,375.756L603.095,373.253L603.747,377.767L604.399,374.872L605.051,376.148L605.702,367.611L606.354,366.925L607.006,362.46L607.658,369.868L608.31,366.385L608.962,363.588L609.614,359.418L610.266,364.521L610.918,367.611L611.57,372.419L612.222,372.076L612.874,378.65L613.526,379.582L614.178,381.005L614.83,380.024L615.482,374.087L616.134,372.125L616.786,370.064L617.438,374.774L618.09,374.333L618.742,373.695L619.394,369.77L620.046,373.401L620.698,368.004L621.35,359.958L622.002,347.546L622.654,333.907L623.306,343.719L623.958,350.685L624.61,365.6L625.262,369.083L625.914,367.66L626.566,367.072L627.218,360.399L627.87,355.297L628.522,333.416L629.174,333.024L629.826,343.67L630.478,358.339L631.129,361.086L631.781,364.422L632.433,372.37L633.085,373.401L633.737,370.751L634.389,368.249L635.041,360.645L635.693,350.685L636.345,340.088L636.997,349.704L637.649,360.203L638.301,375.02L638.953,373.744L639.605,376.541L640.257,382.133L640.909,382.084L641.561,382.771L642.213,379.435L642.865,381.348L643.517,379.779L644.169,381.692L644.821,386.255L645.473,384.537L646.125,380.318L646.777,374.48L647.429,375.216L648.081,370.997L648.733,368.396L649.385,364.275L650.037,363.49L650.689,372.468L651.341,378.405L651.993,384.881L652.645,382.869L653.297,382.084L653.949,384.734L654.601,385.813L655.253,386.058L655.904,377.718L656.556,372.763L657.208,376.295L657.86,389.689L658.512,394.006L659.164,387.825L659.816,382.869L660.468,374.872L661.12,377.178L661.772,370.702L662.424,362.803L663.076,353.923L663.728,345.142L664.38,350.146L665.032,355.542L665.684,369.77L666.336,376.982L666.988,375.854L667.64,377.031L668.292,379.386L668.944,377.276L669.596,372.468L670.248,365.011L670.9,371.34L671.552,371.291L672.204,381.201L672.856,382.379L673.508,382.624L674.16,379.386L674.812,377.227L675.464,380.956L676.116,376.688L676.768,373.744L677.42,371.144L678.072,376.737L678.724,378.16L679.376,378.552L680.028,375.118L680.68,375.412L681.331,373.94L681.983,375.265L682.635,374.333L683.287,370.948L683.939,363.294L684.591,367.808L685.243,375.559L685.895,381.79L686.547,381.348L687.199,381.054L687.851,384.39L688.503,387.53L689.155,387.825L689.807,390.817L690.459,392.436L691.111,395.527L691.763,391.112L692.415,388.855L693.067,390.228L693.719,389.247L694.371,377.767L695.023,372.567L695.675,367.808L696.327,378.307L696.979,380.416L697.631,388.904L698.283,385.568L698.935,384.979L699.587,386.843L700.239,389.444L700.891,387.285L701.543,383.311L702.195,381.643L702.847,377.914L703.499,371.831L704.151,372.321L704.803,373.204L705.455,380.269L706.107,373.94L706.758,377.473L707.41,380.171L708.062,388.07L708.714,388.119L709.366,384.734L710.018,381.299L710.67,374.627L711.322,377.963L711.974,374.971L712.626,381.79L713.278,378.601L713.93,384.685L714.582,386.892L715.234,389.149L715.886,387.775L716.538,387.383L717.19,379.828L717.842,376.491L718.494,361.528L719.146,358.388L719.798,356.229L720.45,363.834L721.102,368.593L721.754,370.899L722.406,367.71L723.058,360.007L723.71,360.694L724.362,361.822L725.014,370.702L725.666,374.529L726.318,380.171L726.97,382.526L727.622,379.828L728.274,385.764L728.926,380.563L729.578,381.594L730.23,378.258L730.882,382.624L731.534,379.877L732.185,381.79L732.837,382.183L733.489,385.224L734.141,384.096L734.793,379.975L735.445,378.405L736.097,370.604L736.749,373.499L737.401,372.468L738.053,376.05L738.705,373.45L739.357,370.31L740.009,368.593L740.661,370.899L741.313,378.356L741.965,380.318L742.617,379.729L743.269,376.05L743.921,376.246L744.573,372.763L745.225,362.215L745.877,349.017L746.529,344.896L747.181,355.297L747.833,370.015L748.485,380.024L749.137,380.269L749.789,377.571L750.441,377.375L751.093,380.122L751.745,375.559L752.397,368.2L753.049,367.219L753.701,371.585L754.353,376.05L755.005,373.253L755.657,375.657L756.309,371.733L756.961,364.079L757.612,363.785L758.264,367.415L758.916,377.718L759.568,379.582L760.22,382.673L760.872,387.04L761.524,379.975L762.176,381.398L762.828,373.253L763.48,375.069L764.132,369.868L764.784,363.932L765.436,362.411L766.088,363.343L766.74,369.672L767.392,367.317L768.044,369.23L768.696,370.457L769.348,372.616L770,371.683"/></g></svg>