<svg class="plot-d6a7b5" fill="currentColor" font-family="system-ui, sans-serif" font-size="10" text-anchor="middle" width="830" height="470" viewBox="0 0 830 470" xmlns="http://www.w3.org/2000/svg" xmlns:xlink="http://www.w3.org/1999/xlink" color="#1e90ff"><style>:where(.plot-d6a7b5){--plot-background: white;display:block;height:intrinsic;max-width:100%}:where(.plot-d6a7b5 text),:where(.plot-d6a7b5 tspan){white-space:pre}</style><g aria-label="y-grid" stroke="currentColor" stroke-opacity=".1"><line x1="60" x2="770" y1="410" y2="410"/><line x1="60" x2="770" y1="373.487" y2="373.487"/><line x1="60" x2="770" y1="336.973" y2="336.973"/><line x1="60" x2="770" y1="300.46" y2="300.46"/><line x1="60" x2="770" y1="263.946" y2="263.946"/><line x1="60" x2="770" y1="227.433" y2="227.433"/><line x1="60" x2="770" y1="190.92" y2="190.92"/><line x1="60" x2="770" y1="154.406" y2="154.406"/><line x1="60" x2="770" y1="117.893" y2="117.893"/><line x1="60" x2="770" y1="81.379" y2="81.379"/></g><g aria-label="y-axis tick" fill="none" stroke="currentColor"><path transform="translate(60,410)" d="M0,0L-6,0"/><path transform="translate(60,373.48659227668395)" d="M0,0L-6,0"/><path transform="translate(60,336.973184553368)" d="M0,0L-6,0"/><path transform="translate(60,300.459776830052)" d="M0,0L-6,0"/><path transform="translate(60,263.946369106736)" d="M0,0L-6,0"/><path transform="translate(60,227.43296138341998)" d="M0,0L-6,0"/><path transform="translate(60,190.91955366010396)" d="M0,0L-6,0"/><path transform="translate(60,154.406145936788)" d="M0,0L-6,0"/><path transform="translate(60,117.892738213472)" d="M0,0L-6,0"/><path transform="translate(60,81.37933049015598)" d="M0,0L-6,0"/></g><g aria-label="y-axis tick label" text-anchor="end" font-variant="tabular-nums"><text y=".32em" transform="translate(-9,0) translate(60,410)">0</text><text y=".32em" transform="translate(-9,0) translate(60,373.48659227668395)">50,000</text><text y=".32em" transform="translate(-9,0) translate(60,336.973184553368)">100,000</text><text y=".32em" transform="translate(-9,0) translate(60,300.459776830052)">150,000</text><text y=".32em" transform="translate(-9,0) translate(60,263.946369106736)">200,000</text><text y=".32em" transform="translate(-9,0) translate(60,227.43296138341998)">250,000</text><text y=".32em" transform="translate(-9,0) translate(60,190.91955366010396)">300,000</text><text y=".32em" transform="translate(-9,0) translate(60,154.406145936788)">350,000</text><text y=".32em" transform="translate(-9,0) translate(60,117.892738213472)">400,000</text><text y=".32em" transform="translate(-9,0) translate(60,81.37933049015598)">450,000</text></g><g aria-label="y-axis label" text-anchor="start"><text y=".71em" transform="translate(-57,-57) translate(60,60)">↑ Total Vestiges</text></g><g aria-label="x-axis tick" fill="none" stroke="currentColor"><path transform="translate(66.05113636363636,410)" d="M0,0L0,6"/><path transform="translate(128.57954545454544,410)" d="M0,0L0,6"/><path transform="translate(189.0909090909091,410)" d="M0,0L0,6"/><path transform="translate(251.6193181818182,410)" d="M0,0L0,6"/><path transform="translate(312.1306818181818,410)" d="M0,0L0,6"/><path transform="translate(374.65909090909093,410)" d="M0,0L0,6"/><path transform="translate(437.1875,410)" d="M0,0L0,6"/><path transform="translate(497.6988636363636,410)" d="M0,0L0,6"/><path transform="translate(560.2272727272727,410)" d="M0,0L0,6"/><path transform="translate(620.7386363636364,410)" d="M0,0L0,6"/><path transform="translate(683.2670454545455,410)" d="M0,0L0,6"/><path transform="translate(745.7954545454545,410)" d="M0,0L0,6"/></g><g aria-label="x-axis tick label" font-variant="tabular-nums"><text transform="translate(0,9) translate(66.05113636363636,410)"><tspan x="0" y=".71em">Mar</tspan><tspan x="0" dy="1em">2023</tspan></text><text y=".71em" transform="translate(0,9) translate(128.57954545454544,410)">Apr</text><text y=".71em" transform="translate(0,9) translate(189.0909090909091,410)">May</text><text y=".71em" transform="translate(0,9) translate(251.6193181818182,410)">Jun</text><text y=".71em" transform="translate(0,9) translate(312.1306818181818,410)">Jul</text><text y=".71em" transform="translate(0,9) translate(374.65909090909093,410)">Aug</text><text y=".71em" transform="translate(0,9) translate(437.1875,410)">Sep</text><text y=".71em" transform="translate(0,9) translate(497.6988636363636,410)">Oct</text><text y=".71em" transform="translate(0,9) translate(560.2272727272727,410)">Nov</text><text y=".71em" transform="translate(0,9) translate(620.7386363636364,410)">Dec</text><text transform="translate(0,9) translate(683.2670454545455,410)"><tspan x="0" y=".71em">Jan</tspan><tspan x="0" dy="1em">2024</tspan></text><text y=".71em" transform="translate(0,9) translate(745.7954545454545,410)">Feb</text></g><g aria-label="line" fill="none" stroke="currentColor" stroke-width="1.5" stroke-linejoin="round" stroke-linecap="round"><path d="M60,410L61.345,409.633L62.689,408.293L64.034,407.57L65.379,407.057L66.723,406.211L68.068,405.545L69.413,404.921L70.758,403.658L72.102,402.658L73.447,401.471L74.792,399.633L76.136,397.9L77.481,397L78.826,395.698L80.17,394.814L81.515,393.8L82.86,392.475L84.205,391.583L85.549,390.708L86.894,389.52L88.239,388.204L89.583,387.271L90.928,385.68L92.273,384.926L93.617,384.223L94.962,382.955L96.307,381.74L97.652,380.805L98.996,379.503L100.341,378.203L101.686,377.02L103.03,375.187L104.375,373.732L105.72,372.889L107.064,372.011L108.409,371.351L109.754,370.817L111.098,369.826L112.443,368.858L113.788,368.183L115.133,366.621L116.477,364.988L117.822,363.524L119.167,361.751L120.511,360.549L121.856,359.525L123.201,358.131L124.545,356.964L125.89,356.119L127.235,354.597L128.58,353.125L129.924,351.752L131.269,349.784L132.614,347.916L133.958,346.944L135.303,345.501L136.648,344.2L137.992,343.034L139.337,341.383L140.682,339.831L142.027,338.484L143.371,336.864L144.716,335.312L146.061,333.975L147.405,332.176L148.75,331.07L150.095,330.071L151.439,328.679L152.784,327.539L154.129,326.687L155.473,325.588L156.818,324.403L158.163,323.298L159.508,321.849L160.852,320.412L162.197,319.594L163.542,318.457L164.886,317.57L166.231,316.986L167.576,316.083L168.92,315.184L170.265,314.23L171.61,312.994L172.955,311.738L174.299,310.757L175.644,309.399L176.989,308.445L178.333,307.822L179.678,306.392L181.023,305.403L182.367,304.868L183.712,303.972L185.057,303.108L186.402,302.208L187.746,300.972L189.091,299.897L190.436,298.971L191.78,298.167L193.125,297.453L194.47,296.769L195.814,295.647L197.159,295.008L198.504,294.359L199.848,293.305L201.193,292.111L202.538,291.174L203.883,289.969L205.227,289.157L206.572,288.402L207.917,287.309L209.261,286.561L210.606,285.849L211.951,284.898L213.295,284.155L214.64,283.257L215.985,282.305L217.33,281.441L218.674,280.726L220.019,279.976L221.364,279.321L222.708,278.704L224.053,277.835L225.398,277.173L226.742,276.576L228.087,275.592L229.432,274.313L230.777,273.379L232.121,272.165L233.466,271.438L234.811,270.605L236.155,269.745L237.5,268.959L238.845,268.407L240.189,267.312L241.534,266.453L242.879,265.549L244.223,264.238L245.568,263.272L246.913,262.428L248.258,261.566L249.602,260.624L250.947,259.896L252.292,259.182L253.636,258.239L254.981,257.682L256.326,256.943L257.67,256.276L259.015,255.65L260.36,254.767L261.705,254.129L263.049,253.465L264.394,252.575L265.739,251.939L267.083,251.351L268.428,250.715L269.773,249.965L271.117,249.261L272.462,248.527L273.807,247.73L275.152,247.105L276.496,246.34L277.841,245.696L279.186,245.057L280.53,244.169L281.875,243.431L283.22,242.848L284.564,242.083L285.909,241.356L287.254,240.83L288.598,239.926L289.943,239.237L291.288,238.526L292.633,237.737L293.977,237.065L295.322,236.666L296.667,235.933L298.011,235.336L299.356,234.625L300.701,233.779L302.045,233.109L303.39,232.372L304.735,231.56L306.08,230.821L307.424,230.173L308.769,229.115L310.114,228.256L311.458,227.761L312.803,226.97L314.148,226.265L315.492,225.842L316.837,225.091L318.182,224.606L319.527,224.03L320.871,223.33L322.216,222.677L323.561,222.16L324.905,221.344L326.25,220.746L327.595,220.205L328.939,219.445L330.284,218.762L331.629,218.225L332.973,217.401L334.318,216.877L335.663,216.281L337.008,215.525L338.352,214.911L339.697,214.214L341.042,213.415L342.386,212.717L343.731,212.122L345.076,211.44L346.42,210.638L347.765,210.011L349.11,209.422L350.455,208.8L351.799,208.326L353.144,207.514L354.489,207.006L355.833,206.431L357.178,205.71L358.523,205.135L359.867,204.437L361.212,203.508L362.557,202.808L363.902,202.395L365.246,201.446L366.591,200.748L367.936,200.127L369.28,199.26L370.625,198.674L371.97,198.046L373.314,197.32L374.659,196.585L376.004,195.95L377.348,195.011L378.693,194.288L380.038,193.651L381.383,192.88L382.727,192.03L384.072,191.161L385.417,189.882L386.761,189.101L388.106,188.513L389.451,187.716L390.795,187.075L392.14,186.611L393.485,185.887L394.83,185.249L396.174,184.802L397.519,184.073L398.864,183.409L400.208,182.928L401.553,182.158L402.898,181.438L404.242,180.89L405.587,180.169L406.932,179.268L408.277,178.508L409.621,177.56L410.966,176.889L412.311,176.24L413.655,175.281L415,174.561L416.345,173.893L417.689,173.09L419.034,172.426L420.379,171.981L421.723,171.338L423.068,170.853L424.413,170.32L425.758,169.675L427.102,169.026L428.447,168.427L429.792,167.827L431.136,167.208L432.481,166.684L433.826,166.102L435.17,165.526L436.515,165.039L437.86,164.477L439.205,163.897L440.549,163.272L441.894,162.523L443.239,161.989L444.583,161.411L445.928,160.805L447.273,160.361L448.617,159.885L449.962,159.389L451.307,159.085L452.652,158.713L453.996,157.863L455.341,157.274L456.686,156.722L458.03,155.973L459.375,155.66L460.72,155.241L462.064,154.846L463.409,154.53L464.754,154.053L466.098,153.567L467.443,153.009L468.788,152.423L470.133,151.489L471.477,150.696L472.822,150.27L474.167,149.696L475.511,149.301L476.856,148.825L478.201,148.276L479.545,147.784L480.89,147.393L482.235,146.792L483.58,146.133L484.924,145.645L486.269,144.981L487.614,144.644L488.958,144.312L490.303,143.868L491.648,143.448L492.992,143.075L494.337,142.468L495.682,141.962L497.027,141.445L498.371,140.746L499.716,140.223L501.061,139.945L502.405,139.431L503.75,139.052L505.095,138.711L506.439,138.282L507.784,137.86L509.129,137.376L510.473,136.738L511.818,136.056L513.163,135.372L514.508,134.66L515.852,134.146L517.197,133.755L518.542,133.269L519.886,132.863L521.231,132.424L522.576,131.834L523.92,131.438L525.265,131.068L526.61,130.242L527.955,129.537L529.299,129.102L530.644,128.654L531.989,128.332L533.333,128.078L534.678,127.541L536.023,127.185L537.367,126.831L538.712,126.143L540.057,125.401L541.402,124.845L542.746,124.091L544.091,123.691L545.436,123.324L546.78,122.694L548.125,122.287L549.47,121.899L550.814,121.347L552.159,120.758L553.504,120.381L554.848,119.757L556.193,119.356L557.538,119.098L558.883,118.543L560.227,118.17L561.572,117.944L562.917,117.602L564.261,117.253L565.606,116.668L566.951,115.979L568.295,115.286L569.64,114.824L570.985,114.368L572.33,114.103L573.674,113.704L575.019,113.235L576.364,112.977L577.708,112.706L579.053,112.243L580.398,111.961L581.742,111.571L583.087,111.144L584.432,110.762L585.777,110.513L587.121,110.169L588.466,109.982L589.811,109.725L591.155,109.376L592.5,109.141L593.845,108.983L595.189,108.435L596.534,107.896L597.879,107.369L599.223,106.844L600.568,106.442L601.913,106.193L603.258,105.788L604.602,105.537L605.947,105.184L607.292,104.669L608.636,104.25L609.981,103.882L611.326,103.332L612.67,102.941L614.015,102.563L615.36,102.117L616.705,101.752L618.049,101.337L619.394,100.725L620.739,100.361L622.083,100.019L623.428,99.662L624.773,99.249L626.117,98.842L627.462,98.394L628.807,98.135L630.152,97.973L631.496,97.589L632.841,97.268L634.186,97.019L635.53,96.72L636.875,96.436L638.22,96.213L639.564,95.862L640.909,95.54L642.254,95.359L643.598,94.943L644.943,94.55L646.288,94.38L647.633,94.134L648.977,93.941L650.322,93.727L651.667,93.319L653.011,92.91L654.356,92.612L655.701,92.333L657.045,92.046L658.39,91.686L659.735,91.403L661.08,91.199L662.424,90.957L663.769,90.556L665.114,90.305L666.458,90.001L667.803,89.492L669.148,89.081L670.492,88.87L671.837,88.54L673.182,88.111L674.527,87.771L675.871,87.333L677.216,87L678.561,86.626L679.905,86.187L681.25,85.849L682.595,85.531L683.939,85.128L685.284,84.783L686.629,84.468L687.973,83.975L689.318,83.68L690.663,83.452L692.008,82.975L693.352,82.806L694.697,82.518L696.042,82.051L697.386,81.809L698.731,81.529L700.076,81.179L701.42,80.967L702.765,80.751L704.11,80.531L705.455,80.372L706.799,80.073L708.144,79.665L709.489,79.289L710.833,78.831L712.178,78.284L713.523,78.033L714.867,77.737L716.212,77.45L717.557,77.053L718.902,76.611L720.246,76.281L721.591,76.042L722.936,75.653L724.28,75.187L725.625,74.534L726.97,74.128L728.314,73.631L729.659,73.344L731.004,73.081L732.348,72.726L733.693,72.574L735.038,72.351L736.383,71.787L737.727,71.167L739.072,70.712L740.417,70.08L741.761,69.729L743.106,69.43L744.451,69.07L745.795,68.716L747.14,68.416L748.485,67.942L749.83,67.661L751.174,67.189L752.519,66.488L753.864,65.996L755.208,65.64L756.553,65.112L757.898,64.761L759.242,64.504L760.587,63.961L761.932,63.524L763.277,63.037L764.621,62.557L765.966,61.998L767.311,61.252L768.655,60.442L770,60"/></g></svg>