<svg class="plot-d6a7b5" fill="currentColor" font-family="system-ui, sans-serif" font-size="10" text-anchor="middle" width="830" height="470" viewBox="0 0 830 470" xmlns="http://www.w3.org/2000/svg" xmlns:xlink="http://www.w3.org/1999/xlink" color="#1e90ff"><style>:where(.plot-d6a7b5){--plot-background: white;display:block;height:intrinsic;max-width:100%}:where(.plot-d6a7b5 text),:where(.plot-d6a7b5 tspan){white-space:pre}</style><g aria-label="y-grid" stroke="currentColor" stroke-opacity=".1"><line x1="60" x2="770" y1="410" y2="410"/><line x1="60" x2="770" y1="382.169" y2="382.169"/><line x1="60" x2="770" y1="354.339" y2="354.339"/><line x1="60" x2="770" y1="326.508" y2="326.508"/><line x1="60" x2="770" y1="298.678" y2="298.678"/><line x1="60" x2="770" y1="270.847" y2="270.847"/><line x1="60" x2="770" y1="243.016" y2="243.016"/><line x1="60" x2="770" y1="215.186" y2="215.186"/><line x1="60" x2="770" y1="187.355" y2="187.355"/><line x1="60" x2="770" y1="159.524" y2="159.524"/><line x1="60" x2="770" y1="131.694" y2="131.694"/><line x1="60" x2="770" y1="103.863" y2="103.863"/><line x1="60" x2="770" y1="76.033" y2="76.033"/></g><g aria-label="y-axis tick" fill="none" stroke="currentColor"><path transform="translate(60,410)" d="M0,0L-6,0"/><path transform="translate(60,382.1693882354438)" d="M0,0L-6,0"/><path transform="translate(60,354.3387764708876)" d="M0,0L-6,0"/><path transform="translate(60,326.5081647063314)" d="M0,0L-6,0"/><path transform="translate(60,298.6775529417752)" d="M0,0L-6,0"/><path transform="translate(60,270.846941177219)" d="M0,0L-6,0"/><path transform="translate(60,243.01632941266277)" d="M0,0L-6,0"/><path transform="translate(60,215.18571764810656)" d="M0,0L-6,0"/><path transform="translate(60,187.35510588355032)" d="M0,0L-6,0"/><path transform="translate(60,159.52449411899414)" d="M0,0L-6,0"/><path transform="translate(60,131.69388235443793)" d="M0,0L-6,0"/><path transform="translate(60,103.86327058988172)" d="M0,0L-6,0"/><path transform="translate(60,76.03265882532556)" d="M0,0L-6,0"/></g><g aria-label="y-axis tick label" text-anchor="end" font-variant="tabular-nums"><text y=".32em" transform="translate(-9,0) translate(60,410)">0</text><text y=".32em" transform="translate(-9,0) translate(60,382.1693882354438)">50,000</text><text y=".32em" transform="translate(-9,0) translate(60,354.3387764708876)">100,000</text><text y=".32em" transform="translate(-9,0) translate(60,326.5081647063314)">150,000</text><text y=".32em" transform="translate(-9,0) translate(60,298.6775529417752)">200,000</text><text y=".32em" transform="translate(-9,0) translate(60,270.846941177219)">250,000</text><text y=".32em" transform="translate(-9,0) translate(60,243.01632941266277)">300,000</text><text y=".32em" transform="translate(-9,0) translate(60,215.18571764810656)">350,000</text><text y=".32em" transform="translate(-9,0) translate(60,187.35510588355032)">400,000</text><text y=".32em" transform="translate(-9,0) translate(60,159.52449411899414)">450,000</text><text y=".32em" transform="translate(-9,0) translate(60,131.69388235443793)">500,000</text><text y=".32em" transform="translate(-9,0) translate(60,103.86327058988172)">550,000</text><text y=".32em" transform="translate(-9,0) translate(60,76.03265882532556)">600,000</text></g><g aria-label="y-axis label" text-anchor="start"><text y=".71em" transform="translate(-57,-57) translate(60,60)">↑ Total Vestiges</text></g><g aria-label="x-axis tick" fill="none" stroke="currentColor"><path transform="translate(97.8765690376569,410)" d="M0,0L0,6"/><path transform="translate(199.2520920502092,410)" d="M0,0L0,6"/><path transform="translate(301.74163179916314,410)" d="M0,0L0,6"/><path transform="translate(404.2311715481171,410)" d="M0,0L0,6"/><path transform="translate(505.60669456066944,410)" d="M0,0L0,6"/><path transform="translate(606.9822175732218,410)" d="M0,0L0,6"/><path transform="translate(709.4717573221757,410)" d="M0,0L0,6"/></g><g aria-label="x-axis tick label" font-variant="tabular-nums"><text transform="translate(0,9) translate(97.8765690376569,410)"><tspan x="0" y=".71em">Apr</tspan><tspan x="0" dy="1em">2023</tspan></text><text y=".71em" transform="translate(0,9) translate(199.2520920502092,410)">Jul</text><text y=".71em" transform="translate(0,9) translate(301.74163179916314,410)">Oct</text><text transform="translate(0,9) translate(404.2311715481171,410)"><tspan x="0" y=".71em">Jan</tspan><tspan x="0" dy="1em">2024</tspan></text><text y=".71em" transform="translate(0,9) translate(505.60669456066944,410)">Apr</text><text y=".71em" transform="translate(0,9) translate(606.9822175732218,410)">Jul</text><text y=".71em" transform="translate(0,9) translate(709.4717573221757,410)">Oct</text></g><g aria-label="line" fill="none" stroke="currentColor" stroke-width="1.5" stroke-linejoin="round" stroke-linecap="round"><path d="M60,410L60.743,409.721L61.485,408.699L62.228,408.148L62.971,407.757L63.713,407.112L64.456,406.605L65.199,406.129L65.941,405.166L66.684,404.404L67.427,403.499L68.169,402.098L68.912,400.777L69.655,400.092L70.397,399.099L71.14,398.425L71.883,397.653L72.626,396.642L73.368,395.962L74.111,395.295L74.854,394.39L75.596,393.387L76.339,392.676L77.082,391.463L77.824,390.889L78.567,390.353L79.31,389.386L80.052,388.46L80.795,387.748L81.538,386.755L82.28,385.765L83.023,384.863L83.766,383.465L84.508,382.356L85.251,381.714L85.994,381.045L86.736,380.541L87.479,380.134L88.222,379.38L88.964,378.642L89.707,378.127L90.45,376.936L91.192,375.692L91.935,374.576L92.678,373.225L93.421,372.308L94.163,371.528L94.906,370.465L95.649,369.575L96.391,368.931L97.134,367.771L97.877,366.65L98.619,365.603L99.362,364.103L100.105,362.679L100.847,361.938L101.59,360.839L102.333,359.847L103.075,358.958L103.818,357.7L104.561,356.517L105.303,355.49L106.046,354.256L106.789,353.072L107.531,352.053L108.274,350.682L109.017,349.839L109.759,349.078L110.502,348.017L111.245,347.148L111.987,346.498L112.73,345.661L113.473,344.758L114.215,343.916L114.958,342.811L115.701,341.716L116.444,341.092L117.186,340.226L117.929,339.55L118.672,339.105L119.414,338.416L120.157,337.731L120.9,337.004L121.642,336.062L122.385,335.104L123.128,334.357L123.87,333.322L124.613,332.595L125.356,332.12L126.098,331.03L126.841,330.276L127.584,329.868L128.326,329.185L129.069,328.526L129.812,327.841L130.554,326.899L131.297,326.08L132.04,325.374L132.782,324.76L133.525,324.216L134.268,323.695L135.01,322.84L135.753,322.353L136.496,321.858L137.238,321.055L137.981,320.144L138.724,319.43L139.467,318.512L140.209,317.893L140.952,317.318L141.695,316.485L142.437,315.915L143.18,315.372L143.923,314.647L144.665,314.081L145.408,313.396L146.151,312.671L146.893,312.012L147.636,311.467L148.379,310.895L149.121,310.396L149.864,309.926L150.607,309.263L151.349,308.759L152.092,308.304L152.835,307.554L153.577,306.579L154.32,305.867L155.063,304.942L155.805,304.388L156.548,303.753L157.291,303.097L158.033,302.498L158.776,302.077L159.519,301.243L160.262,300.588L161.004,299.899L161.747,298.9L162.49,298.164L163.232,297.52L163.975,296.863L164.718,296.146L165.46,295.59L166.203,295.046L166.946,294.327L167.688,293.903L168.431,293.34L169.174,292.831L169.916,292.354L170.659,291.681L171.402,291.195L172.144,290.688L172.887,290.01L173.63,289.525L174.372,289.077L175.115,288.592L175.858,288.021L176.6,287.485L177.343,286.925L178.086,286.317L178.828,285.841L179.571,285.258L180.314,284.767L181.056,284.28L181.799,283.603L182.542,283.041L183.285,282.596L184.027,282.013L184.77,281.459L185.513,281.058L186.255,280.369L186.998,279.844L187.741,279.302L188.483,278.701L189.226,278.189L189.969,277.884L190.711,277.326L191.454,276.871L192.197,276.328L192.939,275.684L193.682,275.173L194.425,274.611L195.167,273.993L195.91,273.43L196.653,272.935L197.395,272.129L198.138,271.474L198.881,271.097L199.623,270.494L200.366,269.957L201.109,269.634L201.851,269.062L202.594,268.692L203.337,268.253L204.079,267.719L204.822,267.222L205.565,266.828L206.308,266.206L207.05,265.75L207.793,265.338L208.536,264.759L209.278,264.238L210.021,263.829L210.764,263.201L211.506,262.801L212.249,262.347L212.992,261.771L213.734,261.303L214.477,260.771L215.22,260.163L215.962,259.63L216.705,259.177L217.448,258.657L218.19,258.046L218.933,257.568L219.676,257.119L220.418,256.645L221.161,256.284L221.904,255.665L222.646,255.277L223.389,254.839L224.132,254.289L224.874,253.851L225.617,253.319L226.36,252.611L227.103,252.077L227.845,251.763L228.588,251.039L229.331,250.507L230.073,250.034L230.816,249.373L231.559,248.927L232.301,248.448L233.044,247.895L233.787,247.335L234.529,246.851L235.272,246.135L236.015,245.584L236.757,245.099L237.5,244.51L238.243,243.862L238.985,243.2L239.728,242.225L240.471,241.63L241.213,241.182L241.956,240.574L242.699,240.086L243.441,239.732L244.184,239.181L244.927,238.694L245.669,238.354L246.412,237.798L247.155,237.292L247.897,236.925L248.64,236.338L249.383,235.789L250.126,235.372L250.868,234.822L251.611,234.136L252.354,233.556L253.096,232.834L253.839,232.322L254.582,231.828L255.324,231.096L256.067,230.548L256.81,230.038L257.552,229.427L258.295,228.92L259.038,228.581L259.78,228.091L260.523,227.722L261.266,227.315L262.008,226.823L262.751,226.329L263.494,225.872L264.236,225.415L264.979,224.944L265.722,224.544L266.464,224.1L267.207,223.661L267.95,223.29L268.692,222.861L269.435,222.42L270.178,221.944L270.921,221.372L271.663,220.965L272.406,220.525L273.149,220.063L273.891,219.725L274.634,219.362L275.377,218.983L276.119,218.752L276.862,218.468L277.605,217.82L278.347,217.372L279.09,216.951L279.833,216.38L280.575,216.141L281.318,215.822L282.061,215.521L282.803,215.28L283.546,214.917L284.289,214.546L285.031,214.121L285.774,213.675L286.517,212.962L287.259,212.358L288.002,212.033L288.745,211.596L289.487,211.294L290.23,210.932L290.973,210.514L291.715,210.138L292.458,209.84L293.201,209.382L293.944,208.88L294.686,208.508L295.429,208.002L296.172,207.745L296.914,207.492L297.657,207.153L298.4,206.834L299.142,206.549L299.885,206.087L300.628,205.701L301.37,205.307L302.113,204.774L302.856,204.375L303.598,204.164L304.341,203.771L305.084,203.482L305.826,203.223L306.569,202.896L307.312,202.575L308.054,202.205L308.797,201.719L309.54,201.199L310.282,200.678L311.025,200.135L311.768,199.744L312.51,199.445L313.253,199.075L313.996,198.766L314.738,198.431L315.481,197.981L316.224,197.68L316.967,197.397L317.709,196.768L318.452,196.23L319.195,195.899L319.937,195.557L320.68,195.312L321.423,195.118L322.165,194.709L322.908,194.438L323.651,194.168L324.393,193.643L325.136,193.078L325.879,192.654L326.621,192.079L327.364,191.775L328.107,191.495L328.849,191.015L329.592,190.704L330.335,190.409L331.077,189.988L331.82,189.539L332.563,189.252L333.305,188.776L334.048,188.471L334.791,188.274L335.533,187.85L336.276,187.567L337.019,187.394L337.762,187.134L338.504,186.868L339.247,186.422L339.99,185.896L340.732,185.368L341.475,185.016L342.218,184.669L342.96,184.467L343.703,184.162L344.446,183.805L345.188,183.608L345.931,183.402L346.674,183.049L347.416,182.834L348.159,182.537L348.902,182.211L349.644,181.92L350.387,181.73L351.13,181.468L351.872,181.325L352.615,181.129L353.358,180.864L354.1,180.685L354.843,180.564L355.586,180.146L356.328,179.736L357.071,179.334L357.814,178.934L358.556,178.627L359.299,178.438L360.042,178.129L360.785,177.937L361.527,177.668L362.27,177.276L363.013,176.956L363.755,176.676L364.498,176.257L365.241,175.959L365.983,175.671L366.726,175.331L367.469,175.052L368.211,174.736L368.954,174.27L369.697,173.993L370.439,173.732L371.182,173.459L371.925,173.145L372.667,172.835L373.41,172.493L374.153,172.295L374.895,172.172L375.638,171.88L376.381,171.635L377.123,171.445L377.866,171.217L378.609,171.001L379.351,170.831L380.094,170.563L380.837,170.318L381.579,170.18L382.322,169.863L383.065,169.564L383.808,169.434L384.55,169.246L385.293,169.099L386.036,168.936L386.778,168.625L387.521,168.313L388.264,168.086L389.006,167.874L389.749,167.655L390.492,167.38L391.234,167.165L391.977,167.009L392.72,166.824L393.462,166.519L394.205,166.328L394.948,166.096L395.69,165.708L396.433,165.395L397.176,165.234L397.918,164.982L398.661,164.655L399.404,164.397L400.146,164.063L400.889,163.809L401.632,163.524L402.374,163.189L403.117,162.931L403.86,162.689L404.603,162.382L405.345,162.119L406.088,161.879L406.831,161.503L407.573,161.278L408.316,161.104L409.059,160.741L409.801,160.612L410.544,160.392L411.287,160.037L412.029,159.852L412.772,159.639L413.515,159.372L414.257,159.211L415,159.045L415.743,158.878L416.485,158.756L417.228,158.529L417.971,158.218L418.713,157.931L419.456,157.582L420.199,157.165L420.941,156.974L421.684,156.748L422.427,156.529L423.169,156.227L423.912,155.89L424.655,155.638L425.397,155.456L426.14,155.16L426.883,154.804L427.626,154.307L428.368,153.998L429.111,153.619L429.854,153.4L430.596,153.199L431.339,152.929L432.082,152.813L432.824,152.643L433.567,152.213L434.31,151.74L435.052,151.394L435.795,150.912L436.538,150.644L437.28,150.417L438.023,150.142L438.766,149.873L439.508,149.644L440.251,149.283L440.994,149.068L441.736,148.709L442.479,148.174L443.222,147.799L443.964,147.528L444.707,147.125L445.45,146.858L446.192,146.662L446.935,146.248L447.678,145.915L448.421,145.544L449.163,145.178L449.906,144.752L450.649,144.184L451.391,143.566L452.134,143.229L452.877,142.878L453.619,142.367L454.362,142.019L455.105,141.759L455.847,141.424L456.59,141.14L457.333,140.855L458.075,140.397L458.818,139.996L459.561,139.83L460.303,139.473L461.046,139.167L461.789,138.814L462.531,138.466L463.274,138.257L464.017,137.951L464.759,137.494L465.502,137.072L466.245,136.791L466.987,136.359L467.73,136.142L468.473,135.865L469.215,135.552L469.958,135.349L470.701,135.107L471.444,134.786L472.186,134.531L472.929,134.274L473.672,133.798L474.414,133.532L475.157,133.305L475.9,133.101L476.642,132.911L477.385,132.658L478.128,132.422L478.87,132.277L479.613,132.097L480.356,131.713L481.098,131.472L481.841,131.289L482.584,130.931L483.326,130.68L484.069,130.575L484.812,130.36L485.554,130.072L486.297,129.858L487.04,129.565L487.782,129.246L488.525,128.943L489.268,128.473L490.01,128.147L490.753,127.937L491.496,127.9L492.238,127.896L492.981,127.893L493.724,127.891L494.467,127.887L495.209,127.882L495.952,127.876L496.695,127.851L497.437,127.832L498.18,127.82L498.923,127.79L499.665,127.741L500.408,127.706L501.151,127.662L501.893,127.575L502.636,127.459L503.379,127.166L504.121,126.968L504.864,126.782L505.607,126.615L506.349,126.456L507.092,126.274L507.835,126.041L508.577,125.833L509.32,125.587L510.063,125.331L510.805,125.104L511.548,124.829L512.291,124.619L513.033,124.458L513.776,124.226L514.519,123.978L515.262,123.87L516.004,123.708L516.747,123.468L517.49,123.332L518.232,123.191L518.975,122.981L519.718,122.813L520.46,122.569L521.203,122.363L521.946,122.241L522.688,122.055L523.431,121.893L524.174,121.74L524.916,121.634L525.659,121.502L526.402,121.424L527.144,121.283L527.887,121.134L528.63,120.945L529.372,120.677L530.115,120.508L530.858,120.399L531.6,120.164L532.343,119.985L533.086,119.823L533.828,119.654L534.571,119.418L535.314,119.256L536.056,119.029L536.799,118.875L537.542,118.755L538.285,118.573L539.027,118.37L539.77,118.159L540.513,118.022L541.255,117.833L541.998,117.672L542.741,117.47L543.483,117.183L544.226,116.968L544.969,116.69L545.711,116.537L546.454,116.402L547.197,116.213L547.939,116.025L548.682,115.867L549.425,115.655L550.167,115.415L550.91,115.264L551.653,114.994L552.395,114.756L553.138,114.562L553.881,114.281L554.623,114.12L555.366,113.995L556.109,113.897L556.851,113.76L557.594,113.587L558.337,113.399L559.079,113.002L559.822,112.806L560.565,112.506L561.308,112.364L562.05,112.227L562.793,112.058L563.536,111.807L564.278,111.722L565.021,111.538L565.764,111.336L566.506,111.153L567.249,110.874L567.992,110.529L568.734,110.349L569.477,110.047L570.22,109.908L570.962,109.721L571.705,109.383L572.448,109.136L573.19,108.967L573.933,108.694L574.676,108.402L575.418,108.244L576.161,107.884L576.904,107.721L577.646,107.558L578.389,107.322L579.132,107.078L579.874,106.912L580.617,106.637L581.36,106.423L582.103,106.198L582.845,105.868L583.588,105.54L584.331,105.303L585.073,105.076L585.816,104.774L586.559,104.594L587.301,104.407L588.044,104.239L588.787,104L589.529,103.794L590.272,103.574L591.015,103.371L591.757,103.155L592.5,102.913L593.243,102.839L593.985,102.726L594.728,102.554L595.471,102.419L596.213,102.095L596.956,101.907L597.699,101.774L598.441,101.598L599.184,101.222L599.927,101.094L600.669,100.904L601.412,100.647L602.155,100.454L602.897,100.328L603.64,100.16L604.383,100.056L605.126,99.914L605.868,99.752L606.611,99.583L607.354,99.277L608.096,99.063L608.839,98.918L609.582,98.65L610.324,98.457L611.067,98.262L611.81,98.116L612.552,97.969L613.295,97.859L614.038,97.672L614.78,97.463L615.523,97.371L616.266,97.246L617.008,97.111L617.751,96.985L618.494,96.834L619.236,96.655L619.979,96.459L620.722,96.247L621.464,96.129L622.207,96.005L622.95,95.804L623.692,95.627L624.435,95.515L625.178,95.314L625.921,95.129L626.663,94.983L627.406,94.807L628.149,94.624L628.891,94.428L629.634,94.159L630.377,93.79L631.119,93.561L631.862,93.316L632.605,93.148L633.347,92.986L634.09,92.762L634.833,92.605L635.575,92.482L636.318,92.332L637.061,92.176L637.803,92.003L638.546,91.818L639.289,91.557L640.031,91.37L640.774,91.07L641.517,90.786L642.259,90.496L643.002,90.203L643.745,89.943L644.487,89.644L645.23,89.323L645.973,89.161L646.715,88.949L647.458,88.565L648.201,88.366L648.944,88.185L649.686,87.935L650.429,87.763L651.172,87.675L651.914,87.158L652.657,86.712L653.4,86.267L654.142,85.79L654.885,85.405L655.628,85.128L656.37,84.695L657.113,84.24L657.856,83.961L658.598,83.697L659.341,83.377L660.084,83.083L660.826,82.755L661.569,82.393L662.312,82.154L663.054,82.007L663.797,81.738L664.54,81.585L665.282,81.424L666.025,81.211L666.768,81.01L667.51,80.776L668.253,80.494L668.996,80.212L669.738,79.995L670.481,79.775L671.224,79.582L671.967,79.411L672.709,79.293L673.452,79.205L674.195,79.103L674.937,78.975L675.68,78.824L676.423,78.719L677.165,78.55L677.908,78.436L678.651,78.302L679.393,78.184L680.136,78.037L680.879,77.918L681.621,77.703L682.364,77.548L683.107,77.379L683.849,77.248L684.592,77.053L685.335,76.852L686.077,76.674L686.82,76.538L687.563,76.371L688.305,76.248L689.048,76.107L689.791,76.015L690.533,75.902L691.276,75.778L692.019,75.675L692.762,75.495L693.504,75.349L694.247,75.222L694.99,75.095L695.732,74.944L696.475,74.81L697.218,74.639L697.96,74.529L698.703,74.334L699.446,74.071L700.188,73.82L700.931,73.471L701.674,73.319L702.416,73.147L703.159,72.967L703.902,72.855L704.644,72.667L705.387,72.48L706.13,72.292L706.872,72.046L707.615,71.611L708.358,71.419L709.1,71.294L709.843,71.025L710.586,70.864L711.328,70.777L712.071,70.598L712.814,70.449L713.556,70.331L714.299,70.124L715.042,69.889L715.785,69.658L716.527,69.331L717.27,69.205L718.013,69.093L718.755,68.934L719.498,68.793L720.241,68.714L720.983,68.618L721.726,68.477L722.469,68.405L723.211,68.271L723.954,68.152L724.697,68.062L725.439,67.95L726.182,67.882L726.925,67.773L727.667,67.613L728.41,67.479L729.153,67.378L729.895,67.171L730.638,67.007L731.381,66.86L732.123,66.643L732.866,66.581L733.609,66.501L734.351,66.358L735.094,66.274L735.837,66.185L736.579,66.072L737.322,65.999L738.065,65.913L738.808,65.705L739.55,65.577L740.293,65.53L741.036,65.475L741.778,65.395L742.521,65.279L743.264,65.167L744.006,64.997L744.749,64.907L745.492,64.721L746.234,64.461L746.977,64.27L747.72,63.985L748.462,63.782L749.205,63.652L749.948,63.529L750.69,63.408L751.433,63.265L752.176,63.155L752.918,63.06L753.661,62.894L754.404,62.729L755.146,62.55L755.889,62.455L756.632,62.29L757.374,62.223L758.117,62.142L758.86,61.979L759.603,61.876L760.345,61.77L761.088,61.65L761.831,61.498L762.573,61.359L763.316,61.209L764.059,61.12L764.801,60.997L765.544,60.852L766.287,60.725L767.029,60.605L767.772,60.443L768.515,60.331L769.257,60.2L770,60"/></g></svg>