<svg class="plot-d6a7b5" fill="currentColor" font-family="system-ui, sans-serif" font-size="10" text-anchor="middle" width="830" height="470" viewBox="0 0 830 470" xmlns="http://www.w3.org/2000/svg" xmlns:xlink="http://www.w3.org/1999/xlink" color="#1e90ff"><style>:where(.plot-d6a7b5){--plot-background: white;display:block;height:intrinsic;max-width:100%}:where(.plot-d6a7b5 text),:where(.plot-d6a7b5 tspan){white-space:pre}</style><g aria-label="y-grid" stroke="currentColor" stroke-opacity=".1"><line x1="60" x2="770" y1="410" y2="410"/><line x1="60" x2="770" y1="375.51" y2="375.51"/><line x1="60" x2="770" y1="341.021" y2="341.021"/><line x1="60" x2="770" y1="306.531" y2="306.531"/><line x1="60" x2="770" y1="272.042" y2="272.042"/><line x1="60" x2="770" y1="237.552" y2="237.552"/><line x1="60" x2="770" y1="203.063" y2="203.063"/><line x1="60" x2="770" y1="168.573" y2="168.573"/><line x1="60" x2="770" y1="134.084" y2="134.084"/><line x1="60" x2="770" y1="99.594" y2="99.594"/><line x1="60" x2="770" y1="65.104" y2="65.104"/></g><g aria-label="y-axis tick" fill="none" stroke="currentColor"><path transform="translate(60,410)" d="M0,0L-6,0"/><path transform="translate(60,375.51044540796215)" d="M0,0L-6,0"/><path transform="translate(60,341.0208908159243)" d="M0,0L-6,0"/><path transform="translate(60,306.53133622388646)" d="M0,0L-6,0"/><path transform="translate(60,272.0417816318486)" d="M0,0L-6,0"/><path transform="translate(60,237.55222703981082)" d="M0,0L-6,0"/><path transform="translate(60,203.06267244777297)" d="M0,0L-6,0"/><path transform="translate(60,168.57311785573512)" d="M0,0L-6,0"/><path transform="translate(60,134.08356326369727)" d="M0,0L-6,0"/><path transform="translate(60,99.59400867165945)" d="M0,0L-6,0"/><path transform="translate(60,65.10445407962162)" d="M0,0L-6,0"/></g><g aria-label="y-axis tick label" text-anchor="end" font-variant="tabular-nums"><text y=".32em" transform="translate(-9,0) translate(60,410)">0</text><text y=".32em" transform="translate(-9,0) translate(60,375.51044540796215)">50,000</text><text y=".32em" transform="translate(-9,0) translate(60,341.0208908159243)">100,000</text><text y=".32em" transform="translate(-9,0) translate(60,306.53133622388646)">150,000</text><text y=".32em" transform="translate(-9,0) translate(60,272.0417816318486)">200,000</text><text y=".32em" transform="translate(-9,0) translate(60,237.55222703981082)">250,000</text><text y=".32em" transform="translate(-9,0) translate(60,203.06267244777297)">300,000</text><text y=".32em" transform="translate(-9,0) translate(60,168.57311785573512)">350,000</text><text y=".32em" transform="translate(-9,0) translate(60,134.08356326369727)">400,000</text><text y=".32em" transform="translate(-9,0) translate(60,99.59400867165945)">450,000</text><text y=".32em" transform="translate(-9,0) translate(60,65.10445407962162)">500,000</text></g><g aria-label="y-axis label" text-anchor="start"><text y=".71em" transform="translate(-57,-57) translate(60,60)">↑ Total Vestiges</text></g><g aria-label="x-axis tick" fill="none" stroke="currentColor"><path transform="translate(65.36974789915966,410)" d="M0,0L0,6"/><path transform="translate(120.85714285714286,410)" d="M0,0L0,6"/><path transform="translate(174.55462184873952,410)" d="M0,0L0,6"/><path transform="translate(230.0420168067227,410)" d="M0,0L0,6"/><path transform="translate(283.7394957983193,410)" d="M0,0L0,6"/><path transform="translate(339.2268907563025,410)" d="M0,0L0,6"/><path transform="translate(394.7142857142857,410)" d="M0,0L0,6"/><path transform="translate(448.41176470588243,410)" d="M0,0L0,6"/><path transform="translate(503.8991596638656,410)" d="M0,0L0,6"/><path transform="translate(557.5966386554621,410)" d="M0,0L0,6"/><path transform="translate(613.0840336134454,410)" d="M0,0L0,6"/><path transform="translate(668.5714285714286,410)" d="M0,0L0,6"/><path transform="translate(720.4789915966387,410)" d="M0,0L0,6"/></g><g aria-label="x-axis tick label" font-variant="tabular-nums"><text transform="translate(0,9) translate(65.36974789915966,410)"><tspan x="0" y=".71em">Mar</tspan><tspan x="0" dy="1em">2023</tspan></text><text y=".71em" transform="translate(0,9) translate(120.85714285714286,410)">Apr</text><text y=".71em" transform="translate(0,9) translate(174.55462184873952,410)">May</text><text y=".71em" transform="translate(0,9) translate(230.0420168067227,410)">Jun</text><text y=".71em" transform="translate(0,9) translate(283.7394957983193,410)">Jul</text><text y=".71em" transform="translate(0,9) translate(339.2268907563025,410)">Aug</text><text y=".71em" transform="translate(0,9) translate(394.7142857142857,410)">Sep</text><text y=".71em" transform="translate(0,9) translate(448.41176470588243,410)">Oct</text><text y=".71em" transform="translate(0,9) translate(503.8991596638656,410)">Nov</text><text y=".71em" transform="translate(0,9) translate(557.5966386554621,410)">Dec</text><text transform="translate(0,9) translate(613.0840336134454,410)"><tspan x="0" y=".71em">Jan</tspan><tspan x="0" dy="1em">2024</tspan></text><text y=".71em" transform="translate(0,9) translate(668.5714285714286,410)">Feb</text><text y=".71em" transform="translate(0,9) translate(720.4789915966387,410)">Mar</text></g><g aria-label="line" fill="none" stroke="currentColor" stroke-width="1.5" stroke-linejoin="round" stroke-linecap="round"><path d="M60,410L61.193,409.654L62.387,408.387L63.58,407.704L64.773,407.22L65.966,406.421L67.16,405.792L68.353,405.203L69.546,404.009L70.739,403.065L71.933,401.944L73.126,400.208L74.319,398.571L75.513,397.721L76.706,396.491L77.899,395.656L79.092,394.698L80.286,393.446L81.479,392.603L82.672,391.777L83.866,390.655L85.059,389.412L86.252,388.531L87.445,387.028L88.639,386.316L89.832,385.652L91.025,384.454L92.218,383.306L93.412,382.424L94.605,381.193L95.798,379.966L96.992,378.848L98.185,377.116L99.378,375.742L100.571,374.946L101.765,374.117L102.958,373.493L104.151,372.989L105.345,372.053L106.538,371.139L107.731,370.5L108.924,369.025L110.118,367.483L111.311,366.1L112.504,364.426L113.697,363.29L114.891,362.323L116.084,361.006L117.277,359.903L118.471,359.105L119.664,357.668L120.857,356.278L122.05,354.981L123.244,353.122L124.437,351.357L125.63,350.439L126.824,349.076L128.017,347.847L129.21,346.745L130.403,345.186L131.597,343.721L132.79,342.448L133.983,340.918L135.176,339.452L136.37,338.189L137.563,336.49L138.756,335.445L139.95,334.502L141.143,333.186L142.336,332.109L143.529,331.304L144.723,330.267L145.916,329.148L147.109,328.104L148.303,326.735L149.496,325.378L150.689,324.605L151.882,323.531L153.076,322.693L154.269,322.142L155.462,321.289L156.655,320.44L157.849,319.538L159.042,318.371L160.235,317.184L161.429,316.258L162.622,314.975L163.815,314.074L165.008,313.486L166.202,312.135L167.395,311.201L168.588,310.695L169.782,309.849L170.975,309.033L172.168,308.183L173.361,307.016L174.555,306L175.748,305.126L176.941,304.365L178.134,303.691L179.328,303.045L180.521,301.986L181.714,301.382L182.908,300.769L184.101,299.773L185.294,298.645L186.487,297.76L187.681,296.622L188.874,295.855L190.067,295.142L191.261,294.11L192.454,293.403L193.647,292.731L194.84,291.833L196.034,291.13L197.227,290.282L198.42,289.383L199.613,288.567L200.807,287.891L202,287.183L203.193,286.564L204.387,285.981L205.58,285.16L206.773,284.535L207.966,283.972L209.16,283.042L210.353,281.833L211.546,280.952L212.739,279.805L213.933,279.118L215.126,278.331L216.319,277.519L217.513,276.777L218.706,276.255L219.899,275.221L221.092,274.409L222.286,273.556L223.479,272.317L224.672,271.405L225.866,270.608L227.059,269.793L228.252,268.904L229.445,268.216L230.639,267.542L231.832,266.65L233.025,266.125L234.218,265.427L235.412,264.797L236.605,264.205L237.798,263.371L238.992,262.769L240.185,262.141L241.378,261.3L242.571,260.7L243.765,260.144L244.958,259.543L246.151,258.836L247.345,258.171L248.538,257.477L249.731,256.724L250.924,256.134L252.118,255.411L253.311,254.803L254.504,254.199L255.697,253.361L256.891,252.663L258.084,252.113L259.277,251.39L260.471,250.703L261.664,250.206L262.857,249.353L264.05,248.702L265.244,248.031L266.437,247.285L267.63,246.651L268.824,246.273L270.017,245.581L271.21,245.017L272.403,244.345L273.597,243.547L274.79,242.914L275.983,242.217L277.176,241.451L278.37,240.753L279.563,240.14L280.756,239.142L281.95,238.33L283.143,237.862L284.336,237.115L285.529,236.449L286.723,236.049L287.916,235.34L289.109,234.882L290.303,234.338L291.496,233.676L292.689,233.06L293.882,232.572L295.076,231.801L296.269,231.236L297.462,230.725L298.655,230.007L299.849,229.362L301.042,228.855L302.235,228.077L303.429,227.581L304.622,227.018L305.815,226.304L307.008,225.724L308.202,225.066L309.395,224.312L310.588,223.652L311.782,223.09L312.975,222.446L314.168,221.688L315.361,221.096L316.555,220.54L317.748,219.952L318.941,219.505L320.134,218.737L321.328,218.257L322.521,217.715L323.714,217.033L324.908,216.49L326.101,215.831L327.294,214.953L328.487,214.292L329.681,213.902L330.874,213.005L332.067,212.346L333.261,211.76L334.454,210.941L335.647,210.388L336.84,209.794L338.034,209.109L339.227,208.414L340.42,207.815L341.613,206.928L342.807,206.245L344,205.643L345.193,204.914L346.387,204.111L347.58,203.29L348.773,202.082L349.966,201.345L351.16,200.789L352.353,200.037L353.546,199.432L354.739,198.993L355.933,198.309L357.126,197.706L358.319,197.284L359.513,196.596L360.706,195.969L361.899,195.514L363.092,194.787L364.286,194.106L365.479,193.589L366.672,192.908L367.866,192.057L369.059,191.339L370.252,190.444L371.445,189.81L372.639,189.197L373.832,188.291L375.025,187.611L376.218,186.98L377.412,186.221L378.605,185.594L379.798,185.174L380.992,184.567L382.185,184.109L383.378,183.605L384.571,182.995L385.765,182.383L386.958,181.816L388.151,181.25L389.345,180.666L390.538,180.171L391.731,179.621L392.924,179.077L394.118,178.616L395.311,178.085L396.504,177.538L397.697,176.948L398.891,176.24L400.084,175.735L401.277,175.19L402.471,174.618L403.664,174.198L404.857,173.749L406.05,173.28L407.244,172.993L408.437,172.641L409.63,171.838L410.824,171.282L412.017,170.76L413.21,170.053L414.403,169.757L415.597,169.362L416.79,168.988L417.983,168.69L419.176,168.24L420.37,167.781L421.563,167.254L422.756,166.7L423.95,165.817L425.143,165.068L426.336,164.666L427.529,164.124L428.723,163.751L429.916,163.301L431.109,162.783L432.303,162.318L433.496,161.948L434.689,161.381L435.882,160.758L437.076,160.298L438.269,159.671L439.462,159.352L440.655,159.038L441.849,158.619L443.042,158.223L444.235,157.87L445.429,157.297L446.622,156.819L447.815,156.331L449.008,155.671L450.202,155.176L451.395,154.914L452.588,154.428L453.782,154.07L454.975,153.748L456.168,153.343L457.361,152.945L458.555,152.486L459.748,151.884L460.941,151.24L462.134,150.594L463.328,149.921L464.521,149.436L465.714,149.067L466.908,148.608L468.101,148.224L469.294,147.81L470.487,147.252L471.681,146.878L472.874,146.528L474.067,145.749L475.261,145.082L476.454,144.672L477.647,144.248L478.84,143.944L480.034,143.704L481.227,143.197L482.42,142.861L483.613,142.527L484.807,141.876L486,141.176L487.193,140.65L488.387,139.938L489.58,139.561L490.773,139.214L491.966,138.619L493.16,138.234L494.353,137.868L495.546,137.346L496.739,136.79L497.933,136.434L499.126,135.845L500.319,135.466L501.513,135.222L502.706,134.697L503.899,134.346L505.092,134.132L506.286,133.809L507.479,133.479L508.672,132.927L509.866,132.276L511.059,131.621L512.252,131.185L513.445,130.755L514.639,130.504L515.832,130.127L517.025,129.684L518.218,129.44L519.412,129.185L520.605,128.747L521.798,128.48L522.992,128.112L524.185,127.709L525.378,127.348L526.571,127.113L527.765,126.788L528.958,126.611L530.151,126.368L531.345,126.039L532.538,125.817L533.731,125.668L534.924,125.15L536.118,124.641L537.311,124.143L538.504,123.647L539.697,123.268L540.891,123.032L542.084,122.65L543.277,122.412L544.471,122.079L545.664,121.593L546.857,121.197L548.05,120.849L549.244,120.33L550.437,119.961L551.63,119.603L552.824,119.183L554.017,118.837L555.21,118.445L556.403,117.867L557.597,117.524L558.79,117.201L559.983,116.863L561.176,116.473L562.37,116.089L563.563,115.665L564.756,115.421L565.95,115.268L567.143,114.905L568.336,114.602L569.529,114.367L570.723,114.084L571.916,113.816L573.109,113.606L574.303,113.274L575.496,112.97L576.689,112.799L577.882,112.406L579.076,112.035L580.269,111.874L581.462,111.642L582.655,111.459L583.849,111.257L585.042,110.872L586.235,110.486L587.429,110.204L588.622,109.941L589.815,109.67L591.008,109.329L592.202,109.062L593.395,108.869L594.588,108.641L595.782,108.262L596.975,108.025L598.168,107.738L599.361,107.257L600.555,106.869L601.748,106.669L602.941,106.357L604.134,105.953L605.328,105.632L606.521,105.218L607.714,104.903L608.908,104.55L610.101,104.136L611.294,103.816L612.487,103.515L613.681,103.135L614.874,102.809L616.067,102.512L617.261,102.046L618.454,101.768L619.647,101.552L620.84,101.101L622.034,100.942L623.227,100.669L624.42,100.229L625.613,100L626.807,99.735L628,99.405L629.193,99.205L630.387,99L631.58,98.793L632.773,98.642L633.966,98.36L635.16,97.975L636.353,97.62L637.546,97.187L638.739,96.67L639.933,96.433L641.126,96.153L642.319,95.882L643.513,95.508L644.706,95.09L645.899,94.778L647.092,94.552L648.286,94.185L649.479,93.745L650.672,93.128L651.866,92.745L653.059,92.275L654.252,92.004L655.445,91.755L656.639,91.421L657.832,91.277L659.025,91.066L660.218,90.533L661.412,89.947L662.605,89.518L663.798,88.921L664.992,88.589L666.185,88.307L667.378,87.967L668.571,87.633L669.765,87.349L670.958,86.902L672.151,86.636L673.345,86.191L674.538,85.528L675.731,85.063L676.924,84.727L678.118,84.228L679.311,83.896L680.504,83.654L681.697,83.141L682.891,82.729L684.084,82.269L685.277,81.815L686.471,81.287L687.664,80.583L688.857,79.817L690.05,79.4L691.244,78.965L692.437,78.331L693.63,77.9L694.824,77.578L696.017,77.163L697.21,76.811L698.403,76.457L699.597,75.889L700.79,75.393L701.983,75.188L703.176,74.745L704.37,74.366L705.563,73.928L706.756,73.496L707.95,73.238L709.143,72.859L710.336,72.293L711.529,71.77L712.723,71.421L713.916,70.886L715.109,70.617L716.303,70.274L717.496,69.886L718.689,69.634L719.882,69.334L721.076,68.937L722.269,68.621L723.462,68.302L724.655,67.712L725.849,67.382L727.042,67.101L728.235,66.848L729.429,66.612L730.622,66.299L731.815,66.007L733.008,65.827L734.202,65.605L735.395,65.129L736.588,64.83L737.782,64.603L738.975,64.159L740.168,63.848L741.361,63.717L742.555,63.451L743.748,63.095L744.941,62.829L746.134,62.466L747.328,62.071L748.521,61.695L749.714,61.113L750.908,60.709L752.101,60.449L753.294,60.403L754.487,60.397L755.681,60.395L756.874,60.391L758.067,60.386L759.261,60.38L760.454,60.373L761.647,60.342L762.84,60.319L764.034,60.304L765.227,60.267L766.42,60.206L767.613,60.163L768.807,60.108L770,60"/></g></svg>