<svg class="plot-d6a7b5" fill="currentColor" font-family="system-ui, sans-serif" font-size="10" text-anchor="middle" width="830" height="470" viewBox="0 0 830 470" xmlns="http://www.w3.org/2000/svg" xmlns:xlink="http://www.w3.org/1999/xlink" color="dodgerblue"><style>:where(.plot-d6a7b5){--plot-background: white;display:block;height:intrinsic;max-width:100%}:where(.plot-d6a7b5 text),:where(.plot-d6a7b5 tspan){white-space:pre}</style><g aria-label="y-grid" stroke="currentColor" stroke-opacity=".1"><line x1="60" x2="770" y1="410" y2="410"/><line x1="60" x2="770" y1="360.939" y2="360.939"/><line x1="60" x2="770" y1="311.878" y2="311.878"/><line x1="60" x2="770" y1="262.817" y2="262.817"/><line x1="60" x2="770" y1="213.757" y2="213.757"/><line x1="60" x2="770" y1="164.696" y2="164.696"/><line x1="60" x2="770" y1="115.635" y2="115.635"/><line x1="60" x2="770" y1="66.574" y2="66.574"/></g><g aria-label="y-axis tick" fill="none" stroke="currentColor"><path transform="translate(60,410)" d="M0,0L-6,0"/><path transform="translate(60,360.9391645640594)" d="M0,0L-6,0"/><path transform="translate(60,311.8783291281189)" d="M0,0L-6,0"/><path transform="translate(60,262.8174936921783)" d="M0,0L-6,0"/><path transform="translate(60,213.7566582562377)" d="M0,0L-6,0"/><path transform="translate(60,164.69582282029717)" d="M0,0L-6,0"/><path transform="translate(60,115.6349873843566)" d="M0,0L-6,0"/><path transform="translate(60,66.57415194841604)" d="M0,0L-6,0"/></g><g aria-label="y-axis tick label" text-anchor="end" font-variant="tabular-nums"><text y=".32em" transform="translate(-9,0) translate(60,410)">0</text><text y=".32em" transform="translate(-9,0) translate(60,360.9391645640594)">1,000</text><text y=".32em" transform="translate(-9,0) translate(60,311.8783291281189)">2,000</text><text y=".32em" transform="translate(-9,0) translate(60,262.8174936921783)">3,000</text><text y=".32em" transform="translate(-9,0) translate(60,213.7566582562377)">4,000</text><text y=".32em" transform="translate(-9,0) translate(60,164.69582282029717)">5,000</text><text y=".32em" transform="translate(-9,0) translate(60,115.6349873843566)">6,000</text><text y=".32em" transform="translate(-9,0) translate(60,66.57415194841604)">7,000</text></g><g aria-label="y-axis label" text-anchor="start"><text y=".71em" transform="translate(-57,-57) translate(60,60)">↑ Visible Vestiges (Default settings)</text></g><g aria-label="x-axis tick" fill="none" stroke="currentColor"><path transform="translate(66.99124726477024,410)" d="M0,0L0,6"/><path transform="translate(139.23413566739606,410)" d="M0,0L0,6"/><path transform="translate(209.1466083150985,410)" d="M0,0L0,6"/><path transform="translate(281.3894967177243,410)" d="M0,0L0,6"/><path transform="translate(351.30196936542666,410)" d="M0,0L0,6"/><path transform="translate(423.5448577680525,410)" d="M0,0L0,6"/><path transform="translate(495.7877461706783,410)" d="M0,0L0,6"/><path transform="translate(565.7002188183808,410)" d="M0,0L0,6"/><path transform="translate(637.9431072210066,410)" d="M0,0L0,6"/><path transform="translate(707.855579868709,410)" d="M0,0L0,6"/></g><g aria-label="x-axis tick label" font-variant="tabular-nums"><text transform="translate(0,9) translate(66.99124726477024,410)"><tspan x="0" y=".71em">Mar</tspan><tspan x="0" dy="1em">2023</tspan></text><text y=".71em" transform="translate(0,9) translate(139.23413566739606,410)">Apr</text><text y=".71em" transform="translate(0,9) translate(209.1466083150985,410)">May</text><text y=".71em" transform="translate(0,9) translate(281.3894967177243,410)">Jun</text><text y=".71em" transform="translate(0,9) translate(351.30196936542666,410)">Jul</text><text y=".71em" transform="translate(0,9) translate(423.5448577680525,410)">Aug</text><text y=".71em" transform="translate(0,9) translate(495.7877461706783,410)">Sep</text><text y=".71em" transform="translate(0,9) translate(565.7002188183808,410)">Oct</text><text y=".71em" transform="translate(0,9) translate(637.9431072210066,410)">Nov</text><text y=".71em" transform="translate(0,9) translate(707.855579868709,410)">Dec</text></g><g aria-label="line" fill="none" stroke="currentColor" stroke-width="1.5" stroke-linejoin="round" stroke-linecap="round"><path d="M60,410L61.554,385.371L63.107,295.296L64.661,246.726L66.214,236.913L67.768,270.177L69.322,274.003L70.875,266.497L72.429,238.434L73.982,216.013L75.536,178.237L77.09,139.626L78.643,90.369L80.197,109.65L81.751,145.66L83.304,202.669L84.858,195.015L86.411,193.445L87.965,192.906L89.519,202.227L91.072,211.5L92.626,182.996L94.179,179.12L95.733,151.989L97.287,189.815L98.84,205.22L100.394,226.905L101.947,195.948L103.501,180.395L105.055,178.089L106.608,172.398L108.162,155.718L109.716,120.05L111.269,109.601L112.823,132.463L114.376,196.683L115.93,250.013L117.484,270.765L119.037,263.21L120.591,242.555L122.144,233.038L123.698,194.623L125.252,149.978L126.805,97.041L128.359,82.862L129.912,111.808L131.466,141.343L133.02,166.756L134.573,169.111L136.127,181.131L137.681,172.595L139.234,152.136L140.788,116.665L142.341,86.689L143.895,60L145.449,86.934L147.002,122.258L148.556,160.378L150.109,147.328L151.663,133.297L153.217,116.518L154.77,104.351L156.324,106.461L157.877,106.362L159.431,107.049L160.985,95.029L162.538,125.006L164.092,147.77L165.646,175.048L167.199,172.791L168.753,182.603L170.306,202.375L171.86,199.333L173.414,182.358L174.967,158.759L176.521,141.883L178.074,161.114L179.628,182.161L181.182,219.055L182.735,234.853L184.289,250.503L185.842,249.718L187.396,224.795L188.95,202.473L190.503,178.482L192.057,176.716L193.611,168.474L195.164,188.785L196.718,212.825L198.271,207.967L199.825,205.613L201.379,211.5L202.932,247.412L204.486,255.802L206.039,231.32L207.593,208.507L209.147,194.329L210.7,192.562L212.254,221.508L213.807,245.744L215.361,262.033L216.915,240.74L218.468,245.793L220.022,248.099L221.575,252.662L223.129,215.327L224.683,195.997L226.236,185.841L227.79,211.549L229.344,223.814L230.897,231.32L232.451,235.638L234.004,238.483L235.558,248.05L237.112,248.345L238.665,235.834L240.219,235.785L241.772,227.69L243.326,239.955L244.88,253.496L246.433,267.527L247.987,274.151L249.54,266.154L251.094,265.712L252.648,267.086L254.201,259.334L255.755,217.829L257.309,195.212L258.862,179.757L260.416,216.897L261.969,223.618L263.523,247.412L265.077,243.438L266.63,262.327L268.184,246.578L269.737,241.623L271.291,218.025L272.845,203.454L274.398,196.34L275.952,200.314L277.505,230.486L279.059,232.105L280.613,239.857L282.166,249.865L283.72,249.718L285.274,261.297L286.827,259.579L288.381,278.174L289.934,273.464L291.488,263.799L293.042,265.761L294.595,263.21L296.149,262.719L297.702,262.817L299.256,267.969L300.81,285.042L302.363,277.438L303.917,269.637L305.47,263.014L307.024,259.825L308.578,265.123L310.131,263.063L311.685,273.366L313.239,272.384L314.792,264.191L316.346,257.813L317.899,261.64L319.453,269.833L321.007,270.569L322.56,274.396L324.114,265.123L325.667,267.675L327.221,255.262L328.775,262.916L330.328,264.093L331.882,284.993L333.435,288.82L334.989,293.824L336.543,272.875L338.096,265.271L339.65,260.414L341.204,258.647L342.757,260.953L344.311,256.292L345.864,262.278L347.418,245.744L348.972,237.649L350.525,247.952L352.079,265.859L353.632,276.26L355.186,281.068L356.74,283.766L358.293,298.534L359.847,288.28L361.4,291.665L362.954,280.381L364.508,284.404L366.061,276.604L367.615,280.283L369.168,278.615L370.722,282.442L372.276,276.751L373.829,276.996L375.383,272.679L376.937,283.325L378.49,279.4L380.044,283.963L381.597,277.928L383.151,271.109L384.705,268.263L386.258,262.572L387.812,269.49L389.365,277.29L390.919,270.373L392.473,268.165L394.026,274.445L395.58,286.514L397.133,296.817L398.687,281.804L400.241,289.458L401.794,282.687L403.348,288.771L404.902,284.306L406.455,276.015L408.009,262.082L409.562,253.643L411.116,272.826L412.67,271.452L414.223,271.599L415.777,257.617L417.33,263.161L418.884,270.716L420.438,270.177L421.991,279.694L423.545,269.637L425.098,269.244L426.652,254.87L428.206,255.704L429.759,255.556L431.313,266.791L432.867,258.255L434.42,242.653L435.974,208.605L437.527,213.266L439.081,232.105L440.635,264.486L442.188,273.905L443.742,282.246L445.295,287.152L446.849,287.299L448.403,288.476L449.956,288.133L451.51,286.416L453.063,284.11L454.617,281.313L456.171,277.536L457.724,273.071L459.278,276.407L460.832,264.24L462.385,249.964L463.939,234.706L465.492,250.16L467.046,257.666L468.6,256.881L470.153,253.594L471.707,252.269L473.26,262.817L474.814,266.546L476.368,281.559L477.921,292.303L479.475,304.372L481.028,298.436L482.582,298.239L484.136,287.25L485.689,282.785L487.243,285.876L488.796,287.888L490.35,292.941L491.904,294.118L493.457,296.964L495.011,299.466L496.565,300.791L498.118,300.594L499.672,291.322L501.225,278.762L502.779,281.755L504.333,284.944L505.886,294.609L507.44,300.692L508.993,307.512L510.547,314.822L512.101,324.242L513.654,331.208L515.208,307.463L516.761,288.329L518.315,276.26L519.869,283.08L521.422,301.576L522.976,310.505L524.53,334.25L526.083,334.103L527.637,330.227L529.19,324.094L530.744,307.806L532.298,300.496L533.851,270.373L535.405,254.575L536.958,265.32L538.512,289.556L540.066,316.294L541.619,312.909L543.173,314.626L544.726,308.101L546.28,313.792L547.834,310.308L549.387,299.073L550.941,292.597L552.495,288.329L554.048,309.965L555.602,320.415L557.155,335.182L558.709,329.687L560.263,326.94L561.816,315.999L563.37,310.161L564.923,300.496L566.477,294.315L568.031,293.137L569.584,309.229L571.138,321.592L572.691,331.306L574.245,327.087L575.799,332.827L577.352,329.982L578.906,320.268L580.46,306.285L582.013,288.771L583.567,275.377L585.12,270.373L586.674,281.706L588.228,301.379L589.781,316.588L591.335,323.8L592.888,320.611L594.442,313.595L595.996,314.282L597.549,318.845L599.103,303.047L600.656,282.246L602.21,277.977L603.764,303.293L605.317,329.05L606.871,341.168L608.425,335.231L609.978,332.974L611.532,326.253L613.085,316.049L614.639,290.144L616.193,276.555L617.746,272.139L619.3,295.1L620.853,307.855L622.407,316.196L623.961,315.656L625.514,314.233L627.068,319.483L628.621,307.316L630.175,308.052L631.729,303.195L633.282,315.803L634.836,323.751L636.389,328.412L637.943,330.325L639.497,332.484L641.05,346.81L642.604,348.38L644.158,324.291L645.711,300.938L647.265,277.83L648.818,286.121L650.372,301.821L651.926,330.571L653.479,334.741L655.033,333.858L656.586,334.299L658.14,342.983L659.694,343.375L661.247,341.756L662.801,333.71L664.354,336.163L665.908,329.442L667.462,338.911L669.015,344.504L670.569,357.603L672.123,357.063L673.676,356.72L675.23,353.531L676.783,360.203L678.337,346.761L679.891,326.351L681.444,301.526L682.998,303.096L684.551,312.32L686.105,331.012L687.659,339.058L689.212,349.165L690.766,342.198L692.319,334.839L693.873,323.555L695.427,322.525L696.98,320.17L698.534,322.083L700.088,321.396L701.641,328.412L703.195,330.08L704.748,327.627L706.302,316.441L707.856,316.588L709.409,321.494L710.963,338.567L712.516,335.28L714.07,330.914L715.624,324.83L717.177,335.133L718.731,351.618L720.284,355.935L721.838,351.765L723.392,345.927L724.945,351.618L726.499,354.12L728.053,355.837L729.606,352.354L731.16,349.802L732.713,352.599L734.267,348.281L735.821,343.523L737.374,344.258L738.928,355.641L740.481,369.034L742.035,366.091L743.589,355.248L745.142,340.775L746.696,335.133L748.249,343.768L749.803,351.961L751.357,347.742L752.91,347.496L754.464,353.04L756.018,361.037L757.571,353.089L759.125,349.999L760.678,345.779L762.232,338.518L763.786,327.725L765.339,334.005L766.893,346.025L768.446,344.847L770,336.213"/></g></svg>