<?xml version="1.0"?>
<svg xmlns="http://www.w3.org/2000/svg" xmlns:xlink="http://www.w3.org/1999/xlink" class="plot-d6a7b5" fill="currentColor" font-family="system-ui, sans-serif" font-size="10" text-anchor="middle" width="830" height="470" viewBox="0 0 830 470" color="#1e90ff">
  <style>:where(.plot-d6a7b5){--plot-background: white;display:block;height:intrinsic;max-width:100%}:where(.plot-d6a7b5 text),:where(.plot-d6a7b5 tspan){white-space:pre}</style>
  <g aria-label="y-grid" aria-hidden="true" stroke="currentColor" stroke-opacity=".1">
    <line x1="60" x2="770" y1="410" y2="410"/>
    <line x1="60" x2="770" y1="360.939" y2="360.939"/>
    <line x1="60" x2="770" y1="311.878" y2="311.878"/>
    <line x1="60" x2="770" y1="262.817" y2="262.817"/>
    <line x1="60" x2="770" y1="213.757" y2="213.757"/>
    <line x1="60" x2="770" y1="164.696" y2="164.696"/>
    <line x1="60" x2="770" y1="115.635" y2="115.635"/>
    <line x1="60" x2="770" y1="66.574" y2="66.574"/>
  </g>
  <g aria-label="y-axis tick" aria-hidden="true" fill="none" stroke="currentColor">
    <path transform="translate(60,410)" d="M0,0L-6,0"/>
    <path transform="translate(60,360.9391645640594)" d="M0,0L-6,0"/>
    <path transform="translate(60,311.8783291281189)" d="M0,0L-6,0"/>
    <path transform="translate(60,262.8174936921783)" d="M0,0L-6,0"/>
    <path transform="translate(60,213.7566582562377)" d="M0,0L-6,0"/>
    <path transform="translate(60,164.69582282029717)" d="M0,0L-6,0"/>
    <path transform="translate(60,115.6349873843566)" d="M0,0L-6,0"/>
    <path transform="translate(60,66.57415194841604)" d="M0,0L-6,0"/>
  </g>
  <g aria-label="y-axis tick label" text-anchor="end" font-variant="tabular-nums">
    <text y=".32em" transform="translate(-9,0) translate(60,410)">0</text>
    <text y=".32em" transform="translate(-9,0) translate(60,360.9391645640594)">1,000</text>
    <text y=".32em" transform="translate(-9,0) translate(60,311.8783291281189)">2,000</text>
    <text y=".32em" transform="translate(-9,0) translate(60,262.8174936921783)">3,000</text>
    <text y=".32em" transform="translate(-9,0) translate(60,213.7566582562377)">4,000</text>
    <text y=".32em" transform="translate(-9,0) translate(60,164.69582282029717)">5,000</text>
    <text y=".32em" transform="translate(-9,0) translate(60,115.6349873843566)">6,000</text>
    <text y=".32em" transform="translate(-9,0) translate(60,66.57415194841604)">7,000</text>
  </g>
  <g aria-label="y-axis label" text-anchor="start">
    <text y=".71em" transform="translate(-57,-57) translate(60,60)">&#x2191; Visible Vestiges (4 days)</text>
  </g>
  <g aria-label="x-axis tick" aria-hidden="true" fill="none" stroke="currentColor">
    <path transform="translate(84.76744186046511,410)" d="M0,0L0,6"/>
    <path transform="translate(151.05677154582762,410)" d="M0,0L0,6"/>
    <path transform="translate(218.07455540355676,410)" d="M0,0L0,6"/>
    <path transform="translate(285.0923392612859,410)" d="M0,0L0,6"/>
    <path transform="translate(351.38166894664846,410)" d="M0,0L0,6"/>
    <path transform="translate(417.6709986320109,410)" d="M0,0L0,6"/>
    <path transform="translate(484.6887824897401,410)" d="M0,0L0,6"/>
    <path transform="translate(551.7065663474692,410)" d="M0,0L0,6"/>
    <path transform="translate(617.267441860465,410)" d="M0,0L0,6"/>
    <path transform="translate(683.5567715458276,410)" d="M0,0L0,6"/>
    <path transform="translate(750.5745554035567,410)" d="M0,0L0,6"/>
  </g>
  <g aria-label="x-axis tick label" font-variant="tabular-nums">
    <text transform="translate(0,9) translate(84.76744186046511,410)">
      <tspan x="0" y=".71em">Apr</tspan>
      <tspan x="0" dy="1em">2023</tspan>
    </text>
    <text y=".71em" transform="translate(0,9) translate(151.05677154582762,410)">Jul</text>
    <text y=".71em" transform="translate(0,9) translate(218.07455540355676,410)">Oct</text>
    <text transform="translate(0,9) translate(285.0923392612859,410)">
      <tspan x="0" y=".71em">Jan</tspan>
      <tspan x="0" dy="1em">2024</tspan>
    </text>
    <text y=".71em" transform="translate(0,9) translate(351.38166894664846,410)">Apr</text>
    <text y=".71em" transform="translate(0,9) translate(417.6709986320109,410)">Jul</text>
    <text y=".71em" transform="translate(0,9) translate(484.6887824897401,410)">Oct</text>
    <text transform="translate(0,9) translate(551.7065663474692,410)">
      <tspan x="0" y=".71em">Jan</tspan>
      <tspan x="0" dy="1em">2025</tspan>
    </text>
    <text y=".71em" transform="translate(0,9) translate(617.267441860465,410)">Apr</text>
    <text y=".71em" transform="translate(0,9) translate(683.5567715458276,410)">Jul</text>
    <text y=".71em" transform="translate(0,9) translate(750.5745554035567,410)">Oct</text>
  </g>
  <g aria-label="line" fill="none" stroke="currentColor" stroke-width="1.5" stroke-linejoin="round" stroke-linecap="round">
    <path d="M60,
410.00L
60.49,
385.37L
60.97,
295.30L
61.46,
246.73L
61.94,
236.91L
62.43,
270.18L
62.91,
274.00L
63.40,
266.50L
63.89,
238.43L
64.37,
216.01L
64.86,
178.24L
65.34,
139.63L
65.83,
90.37L
66.31,
109.65L
66.80,
145.66L
67.29,
202.67L
67.77,
195.02L
68.26,
193.45L
68.74,
192.91L
69.23,
202.23L
69.71,
211.50L
70.20,
183.00L
70.68,
179.12L
71.17,
151.99L
71.66,
189.82L
72.14,
205.22L
72.63,
226.91L
73.11,
195.95L
73.60,
180.40L
74.08,
178.09L
74.57,
172.40L
75.06,
155.72L
75.54,
120.05L
76.03,
109.60L
76.51,
132.46L
77.00,
196.68L
77.48,
250.01L
77.97,
270.77L
78.45,
263.21L
78.94,
242.56L
79.43,
233.04L
79.91,
194.62L
80.40,
149.98L
80.88,
97.04L
81.37,
82.86L
81.85,
111.81L
82.34,
141.34L
82.83,
166.76L
83.31,
169.11L
83.80,
181.13L
84.28,
172.60L
84.77,
152.14L
85.25,
116.67L
85.74,
86.69L
86.22,
60.00L
86.71,
86.93L
87.20,
122.26L
87.68,
160.38L
88.17,
147.33L
88.65,
133.30L
89.14,
116.52L
89.62,
104.35L
90.11,
106.46L
90.60,
106.36L
91.08,
107.05L
91.57,
95.03L
92.05,
125.01L
92.54,
147.77L
93.02,
175.05L
93.51,
172.79L
94.00,
182.60L
94.48,
202.38L
94.97,
199.33L
95.45,
182.36L
95.94,
158.76L
96.42,
141.88L
96.91,
161.11L
97.39,
182.16L
97.88,
219.06L
98.37,
234.85L
98.85,
250.50L
99.34,
249.72L
99.82,
224.80L
100.31,
202.47L
100.79,
178.48L
101.28,
176.72L
101.77,
168.47L
102.25,
188.79L
102.74,
212.83L
103.22,
207.97L
103.71,
205.61L
104.19,
211.50L
104.68,
247.41L
105.16,
255.80L
105.65,
231.32L
106.14,
208.51L
106.62,
194.33L
107.11,
192.56L
107.59,
221.51L
108.08,
245.74L
108.56,
262.03L
109.05,
240.74L
109.54,
245.79L
110.02,
248.10L
110.51,
252.66L
110.99,
215.33L
111.48,
196.00L
111.96,
185.84L
112.45,
211.55L
112.93,
223.81L
113.42,
231.32L
113.91,
235.64L
114.39,
238.48L
114.88,
248.05L
115.36,
248.35L
115.85,
235.83L
116.33,
235.79L
116.82,
227.69L
117.31,
239.96L
117.79,
253.50L
118.28,
267.53L
118.76,
274.15L
119.25,
266.15L
119.73,
265.71L
120.22,
267.09L
120.71,
259.33L
121.19,
217.83L
121.68,
195.21L
122.16,
179.76L
122.65,
216.90L
123.13,
223.62L
123.62,
247.41L
124.10,
243.44L
124.59,
262.33L
125.08,
246.58L
125.56,
241.62L
126.05,
218.03L
126.53,
203.45L
127.02,
196.34L
127.50,
200.31L
127.99,
230.49L
128.48,
232.11L
128.96,
239.86L
129.45,
249.87L
129.93,
249.72L
130.42,
261.30L
130.90,
259.58L
131.39,
278.17L
131.87,
273.46L
132.36,
263.80L
132.85,
265.76L
133.33,
263.21L
133.82,
262.72L
134.30,
262.82L
134.79,
267.97L
135.27,
285.04L
135.76,
277.44L
136.25,
269.64L
136.73,
263.01L
137.22,
259.83L
137.70,
265.12L
138.19,
263.06L
138.67,
273.37L
139.16,
272.38L
139.64,
264.19L
140.13,
257.81L
140.62,
261.64L
141.10,
269.83L
141.59,
270.57L
142.07,
274.40L
142.56,
265.12L
143.04,
267.68L
143.53,
255.26L
144.01,
262.92L
144.50,
264.09L
144.99,
284.99L
145.47,
288.82L
145.96,
293.82L
146.44,
272.88L
146.93,
265.27L
147.42,
260.41L
147.90,
258.65L
148.39,
260.95L
148.87,
256.29L
149.36,
262.28L
149.84,
245.74L
150.33,
237.65L
150.81,
247.95L
151.30,
265.86L
151.79,
276.26L
152.27,
281.07L
152.76,
283.77L
153.24,
298.53L
153.73,
288.28L
154.21,
291.67L
154.70,
280.38L
155.19,
284.40L
155.67,
276.60L
156.16,
280.28L
156.64,
278.62L
157.13,
282.44L
157.61,
276.75L
158.10,
277.00L
158.58,
272.68L
159.07,
283.33L
159.56,
279.40L
160.04,
283.96L
160.53,
277.93L
161.01,
271.11L
161.50,
268.26L
161.98,
262.57L
162.47,
269.49L
162.96,
277.29L
163.44,
270.37L
163.93,
268.17L
164.41,
274.45L
164.90,
286.51L
165.38,
296.82L
165.87,
281.80L
166.35,
289.46L
166.84,
282.69L
167.33,
288.77L
167.81,
284.31L
168.30,
276.02L
168.78,
262.08L
169.27,
253.64L
169.75,
272.83L
170.24,
271.45L
170.73,
271.60L
171.21,
257.62L
171.70,
263.16L
172.18,
270.72L
172.67,
270.18L
173.15,
279.69L
173.64,
269.64L
174.12,
269.24L
174.61,
254.87L
175.10,
255.70L
175.58,
255.56L
176.07,
266.79L
176.55,
258.26L
177.04,
242.65L
177.52,
208.61L
178.01,
213.27L
178.50,
232.11L
178.98,
264.49L
179.47,
273.90L
179.95,
282.25L
180.44,
287.15L
180.92,
287.30L
181.41,
288.48L
181.90,
288.13L
182.38,
286.42L
182.87,
284.11L
183.35,
281.31L
183.84,
277.54L
184.32,
273.07L
184.81,
276.41L
185.29,
264.24L
185.78,
249.96L
186.27,
234.71L
186.75,
250.16L
187.24,
257.67L
187.72,
256.88L
188.21,
253.59L
188.69,
252.27L
189.18,
262.82L
189.67,
266.55L
190.15,
281.56L
190.64,
292.30L
191.12,
304.37L
191.61,
298.44L
192.09,
298.24L
192.58,
287.25L
193.06,
282.79L
193.55,
285.88L
194.04,
287.89L
194.52,
292.94L
195.01,
294.12L
195.49,
296.96L
195.98,
299.47L
196.46,
300.79L
196.95,
300.59L
197.44,
291.32L
197.92,
278.76L
198.41,
281.76L
198.89,
284.94L
199.38,
294.61L
199.86,
300.69L
200.35,
307.51L
200.83,
314.82L
201.32,
324.24L
201.81,
331.21L
202.29,
307.46L
202.78,
288.33L
203.26,
276.26L
203.75,
283.08L
204.23,
301.58L
204.72,
310.51L
205.21,
334.25L
205.69,
334.10L
206.18,
330.23L
206.66,
324.09L
207.15,
307.81L
207.63,
300.50L
208.12,
270.37L
208.61,
254.58L
209.09,
265.32L
209.58,
289.56L
210.06,
316.29L
210.55,
312.91L
211.03,
314.63L
211.52,
308.10L
212.00,
313.79L
212.49,
310.31L
212.98,
299.07L
213.46,
292.60L
213.95,
288.33L
214.43,
309.96L
214.92,
320.42L
215.40,
335.18L
215.89,
329.69L
216.38,
326.94L
216.86,
316.00L
217.35,
310.16L
217.83,
300.50L
218.32,
294.32L
218.80,
293.14L
219.29,
309.23L
219.77,
321.59L
220.26,
331.31L
220.75,
327.09L
221.23,
332.83L
221.72,
329.98L
222.20,
320.27L
222.69,
306.29L
223.17,
288.77L
223.66,
275.38L
224.15,
270.37L
224.63,
281.71L
225.12,
301.38L
225.60,
316.59L
226.09,
323.80L
226.57,
320.61L
227.06,
313.60L
227.54,
314.28L
228.03,
318.85L
228.52,
303.05L
229.00,
282.25L
229.49,
277.98L
229.97,
303.29L
230.46,
329.05L
230.94,
341.17L
231.43,
335.23L
231.92,
332.97L
232.40,
326.25L
232.89,
316.05L
233.37,
290.14L
233.86,
276.56L
234.34,
272.14L
234.83,
295.10L
235.32,
307.86L
235.80,
316.20L
236.29,
315.66L
236.77,
314.23L
237.26,
319.48L
237.74,
307.32L
238.23,
308.05L
238.71,
303.20L
239.20,
315.80L
239.69,
323.75L
240.17,
328.41L
240.66,
330.33L
241.14,
332.48L
241.63,
346.81L
242.11,
348.38L
242.60,
324.29L
243.09,
300.94L
243.57,
277.83L
244.06,
286.12L
244.54,
301.82L
245.03,
330.57L
245.51,
334.74L
246.00,
333.86L
246.48,
334.30L
246.97,
342.98L
247.46,
343.38L
247.94,
341.76L
248.43,
333.71L
248.91,
336.16L
249.40,
329.44L
249.88,
338.91L
250.37,
344.50L
250.86,
357.60L
251.34,
357.06L
251.83,
356.72L
252.31,
353.53L
252.80,
360.20L
253.28,
346.76L
253.77,
326.35L
254.25,
301.53L
254.74,
303.10L
255.23,
312.32L
255.71,
331.01L
256.20,
339.06L
256.68,
349.17L
257.17,
342.20L
257.65,
334.84L
258.14,
323.56L
258.63,
322.52L
259.11,
320.17L
259.60,
322.08L
260.08,
321.40L
260.57,
328.41L
261.05,
330.08L
261.54,
327.63L
262.02,
316.44L
262.51,
316.59L
263.00,
321.49L
263.48,
338.57L
263.97,
335.28L
264.45,
330.91L
264.94,
324.83L
265.42,
335.13L
265.91,
351.62L
266.40,
355.94L
266.88,
351.77L
267.37,
345.93L
267.85,
351.62L
268.34,
354.12L
268.82,
355.84L
269.31,
352.35L
269.80,
349.80L
270.28,
352.60L
270.77,
348.28L
271.25,
343.52L
271.74,
344.26L
272.22,
355.64L
272.71,
369.03L
273.19,
366.09L
273.68,
355.25L
274.17,
340.78L
274.65,
335.13L
275.14,
343.77L
275.62,
351.96L
276.11,
347.74L
276.59,
347.50L
277.08,
353.04L
277.57,
361.04L
278.05,
353.09L
278.54,
350.00L
279.02,
345.78L
279.51,
338.52L
279.99,
327.73L
280.48,
334.01L
280.96,
346.03L
281.45,
344.85L
281.94,
336.21L
282.42,
328.95L
282.91,
335.38L
283.39,
333.07L
283.88,
333.02L
284.36,
332.63L
284.85,
336.41L
285.33,
338.81L
285.82,
338.42L
286.31,
338.62L
286.79,
332.58L
287.28,
335.92L
287.76,
341.71L
288.25,
342.79L
288.74,
351.27L
289.22,
347.25L
289.71,
347.94L
290.19,
343.03L
290.68,
343.57L
291.16,
351.42L
291.65,
353.43L
292.13,
357.70L
292.62,
366.48L
293.11,
369.97L
293.59,
364.47L
294.08,
351.81L
294.56,
337.29L
295.05,
326.55L
295.53,
317.18L
296.02,
325.62L
296.51,
336.51L
296.99,
353.97L
297.48,
344.16L
297.96,
334.40L
298.45,
331.45L
298.93,
342.05L
299.42,
345.63L
299.90,
336.51L
300.39,
308.69L
300.88,
307.56L
301.36,
305.50L
301.85,
330.08L
302.33,
339.60L
302.82,
349.21L
303.30,
358.29L
303.79,
360.99L
304.27,
346.86L
304.76,
315.41L
305.25,
299.91L
305.73,
295.35L
306.22,
313.40L
306.70,
323.85L
307.19,
342.15L
307.67,
342.00L
308.16,
341.85L
308.65,
334.25L
309.13,
339.06L
309.62,
327.63L
310.10,
312.27L
310.59,
298.14L
311.07,
305.89L
311.56,
317.57L
312.05,
327.04L
312.53,
333.66L
313.02,
332.68L
313.50,
326.94L
313.99,
311.49L
314.47,
315.71L
314.96,
307.46L
315.45,
290.10L
315.93,
267.87L
316.42,
275.77L
316.90,
294.95L
317.39,
304.32L
317.87,
303.34L
318.36,
311.34L
318.84,
326.89L
319.33,
332.53L
319.82,
330.28L
320.30,
319.43L
320.79,
309.13L
321.27,
319.73L
321.76,
328.61L
322.24,
336.95L
322.73,
320.37L
323.21,
321.20L
323.70,
329.84L
324.19,
334.01L
324.67,
324.39L
325.16,
305.55L
325.64,
307.71L
326.13,
309.92L
326.61,
328.02L
327.10,
328.41L
327.58,
338.91L
328.07,
340.04L
328.56,
343.18L
329.04,
342.49L
329.53,
337.98L
330.01,
336.61L
330.50,
322.87L
330.99,
321.89L
331.47,
324.54L
331.96,
348.58L
332.44,
355.25L
332.93,
352.99L
333.41,
350.15L
333.90,
354.17L
334.38,
360.60L
334.87,
347.55L
335.36,
339.06L
335.84,
338.76L
336.33,
341.02L
336.81,
340.19L
337.30,
347.01L
337.78,
359.66L
338.27,
356.43L
338.76,
346.81L
339.24,
339.94L
339.73,
337.19L
340.21,
329.34L
340.70,
313.74L
341.18,
313.11L
341.67,
321.40L
342.16,
359.52L
342.64,
387.83L
343.13,
406.12L
343.61,
409.17L
344.10,
409.22L
344.58,
408.97L
345.07,
408.72L
345.55,
406.86L
346.04,
405.63L
346.53,
405.09L
347.01,
404.65L
347.50,
401.95L
347.98,
399.94L
348.47,
398.67L
348.95,
395.38L
349.44,
388.17L
349.93,
366.29L
350.41,
356.48L
350.90,
350.39L
351.38,
361.48L
351.87,
364.91L
352.35,
365.16L
352.84,
359.42L
353.32,
355.10L
353.81,
349.46L
354.30,
347.35L
354.78,
345.73L
355.27,
343.18L
355.75,
347.25L
356.24,
353.09L
356.72,
356.92L
357.21,
353.48L
357.70,
358.09L
358.18,
364.28L
358.67,
365.06L
359.15,
362.66L
359.64,
364.47L
360.12,
367.07L
360.61,
364.23L
361.09,
355.15L
361.58,
355.59L
362.07,
359.57L
362.55,
364.72L
363.04,
368.54L
363.52,
365.85L
364.01,
372.91L
364.49,
375.56L
364.98,
382.13L
365.47,
379.04L
365.95,
377.52L
366.44,
367.76L
366.92,
356.62L
367.41,
354.86L
367.89,
361.87L
368.38,
364.72L
368.87,
363.88L
369.35,
359.27L
369.84,
365.06L
370.32,
360.06L
370.81,
360.01L
371.29,
354.95L
371.78,
362.07L
372.26,
365.89L
372.75,
369.77L
373.24,
365.55L
373.72,
357.46L
374.21,
361.43L
374.69,
362.66L
375.18,
367.07L
375.66,
361.38L
376.15,
352.70L
376.64,
347.89L
377.12,
341.27L
377.61,
353.09L
378.09,
360.11L
378.58,
367.91L
379.06,
364.86L
379.55,
362.90L
380.03,
360.84L
380.52,
356.18L
381.01,
356.87L
381.49,
351.77L
381.98,
351.91L
382.46,
348.09L
382.95,
347.15L
383.43,
353.97L
383.92,
360.06L
384.41,
376.10L
384.89,
378.26L
385.38,
373.99L
385.86,
366.09L
386.35,
343.23L
386.83,
341.17L
387.32,
331.31L
387.80,
353.78L
388.29,
359.03L
388.78,
370.56L
389.26,
360.89L
389.75,
365.45L
390.23,
364.18L
390.72,
368.45L
391.20,
359.86L
391.69,
351.47L
392.18,
338.91L
392.66,
339.16L
393.15,
337.10L
393.63,
355.20L
394.12,
354.56L
394.60,
351.42L
395.09,
341.95L
395.58,
343.57L
396.06,
349.31L
396.55,
345.34L
397.03,
346.32L
397.52,
338.62L
398.00,
350.00L
398.49,
349.51L
398.97,
360.45L
399.46,
353.34L
399.95,
353.09L
400.43,
349.66L
400.92,
352.21L
401.40,
347.06L
401.89,
342.20L
402.37,
332.19L
402.86,
331.11L
403.35,
340.19L
403.83,
342.54L
404.32,
347.45L
404.80,
351.03L
405.29,
362.80L
405.77,
357.65L
406.26,
355.94L
406.74,
351.37L
407.23,
354.56L
407.72,
353.68L
408.20,
351.72L
408.69,
363.10L
409.17,
372.22L
409.66,
378.41L
410.14,
373.01L
410.63,
354.41L
411.12,
352.94L
411.60,
353.19L
412.09,
366.19L
412.57,
349.66L
413.06,
350.00L
413.54,
348.77L
414.03,
359.32L
414.51,
353.63L
415.00,
359.22L
415.49,
367.07L
415.97,
374.92L
416.46,
373.55L
416.94,
373.99L
417.43,
368.30L
417.91,
353.83L
418.40,
349.31L
418.89,
351.37L
419.37,
354.76L
419.86,
356.57L
420.34,
352.21L
420.83,
362.95L
421.31,
367.02L
421.80,
374.48L
422.29,
370.85L
422.77,
365.36L
423.26,
366.97L
423.74,
372.47L
424.23,
378.99L
424.71,
375.95L
425.20,
373.70L
425.68,
369.82L
426.17,
363.64L
426.66,
358.19L
427.14,
363.64L
427.63,
370.02L
428.11,
371.00L
428.60,
365.70L
429.08,
366.78L
429.57,
366.83L
430.06,
366.14L
430.54,
363.10L
431.03,
365.31L
431.51,
365.50L
432.00,
361.09L
432.48,
352.84L
432.97,
336.51L
433.45,
333.61L
433.94,
335.72L
434.43,
353.43L
434.91,
359.32L
435.40,
361.14L
435.88,
362.07L
436.37,
365.60L
436.85,
372.13L
437.34,
372.17L
437.83,
367.76L
438.31,
364.72L
438.80,
355.49L
439.28,
354.17L
439.77,
344.01L
440.25,
342.05L
440.74,
333.02L
441.22,
333.61L
441.71,
335.67L
442.20,
334.89L
442.68,
332.44L
443.17,
341.07L
443.65,
348.72L
444.14,
343.23L
444.62,
339.89L
445.11,
342.64L
445.60,
354.46L
446.08,
356.87L
446.57,
365.06L
447.05,
341.51L
447.54,
317.37L
448.02,
285.93L
448.51,
289.41L
449.00,
294.81L
449.48,
309.57L
449.97,
313.50L
450.45,
307.37L
450.94,
307.17L
451.42,
321.99L
451.91,
333.91L
452.39,
332.58L
452.88,
327.04L
453.37,
323.26L
453.85,
328.17L
454.34,
344.01L
454.82,
352.26L
455.31,
359.86L
455.79,
358.63L
456.28,
363.59L
456.77,
359.32L
457.25,
352.89L
457.74,
346.76L
458.22,
339.60L
458.71,
341.12L
459.19,
346.66L
459.68,
354.46L
460.16,
358.54L
460.65,
367.46L
461.14,
376.79L
461.62,
382.92L
462.11,
381.99L
462.59,
376.44L
463.08,
376.10L
463.56,
372.52L
464.05,
375.76L
464.54,
373.25L
465.02,
377.77L
465.51,
374.87L
465.99,
376.15L
466.48,
367.61L
466.96,
366.93L
467.45,
362.46L
467.93,
369.87L
468.42,
366.39L
468.91,
363.59L
469.39,
359.42L
469.88,
364.52L
470.36,
367.61L
470.85,
372.42L
471.33,
372.08L
471.82,
378.65L
472.31,
379.58L
472.79,
381.01L
473.28,
380.02L
473.76,
374.09L
474.25,
372.13L
474.73,
370.06L
475.22,
374.77L
475.71,
374.33L
476.19,
373.70L
476.68,
369.77L
477.16,
373.40L
477.65,
368.00L
478.13,
359.96L
478.62,
347.55L
479.10,
333.91L
479.59,
343.72L
480.08,
350.69L
480.56,
365.60L
481.05,
369.08L
481.53,
367.66L
482.02,
367.07L
482.50,
360.40L
482.99,
355.30L
483.48,
333.42L
483.96,
333.02L
484.45,
343.67L
484.93,
358.34L
485.42,
361.09L
485.90,
364.42L
486.39,
372.37L
486.87,
373.40L
487.36,
370.75L
487.85,
368.25L
488.33,
360.65L
488.82,
350.69L
489.30,
340.09L
489.79,
349.70L
490.27,
360.20L
490.76,
375.02L
491.25,
373.74L
491.73,
376.54L
492.22,
382.13L
492.70,
382.08L
493.19,
382.77L
493.67,
379.44L
494.16,
381.35L
494.64,
379.78L
495.13,
381.69L
495.62,
386.26L
496.10,
384.54L
496.59,
380.32L
497.07,
374.48L
497.56,
375.22L
498.04,
371.00L
498.53,
368.40L
499.02,
364.28L
499.50,
363.49L
499.99,
372.47L
500.47,
378.41L
500.96,
384.88L
501.44,
382.87L
501.93,
382.08L
502.42,
384.73L
502.90,
385.81L
503.39,
386.06L
503.87,
377.72L
504.36,
372.76L
504.84,
376.30L
505.33,
389.69L
505.81,
394.01L
506.30,
387.83L
506.79,
382.87L
507.27,
374.87L
507.76,
377.18L
508.24,
370.70L
508.73,
362.80L
509.21,
353.92L
509.70,
345.14L
510.19,
350.15L
510.67,
355.54L
511.16,
369.77L
511.64,
376.98L
512.13,
375.85L
512.61,
377.03L
513.10,
379.39L
513.58,
377.28L
514.07,
372.47L
514.55,
365.01L
515.04,
371.34L
515.53,
371.29L
516.01,
381.20L
516.50,
382.38L
516.98,
382.62L
517.47,
379.39L
517.96,
377.23L
518.44,
380.96L
518.93,
376.69L
519.41,
373.74L
519.90,
371.14L
520.38,
376.74L
520.87,
378.16L
521.35,
378.55L
521.84,
375.12L
522.33,
375.41L
522.81,
373.94L
523.30,
375.27L
523.78,
374.33L
524.27,
370.95L
524.75,
363.29L
525.24,
367.81L
525.73,
375.56L
526.21,
381.79L
526.70,
381.35L
527.18,
381.05L
527.67,
384.39L
528.15,
387.53L
528.64,
387.83L
529.12,
390.82L
529.61,
392.44L
530.10,
395.53L
530.58,
391.11L
531.07,
388.86L
531.55,
390.23L
532.04,
389.25L
532.52,
377.77L
533.01,
372.57L
533.50,
367.81L
533.98,
378.31L
534.47,
380.42L
534.95,
388.90L
535.44,
385.57L
535.92,
384.98L
536.41,
386.84L
536.90,
389.44L
537.38,
387.29L
537.87,
383.31L
538.35,
381.64L
538.84,
377.91L
539.32,
371.83L
539.81,
372.32L
540.29,
373.20L
540.78,
380.27L
541.27,
373.94L
541.75,
377.47L
542.24,
380.17L
542.72,
388.07L
543.21,
388.12L
543.69,
384.73L
544.18,
381.30L
544.67,
374.63L
545.15,
377.96L
545.64,
374.97L
546.12,
381.79L
546.61,
378.60L
547.09,
384.69L
547.58,
386.89L
548.06,
389.15L
548.55,
387.78L
549.04,
387.38L
549.52,
379.83L
550.01,
376.49L
550.49,
361.53L
550.98,
358.39L
551.46,
356.23L
551.95,
363.83L
552.43,
368.59L
552.92,
370.90L
553.41,
367.71L
553.89,
360.01L
554.38,
360.69L
554.86,
361.82L
555.35,
370.70L
555.83,
374.53L
556.32,
380.17L
556.81,
382.53L
557.29,
379.83L
557.78,
385.76L
558.26,
380.56L
558.75,
381.59L
559.23,
378.26L
559.72,
382.62L
560.21,
379.88L
560.69,
381.79L
561.18,
382.18L
561.66,
385.22L
562.15,
384.10L
562.63,
379.98L
563.12,
378.41L
563.61,
370.60L
564.09,
373.50L
564.58,
372.47L
565.06,
376.05L
565.55,
373.45L
566.03,
370.31L
566.52,
368.59L
567.00,
370.90L
567.49,
378.36L
567.98,
380.32L
568.46,
379.73L
568.95,
376.05L
569.43,
376.25L
569.92,
372.76L
570.40,
362.22L
570.89,
349.02L
571.38,
344.90L
571.86,
355.30L
572.35,
370.02L
572.83,
380.02L
573.32,
380.27L
573.80,
377.57L
574.29,
377.38L
574.77,
380.12L
575.26,
375.56L
575.75,
368.20L
576.23,
367.22L
576.72,
371.59L
577.20,
376.05L
577.69,
373.25L
578.17,
375.66L
578.66,
371.73L
579.15,
364.08L
579.63,
363.79L
580.12,
367.42L
580.60,
377.72L
581.09,
379.58L
581.57,
382.67L
582.06,
387.04L
582.54,
379.98L
583.03,
381.40L
583.52,
373.25L
584.00,
375.07L
584.49,
369.87L
584.97,
363.93L
585.46,
362.41L
585.94,
363.34L
586.43,
369.67L
586.92,
367.32L
587.40,
369.23L
587.89,
370.46L
588.37,
372.62L
588.86,
371.68L
589.34,
369.33L
589.83,
368.84L
590.32,
370.95L
590.80,
374.14L
591.29,
376.59L
591.77,
375.07L
592.26,
365.80L
592.74,
370.70L
593.23,
363.39L
593.71,
367.27L
594.20,
368.05L
594.68,
376.93L
595.17,
380.17L
595.66,
366.68L
596.14,
353.19L
596.63,
350.54L
597.11,
354.22L
597.60,
364.03L
598.09,
363.88L
598.57,
361.18L
599.06,
356.77L
599.54,
356.97L
600.03,
364.47L
600.51,
371.44L
601.00,
373.65L
601.48,
376.88L
601.97,
373.94L
602.46,
374.77L
602.94,
372.96L
603.43,
375.36L
603.91,
374.53L
604.40,
369.62L
604.88,
366.29L
605.37,
369.97L
605.86,
379.83L
606.34,
383.51L
606.83,
382.38L
607.31,
381.25L
607.80,
384.98L
608.28,
387.87L
608.77,
386.16L
609.25,
386.70L
609.74,
386.40L
610.23,
387.19L
610.71,
383.02L
611.20,
381.40L
611.68,
377.96L
612.17,
380.86L
612.65,
378.11L
613.14,
384.39L
613.63,
376.49L
614.11,
381.20L
614.60,
376.25L
615.08,
386.40L
615.57,
387.29L
616.05,
383.21L
616.54,
379.34L
617.03,
375.22L
617.51,
386.89L
618.00,
388.61L
618.48,
386.84L
618.97,
384.29L
619.45,
384.24L
619.94,
393.47L
620.42,
393.47L
620.91,
397.34L
621.40,
392.98L
621.88,
395.48L
622.37,
387.48L
622.85,
382.82L
623.34,
376.69L
623.82,
384.10L
624.31,
389.10L
624.79,
394.79L
625.28,
395.09L
625.77,
399.50L
626.25,
395.18L
626.74,
391.50L
627.22,
385.42L
627.71,
391.70L
628.19,
392.63L
628.68,
395.04L
629.17,
388.95L
629.65,
392.49L
630.14,
393.71L
630.62,
399.01L
631.11,
392.98L
631.59,
388.95L
632.08,
386.79L
632.57,
390.08L
633.05,
393.37L
633.54,
395.53L
634.02,
397.34L
634.51,
400.63L
634.99,
402.79L
635.48,
402.45L
635.96,
398.23L
636.45,
398.91L
636.94,
399.45L
637.42,
404.16L
637.91,
402.59L
638.39,
404.16L
638.88,
404.16L
639.36,
405.09L
639.85,
405.54L
640.34,
406.12L
640.82,
405.19L
641.31,
401.41L
641.79,
400.29L
642.28,
400.04L
642.76,
404.90L
643.25,
402.98L
643.74,
402.59L
644.22,
398.67L
644.71,
400.19L
645.19,
395.92L
645.68,
397.24L
646.16,
397.49L
646.65,
402.30L
647.13,
401.27L
647.62,
399.70L
648.11,
401.46L
648.59,
404.41L
649.08,
406.66L
649.56,
405.98L
650.05,
404.26L
650.53,
401.81L
651.02,
400.09L
651.51,
399.84L
651.99,
398.91L
652.48,
396.21L
652.96,
395.14L
653.45,
396.17L
653.93,
398.08L
654.42,
400.78L
654.90,
400.48L
655.39,
398.96L
655.88,
397.34L
656.36,
394.15L
656.85,
393.42L
657.33,
392.09L
657.82,
393.17L
658.30,
397.00L
658.79,
398.86L
659.28,
403.03L
659.76,
400.53L
660.25,
394.30L
660.73,
394.40L
661.22,
392.29L
661.70,
395.43L
662.19,
394.50L
662.67,
399.01L
663.16,
402.79L
663.65,
402.35L
664.13,
401.32L
664.62,
397.49L
665.10,
395.87L
665.59,
393.61L
666.07,
394.30L
666.56,
397.83L
667.05,
397.93L
667.53,
399.60L
668.02,
398.77L
668.50,
404.55L
668.99,
405.09L
669.47,
404.70L
669.96,
401.46L
670.45,
399.60L
670.93,
400.63L
671.42,
400.58L
671.90,
403.33L
672.39,
403.08L
672.87,
404.65L
673.36,
404.21L
673.84,
404.31L
674.33,
402.10L
674.82,
402.00L
675.30,
400.97L
675.79,
398.23L
676.27,
396.02L
676.76,
395.92L
677.24,
398.77L
677.73,
397.24L
678.22,
394.79L
678.70,
396.26L
679.19,
397.98L
679.67,
398.13L
680.16,
396.75L
680.64,
398.27L
681.13,
399.16L
681.61,
396.02L
682.10,
397.39L
682.59,
400.53L
683.07,
403.97L
683.56,
398.42L
684.04,
396.71L
684.53,
393.03L
685.01,
395.18L
685.50,
395.09L
685.99,
393.03L
686.47,
391.70L
686.96,
392.24L
687.44,
395.48L
687.93,
399.80L
688.41,
398.08L
688.90,
403.82L
689.38,
402.49L
689.87,
404.80L
690.36,
403.57L
690.84,
403.33L
691.33,
402.35L
691.81,
398.81L
692.30,
397.24L
692.78,
391.46L
693.27,
393.32L
693.76,
394.30L
694.24,
401.46L
694.73,
400.09L
695.21,
399.94L
695.70,
394.30L
696.18,
397.20L
696.67,
398.13L
697.16,
399.65L
697.64,
396.36L
698.13,
397.74L
698.61,
398.23L
699.10,
399.26L
699.58,
400.48L
700.07,
402.69L
700.55,
403.08L
701.04,
398.52L
701.53,
397.78L
702.01,
398.13L
702.50,
400.92L
702.98,
398.57L
703.47,
394.74L
703.95,
393.12L
704.44,
396.56L
704.93,
396.61L
705.41,
397.20L
705.90,
396.71L
706.38,
402.15L
706.87,
402.79L
707.35,
403.77L
707.84,
399.50L
708.32,
399.06L
708.81,
399.60L
709.30,
404.11L
709.78,
402.54L
710.27,
403.33L
710.75,
400.68L
711.24,
401.95L
711.72,
400.19L
712.21,
403.38L
712.70,
406.66L
713.18,
408.04L
713.67,
408.04L
714.15,
406.71L
714.64,
404.80L
715.12,
404.31L
715.61,
404.36L
716.09,
405.98L
716.58,
406.08L
717.07,
404.75L
717.55,
400.34L
718.04,
400.73L
718.52,
399.65L
719.01,
398.18L
719.49,
388.36L
719.98,
383.90L
720.47,
389.00L
720.95,
397.24L
721.44,
402.25L
721.92,
402.05L
722.41,
402.54L
722.89,
402.45L
723.38,
399.75L
723.87,
395.48L
724.35,
395.72L
724.84,
398.96L
725.32,
404.85L
725.81,
405.39L
726.29,
400.97L
726.78,
398.67L
727.26,
399.06L
727.75,
402.35L
728.24,
402.25L
728.72,
399.50L
729.21,
398.91L
729.69,
394.89L
730.18,
399.55L
730.66,
402.69L
731.15,
407.65L
731.64,
405.49L
732.12,
405.73L
732.61,
400.78L
733.09,
401.02L
733.58,
396.12L
734.06,
396.90L
734.55,
399.06L
735.03,
403.87L
735.52,
409.22L
736.01,
408.38L
736.49,
407.35L
736.98,
406.42L
737.46,
406.81L
737.95,
404.31L
738.43,
403.82L
738.92,
402.49L
739.41,
405.49L
739.89,
407.15L
740.38,
408.53L
740.86,
409.17L
741.35,
409.22L
741.83,
409.41L
742.32,
407.11L
742.80,
403.52L
743.29,
394.74L
743.78,
387.83L
744.26,
386.45L
744.75,
394.06L
745.23,
403.43L
745.72,
405.09L
746.20,
402.94L
746.69,
400.58L
747.18,
400.97L
747.66,
396.71L
748.15,
392.68L
748.63,
392.34L
749.12,
394.06L
749.60,
397.39L
750.09,
398.96L
750.58,
402.30L
751.06,
403.77L
751.55,
401.37L
752.03,
399.26L
752.52,
398.67L
753.00,
402.25L
753.49,
402.15L
753.97,
399.75L
754.46,
394.06L
754.95,
397.15L
755.43,
401.51L
755.92,
407.45L
756.40,
407.65L
756.89,
405.39L
757.37,
404.46L
757.86,
405.49L
758.35,
406.57L
758.83,
407.74L
759.32,
405.93L
759.80,
404.55L
760.29,
400.43L
760.77,
402.10L
761.26,
403.28L
761.74,
405.78L
762.23,
404.95L
762.72,
402.89L
763.20,
401.51L
763.69,
398.96L
764.17,
400.19L
764.66,
402.54L
765.14,
405.14L
765.63,
405.49L
766.12,
403.08L
766.60,
403.97L
767.09,
404.31L
767.57,
403.77L
768.06,
400.38L
768.54,
401.71L
769.03,
402.98L
769.51,
405.19L
770.00,
403.867"/>
  </g>
</svg>
