<svg class="plot-d6a7b5" fill="currentColor" font-family="system-ui, sans-serif" font-size="10" text-anchor="middle" width="830" height="470" viewBox="0 0 830 470" xmlns="http://www.w3.org/2000/svg" xmlns:xlink="http://www.w3.org/1999/xlink" color="#1e90ff"><style>:where(.plot-d6a7b5){--plot-background: white;display:block;height:intrinsic;max-width:100%}:where(.plot-d6a7b5 text),:where(.plot-d6a7b5 tspan){white-space:pre}</style><g aria-label="y-grid" stroke="currentColor" stroke-opacity=".1"><line x1="60" x2="770" y1="410" y2="410"/><line x1="60" x2="770" y1="378.557" y2="378.557"/><line x1="60" x2="770" y1="347.114" y2="347.114"/><line x1="60" x2="770" y1="315.671" y2="315.671"/><line x1="60" x2="770" y1="284.227" y2="284.227"/><line x1="60" x2="770" y1="252.784" y2="252.784"/><line x1="60" x2="770" y1="221.341" y2="221.341"/><line x1="60" x2="770" y1="189.898" y2="189.898"/><line x1="60" x2="770" y1="158.455" y2="158.455"/><line x1="60" x2="770" y1="127.012" y2="127.012"/><line x1="60" x2="770" y1="95.568" y2="95.568"/><line x1="60" x2="770" y1="64.125" y2="64.125"/></g><g aria-label="y-axis tick" fill="none" stroke="currentColor"><path transform="translate(60,410)" d="M0,0L-6,0"/><path transform="translate(60,378.55684921661634)" d="M0,0L-6,0"/><path transform="translate(60,347.11369843323274)" d="M0,0L-6,0"/><path transform="translate(60,315.6705476498491)" d="M0,0L-6,0"/><path transform="translate(60,284.2273968664655)" d="M0,0L-6,0"/><path transform="translate(60,252.7842460830818)" d="M0,0L-6,0"/><path transform="translate(60,221.34109529969817)" d="M0,0L-6,0"/><path transform="translate(60,189.8979445163145)" d="M0,0L-6,0"/><path transform="translate(60,158.45479373293085)" d="M0,0L-6,0"/><path transform="translate(60,127.01164294954722)" d="M0,0L-6,0"/><path transform="translate(60,95.56849216616357)" d="M0,0L-6,0"/><path transform="translate(60,64.12534138277994)" d="M0,0L-6,0"/></g><g aria-label="y-axis tick label" text-anchor="end" font-variant="tabular-nums"><text y=".32em" transform="translate(-9,0) translate(60,410)">0</text><text y=".32em" transform="translate(-9,0) translate(60,378.55684921661634)">5,000</text><text y=".32em" transform="translate(-9,0) translate(60,347.11369843323274)">10,000</text><text y=".32em" transform="translate(-9,0) translate(60,315.6705476498491)">15,000</text><text y=".32em" transform="translate(-9,0) translate(60,284.2273968664655)">20,000</text><text y=".32em" transform="translate(-9,0) translate(60,252.7842460830818)">25,000</text><text y=".32em" transform="translate(-9,0) translate(60,221.34109529969817)">30,000</text><text y=".32em" transform="translate(-9,0) translate(60,189.8979445163145)">35,000</text><text y=".32em" transform="translate(-9,0) translate(60,158.45479373293085)">40,000</text><text y=".32em" transform="translate(-9,0) translate(60,127.01164294954722)">45,000</text><text y=".32em" transform="translate(-9,0) translate(60,95.56849216616357)">50,000</text><text y=".32em" transform="translate(-9,0) translate(60,64.12534138277994)">55,000</text></g><g aria-label="y-axis label" text-anchor="start"><text y=".71em" transform="translate(-57,-57) translate(60,60)">↑ Visible Vestiges (30 days)</text></g><g aria-label="x-axis tick" fill="none" stroke="currentColor"><path transform="translate(90.17500000000001,410)" d="M0,0L0,6"/><path transform="translate(170.9375,410)" d="M0,0L0,6"/><path transform="translate(252.58749999999998,410)" d="M0,0L0,6"/><path transform="translate(334.23749999999995,410)" d="M0,0L0,6"/><path transform="translate(415,410)" d="M0,0L0,6"/><path transform="translate(495.76250000000005,410)" d="M0,0L0,6"/><path transform="translate(577.4125,410)" d="M0,0L0,6"/><path transform="translate(659.0625,410)" d="M0,0L0,6"/><path transform="translate(738.9375,410)" d="M0,0L0,6"/></g><g aria-label="x-axis tick label" font-variant="tabular-nums"><text transform="translate(0,9) translate(90.17500000000001,410)"><tspan x="0" y=".71em">Apr</tspan><tspan x="0" dy="1em">2023</tspan></text><text y=".71em" transform="translate(0,9) translate(170.9375,410)">Jul</text><text y=".71em" transform="translate(0,9) translate(252.58749999999998,410)">Oct</text><text transform="translate(0,9) translate(334.23749999999995,410)"><tspan x="0" y=".71em">Jan</tspan><tspan x="0" dy="1em">2024</tspan></text><text y=".71em" transform="translate(0,9) translate(415,410)">Apr</text><text y=".71em" transform="translate(0,9) translate(495.76250000000005,410)">Jul</text><text y=".71em" transform="translate(0,9) translate(577.4125,410)">Oct</text><text transform="translate(0,9) translate(659.0625,410)"><tspan x="0" y=".71em">Jan</tspan><tspan x="0" dy="1em">2025</tspan></text><text y=".71em" transform="translate(0,9) translate(738.9375,410)">Apr</text></g><g aria-label="line" fill="none" stroke="currentColor" stroke-width="1.5" stroke-linejoin="round" stroke-linecap="round"><path d="M60,410L60.592,406.843L61.183,395.297L61.775,389.071L62.367,384.657L62.958,377.375L63.55,371.639L64.142,366.263L64.733,355.383L65.325,346.774L65.917,336.555L66.508,320.727L67.1,305.804L67.692,298.056L68.283,286.843L68.875,279.228L69.467,270.499L70.058,259.085L70.65,251.401L71.242,243.867L71.833,233.642L72.425,222.303L73.017,214.273L73.608,200.57L74.2,194.08L74.792,188.024L75.383,177.101L75.975,166.643L76.567,158.593L77.158,147.374L77.75,139.344L78.342,140.702L78.933,131.137L79.525,123.025L80.117,123.05L80.708,121.226L81.3,120.912L81.892,127.194L82.483,127.276L83.075,129.156L83.667,139.168L84.258,140.639L84.85,134.325L85.442,132.936L86.033,125.282L86.625,123.66L87.217,126.257L87.808,121.93L88.4,119.415L88.992,122.364L89.583,120.597L90.175,115.956L90.767,117.837L91.358,107.379L91.95,97.342L92.542,99.895L93.133,97.933L93.725,94.776L94.317,95.952L94.908,92.921L95.5,89.752L96.092,93.94L96.683,92.519L97.275,86.406L97.867,82.45L98.458,72.653L99.05,67.722L99.642,67.653L100.233,64L100.825,60L101.417,66.113L102.008,70.716L102.6,73.112L103.192,78.866L103.783,76.734L104.375,73.181L104.967,78.143L105.558,78.407L106.15,78.042L106.742,86.123L107.333,91.016L107.925,95.097L108.517,103.825L109.108,109.278L109.7,106.831L110.292,110.806L110.883,110.315L111.475,112.145L112.067,121L112.658,122.037L113.25,125.125L113.842,134.464L114.433,140.117L115.025,144.192L115.617,151.933L116.208,150.82L116.8,150.16L117.392,154.179L117.983,157.065L118.575,158.254L119.167,161.825L119.758,162.373L120.35,166.385L120.942,173.277L121.533,176.572L122.125,173.334L122.717,175.05L123.308,172.315L123.9,170.347L124.492,171.629L125.083,169.957L125.675,171.736L126.267,176.245L126.858,178.874L127.45,180.918L128.042,184.88L128.633,184.898L129.225,182.823L129.817,188.98L130.408,191.036L131,190.005L131.592,192.407L132.183,192.363L132.775,194.413L133.367,199.916L133.958,200.696L134.55,197.652L135.142,196.545L135.733,192.237L136.325,191.866L136.917,194.35L137.508,192.445L138.1,191.269L138.692,195.589L139.283,196.451L139.875,197.117L140.467,199.714L141.058,195.413L141.65,193.596L142.242,195.74L142.833,194.753L143.425,192.778L144.017,194.69L144.608,194.948L145.2,194.558L145.792,197.96L146.383,199.035L146.975,199.457L147.567,200.519L148.158,198.557L148.75,198.381L149.342,200.142L149.933,198.174L150.525,197.834L151.117,201.249L151.708,206.789L152.3,208.374L152.892,212.77L153.483,212.701L154.075,213.015L154.667,215.04L155.258,215.216L155.85,214.43L156.442,218.348L157.033,218.109L157.625,219.53L158.217,225.806L158.808,227.529L159.4,228.535L159.992,231.434L160.583,231.761L161.175,232.101L161.767,232.126L162.358,233.453L162.95,232.459L163.542,235.384L164.133,234.818L164.725,235.069L165.317,236.547L165.908,234.755L166.5,234.711L167.092,236.025L167.683,234.516L168.275,233.214L168.867,233.107L169.458,230.453L170.05,229.114L170.642,231.177L171.233,231.227L171.825,230.541L172.417,233.484L173.008,232.56L173.6,233.893L174.192,236.572L174.783,236.899L175.375,236.295L175.967,238.44L176.558,237.673L177.15,237.05L177.742,240.169L178.333,239.566L178.925,239.805L179.517,241.974L180.108,240.666L180.7,239.591L181.292,240.767L181.883,239.402L182.475,240.238L183.067,241.515L183.658,240.408L184.25,240.742L184.842,242.609L185.433,243.1L186.025,241.779L186.617,245.483L187.208,247.816L187.8,246.722L188.392,249.451L188.983,248.527L189.575,247.797L190.167,249.313L190.758,247.275L191.35,247.288L191.942,247.307L192.533,244.93L193.125,243.345L193.717,246.823L194.308,243.798L194.9,242.446L195.492,243.641L196.083,242.056L196.675,241.641L197.267,243.32L197.858,241.59L198.45,240.389L199.042,241.433L199.633,238.635L200.225,238.415L200.817,239.805L201.408,239.176L202,236.975L202.592,235.365L203.183,231.258L203.775,229.938L204.367,229.938L204.958,228.435L205.55,227.001L206.142,229.994L206.733,228.139L207.325,227.592L207.917,229.957L208.508,228.63L209.1,228.925L209.692,232.78L210.283,232.176L210.875,229.529L211.467,232.988L212.058,232.793L212.65,230.378L213.242,231.296L213.833,228.177L214.425,227.812L215.017,228.472L215.608,226.542L216.2,225.806L216.792,228.139L217.383,227.454L217.975,227.215L218.567,230.032L219.158,231.818L219.75,235.126L220.342,241.546L220.933,242.71L221.525,242.194L222.117,243.892L222.708,244.244L223.3,242.917L223.892,244.634L224.483,245.118L225.075,244.005L225.667,246.087L226.258,246.961L226.85,246.118L227.442,247.37L228.033,247.118L228.625,247.231L229.217,248.464L229.808,251.011L230.4,253.734L230.992,257.796L231.583,259.299L232.175,262.268L232.767,267.324L233.358,266.204L233.95,266.89L234.542,269.047L235.133,268.323L235.725,269.455L236.317,271.38L236.908,272.153L237.5,274.027L238.092,275.48L238.683,276.876L239.275,277.234L239.867,277.354L240.458,274.631L241.05,272.317L241.642,273.662L242.233,273.681L242.825,274.474L243.417,275.216L244.008,275.48L244.6,276.624L245.192,279.706L245.783,279.14L246.375,278.436L246.967,279.448L247.558,277.555L248.15,278.75L248.742,280.165L249.333,278.958L249.925,278.555L250.517,282.662L251.108,282.504L251.7,282.9L252.292,284.894L252.883,281.574L253.475,280.674L254.067,281.687L254.658,279.97L255.25,280.813L255.842,282.07L256.433,283.177L257.025,284.592L257.617,288.466L258.208,289.805L258.8,287.598L259.392,286.649L259.983,283.919L260.575,283.599L261.167,284.951L261.758,285.007L262.35,284.881L262.942,286.271L263.533,286.869L264.125,287.661L264.717,290.183L265.308,285.982L265.9,282.768L266.492,282.85L267.083,282.599L267.675,283.039L268.267,286.076L268.858,285.812L269.45,287.202L270.042,290.17L270.633,288.749L271.225,284.756L271.817,284.397L272.408,281.165L273,280.655L273.592,281.196L274.183,279.398L274.775,280.064L275.367,282.215L275.958,283.334L276.55,284.158L277.142,287.045L277.733,286.089L278.325,286.007L278.917,287.963L279.508,286.68L280.1,287.252L280.692,290.384L281.283,290.849L281.875,291.038L282.467,293.107L283.058,293.245L283.65,291.019L284.242,290.906L284.833,289.755L285.425,289.661L286.017,290.843L286.608,289.868L287.2,290.692L287.792,294.295L288.383,296.691L288.975,299.05L289.567,302.188L290.158,301.955L290.75,301.817L291.342,305.099L291.933,305.653L292.525,307.376L293.117,309.916L293.708,311.985L294.3,313.205L294.892,317.224L295.483,315.954L296.075,313.539L296.667,313.778L297.258,312.463L297.85,310.954L298.442,311.753L299.033,311.269L299.625,314.142L300.217,317.041L300.808,318.576L301.4,318.941L301.992,319.695L302.583,317.243L303.175,317.318L303.767,318.098L304.358,316.488L304.95,315.664L305.542,316.079L306.133,313.243L306.725,313.47L307.317,314.199L307.908,314.413L308.5,313.004L309.092,312.457L309.683,310.212L310.275,310.193L310.867,311.803L311.458,310.52L312.05,309.112L312.642,311.696L313.233,313.759L313.825,315.853L314.417,318.456L315.008,318.89L315.6,318.261L316.192,320.192L316.783,318.777L317.375,318.431L317.967,321.399L318.558,322.89L319.15,324.393L319.742,327.286L320.333,327.141L320.925,326.877L321.517,328.147L322.108,328.896L322.7,329.996L323.292,332.159L323.883,332.857L324.475,334.04L325.067,335.04L325.658,335.14L326.25,336.486L326.842,337.725L327.433,335.574L328.025,333.423L328.617,334.914L329.208,334.838L329.8,333.285L330.392,332.939L330.983,331.612L331.575,330.663L332.167,330.468L332.758,329.462L333.35,328.103L333.942,328.946L334.533,328.858L335.125,327.355L335.717,326.764L336.308,324.185L336.9,323.487L337.492,325.028L338.083,324.443L338.675,325.556L339.267,325.475L339.858,323.928L340.45,324.953L341.042,324.971L341.633,323.72L342.225,323.978L342.817,325.563L343.408,325.833L344,327.078L344.592,328.889L345.183,328.921L345.775,327.499L346.367,326.393L346.958,325.374L347.55,326.141L348.142,327.361L348.733,327.757L349.325,327.562L349.917,327.537L350.508,327.606L351.1,328.286L351.692,328.411L352.283,327.361L352.875,324.449L353.467,325.204L354.058,323.462L354.65,322.959L355.242,324.795L355.833,323.198L356.425,324.374L357.017,326.468L357.608,323.689L358.2,320.764L358.792,319.865L359.383,316.243L359.975,315.086L360.567,314.4L361.158,312.677L361.75,312.206L362.342,313.124L362.933,312.287L363.525,313.809L364.117,314.463L364.708,310.577L365.3,308.891L365.892,308.3L366.483,307.168L367.075,307.948L367.667,308.583L368.258,305.967L368.85,305.552L369.442,305.376L370.033,306.866L370.625,305.54L371.217,303.401L371.808,298.892L372.4,297.358L372.992,296.446L373.583,291.975L374.175,289.969L374.767,291.893L375.358,293.447L375.95,294.151L376.542,296.371L377.133,294.22L377.725,292.264L378.317,293.497L378.908,292.503L379.5,291.635L380.092,291.717L380.683,290.214L381.275,291.918L381.867,294.503L382.458,293.579L383.05,291.874L383.642,293.239L384.233,291.384L384.825,291.151L385.417,292.692L386.008,292.918L386.6,294.811L387.192,296.214L387.783,297.408L388.375,300.949L388.967,305.024L389.558,303.445L390.15,304.401L390.742,307.615L391.333,309.244L391.925,310.03L392.517,310.96L393.108,311.501L393.7,313.092L394.292,316.237L394.883,316.425L395.475,315.57L396.067,317.538L396.658,316.947L397.25,318.111L397.842,320.846L398.433,320.771L399.025,320.984L399.617,323.72L400.208,325.179L400.8,324.764L401.392,326.21L401.983,323.349L402.575,322.802L403.167,323.965L403.758,325.846L404.35,328.525L404.942,332.122L405.533,334.97L406.125,337.832L406.717,343.158L407.308,346.101L407.9,348.384L408.492,350.472L409.083,352.49L409.675,355.006L410.267,357.113L410.858,358.358L411.45,359.886L412.042,363.244L412.633,364.653L413.225,363.414L413.817,365.225L414.408,365.961L415,365.269L415.592,365.898L416.183,367.08L416.775,366.885L417.367,367.841L417.958,368.652L418.55,369.193L419.142,371.941L419.733,372.507L420.325,372.507L420.917,371.117L421.508,368.545L422.1,365.759L422.692,364.571L423.283,362.785L423.875,360.131L424.467,358.666L425.058,357.352L425.65,355.188L426.242,353.427L426.833,351.006L427.425,349.246L428.017,348.252L428.608,346.655L429.2,345.806L429.792,345.391L430.383,347.504L430.975,348.252L431.567,349.459L432.158,349.755L432.75,349.868L433.342,349.793L433.933,349.396L434.525,349.837L435.117,351.384L435.708,351.623L436.3,352.163L436.892,353.446L437.483,353.905L438.075,353.056L438.667,353.843L439.258,354.094L439.85,353.566L440.442,354.05L441.033,354.698L441.625,353.937L442.217,353.151L442.808,353.975L443.4,353.736L443.992,354.679L444.583,354.717L445.175,352.855L445.767,352.522L446.358,351.22L446.95,351.22L447.542,350.881L448.133,350.239L448.725,349.007L449.317,348.812L449.908,348.101L450.5,347.522L451.092,348.843L451.683,347.705L452.275,346.246L452.867,346.711L453.458,345.56L454.05,345.567L454.642,346.07L455.233,347.617L455.825,347.906L456.417,348.51L457.008,348.132L457.6,345.001L458.192,344.844L458.783,343.743L459.375,344.529L459.967,344.535L460.558,344.755L461.15,343.737L461.742,345.057L462.333,346.227L462.925,346.372L463.517,347.441L464.108,346.019L464.7,343.655L465.292,343.756L465.883,342.46L466.475,342.668L467.067,342.951L467.658,341.85L468.25,340.756L468.842,341.9L469.433,341.517L470.025,340.404L470.617,341.794L471.208,339.548L471.8,339.115L472.392,338.385L472.983,337.266L473.575,336.467L474.167,336.719L474.758,338.09L475.35,337.882L475.942,338.737L476.533,336.605L477.125,334.442L477.717,333.681L478.308,333.952L478.9,331.505L479.492,331.537L480.083,331.719L480.675,331.883L481.267,332.329L481.858,333.901L482.45,333.449L483.042,334.568L483.633,333.706L484.225,333.084L484.817,336.065L485.408,337.586L486,337.549L486.592,339.102L487.183,338.75L487.775,338.398L488.367,340.97L488.958,340.825L489.55,338.417L490.142,339.63L490.733,340.24L491.325,339.215L491.917,340.14L492.508,341.139L493.1,341.781L493.692,344.334L494.283,346.441L494.875,347.277L495.467,347.938L496.058,347.887L496.65,347.516L497.242,347.982L497.833,346.856L498.425,347.378L499.017,347.504L499.608,348.34L500.2,348.975L500.792,350.17L501.383,350.793L501.975,349.264L502.567,349.497L503.158,350.032L503.75,350.032L504.342,352.258L504.933,352.692L505.525,352.163L506.117,351.931L506.708,353.786L507.3,353.912L507.892,354.654L508.483,355.283L509.075,355.459L509.667,355.622L510.258,355.251L510.85,354.333L511.442,354.283L512.033,354.138L512.625,353.975L513.217,355.213L513.808,354.591L514.4,352.069L514.992,352.503L515.583,351.918L516.175,352.226L516.767,352.038L517.358,351.164L517.95,350.635L518.542,351.365L519.133,352.031L519.725,351.302L520.317,350.761L520.908,350.201L521.5,348.68L522.092,348.258L522.683,346.894L523.275,345.913L523.867,345.032L524.458,343.045L525.05,341.511L525.642,340.404L526.233,338.781L526.825,338.215L527.417,338.083L528.008,335.844L528.6,335.241L529.192,335.178L529.783,334.43L530.375,334.7L530.967,336.744L531.558,335.071L532.15,332.618L532.742,330.361L533.333,326.864L533.925,324.349L534.517,323.751L535.108,320.639L535.7,316.884L536.292,315.425L536.883,314.205L537.475,312.545L538.067,311.306L538.658,310.558L539.25,308.583L539.842,309.275L540.433,310.809L541.025,311.048L541.617,312.639L542.208,313.753L542.8,314.727L543.392,316.086L543.983,315.268L544.575,314.476L545.167,315.62L545.758,315.425L546.35,314.991L546.942,315.62L547.533,315.639L548.125,315.3L548.717,320.142L549.308,324.041L549.9,327.613L550.492,331.298L551.083,334.461L551.675,335.681L552.267,339.278L552.858,342.907L553.45,344.73L554.042,346.057L554.633,348.321L555.225,349.22L555.817,351.17L556.408,353.346L557,354.566L557.592,354.037L558.183,354.798L558.775,354.509L559.367,354.792L559.958,355.314L560.55,356.188L561.142,357.251L561.733,359.402L562.325,361.313L562.917,362.364L563.508,363.678L564.1,363.829L564.692,364.106L565.283,364.011L565.875,363.571L566.467,363.005L567.058,362.948L567.65,362.716L568.242,362.659L568.833,362.37L569.425,360.691L570.017,359.364L570.608,356.748L571.2,356.698L571.792,356.1L572.383,356.49L572.975,356.974L573.567,356.767L574.158,356.132L574.75,356.207L575.342,355.704L575.933,352.799L576.525,352.17L577.117,352.635L577.708,350.994L578.3,350.761L578.892,350.811L579.483,350.069L580.075,349.786L580.667,349.623L581.258,349.321L581.85,348.315L582.442,347.139L583.033,344.875L583.625,345.158L584.217,345.409L584.808,345.548L585.4,345.202L585.992,346.504L586.583,348.39L587.175,349.629L587.767,352.767L588.358,352.968L588.95,353.56L589.542,354.585L590.133,354.585L590.725,355.943L591.317,356.823L591.908,357.138L592.5,358.402L593.092,362.181L593.683,362.005L594.275,361.571L594.867,362.942L595.458,362.313L596.05,362.603L596.642,363.716L597.233,363.785L597.825,364.156L598.417,365.489L599.008,366.873L599.6,368.659L600.192,371.382L600.783,370.463L601.375,370.268L601.967,371.545L602.558,372.507L603.15,372.507L603.742,372.275L604.333,372.608L604.925,371.495L605.517,371.985L606.108,371.243L606.7,369.319L607.292,368.426L607.883,365.973L608.475,364.911L609.067,365.25L609.658,365.37L610.25,365.137L610.842,365.873L611.433,366.476L612.025,367.074L612.617,367.64L613.208,366.476L613.8,365.357L614.392,365.904L614.983,364.992L615.575,365.244L616.167,365.602L616.758,364.584L617.35,364.389L617.942,365.539L618.533,365.634L619.125,364.439L619.717,363.496L620.308,362.703L620.9,363.018L621.492,362.892L622.083,363.175L622.675,362.754L623.267,363.496L623.858,364.602L624.45,365.489L625.042,367.237L625.633,367.269L626.225,366.483L626.817,366.986L627.408,367.086L628,367.244L628.592,367.539L629.183,367.3L629.775,368.155L630.367,369.47L630.958,370.224L631.55,370.652L632.142,372.18L632.733,372.061L633.325,371.771L633.917,372.979L634.508,373.45L635.1,373.312L635.692,372.57L636.283,372.922L636.875,372.551L637.467,373.488L638.058,373.394L638.65,373.928L639.242,374.387L639.833,374.658L640.425,375.394L641.017,376.375L641.608,376.199L642.2,376.544L642.792,377.746L643.383,378.073L643.975,377.06L644.567,377.331L645.158,376.972L645.75,376.922L646.342,376.419L646.933,376.085L647.525,375.979L648.117,376.45L648.708,375.74L649.3,374.991L649.892,374.626L650.483,373.627L651.075,373.595L651.667,372.671L652.258,372.671L652.85,373.702L653.442,374.224L654.033,375.117L654.625,375.092L655.217,375.167L655.808,374.922L656.4,374.356L656.992,374.079L657.583,371.677L658.175,370.375L658.767,370.099L659.358,369.181L659.95,368.703L660.542,369.199L661.133,368.652L661.725,367.124L662.317,367.596L662.908,366.288L663.5,366.709L664.092,367.218L664.683,366.288L665.275,365.998L665.867,366.156L666.458,366.42L667.05,365.904L667.642,367.049L668.233,366.458L668.825,366.885L669.417,366.803L670.008,366.866L670.6,366.564L671.192,366.59L671.783,366.219L672.375,365.565L672.967,365.439L673.558,365.036L674.15,365.181L674.742,366.841L675.333,367.3L675.925,367.388L676.517,367.671L677.108,367.3L677.7,367.388L678.292,369.036L678.883,369.904L679.475,369.828L680.067,370.86L680.658,370.614L681.25,369.602L681.842,368.558L682.433,366.319L683.025,365.124L683.617,364.653L684.208,364.967L684.8,364.923L685.392,364.911L685.983,364.319L686.575,364.602L687.167,364.697L687.758,363.47L688.35,362.42L688.942,362.533L689.533,362.395L690.125,362.118L690.717,362.873L691.308,362.672L691.9,362.024L692.492,361.339L693.083,361.433L693.675,361.653L694.267,362.508L694.858,362.546L695.45,362.206L696.042,363.37L696.633,362.577L697.225,362.892L697.817,362.986L698.408,362.873L699,363.873L699.592,364.898L700.183,365.118L700.775,364.904L701.367,364.854L701.958,363.489L702.55,363.489L703.142,363.942L703.733,362.879L704.325,362.408L704.917,363.143L705.508,362.961L706.1,362.886L706.692,363.47L707.283,363.03L707.875,363.118L708.467,362.206L709.058,362.898L709.65,363.03L710.242,362.653L710.833,362.98L711.425,362.93L712.017,362.728L712.608,360.93L713.2,358.59L713.792,358.955L714.383,357.446L714.975,357.408L715.567,357.521L716.158,356.333L716.75,356.49L717.342,356.823L717.933,356.477L718.525,356.716L719.117,357.635L719.708,357.458L720.3,357.163L720.892,357.911L721.483,357.622L722.075,357.936L722.667,358.641L723.258,357.452L723.85,356.93L724.442,357.792L725.033,358.062L725.625,359.2L726.217,359.288L726.808,360.351L727.4,361.471L727.992,361.829L728.583,361.534L729.175,362.307L729.767,364.357L730.358,365.892L730.95,366.47L731.542,367.841L732.133,367.678L732.725,368.646L733.317,370.011L733.908,371.218L734.5,371.149L735.092,372.155L735.683,371.834L736.275,372.784L736.867,373.488L737.458,373.023L738.05,373.369L738.642,373.777L739.233,374.501L739.825,375.174L740.417,375.985L741.008,376.809L741.6,377.004L742.192,377.733L742.783,378.085L743.375,378.922L743.967,379.236L744.558,379.431L745.15,378.871L745.742,378.808L746.333,378.148L746.925,378.576L747.517,379.054L748.108,379.657L748.7,380.33L749.292,381.814L749.883,381.494L750.475,382.047L751.067,381.946L751.658,383.443L752.25,383.512L752.842,384.355L753.433,383.77L754.025,384.179L754.617,385.701L755.208,386.292L755.8,386.455L756.392,385.965L756.983,386.059L757.575,386.87L758.167,387.128L758.758,387.506L759.35,387.367L759.942,388.046L760.533,388.204L761.125,388.581L761.717,388.399L762.308,389.669L762.9,390.713L763.492,391.92L764.083,392.04L764.675,392.643L765.267,393.121L765.858,393.323L766.45,393.417L767.042,394.524L767.633,395.077L768.225,395.467L768.817,395.624L769.408,396.027L770,396.731"/></g></svg>