<?xml version="1.0"?>
<svg xmlns="http://www.w3.org/2000/svg" xmlns:xlink="http://www.w3.org/1999/xlink" class="plot-d6a7b5" fill="currentColor" font-family="system-ui, sans-serif" font-size="10" text-anchor="middle" width="830" height="470" viewBox="0 0 830 470" color="#1e90ff">
  <style>:where(.plot-d6a7b5){--plot-background: white;display:block;height:intrinsic;max-width:100%}:where(.plot-d6a7b5 text),:where(.plot-d6a7b5 tspan){white-space:pre}</style>
  <g aria-label="y-grid" stroke="currentColor" stroke-opacity=".1">
    <line x1="60" x2="770" y1="410" y2="410"/>
    <line x1="60" x2="770" y1="378.557" y2="378.557"/>
    <line x1="60" x2="770" y1="347.114" y2="347.114"/>
    <line x1="60" x2="770" y1="315.671" y2="315.671"/>
    <line x1="60" x2="770" y1="284.227" y2="284.227"/>
    <line x1="60" x2="770" y1="252.784" y2="252.784"/>
    <line x1="60" x2="770" y1="221.341" y2="221.341"/>
    <line x1="60" x2="770" y1="189.898" y2="189.898"/>
    <line x1="60" x2="770" y1="158.455" y2="158.455"/>
    <line x1="60" x2="770" y1="127.012" y2="127.012"/>
    <line x1="60" x2="770" y1="95.568" y2="95.568"/>
    <line x1="60" x2="770" y1="64.125" y2="64.125"/>
  </g>
  <g aria-label="y-axis tick" fill="none" stroke="currentColor">
    <path transform="translate(60,410)" d="M0,0L-6,0"/>
    <path transform="translate(60,378.55684921661634)" d="M0,0L-6,0"/>
    <path transform="translate(60,347.11369843323274)" d="M0,0L-6,0"/>
    <path transform="translate(60,315.6705476498491)" d="M0,0L-6,0"/>
    <path transform="translate(60,284.2273968664655)" d="M0,0L-6,0"/>
    <path transform="translate(60,252.7842460830818)" d="M0,0L-6,0"/>
    <path transform="translate(60,221.34109529969817)" d="M0,0L-6,0"/>
    <path transform="translate(60,189.8979445163145)" d="M0,0L-6,0"/>
    <path transform="translate(60,158.45479373293085)" d="M0,0L-6,0"/>
    <path transform="translate(60,127.01164294954722)" d="M0,0L-6,0"/>
    <path transform="translate(60,95.56849216616357)" d="M0,0L-6,0"/>
    <path transform="translate(60,64.12534138277994)" d="M0,0L-6,0"/>
  </g>
  <g aria-label="y-axis tick label" text-anchor="end" font-variant="tabular-nums">
    <text y=".32em" transform="translate(-9,0) translate(60,410)">0</text>
    <text y=".32em" transform="translate(-9,0) translate(60,378.55684921661634)">5,000</text>
    <text y=".32em" transform="translate(-9,0) translate(60,347.11369843323274)">10,000</text>
    <text y=".32em" transform="translate(-9,0) translate(60,315.6705476498491)">15,000</text>
    <text y=".32em" transform="translate(-9,0) translate(60,284.2273968664655)">20,000</text>
    <text y=".32em" transform="translate(-9,0) translate(60,252.7842460830818)">25,000</text>
    <text y=".32em" transform="translate(-9,0) translate(60,221.34109529969817)">30,000</text>
    <text y=".32em" transform="translate(-9,0) translate(60,189.8979445163145)">35,000</text>
    <text y=".32em" transform="translate(-9,0) translate(60,158.45479373293085)">40,000</text>
    <text y=".32em" transform="translate(-9,0) translate(60,127.01164294954722)">45,000</text>
    <text y=".32em" transform="translate(-9,0) translate(60,95.56849216616357)">50,000</text>
    <text y=".32em" transform="translate(-9,0) translate(60,64.12534138277994)">55,000</text>
  </g>
  <g aria-label="y-axis label" text-anchor="start">
    <text y=".71em" transform="translate(-57,-57) translate(60,60)">&#x2191; Visible Vestiges (30 days)</text>
  </g>
  <g aria-label="x-axis tick" fill="none" stroke="currentColor">
    <path transform="translate(86.72324723247232,410)" d="M0,0L0,6"/>
    <path transform="translate(158.24723247232475,410)" d="M0,0L0,6"/>
    <path transform="translate(230.55719557195573,410)" d="M0,0L0,6"/>
    <path transform="translate(302.8671586715867,410)" d="M0,0L0,6"/>
    <path transform="translate(374.3911439114391,410)" d="M0,0L0,6"/>
    <path transform="translate(445.91512915129147,410)" d="M0,0L0,6"/>
    <path transform="translate(518.2250922509226,410)" d="M0,0L0,6"/>
    <path transform="translate(590.5350553505534,410)" d="M0,0L0,6"/>
    <path transform="translate(661.2730627306272,410)" d="M0,0L0,6"/>
    <path transform="translate(732.7970479704798,410)" d="M0,0L0,6"/>
  </g>
  <g aria-label="x-axis tick label" font-variant="tabular-nums">
    <text transform="translate(0,9) translate(86.72324723247232,410)">
      <tspan x="0" y=".71em">Apr</tspan>
      <tspan x="0" dy="1em">2023</tspan>
    </text>
    <text y=".71em" transform="translate(0,9) translate(158.24723247232475,410)">Jul</text>
    <text y=".71em" transform="translate(0,9) translate(230.55719557195573,410)">Oct</text>
    <text transform="translate(0,9) translate(302.8671586715867,410)">
      <tspan x="0" y=".71em">Jan</tspan>
      <tspan x="0" dy="1em">2024</tspan>
    </text>
    <text y=".71em" transform="translate(0,9) translate(374.3911439114391,410)">Apr</text>
    <text y=".71em" transform="translate(0,9) translate(445.91512915129147,410)">Jul</text>
    <text y=".71em" transform="translate(0,9) translate(518.2250922509226,410)">Oct</text>
    <text transform="translate(0,9) translate(590.5350553505534,410)">
      <tspan x="0" y=".71em">Jan</tspan>
      <tspan x="0" dy="1em">2025</tspan>
    </text>
    <text y=".71em" transform="translate(0,9) translate(661.2730627306272,410)">Apr</text>
    <text y=".71em" transform="translate(0,9) translate(732.7970479704798,410)">Jul</text>
  </g>
  <g aria-label="line" fill="none" stroke="currentColor" stroke-width="1.5" stroke-linejoin="round" stroke-linecap="round">
    <path d="M60,410L60.524,406.843L61.048,395.297L61.572,389.071L62.096,384.657L62.62,377.375L63.144,371.639L63.668,366.263L64.192,355.383L64.716,346.774L65.24,336.555L65.764,320.727L66.288,305.804L66.812,298.056L67.336,286.843L67.86,279.228L68.384,270.499L68.908,259.085L69.432,251.401L69.956,243.867L70.48,233.642L71.004,222.303L71.528,214.273L72.052,200.57L72.576,194.08L73.1,188.024L73.624,177.101L74.148,166.643L74.672,158.593L75.196,147.374L75.72,139.344L76.244,140.702L76.768,131.137L77.292,123.025L77.815,123.05L78.339,121.226L78.863,120.912L79.387,127.194L79.911,127.276L80.435,129.156L80.959,139.168L81.483,140.639L82.007,134.325L82.531,132.936L83.055,125.282L83.579,123.66L84.103,126.257L84.627,121.93L85.151,119.415L85.675,122.364L86.199,120.597L86.723,115.956L87.247,117.837L87.771,107.379L88.295,97.342L88.819,99.895L89.343,97.933L89.867,94.776L90.391,95.952L90.915,92.921L91.439,89.752L91.963,93.94L92.487,92.519L93.011,86.406L93.535,82.45L94.059,72.653L94.583,67.722L95.107,67.653L95.631,64L96.155,60L96.679,66.113L97.203,70.716L97.727,73.112L98.251,78.866L98.775,76.734L99.299,73.181L99.823,78.143L100.347,78.407L100.871,78.042L101.395,86.123L101.919,91.016L102.443,95.097L102.967,103.825L103.491,109.278L104.015,106.831L104.539,110.806L105.063,110.315L105.587,112.145L106.111,121L106.635,122.037L107.159,125.125L107.683,134.464L108.207,140.117L108.731,144.192L109.255,151.933L109.779,150.82L110.303,150.16L110.827,154.179L111.351,157.065L111.875,158.254L112.399,161.825L112.923,162.373L113.446,166.385L113.97,173.277L114.494,176.572L115.018,173.334L115.542,175.05L116.066,172.315L116.59,170.347L117.114,171.629L117.638,169.957L118.162,171.736L118.686,176.245L119.21,178.874L119.734,180.918L120.258,184.88L120.782,184.898L121.306,182.823L121.83,188.98L122.354,191.036L122.878,190.005L123.402,192.407L123.926,192.363L124.45,194.413L124.974,199.916L125.498,200.696L126.022,197.652L126.546,196.545L127.07,192.237L127.594,191.866L128.118,194.35L128.642,192.445L129.166,191.269L129.69,195.589L130.214,196.451L130.738,197.117L131.262,199.714L131.786,195.413L132.31,193.596L132.834,195.74L133.358,194.753L133.882,192.778L134.406,194.69L134.93,194.948L135.454,194.558L135.978,197.96L136.502,199.035L137.026,199.457L137.55,200.519L138.074,198.557L138.598,198.381L139.122,200.142L139.646,198.174L140.17,197.834L140.694,201.249L141.218,206.789L141.742,208.374L142.266,212.77L142.79,212.701L143.314,213.015L143.838,215.04L144.362,215.216L144.886,214.43L145.41,218.348L145.934,218.109L146.458,219.53L146.982,225.806L147.506,227.529L148.03,228.535L148.554,231.434L149.077,231.761L149.601,232.101L150.125,232.126L150.649,233.453L151.173,232.459L151.697,235.384L152.221,234.818L152.745,235.069L153.269,236.547L153.793,234.755L154.317,234.711L154.841,236.025L155.365,234.516L155.889,233.214L156.413,233.107L156.937,230.453L157.461,229.114L157.985,231.177L158.509,231.227L159.033,230.541L159.557,233.484L160.081,232.56L160.605,233.893L161.129,236.572L161.653,236.899L162.177,236.295L162.701,238.44L163.225,237.673L163.749,237.05L164.273,240.169L164.797,239.566L165.321,239.805L165.845,241.974L166.369,240.666L166.893,239.591L167.417,240.767L167.941,239.402L168.465,240.238L168.989,241.515L169.513,240.408L170.037,240.742L170.561,242.609L171.085,243.1L171.609,241.779L172.133,245.483L172.657,247.816L173.181,246.722L173.705,249.451L174.229,248.527L174.753,247.797L175.277,249.313L175.801,247.275L176.325,247.288L176.849,247.307L177.373,244.93L177.897,243.345L178.421,246.823L178.945,243.798L179.469,242.446L179.993,243.641L180.517,242.056L181.041,241.641L181.565,243.32L182.089,241.59L182.613,240.389L183.137,241.433L183.661,238.635L184.185,238.415L184.708,239.805L185.232,239.176L185.756,236.975L186.28,235.365L186.804,231.258L187.328,229.938L187.852,229.938L188.376,228.435L188.9,227.001L189.424,229.994L189.948,228.139L190.472,227.592L190.996,229.957L191.52,228.63L192.044,228.925L192.568,232.78L193.092,232.176L193.616,229.529L194.14,232.988L194.664,232.793L195.188,230.378L195.712,231.296L196.236,228.177L196.76,227.812L197.284,228.472L197.808,226.542L198.332,225.806L198.856,228.139L199.38,227.454L199.904,227.215L200.428,230.032L200.952,231.818L201.476,235.126L202,241.546L202.524,242.71L203.048,242.194L203.572,243.892L204.096,244.244L204.62,242.917L205.144,244.634L205.668,245.118L206.192,244.005L206.716,246.087L207.24,246.961L207.764,246.118L208.288,247.37L208.812,247.118L209.336,247.231L209.86,248.464L210.384,251.011L210.908,253.734L211.432,257.796L211.956,259.299L212.48,262.268L213.004,267.324L213.528,266.204L214.052,266.89L214.576,269.047L215.1,268.323L215.624,269.455L216.148,271.38L216.672,272.153L217.196,274.027L217.72,275.48L218.244,276.876L218.768,277.234L219.292,277.354L219.815,274.631L220.339,272.317L220.863,273.662L221.387,273.681L221.911,274.474L222.435,275.216L222.959,275.48L223.483,276.624L224.007,279.706L224.531,279.14L225.055,278.436L225.579,279.448L226.103,277.555L226.627,278.75L227.151,280.165L227.675,278.958L228.199,278.555L228.723,282.662L229.247,282.504L229.771,282.9L230.295,284.894L230.819,281.574L231.343,280.674L231.867,281.687L232.391,279.97L232.915,280.813L233.439,282.07L233.963,283.177L234.487,284.592L235.011,288.466L235.535,289.805L236.059,287.598L236.583,286.649L237.107,283.919L237.631,283.599L238.155,284.951L238.679,285.007L239.203,284.881L239.727,286.271L240.251,286.869L240.775,287.661L241.299,290.183L241.823,285.982L242.347,282.768L242.871,282.85L243.395,282.599L243.919,283.039L244.443,286.076L244.967,285.812L245.491,287.202L246.015,290.17L246.539,288.749L247.063,284.756L247.587,284.397L248.111,281.165L248.635,280.655L249.159,281.196L249.683,279.398L250.207,280.064L250.731,282.215L251.255,283.334L251.779,284.158L252.303,287.045L252.827,286.089L253.351,286.007L253.875,287.963L254.399,286.68L254.923,287.252L255.446,290.384L255.97,290.849L256.494,291.038L257.018,293.107L257.542,293.245L258.066,291.019L258.59,290.906L259.114,289.755L259.638,289.661L260.162,290.843L260.686,289.868L261.21,290.692L261.734,294.295L262.258,296.691L262.782,299.05L263.306,302.188L263.83,301.955L264.354,301.817L264.878,305.099L265.402,305.653L265.926,307.376L266.45,309.916L266.974,311.985L267.498,313.205L268.022,317.224L268.546,315.954L269.07,313.539L269.594,313.778L270.118,312.463L270.642,310.954L271.166,311.753L271.69,311.269L272.214,314.142L272.738,317.041L273.262,318.576L273.786,318.941L274.31,319.695L274.834,317.243L275.358,317.318L275.882,318.098L276.406,316.488L276.93,315.664L277.454,316.079L277.978,313.243L278.502,313.47L279.026,314.199L279.55,314.413L280.074,313.004L280.598,312.457L281.122,310.212L281.646,310.193L282.17,311.803L282.694,310.52L283.218,309.112L283.742,311.696L284.266,313.759L284.79,315.853L285.314,318.456L285.838,318.89L286.362,318.261L286.886,320.192L287.41,318.777L287.934,318.431L288.458,321.399L288.982,322.89L289.506,324.393L290.03,327.286L290.554,327.141L291.077,326.877L291.601,328.147L292.125,328.896L292.649,329.996L293.173,332.159L293.697,332.857L294.221,334.04L294.745,335.04L295.269,335.14L295.793,336.486L296.317,337.725L296.841,335.574L297.365,333.423L297.889,334.914L298.413,334.838L298.937,333.285L299.461,332.939L299.985,331.612L300.509,330.663L301.033,330.468L301.557,329.462L302.081,328.103L302.605,328.946L303.129,328.858L303.653,327.355L304.177,326.764L304.701,324.185L305.225,323.487L305.749,325.028L306.273,324.443L306.797,325.556L307.321,325.475L307.845,323.928L308.369,324.953L308.893,324.971L309.417,323.72L309.941,323.978L310.465,325.563L310.989,325.833L311.513,327.078L312.037,328.889L312.561,328.921L313.085,327.499L313.609,326.393L314.133,325.374L314.657,326.141L315.181,327.361L315.705,327.757L316.229,327.562L316.753,327.537L317.277,327.606L317.801,328.286L318.325,328.411L318.849,327.361L319.373,324.449L319.897,325.204L320.421,323.462L320.945,322.959L321.469,324.795L321.993,323.198L322.517,324.374L323.041,326.468L323.565,323.689L324.089,320.764L324.613,319.865L325.137,316.243L325.661,315.086L326.185,314.4L326.708,312.677L327.232,312.206L327.756,313.124L328.28,312.287L328.804,313.809L329.328,314.463L329.852,310.577L330.376,308.891L330.9,308.3L331.424,307.168L331.948,307.948L332.472,308.583L332.996,305.967L333.52,305.552L334.044,305.376L334.568,306.866L335.092,305.54L335.616,303.401L336.14,298.892L336.664,297.358L337.188,296.446L337.712,291.975L338.236,289.969L338.76,291.893L339.284,293.447L339.808,294.151L340.332,296.371L340.856,294.22L341.38,292.264L341.904,293.497L342.428,292.503L342.952,291.635L343.476,291.717L344,290.214L344.524,291.918L345.048,294.503L345.572,293.579L346.096,291.874L346.62,293.239L347.144,291.384L347.668,291.151L348.192,292.692L348.716,292.918L349.24,294.811L349.764,296.214L350.288,297.408L350.812,300.949L351.336,305.024L351.86,303.445L352.384,304.401L352.908,307.615L353.432,309.244L353.956,310.03L354.48,310.96L355.004,311.501L355.528,313.092L356.052,316.237L356.576,316.425L357.1,315.57L357.624,317.538L358.148,316.947L358.672,318.111L359.196,320.846L359.72,320.771L360.244,320.984L360.768,323.72L361.292,325.179L361.815,324.764L362.339,326.21L362.863,323.349L363.387,322.802L363.911,323.965L364.435,325.846L364.959,328.525L365.483,332.122L366.007,334.97L366.531,337.832L367.055,343.158L367.579,346.101L368.103,348.384L368.627,350.472L369.151,352.49L369.675,355.006L370.199,357.113L370.723,358.358L371.247,359.886L371.771,363.244L372.295,364.653L372.819,363.414L373.343,365.225L373.867,365.961L374.391,365.269L374.915,365.898L375.439,367.08L375.963,366.885L376.487,367.841L377.011,368.652L377.535,369.193L378.059,371.941L378.583,372.507L379.107,372.507L379.631,371.117L380.155,368.545L380.679,365.759L381.203,364.571L381.727,362.785L382.251,360.131L382.775,358.666L383.299,357.352L383.823,355.188L384.347,353.427L384.871,351.006L385.395,349.246L385.919,348.252L386.443,346.655L386.967,345.806L387.491,345.391L388.015,347.504L388.539,348.252L389.063,349.459L389.587,349.755L390.111,349.868L390.635,349.793L391.159,349.396L391.683,349.837L392.207,351.384L392.731,351.623L393.255,352.163L393.779,353.446L394.303,353.905L394.827,353.056L395.351,353.843L395.875,354.094L396.399,353.566L396.923,354.05L397.446,354.698L397.97,353.937L398.494,353.151L399.018,353.975L399.542,353.736L400.066,354.679L400.59,354.717L401.114,352.855L401.638,352.522L402.162,351.22L402.686,351.22L403.21,350.881L403.734,350.239L404.258,349.007L404.782,348.812L405.306,348.101L405.83,347.522L406.354,348.843L406.878,347.705L407.402,346.246L407.926,346.711L408.45,345.56L408.974,345.567L409.498,346.07L410.022,347.617L410.546,347.906L411.07,348.51L411.594,348.132L412.118,345.001L412.642,344.844L413.166,343.743L413.69,344.529L414.214,344.535L414.738,344.755L415.262,343.737L415.786,345.057L416.31,346.227L416.834,346.372L417.358,347.441L417.882,346.019L418.406,343.655L418.93,343.756L419.454,342.46L419.978,342.668L420.502,342.951L421.026,341.85L421.55,340.756L422.074,341.9L422.598,341.517L423.122,340.404L423.646,341.794L424.17,339.548L424.694,339.115L425.218,338.385L425.742,337.266L426.266,336.467L426.79,336.719L427.314,338.09L427.838,337.882L428.362,338.737L428.886,336.605L429.41,334.442L429.934,333.681L430.458,333.952L430.982,331.505L431.506,331.537L432.03,331.719L432.554,331.883L433.077,332.329L433.601,333.901L434.125,333.449L434.649,334.568L435.173,333.706L435.697,333.084L436.221,336.065L436.745,337.586L437.269,337.549L437.793,339.102L438.317,338.75L438.841,338.398L439.365,340.97L439.889,340.825L440.413,338.417L440.937,339.63L441.461,340.24L441.985,339.215L442.509,340.14L443.033,341.139L443.557,341.781L444.081,344.334L444.605,346.441L445.129,347.277L445.653,347.938L446.177,347.887L446.701,347.516L447.225,347.982L447.749,346.856L448.273,347.378L448.797,347.504L449.321,348.34L449.845,348.975L450.369,350.17L450.893,350.793L451.417,349.264L451.941,349.497L452.465,350.032L452.989,350.032L453.513,352.258L454.037,352.692L454.561,352.163L455.085,351.931L455.609,353.786L456.133,353.912L456.657,354.654L457.181,355.283L457.705,355.459L458.229,355.622L458.753,355.251L459.277,354.333L459.801,354.283L460.325,354.138L460.849,353.975L461.373,355.213L461.897,354.591L462.421,352.069L462.945,352.503L463.469,351.918L463.993,352.226L464.517,352.038L465.041,351.164L465.565,350.635L466.089,351.365L466.613,352.031L467.137,351.302L467.661,350.761L468.185,350.201L468.708,348.68L469.232,348.258L469.756,346.894L470.28,345.913L470.804,345.032L471.328,343.045L471.852,341.511L472.376,340.404L472.9,338.781L473.424,338.215L473.948,338.083L474.472,335.844L474.996,335.241L475.52,335.178L476.044,334.43L476.568,334.7L477.092,336.744L477.616,335.071L478.14,332.618L478.664,330.361L479.188,326.864L479.712,324.349L480.236,323.751L480.76,320.639L481.284,316.884L481.808,315.425L482.332,314.205L482.856,312.545L483.38,311.306L483.904,310.558L484.428,308.583L484.952,309.275L485.476,310.809L486,311.048L486.524,312.639L487.048,313.753L487.572,314.727L488.096,316.086L488.62,315.268L489.144,314.476L489.668,315.62L490.192,315.425L490.716,314.991L491.24,315.62L491.764,315.639L492.288,315.3L492.812,320.142L493.336,324.041L493.86,327.613L494.384,331.298L494.908,334.461L495.432,335.681L495.956,339.278L496.48,342.907L497.004,344.73L497.528,346.057L498.052,348.321L498.576,349.22L499.1,351.17L499.624,353.346L500.148,354.566L500.672,354.037L501.196,354.798L501.72,354.509L502.244,354.792L502.768,355.314L503.292,356.188L503.815,357.251L504.339,359.402L504.863,361.313L505.387,362.364L505.911,363.678L506.435,363.829L506.959,364.106L507.483,364.011L508.007,363.571L508.531,363.005L509.055,362.948L509.579,362.716L510.103,362.659L510.627,362.37L511.151,360.691L511.675,359.364L512.199,356.748L512.723,356.698L513.247,356.1L513.771,356.49L514.295,356.974L514.819,356.767L515.343,356.132L515.867,356.207L516.391,355.704L516.915,352.799L517.439,352.17L517.963,352.635L518.487,350.994L519.011,350.761L519.535,350.811L520.059,350.069L520.583,349.786L521.107,349.623L521.631,349.321L522.155,348.315L522.679,347.139L523.203,344.875L523.727,345.158L524.251,345.409L524.775,345.548L525.299,345.202L525.823,346.504L526.347,348.39L526.871,349.629L527.395,352.767L527.919,352.968L528.443,353.56L528.967,354.585L529.491,354.585L530.015,355.943L530.539,356.823L531.063,357.138L531.587,358.402L532.111,362.181L532.635,362.005L533.159,361.571L533.683,362.942L534.207,362.313L534.731,362.603L535.255,363.716L535.779,363.785L536.303,364.156L536.827,365.489L537.351,366.873L537.875,368.659L538.399,371.382L538.923,370.463L539.446,370.268L539.97,371.545L540.494,372.507L541.018,372.507L541.542,372.275L542.066,372.608L542.59,371.495L543.114,371.985L543.638,371.243L544.162,369.319L544.686,368.426L545.21,365.973L545.734,364.911L546.258,365.25L546.782,365.37L547.306,365.137L547.83,365.873L548.354,366.476L548.878,367.074L549.402,367.64L549.926,366.476L550.45,365.357L550.974,365.904L551.498,364.992L552.022,365.244L552.546,365.602L553.07,364.584L553.594,364.389L554.118,365.539L554.642,365.634L555.166,364.439L555.69,363.496L556.214,362.703L556.738,363.018L557.262,362.892L557.786,363.175L558.31,362.754L558.834,363.496L559.358,364.602L559.882,365.489L560.406,367.237L560.93,367.269L561.454,366.483L561.978,366.986L562.502,367.086L563.026,367.244L563.55,367.539L564.074,367.3L564.598,368.155L565.122,369.47L565.646,370.224L566.17,370.652L566.694,372.18L567.218,372.061L567.742,371.771L568.266,372.979L568.79,373.45L569.314,373.312L569.838,372.57L570.362,372.922L570.886,372.551L571.41,373.488L571.934,373.394L572.458,373.928L572.982,374.387L573.506,374.658L574.03,375.394L574.554,376.375L575.077,376.199L575.601,376.544L576.125,377.746L576.649,378.073L577.173,377.06L577.697,377.331L578.221,376.972L578.745,376.922L579.269,376.419L579.793,376.085L580.317,375.979L580.841,376.45L581.365,375.74L581.889,374.991L582.413,374.626L582.937,373.627L583.461,373.595L583.985,372.671L584.509,372.671L585.033,373.702L585.557,374.224L586.081,375.117L586.605,375.092L587.129,375.167L587.653,374.922L588.177,374.356L588.701,374.079L589.225,371.677L589.749,370.375L590.273,370.099L590.797,369.181L591.321,368.703L591.845,369.199L592.369,368.652L592.893,367.124L593.417,367.596L593.941,366.288L594.465,366.709L594.989,367.218L595.513,366.288L596.037,365.998L596.561,366.156L597.085,366.42L597.609,365.904L598.133,367.049L598.657,366.458L599.181,366.885L599.705,366.803L600.229,366.866L600.753,366.564L601.277,366.59L601.801,366.219L602.325,365.565L602.849,365.439L603.373,365.036L603.897,365.181L604.421,366.841L604.945,367.3L605.469,367.388L605.993,367.671L606.517,367.3L607.041,367.388L607.565,369.036L608.089,369.904L608.613,369.828L609.137,370.86L609.661,370.614L610.185,369.602L610.708,368.558L611.232,366.319L611.756,365.124L612.28,364.653L612.804,364.967L613.328,364.923L613.852,364.911L614.376,364.319L614.9,364.602L615.424,364.697L615.948,363.47L616.472,362.42L616.996,362.533L617.52,362.395L618.044,362.118L618.568,362.873L619.092,362.672L619.616,362.024L620.14,361.339L620.664,361.433L621.188,361.653L621.712,362.508L622.236,362.546L622.76,362.206L623.284,363.37L623.808,362.577L624.332,362.892L624.856,362.986L625.38,362.873L625.904,363.873L626.428,364.898L626.952,365.118L627.476,364.904L628,364.854L628.524,363.489L629.048,363.489L629.572,363.942L630.096,362.879L630.62,362.408L631.144,363.143L631.668,362.961L632.192,362.886L632.716,363.47L633.24,363.03L633.764,363.118L634.288,362.206L634.812,362.898L635.336,363.03L635.86,362.653L636.384,362.98L636.908,362.93L637.432,362.728L637.956,360.93L638.48,358.59L639.004,358.955L639.528,357.446L640.052,357.408L640.576,357.521L641.1,356.333L641.624,356.49L642.148,356.823L642.672,356.477L643.196,356.716L643.72,357.635L644.244,357.458L644.768,357.163L645.292,357.911L645.815,357.622L646.339,357.936L646.863,358.641L647.387,357.452L647.911,356.93L648.435,357.792L648.959,358.062L649.483,359.2L650.007,359.288L650.531,360.351L651.055,361.471L651.579,361.829L652.103,361.534L652.627,362.307L653.151,364.357L653.675,365.892L654.199,366.47L654.723,367.841L655.247,367.678L655.771,368.646L656.295,370.011L656.819,371.218L657.343,371.149L657.867,372.155L658.391,371.834L658.915,372.784L659.439,373.488L659.963,373.023L660.487,373.369L661.011,373.777L661.535,374.501L662.059,375.174L662.583,375.985L663.107,376.809L663.631,377.004L664.155,377.733L664.679,378.085L665.203,378.922L665.727,379.236L666.251,379.431L666.775,378.871L667.299,378.808L667.823,378.148L668.347,378.576L668.871,379.054L669.395,379.657L669.919,380.33L670.443,381.814L670.967,381.494L671.491,382.047L672.015,381.946L672.539,383.443L673.063,383.512L673.587,384.355L674.111,383.77L674.635,384.179L675.159,385.701L675.683,386.292L676.207,386.455L676.731,385.965L677.255,386.059L677.779,386.87L678.303,387.128L678.827,387.506L679.351,387.367L679.875,388.046L680.399,388.204L680.923,388.581L681.446,388.399L681.97,389.669L682.494,390.713L683.018,391.92L683.542,392.04L684.066,392.643L684.59,393.121L685.114,393.323L685.638,393.417L686.162,394.524L686.686,395.077L687.21,395.467L687.734,395.624L688.258,396.027L688.782,396.731L689.306,397.423L689.83,397.322L690.354,397.366L690.878,397.574L691.402,397.699L691.926,398.429L692.45,398.945L692.974,399.265L693.498,399.441L694.022,399.479L694.546,399.794L695.07,399.926L695.594,399.976L696.118,400.246L696.642,400.699L697.166,400.347L697.69,400.328L698.214,400.146L698.738,399.875L699.262,399.309L699.786,398.989L700.31,398.731L700.834,398.353L701.358,398.303L701.882,398.127L702.406,398.039L702.93,397.926L703.454,397.372L703.978,396.567L704.502,396.53L705.026,396.165L705.55,396.354L706.074,396.36L706.598,397.077L707.122,396.775L707.646,395.951L708.17,396.064L708.694,395.624L709.218,395.404L709.742,395.171L710.266,394.932L710.79,394.907L711.314,394.706L711.838,394.555L712.362,394.354L712.886,394.165L713.41,393.756L713.934,393.763L714.458,394.373L714.982,394.115L715.506,394.203L716.03,394.461L716.554,394.599L717.077,394.794L717.601,395.197L718.125,395.127L718.649,395.492L719.173,396.121L719.697,396.215L720.221,396.794L720.745,396.901L721.269,396.957L721.793,396.945L722.317,397.385L722.841,397.957L723.365,397.92L723.889,398.498L724.413,398.316L724.937,398.114L725.461,398.102L725.985,397.8L726.509,397.46L727.033,397.266L727.557,397.643L728.081,397.731L728.605,397.844L729.129,397.957L729.653,397.787L730.177,398.001L730.701,397.498L731.225,397.611L731.749,397.486L732.273,397.354L732.797,396.806L733.321,396.876L733.845,396.511L734.369,396.108L734.893,396.171L735.417,395.19L735.941,394.649L736.465,394.58L736.989,394.071L737.513,394.071L738.037,394.065L738.561,394.304L739.085,394.266L739.609,394.907L740.133,395.272L740.657,395.215L741.181,395.366L741.705,395.473L742.229,395.53L742.753,394.75L743.277,394.876L743.801,395.039L744.325,395.354L744.849,395.109L745.373,395.14L745.897,395.134L746.421,395.083L746.945,394.832L747.469,394.58L747.993,394.819L748.517,394.964L749.041,395.247L749.565,395.341L750.089,395.656L750.613,396.486L751.137,396.8L751.661,396.461L752.185,396.781L752.708,396.586L753.232,396.825L753.756,396.108L754.28,395.593L754.804,395.329L755.328,395.209L755.852,394.731L756.376,394.668L756.9,394.939L757.424,395.36L757.948,396.121L758.472,396.278L758.996,396.027L759.52,395.813L760.044,396.215L760.568,396.561L761.092,396.869L761.616,397.001L762.14,396.888L762.664,397.165L763.188,397.492L763.712,397.611L764.236,398.247L764.76,398.618L765.284,398.58L765.808,398.762L766.332,398.838L766.856,399.322L767.38,399.605L767.904,399.844L768.428,399.982L768.952,400.397L769.476,400.561L770,400.957"/>
  </g>
</svg>
