<svg class="plot-d6a7b5" fill="currentColor" font-family="system-ui, sans-serif" font-size="10" text-anchor="middle" width="830" height="470" viewBox="0 0 830 470" xmlns="http://www.w3.org/2000/svg" xmlns:xlink="http://www.w3.org/1999/xlink" color="#1e90ff"><style>:where(.plot-d6a7b5){--plot-background: white;display:block;height:intrinsic;max-width:100%}:where(.plot-d6a7b5 text),:where(.plot-d6a7b5 tspan){white-space:pre}</style><g aria-label="y-grid" stroke="currentColor" stroke-opacity=".1"><line x1="60" x2="770" y1="410" y2="410"/><line x1="60" x2="770" y1="360.939" y2="360.939"/><line x1="60" x2="770" y1="311.878" y2="311.878"/><line x1="60" x2="770" y1="262.817" y2="262.817"/><line x1="60" x2="770" y1="213.757" y2="213.757"/><line x1="60" x2="770" y1="164.696" y2="164.696"/><line x1="60" x2="770" y1="115.635" y2="115.635"/><line x1="60" x2="770" y1="66.574" y2="66.574"/></g><g aria-label="y-axis tick" fill="none" stroke="currentColor"><path transform="translate(60,410)" d="M0,0L-6,0"/><path transform="translate(60,360.9391645640594)" d="M0,0L-6,0"/><path transform="translate(60,311.8783291281189)" d="M0,0L-6,0"/><path transform="translate(60,262.8174936921783)" d="M0,0L-6,0"/><path transform="translate(60,213.7566582562377)" d="M0,0L-6,0"/><path transform="translate(60,164.69582282029717)" d="M0,0L-6,0"/><path transform="translate(60,115.6349873843566)" d="M0,0L-6,0"/><path transform="translate(60,66.57415194841604)" d="M0,0L-6,0"/></g><g aria-label="y-axis tick label" text-anchor="end" font-variant="tabular-nums"><text y=".32em" transform="translate(-9,0) translate(60,410)">0</text><text y=".32em" transform="translate(-9,0) translate(60,360.9391645640594)">1,000</text><text y=".32em" transform="translate(-9,0) translate(60,311.8783291281189)">2,000</text><text y=".32em" transform="translate(-9,0) translate(60,262.8174936921783)">3,000</text><text y=".32em" transform="translate(-9,0) translate(60,213.7566582562377)">4,000</text><text y=".32em" transform="translate(-9,0) translate(60,164.69582282029717)">5,000</text><text y=".32em" transform="translate(-9,0) translate(60,115.6349873843566)">6,000</text><text y=".32em" transform="translate(-9,0) translate(60,66.57415194841604)">7,000</text></g><g aria-label="y-axis label" text-anchor="start"><text y=".71em" transform="translate(-57,-57) translate(60,60)">↑ Visible Vestiges (4 days)</text></g><g aria-label="x-axis tick" fill="none" stroke="currentColor"><path transform="translate(93.22018348623854,410)" d="M0,0L0,6"/><path transform="translate(182.13302752293578,410)" d="M0,0L0,6"/><path transform="translate(272.0229357798165,410)" d="M0,0L0,6"/><path transform="translate(361.91284403669727,410)" d="M0,0L0,6"/><path transform="translate(450.82568807339453,410)" d="M0,0L0,6"/><path transform="translate(539.7385321100918,410)" d="M0,0L0,6"/><path transform="translate(629.6284403669724,410)" d="M0,0L0,6"/><path transform="translate(719.5183486238533,410)" d="M0,0L0,6"/></g><g aria-label="x-axis tick label" font-variant="tabular-nums"><text transform="translate(0,9) translate(93.22018348623854,410)"><tspan x="0" y=".71em">Apr</tspan><tspan x="0" dy="1em">2023</tspan></text><text y=".71em" transform="translate(0,9) translate(182.13302752293578,410)">Jul</text><text y=".71em" transform="translate(0,9) translate(272.0229357798165,410)">Oct</text><text transform="translate(0,9) translate(361.91284403669727,410)"><tspan x="0" y=".71em">Jan</tspan><tspan x="0" dy="1em">2024</tspan></text><text y=".71em" transform="translate(0,9) translate(450.82568807339453,410)">Apr</text><text y=".71em" transform="translate(0,9) translate(539.7385321100918,410)">Jul</text><text y=".71em" transform="translate(0,9) translate(629.6284403669724,410)">Oct</text><text transform="translate(0,9) translate(719.5183486238533,410)"><tspan x="0" y=".71em">Jan</tspan><tspan x="0" dy="1em">2025</tspan></text></g><g aria-label="line" fill="none" stroke="currentColor" stroke-width="1.5" stroke-linejoin="round" stroke-linecap="round"><path d="M60,410L60.651,385.371L61.303,295.296L61.954,246.726L62.606,236.913L63.257,270.177L63.908,274.003L64.56,266.497L65.211,238.434L65.862,216.013L66.514,178.237L67.165,139.626L67.817,90.369L68.468,109.65L69.119,145.66L69.771,202.669L70.422,195.015L71.073,193.445L71.725,192.906L72.376,202.227L73.028,211.5L73.679,182.996L74.33,179.12L74.982,151.989L75.633,189.815L76.284,205.22L76.936,226.905L77.587,195.948L78.239,180.395L78.89,178.089L79.541,172.398L80.193,155.718L80.844,120.05L81.495,109.601L82.147,132.463L82.798,196.683L83.45,250.013L84.101,270.765L84.752,263.21L85.404,242.555L86.055,233.038L86.706,194.623L87.358,149.978L88.009,97.041L88.661,82.862L89.312,111.808L89.963,141.343L90.615,166.756L91.266,169.111L91.917,181.131L92.569,172.595L93.22,152.136L93.872,116.665L94.523,86.689L95.174,60L95.826,86.934L96.477,122.258L97.128,160.378L97.78,147.328L98.431,133.297L99.083,116.518L99.734,104.351L100.385,106.461L101.037,106.362L101.688,107.049L102.339,95.029L102.991,125.006L103.642,147.77L104.294,175.048L104.945,172.791L105.596,182.603L106.248,202.375L106.899,199.333L107.55,182.358L108.202,158.759L108.853,141.883L109.505,161.114L110.156,182.161L110.807,219.055L111.459,234.853L112.11,250.503L112.761,249.718L113.413,224.795L114.064,202.473L114.716,178.482L115.367,176.716L116.018,168.474L116.67,188.785L117.321,212.825L117.972,207.967L118.624,205.613L119.275,211.5L119.927,247.412L120.578,255.802L121.229,231.32L121.881,208.507L122.532,194.329L123.183,192.562L123.835,221.508L124.486,245.744L125.138,262.033L125.789,240.74L126.44,245.793L127.092,248.099L127.743,252.662L128.394,215.327L129.046,195.997L129.697,185.841L130.349,211.549L131,223.814L131.651,231.32L132.303,235.638L132.954,238.483L133.606,248.05L134.257,248.345L134.908,235.834L135.56,235.785L136.211,227.69L136.862,239.955L137.514,253.496L138.165,267.527L138.817,274.151L139.468,266.154L140.119,265.712L140.771,267.086L141.422,259.334L142.073,217.829L142.725,195.212L143.376,179.757L144.028,216.897L144.679,223.618L145.33,247.412L145.982,243.438L146.633,262.327L147.284,246.578L147.936,241.623L148.587,218.025L149.239,203.454L149.89,196.34L150.541,200.314L151.193,230.486L151.844,232.105L152.495,239.857L153.147,249.865L153.798,249.718L154.45,261.297L155.101,259.579L155.752,278.174L156.404,273.464L157.055,263.799L157.706,265.761L158.358,263.21L159.009,262.719L159.661,262.817L160.312,267.969L160.963,285.042L161.615,277.438L162.266,269.637L162.917,263.014L163.569,259.825L164.22,265.123L164.872,263.063L165.523,273.366L166.174,272.384L166.826,264.191L167.477,257.813L168.128,261.64L168.78,269.833L169.431,270.569L170.083,274.396L170.734,265.123L171.385,267.675L172.037,255.262L172.688,262.916L173.339,264.093L173.991,284.993L174.642,288.82L175.294,293.824L175.945,272.875L176.596,265.271L177.248,260.414L177.899,258.647L178.55,260.953L179.202,256.292L179.853,262.278L180.505,245.744L181.156,237.649L181.807,247.952L182.459,265.859L183.11,276.26L183.761,281.068L184.413,283.766L185.064,298.534L185.716,288.28L186.367,291.665L187.018,280.381L187.67,284.404L188.321,276.604L188.972,280.283L189.624,278.615L190.275,282.442L190.927,276.751L191.578,276.996L192.229,272.679L192.881,283.325L193.532,279.4L194.183,283.963L194.835,277.928L195.486,271.109L196.138,268.263L196.789,262.572L197.44,269.49L198.092,277.29L198.743,270.373L199.394,268.165L200.046,274.445L200.697,286.514L201.349,296.817L202,281.804L202.651,289.458L203.303,282.687L203.954,288.771L204.606,284.306L205.257,276.015L205.908,262.082L206.56,253.643L207.211,272.826L207.862,271.452L208.514,271.599L209.165,257.617L209.817,263.161L210.468,270.716L211.119,270.177L211.771,279.694L212.422,269.637L213.073,269.244L213.725,254.87L214.376,255.704L215.028,255.556L215.679,266.791L216.33,258.255L216.982,242.653L217.633,208.605L218.284,213.266L218.936,232.105L219.587,264.486L220.239,273.905L220.89,282.246L221.541,287.152L222.193,287.299L222.844,288.476L223.495,288.133L224.147,286.416L224.798,284.11L225.45,281.313L226.101,277.536L226.752,273.071L227.404,276.407L228.055,264.24L228.706,249.964L229.358,234.706L230.009,250.16L230.661,257.666L231.312,256.881L231.963,253.594L232.615,252.269L233.266,262.817L233.917,266.546L234.569,281.559L235.22,292.303L235.872,304.372L236.523,298.436L237.174,298.239L237.826,287.25L238.477,282.785L239.128,285.876L239.78,287.888L240.431,292.941L241.083,294.118L241.734,296.964L242.385,299.466L243.037,300.791L243.688,300.594L244.339,291.322L244.991,278.762L245.642,281.755L246.294,284.944L246.945,294.609L247.596,300.692L248.248,307.512L248.899,314.822L249.55,324.242L250.202,331.208L250.853,307.463L251.505,288.329L252.156,276.26L252.807,283.08L253.459,301.576L254.11,310.505L254.761,334.25L255.413,334.103L256.064,330.227L256.716,324.094L257.367,307.806L258.018,300.496L258.67,270.373L259.321,254.575L259.972,265.32L260.624,289.556L261.275,316.294L261.927,312.909L262.578,314.626L263.229,308.101L263.881,313.792L264.532,310.308L265.183,299.073L265.835,292.597L266.486,288.329L267.138,309.965L267.789,320.415L268.44,335.182L269.092,329.687L269.743,326.94L270.394,315.999L271.046,310.161L271.697,300.496L272.349,294.315L273,293.137L273.651,309.229L274.303,321.592L274.954,331.306L275.606,327.087L276.257,332.827L276.908,329.982L277.56,320.268L278.211,306.285L278.862,288.771L279.514,275.377L280.165,270.373L280.817,281.706L281.468,301.379L282.119,316.588L282.771,323.8L283.422,320.611L284.073,313.595L284.725,314.282L285.376,318.845L286.028,303.047L286.679,282.246L287.33,277.977L287.982,303.293L288.633,329.05L289.284,341.168L289.936,335.231L290.587,332.974L291.239,326.253L291.89,316.049L292.541,290.144L293.193,276.555L293.844,272.139L294.495,295.1L295.147,307.855L295.798,316.196L296.45,315.656L297.101,314.233L297.752,319.483L298.404,307.316L299.055,308.052L299.706,303.195L300.358,315.803L301.009,323.751L301.661,328.412L302.312,330.325L302.963,332.484L303.615,346.81L304.266,348.38L304.917,324.291L305.569,300.938L306.22,277.83L306.872,286.121L307.523,301.821L308.174,330.571L308.826,334.741L309.477,333.858L310.128,334.299L310.78,342.983L311.431,343.375L312.083,341.756L312.734,333.71L313.385,336.163L314.037,329.442L314.688,338.911L315.339,344.504L315.991,357.603L316.642,357.063L317.294,356.72L317.945,353.531L318.596,360.203L319.248,346.761L319.899,326.351L320.55,301.526L321.202,303.096L321.853,312.32L322.505,331.012L323.156,339.058L323.807,349.165L324.459,342.198L325.11,334.839L325.761,323.555L326.413,322.525L327.064,320.17L327.716,322.083L328.367,321.396L329.018,328.412L329.67,330.08L330.321,327.627L330.972,316.441L331.624,316.588L332.275,321.494L332.927,338.567L333.578,335.28L334.229,330.914L334.881,324.83L335.532,335.133L336.183,351.618L336.835,355.935L337.486,351.765L338.138,345.927L338.789,351.618L339.44,354.12L340.092,355.837L340.743,352.354L341.394,349.802L342.046,352.599L342.697,348.281L343.349,343.523L344,344.258L344.651,355.641L345.303,369.034L345.954,366.091L346.606,355.248L347.257,340.775L347.908,335.133L348.56,343.768L349.211,351.961L349.862,347.742L350.514,347.496L351.165,353.04L351.817,361.037L352.468,353.089L353.119,349.999L353.771,345.779L354.422,338.518L355.073,327.725L355.725,334.005L356.376,346.025L357.028,344.847L357.679,336.213L358.33,328.951L358.982,335.378L359.633,333.073L360.284,333.024L360.936,332.631L361.587,336.409L362.239,338.813L362.89,338.42L363.541,338.616L364.193,332.582L364.844,335.918L365.495,341.707L366.147,342.787L366.798,351.274L367.45,347.251L368.101,347.938L368.752,343.032L369.404,343.572L370.055,351.421L370.706,353.433L371.358,357.701L372.009,366.483L372.661,369.966L373.312,364.472L373.963,351.814L374.615,337.292L375.266,326.548L375.917,317.177L376.569,325.615L377.22,336.507L377.872,353.973L378.523,344.16L379.174,334.397L379.826,331.454L380.477,342.051L381.128,345.632L381.78,336.507L382.431,308.689L383.083,307.561L383.734,305.5L384.385,330.08L385.037,339.598L385.688,349.214L386.339,358.29L386.991,360.988L387.642,346.859L388.294,315.411L388.945,299.907L389.596,295.345L390.248,313.399L390.899,323.849L391.55,342.149L392.202,342.002L392.853,341.854L393.505,334.25L394.156,339.058L394.807,327.627L395.459,312.271L396.11,298.141L396.761,305.893L397.413,317.569L398.064,327.038L398.716,333.661L399.367,332.68L400.018,326.94L400.67,311.486L401.321,315.705L401.972,307.463L402.624,290.095L403.275,267.871L403.927,275.77L404.578,294.952L405.229,304.323L405.881,303.342L406.532,311.339L407.183,326.891L407.835,332.533L408.486,330.276L409.138,319.434L409.789,309.131L410.44,319.728L411.092,328.608L411.743,336.948L412.394,320.366L413.046,321.2L413.697,329.835L414.349,334.005L415,324.389L415.651,305.549L416.303,307.708L416.954,309.916L417.606,328.019L418.257,328.412L418.908,338.911L419.56,340.039L420.211,343.179L420.862,342.492L421.514,337.979L422.165,336.605L422.817,322.868L423.468,321.887L424.119,324.536L424.771,348.576L425.422,355.248L426.073,352.991L426.725,350.146L427.376,354.169L428.028,360.596L428.679,347.546L429.33,339.058L429.982,338.764L430.633,341.02L431.284,340.186L431.936,347.006L432.587,359.664L433.239,356.426L433.89,346.81L434.541,339.941L435.193,337.194L435.844,329.344L436.495,313.743L437.147,313.105L437.798,321.396L438.45,359.516L439.101,387.825L439.752,406.124L440.404,409.166L441.055,409.215L441.706,408.97L442.358,408.724L443.009,406.86L443.661,405.634L444.312,405.094L444.963,404.652L445.615,401.954L446.266,399.943L446.917,398.667L447.569,395.38L448.22,388.168L448.872,366.287L449.523,356.475L450.174,350.391L450.826,361.479L451.477,364.913L452.128,365.158L452.78,359.418L453.431,355.101L454.083,349.459L454.734,347.349L455.385,345.73L456.037,343.179L456.688,347.251L457.339,353.089L457.991,356.916L458.642,353.482L459.294,358.094L459.945,364.275L460.596,365.06L461.248,362.656L461.899,364.472L462.55,367.072L463.202,364.226L463.853,355.15L464.505,355.592L465.156,359.565L465.807,364.717L466.459,368.544L467.11,365.845L467.761,372.91L468.413,375.559L469.064,382.133L469.716,379.043L470.367,377.522L471.018,367.759L471.67,356.622L472.321,354.856L472.972,361.871L473.624,364.717L474.275,363.883L474.927,359.271L475.578,365.06L476.229,360.056L476.881,360.007L477.532,354.954L478.183,362.068L478.835,365.894L479.486,369.77L480.138,365.551L480.789,357.456L481.44,361.43L482.092,362.656L482.743,367.072L483.394,361.381L484.046,352.697L484.697,347.889L485.349,341.266L486,353.089L486.651,360.105L487.303,367.906L487.954,364.864L488.606,362.902L489.257,360.841L489.908,356.18L490.56,356.867L491.211,351.765L491.862,351.912L492.514,348.085L493.165,347.153L493.817,353.973L494.468,360.056L495.119,376.099L495.771,378.258L496.422,373.989L497.073,366.091L497.725,343.228L498.376,341.168L499.028,331.306L499.679,353.776L500.33,359.026L500.982,370.555L501.633,360.89L502.284,365.453L502.936,364.177L503.587,368.445L504.239,359.86L504.89,351.47L505.541,338.911L506.193,339.156L506.844,337.096L507.495,355.199L508.147,354.561L508.798,351.421L509.45,341.953L510.101,343.572L510.752,349.312L511.404,345.338L512.055,346.319L512.706,338.616L513.358,349.999L514.009,349.508L514.661,360.449L515.312,353.335L515.963,353.089L516.615,349.655L517.266,352.206L517.917,347.055L518.569,342.198L519.22,332.19L519.872,331.11L520.523,340.186L521.174,342.541L521.826,347.447L522.477,351.029L523.128,362.803L523.78,357.652L524.431,355.935L525.083,351.372L525.734,354.561L526.385,353.678L527.037,351.716L527.688,363.098L528.339,372.223L528.991,378.405L529.642,373.008L530.294,354.414L530.945,352.942L531.596,353.188L532.248,366.189L532.899,349.655L533.55,349.999L534.202,348.772L534.853,359.32L535.505,353.629L536.156,359.222L536.807,367.072L537.459,374.922L538.11,373.548L538.761,373.989L539.413,368.298L540.064,353.825L540.716,349.312L541.367,351.372L542.018,354.757L542.67,356.573L543.321,352.206L543.972,362.951L544.624,367.023L545.275,374.48L545.927,370.849L546.578,365.355L547.229,366.974L547.881,372.468L548.532,378.994L549.183,375.952L549.835,373.695L550.486,369.819L551.138,363.638L551.789,358.192L552.44,363.638L553.092,370.015L553.743,370.997L554.394,365.698L555.046,366.777L555.697,366.826L556.349,366.14L557,363.098L557.651,365.306L558.303,365.502L558.954,361.086L559.606,352.844L560.257,336.507L560.908,333.612L561.56,335.722L562.211,353.433L562.862,359.32L563.514,361.135L564.165,362.068L564.817,365.6L565.468,372.125L566.119,372.174L566.771,367.759L567.422,364.717L568.073,355.493L568.725,354.169L569.376,344.013L570.028,342.051L570.679,333.024L571.33,333.612L571.982,335.673L572.633,334.888L573.284,332.435L573.936,341.07L574.587,348.723L575.239,343.228L575.89,339.892L576.541,342.639L577.193,354.463L577.844,356.867L578.495,365.06L579.147,341.511L579.798,317.373L580.45,285.925L581.101,289.408L581.752,294.805L582.404,309.572L583.055,313.497L583.706,307.365L584.358,307.168L585.009,321.985L585.661,333.907L586.312,332.582L586.963,327.038L587.615,323.26L588.266,328.167L588.917,344.013L589.569,352.255L590.22,359.86L590.872,358.633L591.523,363.588L592.174,359.32L592.826,352.893L593.477,346.761L594.128,339.598L594.78,341.119L595.431,346.662L596.083,354.463L596.734,358.535L597.385,367.464L598.037,376.786L598.688,382.918L599.339,381.986L599.991,376.442L600.642,376.099L601.294,372.518L601.945,375.756L602.596,373.253L603.248,377.767L603.899,374.872L604.55,376.148L605.202,367.611L605.853,366.925L606.505,362.46L607.156,369.868L607.807,366.385L608.459,363.588L609.11,359.418L609.761,364.521L610.413,367.611L611.064,372.419L611.716,372.076L612.367,378.65L613.018,379.582L613.67,381.005L614.321,380.024L614.972,374.087L615.624,372.125L616.275,370.064L616.927,374.774L617.578,374.333L618.229,373.695L618.881,369.77L619.532,373.401L620.183,368.004L620.835,359.958L621.486,347.546L622.138,333.907L622.789,343.719L623.44,350.685L624.092,365.6L624.743,369.083L625.394,367.66L626.046,367.072L626.697,360.399L627.349,355.297L628,333.416L628.651,333.024L629.303,343.67L629.954,358.339L630.606,361.086L631.257,364.422L631.908,372.37L632.56,373.401L633.211,370.751L633.862,368.249L634.514,360.645L635.165,350.685L635.817,340.088L636.468,349.704L637.119,360.203L637.771,375.02L638.422,373.744L639.073,376.541L639.725,382.133L640.376,382.084L641.028,382.771L641.679,379.435L642.33,381.348L642.982,379.779L643.633,381.692L644.284,386.255L644.936,384.537L645.587,380.318L646.239,374.48L646.89,375.216L647.541,370.997L648.193,368.396L648.844,364.275L649.495,363.49L650.147,372.468L650.798,378.405L651.45,384.881L652.101,382.869L652.752,382.084L653.404,384.734L654.055,385.813L654.706,386.058L655.358,377.718L656.009,372.763L656.661,376.295L657.312,389.689L657.963,394.006L658.615,387.825L659.266,382.869L659.917,374.872L660.569,377.178L661.22,370.702L661.872,362.803L662.523,353.923L663.174,345.142L663.826,350.146L664.477,355.542L665.128,369.77L665.78,376.982L666.431,375.854L667.083,377.031L667.734,379.386L668.385,377.276L669.037,372.468L669.688,365.011L670.339,371.34L670.991,371.291L671.642,381.201L672.294,382.379L672.945,382.624L673.596,379.386L674.248,377.227L674.899,380.956L675.55,376.688L676.202,373.744L676.853,371.144L677.505,376.737L678.156,378.16L678.807,378.552L679.459,375.118L680.11,375.412L680.761,373.94L681.413,375.265L682.064,374.333L682.716,370.948L683.367,363.294L684.018,367.808L684.67,375.559L685.321,381.79L685.972,381.348L686.624,381.054L687.275,384.39L687.927,387.53L688.578,387.825L689.229,390.817L689.881,392.436L690.532,395.527L691.183,391.112L691.835,388.855L692.486,390.228L693.138,389.247L693.789,377.767L694.44,372.567L695.092,367.808L695.743,378.307L696.394,380.416L697.046,388.904L697.697,385.568L698.349,384.979L699,386.843L699.651,389.444L700.303,387.285L700.954,383.311L701.606,381.643L702.257,377.914L702.908,371.831L703.56,372.321L704.211,373.204L704.862,380.269L705.514,373.94L706.165,377.473L706.817,380.171L707.468,388.07L708.119,388.119L708.771,384.734L709.422,381.299L710.073,374.627L710.725,377.963L711.376,374.971L712.028,381.79L712.679,378.601L713.33,384.685L713.982,386.892L714.633,389.149L715.284,387.775L715.936,387.383L716.587,379.828L717.239,376.491L717.89,361.528L718.541,358.388L719.193,356.229L719.844,363.834L720.495,368.593L721.147,370.899L721.798,367.71L722.45,360.007L723.101,360.694L723.752,361.822L724.404,370.702L725.055,374.529L725.706,380.171L726.358,382.526L727.009,379.828L727.661,385.764L728.312,380.563L728.963,381.594L729.615,378.258L730.266,382.624L730.917,379.877L731.569,381.79L732.22,382.183L732.872,385.224L733.523,384.096L734.174,379.975L734.826,378.405L735.477,370.604L736.128,373.499L736.78,372.468L737.431,376.05L738.083,373.45L738.734,370.31L739.385,368.593L740.037,370.899L740.688,378.356L741.339,380.318L741.991,379.729L742.642,376.05L743.294,376.246L743.945,372.763L744.596,362.215L745.248,349.017L745.899,344.896L746.55,355.297L747.202,370.015L747.853,380.024L748.505,380.269L749.156,377.571L749.807,377.375L750.459,380.122L751.11,375.559L751.761,368.2L752.413,367.219L753.064,371.585L753.716,376.05L754.367,373.253L755.018,375.657L755.67,371.733L756.321,364.079L756.972,363.785L757.624,367.415L758.275,377.718L758.927,379.582L759.578,382.673L760.229,387.04L760.881,379.975L761.532,381.398L762.183,373.253L762.835,375.069L763.486,369.868L764.138,363.932L764.789,362.411L765.44,363.343L766.092,369.672L766.743,367.317L767.394,369.23L768.046,370.457L768.697,372.616L769.349,371.683L770,369.329"/></g></svg>