<svg xmlns="http://www.w3.org/2000/svg" width="830" height="470" fill="currentColor" class="plot-d6a7b5" font-family="system-ui, sans-serif" font-size="10" style="--plot-background:white;display:block;height:intrinsic;max-width:100%;color:#1e90ff" text-anchor="middle" viewBox="0 0 830 470">
    <style>
        :where(.plot-d6a7b5 text),:where(.plot-d6a7b5 tspan){white-space:pre}
    </style>
    <path stroke="currentColor" stroke-opacity=".1" d="
M60
410
h710
M60
360.637
h710
M60
311.273
h710
M60
261.91
h710
M60
212.547
h710
M60
163.184
h710
M60
113.82
h710
M60
64.457
h710" aria-hidden="true" aria-label="y-grid"/>
    <path fill="none" stroke="currentColor" d="
M60
410
h-6
m6
-49.363
h-6
m6
-49.364
h-6
m6
-49.363
h-6
m6
-49.363
h-6
m6
-49.363
h-6
m6
-49.364
h-6
m6
-49.363
h-6" aria-hidden="true" aria-label="y-axis tick"/>
    <g aria-label="y-axis tick label" font-variant="tabular-nums" text-anchor="end">
        <text y=".32em" transform="translate(51 410)">0</text>
        <text y=".32em" transform="translate(51 360.637)">100,000</text>
        <text y=".32em" transform="translate(51 311.273)">200,000</text>
        <text y=".32em" transform="translate(51 261.91)">300,000</text>
        <text y=".32em" transform="translate(51 212.547)">400,000</text>
        <text y=".32em" transform="translate(51 163.184)">500,000</text>
        <text y=".32em" transform="translate(51 113.82)">600,000</text>
        <text y=".32em" transform="translate(51 64.457)">700,000</text>
    </g>
    <text y=".71em" aria-label="y-axis label" text-anchor="start" transform="translate(3 3)">↑ Total vestiges</text>
    <path fill="none" stroke="currentColor" d="
M81.813
410
v6
m58.383
-6
v6
m59.024
-6
v6
m59.024
-6
v6
m58.383
-6
v6
m58.382
-6
v6
m59.024
-6
v6
m59.024
-6
v6
m57.741
-6
v6
m58.382
-6
v6
m59.025
-6
v6
m59.024
-6
v6" aria-hidden="true" aria-label="x-axis tick"/>
    <g aria-label="x-axis tick label" font-variant="tabular-nums">
        <text transform="translate(81.813 419)"><tspan x="0" y=".71em">Apr</tspan><tspan x="0" dy="1em">2023</tspan></text>
        <text y=".71em" transform="translate(140.196 419)">Jul</text>
        <text y=".71em" transform="translate(199.22 419)">Oct</text>
        <text transform="translate(258.244 419)"><tspan x="0" y=".71em">Jan</tspan><tspan x="0" dy="1em">2024</tspan></text>
        <text y=".71em" transform="translate(316.627 419)">Apr</text>
        <text y=".71em" transform="translate(375.009 419)">Jul</text>
        <text y=".71em" transform="translate(434.033 419)">Oct</text>
        <text transform="translate(493.057 419)"><tspan x="0" y=".71em">Jan</tspan><tspan x="0" dy="1em">2025</tspan></text>
        <text y=".71em" transform="translate(550.798 419)">Apr</text>
        <text y=".71em" transform="translate(609.18 419)">Jul</text>
        <text y=".71em" transform="translate(668.205 419)">Oct</text>
        <text transform="translate(727.229 419)"><tspan x="0" y=".71em">Jan</tspan><tspan x="0" dy="1em">2026</tspan></text>
    </g>
    <path fill="none" stroke="currentColor" stroke-linecap="round" stroke-linejoin="round" stroke-width="1.5" d="
m60
410
.428
-.248
.427
-.906
.428
-.489
.428
-.346
.428
-.572
.427
-.45
.428
-.422
.428
-.854
.427
-.676
.428
-.802
.428
-1.243
.428
-1.171
.427
-.608
.428
-.88
.428
-.598
.427
-.685
.428
-.896
.428
-.603
.428
-.592
.427
-.802
.428
-.89
.428
-.631
.427
-1.075
.428
-.51
.428
-.475
.427
-.858
.428
-.821
.428
-.631
.428
-.881
.427
-.878
.428
-.8
.428
-1.239
.427
-.984
.428
-.569
.428
-.594
.428
-.447
.427
-.36
.428
-.67
.428
-.654
.427
-.457
.428
-1.056
.428
-1.104
.428
-.989
.427
-1.198
.428
-.813
.428
-.692
.427
-.943
.428
-.789
.428
-.571
.428
-1.028
.427
-.995
.428
-.928
.428
-1.33
.427
-1.264
.428
-.657
.428
-.975
.428
-.879
.427
-.789
.428
-1.116
.428
-1.048
.427
-.911
.428
-1.095
.428
-1.049
.427
-.904
.428
-1.216
.428
-.748
.428
-.675
.427
-.941
.428
-.771
.428
-.576
.427
-.742
.428
-.801
.428
-.747
.428
-.98
.427
-.971
.428
-.553
.428
-.768
.427
-.6
.428
-.395
.428
-.61
.428
-.608
.427
-.645
.428
-.835
.428
-.849
.427
-.663
.428
-.918
.428
-.645
.428
-.421
.427
-.967
.428
-.669
.428
-.361
.427
-.606
.428
-.584
.428
-.608
.428
-.835
.427
-.727
.428
-.626
.428
-.544
.427
-.483
.428
-.462
.428
-.758
.428
-.432
.427
-.439
.428
-.712
.428
-.808
.427
-.633
.428
-.814
.428
-.549
.427
-.51
.428
-.739
.428
-.506
.428
-.481
.427
-.643
.428
-.502
.428
-.607
.427
-.644
.428
-.584
.428
-.483
.428
-.507
.427
-.443
.428
-.417
.428
-.588
.427
-.447
.428
-.403
.428
-.666
.428
-.864
.427
-.631
.428
-.821
.428
-.491
.427
-.564
.428
-.581
.428
-.531
.428
-.373
.427
-.74
.428
-.581
.428
-.611
.427
-.887
.428
-.652
.428
-.571
.428
-.583
.427
-.636
.428
-.493
.428
-.482
.427
-.638
.428
-.376
.428
-.5
.427
-.45
.428
-.424
.428
-.597
.428
-.43
.427
-.45
.428
-.601
.428
-.43
.427
-.398
.428
-.43
.428
-.506
.428
-.476
.427
-.497
.428
-.538
.428
-.423
.427
-.517
.428
-.435
.428
-.432
.428
-.6
.427
-.499
.428
-.394
.428
-.517
.427
-.492
.428
-.356
.428
-.61
.428
-.466
.427
-.48
.428
-.534
.428
-.454
.427
-.27
.428
-.495
.428
-.404
.428
-.481
.427
-.572
.428
-.452
.428
-.499
.427
-.548
.428
-.5
.428
-.438
.428
-.715
.427
-.581
.428
-.335
.428
-.534
.427
-.477
.428
-.286
.428
-.507
.427
-.328
.428
-.39
.428
-.473
.428
-.441
.427
-.349
.428
-.552
.428
-.404
.427
-.366
.428
-.514
.428
-.461
.428
-.363
.427
-.557
.428
-.355
.428
-.402
.427
-.511
.428
-.416
.428
-.471
.428
-.539
.427
-.473
.428
-.402
.428
-.461
.427
-.542
.428
-.424
.428
-.398
.428
-.42
.427
-.321
.428
-.549
.428
-.343
.427
-.389
.428
-.487
.428
-.389
.428
-.472
.427
-.628
.428
-.473
.428
-.279
.427
-.642
.428
-.472
.428
-.419
.427
-.586
.428
-.396
.428
-.425
.428
-.49
.427
-.497
.428
-.429
.428
-.635
.427
-.489
.428
-.43
.428
-.522
.428
-.575
.427
-.587
.428
-.864
.428
-.528
.427
-.398
.428
-.538
.428
-.433
.428
-.314
.427
-.489
.428
-.432
.428
-.302
.427
-.493
.428
-.448
.428
-.326
.428
-.52
.427
-.487
.428
-.37
.428
-.488
.427
-.609
.428
-.514
.428
-.64
.428
-.454
.427
-.438
.428
-.649
.428
-.487
.427
-.451
.428
-.543
.428
-.449
.428
-.301
.427
-.434
.428
-.328
.428
-.36
.427
-.437
.428
-.438
.428
-.405
.427
-.406
.428
-.418
.428
-.354
.428
-.393
.427
-.39
.428
-.329
.428
-.38
.427
-.392
.428
-.422
.428
-.507
.428
-.361
.427
-.391
.428
-.409
.428
-.3
.427
-.322
.428
-.335
.428
-.206
.428
-.252
.427
-.574
.428
-.398
.428
-.373
.427
-.506
.428
-.212
.428
-.283
.428
-.267
.427
-.214
.428
-.322
.428
-.329
.427
-.377
.428
-.396
.428
-.632
.428
-.536
.427
-.287
.428
-.388
.428
-.267
.427
-.322
.428
-.371
.428
-.333
.427
-.264
.428
-.406
.428
-.446
.428
-.33
.427
-.448
.428
-.228
.428
-.225
.427
-.3
.428
-.283
.428
-.253
.428
-.41
.427
-.342
.428
-.349
.428
-.473
.427
-.354
.428
-.187
.428
-.348
.428
-.257
.427
-.23
.428
-.29
.428
-.285
.427
-.328
.428
-.43
.428
-.462
.428
-.462
.427
-.481
.428
-.347
.428
-.265
.427
-.328
.428
-.275
.428
-.296
.428
-.399
.427
-.268
.428
-.251
.428
-.557
.427
-.477
.428
-.294
.428
-.303
.428
-.218
.427
-.171
.428
-.363
.428
-.241
.427
-.239
.428
-.466
.428
-.501
.427
-.376
.428
-.51
.428
-.27
.428
-.247
.427
-.427
.428
-.275
.428
-.262
.427
-.373
.428
-.398
.428
-.255
.428
-.422
.427
-.271
.428
-.175
.428
-.375
.427
-.252
.428
-.153
.428
-.231
.428
-.236
.427
-.395
.428
-.466
.428
-.468
.427
-.312
.428
-.308
.428
-.18
.428
-.27
.427
-.317
.428
-.174
.428
-.183
.427
-.313
.428
-.191
.428
-.264
.428
-.288
.427
-.258
.428
-.169
.428
-.232
.427
-.127
.428
-.173
.428
-.236
.427
-.159
.428
-.106
.428
-.371
.428
-.364
.427
-.357
.428
-.355
.428
-.271
.427
-.169
.428
-.274
.428
-.169
.428
-.239
.427
-.348
.428
-.283
.428
-.249
.427
-.372
.428
-.264
.428
-.255
.428
-.302
.427
-.247
.428
-.28
.428
-.414
.427
-.246
.428
-.231
.428
-.242
.428
-.279
.427
-.275
.428
-.303
.428
-.175
.427
-.109
.428
-.26
.428
-.217
.428
-.168
.427
-.202
.428
-.192
.428
-.151
.427
-.237
.428
-.218
.428
-.122
.428
-.281
.427
-.266
.428
-.115
.428
-.166
.427
-.131
.428
-.144
.428
-.276
.427
-.276
.428
-.202
.428
-.188
.428
-.194
.427
-.244
.428
-.191
.428
-.138
.427
-.164
.428
-.271
.428
-.169
.428
-.206
.427
-.344
.428
-.278
.428
-.143
.427
-.223
.428
-.289
.428
-.23
.428
-.296
.427
-.225
.428
-.253
.428
-.297
.427
-.229
.428
-.214
.428
-.273
.428
-.233
.427
-.213
.428
-.333
.428
-.199
.427
-.155
.428
-.322
.428
-.114
.428
-.195
.427
-.316
.428
-.163
.428
-.19
.427
-.236
.428
-.143
.428
-.147
.427
-.148
.428
-.108
.428
-.202
.428
-.275
.427
-.255
.428
-.31
.428
-.369
.427
-.17
.428
-.2
.428
-.194
.428
-.268
.427
-.299
.428
-.223
.428
-.162
.427
-.262
.428
-.316
.428
-.441
.428
-.274
.427
-.336
.428
-.194
.428
-.178
.427
-.24
.428
-.103
.428
-.151
.428
-.381
.427
-.419
.428
-.307
.428
-.428
.427
-.237
.428
-.202
.428
-.243
.428
-.239
.427
-.204
.428
-.32
.428
-.19
.427
-.319
.428
-.474
.428
-.333
.428
-.24
.427
-.357
.428
-.237
.428
-.174
.427
-.367
.428
-.295
.428
-.329
.427
-.325
.428
-.378
.428
-.504
.428
-.548
.427
-.298
.428
-.311
.428
-.454
.427
-.309
.428
-.23
.428
-.297
.428
-.252
.427
-.253
.428
-.406
.428
-.356
.427
-.146
.428
-.317
.428
-.272
.428
-.313
.427
-.309
.428
-.185
.428
-.271
.427
-.405
.428
-.374
.428
-.25
.428
-.383
.427
-.192
.428
-.246
.428
-.278
.427
-.18
.428
-.214
.428
-.285
.428
-.226
.427
-.228
.428
-.422
.428
-.236
.427
-.202
.428
-.181
.428
-.168
.427
-.224
.428
-.21
.428
-.128
.428
-.16
.427
-.34
.428
-.214
.428
-.162
.427
-.318
.428
-.222
.428
-.094
.428
-.191
.427
-.254
.428
-.191
.428
-.26
.427
-.282
.428
-.269
.428
-.417
.428
-.289
.427
-.186
.428
-.033
.428
-.004
.427
-.002
.428
-.002
.428
-.004
.428
-.004
.427
-.005
.428
-.022
.428
-.017
.427
-.011
.428
-.026
.428
-.044
.428
-.031
.427
-.039
.428
-.077
.428
-.103
.427
-.26
.428
-.176
.428
-.164
.428
-.148
.427
-.142
.428
-.161
.428
-.206
.427
-.185
.428
-.219
.428
-.227
.427
-.201
.428
-.244
.428
-.186
.428
-.142
.427
-.206
.428
-.221
.428
-.095
.427
-.144
.428
-.213
.428
-.12
.428
-.125
.427
-.187
.428
-.148
.428
-.217
.427
-.182
.428
-.109
.428
-.165
.428
-.143
.427
-.136
.428
-.094
.428
-.117
.427
-.069
.428
-.125
.428
-.133
.428
-.167
.427
-.237
.428
-.15
.428
-.098
.427
-.208
.428
-.158
.428
-.144
.428
-.15
.427
-.209
.428
-.144
.428
-.201
.427
-.137
.428
-.106
.428
-.162
.427
-.18
.428
-.187
.428
-.122
.428
-.167
.427
-.143
.428
-.179
.428
-.254
.427
-.191
.428
-.246
.428
-.136
.428
-.12
.427
-.168
.428
-.166
.428
-.14
.427
-.188
.428
-.214
.428
-.133
.428
-.239
.427
-.212
.428
-.172
.428
-.249
.427
-.143
.428
-.11
.428
-.088
.428
-.121
.427
-.154
.428
-.167
.428
-.351
.427
-.174
.428
-.266
.428
-.126
.428
-.121
.427
-.15
.428
-.223
.428
-.075
.427
-.163
.428
-.18
.428
-.162
.428
-.247
.427
-.306
.428
-.16
.428
-.268
.427
-.124
.428
-.166
.428
-.299
.427
-.219
.428
-.15
.428
-.242
.428
-.259
.427
-.14
.428
-.319
.428
-.145
.427
-.144
.428
-.21
.428
-.216
.428
-.147
.427
-.244
.428
-.19
.428
-.199
.427
-.293
.428
-.291
.428
-.21
.428
-.201
.427
-.268
.428
-.16
.428
-.166
.427
-.149
.428
-.212
.428
-.183
.428
-.195
.427
-.18
.428
-.191
.428
-.215
.427
-.066
.428
-.1
.428
-.152
.428
-.12
.427
-.287
.428
-.167
.428
-.118
.427
-.156
.428
-.333
.428
-.114
.427
-.169
.428
-.227
.428
-.172
.428
-.112
.427
-.148
.428
-.093
.428
-.125
.427
-.145
.428
-.149
.428
-.272
.428
-.189
.427
-.129
.428
-.237
.428
-.172
.427
-.172
.428
-.13
.428
-.13
.428
-.098
.427
-.166
.428
-.185
.428
-.082
.427
-.11
.428
-.12
.428
-.112
.428
-.134
.427
-.159
.428
-.174
.428
-.188
.427
-.104
.428
-.11
.428
-.178
.428
-.158
.427
-.099
.428
-.178
.428
-.164
.427
-.13
.428
-.155
.428
-.163
.428
-.174
.427
-.239
.428
-.326
.428
-.204
.427
-.217
.428
-.148
.428
-.145
.427
-.199
.428
-.139
.428
-.108
.428
-.134
.427
-.138
.428
-.153
.428
-.164
.427
-.232
.428
-.166
.428
-.266
.428
-.251
.427
-.258
.428
-.26
.428
-.23
.427
-.265
.428
-.285
.428
-.144
.428
-.188
.427
-.34
.428
-.177
.428
-.161
.427
-.221
.428
-.153
.428
-.078
.428
-.458
.427
-.396
.428
-.394
.428
-.423
.427
-.342
.428
-.246
.428
-.383
.428
-.404
.427
-.247
.428
-.235
.428
-.283
.427
-.261
.428
-.291
.428
-.321
.427
-.212
.428
-.131
.428
-.238
.428
-.135
.427
-.143
.428
-.189
.428
-.178
.427
-.208
.428
-.25
.428
-.251
.428
-.192
.427
-.195
.428
-.171
.428
-.152
.427
-.104
.428
-.078
.428
-.09
.428
-.114
.427
-.134
.428
-.093
.428
-.15
.427
-.102
.428
-.118
.428
-.105
.428
-.13
.427
-.106
.428
-.19
.428
-.138
.427
-.15
.428
-.116
.428
-.172
.428
-.179
.427
-.158
.428
-.121
.428
-.148
.427
-.109
.428
-.125
.428
-.081
.428
-.1
.427
-.11
.428
-.092
.428
-.16
.427
-.129
.428
-.112
.428
-.113
.427
-.134
.428
-.119
.428
-.152
.428
-.098
.427
-.172
.428
-.233
.428
-.223
.427
-.31
.428
-.134
.428
-.153
.428
-.16
.427
-.099
.428
-.167
.428
-.166
.427
-.166
.428
-.218
.428
-.386
.428
-.17
.427
-.111
.428
-.239
.428
-.143
.427
-.077
.428
-.159
.428
-.132
.428
-.104
.427
-.184
.428
-.208
.428
-.205
.427
-.29
.428
-.112
.428
-.099
.428
-.141
.427
-.125
.428
-.07
.428
-.085
.427
-.126
.428
-.063
.428
-.119
.427
-.106
.428
-.08
.428
-.099
.428
-.06
.427
-.097
.428
-.141
.428
-.119
.427
-.09
.428
-.184
.428
-.145
.428
-.131
.427
-.192
.428
-.055
.428
-.071
.427
-.127
.428
-.075
.428
-.079
.428
-.1
.427
-.064
.428
-.076
.428
-.185
.427
-.114
.428
-.041
.428
-.049
.428
-.071
.427
-.103
.428
-.099
.428
-.151
.427
-.08
.428
-.164
.428
-.231
.428
-.169
.427
-.253
.428
-.18
.428
-.115
.427
-.11
.428
-.107
.428
-.127
.428
-.097
.427
-.084
.428
-.148
.428
-.146
.427
-.159
.428
-.084
.428
-.146
.427
-.06
.428
-.072
.428
-.144
.428
-.092
.427
-.094
.428
-.106
.428
-.135
.427
-.123
.428
-.133
.428
-.079
.428
-.109
.427
-.129
.428
-.113
.428
-.106
.427
-.143
.428
-.1
.428
-.116
.428
-.177
.427
-.177
.428
-.07
.428
-.1
.427
-.114
.428
-.074
.428
-.103
.428
-.081
.427
-.042
.428
-.1
.428
-.051
.427
-.026
.428
-.069
.428
-.095
.428
-.049
.427
-.055
.428
-.104
.428
-.165
.427
-.107
.428
-.153
.428
-.059
.427
-.086
.428
-.067
.428
-.093
.428
-.092
.427
-.048
.428
-.067
.428
-.113
.427
-.089
.428
-.083
.428
-.151
.428
-.15
.427
-.078
.428
-.142
.428
-.079
.427
-.142
.428
-.107
.428
-.051
.428
-.063
.427
-.106
.428
-.085
.428
-.098
.427
-.173
.428
-.052
.428
-.127
.428
-.105
.427
-.084
.428
-.066
.428
-.082
.427
-.061
.428
-.08
.428
-.087
.428
-.137
.427
-.113
.428
-.237
.428
-.169
.427
-.135
.428
-.161
.428
-.121
.428
-.112
.427
-.192
.428
-.199
.428
-.105
.427
-.181
.428
-.109
.428
-.067
.427
-.124
.428
-.086
.428
-.093
.428
-.065
.427
-.138
.428
-.083
.428
-.099
.427
-.093
.428
-.111
.428
-.079
.428
-.09
.427
-.081
.428
-.09
.428
-.131
.427
-.097
.428
-.168
.428
-.103
.428
-.106
.427
-.133
.428
-.128
.428
-.139
.427
-.15
.428
-.105
.428
-.063
.428
-.13
.427
-.111
.428
-.101
.428
-.128
.427
-.146
.428
-.206
.428
-.261
.428
-.188
.427
-.102
.428
-.113
.428
-.087
.427
-.099
.428
-.14
.428
-.089
.427
-.071
.428
-.187
.428
-.162
.428
-.082
.427
-.142
.428
-.118
.428
-.11
.427
-.118
.428
-.157
.428
-.187
.428
-.121
.427
-.121
.428
-.083
.428
-.102
.427
-.09
.428
-.039
.428
-.173
.428
-.075
.427
-.121
.428
-.155
.428
-.128
.427
-.181
.428
-.17
.428
-.119
.428
-.117
.427
-.194
.428
-.099
.428
-.104
.427
-.173
.428
-.108
.428
-.129
.428
-.177
.427
-.087
.428
-.096
.428
-.153
.427
-.103
.428
-.189
.428
-.103
.428
-.177
.427
-.15
.428
-.095
.428
-.087
.427
-.118
.428
-.231
.428
-.223
.427
-.145
.428
-.194
.428
-.124
.428
-.146
.427
-.221
.428
-.168
.428
-.144
.427
-.146
.428
-.098
.428
-.122
.428
-.113
.427
-.128
.428
-.113
.428
-.132
.427
-.103
.428
-.122
.428
-.181
.428
-.137
.427
-.085
.428
-.082
.428
-.1
.427
-.096
.428
-.093
.428
-.063
.428
-.067
.427
-.11
.428
-.057
.428
-.07
.427
-.102
.428
-.1
.428
-.086
.428
-.137
.427
-.07
.428
-.114
.428
-.073
.427
-.15
.428
-.067
.428
-.123
.427
-.047
.428
-.058
.428
-.164
.428
-.087
.427
-.099
.428
-.047
.428
-.069
.427
-.117
.428
-.073
.428
-.069
.428
-.024
.427
-.073
.428
-.031
.428
-.068
.427
-.047
.428
-.111
.428
-.115
.428
-.109
.427
-.037
.428
-.064
.428
-.052
.427
-.034
.428
-.02
.428
-.095
.428
-.071
.427
-.081
.428
-.033
.428
-.061
.427
-.057
.428
-.093
.428
-.026
.428
-.045
.427
-.04
.428
-.086
.428
-.086
.427
-.061
.428
-.054
.428
-.052
.428
-.04
.427
-.035
.428
-.019
.428
-.019
.427
-.038
.428
-.062
.428
-.011
.427
-.033
.428
-.014
.428
-.028
.428
-.017
.427
-.014
.428
-.018
.428
-.013
.427
-.008
.428
-.027
.428
-.051
.428
-.02
.427
-.03
.428
-.002
.428
-.039
.427
-.033
.428
-.042
.428
-.023
.428
-.077
.427
-.028
.428
-.021
.428
-.028
.427
-.039
.428
-.037
.428
-.01
.428
-.009
.427
-.014
.428
-.018
.428
-.026
.427
-.039
.428
-.034
.428
-.029
.428
-.048
.427
-.062
.428
-.04
.428
-.038
.427
-.042
.428
-.012
.428
-.041
.427
-.058
.428
-.029
.428
-.073
.428
-.065
.427
-.042
.428
-.062
.428
-.027
.427
-.023
.428
-.02
.428
-.052
.428
-.086
.427
-.019
.428
-.073
.428
-.055
.427
-.028
.428
-.028
.428
-.016
.428
-.033
.427
-.038
.428
-.055
.428
-.049
.427
-.061
.428
-.048
.428
-.014
.428
-.06
.427
-.031
.428
-.022
.428
-.001
.427
-.026
.428
-.026
.428
-.034
.428
-.045
.427
-.015
.428
-.035
.428
-.017
.427
-.018
.428
-.019
.428
-.021
.428
-.017
.427
-.041
.428
-.022
.428
-.028
.427
-.069
.428
-.044
.428
-.029
.427
-.04
.428
-.059
.428
-.054
.428
-.025
.427
-.042
.428
-.052
.428
-.039
.427
-.027
.428
-.043
.428
-.071
.428
-.013
.427
-.012
.428
-.036
.428
-.069
.427
-.028
.428
-.073
.428
-.048
.428
-.029
.427
-.094
.428
-.061
.428
-.024
.427
-.061
.428
-.018
.428
-.041
.428
-.004
.427
-.03
.428
-.018
.428
-.016
.427
-.033
.428
-.028
.428
-.052
.428
-.049
.427
-.086
.428
-.033
.428
-.039
.427
-.014
.428
-.046
.428
-.041
.427
-.071
.428
-.017
.428
-.031
.428
-.056
.427
-.05
.428
-.018
.428
-.051
.427
-.04
.428
-.004
.428
-.029
.428
-.036
.427
-.051
.428
-.036
.428
-.033
.427
-.022
.428
-.06
.428
-.071
.428
-.039
.427
-.025
.428
-.071
.428
-.033
.427
-.03
.428
-.016
.428
-.026
.428
-.021
.427
-.058
.428
-.032
.428
-.014
.427
-.014
.428
-.047
.428
-.007
.428
-.039
.427
-.035
.428
-.024
.428
-.008
.427
-.001
.428
-.011
.428
-.008
.428
-.014
.427
-.03
.428
-.013
.428
-.014
.427
-.014
.428
-.012
.428
-.027
.427
-.058
.428
-.008
.428
-.038
.428
-.073
.427
-.107
.428
-.083
.428
-.021
.427
-.024
.428
-.033
.428
-.023
.428
-.019
.427
-.034
.428
-.05
.428
-.062
.427
-.031
.428
-.018
.428
-.003
.428
-.026
.427
-.062
.428
-.026
.428
-.022
.427
-.029
.428
-.027
.428
-.049
.428
-.036
.427
-.067
.428
-.002
.428
-.004
.427
-.018
.428
-.024
.428
-.001
.428
-.068
.427
-.021
.428
-.051
.428
-.059
h.427
l.428
-.003
.428
-.005
.427
-.009
.428
-.012
.428
-.015
.428
-.005
.427
-.038
.428
-.019
.428
-.018
.427
-.008
.428
-.003
.428
-.004
.428
-.001
.427
-.003
.428
-.002
.428
-.025
.427
-.038
.428
-.09
.428
-.095
.428
-.052
.427
-.014
h.428
l.428
-.035
.427
-.036
.428
-.024
.428
-.031
.428
-.079
.427
-.064
.428
-.035
.428
-.061
.427
-.031
.428
-.019
.428
-.028
.428
-.015
.427
-.044
.428
-.049
.428
-.022
.427
-.007
.428
-.05
.428
-.046
.428
-.064
.427
-.019
.428
-.002
.428
-.005
.427
-.017
.428
-.024
.428
-.015
.427
-.006
.428
-.014
.428
-.002
.428
-.025
.427
-.028
.428
-.044
.428
-.008
.427
-.015
.428
-.019
.428
-.016
.428
-.037
.427
-.033
.428
-.042
.428
-.024
.427
-.009
.428
-.015
.428
-.021
.428
-.033
.427
-.007
.428
-.017
.428
-.039
.427
-.041
.428
-.004
.428
-.026
.428
-.018
.427
-.018
.428
-.01
.428
-.019
.427
-.002
.428
-.002
.428
-.021
h.428
l.427
-.021
.428
-.027
h.428
l.427
-.013
.428
-.013
.428
-.023
.427
-.028
.428
-.032
.428
-.006
.428
-.017
.427
-.003
.428
-.01
.428
-.015
.427
-.049
.428
-.003
.428
-.026
.428
-.021
.427
-.009
.428
-.027
.428
-.026
.427
-.031
.428
-.041
.428
-.041
.428
-.029
.427
-.048
.428
-.008
.428
-.016
.427
-.012
.428
-.012
.428
-.003
.428
-.001
.427
-.003
.428
-.016
.428
-.015
.427
-.008
.428
-.015
.428
-.027
.428
-.011
.427
-.039
.428
-.013
.428
-.013
.427
-.012
.428
-.02
.428
-.009
.428
-.012
.427
-.042
.428
-.013
.428
-.023
.427
-.026
.428
-.003
.428
-.012
.427
-.021
.428
-.023
.428
-.004
.428
-.039
.427
-.022
.428
-.011
.428
-.014
.427
-.041
.428
-.016
.428
-.022
.428
-.015
.427
-.012
.428
-.042
.428
-.001
h.427
l.428
-.035
.428
-.057
.428
-.029
.427
-.004
.428
-.002
.428
-.002
.427
-.014
.428
-.012
.428
-.016
.428
-.047
.427
-.032
.428
-.024
.428
-.013
.427
-.052
.428
-.044
.428
-.008
.428
-.028
.427
-.01
.428
-.017
.428
-.004
.427
-.021
.428
-.016
.428
-.025
.427
-.033
.428
-.098
.428
-.044
.428
-.035
.427
-.064
.428
-.054
.428
-.025
.427
-.075
.428
-.006
.428
-.039
.428
-.016
.427
-.039
.428
-.014
.428
-.045
.427
-.021
.428
-.029
.428
-.039
.428
-.032
.427
-.045
.428
-.052
.428
-.013
.427
-.012
.428
-.058
.428
-.032
.428
-.034
.427
-.042
.428
-.03
.428
-.031
.427
-.023
.428
-.052
.428
-.021
.428
-.028
.427
-.051
.428
-.039
.428
-.069
.427
-.043
.428
-.013
.428
-.025
.428
-.02
.427
-.009
.428
-.078
.428
-.03
.427
-.028
.428
-.025
.428
-.055
.427
-.02
.428
-.011
.428
-.014
.428
-.006
.427
-.044
.428
-.025
.428
-.029
.427
-.005
.428
-.008
.428
-.01
.428
-.054
.427
-.036
.428
-.047
.428
-.046
.427
-.103
.428
-.098
.428
-.094
.428
-.065
.427
-.089
.428
-.106
.428
-.039
.427
-.101
.428
-.074
.428
-.053
.428
-.084
.427
-.06
.428
-.099
.428
-.045
.427
-.11
.428
-.051
.428
-.048
.428
-.049
.427
-.017
.428
-.063
.428
-.091
.427
-.04
.428
-.043
.428
-.144
.427
-.041
.428
-.069
.428
-.069
.428
-.072
.427
-.034
.428
-.094
.428
-.071
.427
-.046
.428
-.042
.428
-.041
.428
-.035
.427
-.048
.428
-.01
.428
-.014
.427
-.04
.428
-.03
.428
-.056
.428
-.058
.427
-.019
L770
60" aria-label="line"/>
</svg>
