<svg class="plot-d6a7b5" fill="currentColor" font-family="system-ui, sans-serif" font-size="10" text-anchor="middle" width="830" height="470" viewBox="0 0 830 470" xmlns="http://www.w3.org/2000/svg" xmlns:xlink="http://www.w3.org/1999/xlink" color="#1e90ff"><style>:where(.plot-d6a7b5){--plot-background: white;display:block;height:intrinsic;max-width:100%}:where(.plot-d6a7b5 text),:where(.plot-d6a7b5 tspan){white-space:pre}</style><g aria-label="y-grid" stroke="currentColor" stroke-opacity=".1"><line x1="60" x2="770" y1="410" y2="410"/><line x1="60" x2="770" y1="378.557" y2="378.557"/><line x1="60" x2="770" y1="347.114" y2="347.114"/><line x1="60" x2="770" y1="315.671" y2="315.671"/><line x1="60" x2="770" y1="284.227" y2="284.227"/><line x1="60" x2="770" y1="252.784" y2="252.784"/><line x1="60" x2="770" y1="221.341" y2="221.341"/><line x1="60" x2="770" y1="189.898" y2="189.898"/><line x1="60" x2="770" y1="158.455" y2="158.455"/><line x1="60" x2="770" y1="127.012" y2="127.012"/><line x1="60" x2="770" y1="95.568" y2="95.568"/><line x1="60" x2="770" y1="64.125" y2="64.125"/></g><g aria-label="y-axis tick" fill="none" stroke="currentColor"><path transform="translate(60,410)" d="M0,0L-6,0"/><path transform="translate(60,378.55684921661634)" d="M0,0L-6,0"/><path transform="translate(60,347.11369843323274)" d="M0,0L-6,0"/><path transform="translate(60,315.6705476498491)" d="M0,0L-6,0"/><path transform="translate(60,284.2273968664655)" d="M0,0L-6,0"/><path transform="translate(60,252.7842460830818)" d="M0,0L-6,0"/><path transform="translate(60,221.34109529969817)" d="M0,0L-6,0"/><path transform="translate(60,189.8979445163145)" d="M0,0L-6,0"/><path transform="translate(60,158.45479373293085)" d="M0,0L-6,0"/><path transform="translate(60,127.01164294954722)" d="M0,0L-6,0"/><path transform="translate(60,95.56849216616357)" d="M0,0L-6,0"/><path transform="translate(60,64.12534138277994)" d="M0,0L-6,0"/></g><g aria-label="y-axis tick label" text-anchor="end" font-variant="tabular-nums"><text y=".32em" transform="translate(-9,0) translate(60,410)">0</text><text y=".32em" transform="translate(-9,0) translate(60,378.55684921661634)">5,000</text><text y=".32em" transform="translate(-9,0) translate(60,347.11369843323274)">10,000</text><text y=".32em" transform="translate(-9,0) translate(60,315.6705476498491)">15,000</text><text y=".32em" transform="translate(-9,0) translate(60,284.2273968664655)">20,000</text><text y=".32em" transform="translate(-9,0) translate(60,252.7842460830818)">25,000</text><text y=".32em" transform="translate(-9,0) translate(60,221.34109529969817)">30,000</text><text y=".32em" transform="translate(-9,0) translate(60,189.8979445163145)">35,000</text><text y=".32em" transform="translate(-9,0) translate(60,158.45479373293085)">40,000</text><text y=".32em" transform="translate(-9,0) translate(60,127.01164294954722)">45,000</text><text y=".32em" transform="translate(-9,0) translate(60,95.56849216616357)">50,000</text><text y=".32em" transform="translate(-9,0) translate(60,64.12534138277994)">55,000</text></g><g aria-label="y-axis label" text-anchor="start"><text y=".71em" transform="translate(-57,-57) translate(60,60)">↑ Visible Vestiges (30 days)</text></g><g aria-label="x-axis tick" fill="none" stroke="currentColor"><path transform="translate(93.22018348623854,410)" d="M0,0L0,6"/><path transform="translate(182.13302752293578,410)" d="M0,0L0,6"/><path transform="translate(272.0229357798165,410)" d="M0,0L0,6"/><path transform="translate(361.91284403669727,410)" d="M0,0L0,6"/><path transform="translate(450.82568807339453,410)" d="M0,0L0,6"/><path transform="translate(539.7385321100918,410)" d="M0,0L0,6"/><path transform="translate(629.6284403669724,410)" d="M0,0L0,6"/><path transform="translate(719.5183486238533,410)" d="M0,0L0,6"/></g><g aria-label="x-axis tick label" font-variant="tabular-nums"><text transform="translate(0,9) translate(93.22018348623854,410)"><tspan x="0" y=".71em">Apr</tspan><tspan x="0" dy="1em">2023</tspan></text><text y=".71em" transform="translate(0,9) translate(182.13302752293578,410)">Jul</text><text y=".71em" transform="translate(0,9) translate(272.0229357798165,410)">Oct</text><text transform="translate(0,9) translate(361.91284403669727,410)"><tspan x="0" y=".71em">Jan</tspan><tspan x="0" dy="1em">2024</tspan></text><text y=".71em" transform="translate(0,9) translate(450.82568807339453,410)">Apr</text><text y=".71em" transform="translate(0,9) translate(539.7385321100918,410)">Jul</text><text y=".71em" transform="translate(0,9) translate(629.6284403669724,410)">Oct</text><text transform="translate(0,9) translate(719.5183486238533,410)"><tspan x="0" y=".71em">Jan</tspan><tspan x="0" dy="1em">2025</tspan></text></g><g aria-label="line" fill="none" stroke="currentColor" stroke-width="1.5" stroke-linejoin="round" stroke-linecap="round"><path d="M60,410L60.651,406.843L61.303,395.297L61.954,389.071L62.606,384.657L63.257,377.375L63.908,371.639L64.56,366.263L65.211,355.383L65.862,346.774L66.514,336.555L67.165,320.727L67.817,305.804L68.468,298.056L69.119,286.843L69.771,279.228L70.422,270.499L71.073,259.085L71.725,251.401L72.376,243.867L73.028,233.642L73.679,222.303L74.33,214.273L74.982,200.57L75.633,194.08L76.284,188.024L76.936,177.101L77.587,166.643L78.239,158.593L78.89,147.374L79.541,139.344L80.193,140.702L80.844,131.137L81.495,123.025L82.147,123.05L82.798,121.226L83.45,120.912L84.101,127.194L84.752,127.276L85.404,129.156L86.055,139.168L86.706,140.639L87.358,134.325L88.009,132.936L88.661,125.282L89.312,123.66L89.963,126.257L90.615,121.93L91.266,119.415L91.917,122.364L92.569,120.597L93.22,115.956L93.872,117.837L94.523,107.379L95.174,97.342L95.826,99.895L96.477,97.933L97.128,94.776L97.78,95.952L98.431,92.921L99.083,89.752L99.734,93.94L100.385,92.519L101.037,86.406L101.688,82.45L102.339,72.653L102.991,67.722L103.642,67.653L104.294,64L104.945,60L105.596,66.113L106.248,70.716L106.899,73.112L107.55,78.866L108.202,76.734L108.853,73.181L109.505,78.143L110.156,78.407L110.807,78.042L111.459,86.123L112.11,91.016L112.761,95.097L113.413,103.825L114.064,109.278L114.716,106.831L115.367,110.806L116.018,110.315L116.67,112.145L117.321,121L117.972,122.037L118.624,125.125L119.275,134.464L119.927,140.117L120.578,144.192L121.229,151.933L121.881,150.82L122.532,150.16L123.183,154.179L123.835,157.065L124.486,158.254L125.138,161.825L125.789,162.373L126.44,166.385L127.092,173.277L127.743,176.572L128.394,173.334L129.046,175.05L129.697,172.315L130.349,170.347L131,171.629L131.651,169.957L132.303,171.736L132.954,176.245L133.606,178.874L134.257,180.918L134.908,184.88L135.56,184.898L136.211,182.823L136.862,188.98L137.514,191.036L138.165,190.005L138.817,192.407L139.468,192.363L140.119,194.413L140.771,199.916L141.422,200.696L142.073,197.652L142.725,196.545L143.376,192.237L144.028,191.866L144.679,194.35L145.33,192.445L145.982,191.269L146.633,195.589L147.284,196.451L147.936,197.117L148.587,199.714L149.239,195.413L149.89,193.596L150.541,195.74L151.193,194.753L151.844,192.778L152.495,194.69L153.147,194.948L153.798,194.558L154.45,197.96L155.101,199.035L155.752,199.457L156.404,200.519L157.055,198.557L157.706,198.381L158.358,200.142L159.009,198.174L159.661,197.834L160.312,201.249L160.963,206.789L161.615,208.374L162.266,212.77L162.917,212.701L163.569,213.015L164.22,215.04L164.872,215.216L165.523,214.43L166.174,218.348L166.826,218.109L167.477,219.53L168.128,225.806L168.78,227.529L169.431,228.535L170.083,231.434L170.734,231.761L171.385,232.101L172.037,232.126L172.688,233.453L173.339,232.459L173.991,235.384L174.642,234.818L175.294,235.069L175.945,236.547L176.596,234.755L177.248,234.711L177.899,236.025L178.55,234.516L179.202,233.214L179.853,233.107L180.505,230.453L181.156,229.114L181.807,231.177L182.459,231.227L183.11,230.541L183.761,233.484L184.413,232.56L185.064,233.893L185.716,236.572L186.367,236.899L187.018,236.295L187.67,238.44L188.321,237.673L188.972,237.05L189.624,240.169L190.275,239.566L190.927,239.805L191.578,241.974L192.229,240.666L192.881,239.591L193.532,240.767L194.183,239.402L194.835,240.238L195.486,241.515L196.138,240.408L196.789,240.742L197.44,242.609L198.092,243.1L198.743,241.779L199.394,245.483L200.046,247.816L200.697,246.722L201.349,249.451L202,248.527L202.651,247.797L203.303,249.313L203.954,247.275L204.606,247.288L205.257,247.307L205.908,244.93L206.56,243.345L207.211,246.823L207.862,243.798L208.514,242.446L209.165,243.641L209.817,242.056L210.468,241.641L211.119,243.32L211.771,241.59L212.422,240.389L213.073,241.433L213.725,238.635L214.376,238.415L215.028,239.805L215.679,239.176L216.33,236.975L216.982,235.365L217.633,231.258L218.284,229.938L218.936,229.938L219.587,228.435L220.239,227.001L220.89,229.994L221.541,228.139L222.193,227.592L222.844,229.957L223.495,228.63L224.147,228.925L224.798,232.78L225.45,232.176L226.101,229.529L226.752,232.988L227.404,232.793L228.055,230.378L228.706,231.296L229.358,228.177L230.009,227.812L230.661,228.472L231.312,226.542L231.963,225.806L232.615,228.139L233.266,227.454L233.917,227.215L234.569,230.032L235.22,231.818L235.872,235.126L236.523,241.546L237.174,242.71L237.826,242.194L238.477,243.892L239.128,244.244L239.78,242.917L240.431,244.634L241.083,245.118L241.734,244.005L242.385,246.087L243.037,246.961L243.688,246.118L244.339,247.37L244.991,247.118L245.642,247.231L246.294,248.464L246.945,251.011L247.596,253.734L248.248,257.796L248.899,259.299L249.55,262.268L250.202,267.324L250.853,266.204L251.505,266.89L252.156,269.047L252.807,268.323L253.459,269.455L254.11,271.38L254.761,272.153L255.413,274.027L256.064,275.48L256.716,276.876L257.367,277.234L258.018,277.354L258.67,274.631L259.321,272.317L259.972,273.662L260.624,273.681L261.275,274.474L261.927,275.216L262.578,275.48L263.229,276.624L263.881,279.706L264.532,279.14L265.183,278.436L265.835,279.448L266.486,277.555L267.138,278.75L267.789,280.165L268.44,278.958L269.092,278.555L269.743,282.662L270.394,282.504L271.046,282.9L271.697,284.894L272.349,281.574L273,280.674L273.651,281.687L274.303,279.97L274.954,280.813L275.606,282.07L276.257,283.177L276.908,284.592L277.56,288.466L278.211,289.805L278.862,287.598L279.514,286.649L280.165,283.919L280.817,283.599L281.468,284.951L282.119,285.007L282.771,284.881L283.422,286.271L284.073,286.869L284.725,287.661L285.376,290.183L286.028,285.982L286.679,282.768L287.33,282.85L287.982,282.599L288.633,283.039L289.284,286.076L289.936,285.812L290.587,287.202L291.239,290.17L291.89,288.749L292.541,284.756L293.193,284.397L293.844,281.165L294.495,280.655L295.147,281.196L295.798,279.398L296.45,280.064L297.101,282.215L297.752,283.334L298.404,284.158L299.055,287.045L299.706,286.089L300.358,286.007L301.009,287.963L301.661,286.68L302.312,287.252L302.963,290.384L303.615,290.849L304.266,291.038L304.917,293.107L305.569,293.245L306.22,291.019L306.872,290.906L307.523,289.755L308.174,289.661L308.826,290.843L309.477,289.868L310.128,290.692L310.78,294.295L311.431,296.691L312.083,299.05L312.734,302.188L313.385,301.955L314.037,301.817L314.688,305.099L315.339,305.653L315.991,307.376L316.642,309.916L317.294,311.985L317.945,313.205L318.596,317.224L319.248,315.954L319.899,313.539L320.55,313.778L321.202,312.463L321.853,310.954L322.505,311.753L323.156,311.269L323.807,314.142L324.459,317.041L325.11,318.576L325.761,318.941L326.413,319.695L327.064,317.243L327.716,317.318L328.367,318.098L329.018,316.488L329.67,315.664L330.321,316.079L330.972,313.243L331.624,313.47L332.275,314.199L332.927,314.413L333.578,313.004L334.229,312.457L334.881,310.212L335.532,310.193L336.183,311.803L336.835,310.52L337.486,309.112L338.138,311.696L338.789,313.759L339.44,315.853L340.092,318.456L340.743,318.89L341.394,318.261L342.046,320.192L342.697,318.777L343.349,318.431L344,321.399L344.651,322.89L345.303,324.393L345.954,327.286L346.606,327.141L347.257,326.877L347.908,328.147L348.56,328.896L349.211,329.996L349.862,332.159L350.514,332.857L351.165,334.04L351.817,335.04L352.468,335.14L353.119,336.486L353.771,337.725L354.422,335.574L355.073,333.423L355.725,334.914L356.376,334.838L357.028,333.285L357.679,332.939L358.33,331.612L358.982,330.663L359.633,330.468L360.284,329.462L360.936,328.103L361.587,328.946L362.239,328.858L362.89,327.355L363.541,326.764L364.193,324.185L364.844,323.487L365.495,325.028L366.147,324.443L366.798,325.556L367.45,325.475L368.101,323.928L368.752,324.953L369.404,324.971L370.055,323.72L370.706,323.978L371.358,325.563L372.009,325.833L372.661,327.078L373.312,328.889L373.963,328.921L374.615,327.499L375.266,326.393L375.917,325.374L376.569,326.141L377.22,327.361L377.872,327.757L378.523,327.562L379.174,327.537L379.826,327.606L380.477,328.286L381.128,328.411L381.78,327.361L382.431,324.449L383.083,325.204L383.734,323.462L384.385,322.959L385.037,324.795L385.688,323.198L386.339,324.374L386.991,326.468L387.642,323.689L388.294,320.764L388.945,319.865L389.596,316.243L390.248,315.086L390.899,314.4L391.55,312.677L392.202,312.206L392.853,313.124L393.505,312.287L394.156,313.809L394.807,314.463L395.459,310.577L396.11,308.891L396.761,308.3L397.413,307.168L398.064,307.948L398.716,308.583L399.367,305.967L400.018,305.552L400.67,305.376L401.321,306.866L401.972,305.54L402.624,303.401L403.275,298.892L403.927,297.358L404.578,296.446L405.229,291.975L405.881,289.969L406.532,291.893L407.183,293.447L407.835,294.151L408.486,296.371L409.138,294.22L409.789,292.264L410.44,293.497L411.092,292.503L411.743,291.635L412.394,291.717L413.046,290.214L413.697,291.918L414.349,294.503L415,293.579L415.651,291.874L416.303,293.239L416.954,291.384L417.606,291.151L418.257,292.692L418.908,292.918L419.56,294.811L420.211,296.214L420.862,297.408L421.514,300.949L422.165,305.024L422.817,303.445L423.468,304.401L424.119,307.615L424.771,309.244L425.422,310.03L426.073,310.96L426.725,311.501L427.376,313.092L428.028,316.237L428.679,316.425L429.33,315.57L429.982,317.538L430.633,316.947L431.284,318.111L431.936,320.846L432.587,320.771L433.239,320.984L433.89,323.72L434.541,325.179L435.193,324.764L435.844,326.21L436.495,323.349L437.147,322.802L437.798,323.965L438.45,325.846L439.101,328.525L439.752,332.122L440.404,334.97L441.055,337.832L441.706,343.158L442.358,346.101L443.009,348.384L443.661,350.472L444.312,352.49L444.963,355.006L445.615,357.113L446.266,358.358L446.917,359.886L447.569,363.244L448.22,364.653L448.872,363.414L449.523,365.225L450.174,365.961L450.826,365.269L451.477,365.898L452.128,367.08L452.78,366.885L453.431,367.841L454.083,368.652L454.734,369.193L455.385,371.941L456.037,372.507L456.688,372.507L457.339,371.117L457.991,368.545L458.642,365.759L459.294,364.571L459.945,362.785L460.596,360.131L461.248,358.666L461.899,357.352L462.55,355.188L463.202,353.427L463.853,351.006L464.505,349.246L465.156,348.252L465.807,346.655L466.459,345.806L467.11,345.391L467.761,347.504L468.413,348.252L469.064,349.459L469.716,349.755L470.367,349.868L471.018,349.793L471.67,349.396L472.321,349.837L472.972,351.384L473.624,351.623L474.275,352.163L474.927,353.446L475.578,353.905L476.229,353.056L476.881,353.843L477.532,354.094L478.183,353.566L478.835,354.05L479.486,354.698L480.138,353.937L480.789,353.151L481.44,353.975L482.092,353.736L482.743,354.679L483.394,354.717L484.046,352.855L484.697,352.522L485.349,351.22L486,351.22L486.651,350.881L487.303,350.239L487.954,349.007L488.606,348.812L489.257,348.101L489.908,347.522L490.56,348.843L491.211,347.705L491.862,346.246L492.514,346.711L493.165,345.56L493.817,345.567L494.468,346.07L495.119,347.617L495.771,347.906L496.422,348.51L497.073,348.132L497.725,345.001L498.376,344.844L499.028,343.743L499.679,344.529L500.33,344.535L500.982,344.755L501.633,343.737L502.284,345.057L502.936,346.227L503.587,346.372L504.239,347.441L504.89,346.019L505.541,343.655L506.193,343.756L506.844,342.46L507.495,342.668L508.147,342.951L508.798,341.85L509.45,340.756L510.101,341.9L510.752,341.517L511.404,340.404L512.055,341.794L512.706,339.548L513.358,339.115L514.009,338.385L514.661,337.266L515.312,336.467L515.963,336.719L516.615,338.09L517.266,337.882L517.917,338.737L518.569,336.605L519.22,334.442L519.872,333.681L520.523,333.952L521.174,331.505L521.826,331.537L522.477,331.719L523.128,331.883L523.78,332.329L524.431,333.901L525.083,333.449L525.734,334.568L526.385,333.706L527.037,333.084L527.688,336.065L528.339,337.586L528.991,337.549L529.642,339.102L530.294,338.75L530.945,338.398L531.596,340.97L532.248,340.825L532.899,338.417L533.55,339.63L534.202,340.24L534.853,339.215L535.505,340.14L536.156,341.139L536.807,341.781L537.459,344.334L538.11,346.441L538.761,347.277L539.413,347.938L540.064,347.887L540.716,347.516L541.367,347.982L542.018,346.856L542.67,347.378L543.321,347.504L543.972,348.34L544.624,348.975L545.275,350.17L545.927,350.793L546.578,349.264L547.229,349.497L547.881,350.032L548.532,350.032L549.183,352.258L549.835,352.692L550.486,352.163L551.138,351.931L551.789,353.786L552.44,353.912L553.092,354.654L553.743,355.283L554.394,355.459L555.046,355.622L555.697,355.251L556.349,354.333L557,354.283L557.651,354.138L558.303,353.975L558.954,355.213L559.606,354.591L560.257,352.069L560.908,352.503L561.56,351.918L562.211,352.226L562.862,352.038L563.514,351.164L564.165,350.635L564.817,351.365L565.468,352.031L566.119,351.302L566.771,350.761L567.422,350.201L568.073,348.68L568.725,348.258L569.376,346.894L570.028,345.913L570.679,345.032L571.33,343.045L571.982,341.511L572.633,340.404L573.284,338.781L573.936,338.215L574.587,338.083L575.239,335.844L575.89,335.241L576.541,335.178L577.193,334.43L577.844,334.7L578.495,336.744L579.147,335.071L579.798,332.618L580.45,330.361L581.101,326.864L581.752,324.349L582.404,323.751L583.055,320.639L583.706,316.884L584.358,315.425L585.009,314.205L585.661,312.545L586.312,311.306L586.963,310.558L587.615,308.583L588.266,309.275L588.917,310.809L589.569,311.048L590.22,312.639L590.872,313.753L591.523,314.727L592.174,316.086L592.826,315.268L593.477,314.476L594.128,315.62L594.78,315.425L595.431,314.991L596.083,315.62L596.734,315.639L597.385,315.3L598.037,320.142L598.688,324.041L599.339,327.613L599.991,331.298L600.642,334.461L601.294,335.681L601.945,339.278L602.596,342.907L603.248,344.73L603.899,346.057L604.55,348.321L605.202,349.22L605.853,351.17L606.505,353.346L607.156,354.566L607.807,354.037L608.459,354.798L609.11,354.509L609.761,354.792L610.413,355.314L611.064,356.188L611.716,357.251L612.367,359.402L613.018,361.313L613.67,362.364L614.321,363.678L614.972,363.829L615.624,364.106L616.275,364.011L616.927,363.571L617.578,363.005L618.229,362.948L618.881,362.716L619.532,362.659L620.183,362.37L620.835,360.691L621.486,359.364L622.138,356.748L622.789,356.698L623.44,356.1L624.092,356.49L624.743,356.974L625.394,356.767L626.046,356.132L626.697,356.207L627.349,355.704L628,352.799L628.651,352.17L629.303,352.635L629.954,350.994L630.606,350.761L631.257,350.811L631.908,350.069L632.56,349.786L633.211,349.623L633.862,349.321L634.514,348.315L635.165,347.139L635.817,344.875L636.468,345.158L637.119,345.409L637.771,345.548L638.422,345.202L639.073,346.504L639.725,348.39L640.376,349.629L641.028,352.767L641.679,352.968L642.33,353.56L642.982,354.585L643.633,354.585L644.284,355.943L644.936,356.823L645.587,357.138L646.239,358.402L646.89,362.181L647.541,362.005L648.193,361.571L648.844,362.942L649.495,362.313L650.147,362.603L650.798,363.716L651.45,363.785L652.101,364.156L652.752,365.489L653.404,366.873L654.055,368.659L654.706,371.382L655.358,370.463L656.009,370.268L656.661,371.545L657.312,372.507L657.963,372.507L658.615,372.275L659.266,372.608L659.917,371.495L660.569,371.985L661.22,371.243L661.872,369.319L662.523,368.426L663.174,365.973L663.826,364.911L664.477,365.25L665.128,365.37L665.78,365.137L666.431,365.873L667.083,366.476L667.734,367.074L668.385,367.64L669.037,366.476L669.688,365.357L670.339,365.904L670.991,364.992L671.642,365.244L672.294,365.602L672.945,364.584L673.596,364.389L674.248,365.539L674.899,365.634L675.55,364.439L676.202,363.496L676.853,362.703L677.505,363.018L678.156,362.892L678.807,363.175L679.459,362.754L680.11,363.496L680.761,364.602L681.413,365.489L682.064,367.237L682.716,367.269L683.367,366.483L684.018,366.986L684.67,367.086L685.321,367.244L685.972,367.539L686.624,367.3L687.275,368.155L687.927,369.47L688.578,370.224L689.229,370.652L689.881,372.18L690.532,372.061L691.183,371.771L691.835,372.979L692.486,373.45L693.138,373.312L693.789,372.57L694.44,372.922L695.092,372.551L695.743,373.488L696.394,373.394L697.046,373.928L697.697,374.387L698.349,374.658L699,375.394L699.651,376.375L700.303,376.199L700.954,376.544L701.606,377.746L702.257,378.073L702.908,377.06L703.56,377.331L704.211,376.972L704.862,376.922L705.514,376.419L706.165,376.085L706.817,375.979L707.468,376.45L708.119,375.74L708.771,374.991L709.422,374.626L710.073,373.627L710.725,373.595L711.376,372.671L712.028,372.671L712.679,373.702L713.33,374.224L713.982,375.117L714.633,375.092L715.284,375.167L715.936,374.922L716.587,374.356L717.239,374.079L717.89,371.677L718.541,370.375L719.193,370.099L719.844,369.181L720.495,368.703L721.147,369.199L721.798,368.652L722.45,367.124L723.101,367.596L723.752,366.288L724.404,366.709L725.055,367.218L725.706,366.288L726.358,365.998L727.009,366.156L727.661,366.42L728.312,365.904L728.963,367.049L729.615,366.458L730.266,366.885L730.917,366.803L731.569,366.866L732.22,366.564L732.872,366.59L733.523,366.219L734.174,365.565L734.826,365.439L735.477,365.036L736.128,365.181L736.78,366.841L737.431,367.3L738.083,367.388L738.734,367.671L739.385,367.3L740.037,367.388L740.688,369.036L741.339,369.904L741.991,369.828L742.642,370.86L743.294,370.614L743.945,369.602L744.596,368.558L745.248,366.319L745.899,365.124L746.55,364.653L747.202,364.967L747.853,364.923L748.505,364.911L749.156,364.319L749.807,364.602L750.459,364.697L751.11,363.47L751.761,362.42L752.413,362.533L753.064,362.395L753.716,362.118L754.367,362.873L755.018,362.672L755.67,362.024L756.321,361.339L756.972,361.433L757.624,361.653L758.275,362.508L758.927,362.546L759.578,362.206L760.229,363.37L760.881,362.577L761.532,362.892L762.183,362.986L762.835,362.873L763.486,363.873L764.138,364.898L764.789,365.118L765.44,364.904L766.092,364.854L766.743,363.489L767.394,363.489L768.046,363.942L768.697,362.879L769.349,362.408L770,363.143"/></g></svg>