<svg xmlns="http://www.w3.org/2000/svg" width="830" height="470" fill="currentColor" class="plot-d6a7b5" font-family="system-ui, sans-serif" font-size="10" style="--plot-background:white;display:block;height:intrinsic;max-width:100%;color:#1e90ff" text-anchor="middle" viewBox="0 0 830 470">
    <style>
        :where(.plot-d6a7b5 text),:where(.plot-d6a7b5 tspan){white-space:pre}
    </style>
    <path stroke="currentColor" stroke-opacity=".1" d="
M60
410
h710
M60
385.191
h710
M60
360.382
h710
M60
335.573
h710
M60
310.764
h710
M60
285.955
h710
M60
261.146
h710
M60
236.337
h710
M60
211.528
h710
M60
186.719
h710
M60
161.91
h710
M60
137.101
h710
M60
112.292
h710
M60
87.482
h710
M60
62.673
h710" aria-hidden="true" aria-label="y-grid"/>
    <path fill="none" stroke="currentColor" d="
M60
410
h-6
m6
-24.809
h-6
m6
-24.809
h-6
m6
-24.809
h-6
m6
-24.809
h-6
m6
-24.809
h-6
m6
-24.809
h-6
m6
-24.809
h-6
m6
-24.809
h-6
m6
-24.809
h-6
m6
-24.809
h-6
m6
-24.81
h-6
m6
-24.808
h-6
m6
-24.81
h-6
m6
-24.809
h-6" aria-hidden="true" aria-label="y-axis tick"/>
    <g aria-label="y-axis tick label" font-variant="tabular-nums" text-anchor="end">
        <text y=".32em" transform="translate(51 410)">0</text>
        <text y=".32em" transform="translate(51 385.191)">50,000</text>
        <text y=".32em" transform="translate(51 360.382)">100,000</text>
        <text y=".32em" transform="translate(51 335.573)">150,000</text>
        <text y=".32em" transform="translate(51 310.764)">200,000</text>
        <text y=".32em" transform="translate(51 285.955)">250,000</text>
        <text y=".32em" transform="translate(51 261.146)">300,000</text>
        <text y=".32em" transform="translate(51 236.337)">350,000</text>
        <text y=".32em" transform="translate(51 211.528)">400,000</text>
        <text y=".32em" transform="translate(51 186.719)">450,000</text>
        <text y=".32em" transform="translate(51 161.91)">500,000</text>
        <text y=".32em" transform="translate(51 137.1)">550,000</text>
        <text y=".32em" transform="translate(51 112.292)">600,000</text>
        <text y=".32em" transform="translate(51 87.482)">650,000</text>
        <text y=".32em" transform="translate(51 62.673)">700,000</text>
    </g>
    <text y=".71em" aria-label="y-axis label" text-anchor="start" transform="translate(3 3)">↑ Total vestiges</text>
    <path fill="none" stroke="currentColor" d="
M82.256
410
v6
m59.566
-6
v6
m60.222
-6
v6
m60.221
-6
v6
m59.567
-6
v6
m59.566
-6
v6
m60.222
-6
v6
m60.22
-6
v6
m58.913
-6
v6
m59.567
-6
v6
m60.22
-6
v6
m60.222
-6
v6" aria-hidden="true" aria-label="x-axis tick"/>
    <g aria-label="x-axis tick label" font-variant="tabular-nums">
        <text transform="translate(82.256 419)"><tspan x="0" y=".71em">Apr</tspan><tspan x="0" dy="1em">2023</tspan></text>
        <text y=".71em" transform="translate(141.822 419)">Jul</text>
        <text y=".71em" transform="translate(202.044 419)">Oct</text>
        <text transform="translate(262.265 419)"><tspan x="0" y=".71em">Jan</tspan><tspan x="0" dy="1em">2024</tspan></text>
        <text y=".71em" transform="translate(321.832 419)">Apr</text>
        <text y=".71em" transform="translate(381.398 419)">Jul</text>
        <text y=".71em" transform="translate(441.62 419)">Oct</text>
        <text transform="translate(501.84 419)"><tspan x="0" y=".71em">Jan</tspan><tspan x="0" dy="1em">2025</tspan></text>
        <text y=".71em" transform="translate(560.753 419)">Apr</text>
        <text y=".71em" transform="translate(620.32 419)">Jul</text>
        <text y=".71em" transform="translate(680.54 419)">Oct</text>
        <text transform="translate(740.762 419)"><tspan x="0" y=".71em">Jan</tspan><tspan x="0" dy="1em">2026</tspan></text>
    </g>
    <path fill="none" stroke="currentColor" stroke-linecap="round" stroke-linejoin="round" stroke-width="1.5" d="
m60
410
.436
-.249
.437
-.911
.436
-.491
.437
-.349
.436
-.574
.436
-.453
.437
-.424
.436
-.858
.436
-.68
.437
-.806
.436
-1.249
.437
-1.177
.436
-.612
.436
-.884
.437
-.601
.436
-.689
.437
-.9
.436
-.607
.436
-.594
.437
-.807
.436
-.895
.436
-.633
.437
-1.081
.436
-.512
.437
-.478
.436
-.862
.436
-.825
.437
-.635
.436
-.886
.437
-.882
.436
-.804
.436
-1.246
.437
-.988
.436
-.573
.437
-.596
.436
-.449
.436
-.363
.437
-.673
.436
-.658
.436
-.459
.437
-1.061
.436
-1.11
.437
-.994
.436
-1.205
.436
-.816
.437
-.696
.436
-.948
.437
-.793
.436
-.574
.436
-1.034
.437
-1
.436
-.932
.436
-1.338
.437
-1.269
.436
-.661
.437
-.98
.436
-.884
.436
-.792
.437
-1.122
.436
-1.054
.437
-.915
.436
-1.101
.436
-1.055
.437
-.908
.436
-1.222
.436
-.752
.437
-.678
.436
-.947
.437
-.774
.436
-.579
.436
-.747
.437
-.805
.436
-.751
.437
-.984
.436
-.976
.436
-.557
.437
-.772
.436
-.603
.436
-.396
.437
-.614
.436
-.611
.437
-.648
.436
-.84
.436
-.853
.437
-.666
.436
-.923
.437
-.648
.436
-.424
.436
-.972
.437
-.671
.436
-.364
.437
-.609
.436
-.587
.436
-.611
.437
-.84
.436
-.73
.436
-.629
.437
-.547
.436
-.485
.437
-.465
.436
-.762
.436
-.434
.437
-.441
.436
-.716
.437
-.812
.436
-.637
.436
-.818
.437
-.552
.436
-.513
.436
-.742
.437
-.508
.436
-.484
.437
-.646
.436
-.505
.436
-.611
.437
-.646
.436
-.587
.437
-.486
.436
-.51
.436
-.445
.437
-.419
.436
-.591
.436
-.449
.437
-.406
.436
-.669
.437
-.869
.436
-.634
.436
-.825
.437
-.494
.436
-.566
.437
-.584
.436
-.534
.436
-.375
.437
-.744
.436
-.584
.436
-.614
.437
-.891
.436
-.656
.437
-.574
.436
-.586
.436
-.639
.437
-.495
.436
-.485
.437
-.641
.436
-.378
.436
-.503
.437
-.453
.436
-.425
.437
-.6
.436
-.433
.436
-.452
.437
-.605
.436
-.432
.436
-.399
.437
-.432
.436
-.51
.437
-.478
.436
-.499
.436
-.541
.437
-.425
.436
-.52
.437
-.437
.436
-.435
.436
-.603
.437
-.501
.436
-.396
.436
-.52
.437
-.495
.436
-.357
.437
-.614
.436
-.468
.436
-.483
.437
-.536
.436
-.457
.437
-.271
.436
-.498
.436
-.406
.437
-.483
.436
-.574
.436
-.455
.437
-.502
.436
-.551
.437
-.502
.436
-.441
.436
-.718
.437
-.584
.436
-.336
.437
-.538
.436
-.479
.436
-.287
.437
-.51
.436
-.33
.436
-.391
.437
-.476
.436
-.444
.437
-.351
.436
-.554
.436
-.407
.437
-.367
.436
-.516
.437
-.464
.436
-.366
.436
-.559
.437
-.357
.436
-.404
.437
-.514
.436
-.417
.436
-.474
.437
-.542
.436
-.475
.436
-.404
.437
-.464
.436
-.544
.437
-.427
.436
-.4
.436
-.422
.437
-.322
.436
-.552
.437
-.345
.436
-.391
.436
-.49
.437
-.391
.436
-.474
.436
-.631
.437
-.476
.436
-.28
.437
-.645
.436
-.475
.436
-.421
.437
-.589
.436
-.398
.437
-.428
.436
-.492
.436
-.5
.437
-.431
.436
-.638
.436
-.491
.437
-.433
.436
-.524
.437
-.578
.436
-.591
.436
-.868
.437
-.531
.436
-.4
.437
-.541
.436
-.435
.436
-.316
.437
-.491
.436
-.434
.436
-.304
.437
-.495
.436
-.451
.437
-.327
.436
-.523
.436
-.49
.437
-.372
.436
-.49
.437
-.612
.436
-.516
.436
-.644
.437
-.456
.436
-.441
.437
-.652
.436
-.489
.436
-.454
.437
-.546
.436
-.451
.436
-.302
.437
-.437
.436
-.329
.437
-.363
.436
-.438
.436
-.441
.437
-.407
.436
-.407
.437
-.421
.436
-.356
.436
-.395
.437
-.392
.436
-.331
.436
-.382
.437
-.393
.436
-.425
.437
-.509
.436
-.363
.436
-.393
.437
-.411
.436
-.302
.437
-.323
.436
-.338
.436
-.206
.437
-.253
.436
-.578
.436
-.4
.437
-.375
.436
-.508
.437
-.213
.436
-.285
.436
-.269
.437
-.214
.436
-.324
.437
-.33
.436
-.379
.436
-.398
.437
-.636
.436
-.538
.436
-.29
.437
-.39
.436
-.268
.437
-.324
.436
-.372
.436
-.335
.437
-.266
.436
-.407
.437
-.449
.436
-.331
.436
-.451
.437
-.229
.436
-.226
.437
-.302
.436
-.284
.436
-.254
.437
-.412
.436
-.344
.436
-.352
.437
-.474
.436
-.356
.437
-.189
.436
-.349
.436
-.258
.437
-.231
.436
-.292
.437
-.286
.436
-.33
.436
-.433
.437
-.463
.436
-.465
.436
-.484
.437
-.349
.436
-.266
.437
-.33
.436
-.276
.436
-.298
.437
-.401
.436
-.269
.437
-.252
.436
-.56
.436
-.48
.437
-.295
.436
-.305
.436
-.218
.437
-.173
.436
-.365
.437
-.241
.436
-.241
.436
-.468
.437
-.504
.436
-.378
.437
-.512
.436
-.272
.436
-.249
.437
-.428
.436
-.277
.436
-.263
.437
-.375
.436
-.4
.437
-.256
.436
-.425
.436
-.272
.437
-.176
.436
-.377
.437
-.253
.436
-.154
.436
-.232
.437
-.237
.436
-.397
.437
-.469
.436
-.471
.436
-.313
.437
-.31
.436
-.18
.436
-.271
.437
-.319
.436
-.176
.437
-.183
.436
-.315
.436
-.192
.437
-.265
.436
-.29
.437
-.26
.436
-.169
.436
-.233
.437
-.127
.436
-.175
.436
-.237
.437
-.16
.436
-.107
.437
-.372
.436
-.367
.436
-.358
.437
-.357
.436
-.272
.437
-.17
.436
-.275
.436
-.171
.437
-.239
.436
-.35
.436
-.285
.437
-.25
.436
-.374
.437
-.265
.436
-.257
.436
-.303
.437
-.248
.436
-.282
.437
-.416
.436
-.247
.436
-.232
.437
-.243
.436
-.281
.437
-.276
.436
-.305
.436
-.176
.437
-.11
.436
-.261
.436
-.218
.437
-.169
.436
-.203
.437
-.193
.436
-.151
.436
-.239
.437
-.219
.436
-.123
.437
-.282
.436
-.267
.436
-.116
.437
-.167
.436
-.132
.436
-.145
.437
-.277
.436
-.278
.437
-.202
.436
-.19
.436
-.195
.437
-.245
.436
-.192
.437
-.139
.436
-.164
.436
-.272
.437
-.171
.436
-.206
.436
-.346
.437
-.28
.436
-.143
.437
-.224
.436
-.292
.436
-.23
.437
-.298
.436
-.226
.437
-.254
.436
-.299
.436
-.23
.437
-.216
.436
-.273
.436
-.235
.437
-.214
.436
-.334
.437
-.201
.436
-.155
.436
-.324
.437
-.115
.436
-.196
.437
-.317
.436
-.164
.436
-.191
.437
-.237
.436
-.144
.437
-.148
.436
-.148
.436
-.109
.437
-.203
.436
-.277
.436
-.255
.437
-.312
.436
-.372
.437
-.17
.436
-.201
.436
-.195
.437
-.27
.436
-.3
.437
-.225
.436
-.162
.436
-.264
.437
-.317
.436
-.444
.436
-.275
.437
-.338
.436
-.195
.437
-.179
.436
-.241
.436
-.103
.437
-.152
.436
-.383
.437
-.421
.436
-.309
.436
-.43
.437
-.238
.436
-.203
.436
-.245
.437
-.24
.436
-.205
.437
-.321
.436
-.192
.436
-.32
.437
-.476
.436
-.335
.437
-.242
.436
-.358
.436
-.239
.437
-.175
.436
-.368
.436
-.297
.437
-.331
.436
-.326
.437
-.38
.436
-.507
.436
-.55
.437
-.301
.436
-.312
.437
-.456
.436
-.31
.436
-.232
.437
-.299
.436
-.253
.437
-.254
.436
-.409
.436
-.357
.437
-.147
.436
-.319
.436
-.273
.437
-.315
.436
-.31
.437
-.185
.436
-.273
.436
-.408
.437
-.376
.436
-.251
.437
-.385
.436
-.193
.436
-.247
.437
-.279
.436
-.181
.436
-.216
.437
-.286
.436
-.227
.437
-.229
.436
-.425
.436
-.237
.437
-.202
.436
-.182
.437
-.17
.436
-.225
.436
-.21
.437
-.129
.436
-.161
.436
-.342
.437
-.215
.436
-.163
.437
-.32
.436
-.223
.436
-.094
.437
-.192
.436
-.256
.437
-.191
.436
-.261
.436
-.284
.437
-.271
.436
-.419
.436
-.29
.437
-.187
.436
-.033
.437
-.004
.436
-.002
.436
-.003
.437
-.003
.436
-.005
.437
-.005
.436
-.022
.436
-.017
.437
-.01
.436
-.027
.437
-.044
.436
-.031
.436
-.04
.437
-.077
.436
-.104
.436
-.261
.437
-.176
.436
-.166
.437
-.149
.436
-.141
.436
-.163
.437
-.207
.436
-.186
.437
-.22
.436
-.228
.436
-.202
.437
-.245
.436
-.187
.436
-.143
.437
-.207
.436
-.222
.437
-.096
.436
-.145
.436
-.213
.437
-.121
.436
-.126
.437
-.188
.436
-.149
.436
-.218
.437
-.183
.436
-.109
.436
-.166
.437
-.144
.436
-.137
.437
-.094
.436
-.117
.436
-.07
.437
-.126
.436
-.133
.437
-.169
.436
-.238
.436
-.151
.437
-.097
.436
-.21
.436
-.159
.437
-.144
.436
-.151
.437
-.21
.436
-.145
.436
-.202
.437
-.138
.436
-.106
.437
-.163
.436
-.18
.436
-.189
.437
-.122
.436
-.168
.437
-.144
.436
-.18
.436
-.256
.437
-.192
.436
-.247
.436
-.136
.437
-.121
.436
-.169
.437
-.167
.436
-.141
.436
-.189
.437
-.214
.436
-.134
.437
-.241
.436
-.213
.436
-.172
.437
-.25
.436
-.144
.436
-.111
.437
-.088
.436
-.122
.437
-.155
.436
-.167
.436
-.354
.437
-.175
.436
-.267
.437
-.126
.436
-.122
.436
-.151
.437
-.224
.436
-.076
.436
-.164
.437
-.18
.436
-.163
.437
-.249
.436
-.307
.436
-.16
.437
-.27
.436
-.124
.437
-.167
.436
-.301
.436
-.221
.437
-.15
.436
-.243
.436
-.261
.437
-.14
.436
-.321
.437
-.145
.436
-.146
.436
-.21
.437
-.218
.436
-.147
.437
-.245
.436
-.192
.436
-.2
.437
-.294
.436
-.293
.437
-.211
.436
-.202
.436
-.269
.437
-.161
.436
-.167
.436
-.15
.437
-.213
.436
-.183
.437
-.196
.436
-.182
.436
-.192
.437
-.216
.436
-.066
.437
-.1
.436
-.153
.436
-.121
.437
-.288
.436
-.169
.436
-.118
.437
-.156
.436
-.336
.437
-.114
.436
-.17
.436
-.228
.437
-.173
.436
-.112
.437
-.15
.436
-.092
.436
-.127
.437
-.145
.436
-.15
.436
-.273
.437
-.191
.436
-.129
.437
-.239
.436
-.172
.436
-.174
.437
-.13
.436
-.131
.437
-.098
.436
-.166
.436
-.187
.437
-.082
.436
-.111
.436
-.121
.437
-.112
.436
-.134
.437
-.16
.436
-.175
.436
-.189
.437
-.105
.436
-.111
.437
-.179
.436
-.158
.436
-.1
.437
-.178
.436
-.166
.437
-.13
.436
-.156
.436
-.164
.437
-.175
.436
-.239
.436
-.329
.437
-.204
.436
-.219
.437
-.149
.436
-.145
.436
-.2
.437
-.14
.436
-.109
.437
-.134
.436
-.139
.436
-.154
.437
-.165
.436
-.233
.436
-.167
.437
-.267
.436
-.253
.437
-.258
.436
-.262
.436
-.231
.437
-.267
.436
-.286
.437
-.145
.436
-.189
.436
-.341
.437
-.179
.436
-.161
.436
-.222
.437
-.154
.436
-.078
.437
-.461
.436
-.398
.436
-.396
.437
-.425
.436
-.344
.437
-.247
.436
-.385
.436
-.406
.437
-.249
.436
-.236
.436
-.284
.437
-.263
.436
-.292
.437
-.323
.436
-.212
.436
-.132
.437
-.24
.436
-.136
.437
-.143
.436
-.19
.436
-.179
.437
-.209
.436
-.252
.437
-.251
.436
-.194
.436
-.195
.437
-.173
.436
-.152
.436
-.105
.437
-.079
.436
-.09
.437
-.115
.436
-.134
.436
-.094
.437
-.151
.436
-.101
.437
-.12
.436
-.105
.436
-.131
.437
-.106
.436
-.191
.436
-.138
.437
-.152
.436
-.116
.437
-.173
.436
-.18
.436
-.159
.437
-.121
.436
-.149
.437
-.11
.436
-.125
.436
-.082
.437
-.101
.436
-.11
.436
-.092
.437
-.161
.436
-.13
.437
-.113
.436
-.113
.436
-.135
.437
-.119
.436
-.153
.437
-.098
.436
-.174
.436
-.234
.437
-.224
.436
-.311
.436
-.135
.437
-.154
.436
-.16
.437
-.1
.436
-.168
.436
-.167
.437
-.167
.436
-.219
.437
-.388
.436
-.171
.436
-.112
.437
-.24
.436
-.143
.437
-.078
.436
-.159
.436
-.133
.437
-.105
.436
-.184
.436
-.21
.437
-.206
.436
-.292
.437
-.112
.436
-.099
.436
-.142
.437
-.126
.436
-.071
.437
-.085
.436
-.126
.436
-.064
.437
-.119
.436
-.107
.436
-.08
.437
-.1
.436
-.06
.437
-.097
.436
-.143
.436
-.119
.437
-.09
.436
-.185
.437
-.146
.436
-.132
.436
-.193
.437
-.055
.436
-.071
.436
-.128
.437
-.075
.436
-.079
.437
-.101
.436
-.065
.436
-.077
.437
-.185
.436
-.114
.437
-.041
.436
-.05
.436
-.071
.437
-.104
.436
-.099
.436
-.152
.437
-.081
.436
-.165
.437
-.232
.436
-.17
.436
-.254
.437
-.181
.436
-.116
.437
-.11
.436
-.108
.436
-.127
.437
-.098
.436
-.084
.437
-.149
.436
-.147
.436
-.159
.437
-.085
.436
-.147
.436
-.06
.437
-.072
.436
-.145
.437
-.092
.436
-.095
.436
-.107
.437
-.135
.436
-.124
.437
-.134
.436
-.079
.436
-.109
.437
-.13
.436
-.113
.436
-.107
.437
-.145
.436
-.1
.437
-.116
.436
-.178
.436
-.178
.437
-.071
.436
-.1
.437
-.114
.436
-.075
.436
-.104
.437
-.08
.436
-.044
.436
-.1
.437
-.05
.436
-.027
.437
-.069
.436
-.095
.436
-.05
.437
-.055
.436
-.105
.437
-.166
.436
-.108
.436
-.153
.437
-.06
.436
-.086
.436
-.067
.437
-.094
.436
-.092
.437
-.049
.436
-.067
.436
-.114
.437
-.089
.436
-.083
.437
-.152
.436
-.151
.436
-.078
.437
-.143
.436
-.079
.437
-.143
.436
-.107
.436
-.052
.437
-.063
.436
-.107
.436
-.085
.437
-.098
.436
-.174
.437
-.052
.436
-.128
.436
-.106
.437
-.084
.436
-.067
.437
-.082
.436
-.062
.436
-.08
.437
-.087
.436
-.138
.436
-.114
.437
-.238
.436
-.17
.437
-.136
.436
-.161
.436
-.122
.437
-.112
.436
-.194
.437
-.199
.436
-.106
.436
-.182
.437
-.11
.436
-.067
.436
-.125
.437
-.086
.436
-.094
.437
-.065
.436
-.138
.436
-.084
.437
-.099
.436
-.094
.437
-.112
.436
-.079
.436
-.091
.437
-.081
.436
-.09
.436
-.132
.437
-.097
.436
-.17
.437
-.102
.436
-.108
.436
-.133
.437
-.129
.436
-.139
.437
-.151
.436
-.106
.436
-.063
.437
-.131
.436
-.112
.437
-.1
.436
-.129
.436
-.147
.437
-.208
.436
-.262
.436
-.189
.437
-.102
.436
-.114
.437
-.087
.436
-.1
.436
-.141
.437
-.089
.436
-.072
.437
-.187
.436
-.164
.436
-.081
.437
-.143
.436
-.119
.436
-.11
.437
-.119
.436
-.158
.437
-.188
.436
-.121
.436
-.122
.437
-.083
.436
-.103
.437
-.09
.436
-.039
.436
-.174
.437
-.076
.436
-.122
.436
-.156
.437
-.128
.436
-.182
.437
-.171
.436
-.119
.436
-.118
.437
-.195
.436
-.099
.437
-.106
.436
-.173
.436
-.109
.437
-.129
.436
-.178
.436
-.088
.437
-.097
.436
-.153
.437
-.103
.436
-.191
.436
-.103
.437
-.178
.436
-.151
.437
-.096
.436
-.087
.436
-.119
.437
-.232
.436
-.224
.437
-.145
.436
-.195
.436
-.124
.437
-.147
.436
-.223
.436
-.169
.437
-.145
.436
-.146
.437
-.099
.436
-.122
.436
-.114
.437
-.129
.436
-.114
.437
-.132
.436
-.104
.436
-.122
.437
-.182
.436
-.138
.436
-.085
.437
-.082
.436
-.101
.437
-.097
.436
-.093
.436
-.063
.437
-.067
.436
-.111
.437
-.058
.436
-.07
.436
-.103
.437
-.099
.436
-.087
.436
-.138
.437
-.07
.436
-.115
.437
-.074
.436
-.15
.436
-.067
.437
-.124
.436
-.048
.437
-.058
.436
-.165
.436
-.087
.437
-.1
.436
-.047
.436
-.069
.437
-.118
.436
-.073
.437
-.07
.436
-.024
.436
-.073
.437
-.031
.436
-.068
.437
-.048
.436
-.111
.436
-.116
.437
-.11
.436
-.036
.437
-.065
.436
-.053
.436
-.033
.437
-.021
.436
-.095
.436
-.071
.437
-.082
.436
-.032
.437
-.062
.436
-.058
.436
-.093
.437
-.026
.436
-.045
.437
-.04
.436
-.087
.436
-.086
.437
-.062
.436
-.054
.436
-.052
.437
-.041
.436
-.035
.437
-.019
.436
-.018
.436
-.039
.437
-.062
.436
-.012
.437
-.033
.436
-.014
.436
-.028
.437
-.017
.436
-.014
.436
-.018
.437
-.013
.436
-.008
.437
-.028
.436
-.051
.436
-.02
.437
-.03
.436
-.001
.437
-.04
.436
-.033
.436
-.042
.437
-.024
.436
-.077
.436
-.028
.437
-.021
.436
-.029
.437
-.038
.436
-.038
.436
-.01
.437
-.009
.436
-.014
.437
-.018
.436
-.026
.436
-.039
.437
-.035
.436
-.029
.437
-.048
.436
-.062
.436
-.04
.437
-.038
.436
-.043
.436
-.012
.437
-.042
.436
-.058
.437
-.028
.436
-.074
.436
-.065
.437
-.043
.436
-.062
.437
-.027
.436
-.023
.436
-.02
.437
-.053
.436
-.086
.436
-.019
.437
-.074
.436
-.054
.437
-.029
.436
-.028
.436
-.016
.437
-.033
.436
-.039
.437
-.055
.436
-.049
.436
-.061
.437
-.049
.436
-.013
.436
-.06
.437
-.032
.436
-.022
.437
-.002
.436
-.025
.436
-.027
.437
-.034
.436
-.045
.437
-.015
.436
-.035
.436
-.017
.437
-.018
.436
-.019
.437
-.022
.436
-.017
.436
-.041
.437
-.022
.436
-.028
.436
-.069
.437
-.045
.436
-.029
.437
-.04
.436
-.06
.436
-.053
.437
-.026
.436
-.042
.437
-.053
.436
-.039
.436
-.027
.437
-.043
.436
-.071
.436
-.014
.437
-.011
.436
-.036
.437
-.07
.436
-.028
.436
-.074
.437
-.047
.436
-.03
.437
-.095
.436
-.061
.436
-.024
.437
-.061
.436
-.018
.436
-.041
.437
-.004
.436
-.031
.437
-.018
.436
-.016
.436
-.033
.437
-.028
.436
-.052
.437
-.049
.436
-.087
.436
-.033
.437
-.039
.436
-.014
.436
-.047
.437
-.041
.436
-.071
.437
-.017
.436
-.032
.436
-.056
.437
-.05
.436
-.018
.437
-.051
.436
-.04
.436
-.005
.437
-.029
.436
-.036
.437
-.051
.436
-.036
.436
-.033
.437
-.023
.436
-.06
.436
-.071
.437
-.04
.436
-.025
.437
-.071
.436
-.033
.436
-.03
.437
-.016
.436
-.027
.437
-.02
.436
-.059
.436
-.032
.437
-.015
.436
-.013
.436
-.047
.437
-.007
.436
-.04
.437
-.035
.436
-.024
.436
-.008
.437
-.001
.436
-.011
.437
-.008
.436
-.014
.436
-.031
.437
-.013
.436
-.014
.436
-.013
.437
-.012
.436
-.028
.437
-.058
.436
-.008
.436
-.038
.437
-.074
.436
-.107
.437
-.083
.436
-.022
.436
-.024
.437
-.033
.436
-.024
.436
-.018
.437
-.034
.436
-.051
.437
-.062
.436
-.032
.436
-.018
.437
-.002
.436
-.026
.437
-.063
.436
-.026
.436
-.022
.437
-.03
.436
-.026
.437
-.05
.436
-.036
.436
-.067
.437
-.003
.436
-.004
.436
-.017
.437
-.024
.436
-.002
.437
-.067
.436
-.022
.436
-.051
.437
-.06
h.436
l.437
-.002
.436
-.006
.436
-.008
.437
-.013
.436
-.015
.436
-.004
.437
-.039
.436
-.019
.437
-.018
.436
-.008
.436
-.003
.437
-.004
.436
-.002
.437
-.002
.436
-.002
.436
-.025
.437
-.039
.436
-.09
.436
-.095
.437
-.053
.436
-.014
h.437
l.436
-.035
.436
-.036
.437
-.024
.436
-.032
.437
-.079
.436
-.064
.436
-.035
.437
-.062
.436
-.031
.436
-.019
.437
-.028
.436
-.016
.437
-.043
.436
-.049
.436
-.022
.437
-.008
.436
-.05
.437
-.046
.436
-.065
.436
-.019
.437
-.002
.436
-.005
.437
-.017
.436
-.024
.436
-.015
.437
-.006
.436
-.014
.436
-.003
.437
-.024
.436
-.028
.437
-.044
.436
-.008
.436
-.016
.437
-.019
.436
-.016
.437
-.037
.436
-.033
.436
-.042
.437
-.024
.436
-.009
.436
-.016
.437
-.021
.436
-.033
.437
-.007
.436
-.018
.436
-.038
.437
-.042
.436
-.003
.437
-.026
.436
-.019
.436
-.018
.437
-.01
.436
-.019
.436
-.002
.437
-.002
.436
-.021
h.437
l.436
-.021
.436
-.027
h.437
l.436
-.014
.437
-.013
.436
-.023
.436
-.028
.437
-.032
.436
-.006
.436
-.017
.437
-.003
.436
-.01
.437
-.015
.436
-.05
.436
-.003
.437
-.025
.436
-.022
.437
-.009
.436
-.027
.436
-.026
.437
-.031
.436
-.042
.437
-.041
.436
-.029
.436
-.048
.437
-.008
.436
-.017
.436
-.011
.437
-.012
.436
-.003
.437
-.001
.436
-.004
.436
-.016
.437
-.015
.436
-.008
.437
-.014
.436
-.028
.436
-.011
.437
-.039
.436
-.013
.436
-.013
.437
-.013
.436
-.02
.437
-.008
.436
-.012
.436
-.042
.437
-.013
.436
-.024
.437
-.026
.436
-.003
.436
-.012
.437
-.022
.436
-.022
.436
-.004
.437
-.04
.436
-.022
.437
-.011
.436
-.014
.436
-.041
.437
-.016
.436
-.023
.437
-.014
.436
-.012
.436
-.042
.437
-.002
h.436
l.436
-.034
.437
-.058
.436
-.029
.437
-.004
.436
-.003
.436
-.001
.437
-.014
.436
-.012
.437
-.017
.436
-.047
.436
-.032
.437
-.024
.436
-.013
.437
-.052
.436
-.044
.436
-.009
.437
-.028
.436
-.01
.436
-.017
.437
-.004
.436
-.021
.437
-.016
.436
-.025
.436
-.033
.437
-.099
.436
-.044
.437
-.035
.436
-.065
.436
-.054
.437
-.025
.436
-.075
.436
-.006
.437
-.04
.436
-.015
.437
-.04
.436
-.014
.436
-.045
.437
-.021
.436
-.029
.437
-.04
.436
-.032
.436
-.045
.437
-.052
.436
-.014
.436
-.011
.437
-.059
.436
-.032
.437
-.034
.436
-.042
.436
-.03
.437
-.031
.436
-.024
.437
-.052
.436
-.021
.436
-.028
.437
-.051
.436
-.039
.436
-.07
.437
-.043
.436
-.013
.437
-.025
.436
-.02
.436
-.01
.437
-.078
.436
-.03
.437
-.028
.436
-.026
.436
-.055
.437
-.02
.436
-.011
.437
-.014
.436
-.006
.436
-.045
.437
-.025
.436
-.028
.436
-.006
.437
-.008
.436
-.009
.437
-.055
.436
-.036
.436
-.047
.437
-.047
.436
-.103
.437
-.099
.436
-.094
.436
-.065
.437
-.09
.436
-.107
.436
-.039
.437
-.102
.436
-.074
.437
-.053
L770
60" aria-label="line"/>
</svg>
