<svg xmlns="http://www.w3.org/2000/svg" width="830" height="470" fill="currentColor" class="plot-d6a7b5" font-family="system-ui, sans-serif" font-size="10" style="--plot-background:white;display:block;height:intrinsic;max-width:100%;color:#1e90ff" text-anchor="middle" viewBox="0 0 830 470">
    <style>
        :where(.plot-d6a7b5 text),:where(.plot-d6a7b5 tspan){white-space:pre}
    </style>
    <path stroke="currentColor" stroke-opacity=".1" d="
M60
410
h710
M60
378.557
h710
M60
347.114
h710
M60
315.671
h710
M60
284.227
h710
M60
252.784
h710
M60
221.341
h710
M60
189.898
h710
M60
158.455
h710
M60
127.012
h710
M60
95.568
h710
M60
64.125
h710" aria-hidden="true" aria-label="y-grid"/>
    <path fill="none" stroke="currentColor" d="
M60
410
h-6
m6
-31.443
h-6
m6
-31.443
h-6
m6
-31.444
h-6
m6
-31.443
h-6
m6
-31.443
h-6
m6
-31.443
h-6
m6
-31.443
h-6
m6
-31.443
h-6
m6
-31.443
h-6
m6
-31.444
h-6
m6
-31.443
h-6" aria-hidden="true" aria-label="y-axis tick"/>
    <g aria-label="y-axis tick label" font-variant="tabular-nums" text-anchor="end">
        <text y=".32em" transform="translate(51 410)">0</text>
        <text y=".32em" transform="translate(51 378.557)">5,000</text>
        <text y=".32em" transform="translate(51 347.114)">10,000</text>
        <text y=".32em" transform="translate(51 315.67)">15,000</text>
        <text y=".32em" transform="translate(51 284.227)">20,000</text>
        <text y=".32em" transform="translate(51 252.784)">25,000</text>
        <text y=".32em" transform="translate(51 221.341)">30,000</text>
        <text y=".32em" transform="translate(51 189.898)">35,000</text>
        <text y=".32em" transform="translate(51 158.455)">40,000</text>
        <text y=".32em" transform="translate(51 127.012)">45,000</text>
        <text y=".32em" transform="translate(51 95.568)">50,000</text>
        <text y=".32em" transform="translate(51 64.125)">55,000</text>
    </g>
    <text y=".71em" aria-label="y-axis label" text-anchor="start" transform="translate(3 3)">↑ Visible Vestiges (30 days)</text>
    <path fill="none" stroke="currentColor" d="
M83.331
410
v6
m62.445
-6
v6
m63.132
-6
v6
m63.132
-6
v6
m62.445
-6
v6
m62.445
-6
v6
m63.131
-6
v6
m63.132
-6
v6
m61.759
-6
v6
m62.445
-6
v6
m63.131
-6
v6" aria-hidden="true" aria-label="x-axis tick"/>
    <g aria-label="x-axis tick label" font-variant="tabular-nums">
        <text transform="translate(83.331 419)"><tspan x="0" y=".71em">Apr</tspan><tspan x="0" dy="1em">2023</tspan></text>
        <text y=".71em" transform="translate(145.776 419)">Jul</text>
        <text y=".71em" transform="translate(208.908 419)">Oct</text>
        <text transform="translate(272.04 419)"><tspan x="0" y=".71em">Jan</tspan><tspan x="0" dy="1em">2024</tspan></text>
        <text y=".71em" transform="translate(334.485 419)">Apr</text>
        <text y=".71em" transform="translate(396.93 419)">Jul</text>
        <text y=".71em" transform="translate(460.061 419)">Oct</text>
        <text transform="translate(523.193 419)"><tspan x="0" y=".71em">Jan</tspan><tspan x="0" dy="1em">2025</tspan></text>
        <text y=".71em" transform="translate(584.952 419)">Apr</text>
        <text y=".71em" transform="translate(647.397 419)">Jul</text>
        <text y=".71em" transform="translate(710.528 419)">Oct</text>
    </g>
    <path fill="none" stroke="currentColor" stroke-linecap="round" stroke-linejoin="round" stroke-width="1.5" d="
m60
410
.457
-3.157
.458
-11.546
.457
-6.226
.458
-4.414
.457
-7.282
.458
-5.736
.457
-5.376
.458
-10.88
.457
-8.609
.458
-10.219
.457
-15.828
.458
-14.923
.457
-7.748
.458
-11.213
.457
-7.615
.458
-8.729
.457
-11.414
.458
-7.684
.457
-7.534
.457
-10.225
.458
-11.339
.457
-8.03
.458
-13.703
.457
-6.49
.458
-6.056
.457
-10.923
.458
-10.458
.457
-8.05
.458
-11.219
.457
-8.03
.458
1.358
.457
-9.565
.458
-8.112
.457
.025
.458
-1.824
.457
-.314
.458
6.282
.457
.082
.457
1.88
.458
10.012
.457
1.471
.458
-6.314
.457
-1.389
.458
-7.654
.457
-1.622
.458
2.597
.457
-4.327
.458
-2.515
.457
2.949
.458
-1.767
.457
-4.641
.458
1.881
.457
-10.458
.458
-10.037
.457
2.553
.458
-1.962
.457
-3.157
.458
1.176
.457
-3.031
.457
-3.169
.458
4.188
.457
-1.421
.458
-6.113
.457
-3.956
.458
-9.797
.457
-4.931
.458
-.069
.457
-3.653
.458
-4
.457
6.113
.458
4.603
.457
2.396
.458
5.754
.457
-2.132
.458
-3.553
.457
4.962
.458
.264
.457
-.365
.457
8.081
.458
4.893
.457
4.081
.458
8.728
.457
5.453
.458
-2.447
.457
3.975
.458
-.491
.457
1.83
.458
8.855
.457
1.037
.458
3.088
.457
9.339
.458
5.653
.457
4.075
.458
7.741
.457
-1.113
.458
-.66
.457
4.019
.457
2.886
.458
1.189
.457
3.571
.458
.548
.457
4.012
.458
6.892
.457
3.295
.458
-3.238
.457
1.716
.458
-2.735
.457
-1.968
.458
1.282
.457
-1.672
.458
1.779
.457
4.509
.458
2.629
.457
2.044
.458
3.962
.457
.018
.457
-2.075
.458
6.157
.457
2.056
.458
-1.031
.457
2.402
.458
-.044
.457
2.05
.458
5.503
.457
.78
.458
-3.044
.457
-1.107
.458
-4.308
.457
-.371
.458
2.484
.457
-1.905
.458
-1.176
.457
4.32
.458
.862
.457
.666
.457
2.597
.458
-4.301
.457
-1.817
.458
2.144
.457
-.987
.458
-1.975
.457
1.912
.458
.258
.457
-.39
.458
3.402
.457
1.075
.458
.422
.457
1.062
.458
-1.962
.457
-.176
.458
1.761
.457
-1.968
.458
-.34
.457
3.415
.458
5.54
.457
1.585
.457
4.396
.458
-.069
.457
.314
.458
2.025
.457
.176
.458
-.786
.457
3.918
.458
-.239
.457
1.421
.458
6.276
.457
1.723
.458
1.006
.457
2.899
.458
.327
.457
.34
.458
.025
.457
1.327
.458
-.994
.457
2.925
.457
-.566
.458
.251
.457
1.478
.458
-1.792
.457
-.044
.458
1.314
.457
-1.509
.458
-1.302
.457
-.107
.458
-2.654
.457
-1.339
.458
2.063
.457
.05
.458
-.686
.457
2.943
.458
-.924
.457
1.333
.458
2.679
.457
.327
.457
-.604
.458
2.145
.457
-.767
.458
-.623
.457
3.119
.458
-.603
.457
.239
.458
2.169
.457
-1.308
.458
-1.075
.457
1.176
.458
-1.365
.457
.836
.458
1.277
.457
-1.107
.458
.334
.457
1.867
.458
.491
.457
-1.321
.457
3.704
.458
2.333
.457
-1.094
.458
2.729
.457
-.924
.458
-.73
.457
1.516
.458
-2.038
.457
.013
.458
.019
.457
-2.377
.458
-1.585
.457
3.478
.458
-3.025
.457
-1.352
.458
1.195
.457
-1.585
.458
-.415
.457
1.679
.457
-1.73
.458
-1.201
.457
1.044
.458
-2.798
.457
-.22
.458
1.39
.457
-.629
.458
-2.201
.457
-1.61
.458
-4.107
.457
-1.32
h.458
l.457
-1.503
.458
-1.434
.457
2.993
.458
-1.855
.457
-.547
.458
2.365
.457
-1.327
.458
.295
.457
3.855
.457
-.604
.458
-2.647
.457
3.459
.458
-.195
.457
-2.415
.458
.918
.457
-3.119
.458
-.365
.457
.66
.458
-1.93
.457
-.736
.458
2.333
.457
-.685
.458
-.239
.457
2.817
.458
1.786
.457
3.308
.458
6.42
.457
1.164
.457
-.516
.458
1.698
.457
.352
.458
-1.327
.457
1.717
.458
.484
.457
-1.113
.458
2.082
.457
.874
.458
-.843
.457
1.252
.458
-.252
.457
.113
.458
1.233
.457
2.547
.458
2.723
.457
4.062
.458
1.503
.457
2.969
.457
5.056
.458
-1.12
.457
.686
.458
2.157
.457
-.724
.458
1.132
.457
1.925
.458
.773
.457
1.874
.458
1.453
.457
1.396
.458
.358
.457
.12
.458
-2.723
.457
-2.314
.458
1.345
.457
.019
.458
.793
.457
.742
.457
.264
.458
1.144
.457
3.082
.458
-.566
.457
-.704
.458
1.012
.457
-1.893
.458
1.195
.457
1.415
.458
-1.207
.457
-.403
.458
4.107
.457
-.158
.458
.396
.457
1.994
.458
-3.32
.457
-.9
.458
1.013
.457
-1.717
.457
.843
.458
1.257
.457
1.107
.458
1.415
.457
3.874
.458
1.339
.457
-2.207
.458
-.949
.457
-2.73
.458
-.32
.457
1.352
.458
.056
.457
-.126
.458
1.39
.457
.598
.458
.792
.457
2.522
.458
-4.201
.457
-3.214
.458
.082
.457
-.251
.457
.44
.458
3.037
.457
-.264
.458
1.39
.457
2.968
.458
-1.421
.457
-3.993
.458
-.359
.457
-3.232
.458
-.51
.457
.541
.458
-1.798
.457
.666
.458
2.151
.457
1.119
.458
.824
.457
2.887
.458
-.956
.457
-.082
.457
1.956
.458
-1.283
.457
.572
.458
3.132
.457
.465
.458
.189
.457
2.069
.458
.138
.457
-2.226
.458
-.113
.457
-1.151
.458
-.094
.457
1.182
.458
-.975
.457
.824
.458
3.603
.457
2.396
.458
2.359
.457
3.138
.457
-.233
.458
-.138
.457
3.282
.458
.554
.457
1.723
.458
2.54
.457
2.069
.458
1.22
.457
4.019
.458
-1.27
.457
-2.415
.458
.239
.457
-1.315
.458
-1.509
.457
.799
.458
-.484
.457
2.873
.458
2.899
.457
1.535
.457
.365
.458
.754
.457
-2.452
.458
.075
.457
.78
.458
-1.61
.457
-.824
.458
.415
.457
-2.836
.458
.227
.457
.729
.458
.214
.457
-1.409
.458
-.547
.457
-2.245
.458
-.019
.457
1.61
.458
-1.283
.457
-1.408
.457
2.584
.458
2.063
.457
2.094
.458
2.603
.457
.434
.458
-.629
.457
1.931
.458
-1.415
.457
-.346
.458
2.968
.457
1.491
.458
1.503
.457
2.893
.458
-.145
.457
-.264
.458
1.27
.457
.749
.458
1.1
.457
2.163
.458
.698
.457
1.183
.457
1
.458
.1
.457
1.346
.458
1.239
.457
-2.151
.458
-2.151
.457
1.491
.458
-.076
.457
-1.553
.458
-.346
.457
-1.327
.458
-.949
.457
-.195
.458
-1.006
.457
-1.359
.458
.843
.457
-.088
.458
-1.503
.457
-.591
.457
-2.579
.458
-.698
.457
1.541
.458
-.585
.457
1.113
.458
-.081
.457
-1.547
.458
1.025
.457
.018
.458
-1.251
.457
.258
.458
1.585
.457
.27
.458
1.245
.457
1.811
.458
.032
.457
-1.422
.458
-1.106
.457
-1.019
.457
.767
.458
1.22
.457
.396
.458
-.195
.457
-.025
.458
.069
.457
.68
.458
.125
.457
-1.05
.458
-2.912
.457
.755
.458
-1.742
.457
-.503
.458
1.836
.457
-1.597
.458
1.176
.457
2.094
.458
-2.779
.457
-2.925
.457
-.899
.458
-3.622
.457
-1.157
.458
-.686
.457
-1.723
.458
-.471
.457
.918
.458
-.837
.457
1.522
.458
.654
.457
-3.886
.458
-1.686
.457
-.591
.458
-1.132
.457
.78
.458
.635
.457
-2.616
.458
-.415
.457
-.176
.457
1.49
.458
-1.326
.457
-2.139
.458
-4.509
.457
-1.534
.458
-.912
.457
-4.471
.458
-2.006
.457
1.924
.458
1.554
.457
.704
.458
2.22
.457
-2.151
.458
-1.956
.457
1.233
.458
-.994
.457
-.868
.458
.082
.457
-1.503
.458
1.704
.457
2.585
.457
-.924
.458
-1.705
.457
1.365
.458
-1.855
.457
-.233
.458
1.541
.457
.226
.458
1.893
.457
1.403
.458
1.194
.457
3.541
.458
4.075
.457
-1.579
.458
.956
.457
3.214
.458
1.629
.457
.786
.458
.93
.457
.541
.457
1.591
.458
3.145
.457
.188
.458
-.855
.457
1.968
.458
-.591
.457
1.164
.458
2.735
.457
-.075
.458
.213
.457
2.736
.458
1.459
.457
-.415
.458
1.446
.457
-2.861
.458
-.547
.457
1.163
.458
1.881
.457
2.679
.457
3.597
.458
2.848
.457
2.862
.458
5.326
.457
2.943
.458
2.283
.457
2.088
.458
2.018
.457
2.516
.458
2.107
.457
1.245
.458
1.528
.457
3.358
.458
1.409
.457
-1.239
.458
1.811
.457
.736
.458
-.692
.457
.629
.457
1.182
.458
-.195
.457
.956
.458
.811
.457
.541
.458
2.748
.457
.566
h.458
l.457
-1.39
.458
-2.572
.457
-2.786
.458
-1.188
.457
-1.786
.458
-2.654
.457
-1.465
.458
-1.314
.457
-2.164
.458
-1.761
.457
-2.421
.457
-1.76
.458
-.994
.457
-1.597
.458
-.849
.457
-.415
.458
2.113
.457
.748
.458
1.207
.457
.296
.458
.113
.457
-.075
.458
-.397
.457
.441
.458
1.547
.457
.239
.458
.54
.457
1.283
.458
.459
.457
-.849
.458
.787
.457
.251
.457
-.528
.458
.484
.457
.648
.458
-.761
.457
-.786
.458
.824
.457
-.239
.458
.943
.457
.038
.458
-1.862
.457
-.333
.458
-1.302
h.457
l.458
-.339
.457
-.642
.458
-1.232
.457
-.195
.458
-.711
.457
-.579
.457
1.321
.458
-1.138
.457
-1.459
.458
.465
.457
-1.151
.458
.007
.457
.503
.458
1.547
.457
.289
.458
.604
.457
-.378
.458
-3.131
.457
-.157
.458
-1.101
.457
.786
.458
.006
.457
.22
.458
-1.018
.457
1.32
.457
1.17
.458
.145
.457
1.069
.458
-1.422
.457
-2.364
.458
.101
.457
-1.296
.458
.208
.457
.283
.458
-1.101
.457
-1.094
.458
1.144
.457
-.383
.458
-1.113
.457
1.39
.458
-2.246
.457
-.433
.458
-.73
.457
-1.119
.457
-.799
.458
.252
.457
1.371
.458
-.208
.457
.855
.458
-2.132
.457
-2.163
.458
-.761
.457
.271
.458
-2.447
.457
.032
.458
.182
.457
.164
.458
.446
.457
1.572
.458
-.452
.457
1.119
.458
-.862
.457
-.622
.457
2.981
.458
1.521
.457
-.037
.458
1.553
.457
-.352
.458
-.352
.457
2.572
.458
-.145
.457
-2.408
.458
1.213
.457
.61
.458
-1.025
.457
.925
.458
.999
.457
.642
.458
2.553
.457
2.107
.458
.836
.457
.661
.458
-.051
.457
-.371
.457
.466
.458
-1.126
.457
.522
.458
.126
.457
.836
.458
.635
.457
1.195
.458
.623
.457
-1.529
.458
.233
.457
.535
h.458
l.457
2.226
.458
.434
.457
-.529
.458
-.232
.457
1.855
.458
.126
.457
.742
.457
.629
.458
.176
.457
.163
.458
-.371
.457
-.918
.458
-.05
.457
-.145
.458
-.163
.457
1.238
.458
-.622
.457
-2.522
.458
.434
.457
-.585
.458
.308
.457
-.188
.458
-.874
.457
-.529
.458
.73
.457
.666
.457
-.729
.458
-.541
.457
-.56
.458
-1.521
.457
-.422
.458
-1.364
.457
-.981
.458
-.881
.457
-1.987
.458
-1.534
.457
-1.107
.458
-1.623
.457
-.566
.458
-.132
.457
-2.239
.458
-.603
.457
-.063
.458
-.748
.457
.27
.457
2.044
.458
-1.673
.457
-2.453
.458
-2.257
.457
-3.497
.458
-2.515
.457
-.598
.458
-3.112
.457
-3.755
.458
-1.459
.457
-1.22
.458
-1.66
.457
-1.239
.458
-.748
.457
-1.975
.458
.692
.457
1.534
.458
.239
.457
1.591
.457
1.114
.458
.974
.457
1.359
.458
-.818
.457
-.792
.458
1.144
.457
-.195
.458
-.434
.457
.629
.458
.019
.457
-.339
.458
4.842
.457
3.899
.458
3.572
.457
3.685
.458
3.163
.457
1.22
.458
3.597
.457
3.629
.458
1.823
.457
1.327
.457
2.264
.458
.899
.457
1.95
.458
2.176
.457
1.22
.458
-.529
.457
.761
.458
-.289
.457
.283
.458
.522
.457
.874
.458
1.063
.457
2.151
.458
1.911
.457
1.051
.458
1.314
.457
.151
.458
.277
.457
-.095
.457
-.44
.458
-.566
.457
-.057
.458
-.232
.457
-.057
.458
-.289
.457
-1.679
.458
-1.327
.457
-2.616
.458
-.05
.457
-.598
.458
.39
.457
.484
.458
-.207
.457
-.635
.458
.075
.457
-.503
.458
-2.905
.457
-.629
.457
.465
.458
-1.641
.457
-.233
.458
.05
.457
-.742
.458
-.283
.457
-.163
.458
-.302
.457
-1.006
.458
-1.176
.457
-2.264
.458
.283
.457
.251
.458
.139
.457
-.346
.458
1.302
.457
1.886
.458
1.239
.457
3.138
.457
.201
.458
.592
.457
1.025
h.458
l.457
1.358
.458
.88
.457
.315
.458
1.264
.457
3.779
.458
-.176
.457
-.434
.458
1.371
.457
-.629
.458
.29
.457
1.113
.458
.069
.457
.371
.458
1.333
.457
1.384
.457
1.786
.458
2.723
.457
-.919
.458
-.195
.457
1.277
.458
.962
h.457
l.458
-.232
.457
.333
.458
-1.113
.457
.49
.458
-.742
.457
-1.924
.458
-.893
.457
-2.453
.458
-1.062
.457
.339
.458
.12
.457
-.233
.458
.736
.457
.603
.457
.598
.458
.566
.457
-1.164
.458
-1.119
.457
.547
.458
-.912
.457
.252
.458
.358
.457
-1.018
.458
-.195
.457
1.15
.458
.095
.457
-1.195
.458
-.943
.457
-.793
.458
.315
.457
-.126
.458
.283
.457
-.421
.457
.742
.458
1.106
.457
.887
.458
1.748
.457
.032
.458
-.786
.457
.503
.458
.1
.457
.158
.458
.295
.457
-.239
.458
.855
.457
1.315
.458
.754
.457
.428
.458
1.528
.457
-.119
.458
-.29
.457
1.208
.457
.471
.458
-.138
.457
-.742
.458
.352
.457
-.371
.458
.937
.457
-.094
.458
.534
.457
.459
.458
.271
.457
.736
.458
.981
.457
-.176
.458
.345
.457
1.202
.458
.327
.457
-1.013
.458
.271
.457
-.359
.457
-.05
.458
-.503
.457
-.334
.458
-.106
.457
.471
.458
-.71
.457
-.749
.458
-.365
.457
-.999
.458
-.032
.457
-.924
h.458
l.457
1.031
.458
.522
.457
.893
.458
-.025
.457
.075
.458
-.245
.457
-.566
.457
-.277
.458
-2.402
.457
-1.302
.458
-.276
.457
-.918
.458
-.478
.457
.496
.458
-.547
.457
-1.528
.458
.472
.457
-1.308
.458
.421
.457
.509
.458
-.93
.457
-.29
.458
.158
.457
.264
.458
-.516
.457
1.145
.458
-.591
.457
.427
.457
-.082
.458
.063
.457
-.302
.458
.026
.457
-.371
.458
-.654
.457
-.126
.458
-.403
.457
.145
.458
1.66
.457
.459
.458
.088
.457
.283
.458
-.371
.457
.088
.458
1.648
.457
.868
.458
-.076
.457
1.032
.457
-.246
.458
-1.012
.457
-1.044
.458
-2.239
.457
-1.195
.458
-.471
.457
.314
.458
-.044
.457
-.012
.458
-.592
.457
.283
.458
.095
.457
-1.227
.458
-1.05
.457
.113
.458
-.138
.457
-.277
.458
.755
.457
-.201
.457
-.648
.458
-.685
.457
.094
.458
.22
.457
.855
.458
.038
.457
-.34
.458
1.164
.457
-.793
.458
.315
.457
.094
.458
-.113
.457
1
.458
1.025
.457
.22
.458
-.214
.457
-.05
.458
-1.365
h.457
l.457
.453
.458
-1.063
.457
-.471
.458
.735
.457
-.182
.458
-.075
.457
.584
.458
-.44
.457
.088
.458
-.912
.457
.692
.458
.132
.457
-.377
.458
.327
.457
-.05
.458
-.202
.457
-1.798
.458
-2.34
.457
.365
.457
-1.509
.458
-.038
.457
.113
.458
-1.188
.457
.157
.458
.333
.457
-.346
.458
.239
.457
.919
.458
-.177
.457
-.295
.458
.748
.457
-.289
.458
.314
.457
.705
.458
-1.189
.457
-.522
.458
.862
.457
.27
.458
1.138
.457
.088
.457
1.063
.458
1.12
.457
.358
.458
-.295
.457
.773
.458
2.05
.457
1.535
.458
.578
.457
1.371
.458
-.163
.457
.968
.458
1.365
.457
1.207
.458
-.069
.457
1.006
.458
-.321
.457
.95
.458
.704
.457
-.465
.457
.346
.458
.408
.457
.724
.458
.673
.457
.811
.458
.824
.457
.195
.458
.729
.457
.352
.458
.837
.457
.314
.458
.195
.457
-.56
.458
-.063
.457
-.66
.458
.428
.457
.478
.458
.603
.457
.673
.457
1.484
.458
-.32
.457
.553
.458
-.101
.457
1.497
.458
.069
.457
.843
.458
-.585
.457
.409
.458
1.522
.457
.591
.458
.163
.457
-.49
.458
.094
.457
.811
.458
.258
.457
.378
.458
-.139
.457
.679
.457
.158
.458
.377
.457
-.182
.458
1.27
.457
1.044
.458
1.207
.457
.12
.458
.603
.457
.478
.458
.202
.457
.094
.458
1.107
.457
.553
.458
.39
.457
.157
.458
.403
.457
.704
.458
.692
.457
-.101
.457
.044
.458
.208
.457
.125
.458
.73
.457
.516
.458
.32
.457
.176
.458
.038
.457
.315
.458
.132
.457
.05
.458
.27
.457
.453
.458
-.352
.457
-.019
.458
-.182
.457
-.271
.458
-.566
.457
-.32
.458
-.258
.457
-.378
.457
-.05
.458
-.176
.457
-.088
.458
-.113
.457
-.554
.458
-.805
.457
-.037
.458
-.365
.457
.189
.458
.006
.457
.717
.458
-.302
.457
-.824
.458
.113
.457
-.44
.458
-.22
.457
-.233
.458
-.239
.457
-.025
.457
-.201
.458
-.151
.457
-.201
.458
-.189
.457
-.409
.458
.007
.457
.61
.458
-.258
.457
.088
.458
.258
.457
.138
.458
.195
.457
.403
.458
-.07
.457
.365
.458
.629
.457
.094
.458
.579
.457
.107
.457
.056
.458
-.012
.457
.44
.458
.572
.457
-.037
.458
.578
.457
-.182
.458
-.202
.457
-.012
.458
-.302
.457
-.34
.458
-.194
.457
.377
.458
.088
.457
.113
.458
.113
.457
-.17
.458
.214
.457
-.503
.457
.113
.458
-.125
.457
-.132
.458
-.548
.457
.07
.458
-.365
.457
-.403
.458
.063
.457
-.981
.458
-.541
.457
-.069
.458
-.509
h.457
l.458
-.006
.457
.239
.458
-.038
.457
.641
.458
.365
.457
-.057
.457
.151
.458
.107
.457
.057
.458
-.78
.457
.126
.458
.163
.457
.315
.458
-.245
.457
.031
.458
-.006
.457
-.051
.458
-.251
.457
-.252
.458
.239
.457
.145
.458
.283
.457
.094
.458
.315
.457
.83
.458
.314
.457
-.339
.457
.32
.458
-.195
.457
.239
.458
-.717
.457
-.515
.458
-.264
.457
-.12
.458
-.478
.457
-.063
.458
.271
.457
.421
.458
.761
.457
.157
.458
-.251
.457
-.214
.458
.402
.457
.346
.458
.308
.457
.132
.457
-.113
.458
.277
.457
.327
.458
.119
.457
.636
.458
.371
.457
-.038
.458
.182
.457
.076
.458
.484
.457
.283
.458
.239
.457
.138
.458
.415
.457
.164
.458
.396
.457
-.164
.458
-.031
.457
-.937
.457
-.673
.458
-.075
.457
.037
.458
-.157
.457
.447
.458
.157
.457
-.239
.458
-.478
.457
-.189
.458
-.308
.457
.277
.458
.402
.457
-.012
.458
-.698
.457
-.315
.458
-.138
.457
-.277
.458
-.157
.457
-.245
.457
-.29
.458
-.679
.457
.145
.458
.101
.457
.125
.458
.434
.457
.082
.458
-.371
.457
.654
.458
.711
.457
.301
.458
.277
.457
.271
.458
.345
.457
.195
.458
.076
.457
.239
.458
.591
.457
.302
.457
.144
.458
.007
.457
-.069
.458
.289
.457
.748
.458
.308
.457
.246
.458
.352
.457
.025
.458
.138
.457
-.698
.458
-.346
.457
-.635
.458
-.126
.457
.221
.458
-.145
.457
-.434
.458
.553
.457
-.125
.458
-.353
.457
-.062
.457
-.447
.458
-.748
.457
-.321
.458
-.138
.457
-.189
.458
-.013
.457
-.496
.458
-.139
.457
-.025
.458
.132
.457
-.534
.458
-.547
.457
-.774
.458
-.22
.457
.006
.458
-.038
.457
.101
.458
.176
.457
.969
.457
1.119
.458
.491
.457
.144
.458
-.314
.457
.1
.458
-.107
.457
.202
.458
.201
.457
.761
.458
.61
.457
-.019
.458
.365
.457
-.145
.458
-.063
.457
.239
h.458
l.457
.289
.458
.202
.457
.188
.457
-.125
.458
.144
.457
.063
.458
.774
.457
-.088
.458
-.214
.457
-.157
.458
.075
.457
.075
.458
.164
.457
.057
.458
-.095
.457
.032
.458
.044
.457
.012
.458
.56
.457
-.069
.458
.031
.457
-.05
.457
-.151
.458
.057
.457
.339
.458
.327
.457
.264
.458
-.012
.457
.006
.458
-.358
.457
.377
.458
-.233
.457
-.056
.458
.383
.457
.17
.458
-.277
.457
-.069
.458
-.283
.457
-.302
.458
-.226
.457
-.371
.457
-.082
.458
-.189
.457
.12
.458
-.145
.457
.227
.458
.327
.457
-.044
.458
-.032
.457
-.019
.458
.189
.457
.17
.458
.056
.457
-.062
.458
-.283
.457
-.12
.458
-.044
.457
.038
.458
.364
.457
-.062
.458
.169
.457
-.257
.457
-.057
.458
.05
.457
-.006
.458
.365
.457
.364
.458
.252
.457
.075
.458
.566
.457
-.402
.458
-.069
.457
.012
.458
-.031
.457
-.478
.458
-.195
.457
-.239
.458
.019
.457
.031
.458
-.427
.457
.17
.457
.352
.458
-.302
.457
-.239
.458
-.208
.457
.12
.458
.126
.457
.239
.458
-.076
h.457
l.458
.327
.457
-.434
.458
-.1
.457
.025
.458
-.139
.457
-.503
.458
-.283
.457
.176
.458
-.308
.457
.378" aria-label="line"/>
</svg>
