<svg class="plot-d6a7b5" fill="currentColor" font-family="system-ui, sans-serif" font-size="10" text-anchor="middle" width="830" height="470" viewBox="0 0 830 470" xmlns="http://www.w3.org/2000/svg" xmlns:xlink="http://www.w3.org/1999/xlink" color="#1e90ff"><style>:where(.plot-d6a7b5){--plot-background: white;display:block;height:intrinsic;max-width:100%}:where(.plot-d6a7b5 text),:where(.plot-d6a7b5 tspan){white-space:pre}</style><g aria-label="y-grid" stroke="currentColor" stroke-opacity=".1"><line x1="60" x2="770" y1="410" y2="410"/><line x1="60" x2="770" y1="379.696" y2="379.696"/><line x1="60" x2="770" y1="349.392" y2="349.392"/><line x1="60" x2="770" y1="319.088" y2="319.088"/><line x1="60" x2="770" y1="288.785" y2="288.785"/><line x1="60" x2="770" y1="258.481" y2="258.481"/><line x1="60" x2="770" y1="228.177" y2="228.177"/><line x1="60" x2="770" y1="197.873" y2="197.873"/><line x1="60" x2="770" y1="167.569" y2="167.569"/><line x1="60" x2="770" y1="137.265" y2="137.265"/><line x1="60" x2="770" y1="106.961" y2="106.961"/><line x1="60" x2="770" y1="76.657" y2="76.657"/></g><g aria-label="y-axis tick" fill="none" stroke="currentColor"><path transform="translate(60,410)" d="M0,0L-6,0"/><path transform="translate(60,379.6961301092325)" d="M0,0L-6,0"/><path transform="translate(60,349.3922602184649)" d="M0,0L-6,0"/><path transform="translate(60,319.08839032769737)" d="M0,0L-6,0"/><path transform="translate(60,288.7845204369299)" d="M0,0L-6,0"/><path transform="translate(60,258.48065054616234)" d="M0,0L-6,0"/><path transform="translate(60,228.17678065539477)" d="M0,0L-6,0"/><path transform="translate(60,197.87291076462722)" d="M0,0L-6,0"/><path transform="translate(60,167.5690408738597)" d="M0,0L-6,0"/><path transform="translate(60,137.2651709830922)" d="M0,0L-6,0"/><path transform="translate(60,106.96130109232462)" d="M0,0L-6,0"/><path transform="translate(60,76.65743120155709)" d="M0,0L-6,0"/></g><g aria-label="y-axis tick label" text-anchor="end" font-variant="tabular-nums"><text y=".32em" transform="translate(-9,0) translate(60,410)">0</text><text y=".32em" transform="translate(-9,0) translate(60,379.6961301092325)">50,000</text><text y=".32em" transform="translate(-9,0) translate(60,349.3922602184649)">100,000</text><text y=".32em" transform="translate(-9,0) translate(60,319.08839032769737)">150,000</text><text y=".32em" transform="translate(-9,0) translate(60,288.7845204369299)">200,000</text><text y=".32em" transform="translate(-9,0) translate(60,258.48065054616234)">250,000</text><text y=".32em" transform="translate(-9,0) translate(60,228.17678065539477)">300,000</text><text y=".32em" transform="translate(-9,0) translate(60,197.87291076462722)">350,000</text><text y=".32em" transform="translate(-9,0) translate(60,167.5690408738597)">400,000</text><text y=".32em" transform="translate(-9,0) translate(60,137.2651709830922)">450,000</text><text y=".32em" transform="translate(-9,0) translate(60,106.96130109232462)">500,000</text><text y=".32em" transform="translate(-9,0) translate(60,76.65743120155709)">550,000</text></g><g aria-label="y-axis label" text-anchor="start"><text y=".71em" transform="translate(-57,-57) translate(60,60)">↑ Total Vestiges</text></g><g aria-label="x-axis tick" fill="none" stroke="currentColor"><path transform="translate(105.77749683944374,410)" d="M0,0L0,6"/><path transform="translate(228.29962073324907,410)" d="M0,0L0,6"/><path transform="translate(352.16814159292034,410)" d="M0,0L0,6"/><path transform="translate(476.0366624525917,410)" d="M0,0L0,6"/><path transform="translate(598.558786346397,410)" d="M0,0L0,6"/><path transform="translate(721.0809102402022,410)" d="M0,0L0,6"/></g><g aria-label="x-axis tick label" font-variant="tabular-nums"><text transform="translate(0,9) translate(105.77749683944374,410)"><tspan x="0" y=".71em">Apr</tspan><tspan x="0" dy="1em">2023</tspan></text><text y=".71em" transform="translate(0,9) translate(228.29962073324907,410)">Jul</text><text y=".71em" transform="translate(0,9) translate(352.16814159292034,410)">Oct</text><text transform="translate(0,9) translate(476.0366624525917,410)"><tspan x="0" y=".71em">Jan</tspan><tspan x="0" dy="1em">2024</tspan></text><text y=".71em" transform="translate(0,9) translate(598.558786346397,410)">Apr</text><text y=".71em" transform="translate(0,9) translate(721.0809102402022,410)">Jul</text></g><g aria-label="line" fill="none" stroke="currentColor" stroke-width="1.5" stroke-linejoin="round" stroke-linecap="round"><path d="M60,410L60.898,409.696L61.795,408.583L62.693,407.983L63.59,407.558L64.488,406.856L65.386,406.303L66.283,405.785L67.181,404.736L68.078,403.906L68.976,402.922L69.874,401.396L70.771,399.958L71.669,399.211L72.566,398.131L73.464,397.397L74.362,396.555L75.259,395.455L76.157,394.715L77.054,393.989L77.952,393.003L78.85,391.91L79.747,391.136L80.645,389.816L81.542,389.19L82.44,388.607L83.338,387.554L84.235,386.546L85.133,385.77L86.03,384.689L86.928,383.611L87.826,382.629L88.723,381.107L89.621,379.9L90.518,379.2L91.416,378.472L92.314,377.923L93.211,377.48L94.109,376.658L95.006,375.855L95.904,375.294L96.802,373.998L97.699,372.643L98.597,371.428L99.494,369.956L100.392,368.959L101.29,368.109L102.187,366.952L103.085,365.983L103.982,365.282L104.88,364.019L105.777,362.797L106.675,361.658L107.573,360.025L108.47,358.474L109.368,357.667L110.265,356.47L111.163,355.39L112.061,354.422L112.958,353.052L113.856,351.764L114.753,350.646L115.651,349.302L116.549,348.013L117.446,346.904L118.344,345.411L119.241,344.493L120.139,343.664L121.037,342.508L121.934,341.562L122.832,340.855L123.729,339.944L124.627,338.96L125.525,338.043L126.422,336.84L127.32,335.648L128.217,334.968L129.115,334.025L130.013,333.289L130.91,332.805L131.808,332.055L132.705,331.309L133.603,330.517L134.501,329.491L135.398,328.449L136.296,327.635L137.193,326.507L138.091,325.716L138.989,325.199L139.886,324.012L140.784,323.191L141.681,322.747L142.579,322.003L143.477,321.286L144.374,320.539L145.272,319.514L146.169,318.622L147.067,317.853L147.965,317.185L148.862,316.593L149.76,316.025L150.657,315.094L151.555,314.564L152.453,314.025L153.35,313.151L154.248,312.159L155.145,311.382L156.043,310.381L156.941,309.708L157.838,309.081L158.736,308.174L159.633,307.554L160.531,306.963L161.429,306.173L162.326,305.557L163.224,304.811L164.121,304.021L165.019,303.304L165.917,302.71L166.814,302.088L167.712,301.544L168.609,301.032L169.507,300.311L170.405,299.762L171.302,299.267L172.2,298.45L173.097,297.388L173.995,296.613L174.893,295.605L175.79,295.002L176.688,294.311L177.585,293.597L178.483,292.945L179.381,292.486L180.278,291.578L181.176,290.865L182.073,290.115L182.971,289.026L183.869,288.225L184.766,287.524L185.664,286.809L186.561,286.027L187.459,285.423L188.357,284.83L189.254,284.047L190.152,283.586L191.049,282.972L191.947,282.419L192.845,281.899L193.742,281.166L194.64,280.637L195.537,280.085L196.435,279.347L197.332,278.819L198.23,278.331L199.128,277.803L200.025,277.181L200.923,276.597L201.82,275.987L202.718,275.326L203.616,274.807L204.513,274.172L205.411,273.638L206.308,273.107L207.206,272.371L208.104,271.758L209.001,271.274L209.899,270.639L210.796,270.036L211.694,269.599L212.592,268.849L213.489,268.277L214.387,267.688L215.284,267.032L216.182,266.475L217.08,266.143L217.977,265.535L218.875,265.04L219.772,264.449L220.67,263.747L221.568,263.192L222.465,262.58L223.363,261.906L224.26,261.293L225.158,260.755L226.056,259.877L226.953,259.164L227.851,258.753L228.748,258.096L229.646,257.512L230.544,257.16L231.441,256.537L232.339,256.135L233.236,255.656L234.134,255.075L235.032,254.533L235.929,254.105L236.827,253.427L237.724,252.931L238.622,252.482L239.52,251.851L240.417,251.285L241.315,250.839L242.212,250.155L243.11,249.72L244.008,249.225L244.905,248.598L245.803,248.088L246.7,247.509L247.598,246.847L248.496,246.267L249.393,245.774L250.291,245.208L251.188,244.542L252.086,244.021L252.984,243.533L253.881,243.017L254.779,242.623L255.676,241.949L256.574,241.527L257.472,241.05L258.369,240.452L259.267,239.975L260.164,239.395L261.062,238.624L261.96,238.043L262.857,237.701L263.755,236.913L264.652,236.333L265.55,235.818L266.448,235.099L267.345,234.613L268.243,234.091L269.14,233.489L270.038,232.879L270.936,232.352L271.833,231.573L272.731,230.973L273.628,230.444L274.526,229.803L275.424,229.098L276.321,228.377L277.219,227.316L278.116,226.668L279.014,226.179L279.912,225.518L280.809,224.986L281.707,224.601L282.604,224L283.502,223.471L284.399,223.1L285.297,222.495L286.195,221.944L287.092,221.544L287.99,220.905L288.887,220.307L289.785,219.853L290.683,219.255L291.58,218.507L292.478,217.876L293.375,217.089L294.273,216.532L295.171,215.994L296.068,215.198L296.966,214.6L297.863,214.045L298.761,213.379L299.659,212.828L300.556,212.459L301.454,211.925L302.351,211.523L303.249,211.081L304.147,210.545L305.044,210.007L305.942,209.509L306.839,209.011L307.737,208.498L308.635,208.063L309.532,207.58L310.43,207.102L311.327,206.697L312.225,206.231L313.123,205.75L314.02,205.231L314.918,204.609L315.815,204.166L316.713,203.686L317.611,203.184L318.508,202.815L319.406,202.42L320.303,202.008L321.201,201.756L322.099,201.447L322.996,200.741L323.894,200.253L324.791,199.795L325.689,199.174L326.587,198.914L327.484,198.566L328.382,198.238L329.279,197.976L330.177,197.58L331.075,197.177L331.972,196.713L332.87,196.227L333.767,195.452L334.665,194.793L335.563,194.44L336.46,193.964L337.358,193.636L338.255,193.241L339.153,192.785L340.051,192.377L340.948,192.052L341.846,191.554L342.743,191.007L343.641,190.602L344.539,190.051L345.436,189.771L346.334,189.495L347.231,189.127L348.129,188.779L349.027,188.469L349.924,187.965L350.822,187.545L351.719,187.116L352.617,186.536L353.515,186.102L354.412,185.871L355.31,185.444L356.207,185.13L357.105,184.847L358.003,184.491L358.9,184.141L359.798,183.739L360.695,183.209L361.593,182.643L362.491,182.076L363.388,181.485L364.286,181.059L365.183,180.734L366.081,180.331L366.979,179.994L367.876,179.629L368.774,179.14L369.671,178.811L370.569,178.503L371.466,177.818L372.364,177.233L373.262,176.872L374.159,176.5L375.057,176.233L375.954,176.022L376.852,175.577L377.75,175.281L378.647,174.987L379.545,174.416L380.442,173.801L381.34,173.339L382.238,172.713L383.135,172.381L384.033,172.077L384.93,171.554L385.828,171.216L386.726,170.894L387.623,170.436L388.521,169.947L389.418,169.635L390.316,169.116L391.214,168.784L392.111,168.569L393.009,168.108L393.906,167.799L394.804,167.611L395.702,167.328L396.599,167.038L397.497,166.553L398.394,165.981L399.292,165.405L400.19,165.022L401.087,164.644L401.985,164.424L402.882,164.093L403.78,163.703L404.678,163.489L405.575,163.265L406.473,162.88L407.37,162.646L408.268,162.322L409.166,161.968L410.063,161.651L410.961,161.444L411.858,161.159L412.756,161.003L413.654,160.79L414.551,160.501L415.449,160.306L416.346,160.175L417.244,159.72L418.142,159.272L419.039,158.835L419.937,158.399L420.834,158.066L421.732,157.859L422.63,157.523L423.527,157.314L424.425,157.021L425.322,156.594L426.22,156.246L427.118,155.941L428.015,155.484L428.913,155.16L429.81,154.846L430.708,154.477L431.606,154.173L432.503,153.829L433.401,153.321L434.298,153.019L435.196,152.735L436.094,152.438L436.991,152.096L437.889,151.758L438.786,151.386L439.684,151.171L440.582,151.037L441.479,150.718L442.377,150.452L443.274,150.246L444.172,149.997L445.07,149.761L445.967,149.576L446.865,149.285L447.762,149.018L448.66,148.867L449.558,148.522L450.455,148.196L451.353,148.055L452.25,147.851L453.148,147.69L454.046,147.513L454.943,147.175L455.841,146.835L456.738,146.588L457.636,146.356L458.534,146.118L459.431,145.819L460.329,145.584L461.226,145.414L462.124,145.214L463.021,144.881L463.919,144.673L464.817,144.421L465.714,143.998L466.612,143.657L467.509,143.482L468.407,143.208L469.305,142.852L470.202,142.57L471.1,142.207L471.997,141.93L472.895,141.62L473.793,141.256L474.69,140.974L475.588,140.711L476.485,140.376L477.383,140.09L478.281,139.829L479.178,139.42L480.076,139.175L480.973,138.985L481.871,138.589L482.769,138.449L483.666,138.21L484.564,137.823L485.461,137.622L486.359,137.389L487.257,137.099L488.154,136.923L489.052,136.743L489.949,136.562L490.847,136.429L491.745,136.181L492.642,135.843L493.54,135.531L494.437,135.15L495.335,134.696L496.233,134.488L497.13,134.242L498.028,134.004L498.925,133.675L499.823,133.308L500.721,133.034L501.618,132.835L502.516,132.513L503.413,132.126L504.311,131.584L505.209,131.247L506.106,130.835L507.004,130.597L507.901,130.378L508.799,130.084L509.697,129.958L510.594,129.772L511.492,129.304L512.389,128.789L513.287,128.412L514.185,127.887L515.082,127.596L515.98,127.348L516.877,127.049L517.775,126.756L518.673,126.506L519.57,126.113L520.468,125.879L521.365,125.488L522.263,124.906L523.161,124.498L524.058,124.202L524.956,123.764L525.853,123.473L526.751,123.259L527.649,122.809L528.546,122.447L529.444,122.042L530.341,121.644L531.239,121.18L532.137,120.561L533.034,119.888L533.932,119.522L534.829,119.14L535.727,118.583L536.625,118.204L537.522,117.921L538.42,117.556L539.317,117.247L540.215,116.936L541.113,116.437L542.01,116.001L542.908,115.821L543.805,115.432L544.703,115.098L545.601,114.714L546.498,114.335L547.396,114.108L548.293,113.775L549.191,113.277L550.088,112.818L550.986,112.511L551.884,112.041L552.781,111.805L553.679,111.503L554.576,111.163L555.474,110.941L556.372,110.678L557.269,110.329L558.167,110.051L559.064,109.771L559.962,109.252L560.86,108.963L561.757,108.715L562.655,108.493L563.552,108.286L564.45,108.011L565.348,107.754L566.245,107.596L567.143,107.401L568.04,106.983L568.938,106.72L569.836,106.521L570.733,106.13L571.631,105.858L572.528,105.742L573.426,105.509L574.324,105.196L575.221,104.962L576.119,104.643L577.016,104.296L577.914,103.965L578.812,103.454L579.709,103.099L580.607,102.871L581.504,102.83L582.402,102.825L583.3,102.823L584.197,102.82L585.095,102.816L585.992,102.81L586.89,102.804L587.788,102.777L588.685,102.756L589.583,102.744L590.48,102.711L591.378,102.657L592.276,102.619L593.173,102.571L594.071,102.476L594.968,102.35L595.866,102.031L596.764,101.815L597.661,101.613L598.559,101.431L599.456,101.258L600.354,101.059L601.252,100.807L602.149,100.58L603.047,100.311L603.944,100.033L604.842,99.786L605.74,99.486L606.637,99.257L607.535,99.083L608.432,98.83L609.33,98.559L610.228,98.442L611.125,98.265L612.023,98.004L612.92,97.857L613.818,97.703L614.716,97.474L615.613,97.291L616.511,97.025L617.408,96.802L618.306,96.668L619.204,96.466L620.101,96.289L620.999,96.123L621.896,96.008L622.794,95.864L623.692,95.779L624.589,95.625L625.487,95.463L626.384,95.257L627.282,94.966L628.18,94.782L629.077,94.662L629.975,94.406L630.872,94.212L631.77,94.035L632.668,93.851L633.565,93.595L634.463,93.418L635.36,93.171L636.258,93.003L637.155,92.873L638.053,92.674L638.951,92.454L639.848,92.224L640.746,92.074L641.643,91.869L642.541,91.694L643.439,91.474L644.336,91.161L645.234,90.926L646.131,90.624L647.029,90.458L647.927,90.31L648.824,90.104L649.722,89.9L650.619,89.728L651.517,89.497L652.415,89.235L653.312,89.072L654.21,88.778L655.107,88.518L656.005,88.307L656.903,88.001L657.8,87.826L658.698,87.69L659.595,87.583L660.493,87.433L661.391,87.245L662.288,87.04L663.186,86.609L664.083,86.395L664.981,86.068L665.879,85.914L666.776,85.765L667.674,85.581L668.571,85.307L669.469,85.215L670.367,85.015L671.264,84.794L672.162,84.595L673.059,84.292L673.957,83.916L674.855,83.72L675.752,83.391L676.65,83.239L677.547,83.035L678.445,82.667L679.343,82.398L680.24,82.215L681.138,81.918L682.035,81.599L682.933,81.428L683.831,81.036L684.728,80.858L685.626,80.681L686.523,80.424L687.421,80.158L688.319,79.978L689.216,79.678L690.114,79.444L691.011,79.2L691.909,78.841L692.807,78.483L693.704,78.225L694.602,77.978L695.499,77.65L696.397,77.453L697.295,77.25L698.192,77.067L699.09,76.806L699.987,76.582L700.885,76.342L701.783,76.121L702.68,75.886L703.578,75.622L704.475,75.542L705.373,75.419L706.271,75.232L707.168,75.085L708.066,74.733L708.963,74.527L709.861,74.383L710.759,74.191L711.656,73.782L712.554,73.642L713.451,73.435L714.349,73.156L715.247,72.945L716.144,72.808L717.042,72.625L717.939,72.512L718.837,72.357L719.735,72.18L720.632,71.997L721.53,71.663L722.427,71.431L723.325,71.272L724.223,70.981L725.12,70.771L726.018,70.558L726.915,70.4L727.813,70.24L728.71,70.12L729.608,69.916L730.506,69.688L731.403,69.588L732.301,69.452L733.198,69.305L734.096,69.168L734.994,69.004L735.891,68.809L736.789,68.595L737.686,68.364L738.584,68.236L739.482,68.101L740.379,67.882L741.277,67.689L742.174,67.567L743.072,67.349L743.97,67.147L744.867,66.987L745.765,66.797L746.662,66.597L747.56,66.383L748.458,66.09L749.355,65.689L750.253,65.44L751.15,65.173L752.048,64.99L752.946,64.813L753.843,64.569L754.741,64.398L755.638,64.265L756.536,64.101L757.434,63.931L758.331,63.743L759.229,63.542L760.126,63.258L761.024,63.053L761.922,62.727L762.819,62.418L763.717,62.102L764.614,61.783L765.512,61.5L766.41,61.175L767.307,60.825L768.205,60.649L769.102,60.418L770,60"/></g></svg>