<svg class="plot-d6a7b5" fill="currentColor" font-family="system-ui, sans-serif" font-size="10" text-anchor="middle" width="830" height="470" viewBox="0 0 830 470" style="color: dodgerblue;" xmlns="http://www.w3.org/2000/svg" xmlns:xlink="http://www.w3.org/1999/xlink"><style>:where(.plot-d6a7b5) {
  --plot-background: white;
  display: block;
  height: auto;
  height: intrinsic;
  max-width: 100%;
}
:where(.plot-d6a7b5 text),
:where(.plot-d6a7b5 tspan) {
  white-space: pre;
}</style><g aria-label="y-grid" stroke="currentColor" stroke-opacity="0.1"><line x1="60" x2="770" y1="410" y2="410"></line><line x1="60" x2="770" y1="378.55684921661634" y2="378.55684921661634"></line><line x1="60" x2="770" y1="347.11369843323274" y2="347.11369843323274"></line><line x1="60" x2="770" y1="315.6705476498491" y2="315.6705476498491"></line><line x1="60" x2="770" y1="284.2273968664655" y2="284.2273968664655"></line><line x1="60" x2="770" y1="252.7842460830818" y2="252.7842460830818"></line><line x1="60" x2="770" y1="221.34109529969817" y2="221.34109529969817"></line><line x1="60" x2="770" y1="189.8979445163145" y2="189.8979445163145"></line><line x1="60" x2="770" y1="158.45479373293085" y2="158.45479373293085"></line><line x1="60" x2="770" y1="127.01164294954722" y2="127.01164294954722"></line><line x1="60" x2="770" y1="95.56849216616357" y2="95.56849216616357"></line><line x1="60" x2="770" y1="64.12534138277994" y2="64.12534138277994"></line></g><g aria-label="y-axis tick" fill="none" stroke="currentColor"><path transform="translate(60,410)" d="M0,0L-6,0"></path><path transform="translate(60,378.55684921661634)" d="M0,0L-6,0"></path><path transform="translate(60,347.11369843323274)" d="M0,0L-6,0"></path><path transform="translate(60,315.6705476498491)" d="M0,0L-6,0"></path><path transform="translate(60,284.2273968664655)" d="M0,0L-6,0"></path><path transform="translate(60,252.7842460830818)" d="M0,0L-6,0"></path><path transform="translate(60,221.34109529969817)" d="M0,0L-6,0"></path><path transform="translate(60,189.8979445163145)" d="M0,0L-6,0"></path><path transform="translate(60,158.45479373293085)" d="M0,0L-6,0"></path><path transform="translate(60,127.01164294954722)" d="M0,0L-6,0"></path><path transform="translate(60,95.56849216616357)" d="M0,0L-6,0"></path><path transform="translate(60,64.12534138277994)" d="M0,0L-6,0"></path></g><g aria-label="y-axis tick label" text-anchor="end" font-variant="tabular-nums" transform="translate(-9,0)"><text y="0.32em" transform="translate(60,410)">0</text><text y="0.32em" transform="translate(60,378.55684921661634)">5,000</text><text y="0.32em" transform="translate(60,347.11369843323274)">10,000</text><text y="0.32em" transform="translate(60,315.6705476498491)">15,000</text><text y="0.32em" transform="translate(60,284.2273968664655)">20,000</text><text y="0.32em" transform="translate(60,252.7842460830818)">25,000</text><text y="0.32em" transform="translate(60,221.34109529969817)">30,000</text><text y="0.32em" transform="translate(60,189.8979445163145)">35,000</text><text y="0.32em" transform="translate(60,158.45479373293085)">40,000</text><text y="0.32em" transform="translate(60,127.01164294954722)">45,000</text><text y="0.32em" transform="translate(60,95.56849216616357)">50,000</text><text y="0.32em" transform="translate(60,64.12534138277994)">55,000</text></g><g aria-label="y-axis label" text-anchor="start" transform="translate(-57,-57)"><text y="0.71em" transform="translate(60,60)">↑ Visible Vestiges (30 days)</text></g><g aria-label="x-axis tick" fill="none" stroke="currentColor"><path transform="translate(98.1559536354057,410)" d="M0,0L0,6"></path><path transform="translate(200.2792413066386,410)" d="M0,0L0,6"></path><path transform="translate(303.52476290832453,410)" d="M0,0L0,6"></path><path transform="translate(406.7702845100105,410)" d="M0,0L0,6"></path><path transform="translate(508.8935721812435,410)" d="M0,0L0,6"></path><path transform="translate(611.0168598524763,410)" d="M0,0L0,6"></path><path transform="translate(714.2623814541622,410)" d="M0,0L0,6"></path></g><g aria-label="x-axis tick label" font-variant="tabular-nums" transform="translate(0,9)"><text transform="translate(98.1559536354057,410)"><tspan x="0" y="0.71em">Apr</tspan><tspan x="0" dy="1em">2023</tspan></text><text y="0.71em" transform="translate(200.2792413066386,410)">Jul</text><text y="0.71em" transform="translate(303.52476290832453,410)">Oct</text><text transform="translate(406.7702845100105,410)"><tspan x="0" y="0.71em">Jan</tspan><tspan x="0" dy="1em">2024</tspan></text><text y="0.71em" transform="translate(508.8935721812435,410)">Apr</text><text y="0.71em" transform="translate(611.0168598524763,410)">Jul</text><text y="0.71em" transform="translate(714.2623814541622,410)">Oct</text></g><g aria-label="line" fill="none" stroke="currentColor" stroke-width="1.5" stroke-linejoin="round" stroke-linecap="round"><path d="M60,410L60.748,406.843L61.496,395.297L62.244,389.071L62.993,384.657L63.741,377.375L64.489,371.639L65.237,366.263L65.985,355.383L66.733,346.774L67.482,336.555L68.23,320.727L68.978,305.804L69.726,298.056L70.474,286.843L71.222,279.228L71.97,270.499L72.719,259.085L73.467,251.401L74.215,243.867L74.963,233.642L75.711,222.303L76.459,214.273L77.208,200.57L77.956,194.08L78.704,188.024L79.452,177.101L80.2,166.643L80.948,158.593L81.697,147.374L82.445,139.344L83.193,140.702L83.941,131.137L84.689,123.025L85.437,123.05L86.185,121.226L86.934,120.912L87.682,127.194L88.43,127.276L89.178,129.156L89.926,139.168L90.674,140.639L91.423,134.325L92.171,132.936L92.919,125.282L93.667,123.66L94.415,126.257L95.163,121.93L95.911,119.415L96.66,122.364L97.408,120.597L98.156,115.956L98.904,117.837L99.652,107.379L100.4,97.342L101.149,99.895L101.897,97.933L102.645,94.776L103.393,95.952L104.141,92.921L104.889,89.752L105.638,93.94L106.386,92.519L107.134,86.406L107.882,82.45L108.63,72.653L109.378,67.722L110.126,67.653L110.875,64L111.623,60L112.371,66.113L113.119,70.716L113.867,73.112L114.615,78.866L115.364,76.734L116.112,73.181L116.86,78.143L117.608,78.407L118.356,78.042L119.104,86.123L119.852,91.016L120.601,95.097L121.349,103.825L122.097,109.278L122.845,106.831L123.593,110.806L124.341,110.315L125.09,112.145L125.838,121L126.586,122.037L127.334,125.125L128.082,134.464L128.83,140.117L129.579,144.192L130.327,151.933L131.075,150.82L131.823,150.16L132.571,154.179L133.319,157.065L134.067,158.254L134.816,161.825L135.564,162.373L136.312,166.385L137.06,173.277L137.808,176.572L138.556,173.334L139.305,175.05L140.053,172.315L140.801,170.347L141.549,171.629L142.297,169.957L143.045,171.736L143.793,176.245L144.542,178.874L145.29,180.918L146.038,184.88L146.786,184.898L147.534,182.823L148.282,188.98L149.031,191.036L149.779,190.005L150.527,192.407L151.275,192.363L152.023,194.413L152.771,199.916L153.519,200.696L154.268,197.652L155.016,196.545L155.764,192.237L156.512,191.866L157.26,194.35L158.008,192.445L158.757,191.269L159.505,195.589L160.253,196.451L161.001,197.117L161.749,199.714L162.497,195.413L163.246,193.596L163.994,195.74L164.742,194.753L165.49,192.778L166.238,194.69L166.986,194.948L167.734,194.558L168.483,197.96L169.231,199.035L169.979,199.457L170.727,200.519L171.475,198.557L172.223,198.381L172.972,200.142L173.72,198.174L174.468,197.834L175.216,201.249L175.964,206.789L176.712,208.374L177.46,212.77L178.209,212.701L178.957,213.015L179.705,215.04L180.453,215.216L181.201,214.43L181.949,218.348L182.698,218.109L183.446,219.53L184.194,225.806L184.942,227.529L185.69,228.535L186.438,231.434L187.187,231.761L187.935,232.101L188.683,232.126L189.431,233.453L190.179,232.459L190.927,235.384L191.675,234.818L192.424,235.069L193.172,236.547L193.92,234.755L194.668,234.711L195.416,236.025L196.164,234.516L196.913,233.214L197.661,233.107L198.409,230.453L199.157,229.114L199.905,231.177L200.653,231.227L201.401,230.541L202.15,233.484L202.898,232.56L203.646,233.893L204.394,236.572L205.142,236.899L205.89,236.295L206.639,238.44L207.387,237.673L208.135,237.05L208.883,240.169L209.631,239.566L210.379,239.805L211.128,241.974L211.876,240.666L212.624,239.591L213.372,240.767L214.12,239.402L214.868,240.238L215.616,241.515L216.365,240.408L217.113,240.742L217.861,242.609L218.609,243.1L219.357,241.779L220.105,245.483L220.854,247.816L221.602,246.722L222.35,249.451L223.098,248.527L223.846,247.797L224.594,249.313L225.342,247.275L226.091,247.288L226.839,247.307L227.587,244.93L228.335,243.345L229.083,246.823L229.831,243.798L230.58,242.446L231.328,243.641L232.076,242.056L232.824,241.641L233.572,243.32L234.32,241.59L235.068,240.389L235.817,241.433L236.565,238.635L237.313,238.415L238.061,239.805L238.809,239.176L239.557,236.975L240.306,235.365L241.054,231.258L241.802,229.938L242.55,229.938L243.298,228.435L244.046,227.001L244.795,229.994L245.543,228.139L246.291,227.592L247.039,229.957L247.787,228.63L248.535,228.925L249.283,232.78L250.032,232.176L250.78,229.529L251.528,232.988L252.276,232.793L253.024,230.378L253.772,231.296L254.521,228.177L255.269,227.812L256.017,228.472L256.765,226.542L257.513,225.806L258.261,228.139L259.009,227.454L259.758,227.215L260.506,230.032L261.254,231.818L262.002,235.126L262.75,241.546L263.498,242.71L264.247,242.194L264.995,243.892L265.743,244.244L266.491,242.917L267.239,244.634L267.987,245.118L268.736,244.005L269.484,246.087L270.232,246.961L270.98,246.118L271.728,247.37L272.476,247.118L273.224,247.231L273.973,248.464L274.721,251.011L275.469,253.734L276.217,257.796L276.965,259.299L277.713,262.268L278.462,267.324L279.21,266.204L279.958,266.89L280.706,269.047L281.454,268.323L282.202,269.455L282.95,271.38L283.699,272.153L284.447,274.027L285.195,275.48L285.943,276.876L286.691,277.234L287.439,277.354L288.188,274.631L288.936,272.317L289.684,273.662L290.432,273.681L291.18,274.474L291.928,275.216L292.677,275.48L293.425,276.624L294.173,279.706L294.921,279.14L295.669,278.436L296.417,279.448L297.165,277.555L297.914,278.75L298.662,280.165L299.41,278.958L300.158,278.555L300.906,282.662L301.654,282.504L302.403,282.9L303.151,284.894L303.899,281.574L304.647,280.674L305.395,281.687L306.143,279.97L306.891,280.813L307.64,282.07L308.388,283.177L309.136,284.592L309.884,288.466L310.632,289.805L311.38,287.598L312.129,286.649L312.877,283.919L313.625,283.599L314.373,284.951L315.121,285.007L315.869,284.881L316.617,286.271L317.366,286.869L318.114,287.661L318.862,290.183L319.61,285.982L320.358,282.768L321.106,282.85L321.855,282.599L322.603,283.039L323.351,286.076L324.099,285.812L324.847,287.202L325.595,290.17L326.344,288.749L327.092,284.756L327.84,284.397L328.588,281.165L329.336,280.655L330.084,281.196L330.832,279.398L331.581,280.064L332.329,282.215L333.077,283.334L333.825,284.158L334.573,287.045L335.321,286.089L336.07,286.007L336.818,287.963L337.566,286.68L338.314,287.252L339.062,290.384L339.81,290.849L340.558,291.038L341.307,293.107L342.055,293.245L342.803,291.019L343.551,290.906L344.299,289.755L345.047,289.661L345.796,290.843L346.544,289.868L347.292,290.692L348.04,294.295L348.788,296.691L349.536,299.05L350.285,302.188L351.033,301.955L351.781,301.817L352.529,305.099L353.277,305.653L354.025,307.376L354.773,309.916L355.522,311.985L356.27,313.205L357.018,317.224L357.766,315.954L358.514,313.539L359.262,313.778L360.011,312.463L360.759,310.954L361.507,311.753L362.255,311.269L363.003,314.142L363.751,317.041L364.499,318.576L365.248,318.941L365.996,319.695L366.744,317.243L367.492,317.318L368.24,318.098L368.988,316.488L369.737,315.664L370.485,316.079L371.233,313.243L371.981,313.47L372.729,314.199L373.477,314.413L374.226,313.004L374.974,312.457L375.722,310.212L376.47,310.193L377.218,311.803L377.966,310.52L378.714,309.112L379.463,311.696L380.211,313.759L380.959,315.853L381.707,318.456L382.455,318.89L383.203,318.261L383.952,320.192L384.7,318.777L385.448,318.431L386.196,321.399L386.944,322.89L387.692,324.393L388.44,327.286L389.189,327.141L389.937,326.877L390.685,328.147L391.433,328.896L392.181,329.996L392.929,332.159L393.678,332.857L394.426,334.04L395.174,335.04L395.922,335.14L396.67,336.486L397.418,337.725L398.166,335.574L398.915,333.423L399.663,334.914L400.411,334.838L401.159,333.285L401.907,332.939L402.655,331.612L403.404,330.663L404.152,330.468L404.9,329.462L405.648,328.103L406.396,328.946L407.144,328.858L407.893,327.355L408.641,326.764L409.389,324.185L410.137,323.487L410.885,325.028L411.633,324.443L412.381,325.556L413.13,325.475L413.878,323.928L414.626,324.953L415.374,324.971L416.122,323.72L416.87,323.978L417.619,325.563L418.367,325.833L419.115,327.078L419.863,328.889L420.611,328.921L421.359,327.499L422.107,326.393L422.856,325.374L423.604,326.141L424.352,327.361L425.1,327.757L425.848,327.562L426.596,327.537L427.345,327.606L428.093,328.286L428.841,328.411L429.589,327.361L430.337,324.449L431.085,325.204L431.834,323.462L432.582,322.959L433.33,324.795L434.078,323.198L434.826,324.374L435.574,326.468L436.322,323.689L437.071,320.764L437.819,319.865L438.567,316.243L439.315,315.086L440.063,314.4L440.811,312.677L441.56,312.206L442.308,313.124L443.056,312.287L443.804,313.809L444.552,314.463L445.3,310.577L446.048,308.891L446.797,308.3L447.545,307.168L448.293,307.948L449.041,308.583L449.789,305.967L450.537,305.552L451.286,305.376L452.034,306.866L452.782,305.54L453.53,303.401L454.278,298.892L455.026,297.358L455.774,296.446L456.523,291.975L457.271,289.969L458.019,291.893L458.767,293.447L459.515,294.151L460.263,296.371L461.012,294.22L461.76,292.264L462.508,293.497L463.256,292.503L464.004,291.635L464.752,291.717L465.501,290.214L466.249,291.918L466.997,294.503L467.745,293.579L468.493,291.874L469.241,293.239L469.989,291.384L470.738,291.151L471.486,292.692L472.234,292.918L472.982,294.811L473.73,296.214L474.478,297.408L475.227,300.949L475.975,305.024L476.723,303.445L477.471,304.401L478.219,307.615L478.967,309.244L479.715,310.03L480.464,310.96L481.212,311.501L481.96,313.092L482.708,316.237L483.456,316.425L484.204,315.57L484.953,317.538L485.701,316.947L486.449,318.111L487.197,320.846L487.945,320.771L488.693,320.984L489.442,323.72L490.19,325.179L490.938,324.764L491.686,326.21L492.434,323.349L493.182,322.802L493.93,323.965L494.679,325.846L495.427,328.525L496.175,332.122L496.923,334.97L497.671,337.832L498.419,343.158L499.168,346.101L499.916,348.384L500.664,350.472L501.412,352.49L502.16,355.006L502.908,357.113L503.656,358.358L504.405,359.886L505.153,363.244L505.901,364.653L506.649,363.414L507.397,365.225L508.145,365.961L508.894,365.269L509.642,365.898L510.39,367.08L511.138,366.885L511.886,367.841L512.634,368.652L513.383,369.193L514.131,371.941L514.879,372.507L515.627,372.507L516.375,371.117L517.123,368.545L517.871,365.759L518.62,364.571L519.368,362.785L520.116,360.131L520.864,358.666L521.612,357.352L522.36,355.188L523.109,353.427L523.857,351.006L524.605,349.246L525.353,348.252L526.101,346.655L526.849,345.806L527.597,345.391L528.346,347.504L529.094,348.252L529.842,349.459L530.59,349.755L531.338,349.868L532.086,349.793L532.835,349.396L533.583,349.837L534.331,351.384L535.079,351.623L535.827,352.163L536.575,353.446L537.323,353.905L538.072,353.056L538.82,353.843L539.568,354.094L540.316,353.566L541.064,354.05L541.812,354.698L542.561,353.937L543.309,353.151L544.057,353.975L544.805,353.736L545.553,354.679L546.301,354.717L547.05,352.855L547.798,352.522L548.546,351.22L549.294,351.22L550.042,350.881L550.79,350.239L551.538,349.007L552.287,348.812L553.035,348.101L553.783,347.522L554.531,348.843L555.279,347.705L556.027,346.246L556.776,346.711L557.524,345.56L558.272,345.567L559.02,346.07L559.768,347.617L560.516,347.906L561.264,348.51L562.013,348.132L562.761,345.001L563.509,344.844L564.257,343.743L565.005,344.529L565.753,344.535L566.502,344.755L567.25,343.737L567.998,345.057L568.746,346.227L569.494,346.372L570.242,347.441L570.991,346.019L571.739,343.655L572.487,343.756L573.235,342.46L573.983,342.668L574.731,342.951L575.479,341.85L576.228,340.756L576.976,341.9L577.724,341.517L578.472,340.404L579.22,341.794L579.968,339.548L580.717,339.115L581.465,338.385L582.213,337.266L582.961,336.467L583.709,336.719L584.457,338.09L585.205,337.882L585.954,338.737L586.702,336.605L587.45,334.442L588.198,333.681L588.946,333.952L589.694,331.505L590.443,331.537L591.191,331.719L591.939,331.883L592.687,332.329L593.435,333.901L594.183,333.449L594.932,334.568L595.68,333.706L596.428,333.084L597.176,336.065L597.924,337.586L598.672,337.549L599.42,339.102L600.169,338.75L600.917,338.398L601.665,340.97L602.413,340.825L603.161,338.417L603.909,339.63L604.658,340.24L605.406,339.215L606.154,340.14L606.902,341.139L607.65,341.781L608.398,344.334L609.146,346.441L609.895,347.277L610.643,347.938L611.391,347.887L612.139,347.516L612.887,347.982L613.635,346.856L614.384,347.378L615.132,347.504L615.88,348.34L616.628,348.975L617.376,350.17L618.124,350.793L618.872,349.264L619.621,349.497L620.369,350.032L621.117,350.032L621.865,352.258L622.613,352.692L623.361,352.163L624.11,351.931L624.858,353.786L625.606,353.912L626.354,354.654L627.102,355.283L627.85,355.459L628.599,355.622L629.347,355.251L630.095,354.333L630.843,354.283L631.591,354.138L632.339,353.975L633.087,355.213L633.836,354.591L634.584,352.069L635.332,352.503L636.08,351.918L636.828,352.226L637.576,352.038L638.325,351.164L639.073,350.635L639.821,351.365L640.569,352.031L641.317,351.302L642.065,350.761L642.813,350.201L643.562,348.68L644.31,348.258L645.058,346.894L645.806,345.913L646.554,345.032L647.302,343.045L648.051,341.511L648.799,340.404L649.547,338.781L650.295,338.215L651.043,338.083L651.791,335.844L652.54,335.241L653.288,335.178L654.036,334.43L654.784,334.7L655.532,336.744L656.28,335.071L657.028,332.618L657.777,330.361L658.525,326.864L659.273,324.349L660.021,323.751L660.769,320.639L661.517,316.884L662.266,315.425L663.014,314.205L663.762,312.545L664.51,311.306L665.258,310.558L666.006,308.583L666.754,309.275L667.503,310.809L668.251,311.048L668.999,312.639L669.747,313.753L670.495,314.727L671.243,316.086L671.992,315.268L672.74,314.476L673.488,315.62L674.236,315.425L674.984,314.991L675.732,315.62L676.481,315.639L677.229,315.3L677.977,320.142L678.725,324.041L679.473,327.613L680.221,331.298L680.969,334.461L681.718,335.681L682.466,339.278L683.214,342.907L683.962,344.73L684.71,346.057L685.458,348.321L686.207,349.22L686.955,351.17L687.703,353.346L688.451,354.566L689.199,354.037L689.947,354.798L690.695,354.509L691.444,354.792L692.192,355.314L692.94,356.188L693.688,357.251L694.436,359.402L695.184,361.313L695.933,362.364L696.681,363.678L697.429,363.829L698.177,364.106L698.925,364.011L699.673,363.571L700.421,363.005L701.17,362.948L701.918,362.716L702.666,362.659L703.414,362.37L704.162,360.691L704.91,359.364L705.659,356.748L706.407,356.698L707.155,356.1L707.903,356.49L708.651,356.974L709.399,356.767L710.148,356.132L710.896,356.207L711.644,355.704L712.392,352.799L713.14,352.17L713.888,352.635L714.636,350.994L715.385,350.761L716.133,350.811L716.881,350.069L717.629,349.786L718.377,349.623L719.125,349.321L719.874,348.315L720.622,347.139L721.37,344.875L722.118,345.158L722.866,345.409L723.614,345.548L724.362,345.202L725.111,346.504L725.859,348.39L726.607,349.629L727.355,352.767L728.103,352.968L728.851,353.56L729.6,354.585L730.348,354.585L731.096,355.943L731.844,356.823L732.592,357.138L733.34,358.402L734.089,362.181L734.837,362.005L735.585,361.571L736.333,362.942L737.081,362.313L737.829,362.603L738.577,363.716L739.326,363.785L740.074,364.156L740.822,365.489L741.57,366.873L742.318,368.659L743.066,371.382L743.815,370.463L744.563,370.268L745.311,371.545L746.059,372.507L746.807,372.507L747.555,372.275L748.303,372.608L749.052,371.495L749.8,371.985L750.548,371.243L751.296,369.319L752.044,368.426L752.792,365.973L753.541,364.911L754.289,365.25L755.037,365.37L755.785,365.137L756.533,365.873L757.281,366.476L758.03,367.074L758.778,367.64L759.526,366.476L760.274,365.357L761.022,365.904L761.77,364.992L762.518,365.244L763.267,365.602L764.015,364.584L764.763,364.389L765.511,365.539L766.259,365.634L767.007,364.439L767.756,363.496L768.504,362.703L769.252,363.018L770,362.892"></path></g></svg> 
 
