<svg class="plot-d6a7b5" fill="currentColor" font-family="system-ui, sans-serif" font-size="10" text-anchor="middle" width="830" height="400" viewBox="0 0 830 400" xmlns="http://www.w3.org/2000/svg" xmlns:xlink="http://www.w3.org/1999/xlink" color="#1e90ff"><style>:where(.plot-d6a7b5){--plot-background: white;display:block;height:intrinsic;max-width:100%}:where(.plot-d6a7b5 text),:where(.plot-d6a7b5 tspan){white-space:pre}</style><g aria-label="y-grid" stroke="currentColor" stroke-opacity=".1"><line x1="40" x2="810" y1="370" y2="370"/><line x1="40" x2="810" y1="344" y2="344"/><line x1="40" x2="810" y1="318" y2="318"/><line x1="40" x2="810" y1="292" y2="292"/><line x1="40" x2="810" y1="266" y2="266"/><line x1="40" x2="810" y1="240" y2="240"/><line x1="40" x2="810" y1="214" y2="214"/><line x1="40" x2="810" y1="189" y2="189"/><line x1="40" x2="810" y1="163" y2="163"/><line x1="40" x2="810" y1="137" y2="137"/><line x1="40" x2="810" y1="111" y2="111"/><line x1="40" x2="810" y1="85" y2="85"/><line x1="40" x2="810" y1="59" y2="59"/><line x1="40" x2="810" y1="33" y2="33"/></g><g aria-label="y-axis tick" fill="none" stroke="currentColor"><path transform="translate(40,370)" d="M0,0L-6,0"/><path transform="translate(40,344)" d="M0,0L-6,0"/><path transform="translate(40,318)" d="M0,0L-6,0"/><path transform="translate(40,292)" d="M0,0L-6,0"/><path transform="translate(40,266)" d="M0,0L-6,0"/><path transform="translate(40,240)" d="M0,0L-6,0"/><path transform="translate(40,214)" d="M0,0L-6,0"/><path transform="translate(40,189)" d="M0,0L-6,0"/><path transform="translate(40,163)" d="M0,0L-6,0"/><path transform="translate(40,137)" d="M0,0L-6,0"/><path transform="translate(40,111)" d="M0,0L-6,0"/><path transform="translate(40,85)" d="M0,0L-6,0"/><path transform="translate(40,59)" d="M0,0L-6,0"/><path transform="translate(40,33)" d="M0,0L-6,0"/></g><g aria-label="y-axis tick label" text-anchor="end" font-variant="tabular-nums"><text y=".32em" transform="translate(-9,0) translate(40,370)">−40</text><text y=".32em" transform="translate(-9,0) translate(40,344)">−20</text><text y=".32em" transform="translate(-9,0) translate(40,318)">0</text><text y=".32em" transform="translate(-9,0) translate(40,292)">20</text><text y=".32em" transform="translate(-9,0) translate(40,266)">40</text><text y=".32em" transform="translate(-9,0) translate(40,240)">60</text><text y=".32em" transform="translate(-9,0) translate(40,214)">80</text><text y=".32em" transform="translate(-9,0) translate(40,189)">100</text><text y=".32em" transform="translate(-9,0) translate(40,163)">120</text><text y=".32em" transform="translate(-9,0) translate(40,137)">140</text><text y=".32em" transform="translate(-9,0) translate(40,111)">160</text><text y=".32em" transform="translate(-9,0) translate(40,85)">180</text><text y=".32em" transform="translate(-9,0) translate(40,59)">200</text><text y=".32em" transform="translate(-9,0) translate(40,33)">220</text></g><g aria-label="y-axis label" text-anchor="start"><text y=".71em" transform="translate(-37,-17) translate(40,20)">↑ spawnPosY</text></g><g aria-label="x-grid" stroke="currentColor" stroke-opacity=".1"><line x1="40" x2="40" y1="20" y2="370"/><line x1="150" x2="150" y1="20" y2="370"/><line x1="260" x2="260" y1="20" y2="370"/><line x1="370" x2="370" y1="20" y2="370"/><line x1="480" x2="480" y1="20" y2="370"/><line x1="590" x2="590" y1="20" y2="370"/><line x1="700" x2="700" y1="20" y2="370"/><line x1="810" x2="810" y1="20" y2="370"/></g><g aria-label="x-axis tick" fill="none" stroke="currentColor"><path transform="translate(40,370)" d="M0,0L0,6"/><path transform="translate(150,370)" d="M0,0L0,6"/><path transform="translate(260,370)" d="M0,0L0,6"/><path transform="translate(370,370)" d="M0,0L0,6"/><path transform="translate(480,370)" d="M0,0L0,6"/><path transform="translate(590,370)" d="M0,0L0,6"/><path transform="translate(700,370)" d="M0,0L0,6"/><path transform="translate(810,370)" d="M0,0L0,6"/></g><g aria-label="x-axis tick label" font-variant="tabular-nums"><text y=".71em" transform="translate(0,9) translate(40,370)">−50</text><text y=".71em" transform="translate(0,9) translate(150,370)">0</text><text y=".71em" transform="translate(0,9) translate(260,370)">50</text><text y=".71em" transform="translate(0,9) translate(370,370)">100</text><text y=".71em" transform="translate(0,9) translate(480,370)">150</text><text y=".71em" transform="translate(0,9) translate(590,370)">200</text><text y=".71em" transform="translate(0,9) translate(700,370)">250</text><text y=".71em" transform="translate(0,9) translate(810,370)">300</text></g><g aria-label="x-axis label" text-anchor="end"><text transform="translate(17,27) translate(810,370)">spawnPosX →</text></g><g aria-label="rect" mask="url(#Mask)"><rect x="-2199850" y="318" width="2200000" height="1296296" fill="rgba(40, 26, 43, 6.3347395435827325)"/><rect x="-2199850" y="-1295978" width="2200000" height="1296296" fill="rgba(36, 24, 30, 1.0757508407907208)"/><rect x="150" y="318" width="2200000" height="1296296" fill="rgba(67, 109, 240, 165.29350096030464)"/><rect x="150" y="-1295978" width="2200000" height="1296296" fill="rgba(144, 12, 0, 255)"/><rect x="4723400150" y="-2784444126" width="2200000" height="1296296" fill="rgba(35, 23, 27, 0)"/></g><mask xmlns="http://www.w3.org/2000/svg" id="Mask"><rect x="45" y="15" width="950" height="350" fill="#fff"/></mask></svg>