<svg xmlns="http://www.w3.org/2000/svg" width="830" height="470" fill="currentColor" class="plot-d6a7b5" font-family="system-ui, sans-serif" font-size="10" style="--plot-background:white;display:block;height:intrinsic;max-width:100%;color:#1e90ff" text-anchor="middle" viewBox="0 0 830 470">
    <style>
        :where(.plot-d6a7b5 text),:where(.plot-d6a7b5 tspan){white-space:pre}
    </style>
    <path stroke="currentColor" stroke-opacity=".1" d="
M60
410
h710
M60
360.972
h710
M60
311.944
h710
M60
262.916
h710
M60
213.889
h710
M60
164.861
h710
M60
115.833
h710
M60
66.805
h710" aria-hidden="true" aria-label="y-grid"/>
    <path fill="none" stroke="currentColor" d="
M60
410
h-6
m6
-49.028
h-6
m6
-49.028
h-6
m6
-49.028
h-6
m6
-49.027
h-6
m6
-49.029
h-6
m6
-49.027
h-6
m6
-49.028
h-6" aria-hidden="true" aria-label="y-axis tick"/>
    <g aria-label="y-axis tick label" font-variant="tabular-nums" text-anchor="end">
        <text y=".32em" transform="translate(51 410)">0</text>
        <text y=".32em" transform="translate(51 360.972)">100,000</text>
        <text y=".32em" transform="translate(51 311.944)">200,000</text>
        <text y=".32em" transform="translate(51 262.916)">300,000</text>
        <text y=".32em" transform="translate(51 213.889)">400,000</text>
        <text y=".32em" transform="translate(51 164.86)">500,000</text>
        <text y=".32em" transform="translate(51 115.833)">600,000</text>
        <text y=".32em" transform="translate(51 66.805)">700,000</text>
    </g>
    <text y=".71em" aria-label="y-axis label" text-anchor="start" transform="translate(3 3)">↑ Total vestiges</text>
    <path fill="none" stroke="currentColor" d="
M80.597
410
v6
m55.128
-6
v6
m55.734
-6
v6
m55.734
-6
v6
m55.127
-6
v6
m55.129
-6
v6
m55.734
-6
v6
m55.733
-6
v6
m54.523
-6
v6
m55.128
-6
v6
m55.733
-6
v6
m55.734
-6
v6
m54.522
-6
v6" aria-hidden="true" aria-label="x-axis tick"/>
    <g aria-label="x-axis tick label" font-variant="tabular-nums">
        <text transform="translate(80.597 419)"><tspan x="0" y=".71em">Apr</tspan><tspan x="0" dy="1em">2023</tspan></text>
        <text y=".71em" transform="translate(135.725 419)">Jul</text>
        <text y=".71em" transform="translate(191.459 419)">Oct</text>
        <text transform="translate(247.193 419)"><tspan x="0" y=".71em">Jan</tspan><tspan x="0" dy="1em">2024</tspan></text>
        <text y=".71em" transform="translate(302.32 419)">Apr</text>
        <text y=".71em" transform="translate(357.449 419)">Jul</text>
        <text y=".71em" transform="translate(413.183 419)">Oct</text>
        <text transform="translate(468.916 419)"><tspan x="0" y=".71em">Jan</tspan><tspan x="0" dy="1em">2025</tspan></text>
        <text y=".71em" transform="translate(523.439 419)">Apr</text>
        <text y=".71em" transform="translate(578.567 419)">Jul</text>
        <text y=".71em" transform="translate(634.3 419)">Oct</text>
        <text transform="translate(690.034 419)"><tspan x="0" y=".71em">Jan</tspan><tspan x="0" dy="1em">2026</tspan></text>
        <text y=".71em" transform="translate(744.556 419)">Apr</text>
    </g>
    <path fill="none" stroke="currentColor" stroke-linecap="round" stroke-linejoin="round" stroke-width="1.5" d="
m60
410
.404
-.246
.404
-.9
.404
-.486
.403
-.344
.404
-.568
.404
-.447
.404
-.419
.404
-.848
.404
-.671
.404
-.797
.404
-1.234
.403
-1.163
.404
-.604
.404
-.875
.404
-.593
.404
-.681
.404
-.89
.404
-.599
.403
-.587
.404
-.797
.404
-.884
.404
-.626
.404
-1.069
.404
-.506
.404
-.472
.404
-.851
.403
-.816
.404
-.627
.404
-.875
.404
-.872
.404
-.794
.404
-1.232
.404
-.976
.404
-.566
.403
-.589
.404
-.444
.404
-.358
.404
-.665
.404
-.65
.404
-.454
.404
-1.049
.403
-1.096
.404
-.982
.404
-1.191
.404
-.807
.404
-.687
.404
-.936
.404
-.784
.404
-.567
.403
-1.022
.404
-.988
.404
-.922
.404
-1.321
.404
-1.255
.404
-.652
.404
-.968
.403
-.874
.404
-.783
.404
-1.109
.404
-1.041
.404
-.904
.404
-1.088
.404
-1.042
.404
-.898
.403
-1.207
.404
-.743
.404
-.67
.404
-.935
.404
-.766
.404
-.572
.404
-.737
.403
-.796
.404
-.742
.404
-.973
.404
-.964
.404
-.55
.404
-.763
.404
-.596
.404
-.391
.403
-.607
.404
-.603
.404
-.641
.404
-.83
.404
-.843
.404
-.658
.404
-.912
.404
-.641
.403
-.418
.404
-.96
.404
-.664
.404
-.359
.404
-.602
.404
-.58
.404
-.604
.403
-.83
.404
-.721
.404
-.622
.404
-.54
.404
-.48
.404
-.459
.404
-.753
.404
-.429
.403
-.436
.404
-.707
.404
-.802
.404
-.629
.404
-.809
.404
-.545
.404
-.507
.403
-.734
.404
-.502
.404
-.478
.404
-.638
.404
-.499
.404
-.603
.404
-.639
.404
-.58
.403
-.481
.404
-.503
.404
-.44
.404
-.414
.404
-.584
.404
-.444
.404
-.4
.404
-.661
.403
-.859
.404
-.627
.404
-.815
.404
-.488
.404
-.559
.404
-.578
.404
-.527
.403
-.371
.404
-.735
.404
-.577
.404
-.607
.404
-.88
.404
-.648
.404
-.567
.404
-.579
.403
-.632
.404
-.489
.404
-.479
.404
-.634
.404
-.373
.404
-.496
.404
-.448
.403
-.421
.404
-.592
.404
-.429
.404
-.446
.404
-.597
.404
-.427
.404
-.395
.404
-.427
.403
-.503
.404
-.473
.404
-.493
.404
-.535
.404
-.419
.404
-.514
.404
-.432
.403
-.43
.404
-.595
.404
-.496
.404
-.391
.404
-.514
.404
-.488
.404
-.353
.404
-.607
.403
-.463
.404
-.477
.404
-.53
.404
-.451
.404
-.268
.404
-.492
.404
-.401
.404
-.477
.403
-.568
.404
-.45
.404
-.495
.404
-.545
.404
-.496
.404
-.435
.404
-.71
.403
-.577
.404
-.332
.404
-.531
.404
-.474
.404
-.284
.404
-.504
.404
-.325
.404
-.387
.403
-.47
.404
-.439
.404
-.346
.404
-.549
.404
-.401
.404
-.363
.404
-.51
.403
-.459
.404
-.361
.404
-.553
.404
-.352
.404
-.4
.404
-.507
.404
-.412
.404
-.469
.403
-.536
.404
-.469
.404
-.399
.404
-.458
.404
-.538
.404
-.421
.404
-.395
.403
-.418
.404
-.318
.404
-.545
.404
-.342
.404
-.386
.404
-.484
.404
-.386
.404
-.468
.403
-.624
.404
-.47
.404
-.277
.404
-.638
.404
-.468
.404
-.417
.404
-.582
.404
-.393
.403
-.422
.404
-.487
.404
-.494
.404
-.426
.404
-.631
.404
-.485
.404
-.427
.403
-.519
.404
-.57
.404
-.584
.404
-.858
.404
-.524
.404
-.396
.404
-.534
.404
-.43
.403
-.312
.404
-.486
.404
-.429
.404
-.3
.404
-.489
.404
-.446
.404
-.323
.403
-.517
.404
-.483
.404
-.368
.404
-.484
.404
-.605
.404
-.51
.404
-.637
.404
-.45
.403
-.436
.404
-.644
.404
-.483
.404
-.449
.404
-.539
.404
-.446
.404
-.298
.404
-.432
.403
-.325
.404
-.358
.404
-.434
.404
-.435
.404
-.403
.404
-.402
.404
-.415
.403
-.352
.404
-.391
.404
-.387
.404
-.327
.404
-.378
.404
-.388
.404
-.42
.404
-.503
.403
-.359
.404
-.388
.404
-.406
.404
-.298
.404
-.32
.404
-.333
.404
-.204
.403
-.25
.404
-.571
.404
-.395
.404
-.371
.404
-.502
.404
-.211
.404
-.281
.404
-.265
.403
-.212
.404
-.32
.404
-.327
.404
-.374
.404
-.394
.404
-.627
.404
-.533
.403
-.285
.404
-.386
.404
-.265
.404
-.32
.404
-.368
.404
-.33
.404
-.263
.404
-.403
.403
-.443
.404
-.327
.404
-.446
.404
-.227
.404
-.223
.404
-.298
.404
-.281
.404
-.251
.403
-.407
.404
-.34
.404
-.347
.404
-.469
.404
-.352
.404
-.186
.404
-.346
.403
-.254
.404
-.229
.404
-.288
.404
-.283
.404
-.325
.404
-.428
.404
-.458
.404
-.46
.403
-.478
.404
-.344
.404
-.263
.404
-.326
.404
-.273
.404
-.294
.404
-.396
.403
-.266
.404
-.249
.404
-.554
.404
-.474
.404
-.292
.404
-.301
.404
-.216
.404
-.17
.403
-.361
.404
-.239
.404
-.237
.404
-.463
.404
-.497
.404
-.374
.404
-.506
.403
-.269
.404
-.246
.404
-.423
.404
-.273
.404
-.261
.404
-.37
.404
-.396
.404
-.253
.403
-.419
.404
-.269
.404
-.173
.404
-.373
.404
-.25
.404
-.152
.404
-.23
.404
-.234
.403
-.393
.404
-.462
.404
-.466
.404
-.31
.404
-.305
.404
-.178
.404
-.269
.403
-.314
.404
-.174
.404
-.181
.404
-.311
.404
-.19
.404
-.262
.404
-.286
.404
-.257
.403
-.167
.404
-.231
.404
-.126
.404
-.172
.404
-.234
.404
-.158
.404
-.106
.403
-.368
.404
-.362
.404
-.354
.404
-.352
.404
-.27
.404
-.167
.404
-.272
.404
-.169
.403
-.237
.404
-.345
.404
-.282
.404
-.247
.404
-.369
.404
-.262
.404
-.254
.403
-.299
.404
-.246
.404
-.278
.404
-.411
.404
-.245
.404
-.229
.404
-.24
.404
-.277
.403
-.273
.404
-.301
.404
-.174
.404
-.109
.404
-.258
.404
-.215
.404
-.167
.404
-.201
.403
-.191
.404
-.149
.404
-.236
.404
-.216
.404
-.122
.404
-.279
.404
-.264
.403
-.114
.404
-.165
.404
-.13
.404
-.144
.404
-.273
.404
-.275
.404
-.2
.404
-.187
.403
-.193
.404
-.242
.404
-.19
.404
-.137
.404
-.162
.404
-.269
.404
-.169
.403
-.204
.404
-.342
.404
-.276
.404
-.142
.404
-.221
.404
-.288
.404
-.228
.404
-.294
.403
-.224
.404
-.251
.404
-.294
.404
-.228
.404
-.213
.404
-.271
.404
-.231
.404
-.211
.403
-.331
.404
-.198
.404
-.154
.404
-.32
.404
-.113
.404
-.194
.404
-.313
.403
-.163
.404
-.188
.404
-.235
.404
-.142
.404
-.145
.404
-.148
.404
-.107
.404
-.2
.403
-.274
.404
-.252
.404
-.308
.404
-.368
.404
-.168
.404
-.199
.404
-.193
.403
-.266
.404
-.296
.404
-.222
.404
-.161
.404
-.261
.404
-.313
.404
-.438
.404
-.272
.403
-.334
.404
-.193
.404
-.177
.404
-.238
.404
-.102
.404
-.15
.404
-.379
.403
-.416
.404
-.305
.404
-.424
.404
-.236
.404
-.201
.404
-.241
.404
-.238
.404
-.202
.403
-.317
.404
-.19
.404
-.316
.404
-.471
.404
-.331
.404
-.238
.404
-.355
.404
-.236
.403
-.172
.404
-.364
.404
-.294
.404
-.327
.404
-.322
.404
-.375
.404
-.501
.403
-.544
.404
-.297
.404
-.309
.404
-.45
.404
-.307
.404
-.229
.404
-.295
.404
-.25
.403
-.251
.404
-.404
.404
-.353
.404
-.145
.404
-.315
.404
-.27
.404
-.311
.403
-.307
.404
-.183
.404
-.27
.404
-.402
.404
-.372
.404
-.248
.404
-.38
.404
-.191
.403
-.244
.404
-.276
.404
-.179
.404
-.213
.404
-.282
.404
-.225
.404
-.226
.403
-.42
.404
-.234
.404
-.2
.404
-.18
.404
-.167
.404
-.223
.404
-.208
.404
-.127
.403
-.159
.404
-.338
.404
-.212
.404
-.162
.404
-.315
.404
-.221
.404
-.093
.404
-.189
.403
-.253
.404
-.19
.404
-.258
.404
-.28
.404
-.268
.404
-.413
.404
-.287
.403
-.185
.404
-.033
.404
-.004
.404
-.002
.404
-.002
.404
-.004
.404
-.004
.404
-.005
.403
-.022
.404
-.017
.404
-.01
.404
-.027
.404
-.043
.404
-.031
.404
-.039
.403
-.076
.404
-.103
.404
-.258
.404
-.174
.404
-.163
.404
-.148
.404
-.14
.404
-.161
.403
-.204
.404
-.183
.404
-.218
.404
-.225
.404
-.2
.404
-.242
.404
-.185
.403
-.141
.404
-.205
.404
-.219
.404
-.095
.404
-.143
.404
-.211
.404
-.119
.404
-.125
.403
-.185
.404
-.148
.404
-.215
.404
-.181
.404
-.108
.404
-.163
.404
-.143
.404
-.135
.403
-.093
.404
-.116
.404
-.069
.404
-.124
.404
-.132
.404
-.166
.404
-.236
.403
-.149
.404
-.096
.404
-.207
.404
-.158
.404
-.142
.404
-.149
.404
-.208
.404
-.143
.403
-.2
.404
-.136
.404
-.105
.404
-.161
.404
-.178
.404
-.186
.404
-.121
.403
-.166
.404
-.142
.404
-.178
.404
-.253
.404
-.19
.404
-.244
.404
-.135
.404
-.119
.403
-.166
.404
-.166
.404
-.139
.404
-.187
.404
-.211
.404
-.133
.404
-.238
.404
-.21
.403
-.171
.404
-.247
.404
-.142
.404
-.11
.404
-.086
.404
-.121
.404
-.152
.403
-.166
.404
-.349
.404
-.173
.404
-.265
.404
-.124
.404
-.121
.404
-.149
.404
-.221
.403
-.075
.404
-.162
.404
-.178
.404
-.161
.404
-.246
.404
-.304
.404
-.158
.403
-.266
.404
-.123
.404
-.165
.404
-.298
.404
-.217
.404
-.149
.404
-.24
.404
-.257
.403
-.139
.404
-.317
.404
-.144
.404
-.144
.404
-.208
.404
-.214
.404
-.146
.403
-.243
.404
-.189
.404
-.197
.404
-.291
.404
-.289
.404
-.209
.404
-.2
.404
-.266
.403
-.159
.404
-.164
.404
-.148
.404
-.211
.404
-.181
.404
-.194
.404
-.179
.404
-.19
.403
-.214
.404
-.065
.404
-.099
.404
-.151
.404
-.119
.404
-.285
.404
-.166
.403
-.117
.404
-.155
.404
-.332
.404
-.113
.404
-.167
.404
-.226
.404
-.17
.404
-.111
.403
-.148
.404
-.092
.404
-.125
.404
-.143
.404
-.148
.404
-.27
.404
-.188
.403
-.128
.404
-.236
.404
-.17
.404
-.172
.404
-.128
.404
-.13
.404
-.097
.404
-.165
.403
-.184
.404
-.081
.404
-.11
.404
-.119
.404
-.111
.404
-.132
.404
-.158
.403
-.173
.404
-.187
.404
-.104
.404
-.109
.404
-.177
.404
-.156
.404
-.099
.404
-.176
.403
-.164
.404
-.129
.404
-.154
.404
-.161
.404
-.173
.404
-.237
.404
-.325
.404
-.202
.403
-.215
.404
-.148
.404
-.143
.404
-.198
.404
-.138
.404
-.108
.404
-.132
.403
-.138
.404
-.152
.404
-.163
.404
-.23
.404
-.165
.404
-.264
.404
-.25
.404
-.255
.403
-.259
.404
-.229
.404
-.263
.404
-.283
.404
-.142
.404
-.187
.404
-.338
.403
-.176
.404
-.159
.404
-.22
.404
-.152
.404
-.077
.404
-.455
.404
-.394
.404
-.391
.403
-.421
.404
-.339
.404
-.244
.404
-.381
.404
-.4
.404
-.247
.404
-.232
.404
-.282
.403
-.259
.404
-.289
.404
-.319
.404
-.21
.404
-.13
.404
-.237
.404
-.134
.403
-.142
.404
-.188
.404
-.177
.404
-.206
.404
-.249
.404
-.248
.404
-.191
.404
-.193
.403
-.171
.404
-.151
.404
-.104
.404
-.077
.404
-.089
.404
-.113
.404
-.133
.403
-.093
.404
-.149
.404
-.101
.404
-.117
.404
-.104
.404
-.13
.404
-.105
.404
-.189
.403
-.136
.404
-.15
.404
-.115
.404
-.171
.404
-.177
.404
-.157
.404
-.12
.403
-.147
.404
-.109
.404
-.123
.404
-.081
.404
-.1
.404
-.109
.404
-.091
.404
-.159
.403
-.129
.404
-.111
.404
-.112
.404
-.133
.404
-.118
.404
-.151
.404
-.097
.404
-.171
.403
-.232
.404
-.221
.404
-.308
.404
-.133
.404
-.152
.404
-.159
.404
-.098
.403
-.166
.404
-.165
.404
-.165
.404
-.216
.404
-.384
.404
-.169
.404
-.11
.404
-.237
.403
-.142
.404
-.077
.404
-.157
.404
-.132
.404
-.103
.404
-.182
.404
-.208
.403
-.203
.404
-.288
.404
-.111
.404
-.098
.404
-.141
.404
-.124
.404
-.07
.404
-.084
.403
-.125
.404
-.063
.404
-.118
.404
-.105
.404
-.079
.404
-.098
.404
-.06
.403
-.096
.404
-.141
.404
-.118
.404
-.089
.404
-.183
.404
-.144
.404
-.13
.404
-.191
.403
-.054
.404
-.071
.404
-.126
.404
-.074
.404
-.079
.404
-.099
.404
-.064
.404
-.076
.403
-.183
.404
-.113
.404
-.041
.404
-.049
.404
-.07
.404
-.102
.404
-.099
.403
-.15
.404
-.079
.404
-.164
.404
-.228
.404
-.169
.404
-.251
.404
-.179
.404
-.114
.403
-.109
.404
-.107
.404
-.125
.404
-.097
.404
-.084
.404
-.146
.404
-.145
.403
-.158
.404
-.083
.404
-.146
.404
-.059
.404
-.071
.404
-.144
.404
-.091
.404
-.093
.403
-.106
.404
-.134
.404
-.122
.404
-.132
.404
-.078
.404
-.108
.404
-.128
.403
-.113
.404
-.105
.404
-.143
.404
-.099
.404
-.115
.404
-.176
.404
-.176
.404
-.069
.403
-.099
.404
-.113
.404
-.075
.404
-.102
.404
-.079
.404
-.043
.404
-.099
.404
-.05
.403
-.027
.404
-.068
.404
-.094
.404
-.049
.404
-.054
.404
-.104
.404
-.164
.403
-.106
.404
-.152
.404
-.059
.404
-.085
.404
-.067
.404
-.092
.404
-.091
.404
-.048
.403
-.066
.404
-.113
.404
-.088
.404
-.083
.404
-.15
.404
-.148
.404
-.078
.403
-.141
.404
-.078
.404
-.142
.404
-.105
.404
-.051
.404
-.063
.404
-.105
.404
-.085
.403
-.097
.404
-.172
.404
-.051
.404
-.127
.404
-.104
.404
-.083
.404
-.066
.404
-.081
.403
-.061
.404
-.08
.404
-.085
.404
-.137
.404
-.113
.404
-.235
.404
-.168
.403
-.134
.404
-.159
.404
-.12
.404
-.112
.404
-.191
.404
-.197
.404
-.104
.404
-.18
.403
-.109
.404
-.066
.404
-.123
.404
-.085
.404
-.093
.404
-.065
.404
-.136
.403
-.083
.404
-.098
.404
-.093
.404
-.11
.404
-.079
.404
-.089
.404
-.08
.404
-.09
.403
-.13
.404
-.096
.404
-.167
.404
-.102
.404
-.106
.404
-.132
.404
-.127
.403
-.137
.404
-.149
.404
-.105
.404
-.063
.404
-.129
.404
-.11
.404
-.1
.404
-.127
.403
-.145
.404
-.205
.404
-.26
.404
-.186
.404
-.101
.404
-.112
.404
-.087
.404
-.098
.403
-.139
.404
-.089
.404
-.071
.404
-.185
.404
-.161
.404
-.081
.404
-.141
.403
-.118
.404
-.108
.404
-.118
.404
-.156
.404
-.185
.404
-.12
.404
-.121
.404
-.082
.403
-.101
.404
-.09
.404
-.038
.404
-.172
.404
-.075
.404
-.121
.404
-.154
.403
-.127
.404
-.179
.404
-.169
.404
-.118
.404
-.116
.404
-.193
.404
-.098
.404
-.104
.403
-.171
.404
-.108
.404
-.128
.404
-.176
.404
-.086
.404
-.096
.404
-.151
.403
-.102
.404
-.189
.404
-.102
.404
-.175
.404
-.15
.404
-.094
.404
-.087
.404
-.117
.403
-.229
.404
-.221
.404
-.144
.404
-.193
.404
-.123
.404
-.145
.404
-.22
.404
-.167
.403
-.143
.404
-.145
.404
-.097
.404
-.121
.404
-.112
.404
-.127
.404
-.113
.403
-.131
.404
-.103
.404
-.121
.404
-.179
.404
-.136
.404
-.085
.404
-.081
.404
-.099
.403
-.096
.404
-.092
.404
-.062
.404
-.067
.404
-.109
.404
-.057
.404
-.07
.403
-.101
.404
-.099
.404
-.086
.404
-.135
.404
-.07
.404
-.113
.404
-.073
.404
-.149
.403
-.066
.404
-.123
.404
-.047
.404
-.057
.404
-.163
.404
-.086
.404
-.099
.404
-.046
.403
-.069
.404
-.116
.404
-.072
.404
-.069
.404
-.024
.404
-.072
.404
-.031
.403
-.067
.404
-.047
.404
-.111
.404
-.114
.404
-.108
.404
-.037
.404
-.064
.404
-.051
.403
-.034
.404
-.02
.404
-.094
.404
-.071
.404
-.08
.404
-.032
.404
-.061
.403
-.057
.404
-.093
.404
-.025
.404
-.045
.404
-.039
.404
-.086
.404
-.085
.404
-.061
.403
-.053
.404
-.052
.404
-.04
.404
-.035
.404
-.019
.404
-.018
.404
-.038
.403
-.062
.404
-.011
.404
-.033
.404
-.014
.404
-.027
.404
-.017
.404
-.014
.404
-.018
.403
-.013
.404
-.008
.404
-.027
.404
-.05
.404
-.02
.404
-.03
.404
-.001
.404
-.039
.403
-.034
.404
-.041
.404
-.023
.404
-.076
.404
-.028
.404
-.021
.404
-.028
.403
-.038
.404
-.037
.404
-.011
.404
-.008
.404
-.015
.404
-.017
.404
-.026
.404
-.038
.403
-.035
.404
-.028
.404
-.048
.404
-.062
.404
-.039
.404
-.038
.404
-.042
.403
-.012
.404
-.041
.404
-.057
.404
-.028
.404
-.073
.404
-.065
.404
-.041
.404
-.062
.403
-.027
.404
-.023
.404
-.02
.404
-.051
.404
-.086
.404
-.019
.404
-.072
.403
-.054
.404
-.029
.404
-.027
.404
-.016
.404
-.033
.404
-.038
.404
-.054
.404
-.049
.403
-.061
.404
-.047
.404
-.014
.404
-.059
.404
-.031
.404
-.022
.404
-.002
.404
-.025
.403
-.026
.404
-.034
.404
-.044
.404
-.016
.404
-.034
.404
-.017
.404
-.018
.403
-.019
.404
-.021
.404
-.017
.404
-.04
.404
-.022
.404
-.028
.404
-.068
.404
-.044
.403
-.029
.404
-.039
.404
-.06
.404
-.053
.404
-.025
.404
-.042
.404
-.051
.403
-.039
.404
-.027
.404
-.043
.404
-.07
.404
-.013
.404
-.011
.404
-.036
.404
-.069
.403
-.028
.404
-.073
.404
-.047
.404
-.029
.404
-.093
.404
-.061
.404
-.024
.403
-.06
.404
-.018
.404
-.041
.404
-.003
.404
-.031
.404
-.018
.404
-.015
.404
-.033
.403
-.028
.404
-.051
.404
-.049
.404
-.086
.404
-.032
.404
-.039
.404
-.014
.404
-.046
.403
-.04
.404
-.071
.404
-.017
.404
-.031
.404
-.055
.404
-.05
.404
-.017
.403
-.051
.404
-.04
.404
-.005
.404
-.028
.404
-.036
.404
-.05
.404
-.036
.404
-.032
.403
-.023
.404
-.059
.404
-.071
.404
-.039
.404
-.025
.404
-.07
.404
-.033
.403
-.029
.404
-.016
.404
-.027
.404
-.02
.404
-.058
.404
-.031
.404
-.015
.404
-.013
.403
-.046
.404
-.007
.404
-.04
.404
-.034
.404
-.024
.404
-.008
.404
-.001
.404
-.011
.403
-.008
.404
-.014
.404
-.03
.404
-.013
.404
-.013
.404
-.014
.404
-.012
.403
-.027
.404
-.058
.404
-.008
.404
-.037
.404
-.073
.404
-.106
.404
-.082
.404
-.022
.403
-.023
.404
-.033
.404
-.023
.404
-.019
.404
-.033
.404
-.051
.404
-.061
.403
-.031
.404
-.018
.404
-.002
.404
-.026
.404
-.062
.404
-.026
.404
-.021
.404
-.03
.403
-.026
.404
-.049
.404
-.035
.404
-.067
.404
-.003
.404
-.004
.404
-.017
.403
-.024
.404
-.001
.404
-.067
.404
-.021
.404
-.051
.404
-.059
h.404
l.404
-.002
.403
-.006
.404
-.008
.404
-.013
.404
-.014
.404
-.005
.404
-.038
.404
-.019
.404
-.018
.403
-.008
.404
-.003
.404
-.004
.404
-.001
.404
-.002
.404
-.002
.404
-.025
.403
-.038
.404
-.09
.404
-.094
.404
-.051
.404
-.014
h.404
l.404
-.036
.404
-.035
.403
-.023
.404
-.032
.404
-.078
.404
-.063
.404
-.035
.404
-.061
.404
-.03
.403
-.02
.404
-.027
.404
-.016
.404
-.043
.404
-.048
.404
-.022
.404
-.007
.404
-.05
.403
-.045
.404
-.065
.404
-.018
.404
-.002
.404
-.005
.404
-.017
.404
-.024
.403
-.015
.404
-.006
.404
-.014
.404
-.002
.404
-.025
.404
-.027
.404
-.044
.404
-.008
.403
-.015
.404
-.019
.404
-.016
.404
-.036
.404
-.033
.404
-.041
.404
-.024
.404
-.009
.403
-.016
.404
-.02
.404
-.033
.404
-.007
.404
-.017
.404
-.039
.404
-.04
.403
-.004
.404
-.026
.404
-.018
.404
-.017
.404
-.011
.404
-.019
.404
-.001
.404
-.002
.403
-.021
h.404
l.404
-.022
.404
-.026
h.404
l.404
-.013
.404
-.013
.403
-.023
.404
-.028
.404
-.032
.404
-.006
.404
-.016
.404
-.003
.404
-.01
.404
-.015
.403
-.049
.404
-.003
.404
-.025
.404
-.022
.404
-.008
.404
-.028
.404
-.025
.403
-.031
.404
-.041
.404
-.04
.404
-.029
.404
-.047
.404
-.008
.404
-.017
.404
-.012
.403
-.011
.404
-.003
.404
-.001
.404
-.004
.404
-.016
.404
-.014
.404
-.008
.404
-.015
.403
-.027
.404
-.011
.404
-.038
.404
-.013
.404
-.013
.404
-.012
.404
-.021
.403
-.008
.404
-.012
.404
-.041
.404
-.013
.404
-.024
.404
-.026
.404
-.002
.404
-.012
.403
-.021
.404
-.023
.404
-.003
.404
-.04
.404
-.022
.404
-.01
.404
-.014
.403
-.041
.404
-.016
.404
-.022
.404
-.014
.404
-.013
.404
-.041
.404
-.001
h.404
l.403
-.035
.404
-.056
.404
-.029
.404
-.004
.404
-.003
.404
-.001
.404
-.014
.404
-.012
.403
-.016
.404
-.047
.404
-.031
.404
-.024
.404
-.014
.404
-.051
.404
-.043
.403
-.009
.404
-.028
.404
-.009
.404
-.017
.404
-.004
.404
-.021
.404
-.016
.404
-.025
.403
-.033
.404
-.097
.404
-.043
.404
-.035
.404
-.064
.404
-.054
.404
-.025
.403
-.074
.404
-.006
.404
-.039
.404
-.015
.404
-.039
.404
-.014
.404
-.045
.404
-.021
.403
-.028
.404
-.039
.404
-.032
.404
-.045
.404
-.051
.404
-.014
.404
-.011
.403
-.058
.404
-.031
.404
-.034
.404
-.042
.404
-.029
.404
-.031
.404
-.023
.404
-.052
.403
-.021
.404
-.027
.404
-.051
.404
-.039
.404
-.068
.404
-.043
.404
-.013
.404
-.025
.403
-.02
.404
-.009
.404
-.077
.404
-.03
.404
-.028
.404
-.025
.404
-.055
.403
-.019
.404
-.011
.404
-.014
.404
-.006
.404
-.044
.404
-.025
.404
-.028
.404
-.005
.403
-.009
.404
-.009
.404
-.054
.404
-.035
.404
-.047
.404
-.046
.404
-.102
.403
-.098
.404
-.093
.404
-.064
.404
-.089
.404
-.105
.404
-.039
.404
-.101
.404
-.073
.403
-.052
.404
-.084
.404
-.06
.404
-.097
.404
-.045
.404
-.109
.404
-.051
.403
-.048
.404
-.049
.404
-.017
.404
-.062
.404
-.091
.404
-.039
.404
-.043
.404
-.143
.403
-.04
.404
-.069
.404
-.069
.404
-.071
.404
-.034
.404
-.094
.404
-.07
.404
-.045
.403
-.042
.404
-.041
.404
-.035
.404
-.048
.404
-.01
.404
-.013
.404
-.04
.403
-.03
.404
-.056
.404
-.057
.404
-.019
.404
-.048
.404
-.023
.404
-.022
.404
-.036
.403
-.035
.404
-.018
.404
-.009
.404
-.045
.404
-.038
.404
-.046
.404
-.056
.403
-.07
.404
-.032
.404
-.037
.404
-.02
.404
-.062
.404
-.027
.404
-.017
.404
-.036
.403
-.032
.404
-.014
.404
-.036
.404
-.044
.404
-.025
.404
-.049
.404
-.016
.404
-.069
.403
-.008
.404
-.034
.404
-.023
.404
-.02
.404
-.017
.404
-.039
.404
-.018
.403
-.022
.404
-.016
.404
-.01
h4.847
l.403
-.001
.404
-.059
.404
-.031
.404
-.031
.404
-.029
.404
-.023
.404
-.014
.404
-.037
.403
-.034
.404
-.016
.404
-.02
.404
-.025
.404
-.014
.404
-.013
.404
-.006
.403
-.02
.404
-.012
.404
-.01
.404
-.007
.404
-.002
h.404
l.404
-.02
.404
-.019
.403
-.009
.404
-.012
.404
-.01
.404
-.011
.404
-.005
.404
-.019
.404
-.027
.404
-.066
.403
-.033
.404
-.048
.404
-.088
.404
-.044
.404
-.009
.404
-.025
.404
-.083
.403
-.018
.404
-.003
.404
-.053
.404
-.012
.404
-.041
.404
-.044
.404
-.015
.404
-.009
.403
-.042
.404
-.024
.404
-.004
L770
60" aria-label="line"/>
</svg>
