<svg xmlns="http://www.w3.org/2000/svg" width="830" height="470" fill="currentColor" class="plot-d6a7b5" font-family="system-ui, sans-serif" font-size="10" style="--plot-background:white;display:block;height:intrinsic;max-width:100%;color:#1e90ff" text-anchor="middle" viewBox="0 0 830 470">
    <style>
        :where(.plot-d6a7b5 text),:where(.plot-d6a7b5 tspan){white-space:pre}
    </style>
    <path stroke="currentColor" stroke-opacity=".1" d="
M60
410
h710
M60
362.919
h710
M60
315.838
h710
M60
268.757
h710
M60
221.676
h710
M60
174.595
h710
M60
127.514
h710
M60
80.433
h710" aria-hidden="true" aria-label="y-grid"/>
    <path fill="none" stroke="currentColor" d="
M60
410
h-6
m6
-47.081
h-6
m6
-47.081
h-6
m6
-47.081
h-6
m6
-47.081
h-6
m6
-47.081
h-6
m6
-47.081
h-6
m6
-47.081
h-6" aria-hidden="true" aria-label="y-axis tick"/>
    <g aria-label="y-axis tick label" font-variant="tabular-nums" text-anchor="end">
        <text y=".32em" transform="translate(51 410)">0</text>
        <text y=".32em" transform="translate(51 362.919)">2,000</text>
        <text y=".32em" transform="translate(51 315.838)">4,000</text>
        <text y=".32em" transform="translate(51 268.757)">6,000</text>
        <text y=".32em" transform="translate(51 221.676)">8,000</text>
        <text y=".32em" transform="translate(51 174.595)">10,000</text>
        <text y=".32em" transform="translate(51 127.514)">12,000</text>
        <text y=".32em" transform="translate(51 80.433)">14,000</text>
    </g>
    <text y=".71em" aria-label="y-axis label" text-anchor="start" transform="translate(3 3)">↑ Visible vestiges (8 days)</text>
    <path fill="none" stroke="currentColor" d="
M80.597
410
v6
m55.128
-6
v6
m55.734
-6
v6
m55.734
-6
v6
m55.127
-6
v6
m55.129
-6
v6
m55.734
-6
v6
m55.733
-6
v6
m54.523
-6
v6
m55.128
-6
v6
m55.733
-6
v6
m55.734
-6
v6
m54.522
-6
v6" aria-hidden="true" aria-label="x-axis tick"/>
    <g aria-label="x-axis tick label" font-variant="tabular-nums">
        <text transform="translate(80.597 419)"><tspan x="0" y=".71em">Apr</tspan><tspan x="0" dy="1em">2023</tspan></text>
        <text y=".71em" transform="translate(135.725 419)">Jul</text>
        <text y=".71em" transform="translate(191.459 419)">Oct</text>
        <text transform="translate(247.193 419)"><tspan x="0" y=".71em">Jan</tspan><tspan x="0" dy="1em">2024</tspan></text>
        <text y=".71em" transform="translate(302.32 419)">Apr</text>
        <text y=".71em" transform="translate(357.449 419)">Jul</text>
        <text y=".71em" transform="translate(413.183 419)">Oct</text>
        <text transform="translate(468.916 419)"><tspan x="0" y=".71em">Jan</tspan><tspan x="0" dy="1em">2025</tspan></text>
        <text y=".71em" transform="translate(523.439 419)">Apr</text>
        <text y=".71em" transform="translate(578.567 419)">Jul</text>
        <text y=".71em" transform="translate(634.3 419)">Oct</text>
        <text transform="translate(690.034 419)"><tspan x="0" y=".71em">Jan</tspan><tspan x="0" dy="1em">2026</tspan></text>
        <text y=".71em" transform="translate(744.556 419)">Apr</text>
    </g>
    <path fill="none" stroke="currentColor" stroke-linecap="round" stroke-linejoin="round" stroke-width="1.5" d="
m60
410
.404
-11.817
.404
-43.221
.404
-23.305
.403
-16.525
.404
-27.26
.404
-21.469
.404
-20.127
.404
-28.908
.404
10.994
.404
-14.949
.404
-42.726
.403
-28.601
.404
-7.533
.404
-21.846
.404
12.218
.404
-.448
.404
-4.472
.404
30.485
.403
27.66
.404
-9.275
.404
-.471
.404
-1.554
.404
-18.62
.404
18.432
.404
6.097
.404
-12.688
.403
-.871
.404
12.311
.404
-11.935
.404
9.416
.404
-13.841
.404
-36.441
.404
-6.003
.404
11.982
.403
1.836
.404
20.693
.404
24.67
.404
6.215
.404
27.895
.404
25.118
.404
-23.188
.403
-24.34
.404
-25.871
.404
-39.949
.404
-6.826
.404
-1.789
.404
-23.188
.404
12.736
.404
25.4
.403
-1.883
.404
9.722
.404
-5.509
.404
-30.438
.404
-15.277
.404
6.285
.404
-19.256
.403
7.109
.404
9.84
.404
-8.969
.404
13.442
.404
16.808
.404
-20.881
.404
-3.554
.404
-1.154
L86.251
60
l.404
17.561
.404
17.82
.404
-1.459
.404
15.466
.404
22.575
.404
7.698
.403
19.774
.404
.047
.404
-14.548
.404
-1.412
.404
10.357
.404
-9.157
.404
6.803
.404
19.398
.403
6.497
.404
17.749
.404
15.537
.404
-13.441
.404
-3.861
.404
-3.013
.404
-24.977
.404
-1.624
.403
8.898
.404
-15.348
.404
7.957
.404
23.234
.404
2.731
.404
15.937
.404
1.742
.403
-19.751
.404
11.464
.404
2.025
.404
-8.687
.404
5.862
.404
5.815
.404
-7.157
.404
19.233
.403
13.724
.404
-4.12
.404
-12.57
.404
-7.18
.404
-16.808
.404
9.981
.404
-3.719
.403
-14.313
.404
9.864
.404
15.56
.404
-.447
.404
14.877
.404
-2.778
.404
-6.356
.404
7.392
.403
1.036
.404
-1.224
.404
9.534
.404
4.072
.404
.942
.404
9.345
.404
8.616
.404
-8.663
.403
-17.066
.404
-8.969
.404
-19.257
.404
4.591
.404
-5.532
.404
-8.498
.404
6.403
.403
23.446
.404
-5.202
.404
11.44
.404
-5.697
.404
-15.419
.404
-3.389
.404
-1.884
.404
-10.004
.403
4.943
.404
4.214
.404
6.12
.404
11.865
.404
13.183
.404
3.389
.404
6.309
.403
10.146
.404
-4.967
.404
2.448
.404
8.993
.404
-10.758
.404
3.319
.404
2.542
.404
-.306
.403
4.308
.404
-2.142
.404
-2.26
.404
3.013
.404
.353
.404
-5.72
.404
-.235
.403
3.531
.404
-5.909
.404
-.118
.404
6.898
.404
-4.52
.404
1.224
.404
3.79
.404
-8.498
.403
6.38
.404
.894
.404
-6.662
.404
3.013
.404
10.57
.404
-6.662
.404
9.863
.404
-.706
.403
-4.355
.404
3.861
.404
-2.119
.404
-13.277
.404
-.211
.404
-1.648
.404
-11.158
.403
-.448
.404
5.626
.404
-1.718
.404
3.437
.404
10.169
.404
-3.295
.404
18.455
.404
9.134
.403
-6.615
.404
4.449
.404
6.074
.404
-12.665
.404
4.92
.404
-1.813
.404
-5.908
.403
.565
.404
3.719
.404
-9.91
.404
9.416
.404
.07
.404
-6.92
.404
4.684
.404
-.471
.403
-8.404
.404
4.026
.404
-2.26
.404
-2.778
.404
-1.483
.404
-.424
.404
3.508
.403
5.673
.404
7.251
.404
-7.015
.404
5.602
.404
7.321
.404
-3.036
.404
.447
.404
-2.448
.403
-14.666
.404
3.602
.404
3.083
.404
-12.076
.404
.753
.404
-1.483
.404
-5.438
.404
11.064
.403
2.307
.404
-10.075
.404
6.898
.404
2.048
.404
-10.264
.404
4.637
.404
-1.647
.403
-4.614
.404
-4.026
.404
-4.308
.404
-20.762
.404
5.108
.404
4.331
.404
-5.155
.404
4.237
.403
12.43
.404
4.684
.404
20.645
.404
10.758
.404
-4.52
.404
4.285
.404
5.132
.403
-9.864
.404
.118
.404
2.919
.404
-8.828
.404
-5.555
.404
-3.108
.404
-15.042
.404
3.201
.403
2.307
.404
-13.277
.404
.024
.404
7.509
.404
-1.365
.404
9.134
.404
7.297
.404
.189
.403
15.301
.404
6.026
.404
.73
.404
4.967
.404
2.095
.404
-4.99
.404
.777
.403
-1.272
.404
-1.577
.404
2.236
.404
5.203
.404
1.2
.404
.66
.404
-.212
.404
-7.251
.403
1.53
.404
-.047
.404
-3.813
.404
3.813
.404
3.32
.404
4.143
.404
14.359
.403
5.226
.404
-8.78
.404
.541
.404
-3.484
.404
-8.78
.404
5.908
.404
-3.719
.404
-.73
.403
17.232
.404
3.601
.404
2.119
.404
6.144
.404
-8.78
.404
-16.62
.404
-12.83
.403
-3.554
.404
-3.131
.404
2.942
.404
2.637
.404
1.201
.404
14.265
.404
12.947
.404
-5.626
.403
-2.754
.404
-2.99
.404
-6.05
.404
6.804
.404
5.155
.404
-1.695
.404
5.838
.404
9.228
.403
-3.837
.404
5.085
.404
-5.791
.404
-11.818
.404
-2.566
.404
4.567
.404
-4.567
.403
7.345
.404
5.344
.404
2.825
.404
8.945
.404
1.248
.404
-11.606
.404
-5.391
.404
-9.84
.403
-11.982
.404
-2.707
.404
.965
.404
-.023
.404
7.462
.404
7.839
.404
3.037
.403
10.193
.404
4.59
.404
-13.983
.404
-7.085
.404
-.919
.404
-.306
.404
8.64
.404
4.567
.403
-5.344
.404
15.137
.404
11.322
.404
-8.192
.404
-9.439
.404
-7.557
.404
-16.125
.403
4.426
.404
-.354
.404
-8.898
.404
9.063
.404
11.394
.404
.141
.404
5.344
.404
.73
.403
-8.31
.404
7.391
.404
4.803
.404
-5.391
.404
5.791
.404
11.676
.404
1.13
.404
8.875
.403
-5.933
.404
-13.888
.404
-4.45
.404
-2.872
.404
-7.391
.404
2.472
.404
-1.625
.403
3.743
.404
13.889
.404
13.63
.404
-.047
.404
5.579
.404
-4.025
.404
-.871
.404
2.777
.403
.306
.404
-2.354
.404
8.875
.404
.824
.404
1.342
.404
6.167
.404
7.251
.403
-9.652
.404
-6.309
.404
-10.946
.404
-8.639
.404
-1.719
.404
-.447
.404
-7.98
.404
9.581
.403
6.003
.404
.4
.404
3.413
.404
1.083
.404
-9.699
.404
.471
.404
-4.096
.403
-2.99
.404
4.803
.404
.141
.404
-7.863
.404
6.003
.404
1.578
.404
.659
.404
1.059
.403
-1.318
.404
-1.083
.404
11.37
.404
6.521
.404
-1.366
.404
1.177
.404
5.297
.404
3.46
.403
5.297
.404
1.177
.404
-6.121
.404
2.001
.404
4.52
.404
-5.391
.404
-3.013
.403
3.673
.404
-.754
.404
5.085
.404
3.484
.404
-7.298
.404
.212
.404
3.061
.404
-3.508
.403
-1.318
.404
-5.391
.404
-2.213
.404
6.544
.404
5.391
.404
-3.319
.404
.918
.403
-.565
.404
-4.779
.404
-4.143
.404
-.212
.404
-2.848
.404
-.895
.404
-2.871
.404
-4.308
.403
5.673
.404
1.2
.404
-7.344
.404
-.283
.404
3.578
.404
-2.048
.404
3.014
.404
.588
.403
-3.837
.404
4.637
.404
3.555
.404
-5.132
.404
7.557
.404
1.812
.404
-4.896
.403
8.098
.404
.471
.404
-3.908
.404
8.545
.404
-1.553
.404
2.236
.404
9.887
.404
-1.836
.403
-4.096
.404
-.848
.404
-7.956
.404
-10.641
.404
-1.012
.404
-4.402
.404
.377
.403
.353
.404
-2.119
.404
4.12
.404
9.934
.404
-4.449
.404
-5.485
.404
-11.794
.404
-.283
.403
-1.789
.404
1.413
.404
-.801
.404
1.107
.404
10.146
.404
13.841
.404
-5.131
.403
-3.955
.404
-5.391
.404
-11.888
.404
.094
.404
-4.731
.404
-4.402
.404
6.803
.404
10.287
.403
-.612
.404
11.299
.404
-3.86
.404
-12.995
.404
-4.26
.404
-.071
.404
-7.321
.404
3.931
.403
.8
.404
-2.307
.404
8.546
.404
.164
.404
-4.001
.404
-1.013
.404
-12.712
.403
-17.843
.404
3.248
.404
-.753
.404
-5.932
.404
.753
.404
7.039
.404
9.863
.404
14.125
.403
2.165
.404
-4.543
.404
4.685
.404
7.721
.404
-4.12
.404
1.224
.404
-2.942
.403
-2.637
.404
10.57
.404
4.002
.404
-12.335
.404
-2.731
.404
1.036
.404
-3.32
.404
5.556
.403
-2.919
.404
-.283
.404
10.711
.404
7.628
.404
-1.648
.404
7.486
.404
-1.719
.403
-8.427
.404
1.977
.404
-.989
.404
1.601
.404
5.509
.404
.094
.404
.894
.404
14.03
.403
3.649
.404
-6.638
.404
-1.577
.404
.306
.404
-4.473
.404
-.612
.404
1.648
.404
-1.483
.403
4.096
.404
1.106
.404
-4.637
.404
1.694
.404
-2.259
.404
-15.396
.404
-4.684
.403
3.272
.404
7.509
.404
12.194
.404
13.371
.404
12.735
.404
19.704
.404
13.559
.404
8.64
.403
.517
.404
-.612
.404
-.4
.404
-1.153
.404
-1.931
.404
-1.247
.404
-1.648
.403
-2.613
.404
-4.12
.404
-11.888
.404
-7.109
.404
-5.744
.404
-5.602
.404
-4.85
.404
-4.049
.403
-4.896
.404
3.578
.404
-2.048
.404
-2.99
.404
-2.518
.404
-4.92
.404
-1.154
.403
3.037
.404
-1.012
.404
-.095
.404
6.262
.404
2.731
.404
1.507
.404
3.154
.404
.8
.403
.918
.404
3.437
.404
-5.767
.404
-1.836
.404
4.967
.404
-2.142
.404
-.871
.404
2.424
.403
2.613
.404
4.755
.404
5.368
.404
-.777
.404
1.553
.404
-1.153
.404
-4.826
.403
-2.683
.404
.941
.404
-6.615
.404
-1.6
.404
-.542
.404
.848
.404
1.341
.404
.283
.403
-4.944
.404
3.39
.404
2.519
.404
-.871
.404
-1.412
.404
1.035
.404
1.06
.403
1.6
.404
-.258
.404
-3.508
.404
-4.426
.404
-.541
.404
-2.801
.404
-.659
.404
2.236
.403
-1.177
.404
.612
.404
5.461
.404
.142
.404
1.553
.404
.118
.404
-5.673
.404
-2.119
.403
-.259
.404
-5.179
.404
2.142
.404
4.897
.404
2.189
.404
5.626
.404
2.778
.403
.235
.404
-4.896
.404
-1.483
.404
-7.415
.404
-1.813
h.404
l.404
.165
.404
-2.66
.403
13.159
.404
.541
.404
4.12
.404
-1.742
.404
-6.003
.404
-7.439
.404
3.013
.403
-9.18
.404
1.859
.404
.659
.404
-6.567
.404
1.342
.404
7.462
.404
-3.931
.404
.423
.403
-.753
.404
-7.321
.404
7.392
.404
3.554
.404
-2.848
.404
1.224
.404
5.344
.403
-4.967
.404
6.144
.404
-2.59
.404
-7.062
.404
-3.908
.404
.306
.404
-2.589
.404
-1.13
.403
1.436
.404
1.601
.404
6.85
.404
3.766
.404
1.295
.404
.306
.404
4.167
.404
-1.483
.403
-2.354
.404
3.978
.404
5.367
.404
1.436
.404
3.578
.404
-5.084
.404
1.153
.403
4.638
.404
-4.308
.404
-11.158
.404
1.836
.404
-2.307
.404
2.825
.404
-.189
.404
.259
.403
.353
.404
11.512
.404
-.565
.404
1.153
.404
3.72
.404
-4.779
.404
-3.696
.403
.942
.404
-6.921
.404
-2.166
.404
-1.365
.404
.965
.404
6.732
.404
4.379
.404
-1.766
.403
2.472
.404
4.285
.404
2.966
.404
.447
.404
.871
.404
-1.695
.404
.33
.403
.541
.404
-5.085
.404
.306
.404
.471
.404
-3.154
.404
-1.154
.404
2.849
.404
-.165
.403
1.13
.404
-1.224
.404
-2.166
.404
.753
.404
-.8
.404
-6.639
.404
-7.109
.404
-1.86
.403
-4.166
.404
.329
.404
.871
.404
-1.177
.404
4.732
.404
10.405
.404
3.343
.403
3.743
.404
-.212
.404
-.942
.404
-1.554
.404
-1.294
.404
-7.51
.404
-5.626
.404
-5.65
.403
-5.108
.404
-3.178
.404
-1.601
.404
-5.649
.404
5.838
.404
3.013
.404
-3.955
.403
3.955
.404
3.343
.404
2.095
.404
6.285
.404
3.131
.404
-12.877
.404
-2.66
.404
-10.358
.403
-12.523
.404
-5.744
.404
-4.426
.404
-14.571
.404
2.613
.404
7.062
.404
7.627
.404
6.662
.403
3.837
.404
-2.119
.404
2.967
.404
9.133
.404
5.579
.404
-.188
.404
7.062
.403
5.626
.404
4.85
.404
6.826
.404
.189
.404
-5.697
.404
-.565
.404
-2.731
.404
-2.448
.403
.8
.404
1.272
.404
4.92
.404
8.215
.404
7.651
.404
3.743
.404
2.895
.403
3.743
.404
.071
.404
.165
.404
-1.931
.404
-.706
.404
-.777
.404
1.342
.404
-4.637
.403
.612
.404
-2.354
.404
.117
.404
-3.225
.404
-2.307
.404
-2.495
.404
3.319
.403
-.494
.404
1.954
.404
-.4
.404
4.331
.404
3.743
.404
2.283
.404
1.413
.404
-.589
.403
-.965
.404
.589
.404
-1.483
.404
-1.625
.404
-.4
.404
-2.895
.404
2.966
.404
-2.048
.403
-5.768
.404
-5.249
.404
-8.381
.404
-.753
.404
-.024
.404
-2.966
.404
3.508
.403
3.154
.404
2.708
.404
6.85
.404
-4.002
.404
-11.135
.404
-.494
.404
-.565
.404
-3.413
.403
1.106
.404
4.237
.404
2.849
.404
12.099
.404
3.155
.404
-3.461
.404
1.413
.403
-2.943
.404
-10.146
.404
2.213
.404
1.601
.404
-1.766
.404
2.802
.404
6.591
.404
5.697
.403
7.862
.404
2.307
.404
-.941
.404
1.671
.404
2.166
.404
-1.366
.404
1.177
.403
1.366
.404
-3.72
.404
-.023
.404
.8
.404
-4.99
.404
-2.19
.404
-3.366
.404
-4.543
.403
4.143
.404
2.283
.404
-1.789
.404
5.203
.404
3.154
.404
1.46
.404
6.097
.404
-1.036
.403
-5.391
.404
.612
.404
1.624
.404
1.413
.404
1.412
.404
-1.859
.404
-1.083
.403
1.577
.404
1.624
.404
-5.885
.404
-8.639
.404
-4.708
.404
-7.133
.404
-3.861
.404
1.719
.403
-1.413
.404
2.707
.404
4.967
.404
3.414
.404
8.051
.404
1.553
.404
-1.483
.403
-2.354
.404
1.13
.404
-.965
.404
1.836
.404
.565
.404
.165
.404
2.589
.404
3.108
.403
-1.083
.404
.565
.404
-3.06
.404
-2.896
.404
3.131
.404
-.824
.404
-1.671
.403
-.306
.404
1.365
.404
-.965
.404
1.577
.404
-1.765
.404
-3.273
.404
-2.283
.404
2.048
.403
.306
.404
1.412
.404
1.201
.404
.612
.404
4.638
.404
6.379
.404
-1.412
.404
2.354
.403
4.166
.404
.283
.404
.376
.404
1.484
.404
-.565
.404
-.236
.404
-5.461
.403
-3.837
.404
-4.002
.404
1.695
.404
-1.742
.404
-.589
.404
.565
.404
3.484
.404
2.801
.403
4.097
.404
-2.59
.404
-.118
.404
-.776
.404
-2.778
.404
-2.754
.404
-1.436
.403
-3.602
.404
1.671
.404
-2.566
.404
-1.106
.404
4.755
.404
4.143
.404
-1.318
.404
2.707
.403
-.894
.404
-1.483
.404
2.612
.404
-3.625
.404
-2.001
.404
1.06
.404
.918
.404
.706
.403
5.344
.404
-1.342
.404
1.954
.404
-1.554
.404
-1.412
.404
-8.145
.404
-4.12
.403
-3.531
.404
-3.837
.404
-1.648
.404
1.201
.404
-3.767
.404
1.836
.404
3.037
.404
-2.189
.403
2.448
.404
2.589
.404
-.588
.404
5.108
.404
4.991
.404
1.93
.404
2.072
.403
1.224
.404
-1.507
.404
1.46
.404
-1.224
.404
.706
.404
-1.201
.404
2.731
.404
-.33
.403
-1.577
.404
-.118
.404
-2.754
.404
-1.106
.404
-.801
.404
-2.495
.404
-1.813
.403
-.329
.404
-2.566
.404
3.037
.404
1.859
.404
-1.13
.404
1.036
.404
1.342
.404
.471
.403
.188
.404
-4.826
.404
-9.439
.404
-2.731
.404
.447
.404
-.612
.404
1.978
.404
2.236
.403
3.154
.404
8.216
.404
5.532
.404
-4.025
.404
-2.378
.404
.259
.404
-2.048
.403
1.059
.404
-.989
.404
-2.212
.404
1.365
.404
-1.13
.404
-1.883
.404
1.012
.404
1.671
.403
.354
.404
1.341
.404
5.65
.404
.636
.404
2.165
h.404
l.404
-3.436
.403
-1.225
.404
-4.331
.404
-6.262
.404
2.613
.404
-1.977
.404
-3.484
.404
2.66
.404
1.106
.403
.4
.404
2.943
.404
-.471
.404
-2.872
.404
5.085
.404
.141
.404
-2.283
.403
3.319
.404
-3.861
.404
1.201
.404
.047
.404
-3.013
.404
.047
.404
3.131
.404
-.73
.403
-1.977
.404
-5.697
.404
1.506
.404
-2.071
.404
-1.365
.404
-2.825
.404
-4.92
.404
2.989
.403
3.743
.404
-.047
.404
4.567
.404
.094
.404
1.577
.404
4.45
.404
2.613
.403
.612
.404
2.001
.404
-1.13
.404
-2.802
.404
-1.153
.404
2.048
.404
1.53
.404
1.483
.403
.353
.404
1.389
.404
5.626
.404
3.343
.404
-1.201
.404
1.154
.404
1.436
.403
-.283
.404
-.306
.404
-1.13
.404
-3.319
.404
1.907
.404
-2.707
.404
-.165
.404
-2.26
.403
1.554
.404
-1.766
.404
4.261
.404
.589
.404
-2.401
.404
-.613
.404
2.402
.404
.941
.403
2.59
.404
-3.32
.404
-.706
.404
4.52
.404
2.966
.404
1.271
.404
.777
.403
.047
.404
3.319
.404
-1.836
.404
-2.165
.404
-4.049
.404
1.718
.404
-1.624
.404
.777
.403
.659
.404
4.331
.404
.942
.404
1.836
.404
-2.142
.404
1.553
.404
-.447
.403
-1.13
.404
-3.484
.404
3.319
.404
1.225
.404
1.977
.404
-2.59
.404
-1.153
.404
-.212
.403
1.907
.404
-1.271
.404
.235
.404
.236
.404
3.201
.404
3.202
.404
1.106
.403
-.4
.404
1.954
.404
.329
.404
.989
.404
-.377
.404
.047
.404
1.154
.404
2.095
.403
-.071
.404
1.177
.404
-.612
.404
-1.13
.404
-.117
.404
-.73
.404
.753
.404
-1.247
.403
-1.201
.404
-.683
.404
1.295
.404
-2.707
.404
.07
.404
-.918
.404
.518
.403
-.235
.404
.212
.404
.635
.404
3.225
.404
.66
.404
.188
.404
.094
.404
-.024
.403
.118
.404
-.871
.404
-1.883
.404
-2.26
.404
-1.059
.404
-.565
.404
-.165
.403
1.059
.404
-.588
.404
-.448
.404
1.578
.404
-1.601
.404
-1.295
.404
.024
.404
-2.378
.403
.683
.404
1.648
.404
.4
.404
1.012
.404
-.989
.404
1.083
.404
-.518
.403
-1.318
.404
-.259
.404
-.353
.404
1.695
.404
2.519
.404
-.895
.404
.871
.404
.236
.403
-1.53
.404
-.966
.404
.118
.404
-1.271
.404
.329
.404
1.554
.404
2.284
.404
1.671
.403
1.036
.404
-.965
.404
.729
.404
.73
.404
-.588
.404
-.73
.404
.353
.403
.353
.404
.612
.404
1.295
.404
-1.201
.404
.589
.404
-.518
.404
-2.401
.404
-1.224
.403
-.353
.404
-1.083
.404
-.895
.404
-1.483
.404
.118
.404
1.247
.404
-.353
.403
-.494
.404
.612
.404
.8
.404
-.824
.404
.565
.404
1.483
.404
.754
.404
-1.436
.403
-.071
.404
-1.436
.404
1.107
.404
-.777
.404
-3.931
.404
-1.177
.404
2.142
.403
-1.554
.404
2.66
.404
.283
.404
1.247
.404
3.013
.404
2.025
.404
.4
.404
1.342
.403
-.518
.404
-.471
.404
-2.166
.404
-2.66
.404
-.682
.404
-1.107
.404
.895
.404
-.871
.403
.518
.404
-1.06
.404
3.296
.404
.071
.404
-.801
.404
-1.718
.404
1.389
.403
-.495
.404
1.483
.404
.589
.404
.118
.404
.941
.404
-.023
.404
-.895
.404
.871
.403
.824
.404
-2.613
.404
-2.024
.404
-.142
.404
1.225
.404
-1.648
.404
-.024
.403
-.353
.404
2.095
.404
2.119
.404
.894
.404
-1.6
.404
1.883
.404
.871
.404
.8
.403
-1.483
.404
.942
.404
-.942
.404
1.177
.404
.306
.404
.33
.404
.588
.404
1.719
.403
-.047
.404
1.224
.404
.188
.404
.565
.404
-.282
.404
-.613
.404
-.047
.403
-.918
.404
-2.095
.404
1.06
.404
-1.201
.404
-2.825
.404
-4.425
.404
-3.39
.404
.259
.403
1.647
.404
-1.177
.404
.683
.404
2.59
.404
3.484
.404
1.53
.404
-1.907
.403
-.353
.404
.682
.404
1.013
.404
-.33
.404
-1.389
.404
1.201
.404
1.907
.404
.07
.403
-.4
.404
-2.236
.404
-.471
.404
-.212
.404
1.106
.404
.848
.404
.588
.403
.118
.404
2.284
.404
-1.507
.404
2.166
.404
-2.307
.404
-2.637
.404
.824
.404
1.036
.403
-.188
.404
2.801
.404
.424
.404
1.718
.404
2.613
.404
-1.813
.404
-.824
.404
-.588
.403
.024
.404
.47
.404
.518
.404
.141
.404
1.695
.404
.848
.404
-.33
.403
-1.459
.404
-4.167
.404
-4.308
.404
-2.424
.404
-.542
.404
.094
.404
-.518
.404
.142
.403
3.178
.404
2.989
.404
-1.247
.404
-2.402
.404
-1.671
.404
-1.224
.404
.235
.403
.212
.404
.189
.404
2.989
.404
.989
.404
-.659
.404
1.883
.404
1.106
.404
-1.459
.403
-.871
.404
-2.331
.404
1.177
.404
2.237
.404
.8
.404
-.447
.404
1.2
.403
1.507
.404
2.778
.404
.235
.404
-.023
.404
-.942
.404
-.518
.404
-.918
.404
.306
.403
-.447
.404
-.236
.404
-.659
.404
-.565
.404
-.235
.404
.094
.404
-.777
.404
.33
.403
.141
.404
-.212
.404
.165
.404
1.224
.404
1.177
.404
-.683
.404
-1.53
.403
.565
.404
-.235
.404
.683
.404
-.495
.404
.306
.404
.942
.404
1.883
.404
.094
.403
.212
.404
.895
.404
-.189
.404
-.753
.404
.895
.404
-.565
.404
-.542
.403
-.07
.404
-1.342
.404
-.518
.404
.989
.404
-.777
.404
.47
.404
.165
.404
.353
.403
-.988
.404
1.365
.404
-.918
.404
-.259
.404
-.235
.404
-.848
.404
-.494
.403
.847
.404
-1.789
.404
-.753
.404
-.33
.404
-1.883
.404
.942
.404
.423
.404
.919
.403
1.412
.404
1.789
.404
1.318
.404
2.119
.404
-.377
.404
.094
.404
.189
.404
-.165
.403
-1.154
.404
-.47
.404
-1.672
.404
.142
.404
.07
.404
-.212
.404
-.259
.403
.918
.404
-.047
.404
-.164
h.404
l.404
-.495
.404
-.659
.404
.848
.404
-.189
.403
-.447
.404
.918
.404
.447
.404
-.753
.404
.188
.404
-.4
.404
-.07
.403
-.942
.404
.306
.404
-.895
.404
1.201
.404
.471
.404
-1.46
.404
.589
.404
1.954
.403
-.871
.404
-1.672
.404
-.706
.404
.4
.404
1.86
h.404
l.404
-.683
.404
1.083
.403
1.954
.404
-.847
.404
-1.319
.404
-1.036
.404
-.564
.404
-1.79
.404
-1.506
.403
.353
.404
.918
.404
1.036
.404
.353
.404
.424
.404
1.483
.404
1.318
.404
-.777
.403
-.259
.404
-4.19
.404
-1.295
.404
-1.459
.404
-2.095
.404
-1.813
h.404
l.403
-1.977
.404
4.378
.404
.212
.404
.942
.404
1.224
.404
1.883
.404
-.942
.404
2.543
.403
-1.083
h.404
l.404
-.777
.404
-.306
.404
-1.766
.404
1.484
.404
.47
.403
-1.412
.404
.377
.404
-.142
.404
.165
.404
1.036
.404
-.824
.404
-.565
.404
.306
.403
.494
.404
.33
.404
-.424
.404
-.447
.404
-1.813
.404
-.965
.404
1.86
.404
-.165
.403
.353
.404
1.978
.404
-1.837
.404
1.86
.404
.73
.404
-.589
.404
-1.459
.403
.023
.404
-.047
.404
3.013
.404
1.13
.404
-.753
h.404
l.404
1.295
.404
.683
.403
.094
.404
.235
.404
-2.283
.404
.4
.404
-1.059
.404
-.871
.404
-4.638
.403
-4.284
.404
-4.002
.404
-.518
.404
-2.566
.404
-2.801
.404
.353
.404
.07
.404
1.154
.403
1.954
.404
-.895
.404
1.366
.404
.376
.404
-.282
.404
-.424
.404
1.083
.403
.188
.404
1.672
.404
2.071
.404
1.695
.404
-2.189
.404
3.366
.404
.377
.404
-4.544
.403
.377
.404
-2.472
.404
-.306
.404
.895
.404
.235
.404
-2.401
.404
3.484
.404
-.235
.403
1.294
.404
1.342
.404
1.766
.404
-.659
.404
3.978
.404
2.731
.404
.282
.403
.565
.404
-.73
.404
-1.106
.404
1.436
.404
-1.813
.404
-.494
.404
.847
.404
-.259
.403
.966
.404
1.953
.404
.401
.404
.141
.404
-.683
.404
-1.153
.404
-.965
.403
-1.672
.404
-.706
.404
-1.318
.404
1.224
.404
-1.154
.404
.895
.404
1.836
.404
1.671
h.403
l.404
1.107
.404
-.753
.404
.847
.404
.094
.404
-1.53
.404
.965
.404
-1.765
.403
.282
.404
.071
.404
.988
.404
.283
.404
1.53
.404
-1.106
.404
2.401
.403
-.636
.404
.848
.404
.635
.404
.942
.404
.824
.404
1.859
.404
.895
.404
1.036
.403
.777
.404
.494
h2.02
l.403
-.024
.404
-2.848
.404
-1.483
.404
-1.483
.404
-1.412
.404
-1.107
.404
-.659
.404
-1.766
.403
1.248
.404
.683
.404
.565
.404
.212
.404
.4
.404
.047
.404
1.483
.403
.659
.404
.235
.404
.448
.404
.847
.404
.612
.404
.612
.404
-.659
.404
.024
.403
.117
.404
-.07
.404
-.118
.404
-.447
.404
-.236
.404
.024
.404
-.353
.404
-2.754
.403
-1.013
.404
-1.859
.404
-3.649
.404
-1.883
.404
.494
.404
.094
.404
-.824
.403
.706
.404
2.19
.404
1.624
.404
1.554
.404
-1.507
.404
-.942
.404
3.296
.404
.424
.403
-1.86
.404
1.413
.404
.376
.404
-.941" aria-label="line"/>
</svg>
