<svg class="plot-d6a7b5" fill="currentColor" font-family="system-ui, sans-serif" font-size="10" text-anchor="middle" width="830" height="470" viewBox="0 0 830 470" xmlns="http://www.w3.org/2000/svg" xmlns:xlink="http://www.w3.org/1999/xlink" color="#1e90ff"><style>:where(.plot-d6a7b5){--plot-background: white;display:block;height:intrinsic;max-width:100%}:where(.plot-d6a7b5 text),:where(.plot-d6a7b5 tspan){white-space:pre}</style><g aria-label="y-grid" stroke="currentColor" stroke-opacity=".1"><line x1="60" x2="770" y1="410" y2="410"/><line x1="60" x2="770" y1="378.557" y2="378.557"/><line x1="60" x2="770" y1="347.114" y2="347.114"/><line x1="60" x2="770" y1="315.671" y2="315.671"/><line x1="60" x2="770" y1="284.227" y2="284.227"/><line x1="60" x2="770" y1="252.784" y2="252.784"/><line x1="60" x2="770" y1="221.341" y2="221.341"/><line x1="60" x2="770" y1="189.898" y2="189.898"/><line x1="60" x2="770" y1="158.455" y2="158.455"/><line x1="60" x2="770" y1="127.012" y2="127.012"/><line x1="60" x2="770" y1="95.568" y2="95.568"/><line x1="60" x2="770" y1="64.125" y2="64.125"/></g><g aria-label="y-axis tick" fill="none" stroke="currentColor"><path transform="translate(60,410)" d="M0,0L-6,0"/><path transform="translate(60,378.55684921661634)" d="M0,0L-6,0"/><path transform="translate(60,347.11369843323274)" d="M0,0L-6,0"/><path transform="translate(60,315.6705476498491)" d="M0,0L-6,0"/><path transform="translate(60,284.2273968664655)" d="M0,0L-6,0"/><path transform="translate(60,252.7842460830818)" d="M0,0L-6,0"/><path transform="translate(60,221.34109529969817)" d="M0,0L-6,0"/><path transform="translate(60,189.8979445163145)" d="M0,0L-6,0"/><path transform="translate(60,158.45479373293085)" d="M0,0L-6,0"/><path transform="translate(60,127.01164294954722)" d="M0,0L-6,0"/><path transform="translate(60,95.56849216616357)" d="M0,0L-6,0"/><path transform="translate(60,64.12534138277994)" d="M0,0L-6,0"/></g><g aria-label="y-axis tick label" text-anchor="end" font-variant="tabular-nums"><text y=".32em" transform="translate(-9,0) translate(60,410)">0</text><text y=".32em" transform="translate(-9,0) translate(60,378.55684921661634)">5,000</text><text y=".32em" transform="translate(-9,0) translate(60,347.11369843323274)">10,000</text><text y=".32em" transform="translate(-9,0) translate(60,315.6705476498491)">15,000</text><text y=".32em" transform="translate(-9,0) translate(60,284.2273968664655)">20,000</text><text y=".32em" transform="translate(-9,0) translate(60,252.7842460830818)">25,000</text><text y=".32em" transform="translate(-9,0) translate(60,221.34109529969817)">30,000</text><text y=".32em" transform="translate(-9,0) translate(60,189.8979445163145)">35,000</text><text y=".32em" transform="translate(-9,0) translate(60,158.45479373293085)">40,000</text><text y=".32em" transform="translate(-9,0) translate(60,127.01164294954722)">45,000</text><text y=".32em" transform="translate(-9,0) translate(60,95.56849216616357)">50,000</text><text y=".32em" transform="translate(-9,0) translate(60,64.12534138277994)">55,000</text></g><g aria-label="y-axis label" text-anchor="start"><text y=".71em" transform="translate(-57,-57) translate(60,60)">↑ Visible Vestiges (30 days)</text></g><g aria-label="x-axis tick" fill="none" stroke="currentColor"><path transform="translate(101.76470588235294,410)" d="M0,0L0,6"/><path transform="translate(213.54671280276818,410)" d="M0,0L0,6"/><path transform="translate(326.5570934256055,410)" d="M0,0L0,6"/><path transform="translate(439.5674740484429,410)" d="M0,0L0,6"/><path transform="translate(551.3494809688581,410)" d="M0,0L0,6"/><path transform="translate(663.1314878892734,410)" d="M0,0L0,6"/></g><g aria-label="x-axis tick label" font-variant="tabular-nums"><text transform="translate(0,9) translate(101.76470588235294,410)"><tspan x="0" y=".71em">Apr</tspan><tspan x="0" dy="1em">2023</tspan></text><text y=".71em" transform="translate(0,9) translate(213.54671280276818,410)">Jul</text><text y=".71em" transform="translate(0,9) translate(326.5570934256055,410)">Oct</text><text transform="translate(0,9) translate(439.5674740484429,410)"><tspan x="0" y=".71em">Jan</tspan><tspan x="0" dy="1em">2024</tspan></text><text y=".71em" transform="translate(0,9) translate(551.3494809688581,410)">Apr</text><text y=".71em" transform="translate(0,9) translate(663.1314878892734,410)">Jul</text></g><g aria-label="line" fill="none" stroke="currentColor" stroke-width="1.5" stroke-linejoin="round" stroke-linecap="round"><path d="M60,410L60.819,406.843L61.638,395.297L62.457,389.071L63.276,384.657L64.095,377.375L64.913,371.639L65.732,366.263L66.551,355.383L67.37,346.774L68.189,336.555L69.008,320.727L69.827,305.804L70.646,298.056L71.465,286.843L72.284,279.228L73.103,270.499L73.922,259.085L74.74,251.401L75.559,243.867L76.378,233.642L77.197,222.303L78.016,214.273L78.835,200.57L79.654,194.08L80.473,188.024L81.292,177.101L82.111,166.643L82.93,158.593L83.749,147.374L84.567,139.344L85.386,140.702L86.205,131.137L87.024,123.025L87.843,123.05L88.662,121.226L89.481,120.912L90.3,127.194L91.119,127.276L91.938,129.156L92.757,139.168L93.576,140.639L94.394,134.325L95.213,132.936L96.032,125.282L96.851,123.66L97.67,126.257L98.489,121.93L99.308,119.415L100.127,122.364L100.946,120.597L101.765,115.956L102.584,117.837L103.403,107.379L104.221,97.342L105.04,99.895L105.859,97.933L106.678,94.776L107.497,95.952L108.316,92.921L109.135,89.752L109.954,93.94L110.773,92.519L111.592,86.406L112.411,82.45L113.23,72.653L114.048,67.722L114.867,67.653L115.686,64L116.505,60L117.324,66.113L118.143,70.716L118.962,73.112L119.781,78.866L120.6,76.734L121.419,73.181L122.238,78.143L123.057,78.407L123.875,78.042L124.694,86.123L125.513,91.016L126.332,95.097L127.151,103.825L127.97,109.278L128.789,106.831L129.608,110.806L130.427,110.315L131.246,112.145L132.065,121L132.884,122.037L133.702,125.125L134.521,134.464L135.34,140.117L136.159,144.192L136.978,151.933L137.797,150.82L138.616,150.16L139.435,154.179L140.254,157.065L141.073,158.254L141.892,161.825L142.71,162.373L143.529,166.385L144.348,173.277L145.167,176.572L145.986,173.334L146.805,175.05L147.624,172.315L148.443,170.347L149.262,171.629L150.081,169.957L150.9,171.736L151.719,176.245L152.537,178.874L153.356,180.918L154.175,184.88L154.994,184.898L155.813,182.823L156.632,188.98L157.451,191.036L158.27,190.005L159.089,192.407L159.908,192.363L160.727,194.413L161.546,199.916L162.364,200.696L163.183,197.652L164.002,196.545L164.821,192.237L165.64,191.866L166.459,194.35L167.278,192.445L168.097,191.269L168.916,195.589L169.735,196.451L170.554,197.117L171.373,199.714L172.191,195.413L173.01,193.596L173.829,195.74L174.648,194.753L175.467,192.778L176.286,194.69L177.105,194.948L177.924,194.558L178.743,197.96L179.562,199.035L180.381,199.457L181.2,200.519L182.018,198.557L182.837,198.381L183.656,200.142L184.475,198.174L185.294,197.834L186.113,201.249L186.932,206.789L187.751,208.374L188.57,212.77L189.389,212.701L190.208,213.015L191.027,215.04L191.845,215.216L192.664,214.43L193.483,218.348L194.302,218.109L195.121,219.53L195.94,225.806L196.759,227.529L197.578,228.535L198.397,231.434L199.216,231.761L200.035,232.101L200.854,232.126L201.672,233.453L202.491,232.459L203.31,235.384L204.129,234.818L204.948,235.069L205.767,236.547L206.586,234.755L207.405,234.711L208.224,236.025L209.043,234.516L209.862,233.214L210.681,233.107L211.499,230.453L212.318,229.114L213.137,231.177L213.956,231.227L214.775,230.541L215.594,233.484L216.413,232.56L217.232,233.893L218.051,236.572L218.87,236.899L219.689,236.295L220.507,238.44L221.326,237.673L222.145,237.05L222.964,240.169L223.783,239.566L224.602,239.805L225.421,241.974L226.24,240.666L227.059,239.591L227.878,240.767L228.697,239.402L229.516,240.238L230.334,241.515L231.153,240.408L231.972,240.742L232.791,242.609L233.61,243.1L234.429,241.779L235.248,245.483L236.067,247.816L236.886,246.722L237.705,249.451L238.524,248.527L239.343,247.797L240.161,249.313L240.98,247.275L241.799,247.288L242.618,247.307L243.437,244.93L244.256,243.345L245.075,246.823L245.894,243.798L246.713,242.446L247.532,243.641L248.351,242.056L249.17,241.641L249.988,243.32L250.807,241.59L251.626,240.389L252.445,241.433L253.264,238.635L254.083,238.415L254.902,239.805L255.721,239.176L256.54,236.975L257.359,235.365L258.178,231.258L258.997,229.938L259.815,229.938L260.634,228.435L261.453,227.001L262.272,229.994L263.091,228.139L263.91,227.592L264.729,229.957L265.548,228.63L266.367,228.925L267.186,232.78L268.005,232.176L268.824,229.529L269.642,232.988L270.461,232.793L271.28,230.378L272.099,231.296L272.918,228.177L273.737,227.812L274.556,228.472L275.375,226.542L276.194,225.806L277.013,228.139L277.832,227.454L278.651,227.215L279.469,230.032L280.288,231.818L281.107,235.126L281.926,241.546L282.745,242.71L283.564,242.194L284.383,243.892L285.202,244.244L286.021,242.917L286.84,244.634L287.659,245.118L288.478,244.005L289.296,246.087L290.115,246.961L290.934,246.118L291.753,247.37L292.572,247.118L293.391,247.231L294.21,248.464L295.029,251.011L295.848,253.734L296.667,257.796L297.486,259.299L298.304,262.268L299.123,267.324L299.942,266.204L300.761,266.89L301.58,269.047L302.399,268.323L303.218,269.455L304.037,271.38L304.856,272.153L305.675,274.027L306.494,275.48L307.313,276.876L308.131,277.234L308.95,277.354L309.769,274.631L310.588,272.317L311.407,273.662L312.226,273.681L313.045,274.474L313.864,275.216L314.683,275.48L315.502,276.624L316.321,279.706L317.14,279.14L317.958,278.436L318.777,279.448L319.596,277.555L320.415,278.75L321.234,280.165L322.053,278.958L322.872,278.555L323.691,282.662L324.51,282.504L325.329,282.9L326.148,284.894L326.967,281.574L327.785,280.674L328.604,281.687L329.423,279.97L330.242,280.813L331.061,282.07L331.88,283.177L332.699,284.592L333.518,288.466L334.337,289.805L335.156,287.598L335.975,286.649L336.794,283.919L337.612,283.599L338.431,284.951L339.25,285.007L340.069,284.881L340.888,286.271L341.707,286.869L342.526,287.661L343.345,290.183L344.164,285.982L344.983,282.768L345.802,282.85L346.621,282.599L347.439,283.039L348.258,286.076L349.077,285.812L349.896,287.202L350.715,290.17L351.534,288.749L352.353,284.756L353.172,284.397L353.991,281.165L354.81,280.655L355.629,281.196L356.448,279.398L357.266,280.064L358.085,282.215L358.904,283.334L359.723,284.158L360.542,287.045L361.361,286.089L362.18,286.007L362.999,287.963L363.818,286.68L364.637,287.252L365.456,290.384L366.275,290.849L367.093,291.038L367.912,293.107L368.731,293.245L369.55,291.019L370.369,290.906L371.188,289.755L372.007,289.661L372.826,290.843L373.645,289.868L374.464,290.692L375.283,294.295L376.101,296.691L376.92,299.05L377.739,302.188L378.558,301.955L379.377,301.817L380.196,305.099L381.015,305.653L381.834,307.376L382.653,309.916L383.472,311.985L384.291,313.205L385.11,317.224L385.928,315.954L386.747,313.539L387.566,313.778L388.385,312.463L389.204,310.954L390.023,311.753L390.842,311.269L391.661,314.142L392.48,317.041L393.299,318.576L394.118,318.941L394.937,319.695L395.755,317.243L396.574,317.318L397.393,318.098L398.212,316.488L399.031,315.664L399.85,316.079L400.669,313.243L401.488,313.47L402.307,314.199L403.126,314.413L403.945,313.004L404.764,312.457L405.582,310.212L406.401,310.193L407.22,311.803L408.039,310.52L408.858,309.112L409.677,311.696L410.496,313.759L411.315,315.853L412.134,318.456L412.953,318.89L413.772,318.261L414.591,320.192L415.409,318.777L416.228,318.431L417.047,321.399L417.866,322.89L418.685,324.393L419.504,327.286L420.323,327.141L421.142,326.877L421.961,328.147L422.78,328.896L423.599,329.996L424.418,332.159L425.236,332.857L426.055,334.04L426.874,335.04L427.693,335.14L428.512,336.486L429.331,337.725L430.15,335.574L430.969,333.423L431.788,334.914L432.607,334.838L433.426,333.285L434.245,332.939L435.063,331.612L435.882,330.663L436.701,330.468L437.52,329.462L438.339,328.103L439.158,328.946L439.977,328.858L440.796,327.355L441.615,326.764L442.434,324.185L443.253,323.487L444.072,325.028L444.89,324.443L445.709,325.556L446.528,325.475L447.347,323.928L448.166,324.953L448.985,324.971L449.804,323.72L450.623,323.978L451.442,325.563L452.261,325.833L453.08,327.078L453.899,328.889L454.717,328.921L455.536,327.499L456.355,326.393L457.174,325.374L457.993,326.141L458.812,327.361L459.631,327.757L460.45,327.562L461.269,327.537L462.088,327.606L462.907,328.286L463.725,328.411L464.544,327.361L465.363,324.449L466.182,325.204L467.001,323.462L467.82,322.959L468.639,324.795L469.458,323.198L470.277,324.374L471.096,326.468L471.915,323.689L472.734,320.764L473.552,319.865L474.371,316.243L475.19,315.086L476.009,314.4L476.828,312.677L477.647,312.206L478.466,313.124L479.285,312.287L480.104,313.809L480.923,314.463L481.742,310.577L482.561,308.891L483.379,308.3L484.198,307.168L485.017,307.948L485.836,308.583L486.655,305.967L487.474,305.552L488.293,305.376L489.112,306.866L489.931,305.54L490.75,303.401L491.569,298.892L492.388,297.358L493.206,296.446L494.025,291.975L494.844,289.969L495.663,291.893L496.482,293.447L497.301,294.151L498.12,296.371L498.939,294.22L499.758,292.264L500.577,293.497L501.396,292.503L502.215,291.635L503.033,291.717L503.852,290.214L504.671,291.918L505.49,294.503L506.309,293.579L507.128,291.874L507.947,293.239L508.766,291.384L509.585,291.151L510.404,292.692L511.223,292.918L512.042,294.811L512.86,296.214L513.679,297.408L514.498,300.949L515.317,305.024L516.136,303.445L516.955,304.401L517.774,307.615L518.593,309.244L519.412,310.03L520.231,310.96L521.05,311.501L521.869,313.092L522.687,316.237L523.506,316.425L524.325,315.57L525.144,317.538L525.963,316.947L526.782,318.111L527.601,320.846L528.42,320.771L529.239,320.984L530.058,323.72L530.877,325.179L531.696,324.764L532.514,326.21L533.333,323.349L534.152,322.802L534.971,323.965L535.79,325.846L536.609,328.525L537.428,332.122L538.247,334.97L539.066,337.832L539.885,343.158L540.704,346.101L541.522,348.384L542.341,350.472L543.16,352.49L543.979,355.006L544.798,357.113L545.617,358.358L546.436,359.886L547.255,363.244L548.074,364.653L548.893,363.414L549.712,365.225L550.531,365.961L551.349,365.269L552.168,365.898L552.987,367.08L553.806,366.885L554.625,367.841L555.444,368.652L556.263,369.193L557.082,371.941L557.901,372.507L558.72,372.507L559.539,371.117L560.358,368.545L561.176,365.759L561.995,364.571L562.814,362.785L563.633,360.131L564.452,358.666L565.271,357.352L566.09,355.188L566.909,353.427L567.728,351.006L568.547,349.246L569.366,348.252L570.185,346.655L571.003,345.806L571.822,345.391L572.641,347.504L573.46,348.252L574.279,349.459L575.098,349.755L575.917,349.868L576.736,349.793L577.555,349.396L578.374,349.837L579.193,351.384L580.012,351.623L580.83,352.163L581.649,353.446L582.468,353.905L583.287,353.056L584.106,353.843L584.925,354.094L585.744,353.566L586.563,354.05L587.382,354.698L588.201,353.937L589.02,353.151L589.839,353.975L590.657,353.736L591.476,354.679L592.295,354.717L593.114,352.855L593.933,352.522L594.752,351.22L595.571,351.22L596.39,350.881L597.209,350.239L598.028,349.007L598.847,348.812L599.666,348.101L600.484,347.522L601.303,348.843L602.122,347.705L602.941,346.246L603.76,346.711L604.579,345.56L605.398,345.567L606.217,346.07L607.036,347.617L607.855,347.906L608.674,348.51L609.493,348.132L610.311,345.001L611.13,344.844L611.949,343.743L612.768,344.529L613.587,344.535L614.406,344.755L615.225,343.737L616.044,345.057L616.863,346.227L617.682,346.372L618.501,347.441L619.319,346.019L620.138,343.655L620.957,343.756L621.776,342.46L622.595,342.668L623.414,342.951L624.233,341.85L625.052,340.756L625.871,341.9L626.69,341.517L627.509,340.404L628.328,341.794L629.146,339.548L629.965,339.115L630.784,338.385L631.603,337.266L632.422,336.467L633.241,336.719L634.06,338.09L634.879,337.882L635.698,338.737L636.517,336.605L637.336,334.442L638.155,333.681L638.973,333.952L639.792,331.505L640.611,331.537L641.43,331.719L642.249,331.883L643.068,332.329L643.887,333.901L644.706,333.449L645.525,334.568L646.344,333.706L647.163,333.084L647.982,336.065L648.8,337.586L649.619,337.549L650.438,339.102L651.257,338.75L652.076,338.398L652.895,340.97L653.714,340.825L654.533,338.417L655.352,339.63L656.171,340.24L656.99,339.215L657.809,340.14L658.627,341.139L659.446,341.781L660.265,344.334L661.084,346.441L661.903,347.277L662.722,347.938L663.541,347.887L664.36,347.516L665.179,347.982L665.998,346.856L666.817,347.378L667.636,347.504L668.454,348.34L669.273,348.975L670.092,350.17L670.911,350.793L671.73,349.264L672.549,349.497L673.368,350.032L674.187,350.032L675.006,352.258L675.825,352.692L676.644,352.163L677.463,351.931L678.281,353.786L679.1,353.912L679.919,354.654L680.738,355.283L681.557,355.459L682.376,355.622L683.195,355.251L684.014,354.333L684.833,354.283L685.652,354.138L686.471,353.975L687.29,355.213L688.108,354.591L688.927,352.069L689.746,352.503L690.565,351.918L691.384,352.226L692.203,352.038L693.022,351.164L693.841,350.635L694.66,351.365L695.479,352.031L696.298,351.302L697.116,350.761L697.935,350.201L698.754,348.68L699.573,348.258L700.392,346.894L701.211,345.913L702.03,345.032L702.849,343.045L703.668,341.511L704.487,340.404L705.306,338.781L706.125,338.215L706.943,338.083L707.762,335.844L708.581,337.347L709.4,339.328L710.219,341.397L711.038,343.617L711.857,346.655L712.676,350.818L713.495,353.409L714.314,356.176L715.133,358.068L715.952,359.905L716.77,362.439L717.589,364.212L718.408,365.596L719.227,367.294L720.046,369.061L720.865,371.01L721.684,373.098L722.503,376.048L723.322,378.167L724.141,381.557L724.96,384.757L725.779,388.034L726.597,391.348L727.416,394.285L728.235,397.662L729.054,401.29L729.873,403.12L730.692,405.516L731.511,409.849L732.33,410L733.149,410L733.968,408.528L734.787,406.598L735.606,405.265L736.424,404.271L737.243,403.127L738.062,401.674L738.881,399.97L739.7,398.781L740.519,396.869L741.338,395.58L742.157,394.071L742.976,392.738L743.795,391.078L744.614,389.732L745.433,387.304L746.251,385.556L747.07,383.638L747.889,382.16L748.708,379.966L749.527,377.689L750.346,375.677L751.165,374.136L751.984,372.256L752.803,370.86L753.622,369.275L754.441,368.237L755.26,366.961L756.078,365.558L756.897,364.395L757.716,363.829L758.535,364.106L759.354,364.011L760.173,363.571L760.992,363.005L761.811,362.948L762.63,362.716L763.449,362.659L764.268,362.37L765.087,360.691L765.905,359.364L766.724,356.748L767.543,356.698L768.362,356.1L769.181,356.49L770,356.974"/></g></svg>