<svg class="plot-d6a7b5" fill="currentColor" font-family="system-ui, sans-serif" font-size="10" text-anchor="middle" width="830" height="470" viewBox="0 0 830 470" xmlns="http://www.w3.org/2000/svg" xmlns:xlink="http://www.w3.org/1999/xlink" color="#1e90ff"><style>:where(.plot-d6a7b5){--plot-background: white;display:block;height:intrinsic;max-width:100%}:where(.plot-d6a7b5 text),:where(.plot-d6a7b5 tspan){white-space:pre}</style><g aria-label="y-grid" stroke="currentColor" stroke-opacity=".1"><line x1="60" x2="770" y1="410" y2="410"/><line x1="60" x2="770" y1="360.939" y2="360.939"/><line x1="60" x2="770" y1="311.878" y2="311.878"/><line x1="60" x2="770" y1="262.817" y2="262.817"/><line x1="60" x2="770" y1="213.757" y2="213.757"/><line x1="60" x2="770" y1="164.696" y2="164.696"/><line x1="60" x2="770" y1="115.635" y2="115.635"/><line x1="60" x2="770" y1="66.574" y2="66.574"/></g><g aria-label="y-axis tick" fill="none" stroke="currentColor"><path transform="translate(60,410)" d="M0,0L-6,0"/><path transform="translate(60,360.9391645640594)" d="M0,0L-6,0"/><path transform="translate(60,311.8783291281189)" d="M0,0L-6,0"/><path transform="translate(60,262.8174936921783)" d="M0,0L-6,0"/><path transform="translate(60,213.7566582562377)" d="M0,0L-6,0"/><path transform="translate(60,164.69582282029717)" d="M0,0L-6,0"/><path transform="translate(60,115.6349873843566)" d="M0,0L-6,0"/><path transform="translate(60,66.57415194841604)" d="M0,0L-6,0"/></g><g aria-label="y-axis tick label" text-anchor="end" font-variant="tabular-nums"><text y=".32em" transform="translate(-9,0) translate(60,410)">0</text><text y=".32em" transform="translate(-9,0) translate(60,360.9391645640594)">1,000</text><text y=".32em" transform="translate(-9,0) translate(60,311.8783291281189)">2,000</text><text y=".32em" transform="translate(-9,0) translate(60,262.8174936921783)">3,000</text><text y=".32em" transform="translate(-9,0) translate(60,213.7566582562377)">4,000</text><text y=".32em" transform="translate(-9,0) translate(60,164.69582282029717)">5,000</text><text y=".32em" transform="translate(-9,0) translate(60,115.6349873843566)">6,000</text><text y=".32em" transform="translate(-9,0) translate(60,66.57415194841604)">7,000</text></g><g aria-label="y-axis label" text-anchor="start"><text y=".71em" transform="translate(-57,-57) translate(60,60)">↑ Visible Vestiges (4 days)</text></g><g aria-label="x-axis tick" fill="none" stroke="currentColor"><path transform="translate(65.66489361702128,410)" d="M0,0L0,6"/><path transform="translate(124.20212765957447,410)" d="M0,0L0,6"/><path transform="translate(180.85106382978722,410)" d="M0,0L0,6"/><path transform="translate(239.38829787234044,410)" d="M0,0L0,6"/><path transform="translate(296.03723404255317,410)" d="M0,0L0,6"/><path transform="translate(354.57446808510633,410)" d="M0,0L0,6"/><path transform="translate(413.11170212765956,410)" d="M0,0L0,6"/><path transform="translate(469.76063829787233,410)" d="M0,0L0,6"/><path transform="translate(528.2978723404256,410)" d="M0,0L0,6"/><path transform="translate(584.9468085106383,410)" d="M0,0L0,6"/><path transform="translate(643.4840425531914,410)" d="M0,0L0,6"/><path transform="translate(702.0212765957447,410)" d="M0,0L0,6"/><path transform="translate(756.7819148936171,410)" d="M0,0L0,6"/></g><g aria-label="x-axis tick label" font-variant="tabular-nums"><text transform="translate(0,9) translate(65.66489361702128,410)"><tspan x="0" y=".71em">Mar</tspan><tspan x="0" dy="1em">2023</tspan></text><text y=".71em" transform="translate(0,9) translate(124.20212765957447,410)">Apr</text><text y=".71em" transform="translate(0,9) translate(180.85106382978722,410)">May</text><text y=".71em" transform="translate(0,9) translate(239.38829787234044,410)">Jun</text><text y=".71em" transform="translate(0,9) translate(296.03723404255317,410)">Jul</text><text y=".71em" transform="translate(0,9) translate(354.57446808510633,410)">Aug</text><text y=".71em" transform="translate(0,9) translate(413.11170212765956,410)">Sep</text><text y=".71em" transform="translate(0,9) translate(469.76063829787233,410)">Oct</text><text y=".71em" transform="translate(0,9) translate(528.2978723404256,410)">Nov</text><text y=".71em" transform="translate(0,9) translate(584.9468085106383,410)">Dec</text><text transform="translate(0,9) translate(643.4840425531914,410)"><tspan x="0" y=".71em">Jan</tspan><tspan x="0" dy="1em">2024</tspan></text><text y=".71em" transform="translate(0,9) translate(702.0212765957447,410)">Feb</text><text y=".71em" transform="translate(0,9) translate(756.7819148936171,410)">Mar</text></g><g aria-label="line" fill="none" stroke="currentColor" stroke-width="1.5" stroke-linejoin="round" stroke-linecap="round"><path d="M60,410L61.259,385.371L62.518,295.296L63.777,246.726L65.035,236.913L66.294,270.177L67.553,274.003L68.812,266.497L70.071,238.434L71.33,216.013L72.589,178.237L73.848,139.626L75.106,90.369L76.365,109.65L77.624,145.66L78.883,202.669L80.142,195.015L81.401,193.445L82.66,192.906L83.918,202.227L85.177,211.5L86.436,182.996L87.695,179.12L88.954,151.989L90.213,189.815L91.472,205.22L92.73,226.905L93.989,195.948L95.248,180.395L96.507,178.089L97.766,172.398L99.025,155.718L100.284,120.05L101.543,109.601L102.801,132.463L104.06,196.683L105.319,250.013L106.578,270.765L107.837,263.21L109.096,242.555L110.355,233.038L111.613,194.623L112.872,149.978L114.131,97.041L115.39,82.862L116.649,111.808L117.908,141.343L119.167,166.756L120.426,169.111L121.684,181.131L122.943,172.595L124.202,152.136L125.461,116.665L126.72,86.689L127.979,60L129.238,86.934L130.496,122.258L131.755,160.378L133.014,147.328L134.273,133.297L135.532,116.518L136.791,104.351L138.05,106.461L139.309,106.362L140.567,107.049L141.826,95.029L143.085,125.006L144.344,147.77L145.603,175.048L146.862,172.791L148.121,182.603L149.379,202.375L150.638,199.333L151.897,182.358L153.156,158.759L154.415,141.883L155.674,161.114L156.933,182.161L158.191,219.055L159.45,234.853L160.709,250.503L161.968,249.718L163.227,224.795L164.486,202.473L165.745,178.482L167.004,176.716L168.262,168.474L169.521,188.785L170.78,212.825L172.039,207.967L173.298,205.613L174.557,211.5L175.816,247.412L177.074,255.802L178.333,231.32L179.592,208.507L180.851,194.329L182.11,192.562L183.369,221.508L184.628,245.744L185.887,262.033L187.145,240.74L188.404,245.793L189.663,248.099L190.922,252.662L192.181,215.327L193.44,195.997L194.699,185.841L195.957,211.549L197.216,223.814L198.475,231.32L199.734,235.638L200.993,238.483L202.252,248.05L203.511,248.345L204.77,235.834L206.028,235.785L207.287,227.69L208.546,239.955L209.805,253.496L211.064,267.527L212.323,274.151L213.582,266.154L214.84,265.712L216.099,267.086L217.358,259.334L218.617,217.829L219.876,195.212L221.135,179.757L222.394,216.897L223.652,223.618L224.911,247.412L226.17,243.438L227.429,262.327L228.688,246.578L229.947,241.623L231.206,218.025L232.465,203.454L233.723,196.34L234.982,200.314L236.241,230.486L237.5,232.105L238.759,239.857L240.018,249.865L241.277,249.718L242.535,261.297L243.794,259.579L245.053,278.174L246.312,273.464L247.571,263.799L248.83,265.761L250.089,263.21L251.348,262.719L252.606,262.817L253.865,267.969L255.124,285.042L256.383,277.438L257.642,269.637L258.901,263.014L260.16,259.825L261.418,265.123L262.677,263.063L263.936,273.366L265.195,272.384L266.454,264.191L267.713,257.813L268.972,261.64L270.23,269.833L271.489,270.569L272.748,274.396L274.007,265.123L275.266,267.675L276.525,255.262L277.784,262.916L279.043,264.093L280.301,284.993L281.56,288.82L282.819,293.824L284.078,272.875L285.337,265.271L286.596,260.414L287.855,258.647L289.113,260.953L290.372,256.292L291.631,262.278L292.89,245.744L294.149,237.649L295.408,247.952L296.667,265.859L297.926,276.26L299.184,281.068L300.443,283.766L301.702,298.534L302.961,288.28L304.22,291.665L305.479,280.381L306.738,284.404L307.996,276.604L309.255,280.283L310.514,278.615L311.773,282.442L313.032,276.751L314.291,276.996L315.55,272.679L316.809,283.325L318.067,279.4L319.326,283.963L320.585,277.928L321.844,271.109L323.103,268.263L324.362,262.572L325.621,269.49L326.879,277.29L328.138,270.373L329.397,268.165L330.656,274.445L331.915,286.514L333.174,296.817L334.433,281.804L335.691,289.458L336.95,282.687L338.209,288.771L339.468,284.306L340.727,276.015L341.986,262.082L343.245,253.643L344.504,272.826L345.762,271.452L347.021,271.599L348.28,257.617L349.539,263.161L350.798,270.716L352.057,270.177L353.316,279.694L354.574,269.637L355.833,269.244L357.092,254.87L358.351,255.704L359.61,255.556L360.869,266.791L362.128,258.255L363.387,242.653L364.645,208.605L365.904,213.266L367.163,232.105L368.422,264.486L369.681,273.905L370.94,282.246L372.199,287.152L373.457,287.299L374.716,288.476L375.975,288.133L377.234,286.416L378.493,284.11L379.752,281.313L381.011,277.536L382.27,273.071L383.528,276.407L384.787,264.24L386.046,249.964L387.305,234.706L388.564,250.16L389.823,257.666L391.082,256.881L392.34,253.594L393.599,252.269L394.858,262.817L396.117,266.546L397.376,281.559L398.635,292.303L399.894,304.372L401.152,298.436L402.411,298.239L403.67,287.25L404.929,282.785L406.188,285.876L407.447,287.888L408.706,292.941L409.965,294.118L411.223,296.964L412.482,299.466L413.741,300.791L415,300.594L416.259,291.322L417.518,278.762L418.777,281.755L420.035,284.944L421.294,294.609L422.553,300.692L423.812,307.512L425.071,314.822L426.33,324.242L427.589,331.208L428.848,307.463L430.106,288.329L431.365,276.26L432.624,283.08L433.883,301.576L435.142,310.505L436.401,334.25L437.66,334.103L438.918,330.227L440.177,324.094L441.436,307.806L442.695,300.496L443.954,270.373L445.213,254.575L446.472,265.32L447.73,289.556L448.989,316.294L450.248,312.909L451.507,314.626L452.766,308.101L454.025,313.792L455.284,310.308L456.543,299.073L457.801,292.597L459.06,288.329L460.319,309.965L461.578,320.415L462.837,335.182L464.096,329.687L465.355,326.94L466.613,315.999L467.872,310.161L469.131,300.496L470.39,294.315L471.649,293.137L472.908,309.229L474.167,321.592L475.426,331.306L476.684,327.087L477.943,332.827L479.202,329.982L480.461,320.268L481.72,306.285L482.979,288.771L484.238,275.377L485.496,270.373L486.755,281.706L488.014,301.379L489.273,316.588L490.532,323.8L491.791,320.611L493.05,313.595L494.309,314.282L495.567,318.845L496.826,303.047L498.085,282.246L499.344,277.977L500.603,303.293L501.862,329.05L503.121,341.168L504.379,335.231L505.638,332.974L506.897,326.253L508.156,316.049L509.415,290.144L510.674,276.555L511.933,272.139L513.191,295.1L514.45,307.855L515.709,316.196L516.968,315.656L518.227,314.233L519.486,319.483L520.745,307.316L522.004,308.052L523.262,303.195L524.521,315.803L525.78,323.751L527.039,328.412L528.298,330.325L529.557,332.484L530.816,346.81L532.074,348.38L533.333,324.291L534.592,300.938L535.851,277.83L537.11,286.121L538.369,301.821L539.628,330.571L540.887,334.741L542.145,333.858L543.404,334.299L544.663,342.983L545.922,343.375L547.181,341.756L548.44,333.71L549.699,336.163L550.957,329.442L552.216,338.911L553.475,344.504L554.734,357.603L555.993,357.063L557.252,356.72L558.511,353.531L559.77,360.203L561.028,346.761L562.287,326.351L563.546,301.526L564.805,303.096L566.064,312.32L567.323,331.012L568.582,339.058L569.84,349.165L571.099,342.198L572.358,334.839L573.617,323.555L574.876,322.525L576.135,320.17L577.394,322.083L578.652,321.396L579.911,328.412L581.17,330.08L582.429,327.627L583.688,316.441L584.947,316.588L586.206,321.494L587.465,338.567L588.723,335.28L589.982,330.914L591.241,324.83L592.5,335.133L593.759,351.618L595.018,355.935L596.277,351.765L597.535,345.927L598.794,351.618L600.053,354.12L601.312,355.837L602.571,352.354L603.83,349.802L605.089,352.599L606.348,348.281L607.606,343.523L608.865,344.258L610.124,355.641L611.383,369.034L612.642,366.091L613.901,355.248L615.16,340.775L616.418,335.133L617.677,343.768L618.936,351.961L620.195,347.742L621.454,347.496L622.713,353.04L623.972,361.037L625.23,353.089L626.489,349.999L627.748,345.779L629.007,338.518L630.266,327.725L631.525,334.005L632.784,346.025L634.043,344.847L635.301,336.213L636.56,328.951L637.819,335.378L639.078,333.073L640.337,333.024L641.596,332.631L642.855,336.409L644.113,338.813L645.372,338.42L646.631,338.616L647.89,332.582L649.149,335.918L650.408,341.707L651.667,342.787L652.926,351.274L654.184,347.251L655.443,347.938L656.702,343.032L657.961,343.572L659.22,351.421L660.479,353.433L661.738,357.701L662.996,366.483L664.255,369.966L665.514,364.472L666.773,351.814L668.032,337.292L669.291,326.548L670.55,317.177L671.809,325.615L673.067,336.507L674.326,353.973L675.585,344.16L676.844,334.397L678.103,331.454L679.362,342.051L680.621,345.632L681.879,336.507L683.138,308.689L684.397,307.561L685.656,305.5L686.915,330.08L688.174,339.598L689.433,349.214L690.691,358.29L691.95,360.988L693.209,346.859L694.468,315.411L695.727,299.907L696.986,295.345L698.245,313.399L699.504,323.849L700.762,342.149L702.021,342.002L703.28,341.854L704.539,334.25L705.798,339.058L707.057,327.627L708.316,312.271L709.574,298.141L710.833,305.893L712.092,317.569L713.351,327.038L714.61,333.661L715.869,332.68L717.128,326.94L718.387,311.486L719.645,315.705L720.904,307.463L722.163,290.095L723.422,267.871L724.681,275.77L725.94,294.952L727.199,304.323L728.457,303.342L729.716,311.339L730.975,326.891L732.234,332.533L733.493,330.276L734.752,319.434L736.011,309.131L737.27,319.728L738.528,328.608L739.787,336.948L741.046,320.366L742.305,321.2L743.564,329.835L744.823,334.005L746.082,324.389L747.34,305.549L748.599,307.708L749.858,309.916L751.117,328.019L752.376,328.412L753.635,338.911L754.894,340.039L756.152,343.179L757.411,342.492L758.67,337.979L759.929,336.605L761.188,322.868L762.447,321.887L763.706,324.536L764.965,348.576L766.223,355.248L767.482,352.991L768.741,350.146L770,354.169"/></g></svg>