<svg class="plot-d6a7b5" fill="currentColor" font-family="system-ui, sans-serif" font-size="10" text-anchor="middle" width="830" height="470" viewBox="0 0 830 470" xmlns="http://www.w3.org/2000/svg" xmlns:xlink="http://www.w3.org/1999/xlink" color="#1e90ff"><style>:where(.plot-d6a7b5){--plot-background: white;display:block;height:intrinsic;max-width:100%}:where(.plot-d6a7b5 text),:where(.plot-d6a7b5 tspan){white-space:pre}</style><g aria-label="y-grid" stroke="currentColor" stroke-opacity=".1"><line x1="60" x2="770" y1="410" y2="410"/><line x1="60" x2="770" y1="360.939" y2="360.939"/><line x1="60" x2="770" y1="311.878" y2="311.878"/><line x1="60" x2="770" y1="262.817" y2="262.817"/><line x1="60" x2="770" y1="213.757" y2="213.757"/><line x1="60" x2="770" y1="164.696" y2="164.696"/><line x1="60" x2="770" y1="115.635" y2="115.635"/><line x1="60" x2="770" y1="66.574" y2="66.574"/></g><g aria-label="y-axis tick" fill="none" stroke="currentColor"><path transform="translate(60,410)" d="M0,0L-6,0"/><path transform="translate(60,360.9391645640594)" d="M0,0L-6,0"/><path transform="translate(60,311.8783291281189)" d="M0,0L-6,0"/><path transform="translate(60,262.8174936921783)" d="M0,0L-6,0"/><path transform="translate(60,213.7566582562377)" d="M0,0L-6,0"/><path transform="translate(60,164.69582282029717)" d="M0,0L-6,0"/><path transform="translate(60,115.6349873843566)" d="M0,0L-6,0"/><path transform="translate(60,66.57415194841604)" d="M0,0L-6,0"/></g><g aria-label="y-axis tick label" text-anchor="end" font-variant="tabular-nums"><text y=".32em" transform="translate(-9,0) translate(60,410)">0</text><text y=".32em" transform="translate(-9,0) translate(60,360.9391645640594)">1,000</text><text y=".32em" transform="translate(-9,0) translate(60,311.8783291281189)">2,000</text><text y=".32em" transform="translate(-9,0) translate(60,262.8174936921783)">3,000</text><text y=".32em" transform="translate(-9,0) translate(60,213.7566582562377)">4,000</text><text y=".32em" transform="translate(-9,0) translate(60,164.69582282029717)">5,000</text><text y=".32em" transform="translate(-9,0) translate(60,115.6349873843566)">6,000</text><text y=".32em" transform="translate(-9,0) translate(60,66.57415194841604)">7,000</text></g><g aria-label="y-axis label" text-anchor="start"><text y=".71em" transform="translate(-57,-57) translate(60,60)">↑ Visible Vestiges (4 days)</text></g><g aria-label="x-axis tick" fill="none" stroke="currentColor"><path transform="translate(108.08764940239044,410)" d="M0,0L0,6"/><path transform="translate(236.79282868525897,410)" d="M0,0L0,6"/><path transform="translate(366.91235059760953,410)" d="M0,0L0,6"/><path transform="translate(497.0318725099601,410)" d="M0,0L0,6"/><path transform="translate(625.7370517928287,410)" d="M0,0L0,6"/><path transform="translate(754.4422310756972,410)" d="M0,0L0,6"/></g><g aria-label="x-axis tick label" font-variant="tabular-nums"><text transform="translate(0,9) translate(108.08764940239044,410)"><tspan x="0" y=".71em">Apr</tspan><tspan x="0" dy="1em">2023</tspan></text><text y=".71em" transform="translate(0,9) translate(236.79282868525897,410)">Jul</text><text y=".71em" transform="translate(0,9) translate(366.91235059760953,410)">Oct</text><text transform="translate(0,9) translate(497.0318725099601,410)"><tspan x="0" y=".71em">Jan</tspan><tspan x="0" dy="1em">2024</tspan></text><text y=".71em" transform="translate(0,9) translate(625.7370517928287,410)">Apr</text><text y=".71em" transform="translate(0,9) translate(754.4422310756972,410)">Jul</text></g><g aria-label="line" fill="none" stroke="currentColor" stroke-width="1.5" stroke-linejoin="round" stroke-linecap="round"><path d="M60,410L60.943,385.371L61.886,295.296L62.829,246.726L63.772,236.913L64.714,270.177L65.657,274.003L66.6,266.497L67.543,238.434L68.486,216.013L69.429,178.237L70.372,139.626L71.315,90.369L72.258,109.65L73.201,145.66L74.143,202.669L75.086,195.015L76.029,193.445L76.972,192.906L77.915,202.227L78.858,211.5L79.801,182.996L80.744,179.12L81.687,151.989L82.629,189.815L83.572,205.22L84.515,226.905L85.458,195.948L86.401,180.395L87.344,178.089L88.287,172.398L89.23,155.718L90.173,120.05L91.116,109.601L92.058,132.463L93.001,196.683L93.944,250.013L94.887,270.765L95.83,263.21L96.773,242.555L97.716,233.038L98.659,194.623L99.602,149.978L100.544,97.041L101.487,82.862L102.43,111.808L103.373,141.343L104.316,166.756L105.259,169.111L106.202,181.131L107.145,172.595L108.088,152.136L109.031,116.665L109.973,86.689L110.916,60L111.859,86.934L112.802,122.258L113.745,160.378L114.688,147.328L115.631,133.297L116.574,116.518L117.517,104.351L118.459,106.461L119.402,106.362L120.345,107.049L121.288,95.029L122.231,125.006L123.174,147.77L124.117,175.048L125.06,172.791L126.003,182.603L126.946,202.375L127.888,199.333L128.831,182.358L129.774,158.759L130.717,141.883L131.66,161.114L132.603,182.161L133.546,219.055L134.489,234.853L135.432,250.503L136.375,249.718L137.317,224.795L138.26,202.473L139.203,178.482L140.146,176.716L141.089,168.474L142.032,188.785L142.975,212.825L143.918,207.967L144.861,205.613L145.803,211.5L146.746,247.412L147.689,255.802L148.632,231.32L149.575,208.507L150.518,194.329L151.461,192.562L152.404,221.508L153.347,245.744L154.29,262.033L155.232,240.74L156.175,245.793L157.118,248.099L158.061,252.662L159.004,215.327L159.947,195.997L160.89,185.841L161.833,211.549L162.776,223.814L163.718,231.32L164.661,235.638L165.604,238.483L166.547,248.05L167.49,248.345L168.433,235.834L169.376,235.785L170.319,227.69L171.262,239.955L172.205,253.496L173.147,267.527L174.09,274.151L175.033,266.154L175.976,265.712L176.919,267.086L177.862,259.334L178.805,217.829L179.748,195.212L180.691,179.757L181.633,216.897L182.576,223.618L183.519,247.412L184.462,243.438L185.405,262.327L186.348,246.578L187.291,241.623L188.234,218.025L189.177,203.454L190.12,196.34L191.062,200.314L192.005,230.486L192.948,232.105L193.891,239.857L194.834,249.865L195.777,249.718L196.72,261.297L197.663,259.579L198.606,278.174L199.548,273.464L200.491,263.799L201.434,265.761L202.377,263.21L203.32,262.719L204.263,262.817L205.206,267.969L206.149,285.042L207.092,277.438L208.035,269.637L208.977,263.014L209.92,259.825L210.863,265.123L211.806,263.063L212.749,273.366L213.692,272.384L214.635,264.191L215.578,257.813L216.521,261.64L217.463,269.833L218.406,270.569L219.349,274.396L220.292,265.123L221.235,267.675L222.178,255.262L223.121,262.916L224.064,264.093L225.007,284.993L225.95,288.82L226.892,293.824L227.835,272.875L228.778,265.271L229.721,260.414L230.664,258.647L231.607,260.953L232.55,256.292L233.493,262.278L234.436,245.744L235.378,237.649L236.321,247.952L237.264,265.859L238.207,276.26L239.15,281.068L240.093,283.766L241.036,298.534L241.979,288.28L242.922,291.665L243.865,280.381L244.807,284.404L245.75,276.604L246.693,280.283L247.636,278.615L248.579,282.442L249.522,276.751L250.465,276.996L251.408,272.679L252.351,283.325L253.293,279.4L254.236,283.963L255.179,277.928L256.122,271.109L257.065,268.263L258.008,262.572L258.951,269.49L259.894,277.29L260.837,270.373L261.78,268.165L262.722,274.445L263.665,286.514L264.608,296.817L265.551,281.804L266.494,289.458L267.437,282.687L268.38,288.771L269.323,284.306L270.266,276.015L271.208,262.082L272.151,253.643L273.094,272.826L274.037,271.452L274.98,271.599L275.923,257.617L276.866,263.161L277.809,270.716L278.752,270.177L279.695,279.694L280.637,269.637L281.58,269.244L282.523,254.87L283.466,255.704L284.409,255.556L285.352,266.791L286.295,258.255L287.238,242.653L288.181,208.605L289.124,213.266L290.066,232.105L291.009,264.486L291.952,273.905L292.895,282.246L293.838,287.152L294.781,287.299L295.724,288.476L296.667,288.133L297.61,286.416L298.552,284.11L299.495,281.313L300.438,277.536L301.381,273.071L302.324,276.407L303.267,264.24L304.21,249.964L305.153,234.706L306.096,250.16L307.039,257.666L307.981,256.881L308.924,253.594L309.867,252.269L310.81,262.817L311.753,266.546L312.696,281.559L313.639,292.303L314.582,304.372L315.525,298.436L316.467,298.239L317.41,287.25L318.353,282.785L319.296,285.876L320.239,287.888L321.182,292.941L322.125,294.118L323.068,296.964L324.011,299.466L324.954,300.791L325.896,300.594L326.839,291.322L327.782,278.762L328.725,281.755L329.668,284.944L330.611,294.609L331.554,300.692L332.497,307.512L333.44,314.822L334.382,324.242L335.325,331.208L336.268,307.463L337.211,288.329L338.154,276.26L339.097,283.08L340.04,301.576L340.983,310.505L341.926,334.25L342.869,334.103L343.811,330.227L344.754,324.094L345.697,307.806L346.64,300.496L347.583,270.373L348.526,254.575L349.469,265.32L350.412,289.556L351.355,316.294L352.297,312.909L353.24,314.626L354.183,308.101L355.126,313.792L356.069,310.308L357.012,299.073L357.955,292.597L358.898,288.329L359.841,309.965L360.784,320.415L361.726,335.182L362.669,329.687L363.612,326.94L364.555,315.999L365.498,310.161L366.441,300.496L367.384,294.315L368.327,293.137L369.27,309.229L370.212,321.592L371.155,331.306L372.098,327.087L373.041,332.827L373.984,329.982L374.927,320.268L375.87,306.285L376.813,288.771L377.756,275.377L378.699,270.373L379.641,281.706L380.584,301.379L381.527,316.588L382.47,323.8L383.413,320.611L384.356,313.595L385.299,314.282L386.242,318.845L387.185,303.047L388.127,282.246L389.07,277.977L390.013,303.293L390.956,329.05L391.899,341.168L392.842,335.231L393.785,332.974L394.728,326.253L395.671,316.049L396.614,290.144L397.556,276.555L398.499,272.139L399.442,295.1L400.385,307.855L401.328,316.196L402.271,315.656L403.214,314.233L404.157,319.483L405.1,307.316L406.042,308.052L406.985,303.195L407.928,315.803L408.871,323.751L409.814,328.412L410.757,330.325L411.7,332.484L412.643,346.81L413.586,348.38L414.529,324.291L415.471,300.938L416.414,277.83L417.357,286.121L418.3,301.821L419.243,330.571L420.186,334.741L421.129,333.858L422.072,334.299L423.015,342.983L423.958,343.375L424.9,341.756L425.843,333.71L426.786,336.163L427.729,329.442L428.672,338.911L429.615,344.504L430.558,357.603L431.501,357.063L432.444,356.72L433.386,353.531L434.329,360.203L435.272,346.761L436.215,326.351L437.158,301.526L438.101,303.096L439.044,312.32L439.987,331.012L440.93,339.058L441.873,349.165L442.815,342.198L443.758,334.839L444.701,323.555L445.644,322.525L446.587,320.17L447.53,322.083L448.473,321.396L449.416,328.412L450.359,330.08L451.301,327.627L452.244,316.441L453.187,316.588L454.13,321.494L455.073,338.567L456.016,335.28L456.959,330.914L457.902,324.83L458.845,335.133L459.788,351.618L460.73,355.935L461.673,351.765L462.616,345.927L463.559,351.618L464.502,354.12L465.445,355.837L466.388,352.354L467.331,349.802L468.274,352.599L469.216,348.281L470.159,343.523L471.102,344.258L472.045,355.641L472.988,369.034L473.931,366.091L474.874,355.248L475.817,340.775L476.76,335.133L477.703,343.768L478.645,351.961L479.588,347.742L480.531,347.496L481.474,353.04L482.417,361.037L483.36,353.089L484.303,349.999L485.246,345.779L486.189,338.518L487.131,327.725L488.074,334.005L489.017,346.025L489.96,344.847L490.903,336.213L491.846,328.951L492.789,335.378L493.732,333.073L494.675,333.024L495.618,332.631L496.56,336.409L497.503,338.813L498.446,338.42L499.389,338.616L500.332,332.582L501.275,335.918L502.218,341.707L503.161,342.787L504.104,351.274L505.046,347.251L505.989,347.938L506.932,343.032L507.875,343.572L508.818,351.421L509.761,353.433L510.704,357.701L511.647,366.483L512.59,369.966L513.533,364.472L514.475,351.814L515.418,337.292L516.361,326.548L517.304,317.177L518.247,325.615L519.19,336.507L520.133,353.973L521.076,344.16L522.019,334.397L522.961,331.454L523.904,342.051L524.847,345.632L525.79,336.507L526.733,308.689L527.676,307.561L528.619,305.5L529.562,330.08L530.505,339.598L531.448,349.214L532.39,358.29L533.333,360.988L534.276,346.859L535.219,315.411L536.162,299.907L537.105,295.345L538.048,313.399L538.991,323.849L539.934,342.149L540.876,342.002L541.819,341.854L542.762,334.25L543.705,339.058L544.648,327.627L545.591,312.271L546.534,298.141L547.477,305.893L548.42,317.569L549.363,327.038L550.305,333.661L551.248,332.68L552.191,326.94L553.134,311.486L554.077,315.705L555.02,307.463L555.963,290.095L556.906,267.871L557.849,275.77L558.792,294.952L559.734,304.323L560.677,303.342L561.62,311.339L562.563,326.891L563.506,332.533L564.449,330.276L565.392,319.434L566.335,309.131L567.278,319.728L568.22,328.608L569.163,336.948L570.106,320.366L571.049,321.2L571.992,329.835L572.935,334.005L573.878,324.389L574.821,305.549L575.764,307.708L576.707,309.916L577.649,328.019L578.592,328.412L579.535,338.911L580.478,340.039L581.421,343.179L582.364,342.492L583.307,337.979L584.25,336.605L585.193,322.868L586.135,321.887L587.078,324.536L588.021,348.576L588.964,355.248L589.907,352.991L590.85,350.146L591.793,354.169L592.736,360.596L593.679,347.546L594.622,339.058L595.564,338.764L596.507,341.02L597.45,340.186L598.393,347.006L599.336,359.664L600.279,356.426L601.222,346.81L602.165,339.941L603.108,337.194L604.05,329.344L604.993,313.743L605.936,313.105L606.879,321.396L607.822,359.516L608.765,387.825L609.708,406.124L610.651,409.166L611.594,409.215L612.537,408.97L613.479,408.724L614.422,406.86L615.365,405.634L616.308,405.094L617.251,404.652L618.194,401.954L619.137,399.943L620.08,398.667L621.023,395.38L621.965,388.168L622.908,366.287L623.851,356.475L624.794,350.391L625.737,361.479L626.68,364.913L627.623,365.158L628.566,359.418L629.509,355.101L630.452,349.459L631.394,347.349L632.337,345.73L633.28,343.179L634.223,347.251L635.166,353.089L636.109,356.916L637.052,353.482L637.995,358.094L638.938,364.275L639.88,365.06L640.823,362.656L641.766,364.472L642.709,367.072L643.652,364.226L644.595,355.15L645.538,355.592L646.481,359.565L647.424,364.717L648.367,368.544L649.309,365.845L650.252,372.91L651.195,375.559L652.138,382.133L653.081,379.043L654.024,377.522L654.967,367.759L655.91,356.622L656.853,354.856L657.795,361.871L658.738,364.717L659.681,363.883L660.624,359.271L661.567,365.06L662.51,360.056L663.453,360.007L664.396,354.954L665.339,362.068L666.282,365.894L667.224,369.77L668.167,365.551L669.11,357.456L670.053,361.43L670.996,362.656L671.939,367.072L672.882,361.381L673.825,352.697L674.768,347.889L675.71,341.266L676.653,353.089L677.596,360.105L678.539,367.906L679.482,364.864L680.425,362.902L681.368,360.841L682.311,356.18L683.254,356.867L684.197,351.765L685.139,351.912L686.082,348.085L687.025,347.153L687.968,353.973L688.911,360.056L689.854,376.099L690.797,378.258L691.74,373.989L692.683,366.091L693.625,343.228L694.568,341.168L695.511,331.306L696.454,353.776L697.397,359.026L698.34,370.555L699.283,360.89L700.226,365.453L701.169,364.177L702.112,368.445L703.054,359.86L703.997,351.47L704.94,338.911L705.883,339.156L706.826,337.096L707.769,355.199L708.712,354.561L709.655,351.421L710.598,341.953L711.541,343.572L712.483,349.312L713.426,345.338L714.369,346.319L715.312,338.616L716.255,349.999L717.198,349.508L718.141,360.449L719.084,353.335L720.027,353.089L720.969,349.655L721.912,352.206L722.855,347.055L723.798,342.198L724.741,332.19L725.684,331.11L726.627,340.186L727.57,342.541L728.513,347.447L729.456,351.029L730.398,362.803L731.341,357.652L732.284,355.935L733.227,351.372L734.17,354.561L735.113,353.678L736.056,351.716L736.999,363.098L737.942,372.223L738.884,378.405L739.827,373.008L740.77,354.414L741.713,352.942L742.656,353.188L743.599,366.189L744.542,349.655L745.485,349.999L746.428,348.772L747.371,359.32L748.313,353.629L749.256,359.222L750.199,367.072L751.142,374.922L752.085,373.548L753.028,373.989L753.971,368.298L754.914,353.825L755.857,349.312L756.799,351.372L757.742,354.757L758.685,356.573L759.628,352.206L760.571,362.951L761.514,367.023L762.457,374.48L763.4,370.849L764.343,365.355L765.286,366.974L766.228,372.468L767.171,378.994L768.114,375.952L769.057,373.695L770,369.819"/></g></svg>