<svg class="plot-d6a7b5" fill="currentColor" font-family="system-ui, sans-serif" font-size="10" text-anchor="middle" width="830" height="470" viewBox="0 0 830 470" xmlns="http://www.w3.org/2000/svg" xmlns:xlink="http://www.w3.org/1999/xlink" color="#1e90ff"><style>:where(.plot-d6a7b5){--plot-background: white;display:block;height:intrinsic;max-width:100%}:where(.plot-d6a7b5 text),:where(.plot-d6a7b5 tspan){white-space:pre}</style><g aria-label="y-grid" stroke="currentColor" stroke-opacity=".1"><line x1="60" x2="770" y1="410" y2="410"/><line x1="60" x2="770" y1="360.939" y2="360.939"/><line x1="60" x2="770" y1="311.878" y2="311.878"/><line x1="60" x2="770" y1="262.817" y2="262.817"/><line x1="60" x2="770" y1="213.757" y2="213.757"/><line x1="60" x2="770" y1="164.696" y2="164.696"/><line x1="60" x2="770" y1="115.635" y2="115.635"/><line x1="60" x2="770" y1="66.574" y2="66.574"/></g><g aria-label="y-axis tick" fill="none" stroke="currentColor"><path transform="translate(60,410)" d="M0,0L-6,0"/><path transform="translate(60,360.9391645640594)" d="M0,0L-6,0"/><path transform="translate(60,311.8783291281189)" d="M0,0L-6,0"/><path transform="translate(60,262.8174936921783)" d="M0,0L-6,0"/><path transform="translate(60,213.7566582562377)" d="M0,0L-6,0"/><path transform="translate(60,164.69582282029717)" d="M0,0L-6,0"/><path transform="translate(60,115.6349873843566)" d="M0,0L-6,0"/><path transform="translate(60,66.57415194841604)" d="M0,0L-6,0"/></g><g aria-label="y-axis tick label" text-anchor="end" font-variant="tabular-nums"><text y=".32em" transform="translate(-9,0) translate(60,410)">0</text><text y=".32em" transform="translate(-9,0) translate(60,360.9391645640594)">1,000</text><text y=".32em" transform="translate(-9,0) translate(60,311.8783291281189)">2,000</text><text y=".32em" transform="translate(-9,0) translate(60,262.8174936921783)">3,000</text><text y=".32em" transform="translate(-9,0) translate(60,213.7566582562377)">4,000</text><text y=".32em" transform="translate(-9,0) translate(60,164.69582282029717)">5,000</text><text y=".32em" transform="translate(-9,0) translate(60,115.6349873843566)">6,000</text><text y=".32em" transform="translate(-9,0) translate(60,66.57415194841604)">7,000</text></g><g aria-label="y-axis label" text-anchor="start"><text y=".71em" transform="translate(-57,-57) translate(60,60)">↑ Visible Vestiges (4 days)</text></g><g aria-label="x-axis tick" fill="none" stroke="currentColor"><path transform="translate(90.81702127659575,410)" d="M0,0L0,6"/><path transform="translate(173.29787234042553,410)" d="M0,0L0,6"/><path transform="translate(256.6851063829787,410)" d="M0,0L0,6"/><path transform="translate(340.07234042553193,410)" d="M0,0L0,6"/><path transform="translate(422.55319148936167,410)" d="M0,0L0,6"/><path transform="translate(505.0340425531915,410)" d="M0,0L0,6"/><path transform="translate(588.4212765957446,410)" d="M0,0L0,6"/><path transform="translate(671.8085106382979,410)" d="M0,0L0,6"/><path transform="translate(753.3829787234042,410)" d="M0,0L0,6"/></g><g aria-label="x-axis tick label" font-variant="tabular-nums"><text transform="translate(0,9) translate(90.81702127659575,410)"><tspan x="0" y=".71em">Apr</tspan><tspan x="0" dy="1em">2023</tspan></text><text y=".71em" transform="translate(0,9) translate(173.29787234042553,410)">Jul</text><text y=".71em" transform="translate(0,9) translate(256.6851063829787,410)">Oct</text><text transform="translate(0,9) translate(340.07234042553193,410)"><tspan x="0" y=".71em">Jan</tspan><tspan x="0" dy="1em">2024</tspan></text><text y=".71em" transform="translate(0,9) translate(422.55319148936167,410)">Apr</text><text y=".71em" transform="translate(0,9) translate(505.0340425531915,410)">Jul</text><text y=".71em" transform="translate(0,9) translate(588.4212765957446,410)">Oct</text><text transform="translate(0,9) translate(671.8085106382979,410)"><tspan x="0" y=".71em">Jan</tspan><tspan x="0" dy="1em">2025</tspan></text><text y=".71em" transform="translate(0,9) translate(753.3829787234042,410)">Apr</text></g><g aria-label="line" fill="none" stroke="currentColor" stroke-width="1.5" stroke-linejoin="round" stroke-linecap="round"><path d="M60,410L60.604,385.371L61.209,295.296L61.813,246.726L62.417,236.913L63.021,270.177L63.626,274.003L64.23,266.497L64.834,238.434L65.438,216.013L66.043,178.237L66.647,139.626L67.251,90.369L67.855,109.65L68.46,145.66L69.064,202.669L69.668,195.015L70.272,193.445L70.877,192.906L71.481,202.227L72.085,211.5L72.689,182.996L73.294,179.12L73.898,151.989L74.502,189.815L75.106,205.22L75.711,226.905L76.315,195.948L76.919,180.395L77.523,178.089L78.128,172.398L78.732,155.718L79.336,120.05L79.94,109.601L80.545,132.463L81.149,196.683L81.753,250.013L82.357,270.765L82.962,263.21L83.566,242.555L84.17,233.038L84.774,194.623L85.379,149.978L85.983,97.041L86.587,82.862L87.191,111.808L87.796,141.343L88.4,166.756L89.004,169.111L89.609,181.131L90.213,172.595L90.817,152.136L91.421,116.665L92.026,86.689L92.63,60L93.234,86.934L93.838,122.258L94.443,160.378L95.047,147.328L95.651,133.297L96.255,116.518L96.86,104.351L97.464,106.461L98.068,106.362L98.672,107.049L99.277,95.029L99.881,125.006L100.485,147.77L101.089,175.048L101.694,172.791L102.298,182.603L102.902,202.375L103.506,199.333L104.111,182.358L104.715,158.759L105.319,141.883L105.923,161.114L106.528,182.161L107.132,219.055L107.736,234.853L108.34,250.503L108.945,249.718L109.549,224.795L110.153,202.473L110.757,178.482L111.362,176.716L111.966,168.474L112.57,188.785L113.174,212.825L113.779,207.967L114.383,205.613L114.987,211.5L115.591,247.412L116.196,255.802L116.8,231.32L117.404,208.507L118.009,194.329L118.613,192.562L119.217,221.508L119.821,245.744L120.426,262.033L121.03,240.74L121.634,245.793L122.238,248.099L122.843,252.662L123.447,215.327L124.051,195.997L124.655,185.841L125.26,211.549L125.864,223.814L126.468,231.32L127.072,235.638L127.677,238.483L128.281,248.05L128.885,248.345L129.489,235.834L130.094,235.785L130.698,227.69L131.302,239.955L131.906,253.496L132.511,267.527L133.115,274.151L133.719,266.154L134.323,265.712L134.928,267.086L135.532,259.334L136.136,217.829L136.74,195.212L137.345,179.757L137.949,216.897L138.553,223.618L139.157,247.412L139.762,243.438L140.366,262.327L140.97,246.578L141.574,241.623L142.179,218.025L142.783,203.454L143.387,196.34L143.991,200.314L144.596,230.486L145.2,232.105L145.804,239.857L146.409,249.865L147.013,249.718L147.617,261.297L148.221,259.579L148.826,278.174L149.43,273.464L150.034,263.799L150.638,265.761L151.243,263.21L151.847,262.719L152.451,262.817L153.055,267.969L153.66,285.042L154.264,277.438L154.868,269.637L155.472,263.014L156.077,259.825L156.681,265.123L157.285,263.063L157.889,273.366L158.494,272.384L159.098,264.191L159.702,257.813L160.306,261.64L160.911,269.833L161.515,270.569L162.119,274.396L162.723,265.123L163.328,267.675L163.932,255.262L164.536,262.916L165.14,264.093L165.745,284.993L166.349,288.82L166.953,293.824L167.557,272.875L168.162,265.271L168.766,260.414L169.37,258.647L169.974,260.953L170.579,256.292L171.183,262.278L171.787,245.744L172.391,237.649L172.996,247.952L173.6,265.859L174.204,276.26L174.809,281.068L175.413,283.766L176.017,298.534L176.621,288.28L177.226,291.665L177.83,280.381L178.434,284.404L179.038,276.604L179.643,280.283L180.247,278.615L180.851,282.442L181.455,276.751L182.06,276.996L182.664,272.679L183.268,283.325L183.872,279.4L184.477,283.963L185.081,277.928L185.685,271.109L186.289,268.263L186.894,262.572L187.498,269.49L188.102,277.29L188.706,270.373L189.311,268.165L189.915,274.445L190.519,286.514L191.123,296.817L191.728,281.804L192.332,289.458L192.936,282.687L193.54,288.771L194.145,284.306L194.749,276.015L195.353,262.082L195.957,253.643L196.562,272.826L197.166,271.452L197.77,271.599L198.374,257.617L198.979,263.161L199.583,270.716L200.187,270.177L200.791,279.694L201.396,269.637L202,269.244L202.604,254.87L203.209,255.704L203.813,255.556L204.417,266.791L205.021,258.255L205.626,242.653L206.23,208.605L206.834,213.266L207.438,232.105L208.043,264.486L208.647,273.905L209.251,282.246L209.855,287.152L210.46,287.299L211.064,288.476L211.668,288.133L212.272,286.416L212.877,284.11L213.481,281.313L214.085,277.536L214.689,273.071L215.294,276.407L215.898,264.24L216.502,249.964L217.106,234.706L217.711,250.16L218.315,257.666L218.919,256.881L219.523,253.594L220.128,252.269L220.732,262.817L221.336,266.546L221.94,281.559L222.545,292.303L223.149,304.372L223.753,298.436L224.357,298.239L224.962,287.25L225.566,282.785L226.17,285.876L226.774,287.888L227.379,292.941L227.983,294.118L228.587,296.964L229.191,299.466L229.796,300.791L230.4,300.594L231.004,291.322L231.609,278.762L232.213,281.755L232.817,284.944L233.421,294.609L234.026,300.692L234.63,307.512L235.234,314.822L235.838,324.242L236.443,331.208L237.047,307.463L237.651,288.329L238.255,276.26L238.86,283.08L239.464,301.576L240.068,310.505L240.672,334.25L241.277,334.103L241.881,330.227L242.485,324.094L243.089,307.806L243.694,300.496L244.298,270.373L244.902,254.575L245.506,265.32L246.111,289.556L246.715,316.294L247.319,312.909L247.923,314.626L248.528,308.101L249.132,313.792L249.736,310.308L250.34,299.073L250.945,292.597L251.549,288.329L252.153,309.965L252.757,320.415L253.362,335.182L253.966,329.687L254.57,326.94L255.174,315.999L255.779,310.161L256.383,300.496L256.987,294.315L257.591,293.137L258.196,309.229L258.8,321.592L259.404,331.306L260.009,327.087L260.613,332.827L261.217,329.982L261.821,320.268L262.426,306.285L263.03,288.771L263.634,275.377L264.238,270.373L264.843,281.706L265.447,301.379L266.051,316.588L266.655,323.8L267.26,320.611L267.864,313.595L268.468,314.282L269.072,318.845L269.677,303.047L270.281,282.246L270.885,277.977L271.489,303.293L272.094,329.05L272.698,341.168L273.302,335.231L273.906,332.974L274.511,326.253L275.115,316.049L275.719,290.144L276.323,276.555L276.928,272.139L277.532,295.1L278.136,307.855L278.74,316.196L279.345,315.656L279.949,314.233L280.553,319.483L281.157,307.316L281.762,308.052L282.366,303.195L282.97,315.803L283.574,323.751L284.179,328.412L284.783,330.325L285.387,332.484L285.991,346.81L286.596,348.38L287.2,324.291L287.804,300.938L288.409,277.83L289.013,286.121L289.617,301.821L290.221,330.571L290.826,334.741L291.43,333.858L292.034,334.299L292.638,342.983L293.243,343.375L293.847,341.756L294.451,333.71L295.055,336.163L295.66,329.442L296.264,338.911L296.868,344.504L297.472,357.603L298.077,357.063L298.681,356.72L299.285,353.531L299.889,360.203L300.494,346.761L301.098,326.351L301.702,301.526L302.306,303.096L302.911,312.32L303.515,331.012L304.119,339.058L304.723,349.165L305.328,342.198L305.932,334.839L306.536,323.555L307.14,322.525L307.745,320.17L308.349,322.083L308.953,321.396L309.557,328.412L310.162,330.08L310.766,327.627L311.37,316.441L311.974,316.588L312.579,321.494L313.183,338.567L313.787,335.28L314.391,330.914L314.996,324.83L315.6,335.133L316.204,351.618L316.809,355.935L317.413,351.765L318.017,345.927L318.621,351.618L319.226,354.12L319.83,355.837L320.434,352.354L321.038,349.802L321.643,352.599L322.247,348.281L322.851,343.523L323.455,344.258L324.06,355.641L324.664,369.034L325.268,366.091L325.872,355.248L326.477,340.775L327.081,335.133L327.685,343.768L328.289,351.961L328.894,347.742L329.498,347.496L330.102,353.04L330.706,361.037L331.311,353.089L331.915,349.999L332.519,345.779L333.123,338.518L333.728,327.725L334.332,334.005L334.936,346.025L335.54,344.847L336.145,336.213L336.749,328.951L337.353,335.378L337.957,333.073L338.562,333.024L339.166,332.631L339.77,336.409L340.374,338.813L340.979,338.42L341.583,338.616L342.187,332.582L342.791,335.918L343.396,341.707L344,342.787L344.604,351.274L345.209,347.251L345.813,347.938L346.417,343.032L347.021,343.572L347.626,351.421L348.23,353.433L348.834,357.701L349.438,366.483L350.043,369.966L350.647,364.472L351.251,351.814L351.855,337.292L352.46,326.548L353.064,317.177L353.668,325.615L354.272,336.507L354.877,353.973L355.481,344.16L356.085,334.397L356.689,331.454L357.294,342.051L357.898,345.632L358.502,336.507L359.106,308.689L359.711,307.561L360.315,305.5L360.919,330.08L361.523,339.598L362.128,349.214L362.732,358.29L363.336,360.988L363.94,346.859L364.545,315.411L365.149,299.907L365.753,295.345L366.357,313.399L366.962,323.849L367.566,342.149L368.17,342.002L368.774,341.854L369.379,334.25L369.983,339.058L370.587,327.627L371.191,312.271L371.796,298.141L372.4,305.893L373.004,317.569L373.609,327.038L374.213,333.661L374.817,332.68L375.421,326.94L376.026,311.486L376.63,315.705L377.234,307.463L377.838,290.095L378.443,267.871L379.047,275.77L379.651,294.952L380.255,304.323L380.86,303.342L381.464,311.339L382.068,326.891L382.672,332.533L383.277,330.276L383.881,319.434L384.485,309.131L385.089,319.728L385.694,328.608L386.298,336.948L386.902,320.366L387.506,321.2L388.111,329.835L388.715,334.005L389.319,324.389L389.923,305.549L390.528,307.708L391.132,309.916L391.736,328.019L392.34,328.412L392.945,338.911L393.549,340.039L394.153,343.179L394.757,342.492L395.362,337.979L395.966,336.605L396.57,322.868L397.174,321.887L397.779,324.536L398.383,348.576L398.987,355.248L399.591,352.991L400.196,350.146L400.8,354.169L401.404,360.596L402.009,347.546L402.613,339.058L403.217,338.764L403.821,341.02L404.426,340.186L405.03,347.006L405.634,359.664L406.238,356.426L406.843,346.81L407.447,339.941L408.051,337.194L408.655,329.344L409.26,313.743L409.864,313.105L410.468,321.396L411.072,359.516L411.677,387.825L412.281,406.124L412.885,409.166L413.489,409.215L414.094,408.97L414.698,408.724L415.302,406.86L415.906,405.634L416.511,405.094L417.115,404.652L417.719,401.954L418.323,399.943L418.928,398.667L419.532,395.38L420.136,388.168L420.74,366.287L421.345,356.475L421.949,350.391L422.553,361.479L423.157,364.913L423.762,365.158L424.366,359.418L424.97,355.101L425.574,349.459L426.179,347.349L426.783,345.73L427.387,343.179L427.991,347.251L428.596,353.089L429.2,356.916L429.804,353.482L430.409,358.094L431.013,364.275L431.617,365.06L432.221,362.656L432.826,364.472L433.43,367.072L434.034,364.226L434.638,355.15L435.243,355.592L435.847,359.565L436.451,364.717L437.055,368.544L437.66,365.845L438.264,372.91L438.868,375.559L439.472,382.133L440.077,379.043L440.681,377.522L441.285,367.759L441.889,356.622L442.494,354.856L443.098,361.871L443.702,364.717L444.306,363.883L444.911,359.271L445.515,365.06L446.119,360.056L446.723,360.007L447.328,354.954L447.932,362.068L448.536,365.894L449.14,369.77L449.745,365.551L450.349,357.456L450.953,361.43L451.557,362.656L452.162,367.072L452.766,361.381L453.37,352.697L453.974,347.889L454.579,341.266L455.183,353.089L455.787,360.105L456.391,367.906L456.996,364.864L457.6,362.902L458.204,360.841L458.809,356.18L459.413,356.867L460.017,351.765L460.621,351.912L461.226,348.085L461.83,347.153L462.434,353.973L463.038,360.056L463.643,376.099L464.247,378.258L464.851,373.989L465.455,366.091L466.06,343.228L466.664,341.168L467.268,331.306L467.872,353.776L468.477,359.026L469.081,370.555L469.685,360.89L470.289,365.453L470.894,364.177L471.498,368.445L472.102,359.86L472.706,351.47L473.311,338.911L473.915,339.156L474.519,337.096L475.123,355.199L475.728,354.561L476.332,351.421L476.936,341.953L477.54,343.572L478.145,349.312L478.749,345.338L479.353,346.319L479.957,338.616L480.562,349.999L481.166,349.508L481.77,360.449L482.374,353.335L482.979,353.089L483.583,349.655L484.187,352.206L484.791,347.055L485.396,342.198L486,332.19L486.604,331.11L487.209,340.186L487.813,342.541L488.417,347.447L489.021,351.029L489.626,362.803L490.23,357.652L490.834,355.935L491.438,351.372L492.043,354.561L492.647,353.678L493.251,351.716L493.855,363.098L494.46,372.223L495.064,378.405L495.668,373.008L496.272,354.414L496.877,352.942L497.481,353.188L498.085,366.189L498.689,349.655L499.294,349.999L499.898,348.772L500.502,359.32L501.106,353.629L501.711,359.222L502.315,367.072L502.919,374.922L503.523,373.548L504.128,373.989L504.732,368.298L505.336,353.825L505.94,349.312L506.545,351.372L507.149,354.757L507.753,356.573L508.357,352.206L508.962,362.951L509.566,367.023L510.17,374.48L510.774,370.849L511.379,365.355L511.983,366.974L512.587,372.468L513.191,378.994L513.796,375.952L514.4,373.695L515.004,369.819L515.609,363.638L516.213,358.192L516.817,363.638L517.421,370.015L518.026,370.997L518.63,365.698L519.234,366.777L519.838,366.826L520.443,366.14L521.047,363.098L521.651,365.306L522.255,365.502L522.86,361.086L523.464,352.844L524.068,336.507L524.672,333.612L525.277,335.722L525.881,353.433L526.485,359.32L527.089,361.135L527.694,362.068L528.298,365.6L528.902,372.125L529.506,372.174L530.111,367.759L530.715,364.717L531.319,355.493L531.923,354.169L532.528,344.013L533.132,342.051L533.736,333.024L534.34,333.612L534.945,335.673L535.549,334.888L536.153,332.435L536.757,341.07L537.362,348.723L537.966,343.228L538.57,339.892L539.174,342.639L539.779,354.463L540.383,356.867L540.987,365.06L541.591,341.511L542.196,317.373L542.8,285.925L543.404,289.408L544.009,294.805L544.613,309.572L545.217,313.497L545.821,307.365L546.426,307.168L547.03,321.985L547.634,333.907L548.238,332.582L548.843,327.038L549.447,323.26L550.051,328.167L550.655,344.013L551.26,352.255L551.864,359.86L552.468,358.633L553.072,363.588L553.677,359.32L554.281,352.893L554.885,346.761L555.489,339.598L556.094,341.119L556.698,346.662L557.302,354.463L557.906,358.535L558.511,367.464L559.115,376.786L559.719,382.918L560.323,381.986L560.928,376.442L561.532,376.099L562.136,372.518L562.74,375.756L563.345,373.253L563.949,377.767L564.553,374.872L565.157,376.148L565.762,367.611L566.366,366.925L566.97,362.46L567.574,369.868L568.179,366.385L568.783,363.588L569.387,359.418L569.991,364.521L570.596,367.611L571.2,372.419L571.804,372.076L572.409,378.65L573.013,379.582L573.617,381.005L574.221,380.024L574.826,374.087L575.43,372.125L576.034,370.064L576.638,374.774L577.243,374.333L577.847,373.695L578.451,369.77L579.055,373.401L579.66,368.004L580.264,359.958L580.868,347.546L581.472,333.907L582.077,343.719L582.681,350.685L583.285,365.6L583.889,369.083L584.494,367.66L585.098,367.072L585.702,360.399L586.306,355.297L586.911,333.416L587.515,333.024L588.119,343.67L588.723,358.339L589.328,361.086L589.932,364.422L590.536,372.37L591.14,373.401L591.745,370.751L592.349,368.249L592.953,360.645L593.557,350.685L594.162,340.088L594.766,349.704L595.37,360.203L595.974,375.02L596.579,373.744L597.183,376.541L597.787,382.133L598.391,382.084L598.996,382.771L599.6,379.435L600.204,381.348L600.809,379.779L601.413,381.692L602.017,386.255L602.621,384.537L603.226,380.318L603.83,374.48L604.434,375.216L605.038,370.997L605.643,368.396L606.247,364.275L606.851,363.49L607.455,372.468L608.06,378.405L608.664,384.881L609.268,382.869L609.872,382.084L610.477,384.734L611.081,385.813L611.685,386.058L612.289,377.718L612.894,372.763L613.498,376.295L614.102,389.689L614.706,394.006L615.311,387.825L615.915,382.869L616.519,374.872L617.123,377.178L617.728,370.702L618.332,362.803L618.936,353.923L619.54,345.142L620.145,350.146L620.749,355.542L621.353,369.77L621.957,376.982L622.562,375.854L623.166,377.031L623.77,379.386L624.374,377.276L624.979,372.468L625.583,365.011L626.187,371.34L626.791,371.291L627.396,381.201L628,382.379L628.604,382.624L629.209,379.386L629.813,377.227L630.417,380.956L631.021,376.688L631.626,373.744L632.23,371.144L632.834,376.737L633.438,378.16L634.043,378.552L634.647,375.118L635.251,375.412L635.855,373.94L636.46,375.265L637.064,374.333L637.668,370.948L638.272,363.294L638.877,367.808L639.481,375.559L640.085,381.79L640.689,381.348L641.294,381.054L641.898,384.39L642.502,387.53L643.106,387.825L643.711,390.817L644.315,392.436L644.919,395.527L645.523,391.112L646.128,388.855L646.732,390.228L647.336,389.247L647.94,377.767L648.545,372.567L649.149,367.808L649.753,378.307L650.357,380.416L650.962,388.904L651.566,385.568L652.17,384.979L652.774,386.843L653.379,389.444L653.983,387.285L654.587,383.311L655.191,381.643L655.796,377.914L656.4,371.831L657.004,372.321L657.609,373.204L658.213,380.269L658.817,373.94L659.421,377.473L660.026,380.171L660.63,388.07L661.234,388.119L661.838,384.734L662.443,381.299L663.047,374.627L663.651,377.963L664.255,374.971L664.86,381.79L665.464,378.601L666.068,384.685L666.672,386.892L667.277,389.149L667.881,387.775L668.485,387.383L669.089,379.828L669.694,376.491L670.298,361.528L670.902,358.388L671.506,356.229L672.111,363.834L672.715,368.593L673.319,370.899L673.923,367.71L674.528,360.007L675.132,360.694L675.736,361.822L676.34,370.702L676.945,374.529L677.549,380.171L678.153,382.526L678.757,379.828L679.362,385.764L679.966,380.563L680.57,381.594L681.174,378.258L681.779,382.624L682.383,379.877L682.987,381.79L683.591,382.183L684.196,385.224L684.8,384.096L685.404,379.975L686.009,378.405L686.613,370.604L687.217,373.499L687.821,372.468L688.426,376.05L689.03,373.45L689.634,370.31L690.238,368.593L690.843,370.899L691.447,378.356L692.051,380.318L692.655,379.729L693.26,376.05L693.864,376.246L694.468,372.763L695.072,362.215L695.677,349.017L696.281,344.896L696.885,355.297L697.489,370.015L698.094,380.024L698.698,380.269L699.302,377.571L699.906,377.375L700.511,380.122L701.115,375.559L701.719,368.2L702.323,367.219L702.928,371.585L703.532,376.05L704.136,373.253L704.74,375.657L705.345,371.733L705.949,364.079L706.553,363.785L707.157,367.415L707.762,377.718L708.366,379.582L708.97,382.673L709.574,387.04L710.179,379.975L710.783,381.398L711.387,373.253L711.991,375.069L712.596,369.868L713.2,363.932L713.804,362.411L714.409,363.343L715.013,369.672L715.617,367.317L716.221,369.23L716.826,370.457L717.43,372.616L718.034,371.683L718.638,369.329L719.243,368.838L719.847,370.948L720.451,374.137L721.055,376.59L721.66,375.069L722.264,365.796L722.868,370.702L723.472,363.392L724.077,367.268L724.681,368.053L725.285,376.933L725.889,380.171L726.494,366.679L727.098,353.188L727.702,350.538L728.306,354.218L728.911,364.03L729.515,363.883L730.119,361.184L730.723,356.769L731.328,356.965L731.932,364.472L732.536,371.438L733.14,373.646L733.745,376.884L734.349,373.94L734.953,374.774L735.557,372.959L736.162,375.363L736.766,374.529L737.37,369.623L737.974,366.287L738.579,369.966L739.183,379.828L739.787,383.507L740.391,382.379L740.996,381.25L741.6,384.979L742.204,387.874L742.809,386.156L743.413,386.696L744.017,386.402L744.621,387.187L745.226,383.017L745.83,381.398L746.434,377.963L747.038,380.858L747.643,378.11L748.247,384.39L748.851,376.491L749.455,381.201L750.06,376.246L750.664,386.402L751.268,387.285L751.872,383.213L752.477,379.337L753.081,375.216L753.685,386.892L754.289,388.609L754.894,386.843L755.498,384.292L756.102,384.243L756.706,393.466L757.311,393.466L757.915,397.342L758.519,392.976L759.123,395.478L759.728,387.481L760.332,382.82L760.936,376.688L761.54,384.096L762.145,389.1L762.749,394.791L763.353,395.086L763.957,399.501L764.562,395.184L765.166,391.504L765.77,385.421L766.374,391.7L766.979,392.632L767.583,395.036L768.187,388.953L768.791,392.485L769.396,393.712L770,399.01"/></g></svg>