<svg class="plot-d6a7b5" fill="currentColor" font-family="system-ui, sans-serif" font-size="10" text-anchor="middle" width="830" height="470" viewBox="0 0 830 470" xmlns="http://www.w3.org/2000/svg" xmlns:xlink="http://www.w3.org/1999/xlink" color="#1e90ff"><style>:where(.plot-d6a7b5){--plot-background: white;display:block;height:intrinsic;max-width:100%}:where(.plot-d6a7b5 text),:where(.plot-d6a7b5 tspan){white-space:pre}</style><g aria-label="y-grid" stroke="currentColor" stroke-opacity=".1"><line x1="60" x2="770" y1="410" y2="410"/><line x1="60" x2="770" y1="360.939" y2="360.939"/><line x1="60" x2="770" y1="311.878" y2="311.878"/><line x1="60" x2="770" y1="262.817" y2="262.817"/><line x1="60" x2="770" y1="213.757" y2="213.757"/><line x1="60" x2="770" y1="164.696" y2="164.696"/><line x1="60" x2="770" y1="115.635" y2="115.635"/><line x1="60" x2="770" y1="66.574" y2="66.574"/></g><g aria-label="y-axis tick" fill="none" stroke="currentColor"><path transform="translate(60,410)" d="M0,0L-6,0"/><path transform="translate(60,360.9391645640594)" d="M0,0L-6,0"/><path transform="translate(60,311.8783291281189)" d="M0,0L-6,0"/><path transform="translate(60,262.8174936921783)" d="M0,0L-6,0"/><path transform="translate(60,213.7566582562377)" d="M0,0L-6,0"/><path transform="translate(60,164.69582282029717)" d="M0,0L-6,0"/><path transform="translate(60,115.6349873843566)" d="M0,0L-6,0"/><path transform="translate(60,66.57415194841604)" d="M0,0L-6,0"/></g><g aria-label="y-axis tick label" text-anchor="end" font-variant="tabular-nums"><text y=".32em" transform="translate(-9,0) translate(60,410)">0</text><text y=".32em" transform="translate(-9,0) translate(60,360.9391645640594)">1,000</text><text y=".32em" transform="translate(-9,0) translate(60,311.8783291281189)">2,000</text><text y=".32em" transform="translate(-9,0) translate(60,262.8174936921783)">3,000</text><text y=".32em" transform="translate(-9,0) translate(60,213.7566582562377)">4,000</text><text y=".32em" transform="translate(-9,0) translate(60,164.69582282029717)">5,000</text><text y=".32em" transform="translate(-9,0) translate(60,115.6349873843566)">6,000</text><text y=".32em" transform="translate(-9,0) translate(60,66.57415194841604)">7,000</text></g><g aria-label="y-axis label" text-anchor="start"><text y=".71em" transform="translate(-57,-57) translate(60,60)">↑ Visible Vestiges (4 days)</text></g><g aria-label="x-axis tick" fill="none" stroke="currentColor"><path transform="translate(64.71238938053098,410)" d="M0,0L0,6"/><path transform="translate(113.4070796460177,410)" d="M0,0L0,6"/><path transform="translate(160.53097345132744,410)" d="M0,0L0,6"/><path transform="translate(209.22566371681415,410)" d="M0,0L0,6"/><path transform="translate(256.34955752212386,410)" d="M0,0L0,6"/><path transform="translate(305.04424778761063,410)" d="M0,0L0,6"/><path transform="translate(353.7389380530973,410)" d="M0,0L0,6"/><path transform="translate(400.8628318584071,410)" d="M0,0L0,6"/><path transform="translate(449.5575221238938,410)" d="M0,0L0,6"/><path transform="translate(496.6814159292035,410)" d="M0,0L0,6"/><path transform="translate(545.3761061946902,410)" d="M0,0L0,6"/><path transform="translate(594.0707964601769,410)" d="M0,0L0,6"/><path transform="translate(639.6238938053098,410)" d="M0,0L0,6"/><path transform="translate(688.3185840707964,410)" d="M0,0L0,6"/><path transform="translate(735.4424778761062,410)" d="M0,0L0,6"/></g><g aria-label="x-axis tick label" font-variant="tabular-nums"><text transform="translate(0,9) translate(64.71238938053098,410)"><tspan x="0" y=".71em">Mar</tspan><tspan x="0" dy="1em">2023</tspan></text><text y=".71em" transform="translate(0,9) translate(113.4070796460177,410)">Apr</text><text y=".71em" transform="translate(0,9) translate(160.53097345132744,410)">May</text><text y=".71em" transform="translate(0,9) translate(209.22566371681415,410)">Jun</text><text y=".71em" transform="translate(0,9) translate(256.34955752212386,410)">Jul</text><text y=".71em" transform="translate(0,9) translate(305.04424778761063,410)">Aug</text><text y=".71em" transform="translate(0,9) translate(353.7389380530973,410)">Sep</text><text y=".71em" transform="translate(0,9) translate(400.8628318584071,410)">Oct</text><text y=".71em" transform="translate(0,9) translate(449.5575221238938,410)">Nov</text><text y=".71em" transform="translate(0,9) translate(496.6814159292035,410)">Dec</text><text transform="translate(0,9) translate(545.3761061946902,410)"><tspan x="0" y=".71em">Jan</tspan><tspan x="0" dy="1em">2024</tspan></text><text y=".71em" transform="translate(0,9) translate(594.0707964601769,410)">Feb</text><text y=".71em" transform="translate(0,9) translate(639.6238938053098,410)">Mar</text><text y=".71em" transform="translate(0,9) translate(688.3185840707964,410)">Apr</text><text y=".71em" transform="translate(0,9) translate(735.4424778761062,410)">May</text></g><g aria-label="line" fill="none" stroke="currentColor" stroke-width="1.5" stroke-linejoin="round" stroke-linecap="round"><path d="M60,410L61.047,385.371L62.094,295.296L63.142,246.726L64.189,236.913L65.236,270.177L66.283,274.003L67.33,266.497L68.378,238.434L69.425,216.013L70.472,178.237L71.519,139.626L72.566,90.369L73.614,109.65L74.661,145.66L75.708,202.669L76.755,195.015L77.802,193.445L78.85,192.906L79.897,202.227L80.944,211.5L81.991,182.996L83.038,179.12L84.086,151.989L85.133,189.815L86.18,205.22L87.227,226.905L88.274,195.948L89.322,180.395L90.369,178.089L91.416,172.398L92.463,155.718L93.51,120.05L94.558,109.601L95.605,132.463L96.652,196.683L97.699,250.013L98.746,270.765L99.794,263.21L100.841,242.555L101.888,233.038L102.935,194.623L103.982,149.978L105.029,97.041L106.077,82.862L107.124,111.808L108.171,141.343L109.218,166.756L110.265,169.111L111.313,181.131L112.36,172.595L113.407,152.136L114.454,116.665L115.501,86.689L116.549,60L117.596,86.934L118.643,122.258L119.69,160.378L120.737,147.328L121.785,133.297L122.832,116.518L123.879,104.351L124.926,106.461L125.973,106.362L127.021,107.049L128.068,95.029L129.115,125.006L130.162,147.77L131.209,175.048L132.257,172.791L133.304,182.603L134.351,202.375L135.398,199.333L136.445,182.358L137.493,158.759L138.54,141.883L139.587,161.114L140.634,182.161L141.681,219.055L142.729,234.853L143.776,250.503L144.823,249.718L145.87,224.795L146.917,202.473L147.965,178.482L149.012,176.716L150.059,168.474L151.106,188.785L152.153,212.825L153.201,207.967L154.248,205.613L155.295,211.5L156.342,247.412L157.389,255.802L158.437,231.32L159.484,208.507L160.531,194.329L161.578,192.562L162.625,221.508L163.673,245.744L164.72,262.033L165.767,240.74L166.814,245.793L167.861,248.099L168.909,252.662L169.956,215.327L171.003,195.997L172.05,185.841L173.097,211.549L174.145,223.814L175.192,231.32L176.239,235.638L177.286,238.483L178.333,248.05L179.381,248.345L180.428,235.834L181.475,235.785L182.522,227.69L183.569,239.955L184.617,253.496L185.664,267.527L186.711,274.151L187.758,266.154L188.805,265.712L189.853,267.086L190.9,259.334L191.947,217.829L192.994,195.212L194.041,179.757L195.088,216.897L196.136,223.618L197.183,247.412L198.23,243.438L199.277,262.327L200.324,246.578L201.372,241.623L202.419,218.025L203.466,203.454L204.513,196.34L205.56,200.314L206.608,230.486L207.655,232.105L208.702,239.857L209.749,249.865L210.796,249.718L211.844,261.297L212.891,259.579L213.938,278.174L214.985,273.464L216.032,263.799L217.08,265.761L218.127,263.21L219.174,262.719L220.221,262.817L221.268,267.969L222.316,285.042L223.363,277.438L224.41,269.637L225.457,263.014L226.504,259.825L227.552,265.123L228.599,263.063L229.646,273.366L230.693,272.384L231.74,264.191L232.788,257.813L233.835,261.64L234.882,269.833L235.929,270.569L236.976,274.396L238.024,265.123L239.071,267.675L240.118,255.262L241.165,262.916L242.212,264.093L243.26,284.993L244.307,288.82L245.354,293.824L246.401,272.875L247.448,265.271L248.496,260.414L249.543,258.647L250.59,260.953L251.637,256.292L252.684,262.278L253.732,245.744L254.779,237.649L255.826,247.952L256.873,265.859L257.92,276.26L258.968,281.068L260.015,283.766L261.062,298.534L262.109,288.28L263.156,291.665L264.204,280.381L265.251,284.404L266.298,276.604L267.345,280.283L268.392,278.615L269.44,282.442L270.487,276.751L271.534,276.996L272.581,272.679L273.628,283.325L274.676,279.4L275.723,283.963L276.77,277.928L277.817,271.109L278.864,268.263L279.912,262.572L280.959,269.49L282.006,277.29L283.053,270.373L284.1,268.165L285.147,274.445L286.195,286.514L287.242,296.817L288.289,281.804L289.336,289.458L290.383,282.687L291.431,288.771L292.478,284.306L293.525,276.015L294.572,262.082L295.619,253.643L296.667,272.826L297.714,271.452L298.761,271.599L299.808,257.617L300.855,263.161L301.903,270.716L302.95,270.177L303.997,279.694L305.044,269.637L306.091,269.244L307.139,254.87L308.186,255.704L309.233,255.556L310.28,266.791L311.327,258.255L312.375,242.653L313.422,208.605L314.469,213.266L315.516,232.105L316.563,264.486L317.611,273.905L318.658,282.246L319.705,287.152L320.752,287.299L321.799,288.476L322.847,288.133L323.894,286.416L324.941,284.11L325.988,281.313L327.035,277.536L328.083,273.071L329.13,276.407L330.177,264.24L331.224,249.964L332.271,234.706L333.319,250.16L334.366,257.666L335.413,256.881L336.46,253.594L337.507,252.269L338.555,262.817L339.602,266.546L340.649,281.559L341.696,292.303L342.743,304.372L343.791,298.436L344.838,298.239L345.885,287.25L346.932,282.785L347.979,285.876L349.027,287.888L350.074,292.941L351.121,294.118L352.168,296.964L353.215,299.466L354.263,300.791L355.31,300.594L356.357,291.322L357.404,278.762L358.451,281.755L359.499,284.944L360.546,294.609L361.593,300.692L362.64,307.512L363.687,314.822L364.735,324.242L365.782,331.208L366.829,307.463L367.876,288.329L368.923,276.26L369.971,283.08L371.018,301.576L372.065,310.505L373.112,334.25L374.159,334.103L375.206,330.227L376.254,324.094L377.301,307.806L378.348,300.496L379.395,270.373L380.442,254.575L381.49,265.32L382.537,289.556L383.584,316.294L384.631,312.909L385.678,314.626L386.726,308.101L387.773,313.792L388.82,310.308L389.867,299.073L390.914,292.597L391.962,288.329L393.009,309.965L394.056,320.415L395.103,335.182L396.15,329.687L397.198,326.94L398.245,315.999L399.292,310.161L400.339,300.496L401.386,294.315L402.434,293.137L403.481,309.229L404.528,321.592L405.575,331.306L406.622,327.087L407.67,332.827L408.717,329.982L409.764,320.268L410.811,306.285L411.858,288.771L412.906,275.377L413.953,270.373L415,281.706L416.047,301.379L417.094,316.588L418.142,323.8L419.189,320.611L420.236,313.595L421.283,314.282L422.33,318.845L423.378,303.047L424.425,282.246L425.472,277.977L426.519,303.293L427.566,329.05L428.614,341.168L429.661,335.231L430.708,332.974L431.755,326.253L432.802,316.049L433.85,290.144L434.897,276.555L435.944,272.139L436.991,295.1L438.038,307.855L439.086,316.196L440.133,315.656L441.18,314.233L442.227,319.483L443.274,307.316L444.322,308.052L445.369,303.195L446.416,315.803L447.463,323.751L448.51,328.412L449.558,330.325L450.605,332.484L451.652,346.81L452.699,348.38L453.746,324.291L454.794,300.938L455.841,277.83L456.888,286.121L457.935,301.821L458.982,330.571L460.029,334.741L461.077,333.858L462.124,334.299L463.171,342.983L464.218,343.375L465.265,341.756L466.313,333.71L467.36,336.163L468.407,329.442L469.454,338.911L470.501,344.504L471.549,357.603L472.596,357.063L473.643,356.72L474.69,353.531L475.737,360.203L476.785,346.761L477.832,326.351L478.879,301.526L479.926,303.096L480.973,312.32L482.021,331.012L483.068,339.058L484.115,349.165L485.162,342.198L486.209,334.839L487.257,323.555L488.304,322.525L489.351,320.17L490.398,322.083L491.445,321.396L492.493,328.412L493.54,330.08L494.587,327.627L495.634,316.441L496.681,316.588L497.729,321.494L498.776,338.567L499.823,335.28L500.87,330.914L501.917,324.83L502.965,335.133L504.012,351.618L505.059,355.935L506.106,351.765L507.153,345.927L508.201,351.618L509.248,354.12L510.295,355.837L511.342,352.354L512.389,349.802L513.437,352.599L514.484,348.281L515.531,343.523L516.578,344.258L517.625,355.641L518.673,369.034L519.72,366.091L520.767,355.248L521.814,340.775L522.861,335.133L523.909,343.768L524.956,351.961L526.003,347.742L527.05,347.496L528.097,353.04L529.145,361.037L530.192,353.089L531.239,349.999L532.286,345.779L533.333,338.518L534.381,327.725L535.428,334.005L536.475,346.025L537.522,344.847L538.569,336.213L539.617,328.951L540.664,335.378L541.711,333.073L542.758,333.024L543.805,332.631L544.853,336.409L545.9,338.813L546.947,338.42L547.994,338.616L549.041,332.582L550.088,335.918L551.136,341.707L552.183,342.787L553.23,351.274L554.277,347.251L555.324,347.938L556.372,343.032L557.419,343.572L558.466,351.421L559.513,353.433L560.56,357.701L561.608,366.483L562.655,369.966L563.702,364.472L564.749,351.814L565.796,337.292L566.844,326.548L567.891,317.177L568.938,325.615L569.985,336.507L571.032,353.973L572.08,344.16L573.127,334.397L574.174,331.454L575.221,342.051L576.268,345.632L577.316,336.507L578.363,308.689L579.41,307.561L580.457,305.5L581.504,330.08L582.552,339.598L583.599,349.214L584.646,358.29L585.693,360.988L586.74,346.859L587.788,315.411L588.835,299.907L589.882,295.345L590.929,313.399L591.976,323.849L593.024,342.149L594.071,342.002L595.118,341.854L596.165,334.25L597.212,339.058L598.26,327.627L599.307,312.271L600.354,298.141L601.401,305.893L602.448,317.569L603.496,327.038L604.543,333.661L605.59,332.68L606.637,326.94L607.684,311.486L608.732,315.705L609.779,307.463L610.826,290.095L611.873,267.871L612.92,275.77L613.968,294.952L615.015,304.323L616.062,303.342L617.109,311.339L618.156,326.891L619.204,332.533L620.251,330.276L621.298,319.434L622.345,309.131L623.392,319.728L624.44,328.608L625.487,336.948L626.534,320.366L627.581,321.2L628.628,329.835L629.676,334.005L630.723,324.389L631.77,305.549L632.817,307.708L633.864,309.916L634.912,328.019L635.959,328.412L637.006,338.911L638.053,340.039L639.1,343.179L640.147,342.492L641.195,337.979L642.242,336.605L643.289,322.868L644.336,321.887L645.383,324.536L646.431,348.576L647.478,355.248L648.525,352.991L649.572,350.146L650.619,354.169L651.667,360.596L652.714,347.546L653.761,339.058L654.808,338.764L655.855,341.02L656.903,340.186L657.95,347.006L658.997,359.664L660.044,356.426L661.091,346.81L662.139,339.941L663.186,337.194L664.233,329.344L665.28,313.743L666.327,313.105L667.375,321.396L668.422,359.516L669.469,387.825L670.516,406.124L671.563,409.166L672.611,409.215L673.658,408.97L674.705,408.724L675.752,406.86L676.799,405.634L677.847,405.094L678.894,404.652L679.941,401.954L680.988,399.943L682.035,398.667L683.083,395.38L684.13,388.168L685.177,366.287L686.224,356.475L687.271,350.391L688.319,361.479L689.366,364.913L690.413,365.158L691.46,359.418L692.507,355.101L693.555,349.459L694.602,347.349L695.649,345.73L696.696,343.179L697.743,347.251L698.791,353.089L699.838,356.916L700.885,353.482L701.932,358.094L702.979,364.275L704.027,365.06L705.074,362.656L706.121,364.472L707.168,367.072L708.215,364.226L709.263,355.15L710.31,355.592L711.357,359.565L712.404,364.717L713.451,368.544L714.499,365.845L715.546,372.91L716.593,375.559L717.64,382.133L718.687,379.043L719.735,377.522L720.782,367.759L721.829,356.622L722.876,354.856L723.923,361.871L724.971,364.717L726.018,363.883L727.065,359.271L728.112,365.06L729.159,360.056L730.206,360.007L731.254,354.954L732.301,362.068L733.348,365.894L734.395,369.77L735.442,365.551L736.49,357.456L737.537,361.43L738.584,362.656L739.631,367.072L740.678,361.381L741.726,352.697L742.773,347.889L743.82,341.266L744.867,353.089L745.914,360.105L746.962,367.906L748.009,364.864L749.056,362.902L750.103,360.841L751.15,356.18L752.198,356.867L753.245,351.765L754.292,351.912L755.339,348.085L756.386,347.153L757.434,353.973L758.481,360.056L759.528,376.099L760.575,378.258L761.622,373.989L762.67,366.091L763.717,343.228L764.764,341.168L765.811,331.306L766.858,353.776L767.906,359.026L768.953,370.555L770,360.89"/></g></svg>