<svg class="plot-d6a7b5" fill="currentColor" font-family="system-ui, sans-serif" font-size="10" text-anchor="middle" width="830" height="470" viewBox="0 0 830 470" style="color: dodgerblue;" xmlns="http://www.w3.org/2000/svg" xmlns:xlink="http://www.w3.org/1999/xlink"><style>:where(.plot-d6a7b5) {
  --plot-background: white;
  display: block;
  height: auto;
  height: intrinsic;
  max-width: 100%;
}
:where(.plot-d6a7b5 text),
:where(.plot-d6a7b5 tspan) {
  white-space: pre;
}</style><g aria-label="y-grid" stroke="currentColor" stroke-opacity="0.1"><line x1="60" x2="770" y1="410" y2="410"></line><line x1="60" x2="770" y1="360.9391645640594" y2="360.9391645640594"></line><line x1="60" x2="770" y1="311.8783291281189" y2="311.8783291281189"></line><line x1="60" x2="770" y1="262.8174936921783" y2="262.8174936921783"></line><line x1="60" x2="770" y1="213.7566582562377" y2="213.7566582562377"></line><line x1="60" x2="770" y1="164.69582282029717" y2="164.69582282029717"></line><line x1="60" x2="770" y1="115.6349873843566" y2="115.6349873843566"></line><line x1="60" x2="770" y1="66.57415194841604" y2="66.57415194841604"></line></g><g aria-label="y-axis tick" fill="none" stroke="currentColor"><path transform="translate(60,410)" d="M0,0L-6,0"></path><path transform="translate(60,360.9391645640594)" d="M0,0L-6,0"></path><path transform="translate(60,311.8783291281189)" d="M0,0L-6,0"></path><path transform="translate(60,262.8174936921783)" d="M0,0L-6,0"></path><path transform="translate(60,213.7566582562377)" d="M0,0L-6,0"></path><path transform="translate(60,164.69582282029717)" d="M0,0L-6,0"></path><path transform="translate(60,115.6349873843566)" d="M0,0L-6,0"></path><path transform="translate(60,66.57415194841604)" d="M0,0L-6,0"></path></g><g aria-label="y-axis tick label" text-anchor="end" font-variant="tabular-nums" transform="translate(-9,0)"><text y="0.32em" transform="translate(60,410)">0</text><text y="0.32em" transform="translate(60,360.9391645640594)">1,000</text><text y="0.32em" transform="translate(60,311.8783291281189)">2,000</text><text y="0.32em" transform="translate(60,262.8174936921783)">3,000</text><text y="0.32em" transform="translate(60,213.7566582562377)">4,000</text><text y="0.32em" transform="translate(60,164.69582282029717)">5,000</text><text y="0.32em" transform="translate(60,115.6349873843566)">6,000</text><text y="0.32em" transform="translate(60,66.57415194841604)">7,000</text></g><g aria-label="y-axis label" text-anchor="start" transform="translate(-57,-57)"><text y="0.71em" transform="translate(60,60)">↑ Visible Vestiges (4 days)</text></g><g aria-label="x-axis tick" fill="none" stroke="currentColor"><path transform="translate(99.87885462555064,410)" d="M0,0L0,6"></path><path transform="translate(206.613436123348,410)" d="M0,0L0,6"></path><path transform="translate(314.5209251101321,410)" d="M0,0L0,6"></path><path transform="translate(422.4284140969163,410)" d="M0,0L0,6"></path><path transform="translate(529.1629955947137,410)" d="M0,0L0,6"></path><path transform="translate(635.897577092511,410)" d="M0,0L0,6"></path><path transform="translate(743.8050660792952,410)" d="M0,0L0,6"></path></g><g aria-label="x-axis tick label" font-variant="tabular-nums" transform="translate(0,9)"><text transform="translate(99.87885462555064,410)"><tspan x="0" y="0.71em">Apr</tspan><tspan x="0" dy="1em">2023</tspan></text><text y="0.71em" transform="translate(206.613436123348,410)">Jul</text><text y="0.71em" transform="translate(314.5209251101321,410)">Oct</text><text transform="translate(422.4284140969163,410)"><tspan x="0" y="0.71em">Jan</tspan><tspan x="0" dy="1em">2024</tspan></text><text y="0.71em" transform="translate(529.1629955947137,410)">Apr</text><text y="0.71em" transform="translate(635.897577092511,410)">Jul</text><text y="0.71em" transform="translate(743.8050660792952,410)">Oct</text></g><g aria-label="line" fill="none" stroke="currentColor" stroke-width="1.5" stroke-linejoin="round" stroke-linecap="round"><path d="M60,410L60.782,385.371L61.564,295.296L62.346,246.726L63.128,236.913L63.91,270.177L64.692,274.003L65.474,266.497L66.256,238.434L67.037,216.013L67.819,178.237L68.601,139.626L69.383,90.369L70.165,109.65L70.947,145.66L71.729,202.669L72.511,195.015L73.293,193.445L74.075,192.906L74.857,202.227L75.639,211.5L76.421,182.996L77.203,179.12L77.985,151.989L78.767,189.815L79.548,205.22L80.33,226.905L81.112,195.948L81.894,180.395L82.676,178.089L83.458,172.398L84.24,155.718L85.022,120.05L85.804,109.601L86.586,132.463L87.368,196.683L88.15,250.013L88.932,270.765L89.714,263.21L90.496,242.555L91.278,233.038L92.059,194.623L92.841,149.978L93.623,97.041L94.405,82.862L95.187,111.808L95.969,141.343L96.751,166.756L97.533,169.111L98.315,181.131L99.097,172.595L99.879,152.136L100.661,116.665L101.443,86.689L102.225,60L103.007,86.934L103.789,122.258L104.57,160.378L105.352,147.328L106.134,133.297L106.916,116.518L107.698,104.351L108.48,106.461L109.262,106.362L110.044,107.049L110.826,95.029L111.608,125.006L112.39,147.77L113.172,175.048L113.954,172.791L114.736,182.603L115.518,202.375L116.3,199.333L117.081,182.358L117.863,158.759L118.645,141.883L119.427,161.114L120.209,182.161L120.991,219.055L121.773,234.853L122.555,250.503L123.337,249.718L124.119,224.795L124.901,202.473L125.683,178.482L126.465,176.716L127.247,168.474L128.029,188.785L128.811,212.825L129.593,207.967L130.374,205.613L131.156,211.5L131.938,247.412L132.72,255.802L133.502,231.32L134.284,208.507L135.066,194.329L135.848,192.562L136.63,221.508L137.412,245.744L138.194,262.033L138.976,240.74L139.758,245.793L140.54,248.099L141.322,252.662L142.104,215.327L142.885,195.997L143.667,185.841L144.449,211.549L145.231,223.814L146.013,231.32L146.795,235.638L147.577,238.483L148.359,248.05L149.141,248.345L149.923,235.834L150.705,235.785L151.487,227.69L152.269,239.955L153.051,253.496L153.833,267.527L154.615,274.151L155.396,266.154L156.178,265.712L156.96,267.086L157.742,259.334L158.524,217.829L159.306,195.212L160.088,179.757L160.87,216.897L161.652,223.618L162.434,247.412L163.216,243.438L163.998,262.327L164.78,246.578L165.562,241.623L166.344,218.025L167.126,203.454L167.907,196.34L168.689,200.314L169.471,230.486L170.253,232.105L171.035,239.857L171.817,249.865L172.599,249.718L173.381,261.297L174.163,259.579L174.945,278.174L175.727,273.464L176.509,263.799L177.291,265.761L178.073,263.21L178.855,262.719L179.637,262.817L180.419,267.969L181.2,285.042L181.982,277.438L182.764,269.637L183.546,263.014L184.328,259.825L185.11,265.123L185.892,263.063L186.674,273.366L187.456,272.384L188.238,264.191L189.02,257.813L189.802,261.64L190.584,269.833L191.366,270.569L192.148,274.396L192.93,265.123L193.711,267.675L194.493,255.262L195.275,262.916L196.057,264.093L196.839,284.993L197.621,288.82L198.403,293.824L199.185,272.875L199.967,265.271L200.749,260.414L201.531,258.647L202.313,260.953L203.095,256.292L203.877,262.278L204.659,245.744L205.441,237.649L206.222,247.952L207.004,265.859L207.786,276.26L208.568,281.068L209.35,283.766L210.132,298.534L210.914,288.28L211.696,291.665L212.478,280.381L213.26,284.404L214.042,276.604L214.824,280.283L215.606,278.615L216.388,282.442L217.17,276.751L217.952,276.996L218.733,272.679L219.515,283.325L220.297,279.4L221.079,283.963L221.861,277.928L222.643,271.109L223.425,268.263L224.207,262.572L224.989,269.49L225.771,277.29L226.553,270.373L227.335,268.165L228.117,274.445L228.899,286.514L229.681,296.817L230.463,281.804L231.244,289.458L232.026,282.687L232.808,288.771L233.59,284.306L234.372,276.015L235.154,262.082L235.936,253.643L236.718,272.826L237.5,271.452L238.282,271.599L239.064,257.617L239.846,263.161L240.628,270.716L241.41,270.177L242.192,279.694L242.974,269.637L243.756,269.244L244.537,254.87L245.319,255.704L246.101,255.556L246.883,266.791L247.665,258.255L248.447,242.653L249.229,208.605L250.011,213.266L250.793,232.105L251.575,264.486L252.357,273.905L253.139,282.246L253.921,287.152L254.703,287.299L255.485,288.476L256.267,288.133L257.048,286.416L257.83,284.11L258.612,281.313L259.394,277.536L260.176,273.071L260.958,276.407L261.74,264.24L262.522,249.964L263.304,234.706L264.086,250.16L264.868,257.666L265.65,256.881L266.432,253.594L267.214,252.269L267.996,262.817L268.778,266.546L269.559,281.559L270.341,292.303L271.123,304.372L271.905,298.436L272.687,298.239L273.469,287.25L274.251,282.785L275.033,285.876L275.815,287.888L276.597,292.941L277.379,294.118L278.161,296.964L278.943,299.466L279.725,300.791L280.507,300.594L281.289,291.322L282.07,278.762L282.852,281.755L283.634,284.944L284.416,294.609L285.198,300.692L285.98,307.512L286.762,314.822L287.544,324.242L288.326,331.208L289.108,307.463L289.89,288.329L290.672,276.26L291.454,283.08L292.236,301.576L293.018,310.505L293.8,334.25L294.581,334.103L295.363,330.227L296.145,324.094L296.927,307.806L297.709,300.496L298.491,270.373L299.273,254.575L300.055,265.32L300.837,289.556L301.619,316.294L302.401,312.909L303.183,314.626L303.965,308.101L304.747,313.792L305.529,310.308L306.311,299.073L307.093,292.597L307.874,288.329L308.656,309.965L309.438,320.415L310.22,335.182L311.002,329.687L311.784,326.94L312.566,315.999L313.348,310.161L314.13,300.496L314.912,294.315L315.694,293.137L316.476,309.229L317.258,321.592L318.04,331.306L318.822,327.087L319.604,332.827L320.385,329.982L321.167,320.268L321.949,306.285L322.731,288.771L323.513,275.377L324.295,270.373L325.077,281.706L325.859,301.379L326.641,316.588L327.423,323.8L328.205,320.611L328.987,313.595L329.769,314.282L330.551,318.845L331.333,303.047L332.115,282.246L332.896,277.977L333.678,303.293L334.46,329.05L335.242,341.168L336.024,335.231L336.806,332.974L337.588,326.253L338.37,316.049L339.152,290.144L339.934,276.555L340.716,272.139L341.498,295.1L342.28,307.855L343.062,316.196L343.844,315.656L344.626,314.233L345.407,319.483L346.189,307.316L346.971,308.052L347.753,303.195L348.535,315.803L349.317,323.751L350.099,328.412L350.881,330.325L351.663,332.484L352.445,346.81L353.227,348.38L354.009,324.291L354.791,300.938L355.573,277.83L356.355,286.121L357.137,301.821L357.919,330.571L358.7,334.741L359.482,333.858L360.264,334.299L361.046,342.983L361.828,343.375L362.61,341.756L363.392,333.71L364.174,336.163L364.956,329.442L365.738,338.911L366.52,344.504L367.302,357.603L368.084,357.063L368.866,356.72L369.648,353.531L370.43,360.203L371.211,346.761L371.993,326.351L372.775,301.526L373.557,303.096L374.339,312.32L375.121,331.012L375.903,339.058L376.685,349.165L377.467,342.198L378.249,334.839L379.031,323.555L379.813,322.525L380.595,320.17L381.377,322.083L382.159,321.396L382.941,328.412L383.722,330.08L384.504,327.627L385.286,316.441L386.068,316.588L386.85,321.494L387.632,338.567L388.414,335.28L389.196,330.914L389.978,324.83L390.76,335.133L391.542,351.618L392.324,355.935L393.106,351.765L393.888,345.927L394.67,351.618L395.452,354.12L396.233,355.837L397.015,352.354L397.797,349.802L398.579,352.599L399.361,348.281L400.143,343.523L400.925,344.258L401.707,355.641L402.489,369.034L403.271,366.091L404.053,355.248L404.835,340.775L405.617,335.133L406.399,343.768L407.181,351.961L407.963,347.742L408.744,347.496L409.526,353.04L410.308,361.037L411.09,353.089L411.872,349.999L412.654,345.779L413.436,338.518L414.218,327.725L415,334.005L415.782,346.025L416.564,344.847L417.346,336.213L418.128,328.951L418.91,335.378L419.692,333.073L420.474,333.024L421.256,332.631L422.037,336.409L422.819,338.813L423.601,338.42L424.383,338.616L425.165,332.582L425.947,335.918L426.729,341.707L427.511,342.787L428.293,351.274L429.075,347.251L429.857,347.938L430.639,343.032L431.421,343.572L432.203,351.421L432.985,353.433L433.767,357.701L434.548,366.483L435.33,369.966L436.112,364.472L436.894,351.814L437.676,337.292L438.458,326.548L439.24,317.177L440.022,325.615L440.804,336.507L441.586,353.973L442.368,344.16L443.15,334.397L443.932,331.454L444.714,342.051L445.496,345.632L446.278,336.507L447.059,308.689L447.841,307.561L448.623,305.5L449.405,330.08L450.187,339.598L450.969,349.214L451.751,358.29L452.533,360.988L453.315,346.859L454.097,315.411L454.879,299.907L455.661,295.345L456.443,313.399L457.225,323.849L458.007,342.149L458.789,342.002L459.57,341.854L460.352,334.25L461.134,339.058L461.916,327.627L462.698,312.271L463.48,298.141L464.262,305.893L465.044,317.569L465.826,327.038L466.608,333.661L467.39,332.68L468.172,326.94L468.954,311.486L469.736,315.705L470.518,307.463L471.3,290.095L472.081,267.871L472.863,275.77L473.645,294.952L474.427,304.323L475.209,303.342L475.991,311.339L476.773,326.891L477.555,332.533L478.337,330.276L479.119,319.434L479.901,309.131L480.683,319.728L481.465,328.608L482.247,336.948L483.029,320.366L483.811,321.2L484.593,329.835L485.374,334.005L486.156,324.389L486.938,305.549L487.72,307.708L488.502,309.916L489.284,328.019L490.066,328.412L490.848,338.911L491.63,340.039L492.412,343.179L493.194,342.492L493.976,337.979L494.758,336.605L495.54,322.868L496.322,321.887L497.104,324.536L497.885,348.576L498.667,355.248L499.449,352.991L500.231,350.146L501.013,354.169L501.795,360.596L502.577,347.546L503.359,339.058L504.141,338.764L504.923,341.02L505.705,340.186L506.487,347.006L507.269,359.664L508.051,356.426L508.833,346.81L509.615,339.941L510.396,337.194L511.178,329.344L511.96,313.743L512.742,313.105L513.524,321.396L514.306,359.516L515.088,387.825L515.87,406.124L516.652,409.166L517.434,409.215L518.216,408.97L518.998,408.724L519.78,406.86L520.562,405.634L521.344,405.094L522.126,404.652L522.907,401.954L523.689,399.943L524.471,398.667L525.253,395.38L526.035,388.168L526.817,366.287L527.599,356.475L528.381,350.391L529.163,361.479L529.945,364.913L530.727,365.158L531.509,359.418L532.291,355.101L533.073,349.459L533.855,347.349L534.637,345.73L535.419,343.179L536.2,347.251L536.982,353.089L537.764,356.916L538.546,353.482L539.328,358.094L540.11,364.275L540.892,365.06L541.674,362.656L542.456,364.472L543.238,367.072L544.02,364.226L544.802,355.15L545.584,355.592L546.366,359.565L547.148,364.717L547.93,368.544L548.711,365.845L549.493,372.91L550.275,375.559L551.057,382.133L551.839,379.043L552.621,377.522L553.403,367.759L554.185,356.622L554.967,354.856L555.749,361.871L556.531,364.717L557.313,363.883L558.095,359.271L558.877,365.06L559.659,360.056L560.441,360.007L561.222,354.954L562.004,362.068L562.786,365.894L563.568,369.77L564.35,365.551L565.132,357.456L565.914,361.43L566.696,362.656L567.478,367.072L568.26,361.381L569.042,352.697L569.824,347.889L570.606,341.266L571.388,353.089L572.17,360.105L572.952,367.906L573.733,364.864L574.515,362.902L575.297,360.841L576.079,356.18L576.861,356.867L577.643,351.765L578.425,351.912L579.207,348.085L579.989,347.153L580.771,353.973L581.553,360.056L582.335,376.099L583.117,378.258L583.899,373.989L584.681,366.091L585.463,343.228L586.244,341.168L587.026,331.306L587.808,353.776L588.59,359.026L589.372,370.555L590.154,360.89L590.936,365.453L591.718,364.177L592.5,368.445L593.282,359.86L594.064,351.47L594.846,338.911L595.628,339.156L596.41,337.096L597.192,355.199L597.974,354.561L598.756,351.421L599.537,341.953L600.319,343.572L601.101,349.312L601.883,345.338L602.665,346.319L603.447,338.616L604.229,349.999L605.011,349.508L605.793,360.449L606.575,353.335L607.357,353.089L608.139,349.655L608.921,352.206L609.703,347.055L610.485,342.198L611.267,332.19L612.048,331.11L612.83,340.186L613.612,342.541L614.394,347.447L615.176,351.029L615.958,362.803L616.74,357.652L617.522,355.935L618.304,351.372L619.086,354.561L619.868,353.678L620.65,351.716L621.432,363.098L622.214,372.223L622.996,378.405L623.778,373.008L624.559,354.414L625.341,352.942L626.123,353.188L626.905,366.189L627.687,349.655L628.469,349.999L629.251,348.772L630.033,359.32L630.815,353.629L631.597,359.222L632.379,367.072L633.161,374.922L633.943,373.548L634.725,373.989L635.507,368.298L636.289,353.825L637.07,349.312L637.852,351.372L638.634,354.757L639.416,356.573L640.198,352.206L640.98,362.951L641.762,367.023L642.544,374.48L643.326,370.849L644.108,365.355L644.89,366.974L645.672,372.468L646.454,378.994L647.236,375.952L648.018,373.695L648.8,369.819L649.581,363.638L650.363,358.192L651.145,363.638L651.927,370.015L652.709,370.997L653.491,365.698L654.273,366.777L655.055,366.826L655.837,366.14L656.619,363.098L657.401,365.306L658.183,365.502L658.965,361.086L659.747,352.844L660.529,336.507L661.311,333.612L662.093,335.722L662.874,353.433L663.656,359.32L664.438,361.135L665.22,362.068L666.002,365.6L666.784,372.125L667.566,372.174L668.348,367.759L669.13,364.717L669.912,355.493L670.694,354.169L671.476,344.013L672.258,342.051L673.04,333.024L673.822,333.612L674.604,335.673L675.385,334.888L676.167,332.435L676.949,341.07L677.731,348.723L678.513,343.228L679.295,339.892L680.077,342.639L680.859,354.463L681.641,356.867L682.423,365.06L683.205,341.511L683.987,317.373L684.769,285.925L685.551,289.408L686.333,294.805L687.115,309.572L687.896,313.497L688.678,307.365L689.46,307.168L690.242,321.985L691.024,333.907L691.806,332.582L692.588,327.038L693.37,323.26L694.152,328.167L694.934,344.013L695.716,352.255L696.498,359.86L697.28,358.633L698.062,363.588L698.844,359.32L699.626,352.893L700.407,346.761L701.189,339.598L701.971,341.119L702.753,346.662L703.535,354.463L704.317,358.535L705.099,367.464L705.881,376.786L706.663,382.918L707.445,381.986L708.227,376.442L709.009,376.099L709.791,372.518L710.573,375.756L711.355,373.253L712.137,377.767L712.919,374.872L713.7,376.148L714.482,367.611L715.264,366.925L716.046,362.46L716.828,369.868L717.61,366.385L718.392,363.588L719.174,359.418L719.956,364.521L720.738,367.611L721.52,372.419L722.302,372.076L723.084,378.65L723.866,379.582L724.648,381.005L725.43,380.024L726.211,374.087L726.993,372.125L727.775,370.064L728.557,374.774L729.339,374.333L730.121,373.695L730.903,369.77L731.685,373.401L732.467,368.004L733.249,359.958L734.031,347.546L734.813,333.907L735.595,343.719L736.377,350.685L737.159,365.6L737.941,369.083L738.722,367.66L739.504,367.072L740.286,360.399L741.068,355.297L741.85,333.416L742.632,333.024L743.414,343.67L744.196,358.339L744.978,361.086L745.76,364.422L746.542,372.37L747.324,373.401L748.106,370.751L748.888,368.249L749.67,360.645L750.452,350.685L751.233,340.088L752.015,349.704L752.797,360.203L753.579,375.02L754.361,373.744L755.143,376.541L755.925,382.133L756.707,382.084L757.489,382.771L758.271,379.435L759.053,381.348L759.835,379.779L760.617,381.692L761.399,386.255L762.181,384.537L762.963,380.318L763.744,374.48L764.526,375.216L765.308,370.997L766.09,368.396L766.872,364.275L767.654,363.49L768.436,372.468L769.218,378.405L770,384.881"></path></g></svg> 
 
