<svg xmlns="http://www.w3.org/2000/svg" width="830" height="470" fill="currentColor" class="plot-d6a7b5" font-family="system-ui, sans-serif" font-size="10" style="--plot-background:white;display:block;height:intrinsic;max-width:100%;color:#1e90ff" text-anchor="middle" viewBox="0 0 830 470">
    <style>
        :where(.plot-d6a7b5 text),:where(.plot-d6a7b5 tspan){white-space:pre}
    </style>
    <path stroke="currentColor" stroke-opacity=".1" d="
M60
410
h710
M60
362.919
h710
M60
315.838
h710
M60
268.757
h710
M60
221.676
h710
M60
174.595
h710
M60
127.514
h710
M60
80.433
h710" aria-hidden="true" aria-label="y-grid"/>
    <path fill="none" stroke="currentColor" d="
M60
410
h-6
m6
-47.081
h-6
m6
-47.081
h-6
m6
-47.081
h-6
m6
-47.081
h-6
m6
-47.081
h-6
m6
-47.081
h-6
m6
-47.081
h-6" aria-hidden="true" aria-label="y-axis tick"/>
    <g aria-label="y-axis tick label" font-variant="tabular-nums" text-anchor="end">
        <text y=".32em" transform="translate(51 410)">0</text>
        <text y=".32em" transform="translate(51 362.919)">2,000</text>
        <text y=".32em" transform="translate(51 315.838)">4,000</text>
        <text y=".32em" transform="translate(51 268.757)">6,000</text>
        <text y=".32em" transform="translate(51 221.676)">8,000</text>
        <text y=".32em" transform="translate(51 174.595)">10,000</text>
        <text y=".32em" transform="translate(51 127.514)">12,000</text>
        <text y=".32em" transform="translate(51 80.433)">14,000</text>
    </g>
    <text y=".71em" aria-label="y-axis label" text-anchor="start" transform="translate(3 3)">↑ Visible vestiges (8 days)</text>
    <path fill="none" stroke="currentColor" d="
M81.709
410
v6
m58.102
-6
v6
m58.741
-6
v6
m58.741
-6
v6
m58.103
-6
v6
m58.102
-6
v6
m58.742
-6
v6
m58.74
-6
v6
m57.464
-6
v6
m58.103
-6
v6
m58.741
-6
v6
m58.741
-6
v6" aria-hidden="true" aria-label="x-axis tick"/>
    <g aria-label="x-axis tick label" font-variant="tabular-nums">
        <text transform="translate(81.709 419)"><tspan x="0" y=".71em">Apr</tspan><tspan x="0" dy="1em">2023</tspan></text>
        <text y=".71em" transform="translate(139.811 419)">Jul</text>
        <text y=".71em" transform="translate(198.552 419)">Oct</text>
        <text transform="translate(257.293 419)"><tspan x="0" y=".71em">Jan</tspan><tspan x="0" dy="1em">2024</tspan></text>
        <text y=".71em" transform="translate(315.396 419)">Apr</text>
        <text y=".71em" transform="translate(373.498 419)">Jul</text>
        <text y=".71em" transform="translate(432.24 419)">Oct</text>
        <text transform="translate(490.98 419)"><tspan x="0" y=".71em">Jan</tspan><tspan x="0" dy="1em">2025</tspan></text>
        <text y=".71em" transform="translate(548.444 419)">Apr</text>
        <text y=".71em" transform="translate(606.547 419)">Jul</text>
        <text y=".71em" transform="translate(665.288 419)">Oct</text>
        <text transform="translate(724.029 419)"><tspan x="0" y=".71em">Jan</tspan><tspan x="0" dy="1em">2026</tspan></text>
    </g>
    <path fill="none" stroke="currentColor" stroke-linecap="round" stroke-linejoin="round" stroke-width="1.5" d="
m60
410
.426
-11.817
.425
-43.221
.426
-23.305
.426
-16.525
.425
-27.26
.426
-21.469
.426
-20.127
.425
-28.908
.426
10.994
.426
-14.949
.425
-42.726
.426
-28.601
.426
-7.533
.425
-21.846
.426
12.218
.426
-.448
.425
-4.472
.426
30.485
.426
27.66
.425
-9.275
.426
-.471
.426
-1.554
.425
-18.62
.426
18.432
.425
6.097
.426
-12.688
.426
-.871
.425
12.311
.426
-11.935
.426
9.416
.425
-13.841
.426
-36.441
.426
-6.003
.425
11.982
.426
1.836
.426
20.693
.425
24.67
.426
6.215
.426
27.895
.425
25.118
.426
-23.188
.426
-24.34
.425
-25.871
.426
-39.949
.426
-6.826
.425
-1.789
.426
-23.188
.426
12.736
.425
25.4
.426
-1.883
.426
9.722
.425
-5.509
.426
-30.438
.426
-15.277
.425
6.285
.426
-19.256
.426
7.109
.425
9.84
.426
-8.969
.426
13.442
.425
16.808
.426
-20.881
.426
-3.554
.425
-1.154
L87.668
60
l.426
17.561
.425
17.82
.426
-1.459
.426
15.466
.425
22.575
.426
7.698
.425
19.774
.426
.047
.426
-14.548
.425
-1.412
.426
10.357
.426
-9.157
.425
6.803
.426
19.398
.426
6.497
.425
17.749
.426
15.537
.426
-13.441
.425
-3.861
.426
-3.013
.426
-24.977
.425
-1.624
.426
8.898
.426
-15.348
.425
7.957
.426
23.234
.426
2.731
.425
15.937
.426
1.742
.426
-19.751
.425
11.464
.426
2.025
.426
-8.687
.425
5.862
.426
5.815
.426
-7.157
.425
19.233
.426
13.724
.426
-4.12
.425
-12.57
.426
-7.18
.426
-16.808
.425
9.981
.426
-3.719
.426
-14.313
.425
9.864
.426
15.56
.426
-.447
.425
14.877
.426
-2.778
.425
-6.356
.426
7.392
.426
1.036
.425
-1.224
.426
9.534
.426
4.072
.425
.942
.426
9.345
.426
8.616
.425
-8.663
.426
-17.066
.426
-8.969
.425
-19.257
.426
4.591
.426
-5.532
.425
-8.498
.426
6.403
.426
23.446
.425
-5.202
.426
11.44
.426
-5.697
.425
-15.419
.426
-3.389
.426
-1.884
.425
-10.004
.426
4.943
.426
4.214
.425
6.12
.426
11.865
.426
13.183
.425
3.389
.426
6.309
.426
10.146
.425
-4.967
.426
2.448
.426
8.993
.425
-10.758
.426
3.319
.426
2.542
.425
-.306
.426
4.308
.426
-2.142
.425
-2.26
.426
3.013
.426
.353
.425
-5.72
.426
-.235
.425
3.531
.426
-5.909
.426
-.118
.425
6.898
.426
-4.52
.426
1.224
.425
3.79
.426
-8.498
.426
6.38
.425
.894
.426
-6.662
.426
3.013
.425
10.57
.426
-6.662
.426
9.863
.425
-.706
.426
-4.355
.426
3.861
.425
-2.119
.426
-13.277
.426
-.211
.425
-1.648
.426
-11.158
.426
-.448
.425
5.626
.426
-1.718
.426
3.437
.425
10.169
.426
-3.295
.426
18.455
.425
9.134
.426
-6.615
.426
4.449
.425
6.074
.426
-12.665
.426
4.92
.425
-1.813
.426
-5.908
.426
.565
.425
3.719
.426
-9.91
.426
9.416
.425
.07
.426
-6.92
.426
4.684
.425
-.471
.426
-8.404
.425
4.026
.426
-2.26
.426
-2.778
.425
-1.483
.426
-.424
.426
3.508
.425
5.673
.426
7.251
.426
-7.015
.425
5.602
.426
7.321
.426
-3.036
.425
.447
.426
-2.448
.426
-14.666
.425
3.602
.426
3.083
.426
-12.076
.425
.753
.426
-1.483
.426
-5.438
.425
11.064
.426
2.307
.426
-10.075
.425
6.898
.426
2.048
.426
-10.264
.425
4.637
.426
-1.647
.426
-4.614
.425
-4.026
.426
-4.308
.426
-20.762
.425
5.108
.426
4.331
.426
-5.155
.425
4.237
.426
12.43
.426
4.684
.425
20.645
.426
10.758
.426
-4.52
.425
4.285
.426
5.132
.426
-9.864
.425
.118
.426
2.919
.425
-8.828
.426
-5.555
.426
-3.108
.425
-15.042
.426
3.201
.426
2.307
.425
-13.277
.426
.024
.426
7.509
.425
-1.365
.426
9.134
.426
7.297
.425
.189
.426
15.301
.426
6.026
.425
.73
.426
4.967
.426
2.095
.425
-4.99
.426
.777
.426
-1.272
.425
-1.577
.426
2.236
.426
5.203
.425
1.2
.426
.66
.426
-.212
.425
-7.251
.426
1.53
.426
-.047
.425
-3.813
.426
3.813
.426
3.32
.425
4.143
.426
14.359
.426
5.226
.425
-8.78
.426
.541
.426
-3.484
.425
-8.78
.426
5.908
.426
-3.719
.425
-.73
.426
17.232
.426
3.601
.425
2.119
.426
6.144
.425
-8.78
.426
-16.62
.426
-12.83
.425
-3.554
.426
-3.131
.426
2.942
.425
2.637
.426
1.201
.426
14.265
.425
12.947
.426
-5.626
.426
-2.754
.425
-2.99
.426
-6.05
.426
6.804
.425
5.155
.426
-1.695
.426
5.838
.425
9.228
.426
-3.837
.426
5.085
.425
-5.791
.426
-11.818
.426
-2.566
.425
4.567
.426
-4.567
.426
7.345
.425
5.344
.426
2.825
.426
8.945
.425
1.248
.426
-11.606
.426
-5.391
.425
-9.84
.426
-11.982
.426
-2.707
.425
.965
.426
-.023
.426
7.462
.425
7.839
.426
3.037
.426
10.193
.425
4.59
.426
-13.983
.425
-7.085
.426
-.919
.426
-.306
.425
8.64
.426
4.567
.426
-5.344
.425
15.137
.426
11.322
.426
-8.192
.425
-9.439
.426
-7.557
.426
-16.125
.425
4.426
.426
-.354
.426
-8.898
.425
9.063
.426
11.394
.426
.141
.425
5.344
.426
.73
.426
-8.31
.425
7.391
.426
4.803
.426
-5.391
.425
5.791
.426
11.676
.426
1.13
.425
8.875
.426
-5.933
.426
-13.888
.425
-4.45
.426
-2.872
.426
-7.391
.425
2.472
.426
-1.625
.426
3.743
.425
13.889
.426
13.63
.426
-.047
.425
5.579
.426
-4.025
.426
-.871
.425
2.777
.426
.306
.426
-2.354
.425
8.875
.426
.824
.425
1.342
.426
6.167
.426
7.251
.425
-9.652
.426
-6.309
.426
-10.946
.425
-8.639
.426
-1.719
.426
-.447
.425
-7.98
.426
9.581
.426
6.003
.425
.4
.426
3.413
.426
1.083
.425
-9.699
.426
.471
.426
-4.096
.425
-2.99
.426
4.803
.426
.141
.425
-7.863
.426
6.003
.426
1.578
.425
.659
.426
1.059
.426
-1.318
.425
-1.083
.426
11.37
.426
6.521
.425
-1.366
.426
1.177
.426
5.297
.425
3.46
.426
5.297
.426
1.177
.425
-6.121
.426
2.001
.426
4.52
.425
-5.391
.426
-3.013
.426
3.673
.425
-.754
.426
5.085
.426
3.484
.425
-7.298
.426
.212
.425
3.061
.426
-3.508
.426
-1.318
.425
-5.391
.426
-2.213
.426
6.544
.425
5.391
.426
-3.319
.426
.918
.425
-.565
.426
-4.779
.426
-4.143
.425
-.212
.426
-2.848
.426
-.895
.425
-2.871
.426
-4.308
.426
5.673
.425
1.2
.426
-7.344
.426
-.283
.425
3.578
.426
-2.048
.426
3.014
.425
.588
.426
-3.837
.426
4.637
.425
3.555
.426
-5.132
.426
7.557
.425
1.812
.426
-4.896
.426
8.098
.425
.471
.426
-3.908
.426
8.545
.425
-1.553
.426
2.236
.426
9.887
.425
-1.836
.426
-4.096
.426
-.848
.425
-7.956
.426
-10.641
.426
-1.012
.425
-4.402
.426
.377
.425
.353
.426
-2.119
.426
4.12
.425
9.934
.426
-4.449
.426
-5.485
.425
-11.794
.426
-.283
.426
-1.789
.425
1.413
.426
-.801
.426
1.107
.425
10.146
.426
13.841
.426
-5.131
.425
-3.955
.426
-5.391
.426
-11.888
.425
.094
.426
-4.731
.426
-4.402
.425
6.803
.426
10.287
.426
-.612
.425
11.299
.426
-3.86
.426
-12.995
.425
-4.26
.426
-.071
.426
-7.321
.425
3.931
.426
.8
.426
-2.307
.425
8.546
.426
.164
.426
-4.001
.425
-1.013
.426
-12.712
.426
-17.843
.425
3.248
.426
-.753
.426
-5.932
.425
.753
.426
7.039
.425
9.863
.426
14.125
.426
2.165
.425
-4.543
.426
4.685
.426
7.721
.425
-4.12
.426
1.224
.426
-2.942
.425
-2.637
.426
10.57
.426
4.002
.425
-12.335
.426
-2.731
.426
1.036
.425
-3.32
.426
5.556
.426
-2.919
.425
-.283
.426
10.711
.426
7.628
.425
-1.648
.426
7.486
.426
-1.719
.425
-8.427
.426
1.977
.426
-.989
.425
1.601
.426
5.509
.426
.094
.425
.894
.426
14.03
.426
3.649
.425
-6.638
.426
-1.577
.426
.306
.425
-4.473
.426
-.612
.426
1.648
.425
-1.483
.426
4.096
.426
1.106
.425
-4.637
.426
1.694
.426
-2.259
.425
-15.396
.426
-4.684
.425
3.272
.426
7.509
.426
12.194
.425
13.371
.426
12.735
.426
19.704
.425
13.559
.426
8.64
.426
.517
.425
-.612
.426
-.4
.426
-1.153
.425
-1.931
.426
-1.247
.426
-1.648
.425
-2.613
.426
-4.12
.426
-11.888
.425
-7.109
.426
-5.744
.426
-5.602
.425
-4.85
.426
-4.049
.426
-4.896
.425
3.578
.426
-2.048
.426
-2.99
.425
-2.518
.426
-4.92
.426
-1.154
.425
3.037
.426
-1.012
.426
-.095
.425
6.262
.426
2.731
.426
1.507
.425
3.154
.426
.8
.426
.918
.425
3.437
.426
-5.767
.426
-1.836
.425
4.967
.426
-2.142
.426
-.871
.425
2.424
.426
2.613
.425
4.755
.426
5.368
.426
-.777
.425
1.553
.426
-1.153
.426
-4.826
.425
-2.683
.426
.941
.426
-6.615
.425
-1.6
.426
-.542
.426
.848
.425
1.341
.426
.283
.426
-4.944
.425
3.39
.426
2.519
.426
-.871
.425
-1.412
.426
1.035
.426
1.06
.425
1.6
.426
-.258
.426
-3.508
.425
-4.426
.426
-.541
.426
-2.801
.425
-.659
.426
2.236
.426
-1.177
.425
.612
.426
5.461
.426
.142
.425
1.553
.426
.118
.426
-5.673
.425
-2.119
.426
-.259
.426
-5.179
.425
2.142
.426
4.897
.426
2.189
.425
5.626
.426
2.778
.426
.235
.425
-4.896
.426
-1.483
.425
-7.415
.426
-1.813
h.426
l.425
.165
.426
-2.66
.426
13.159
.425
.541
.426
4.12
.426
-1.742
.425
-6.003
.426
-7.439
.426
3.013
.425
-9.18
.426
1.859
.426
.659
.425
-6.567
.426
1.342
.426
7.462
.425
-3.931
.426
.423
.426
-.753
.425
-7.321
.426
7.392
.426
3.554
.425
-2.848
.426
1.224
.426
5.344
.425
-4.967
.426
6.144
.426
-2.59
.425
-7.062
.426
-3.908
.426
.306
.425
-2.589
.426
-1.13
.426
1.436
.425
1.601
.426
6.85
.426
3.766
.425
1.295
.426
.306
.426
4.167
.425
-1.483
.426
-2.354
.426
3.978
.425
5.367
.426
1.436
.425
3.578
.426
-5.084
.426
1.153
.425
4.638
.426
-4.308
.426
-11.158
.425
1.836
.426
-2.307
.426
2.825
.425
-.189
.426
.259
.426
.353
.425
11.512
.426
-.565
.426
1.153
.425
3.72
.426
-4.779
.426
-3.696
.425
.942
.426
-6.921
.426
-2.166
.425
-1.365
.426
.965
.426
6.732
.425
4.379
.426
-1.766
.426
2.472
.425
4.285
.426
2.966
.426
.447
.425
.871
.426
-1.695
.426
.33
.425
.541
.426
-5.085
.426
.306
.425
.471
.426
-3.154
.426
-1.154
.425
2.849
.426
-.165
.426
1.13
.425
-1.224
.426
-2.166
.425
.753
.426
-.8
.426
-6.639
.425
-7.109
.426
-1.86
.426
-4.166
.425
.329
.426
.871
.426
-1.177
.425
4.732
.426
10.405
.426
3.343
.425
3.743
.426
-.212
.426
-.942
.425
-1.554
.426
-1.294
.426
-7.51
.425
-5.626
.426
-5.65
.426
-5.108
.425
-3.178
.426
-1.601
.426
-5.649
.425
5.838
.426
3.013
.426
-3.955
.425
3.955
.426
3.343
.426
2.095
.425
6.285
.426
3.131
.426
-12.877
.425
-2.66
.426
-10.358
.426
-12.523
.425
-5.744
.426
-4.426
.426
-14.571
.425
2.613
.426
7.062
.426
7.627
.425
6.662
.426
3.837
.426
-2.119
.425
2.967
.426
9.133
.425
5.579
.426
-.188
.426
7.062
.425
5.626
.426
4.85
.426
6.826
.425
.189
.426
-5.697
.426
-.565
.425
-2.731
.426
-2.448
.426
.8
.425
1.272
.426
4.92
.426
8.215
.425
7.651
.426
3.743
.426
2.895
.425
3.743
.426
.071
.426
.165
.425
-1.931
.426
-.706
.426
-.777
.425
1.342
.426
-4.637
.426
.612
.425
-2.354
.426
.117
.426
-3.225
.425
-2.307
.426
-2.495
.426
3.319
.425
-.494
.426
1.954
.426
-.4
.425
4.331
.426
3.743
.426
2.283
.425
1.413
.426
-.589
.426
-.965
.425
.589
.426
-1.483
.426
-1.625
.425
-.4
.426
-2.895
.425
2.966
.426
-2.048
.426
-5.768
.425
-5.249
.426
-8.381
.426
-.753
.425
-.024
.426
-2.966
.426
3.508
.425
3.154
.426
2.708
.426
6.85
.425
-4.002
.426
-11.135
.426
-.494
.425
-.565
.426
-3.413
.426
1.106
.425
4.237
.426
2.849
.426
12.099
.425
3.155
.426
-3.461
.426
1.413
.425
-2.943
.426
-10.146
.426
2.213
.425
1.601
.426
-1.766
.426
2.802
.425
6.591
.426
5.697
.426
7.862
.425
2.307
.426
-.941
.426
1.671
.425
2.166
.426
-1.366
.426
1.177
.425
1.366
.426
-3.72
.426
-.023
.425
.8
.426
-4.99
.426
-2.19
.425
-3.366
.426
-4.543
.425
4.143
.426
2.283
.426
-1.789
.425
5.203
.426
3.154
.426
1.46
.425
6.097
.426
-1.036
.426
-5.391
.425
.612
.426
1.624
.426
1.413
.425
1.412
.426
-1.859
.426
-1.083
.425
1.577
.426
1.624
.426
-5.885
.425
-8.639
.426
-4.708
.426
-7.133
.425
-3.861
.426
1.719
.426
-1.413
.425
2.707
.426
4.967
.426
3.414
.425
8.051
.426
1.553
.426
-1.483
.425
-2.354
.426
1.13
.426
-.965
.425
1.836
.426
.565
.426
.165
.425
2.589
.426
3.108
.426
-1.083
.425
.565
.426
-3.06
.426
-2.896
.425
3.131
.426
-.824
.425
-1.671
.426
-.306
.426
1.365
.425
-.965
.426
1.577
.426
-1.765
.425
-3.273
.426
-2.283
.426
2.048
.425
.306
.426
1.412
.426
1.201
.425
.612
.426
4.638
.426
6.379
.425
-1.412
.426
2.354
.426
4.166
.425
.283
.426
.376
.426
1.484
.425
-.565
.426
-.236
.426
-5.461
.425
-3.837
.426
-4.002
.426
1.695
.425
-1.742
.426
-.589
.426
.565
.425
3.484
.426
2.801
.426
4.097
.425
-2.59
.426
-.118
.426
-.776
.425
-2.778
.426
-2.754
.426
-1.436
.425
-3.602
.426
1.671
.426
-2.566
.425
-1.106
.426
4.755
.426
4.143
.425
-1.318
.426
2.707
.425
-.894
.426
-1.483
.426
2.612
.425
-3.625
.426
-2.001
.426
1.06
.425
.918
.426
.706
.426
5.344
.425
-1.342
.426
1.954
.426
-1.554
.425
-1.412
.426
-8.145
.426
-4.12
.425
-3.531
.426
-3.837
.426
-1.648
.425
1.201
.426
-3.767
.426
1.836
.425
3.037
.426
-2.189
.426
2.448
.425
2.589
.426
-.588
.426
5.108
.425
4.991
.426
1.93
.426
2.072
.425
1.224
.426
-1.507
.426
1.46
.425
-1.224
.426
.706
.426
-1.201
.425
2.731
.426
-.33
.426
-1.577
.425
-.118
.426
-2.754
.426
-1.106
.425
-.801
.426
-2.495
.426
-1.813
.425
-.329
.426
-2.566
.425
3.037
.426
1.859
.426
-1.13
.425
1.036
.426
1.342
.426
.471
.425
.188
.426
-4.826
.426
-9.439
.425
-2.731
.426
.447
.426
-.612
.425
1.978
.426
2.236
.426
3.154
.425
8.216
.426
5.532
.426
-4.025
.425
-2.378
.426
.259
.426
-2.048
.425
1.059
.426
-.989
.426
-2.212
.425
1.365
.426
-1.13
.426
-1.883
.425
1.012
.426
1.671
.426
.354
.425
1.341
.426
5.65
.426
.636
.425
2.165
h.426
l.426
-3.436
.425
-1.225
.426
-4.331
.426
-6.262
.425
2.613
.426
-1.977
.426
-3.484
.425
2.66
.426
1.106
.426
.4
.425
2.943
.426
-.471
.425
-2.872
.426
5.085
.426
.141
.425
-2.283
.426
3.319
.426
-3.861
.425
1.201
.426
.047
.426
-3.013
.425
.047
.426
3.131
.426
-.73
.425
-1.977
.426
-5.697
.426
1.506
.425
-2.071
.426
-1.365
.426
-2.825
.425
-4.92
.426
2.989
.426
3.743
.425
-.047
.426
4.567
.426
.094
.425
1.577
.426
4.45
.426
2.613
.425
.612
.426
2.001
.426
-1.13
.425
-2.802
.426
-1.153
.426
2.048
.425
1.53
.426
1.483
.426
.353
.425
1.389
.426
5.626
.426
3.343
.425
-1.201
.426
1.154
.426
1.436
.425
-.283
.426
-.306
.426
-1.13
.425
-3.319
.426
1.907
.425
-2.707
.426
-.165
.426
-2.26
.425
1.554
.426
-1.766
.426
4.261
.425
.589
.426
-2.401
.426
-.613
.425
2.402
.426
.941
.426
2.59
.425
-3.32
.426
-.706
.426
4.52
.425
2.966
.426
1.271
.426
.777
.425
.047
.426
3.319
.426
-1.836
.425
-2.165
.426
-4.049
.426
1.718
.425
-1.624
.426
.777
.426
.659
.425
4.331
.426
.942
.426
1.836
.425
-2.142
.426
1.553
.426
-.447
.425
-1.13
.426
-3.484
.426
3.319
.425
1.225
.426
1.977
.426
-2.59
.425
-1.153
.426
-.212
.426
1.907
.425
-1.271
.426
.235
.425
.236
.426
3.201
.426
3.202
.425
1.106
.426
-.4
.426
1.954
.425
.329
.426
.989
.426
-.377
.425
.047
.426
1.154
.426
2.095
.425
-.071
.426
1.177
.426
-.612
.425
-1.13
.426
-.117
.426
-.73
.425
.753
.426
-1.247
.426
-1.201
.425
-.683
.426
1.295
.426
-2.707
.425
.07
.426
-.918
.426
.518
.425
-.235
.426
.212
.426
.635
.425
3.225
.426
.66
.426
.188
.425
.094
.426
-.024
.426
.118
.425
-.871
.426
-1.883
.426
-2.26
.425
-1.059
.426
-.565
.426
-.165
.425
1.059
.426
-.588
.426
-.448
.425
1.578
.426
-1.601
.425
-1.295
.426
.024
.426
-2.378
.425
.683
.426
1.648
.426
.4
.425
1.012
.426
-.989
.426
1.083
.425
-.518
.426
-1.318
.426
-.259
.425
-.353
.426
1.695
.426
2.519
.425
-.895
.426
.871
.426
.236
.425
-1.53
.426
-.966
.426
.118
.425
-1.271
.426
.329
.426
1.554
.425
2.284
.426
1.671
.426
1.036
.425
-.965
.426
.729
.426
.73
.425
-.588
.426
-.73
.426
.353
.425
.353
.426
.612
.426
1.295
.425
-1.201
.426
.589
.426
-.518
.425
-2.401
.426
-1.224
.426
-.353
.425
-1.083
.426
-.895
.426
-1.483
.425
.118
.426
1.247
.425
-.353
.426
-.494
.426
.612
.425
.8
.426
-.824
.426
.565
.425
1.483
.426
.754
.426
-1.436
.425
-.071
.426
-1.436
.426
1.107
.425
-.777
.426
-3.931
.426
-1.177
.425
2.142
.426
-1.554
.426
2.66
.425
.283
.426
1.247
.426
3.013
.425
2.025
.426
.4
.426
1.342
.425
-.518
.426
-.471
.426
-2.166
.425
-2.66
.426
-.682
.426
-1.107
.425
.895
.426
-.871
.426
.518
.425
-1.06
.426
3.296
.426
.071
.425
-.801
.426
-1.718
.426
1.389
.425
-.495
.426
1.483
.426
.589
.425
.118
.426
.941
.426
-.023
.425
-.895
.426
.871
.425
.824
.426
-2.613
.426
-2.024
.425
-.142
.426
1.225
.426
-1.648
.425
-.024
.426
-.353
.426
2.095
.425
2.119
.426
.894
.426
-1.6
.425
1.883
.426
.871
.426
.8
.425
-1.483
.426
.942
.426
-.942
.425
1.177
.426
.306
.426
.33
.425
.588
.426
1.719
.426
-.047
.425
1.224
.426
.188
.426
.565
.425
-.282
.426
-.613
.426
-.047
.425
-.918
.426
-2.095
.426
1.06
.425
-1.201
.426
-2.825
.426
-4.425
.425
-3.39
.426
.259
.426
1.647
.425
-1.177
.426
.683
.426
2.59
.425
3.484
.426
1.53
.425
-1.907
.426
-.353
.426
.682
.425
1.013
.426
-.33
.426
-1.389
.425
1.201
.426
1.907
.426
.07
.425
-.4
.426
-2.236
.426
-.471
.425
-.212
.426
1.106
.426
.848
.425
.588
.426
.118
.426
2.284
.425
-1.507
.426
2.166
.426
-2.307
.425
-2.637
.426
.824
.426
1.036
.425
-.188
.426
2.801
.426
.424
.425
1.718
.426
2.613
.426
-1.813
.425
-.824
.426
-.588
.426
.024
.425
.47
.426
.518
.426
.141
.425
1.695
.426
.848
.426
-.33
.425
-1.459
.426
-4.167
.426
-4.308
.425
-2.424
.426
-.542
.426
.094
.425
-.518
.426
.142
.425
3.178
.426
2.989
.426
-1.247
.425
-2.402
.426
-1.671
.426
-1.224
.425
.235
.426
.212
.426
.189
.425
2.989
.426
.989
.426
-.659
.425
1.883
.426
1.106
.426
-1.459
.425
-.871
.426
-2.331
.426
1.177
.425
2.237
.426
.8
.426
-.447
.425
1.2
.426
1.507
.426
2.778
.425
.235
.426
-.023
.426
-.942
.425
-.518
.426
-.918
.426
.306
.425
-.447
.426
-.236
.426
-.659
.425
-.565
.426
-.235
.426
.094
.425
-.777
.426
.33
.426
.141
.425
-.212
.426
.165
.426
1.224
.425
1.177
.426
-.683
.426
-1.53
.425
.565
.426
-.235
.425
.683
.426
-.495
.426
.306
.425
.942
.426
1.883
.426
.094
.425
.212
.426
.895
.426
-.189
.425
-.753
.426
.895
.426
-.565
.425
-.542
.426
-.07
.426
-1.342
.425
-.518
.426
.989
.426
-.777
.425
.47
.426
.165
.426
.353
.425
-.988
.426
1.365
.426
-.918
.425
-.259
.426
-.235
.426
-.848
.425
-.494
.426
.847
.426
-1.789
.425
-.753
.426
-.33
.426
-1.883
.425
.942
.426
.423
.426
.919
.425
1.412
.426
1.789
.426
1.318
.425
2.119
.426
-.377
.426
.094
.425
.189
.426
-.165
.426
-1.154
.425
-.47
.426
-1.672
.425
.142
.426
.07
.426
-.212
.425
-.259
.426
.918
.426
-.047
.425
-.164
h.426
l.426
-.495
.425
-.659
.426
.848
.426
-.189
.425
-.447
.426
.918
.426
.447
.425
-.753
.426
.188
.426
-.4
.425
-.07
.426
-.942
.426
.306
.425
-.895
.426
1.201
.426
.471
.425
-1.46
.426
.589
.426
1.954
.425
-.871
.426
-1.672
.426
-.706
.425
.4
.426
1.86
h.426
l.425
-.683
.426
1.083
.426
1.954
.425
-.847
.426
-1.319
.426
-1.036
.425
-.564
.426
-1.79
.426
-1.506
.425
.353
.426
.918
.426
1.036
.425
.353
.426
.424
.425
1.483
.426
1.318
.426
-.777
.425
-.259
.426
-4.19
.426
-1.295
.425
-1.459
.426
-2.095
.426
-1.813
h.425
l.426
-1.977
.426
4.378
.425
.212
.426
.942
.426
1.224
.425
1.883
.426
-.942
.426
2.543
.425
-1.083
h.426
l.426
-.777
.425
-.306
.426
-1.766
.426
1.484
.425
.47
.426
-1.412
.426
.377
.425
-.142
.426
.165
.426
1.036
.425
-.824
.426
-.565
.426
.306
.425
.494
.426
.33
.426
-.424
.425
-.447
.426
-1.813
.426
-.965
.425
1.86
.426
-.165
.426
.353
.425
1.978
.426
-1.837
.425
1.86
.426
.73
.426
-.589
.425
-1.459
.426
.023
.426
-.047
.425
3.013
.426
1.13
.426
-.753
h.425
l.426
1.295
.426
.683
.425
.094
.426
.235
.426
-2.283
.425
.4
.426
-1.059
.426
-.871
.425
-4.638
.426
-4.284
.426
-4.002
.425
-.518
.426
-2.566
.426
-2.801
.425
.353
.426
.07
.426
1.154
.425
1.954
.426
-.895
.426
1.366
.425
.376
.426
-.282
.426
-.424
.425
1.083
.426
.188
.426
1.672
.425
2.071
.426
1.695
.426
-2.189
.425
3.366
.426
.377
.426
-4.544
.425
.377
.426
-2.472
.426
-.306
.425
.895
.426
.235
.425
-2.401
.426
3.484
.426
-.235
.425
1.294
.426
1.342
.426
1.766
.425
-.659
.426
3.978
.426
2.731
.425
.282
.426
.565
.426
-.73
.425
-1.106
.426
1.436
.426
-1.813
.425
-.494
.426
.847
.426
-.259
.425
.966
.426
1.953
.426
.401
.425
.141
.426
-.683" aria-label="line"/>
</svg>
