<svg class="plot-d6a7b5" fill="currentColor" font-family="system-ui, sans-serif" font-size="10" text-anchor="middle" width="830" height="470" viewBox="0 0 830 470" xmlns="http://www.w3.org/2000/svg" xmlns:xlink="http://www.w3.org/1999/xlink" color="#1e90ff"><style>:where(.plot-d6a7b5){--plot-background: white;display:block;height:intrinsic;max-width:100%}:where(.plot-d6a7b5 text),:where(.plot-d6a7b5 tspan){white-space:pre}</style><g aria-label="y-grid" stroke="currentColor" stroke-opacity=".1"><line x1="60" x2="770" y1="410" y2="410"/><line x1="60" x2="770" y1="360.939" y2="360.939"/><line x1="60" x2="770" y1="311.878" y2="311.878"/><line x1="60" x2="770" y1="262.817" y2="262.817"/><line x1="60" x2="770" y1="213.757" y2="213.757"/><line x1="60" x2="770" y1="164.696" y2="164.696"/><line x1="60" x2="770" y1="115.635" y2="115.635"/><line x1="60" x2="770" y1="66.574" y2="66.574"/></g><g aria-label="y-axis tick" fill="none" stroke="currentColor"><path transform="translate(60,410)" d="M0,0L-6,0"/><path transform="translate(60,360.9391645640594)" d="M0,0L-6,0"/><path transform="translate(60,311.8783291281189)" d="M0,0L-6,0"/><path transform="translate(60,262.8174936921783)" d="M0,0L-6,0"/><path transform="translate(60,213.7566582562377)" d="M0,0L-6,0"/><path transform="translate(60,164.69582282029717)" d="M0,0L-6,0"/><path transform="translate(60,115.6349873843566)" d="M0,0L-6,0"/><path transform="translate(60,66.57415194841604)" d="M0,0L-6,0"/></g><g aria-label="y-axis tick label" text-anchor="end" font-variant="tabular-nums"><text y=".32em" transform="translate(-9,0) translate(60,410)">0</text><text y=".32em" transform="translate(-9,0) translate(60,360.9391645640594)">1,000</text><text y=".32em" transform="translate(-9,0) translate(60,311.8783291281189)">2,000</text><text y=".32em" transform="translate(-9,0) translate(60,262.8174936921783)">3,000</text><text y=".32em" transform="translate(-9,0) translate(60,213.7566582562377)">4,000</text><text y=".32em" transform="translate(-9,0) translate(60,164.69582282029717)">5,000</text><text y=".32em" transform="translate(-9,0) translate(60,115.6349873843566)">6,000</text><text y=".32em" transform="translate(-9,0) translate(60,66.57415194841604)">7,000</text></g><g aria-label="y-axis label" text-anchor="start"><text y=".71em" transform="translate(-57,-57) translate(60,60)">↑ Visible Vestiges (4 days)</text></g><g aria-label="x-axis tick" fill="none" stroke="currentColor"><path transform="translate(90.0997506234414,410)" d="M0,0L0,6"/><path transform="translate(170.66084788029926,410)" d="M0,0L0,6"/><path transform="translate(252.10723192019952,410)" d="M0,0L0,6"/><path transform="translate(333.55361596009976,410)" d="M0,0L0,6"/><path transform="translate(414.1147132169576,410)" d="M0,0L0,6"/><path transform="translate(494.6758104738155,410)" d="M0,0L0,6"/><path transform="translate(576.1221945137157,410)" d="M0,0L0,6"/><path transform="translate(657.568578553616,410)" d="M0,0L0,6"/><path transform="translate(737.2443890274315,410)" d="M0,0L0,6"/></g><g aria-label="x-axis tick label" font-variant="tabular-nums"><text transform="translate(0,9) translate(90.0997506234414,410)"><tspan x="0" y=".71em">Apr</tspan><tspan x="0" dy="1em">2023</tspan></text><text y=".71em" transform="translate(0,9) translate(170.66084788029926,410)">Jul</text><text y=".71em" transform="translate(0,9) translate(252.10723192019952,410)">Oct</text><text transform="translate(0,9) translate(333.55361596009976,410)"><tspan x="0" y=".71em">Jan</tspan><tspan x="0" dy="1em">2024</tspan></text><text y=".71em" transform="translate(0,9) translate(414.1147132169576,410)">Apr</text><text y=".71em" transform="translate(0,9) translate(494.6758104738155,410)">Jul</text><text y=".71em" transform="translate(0,9) translate(576.1221945137157,410)">Oct</text><text transform="translate(0,9) translate(657.568578553616,410)"><tspan x="0" y=".71em">Jan</tspan><tspan x="0" dy="1em">2025</tspan></text><text y=".71em" transform="translate(0,9) translate(737.2443890274315,410)">Apr</text></g><g aria-label="line" fill="none" stroke="currentColor" stroke-width="1.5" stroke-linejoin="round" stroke-linecap="round"><path d="M60,410L60.59,385.371L61.18,295.296L61.771,246.726L62.361,236.913L62.951,270.177L63.541,274.003L64.131,266.497L64.722,238.434L65.312,216.013L65.902,178.237L66.492,139.626L67.082,90.369L67.672,109.65L68.263,145.66L68.853,202.669L69.443,195.015L70.033,193.445L70.623,192.906L71.214,202.227L71.804,211.5L72.394,182.996L72.984,179.12L73.574,151.989L74.165,189.815L74.755,205.22L75.345,226.905L75.935,195.948L76.525,180.395L77.116,178.089L77.706,172.398L78.296,155.718L78.886,120.05L79.476,109.601L80.067,132.463L80.657,196.683L81.247,250.013L81.837,270.765L82.427,263.21L83.017,242.555L83.608,233.038L84.198,194.623L84.788,149.978L85.378,97.041L85.968,82.862L86.559,111.808L87.149,141.343L87.739,166.756L88.329,169.111L88.919,181.131L89.51,172.595L90.1,152.136L90.69,116.665L91.28,86.689L91.87,60L92.461,86.934L93.051,122.258L93.641,160.378L94.231,147.328L94.821,133.297L95.411,116.518L96.002,104.351L96.592,106.461L97.182,106.362L97.772,107.049L98.362,95.029L98.953,125.006L99.543,147.77L100.133,175.048L100.723,172.791L101.313,182.603L101.904,202.375L102.494,199.333L103.084,182.358L103.674,158.759L104.264,141.883L104.855,161.114L105.445,182.161L106.035,219.055L106.625,234.853L107.215,250.503L107.805,249.718L108.396,224.795L108.986,202.473L109.576,178.482L110.166,176.716L110.756,168.474L111.347,188.785L111.937,212.825L112.527,207.967L113.117,205.613L113.707,211.5L114.298,247.412L114.888,255.802L115.478,231.32L116.068,208.507L116.658,194.329L117.249,192.562L117.839,221.508L118.429,245.744L119.019,262.033L119.609,240.74L120.2,245.793L120.79,248.099L121.38,252.662L121.97,215.327L122.56,195.997L123.15,185.841L123.741,211.549L124.331,223.814L124.921,231.32L125.511,235.638L126.101,238.483L126.692,248.05L127.282,248.345L127.872,235.834L128.462,235.785L129.052,227.69L129.643,239.955L130.233,253.496L130.823,267.527L131.413,274.151L132.003,266.154L132.594,265.712L133.184,267.086L133.774,259.334L134.364,217.829L134.954,195.212L135.544,179.757L136.135,216.897L136.725,223.618L137.315,247.412L137.905,243.438L138.495,262.327L139.086,246.578L139.676,241.623L140.266,218.025L140.856,203.454L141.446,196.34L142.037,200.314L142.627,230.486L143.217,232.105L143.807,239.857L144.397,249.865L144.988,249.718L145.578,261.297L146.168,259.579L146.758,278.174L147.348,273.464L147.938,263.799L148.529,265.761L149.119,263.21L149.709,262.719L150.299,262.817L150.889,267.969L151.48,285.042L152.07,277.438L152.66,269.637L153.25,263.014L153.84,259.825L154.431,265.123L155.021,263.063L155.611,273.366L156.201,272.384L156.791,264.191L157.382,257.813L157.972,261.64L158.562,269.833L159.152,270.569L159.742,274.396L160.333,265.123L160.923,267.675L161.513,255.262L162.103,262.916L162.693,264.093L163.283,284.993L163.874,288.82L164.464,293.824L165.054,272.875L165.644,265.271L166.234,260.414L166.825,258.647L167.415,260.953L168.005,256.292L168.595,262.278L169.185,245.744L169.776,237.649L170.366,247.952L170.956,265.859L171.546,276.26L172.136,281.068L172.727,283.766L173.317,298.534L173.907,288.28L174.497,291.665L175.087,280.381L175.677,284.404L176.268,276.604L176.858,280.283L177.448,278.615L178.038,282.442L178.628,276.751L179.219,276.996L179.809,272.679L180.399,283.325L180.989,279.4L181.579,283.963L182.17,277.928L182.76,271.109L183.35,268.263L183.94,262.572L184.53,269.49L185.121,277.29L185.711,270.373L186.301,268.165L186.891,274.445L187.481,286.514L188.071,296.817L188.662,281.804L189.252,289.458L189.842,282.687L190.432,288.771L191.022,284.306L191.613,276.015L192.203,262.082L192.793,253.643L193.383,272.826L193.973,271.452L194.564,271.599L195.154,257.617L195.744,263.161L196.334,270.716L196.924,270.177L197.515,279.694L198.105,269.637L198.695,269.244L199.285,254.87L199.875,255.704L200.466,255.556L201.056,266.791L201.646,258.255L202.236,242.653L202.826,208.605L203.416,213.266L204.007,232.105L204.597,264.486L205.187,273.905L205.777,282.246L206.367,287.152L206.958,287.299L207.548,288.476L208.138,288.133L208.728,286.416L209.318,284.11L209.909,281.313L210.499,277.536L211.089,273.071L211.679,276.407L212.269,264.24L212.86,249.964L213.45,234.706L214.04,250.16L214.63,257.666L215.22,256.881L215.81,253.594L216.401,252.269L216.991,262.817L217.581,266.546L218.171,281.559L218.761,292.303L219.352,304.372L219.942,298.436L220.532,298.239L221.122,287.25L221.712,282.785L222.303,285.876L222.893,287.888L223.483,292.941L224.073,294.118L224.663,296.964L225.254,299.466L225.844,300.791L226.434,300.594L227.024,291.322L227.614,278.762L228.204,281.755L228.795,284.944L229.385,294.609L229.975,300.692L230.565,307.512L231.155,314.822L231.746,324.242L232.336,331.208L232.926,307.463L233.516,288.329L234.106,276.26L234.697,283.08L235.287,301.576L235.877,310.505L236.467,334.25L237.057,334.103L237.648,330.227L238.238,324.094L238.828,307.806L239.418,300.496L240.008,270.373L240.599,254.575L241.189,265.32L241.779,289.556L242.369,316.294L242.959,312.909L243.549,314.626L244.14,308.101L244.73,313.792L245.32,310.308L245.91,299.073L246.5,292.597L247.091,288.329L247.681,309.965L248.271,320.415L248.861,335.182L249.451,329.687L250.042,326.94L250.632,315.999L251.222,310.161L251.812,300.496L252.402,294.315L252.993,293.137L253.583,309.229L254.173,321.592L254.763,331.306L255.353,327.087L255.943,332.827L256.534,329.982L257.124,320.268L257.714,306.285L258.304,288.771L258.894,275.377L259.485,270.373L260.075,281.706L260.665,301.379L261.255,316.588L261.845,323.8L262.436,320.611L263.026,313.595L263.616,314.282L264.206,318.845L264.796,303.047L265.387,282.246L265.977,277.977L266.567,303.293L267.157,329.05L267.747,341.168L268.337,335.231L268.928,332.974L269.518,326.253L270.108,316.049L270.698,290.144L271.288,276.555L271.879,272.139L272.469,295.1L273.059,307.855L273.649,316.196L274.239,315.656L274.83,314.233L275.42,319.483L276.01,307.316L276.6,308.052L277.19,303.195L277.781,315.803L278.371,323.751L278.961,328.412L279.551,330.325L280.141,332.484L280.732,346.81L281.322,348.38L281.912,324.291L282.502,300.938L283.092,277.83L283.682,286.121L284.273,301.821L284.863,330.571L285.453,334.741L286.043,333.858L286.633,334.299L287.224,342.983L287.814,343.375L288.404,341.756L288.994,333.71L289.584,336.163L290.175,329.442L290.765,338.911L291.355,344.504L291.945,357.603L292.535,357.063L293.126,356.72L293.716,353.531L294.306,360.203L294.896,346.761L295.486,326.351L296.076,301.526L296.667,303.096L297.257,312.32L297.847,331.012L298.437,339.058L299.027,349.165L299.618,342.198L300.208,334.839L300.798,323.555L301.388,322.525L301.978,320.17L302.569,322.083L303.159,321.396L303.749,328.412L304.339,330.08L304.929,327.627L305.52,316.441L306.11,316.588L306.7,321.494L307.29,338.567L307.88,335.28L308.47,330.914L309.061,324.83L309.651,335.133L310.241,351.618L310.831,355.935L311.421,351.765L312.012,345.927L312.602,351.618L313.192,354.12L313.782,355.837L314.372,352.354L314.963,349.802L315.553,352.599L316.143,348.281L316.733,343.523L317.323,344.258L317.914,355.641L318.504,369.034L319.094,366.091L319.684,355.248L320.274,340.775L320.865,335.133L321.455,343.768L322.045,351.961L322.635,347.742L323.225,347.496L323.815,353.04L324.406,361.037L324.996,353.089L325.586,349.999L326.176,345.779L326.766,338.518L327.357,327.725L327.947,334.005L328.537,346.025L329.127,344.847L329.717,336.213L330.308,328.951L330.898,335.378L331.488,333.073L332.078,333.024L332.668,332.631L333.259,336.409L333.849,338.813L334.439,338.42L335.029,338.616L335.619,332.582L336.209,335.918L336.8,341.707L337.39,342.787L337.98,351.274L338.57,347.251L339.16,347.938L339.751,343.032L340.341,343.572L340.931,351.421L341.521,353.433L342.111,357.701L342.702,366.483L343.292,369.966L343.882,364.472L344.472,351.814L345.062,337.292L345.653,326.548L346.243,317.177L346.833,325.615L347.423,336.507L348.013,353.973L348.603,344.16L349.194,334.397L349.784,331.454L350.374,342.051L350.964,345.632L351.554,336.507L352.145,308.689L352.735,307.561L353.325,305.5L353.915,330.08L354.505,339.598L355.096,349.214L355.686,358.29L356.276,360.988L356.866,346.859L357.456,315.411L358.047,299.907L358.637,295.345L359.227,313.399L359.817,323.849L360.407,342.149L360.998,342.002L361.588,341.854L362.178,334.25L362.768,339.058L363.358,327.627L363.948,312.271L364.539,298.141L365.129,305.893L365.719,317.569L366.309,327.038L366.899,333.661L367.49,332.68L368.08,326.94L368.67,311.486L369.26,315.705L369.85,307.463L370.441,290.095L371.031,267.871L371.621,275.77L372.211,294.952L372.801,304.323L373.392,303.342L373.982,311.339L374.572,326.891L375.162,332.533L375.752,330.276L376.342,319.434L376.933,309.131L377.523,319.728L378.113,328.608L378.703,336.948L379.293,320.366L379.884,321.2L380.474,329.835L381.064,334.005L381.654,324.389L382.244,305.549L382.835,307.708L383.425,309.916L384.015,328.019L384.605,328.412L385.195,338.911L385.786,340.039L386.376,343.179L386.966,342.492L387.556,337.979L388.146,336.605L388.736,322.868L389.327,321.887L389.917,324.536L390.507,348.576L391.097,355.248L391.687,352.991L392.278,350.146L392.868,354.169L393.458,360.596L394.048,347.546L394.638,339.058L395.229,338.764L395.819,341.02L396.409,340.186L396.999,347.006L397.589,359.664L398.18,356.426L398.77,346.81L399.36,339.941L399.95,337.194L400.54,329.344L401.131,313.743L401.721,313.105L402.311,321.396L402.901,359.516L403.491,387.825L404.081,406.124L404.672,409.166L405.262,409.215L405.852,408.97L406.442,408.724L407.032,406.86L407.623,405.634L408.213,405.094L408.803,404.652L409.393,401.954L409.983,399.943L410.574,398.667L411.164,395.38L411.754,388.168L412.344,366.287L412.934,356.475L413.525,350.391L414.115,361.479L414.705,364.913L415.295,365.158L415.885,359.418L416.475,355.101L417.066,349.459L417.656,347.349L418.246,345.73L418.836,343.179L419.426,347.251L420.017,353.089L420.607,356.916L421.197,353.482L421.787,358.094L422.377,364.275L422.968,365.06L423.558,362.656L424.148,364.472L424.738,367.072L425.328,364.226L425.919,355.15L426.509,355.592L427.099,359.565L427.689,364.717L428.279,368.544L428.869,365.845L429.46,372.91L430.05,375.559L430.64,382.133L431.23,379.043L431.82,377.522L432.411,367.759L433.001,356.622L433.591,354.856L434.181,361.871L434.771,364.717L435.362,363.883L435.952,359.271L436.542,365.06L437.132,360.056L437.722,360.007L438.313,354.954L438.903,362.068L439.493,365.894L440.083,369.77L440.673,365.551L441.264,357.456L441.854,361.43L442.444,362.656L443.034,367.072L443.624,361.381L444.214,352.697L444.805,347.889L445.395,341.266L445.985,353.089L446.575,360.105L447.165,367.906L447.756,364.864L448.346,362.902L448.936,360.841L449.526,356.18L450.116,356.867L450.707,351.765L451.297,351.912L451.887,348.085L452.477,347.153L453.067,353.973L453.658,360.056L454.248,376.099L454.838,378.258L455.428,373.989L456.018,366.091L456.608,343.228L457.199,341.168L457.789,331.306L458.379,353.776L458.969,359.026L459.559,370.555L460.15,360.89L460.74,365.453L461.33,364.177L461.92,368.445L462.51,359.86L463.101,351.47L463.691,338.911L464.281,339.156L464.871,337.096L465.461,355.199L466.052,354.561L466.642,351.421L467.232,341.953L467.822,343.572L468.412,349.312L469.002,345.338L469.593,346.319L470.183,338.616L470.773,349.999L471.363,349.508L471.953,360.449L472.544,353.335L473.134,353.089L473.724,349.655L474.314,352.206L474.904,347.055L475.495,342.198L476.085,332.19L476.675,331.11L477.265,340.186L477.855,342.541L478.446,347.447L479.036,351.029L479.626,362.803L480.216,357.652L480.806,355.935L481.397,351.372L481.987,354.561L482.577,353.678L483.167,351.716L483.757,363.098L484.347,372.223L484.938,378.405L485.528,373.008L486.118,354.414L486.708,352.942L487.298,353.188L487.889,366.189L488.479,349.655L489.069,349.999L489.659,348.772L490.249,359.32L490.84,353.629L491.43,359.222L492.02,367.072L492.61,374.922L493.2,373.548L493.791,373.989L494.381,368.298L494.971,353.825L495.561,349.312L496.151,351.372L496.741,354.757L497.332,356.573L497.922,352.206L498.512,362.951L499.102,367.023L499.692,374.48L500.283,370.849L500.873,365.355L501.463,366.974L502.053,372.468L502.643,378.994L503.234,375.952L503.824,373.695L504.414,369.819L505.004,363.638L505.594,358.192L506.185,363.638L506.775,370.015L507.365,370.997L507.955,365.698L508.545,366.777L509.135,366.826L509.726,366.14L510.316,363.098L510.906,365.306L511.496,365.502L512.086,361.086L512.677,352.844L513.267,336.507L513.857,333.612L514.447,335.722L515.037,353.433L515.628,359.32L516.218,361.135L516.808,362.068L517.398,365.6L517.988,372.125L518.579,372.174L519.169,367.759L519.759,364.717L520.349,355.493L520.939,354.169L521.53,344.013L522.12,342.051L522.71,333.024L523.3,333.612L523.89,335.673L524.48,334.888L525.071,332.435L525.661,341.07L526.251,348.723L526.841,343.228L527.431,339.892L528.022,342.639L528.612,354.463L529.202,356.867L529.792,365.06L530.382,341.511L530.973,317.373L531.563,285.925L532.153,289.408L532.743,294.805L533.333,309.572L533.924,313.497L534.514,307.365L535.104,307.168L535.694,321.985L536.284,333.907L536.874,332.582L537.465,327.038L538.055,323.26L538.645,328.167L539.235,344.013L539.825,352.255L540.416,359.86L541.006,358.633L541.596,363.588L542.186,359.32L542.776,352.893L543.367,346.761L543.957,339.598L544.547,341.119L545.137,346.662L545.727,354.463L546.318,358.535L546.908,367.464L547.498,376.786L548.088,382.918L548.678,381.986L549.268,376.442L549.859,376.099L550.449,372.518L551.039,375.756L551.629,373.253L552.219,377.767L552.81,374.872L553.4,376.148L553.99,367.611L554.58,366.925L555.17,362.46L555.761,369.868L556.351,366.385L556.941,363.588L557.531,359.418L558.121,364.521L558.712,367.611L559.302,372.419L559.892,372.076L560.482,378.65L561.072,379.582L561.663,381.005L562.253,380.024L562.843,374.087L563.433,372.125L564.023,370.064L564.613,374.774L565.204,374.333L565.794,373.695L566.384,369.77L566.974,373.401L567.564,368.004L568.155,359.958L568.745,347.546L569.335,333.907L569.925,343.719L570.515,350.685L571.106,365.6L571.696,369.083L572.286,367.66L572.876,367.072L573.466,360.399L574.057,355.297L574.647,333.416L575.237,333.024L575.827,343.67L576.417,358.339L577.007,361.086L577.598,364.422L578.188,372.37L578.778,373.401L579.368,370.751L579.958,368.249L580.549,360.645L581.139,350.685L581.729,340.088L582.319,349.704L582.909,360.203L583.5,375.02L584.09,373.744L584.68,376.541L585.27,382.133L585.86,382.084L586.451,382.771L587.041,379.435L587.631,381.348L588.221,379.779L588.811,381.692L589.401,386.255L589.992,384.537L590.582,380.318L591.172,374.48L591.762,375.216L592.352,370.997L592.943,368.396L593.533,364.275L594.123,363.49L594.713,372.468L595.303,378.405L595.894,384.881L596.484,382.869L597.074,382.084L597.664,384.734L598.254,385.813L598.845,386.058L599.435,377.718L600.025,372.763L600.615,376.295L601.205,389.689L601.796,394.006L602.386,387.825L602.976,382.869L603.566,374.872L604.156,377.178L604.746,370.702L605.337,362.803L605.927,353.923L606.517,345.142L607.107,350.146L607.697,355.542L608.288,369.77L608.878,376.982L609.468,375.854L610.058,377.031L610.648,379.386L611.239,377.276L611.829,372.468L612.419,365.011L613.009,371.34L613.599,371.291L614.19,381.201L614.78,382.379L615.37,382.624L615.96,379.386L616.55,377.227L617.14,380.956L617.731,376.688L618.321,373.744L618.911,371.144L619.501,376.737L620.091,378.16L620.682,378.552L621.272,375.118L621.862,375.412L622.452,373.94L623.042,375.265L623.633,374.333L624.223,370.948L624.813,363.294L625.403,367.808L625.993,375.559L626.584,381.79L627.174,381.348L627.764,381.054L628.354,384.39L628.944,387.53L629.534,387.825L630.125,390.817L630.715,392.436L631.305,395.527L631.895,391.112L632.485,388.855L633.076,390.228L633.666,389.247L634.256,377.767L634.846,372.567L635.436,367.808L636.027,378.307L636.617,380.416L637.207,388.904L637.797,385.568L638.387,384.979L638.978,386.843L639.568,389.444L640.158,387.285L640.748,383.311L641.338,381.643L641.929,377.914L642.519,371.831L643.109,372.321L643.699,373.204L644.289,380.269L644.879,373.94L645.47,377.473L646.06,380.171L646.65,388.07L647.24,388.119L647.83,384.734L648.421,381.299L649.011,374.627L649.601,377.963L650.191,374.971L650.781,381.79L651.372,378.601L651.962,384.685L652.552,386.892L653.142,389.149L653.732,387.775L654.323,387.383L654.913,379.828L655.503,376.491L656.093,361.528L656.683,358.388L657.273,356.229L657.864,363.834L658.454,368.593L659.044,370.899L659.634,367.71L660.224,360.007L660.815,360.694L661.405,361.822L661.995,370.702L662.585,374.529L663.175,380.171L663.766,382.526L664.356,379.828L664.946,385.764L665.536,380.563L666.126,381.594L666.717,378.258L667.307,382.624L667.897,379.877L668.487,381.79L669.077,382.183L669.667,385.224L670.258,384.096L670.848,379.975L671.438,378.405L672.028,370.604L672.618,373.499L673.209,372.468L673.799,376.05L674.389,373.45L674.979,370.31L675.569,368.593L676.16,370.899L676.75,378.356L677.34,380.318L677.93,379.729L678.52,376.05L679.111,376.246L679.701,372.763L680.291,362.215L680.881,349.017L681.471,344.896L682.062,355.297L682.652,370.015L683.242,380.024L683.832,380.269L684.422,377.571L685.012,377.375L685.603,380.122L686.193,375.559L686.783,368.2L687.373,367.219L687.963,371.585L688.554,376.05L689.144,373.253L689.734,375.657L690.324,371.733L690.914,364.079L691.505,363.785L692.095,367.415L692.685,377.718L693.275,379.582L693.865,382.673L694.456,387.04L695.046,379.975L695.636,381.398L696.226,373.253L696.816,375.069L697.406,369.868L697.997,363.932L698.587,362.411L699.177,363.343L699.767,369.672L700.357,367.317L700.948,369.23L701.538,370.457L702.128,372.616L702.718,371.683L703.308,369.329L703.899,368.838L704.489,370.948L705.079,374.137L705.669,376.59L706.259,375.069L706.85,365.796L707.44,370.702L708.03,363.392L708.62,367.268L709.21,368.053L709.8,376.933L710.391,380.171L710.981,366.679L711.571,353.188L712.161,350.538L712.751,354.218L713.342,364.03L713.932,363.883L714.522,361.184L715.112,356.769L715.702,356.965L716.293,364.472L716.883,371.438L717.473,373.646L718.063,376.884L718.653,373.94L719.244,374.774L719.834,372.959L720.424,375.363L721.014,374.529L721.604,369.623L722.195,366.287L722.785,369.966L723.375,379.828L723.965,383.507L724.555,382.379L725.145,381.25L725.736,384.979L726.326,387.874L726.916,386.156L727.506,386.696L728.096,386.402L728.687,387.187L729.277,383.017L729.867,381.398L730.457,377.963L731.047,380.858L731.638,378.11L732.228,384.39L732.818,376.491L733.408,381.201L733.998,376.246L734.589,386.402L735.179,387.285L735.769,383.213L736.359,379.337L736.949,375.216L737.539,386.892L738.13,388.609L738.72,386.843L739.31,384.292L739.9,384.243L740.49,393.466L741.081,393.466L741.671,397.342L742.261,392.976L742.851,395.478L743.441,387.481L744.032,382.82L744.622,376.688L745.212,384.096L745.802,389.1L746.392,394.791L746.983,395.086L747.573,399.501L748.163,395.184L748.753,391.504L749.343,385.421L749.933,391.7L750.524,392.632L751.114,395.036L751.704,388.953L752.294,392.485L752.884,393.712L753.475,399.01L754.065,392.976L754.655,388.953L755.245,386.794L755.835,390.081L756.426,393.368L757.016,395.527L757.606,397.342L758.196,400.629L758.786,402.788L759.377,402.445L759.967,398.225L760.557,398.912L761.147,399.452L761.737,404.162L762.328,402.592L762.918,404.162L763.508,404.162L764.098,405.094L764.688,405.535L765.278,406.124L765.869,405.192L766.459,401.414L767.049,400.286L767.639,400.041L768.229,404.898L768.82,402.984L769.41,402.592L770,398.667"/></g></svg>