<svg version="1.1" viewBox="0 0 830 564" xmlns="http://www.w3.org/2000/svg"><g color="#1e90ff"><g style="shape-padding:2.00159" aria-label="■ Custom Colour/Modded Campaigns ■ Survivor ■ Monk ■ Hunter ■ Gourmand ■ Artificer ■ Rivulet ■ Spearmaster ■ Saint ■ ⏿" white-space="pre"><path d="m55.011719 483.99902v-7.74414h7.750488v7.74414z" fill="#0f0f0f"/><path d="m77.437988 483.16748q-0.488769 0.26025-1.002929 0.38721-0.514161 0.1333-1.091797 0.1333-1.821778 0-2.831055-1.28858-1.00293-1.28857-1.00293-3.62451 0-2.32324 1.009278-3.61816 1.015625-1.30127 2.824707-1.30127 0.577636 0 1.091797 0.1333 0.51416 0.12695 1.002929 0.38721v1.31396q-0.469726-0.38721-1.009277-0.59033-0.539551-0.20313-1.085449-0.20313-1.250489 0-1.872559 0.96485-0.62207 0.96484-0.62207 2.91357 0 1.94239 0.62207 2.90723t1.872559 0.96484q0.558593 0 1.091797-0.20312 0.53955-0.20313 1.002929-0.59033zm2.253418-2.35498v-4.40527h1.167969v4.40527q0 0.9585 0.336426 1.40918 0.342773 0.45068 1.053711 0.45068 0.825195 0 1.263183-0.57763 0.437989-0.58399 0.437989-1.66944v-4.01806h1.174316v7.09668h-1.174316v-1.06641q-0.311036 0.61572-0.850586 0.93311-0.533203 0.31738-1.250489 0.31738-1.091797 0-1.625-0.71094-0.533203-0.71728-0.533203-2.16455zm12.765137-4.17041v1.14258q-0.501465-0.29199-1.009277-0.43799-0.507813-0.146-1.034668-0.146-0.793457 0-1.187012 0.26026-0.387207 0.2539-0.387207 0.78076 0 0.47607 0.291992 0.71094 0.291992 0.23486 1.453613 0.45703l0.469727 0.0889q0.869629 0.16503 1.313965 0.66015 0.450683 0.49512 0.450683 1.28858 0 1.05371-0.749023 1.65039-0.749024 0.59033-2.082031 0.59033-0.526856 0-1.104493-0.11426-0.577636-0.10791-1.250488-0.33008v-1.20605q0.653809 0.33642 1.250488 0.50781 0.59668 0.16504 1.129883 0.16504 0.774414 0 1.199707-0.31104 0.425293-0.31738 0.425293-0.88232 0-0.8125-1.555175-1.12354l-0.05078-0.0127-0.437988-0.0889q-1.009277-0.19678-1.472656-0.66015-0.463379-0.46973-0.463379-1.27588 0-1.02198 0.691894-1.57422 0.691895-0.5586 1.974121-0.5586 0.57129 0 1.098145 0.10791 0.526855 0.10157 1.034668 0.31104zm5.547852-2.26611v2.01855h2.653315v0.90772h-2.653315v3.85937q0 0.78711 0.298339 1.09815 0.29834 0.31103 1.041016 0.31103h1.31396v0.93311h-1.428218q-1.313965 0-1.853515-0.52686-0.539551-0.52685-0.539551-1.81543v-3.85937h-1.897949v-0.90772h1.897949v-2.01855zm7.839355 2.8374q-0.88867 0-1.3457 0.69189-0.45703 0.6919-0.45703 2.0503 0 1.35205 0.45703 2.05029 0.45703 0.69189 1.3457 0.69189 0.89502 0 1.35205-0.69189 0.45703-0.69824 0.45703-2.05029 0-1.3584-0.45703-2.0503-0.45703-0.69189-1.35205-0.69189zm0-0.99024q1.479 0 2.25977 0.9585 0.78711 0.9585 0.78711 2.77393 0 1.82177-0.78077 2.78027-0.78076 0.95215-2.26611 0.95215-1.479 0-2.25977-0.95215-0.78076-0.9585-0.78076-2.78027 0-1.81543 0.78076-2.77393 0.78077-0.9585 2.25977-0.9585zm8.20752 0.89502q0.21582-0.45703 0.5459-0.67285 0.33642-0.22217 0.80615-0.22217 0.85693 0 1.20606 0.66651 0.35546 0.66015 0.35546 2.49463v4.11963h-1.0664v-4.06885q0-1.5044-0.17139-1.86621-0.16504-0.36817-0.60937-0.36817-0.50782 0-0.69825 0.39356-0.18408 0.38721-0.18408 1.84082v4.06885h-1.0664v-4.06885q0-1.52344-0.18409-1.87891-0.17773-0.35547-0.64746-0.35547-0.46338 0-0.64746 0.39356-0.17773 0.38721-0.17773 1.84082v4.06885h-1.06006v-7.10938h1.06006v0.60938q0.20947-0.38086 0.5205-0.57764 0.31739-0.20313 0.71729-0.20313 0.48242 0 0.7998 0.22217 0.32374 0.22217 0.50147 0.67285zm18.17334 6.04932q-0.48877 0.26025-1.00293 0.38721-0.51416 0.1333-1.0918 0.1333-1.82177 0-2.83105-1.28858-1.00293-1.28857-1.00293-3.62451 0-2.32324 1.00928-3.61816 1.01562-1.30127 2.8247-1.30127 0.57764 0 1.0918 0.1333 0.51416 0.12695 1.00293 0.38721v1.31396q-0.46973-0.38721-1.00928-0.59033-0.53955-0.20313-1.08545-0.20313-1.25049 0-1.87256 0.96485-0.62207 0.96484-0.62207 2.91357 0 1.94239 0.62207 2.90723t1.87256 0.96484q0.5586 0 1.0918-0.20312 0.53955-0.20313 1.00293-0.59033zm4.92578-5.9541q-0.88867 0-1.3457 0.69189-0.45703 0.6919-0.45703 2.0503 0 1.35205 0.45703 2.05029 0.45703 0.69189 1.3457 0.69189 0.89502 0 1.35205-0.69189 0.45703-0.69824 0.45703-2.05029 0-1.3584-0.45703-2.0503-0.45703-0.69189-1.35205-0.69189zm0-0.99024q1.479 0 2.25977 0.9585 0.78711 0.9585 0.78711 2.77393 0 1.82177-0.78077 2.78027-0.78076 0.95215-2.26611 0.95215-1.479 0-2.25977-0.95215-0.78076-0.9585-0.78076-2.78027 0-1.81543 0.78076-2.77393 0.78077-0.9585 2.25977-0.9585zm7.97266 4.70362q0 0.78711 0.28564 1.18701 0.29199 0.3999 0.85693 0.3999h1.36475v0.99024h-1.479q-1.04737 0-1.625-0.67286-0.57129-0.67285-0.57129-1.90429v-6.45557h-1.87256v-0.91406h3.04053zm7.68066-3.71338q-0.88867 0-1.3457 0.69189-0.45703 0.6919-0.45703 2.0503 0 1.35205 0.45703 2.05029 0.45703 0.69189 1.3457 0.69189 0.89502 0 1.35205-0.69189 0.45703-0.69824 0.45703-2.05029 0-1.3584-0.45703-2.0503-0.45703-0.69189-1.35205-0.69189zm0-0.99024q1.479 0 2.25977 0.9585 0.78711 0.9585 0.78711 2.77393 0 1.82177-0.78077 2.78027-0.78076 0.95215-2.26611 0.95215-1.479 0-2.25976-0.95215-0.78077-0.9585-0.78077-2.78027 0-1.81543 0.78077-2.77393 0.78076-0.9585 2.25976-0.9585zm5.1543 4.58936v-4.40527h1.16797v4.40527q0 0.9585 0.33642 1.40918 0.34278 0.45068 1.05371 0.45068 0.8252 0 1.26319-0.57763 0.43799-0.58399 0.43799-1.66944v-4.01806h1.17431v7.09668h-1.17431v-1.06641q-0.31104 0.61572-0.85059 0.93311-0.5332 0.31738-1.25049 0.31738-1.0918 0-1.625-0.71094-0.5332-0.71728-0.5332-2.16455zm13.92041-2.95166q-0.37451-0.29199-0.76172-0.42529t-0.85059-0.1333q-1.09179 0-1.66943 0.68554-0.57764 0.68555-0.57764 1.98047v3.53565h-1.17431v-7.10938h1.17431v1.39014q0.292-0.75537 0.89502-1.15528 0.60938-0.40625 1.44092-0.40625 0.43164 0 0.80615 0.10791t0.71729 0.33643zm6.13818-3.83398h1.20606l-4.98926 10.6831h-1.2124zm2.72949 0h1.71387l1.6377 4.82421 1.65039-4.82421h1.72021v9.47705h-1.18701v-8.37256l-1.68848 4.9956h-0.97119l-1.69482-4.9956v8.37256h-1.18067zm11.19092 3.18652q-0.88867 0-1.3457 0.69189-0.45703 0.6919-0.45703 2.0503 0 1.35205 0.45703 2.05029 0.45703 0.69189 1.3457 0.69189 0.89502 0 1.35205-0.69189 0.45703-0.69824 0.45703-2.05029 0-1.3584-0.45703-2.0503-0.45703-0.69189-1.35205-0.69189zm0-0.99024q1.47901 0 2.25977 0.9585 0.78711 0.9585 0.78711 2.77393 0 1.82177-0.78077 2.78027-0.78076 0.95215-2.26611 0.95215-1.479 0-2.25976-0.95215-0.78077-0.9585-0.78077-2.78027 0-1.81543 0.78077-2.77393 0.78076-0.9585 2.25976-0.9585zm9.36279 1.07911v-3.6753h1.16797v9.87696h-1.16797v-0.89502q-0.29199 0.52685-0.78076 0.80615-0.48242 0.27295-1.11718 0.27295-1.28858 0-2.03125-0.99658-0.73633-1.00293-0.73633-2.76123 0-1.73291 0.74267-2.7168 0.74268-0.99024 2.02491-0.99024 0.64111 0 1.12988 0.2793 0.48877 0.27295 0.76806 0.79981zm-3.43408 2.65332q0 1.35839 0.43164 2.05029 0.43164 0.69189 1.27588 0.69189t1.28223-0.69824q0.44433-0.69824 0.44433-2.04394 0-1.35205-0.44433-2.04395-0.43799-0.69824-1.28223-0.69824t-1.27588 0.69189q-0.43164 0.6919-0.43164 2.0503zm11.26074-2.65332v-3.6753h1.16797v9.87696h-1.16797v-0.89502q-0.29199 0.52685-0.78076 0.80615-0.48242 0.27295-1.11718 0.27295-1.28858 0-2.03125-0.99658-0.73633-1.00293-0.73633-2.76123 0-1.73291 0.74267-2.7168 0.74268-0.99024 2.02491-0.99024 0.64111 0 1.12988 0.2793 0.48877 0.27295 0.76806 0.79981zm-3.43408 2.65332q0 1.35839 0.43164 2.05029 0.43164 0.69189 1.27588 0.69189t1.28223-0.69824q0.44433-0.69824 0.44433-2.04394 0-1.35205-0.44433-2.04395-0.43799-0.69824-1.28223-0.69824t-1.27588 0.69189q-0.43164 0.6919-0.43164 2.0503zm12.87305-0.29834v0.57129h-5.05908v0.0381q0 1.16162 0.60302 1.79639 0.60938 0.63476 1.71387 0.63476 0.5586 0 1.16797-0.17773 0.60938-0.17773 1.30127-0.53955v1.16162q-0.6665 0.27295-1.28857 0.40625-0.61573 0.13965-1.19336 0.13965-1.65674 0-2.58985-0.99024-0.9331-0.99658-0.9331-2.74218 0-1.70118 0.91406-2.7168 0.91406-1.01563 2.4375-1.01563 1.3584 0 2.13916 0.92041 0.78711 0.92041 0.78711 2.51368zm-1.16797-0.34278q-0.0254-1.02832-0.48877-1.56152-0.45703-0.53955-1.32031-0.53955-0.84424 0-1.39014 0.55859-0.5459 0.5586-0.64746 1.54883zm7.38233-2.0122v-3.6753h1.16796v9.87696h-1.16796v-0.89502q-0.292 0.52685-0.78077 0.80615-0.48242 0.27295-1.11718 0.27295-1.28858 0-2.03125-0.99658-0.73633-1.00293-0.73633-2.76123 0-1.73291 0.74267-2.7168 0.74268-0.99024 2.02491-0.99024 0.64111 0 1.12988 0.2793 0.48877 0.27295 0.76807 0.79981zm-3.43409 2.65332q0 1.35839 0.43164 2.05029 0.43164 0.69189 1.27588 0.69189t1.28223-0.69824q0.44434-0.69824 0.44434-2.04394 0-1.35205-0.44434-2.04395-0.43799-0.69824-1.28223-0.69824t-1.27588 0.69189q-0.43164 0.6919-0.43164 2.0503zm20.45215 3.21191q-0.48877 0.26025-1.00293 0.38721-0.51416 0.1333-1.0918 0.1333-1.82177 0-2.83105-1.28858-1.00293-1.28857-1.00293-3.62451 0-2.32324 1.00928-3.61816 1.01562-1.30127 2.8247-1.30127 0.57764 0 1.0918 0.1333 0.51416 0.12695 1.00293 0.38721v1.31396q-0.46973-0.38721-1.00928-0.59033-0.53955-0.20313-1.08545-0.20313-1.25048 0-1.87255 0.96485-0.62207 0.96484-0.62207 2.91357 0 1.94239 0.62207 2.90723t1.87255 0.96484q0.5586 0 1.0918-0.20312 0.53955-0.20313 1.00293-0.59033zm5.47168-3.2373h-0.38721q-1.02197 0-1.54248 0.36181-0.51416 0.35547-0.51416 1.06641 0 0.64111 0.38721 0.99658t1.07275 0.35547q0.96485 0 1.51709-0.6665 0.55225-0.67286 0.5586-1.85352v-0.26025zm2.26611-0.48243v4.05616h-1.17431v-1.05371q-0.37451 0.63476-0.9458 0.93945-0.56494 0.29834-1.37744 0.29834-1.08545 0-1.73291-0.60938-0.64747-0.61572-0.64747-1.64404 0-1.18701 0.79346-1.80273 0.79981-0.61573 2.34229-0.61573h1.56787v-0.18408q-6e-3 -0.85058-0.43164-1.23144-0.4253-0.38721-1.3584-0.38721-0.59668 0-1.20606 0.17139-0.60937 0.17138-1.18701 0.50146v-1.16797q0.64746-0.24756 1.2378-0.36816 0.59668-0.12696 1.15527-0.12696 0.88232 0 1.50439 0.26026 0.62842 0.26025 1.01563 0.78076 0.24121 0.31738 0.34277 0.78711 0.10156 0.46338 0.10156 1.39648zm5.39551-2.32959q0.21582-0.45703 0.5459-0.67285 0.33643-0.22217 0.80615-0.22217 0.85694 0 1.20606 0.66651 0.35547 0.66015 0.35547 2.49463v4.11963h-1.06641v-4.06885q0-1.5044-0.17139-1.86621-0.16504-0.36817-0.60937-0.36817-0.50781 0-0.69824 0.39356-0.18409 0.38721-0.18409 1.84082v4.06885h-1.0664v-4.06885q0-1.52344-0.18408-1.87891-0.17774-0.35547-0.64746-0.35547-0.46338 0-0.64747 0.39356-0.17773 0.38721-0.17773 1.84082v4.06885h-1.06006v-7.10938h1.06006v0.60938q0.20947-0.38086 0.52051-0.57764 0.31738-0.20313 0.71728-0.20313 0.48242 0 0.79981 0.22217 0.32373 0.22217 0.50146 0.67285zm5.91602 5.49073v3.59912h-1.17432v-9.81348h1.17432v0.90772q0.29199-0.52686 0.77441-0.79981 0.48877-0.2793 1.12354-0.2793 1.28857 0 2.01855 0.99659 0.73633 0.99658 0.73633 2.76123 0 1.73291-0.73633 2.72314-0.73633 0.98389-2.01855 0.98389-0.64746 0-1.13623-0.27295-0.48243-0.2793-0.76172-0.80615zm3.42773-2.65332q0-1.3584-0.43164-2.0503-0.42529-0.69189-1.26953-0.69189-0.85059 0-1.28857 0.69824-0.43799 0.6919-0.43799 2.04395 0 1.3457 0.43799 2.04394 0.43798 0.69824 1.28857 0.69824 0.84424 0 1.26953-0.69189 0.43164-0.6919 0.43164-2.05029zm6.47461-0.0254h-0.38721q-1.02197 0-1.54248 0.36181-0.51416 0.35547-0.51416 1.06641 0 0.64111 0.38721 0.99658t1.07275 0.35547q0.96485 0 1.51709-0.6665 0.55225-0.67286 0.5586-1.85352v-0.26025zm2.26611-0.48243v4.05616h-1.17431v-1.05371q-0.37451 0.63476-0.9458 0.93945-0.56494 0.29834-1.37744 0.29834-1.08545 0-1.73291-0.60938-0.64746-0.61572-0.64746-1.64404 0-1.18701 0.79345-1.80273 0.79981-0.61573 2.34229-0.61573h1.56787v-0.18408q-6e-3 -0.85058-0.43164-1.23144-0.4253-0.38721-1.3584-0.38721-0.59668 0-1.20606 0.17139-0.60937 0.17138-1.18701 0.50146v-1.16797q0.64746-0.24756 1.2378-0.36816 0.59668-0.12696 1.15527-0.12696 0.88232 0 1.50439 0.26026 0.62842 0.26025 1.01563 0.78076 0.24121 0.31738 0.34277 0.78711 0.10156 0.46338 0.10156 1.39648zm2.7295-3.05322h2.98974v6.20166h2.3169v0.90772h-5.80176v-0.90772h2.31689v-5.29394h-1.82177zm1.82177-2.76758h1.16797v1.47901h-1.16797zm9.82618 6.26514q0-1.31397-0.43164-1.99316-0.4253-0.68555-1.24414-0.68555-0.85694 0-1.30762 0.68555-0.45069 0.67919-0.45069 1.99316 0 1.31396 0.45069 2.00586 0.45703 0.68555 1.32031 0.68555 0.80615 0 1.23145-0.6919 0.43164-0.69189 0.43164-1.99951zm1.16797 3.15478q0 1.59961-0.75538 2.42481-0.75537 0.82519-2.22168 0.82519-0.48242 0-1.00927-0.0889-0.52686-0.0889-1.05371-0.26026v-1.15527q0.62207 0.29199 1.12988 0.43164t0.9331 0.13965q0.94581 0 1.37745-0.51416t0.43164-1.63135v-0.84426q-0.2793 0.59668-0.76172 0.88868-0.48242 0.29199-1.17432 0.29199-1.24414 0-1.98682-0.99658-0.74267-0.99659-0.74267-2.66602 0-1.67578 0.74267-2.67236 0.74268-0.99659 1.98682-0.99659 0.68555 0 1.16162 0.27295 0.47608 0.27295 0.77442 0.84424v-0.92041h1.16797zm7.88378-3.94824v4.40528h-1.17431v-4.40528q0-0.95849-0.33643-1.40918-0.33642-0.45068-1.05371-0.45068-0.81885 0-1.26318 0.58398-0.43799 0.57764-0.43799 1.66309v4.01807h-1.16797v-7.10938h1.16797v1.06641q0.31103-0.60938 0.84424-0.92041 0.5332-0.31739 1.26318-0.31739 1.08545 0 1.61865 0.71729 0.53955 0.71094 0.53955 2.1582zm7.33155-2.45654v1.14258q-0.50147-0.29199-1.00928-0.43799t-1.03467-0.146q-0.79346 0-1.18701 0.26026-0.38721 0.2539-0.38721 0.78076 0 0.47607 0.292 0.71094 0.29199 0.23486 1.45361 0.45703l0.46973 0.0889q0.86962 0.16503 1.31396 0.66015 0.45068 0.49512 0.45068 1.28858 0 1.05371-0.74902 1.65039-0.74902 0.59033-2.08203 0.59033-0.52686 0-1.10449-0.11426-0.57764-0.10791-1.25049-0.33008v-1.20605q0.65381 0.33642 1.25049 0.50781 0.59668 0.16504 1.12988 0.16504 0.77441 0 1.19971-0.31104 0.42529-0.31738 0.42529-0.88232 0-0.8125-1.55518-1.12354l-0.0508-0.0127-0.43799-0.0889q-1.00927-0.19678-1.47265-0.66015-0.46338-0.46973-0.46338-1.27588 0-1.02198 0.69189-1.57422 0.6919-0.5586 1.97412-0.5586 0.57129 0 1.09815 0.10791 0.52685 0.10157 1.03467 0.31104z" fill="#1e90ff"/><path d="m313.2915 483.99902v-7.74414h7.75049v7.74414z" fill="#fff"/><path d="m335.33057 474.35059v1.30127q-0.58399-0.37452-1.17432-0.56495-0.58398-0.19043-1.18066-0.19043-0.90772 0-1.43457 0.4253-0.52686 0.41894-0.52686 1.13623 0 0.62842 0.34277 0.95849 0.34912 0.33008 1.29493 0.55225l0.67285 0.15234q1.333 0.31104 1.94238 0.97754 0.60937 0.66651 0.60937 1.81543 0 1.35205-0.83789 2.06299t-2.4375 0.71094q-0.6665 0-1.33935-0.146-0.67285-0.13965-1.35205-0.42529v-1.36475q0.72998 0.46338 1.37744 0.6792 0.65381 0.21582 1.31396 0.21582 0.9712 0 1.51075-0.43164 0.53955-0.43799 0.53955-1.21875 0-0.71094-0.37451-1.08545-0.36817-0.37451-1.28858-0.57763l-0.68555-0.1587q-1.32031-0.29834-1.91699-0.90136-0.59668-0.60303-0.59668-1.61865 0-1.26954 0.85059-2.03125 0.85693-0.76807 2.27246-0.76807 0.5459 0 1.14893 0.12695 0.60302 0.12061 1.26953 0.36817zm2.64062 6.46191v-4.40527h1.16797v4.40527q0 0.9585 0.33643 1.40918 0.34277 0.45068 1.05371 0.45068 0.82519 0 1.26318-0.57763 0.43799-0.58399 0.43799-1.66944v-4.01806h1.17432v7.09668h-1.17432v-1.06641q-0.31104 0.61572-0.85059 0.93311-0.5332 0.31738-1.25049 0.31738-1.09179 0-1.625-0.71094-0.5332-0.71728-0.5332-2.16455zm13.92041-2.95166q-0.37451-0.29199-0.76172-0.42529-0.3872-0.1333-0.85058-0.1333-1.0918 0-1.66944 0.68554-0.57763 0.68555-0.57763 1.98047v3.53565h-1.17432v-7.10938h1.17432v1.39014q0.29199-0.75537 0.89502-1.15528 0.60937-0.40625 1.44091-0.40625 0.43164 0 0.80616 0.10791 0.37451 0.10791 0.71728 0.33643zm1.12988-1.46631h1.21241l2.06298 5.9668 2.06934-5.9668h1.2124l-2.52636 7.10938h-1.5044zm8.8169 0h2.98974v6.20166h2.3169v0.90772h-5.80176v-0.90772h2.3169v-5.29394h-1.82178zm1.82178-2.76758h1.16796v1.47901h-1.16796zm5.01464 2.76758h1.21241l2.06299 5.9668 2.06933-5.9668h1.2124l-2.52636 7.10938h-1.5044zm11.10206 0.81885q-0.88868 0-1.34571 0.69189-0.45703 0.6919-0.45703 2.0503 0 1.35205 0.45703 2.05029 0.45703 0.69189 1.34571 0.69189 0.89501 0 1.35205-0.69189 0.45703-0.69824 0.45703-2.05029 0-1.3584-0.45703-2.0503-0.45704-0.69189-1.35205-0.69189zm0-0.99024q1.479 0 2.25976 0.9585 0.78711 0.9585 0.78711 2.77393 0 1.82177-0.78076 2.78027-0.78076 0.95215-2.26611 0.95215-1.47901 0-2.25977-0.95215-0.78076-0.9585-0.78076-2.78027 0-1.81543 0.78076-2.77393t2.25977-0.9585zm11.24804 1.6377q-0.37451-0.29199-0.76172-0.42529-0.3872-0.1333-0.85058-0.1333-1.0918 0-1.66944 0.68554-0.57763 0.68555-0.57763 1.98047v3.53565h-1.17432v-7.10938h1.17432v1.39014q0.29199-0.75537 0.89502-1.15528 0.60937-0.40625 1.44091-0.40625 0.43165 0 0.80616 0.10791t0.71728 0.33643z" fill="#1e90ff"/><path d="m399.38477 483.99902v-7.74414h7.75048v7.74414z" fill="#ffff73"/><path d="m415.5459 474.02686h1.71387l1.63769 4.82421 1.65039-4.82421h1.72022v9.47705h-1.18702v-8.37256l-1.68847 4.9956h-0.97119l-1.69483-4.9956v8.37256h-1.18066zm11.19092 3.18652q-0.88868 0-1.34571 0.69189-0.45703 0.6919-0.45703 2.0503 0 1.35205 0.45703 2.05029 0.45703 0.69189 1.34571 0.69189 0.89502 0 1.35205-0.69189 0.45703-0.69824 0.45703-2.05029 0-1.3584-0.45703-2.0503-0.45703-0.69189-1.35205-0.69189zm0-0.99024q1.479 0 2.25976 0.9585 0.78711 0.9585 0.78711 2.77393 0 1.82177-0.78076 2.78027-0.78076 0.95215-2.26611 0.95215-1.47901 0-2.25977-0.95215-0.78076-0.9585-0.78076-2.78027 0-1.81543 0.78076-2.77393t2.25977-0.9585zm10.58789 2.87549v4.40528h-1.17432v-4.40528q0-0.95849-0.33643-1.40918-0.33642-0.45068-1.05371-0.45068-0.81884 0-1.26318 0.58398-0.43799 0.57764-0.43799 1.66309v4.01807h-1.16797v-7.10938h1.16797v1.06641q0.31104-0.60938 0.84424-0.92041 0.5332-0.31739 1.26318-0.31739 1.08545 0 1.61866 0.71729 0.53955 0.71094 0.53955 2.1582zm2.65332-5.47168h1.20605v5.71924l3.06592-2.95166h1.42187l-2.79931 2.67871 3.2373 4.43067h-1.42822l-2.62793-3.66895-0.86963 0.81885v2.8501h-1.20605z" fill="#1e90ff"/><path d="m454.17139 483.99902v-7.74414h7.75048v7.74414z" fill="#ff7373"/><path d="m470.65625 474.02686h1.28857v3.88476h3.51026v-3.88476h1.28857v9.47705h-1.28857v-4.51319h-3.51026v4.51319h-1.28857zm8.19482 6.78564v-4.40527h1.16797v4.40527q0 0.9585 0.33643 1.40918 0.34277 0.45068 1.05371 0.45068 0.82519 0 1.26318-0.57763 0.43799-0.58399 0.43799-1.66944v-4.01806h1.17432v7.09668h-1.17432v-1.06641q-0.31103 0.61572-0.85058 0.93311-0.53321 0.31738-1.25049 0.31738-1.0918 0-1.625-0.71094-0.53321-0.71728-0.53321-2.16455zm13.26026-1.71387v4.40528h-1.17432v-4.40528q0-0.95849-0.33642-1.40918-0.33643-0.45068-1.05372-0.45068-0.81884 0-1.26318 0.58398-0.43799 0.57764-0.43799 1.66309v4.01807h-1.16797v-7.10938h1.16797v1.06641q0.31104-0.60938 0.84424-0.92041 0.5332-0.31739 1.26318-0.31739 1.08545 0 1.61866 0.71729 0.53955 0.71094 0.53955 2.1582zm5.05273-4.72265v2.01855h2.65332v0.90772h-2.65332v3.85937q0 0.78711 0.29834 1.09815 0.29834 0.31103 1.04102 0.31103h1.31396v0.93311h-1.42822q-1.31396 0-1.85352-0.52686-0.53955-0.52685-0.53955-1.81543v-3.85937h-1.89795v-0.90772h1.89795v-2.01855zm10.9878 5.28125v0.57129h-5.05909v0.0381q0 1.16162 0.60303 1.79639 0.60938 0.63476 1.71387 0.63476 0.55859 0 1.16797-0.17773 0.60937-0.17773 1.30127-0.53955v1.16162q-0.66651 0.27295-1.28858 0.40625-0.61572 0.13965-1.19336 0.13965-1.65674 0-2.58984-0.99024-0.93311-0.99658-0.93311-2.74218 0-1.70118 0.91407-2.7168 0.91406-1.01563 2.4375-1.01563 1.35839 0 2.13916 0.92041 0.78711 0.92041 0.78711 2.51368zm-1.16797-0.34278q-0.0254-1.02832-0.48877-1.56152-0.45703-0.53955-1.32032-0.53955-0.84423 0-1.39013 0.55859-0.5459 0.5586-0.64746 1.54883zm9.26757-1.45361q-0.37451-0.29199-0.76171-0.42529-0.38721-0.1333-0.85059-0.1333-1.0918 0-1.66943 0.68554-0.57764 0.68555-0.57764 1.98047v3.53565h-1.17432v-7.10938h1.17432v1.39014q0.29199-0.75537 0.89502-1.15528 0.60937-0.40625 1.44092-0.40625 0.43164 0 0.80615 0.10791t0.71728 0.33643z" fill="#1e90ff"/><path d="m524.61133 483.99902v-7.74414h7.75049v7.74414z" fill="#f0c097"/><path d="m547.23437 482.72314q-0.51416 0.47608-1.16162 0.72364-0.64111 0.24121-1.39013 0.24121-1.80274 0-2.80567-1.28858-1.00293-1.29492-1.00293-3.62451 0-2.32324 1.01563-3.61816 1.01562-1.30127 2.82471-1.30127 0.59668 0 1.14257 0.17139 0.5459 0.16503 1.05371 0.50781v1.31396q-0.51416-0.48877-1.05371-0.71728-0.53955-0.23487-1.14257-0.23487-1.25049 0-1.87891 0.9712-0.62207 0.96484-0.62207 2.90722 0 1.97412 0.60303 2.92627 0.60937 0.9458 1.86621 0.9458 0.42529 0 0.74267-0.0952 0.32373-0.10156 0.58399-0.31104v-2.54541h-1.37744v-1.05371h2.60253zm4.72901-5.50976q-0.88867 0-1.3457 0.69189-0.45704 0.6919-0.45704 2.0503 0 1.35205 0.45704 2.05029 0.45703 0.69189 1.3457 0.69189 0.89502 0 1.35205-0.69189 0.45703-0.69824 0.45703-2.05029 0-1.3584-0.45703-2.0503-0.45703-0.69189-1.35205-0.69189zm0-0.99024q1.479 0 2.25976 0.9585 0.78711 0.9585 0.78711 2.77393 0 1.82177-0.78076 2.78027-0.78076 0.95215-2.26611 0.95215-1.47901 0-2.25977-0.95215-0.78076-0.9585-0.78076-2.78027 0-1.81543 0.78076-2.77393t2.25977-0.9585zm5.1543 4.58936v-4.40527h1.16796v4.40527q0 0.9585 0.33643 1.40918 0.34277 0.45068 1.05371 0.45068 0.8252 0 1.26318-0.57763 0.43799-0.58399 0.43799-1.66944v-4.01806h1.17432v7.09668h-1.17432v-1.06641q-0.31103 0.61572-0.85058 0.93311-0.53321 0.31738-1.25049 0.31738-1.0918 0-1.625-0.71094-0.5332-0.71728-0.5332-2.16455zm13.92041-2.95166q-0.37452-0.29199-0.76172-0.42529-0.38721-0.1333-0.85059-0.1333-1.0918 0-1.66943 0.68554-0.57764 0.68555-0.57764 1.98047v3.53565h-1.17432v-7.10938h1.17432v1.39014q0.29199-0.75537 0.89502-1.15528 0.60938-0.40625 1.44092-0.40625 0.43164 0 0.80615 0.10791t0.71729 0.33643zm4.78613-0.74268q0.21582-0.45703 0.5459-0.67285 0.33642-0.22217 0.80615-0.22217 0.85693 0 1.20605 0.66651 0.35547 0.66015 0.35547 2.49463v4.11963h-1.0664v-4.06885q0-1.5044-0.17139-1.86621-0.16504-0.36817-0.60938-0.36817-0.50781 0-0.69824 0.39356-0.18408 0.38721-0.18408 1.84082v4.06885h-1.06641v-4.06885q0-1.52344-0.18408-1.87891-0.17773-0.35547-0.64746-0.35547-0.46338 0-0.64746 0.39356-0.17773 0.38721-0.17773 1.84082v4.06885h-1.06006v-7.10938h1.06006v0.60938q0.20947-0.38086 0.5205-0.57764 0.31739-0.20313 0.71729-0.20313 0.48242 0 0.7998 0.22217 0.32373 0.22217 0.50147 0.67285zm7.9917 2.81202h-0.38721q-1.02197 0-1.54248 0.36181-0.51416 0.35547-0.51416 1.06641 0 0.64111 0.38721 0.99658 0.3872 0.35547 1.07275 0.35547 0.96484 0 1.51709-0.6665 0.55225-0.67286 0.55859-1.85352v-0.26025zm2.26611-0.48243v4.05616h-1.17432v-1.05371q-0.37451 0.63476-0.9458 0.93945-0.56494 0.29834-1.37744 0.29834-1.08545 0-1.73291-0.60938-0.64746-0.61572-0.64746-1.64404 0-1.18701 0.79346-1.80273 0.7998-0.61573 2.34228-0.61573h1.56787v-0.18408q-6e-3 -0.85058-0.43164-1.23144-0.42529-0.38721-1.35839-0.38721-0.59668 0-1.20606 0.17139-0.60937 0.17138-1.18701 0.50146v-1.16797q0.64746-0.24756 1.23779-0.36816 0.59668-0.12696 1.15528-0.12696 0.88232 0 1.50439 0.26026 0.62842 0.26025 1.01563 0.78076 0.24121 0.31738 0.34277 0.78711 0.10156 0.46338 0.10156 1.39648zm7.77588-0.34912v4.40528h-1.17432v-4.40528q0-0.95849-0.33642-1.40918-0.33643-0.45068-1.05371-0.45068-0.81885 0-1.26319 0.58398-0.43798 0.57764-0.43798 1.66309v4.01807h-1.16797v-7.10938h1.16797v1.06641q0.31103-0.60938 0.84423-0.92041 0.53321-0.31739 1.26319-0.31739 1.08545 0 1.61865 0.71729 0.53955 0.71094 0.53955 2.1582zm6.60156-1.79638v-3.6753h1.16797v9.87696h-1.16797v-0.89502q-0.29199 0.52685-0.78076 0.80615-0.48242 0.27295-1.11719 0.27295-1.28857 0-2.03125-0.99658-0.73632-1.00293-0.73632-2.76123 0-1.73291 0.74267-2.7168 0.74268-0.99024 2.0249-0.99024 0.64112 0 1.12989 0.2793 0.48877 0.27295 0.76806 0.79981zm-3.43408 2.65332q0 1.35839 0.43164 2.05029 0.43164 0.69189 1.27588 0.69189t1.28223-0.69824q0.44433-0.69824 0.44433-2.04394 0-1.35205-0.44433-2.04395-0.43799-0.69824-1.28223-0.69824t-1.27588 0.69189q-0.43164 0.6919-0.43164 2.0503z" fill="#1e90ff"/><path d="m610.70459 483.99902v-7.74414h7.75049v7.74414z" fill="#70223b"/><path d="m630.22998 475.15674-1.35205 4.84961h2.7041zm-0.77441-1.12988h1.55517l2.90088 9.47705h-1.32666l-0.69824-2.46924h-3.31983l-0.68554 2.46924h-1.32666zm12.02246 3.83398q-0.37451-0.29199-0.76172-0.42529t-0.85059-0.1333q-1.09179 0-1.66943 0.68554-0.57764 0.68555-0.57764 1.98047v3.53565h-1.17431v-7.10938h1.17431v1.39014q0.29199-0.75537 0.89502-1.15528 0.60938-0.40625 1.44092-0.40625 0.43164 0 0.80615 0.10791t0.71729 0.33643zm4.39258-3.48486v2.01855h2.65332v0.90772h-2.65332v3.85937q0 0.78711 0.29834 1.09815 0.29834 0.31103 1.04101 0.31103h1.31397v0.93311h-1.42823q-1.31396 0-1.85351-0.52686-0.53955-0.52685-0.53955-1.81543v-3.85937h-1.89795v-0.90772h1.89795v-2.01855zm5.55419 2.01855h2.98975v6.20166h2.3169v0.90772h-5.80176v-0.90772h2.31689v-5.29394h-1.82178zm1.82178-2.76758h1.16797v1.47901h-1.16797zm11.12744 0v0.97119h-1.32666q-0.62841 0-0.87597 0.26026-0.24121 0.2539-0.24121 0.90771v0.62842h2.44384v0.90772h-2.44384v6.20166h-1.16797v-6.20166h-1.89795v-0.90772h1.89795v-0.49512q0-1.16796 0.5332-1.72021 0.53955-0.55225 1.67578-0.55225zm2.7041 2.76758h2.98975v6.20166h2.3169v0.90772h-5.80176v-0.90772h2.31689v-5.29394h-1.82178zm1.82178-2.76758h1.16797v1.47901h-1.16797zm11.11475 9.51514q-0.46973 0.27295-0.97119 0.40625-0.49512 0.13965-1.01563 0.13965-1.65039 0-2.58349-0.99024-0.92676-0.99023-0.92676-2.74218 0-1.75196 0.92676-2.74219 0.9331-0.99024 2.58349-0.99024 0.51416 0 1.00293 0.13331 0.48877 0.1333 0.98389 0.41259v1.2251q-0.46338-0.4126-0.93311-0.59668-0.46338-0.18408-1.05371-0.18408-1.09814 0-1.68847 0.71094-0.59034 0.71093-0.59034 2.03125 0 1.31396 0.59034 2.03125 0.59668 0.71093 1.68847 0.71093 0.60938 0 1.0918-0.18408 0.48242-0.19043 0.89502-0.58398zm8.15039-3.48486v0.57129h-5.05908v0.0381q0 1.16162 0.60302 1.79639 0.60938 0.63476 1.71387 0.63476 0.5586 0 1.16797-0.17773 0.60938-0.17773 1.30127-0.53955v1.16162q-0.6665 0.27295-1.28857 0.40625-0.61573 0.13965-1.19336 0.13965-1.65674 0-2.58985-0.99024-0.9331-0.99658-0.9331-2.74218 0-1.70118 0.91406-2.7168 0.91406-1.01563 2.4375-1.01563 1.3584 0 2.13916 0.92041 0.78711 0.92041 0.78711 2.51368zm-1.16797-0.34278q-0.0254-1.02832-0.48877-1.56152-0.45703-0.53955-1.32031-0.53955-0.84424 0-1.39014 0.55859-0.5459 0.5586-0.64746 1.54883zm9.26758-1.45361q-0.37451-0.29199-0.76172-0.42529t-0.85059-0.1333q-1.09179 0-1.66943 0.68554-0.57764 0.68555-0.57764 1.98047v3.53565h-1.17431v-7.10938h1.17431v1.39014q0.292-0.75537 0.89502-1.15528 0.60938-0.40625 1.44092-0.40625 0.43164 0 0.80615 0.10791t0.71729 0.33643z" fill="#1e90ff"/><path d="m704.62451 483.99902v-7.74414h7.75049v7.74414z" fill="#91ccf0"/><path d="m725.06396 479.02881q0.49512 0.12695 0.84424 0.48242 0.34912 0.34912 0.86963 1.40283l1.28858 2.58985h-1.37745l-1.12988-2.39307q-0.48877-1.02197-0.88232-1.31397-0.38721-0.29833-1.01563-0.29833h-1.22509v4.00537h-1.28858v-9.47705h2.64063q1.56152 0 2.39306 0.70459 0.83155 0.70459 0.83155 2.03759 0 0.93946-0.51416 1.53614-0.50782 0.59033-1.43458 0.72363zm-2.62792-3.94824v3.36425h1.40283q0.92041 0 1.37109-0.41259 0.45068-0.4126 0.45068-1.26319 0-0.81884-0.48242-1.25049-0.47607-0.43798-1.39013-0.43798zm7.25537 1.31396h2.98974v6.20166h2.3169v0.90772h-5.80176v-0.90772h2.31689v-5.29394h-1.82177zm1.82177-2.76758h1.16797v1.47901h-1.16797zm5.01465 2.76758h1.2124l2.06299 5.9668 2.06934-5.9668h1.2124l-2.52637 7.10938h-1.50439zm8.42969 4.41797v-4.40527h1.16797v4.40527q0 0.9585 0.33642 1.40918 0.34278 0.45068 1.05371 0.45068 0.8252 0 1.26319-0.57763 0.43799-0.58399 0.43799-1.66944v-4.01806h1.17431v7.09668h-1.17431v-1.06641q-0.31104 0.61572-0.85059 0.93311-0.5332 0.31738-1.25049 0.31738-1.09179 0-1.625-0.71094-0.5332-0.71728-0.5332-2.16455zm10.64502 0.11426q0 0.78711 0.28564 1.18701 0.292 0.3999 0.85694 0.3999h1.36474v0.99024h-1.479q-1.04736 0-1.625-0.67286-0.57129-0.67285-0.57129-1.90429v-6.45557h-1.87256v-0.91406h3.04053zm10.8291-1.26953v0.57129h-5.05908v0.0381q0 1.16162 0.60303 1.79639 0.60937 0.63476 1.71386 0.63476 0.5586 0 1.16797-0.17773 0.60938-0.17773 1.30127-0.53955v1.16162q-0.6665 0.27295-1.28857 0.40625-0.61573 0.13965-1.19336 0.13965-1.65674 0-2.58985-0.99024-0.9331-0.99658-0.9331-2.74218 0-1.70118 0.91406-2.7168 0.91406-1.01563 2.4375-1.01563 1.3584 0 2.13916 0.92041 0.78711 0.92041 0.78711 2.51368zm-1.16797-0.34278q-0.0254-1.02832-0.48877-1.56152-0.45703-0.53955-1.32031-0.53955-0.84424 0-1.39014 0.55859-0.5459 0.5586-0.64746 1.54883zm5.8335-4.93847v2.01855h2.65332v0.90772h-2.65332v3.85937q0 0.78711 0.29834 1.09815 0.29834 0.31103 1.04101 0.31103h1.31397v0.93311h-1.42822q-1.31397 0-1.85352-0.52686-0.53955-0.52685-0.53955-1.81543v-3.85937h-1.89795v-0.90772h1.89795v-2.01855z" fill="#1e90ff"/><path d="m314.61816 500.24902v-7.74414h7.75049v7.74414z" fill="#4f2d68"/><path d="m336.65723 490.60059v1.30127q-0.58399-0.37452-1.17432-0.56495-0.58398-0.19043-1.18066-0.19043-0.90772 0-1.43457 0.4253-0.52686 0.41894-0.52686 1.13623 0 0.62842 0.34277 0.95849 0.34912 0.33008 1.29493 0.55225l0.67285 0.15234q1.333 0.31104 1.94238 0.97754 0.60937 0.66651 0.60937 1.81543 0 1.35205-0.83789 2.06299t-2.4375 0.71094q-0.6665 0-1.33935-0.146-0.67285-0.13965-1.35205-0.42529v-1.36475q0.72998 0.46338 1.37744 0.6792 0.65381 0.21582 1.31396 0.21582 0.9712 0 1.51075-0.43164 0.53955-0.43799 0.53955-1.21875 0-0.71094-0.37451-1.08545-0.36817-0.37451-1.28858-0.57763l-0.68555-0.1587q-1.32031-0.29834-1.91699-0.90136-0.59668-0.60303-0.59668-1.61865 0-1.26954 0.85059-2.03125 0.85693-0.76807 2.27246-0.76807 0.5459 0 1.14893 0.12695 0.60302 0.12061 1.26953 0.36817zm3.7832 8.2583v3.59912h-1.17432v-9.81348h1.17432v0.90772q0.29199-0.52686 0.77441-0.79981 0.48877-0.2793 1.12354-0.2793 1.28857 0 2.01855 0.99659 0.73633 0.99658 0.73633 2.76123 0 1.73291-0.73633 2.72314-0.73632 0.98389-2.01855 0.98389-0.64746 0-1.13623-0.27295-0.48242-0.2793-0.76172-0.80615zm3.42773-2.65332q0-1.3584-0.43164-2.0503-0.42529-0.69189-1.26953-0.69189-0.85058 0-1.28857 0.69824-0.43799 0.6919-0.43799 2.04395 0 1.3457 0.43799 2.04394t1.28857 0.69824q0.84424 0 1.26953-0.69189 0.43164-0.6919 0.43164-2.05029zm9.07715-0.29834v0.57129h-5.05908v0.0381q0 1.16162 0.60303 1.79639 0.60937 0.63476 1.71386 0.63476 0.5586 0 1.16797-0.17773 0.60938-0.17773 1.30127-0.53955v1.16162q-0.6665 0.27295-1.28857 0.40625-0.61572 0.13965-1.19336 0.13965-1.65674 0-2.58984-0.99024-0.93311-0.99658-0.93311-2.74218 0-1.70118 0.91406-2.7168 0.91407-1.01563 2.4375-1.01563 1.3584 0 2.13916 0.92041 0.78711 0.92041 0.78711 2.51368zm-1.16797-0.34278q-0.0254-1.02832-0.48877-1.56152-0.45703-0.53955-1.32031-0.53955-0.84424 0-1.39014 0.55859-0.54589 0.5586-0.64746 1.54883zm6.39209 0.61573h-0.3872q-1.02198 0-1.54248 0.36181-0.51416 0.35547-0.51416 1.06641 0 0.64111 0.3872 0.99658 0.38721 0.35547 1.07276 0.35547 0.96484 0 1.51709-0.6665 0.55224-0.67286 0.55859-1.85352v-0.26025zm2.26612-0.48243v4.05616h-1.17432v-1.05371q-0.37451 0.63476-0.9458 0.93945-0.56494 0.29834-1.37744 0.29834-1.08545 0-1.73291-0.60938-0.64746-0.61572-0.64746-1.64404 0-1.18701 0.79345-1.80273 0.79981-0.61573 2.34229-0.61573h1.56787v-0.18408q-6e-3 -0.85058-0.43164-1.23144-0.42529-0.38721-1.3584-0.38721-0.59668 0-1.20605 0.17139-0.60938 0.17138-1.18702 0.50146v-1.16797q0.64747-0.24756 1.2378-0.36816 0.59668-0.12696 1.15527-0.12696 0.88233 0 1.5044 0.26026 0.62841 0.26025 1.01562 0.78076 0.24121 0.31738 0.34277 0.78711 0.10157 0.46338 0.10157 1.39648zm8.43603-1.58691q-0.37451-0.29199-0.76172-0.42529-0.3872-0.1333-0.85058-0.1333-1.0918 0-1.66944 0.68554-0.57763 0.68555-0.57763 1.98047v3.53565h-1.17432v-7.10938h1.17432v1.39014q0.29199-0.75537 0.89502-1.15528 0.60937-0.40625 1.44091-0.40625 0.43165 0 0.80616 0.10791t0.71728 0.33643zm4.78613-0.74268q0.21583-0.45703 0.5459-0.67285 0.33643-0.22217 0.80616-0.22217 0.85693 0 1.20605 0.66651 0.35547 0.66015 0.35547 2.49463v4.11963h-1.06641v-4.06885q0-1.5044-0.17138-1.86621-0.16504-0.36817-0.60938-0.36817-0.50781 0-0.69824 0.39356-0.18408 0.38721-0.18408 1.84082v4.06885h-1.06641v-4.06885q0-1.52344-0.18408-1.87891-0.17774-0.35547-0.64746-0.35547-0.46338 0-0.64746 0.39356-0.17774 0.38721-0.17774 1.84082v4.06885h-1.06006v-7.10938h1.06006v0.60938q0.20947-0.38086 0.52051-0.57764 0.31738-0.20313 0.71729-0.20313 0.48242 0 0.7998 0.22217 0.32373 0.22217 0.50146 0.67285zm7.9917 2.81202h-0.3872q-1.02198 0-1.54248 0.36181-0.51416 0.35547-0.51416 1.06641 0 0.64111 0.3872 0.99658 0.38721 0.35547 1.07276 0.35547 0.96484 0 1.51709-0.6665 0.55224-0.67286 0.55859-1.85352v-0.26025zm2.26612-0.48243v4.05616h-1.17432v-1.05371q-0.37451 0.63476-0.9458 0.93945-0.56494 0.29834-1.37744 0.29834-1.08545 0-1.73291-0.60938-0.64746-0.61572-0.64746-1.64404 0-1.18701 0.79345-1.80273 0.79981-0.61573 2.34229-0.61573h1.56787v-0.18408q-6e-3 -0.85058-0.43164-1.23144-0.42529-0.38721-1.3584-0.38721-0.59668 0-1.20605 0.17139-0.60938 0.17138-1.18701 0.50146v-1.16797q0.64746-0.24756 1.23779-0.36816 0.59668-0.12696 1.15527-0.12696 0.88233 0 1.5044 0.26026 0.62841 0.26025 1.01562 0.78076 0.24121 0.31738 0.34277 0.78711 0.10157 0.46338 0.10157 1.39648zm7.28076-2.80566v1.14258q-0.50147-0.29199-1.00928-0.43799t-1.03467-0.146q-0.79345 0-1.18701 0.26026-0.38721 0.2539-0.38721 0.78076 0 0.47607 0.292 0.71094 0.29199 0.23486 1.45361 0.45703l0.46973 0.0889q0.86963 0.16503 1.31396 0.66015 0.45069 0.49512 0.45069 1.28858 0 1.05371-0.74903 1.65039-0.74902 0.59033-2.08203 0.59033-0.52685 0-1.10449-0.11426-0.57764-0.10791-1.25049-0.33008v-1.20605q0.65381 0.33642 1.25049 0.50781 0.59668 0.16504 1.12988 0.16504 0.77442 0 1.19971-0.31104 0.42529-0.31738 0.42529-0.88232 0-0.8125-1.55517-1.12354l-0.0508-0.0127-0.43798-0.0889q-1.00928-0.19678-1.47266-0.66015-0.46338-0.46973-0.46338-1.27588 0-1.02198 0.6919-1.57422 0.69189-0.5586 1.97412-0.5586 0.57129 0 1.09814 0.10791 0.52686 0.10157 1.03467 0.31104zm5.54785-2.26611v2.01855h2.65332v0.90772h-2.65332v3.85937q0 0.78711 0.29834 1.09815 0.29834 0.31103 1.04102 0.31103h1.31396v0.93311h-1.42822q-1.31397 0-1.85352-0.52686-0.53955-0.52685-0.53955-1.81543v-3.85937h-1.89795v-0.90772h1.89795v-2.01855zm10.98779 5.28125v0.57129h-5.05908v0.0381q0 1.16162 0.60303 1.79639 0.60937 0.63476 1.71387 0.63476 0.55859 0 1.16796-0.17773 0.60938-0.17773 1.30127-0.53955v1.16162q-0.6665 0.27295-1.28857 0.40625-0.61572 0.13965-1.19336 0.13965-1.65674 0-2.58984-0.99024-0.93311-0.99658-0.93311-2.74218 0-1.70118 0.91406-2.7168 0.91407-1.01563 2.4375-1.01563 1.3584 0 2.13916 0.92041 0.78711 0.92041 0.78711 2.51368zm-1.16797-0.34278q-0.0254-1.02832-0.48876-1.56152-0.45704-0.53955-1.32032-0.53955-0.84424 0-1.39013 0.55859-0.5459 0.5586-0.64746 1.54883zm9.26758-1.45361q-0.37451-0.29199-0.76172-0.42529-0.3872-0.1333-0.85058-0.1333-1.0918 0-1.66944 0.68554-0.57763 0.68555-0.57763 1.98047v3.53565h-1.17432v-7.10938h1.17432v1.39014q0.29199-0.75537 0.89502-1.15528 0.60937-0.40625 1.44092-0.40625 0.43164 0 0.80615 0.10791t0.71728 0.33643z" fill="#1e90ff"/><path d="m424.19141 500.24902v-7.74414h7.75048v7.74414z" fill="#aaf155"/><path d="m446.23047 490.60059v1.30127q-0.58399-0.37452-1.17432-0.56495-0.58398-0.19043-1.18066-0.19043-0.90772 0-1.43457 0.4253-0.52686 0.41894-0.52686 1.13623 0 0.62842 0.34278 0.95849 0.34912 0.33008 1.29492 0.55225l0.67285 0.15234q1.33301 0.31104 1.94238 0.97754 0.60938 0.66651 0.60938 1.81543 0 1.35205-0.83789 2.06299t-2.4375 0.71094q-0.66651 0-1.33936-0.146-0.67285-0.13965-1.35205-0.42529v-1.36475q0.72998 0.46338 1.37744 0.6792 0.65381 0.21582 1.31397 0.21582 0.97119 0 1.51074-0.43164 0.53955-0.43799 0.53955-1.21875 0-0.71094-0.37451-1.08545-0.36817-0.37451-1.28858-0.57763l-0.68554-0.1587q-1.32032-0.29834-1.917-0.90136-0.59668-0.60303-0.59668-1.61865 0-1.26954 0.85059-2.03125 0.85693-0.76807 2.27246-0.76807 0.5459 0 1.14893 0.12695 0.60302 0.12061 1.26953 0.36817zm5.85889 5.57959h-0.38721q-1.02197 0-1.54248 0.36181-0.51416 0.35547-0.51416 1.06641 0 0.64111 0.3872 0.99658 0.38721 0.35547 1.07276 0.35547 0.96484 0 1.51709-0.6665 0.55224-0.67286 0.55859-1.85352v-0.26025zm2.26611-0.48243v4.05616h-1.17432v-1.05371q-0.37451 0.63476-0.9458 0.93945-0.56494 0.29834-1.37744 0.29834-1.08545 0-1.73291-0.60938-0.64746-0.61572-0.64746-1.64404 0-1.18701 0.79346-1.80273 0.7998-0.61573 2.34228-0.61573h1.56787v-0.18408q-6e-3 -0.85058-0.43164-1.23144-0.42529-0.38721-1.3584-0.38721-0.59668 0-1.20605 0.17139-0.60938 0.17138-1.18701 0.50146v-1.16797q0.64746-0.24756 1.23779-0.36816 0.59668-0.12696 1.15527-0.12696 0.88233 0 1.5044 0.26026 0.62842 0.26025 1.01562 0.78076 0.24121 0.31738 0.34278 0.78711 0.10156 0.46338 0.10156 1.39648zm2.72949-3.05322h2.98975v6.20166h2.31689v0.90772h-5.80176v-0.90772h2.3169v-5.29394h-1.82178zm1.82178-2.76758h1.16797v1.47901h-1.16797zm11.05127 5.47168v4.40528h-1.17432v-4.40528q0-0.95849-0.33642-1.40918-0.33643-0.45068-1.05372-0.45068-0.81884 0-1.26318 0.58398-0.43799 0.57764-0.43799 1.66309v4.01807h-1.16797v-7.10938h1.16797v1.06641q0.31104-0.60938 0.84424-0.92041 0.5332-0.31739 1.26318-0.31739 1.08545 0 1.61866 0.71729 0.53955 0.71094 0.53955 2.1582zm5.05273-4.72265v2.01855h2.65332v0.90772h-2.65332v3.85937q0 0.78711 0.29834 1.09815 0.29834 0.31103 1.04102 0.31103h1.31396v0.93311h-1.42822q-1.31397 0-1.85352-0.52686-0.53955-0.52685-0.53955-1.81543v-3.85937h-1.89795v-0.90772h1.89795v-2.01855z" fill="#1e90ff"/><path d="m486.80469 500.24902v-7.74414h7.75049v7.74414z" fill="#16234f"/><path d="m515.28662 492.90479q-0.24756-0.0127-0.4126-0.0127-1.11084 0-3.1167 0.38721 0.20313 0.5205 0.20313 0.97754 0 0.61572-0.29834 1.08545-0.34912 0.5332-0.93311 0.5332-0.35546 0-0.55224-0.40625-0.15869-0.32373-0.15869-0.72363 0-0.52686 0.2666-0.87598 0.20947 0.45068 0.55224 0.60303 0.4253-0.39991 0.57764-1.12989-1.15527 0.23487-2.48193 0.59668-0.12061 0.4253-0.12061 0.85059 0 0.91406 0.48877 1.47266 0.51416 0.58398 1.41553 0.58398 0.56494 0 1.02832-0.29834 0.29834-0.19043 0.80615-0.71729 0.12695-0.1333 0.43164-0.37451-6e-3 0.97754-0.86963 1.69483-0.81884 0.6792-1.82177 0.6792-0.92041 0-1.57422-0.53321-0.69825-0.57763-0.69825-1.479 0-1.05371 0.46338-1.75195-2.36132 0.67285-4.20214 1.42822 0.45703 0.79346 1.96142 1.63769 1.2251 0.68555 2.41211 1.05372 1.0918 0.33642 1.92334 0.33642 0.26025 0 0.77441-0.0635 0.51416-0.0698 0.76807-0.0698 0.12061 0 0.22852 0.0571-0.19678 0.34277-0.93311 0.55225-0.59033 0.17138-1.11719 0.17138-2.10742 0-4.37988-1.07275-2.48193-1.17432-3.36426-2.88819 3.37696-1.78369 8.88037-2.64697 1.29493-0.20312 2.1836-0.20312 1.38379 0 1.66943 0.5459z" fill="#1e90ff"/></g></g></svg>