<?xml version="1.0"?>
<svg xmlns="http://www.w3.org/2000/svg" xmlns:xlink="http://www.w3.org/1999/xlink" class="plot-d6a7b5" fill="currentColor" font-family="system-ui, sans-serif" font-size="10" text-anchor="middle" width="830" height="470" viewBox="0 0 830 470" color="#1e90ff">
  <style>:where(.plot-d6a7b5){--plot-background: white;display:block;height:intrinsic;max-width:100%}:where(.plot-d6a7b5 text),:where(.plot-d6a7b5 tspan){white-space:pre}</style>
  <g aria-label="y-grid" stroke="currentColor" stroke-opacity=".1">
    <line x1="60" x2="770" y1="410" y2="410"/>
    <line x1="60" x2="770" y1="360.939" y2="360.939"/>
    <line x1="60" x2="770" y1="311.878" y2="311.878"/>
    <line x1="60" x2="770" y1="262.817" y2="262.817"/>
    <line x1="60" x2="770" y1="213.757" y2="213.757"/>
    <line x1="60" x2="770" y1="164.696" y2="164.696"/>
    <line x1="60" x2="770" y1="115.635" y2="115.635"/>
    <line x1="60" x2="770" y1="66.574" y2="66.574"/>
  </g>
  <g aria-label="y-axis tick" fill="none" stroke="currentColor">
    <path transform="translate(60,410)" d="M0,0L-6,0"/>
    <path transform="translate(60,360.9391645640594)" d="M0,0L-6,0"/>
    <path transform="translate(60,311.8783291281189)" d="M0,0L-6,0"/>
    <path transform="translate(60,262.8174936921783)" d="M0,0L-6,0"/>
    <path transform="translate(60,213.7566582562377)" d="M0,0L-6,0"/>
    <path transform="translate(60,164.69582282029717)" d="M0,0L-6,0"/>
    <path transform="translate(60,115.6349873843566)" d="M0,0L-6,0"/>
    <path transform="translate(60,66.57415194841604)" d="M0,0L-6,0"/>
  </g>
  <g aria-label="y-axis tick label" text-anchor="end" font-variant="tabular-nums">
    <text y=".32em" transform="translate(-9,0) translate(60,410)">0</text>
    <text y=".32em" transform="translate(-9,0) translate(60,360.9391645640594)">1,000</text>
    <text y=".32em" transform="translate(-9,0) translate(60,311.8783291281189)">2,000</text>
    <text y=".32em" transform="translate(-9,0) translate(60,262.8174936921783)">3,000</text>
    <text y=".32em" transform="translate(-9,0) translate(60,213.7566582562377)">4,000</text>
    <text y=".32em" transform="translate(-9,0) translate(60,164.69582282029717)">5,000</text>
    <text y=".32em" transform="translate(-9,0) translate(60,115.6349873843566)">6,000</text>
    <text y=".32em" transform="translate(-9,0) translate(60,66.57415194841604)">7,000</text>
  </g>
  <g aria-label="y-axis label" text-anchor="start">
    <text y=".71em" transform="translate(-57,-57) translate(60,60)">&#x2191; Visible Vestiges (4 days)</text>
  </g>
  <g aria-label="x-axis tick" fill="none" stroke="currentColor">
    <path transform="translate(86.76274944567628,410)" d="M0,0L0,6"/>
    <path transform="translate(158.39246119733923,410)" d="M0,0L0,6"/>
    <path transform="translate(230.80931263858093,410)" d="M0,0L0,6"/>
    <path transform="translate(303.22616407982264,410)" d="M0,0L0,6"/>
    <path transform="translate(374.8558758314856,410)" d="M0,0L0,6"/>
    <path transform="translate(446.4855875831485,410)" d="M0,0L0,6"/>
    <path transform="translate(518.9024390243902,410)" d="M0,0L0,6"/>
    <path transform="translate(591.3192904656319,410)" d="M0,0L0,6"/>
    <path transform="translate(662.1618625277163,410)" d="M0,0L0,6"/>
    <path transform="translate(733.7915742793791,410)" d="M0,0L0,6"/>
  </g>
  <g aria-label="x-axis tick label" font-variant="tabular-nums">
    <text transform="translate(0,9) translate(86.76274944567628,410)">
      <tspan x="0" y=".71em">Apr</tspan>
      <tspan x="0" dy="1em">2023</tspan>
    </text>
    <text y=".71em" transform="translate(0,9) translate(158.39246119733923,410)">Jul</text>
    <text y=".71em" transform="translate(0,9) translate(230.80931263858093,410)">Oct</text>
    <text transform="translate(0,9) translate(303.22616407982264,410)">
      <tspan x="0" y=".71em">Jan</tspan>
      <tspan x="0" dy="1em">2024</tspan>
    </text>
    <text y=".71em" transform="translate(0,9) translate(374.8558758314856,410)">Apr</text>
    <text y=".71em" transform="translate(0,9) translate(446.4855875831485,410)">Jul</text>
    <text y=".71em" transform="translate(0,9) translate(518.9024390243902,410)">Oct</text>
    <text transform="translate(0,9) translate(591.3192904656319,410)">
      <tspan x="0" y=".71em">Jan</tspan>
      <tspan x="0" dy="1em">2025</tspan>
    </text>
    <text y=".71em" transform="translate(0,9) translate(662.1618625277163,410)">Apr</text>
    <text y=".71em" transform="translate(0,9) translate(733.7915742793791,410)">Jul</text>
  </g>
  <g aria-label="line" fill="none" stroke="currentColor" stroke-width="1.5" stroke-linejoin="round" stroke-linecap="round">
    <path d="M60,410L60.525,385.371L61.05,295.296L61.574,246.726L62.099,236.913L62.624,270.177L63.149,274.003L63.673,266.497L64.198,238.434L64.723,216.013L65.248,178.237L65.772,139.626L66.297,90.369L66.822,109.65L67.347,145.66L67.871,202.669L68.396,195.015L68.921,193.445L69.446,192.906L69.97,202.227L70.495,211.5L71.02,182.996L71.545,179.12L72.069,151.989L72.594,189.815L73.119,205.22L73.644,226.905L74.169,195.948L74.693,180.395L75.218,178.089L75.743,172.398L76.268,155.718L76.792,120.05L77.317,109.601L77.842,132.463L78.367,196.683L78.891,250.013L79.416,270.765L79.941,263.21L80.466,242.555L80.99,233.038L81.515,194.623L82.04,149.978L82.565,97.041L83.089,82.862L83.614,111.808L84.139,141.343L84.664,166.756L85.188,169.111L85.713,181.131L86.238,172.595L86.763,152.136L87.288,116.665L87.812,86.689L88.337,60L88.862,86.934L89.387,122.258L89.911,160.378L90.436,147.328L90.961,133.297L91.486,116.518L92.01,104.351L92.535,106.461L93.06,106.362L93.585,107.049L94.109,95.029L94.634,125.006L95.159,147.77L95.684,175.048L96.208,172.791L96.733,182.603L97.258,202.375L97.783,199.333L98.307,182.358L98.832,158.759L99.357,141.883L99.882,161.114L100.407,182.161L100.931,219.055L101.456,234.853L101.981,250.503L102.506,249.718L103.03,224.795L103.555,202.473L104.08,178.482L104.605,176.716L105.129,168.474L105.654,188.785L106.179,212.825L106.704,207.967L107.228,205.613L107.753,211.5L108.278,247.412L108.803,255.802L109.327,231.32L109.852,208.507L110.377,194.329L110.902,192.562L111.426,221.508L111.951,245.744L112.476,262.033L113.001,240.74L113.525,245.793L114.05,248.099L114.575,252.662L115.1,215.327L115.625,195.997L116.149,185.841L116.674,211.549L117.199,223.814L117.724,231.32L118.248,235.638L118.773,238.483L119.298,248.05L119.823,248.345L120.347,235.834L120.872,235.785L121.397,227.69L121.922,239.955L122.446,253.496L122.971,267.527L123.496,274.151L124.021,266.154L124.545,265.712L125.07,267.086L125.595,259.334L126.12,217.829L126.644,195.212L127.169,179.757L127.694,216.897L128.219,223.618L128.744,247.412L129.268,243.438L129.793,262.327L130.318,246.578L130.843,241.623L131.367,218.025L131.892,203.454L132.417,196.34L132.942,200.314L133.466,230.486L133.991,232.105L134.516,239.857L135.041,249.865L135.565,249.718L136.09,261.297L136.615,259.579L137.14,278.174L137.664,273.464L138.189,263.799L138.714,265.761L139.239,263.21L139.763,262.719L140.288,262.817L140.813,267.969L141.338,285.042L141.863,277.438L142.387,269.637L142.912,263.014L143.437,259.825L143.962,265.123L144.486,263.063L145.011,273.366L145.536,272.384L146.061,264.191L146.585,257.813L147.11,261.64L147.635,269.833L148.16,270.569L148.684,274.396L149.209,265.123L149.734,267.675L150.259,255.262L150.783,262.916L151.308,264.093L151.833,284.993L152.358,288.82L152.882,293.824L153.407,272.875L153.932,265.271L154.457,260.414L154.982,258.647L155.506,260.953L156.031,256.292L156.556,262.278L157.081,245.744L157.605,237.649L158.13,247.952L158.655,265.859L159.18,276.26L159.704,281.068L160.229,283.766L160.754,298.534L161.279,288.28L161.803,291.665L162.328,280.381L162.853,284.404L163.378,276.604L163.902,280.283L164.427,278.615L164.952,282.442L165.477,276.751L166.001,276.996L166.526,272.679L167.051,283.325L167.576,279.4L168.101,283.963L168.625,277.928L169.15,271.109L169.675,268.263L170.2,262.572L170.724,269.49L171.249,277.29L171.774,270.373L172.299,268.165L172.823,274.445L173.348,286.514L173.873,296.817L174.398,281.804L174.922,289.458L175.447,282.687L175.972,288.771L176.497,284.306L177.021,276.015L177.546,262.082L178.071,253.643L178.596,272.826L179.12,271.452L179.645,271.599L180.17,257.617L180.695,263.161L181.22,270.716L181.744,270.177L182.269,279.694L182.794,269.637L183.319,269.244L183.843,254.87L184.368,255.704L184.893,255.556L185.418,266.791L185.942,258.255L186.467,242.653L186.992,208.605L187.517,213.266L188.041,232.105L188.566,264.486L189.091,273.905L189.616,282.246L190.14,287.152L190.665,287.299L191.19,288.476L191.715,288.133L192.239,286.416L192.764,284.11L193.289,281.313L193.814,277.536L194.339,273.071L194.863,276.407L195.388,264.24L195.913,249.964L196.438,234.706L196.962,250.16L197.487,257.666L198.012,256.881L198.537,253.594L199.061,252.269L199.586,262.817L200.111,266.546L200.636,281.559L201.16,292.303L201.685,304.372L202.21,298.436L202.735,298.239L203.259,287.25L203.784,282.785L204.309,285.876L204.834,287.888L205.358,292.941L205.883,294.118L206.408,296.964L206.933,299.466L207.458,300.791L207.982,300.594L208.507,291.322L209.032,278.762L209.557,281.755L210.081,284.944L210.606,294.609L211.131,300.692L211.656,307.512L212.18,314.822L212.705,324.242L213.23,331.208L213.755,307.463L214.279,288.329L214.804,276.26L215.329,283.08L215.854,301.576L216.378,310.505L216.903,334.25L217.428,334.103L217.953,330.227L218.477,324.094L219.002,307.806L219.527,300.496L220.052,270.373L220.576,254.575L221.101,265.32L221.626,289.556L222.151,316.294L222.676,312.909L223.2,314.626L223.725,308.101L224.25,313.792L224.775,310.308L225.299,299.073L225.824,292.597L226.349,288.329L226.874,309.965L227.398,320.415L227.923,335.182L228.448,329.687L228.973,326.94L229.497,315.999L230.022,310.161L230.547,300.496L231.072,294.315L231.596,293.137L232.121,309.229L232.646,321.592L233.171,331.306L233.695,327.087L234.22,332.827L234.745,329.982L235.27,320.268L235.795,306.285L236.319,288.771L236.844,275.377L237.369,270.373L237.894,281.706L238.418,301.379L238.943,316.588L239.468,323.8L239.993,320.611L240.517,313.595L241.042,314.282L241.567,318.845L242.092,303.047L242.616,282.246L243.141,277.977L243.666,303.293L244.191,329.05L244.715,341.168L245.24,335.231L245.765,332.974L246.29,326.253L246.814,316.049L247.339,290.144L247.864,276.555L248.389,272.139L248.914,295.1L249.438,307.855L249.963,316.196L250.488,315.656L251.013,314.233L251.537,319.483L252.062,307.316L252.587,308.052L253.112,303.195L253.636,315.803L254.161,323.751L254.686,328.412L255.211,330.325L255.735,332.484L256.26,346.81L256.785,348.38L257.31,324.291L257.834,300.938L258.359,277.83L258.884,286.121L259.409,301.821L259.933,330.571L260.458,334.741L260.983,333.858L261.508,334.299L262.033,342.983L262.557,343.375L263.082,341.756L263.607,333.71L264.132,336.163L264.656,329.442L265.181,338.911L265.706,344.504L266.231,357.603L266.755,357.063L267.28,356.72L267.805,353.531L268.33,360.203L268.854,346.761L269.379,326.351L269.904,301.526L270.429,303.096L270.953,312.32L271.478,331.012L272.003,339.058L272.528,349.165L273.052,342.198L273.577,334.839L274.102,323.555L274.627,322.525L275.152,320.17L275.676,322.083L276.201,321.396L276.726,328.412L277.251,330.08L277.775,327.627L278.3,316.441L278.825,316.588L279.35,321.494L279.874,338.567L280.399,335.28L280.924,330.914L281.449,324.83L281.973,335.133L282.498,351.618L283.023,355.935L283.548,351.765L284.072,345.927L284.597,351.618L285.122,354.12L285.647,355.837L286.171,352.354L286.696,349.802L287.221,352.599L287.746,348.281L288.271,343.523L288.795,344.258L289.32,355.641L289.845,369.034L290.37,366.091L290.894,355.248L291.419,340.775L291.944,335.133L292.469,343.768L292.993,351.961L293.518,347.742L294.043,347.496L294.568,353.04L295.092,361.037L295.617,353.089L296.142,349.999L296.667,345.779L297.191,338.518L297.716,327.725L298.241,334.005L298.766,346.025L299.29,344.847L299.815,336.213L300.34,328.951L300.865,335.378L301.39,333.073L301.914,333.024L302.439,332.631L302.964,336.409L303.489,338.813L304.013,338.42L304.538,338.616L305.063,332.582L305.588,335.918L306.112,341.707L306.637,342.787L307.162,351.274L307.687,347.251L308.211,347.938L308.736,343.032L309.261,343.572L309.786,351.421L310.31,353.433L310.835,357.701L311.36,366.483L311.885,369.966L312.409,364.472L312.934,351.814L313.459,337.292L313.984,326.548L314.508,317.177L315.033,325.615L315.558,336.507L316.083,353.973L316.608,344.16L317.132,334.397L317.657,331.454L318.182,342.051L318.707,345.632L319.231,336.507L319.756,308.689L320.281,307.561L320.806,305.5L321.33,330.08L321.855,339.598L322.38,349.214L322.905,358.29L323.429,360.988L323.954,346.859L324.479,315.411L325.004,299.907L325.528,295.345L326.053,313.399L326.578,323.849L327.103,342.149L327.627,342.002L328.152,341.854L328.677,334.25L329.202,339.058L329.727,327.627L330.251,312.271L330.776,298.141L331.301,305.893L331.826,317.569L332.35,327.038L332.875,333.661L333.4,332.68L333.925,326.94L334.449,311.486L334.974,315.705L335.499,307.463L336.024,290.095L336.548,267.871L337.073,275.77L337.598,294.952L338.123,304.323L338.647,303.342L339.172,311.339L339.697,326.891L340.222,332.533L340.746,330.276L341.271,319.434L341.796,309.131L342.321,319.728L342.846,328.608L343.37,336.948L343.895,320.366L344.42,321.2L344.945,329.835L345.469,334.005L345.994,324.389L346.519,305.549L347.044,307.708L347.568,309.916L348.093,328.019L348.618,328.412L349.143,338.911L349.667,340.039L350.192,343.179L350.717,342.492L351.242,337.979L351.766,336.605L352.291,322.868L352.816,321.887L353.341,324.536L353.865,348.576L354.39,355.248L354.915,352.991L355.44,350.146L355.965,354.169L356.489,360.596L357.014,347.546L357.539,339.058L358.064,338.764L358.588,341.02L359.113,340.186L359.638,347.006L360.163,359.664L360.687,356.426L361.212,346.81L361.737,339.941L362.262,337.194L362.786,329.344L363.311,313.743L363.836,313.105L364.361,321.396L364.885,359.516L365.41,387.825L365.935,406.124L366.46,409.166L366.984,409.215L367.509,408.97L368.034,408.724L368.559,406.86L369.084,405.634L369.608,405.094L370.133,404.652L370.658,401.954L371.183,399.943L371.707,398.667L372.232,395.38L372.757,388.168L373.282,366.287L373.806,356.475L374.331,350.391L374.856,361.479L375.381,364.913L375.905,365.158L376.43,359.418L376.955,355.101L377.48,349.459L378.004,347.349L378.529,345.73L379.054,343.179L379.579,347.251L380.103,353.089L380.628,356.916L381.153,353.482L381.678,358.094L382.203,364.275L382.727,365.06L383.252,362.656L383.777,364.472L384.302,367.072L384.826,364.226L385.351,355.15L385.876,355.592L386.401,359.565L386.925,364.717L387.45,368.544L387.975,365.845L388.5,372.91L389.024,375.559L389.549,382.133L390.074,379.043L390.599,377.522L391.123,367.759L391.648,356.622L392.173,354.856L392.698,361.871L393.222,364.717L393.747,363.883L394.272,359.271L394.797,365.06L395.322,360.056L395.846,360.007L396.371,354.954L396.896,362.068L397.421,365.894L397.945,369.77L398.47,365.551L398.995,357.456L399.52,361.43L400.044,362.656L400.569,367.072L401.094,361.381L401.619,352.697L402.143,347.889L402.668,341.266L403.193,353.089L403.718,360.105L404.242,367.906L404.767,364.864L405.292,362.902L405.817,360.841L406.341,356.18L406.866,356.867L407.391,351.765L407.916,351.912L408.441,348.085L408.965,347.153L409.49,353.973L410.015,360.056L410.54,376.099L411.064,378.258L411.589,373.989L412.114,366.091L412.639,343.228L413.163,341.168L413.688,331.306L414.213,353.776L414.738,359.026L415.262,370.555L415.787,360.89L416.312,365.453L416.837,364.177L417.361,368.445L417.886,359.86L418.411,351.47L418.936,338.911L419.46,339.156L419.985,337.096L420.51,355.199L421.035,354.561L421.559,351.421L422.084,341.953L422.609,343.572L423.134,349.312L423.659,345.338L424.183,346.319L424.708,338.616L425.233,349.999L425.758,349.508L426.282,360.449L426.807,353.335L427.332,353.089L427.857,349.655L428.381,352.206L428.906,347.055L429.431,342.198L429.956,332.19L430.48,331.11L431.005,340.186L431.53,342.541L432.055,347.447L432.579,351.029L433.104,362.803L433.629,357.652L434.154,355.935L434.678,351.372L435.203,354.561L435.728,353.678L436.253,351.716L436.778,363.098L437.302,372.223L437.827,378.405L438.352,373.008L438.877,354.414L439.401,352.942L439.926,353.188L440.451,366.189L440.976,349.655L441.5,349.999L442.025,348.772L442.55,359.32L443.075,353.629L443.599,359.222L444.124,367.072L444.649,374.922L445.174,373.548L445.698,373.989L446.223,368.298L446.748,353.825L447.273,349.312L447.797,351.372L448.322,354.757L448.847,356.573L449.372,352.206L449.897,362.951L450.421,367.023L450.946,374.48L451.471,370.849L451.996,365.355L452.52,366.974L453.045,372.468L453.57,378.994L454.095,375.952L454.619,373.695L455.144,369.819L455.669,363.638L456.194,358.192L456.718,363.638L457.243,370.015L457.768,370.997L458.293,365.698L458.817,366.777L459.342,366.826L459.867,366.14L460.392,363.098L460.916,365.306L461.441,365.502L461.966,361.086L462.491,352.844L463.016,336.507L463.54,333.612L464.065,335.722L464.59,353.433L465.115,359.32L465.639,361.135L466.164,362.068L466.689,365.6L467.214,372.125L467.738,372.174L468.263,367.759L468.788,364.717L469.313,355.493L469.837,354.169L470.362,344.013L470.887,342.051L471.412,333.024L471.936,333.612L472.461,335.673L472.986,334.888L473.511,332.435L474.035,341.07L474.56,348.723L475.085,343.228L475.61,339.892L476.135,342.639L476.659,354.463L477.184,356.867L477.709,365.06L478.234,341.511L478.758,317.373L479.283,285.925L479.808,289.408L480.333,294.805L480.857,309.572L481.382,313.497L481.907,307.365L482.432,307.168L482.956,321.985L483.481,333.907L484.006,332.582L484.531,327.038L485.055,323.26L485.58,328.167L486.105,344.013L486.63,352.255L487.154,359.86L487.679,358.633L488.204,363.588L488.729,359.32L489.254,352.893L489.778,346.761L490.303,339.598L490.828,341.119L491.353,346.662L491.877,354.463L492.402,358.535L492.927,367.464L493.452,376.786L493.976,382.918L494.501,381.986L495.026,376.442L495.551,376.099L496.075,372.518L496.6,375.756L497.125,373.253L497.65,377.767L498.174,374.872L498.699,376.148L499.224,367.611L499.749,366.925L500.273,362.46L500.798,369.868L501.323,366.385L501.848,363.588L502.373,359.418L502.897,364.521L503.422,367.611L503.947,372.419L504.472,372.076L504.996,378.65L505.521,379.582L506.046,381.005L506.571,380.024L507.095,374.087L507.62,372.125L508.145,370.064L508.67,374.774L509.194,374.333L509.719,373.695L510.244,369.77L510.769,373.401L511.293,368.004L511.818,359.958L512.343,347.546L512.868,333.907L513.392,343.719L513.917,350.685L514.442,365.6L514.967,369.083L515.492,367.66L516.016,367.072L516.541,360.399L517.066,355.297L517.591,333.416L518.115,333.024L518.64,343.67L519.165,358.339L519.69,361.086L520.214,364.422L520.739,372.37L521.264,373.401L521.789,370.751L522.313,368.249L522.838,360.645L523.363,350.685L523.888,340.088L524.412,349.704L524.937,360.203L525.462,375.02L525.987,373.744L526.511,376.541L527.036,382.133L527.561,382.084L528.086,382.771L528.61,379.435L529.135,381.348L529.66,379.779L530.185,381.692L530.71,386.255L531.234,384.537L531.759,380.318L532.284,374.48L532.809,375.216L533.333,370.997L533.858,368.396L534.383,364.275L534.908,363.49L535.432,372.468L535.957,378.405L536.482,384.881L537.007,382.869L537.531,382.084L538.056,384.734L538.581,385.813L539.106,386.058L539.63,377.718L540.155,372.763L540.68,376.295L541.205,389.689L541.729,394.006L542.254,387.825L542.779,382.869L543.304,374.872L543.829,377.178L544.353,370.702L544.878,362.803L545.403,353.923L545.928,345.142L546.452,350.146L546.977,355.542L547.502,369.77L548.027,376.982L548.551,375.854L549.076,377.031L549.601,379.386L550.126,377.276L550.65,372.468L551.175,365.011L551.7,371.34L552.225,371.291L552.749,381.201L553.274,382.379L553.799,382.624L554.324,379.386L554.848,377.227L555.373,380.956L555.898,376.688L556.423,373.744L556.948,371.144L557.472,376.737L557.997,378.16L558.522,378.552L559.047,375.118L559.571,375.412L560.096,373.94L560.621,375.265L561.146,374.333L561.67,370.948L562.195,363.294L562.72,367.808L563.245,375.559L563.769,381.79L564.294,381.348L564.819,381.054L565.344,384.39L565.868,387.53L566.393,387.825L566.918,390.817L567.443,392.436L567.967,395.527L568.492,391.112L569.017,388.855L569.542,390.228L570.067,389.247L570.591,377.767L571.116,372.567L571.641,367.808L572.166,378.307L572.69,380.416L573.215,388.904L573.74,385.568L574.265,384.979L574.789,386.843L575.314,389.444L575.839,387.285L576.364,383.311L576.888,381.643L577.413,377.914L577.938,371.831L578.463,372.321L578.987,373.204L579.512,380.269L580.037,373.94L580.562,377.473L581.086,380.171L581.611,388.07L582.136,388.119L582.661,384.734L583.186,381.299L583.71,374.627L584.235,377.963L584.76,374.971L585.285,381.79L585.809,378.601L586.334,384.685L586.859,386.892L587.384,389.149L587.908,387.775L588.433,387.383L588.958,379.828L589.483,376.491L590.007,361.528L590.532,358.388L591.057,356.229L591.582,363.834L592.106,368.593L592.631,370.899L593.156,367.71L593.681,360.007L594.205,360.694L594.73,361.822L595.255,370.702L595.78,374.529L596.305,380.171L596.829,382.526L597.354,379.828L597.879,385.764L598.404,380.563L598.928,381.594L599.453,378.258L599.978,382.624L600.503,379.877L601.027,381.79L601.552,382.183L602.077,385.224L602.602,384.096L603.126,379.975L603.651,378.405L604.176,370.604L604.701,373.499L605.225,372.468L605.75,376.05L606.275,373.45L606.8,370.31L607.324,368.593L607.849,370.899L608.374,378.356L608.899,380.318L609.424,379.729L609.948,376.05L610.473,376.246L610.998,372.763L611.523,362.215L612.047,349.017L612.572,344.896L613.097,355.297L613.622,370.015L614.146,380.024L614.671,380.269L615.196,377.571L615.721,377.375L616.245,380.122L616.77,375.559L617.295,368.2L617.82,367.219L618.344,371.585L618.869,376.05L619.394,373.253L619.919,375.657L620.443,371.733L620.968,364.079L621.493,363.785L622.018,367.415L622.542,377.718L623.067,379.582L623.592,382.673L624.117,387.04L624.642,379.975L625.166,381.398L625.691,373.253L626.216,375.069L626.741,369.868L627.265,363.932L627.79,362.411L628.315,363.343L628.84,369.672L629.364,367.317L629.889,369.23L630.414,370.457L630.939,372.616L631.463,371.683L631.988,369.329L632.513,368.838L633.038,370.948L633.562,374.137L634.087,376.59L634.612,375.069L635.137,365.796L635.661,370.702L636.186,363.392L636.711,367.268L637.236,368.053L637.761,376.933L638.285,380.171L638.81,366.679L639.335,353.188L639.86,350.538L640.384,354.218L640.909,364.03L641.434,363.883L641.959,361.184L642.483,356.769L643.008,356.965L643.533,364.472L644.058,371.438L644.582,373.646L645.107,376.884L645.632,373.94L646.157,374.774L646.681,372.959L647.206,375.363L647.731,374.529L648.256,369.623L648.78,366.287L649.305,369.966L649.83,379.828L650.355,383.507L650.88,382.379L651.404,381.25L651.929,384.979L652.454,387.874L652.979,386.156L653.503,386.696L654.028,386.402L654.553,387.187L655.078,383.017L655.602,381.398L656.127,377.963L656.652,380.858L657.177,378.11L657.701,384.39L658.226,376.491L658.751,381.201L659.276,376.246L659.8,386.402L660.325,387.285L660.85,383.213L661.375,379.337L661.899,375.216L662.424,386.892L662.949,388.609L663.474,386.843L663.999,384.292L664.523,384.243L665.048,393.466L665.573,393.466L666.098,397.342L666.622,392.976L667.147,395.478L667.672,387.481L668.197,382.82L668.721,376.688L669.246,384.096L669.771,389.1L670.296,394.791L670.82,395.086L671.345,399.501L671.87,395.184L672.395,391.504L672.919,385.421L673.444,391.7L673.969,392.632L674.494,395.036L675.018,388.953L675.543,392.485L676.068,393.712L676.593,399.01L677.118,392.976L677.642,388.953L678.167,386.794L678.692,390.081L679.217,393.368L679.741,395.527L680.266,397.342L680.791,400.629L681.316,402.788L681.84,402.445L682.365,398.225L682.89,398.912L683.415,399.452L683.939,404.162L684.464,402.592L684.989,404.162L685.514,404.162L686.038,405.094L686.563,405.535L687.088,406.124L687.613,405.192L688.137,401.414L688.662,400.286L689.187,400.041L689.712,404.898L690.237,402.984L690.761,402.592L691.286,398.667L691.811,400.188L692.336,395.92L692.86,397.244L693.385,397.489L693.91,402.297L694.435,401.267L694.959,399.697L695.484,401.463L696.009,404.407L696.534,406.664L697.058,405.977L697.583,404.26L698.108,401.807L698.633,400.09L699.157,399.844L699.682,398.912L700.207,396.214L700.732,395.135L701.256,396.165L701.781,398.078L702.306,400.777L702.831,400.482L703.356,398.961L703.88,397.342L704.405,394.153L704.93,393.417L705.455,392.093L705.979,393.172L706.504,396.999L707.029,398.863L707.554,403.033L708.078,400.531L708.603,394.301L709.128,394.399L709.653,392.289L710.177,395.429L710.702,394.497L711.227,399.01L711.752,402.788L712.276,402.347L712.801,401.316L713.326,397.489L713.851,395.87L714.375,393.614L714.9,394.301L715.425,397.833L715.95,397.931L716.475,399.599L716.999,398.765L717.524,404.554L718.049,405.094L718.574,404.701L719.098,401.463L719.623,399.599L720.148,400.629L720.673,400.58L721.197,403.328L721.722,403.082L722.247,404.652L722.772,404.211L723.296,404.309L723.821,402.101L724.346,402.003L724.871,400.973L725.395,398.225L725.92,396.018L726.445,395.92L726.97,398.765L727.494,397.244L728.019,394.791L728.544,396.263L729.069,397.98L729.593,398.127L730.118,396.754L730.643,398.274L731.168,399.158L731.693,396.018L732.217,397.391L732.742,400.531L733.267,403.966L733.792,398.422L734.316,396.705L734.841,393.025L735.366,395.184L735.891,395.086L736.415,393.025L736.94,391.7L737.465,392.24L737.99,395.478L738.514,399.795L739.039,398.078L739.564,403.818L740.089,402.494L740.613,404.8L741.138,403.573L741.663,403.328L742.188,402.347L742.712,398.814L743.237,397.244L743.762,391.455L744.287,393.319L744.812,394.301L745.336,401.463L745.861,400.09L746.386,399.943L746.911,394.301L747.435,397.195L747.96,398.127L748.485,399.648L749.01,396.361L749.534,397.735L750.059,398.225L750.584,399.256L751.109,400.482L751.633,402.69L752.158,403.082L752.683,398.52L753.208,397.784L753.732,398.127L754.257,400.924L754.782,398.569L755.307,394.742L755.831,393.123L756.356,396.557L756.881,396.606L757.406,397.195L757.931,396.705L758.455,402.15L758.98,402.788L759.505,403.769L760.03,399.501L760.554,399.059L761.079,399.599L761.604,404.113L762.129,402.543L762.653,403.328L763.178,400.678L763.703,401.954L764.228,400.188L764.752,403.377L765.277,406.664L765.802,408.038L766.327,408.038L766.851,406.713L767.376,404.8L767.901,404.309L768.426,404.358L768.95,405.977L769.475,406.075L770,404.75"/>
  </g>
</svg>
