<svg class="plot-d6a7b5" fill="currentColor" font-family="system-ui, sans-serif" font-size="10" text-anchor="middle" width="830" height="470" viewBox="0 0 830 470" xmlns="http://www.w3.org/2000/svg" xmlns:xlink="http://www.w3.org/1999/xlink" color="#1e90ff"><style>:where(.plot-d6a7b5){--plot-background: white;display:block;height:intrinsic;max-width:100%}:where(.plot-d6a7b5 text),:where(.plot-d6a7b5 tspan){white-space:pre}</style><g aria-label="y-grid" stroke="currentColor" stroke-opacity=".1"><line x1="60" x2="770" y1="410" y2="410"/><line x1="60" x2="770" y1="377.334" y2="377.334"/><line x1="60" x2="770" y1="344.668" y2="344.668"/><line x1="60" x2="770" y1="312.003" y2="312.003"/><line x1="60" x2="770" y1="279.337" y2="279.337"/><line x1="60" x2="770" y1="246.671" y2="246.671"/><line x1="60" x2="770" y1="214.005" y2="214.005"/><line x1="60" x2="770" y1="181.339" y2="181.339"/><line x1="60" x2="770" y1="148.673" y2="148.673"/><line x1="60" x2="770" y1="116.008" y2="116.008"/><line x1="60" x2="770" y1="83.342" y2="83.342"/></g><g aria-label="y-axis tick" fill="none" stroke="currentColor"><path transform="translate(60,410)" d="M0,0L-6,0"/><path transform="translate(60,377.3341695785921)" d="M0,0L-6,0"/><path transform="translate(60,344.6683391571842)" d="M0,0L-6,0"/><path transform="translate(60,312.00250873577636)" d="M0,0L-6,0"/><path transform="translate(60,279.3366783143685)" d="M0,0L-6,0"/><path transform="translate(60,246.67084789296058)" d="M0,0L-6,0"/><path transform="translate(60,214.00501747155272)" d="M0,0L-6,0"/><path transform="translate(60,181.33918705014486)" d="M0,0L-6,0"/><path transform="translate(60,148.673356628737)" d="M0,0L-6,0"/><path transform="translate(60,116.00752620732911)" d="M0,0L-6,0"/><path transform="translate(60,83.34169578592122)" d="M0,0L-6,0"/></g><g aria-label="y-axis tick label" text-anchor="end" font-variant="tabular-nums"><text y=".32em" transform="translate(-9,0) translate(60,410)">0</text><text y=".32em" transform="translate(-9,0) translate(60,377.3341695785921)">50,000</text><text y=".32em" transform="translate(-9,0) translate(60,344.6683391571842)">100,000</text><text y=".32em" transform="translate(-9,0) translate(60,312.00250873577636)">150,000</text><text y=".32em" transform="translate(-9,0) translate(60,279.3366783143685)">200,000</text><text y=".32em" transform="translate(-9,0) translate(60,246.67084789296058)">250,000</text><text y=".32em" transform="translate(-9,0) translate(60,214.00501747155272)">300,000</text><text y=".32em" transform="translate(-9,0) translate(60,181.33918705014486)">350,000</text><text y=".32em" transform="translate(-9,0) translate(60,148.673356628737)">400,000</text><text y=".32em" transform="translate(-9,0) translate(60,116.00752620732911)">450,000</text><text y=".32em" transform="translate(-9,0) translate(60,83.34169578592122)">500,000</text></g><g aria-label="y-axis label" text-anchor="start"><text y=".71em" transform="translate(-57,-57) translate(60,60)">↑ Total Vestiges</text></g><g aria-label="x-axis tick" fill="none" stroke="currentColor"><path transform="translate(64.71238938053098,410)" d="M0,0L0,6"/><path transform="translate(113.4070796460177,410)" d="M0,0L0,6"/><path transform="translate(160.53097345132744,410)" d="M0,0L0,6"/><path transform="translate(209.22566371681415,410)" d="M0,0L0,6"/><path transform="translate(256.34955752212386,410)" d="M0,0L0,6"/><path transform="translate(305.04424778761063,410)" d="M0,0L0,6"/><path transform="translate(353.7389380530973,410)" d="M0,0L0,6"/><path transform="translate(400.8628318584071,410)" d="M0,0L0,6"/><path transform="translate(449.5575221238938,410)" d="M0,0L0,6"/><path transform="translate(496.6814159292035,410)" d="M0,0L0,6"/><path transform="translate(545.3761061946902,410)" d="M0,0L0,6"/><path transform="translate(594.0707964601769,410)" d="M0,0L0,6"/><path transform="translate(639.6238938053098,410)" d="M0,0L0,6"/><path transform="translate(688.3185840707964,410)" d="M0,0L0,6"/><path transform="translate(735.4424778761062,410)" d="M0,0L0,6"/></g><g aria-label="x-axis tick label" font-variant="tabular-nums"><text transform="translate(0,9) translate(64.71238938053098,410)"><tspan x="0" y=".71em">Mar</tspan><tspan x="0" dy="1em">2023</tspan></text><text y=".71em" transform="translate(0,9) translate(113.4070796460177,410)">Apr</text><text y=".71em" transform="translate(0,9) translate(160.53097345132744,410)">May</text><text y=".71em" transform="translate(0,9) translate(209.22566371681415,410)">Jun</text><text y=".71em" transform="translate(0,9) translate(256.34955752212386,410)">Jul</text><text y=".71em" transform="translate(0,9) translate(305.04424778761063,410)">Aug</text><text y=".71em" transform="translate(0,9) translate(353.7389380530973,410)">Sep</text><text y=".71em" transform="translate(0,9) translate(400.8628318584071,410)">Oct</text><text y=".71em" transform="translate(0,9) translate(449.5575221238938,410)">Nov</text><text y=".71em" transform="translate(0,9) translate(496.6814159292035,410)">Dec</text><text transform="translate(0,9) translate(545.3761061946902,410)"><tspan x="0" y=".71em">Jan</tspan><tspan x="0" dy="1em">2024</tspan></text><text y=".71em" transform="translate(0,9) translate(594.0707964601769,410)">Feb</text><text y=".71em" transform="translate(0,9) translate(639.6238938053098,410)">Mar</text><text y=".71em" transform="translate(0,9) translate(688.3185840707964,410)">Apr</text><text y=".71em" transform="translate(0,9) translate(735.4424778761062,410)">May</text></g><g aria-label="line" fill="none" stroke="currentColor" stroke-width="1.5" stroke-linejoin="round" stroke-linecap="round"><path d="M60,410L61.047,409.672L62.094,408.473L63.142,407.826L64.189,407.367L65.236,406.611L66.283,406.015L67.33,405.456L68.378,404.326L69.425,403.432L70.472,402.37L71.519,400.726L72.566,399.175L73.614,398.37L74.661,397.205L75.708,396.414L76.755,395.507L77.802,394.322L78.85,393.523L79.897,392.741L80.944,391.678L81.991,390.5L83.038,389.666L84.086,388.243L85.133,387.568L86.18,386.939L87.227,385.804L88.274,384.718L89.322,383.882L90.369,382.716L91.416,381.554L92.463,380.496L93.51,378.855L94.558,377.554L95.605,376.8L96.652,376.014L97.699,375.423L98.746,374.946L99.794,374.06L100.841,373.193L101.888,372.589L102.935,371.192L103.982,369.731L105.029,368.422L106.077,366.835L107.124,365.76L108.171,364.844L109.218,363.596L110.265,362.552L111.313,361.796L112.36,360.435L113.407,359.118L114.454,357.89L115.501,356.129L116.549,354.458L117.596,353.588L118.643,352.298L119.69,351.134L120.737,350.09L121.785,348.613L122.832,347.225L123.879,346.02L124.926,344.571L125.973,343.182L127.021,341.986L128.068,340.377L129.115,339.387L130.162,338.494L131.209,337.248L132.257,336.228L133.304,335.466L134.351,334.483L135.398,333.423L136.445,332.434L137.493,331.137L138.54,329.852L139.587,329.12L140.634,328.103L141.681,327.31L142.729,326.788L143.776,325.98L144.823,325.175L145.87,324.321L146.917,323.216L147.965,322.092L149.012,321.215L150.059,320L151.106,319.147L152.153,318.589L153.201,317.309L154.248,316.425L155.295,315.946L156.342,315.144L157.389,314.371L158.437,313.567L159.484,312.461L160.531,311.499L161.578,310.671L162.625,309.951L163.673,309.312L164.72,308.701L165.767,307.697L166.814,307.126L167.861,306.545L168.909,305.602L169.956,304.533L171.003,303.695L172.05,302.617L173.097,301.89L174.145,301.216L175.192,300.238L176.239,299.569L177.286,298.932L178.333,298.081L179.381,297.416L180.428,296.612L181.475,295.761L182.522,294.988L183.569,294.348L184.617,293.677L185.664,293.091L186.711,292.539L187.758,291.761L188.805,291.17L189.853,290.636L190.9,289.755L191.947,288.611L192.994,287.776L194.041,286.689L195.088,286.039L196.136,285.294L197.183,284.524L198.23,283.821L199.277,283.327L200.324,282.348L201.372,281.579L202.419,280.771L203.466,279.597L204.513,278.734L205.56,277.978L206.608,277.207L207.655,276.365L208.702,275.713L209.749,275.074L210.796,274.23L211.844,273.733L212.891,273.071L213.938,272.475L214.985,271.914L216.032,271.124L217.08,270.554L218.127,269.96L219.174,269.163L220.221,268.594L221.268,268.068L222.316,267.499L223.363,266.829L224.41,266.199L225.457,265.542L226.504,264.829L227.552,264.27L228.599,263.585L229.646,263.01L230.693,262.437L231.74,261.644L232.788,260.983L233.835,260.462L234.882,259.777L235.929,259.126L236.976,258.656L238.024,257.848L239.071,257.231L240.118,256.595L241.165,255.889L242.212,255.288L243.26,254.931L244.307,254.275L245.354,253.741L246.401,253.105L247.448,252.348L248.496,251.749L249.543,251.089L250.59,250.363L251.637,249.702L252.684,249.122L253.732,248.176L254.779,247.407L255.826,246.964L256.873,246.257L257.92,245.626L258.968,245.247L260.015,244.576L261.062,244.142L262.109,243.626L263.156,243L264.204,242.416L265.251,241.954L266.298,241.223L267.345,240.688L268.392,240.204L269.44,239.525L270.487,238.914L271.534,238.433L272.581,237.696L273.628,237.227L274.676,236.694L275.723,236.018L276.77,235.468L277.817,234.845L278.864,234.13L279.912,233.505L280.959,232.973L282.006,232.363L283.053,231.646L284.1,231.085L285.147,230.558L286.195,230.001L287.242,229.577L288.289,228.851L289.336,228.396L290.383,227.882L291.431,227.237L292.478,226.722L293.525,226.098L294.572,225.267L295.619,224.64L296.667,224.271L297.714,223.422L298.761,222.797L299.808,222.242L300.855,221.467L301.903,220.943L302.95,220.38L303.997,219.731L305.044,219.073L306.091,218.506L307.139,217.666L308.186,217.019L309.233,216.449L310.28,215.759L311.327,214.998L312.375,214.221L313.422,213.077L314.469,212.378L315.516,211.852L316.563,211.139L317.611,210.566L318.658,210.15L319.705,209.503L320.752,208.932L321.799,208.532L322.847,207.88L323.894,207.286L324.941,206.856L325.988,206.167L327.035,205.522L328.083,205.032L329.13,204.388L330.177,203.581L331.224,202.901L332.271,202.053L333.319,201.453L334.366,200.873L335.413,200.014L336.46,199.37L337.507,198.772L338.555,198.054L339.602,197.46L340.649,197.062L341.696,196.487L342.743,196.053L343.791,195.576L344.838,194.999L345.885,194.419L346.932,193.882L347.979,193.346L349.027,192.792L350.074,192.323L351.121,191.803L352.168,191.287L353.215,190.851L354.263,190.348L355.31,189.83L356.357,189.271L357.404,188.601L358.451,188.123L359.499,187.606L360.546,187.064L361.593,186.667L362.64,186.241L363.687,185.797L364.735,185.525L365.782,185.192L366.829,184.431L367.876,183.905L368.923,183.411L369.971,182.741L371.018,182.461L372.065,182.086L373.112,181.732L374.159,181.45L375.206,181.024L376.254,180.589L377.301,180.089L378.348,179.565L379.395,178.729L380.442,178.02L381.49,177.639L382.537,177.125L383.584,176.772L384.631,176.346L385.678,175.855L386.726,175.415L387.773,175.065L388.82,174.528L389.867,173.938L390.914,173.501L391.962,172.907L393.009,172.606L394.056,172.308L395.103,171.911L396.15,171.536L397.198,171.202L398.245,170.659L399.292,170.207L400.339,169.744L401.386,169.119L402.434,168.65L403.481,168.402L404.528,167.942L405.575,167.603L406.622,167.298L407.67,166.914L408.717,166.537L409.764,166.103L410.811,165.533L411.858,164.923L412.906,164.31L413.953,163.674L415,163.214L416.047,162.864L417.094,162.43L418.142,162.066L419.189,161.674L420.236,161.146L421.283,160.792L422.33,160.46L423.378,159.722L424.425,159.09L425.472,158.702L426.519,158.301L427.566,158.013L428.614,157.785L429.661,157.305L430.708,156.987L431.755,156.67L432.802,156.054L433.85,155.391L434.897,154.893L435.944,154.218L436.991,153.861L438.038,153.533L439.086,152.969L440.133,152.604L441.18,152.257L442.227,151.764L443.274,151.237L444.322,150.9L445.369,150.341L446.416,149.983L447.463,149.751L448.51,149.255L449.558,148.922L450.605,148.719L451.652,148.413L452.699,148.101L453.746,147.578L454.794,146.961L455.841,146.341L456.888,145.928L457.935,145.52L458.982,145.283L460.029,144.926L461.077,144.507L462.124,144.275L463.171,144.034L464.218,143.619L465.265,143.366L466.313,143.018L467.36,142.636L468.407,142.294L469.454,142.071L470.501,141.764L471.549,141.596L472.596,141.366L473.643,141.054L474.69,140.844L475.737,140.703L476.785,140.212L477.832,139.73L478.879,139.258L479.926,138.789L480.973,138.429L482.021,138.207L483.068,137.844L484.115,137.619L485.162,137.304L486.209,136.843L487.257,136.468L488.304,136.139L489.351,135.647L490.398,135.297L491.445,134.959L492.493,134.56L493.54,134.233L494.587,133.862L495.634,133.315L496.681,132.989L497.729,132.683L498.776,132.363L499.823,131.994L500.87,131.63L501.917,131.229L502.965,130.997L504.012,130.853L505.059,130.509L506.106,130.222L507.153,130L508.201,129.732L509.248,129.478L510.295,129.278L511.342,128.964L512.389,128.676L513.437,128.514L514.484,128.142L515.531,127.791L516.578,127.639L517.625,127.418L518.673,127.245L519.72,127.054L520.767,126.689L521.814,126.323L522.861,126.057L523.909,125.807L524.956,125.551L526.003,125.228L527.05,124.975L528.097,124.792L529.145,124.576L530.192,124.217L531.239,123.993L532.286,123.721L533.333,123.265L534.381,122.897L535.428,122.709L536.475,122.413L537.522,122.03L538.569,121.726L539.617,121.334L540.664,121.036L541.711,120.702L542.758,120.309L543.805,120.006L544.853,119.722L545.9,119.361L546.947,119.053L547.994,118.771L549.041,118.33L550.088,118.066L551.136,117.862L552.183,117.435L553.23,117.284L554.277,117.026L555.324,116.609L556.372,116.392L557.419,116.141L558.466,115.829L559.513,115.639L560.56,115.445L561.608,115.249L562.655,115.106L563.702,114.839L564.749,114.474L565.796,114.138L566.844,113.727L567.891,113.238L568.938,113.014L569.985,112.749L571.032,112.492L572.08,112.137L573.127,111.742L574.174,111.446L575.221,111.232L576.268,110.885L577.316,110.467L578.363,109.883L579.41,109.521L580.457,109.076L581.504,108.819L582.552,108.583L583.599,108.266L584.646,108.13L585.693,107.931L586.74,107.426L587.788,106.871L588.835,106.465L589.882,105.899L590.929,105.585L591.976,105.317L593.024,104.995L594.071,104.679L595.118,104.41L596.165,103.987L597.212,103.734L598.26,103.313L599.307,102.685L600.354,102.245L601.401,101.927L602.448,101.454L603.496,101.14L604.543,100.91L605.59,100.425L606.637,100.034L607.684,99.598L608.732,99.169L609.779,98.669L610.826,98.001L611.873,97.276L612.92,96.881L613.968,96.469L615.015,95.869L616.062,95.461L617.109,95.156L618.156,94.762L619.204,94.429L620.251,94.094L621.298,93.556L622.345,93.086L623.392,92.892L624.44,92.472L625.487,92.113L626.534,91.698L627.581,91.29L628.628,91.046L629.676,90.686L630.723,90.15L631.77,89.655L632.817,89.324L633.864,88.817L634.912,88.563L635.959,88.238L637.006,87.87L638.053,87.631L639.1,87.348L640.147,86.972L641.195,86.672L642.242,86.37L643.289,85.811L644.336,85.499L645.383,85.232L646.431,84.993L647.478,84.77L648.525,84.473L649.572,84.196L650.619,84.026L651.667,83.815L652.714,83.365L653.761,83.082L654.808,82.867L655.855,82.446L656.903,82.152L657.95,82.028L658.997,81.776L660.044,81.439L661.091,81.186L662.139,80.843L663.186,80.469L664.233,80.112L665.28,79.561L666.327,79.179L667.375,78.932L668.422,78.889L669.469,78.883L670.516,78.881L671.563,78.878L672.611,78.873L673.658,78.867L674.705,78.861L675.752,78.831L676.799,78.809L677.847,78.795L678.894,78.76L679.941,78.702L680.988,78.661L682.035,78.609L683.083,78.507L684.13,78.371L685.177,78.027L686.224,77.794L687.271,77.577L688.319,77.381L689.366,77.194L690.413,76.98L691.46,76.707L692.507,76.463L693.555,76.174L694.602,75.873L695.649,75.607L696.696,75.284L697.743,75.037L698.791,74.849L699.838,74.577L700.885,74.285L701.932,74.158L702.979,73.968L704.027,73.686L705.074,73.528L706.121,73.362L707.168,73.115L708.215,72.918L709.263,72.631L710.31,72.39L711.357,72.246L712.404,72.028L713.451,71.838L714.499,71.658L715.546,71.534L716.593,71.379L717.64,71.287L718.687,71.122L719.735,70.947L720.782,70.725L721.829,70.411L722.876,70.213L723.923,70.084L724.971,69.808L726.018,69.599L727.065,69.408L728.112,69.21L729.159,68.933L730.206,68.743L731.254,68.477L732.301,68.295L733.348,68.155L734.395,67.941L735.442,67.703L736.49,67.456L737.537,67.294L738.584,67.073L739.631,66.884L740.678,66.647L741.726,66.31L742.773,66.057L743.82,65.732L744.867,65.552L745.914,65.392L746.962,65.171L748.009,64.951L749.056,64.765L750.103,64.516L751.15,64.234L752.198,64.058L753.245,63.741L754.292,63.461L755.339,63.233L756.386,62.904L757.434,62.715L758.481,62.568L759.528,62.453L760.575,62.292L761.622,62.089L762.67,61.868L763.717,61.403L764.764,61.172L765.811,60.82L766.858,60.654L767.906,60.493L768.953,60.295L770,60"/></g></svg>