<svg xmlns="http://www.w3.org/2000/svg" width="830" height="470" fill="currentColor" class="plot-d6a7b5" font-family="system-ui, sans-serif" font-size="10" style="--plot-background:white;display:block;height:intrinsic;max-width:100%;color:#1e90ff" text-anchor="middle" viewBox="0 0 830 470">
    <style>
        :where(.plot-d6a7b5 text),:where(.plot-d6a7b5 tspan){white-space:pre}
    </style>
    <path stroke="currentColor" stroke-opacity=".1" d="
M60
410
h710
M60
380.833
h710
M60
351.667
h710
M60
322.5
h710
M60
293.333
h710
M60
264.167
h710
M60
235
h710
M60
205.833
h710
M60
176.667
h710
M60
147.5
h710
M60
118.333
h710
M60
89.167
h710
M60
60
h710" aria-hidden="true" aria-label="y-grid"/>
    <path fill="none" stroke="currentColor" d="
M60
410
h-6
m6
-29.167
h-6
m6
-29.166
h-6
m6
-29.167
h-6
m6
-29.167
h-6
m6
-29.166
h-6
M60
235
h-6
m6
-29.167
h-6
m6
-29.166
h-6
m6
-29.167
h-6
m6
-29.167
h-6
m6
-29.166
h-6
M60
60
h-6" aria-hidden="true" aria-label="y-axis tick"/>
    <g aria-label="y-axis tick label" font-variant="tabular-nums" text-anchor="end">
        <text y=".32em" transform="translate(51 410)">0.0</text>
        <text y=".32em" transform="translate(51 380.833)">0.5</text>
        <text y=".32em" transform="translate(51 351.667)">1.0</text>
        <text y=".32em" transform="translate(51 322.5)">1.5</text>
        <text y=".32em" transform="translate(51 293.333)">2.0</text>
        <text y=".32em" transform="translate(51 264.167)">2.5</text>
        <text y=".32em" transform="translate(51 235)">3.0</text>
        <text y=".32em" transform="translate(51 205.833)">3.5</text>
        <text y=".32em" transform="translate(51 176.667)">4.0</text>
        <text y=".32em" transform="translate(51 147.5)">4.5</text>
        <text y=".32em" transform="translate(51 118.333)">5.0</text>
        <text y=".32em" transform="translate(51 89.167)">5.5</text>
        <text y=".32em" transform="translate(51 60)">6.0</text>
    </g>
    <text y=".71em" aria-label="y-axis label" text-anchor="start" transform="translate(3 3)">↑ Karma vestiges (30 days)</text>
    <path fill="none" stroke="currentColor" d="
M110.355
410
v6
m52.872
-6
v6
m52.873
-6
v6
m52.872
-6
v6
m52.872
-6
v6
m52.872
-6
v6
m52.873
-6
v6
m52.872
-6
v6
m52.872
-6
v6
m52.873
-6
v6
m52.872
-6
v6
m52.872
-6
v6
m52.873
-6
v6" aria-hidden="true" aria-label="x-axis tick"/>
    <g aria-label="x-axis tick label" font-variant="tabular-nums">
        <text transform="translate(110.355 419)"><tspan x="0" y=".71em">8</tspan><tspan x="0" dy="1em">Feb</tspan></text>
        <text y=".71em" transform="translate(163.227 419)">15</text>
        <text y=".71em" transform="translate(216.1 419)">22</text>
        <text transform="translate(268.972 419)"><tspan x="0" y=".71em">1</tspan><tspan x="0" dy="1em">Mar</tspan></text>
        <text y=".71em" transform="translate(321.844 419)">8</text>
        <text y=".71em" transform="translate(374.716 419)">15</text>
        <text y=".71em" transform="translate(427.589 419)">22</text>
        <text y=".71em" transform="translate(480.461 419)">29</text>
        <text transform="translate(533.333 419)"><tspan x="0" y=".71em">5</tspan><tspan x="0" dy="1em">Apr</tspan></text>
        <text y=".71em" transform="translate(586.206 419)">12</text>
        <text y=".71em" transform="translate(639.078 419)">19</text>
        <text y=".71em" transform="translate(691.95 419)">26</text>
        <text transform="translate(744.823 419)"><tspan x="0" y=".71em">3</tspan><tspan x="0" dy="1em">May</tspan></text>
    </g>
    <path fill="none" stroke="currentColor" stroke-linecap="round" stroke-linejoin="round" stroke-width="1.5" d="
M60
410
h15.106
l5.036
-116.667
h30.213
L115.39
235
h30.213
l5.035
-58.333
h70.497
l5.035
116.666
h30.213
l5.035
58.334
h15.107
l5.035
-58.334
h10.071
l5.036
58.334
h50.354
L352.057
235
h5.035
l5.036
-116.667
h15.106
L382.27
60
h40.283
l5.036
58.333
h35.248
L467.872
60
h25.178
l5.035
116.667
h5.036
l5.035
116.666
h15.106
l5.036
58.334
h90.638
l5.036
-58.334
h55.39
L684.397
235
h70.497
l5.035
58.333
h5.036
L770
351.667" aria-label="line"/>
</svg>
