<svg class="plot-d6a7b5" fill="currentColor" font-family="system-ui, sans-serif" font-size="10" text-anchor="middle" width="830" height="470" viewBox="0 0 830 470" xmlns="http://www.w3.org/2000/svg" xmlns:xlink="http://www.w3.org/1999/xlink" color="#1e90ff"><style>:where(.plot-d6a7b5){--plot-background: white;display:block;height:intrinsic;max-width:100%}:where(.plot-d6a7b5 text),:where(.plot-d6a7b5 tspan){white-space:pre}</style><g aria-label="y-grid" stroke="currentColor" stroke-opacity=".1"><line x1="60" x2="770" y1="410" y2="410"/><line x1="60" x2="770" y1="360.939" y2="360.939"/><line x1="60" x2="770" y1="311.878" y2="311.878"/><line x1="60" x2="770" y1="262.817" y2="262.817"/><line x1="60" x2="770" y1="213.757" y2="213.757"/><line x1="60" x2="770" y1="164.696" y2="164.696"/><line x1="60" x2="770" y1="115.635" y2="115.635"/><line x1="60" x2="770" y1="66.574" y2="66.574"/></g><g aria-label="y-axis tick" fill="none" stroke="currentColor"><path transform="translate(60,410)" d="M0,0L-6,0"/><path transform="translate(60,360.9391645640594)" d="M0,0L-6,0"/><path transform="translate(60,311.8783291281189)" d="M0,0L-6,0"/><path transform="translate(60,262.8174936921783)" d="M0,0L-6,0"/><path transform="translate(60,213.7566582562377)" d="M0,0L-6,0"/><path transform="translate(60,164.69582282029717)" d="M0,0L-6,0"/><path transform="translate(60,115.6349873843566)" d="M0,0L-6,0"/><path transform="translate(60,66.57415194841604)" d="M0,0L-6,0"/></g><g aria-label="y-axis tick label" text-anchor="end" font-variant="tabular-nums"><text y=".32em" transform="translate(-9,0) translate(60,410)">0</text><text y=".32em" transform="translate(-9,0) translate(60,360.9391645640594)">1,000</text><text y=".32em" transform="translate(-9,0) translate(60,311.8783291281189)">2,000</text><text y=".32em" transform="translate(-9,0) translate(60,262.8174936921783)">3,000</text><text y=".32em" transform="translate(-9,0) translate(60,213.7566582562377)">4,000</text><text y=".32em" transform="translate(-9,0) translate(60,164.69582282029717)">5,000</text><text y=".32em" transform="translate(-9,0) translate(60,115.6349873843566)">6,000</text><text y=".32em" transform="translate(-9,0) translate(60,66.57415194841604)">7,000</text></g><g aria-label="y-axis label" text-anchor="start"><text y=".71em" transform="translate(-57,-57) translate(60,60)">↑ Visible Vestiges (4 days)</text></g><g aria-label="x-axis tick" fill="none" stroke="currentColor"><path transform="translate(65.36974789915966,410)" d="M0,0L0,6"/><path transform="translate(120.85714285714286,410)" d="M0,0L0,6"/><path transform="translate(174.55462184873952,410)" d="M0,0L0,6"/><path transform="translate(230.0420168067227,410)" d="M0,0L0,6"/><path transform="translate(283.7394957983193,410)" d="M0,0L0,6"/><path transform="translate(339.2268907563025,410)" d="M0,0L0,6"/><path transform="translate(394.7142857142857,410)" d="M0,0L0,6"/><path transform="translate(448.41176470588243,410)" d="M0,0L0,6"/><path transform="translate(503.8991596638656,410)" d="M0,0L0,6"/><path transform="translate(557.5966386554621,410)" d="M0,0L0,6"/><path transform="translate(613.0840336134454,410)" d="M0,0L0,6"/><path transform="translate(668.5714285714286,410)" d="M0,0L0,6"/><path transform="translate(720.4789915966387,410)" d="M0,0L0,6"/></g><g aria-label="x-axis tick label" font-variant="tabular-nums"><text transform="translate(0,9) translate(65.36974789915966,410)"><tspan x="0" y=".71em">Mar</tspan><tspan x="0" dy="1em">2023</tspan></text><text y=".71em" transform="translate(0,9) translate(120.85714285714286,410)">Apr</text><text y=".71em" transform="translate(0,9) translate(174.55462184873952,410)">May</text><text y=".71em" transform="translate(0,9) translate(230.0420168067227,410)">Jun</text><text y=".71em" transform="translate(0,9) translate(283.7394957983193,410)">Jul</text><text y=".71em" transform="translate(0,9) translate(339.2268907563025,410)">Aug</text><text y=".71em" transform="translate(0,9) translate(394.7142857142857,410)">Sep</text><text y=".71em" transform="translate(0,9) translate(448.41176470588243,410)">Oct</text><text y=".71em" transform="translate(0,9) translate(503.8991596638656,410)">Nov</text><text y=".71em" transform="translate(0,9) translate(557.5966386554621,410)">Dec</text><text transform="translate(0,9) translate(613.0840336134454,410)"><tspan x="0" y=".71em">Jan</tspan><tspan x="0" dy="1em">2024</tspan></text><text y=".71em" transform="translate(0,9) translate(668.5714285714286,410)">Feb</text><text y=".71em" transform="translate(0,9) translate(720.4789915966387,410)">Mar</text></g><g aria-label="line" fill="none" stroke="currentColor" stroke-width="1.5" stroke-linejoin="round" stroke-linecap="round"><path d="M60,410L61.193,385.371L62.387,295.296L63.58,246.726L64.773,236.913L65.966,270.177L67.16,274.003L68.353,266.497L69.546,238.434L70.739,216.013L71.933,178.237L73.126,139.626L74.319,90.369L75.513,109.65L76.706,145.66L77.899,202.669L79.092,195.015L80.286,193.445L81.479,192.906L82.672,202.227L83.866,211.5L85.059,182.996L86.252,179.12L87.445,151.989L88.639,189.815L89.832,205.22L91.025,226.905L92.218,195.948L93.412,180.395L94.605,178.089L95.798,172.398L96.992,155.718L98.185,120.05L99.378,109.601L100.571,132.463L101.765,196.683L102.958,250.013L104.151,270.765L105.345,263.21L106.538,242.555L107.731,233.038L108.924,194.623L110.118,149.978L111.311,97.041L112.504,82.862L113.697,111.808L114.891,141.343L116.084,166.756L117.277,169.111L118.471,181.131L119.664,172.595L120.857,152.136L122.05,116.665L123.244,86.689L124.437,60L125.63,86.934L126.824,122.258L128.017,160.378L129.21,147.328L130.403,133.297L131.597,116.518L132.79,104.351L133.983,106.461L135.176,106.362L136.37,107.049L137.563,95.029L138.756,125.006L139.95,147.77L141.143,175.048L142.336,172.791L143.529,182.603L144.723,202.375L145.916,199.333L147.109,182.358L148.303,158.759L149.496,141.883L150.689,161.114L151.882,182.161L153.076,219.055L154.269,234.853L155.462,250.503L156.655,249.718L157.849,224.795L159.042,202.473L160.235,178.482L161.429,176.716L162.622,168.474L163.815,188.785L165.008,212.825L166.202,207.967L167.395,205.613L168.588,211.5L169.782,247.412L170.975,255.802L172.168,231.32L173.361,208.507L174.555,194.329L175.748,192.562L176.941,221.508L178.134,245.744L179.328,262.033L180.521,240.74L181.714,245.793L182.908,248.099L184.101,252.662L185.294,215.327L186.487,195.997L187.681,185.841L188.874,211.549L190.067,223.814L191.261,231.32L192.454,235.638L193.647,238.483L194.84,248.05L196.034,248.345L197.227,235.834L198.42,235.785L199.613,227.69L200.807,239.955L202,253.496L203.193,267.527L204.387,274.151L205.58,266.154L206.773,265.712L207.966,267.086L209.16,259.334L210.353,217.829L211.546,195.212L212.739,179.757L213.933,216.897L215.126,223.618L216.319,247.412L217.513,243.438L218.706,262.327L219.899,246.578L221.092,241.623L222.286,218.025L223.479,203.454L224.672,196.34L225.866,200.314L227.059,230.486L228.252,232.105L229.445,239.857L230.639,249.865L231.832,249.718L233.025,261.297L234.218,259.579L235.412,278.174L236.605,273.464L237.798,263.799L238.992,265.761L240.185,263.21L241.378,262.719L242.571,262.817L243.765,267.969L244.958,285.042L246.151,277.438L247.345,269.637L248.538,263.014L249.731,259.825L250.924,265.123L252.118,263.063L253.311,273.366L254.504,272.384L255.697,264.191L256.891,257.813L258.084,261.64L259.277,269.833L260.471,270.569L261.664,274.396L262.857,265.123L264.05,267.675L265.244,255.262L266.437,262.916L267.63,264.093L268.824,284.993L270.017,288.82L271.21,293.824L272.403,272.875L273.597,265.271L274.79,260.414L275.983,258.647L277.176,260.953L278.37,256.292L279.563,262.278L280.756,245.744L281.95,237.649L283.143,247.952L284.336,265.859L285.529,276.26L286.723,281.068L287.916,283.766L289.109,298.534L290.303,288.28L291.496,291.665L292.689,280.381L293.882,284.404L295.076,276.604L296.269,280.283L297.462,278.615L298.655,282.442L299.849,276.751L301.042,276.996L302.235,272.679L303.429,283.325L304.622,279.4L305.815,283.963L307.008,277.928L308.202,271.109L309.395,268.263L310.588,262.572L311.782,269.49L312.975,277.29L314.168,270.373L315.361,268.165L316.555,274.445L317.748,286.514L318.941,296.817L320.134,281.804L321.328,289.458L322.521,282.687L323.714,288.771L324.908,284.306L326.101,276.015L327.294,262.082L328.487,253.643L329.681,272.826L330.874,271.452L332.067,271.599L333.261,257.617L334.454,263.161L335.647,270.716L336.84,270.177L338.034,279.694L339.227,269.637L340.42,269.244L341.613,254.87L342.807,255.704L344,255.556L345.193,266.791L346.387,258.255L347.58,242.653L348.773,208.605L349.966,213.266L351.16,232.105L352.353,264.486L353.546,273.905L354.739,282.246L355.933,287.152L357.126,287.299L358.319,288.476L359.513,288.133L360.706,286.416L361.899,284.11L363.092,281.313L364.286,277.536L365.479,273.071L366.672,276.407L367.866,264.24L369.059,249.964L370.252,234.706L371.445,250.16L372.639,257.666L373.832,256.881L375.025,253.594L376.218,252.269L377.412,262.817L378.605,266.546L379.798,281.559L380.992,292.303L382.185,304.372L383.378,298.436L384.571,298.239L385.765,287.25L386.958,282.785L388.151,285.876L389.345,287.888L390.538,292.941L391.731,294.118L392.924,296.964L394.118,299.466L395.311,300.791L396.504,300.594L397.697,291.322L398.891,278.762L400.084,281.755L401.277,284.944L402.471,294.609L403.664,300.692L404.857,307.512L406.05,314.822L407.244,324.242L408.437,331.208L409.63,307.463L410.824,288.329L412.017,276.26L413.21,283.08L414.403,301.576L415.597,310.505L416.79,334.25L417.983,334.103L419.176,330.227L420.37,324.094L421.563,307.806L422.756,300.496L423.95,270.373L425.143,254.575L426.336,265.32L427.529,289.556L428.723,316.294L429.916,312.909L431.109,314.626L432.303,308.101L433.496,313.792L434.689,310.308L435.882,299.073L437.076,292.597L438.269,288.329L439.462,309.965L440.655,320.415L441.849,335.182L443.042,329.687L444.235,326.94L445.429,315.999L446.622,310.161L447.815,300.496L449.008,294.315L450.202,293.137L451.395,309.229L452.588,321.592L453.782,331.306L454.975,327.087L456.168,332.827L457.361,329.982L458.555,320.268L459.748,306.285L460.941,288.771L462.134,275.377L463.328,270.373L464.521,281.706L465.714,301.379L466.908,316.588L468.101,323.8L469.294,320.611L470.487,313.595L471.681,314.282L472.874,318.845L474.067,303.047L475.261,282.246L476.454,277.977L477.647,303.293L478.84,329.05L480.034,341.168L481.227,335.231L482.42,332.974L483.613,326.253L484.807,316.049L486,290.144L487.193,276.555L488.387,272.139L489.58,295.1L490.773,307.855L491.966,316.196L493.16,315.656L494.353,314.233L495.546,319.483L496.739,307.316L497.933,308.052L499.126,303.195L500.319,315.803L501.513,323.751L502.706,328.412L503.899,330.325L505.092,332.484L506.286,346.81L507.479,348.38L508.672,324.291L509.866,300.938L511.059,277.83L512.252,286.121L513.445,301.821L514.639,330.571L515.832,334.741L517.025,333.858L518.218,334.299L519.412,342.983L520.605,343.375L521.798,341.756L522.992,333.71L524.185,336.163L525.378,329.442L526.571,338.911L527.765,344.504L528.958,357.603L530.151,357.063L531.345,356.72L532.538,353.531L533.731,360.203L534.924,346.761L536.118,326.351L537.311,301.526L538.504,303.096L539.697,312.32L540.891,331.012L542.084,339.058L543.277,349.165L544.471,342.198L545.664,334.839L546.857,323.555L548.05,322.525L549.244,320.17L550.437,322.083L551.63,321.396L552.824,328.412L554.017,330.08L555.21,327.627L556.403,316.441L557.597,316.588L558.79,321.494L559.983,338.567L561.176,335.28L562.37,330.914L563.563,324.83L564.756,335.133L565.95,351.618L567.143,355.935L568.336,351.765L569.529,345.927L570.723,351.618L571.916,354.12L573.109,355.837L574.303,352.354L575.496,349.802L576.689,352.599L577.882,348.281L579.076,343.523L580.269,344.258L581.462,355.641L582.655,369.034L583.849,366.091L585.042,355.248L586.235,340.775L587.429,335.133L588.622,343.768L589.815,351.961L591.008,347.742L592.202,347.496L593.395,353.04L594.588,361.037L595.782,353.089L596.975,349.999L598.168,345.779L599.361,338.518L600.555,327.725L601.748,334.005L602.941,346.025L604.134,344.847L605.328,336.213L606.521,328.951L607.714,335.378L608.908,333.073L610.101,333.024L611.294,332.631L612.487,336.409L613.681,338.813L614.874,338.42L616.067,338.616L617.261,332.582L618.454,335.918L619.647,341.707L620.84,342.787L622.034,351.274L623.227,347.251L624.42,347.938L625.613,343.032L626.807,343.572L628,351.421L629.193,353.433L630.387,357.701L631.58,366.483L632.773,369.966L633.966,364.472L635.16,351.814L636.353,337.292L637.546,326.548L638.739,317.177L639.933,325.615L641.126,336.507L642.319,353.973L643.513,344.16L644.706,334.397L645.899,331.454L647.092,342.051L648.286,345.632L649.479,336.507L650.672,308.689L651.866,307.561L653.059,305.5L654.252,330.08L655.445,339.598L656.639,349.214L657.832,358.29L659.025,360.988L660.218,346.859L661.412,315.411L662.605,299.907L663.798,295.345L664.992,313.399L666.185,323.849L667.378,342.149L668.571,342.002L669.765,341.854L670.958,334.25L672.151,339.058L673.345,327.627L674.538,312.271L675.731,298.141L676.924,305.893L678.118,317.569L679.311,327.038L680.504,333.661L681.697,332.68L682.891,326.94L684.084,311.486L685.277,315.705L686.471,307.463L687.664,290.095L688.857,267.871L690.05,275.77L691.244,294.952L692.437,304.323L693.63,303.342L694.824,311.339L696.017,326.891L697.21,332.533L698.403,330.276L699.597,319.434L700.79,309.131L701.983,319.728L703.176,328.608L704.37,336.948L705.563,320.366L706.756,321.2L707.95,329.835L709.143,334.005L710.336,324.389L711.529,305.549L712.723,307.708L713.916,309.916L715.109,328.019L716.303,328.412L717.496,338.911L718.689,340.039L719.882,343.179L721.076,342.492L722.269,337.979L723.462,336.605L724.655,322.868L725.849,321.887L727.042,324.536L728.235,348.576L729.429,355.248L730.622,352.991L731.815,350.146L733.008,354.169L734.202,360.596L735.395,347.546L736.588,339.058L737.782,338.764L738.975,341.02L740.168,340.186L741.361,347.006L742.555,359.664L743.748,356.426L744.941,346.81L746.134,339.941L747.328,337.194L748.521,329.344L749.714,313.743L750.908,313.105L752.101,321.396L753.294,359.516L754.487,387.825L755.681,406.124L756.874,409.166L758.067,409.215L759.261,408.97L760.454,408.724L761.647,406.86L762.84,405.634L764.034,405.094L765.227,404.652L766.42,401.954L767.613,399.943L768.807,398.667L770,395.38"/></g></svg>