<svg xmlns="http://www.w3.org/2000/svg" width="830" height="470" fill="currentColor" class="plot-d6a7b5" font-family="system-ui, sans-serif" font-size="10" style="--plot-background:white;display:block;height:intrinsic;max-width:100%;color:#1e90ff" text-anchor="middle" viewBox="0 0 830 470">
    <style>
        :where(.plot-d6a7b5 text),:where(.plot-d6a7b5 tspan){white-space:pre}
    </style>
    <path stroke="currentColor" stroke-opacity=".1" d="
M60
410
h710
M60
378.557
h710
M60
347.114
h710
M60
315.671
h710
M60
284.227
h710
M60
252.784
h710
M60
221.341
h710
M60
189.898
h710
M60
158.455
h710
M60
127.012
h710
M60
95.568
h710
M60
64.125
h710" aria-hidden="true" aria-label="y-grid"/>
    <path fill="none" stroke="currentColor" d="
M60
410
h-6
m6
-31.443
h-6
m6
-31.443
h-6
m6
-31.444
h-6
m6
-31.443
h-6
m6
-31.443
h-6
m6
-31.443
h-6
m6
-31.443
h-6
m6
-31.443
h-6
m6
-31.443
h-6
m6
-31.444
h-6
m6
-31.443
h-6" aria-hidden="true" aria-label="y-axis tick"/>
    <g aria-label="y-axis tick label" font-variant="tabular-nums" text-anchor="end">
        <text y=".32em" transform="translate(51 410)">0</text>
        <text y=".32em" transform="translate(51 378.557)">5,000</text>
        <text y=".32em" transform="translate(51 347.114)">10,000</text>
        <text y=".32em" transform="translate(51 315.67)">15,000</text>
        <text y=".32em" transform="translate(51 284.227)">20,000</text>
        <text y=".32em" transform="translate(51 252.784)">25,000</text>
        <text y=".32em" transform="translate(51 221.341)">30,000</text>
        <text y=".32em" transform="translate(51 189.898)">35,000</text>
        <text y=".32em" transform="translate(51 158.455)">40,000</text>
        <text y=".32em" transform="translate(51 127.012)">45,000</text>
        <text y=".32em" transform="translate(51 95.568)">50,000</text>
        <text y=".32em" transform="translate(51 64.125)">55,000</text>
    </g>
    <text y=".71em" aria-label="y-axis label" text-anchor="start" transform="translate(3 3)">↑ Visible vestiges (30 days)</text>
    <path fill="none" stroke="currentColor" d="
M82.352
410
v6
m59.824
-6
v6
m60.481
-6
v6
m60.482
-6
v6
m59.824
-6
v6
m59.824
-6
v6
m60.482
-6
v6
m60.481
-6
v6
m59.167
-6
v6
m59.823
-6
v6
m60.482
-6
v6
m60.482
-6
v6" aria-hidden="true" aria-label="x-axis tick"/>
    <g aria-label="x-axis tick label" font-variant="tabular-nums">
        <text transform="translate(82.352 419)"><tspan x="0" y=".71em">Apr</tspan><tspan x="0" dy="1em">2023</tspan></text>
        <text y=".71em" transform="translate(142.176 419)">Jul</text>
        <text y=".71em" transform="translate(202.657 419)">Oct</text>
        <text transform="translate(263.139 419)"><tspan x="0" y=".71em">Jan</tspan><tspan x="0" dy="1em">2024</tspan></text>
        <text y=".71em" transform="translate(322.963 419)">Apr</text>
        <text y=".71em" transform="translate(382.787 419)">Jul</text>
        <text y=".71em" transform="translate(443.269 419)">Oct</text>
        <text transform="translate(503.75 419)"><tspan x="0" y=".71em">Jan</tspan><tspan x="0" dy="1em">2025</tspan></text>
        <text y=".71em" transform="translate(562.917 419)">Apr</text>
        <text y=".71em" transform="translate(622.74 419)">Jul</text>
        <text y=".71em" transform="translate(683.222 419)">Oct</text>
        <text transform="translate(743.704 419)"><tspan x="0" y=".71em">Jan</tspan><tspan x="0" dy="1em">2026</tspan></text>
    </g>
    <path fill="none" stroke="currentColor" stroke-linecap="round" stroke-linejoin="round" stroke-width="1.5" d="
m60
410
.438
-3.157
.439
-11.546
.438
-6.226
.438
-4.414
.438
-7.282
.439
-5.736
.438
-5.376
.438
-10.88
.438
-8.609
.439
-10.219
.438
-15.828
.438
-14.923
.439
-7.748
.438
-11.213
.438
-7.615
.438
-8.729
.439
-11.414
.438
-7.684
.438
-7.534
.438
-10.225
.439
-11.339
.438
-8.03
.438
-13.703
.439
-6.49
.438
-6.056
.438
-10.923
.438
-10.458
.439
-8.05
.438
-11.219
.438
-8.03
.438
1.358
.439
-9.565
.438
-8.112
.438
.025
.439
-1.824
.438
-.314
.438
6.282
.438
.082
.439
1.88
.438
10.012
.438
1.471
.438
-6.314
.439
-1.389
.438
-7.654
.438
-1.622
.438
2.597
.439
-4.327
.438
-2.515
.438
2.949
.439
-1.767
.438
-4.641
.438
1.881
.438
-10.458
.439
-10.037
.438
2.553
.438
-1.962
.438
-3.157
.439
1.176
.438
-3.031
.438
-3.169
.439
4.188
.438
-1.421
.438
-6.113
.438
-3.956
.439
-9.797
.438
-4.931
.438
-.069
.438
-3.653
.439
-4
.438
6.113
.438
4.603
.439
2.396
.438
5.754
.438
-2.132
.438
-3.553
.439
4.962
.438
.264
.438
-.365
.438
8.081
.439
4.893
.438
4.081
.438
8.728
.439
5.453
.438
-2.447
.438
3.975
.438
-.491
.439
1.83
.438
8.855
.438
1.037
.438
3.088
.439
9.339
.438
5.653
.438
4.075
.439
7.741
.438
-1.113
.438
-.66
.438
4.019
.439
2.886
.438
1.189
.438
3.571
.438
.548
.439
4.012
.438
6.892
.438
3.295
.439
-3.238
.438
1.716
.438
-2.735
.438
-1.968
.439
1.282
.438
-1.672
.438
1.779
.438
4.509
.439
2.629
.438
2.044
.438
3.962
.439
.018
.438
-2.075
.438
6.157
.438
2.056
.439
-1.031
.438
2.402
.438
-.044
.438
2.05
.439
5.503
.438
.78
.438
-3.044
.438
-1.107
.439
-4.308
.438
-.371
.438
2.484
.439
-1.905
.438
-1.176
.438
4.32
.438
.862
.439
.666
.438
2.597
.438
-4.301
.438
-1.817
.439
2.144
.438
-.987
.438
-1.975
.439
1.912
.438
.258
.438
-.39
.438
3.402
.439
1.075
.438
.422
.438
1.062
.438
-1.962
.439
-.176
.438
1.761
.438
-1.968
.439
-.34
.438
3.415
.438
5.54
.438
1.585
.439
4.396
.438
-.069
.438
.314
.438
2.025
.439
.176
.438
-.786
.438
3.918
.439
-.239
.438
1.421
.438
6.276
.438
1.723
.439
1.006
.438
2.899
.438
.327
.438
.34
.439
.025
.438
1.327
.438
-.994
.439
2.925
.438
-.566
.438
.251
.438
1.478
.439
-1.792
.438
-.044
.438
1.314
.438
-1.509
.439
-1.302
.438
-.107
.438
-2.654
.439
-1.339
.438
2.063
.438
.05
.438
-.686
.439
2.943
.438
-.924
.438
1.333
.438
2.679
.439
.327
.438
-.604
.438
2.145
.439
-.767
.438
-.623
.438
3.119
.438
-.603
.439
.239
.438
2.169
.438
-1.308
.438
-1.075
.439
1.176
.438
-1.365
.438
.836
.438
1.277
.439
-1.107
.438
.334
.438
1.867
.439
.491
.438
-1.321
.438
3.704
.438
2.333
.439
-1.094
.438
2.729
.438
-.924
.438
-.73
.439
1.516
.438
-2.038
.438
.013
.439
.019
.438
-2.377
.438
-1.585
.438
3.478
.439
-3.025
.438
-1.352
.438
1.195
.438
-1.585
.439
-.415
.438
1.679
.438
-1.73
.439
-1.201
.438
1.044
.438
-2.798
.438
-.22
.439
1.39
.438
-.629
.438
-2.201
.438
-1.61
.439
-4.107
.438
-1.32
h.438
l.439
-1.503
.438
-1.434
.438
2.993
.438
-1.855
.439
-.547
.438
2.365
.438
-1.327
.438
.295
.439
3.855
.438
-.604
.438
-2.647
.439
3.459
.438
-.195
.438
-2.415
.438
.918
.439
-3.119
.438
-.365
.438
.66
.438
-1.93
.439
-.736
.438
2.333
.438
-.685
.439
-.239
.438
2.817
.438
1.786
.438
3.308
.439
6.42
.438
1.164
.438
-.516
.438
1.698
.439
.352
.438
-1.327
.438
1.717
.439
.484
.438
-1.113
.438
2.082
.438
.874
.439
-.843
.438
1.252
.438
-.252
.438
.113
.439
1.233
.438
2.547
.438
2.723
.438
4.062
.439
1.503
.438
2.969
.438
5.056
.439
-1.12
.438
.686
.438
2.157
.438
-.724
.439
1.132
.438
1.925
.438
.773
.438
1.874
.439
1.453
.438
1.396
.438
.358
.439
.12
.438
-2.723
.438
-2.314
.438
1.345
.439
.019
.438
.793
.438
.742
.438
.264
.439
1.144
.438
3.082
.438
-.566
.439
-.704
.438
1.012
.438
-1.893
.438
1.195
.439
1.415
.438
-1.207
.438
-.403
.438
4.107
.439
-.158
.438
.396
.438
1.994
.439
-3.32
.438
-.9
.438
1.013
.438
-1.717
.439
.843
.438
1.257
.438
1.107
.438
1.415
.439
3.874
.438
1.339
.438
-2.207
.439
-.949
.438
-2.73
.438
-.32
.438
1.352
.439
.056
.438
-.126
.438
1.39
.438
.598
.439
.792
.438
2.522
.438
-4.201
.439
-3.214
.438
.082
.438
-.251
.438
.44
.439
3.037
.438
-.264
.438
1.39
.438
2.968
.439
-1.421
.438
-3.993
.438
-.359
.439
-3.232
.438
-.51
.438
.541
.438
-1.798
.439
.666
.438
2.151
.438
1.119
.438
.824
.439
2.887
.438
-.956
.438
-.082
.438
1.956
.439
-1.283
.438
.572
.438
3.132
.439
.465
.438
.189
.438
2.069
.438
.138
.439
-2.226
.438
-.113
.438
-1.151
.438
-.094
.439
1.182
.438
-.975
.438
.824
.439
3.603
.438
2.396
.438
2.359
.438
3.138
.439
-.233
.438
-.138
.438
3.282
.438
.554
.439
1.723
.438
2.54
.438
2.069
.439
1.22
.438
4.019
.438
-1.27
.438
-2.415
.439
.239
.438
-1.315
.438
-1.509
.438
.799
.439
-.484
.438
2.873
.438
2.899
.439
1.535
.438
.365
.438
.754
.438
-2.452
.439
.075
.438
.78
.438
-1.61
.438
-.824
.439
.415
.438
-2.836
.438
.227
.439
.729
.438
.214
.438
-1.409
.438
-.547
.439
-2.245
.438
-.019
.438
1.61
.438
-1.283
.439
-1.408
.438
2.584
.438
2.063
.439
2.094
.438
2.603
.438
.434
.438
-.629
.439
1.931
.438
-1.415
.438
-.346
.438
2.968
.439
1.491
.438
1.503
.438
2.893
.439
-.145
.438
-.264
.438
1.27
.438
.749
.439
1.1
.438
2.163
.438
.698
.438
1.183
.439
1
.438
.1
.438
1.346
.438
1.239
.439
-2.151
.438
-2.151
.438
1.491
.439
-.076
.438
-1.553
.438
-.346
.438
-1.327
.439
-.949
.438
-.195
.438
-1.006
.438
-1.359
.439
.843
.438
-.088
.438
-1.503
.439
-.591
.438
-2.579
.438
-.698
.438
1.541
.439
-.585
.438
1.113
.438
-.081
.438
-1.547
.439
1.025
.438
.018
.438
-1.251
.439
.258
.438
1.585
.438
.27
.438
1.245
.439
1.811
.438
.032
.438
-1.422
.438
-1.106
.439
-1.019
.438
.767
.438
1.22
.439
.396
.438
-.195
.438
-.025
.438
.069
.439
.68
.438
.125
.438
-1.05
.438
-2.912
.439
.755
.438
-1.742
.438
-.503
.439
1.836
.438
-1.597
.438
1.176
.438
2.094
.439
-2.779
.438
-2.925
.438
-.899
.438
-3.622
.439
-1.157
.438
-.686
.438
-1.723
.439
-.471
.438
.918
.438
-.837
.438
1.522
.439
.654
.438
-3.886
.438
-1.686
.438
-.591
.439
-1.132
.438
.78
.438
.635
.439
-2.616
.438
-.415
.438
-.176
.438
1.49
.439
-1.326
.438
-2.139
.438
-4.509
.438
-1.534
.439
-.912
.438
-4.471
.438
-2.006
.438
1.924
.439
1.554
.438
.704
.438
2.22
.439
-2.151
.438
-1.956
.438
1.233
.438
-.994
.439
-.868
.438
.082
.438
-1.503
.438
1.704
.439
2.585
.438
-.924
.438
-1.705
.439
1.365
.438
-1.855
.438
-.233
.438
1.541
.439
.226
.438
1.893
.438
1.403
.438
1.194
.439
3.541
.438
4.075
.438
-1.579
.439
.956
.438
3.214
.438
1.629
.438
.786
.439
.93
.438
.541
.438
1.591
.438
3.145
.439
.188
.438
-.855
.438
1.968
.439
-.591
.438
1.164
.438
2.735
.438
-.075
.439
.213
.438
2.736
.438
1.459
.438
-.415
.439
1.446
.438
-2.861
.438
-.547
.439
1.163
.438
1.881
.438
2.679
.438
3.597
.439
2.848
.438
2.862
.438
5.326
.438
2.943
.439
2.283
.438
2.088
.438
2.018
.439
2.516
.438
2.107
.438
1.245
.438
1.528
.439
3.358
.438
1.409
.438
-1.239
.438
1.811
.439
.736
.438
-.692
.438
.629
.439
1.182
.438
-.195
.438
.956
.438
.811
.439
.541
.438
2.748
.438
.566
h.438
l.439
-1.39
.438
-2.572
.438
-2.786
.438
-1.188
.439
-1.786
.438
-2.654
.438
-1.465
.439
-1.314
.438
-2.164
.438
-1.761
.438
-2.421
.439
-1.76
.438
-.994
.438
-1.597
.438
-.849
.439
-.415
.438
2.113
.438
.748
.439
1.207
.438
.296
.438
.113
.438
-.075
.439
-.397
.438
.441
.438
1.547
.438
.239
.439
.54
.438
1.283
.438
.459
.439
-.849
.438
.787
.438
.251
.438
-.528
.439
.484
.438
.648
.438
-.761
.438
-.786
.439
.824
.438
-.239
.438
.943
.439
.038
.438
-1.862
.438
-.333
.438
-1.302
h.439
l.438
-.339
.438
-.642
.438
-1.232
.439
-.195
.438
-.711
.438
-.579
.439
1.321
.438
-1.138
.438
-1.459
.438
.465
.439
-1.151
.438
.007
.438
.503
.438
1.547
.439
.289
.438
.604
.438
-.378
.439
-3.131
.438
-.157
.438
-1.101
.438
.786
.439
.006
.438
.22
.438
-1.018
.438
1.32
.439
1.17
.438
.145
.438
1.069
.439
-1.422
.438
-2.364
.438
.101
.438
-1.296
.439
.208
.438
.283
.438
-1.101
.438
-1.094
.439
1.144
.438
-.383
.438
-1.113
.438
1.39
.439
-2.246
.438
-.433
.438
-.73
.439
-1.119
.438
-.799
.438
.252
.438
1.371
.439
-.208
.438
.855
.438
-2.132
.438
-2.163
.439
-.761
.438
.271
.438
-2.447
.439
.032
.438
.182
.438
.164
.438
.446
.439
1.572
.438
-.452
.438
1.119
.438
-.862
.439
-.622
.438
2.981
.438
1.521
.439
-.037
.438
1.553
.438
-.352
.438
-.352
.439
2.572
.438
-.145
.438
-2.408
.438
1.213
.439
.61
.438
-1.025
.438
.925
.439
.999
.438
.642
.438
2.553
.438
2.107
.439
.836
.438
.661
.438
-.051
.438
-.371
.439
.466
.438
-1.126
.438
.522
.439
.126
.438
.836
.438
.635
.438
1.195
.439
.623
.438
-1.529
.438
.233
.438
.535
h.439
l.438
2.226
.438
.434
.439
-.529
.438
-.232
.438
1.855
.438
.126
.439
.742
.438
.629
.438
.176
.438
.163
.439
-.371
.438
-.918
.438
-.05
.439
-.145
.438
-.163
.438
1.238
.438
-.622
.439
-2.522
.438
.434
.438
-.585
.438
.308
.439
-.188
.438
-.874
.438
-.529
.438
.73
.439
.666
.438
-.729
.438
-.541
.439
-.56
.438
-1.521
.438
-.422
.438
-1.364
.439
-.981
.438
-.881
.438
-1.987
.438
-1.534
.439
-1.107
.438
-1.623
.438
-.566
.439
-.132
.438
-2.239
.438
-.603
.438
-.063
.439
-.748
.438
.27
.438
2.044
.438
-1.673
.439
-2.453
.438
-2.257
.438
-3.497
.439
-2.515
.438
-.598
.438
-3.112
.438
-3.755
.439
-1.459
.438
-1.22
.438
-1.66
.438
-1.239
.439
-.748
.438
-1.975
.438
.692
.439
1.534
.438
.239
.438
1.591
.438
1.114
.439
.974
.438
1.359
.438
-.818
.438
-.792
.439
1.144
.438
-.195
.438
-.434
.439
.629
.438
.019
.438
-.339
.438
4.842
.439
3.899
.438
3.572
.438
3.685
.438
3.163
.439
1.22
.438
3.597
.438
3.629
.439
1.823
.438
1.327
.438
2.264
.438
.899
.439
1.95
.438
2.176
.438
1.22
.438
-.529
.439
.761
.438
-.289
.438
.283
.439
.522
.438
.874
.438
1.063
.438
2.151
.439
1.911
.438
1.051
.438
1.314
.438
.151
.439
.277
.438
-.095
.438
-.44
.438
-.566
.439
-.057
.438
-.232
.438
-.057
.439
-.289
.438
-1.679
.438
-1.327
.438
-2.616
.439
-.05
.438
-.598
.438
.39
.438
.484
.439
-.207
.438
-.635
.438
.075
.439
-.503
.438
-2.905
.438
-.629
.438
.465
.439
-1.641
.438
-.233
.438
.05
.438
-.742
.439
-.283
.438
-.163
.438
-.302
.439
-1.006
.438
-1.176
.438
-2.264
.438
.283
.439
.251
.438
.139
.438
-.346
.438
1.302
.439
1.886
.438
1.239
.438
3.138
.439
.201
.438
.592
.438
1.025
h.438
l.439
1.358
.438
.88
.438
.315
.438
1.264
.439
3.779
.438
-.176
.438
-.434
.439
1.371
.438
-.629
.438
.29
.438
1.113
.439
.069
.438
.371
.438
1.333
.438
1.384
.439
1.786
.438
2.723
.438
-.919
.439
-.195
.438
1.277
.438
.962
h.438
l.439
-.232
.438
.333
.438
-1.113
.438
.49
.439
-.742
.438
-1.924
.438
-.893
.439
-2.453
.438
-1.062
.438
.339
.438
.12
.439
-.233
.438
.736
.438
.603
.438
.598
.439
.566
.438
-1.164
.438
-1.119
.438
.547
.439
-.912
.438
.252
.438
.358
.439
-1.018
.438
-.195
.438
1.15
.438
.095
.439
-1.195
.438
-.943
.438
-.793
.438
.315
.439
-.126
.438
.283
.438
-.421
.439
.742
.438
1.106
.438
.887
.438
1.748
.439
.032
.438
-.786
.438
.503
.438
.1
.439
.158
.438
.295
.438
-.239
.439
.855
.438
1.315
.438
.754
.438
.428
.439
1.528
.438
-.119
.438
-.29
.438
1.208
.439
.471
.438
-.138
.438
-.742
.439
.352
.438
-.371
.438
.937
.438
-.094
.439
.534
.438
.459
.438
.271
.438
.736
.439
.981
.438
-.176
.438
.345
.439
1.202
.438
.327
.438
-1.013
.438
.271
.439
-.359
.438
-.05
.438
-.503
.438
-.334
.439
-.106
.438
.471
.438
-.71
.439
-.749
.438
-.365
.438
-.999
.438
-.032
.439
-.924
h.438
l.438
1.031
.438
.522
.439
.893
.438
-.025
.438
.075
.439
-.245
.438
-.566
.438
-.277
.438
-2.402
.439
-1.302
.438
-.276
.438
-.918
.438
-.478
.439
.496
.438
-.547
.438
-1.528
.438
.472
.439
-1.308
.438
.421
.438
.509
.439
-.93
.438
-.29
.438
.158
.438
.264
.439
-.516
.438
1.145
.438
-.591
.438
.427
.439
-.082
.438
.063
.438
-.302
.439
.026
.438
-.371
.438
-.654
.438
-.126
.439
-.403
.438
.145
.438
1.66
.438
.459
.439
.088
.438
.283
.438
-.371
.439
.088
.438
1.648
.438
.868
.438
-.076
.439
1.032
.438
-.246
.438
-1.012
.438
-1.044
.439
-2.239
.438
-1.195
.438
-.471
.439
.314
.438
-.044
.438
-.012
.438
-.592
.439
.283
.438
.095
.438
-1.227
.438
-1.05
.439
.113
.438
-.138
.438
-.277
.439
.755
.438
-.201
.438
-.648
.438
-.685
.439
.094
.438
.22
.438
.855
.438
.038
.439
-.34
.438
1.164
.438
-.793
.439
.315
.438
.094
.438
-.113
.438
1
.439
1.025
.438
.22
.438
-.214
.438
-.05
.439
-1.365
h.438
l.438
.453
.439
-1.063
.438
-.471
.438
.735
.438
-.182
.439
-.075
.438
.584
.438
-.44
.438
.088
.439
-.912
.438
.692
.438
.132
.438
-.377
.439
.327
.438
-.05
.438
-.202
.439
-1.798
.438
-2.34
.438
.365
.438
-1.509
.439
-.038
.438
.113
.438
-1.188
.438
.157
.439
.333
.438
-.346
.438
.239
.439
.919
.438
-.177
.438
-.295
.438
.748
.439
-.289
.438
.314
.438
.705
.438
-1.189
.439
-.522
.438
.862
.438
.27
.439
1.138
.438
.088
.438
1.063
.438
1.12
.439
.358
.438
-.295
.438
.773
.438
2.05
.439
1.535
.438
.578
.438
1.371
.439
-.163
.438
.968
.438
1.365
.438
1.207
.439
-.069
.438
1.006
.438
-.321
.438
.95
.439
.704
.438
-.465
.438
.346
.439
.408
.438
.724
.438
.673
.438
.811
.439
.824
.438
.195
.438
.729
.438
.352
.439
.837
.438
.314
.438
.195
.439
-.56
.438
-.063
.438
-.66
.438
.428
.439
.478
.438
.603
.438
.673
.438
1.484
.439
-.32
.438
.553
.438
-.101
.439
1.497
.438
.069
.438
.843
.438
-.585
.439
.409
.438
1.522
.438
.591
.438
.163
.439
-.49
.438
.094
.438
.811
.438
.258
.439
.378
.438
-.139
.438
.679
.439
.158
.438
.377
.438
-.182
.438
1.27
.439
1.044
.438
1.207
.438
.12
.438
.603
.439
.478
.438
.202
.438
.094
.439
1.107
.438
.553
.438
.39
.438
.157
.439
.403
.438
.704
.438
.692
.438
-.101
.439
.044
.438
.208
.438
.125
.439
.73
.438
.516
.438
.32
.438
.176
.439
.038
.438
.315
.438
.132
.438
.05
.439
.27
.438
.453
.438
-.352
.439
-.019
.438
-.182
.438
-.271
.438
-.566
.439
-.32
.438
-.258
.438
-.378
.438
-.05
.439
-.176
.438
-.088
.438
-.113
.439
-.554
.438
-.805
.438
-.037
.438
-.365
.439
.189
.438
.006
.438
.717
.438
-.302
.439
-.824
.438
.113
.438
-.44
.439
-.22
.438
-.233
.438
-.239
.438
-.025
.439
-.201
.438
-.151
.438
-.201
.438
-.189
.439
-.409
.438
.007
.438
.61
.439
-.258
.438
.088
.438
.258
.438
.138
.439
.195
.438
.403
.438
-.07
.438
.365
.439
.629
.438
.094
.438
.579
.438
.107
.439
.056
.438
-.012
.438
.44
.439
.572
.438
-.037
.438
.578
.438
-.182
.439
-.202
.438
-.012
.438
-.302
.438
-.34
.439
-.194
.438
.377
.438
.088
.439
.113
.438
.113
.438
-.17
.438
.214
.439
-.503
.438
.113
.438
-.125
.438
-.132
.439
-.548
.438
.07
.438
-.365
.439
-.403
.438
.063
.438
-.981
.438
-.541
.439
-.069
.438
-.509
h.438
l.438
-.006
.439
.239
.438
-.038
.438
.641
.439
.365
.438
-.057
.438
.151
.438
.107
.439
.057
.438
-.78
.438
.126
.438
.163
.439
.315
.438
-.245
.438
.031
.439
-.006
.438
-.051
.438
-.251
.438
-.252
.439
.239
.438
.145
.438
.283
.438
.094
.439
.315
.438
.83
.438
.314
.439
-.339
.438
.32
.438
-.195
.438
.239
.439
-.717
.438
-.515
.438
-.264
.438
-.12
.439
-.478
.438
-.063
.438
.271
.439
.421
.438
.761
.438
.157
.438
-.251
.439
-.214
.438
.402
.438
.346
.438
.308
.439
.132
.438
-.113
.438
.277
.438
.327
.439
.119
.438
.636
.438
.371
.439
-.038
.438
.182
.438
.076
.438
.484
.439
.283
.438
.239
.438
.138
.438
.415
.439
.164
.438
.396
.438
-.164
.439
-.031
.438
-.937
.438
-.673
.438
-.075
.439
.037
.438
-.157
.438
.447
.438
.157
.439
-.239
.438
-.478
.438
-.189
.439
-.308
.438
.277
.438
.402
.438
-.012
.439
-.698
.438
-.315
.438
-.138
.438
-.277
.439
-.157
.438
-.245
.438
-.29
.439
-.679
.438
.145
.438
.101
.438
.125
.439
.434
.438
.082
.438
-.371
.438
.654
.439
.711
.438
.301
.438
.277
.439
.271
.438
.345
.438
.195
.438
.076
.439
.239
.438
.591
.438
.302
.438
.144
.439
.007
.438
-.069
.438
.289
.439
.748
.438
.308
.438
.246
.438
.352
.439
.025
.438
.138
.438
-.698
.438
-.346
.439
-.635
.438
-.126
.438
.221
.439
-.145
.438
-.434
.438
.553
.438
-.125
.439
-.353
.438
-.062
.438
-.447
.438
-.748
.439
-.321
.438
-.138
.438
-.189
.438
-.013
.439
-.496
.438
-.139
.438
-.025
.439
.132
.438
-.534
.438
-.547
.438
-.774
.439
-.22
.438
.006
.438
-.038
.438
.101
.439
.176
.438
.969
.438
1.119
.439
.491
.438
.144
.438
-.314
.438
.1
.439
-.107
.438
.202
.438
.201
.438
.761
.439
.61
.438
-.019
.438
.365
.439
-.145
.438
-.063
.438
.239
h.438
l.439
.289
.438
.202
.438
.188
.438
-.125
.439
.144
.438
.063
.438
.774
.439
-.088
.438
-.214
.438
-.157
.438
.075
.439
.075
.438
.164
.438
.057
.438
-.095
.439
.032
.438
.044
.438
.012
.439
.56
.438
-.069
.438
.031
.438
-.05
.439
-.151
.438
.057
.438
.339
.438
.327
.439
.264
.438
-.012
.438
.006
.439
-.358
.438
.377
.438
-.233
.438
-.056
.439
.383
.438
.17
.438
-.277
.438
-.069
.439
-.283
.438
-.302
.438
-.226
.439
-.371
.438
-.082
.438
-.189
.438
.12
.439
-.145
.438
.227
.438
.327
.438
-.044
.439
-.032
.438
-.019
.438
.189
.438
.17
.439
.056
.438
-.062
.438
-.283
.439
-.12
.438
-.044
.438
.038
.438
.364
.439
-.062
.438
.169
.438
-.257
.438
-.057
.439
.05
.438
-.006
.438
.365
.439
.364
.438
.252
.438
.075
.438
.566
.439
-.402
.438
-.069
.438
.012
.438
-.031
.439
-.478
.438
-.195
.438
-.239
.439
.019
.438
.031
.438
-.427
.438
.17
.439
.352
.438
-.302
.438
-.239
.438
-.208
.439
.12
.438
.126
.438
.239
.439
-.076
h.438
l.438
.327
.438
-.434
.439
-.1
.438
.025
.438
-.139
.438
-.503
.439
-.283
.438
.176
.438
-.308
.439
.378
.438
.069
.438
.082
.438
-.089
.439
.321
.438
-.113
.438
-.138
.438
-1.063
.439
-.403
.438
.082
.438
-.805
.439
-.685
.438
.119
.438
-.22
.438
.296
.439
-.453
.438
-.164
.438
-.478
h.438
l.439
-.421
.438
-.063
.438
.233
.439
-.101
.438
-.094
.438
-.409
.438
.007
.439
.377
.438
-.032
.438
-.39
.438
-.276
.439
-.227
.438
-.478
.438
-.113
.438
-.195
.439
.025
.438
-.238
.438
.974
.439
.208
.438
-.201
.438
.327
.438
-.195
.439
-.233
.438
.786
.438
-.239
.438
.245
.439
.076
.438
-.491
.438
-.201
.439
.214
.438
-.05
.438
-.34
.438
.251
.439
.271
.438
.396
.438
.572
.438
-.383
.439
-.176
.438
.383
.438
.334
.439
.333
.438
.415
.438
-.315
.438
-.056
.439
-.308
.438
.069
.438
-1.038
.438
-.899
.439
-.541
.438
-.333" aria-label="line"/>
</svg>
