<?xml version="1.0"?>
<svg xmlns="http://www.w3.org/2000/svg" xmlns:xlink="http://www.w3.org/1999/xlink" class="plot-d6a7b5" fill="currentColor" font-family="system-ui, sans-serif" font-size="10" text-anchor="middle" width="830" height="470" viewBox="0 0 830 470" color="#1e90ff">
  <style>:where(.plot-d6a7b5){--plot-background: white;display:block;height:intrinsic;max-width:100%}:where(.plot-d6a7b5 text),:where(.plot-d6a7b5 tspan){white-space:pre}</style>
  <g aria-label="y-grid" stroke="currentColor" stroke-opacity=".1">
    <line x1="60" x2="770" y1="410" y2="410"/>
    <line x1="60" x2="770" y1="384.625" y2="384.625"/>
    <line x1="60" x2="770" y1="359.249" y2="359.249"/>
    <line x1="60" x2="770" y1="333.874" y2="333.874"/>
    <line x1="60" x2="770" y1="308.498" y2="308.498"/>
    <line x1="60" x2="770" y1="283.123" y2="283.123"/>
    <line x1="60" x2="770" y1="257.748" y2="257.748"/>
    <line x1="60" x2="770" y1="232.372" y2="232.372"/>
    <line x1="60" x2="770" y1="206.997" y2="206.997"/>
    <line x1="60" x2="770" y1="181.621" y2="181.621"/>
    <line x1="60" x2="770" y1="156.246" y2="156.246"/>
    <line x1="60" x2="770" y1="130.87" y2="130.87"/>
    <line x1="60" x2="770" y1="105.495" y2="105.495"/>
    <line x1="60" x2="770" y1="80.12" y2="80.12"/>
  </g>
  <g aria-label="y-axis tick" fill="none" stroke="currentColor">
    <path transform="translate(60,410)" d="M0,0L-6,0"/>
    <path transform="translate(60,384.6245889183405)" d="M0,0L-6,0"/>
    <path transform="translate(60,359.24917783668093)" d="M0,0L-6,0"/>
    <path transform="translate(60,333.8737667550214)" d="M0,0L-6,0"/>
    <path transform="translate(60,308.4983556733619)" d="M0,0L-6,0"/>
    <path transform="translate(60,283.12294459170243)" d="M0,0L-6,0"/>
    <path transform="translate(60,257.74753351004284)" d="M0,0L-6,0"/>
    <path transform="translate(60,232.37212242838334)" d="M0,0L-6,0"/>
    <path transform="translate(60,206.99671134672383)" d="M0,0L-6,0"/>
    <path transform="translate(60,181.6213002650643)" d="M0,0L-6,0"/>
    <path transform="translate(60,156.24588918340476)" d="M0,0L-6,0"/>
    <path transform="translate(60,130.87047810174525)" d="M0,0L-6,0"/>
    <path transform="translate(60,105.49506702008571)" d="M0,0L-6,0"/>
    <path transform="translate(60,80.1196559384262)" d="M0,0L-6,0"/>
  </g>
  <g aria-label="y-axis tick label" text-anchor="end" font-variant="tabular-nums">
    <text y=".32em" transform="translate(-9,0) translate(60,410)">0</text>
    <text y=".32em" transform="translate(-9,0) translate(60,384.6245889183405)">50,000</text>
    <text y=".32em" transform="translate(-9,0) translate(60,359.24917783668093)">100,000</text>
    <text y=".32em" transform="translate(-9,0) translate(60,333.8737667550214)">150,000</text>
    <text y=".32em" transform="translate(-9,0) translate(60,308.4983556733619)">200,000</text>
    <text y=".32em" transform="translate(-9,0) translate(60,283.12294459170243)">250,000</text>
    <text y=".32em" transform="translate(-9,0) translate(60,257.74753351004284)">300,000</text>
    <text y=".32em" transform="translate(-9,0) translate(60,232.37212242838334)">350,000</text>
    <text y=".32em" transform="translate(-9,0) translate(60,206.99671134672383)">400,000</text>
    <text y=".32em" transform="translate(-9,0) translate(60,181.6213002650643)">450,000</text>
    <text y=".32em" transform="translate(-9,0) translate(60,156.24588918340476)">500,000</text>
    <text y=".32em" transform="translate(-9,0) translate(60,130.87047810174525)">550,000</text>
    <text y=".32em" transform="translate(-9,0) translate(60,105.49506702008571)">600,000</text>
    <text y=".32em" transform="translate(-9,0) translate(60,80.1196559384262)">650,000</text>
  </g>
  <g aria-label="y-axis label" text-anchor="start">
    <text y=".71em" transform="translate(-57,-57) translate(60,60)">&#x2191; Total Vestiges</text>
  </g>
  <g aria-label="x-axis tick" fill="none" stroke="currentColor">
    <path transform="translate(86.72324723247232,410)" d="M0,0L0,6"/>
    <path transform="translate(158.24723247232475,410)" d="M0,0L0,6"/>
    <path transform="translate(230.55719557195573,410)" d="M0,0L0,6"/>
    <path transform="translate(302.8671586715867,410)" d="M0,0L0,6"/>
    <path transform="translate(374.3911439114391,410)" d="M0,0L0,6"/>
    <path transform="translate(445.91512915129147,410)" d="M0,0L0,6"/>
    <path transform="translate(518.2250922509226,410)" d="M0,0L0,6"/>
    <path transform="translate(590.5350553505534,410)" d="M0,0L0,6"/>
    <path transform="translate(661.2730627306272,410)" d="M0,0L0,6"/>
    <path transform="translate(732.7970479704798,410)" d="M0,0L0,6"/>
  </g>
  <g aria-label="x-axis tick label" font-variant="tabular-nums">
    <text transform="translate(0,9) translate(86.72324723247232,410)">
      <tspan x="0" y=".71em">Apr</tspan>
      <tspan x="0" dy="1em">2023</tspan>
    </text>
    <text y=".71em" transform="translate(0,9) translate(158.24723247232475,410)">Jul</text>
    <text y=".71em" transform="translate(0,9) translate(230.55719557195573,410)">Oct</text>
    <text transform="translate(0,9) translate(302.8671586715867,410)">
      <tspan x="0" y=".71em">Jan</tspan>
      <tspan x="0" dy="1em">2024</tspan>
    </text>
    <text y=".71em" transform="translate(0,9) translate(374.3911439114391,410)">Apr</text>
    <text y=".71em" transform="translate(0,9) translate(445.91512915129147,410)">Jul</text>
    <text y=".71em" transform="translate(0,9) translate(518.2250922509226,410)">Oct</text>
    <text transform="translate(0,9) translate(590.5350553505534,410)">
      <tspan x="0" y=".71em">Jan</tspan>
      <tspan x="0" dy="1em">2025</tspan>
    </text>
    <text y=".71em" transform="translate(0,9) translate(661.2730627306272,410)">Apr</text>
    <text y=".71em" transform="translate(0,9) translate(732.7970479704798,410)">Jul</text>
  </g>
  <g aria-label="line" fill="none" stroke="currentColor" stroke-width="1.5" stroke-linejoin="round" stroke-linecap="round">
    <path d="M60,410L60.524,409.745L61.048,408.813L61.572,408.311L62.096,407.955L62.62,407.367L63.144,406.904L63.668,406.47L64.192,405.592L64.716,404.898L65.24,404.073L65.764,402.795L66.288,401.591L66.812,400.966L67.336,400.061L67.86,399.446L68.384,398.742L68.908,397.821L69.432,397.201L69.956,396.593L70.48,395.767L71.004,394.852L71.528,394.204L72.052,393.098L72.576,392.575L73.1,392.086L73.624,391.204L74.148,390.36L74.672,389.711L75.196,388.805L75.72,387.903L76.244,387.08L76.768,385.806L77.292,384.795L77.815,384.209L78.339,383.599L78.863,383.14L79.387,382.769L79.911,382.081L80.435,381.408L80.959,380.939L81.483,379.853L82.007,378.718L82.531,377.701L83.055,376.469L83.579,375.634L84.103,374.922L84.627,373.953L85.151,373.142L85.675,372.555L86.199,371.497L86.723,370.474L87.247,369.52L87.771,368.152L88.295,366.854L88.819,366.178L89.343,365.176L89.867,364.271L90.391,363.461L90.915,362.314L91.439,361.236L91.963,360.299L92.487,359.174L93.011,358.095L93.535,357.165L94.059,355.915L94.583,355.146L95.107,354.453L95.631,353.485L96.155,352.693L96.679,352.1L97.203,351.337L97.727,350.513L98.251,349.746L98.775,348.738L99.299,347.74L99.823,347.171L100.347,346.381L100.871,345.765L101.395,345.359L101.919,344.731L102.443,344.107L102.967,343.443L103.491,342.585L104.015,341.712L104.539,341.03L105.063,340.086L105.587,339.423L106.111,338.99L106.635,337.996L107.159,337.309L107.683,336.937L108.207,336.314L108.731,335.714L109.255,335.089L109.779,334.23L110.303,333.483L110.827,332.839L111.351,332.28L111.875,331.784L112.399,331.309L112.923,330.529L113.446,330.085L113.97,329.634L114.494,328.902L115.018,328.071L115.542,327.42L116.066,326.583L116.59,326.019L117.114,325.494L117.638,324.735L118.162,324.215L118.686,323.72L119.21,323.059L119.734,322.543L120.258,321.918L120.782,321.257L121.306,320.657L121.83,320.159L122.354,319.638L122.878,319.183L123.402,318.754L123.926,318.15L124.45,317.69L124.974,317.276L125.498,316.592L126.022,315.702L126.546,315.054L127.07,314.21L127.594,313.705L128.118,313.126L128.642,312.528L129.166,311.982L129.69,311.598L130.214,310.837L130.738,310.24L131.262,309.612L131.786,308.701L132.31,308.03L132.834,307.443L133.358,306.844L133.882,306.19L134.406,305.683L134.93,305.187L135.454,304.532L135.978,304.145L136.502,303.631L137.026,303.168L137.55,302.733L138.074,302.119L138.598,301.676L139.122,301.214L139.646,300.595L140.17,300.153L140.694,299.745L141.218,299.303L141.742,298.782L142.266,298.293L142.79,297.782L143.314,297.229L143.838,296.794L144.362,296.262L144.886,295.815L145.41,295.371L145.934,294.754L146.458,294.241L146.982,293.836L147.506,293.304L148.03,292.799L148.554,292.433L149.077,291.805L149.601,291.326L150.125,290.833L150.649,290.284L151.173,289.817L151.697,289.539L152.221,289.03L152.745,288.615L153.269,288.121L153.793,287.533L154.317,287.068L154.841,286.555L155.365,285.991L155.889,285.478L156.413,285.027L156.937,284.292L157.461,283.695L157.985,283.351L158.509,282.801L159.033,282.311L159.557,282.017L160.081,281.495L160.605,281.158L161.129,280.758L161.653,280.271L162.177,279.818L162.701,279.459L163.225,278.891L163.749,278.476L164.273,278.1L164.797,277.572L165.321,277.097L165.845,276.724L166.369,276.151L166.893,275.787L167.417,275.373L167.941,274.848L168.465,274.421L168.989,273.936L169.513,273.381L170.037,272.896L170.561,272.483L171.085,272.009L171.609,271.451L172.133,271.015L172.657,270.606L173.181,270.174L173.705,269.844L174.229,269.28L174.753,268.927L175.277,268.528L175.801,268.026L176.325,267.627L176.849,267.142L177.373,266.496L177.897,266.009L178.421,265.723L178.945,265.063L179.469,264.578L179.993,264.146L180.517,263.544L181.041,263.137L181.565,262.7L182.089,262.196L182.613,261.685L183.137,261.244L183.661,260.591L184.185,260.089L184.708,259.646L185.232,259.11L185.756,258.519L186.28,257.915L186.804,257.026L187.328,256.484L187.852,256.075L188.376,255.521L188.9,255.076L189.424,254.753L189.948,254.25L190.472,253.807L190.996,253.496L191.52,252.99L192.044,252.528L192.568,252.194L193.092,251.658L193.616,251.158L194.14,250.777L194.664,250.277L195.188,249.65L195.712,249.122L196.236,248.463L196.76,247.997L197.284,247.546L197.808,246.879L198.332,246.379L198.856,245.914L199.38,245.357L199.904,244.895L200.428,244.586L200.952,244.139L201.476,243.802L202,243.432L202.524,242.983L203.048,242.532L203.572,242.116L204.096,241.699L204.62,241.269L205.144,240.905L205.668,240.5L206.192,240.1L206.716,239.761L207.24,239.371L207.764,238.968L208.288,238.534L208.812,238.013L209.336,237.642L209.86,237.24L210.384,236.819L210.908,236.511L211.432,236.18L211.956,235.835L212.48,235.624L213.004,235.365L213.528,234.774L214.052,234.365L214.576,233.981L215.1,233.461L215.624,233.244L216.148,232.952L216.672,232.678L217.196,232.458L217.72,232.127L218.244,231.789L218.768,231.401L219.292,230.994L219.815,230.345L220.339,229.793L220.863,229.498L221.387,229.099L221.911,228.824L222.435,228.493L222.959,228.112L223.483,227.77L224.007,227.498L224.531,227.081L225.055,226.623L225.579,226.284L226.103,225.822L226.627,225.588L227.151,225.357L227.675,225.048L228.199,224.757L228.723,224.498L229.247,224.076L229.771,223.724L230.295,223.365L230.819,222.879L231.343,222.515L231.867,222.322L232.391,221.965L232.915,221.701L233.439,221.465L233.963,221.166L234.487,220.874L235.011,220.537L235.535,220.093L236.059,219.619L236.583,219.144L237.107,218.649L237.631,218.292L238.155,218.02L238.679,217.683L239.203,217.401L239.727,217.096L240.251,216.686L240.775,216.41L241.299,216.153L241.823,215.579L242.347,215.089L242.871,214.787L243.395,214.475L243.919,214.252L244.443,214.075L244.967,213.702L245.491,213.455L246.015,213.209L246.539,212.73L247.063,212.215L247.587,211.828L248.111,211.304L248.635,211.026L249.159,210.772L249.683,210.334L250.207,210.05L250.731,209.781L251.255,209.397L251.779,208.988L252.303,208.726L252.827,208.292L253.351,208.014L253.875,207.834L254.399,207.448L254.923,207.19L255.446,207.032L255.97,206.795L256.494,206.552L257.018,206.146L257.542,205.667L258.066,205.185L258.59,204.864L259.114,204.547L259.638,204.363L260.162,204.086L260.686,203.76L261.21,203.58L261.734,203.392L262.258,203.071L262.782,202.874L263.306,202.603L263.83,202.307L264.354,202.041L264.878,201.868L265.402,201.629L265.926,201.499L266.45,201.32L266.974,201.078L267.498,200.915L268.022,200.805L268.546,200.424L269.07,200.049L269.594,199.683L270.118,199.318L270.642,199.039L271.166,198.866L271.69,198.584L272.214,198.41L272.738,198.165L273.262,197.807L273.786,197.515L274.31,197.26L274.834,196.878L275.358,196.606L275.882,196.343L276.406,196.034L276.93,195.779L277.454,195.491L277.978,195.066L278.502,194.813L279.026,194.575L279.55,194.327L280.074,194.04L280.598,193.757L281.122,193.446L281.646,193.266L282.17,193.153L282.694,192.886L283.218,192.663L283.742,192.491L284.266,192.283L284.79,192.085L285.314,191.93L285.838,191.686L286.362,191.462L286.886,191.337L287.41,191.048L287.934,190.775L288.458,190.656L288.982,190.485L289.506,190.351L290.03,190.202L290.554,189.919L291.077,189.635L291.601,189.428L292.125,189.234L292.649,189.034L293.173,188.784L293.697,188.587L294.221,188.445L294.745,188.277L295.269,187.999L295.793,187.825L296.317,187.613L296.841,187.259L297.365,186.973L297.889,186.827L298.413,186.597L298.937,186.3L299.461,186.064L299.985,185.759L300.509,185.528L301.033,185.268L301.557,184.963L302.081,184.727L302.605,184.506L303.129,184.226L303.653,183.987L304.177,183.768L304.701,183.425L305.225,183.22L305.749,183.062L306.273,182.73L306.797,182.613L307.321,182.413L307.845,182.088L308.369,181.92L308.893,181.725L309.417,181.482L309.941,181.335L310.465,181.184L310.989,181.032L311.513,180.921L312.037,180.713L312.561,180.43L313.085,180.169L313.609,179.85L314.133,179.47L314.657,179.296L315.181,179.09L315.705,178.89L316.229,178.615L316.753,178.308L317.277,178.078L317.801,177.912L318.325,177.642L318.849,177.318L319.373,176.864L319.897,176.582L320.421,176.237L320.945,176.037L321.469,175.854L321.993,175.608L322.517,175.502L323.041,175.347L323.565,174.955L324.089,174.524L324.613,174.208L325.137,173.769L325.661,173.525L326.185,173.317L326.708,173.067L327.232,172.821L327.756,172.612L328.28,172.283L328.804,172.087L329.328,171.76L329.852,171.272L330.376,170.93L330.9,170.683L331.424,170.316L331.948,170.072L332.472,169.893L332.996,169.516L333.52,169.213L334.044,168.874L334.568,168.541L335.092,168.152L335.616,167.634L336.14,167.071L336.664,166.763L337.188,166.444L337.712,165.977L338.236,165.66L338.76,165.423L339.284,165.118L339.808,164.859L340.332,164.598L340.856,164.181L341.38,163.815L341.904,163.665L342.428,163.339L342.952,163.06L343.476,162.737L344,162.42L344.524,162.23L345.048,161.951L345.572,161.535L346.096,161.15L346.62,160.893L347.144,160.499L347.668,160.302L348.192,160.049L348.716,159.764L349.24,159.578L349.764,159.358L350.288,159.066L350.812,158.833L351.336,158.599L351.86,158.164L352.384,157.922L352.908,157.715L353.432,157.529L353.956,157.355L354.48,157.125L355.004,156.91L355.528,156.778L356.052,156.614L356.576,156.264L357.1,156.044L357.624,155.877L358.148,155.55L358.672,155.322L359.196,155.225L359.72,155.029L360.244,154.768L360.768,154.572L361.292,154.305L361.815,154.014L362.339,153.737L362.863,153.309L363.387,153.012L363.911,152.821L364.435,152.787L364.959,152.783L365.483,152.781L366.007,152.778L366.531,152.775L367.055,152.77L367.579,152.765L368.103,152.742L368.627,152.725L369.151,152.714L369.675,152.687L370.199,152.642L370.723,152.61L371.247,152.569L371.771,152.49L372.295,152.384L372.819,152.117L373.343,151.937L373.867,151.768L374.391,151.615L374.915,151.47L375.439,151.304L375.963,151.092L376.487,150.902L377.011,150.678L377.535,150.444L378.059,150.237L378.583,149.986L379.107,149.795L379.631,149.649L380.155,149.437L380.679,149.21L381.203,149.112L381.727,148.964L382.251,148.745L382.775,148.622L383.299,148.493L383.823,148.301L384.347,148.149L384.871,147.926L385.395,147.739L385.919,147.627L386.443,147.457L386.967,147.31L387.491,147.17L388.015,147.074L388.539,146.953L389.063,146.882L389.587,146.753L390.111,146.617L390.635,146.445L391.159,146.201L391.683,146.047L392.207,145.947L392.731,145.733L393.255,145.57L393.779,145.422L394.303,145.268L394.827,145.053L395.351,144.905L395.875,144.699L396.399,144.557L396.923,144.449L397.446,144.282L397.97,144.098L398.494,143.905L399.018,143.78L399.542,143.608L400.066,143.461L400.59,143.277L401.114,143.015L401.638,142.819L402.162,142.566L402.686,142.426L403.21,142.303L403.734,142.131L404.258,141.96L404.782,141.815L405.306,141.622L405.83,141.403L406.354,141.266L406.878,141.02L407.402,140.802L407.926,140.625L408.45,140.37L408.974,140.222L409.498,140.109L410.022,140.019L410.546,139.894L411.07,139.736L411.594,139.565L412.118,139.203L412.642,139.024L413.166,138.751L413.69,138.622L414.214,138.497L414.738,138.343L415.262,138.114L415.786,138.036L416.31,137.869L416.834,137.684L417.358,137.517L417.882,137.263L418.406,136.948L418.93,136.784L419.454,136.509L419.978,136.382L420.502,136.211L421.026,135.903L421.55,135.678L422.074,135.524L422.598,135.275L423.122,135.009L423.646,134.865L424.17,134.537L424.694,134.388L425.218,134.239L425.742,134.024L426.266,133.802L426.79,133.651L427.314,133.4L427.838,133.204L428.362,132.999L428.886,132.699L429.41,132.399L429.934,132.183L430.458,131.976L430.982,131.701L431.506,131.536L432.03,131.366L432.554,131.213L433.077,130.995L433.601,130.807L434.125,130.607L434.649,130.421L435.173,130.224L435.697,130.004L436.221,129.936L436.745,129.834L437.269,129.677L437.793,129.553L438.317,129.259L438.841,129.087L439.365,128.966L439.889,128.805L440.413,128.462L440.937,128.345L441.461,128.172L441.985,127.938L442.509,127.762L443.033,127.647L443.557,127.494L444.081,127.399L444.605,127.27L445.129,127.122L445.653,126.968L446.177,126.689L446.701,126.494L447.225,126.361L447.749,126.117L448.273,125.941L448.797,125.763L449.321,125.63L449.845,125.496L450.369,125.396L450.893,125.225L451.417,125.035L451.941,124.951L452.465,124.837L452.989,124.714L453.513,124.599L454.037,124.462L454.561,124.298L455.085,124.119L455.609,123.926L456.133,123.819L456.657,123.705L457.181,123.522L457.705,123.36L458.229,123.258L458.753,123.076L459.277,122.907L459.801,122.773L460.325,122.613L460.849,122.446L461.373,122.267L461.897,122.022L462.421,121.686L462.945,121.477L463.469,121.254L463.993,121.101L464.517,120.953L465.041,120.748L465.565,120.605L466.089,120.493L466.613,120.356L467.137,120.214L467.661,120.056L468.185,119.888L468.708,119.65L469.232,119.479L469.756,119.205L470.28,118.947L470.804,118.683L471.328,118.415L471.852,118.178L472.376,117.906L472.9,117.613L473.424,117.465L473.948,117.272L474.472,116.922L474.996,116.74L475.52,116.575L476.044,116.348L476.568,116.19L477.092,116.11L477.616,115.639L478.14,115.232L478.664,114.827L479.188,114.392L479.712,114.04L480.236,113.788L480.76,113.393L481.284,112.979L481.808,112.724L482.332,112.483L482.856,112.192L483.38,111.923L483.904,111.625L484.428,111.294L484.952,111.077L485.476,110.942L486,110.697L486.524,110.558L487.048,110.411L487.572,110.217L488.096,110.034L488.62,109.82L489.144,109.563L489.668,109.305L490.192,109.108L490.716,108.908L491.24,108.731L491.764,108.575L492.288,108.468L492.812,108.387L493.336,108.295L493.86,108.178L494.384,108.04L494.908,107.944L495.432,107.79L495.956,107.686L496.48,107.564L497.004,107.457L497.528,107.323L498.052,107.214L498.576,107.018L499.1,106.877L499.624,106.722L500.148,106.603L500.672,106.426L501.196,106.242L501.72,106.08L502.244,105.955L502.768,105.804L503.292,105.691L503.815,105.563L504.339,105.479L504.863,105.376L505.387,105.263L505.911,105.169L506.435,105.005L506.959,104.871L507.483,104.756L508.007,104.64L508.531,104.502L509.055,104.381L509.579,104.224L510.103,104.124L510.627,103.946L511.151,103.707L511.675,103.478L512.199,103.159L512.723,103.021L513.247,102.864L513.771,102.7L514.295,102.598L514.819,102.426L515.343,102.256L515.867,102.085L516.391,101.86L516.915,101.463L517.439,101.288L517.963,101.174L518.487,100.929L519.011,100.782L519.535,100.703L520.059,100.54L520.583,100.404L521.107,100.297L521.631,100.108L522.155,99.893L522.679,99.683L523.203,99.385L523.727,99.269L524.251,99.168L524.775,99.023L525.299,98.894L525.823,98.822L526.347,98.735L526.871,98.606L527.395,98.54L527.919,98.418L528.443,98.309L528.967,98.228L529.491,98.126L530.015,98.064L530.539,97.964L531.063,97.818L531.587,97.696L532.111,97.604L532.635,97.415L533.159,97.266L533.683,97.131L534.207,96.934L534.731,96.878L535.255,96.804L535.779,96.674L536.303,96.597L536.827,96.516L537.351,96.413L537.875,96.347L538.399,96.268L538.923,96.079L539.446,95.962L539.97,95.919L540.494,95.869L541.018,95.796L541.542,95.69L542.066,95.588L542.59,95.433L543.114,95.35L543.638,95.181L544.162,94.944L544.686,94.77L545.21,94.511L545.734,94.325L546.258,94.207L546.782,94.094L547.306,93.984L547.83,93.854L548.354,93.753L548.878,93.667L549.402,93.515L549.926,93.365L550.45,93.202L550.974,93.115L551.498,92.965L552.022,92.904L552.546,92.83L553.07,92.681L553.594,92.587L554.118,92.491L554.642,92.381L555.166,92.243L555.69,92.116L556.214,91.979L556.738,91.898L557.262,91.786L557.786,91.654L558.31,91.538L558.834,91.428L559.358,91.281L559.882,91.178L560.406,91.06L560.93,90.877L561.454,90.695L561.978,90.623L562.502,90.521L563.026,90.403L563.55,90.327L564.074,90.221L564.598,90.138L565.122,90.094L565.646,89.992L566.17,89.94L566.694,89.913L567.218,89.842L567.742,89.745L568.266,89.694L568.79,89.637L569.314,89.53L569.838,89.36L570.362,89.25L570.886,89.093L571.41,89.033L571.934,88.944L572.458,88.875L572.982,88.78L573.506,88.685L574.03,88.636L574.554,88.567L575.077,88.45L575.601,88.36L576.125,88.274L576.649,88.118L577.173,87.965L577.697,87.884L578.221,87.738L578.745,87.657L579.269,87.511L579.793,87.401L580.317,87.349L580.841,87.284L581.365,87.175L581.889,87.087L582.413,86.987L582.937,86.809L583.461,86.756L583.985,86.625L584.509,86.517L585.033,86.431L585.557,86.363L586.081,86.278L586.605,86.215L587.129,86.133L587.653,86.044L588.177,85.903L588.701,85.786L589.225,85.543L589.749,85.369L590.273,85.23L590.797,85.065L591.321,84.941L591.845,84.826L592.369,84.628L592.893,84.424L593.417,84.316L593.941,84.129L594.465,84.017L594.989,83.949L595.513,83.821L596.037,83.733L596.561,83.637L597.085,83.57L597.609,83.429L598.133,83.343L598.657,83.242L599.181,83.145L599.705,83.031L600.229,82.95L600.753,82.858L601.277,82.775L601.801,82.682L602.325,82.547L602.849,82.448L603.373,82.275L603.897,82.169L604.421,82.06L604.945,81.923L605.469,81.791L605.993,81.649L606.517,81.495L607.041,81.387L607.565,81.322L608.089,81.188L608.613,81.074L609.137,80.971L609.661,80.839L610.185,80.689L610.708,80.476L611.232,80.208L611.756,80.015L612.28,79.911L612.804,79.794L613.328,79.705L613.852,79.603L614.376,79.459L614.9,79.368L615.424,79.294L615.948,79.103L616.472,78.935L616.996,78.851L617.52,78.705L618.044,78.584L618.568,78.471L619.092,78.35L619.616,78.188L620.14,77.996L620.664,77.872L621.188,77.748L621.712,77.662L622.236,77.557L622.76,77.465L623.284,77.425L623.808,77.247L624.332,77.169L624.856,77.045L625.38,76.885L625.904,76.754L626.428,76.568L626.952,76.393L627.476,76.271L628,76.151L628.524,75.951L629.048,75.849L629.572,75.742L630.096,75.565L630.62,75.453L631.144,75.321L631.668,75.139L632.192,75.049L632.716,74.95L633.24,74.793L633.764,74.688L634.288,74.493L634.812,74.387L635.336,74.206L635.86,74.051L636.384,73.953L636.908,73.864L637.432,73.742L637.956,73.505L638.48,73.276L639.004,73.127L639.528,72.928L640.052,72.8L640.576,72.65L641.1,72.423L641.624,72.25L642.148,72.102L642.672,71.952L643.196,71.851L643.72,71.725L644.244,71.609L644.768,71.478L645.292,71.361L645.815,71.226L646.339,71.12L646.863,70.994L647.387,70.808L647.911,70.667L648.435,70.58L648.959,70.496L649.483,70.393L650.007,70.294L650.531,70.199L651.055,70.134L651.579,70.065L652.103,69.952L652.627,69.893L653.151,69.821L653.675,69.716L654.199,69.614L654.723,69.525L655.247,69.385L655.771,69.313L656.295,69.196L656.819,69.12L657.343,68.966L657.867,68.898L658.391,68.771L658.915,68.722L659.439,68.663L659.963,68.494L660.487,68.405L661.011,68.303L661.535,68.255L662.059,68.184L662.583,68.063L663.107,67.989L663.631,67.917L664.155,67.892L664.679,67.818L665.203,67.786L665.727,67.716L666.251,67.667L666.775,67.553L667.299,67.435L667.823,67.323L668.347,67.285L668.871,67.219L669.395,67.166L669.919,67.131L670.443,67.11L670.967,67.012L671.491,66.94L672.015,66.856L672.539,66.823L673.063,66.76L673.587,66.701L674.111,66.605L674.635,66.579L675.159,66.533L675.683,66.492L676.207,66.403L676.731,66.315L677.255,66.251L677.779,66.197L678.303,66.143L678.827,66.102L679.351,66.066L679.875,66.046L680.399,66.027L680.923,65.988L681.446,65.924L681.97,65.912L682.494,65.878L683.018,65.864L683.542,65.836L684.066,65.818L684.59,65.803L685.114,65.785L685.638,65.772L686.162,65.763L686.686,65.735L687.21,65.683L687.734,65.663L688.258,65.632L688.782,65.63L689.306,65.59L689.83,65.556L690.354,65.513L690.878,65.489L691.402,65.41L691.926,65.381L692.45,65.359L692.974,65.33L693.498,65.291L694.022,65.253L694.546,65.242L695.07,65.233L695.594,65.218L696.118,65.2L696.642,65.174L697.166,65.133L697.69,65.098L698.214,65.068L698.738,65.019L699.262,64.955L699.786,64.915L700.31,64.876L700.834,64.832L701.358,64.819L701.882,64.777L702.406,64.718L702.93,64.688L703.454,64.613L703.978,64.546L704.502,64.503L705.026,64.439L705.55,64.412L706.074,64.388L706.598,64.367L707.122,64.314L707.646,64.226L708.17,64.206L708.694,64.131L709.218,64.075L709.742,64.045L710.266,64.017L710.79,64L711.314,63.966L711.838,63.927L712.362,63.871L712.886,63.82L713.41,63.758L713.934,63.708L714.458,63.694L714.982,63.633L715.506,63.601L716.03,63.578L716.554,63.576L717.077,63.55L717.601,63.523L718.125,63.488L718.649,63.442L719.173,63.426L719.697,63.391L720.221,63.373L720.745,63.355L721.269,63.335L721.793,63.314L722.317,63.296L722.841,63.254L723.365,63.231L723.889,63.202L724.413,63.132L724.937,63.086L725.461,63.057L725.985,63.016L726.509,62.954L727.033,62.899L727.557,62.874L728.081,62.83L728.605,62.777L729.129,62.736L729.653,62.709L730.177,62.664L730.701,62.592L731.225,62.578L731.749,62.566L732.273,62.529L732.797,62.458L733.321,62.429L733.845,62.354L734.369,62.305L734.893,62.275L735.417,62.178L735.941,62.116L736.465,62.091L736.989,62.028L737.513,62.01L738.037,61.968L738.561,61.964L739.085,61.933L739.609,61.914L740.133,61.898L740.657,61.864L741.181,61.835L741.705,61.782L742.229,61.732L742.753,61.643L743.277,61.609L743.801,61.569L744.325,61.554L744.849,61.507L745.373,61.465L745.897,61.392L746.421,61.374L746.945,61.342L747.469,61.285L747.993,61.233L748.517,61.215L749.041,61.163L749.565,61.122L750.089,61.117L750.613,61.088L751.137,61.051L751.661,60.998L752.185,60.961L752.708,60.928L753.232,60.904L753.756,60.843L754.28,60.77L754.804,60.73L755.328,60.704L755.852,60.631L756.376,60.597L756.9,60.566L757.424,60.55L757.948,60.523L758.472,60.502L758.996,60.442L759.52,60.41L760.044,60.394L760.568,60.381L761.092,60.332L761.616,60.325L762.14,60.284L762.664,60.249L763.188,60.224L763.712,60.216L764.236,60.215L764.76,60.204L765.284,60.195L765.808,60.181L766.332,60.15L766.856,60.137L767.38,60.122L767.904,60.108L768.428,60.096L768.952,60.068L769.476,60.008L770,60"/>
  </g>
</svg>
