<svg class="plot-d6a7b5" fill="currentColor" font-family="system-ui, sans-serif" font-size="10" text-anchor="middle" width="830" height="564" viewBox="0 0 830 564" xmlns="http://www.w3.org/2000/svg" xmlns:xlink="http://www.w3.org/1999/xlink" color="#1e90ff"><style>:where(.plot-d6a7b5){--plot-background: white;display:block;height:intrinsic;max-width:100%}:where(.plot-d6a7b5 text),:where(.plot-d6a7b5 tspan){white-space:pre}</style><g aria-label="y-grid" stroke="currentColor" stroke-opacity=".1"><line x1="60" x2="770" y1="410" y2="410"/><line x1="60" x2="770" y1="376.472" y2="376.472"/><line x1="60" x2="770" y1="342.944" y2="342.944"/><line x1="60" x2="770" y1="309.416" y2="309.416"/><line x1="60" x2="770" y1="275.888" y2="275.888"/><line x1="60" x2="770" y1="242.359" y2="242.359"/><line x1="60" x2="770" y1="208.831" y2="208.831"/><line x1="60" x2="770" y1="175.303" y2="175.303"/><line x1="60" x2="770" y1="141.775" y2="141.775"/><line x1="60" x2="770" y1="108.247" y2="108.247"/><line x1="60" x2="770" y1="74.719" y2="74.719"/></g><g aria-label="y-axis tick" fill="none" stroke="currentColor"><path transform="translate(60,410)" d="M0,0L-6,0"/><path transform="translate(60,376.47188428010344)" d="M0,0L-6,0"/><path transform="translate(60,342.94376856020693)" d="M0,0L-6,0"/><path transform="translate(60,309.4156528403104)" d="M0,0L-6,0"/><path transform="translate(60,275.88753712041387)" d="M0,0L-6,0"/><path transform="translate(60,242.3594214005173)" d="M0,0L-6,0"/><path transform="translate(60,208.83130568062074)" d="M0,0L-6,0"/><path transform="translate(60,175.30318996072424)" d="M0,0L-6,0"/><path transform="translate(60,141.77507424082768)" d="M0,0L-6,0"/><path transform="translate(60,108.24695852093112)" d="M0,0L-6,0"/><path transform="translate(60,74.71884280103458)" d="M0,0L-6,0"/></g><g aria-label="y-axis tick label" text-anchor="end" font-variant="tabular-nums"><text y=".32em" transform="translate(-9,0) translate(60,410)">0</text><text y=".32em" transform="translate(-9,0) translate(60,376.47188428010344)">2,000</text><text y=".32em" transform="translate(-9,0) translate(60,342.94376856020693)">4,000</text><text y=".32em" transform="translate(-9,0) translate(60,309.4156528403104)">6,000</text><text y=".32em" transform="translate(-9,0) translate(60,275.88753712041387)">8,000</text><text y=".32em" transform="translate(-9,0) translate(60,242.3594214005173)">10,000</text><text y=".32em" transform="translate(-9,0) translate(60,208.83130568062074)">12,000</text><text y=".32em" transform="translate(-9,0) translate(60,175.30318996072424)">14,000</text><text y=".32em" transform="translate(-9,0) translate(60,141.77507424082768)">16,000</text><text y=".32em" transform="translate(-9,0) translate(60,108.24695852093112)">18,000</text><text y=".32em" transform="translate(-9,0) translate(60,74.71884280103458)">20,000</text></g><g aria-label="y-axis label" text-anchor="start"><text y=".71em" transform="translate(-57,-57) translate(60,60)">↑ Frequency</text></g><g aria-label="x-axis tick" fill="none" stroke="currentColor"><path transform="translate(113.69747899159664,410)" d="M0,0L0,6"/><path transform="translate(173.3613445378151,410)" d="M0,0L0,6"/><path transform="translate(235.0140056022409,410)" d="M0,0L0,6"/><path transform="translate(294.67787114845936,410)" d="M0,0L0,6"/><path transform="translate(356.33053221288515,410)" d="M0,0L0,6"/><path transform="translate(417.98319327731093,410)" d="M0,0L0,6"/><path transform="translate(477.6470588235294,410)" d="M0,0L0,6"/><path transform="translate(539.2997198879552,410)" d="M0,0L0,6"/><path transform="translate(598.9635854341736,410)" d="M0,0L0,6"/><path transform="translate(660.6162464985995,410)" d="M0,0L0,6"/><path transform="translate(722.2689075630252,410)" d="M0,0L0,6"/></g><g aria-label="x-axis tick label" font-variant="tabular-nums"><text transform="translate(0,9) translate(113.69747899159664,410)"><tspan x="0" y=".71em">Apr</tspan><tspan x="0" dy="1em">2023</tspan></text><text y=".71em" transform="translate(0,9) translate(173.3613445378151,410)">May</text><text y=".71em" transform="translate(0,9) translate(235.0140056022409,410)">Jun</text><text y=".71em" transform="translate(0,9) translate(294.67787114845936,410)">Jul</text><text y=".71em" transform="translate(0,9) translate(356.33053221288515,410)">Aug</text><text y=".71em" transform="translate(0,9) translate(417.98319327731093,410)">Sep</text><text y=".71em" transform="translate(0,9) translate(477.6470588235294,410)">Oct</text><text y=".71em" transform="translate(0,9) translate(539.2997198879552,410)">Nov</text><text y=".71em" transform="translate(0,9) translate(598.9635854341736,410)">Dec</text><text transform="translate(0,9) translate(660.6162464985995,410)"><tspan x="0" y=".71em">Jan</tspan><tspan x="0" dy="1em">2024</tspan></text><text y=".71em" transform="translate(0,9) translate(722.2689075630252,410)">Feb</text></g><g aria-label="x-axis label" text-anchor="end"><text transform="translate(57,57) translate(770,410)">timestamp →</text></g><g aria-label="rect"><rect x="60.5" y="190.424" width="12.922" height="32.606" fill="#70223b"/><rect x="74.422" y="188.698" width="12.922" height="36.847" fill="#70223b"/><rect x="88.343" y="208.731" width="12.922" height="29.488" fill="#70223b"/><rect x="102.265" y="134.214" width="12.922" height="35.054" fill="#70223b"/><rect x="116.186" y="113.796" width="12.922" height="35.64" fill="#70223b"/><rect x="130.108" y="171.749" width="12.922" height="37.702" fill="#70223b"/><rect x="144.029" y="210.29" width="12.922" height="27.024" fill="#70223b"/><rect x="157.951" y="219.728" width="12.922" height="31.248" fill="#70223b"/><rect x="171.873" y="242.225" width="12.922" height="26.822" fill="#70223b"/><rect x="185.794" y="237.498" width="12.922" height="22.229" fill="#70223b"/><rect x="199.716" y="253.725" width="12.922" height="18.29" fill="#70223b"/><rect x="213.637" y="236.811" width="12.922" height="22.129" fill="#70223b"/><rect x="227.559" y="251.395" width="12.922" height="15.473" fill="#70223b"/><rect x="241.48" y="270.439" width="12.922" height="15.507" fill="#70223b"/><rect x="255.402" y="266.567" width="12.922" height="16.496" fill="#70223b"/><rect x="269.324" y="269.031" width="12.922" height="16.378" fill="#70223b"/><rect x="283.245" y="267.204" width="12.922" height="18.34" fill="#70223b"/><rect x="297.167" y="292.165" width="12.922" height="20.251" fill="#70223b"/><rect x="311.088" y="276.458" width="12.922" height="23.134" fill="#70223b"/><rect x="325.01" y="281.185" width="12.922" height="20.318" fill="#70223b"/><rect x="338.931" y="261.856" width="12.922" height="21.86" fill="#70223b"/><rect x="352.853" y="251.345" width="12.922" height="15.892" fill="#70223b"/><rect x="366.775" y="279.492" width="12.922" height="16.881" fill="#70223b"/><rect x="380.696" y="254.379" width="12.922" height="20.301" fill="#70223b"/><rect x="394.618" y="280.213" width="12.922" height="17.82" fill="#70223b"/><rect x="408.539" y="291.696" width="12.922" height="12.221" fill="#70223b"/><rect x="422.461" y="299.91" width="12.922" height="15.188" fill="#70223b"/><rect x="436.382" y="304.521" width="12.922" height="12.724" fill="#70223b"/><rect x="450.304" y="300.279" width="12.922" height="9.958" fill="#70223b"/><rect x="464.225" y="314.562" width="12.922" height="11.366" fill="#70223b"/><rect x="478.147" y="315.535" width="12.922" height="11.215" fill="#70223b"/><rect x="492.069" y="306.784" width="12.922" height="11.198" fill="#70223b"/><rect x="505.99" y="316.423" width="12.922" height="12.54" fill="#70223b"/><rect x="519.912" y="315.719" width="12.922" height="11.852" fill="#70223b"/><rect x="533.833" y="325.526" width="12.922" height="10.897" fill="#70223b"/><rect x="547.755" y="339.692" width="12.922" height="8.114" fill="#70223b"/><rect x="561.676" y="344.151" width="12.922" height="7.644" fill="#70223b"/><rect x="575.598" y="325.124" width="12.922" height="10.612" fill="#70223b"/><rect x="589.52" y="324.973" width="12.922" height="7.292" fill="#70223b"/><rect x="603.441" y="348.778" width="12.922" height="5.968" fill="#70223b"/><rect x="617.363" y="350.655" width="12.922" height="3.738" fill="#70223b"/><rect x="631.284" y="345.224" width="12.922" height="8.516" fill="#70223b"/><rect x="645.206" y="336.624" width="12.922" height="8.617" fill="#70223b"/><rect x="659.127" y="348.057" width="12.922" height="6.018" fill="#70223b"/><rect x="673.049" y="357.16" width="12.922" height="7.728" fill="#70223b"/><rect x="686.971" y="338.283" width="12.922" height="7.745" fill="#70223b"/><rect x="700.892" y="334.444" width="12.922" height="10.41" fill="#70223b"/><rect x="714.814" y="328.745" width="12.922" height="8.734" fill="#70223b"/><rect x="728.735" y="319.273" width="12.922" height="13.294" fill="#70223b"/><rect x="742.657" y="309.013" width="12.922" height="9.975" fill="#70223b"/><rect x="756.578" y="368.325" width="12.922" height="6.303" fill="#70223b"/><rect x="60.5" y="286.197" width="12.922" height="123.803" fill="#00000f"/><rect x="74.422" y="288.813" width="12.922" height="121.187" fill="#00000f"/><rect x="88.343" y="298.854" width="12.922" height="111.146" fill="#00000f"/><rect x="102.265" y="244.656" width="12.922" height="165.344" fill="#00000f"/><rect x="116.186" y="232.418" width="12.922" height="177.582" fill="#00000f"/><rect x="130.108" y="268.327" width="12.922" height="141.673" fill="#00000f"/><rect x="144.029" y="306.365" width="12.922" height="103.635" fill="#00000f"/><rect x="157.951" y="304.303" width="12.922" height="105.697" fill="#00000f"/><rect x="171.873" y="316.909" width="12.922" height="93.091" fill="#00000f"/><rect x="185.794" y="323.011" width="12.922" height="86.989" fill="#00000f"/><rect x="199.716" y="329.298" width="12.922" height="80.702" fill="#00000f"/><rect x="213.637" y="310.388" width="12.922" height="99.612" fill="#00000f"/><rect x="227.559" y="319.96" width="12.922" height="90.04" fill="#00000f"/><rect x="241.48" y="335.014" width="12.922" height="74.986" fill="#00000f"/><rect x="255.402" y="332.835" width="12.922" height="77.165" fill="#00000f"/><rect x="269.324" y="325.694" width="12.922" height="84.306" fill="#00000f"/><rect x="283.245" y="338.602" width="12.922" height="71.398" fill="#00000f"/><rect x="297.167" y="355.45" width="12.922" height="54.55" fill="#00000f"/><rect x="311.088" y="348.895" width="12.922" height="61.105" fill="#00000f"/><rect x="325.01" y="342.659" width="12.922" height="67.341" fill="#00000f"/><rect x="338.931" y="328.661" width="12.922" height="81.339" fill="#00000f"/><rect x="352.853" y="312.567" width="12.922" height="97.433" fill="#00000f"/><rect x="366.775" y="339.038" width="12.922" height="70.962" fill="#00000f"/><rect x="380.696" y="325.777" width="12.922" height="84.223" fill="#00000f"/><rect x="394.618" y="341.636" width="12.922" height="68.364" fill="#00000f"/><rect x="408.539" y="350.454" width="12.922" height="59.546" fill="#00000f"/><rect x="422.461" y="345.71" width="12.922" height="64.29" fill="#00000f"/><rect x="436.382" y="350.571" width="12.922" height="59.429" fill="#00000f"/><rect x="450.304" y="345.643" width="12.922" height="64.357" fill="#00000f"/><rect x="464.225" y="354.461" width="12.922" height="55.539" fill="#00000f"/><rect x="478.147" y="355.902" width="12.922" height="54.098" fill="#00000f"/><rect x="492.069" y="358.199" width="12.922" height="51.801" fill="#00000f"/><rect x="505.99" y="365.19" width="12.922" height="44.81" fill="#00000f"/><rect x="519.912" y="356.774" width="12.922" height="53.226" fill="#00000f"/><rect x="533.833" y="364.351" width="12.922" height="45.649" fill="#00000f"/><rect x="547.755" y="370.588" width="12.922" height="39.412" fill="#00000f"/><rect x="561.676" y="372.18" width="12.922" height="37.82" fill="#00000f"/><rect x="575.598" y="363.312" width="12.922" height="46.688" fill="#00000f"/><rect x="589.52" y="359.155" width="12.922" height="50.845" fill="#00000f"/><rect x="603.441" y="376.539" width="12.922" height="33.461" fill="#00000f"/><rect x="617.363" y="377.83" width="12.922" height="32.17" fill="#00000f"/><rect x="631.284" y="373.706" width="12.922" height="36.294" fill="#00000f"/><rect x="645.206" y="372.532" width="12.922" height="37.468" fill="#00000f"/><rect x="659.127" y="381.585" width="12.922" height="28.415" fill="#00000f"/><rect x="673.049" y="385.659" width="12.922" height="24.341" fill="#00000f"/><rect x="686.971" y="375.231" width="12.922" height="34.769" fill="#00000f"/><rect x="700.892" y="373.303" width="12.922" height="36.697" fill="#00000f"/><rect x="714.814" y="361.2" width="12.922" height="48.8" fill="#00000f"/><rect x="728.735" y="367" width="12.922" height="43" fill="#00000f"/><rect x="742.657" y="352.382" width="12.922" height="57.618" fill="#00000f"/><rect x="756.578" y="388.743" width="12.922" height="21.257" fill="#00000f"/><rect x="60.5" y="223.03" width="12.922" height="18.826" fill="#f0c097"/><rect x="74.422" y="225.545" width="12.922" height="13.696" fill="#f0c097"/><rect x="88.343" y="238.219" width="12.922" height="13.16" fill="#f0c097"/><rect x="102.265" y="169.268" width="12.922" height="15.959" fill="#f0c097"/><rect x="116.186" y="149.436" width="12.922" height="21.324" fill="#f0c097"/><rect x="130.108" y="209.452" width="12.922" height="13.763" fill="#f0c097"/><rect x="144.029" y="237.313" width="12.922" height="15.272" fill="#f0c097"/><rect x="157.951" y="250.976" width="12.922" height="10.796" fill="#f0c097"/><rect x="171.873" y="269.048" width="12.922" height="12.757" fill="#f0c097"/><rect x="185.794" y="259.727" width="12.922" height="10.394" fill="#f0c097"/><rect x="199.716" y="272.015" width="12.922" height="14.752" fill="#f0c097"/><rect x="213.637" y="258.939" width="12.922" height="10.327" fill="#f0c097"/><rect x="227.559" y="266.868" width="12.922" height="8.013" fill="#f0c097"/><rect x="241.48" y="285.946" width="12.922" height="8.952" fill="#f0c097"/><rect x="255.402" y="283.063" width="12.922" height="6.387" fill="#f0c097"/><rect x="269.324" y="285.41" width="12.922" height="5.448" fill="#f0c097"/><rect x="283.245" y="285.544" width="12.922" height="12.037" fill="#f0c097"/><rect x="297.167" y="312.416" width="12.922" height="5.8" fill="#f0c097"/><rect x="311.088" y="299.592" width="12.922" height="9.254" fill="#f0c097"/><rect x="325.01" y="301.503" width="12.922" height="6.706" fill="#f0c097"/><rect x="338.931" y="283.716" width="12.922" height="9.12" fill="#f0c097"/><rect x="352.853" y="267.237" width="12.922" height="9.706" fill="#f0c097"/><rect x="366.775" y="296.373" width="12.922" height="7.125" fill="#f0c097"/><rect x="380.696" y="274.681" width="12.922" height="9.187" fill="#f0c097"/><rect x="394.618" y="298.033" width="12.922" height="8.08" fill="#f0c097"/><rect x="408.539" y="303.917" width="12.922" height="14.216" fill="#f0c097"/><rect x="422.461" y="315.099" width="12.922" height="4.996" fill="#f0c097"/><rect x="436.382" y="317.244" width="12.922" height="8.365" fill="#f0c097"/><rect x="450.304" y="310.237" width="12.922" height="9.455" fill="#f0c097"/><rect x="464.225" y="325.928" width="12.922" height="5.448" fill="#f0c097"/><rect x="478.147" y="326.75" width="12.922" height="4.241" fill="#f0c097"/><rect x="492.069" y="317.982" width="12.922" height="7.359" fill="#f0c097"/><rect x="505.99" y="328.963" width="12.922" height="9.086" fill="#f0c097"/><rect x="519.912" y="327.571" width="12.922" height="6.069" fill="#f0c097"/><rect x="533.833" y="336.423" width="12.922" height="3.42" fill="#f0c097"/><rect x="547.755" y="347.805" width="12.922" height="1.66" fill="#f0c097"/><rect x="561.676" y="351.795" width="12.922" height="4.61" fill="#f0c097"/><rect x="575.598" y="335.735" width="12.922" height="4.174" fill="#f0c097"/><rect x="589.52" y="332.265" width="12.922" height="1.811" fill="#f0c097"/><rect x="603.441" y="354.746" width="12.922" height="1.358" fill="#f0c097"/><rect x="617.363" y="354.394" width="12.922" height="3.219" fill="#f0c097"/><rect x="631.284" y="353.74" width="12.922" height="1.961" fill="#f0c097"/><rect x="645.206" y="345.24" width="12.922" height="4.392" fill="#f0c097"/><rect x="659.127" y="354.075" width="12.922" height="3.42" fill="#f0c097"/><rect x="673.049" y="364.888" width="12.922" height="2.783" fill="#f0c097"/><rect x="686.971" y="346.028" width="12.922" height="2.733" fill="#f0c097"/><rect x="700.892" y="344.855" width="12.922" height="6.018" fill="#f0c097"/><rect x="714.814" y="337.479" width="12.922" height="5.113" fill="#f0c097"/><rect x="728.735" y="332.567" width="12.922" height="8.064" fill="#f0c097"/><rect x="742.657" y="318.988" width="12.922" height="4.409" fill="#f0c097"/><rect x="756.578" y="374.628" width="12.922" height="1.358" fill="#f0c097"/><rect x="60.5" y="241.856" width="12.922" height="17.25" fill="#ff7373"/><rect x="74.422" y="239.241" width="12.922" height="22.849" fill="#ff7373"/><rect x="88.343" y="251.378" width="12.922" height="20.737" fill="#ff7373"/><rect x="102.265" y="185.228" width="12.922" height="17.116" fill="#ff7373"/><rect x="116.186" y="170.76" width="12.922" height="22.665" fill="#ff7373"/><rect x="130.108" y="223.215" width="12.922" height="13.646" fill="#ff7373"/><rect x="144.029" y="252.585" width="12.922" height="13.747" fill="#ff7373"/><rect x="157.951" y="261.772" width="12.922" height="12.255" fill="#ff7373"/><rect x="171.873" y="281.805" width="12.922" height="11.852" fill="#ff7373"/><rect x="185.794" y="270.121" width="12.922" height="14.317" fill="#ff7373"/><rect x="199.716" y="286.767" width="12.922" height="11.215" fill="#ff7373"/><rect x="213.637" y="269.266" width="12.922" height="9.505" fill="#ff7373"/><rect x="227.559" y="274.882" width="12.922" height="11.55" fill="#ff7373"/><rect x="241.48" y="294.898" width="12.922" height="12.003" fill="#ff7373"/><rect x="255.402" y="289.45" width="12.922" height="14.199" fill="#ff7373"/><rect x="269.324" y="290.858" width="12.922" height="10.343" fill="#ff7373"/><rect x="283.245" y="297.58" width="12.922" height="12.741" fill="#ff7373"/><rect x="297.167" y="318.217" width="12.922" height="11.534" fill="#ff7373"/><rect x="311.088" y="308.846" width="12.922" height="11.668" fill="#ff7373"/><rect x="325.01" y="308.209" width="12.922" height="9.857" fill="#ff7373"/><rect x="338.931" y="292.836" width="12.922" height="6.504" fill="#ff7373"/><rect x="352.853" y="276.944" width="12.922" height="9.405" fill="#ff7373"/><rect x="366.775" y="303.498" width="12.922" height="10.394" fill="#ff7373"/><rect x="380.696" y="283.867" width="12.922" height="13.277" fill="#ff7373"/><rect x="394.618" y="306.113" width="12.922" height="15.373" fill="#ff7373"/><rect x="408.539" y="318.133" width="12.922" height="8.935" fill="#ff7373"/><rect x="422.461" y="320.094" width="12.922" height="6.84" fill="#ff7373"/><rect x="436.382" y="325.61" width="12.922" height="5.499" fill="#ff7373"/><rect x="450.304" y="319.692" width="12.922" height="7.879" fill="#ff7373"/><rect x="464.225" y="331.377" width="12.922" height="6.974" fill="#ff7373"/><rect x="478.147" y="330.991" width="12.922" height="7.611" fill="#ff7373"/><rect x="492.069" y="325.342" width="12.922" height="9.321" fill="#ff7373"/><rect x="505.99" y="338.049" width="12.922" height="7.158" fill="#ff7373"/><rect x="519.912" y="333.64" width="12.922" height="7.41" fill="#ff7373"/><rect x="533.833" y="339.842" width="12.922" height="8.935" fill="#ff7373"/><rect x="547.755" y="349.465" width="12.922" height="4.878" fill="#ff7373"/><rect x="561.676" y="356.405" width="12.922" height="4.996" fill="#ff7373"/><rect x="575.598" y="339.909" width="12.922" height="4.275" fill="#ff7373"/><rect x="589.52" y="334.076" width="12.922" height="4.375" fill="#ff7373"/><rect x="603.441" y="356.104" width="12.922" height="4.157" fill="#ff7373"/><rect x="617.363" y="357.612" width="12.922" height="2.565" fill="#ff7373"/><rect x="631.284" y="355.701" width="12.922" height="3.655" fill="#ff7373"/><rect x="645.206" y="349.633" width="12.922" height="7.359" fill="#ff7373"/><rect x="659.127" y="357.495" width="12.922" height="4.577" fill="#ff7373"/><rect x="673.049" y="367.671" width="12.922" height="3.386" fill="#ff7373"/><rect x="686.971" y="348.761" width="12.922" height="5.834" fill="#ff7373"/><rect x="700.892" y="350.873" width="12.922" height="5.599" fill="#ff7373"/><rect x="714.814" y="342.592" width="12.922" height="4.828" fill="#ff7373"/><rect x="728.735" y="340.63" width="12.922" height="8.499" fill="#ff7373"/><rect x="742.657" y="323.397" width="12.922" height="9.79" fill="#ff7373"/><rect x="756.578" y="375.986" width="12.922" height="3.37" fill="#ff7373"/><rect x="60.5" y="128.246" width="12.922" height="6.722" fill="#16234f"/><rect x="74.422" y="128.833" width="12.922" height="6.588" fill="#16234f"/><rect x="88.343" y="158.221" width="12.922" height="4.292" fill="#16234f"/><rect x="102.265" y="78.759" width="12.922" height="3.336" fill="#16234f"/><rect x="116.186" y="60" width="12.922" height="1.157" fill="#16234f"/><rect x="130.108" y="116.378" width="12.922" height="3.872" fill="#16234f"/><rect x="144.029" y="162.462" width="12.922" height="4.107" fill="#16234f"/><rect x="157.951" y="172.789" width="12.922" height="1.978" fill="#16234f"/><rect x="171.873" y="196.644" width="12.922" height="2.783" fill="#16234f"/><rect x="185.794" y="193.442" width="12.922" height="2.397" fill="#16234f"/><rect x="199.716" y="217.984" width="12.922" height="2.833" fill="#16234f"/><rect x="213.637" y="193.66" width="12.922" height=".637" fill="#16234f"/><rect x="227.559" y="212.301" width="12.922" height="2.263" fill="#16234f"/><rect x="241.48" y="237.984" width="12.922" height="2.179" fill="#16234f"/><rect x="255.402" y="239.493" width="12.922" height="2.179" fill="#16234f"/><rect x="269.324" y="243.717" width="12.922" height=".251" fill="#16234f"/><rect x="283.245" y="229.87" width="12.922" height="2.917" fill="#16234f"/><rect x="297.167" y="262.476" width="12.922" height="2.481" fill="#16234f"/><rect x="311.088" y="246.5" width="12.922" height="2.548" fill="#16234f"/><rect x="325.01" y="255.704" width="12.922" height="2.967" fill="#16234f"/><rect x="338.931" y="241.94" width="12.922" height=".922" fill="#16234f"/><rect x="352.853" y="221.203" width="12.922" height="2.213" fill="#16234f"/><rect x="366.775" y="248.378" width="12.922" height=".235" fill="#16234f"/><rect x="380.696" y="231.664" width="12.922" height=".587" fill="#16234f"/><rect x="394.618" y="258.151" width="12.922" height="1.391" fill="#16234f"/><rect x="408.539" y="269.601" width="12.922" height="1.844" fill="#16234f"/><rect x="422.461" y="280.615" width="12.922" height=".888" fill="#16234f"/><rect x="436.382" y="285.929" width="12.922" height=".805" fill="#16234f"/><rect x="450.304" y="278.318" width="12.922" height="2.9" fill="#16234f"/><rect x="464.225" y="295.116" width="12.922" height="1.844" fill="#16234f"/><rect x="478.147" y="293.557" width="12.922" height=".469" fill="#16234f"/><rect x="492.069" y="284.756" width="12.922" height=".855" fill="#16234f"/><rect x="505.99" y="290.657" width="12.922" height=".855" fill="#16234f"/><rect x="519.912" y="286.533" width="12.922" height=".922" fill="#16234f"/><rect x="533.833" y="301.252" width="12.922" height=".587" fill="#16234f"/><rect x="547.755" y="318.921" width="12.922" height=".117" fill="#16234f"/><rect x="561.676" y="331.444" width="12.922" height=".989" fill="#16234f"/><rect x="575.598" y="312.081" width="12.922" height=".704" fill="#16234f"/><rect x="589.52" y="309.416" width="12.922" height="1.375" fill="#16234f"/><rect x="603.441" y="335.333" width="12.922" height=".939" fill="#16234f"/><rect x="617.363" y="339.155" width="12.922" height="1.811" fill="#16234f"/><rect x="631.284" y="335.987" width="12.922" height="1.006" fill="#16234f"/><rect x="645.206" y="321.905" width="12.922" height=".956" fill="#16234f"/><rect x="659.127" y="330.069" width="12.922" height="1.207" fill="#16234f"/><rect x="673.049" y="339.356" width="12.922" height="2.062" fill="#16234f"/><rect x="686.971" y="321.503" width="12.922" height=".402" fill="#16234f"/><rect x="700.892" y="312.031" width="12.922" height="2.515" fill="#16234f"/><rect x="714.814" y="310.723" width="12.922" height=".268" fill="#16234f"/><rect x="728.735" y="298.804" width="12.922" height="1.71" fill="#16234f"/><rect x="742.657" y="284.94" width="12.922" height=".855" fill="#16234f"/><rect x="756.578" y="358.132" width="12.922" height=".956" fill="#16234f"/><rect x="60.5" y="259.107" width="12.922" height="5.918" fill="#ffff73"/><rect x="74.422" y="262.091" width="12.922" height="7.074" fill="#ffff73"/><rect x="88.343" y="272.116" width="12.922" height="3.135" fill="#ffff73"/><rect x="102.265" y="202.344" width="12.922" height="5.214" fill="#ffff73"/><rect x="116.186" y="193.425" width="12.922" height="6.471" fill="#ffff73"/><rect x="130.108" y="236.861" width="12.922" height="3.252" fill="#ffff73"/><rect x="144.029" y="266.332" width="12.922" height="3.889" fill="#ffff73"/><rect x="157.951" y="274.027" width="12.922" height="6.454" fill="#ffff73"/><rect x="171.873" y="293.657" width="12.922" height="3.588" fill="#ffff73"/><rect x="185.794" y="284.437" width="12.922" height="3.99" fill="#ffff73"/><rect x="199.716" y="297.983" width="12.922" height="4.426" fill="#ffff73"/><rect x="213.637" y="278.771" width="12.922" height="3.856" fill="#ffff73"/><rect x="227.559" y="286.432" width="12.922" height="2.8" fill="#ffff73"/><rect x="241.48" y="306.901" width="12.922" height="2.649" fill="#ffff73"/><rect x="255.402" y="303.649" width="12.922" height="2.582" fill="#ffff73"/><rect x="269.324" y="301.201" width="12.922" height="2.665" fill="#ffff73"/><rect x="283.245" y="310.321" width="12.922" height="2.397" fill="#ffff73"/><rect x="297.167" y="329.75" width="12.922" height="4.778" fill="#ffff73"/><rect x="311.088" y="320.513" width="12.922" height="2.833" fill="#ffff73"/><rect x="325.01" y="318.066" width="12.922" height="1.844" fill="#ffff73"/><rect x="338.931" y="299.34" width="12.922" height="2.481" fill="#ffff73"/><rect x="352.853" y="286.348" width="12.922" height="3.034" fill="#ffff73"/><rect x="366.775" y="313.892" width="12.922" height="3.101" fill="#ffff73"/><rect x="380.696" y="297.144" width="12.922" height="4.761" fill="#ffff73"/><rect x="394.618" y="321.486" width="12.922" height="3.822" fill="#ffff73"/><rect x="408.539" y="327.068" width="12.922" height="2.95" fill="#ffff73"/><rect x="422.461" y="326.934" width="12.922" height="2.481" fill="#ffff73"/><rect x="436.382" y="331.108" width="12.922" height="1.978" fill="#ffff73"/><rect x="450.304" y="327.571" width="12.922" height="2.431" fill="#ffff73"/><rect x="464.225" y="338.35" width="12.922" height="3.001" fill="#ffff73"/><rect x="478.147" y="338.602" width="12.922" height="2.833" fill="#ffff73"/><rect x="492.069" y="334.662" width="12.922" height="2.246" fill="#ffff73"/><rect x="505.99" y="345.207" width="12.922" height="2.548" fill="#ffff73"/><rect x="519.912" y="341.049" width="12.922" height="1.844" fill="#ffff73"/><rect x="533.833" y="348.778" width="12.922" height="1.241" fill="#ffff73"/><rect x="547.755" y="354.343" width="12.922" height="2.867" fill="#ffff73"/><rect x="561.676" y="361.401" width="12.922" height="1.324" fill="#ffff73"/><rect x="575.598" y="344.184" width="12.922" height="2.347" fill="#ffff73"/><rect x="589.52" y="338.451" width="12.922" height="4.258" fill="#ffff73"/><rect x="603.441" y="360.261" width="12.922" height="1.173" fill="#ffff73"/><rect x="617.363" y="360.177" width="12.922" height="1.777" fill="#ffff73"/><rect x="631.284" y="359.356" width="12.922" height="3.37" fill="#ffff73"/><rect x="645.206" y="356.992" width="12.922" height="4.292" fill="#ffff73"/><rect x="659.127" y="362.072" width="12.922" height="2.397" fill="#ffff73"/><rect x="673.049" y="371.057" width="12.922" height="1.358" fill="#ffff73"/><rect x="686.971" y="354.595" width="12.922" height="3.319" fill="#ffff73"/><rect x="700.892" y="356.472" width="12.922" height="3.252" fill="#ffff73"/><rect x="714.814" y="347.42" width="12.922" height="4.476" fill="#ffff73"/><rect x="728.735" y="349.13" width="12.922" height="3.738" fill="#ffff73"/><rect x="742.657" y="333.187" width="12.922" height="3.537" fill="#ffff73"/><rect x="756.578" y="379.355" width="12.922" height="2.079" fill="#ffff73"/><rect x="60.5" y="178.002" width="12.922" height="12.422" fill="#91ccf0"/><rect x="74.422" y="175.387" width="12.922" height="13.311" fill="#91ccf0"/><rect x="88.343" y="193.358" width="12.922" height="15.373" fill="#91ccf0"/><rect x="102.265" y="120.116" width="12.922" height="14.099" fill="#91ccf0"/><rect x="116.186" y="98.725" width="12.922" height="15.071" fill="#91ccf0"/><rect x="130.108" y="160.769" width="12.922" height="10.98" fill="#91ccf0"/><rect x="144.029" y="200.231" width="12.922" height="10.058" fill="#91ccf0"/><rect x="157.951" y="210.357" width="12.922" height="9.371" fill="#91ccf0"/><rect x="171.873" y="231.664" width="12.922" height="10.561" fill="#91ccf0"/><rect x="185.794" y="229.351" width="12.922" height="8.147" fill="#91ccf0"/><rect x="199.716" y="243.902" width="12.922" height="9.824" fill="#91ccf0"/><rect x="213.637" y="223.667" width="12.922" height="13.143" fill="#91ccf0"/><rect x="227.559" y="242.091" width="12.922" height="9.304" fill="#91ccf0"/><rect x="241.48" y="263.113" width="12.922" height="7.326" fill="#91ccf0"/><rect x="255.402" y="259.258" width="12.922" height="7.309" fill="#91ccf0"/><rect x="269.324" y="260.683" width="12.922" height="8.349" fill="#91ccf0"/><rect x="283.245" y="256.19" width="12.922" height="11.014" fill="#91ccf0"/><rect x="297.167" y="285.996" width="12.922" height="6.169" fill="#91ccf0"/><rect x="311.088" y="269.065" width="12.922" height="7.393" fill="#91ccf0"/><rect x="325.01" y="273.725" width="12.922" height="7.46" fill="#91ccf0"/><rect x="338.931" y="257.38" width="12.922" height="4.476" fill="#91ccf0"/><rect x="352.853" y="241.991" width="12.922" height="9.354" fill="#91ccf0"/><rect x="366.775" y="272.937" width="12.922" height="6.555" fill="#91ccf0"/><rect x="380.696" y="245.545" width="12.922" height="8.835" fill="#91ccf0"/><rect x="394.618" y="273.021" width="12.922" height="7.192" fill="#91ccf0"/><rect x="408.539" y="285.829" width="12.922" height="5.867" fill="#91ccf0"/><rect x="422.461" y="293.406" width="12.922" height="6.504" fill="#91ccf0"/><rect x="436.382" y="302.274" width="12.922" height="2.246" fill="#91ccf0"/><rect x="450.304" y="297.832" width="12.922" height="2.448" fill="#91ccf0"/><rect x="464.225" y="307.689" width="12.922" height="6.873" fill="#91ccf0"/><rect x="478.147" y="308.695" width="12.922" height="6.84" fill="#91ccf0"/><rect x="492.069" y="299.223" width="12.922" height="7.561" fill="#91ccf0"/><rect x="505.99" y="312.869" width="12.922" height="3.554" fill="#91ccf0"/><rect x="519.912" y="309.516" width="12.922" height="6.203" fill="#91ccf0"/><rect x="533.833" y="321.503" width="12.922" height="4.023" fill="#91ccf0"/><rect x="547.755" y="336.842" width="12.922" height="2.85" fill="#91ccf0"/><rect x="561.676" y="340.865" width="12.922" height="3.286" fill="#91ccf0"/><rect x="575.598" y="321.737" width="12.922" height="3.386" fill="#91ccf0"/><rect x="589.52" y="321.553" width="12.922" height="3.42" fill="#91ccf0"/><rect x="603.441" y="345.056" width="12.922" height="3.722" fill="#91ccf0"/><rect x="617.363" y="347.755" width="12.922" height="2.9" fill="#91ccf0"/><rect x="631.284" y="343.011" width="12.922" height="2.213" fill="#91ccf0"/><rect x="645.206" y="331.092" width="12.922" height="5.532" fill="#91ccf0"/><rect x="659.127" y="345.525" width="12.922" height="2.531" fill="#91ccf0"/><rect x="673.049" y="354.109" width="12.922" height="3.051" fill="#91ccf0"/><rect x="686.971" y="334.143" width="12.922" height="4.141" fill="#91ccf0"/><rect x="700.892" y="330.086" width="12.922" height="4.359" fill="#91ccf0"/><rect x="714.814" y="325.291" width="12.922" height="3.453" fill="#91ccf0"/><rect x="728.735" y="314.043" width="12.922" height="5.23" fill="#91ccf0"/><rect x="742.657" y="302.559" width="12.922" height="6.454" fill="#91ccf0"/><rect x="756.578" y="366.246" width="12.922" height="2.079" fill="#91ccf0"/><rect x="60.5" y="134.969" width="12.922" height="12.623" fill="#aaf155"/><rect x="74.422" y="135.421" width="12.922" height="9.002" fill="#aaf155"/><rect x="88.343" y="162.512" width="12.922" height="7.007" fill="#aaf155"/><rect x="102.265" y="82.095" width="12.922" height="10.645" fill="#aaf155"/><rect x="116.186" y="61.157" width="12.922" height="10.964" fill="#aaf155"/><rect x="130.108" y="120.25" width="12.922" height="9.287" fill="#aaf155"/><rect x="144.029" y="166.569" width="12.922" height="8.382" fill="#aaf155"/><rect x="157.951" y="174.767" width="12.922" height="9.991" fill="#aaf155"/><rect x="171.873" y="199.427" width="12.922" height="8.969" fill="#aaf155"/><rect x="185.794" y="195.839" width="12.922" height="8.801" fill="#aaf155"/><rect x="199.716" y="220.818" width="12.922" height="6.102" fill="#aaf155"/><rect x="213.637" y="194.297" width="12.922" height="6.823" fill="#aaf155"/><rect x="227.559" y="214.565" width="12.922" height="7.678" fill="#aaf155"/><rect x="241.48" y="240.163" width="12.922" height="5.197" fill="#aaf155"/><rect x="255.402" y="241.672" width="12.922" height="5.918" fill="#aaf155"/><rect x="269.324" y="243.969" width="12.922" height="6.035" fill="#aaf155"/><rect x="283.245" y="232.787" width="12.922" height="5.733" fill="#aaf155"/><rect x="297.167" y="264.957" width="12.922" height="7.661" fill="#aaf155"/><rect x="311.088" y="249.048" width="12.922" height="4.845" fill="#aaf155"/><rect x="325.01" y="258.671" width="12.922" height="3.487" fill="#aaf155"/><rect x="338.931" y="242.862" width="12.922" height="3.286" fill="#aaf155"/><rect x="352.853" y="223.416" width="12.922" height="6.504" fill="#aaf155"/><rect x="366.775" y="248.612" width="12.922" height="4.007" fill="#aaf155"/><rect x="380.696" y="232.251" width="12.922" height="5.566" fill="#aaf155"/><rect x="394.618" y="259.543" width="12.922" height="4.074" fill="#aaf155"/><rect x="408.539" y="271.445" width="12.922" height="5.063" fill="#aaf155"/><rect x="422.461" y="281.503" width="12.922" height="2.967" fill="#aaf155"/><rect x="436.382" y="286.734" width="12.922" height="3.42" fill="#aaf155"/><rect x="450.304" y="281.219" width="12.922" height="4.493" fill="#aaf155"/><rect x="464.225" y="296.96" width="12.922" height="4.023" fill="#aaf155"/><rect x="478.147" y="294.026" width="12.922" height="3.487" fill="#aaf155"/><rect x="492.069" y="285.611" width="12.922" height="3.085" fill="#aaf155"/><rect x="505.99" y="291.512" width="12.922" height="6.169" fill="#aaf155"/><rect x="519.912" y="287.455" width="12.922" height="11.232" fill="#aaf155"/><rect x="533.833" y="301.838" width="12.922" height="4.09" fill="#aaf155"/><rect x="547.755" y="319.038" width="12.922" height="4.61" fill="#aaf155"/><rect x="561.676" y="332.433" width="12.922" height="1.727" fill="#aaf155"/><rect x="575.598" y="312.785" width="12.922" height="2.867" fill="#aaf155"/><rect x="589.52" y="310.79" width="12.922" height="2.364" fill="#aaf155"/><rect x="603.441" y="336.272" width="12.922" height="3.588" fill="#aaf155"/><rect x="617.363" y="340.966" width="12.922" height="2.38" fill="#aaf155"/><rect x="631.284" y="336.993" width="12.922" height="1.375" fill="#aaf155"/><rect x="645.206" y="322.86" width="12.922" height="1.643" fill="#aaf155"/><rect x="659.127" y="331.276" width="12.922" height="2.246" fill="#aaf155"/><rect x="673.049" y="341.418" width="12.922" height="3.269" fill="#aaf155"/><rect x="686.971" y="321.905" width="12.922" height="3.671" fill="#aaf155"/><rect x="700.892" y="314.545" width="12.922" height="5.264" fill="#aaf155"/><rect x="714.814" y="310.991" width="12.922" height="3.872" fill="#aaf155"/><rect x="728.735" y="300.514" width="12.922" height="4.526" fill="#aaf155"/><rect x="742.657" y="285.795" width="12.922" height="3.889" fill="#aaf155"/><rect x="756.578" y="359.088" width="12.922" height="2.196" fill="#aaf155"/><rect x="60.5" y="147.592" width="12.922" height="30.41" fill="#4f2d68"/><rect x="74.422" y="144.424" width="12.922" height="30.963" fill="#4f2d68"/><rect x="88.343" y="169.52" width="12.922" height="23.838" fill="#4f2d68"/><rect x="102.265" y="92.74" width="12.922" height="27.376" fill="#4f2d68"/><rect x="116.186" y="72.12" width="12.922" height="26.605" fill="#4f2d68"/><rect x="130.108" y="129.537" width="12.922" height="31.231" fill="#4f2d68"/><rect x="144.029" y="174.951" width="12.922" height="25.28" fill="#4f2d68"/><rect x="157.951" y="184.758" width="12.922" height="25.599" fill="#4f2d68"/><rect x="171.873" y="208.395" width="12.922" height="23.269" fill="#4f2d68"/><rect x="185.794" y="204.64" width="12.922" height="24.71" fill="#4f2d68"/><rect x="199.716" y="226.92" width="12.922" height="16.982" fill="#4f2d68"/><rect x="213.637" y="201.12" width="12.922" height="22.548" fill="#4f2d68"/><rect x="227.559" y="222.243" width="12.922" height="19.849" fill="#4f2d68"/><rect x="241.48" y="245.36" width="12.922" height="17.753" fill="#4f2d68"/><rect x="255.402" y="247.59" width="12.922" height="11.668" fill="#4f2d68"/><rect x="269.324" y="250.004" width="12.922" height="10.679" fill="#4f2d68"/><rect x="283.245" y="238.52" width="12.922" height="17.669" fill="#4f2d68"/><rect x="297.167" y="272.619" width="12.922" height="13.378" fill="#4f2d68"/><rect x="311.088" y="253.893" width="12.922" height="15.171" fill="#4f2d68"/><rect x="325.01" y="262.158" width="12.922" height="11.567" fill="#4f2d68"/><rect x="338.931" y="246.148" width="12.922" height="11.232" fill="#4f2d68"/><rect x="352.853" y="229.92" width="12.922" height="12.07" fill="#4f2d68"/><rect x="366.775" y="252.619" width="12.922" height="20.318" fill="#4f2d68"/><rect x="380.696" y="237.816" width="12.922" height="7.728" fill="#4f2d68"/><rect x="394.618" y="263.616" width="12.922" height="9.405" fill="#4f2d68"/><rect x="408.539" y="276.508" width="12.922" height="9.321" fill="#4f2d68"/><rect x="422.461" y="284.471" width="12.922" height="8.935" fill="#4f2d68"/><rect x="436.382" y="290.154" width="12.922" height="12.12" fill="#4f2d68"/><rect x="450.304" y="285.711" width="12.922" height="12.12" fill="#4f2d68"/><rect x="464.225" y="300.983" width="12.922" height="6.706" fill="#4f2d68"/><rect x="478.147" y="297.513" width="12.922" height="11.182" fill="#4f2d68"/><rect x="492.069" y="288.695" width="12.922" height="10.528" fill="#4f2d68"/><rect x="505.99" y="297.681" width="12.922" height="15.188" fill="#4f2d68"/><rect x="519.912" y="298.687" width="12.922" height="10.83" fill="#4f2d68"/><rect x="533.833" y="305.929" width="12.922" height="15.574" fill="#4f2d68"/><rect x="547.755" y="323.648" width="12.922" height="13.193" fill="#4f2d68"/><rect x="561.676" y="334.159" width="12.922" height="6.706" fill="#4f2d68"/><rect x="575.598" y="315.652" width="12.922" height="6.085" fill="#4f2d68"/><rect x="589.52" y="313.154" width="12.922" height="8.399" fill="#4f2d68"/><rect x="603.441" y="339.859" width="12.922" height="5.197" fill="#4f2d68"/><rect x="617.363" y="343.346" width="12.922" height="4.409" fill="#4f2d68"/><rect x="631.284" y="338.367" width="12.922" height="4.644" fill="#4f2d68"/><rect x="645.206" y="324.503" width="12.922" height="6.588" fill="#4f2d68"/><rect x="659.127" y="333.522" width="12.922" height="12.003" fill="#4f2d68"/><rect x="673.049" y="344.687" width="12.922" height="9.421" fill="#4f2d68"/><rect x="686.971" y="325.576" width="12.922" height="8.566" fill="#4f2d68"/><rect x="700.892" y="319.809" width="12.922" height="10.276" fill="#4f2d68"/><rect x="714.814" y="314.864" width="12.922" height="10.427" fill="#4f2d68"/><rect x="728.735" y="305.04" width="12.922" height="9.002" fill="#4f2d68"/><rect x="742.657" y="289.684" width="12.922" height="12.875" fill="#4f2d68"/><rect x="756.578" y="361.284" width="12.922" height="4.962" fill="#4f2d68"/><rect x="60.5" y="265.024" width="12.922" height="21.173" fill="#fff"/><rect x="74.422" y="269.165" width="12.922" height="19.647" fill="#fff"/><rect x="88.343" y="275.251" width="12.922" height="23.604" fill="#fff"/><rect x="102.265" y="207.557" width="12.922" height="37.099" fill="#fff"/><rect x="116.186" y="199.896" width="12.922" height="32.522" fill="#fff"/><rect x="130.108" y="240.113" width="12.922" height="28.214" fill="#fff"/><rect x="144.029" y="270.221" width="12.922" height="36.143" fill="#fff"/><rect x="157.951" y="280.481" width="12.922" height="23.822" fill="#fff"/><rect x="171.873" y="297.245" width="12.922" height="19.664" fill="#fff"/><rect x="185.794" y="288.427" width="12.922" height="34.584" fill="#fff"/><rect x="199.716" y="302.408" width="12.922" height="26.89" fill="#fff"/><rect x="213.637" y="282.627" width="12.922" height="27.761" fill="#fff"/><rect x="227.559" y="289.232" width="12.922" height="30.729" fill="#fff"/><rect x="241.48" y="309.55" width="12.922" height="25.465" fill="#fff"/><rect x="255.402" y="306.23" width="12.922" height="26.605" fill="#fff"/><rect x="269.324" y="303.867" width="12.922" height="21.827" fill="#fff"/><rect x="283.245" y="312.718" width="12.922" height="25.884" fill="#fff"/><rect x="297.167" y="334.528" width="12.922" height="20.922" fill="#fff"/><rect x="311.088" y="323.347" width="12.922" height="25.548" fill="#fff"/><rect x="325.01" y="319.91" width="12.922" height="22.749" fill="#fff"/><rect x="338.931" y="301.822" width="12.922" height="26.839" fill="#fff"/><rect x="352.853" y="289.383" width="12.922" height="23.185" fill="#fff"/><rect x="366.775" y="316.993" width="12.922" height="22.045" fill="#fff"/><rect x="380.696" y="301.905" width="12.922" height="23.872" fill="#fff"/><rect x="394.618" y="325.308" width="12.922" height="16.328" fill="#fff"/><rect x="408.539" y="330.019" width="12.922" height="20.435" fill="#fff"/><rect x="422.461" y="329.415" width="12.922" height="16.295" fill="#fff"/><rect x="436.382" y="333.087" width="12.922" height="17.485" fill="#fff"/><rect x="450.304" y="330.002" width="12.922" height="15.641" fill="#fff"/><rect x="464.225" y="341.351" width="12.922" height="13.109" fill="#fff"/><rect x="478.147" y="341.435" width="12.922" height="14.467" fill="#fff"/><rect x="492.069" y="336.909" width="12.922" height="21.29" fill="#fff"/><rect x="505.99" y="347.755" width="12.922" height="17.435" fill="#fff"/><rect x="519.912" y="342.893" width="12.922" height="13.881" fill="#fff"/><rect x="533.833" y="350.018" width="12.922" height="14.333" fill="#fff"/><rect x="547.755" y="357.21" width="12.922" height="13.378" fill="#fff"/><rect x="561.676" y="362.725" width="12.922" height="9.455" fill="#fff"/><rect x="575.598" y="346.531" width="12.922" height="16.781" fill="#fff"/><rect x="589.52" y="342.709" width="12.922" height="16.446" fill="#fff"/><rect x="603.441" y="361.435" width="12.922" height="15.104" fill="#fff"/><rect x="617.363" y="361.954" width="12.922" height="15.876" fill="#fff"/><rect x="631.284" y="362.725" width="12.922" height="10.98" fill="#fff"/><rect x="645.206" y="361.284" width="12.922" height="11.249" fill="#fff"/><rect x="659.127" y="364.469" width="12.922" height="17.116" fill="#fff"/><rect x="673.049" y="372.415" width="12.922" height="13.244" fill="#fff"/><rect x="686.971" y="357.914" width="12.922" height="17.317" fill="#fff"/><rect x="700.892" y="359.725" width="12.922" height="13.579" fill="#fff"/><rect x="714.814" y="351.896" width="12.922" height="9.304" fill="#fff"/><rect x="728.735" y="352.868" width="12.922" height="14.132" fill="#fff"/><rect x="742.657" y="336.724" width="12.922" height="15.658" fill="#fff"/><rect x="756.578" y="381.434" width="12.922" height="7.309" fill="#fff"/></g><g aria-label="rule" stroke="currentColor"><line x1="60" x2="770" y1="410" y2="410"/></g><svg version="1.1" viewBox="0 0 830 564" xmlns="http://www.w3.org/2000/svg"><g color="#1e90ff"><g style="shape-padding:2.00159" aria-label="■ Custom Colour/Modded Campaigns ■ Survivor ■ Monk ■ Hunter ■ Gourmand ■ Artificer ■ Rivulet ■ Spearmaster ■ Saint ■ ⏿" white-space="pre"><path d="m55.011719 483.99902v-7.74414h7.750488v7.74414z" fill="#00000f"/><path d="m77.437988 483.16748q-0.488769 0.26025-1.002929 0.38721-0.514161 0.1333-1.091797 0.1333-1.821778 0-2.831055-1.28858-1.00293-1.28857-1.00293-3.62451 0-2.32324 1.009278-3.61816 1.015625-1.30127 2.824707-1.30127 0.577636 0 1.091797 0.1333 0.51416 0.12695 1.002929 0.38721v1.31396q-0.469726-0.38721-1.009277-0.59033-0.539551-0.20313-1.085449-0.20313-1.250489 0-1.872559 0.96485-0.62207 0.96484-0.62207 2.91357 0 1.94239 0.62207 2.90723t1.872559 0.96484q0.558593 0 1.091797-0.20312 0.53955-0.20313 1.002929-0.59033zm2.253418-2.35498v-4.40527h1.167969v4.40527q0 0.9585 0.336426 1.40918 0.342773 0.45068 1.053711 0.45068 0.825195 0 1.263183-0.57763 0.437989-0.58399 0.437989-1.66944v-4.01806h1.174316v7.09668h-1.174316v-1.06641q-0.311036 0.61572-0.850586 0.93311-0.533203 0.31738-1.250489 0.31738-1.091797 0-1.625-0.71094-0.533203-0.71728-0.533203-2.16455zm12.765137-4.17041v1.14258q-0.501465-0.29199-1.009277-0.43799-0.507813-0.146-1.034668-0.146-0.793457 0-1.187012 0.26026-0.387207 0.2539-0.387207 0.78076 0 0.47607 0.291992 0.71094 0.291992 0.23486 1.453613 0.45703l0.469727 0.0889q0.869629 0.16503 1.313965 0.66015 0.450683 0.49512 0.450683 1.28858 0 1.05371-0.749023 1.65039-0.749024 0.59033-2.082031 0.59033-0.526856 0-1.104493-0.11426-0.577636-0.10791-1.250488-0.33008v-1.20605q0.653809 0.33642 1.250488 0.50781 0.59668 0.16504 1.129883 0.16504 0.774414 0 1.199707-0.31104 0.425293-0.31738 0.425293-0.88232 0-0.8125-1.555175-1.12354l-0.05078-0.0127-0.437988-0.0889q-1.009277-0.19678-1.472656-0.66015-0.463379-0.46973-0.463379-1.27588 0-1.02198 0.691894-1.57422 0.691895-0.5586 1.974121-0.5586 0.57129 0 1.098145 0.10791 0.526855 0.10157 1.034668 0.31104zm5.547852-2.26611v2.01855h2.653315v0.90772h-2.653315v3.85937q0 0.78711 0.298339 1.09815 0.29834 0.31103 1.041016 0.31103h1.31396v0.93311h-1.428218q-1.313965 0-1.853515-0.52686-0.539551-0.52685-0.539551-1.81543v-3.85937h-1.897949v-0.90772h1.897949v-2.01855zm7.839355 2.8374q-0.88867 0-1.3457 0.69189-0.45703 0.6919-0.45703 2.0503 0 1.35205 0.45703 2.05029 0.45703 0.69189 1.3457 0.69189 0.89502 0 1.35205-0.69189 0.45703-0.69824 0.45703-2.05029 0-1.3584-0.45703-2.0503-0.45703-0.69189-1.35205-0.69189zm0-0.99024q1.479 0 2.25977 0.9585 0.78711 0.9585 0.78711 2.77393 0 1.82177-0.78077 2.78027-0.78076 0.95215-2.26611 0.95215-1.479 0-2.25977-0.95215-0.78076-0.9585-0.78076-2.78027 0-1.81543 0.78076-2.77393 0.78077-0.9585 2.25977-0.9585zm8.20752 0.89502q0.21582-0.45703 0.5459-0.67285 0.33642-0.22217 0.80615-0.22217 0.85693 0 1.20606 0.66651 0.35546 0.66015 0.35546 2.49463v4.11963h-1.0664v-4.06885q0-1.5044-0.17139-1.86621-0.16504-0.36817-0.60937-0.36817-0.50782 0-0.69825 0.39356-0.18408 0.38721-0.18408 1.84082v4.06885h-1.0664v-4.06885q0-1.52344-0.18409-1.87891-0.17773-0.35547-0.64746-0.35547-0.46338 0-0.64746 0.39356-0.17773 0.38721-0.17773 1.84082v4.06885h-1.06006v-7.10938h1.06006v0.60938q0.20947-0.38086 0.5205-0.57764 0.31739-0.20313 0.71729-0.20313 0.48242 0 0.7998 0.22217 0.32374 0.22217 0.50147 0.67285zm18.17334 6.04932q-0.48877 0.26025-1.00293 0.38721-0.51416 0.1333-1.0918 0.1333-1.82177 0-2.83105-1.28858-1.00293-1.28857-1.00293-3.62451 0-2.32324 1.00928-3.61816 1.01562-1.30127 2.8247-1.30127 0.57764 0 1.0918 0.1333 0.51416 0.12695 1.00293 0.38721v1.31396q-0.46973-0.38721-1.00928-0.59033-0.53955-0.20313-1.08545-0.20313-1.25049 0-1.87256 0.96485-0.62207 0.96484-0.62207 2.91357 0 1.94239 0.62207 2.90723t1.87256 0.96484q0.5586 0 1.0918-0.20312 0.53955-0.20313 1.00293-0.59033zm4.92578-5.9541q-0.88867 0-1.3457 0.69189-0.45703 0.6919-0.45703 2.0503 0 1.35205 0.45703 2.05029 0.45703 0.69189 1.3457 0.69189 0.89502 0 1.35205-0.69189 0.45703-0.69824 0.45703-2.05029 0-1.3584-0.45703-2.0503-0.45703-0.69189-1.35205-0.69189zm0-0.99024q1.479 0 2.25977 0.9585 0.78711 0.9585 0.78711 2.77393 0 1.82177-0.78077 2.78027-0.78076 0.95215-2.26611 0.95215-1.479 0-2.25977-0.95215-0.78076-0.9585-0.78076-2.78027 0-1.81543 0.78076-2.77393 0.78077-0.9585 2.25977-0.9585zm7.97266 4.70362q0 0.78711 0.28564 1.18701 0.29199 0.3999 0.85693 0.3999h1.36475v0.99024h-1.479q-1.04737 0-1.625-0.67286-0.57129-0.67285-0.57129-1.90429v-6.45557h-1.87256v-0.91406h3.04053zm7.68066-3.71338q-0.88867 0-1.3457 0.69189-0.45703 0.6919-0.45703 2.0503 0 1.35205 0.45703 2.05029 0.45703 0.69189 1.3457 0.69189 0.89502 0 1.35205-0.69189 0.45703-0.69824 0.45703-2.05029 0-1.3584-0.45703-2.0503-0.45703-0.69189-1.35205-0.69189zm0-0.99024q1.479 0 2.25977 0.9585 0.78711 0.9585 0.78711 2.77393 0 1.82177-0.78077 2.78027-0.78076 0.95215-2.26611 0.95215-1.479 0-2.25976-0.95215-0.78077-0.9585-0.78077-2.78027 0-1.81543 0.78077-2.77393 0.78076-0.9585 2.25976-0.9585zm5.1543 4.58936v-4.40527h1.16797v4.40527q0 0.9585 0.33642 1.40918 0.34278 0.45068 1.05371 0.45068 0.8252 0 1.26319-0.57763 0.43799-0.58399 0.43799-1.66944v-4.01806h1.17431v7.09668h-1.17431v-1.06641q-0.31104 0.61572-0.85059 0.93311-0.5332 0.31738-1.25049 0.31738-1.0918 0-1.625-0.71094-0.5332-0.71728-0.5332-2.16455zm13.92041-2.95166q-0.37451-0.29199-0.76172-0.42529t-0.85059-0.1333q-1.09179 0-1.66943 0.68554-0.57764 0.68555-0.57764 1.98047v3.53565h-1.17431v-7.10938h1.17431v1.39014q0.292-0.75537 0.89502-1.15528 0.60938-0.40625 1.44092-0.40625 0.43164 0 0.80615 0.10791t0.71729 0.33643zm6.13818-3.83398h1.20606l-4.98926 10.6831h-1.2124zm2.72949 0h1.71387l1.6377 4.82421 1.65039-4.82421h1.72021v9.47705h-1.18701v-8.37256l-1.68848 4.9956h-0.97119l-1.69482-4.9956v8.37256h-1.18067zm11.19092 3.18652q-0.88867 0-1.3457 0.69189-0.45703 0.6919-0.45703 2.0503 0 1.35205 0.45703 2.05029 0.45703 0.69189 1.3457 0.69189 0.89502 0 1.35205-0.69189 0.45703-0.69824 0.45703-2.05029 0-1.3584-0.45703-2.0503-0.45703-0.69189-1.35205-0.69189zm0-0.99024q1.47901 0 2.25977 0.9585 0.78711 0.9585 0.78711 2.77393 0 1.82177-0.78077 2.78027-0.78076 0.95215-2.26611 0.95215-1.479 0-2.25976-0.95215-0.78077-0.9585-0.78077-2.78027 0-1.81543 0.78077-2.77393 0.78076-0.9585 2.25976-0.9585zm9.36279 1.07911v-3.6753h1.16797v9.87696h-1.16797v-0.89502q-0.29199 0.52685-0.78076 0.80615-0.48242 0.27295-1.11718 0.27295-1.28858 0-2.03125-0.99658-0.73633-1.00293-0.73633-2.76123 0-1.73291 0.74267-2.7168 0.74268-0.99024 2.02491-0.99024 0.64111 0 1.12988 0.2793 0.48877 0.27295 0.76806 0.79981zm-3.43408 2.65332q0 1.35839 0.43164 2.05029 0.43164 0.69189 1.27588 0.69189t1.28223-0.69824q0.44433-0.69824 0.44433-2.04394 0-1.35205-0.44433-2.04395-0.43799-0.69824-1.28223-0.69824t-1.27588 0.69189q-0.43164 0.6919-0.43164 2.0503zm11.26074-2.65332v-3.6753h1.16797v9.87696h-1.16797v-0.89502q-0.29199 0.52685-0.78076 0.80615-0.48242 0.27295-1.11718 0.27295-1.28858 0-2.03125-0.99658-0.73633-1.00293-0.73633-2.76123 0-1.73291 0.74267-2.7168 0.74268-0.99024 2.02491-0.99024 0.64111 0 1.12988 0.2793 0.48877 0.27295 0.76806 0.79981zm-3.43408 2.65332q0 1.35839 0.43164 2.05029 0.43164 0.69189 1.27588 0.69189t1.28223-0.69824q0.44433-0.69824 0.44433-2.04394 0-1.35205-0.44433-2.04395-0.43799-0.69824-1.28223-0.69824t-1.27588 0.69189q-0.43164 0.6919-0.43164 2.0503zm12.87305-0.29834v0.57129h-5.05908v0.0381q0 1.16162 0.60302 1.79639 0.60938 0.63476 1.71387 0.63476 0.5586 0 1.16797-0.17773 0.60938-0.17773 1.30127-0.53955v1.16162q-0.6665 0.27295-1.28857 0.40625-0.61573 0.13965-1.19336 0.13965-1.65674 0-2.58985-0.99024-0.9331-0.99658-0.9331-2.74218 0-1.70118 0.91406-2.7168 0.91406-1.01563 2.4375-1.01563 1.3584 0 2.13916 0.92041 0.78711 0.92041 0.78711 2.51368zm-1.16797-0.34278q-0.0254-1.02832-0.48877-1.56152-0.45703-0.53955-1.32031-0.53955-0.84424 0-1.39014 0.55859-0.5459 0.5586-0.64746 1.54883zm7.38233-2.0122v-3.6753h1.16796v9.87696h-1.16796v-0.89502q-0.292 0.52685-0.78077 0.80615-0.48242 0.27295-1.11718 0.27295-1.28858 0-2.03125-0.99658-0.73633-1.00293-0.73633-2.76123 0-1.73291 0.74267-2.7168 0.74268-0.99024 2.02491-0.99024 0.64111 0 1.12988 0.2793 0.48877 0.27295 0.76807 0.79981zm-3.43409 2.65332q0 1.35839 0.43164 2.05029 0.43164 0.69189 1.27588 0.69189t1.28223-0.69824q0.44434-0.69824 0.44434-2.04394 0-1.35205-0.44434-2.04395-0.43799-0.69824-1.28223-0.69824t-1.27588 0.69189q-0.43164 0.6919-0.43164 2.0503zm20.45215 3.21191q-0.48877 0.26025-1.00293 0.38721-0.51416 0.1333-1.0918 0.1333-1.82177 0-2.83105-1.28858-1.00293-1.28857-1.00293-3.62451 0-2.32324 1.00928-3.61816 1.01562-1.30127 2.8247-1.30127 0.57764 0 1.0918 0.1333 0.51416 0.12695 1.00293 0.38721v1.31396q-0.46973-0.38721-1.00928-0.59033-0.53955-0.20313-1.08545-0.20313-1.25048 0-1.87255 0.96485-0.62207 0.96484-0.62207 2.91357 0 1.94239 0.62207 2.90723t1.87255 0.96484q0.5586 0 1.0918-0.20312 0.53955-0.20313 1.00293-0.59033zm5.47168-3.2373h-0.38721q-1.02197 0-1.54248 0.36181-0.51416 0.35547-0.51416 1.06641 0 0.64111 0.38721 0.99658t1.07275 0.35547q0.96485 0 1.51709-0.6665 0.55225-0.67286 0.5586-1.85352v-0.26025zm2.26611-0.48243v4.05616h-1.17431v-1.05371q-0.37451 0.63476-0.9458 0.93945-0.56494 0.29834-1.37744 0.29834-1.08545 0-1.73291-0.60938-0.64747-0.61572-0.64747-1.64404 0-1.18701 0.79346-1.80273 0.79981-0.61573 2.34229-0.61573h1.56787v-0.18408q-6e-3 -0.85058-0.43164-1.23144-0.4253-0.38721-1.3584-0.38721-0.59668 0-1.20606 0.17139-0.60937 0.17138-1.18701 0.50146v-1.16797q0.64746-0.24756 1.2378-0.36816 0.59668-0.12696 1.15527-0.12696 0.88232 0 1.50439 0.26026 0.62842 0.26025 1.01563 0.78076 0.24121 0.31738 0.34277 0.78711 0.10156 0.46338 0.10156 1.39648zm5.39551-2.32959q0.21582-0.45703 0.5459-0.67285 0.33643-0.22217 0.80615-0.22217 0.85694 0 1.20606 0.66651 0.35547 0.66015 0.35547 2.49463v4.11963h-1.06641v-4.06885q0-1.5044-0.17139-1.86621-0.16504-0.36817-0.60937-0.36817-0.50781 0-0.69824 0.39356-0.18409 0.38721-0.18409 1.84082v4.06885h-1.0664v-4.06885q0-1.52344-0.18408-1.87891-0.17774-0.35547-0.64746-0.35547-0.46338 0-0.64747 0.39356-0.17773 0.38721-0.17773 1.84082v4.06885h-1.06006v-7.10938h1.06006v0.60938q0.20947-0.38086 0.52051-0.57764 0.31738-0.20313 0.71728-0.20313 0.48242 0 0.79981 0.22217 0.32373 0.22217 0.50146 0.67285zm5.91602 5.49073v3.59912h-1.17432v-9.81348h1.17432v0.90772q0.29199-0.52686 0.77441-0.79981 0.48877-0.2793 1.12354-0.2793 1.28857 0 2.01855 0.99659 0.73633 0.99658 0.73633 2.76123 0 1.73291-0.73633 2.72314-0.73633 0.98389-2.01855 0.98389-0.64746 0-1.13623-0.27295-0.48243-0.2793-0.76172-0.80615zm3.42773-2.65332q0-1.3584-0.43164-2.0503-0.42529-0.69189-1.26953-0.69189-0.85059 0-1.28857 0.69824-0.43799 0.6919-0.43799 2.04395 0 1.3457 0.43799 2.04394 0.43798 0.69824 1.28857 0.69824 0.84424 0 1.26953-0.69189 0.43164-0.6919 0.43164-2.05029zm6.47461-0.0254h-0.38721q-1.02197 0-1.54248 0.36181-0.51416 0.35547-0.51416 1.06641 0 0.64111 0.38721 0.99658t1.07275 0.35547q0.96485 0 1.51709-0.6665 0.55225-0.67286 0.5586-1.85352v-0.26025zm2.26611-0.48243v4.05616h-1.17431v-1.05371q-0.37451 0.63476-0.9458 0.93945-0.56494 0.29834-1.37744 0.29834-1.08545 0-1.73291-0.60938-0.64746-0.61572-0.64746-1.64404 0-1.18701 0.79345-1.80273 0.79981-0.61573 2.34229-0.61573h1.56787v-0.18408q-6e-3 -0.85058-0.43164-1.23144-0.4253-0.38721-1.3584-0.38721-0.59668 0-1.20606 0.17139-0.60937 0.17138-1.18701 0.50146v-1.16797q0.64746-0.24756 1.2378-0.36816 0.59668-0.12696 1.15527-0.12696 0.88232 0 1.50439 0.26026 0.62842 0.26025 1.01563 0.78076 0.24121 0.31738 0.34277 0.78711 0.10156 0.46338 0.10156 1.39648zm2.7295-3.05322h2.98974v6.20166h2.3169v0.90772h-5.80176v-0.90772h2.31689v-5.29394h-1.82177zm1.82177-2.76758h1.16797v1.47901h-1.16797zm9.82618 6.26514q0-1.31397-0.43164-1.99316-0.4253-0.68555-1.24414-0.68555-0.85694 0-1.30762 0.68555-0.45069 0.67919-0.45069 1.99316 0 1.31396 0.45069 2.00586 0.45703 0.68555 1.32031 0.68555 0.80615 0 1.23145-0.6919 0.43164-0.69189 0.43164-1.99951zm1.16797 3.15478q0 1.59961-0.75538 2.42481-0.75537 0.82519-2.22168 0.82519-0.48242 0-1.00927-0.0889-0.52686-0.0889-1.05371-0.26026v-1.15527q0.62207 0.29199 1.12988 0.43164t0.9331 0.13965q0.94581 0 1.37745-0.51416t0.43164-1.63135v-0.84426q-0.2793 0.59668-0.76172 0.88868-0.48242 0.29199-1.17432 0.29199-1.24414 0-1.98682-0.99658-0.74267-0.99659-0.74267-2.66602 0-1.67578 0.74267-2.67236 0.74268-0.99659 1.98682-0.99659 0.68555 0 1.16162 0.27295 0.47608 0.27295 0.77442 0.84424v-0.92041h1.16797zm7.88378-3.94824v4.40528h-1.17431v-4.40528q0-0.95849-0.33643-1.40918-0.33642-0.45068-1.05371-0.45068-0.81885 0-1.26318 0.58398-0.43799 0.57764-0.43799 1.66309v4.01807h-1.16797v-7.10938h1.16797v1.06641q0.31103-0.60938 0.84424-0.92041 0.5332-0.31739 1.26318-0.31739 1.08545 0 1.61865 0.71729 0.53955 0.71094 0.53955 2.1582zm7.33155-2.45654v1.14258q-0.50147-0.29199-1.00928-0.43799t-1.03467-0.146q-0.79346 0-1.18701 0.26026-0.38721 0.2539-0.38721 0.78076 0 0.47607 0.292 0.71094 0.29199 0.23486 1.45361 0.45703l0.46973 0.0889q0.86962 0.16503 1.31396 0.66015 0.45068 0.49512 0.45068 1.28858 0 1.05371-0.74902 1.65039-0.74902 0.59033-2.08203 0.59033-0.52686 0-1.10449-0.11426-0.57764-0.10791-1.25049-0.33008v-1.20605q0.65381 0.33642 1.25049 0.50781 0.59668 0.16504 1.12988 0.16504 0.77441 0 1.19971-0.31104 0.42529-0.31738 0.42529-0.88232 0-0.8125-1.55518-1.12354l-0.0508-0.0127-0.43799-0.0889q-1.00927-0.19678-1.47265-0.66015-0.46338-0.46973-0.46338-1.27588 0-1.02198 0.69189-1.57422 0.6919-0.5586 1.97412-0.5586 0.57129 0 1.09815 0.10791 0.52685 0.10157 1.03467 0.31104z" fill="#1e90ff"/><path d="m313.2915 483.99902v-7.74414h7.75049v7.74414z" fill="#fff"/><path d="m335.33057 474.35059v1.30127q-0.58399-0.37452-1.17432-0.56495-0.58398-0.19043-1.18066-0.19043-0.90772 0-1.43457 0.4253-0.52686 0.41894-0.52686 1.13623 0 0.62842 0.34277 0.95849 0.34912 0.33008 1.29493 0.55225l0.67285 0.15234q1.333 0.31104 1.94238 0.97754 0.60937 0.66651 0.60937 1.81543 0 1.35205-0.83789 2.06299t-2.4375 0.71094q-0.6665 0-1.33935-0.146-0.67285-0.13965-1.35205-0.42529v-1.36475q0.72998 0.46338 1.37744 0.6792 0.65381 0.21582 1.31396 0.21582 0.9712 0 1.51075-0.43164 0.53955-0.43799 0.53955-1.21875 0-0.71094-0.37451-1.08545-0.36817-0.37451-1.28858-0.57763l-0.68555-0.1587q-1.32031-0.29834-1.91699-0.90136-0.59668-0.60303-0.59668-1.61865 0-1.26954 0.85059-2.03125 0.85693-0.76807 2.27246-0.76807 0.5459 0 1.14893 0.12695 0.60302 0.12061 1.26953 0.36817zm2.64062 6.46191v-4.40527h1.16797v4.40527q0 0.9585 0.33643 1.40918 0.34277 0.45068 1.05371 0.45068 0.82519 0 1.26318-0.57763 0.43799-0.58399 0.43799-1.66944v-4.01806h1.17432v7.09668h-1.17432v-1.06641q-0.31104 0.61572-0.85059 0.93311-0.5332 0.31738-1.25049 0.31738-1.09179 0-1.625-0.71094-0.5332-0.71728-0.5332-2.16455zm13.92041-2.95166q-0.37451-0.29199-0.76172-0.42529-0.3872-0.1333-0.85058-0.1333-1.0918 0-1.66944 0.68554-0.57763 0.68555-0.57763 1.98047v3.53565h-1.17432v-7.10938h1.17432v1.39014q0.29199-0.75537 0.89502-1.15528 0.60937-0.40625 1.44091-0.40625 0.43164 0 0.80616 0.10791 0.37451 0.10791 0.71728 0.33643zm1.12988-1.46631h1.21241l2.06298 5.9668 2.06934-5.9668h1.2124l-2.52636 7.10938h-1.5044zm8.8169 0h2.98974v6.20166h2.3169v0.90772h-5.80176v-0.90772h2.3169v-5.29394h-1.82178zm1.82178-2.76758h1.16796v1.47901h-1.16796zm5.01464 2.76758h1.21241l2.06299 5.9668 2.06933-5.9668h1.2124l-2.52636 7.10938h-1.5044zm11.10206 0.81885q-0.88868 0-1.34571 0.69189-0.45703 0.6919-0.45703 2.0503 0 1.35205 0.45703 2.05029 0.45703 0.69189 1.34571 0.69189 0.89501 0 1.35205-0.69189 0.45703-0.69824 0.45703-2.05029 0-1.3584-0.45703-2.0503-0.45704-0.69189-1.35205-0.69189zm0-0.99024q1.479 0 2.25976 0.9585 0.78711 0.9585 0.78711 2.77393 0 1.82177-0.78076 2.78027-0.78076 0.95215-2.26611 0.95215-1.47901 0-2.25977-0.95215-0.78076-0.9585-0.78076-2.78027 0-1.81543 0.78076-2.77393t2.25977-0.9585zm11.24804 1.6377q-0.37451-0.29199-0.76172-0.42529-0.3872-0.1333-0.85058-0.1333-1.0918 0-1.66944 0.68554-0.57763 0.68555-0.57763 1.98047v3.53565h-1.17432v-7.10938h1.17432v1.39014q0.29199-0.75537 0.89502-1.15528 0.60937-0.40625 1.44091-0.40625 0.43165 0 0.80616 0.10791t0.71728 0.33643z" fill="#1e90ff"/><path d="m399.38477 483.99902v-7.74414h7.75048v7.74414z" fill="#ffff73"/><path d="m415.5459 474.02686h1.71387l1.63769 4.82421 1.65039-4.82421h1.72022v9.47705h-1.18702v-8.37256l-1.68847 4.9956h-0.97119l-1.69483-4.9956v8.37256h-1.18066zm11.19092 3.18652q-0.88868 0-1.34571 0.69189-0.45703 0.6919-0.45703 2.0503 0 1.35205 0.45703 2.05029 0.45703 0.69189 1.34571 0.69189 0.89502 0 1.35205-0.69189 0.45703-0.69824 0.45703-2.05029 0-1.3584-0.45703-2.0503-0.45703-0.69189-1.35205-0.69189zm0-0.99024q1.479 0 2.25976 0.9585 0.78711 0.9585 0.78711 2.77393 0 1.82177-0.78076 2.78027-0.78076 0.95215-2.26611 0.95215-1.47901 0-2.25977-0.95215-0.78076-0.9585-0.78076-2.78027 0-1.81543 0.78076-2.77393t2.25977-0.9585zm10.58789 2.87549v4.40528h-1.17432v-4.40528q0-0.95849-0.33643-1.40918-0.33642-0.45068-1.05371-0.45068-0.81884 0-1.26318 0.58398-0.43799 0.57764-0.43799 1.66309v4.01807h-1.16797v-7.10938h1.16797v1.06641q0.31104-0.60938 0.84424-0.92041 0.5332-0.31739 1.26318-0.31739 1.08545 0 1.61866 0.71729 0.53955 0.71094 0.53955 2.1582zm2.65332-5.47168h1.20605v5.71924l3.06592-2.95166h1.42187l-2.79931 2.67871 3.2373 4.43067h-1.42822l-2.62793-3.66895-0.86963 0.81885v2.8501h-1.20605z" fill="#1e90ff"/><path d="m454.17139 483.99902v-7.74414h7.75048v7.74414z" fill="#ff7373"/><path d="m470.65625 474.02686h1.28857v3.88476h3.51026v-3.88476h1.28857v9.47705h-1.28857v-4.51319h-3.51026v4.51319h-1.28857zm8.19482 6.78564v-4.40527h1.16797v4.40527q0 0.9585 0.33643 1.40918 0.34277 0.45068 1.05371 0.45068 0.82519 0 1.26318-0.57763 0.43799-0.58399 0.43799-1.66944v-4.01806h1.17432v7.09668h-1.17432v-1.06641q-0.31103 0.61572-0.85058 0.93311-0.53321 0.31738-1.25049 0.31738-1.0918 0-1.625-0.71094-0.53321-0.71728-0.53321-2.16455zm13.26026-1.71387v4.40528h-1.17432v-4.40528q0-0.95849-0.33642-1.40918-0.33643-0.45068-1.05372-0.45068-0.81884 0-1.26318 0.58398-0.43799 0.57764-0.43799 1.66309v4.01807h-1.16797v-7.10938h1.16797v1.06641q0.31104-0.60938 0.84424-0.92041 0.5332-0.31739 1.26318-0.31739 1.08545 0 1.61866 0.71729 0.53955 0.71094 0.53955 2.1582zm5.05273-4.72265v2.01855h2.65332v0.90772h-2.65332v3.85937q0 0.78711 0.29834 1.09815 0.29834 0.31103 1.04102 0.31103h1.31396v0.93311h-1.42822q-1.31396 0-1.85352-0.52686-0.53955-0.52685-0.53955-1.81543v-3.85937h-1.89795v-0.90772h1.89795v-2.01855zm10.9878 5.28125v0.57129h-5.05909v0.0381q0 1.16162 0.60303 1.79639 0.60938 0.63476 1.71387 0.63476 0.55859 0 1.16797-0.17773 0.60937-0.17773 1.30127-0.53955v1.16162q-0.66651 0.27295-1.28858 0.40625-0.61572 0.13965-1.19336 0.13965-1.65674 0-2.58984-0.99024-0.93311-0.99658-0.93311-2.74218 0-1.70118 0.91407-2.7168 0.91406-1.01563 2.4375-1.01563 1.35839 0 2.13916 0.92041 0.78711 0.92041 0.78711 2.51368zm-1.16797-0.34278q-0.0254-1.02832-0.48877-1.56152-0.45703-0.53955-1.32032-0.53955-0.84423 0-1.39013 0.55859-0.5459 0.5586-0.64746 1.54883zm9.26757-1.45361q-0.37451-0.29199-0.76171-0.42529-0.38721-0.1333-0.85059-0.1333-1.0918 0-1.66943 0.68554-0.57764 0.68555-0.57764 1.98047v3.53565h-1.17432v-7.10938h1.17432v1.39014q0.29199-0.75537 0.89502-1.15528 0.60937-0.40625 1.44092-0.40625 0.43164 0 0.80615 0.10791t0.71728 0.33643z" fill="#1e90ff"/><path d="m524.61133 483.99902v-7.74414h7.75049v7.74414z" fill="#f0c097"/><path d="m547.23437 482.72314q-0.51416 0.47608-1.16162 0.72364-0.64111 0.24121-1.39013 0.24121-1.80274 0-2.80567-1.28858-1.00293-1.29492-1.00293-3.62451 0-2.32324 1.01563-3.61816 1.01562-1.30127 2.82471-1.30127 0.59668 0 1.14257 0.17139 0.5459 0.16503 1.05371 0.50781v1.31396q-0.51416-0.48877-1.05371-0.71728-0.53955-0.23487-1.14257-0.23487-1.25049 0-1.87891 0.9712-0.62207 0.96484-0.62207 2.90722 0 1.97412 0.60303 2.92627 0.60937 0.9458 1.86621 0.9458 0.42529 0 0.74267-0.0952 0.32373-0.10156 0.58399-0.31104v-2.54541h-1.37744v-1.05371h2.60253zm4.72901-5.50976q-0.88867 0-1.3457 0.69189-0.45704 0.6919-0.45704 2.0503 0 1.35205 0.45704 2.05029 0.45703 0.69189 1.3457 0.69189 0.89502 0 1.35205-0.69189 0.45703-0.69824 0.45703-2.05029 0-1.3584-0.45703-2.0503-0.45703-0.69189-1.35205-0.69189zm0-0.99024q1.479 0 2.25976 0.9585 0.78711 0.9585 0.78711 2.77393 0 1.82177-0.78076 2.78027-0.78076 0.95215-2.26611 0.95215-1.47901 0-2.25977-0.95215-0.78076-0.9585-0.78076-2.78027 0-1.81543 0.78076-2.77393t2.25977-0.9585zm5.1543 4.58936v-4.40527h1.16796v4.40527q0 0.9585 0.33643 1.40918 0.34277 0.45068 1.05371 0.45068 0.8252 0 1.26318-0.57763 0.43799-0.58399 0.43799-1.66944v-4.01806h1.17432v7.09668h-1.17432v-1.06641q-0.31103 0.61572-0.85058 0.93311-0.53321 0.31738-1.25049 0.31738-1.0918 0-1.625-0.71094-0.5332-0.71728-0.5332-2.16455zm13.92041-2.95166q-0.37452-0.29199-0.76172-0.42529-0.38721-0.1333-0.85059-0.1333-1.0918 0-1.66943 0.68554-0.57764 0.68555-0.57764 1.98047v3.53565h-1.17432v-7.10938h1.17432v1.39014q0.29199-0.75537 0.89502-1.15528 0.60938-0.40625 1.44092-0.40625 0.43164 0 0.80615 0.10791t0.71729 0.33643zm4.78613-0.74268q0.21582-0.45703 0.5459-0.67285 0.33642-0.22217 0.80615-0.22217 0.85693 0 1.20605 0.66651 0.35547 0.66015 0.35547 2.49463v4.11963h-1.0664v-4.06885q0-1.5044-0.17139-1.86621-0.16504-0.36817-0.60938-0.36817-0.50781 0-0.69824 0.39356-0.18408 0.38721-0.18408 1.84082v4.06885h-1.06641v-4.06885q0-1.52344-0.18408-1.87891-0.17773-0.35547-0.64746-0.35547-0.46338 0-0.64746 0.39356-0.17773 0.38721-0.17773 1.84082v4.06885h-1.06006v-7.10938h1.06006v0.60938q0.20947-0.38086 0.5205-0.57764 0.31739-0.20313 0.71729-0.20313 0.48242 0 0.7998 0.22217 0.32373 0.22217 0.50147 0.67285zm7.9917 2.81202h-0.38721q-1.02197 0-1.54248 0.36181-0.51416 0.35547-0.51416 1.06641 0 0.64111 0.38721 0.99658 0.3872 0.35547 1.07275 0.35547 0.96484 0 1.51709-0.6665 0.55225-0.67286 0.55859-1.85352v-0.26025zm2.26611-0.48243v4.05616h-1.17432v-1.05371q-0.37451 0.63476-0.9458 0.93945-0.56494 0.29834-1.37744 0.29834-1.08545 0-1.73291-0.60938-0.64746-0.61572-0.64746-1.64404 0-1.18701 0.79346-1.80273 0.7998-0.61573 2.34228-0.61573h1.56787v-0.18408q-6e-3 -0.85058-0.43164-1.23144-0.42529-0.38721-1.35839-0.38721-0.59668 0-1.20606 0.17139-0.60937 0.17138-1.18701 0.50146v-1.16797q0.64746-0.24756 1.23779-0.36816 0.59668-0.12696 1.15528-0.12696 0.88232 0 1.50439 0.26026 0.62842 0.26025 1.01563 0.78076 0.24121 0.31738 0.34277 0.78711 0.10156 0.46338 0.10156 1.39648zm7.77588-0.34912v4.40528h-1.17432v-4.40528q0-0.95849-0.33642-1.40918-0.33643-0.45068-1.05371-0.45068-0.81885 0-1.26319 0.58398-0.43798 0.57764-0.43798 1.66309v4.01807h-1.16797v-7.10938h1.16797v1.06641q0.31103-0.60938 0.84423-0.92041 0.53321-0.31739 1.26319-0.31739 1.08545 0 1.61865 0.71729 0.53955 0.71094 0.53955 2.1582zm6.60156-1.79638v-3.6753h1.16797v9.87696h-1.16797v-0.89502q-0.29199 0.52685-0.78076 0.80615-0.48242 0.27295-1.11719 0.27295-1.28857 0-2.03125-0.99658-0.73632-1.00293-0.73632-2.76123 0-1.73291 0.74267-2.7168 0.74268-0.99024 2.0249-0.99024 0.64112 0 1.12989 0.2793 0.48877 0.27295 0.76806 0.79981zm-3.43408 2.65332q0 1.35839 0.43164 2.05029 0.43164 0.69189 1.27588 0.69189t1.28223-0.69824q0.44433-0.69824 0.44433-2.04394 0-1.35205-0.44433-2.04395-0.43799-0.69824-1.28223-0.69824t-1.27588 0.69189q-0.43164 0.6919-0.43164 2.0503z" fill="#1e90ff"/><path d="m610.70459 483.99902v-7.74414h7.75049v7.74414z" fill="#70223b"/><path d="m630.22998 475.15674-1.35205 4.84961h2.7041zm-0.77441-1.12988h1.55517l2.90088 9.47705h-1.32666l-0.69824-2.46924h-3.31983l-0.68554 2.46924h-1.32666zm12.02246 3.83398q-0.37451-0.29199-0.76172-0.42529t-0.85059-0.1333q-1.09179 0-1.66943 0.68554-0.57764 0.68555-0.57764 1.98047v3.53565h-1.17431v-7.10938h1.17431v1.39014q0.29199-0.75537 0.89502-1.15528 0.60938-0.40625 1.44092-0.40625 0.43164 0 0.80615 0.10791t0.71729 0.33643zm4.39258-3.48486v2.01855h2.65332v0.90772h-2.65332v3.85937q0 0.78711 0.29834 1.09815 0.29834 0.31103 1.04101 0.31103h1.31397v0.93311h-1.42823q-1.31396 0-1.85351-0.52686-0.53955-0.52685-0.53955-1.81543v-3.85937h-1.89795v-0.90772h1.89795v-2.01855zm5.55419 2.01855h2.98975v6.20166h2.3169v0.90772h-5.80176v-0.90772h2.31689v-5.29394h-1.82178zm1.82178-2.76758h1.16797v1.47901h-1.16797zm11.12744 0v0.97119h-1.32666q-0.62841 0-0.87597 0.26026-0.24121 0.2539-0.24121 0.90771v0.62842h2.44384v0.90772h-2.44384v6.20166h-1.16797v-6.20166h-1.89795v-0.90772h1.89795v-0.49512q0-1.16796 0.5332-1.72021 0.53955-0.55225 1.67578-0.55225zm2.7041 2.76758h2.98975v6.20166h2.3169v0.90772h-5.80176v-0.90772h2.31689v-5.29394h-1.82178zm1.82178-2.76758h1.16797v1.47901h-1.16797zm11.11475 9.51514q-0.46973 0.27295-0.97119 0.40625-0.49512 0.13965-1.01563 0.13965-1.65039 0-2.58349-0.99024-0.92676-0.99023-0.92676-2.74218 0-1.75196 0.92676-2.74219 0.9331-0.99024 2.58349-0.99024 0.51416 0 1.00293 0.13331 0.48877 0.1333 0.98389 0.41259v1.2251q-0.46338-0.4126-0.93311-0.59668-0.46338-0.18408-1.05371-0.18408-1.09814 0-1.68847 0.71094-0.59034 0.71093-0.59034 2.03125 0 1.31396 0.59034 2.03125 0.59668 0.71093 1.68847 0.71093 0.60938 0 1.0918-0.18408 0.48242-0.19043 0.89502-0.58398zm8.15039-3.48486v0.57129h-5.05908v0.0381q0 1.16162 0.60302 1.79639 0.60938 0.63476 1.71387 0.63476 0.5586 0 1.16797-0.17773 0.60938-0.17773 1.30127-0.53955v1.16162q-0.6665 0.27295-1.28857 0.40625-0.61573 0.13965-1.19336 0.13965-1.65674 0-2.58985-0.99024-0.9331-0.99658-0.9331-2.74218 0-1.70118 0.91406-2.7168 0.91406-1.01563 2.4375-1.01563 1.3584 0 2.13916 0.92041 0.78711 0.92041 0.78711 2.51368zm-1.16797-0.34278q-0.0254-1.02832-0.48877-1.56152-0.45703-0.53955-1.32031-0.53955-0.84424 0-1.39014 0.55859-0.5459 0.5586-0.64746 1.54883zm9.26758-1.45361q-0.37451-0.29199-0.76172-0.42529t-0.85059-0.1333q-1.09179 0-1.66943 0.68554-0.57764 0.68555-0.57764 1.98047v3.53565h-1.17431v-7.10938h1.17431v1.39014q0.292-0.75537 0.89502-1.15528 0.60938-0.40625 1.44092-0.40625 0.43164 0 0.80615 0.10791t0.71729 0.33643z" fill="#1e90ff"/><path d="m704.62451 483.99902v-7.74414h7.75049v7.74414z" fill="#91ccf0"/><path d="m725.06396 479.02881q0.49512 0.12695 0.84424 0.48242 0.34912 0.34912 0.86963 1.40283l1.28858 2.58985h-1.37745l-1.12988-2.39307q-0.48877-1.02197-0.88232-1.31397-0.38721-0.29833-1.01563-0.29833h-1.22509v4.00537h-1.28858v-9.47705h2.64063q1.56152 0 2.39306 0.70459 0.83155 0.70459 0.83155 2.03759 0 0.93946-0.51416 1.53614-0.50782 0.59033-1.43458 0.72363zm-2.62792-3.94824v3.36425h1.40283q0.92041 0 1.37109-0.41259 0.45068-0.4126 0.45068-1.26319 0-0.81884-0.48242-1.25049-0.47607-0.43798-1.39013-0.43798zm7.25537 1.31396h2.98974v6.20166h2.3169v0.90772h-5.80176v-0.90772h2.31689v-5.29394h-1.82177zm1.82177-2.76758h1.16797v1.47901h-1.16797zm5.01465 2.76758h1.2124l2.06299 5.9668 2.06934-5.9668h1.2124l-2.52637 7.10938h-1.50439zm8.42969 4.41797v-4.40527h1.16797v4.40527q0 0.9585 0.33642 1.40918 0.34278 0.45068 1.05371 0.45068 0.8252 0 1.26319-0.57763 0.43799-0.58399 0.43799-1.66944v-4.01806h1.17431v7.09668h-1.17431v-1.06641q-0.31104 0.61572-0.85059 0.93311-0.5332 0.31738-1.25049 0.31738-1.09179 0-1.625-0.71094-0.5332-0.71728-0.5332-2.16455zm10.64502 0.11426q0 0.78711 0.28564 1.18701 0.292 0.3999 0.85694 0.3999h1.36474v0.99024h-1.479q-1.04736 0-1.625-0.67286-0.57129-0.67285-0.57129-1.90429v-6.45557h-1.87256v-0.91406h3.04053zm10.8291-1.26953v0.57129h-5.05908v0.0381q0 1.16162 0.60303 1.79639 0.60937 0.63476 1.71386 0.63476 0.5586 0 1.16797-0.17773 0.60938-0.17773 1.30127-0.53955v1.16162q-0.6665 0.27295-1.28857 0.40625-0.61573 0.13965-1.19336 0.13965-1.65674 0-2.58985-0.99024-0.9331-0.99658-0.9331-2.74218 0-1.70118 0.91406-2.7168 0.91406-1.01563 2.4375-1.01563 1.3584 0 2.13916 0.92041 0.78711 0.92041 0.78711 2.51368zm-1.16797-0.34278q-0.0254-1.02832-0.48877-1.56152-0.45703-0.53955-1.32031-0.53955-0.84424 0-1.39014 0.55859-0.5459 0.5586-0.64746 1.54883zm5.8335-4.93847v2.01855h2.65332v0.90772h-2.65332v3.85937q0 0.78711 0.29834 1.09815 0.29834 0.31103 1.04101 0.31103h1.31397v0.93311h-1.42822q-1.31397 0-1.85352-0.52686-0.53955-0.52685-0.53955-1.81543v-3.85937h-1.89795v-0.90772h1.89795v-2.01855z" fill="#1e90ff"/><path d="m314.61816 500.24902v-7.74414h7.75049v7.74414z" fill="#4f2d68"/><path d="m336.65723 490.60059v1.30127q-0.58399-0.37452-1.17432-0.56495-0.58398-0.19043-1.18066-0.19043-0.90772 0-1.43457 0.4253-0.52686 0.41894-0.52686 1.13623 0 0.62842 0.34277 0.95849 0.34912 0.33008 1.29493 0.55225l0.67285 0.15234q1.333 0.31104 1.94238 0.97754 0.60937 0.66651 0.60937 1.81543 0 1.35205-0.83789 2.06299t-2.4375 0.71094q-0.6665 0-1.33935-0.146-0.67285-0.13965-1.35205-0.42529v-1.36475q0.72998 0.46338 1.37744 0.6792 0.65381 0.21582 1.31396 0.21582 0.9712 0 1.51075-0.43164 0.53955-0.43799 0.53955-1.21875 0-0.71094-0.37451-1.08545-0.36817-0.37451-1.28858-0.57763l-0.68555-0.1587q-1.32031-0.29834-1.91699-0.90136-0.59668-0.60303-0.59668-1.61865 0-1.26954 0.85059-2.03125 0.85693-0.76807 2.27246-0.76807 0.5459 0 1.14893 0.12695 0.60302 0.12061 1.26953 0.36817zm3.7832 8.2583v3.59912h-1.17432v-9.81348h1.17432v0.90772q0.29199-0.52686 0.77441-0.79981 0.48877-0.2793 1.12354-0.2793 1.28857 0 2.01855 0.99659 0.73633 0.99658 0.73633 2.76123 0 1.73291-0.73633 2.72314-0.73632 0.98389-2.01855 0.98389-0.64746 0-1.13623-0.27295-0.48242-0.2793-0.76172-0.80615zm3.42773-2.65332q0-1.3584-0.43164-2.0503-0.42529-0.69189-1.26953-0.69189-0.85058 0-1.28857 0.69824-0.43799 0.6919-0.43799 2.04395 0 1.3457 0.43799 2.04394t1.28857 0.69824q0.84424 0 1.26953-0.69189 0.43164-0.6919 0.43164-2.05029zm9.07715-0.29834v0.57129h-5.05908v0.0381q0 1.16162 0.60303 1.79639 0.60937 0.63476 1.71386 0.63476 0.5586 0 1.16797-0.17773 0.60938-0.17773 1.30127-0.53955v1.16162q-0.6665 0.27295-1.28857 0.40625-0.61572 0.13965-1.19336 0.13965-1.65674 0-2.58984-0.99024-0.93311-0.99658-0.93311-2.74218 0-1.70118 0.91406-2.7168 0.91407-1.01563 2.4375-1.01563 1.3584 0 2.13916 0.92041 0.78711 0.92041 0.78711 2.51368zm-1.16797-0.34278q-0.0254-1.02832-0.48877-1.56152-0.45703-0.53955-1.32031-0.53955-0.84424 0-1.39014 0.55859-0.54589 0.5586-0.64746 1.54883zm6.39209 0.61573h-0.3872q-1.02198 0-1.54248 0.36181-0.51416 0.35547-0.51416 1.06641 0 0.64111 0.3872 0.99658 0.38721 0.35547 1.07276 0.35547 0.96484 0 1.51709-0.6665 0.55224-0.67286 0.55859-1.85352v-0.26025zm2.26612-0.48243v4.05616h-1.17432v-1.05371q-0.37451 0.63476-0.9458 0.93945-0.56494 0.29834-1.37744 0.29834-1.08545 0-1.73291-0.60938-0.64746-0.61572-0.64746-1.64404 0-1.18701 0.79345-1.80273 0.79981-0.61573 2.34229-0.61573h1.56787v-0.18408q-6e-3 -0.85058-0.43164-1.23144-0.42529-0.38721-1.3584-0.38721-0.59668 0-1.20605 0.17139-0.60938 0.17138-1.18702 0.50146v-1.16797q0.64747-0.24756 1.2378-0.36816 0.59668-0.12696 1.15527-0.12696 0.88233 0 1.5044 0.26026 0.62841 0.26025 1.01562 0.78076 0.24121 0.31738 0.34277 0.78711 0.10157 0.46338 0.10157 1.39648zm8.43603-1.58691q-0.37451-0.29199-0.76172-0.42529-0.3872-0.1333-0.85058-0.1333-1.0918 0-1.66944 0.68554-0.57763 0.68555-0.57763 1.98047v3.53565h-1.17432v-7.10938h1.17432v1.39014q0.29199-0.75537 0.89502-1.15528 0.60937-0.40625 1.44091-0.40625 0.43165 0 0.80616 0.10791t0.71728 0.33643zm4.78613-0.74268q0.21583-0.45703 0.5459-0.67285 0.33643-0.22217 0.80616-0.22217 0.85693 0 1.20605 0.66651 0.35547 0.66015 0.35547 2.49463v4.11963h-1.06641v-4.06885q0-1.5044-0.17138-1.86621-0.16504-0.36817-0.60938-0.36817-0.50781 0-0.69824 0.39356-0.18408 0.38721-0.18408 1.84082v4.06885h-1.06641v-4.06885q0-1.52344-0.18408-1.87891-0.17774-0.35547-0.64746-0.35547-0.46338 0-0.64746 0.39356-0.17774 0.38721-0.17774 1.84082v4.06885h-1.06006v-7.10938h1.06006v0.60938q0.20947-0.38086 0.52051-0.57764 0.31738-0.20313 0.71729-0.20313 0.48242 0 0.7998 0.22217 0.32373 0.22217 0.50146 0.67285zm7.9917 2.81202h-0.3872q-1.02198 0-1.54248 0.36181-0.51416 0.35547-0.51416 1.06641 0 0.64111 0.3872 0.99658 0.38721 0.35547 1.07276 0.35547 0.96484 0 1.51709-0.6665 0.55224-0.67286 0.55859-1.85352v-0.26025zm2.26612-0.48243v4.05616h-1.17432v-1.05371q-0.37451 0.63476-0.9458 0.93945-0.56494 0.29834-1.37744 0.29834-1.08545 0-1.73291-0.60938-0.64746-0.61572-0.64746-1.64404 0-1.18701 0.79345-1.80273 0.79981-0.61573 2.34229-0.61573h1.56787v-0.18408q-6e-3 -0.85058-0.43164-1.23144-0.42529-0.38721-1.3584-0.38721-0.59668 0-1.20605 0.17139-0.60938 0.17138-1.18701 0.50146v-1.16797q0.64746-0.24756 1.23779-0.36816 0.59668-0.12696 1.15527-0.12696 0.88233 0 1.5044 0.26026 0.62841 0.26025 1.01562 0.78076 0.24121 0.31738 0.34277 0.78711 0.10157 0.46338 0.10157 1.39648zm7.28076-2.80566v1.14258q-0.50147-0.29199-1.00928-0.43799t-1.03467-0.146q-0.79345 0-1.18701 0.26026-0.38721 0.2539-0.38721 0.78076 0 0.47607 0.292 0.71094 0.29199 0.23486 1.45361 0.45703l0.46973 0.0889q0.86963 0.16503 1.31396 0.66015 0.45069 0.49512 0.45069 1.28858 0 1.05371-0.74903 1.65039-0.74902 0.59033-2.08203 0.59033-0.52685 0-1.10449-0.11426-0.57764-0.10791-1.25049-0.33008v-1.20605q0.65381 0.33642 1.25049 0.50781 0.59668 0.16504 1.12988 0.16504 0.77442 0 1.19971-0.31104 0.42529-0.31738 0.42529-0.88232 0-0.8125-1.55517-1.12354l-0.0508-0.0127-0.43798-0.0889q-1.00928-0.19678-1.47266-0.66015-0.46338-0.46973-0.46338-1.27588 0-1.02198 0.6919-1.57422 0.69189-0.5586 1.97412-0.5586 0.57129 0 1.09814 0.10791 0.52686 0.10157 1.03467 0.31104zm5.54785-2.26611v2.01855h2.65332v0.90772h-2.65332v3.85937q0 0.78711 0.29834 1.09815 0.29834 0.31103 1.04102 0.31103h1.31396v0.93311h-1.42822q-1.31397 0-1.85352-0.52686-0.53955-0.52685-0.53955-1.81543v-3.85937h-1.89795v-0.90772h1.89795v-2.01855zm10.98779 5.28125v0.57129h-5.05908v0.0381q0 1.16162 0.60303 1.79639 0.60937 0.63476 1.71387 0.63476 0.55859 0 1.16796-0.17773 0.60938-0.17773 1.30127-0.53955v1.16162q-0.6665 0.27295-1.28857 0.40625-0.61572 0.13965-1.19336 0.13965-1.65674 0-2.58984-0.99024-0.93311-0.99658-0.93311-2.74218 0-1.70118 0.91406-2.7168 0.91407-1.01563 2.4375-1.01563 1.3584 0 2.13916 0.92041 0.78711 0.92041 0.78711 2.51368zm-1.16797-0.34278q-0.0254-1.02832-0.48876-1.56152-0.45704-0.53955-1.32032-0.53955-0.84424 0-1.39013 0.55859-0.5459 0.5586-0.64746 1.54883zm9.26758-1.45361q-0.37451-0.29199-0.76172-0.42529-0.3872-0.1333-0.85058-0.1333-1.0918 0-1.66944 0.68554-0.57763 0.68555-0.57763 1.98047v3.53565h-1.17432v-7.10938h1.17432v1.39014q0.29199-0.75537 0.89502-1.15528 0.60937-0.40625 1.44092-0.40625 0.43164 0 0.80615 0.10791t0.71728 0.33643z" fill="#1e90ff"/><path d="m424.19141 500.24902v-7.74414h7.75048v7.74414z" fill="#aaf155"/><path d="m446.23047 490.60059v1.30127q-0.58399-0.37452-1.17432-0.56495-0.58398-0.19043-1.18066-0.19043-0.90772 0-1.43457 0.4253-0.52686 0.41894-0.52686 1.13623 0 0.62842 0.34278 0.95849 0.34912 0.33008 1.29492 0.55225l0.67285 0.15234q1.33301 0.31104 1.94238 0.97754 0.60938 0.66651 0.60938 1.81543 0 1.35205-0.83789 2.06299t-2.4375 0.71094q-0.66651 0-1.33936-0.146-0.67285-0.13965-1.35205-0.42529v-1.36475q0.72998 0.46338 1.37744 0.6792 0.65381 0.21582 1.31397 0.21582 0.97119 0 1.51074-0.43164 0.53955-0.43799 0.53955-1.21875 0-0.71094-0.37451-1.08545-0.36817-0.37451-1.28858-0.57763l-0.68554-0.1587q-1.32032-0.29834-1.917-0.90136-0.59668-0.60303-0.59668-1.61865 0-1.26954 0.85059-2.03125 0.85693-0.76807 2.27246-0.76807 0.5459 0 1.14893 0.12695 0.60302 0.12061 1.26953 0.36817zm5.85889 5.57959h-0.38721q-1.02197 0-1.54248 0.36181-0.51416 0.35547-0.51416 1.06641 0 0.64111 0.3872 0.99658 0.38721 0.35547 1.07276 0.35547 0.96484 0 1.51709-0.6665 0.55224-0.67286 0.55859-1.85352v-0.26025zm2.26611-0.48243v4.05616h-1.17432v-1.05371q-0.37451 0.63476-0.9458 0.93945-0.56494 0.29834-1.37744 0.29834-1.08545 0-1.73291-0.60938-0.64746-0.61572-0.64746-1.64404 0-1.18701 0.79346-1.80273 0.7998-0.61573 2.34228-0.61573h1.56787v-0.18408q-6e-3 -0.85058-0.43164-1.23144-0.42529-0.38721-1.3584-0.38721-0.59668 0-1.20605 0.17139-0.60938 0.17138-1.18701 0.50146v-1.16797q0.64746-0.24756 1.23779-0.36816 0.59668-0.12696 1.15527-0.12696 0.88233 0 1.5044 0.26026 0.62842 0.26025 1.01562 0.78076 0.24121 0.31738 0.34278 0.78711 0.10156 0.46338 0.10156 1.39648zm2.72949-3.05322h2.98975v6.20166h2.31689v0.90772h-5.80176v-0.90772h2.3169v-5.29394h-1.82178zm1.82178-2.76758h1.16797v1.47901h-1.16797zm11.05127 5.47168v4.40528h-1.17432v-4.40528q0-0.95849-0.33642-1.40918-0.33643-0.45068-1.05372-0.45068-0.81884 0-1.26318 0.58398-0.43799 0.57764-0.43799 1.66309v4.01807h-1.16797v-7.10938h1.16797v1.06641q0.31104-0.60938 0.84424-0.92041 0.5332-0.31739 1.26318-0.31739 1.08545 0 1.61866 0.71729 0.53955 0.71094 0.53955 2.1582zm5.05273-4.72265v2.01855h2.65332v0.90772h-2.65332v3.85937q0 0.78711 0.29834 1.09815 0.29834 0.31103 1.04102 0.31103h1.31396v0.93311h-1.42822q-1.31397 0-1.85352-0.52686-0.53955-0.52685-0.53955-1.81543v-3.85937h-1.89795v-0.90772h1.89795v-2.01855z" fill="#1e90ff"/><path d="m486.80469 500.24902v-7.74414h7.75049v7.74414z" fill="#16234f"/><path d="m515.28662 492.90479q-0.24756-0.0127-0.4126-0.0127-1.11084 0-3.1167 0.38721 0.20313 0.5205 0.20313 0.97754 0 0.61572-0.29834 1.08545-0.34912 0.5332-0.93311 0.5332-0.35546 0-0.55224-0.40625-0.15869-0.32373-0.15869-0.72363 0-0.52686 0.2666-0.87598 0.20947 0.45068 0.55224 0.60303 0.4253-0.39991 0.57764-1.12989-1.15527 0.23487-2.48193 0.59668-0.12061 0.4253-0.12061 0.85059 0 0.91406 0.48877 1.47266 0.51416 0.58398 1.41553 0.58398 0.56494 0 1.02832-0.29834 0.29834-0.19043 0.80615-0.71729 0.12695-0.1333 0.43164-0.37451-6e-3 0.97754-0.86963 1.69483-0.81884 0.6792-1.82177 0.6792-0.92041 0-1.57422-0.53321-0.69825-0.57763-0.69825-1.479 0-1.05371 0.46338-1.75195-2.36132 0.67285-4.20214 1.42822 0.45703 0.79346 1.96142 1.63769 1.2251 0.68555 2.41211 1.05372 1.0918 0.33642 1.92334 0.33642 0.26025 0 0.77441-0.0635 0.51416-0.0698 0.76807-0.0698 0.12061 0 0.22852 0.0571-0.19678 0.34277-0.93311 0.55225-0.59033 0.17138-1.11719 0.17138-2.10742 0-4.37988-1.07275-2.48193-1.17432-3.36426-2.88819 3.37696-1.78369 8.88037-2.64697 1.29493-0.20312 2.1836-0.20312 1.38379 0 1.66943 0.5459z" fill="#1e90ff"/></g></g></svg></svg>