<svg xmlns="http://www.w3.org/2000/svg" width="830" height="470" fill="currentColor" class="plot-d6a7b5" font-family="system-ui, sans-serif" font-size="10" style="--plot-background:white;display:block;height:intrinsic;max-width:100%;color:#1e90ff" text-anchor="middle" viewBox="0 0 830 470">
    <style>
        :where(.plot-d6a7b5 text),:where(.plot-d6a7b5 tspan){white-space:pre}
    </style>
    <path stroke="currentColor" stroke-opacity=".1" d="
M60
410
h710
M60
378.557
h710
M60
347.114
h710
M60
315.671
h710
M60
284.227
h710
M60
252.784
h710
M60
221.341
h710
M60
189.898
h710
M60
158.455
h710
M60
127.012
h710
M60
95.568
h710
M60
64.125
h710" aria-hidden="true" aria-label="y-grid"/>
    <path fill="none" stroke="currentColor" d="
M60
410
h-6
m6
-31.443
h-6
m6
-31.443
h-6
m6
-31.444
h-6
m6
-31.443
h-6
m6
-31.443
h-6
m6
-31.443
h-6
m6
-31.443
h-6
m6
-31.443
h-6
m6
-31.443
h-6
m6
-31.444
h-6
m6
-31.443
h-6" aria-hidden="true" aria-label="y-axis tick"/>
    <g aria-label="y-axis tick label" font-variant="tabular-nums" text-anchor="end">
        <text y=".32em" transform="translate(51 410)">0</text>
        <text y=".32em" transform="translate(51 378.557)">5,000</text>
        <text y=".32em" transform="translate(51 347.114)">10,000</text>
        <text y=".32em" transform="translate(51 315.67)">15,000</text>
        <text y=".32em" transform="translate(51 284.227)">20,000</text>
        <text y=".32em" transform="translate(51 252.784)">25,000</text>
        <text y=".32em" transform="translate(51 221.341)">30,000</text>
        <text y=".32em" transform="translate(51 189.898)">35,000</text>
        <text y=".32em" transform="translate(51 158.455)">40,000</text>
        <text y=".32em" transform="translate(51 127.012)">45,000</text>
        <text y=".32em" transform="translate(51 95.568)">50,000</text>
        <text y=".32em" transform="translate(51 64.125)">55,000</text>
    </g>
    <text y=".71em" aria-label="y-axis label" text-anchor="start" transform="translate(3 3)">↑ Visible Vestiges (30 days)</text>
    <path fill="none" stroke="currentColor" d="
M84.044
410
v6
m64.352
-6
v6
m65.06
-6
v6
m65.06
-6
v6
m64.353
-6
v6
m64.352
-6
v6
m65.059
-6
v6
m65.06
-6
v6
m63.646
-6
v6
m64.353
-6
v6
m65.059
-6
v6" aria-hidden="true" aria-label="x-axis tick"/>
    <g aria-label="x-axis tick label" font-variant="tabular-nums">
        <text transform="translate(84.044 419)"><tspan x="0" y=".71em">Apr</tspan><tspan x="0" dy="1em">2023</tspan></text>
        <text y=".71em" transform="translate(148.396 419)">Jul</text>
        <text y=".71em" transform="translate(213.456 419)">Oct</text>
        <text transform="translate(278.516 419)"><tspan x="0" y=".71em">Jan</tspan><tspan x="0" dy="1em">2024</tspan></text>
        <text y=".71em" transform="translate(342.869 419)">Apr</text>
        <text y=".71em" transform="translate(407.221 419)">Jul</text>
        <text y=".71em" transform="translate(472.28 419)">Oct</text>
        <text transform="translate(537.34 419)"><tspan x="0" y=".71em">Jan</tspan><tspan x="0" dy="1em">2025</tspan></text>
        <text y=".71em" transform="translate(600.986 419)">Apr</text>
        <text y=".71em" transform="translate(665.339 419)">Jul</text>
        <text y=".71em" transform="translate(730.398 419)">Oct</text>
    </g>
    <path fill="none" stroke="currentColor" stroke-linecap="round" stroke-linejoin="round" stroke-width="1.5" d="
m60
410
.471
-3.157
.472
-11.546
.471
-6.226
.472
-4.414
.471
-7.282
.472
-5.736
.471
-5.376
.472
-10.88
.471
-8.609
.471
-10.219
.472
-15.828
.471
-14.923
.472
-7.748
.471
-11.213
.472
-7.615
.471
-8.729
.472
-11.414
.471
-7.684
.472
-7.534
.471
-10.225
.471
-11.339
.472
-8.03
.471
-13.703
.472
-6.49
.471
-6.056
.472
-10.923
.471
-10.458
.472
-8.05
.471
-11.219
.471
-8.03
.472
1.358
.471
-9.565
.472
-8.112
.471
.025
.472
-1.824
.471
-.314
.472
6.282
.471
.082
.471
1.88
.472
10.012
.471
1.471
.472
-6.314
.471
-1.389
.472
-7.654
.471
-1.622
.472
2.597
.471
-4.327
.471
-2.515
.472
2.949
.471
-1.767
.472
-4.641
.471
1.881
.472
-10.458
.471
-10.037
.472
2.553
.471
-1.962
.472
-3.157
.471
1.176
.471
-3.031
.472
-3.169
.471
4.188
.472
-1.421
.471
-6.113
.472
-3.956
.471
-9.797
.472
-4.931
.471
-.069
.471
-3.653
.472
-4
.471
6.113
.472
4.603
.471
2.396
.472
5.754
.471
-2.132
.472
-3.553
.471
4.962
.471
.264
.472
-.365
.471
8.081
.472
4.893
.471
4.081
.472
8.728
.471
5.453
.472
-2.447
.471
3.975
.471
-.491
.472
1.83
.471
8.855
.472
1.037
.471
3.088
.472
9.339
.471
5.653
.472
4.075
.471
7.741
.472
-1.113
.471
-.66
.471
4.019
.472
2.886
.471
1.189
.472
3.571
.471
.548
.472
4.012
.471
6.892
.472
3.295
.471
-3.238
.471
1.716
.472
-2.735
.471
-1.968
.472
1.282
.471
-1.672
.472
1.779
.471
4.509
.472
2.629
.471
2.044
.471
3.962
.472
.018
.471
-2.075
.472
6.157
.471
2.056
.472
-1.031
.471
2.402
.472
-.044
.471
2.05
.471
5.503
.472
.78
.471
-3.044
.472
-1.107
.471
-4.308
.472
-.371
.471
2.484
.472
-1.905
.471
-1.176
.472
4.32
.471
.862
.471
.666
.472
2.597
.471
-4.301
.472
-1.817
.471
2.144
.472
-.987
.471
-1.975
.472
1.912
.471
.258
.471
-.39
.472
3.402
.471
1.075
.472
.422
.471
1.062
.472
-1.962
.471
-.176
.472
1.761
.471
-1.968
.471
-.34
.472
3.415
.471
5.54
.472
1.585
.471
4.396
.472
-.069
.471
.314
.472
2.025
.471
.176
.472
-.786
.471
3.918
.471
-.239
.472
1.421
.471
6.276
.472
1.723
.471
1.006
.472
2.899
.471
.327
.472
.34
.471
.025
.471
1.327
.472
-.994
.471
2.925
.472
-.566
.471
.251
.472
1.478
.471
-1.792
.472
-.044
.471
1.314
.471
-1.509
.472
-1.302
.471
-.107
.472
-2.654
.471
-1.339
.472
2.063
.471
.05
.472
-.686
.471
2.943
.471
-.924
.472
1.333
.471
2.679
.472
.327
.471
-.604
.472
2.145
.471
-.767
.472
-.623
.471
3.119
.472
-.603
.471
.239
.471
2.169
.472
-1.308
.471
-1.075
.472
1.176
.471
-1.365
.472
.836
.471
1.277
.472
-1.107
.471
.334
.471
1.867
.472
.491
.471
-1.321
.472
3.704
.471
2.333
.472
-1.094
.471
2.729
.472
-.924
.471
-.73
.471
1.516
.472
-2.038
.471
.013
.472
.019
.471
-2.377
.472
-1.585
.471
3.478
.472
-3.025
.471
-1.352
.471
1.195
.472
-1.585
.471
-.415
.472
1.679
.471
-1.73
.472
-1.201
.471
1.044
.472
-2.798
.471
-.22
.472
1.39
.471
-.629
.471
-2.201
.472
-1.61
.471
-4.107
.472
-1.32
h.471
l.472
-1.503
.471
-1.434
.472
2.993
.471
-1.855
.471
-.547
.472
2.365
.471
-1.327
.472
.295
.471
3.855
.472
-.604
.471
-2.647
.472
3.459
.471
-.195
.471
-2.415
.472
.918
.471
-3.119
.472
-.365
.471
.66
.472
-1.93
.471
-.736
.472
2.333
.471
-.685
.471
-.239
.472
2.817
.471
1.786
.472
3.308
.471
6.42
.472
1.164
.471
-.516
.472
1.698
.471
.352
.472
-1.327
.471
1.717
.471
.484
.472
-1.113
.471
2.082
.472
.874
.471
-.843
.472
1.252
.471
-.252
.472
.113
.471
1.233
.471
2.547
.472
2.723
.471
4.062
.472
1.503
.471
2.969
.472
5.056
.471
-1.12
.472
.686
.471
2.157
.471
-.724
.472
1.132
.471
1.925
.472
.773
.471
1.874
.472
1.453
.471
1.396
.472
.358
.471
.12
.472
-2.723
.471
-2.314
.471
1.345
.472
.019
.471
.793
.472
.742
.471
.264
.472
1.144
.471
3.082
.472
-.566
.471
-.704
.471
1.012
.472
-1.893
.471
1.195
.472
1.415
.471
-1.207
.472
-.403
.471
4.107
.472
-.158
.471
.396
.471
1.994
.472
-3.32
.471
-.9
.472
1.013
.471
-1.717
.472
.843
.471
1.257
.472
1.107
.471
1.415
.471
3.874
.472
1.339
.471
-2.207
.472
-.949
.471
-2.73
.472
-.32
.471
1.352
.472
.056
.471
-.126
.472
1.39
.471
.598
.471
.792
.472
2.522
.471
-4.201
.472
-3.214
.471
.082
.472
-.251
.471
.44
.472
3.037
.471
-.264
.471
1.39
.472
2.968
.471
-1.421
.472
-3.993
.471
-.359
.472
-3.232
.471
-.51
.472
.541
.471
-1.798
.471
.666
.472
2.151
.471
1.119
.472
.824
.471
2.887
.472
-.956
.471
-.082
.472
1.956
.471
-1.283
.471
.572
.472
3.132
.471
.465
.472
.189
.471
2.069
.472
.138
.471
-2.226
.472
-.113
.471
-1.151
.472
-.094
.471
1.182
.471
-.975
.472
.824
.471
3.603
.472
2.396
.471
2.359
.472
3.138
.471
-.233
.472
-.138
.471
3.282
.471
.554
.472
1.723
.471
2.54
.472
2.069
.471
1.22
.472
4.019
.471
-1.27
.472
-2.415
.471
.239
.471
-1.315
.472
-1.509
.471
.799
.472
-.484
.471
2.873
.472
2.899
.471
1.535
.472
.365
.471
.754
.471
-2.452
.472
.075
.471
.78
.472
-1.61
.471
-.824
.472
.415
.471
-2.836
.472
.227
.471
.729
.472
.214
.471
-1.409
.471
-.547
.472
-2.245
.471
-.019
.472
1.61
.471
-1.283
.472
-1.408
.471
2.584
.472
2.063
.471
2.094
.471
2.603
.472
.434
.471
-.629
.472
1.931
.471
-1.415
.472
-.346
.471
2.968
.472
1.491
.471
1.503
.471
2.893
.472
-.145
.471
-.264
.472
1.27
.471
.749
.472
1.1
.471
2.163
.472
.698
.471
1.183
.471
1
.472
.1
.471
1.346
.472
1.239
.471
-2.151
.472
-2.151
.471
1.491
.472
-.076
.471
-1.553
.472
-.346
.471
-1.327
.471
-.949
.472
-.195
.471
-1.006
.472
-1.359
.471
.843
.472
-.088
.471
-1.503
.472
-.591
.471
-2.579
.471
-.698
.472
1.541
.471
-.585
.472
1.113
.471
-.081
.472
-1.547
.471
1.025
.472
.018
.471
-1.251
.471
.258
.472
1.585
.471
.27
.472
1.245
.471
1.811
.472
.032
.471
-1.422
.472
-1.106
.471
-1.019
.472
.767
.471
1.22
.471
.396
.472
-.195
.471
-.025
.472
.069
.471
.68
.472
.125
.471
-1.05
.472
-2.912
.471
.755
.471
-1.742
.472
-.503
.471
1.836
.472
-1.597
.471
1.176
.472
2.094
.471
-2.779
.472
-2.925
.471
-.899
.471
-3.622
.472
-1.157
.471
-.686
.472
-1.723
.471
-.471
.472
.918
.471
-.837
.472
1.522
.471
.654
.471
-3.886
.472
-1.686
.471
-.591
.472
-1.132
.471
.78
.472
.635
.471
-2.616
.472
-.415
.471
-.176
.472
1.49
.471
-1.326
.471
-2.139
.472
-4.509
.471
-1.534
.472
-.912
.471
-4.471
.472
-2.006
.471
1.924
.472
1.554
.471
.704
.471
2.22
.472
-2.151
.471
-1.956
.472
1.233
.471
-.994
.472
-.868
.471
.082
.472
-1.503
.471
1.704
.471
2.585
.472
-.924
.471
-1.705
.472
1.365
.471
-1.855
.472
-.233
.471
1.541
.472
.226
.471
1.893
.471
1.403
.472
1.194
.471
3.541
.472
4.075
.471
-1.579
.472
.956
.471
3.214
.472
1.629
.471
.786
.472
.93
.471
.541
.471
1.591
.472
3.145
.471
.188
.472
-.855
.471
1.968
.472
-.591
.471
1.164
.472
2.735
.471
-.075
.471
.213
.472
2.736
.471
1.459
.472
-.415
.471
1.446
.472
-2.861
.471
-.547
.472
1.163
.471
1.881
.471
2.679
.472
3.597
.471
2.848
.472
2.862
.471
5.326
.472
2.943
.471
2.283
.472
2.088
.471
2.018
.471
2.516
.472
2.107
.471
1.245
.472
1.528
.471
3.358
.472
1.409
.471
-1.239
.472
1.811
.471
.736
.472
-.692
.471
.629
.471
1.182
.472
-.195
.471
.956
.472
.811
.471
.541
.472
2.748
.471
.566
h.472
l.471
-1.39
.471
-2.572
.472
-2.786
.471
-1.188
.472
-1.786
.471
-2.654
.472
-1.465
.471
-1.314
.472
-2.164
.471
-1.761
.471
-2.421
.472
-1.76
.471
-.994
.472
-1.597
.471
-.849
.472
-.415
.471
2.113
.472
.748
.471
1.207
.472
.296
.471
.113
.471
-.075
.472
-.397
.471
.441
.472
1.547
.471
.239
.472
.54
.471
1.283
.472
.459
.471
-.849
.471
.787
.472
.251
.471
-.528
.472
.484
.471
.648
.472
-.761
.471
-.786
.472
.824
.471
-.239
.471
.943
.472
.038
.471
-1.862
.472
-.333
.471
-1.302
h.472
l.471
-.339
.472
-.642
.471
-1.232
.471
-.195
.472
-.711
.471
-.579
.472
1.321
.471
-1.138
.472
-1.459
.471
.465
.472
-1.151
.471
.007
.472
.503
.471
1.547
.471
.289
.472
.604
.471
-.378
.472
-3.131
.471
-.157
.472
-1.101
.471
.786
.472
.006
.471
.22
.471
-1.018
.472
1.32
.471
1.17
.472
.145
.471
1.069
.472
-1.422
.471
-2.364
.472
.101
.471
-1.296
.471
.208
.472
.283
.471
-1.101
.472
-1.094
.471
1.144
.472
-.383
.471
-1.113
.472
1.39
.471
-2.246
.471
-.433
.472
-.73
.471
-1.119
.472
-.799
.471
.252
.472
1.371
.471
-.208
.472
.855
.471
-2.132
.472
-2.163
.471
-.761
.471
.271
.472
-2.447
.471
.032
.472
.182
.471
.164
.472
.446
.471
1.572
.472
-.452
.471
1.119
.471
-.862
.472
-.622
.471
2.981
.472
1.521
.471
-.037
.472
1.553
.471
-.352
.472
-.352
.471
2.572
.471
-.145
.472
-2.408
.471
1.213
.472
.61
.471
-1.025
.472
.925
.471
.999
.472
.642
.471
2.553
.471
2.107
.472
.836
.471
.661
.472
-.051
.471
-.371
.472
.466
.471
-1.126
.472
.522
.471
.126
.472
.836
.471
.635
.471
1.195
.472
.623
.471
-1.529
.472
.233
.471
.535
h.472
l.471
2.226
.472
.434
.471
-.529
.471
-.232
.472
1.855
.471
.126
.472
.742
.471
.629
.472
.176
.471
.163
.472
-.371
.471
-.918
.471
-.05
.472
-.145
.471
-.163
.472
1.238
.471
-.622
.472
-2.522
.471
.434
.472
-.585
.471
.308
.472
-.188
.471
-.874
.471
-.529
.472
.73
.471
.666
.472
-.729
.471
-.541
.472
-.56
.471
-1.521
.472
-.422
.471
-1.364
.471
-.981
.472
-.881
.471
-1.987
.472
-1.534
.471
-1.107
.472
-1.623
.471
-.566
.472
-.132
.471
-2.239
.471
-.603
.472
-.063
.471
-.748
.472
.27
.471
2.044
.472
-1.673
.471
-2.453
.472
-2.257
.471
-3.497
.471
-2.515
.472
-.598
.471
-3.112
.472
-3.755
.471
-1.459
.472
-1.22
.471
-1.66
.472
-1.239
.471
-.748
.472
-1.975
.471
.692
.471
1.534
.472
.239
.471
1.591
.472
1.114
.471
.974
.472
1.359
.471
-.818
.472
-.792
.471
1.144
.471
-.195
.472
-.434
.471
.629
.472
.019
.471
-.339
.472
4.842
.471
3.899
.472
3.572
.471
3.685
.471
3.163
.472
1.22
.471
3.597
.472
3.629
.471
1.823
.472
1.327
.471
2.264
.472
.899
.471
1.95
.471
2.176
.472
1.22
.471
-.529
.472
.761
.471
-.289
.472
.283
.471
.522
.472
.874
.471
1.063
.472
2.151
.471
1.911
.471
1.051
.472
1.314
.471
.151
.472
.277
.471
-.095
.472
-.44
.471
-.566
.472
-.057
.471
-.232
.471
-.057
.472
-.289
.471
-1.679
.472
-1.327
.471
-2.616
.472
-.05
.471
-.598
.472
.39
.471
.484
.471
-.207
.472
-.635
.471
.075
.472
-.503
.471
-2.905
.472
-.629
.471
.465
.472
-1.641
.471
-.233
.471
.05
.472
-.742
.471
-.283
.472
-.163
.471
-.302
.472
-1.006
.471
-1.176
.472
-2.264
.471
.283
.472
.251
.471
.139
.471
-.346
.472
1.302
.471
1.886
.472
1.239
.471
3.138
.472
.201
.471
.592
.472
1.025
h.471
l.471
1.358
.472
.88
.471
.315
.472
1.264
.471
3.779
.472
-.176
.471
-.434
.472
1.371
.471
-.629
.471
.29
.472
1.113
.471
.069
.472
.371
.471
1.333
.472
1.384
.471
1.786
.472
2.723
.471
-.919
.472
-.195
.471
1.277
.471
.962
h.472
l.471
-.232
.472
.333
.471
-1.113
.472
.49
.471
-.742
.472
-1.924
.471
-.893
.471
-2.453
.472
-1.062
.471
.339
.472
.12
.471
-.233
.472
.736
.471
.603
.472
.598
.471
.566
.471
-1.164
.472
-1.119
.471
.547
.472
-.912
.471
.252
.472
.358
.471
-1.018
.472
-.195
.471
1.15
.471
.095
.472
-1.195
.471
-.943
.472
-.793
.471
.315
.472
-.126
.471
.283
.472
-.421
.471
.742
.472
1.106
.471
.887
.471
1.748
.472
.032
.471
-.786
.472
.503
.471
.1
.472
.158
.471
.295
.472
-.239
.471
.855
.471
1.315
.472
.754
.471
.428
.472
1.528
.471
-.119
.472
-.29
.471
1.208
.472
.471
.471
-.138
.471
-.742
.472
.352
.471
-.371
.472
.937
.471
-.094
.472
.534
.471
.459
.472
.271
.471
.736
.471
.981
.472
-.176
.471
.345
.472
1.202
.471
.327
.472
-1.013
.471
.271
.472
-.359
.471
-.05
.472
-.503
.471
-.334
.471
-.106
.472
.471
.471
-.71
.472
-.749
.471
-.365
.472
-.999
.471
-.032
.472
-.924
h.471
l.471
1.031
.472
.522
.471
.893
.472
-.025
.471
.075
.472
-.245
.471
-.566
.472
-.277
.471
-2.402
.471
-1.302
.472
-.276
.471
-.918
.472
-.478
.471
.496
.472
-.547
.471
-1.528
.472
.472
.471
-1.308
.471
.421
.472
.509
.471
-.93
.472
-.29
.471
.158
.472
.264
.471
-.516
.472
1.145
.471
-.591
.472
.427
.471
-.082
.471
.063
.472
-.302
.471
.026
.472
-.371
.471
-.654
.472
-.126
.471
-.403
.472
.145
.471
1.66
.471
.459
.472
.088
.471
.283
.472
-.371
.471
.088
.472
1.648
.471
.868
.472
-.076
.471
1.032
.471
-.246
.472
-1.012
.471
-1.044
.472
-2.239
.471
-1.195
.472
-.471
.471
.314
.472
-.044
.471
-.012
.472
-.592
.471
.283
.471
.095
.472
-1.227
.471
-1.05
.472
.113
.471
-.138
.472
-.277
.471
.755
.472
-.201
.471
-.648
.471
-.685
.472
.094
.471
.22
.472
.855
.471
.038
.472
-.34
.471
1.164
.472
-.793
.471
.315
.471
.094
.472
-.113
.471
1
.472
1.025
.471
.22
.472
-.214
.471
-.05
.472
-1.365
h.471
l.471
.453
.472
-1.063
.471
-.471
.472
.735
.471
-.182
.472
-.075
.471
.584
.472
-.44
.471
.088
.472
-.912
.471
.692
.471
.132
.472
-.377
.471
.327
.472
-.05
.471
-.202
.472
-1.798
.471
-2.34
.472
.365
.471
-1.509
.471
-.038
.472
.113
.471
-1.188
.472
.157
.471
.333
.472
-.346
.471
.239
.472
.919
.471
-.177
.471
-.295
.472
.748
.471
-.289
.472
.314
.471
.705
.472
-1.189
.471
-.522
.472
.862
.471
.27
.471
1.138
.472
.088
.471
1.063
.472
1.12
.471
.358
.472
-.295
.471
.773
.472
2.05
.471
1.535
.472
.578
.471
1.371
.471
-.163
.472
.968
.471
1.365
.472
1.207
.471
-.069
.472
1.006
.471
-.321
.472
.95
.471
.704
.471
-.465
.472
.346
.471
.408
.472
.724
.471
.673
.472
.811
.471
.824
.472
.195
.471
.729
.471
.352
.472
.837
.471
.314
.472
.195
.471
-.56
.472
-.063
.471
-.66
.472
.428
.471
.478
.471
.603
.472
.673
.471
1.484
.472
-.32
.471
.553
.472
-.101
.471
1.497
.472
.069
.471
.843
.472
-.585
.471
.409
.471
1.522
.472
.591
.471
.163
.472
-.49
.471
.094
.472
.811
.471
.258
.472
.378
.471
-.139
.471
.679
.472
.158
.471
.377
.472
-.182
.471
1.27
.472
1.044
.471
1.207
.472
.12
.471
.603
.471
.478
.472
.202
.471
.094
.472
1.107
.471
.553
.472
.39
.471
.157
.472
.403
.471
.704
.471
.692
.472
-.101
.471
.044
.472
.208
.471
.125
.472
.73
.471
.516
.472
.32
.471
.176
.472
.038
.471
.315
.471
.132
.472
.05
.471
.27
.472
.453
.471
-.352
.472
-.019
.471
-.182
.472
-.271
.471
-.566
.471
-.32
.472
-.258
.471
-.378
.472
-.05
.471
-.176
.472
-.088
.471
-.113
.472
-.554
.471
-.805
.471
-.037
.472
-.365
.471
.189
.472
.006
.471
.717
.472
-.302
.471
-.824
.472
.113
.471
-.44
.472
-.22
.471
-.233
.471
-.239
.472
-.025
.471
-.201
.472
-.151
.471
-.201
.472
-.189
.471
-.409
.472
.007
.471
.61
.471
-.258
.472
.088
.471
.258
.472
.138
.471
.195
.472
.403
.471
-.07
.472
.365
.471
.629
.471
.094
.472
.579
.471
.107
.472
.056
.471
-.012
.472
.44
.471
.572
.472
-.037
.471
.578
.471
-.182
.472
-.202
.471
-.012
.472
-.302
.471
-.34
.472
-.194
.471
.377
.472
.088
.471
.113
.472
.113
.471
-.17
.471
.214
.472
-.503
.471
.113
.472
-.125
.471
-.132
.472
-.548
.471
.07
.472
-.365
.471
-.403
.471
.063
.472
-.981
.471
-.541
.472
-.069
.471
-.509
h.472
l.471
-.006
.472
.239
.471
-.038
.471
.641
.472
.365
.471
-.057
.472
.151
.471
.107
.472
.057
.471
-.78
.472
.126
.471
.163
.471
.315
.472
-.245
.471
.031
.472
-.006
.471
-.051
.472
-.251
.471
-.252
.472
.239
.471
.145
.472
.283
.471
.094
.471
.315
.472
.83
.471
.314
.472
-.339
.471
.32
.472
-.195
.471
.239
.472
-.717
.471
-.515
.471
-.264
.472
-.12
.471
-.478
.472
-.063
.471
.271
.472
.421
.471
.761
.472
.157
.471
-.251
.471
-.214
.472
.402
.471
.346
.472
.308
.471
.132
.472
-.113
.471
.277
.472
.327
.471
.119
.471
.636
.472
.371
.471
-.038
.472
.182
.471
.076
.472
.484
.471
.283
.472
.239
.471
.138
.472
.415
.471
.164
.471
.396
.472
-.164
.471
-.031
.472
-.937
.471
-.673
.472
-.075
.471
.037
.472
-.157
.471
.447
.471
.157
.472
-.239
.471
-.478
.472
-.189
.471
-.308
.472
.277
.471
.402
.472
-.012
.471
-.698
.471
-.315
.472
-.138
.471
-.277
.472
-.157
.471
-.245
.472
-.29
.471
-.679
.472
.145
.471
.101
.472
.125
.471
.434
.471
.082
.472
-.371
.471
.654
.472
.711
.471
.301
.472
.277
.471
.271
.472
.345
.471
.195
.471
.076
.472
.239
.471
.591
.472
.302
.471
.144
.472
.007
.471
-.069
.472
.289
.471
.748
.471
.308
.472
.246
.471
.352
.472
.025
.471
.138
.472
-.698
.471
-.346
.472
-.635
.471
-.126
.471
.221
.472
-.145
.471
-.434
.472
.553
.471
-.125
.472
-.353
.471
-.062
.472
-.447
.471
-.748
.472
-.321
.471
-.138
.471
-.189
.472
-.013
.471
-.496
.472
-.139
.471
-.025
.472
.132
.471
-.534
.472
-.547
.471
-.774
.471
-.22
.472
.006
.471
-.038
.472
.101
.471
.176
.472
.969
.471
1.119
.472
.491
.471
.144
.471
-.314
.472
.1
.471
-.107
.472
.202
.471
.201
.472
.761
.471
.61
.472
-.019
.471
.365
.471
-.145
.472
-.063
.471
.239
h.472
l.471
.289
.472
.202
.471
.188
.472
-.125
.471
.144
.472
.063
.471
.774
.471
-.088
.472
-.214
.471
-.157
.472
.075
.471
.075
.472
.164
.471
.057
.472
-.095
.471
.032
.471
.044
.472
.012
.471
.56
.472
-.069
.471
.031
.472
-.05
.471
-.151
.472
.057
.471
.339
.471
.327
.472
.264
.471
-.012
.472
.006
.471
-.358
.472
.377
.471
-.233
.472
-.056
.471
.383
.471
.17
.472
-.277
.471
-.069
.472
-.283
.471
-.302
.472
-.226
.471
-.371
.472
-.082
.471
-.189
.472
.12
.471
-.145
.471
.227
.472
.327
.471
-.044
.472
-.032
.471
-.019
.472
.189
.471
.17
.472
.056
.471
-.062" aria-label="line"/>
</svg>
