<svg xmlns="http://www.w3.org/2000/svg" width="830" height="470" fill="currentColor" class="plot-d6a7b5" font-family="system-ui, sans-serif" font-size="10" style="--plot-background:white;display:block;height:intrinsic;max-width:100%;color:#1e90ff" text-anchor="middle" viewBox="0 0 830 470">
    <style>
        :where(.plot-d6a7b5 text),:where(.plot-d6a7b5 tspan){white-space:pre}
    </style>
    <path stroke="currentColor" stroke-opacity=".1" d="
M60
410
h710
M60
384.906
h710
M60
359.811
h710
M60
334.717
h710
M60
309.623
h710
M60
284.528
h710
M60
259.434
h710
M60
234.34
h710
M60
209.245
h710
M60
184.151
h710
M60
159.057
h710
M60
133.962
h710
M60
108.868
h710
M60
83.774
h710" aria-hidden="true" aria-label="y-grid"/>
    <path fill="none" stroke="currentColor" d="
M60
410
h-6
m6
-25.094
h-6
m6
-25.095
h-6
m6
-25.094
h-6
m6
-25.094
h-6
m6
-25.095
h-6
m6
-25.094
h-6
m6
-25.094
h-6
m6
-25.095
h-6
m6
-25.094
h-6
m6
-25.094
h-6
m6
-25.095
h-6
m6
-25.094
h-6
m6
-25.094
h-6" aria-hidden="true" aria-label="y-axis tick"/>
    <g aria-label="y-axis tick label" font-variant="tabular-nums" text-anchor="end">
        <text y=".32em" transform="translate(51 410)">0</text>
        <text y=".32em" transform="translate(51 384.906)">50,000</text>
        <text y=".32em" transform="translate(51 359.811)">100,000</text>
        <text y=".32em" transform="translate(51 334.717)">150,000</text>
        <text y=".32em" transform="translate(51 309.623)">200,000</text>
        <text y=".32em" transform="translate(51 284.528)">250,000</text>
        <text y=".32em" transform="translate(51 259.434)">300,000</text>
        <text y=".32em" transform="translate(51 234.34)">350,000</text>
        <text y=".32em" transform="translate(51 209.245)">400,000</text>
        <text y=".32em" transform="translate(51 184.151)">450,000</text>
        <text y=".32em" transform="translate(51 159.057)">500,000</text>
        <text y=".32em" transform="translate(51 133.962)">550,000</text>
        <text y=".32em" transform="translate(51 108.868)">600,000</text>
        <text y=".32em" transform="translate(51 83.774)">650,000</text>
    </g>
    <text y=".71em" aria-label="y-axis label" text-anchor="start" transform="translate(3 3)">↑ Total Vestiges</text>
    <path fill="none" stroke="currentColor" d="
M84.044
410
v6
m64.352
-6
v6
m65.06
-6
v6
m65.06
-6
v6
m64.353
-6
v6
m64.352
-6
v6
m65.059
-6
v6
m65.06
-6
v6
m63.646
-6
v6
m64.353
-6
v6
m65.059
-6
v6" aria-hidden="true" aria-label="x-axis tick"/>
    <g aria-label="x-axis tick label" font-variant="tabular-nums">
        <text transform="translate(84.044 419)"><tspan x="0" y=".71em">Apr</tspan><tspan x="0" dy="1em">2023</tspan></text>
        <text y=".71em" transform="translate(148.396 419)">Jul</text>
        <text y=".71em" transform="translate(213.456 419)">Oct</text>
        <text transform="translate(278.516 419)"><tspan x="0" y=".71em">Jan</tspan><tspan x="0" dy="1em">2024</tspan></text>
        <text y=".71em" transform="translate(342.869 419)">Apr</text>
        <text y=".71em" transform="translate(407.221 419)">Jul</text>
        <text y=".71em" transform="translate(472.28 419)">Oct</text>
        <text transform="translate(537.34 419)"><tspan x="0" y=".71em">Jan</tspan><tspan x="0" dy="1em">2025</tspan></text>
        <text y=".71em" transform="translate(600.986 419)">Apr</text>
        <text y=".71em" transform="translate(665.339 419)">Jul</text>
        <text y=".71em" transform="translate(730.398 419)">Oct</text>
    </g>
    <path fill="none" stroke="currentColor" stroke-linecap="round" stroke-linejoin="round" stroke-width="1.5" d="
m60
410
.471
-.252
.472
-.921
.471
-.497
.472
-.353
.471
-.581
.472
-.458
.471
-.429
.472
-.868
.471
-.687
.471
-.816
.472
-1.263
.471
-1.191
.472
-.618
.471
-.895
.472
-.608
.471
-.696
.472
-.911
.471
-.614
.472
-.601
.471
-.816
.471
-.905
.472
-.641
.471
-1.093
.472
-.518
.471
-.484
.472
-.871
.471
-.835
.472
-.642
.471
-.896
.471
-.893
.472
-.813
.471
-1.26
.472
-1
.471
-.579
.472
-.603
.471
-.454
.472
-.367
.471
-.681
.471
-.665
.472
-.465
.471
-1.073
.472
-1.122
.471
-1.006
.472
-1.219
.471
-.826
.472
-.703
.471
-.959
.471
-.802
.472
-.581
.471
-1.046
.472
-1.011
.471
-.943
.472
-1.353
.471
-1.284
.472
-.668
.471
-.992
.472
-.894
.471
-.801
.471
-1.135
.472
-1.066
.471
-.926
.472
-1.113
.471
-1.067
.472
-.919
.471
-1.237
.472
-.76
.471
-.686
.471
-.957
.472
-.784
.471
-.585
.472
-.755
.471
-.815
.472
-.759
.471
-.996
.472
-.987
.471
-.563
.471
-.781
.472
-.61
.471
-.401
.472
-.621
.471
-.617
.472
-.656
.471
-.85
.472
-.863
.471
-.674
.471
-.933
.472
-.656
.471
-.428
.472
-.983
.471
-.68
.472
-.368
.471
-.615
.472
-.594
.471
-.618
.472
-.85
.471
-.738
.471
-.637
.472
-.553
.471
-.491
.472
-.469
.471
-.771
.472
-.44
.471
-.446
.472
-.724
.471
-.821
.471
-.644
.472
-.828
.471
-.558
.472
-.519
.471
-.751
.472
-.514
.471
-.489
.472
-.654
.471
-.511
.471
-.617
.472
-.654
.471
-.594
.472
-.491
.471
-.516
.472
-.45
.471
-.424
.472
-.597
.471
-.455
.471
-.41
.472
-.677
.471
-.879
.472
-.641
.471
-.835
.472
-.499
.471
-.573
.472
-.591
.471
-.54
.472
-.38
.471
-.752
.471
-.591
.472
-.621
.471
-.901
.472
-.664
.471
-.58
.472
-.592
.471
-.647
.472
-.501
.471
-.491
.471
-.648
.472
-.382
.471
-.508
.472
-.459
.471
-.43
.472
-.607
.471
-.438
.472
-.457
.471
-.612
.471
-.437
.472
-.404
.471
-.437
.472
-.515
.471
-.484
.472
-.505
.471
-.547
.472
-.43
.471
-.526
.472
-.442
.471
-.44
.471
-.609
.472
-.508
.471
-.4
.472
-.526
.471
-.5
.472
-.361
.471
-.621
.472
-.474
.471
-.488
.471
-.543
.472
-.462
.471
-.274
.472
-.504
.471
-.41
.472
-.489
.471
-.581
.472
-.46
.471
-.507
.471
-.558
.472
-.508
.471
-.446
.472
-.726
.471
-.591
.472
-.34
.471
-.544
.472
-.484
.471
-.291
.471
-.516
.472
-.333
.471
-.396
.472
-.482
.471
-.448
.472
-.355
.471
-.561
.472
-.411
.471
-.372
.472
-.522
.471
-.469
.471
-.37
.472
-.566
.471
-.36
.472
-.41
.471
-.519
.472
-.422
.471
-.48
.472
-.548
.471
-.481
.471
-.408
.472
-.469
.471
-.551
.472
-.431
.471
-.405
.472
-.427
.471
-.326
.472
-.558
.471
-.349
.471
-.395
.472
-.496
.471
-.395
.472
-.48
.471
-.638
.472
-.482
.471
-.283
.472
-.653
.471
-.48
.471
-.426
.472
-.596
.471
-.402
.472
-.433
.471
-.498
.472
-.505
.471
-.436
.472
-.646
.471
-.497
.472
-.437
.471
-.531
.471
-.584
.472
-.597
.471
-.879
.472
-.537
.471
-.404
.472
-.548
.471
-.44
.472
-.319
.471
-.497
.471
-.439
.472
-.307
.471
-.501
.472
-.456
.471
-.331
.472
-.53
.471
-.494
.472
-.377
.471
-.495
.471
-.62
.472
-.522
.471
-.651
.472
-.462
.471
-.445
.472
-.66
.471
-.495
.472
-.459
.471
-.551
.471
-.457
.472
-.306
.471
-.441
.472
-.334
.471
-.366
.472
-.444
.471
-.445
.472
-.413
.471
-.412
.472
-.425
.471
-.36
.471
-.4
.472
-.396
.471
-.335
.472
-.386
.471
-.398
.472
-.43
.471
-.515
.472
-.367
.471
-.397
.471
-.416
.472
-.305
.471
-.328
.472
-.341
.471
-.209
.472
-.256
.471
-.584
.472
-.404
.471
-.38
.471
-.514
.472
-.215
.471
-.289
.472
-.271
.471
-.217
.472
-.328
.471
-.334
.472
-.383
.471
-.403
.472
-.642
.471
-.545
.471
-.293
.472
-.394
.471
-.272
.472
-.327
.471
-.377
.472
-.338
.471
-.269
.472
-.413
.471
-.453
.471
-.335
.472
-.457
.471
-.231
.472
-.229
.471
-.305
.472
-.288
.471
-.257
.472
-.417
.471
-.347
.471
-.356
.472
-.48
.471
-.36
.472
-.191
.471
-.353
.472
-.261
.471
-.234
.472
-.295
.471
-.289
.471
-.334
.472
-.438
.471
-.469
.472
-.47
.471
-.489
.472
-.353
.471
-.269
.472
-.334
.471
-.279
.472
-.302
.471
-.405
.471
-.272
.472
-.255
.471
-.567
.472
-.485
.471
-.299
.472
-.308
.471
-.221
.472
-.175
.471
-.369
.471
-.244
.472
-.243
.471
-.474
.472
-.509
.471
-.383
.472
-.518
.471
-.275
.472
-.252
.471
-.433
.471
-.28
.472
-.266
.471
-.38
.472
-.404
.471
-.259
.472
-.429
.471
-.276
.472
-.177
.471
-.382
.471
-.256
.472
-.155
.471
-.235
.472
-.24
.471
-.402
.472
-.474
.471
-.476
.472
-.317
.471
-.314
.472
-.182
.471
-.274
.471
-.323
.472
-.177
.471
-.186
.472
-.318
.471
-.194
.472
-.268
.471
-.293
.472
-.263
.471
-.172
.471
-.236
.472
-.128
.471
-.177
.472
-.24
.471
-.161
.472
-.109
.471
-.376
.472
-.371
.471
-.362
.471
-.361
.472
-.276
.471
-.171
.472
-.279
.471
-.172
.472
-.243
.471
-.354
.472
-.288
.471
-.253
.471
-.378
.472
-.268
.471
-.26
.472
-.306
.471
-.252
.472
-.285
.471
-.42
.472
-.25
.471
-.235
.472
-.246
.471
-.284
.471
-.279
.472
-.308
.471
-.179
.472
-.111
.471
-.263
.472
-.221
.471
-.171
.472
-.206
.471
-.195
.471
-.153
.472
-.241
.471
-.222
.472
-.124
.471
-.286
.472
-.27
.471
-.117
.472
-.169
.471
-.133
.471
-.147
.472
-.28
.471
-.281
.472
-.205
.471
-.192
.472
-.197
.471
-.248
.472
-.194
.471
-.141
.471
-.166
.472
-.275
.471
-.172
.472
-.21
.471
-.349
.472
-.283
.471
-.145
.472
-.227
.471
-.294
.472
-.234
.471
-.301
.471
-.229
.472
-.257
.471
-.301
.472
-.233
.471
-.219
.472
-.277
.471
-.237
.472
-.216
.471
-.339
.471
-.202
.472
-.158
.471
-.327
.472
-.116
.471
-.198
.472
-.321
.471
-.166
.472
-.193
.471
-.24
.471
-.146
.472
-.149
.471
-.151
.472
-.109
.471
-.206
.472
-.28
.471
-.258
.472
-.315
.471
-.376
.472
-.173
.471
-.203
.471
-.198
.472
-.272
.471
-.304
.472
-.227
.471
-.164
.472
-.267
.471
-.321
.472
-.449
.471
-.278
.471
-.342
.472
-.197
.471
-.181
.472
-.244
.471
-.104
.472
-.154
.471
-.388
.472
-.426
.471
-.312
.471
-.435
.472
-.241
.471
-.205
.472
-.248
.471
-.243
.472
-.206
.471
-.326
.472
-.193
.471
-.324
.471
-.482
.472
-.339
.471
-.244
.472
-.363
.471
-.241
.472
-.177
.471
-.373
.472
-.3
.471
-.335
.472
-.329
.471
-.385
.471
-.512
.472
-.557
.471
-.304
.472
-.316
.471
-.462
.472
-.313
.471
-.235
.472
-.302
.471
-.256
.471
-.257
.472
-.413
.471
-.362
.472
-.149
.471
-.322
.472
-.276
.471
-.319
.472
-.313
.471
-.188
.471
-.276
.472
-.412
.471
-.38
.472
-.254
.471
-.39
.472
-.195
.471
-.25
.472
-.282
.471
-.184
.471
-.218
.472
-.289
.471
-.23
.472
-.231
.471
-.43
.472
-.24
.471
-.205
.472
-.183
.471
-.172
.472
-.228
.471
-.213
.471
-.13
.472
-.162
.471
-.347
.472
-.217
.471
-.165
.472
-.323
.471
-.226
.472
-.095
.471
-.194
.471
-.259
.472
-.194
.471
-.264
.472
-.287
.471
-.274
.472
-.424
.471
-.293
.472
-.189
.471
-.034
.471
-.004
.472
-.002
.471
-.003
.472
-.003
.471
-.005
.472
-.005
.471
-.022
.472
-.017
.471
-.011
.471
-.027
.472
-.045
.471
-.031
.472
-.04
.471
-.078
.472
-.105
.471
-.264
.472
-.179
.471
-.167
.472
-.15
.471
-.144
.471
-.165
.472
-.209
.471
-.188
.472
-.222
.471
-.231
.472
-.204
.471
-.248
.472
-.19
.471
-.144
.471
-.209
.472
-.225
.471
-.097
.472
-.146
.471
-.217
.472
-.122
.471
-.127
.472
-.19
.471
-.151
.471
-.22
.472
-.185
.471
-.111
.472
-.167
.471
-.146
.472
-.138
.471
-.096
.472
-.119
.471
-.07
.472
-.127
.471
-.135
.471
-.171
.472
-.241
.471
-.152
.472
-.099
.471
-.212
.472
-.161
.471
-.146
.472
-.152
.471
-.213
.471
-.146
.472
-.205
.471
-.139
.472
-.108
.471
-.164
.472
-.183
.471
-.19
.472
-.124
.471
-.17
.471
-.145
.472
-.182
.471
-.259
.472
-.195
.471
-.25
.472
-.138
.471
-.122
.472
-.17
.471
-.169
.471
-.143
.472
-.191
.471
-.217
.472
-.135
.471
-.244
.472
-.215
.471
-.175
.472
-.253
.471
-.145
.472
-.113
.471
-.089
.471
-.123
.472
-.156
.471
-.17
.472
-.357
.471
-.177
.472
-.271
.471
-.127
.472
-.124
.471
-.152
.471
-.227
.472
-.076
.471
-.166
.472
-.183
.471
-.164
.472
-.252
.471
-.311
.472
-.162
.471
-.273
.471
-.126
.472
-.168
.471
-.305
.472
-.223
.471
-.152
.472
-.246
.471
-.263
.472
-.142
.471
-.325
.471
-.147
.472
-.147
.471
-.213
.472
-.22
.471
-.149
.472
-.248
.471
-.194
.472
-.202
.471
-.298
.472
-.296
.471
-.213
.471
-.205
.472
-.272
.471
-.163
.472
-.168
.471
-.152
.472
-.216
.471
-.185
.472
-.198
.471
-.184
.471
-.194
.472
-.219
.471
-.066
.472
-.102
.471
-.155
.472
-.122
.471
-.291
.472
-.171
.471
-.119
.471
-.159
.472
-.339
.471
-.116
.472
-.171
.471
-.231
.472
-.175
.471
-.113
.472
-.152
.471
-.093
.471
-.128
.472
-.147
.471
-.152
.472
-.276
.471
-.193
.472
-.131
.471
-.241
.472
-.174
.471
-.176
.472
-.131
.471
-.133
.471
-.099
.472
-.169
.471
-.189
.472
-.083
.471
-.112
.472
-.122
.471
-.114
.472
-.135
.471
-.162
.471
-.177
.472
-.191
.471
-.106
.472
-.112
.471
-.181
.472
-.16
.471
-.101
.472
-.181
.471
-.167
.471
-.132
.472
-.158
.471
-.165
.472
-.177
.471
-.243
.472
-.332
.471
-.207
.472
-.221
.471
-.151
.472
-.146
.471
-.203
.471
-.141
.472
-.111
.471
-.135
.472
-.141
.471
-.156
.472
-.166
.471
-.236
.472
-.169
.471
-.27
.471
-.256
.472
-.261
.471
-.265
.472
-.234
.471
-.27
.472
-.289
.471
-.146
.472
-.192
.471
-.345
.471
-.181
.472
-.163
.471
-.224
.472
-.156
.471
-.079
.472
-.466
.471
-.403
.472
-.401
.471
-.43
.471
-.347
.472
-.25
.471
-.39
.472
-.41
.471
-.252
.472
-.238
.471
-.288
.472
-.266
.471
-.295
.472
-.327
.471
-.215
.471
-.133
.472
-.242
.471
-.138
.472
-.146
.471
-.191
.472
-.181
.471
-.212
.472
-.254
.471
-.255
.471
-.195
.472
-.198
.471
-.175
.472
-.154
.471
-.106
.472
-.08
.471
-.091
.472
-.116
.471
-.136
.471
-.095
.472
-.152
.471
-.103
.472
-.121
.471
-.106
.472
-.133
.471
-.107
.472
-.194
.471
-.139
.471
-.153
.472
-.118
.471
-.175
.472
-.182
.471
-.161
.472
-.123
.471
-.15
.472
-.111
.471
-.127
.472
-.082
.471
-.102
.471
-.112
.472
-.093
.471
-.163
.472
-.132
.471
-.114
.472
-.114
.471
-.137
.472
-.12
.471
-.155
.471
-.099
.472
-.176
.471
-.236
.472
-.227
.471
-.315
.472
-.137
.471
-.155
.472
-.162
.471
-.101
.471
-.17
.472
-.168
.471
-.17
.472
-.221
.471
-.393
.472
-.173
.471
-.113
.472
-.242
.471
-.145
.471
-.079
.472
-.161
.471
-.135
.472
-.106
.471
-.186
.472
-.213
.471
-.207
.472
-.296
.471
-.113
.472
-.101
.471
-.143
.471
-.127
.472
-.072
.471
-.086
.472
-.128
.471
-.065
.472
-.12
.471
-.108
.472
-.081
.471
-.101
.471
-.061
.472
-.098
.471
-.144
.472
-.121
.471
-.091
.472
-.187
.471
-.148
.472
-.133
.471
-.195
.471
-.056
.472
-.072
.471
-.129
.472
-.076
.471
-.081
.472
-.102
.471
-.065
.472
-.078
.471
-.187
.472
-.116
.471
-.041
.471
-.051
.472
-.071
.471
-.105
.472
-.101
.471
-.154
.472
-.081
.471
-.167
.472
-.235
.471
-.172
.471
-.257
.472
-.183
.471
-.117
.472
-.111
.471
-.11
.472
-.128
.471
-.099
.472
-.086
.471
-.15
.471
-.148
.472
-.162
.471
-.085
.472
-.149
.471
-.061
.472
-.073
.471
-.146
.472
-.094
.471
-.095
.471
-.109
.472
-.137
.471
-.125
.472
-.135
.471
-.08
.472
-.111
.471
-.131
.472
-.115
.471
-.108
.472
-.146
.471
-.101
.471
-.117
.472
-.181
.471
-.18
.472
-.071
.471
-.101
.472
-.116
.471
-.076
.472
-.105
.471
-.081
.471
-.044
.472
-.101
.471
-.052
.472
-.027
.471
-.07
.472
-.096
.471
-.05
.472
-.056
.471
-.106
.471
-.168
.472
-.109
.471
-.155
.472
-.06
.471
-.087
.472
-.069
.471
-.094
.472
-.093
.471
-.049
.471
-.068
.472
-.116
.471
-.09
.472
-.084
.471
-.154
.472
-.152
.471
-.08
.472
-.144
.471
-.08
.472
-.145
.471
-.108
.471
-.052
.472
-.064
.471
-.108
.472
-.087
.471
-.099
.472
-.176
.471
-.052
.472
-.13
.471
-.106
.471
-.086
.472
-.067
.471
-.084
.472
-.062
.471
-.081
.472
-.088
.471
-.14
.472
-.115
.471
-.241
.471
-.172
.472
-.137
.471
-.163
.472
-.123
.471
-.114
.472
-.196
.471
-.202
.472
-.107
.471
-.184
.471
-.111
.472
-.067
.471
-.127
.472
-.087
.471
-.095
.472
-.066
.471
-.14
.472
-.085
.471
-.1
.472
-.095
.471
-.113
.471
-.08
.472
-.091
.471
-.082
.472
-.092
.471
-.134
.472
-.097
.471
-.172
.472
-.104
.471
-.108
.471
-.135
.472
-.131
.471
-.14
.472
-.153
.471
-.107
.472
-.064
.471
-.133
.472
-.113
.471
-.101
.471
-.131
.472
-.149
.471
-.209
.472
-.266
.471
-.191
.472
-.103
.471
-.115
.472
-.088
.471
-.101
.472
-.143
.471
-.09
.471
-.073
.472
-.189
.471
-.166
.472
-.082
.471
-.145
.472
-.12
.471
-.111
.472
-.12
.471
-.16
.471
-.19
.472
-.123
.471
-.123
.472
-.084
.471
-.104
.472
-.092
.471
-.039
.472
-.176
.471
-.077
.471
-.123
.472
-.158
.471
-.13
.472
-.183
.471
-.173
.472
-.121
.471
-.119
.472
-.197
.471
-.101
.471
-.106
.472
-.176
.471
-.11
.472
-.13
.471
-.181
.472
-.088
.471
-.098
.472
-.155
.471
-.105
.472
-.193
.471
-.104
.471
-.18
.472
-.153
.471
-.097
.472
-.088
.471
-.12
.472
-.235
.471
-.226
.472
-.147
.471
-.197
.471
-.126
.472
-.149
.471
-.225
.472
-.171
.471
-.146
.472
-.149
.471
-.099
.472
-.124
.471
-.115
.471
-.13
.472
-.116
.471
-.133
.472
-.106
.471
-.124
.472
-.183
.471
-.14
.472
-.086
.471
-.083
.471
-.102
.472
-.098
.471
-.094
.472
-.064
.471
-.068
.472
-.112
.471
-.058
.472
-.071
.471
-.104
.472
-.101
.471
-.088
.471
-.139
.472
-.071
.471
-.116
.472
-.075
.471
-.152
.472
-.068
.471
-.125
.472
-.049
.471
-.058
.471
-.167
.472
-.088
.471
-.101
.472
-.048
.471
-.07
.472
-.119
.471
-.074
.472
-.071
.471
-.024
.471
-.074
.472
-.031
.471
-.069
.472
-.048
.471
-.113
.472
-.117
.471
-.111
.472
-.037
.471
-.066
.471
-.053
.472
-.034
.471
-.02
.472
-.097
.471
-.072
.472
-.083
.471
-.033
.472
-.062
.471
-.058
.472
-.095
.471
-.026
.471
-.046
.472
-.04
.471
-.088
.472
-.087
.471
-.063
.472
-.054
.471
-.053
.472
-.041
.471
-.035
.471
-.02
.472
-.019
.471
-.039
.472
-.062
.471
-.012
.472
-.034
.471
-.014
.472
-.028
.471
-.017
.471
-.015
.472
-.018
.471
-.013
.472
-.009
.471
-.027
.472
-.052
.471
-.02
.472
-.03
.471
-.002
.471
-.04
.472
-.034
.471
-.042
.472
-.024
.471
-.078
.472
-.028
.471
-.022
.472
-.029
.471
-.039
.472
-.037
.471
-.011
.471
-.009
.472
-.015
.471
-.017
.472
-.027
.471
-.039
.472
-.035
.471
-.03
.472
-.049
.471
-.063
.471
-.04
.472
-.038
.471
-.043
.472
-.013
.471
-.042
.472
-.058
.471
-.03
.472
-.074
.471
-.066
.471
-.043
.472
-.063
.471
-.027
.472
-.024
.471
-.02
.472
-.053
.471
-.087
.472
-.02
.471
-.074
.472
-.055
.471
-.029
.471
-.028
.472
-.017
.471
-.034
.472
-.038
.471
-.056
.472
-.05
.471
-.062
.472
-.049
.471
-.014
.471
-.06
.472
-.032
.471
-.023
.472
-.001
.471
-.026
.472
-.027
.471
-.034
.472
-.046
.471
-.016
.471
-.035
.472
-.017
.471
-.018
.472
-.02
.471
-.021
.472
-.018
.471
-.041
.472
-.023
.471
-.028
.471
-.07
.472
-.045
.471
-.029
.472
-.041
.471
-.06
.472
-.055
.471
-.025
.472
-.043
.471
-.053
.472
-.04
.471
-.027
.471
-.044
.472
-.072
.471
-.013
.472
-.012
.471
-.037
.472
-.07
.471
-.029
.472
-.074
.471
-.048
.471
-.03
.472
-.096
.471
-.062
.472
-.024
.471
-.062
.472
-.018
.471
-.042
.472
-.004
.471
-.031
.471
-.018
.472
-.016
.471
-.034
.472
-.029
.471
-.052
.472
-.049
.471
-.088
.472
-.033
.471
-.04
.471
-.015
.472
-.047
.471
-.041
.472
-.072
.471
-.018
.472
-.031
.471
-.057
.472
-.051
.471
-.018
.472
-.052
.471
-.04
.471
-.005
.472
-.029
.471
-.037
.472
-.052
.471
-.036
.472
-.033
.471
-.024
.472
-.06
.471
-.073
.471
-.039
.472
-.026
.471
-.072
.472
-.033
.471
-.031
.472
-.016
.471
-.027
.472
-.021
.471
-.059
.471
-.032
.472
-.015
.471
-.014
.472
-.047
.471
-.007
.472
-.041
.471
-.035
.472
-.025
.471
-.008
.471
-.001
.472
-.011
.471
-.008
.472
-.014
.471
-.031
.472
-.013
.471
-.014
.472
-.014
.471
-.012
.472
-.028
.471
-.059
.471
-.008
.472
-.039
.471
-.074
.472
-.108
.471
-.085
.472
-.022
.471
-.024
.472
-.033
.471
-.024
.471
-.019
.472
-.034
.471
-.052
.472
-.063
.471
-.031
.472
-.019
.471
-.002
.472
-.026
.471
-.064
.471
-.026
.472
-.022
.471
-.03
.472
-.028
.471
-.05
.472
-.036
.471
-.068
.472
-.003
.471
-.004
.472
-.017
.471
-.025
.471
-.001
.472
-.069
.471
-.022
.472
-.051
.471
-.061
h.472
l.471
-.002
.472
-.006
.471
-.008
.471
-.013
.472
-.015
.471
-.005
.472
-.038
.471
-.02
.472
-.019
.471
-.008
.472
-.003
.471
-.004
.471
-.001
.472
-.003
.471
-.002
.472
-.025
.471
-.039
.472
-.092
.471
-.096
.472
-.053
.471
-.014
h.471
l.472
-.036
.471
-.036
.472
-.024
.471
-.032
.472
-.08
.471
-.065
.472
-.036
.471
-.062
.472
-.031
.471
-.02
.471
-.028
.472
-.016
.471
-.044
.472
-.05
.471
-.022
.472
-.008
.471
-.05
.472
-.047
.471
-.066
.471
-.019
.472
-.002
.471
-.005
.472
-.017
.471
-.025
.472
-.014
.471
-.007
.472
-.014
.471
-.003
.471
-.025
.472
-.028
.471
-.044
.472
-.008
.471
-.016
.472
-.02
.471
-.016
.472
-.037
.471
-.033
.471
-.043
.472
-.025
.471
-.009
.472
-.016
.471
-.021
.472
-.033
.471
-.007
.472
-.018
.471
-.039
.472
-.042
.471
-.004
.471
-.026
.472
-.019
.471
-.018
.472
-.011
.471
-.019
.472
-.001
.471
-.002
.472
-.022
h.471
l.471
-.021
.472
-.027
h.471
l.472
-.014
.471
-.014
.472
-.023
.471
-.028
.472
-.033
.471
-.006
.471
-.016
.472
-.004
.471
-.01
.472
-.016
.471
-.049
.472
-.004
.471
-.025
.472
-.022
.471
-.009
.471
-.028
.472
-.026
.471
-.032
.472
-.041
.471
-.042
.472
-.029
.471
-.049
.472
-.008
.471
-.017
.472
-.012
.471
-.012
.471
-.003
.472
-.001
.471
-.004
.472
-.016
.471
-.015
.472
-.008
.471
-.015
.472
-.028
L770
60" aria-label="line"/>
</svg>
