<?xml version="1.0"?>
<svg xmlns="http://www.w3.org/2000/svg" xmlns:xlink="http://www.w3.org/1999/xlink" class="plot-d6a7b5" fill="currentColor" font-family="system-ui, sans-serif" font-size="10" text-anchor="middle" width="830" height="470" viewBox="0 0 830 470" color="#1e90ff">
  <style>:where(.plot-d6a7b5){--plot-background: white;display:block;height:intrinsic;max-width:100%}:where(.plot-d6a7b5 text),:where(.plot-d6a7b5 tspan){white-space:pre}</style>
  <g aria-label="y-grid" aria-hidden="true" stroke="currentColor" stroke-opacity=".1">
    <line x1="60" x2="770" y1="410" y2="410"/>
    <line x1="60" x2="770" y1="360.939" y2="360.939"/>
    <line x1="60" x2="770" y1="311.878" y2="311.878"/>
    <line x1="60" x2="770" y1="262.817" y2="262.817"/>
    <line x1="60" x2="770" y1="213.757" y2="213.757"/>
    <line x1="60" x2="770" y1="164.696" y2="164.696"/>
    <line x1="60" x2="770" y1="115.635" y2="115.635"/>
    <line x1="60" x2="770" y1="66.574" y2="66.574"/>
  </g>
  <g aria-label="y-axis tick" aria-hidden="true" fill="none" stroke="currentColor">
    <path transform="translate(60,410)" d="M0,0L-6,0"/>
    <path transform="translate(60,360.9391645640594)" d="M0,0L-6,0"/>
    <path transform="translate(60,311.8783291281189)" d="M0,0L-6,0"/>
    <path transform="translate(60,262.8174936921783)" d="M0,0L-6,0"/>
    <path transform="translate(60,213.7566582562377)" d="M0,0L-6,0"/>
    <path transform="translate(60,164.69582282029717)" d="M0,0L-6,0"/>
    <path transform="translate(60,115.6349873843566)" d="M0,0L-6,0"/>
    <path transform="translate(60,66.57415194841604)" d="M0,0L-6,0"/>
  </g>
  <g aria-label="y-axis tick label" text-anchor="end" font-variant="tabular-nums">
    <text y=".32em" transform="translate(-9,0) translate(60,410)">0</text>
    <text y=".32em" transform="translate(-9,0) translate(60,360.9391645640594)">1,000</text>
    <text y=".32em" transform="translate(-9,0) translate(60,311.8783291281189)">2,000</text>
    <text y=".32em" transform="translate(-9,0) translate(60,262.8174936921783)">3,000</text>
    <text y=".32em" transform="translate(-9,0) translate(60,213.7566582562377)">4,000</text>
    <text y=".32em" transform="translate(-9,0) translate(60,164.69582282029717)">5,000</text>
    <text y=".32em" transform="translate(-9,0) translate(60,115.6349873843566)">6,000</text>
    <text y=".32em" transform="translate(-9,0) translate(60,66.57415194841604)">7,000</text>
  </g>
  <g aria-label="y-axis label" text-anchor="start">
    <text y=".71em" transform="translate(-57,-57) translate(60,60)">&#x2191; Visible Vestiges (4 days)</text>
  </g>
  <g aria-label="x-axis tick" aria-hidden="true" fill="none" stroke="currentColor">
    <path transform="translate(84.46621621621621,410)" d="M0,0L0,6"/>
    <path transform="translate(149.94932432432432,410)" d="M0,0L0,6"/>
    <path transform="translate(216.15202702702703,410)" d="M0,0L0,6"/>
    <path transform="translate(282.35472972972974,410)" d="M0,0L0,6"/>
    <path transform="translate(347.83783783783787,410)" d="M0,0L0,6"/>
    <path transform="translate(413.32094594594594,410)" d="M0,0L0,6"/>
    <path transform="translate(479.5236486486487,410)" d="M0,0L0,6"/>
    <path transform="translate(545.7263513513514,410)" d="M0,0L0,6"/>
    <path transform="translate(610.4898648648648,410)" d="M0,0L0,6"/>
    <path transform="translate(675.972972972973,410)" d="M0,0L0,6"/>
    <path transform="translate(742.1756756756756,410)" d="M0,0L0,6"/>
  </g>
  <g aria-label="x-axis tick label" font-variant="tabular-nums">
    <text transform="translate(0,9) translate(84.46621621621621,410)">
      <tspan x="0" y=".71em">Apr</tspan>
      <tspan x="0" dy="1em">2023</tspan>
    </text>
    <text y=".71em" transform="translate(0,9) translate(149.94932432432432,410)">Jul</text>
    <text y=".71em" transform="translate(0,9) translate(216.15202702702703,410)">Oct</text>
    <text transform="translate(0,9) translate(282.35472972972974,410)">
      <tspan x="0" y=".71em">Jan</tspan>
      <tspan x="0" dy="1em">2024</tspan>
    </text>
    <text y=".71em" transform="translate(0,9) translate(347.83783783783787,410)">Apr</text>
    <text y=".71em" transform="translate(0,9) translate(413.32094594594594,410)">Jul</text>
    <text y=".71em" transform="translate(0,9) translate(479.5236486486487,410)">Oct</text>
    <text transform="translate(0,9) translate(545.7263513513514,410)">
      <tspan x="0" y=".71em">Jan</tspan>
      <tspan x="0" dy="1em">2025</tspan>
    </text>
    <text y=".71em" transform="translate(0,9) translate(610.4898648648648,410)">Apr</text>
    <text y=".71em" transform="translate(0,9) translate(675.972972972973,410)">Jul</text>
    <text y=".71em" transform="translate(0,9) translate(742.1756756756756,410)">Oct</text>
  </g>
  <g aria-label="line" fill="none" stroke="currentColor" stroke-width="1.5" stroke-linejoin="round" stroke-linecap="round">
    <path d="M60,
410.00L
60.48,
385.37L
60.96,
295.30L
61.44,
246.73L
61.92,
236.91L
62.40,
270.18L
62.88,
274.00L
63.36,
266.50L
63.84,
238.43L
64.32,
216.01L
64.80,
178.24L
65.28,
139.63L
65.76,
90.37L
66.24,
109.65L
66.72,
145.66L
67.20,
202.67L
67.68,
195.02L
68.16,
193.45L
68.64,
192.91L
69.11,
202.23L
69.60,
211.50L
70.07,
183.00L
70.55,
179.12L
71.03,
151.99L
71.51,
189.82L
71.99,
205.22L
72.47,
226.91L
72.95,
195.95L
73.43,
180.40L
73.91,
178.09L
74.39,
172.40L
74.87,
155.72L
75.35,
120.05L
75.83,
109.60L
76.31,
132.46L
76.79,
196.68L
77.27,
250.01L
77.75,
270.77L
78.23,
263.21L
78.71,
242.56L
79.19,
233.04L
79.67,
194.62L
80.15,
149.98L
80.63,
97.04L
81.11,
82.86L
81.59,
111.81L
82.07,
141.34L
82.55,
166.76L
83.03,
169.11L
83.51,
181.13L
83.99,
172.60L
84.47,
152.14L
84.95,
116.67L
85.43,
86.69L
85.91,
60.00L
86.39,
86.93L
86.87,
122.26L
87.35,
160.38L
87.82,
147.33L
88.30,
133.30L
88.78,
116.52L
89.26,
104.35L
89.74,
106.46L
90.22,
106.36L
90.70,
107.05L
91.18,
95.03L
91.66,
125.01L
92.14,
147.77L
92.62,
175.05L
93.10,
172.79L
93.58,
182.60L
94.06,
202.38L
94.54,
199.33L
95.02,
182.36L
95.50,
158.76L
95.98,
141.88L
96.46,
161.11L
96.94,
182.16L
97.42,
219.06L
97.90,
234.85L
98.38,
250.50L
98.86,
249.72L
99.34,
224.80L
99.82,
202.47L
100.30,
178.48L
100.78,
176.72L
101.26,
168.47L
101.74,
188.79L
102.22,
212.83L
102.70,
207.97L
103.18,
205.61L
103.66,
211.50L
104.14,
247.41L
104.62,
255.80L
105.10,
231.32L
105.57,
208.51L
106.05,
194.33L
106.53,
192.56L
107.01,
221.51L
107.49,
245.74L
107.97,
262.03L
108.45,
240.74L
108.93,
245.79L
109.41,
248.10L
109.89,
252.66L
110.37,
215.33L
110.85,
196.00L
111.33,
185.84L
111.81,
211.55L
112.29,
223.81L
112.77,
231.32L
113.25,
235.64L
113.73,
238.48L
114.21,
248.05L
114.69,
248.35L
115.17,
235.83L
115.65,
235.79L
116.13,
227.69L
116.61,
239.96L
117.09,
253.50L
117.57,
267.53L
118.05,
274.15L
118.53,
266.15L
119.01,
265.71L
119.49,
267.09L
119.97,
259.33L
120.45,
217.83L
120.93,
195.21L
121.41,
179.76L
121.89,
216.90L
122.37,
223.62L
122.85,
247.41L
123.32,
243.44L
123.80,
262.33L
124.28,
246.58L
124.76,
241.62L
125.24,
218.03L
125.72,
203.45L
126.20,
196.34L
126.68,
200.31L
127.16,
230.49L
127.64,
232.11L
128.12,
239.86L
128.60,
249.87L
129.08,
249.72L
129.56,
261.30L
130.04,
259.58L
130.52,
278.17L
131.00,
273.46L
131.48,
263.80L
131.96,
265.76L
132.44,
263.21L
132.92,
262.72L
133.40,
262.82L
133.88,
267.97L
134.36,
285.04L
134.84,
277.44L
135.32,
269.64L
135.80,
263.01L
136.28,
259.83L
136.76,
265.12L
137.24,
263.06L
137.72,
273.37L
138.20,
272.38L
138.68,
264.19L
139.16,
257.81L
139.64,
261.64L
140.12,
269.83L
140.60,
270.57L
141.07,
274.40L
141.55,
265.12L
142.03,
267.68L
142.51,
255.26L
142.99,
262.92L
143.47,
264.09L
143.95,
284.99L
144.43,
288.82L
144.91,
293.82L
145.39,
272.88L
145.87,
265.27L
146.35,
260.41L
146.83,
258.65L
147.31,
260.95L
147.79,
256.29L
148.27,
262.28L
148.75,
245.74L
149.23,
237.65L
149.71,
247.95L
150.19,
265.86L
150.67,
276.26L
151.15,
281.07L
151.63,
283.77L
152.11,
298.53L
152.59,
288.28L
153.07,
291.67L
153.55,
280.38L
154.03,
284.40L
154.51,
276.60L
154.99,
280.28L
155.47,
278.62L
155.95,
282.44L
156.43,
276.75L
156.91,
277.00L
157.39,
272.68L
157.87,
283.33L
158.35,
279.40L
158.82,
283.96L
159.30,
277.93L
159.78,
271.11L
160.26,
268.26L
160.74,
262.57L
161.22,
269.49L
161.70,
277.29L
162.18,
270.37L
162.66,
268.17L
163.14,
274.45L
163.62,
286.51L
164.10,
296.82L
164.58,
281.80L
165.06,
289.46L
165.54,
282.69L
166.02,
288.77L
166.50,
284.31L
166.98,
276.02L
167.46,
262.08L
167.94,
253.64L
168.42,
272.83L
168.90,
271.45L
169.38,
271.60L
169.86,
257.62L
170.34,
263.16L
170.82,
270.72L
171.30,
270.18L
171.78,
279.69L
172.26,
269.64L
172.74,
269.24L
173.22,
254.87L
173.70,
255.70L
174.18,
255.56L
174.66,
266.79L
175.14,
258.26L
175.62,
242.65L
176.10,
208.61L
176.57,
213.27L
177.05,
232.11L
177.53,
264.49L
178.01,
273.90L
178.49,
282.25L
178.97,
287.15L
179.45,
287.30L
179.93,
288.48L
180.41,
288.13L
180.89,
286.42L
181.37,
284.11L
181.85,
281.31L
182.33,
277.54L
182.81,
273.07L
183.29,
276.41L
183.77,
264.24L
184.25,
249.96L
184.73,
234.71L
185.21,
250.16L
185.69,
257.67L
186.17,
256.88L
186.65,
253.59L
187.13,
252.27L
187.61,
262.82L
188.09,
266.55L
188.57,
281.56L
189.05,
292.30L
189.53,
304.37L
190.01,
298.44L
190.49,
298.24L
190.97,
287.25L
191.45,
282.79L
191.93,
285.88L
192.41,
287.89L
192.89,
292.94L
193.37,
294.12L
193.85,
296.96L
194.32,
299.47L
194.80,
300.79L
195.28,
300.59L
195.76,
291.32L
196.24,
278.76L
196.72,
281.76L
197.20,
284.94L
197.68,
294.61L
198.16,
300.69L
198.64,
307.51L
199.12,
314.82L
199.60,
324.24L
200.08,
331.21L
200.56,
307.46L
201.04,
288.33L
201.52,
276.26L
202.00,
283.08L
202.48,
301.58L
202.96,
310.51L
203.44,
334.25L
203.92,
334.10L
204.40,
330.23L
204.88,
324.09L
205.36,
307.81L
205.84,
300.50L
206.32,
270.37L
206.80,
254.58L
207.28,
265.32L
207.76,
289.56L
208.24,
316.29L
208.72,
312.91L
209.20,
314.63L
209.68,
308.10L
210.16,
313.79L
210.64,
310.31L
211.12,
299.07L
211.60,
292.60L
212.07,
288.33L
212.55,
309.96L
213.03,
320.42L
213.51,
335.18L
213.99,
329.69L
214.47,
326.94L
214.95,
316.00L
215.43,
310.16L
215.91,
300.50L
216.39,
294.32L
216.87,
293.14L
217.35,
309.23L
217.83,
321.59L
218.31,
331.31L
218.79,
327.09L
219.27,
332.83L
219.75,
329.98L
220.23,
320.27L
220.71,
306.29L
221.19,
288.77L
221.67,
275.38L
222.15,
270.37L
222.63,
281.71L
223.11,
301.38L
223.59,
316.59L
224.07,
323.80L
224.55,
320.61L
225.03,
313.60L
225.51,
314.28L
225.99,
318.85L
226.47,
303.05L
226.95,
282.25L
227.43,
277.98L
227.91,
303.29L
228.39,
329.05L
228.87,
341.17L
229.35,
335.23L
229.82,
332.97L
230.30,
326.25L
230.78,
316.05L
231.26,
290.14L
231.74,
276.56L
232.22,
272.14L
232.70,
295.10L
233.18,
307.86L
233.66,
316.20L
234.14,
315.66L
234.62,
314.23L
235.10,
319.48L
235.58,
307.32L
236.06,
308.05L
236.54,
303.20L
237.02,
315.80L
237.50,
323.75L
237.98,
328.41L
238.46,
330.33L
238.94,
332.48L
239.42,
346.81L
239.90,
348.38L
240.38,
324.29L
240.86,
300.94L
241.34,
277.83L
241.82,
286.12L
242.30,
301.82L
242.78,
330.57L
243.26,
334.74L
243.74,
333.86L
244.22,
334.30L
244.70,
342.98L
245.18,
343.38L
245.66,
341.76L
246.14,
333.71L
246.62,
336.16L
247.10,
329.44L
247.57,
338.91L
248.05,
344.50L
248.53,
357.60L
249.01,
357.06L
249.49,
356.72L
249.97,
353.53L
250.45,
360.20L
250.93,
346.76L
251.41,
326.35L
251.89,
301.53L
252.37,
303.10L
252.85,
312.32L
253.33,
331.01L
253.81,
339.06L
254.29,
349.17L
254.77,
342.20L
255.25,
334.84L
255.73,
323.56L
256.21,
322.52L
256.69,
320.17L
257.17,
322.08L
257.65,
321.40L
258.13,
328.41L
258.61,
330.08L
259.09,
327.63L
259.57,
316.44L
260.05,
316.59L
260.53,
321.49L
261.01,
338.57L
261.49,
335.28L
261.97,
330.91L
262.45,
324.83L
262.93,
335.13L
263.40,
351.62L
263.89,
355.94L
264.37,
351.77L
264.85,
345.93L
265.32,
351.62L
265.80,
354.12L
266.28,
355.84L
266.76,
352.35L
267.24,
349.80L
267.72,
352.60L
268.20,
348.28L
268.68,
343.52L
269.16,
344.26L
269.64,
355.64L
270.12,
369.03L
270.60,
366.09L
271.08,
355.25L
271.56,
340.78L
272.04,
335.13L
272.52,
343.77L
273.00,
351.96L
273.48,
347.74L
273.96,
347.50L
274.44,
353.04L
274.92,
361.04L
275.40,
353.09L
275.88,
350.00L
276.36,
345.78L
276.84,
338.52L
277.32,
327.73L
277.80,
334.01L
278.28,
346.03L
278.76,
344.85L
279.24,
336.21L
279.72,
328.95L
280.20,
335.38L
280.68,
333.07L
281.15,
333.02L
281.64,
332.63L
282.12,
336.41L
282.60,
338.81L
283.07,
338.42L
283.55,
338.62L
284.03,
332.58L
284.51,
335.92L
284.99,
341.71L
285.47,
342.79L
285.95,
351.27L
286.43,
347.25L
286.91,
347.94L
287.39,
343.03L
287.87,
343.57L
288.35,
351.42L
288.83,
353.43L
289.31,
357.70L
289.79,
366.48L
290.27,
369.97L
290.75,
364.47L
291.23,
351.81L
291.71,
337.29L
292.19,
326.55L
292.67,
317.18L
293.15,
325.62L
293.63,
336.51L
294.11,
353.97L
294.59,
344.16L
295.07,
334.40L
295.55,
331.45L
296.03,
342.05L
296.51,
345.63L
296.99,
336.51L
297.47,
308.69L
297.95,
307.56L
298.43,
305.50L
298.90,
330.08L
299.39,
339.60L
299.87,
349.21L
300.35,
358.29L
300.82,
360.99L
301.30,
346.86L
301.78,
315.41L
302.26,
299.91L
302.74,
295.35L
303.22,
313.40L
303.70,
323.85L
304.18,
342.15L
304.66,
342.00L
305.14,
341.85L
305.62,
334.25L
306.10,
339.06L
306.58,
327.63L
307.06,
312.27L
307.54,
298.14L
308.02,
305.89L
308.50,
317.57L
308.98,
327.04L
309.46,
333.66L
309.94,
332.68L
310.42,
326.94L
310.90,
311.49L
311.38,
315.71L
311.86,
307.46L
312.34,
290.10L
312.82,
267.87L
313.30,
275.77L
313.78,
294.95L
314.26,
304.32L
314.74,
303.34L
315.22,
311.34L
315.70,
326.89L
316.18,
332.53L
316.65,
330.28L
317.14,
319.43L
317.62,
309.13L
318.10,
319.73L
318.57,
328.61L
319.05,
336.95L
319.53,
320.37L
320.01,
321.20L
320.49,
329.84L
320.97,
334.01L
321.45,
324.39L
321.93,
305.55L
322.41,
307.71L
322.89,
309.92L
323.37,
328.02L
323.85,
328.41L
324.33,
338.91L
324.81,
340.04L
325.29,
343.18L
325.77,
342.49L
326.25,
337.98L
326.73,
336.61L
327.21,
322.87L
327.69,
321.89L
328.17,
324.54L
328.65,
348.58L
329.13,
355.25L
329.61,
352.99L
330.09,
350.15L
330.57,
354.17L
331.05,
360.60L
331.53,
347.55L
332.01,
339.06L
332.49,
338.76L
332.97,
341.02L
333.45,
340.19L
333.93,
347.01L
334.41,
359.66L
334.89,
356.43L
335.37,
346.81L
335.85,
339.94L
336.32,
337.19L
336.80,
329.34L
337.28,
313.74L
337.76,
313.11L
338.24,
321.40L
338.72,
359.52L
339.20,
387.83L
339.68,
406.12L
340.16,
409.17L
340.64,
409.22L
341.12,
408.97L
341.60,
408.72L
342.08,
406.86L
342.56,
405.63L
343.04,
405.09L
343.52,
404.65L
344.00,
401.95L
344.48,
399.94L
344.96,
398.67L
345.44,
395.38L
345.92,
388.17L
346.40,
366.29L
346.88,
356.48L
347.36,
350.39L
347.84,
361.48L
348.32,
364.91L
348.80,
365.16L
349.28,
359.42L
349.76,
355.10L
350.24,
349.46L
350.72,
347.35L
351.20,
345.73L
351.68,
343.18L
352.16,
347.25L
352.64,
353.09L
353.12,
356.92L
353.60,
353.48L
354.07,
358.09L
354.55,
364.28L
355.03,
365.06L
355.51,
362.66L
355.99,
364.47L
356.47,
367.07L
356.95,
364.23L
357.43,
355.15L
357.91,
355.59L
358.39,
359.57L
358.87,
364.72L
359.35,
368.54L
359.83,
365.85L
360.31,
372.91L
360.79,
375.56L
361.27,
382.13L
361.75,
379.04L
362.23,
377.52L
362.71,
367.76L
363.19,
356.62L
363.67,
354.86L
364.15,
361.87L
364.63,
364.72L
365.11,
363.88L
365.59,
359.27L
366.07,
365.06L
366.55,
360.06L
367.03,
360.01L
367.51,
354.95L
367.99,
362.07L
368.47,
365.89L
368.95,
369.77L
369.43,
365.55L
369.91,
357.46L
370.39,
361.43L
370.87,
362.66L
371.35,
367.07L
371.82,
361.38L
372.30,
352.70L
372.78,
347.89L
373.26,
341.27L
373.74,
353.09L
374.22,
360.11L
374.70,
367.91L
375.18,
364.86L
375.66,
362.90L
376.14,
360.84L
376.62,
356.18L
377.10,
356.87L
377.58,
351.77L
378.06,
351.91L
378.54,
348.09L
379.02,
347.15L
379.50,
353.97L
379.98,
360.06L
380.46,
376.10L
380.94,
378.26L
381.42,
373.99L
381.90,
366.09L
382.38,
343.23L
382.86,
341.17L
383.34,
331.31L
383.82,
353.78L
384.30,
359.03L
384.78,
370.56L
385.26,
360.89L
385.74,
365.45L
386.22,
364.18L
386.70,
368.45L
387.18,
359.86L
387.66,
351.47L
388.14,
338.91L
388.62,
339.16L
389.10,
337.10L
389.57,
355.20L
390.05,
354.56L
390.53,
351.42L
391.01,
341.95L
391.49,
343.57L
391.97,
349.31L
392.45,
345.34L
392.93,
346.32L
393.41,
338.62L
393.89,
350.00L
394.37,
349.51L
394.85,
360.45L
395.33,
353.34L
395.81,
353.09L
396.29,
349.66L
396.77,
352.21L
397.25,
347.06L
397.73,
342.20L
398.21,
332.19L
398.69,
331.11L
399.17,
340.19L
399.65,
342.54L
400.13,
347.45L
400.61,
351.03L
401.09,
362.80L
401.57,
357.65L
402.05,
355.94L
402.53,
351.37L
403.01,
354.56L
403.49,
353.68L
403.97,
351.72L
404.45,
363.10L
404.93,
372.22L
405.41,
378.41L
405.89,
373.01L
406.37,
354.41L
406.85,
352.94L
407.32,
353.19L
407.80,
366.19L
408.28,
349.66L
408.76,
350.00L
409.24,
348.77L
409.72,
359.32L
410.20,
353.63L
410.68,
359.22L
411.16,
367.07L
411.64,
374.92L
412.12,
373.55L
412.60,
373.99L
413.08,
368.30L
413.56,
353.83L
414.04,
349.31L
414.52,
351.37L
415.00,
354.76L
415.48,
356.57L
415.96,
352.21L
416.44,
362.95L
416.92,
367.02L
417.40,
374.48L
417.88,
370.85L
418.36,
365.36L
418.84,
366.97L
419.32,
372.47L
419.80,
378.99L
420.28,
375.95L
420.76,
373.70L
421.24,
369.82L
421.72,
363.64L
422.20,
358.19L
422.68,
363.64L
423.16,
370.02L
423.64,
371.00L
424.12,
365.70L
424.60,
366.78L
425.07,
366.83L
425.55,
366.14L
426.03,
363.10L
426.51,
365.31L
426.99,
365.50L
427.47,
361.09L
427.95,
352.84L
428.43,
336.51L
428.91,
333.61L
429.39,
335.72L
429.87,
353.43L
430.35,
359.32L
430.83,
361.14L
431.31,
362.07L
431.79,
365.60L
432.27,
372.13L
432.75,
372.17L
433.23,
367.76L
433.71,
364.72L
434.19,
355.49L
434.67,
354.17L
435.15,
344.01L
435.63,
342.05L
436.11,
333.02L
436.59,
333.61L
437.07,
335.67L
437.55,
334.89L
438.03,
332.44L
438.51,
341.07L
438.99,
348.72L
439.47,
343.23L
439.95,
339.89L
440.43,
342.64L
440.91,
354.46L
441.39,
356.87L
441.87,
365.06L
442.35,
341.51L
442.82,
317.37L
443.30,
285.93L
443.78,
289.41L
444.26,
294.81L
444.74,
309.57L
445.22,
313.50L
445.70,
307.37L
446.18,
307.17L
446.66,
321.99L
447.14,
333.91L
447.62,
332.58L
448.10,
327.04L
448.58,
323.26L
449.06,
328.17L
449.54,
344.01L
450.02,
352.26L
450.50,
359.86L
450.98,
358.63L
451.46,
363.59L
451.94,
359.32L
452.42,
352.89L
452.90,
346.76L
453.38,
339.60L
453.86,
341.12L
454.34,
346.66L
454.82,
354.46L
455.30,
358.54L
455.78,
367.46L
456.26,
376.79L
456.74,
382.92L
457.22,
381.99L
457.70,
376.44L
458.18,
376.10L
458.66,
372.52L
459.14,
375.76L
459.62,
373.25L
460.10,
377.77L
460.57,
374.87L
461.05,
376.15L
461.53,
367.61L
462.01,
366.93L
462.49,
362.46L
462.97,
369.87L
463.45,
366.39L
463.93,
363.59L
464.41,
359.42L
464.89,
364.52L
465.37,
367.61L
465.85,
372.42L
466.33,
372.08L
466.81,
378.65L
467.29,
379.58L
467.77,
381.01L
468.25,
380.02L
468.73,
374.09L
469.21,
372.13L
469.69,
370.06L
470.17,
374.77L
470.65,
374.33L
471.13,
373.70L
471.61,
369.77L
472.09,
373.40L
472.57,
368.00L
473.05,
359.96L
473.53,
347.55L
474.01,
333.91L
474.49,
343.72L
474.97,
350.69L
475.45,
365.60L
475.93,
369.08L
476.41,
367.66L
476.89,
367.07L
477.37,
360.40L
477.85,
355.30L
478.32,
333.42L
478.80,
333.02L
479.28,
343.67L
479.76,
358.34L
480.24,
361.09L
480.72,
364.42L
481.20,
372.37L
481.68,
373.40L
482.16,
370.75L
482.64,
368.25L
483.12,
360.65L
483.60,
350.69L
484.08,
340.09L
484.56,
349.70L
485.04,
360.20L
485.52,
375.02L
486.00,
373.74L
486.48,
376.54L
486.96,
382.13L
487.44,
382.08L
487.92,
382.77L
488.40,
379.44L
488.88,
381.35L
489.36,
379.78L
489.84,
381.69L
490.32,
386.26L
490.80,
384.54L
491.28,
380.32L
491.76,
374.48L
492.24,
375.22L
492.72,
371.00L
493.20,
368.40L
493.68,
364.28L
494.16,
363.49L
494.64,
372.47L
495.12,
378.41L
495.60,
384.88L
496.07,
382.87L
496.55,
382.08L
497.03,
384.73L
497.51,
385.81L
497.99,
386.06L
498.47,
377.72L
498.95,
372.76L
499.43,
376.30L
499.91,
389.69L
500.39,
394.01L
500.87,
387.83L
501.35,
382.87L
501.83,
374.87L
502.31,
377.18L
502.79,
370.70L
503.27,
362.80L
503.75,
353.92L
504.23,
345.14L
504.71,
350.15L
505.19,
355.54L
505.67,
369.77L
506.15,
376.98L
506.63,
375.85L
507.11,
377.03L
507.59,
379.39L
508.07,
377.28L
508.55,
372.47L
509.03,
365.01L
509.51,
371.34L
509.99,
371.29L
510.47,
381.20L
510.95,
382.38L
511.43,
382.62L
511.91,
379.39L
512.39,
377.23L
512.87,
380.96L
513.35,
376.69L
513.82,
373.74L
514.30,
371.14L
514.78,
376.74L
515.26,
378.16L
515.74,
378.55L
516.22,
375.12L
516.70,
375.41L
517.18,
373.94L
517.66,
375.27L
518.14,
374.33L
518.62,
370.95L
519.10,
363.29L
519.58,
367.81L
520.06,
375.56L
520.54,
381.79L
521.02,
381.35L
521.50,
381.05L
521.98,
384.39L
522.46,
387.53L
522.94,
387.83L
523.42,
390.82L
523.90,
392.44L
524.38,
395.53L
524.86,
391.11L
525.34,
388.86L
525.82,
390.23L
526.30,
389.25L
526.78,
377.77L
527.26,
372.57L
527.74,
367.81L
528.22,
378.31L
528.70,
380.42L
529.18,
388.90L
529.66,
385.57L
530.14,
384.98L
530.62,
386.84L
531.10,
389.44L
531.57,
387.29L
532.05,
383.31L
532.53,
381.64L
533.01,
377.91L
533.49,
371.83L
533.97,
372.32L
534.45,
373.20L
534.93,
380.27L
535.41,
373.94L
535.89,
377.47L
536.37,
380.17L
536.85,
388.07L
537.33,
388.12L
537.81,
384.73L
538.29,
381.30L
538.77,
374.63L
539.25,
377.96L
539.73,
374.97L
540.21,
381.79L
540.69,
378.60L
541.17,
384.69L
541.65,
386.89L
542.13,
389.15L
542.61,
387.78L
543.09,
387.38L
543.57,
379.83L
544.05,
376.49L
544.53,
361.53L
545.01,
358.39L
545.49,
356.23L
545.97,
363.83L
546.45,
368.59L
546.93,
370.90L
547.41,
367.71L
547.89,
360.01L
548.37,
360.69L
548.85,
361.82L
549.32,
370.70L
549.80,
374.53L
550.28,
380.17L
550.76,
382.53L
551.24,
379.83L
551.72,
385.76L
552.20,
380.56L
552.68,
381.59L
553.16,
378.26L
553.64,
382.62L
554.12,
379.88L
554.60,
381.79L
555.08,
382.18L
555.56,
385.22L
556.04,
384.10L
556.52,
379.98L
557.00,
378.41L
557.48,
370.60L
557.96,
373.50L
558.44,
372.47L
558.92,
376.05L
559.40,
373.45L
559.88,
370.31L
560.36,
368.59L
560.84,
370.90L
561.32,
378.36L
561.80,
380.32L
562.28,
379.73L
562.76,
376.05L
563.24,
376.25L
563.72,
372.76L
564.20,
362.22L
564.68,
349.02L
565.16,
344.90L
565.64,
355.30L
566.12,
370.02L
566.60,
380.02L
567.07,
380.27L
567.55,
377.57L
568.03,
377.38L
568.51,
380.12L
568.99,
375.56L
569.47,
368.20L
569.95,
367.22L
570.43,
371.59L
570.91,
376.05L
571.39,
373.25L
571.87,
375.66L
572.35,
371.73L
572.83,
364.08L
573.31,
363.79L
573.79,
367.42L
574.27,
377.72L
574.75,
379.58L
575.23,
382.67L
575.71,
387.04L
576.19,
379.98L
576.67,
381.40L
577.15,
373.25L
577.63,
375.07L
578.11,
369.87L
578.59,
363.93L
579.07,
362.41L
579.55,
363.34L
580.03,
369.67L
580.51,
367.32L
580.99,
369.23L
581.47,
370.46L
581.95,
372.62L
582.43,
371.68L
582.91,
369.33L
583.39,
368.84L
583.87,
370.95L
584.35,
374.14L
584.82,
376.59L
585.30,
375.07L
585.78,
365.80L
586.26,
370.70L
586.74,
363.39L
587.22,
367.27L
587.70,
368.05L
588.18,
376.93L
588.66,
380.17L
589.14,
366.68L
589.62,
353.19L
590.10,
350.54L
590.58,
354.22L
591.06,
364.03L
591.54,
363.88L
592.02,
361.18L
592.50,
356.77L
592.98,
356.97L
593.46,
364.47L
593.94,
371.44L
594.42,
373.65L
594.90,
376.88L
595.38,
373.94L
595.86,
374.77L
596.34,
372.96L
596.82,
375.36L
597.30,
374.53L
597.78,
369.62L
598.26,
366.29L
598.74,
369.97L
599.22,
379.83L
599.70,
383.51L
600.18,
382.38L
600.66,
381.25L
601.14,
384.98L
601.62,
387.87L
602.10,
386.16L
602.57,
386.70L
603.05,
386.40L
603.53,
387.19L
604.01,
383.02L
604.49,
381.40L
604.97,
377.96L
605.45,
380.86L
605.93,
378.11L
606.41,
384.39L
606.89,
376.49L
607.37,
381.20L
607.85,
376.25L
608.33,
386.40L
608.81,
387.29L
609.29,
383.21L
609.77,
379.34L
610.25,
375.22L
610.73,
386.89L
611.21,
388.61L
611.69,
386.84L
612.17,
384.29L
612.65,
384.24L
613.13,
393.47L
613.61,
393.47L
614.09,
397.34L
614.57,
392.98L
615.05,
395.48L
615.53,
387.48L
616.01,
382.82L
616.49,
376.69L
616.97,
384.10L
617.45,
389.10L
617.93,
394.79L
618.41,
395.09L
618.89,
399.50L
619.37,
395.18L
619.85,
391.50L
620.32,
385.42L
620.80,
391.70L
621.28,
392.63L
621.76,
395.04L
622.24,
388.95L
622.72,
392.49L
623.20,
393.71L
623.68,
399.01L
624.16,
392.98L
624.64,
388.95L
625.12,
386.79L
625.60,
390.08L
626.08,
393.37L
626.56,
395.53L
627.04,
397.34L
627.52,
400.63L
628.00,
402.79L
628.48,
402.45L
628.96,
398.23L
629.44,
398.91L
629.92,
399.45L
630.40,
404.16L
630.88,
402.59L
631.36,
404.16L
631.84,
404.16L
632.32,
405.09L
632.80,
405.54L
633.28,
406.12L
633.76,
405.19L
634.24,
401.41L
634.72,
400.29L
635.20,
400.04L
635.68,
404.90L
636.16,
402.98L
636.64,
402.59L
637.12,
398.67L
637.60,
400.19L
638.07,
395.92L
638.55,
397.24L
639.03,
397.49L
639.51,
402.30L
639.99,
401.27L
640.47,
399.70L
640.95,
401.46L
641.43,
404.41L
641.91,
406.66L
642.39,
405.98L
642.87,
404.26L
643.35,
401.81L
643.83,
400.09L
644.31,
399.84L
644.79,
398.91L
645.27,
396.21L
645.75,
395.14L
646.23,
396.17L
646.71,
398.08L
647.19,
400.78L
647.67,
400.48L
648.15,
398.96L
648.63,
397.34L
649.11,
394.15L
649.59,
393.42L
650.07,
392.09L
650.55,
393.17L
651.03,
397.00L
651.51,
398.86L
651.99,
403.03L
652.47,
400.53L
652.95,
394.30L
653.43,
394.40L
653.91,
392.29L
654.39,
395.43L
654.87,
394.50L
655.35,
399.01L
655.82,
402.79L
656.30,
402.35L
656.78,
401.32L
657.26,
397.49L
657.74,
395.87L
658.22,
393.61L
658.70,
394.30L
659.18,
397.83L
659.66,
397.93L
660.14,
399.60L
660.62,
398.77L
661.10,
404.55L
661.58,
405.09L
662.06,
404.70L
662.54,
401.46L
663.02,
399.60L
663.50,
400.63L
663.98,
400.58L
664.46,
403.33L
664.94,
403.08L
665.42,
404.65L
665.90,
404.21L
666.38,
404.31L
666.86,
402.10L
667.34,
402.00L
667.82,
400.97L
668.30,
398.23L
668.78,
396.02L
669.26,
395.92L
669.74,
398.77L
670.22,
397.24L
670.70,
394.79L
671.18,
396.26L
671.66,
397.98L
672.14,
398.13L
672.62,
396.75L
673.10,
398.27L
673.57,
399.16L
674.05,
396.02L
674.53,
397.39L
675.01,
400.53L
675.49,
403.97L
675.97,
398.42L
676.45,
396.71L
676.93,
393.03L
677.41,
395.18L
677.89,
395.09L
678.37,
393.03L
678.85,
391.70L
679.33,
392.24L
679.81,
395.48L
680.29,
399.80L
680.77,
398.08L
681.25,
403.82L
681.73,
402.49L
682.21,
404.80L
682.69,
403.57L
683.17,
403.33L
683.65,
402.35L
684.13,
398.81L
684.61,
397.24L
685.09,
391.46L
685.57,
393.32L
686.05,
394.30L
686.53,
401.46L
687.01,
400.09L
687.49,
399.94L
687.97,
394.30L
688.45,
397.20L
688.93,
398.13L
689.41,
399.65L
689.89,
396.36L
690.37,
397.74L
690.85,
398.23L
691.32,
399.26L
691.80,
400.48L
692.28,
402.69L
692.76,
403.08L
693.24,
398.52L
693.72,
397.78L
694.20,
398.13L
694.68,
400.92L
695.16,
398.57L
695.64,
394.74L
696.12,
393.12L
696.60,
396.56L
697.08,
396.61L
697.56,
397.20L
698.04,
396.71L
698.52,
402.15L
699.00,
402.79L
699.48,
403.77L
699.96,
399.50L
700.44,
399.06L
700.92,
399.60L
701.40,
404.11L
701.88,
402.54L
702.36,
403.33L
702.84,
400.68L
703.32,
401.95L
703.80,
400.19L
704.28,
403.38L
704.76,
406.66L
705.24,
408.04L
705.72,
408.04L
706.20,
406.71L
706.68,
404.80L
707.16,
404.31L
707.64,
404.36L
708.12,
405.98L
708.60,
406.08L
709.07,
404.75L
709.55,
400.34L
710.03,
400.73L
710.51,
399.65L
710.99,
398.18L
711.47,
388.36L
711.95,
383.90L
712.43,
389.00L
712.91,
397.24L
713.39,
402.25L
713.87,
402.05L
714.35,
402.54L
714.83,
402.45L
715.31,
399.75L
715.79,
395.48L
716.27,
395.72L
716.75,
398.96L
717.23,
404.85L
717.71,
405.39L
718.19,
400.97L
718.67,
398.67L
719.15,
399.06L
719.63,
402.35L
720.11,
402.25L
720.59,
399.50L
721.07,
398.91L
721.55,
394.89L
722.03,
399.55L
722.51,
402.69L
722.99,
407.65L
723.47,
405.49L
723.95,
405.73L
724.43,
400.78L
724.91,
401.02L
725.39,
396.12L
725.87,
396.90L
726.35,
399.06L
726.82,
403.87L
727.30,
409.22L
727.78,
408.38L
728.26,
407.35L
728.74,
406.42L
729.22,
406.81L
729.70,
404.31L
730.18,
403.82L
730.66,
402.49L
731.14,
405.49L
731.62,
407.15L
732.10,
408.53L
732.58,
409.17L
733.06,
409.22L
733.54,
409.41L
734.02,
407.11L
734.50,
403.52L
734.98,
394.74L
735.46,
387.83L
735.94,
386.45L
736.42,
394.06L
736.90,
403.43L
737.38,
405.09L
737.86,
402.94L
738.34,
400.58L
738.82,
400.97L
739.30,
396.71L
739.78,
392.68L
740.26,
392.34L
740.74,
394.06L
741.22,
397.39L
741.70,
398.96L
742.18,
402.30L
742.66,
403.77L
743.14,
401.37L
743.62,
399.26L
744.10,
398.67L
744.57,
402.25L
745.05,
402.15L
745.53,
399.75L
746.01,
394.06L
746.49,
397.15L
746.97,
401.51L
747.45,
407.45L
747.93,
407.65L
748.41,
405.39L
748.89,
404.46L
749.37,
405.49L
749.85,
406.57L
750.33,
407.74L
750.81,
405.93L
751.29,
404.55L
751.77,
400.43L
752.25,
402.10L
752.73,
403.28L
753.21,
405.78L
753.69,
404.95L
754.17,
402.89L
754.65,
401.51L
755.13,
398.96L
755.61,
400.19L
756.09,
402.54L
756.57,
405.14L
757.05,
405.49L
757.53,
403.08L
758.01,
403.97L
758.49,
404.31L
758.97,
403.77L
759.45,
400.38L
759.93,
401.71L
760.41,
402.98L
760.89,
405.19L
761.37,
403.87L
761.85,
405.34L
762.32,
405.34L
762.80,
406.91L
763.28,
407.79L
763.76,
407.55L
764.24,
407.69L
764.72,
405.78L
765.20,
405.24L
765.68,
405.24L
766.16,
406.03L
766.64,
407.35L
767.12,
405.09L
767.60,
403.62L
768.08,
401.76L
768.56,
403.43L
769.04,
404.60L
769.52,
407.45L
770.00,
407.056"/>
  </g>
</svg>
