<svg xmlns="http://www.w3.org/2000/svg" width="830" height="470" fill="currentColor" class="plot-d6a7b5" font-family="system-ui, sans-serif" font-size="10" style="--plot-background:white;display:block;height:intrinsic;max-width:100%;color:#1e90ff" text-anchor="middle" viewBox="0 0 830 470">
    <style>
        :where(.plot-d6a7b5 text),:where(.plot-d6a7b5 tspan){white-space:pre}
    </style>
    <path stroke="currentColor" stroke-opacity=".1" d="
M60
410
h710
M60
378.557
h710
M60
347.114
h710
M60
315.671
h710
M60
284.227
h710
M60
252.784
h710
M60
221.341
h710
M60
189.898
h710
M60
158.455
h710
M60
127.012
h710
M60
95.568
h710
M60
64.125
h710" aria-hidden="true" aria-label="y-grid"/>
    <path fill="none" stroke="currentColor" d="
M60
410
h-6
m6
-31.443
h-6
m6
-31.443
h-6
m6
-31.444
h-6
m6
-31.443
h-6
m6
-31.443
h-6
m6
-31.443
h-6
m6
-31.443
h-6
m6
-31.443
h-6
m6
-31.443
h-6
m6
-31.444
h-6
m6
-31.443
h-6" aria-hidden="true" aria-label="y-axis tick"/>
    <g aria-label="y-axis tick label" font-variant="tabular-nums" text-anchor="end">
        <text y=".32em" transform="translate(51 410)">0</text>
        <text y=".32em" transform="translate(51 378.557)">5,000</text>
        <text y=".32em" transform="translate(51 347.114)">10,000</text>
        <text y=".32em" transform="translate(51 315.67)">15,000</text>
        <text y=".32em" transform="translate(51 284.227)">20,000</text>
        <text y=".32em" transform="translate(51 252.784)">25,000</text>
        <text y=".32em" transform="translate(51 221.341)">30,000</text>
        <text y=".32em" transform="translate(51 189.898)">35,000</text>
        <text y=".32em" transform="translate(51 158.455)">40,000</text>
        <text y=".32em" transform="translate(51 127.012)">45,000</text>
        <text y=".32em" transform="translate(51 95.568)">50,000</text>
        <text y=".32em" transform="translate(51 64.125)">55,000</text>
    </g>
    <text y=".71em" aria-label="y-axis label" text-anchor="start" transform="translate(3 3)">↑ Visible vestiges (30 days)</text>
    <path fill="none" stroke="currentColor" d="
M80.715
410
v6
m55.443
-6
v6
m56.053
-6
v6
m56.053
-6
v6
m55.443
-6
v6
m55.443
-6
v6
m56.053
-6
v6
m56.053
-6
v6
m54.834
-6
v6
m55.443
-6
v6
m56.053
-6
v6
m56.052
-6
v6
m54.835
-6
v6" aria-hidden="true" aria-label="x-axis tick"/>
    <g aria-label="x-axis tick label" font-variant="tabular-nums">
        <text transform="translate(80.715 419)"><tspan x="0" y=".71em">Apr</tspan><tspan x="0" dy="1em">2023</tspan></text>
        <text y=".71em" transform="translate(136.158 419)">Jul</text>
        <text y=".71em" transform="translate(192.211 419)">Oct</text>
        <text transform="translate(248.264 419)"><tspan x="0" y=".71em">Jan</tspan><tspan x="0" dy="1em">2024</tspan></text>
        <text y=".71em" transform="translate(303.707 419)">Apr</text>
        <text y=".71em" transform="translate(359.15 419)">Jul</text>
        <text y=".71em" transform="translate(415.203 419)">Oct</text>
        <text transform="translate(471.256 419)"><tspan x="0" y=".71em">Jan</tspan><tspan x="0" dy="1em">2025</tspan></text>
        <text y=".71em" transform="translate(526.09 419)">Apr</text>
        <text y=".71em" transform="translate(581.533 419)">Jul</text>
        <text y=".71em" transform="translate(637.586 419)">Oct</text>
        <text transform="translate(693.638 419)"><tspan x="0" y=".71em">Jan</tspan><tspan x="0" dy="1em">2026</tspan></text>
        <text y=".71em" transform="translate(748.473 419)">Apr</text>
    </g>
    <path fill="none" stroke="currentColor" stroke-linecap="round" stroke-linejoin="round" stroke-width="1.5" d="
m60
410
.406
-3.157
.406
-11.546
.407
-6.226
.406
-4.414
.406
-7.282
.406
-5.736
.406
-5.376
.406
-10.88
.407
-8.609
.406
-10.219
.406
-15.828
.406
-14.923
.406
-7.748
.406
-11.213
.407
-7.615
.406
-8.729
.406
-11.414
.406
-7.684
.406
-7.534
.407
-10.225
.406
-11.339
.406
-8.03
.406
-13.703
.406
-6.49
.406
-6.056
.407
-10.923
.406
-10.458
.406
-8.05
.406
-11.219
.406
-8.03
.407
1.358
.406
-9.565
.406
-8.112
.406
.025
.406
-1.824
.406
-.314
.407
6.282
.406
.082
.406
1.88
.406
10.012
.406
1.471
.406
-6.314
.407
-1.389
.406
-7.654
.406
-1.622
.406
2.597
.406
-4.327
.407
-2.515
.406
2.949
.406
-1.767
.406
-4.641
.406
1.881
.406
-10.458
.407
-10.037
.406
2.553
.406
-1.962
.406
-3.157
.406
1.176
.407
-3.031
.406
-3.169
.406
4.188
.406
-1.421
.406
-6.113
.406
-3.956
.407
-9.797
.406
-4.931
.406
-.069
L87.62
64
l.406
-4
.406
6.113
.407
4.603
.406
2.396
.406
5.754
.406
-2.132
.406
-3.553
.407
4.962
.406
.264
.406
-.365
.406
8.081
.406
4.893
.406
4.081
.407
8.728
.406
5.453
.406
-2.447
.406
3.975
.406
-.491
.407
1.83
.406
8.855
.406
1.037
.406
3.088
.406
9.339
.406
5.653
.407
4.075
.406
7.741
.406
-1.113
.406
-.66
.406
4.019
.406
2.886
.407
1.189
.406
3.571
.406
.548
.406
4.012
.406
6.892
.407
3.295
.406
-3.238
.406
1.716
.406
-2.735
.406
-1.968
.406
1.282
.407
-1.672
.406
1.779
.406
4.509
.406
2.629
.406
2.044
.407
3.962
.406
.018
.406
-2.075
.406
6.157
.406
2.056
.406
-1.031
.407
2.402
.406
-.044
.406
2.05
.406
5.503
.406
.78
.406
-3.044
.407
-1.107
.406
-4.308
.406
-.371
.406
2.484
.406
-1.905
.407
-1.176
.406
4.32
.406
.862
.406
.666
.406
2.597
.406
-4.301
.407
-1.817
.406
2.144
.406
-.987
.406
-1.975
.406
1.912
.407
.258
.406
-.39
.406
3.402
.406
1.075
.406
.422
.406
1.062
.407
-1.962
.406
-.176
.406
1.761
.406
-1.968
.406
-.34
.406
3.415
.407
5.54
.406
1.585
.406
4.396
.406
-.069
.406
.314
.407
2.025
.406
.176
.406
-.786
.406
3.918
.406
-.239
.406
1.421
.407
6.276
.406
1.723
.406
1.006
.406
2.899
.406
.327
.407
.34
.406
.025
.406
1.327
.406
-.994
.406
2.925
.406
-.566
.407
.251
.406
1.478
.406
-1.792
.406
-.044
.406
1.314
.406
-1.509
.407
-1.302
.406
-.107
.406
-2.654
.406
-1.339
.406
2.063
.407
.05
.406
-.686
.406
2.943
.406
-.924
.406
1.333
.406
2.679
.407
.327
.406
-.604
.406
2.145
.406
-.767
.406
-.623
.407
3.119
.406
-.603
.406
.239
.406
2.169
.406
-1.308
.406
-1.075
.407
1.176
.406
-1.365
.406
.836
.406
1.277
.406
-1.107
.406
.334
.407
1.867
.406
.491
.406
-1.321
.406
3.704
.406
2.333
.407
-1.094
.406
2.729
.406
-.924
.406
-.73
.406
1.516
.406
-2.038
.407
.013
.406
.019
.406
-2.377
.406
-1.585
.406
3.478
.407
-3.025
.406
-1.352
.406
1.195
.406
-1.585
.406
-.415
.406
1.679
.407
-1.73
.406
-1.201
.406
1.044
.406
-2.798
.406
-.22
.406
1.39
.407
-.629
.406
-2.201
.406
-1.61
.406
-4.107
.406
-1.32
h.407
l.406
-1.503
.406
-1.434
.406
2.993
.406
-1.855
.406
-.547
.407
2.365
.406
-1.327
.406
.295
.406
3.855
.406
-.604
.407
-2.647
.406
3.459
.406
-.195
.406
-2.415
.406
.918
.406
-3.119
.407
-.365
.406
.66
.406
-1.93
.406
-.736
.406
2.333
.406
-.685
.407
-.239
.406
2.817
.406
1.786
.406
3.308
.406
6.42
.407
1.164
.406
-.516
.406
1.698
.406
.352
.406
-1.327
.406
1.717
.407
.484
.406
-1.113
.406
2.082
.406
.874
.406
-.843
.407
1.252
.406
-.252
.406
.113
.406
1.233
.406
2.547
.406
2.723
.407
4.062
.406
1.503
.406
2.969
.406
5.056
.406
-1.12
.406
.686
.407
2.157
.406
-.724
.406
1.132
.406
1.925
.406
.773
.407
1.874
.406
1.453
.406
1.396
.406
.358
.406
.12
.406
-2.723
.407
-2.314
.406
1.345
.406
.019
.406
.793
.406
.742
.407
.264
.406
1.144
.406
3.082
.406
-.566
.406
-.704
.406
1.012
.407
-1.893
.406
1.195
.406
1.415
.406
-1.207
.406
-.403
.406
4.107
.407
-.158
.406
.396
.406
1.994
.406
-3.32
.406
-.9
.407
1.013
.406
-1.717
.406
.843
.406
1.257
.406
1.107
.406
1.415
.407
3.874
.406
1.339
.406
-2.207
.406
-.949
.406
-2.73
.407
-.32
.406
1.352
.406
.056
.406
-.126
.406
1.39
.406
.598
.407
.792
.406
2.522
.406
-4.201
.406
-3.214
.406
.082
.406
-.251
.407
.44
.406
3.037
.406
-.264
.406
1.39
.406
2.968
.407
-1.421
.406
-3.993
.406
-.359
.406
-3.232
.406
-.51
.406
.541
.407
-1.798
.406
.666
.406
2.151
.406
1.119
.406
.824
.407
2.887
.406
-.956
.406
-.082
.406
1.956
.406
-1.283
.406
.572
.407
3.132
.406
.465
.406
.189
.406
2.069
.406
.138
.406
-2.226
.407
-.113
.406
-1.151
.406
-.094
.406
1.182
.406
-.975
.407
.824
.406
3.603
.406
2.396
.406
2.359
.406
3.138
.406
-.233
.407
-.138
.406
3.282
.406
.554
.406
1.723
.406
2.54
.407
2.069
.406
1.22
.406
4.019
.406
-1.27
.406
-2.415
.406
.239
.407
-1.315
.406
-1.509
.406
.799
.406
-.484
.406
2.873
.406
2.899
.407
1.535
.406
.365
.406
.754
.406
-2.452
.406
.075
.407
.78
.406
-1.61
.406
-.824
.406
.415
.406
-2.836
.406
.227
.407
.729
.406
.214
.406
-1.409
.406
-.547
.406
-2.245
.407
-.019
.406
1.61
.406
-1.283
.406
-1.408
.406
2.584
.406
2.063
.407
2.094
.406
2.603
.406
.434
.406
-.629
.406
1.931
.406
-1.415
.407
-.346
.406
2.968
.406
1.491
.406
1.503
.406
2.893
.407
-.145
.406
-.264
.406
1.27
.406
.749
.406
1.1
.406
2.163
.407
.698
.406
1.183
.406
1
.406
.1
.406
1.346
.406
1.239
.407
-2.151
.406
-2.151
.406
1.491
.406
-.076
.406
-1.553
.407
-.346
.406
-1.327
.406
-.949
.406
-.195
.406
-1.006
.406
-1.359
.407
.843
.406
-.088
.406
-1.503
.406
-.591
.406
-2.579
.407
-.698
.406
1.541
.406
-.585
.406
1.113
.406
-.081
.406
-1.547
.407
1.025
.406
.018
.406
-1.251
.406
.258
.406
1.585
.406
.27
.407
1.245
.406
1.811
.406
.032
.406
-1.422
.406
-1.106
.407
-1.019
.406
.767
.406
1.22
.406
.396
.406
-.195
.406
-.025
.407
.069
.406
.68
.406
.125
.406
-1.05
.406
-2.912
.407
.755
.406
-1.742
.406
-.503
.406
1.836
.406
-1.597
.406
1.176
.407
2.094
.406
-2.779
.406
-2.925
.406
-.899
.406
-3.622
.406
-1.157
.407
-.686
.406
-1.723
.406
-.471
.406
.918
.406
-.837
.407
1.522
.406
.654
.406
-3.886
.406
-1.686
.406
-.591
.406
-1.132
.407
.78
.406
.635
.406
-2.616
.406
-.415
.406
-.176
.407
1.49
.406
-1.326
.406
-2.139
.406
-4.509
.406
-1.534
.406
-.912
.407
-4.471
.406
-2.006
.406
1.924
.406
1.554
.406
.704
.406
2.22
.407
-2.151
.406
-1.956
.406
1.233
.406
-.994
.406
-.868
.407
.082
.406
-1.503
.406
1.704
.406
2.585
.406
-.924
.406
-1.705
.407
1.365
.406
-1.855
.406
-.233
.406
1.541
.406
.226
.407
1.893
.406
1.403
.406
1.194
.406
3.541
.406
4.075
.406
-1.579
.407
.956
.406
3.214
.406
1.629
.406
.786
.406
.93
.406
.541
.407
1.591
.406
3.145
.406
.188
.406
-.855
.406
1.968
.407
-.591
.406
1.164
.406
2.735
.406
-.075
.406
.213
.406
2.736
.407
1.459
.406
-.415
.406
1.446
.406
-2.861
.406
-.547
.407
1.163
.406
1.881
.406
2.679
.406
3.597
.406
2.848
.406
2.862
.407
5.326
.406
2.943
.406
2.283
.406
2.088
.406
2.018
.406
2.516
.407
2.107
.406
1.245
.406
1.528
.406
3.358
.406
1.409
.407
-1.239
.406
1.811
.406
.736
.406
-.692
.406
.629
.406
1.182
.407
-.195
.406
.956
.406
.811
.406
.541
.406
2.748
.407
.566
h.406
l.406
-1.39
.406
-2.572
.406
-2.786
.406
-1.188
.407
-1.786
.406
-2.654
.406
-1.465
.406
-1.314
.406
-2.164
.406
-1.761
.407
-2.421
.406
-1.76
.406
-.994
.406
-1.597
.406
-.849
.407
-.415
.406
2.113
.406
.748
.406
1.207
.406
.296
.406
.113
.407
-.075
.406
-.397
.406
.441
.406
1.547
.406
.239
.407
.54
.406
1.283
.406
.459
.406
-.849
.406
.787
.406
.251
.407
-.528
.406
.484
.406
.648
.406
-.761
.406
-.786
.406
.824
.407
-.239
.406
.943
.406
.038
.406
-1.862
.406
-.333
.407
-1.302
h.406
l.406
-.339
.406
-.642
.406
-1.232
.406
-.195
.407
-.711
.406
-.579
.406
1.321
.406
-1.138
.406
-1.459
.407
.465
.406
-1.151
.406
.007
.406
.503
.406
1.547
.406
.289
.407
.604
.406
-.378
.406
-3.131
.406
-.157
.406
-1.101
.406
.786
.407
.006
.406
.22
.406
-1.018
.406
1.32
.406
1.17
.407
.145
.406
1.069
.406
-1.422
.406
-2.364
.406
.101
.406
-1.296
.407
.208
.406
.283
.406
-1.101
.406
-1.094
.406
1.144
.407
-.383
.406
-1.113
.406
1.39
.406
-2.246
.406
-.433
.406
-.73
.407
-1.119
.406
-.799
.406
.252
.406
1.371
.406
-.208
.406
.855
.407
-2.132
.406
-2.163
.406
-.761
.406
.271
.406
-2.447
.407
.032
.406
.182
.406
.164
.406
.446
.406
1.572
.406
-.452
.407
1.119
.406
-.862
.406
-.622
.406
2.981
.406
1.521
.407
-.037
.406
1.553
.406
-.352
.406
-.352
.406
2.572
.406
-.145
.407
-2.408
.406
1.213
.406
.61
.406
-1.025
.406
.925
.406
.999
.407
.642
.406
2.553
.406
2.107
.406
.836
.406
.661
.407
-.051
.406
-.371
.406
.466
.406
-1.126
.406
.522
.406
.126
.407
.836
.406
.635
.406
1.195
.406
.623
.406
-1.529
.407
.233
.406
.535
h.406
l.406
2.226
.406
.434
.406
-.529
.407
-.232
.406
1.855
.406
.126
.406
.742
.406
.629
.406
.176
.407
.163
.406
-.371
.406
-.918
.406
-.05
.406
-.145
.407
-.163
.406
1.238
.406
-.622
.406
-2.522
.406
.434
.406
-.585
.407
.308
.406
-.188
.406
-.874
.406
-.529
.406
.73
.407
.666
.406
-.729
.406
-.541
.406
-.56
.406
-1.521
.406
-.422
.407
-1.364
.406
-.981
.406
-.881
.406
-1.987
.406
-1.534
.406
-1.107
.407
-1.623
.406
-.566
.406
-.132
.406
-2.239
.406
-.603
.407
-.063
.406
-.748
.406
.27
.406
2.044
.406
-1.673
.406
-2.453
.407
-2.257
.406
-3.497
.406
-2.515
.406
-.598
.406
-3.112
.407
-3.755
.406
-1.459
.406
-1.22
.406
-1.66
.406
-1.239
.406
-.748
.407
-1.975
.406
.692
.406
1.534
.406
.239
.406
1.591
.406
1.114
.407
.974
.406
1.359
.406
-.818
.406
-.792
.406
1.144
.407
-.195
.406
-.434
.406
.629
.406
.019
.406
-.339
.406
4.842
.407
3.899
.406
3.572
.406
3.685
.406
3.163
.406
1.22
.407
3.597
.406
3.629
.406
1.823
.406
1.327
.406
2.264
.406
.899
.407
1.95
.406
2.176
.406
1.22
.406
-.529
.406
.761
.406
-.289
.407
.283
.406
.522
.406
.874
.406
1.063
.406
2.151
.407
1.911
.406
1.051
.406
1.314
.406
.151
.406
.277
.406
-.095
.407
-.44
.406
-.566
.406
-.057
.406
-.232
.406
-.057
.407
-.289
.406
-1.679
.406
-1.327
.406
-2.616
.406
-.05
.406
-.598
.407
.39
.406
.484
.406
-.207
.406
-.635
.406
.075
.406
-.503
.407
-2.905
.406
-.629
.406
.465
.406
-1.641
.406
-.233
.407
.05
.406
-.742
.406
-.283
.406
-.163
.406
-.302
.406
-1.006
.407
-1.176
.406
-2.264
.406
.283
.406
.251
.406
.139
.406
-.346
.407
1.302
.406
1.886
.406
1.239
.406
3.138
.406
.201
.407
.592
.406
1.025
h.406
l.406
1.358
.406
.88
.406
.315
.407
1.264
.406
3.779
.406
-.176
.406
-.434
.406
1.371
.407
-.629
.406
.29
.406
1.113
.406
.069
.406
.371
.406
1.333
.407
1.384
.406
1.786
.406
2.723
.406
-.919
.406
-.195
.406
1.277
.407
.962
h.406
l.406
-.232
.406
.333
.406
-1.113
.407
.49
.406
-.742
.406
-1.924
.406
-.893
.406
-2.453
.406
-1.062
.407
.339
.406
.12
.406
-.233
.406
.736
.406
.603
.407
.598
.406
.566
.406
-1.164
.406
-1.119
.406
.547
.406
-.912
.407
.252
.406
.358
.406
-1.018
.406
-.195
.406
1.15
.406
.095
.407
-1.195
.406
-.943
.406
-.793
.406
.315
.406
-.126
.407
.283
.406
-.421
.406
.742
.406
1.106
.406
.887
.406
1.748
.407
.032
.406
-.786
.406
.503
.406
.1
.406
.158
.407
.295
.406
-.239
.406
.855
.406
1.315
.406
.754
.406
.428
.407
1.528
.406
-.119
.406
-.29
.406
1.208
.406
.471
.406
-.138
.407
-.742
.406
.352
.406
-.371
.406
.937
.406
-.094
.407
.534
.406
.459
.406
.271
.406
.736
.406
.981
.406
-.176
.407
.345
.406
1.202
.406
.327
.406
-1.013
.406
.271
.407
-.359
.406
-.05
.406
-.503
.406
-.334
.406
-.106
.406
.471
.407
-.71
.406
-.749
.406
-.365
.406
-.999
.406
-.032
.406
-.924
h.407
l.406
1.031
.406
.522
.406
.893
.406
-.025
.407
.075
.406
-.245
.406
-.566
.406
-.277
.406
-2.402
.406
-1.302
.407
-.276
.406
-.918
.406
-.478
.406
.496
.406
-.547
.407
-1.528
.406
.472
.406
-1.308
.406
.421
.406
.509
.406
-.93
.407
-.29
.406
.158
.406
.264
.406
-.516
.406
1.145
.406
-.591
.407
.427
.406
-.082
.406
.063
.406
-.302
.406
.026
.407
-.371
.406
-.654
.406
-.126
.406
-.403
.406
.145
.406
1.66
.407
.459
.406
.088
.406
.283
.406
-.371
.406
.088
.407
1.648
.406
.868
.406
-.076
.406
1.032
.406
-.246
.406
-1.012
.407
-1.044
.406
-2.239
.406
-1.195
.406
-.471
.406
.314
.406
-.044
.407
-.012
.406
-.592
.406
.283
.406
.095
.406
-1.227
.407
-1.05
.406
.113
.406
-.138
.406
-.277
.406
.755
.406
-.201
.407
-.648
.406
-.685
.406
.094
.406
.22
.406
.855
.407
.038
.406
-.34
.406
1.164
.406
-.793
.406
.315
.406
.094
.407
-.113
.406
1
.406
1.025
.406
.22
.406
-.214
.406
-.05
.407
-1.365
h.406
l.406
.453
.406
-1.063
.406
-.471
.407
.735
.406
-.182
.406
-.075
.406
.584
.406
-.44
.406
.088
.407
-.912
.406
.692
.406
.132
.406
-.377
.406
.327
.407
-.05
.406
-.202
.406
-1.798
.406
-2.34
.406
.365
.406
-1.509
.407
-.038
.406
.113
.406
-1.188
.406
.157
.406
.333
.406
-.346
.407
.239
.406
.919
.406
-.177
.406
-.295
.406
.748
.407
-.289
.406
.314
.406
.705
.406
-1.189
.406
-.522
.406
.862
.407
.27
.406
1.138
.406
.088
.406
1.063
.406
1.12
.407
.358
.406
-.295
.406
.773
.406
2.05
.406
1.535
.406
.578
.407
1.371
.406
-.163
.406
.968
.406
1.365
.406
1.207
.406
-.069
.407
1.006
.406
-.321
.406
.95
.406
.704
.406
-.465
.407
.346
.406
.408
.406
.724
.406
.673
.406
.811
.406
.824
.407
.195
.406
.729
.406
.352
.406
.837
.406
.314
.407
.195
.406
-.56
.406
-.063
.406
-.66
.406
.428
.406
.478
.407
.603
.406
.673
.406
1.484
.406
-.32
.406
.553
.406
-.101
.407
1.497
.406
.069
.406
.843
.406
-.585
.406
.409
.407
1.522
.406
.591
.406
.163
.406
-.49
.406
.094
.406
.811
.407
.258
.406
.378
.406
-.139
.406
.679
.406
.158
.407
.377
.406
-.182
.406
1.27
.406
1.044
.406
1.207
.406
.12
.407
.603
.406
.478
.406
.202
.406
.094
.406
1.107
.406
.553
.407
.39
.406
.157
.406
.403
.406
.704
.406
.692
.407
-.101
.406
.044
.406
.208
.406
.125
.406
.73
.406
.516
.407
.32
.406
.176
.406
.038
.406
.315
.406
.132
.407
.05
.406
.27
.406
.453
.406
-.352
.406
-.019
.406
-.182
.407
-.271
.406
-.566
.406
-.32
.406
-.258
.406
-.378
.406
-.05
.407
-.176
.406
-.088
.406
-.113
.406
-.554
.406
-.805
.407
-.037
.406
-.365
.406
.189
.406
.006
.406
.717
.406
-.302
.407
-.824
.406
.113
.406
-.44
.406
-.22
.406
-.233
.407
-.239
.406
-.025
.406
-.201
.406
-.151
.406
-.201
.406
-.189
.407
-.409
.406
.007
.406
.61
.406
-.258
.406
.088
.406
.258
.407
.138
.406
.195
.406
.403
.406
-.07
.406
.365
.407
.629
.406
.094
.406
.579
.406
.107
.406
.056
.406
-.012
.407
.44
.406
.572
.406
-.037
.406
.578
.406
-.182
.407
-.202
.406
-.012
.406
-.302
.406
-.34
.406
-.194
.406
.377
.407
.088
.406
.113
.406
.113
.406
-.17
.406
.214
.406
-.503
.407
.113
.406
-.125
.406
-.132
.406
-.548
.406
.07
.407
-.365
.406
-.403
.406
.063
.406
-.981
.406
-.541
.406
-.069
.407
-.509
h.406
l.406
-.006
.406
.239
.406
-.038
.407
.641
.406
.365
.406
-.057
.406
.151
.406
.107
.406
.057
.407
-.78
.406
.126
.406
.163
.406
.315
.406
-.245
.406
.031
.407
-.006
.406
-.051
.406
-.251
.406
-.252
.406
.239
.407
.145
.406
.283
.406
.094
.406
.315
.406
.83
.406
.314
.407
-.339
.406
.32
.406
-.195
.406
.239
.406
-.717
.406
-.515
.407
-.264
.406
-.12
.406
-.478
.406
-.063
.406
.271
.407
.421
.406
.761
.406
.157
.406
-.251
.406
-.214
.406
.402
.407
.346
.406
.308
.406
.132
.406
-.113
.406
.277
.407
.327
.406
.119
.406
.636
.406
.371
.406
-.038
.406
.182
.407
.076
.406
.484
.406
.283
.406
.239
.406
.138
.406
.415
.407
.164
.406
.396
.406
-.164
.406
-.031
.406
-.937
.407
-.673
.406
-.075
.406
.037
.406
-.157
.406
.447
.406
.157
.407
-.239
.406
-.478
.406
-.189
.406
-.308
.406
.277
.407
.402
.406
-.012
.406
-.698
.406
-.315
.406
-.138
.406
-.277
.407
-.157
.406
-.245
.406
-.29
.406
-.679
.406
.145
.406
.101
.407
.125
.406
.434
.406
.082
.406
-.371
.406
.654
.407
.711
.406
.301
.406
.277
.406
.271
.406
.345
.406
.195
.407
.076
.406
.239
.406
.591
.406
.302
.406
.144
.407
.007
.406
-.069
.406
.289
.406
.748
.406
.308
.406
.246
.407
.352
.406
.025
.406
.138
.406
-.698
.406
-.346
.406
-.635
.407
-.126
.406
.221
.406
-.145
.406
-.434
.406
.553
.407
-.125
.406
-.353
.406
-.062
.406
-.447
.406
-.748
.406
-.321
.407
-.138
.406
-.189
.406
-.013
.406
-.496
.406
-.139
.407
-.025
.406
.132
.406
-.534
.406
-.547
.406
-.774
.406
-.22
.407
.006
.406
-.038
.406
.101
.406
.176
.406
.969
.406
1.119
.407
.491
.406
.144
.406
-.314
.406
.1
.406
-.107
.407
.202
.406
.201
.406
.761
.406
.61
.406
-.019
.406
.365
.407
-.145
.406
-.063
.406
.239
h.406
l.406
.289
.407
.202
.406
.188
.406
-.125
.406
.144
.406
.063
.406
.774
.407
-.088
.406
-.214
.406
-.157
.406
.075
.406
.075
.406
.164
.407
.057
.406
-.095
.406
.032
.406
.044
.406
.012
.407
.56
.406
-.069
.406
.031
.406
-.05
.406
-.151
.406
.057
.407
.339
.406
.327
.406
.264
.406
-.012
.406
.006
.407
-.358
.406
.377
.406
-.233
.406
-.056
.406
.383
.406
.17
.407
-.277
.406
-.069
.406
-.283
.406
-.302
.406
-.226
.406
-.371
.407
-.082
.406
-.189
.406
.12
.406
-.145
.406
.227
.407
.327
.406
-.044
.406
-.032
.406
-.019
.406
.189
.406
.17
.407
.056
.406
-.062
.406
-.283
.406
-.12
.406
-.044
.407
.038
.406
.364
.406
-.062
.406
.169
.406
-.257
.406
-.057
.407
.05
.406
-.006
.406
.365
.406
.364
.406
.252
.406
.075
.407
.566
.406
-.402
.406
-.069
.406
.012
.406
-.031
.407
-.478
.406
-.195
.406
-.239
.406
.019
.406
.031
.406
-.427
.407
.17
.406
.352
.406
-.302
.406
-.239
.406
-.208
.407
.12
.406
.126
.406
.239
.406
-.076
h.406
l.406
.327
.407
-.434
.406
-.1
.406
.025
.406
-.139
.406
-.503
.406
-.283
.407
.176
.406
-.308
.406
.378
.406
.069
.406
.082
.407
-.089
.406
.321
.406
-.113
.406
-.138
.406
-1.063
.406
-.403
.407
.082
.406
-.805
.406
-.685
.406
.119
.406
-.22
.407
.296
.406
-.453
.406
-.164
.406
-.478
h.406
l.406
-.421
.407
-.063
.406
.233
.406
-.101
.406
-.094
.406
-.409
.406
.007
.407
.377
.406
-.032
.406
-.39
.406
-.276
.406
-.227
.407
-.478
.406
-.113
.406
-.195
.406
.025
.406
-.238
.406
.974
.407
.208
.406
-.201
.406
.327
.406
-.195
.406
-.233
.407
.786
.406
-.239
.406
.245
.406
.076
.406
-.491
.406
-.201
.407
.214
.406
-.05
.406
-.34
.406
.251
.406
.271
.406
.396
.407
.572
.406
-.383
.406
-.176
.406
.383
.406
.334
.407
.333
.406
.415
.406
-.315
.406
-.056
.406
-.308
.406
.069
.407
-1.038
.406
-.899
.406
-.541
.406
-.333
.406
-.258
.407
-.799
.406
-.333
.406
-.975
.406
-.685
.406
-.547
.406
-.082
.407
-.39
.406
-.893
.406
-.251
.406
-.698
.406
-.403
.406
-.484
.407
-.44
.406
-.139
.406
-.239
.406
-.836
.406
-.145
.407
-.484
.406
-1.723
.406
-.402
.406
-.189
.406
-.428
.406
-.314
.407
.151
.406
.113
.406
.352
.406
.604
.406
.295
.407
.617
.406
.905
.406
-.119
.406
1.157
.406
.773
.406
.158
.407
.685
.406
.057
.406
.509
.406
.34
.406
.786
.406
.352
.407
.333
.406
.17
.406
-.239
.406
.579
.406
1.031
.407
-.076
.406
.07
.406
1.238
.406
-.188
.406
-.025
.406
.471
.407
.44
.406
.189
.406
.403
.406
.547
.406
.364
.407
.076
.406
.113
.406
.264
.406
.164
.406
-.434
.406
-.157
.407
-.12
.406
.182
.406
-.163
.406
.635
.406
-.201
.406
.314
.407
.051
.406
.063
.406
-.045
.406
.221
.406
-.057
.407
-.082
.406
.447
.406
.484
.406
.591
.406
.711
.406
.905
.407
.409
.406
.478
.406
.252
.406
.792
.406
.352
.407
.22
.406
.459
.406
.409
.406
.176
.406
-.308
.406
.17
.407
-.069
.406
.251
.406
-.094
.406
.704
.406
-.371
.406
.006
.407
.088
.406
.007
.406
-.101
.406
.308
.406
.076
.407
.195
.406
-.044
.406
-.019
.406
-.126
.406
-.094
.406
-.026
h.407
l.406
-.257
.406
-.246
.406
-.119
.406
-.145
.407
-.126
.406
-.144
.406
-.063
.406
-.252
.406
-.333
.406
-.094
.407
-.019
.406
-.226
.406
-.743
.406
-.27
.406
.057
.406
.163
.407
-.648
.406
-.012
.406
.207" aria-label="line"/>
</svg>
