<?xml version="1.0"?>
<svg xmlns="http://www.w3.org/2000/svg" xmlns:xlink="http://www.w3.org/1999/xlink" class="plot-d6a7b5" fill="currentColor" font-family="system-ui, sans-serif" font-size="10" text-anchor="middle" width="830" height="470" viewBox="0 0 830 470" color="#1e90ff">
  <style>:where(.plot-d6a7b5){--plot-background: white;display:block;height:intrinsic;max-width:100%}:where(.plot-d6a7b5 text),:where(.plot-d6a7b5 tspan){white-space:pre}</style>
  <g aria-label="y-grid" stroke="currentColor" stroke-opacity=".1">
    <line x1="60" x2="770" y1="410" y2="410"/>
    <line x1="60" x2="770" y1="384.715" y2="384.715"/>
    <line x1="60" x2="770" y1="359.429" y2="359.429"/>
    <line x1="60" x2="770" y1="334.144" y2="334.144"/>
    <line x1="60" x2="770" y1="308.858" y2="308.858"/>
    <line x1="60" x2="770" y1="283.573" y2="283.573"/>
    <line x1="60" x2="770" y1="258.287" y2="258.287"/>
    <line x1="60" x2="770" y1="233.002" y2="233.002"/>
    <line x1="60" x2="770" y1="207.717" y2="207.717"/>
    <line x1="60" x2="770" y1="182.431" y2="182.431"/>
    <line x1="60" x2="770" y1="157.146" y2="157.146"/>
    <line x1="60" x2="770" y1="131.86" y2="131.86"/>
    <line x1="60" x2="770" y1="106.575" y2="106.575"/>
    <line x1="60" x2="770" y1="81.289" y2="81.289"/>
  </g>
  <g aria-label="y-axis tick" fill="none" stroke="currentColor">
    <path transform="translate(60,410)" d="M0,0L-6,0"/>
    <path transform="translate(60,384.71456354446906)" d="M0,0L-6,0"/>
    <path transform="translate(60,359.4291270889383)" d="M0,0L-6,0"/>
    <path transform="translate(60,334.1436906334074)" d="M0,0L-6,0"/>
    <path transform="translate(60,308.8582541778766)" d="M0,0L-6,0"/>
    <path transform="translate(60,283.57281772234563)" d="M0,0L-6,0"/>
    <path transform="translate(60,258.28738126681486)" d="M0,0L-6,0"/>
    <path transform="translate(60,233.00194481128395)" d="M0,0L-6,0"/>
    <path transform="translate(60,207.71650835575306)" d="M0,0L-6,0"/>
    <path transform="translate(60,182.43107190022224)" d="M0,0L-6,0"/>
    <path transform="translate(60,157.14563544469135)" d="M0,0L-6,0"/>
    <path transform="translate(60,131.8601989891605)" d="M0,0L-6,0"/>
    <path transform="translate(60,106.57476253362965)" d="M0,0L-6,0"/>
    <path transform="translate(60,81.28932607809877)" d="M0,0L-6,0"/>
  </g>
  <g aria-label="y-axis tick label" text-anchor="end" font-variant="tabular-nums">
    <text y=".32em" transform="translate(-9,0) translate(60,410)">0</text>
    <text y=".32em" transform="translate(-9,0) translate(60,384.71456354446906)">50,000</text>
    <text y=".32em" transform="translate(-9,0) translate(60,359.4291270889383)">100,000</text>
    <text y=".32em" transform="translate(-9,0) translate(60,334.1436906334074)">150,000</text>
    <text y=".32em" transform="translate(-9,0) translate(60,308.8582541778766)">200,000</text>
    <text y=".32em" transform="translate(-9,0) translate(60,283.57281772234563)">250,000</text>
    <text y=".32em" transform="translate(-9,0) translate(60,258.28738126681486)">300,000</text>
    <text y=".32em" transform="translate(-9,0) translate(60,233.00194481128395)">350,000</text>
    <text y=".32em" transform="translate(-9,0) translate(60,207.71650835575306)">400,000</text>
    <text y=".32em" transform="translate(-9,0) translate(60,182.43107190022224)">450,000</text>
    <text y=".32em" transform="translate(-9,0) translate(60,157.14563544469135)">500,000</text>
    <text y=".32em" transform="translate(-9,0) translate(60,131.8601989891605)">550,000</text>
    <text y=".32em" transform="translate(-9,0) translate(60,106.57476253362965)">600,000</text>
    <text y=".32em" transform="translate(-9,0) translate(60,81.28932607809877)">650,000</text>
  </g>
  <g aria-label="y-axis label" text-anchor="start">
    <text y=".71em" transform="translate(-57,-57) translate(60,60)">&#x2191; Total Vestiges</text>
  </g>
  <g aria-label="x-axis tick" fill="none" stroke="currentColor">
    <path transform="translate(86.06911447084234,410)" d="M0,0L0,6"/>
    <path transform="translate(155.8423326133909,410)" d="M0,0L0,6"/>
    <path transform="translate(226.38228941684662,410)" d="M0,0L0,6"/>
    <path transform="translate(296.9222462203024,410)" d="M0,0L0,6"/>
    <path transform="translate(366.695464362851,410)" d="M0,0L0,6"/>
    <path transform="translate(436.4686825053995,410)" d="M0,0L0,6"/>
    <path transform="translate(507.00863930885527,410)" d="M0,0L0,6"/>
    <path transform="translate(577.548596112311,410)" d="M0,0L0,6"/>
    <path transform="translate(646.5550755939524,410)" d="M0,0L0,6"/>
    <path transform="translate(716.328293736501,410)" d="M0,0L0,6"/>
  </g>
  <g aria-label="x-axis tick label" font-variant="tabular-nums">
    <text transform="translate(0,9) translate(86.06911447084234,410)">
      <tspan x="0" y=".71em">Apr</tspan>
      <tspan x="0" dy="1em">2023</tspan>
    </text>
    <text y=".71em" transform="translate(0,9) translate(155.8423326133909,410)">Jul</text>
    <text y=".71em" transform="translate(0,9) translate(226.38228941684662,410)">Oct</text>
    <text transform="translate(0,9) translate(296.9222462203024,410)">
      <tspan x="0" y=".71em">Jan</tspan>
      <tspan x="0" dy="1em">2024</tspan>
    </text>
    <text y=".71em" transform="translate(0,9) translate(366.695464362851,410)">Apr</text>
    <text y=".71em" transform="translate(0,9) translate(436.4686825053995,410)">Jul</text>
    <text y=".71em" transform="translate(0,9) translate(507.00863930885527,410)">Oct</text>
    <text transform="translate(0,9) translate(577.548596112311,410)">
      <tspan x="0" y=".71em">Jan</tspan>
      <tspan x="0" dy="1em">2025</tspan>
    </text>
    <text y=".71em" transform="translate(0,9) translate(646.5550755939524,410)">Apr</text>
    <text y=".71em" transform="translate(0,9) translate(716.328293736501,410)">Jul</text>
  </g>
  <g aria-label="line" fill="none" stroke="currentColor" stroke-width="1.5" stroke-linejoin="round" stroke-linecap="round">
    <path d="M60,410L60.511,409.746L61.022,408.818L61.533,408.317L62.045,407.962L62.556,407.376L63.067,406.915L63.578,406.483L64.089,405.608L64.6,404.916L65.112,404.094L65.623,402.821L66.134,401.621L66.645,400.998L67.156,400.096L67.667,399.484L68.179,398.782L68.69,397.864L69.201,397.246L69.712,396.64L70.223,395.818L70.734,394.906L71.246,394.26L71.757,393.158L72.268,392.636L72.779,392.149L73.29,391.271L73.801,390.43L74.312,389.783L74.824,388.881L75.335,387.981L75.846,387.162L76.357,385.892L76.868,384.884L77.379,384.301L77.891,383.693L78.402,383.235L78.913,382.866L79.424,382.18L79.935,381.509L80.446,381.042L80.958,379.96L81.469,378.829L81.98,377.816L82.491,376.588L83.002,375.755L83.513,375.046L84.024,374.081L84.536,373.272L85.047,372.687L85.558,371.633L86.069,370.614L86.58,369.664L87.091,368.301L87.603,367.007L88.114,366.334L88.625,365.335L89.136,364.434L89.647,363.626L90.158,362.483L90.67,361.408L91.181,360.475L91.692,359.354L92.203,358.279L92.714,357.353L93.225,356.107L93.737,355.341L94.248,354.65L94.759,353.685L95.27,352.896L95.781,352.306L96.292,351.545L96.803,350.724L97.315,349.959L97.826,348.955L98.337,347.961L98.848,347.394L99.359,346.607L99.87,345.992L100.382,345.588L100.893,344.963L101.404,344.34L101.915,343.679L102.426,342.824L102.937,341.954L103.449,341.275L103.96,340.334L104.471,339.674L104.982,339.242L105.493,338.252L106.004,337.567L106.515,337.196L107.027,336.576L107.538,335.977L108.049,335.354L108.56,334.499L109.071,333.754L109.582,333.113L110.094,332.556L110.605,332.061L111.116,331.588L111.627,330.811L112.138,330.369L112.649,329.919L113.161,329.189L113.672,328.362L114.183,327.713L114.694,326.879L115.205,326.316L115.716,325.794L116.228,325.037L116.739,324.519L117.25,324.026L117.761,323.368L118.272,322.853L118.783,322.231L119.294,321.572L119.806,320.974L120.317,320.478L120.828,319.959L121.339,319.505L121.85,319.078L122.361,318.476L122.873,318.018L123.384,317.604L123.895,316.923L124.406,316.037L124.917,315.39L125.428,314.55L125.94,314.046L126.451,313.469L126.962,312.874L127.473,312.329L127.984,311.947L128.495,311.189L129.006,310.594L129.518,309.968L130.029,309.06L130.54,308.391L131.051,307.807L131.562,307.21L132.073,306.558L132.585,306.053L133.096,305.559L133.607,304.906L134.118,304.52L134.629,304.009L135.14,303.547L135.652,303.113L136.163,302.501L136.674,302.06L137.185,301.6L137.696,300.983L138.207,300.543L138.719,300.136L139.23,299.695L139.741,299.176L140.252,298.689L140.763,298.18L141.274,297.628L141.785,297.196L142.297,296.666L142.808,296.22L143.319,295.777L143.83,295.163L144.341,294.651L144.852,294.248L145.364,293.718L145.875,293.214L146.386,292.85L146.897,292.224L147.408,291.747L147.919,291.255L148.431,290.708L148.942,290.243L149.453,289.966L149.964,289.459L150.475,289.046L150.986,288.553L151.497,287.967L152.009,287.504L152.52,286.993L153.031,286.431L153.542,285.919L154.053,285.47L154.564,284.738L155.076,284.143L155.587,283.8L156.098,283.252L156.609,282.764L157.12,282.471L157.631,281.951L158.143,281.615L158.654,281.216L159.165,280.731L159.676,280.279L160.187,279.922L160.698,279.356L161.21,278.942L161.721,278.567L162.232,278.041L162.743,277.569L163.254,277.196L163.765,276.626L164.276,276.263L164.788,275.85L165.299,275.327L165.81,274.901L166.321,274.418L166.832,273.866L167.343,273.382L167.855,272.97L168.366,272.498L168.877,271.943L169.388,271.508L169.899,271.101L170.41,270.67L170.922,270.341L171.433,269.779L171.944,269.427L172.455,269.029L172.966,268.53L173.477,268.132L173.988,267.648L174.5,267.005L175.011,266.52L175.522,266.234L176.033,265.577L176.544,265.093L177.055,264.663L177.567,264.063L178.078,263.658L178.589,263.222L179.1,262.72L179.611,262.211L180.122,261.771L180.634,261.121L181.145,260.62L181.656,260.179L182.167,259.645L182.678,259.056L183.189,258.454L183.701,257.569L184.212,257.028L184.723,256.621L185.234,256.069L185.745,255.625L186.256,255.304L186.767,254.803L187.279,254.361L187.79,254.051L188.301,253.546L188.812,253.087L189.323,252.753L189.834,252.22L190.346,251.721L190.857,251.342L191.368,250.843L191.879,250.219L192.39,249.692L192.901,249.036L193.413,248.571L193.924,248.122L194.435,247.458L194.946,246.959L195.457,246.496L195.968,245.941L196.479,245.48L196.991,245.172L197.502,244.727L198.013,244.392L198.524,244.022L199.035,243.575L199.546,243.126L200.058,242.711L200.569,242.296L201.08,241.868L201.591,241.504L202.102,241.101L202.613,240.702L203.125,240.365L203.636,239.976L204.147,239.575L204.658,239.142L205.169,238.623L205.68,238.253L206.192,237.853L206.703,237.433L207.214,237.126L207.725,236.796L208.236,236.452L208.747,236.242L209.258,235.984L209.77,235.395L210.281,234.988L210.792,234.606L211.303,234.087L211.814,233.87L212.325,233.58L212.837,233.306L213.348,233.088L213.859,232.758L214.37,232.421L214.881,232.035L215.392,231.629L215.904,230.982L216.415,230.432L216.926,230.138L217.437,229.74L217.948,229.467L218.459,229.137L218.97,228.757L219.482,228.416L219.993,228.145L220.504,227.729L221.015,227.273L221.526,226.935L222.037,226.475L222.549,226.242L223.06,226.012L223.571,225.704L224.082,225.414L224.593,225.155L225.104,224.735L225.616,224.385L226.127,224.027L226.638,223.543L227.149,223.18L227.66,222.988L228.171,222.631L228.683,222.369L229.194,222.133L229.705,221.836L230.216,221.544L230.727,221.208L231.238,220.767L231.749,220.294L232.261,219.821L232.772,219.328L233.283,218.972L233.794,218.701L234.305,218.365L234.816,218.084L235.328,217.78L235.839,217.371L236.35,217.097L236.861,216.84L237.372,216.269L237.883,215.78L238.395,215.479L238.906,215.169L239.417,214.946L239.928,214.77L240.439,214.398L240.95,214.152L241.461,213.906L241.973,213.429L242.484,212.916L242.995,212.531L243.506,212.008L244.017,211.732L244.528,211.478L245.04,211.042L245.551,210.759L246.062,210.491L246.573,210.109L247.084,209.701L247.595,209.44L248.107,209.008L248.618,208.73L249.129,208.551L249.64,208.167L250.151,207.909L250.662,207.752L251.174,207.515L251.685,207.274L252.196,206.868L252.707,206.391L253.218,205.911L253.729,205.592L254.24,205.276L254.752,205.092L255.263,204.816L255.774,204.491L256.285,204.312L256.796,204.125L257.307,203.804L257.819,203.609L258.33,203.339L258.841,203.043L259.352,202.778L259.863,202.606L260.374,202.368L260.886,202.238L261.397,202.06L261.908,201.819L262.419,201.656L262.93,201.547L263.441,201.167L263.952,200.794L264.464,200.429L264.975,200.065L265.486,199.787L265.997,199.615L266.508,199.334L267.019,199.16L267.531,198.916L268.042,198.559L268.553,198.269L269.064,198.014L269.575,197.633L270.086,197.363L270.598,197.101L271.109,196.792L271.62,196.539L272.131,196.252L272.642,195.828L273.153,195.576L273.665,195.339L274.176,195.091L274.687,194.806L275.198,194.524L275.709,194.214L276.22,194.034L276.731,193.922L277.243,193.656L277.754,193.434L278.265,193.262L278.776,193.054L279.287,192.858L279.798,192.704L280.31,192.46L280.821,192.237L281.332,192.112L281.843,191.824L282.354,191.552L282.865,191.434L283.377,191.264L283.888,191.13L284.399,190.982L284.91,190.699L285.421,190.416L285.932,190.21L286.443,190.017L286.955,189.818L287.466,189.568L287.977,189.372L288.488,189.231L288.999,189.063L289.51,188.786L290.022,188.612L290.533,188.401L291.044,188.049L291.555,187.764L292.066,187.618L292.577,187.39L293.089,187.093L293.6,186.858L294.111,186.554L294.622,186.324L295.133,186.065L295.644,185.761L296.156,185.526L296.667,185.306L297.178,185.027L297.689,184.788L298.2,184.57L298.711,184.229L299.222,184.025L299.734,183.866L300.245,183.536L300.756,183.419L301.267,183.219L301.778,182.896L302.289,182.729L302.801,182.535L303.312,182.293L303.823,182.146L304.334,181.996L304.845,181.844L305.356,181.733L305.868,181.526L306.379,181.244L306.89,180.984L307.401,180.666L307.912,180.287L308.423,180.114L308.934,179.909L309.446,179.71L309.957,179.435L310.468,179.129L310.979,178.9L311.49,178.735L312.001,178.466L312.513,178.143L313.024,177.691L313.535,177.41L314.046,177.066L314.557,176.867L315.068,176.684L315.58,176.439L316.091,176.334L316.602,176.179L317.113,175.788L317.624,175.359L318.135,175.044L318.647,174.606L319.158,174.363L319.669,174.156L320.18,173.907L320.691,173.662L321.202,173.454L321.713,173.126L322.225,172.931L322.736,172.605L323.247,172.119L323.758,171.778L324.269,171.532L324.78,171.166L325.292,170.923L325.803,170.745L326.314,170.369L326.825,170.066L327.336,169.729L327.847,169.397L328.359,169.01L328.87,168.493L329.381,167.932L329.892,167.626L330.403,167.307L330.914,166.843L331.425,166.527L331.937,166.29L332.448,165.986L332.959,165.728L333.47,165.469L333.981,165.052L334.492,164.688L335.004,164.538L335.515,164.213L336.026,163.935L336.537,163.614L337.048,163.298L337.559,163.109L338.071,162.831L338.582,162.416L339.093,162.032L339.604,161.776L340.115,161.384L340.626,161.187L341.138,160.935L341.649,160.651L342.16,160.466L342.671,160.247L343.182,159.955L343.693,159.724L344.204,159.49L344.716,159.057L345.227,158.815L345.738,158.609L346.249,158.424L346.76,158.251L347.271,158.022L347.783,157.807L348.294,157.676L348.805,157.512L349.316,157.163L349.827,156.944L350.338,156.778L350.85,156.452L351.361,156.225L351.872,156.129L352.383,155.933L352.894,155.673L353.405,155.477L353.916,155.211L354.428,154.922L354.939,154.646L355.45,154.219L355.961,153.923L356.472,153.733L356.983,153.699L357.495,153.695L358.006,153.693L358.517,153.69L359.028,153.687L359.539,153.682L360.05,153.677L360.562,153.654L361.073,153.637L361.584,153.626L362.095,153.599L362.606,153.554L363.117,153.523L363.629,153.482L364.14,153.403L364.651,153.298L365.162,153.032L365.673,152.852L366.184,152.683L366.695,152.532L367.207,152.387L367.718,152.221L368.229,152.01L368.74,151.821L369.251,151.597L369.762,151.364L370.274,151.159L370.785,150.908L371.296,150.718L371.807,150.572L372.318,150.361L372.829,150.135L373.341,150.037L373.852,149.89L374.363,149.672L374.874,149.549L375.385,149.42L375.896,149.229L376.407,149.077L376.919,148.855L377.43,148.668L377.941,148.557L378.452,148.388L378.963,148.241L379.474,148.102L379.986,148.006L380.497,147.886L381.008,147.815L381.519,147.687L382.03,147.551L382.541,147.379L383.053,147.137L383.564,146.983L384.075,146.883L384.586,146.67L385.097,146.508L385.608,146.36L386.12,146.207L386.631,145.993L387.142,145.845L387.653,145.639L388.164,145.499L388.675,145.39L389.186,145.225L389.698,145.04L390.209,144.849L390.72,144.724L391.231,144.552L391.742,144.406L392.253,144.223L392.765,143.962L393.276,143.766L393.787,143.514L394.298,143.375L394.809,143.252L395.32,143.08L395.832,142.91L396.343,142.766L396.854,142.574L397.365,142.355L397.876,142.219L398.387,141.973L398.898,141.756L399.41,141.58L399.921,141.326L400.432,141.179L400.943,141.066L401.454,140.976L401.965,140.852L402.477,140.694L402.988,140.523L403.499,140.163L404.01,139.985L404.521,139.712L405.032,139.584L405.544,139.459L406.055,139.306L406.566,139.078L407.077,139L407.588,138.833L408.099,138.649L408.611,138.483L409.122,138.23L409.633,137.917L410.144,137.753L410.655,137.479L411.166,137.352L411.677,137.182L412.189,136.875L412.7,136.65L413.211,136.497L413.722,136.249L414.233,135.984L414.744,135.841L415.256,135.513L415.767,135.365L416.278,135.217L416.789,135.003L417.3,134.781L417.811,134.63L418.323,134.381L418.834,134.185L419.345,133.982L419.856,133.682L420.367,133.383L420.878,133.168L421.389,132.962L421.901,132.688L422.412,132.524L422.923,132.354L423.434,132.202L423.945,131.984L424.456,131.797L424.968,131.597L425.479,131.413L425.99,131.216L426.501,130.996L427.012,130.929L427.523,130.827L428.035,130.671L428.546,130.548L429.057,130.254L429.568,130.083L430.079,129.962L430.59,129.802L431.102,129.461L431.613,129.344L432.124,129.171L432.635,128.938L433.146,128.763L433.657,128.648L434.168,128.496L434.68,128.401L435.191,128.272L435.702,128.125L436.213,127.971L436.724,127.693L437.235,127.499L437.747,127.367L438.258,127.124L438.769,126.948L439.28,126.771L439.791,126.639L440.302,126.505L440.814,126.405L441.325,126.235L441.836,126.045L442.347,125.962L442.858,125.848L443.369,125.725L443.88,125.611L444.392,125.474L444.903,125.311L445.414,125.133L445.925,124.94L446.436,124.833L446.947,124.721L447.459,124.538L447.97,124.377L448.481,124.275L448.992,124.093L449.503,123.925L450.014,123.792L450.526,123.632L451.037,123.466L451.548,123.287L452.059,123.043L452.57,122.708L453.081,122.5L453.593,122.278L454.104,122.125L454.615,121.978L455.126,121.774L455.637,121.631L456.148,121.52L456.659,121.383L457.171,121.241L457.682,121.085L458.193,120.917L458.704,120.679L459.215,120.509L459.726,120.236L460.238,119.979L460.749,119.716L461.26,119.449L461.771,119.213L462.282,118.941L462.793,118.65L463.305,118.502L463.816,118.31L464.327,117.961L464.838,117.78L465.349,117.615L465.86,117.389L466.371,117.232L466.883,117.152L467.394,116.683L467.905,116.277L468.416,115.873L468.927,115.44L469.438,115.09L469.95,114.838L470.461,114.445L470.972,114.032L471.483,113.778L471.994,113.538L472.505,113.248L473.017,112.98L473.528,112.683L474.039,112.353L474.55,112.137L475.061,112.003L475.572,111.758L476.084,111.62L476.595,111.473L477.106,111.28L477.617,111.097L478.128,110.884L478.639,110.628L479.15,110.372L479.662,110.174L480.173,109.975L480.684,109.799L481.195,109.644L481.706,109.537L482.217,109.457L482.729,109.365L483.24,109.248L483.751,109.111L484.262,109.015L484.773,108.862L485.284,108.758L485.796,108.637L486.307,108.529L486.818,108.396L487.329,108.288L487.84,108.092L488.351,107.952L488.862,107.798L489.374,107.679L489.885,107.502L490.396,107.319L490.907,107.157L491.418,107.033L491.929,106.882L492.441,106.77L492.952,106.643L493.463,106.559L493.974,106.456L494.485,106.344L494.996,106.25L495.508,106.086L496.019,105.953L496.53,105.838L497.041,105.723L497.552,105.586L498.063,105.464L498.575,105.308L499.086,105.208L499.597,105.031L500.108,104.793L500.619,104.565L501.13,104.247L501.641,104.109L502.153,103.953L502.664,103.789L503.175,103.688L503.686,103.517L504.197,103.347L504.708,103.176L505.22,102.953L505.731,102.557L506.242,102.383L506.753,102.269L507.264,102.025L507.775,101.879L508.287,101.799L508.798,101.637L509.309,101.501L509.82,101.395L510.331,101.207L510.842,100.993L511.353,100.783L511.865,100.486L512.376,100.371L512.887,100.27L513.398,100.125L513.909,99.998L514.42,99.925L514.932,99.838L515.443,99.71L515.954,99.645L516.465,99.523L516.976,99.414L517.487,99.333L517.999,99.231L518.51,99.17L519.021,99.071L519.532,98.925L520.043,98.804L520.554,98.712L521.066,98.523L521.577,98.375L522.088,98.241L522.599,98.044L523.11,97.988L523.621,97.915L524.132,97.785L524.644,97.708L525.155,97.627L525.666,97.525L526.177,97.459L526.688,97.38L527.199,97.192L527.711,97.075L528.222,97.033L528.733,96.982L529.244,96.91L529.755,96.804L530.266,96.703L530.778,96.548L531.289,96.466L531.8,96.298L532.311,96.062L532.822,95.888L533.333,95.629L533.844,95.445L534.356,95.327L534.867,95.215L535.378,95.104L535.889,94.975L536.4,94.875L536.911,94.789L537.423,94.638L537.934,94.488L538.445,94.325L538.956,94.239L539.467,94.089L539.978,94.028L540.49,93.954L541.001,93.807L541.512,93.713L542.023,93.616L542.534,93.507L543.045,93.369L543.557,93.243L544.068,93.107L544.579,93.026L545.09,92.915L545.601,92.783L546.112,92.667L546.623,92.558L547.135,92.411L547.646,92.309L548.157,92.19L548.668,92.008L549.179,91.827L549.69,91.755L550.202,91.653L550.713,91.537L551.224,91.46L551.735,91.355L552.246,91.273L552.757,91.229L553.269,91.126L553.78,91.075L554.291,91.047L554.802,90.977L555.313,90.88L555.824,90.83L556.335,90.773L556.847,90.666L557.358,90.497L557.869,90.388L558.38,90.231L558.891,90.171L559.402,90.083L559.914,90.014L560.425,89.919L560.936,89.825L561.447,89.775L561.958,89.707L562.469,89.591L562.981,89.5L563.492,89.415L564.003,89.26L564.514,89.107L565.025,89.026L565.536,88.881L566.048,88.8L566.559,88.654L567.07,88.545L567.581,88.493L568.092,88.428L568.603,88.32L569.114,88.232L569.626,88.133L570.137,87.955L570.648,87.902L571.159,87.772L571.67,87.664L572.181,87.578L572.693,87.511L573.204,87.426L573.715,87.363L574.226,87.281L574.737,87.193L575.248,87.052L575.76,86.936L576.271,86.693L576.782,86.52L577.293,86.382L577.804,86.217L578.315,86.094L578.826,85.979L579.338,85.782L579.849,85.578L580.36,85.471L580.871,85.285L581.382,85.173L581.893,85.105L582.405,84.977L582.916,84.89L583.427,84.794L583.938,84.728L584.449,84.587L584.96,84.501L585.472,84.4L585.983,84.304L586.494,84.191L587.005,84.11L587.516,84.018L588.027,83.935L588.539,83.843L589.05,83.708L589.561,83.61L590.072,83.437L590.583,83.332L591.094,83.223L591.605,83.087L592.117,82.955L592.628,82.814L593.139,82.66L593.65,82.552L594.161,82.487L594.672,82.354L595.184,82.24L595.695,82.137L596.206,82.006L596.717,81.856L597.228,81.645L597.739,81.377L598.251,81.185L598.762,81.081L599.273,80.965L599.784,80.876L600.295,80.775L600.806,80.631L601.317,80.54L601.829,80.467L602.34,80.276L602.851,80.109L603.362,80.026L603.873,79.88L604.384,79.759L604.896,79.647L605.407,79.526L605.918,79.365L606.429,79.173L606.94,79.05L607.451,78.926L607.963,78.841L608.474,78.736L608.985,78.644L609.496,78.604L610.007,78.427L610.518,78.349L611.03,78.225L611.541,78.066L612.052,77.935L612.563,77.75L613.074,77.576L613.585,77.455L614.096,77.335L614.608,77.136L615.119,77.034L615.63,76.927L616.141,76.751L616.652,76.639L617.163,76.508L617.675,76.326L618.186,76.237L618.697,76.138L619.208,75.982L619.719,75.877L620.23,75.683L620.742,75.577L621.253,75.396L621.764,75.242L622.275,75.144L622.786,75.055L623.297,74.935L623.808,74.698L624.32,74.47L624.831,74.322L625.342,74.123L625.853,73.996L626.364,73.846L626.875,73.62L627.387,73.447L627.898,73.3L628.409,73.15L628.92,73.05L629.431,72.925L629.942,72.809L630.454,72.678L630.965,72.562L631.476,72.427L631.987,72.321L632.498,72.196L633.009,72.011L633.521,71.871L634.032,71.784L634.543,71.7L635.054,71.597L635.565,71.499L636.076,71.404L636.587,71.34L637.099,71.271L637.61,71.158L638.121,71.099L638.632,71.027L639.143,70.923L639.654,70.821L640.166,70.733L640.677,70.593L641.188,70.521L641.699,70.404L642.21,70.329L642.721,70.175L643.233,70.107L643.744,69.981L644.255,69.932L644.766,69.873L645.277,69.705L645.788,69.616L646.299,69.514L646.811,69.466L647.322,69.396L647.833,69.276L648.344,69.201L648.855,69.13L649.366,69.105L649.878,69.031L650.389,69L650.9,68.93L651.411,68.881L651.922,68.767L652.433,68.65L652.945,68.538L653.456,68.5L653.967,68.434L654.478,68.381L654.989,68.347L655.5,68.326L656.012,68.228L656.523,68.156L657.034,68.073L657.545,68.04L658.056,67.977L658.567,67.918L659.078,67.823L659.59,67.797L660.101,67.75L660.612,67.71L661.123,67.621L661.634,67.534L662.145,67.47L662.657,67.416L663.168,67.362L663.679,67.321L664.19,67.285L664.701,67.266L665.212,67.247L665.724,67.207L666.235,67.144L666.746,67.133L667.257,67.099L667.768,67.084L668.279,67.056L668.79,67.038L669.302,67.024L669.813,67.006L670.324,66.992L670.835,66.984L671.346,66.956L671.857,66.904L672.369,66.884L672.88,66.853L673.391,66.851L673.902,66.811L674.413,66.777L674.924,66.735L675.436,66.71L675.947,66.632L676.458,66.603L676.969,66.581L677.48,66.552L677.991,66.513L678.503,66.475L679.014,66.464L679.525,66.455L680.036,66.441L680.547,66.423L681.058,66.396L681.569,66.356L682.081,66.321L682.592,66.292L683.103,66.242L683.614,66.179L684.125,66.138L684.636,66.099L685.148,66.056L685.659,66.043L686.17,66.001L686.681,65.942L687.192,65.913L687.703,65.838L688.215,65.771L688.726,65.728L689.237,65.664L689.748,65.637L690.259,65.613L690.77,65.593L691.281,65.54L691.793,65.452L692.304,65.432L692.815,65.357L693.326,65.301L693.837,65.272L694.348,65.244L694.86,65.227L695.371,65.193L695.882,65.154L696.393,65.098L696.904,65.047L697.415,64.985L697.927,64.936L698.438,64.922L698.949,64.861L699.46,64.829L699.971,64.806L700.482,64.805L700.994,64.778L701.505,64.752L702.016,64.717L702.527,64.671L703.038,64.655L703.549,64.62L704.06,64.602L704.572,64.584L705.083,64.565L705.594,64.543L706.105,64.525L706.616,64.483L707.127,64.46L707.639,64.432L708.15,64.362L708.661,64.316L709.172,64.287L709.683,64.246L710.194,64.185L710.706,64.13L711.217,64.104L711.728,64.061L712.239,64.008L712.75,63.968L713.261,63.94L713.772,63.896L714.284,63.824L714.795,63.81L715.306,63.798L715.817,63.761L716.328,63.691L716.839,63.661L717.351,63.586L717.862,63.538L718.373,63.508L718.884,63.412L719.395,63.349L719.906,63.325L720.418,63.262L720.929,63.244L721.44,63.202L721.951,63.198L722.462,63.167L722.973,63.148L723.485,63.132L723.996,63.098L724.507,63.069L725.018,63.017L725.529,62.966L726.04,62.878L726.551,62.845L727.063,62.805L727.574,62.79L728.085,62.742L728.596,62.701L729.107,62.628L729.618,62.61L730.13,62.579L730.641,62.521L731.152,62.47L731.663,62.452L732.174,62.4L732.685,62.359L733.197,62.354L733.708,62.325L734.219,62.288L734.73,62.236L735.241,62.199L735.752,62.165L736.263,62.142L736.775,62.081L737.286,62.008L737.797,61.968L738.308,61.942L738.819,61.87L739.33,61.836L739.842,61.805L740.353,61.789L740.864,61.762L741.375,61.741L741.886,61.681L742.397,61.649L742.909,61.634L743.42,61.62L743.931,61.572L744.442,61.565L744.953,61.524L745.464,61.489L745.976,61.464L746.487,61.456L746.998,61.455L747.509,61.444L748.02,61.436L748.531,61.421L749.042,61.39L749.554,61.377L750.065,61.363L750.576,61.349L751.087,61.337L751.598,61.309L752.109,61.249L752.621,61.241L753.132,61.202L753.643,61.127L754.154,61.018L754.665,60.933L755.176,60.911L755.688,60.887L756.199,60.853L756.71,60.829L757.221,60.81L757.732,60.775L758.243,60.723L758.754,60.66L759.266,60.628L759.777,60.609L760.288,60.607L760.799,60.581L761.31,60.516L761.821,60.49L762.333,60.468L762.844,60.437L763.355,60.41L763.866,60.36L764.377,60.323L764.888,60.254L765.4,60.252L765.911,60.248L766.422,60.23L766.933,60.205L767.444,60.204L767.955,60.135L768.467,60.113L768.978,60.061L769.489,60L770,60"/>
  </g>
</svg>
