<svg class="plot-d6a7b5" fill="currentColor" font-family="system-ui, sans-serif" font-size="10" text-anchor="middle" width="830" height="470" viewBox="0 0 830 470" xmlns="http://www.w3.org/2000/svg" xmlns:xlink="http://www.w3.org/1999/xlink" color="dodgerblue"><style>:where(.plot-d6a7b5){--plot-background: white;display:block;height:intrinsic;max-width:100%}:where(.plot-d6a7b5 text),:where(.plot-d6a7b5 tspan){white-space:pre}</style><g aria-label="y-grid" stroke="currentColor" stroke-opacity=".1"><line x1="60" x2="770" y1="410" y2="410"/><line x1="60" x2="770" y1="378.557" y2="378.557"/><line x1="60" x2="770" y1="347.114" y2="347.114"/><line x1="60" x2="770" y1="315.671" y2="315.671"/><line x1="60" x2="770" y1="284.227" y2="284.227"/><line x1="60" x2="770" y1="252.784" y2="252.784"/><line x1="60" x2="770" y1="221.341" y2="221.341"/><line x1="60" x2="770" y1="189.898" y2="189.898"/><line x1="60" x2="770" y1="158.455" y2="158.455"/><line x1="60" x2="770" y1="127.012" y2="127.012"/><line x1="60" x2="770" y1="95.568" y2="95.568"/><line x1="60" x2="770" y1="64.125" y2="64.125"/></g><g aria-label="y-axis tick" fill="none" stroke="currentColor"><path transform="translate(60,410)" d="M0,0L-6,0"/><path transform="translate(60,378.55684921661634)" d="M0,0L-6,0"/><path transform="translate(60,347.11369843323274)" d="M0,0L-6,0"/><path transform="translate(60,315.6705476498491)" d="M0,0L-6,0"/><path transform="translate(60,284.2273968664655)" d="M0,0L-6,0"/><path transform="translate(60,252.7842460830818)" d="M0,0L-6,0"/><path transform="translate(60,221.34109529969817)" d="M0,0L-6,0"/><path transform="translate(60,189.8979445163145)" d="M0,0L-6,0"/><path transform="translate(60,158.45479373293085)" d="M0,0L-6,0"/><path transform="translate(60,127.01164294954722)" d="M0,0L-6,0"/><path transform="translate(60,95.56849216616357)" d="M0,0L-6,0"/><path transform="translate(60,64.12534138277994)" d="M0,0L-6,0"/></g><g aria-label="y-axis tick label" text-anchor="end" font-variant="tabular-nums"><text y=".32em" transform="translate(-9,0) translate(60,410)">0</text><text y=".32em" transform="translate(-9,0) translate(60,378.55684921661634)">5,000</text><text y=".32em" transform="translate(-9,0) translate(60,347.11369843323274)">10,000</text><text y=".32em" transform="translate(-9,0) translate(60,315.6705476498491)">15,000</text><text y=".32em" transform="translate(-9,0) translate(60,284.2273968664655)">20,000</text><text y=".32em" transform="translate(-9,0) translate(60,252.7842460830818)">25,000</text><text y=".32em" transform="translate(-9,0) translate(60,221.34109529969817)">30,000</text><text y=".32em" transform="translate(-9,0) translate(60,189.8979445163145)">35,000</text><text y=".32em" transform="translate(-9,0) translate(60,158.45479373293085)">40,000</text><text y=".32em" transform="translate(-9,0) translate(60,127.01164294954722)">45,000</text><text y=".32em" transform="translate(-9,0) translate(60,95.56849216616357)">50,000</text><text y=".32em" transform="translate(-9,0) translate(60,64.12534138277994)">55,000</text></g><g aria-label="y-axis label" text-anchor="start"><text y=".71em" transform="translate(-57,-57) translate(60,60)">↑ Visible Vestiges (30 days)</text></g><g aria-label="x-axis tick" fill="none" stroke="currentColor"><path transform="translate(67.00657894736842,410)" d="M0,0L0,6"/><path transform="translate(139.4078947368421,410)" d="M0,0L0,6"/><path transform="translate(209.47368421052633,410)" d="M0,0L0,6"/><path transform="translate(281.875,410)" d="M0,0L0,6"/><path transform="translate(351.94078947368416,410)" d="M0,0L0,6"/><path transform="translate(424.3421052631579,410)" d="M0,0L0,6"/><path transform="translate(496.74342105263156,410)" d="M0,0L0,6"/><path transform="translate(566.8092105263157,410)" d="M0,0L0,6"/><path transform="translate(639.2105263157895,410)" d="M0,0L0,6"/><path transform="translate(709.2763157894738,410)" d="M0,0L0,6"/></g><g aria-label="x-axis tick label" font-variant="tabular-nums"><text transform="translate(0,9) translate(67.00657894736842,410)"><tspan x="0" y=".71em">Mar</tspan><tspan x="0" dy="1em">2023</tspan></text><text y=".71em" transform="translate(0,9) translate(139.4078947368421,410)">Apr</text><text y=".71em" transform="translate(0,9) translate(209.47368421052633,410)">May</text><text y=".71em" transform="translate(0,9) translate(281.875,410)">Jun</text><text y=".71em" transform="translate(0,9) translate(351.94078947368416,410)">Jul</text><text y=".71em" transform="translate(0,9) translate(424.3421052631579,410)">Aug</text><text y=".71em" transform="translate(0,9) translate(496.74342105263156,410)">Sep</text><text y=".71em" transform="translate(0,9) translate(566.8092105263157,410)">Oct</text><text y=".71em" transform="translate(0,9) translate(639.2105263157895,410)">Nov</text><text y=".71em" transform="translate(0,9) translate(709.2763157894738,410)">Dec</text></g><g aria-label="line" fill="none" stroke="currentColor" stroke-width="1.5" stroke-linejoin="round" stroke-linecap="round"><path d="M60,410L61.557,406.843L63.114,395.297L64.671,389.071L66.228,384.657L67.785,377.375L69.342,371.639L70.899,366.263L72.456,355.383L74.013,346.774L75.57,336.555L77.127,320.727L78.684,305.804L80.241,298.056L81.798,286.843L83.355,279.228L84.912,270.499L86.469,259.085L88.026,251.401L89.583,243.867L91.14,233.642L92.697,222.303L94.254,214.273L95.811,200.57L97.368,194.08L98.925,188.024L100.482,177.101L102.039,166.643L103.596,158.593L105.154,147.374L106.711,139.344L108.268,140.702L109.825,131.137L111.382,123.025L112.939,123.05L114.496,121.226L116.053,120.912L117.61,127.194L119.167,127.276L120.724,129.156L122.281,139.168L123.838,140.639L125.395,134.325L126.952,132.936L128.509,125.282L130.066,123.66L131.623,126.257L133.18,121.93L134.737,119.415L136.294,122.364L137.851,120.597L139.408,115.956L140.965,117.837L142.522,107.379L144.079,97.342L145.636,99.895L147.193,97.933L148.75,94.776L150.307,95.952L151.864,92.921L153.421,89.752L154.978,93.94L156.535,92.519L158.092,86.406L159.649,82.45L161.206,72.653L162.763,67.722L164.32,67.653L165.877,64L167.434,60L168.991,66.113L170.548,70.716L172.105,73.112L173.662,78.866L175.219,76.734L176.776,73.181L178.333,78.143L179.89,78.407L181.447,78.042L183.004,86.123L184.561,91.016L186.118,95.097L187.675,103.825L189.232,109.278L190.789,106.831L192.346,110.806L193.904,110.315L195.461,112.145L197.018,121L198.575,122.037L200.132,125.125L201.689,134.464L203.246,140.117L204.803,144.192L206.36,151.933L207.917,150.82L209.474,150.16L211.031,154.179L212.588,157.065L214.145,158.254L215.702,161.825L217.259,162.373L218.816,166.385L220.373,173.277L221.93,176.572L223.487,173.334L225.044,175.05L226.601,172.315L228.158,170.347L229.715,171.629L231.272,169.957L232.829,171.736L234.386,176.245L235.943,178.874L237.5,180.918L239.057,184.88L240.614,184.898L242.171,182.823L243.728,188.98L245.285,191.036L246.842,190.005L248.399,192.407L249.956,192.363L251.513,194.413L253.07,199.916L254.627,200.696L256.184,197.652L257.741,196.545L259.298,192.237L260.855,191.866L262.412,194.35L263.969,192.445L265.526,191.269L267.083,195.589L268.64,196.451L270.197,197.117L271.754,199.714L273.311,195.413L274.868,193.596L276.425,195.74L277.982,194.753L279.539,192.778L281.096,194.69L282.654,194.948L284.211,194.558L285.768,197.96L287.325,199.035L288.882,199.457L290.439,200.519L291.996,198.557L293.553,198.381L295.11,200.142L296.667,198.174L298.224,197.834L299.781,201.249L301.338,206.789L302.895,208.374L304.452,212.77L306.009,212.701L307.566,213.015L309.123,215.04L310.68,215.216L312.237,214.43L313.794,218.348L315.351,218.109L316.908,219.53L318.465,225.806L320.022,227.529L321.579,228.535L323.136,231.434L324.693,231.761L326.25,232.101L327.807,232.126L329.364,233.453L330.921,232.459L332.478,235.384L334.035,234.818L335.592,235.069L337.149,236.547L338.706,234.755L340.263,234.711L341.82,236.025L343.377,234.516L344.934,233.214L346.491,233.107L348.048,230.453L349.605,229.114L351.162,231.177L352.719,231.227L354.276,230.541L355.833,233.484L357.39,232.56L358.947,233.893L360.504,236.572L362.061,236.899L363.618,236.295L365.175,238.44L366.732,237.673L368.289,237.05L369.846,240.169L371.404,239.566L372.961,239.805L374.518,241.974L376.075,240.666L377.632,239.591L379.189,240.767L380.746,239.402L382.303,240.238L383.86,241.515L385.417,240.408L386.974,240.742L388.531,242.609L390.088,243.1L391.645,241.779L393.202,245.483L394.759,247.816L396.316,246.722L397.873,249.451L399.43,248.527L400.987,247.797L402.544,249.313L404.101,247.275L405.658,247.288L407.215,247.307L408.772,244.93L410.329,243.345L411.886,246.823L413.443,243.798L415,242.446L416.557,243.641L418.114,242.056L419.671,241.641L421.228,243.32L422.785,241.59L424.342,240.389L425.899,241.433L427.456,238.635L429.013,238.415L430.57,239.805L432.127,239.176L433.684,236.975L435.241,235.365L436.798,231.258L438.355,229.938L439.912,229.938L441.469,228.435L443.026,227.001L444.583,229.994L446.14,228.139L447.697,227.592L449.254,229.957L450.811,228.63L452.368,228.925L453.925,232.78L455.482,232.176L457.039,229.529L458.596,232.988L460.154,232.793L461.711,230.378L463.268,231.296L464.825,228.177L466.382,227.812L467.939,228.472L469.496,226.542L471.053,225.806L472.61,228.139L474.167,227.454L475.724,227.215L477.281,230.032L478.838,231.818L480.395,235.126L481.952,241.546L483.509,242.71L485.066,242.194L486.623,243.892L488.18,244.244L489.737,242.917L491.294,244.634L492.851,245.118L494.408,244.005L495.965,246.087L497.522,246.961L499.079,246.118L500.636,247.37L502.193,247.118L503.75,247.231L505.307,248.464L506.864,251.011L508.421,253.734L509.978,257.796L511.535,259.299L513.092,262.268L514.649,267.324L516.206,266.204L517.763,266.89L519.32,269.047L520.877,268.323L522.434,269.455L523.991,271.38L525.548,272.153L527.105,274.027L528.662,275.48L530.219,276.876L531.776,277.234L533.333,277.354L534.89,274.631L536.447,272.317L538.004,273.662L539.561,273.681L541.118,274.474L542.675,275.216L544.232,275.48L545.789,276.624L547.346,279.706L548.904,279.14L550.461,278.436L552.018,279.448L553.575,277.555L555.132,278.75L556.689,280.165L558.246,278.958L559.803,278.555L561.36,282.662L562.917,282.504L564.474,282.9L566.031,284.894L567.588,281.574L569.145,280.674L570.702,281.687L572.259,279.97L573.816,280.813L575.373,282.07L576.93,283.177L578.487,284.592L580.044,288.466L581.601,289.805L583.158,287.598L584.715,286.649L586.272,283.919L587.829,283.599L589.386,284.951L590.943,285.007L592.5,284.881L594.057,286.271L595.614,286.869L597.171,287.661L598.728,290.183L600.285,285.982L601.842,282.768L603.399,282.85L604.956,282.599L606.513,283.039L608.07,286.076L609.627,285.812L611.184,287.202L612.741,290.17L614.298,288.749L615.855,284.756L617.412,284.397L618.969,281.165L620.526,280.655L622.083,281.196L623.64,279.398L625.197,280.064L626.754,282.215L628.311,283.334L629.868,284.158L631.425,287.045L632.982,286.089L634.539,286.007L636.096,287.963L637.654,286.68L639.211,287.252L640.768,290.384L642.325,290.849L643.882,291.038L645.439,293.107L646.996,293.245L648.553,291.019L650.11,290.906L651.667,289.755L653.224,289.661L654.781,290.843L656.338,289.868L657.895,290.692L659.452,294.295L661.009,296.691L662.566,299.05L664.123,302.188L665.68,301.955L667.237,301.817L668.794,305.099L670.351,305.653L671.908,307.376L673.465,309.916L675.022,311.985L676.579,313.205L678.136,317.224L679.693,315.954L681.25,313.539L682.807,313.778L684.364,312.463L685.921,310.954L687.478,311.753L689.035,311.269L690.592,314.142L692.149,317.041L693.706,318.576L695.263,318.941L696.82,319.695L698.377,317.243L699.934,317.318L701.491,318.098L703.048,316.488L704.605,315.664L706.162,316.079L707.719,313.243L709.276,313.47L710.833,314.199L712.39,314.413L713.947,313.004L715.504,312.457L717.061,310.212L718.618,310.193L720.175,311.803L721.732,310.52L723.289,309.112L724.846,311.696L726.404,313.759L727.961,315.853L729.518,318.456L731.075,318.89L732.632,318.261L734.189,320.192L735.746,318.777L737.303,318.431L738.86,321.399L740.417,322.89L741.974,324.393L743.531,327.286L745.088,327.141L746.645,326.877L748.202,328.147L749.759,328.896L751.316,329.996L752.873,332.159L754.43,332.857L755.987,334.04L757.544,335.04L759.101,335.14L760.658,336.486L762.215,337.725L763.772,335.574L765.329,333.423L766.886,334.914L768.443,334.838L770,333.285"/></g></svg>