<svg xmlns="http://www.w3.org/2000/svg" width="830" height="470" fill="currentColor" class="plot-d6a7b5" font-family="system-ui, sans-serif" font-size="10" style="--plot-background:white;display:block;height:intrinsic;max-width:100%;color:#1e90ff" text-anchor="middle" viewBox="0 0 830 470">
    <style>
        :where(.plot-d6a7b5 text),:where(.plot-d6a7b5 tspan){white-space:pre}
    </style>
    <path stroke="currentColor" stroke-opacity=".1" d="
M60
410
h710
M60
378.557
h710
M60
347.114
h710
M60
315.671
h710
M60
284.227
h710
M60
252.784
h710
M60
221.341
h710
M60
189.898
h710
M60
158.455
h710
M60
127.012
h710
M60
95.568
h710
M60
64.125
h710" aria-hidden="true" aria-label="y-grid"/>
    <path fill="none" stroke="currentColor" d="
M60
410
h-6
m6
-31.443
h-6
m6
-31.443
h-6
m6
-31.444
h-6
m6
-31.443
h-6
m6
-31.443
h-6
m6
-31.443
h-6
m6
-31.443
h-6
m6
-31.443
h-6
m6
-31.443
h-6
m6
-31.444
h-6
m6
-31.443
h-6" aria-hidden="true" aria-label="y-axis tick"/>
    <g aria-label="y-axis tick label" font-variant="tabular-nums" text-anchor="end">
        <text y=".32em" transform="translate(51 410)">0</text>
        <text y=".32em" transform="translate(51 378.557)">5,000</text>
        <text y=".32em" transform="translate(51 347.114)">10,000</text>
        <text y=".32em" transform="translate(51 315.67)">15,000</text>
        <text y=".32em" transform="translate(51 284.227)">20,000</text>
        <text y=".32em" transform="translate(51 252.784)">25,000</text>
        <text y=".32em" transform="translate(51 221.341)">30,000</text>
        <text y=".32em" transform="translate(51 189.898)">35,000</text>
        <text y=".32em" transform="translate(51 158.455)">40,000</text>
        <text y=".32em" transform="translate(51 127.012)">45,000</text>
        <text y=".32em" transform="translate(51 95.568)">50,000</text>
        <text y=".32em" transform="translate(51 64.125)">55,000</text>
    </g>
    <text y=".71em" aria-label="y-axis label" text-anchor="start" transform="translate(3 3)">↑ Visible Vestiges (30 days)</text>
    <path fill="none" stroke="currentColor" d="
M83.407
410
v6
m62.647
-6
v6
m63.336
-6
v6
m63.335
-6
v6
m62.647
-6
v6
m62.647
-6
v6
m63.335
-6
v6
m63.336
-6
v6
m61.958
-6
v6
m62.647
-6
v6
m63.335
-6
v6" aria-hidden="true" aria-label="x-axis tick"/>
    <g aria-label="x-axis tick label" font-variant="tabular-nums">
        <text transform="translate(83.407 419)"><tspan x="0" y=".71em">Apr</tspan><tspan x="0" dy="1em">2023</tspan></text>
        <text y=".71em" transform="translate(146.054 419)">Jul</text>
        <text y=".71em" transform="translate(209.39 419)">Oct</text>
        <text transform="translate(272.725 419)"><tspan x="0" y=".71em">Jan</tspan><tspan x="0" dy="1em">2024</tspan></text>
        <text y=".71em" transform="translate(335.372 419)">Apr</text>
        <text y=".71em" transform="translate(398.019 419)">Jul</text>
        <text y=".71em" transform="translate(461.354 419)">Oct</text>
        <text transform="translate(524.69 419)"><tspan x="0" y=".71em">Jan</tspan><tspan x="0" dy="1em">2025</tspan></text>
        <text y=".71em" transform="translate(586.648 419)">Apr</text>
        <text y=".71em" transform="translate(649.295 419)">Jul</text>
        <text y=".71em" transform="translate(712.63 419)">Oct</text>
    </g>
    <path fill="none" stroke="currentColor" stroke-linecap="round" stroke-linejoin="round" stroke-width="1.5" d="
m60
410
.459
-3.157
.459
-11.546
.459
-6.226
.459
-4.414
.459
-7.282
.459
-5.736
.459
-5.376
.459
-10.88
.459
-8.609
.459
-10.219
.458
-15.828
.459
-14.923
.459
-7.748
.459
-11.213
.459
-7.615
.459
-8.729
.459
-11.414
.459
-7.684
.459
-7.534
.459
-10.225
.459
-11.339
.459
-8.03
.459
-13.703
.459
-6.49
.459
-6.056
.459
-10.923
.459
-10.458
.459
-8.05
.459
-11.219
.459
-8.03
.459
1.358
.458
-9.565
.459
-8.112
.459
.025
.459
-1.824
.459
-.314
.459
6.282
.459
.082
.459
1.88
.459
10.012
.459
1.471
.459
-6.314
.459
-1.389
.459
-7.654
.459
-1.622
.459
2.597
.459
-4.327
.459
-2.515
.459
2.949
.459
-1.767
.459
-4.641
.459
1.881
.458
-10.458
.459
-10.037
.459
2.553
.459
-1.962
.459
-3.157
.459
1.176
.459
-3.031
.459
-3.169
.459
4.188
.459
-1.421
.459
-6.113
.459
-3.956
.459
-9.797
.459
-4.931
.459
-.069
.459
-3.653
.459
-4
.459
6.113
.459
4.603
.459
2.396
.459
5.754
.459
-2.132
.458
-3.553
.459
4.962
.459
.264
.459
-.365
.459
8.081
.459
4.893
.459
4.081
.459
8.728
.459
5.453
.459
-2.447
.459
3.975
.459
-.491
.459
1.83
.459
8.855
.459
1.037
.459
3.088
.459
9.339
.459
5.653
.459
4.075
.459
7.741
.459
-1.113
.458
-.66
.459
4.019
.459
2.886
.459
1.189
.459
3.571
.459
.548
.459
4.012
.459
6.892
.459
3.295
.459
-3.238
.459
1.716
.459
-2.735
.459
-1.968
.459
1.282
.459
-1.672
.459
1.779
.459
4.509
.459
2.629
.459
2.044
.459
3.962
.459
.018
.458
-2.075
.459
6.157
.459
2.056
.459
-1.031
.459
2.402
.459
-.044
.459
2.05
.459
5.503
.459
.78
.459
-3.044
.459
-1.107
.459
-4.308
.459
-.371
.459
2.484
.459
-1.905
.459
-1.176
.459
4.32
.459
.862
.459
.666
.459
2.597
.459
-4.301
.458
-1.817
.459
2.144
.459
-.987
.459
-1.975
.459
1.912
.459
.258
.459
-.39
.459
3.402
.459
1.075
.459
.422
.459
1.062
.459
-1.962
.459
-.176
.459
1.761
.459
-1.968
.459
-.34
.459
3.415
.459
5.54
.459
1.585
.459
4.396
.459
-.069
.458
.314
.459
2.025
.459
.176
.459
-.786
.459
3.918
.459
-.239
.459
1.421
.459
6.276
.459
1.723
.459
1.006
.459
2.899
.459
.327
.459
.34
.459
.025
.459
1.327
.459
-.994
.459
2.925
.459
-.566
.459
.251
.459
1.478
.459
-1.792
.459
-.044
.458
1.314
.459
-1.509
.459
-1.302
.459
-.107
.459
-2.654
.459
-1.339
.459
2.063
.459
.05
.459
-.686
.459
2.943
.459
-.924
.459
1.333
.459
2.679
.459
.327
.459
-.604
.459
2.145
.459
-.767
.459
-.623
.459
3.119
.459
-.603
.459
.239
.458
2.169
.459
-1.308
.459
-1.075
.459
1.176
.459
-1.365
.459
.836
.459
1.277
.459
-1.107
.459
.334
.459
1.867
.459
.491
.459
-1.321
.459
3.704
.459
2.333
.459
-1.094
.459
2.729
.459
-.924
.459
-.73
.459
1.516
.459
-2.038
.459
.013
.458
.019
.459
-2.377
.459
-1.585
.459
3.478
.459
-3.025
.459
-1.352
.459
1.195
.459
-1.585
.459
-.415
.459
1.679
.459
-1.73
.459
-1.201
.459
1.044
.459
-2.798
.459
-.22
.459
1.39
.459
-.629
.459
-2.201
.459
-1.61
.459
-4.107
.459
-1.32
h.458
l.459
-1.503
.459
-1.434
.459
2.993
.459
-1.855
.459
-.547
.459
2.365
.459
-1.327
.459
.295
.459
3.855
.459
-.604
.459
-2.647
.459
3.459
.459
-.195
.459
-2.415
.459
.918
.459
-3.119
.459
-.365
.459
.66
.459
-1.93
.459
-.736
.458
2.333
.459
-.685
.459
-.239
.459
2.817
.459
1.786
.459
3.308
.459
6.42
.459
1.164
.459
-.516
.459
1.698
.459
.352
.459
-1.327
.459
1.717
.459
.484
.459
-1.113
.459
2.082
.459
.874
.459
-.843
.459
1.252
.459
-.252
.459
.113
.459
1.233
.458
2.547
.459
2.723
.459
4.062
.459
1.503
.459
2.969
.459
5.056
.459
-1.12
.459
.686
.459
2.157
.459
-.724
.459
1.132
.459
1.925
.459
.773
.459
1.874
.459
1.453
.459
1.396
.459
.358
.459
.12
.459
-2.723
.459
-2.314
.459
1.345
.458
.019
.459
.793
.459
.742
.459
.264
.459
1.144
.459
3.082
.459
-.566
.459
-.704
.459
1.012
.459
-1.893
.459
1.195
.459
1.415
.459
-1.207
.459
-.403
.459
4.107
.459
-.158
.459
.396
.459
1.994
.459
-3.32
.459
-.9
.459
1.013
.458
-1.717
.459
.843
.459
1.257
.459
1.107
.459
1.415
.459
3.874
.459
1.339
.459
-2.207
.459
-.949
.459
-2.73
.459
-.32
.459
1.352
.459
.056
.459
-.126
.459
1.39
.459
.598
.459
.792
.459
2.522
.459
-4.201
.459
-3.214
.459
.082
.458
-.251
.459
.44
.459
3.037
.459
-.264
.459
1.39
.459
2.968
.459
-1.421
.459
-3.993
.459
-.359
.459
-3.232
.459
-.51
.459
.541
.459
-1.798
.459
.666
.459
2.151
.459
1.119
.459
.824
.459
2.887
.459
-.956
.459
-.082
.459
1.956
.458
-1.283
.459
.572
.459
3.132
.459
.465
.459
.189
.459
2.069
.459
.138
.459
-2.226
.459
-.113
.459
-1.151
.459
-.094
.459
1.182
.459
-.975
.459
.824
.459
3.603
.459
2.396
.459
2.359
.459
3.138
.459
-.233
.459
-.138
.459
3.282
.459
.554
.458
1.723
.459
2.54
.459
2.069
.459
1.22
.459
4.019
.459
-1.27
.459
-2.415
.459
.239
.459
-1.315
.459
-1.509
.459
.799
.459
-.484
.459
2.873
.459
2.899
.459
1.535
.459
.365
.459
.754
.459
-2.452
.459
.075
.459
.78
.459
-1.61
.458
-.824
.459
.415
.459
-2.836
.459
.227
.459
.729
.459
.214
.459
-1.409
.459
-.547
.459
-2.245
.459
-.019
.459
1.61
.459
-1.283
.459
-1.408
.459
2.584
.459
2.063
.459
2.094
.459
2.603
.459
.434
.459
-.629
.459
1.931
.459
-1.415
.458
-.346
.459
2.968
.459
1.491
.459
1.503
.459
2.893
.459
-.145
.459
-.264
.459
1.27
.459
.749
.459
1.1
.459
2.163
.459
.698
.459
1.183
.459
1
.459
.1
.459
1.346
.459
1.239
.459
-2.151
.459
-2.151
.459
1.491
.459
-.076
.458
-1.553
.459
-.346
.459
-1.327
.459
-.949
.459
-.195
.459
-1.006
.459
-1.359
.459
.843
.459
-.088
.459
-1.503
.459
-.591
.459
-2.579
.459
-.698
.459
1.541
.459
-.585
.459
1.113
.459
-.081
.459
-1.547
.459
1.025
.459
.018
.459
-1.251
.458
.258
.459
1.585
.459
.27
.459
1.245
.459
1.811
.459
.032
.459
-1.422
.459
-1.106
.459
-1.019
.459
.767
.459
1.22
.459
.396
.459
-.195
.459
-.025
.459
.069
.459
.68
.459
.125
.459
-1.05
.459
-2.912
.459
.755
.459
-1.742
.459
-.503
.458
1.836
.459
-1.597
.459
1.176
.459
2.094
.459
-2.779
.459
-2.925
.459
-.899
.459
-3.622
.459
-1.157
.459
-.686
.459
-1.723
.459
-.471
.459
.918
.459
-.837
.459
1.522
.459
.654
.459
-3.886
.459
-1.686
.459
-.591
.459
-1.132
.459
.78
.458
.635
.459
-2.616
.459
-.415
.459
-.176
.459
1.49
.459
-1.326
.459
-2.139
.459
-4.509
.459
-1.534
.459
-.912
.459
-4.471
.459
-2.006
.459
1.924
.459
1.554
.459
.704
.459
2.22
.459
-2.151
.459
-1.956
.459
1.233
.459
-.994
.459
-.868
.458
.082
.459
-1.503
.459
1.704
.459
2.585
.459
-.924
.459
-1.705
.459
1.365
.459
-1.855
.459
-.233
.459
1.541
.459
.226
.459
1.893
.459
1.403
.459
1.194
.459
3.541
.459
4.075
.459
-1.579
.459
.956
.459
3.214
.459
1.629
.459
.786
.458
.93
.459
.541
.459
1.591
.459
3.145
.459
.188
.459
-.855
.459
1.968
.459
-.591
.459
1.164
.459
2.735
.459
-.075
.459
.213
.459
2.736
.459
1.459
.459
-.415
.459
1.446
.459
-2.861
.459
-.547
.459
1.163
.459
1.881
.459
2.679
.458
3.597
.459
2.848
.459
2.862
.459
5.326
.459
2.943
.459
2.283
.459
2.088
.459
2.018
.459
2.516
.459
2.107
.459
1.245
.459
1.528
.459
3.358
.459
1.409
.459
-1.239
.459
1.811
.459
.736
.459
-.692
.459
.629
.459
1.182
.459
-.195
.458
.956
.459
.811
.459
.541
.459
2.748
.459
.566
h.459
l.459
-1.39
.459
-2.572
.459
-2.786
.459
-1.188
.459
-1.786
.459
-2.654
.459
-1.465
.459
-1.314
.459
-2.164
.459
-1.761
.459
-2.421
.459
-1.76
.459
-.994
.459
-1.597
.459
-.849
.459
-.415
.458
2.113
.459
.748
.459
1.207
.459
.296
.459
.113
.459
-.075
.459
-.397
.459
.441
.459
1.547
.459
.239
.459
.54
.459
1.283
.459
.459
.459
-.849
.459
.787
.459
.251
.459
-.528
.459
.484
.459
.648
.459
-.761
.459
-.786
.458
.824
.459
-.239
.459
.943
.459
.038
.459
-1.862
.459
-.333
.459
-1.302
h.459
l.459
-.339
.459
-.642
.459
-1.232
.459
-.195
.459
-.711
.459
-.579
.459
1.321
.459
-1.138
.459
-1.459
.459
.465
.459
-1.151
.459
.007
.459
.503
.458
1.547
.459
.289
.459
.604
.459
-.378
.459
-3.131
.459
-.157
.459
-1.101
.459
.786
.459
.006
.459
.22
.459
-1.018
.459
1.32
.459
1.17
.459
.145
.459
1.069
.459
-1.422
.459
-2.364
.459
.101
.459
-1.296
.459
.208
.459
.283
.458
-1.101
.459
-1.094
.459
1.144
.459
-.383
.459
-1.113
.459
1.39
.459
-2.246
.459
-.433
.459
-.73
.459
-1.119
.459
-.799
.459
.252
.459
1.371
.459
-.208
.459
.855
.459
-2.132
.459
-2.163
.459
-.761
.459
.271
.459
-2.447
.459
.032
.458
.182
.459
.164
.459
.446
.459
1.572
.459
-.452
.459
1.119
.459
-.862
.459
-.622
.459
2.981
.459
1.521
.459
-.037
.459
1.553
.459
-.352
.459
-.352
.459
2.572
.459
-.145
.459
-2.408
.459
1.213
.459
.61
.459
-1.025
.459
.925
.459
.999
.458
.642
.459
2.553
.459
2.107
.459
.836
.459
.661
.459
-.051
.459
-.371
.459
.466
.459
-1.126
.459
.522
.459
.126
.459
.836
.459
.635
.459
1.195
.459
.623
.459
-1.529
.459
.233
.459
.535
h.459
l.459
2.226
.459
.434
.458
-.529
.459
-.232
.459
1.855
.459
.126
.459
.742
.459
.629
.459
.176
.459
.163
.459
-.371
.459
-.918
.459
-.05
.459
-.145
.459
-.163
.459
1.238
.459
-.622
.459
-2.522
.459
.434
.459
-.585
.459
.308
.459
-.188
.459
-.874
.458
-.529
.459
.73
.459
.666
.459
-.729
.459
-.541
.459
-.56
.459
-1.521
.459
-.422
.459
-1.364
.459
-.981
.459
-.881
.459
-1.987
.459
-1.534
.459
-1.107
.459
-1.623
.459
-.566
.459
-.132
.459
-2.239
.459
-.603
.459
-.063
.459
-.748
.458
.27
.459
2.044
.459
-1.673
.459
-2.453
.459
-2.257
.459
-3.497
.459
-2.515
.459
-.598
.459
-3.112
.459
-3.755
.459
-1.459
.459
-1.22
.459
-1.66
.459
-1.239
.459
-.748
.459
-1.975
.459
.692
.459
1.534
.459
.239
.459
1.591
.459
1.114
.458
.974
.459
1.359
.459
-.818
.459
-.792
.459
1.144
.459
-.195
.459
-.434
.459
.629
.459
.019
.459
-.339
.459
4.842
.459
3.899
.459
3.572
.459
3.685
.459
3.163
.459
1.22
.459
3.597
.459
3.629
.459
1.823
.459
1.327
.459
2.264
.459
.899
.458
1.95
.459
2.176
.459
1.22
.459
-.529
.459
.761
.459
-.289
.459
.283
.459
.522
.459
.874
.459
1.063
.459
2.151
.459
1.911
.459
1.051
.459
1.314
.459
.151
.459
.277
.459
-.095
.459
-.44
.459
-.566
.459
-.057
.459
-.232
.458
-.057
.459
-.289
.459
-1.679
.459
-1.327
.459
-2.616
.459
-.05
.459
-.598
.459
.39
.459
.484
.459
-.207
.459
-.635
.459
.075
.459
-.503
.459
-2.905
.459
-.629
.459
.465
.459
-1.641
.459
-.233
.459
.05
.459
-.742
.459
-.283
.458
-.163
.459
-.302
.459
-1.006
.459
-1.176
.459
-2.264
.459
.283
.459
.251
.459
.139
.459
-.346
.459
1.302
.459
1.886
.459
1.239
.459
3.138
.459
.201
.459
.592
.459
1.025
h.459
l.459
1.358
.459
.88
.459
.315
.459
1.264
.458
3.779
.459
-.176
.459
-.434
.459
1.371
.459
-.629
.459
.29
.459
1.113
.459
.069
.459
.371
.459
1.333
.459
1.384
.459
1.786
.459
2.723
.459
-.919
.459
-.195
.459
1.277
.459
.962
h.459
l.459
-.232
.459
.333
.459
-1.113
.458
.49
.459
-.742
.459
-1.924
.459
-.893
.459
-2.453
.459
-1.062
.459
.339
.459
.12
.459
-.233
.459
.736
.459
.603
.459
.598
.459
.566
.459
-1.164
.459
-1.119
.459
.547
.459
-.912
.459
.252
.459
.358
.459
-1.018
.459
-.195
.459
1.15
.458
.095
.459
-1.195
.459
-.943
.459
-.793
.459
.315
.459
-.126
.459
.283
.459
-.421
.459
.742
.459
1.106
.459
.887
.459
1.748
.459
.032
.459
-.786
.459
.503
.459
.1
.459
.158
.459
.295
.459
-.239
.459
.855
.459
1.315
.458
.754
.459
.428
.459
1.528
.459
-.119
.459
-.29
.459
1.208
.459
.471
.459
-.138
.459
-.742
.459
.352
.459
-.371
.459
.937
.459
-.094
.459
.534
.459
.459
.459
.271
.459
.736
.459
.981
.459
-.176
.459
.345
.459
1.202
.458
.327
.459
-1.013
.459
.271
.459
-.359
.459
-.05
.459
-.503
.459
-.334
.459
-.106
.459
.471
.459
-.71
.459
-.749
.459
-.365
.459
-.999
.459
-.032
.459
-.924
h.459
l.459
1.031
.459
.522
.459
.893
.459
-.025
.459
.075
.458
-.245
.459
-.566
.459
-.277
.459
-2.402
.459
-1.302
.459
-.276
.459
-.918
.459
-.478
.459
.496
.459
-.547
.459
-1.528
.459
.472
.459
-1.308
.459
.421
.459
.509
.459
-.93
.459
-.29
.459
.158
.459
.264
.459
-.516
.459
1.145
.458
-.591
.459
.427
.459
-.082
.459
.063
.459
-.302
.459
.026
.459
-.371
.459
-.654
.459
-.126
.459
-.403
.459
.145
.459
1.66
.459
.459
.459
.088
.459
.283
.459
-.371
.459
.088
.459
1.648
.459
.868
.459
-.076
.459
1.032
.458
-.246
.459
-1.012
.459
-1.044
.459
-2.239
.459
-1.195
.459
-.471
.459
.314
.459
-.044
.459
-.012
.459
-.592
.459
.283
.459
.095
.459
-1.227
.459
-1.05
.459
.113
.459
-.138
.459
-.277
.459
.755
.459
-.201
.459
-.648
.459
-.685
.459
.094
.458
.22
.459
.855
.459
.038
.459
-.34
.459
1.164
.459
-.793
.459
.315
.459
.094
.459
-.113
.459
1
.459
1.025
.459
.22
.459
-.214
.459
-.05
.459
-1.365
h.459
l.459
.453
.459
-1.063
.459
-.471
.459
.735
.459
-.182
.458
-.075
.459
.584
.459
-.44
.459
.088
.459
-.912
.459
.692
.459
.132
.459
-.377
.459
.327
.459
-.05
.459
-.202
.459
-1.798
.459
-2.34
.459
.365
.459
-1.509
.459
-.038
.459
.113
.459
-1.188
.459
.157
.459
.333
.459
-.346
.458
.239
.459
.919
.459
-.177
.459
-.295
.459
.748
.459
-.289
.459
.314
.459
.705
.459
-1.189
.459
-.522
.459
.862
.459
.27
.459
1.138
.459
.088
.459
1.063
.459
1.12
.459
.358
.459
-.295
.459
.773
.459
2.05
.459
1.535
.458
.578
.459
1.371
.459
-.163
.459
.968
.459
1.365
.459
1.207
.459
-.069
.459
1.006
.459
-.321
.459
.95
.459
.704
.459
-.465
.459
.346
.459
.408
.459
.724
.459
.673
.459
.811
.459
.824
.459
.195
.459
.729
.459
.352
.458
.837
.459
.314
.459
.195
.459
-.56
.459
-.063
.459
-.66
.459
.428
.459
.478
.459
.603
.459
.673
.459
1.484
.459
-.32
.459
.553
.459
-.101
.459
1.497
.459
.069
.459
.843
.459
-.585
.459
.409
.459
1.522
.459
.591
.459
.163
.458
-.49
.459
.094
.459
.811
.459
.258
.459
.378
.459
-.139
.459
.679
.459
.158
.459
.377
.459
-.182
.459
1.27
.459
1.044
.459
1.207
.459
.12
.459
.603
.459
.478
.459
.202
.459
.094
.459
1.107
.459
.553
.459
.39
.458
.157
.459
.403
.459
.704
.459
.692
.459
-.101
.459
.044
.459
.208
.459
.125
.459
.73
.459
.516
.459
.32
.459
.176
.459
.038
.459
.315
.459
.132
.459
.05
.459
.27
.459
.453
.459
-.352
.459
-.019
.459
-.182
.458
-.271
.459
-.566
.459
-.32
.459
-.258
.459
-.378
.459
-.05
.459
-.176
.459
-.088
.459
-.113
.459
-.554
.459
-.805
.459
-.037
.459
-.365
.459
.189
.459
.006
.459
.717
.459
-.302
.459
-.824
.459
.113
.459
-.44
.459
-.22
.458
-.233
.459
-.239
.459
-.025
.459
-.201
.459
-.151
.459
-.201
.459
-.189
.459
-.409
.459
.007
.459
.61
.459
-.258
.459
.088
.459
.258
.459
.138
.459
.195
.459
.403
.459
-.07
.459
.365
.459
.629
.459
.094
.459
.579
.458
.107
.459
.056
.459
-.012
.459
.44
.459
.572
.459
-.037
.459
.578
.459
-.182
.459
-.202
.459
-.012
.459
-.302
.459
-.34
.459
-.194
.459
.377
.459
.088
.459
.113
.459
.113
.459
-.17
.459
.214
.459
-.503
.459
.113
.459
-.125
.458
-.132
.459
-.548
.459
.07
.459
-.365
.459
-.403
.459
.063
.459
-.981
.459
-.541
.459
-.069
.459
-.509
h.459
l.459
-.006
.459
.239
.459
-.038
.459
.641
.459
.365
.459
-.057
.459
.151
.459
.107
.459
.057
.459
-.78
.458
.126
.459
.163
.459
.315
.459
-.245
.459
.031
.459
-.006
.459
-.051
.459
-.251
.459
-.252
.459
.239
.459
.145
.459
.283
.459
.094
.459
.315
.459
.83
.459
.314
.459
-.339
.459
.32
.459
-.195
.459
.239
.459
-.717
.458
-.515
.459
-.264
.459
-.12
.459
-.478
.459
-.063
.459
.271
.459
.421
.459
.761
.459
.157
.459
-.251
.459
-.214
.459
.402
.459
.346
.459
.308
.459
.132
.459
-.113
.459
.277
.459
.327
.459
.119
.459
.636
.459
.371
.458
-.038
.459
.182
.459
.076
.459
.484
.459
.283
.459
.239
.459
.138
.459
.415
.459
.164
.459
.396
.459
-.164
.459
-.031
.459
-.937
.459
-.673
.459
-.075
.459
.037
.459
-.157
.459
.447
.459
.157
.459
-.239
.459
-.478
.458
-.189
.459
-.308
.459
.277
.459
.402
.459
-.012
.459
-.698
.459
-.315
.459
-.138
.459
-.277
.459
-.157
.459
-.245
.459
-.29
.459
-.679
.459
.145
.459
.101
.459
.125
.459
.434
.459
.082
.459
-.371
.459
.654
.459
.711
.459
.301
.458
.277
.459
.271
.459
.345
.459
.195
.459
.076
.459
.239
.459
.591
.459
.302
.459
.144
.459
.007
.459
-.069
.459
.289
.459
.748
.459
.308
.459
.246
.459
.352
.459
.025
.459
.138
.459
-.698
.459
-.346
.459
-.635
.458
-.126
.459
.221
.459
-.145
.459
-.434
.459
.553
.459
-.125
.459
-.353
.459
-.062
.459
-.447
.459
-.748
.459
-.321
.459
-.138
.459
-.189
.459
-.013
.459
-.496
.459
-.139
.459
-.025
.459
.132
.459
-.534
.459
-.547
.459
-.774
.458
-.22
.459
.006
.459
-.038
.459
.101
.459
.176
.459
.969
.459
1.119
.459
.491
.459
.144
.459
-.314
.459
.1
.459
-.107
.459
.202
.459
.201
.459
.761
.459
.61
.459
-.019
.459
.365
.459
-.145
.459
-.063
.459
.239
h.458
l.459
.289
.459
.202
.459
.188
.459
-.125
.459
.144
.459
.063
.459
.774
.459
-.088
.459
-.214
.459
-.157
.459
.075
.459
.075
.459
.164
.459
.057
.459
-.095
.459
.032
.459
.044
.459
.012
.459
.56
.459
-.069
.458
.031
.459
-.05
.459
-.151
.459
.057
.459
.339
.459
.327
.459
.264
.459
-.012
.459
.006
.459
-.358
.459
.377
.459
-.233
.459
-.056
.459
.383
.459
.17
.459
-.277
.459
-.069
.459
-.283
.459
-.302
.459
-.226
.459
-.371
.459
-.082
.458
-.189
.459
.12
.459
-.145
.459
.227
.459
.327
.459
-.044
.459
-.032
.459
-.019
.459
.189
.459
.17
.459
.056
.459
-.062
.459
-.283
.459
-.12
.459
-.044
.459
.038
.459
.364
.459
-.062
.459
.169
.459
-.257
.459
-.057
.458
.05
.459
-.006
.459
.365
.459
.364
.459
.252
.459
.075
.459
.566
.459
-.402
.459
-.069
.459
.012
.459
-.031
.459
-.478
.459
-.195
.459
-.239
.459
.019
.459
.031
.459
-.427
.459
.17
.459
.352
.459
-.302
.459
-.239
.458
-.208
.459
.12
.459
.126
.459
.239
.459
-.076
h.459
l.459
.327
.459
-.434
.459
-.1
.459
.025
.459
-.139" aria-label="line"/>
</svg>
