<svg xmlns="http://www.w3.org/2000/svg" width="830" height="470" fill="currentColor" class="plot-d6a7b5" font-family="system-ui, sans-serif" font-size="10" style="--plot-background:white;display:block;height:intrinsic;max-width:100%;color:#1e90ff" text-anchor="middle" viewBox="0 0 830 470">
    <style>
        :where(.plot-d6a7b5 text),:where(.plot-d6a7b5 tspan){white-space:pre}
    </style>
    <path stroke="currentColor" stroke-opacity=".1" d="
M60
410
h710
M60
385.117
h710
M60
360.234
h710
M60
335.351
h710
M60
310.468
h710
M60
285.585
h710
M60
260.702
h710
M60
235.819
h710
M60
210.936
h710
M60
186.053
h710
M60
161.17
h710
M60
136.287
h710
M60
111.404
h710
M60
86.521
h710
M60
61.638
h710" aria-hidden="true" aria-label="y-grid"/>
    <path fill="none" stroke="currentColor" d="
M60
410
h-6
m6
-24.883
h-6
m6
-24.883
h-6
m6
-24.883
h-6
m6
-24.883
h-6
m6
-24.883
h-6
m6
-24.883
h-6
m6
-24.882
h-6
m6
-24.884
h-6
m6
-24.883
h-6
m6
-24.883
h-6
m6
-24.883
h-6
m6
-24.883
h-6
m6
-24.883
h-6
m6
-24.883
h-6" aria-hidden="true" aria-label="y-axis tick"/>
    <g aria-label="y-axis tick label" font-variant="tabular-nums" text-anchor="end">
        <text y=".32em" transform="translate(51 410)">0</text>
        <text y=".32em" transform="translate(51 385.117)">50,000</text>
        <text y=".32em" transform="translate(51 360.234)">100,000</text>
        <text y=".32em" transform="translate(51 335.351)">150,000</text>
        <text y=".32em" transform="translate(51 310.468)">200,000</text>
        <text y=".32em" transform="translate(51 285.585)">250,000</text>
        <text y=".32em" transform="translate(51 260.702)">300,000</text>
        <text y=".32em" transform="translate(51 235.82)">350,000</text>
        <text y=".32em" transform="translate(51 210.936)">400,000</text>
        <text y=".32em" transform="translate(51 186.053)">450,000</text>
        <text y=".32em" transform="translate(51 161.17)">500,000</text>
        <text y=".32em" transform="translate(51 136.287)">550,000</text>
        <text y=".32em" transform="translate(51 111.404)">600,000</text>
        <text y=".32em" transform="translate(51 86.521)">650,000</text>
        <text y=".32em" transform="translate(51 61.638)">700,000</text>
    </g>
    <text y=".71em" aria-label="y-axis label" text-anchor="start" transform="translate(3 3)">↑ Total Vestiges</text>
    <path fill="none" stroke="currentColor" d="
M82.449
410
v6
m60.084
-6
v6
m60.744
-6
v6
m60.743
-6
v6
m60.084
-6
v6
m60.084
-6
v6
m60.744
-6
v6
m60.744
-6
v6
m59.424
-6
v6
m60.083
-6
v6
m60.744
-6
v6
m60.743
-6
v6" aria-hidden="true" aria-label="x-axis tick"/>
    <g aria-label="x-axis tick label" font-variant="tabular-nums">
        <text transform="translate(82.449 419)"><tspan x="0" y=".71em">Apr</tspan><tspan x="0" dy="1em">2023</tspan></text>
        <text y=".71em" transform="translate(142.533 419)">Jul</text>
        <text y=".71em" transform="translate(203.277 419)">Oct</text>
        <text transform="translate(264.02 419)"><tspan x="0" y=".71em">Jan</tspan><tspan x="0" dy="1em">2024</tspan></text>
        <text y=".71em" transform="translate(324.104 419)">Apr</text>
        <text y=".71em" transform="translate(384.188 419)">Jul</text>
        <text y=".71em" transform="translate(444.932 419)">Oct</text>
        <text transform="translate(505.676 419)"><tspan x="0" y=".71em">Jan</tspan><tspan x="0" dy="1em">2025</tspan></text>
        <text y=".71em" transform="translate(565.1 419)">Apr</text>
        <text y=".71em" transform="translate(625.183 419)">Jul</text>
        <text y=".71em" transform="translate(685.927 419)">Oct</text>
        <text transform="translate(746.67 419)"><tspan x="0" y=".71em">Jan</tspan><tspan x="0" dy="1em">2026</tspan></text>
    </g>
    <path fill="none" stroke="currentColor" stroke-linecap="round" stroke-linejoin="round" stroke-width="1.5" d="
m60
410
.44
-.25
.44
-.914
.441
-.492
.44
-.35
.44
-.576
.44
-.454
.44
-.425
.44
-.861
.441
-.681
.44
-.809
.44
-1.253
.44
-1.181
.44
-.613
.44
-.887
.441
-.603
.44
-.691
.44
-.903
.44
-.608
.44
-.596
.44
-.809
.441
-.898
.44
-.635
.44
-1.085
.44
-.513
.44
-.479
.441
-.865
.44
-.827
.44
-.637
.44
-.888
.44
-.886
.44
-.806
.441
-1.249
.44
-.992
.44
-.574
.44
-.598
.44
-.451
.44
-.363
.441
-.675
.44
-.66
.44
-.46
.44
-1.065
.44
-1.113
.44
-.997
.441
-1.208
.44
-.82
.44
-.697
.44
-.951
.44
-.795
.441
-.576
.44
-1.037
.44
-1.003
.44
-.935
.44
-1.342
.44
-1.273
.441
-.662
.44
-.983
.44
-.887
.44
-.795
.44
-1.125
.44
-1.057
.441
-.918
.44
-1.104
.44
-1.058
.44
-.911
.44
-1.226
.44
-.754
.441
-.68
.44
-.949
.44
-.777
.44
-.581
.44
-.748
.44
-.808
.441
-.753
.44
-.988
.44
-.979
.44
-.558
.44
-.774
.441
-.605
.44
-.397
.44
-.616
.44
-.613
.44
-.65
.44
-.842
.441
-.856
.44
-.668
.44
-.926
.44
-.65
.44
-.425
.44
-.974
.441
-.674
.44
-.365
.44
-.611
.44
-.588
.44
-.614
.44
-.842
.441
-.732
.44
-.631
.44
-.549
.44
-.486
.44
-.466
.441
-.765
.44
-.435
.44
-.442
.44
-.719
.44
-.814
.44
-.638
.441
-.821
.44
-.554
.44
-.514
.44
-.745
.44
-.509
.44
-.486
.441
-.648
.44
-.506
.44
-.612
.44
-.649
.44
-.588
.44
-.488
.441
-.511
.44
-.447
.44
-.42
.44
-.592
.44
-.451
.441
-.407
.44
-.671
.44
-.872
.44
-.636
.44
-.827
.44
-.495
.441
-.568
.44
-.586
.44
-.536
.44
-.376
.44
-.746
.44
-.586
.441
-.616
.44
-.893
.44
-.658
.44
-.576
.44
-.587
.44
-.642
.441
-.496
.44
-.487
.44
-.643
.44
-.379
.44
-.503
.441
-.455
.44
-.427
.44
-.601
.44
-.435
.44
-.453
.44
-.606
.441
-.434
.44
-.401
.44
-.433
.44
-.511
.44
-.479
.44
-.501
.441
-.543
.44
-.426
.44
-.521
.44
-.439
.44
-.436
.44
-.605
.441
-.503
.44
-.397
.44
-.521
.44
-.496
.44
-.358
.441
-.616
.44
-.47
.44
-.484
.44
-.538
.44
-.458
.44
-.272
.441
-.499
.44
-.407
.44
-.485
.44
-.576
.44
-.457
.44
-.502
.441
-.553
.44
-.504
.44
-.442
.44
-.72
.44
-.586
.44
-.337
.441
-.539
.44
-.481
.44
-.288
.44
-.512
.44
-.33
.441
-.393
.44
-.477
.44
-.445
.44
-.352
.44
-.556
.44
-.408
.441
-.369
.44
-.517
.44
-.466
.44
-.366
.44
-.561
.44
-.358
.441
-.406
.44
-.515
.44
-.418
.44
-.476
.44
-.543
.44
-.477
.441
-.405
.44
-.465
.44
-.546
.44
-.428
.44
-.401
.44
-.424
.441
-.323
.44
-.553
.44
-.346
.44
-.392
.44
-.492
.441
-.391
.44
-.476
.44
-.633
.44
-.477
.44
-.282
.44
-.647
.441
-.475
.44
-.423
.44
-.591
.44
-.399
.44
-.429
.44
-.494
.441
-.501
.44
-.432
.44
-.64
.44
-.493
.44
-.434
.44
-.526
.441
-.579
.44
-.593
.44
-.871
.44
-.532
.44
-.401
.441
-.543
.44
-.437
.44
-.316
.44
-.493
.44
-.435
.44
-.305
.441
-.496
.44
-.453
.44
-.328
.44
-.525
.44
-.49
.44
-.374
.441
-.491
.44
-.614
.44
-.518
.44
-.646
.44
-.457
.44
-.442
.441
-.654
.44
-.491
.44
-.455
.44
-.547
.44
-.453
.441
-.303
.44
-.438
.44
-.331
.44
-.363
.44
-.44
.44
-.442
.441
-.408
.44
-.409
.44
-.421
.44
-.358
.44
-.396
.44
-.393
.441
-.332
.44
-.383
.44
-.395
.44
-.426
.44
-.51
.44
-.365
.441
-.393
.44
-.413
.44
-.302
.44
-.325
.44
-.338
.441
-.207
.44
-.254
.44
-.579
.44
-.402
.44
-.376
.44
-.51
.441
-.213
.44
-.286
.44
-.269
.44
-.215
.44
-.325
.44
-.332
.441
-.38
.44
-.399
.44
-.637
.44
-.54
.44
-.291
.44
-.391
.441
-.269
.44
-.324
.44
-.374
.44
-.336
.44
-.266
.441
-.409
.44
-.45
.44
-.332
.44
-.453
.44
-.23
.44
-.226
.441
-.303
.44
-.285
.44
-.255
.44
-.413
.44
-.345
.44
-.352
.441
-.477
.44
-.356
.44
-.19
.44
-.35
.44
-.259
.44
-.232
.441
-.292
.44
-.287
.44
-.331
.44
-.434
.44
-.465
.44
-.466
.441
-.486
.44
-.349
.44
-.267
.44
-.331
.44
-.277
.441
-.299
.44
-.402
.44
-.27
.44
-.253
.44
-.562
.44
-.481
.441
-.296
.44
-.305
.44
-.22
.44
-.173
.44
-.366
.44
-.242
.441
-.241
.44
-.47
.44
-.505
.44
-.379
.44
-.514
.44
-.272
.441
-.25
.44
-.43
.44
-.277
.44
-.265
.44
-.376
.441
-.401
.44
-.257
.44
-.425
.44
-.274
.44
-.176
.44
-.378
.441
-.254
.44
-.154
.44
-.233
.44
-.238
.44
-.398
.44
-.47
.441
-.472
.44
-.315
.44
-.311
.44
-.18
.44
-.272
.44
-.32
.441
-.176
.44
-.184
.44
-.316
.44
-.192
.44
-.266
.441
-.291
.44
-.26
.44
-.17
.44
-.234
.44
-.128
.44
-.175
.441
-.238
.44
-.16
.44
-.107
.44
-.374
.44
-.367
.44
-.36
.441
-.357
.44
-.274
.44
-.17
.44
-.276
.44
-.171
.44
-.241
.441
-.35
.44
-.286
.44
-.251
.44
-.375
.44
-.266
.441
-.258
.44
-.303
.44
-.25
.44
-.282
.44
-.417
.44
-.248
.441
-.233
.44
-.244
.44
-.281
.44
-.277
.44
-.306
.44
-.177
.441
-.109
.44
-.262
.44
-.219
.44
-.169
.44
-.204
.44
-.194
.441
-.152
.44
-.239
.44
-.22
.44
-.123
.44
-.283
.441
-.268
.44
-.116
.44
-.168
.44
-.132
.44
-.145
.44
-.278
.441
-.279
.44
-.203
.44
-.19
.44
-.195
.44
-.246
.44
-.193
.441
-.139
.44
-.165
.44
-.273
.44
-.171
.44
-.207
.44
-.347
.441
-.28
.44
-.144
.44
-.225
.44
-.292
.44
-.232
.441
-.298
.44
-.227
.44
-.255
.44
-.299
.44
-.231
.44
-.217
.441
-.274
.44
-.235
.44
-.215
.44
-.336
.44
-.201
.44
-.155
.441
-.325
.44
-.115
.44
-.197
.44
-.318
.44
-.165
.44
-.191
.441
-.238
.44
-.144
.44
-.148
.44
-.15
.44
-.109
.44
-.203
.441
-.278
.44
-.256
.44
-.313
.44
-.372
.44
-.171
.441
-.202
.44
-.196
.44
-.27
.44
-.301
.44
-.225
.44
-.163
.441
-.265
.44
-.318
.44
-.445
.44
-.276
.44
-.339
.44
-.196
.441
-.179
.44
-.242
.44
-.103
.44
-.152
.44
-.385
.44
-.423
.441
-.309
.44
-.431
.44
-.239
.44
-.204
.44
-.245
.441
-.241
.44
-.205
.44
-.323
.44
-.192
.44
-.321
.44
-.478
.441
-.336
.44
-.242
.44
-.36
.44
-.239
.44
-.175
.44
-.37
.441
-.298
.44
-.332
.44
-.326
.44
-.382
.44
-.508
.44
-.552
.441
-.301
.44
-.314
.44
-.457
.44
-.311
.44
-.233
.441
-.299
.44
-.254
.44
-.255
.44
-.41
.44
-.358
.44
-.148
.441
-.319
.44
-.274
.44
-.316
.44
-.311
.44
-.186
.44
-.274
.441
-.409
.44
-.377
.44
-.252
.44
-.386
.44
-.193
.44
-.248
.441
-.28
.44
-.182
.44
-.216
.44
-.287
.44
-.228
.441
-.23
.44
-.426
.44
-.238
.44
-.203
.44
-.182
.44
-.17
.441
-.226
.44
-.211
.44
-.129
.44
-.161
.44
-.343
.44
-.216
.441
-.164
.44
-.32
.44
-.224
.44
-.095
.44
-.192
.44
-.256
.441
-.193
.44
-.261
.44
-.285
.44
-.272
.44
-.42
.441
-.291
.44
-.187
.44
-.034
.44
-.004
.44
-.002
.44
-.002
.441
-.004
.44
-.004
.44
-.005
.44
-.023
.44
-.017
.44
-.01
.441
-.027
.44
-.044
.44
-.031
.44
-.04
.44
-.077
.44
-.104
.441
-.262
.44
-.177
.44
-.166
.44
-.149
.44
-.143
.441
-.163
.44
-.208
.44
-.186
.44
-.22
.44
-.229
.44
-.203
.441
-.246
.44
-.188
.44
-.143
.44
-.207
.44
-.223
.44
-.096
.441
-.145
.44
-.215
.44
-.121
.44
-.126
.44
-.188
.44
-.15
.441
-.218
.44
-.184
.44
-.11
.44
-.166
.44
-.145
.44
-.136
.441
-.095
.44
-.118
.44
-.07
.44
-.126
.44
-.133
.441
-.17
.44
-.238
.44
-.152
.44
-.098
.44
-.21
.44
-.16
.441
-.144
.44
-.152
.44
-.21
.44
-.145
.44
-.203
.44
-.138
.441
-.107
.44
-.163
.44
-.181
.44
-.189
.44
-.123
.44
-.169
.441
-.143
.44
-.181
.44
-.257
.44
-.192
.44
-.248
.441
-.137
.44
-.121
.44
-.169
.44
-.168
.44
-.141
.44
-.19
.441
-.215
.44
-.134
.44
-.242
.44
-.213
.44
-.173
.44
-.251
.441
-.144
.44
-.112
.44
-.088
.44
-.122
.44
-.155
.44
-.168
.441
-.355
.44
-.175
.44
-.269
.44
-.126
.44
-.122
.441
-.152
.44
-.224
.44
-.076
.44
-.165
.44
-.181
.44
-.163
.441
-.249
.44
-.309
.44
-.161
.44
-.27
.44
-.125
.44
-.167
.441
-.302
.44
-.221
.44
-.151
.44
-.244
.44
-.261
.44
-.141
.441
-.322
.44
-.145
.44
-.146
.44
-.211
.44
-.218
.441
-.149
.44
-.245
.44
-.193
.44
-.2
.44
-.295
.44
-.294
.441
-.211
.44
-.203
.44
-.27
.44
-.162
.44
-.167
.44
-.15
.441
-.214
.44
-.184
.44
-.197
.44
-.181
.44
-.193
.44
-.217
.441
-.066
.44
-.1
.44
-.154
.44
-.121
.44
-.289
.441
-.169
.44
-.118
.44
-.158
.44
-.336
.44
-.115
.44
-.17
.441
-.229
.44
-.173
.44
-.113
.44
-.15
.44
-.093
.44
-.127
.441
-.145
.44
-.151
.44
-.273
.44
-.192
.44
-.129
.44
-.24
.441
-.173
.44
-.174
.44
-.13
.44
-.131
.44
-.099
.44
-.167
.441
-.187
.44
-.082
.44
-.112
.44
-.121
.44
-.113
.441
-.134
.44
-.16
.44
-.176
.44
-.19
.44
-.105
.44
-.111
.441
-.179
.44
-.159
.44
-.1
.44
-.179
.44
-.166
.44
-.131
.441
-.157
.44
-.163
.44
-.176
.44
-.24
.44
-.33
.44
-.205
.441
-.219
.44
-.15
.44
-.145
.44
-.201
.44
-.14
.441
-.109
.44
-.135
.44
-.14
.44
-.154
.44
-.165
.44
-.234
.441
-.167
.44
-.268
.44
-.254
.44
-.259
.44
-.262
.44
-.233
.441
-.267
.44
-.287
.44
-.145
.44
-.19
.44
-.342
.44
-.179
.441
-.162
.44
-.223
.44
-.154
.44
-.079
.44
-.462
.441
-.399
.44
-.397
.44
-.427
.44
-.344
.44
-.248
.44
-.387
.441
-.406
.44
-.25
.44
-.236
.44
-.286
.44
-.263
.44
-.293
.441
-.324
.44
-.213
.44
-.132
.44
-.241
.44
-.136
.44
-.144
.441
-.191
.44
-.179
.44
-.21
.44
-.252
.44
-.252
.441
-.194
.44
-.196
.44
-.174
.44
-.152
.44
-.106
.44
-.079
.441
-.09
.44
-.115
.44
-.135
.44
-.094
.44
-.151
.44
-.102
.441
-.12
.44
-.105
.44
-.132
.44
-.106
.44
-.192
.44
-.139
.441
-.151
.44
-.117
.44
-.174
.44
-.18
.44
-.159
.441
-.122
.44
-.149
.44
-.111
.44
-.125
.44
-.082
.44
-.101
.441
-.111
.44
-.092
.44
-.161
.44
-.131
.44
-.113
.44
-.114
.441
-.135
.44
-.12
.44
-.153
.44
-.098
.44
-.175
.44
-.234
.441
-.225
.44
-.312
.44
-.136
.44
-.154
.44
-.161
.441
-.1
.44
-.168
.44
-.167
.44
-.168
.44
-.22
.44
-.389
.441
-.172
.44
-.112
.44
-.24
.44
-.144
.44
-.078
.44
-.16
.441
-.133
.44
-.105
.44
-.185
.44
-.211
.44
-.206
.44
-.293
.441
-.113
.44
-.099
.44
-.142
.44
-.126
.44
-.071
.44
-.086
.441
-.126
.44
-.065
.44
-.119
.44
-.107
.44
-.08
.441
-.1
.44
-.061
.44
-.098
.44
-.142
.44
-.12
.44
-.09
.441
-.186
.44
-.146
.44
-.132
.44
-.194
.44
-.055
.44
-.072
.441
-.128
.44
-.075
.44
-.08
.44
-.101
.44
-.065
.44
-.077
.441
-.185
.44
-.115
.44
-.042
.44
-.049
.44
-.072
.441
-.104
.44
-.1
.44
-.152
.44
-.08
.44
-.166
.44
-.233
.441
-.17
.44
-.255
.44
-.182
.44
-.116
.44
-.11
.44
-.109
.441
-.127
.44
-.099
.44
-.084
.44
-.149
.44
-.147
.44
-.161
.441
-.084
.44
-.148
.44
-.06
.44
-.072
.44
-.146
.441
-.092
.44
-.095
.44
-.107
.44
-.136
.44
-.125
.44
-.133
.441
-.08
.44
-.11
.44
-.129
.44
-.114
.44
-.107
.44
-.145
.441
-.101
.44
-.116
.44
-.179
.44
-.178
.44
-.071
.44
-.101
.441
-.115
.44
-.075
.44
-.103
.44
-.081
.44
-.044
.441
-.1
.44
-.051
.44
-.027
.44
-.069
.44
-.096
.44
-.049
.441
-.056
.44
-.105
.44
-.166
.44
-.108
.44
-.154
.44
-.06
.441
-.086
.44
-.068
.44
-.094
.44
-.092
.44
-.049
.44
-.067
.441
-.115
.44
-.089
.44
-.084
.44
-.152
.44
-.151
.441
-.079
.44
-.143
.44
-.079
.44
-.144
.44
-.107
.44
-.052
.441
-.063
.44
-.107
.44
-.086
.44
-.098
.44
-.175
.44
-.052
.441
-.129
.44
-.105
.44
-.085
.44
-.067
.44
-.083
.44
-.061
.441
-.081
.44
-.087
.44
-.138
.44
-.115
.44
-.239
.44
-.17
.441
-.136
.44
-.162
.44
-.122
.44
-.113
.44
-.194
.441
-.2
.44
-.106
.44
-.183
.44
-.11
.44
-.067
.44
-.125
.441
-.086
.44
-.095
.44
-.065
.44
-.139
.44
-.084
.44
-.099
.441
-.095
.44
-.112
.44
-.079
.44
-.091
.44
-.081
.44
-.091
.441
-.132
.44
-.097
.44
-.171
.44
-.103
.44
-.107
.441
-.134
.44
-.129
.44
-.14
.44
-.151
.44
-.106
.44
-.064
.441
-.131
.44
-.112
.44
-.101
.44
-.13
.44
-.147
.44
-.208
.441
-.263
.44
-.189
.44
-.103
.44
-.114
.44
-.087
.44
-.1
.441
-.142
.44
-.089
.44
-.072
.44
-.188
.44
-.164
.441
-.082
.44
-.144
.44
-.119
.44
-.11
.44
-.119
.44
-.159
.441
-.188
.44
-.122
.44
-.122
.44
-.083
.44
-.103
.44
-.091
.441
-.039
.44
-.175
.44
-.076
.44
-.122
.44
-.156
.44
-.129
.441
-.182
.44
-.172
.44
-.119
.44
-.118
.44
-.196
.441
-.1
.44
-.106
.44
-.173
.44
-.11
.44
-.129
.44
-.179
.441
-.088
.44
-.097
.44
-.154
.44
-.103
.44
-.191
.44
-.104
.441
-.178
.44
-.152
.44
-.096
.44
-.087
.44
-.119
.44
-.233
.441
-.225
.44
-.145
.44
-.196
.44
-.125
.44
-.147
.441
-.223
.44
-.17
.44
-.145
.44
-.147
.44
-.099
.44
-.123
.441
-.114
.44
-.129
.44
-.114
.44
-.133
.44
-.104
.44
-.123
.441
-.182
.44
-.139
.44
-.085
.44
-.082
.44
-.101
.44
-.097
.441
-.094
.44
-.063
.44
-.068
.44
-.111
.44
-.058
.441
-.07
.44
-.103
.44
-.1
.44
-.087
.44
-.138
.44
-.071
.441
-.115
.44
-.074
.44
-.151
.44
-.067
.44
-.124
.44
-.048
.441
-.058
.44
-.166
.44
-.087
.44
-.1
.44
-.048
.44
-.069
.441
-.118
.44
-.073
.44
-.07
.44
-.025
.44
-.073
.44
-.031
.441
-.069
.44
-.047
.44
-.112
.44
-.116
.44
-.11
.441
-.037
.44
-.065
.44
-.052
.44
-.034
.44
-.021
.44
-.096
.441
-.071
.44
-.082
.44
-.032
.44
-.062
.44
-.058
.44
-.094
.441
-.026
.44
-.045
.44
-.04
.44
-.087
.44
-.087
.44
-.062
.441
-.054
.44
-.052
.44
-.041
.44
-.035
.44
-.019
.441
-.019
.44
-.039
.44
-.062
.44
-.011
.44
-.034
.44
-.014
.441
-.027
.44
-.018
.44
-.014
.44
-.018
.44
-.013
.44
-.009
.441
-.027
.44
-.051
.44
-.02
.44
-.03
.44
-.002
.44
-.039
.441
-.034
.44
-.042
.44
-.024
.44
-.077
.44
-.028
.441
-.022
.44
-.028
.44
-.039
.44
-.037
.44
-.011
.44
-.009
.441
-.014
.44
-.017
.44
-.027
.44
-.039
.44
-.035
.44
-.029
.441
-.049
.44
-.062
.44
-.04
.44
-.038
.44
-.043
.44
-.012
.441
-.041
.44
-.059
.44
-.029
.44
-.073
.44
-.066
.441
-.042
.44
-.063
.44
-.027
.44
-.023
.44
-.021
.44
-.052
.441
-.086
.44
-.02
.44
-.073
.44
-.055
.44
-.029
.44
-.028
.441
-.016
.44
-.034
.44
-.038
.44
-.055
.44
-.05
.44
-.061
.441
-.049
.44
-.013
.44
-.061
.44
-.031
.44
-.022
.441
-.002
.44
-.026
.44
-.026
.44
-.035
.44
-.044
.44
-.016
.441
-.035
.44
-.017
.44
-.018
.44
-.019
.44
-.022
.44
-.017
.441
-.041
.44
-.023
.44
-.028
.44
-.069
.44
-.045
.44
-.029
.441
-.04
.44
-.06
.44
-.054
.44
-.025
.44
-.043
.441
-.052
.44
-.04
.44
-.027
.44
-.043
.44
-.071
.44
-.014
.441
-.011
.44
-.037
.44
-.069
.44
-.029
.44
-.074
.44
-.048
.441
-.029
.44
-.095
.44
-.061
.44
-.025
.44
-.061
.44
-.018
.441
-.042
.44
-.003
.44
-.031
.44
-.018
.44
-.016
.44
-.034
.441
-.028
.44
-.052
.44
-.049
.44
-.087
.44
-.033
.441
-.039
.44
-.015
.44
-.046
.44
-.041
.44
-.072
.44
-.017
.441
-.032
.44
-.056
.44
-.051
.44
-.017
.44
-.051
.44
-.041
.441
-.005
.44
-.028
.44
-.037
.44
-.051
.44
-.036
.44
-.033
.441
-.023
.44
-.06
.44
-.072
.44
-.039
.44
-.026
.441
-.071
.44
-.033
.44
-.031
.44
-.015
.44
-.027
.44
-.021
.441
-.059
.44
-.031
.44
-.015
.44
-.014
.44
-.047
.44
-.007
.441
-.04
.44
-.035
.44
-.024
.44
-.008
.44
-.001
.44
-.011
.441
-.008
.44
-.015
.44
-.03
.44
-.013
.44
-.014
.441
-.014
.44
-.012
.44
-.027
.44
-.059
.44
-.008
.44
-.038
.441
-.074
.44
-.107
.44
-.084
.44
-.022
.44
-.024
.44
-.033
.441
-.024
.44
-.018
.44
-.034
.44
-.052
.44
-.062
.44
-.031
.441
-.019
.44
-.002
.44
-.026
.44
-.063
.44
-.026
.441
-.022
.44
-.03
.44
-.027
.44
-.049
.44
-.036
.44
-.068
.441
-.002
.44
-.004
.44
-.018
.44
-.024
.44
-.002
.44
-.067
.441
-.022
.44
-.051
.44
-.06
h.44
l.44
-.003
.44
-.005
.441
-.009
.44
-.013
.44
-.014
.44
-.005
.44
-.038
.441
-.02
.44
-.018
.44
-.008
.44
-.003
.44
-.004
.44
-.002
.441
-.002
.44
-.002
.44
-.025
.44
-.039
.44
-.091
.44
-.095
.441
-.053
.44
-.014
h.44
l.44
-.035
.44
-.036
.44
-.024
.441
-.032
.44
-.079
.44
-.065
.44
-.035
.44
-.062
.44
-.031
.441
-.019
.44
-.028
.44
-.016
.44
-.044
.44
-.049
.441
-.022
.44
-.007
.44
-.051
.44
-.046
.44
-.065
.44
-.019
.441
-.002
.44
-.005
.44
-.017
.44
-.025
.44
-.014
.44
-.007
.441
-.014
.44
-.002
.44
-.025
.44
-.028
.44
-.044
.44
-.008
.441
-.016
.44
-.019
.44
-.016
.44
-.037
.44
-.033
.441
-.042
.44
-.025
.44
-.009
.44
-.016
.44
-.02
.44
-.034
.441
-.007
.44
-.017
.44
-.039
.44
-.041
.44
-.004
.44
-.026
.441
-.019
.44
-.017
.44
-.011
.44
-.019
.44
-.002
.44
-.002
.441
-.021
h.44
l.44
-.022
.44
-.026
h.44
l.441
-.014
.44
-.013
.44
-.023
.44
-.029
.44
-.032
.44
-.006
.441
-.016
.44
-.004
.44
-.01
.44
-.015
.44
-.049
.44
-.004
.441
-.025
.44
-.022
.44
-.009
.44
-.028
.44
-.025
.44
-.032
.441
-.041
.44
-.041
.44
-.029
.44
-.049
.44
-.008
.441
-.016
.44
-.012
.44
-.012
.44
-.003
.44
-.001
.44
-.004
.441
-.016
.44
-.015
.44
-.008
.44
-.015
.44
-.027
.44
-.011
.441
-.039
.44
-.013
.44
-.014
.44
-.012
.44
-.02
.44
-.009
.441
-.012
.44
-.042
.44
-.013
.44
-.024
.44
-.026
.441
-.003
.44
-.012
.44
-.022
.44
-.023
.44
-.003
.44
-.04
.441
-.022
.44
-.011
.44
-.014
.44
-.041
.44
-.017
.44
-.022
.441
-.015
.44
-.012
.44
-.042
.44
-.001
h.44
l.44
-.035
.441
-.058
.44
-.029
.44
-.004
.44
-.003
.44
-.001
.441
-.015
.44
-.012
.44
-.016
.44
-.047
.44
-.032
.44
-.025
.441
-.013
.44
-.052
.44
-.044
.44
-.009
.44
-.028
.44
-.01
.441
-.017
.44
-.004
.44
-.021
.44
-.016
.44
-.025
.44
-.034
.441
-.098
.44
-.045
.44
-.035
.44
-.065
.44
-.054
.44
-.026
.441
-.075
.44
-.006
.44
-.04
.44
-.015
.44
-.039
.441
-.015
.44
-.045
.44
-.022
.44
-.028
.44
-.04
.44
-.032
.441
-.046
.44
-.052
.44
-.014
.44
-.011
.44
-.059
.44
-.032
.441
-.034
.44
-.043
.44
-.03
.44
-.031
.44
-.023
.44
-.053
.441
-.021
.44
-.028
.44
-.051
.44
-.039
.44
-.07
.441
-.044
.44
-.013
.44
-.025
.44
-.02
.44
-.01
.44
-.078
.441
-.03
.44
-.028
.44
-.026
.44
-.056
.44
-.019
.44
-.011
.441
-.014
.44
-.007
.44
-.044
.44
-.026
.44
-.028
.44
-.005
.441
-.009
.44
-.009
L770
60" aria-label="line"/>
</svg>
