<svg xmlns:xlink="http://www.w3.org/1999/xlink" width="1920" height="960" viewBox="0 0 1440 720" xmlns="http://www.w3.org/2000/svg" version="1.1"><metadata><rdf:RDF xmlns:dc="http://purl.org/dc/elements/1.1/" xmlns:cc="http://creativecommons.org/ns#" xmlns:rdf="http://www.w3.org/1999/02/22-rdf-syntax-ns#"><cc:Work><dc:type rdf:resource="http://purl.org/dc/dcmitype/StillImage"/><dc:format>image/svg+xml</dc:format><dc:creator><cc:Agent><dc:title>Matplotlib v3.7.1, https://matplotlib.org/</dc:title></cc:Agent></dc:creator></cc:Work></rdf:RDF></metadata><defs><style type="text/css">*{stroke-linejoin:round;stroke-linecap:butt}</style></defs><g id="figure_1"><g id="patch_1"><path d="M 0 720 L 1440 720 L 1440 0 L 0 0 z"/></g><g id="axes_1"><g id="patch_2"><path d="M 180 640.8 L 1296 640.8 L 1296 86.4 L 180 86.4 z"/></g><g id="PolyCollection_1"><path d="M 180 630.218249 L 180 640.8 L 183.783051 640.8 L 187.566102 640.8 L 191.349153 640.8 L 195.132203 640.8 L 198.915254 640.8 L 202.698305 640.8 L 206.481356 640.8 L 210.264407 640.8 L 214.047458 640.8 L 217.830508 640.8 L 221.613559 640.8 L 225.39661 640.8 L 229.179661 640.8 L 232.962712 640.8 L 236.745763 640.8 L 240.528814 640.8 L 244.311864 640.8 L 248.094915 640.8 L 251.877966 640.8 L 255.661017 640.8 L 259.444068 640.8 L 263.227119 640.8 L 267.010169 640.8 L 270.79322 640.8 L 274.576271 640.8 L 278.359322 640.8 L 282.142373 640.8 L 285.925424 640.8 L 289.708475 640.8 L 293.491525 640.8 L 297.274576 640.8 L 301.057627 640.8 L 304.840678 640.8 L 308.623729 640.8 L 312.40678 640.8 L 316.189831 640.8 L 319.972881 640.8 L 323.755932 640.8 L 327.538983 640.8 L 331.322034 640.8 L 335.105085 640.8 L 338.888136 640.8 L 342.671186 640.8 L 346.454237 640.8 L 350.237288 640.8 L 354.020339 640.8 L 357.80339 640.8 L 361.586441 640.8 L 365.369492 640.8 L 369.152542 640.8 L 372.935593 640.8 L 376.718644 640.8 L 380.501695 640.8 L 384.284746 640.8 L 388.067797 640.8 L 391.850847 640.8 L 395.633898 640.8 L 399.416949 640.8 L 403.2 640.8 L 406.983051 640.8 L 410.766102 640.8 L 414.549153 640.8 L 418.332203 640.8 L 422.115254 640.8 L 425.898305 640.8 L 429.681356 640.8 L 433.464407 640.8 L 437.247458 640.8 L 441.030508 640.8 L 444.813559 640.8 L 448.59661 640.8 L 452.379661 640.8 L 456.162712 640.8 L 459.945763 640.8 L 463.728814 640.8 L 467.511864 640.8 L 471.294915 640.8 L 475.077966 640.8 L 478.861017 640.8 L 482.644068 640.8 L 486.427119 640.8 L 490.210169 640.8 L 493.99322 640.8 L 497.776271 640.8 L 501.559322 640.8 L 505.342373 640.8 L 509.125424 640.8 L 512.908475 640.8 L 516.691525 640.8 L 520.474576 640.8 L 524.257627 640.8 L 528.040678 640.8 L 531.823729 640.8 L 535.60678 640.8 L 539.389831 640.8 L 543.172881 640.8 L 546.955932 640.8 L 550.738983 640.8 L 554.522034 640.8 L 558.305085 640.8 L 562.088136 640.8 L 565.871186 640.8 L 569.654237 640.8 L 573.437288 640.8 L 577.220339 640.8 L 581.00339 640.8 L 584.786441 640.8 L 588.569492 640.8 L 592.352542 640.8 L 596.135593 640.8 L 599.918644 640.8 L 603.701695 640.8 L 607.484746 640.8 L 611.267797 640.8 L 615.050847 640.8 L 618.833898 640.8 L 622.616949 640.8 L 626.4 640.8 L 630.183051 640.8 L 633.966102 640.8 L 637.749153 640.8 L 641.532203 640.8 L 645.315254 640.8 L 649.098305 640.8 L 652.881356 640.8 L 656.664407 640.8 L 660.447458 640.8 L 664.230508 640.8 L 668.013559 640.8 L 671.79661 640.8 L 675.579661 640.8 L 679.362712 640.8 L 683.145763 640.8 L 686.928814 640.8 L 690.711864 640.8 L 694.494915 640.8 L 698.277966 640.8 L 702.061017 640.8 L 705.844068 640.8 L 709.627119 640.8 L 713.410169 640.8 L 717.19322 640.8 L 720.976271 640.8 L 724.759322 640.8 L 728.542373 640.8 L 732.325424 640.8 L 736.108475 640.8 L 739.891525 640.8 L 743.674576 640.8 L 747.457627 640.8 L 751.240678 640.8 L 755.023729 640.8 L 758.80678 640.8 L 762.589831 640.8 L 766.372881 640.8 L 770.155932 640.8 L 773.938983 640.8 L 777.722034 640.8 L 781.505085 640.8 L 785.288136 640.8 L 789.071186 640.8 L 792.854237 640.8 L 796.637288 640.8 L 800.420339 640.8 L 804.20339 640.8 L 807.986441 640.8 L 811.769492 640.8 L 815.552542 640.8 L 819.335593 640.8 L 823.118644 640.8 L 826.901695 640.8 L 830.684746 640.8 L 834.467797 640.8 L 838.250847 640.8 L 842.033898 640.8 L 845.816949 640.8 L 849.6 640.8 L 853.383051 640.8 L 857.166102 640.8 L 860.949153 640.8 L 864.732203 640.8 L 868.515254 640.8 L 872.298305 640.8 L 876.081356 640.8 L 879.864407 640.8 L 883.647458 640.8 L 887.430508 640.8 L 891.213559 640.8 L 894.99661 640.8 L 898.779661 640.8 L 902.562712 640.8 L 906.345763 640.8 L 910.128814 640.8 L 913.911864 640.8 L 917.694915 640.8 L 921.477966 640.8 L 925.261017 640.8 L 929.044068 640.8 L 932.827119 640.8 L 936.610169 640.8 L 940.39322 640.8 L 944.176271 640.8 L 947.959322 640.8 L 951.742373 640.8 L 955.525424 640.8 L 959.308475 640.8 L 963.091525 640.8 L 966.874576 640.8 L 970.657627 640.8 L 974.440678 640.8 L 978.223729 640.8 L 982.00678 640.8 L 985.789831 640.8 L 989.572881 640.8 L 993.355932 640.8 L 997.138983 640.8 L 1000.922034 640.8 L 1004.705085 640.8 L 1008.488136 640.8 L 1012.271186 640.8 L 1016.054237 640.8 L 1019.837288 640.8 L 1023.620339 640.8 L 1027.40339 640.8 L 1031.186441 640.8 L 1034.969492 640.8 L 1038.752542 640.8 L 1042.535593 640.8 L 1046.318644 640.8 L 1050.101695 640.8 L 1053.884746 640.8 L 1057.667797 640.8 L 1061.450847 640.8 L 1065.233898 640.8 L 1069.016949 640.8 L 1072.8 640.8 L 1076.583051 640.8 L 1080.366102 640.8 L 1084.149153 640.8 L 1087.932203 640.8 L 1091.715254 640.8 L 1095.498305 640.8 L 1099.281356 640.8 L 1103.064407 640.8 L 1106.847458 640.8 L 1110.630508 640.8 L 1114.413559 640.8 L 1118.19661 640.8 L 1121.979661 640.8 L 1125.762712 640.8 L 1129.545763 640.8 L 1133.328814 640.8 L 1137.111864 640.8 L 1140.894915 640.8 L 1144.677966 640.8 L 1148.461017 640.8 L 1152.244068 640.8 L 1156.027119 640.8 L 1159.810169 640.8 L 1163.59322 640.8 L 1167.376271 640.8 L 1171.159322 640.8 L 1174.942373 640.8 L 1178.725424 640.8 L 1182.508475 640.8 L 1186.291525 640.8 L 1190.074576 640.8 L 1193.857627 640.8 L 1197.640678 640.8 L 1201.423729 640.8 L 1205.20678 640.8 L 1208.989831 640.8 L 1212.772881 640.8 L 1216.555932 640.8 L 1220.338983 640.8 L 1224.122034 640.8 L 1227.905085 640.8 L 1231.688136 640.8 L 1235.471186 640.8 L 1239.254237 640.8 L 1243.037288 640.8 L 1246.820339 640.8 L 1250.60339 640.8 L 1254.386441 640.8 L 1258.169492 640.8 L 1261.952542 640.8 L 1265.735593 640.8 L 1269.518644 640.8 L 1273.301695 640.8 L 1277.084746 640.8 L 1280.867797 640.8 L 1284.650847 640.8 L 1288.433898 640.8 L 1292.216949 640.8 L 1296 640.8 L 1299.783051 640.8 L 1303.566102 640.8 L 1307.349153 640.8 L 1311.132203 640.8 L 1314.915254 640.8 L 1318.698305 640.8 L 1322.481356 640.8 L 1322.481356 507.25377 L 1322.481356 507.25377 L 1318.698305 502.209758 L 1314.915254 501.509201 L 1311.132203 501.64264 L 1307.349153 501.322385 L 1303.566102 501.529216 L 1299.783051 499.327465 L 1296 495.991478 L 1292.216949 492.48202 L 1288.433898 492.508708 L 1284.650847 494.436908 L 1280.867797 494.243421 L 1277.084746 493.809743 L 1273.301695 492.688851 L 1269.518644 492.895682 L 1265.735593 490.773994 L 1261.952542 490.773994 L 1258.169492 489.679791 L 1254.386441 488.525539 L 1250.60339 486.984313 L 1246.820339 487.604807 L 1243.037288 484.102021 L 1239.254237 478.731082 L 1235.471186 476.309155 L 1231.688136 477.716942 L 1227.905085 478.090572 L 1224.122034 478.257371 L 1220.338983 479.958725 L 1216.555932 479.324887 L 1212.772881 478.01718 L 1208.989831 477.390015 L 1205.20678 476.008916 L 1201.423729 475.641958 L 1197.640678 474.934728 L 1193.857627 473.293423 L 1190.074576 467.582213 L 1186.291525 463.392214 L 1182.508475 464.566481 L 1178.725424 467.075143 L 1174.942373 465.467197 L 1171.159322 464.25957 L 1167.376271 462.137882 L 1163.59322 455.646052 L 1159.810169 451.88973 L 1156.027119 450.688775 L 1152.244068 449.828091 L 1148.461017 448.226817 L 1144.677966 447.386148 L 1140.894915 444.457152 L 1137.111864 440.233792 L 1133.328814 434.942917 L 1129.545763 434.54927 L 1125.762712 438.592486 L 1121.979661 441.641579 L 1118.19661 441.127837 L 1114.413559 439.319732 L 1110.630508 437.037917 L 1106.847458 434.262375 L 1103.064407 432.927981 L 1099.281356 433.495098 L 1095.498305 434.949589 L 1091.715254 436.537518 L 1087.932203 437.911945 L 1084.149153 435.76357 L 1080.366102 433.321627 L 1076.583051 436.303999 L 1072.8 439.626642 L 1069.016949 438.745942 L 1065.233898 437.531643 L 1061.450847 436.477471 L 1057.667797 430.732901 L 1053.884746 426.349414 L 1050.101695 429.064908 L 1046.318644 429.825513 L 1042.535593 431.146564 L 1038.752542 432.52099 L 1034.969492 432.854589 L 1031.186441 429.498586 L 1027.40339 427.703825 L 1023.620339 430.399302 L 1019.837288 435.249828 L 1016.054237 435.22314 L 1012.271186 435.109716 L 1008.488136 431.239971 L 1004.705085 428.010736 L 1000.922034 424.501278 L 997.138983 425.095083 L 993.355932 425.515418 L 989.572881 425.835672 L 985.789831 423.720657 L 982.00678 421.77244 L 978.223729 418.036135 L 974.440678 414.19975 L 970.657627 414.947011 L 966.874576 416.107934 L 963.091525 415.667584 L 959.308475 413.08553 L 955.525424 410.016422 L 951.742373 406.473604 L 947.959322 401.489639 L 944.176271 402.710611 L 940.39322 400.889162 L 936.610169 396.82593 L 932.827119 394.964449 L 929.044068 390.767777 L 925.261017 387.271663 L 921.477966 384.035756 L 917.694915 385.210023 L 913.911864 385.770469 L 910.128814 385.069912 L 906.345763 380.459578 L 902.562712 378.224466 L 898.779661 371.61254 L 894.99661 366.335009 L 891.213559 363.352637 L 887.430508 363.139133 L 883.647458 359.703067 L 879.864407 357.034277 L 876.081356 354.792494 L 872.298305 353.317988 L 868.515254 351.389787 L 864.732203 350.982797 L 860.949153 349.308131 L 857.166102 348.854437 L 853.383051 345.098116 L 849.6 341.955616 L 845.816949 343.01646 L 842.033898 344.370871 L 838.250847 346.405823 L 834.467797 349.248084 L 830.684746 350.21552 L 826.901695 354.192016 L 823.118644 355.933402 L 819.335593 355.026013 L 815.552542 354.872558 L 811.769492 352.991061 L 807.986441 353.431411 L 804.20339 351.83681 L 800.420339 352.924341 L 796.637288 351.29638 L 792.854237 350.529103 L 789.071186 351.683354 L 785.288136 355.332924 L 781.505085 360.797271 L 777.722034 363.886394 L 773.938983 363.806331 L 770.155932 367.409197 L 766.372881 369.630964 L 762.589831 368.169802 L 758.80678 370.531681 L 755.023729 367.796171 L 751.240678 366.03477 L 747.457627 366.64192 L 743.674576 363.953114 L 739.891525 365.747875 L 736.108475 364.873847 L 732.325424 363.913082 L 728.542373 366.16821 L 724.759322 364.526904 L 720.976271 362.718799 L 717.19322 360.797271 L 713.410169 360.156761 L 709.627119 359.162637 L 705.844068 360.183449 L 702.061017 358.155169 L 698.277966 359.536267 L 694.494915 358.128481 L 690.711864 358.915774 L 686.928814 357.114341 L 683.145763 355.719898 L 679.362712 356.573911 L 675.579661 355.813306 L 671.79661 355.553099 L 668.013559 353.438083 L 664.230508 352.690822 L 660.447458 351.449835 L 656.664407 350.262224 L 652.881356 348.680966 L 649.098305 348.640934 L 645.315254 345.071428 L 641.532203 345.858721 L 637.749153 344.317495 L 633.966102 339.680473 L 630.183051 336.164343 L 626.4 332.788324 L 622.616949 333.608977 L 618.833898 331.814216 L 615.050847 326.75686 L 611.267797 325.188946 L 607.484746 320.338421 L 603.701695 315.221017 L 599.918644 313.559695 L 596.135593 313.706479 L 592.352542 312.89917 L 588.569492 315.648023 L 584.786441 314.220221 L 581.00339 312.572243 L 577.220339 308.008613 L 573.437288 307.414807 L 569.654237 306.447371 L 565.871186 304.419091 L 562.088136 300.762849 L 558.305085 297.693741 L 554.522034 293.790636 L 550.738983 287.34551 L 546.955932 286.931847 L 543.172881 284.062899 L 539.389831 282.528345 L 535.60678 283.655908 L 531.823729 281.987915 L 528.040678 279.512612 L 524.257627 276.850495 L 520.474576 279.892915 L 516.691525 284.936927 L 512.908475 280.513408 L 509.125424 280.039698 L 505.342373 277.244141 L 501.559322 272.607119 L 497.776271 266.061913 L 493.99322 267.382964 L 490.210169 271.039205 L 486.427119 271.719747 L 482.644068 268.110209 L 478.861017 265.3747 L 475.077966 254.699541 L 471.294915 248.287774 L 467.511864 244.097775 L 463.728814 244.431373 L 459.945763 238.206422 L 456.162712 234.156534 L 452.379661 228.238493 L 448.59661 219.111232 L 444.813559 210.264195 L 441.030508 204.80652 L 437.247458 200.049403 L 433.464407 191.369165 L 429.681356 184.430312 L 425.898305 179.753258 L 422.115254 165.328451 L 418.332203 154.493165 L 414.549153 148.008006 L 410.766102 148.755267 L 406.983051 144.63866 L 403.2 136.96589 L 399.416949 136.725698 L 395.633898 124.209075 L 391.850847 117.203503 L 388.067797 118.931544 L 384.284746 124.008916 L 380.501695 127.645142 L 376.718644 131.494871 L 372.935593 127.685174 L 369.152542 121.146639 L 365.369492 112.8 L 361.586441 115.428758 L 357.80339 116.949968 L 354.020339 115.782372 L 350.237288 116.489602 L 346.454237 119.285159 L 342.671186 118.804777 L 338.888136 118.237659 L 335.105085 126.69105 L 331.322034 132.962705 L 327.538983 138.460412 L 323.755932 145.225793 L 319.972881 150.176398 L 316.189831 145.139058 L 312.40678 140.655491 L 308.623729 150.389901 L 304.840678 161.872368 L 301.057627 172.734342 L 297.274576 178.445551 L 293.491525 182.662239 L 289.708475 189.000614 L 285.925424 206.200963 L 282.142373 229.552872 L 278.359322 249.969112 L 274.576271 264.914333 L 270.79322 277.424284 L 267.010169 287.68578 L 263.227119 295.752197 L 259.444068 309.443087 L 255.661017 329.759248 L 251.877966 350.295584 L 248.094915 366.935487 L 244.311864 382.607953 L 240.528814 399.254528 L 236.745763 411.717776 L 232.962712 425.361962 L 229.179661 441.661594 L 225.39661 459.15551 L 221.613559 472.532818 L 217.830508 487.111081 L 214.047458 502.056302 L 210.264407 515.553706 L 206.481356 530.252064 L 202.698305 553.79746 L 198.915254 573.719974 L 195.132203 588.131438 L 191.349153 600.100959 L 187.566102 609.495098 L 183.783051 618.595671 L 180 630.218249 z" clip-path="url(#p23dcd407b1)" fill="#1f77b4"/></g><g id="matplotlib.axis_1"><g id="xtick_1"><g id="line2d_1"><defs><path id="md8758cf09d" d="M 0 0 L 0 3.5" stroke="#ffffff" stroke-width="0.8"/></defs><g><use xlink:href="#md8758cf09d" x="180" y="640.8" fill="#ffffff" stroke="#ffffff" stroke-width="0.8"/></g></g><g id="text_1"><g transform="translate(176.81875 655.398438) scale(0.1 -0.1)" fill="#ffffff"><defs><path id="DejaVuSans-30" d="M 2034 4250 Q 1547 4250 1301 3770 Q 1056 3291 1056 2328 Q 1056 1369 1301 889 Q 1547 409 2034 409 Q 2525 409 2770 889 Q 3016 1369 3016 2328 Q 3016 3291 2770 3770 Q 2525 4250 2034 4250 z M 2034 4750 Q 2819 4750 3233 4129 Q 3647 3509 3647 2328 Q 3647 1150 3233 529 Q 2819 -91 2034 -91 Q 1250 -91 836 529 Q 422 1150 422 2328 Q 422 3509 836 4129 Q 1250 4750 2034 4750 z" transform="scale(0.015625)"/></defs><use xlink:href="#DejaVuSans-30"/></g></g></g><g id="xtick_2"><g id="line2d_2"><g><use xlink:href="#md8758cf09d" x="369.153" y="640.8" fill="#ffffff" stroke="#ffffff" stroke-width="0.8"/></g></g><g id="text_2"><g transform="translate(362.790042 655.398438) scale(0.1 -0.1)" fill="#ffffff"><defs><path id="DejaVuSans-35" d="M 691 4666 L 3169 4666 L 3169 4134 L 1269 4134 L 1269 2991 Q 1406 3038 1543 3061 Q 1681 3084 1819 3084 Q 2600 3084 3056 2656 Q 3513 2228 3513 1497 Q 3513 744 3044 326 Q 2575 -91 1722 -91 Q 1428 -91 1123 -41 Q 819 9 494 109 L 494 744 Q 775 591 1075 516 Q 1375 441 1709 441 Q 2250 441 2565 725 Q 2881 1009 2881 1497 Q 2881 1984 2565 2268 Q 2250 2553 1709 2553 Q 1456 2553 1204 2497 Q 953 2441 691 2322 L 691 4666 z" transform="scale(0.015625)"/></defs><use xlink:href="#DejaVuSans-35"/><use xlink:href="#DejaVuSans-30" x="63.623"/></g></g></g><g id="xtick_3"><g id="line2d_3"><g><use xlink:href="#md8758cf09d" x="558.305" y="640.8" fill="#ffffff" stroke="#ffffff" stroke-width="0.8"/></g></g><g id="text_3"><g transform="translate(548.761335 655.398438) scale(0.1 -0.1)" fill="#ffffff"><defs><path id="DejaVuSans-31" d="M 794 531 L 1825 531 L 1825 4091 L 703 3866 L 703 4441 L 1819 4666 L 2450 4666 L 2450 531 L 3481 531 L 3481 0 L 794 0 L 794 531 z" transform="scale(0.015625)"/></defs><use xlink:href="#DejaVuSans-31"/><use xlink:href="#DejaVuSans-30" x="63.623"/><use xlink:href="#DejaVuSans-30" x="127.246"/></g></g></g><g id="xtick_4"><g id="line2d_4"><g><use xlink:href="#md8758cf09d" x="747.458" y="640.8" fill="#ffffff" stroke="#ffffff" stroke-width="0.8"/></g></g><g id="text_4"><g transform="translate(737.913877 655.398438) scale(0.1 -0.1)" fill="#ffffff"><use xlink:href="#DejaVuSans-31"/><use xlink:href="#DejaVuSans-35" x="63.623"/><use xlink:href="#DejaVuSans-30" x="127.246"/></g></g></g><g id="xtick_5"><g id="line2d_5"><g><use xlink:href="#md8758cf09d" x="936.61" y="640.8" fill="#ffffff" stroke="#ffffff" stroke-width="0.8"/></g></g><g id="text_5"><g transform="translate(927.066419 655.398438) scale(0.1 -0.1)" fill="#ffffff"><defs><path id="DejaVuSans-32" d="M 1228 531 L 3431 531 L 3431 0 L 469 0 L 469 531 Q 828 903 1448 1529 Q 2069 2156 2228 2338 Q 2531 2678 2651 2914 Q 2772 3150 2772 3378 Q 2772 3750 2511 3984 Q 2250 4219 1831 4219 Q 1534 4219 1204 4116 Q 875 4013 500 3803 L 500 4441 Q 881 4594 1212 4672 Q 1544 4750 1819 4750 Q 2544 4750 2975 4387 Q 3406 4025 3406 3419 Q 3406 3131 3298 2873 Q 3191 2616 2906 2266 Q 2828 2175 2409 1742 Q 1991 1309 1228 531 z" transform="scale(0.015625)"/></defs><use xlink:href="#DejaVuSans-32"/><use xlink:href="#DejaVuSans-30" x="63.623"/><use xlink:href="#DejaVuSans-30" x="127.246"/></g></g></g><g id="xtick_6"><g id="line2d_6"><g><use xlink:href="#md8758cf09d" x="1125.763" y="640.8" fill="#ffffff" stroke="#ffffff" stroke-width="0.8"/></g></g><g id="text_6"><g transform="translate(1116.218962 655.398438) scale(0.1 -0.1)" fill="#ffffff"><use xlink:href="#DejaVuSans-32"/><use xlink:href="#DejaVuSans-35" x="63.623"/><use xlink:href="#DejaVuSans-30" x="127.246"/></g></g></g><g id="xtick_7"><g id="line2d_7"><defs><path id="m17cac12b32" d="M 0 0 L 0 2" stroke="#ffffff" stroke-width="0.6"/></defs><g><use xlink:href="#m17cac12b32" x="217.831" y="640.8" fill="#ffffff" stroke="#ffffff" stroke-width="0.6"/></g></g></g><g id="xtick_8"><g id="line2d_8"><g><use xlink:href="#m17cac12b32" x="255.661" y="640.8" fill="#ffffff" stroke="#ffffff" stroke-width="0.6"/></g></g></g><g id="xtick_9"><g id="line2d_9"><g><use xlink:href="#m17cac12b32" x="293.492" y="640.8" fill="#ffffff" stroke="#ffffff" stroke-width="0.6"/></g></g></g><g id="xtick_10"><g id="line2d_10"><g><use xlink:href="#m17cac12b32" x="331.322" y="640.8" fill="#ffffff" stroke="#ffffff" stroke-width="0.6"/></g></g></g><g id="xtick_11"><g id="line2d_11"><g><use xlink:href="#m17cac12b32" x="406.983" y="640.8" fill="#ffffff" stroke="#ffffff" stroke-width="0.6"/></g></g></g><g id="xtick_12"><g id="line2d_12"><g><use xlink:href="#m17cac12b32" x="444.814" y="640.8" fill="#ffffff" stroke="#ffffff" stroke-width="0.6"/></g></g></g><g id="xtick_13"><g id="line2d_13"><g><use xlink:href="#m17cac12b32" x="482.644" y="640.8" fill="#ffffff" stroke="#ffffff" stroke-width="0.6"/></g></g></g><g id="xtick_14"><g id="line2d_14"><g><use xlink:href="#m17cac12b32" x="520.475" y="640.8" fill="#ffffff" stroke="#ffffff" stroke-width="0.6"/></g></g></g><g id="xtick_15"><g id="line2d_15"><g><use xlink:href="#m17cac12b32" x="596.136" y="640.8" fill="#ffffff" stroke="#ffffff" stroke-width="0.6"/></g></g></g><g id="xtick_16"><g id="line2d_16"><g><use xlink:href="#m17cac12b32" x="633.966" y="640.8" fill="#ffffff" stroke="#ffffff" stroke-width="0.6"/></g></g></g><g id="xtick_17"><g id="line2d_17"><g><use xlink:href="#m17cac12b32" x="671.797" y="640.8" fill="#ffffff" stroke="#ffffff" stroke-width="0.6"/></g></g></g><g id="xtick_18"><g id="line2d_18"><g><use xlink:href="#m17cac12b32" x="709.627" y="640.8" fill="#ffffff" stroke="#ffffff" stroke-width="0.6"/></g></g></g><g id="xtick_19"><g id="line2d_19"><g><use xlink:href="#m17cac12b32" x="785.288" y="640.8" fill="#ffffff" stroke="#ffffff" stroke-width="0.6"/></g></g></g><g id="xtick_20"><g id="line2d_20"><g><use xlink:href="#m17cac12b32" x="823.119" y="640.8" fill="#ffffff" stroke="#ffffff" stroke-width="0.6"/></g></g></g><g id="xtick_21"><g id="line2d_21"><g><use xlink:href="#m17cac12b32" x="860.949" y="640.8" fill="#ffffff" stroke="#ffffff" stroke-width="0.6"/></g></g></g><g id="xtick_22"><g id="line2d_22"><g><use xlink:href="#m17cac12b32" x="898.78" y="640.8" fill="#ffffff" stroke="#ffffff" stroke-width="0.6"/></g></g></g><g id="xtick_23"><g id="line2d_23"><g><use xlink:href="#m17cac12b32" x="974.441" y="640.8" fill="#ffffff" stroke="#ffffff" stroke-width="0.6"/></g></g></g><g id="xtick_24"><g id="line2d_24"><g><use xlink:href="#m17cac12b32" x="1012.271" y="640.8" fill="#ffffff" stroke="#ffffff" stroke-width="0.6"/></g></g></g><g id="xtick_25"><g id="line2d_25"><g><use xlink:href="#m17cac12b32" x="1050.102" y="640.8" fill="#ffffff" stroke="#ffffff" stroke-width="0.6"/></g></g></g><g id="xtick_26"><g id="line2d_26"><g><use xlink:href="#m17cac12b32" x="1087.932" y="640.8" fill="#ffffff" stroke="#ffffff" stroke-width="0.6"/></g></g></g><g id="xtick_27"><g id="line2d_27"><g><use xlink:href="#m17cac12b32" x="1163.593" y="640.8" fill="#ffffff" stroke="#ffffff" stroke-width="0.6"/></g></g></g><g id="xtick_28"><g id="line2d_28"><g><use xlink:href="#m17cac12b32" x="1201.424" y="640.8" fill="#ffffff" stroke="#ffffff" stroke-width="0.6"/></g></g></g><g id="xtick_29"><g id="line2d_29"><g><use xlink:href="#m17cac12b32" x="1239.254" y="640.8" fill="#ffffff" stroke="#ffffff" stroke-width="0.6"/></g></g></g><g id="xtick_30"><g id="line2d_30"><g><use xlink:href="#m17cac12b32" x="1277.085" y="640.8" fill="#ffffff" stroke="#ffffff" stroke-width="0.6"/></g></g></g><g id="text_7"><g transform="translate(664.841406 669.076563) scale(0.1 -0.1)" fill="#ffffff"><defs><path id="DejaVuSans-44" d="M 1259 4147 L 1259 519 L 2022 519 Q 2988 519 3436 956 Q 3884 1394 3884 2338 Q 3884 3275 3436 3711 Q 2988 4147 2022 4147 L 1259 4147 z M 628 4666 L 1925 4666 Q 3281 4666 3915 4102 Q 4550 3538 4550 2338 Q 4550 1131 3912 565 Q 3275 0 1925 0 L 628 0 L 628 4666 z" transform="scale(0.015625)"/><path id="DejaVuSans-61" d="M 2194 1759 Q 1497 1759 1228 1600 Q 959 1441 959 1056 Q 959 750 1161 570 Q 1363 391 1709 391 Q 2188 391 2477 730 Q 2766 1069 2766 1631 L 2766 1759 L 2194 1759 z M 3341 1997 L 3341 0 L 2766 0 L 2766 531 Q 2569 213 2275 61 Q 1981 -91 1556 -91 Q 1019 -91 701 211 Q 384 513 384 1019 Q 384 1609 779 1909 Q 1175 2209 1959 2209 L 2766 2209 L 2766 2266 Q 2766 2663 2505 2880 Q 2244 3097 1772 3097 Q 1472 3097 1187 3025 Q 903 2953 641 2809 L 641 3341 Q 956 3463 1253 3523 Q 1550 3584 1831 3584 Q 2591 3584 2966 3190 Q 3341 2797 3341 1997 z" transform="scale(0.015625)"/><path id="DejaVuSans-79" d="M 2059 -325 Q 1816 -950 1584 -1140 Q 1353 -1331 966 -1331 L 506 -1331 L 506 -850 L 844 -850 Q 1081 -850 1212 -737 Q 1344 -625 1503 -206 L 1606 56 L 191 3500 L 800 3500 L 1894 763 L 2988 3500 L 3597 3500 L 2059 -325 z" transform="scale(0.015625)"/><path id="DejaVuSans-73" d="M 2834 3397 L 2834 2853 Q 2591 2978 2328 3040 Q 2066 3103 1784 3103 Q 1356 3103 1142 2972 Q 928 2841 928 2578 Q 928 2378 1081 2264 Q 1234 2150 1697 2047 L 1894 2003 Q 2506 1872 2764 1633 Q 3022 1394 3022 966 Q 3022 478 2636 193 Q 2250 -91 1575 -91 Q 1294 -91 989 -36 Q 684 19 347 128 L 347 722 Q 666 556 975 473 Q 1284 391 1588 391 Q 1994 391 2212 530 Q 2431 669 2431 922 Q 2431 1156 2273 1281 Q 2116 1406 1581 1522 L 1381 1569 Q 847 1681 609 1914 Q 372 2147 372 2553 Q 372 3047 722 3315 Q 1072 3584 1716 3584 Q 2034 3584 2315 3537 Q 2597 3491 2834 3397 z" transform="scale(0.015625)"/><path id="DejaVuSans-20" transform="scale(0.015625)"/><path id="DejaVuSans-69" d="M 603 3500 L 1178 3500 L 1178 0 L 603 0 L 603 3500 z M 603 4863 L 1178 4863 L 1178 4134 L 603 4134 L 603 4863 z" transform="scale(0.015625)"/><path id="DejaVuSans-6e" d="M 3513 2113 L 3513 0 L 2938 0 L 2938 2094 Q 2938 2591 2744 2837 Q 2550 3084 2163 3084 Q 1697 3084 1428 2787 Q 1159 2491 1159 1978 L 1159 0 L 581 0 L 581 3500 L 1159 3500 L 1159 2956 Q 1366 3272 1645 3428 Q 1925 3584 2291 3584 Q 2894 3584 3203 3211 Q 3513 2838 3513 2113 z" transform="scale(0.015625)"/><path id="DejaVuSans-63" d="M 3122 3366 L 3122 2828 Q 2878 2963 2633 3030 Q 2388 3097 2138 3097 Q 1578 3097 1268 2742 Q 959 2388 959 1747 Q 959 1106 1268 751 Q 1578 397 2138 397 Q 2388 397 2633 464 Q 2878 531 3122 666 L 3122 134 Q 2881 22 2623 -34 Q 2366 -91 2075 -91 Q 1284 -91 818 406 Q 353 903 353 1747 Q 353 2603 823 3093 Q 1294 3584 2113 3584 Q 2378 3584 2631 3529 Q 2884 3475 3122 3366 z" transform="scale(0.015625)"/><path id="DejaVuSans-65" d="M 3597 1894 L 3597 1613 L 953 1613 Q 991 1019 1311 708 Q 1631 397 2203 397 Q 2534 397 2845 478 Q 3156 559 3463 722 L 3463 178 Q 3153 47 2828 -22 Q 2503 -91 2169 -91 Q 1331 -91 842 396 Q 353 884 353 1716 Q 353 2575 817 3079 Q 1281 3584 2069 3584 Q 2775 3584 3186 3129 Q 3597 2675 3597 1894 z M 3022 2063 Q 3016 2534 2758 2815 Q 2500 3097 2075 3097 Q 1594 3097 1305 2825 Q 1016 2553 972 2059 L 3022 2063 z" transform="scale(0.015625)"/><path id="DejaVuSans-36" d="M 2113 2584 Q 1688 2584 1439 2293 Q 1191 2003 1191 1497 Q 1191 994 1439 701 Q 1688 409 2113 409 Q 2538 409 2786 701 Q 3034 994 3034 1497 Q 3034 2003 2786 2293 Q 2538 2584 2113 2584 z M 3366 4563 L 3366 3988 Q 3128 4100 2886 4159 Q 2644 4219 2406 4219 Q 1781 4219 1451 3797 Q 1122 3375 1075 2522 Q 1259 2794 1537 2939 Q 1816 3084 2150 3084 Q 2853 3084 3261 2657 Q 3669 2231 3669 1497 Q 3669 778 3244 343 Q 2819 -91 2113 -91 Q 1303 -91 875 529 Q 447 1150 447 2328 Q 447 3434 972 4092 Q 1497 4750 2381 4750 Q 2619 4750 2861 4703 Q 3103 4656 3366 4563 z" transform="scale(0.015625)"/><path id="DejaVuSans-2f" d="M 1625 4666 L 2156 4666 L 531 -594 L 0 -594 L 1625 4666 z" transform="scale(0.015625)"/><path id="DejaVuSans-33" d="M 2597 2516 Q 3050 2419 3304 2112 Q 3559 1806 3559 1356 Q 3559 666 3084 287 Q 2609 -91 1734 -91 Q 1441 -91 1130 -33 Q 819 25 488 141 L 488 750 Q 750 597 1062 519 Q 1375 441 1716 441 Q 2309 441 2620 675 Q 2931 909 2931 1356 Q 2931 1769 2642 2001 Q 2353 2234 1838 2234 L 1294 2234 L 1294 2753 L 1863 2753 Q 2328 2753 2575 2939 Q 2822 3125 2822 3475 Q 2822 3834 2567 4026 Q 2313 4219 1838 4219 Q 1578 4219 1281 4162 Q 984 4106 628 3988 L 628 4550 Q 988 4650 1302 4700 Q 1616 4750 1894 4750 Q 2613 4750 3031 4423 Q 3450 4097 3450 3541 Q 3450 3153 3228 2886 Q 3006 2619 2597 2516 z" transform="scale(0.015625)"/><path id="DejaVuSans-28" d="M 1984 4856 Q 1566 4138 1362 3434 Q 1159 2731 1159 2009 Q 1159 1288 1364 580 Q 1569 -128 1984 -844 L 1484 -844 Q 1016 -109 783 600 Q 550 1309 550 2009 Q 550 2706 781 3412 Q 1013 4119 1484 4856 L 1984 4856 z" transform="scale(0.015625)"/><path id="DejaVuSans-55" d="M 556 4666 L 1191 4666 L 1191 1831 Q 1191 1081 1462 751 Q 1734 422 2344 422 Q 2950 422 3222 751 Q 3494 1081 3494 1831 L 3494 4666 L 4128 4666 L 4128 1753 Q 4128 841 3676 375 Q 3225 -91 2344 -91 Q 1459 -91 1007 375 Q 556 841 556 1753 L 556 4666 z" transform="scale(0.015625)"/><path id="DejaVuSans-43" d="M 4122 4306 L 4122 3641 Q 3803 3938 3442 4084 Q 3081 4231 2675 4231 Q 1875 4231 1450 3742 Q 1025 3253 1025 2328 Q 1025 1406 1450 917 Q 1875 428 2675 428 Q 3081 428 3442 575 Q 3803 722 4122 1019 L 4122 359 Q 3791 134 3420 21 Q 3050 -91 2638 -91 Q 1578 -91 968 557 Q 359 1206 359 2328 Q 359 3453 968 4101 Q 1578 4750 2638 4750 Q 3056 4750 3426 4639 Q 3797 4528 4122 4306 z" transform="scale(0.015625)"/><path id="DejaVuSans-54" d="M -19 4666 L 3928 4666 L 3928 4134 L 2272 4134 L 2272 0 L 1638 0 L 1638 4134 L -19 4134 L -19 4666 z" transform="scale(0.015625)"/><path id="DejaVuSans-29" d="M 513 4856 L 1013 4856 Q 1481 4119 1714 3412 Q 1947 2706 1947 2009 Q 1947 1309 1714 600 Q 1481 -109 1013 -844 L 513 -844 Q 928 -128 1133 580 Q 1338 1288 1338 2009 Q 1338 2731 1133 3434 Q 928 4138 513 4856 z" transform="scale(0.015625)"/></defs><use xlink:href="#DejaVuSans-44"/><use xlink:href="#DejaVuSans-61" x="77.002"/><use xlink:href="#DejaVuSans-79" x="138.281"/><use xlink:href="#DejaVuSans-73" x="197.461"/><use xlink:href="#DejaVuSans-20" x="249.561"/><use xlink:href="#DejaVuSans-73" x="281.348"/><use xlink:href="#DejaVuSans-69" x="333.447"/><use xlink:href="#DejaVuSans-6e" x="361.23"/><use xlink:href="#DejaVuSans-63" x="424.609"/><use xlink:href="#DejaVuSans-65" x="479.59"/><use xlink:href="#DejaVuSans-20" x="541.113"/><use xlink:href="#DejaVuSans-32" x="572.9"/><use xlink:href="#DejaVuSans-36" x="636.523"/><use xlink:href="#DejaVuSans-2f" x="700.146"/><use xlink:href="#DejaVuSans-30" x="733.838"/><use xlink:href="#DejaVuSans-32" x="797.461"/><use xlink:href="#DejaVuSans-2f" x="861.084"/><use xlink:href="#DejaVuSans-32" x="894.775"/><use xlink:href="#DejaVuSans-30" x="958.398"/><use xlink:href="#DejaVuSans-32" x="1022.021"/><use xlink:href="#DejaVuSans-33" x="1085.645"/><use xlink:href="#DejaVuSans-20" x="1149.268"/><use xlink:href="#DejaVuSans-28" x="1181.055"/><use xlink:href="#DejaVuSans-55" x="1220.068"/><use xlink:href="#DejaVuSans-43" x="1293.262"/><use xlink:href="#DejaVuSans-54" x="1363.086"/><use xlink:href="#DejaVuSans-29" x="1424.17"/></g></g></g><g id="matplotlib.axis_2"><g id="ytick_1"><g id="line2d_31"><defs><path id="m3f88128f76" d="M 0 0 L -3.5 0" stroke="#ffffff" stroke-width="0.8"/></defs><g><use xlink:href="#m3f88128f76" x="180" y="640.8" fill="#ffffff" stroke="#ffffff" stroke-width="0.8"/></g></g><g id="text_8"><g transform="translate(166.6375 644.599219) scale(0.1 -0.1)" fill="#ffffff"><use xlink:href="#DejaVuSans-30"/></g></g></g><g id="ytick_2"><g id="line2d_32"><g><use xlink:href="#m3f88128f76" x="180" y="574.08" fill="#ffffff" stroke="#ffffff" stroke-width="0.8"/></g></g><g id="text_9"><g transform="translate(141.1875 577.87948) scale(0.1 -0.1)" fill="#ffffff"><use xlink:href="#DejaVuSans-31"/><use xlink:href="#DejaVuSans-30" x="63.623"/><use xlink:href="#DejaVuSans-30" x="127.246"/><use xlink:href="#DejaVuSans-30" x="190.869"/><use xlink:href="#DejaVuSans-30" x="254.492"/></g></g></g><g id="ytick_3"><g id="line2d_33"><g><use xlink:href="#m3f88128f76" x="180" y="507.361" fill="#ffffff" stroke="#ffffff" stroke-width="0.8"/></g></g><g id="text_10"><g transform="translate(141.1875 511.15974) scale(0.1 -0.1)" fill="#ffffff"><use xlink:href="#DejaVuSans-32"/><use xlink:href="#DejaVuSans-30" x="63.623"/><use xlink:href="#DejaVuSans-30" x="127.246"/><use xlink:href="#DejaVuSans-30" x="190.869"/><use xlink:href="#DejaVuSans-30" x="254.492"/></g></g></g><g id="ytick_4"><g id="line2d_34"><g><use xlink:href="#m3f88128f76" x="180" y="440.641" fill="#ffffff" stroke="#ffffff" stroke-width="0.8"/></g></g><g id="text_11"><g transform="translate(141.1875 444.440001) scale(0.1 -0.1)" fill="#ffffff"><use xlink:href="#DejaVuSans-33"/><use xlink:href="#DejaVuSans-30" x="63.623"/><use xlink:href="#DejaVuSans-30" x="127.246"/><use xlink:href="#DejaVuSans-30" x="190.869"/><use xlink:href="#DejaVuSans-30" x="254.492"/></g></g></g><g id="ytick_5"><g id="line2d_35"><g><use xlink:href="#m3f88128f76" x="180" y="373.921" fill="#ffffff" stroke="#ffffff" stroke-width="0.8"/></g></g><g id="text_12"><g transform="translate(141.1875 377.720262) scale(0.1 -0.1)" fill="#ffffff"><defs><path id="DejaVuSans-34" d="M 2419 4116 L 825 1625 L 2419 1625 L 2419 4116 z M 2253 4666 L 3047 4666 L 3047 1625 L 3713 1625 L 3713 1100 L 3047 1100 L 3047 0 L 2419 0 L 2419 1100 L 313 1100 L 313 1709 L 2253 4666 z" transform="scale(0.015625)"/></defs><use xlink:href="#DejaVuSans-34"/><use xlink:href="#DejaVuSans-30" x="63.623"/><use xlink:href="#DejaVuSans-30" x="127.246"/><use xlink:href="#DejaVuSans-30" x="190.869"/><use xlink:href="#DejaVuSans-30" x="254.492"/></g></g></g><g id="ytick_6"><g id="line2d_36"><g><use xlink:href="#m3f88128f76" x="180" y="307.201" fill="#ffffff" stroke="#ffffff" stroke-width="0.8"/></g></g><g id="text_13"><g transform="translate(141.1875 311.000523) scale(0.1 -0.1)" fill="#ffffff"><use xlink:href="#DejaVuSans-35"/><use xlink:href="#DejaVuSans-30" x="63.623"/><use xlink:href="#DejaVuSans-30" x="127.246"/><use xlink:href="#DejaVuSans-30" x="190.869"/><use xlink:href="#DejaVuSans-30" x="254.492"/></g></g></g><g id="ytick_7"><g id="line2d_37"><g><use xlink:href="#m3f88128f76" x="180" y="240.482" fill="#ffffff" stroke="#ffffff" stroke-width="0.8"/></g></g><g id="text_14"><g transform="translate(141.1875 244.280784) scale(0.1 -0.1)" fill="#ffffff"><use xlink:href="#DejaVuSans-36"/><use xlink:href="#DejaVuSans-30" x="63.623"/><use xlink:href="#DejaVuSans-30" x="127.246"/><use xlink:href="#DejaVuSans-30" x="190.869"/><use xlink:href="#DejaVuSans-30" x="254.492"/></g></g></g><g id="ytick_8"><g id="line2d_38"><g><use xlink:href="#m3f88128f76" x="180" y="173.762" fill="#ffffff" stroke="#ffffff" stroke-width="0.8"/></g></g><g id="text_15"><g transform="translate(141.1875 177.561044) scale(0.1 -0.1)" fill="#ffffff"><defs><path id="DejaVuSans-37" d="M 525 4666 L 3525 4666 L 3525 4397 L 1831 0 L 1172 0 L 2766 4134 L 525 4134 L 525 4666 z" transform="scale(0.015625)"/></defs><use xlink:href="#DejaVuSans-37"/><use xlink:href="#DejaVuSans-30" x="63.623"/><use xlink:href="#DejaVuSans-30" x="127.246"/><use xlink:href="#DejaVuSans-30" x="190.869"/><use xlink:href="#DejaVuSans-30" x="254.492"/></g></g></g><g id="ytick_9"><g id="line2d_39"><g><use xlink:href="#m3f88128f76" x="180" y="107.042" fill="#ffffff" stroke="#ffffff" stroke-width="0.8"/></g></g><g id="text_16"><g transform="translate(141.1875 110.841305) scale(0.1 -0.1)" fill="#ffffff"><defs><path id="DejaVuSans-38" d="M 2034 2216 Q 1584 2216 1326 1975 Q 1069 1734 1069 1313 Q 1069 891 1326 650 Q 1584 409 2034 409 Q 2484 409 2743 651 Q 3003 894 3003 1313 Q 3003 1734 2745 1975 Q 2488 2216 2034 2216 z M 1403 2484 Q 997 2584 770 2862 Q 544 3141 544 3541 Q 544 4100 942 4425 Q 1341 4750 2034 4750 Q 2731 4750 3128 4425 Q 3525 4100 3525 3541 Q 3525 3141 3298 2862 Q 3072 2584 2669 2484 Q 3125 2378 3379 2068 Q 3634 1759 3634 1313 Q 3634 634 3220 271 Q 2806 -91 2034 -91 Q 1263 -91 848 271 Q 434 634 434 1313 Q 434 1759 690 2068 Q 947 2378 1403 2484 z M 1172 3481 Q 1172 3119 1398 2916 Q 1625 2713 2034 2713 Q 2441 2713 2670 2916 Q 2900 3119 2900 3481 Q 2900 3844 2670 4047 Q 2441 4250 2034 4250 Q 1625 4250 1398 4047 Q 1172 3844 1172 3481 z" transform="scale(0.015625)"/></defs><use xlink:href="#DejaVuSans-38"/><use xlink:href="#DejaVuSans-30" x="63.623"/><use xlink:href="#DejaVuSans-30" x="127.246"/><use xlink:href="#DejaVuSans-30" x="190.869"/><use xlink:href="#DejaVuSans-30" x="254.492"/></g></g></g><g id="ytick_10"><g id="line2d_40"><defs><path id="mda5d817621" d="M 0 0 L -2 0" stroke="#ffffff" stroke-width="0.6"/></defs><g><use xlink:href="#mda5d817621" x="180" y="627.456" fill="#ffffff" stroke="#ffffff" stroke-width="0.6"/></g></g></g><g id="ytick_11"><g id="line2d_41"><g><use xlink:href="#mda5d817621" x="180" y="614.112" fill="#ffffff" stroke="#ffffff" stroke-width="0.6"/></g></g></g><g id="ytick_12"><g id="line2d_42"><g><use xlink:href="#mda5d817621" x="180" y="600.768" fill="#ffffff" stroke="#ffffff" stroke-width="0.6"/></g></g></g><g id="ytick_13"><g id="line2d_43"><g><use xlink:href="#mda5d817621" x="180" y="587.424" fill="#ffffff" stroke="#ffffff" stroke-width="0.6"/></g></g></g><g id="ytick_14"><g id="line2d_44"><g><use xlink:href="#mda5d817621" x="180" y="560.736" fill="#ffffff" stroke="#ffffff" stroke-width="0.6"/></g></g></g><g id="ytick_15"><g id="line2d_45"><g><use xlink:href="#mda5d817621" x="180" y="547.392" fill="#ffffff" stroke="#ffffff" stroke-width="0.6"/></g></g></g><g id="ytick_16"><g id="line2d_46"><g><use xlink:href="#mda5d817621" x="180" y="534.048" fill="#ffffff" stroke="#ffffff" stroke-width="0.6"/></g></g></g><g id="ytick_17"><g id="line2d_47"><g><use xlink:href="#mda5d817621" x="180" y="520.704" fill="#ffffff" stroke="#ffffff" stroke-width="0.6"/></g></g></g><g id="ytick_18"><g id="line2d_48"><g><use xlink:href="#mda5d817621" x="180" y="494.017" fill="#ffffff" stroke="#ffffff" stroke-width="0.6"/></g></g></g><g id="ytick_19"><g id="line2d_49"><g><use xlink:href="#mda5d817621" x="180" y="480.673" fill="#ffffff" stroke="#ffffff" stroke-width="0.6"/></g></g></g><g id="ytick_20"><g id="line2d_50"><g><use xlink:href="#mda5d817621" x="180" y="467.329" fill="#ffffff" stroke="#ffffff" stroke-width="0.6"/></g></g></g><g id="ytick_21"><g id="line2d_51"><g><use xlink:href="#mda5d817621" x="180" y="453.985" fill="#ffffff" stroke="#ffffff" stroke-width="0.6"/></g></g></g><g id="ytick_22"><g id="line2d_52"><g><use xlink:href="#mda5d817621" x="180" y="427.297" fill="#ffffff" stroke="#ffffff" stroke-width="0.6"/></g></g></g><g id="ytick_23"><g id="line2d_53"><g><use xlink:href="#mda5d817621" x="180" y="413.953" fill="#ffffff" stroke="#ffffff" stroke-width="0.6"/></g></g></g><g id="ytick_24"><g id="line2d_54"><g><use xlink:href="#mda5d817621" x="180" y="400.609" fill="#ffffff" stroke="#ffffff" stroke-width="0.6"/></g></g></g><g id="ytick_25"><g id="line2d_55"><g><use xlink:href="#mda5d817621" x="180" y="387.265" fill="#ffffff" stroke="#ffffff" stroke-width="0.6"/></g></g></g><g id="ytick_26"><g id="line2d_56"><g><use xlink:href="#mda5d817621" x="180" y="360.577" fill="#ffffff" stroke="#ffffff" stroke-width="0.6"/></g></g></g><g id="ytick_27"><g id="line2d_57"><g><use xlink:href="#mda5d817621" x="180" y="347.233" fill="#ffffff" stroke="#ffffff" stroke-width="0.6"/></g></g></g><g id="ytick_28"><g id="line2d_58"><g><use xlink:href="#mda5d817621" x="180" y="333.889" fill="#ffffff" stroke="#ffffff" stroke-width="0.6"/></g></g></g><g id="ytick_29"><g id="line2d_59"><g><use xlink:href="#mda5d817621" x="180" y="320.545" fill="#ffffff" stroke="#ffffff" stroke-width="0.6"/></g></g></g><g id="ytick_30"><g id="line2d_60"><g><use xlink:href="#mda5d817621" x="180" y="293.857" fill="#ffffff" stroke="#ffffff" stroke-width="0.6"/></g></g></g><g id="ytick_31"><g id="line2d_61"><g><use xlink:href="#mda5d817621" x="180" y="280.513" fill="#ffffff" stroke="#ffffff" stroke-width="0.6"/></g></g></g><g id="ytick_32"><g id="line2d_62"><g><use xlink:href="#mda5d817621" x="180" y="267.169" fill="#ffffff" stroke="#ffffff" stroke-width="0.6"/></g></g></g><g id="ytick_33"><g id="line2d_63"><g><use xlink:href="#mda5d817621" x="180" y="253.826" fill="#ffffff" stroke="#ffffff" stroke-width="0.6"/></g></g></g><g id="ytick_34"><g id="line2d_64"><g><use xlink:href="#mda5d817621" x="180" y="227.138" fill="#ffffff" stroke="#ffffff" stroke-width="0.6"/></g></g></g><g id="ytick_35"><g id="line2d_65"><g><use xlink:href="#mda5d817621" x="180" y="213.794" fill="#ffffff" stroke="#ffffff" stroke-width="0.6"/></g></g></g><g id="ytick_36"><g id="line2d_66"><g><use xlink:href="#mda5d817621" x="180" y="200.45" fill="#ffffff" stroke="#ffffff" stroke-width="0.6"/></g></g></g><g id="ytick_37"><g id="line2d_67"><g><use xlink:href="#mda5d817621" x="180" y="187.106" fill="#ffffff" stroke="#ffffff" stroke-width="0.6"/></g></g></g><g id="ytick_38"><g id="line2d_68"><g><use xlink:href="#mda5d817621" x="180" y="160.418" fill="#ffffff" stroke="#ffffff" stroke-width="0.6"/></g></g></g><g id="ytick_39"><g id="line2d_69"><g><use xlink:href="#mda5d817621" x="180" y="147.074" fill="#ffffff" stroke="#ffffff" stroke-width="0.6"/></g></g></g><g id="ytick_40"><g id="line2d_70"><g><use xlink:href="#mda5d817621" x="180" y="133.73" fill="#ffffff" stroke="#ffffff" stroke-width="0.6"/></g></g></g><g id="ytick_41"><g id="line2d_71"><g><use xlink:href="#mda5d817621" x="180" y="120.386" fill="#ffffff" stroke="#ffffff" stroke-width="0.6"/></g></g></g><g id="ytick_42"><g id="line2d_72"><g><use xlink:href="#mda5d817621" x="180" y="93.698" fill="#ffffff" stroke="#ffffff" stroke-width="0.6"/></g></g></g><g id="text_17"><g transform="translate(135.107812 384.51875) rotate(-90) scale(0.1 -0.1)" fill="#ffffff"><defs><path id="DejaVuSans-56" d="M 1831 0 L 50 4666 L 709 4666 L 2188 738 L 3669 4666 L 4325 4666 L 2547 0 L 1831 0 z" transform="scale(0.015625)"/><path id="DejaVuSans-74" d="M 1172 4494 L 1172 3500 L 2356 3500 L 2356 3053 L 1172 3053 L 1172 1153 Q 1172 725 1289 603 Q 1406 481 1766 481 L 2356 481 L 2356 0 L 1766 0 Q 1100 0 847 248 Q 594 497 594 1153 L 594 3053 L 172 3053 L 172 3500 L 594 3500 L 594 4494 L 1172 4494 z" transform="scale(0.015625)"/><path id="DejaVuSans-67" d="M 2906 1791 Q 2906 2416 2648 2759 Q 2391 3103 1925 3103 Q 1463 3103 1205 2759 Q 947 2416 947 1791 Q 947 1169 1205 825 Q 1463 481 1925 481 Q 2391 481 2648 825 Q 2906 1169 2906 1791 z M 3481 434 Q 3481 -459 3084 -895 Q 2688 -1331 1869 -1331 Q 1566 -1331 1297 -1286 Q 1028 -1241 775 -1147 L 775 -588 Q 1028 -725 1275 -790 Q 1522 -856 1778 -856 Q 2344 -856 2625 -561 Q 2906 -266 2906 331 L 2906 616 Q 2728 306 2450 153 Q 2172 0 1784 0 Q 1141 0 747 490 Q 353 981 353 1791 Q 353 2603 747 3093 Q 1141 3584 1784 3584 Q 2172 3584 2450 3431 Q 2728 3278 2906 2969 L 2906 3500 L 3481 3500 L 3481 434 z" transform="scale(0.015625)"/></defs><use xlink:href="#DejaVuSans-56"/><use xlink:href="#DejaVuSans-65" x="60.658"/><use xlink:href="#DejaVuSans-73" x="122.182"/><use xlink:href="#DejaVuSans-74" x="174.281"/><use xlink:href="#DejaVuSans-69" x="213.49"/><use xlink:href="#DejaVuSans-67" x="241.273"/><use xlink:href="#DejaVuSans-65" x="304.75"/><use xlink:href="#DejaVuSans-73" x="366.273"/></g></g></g><g id="patch_3"><path d="M 180 640.8 L 180 86.4" fill="none" stroke="#ffffff" stroke-width="0.8" stroke-linejoin="miter" stroke-linecap="square"/></g><g id="patch_4"><path d="M 1296 640.8 L 1296 86.4" fill="none" stroke="#ffffff" stroke-width="0.8" stroke-linejoin="miter" stroke-linecap="square"/></g><g id="patch_5"><path d="M 180 640.8 L 1296 640.8" fill="none" stroke="#ffffff" stroke-width="0.8" stroke-linejoin="miter" stroke-linecap="square"/></g><g id="patch_6"><path d="M 180 86.4 L 1296 86.4" fill="none" stroke="#ffffff" stroke-width="0.8" stroke-linejoin="miter" stroke-linecap="square"/></g><g id="text_18"><g transform="translate(675.830625 80.4) scale(0.12 -0.12)" fill="#ffffff"><defs><path id="DejaVuSans-41" d="M 2188 4044 L 1331 1722 L 3047 1722 L 2188 4044 z M 1831 4666 L 2547 4666 L 4325 0 L 3669 0 L 3244 1197 L 1141 1197 L 716 0 L 50 0 L 1831 4666 z" transform="scale(0.015625)"/><path id="DejaVuSans-76" d="M 191 3500 L 800 3500 L 1894 563 L 2988 3500 L 3597 3500 L 2284 0 L 1503 0 L 191 3500 z" transform="scale(0.015625)"/><path id="DejaVuSans-6f" d="M 1959 3097 Q 1497 3097 1228 2736 Q 959 2375 959 1747 Q 959 1119 1226 758 Q 1494 397 1959 397 Q 2419 397 2687 759 Q 2956 1122 2956 1747 Q 2956 2369 2687 2733 Q 2419 3097 1959 3097 z M 1959 3584 Q 2709 3584 3137 3096 Q 3566 2609 3566 1747 Q 3566 888 3137 398 Q 2709 -91 1959 -91 Q 1206 -91 779 398 Q 353 888 353 1747 Q 353 2609 779 3096 Q 1206 3584 1959 3584 z" transform="scale(0.015625)"/><path id="DejaVuSans-75" d="M 544 1381 L 544 3500 L 1119 3500 L 1119 1403 Q 1119 906 1312 657 Q 1506 409 1894 409 Q 2359 409 2629 706 Q 2900 1003 2900 1516 L 2900 3500 L 3475 3500 L 3475 0 L 2900 0 L 2900 538 Q 2691 219 2414 64 Q 2138 -91 1772 -91 Q 1169 -91 856 284 Q 544 659 544 1381 z M 1991 3584 L 1991 3584 z" transform="scale(0.015625)"/></defs><use xlink:href="#DejaVuSans-41"/><use xlink:href="#DejaVuSans-63" x="66.658"/><use xlink:href="#DejaVuSans-74" x="121.639"/><use xlink:href="#DejaVuSans-69" x="160.848"/><use xlink:href="#DejaVuSans-76" x="188.631"/><use xlink:href="#DejaVuSans-65" x="247.811"/><use xlink:href="#DejaVuSans-20" x="309.334"/><use xlink:href="#DejaVuSans-56" x="341.121"/><use xlink:href="#DejaVuSans-65" x="401.779"/><use xlink:href="#DejaVuSans-73" x="463.303"/><use xlink:href="#DejaVuSans-74" x="515.402"/><use xlink:href="#DejaVuSans-69" x="554.611"/><use xlink:href="#DejaVuSans-67" x="582.395"/><use xlink:href="#DejaVuSans-65" x="645.871"/><use xlink:href="#DejaVuSans-20" x="707.395"/><use xlink:href="#DejaVuSans-43" x="739.182"/><use xlink:href="#DejaVuSans-6f" x="809.006"/><use xlink:href="#DejaVuSans-75" x="870.188"/><use xlink:href="#DejaVuSans-6e" x="933.566"/><use xlink:href="#DejaVuSans-74" x="996.945"/></g></g></g><g id="legend_1"><g id="patch_7"><path d="M 683.08125 715 L 756.91875 715 Q 758.91875 715 758.91875 713 L 758.91875 699.321875 Q 758.91875 697.321875 756.91875 697.321875 L 683.08125 697.321875 Q 681.08125 697.321875 681.08125 699.321875 L 681.08125 713 Q 681.08125 715 683.08125 715 z" opacity="0.8" stroke="#cccccc" stroke-linejoin="miter"/></g><g id="patch_8"><path d="M 685.08125 708.920313 L 705.08125 708.920313 L 705.08125 701.920313 L 685.08125 701.920313 z" fill="#1f77b4"/></g><g id="text_19"><g transform="translate(713.08125 708.920313) scale(0.1 -0.1)" fill="#ffffff"><use xlink:href="#DejaVuSans-56"/><use xlink:href="#DejaVuSans-65" x="60.658"/><use xlink:href="#DejaVuSans-73" x="122.182"/><use xlink:href="#DejaVuSans-74" x="174.281"/><use xlink:href="#DejaVuSans-69" x="213.49"/><use xlink:href="#DejaVuSans-67" x="241.273"/><use xlink:href="#DejaVuSans-65" x="304.75"/><use xlink:href="#DejaVuSans-73" x="366.273"/></g></g></g></g><defs><clipPath id="p23dcd407b1"><rect x="180" y="86.4" width="1116" height="554.4"/></clipPath></defs></svg>