<svg xmlns:xlink="http://www.w3.org/1999/xlink" width="1920" height="960" viewBox="0 0 1440 720" xmlns="http://www.w3.org/2000/svg" version="1.1"><metadata><rdf:RDF xmlns:dc="http://purl.org/dc/elements/1.1/" xmlns:cc="http://creativecommons.org/ns#" xmlns:rdf="http://www.w3.org/1999/02/22-rdf-syntax-ns#"><cc:Work><dc:type rdf:resource="http://purl.org/dc/dcmitype/StillImage"/><dc:format>image/svg+xml</dc:format><dc:creator><cc:Agent><dc:title>Matplotlib v3.7.1, https://matplotlib.org/</dc:title></cc:Agent></dc:creator></cc:Work></rdf:RDF></metadata><defs><style type="text/css">*{stroke-linejoin:round;stroke-linecap:butt}</style></defs><g id="figure_1"><g id="patch_1"><path d="M 0 720 L 1440 720 L 1440 0 L 0 0 z"/></g><g id="axes_1"><g id="patch_2"><path d="M 180 640.8 L 1296 640.8 L 1296 86.4 L 180 86.4 z"/></g><g id="matplotlib.axis_1"><g id="xtick_1"><g id="line2d_1"><defs><path id="m4a1e869678" d="M 0 0 L 0 3.5" stroke="#ffffff" stroke-width="0.8"/></defs><g><use xlink:href="#m4a1e869678" x="264.226" y="640.8" fill="#ffffff" stroke="#ffffff" stroke-width="0.8"/></g></g><g id="text_1"><g transform="translate(257.863915 655.398438) scale(0.1 -0.1)" fill="#ffffff"><defs><path id="DejaVuSans-35" d="M 691 4666 L 3169 4666 L 3169 4134 L 1269 4134 L 1269 2991 Q 1406 3038 1543 3061 Q 1681 3084 1819 3084 Q 2600 3084 3056 2656 Q 3513 2228 3513 1497 Q 3513 744 3044 326 Q 2575 -91 1722 -91 Q 1428 -91 1123 -41 Q 819 9 494 109 L 494 744 Q 775 591 1075 516 Q 1375 441 1709 441 Q 2250 441 2565 725 Q 2881 1009 2881 1497 Q 2881 1984 2565 2268 Q 2250 2553 1709 2553 Q 1456 2553 1204 2497 Q 953 2441 691 2322 L 691 4666 z" transform="scale(0.015625)"/><path id="DejaVuSans-30" d="M 2034 4250 Q 1547 4250 1301 3770 Q 1056 3291 1056 2328 Q 1056 1369 1301 889 Q 1547 409 2034 409 Q 2525 409 2770 889 Q 3016 1369 3016 2328 Q 3016 3291 2770 3770 Q 2525 4250 2034 4250 z M 2034 4750 Q 2819 4750 3233 4129 Q 3647 3509 3647 2328 Q 3647 1150 3233 529 Q 2819 -91 2034 -91 Q 1250 -91 836 529 Q 422 1150 422 2328 Q 422 3509 836 4129 Q 1250 4750 2034 4750 z" transform="scale(0.015625)"/></defs><use xlink:href="#DejaVuSans-35"/><use xlink:href="#DejaVuSans-30" x="63.623"/></g></g></g><g id="xtick_2"><g id="line2d_2"><g><use xlink:href="#m4a1e869678" x="474.792" y="640.8" fill="#ffffff" stroke="#ffffff" stroke-width="0.8"/></g></g><g id="text_2"><g transform="translate(465.248703 655.398438) scale(0.1 -0.1)" fill="#ffffff"><defs><path id="DejaVuSans-31" d="M 794 531 L 1825 531 L 1825 4091 L 703 3866 L 703 4441 L 1819 4666 L 2450 4666 L 2450 531 L 3481 531 L 3481 0 L 794 0 L 794 531 z" transform="scale(0.015625)"/></defs><use xlink:href="#DejaVuSans-31"/><use xlink:href="#DejaVuSans-30" x="63.623"/><use xlink:href="#DejaVuSans-30" x="127.246"/></g></g></g><g id="xtick_3"><g id="line2d_3"><g><use xlink:href="#m4a1e869678" x="685.358" y="640.8" fill="#ffffff" stroke="#ffffff" stroke-width="0.8"/></g></g><g id="text_3"><g transform="translate(675.814741 655.398438) scale(0.1 -0.1)" fill="#ffffff"><use xlink:href="#DejaVuSans-31"/><use xlink:href="#DejaVuSans-35" x="63.623"/><use xlink:href="#DejaVuSans-30" x="127.246"/></g></g></g><g id="xtick_4"><g id="line2d_4"><g><use xlink:href="#m4a1e869678" x="895.925" y="640.8" fill="#ffffff" stroke="#ffffff" stroke-width="0.8"/></g></g><g id="text_4"><g transform="translate(886.380778 655.398438) scale(0.1 -0.1)" fill="#ffffff"><defs><path id="DejaVuSans-32" d="M 1228 531 L 3431 531 L 3431 0 L 469 0 L 469 531 Q 828 903 1448 1529 Q 2069 2156 2228 2338 Q 2531 2678 2651 2914 Q 2772 3150 2772 3378 Q 2772 3750 2511 3984 Q 2250 4219 1831 4219 Q 1534 4219 1204 4116 Q 875 4013 500 3803 L 500 4441 Q 881 4594 1212 4672 Q 1544 4750 1819 4750 Q 2544 4750 2975 4387 Q 3406 4025 3406 3419 Q 3406 3131 3298 2873 Q 3191 2616 2906 2266 Q 2828 2175 2409 1742 Q 1991 1309 1228 531 z" transform="scale(0.015625)"/></defs><use xlink:href="#DejaVuSans-32"/><use xlink:href="#DejaVuSans-30" x="63.623"/><use xlink:href="#DejaVuSans-30" x="127.246"/></g></g></g><g id="xtick_5"><g id="line2d_5"><g><use xlink:href="#m4a1e869678" x="1106.491" y="640.8" fill="#ffffff" stroke="#ffffff" stroke-width="0.8"/></g></g><g id="text_5"><g transform="translate(1096.946816 655.398438) scale(0.1 -0.1)" fill="#ffffff"><use xlink:href="#DejaVuSans-32"/><use xlink:href="#DejaVuSans-35" x="63.623"/><use xlink:href="#DejaVuSans-30" x="127.246"/></g></g></g><g id="xtick_6"><g id="line2d_6"><defs><path id="mf94a7016d1" d="M 0 0 L 0 2" stroke="#ffffff" stroke-width="0.6"/></defs><g><use xlink:href="#mf94a7016d1" x="222.113" y="640.8" fill="#ffffff" stroke="#ffffff" stroke-width="0.6"/></g></g></g><g id="xtick_7"><g id="line2d_7"><g><use xlink:href="#mf94a7016d1" x="306.34" y="640.8" fill="#ffffff" stroke="#ffffff" stroke-width="0.6"/></g></g></g><g id="xtick_8"><g id="line2d_8"><g><use xlink:href="#mf94a7016d1" x="348.453" y="640.8" fill="#ffffff" stroke="#ffffff" stroke-width="0.6"/></g></g></g><g id="xtick_9"><g id="line2d_9"><g><use xlink:href="#mf94a7016d1" x="390.566" y="640.8" fill="#ffffff" stroke="#ffffff" stroke-width="0.6"/></g></g></g><g id="xtick_10"><g id="line2d_10"><g><use xlink:href="#mf94a7016d1" x="432.679" y="640.8" fill="#ffffff" stroke="#ffffff" stroke-width="0.6"/></g></g></g><g id="xtick_11"><g id="line2d_11"><g><use xlink:href="#mf94a7016d1" x="516.906" y="640.8" fill="#ffffff" stroke="#ffffff" stroke-width="0.6"/></g></g></g><g id="xtick_12"><g id="line2d_12"><g><use xlink:href="#mf94a7016d1" x="559.019" y="640.8" fill="#ffffff" stroke="#ffffff" stroke-width="0.6"/></g></g></g><g id="xtick_13"><g id="line2d_13"><g><use xlink:href="#mf94a7016d1" x="601.132" y="640.8" fill="#ffffff" stroke="#ffffff" stroke-width="0.6"/></g></g></g><g id="xtick_14"><g id="line2d_14"><g><use xlink:href="#mf94a7016d1" x="643.245" y="640.8" fill="#ffffff" stroke="#ffffff" stroke-width="0.6"/></g></g></g><g id="xtick_15"><g id="line2d_15"><g><use xlink:href="#mf94a7016d1" x="727.472" y="640.8" fill="#ffffff" stroke="#ffffff" stroke-width="0.6"/></g></g></g><g id="xtick_16"><g id="line2d_16"><g><use xlink:href="#mf94a7016d1" x="769.585" y="640.8" fill="#ffffff" stroke="#ffffff" stroke-width="0.6"/></g></g></g><g id="xtick_17"><g id="line2d_17"><g><use xlink:href="#mf94a7016d1" x="811.698" y="640.8" fill="#ffffff" stroke="#ffffff" stroke-width="0.6"/></g></g></g><g id="xtick_18"><g id="line2d_18"><g><use xlink:href="#mf94a7016d1" x="853.811" y="640.8" fill="#ffffff" stroke="#ffffff" stroke-width="0.6"/></g></g></g><g id="xtick_19"><g id="line2d_19"><g><use xlink:href="#mf94a7016d1" x="938.038" y="640.8" fill="#ffffff" stroke="#ffffff" stroke-width="0.6"/></g></g></g><g id="xtick_20"><g id="line2d_20"><g><use xlink:href="#mf94a7016d1" x="980.151" y="640.8" fill="#ffffff" stroke="#ffffff" stroke-width="0.6"/></g></g></g><g id="xtick_21"><g id="line2d_21"><g><use xlink:href="#mf94a7016d1" x="1022.264" y="640.8" fill="#ffffff" stroke="#ffffff" stroke-width="0.6"/></g></g></g><g id="xtick_22"><g id="line2d_22"><g><use xlink:href="#mf94a7016d1" x="1064.377" y="640.8" fill="#ffffff" stroke="#ffffff" stroke-width="0.6"/></g></g></g><g id="xtick_23"><g id="line2d_23"><g><use xlink:href="#mf94a7016d1" x="1148.604" y="640.8" fill="#ffffff" stroke="#ffffff" stroke-width="0.6"/></g></g></g><g id="xtick_24"><g id="line2d_24"><g><use xlink:href="#mf94a7016d1" x="1190.717" y="640.8" fill="#ffffff" stroke="#ffffff" stroke-width="0.6"/></g></g></g><g id="xtick_25"><g id="line2d_25"><g><use xlink:href="#mf94a7016d1" x="1232.83" y="640.8" fill="#ffffff" stroke="#ffffff" stroke-width="0.6"/></g></g></g><g id="xtick_26"><g id="line2d_26"><g><use xlink:href="#mf94a7016d1" x="1274.943" y="640.8" fill="#ffffff" stroke="#ffffff" stroke-width="0.6"/></g></g></g><g id="text_6"><g transform="translate(664.841406 669.076563) scale(0.1 -0.1)" fill="#ffffff"><defs><path id="DejaVuSans-44" d="M 1259 4147 L 1259 519 L 2022 519 Q 2988 519 3436 956 Q 3884 1394 3884 2338 Q 3884 3275 3436 3711 Q 2988 4147 2022 4147 L 1259 4147 z M 628 4666 L 1925 4666 Q 3281 4666 3915 4102 Q 4550 3538 4550 2338 Q 4550 1131 3912 565 Q 3275 0 1925 0 L 628 0 L 628 4666 z" transform="scale(0.015625)"/><path id="DejaVuSans-61" d="M 2194 1759 Q 1497 1759 1228 1600 Q 959 1441 959 1056 Q 959 750 1161 570 Q 1363 391 1709 391 Q 2188 391 2477 730 Q 2766 1069 2766 1631 L 2766 1759 L 2194 1759 z M 3341 1997 L 3341 0 L 2766 0 L 2766 531 Q 2569 213 2275 61 Q 1981 -91 1556 -91 Q 1019 -91 701 211 Q 384 513 384 1019 Q 384 1609 779 1909 Q 1175 2209 1959 2209 L 2766 2209 L 2766 2266 Q 2766 2663 2505 2880 Q 2244 3097 1772 3097 Q 1472 3097 1187 3025 Q 903 2953 641 2809 L 641 3341 Q 956 3463 1253 3523 Q 1550 3584 1831 3584 Q 2591 3584 2966 3190 Q 3341 2797 3341 1997 z" transform="scale(0.015625)"/><path id="DejaVuSans-79" d="M 2059 -325 Q 1816 -950 1584 -1140 Q 1353 -1331 966 -1331 L 506 -1331 L 506 -850 L 844 -850 Q 1081 -850 1212 -737 Q 1344 -625 1503 -206 L 1606 56 L 191 3500 L 800 3500 L 1894 763 L 2988 3500 L 3597 3500 L 2059 -325 z" transform="scale(0.015625)"/><path id="DejaVuSans-73" d="M 2834 3397 L 2834 2853 Q 2591 2978 2328 3040 Q 2066 3103 1784 3103 Q 1356 3103 1142 2972 Q 928 2841 928 2578 Q 928 2378 1081 2264 Q 1234 2150 1697 2047 L 1894 2003 Q 2506 1872 2764 1633 Q 3022 1394 3022 966 Q 3022 478 2636 193 Q 2250 -91 1575 -91 Q 1294 -91 989 -36 Q 684 19 347 128 L 347 722 Q 666 556 975 473 Q 1284 391 1588 391 Q 1994 391 2212 530 Q 2431 669 2431 922 Q 2431 1156 2273 1281 Q 2116 1406 1581 1522 L 1381 1569 Q 847 1681 609 1914 Q 372 2147 372 2553 Q 372 3047 722 3315 Q 1072 3584 1716 3584 Q 2034 3584 2315 3537 Q 2597 3491 2834 3397 z" transform="scale(0.015625)"/><path id="DejaVuSans-20" transform="scale(0.015625)"/><path id="DejaVuSans-69" d="M 603 3500 L 1178 3500 L 1178 0 L 603 0 L 603 3500 z M 603 4863 L 1178 4863 L 1178 4134 L 603 4134 L 603 4863 z" transform="scale(0.015625)"/><path id="DejaVuSans-6e" d="M 3513 2113 L 3513 0 L 2938 0 L 2938 2094 Q 2938 2591 2744 2837 Q 2550 3084 2163 3084 Q 1697 3084 1428 2787 Q 1159 2491 1159 1978 L 1159 0 L 581 0 L 581 3500 L 1159 3500 L 1159 2956 Q 1366 3272 1645 3428 Q 1925 3584 2291 3584 Q 2894 3584 3203 3211 Q 3513 2838 3513 2113 z" transform="scale(0.015625)"/><path id="DejaVuSans-63" d="M 3122 3366 L 3122 2828 Q 2878 2963 2633 3030 Q 2388 3097 2138 3097 Q 1578 3097 1268 2742 Q 959 2388 959 1747 Q 959 1106 1268 751 Q 1578 397 2138 397 Q 2388 397 2633 464 Q 2878 531 3122 666 L 3122 134 Q 2881 22 2623 -34 Q 2366 -91 2075 -91 Q 1284 -91 818 406 Q 353 903 353 1747 Q 353 2603 823 3093 Q 1294 3584 2113 3584 Q 2378 3584 2631 3529 Q 2884 3475 3122 3366 z" transform="scale(0.015625)"/><path id="DejaVuSans-65" d="M 3597 1894 L 3597 1613 L 953 1613 Q 991 1019 1311 708 Q 1631 397 2203 397 Q 2534 397 2845 478 Q 3156 559 3463 722 L 3463 178 Q 3153 47 2828 -22 Q 2503 -91 2169 -91 Q 1331 -91 842 396 Q 353 884 353 1716 Q 353 2575 817 3079 Q 1281 3584 2069 3584 Q 2775 3584 3186 3129 Q 3597 2675 3597 1894 z M 3022 2063 Q 3016 2534 2758 2815 Q 2500 3097 2075 3097 Q 1594 3097 1305 2825 Q 1016 2553 972 2059 L 3022 2063 z" transform="scale(0.015625)"/><path id="DejaVuSans-36" d="M 2113 2584 Q 1688 2584 1439 2293 Q 1191 2003 1191 1497 Q 1191 994 1439 701 Q 1688 409 2113 409 Q 2538 409 2786 701 Q 3034 994 3034 1497 Q 3034 2003 2786 2293 Q 2538 2584 2113 2584 z M 3366 4563 L 3366 3988 Q 3128 4100 2886 4159 Q 2644 4219 2406 4219 Q 1781 4219 1451 3797 Q 1122 3375 1075 2522 Q 1259 2794 1537 2939 Q 1816 3084 2150 3084 Q 2853 3084 3261 2657 Q 3669 2231 3669 1497 Q 3669 778 3244 343 Q 2819 -91 2113 -91 Q 1303 -91 875 529 Q 447 1150 447 2328 Q 447 3434 972 4092 Q 1497 4750 2381 4750 Q 2619 4750 2861 4703 Q 3103 4656 3366 4563 z" transform="scale(0.015625)"/><path id="DejaVuSans-2f" d="M 1625 4666 L 2156 4666 L 531 -594 L 0 -594 L 1625 4666 z" transform="scale(0.015625)"/><path id="DejaVuSans-33" d="M 2597 2516 Q 3050 2419 3304 2112 Q 3559 1806 3559 1356 Q 3559 666 3084 287 Q 2609 -91 1734 -91 Q 1441 -91 1130 -33 Q 819 25 488 141 L 488 750 Q 750 597 1062 519 Q 1375 441 1716 441 Q 2309 441 2620 675 Q 2931 909 2931 1356 Q 2931 1769 2642 2001 Q 2353 2234 1838 2234 L 1294 2234 L 1294 2753 L 1863 2753 Q 2328 2753 2575 2939 Q 2822 3125 2822 3475 Q 2822 3834 2567 4026 Q 2313 4219 1838 4219 Q 1578 4219 1281 4162 Q 984 4106 628 3988 L 628 4550 Q 988 4650 1302 4700 Q 1616 4750 1894 4750 Q 2613 4750 3031 4423 Q 3450 4097 3450 3541 Q 3450 3153 3228 2886 Q 3006 2619 2597 2516 z" transform="scale(0.015625)"/><path id="DejaVuSans-28" d="M 1984 4856 Q 1566 4138 1362 3434 Q 1159 2731 1159 2009 Q 1159 1288 1364 580 Q 1569 -128 1984 -844 L 1484 -844 Q 1016 -109 783 600 Q 550 1309 550 2009 Q 550 2706 781 3412 Q 1013 4119 1484 4856 L 1984 4856 z" transform="scale(0.015625)"/><path id="DejaVuSans-55" d="M 556 4666 L 1191 4666 L 1191 1831 Q 1191 1081 1462 751 Q 1734 422 2344 422 Q 2950 422 3222 751 Q 3494 1081 3494 1831 L 3494 4666 L 4128 4666 L 4128 1753 Q 4128 841 3676 375 Q 3225 -91 2344 -91 Q 1459 -91 1007 375 Q 556 841 556 1753 L 556 4666 z" transform="scale(0.015625)"/><path id="DejaVuSans-43" d="M 4122 4306 L 4122 3641 Q 3803 3938 3442 4084 Q 3081 4231 2675 4231 Q 1875 4231 1450 3742 Q 1025 3253 1025 2328 Q 1025 1406 1450 917 Q 1875 428 2675 428 Q 3081 428 3442 575 Q 3803 722 4122 1019 L 4122 359 Q 3791 134 3420 21 Q 3050 -91 2638 -91 Q 1578 -91 968 557 Q 359 1206 359 2328 Q 359 3453 968 4101 Q 1578 4750 2638 4750 Q 3056 4750 3426 4639 Q 3797 4528 4122 4306 z" transform="scale(0.015625)"/><path id="DejaVuSans-54" d="M -19 4666 L 3928 4666 L 3928 4134 L 2272 4134 L 2272 0 L 1638 0 L 1638 4134 L -19 4134 L -19 4666 z" transform="scale(0.015625)"/><path id="DejaVuSans-29" d="M 513 4856 L 1013 4856 Q 1481 4119 1714 3412 Q 1947 2706 1947 2009 Q 1947 1309 1714 600 Q 1481 -109 1013 -844 L 513 -844 Q 928 -128 1133 580 Q 1338 1288 1338 2009 Q 1338 2731 1133 3434 Q 928 4138 513 4856 z" transform="scale(0.015625)"/></defs><use xlink:href="#DejaVuSans-44"/><use xlink:href="#DejaVuSans-61" x="77.002"/><use xlink:href="#DejaVuSans-79" x="138.281"/><use xlink:href="#DejaVuSans-73" x="197.461"/><use xlink:href="#DejaVuSans-20" x="249.561"/><use xlink:href="#DejaVuSans-73" x="281.348"/><use xlink:href="#DejaVuSans-69" x="333.447"/><use xlink:href="#DejaVuSans-6e" x="361.23"/><use xlink:href="#DejaVuSans-63" x="424.609"/><use xlink:href="#DejaVuSans-65" x="479.59"/><use xlink:href="#DejaVuSans-20" x="541.113"/><use xlink:href="#DejaVuSans-32" x="572.9"/><use xlink:href="#DejaVuSans-36" x="636.523"/><use xlink:href="#DejaVuSans-2f" x="700.146"/><use xlink:href="#DejaVuSans-30" x="733.838"/><use xlink:href="#DejaVuSans-32" x="797.461"/><use xlink:href="#DejaVuSans-2f" x="861.084"/><use xlink:href="#DejaVuSans-32" x="894.775"/><use xlink:href="#DejaVuSans-30" x="958.398"/><use xlink:href="#DejaVuSans-32" x="1022.021"/><use xlink:href="#DejaVuSans-33" x="1085.645"/><use xlink:href="#DejaVuSans-20" x="1149.268"/><use xlink:href="#DejaVuSans-28" x="1181.055"/><use xlink:href="#DejaVuSans-55" x="1220.068"/><use xlink:href="#DejaVuSans-43" x="1293.262"/><use xlink:href="#DejaVuSans-54" x="1363.086"/><use xlink:href="#DejaVuSans-29" x="1424.17"/></g></g></g><g id="matplotlib.axis_2"><g id="ytick_1"><g id="line2d_27"><defs><path id="mcd5966028f" d="M 0 0 L -3.5 0" stroke="#ffffff" stroke-width="0.8"/></defs><g><use xlink:href="#mcd5966028f" x="180" y="605.225" fill="#ffffff" stroke="#ffffff" stroke-width="0.8"/></g></g><g id="text_7"><g transform="translate(139.170312 609.0242) scale(0.1 -0.1)" fill="#ffffff"><defs><path id="DejaVuSans-2212" d="M 678 2272 L 4684 2272 L 4684 1741 L 678 1741 L 678 2272 z" transform="scale(0.015625)"/></defs><use xlink:href="#DejaVuSans-2212"/><use xlink:href="#DejaVuSans-32" x="83.789"/><use xlink:href="#DejaVuSans-30" x="147.412"/><use xlink:href="#DejaVuSans-30" x="211.035"/><use xlink:href="#DejaVuSans-30" x="274.658"/></g></g></g><g id="ytick_2"><g id="line2d_28"><g><use xlink:href="#mcd5966028f" x="180" y="537.334" fill="#ffffff" stroke="#ffffff" stroke-width="0.8"/></g></g><g id="text_8"><g transform="translate(139.170312 541.132944) scale(0.1 -0.1)" fill="#ffffff"><use xlink:href="#DejaVuSans-2212"/><use xlink:href="#DejaVuSans-31" x="83.789"/><use xlink:href="#DejaVuSans-35" x="147.412"/><use xlink:href="#DejaVuSans-30" x="211.035"/><use xlink:href="#DejaVuSans-30" x="274.658"/></g></g></g><g id="ytick_3"><g id="line2d_29"><g><use xlink:href="#mcd5966028f" x="180" y="469.442" fill="#ffffff" stroke="#ffffff" stroke-width="0.8"/></g></g><g id="text_9"><g transform="translate(139.170312 473.241688) scale(0.1 -0.1)" fill="#ffffff"><use xlink:href="#DejaVuSans-2212"/><use xlink:href="#DejaVuSans-31" x="83.789"/><use xlink:href="#DejaVuSans-30" x="147.412"/><use xlink:href="#DejaVuSans-30" x="211.035"/><use xlink:href="#DejaVuSans-30" x="274.658"/></g></g></g><g id="ytick_4"><g id="line2d_30"><g><use xlink:href="#mcd5966028f" x="180" y="401.551" fill="#ffffff" stroke="#ffffff" stroke-width="0.8"/></g></g><g id="text_10"><g transform="translate(145.532813 405.350431) scale(0.1 -0.1)" fill="#ffffff"><use xlink:href="#DejaVuSans-2212"/><use xlink:href="#DejaVuSans-35" x="83.789"/><use xlink:href="#DejaVuSans-30" x="147.412"/><use xlink:href="#DejaVuSans-30" x="211.035"/></g></g></g><g id="ytick_5"><g id="line2d_31"><g><use xlink:href="#mcd5966028f" x="180" y="333.66" fill="#ffffff" stroke="#ffffff" stroke-width="0.8"/></g></g><g id="text_11"><g transform="translate(166.6375 337.459175) scale(0.1 -0.1)" fill="#ffffff"><use xlink:href="#DejaVuSans-30"/></g></g></g><g id="ytick_6"><g id="line2d_32"><g><use xlink:href="#mcd5966028f" x="180" y="265.769" fill="#ffffff" stroke="#ffffff" stroke-width="0.8"/></g></g><g id="text_12"><g transform="translate(153.9125 269.567918) scale(0.1 -0.1)" fill="#ffffff"><use xlink:href="#DejaVuSans-35"/><use xlink:href="#DejaVuSans-30" x="63.623"/><use xlink:href="#DejaVuSans-30" x="127.246"/></g></g></g><g id="ytick_7"><g id="line2d_33"><g><use xlink:href="#mcd5966028f" x="180" y="197.877" fill="#ffffff" stroke="#ffffff" stroke-width="0.8"/></g></g><g id="text_13"><g transform="translate(147.55 201.676662) scale(0.1 -0.1)" fill="#ffffff"><use xlink:href="#DejaVuSans-31"/><use xlink:href="#DejaVuSans-30" x="63.623"/><use xlink:href="#DejaVuSans-30" x="127.246"/><use xlink:href="#DejaVuSans-30" x="190.869"/></g></g></g><g id="ytick_8"><g id="line2d_34"><g><use xlink:href="#mcd5966028f" x="180" y="129.986" fill="#ffffff" stroke="#ffffff" stroke-width="0.8"/></g></g><g id="text_14"><g transform="translate(147.55 133.785405) scale(0.1 -0.1)" fill="#ffffff"><use xlink:href="#DejaVuSans-31"/><use xlink:href="#DejaVuSans-35" x="63.623"/><use xlink:href="#DejaVuSans-30" x="127.246"/><use xlink:href="#DejaVuSans-30" x="190.869"/></g></g></g><g id="ytick_9"><g id="line2d_35"><defs><path id="m39870ecca2" d="M 0 0 L -2 0" stroke="#ffffff" stroke-width="0.6"/></defs><g><use xlink:href="#m39870ecca2" x="180" y="632.381" fill="#ffffff" stroke="#ffffff" stroke-width="0.6"/></g></g></g><g id="ytick_10"><g id="line2d_36"><g><use xlink:href="#m39870ecca2" x="180" y="618.803" fill="#ffffff" stroke="#ffffff" stroke-width="0.6"/></g></g></g><g id="ytick_11"><g id="line2d_37"><g><use xlink:href="#m39870ecca2" x="180" y="591.647" fill="#ffffff" stroke="#ffffff" stroke-width="0.6"/></g></g></g><g id="ytick_12"><g id="line2d_38"><g><use xlink:href="#m39870ecca2" x="180" y="578.068" fill="#ffffff" stroke="#ffffff" stroke-width="0.6"/></g></g></g><g id="ytick_13"><g id="line2d_39"><g><use xlink:href="#m39870ecca2" x="180" y="564.49" fill="#ffffff" stroke="#ffffff" stroke-width="0.6"/></g></g></g><g id="ytick_14"><g id="line2d_40"><g><use xlink:href="#m39870ecca2" x="180" y="550.912" fill="#ffffff" stroke="#ffffff" stroke-width="0.6"/></g></g></g><g id="ytick_15"><g id="line2d_41"><g><use xlink:href="#m39870ecca2" x="180" y="523.755" fill="#ffffff" stroke="#ffffff" stroke-width="0.6"/></g></g></g><g id="ytick_16"><g id="line2d_42"><g><use xlink:href="#m39870ecca2" x="180" y="510.177" fill="#ffffff" stroke="#ffffff" stroke-width="0.6"/></g></g></g><g id="ytick_17"><g id="line2d_43"><g><use xlink:href="#m39870ecca2" x="180" y="496.599" fill="#ffffff" stroke="#ffffff" stroke-width="0.6"/></g></g></g><g id="ytick_18"><g id="line2d_44"><g><use xlink:href="#m39870ecca2" x="180" y="483.021" fill="#ffffff" stroke="#ffffff" stroke-width="0.6"/></g></g></g><g id="ytick_19"><g id="line2d_45"><g><use xlink:href="#m39870ecca2" x="180" y="455.864" fill="#ffffff" stroke="#ffffff" stroke-width="0.6"/></g></g></g><g id="ytick_20"><g id="line2d_46"><g><use xlink:href="#m39870ecca2" x="180" y="442.286" fill="#ffffff" stroke="#ffffff" stroke-width="0.6"/></g></g></g><g id="ytick_21"><g id="line2d_47"><g><use xlink:href="#m39870ecca2" x="180" y="428.708" fill="#ffffff" stroke="#ffffff" stroke-width="0.6"/></g></g></g><g id="ytick_22"><g id="line2d_48"><g><use xlink:href="#m39870ecca2" x="180" y="415.129" fill="#ffffff" stroke="#ffffff" stroke-width="0.6"/></g></g></g><g id="ytick_23"><g id="line2d_49"><g><use xlink:href="#m39870ecca2" x="180" y="387.973" fill="#ffffff" stroke="#ffffff" stroke-width="0.6"/></g></g></g><g id="ytick_24"><g id="line2d_50"><g><use xlink:href="#m39870ecca2" x="180" y="374.395" fill="#ffffff" stroke="#ffffff" stroke-width="0.6"/></g></g></g><g id="ytick_25"><g id="line2d_51"><g><use xlink:href="#m39870ecca2" x="180" y="360.816" fill="#ffffff" stroke="#ffffff" stroke-width="0.6"/></g></g></g><g id="ytick_26"><g id="line2d_52"><g><use xlink:href="#m39870ecca2" x="180" y="347.238" fill="#ffffff" stroke="#ffffff" stroke-width="0.6"/></g></g></g><g id="ytick_27"><g id="line2d_53"><g><use xlink:href="#m39870ecca2" x="180" y="320.082" fill="#ffffff" stroke="#ffffff" stroke-width="0.6"/></g></g></g><g id="ytick_28"><g id="line2d_54"><g><use xlink:href="#m39870ecca2" x="180" y="306.503" fill="#ffffff" stroke="#ffffff" stroke-width="0.6"/></g></g></g><g id="ytick_29"><g id="line2d_55"><g><use xlink:href="#m39870ecca2" x="180" y="292.925" fill="#ffffff" stroke="#ffffff" stroke-width="0.6"/></g></g></g><g id="ytick_30"><g id="line2d_56"><g><use xlink:href="#m39870ecca2" x="180" y="279.347" fill="#ffffff" stroke="#ffffff" stroke-width="0.6"/></g></g></g><g id="ytick_31"><g id="line2d_57"><g><use xlink:href="#m39870ecca2" x="180" y="252.19" fill="#ffffff" stroke="#ffffff" stroke-width="0.6"/></g></g></g><g id="ytick_32"><g id="line2d_58"><g><use xlink:href="#m39870ecca2" x="180" y="238.612" fill="#ffffff" stroke="#ffffff" stroke-width="0.6"/></g></g></g><g id="ytick_33"><g id="line2d_59"><g><use xlink:href="#m39870ecca2" x="180" y="225.034" fill="#ffffff" stroke="#ffffff" stroke-width="0.6"/></g></g></g><g id="ytick_34"><g id="line2d_60"><g><use xlink:href="#m39870ecca2" x="180" y="211.456" fill="#ffffff" stroke="#ffffff" stroke-width="0.6"/></g></g></g><g id="ytick_35"><g id="line2d_61"><g><use xlink:href="#m39870ecca2" x="180" y="184.299" fill="#ffffff" stroke="#ffffff" stroke-width="0.6"/></g></g></g><g id="ytick_36"><g id="line2d_62"><g><use xlink:href="#m39870ecca2" x="180" y="170.721" fill="#ffffff" stroke="#ffffff" stroke-width="0.6"/></g></g></g><g id="ytick_37"><g id="line2d_63"><g><use xlink:href="#m39870ecca2" x="180" y="157.143" fill="#ffffff" stroke="#ffffff" stroke-width="0.6"/></g></g></g><g id="ytick_38"><g id="line2d_64"><g><use xlink:href="#m39870ecca2" x="180" y="143.564" fill="#ffffff" stroke="#ffffff" stroke-width="0.6"/></g></g></g><g id="ytick_39"><g id="line2d_65"><g><use xlink:href="#m39870ecca2" x="180" y="116.408" fill="#ffffff" stroke="#ffffff" stroke-width="0.6"/></g></g></g><g id="ytick_40"><g id="line2d_66"><g><use xlink:href="#m39870ecca2" x="180" y="102.83" fill="#ffffff" stroke="#ffffff" stroke-width="0.6"/></g></g></g><g id="ytick_41"><g id="line2d_67"><g><use xlink:href="#m39870ecca2" x="180" y="89.251" fill="#ffffff" stroke="#ffffff" stroke-width="0.6"/></g></g></g><g id="text_15"><g transform="translate(133.090625 384.51875) rotate(-90) scale(0.1 -0.1)" fill="#ffffff"><defs><path id="DejaVuSans-56" d="M 1831 0 L 50 4666 L 709 4666 L 2188 738 L 3669 4666 L 4325 4666 L 2547 0 L 1831 0 z" transform="scale(0.015625)"/><path id="DejaVuSans-74" d="M 1172 4494 L 1172 3500 L 2356 3500 L 2356 3053 L 1172 3053 L 1172 1153 Q 1172 725 1289 603 Q 1406 481 1766 481 L 2356 481 L 2356 0 L 1766 0 Q 1100 0 847 248 Q 594 497 594 1153 L 594 3053 L 172 3053 L 172 3500 L 594 3500 L 594 4494 L 1172 4494 z" transform="scale(0.015625)"/><path id="DejaVuSans-67" d="M 2906 1791 Q 2906 2416 2648 2759 Q 2391 3103 1925 3103 Q 1463 3103 1205 2759 Q 947 2416 947 1791 Q 947 1169 1205 825 Q 1463 481 1925 481 Q 2391 481 2648 825 Q 2906 1169 2906 1791 z M 3481 434 Q 3481 -459 3084 -895 Q 2688 -1331 1869 -1331 Q 1566 -1331 1297 -1286 Q 1028 -1241 775 -1147 L 775 -588 Q 1028 -725 1275 -790 Q 1522 -856 1778 -856 Q 2344 -856 2625 -561 Q 2906 -266 2906 331 L 2906 616 Q 2728 306 2450 153 Q 2172 0 1784 0 Q 1141 0 747 490 Q 353 981 353 1791 Q 353 2603 747 3093 Q 1141 3584 1784 3584 Q 2172 3584 2450 3431 Q 2728 3278 2906 2969 L 2906 3500 L 3481 3500 L 3481 434 z" transform="scale(0.015625)"/></defs><use xlink:href="#DejaVuSans-56"/><use xlink:href="#DejaVuSans-65" x="60.658"/><use xlink:href="#DejaVuSans-73" x="122.182"/><use xlink:href="#DejaVuSans-74" x="174.281"/><use xlink:href="#DejaVuSans-69" x="213.49"/><use xlink:href="#DejaVuSans-67" x="241.273"/><use xlink:href="#DejaVuSans-65" x="304.75"/><use xlink:href="#DejaVuSans-73" x="366.273"/></g></g></g><g id="line2d_68"><path d="M 53.660377 118.308891 L 57.871698 97.126819 L 62.083019 148.452608 L 66.29434 142.478178 L 70.50566 90.066128 L 74.716981 40.369728 L 76.270359 -1 M 86.51987 -1 L 87.350943 34.53108 L 91.562264 58.971932 L 95.773585 29.507127 L 99.984906 36.975165 L 104.196226 61.416018 L 107.333738 -1 M 112.108889 -1 L 112.618868 1.943277 L 116.830189 55.984717 L 121.041509 80.018222 L 125.049158 -1 M 126.127504 -1 L 129.464151 14.706833 L 132.823809 -1 M 144.55927 -1 L 146.309434 55.03424 L 150.520755 169.498898 L 158.943396 79.067744 L 163.154717 29.507127 L 164.3086 -1 M 176.081825 -1 L 180 204.666569 L 184.211321 247.845408 L 188.422642 217.430125 L 192.633962 112.606025 L 196.845283 99.978251 L 201.056604 135.55327 L 205.267925 424.905805 L 209.479245 436.175753 L 213.690566 232.909331 L 217.901887 195.976488 L 222.113208 221.775165 L 226.324528 206.024394 L 230.535849 161.623512 L 234.74717 345.20147 L 238.958491 343.436297 L 243.169811 276.767083 L 247.381132 319.26701 L 251.592453 357.421896 L 255.803774 302.701543 L 260.015094 280.161646 L 264.226415 503.52388 L 268.437736 466.726819 L 272.649057 411.191771 L 276.860377 255.313446 L 281.071698 259.658486 L 285.283019 230.329464 L 289.49434 298.492285 L 293.70566 476.231594 L 297.916981 588.38795 L 302.128302 338.548126 L 306.339623 489.809846 L 310.550943 417.437766 L 314.762264 318.452314 L 318.973585 465.640558 L 323.184906 554.170757 L 327.396226 627.221749 L 331.607547 428.843497 L 335.818868 474.873769 L 340.030189 510.313005 L 344.241509 430.472888 L 348.45283 444.730051 L 352.664151 513.707568 L 356.875472 519.410434 L 361.086792 454.099045 L 365.298113 416.079941 L 369.509434 460.34504 L 373.720755 326.87083 L 377.932075 418.931374 L 382.143396 464.146951 L 386.354717 550.911976 L 390.566038 389.330786 L 394.777358 407.118295 L 398.988679 319.81014 L 403.2 259.251139 L 407.411321 306.775018 L 411.622642 466.862601 L 415.833962 428.028802 L 420.045283 390.552829 L 424.256604 343.300514 L 428.467925 423.683762 L 432.679245 231.008376 L 436.890566 271.74313 L 441.101887 387.837179 L 445.313208 384.035268 L 449.524528 367.605584 L 453.735849 310.712711 L 457.94717 364.889934 L 462.158491 392.046436 L 466.369811 342.078472 L 470.581132 464.825863 L 474.792453 413.092726 L 479.003774 396.119912 L 483.215094 408.068773 L 487.426415 374.93784 L 491.637736 353.34842 L 495.849057 345.7446 L 500.060377 426.535195 L 504.271698 367.198237 L 508.483019 362.717414 L 512.69434 277.717561 L 516.90566 350.08964 L 521.116981 330.672741 L 525.328302 367.469802 L 529.539623 437.805143 L 533.750943 432.373843 L 537.962264 365.568846 L 542.173585 436.583101 L 546.384906 370.185452 L 550.596226 316.958707 L 554.807547 402.365907 L 559.018868 405.21734 L 563.230189 428.028802 L 567.441509 365.025716 L 571.65283 317.637619 L 575.864151 406.3036 L 580.075472 334.474651 L 584.286792 365.840411 L 588.498113 357.829243 L 592.709434 358.915503 L 596.920755 348.867597 L 601.132075 376.703012 L 605.343396 338.955474 L 609.554717 349.139162 L 613.766038 316.279794 L 617.977358 362.038501 L 622.188679 370.321234 L 626.4 317.637619 L 630.611321 362.310066 L 634.822642 305.552976 L 639.033962 374.93784 L 643.245283 312.885231 L 647.456604 353.89155 L 651.667925 346.695077 L 655.879245 372.76532 L 660.090566 370.457017 L 664.301887 367.062454 L 668.513208 287.765467 L 672.724528 353.212638 L 676.935849 351.447465 L 681.14717 297.13446 L 685.358491 388.380309 L 689.569811 321.303747 L 693.781132 369.506539 L 697.992453 389.330786 L 702.203774 285.592946 L 706.415094 363.396326 L 710.626415 288.444379 L 714.837736 260.337399 L 719.049057 335.289346 L 723.260377 270.792652 L 727.471698 222.454078 L 731.683019 259.386921 L 735.89434 310.169581 L 740.10566 349.274945 L 744.316981 366.790889 L 748.528302 311.527406 L 752.739623 366.111976 L 756.950943 324.69831 L 761.162264 371.950625 L 765.373585 336.782954 L 769.584906 352.126378 L 773.796226 298.22072 L 778.007547 252.733578 L 782.218868 313.971492 L 786.430189 275.816605 L 790.641509 292.246289 L 794.85283 306.096106 L 799.064151 312.070536 L 803.275472 397.613519 L 807.486792 410.105511 L 811.698113 342.893167 L 815.909434 367.741367 L 820.120755 341.942689 L 824.332075 372.901102 L 828.543396 363.667891 L 832.754717 379.28288 L 836.966038 387.972961 L 841.177358 403.58795 L 845.388679 338.004996 L 849.6 394.354739 L 853.811321 441.063924 L 858.022642 468.220426 L 862.233962 379.147098 L 866.445283 427.485672 L 870.656604 347.91712 L 874.867925 322.254225 L 879.079245 309.762234 L 883.290566 399.514475 L 887.501887 404.809993 L 891.713208 419.067157 L 895.924528 371.543277 L 900.135849 416.351506 L 904.34717 370.728582 L 908.558491 308.811756 L 912.769811 435.089493 L 916.981132 405.76047 L 925.403774 386.207788 L 929.615094 342.621602 L 933.826415 310.033799 L 938.037736 318.452314 L 942.249057 411.734901 L 946.460377 409.698163 L 950.671698 373.30845 L 954.883019 376.703012 L 959.09434 327.142395 L 963.30566 325.105658 L 967.516981 321.575312 L 971.728302 405.081558 L 975.939623 399.378692 L 980.150943 412.413813 L 984.362264 335.968259 L 988.573585 334.203086 L 992.784906 234.946069 L 996.996226 278.803821 L 1001.207547 370.185452 L 1005.418868 401.95856 L 1009.630189 326.87083 L 1013.841509 305.688758 L 1018.05283 306.775018 L 1022.264151 318.180749 L 1026.475472 278.396473 L 1030.686792 422.869067 L 1034.898113 450.568699 L 1039.109434 355.113593 L 1043.320755 358.372373 L 1047.532075 351.583248 L 1051.743396 266.040265 L 1055.954717 272.965173 L 1060.166038 383.356356 L 1064.377358 377.381925 L 1068.588679 305.688758 L 1072.8 301.343718 L 1077.011321 304.059368 L 1081.222642 322.118442 L 1085.433962 360.816458 L 1089.645283 390.145481 L 1093.856604 380.097575 L 1098.067925 370.457017 L 1102.279245 344.115209 L 1106.490566 271.607348 L 1110.701887 251.375753 L 1114.913208 341.671124 L 1119.124528 441.335489 L 1123.335849 419.610287 L 1127.54717 393.268479 L 1131.758491 350.768553 L 1135.969811 366.247759 L 1140.181132 351.1759 L 1144.392453 358.100808 L 1148.603774 410.105511 L 1152.815094 465.776341 L 1157.026415 376.838795 L 1161.237736 358.236591 L 1165.449057 366.383542 L 1169.660377 282.605731 L 1173.871698 309.762234 L 1178.083019 418.931374 L 1182.29434 449.889787 L 1186.50566 367.062454 L 1190.716981 348.052902 L 1194.928302 341.127994 L 1199.139623 361.766936 L 1203.350943 346.423512 L 1207.562264 360.273328 L 1211.773585 346.559295 L 1215.984906 299.035415 L 1220.196226 330.265393 L 1224.407547 326.056135 L 1228.618868 305.009846 L 1232.830189 382.949008 L 1237.041509 442.964879 L 1241.25283 404.945775 L 1245.464151 321.032182 L 1249.675472 365.025716 L 1253.886792 357.150331 L 1258.098113 355.928288 L 1262.309434 333.659956 L 1266.520755 376.838795 L 1270.732075 329.450698 L 1274.943396 356.471418 L 1279.154717 342.485819 L 1283.366038 337.597649 L 1287.577358 294.41881 L 1291.788679 333.116826 L 1296 405.081558 L 1300.211321 401.551212 L 1304.422642 378.468185 L 1308.633962 329.450698 L 1312.845283 340.177517 L 1317.056604 330.944306 L 1321.267925 347.91712 L 1325.479245 436.311536 L 1325.479245 436.311536" clip-path="url(#p6d66788009)" fill="none" stroke="#1f77b4" stroke-width="1.5" stroke-linecap="square"/></g><g id="line2d_69"><path d="M 180 333.659956 L 1296 333.659956" clip-path="url(#p6d66788009)" fill="none" stroke="#ffffff" stroke-width="0.75" stroke-linecap="square"/></g><g id="patch_3"><path d="M 180 640.8 L 180 86.4" fill="none" stroke="#ffffff" stroke-width="0.8" stroke-linejoin="miter" stroke-linecap="square"/></g><g id="patch_4"><path d="M 1296 640.8 L 1296 86.4" fill="none" stroke="#ffffff" stroke-width="0.8" stroke-linejoin="miter" stroke-linecap="square"/></g><g id="patch_5"><path d="M 180 640.8 L 1296 640.8" fill="none" stroke="#ffffff" stroke-width="0.8" stroke-linejoin="miter" stroke-linecap="square"/></g><g id="patch_6"><path d="M 180 86.4 L 1296 86.4" fill="none" stroke="#ffffff" stroke-width="0.8" stroke-linejoin="miter" stroke-linecap="square"/></g><g id="text_16"><g transform="translate(642.90375 80.4) scale(0.12 -0.12)" fill="#ffffff"><defs><path id="DejaVuSans-41" d="M 2188 4044 L 1331 1722 L 3047 1722 L 2188 4044 z M 1831 4666 L 2547 4666 L 4325 0 L 3669 0 L 3244 1197 L 1141 1197 L 716 0 L 50 0 L 1831 4666 z" transform="scale(0.015625)"/><path id="DejaVuSans-76" d="M 191 3500 L 800 3500 L 1894 563 L 2988 3500 L 3597 3500 L 2284 0 L 1503 0 L 191 3500 z" transform="scale(0.015625)"/><path id="DejaVuSans-6f" d="M 1959 3097 Q 1497 3097 1228 2736 Q 959 2375 959 1747 Q 959 1119 1226 758 Q 1494 397 1959 397 Q 2419 397 2687 759 Q 2956 1122 2956 1747 Q 2956 2369 2687 2733 Q 2419 3097 1959 3097 z M 1959 3584 Q 2709 3584 3137 3096 Q 3566 2609 3566 1747 Q 3566 888 3137 398 Q 2709 -91 1959 -91 Q 1206 -91 779 398 Q 353 888 353 1747 Q 353 2609 779 3096 Q 1206 3584 1959 3584 z" transform="scale(0.015625)"/><path id="DejaVuSans-75" d="M 544 1381 L 544 3500 L 1119 3500 L 1119 1403 Q 1119 906 1312 657 Q 1506 409 1894 409 Q 2359 409 2629 706 Q 2900 1003 2900 1516 L 2900 3500 L 3475 3500 L 3475 0 L 2900 0 L 2900 538 Q 2691 219 2414 64 Q 2138 -91 1772 -91 Q 1169 -91 856 284 Q 544 659 544 1381 z M 1991 3584 L 1991 3584 z" transform="scale(0.015625)"/><path id="DejaVuSans-66" d="M 2375 4863 L 2375 4384 L 1825 4384 Q 1516 4384 1395 4259 Q 1275 4134 1275 3809 L 1275 3500 L 2222 3500 L 2222 3053 L 1275 3053 L 1275 0 L 697 0 L 697 3053 L 147 3053 L 147 3500 L 697 3500 L 697 3744 Q 697 4328 969 4595 Q 1241 4863 1831 4863 L 2375 4863 z" transform="scale(0.015625)"/><path id="DejaVuSans-72" d="M 2631 2963 Q 2534 3019 2420 3045 Q 2306 3072 2169 3072 Q 1681 3072 1420 2755 Q 1159 2438 1159 1844 L 1159 0 L 581 0 L 581 3500 L 1159 3500 L 1159 2956 Q 1341 3275 1631 3429 Q 1922 3584 2338 3584 Q 2397 3584 2469 3576 Q 2541 3569 2628 3553 L 2631 2963 z" transform="scale(0.015625)"/></defs><use xlink:href="#DejaVuSans-41"/><use xlink:href="#DejaVuSans-63" x="66.658"/><use xlink:href="#DejaVuSans-74" x="121.639"/><use xlink:href="#DejaVuSans-69" x="160.848"/><use xlink:href="#DejaVuSans-76" x="188.631"/><use xlink:href="#DejaVuSans-65" x="247.811"/><use xlink:href="#DejaVuSans-20" x="309.334"/><use xlink:href="#DejaVuSans-56" x="341.121"/><use xlink:href="#DejaVuSans-65" x="401.779"/><use xlink:href="#DejaVuSans-73" x="463.303"/><use xlink:href="#DejaVuSans-74" x="515.402"/><use xlink:href="#DejaVuSans-69" x="554.611"/><use xlink:href="#DejaVuSans-67" x="582.395"/><use xlink:href="#DejaVuSans-65" x="645.871"/><use xlink:href="#DejaVuSans-20" x="707.395"/><use xlink:href="#DejaVuSans-43" x="739.182"/><use xlink:href="#DejaVuSans-6f" x="809.006"/><use xlink:href="#DejaVuSans-75" x="870.188"/><use xlink:href="#DejaVuSans-6e" x="933.566"/><use xlink:href="#DejaVuSans-74" x="996.945"/><use xlink:href="#DejaVuSans-20" x="1036.154"/><use xlink:href="#DejaVuSans-44" x="1067.941"/><use xlink:href="#DejaVuSans-69" x="1144.943"/><use xlink:href="#DejaVuSans-66" x="1172.727"/><use xlink:href="#DejaVuSans-66" x="1207.932"/><use xlink:href="#DejaVuSans-65" x="1243.137"/><use xlink:href="#DejaVuSans-72" x="1304.66"/><use xlink:href="#DejaVuSans-65" x="1343.523"/><use xlink:href="#DejaVuSans-6e" x="1405.047"/><use xlink:href="#DejaVuSans-63" x="1468.426"/><use xlink:href="#DejaVuSans-65" x="1523.406"/></g></g></g></g><defs><clipPath id="p6d66788009"><rect x="180" y="86.4" width="1116" height="554.4"/></clipPath></defs></svg>