<svg xmlns:xlink="http://www.w3.org/1999/xlink" width="1920" height="960" viewBox="0 0 1440 720" xmlns="http://www.w3.org/2000/svg" version="1.1"><metadata><rdf:RDF xmlns:dc="http://purl.org/dc/elements/1.1/" xmlns:cc="http://creativecommons.org/ns#" xmlns:rdf="http://www.w3.org/1999/02/22-rdf-syntax-ns#"><cc:Work><dc:type rdf:resource="http://purl.org/dc/dcmitype/StillImage"/><dc:format>image/svg+xml</dc:format><dc:creator><cc:Agent><dc:title>Matplotlib v3.7.1, https://matplotlib.org/</dc:title></cc:Agent></dc:creator></cc:Work></rdf:RDF></metadata><defs><style type="text/css">*{stroke-linejoin:round;stroke-linecap:butt}</style></defs><g id="figure_1"><g id="patch_1"><path d="M 0 720 L 1440 720 L 1440 0 L 0 0 z"/></g><g id="axes_1"><g id="patch_2"><path d="M 180 640.8 L 1296 640.8 L 1296 86.4 L 180 86.4 z"/></g><g id="PolyCollection_1"><path d="M 180 573.796639 L 180 640.8 L 185.072727 640.8 L 190.145455 640.8 L 195.218182 640.8 L 200.290909 640.8 L 205.363636 640.8 L 210.436364 640.8 L 215.509091 640.8 L 220.581818 640.8 L 225.654545 640.8 L 230.727273 640.8 L 235.8 640.8 L 240.872727 640.8 L 245.945455 640.8 L 251.018182 640.8 L 256.090909 640.8 L 261.163636 640.8 L 266.236364 640.8 L 271.309091 640.8 L 276.381818 640.8 L 281.454545 640.8 L 286.527273 640.8 L 291.6 640.8 L 296.672727 640.8 L 301.745455 640.8 L 306.818182 640.8 L 311.890909 640.8 L 316.963636 640.8 L 322.036364 640.8 L 327.109091 640.8 L 332.181818 640.8 L 337.254545 640.8 L 342.327273 640.8 L 347.4 640.8 L 352.472727 640.8 L 357.545455 640.8 L 362.618182 640.8 L 367.690909 640.8 L 372.763636 640.8 L 377.836364 640.8 L 382.909091 640.8 L 387.981818 640.8 L 393.054545 640.8 L 398.127273 640.8 L 403.2 640.8 L 408.272727 640.8 L 413.345455 640.8 L 418.418182 640.8 L 423.490909 640.8 L 428.563636 640.8 L 433.636364 640.8 L 438.709091 640.8 L 443.781818 640.8 L 448.854545 640.8 L 453.927273 640.8 L 459 640.8 L 464.072727 640.8 L 469.145455 640.8 L 474.218182 640.8 L 479.290909 640.8 L 484.363636 640.8 L 489.436364 640.8 L 494.509091 640.8 L 499.581818 640.8 L 504.654545 640.8 L 509.727273 640.8 L 514.8 640.8 L 519.872727 640.8 L 524.945455 640.8 L 530.018182 640.8 L 535.090909 640.8 L 540.163636 640.8 L 545.236364 640.8 L 550.309091 640.8 L 555.381818 640.8 L 560.454545 640.8 L 565.527273 640.8 L 570.6 640.8 L 575.672727 640.8 L 580.745455 640.8 L 585.818182 640.8 L 590.890909 640.8 L 595.963636 640.8 L 601.036364 640.8 L 606.109091 640.8 L 611.181818 640.8 L 616.254545 640.8 L 621.327273 640.8 L 626.4 640.8 L 631.472727 640.8 L 636.545455 640.8 L 641.618182 640.8 L 646.690909 640.8 L 651.763636 640.8 L 656.836364 640.8 L 661.909091 640.8 L 666.981818 640.8 L 672.054545 640.8 L 677.127273 640.8 L 682.2 640.8 L 687.272727 640.8 L 692.345455 640.8 L 697.418182 640.8 L 702.490909 640.8 L 707.563636 640.8 L 712.636364 640.8 L 717.709091 640.8 L 722.781818 640.8 L 727.854545 640.8 L 732.927273 640.8 L 738 640.8 L 743.072727 640.8 L 748.145455 640.8 L 753.218182 640.8 L 758.290909 640.8 L 763.363636 640.8 L 768.436364 640.8 L 773.509091 640.8 L 778.581818 640.8 L 783.654545 640.8 L 788.727273 640.8 L 793.8 640.8 L 798.872727 640.8 L 803.945455 640.8 L 809.018182 640.8 L 814.090909 640.8 L 819.163636 640.8 L 824.236364 640.8 L 829.309091 640.8 L 834.381818 640.8 L 839.454545 640.8 L 844.527273 640.8 L 849.6 640.8 L 854.672727 640.8 L 859.745455 640.8 L 864.818182 640.8 L 869.890909 640.8 L 874.963636 640.8 L 880.036364 640.8 L 885.109091 640.8 L 890.181818 640.8 L 895.254545 640.8 L 900.327273 640.8 L 905.4 640.8 L 910.472727 640.8 L 915.545455 640.8 L 920.618182 640.8 L 925.690909 640.8 L 930.763636 640.8 L 935.836364 640.8 L 940.909091 640.8 L 945.981818 640.8 L 951.054545 640.8 L 956.127273 640.8 L 961.2 640.8 L 966.272727 640.8 L 971.345455 640.8 L 976.418182 640.8 L 981.490909 640.8 L 986.563636 640.8 L 991.636364 640.8 L 996.709091 640.8 L 1001.781818 640.8 L 1006.854545 640.8 L 1011.927273 640.8 L 1017 640.8 L 1022.072727 640.8 L 1027.145455 640.8 L 1032.218182 640.8 L 1037.290909 640.8 L 1042.363636 640.8 L 1047.436364 640.8 L 1052.509091 640.8 L 1057.581818 640.8 L 1062.654545 640.8 L 1067.727273 640.8 L 1072.8 640.8 L 1077.872727 640.8 L 1082.945455 640.8 L 1088.018182 640.8 L 1093.090909 640.8 L 1098.163636 640.8 L 1103.236364 640.8 L 1108.309091 640.8 L 1113.381818 640.8 L 1118.454545 640.8 L 1123.527273 640.8 L 1128.6 640.8 L 1133.672727 640.8 L 1138.745455 640.8 L 1143.818182 640.8 L 1148.890909 640.8 L 1153.963636 640.8 L 1159.036364 640.8 L 1164.109091 640.8 L 1169.181818 640.8 L 1174.254545 640.8 L 1179.327273 640.8 L 1184.4 640.8 L 1189.472727 640.8 L 1194.545455 640.8 L 1199.618182 640.8 L 1204.690909 640.8 L 1209.763636 640.8 L 1214.836364 640.8 L 1219.909091 640.8 L 1224.981818 640.8 L 1230.054545 640.8 L 1235.127273 640.8 L 1240.2 640.8 L 1245.272727 640.8 L 1250.345455 640.8 L 1255.418182 640.8 L 1260.490909 640.8 L 1265.563636 640.8 L 1270.636364 640.8 L 1275.709091 640.8 L 1280.781818 640.8 L 1285.854545 640.8 L 1290.927273 640.8 L 1296 640.8 L 1301.072727 640.8 L 1306.145455 640.8 L 1311.218182 640.8 L 1316.290909 640.8 L 1321.363636 640.8 L 1326.436364 640.8 L 1331.509091 640.8 L 1331.509091 479.628613 L 1331.509091 479.628613 L 1326.436364 433.706385 L 1321.363636 425.932981 L 1316.290909 439.071723 L 1311.218182 467.503793 L 1306.145455 493.570043 L 1301.072727 504.131733 L 1296 487.190783 L 1290.927273 472.404417 L 1285.854545 458.251752 L 1280.781818 454.196063 L 1275.709091 471.939702 L 1270.636364 485.669899 L 1265.563636 499.61133 L 1260.490909 485.500912 L 1255.418182 467.208065 L 1250.345455 459.138934 L 1245.272727 452.083725 L 1240.2 457.533557 L 1235.127273 470.418819 L 1230.054545 472.36217 L 1224.981818 444.606049 L 1219.909091 426.270955 L 1214.836364 422.004033 L 1209.763636 418.962266 L 1204.690909 455.421219 L 1199.618182 487.444263 L 1194.545455 497.330005 L 1189.472727 482.078925 L 1184.4 453.562362 L 1179.327273 442.662698 L 1174.254545 448.872972 L 1169.181818 462.180701 L 1164.109091 485.965627 L 1159.036364 472.826884 L 1153.963636 447.732309 L 1148.890909 436.241191 L 1143.818182 423.778397 L 1138.745455 436.156697 L 1133.672727 444.479309 L 1128.6 449.253193 L 1123.527273 450.900816 L 1118.454545 438.311282 L 1113.381818 425.932981 L 1108.309091 429.946423 L 1103.236364 431.340566 L 1098.163636 444.141335 L 1093.090909 445.028517 L 1088.018182 426.313202 L 1082.945455 409.414498 L 1077.872727 382.587806 L 1072.8 378.912338 L 1067.727273 368.477388 L 1062.654545 360.915218 L 1057.581818 377.644935 L 1052.509091 379.79952 L 1047.436364 401.218627 L 1042.363636 416.342967 L 1037.290909 420.314162 L 1032.218182 421.919539 L 1027.145455 428.721267 L 1022.072727 426.228709 L 1017 417.948344 L 1011.927273 396.318003 L 1006.854545 354.197984 L 1001.781818 339.411618 L 996.709091 340.721267 L 991.636364 348.367931 L 986.563636 377.264714 L 981.490909 390.276716 L 976.418182 387.065963 L 971.345455 398.261354 L 966.272727 399.993471 L 961.2 391.206145 L 956.127273 401.683341 L 951.054545 391.501872 L 945.981818 386.981469 L 940.909091 405.189822 L 935.836364 397.92338 L 930.763636 417.694863 L 925.690909 428.763514 L 920.618182 424.496591 L 915.545455 430.664618 L 910.472727 421.243591 L 905.4 414.230629 L 900.327273 409.287758 L 895.254545 393.61421 L 890.181818 400.500432 L 885.109091 400.120211 L 880.036364 409.583485 L 874.963636 417.99059 L 869.890909 407.851368 L 864.818182 416.976668 L 859.745455 411.569083 L 854.672727 414.357369 L 849.6 423.98963 L 844.527273 417.483629 L 839.454545 424.834566 L 834.381818 433.199424 L 829.309091 417.399136 L 824.236364 429.650696 L 819.163636 400.711666 L 814.090909 377.222468 L 809.018182 381.531637 L 803.945455 360.028036 L 798.872727 378.532117 L 793.8 379.630533 L 788.727273 387.910898 L 783.654545 411.949304 L 778.581818 409.963706 L 773.509091 415.117811 L 768.436364 404.767355 L 763.363636 392.600288 L 758.290909 387.277196 L 753.218182 398.17686 L 748.145455 392.558041 L 743.072727 389.685262 L 738 393.952184 L 732.927273 392.093327 L 727.854545 402.992991 L 722.781818 393.825444 L 717.709091 398.007873 L 712.636364 397.331925 L 707.563636 401.683341 L 702.490909 399.908977 L 697.418182 399.402016 L 692.345455 389.854249 L 687.272727 391.332885 L 682.2 403.077484 L 677.127273 391.755353 L 672.054545 389.262794 L 666.981818 372.828805 L 661.909091 349.593087 L 656.836364 324.794239 L 651.763636 303.628613 L 646.690909 295.770715 L 641.618182 311.824484 L 636.545455 338.101968 L 631.472727 352.381373 L 626.4 361.844647 L 621.327273 331.089006 L 616.254545 299.699664 L 611.181818 309.036198 L 606.109091 314.570523 L 601.036364 351.071723 L 595.963636 395.261834 L 590.890909 393.867691 L 585.818182 386.770235 L 580.745455 361.126452 L 575.672727 350.86049 L 570.6 344.607969 L 565.527273 346.382333 L 560.454545 351.451944 L 555.381818 340.129813 L 550.309091 319.766875 L 545.236364 291.292559 L 540.163636 302.276716 L 535.090909 305.022756 L 530.018182 331.764954 L 524.945455 368.392895 L 519.872727 357.957945 L 514.8 344.016515 L 509.727273 313.641095 L 504.654545 300.967067 L 499.581818 322.30168 L 494.509091 302.107729 L 489.436364 332.018435 L 484.363636 321.330005 L 479.290909 274.309361 L 474.218182 270.338166 L 469.145455 250.946904 L 464.072727 260.410178 L 459 303.417379 L 453.927273 327.540278 L 448.854545 338.355449 L 443.781818 291.79952 L 438.709091 245.497072 L 433.636364 234.724148 L 428.563636 228.513874 L 423.490909 246.4265 L 418.418182 255.129333 L 413.345455 245.961786 L 408.272727 191.125492 L 403.2 163.200384 L 398.127273 133.92338 L 393.054545 112.8 L 387.981818 126.61469 L 382.909091 141.443303 L 377.836364 173.128373 L 372.763636 148.540759 L 367.690909 124.460106 L 362.618182 113.391455 L 357.545455 117.36265 L 352.472727 169.959866 L 347.4 211.319443 L 342.327273 230.668459 L 337.254545 176.592607 L 332.181818 147.61133 L 327.109091 160.116371 L 322.036364 189.815843 L 316.963636 272.703985 L 311.890909 350.902736 L 306.818182 358.845127 L 301.745455 309.416419 L 296.672727 244.356409 L 291.6 190.069323 L 286.527273 177.522036 L 281.454545 200.757753 L 276.381818 251.876332 L 271.309091 270.845127 L 266.236364 266.873932 L 261.163636 261.508593 L 256.090909 255.720787 L 251.018182 249.806241 L 245.945455 258.382333 L 240.872727 283.688142 L 235.8 275.323284 L 230.727273 218.543639 L 225.654545 187.027556 L 220.581818 181.23975 L 215.509091 198.518675 L 210.436364 288.124052 L 205.363636 356.648296 L 200.290909 374.307441 L 195.218182 383.094767 L 190.145455 442.578205 L 185.072727 500.202784 L 180 573.796639 z" clip-path="url(#p03a05bd09a)" fill="#1f77b4"/></g><g id="matplotlib.axis_1"><g id="xtick_1"><g id="line2d_1"><defs><path id="m7143fd2fca" d="M 0 0 L 0 3.5" stroke="#ffffff" stroke-width="0.8"/></defs><g><use xlink:href="#m7143fd2fca" x="180" y="640.8" fill="#ffffff" stroke="#ffffff" stroke-width="0.8"/></g></g><g id="text_1"><g transform="translate(176.81875 655.398438) scale(0.1 -0.1)" fill="#ffffff"><defs><path id="DejaVuSans-30" d="M 2034 4250 Q 1547 4250 1301 3770 Q 1056 3291 1056 2328 Q 1056 1369 1301 889 Q 1547 409 2034 409 Q 2525 409 2770 889 Q 3016 1369 3016 2328 Q 3016 3291 2770 3770 Q 2525 4250 2034 4250 z M 2034 4750 Q 2819 4750 3233 4129 Q 3647 3509 3647 2328 Q 3647 1150 3233 529 Q 2819 -91 2034 -91 Q 1250 -91 836 529 Q 422 1150 422 2328 Q 422 3509 836 4129 Q 1250 4750 2034 4750 z" transform="scale(0.015625)"/></defs><use xlink:href="#DejaVuSans-30"/></g></g></g><g id="xtick_2"><g id="line2d_2"><g><use xlink:href="#m7143fd2fca" x="306.818" y="640.8" fill="#ffffff" stroke="#ffffff" stroke-width="0.8"/></g></g><g id="text_2"><g transform="translate(300.455682 655.398438) scale(0.1 -0.1)" fill="#ffffff"><defs><path id="DejaVuSans-32" d="M 1228 531 L 3431 531 L 3431 0 L 469 0 L 469 531 Q 828 903 1448 1529 Q 2069 2156 2228 2338 Q 2531 2678 2651 2914 Q 2772 3150 2772 3378 Q 2772 3750 2511 3984 Q 2250 4219 1831 4219 Q 1534 4219 1204 4116 Q 875 4013 500 3803 L 500 4441 Q 881 4594 1212 4672 Q 1544 4750 1819 4750 Q 2544 4750 2975 4387 Q 3406 4025 3406 3419 Q 3406 3131 3298 2873 Q 3191 2616 2906 2266 Q 2828 2175 2409 1742 Q 1991 1309 1228 531 z" transform="scale(0.015625)"/><path id="DejaVuSans-35" d="M 691 4666 L 3169 4666 L 3169 4134 L 1269 4134 L 1269 2991 Q 1406 3038 1543 3061 Q 1681 3084 1819 3084 Q 2600 3084 3056 2656 Q 3513 2228 3513 1497 Q 3513 744 3044 326 Q 2575 -91 1722 -91 Q 1428 -91 1123 -41 Q 819 9 494 109 L 494 744 Q 775 591 1075 516 Q 1375 441 1709 441 Q 2250 441 2565 725 Q 2881 1009 2881 1497 Q 2881 1984 2565 2268 Q 2250 2553 1709 2553 Q 1456 2553 1204 2497 Q 953 2441 691 2322 L 691 4666 z" transform="scale(0.015625)"/></defs><use xlink:href="#DejaVuSans-32"/><use xlink:href="#DejaVuSans-35" x="63.623"/></g></g></g><g id="xtick_3"><g id="line2d_3"><g><use xlink:href="#m7143fd2fca" x="433.636" y="640.8" fill="#ffffff" stroke="#ffffff" stroke-width="0.8"/></g></g><g id="text_3"><g transform="translate(427.273864 655.398438) scale(0.1 -0.1)" fill="#ffffff"><use xlink:href="#DejaVuSans-35"/><use xlink:href="#DejaVuSans-30" x="63.623"/></g></g></g><g id="xtick_4"><g id="line2d_4"><g><use xlink:href="#m7143fd2fca" x="560.455" y="640.8" fill="#ffffff" stroke="#ffffff" stroke-width="0.8"/></g></g><g id="text_4"><g transform="translate(554.092045 655.398438) scale(0.1 -0.1)" fill="#ffffff"><defs><path id="DejaVuSans-37" d="M 525 4666 L 3525 4666 L 3525 4397 L 1831 0 L 1172 0 L 2766 4134 L 525 4134 L 525 4666 z" transform="scale(0.015625)"/></defs><use xlink:href="#DejaVuSans-37"/><use xlink:href="#DejaVuSans-35" x="63.623"/></g></g></g><g id="xtick_5"><g id="line2d_5"><g><use xlink:href="#m7143fd2fca" x="687.273" y="640.8" fill="#ffffff" stroke="#ffffff" stroke-width="0.8"/></g></g><g id="text_5"><g transform="translate(677.728977 655.398438) scale(0.1 -0.1)" fill="#ffffff"><defs><path id="DejaVuSans-31" d="M 794 531 L 1825 531 L 1825 4091 L 703 3866 L 703 4441 L 1819 4666 L 2450 4666 L 2450 531 L 3481 531 L 3481 0 L 794 0 L 794 531 z" transform="scale(0.015625)"/></defs><use xlink:href="#DejaVuSans-31"/><use xlink:href="#DejaVuSans-30" x="63.623"/><use xlink:href="#DejaVuSans-30" x="127.246"/></g></g></g><g id="xtick_6"><g id="line2d_6"><g><use xlink:href="#m7143fd2fca" x="814.091" y="640.8" fill="#ffffff" stroke="#ffffff" stroke-width="0.8"/></g></g><g id="text_6"><g transform="translate(804.547159 655.398438) scale(0.1 -0.1)" fill="#ffffff"><use xlink:href="#DejaVuSans-31"/><use xlink:href="#DejaVuSans-32" x="63.623"/><use xlink:href="#DejaVuSans-35" x="127.246"/></g></g></g><g id="xtick_7"><g id="line2d_7"><g><use xlink:href="#m7143fd2fca" x="940.909" y="640.8" fill="#ffffff" stroke="#ffffff" stroke-width="0.8"/></g></g><g id="text_7"><g transform="translate(931.365341 655.398438) scale(0.1 -0.1)" fill="#ffffff"><use xlink:href="#DejaVuSans-31"/><use xlink:href="#DejaVuSans-35" x="63.623"/><use xlink:href="#DejaVuSans-30" x="127.246"/></g></g></g><g id="xtick_8"><g id="line2d_8"><g><use xlink:href="#m7143fd2fca" x="1067.727" y="640.8" fill="#ffffff" stroke="#ffffff" stroke-width="0.8"/></g></g><g id="text_8"><g transform="translate(1058.183523 655.398438) scale(0.1 -0.1)" fill="#ffffff"><use xlink:href="#DejaVuSans-31"/><use xlink:href="#DejaVuSans-37" x="63.623"/><use xlink:href="#DejaVuSans-35" x="127.246"/></g></g></g><g id="xtick_9"><g id="line2d_9"><g><use xlink:href="#m7143fd2fca" x="1194.545" y="640.8" fill="#ffffff" stroke="#ffffff" stroke-width="0.8"/></g></g><g id="text_9"><g transform="translate(1185.001705 655.398438) scale(0.1 -0.1)" fill="#ffffff"><use xlink:href="#DejaVuSans-32"/><use xlink:href="#DejaVuSans-30" x="63.623"/><use xlink:href="#DejaVuSans-30" x="127.246"/></g></g></g><g id="xtick_10"><g id="line2d_10"><defs><path id="ma3b9c843ea" d="M 0 0 L 0 2" stroke="#ffffff" stroke-width="0.6"/></defs><g><use xlink:href="#ma3b9c843ea" x="205.364" y="640.8" fill="#ffffff" stroke="#ffffff" stroke-width="0.6"/></g></g></g><g id="xtick_11"><g id="line2d_11"><g><use xlink:href="#ma3b9c843ea" x="230.727" y="640.8" fill="#ffffff" stroke="#ffffff" stroke-width="0.6"/></g></g></g><g id="xtick_12"><g id="line2d_12"><g><use xlink:href="#ma3b9c843ea" x="256.091" y="640.8" fill="#ffffff" stroke="#ffffff" stroke-width="0.6"/></g></g></g><g id="xtick_13"><g id="line2d_13"><g><use xlink:href="#ma3b9c843ea" x="281.455" y="640.8" fill="#ffffff" stroke="#ffffff" stroke-width="0.6"/></g></g></g><g id="xtick_14"><g id="line2d_14"><g><use xlink:href="#ma3b9c843ea" x="332.182" y="640.8" fill="#ffffff" stroke="#ffffff" stroke-width="0.6"/></g></g></g><g id="xtick_15"><g id="line2d_15"><g><use xlink:href="#ma3b9c843ea" x="357.545" y="640.8" fill="#ffffff" stroke="#ffffff" stroke-width="0.6"/></g></g></g><g id="xtick_16"><g id="line2d_16"><g><use xlink:href="#ma3b9c843ea" x="382.909" y="640.8" fill="#ffffff" stroke="#ffffff" stroke-width="0.6"/></g></g></g><g id="xtick_17"><g id="line2d_17"><g><use xlink:href="#ma3b9c843ea" x="408.273" y="640.8" fill="#ffffff" stroke="#ffffff" stroke-width="0.6"/></g></g></g><g id="xtick_18"><g id="line2d_18"><g><use xlink:href="#ma3b9c843ea" x="459" y="640.8" fill="#ffffff" stroke="#ffffff" stroke-width="0.6"/></g></g></g><g id="xtick_19"><g id="line2d_19"><g><use xlink:href="#ma3b9c843ea" x="484.364" y="640.8" fill="#ffffff" stroke="#ffffff" stroke-width="0.6"/></g></g></g><g id="xtick_20"><g id="line2d_20"><g><use xlink:href="#ma3b9c843ea" x="509.727" y="640.8" fill="#ffffff" stroke="#ffffff" stroke-width="0.6"/></g></g></g><g id="xtick_21"><g id="line2d_21"><g><use xlink:href="#ma3b9c843ea" x="535.091" y="640.8" fill="#ffffff" stroke="#ffffff" stroke-width="0.6"/></g></g></g><g id="xtick_22"><g id="line2d_22"><g><use xlink:href="#ma3b9c843ea" x="585.818" y="640.8" fill="#ffffff" stroke="#ffffff" stroke-width="0.6"/></g></g></g><g id="xtick_23"><g id="line2d_23"><g><use xlink:href="#ma3b9c843ea" x="611.182" y="640.8" fill="#ffffff" stroke="#ffffff" stroke-width="0.6"/></g></g></g><g id="xtick_24"><g id="line2d_24"><g><use xlink:href="#ma3b9c843ea" x="636.545" y="640.8" fill="#ffffff" stroke="#ffffff" stroke-width="0.6"/></g></g></g><g id="xtick_25"><g id="line2d_25"><g><use xlink:href="#ma3b9c843ea" x="661.909" y="640.8" fill="#ffffff" stroke="#ffffff" stroke-width="0.6"/></g></g></g><g id="xtick_26"><g id="line2d_26"><g><use xlink:href="#ma3b9c843ea" x="712.636" y="640.8" fill="#ffffff" stroke="#ffffff" stroke-width="0.6"/></g></g></g><g id="xtick_27"><g id="line2d_27"><g><use xlink:href="#ma3b9c843ea" x="738" y="640.8" fill="#ffffff" stroke="#ffffff" stroke-width="0.6"/></g></g></g><g id="xtick_28"><g id="line2d_28"><g><use xlink:href="#ma3b9c843ea" x="763.364" y="640.8" fill="#ffffff" stroke="#ffffff" stroke-width="0.6"/></g></g></g><g id="xtick_29"><g id="line2d_29"><g><use xlink:href="#ma3b9c843ea" x="788.727" y="640.8" fill="#ffffff" stroke="#ffffff" stroke-width="0.6"/></g></g></g><g id="xtick_30"><g id="line2d_30"><g><use xlink:href="#ma3b9c843ea" x="839.455" y="640.8" fill="#ffffff" stroke="#ffffff" stroke-width="0.6"/></g></g></g><g id="xtick_31"><g id="line2d_31"><g><use xlink:href="#ma3b9c843ea" x="864.818" y="640.8" fill="#ffffff" stroke="#ffffff" stroke-width="0.6"/></g></g></g><g id="xtick_32"><g id="line2d_32"><g><use xlink:href="#ma3b9c843ea" x="890.182" y="640.8" fill="#ffffff" stroke="#ffffff" stroke-width="0.6"/></g></g></g><g id="xtick_33"><g id="line2d_33"><g><use xlink:href="#ma3b9c843ea" x="915.545" y="640.8" fill="#ffffff" stroke="#ffffff" stroke-width="0.6"/></g></g></g><g id="xtick_34"><g id="line2d_34"><g><use xlink:href="#ma3b9c843ea" x="966.273" y="640.8" fill="#ffffff" stroke="#ffffff" stroke-width="0.6"/></g></g></g><g id="xtick_35"><g id="line2d_35"><g><use xlink:href="#ma3b9c843ea" x="991.636" y="640.8" fill="#ffffff" stroke="#ffffff" stroke-width="0.6"/></g></g></g><g id="xtick_36"><g id="line2d_36"><g><use xlink:href="#ma3b9c843ea" x="1017" y="640.8" fill="#ffffff" stroke="#ffffff" stroke-width="0.6"/></g></g></g><g id="xtick_37"><g id="line2d_37"><g><use xlink:href="#ma3b9c843ea" x="1042.364" y="640.8" fill="#ffffff" stroke="#ffffff" stroke-width="0.6"/></g></g></g><g id="xtick_38"><g id="line2d_38"><g><use xlink:href="#ma3b9c843ea" x="1093.091" y="640.8" fill="#ffffff" stroke="#ffffff" stroke-width="0.6"/></g></g></g><g id="xtick_39"><g id="line2d_39"><g><use xlink:href="#ma3b9c843ea" x="1118.455" y="640.8" fill="#ffffff" stroke="#ffffff" stroke-width="0.6"/></g></g></g><g id="xtick_40"><g id="line2d_40"><g><use xlink:href="#ma3b9c843ea" x="1143.818" y="640.8" fill="#ffffff" stroke="#ffffff" stroke-width="0.6"/></g></g></g><g id="xtick_41"><g id="line2d_41"><g><use xlink:href="#ma3b9c843ea" x="1169.182" y="640.8" fill="#ffffff" stroke="#ffffff" stroke-width="0.6"/></g></g></g><g id="xtick_42"><g id="line2d_42"><g><use xlink:href="#ma3b9c843ea" x="1219.909" y="640.8" fill="#ffffff" stroke="#ffffff" stroke-width="0.6"/></g></g></g><g id="xtick_43"><g id="line2d_43"><g><use xlink:href="#ma3b9c843ea" x="1245.273" y="640.8" fill="#ffffff" stroke="#ffffff" stroke-width="0.6"/></g></g></g><g id="xtick_44"><g id="line2d_44"><g><use xlink:href="#ma3b9c843ea" x="1270.636" y="640.8" fill="#ffffff" stroke="#ffffff" stroke-width="0.6"/></g></g></g><g id="xtick_45"><g id="line2d_45"><g><use xlink:href="#ma3b9c843ea" x="1296" y="640.8" fill="#ffffff" stroke="#ffffff" stroke-width="0.6"/></g></g></g><g id="text_10"><g transform="translate(664.841406 669.076563) scale(0.1 -0.1)" fill="#ffffff"><defs><path id="DejaVuSans-44" d="M 1259 4147 L 1259 519 L 2022 519 Q 2988 519 3436 956 Q 3884 1394 3884 2338 Q 3884 3275 3436 3711 Q 2988 4147 2022 4147 L 1259 4147 z M 628 4666 L 1925 4666 Q 3281 4666 3915 4102 Q 4550 3538 4550 2338 Q 4550 1131 3912 565 Q 3275 0 1925 0 L 628 0 L 628 4666 z" transform="scale(0.015625)"/><path id="DejaVuSans-61" d="M 2194 1759 Q 1497 1759 1228 1600 Q 959 1441 959 1056 Q 959 750 1161 570 Q 1363 391 1709 391 Q 2188 391 2477 730 Q 2766 1069 2766 1631 L 2766 1759 L 2194 1759 z M 3341 1997 L 3341 0 L 2766 0 L 2766 531 Q 2569 213 2275 61 Q 1981 -91 1556 -91 Q 1019 -91 701 211 Q 384 513 384 1019 Q 384 1609 779 1909 Q 1175 2209 1959 2209 L 2766 2209 L 2766 2266 Q 2766 2663 2505 2880 Q 2244 3097 1772 3097 Q 1472 3097 1187 3025 Q 903 2953 641 2809 L 641 3341 Q 956 3463 1253 3523 Q 1550 3584 1831 3584 Q 2591 3584 2966 3190 Q 3341 2797 3341 1997 z" transform="scale(0.015625)"/><path id="DejaVuSans-79" d="M 2059 -325 Q 1816 -950 1584 -1140 Q 1353 -1331 966 -1331 L 506 -1331 L 506 -850 L 844 -850 Q 1081 -850 1212 -737 Q 1344 -625 1503 -206 L 1606 56 L 191 3500 L 800 3500 L 1894 763 L 2988 3500 L 3597 3500 L 2059 -325 z" transform="scale(0.015625)"/><path id="DejaVuSans-73" d="M 2834 3397 L 2834 2853 Q 2591 2978 2328 3040 Q 2066 3103 1784 3103 Q 1356 3103 1142 2972 Q 928 2841 928 2578 Q 928 2378 1081 2264 Q 1234 2150 1697 2047 L 1894 2003 Q 2506 1872 2764 1633 Q 3022 1394 3022 966 Q 3022 478 2636 193 Q 2250 -91 1575 -91 Q 1294 -91 989 -36 Q 684 19 347 128 L 347 722 Q 666 556 975 473 Q 1284 391 1588 391 Q 1994 391 2212 530 Q 2431 669 2431 922 Q 2431 1156 2273 1281 Q 2116 1406 1581 1522 L 1381 1569 Q 847 1681 609 1914 Q 372 2147 372 2553 Q 372 3047 722 3315 Q 1072 3584 1716 3584 Q 2034 3584 2315 3537 Q 2597 3491 2834 3397 z" transform="scale(0.015625)"/><path id="DejaVuSans-20" transform="scale(0.015625)"/><path id="DejaVuSans-69" d="M 603 3500 L 1178 3500 L 1178 0 L 603 0 L 603 3500 z M 603 4863 L 1178 4863 L 1178 4134 L 603 4134 L 603 4863 z" transform="scale(0.015625)"/><path id="DejaVuSans-6e" d="M 3513 2113 L 3513 0 L 2938 0 L 2938 2094 Q 2938 2591 2744 2837 Q 2550 3084 2163 3084 Q 1697 3084 1428 2787 Q 1159 2491 1159 1978 L 1159 0 L 581 0 L 581 3500 L 1159 3500 L 1159 2956 Q 1366 3272 1645 3428 Q 1925 3584 2291 3584 Q 2894 3584 3203 3211 Q 3513 2838 3513 2113 z" transform="scale(0.015625)"/><path id="DejaVuSans-63" d="M 3122 3366 L 3122 2828 Q 2878 2963 2633 3030 Q 2388 3097 2138 3097 Q 1578 3097 1268 2742 Q 959 2388 959 1747 Q 959 1106 1268 751 Q 1578 397 2138 397 Q 2388 397 2633 464 Q 2878 531 3122 666 L 3122 134 Q 2881 22 2623 -34 Q 2366 -91 2075 -91 Q 1284 -91 818 406 Q 353 903 353 1747 Q 353 2603 823 3093 Q 1294 3584 2113 3584 Q 2378 3584 2631 3529 Q 2884 3475 3122 3366 z" transform="scale(0.015625)"/><path id="DejaVuSans-65" d="M 3597 1894 L 3597 1613 L 953 1613 Q 991 1019 1311 708 Q 1631 397 2203 397 Q 2534 397 2845 478 Q 3156 559 3463 722 L 3463 178 Q 3153 47 2828 -22 Q 2503 -91 2169 -91 Q 1331 -91 842 396 Q 353 884 353 1716 Q 353 2575 817 3079 Q 1281 3584 2069 3584 Q 2775 3584 3186 3129 Q 3597 2675 3597 1894 z M 3022 2063 Q 3016 2534 2758 2815 Q 2500 3097 2075 3097 Q 1594 3097 1305 2825 Q 1016 2553 972 2059 L 3022 2063 z" transform="scale(0.015625)"/><path id="DejaVuSans-36" d="M 2113 2584 Q 1688 2584 1439 2293 Q 1191 2003 1191 1497 Q 1191 994 1439 701 Q 1688 409 2113 409 Q 2538 409 2786 701 Q 3034 994 3034 1497 Q 3034 2003 2786 2293 Q 2538 2584 2113 2584 z M 3366 4563 L 3366 3988 Q 3128 4100 2886 4159 Q 2644 4219 2406 4219 Q 1781 4219 1451 3797 Q 1122 3375 1075 2522 Q 1259 2794 1537 2939 Q 1816 3084 2150 3084 Q 2853 3084 3261 2657 Q 3669 2231 3669 1497 Q 3669 778 3244 343 Q 2819 -91 2113 -91 Q 1303 -91 875 529 Q 447 1150 447 2328 Q 447 3434 972 4092 Q 1497 4750 2381 4750 Q 2619 4750 2861 4703 Q 3103 4656 3366 4563 z" transform="scale(0.015625)"/><path id="DejaVuSans-2f" d="M 1625 4666 L 2156 4666 L 531 -594 L 0 -594 L 1625 4666 z" transform="scale(0.015625)"/><path id="DejaVuSans-33" d="M 2597 2516 Q 3050 2419 3304 2112 Q 3559 1806 3559 1356 Q 3559 666 3084 287 Q 2609 -91 1734 -91 Q 1441 -91 1130 -33 Q 819 25 488 141 L 488 750 Q 750 597 1062 519 Q 1375 441 1716 441 Q 2309 441 2620 675 Q 2931 909 2931 1356 Q 2931 1769 2642 2001 Q 2353 2234 1838 2234 L 1294 2234 L 1294 2753 L 1863 2753 Q 2328 2753 2575 2939 Q 2822 3125 2822 3475 Q 2822 3834 2567 4026 Q 2313 4219 1838 4219 Q 1578 4219 1281 4162 Q 984 4106 628 3988 L 628 4550 Q 988 4650 1302 4700 Q 1616 4750 1894 4750 Q 2613 4750 3031 4423 Q 3450 4097 3450 3541 Q 3450 3153 3228 2886 Q 3006 2619 2597 2516 z" transform="scale(0.015625)"/><path id="DejaVuSans-28" d="M 1984 4856 Q 1566 4138 1362 3434 Q 1159 2731 1159 2009 Q 1159 1288 1364 580 Q 1569 -128 1984 -844 L 1484 -844 Q 1016 -109 783 600 Q 550 1309 550 2009 Q 550 2706 781 3412 Q 1013 4119 1484 4856 L 1984 4856 z" transform="scale(0.015625)"/><path id="DejaVuSans-55" d="M 556 4666 L 1191 4666 L 1191 1831 Q 1191 1081 1462 751 Q 1734 422 2344 422 Q 2950 422 3222 751 Q 3494 1081 3494 1831 L 3494 4666 L 4128 4666 L 4128 1753 Q 4128 841 3676 375 Q 3225 -91 2344 -91 Q 1459 -91 1007 375 Q 556 841 556 1753 L 556 4666 z" transform="scale(0.015625)"/><path id="DejaVuSans-43" d="M 4122 4306 L 4122 3641 Q 3803 3938 3442 4084 Q 3081 4231 2675 4231 Q 1875 4231 1450 3742 Q 1025 3253 1025 2328 Q 1025 1406 1450 917 Q 1875 428 2675 428 Q 3081 428 3442 575 Q 3803 722 4122 1019 L 4122 359 Q 3791 134 3420 21 Q 3050 -91 2638 -91 Q 1578 -91 968 557 Q 359 1206 359 2328 Q 359 3453 968 4101 Q 1578 4750 2638 4750 Q 3056 4750 3426 4639 Q 3797 4528 4122 4306 z" transform="scale(0.015625)"/><path id="DejaVuSans-54" d="M -19 4666 L 3928 4666 L 3928 4134 L 2272 4134 L 2272 0 L 1638 0 L 1638 4134 L -19 4134 L -19 4666 z" transform="scale(0.015625)"/><path id="DejaVuSans-29" d="M 513 4856 L 1013 4856 Q 1481 4119 1714 3412 Q 1947 2706 1947 2009 Q 1947 1309 1714 600 Q 1481 -109 1013 -844 L 513 -844 Q 928 -128 1133 580 Q 1338 1288 1338 2009 Q 1338 2731 1133 3434 Q 928 4138 513 4856 z" transform="scale(0.015625)"/></defs><use xlink:href="#DejaVuSans-44"/><use xlink:href="#DejaVuSans-61" x="77.002"/><use xlink:href="#DejaVuSans-79" x="138.281"/><use xlink:href="#DejaVuSans-73" x="197.461"/><use xlink:href="#DejaVuSans-20" x="249.561"/><use xlink:href="#DejaVuSans-73" x="281.348"/><use xlink:href="#DejaVuSans-69" x="333.447"/><use xlink:href="#DejaVuSans-6e" x="361.23"/><use xlink:href="#DejaVuSans-63" x="424.609"/><use xlink:href="#DejaVuSans-65" x="479.59"/><use xlink:href="#DejaVuSans-20" x="541.113"/><use xlink:href="#DejaVuSans-32" x="572.9"/><use xlink:href="#DejaVuSans-36" x="636.523"/><use xlink:href="#DejaVuSans-2f" x="700.146"/><use xlink:href="#DejaVuSans-30" x="733.838"/><use xlink:href="#DejaVuSans-32" x="797.461"/><use xlink:href="#DejaVuSans-2f" x="861.084"/><use xlink:href="#DejaVuSans-32" x="894.775"/><use xlink:href="#DejaVuSans-30" x="958.398"/><use xlink:href="#DejaVuSans-32" x="1022.021"/><use xlink:href="#DejaVuSans-33" x="1085.645"/><use xlink:href="#DejaVuSans-20" x="1149.268"/><use xlink:href="#DejaVuSans-28" x="1181.055"/><use xlink:href="#DejaVuSans-55" x="1220.068"/><use xlink:href="#DejaVuSans-43" x="1293.262"/><use xlink:href="#DejaVuSans-54" x="1363.086"/><use xlink:href="#DejaVuSans-29" x="1424.17"/></g></g></g><g id="matplotlib.axis_2"><g id="ytick_1"><g id="line2d_46"><defs><path id="m8d0433000d" d="M 0 0 L -3.5 0" stroke="#ffffff" stroke-width="0.8"/></defs><g><use xlink:href="#m8d0433000d" x="180" y="640.8" fill="#ffffff" stroke="#ffffff" stroke-width="0.8"/></g></g><g id="text_11"><g transform="translate(166.6375 644.599219) scale(0.1 -0.1)" fill="#ffffff"><use xlink:href="#DejaVuSans-30"/></g></g></g><g id="ytick_2"><g id="line2d_47"><g><use xlink:href="#m8d0433000d" x="180" y="556.306" fill="#ffffff" stroke="#ffffff" stroke-width="0.8"/></g></g><g id="text_12"><g transform="translate(147.55 560.1057) scale(0.1 -0.1)" fill="#ffffff"><use xlink:href="#DejaVuSans-32"/><use xlink:href="#DejaVuSans-30" x="63.623"/><use xlink:href="#DejaVuSans-30" x="127.246"/><use xlink:href="#DejaVuSans-30" x="190.869"/></g></g></g><g id="ytick_3"><g id="line2d_48"><g><use xlink:href="#m8d0433000d" x="180" y="471.813" fill="#ffffff" stroke="#ffffff" stroke-width="0.8"/></g></g><g id="text_13"><g transform="translate(147.55 475.612181) scale(0.1 -0.1)" fill="#ffffff"><defs><path id="DejaVuSans-34" d="M 2419 4116 L 825 1625 L 2419 1625 L 2419 4116 z M 2253 4666 L 3047 4666 L 3047 1625 L 3713 1625 L 3713 1100 L 3047 1100 L 3047 0 L 2419 0 L 2419 1100 L 313 1100 L 313 1709 L 2253 4666 z" transform="scale(0.015625)"/></defs><use xlink:href="#DejaVuSans-34"/><use xlink:href="#DejaVuSans-30" x="63.623"/><use xlink:href="#DejaVuSans-30" x="127.246"/><use xlink:href="#DejaVuSans-30" x="190.869"/></g></g></g><g id="ytick_4"><g id="line2d_49"><g><use xlink:href="#m8d0433000d" x="180" y="387.319" fill="#ffffff" stroke="#ffffff" stroke-width="0.8"/></g></g><g id="text_14"><g transform="translate(147.55 391.118662) scale(0.1 -0.1)" fill="#ffffff"><use xlink:href="#DejaVuSans-36"/><use xlink:href="#DejaVuSans-30" x="63.623"/><use xlink:href="#DejaVuSans-30" x="127.246"/><use xlink:href="#DejaVuSans-30" x="190.869"/></g></g></g><g id="ytick_5"><g id="line2d_50"><g><use xlink:href="#m8d0433000d" x="180" y="302.826" fill="#ffffff" stroke="#ffffff" stroke-width="0.8"/></g></g><g id="text_15"><g transform="translate(147.55 306.625143) scale(0.1 -0.1)" fill="#ffffff"><defs><path id="DejaVuSans-38" d="M 2034 2216 Q 1584 2216 1326 1975 Q 1069 1734 1069 1313 Q 1069 891 1326 650 Q 1584 409 2034 409 Q 2484 409 2743 651 Q 3003 894 3003 1313 Q 3003 1734 2745 1975 Q 2488 2216 2034 2216 z M 1403 2484 Q 997 2584 770 2862 Q 544 3141 544 3541 Q 544 4100 942 4425 Q 1341 4750 2034 4750 Q 2731 4750 3128 4425 Q 3525 4100 3525 3541 Q 3525 3141 3298 2862 Q 3072 2584 2669 2484 Q 3125 2378 3379 2068 Q 3634 1759 3634 1313 Q 3634 634 3220 271 Q 2806 -91 2034 -91 Q 1263 -91 848 271 Q 434 634 434 1313 Q 434 1759 690 2068 Q 947 2378 1403 2484 z M 1172 3481 Q 1172 3119 1398 2916 Q 1625 2713 2034 2713 Q 2441 2713 2670 2916 Q 2900 3119 2900 3481 Q 2900 3844 2670 4047 Q 2441 4250 2034 4250 Q 1625 4250 1398 4047 Q 1172 3844 1172 3481 z" transform="scale(0.015625)"/></defs><use xlink:href="#DejaVuSans-38"/><use xlink:href="#DejaVuSans-30" x="63.623"/><use xlink:href="#DejaVuSans-30" x="127.246"/><use xlink:href="#DejaVuSans-30" x="190.869"/></g></g></g><g id="ytick_6"><g id="line2d_51"><g><use xlink:href="#m8d0433000d" x="180" y="218.332" fill="#ffffff" stroke="#ffffff" stroke-width="0.8"/></g></g><g id="text_16"><g transform="translate(141.1875 222.131624) scale(0.1 -0.1)" fill="#ffffff"><use xlink:href="#DejaVuSans-31"/><use xlink:href="#DejaVuSans-30" x="63.623"/><use xlink:href="#DejaVuSans-30" x="127.246"/><use xlink:href="#DejaVuSans-30" x="190.869"/><use xlink:href="#DejaVuSans-30" x="254.492"/></g></g></g><g id="ytick_7"><g id="line2d_52"><g><use xlink:href="#m8d0433000d" x="180" y="133.839" fill="#ffffff" stroke="#ffffff" stroke-width="0.8"/></g></g><g id="text_17"><g transform="translate(141.1875 137.638105) scale(0.1 -0.1)" fill="#ffffff"><use xlink:href="#DejaVuSans-31"/><use xlink:href="#DejaVuSans-32" x="63.623"/><use xlink:href="#DejaVuSans-30" x="127.246"/><use xlink:href="#DejaVuSans-30" x="190.869"/><use xlink:href="#DejaVuSans-30" x="254.492"/></g></g></g><g id="ytick_8"><g id="line2d_53"><defs><path id="m091d785b7f" d="M 0 0 L -2 0" stroke="#ffffff" stroke-width="0.6"/></defs><g><use xlink:href="#m091d785b7f" x="180" y="619.677" fill="#ffffff" stroke="#ffffff" stroke-width="0.6"/></g></g></g><g id="ytick_9"><g id="line2d_54"><g><use xlink:href="#m091d785b7f" x="180" y="598.553" fill="#ffffff" stroke="#ffffff" stroke-width="0.6"/></g></g></g><g id="ytick_10"><g id="line2d_55"><g><use xlink:href="#m091d785b7f" x="180" y="577.43" fill="#ffffff" stroke="#ffffff" stroke-width="0.6"/></g></g></g><g id="ytick_11"><g id="line2d_56"><g><use xlink:href="#m091d785b7f" x="180" y="535.183" fill="#ffffff" stroke="#ffffff" stroke-width="0.6"/></g></g></g><g id="ytick_12"><g id="line2d_57"><g><use xlink:href="#m091d785b7f" x="180" y="514.06" fill="#ffffff" stroke="#ffffff" stroke-width="0.6"/></g></g></g><g id="ytick_13"><g id="line2d_58"><g><use xlink:href="#m091d785b7f" x="180" y="492.936" fill="#ffffff" stroke="#ffffff" stroke-width="0.6"/></g></g></g><g id="ytick_14"><g id="line2d_59"><g><use xlink:href="#m091d785b7f" x="180" y="450.69" fill="#ffffff" stroke="#ffffff" stroke-width="0.6"/></g></g></g><g id="ytick_15"><g id="line2d_60"><g><use xlink:href="#m091d785b7f" x="180" y="429.566" fill="#ffffff" stroke="#ffffff" stroke-width="0.6"/></g></g></g><g id="ytick_16"><g id="line2d_61"><g><use xlink:href="#m091d785b7f" x="180" y="408.443" fill="#ffffff" stroke="#ffffff" stroke-width="0.6"/></g></g></g><g id="ytick_17"><g id="line2d_62"><g><use xlink:href="#m091d785b7f" x="180" y="366.196" fill="#ffffff" stroke="#ffffff" stroke-width="0.6"/></g></g></g><g id="ytick_18"><g id="line2d_63"><g><use xlink:href="#m091d785b7f" x="180" y="345.073" fill="#ffffff" stroke="#ffffff" stroke-width="0.6"/></g></g></g><g id="ytick_19"><g id="line2d_64"><g><use xlink:href="#m091d785b7f" x="180" y="323.949" fill="#ffffff" stroke="#ffffff" stroke-width="0.6"/></g></g></g><g id="ytick_20"><g id="line2d_65"><g><use xlink:href="#m091d785b7f" x="180" y="281.703" fill="#ffffff" stroke="#ffffff" stroke-width="0.6"/></g></g></g><g id="ytick_21"><g id="line2d_66"><g><use xlink:href="#m091d785b7f" x="180" y="260.579" fill="#ffffff" stroke="#ffffff" stroke-width="0.6"/></g></g></g><g id="ytick_22"><g id="line2d_67"><g><use xlink:href="#m091d785b7f" x="180" y="239.456" fill="#ffffff" stroke="#ffffff" stroke-width="0.6"/></g></g></g><g id="ytick_23"><g id="line2d_68"><g><use xlink:href="#m091d785b7f" x="180" y="197.209" fill="#ffffff" stroke="#ffffff" stroke-width="0.6"/></g></g></g><g id="ytick_24"><g id="line2d_69"><g><use xlink:href="#m091d785b7f" x="180" y="176.086" fill="#ffffff" stroke="#ffffff" stroke-width="0.6"/></g></g></g><g id="ytick_25"><g id="line2d_70"><g><use xlink:href="#m091d785b7f" x="180" y="154.962" fill="#ffffff" stroke="#ffffff" stroke-width="0.6"/></g></g></g><g id="ytick_26"><g id="line2d_71"><g><use xlink:href="#m091d785b7f" x="180" y="112.716" fill="#ffffff" stroke="#ffffff" stroke-width="0.6"/></g></g></g><g id="ytick_27"><g id="line2d_72"><g><use xlink:href="#m091d785b7f" x="180" y="91.592" fill="#ffffff" stroke="#ffffff" stroke-width="0.6"/></g></g></g><g id="text_18"><g transform="translate(135.107812 384.51875) rotate(-90) scale(0.1 -0.1)" fill="#ffffff"><defs><path id="DejaVuSans-56" d="M 1831 0 L 50 4666 L 709 4666 L 2188 738 L 3669 4666 L 4325 4666 L 2547 0 L 1831 0 z" transform="scale(0.015625)"/><path id="DejaVuSans-74" d="M 1172 4494 L 1172 3500 L 2356 3500 L 2356 3053 L 1172 3053 L 1172 1153 Q 1172 725 1289 603 Q 1406 481 1766 481 L 2356 481 L 2356 0 L 1766 0 Q 1100 0 847 248 Q 594 497 594 1153 L 594 3053 L 172 3053 L 172 3500 L 594 3500 L 594 4494 L 1172 4494 z" transform="scale(0.015625)"/><path id="DejaVuSans-67" d="M 2906 1791 Q 2906 2416 2648 2759 Q 2391 3103 1925 3103 Q 1463 3103 1205 2759 Q 947 2416 947 1791 Q 947 1169 1205 825 Q 1463 481 1925 481 Q 2391 481 2648 825 Q 2906 1169 2906 1791 z M 3481 434 Q 3481 -459 3084 -895 Q 2688 -1331 1869 -1331 Q 1566 -1331 1297 -1286 Q 1028 -1241 775 -1147 L 775 -588 Q 1028 -725 1275 -790 Q 1522 -856 1778 -856 Q 2344 -856 2625 -561 Q 2906 -266 2906 331 L 2906 616 Q 2728 306 2450 153 Q 2172 0 1784 0 Q 1141 0 747 490 Q 353 981 353 1791 Q 353 2603 747 3093 Q 1141 3584 1784 3584 Q 2172 3584 2450 3431 Q 2728 3278 2906 2969 L 2906 3500 L 3481 3500 L 3481 434 z" transform="scale(0.015625)"/></defs><use xlink:href="#DejaVuSans-56"/><use xlink:href="#DejaVuSans-65" x="60.658"/><use xlink:href="#DejaVuSans-73" x="122.182"/><use xlink:href="#DejaVuSans-74" x="174.281"/><use xlink:href="#DejaVuSans-69" x="213.49"/><use xlink:href="#DejaVuSans-67" x="241.273"/><use xlink:href="#DejaVuSans-65" x="304.75"/><use xlink:href="#DejaVuSans-73" x="366.273"/></g></g></g><g id="patch_3"><path d="M 180 640.8 L 180 86.4" fill="none" stroke="#ffffff" stroke-width="0.8" stroke-linejoin="miter" stroke-linecap="square"/></g><g id="patch_4"><path d="M 1296 640.8 L 1296 86.4" fill="none" stroke="#ffffff" stroke-width="0.8" stroke-linejoin="miter" stroke-linecap="square"/></g><g id="patch_5"><path d="M 180 640.8 L 1296 640.8" fill="none" stroke="#ffffff" stroke-width="0.8" stroke-linejoin="miter" stroke-linecap="square"/></g><g id="patch_6"><path d="M 180 86.4 L 1296 86.4" fill="none" stroke="#ffffff" stroke-width="0.8" stroke-linejoin="miter" stroke-linecap="square"/></g><g id="text_19"><g transform="translate(619.767187 80.4) scale(0.12 -0.12)" fill="#ffffff"><defs><path id="DejaVuSans-62" d="M 3116 1747 Q 3116 2381 2855 2742 Q 2594 3103 2138 3103 Q 1681 3103 1420 2742 Q 1159 2381 1159 1747 Q 1159 1113 1420 752 Q 1681 391 2138 391 Q 2594 391 2855 752 Q 3116 1113 3116 1747 z M 1159 2969 Q 1341 3281 1617 3432 Q 1894 3584 2278 3584 Q 2916 3584 3314 3078 Q 3713 2572 3713 1747 Q 3713 922 3314 415 Q 2916 -91 2278 -91 Q 1894 -91 1617 61 Q 1341 213 1159 525 L 1159 0 L 581 0 L 581 4863 L 1159 4863 L 1159 2969 z" transform="scale(0.015625)"/><path id="DejaVuSans-6c" d="M 603 4863 L 1178 4863 L 1178 0 L 603 0 L 603 4863 z" transform="scale(0.015625)"/><path id="DejaVuSans-6f" d="M 1959 3097 Q 1497 3097 1228 2736 Q 959 2375 959 1747 Q 959 1119 1226 758 Q 1494 397 1959 397 Q 2419 397 2687 759 Q 2956 1122 2956 1747 Q 2956 2369 2687 2733 Q 2419 3097 1959 3097 z M 1959 3584 Q 2709 3584 3137 3096 Q 3566 2609 3566 1747 Q 3566 888 3137 398 Q 2709 -91 1959 -91 Q 1206 -91 779 398 Q 353 888 353 1747 Q 353 2609 779 3096 Q 1206 3584 1959 3584 z" transform="scale(0.015625)"/><path id="DejaVuSans-75" d="M 544 1381 L 544 3500 L 1119 3500 L 1119 1403 Q 1119 906 1312 657 Q 1506 409 1894 409 Q 2359 409 2629 706 Q 2900 1003 2900 1516 L 2900 3500 L 3475 3500 L 3475 0 L 2900 0 L 2900 538 Q 2691 219 2414 64 Q 2138 -91 1772 -91 Q 1169 -91 856 284 Q 544 659 544 1381 z M 1991 3584 L 1991 3584 z" transform="scale(0.015625)"/><path id="DejaVuSans-66" d="M 2375 4863 L 2375 4384 L 1825 4384 Q 1516 4384 1395 4259 Q 1275 4134 1275 3809 L 1275 3500 L 2222 3500 L 2222 3053 L 1275 3053 L 1275 0 L 697 0 L 697 3053 L 147 3053 L 147 3500 L 697 3500 L 697 3744 Q 697 4328 969 4595 Q 1241 4863 1831 4863 L 2375 4863 z" transform="scale(0.015625)"/><path id="DejaVuSans-53" d="M 3425 4513 L 3425 3897 Q 3066 4069 2747 4153 Q 2428 4238 2131 4238 Q 1616 4238 1336 4038 Q 1056 3838 1056 3469 Q 1056 3159 1242 3001 Q 1428 2844 1947 2747 L 2328 2669 Q 3034 2534 3370 2195 Q 3706 1856 3706 1288 Q 3706 609 3251 259 Q 2797 -91 1919 -91 Q 1588 -91 1214 -16 Q 841 59 441 206 L 441 856 Q 825 641 1194 531 Q 1563 422 1919 422 Q 2459 422 2753 634 Q 3047 847 3047 1241 Q 3047 1584 2836 1778 Q 2625 1972 2144 2069 L 1759 2144 Q 1053 2284 737 2584 Q 422 2884 422 3419 Q 422 4038 858 4394 Q 1294 4750 2059 4750 Q 2388 4750 2728 4690 Q 3069 4631 3425 4513 z" transform="scale(0.015625)"/></defs><use xlink:href="#DejaVuSans-56"/><use xlink:href="#DejaVuSans-69" x="66.158"/><use xlink:href="#DejaVuSans-73" x="93.941"/><use xlink:href="#DejaVuSans-69" x="146.041"/><use xlink:href="#DejaVuSans-62" x="173.824"/><use xlink:href="#DejaVuSans-6c" x="237.301"/><use xlink:href="#DejaVuSans-65" x="265.084"/><use xlink:href="#DejaVuSans-20" x="326.607"/><use xlink:href="#DejaVuSans-56" x="358.395"/><use xlink:href="#DejaVuSans-65" x="419.053"/><use xlink:href="#DejaVuSans-73" x="480.576"/><use xlink:href="#DejaVuSans-74" x="532.676"/><use xlink:href="#DejaVuSans-69" x="571.885"/><use xlink:href="#DejaVuSans-67" x="599.668"/><use xlink:href="#DejaVuSans-65" x="663.145"/><use xlink:href="#DejaVuSans-20" x="724.668"/><use xlink:href="#DejaVuSans-43" x="756.455"/><use xlink:href="#DejaVuSans-6f" x="826.279"/><use xlink:href="#DejaVuSans-75" x="887.461"/><use xlink:href="#DejaVuSans-6e" x="950.84"/><use xlink:href="#DejaVuSans-74" x="1014.219"/><use xlink:href="#DejaVuSans-20" x="1053.428"/><use xlink:href="#DejaVuSans-28" x="1085.215"/><use xlink:href="#DejaVuSans-44" x="1124.229"/><use xlink:href="#DejaVuSans-65" x="1201.23"/><use xlink:href="#DejaVuSans-66" x="1262.754"/><use xlink:href="#DejaVuSans-61" x="1297.959"/><use xlink:href="#DejaVuSans-75" x="1359.238"/><use xlink:href="#DejaVuSans-6c" x="1422.617"/><use xlink:href="#DejaVuSans-74" x="1450.4"/><use xlink:href="#DejaVuSans-20" x="1489.609"/><use xlink:href="#DejaVuSans-53" x="1521.396"/><use xlink:href="#DejaVuSans-65" x="1584.873"/><use xlink:href="#DejaVuSans-74" x="1646.396"/><use xlink:href="#DejaVuSans-74" x="1685.605"/><use xlink:href="#DejaVuSans-69" x="1724.814"/><use xlink:href="#DejaVuSans-6e" x="1752.598"/><use xlink:href="#DejaVuSans-67" x="1815.977"/><use xlink:href="#DejaVuSans-73" x="1879.453"/><use xlink:href="#DejaVuSans-29" x="1931.553"/></g></g></g><g id="legend_1"><g id="patch_7"><path d="M 683.08125 715 L 756.91875 715 Q 758.91875 715 758.91875 713 L 758.91875 699.321875 Q 758.91875 697.321875 756.91875 697.321875 L 683.08125 697.321875 Q 681.08125 697.321875 681.08125 699.321875 L 681.08125 713 Q 681.08125 715 683.08125 715 z" opacity="0.8" stroke="#cccccc" stroke-linejoin="miter"/></g><g id="patch_8"><path d="M 685.08125 708.920313 L 705.08125 708.920313 L 705.08125 701.920313 L 685.08125 701.920313 z" fill="#1f77b4"/></g><g id="text_20"><g transform="translate(713.08125 708.920313) scale(0.1 -0.1)" fill="#ffffff"><use xlink:href="#DejaVuSans-56"/><use xlink:href="#DejaVuSans-65" x="60.658"/><use xlink:href="#DejaVuSans-73" x="122.182"/><use xlink:href="#DejaVuSans-74" x="174.281"/><use xlink:href="#DejaVuSans-69" x="213.49"/><use xlink:href="#DejaVuSans-67" x="241.273"/><use xlink:href="#DejaVuSans-65" x="304.75"/><use xlink:href="#DejaVuSans-73" x="366.273"/></g></g></g></g><defs><clipPath id="p03a05bd09a"><rect x="180" y="86.4" width="1116" height="554.4"/></clipPath></defs></svg>