<svg xmlns:xlink="http://www.w3.org/1999/xlink" width="1920" height="960" viewBox="0 0 1440 720" xmlns="http://www.w3.org/2000/svg" version="1.1"><metadata><rdf:RDF xmlns:dc="http://purl.org/dc/elements/1.1/" xmlns:cc="http://creativecommons.org/ns#" xmlns:rdf="http://www.w3.org/1999/02/22-rdf-syntax-ns#"><cc:Work><dc:type rdf:resource="http://purl.org/dc/dcmitype/StillImage"/><dc:format>image/svg+xml</dc:format><dc:creator><cc:Agent><dc:title>Matplotlib v3.7.1, https://matplotlib.org/</dc:title></cc:Agent></dc:creator></cc:Work></rdf:RDF></metadata><defs><style type="text/css">*{stroke-linejoin:round;stroke-linecap:butt}</style></defs><g id="figure_1"><g id="patch_1"><path d="M 0 720 L 1440 720 L 1440 0 L 0 0 z"/></g><g id="axes_1"><g id="patch_2"><path d="M 180 640.8 L 1296 640.8 L 1296 86.4 L 180 86.4 z"/></g><g id="PolyCollection_1"><path d="M 180 573.796639 L 180 640.8 L 184.133333 640.8 L 188.266667 640.8 L 192.4 640.8 L 196.533333 640.8 L 200.666667 640.8 L 204.8 640.8 L 208.933333 640.8 L 213.066667 640.8 L 217.2 640.8 L 221.333333 640.8 L 225.466667 640.8 L 229.6 640.8 L 233.733333 640.8 L 237.866667 640.8 L 242 640.8 L 246.133333 640.8 L 250.266667 640.8 L 254.4 640.8 L 258.533333 640.8 L 262.666667 640.8 L 266.8 640.8 L 270.933333 640.8 L 275.066667 640.8 L 279.2 640.8 L 283.333333 640.8 L 287.466667 640.8 L 291.6 640.8 L 295.733333 640.8 L 299.866667 640.8 L 304 640.8 L 308.133333 640.8 L 312.266667 640.8 L 316.4 640.8 L 320.533333 640.8 L 324.666667 640.8 L 328.8 640.8 L 332.933333 640.8 L 337.066667 640.8 L 341.2 640.8 L 345.333333 640.8 L 349.466667 640.8 L 353.6 640.8 L 357.733333 640.8 L 361.866667 640.8 L 366 640.8 L 370.133333 640.8 L 374.266667 640.8 L 378.4 640.8 L 382.533333 640.8 L 386.666667 640.8 L 390.8 640.8 L 394.933333 640.8 L 399.066667 640.8 L 403.2 640.8 L 407.333333 640.8 L 411.466667 640.8 L 415.6 640.8 L 419.733333 640.8 L 423.866667 640.8 L 428 640.8 L 432.133333 640.8 L 436.266667 640.8 L 440.4 640.8 L 444.533333 640.8 L 448.666667 640.8 L 452.8 640.8 L 456.933333 640.8 L 461.066667 640.8 L 465.2 640.8 L 469.333333 640.8 L 473.466667 640.8 L 477.6 640.8 L 481.733333 640.8 L 485.866667 640.8 L 490 640.8 L 494.133333 640.8 L 498.266667 640.8 L 502.4 640.8 L 506.533333 640.8 L 510.666667 640.8 L 514.8 640.8 L 518.933333 640.8 L 523.066667 640.8 L 527.2 640.8 L 531.333333 640.8 L 535.466667 640.8 L 539.6 640.8 L 543.733333 640.8 L 547.866667 640.8 L 552 640.8 L 556.133333 640.8 L 560.266667 640.8 L 564.4 640.8 L 568.533333 640.8 L 572.666667 640.8 L 576.8 640.8 L 580.933333 640.8 L 585.066667 640.8 L 589.2 640.8 L 593.333333 640.8 L 597.466667 640.8 L 601.6 640.8 L 605.733333 640.8 L 609.866667 640.8 L 614 640.8 L 618.133333 640.8 L 622.266667 640.8 L 626.4 640.8 L 630.533333 640.8 L 634.666667 640.8 L 638.8 640.8 L 642.933333 640.8 L 647.066667 640.8 L 651.2 640.8 L 655.333333 640.8 L 659.466667 640.8 L 663.6 640.8 L 667.733333 640.8 L 671.866667 640.8 L 676 640.8 L 680.133333 640.8 L 684.266667 640.8 L 688.4 640.8 L 692.533333 640.8 L 696.666667 640.8 L 700.8 640.8 L 704.933333 640.8 L 709.066667 640.8 L 713.2 640.8 L 717.333333 640.8 L 721.466667 640.8 L 725.6 640.8 L 729.733333 640.8 L 733.866667 640.8 L 738 640.8 L 742.133333 640.8 L 746.266667 640.8 L 750.4 640.8 L 754.533333 640.8 L 758.666667 640.8 L 762.8 640.8 L 766.933333 640.8 L 771.066667 640.8 L 775.2 640.8 L 779.333333 640.8 L 783.466667 640.8 L 787.6 640.8 L 791.733333 640.8 L 795.866667 640.8 L 800 640.8 L 804.133333 640.8 L 808.266667 640.8 L 812.4 640.8 L 816.533333 640.8 L 820.666667 640.8 L 824.8 640.8 L 828.933333 640.8 L 833.066667 640.8 L 837.2 640.8 L 841.333333 640.8 L 845.466667 640.8 L 849.6 640.8 L 853.733333 640.8 L 857.866667 640.8 L 862 640.8 L 866.133333 640.8 L 870.266667 640.8 L 874.4 640.8 L 878.533333 640.8 L 882.666667 640.8 L 886.8 640.8 L 890.933333 640.8 L 895.066667 640.8 L 899.2 640.8 L 903.333333 640.8 L 907.466667 640.8 L 911.6 640.8 L 915.733333 640.8 L 919.866667 640.8 L 924 640.8 L 928.133333 640.8 L 932.266667 640.8 L 936.4 640.8 L 940.533333 640.8 L 944.666667 640.8 L 948.8 640.8 L 952.933333 640.8 L 957.066667 640.8 L 961.2 640.8 L 965.333333 640.8 L 969.466667 640.8 L 973.6 640.8 L 977.733333 640.8 L 981.866667 640.8 L 986 640.8 L 990.133333 640.8 L 994.266667 640.8 L 998.4 640.8 L 1002.533333 640.8 L 1006.666667 640.8 L 1010.8 640.8 L 1014.933333 640.8 L 1019.066667 640.8 L 1023.2 640.8 L 1027.333333 640.8 L 1031.466667 640.8 L 1035.6 640.8 L 1039.733333 640.8 L 1043.866667 640.8 L 1048 640.8 L 1052.133333 640.8 L 1056.266667 640.8 L 1060.4 640.8 L 1064.533333 640.8 L 1068.666667 640.8 L 1072.8 640.8 L 1076.933333 640.8 L 1081.066667 640.8 L 1085.2 640.8 L 1089.333333 640.8 L 1093.466667 640.8 L 1097.6 640.8 L 1101.733333 640.8 L 1105.866667 640.8 L 1110 640.8 L 1114.133333 640.8 L 1118.266667 640.8 L 1122.4 640.8 L 1126.533333 640.8 L 1130.666667 640.8 L 1134.8 640.8 L 1138.933333 640.8 L 1143.066667 640.8 L 1147.2 640.8 L 1151.333333 640.8 L 1155.466667 640.8 L 1159.6 640.8 L 1163.733333 640.8 L 1167.866667 640.8 L 1172 640.8 L 1176.133333 640.8 L 1180.266667 640.8 L 1184.4 640.8 L 1188.533333 640.8 L 1192.666667 640.8 L 1196.8 640.8 L 1200.933333 640.8 L 1205.066667 640.8 L 1209.2 640.8 L 1213.333333 640.8 L 1217.466667 640.8 L 1221.6 640.8 L 1225.733333 640.8 L 1229.866667 640.8 L 1234 640.8 L 1238.133333 640.8 L 1242.266667 640.8 L 1246.4 640.8 L 1250.533333 640.8 L 1254.666667 640.8 L 1258.8 640.8 L 1262.933333 640.8 L 1267.066667 640.8 L 1271.2 640.8 L 1275.333333 640.8 L 1279.466667 640.8 L 1283.6 640.8 L 1287.733333 640.8 L 1291.866667 640.8 L 1296 640.8 L 1300.133333 640.8 L 1304.266667 640.8 L 1308.4 640.8 L 1312.533333 640.8 L 1316.666667 640.8 L 1320.8 640.8 L 1324.933333 640.8 L 1324.933333 515.580605 L 1324.933333 515.580605 L 1320.8 490.655017 L 1316.666667 496.273836 L 1312.533333 491.373212 L 1308.4 490.655017 L 1304.266667 503.455785 L 1300.133333 513.975228 L 1296 518.791359 L 1291.866667 504.30072 L 1287.733333 483.135094 L 1283.6 484.655977 L 1279.466667 495.428901 L 1275.333333 520.143255 L 1271.2 547.983869 L 1267.066667 547.054441 L 1262.933333 538.731829 L 1258.8 526.311282 L 1254.666667 520.312242 L 1250.533333 512.665578 L 1246.4 514.820163 L 1242.266667 516.848008 L 1238.133333 517.819683 L 1234 507.215747 L 1229.866667 476.206625 L 1225.733333 458.589726 L 1221.6 454.407297 L 1217.466667 473.9253 L 1213.333333 497.034277 L 1209.2 519.129333 L 1205.066667 510.17302 L 1200.933333 491.077484 L 1196.8 485.162938 L 1192.666667 471.263754 L 1188.533333 468.053 L 1184.4 471.137014 L 1180.266667 477.516275 L 1176.133333 460.617571 L 1172 441.226308 L 1167.866667 438.649256 L 1163.733333 443.761114 L 1159.6 471.263754 L 1155.466667 500.920979 L 1151.333333 504.765434 L 1147.2 475.61517 L 1143.066667 461.082285 L 1138.933333 452.80192 L 1134.8 448.366011 L 1130.666667 473.333845 L 1126.533333 484.149016 L 1122.4 475.36169 L 1118.266667 456.097168 L 1114.133333 433.706385 L 1110 425.932981 L 1105.866667 439.071723 L 1101.733333 467.503793 L 1097.6 493.570043 L 1093.466667 504.131733 L 1089.333333 487.190783 L 1085.2 472.404417 L 1081.066667 458.251752 L 1076.933333 454.196063 L 1072.8 471.939702 L 1068.666667 485.669899 L 1064.533333 499.61133 L 1060.4 485.500912 L 1056.266667 467.208065 L 1052.133333 459.138934 L 1048 452.083725 L 1043.866667 457.533557 L 1039.733333 470.418819 L 1035.6 472.36217 L 1031.466667 444.606049 L 1027.333333 426.270955 L 1023.2 422.004033 L 1019.066667 418.962266 L 1014.933333 455.421219 L 1010.8 487.444263 L 1006.666667 497.330005 L 1002.533333 482.078925 L 998.4 453.562362 L 994.266667 442.662698 L 990.133333 448.872972 L 986 462.180701 L 981.866667 485.965627 L 977.733333 472.826884 L 973.6 447.732309 L 969.466667 436.241191 L 965.333333 423.778397 L 961.2 436.156697 L 957.066667 444.479309 L 952.933333 449.253193 L 948.8 450.900816 L 944.666667 438.311282 L 940.533333 425.932981 L 936.4 429.946423 L 932.266667 431.340566 L 928.133333 444.141335 L 924 445.028517 L 919.866667 426.313202 L 915.733333 409.414498 L 911.6 382.587806 L 907.466667 378.912338 L 903.333333 368.477388 L 899.2 360.915218 L 895.066667 377.644935 L 890.933333 379.79952 L 886.8 401.218627 L 882.666667 416.342967 L 878.533333 420.314162 L 874.4 421.919539 L 870.266667 428.721267 L 866.133333 426.228709 L 862 417.948344 L 857.866667 396.318003 L 853.733333 354.197984 L 849.6 339.411618 L 845.466667 340.721267 L 841.333333 348.367931 L 837.2 377.264714 L 833.066667 390.276716 L 828.933333 387.065963 L 824.8 398.261354 L 820.666667 399.993471 L 816.533333 391.206145 L 812.4 401.683341 L 808.266667 391.501872 L 804.133333 386.981469 L 800 405.189822 L 795.866667 397.92338 L 791.733333 417.694863 L 787.6 428.763514 L 783.466667 424.496591 L 779.333333 430.664618 L 775.2 421.243591 L 771.066667 414.230629 L 766.933333 409.287758 L 762.8 393.61421 L 758.666667 400.500432 L 754.533333 400.120211 L 750.4 409.583485 L 746.266667 417.99059 L 742.133333 407.851368 L 738 416.976668 L 733.866667 411.569083 L 729.733333 414.357369 L 725.6 423.98963 L 721.466667 417.483629 L 717.333333 424.834566 L 713.2 433.199424 L 709.066667 417.399136 L 704.933333 429.650696 L 700.8 400.711666 L 696.666667 377.222468 L 692.533333 381.531637 L 688.4 360.028036 L 684.266667 378.532117 L 680.133333 379.630533 L 676 387.910898 L 671.866667 411.949304 L 667.733333 409.963706 L 663.6 415.117811 L 659.466667 404.767355 L 655.333333 392.600288 L 651.2 387.277196 L 647.066667 398.17686 L 642.933333 392.558041 L 638.8 389.685262 L 634.666667 393.952184 L 630.533333 392.093327 L 626.4 402.992991 L 622.266667 393.825444 L 618.133333 398.007873 L 614 397.331925 L 609.866667 401.683341 L 605.733333 399.908977 L 601.6 399.402016 L 597.466667 389.854249 L 593.333333 391.332885 L 589.2 403.077484 L 585.066667 391.755353 L 580.933333 389.262794 L 576.8 372.828805 L 572.666667 349.593087 L 568.533333 324.794239 L 564.4 303.628613 L 560.266667 295.770715 L 556.133333 311.824484 L 552 338.101968 L 547.866667 352.381373 L 543.733333 361.844647 L 539.6 331.089006 L 535.466667 299.699664 L 531.333333 309.036198 L 527.2 314.570523 L 523.066667 351.071723 L 518.933333 395.261834 L 514.8 393.867691 L 510.666667 386.770235 L 506.533333 361.126452 L 502.4 350.86049 L 498.266667 344.607969 L 494.133333 346.382333 L 490 351.451944 L 485.866667 340.129813 L 481.733333 319.766875 L 477.6 291.292559 L 473.466667 302.276716 L 469.333333 305.022756 L 465.2 331.764954 L 461.066667 368.392895 L 456.933333 357.957945 L 452.8 344.016515 L 448.666667 313.641095 L 444.533333 300.967067 L 440.4 322.30168 L 436.266667 302.107729 L 432.133333 332.018435 L 428 321.330005 L 423.866667 274.309361 L 419.733333 270.338166 L 415.6 250.946904 L 411.466667 260.410178 L 407.333333 303.417379 L 403.2 327.540278 L 399.066667 338.355449 L 394.933333 291.79952 L 390.8 245.497072 L 386.666667 234.724148 L 382.533333 228.513874 L 378.4 246.4265 L 374.266667 255.129333 L 370.133333 245.961786 L 366 191.125492 L 361.866667 163.200384 L 357.733333 133.92338 L 353.6 112.8 L 349.466667 126.61469 L 345.333333 141.443303 L 341.2 173.128373 L 337.066667 148.540759 L 332.933333 124.460106 L 328.8 113.391455 L 324.666667 117.36265 L 320.533333 169.959866 L 316.4 211.319443 L 312.266667 230.668459 L 308.133333 176.592607 L 304 147.61133 L 299.866667 160.116371 L 295.733333 189.815843 L 291.6 272.703985 L 287.466667 350.902736 L 283.333333 358.845127 L 279.2 309.416419 L 275.066667 244.356409 L 270.933333 190.069323 L 266.8 177.522036 L 262.666667 200.757753 L 258.533333 251.876332 L 254.4 270.845127 L 250.266667 266.873932 L 246.133333 261.508593 L 242 255.720787 L 237.866667 249.806241 L 233.733333 258.382333 L 229.6 283.688142 L 225.466667 275.323284 L 221.333333 218.543639 L 217.2 187.027556 L 213.066667 181.23975 L 208.933333 198.518675 L 204.8 288.124052 L 200.666667 356.648296 L 196.533333 374.307441 L 192.4 383.094767 L 188.266667 442.578205 L 184.133333 500.202784 L 180 573.796639 z" clip-path="url(#p19c251bfdd)" fill="#1f77b4"/></g><g id="matplotlib.axis_1"><g id="xtick_1"><g id="line2d_1"><defs><path id="m63141e4b31" d="M 0 0 L 0 3.5" stroke="#ffffff" stroke-width="0.8"/></defs><g><use xlink:href="#m63141e4b31" x="180" y="640.8" fill="#ffffff" stroke="#ffffff" stroke-width="0.8"/></g></g><g id="text_1"><g transform="translate(176.81875 655.398438) scale(0.1 -0.1)" fill="#ffffff"><defs><path id="DejaVuSans-30" d="M 2034 4250 Q 1547 4250 1301 3770 Q 1056 3291 1056 2328 Q 1056 1369 1301 889 Q 1547 409 2034 409 Q 2525 409 2770 889 Q 3016 1369 3016 2328 Q 3016 3291 2770 3770 Q 2525 4250 2034 4250 z M 2034 4750 Q 2819 4750 3233 4129 Q 3647 3509 3647 2328 Q 3647 1150 3233 529 Q 2819 -91 2034 -91 Q 1250 -91 836 529 Q 422 1150 422 2328 Q 422 3509 836 4129 Q 1250 4750 2034 4750 z" transform="scale(0.015625)"/></defs><use xlink:href="#DejaVuSans-30"/></g></g></g><g id="xtick_2"><g id="line2d_2"><g><use xlink:href="#m63141e4b31" x="386.667" y="640.8" fill="#ffffff" stroke="#ffffff" stroke-width="0.8"/></g></g><g id="text_2"><g transform="translate(380.304167 655.398438) scale(0.1 -0.1)" fill="#ffffff"><defs><path id="DejaVuSans-35" d="M 691 4666 L 3169 4666 L 3169 4134 L 1269 4134 L 1269 2991 Q 1406 3038 1543 3061 Q 1681 3084 1819 3084 Q 2600 3084 3056 2656 Q 3513 2228 3513 1497 Q 3513 744 3044 326 Q 2575 -91 1722 -91 Q 1428 -91 1123 -41 Q 819 9 494 109 L 494 744 Q 775 591 1075 516 Q 1375 441 1709 441 Q 2250 441 2565 725 Q 2881 1009 2881 1497 Q 2881 1984 2565 2268 Q 2250 2553 1709 2553 Q 1456 2553 1204 2497 Q 953 2441 691 2322 L 691 4666 z" transform="scale(0.015625)"/></defs><use xlink:href="#DejaVuSans-35"/><use xlink:href="#DejaVuSans-30" x="63.623"/></g></g></g><g id="xtick_3"><g id="line2d_3"><g><use xlink:href="#m63141e4b31" x="593.333" y="640.8" fill="#ffffff" stroke="#ffffff" stroke-width="0.8"/></g></g><g id="text_3"><g transform="translate(583.789583 655.398438) scale(0.1 -0.1)" fill="#ffffff"><defs><path id="DejaVuSans-31" d="M 794 531 L 1825 531 L 1825 4091 L 703 3866 L 703 4441 L 1819 4666 L 2450 4666 L 2450 531 L 3481 531 L 3481 0 L 794 0 L 794 531 z" transform="scale(0.015625)"/></defs><use xlink:href="#DejaVuSans-31"/><use xlink:href="#DejaVuSans-30" x="63.623"/><use xlink:href="#DejaVuSans-30" x="127.246"/></g></g></g><g id="xtick_4"><g id="line2d_4"><g><use xlink:href="#m63141e4b31" x="800" y="640.8" fill="#ffffff" stroke="#ffffff" stroke-width="0.8"/></g></g><g id="text_4"><g transform="translate(790.45625 655.398438) scale(0.1 -0.1)" fill="#ffffff"><use xlink:href="#DejaVuSans-31"/><use xlink:href="#DejaVuSans-35" x="63.623"/><use xlink:href="#DejaVuSans-30" x="127.246"/></g></g></g><g id="xtick_5"><g id="line2d_5"><g><use xlink:href="#m63141e4b31" x="1006.667" y="640.8" fill="#ffffff" stroke="#ffffff" stroke-width="0.8"/></g></g><g id="text_5"><g transform="translate(997.122917 655.398438) scale(0.1 -0.1)" fill="#ffffff"><defs><path id="DejaVuSans-32" d="M 1228 531 L 3431 531 L 3431 0 L 469 0 L 469 531 Q 828 903 1448 1529 Q 2069 2156 2228 2338 Q 2531 2678 2651 2914 Q 2772 3150 2772 3378 Q 2772 3750 2511 3984 Q 2250 4219 1831 4219 Q 1534 4219 1204 4116 Q 875 4013 500 3803 L 500 4441 Q 881 4594 1212 4672 Q 1544 4750 1819 4750 Q 2544 4750 2975 4387 Q 3406 4025 3406 3419 Q 3406 3131 3298 2873 Q 3191 2616 2906 2266 Q 2828 2175 2409 1742 Q 1991 1309 1228 531 z" transform="scale(0.015625)"/></defs><use xlink:href="#DejaVuSans-32"/><use xlink:href="#DejaVuSans-30" x="63.623"/><use xlink:href="#DejaVuSans-30" x="127.246"/></g></g></g><g id="xtick_6"><g id="line2d_6"><g><use xlink:href="#m63141e4b31" x="1213.333" y="640.8" fill="#ffffff" stroke="#ffffff" stroke-width="0.8"/></g></g><g id="text_6"><g transform="translate(1203.789583 655.398438) scale(0.1 -0.1)" fill="#ffffff"><use xlink:href="#DejaVuSans-32"/><use xlink:href="#DejaVuSans-35" x="63.623"/><use xlink:href="#DejaVuSans-30" x="127.246"/></g></g></g><g id="xtick_7"><g id="line2d_7"><defs><path id="mf865372ef3" d="M 0 0 L 0 2" stroke="#ffffff" stroke-width="0.6"/></defs><g><use xlink:href="#mf865372ef3" x="221.333" y="640.8" fill="#ffffff" stroke="#ffffff" stroke-width="0.6"/></g></g></g><g id="xtick_8"><g id="line2d_8"><g><use xlink:href="#mf865372ef3" x="262.667" y="640.8" fill="#ffffff" stroke="#ffffff" stroke-width="0.6"/></g></g></g><g id="xtick_9"><g id="line2d_9"><g><use xlink:href="#mf865372ef3" x="304" y="640.8" fill="#ffffff" stroke="#ffffff" stroke-width="0.6"/></g></g></g><g id="xtick_10"><g id="line2d_10"><g><use xlink:href="#mf865372ef3" x="345.333" y="640.8" fill="#ffffff" stroke="#ffffff" stroke-width="0.6"/></g></g></g><g id="xtick_11"><g id="line2d_11"><g><use xlink:href="#mf865372ef3" x="428" y="640.8" fill="#ffffff" stroke="#ffffff" stroke-width="0.6"/></g></g></g><g id="xtick_12"><g id="line2d_12"><g><use xlink:href="#mf865372ef3" x="469.333" y="640.8" fill="#ffffff" stroke="#ffffff" stroke-width="0.6"/></g></g></g><g id="xtick_13"><g id="line2d_13"><g><use xlink:href="#mf865372ef3" x="510.667" y="640.8" fill="#ffffff" stroke="#ffffff" stroke-width="0.6"/></g></g></g><g id="xtick_14"><g id="line2d_14"><g><use xlink:href="#mf865372ef3" x="552" y="640.8" fill="#ffffff" stroke="#ffffff" stroke-width="0.6"/></g></g></g><g id="xtick_15"><g id="line2d_15"><g><use xlink:href="#mf865372ef3" x="634.667" y="640.8" fill="#ffffff" stroke="#ffffff" stroke-width="0.6"/></g></g></g><g id="xtick_16"><g id="line2d_16"><g><use xlink:href="#mf865372ef3" x="676" y="640.8" fill="#ffffff" stroke="#ffffff" stroke-width="0.6"/></g></g></g><g id="xtick_17"><g id="line2d_17"><g><use xlink:href="#mf865372ef3" x="717.333" y="640.8" fill="#ffffff" stroke="#ffffff" stroke-width="0.6"/></g></g></g><g id="xtick_18"><g id="line2d_18"><g><use xlink:href="#mf865372ef3" x="758.667" y="640.8" fill="#ffffff" stroke="#ffffff" stroke-width="0.6"/></g></g></g><g id="xtick_19"><g id="line2d_19"><g><use xlink:href="#mf865372ef3" x="841.333" y="640.8" fill="#ffffff" stroke="#ffffff" stroke-width="0.6"/></g></g></g><g id="xtick_20"><g id="line2d_20"><g><use xlink:href="#mf865372ef3" x="882.667" y="640.8" fill="#ffffff" stroke="#ffffff" stroke-width="0.6"/></g></g></g><g id="xtick_21"><g id="line2d_21"><g><use xlink:href="#mf865372ef3" x="924" y="640.8" fill="#ffffff" stroke="#ffffff" stroke-width="0.6"/></g></g></g><g id="xtick_22"><g id="line2d_22"><g><use xlink:href="#mf865372ef3" x="965.333" y="640.8" fill="#ffffff" stroke="#ffffff" stroke-width="0.6"/></g></g></g><g id="xtick_23"><g id="line2d_23"><g><use xlink:href="#mf865372ef3" x="1048" y="640.8" fill="#ffffff" stroke="#ffffff" stroke-width="0.6"/></g></g></g><g id="xtick_24"><g id="line2d_24"><g><use xlink:href="#mf865372ef3" x="1089.333" y="640.8" fill="#ffffff" stroke="#ffffff" stroke-width="0.6"/></g></g></g><g id="xtick_25"><g id="line2d_25"><g><use xlink:href="#mf865372ef3" x="1130.667" y="640.8" fill="#ffffff" stroke="#ffffff" stroke-width="0.6"/></g></g></g><g id="xtick_26"><g id="line2d_26"><g><use xlink:href="#mf865372ef3" x="1172" y="640.8" fill="#ffffff" stroke="#ffffff" stroke-width="0.6"/></g></g></g><g id="xtick_27"><g id="line2d_27"><g><use xlink:href="#mf865372ef3" x="1254.667" y="640.8" fill="#ffffff" stroke="#ffffff" stroke-width="0.6"/></g></g></g><g id="xtick_28"><g id="line2d_28"><g><use xlink:href="#mf865372ef3" x="1296" y="640.8" fill="#ffffff" stroke="#ffffff" stroke-width="0.6"/></g></g></g><g id="text_7"><g transform="translate(664.841406 669.076563) scale(0.1 -0.1)" fill="#ffffff"><defs><path id="DejaVuSans-44" d="M 1259 4147 L 1259 519 L 2022 519 Q 2988 519 3436 956 Q 3884 1394 3884 2338 Q 3884 3275 3436 3711 Q 2988 4147 2022 4147 L 1259 4147 z M 628 4666 L 1925 4666 Q 3281 4666 3915 4102 Q 4550 3538 4550 2338 Q 4550 1131 3912 565 Q 3275 0 1925 0 L 628 0 L 628 4666 z" transform="scale(0.015625)"/><path id="DejaVuSans-61" d="M 2194 1759 Q 1497 1759 1228 1600 Q 959 1441 959 1056 Q 959 750 1161 570 Q 1363 391 1709 391 Q 2188 391 2477 730 Q 2766 1069 2766 1631 L 2766 1759 L 2194 1759 z M 3341 1997 L 3341 0 L 2766 0 L 2766 531 Q 2569 213 2275 61 Q 1981 -91 1556 -91 Q 1019 -91 701 211 Q 384 513 384 1019 Q 384 1609 779 1909 Q 1175 2209 1959 2209 L 2766 2209 L 2766 2266 Q 2766 2663 2505 2880 Q 2244 3097 1772 3097 Q 1472 3097 1187 3025 Q 903 2953 641 2809 L 641 3341 Q 956 3463 1253 3523 Q 1550 3584 1831 3584 Q 2591 3584 2966 3190 Q 3341 2797 3341 1997 z" transform="scale(0.015625)"/><path id="DejaVuSans-79" d="M 2059 -325 Q 1816 -950 1584 -1140 Q 1353 -1331 966 -1331 L 506 -1331 L 506 -850 L 844 -850 Q 1081 -850 1212 -737 Q 1344 -625 1503 -206 L 1606 56 L 191 3500 L 800 3500 L 1894 763 L 2988 3500 L 3597 3500 L 2059 -325 z" transform="scale(0.015625)"/><path id="DejaVuSans-73" d="M 2834 3397 L 2834 2853 Q 2591 2978 2328 3040 Q 2066 3103 1784 3103 Q 1356 3103 1142 2972 Q 928 2841 928 2578 Q 928 2378 1081 2264 Q 1234 2150 1697 2047 L 1894 2003 Q 2506 1872 2764 1633 Q 3022 1394 3022 966 Q 3022 478 2636 193 Q 2250 -91 1575 -91 Q 1294 -91 989 -36 Q 684 19 347 128 L 347 722 Q 666 556 975 473 Q 1284 391 1588 391 Q 1994 391 2212 530 Q 2431 669 2431 922 Q 2431 1156 2273 1281 Q 2116 1406 1581 1522 L 1381 1569 Q 847 1681 609 1914 Q 372 2147 372 2553 Q 372 3047 722 3315 Q 1072 3584 1716 3584 Q 2034 3584 2315 3537 Q 2597 3491 2834 3397 z" transform="scale(0.015625)"/><path id="DejaVuSans-20" transform="scale(0.015625)"/><path id="DejaVuSans-69" d="M 603 3500 L 1178 3500 L 1178 0 L 603 0 L 603 3500 z M 603 4863 L 1178 4863 L 1178 4134 L 603 4134 L 603 4863 z" transform="scale(0.015625)"/><path id="DejaVuSans-6e" d="M 3513 2113 L 3513 0 L 2938 0 L 2938 2094 Q 2938 2591 2744 2837 Q 2550 3084 2163 3084 Q 1697 3084 1428 2787 Q 1159 2491 1159 1978 L 1159 0 L 581 0 L 581 3500 L 1159 3500 L 1159 2956 Q 1366 3272 1645 3428 Q 1925 3584 2291 3584 Q 2894 3584 3203 3211 Q 3513 2838 3513 2113 z" transform="scale(0.015625)"/><path id="DejaVuSans-63" d="M 3122 3366 L 3122 2828 Q 2878 2963 2633 3030 Q 2388 3097 2138 3097 Q 1578 3097 1268 2742 Q 959 2388 959 1747 Q 959 1106 1268 751 Q 1578 397 2138 397 Q 2388 397 2633 464 Q 2878 531 3122 666 L 3122 134 Q 2881 22 2623 -34 Q 2366 -91 2075 -91 Q 1284 -91 818 406 Q 353 903 353 1747 Q 353 2603 823 3093 Q 1294 3584 2113 3584 Q 2378 3584 2631 3529 Q 2884 3475 3122 3366 z" transform="scale(0.015625)"/><path id="DejaVuSans-65" d="M 3597 1894 L 3597 1613 L 953 1613 Q 991 1019 1311 708 Q 1631 397 2203 397 Q 2534 397 2845 478 Q 3156 559 3463 722 L 3463 178 Q 3153 47 2828 -22 Q 2503 -91 2169 -91 Q 1331 -91 842 396 Q 353 884 353 1716 Q 353 2575 817 3079 Q 1281 3584 2069 3584 Q 2775 3584 3186 3129 Q 3597 2675 3597 1894 z M 3022 2063 Q 3016 2534 2758 2815 Q 2500 3097 2075 3097 Q 1594 3097 1305 2825 Q 1016 2553 972 2059 L 3022 2063 z" transform="scale(0.015625)"/><path id="DejaVuSans-36" d="M 2113 2584 Q 1688 2584 1439 2293 Q 1191 2003 1191 1497 Q 1191 994 1439 701 Q 1688 409 2113 409 Q 2538 409 2786 701 Q 3034 994 3034 1497 Q 3034 2003 2786 2293 Q 2538 2584 2113 2584 z M 3366 4563 L 3366 3988 Q 3128 4100 2886 4159 Q 2644 4219 2406 4219 Q 1781 4219 1451 3797 Q 1122 3375 1075 2522 Q 1259 2794 1537 2939 Q 1816 3084 2150 3084 Q 2853 3084 3261 2657 Q 3669 2231 3669 1497 Q 3669 778 3244 343 Q 2819 -91 2113 -91 Q 1303 -91 875 529 Q 447 1150 447 2328 Q 447 3434 972 4092 Q 1497 4750 2381 4750 Q 2619 4750 2861 4703 Q 3103 4656 3366 4563 z" transform="scale(0.015625)"/><path id="DejaVuSans-2f" d="M 1625 4666 L 2156 4666 L 531 -594 L 0 -594 L 1625 4666 z" transform="scale(0.015625)"/><path id="DejaVuSans-33" d="M 2597 2516 Q 3050 2419 3304 2112 Q 3559 1806 3559 1356 Q 3559 666 3084 287 Q 2609 -91 1734 -91 Q 1441 -91 1130 -33 Q 819 25 488 141 L 488 750 Q 750 597 1062 519 Q 1375 441 1716 441 Q 2309 441 2620 675 Q 2931 909 2931 1356 Q 2931 1769 2642 2001 Q 2353 2234 1838 2234 L 1294 2234 L 1294 2753 L 1863 2753 Q 2328 2753 2575 2939 Q 2822 3125 2822 3475 Q 2822 3834 2567 4026 Q 2313 4219 1838 4219 Q 1578 4219 1281 4162 Q 984 4106 628 3988 L 628 4550 Q 988 4650 1302 4700 Q 1616 4750 1894 4750 Q 2613 4750 3031 4423 Q 3450 4097 3450 3541 Q 3450 3153 3228 2886 Q 3006 2619 2597 2516 z" transform="scale(0.015625)"/><path id="DejaVuSans-28" d="M 1984 4856 Q 1566 4138 1362 3434 Q 1159 2731 1159 2009 Q 1159 1288 1364 580 Q 1569 -128 1984 -844 L 1484 -844 Q 1016 -109 783 600 Q 550 1309 550 2009 Q 550 2706 781 3412 Q 1013 4119 1484 4856 L 1984 4856 z" transform="scale(0.015625)"/><path id="DejaVuSans-55" d="M 556 4666 L 1191 4666 L 1191 1831 Q 1191 1081 1462 751 Q 1734 422 2344 422 Q 2950 422 3222 751 Q 3494 1081 3494 1831 L 3494 4666 L 4128 4666 L 4128 1753 Q 4128 841 3676 375 Q 3225 -91 2344 -91 Q 1459 -91 1007 375 Q 556 841 556 1753 L 556 4666 z" transform="scale(0.015625)"/><path id="DejaVuSans-43" d="M 4122 4306 L 4122 3641 Q 3803 3938 3442 4084 Q 3081 4231 2675 4231 Q 1875 4231 1450 3742 Q 1025 3253 1025 2328 Q 1025 1406 1450 917 Q 1875 428 2675 428 Q 3081 428 3442 575 Q 3803 722 4122 1019 L 4122 359 Q 3791 134 3420 21 Q 3050 -91 2638 -91 Q 1578 -91 968 557 Q 359 1206 359 2328 Q 359 3453 968 4101 Q 1578 4750 2638 4750 Q 3056 4750 3426 4639 Q 3797 4528 4122 4306 z" transform="scale(0.015625)"/><path id="DejaVuSans-54" d="M -19 4666 L 3928 4666 L 3928 4134 L 2272 4134 L 2272 0 L 1638 0 L 1638 4134 L -19 4134 L -19 4666 z" transform="scale(0.015625)"/><path id="DejaVuSans-29" d="M 513 4856 L 1013 4856 Q 1481 4119 1714 3412 Q 1947 2706 1947 2009 Q 1947 1309 1714 600 Q 1481 -109 1013 -844 L 513 -844 Q 928 -128 1133 580 Q 1338 1288 1338 2009 Q 1338 2731 1133 3434 Q 928 4138 513 4856 z" transform="scale(0.015625)"/></defs><use xlink:href="#DejaVuSans-44"/><use xlink:href="#DejaVuSans-61" x="77.002"/><use xlink:href="#DejaVuSans-79" x="138.281"/><use xlink:href="#DejaVuSans-73" x="197.461"/><use xlink:href="#DejaVuSans-20" x="249.561"/><use xlink:href="#DejaVuSans-73" x="281.348"/><use xlink:href="#DejaVuSans-69" x="333.447"/><use xlink:href="#DejaVuSans-6e" x="361.23"/><use xlink:href="#DejaVuSans-63" x="424.609"/><use xlink:href="#DejaVuSans-65" x="479.59"/><use xlink:href="#DejaVuSans-20" x="541.113"/><use xlink:href="#DejaVuSans-32" x="572.9"/><use xlink:href="#DejaVuSans-36" x="636.523"/><use xlink:href="#DejaVuSans-2f" x="700.146"/><use xlink:href="#DejaVuSans-30" x="733.838"/><use xlink:href="#DejaVuSans-32" x="797.461"/><use xlink:href="#DejaVuSans-2f" x="861.084"/><use xlink:href="#DejaVuSans-32" x="894.775"/><use xlink:href="#DejaVuSans-30" x="958.398"/><use xlink:href="#DejaVuSans-32" x="1022.021"/><use xlink:href="#DejaVuSans-33" x="1085.645"/><use xlink:href="#DejaVuSans-20" x="1149.268"/><use xlink:href="#DejaVuSans-28" x="1181.055"/><use xlink:href="#DejaVuSans-55" x="1220.068"/><use xlink:href="#DejaVuSans-43" x="1293.262"/><use xlink:href="#DejaVuSans-54" x="1363.086"/><use xlink:href="#DejaVuSans-29" x="1424.17"/></g></g></g><g id="matplotlib.axis_2"><g id="ytick_1"><g id="line2d_29"><defs><path id="mc128a38f95" d="M 0 0 L -3.5 0" stroke="#ffffff" stroke-width="0.8"/></defs><g><use xlink:href="#mc128a38f95" x="180" y="640.8" fill="#ffffff" stroke="#ffffff" stroke-width="0.8"/></g></g><g id="text_8"><g transform="translate(166.6375 644.599219) scale(0.1 -0.1)" fill="#ffffff"><use xlink:href="#DejaVuSans-30"/></g></g></g><g id="ytick_2"><g id="line2d_30"><g><use xlink:href="#mc128a38f95" x="180" y="556.306" fill="#ffffff" stroke="#ffffff" stroke-width="0.8"/></g></g><g id="text_9"><g transform="translate(147.55 560.1057) scale(0.1 -0.1)" fill="#ffffff"><use xlink:href="#DejaVuSans-32"/><use xlink:href="#DejaVuSans-30" x="63.623"/><use xlink:href="#DejaVuSans-30" x="127.246"/><use xlink:href="#DejaVuSans-30" x="190.869"/></g></g></g><g id="ytick_3"><g id="line2d_31"><g><use xlink:href="#mc128a38f95" x="180" y="471.813" fill="#ffffff" stroke="#ffffff" stroke-width="0.8"/></g></g><g id="text_10"><g transform="translate(147.55 475.612181) scale(0.1 -0.1)" fill="#ffffff"><defs><path id="DejaVuSans-34" d="M 2419 4116 L 825 1625 L 2419 1625 L 2419 4116 z M 2253 4666 L 3047 4666 L 3047 1625 L 3713 1625 L 3713 1100 L 3047 1100 L 3047 0 L 2419 0 L 2419 1100 L 313 1100 L 313 1709 L 2253 4666 z" transform="scale(0.015625)"/></defs><use xlink:href="#DejaVuSans-34"/><use xlink:href="#DejaVuSans-30" x="63.623"/><use xlink:href="#DejaVuSans-30" x="127.246"/><use xlink:href="#DejaVuSans-30" x="190.869"/></g></g></g><g id="ytick_4"><g id="line2d_32"><g><use xlink:href="#mc128a38f95" x="180" y="387.319" fill="#ffffff" stroke="#ffffff" stroke-width="0.8"/></g></g><g id="text_11"><g transform="translate(147.55 391.118662) scale(0.1 -0.1)" fill="#ffffff"><use xlink:href="#DejaVuSans-36"/><use xlink:href="#DejaVuSans-30" x="63.623"/><use xlink:href="#DejaVuSans-30" x="127.246"/><use xlink:href="#DejaVuSans-30" x="190.869"/></g></g></g><g id="ytick_5"><g id="line2d_33"><g><use xlink:href="#mc128a38f95" x="180" y="302.826" fill="#ffffff" stroke="#ffffff" stroke-width="0.8"/></g></g><g id="text_12"><g transform="translate(147.55 306.625143) scale(0.1 -0.1)" fill="#ffffff"><defs><path id="DejaVuSans-38" d="M 2034 2216 Q 1584 2216 1326 1975 Q 1069 1734 1069 1313 Q 1069 891 1326 650 Q 1584 409 2034 409 Q 2484 409 2743 651 Q 3003 894 3003 1313 Q 3003 1734 2745 1975 Q 2488 2216 2034 2216 z M 1403 2484 Q 997 2584 770 2862 Q 544 3141 544 3541 Q 544 4100 942 4425 Q 1341 4750 2034 4750 Q 2731 4750 3128 4425 Q 3525 4100 3525 3541 Q 3525 3141 3298 2862 Q 3072 2584 2669 2484 Q 3125 2378 3379 2068 Q 3634 1759 3634 1313 Q 3634 634 3220 271 Q 2806 -91 2034 -91 Q 1263 -91 848 271 Q 434 634 434 1313 Q 434 1759 690 2068 Q 947 2378 1403 2484 z M 1172 3481 Q 1172 3119 1398 2916 Q 1625 2713 2034 2713 Q 2441 2713 2670 2916 Q 2900 3119 2900 3481 Q 2900 3844 2670 4047 Q 2441 4250 2034 4250 Q 1625 4250 1398 4047 Q 1172 3844 1172 3481 z" transform="scale(0.015625)"/></defs><use xlink:href="#DejaVuSans-38"/><use xlink:href="#DejaVuSans-30" x="63.623"/><use xlink:href="#DejaVuSans-30" x="127.246"/><use xlink:href="#DejaVuSans-30" x="190.869"/></g></g></g><g id="ytick_6"><g id="line2d_34"><g><use xlink:href="#mc128a38f95" x="180" y="218.332" fill="#ffffff" stroke="#ffffff" stroke-width="0.8"/></g></g><g id="text_13"><g transform="translate(141.1875 222.131624) scale(0.1 -0.1)" fill="#ffffff"><use xlink:href="#DejaVuSans-31"/><use xlink:href="#DejaVuSans-30" x="63.623"/><use xlink:href="#DejaVuSans-30" x="127.246"/><use xlink:href="#DejaVuSans-30" x="190.869"/><use xlink:href="#DejaVuSans-30" x="254.492"/></g></g></g><g id="ytick_7"><g id="line2d_35"><g><use xlink:href="#mc128a38f95" x="180" y="133.839" fill="#ffffff" stroke="#ffffff" stroke-width="0.8"/></g></g><g id="text_14"><g transform="translate(141.1875 137.638105) scale(0.1 -0.1)" fill="#ffffff"><use xlink:href="#DejaVuSans-31"/><use xlink:href="#DejaVuSans-32" x="63.623"/><use xlink:href="#DejaVuSans-30" x="127.246"/><use xlink:href="#DejaVuSans-30" x="190.869"/><use xlink:href="#DejaVuSans-30" x="254.492"/></g></g></g><g id="ytick_8"><g id="line2d_36"><defs><path id="mbdafcafb1b" d="M 0 0 L -2 0" stroke="#ffffff" stroke-width="0.6"/></defs><g><use xlink:href="#mbdafcafb1b" x="180" y="619.677" fill="#ffffff" stroke="#ffffff" stroke-width="0.6"/></g></g></g><g id="ytick_9"><g id="line2d_37"><g><use xlink:href="#mbdafcafb1b" x="180" y="598.553" fill="#ffffff" stroke="#ffffff" stroke-width="0.6"/></g></g></g><g id="ytick_10"><g id="line2d_38"><g><use xlink:href="#mbdafcafb1b" x="180" y="577.43" fill="#ffffff" stroke="#ffffff" stroke-width="0.6"/></g></g></g><g id="ytick_11"><g id="line2d_39"><g><use xlink:href="#mbdafcafb1b" x="180" y="535.183" fill="#ffffff" stroke="#ffffff" stroke-width="0.6"/></g></g></g><g id="ytick_12"><g id="line2d_40"><g><use xlink:href="#mbdafcafb1b" x="180" y="514.06" fill="#ffffff" stroke="#ffffff" stroke-width="0.6"/></g></g></g><g id="ytick_13"><g id="line2d_41"><g><use xlink:href="#mbdafcafb1b" x="180" y="492.936" fill="#ffffff" stroke="#ffffff" stroke-width="0.6"/></g></g></g><g id="ytick_14"><g id="line2d_42"><g><use xlink:href="#mbdafcafb1b" x="180" y="450.69" fill="#ffffff" stroke="#ffffff" stroke-width="0.6"/></g></g></g><g id="ytick_15"><g id="line2d_43"><g><use xlink:href="#mbdafcafb1b" x="180" y="429.566" fill="#ffffff" stroke="#ffffff" stroke-width="0.6"/></g></g></g><g id="ytick_16"><g id="line2d_44"><g><use xlink:href="#mbdafcafb1b" x="180" y="408.443" fill="#ffffff" stroke="#ffffff" stroke-width="0.6"/></g></g></g><g id="ytick_17"><g id="line2d_45"><g><use xlink:href="#mbdafcafb1b" x="180" y="366.196" fill="#ffffff" stroke="#ffffff" stroke-width="0.6"/></g></g></g><g id="ytick_18"><g id="line2d_46"><g><use xlink:href="#mbdafcafb1b" x="180" y="345.073" fill="#ffffff" stroke="#ffffff" stroke-width="0.6"/></g></g></g><g id="ytick_19"><g id="line2d_47"><g><use xlink:href="#mbdafcafb1b" x="180" y="323.949" fill="#ffffff" stroke="#ffffff" stroke-width="0.6"/></g></g></g><g id="ytick_20"><g id="line2d_48"><g><use xlink:href="#mbdafcafb1b" x="180" y="281.703" fill="#ffffff" stroke="#ffffff" stroke-width="0.6"/></g></g></g><g id="ytick_21"><g id="line2d_49"><g><use xlink:href="#mbdafcafb1b" x="180" y="260.579" fill="#ffffff" stroke="#ffffff" stroke-width="0.6"/></g></g></g><g id="ytick_22"><g id="line2d_50"><g><use xlink:href="#mbdafcafb1b" x="180" y="239.456" fill="#ffffff" stroke="#ffffff" stroke-width="0.6"/></g></g></g><g id="ytick_23"><g id="line2d_51"><g><use xlink:href="#mbdafcafb1b" x="180" y="197.209" fill="#ffffff" stroke="#ffffff" stroke-width="0.6"/></g></g></g><g id="ytick_24"><g id="line2d_52"><g><use xlink:href="#mbdafcafb1b" x="180" y="176.086" fill="#ffffff" stroke="#ffffff" stroke-width="0.6"/></g></g></g><g id="ytick_25"><g id="line2d_53"><g><use xlink:href="#mbdafcafb1b" x="180" y="154.962" fill="#ffffff" stroke="#ffffff" stroke-width="0.6"/></g></g></g><g id="ytick_26"><g id="line2d_54"><g><use xlink:href="#mbdafcafb1b" x="180" y="112.716" fill="#ffffff" stroke="#ffffff" stroke-width="0.6"/></g></g></g><g id="ytick_27"><g id="line2d_55"><g><use xlink:href="#mbdafcafb1b" x="180" y="91.592" fill="#ffffff" stroke="#ffffff" stroke-width="0.6"/></g></g></g><g id="text_15"><g transform="translate(135.107812 384.51875) rotate(-90) scale(0.1 -0.1)" fill="#ffffff"><defs><path id="DejaVuSans-56" d="M 1831 0 L 50 4666 L 709 4666 L 2188 738 L 3669 4666 L 4325 4666 L 2547 0 L 1831 0 z" transform="scale(0.015625)"/><path id="DejaVuSans-74" d="M 1172 4494 L 1172 3500 L 2356 3500 L 2356 3053 L 1172 3053 L 1172 1153 Q 1172 725 1289 603 Q 1406 481 1766 481 L 2356 481 L 2356 0 L 1766 0 Q 1100 0 847 248 Q 594 497 594 1153 L 594 3053 L 172 3053 L 172 3500 L 594 3500 L 594 4494 L 1172 4494 z" transform="scale(0.015625)"/><path id="DejaVuSans-67" d="M 2906 1791 Q 2906 2416 2648 2759 Q 2391 3103 1925 3103 Q 1463 3103 1205 2759 Q 947 2416 947 1791 Q 947 1169 1205 825 Q 1463 481 1925 481 Q 2391 481 2648 825 Q 2906 1169 2906 1791 z M 3481 434 Q 3481 -459 3084 -895 Q 2688 -1331 1869 -1331 Q 1566 -1331 1297 -1286 Q 1028 -1241 775 -1147 L 775 -588 Q 1028 -725 1275 -790 Q 1522 -856 1778 -856 Q 2344 -856 2625 -561 Q 2906 -266 2906 331 L 2906 616 Q 2728 306 2450 153 Q 2172 0 1784 0 Q 1141 0 747 490 Q 353 981 353 1791 Q 353 2603 747 3093 Q 1141 3584 1784 3584 Q 2172 3584 2450 3431 Q 2728 3278 2906 2969 L 2906 3500 L 3481 3500 L 3481 434 z" transform="scale(0.015625)"/></defs><use xlink:href="#DejaVuSans-56"/><use xlink:href="#DejaVuSans-65" x="60.658"/><use xlink:href="#DejaVuSans-73" x="122.182"/><use xlink:href="#DejaVuSans-74" x="174.281"/><use xlink:href="#DejaVuSans-69" x="213.49"/><use xlink:href="#DejaVuSans-67" x="241.273"/><use xlink:href="#DejaVuSans-65" x="304.75"/><use xlink:href="#DejaVuSans-73" x="366.273"/></g></g></g><g id="patch_3"><path d="M 180 640.8 L 180 86.4" fill="none" stroke="#ffffff" stroke-width="0.8" stroke-linejoin="miter" stroke-linecap="square"/></g><g id="patch_4"><path d="M 1296 640.8 L 1296 86.4" fill="none" stroke="#ffffff" stroke-width="0.8" stroke-linejoin="miter" stroke-linecap="square"/></g><g id="patch_5"><path d="M 180 640.8 L 1296 640.8" fill="none" stroke="#ffffff" stroke-width="0.8" stroke-linejoin="miter" stroke-linecap="square"/></g><g id="patch_6"><path d="M 180 86.4 L 1296 86.4" fill="none" stroke="#ffffff" stroke-width="0.8" stroke-linejoin="miter" stroke-linecap="square"/></g><g id="text_16"><g transform="translate(619.767187 80.4) scale(0.12 -0.12)" fill="#ffffff"><defs><path id="DejaVuSans-62" d="M 3116 1747 Q 3116 2381 2855 2742 Q 2594 3103 2138 3103 Q 1681 3103 1420 2742 Q 1159 2381 1159 1747 Q 1159 1113 1420 752 Q 1681 391 2138 391 Q 2594 391 2855 752 Q 3116 1113 3116 1747 z M 1159 2969 Q 1341 3281 1617 3432 Q 1894 3584 2278 3584 Q 2916 3584 3314 3078 Q 3713 2572 3713 1747 Q 3713 922 3314 415 Q 2916 -91 2278 -91 Q 1894 -91 1617 61 Q 1341 213 1159 525 L 1159 0 L 581 0 L 581 4863 L 1159 4863 L 1159 2969 z" transform="scale(0.015625)"/><path id="DejaVuSans-6c" d="M 603 4863 L 1178 4863 L 1178 0 L 603 0 L 603 4863 z" transform="scale(0.015625)"/><path id="DejaVuSans-6f" d="M 1959 3097 Q 1497 3097 1228 2736 Q 959 2375 959 1747 Q 959 1119 1226 758 Q 1494 397 1959 397 Q 2419 397 2687 759 Q 2956 1122 2956 1747 Q 2956 2369 2687 2733 Q 2419 3097 1959 3097 z M 1959 3584 Q 2709 3584 3137 3096 Q 3566 2609 3566 1747 Q 3566 888 3137 398 Q 2709 -91 1959 -91 Q 1206 -91 779 398 Q 353 888 353 1747 Q 353 2609 779 3096 Q 1206 3584 1959 3584 z" transform="scale(0.015625)"/><path id="DejaVuSans-75" d="M 544 1381 L 544 3500 L 1119 3500 L 1119 1403 Q 1119 906 1312 657 Q 1506 409 1894 409 Q 2359 409 2629 706 Q 2900 1003 2900 1516 L 2900 3500 L 3475 3500 L 3475 0 L 2900 0 L 2900 538 Q 2691 219 2414 64 Q 2138 -91 1772 -91 Q 1169 -91 856 284 Q 544 659 544 1381 z M 1991 3584 L 1991 3584 z" transform="scale(0.015625)"/><path id="DejaVuSans-66" d="M 2375 4863 L 2375 4384 L 1825 4384 Q 1516 4384 1395 4259 Q 1275 4134 1275 3809 L 1275 3500 L 2222 3500 L 2222 3053 L 1275 3053 L 1275 0 L 697 0 L 697 3053 L 147 3053 L 147 3500 L 697 3500 L 697 3744 Q 697 4328 969 4595 Q 1241 4863 1831 4863 L 2375 4863 z" transform="scale(0.015625)"/><path id="DejaVuSans-53" d="M 3425 4513 L 3425 3897 Q 3066 4069 2747 4153 Q 2428 4238 2131 4238 Q 1616 4238 1336 4038 Q 1056 3838 1056 3469 Q 1056 3159 1242 3001 Q 1428 2844 1947 2747 L 2328 2669 Q 3034 2534 3370 2195 Q 3706 1856 3706 1288 Q 3706 609 3251 259 Q 2797 -91 1919 -91 Q 1588 -91 1214 -16 Q 841 59 441 206 L 441 856 Q 825 641 1194 531 Q 1563 422 1919 422 Q 2459 422 2753 634 Q 3047 847 3047 1241 Q 3047 1584 2836 1778 Q 2625 1972 2144 2069 L 1759 2144 Q 1053 2284 737 2584 Q 422 2884 422 3419 Q 422 4038 858 4394 Q 1294 4750 2059 4750 Q 2388 4750 2728 4690 Q 3069 4631 3425 4513 z" transform="scale(0.015625)"/></defs><use xlink:href="#DejaVuSans-56"/><use xlink:href="#DejaVuSans-69" x="66.158"/><use xlink:href="#DejaVuSans-73" x="93.941"/><use xlink:href="#DejaVuSans-69" x="146.041"/><use xlink:href="#DejaVuSans-62" x="173.824"/><use xlink:href="#DejaVuSans-6c" x="237.301"/><use xlink:href="#DejaVuSans-65" x="265.084"/><use xlink:href="#DejaVuSans-20" x="326.607"/><use xlink:href="#DejaVuSans-56" x="358.395"/><use xlink:href="#DejaVuSans-65" x="419.053"/><use xlink:href="#DejaVuSans-73" x="480.576"/><use xlink:href="#DejaVuSans-74" x="532.676"/><use xlink:href="#DejaVuSans-69" x="571.885"/><use xlink:href="#DejaVuSans-67" x="599.668"/><use xlink:href="#DejaVuSans-65" x="663.145"/><use xlink:href="#DejaVuSans-20" x="724.668"/><use xlink:href="#DejaVuSans-43" x="756.455"/><use xlink:href="#DejaVuSans-6f" x="826.279"/><use xlink:href="#DejaVuSans-75" x="887.461"/><use xlink:href="#DejaVuSans-6e" x="950.84"/><use xlink:href="#DejaVuSans-74" x="1014.219"/><use xlink:href="#DejaVuSans-20" x="1053.428"/><use xlink:href="#DejaVuSans-28" x="1085.215"/><use xlink:href="#DejaVuSans-44" x="1124.229"/><use xlink:href="#DejaVuSans-65" x="1201.23"/><use xlink:href="#DejaVuSans-66" x="1262.754"/><use xlink:href="#DejaVuSans-61" x="1297.959"/><use xlink:href="#DejaVuSans-75" x="1359.238"/><use xlink:href="#DejaVuSans-6c" x="1422.617"/><use xlink:href="#DejaVuSans-74" x="1450.4"/><use xlink:href="#DejaVuSans-20" x="1489.609"/><use xlink:href="#DejaVuSans-53" x="1521.396"/><use xlink:href="#DejaVuSans-65" x="1584.873"/><use xlink:href="#DejaVuSans-74" x="1646.396"/><use xlink:href="#DejaVuSans-74" x="1685.605"/><use xlink:href="#DejaVuSans-69" x="1724.814"/><use xlink:href="#DejaVuSans-6e" x="1752.598"/><use xlink:href="#DejaVuSans-67" x="1815.977"/><use xlink:href="#DejaVuSans-73" x="1879.453"/><use xlink:href="#DejaVuSans-29" x="1931.553"/></g></g></g><g id="legend_1"><g id="patch_7"><path d="M 683.08125 715 L 756.91875 715 Q 758.91875 715 758.91875 713 L 758.91875 699.321875 Q 758.91875 697.321875 756.91875 697.321875 L 683.08125 697.321875 Q 681.08125 697.321875 681.08125 699.321875 L 681.08125 713 Q 681.08125 715 683.08125 715 z" opacity="0.8" stroke="#cccccc" stroke-linejoin="miter"/></g><g id="patch_8"><path d="M 685.08125 708.920313 L 705.08125 708.920313 L 705.08125 701.920313 L 685.08125 701.920313 z" fill="#1f77b4"/></g><g id="text_17"><g transform="translate(713.08125 708.920313) scale(0.1 -0.1)" fill="#ffffff"><use xlink:href="#DejaVuSans-56"/><use xlink:href="#DejaVuSans-65" x="60.658"/><use xlink:href="#DejaVuSans-73" x="122.182"/><use xlink:href="#DejaVuSans-74" x="174.281"/><use xlink:href="#DejaVuSans-69" x="213.49"/><use xlink:href="#DejaVuSans-67" x="241.273"/><use xlink:href="#DejaVuSans-65" x="304.75"/><use xlink:href="#DejaVuSans-73" x="366.273"/></g></g></g></g><defs><clipPath id="p19c251bfdd"><rect x="180" y="86.4" width="1116" height="554.4"/></clipPath></defs></svg>